<svg width="46" height="46" viewBox="0 0 46 46" fill="none" xmlns="http://www.w3.org/2000/svg">
<circle cx="23" cy="23" r="23" fill="#F8F8F8"/>
<path fill-rule="evenodd" clip-rule="evenodd" d="M22.9997 21.7139C21.9659 21.7139 21.1247 20.8486 21.1247 19.7853C21.1247 18.7221 21.9659 17.8568 22.9997 17.8568C24.0334 17.8568 24.8747 18.7221 24.8747 19.7853C24.8747 20.8486 24.0334 21.7139 22.9997 21.7139ZM23 15.2854C20.5875 15.2854 18.625 17.3039 18.625 19.7854C18.625 22.2668 20.5875 24.2854 23 24.2854C25.4125 24.2854 27.375 22.2668 27.375 19.7854C27.375 17.3039 25.4125 15.2854 23 15.2854ZM23 32.8309C20.9062 30.7943 15.5 25.0767 15.5 20.3286C15.5 16.1307 18.8637 12.7146 23 12.7146C27.1362 12.7146 30.5 16.1307 30.5 20.3286C30.5 25.0767 25.0937 30.7943 23 32.8309ZM23 10.1431C17.4863 10.1431 13 14.7112 13 20.3285C13 27.3678 21.8112 35.2158 22.1862 35.5462C22.4213 35.7532 22.71 35.8574 23 35.8574C23.29 35.8574 23.5787 35.7532 23.8138 35.5462C24.1888 35.2158 33 27.3678 33 20.3285C33 14.7112 28.5138 10.1431 23 10.1431Z" fill="#70C818"/>
</svg>
