<svg width="1920" height="6098" viewBox="0 0 1920 6098" fill="none" xmlns="http://www.w3.org/2000/svg">
<mask id="mask0" mask-type="alpha" maskUnits="userSpaceOnUse" x="-2813" y="0" width="7209" height="7543">
<path d="M-2803.53 3375.62C-2915.29 1110.4 -2001.31 0 -2001.31 0H4395.81V6426.67C4395.81 6426.67 3364.53 6194.68 2698.51 6204.59C1275.2 6225.77 488.155 8080.48 -835.381 7386.74C-2146.87 6699.31 -2711.55 5239.84 -2803.53 3375.62Z" fill="#C4C4C4"/>
</mask>
<g mask="url(#mask0)">
<path d="M-2803.53 3375.62C-2915.29 1110.4 -2001.31 0 -2001.31 0H4395.81V6426.67C4395.81 6426.67 3364.53 6194.68 2698.51 6204.59C1275.2 6225.77 488.155 8080.48 -835.381 7386.74C-2146.87 6699.31 -2711.55 5239.84 -2803.53 3375.62Z" fill="#6EBD1E"/>
<g opacity="0.1">
<path d="M390.434 2869.15C400.294 2847.19 414.1 2827.33 429.088 2812.69C512.707 2733.22 617.625 2793.87 642.473 2920.39C648.784 2952.8 649.968 2989.92 642.079 3024.42C634.191 3059.45 616.441 3091.87 593.564 3105.46C571.082 3119.05 544.261 3110.69 532.822 3082.46C528.089 3070.95 524.54 3055.79 523.751 3042.72C522.567 3028.61 521.779 3013.97 513.89 3003.51C510.34 2998.81 506.001 2995.67 501.663 2993.58C487.069 2986.78 472.475 2989.92 461.036 3002.47C451.57 3013.45 440.921 3025.47 427.904 3025.99C418.833 3025.99 410.55 3021.29 403.45 3013.97C365.191 2977.37 368.74 2917.77 390.434 2869.15Z" fill="white"/>
<path d="M534.006 2627.61C493.38 2625.52 464.192 2690.35 495.746 2731.13C509.157 2748.38 530.851 2753.61 547.811 2743.15C564.772 2732.7 575.816 2707.6 574.238 2683.03C572.66 2655.85 555.305 2628.66 534.006 2627.61Z" fill="white"/>
<path d="M646.417 2688.78C605.79 2686.69 576.602 2751.52 608.157 2792.3C621.567 2809.55 643.261 2814.78 660.222 2804.32C677.182 2793.87 688.226 2768.77 686.649 2744.2C685.071 2717.01 667.716 2689.83 646.417 2688.78Z" fill="white"/>
<path d="M709.526 2836.74C677.183 2829.42 651.94 2876.99 665.745 2915.68C675.605 2944.96 705.976 2957.5 726.881 2941.82C764.746 2914.11 748.574 2845.62 709.526 2836.74Z" fill="white"/>
<path d="M414.1 2675.19C381.757 2667.87 356.513 2715.45 370.318 2754.13C380.179 2783.41 410.55 2795.96 431.455 2780.27C469.32 2752.04 453.148 2684.08 414.1 2675.19Z" fill="white"/>
<path d="M1324.44 4410.38C1319.7 4385.29 1318.52 4358.63 1321.68 4334.05C1338.64 4199.69 1444.74 4144.28 1529.94 4210.67C1551.63 4227.92 1572.14 4252.5 1585.16 4284.91C1598.17 4316.8 1602.9 4356.53 1594.23 4387.38C1585.55 4418.23 1562.28 4437.57 1539.01 4428.16C1529.54 4424.5 1518.89 4417.18 1511.4 4408.82C1503.11 4399.93 1494.83 4390.52 1483.39 4390.52C1478.66 4390.52 1473.93 4392.09 1469.19 4395.22C1454.99 4404.11 1446.71 4419.79 1445.13 4439.66C1443.95 4456.39 1443.56 4474.69 1434.09 4487.76C1427.78 4496.65 1419.1 4500.83 1410.42 4502.4C1364.27 4510.24 1335.09 4465.28 1324.44 4410.38Z" fill="white"/>
<path d="M1297.22 4105.07C1267.25 4141.66 1281.45 4214.85 1325.62 4214.33C1344.16 4214.33 1362.31 4197.6 1368.62 4174.08C1374.93 4151.07 1369.41 4122.84 1355.21 4106.63C1339.43 4088.86 1312.61 4085.72 1297.22 4105.07Z" fill="white"/>
<path d="M1409.64 4042.85C1379.66 4079.45 1393.86 4152.64 1438.03 4152.12C1456.57 4152.12 1474.72 4135.39 1481.03 4111.86C1487.34 4088.86 1481.82 4060.63 1467.62 4044.42C1452.23 4026.64 1425.41 4024.03 1409.64 4042.85Z" fill="white"/>
<path d="M1533.09 4088.33C1506.27 4113.43 1513.76 4170.42 1544.13 4185.58C1566.62 4196.56 1595.02 4177.74 1601.33 4146.89C1613.16 4091.47 1565.83 4058.53 1533.09 4088.33Z" fill="white"/>
<path d="M1237.66 4250.93C1210.84 4276.02 1218.34 4333.01 1248.71 4348.17C1271.19 4359.15 1299.59 4340.33 1305.9 4309.48C1317.73 4254.06 1270.4 4220.61 1237.66 4250.93Z" fill="white"/>
<path d="M403.055 775.312C405.816 749.695 412.522 724.6 422.777 703.688C477.208 588.148 591.592 590.762 650.756 695.323C666.139 721.986 677.577 755.446 680.338 792.042C683.099 828.116 675.999 867.326 659.039 891.375C642.079 915.424 615.257 921.175 596.325 900.786C588.436 892.421 580.942 880.396 576.209 868.895C571.082 856.347 565.954 843.277 555.699 837.526C551.36 834.912 546.233 834.389 541.5 834.389C526.117 835.435 513.495 845.368 506.395 863.144C500.479 877.782 494.563 894.512 482.336 901.831C474.053 906.537 464.981 906.537 456.303 903.4C410.944 888.239 397.139 831.253 403.055 775.312Z" fill="white"/>
<path d="M466.164 479.404C427.905 498.225 420.016 572.463 460.642 594.421C477.997 603.831 499.296 597.558 511.918 579.26C524.54 560.961 527.695 532.207 519.018 510.249C509.946 486.2 486.28 469.47 466.164 479.404Z" fill="white"/>
<path d="M588.042 479.404C549.782 498.225 541.894 572.463 582.52 594.421C599.874 603.831 621.173 597.558 633.795 579.26C646.417 560.961 649.572 532.207 640.895 510.249C631.823 486.2 607.763 469.47 588.042 479.404Z" fill="white"/>
<path d="M689.015 583.964C657.067 593.374 647.6 650.36 671.266 679.114C689.015 701.072 720.57 697.413 735.558 672.318C761.985 627.879 727.669 572.985 689.015 583.964Z" fill="white"/>
<path d="M369.134 583.964C337.186 593.374 327.72 650.36 351.385 679.114C369.134 701.072 400.688 697.413 415.677 672.318C442.498 627.879 408.183 572.985 369.134 583.964Z" fill="white"/>
<path d="M1290.52 2176.43C1293.28 2150.81 1299.98 2125.72 1310.24 2104.81C1364.67 1989.27 1479.05 1991.88 1538.22 2096.44C1553.6 2123.11 1565.04 2156.57 1567.8 2193.16C1570.56 2229.24 1563.46 2268.45 1546.5 2292.49C1529.54 2316.54 1502.72 2322.29 1483.79 2301.91C1475.9 2293.54 1468.4 2281.52 1463.67 2270.01C1458.54 2257.47 1453.41 2244.4 1443.16 2238.65C1438.82 2236.03 1433.69 2235.51 1428.96 2235.51C1413.58 2236.55 1400.96 2246.49 1393.86 2264.26C1387.94 2278.9 1382.02 2295.63 1369.8 2302.95C1361.51 2307.66 1352.44 2307.66 1343.76 2304.52C1298.4 2289.36 1284.6 2232.37 1290.52 2176.43Z" fill="white"/>
<path d="M1353.62 1880.53C1315.36 1899.35 1307.48 1973.58 1348.1 1995.54C1365.46 2004.95 1386.76 1998.68 1399.38 1980.38C1412 1962.08 1415.16 1933.33 1406.48 1911.37C1397.41 1887.32 1373.74 1870.59 1353.62 1880.53Z" fill="white"/>
<path d="M1475.5 1880.52C1437.24 1899.35 1429.35 1973.58 1469.98 1995.54C1487.34 2004.95 1508.64 1998.68 1521.26 1980.38C1533.88 1962.08 1537.03 1933.33 1528.36 1911.37C1519.28 1887.32 1495.22 1870.59 1475.5 1880.52Z" fill="white"/>
<path d="M1576.48 1985.08C1544.53 1994.49 1535.06 2051.48 1558.73 2080.24C1576.48 2102.19 1608.03 2098.53 1623.02 2073.44C1649.45 2029 1615.13 1974.11 1576.48 1985.08Z" fill="white"/>
<path d="M1256.6 1985.08C1224.65 1994.49 1215.18 2051.48 1238.85 2080.24C1256.6 2102.19 1288.15 2098.53 1303.14 2073.44C1329.96 2029 1295.64 1974.11 1256.6 1985.08Z" fill="white"/>
<path d="M1908.98 5409.99C1904.64 5384.89 1904.25 5358.23 1907.8 5333.66C1927.52 5199.82 2034.81 5148.59 2118.82 5218.12C2140.51 5235.89 2160.23 5261.51 2172.46 5294.45C2184.69 5326.86 2188.63 5367.12 2179.17 5397.44C2169.7 5427.76 2146.03 5446.06 2123.16 5436.13C2113.69 5431.95 2103.44 5424.11 2095.94 5415.74C2087.66 5406.33 2079.77 5396.92 2068.33 5396.4C2063.6 5396.4 2058.47 5397.96 2054.13 5400.58C2039.93 5408.94 2030.86 5424.11 2029.28 5443.97C2027.71 5460.7 2026.92 5479 2017.45 5491.55C2011.14 5499.91 2002.46 5504.09 1993.39 5505.14C1946.85 5511.41 1918.45 5465.41 1908.98 5409.99Z" fill="white"/>
<path d="M1888.47 5103.63C1857.71 5139.18 1870.33 5212.37 1914.5 5213.94C1933.04 5214.46 1951.58 5198.25 1958.28 5175.25C1965.38 5152.25 1960.26 5124.01 1946.45 5107.28C1931.07 5088.99 1904.25 5085.33 1888.47 5103.63Z" fill="white"/>
<path d="M1825.76 5247.4C1798.15 5271.45 1804.85 5328.95 1834.83 5345.16C1857.31 5357.19 1885.71 5339.41 1892.81 5308.56C1905.83 5253.67 1858.89 5218.64 1825.76 5247.4Z" fill="white"/>
<path d="M393.587 5059.71C400.292 5035.66 410.941 5012.66 423.958 4994.88C494.954 4896.59 606.578 4930.58 648.387 5048.73C659.036 5079.05 665.347 5115.13 662.586 5151.2C659.431 5187.27 646.415 5223.87 626.299 5242.69C605.789 5261.51 578.573 5259.94 563.585 5234.85C557.274 5224.39 551.752 5210.8 548.991 5197.73C545.836 5184.14 543.075 5170.02 533.609 5161.66C529.664 5158 524.931 5155.91 520.198 5154.86C504.815 5151.72 491.01 5158 481.544 5173.68C473.656 5186.75 464.978 5201.39 451.962 5205.05C442.89 5207.66 434.213 5204.53 425.93 5199.3C383.726 5172.11 378.993 5112.51 393.587 5059.71Z" fill="white"/>
<path d="M501.266 4787.33C461.035 4795.17 441.313 4865.75 477.995 4898.69C493.378 4912.28 515.466 4912.28 530.848 4897.64C546.231 4883 553.331 4855.82 548.597 4831.77C543.075 4805.63 522.171 4783.15 501.266 4787.33Z" fill="white"/>
<path d="M620.385 4820.26C580.153 4828.11 560.431 4898.69 597.113 4931.62C612.496 4945.22 634.584 4945.21 649.967 4930.58C665.35 4915.94 672.45 4888.75 667.716 4864.7C662.194 4838.56 641.29 4816.08 620.385 4820.26Z" fill="white"/>
<path d="M702.818 4950.44C670.081 4950.97 651.937 5003.77 670.475 5038.8C684.28 5064.94 715.834 5070.17 734.373 5049.78C767.505 5013.18 742.656 4949.92 702.818 4950.44Z" fill="white"/>
<path d="M390.038 4863.13C357.301 4863.66 339.157 4916.46 357.695 4951.49C371.5 4977.63 403.055 4982.86 421.593 4962.47C454.725 4925.87 429.876 4862.61 390.038 4863.13Z" fill="white"/>
<path d="M955.249 1610.76L937.894 1623.3L915.017 1628.01L891.351 1623.3L874.391 1606.05L862.558 1584.62L857.431 1561.61L859.008 1534.95L867.686 1507.76L887.802 1483.19L915.806 1464.37L937.894 1445.03L954.065 1422.02L969.054 1392.22L982.07 1357.72L1054.25 1130.3L1065.69 1086.38L1070.82 1041.94L1068.45 995.412L1061.74 950.451L1058.98 918.037L1061.74 880.395L1078.31 844.844L1097.64 822.364L1127.61 815.044L1155.62 835.434L1175.34 858.96L1185.2 883.532L1188.36 901.307L1205.32 885.623L1225.04 878.827L1247.13 882.486L1271.97 900.785L1288.93 936.335L1285.78 987.048L1258.17 1021.55L1228.59 1042.99L1202.16 1068.08L1183.23 1099.45L1167.06 1149.12L1085.8 1402.16L1072 1453.39L1072.79 1498.88L1080.68 1550.11L1087.78 1595.59L1085.8 1633.76L1066.08 1666.7L1042.42 1680.81L1015.2 1683.95L993.114 1678.2L972.209 1656.24L959.588 1628.53L955.249 1610.76Z" fill="white"/>
<path d="M-139.288 3659.11C-155.459 3627.74 -184.252 3613.63 -215.412 3620.42C-248.938 3626.7 -263.532 3663.29 -262.349 3693.62C-266.688 3749.56 -230.4 3780.93 -198.846 3814.38C-173.208 3840 -156.248 3875.55 -145.598 3915.29C-131.793 3966.52 -119.566 4018.28 -107.339 4070.56C-101.817 4093.56 -97.4781 4116.57 -91.5617 4139.05C-80.9122 4181.4 -71.0515 4226.36 -75.7846 4271.32C-80.5177 4318.37 -112.466 4358.63 -93.5338 4406.2C-66.3184 4476.26 9.01726 4453.78 16.9058 4381.63" fill="white"/>
<path d="M-139.288 3659.11C-155.459 3627.74 -184.252 3613.63 -215.412 3620.42C-248.938 3626.7 -263.532 3663.29 -262.349 3693.62C-266.688 3749.56 -230.4 3780.93 -198.846 3814.38C-173.208 3840 -156.248 3875.55 -145.598 3915.29C-131.793 3966.52 -119.566 4018.28 -107.339 4070.56C-101.817 4093.56 -97.4781 4116.57 -91.5617 4139.05C-80.9122 4181.4 -71.0515 4226.36 -75.7846 4271.32C-80.5177 4318.37 -112.466 4358.63 -93.5338 4406.2C-66.3184 4476.26 9.01726 4453.78 16.9058 4381.63" stroke="white" stroke-width="3.4984" stroke-miterlimit="10" stroke-linecap="round" stroke-linejoin="round"/>
<path d="M5.86016 4362.29C15.7208 4381.11 31.1036 4395.75 44.1197 4400.97C87.9011 4413.52 120.244 4377.45 131.288 4326.21C140.755 4268.18 93.8176 4241.52 62.6578 4208.06C45.303 4189.76 26.7649 4163.62 20.454 4135.39C16.1153 4117.61 12.171 4099.31 7.8323 4081.54C-4.39495 4030.3 -16.2276 3979.07 -28.4548 3927.83C-36.3434 3894.9 -43.8376 3861.96 -51.7261 3829.02C-54.8816 3814.91 -58.4315 3802.88 -59.2204 3788.24C-61.1925 3753.74 -53.6983 3723.94 -43.8376 3692.57C-35.1602 3665.39 -29.2438 3637.68 -40.6822 3610.49C-69.8699 3541.48 -145.994 3568.14 -150.333 3642.9" fill="white"/>
<path d="M5.86016 4362.29C15.7208 4381.11 31.1036 4395.75 44.1197 4400.97C87.9011 4413.52 120.244 4377.45 131.288 4326.21C140.755 4268.18 93.8176 4241.52 62.6578 4208.06C45.303 4189.76 26.7649 4163.62 20.454 4135.39C16.1153 4117.61 12.171 4099.31 7.8323 4081.54C-4.39495 4030.3 -16.2276 3979.07 -28.4548 3927.83C-36.3434 3894.9 -43.8376 3861.96 -51.7261 3829.02C-54.8816 3814.91 -58.4315 3802.88 -59.2204 3788.24C-61.1925 3753.74 -53.6983 3723.94 -43.8376 3692.57C-35.1602 3665.39 -29.2438 3637.68 -40.6822 3610.49C-69.8699 3541.48 -145.994 3568.14 -150.333 3642.9" stroke="white" stroke-width="3.4984" stroke-miterlimit="10" stroke-linecap="round" stroke-linejoin="round"/>
<path d="M17.6941 4384.25L10.5944 4408.82L-4.39379 4431.83L-24.9041 4448.56L-46.2031 4449.6L-65.5301 4443.85L-80.5183 4430.78L-92.7458 4409.35L-99.4508 4381.11L-95.9011 4345.04L-84.0683 4306.35L-76.5741 4272.37L-75.3908 4241.53L-78.5462 4205.45L-85.2515 4168.33L-141.655 3933.07L-154.671 3889.68L-172.026 3851.51L-196.875 3818.05L-223.696 3789.3L-241.84 3767.34L-258.011 3735.97L-262.744 3694.67L-259.194 3661.21L-239.867 3629.84L-208.707 3621.48L-181.886 3622.52L-162.559 3632.46L-151.121 3643.43L-145.994 3616.77L-134.555 3594.81L-115.623 3578.61L-87.618 3571.29L-57.6416 3583.83L-35.1591 3624.61L-39.498 3674.8L-51.7252 3716.63L-59.6137 3758.97L-58.4305 3799.23L-46.5976 3850.99L15.3276 4113.44L29.9215 4164.15L52.4039 4198.13L83.9582 4230.55L111.568 4258.78L128.528 4289.62L129.712 4331.45L118.273 4362.29L99.3407 4388.43L79.6193 4403.07L52.7983 4404.12L29.5269 4393.66L17.6941 4384.25Z" fill="white"/>
<path d="M-76.9694 6228.7C-67.1087 6247.53 -51.726 6262.16 -38.7099 6267.39C5.07153 6279.94 37.4147 6243.87 48.4587 6192.63C57.925 6134.6 10.988 6107.94 -20.1718 6074.48C-37.5266 6056.18 -56.0647 6030.04 -62.3756 6001.81C-66.7143 5984.03 -70.6586 5965.73 -74.9973 5947.96C-87.2245 5896.72 -99.0572 5845.49 -111.284 5794.25C-119.173 5761.32 -126.667 5728.38 -134.556 5695.44C-137.711 5681.33 -141.261 5669.3 -142.05 5654.66C-144.022 5620.16 -136.528 5590.36 -126.667 5558.99C-117.99 5531.8 -112.073 5504.1 -123.512 5476.91C-152.699 5407.9 -228.824 5434.56 -233.163 5509.32" fill="white"/>
<path d="M-76.9694 6228.7C-67.1087 6247.53 -51.726 6262.16 -38.7099 6267.39C5.07153 6279.94 37.4147 6243.87 48.4587 6192.63C57.925 6134.6 10.988 6107.94 -20.1718 6074.48C-37.5266 6056.18 -56.0647 6030.04 -62.3756 6001.81C-66.7143 5984.03 -70.6586 5965.73 -74.9973 5947.96C-87.2245 5896.72 -99.0572 5845.49 -111.284 5794.25C-119.173 5761.32 -126.667 5728.38 -134.556 5695.44C-137.711 5681.33 -141.261 5669.3 -142.05 5654.66C-144.022 5620.16 -136.528 5590.36 -126.667 5558.99C-117.99 5531.8 -112.073 5504.1 -123.512 5476.91C-152.699 5407.9 -228.824 5434.56 -233.163 5509.32" stroke="white" stroke-width="3.4984" stroke-miterlimit="10" stroke-linecap="round" stroke-linejoin="round"/>
<path d="M-65.137 6250.67L-72.2366 6275.24L-87.2248 6298.25L-107.735 6314.98L-129.034 6316.02L-148.361 6310.27L-163.349 6297.2L-175.577 6275.77L-182.282 6247.53L-178.732 6211.46L-166.899 6172.77L-159.405 6138.79L-158.222 6107.94L-161.377 6071.87L-168.083 6034.75L-224.486 5799.49L-237.502 5756.1L-254.857 5717.93L-279.706 5684.47L-306.527 5655.72L-324.671 5633.76L-340.842 5602.39L-345.575 5561.09L-342.025 5527.63L-322.698 5496.26L-291.539 5487.9L-264.717 5488.94L-245.39 5498.87L-233.952 5509.85L-228.825 5483.19L-217.386 5461.23L-198.454 5445.03L-170.449 5437.71L-140.473 5450.25L-117.99 5491.03L-122.329 5541.22L-134.556 5583.05L-142.445 5625.39L-141.262 5665.65L-129.429 5717.41L-67.5034 5979.86L-52.9096 6030.57L-30.4271 6064.55L1.12713 6096.96L28.7371 6125.2L45.6974 6156.04L46.8807 6197.87L35.4422 6228.71L16.5097 6254.85L-3.21173 6269.49L-30.0328 6270.54L-53.3041 6260.08L-65.137 6250.67Z" fill="white"/>
<path d="M971.813 5357.71C945.387 5343.59 915.41 5353 892.139 5381.76C866.895 5411.56 870.445 5452.86 884.25 5477.43C903.972 5527.1 947.753 5526.05 987.591 5530.76C1019.54 5532.85 1048.73 5550.1 1074.36 5575.2C1107.5 5607.61 1139.45 5641.59 1171.39 5675.57C1185.59 5690.74 1199 5706.42 1213.2 5721.06C1240.02 5748.25 1266.85 5778.57 1281.83 5819.35C1297.61 5862.22 1288.14 5918.68 1323.64 5944.82C1375.71 5982.46 1428.56 5908.22 1404.9 5842.87" fill="white"/>
<path d="M971.813 5357.71C945.387 5343.59 915.41 5353 892.139 5381.76C866.895 5411.56 870.445 5452.86 884.25 5477.43C903.972 5527.1 947.753 5526.05 987.591 5530.76C1019.54 5532.85 1048.73 5550.1 1074.36 5575.2C1107.5 5607.61 1139.45 5641.59 1171.39 5675.57C1185.59 5690.74 1199 5706.42 1213.2 5721.06C1240.02 5748.25 1266.85 5778.57 1281.83 5819.35C1297.61 5862.22 1288.14 5918.68 1323.64 5944.82C1375.71 5982.46 1428.56 5908.22 1404.9 5842.87" stroke="white" stroke-width="3.4984" stroke-miterlimit="10" stroke-linecap="round" stroke-linejoin="round"/>
<path d="M1388.33 5834.51C1404.5 5842.87 1423.44 5843.4 1436.06 5838.17C1477.87 5816.21 1489.3 5762.36 1477.08 5711.65C1460.51 5656.23 1410.42 5668.78 1370.19 5664.07C1348.1 5661.46 1321.67 5653.62 1304.32 5634.8C1293.27 5622.77 1282.23 5611.27 1271.19 5599.25C1239.63 5565.79 1208.08 5531.8 1176.52 5498.34C1156.01 5476.91 1135.9 5454.95 1115.39 5433.52C1106.71 5424.63 1098.82 5416.79 1092.12 5405.28C1075.94 5378.1 1069.63 5347.78 1064.51 5314.84C1060.17 5286.08 1053.46 5258.38 1032.56 5244.26C979.31 5208.19 927.64 5287.13 955.25 5352.48" fill="white"/>
<path d="M1388.33 5834.51C1404.5 5842.87 1423.44 5843.4 1436.06 5838.17C1477.87 5816.21 1489.3 5762.36 1477.08 5711.65C1460.51 5656.23 1410.42 5668.78 1370.19 5664.07C1348.1 5661.46 1321.67 5653.62 1304.32 5634.8C1293.27 5622.77 1282.23 5611.27 1271.19 5599.25C1239.63 5565.79 1208.08 5531.8 1176.52 5498.34C1156.01 5476.91 1135.9 5454.95 1115.39 5433.52C1106.71 5424.63 1098.82 5416.79 1092.12 5405.28C1075.94 5378.1 1069.63 5347.78 1064.51 5314.84C1060.17 5286.08 1053.46 5258.38 1032.56 5244.26C979.31 5208.19 927.64 5287.13 955.25 5352.48" stroke="white" stroke-width="3.4984" stroke-miterlimit="10" stroke-linecap="round" stroke-linejoin="round"/>
<path d="M1407.26 5843.4L1412 5869.54L1409.23 5899.86L1399.37 5928.61L1382.02 5945.34L1363.48 5954.75H1345.34L1326.01 5945.87L1308.66 5927.57L1296.43 5895.15L1290.12 5854.38L1282.23 5820.39L1270 5794.25L1252.25 5766.54L1230.95 5740.4L1085.41 5587.22L1056.62 5560.56L1025.46 5541.74L991.141 5532.33L956.826 5528.67L932.766 5523.44L905.944 5509.32L884.251 5479L873.207 5448.15L876.362 5407.9L898.45 5378.1L921.327 5359.28L941.443 5353L955.643 5353.53L948.543 5327.91L948.937 5300.72L957.615 5273.54L977.73 5246.87L1008.1 5234.85L1043.99 5252.63L1061.74 5297.06L1068.84 5340.98L1080.28 5381.76L1098.03 5414.17L1129.59 5448.68L1291.3 5620.68L1324.83 5652.05L1357.96 5663.55L1397.4 5667.21L1432.51 5670.35L1459.72 5683.42L1478.26 5717.4L1481.81 5751.38L1477.08 5786.93L1466.43 5813.6L1445.13 5833.99L1421.46 5842.87L1407.26 5843.4Z" fill="white"/>
<path d="M981.677 3193.29C954.856 3180.74 925.274 3191.2 902.791 3221C878.337 3251.85 883.07 3293.15 897.269 3316.67C918.568 3365.29 961.955 3362.16 1001.79 3365.29C1034.14 3365.82 1063.32 3381.5 1089.75 3405.55C1123.67 3436.4 1156.41 3468.81 1189.54 3501.22C1204.13 3515.34 1217.94 3531.02 1232.53 3544.62C1260.14 3570.76 1287.75 3599.51 1303.92 3639.77C1320.88 3681.59 1312.6 3738.58 1349.28 3763.15C1402.14 3798.7 1453.41 3721.85 1427.77 3657.54" fill="white"/>
<path d="M981.677 3193.29C954.856 3180.74 925.274 3191.2 902.791 3221C878.337 3251.85 883.07 3293.15 897.269 3316.67C918.568 3365.29 961.955 3362.16 1001.79 3365.29C1034.14 3365.82 1063.32 3381.5 1089.75 3405.55C1123.67 3436.4 1156.41 3468.81 1189.54 3501.22C1204.13 3515.34 1217.94 3531.02 1232.53 3544.62C1260.14 3570.76 1287.75 3599.51 1303.92 3639.77C1320.88 3681.59 1312.6 3738.58 1349.28 3763.15C1402.14 3798.7 1453.41 3721.85 1427.77 3657.54" stroke="white" stroke-width="3.4984" stroke-miterlimit="10" stroke-linecap="round" stroke-linejoin="round"/>
<path d="M1410.42 3649.7C1426.59 3657.02 1445.53 3657.02 1458.54 3651.27C1499.56 3627.74 1509.42 3572.85 1496.01 3522.66C1478.26 3468.29 1428.17 3482.93 1387.94 3480.31C1365.85 3478.74 1339.42 3471.95 1321.28 3454.17C1309.84 3442.67 1298.4 3431.69 1287.36 3420.19C1255.02 3388.3 1222.28 3355.88 1189.94 3323.99C1169.03 3303.08 1148.13 3282.69 1127.22 3261.78C1118.54 3252.89 1110.26 3245.57 1103.16 3234.59C1086.2 3207.93 1079.1 3178.13 1073.18 3145.19C1068.06 3116.44 1060.96 3089.25 1039.26 3076.18C985.228 3042.72 935.53 3123.76 964.717 3187.54" fill="white"/>
<path d="M1410.42 3649.7C1426.59 3657.02 1445.53 3657.02 1458.54 3651.27C1499.56 3627.74 1509.42 3572.85 1496.01 3522.66C1478.26 3468.29 1428.17 3482.93 1387.94 3480.31C1365.85 3478.74 1339.42 3471.95 1321.28 3454.17C1309.84 3442.67 1298.4 3431.69 1287.36 3420.19C1255.02 3388.3 1222.28 3355.88 1189.94 3323.99C1169.03 3303.08 1148.13 3282.69 1127.22 3261.78C1118.54 3252.89 1110.26 3245.57 1103.16 3234.59C1086.2 3207.93 1079.1 3178.13 1073.18 3145.19C1068.06 3116.44 1060.96 3089.25 1039.26 3076.18C985.228 3042.72 935.53 3123.76 964.717 3187.54" stroke="white" stroke-width="3.4984" stroke-miterlimit="10" stroke-linecap="round" stroke-linejoin="round"/>
<path d="M1429.35 3658.07L1434.87 3683.68L1432.9 3714.01L1423.83 3743.28L1406.87 3761.06L1388.72 3770.99L1370.58 3772.04L1351.25 3764.2L1333.5 3746.42L1320.09 3714.53L1312.99 3673.75L1303.92 3640.81L1291.3 3615.2L1272.76 3588.01L1250.68 3563.44L1101.19 3417.05L1071.61 3391.96L1040.05 3374.18L1005.34 3366.34L971.026 3364.25L946.571 3360.59L919.356 3347.52L897.268 3317.72L885.435 3287.92L887.407 3247.66L908.706 3216.3L930.794 3196.43L950.91 3189.63H965.11L957.221 3164.01L956.827 3137.35L965.11 3109.64L984.437 3081.93L1014.02 3068.34L1050.7 3084.55L1069.63 3127.94L1077.92 3171.33L1090.54 3211.59L1109.08 3243.48L1141.81 3275.89L1307.87 3440.58L1342.18 3470.38L1375.71 3480.31L1415.15 3481.88L1450.26 3483.45L1477.47 3495.47L1497.19 3528.41L1501.53 3562.39L1497.59 3597.94L1488.12 3625.13L1466.82 3647.09L1443.55 3656.5L1429.35 3658.07Z" fill="white"/>
<path d="M1189.54 928.503C1192.3 890.861 1177.71 855.31 1150.49 833.352C1122.09 809.303 1092.9 824.987 1079.1 849.036C1048.33 887.724 1060.95 943.141 1068.45 995.422C1075.55 1036.72 1071.21 1078.55 1059.77 1118.28C1045.18 1169.52 1029.4 1219.18 1013.23 1269.37C1006.13 1291.33 998.241 1312.77 991.535 1335.25C978.914 1376.55 964.32 1419.42 938.682 1449.74C911.861 1481.63 868.08 1484.77 859.008 1537.57C845.597 1614.42 913.833 1661.48 955.248 1613.38" fill="white"/>
<path d="M1189.54 928.503C1192.3 890.861 1177.71 855.31 1150.49 833.352C1122.09 809.303 1092.9 824.987 1079.1 849.036C1048.33 887.724 1060.95 943.141 1068.45 995.422C1075.55 1036.72 1071.21 1078.55 1059.77 1118.28C1045.18 1169.52 1029.4 1219.18 1013.23 1269.37C1006.13 1291.33 998.241 1312.77 991.535 1335.25C978.914 1376.55 964.32 1419.42 938.682 1449.74C911.861 1481.63 868.08 1484.77 859.008 1537.57C845.597 1614.42 913.833 1661.48 955.248 1613.38" stroke="white" stroke-width="3.4984" stroke-miterlimit="10" stroke-linecap="round" stroke-linejoin="round"/>
<path d="M956.827 1589.32C955.249 1611.8 959.588 1636.37 967.082 1651.54C994.297 1699.11 1036.5 1698.59 1070.03 1669.31C1105.92 1633.24 1083.04 1572.59 1075.55 1520.31C1071.61 1491.56 1070.03 1455.48 1078.7 1428.3C1084.23 1411.05 1089.75 1393.79 1095.27 1376.54C1111.05 1326.87 1126.83 1277.73 1142.6 1228.06C1152.86 1196.17 1163.11 1164.28 1173.37 1132.39C1177.71 1118.8 1181.26 1106.77 1187.57 1094.75C1202.95 1067.04 1223.07 1050.31 1245.94 1035.15C1265.66 1022.08 1283.81 1005.87 1288.54 975.025C1299.98 897.126 1228.98 852.688 1189.14 905.491" fill="white"/>
<path d="M956.827 1589.32C955.249 1611.8 959.588 1636.37 967.082 1651.54C994.297 1699.11 1036.5 1698.59 1070.03 1669.31C1105.92 1633.24 1083.04 1572.59 1075.55 1520.31C1071.61 1491.56 1070.03 1455.48 1078.7 1428.3C1084.23 1411.05 1089.75 1393.79 1095.27 1376.54C1111.05 1326.87 1126.83 1277.73 1142.6 1228.06C1152.86 1196.17 1163.11 1164.28 1173.37 1132.39C1177.71 1118.8 1181.26 1106.77 1187.57 1094.75C1202.95 1067.04 1223.07 1050.31 1245.94 1035.15C1265.66 1022.08 1283.81 1005.87 1288.54 975.025C1299.98 897.126 1228.98 852.688 1189.14 905.491" stroke="white" stroke-width="3.4984" stroke-miterlimit="10" stroke-linecap="round" stroke-linejoin="round"/>
<path d="M955.254 1615.98L937.899 1628.53L915.022 1633.76L891.356 1628.53L874.791 1611.28L862.563 1590.37L857.83 1567.36L859.014 1540.18L867.691 1512.99L887.807 1488.42L915.811 1469.6L938.293 1450.25L954.071 1427.77L969.453 1397.45L982.469 1362.95L1054.26 1135.53L1065.69 1091.61L1070.82 1047.17L1068.45 1000.64L1061.75 955.68L1058.59 923.266L1061.75 885.624L1078.32 850.073L1097.64 827.592L1127.62 820.273L1155.23 840.662L1174.95 864.189L1184.81 888.76L1188.36 906.536L1204.93 890.852L1225.04 883.532L1247.13 887.715L1271.98 906.013L1288.55 941.041L1285.78 991.753L1258.17 1026.26L1228.59 1047.69L1201.77 1073.31L1183.23 1104.68L1167.06 1154.35L1085.81 1407.38L1072 1458.62L1072.79 1504.1L1081.08 1555.34L1088.18 1600.82L1085.81 1638.99L1066.48 1671.92L1042.82 1686.04L1015.21 1689.7L993.513 1683.43L972.609 1661.47L959.987 1633.76L955.254 1615.98Z" fill="white"/>
<path d="M3.49266 2217.73L-3.607 2242.31L-18.5952 2265.83L-38.7112 2282.56L-60.4047 2283.61L-79.7315 2277.86L-94.72 2264.26L-106.947 2242.83L-113.652 2215.12L-110.103 2179.05L-98.2697 2140.36L-90.7757 2106.38L-89.9868 2075.53L-93.1422 2039.46L-99.8475 2001.82L-156.645 1767.08L-169.267 1724.2L-187.016 1685.52L-211.865 1652.06L-238.686 1623.83L-256.83 1601.87L-273.001 1570.5L-278.129 1529.2L-274.185 1495.22L-254.858 1464.37L-224.092 1455.48L-197.271 1456.53L-177.944 1466.98L-166.506 1477.44L-161.378 1450.78L-149.94 1428.82L-131.007 1412.61L-103.003 1405.29L-73.0264 1417.32L-50.544 1458.62L-54.4883 1508.81L-66.7154 1550.63L-74.604 1592.98L-73.4208 1632.71L-61.5879 1684.47L0.731613 1946.92L15.3255 1997.63L38.2023 2031.62L69.3622 2064.03L96.9721 2092.26L114.327 2123.11L115.51 2164.93L104.072 2195.78L85.1393 2221.92L65.4179 2236.56L38.5968 2237.6L15.3255 2227.67L3.49266 2217.73Z" fill="white"/>
<path d="M-152.304 1497.31C-168.475 1465.94 -197.269 1451.82 -228.428 1458.62C-261.955 1464.89 -276.549 1502.01 -274.971 1532.34C-279.31 1588.28 -242.628 1619.12 -211.468 1652.58C-185.436 1678.2 -168.87 1713.75 -157.826 1753.48C-143.627 1804.72 -131.399 1856.48 -119.172 1908.76C-113.65 1931.76 -109.311 1954.76 -103.395 1977.24C-92.7453 2019.59 -82.8846 2064.55 -87.6177 2109.51C-92.3508 2156.57 -124.299 2196.82 -105.367 2244.4C-78.1515 2313.93 -2.8159 2291.45 4.67822 2219.3" fill="white"/>
<path d="M-152.304 1497.31C-168.475 1465.94 -197.269 1451.82 -228.428 1458.62C-261.955 1464.89 -276.549 1502.01 -274.971 1532.34C-279.31 1588.28 -242.628 1619.12 -211.468 1652.58C-185.436 1678.2 -168.87 1713.75 -157.826 1753.48C-143.627 1804.72 -131.399 1856.48 -119.172 1908.76C-113.65 1931.76 -109.311 1954.76 -103.395 1977.24C-92.7453 2019.59 -82.8846 2064.55 -87.6177 2109.51C-92.3508 2156.57 -124.299 2196.82 -105.367 2244.4C-78.1515 2313.93 -2.8159 2291.45 4.67822 2219.3" stroke="white" stroke-width="3.4984" stroke-miterlimit="10" stroke-linecap="round" stroke-linejoin="round"/>
<path d="M-5.97121 2199.96C3.88948 2218.78 19.2722 2233.42 32.2883 2238.12C76.0697 2250.67 108.413 2214.07 119.457 2163.36C128.923 2105.33 81.9863 2078.67 50.4321 2045.21C33.0773 2026.91 14.539 2000.77 7.83375 1972.54C3.49505 1954.76 -0.843461 1936.46 -4.78774 1918.69C-17.015 1867.45 -29.2423 1816.22 -41.0751 1764.98C-48.9637 1732.05 -56.8523 1699.11 -64.3464 1666.17C-67.5018 1652.06 -71.0515 1640.03 -71.8404 1625.39C-73.8125 1590.89 -66.7129 1561.09 -56.8522 1529.72C-48.1748 1502.54 -42.2583 1474.83 -54.0912 1447.64C-83.2788 1378.63 -159.403 1405.82 -163.742 1480.58" fill="white"/>
<path d="M-5.97121 2199.96C3.88948 2218.78 19.2722 2233.42 32.2883 2238.12C76.0697 2250.67 108.413 2214.07 119.457 2163.36C128.923 2105.33 81.9863 2078.67 50.4321 2045.21C33.0773 2026.91 14.539 2000.77 7.83375 1972.54C3.49505 1954.76 -0.843461 1936.46 -4.78774 1918.69C-17.015 1867.45 -29.2423 1816.22 -41.0751 1764.98C-48.9637 1732.05 -56.8523 1699.11 -64.3464 1666.17C-67.5018 1652.06 -71.0515 1640.03 -71.8404 1625.39C-73.8125 1590.89 -66.7129 1561.09 -56.8522 1529.72C-48.1748 1502.54 -42.2583 1474.83 -54.0912 1447.64C-83.2788 1378.63 -159.403 1405.82 -163.742 1480.58" stroke="white" stroke-width="3.4984" stroke-miterlimit="10" stroke-linecap="round" stroke-linejoin="round"/>
<path d="M6.2563 2221.4L-0.843358 2246.5L-15.8318 2269.5L-36.3419 2286.23L-57.6411 2287.28L-76.9682 2281.53L-91.9564 2268.45L-104.184 2247.02L-110.889 2218.79L-107.734 2182.71L-95.5061 2144.03L-88.4064 2110.57L-87.2232 2079.72L-90.3786 2043.13L-97.4782 2006.01L-153.882 1771.27L-166.898 1727.87L-184.647 1689.71L-209.496 1656.25L-236.317 1628.02L-254.461 1606.06L-270.632 1574.69L-275.76 1533.39L-271.815 1499.41L-252.489 1468.04L-221.723 1459.67L-194.902 1460.72L-175.575 1470.65L-164.137 1481.63L-159.009 1454.97L-147.571 1433.01L-128.638 1416.8L-100.634 1408.96L-70.6572 1421.51L-48.1747 1462.81L-52.119 1512.48L-64.3464 1554.3L-72.235 1596.65L-71.0517 1636.9L-58.8243 1688.66L3.10092 1951.11L18.0891 2001.3L40.5716 2035.81L72.1258 2067.7L99.7358 2095.93L116.696 2126.77L117.879 2168.6L106.835 2199.97L87.903 2226.11L68.1816 2240.22L41.3603 2241.79L18.0891 2231.34L6.2563 2221.4Z" fill="white"/>
<path d="M2505.35 4245.7L2524.68 4251.97L2543.61 4268.7L2558.6 4293.8L2561.75 4322.03L2559.78 4348.17L2551.5 4369.6L2536.9 4387.9L2516.39 4399.93L2489.18 4399.4L2458.81 4387.9L2432.38 4382.15L2409.11 4384.24L2382.68 4392.61L2355.47 4406.2L2185.86 4507.1L2154.7 4529.06L2127.88 4556.77L2105.79 4592.84L2087.65 4631.53L2073.06 4658.19L2051.36 4683.29L2020.99 4694.27L1995.35 4693.22L1969.72 4671.26L1959.86 4631.53L1957.49 4595.98L1963.01 4569.32L1969.72 4553.11L1949.21 4549.45L1931.46 4536.9L1917.26 4513.9L1908.19 4477.83L1914.1 4437.05L1942.5 4402.54H1980.37L2013.1 4413.52L2045.84 4418.75L2075.82 4413L2112.89 4391.04L2302.61 4279.68L2338.9 4254.59L2362.17 4221.13L2382.29 4176.17L2400.43 4136.43L2421.73 4110.29L2452.89 4104.02L2477.74 4115.52L2499.43 4137.48L2512.06 4162.05L2516.39 4196.56L2511.27 4228.45L2505.35 4245.7Z" fill="white"/>
<path d="M2490.36 4263.48C2502.98 4248.31 2512.45 4226.36 2514.82 4208.58C2519.16 4149.5 2488.39 4111.34 2448.95 4102.45C2404.38 4096.7 2389.78 4161.53 2368.09 4206.49C2356.26 4231.58 2338.9 4258.77 2318.39 4270.79C2305.38 4278.64 2292.36 4285.96 2279.34 4293.8C2242.27 4315.76 2205.19 4337.19 2168.11 4359.15C2144.45 4373.26 2120.39 4387.38 2096.72 4400.97C2086.86 4406.72 2077.79 4412.48 2067.14 4415.61C2041.5 4422.41 2018.23 4416.13 1993.78 4406.2C1972.48 4397.84 1951.18 4393.13 1931.85 4411.43C1883.34 4457.96 1912.53 4554.68 1968.93 4552.06" fill="white"/>
<path d="M2490.36 4263.48C2502.98 4248.31 2512.45 4226.36 2514.82 4208.58C2519.16 4149.5 2488.39 4111.34 2448.95 4102.45C2404.38 4096.7 2389.78 4161.53 2368.09 4206.49C2356.26 4231.58 2338.9 4258.77 2318.39 4270.79C2305.38 4278.64 2292.36 4285.96 2279.34 4293.8C2242.27 4315.76 2205.19 4337.19 2168.11 4359.15C2144.45 4373.26 2120.39 4387.38 2096.72 4400.97C2086.86 4406.72 2077.79 4412.48 2067.14 4415.61C2041.5 4422.41 2018.23 4416.13 1993.78 4406.2C1972.48 4397.84 1951.18 4393.13 1931.85 4411.43C1883.34 4457.96 1912.53 4554.68 1968.93 4552.06" stroke="white" stroke-width="3.4984" stroke-miterlimit="10" stroke-linecap="round" stroke-linejoin="round"/>
<path d="M-35.1573 2653.23C-99.0548 2684.6 -112.465 2808.5 -44.2291 2845.1C-15.4358 2860.79 20.457 2849.81 41.3617 2819.48C62.2665 2789.16 67.3941 2741.06 53.1946 2704.47C37.8119 2664.21 -2.02529 2637.02 -35.1573 2653.23Z" fill="white"/>
<path d="M95.3976 3807.59C68.5766 3820.66 63.0546 3872.42 91.4533 3888.1C103.681 3894.37 118.669 3890.19 127.346 3877.64C136.024 3865.1 138.39 3844.71 132.474 3829.55C125.768 3812.29 109.202 3800.79 95.3976 3807.59Z" fill="white"/>
<path d="M611.705 4111.86C547.808 4143.23 534.397 4267.14 602.633 4303.73C631.426 4319.42 667.319 4308.44 688.223 4278.11C709.128 4247.79 714.255 4199.69 700.056 4163.1C684.673 4122.84 644.837 4095.65 611.705 4111.86Z" fill="white"/>
<path d="M1507.06 2768.25C1443.16 2799.62 1429.75 2923.52 1497.98 2960.12C1526.78 2975.8 1562.67 2964.82 1583.57 2934.5C1604.48 2904.18 1609.61 2856.08 1595.41 2819.48C1580.02 2779.23 1540.19 2752.04 1507.06 2768.25Z" fill="white"/>
<path d="M1460.12 3178.65C1421.86 3197.47 1413.97 3271.19 1454.6 3293.15C1471.95 3302.56 1493.25 3296.28 1505.87 3277.98C1518.49 3259.69 1521.26 3230.93 1512.97 3208.97C1503.9 3185.45 1479.84 3169.24 1460.12 3178.65Z" fill="white"/>
<path d="M576.601 3408.69C538.342 3427.51 530.453 3501.22 571.079 3523.18C588.434 3532.59 609.733 3526.32 622.354 3508.02C634.976 3489.72 637.737 3460.97 629.454 3439.01C620.382 3415.48 596.322 3399.28 576.601 3408.69Z" fill="white"/>
<path d="M292.613 3321.38C265.792 3334.45 260.27 3386.21 288.669 3401.89C300.896 3408.16 315.885 3403.98 324.562 3391.43C333.239 3378.89 335.606 3358.5 329.69 3343.34C322.984 3326.08 306.418 3314.58 292.613 3321.38Z" fill="white"/>
<path d="M852.701 4398.36C825.88 4411.43 820.358 4463.19 848.757 4478.87C860.984 4485.14 875.972 4480.96 884.649 4468.41C893.327 4455.87 895.693 4435.48 889.777 4420.32C883.072 4403.06 866.506 4391.56 852.701 4398.36Z" fill="white"/>
<path d="M-35.1573 483.585C-99.0548 514.953 -112.465 638.858 -44.2291 675.455C-15.4358 691.139 20.457 680.16 41.3617 649.837C62.2665 619.514 67.3941 571.416 53.1946 534.82C37.8119 494.564 -2.02529 467.378 -35.1573 483.585Z" fill="white"/>
<path d="M95.3976 1637.94C68.5766 1651.01 63.0546 1702.77 91.4533 1718.45C103.681 1724.73 118.669 1720.54 127.346 1708C136.024 1695.45 138.39 1675.06 132.474 1659.9C125.768 1642.65 109.202 1631.14 95.3976 1637.94Z" fill="white"/>
<path d="M611.705 1942.21C547.808 1973.58 534.397 2097.49 602.633 2134.08C631.426 2149.77 667.319 2138.79 688.223 2108.47C709.128 2078.14 714.255 2030.05 700.056 1993.45C684.673 1953.19 644.837 1926.01 611.705 1942.21Z" fill="white"/>
<path d="M1507.06 598.603C1443.16 629.971 1429.75 753.876 1497.98 790.473C1526.78 806.157 1562.67 795.178 1583.57 764.855C1604.48 734.532 1609.61 686.434 1595.41 649.838C1580.02 609.582 1540.19 582.396 1507.06 598.603Z" fill="white"/>
<path d="M1748.05 1202.44C1709.79 1221.26 1701.9 1294.98 1742.53 1316.94C1759.88 1326.35 1781.18 1320.07 1793.8 1301.78C1806.43 1283.48 1809.19 1254.72 1800.9 1232.77C1791.83 1209.24 1767.77 1193.03 1748.05 1202.44Z" fill="white"/>
<path d="M1748.05 1664.08C1721.23 1677.15 1715.71 1728.91 1744.11 1744.59C1756.33 1750.87 1771.32 1746.68 1780 1734.14C1788.68 1721.59 1791.04 1701.2 1785.13 1686.04C1778.42 1668.79 1761.86 1657.28 1748.05 1664.08Z" fill="white"/>
<path d="M576.601 1239.04C538.342 1257.86 530.453 1331.58 571.079 1353.54C588.434 1362.95 609.733 1356.67 622.354 1338.37C634.976 1320.08 637.737 1291.32 629.454 1269.36C620.382 1245.84 596.322 1229.63 576.601 1239.04Z" fill="white"/>
<path d="M292.613 1151.73C265.792 1164.8 260.27 1216.56 288.669 1232.24C300.896 1238.52 315.885 1234.33 324.562 1221.79C333.239 1209.24 335.606 1188.85 329.69 1173.69C322.984 1156.44 306.418 1144.93 292.613 1151.73Z" fill="white"/>
<path d="M852.701 2228.71C825.88 2241.78 820.358 2293.54 848.757 2309.22C860.984 2315.5 875.972 2311.32 884.649 2298.77C893.327 2286.22 895.693 2265.83 889.777 2250.67C883.072 2233.42 866.506 2221.92 852.701 2228.71Z" fill="white"/>
<path d="M-35.1573 4807.2C-99.0548 4838.56 -112.465 4962.47 -44.2291 4999.06C-15.4358 5014.75 20.457 5003.77 41.3617 4973.45C62.2665 4943.12 67.3941 4895.03 53.1946 4858.43C37.8119 4818.17 -2.02529 4790.99 -35.1573 4807.2Z" fill="white"/>
<path d="M95.3976 5815.16C68.5766 5828.23 63.0546 5879.99 91.4533 5895.68C103.681 5901.95 118.669 5897.77 127.346 5885.22C136.024 5872.67 138.39 5852.28 132.474 5837.12C125.768 5819.87 109.202 5808.37 95.3976 5815.16Z" fill="white"/>
<path d="M556.487 5999.19C492.59 6030.56 479.179 6154.46 547.415 6191.06C576.208 6206.75 612.101 6195.77 633.006 6165.44C653.91 6135.12 659.038 6087.02 644.838 6050.43C629.456 6010.17 589.619 5982.98 556.487 5999.19Z" fill="white"/>
<path d="M1507.06 4922.21C1443.16 4953.58 1429.75 5077.48 1497.98 5114.08C1526.78 5129.76 1562.67 5118.78 1583.57 5088.46C1604.48 5058.14 1609.61 5010.04 1595.41 4973.45C1580.02 4933.19 1540.19 4906 1507.06 4922.21Z" fill="white"/>
<path d="M1460.12 5332.61C1421.86 5351.43 1413.97 5425.15 1454.6 5447.11C1471.95 5456.52 1493.25 5450.25 1505.87 5431.95C1518.49 5413.65 1521.26 5384.89 1512.97 5362.94C1503.9 5339.41 1479.84 5323.2 1460.12 5332.61Z" fill="white"/>
<path d="M1744.11 5975.67C1705.85 5994.49 1697.96 6068.2 1738.58 6090.16C1755.94 6099.57 1777.24 6093.3 1789.86 6075C1802.48 6056.7 1805.24 6027.95 1796.96 6005.99C1787.89 5982.46 1763.83 5966.26 1744.11 5975.67Z" fill="white"/>
<path d="M576.601 5562.65C538.342 5581.47 530.453 5655.19 571.079 5677.14C588.434 5686.55 609.733 5680.28 622.354 5661.98C634.976 5643.68 637.737 5614.93 629.454 5592.97C620.382 5569.45 596.322 5553.24 576.601 5562.65Z" fill="white"/>
<path d="M292.613 5475.34C265.792 5488.41 260.27 5540.17 288.669 5555.85C300.896 5562.13 315.885 5557.94 324.562 5545.4C333.239 5532.85 335.606 5512.46 329.69 5497.3C322.984 5480.05 306.418 5468.54 292.613 5475.34Z" fill="white"/>
</g>
</g>
</svg>
