<svg width="130" height="90" viewBox="0 0 130 90" fill="none" xmlns="http://www.w3.org/2000/svg">
<g opacity="0.3" clip-path="url(#clip0)">
<path d="M48.8237 53.8398C46.5128 61.6109 23.6251 77.809 19.6917 79.8975C19.5687 77.7604 19.1508 79.1932 18.8066 78.7804C30.484 70.1107 32.4507 59.1096 35.6467 46.3114C38.8426 33.5376 47.0044 36.3546 49.4383 39.3659C51.8475 42.4016 48.8237 53.8398 48.8237 53.8398Z" fill="url(#paint0_linear)"/>
<path d="M108.342 30.0648C108.661 30.0162 110.112 29.8705 112.767 29.7005C112.324 30.8176 111.538 31.7647 110.603 32.5418L106.867 32.469C106.867 32.469 108.391 33.0518 109.399 33.3918C106.006 35.5046 101.581 36.0874 101.581 36.0874C101.581 36.0874 102.909 37.326 108.489 37.4474C105.539 39.8759 92.5096 41.6487 92.5096 41.6487C92.5096 41.6487 92.0425 39.0016 88.7236 30.3805C103.695 33.5618 115.791 7.94118 115.914 2.52563C119.06 9.39827 113.529 17.388 113.529 17.388C113.529 17.388 115.84 17.4852 118.028 15.1295C117.954 21.2736 112.25 25.2563 111.66 25.6692C111.906 25.6449 113.553 25.3778 115.545 24.2607C114.906 26.1063 109.055 29.6033 108.342 30.0648Z" fill="url(#paint1_linear)"/>
<path d="M121.224 52.9412C122.453 53.7184 123.092 54.1798 123.928 54.9326V54.9569C123.805 55.0783 123.436 55.394 122.748 55.1269C122.969 55.2726 123.633 55.5883 124.075 55.1026C124.395 55.4183 124.616 55.6612 124.542 55.734C124.124 56.1954 123.116 56.7054 122.649 56.0983C121.297 54.3498 121.666 54.2041 120.83 54.1069C120.511 54.0583 120.953 52.7712 121.224 52.9412Z" fill="url(#paint2_linear)"/>
<path d="M69.8432 51.3384C71.7116 54.3983 82.7744 61.7567 91.0837 59.8867C99.3931 58.0411 98.8769 55.054 94.5747 52.1641C90.2971 49.3228 85.454 40.7259 79.898 40.8716C74.3421 41.0416 73.4325 39.5602 71.1461 43.6644C68.8353 47.8171 67.9256 48.1814 69.8432 51.3384Z" fill="url(#paint3_linear)"/>
<path d="M84.6179 59.7896C103.818 64.0152 107.481 54.8112 110.529 53.8155C112.103 53.3055 121.125 54.1069 121.125 54.1069C121.125 54.1069 122.035 53.9612 122.158 53.5727C119.724 51.727 106.448 45.1944 105.121 48.4485C100.229 60.251 81.9874 44.8787 81.9874 44.8787C81.9874 44.8787 79.1602 58.5997 84.6179 59.7896Z" fill="url(#paint4_linear)"/>
<path d="M13.5704 16.5136C13.3983 11.7295 11.8249 6.65396 12.4395 6.33826C13.0541 6.04684 19.9622 11.8267 19.741 14.6194C19.5197 17.4122 18.3151 17.9465 16.8401 17.6065C15.365 17.2422 13.5704 16.5136 13.5704 16.5136Z" fill="url(#paint5_linear)"/>
<path d="M35.6958 56.6324C35.5729 56.7538 35.45 56.8752 35.3516 57.0209C33.0407 59.4251 30.7298 60.0565 29.0827 57.2638C29.009 57.1181 28.9352 56.9966 28.8615 56.8509C28.2469 55.661 27.7552 54.471 27.3127 53.281C26.4522 51.0468 25.813 48.8126 25.223 46.6512C25.223 46.627 25.223 46.5784 25.1984 46.5541C24.0922 42.5957 23.0351 38.9529 20.7733 35.8444L20.7242 35.7959C20.5029 35.4802 20.2571 35.1887 20.0112 34.8973C19.9866 34.873 19.9866 34.8488 19.9621 34.8245C19.8146 34.6545 19.6425 34.4602 19.4458 34.2902C19.1508 33.9502 18.8066 33.6102 18.4379 33.2702C15.7828 30.6475 12.2427 27.9276 11.3085 26.6162C11.1118 26.3976 11.0381 26.2033 11.0627 26.0819C11.2348 25.0862 12.2673 16.9508 12.9556 16.0036C13.644 15.0322 18.8558 13.6237 20.9946 12.6766C22.9613 11.7781 38.7196 25.5962 43.8577 30.5018C43.8577 30.5018 43.8823 30.5018 43.8823 30.526C43.8823 30.5503 46.5865 32.9545 46.6111 32.9545C47.0044 33.3188 45.7015 33.0274 45.9719 33.2945C49.3153 36.4516 41.3501 50.5125 35.6958 56.6324Z" fill="url(#paint6_radial)"/>
<path d="M14.0129 20.2243C14.0972 19.4778 13.7499 18.8269 13.2372 18.7704C12.7244 18.7139 12.2404 19.2731 12.1561 20.0196C12.0718 20.766 12.4191 21.4169 12.9318 21.4734C13.4446 21.53 13.9286 20.9707 14.0129 20.2243Z" fill="#692718"/>
<path d="M16.1271 21.6135C16.7908 23.192 16.6433 26.2033 16.6433 26.3005C16.6433 26.4462 14.775 27.6847 13.6441 28.9232C12.5378 30.1375 3.31884 32.4203 2.50756 32.056C2.06505 31.886 1.25378 30.5746 0.663767 29.2875C0.147504 28.1461 -0.172088 27.0047 0.0983358 26.6162C0.270424 26.349 1.69629 25.6933 3.56467 24.9162C6.53933 23.6777 10.694 22.1477 12.9066 21.3706C13.7179 21.0549 15.7829 20.7878 16.1271 21.6135Z" fill="url(#paint7_radial)"/>
<path d="M20.7734 35.8446L20.7242 35.796C20.2817 35.2617 19.7163 34.8489 19.1017 34.5332C18.7329 34.3146 18.3396 34.1446 17.9216 33.9989H17.8971C13.939 32.639 8.40765 33.8775 7.54721 33.6832C6.44093 33.4404 5.33465 31.789 4.99048 31.3276L7.7193 28.1463L11.3086 26.6406L15.6599 24.8435C15.6599 24.8435 21.5601 29.9919 21.6338 30.1619C21.6338 30.2105 22.1747 32.299 22.3959 34.1204C22.4205 34.3875 22.4697 34.6546 22.4697 34.8975C22.6172 36.646 22.3468 37.7388 20.7734 35.8446Z" fill="url(#paint8_radial)"/>
<path d="M98.3111 45.2427C98.0899 49.9297 89.1659 50.8282 87.9367 50.7311C84.5441 50.4396 82.0611 50.1968 79.3815 50.6096C79.2094 50.6339 79.0619 50.6582 78.8898 50.6825C73.8501 51.5325 68.0483 54.7381 54.2075 63.7721C50.8641 65.9577 47.7911 66.9534 44.9639 67.1234C43.5872 67.2205 42.2843 67.0991 41.0305 66.8563C40.9813 66.832 40.9567 66.832 40.9076 66.832C39.6046 66.5406 38.3508 66.0791 37.2446 65.5206C36.3349 65.0835 35.4991 64.5492 34.7124 64.0149C31.1969 61.465 28.9352 58.0408 28.2468 56.2437C28.1731 56.1223 28.1731 56.0009 28.1239 55.9038C27.7797 55.0052 27.5093 54.1552 27.3126 53.3053C26.403 50.0511 26.2064 47.1369 26.1818 44.7813C26.1818 44.757 26.2064 44.7084 26.2064 44.6841C26.1818 43.4942 26.1818 42.4985 26.1818 41.6485C25.9605 35.2858 28.2468 31.5217 31.4919 29.7974C31.5657 29.7246 31.664 29.676 31.7623 29.6275C33.5078 28.7532 35.5483 28.4375 37.6379 28.6318C39.703 28.8261 41.8418 29.4817 43.8085 30.526C43.8085 30.526 43.8331 30.526 43.8331 30.5503C44.251 30.7688 44.6689 31.0117 45.0623 31.2788C45.3081 31.4488 45.5539 31.5945 45.8244 31.7402C45.8489 31.7645 45.8489 31.7645 45.8489 31.7645C60.4764 40.2157 63.2052 31.6917 79.9715 28.5832C89.4855 26.7861 98.6799 36.9129 98.3111 45.2427Z" fill="#CA4D2E"/>
<path d="M41.2518 66.8564C41.178 66.8564 41.1289 66.8807 41.0797 66.8807C41.0305 66.8564 41.0059 66.8564 40.9568 66.8564C39.6538 66.565 38.4 66.1036 37.2938 65.545C36.3842 65.1079 35.5483 64.5736 34.7616 64.0393C31.2461 61.4894 28.9844 58.0652 28.296 56.2682C28.2223 56.1467 28.2223 56.0253 28.1731 55.9282C27.8289 55.0296 27.5585 54.1797 27.3618 53.3297C26.5014 51.0955 25.8622 48.8613 25.2722 46.6999C25.2722 46.6756 25.2722 46.627 25.2476 46.6028C24.1413 42.6443 23.0842 39.0016 20.8225 35.8931L20.7733 35.8445C20.3308 35.3103 19.7654 34.8974 19.1508 34.5817C19.1508 34.5574 19.1508 34.5574 19.1262 34.5574C19.4704 34.7274 19.7654 34.8731 20.0358 34.9703C21.1175 35.3588 21.7813 35.1888 22.4942 34.946C24.4855 34.3389 26.1572 32.7118 27.3864 29.7004C28.7631 26.3491 28.6648 25.1349 31.1724 29.2633C31.2953 29.4576 31.3936 29.6276 31.5165 29.8219C34.147 34.0474 38.2034 39.5601 37.1954 41.5515C33.9503 48.0841 34.8108 53.5483 35.7204 56.7053C35.7941 57.021 35.8925 57.3124 35.9662 57.5795C36.1137 58.0652 36.2612 58.4538 36.3596 58.7695C37.0971 61.0037 39.8505 64.7436 39.8505 64.7436L41.2518 66.8564Z" fill="#B34429"/>
<path d="M19.9375 13.9639C19.9867 12.701 20.9209 0.145723 22.6663 1.34217e-05C24.4118 -0.145696 31.4182 21.1036 28.4435 23.8478C25.4689 26.592 19.9375 13.9639 19.9375 13.9639Z" fill="url(#paint9_radial)"/>
<path d="M14.9962 17.7523C14.6275 19.5493 14.7996 22.7064 18.143 23.2164C21.4864 23.7264 25.4198 20.2536 23.5023 18.9665C21.6831 17.7523 21.2897 14.6924 17.6759 15.0081C16.3729 15.1052 15.2666 16.4409 14.9962 17.7523Z" fill="#B34429"/>
<path d="M79.4063 50.6098C79.2342 50.6341 79.0867 50.6583 78.9146 50.6826C73.8995 51.5569 68.0731 54.7382 54.2323 63.7722C50.8889 65.9578 47.8159 66.9535 44.9888 67.1235C42.0879 67.3178 39.482 66.6378 37.2448 65.4964C36.3352 65.0593 40.2932 65.3021 39.5065 64.7436C42.5058 61.6108 39.8999 55.9039 39.8999 55.9039C52.1673 63.2865 70.089 47.0642 77.3659 49.7841C78.0788 50.0998 78.7671 50.3426 79.4063 50.6098Z" fill="#B34429"/>
<path d="M76.6037 49.0799C77.6117 51.2413 89.8053 61.4652 100.008 60.8095C107.211 60.3481 108.219 52.2369 104.064 50.2941C97.7951 47.3557 99.9585 31.5947 85.3556 31.9104C76.9725 32.0804 74.5387 44.6115 76.6037 49.0799Z" fill="#CA4D2E"/>
<path d="M97.3524 60.5422C99.3191 61.635 112.594 59.0123 115.127 60.4936C117.659 61.975 119.33 56.5352 116.675 54.2524C110.849 49.2254 108.538 52.941 104.383 50.464C99.1962 47.3798 97.3524 50.3183 98.1883 52.261C99.0487 54.2281 94.7711 59.1094 97.3524 60.5422Z" fill="#CA4D2E"/>
<path d="M112.545 60.0324C117.978 60.5424 124.641 65.8365 126.263 67.8279C127.861 69.795 128.156 67.6093 127.689 67.2451C124.714 64.768 116.749 50.8527 111.66 51.9455C106.596 53.0141 107.776 55.0054 107.776 55.0054C107.776 55.0054 109.054 59.7167 112.545 60.0324Z" fill="#CA4D2E"/>
<path d="M126.583 66.2737C126.583 66.2737 128.353 67.7793 129.336 68.7993C129.164 68.945 128.746 69.2607 128.009 68.8965C128.23 69.0907 128.992 69.4793 129.484 68.945C129.828 69.3336 130.049 69.6007 129.976 69.6736C129.484 70.1593 128.304 70.6693 127.837 69.9893C126.435 67.9251 125.845 67.3179 125.845 67.3179L126.583 66.2737Z" fill="#CA4D2E"/>
<path d="M18.905 18.6265C19.0525 19.525 18.6591 20.3265 18.0445 20.3993C17.4299 20.4964 16.8153 19.8408 16.6924 18.9665C16.5449 18.068 16.9383 17.2665 17.5529 17.1937C18.1674 17.0966 18.7575 17.728 18.905 18.6265Z" fill="#692718"/>
<path d="M3.56467 24.9163C5.33472 28.0004 1.9913 29.2147 0.663767 29.2875C0.147504 28.1462 -0.172088 27.0048 0.0983358 26.6162C0.270424 26.3491 1.69629 25.6934 3.56467 24.9163Z" fill="#692718"/>
<path d="M16.6434 15.2994C17.5776 14.8379 19.3722 15.3722 19.446 15.8822C19.5197 16.3679 14.8979 16.1736 16.6434 15.2994Z" fill="#692718"/>
<path d="M12.4642 18.0437C13.5459 17.728 13.8655 16.7809 13.5459 16.5623C13.2509 16.368 10.5221 18.6022 12.4642 18.0437Z" fill="#692718"/>
<path d="M5.03979 31.7647L11.9971 30.0161L14.4063 28.9962C14.4063 28.9962 15.5126 28.5348 15.6601 28.2919C16.0534 27.6119 15.3405 26.6163 14.7505 27.1505C13.9392 27.8791 14.3079 28.2919 14.3079 28.2919L12.1691 29.579L5.03979 31.7647Z" fill="#692718"/>
<path d="M21.2406 14.401C21.2897 13.381 21.6339 1.40851 22.5927 1.38423C23.5269 1.33566 25.8623 10.4911 25.8623 10.4911L26.4032 9.66539L26.354 12.361C26.354 12.361 27.6324 17.6794 27.2145 18.2137C26.7965 18.7237 21.216 15.0809 21.2406 14.401Z" fill="#B34429"/>
<path d="M42.3581 37.6174C40.3176 39.196 38.4492 40.9445 37.0234 42.9601C35.5975 44.9758 34.7371 47.3071 34.4666 49.687C34.1962 52.0913 34.5158 54.544 35.155 56.924C35.4008 58.1382 35.8925 59.3039 36.2613 60.5181C36.6792 61.7081 37.22 62.8495 37.6134 64.088C36.8513 63.0681 36.0892 61.9995 35.4254 60.8824C34.8354 59.7167 34.1716 58.5996 33.8029 57.3368C32.8687 54.884 32.5245 52.1641 32.8687 49.5171C33.2129 46.8457 34.3683 44.2958 36.0646 42.2801C37.8346 40.2645 40.0226 38.7345 42.3581 37.6174Z" fill="#B34429"/>
<path d="M51.8231 50.0755C49.463 54.3982 48.5534 58.6723 50.2005 59.9109C47.8159 66.4192 28.5175 85.7257 23.0844 88.4942C23.0352 88.5914 22.8386 87.6443 23.0844 87.3771C48.6026 58.0895 33.213 53.3296 41.3257 41.0172C44.9887 35.4559 52.3147 39.3172 53.9865 42.5714C55.6582 45.8256 51.8231 50.0755 51.8231 50.0755Z" fill="#CA4D2E"/>
<path d="M24.4118 87.693C24.043 87.9358 22.6663 89.4172 22.6663 89.4172C22.6417 89.4172 22.6171 89.3929 22.6171 89.3686C22.3713 89.0772 22.2975 88.4215 22.7646 88.033C23.0351 87.7901 21.7075 88.5672 22.445 89.4658C22.4696 89.5144 22.5188 89.5629 22.5434 89.5872L22.0763 90.0243C22.0763 90.0243 21.0192 88.9558 21.7321 88.203C22.4696 87.4502 23.5267 86.8916 23.5267 86.8916C23.5267 86.8916 24.6576 87.523 24.4118 87.693Z" fill="#CA4D2E"/>
<path d="M20.3062 78.9747L20.1833 79.6304L16.7907 81.5004C16.717 81.2575 16.6924 80.9175 16.717 80.5047C16.5203 80.7475 16.4957 81.2575 16.5449 81.6218L15.9549 81.9375C15.9549 81.9375 15.2174 80.189 16.6924 79.5819C17.897 79.0962 19.1016 78.5376 19.1016 78.5376L20.3062 78.9747Z" fill="url(#paint10_linear)"/>
</g>
<defs>
<linearGradient id="paint0_linear" x1="39.7034" y1="52.0513" x2="14.6803" y2="81.2799" gradientUnits="userSpaceOnUse">
<stop stop-color="#85321E"/>
<stop offset="1" stop-color="#CA4D2E"/>
</linearGradient>
<linearGradient id="paint1_linear" x1="91.9353" y1="34.1127" x2="118.16" y2="15.3945" gradientUnits="userSpaceOnUse">
<stop stop-color="#85321E"/>
<stop offset="1" stop-color="#CA4D2E"/>
</linearGradient>
<linearGradient id="paint2_linear" x1="107.589" y1="73.6617" x2="123.028" y2="53.5372" gradientUnits="userSpaceOnUse">
<stop stop-color="#85321E"/>
<stop offset="1" stop-color="#CA4D2E"/>
</linearGradient>
<linearGradient id="paint3_linear" x1="78.9356" y1="50.2486" x2="118.968" y2="52.6639" gradientUnits="userSpaceOnUse">
<stop stop-color="#85321E"/>
<stop offset="0.2289" stop-color="#8F3620"/>
<stop offset="0.6153" stop-color="#A94026"/>
<stop offset="1" stop-color="#CA4D2E"/>
</linearGradient>
<linearGradient id="paint4_linear" x1="80.1516" y1="52.3933" x2="120.155" y2="55.2399" gradientUnits="userSpaceOnUse">
<stop stop-color="#85321E"/>
<stop offset="0.2188" stop-color="#8D3520"/>
<stop offset="0.5672" stop-color="#A53E25"/>
<stop offset="1" stop-color="#CA4D2E"/>
</linearGradient>
<linearGradient id="paint5_linear" x1="17.2459" y1="16.0994" x2="11.7369" y2="6.49572" gradientUnits="userSpaceOnUse">
<stop stop-color="#85321E"/>
<stop offset="1" stop-color="#CA4D2E"/>
</linearGradient>
<radialGradient id="paint6_radial" cx="0" cy="0" r="1" gradientUnits="userSpaceOnUse" gradientTransform="translate(-16.6825 3.9147) scale(51.6035 50.9758)">
<stop stop-color="#FFBB45"/>
<stop offset="1" stop-color="#CA4D2E"/>
</radialGradient>
<radialGradient id="paint7_radial" cx="0" cy="0" r="1" gradientUnits="userSpaceOnUse" gradientTransform="translate(-15.3738 19.7607) rotate(-26.0745) scale(45.1427 44.8071)">
<stop stop-color="#FFBB45"/>
<stop offset="1" stop-color="#CA4D2E"/>
</radialGradient>
<radialGradient id="paint8_radial" cx="0" cy="0" r="1" gradientUnits="userSpaceOnUse" gradientTransform="translate(-9.81723 9.83594) scale(44.6159 44.0733)">
<stop stop-color="#FFBB45"/>
<stop offset="1" stop-color="#CA4D2E"/>
</radialGradient>
<radialGradient id="paint9_radial" cx="0" cy="0" r="1" gradientUnits="userSpaceOnUse" gradientTransform="translate(-15.3735 19.7595) rotate(-26.0745) scale(45.1422 44.8066)">
<stop stop-color="#FFBB45"/>
<stop offset="1" stop-color="#CA4D2E"/>
</radialGradient>
<linearGradient id="paint10_linear" x1="-17.5137" y1="54.3259" x2="22.2768" y2="84.2121" gradientUnits="userSpaceOnUse">
<stop stop-color="#85321E"/>
<stop offset="1" stop-color="#CA4D2E"/>
</linearGradient>
<clipPath id="clip0">
<rect width="130" height="90" fill="white"/>
</clipPath>
</defs>
</svg>
