<svg width="26" height="48" viewBox="0 0 26 48" fill="none" xmlns="http://www.w3.org/2000/svg">
<g clip-path="url(#clip0)">
<path d="M21.7884 32.3523C21.9665 32.3033 22.7279 32.1073 24.1697 31.797C24.0077 32.4666 23.6675 33.0547 23.2139 33.5447L21.1728 33.7897C21.1728 33.7897 22.0475 33.9857 22.6307 34.1C20.946 35.5374 18.5647 36.2234 18.5647 36.2234C18.5647 36.2234 19.3908 36.8114 22.4525 36.4521C21.027 38.0364 14.0289 40.0292 14.0289 40.0292C14.0289 40.0292 13.5753 38.5918 11.0806 34.0183C19.5204 34.639 24.1697 19.3833 23.8133 16.3452C26.0812 19.955 23.6513 24.8388 23.6513 24.8388C23.6513 24.8388 24.931 24.7081 25.9354 23.2381C26.3728 26.6845 23.5541 29.3469 23.2625 29.6082C23.3921 29.5756 24.2831 29.2979 25.2712 28.5302C25.0768 29.6409 22.1447 32.042 21.7884 32.3523Z" fill="url(#paint0_linear)"/>
<path d="M23.4082 38.0852C23.4082 37.2522 21.6911 33.8874 20.5733 34.1161C18.3054 34.5734 13.6724 46.9054 13.6724 46.9054C13.6724 46.9054 17.2686 47.8365 17.625 47.8365C17.9652 47.8365 18.6942 47.6731 18.7428 47.6078C18.84 47.2158 18.5322 47.1668 18.3702 47.0851C18.1596 46.9708 17.301 47.2321 17.301 47.2321C17.301 47.2321 14.9845 46.6931 15.1951 46.2194C16.0051 44.4554 23.4082 40.1596 23.4082 38.0852Z" fill="url(#paint1_linear)"/>
<path d="M17.7546 47.2974C17.9328 47.2647 18.2082 47.2157 18.3864 47.8201C18.3216 47.8201 18.435 47.9834 18.435 47.9834L18.2892 47.8527C18.2892 47.8527 18.2406 47.1667 17.7546 47.2974Z" fill="white"/>
<path d="M17.5928 47.4773C17.7062 47.4773 17.852 47.755 17.7548 47.9183C17.6576 48.0817 17.6738 47.9183 17.6738 47.9183C17.6738 47.9183 17.8844 47.7223 17.5928 47.4773Z" fill="white"/>
<path d="M16.3939 21.0003C22.2743 35.1453 14.9521 45.6479 14.2232 46.3993C13.235 47.412 8.44 46.5136 8.44 46.5136C8.44 46.5136 4.14716 36.6644 3.0618 31.9276C1.97645 27.1908 6.02629 22.3233 10.7079 21.9476C15.3733 21.572 15.8269 19.6446 16.3939 21.0003Z" fill="url(#paint2_linear)"/>
<path d="M17.2363 23.2544C17.2363 23.4504 14.693 23.5974 12.4089 24.1038C12.1335 24.1691 11.8743 24.2344 11.6313 24.3161C10.5784 24.6101 9.65499 25.0184 9.21761 25.5738C8.99081 25.8515 8.47243 26.3742 7.82446 26.9458C6.59331 28.0402 4.90857 29.3306 4.00141 29.5756C3.61262 29.6736 3.36963 29.5756 3.36963 29.1836V29.0856C3.88801 22.9277 4.39019 18.4849 4.77898 15.3162C4.84377 14.9079 4.89237 14.4995 4.94097 14.1238C5.57274 9.51771 5.96153 8.16201 5.96153 8.16201L9.21761 5.56494H9.2986L13.0731 5.66294L16.0213 8.14568C16.0213 8.16201 16.0213 8.16201 16.0213 8.16201C16.0537 8.50502 16.9285 18.6646 17.2201 23.0584C17.2201 23.1237 17.2363 23.1891 17.2363 23.2544Z" fill="url(#paint3_radial)"/>
<path d="M11.4694 7.83523C10.8862 8.68459 10.2545 10.3506 11.8258 11.3633C13.3971 12.376 16.1672 11.4777 15.5031 10.367C14.8551 9.32161 15.3411 7.6719 13.4619 7.01855C12.7492 6.78987 11.8906 7.21455 11.4694 7.83523Z" fill="#B34429"/>
<path d="M9.05572 10.5956C8.92612 11.0693 8.56974 11.3633 8.26195 11.2816C7.95416 11.2 7.80837 10.7426 7.93796 10.2689C8.06756 9.79525 8.42394 9.50125 8.73173 9.58291C9.05572 9.68092 9.18531 10.1383 9.05572 10.5956Z" fill="#692718"/>
<path d="M12.4088 10.5956C12.5384 11.0693 12.8948 11.3633 13.2026 11.2816C13.5104 11.2 13.6561 10.7426 13.5266 10.2689C13.397 9.79525 13.0406 9.50125 12.7328 9.58291C12.4088 9.68092 12.2792 10.1383 12.4088 10.5956Z" fill="#692718"/>
<path d="M8.97461 15.6428C8.97461 15.6428 9.07181 17.4885 9.99517 18.1745C10.222 18.3378 11.5017 18.3052 11.7771 18.2072C12.3765 18.0112 12.7491 15.5448 12.7491 15.5448C12.7491 15.5448 11.5017 14.9404 10.5297 15.1854C9.55779 15.4468 8.97461 15.6428 8.97461 15.6428Z" fill="#692718"/>
<path d="M9.31474 15.5121C9.26614 15.5448 9.78452 16.1165 9.78452 16.1165C9.78452 16.1165 9.86552 15.9205 9.97891 15.8715C10.0761 15.8061 11.4369 15.5121 11.696 15.5775C11.9228 15.6428 11.9714 15.8715 11.9714 15.8715L12.344 15.3325C12.344 15.3488 10.0923 14.9078 9.31474 15.5121Z" fill="white"/>
<path d="M10.0763 17.9295C10.303 18.0929 10.6432 18.1255 11.032 18.1255C11.7772 18.1255 12.0202 17.7662 11.9068 17.7825C11.1778 17.9132 9.96286 17.7335 10.0763 17.9295Z" fill="white"/>
<path d="M12.6681 8.03121C13.2351 7.94954 14.0937 8.55389 14.0451 8.81523C13.9965 9.0929 11.599 8.19454 12.6681 8.03121Z" fill="#692718"/>
<path d="M8.66671 7.98216C8.09974 8.03116 7.40317 8.79884 7.50036 9.06018C7.61376 9.32152 9.75207 7.90049 8.66671 7.98216Z" fill="#692718"/>
<path d="M8.22956 13.4051L7.43579 14.2544L8.40775 15.9041C8.40775 15.9041 11.3236 14.5974 13.057 15.7571C13.4782 15.3978 14.5149 14.1238 14.5149 14.1238L13.381 12.9314L14.1585 14.1074L13.057 15.6265C13.057 15.6265 11.6476 14.8588 10.4651 15.0221C9.33112 15.1855 8.60215 15.5775 8.60215 15.5775L7.88937 14.1728L8.22956 13.4051Z" fill="#692718"/>
<path d="M9.08789 12.9967C9.33088 12.474 10.6916 10.8733 12.7166 12.719C13.0729 13.0457 10.9508 14.4177 10.9508 14.4177C10.9508 14.4177 9.08789 13.65 9.08789 12.9967Z" fill="#692718"/>
<path d="M10.7889 13.9276L10.6755 15.071L11.1453 15.12L10.9995 13.8459L10.7889 13.9276Z" fill="#692718"/>
<path d="M13.073 5.66294C13.6238 4.91159 17.2362 0.305469 18.0462 0.61581C18.5484 0.811816 15.8431 8.66835 15.8431 8.66835L13.073 5.66294Z" fill="url(#paint4_linear)"/>
<path d="M13.7372 5.80984C13.3646 5.48316 17.3497 1.26905 17.5927 1.31805C17.8357 1.36705 16.5721 5.09115 16.5721 5.09115L17.1391 4.76448C17.1391 4.76448 16.0861 7.57388 15.9403 7.57388C15.7783 7.57388 13.8506 5.92417 13.7372 5.80984Z" fill="#B34429"/>
<path d="M9.42801 5.76085C8.90963 4.97683 5.52396 0.207367 4.69779 0.485041C4.17941 0.648379 6.04234 8.53759 6.04234 8.53759L9.42801 5.76085Z" fill="url(#paint5_linear)"/>
<path d="M8.76398 5.89161C9.15276 5.58127 5.36211 1.18748 5.13532 1.22015C4.89232 1.26915 5.97768 5.04225 5.97768 5.04225L5.4269 4.68291C5.4269 4.68291 6.35027 7.54132 6.49606 7.54132C6.64186 7.55765 8.65058 5.98961 8.76398 5.89161Z" fill="#B34429"/>
<path d="M9.995 18.5993C10.0436 18.6809 10.2218 18.9913 10.3028 19.0239C10.3838 19.0566 11.8255 19.0893 11.9227 19.0239C12.0199 18.9586 12.1819 18.4522 12.2143 18.4196C12.2305 18.3869 11.9551 18.7463 11.7283 18.7299C11.5015 18.7136 10.3514 18.8116 10.319 18.7299C10.2704 18.6646 9.8816 18.4359 9.995 18.5993Z" fill="#B34429"/>
<path d="M8.89364 46.3339C9.02323 46.1542 9.08803 45.8766 8.99083 45.5499C6.64192 37.6444 2.60828 34.0999 1.70111 34.1163C1.45812 34.1163 0.194572 36.501 0.0325783 37.383C-0.550599 40.7478 6.82012 44.6515 7.63008 45.8439C7.84068 46.3176 5.52417 46.8566 5.52417 46.8566C5.52417 46.8566 4.7304 46.4156 4.5198 46.5299C4.37401 46.6116 3.98523 46.9383 4.08242 47.2323C4.13102 47.2976 4.85999 47.4609 5.20018 47.4609C5.54037 47.4609 9.15283 46.5299 9.15283 46.5299C9.15283 46.5299 9.03943 46.4482 8.89364 46.3339Z" fill="url(#paint6_linear)"/>
<path d="M8.42378 31.8295C9.07176 33.1689 7.77581 44.5699 9.59014 46.7423C8.97456 46.8239 8.69917 46.8729 8.69917 46.8729C8.69917 46.8729 4.30914 35.7496 3.77456 34.3123C3.25618 32.8749 6.23687 27.2888 8.42378 31.8295Z" fill="url(#paint7_linear)"/>
<path d="M12.7004 32.0909C13.2998 34.002 13.9154 45.8276 12.7976 46.8403C14.0936 47.1833 13.5104 46.8567 13.5104 46.8567C13.5104 46.8567 17.9328 38.0854 16.4749 32.3033C15.3409 27.7788 12.7004 32.0909 12.7004 32.0909Z" fill="url(#paint8_linear)"/>
<path d="M5.07051 46.9055C4.89232 46.8729 4.61693 46.8239 4.43873 47.4282C4.50353 47.4282 4.39014 47.5916 4.39014 47.5916L4.53593 47.4609C4.53593 47.4446 4.58453 46.7749 5.07051 46.9055Z" fill="white"/>
<path d="M5.23266 47.0852C5.11927 47.0852 4.97348 47.3629 5.07067 47.5262C5.16787 47.6896 5.15167 47.5262 5.15167 47.5262C5.15167 47.5262 4.94108 47.3302 5.23266 47.0852Z" fill="white"/>
<path d="M8.3914 46.9872C8.3752 46.8402 8.55339 46.3338 8.82878 46.5952C9.10417 46.8402 8.94218 46.9872 8.94218 46.9872H8.78018H8.3914Z" fill="#CA4D2E"/>
<path d="M9.10421 46.334C9.412 46.334 9.5092 46.971 9.5092 46.971H8.84502C8.82882 46.9874 8.68303 46.334 9.10421 46.334Z" fill="#CA4D2E"/>
<path d="M9.93046 46.9871C9.94666 46.9381 9.65507 46.2031 9.46068 46.3664C9.26629 46.5297 9.23389 46.9871 9.23389 46.9871H9.93046Z" fill="#CA4D2E"/>
<path d="M9.7846 46.7422C9.94659 46.5789 10.0924 46.9709 10.0924 46.9709H9.7522L9.7846 46.7422Z" fill="#CA4D2E"/>
<path d="M8.84513 46.7097C8.84513 46.7097 8.78034 47.0037 8.87753 47.0691C8.97472 47.1344 8.94233 47.0527 8.94233 47.0527C8.94233 47.0527 8.82893 46.9547 8.84513 46.7097Z" fill="white"/>
<path d="M9.34727 46.7097C9.34727 46.7097 9.33107 47.0201 9.41207 47.0527C9.47686 47.0691 9.49306 47.0527 9.49306 47.0527C9.49306 47.0527 9.36347 46.8731 9.34727 46.7097Z" fill="white"/>
<path d="M13.9641 47.0363C13.9803 46.8893 13.8021 46.3829 13.5267 46.6443C13.2513 46.9056 13.4133 47.0363 13.4133 47.0363H13.5753H13.9641Z" fill="#CA4D2E"/>
<path d="M13.2512 46.3992C12.9434 46.3992 12.8462 47.0362 12.8462 47.0362H13.5104C13.5104 47.0362 13.6562 46.3992 13.2512 46.3992Z" fill="#CA4D2E"/>
<path d="M12.4089 47.0362C12.3927 46.9872 12.6842 46.2521 12.8786 46.4155C13.073 46.5788 13.1054 47.0362 13.1054 47.0362H12.4089Z" fill="#CA4D2E"/>
<path d="M12.5549 46.8076C12.3929 46.6443 12.2471 47.0363 12.2471 47.0363H12.5873L12.5549 46.8076Z" fill="#CA4D2E"/>
<path d="M13.4942 46.7585C13.4942 46.7585 13.559 47.0526 13.4618 47.1179C13.3646 47.1832 13.397 47.1016 13.397 47.1016C13.397 47.1016 13.5104 47.0036 13.4942 46.7585Z" fill="white"/>
<path d="M13.0083 46.7585C13.0083 46.7585 13.0245 47.0689 12.9435 47.1016C12.8787 47.1179 12.8625 47.1016 12.8625 47.1016C12.8625 47.1016 12.9759 46.9219 13.0083 46.7585Z" fill="white"/>
</g>
<path d="M16.3008 31.7922C16.3008 31.7922 19.3607 31.1442 18.1958 25.792C18.1958 25.792 17.2169 22.1693 15.4304 18.9305C14.5178 17.3853 13.4944 15.1102 11.2415 16.0278C10.0174 16.5264 9.39229 17.8911 9.81432 19.1437C10.1514 20.1441 10.163 20.2045 10.5 21.2048C11.0769 22.9171 11.5248 24.7812 11.6577 26.5954C11.6577 26.5954 12.0284 32.8293 16.3008 31.7922Z" fill="#C7A571"/>
<path d="M11.2414 16.0279C12.2598 15.6131 13.0272 15.8509 13.6466 16.3786C13.1767 16.2099 12.6325 16.2107 11.9872 16.4735C10.7629 16.9722 10.138 18.3371 10.5599 19.5894C10.897 20.5899 10.9085 20.6504 11.2456 21.6506C11.8225 23.3628 12.2704 25.227 12.4032 27.0411C12.4032 27.0411 12.5966 30.2943 14.3149 31.7095C11.9042 30.7441 11.6575 26.5955 11.6575 26.5955C11.5246 24.7815 11.0767 22.9172 10.4998 21.205C10.1627 20.2045 10.1512 20.144 9.8141 19.1439C9.39211 17.8912 10.0174 16.5263 11.2414 16.0279Z" fill="#DFBB85"/>
<path d="M11.1855 23.5981C14.5856 23.849 16.0057 22.3881 16.5876 21.3014C17.6352 23.7159 18.1961 25.7919 18.1961 25.7919C19.3607 31.1442 16.301 31.7922 16.301 31.7922C12.0284 32.8293 11.6576 26.5954 11.6576 26.5954C11.5849 25.6001 11.4169 24.59 11.1855 23.5981Z" fill="#A27126"/>
<path d="M11.6575 26.5954C11.5847 25.6 11.4168 24.5898 11.1853 23.5979C14.5856 23.849 16.0055 22.388 16.5875 21.3015C16.9081 22.0403 17.309 23.1659 17.5365 23.7914C16.7953 24.3908 15.8728 24.8469 14.1835 25.3148C13.4631 25.5144 12.9033 26.0692 12.9218 26.8165C12.9305 27.1675 12.9305 27.5283 12.9621 27.96C12.9621 27.96 13.0834 29.9999 13.9876 31.5516C11.8813 30.3614 11.6575 26.5954 11.6575 26.5954Z" fill="#7A5414"/>
<path d="M15.2683 21.9319C14.9415 20.7917 14.4007 19.8037 13.8327 18.7751C13.4086 18.0069 12.6988 17.0378 11.6988 17.4762C11.0764 17.7491 10.7736 18.4592 11.0075 19.0973C11.2096 19.6484 11.3896 20.2072 11.5884 20.7596C12.0305 21.9882 12.2752 23.8937 14.082 23.835C15.0007 23.8052 15.4966 22.7285 15.2683 21.9319Z" fill="#F4C47A"/>
<path d="M12.1934 25.1238C12.7947 25.1357 13.3197 24.7901 13.5663 24.2824C13.7521 24.3709 13.959 24.4227 14.1782 24.427C14.7529 24.4384 15.258 24.1232 15.5168 23.6519C15.6321 23.6831 15.7528 23.701 15.8776 23.7035C16.702 23.7198 17.3835 23.0647 17.3998 22.2403C17.4161 21.4159 16.7611 20.7344 15.9367 20.7181C15.3619 20.7067 14.8569 21.0219 14.5981 21.4932C14.4828 21.462 14.362 21.4441 14.2373 21.4416C13.6359 21.4297 13.1109 21.7753 12.8643 22.283C12.6786 22.1944 12.4716 22.1427 12.2525 22.1384C11.4281 22.1221 10.7466 22.7772 10.7302 23.6016C10.7139 24.4259 11.369 25.1075 12.1934 25.1238Z" fill="#694207"/>
<path d="M4.88954 30.8221C4.88954 30.8221 1.96639 29.7093 3.94387 24.6012C3.94387 24.6012 5.47058 21.1731 7.73583 18.2491C8.87607 16.8634 10.2386 14.7737 12.3227 16.0282C13.4552 16.7098 13.862 18.1547 13.2516 19.3271C12.7641 20.2634 12.7433 20.3213 12.2558 21.2576C11.4214 22.8602 10.691 24.6328 10.2795 26.4047C10.2795 26.4047 8.95044 32.5065 4.88954 30.8221Z" fill="#C7A571"/>
<path d="M3.94392 24.6014C3.94392 24.6014 5.47081 21.1734 7.73606 18.2492C8.83986 16.9078 10.1524 14.9059 12.1265 15.9192C10.4856 15.5531 9.33358 17.2774 8.34779 18.4754C6.08253 21.3996 4.55564 24.8277 4.55564 24.8277C4.18963 25.7732 3.99135 26.582 3.91184 27.2721C3.6565 28.4328 3.70527 29.3145 3.89188 29.9781C3.28276 29.1295 2.81567 27.5159 3.94392 24.6014Z" fill="#DFBB85"/>
<path d="M7.43296 21.2394C7.93189 20.1634 8.61879 19.2707 9.33881 18.3422C9.87655 17.6488 10.7274 16.8008 11.6477 17.3885C12.2206 17.7542 12.4101 18.5025 12.0804 19.0969C11.7956 19.6102 11.5314 20.1345 11.2497 20.6495C10.6232 21.7951 9.82524 24.3481 8.04925 24.0112C7.44461 23.8964 7.04112 23.3004 7.0573 22.7145C7.07168 22.1935 7.21785 21.7033 7.43296 21.2394Z" fill="#F4C47A"/>
<path d="M11.2093 23.5164C7.81122 23.2391 6.63377 21.5764 6.2267 20.4129C4.81876 22.6367 3.94404 24.6011 3.94404 24.6011C1.96679 29.7094 4.88965 30.8221 4.88965 30.8221C8.95085 32.5066 10.2799 26.4048 10.2799 26.4048C10.5055 25.4327 10.8275 24.4606 11.2093 23.5164Z" fill="#A27126"/>
<path d="M3.9443 24.601C3.9443 24.601 4.81879 22.6366 6.22681 20.4131C6.63396 21.5764 7.81123 23.2393 11.2095 23.5163C10.87 24.3555 10.5782 25.2167 10.3591 26.0806C9.08781 25.7979 7.88585 25.2255 6.76122 24.4813C6.29565 24.1732 5.69925 23.7247 5.28378 24.3087C4.74657 25.0634 4.36516 26.065 4.11442 26.9513C3.87182 27.8079 3.71107 28.9653 3.89809 29.9858C3.28596 29.1397 2.81258 27.5249 3.9443 24.601Z" fill="#7A5414"/>
<path d="M9.97758 24.8679C9.38158 24.7868 8.91626 24.3643 8.75106 23.8246C8.55385 23.8834 8.34138 23.9025 8.1242 23.873C7.55456 23.7955 7.10425 23.406 6.92132 22.9005C6.80265 22.9134 6.68054 22.9125 6.55688 22.8957C5.73987 22.7845 5.16768 22.032 5.27889 21.215C5.39009 20.398 6.14255 19.8258 6.95954 19.937C7.52919 20.0145 7.97949 20.4039 8.16242 20.9095C8.2811 20.8965 8.4032 20.8975 8.52686 20.9143C9.12282 20.9954 9.58817 21.4179 9.75337 21.9576C9.95059 21.8988 10.163 21.8797 10.3802 21.9092C11.1972 22.0205 11.7694 22.7729 11.6582 23.5899C11.5471 24.407 10.7946 24.9791 9.97758 24.8679Z" fill="#694207"/>
<defs>
<linearGradient id="paint0_linear" x1="13.1225" y1="35.8821" x2="26.2747" y2="23.6578" gradientUnits="userSpaceOnUse">
<stop stop-color="#85321E"/>
<stop offset="1" stop-color="#CA4D2E"/>
</linearGradient>
<linearGradient id="paint1_linear" x1="14.7876" y1="48.7721" x2="22.7634" y2="34.8685" gradientUnits="userSpaceOnUse">
<stop stop-color="#85321E"/>
<stop offset="0.1707" stop-color="#89341F"/>
<stop offset="0.351" stop-color="#963922"/>
<stop offset="0.5359" stop-color="#AB4127"/>
<stop offset="0.7227" stop-color="#C84C2E"/>
<stop offset="0.7315" stop-color="#CA4D2E"/>
</linearGradient>
<linearGradient id="paint2_linear" x1="11.1149" y1="45.3706" x2="10.4874" y2="19.9136" gradientUnits="userSpaceOnUse">
<stop stop-color="#85321E"/>
<stop offset="0.1741" stop-color="#9F3C24"/>
<stop offset="0.3789" stop-color="#B7452A"/>
<stop offset="0.5698" stop-color="#C54B2D"/>
<stop offset="0.7315" stop-color="#CA4D2E"/>
</linearGradient>
<radialGradient id="paint3_radial" cx="0" cy="0" r="1" gradientUnits="userSpaceOnUse" gradientTransform="translate(10.8617 12.4013) scale(9.99737 10.0803)">
<stop stop-color="#FFBB45"/>
<stop offset="0.1539" stop-color="#EC943D"/>
<stop offset="0.3086" stop-color="#DD7536"/>
<stop offset="0.4594" stop-color="#D35F32"/>
<stop offset="0.6029" stop-color="#CC522F"/>
<stop offset="0.7313" stop-color="#CA4D2E"/>
</radialGradient>
<linearGradient id="paint4_linear" x1="18.2482" y1="1.6587" x2="14.2018" y2="7.44882" gradientUnits="userSpaceOnUse">
<stop stop-color="#85321E"/>
<stop offset="0.0659692" stop-color="#8E3620"/>
<stop offset="0.2861" stop-color="#A84026"/>
<stop offset="0.5123" stop-color="#BB472B"/>
<stop offset="0.7463" stop-color="#C64C2D"/>
<stop offset="1" stop-color="#CA4D2E"/>
</linearGradient>
<linearGradient id="paint5_linear" x1="5.06264" y1="0.746902" x2="8.62685" y2="9.14534" gradientUnits="userSpaceOnUse">
<stop stop-color="#85321E"/>
<stop offset="0.0659692" stop-color="#8E3620"/>
<stop offset="0.2861" stop-color="#A84026"/>
<stop offset="0.5123" stop-color="#BB472B"/>
<stop offset="0.7463" stop-color="#C64C2D"/>
<stop offset="1" stop-color="#CA4D2E"/>
</linearGradient>
<linearGradient id="paint6_linear" x1="7.16327" y1="46.7265" x2="0.31021" y2="34.6155" gradientUnits="userSpaceOnUse">
<stop stop-color="#85321E"/>
<stop offset="0.2721" stop-color="#A43E25"/>
<stop offset="0.5619" stop-color="#C0492C"/>
<stop offset="0.7315" stop-color="#CA4D2E"/>
</linearGradient>
<linearGradient id="paint7_linear" x1="6.66158" y1="47.4609" x2="6.66158" y2="40.7555" gradientUnits="userSpaceOnUse">
<stop stop-color="#85321E"/>
<stop offset="0.1741" stop-color="#9F3C24"/>
<stop offset="0.3789" stop-color="#B7452A"/>
<stop offset="0.5698" stop-color="#C54B2D"/>
<stop offset="0.7315" stop-color="#CA4D2E"/>
</linearGradient>
<linearGradient id="paint8_linear" x1="14.7314" y1="46.9115" x2="14.7314" y2="43.6253" gradientUnits="userSpaceOnUse">
<stop stop-color="#85321E"/>
<stop offset="0.1741" stop-color="#9F3C24"/>
<stop offset="0.3789" stop-color="#B7452A"/>
<stop offset="0.5698" stop-color="#C54B2D"/>
<stop offset="0.7315" stop-color="#CA4D2E"/>
</linearGradient>
<clipPath id="clip0">
<rect width="26" height="47.5312" fill="white" transform="translate(0 0.46875)"/>
</clipPath>
</defs>
</svg>
