<svg width="130" height="85" viewBox="0 0 130 85" fill="none" xmlns="http://www.w3.org/2000/svg">
<g opacity="0.3" clip-path="url(#clip0)">
<path d="M101.823 83.9379C103.327 83.6724 104.732 83.3737 105.975 83.0749H106.007C107.184 83.1745 109.701 83.3405 111.172 82.8094C110.224 82.9422 108.23 82.909 106.988 82.8426C107.282 82.7762 107.576 82.7098 107.87 82.6103C109.734 82.6435 113.493 82.1788 114.898 81.4818C113.722 81.681 112.185 80.8844 111.008 80.7848C113.656 79.9551 120.325 79.0921 119.507 74.8438C118.723 76.0718 113.983 76.7688 113.983 76.7688C113.983 76.7688 117.023 74.6115 115.291 72.1222C115.291 71.9562 115.291 72.089 115.291 72.089C115.389 71.1597 115.356 69.9648 114.735 69.0355L114.31 71.0601C113.46 70.3631 112.185 69.6661 110.322 69.0023C109.897 71.1597 112.087 74.6115 112.087 74.6115C112.087 74.6115 101.627 72.7528 99.3062 68.5045C96.5604 63.4596 103.261 59.344 103.261 59.344C113.362 66.4135 127.483 65.1855 129.837 74.2796C132.223 83.4068 109.766 86.9582 101.823 83.9379Z" fill="url(#paint0_linear)"/>
<path d="M26.5099 15.7652C27.654 10.3884 27.3925 4.31462 28.1443 4.14867C28.8961 3.98271 34.7473 12.3798 33.7012 15.4001C32.6552 18.4204 31.217 18.686 29.7133 17.8894C28.2097 17.0928 26.5099 15.7652 26.5099 15.7652Z" fill="url(#paint1_linear)"/>
<path d="M38.6044 66.8781C35.4336 68.9027 32.7532 68.9691 31.7726 65.3845C31.7072 65.1854 31.6745 65.0526 31.6418 64.8535C30.7266 60.5388 30.6612 56.4232 30.5958 52.5068C30.5958 52.4736 30.6285 52.4404 30.6285 52.4072C30.5958 51.2455 30.5958 50.0839 30.5304 48.9222C30.3997 45.5368 30.0401 42.2842 28.8307 39.2307C28.8307 39.1975 28.798 39.1643 28.798 39.1643C28.6345 38.7328 28.4384 38.3014 28.2423 37.8699C28.1442 37.6376 28.0135 37.372 27.85 37.1397C27.6212 36.6751 27.3597 36.1772 27.0655 35.7125C24.9408 32.0284 21.8681 28.0124 21.2144 26.3197C21.0836 26.021 21.0183 25.7887 21.0836 25.6559C21.5413 24.5938 24.9408 15.8648 25.9541 15.0019C26.9348 14.1389 33.0147 14.0394 35.5644 13.5747C37.4603 13.2428 45.2073 25.5232 50.372 33.9867C50.4047 34.0198 50.4374 34.053 50.4701 34.1194C51.7122 36.1772 52.7909 38.0027 53.6081 39.3303C53.6081 39.3635 53.6081 39.3635 53.6408 39.3635C53.9677 39.8945 54.2292 40.3592 54.458 40.7243C57.2692 45.3045 46.3841 61.966 38.6044 66.8781Z" fill="url(#paint2_radial)"/>
<path d="M25.9215 20.0137C25.6273 20.8102 24.9408 21.3081 24.4178 21.1089C23.8948 20.9098 23.6987 20.08 23.9929 19.2835C24.2871 18.4869 24.9735 17.9891 25.4965 18.1882C26.0522 18.3873 26.2157 19.1839 25.9215 20.0137Z" fill="#692718"/>
<path d="M27.8174 22.1709C28.1116 24.1291 27.0983 27.415 27.0656 27.5145C27.0329 27.6805 24.6467 28.5434 23.0777 29.5723C21.5413 30.6012 10.9504 30.5348 10.1659 29.9042C9.74098 29.5723 9.21797 27.9128 8.95647 26.2865C8.72765 24.8925 8.69496 23.5317 9.08722 23.1666C9.34872 22.9343 11.0485 22.6024 13.304 22.2705C16.867 21.7394 21.7701 21.2084 24.3852 20.9429C25.3658 20.8433 27.6867 21.142 27.8174 22.1709Z" fill="url(#paint3_radial)"/>
<path d="M31.3478 33.19C31.3478 33.2564 31.3151 35.7125 31.0536 37.8035C30.7594 40.2595 30.1383 42.1846 28.7981 39.2638C28.7981 39.2306 28.7655 39.1974 28.7655 39.1974C28.2098 38.0358 27.3272 37.1397 26.2485 36.4095H26.2158C22.2932 33.7874 15.9845 33.5883 15.1019 33.1236C13.9578 32.5594 13.2387 30.4021 12.9772 29.7714L16.8017 27.0167L21.1165 26.386L26.3139 25.6227C26.4119 25.5895 31.3151 32.9909 31.3478 33.19Z" fill="url(#paint4_radial)"/>
<path d="M105.353 67.9734C102.575 72.0226 96.0699 72.3877 94.8278 71.923C92.6704 71.1596 94.0106 72.8191 92.2454 72.3545C91.1013 72.0558 88.9766 72.0226 87.8326 71.8898C82.3737 71.1928 73.5152 69.8984 57.2039 74.3459C56.354 74.5782 55.4715 74.8106 54.5889 75.0429C50.3395 76.2377 46.7111 75.5739 43.6384 74.9765C42.429 74.7442 39.0294 74.1468 33.7667 69.8984C32.688 69.0355 32.0996 67.7742 31.5112 66.7122C31.4785 66.679 31.4785 66.6458 31.4458 66.6126C30.0076 64.1233 29.3211 61.7336 29.1904 60.3728C29.1577 60.2401 29.1577 60.1073 29.1577 59.9746C28.8308 55.4939 29.648 51.8098 30.4979 48.9554C30.5306 48.8227 30.5632 48.7231 30.5959 48.6235C30.6286 48.5903 30.6286 48.5571 30.6286 48.5239C30.9882 47.3955 31.3151 46.3998 31.5766 45.57C33.6032 38.6333 37.82 35.6462 42.3963 35.3143C44.2595 35.1815 46.1881 35.4802 48.0186 36.1108C50.6663 37.0733 48.3782 31.8957 50.3722 34.0199C50.4048 34.053 50.4375 34.0862 50.4702 34.1526C51.222 35.1151 55.6022 41.2885 55.831 41.4544C55.831 41.4876 55.831 41.4876 55.8637 41.4876C67.3045 51.3783 78.7126 41.6868 95.743 47.4287C111.531 52.7391 108.949 62.7957 105.353 67.9734Z" fill="#CA4D2E"/>
<path d="M39.4217 58.8791C37.2316 61.5343 34.4858 67.1103 34.4858 67.1103L6.3088 72.6862C6.3088 72.6862 5.19741 72.3875 4.02064 72.4207C2.84387 72.4539 2.84387 74.1798 2.84387 74.1798H3.56301L46.5804 72.3875L46.2535 66.4465C49.653 54.664 41.9387 55.8588 39.4217 58.8791Z" fill="url(#paint5_linear)"/>
<path d="M4.93591 73.0846C5.36086 73.1178 3.69377 72.6864 3.53033 74.014C3.39958 75.3084 3.85721 74.5782 3.85721 74.5782C3.85721 74.5782 3.69377 74.5118 3.72646 74.0804C3.82452 73.6489 4.24947 73.0183 4.93591 73.0846Z" fill="white"/>
<path d="M34.0935 14.7363C34.4858 13.3423 39.0621 -0.332062 40.9907 -0.000160322C42.9193 0.331741 44.521 25.8882 40.5004 28.1119C36.5124 30.3356 34.0935 14.7363 34.0935 14.7363Z" fill="url(#paint6_radial)"/>
<path d="M27.6868 17.5241C26.8042 19.416 26.0851 22.9673 29.55 24.4609C33.0149 25.9876 38.245 23.2328 36.5452 21.2414C34.9108 19.3828 35.3358 15.8646 31.3805 15.2008C29.9096 15.0017 28.3406 16.1633 27.6868 17.5241Z" fill="#B34429"/>
<path d="M90.9706 70.1969C90.4149 70.1305 92.0166 71.9892 91.3302 71.956C90.1861 71.6573 90.5456 74.3125 89.4016 74.1797C83.9427 73.4827 74.2997 75.6401 57.302 75.0095C56.4194 74.9763 55.4715 74.8435 54.5889 75.0759C50.3395 76.2707 45.5016 75.275 42.4617 74.6444C43.1481 70.562 45.3382 65.5171 45.3382 65.5171C56.0272 76.3039 85.3483 67.6745 92.2454 72.3543C92.8992 72.8189 90.3495 69.7654 90.9706 70.1969Z" fill="#B34429"/>
<path d="M31.6746 19.6153C31.5766 20.6442 30.9555 21.4408 30.2691 21.3412C29.5826 21.2748 29.0923 20.3787 29.1904 19.3498C29.2884 18.3209 29.9095 17.5243 30.5959 17.6239C31.2824 17.6903 31.7727 18.5864 31.6746 19.6153Z" fill="#692718"/>
<path d="M3.69374 75.9721H0C0 75.9721 0 74.2462 1.17677 74.213C2.35353 74.1798 3.46492 74.4785 3.46492 74.4785L3.69374 75.9721Z" fill="#CA4D2E"/>
<path d="M13.304 22.2705C14.35 26.1869 10.3947 26.5852 8.95647 26.3197C8.72765 24.9257 8.69496 23.5649 9.08722 23.1998C9.34872 22.9343 11.0485 22.6024 13.304 22.2705Z" fill="#692718"/>
<path d="M30.1709 15.3004C31.315 15.0681 33.0802 16.1634 33.0148 16.7276C32.9494 17.2918 28.0135 15.7651 30.1709 15.3004Z" fill="#692718"/>
<path d="M24.8429 17.1591C26.1177 17.1259 26.7061 16.1634 26.4446 15.8315C26.1831 15.4996 22.6201 17.2255 24.8429 17.1591Z" fill="#692718"/>
<path d="M12.9772 30.3024L20.9857 30.3356L23.8623 29.871C23.8623 29.871 25.2025 29.6718 25.4313 29.4395C26.0524 28.8089 25.562 27.4813 24.7775 27.9127C23.6988 28.5102 23.9603 29.0744 23.9603 29.0744L21.2799 29.9041L12.9772 30.3024Z" fill="#692718"/>
<path d="M35.3684 15.5659C35.6953 14.4374 39.4544 1.26094 40.4678 1.49327C41.4811 1.7256 41.4484 12.5124 41.4484 12.5124L42.2656 11.749L41.4484 14.7361C41.4484 14.7361 41.3177 21.0091 40.7293 21.4737C40.1409 21.9716 35.1723 16.3293 35.3684 15.5659Z" fill="#B34429"/>
<path d="M40.1081 74.6114C39.8793 73.9808 39.6504 73.2174 39.4216 72.3545C40.1081 72.4209 40.7945 72.62 41.5137 72.9851C40.9906 73.848 40.5003 74.5782 40.2388 74.6778C40.2061 74.6446 40.1735 74.6446 40.1081 74.6114Z" fill="#B34429"/>
<path d="M41.9059 73.2174C41.7752 73.151 41.6444 73.0846 41.5137 72.9851C42.3962 71.5579 43.3442 69.7324 43.3442 69.7324L41.9059 73.2174Z" fill="#B34429"/>
<path d="M43.6386 51.5774C37.5913 58.4146 38.5065 63.3599 38.6373 66.9113C38.6373 67.5087 38.67 67.9733 38.7027 68.3384C38.7681 69.4669 39.0949 70.9936 39.4872 72.3876C38.3431 72.2217 37.2317 72.3213 36.2511 72.2881C36.1203 72.1885 35.9896 72.0889 35.8915 71.9893C35.107 71.3587 34.4206 70.6617 33.7995 69.9316C32.8842 68.9027 32.1324 67.8074 31.544 66.7453C31.544 66.6457 31.5113 66.6125 31.4786 66.6457C30.0404 64.1565 29.3539 61.7668 29.2232 60.406C29.1905 60.2732 29.1905 60.1405 29.1905 60.0077C28.8636 55.527 29.6808 51.8429 30.5307 48.9886C30.3999 45.6032 30.0404 42.3505 28.8309 39.297C28.8309 39.2639 28.7982 39.2307 28.7982 39.2307C28.2425 38.069 27.36 37.1729 26.2812 36.4427C26.8043 36.7414 27.3273 37.0069 27.8503 37.2393C28.929 37.6707 30.0077 37.9031 31.0864 37.8367C33.4072 37.7703 35.6954 36.4759 37.9509 33.522C40.4351 30.2693 40.7293 28.8753 42.1349 34.219C42.233 34.584 42.331 34.9491 42.4291 35.3474C43.9654 40.7242 45.273 49.7188 43.6386 51.5774Z" fill="#B34429"/>
<path d="M50.3722 47.9265C47.7898 49.0218 45.5017 50.5485 43.5077 52.374C41.5137 54.1995 39.9774 56.4564 38.8333 58.8793C37.6566 61.3021 37.0682 63.9574 36.6759 66.679C36.2183 69.4005 36.2183 72.1553 36.0548 75.0097C35.3684 72.2881 34.8781 69.4005 35.1396 66.513C35.303 63.6255 35.9568 60.7379 37.2643 58.1159C38.5391 55.4939 40.4023 53.1374 42.6905 51.4115C44.9787 49.6524 47.6264 48.4244 50.3722 47.9265Z" fill="#B34429"/>
<path d="M54.1313 66.845L43.2135 76.7689L0.523071 75.9723C0.523071 75.9723 2.97467 75.6072 2.77854 74.8438C3.4323 75.3749 3.46499 74.4787 3.46499 74.4787L32.4919 71.2593C32.4919 71.2593 38.6372 58.0828 40.8273 55.4276C43.3443 52.4073 57.5309 55.0957 54.1313 66.845Z" fill="#CA4D2E"/>
<path d="M81.3602 48.1587C77.7972 49.2872 76.1955 48.5238 76.1955 55.2946C76.1955 59.377 78.974 62.2977 89.3688 71.1595C87.2441 72.819 75.0188 74.4453 70.8674 73.9806C69.6906 73.8479 70.2463 75.607 70.2463 75.607C70.2463 75.607 87.146 75.5738 92.5722 75.0759C98.6849 74.4785 101.888 75.2751 102.379 74.1134C103.359 71.7901 89.2707 62.1981 105.909 56.4894C109.537 55.2614 97.5408 42.981 81.3602 48.1587Z" fill="#CA4D2E"/>
<path d="M66.7815 75.5404C66.7815 74.7439 67.3045 73.3831 68.2198 73.549C70.9982 74.0801 71.9135 74.0801 71.9135 74.0801L72.2077 75.5404C72.2077 75.5404 66.7815 76.0051 66.7815 75.5404Z" fill="#CA4D2E"/>
<path d="M68.9715 74.5781C68.6447 74.6113 67.7294 74.8768 67.7621 75.7398C68.1216 76.3372 68.0236 75.8725 68.0236 75.8725C68.0236 75.8725 67.8275 75.0096 68.9715 74.5781Z" fill="white"/>
<path d="M100.385 60.2068C99.5021 62.0322 99.1099 63.9905 99.3714 65.9487C99.6329 67.9069 100.417 69.7656 101.431 71.4914C100.221 69.8983 99.2406 68.0397 98.9464 66.0151C98.6196 63.9905 99.0118 61.7003 100.385 60.2068Z" fill="#B34429"/>
<path d="M89.4015 71.1594C86.4269 68.8693 83.4523 66.546 80.7718 63.8576C79.4316 62.53 78.1241 61.136 77.0127 59.5097C76.4897 58.6799 75.9994 57.7838 75.7379 56.7881C75.4764 55.7924 75.5091 54.5976 75.9667 53.5687L75.9994 53.5355V53.5023C76.8493 52.3738 77.8953 51.71 79.0721 51.2122C80.2161 50.7475 81.4583 50.5484 82.6677 50.6147C83.8772 50.6479 85.054 50.9135 86.1654 51.2122C87.2767 51.6104 88.3554 52.0751 89.3688 52.6393C88.8131 52.4734 88.2574 52.3406 87.7017 52.1747L86.0346 51.8096C84.9232 51.6436 83.7791 51.4777 82.6677 51.5773C81.5563 51.6768 80.4776 51.8428 79.497 52.3074C78.5491 52.7389 77.6011 53.4359 77.1108 54.2325L77.1435 54.1661C76.457 55.5933 77.0454 57.4187 77.8626 59.0119C78.6798 60.6382 79.8566 62.1317 81.066 63.5589C83.6484 66.2805 86.4595 68.8029 89.4015 71.1594Z" fill="#B34429"/>
</g>
<defs>
<linearGradient id="paint0_linear" x1="98.9059" y1="65.9935" x2="125.53" y2="84.082" gradientUnits="userSpaceOnUse">
<stop stop-color="#85321E"/>
<stop offset="1" stop-color="#CA4D2E"/>
</linearGradient>
<linearGradient id="paint1_linear" x1="30.5744" y1="16.3474" x2="27.1026" y2="4.19039" gradientUnits="userSpaceOnUse">
<stop stop-color="#85321E"/>
<stop offset="1" stop-color="#CA4D2E"/>
</linearGradient>
<radialGradient id="paint2_radial" cx="0" cy="0" r="1" gradientUnits="userSpaceOnUse" gradientTransform="translate(-5.26822 3.33176) scale(53.6187 54.4425)">
<stop stop-color="#FFBB45"/>
<stop offset="1" stop-color="#CA4D2E"/>
</radialGradient>
<radialGradient id="paint3_radial" cx="0" cy="0" r="1" gradientUnits="userSpaceOnUse" gradientTransform="translate(-5.69973 11.2014) rotate(-12.0956) scale(50.5173 51.2257)">
<stop stop-color="#FFBB45"/>
<stop offset="1" stop-color="#CA4D2E"/>
</radialGradient>
<radialGradient id="paint4_radial" cx="0" cy="0" r="1" gradientUnits="userSpaceOnUse" gradientTransform="translate(-5.69952 11.2015) rotate(-12.0956) scale(50.5168 51.2253)">
<stop stop-color="#FFBB45"/>
<stop offset="1" stop-color="#CA4D2E"/>
</radialGradient>
<linearGradient id="paint5_linear" x1="32.9707" y1="65.9527" x2="-3.44795" y2="69.9246" gradientUnits="userSpaceOnUse">
<stop stop-color="#85321E"/>
<stop offset="1" stop-color="#CA4D2E"/>
</linearGradient>
<radialGradient id="paint6_radial" cx="0" cy="0" r="1" gradientUnits="userSpaceOnUse" gradientTransform="translate(-5.70002 11.2018) rotate(-12.0956) scale(50.5175 51.2259)">
<stop stop-color="#FFBB45"/>
<stop offset="1" stop-color="#CA4D2E"/>
</radialGradient>
<clipPath id="clip0">
<rect width="130" height="85" fill="white"/>
</clipPath>
</defs>
</svg>
