<svg width="68" height="117" viewBox="0 0 68 117" fill="none" xmlns="http://www.w3.org/2000/svg">
<g opacity="0.3" clip-path="url(#clip0)">
<path d="M58.5566 78.8629C58.9577 78.7434 60.6714 78.2657 63.9164 77.5093C63.5518 79.1415 62.7861 80.5747 61.7652 81.769L57.1711 82.3661C57.1711 82.3661 59.14 82.8438 60.4526 83.1225C56.6606 86.6257 51.3009 88.2977 51.3009 88.2977C51.3009 88.2977 53.1604 89.7309 60.0515 88.855C56.8429 92.7166 41.0917 97.5733 41.0917 97.5733C41.0917 97.5733 40.0708 94.0701 34.4558 82.9234C53.4521 84.4362 63.9164 47.2542 63.1143 39.8496C68.2188 48.6475 62.7496 60.5505 62.7496 60.5505C62.7496 60.5505 65.6301 60.232 67.8907 56.6492C68.8751 65.049 62.5309 71.5379 61.8746 72.1749C62.1663 72.0953 64.1716 71.4185 66.3958 69.5475C65.9218 72.2545 59.3588 78.1065 58.5566 78.8629Z" fill="url(#paint0_linear)"/>
<path d="M62.2026 92.8751C62.2026 90.8448 58.3377 82.6441 55.8219 83.2014C50.7173 84.3161 40.2894 114.372 40.2894 114.372C40.2894 114.372 48.3838 116.641 49.1859 116.641C49.9516 116.641 51.5924 116.243 51.7018 116.084C51.9205 115.129 51.2278 115.009 50.8632 114.81C50.3892 114.531 48.4567 115.168 48.4567 115.168C48.4567 115.168 43.2428 113.855 43.7168 112.7C45.5398 108.361 62.2026 97.8911 62.2026 92.8751Z" fill="url(#paint1_linear)"/>
<path d="M49.4778 115.289C49.8789 115.209 50.4987 115.09 50.8998 116.563C50.7539 116.563 51.0091 116.961 51.0091 116.961L50.681 116.642C50.681 116.642 50.5352 114.97 49.4778 115.289Z" fill="white"/>
<path d="M49.0763 115.727C49.3315 115.727 49.6597 116.403 49.4409 116.801C49.2221 117.2 49.2586 116.801 49.2586 116.801C49.2586 116.801 49.769 116.324 49.0763 115.727Z" fill="white"/>
<path d="M21.5852 14.8889C24.0646 8.87763 25.1219 1.67212 25.997 1.67212C26.8356 1.67212 31.3203 12.978 29.4973 16.2822C27.6742 19.5864 26.0335 19.5068 24.6115 18.193C23.153 16.8793 21.5852 14.8889 21.5852 14.8889Z" fill="url(#paint2_linear)"/>
<path d="M46.3789 51.1949C59.6143 85.6699 43.1339 111.267 41.4931 113.099C39.269 115.567 28.4765 113.377 28.4765 113.377C28.4765 113.377 18.8143 89.3722 16.3714 77.8274C13.9285 66.2827 23.0438 54.4195 33.5811 53.5038C44.0819 52.5882 45.1392 47.8907 46.3789 51.1949Z" fill="url(#paint3_linear)"/>
<path d="M29.4971 112.94C29.7888 112.502 29.9347 111.825 29.7159 111.029C24.429 91.7608 15.3502 83.1222 13.3084 83.162C12.7615 83.162 9.91749 88.9742 9.55288 91.1239C8.24028 99.3247 24.8301 108.839 26.6167 111.745C27.0907 112.9 21.8767 114.213 21.8767 114.213C21.8767 114.213 20.0902 113.139 19.6162 113.417C19.288 113.616 18.4129 114.412 18.6317 115.129C18.7411 115.288 20.3818 115.686 21.1475 115.686C21.9132 115.686 30.044 113.417 30.044 113.417C30.044 113.417 29.8253 113.218 29.4971 112.94Z" fill="url(#paint4_linear)"/>
<path d="M42.4408 61.3067C38.9041 66.2033 33.5443 71.4581 28.5856 74.8817C26.6896 76.2353 24.8301 77.2703 23.1529 77.9073C19.2151 79.4996 16.2982 78.8627 16.043 74.4438C16.0065 74.2448 16.0065 74.0457 16.0065 73.8069C15.9701 68.4724 16.8451 63.6555 17.6473 59.0376C17.6837 58.9978 17.6837 58.958 17.6837 58.9181C17.7202 58.6395 17.7931 58.3608 17.8296 58.0821C18.7411 52.8671 19.5068 47.9705 18.7411 43.0342C18.7411 42.9944 18.7046 42.9546 18.7046 42.9546C18.6317 42.3972 18.4859 41.8399 18.3765 41.3224C18.3036 41.0039 18.2306 40.6854 18.1213 40.3669C17.9754 39.7698 17.7931 39.1328 17.5743 38.4959C16.0794 33.6391 13.6365 28.1454 13.3084 25.9957C13.2355 25.5976 13.2355 25.319 13.3449 25.1597C14.0741 24.0451 19.7985 14.65 21.0746 13.8937C22.3507 13.0975 28.9867 14.5306 31.9036 14.65C34.6017 14.7297 42.769 40.2873 45.7588 49.4037C45.7588 49.4435 45.7588 49.4435 45.7953 49.4435C46.014 50.1601 46.2328 50.7572 46.3786 51.2349C47.1443 53.4643 45.4306 57.2462 42.4408 61.3067Z" fill="url(#paint5_radial)"/>
<path d="M19.9806 19.706C19.4702 20.5818 18.6316 20.9799 18.0847 20.5818C17.5377 20.1838 17.5377 19.1885 18.0482 18.3127C18.5587 17.4369 19.3973 17.0388 19.9442 17.4369C20.4911 17.835 20.4911 18.87 19.9806 19.706Z" fill="#692718"/>
<path d="M21.5493 22.7316C21.4035 25.0804 19.5804 28.703 19.5075 28.8225C19.4346 28.9817 16.6271 29.4196 14.6946 30.2556C12.7622 31.0518 1.24047 28.3049 0.511244 27.3893C0.146633 26.9116 -0.0721338 24.8017 0.000788435 22.851C0.0737107 21.1392 0.328939 19.5469 0.875856 19.2284C1.20401 18.9895 3.17291 19.0691 5.68872 19.2284C9.69945 19.5071 15.1686 20.144 18.0855 20.4625C19.1793 20.5819 21.6587 21.4975 21.5493 22.7316Z" fill="url(#paint6_radial)"/>
<path d="M22.9339 36.5848C22.8974 36.6644 22.314 39.5307 21.5848 41.9193C20.7098 44.7059 19.5795 46.8158 18.8138 43.0737C18.8138 43.0339 18.7773 42.9941 18.7773 42.9941C18.4492 41.5212 17.6835 40.2075 16.6626 39.0928L16.6261 39.053C12.9435 34.9924 6.08885 33.1612 5.25024 32.4048C4.15641 31.4494 3.82826 28.7423 3.71887 27.9461L8.53174 25.677L13.3811 25.9955L19.2513 26.3936C19.2149 26.3936 22.9339 36.3061 22.9339 36.5848Z" fill="url(#paint7_radial)"/>
<path d="M30.0803 15.6056C30.846 14.053 38.904 -0.835737 40.9458 0.0400707C42.9876 0.915879 38.9039 31.3303 34.0546 32.9227C29.2053 34.5151 30.0803 15.6056 30.0803 15.6056Z" fill="url(#paint8_radial)"/>
<path d="M22.4601 17.2775C21.0746 19.268 19.4703 23.2489 22.9341 25.9161C26.3979 28.5436 32.7057 26.6725 31.2837 23.9257C29.9346 21.2982 31.1743 17.3173 27.0177 15.5657C25.4499 14.8491 23.481 15.8045 22.4601 17.2775Z" fill="#B34429"/>
<path d="M26.3249 20.7011C25.9967 21.8954 25.1216 22.6518 24.3924 22.3731C23.6632 22.1342 23.3351 20.94 23.6997 19.7855C24.0278 18.5912 24.9029 17.8348 25.6321 18.1135C26.3613 18.3523 26.653 19.5466 26.3249 20.7011Z" fill="#692718"/>
<path d="M5.68794 19.2283C5.94316 24.085 1.53137 23.5675 0 22.8509C0.0729223 21.1391 0.32815 19.5467 0.875067 19.2283C1.20322 18.9894 3.17212 19.0292 5.68794 19.2283Z" fill="#692718"/>
<path d="M25.6688 15.2473C26.9814 15.2473 28.6586 16.9989 28.4763 17.6359C28.2575 18.3126 23.2259 15.2473 25.6688 15.2473Z" fill="#692718"/>
<path d="M19.4703 16.1231C20.8558 16.4018 21.7309 15.4065 21.5121 14.9686C21.2934 14.4909 16.991 15.6056 19.4703 16.1231Z" fill="#692718"/>
<path d="M3.53687 28.5437L12.2511 30.574L15.4961 30.773C15.4961 30.773 16.991 30.8925 17.3192 30.6536C18.1578 30.0565 17.9026 28.3845 16.9546 28.7029C15.642 29.101 15.7878 29.8574 15.7878 29.8574L12.6886 30.1759L3.53687 28.5437Z" fill="#692718"/>
<path d="M31.2833 16.9195C31.9032 15.6854 38.9766 1.15491 40.0704 1.67243C41.1278 2.18996 38.612 14.8494 38.612 14.8494L39.6694 14.1726L38.1015 17.4768C38.1015 17.4768 36.5337 24.8017 35.8045 25.1998C35.0753 25.5979 30.8822 17.7156 31.2833 16.9195Z" fill="#B34429"/>
<path d="M42.4405 61.3068C42.3675 61.6651 42.2946 62.0632 42.1488 62.4613C36.8254 77.3102 31.9761 77.6287 28.5852 74.8818C26.4705 73.17 24.3557 70.8213 23.7724 69.4677C19.3606 59.5154 18.1209 56.5297 17.8657 58.122C18.7772 52.907 19.5429 48.0104 18.7772 43.074C18.7772 43.0342 18.7407 42.9944 18.7407 42.9944C18.4126 41.5215 17.6469 40.2078 16.626 39.0931C17.1364 39.5708 17.6469 40.0087 18.1573 40.4068C19.2512 41.1632 20.3815 41.7205 21.5482 41.9594C24.1005 42.4769 26.8716 41.5215 30.0072 38.6154C33.471 35.3908 35.1118 32.1663 34.419 40.4864C33.9086 46.9356 43.7166 54.2605 42.4405 61.3068Z" fill="#B34429"/>
<path d="M28.4398 77.5887C29.8982 80.8531 26.9813 108.64 31.065 113.935C29.6795 114.134 29.0596 114.253 29.0596 114.253C29.0596 114.253 19.1787 87.143 17.9755 83.6398C16.8452 80.1365 23.5175 66.5615 28.4398 77.5887Z" fill="url(#paint9_linear)"/>
<path d="M38.0656 78.2259C39.4146 82.8836 40.8001 111.706 38.2843 114.174C41.2012 115.01 39.8886 114.214 39.8886 114.214C39.8886 114.214 49.8425 92.836 46.561 78.7434C44.0452 67.7162 38.0656 78.2259 38.0656 78.2259Z" fill="url(#paint10_linear)"/>
<path d="M20.892 114.333C20.4909 114.253 19.871 114.134 19.47 115.607C19.6158 115.607 19.3606 116.005 19.3606 116.005L19.6887 115.686C19.6887 115.686 19.7981 114.014 20.892 114.333Z" fill="white"/>
<path d="M21.2571 114.771C21.0019 114.771 20.6737 115.448 20.8925 115.846C21.1113 116.244 21.0748 115.846 21.0748 115.846C21.0748 115.846 20.6008 115.368 21.2571 114.771Z" fill="white"/>
<path d="M28.3668 114.532C28.3303 114.174 28.7314 112.94 29.3513 113.577C29.9711 114.174 29.6065 114.532 29.6065 114.532H29.2419H28.3668Z" fill="#CA4D2E"/>
<path d="M29.9707 112.98C30.6634 112.98 30.8822 114.533 30.8822 114.533H29.3873C29.3508 114.533 29.0227 112.98 29.9707 112.98Z" fill="#CA4D2E"/>
<path d="M31.8305 114.531C31.867 114.412 31.2107 112.62 30.7731 113.019C30.3721 113.417 30.2627 114.531 30.2627 114.531H31.8305Z" fill="#CA4D2E"/>
<path d="M31.5387 113.975C31.9034 113.577 32.2315 114.532 32.2315 114.532H31.4658L31.5387 113.975Z" fill="#CA4D2E"/>
<path d="M29.3872 113.855C29.3872 113.855 29.2414 114.572 29.4601 114.731C29.6789 114.89 29.606 114.691 29.606 114.691C29.606 114.691 29.3872 114.452 29.3872 113.855Z" fill="white"/>
<path d="M30.5179 113.855C30.5179 113.855 30.4814 114.612 30.6637 114.691C30.8096 114.731 30.846 114.691 30.846 114.691C30.846 114.691 30.5908 114.253 30.5179 113.855Z" fill="white"/>
<path d="M40.9092 114.652C40.9456 114.294 40.5446 113.06 39.9247 113.696C39.3049 114.294 39.6695 114.652 39.6695 114.652H40.0341H40.9092Z" fill="#CA4D2E"/>
<path d="M39.3051 113.099C38.6123 113.099 38.3936 114.651 38.3936 114.651H39.8885C39.9249 114.651 40.2166 113.099 39.3051 113.099Z" fill="#CA4D2E"/>
<path d="M37.4455 114.651C37.4091 114.532 38.0654 112.74 38.5029 113.138C38.904 113.537 39.0134 114.651 39.0134 114.651H37.4455Z" fill="#CA4D2E"/>
<path d="M37.7372 114.095C37.3726 113.697 37.0444 114.652 37.0444 114.652H37.8101L37.7372 114.095Z" fill="#CA4D2E"/>
<path d="M39.852 113.975C39.852 113.975 39.9979 114.692 39.7791 114.851C39.5603 115.01 39.6332 114.811 39.6332 114.811C39.6332 114.811 39.8885 114.572 39.852 113.975Z" fill="white"/>
<path d="M38.7583 113.975C38.7583 113.975 38.7948 114.731 38.6125 114.811C38.4666 114.851 38.4302 114.811 38.4302 114.811C38.4302 114.811 38.6854 114.373 38.7583 113.975Z" fill="white"/>
</g>
<defs>
<linearGradient id="paint0_linear" x1="39.0267" y1="87.4751" x2="70.7963" y2="60.2061" gradientUnits="userSpaceOnUse">
<stop stop-color="#85321E"/>
<stop offset="1" stop-color="#CA4D2E"/>
</linearGradient>
<linearGradient id="paint1_linear" x1="42.7744" y1="118.891" x2="62.9614" y2="86.393" gradientUnits="userSpaceOnUse">
<stop stop-color="#85321E"/>
<stop offset="0.1707" stop-color="#89341F"/>
<stop offset="0.351" stop-color="#963922"/>
<stop offset="0.5359" stop-color="#AB4127"/>
<stop offset="0.7227" stop-color="#C84C2E"/>
<stop offset="0.7315" stop-color="#CA4D2E"/>
</linearGradient>
<linearGradient id="paint2_linear" x1="25.8854" y1="16.5972" x2="24.7903" y2="1.4615" gradientUnits="userSpaceOnUse">
<stop stop-color="#85321E"/>
<stop offset="1" stop-color="#CA4D2E"/>
</linearGradient>
<linearGradient id="paint3_linear" x1="34.6169" y1="115.441" x2="33.1226" y2="59.4621" gradientUnits="userSpaceOnUse">
<stop stop-color="#85321E"/>
<stop offset="0.1741" stop-color="#9F3C24"/>
<stop offset="0.3789" stop-color="#B7452A"/>
<stop offset="0.5698" stop-color="#C54B2D"/>
<stop offset="0.7315" stop-color="#CA4D2E"/>
</linearGradient>
<linearGradient id="paint4_linear" x1="25.6138" y1="113.905" x2="8.25386" y2="85.5737" gradientUnits="userSpaceOnUse">
<stop stop-color="#85321E"/>
<stop offset="0.2721" stop-color="#A43E25"/>
<stop offset="0.5619" stop-color="#C0492C"/>
<stop offset="0.7315" stop-color="#CA4D2E"/>
</linearGradient>
<radialGradient id="paint5_radial" cx="0" cy="0" r="1" gradientUnits="userSpaceOnUse" gradientTransform="translate(-12.5419 1.42609) scale(56.3093 61.4803)">
<stop stop-color="#FFBB45"/>
<stop offset="1" stop-color="#CA4D2E"/>
</radialGradient>
<radialGradient id="paint6_radial" cx="0" cy="0" r="1" gradientUnits="userSpaceOnUse" gradientTransform="translate(-12.5357 1.43571) scale(56.3111 61.4823)">
<stop stop-color="#FFBB45"/>
<stop offset="1" stop-color="#CA4D2E"/>
</radialGradient>
<radialGradient id="paint7_radial" cx="0" cy="0" r="1" gradientUnits="userSpaceOnUse" gradientTransform="translate(-12.5366 1.43531) scale(56.3107 61.4819)">
<stop stop-color="#FFBB45"/>
<stop offset="1" stop-color="#CA4D2E"/>
</radialGradient>
<radialGradient id="paint8_radial" cx="0" cy="0" r="1" gradientUnits="userSpaceOnUse" gradientTransform="translate(-12.5366 1.43555) scale(56.3112 61.4823)">
<stop stop-color="#FFBB45"/>
<stop offset="1" stop-color="#CA4D2E"/>
</radialGradient>
<linearGradient id="paint9_linear" x1="24.4847" y1="115.696" x2="24.4847" y2="99.3528" gradientUnits="userSpaceOnUse">
<stop stop-color="#85321E"/>
<stop offset="0.1741" stop-color="#9F3C24"/>
<stop offset="0.3789" stop-color="#B7452A"/>
<stop offset="0.5698" stop-color="#C54B2D"/>
<stop offset="0.7315" stop-color="#CA4D2E"/>
</linearGradient>
<linearGradient id="paint10_linear" x1="42.648" y1="114.357" x2="42.648" y2="106.347" gradientUnits="userSpaceOnUse">
<stop stop-color="#85321E"/>
<stop offset="0.1741" stop-color="#9F3C24"/>
<stop offset="0.3789" stop-color="#B7452A"/>
<stop offset="0.5698" stop-color="#C54B2D"/>
<stop offset="0.7315" stop-color="#CA4D2E"/>
</linearGradient>
<clipPath id="clip0">
<rect width="68" height="117" fill="white"/>
</clipPath>
</defs>
</svg>
