<svg width="50" height="34" viewBox="0 0 50 34" fill="none" xmlns="http://www.w3.org/2000/svg">
<g clip-path="url(#clip0)">
<path d="M18.7784 20.3395C17.8896 23.2753 9.08665 29.3945 7.57379 30.1835C7.52651 29.3762 7.36577 29.9175 7.2334 29.7615C11.7247 26.4863 12.4811 22.3303 13.7103 17.4954C14.9395 12.6697 18.0787 13.734 19.0148 14.8716C19.9414 16.0184 18.7784 20.3395 18.7784 20.3395Z" fill="url(#paint0_linear)"/>
<path d="M41.6699 11.3578C41.7928 11.3394 42.3507 11.2844 43.3719 11.2202C43.2017 11.6422 42.8991 12 42.5398 12.2936L41.1026 12.266C41.1026 12.266 41.6888 12.4862 42.0765 12.6147C40.7716 13.4128 39.0697 13.633 39.0697 13.633C39.0697 13.633 39.5803 14.1009 41.7266 14.1468C40.592 15.0642 35.5806 15.7339 35.5806 15.7339C35.5806 15.7339 35.401 14.7339 34.1245 11.477C39.8828 12.6789 44.5349 2.99997 44.5822 0.954102C45.7924 3.55043 43.665 6.56878 43.665 6.56878C43.665 6.56878 44.5538 6.60548 45.3953 5.71557C45.367 8.03667 43.1733 9.54126 42.9464 9.69722C43.0409 9.68805 43.6744 9.58713 44.4403 9.16511C44.1945 9.86236 41.9441 11.1835 41.6699 11.3578Z" fill="url(#paint1_linear)"/>
<path d="M46.6243 20.0002C47.0971 20.2938 47.3429 20.4681 47.6644 20.7525V20.7617C47.6171 20.8076 47.4753 20.9268 47.2106 20.8259C47.2957 20.881 47.551 21.0002 47.7212 20.8167C47.8441 20.936 47.9292 21.0277 47.9008 21.0553C47.7401 21.2296 47.3524 21.4222 47.1727 21.1929C46.6527 20.5323 46.7945 20.4773 46.473 20.4406C46.3501 20.4222 46.5203 19.936 46.6243 20.0002Z" fill="url(#paint2_linear)"/>
<path d="M26.8628 19.3946C27.5814 20.5506 31.8363 23.3304 35.0322 22.624C38.2281 21.9267 38.0296 20.7983 36.3749 19.7065C34.7297 18.6332 32.8669 15.3854 30.73 15.4405C28.5931 15.5047 28.2433 14.9451 27.3639 16.4955C26.4751 18.0643 26.1253 18.202 26.8628 19.3946Z" fill="url(#paint3_linear)"/>
<path d="M32.5455 22.5871C39.9301 24.1835 41.339 20.7064 42.5114 20.3302C43.1166 20.1376 46.5867 20.4403 46.5867 20.4403C46.5867 20.4403 46.9365 20.3853 46.9838 20.2385C46.0477 19.5413 40.9418 17.0734 40.4312 18.3027C38.5496 22.7614 31.5337 16.9541 31.5337 16.9541C31.5337 16.9541 30.4464 22.1376 32.5455 22.5871Z" fill="url(#paint4_linear)"/>
<path d="M5.21942 6.23867C5.15324 4.43133 4.54809 2.5139 4.78448 2.39464C5.02086 2.28455 7.67782 4.46803 7.59272 5.52308C7.50763 6.57812 7.04431 6.77996 6.47699 6.65152C5.90967 6.5139 5.21942 6.23867 5.21942 6.23867Z" fill="url(#paint5_linear)"/>
<path d="M13.7292 21.3945C13.6819 21.4404 13.6347 21.4862 13.5968 21.5413C12.708 22.4496 11.8192 22.6881 11.1857 21.633C11.1574 21.578 11.129 21.5321 11.1006 21.4771C10.8642 21.0275 10.6751 20.578 10.5049 20.1284C10.174 19.2844 9.92815 18.4404 9.70122 17.6239C9.70122 17.6147 9.70122 17.5963 9.69177 17.5872C9.26628 16.0918 8.85969 14.7156 7.9898 13.5413L7.97089 13.5229C7.88579 13.4037 7.79124 13.2936 7.69668 13.1835C7.68723 13.1743 7.68723 13.1651 7.67777 13.156C7.62104 13.0918 7.55485 13.0184 7.47921 12.9541C7.36575 12.8257 7.23337 12.6973 7.09154 12.5688C6.07036 11.578 4.70879 10.5505 4.34948 10.0551C4.27384 9.97249 4.24547 9.89909 4.25493 9.85322C4.32112 9.47707 4.71824 6.40368 4.98299 6.04588C5.24774 5.67891 7.25228 5.1468 8.0749 4.789C8.83133 4.44955 14.8922 9.66973 16.8684 11.5229C16.8684 11.5229 16.8778 11.5229 16.8778 11.5321C16.8778 11.5413 17.9179 12.4496 17.9274 12.4496C18.0787 12.5872 17.5775 12.4771 17.6816 12.578C18.9675 13.7707 15.9039 19.0826 13.7292 21.3945Z" fill="url(#paint6_radial)"/>
<path d="M5.38957 7.64048C5.42201 7.3585 5.28843 7.11259 5.09122 7.09124C4.89401 7.06989 4.70785 7.28117 4.67542 7.56315C4.64299 7.84514 4.77657 8.09104 4.97378 8.11239C5.17098 8.13375 5.35714 7.92246 5.38957 7.64048Z" fill="#692718"/>
<path d="M6.20272 8.16511C6.45802 8.76144 6.40129 9.89905 6.40129 9.93575C6.40129 9.99079 5.68268 10.4587 5.24773 10.9266C4.82224 11.3853 1.27648 12.2477 0.964448 12.1101C0.794251 12.0458 0.482224 11.5504 0.255295 11.0642C0.0567322 10.633 -0.0661876 10.2018 0.0378215 10.055C0.104009 9.9541 0.652421 9.70639 1.37103 9.41281C2.51513 8.94492 4.11309 8.36694 4.96407 8.07336C5.2761 7.9541 6.07035 7.85318 6.20272 8.16511Z" fill="url(#paint7_radial)"/>
<path d="M7.98978 13.5415L7.97087 13.5231C7.80067 13.3213 7.5832 13.1653 7.34682 13.046C7.20499 12.9635 7.0537 12.8993 6.89296 12.8442H6.8835C5.36119 12.3305 3.23373 12.7983 2.90279 12.7249C2.4773 12.6332 2.05181 12.0094 1.91943 11.835L2.96898 10.6332L4.34946 10.0644L6.02307 9.3855C6.02307 9.3855 8.29235 11.3305 8.32072 11.3947C8.32072 11.413 8.52874 12.202 8.61384 12.8901C8.62329 12.991 8.6422 13.0919 8.6422 13.1837C8.69894 13.8442 8.59493 14.2571 7.98978 13.5415Z" fill="url(#paint8_radial)"/>
<path d="M37.812 17.0919C37.7269 18.8626 34.2946 19.202 33.8218 19.1653C32.5169 19.0552 31.5619 18.9635 30.5313 19.1195C30.4651 19.1286 30.4084 19.1378 30.3422 19.147C28.4039 19.4681 26.1724 20.6791 20.849 24.0919C19.5631 24.9176 18.3812 25.2938 17.2938 25.358C16.7643 25.3947 16.2632 25.3488 15.7809 25.2571C15.762 25.2479 15.7526 25.2479 15.7337 25.2479C15.2325 25.1378 14.7503 24.9635 14.3248 24.7525C13.975 24.5873 13.6535 24.3855 13.3509 24.1837C11.9988 23.2204 11.1289 21.9268 10.8641 21.2479C10.8358 21.202 10.8358 21.1561 10.8169 21.1195C10.6845 20.78 10.5805 20.4589 10.5048 20.1378C10.155 18.9084 10.0793 17.8075 10.0699 16.9176C10.0699 16.9084 10.0793 16.8901 10.0793 16.8809C10.0699 16.4314 10.0699 16.0552 10.0699 15.7341C9.98479 13.3305 10.8641 11.9084 12.1123 11.2571C12.1406 11.2295 12.1784 11.2112 12.2163 11.1928C12.8876 10.8626 13.6724 10.7433 14.4761 10.8167C15.2703 10.8901 16.093 11.1378 16.8494 11.5323C16.8494 11.5323 16.8588 11.5323 16.8588 11.5415C17.0196 11.624 17.1803 11.7158 17.3316 11.8167C17.4262 11.8809 17.5207 11.936 17.6247 11.991C17.6342 12.0002 17.6342 12.0002 17.6342 12.0002C23.2601 15.1928 24.3097 11.9727 30.7582 10.7984C34.4175 10.1195 37.9538 13.9451 37.812 17.0919Z" fill="#CA4D2E"/>
<path d="M15.866 25.257C15.8377 25.257 15.8188 25.2662 15.7998 25.2662C15.7809 25.257 15.7715 25.257 15.7526 25.257C15.2514 25.1469 14.7692 24.9726 14.3437 24.7616C13.9939 24.5965 13.6724 24.3947 13.3698 24.1928C12.0177 23.2295 11.1478 21.9359 10.8831 21.257C10.8547 21.2112 10.8547 21.1653 10.8358 21.1286C10.7034 20.7892 10.5994 20.4681 10.5238 20.1469C10.1928 19.3029 9.94697 18.4589 9.72004 17.6424C9.72004 17.6332 9.72004 17.6148 9.71059 17.6057C9.2851 16.1103 8.87852 14.7341 8.00862 13.5598L7.98971 13.5414C7.81951 13.3396 7.60204 13.1836 7.36566 13.0644C7.36566 13.0552 7.36566 13.0552 7.3562 13.0552C7.48858 13.1194 7.60204 13.1745 7.70605 13.2112C8.12209 13.358 8.37738 13.2937 8.65159 13.202C9.41747 12.9726 10.0604 12.358 10.5332 11.2203C11.0627 9.95429 11.0249 9.49558 11.9893 11.0552C12.0366 11.1286 12.0744 11.1928 12.1217 11.2662C13.1334 12.8625 14.6936 14.9451 14.3059 15.6974C13.0578 18.1653 13.3887 20.2295 13.7386 21.4222C13.7669 21.5414 13.8048 21.6515 13.8331 21.7525C13.8899 21.9359 13.9466 22.0827 13.9844 22.202C14.2681 23.046 15.3271 24.4589 15.3271 24.4589L15.866 25.257Z" fill="#B34429"/>
<path d="M7.66821 5.27527C7.68712 4.7982 8.04643 0.0550835 8.71776 3.76225e-05C9.38909 -0.0550082 12.0839 7.97251 10.9398 9.00921C9.79567 10.0459 7.66821 5.27527 7.66821 5.27527Z" fill="url(#paint9_radial)"/>
<path d="M5.76772 6.70665C5.62589 7.38555 5.69208 8.57821 6.97801 8.77087C8.26394 8.96353 9.7768 7.65161 9.03928 7.16537C8.33958 6.70665 8.1883 5.55069 6.79836 5.66996C6.29722 5.70665 5.87173 6.21124 5.76772 6.70665Z" fill="#B34429"/>
<path d="M30.5407 19.1193C30.4746 19.1285 30.4178 19.1377 30.3516 19.1469C28.4227 19.4771 26.1818 20.679 20.8584 24.0918C19.5725 24.9175 18.3906 25.2936 17.3032 25.3579C16.1875 25.4313 15.1852 25.1744 14.3248 24.7432C13.9749 24.578 15.4972 24.6698 15.1947 24.4588C16.3482 23.2753 15.346 21.1193 15.346 21.1193C20.0642 23.9083 26.9572 17.7799 29.7559 18.8074C30.0302 18.9267 30.2949 19.0184 30.5407 19.1193Z" fill="#B34429"/>
<path d="M29.4628 18.5412C29.8505 19.3577 34.5404 23.2201 38.4644 22.9724C41.2348 22.7981 41.6224 19.7339 40.0245 18.9999C37.6134 17.8899 38.4454 11.9357 32.8289 12.055C29.6047 12.1192 28.6686 16.8532 29.4628 18.5412Z" fill="#CA4D2E"/>
<path d="M37.4434 22.8716C38.1998 23.2845 43.3057 22.2936 44.2796 22.8533C45.2535 23.4129 45.8965 21.3579 44.8753 20.4955C42.6344 18.5964 41.7456 20.0001 40.1476 19.0643C38.1525 17.8991 37.4434 19.0092 37.7649 19.7432C38.0958 20.4863 36.4506 22.3303 37.4434 22.8716Z" fill="#CA4D2E"/>
<path d="M43.2867 22.6792C45.3763 22.8718 47.9387 24.8718 48.5628 25.6241C49.1774 26.3672 49.2909 25.5416 49.1112 25.4039C47.9671 24.4682 44.9036 19.2113 42.9463 19.6241C40.9985 20.0278 41.4524 20.7801 41.4524 20.7801C41.4524 20.7801 41.944 22.5599 43.2867 22.6792Z" fill="#CA4D2E"/>
<path d="M48.6858 25.0366C48.6858 25.0366 49.3665 25.6054 49.7448 25.9907C49.6786 26.0458 49.5178 26.1651 49.2342 26.0274C49.3193 26.1008 49.6124 26.2476 49.8015 26.0458C49.9339 26.1926 50.019 26.2935 49.9906 26.321C49.8015 26.5045 49.3476 26.6972 49.168 26.4403C48.629 25.6605 48.4021 25.4311 48.4021 25.4311L48.6858 25.0366Z" fill="#CA4D2E"/>
<path d="M7.27112 7.03671C7.32785 7.37616 7.17657 7.67891 6.94018 7.70643C6.7038 7.74313 6.46742 7.49542 6.42014 7.16515C6.36341 6.8257 6.51469 6.52295 6.75108 6.49542C6.98746 6.45873 7.21439 6.69726 7.27112 7.03671Z" fill="#692718"/>
<path d="M1.37103 9.41309C2.05182 10.5782 0.765885 11.0369 0.255295 11.0645C0.0567322 10.6333 -0.0661876 10.2021 0.0378215 10.0553C0.104009 9.95437 0.652421 9.70666 1.37103 9.41309Z" fill="#692718"/>
<path d="M6.40135 5.77989C6.76065 5.60558 7.4509 5.80742 7.47926 6.00008C7.50763 6.18356 5.73002 6.11017 6.40135 5.77989Z" fill="#692718"/>
<path d="M4.79393 6.81661C5.20996 6.69735 5.33288 6.33955 5.20996 6.25698C5.0965 6.18359 4.04695 7.02762 4.79393 6.81661Z" fill="#692718"/>
<path d="M1.93848 12.0002L4.61435 11.3396L5.54097 10.9543C5.54097 10.9543 5.96646 10.78 6.0232 10.6882C6.17448 10.4313 5.90028 10.0552 5.67335 10.257C5.36132 10.5323 5.50315 10.6882 5.50315 10.6882L4.68053 11.1745L1.93848 12.0002Z" fill="#692718"/>
<path d="M8.16946 5.44045C8.18838 5.05513 8.32075 0.532196 8.68951 0.523022C9.04882 0.504673 9.94708 3.96339 9.94708 3.96339L10.1551 3.65146L10.1362 4.66981C10.1362 4.66981 10.6279 6.67899 10.4671 6.88082C10.3064 7.07348 8.16001 5.69733 8.16946 5.44045Z" fill="#B34429"/>
<path d="M16.2916 14.2109C15.5068 14.8073 14.7882 15.4678 14.2398 16.2293C13.6913 16.9908 13.3604 17.8715 13.2564 18.7706C13.1524 19.6788 13.2753 20.6054 13.5212 21.5045C13.6157 21.9632 13.8048 22.4036 13.9466 22.8623C14.1074 23.3119 14.3154 23.7431 14.4667 24.2109C14.1736 23.8256 13.8805 23.422 13.6252 22.9999C13.3982 22.5596 13.1429 22.1375 13.0011 21.6605C12.6418 20.7339 12.5094 19.7064 12.6418 18.7064C12.7742 17.6972 13.2186 16.7339 13.871 15.9724C14.5518 15.2109 15.3933 14.633 16.2916 14.2109Z" fill="#B34429"/>
<path d="M19.9319 18.9177C19.0242 20.5507 18.6743 22.1654 19.3079 22.6333C18.3907 25.092 10.9682 32.3856 8.87858 33.4314C8.85967 33.4681 8.78403 33.1103 8.87858 33.0094C18.6933 21.9452 12.7742 20.147 15.8945 15.4957C17.3033 13.3948 20.121 14.8535 20.764 16.0828C21.4069 17.3122 19.9319 18.9177 19.9319 18.9177Z" fill="#CA4D2E"/>
<path d="M9.38906 33.1284C9.24723 33.2202 8.71773 33.7798 8.71773 33.7798C8.70828 33.7798 8.69882 33.7706 8.69882 33.7615C8.60427 33.6514 8.5759 33.4037 8.75556 33.2569C8.85956 33.1651 8.34898 33.4587 8.63264 33.7982C8.64209 33.8165 8.661 33.8349 8.67046 33.844L8.49081 34.0092C8.49081 34.0092 8.08422 33.6055 8.35843 33.3211C8.64209 33.0367 9.04867 32.8257 9.04867 32.8257C9.04867 32.8257 9.48362 33.0642 9.38906 33.1284Z" fill="#CA4D2E"/>
<path d="M7.81019 29.8348L7.76291 30.0825L6.45807 30.7889C6.42971 30.6972 6.42025 30.5688 6.42971 30.4128C6.35406 30.5045 6.34461 30.6972 6.36352 30.8348L6.13659 30.9541C6.13659 30.9541 5.85293 30.2935 6.42025 30.0642C6.88356 29.8807 7.34688 29.6697 7.34688 29.6697L7.81019 29.8348Z" fill="url(#paint10_linear)"/>
</g>
<defs>
<linearGradient id="paint0_linear" x1="15.2706" y1="19.6638" x2="5.84501" y2="30.8728" gradientUnits="userSpaceOnUse">
<stop stop-color="#85321E"/>
<stop offset="1" stop-color="#CA4D2E"/>
</linearGradient>
<linearGradient id="paint1_linear" x1="35.3598" y1="12.887" x2="45.3235" y2="5.64663" gradientUnits="userSpaceOnUse">
<stop stop-color="#85321E"/>
<stop offset="1" stop-color="#CA4D2E"/>
</linearGradient>
<linearGradient id="paint2_linear" x1="41.3803" y1="27.828" x2="47.1849" y2="20.1248" gradientUnits="userSpaceOnUse">
<stop stop-color="#85321E"/>
<stop offset="1" stop-color="#CA4D2E"/>
</linearGradient>
<linearGradient id="paint3_linear" x1="30.3599" y1="18.9829" x2="45.7548" y2="19.9286" gradientUnits="userSpaceOnUse">
<stop stop-color="#85321E"/>
<stop offset="0.2289" stop-color="#8F3620"/>
<stop offset="0.6153" stop-color="#A94026"/>
<stop offset="1" stop-color="#CA4D2E"/>
</linearGradient>
<linearGradient id="paint4_linear" x1="30.8277" y1="19.793" x2="46.2107" y2="20.9074" gradientUnits="userSpaceOnUse">
<stop stop-color="#85321E"/>
<stop offset="0.2188" stop-color="#8D3520"/>
<stop offset="0.5672" stop-color="#A53E25"/>
<stop offset="1" stop-color="#CA4D2E"/>
</linearGradient>
<linearGradient id="paint5_linear" x1="6.63306" y1="6.08218" x2="4.57089" y2="2.42219" gradientUnits="userSpaceOnUse">
<stop stop-color="#85321E"/>
<stop offset="1" stop-color="#CA4D2E"/>
</linearGradient>
<radialGradient id="paint6_radial" cx="0" cy="0" r="1" gradientUnits="userSpaceOnUse" gradientTransform="translate(-6.41628 1.47895) scale(19.8475 19.2575)">
<stop stop-color="#FFBB45"/>
<stop offset="1" stop-color="#CA4D2E"/>
</radialGradient>
<radialGradient id="paint7_radial" cx="0" cy="0" r="1" gradientUnits="userSpaceOnUse" gradientTransform="translate(-5.91301 7.46517) rotate(-25.671) scale(17.3034 16.985)">
<stop stop-color="#FFBB45"/>
<stop offset="1" stop-color="#CA4D2E"/>
</radialGradient>
<radialGradient id="paint8_radial" cx="0" cy="0" r="1" gradientUnits="userSpaceOnUse" gradientTransform="translate(-3.77584 3.71597) scale(17.16 16.6499)">
<stop stop-color="#FFBB45"/>
<stop offset="1" stop-color="#CA4D2E"/>
</radialGradient>
<radialGradient id="paint9_radial" cx="0" cy="0" r="1" gradientUnits="userSpaceOnUse" gradientTransform="translate(-5.91294 7.46474) rotate(-25.671) scale(17.3032 16.9848)">
<stop stop-color="#FFBB45"/>
<stop offset="1" stop-color="#CA4D2E"/>
</radialGradient>
<linearGradient id="paint10_linear" x1="-6.73595" y1="20.523" x2="8.36914" y2="32.0736" gradientUnits="userSpaceOnUse">
<stop stop-color="#85321E"/>
<stop offset="1" stop-color="#CA4D2E"/>
</linearGradient>
<clipPath id="clip0">
<rect width="50" height="34" fill="white"/>
</clipPath>
</defs>
</svg>
