<svg width="64" height="117" viewBox="0 0 64 117" fill="none" xmlns="http://www.w3.org/2000/svg">
<g opacity="0.3">
<g clip-path="url(#clip0)">
<path d="M53.6325 78.4826C54.0712 78.362 55.9453 77.8795 59.4942 77.1156C59.0955 78.7641 58.2581 80.2115 57.1416 81.4177L52.1173 82.0208C52.1173 82.0208 54.2705 82.5032 55.706 82.7847C51.559 86.3228 45.6973 88.0115 45.6973 88.0115C45.6973 88.0115 47.731 89.4589 55.2674 88.5744C51.7584 92.4744 34.5322 97.3795 34.5322 97.3795C34.5322 97.3795 33.4157 93.8414 27.2749 82.5837C48.05 84.1115 59.4942 46.5589 58.6169 39.0806C64.1995 47.9661 58.2182 59.9878 58.2182 59.9878C58.2182 59.9878 61.3684 59.6661 63.8406 56.0476C64.9173 64.5311 57.9789 71.0847 57.2612 71.728C57.5802 71.6476 59.7733 70.9641 62.2057 69.0744C61.7272 71.8084 54.5098 77.7187 53.6325 78.4826Z" fill="url(#paint0_linear)"/>
<path d="M57.6201 92.5951C57.6201 90.5446 53.3933 82.2621 50.6419 82.825C45.0594 83.9508 33.655 114.306 33.655 114.306C33.655 114.306 42.5074 116.598 43.3846 116.598C44.222 116.598 46.0164 116.196 46.136 116.035C46.3753 115.07 45.6176 114.95 45.2189 114.749C44.7005 114.467 42.5871 115.111 42.5871 115.111C42.5871 115.111 36.8849 113.784 37.4033 112.618C39.3971 108.275 57.6201 97.7013 57.6201 92.5951Z" fill="url(#paint1_linear)"/>
<path d="M43.7036 115.271C44.1422 115.191 44.8201 115.07 45.2588 116.558C45.0993 116.558 45.3784 116.96 45.3784 116.96L45.0195 116.638C45.0195 116.638 44.8999 114.95 43.7036 115.271Z" fill="white"/>
<path d="M43.3049 115.714C43.5841 115.714 43.9429 116.397 43.7037 116.799C43.4644 117.201 43.5043 116.799 43.5043 116.799C43.5043 116.799 44.0227 116.317 43.3049 115.714Z" fill="white"/>
<path d="M40.3539 50.5395C54.8287 85.358 36.805 111.211 35.0106 113.06C32.5782 115.553 20.7751 113.342 20.7751 113.342C20.7751 113.342 10.2081 89.0972 7.53647 77.4374C4.86482 65.7776 14.8337 53.7962 26.3576 52.8714C37.8418 51.9467 38.9583 47.2024 40.3539 50.5395Z" fill="url(#paint2_linear)"/>
<path d="M42.4273 56.0877C42.4273 56.5702 36.1668 56.9321 30.5444 58.1785C29.8665 58.3393 29.2285 58.5001 28.6304 58.7011C26.0385 59.4248 23.7656 60.43 22.689 61.797C22.1307 62.4805 20.8547 63.7671 19.2597 65.1743C16.2291 67.8681 12.0821 71.0444 9.84909 71.6475C8.89208 71.8888 8.29395 71.6475 8.29395 70.6826V70.4413C9.56996 55.2836 10.8061 44.3475 11.7631 36.5475C11.9226 35.5424 12.0422 34.5372 12.1619 33.6125C13.717 22.2743 14.674 18.9372 14.674 18.9372L22.689 12.5444H22.8883L32.1793 12.7857L39.4366 18.897C39.4366 18.9372 39.4366 18.9372 39.4366 18.9372C39.5164 19.7815 41.6697 44.7898 42.3874 55.6053C42.3874 55.7661 42.4273 55.9269 42.4273 56.0877Z" fill="url(#paint3_radial)"/>
<path d="M28.2317 18.1332C26.7962 20.224 25.241 24.325 29.1089 26.8178C32.9769 29.3106 39.7956 27.0992 38.1607 24.3652C36.5656 21.792 37.7619 17.7312 33.1364 16.1229C31.3818 15.56 29.2685 16.6054 28.2317 18.1332Z" fill="#B34429"/>
<path d="M22.2903 24.9281C21.9713 26.094 21.094 26.8178 20.3364 26.6167C19.5788 26.4157 19.2199 25.2899 19.5389 24.1239C19.8579 22.958 20.7351 22.2342 21.4928 22.4353C22.2903 22.6765 22.6093 23.8023 22.2903 24.9281Z" fill="#692718"/>
<path d="M30.5444 24.9281C30.8634 26.094 31.7406 26.8178 32.4983 26.6167C33.2559 26.4157 33.6148 25.2899 33.2958 24.1239C32.9768 22.958 32.0995 22.2342 31.3419 22.4353C30.5444 22.6765 30.2254 23.8023 30.5444 24.9281Z" fill="#692718"/>
<path d="M22.0908 37.3517C22.0908 37.3517 22.3301 41.895 24.603 43.5837C25.1612 43.9857 28.3114 43.9053 28.9893 43.6641C30.4646 43.1816 31.3818 37.1105 31.3818 37.1105C31.3818 37.1105 28.3114 35.6228 25.9189 36.2259C23.5263 36.8692 22.0908 37.3517 22.0908 37.3517Z" fill="#692718"/>
<path d="M22.9281 37.0302C22.8085 37.1106 24.0845 38.5179 24.0845 38.5179C24.0845 38.5179 24.2838 38.0354 24.563 37.9148C24.8022 37.7539 28.1518 37.0302 28.7898 37.1911C29.348 37.3519 29.4676 37.9148 29.4676 37.9148L30.3848 36.588C30.3848 36.6282 24.8421 35.5426 22.9281 37.0302Z" fill="white"/>
<path d="M24.8024 42.9806C25.3607 43.3827 26.1981 43.4631 27.1551 43.4631C28.9893 43.4631 29.5875 42.5786 29.3083 42.6188C27.5139 42.9404 24.5233 42.4981 24.8024 42.9806Z" fill="white"/>
<path d="M31.1824 18.6157C32.578 18.4147 34.6914 19.9023 34.5718 20.5456C34.4521 21.2291 28.5506 19.0178 31.1824 18.6157Z" fill="#692718"/>
<path d="M21.333 18.4952C19.9374 18.6158 18.2227 20.5055 18.462 21.1488C18.7411 21.7921 24.0046 18.2941 21.333 18.4952Z" fill="#692718"/>
<path d="M20.2564 31.8437L18.3025 33.9344L20.695 37.9953C20.695 37.9953 27.8726 34.7788 32.1392 37.6334C33.176 36.7489 35.728 33.6128 35.728 33.6128L32.9368 30.6777L34.8508 33.5726L32.1392 37.3118C32.1392 37.3118 28.6701 35.4221 25.7592 35.8241C22.9679 36.2262 21.1735 37.1911 21.1735 37.1911L19.419 33.7334L20.2564 31.8437Z" fill="#692718"/>
<path d="M22.3699 30.8384C22.968 29.5518 26.3175 25.6116 31.302 30.1548C32.1792 30.959 26.9555 34.3363 26.9555 34.3363C26.9555 34.3363 22.3699 32.4466 22.3699 30.8384Z" fill="#692718"/>
<path d="M26.5567 33.13L26.2776 35.9444L27.434 36.065L27.0751 32.929L26.5567 33.13Z" fill="#692718"/>
<path d="M32.1794 12.7858C33.5352 10.9363 42.4274 -0.401847 44.4212 0.36207C45.6573 0.844544 38.9981 20.1837 38.9981 20.1837L32.1794 12.7858Z" fill="url(#paint4_linear)"/>
<path d="M33.8141 13.1476C32.897 12.3435 42.7063 1.97027 43.3045 2.09089C43.9026 2.21151 40.7923 11.3785 40.7923 11.3785L42.188 10.5744C42.188 10.5744 39.5961 17.4899 39.2372 17.4899C38.8384 17.4899 34.0933 13.429 33.8141 13.1476Z" fill="#B34429"/>
<path d="M23.2072 13.027C21.9312 11.0971 13.5973 -0.643103 11.5636 0.0404024C10.2876 0.442464 14.8733 19.8621 14.8733 19.8621L23.2072 13.027Z" fill="url(#paint5_linear)"/>
<path d="M21.5724 13.3485C22.5294 12.5846 13.1985 1.76915 12.6403 1.84957C12.0421 1.97019 14.7138 11.2578 14.7138 11.2578L13.358 10.3733C13.358 10.3733 15.6309 17.4094 15.9898 17.4094C16.3487 17.4496 21.2932 13.5898 21.5724 13.3485Z" fill="#B34429"/>
<path d="M24.603 44.6291C24.7227 44.8301 25.1613 45.594 25.3607 45.6744C25.56 45.7548 29.1089 45.8353 29.3482 45.6744C29.5874 45.5136 29.9862 44.2672 30.066 44.1868C30.1058 44.1064 29.4279 44.9909 28.8697 44.9507C28.3114 44.9105 25.4803 45.1518 25.4005 44.9507C25.2809 44.7899 24.3239 44.227 24.603 44.6291Z" fill="#B34429"/>
<path d="M21.8917 112.899C22.2107 112.457 22.3702 111.774 22.1309 110.969C16.349 91.5096 6.42 82.7849 4.18698 82.8251C3.58885 82.8251 0.478571 88.6952 0.0798171 90.8663C-1.3557 99.1488 16.7876 108.758 18.7814 111.693C19.2998 112.859 13.5976 114.186 13.5976 114.186C13.5976 114.186 11.6437 113.1 11.1253 113.382C10.7664 113.583 9.80941 114.387 10.0487 115.111C10.1683 115.271 11.9627 115.674 12.8001 115.674C13.6374 115.674 22.5297 113.382 22.5297 113.382C22.5297 113.382 22.2505 113.181 21.8917 112.899Z" fill="url(#paint6_linear)"/>
<path d="M20.7352 77.196C22.3302 80.4929 19.1402 108.557 23.6062 113.904C22.0909 114.105 21.413 114.226 21.413 114.226C21.413 114.226 10.6068 86.8455 9.29093 83.3074C8.01492 79.7692 15.352 66.0187 20.7352 77.196Z" fill="url(#paint7_linear)"/>
<path d="M31.2625 77.8393C32.7378 82.5435 34.2531 111.653 31.5017 114.146C34.6917 114.99 33.2562 114.186 33.2562 114.186C33.2562 114.186 44.1422 92.595 40.5534 78.362C37.7621 67.2249 31.2625 77.8393 31.2625 77.8393Z" fill="url(#paint8_linear)"/>
<path d="M12.4812 114.306C12.0425 114.226 11.3647 114.105 10.926 115.593C11.0855 115.593 10.8064 115.995 10.8064 115.995L11.1653 115.673C11.1653 115.633 11.2849 113.985 12.4812 114.306Z" fill="white"/>
<path d="M12.8798 114.749C12.6006 114.749 12.2417 115.432 12.481 115.834C12.7202 116.236 12.6804 115.834 12.6804 115.834C12.6804 115.834 12.162 115.352 12.8798 114.749Z" fill="white"/>
<path d="M20.6556 114.507C20.6157 114.146 21.0543 112.899 21.7322 113.542C22.4101 114.146 22.0113 114.507 22.0113 114.507H21.6126H20.6556Z" fill="#CA4D2E"/>
<path d="M22.41 112.899C23.1676 112.899 23.4069 114.467 23.4069 114.467H21.772C21.7321 114.507 21.3733 112.899 22.41 112.899Z" fill="#CA4D2E"/>
<path d="M24.4436 114.507C24.4835 114.387 23.7658 112.577 23.2873 112.98C22.8088 113.382 22.729 114.507 22.729 114.507H24.4436Z" fill="#CA4D2E"/>
<path d="M24.0849 113.904C24.4836 113.502 24.8425 114.467 24.8425 114.467H24.0051L24.0849 113.904Z" fill="#CA4D2E"/>
<path d="M21.7721 113.824C21.7721 113.824 21.6126 114.548 21.8518 114.709C22.0911 114.869 22.0113 114.668 22.0113 114.668C22.0113 114.668 21.7322 114.427 21.7721 113.824Z" fill="white"/>
<path d="M23.0081 113.824C23.0081 113.824 22.9683 114.588 23.1676 114.668C23.3271 114.709 23.367 114.668 23.367 114.668C23.367 114.668 23.048 114.226 23.0081 113.824Z" fill="white"/>
<path d="M34.3727 114.628C34.4125 114.266 33.9739 113.02 33.296 113.663C32.6181 114.306 33.0169 114.628 33.0169 114.628H33.4157H34.3727Z" fill="#CA4D2E"/>
<path d="M32.618 113.06C31.8603 113.06 31.6211 114.628 31.6211 114.628H33.256C33.256 114.628 33.6149 113.06 32.618 113.06Z" fill="#CA4D2E"/>
<path d="M30.5446 114.628C30.5047 114.507 31.2224 112.698 31.701 113.1C32.1795 113.502 32.2592 114.628 32.2592 114.628H30.5446Z" fill="#CA4D2E"/>
<path d="M30.9036 114.065C30.5049 113.663 30.146 114.628 30.146 114.628H30.9834L30.9036 114.065Z" fill="#CA4D2E"/>
<path d="M33.2164 113.945C33.2164 113.945 33.3759 114.668 33.1366 114.829C32.8974 114.99 32.9771 114.789 32.9771 114.789C32.9771 114.789 33.2563 114.548 33.2164 113.945Z" fill="white"/>
<path d="M32.02 113.945C32.02 113.945 32.0599 114.709 31.8605 114.789C31.701 114.829 31.6611 114.789 31.6611 114.789C31.6611 114.789 31.9403 114.347 32.02 113.945Z" fill="white"/>
</g>
<path d="M40.1251 77.1039C40.1251 77.1039 47.6573 75.5088 44.7899 62.3343C44.7899 62.3343 42.3801 53.4167 37.9826 45.4444C35.7363 41.6409 33.217 36.0406 27.6716 38.2993C24.6584 39.5265 23.1196 42.8859 24.1585 45.9692C24.9881 48.4316 25.0166 48.5803 25.8463 51.0426C27.2663 55.2574 28.3688 59.8462 28.6959 64.3117C28.6959 64.3117 29.6086 79.6567 40.1251 77.1039Z" fill="#C7A571"/>
<path d="M27.6714 38.2992C30.1783 37.2782 32.0672 37.8634 33.5919 39.1626C32.4354 38.7472 31.0957 38.7493 29.5072 39.396C26.4936 40.6237 24.9553 43.9833 25.9939 47.066C26.8238 49.5287 26.8521 49.6777 27.6818 52.1396C29.1019 56.3543 30.2045 60.9432 30.5314 65.4086C30.5314 65.4086 31.0073 73.4164 35.2369 76.9001C29.3029 74.5238 28.6956 64.3119 28.6956 64.3119C28.3687 59.8465 27.2661 55.2576 25.846 51.0429C25.0162 48.5802 24.9878 48.4312 24.1581 45.9693C23.1194 42.8857 24.6585 39.526 27.6714 38.2992Z" fill="#DFBB85"/>
<path d="M27.5333 56.9338C35.9028 57.5514 39.3985 53.9553 40.8308 51.2805C43.4095 57.2239 44.7901 62.3339 44.7901 62.3339C47.6568 75.5089 40.1254 77.1039 40.1254 77.1039C29.6082 79.6568 28.6955 64.3118 28.6955 64.3118C28.5165 61.8619 28.1029 59.3754 27.5333 56.9338Z" fill="#A27126"/>
<path d="M28.6956 64.3122C28.5162 61.8619 28.1029 59.3754 27.5332 56.9337C35.9031 57.5519 39.3983 53.9553 40.8308 51.2809C41.6201 53.0997 42.607 55.8702 43.1669 57.41C41.3424 58.8853 39.0715 60.008 34.9133 61.1599C33.1399 61.6512 31.7621 63.0168 31.8077 64.8564C31.8291 65.7204 31.8289 66.6084 31.9067 67.6712C31.9067 67.6712 32.2054 72.6924 34.4311 76.512C29.2465 73.5823 28.6956 64.3122 28.6956 64.3122Z" fill="#7A5414"/>
<path d="M37.5834 52.8319C36.7791 50.0254 35.4479 47.5933 34.0498 45.0614C33.0056 43.1705 31.2587 40.7849 28.7971 41.8641C27.2649 42.5359 26.5195 44.2837 27.0954 45.8545C27.5928 47.2111 28.036 48.5867 28.5253 49.9464C29.6135 52.9706 30.2158 57.661 34.6632 57.5166C36.9248 57.4432 38.1454 54.7929 37.5834 52.8319Z" fill="#F4C47A"/>
<path d="M30.0147 60.6893C31.4951 60.7186 32.7873 59.868 33.3943 58.6182C33.8515 58.8361 34.361 58.9634 34.9004 58.9741C36.3153 59.0021 37.5585 58.2262 38.1955 57.0662C38.4792 57.1428 38.7765 57.187 39.0837 57.1931C41.1129 57.2332 42.7905 55.6208 42.8307 53.5915C42.8708 51.5623 41.2584 49.8847 39.2292 49.8445C37.8143 49.8165 36.5711 50.5924 35.9341 51.7523C35.6504 51.6757 35.353 51.6316 35.0459 51.6255C33.5657 51.5961 32.2733 52.4467 31.6664 53.6965C31.2091 53.4786 30.6997 53.3513 30.1603 53.3406C28.131 53.3005 26.4535 54.913 26.4132 56.9422C26.373 58.9715 27.9855 60.649 30.0147 60.6893Z" fill="#694207"/>
<path d="M12.0362 74.716C12.0362 74.716 4.84078 71.9768 9.70842 59.4032C9.70842 59.4032 13.4665 50.9648 19.0425 43.7672C21.8492 40.3563 25.2032 35.2123 30.3333 38.3003C33.1208 39.9782 34.1223 43.5349 32.6197 46.4208C31.4197 48.7255 31.3686 48.868 30.1686 51.1726C28.1147 55.1176 26.3167 59.481 25.3039 63.8424C25.3039 63.8424 22.0323 78.8624 12.0362 74.716Z" fill="#C7A571"/>
<path d="M9.7083 59.4032C9.7083 59.4032 13.4668 50.9651 19.0428 43.767C21.7598 40.465 24.9907 35.5373 29.85 38.0317C25.811 37.1304 22.9752 41.3749 20.5486 44.3238C14.9726 51.5219 11.2141 59.9601 11.2141 59.9601C10.3131 62.2876 9.82504 64.2784 9.62933 65.9772C9.0008 68.8343 9.12086 71.0046 9.5802 72.6381C8.08084 70.5492 6.93107 66.5773 9.7083 59.4032Z" fill="#DFBB85"/>
<path d="M18.2963 51.1278C19.5245 48.4792 21.2153 46.2819 22.9877 43.9963C24.3113 42.2894 26.4057 40.2022 28.6711 41.6486C30.0812 42.549 30.5477 44.3909 29.7361 45.8539C29.0352 47.1174 28.3848 48.408 27.6914 49.6759C26.1492 52.4957 24.185 58.7801 19.8133 57.9506C18.325 57.6682 17.3318 56.2011 17.3716 54.7589C17.407 53.4764 17.7668 52.2699 18.2963 51.1278Z" fill="#F4C47A"/>
<path d="M27.5921 56.7322C19.2276 56.0498 16.3293 51.957 15.3273 49.0931C11.8616 54.5669 9.70841 59.4024 9.70841 59.4024C4.84134 71.9766 12.0361 74.7155 12.0361 74.7155C22.0329 78.862 25.3045 63.8422 25.3045 63.8422C25.8597 61.4493 26.6523 59.0565 27.5921 56.7322Z" fill="#A27126"/>
<path d="M9.70876 59.4022C9.70876 59.4022 11.8614 54.5668 15.3273 49.0934C16.3295 51.957 19.2274 56.0502 27.5923 56.7321C26.7567 58.7979 26.0383 60.9176 25.4991 63.0442C22.3697 62.3483 19.4111 60.9393 16.6427 59.1074C15.4967 58.3491 14.0286 57.2451 13.0059 58.6825C11.6836 60.5405 10.7447 63.0059 10.1275 65.1875C9.53036 67.2961 9.13467 70.1451 9.59501 72.6571C8.08823 70.5743 6.92299 66.5993 9.70876 59.4022Z" fill="#7A5414"/>
<path d="M24.5603 60.0595C23.0933 59.8599 21.9479 58.8199 21.5412 57.4914C21.0558 57.636 20.5328 57.6832 19.9982 57.6104C18.596 57.4196 17.4875 56.461 17.0372 55.2165C16.7451 55.2484 16.4446 55.2461 16.1402 55.2047C14.1291 54.931 12.7206 53.0788 12.9943 51.0677C13.2681 49.0566 15.1203 47.6482 17.1313 47.9218C18.5335 48.1126 19.642 49.0712 20.0923 50.3157C20.3844 50.2838 20.6849 50.2861 20.9893 50.3275C22.4563 50.5271 23.6018 51.5671 24.0085 52.8956C24.4939 52.7509 25.0169 52.7038 25.5515 52.7766C27.5626 53.0503 28.971 54.9025 28.6973 56.9137C28.4237 58.9248 26.5715 60.3332 24.5603 60.0595Z" fill="#694207"/>
</g>
<defs>
<linearGradient id="paint0_linear" x1="32.3013" y1="87.1714" x2="64.6759" y2="57.0809" gradientUnits="userSpaceOnUse">
<stop stop-color="#85321E"/>
<stop offset="1" stop-color="#CA4D2E"/>
</linearGradient>
<linearGradient id="paint1_linear" x1="36.4002" y1="118.901" x2="56.0329" y2="84.677" gradientUnits="userSpaceOnUse">
<stop stop-color="#85321E"/>
<stop offset="0.1707" stop-color="#89341F"/>
<stop offset="0.351" stop-color="#963922"/>
<stop offset="0.5359" stop-color="#AB4127"/>
<stop offset="0.7227" stop-color="#C84C2E"/>
<stop offset="0.7315" stop-color="#CA4D2E"/>
</linearGradient>
<linearGradient id="paint2_linear" x1="27.3596" y1="110.528" x2="25.8148" y2="47.8645" gradientUnits="userSpaceOnUse">
<stop stop-color="#85321E"/>
<stop offset="0.1741" stop-color="#9F3C24"/>
<stop offset="0.3789" stop-color="#B7452A"/>
<stop offset="0.5698" stop-color="#C54B2D"/>
<stop offset="0.7315" stop-color="#CA4D2E"/>
</linearGradient>
<radialGradient id="paint3_radial" cx="0" cy="0" r="1" gradientUnits="userSpaceOnUse" gradientTransform="translate(26.736 29.3723) scale(24.6089 24.813)">
<stop stop-color="#FFBB45"/>
<stop offset="0.1539" stop-color="#EC943D"/>
<stop offset="0.3086" stop-color="#DD7536"/>
<stop offset="0.4594" stop-color="#D35F32"/>
<stop offset="0.6029" stop-color="#CC522F"/>
<stop offset="0.7313" stop-color="#CA4D2E"/>
</radialGradient>
<linearGradient id="paint4_linear" x1="44.9183" y1="2.92919" x2="34.9582" y2="17.1818" gradientUnits="userSpaceOnUse">
<stop stop-color="#85321E"/>
<stop offset="0.0659692" stop-color="#8E3620"/>
<stop offset="0.2861" stop-color="#A84026"/>
<stop offset="0.5123" stop-color="#BB472B"/>
<stop offset="0.7463" stop-color="#C64C2D"/>
<stop offset="1" stop-color="#CA4D2E"/>
</linearGradient>
<linearGradient id="paint5_linear" x1="12.4617" y1="0.684982" x2="21.2351" y2="21.3581" gradientUnits="userSpaceOnUse">
<stop stop-color="#85321E"/>
<stop offset="0.0659692" stop-color="#8E3620"/>
<stop offset="0.2861" stop-color="#A84026"/>
<stop offset="0.5123" stop-color="#BB472B"/>
<stop offset="0.7463" stop-color="#C64C2D"/>
<stop offset="1" stop-color="#CA4D2E"/>
</linearGradient>
<linearGradient id="paint6_linear" x1="17.6323" y1="113.866" x2="0.763205" y2="84.054" gradientUnits="userSpaceOnUse">
<stop stop-color="#85321E"/>
<stop offset="0.2721" stop-color="#A43E25"/>
<stop offset="0.5619" stop-color="#C0492C"/>
<stop offset="0.7315" stop-color="#CA4D2E"/>
</linearGradient>
<linearGradient id="paint7_linear" x1="16.3974" y1="115.673" x2="16.3974" y2="99.1677" gradientUnits="userSpaceOnUse">
<stop stop-color="#85321E"/>
<stop offset="0.1741" stop-color="#9F3C24"/>
<stop offset="0.3789" stop-color="#B7452A"/>
<stop offset="0.5698" stop-color="#C54B2D"/>
<stop offset="0.7315" stop-color="#CA4D2E"/>
</linearGradient>
<linearGradient id="paint8_linear" x1="36.2616" y1="114.321" x2="36.2616" y2="106.232" gradientUnits="userSpaceOnUse">
<stop stop-color="#85321E"/>
<stop offset="0.1741" stop-color="#9F3C24"/>
<stop offset="0.3789" stop-color="#B7452A"/>
<stop offset="0.5698" stop-color="#C54B2D"/>
<stop offset="0.7315" stop-color="#CA4D2E"/>
</linearGradient>
<clipPath id="clip0">
<rect width="64" height="117" fill="white"/>
</clipPath>
</defs>
</svg>
