<svg width="38" height="48" viewBox="0 0 38 48" fill="none" xmlns="http://www.w3.org/2000/svg">
<path d="M28.7511 36.7273C28.7511 37.0451 24.5796 37.2835 20.8332 38.1046C20.3815 38.2105 19.9564 38.3165 19.5578 38.4489C17.8308 38.9257 16.3163 39.5878 15.5989 40.4884C15.2269 40.9386 14.3767 41.7862 13.3139 42.7133C11.2945 44.4879 8.53124 46.5803 7.04331 46.9776C6.40563 47.1365 6.00708 46.9776 6.00708 46.3419V46.183C6.85732 36.1975 7.681 28.9932 8.31868 23.8548C8.42496 23.1926 8.50467 22.5304 8.58438 21.9212C9.62061 14.452 10.2583 12.2536 10.2583 12.2536L15.5989 8.04224H15.7317L21.9226 8.22764L26.7583 12.2536C26.7583 12.2801 26.7583 12.2801 26.7583 12.2801C26.8115 12.8363 28.2462 29.311 28.7245 36.4359C28.7245 36.5154 28.7511 36.6478 28.7511 36.7273Z" fill="url(#paint0_radial)"/>
<path d="M22.0553 25.0201C21.7099 25.3644 20.9659 26.3444 20.6205 26.4504C20.4345 26.5299 19.4248 25.5763 17.9901 25.0731C17.4055 24.8612 16.9538 24.5963 16.1302 24.6493C15.891 24.6758 15.6253 24.7023 15.3596 24.7288C16.5553 24.1461 16.6616 23.9607 16.9804 23.9342C17.8838 23.8547 18.8137 23.9606 19.6108 24.1461C19.6374 24.1461 19.664 24.1725 19.6905 24.1725C20.1688 24.2785 20.5939 24.4109 20.9393 24.5434C21.577 24.7552 22.0021 24.9671 22.0553 25.0201Z" fill="#692718"/>
<path d="M19.2655 11.9622C18.309 13.3395 17.2727 16.0411 19.85 17.6833C22.4273 19.3255 26.9708 17.8687 25.8815 16.0676C24.8187 14.3725 25.6158 11.6973 22.5336 10.6379C21.3911 10.2671 19.9829 10.9557 19.2655 11.9622Z" fill="#B34429"/>
<path d="M19.6108 15.9881C19.6108 16.1735 20.6205 16.4384 21.7896 16.2795C23.4901 16.0411 23.065 14.4254 22.8258 14.5314C21.9756 15.3789 19.6108 15.9881 19.6108 15.9881Z" fill="#692718"/>
<path d="M15.3332 10.7703C14.4299 10.4524 12.8888 11.1411 12.8888 11.5914C12.8622 12.0416 17.0072 11.353 15.3332 10.7703Z" fill="#692718"/>
<path d="M21.0457 24.3579L20.9394 24.5433L20.5409 25.232C20.5409 25.232 20.2752 24.7022 20.1423 24.6493C19.9298 24.5698 16.21 24.4639 16.21 24.4639C16.9539 23.8811 18.4684 24.0666 19.6375 24.1725C19.6641 24.1725 19.6906 24.199 19.7172 24.199C20.4612 24.2255 21.0457 24.3579 21.0457 24.3579Z" fill="white"/>
<path d="M13.9516 20.9942L12.6497 22.3715L14.2439 25.0466C14.2439 25.0466 18.9999 23.2985 21.8429 25.1791C22.5337 24.5964 24.2608 22.1596 24.2608 22.1596L22.4009 20.2261L23.6762 22.1331L21.8695 24.5964C21.8695 24.5964 19.5579 23.3515 17.6183 23.6164C15.7584 23.8812 14.5627 24.5169 14.5627 24.5169L13.3936 22.2391L13.9516 20.9942Z" fill="#692718"/>
<path d="M15.3596 20.332C15.7582 19.4844 17.9901 16.8887 21.3113 19.8817C21.8959 20.4115 18.4152 22.6364 18.4152 22.6364C18.4152 22.6364 15.3862 21.3915 15.3596 20.332Z" fill="#692718"/>
<path d="M18.1497 21.8417L17.9902 23.6957L18.7609 23.7752L18.5217 21.7092L18.1497 21.8417Z" fill="#692718"/>
<path d="M21.9226 8.43962C22.826 7.22124 28.7511 -0.247997 30.0796 0.255249C30.9033 0.573089 26.4661 13.3132 26.4661 13.3132L21.9226 8.43962Z" fill="url(#paint1_linear)"/>
<path d="M22.9854 8.67782C22.3742 8.14809 28.9105 1.31454 29.309 1.394C29.7076 1.47346 27.6351 7.51241 27.6351 7.51241L28.5651 6.98268C28.5651 6.98268 26.838 11.5384 26.5989 11.5384C26.3332 11.5384 23.1714 8.86323 22.9854 8.67782Z" fill="#B34429"/>
<path d="M15.9445 8.59845C15.0943 7.32709 9.54112 -0.40701 8.18605 0.0167767C7.33581 0.281643 10.3914 13.0747 10.3914 13.0747L15.9445 8.59845Z" fill="url(#paint2_linear)"/>
<path d="M14.8549 8.81034C15.4925 8.30709 9.27515 1.18218 8.90317 1.23516C8.50461 1.31462 10.2582 7.43303 10.2582 7.43303L9.35486 6.85033C9.35486 6.85033 10.8694 11.4855 11.1085 11.4855C11.3742 11.512 14.6423 8.96926 14.8549 8.81034Z" fill="#B34429"/>
<path d="M19.6641 13.6839C20.0626 12.8363 21.6303 12.1741 21.9491 12.492C22.2945 12.8098 18.9467 15.2996 19.6641 13.6839Z" fill="#692718"/>
<path d="M16.582 15.9088C16.582 16.0942 15.5724 16.359 14.4033 16.2001C12.7028 15.9617 13.1279 14.3461 13.367 14.452C14.2439 15.2996 16.582 15.9088 16.582 15.9088Z" fill="#692718"/>
<path d="M16.5287 13.6043C16.1301 12.7567 14.5625 12.0945 14.2437 12.4124C13.8982 12.7302 17.2726 15.22 16.5287 13.6043Z" fill="#692718"/>
<path d="M5.58202 19.1667C4.99748 18.2397 4.01439 17.1008 3.58926 17.3656C3.16414 17.604 3.3767 18.0013 3.32356 18.1602C3.27042 18.3191 4.49265 19.4051 4.73178 19.5905C4.97091 19.7759 5.58202 19.1667 5.58202 19.1667Z" fill="#B34429"/>
<path d="M2.47323 23.6694C1.49014 23.7224 0.586754 23.8548 0.241343 24.0402C-0.104068 24.2257 -0.130638 25.3911 0.507044 25.1792C1.14473 24.9673 2.71236 24.4905 2.71236 24.4905C2.71236 24.4905 2.81864 23.6694 2.47323 23.6694Z" fill="#B34429"/>
<path d="M2.28751 31.0856C2.84548 30.6353 4.01456 29.9996 4.09427 29.9467C4.17398 29.8937 4.59911 29.8142 4.43969 30.238C4.25369 30.6618 3.2706 32.1186 2.81891 32.0656C2.36722 31.9596 1.80925 31.4829 2.28751 31.0856Z" fill="#B34429"/>
<path d="M31.8863 18.8223C32.1786 18.2926 32.6569 17.5774 32.9492 17.6834C33.2681 17.8158 33.6136 18.0542 33.5073 18.2396C33.3744 18.425 32.6835 19.2196 32.3646 19.2726C32.0458 19.3256 31.7003 19.1666 31.8863 18.8223Z" fill="#B34429"/>
<path d="M35.4998 23.272C36.4563 22.6893 37.5191 22.2655 37.6785 22.5039C37.8379 22.7423 38.0239 22.9807 37.9973 23.3515C37.9708 23.7223 35.8717 23.9607 35.7123 23.8283C35.5263 23.6693 35.4998 23.272 35.4998 23.272Z" fill="#B34429"/>
<path d="M32.6038 27.8807C32.9227 27.8542 34.4372 27.9337 34.7029 28.4105C34.8623 28.7018 34.3575 29.8143 33.8261 29.4699C33.2946 29.1256 32.5507 28.8342 32.4178 28.4105C32.2584 27.9867 32.2584 27.9072 32.6038 27.8807Z" fill="#B34429"/>
<path d="M17.8041 24.6229C17.5916 24.5699 19.85 24.8612 19.9563 24.9142C20.0892 24.9407 20.3017 25.391 20.3017 25.391L20.2486 25.8148C20.2486 25.7883 18.5481 24.7553 17.8041 24.6229Z" fill="white"/>
<path d="M15.2268 25.9736C15.7051 25.8412 18.8935 26.053 19.5312 26.7417C19.106 27.086 19.0795 27.4304 19.0795 27.4304C19.0795 27.4304 17.193 26.0266 15.2268 25.9736Z" fill="#B34429"/>
<defs>
<radialGradient id="paint0_radial" cx="0" cy="0" r="1" gradientUnits="userSpaceOnUse" gradientTransform="translate(18.2845 19.1378) scale(16.3976 16.3461)">
<stop stop-color="#FFBB45"/>
<stop offset="0.1539" stop-color="#EC943D"/>
<stop offset="0.3086" stop-color="#DD7536"/>
<stop offset="0.4594" stop-color="#D35F32"/>
<stop offset="0.6029" stop-color="#CC522F"/>
<stop offset="0.7313" stop-color="#CA4D2E"/>
</radialGradient>
<linearGradient id="paint1_linear" x1="30.3998" y1="1.94638" x2="23.8644" y2="11.4056" gradientUnits="userSpaceOnUse">
<stop stop-color="#85321E"/>
<stop offset="0.0659692" stop-color="#8E3620"/>
<stop offset="0.2861" stop-color="#A84026"/>
<stop offset="0.5123" stop-color="#BB472B"/>
<stop offset="0.7463" stop-color="#C64C2D"/>
<stop offset="1" stop-color="#CA4D2E"/>
</linearGradient>
<linearGradient id="paint2_linear" x1="8.77336" y1="0.467901" x2="14.5072" y2="14.1338" gradientUnits="userSpaceOnUse">
<stop stop-color="#85321E"/>
<stop offset="0.0659692" stop-color="#8E3620"/>
<stop offset="0.2861" stop-color="#A84026"/>
<stop offset="0.5123" stop-color="#BB472B"/>
<stop offset="0.7463" stop-color="#C64C2D"/>
<stop offset="1" stop-color="#CA4D2E"/>
</linearGradient>
</defs>
</svg>
