<svg width="50" height="33" viewBox="0 0 50 33" fill="none" xmlns="http://www.w3.org/2000/svg">
<g clip-path="url(#clip0)">
<path d="M39.1627 32.5878C39.741 32.4847 40.2817 32.3687 40.7594 32.2527H40.772C41.2246 32.2914 42.1926 32.3558 42.7584 32.1497C42.3938 32.2012 41.6269 32.1883 41.1491 32.1625C41.2623 32.1368 41.3754 32.111 41.4886 32.0723C42.2052 32.0852 43.651 31.9048 44.1916 31.6342C43.739 31.7116 43.1481 31.4023 42.6955 31.3636C43.7139 31.0415 46.2786 30.7065 45.9643 29.0571C45.6626 29.5339 43.8396 29.8045 43.8396 29.8045C43.8396 29.8045 45.0088 28.9669 44.3425 28.0005C44.3425 27.9361 44.3425 27.9876 44.3425 27.9876C44.3802 27.6268 44.3676 27.1629 44.1288 26.8021L43.9653 27.5882C43.6385 27.3176 43.1481 27.047 42.4315 26.7893C42.2681 27.6268 43.1104 28.9669 43.1104 28.9669C43.1104 28.9669 39.0873 28.2453 38.1946 26.596C37.1386 24.6374 39.7159 23.0396 39.7159 23.0396C43.6007 25.7842 49.032 25.3074 49.9372 28.8381C50.855 32.3816 42.2178 33.7604 39.1627 32.5878Z" fill="url(#paint0_linear)"/>
<path d="M10.196 6.12076C10.6361 4.0333 10.5355 1.67523 10.8247 1.6108C11.1138 1.54638 13.3643 4.80643 12.9619 5.97902C12.5596 7.15161 12.0065 7.25469 11.4281 6.94544C10.8498 6.63619 10.196 6.12076 10.196 6.12076Z" fill="url(#paint1_linear)"/>
<path d="M14.8479 25.9646C13.6283 26.7507 12.5974 26.7764 12.2202 25.3848C12.1951 25.3075 12.1825 25.2559 12.17 25.1786C11.8179 23.5035 11.7928 21.9057 11.7676 20.3852C11.7676 20.3723 11.7802 20.3594 11.7802 20.3465C11.7676 19.8955 11.7676 19.4445 11.7425 18.9935C11.6922 17.6792 11.5539 16.4164 11.0887 15.2309C11.0887 15.2181 11.0762 15.2052 11.0762 15.2052C11.0133 15.0377 10.9379 14.8701 10.8624 14.7026C10.8247 14.6124 10.7744 14.5093 10.7116 14.4191C10.6236 14.2387 10.523 14.0455 10.4098 13.8651C9.59264 12.4348 8.41084 10.8756 8.1594 10.2184C8.10911 10.1025 8.08396 10.0123 8.10911 9.96073C8.28512 9.5484 9.59264 6.15949 9.98238 5.82446C10.3595 5.48944 12.698 5.45078 13.6786 5.27038C14.4078 5.14152 17.3875 9.90919 19.3739 13.195C19.3865 13.2079 19.399 13.2208 19.4116 13.2466C19.8893 14.0455 20.3042 14.7542 20.6185 15.2696C20.6185 15.2825 20.6185 15.2825 20.6311 15.2825C20.7568 15.4887 20.8574 15.669 20.9454 15.8108C22.0266 17.589 17.8401 24.0576 14.8479 25.9646Z" fill="url(#paint2_radial)"/>
<path d="M9.96982 7.76994C9.85666 8.0792 9.59265 8.27248 9.39149 8.19517C9.19033 8.11786 9.1149 7.79572 9.22805 7.48646C9.3412 7.17721 9.60522 6.98392 9.80638 7.06124C10.0201 7.13855 10.083 7.44781 9.96982 7.76994Z" fill="#692718"/>
<path d="M10.699 8.60756C10.8121 9.36781 10.4224 10.6435 10.4098 10.6821C10.3972 10.7466 9.47946 11.0816 8.87599 11.481C8.28509 11.8805 4.21167 11.8547 3.90993 11.6099C3.74649 11.481 3.54534 10.8368 3.44476 10.2054C3.35675 9.66418 3.34418 9.13587 3.49505 8.99413C3.59563 8.90393 4.24938 8.77507 5.11687 8.64622C6.48725 8.44005 8.3731 8.23388 9.37888 8.13079C9.75605 8.09214 10.6487 8.20811 10.699 8.60756Z" fill="url(#paint3_radial)"/>
<path d="M12.0568 12.8857C12.0568 12.9115 12.0443 13.865 11.9437 14.6768C11.8305 15.6303 11.5917 16.3777 11.0762 15.2438C11.0762 15.2309 11.0636 15.218 11.0636 15.218C10.8499 14.767 10.5104 14.4191 10.0956 14.1356H10.083C8.57431 13.1177 6.14786 13.0403 5.80841 12.8599C5.36838 12.6409 5.09179 11.8033 4.99121 11.5585L6.46217 10.489L8.12171 10.2442L10.1207 9.9478C10.1584 9.93491 12.0443 12.8084 12.0568 12.8857Z" fill="url(#paint4_radial)"/>
<path d="M40.5205 26.3898C39.4519 27.9618 36.95 28.1036 36.4722 27.9232C35.6425 27.6268 36.1579 28.2711 35.479 28.0907C35.039 27.9747 34.2218 27.9618 33.7818 27.9103C31.6822 27.6397 28.2751 27.1371 22.0015 28.8638C21.6746 28.954 21.3352 29.0442 20.9957 29.1344C19.3613 29.5983 17.9658 29.3406 16.784 29.1086C16.3188 29.0184 15.0113 28.7865 12.9872 27.1371C12.5723 26.8021 12.346 26.3125 12.1197 25.9001C12.1071 25.8872 12.1071 25.8744 12.0946 25.8615C11.5414 24.8951 11.2774 23.9673 11.2271 23.439C11.2145 23.3874 11.2145 23.3359 11.2145 23.2844C11.0888 21.5448 11.4031 20.1145 11.73 19.0063C11.7425 18.9548 11.7551 18.9161 11.7677 18.8775C11.7802 18.8646 11.7802 18.8517 11.7802 18.8388C11.9185 18.4007 12.0443 18.0141 12.1448 17.692C12.9243 14.9989 14.5462 13.8392 16.3063 13.7104C17.0229 13.6588 17.7647 13.7748 18.4687 14.0196C19.4871 14.3933 18.607 12.3831 19.3739 13.2078C19.3865 13.2207 19.3991 13.2336 19.4116 13.2594C19.7008 13.633 21.3855 16.0298 21.4735 16.0942C21.4735 16.1071 21.4735 16.1071 21.4861 16.1071C25.8864 19.947 30.2741 16.1844 36.8243 18.4136C42.8967 20.4753 41.9035 24.3796 40.5205 26.3898Z" fill="#CA4D2E"/>
<path d="M15.1623 22.8591C14.3199 23.8899 13.2639 26.0547 13.2639 26.0547L2.42653 28.2195C2.42653 28.2195 1.99908 28.1035 1.54647 28.1164C1.09387 28.1293 1.09387 28.7993 1.09387 28.7993H1.37046L17.9156 28.1035L17.7899 25.797C19.0974 21.2226 16.1303 21.6865 15.1623 22.8591Z" fill="url(#paint5_linear)"/>
<path d="M1.8984 28.3742C2.06184 28.3871 1.42065 28.2196 1.35779 28.735C1.3075 29.2376 1.48351 28.9541 1.48351 28.9541C1.48351 28.9541 1.42065 28.9283 1.43322 28.7608C1.47094 28.5933 1.63438 28.3485 1.8984 28.3742Z" fill="white"/>
<path d="M13.1129 5.72131C13.2638 5.18012 15.0239 -0.128746 15.7657 0.000110092C16.5074 0.128966 17.1235 10.0509 15.5771 10.9142C14.0433 11.7775 13.1129 5.72131 13.1129 5.72131Z" fill="url(#paint6_radial)"/>
<path d="M10.6487 6.80373C10.3093 7.53821 10.0327 8.91697 11.3653 9.49682C12.698 10.0896 14.7096 9.02005 14.0558 8.24692C13.4272 7.52532 13.5906 6.15945 12.0694 5.90174C11.5036 5.82442 10.9002 6.27542 10.6487 6.80373Z" fill="#B34429"/>
<path d="M34.9887 27.2531C34.775 27.2274 35.391 27.949 35.127 27.9361C34.687 27.8201 34.8253 28.851 34.3852 28.7994C32.2857 28.5288 28.5768 29.3664 22.0392 29.1216C21.6998 29.1087 21.3352 29.0571 20.9957 29.1473C19.3613 29.6112 17.5006 29.2246 16.3314 28.9798C16.5954 27.3949 17.4378 25.4363 17.4378 25.4363C21.5489 29.6241 32.8263 26.2738 35.479 28.0907C35.7305 28.2711 34.7498 27.0856 34.9887 27.2531Z" fill="#B34429"/>
<path d="M12.1826 7.61551C12.1449 8.01497 11.906 8.32422 11.642 8.28557C11.378 8.2598 11.1894 7.91188 11.2271 7.51243C11.2648 7.11298 11.5037 6.80372 11.7677 6.84238C12.0317 6.86815 12.2203 7.21606 12.1826 7.61551Z" fill="#692718"/>
<path d="M1.42067 29.4952H0C0 29.4952 0 28.8252 0.452602 28.8123C0.905205 28.7994 1.33266 28.9154 1.33266 28.9154L1.42067 29.4952Z" fill="#CA4D2E"/>
<path d="M5.11687 8.64624C5.51919 10.1667 3.99794 10.3214 3.44476 10.2183C3.35675 9.67709 3.34418 9.14878 3.49505 9.00704C3.59562 8.90395 4.24938 8.7751 5.11687 8.64624Z" fill="#692718"/>
<path d="M11.6041 5.94035C12.0442 5.85015 12.7231 6.27538 12.6979 6.49443C12.6728 6.71349 10.7744 6.12075 11.6041 5.94035Z" fill="#692718"/>
<path d="M9.55491 6.66203C10.0452 6.64914 10.2715 6.27546 10.171 6.1466C10.0704 6.01775 8.7 6.6878 9.55491 6.66203Z" fill="#692718"/>
<path d="M4.99121 11.7646L8.07142 11.7775L9.17778 11.5971C9.17778 11.5971 9.69325 11.5197 9.78125 11.4295C10.0201 11.1847 9.83154 10.6693 9.52981 10.8368C9.11492 11.0687 9.2155 11.2878 9.2155 11.2878L8.18457 11.6099L4.99121 11.7646Z" fill="#692718"/>
<path d="M13.6032 6.04353C13.729 5.60542 15.1748 0.489837 15.5645 0.580036C15.9543 0.670235 15.9417 4.85805 15.9417 4.85805L16.256 4.56168L15.9417 5.72139C15.9417 5.72139 15.8914 8.15676 15.6651 8.33716C15.4388 8.53045 13.5278 6.3399 13.6032 6.04353Z" fill="#B34429"/>
<path d="M15.4261 28.967C15.3381 28.7222 15.2501 28.4258 15.1621 28.0908C15.4261 28.1166 15.6901 28.1939 15.9667 28.3356C15.7656 28.6707 15.577 28.9542 15.4764 28.9928C15.4638 28.9799 15.4513 28.9799 15.4261 28.967Z" fill="#B34429"/>
<path d="M16.1177 28.4257C16.0674 28.4 16.0171 28.3742 15.9668 28.3355C16.3062 27.7815 16.6708 27.0728 16.6708 27.0728L16.1177 28.4257Z" fill="#B34429"/>
<path d="M16.784 20.0243C14.4582 22.6787 14.8102 24.5986 14.8605 25.9774C14.8605 26.2093 14.8731 26.3897 14.8856 26.5315C14.9108 26.9696 15.0365 27.5623 15.1874 28.1035C14.7473 28.0391 14.3199 28.0778 13.9427 28.0649C13.8924 28.0262 13.8421 27.9876 13.8044 27.9489C13.5027 27.7041 13.2387 27.4335 12.9998 27.15C12.6478 26.7505 12.3586 26.3253 12.1323 25.913C12.1323 25.8743 12.1197 25.8614 12.1071 25.8743C11.554 24.9079 11.29 23.9801 11.2397 23.4518C11.2271 23.4003 11.2271 23.3487 11.2271 23.2972C11.1014 21.5576 11.4157 20.1273 11.7426 19.0192C11.6923 17.7049 11.554 16.4421 11.0888 15.2566C11.0888 15.2437 11.0762 15.2308 11.0762 15.2308C10.8625 14.7798 10.523 14.4319 10.1082 14.1484C10.3093 14.2644 10.5105 14.3675 10.7116 14.4577C11.1265 14.6252 11.5414 14.7154 11.9563 14.6896C12.8489 14.6639 13.729 14.1613 14.5965 13.0145C15.552 11.7517 15.6651 11.2105 16.2057 13.2851C16.2434 13.4268 16.2812 13.5686 16.3189 13.7232C16.9098 15.8107 17.4127 19.3027 16.784 20.0243Z" fill="#B34429"/>
<path d="M19.374 18.6069C18.3808 19.0322 17.5007 19.6249 16.7338 20.3336C15.9669 21.0423 15.376 21.9185 14.9359 22.8592C14.4833 23.7998 14.257 24.8307 14.1062 25.8873C13.9302 26.9439 13.9302 28.0134 13.8673 29.1216C13.6033 28.065 13.4147 26.9439 13.5153 25.8229C13.5781 24.7018 13.8296 23.5808 14.3325 22.5628C14.8228 21.5448 15.5394 20.63 16.4195 19.9599C17.2995 19.277 18.3179 18.8002 19.374 18.6069Z" fill="#B34429"/>
<path d="M20.8197 25.9517L16.6206 29.8045L0.201172 29.4952C0.201172 29.4952 1.14409 29.3535 1.06866 29.0571C1.32011 29.2633 1.33268 28.9154 1.33268 28.9154L12.4969 27.6655C12.4969 27.6655 14.8605 22.5499 15.7028 21.5191C16.6709 20.3465 22.1272 21.3902 20.8197 25.9517Z" fill="#CA4D2E"/>
<path d="M31.2924 18.6971C29.922 19.1352 29.306 18.8388 29.306 21.4675C29.306 23.0524 30.3746 24.1864 34.3726 27.6268C33.5554 28.2711 28.8534 28.9025 27.2567 28.7221C26.8041 28.6705 27.0178 29.3535 27.0178 29.3535C27.0178 29.3535 33.5177 29.3406 35.6047 29.1473C37.9557 28.9154 39.1878 29.2246 39.3764 28.7736C39.7536 27.8716 34.3349 24.1477 40.7342 21.9314C42.1297 21.4546 37.5157 16.6869 31.2924 18.6971Z" fill="#CA4D2E"/>
<path d="M25.6852 29.3278C25.6852 29.0186 25.8863 28.4903 26.2384 28.5547C27.307 28.7609 27.659 28.7609 27.659 28.7609L27.7722 29.3278C27.7722 29.3278 25.6852 29.5082 25.6852 29.3278Z" fill="#CA4D2E"/>
<path d="M26.5275 28.9539C26.4018 28.9667 26.0498 29.0698 26.0623 29.4048C26.2006 29.6368 26.1629 29.4564 26.1629 29.4564C26.1629 29.4564 26.0875 29.1214 26.5275 28.9539Z" fill="white"/>
<path d="M38.6096 23.3745C38.2701 24.0832 38.1193 24.8435 38.2198 25.6037C38.3204 26.364 38.6221 27.0856 39.0119 27.7556C38.5467 27.1371 38.1695 26.4155 38.0564 25.6295C37.9307 24.8435 38.0815 23.9544 38.6096 23.3745Z" fill="#B34429"/>
<path d="M34.3852 27.6268C33.2411 26.7377 32.097 25.8357 31.0661 24.7919C30.5506 24.2765 30.0477 23.7353 29.6203 23.1039C29.4191 22.7818 29.2305 22.4339 29.13 22.0473C29.0294 21.6607 29.042 21.1969 29.218 20.7974L29.2305 20.7845V20.7716C29.5574 20.3335 29.9597 20.0758 30.4123 19.8825C30.8524 19.7021 31.3301 19.6248 31.7953 19.6506C32.2605 19.6635 32.7131 19.7666 33.1405 19.8825C33.568 20.0372 33.9829 20.2176 34.3726 20.4366C34.1589 20.3722 33.9451 20.3206 33.7314 20.2562L33.0902 20.1145C32.6628 20.05 32.2227 19.9856 31.7953 20.0243C31.3678 20.0629 30.9529 20.1274 30.5758 20.3077C30.2112 20.4753 29.8466 20.7459 29.658 21.0551L29.6706 21.0293C29.4065 21.5834 29.6329 22.2921 29.9472 22.9106C30.2615 23.542 30.7141 24.1219 31.1792 24.676C32.1725 25.7326 33.2537 26.7119 34.3852 27.6268Z" fill="#B34429"/>
</g>
<defs>
<linearGradient id="paint0_linear" x1="38.0407" y1="25.6211" x2="48.341" y2="32.554" gradientUnits="userSpaceOnUse">
<stop stop-color="#85321E"/>
<stop offset="1" stop-color="#CA4D2E"/>
</linearGradient>
<linearGradient id="paint1_linear" x1="11.7593" y1="6.34677" x2="10.4007" y2="1.63373" gradientUnits="userSpaceOnUse">
<stop stop-color="#85321E"/>
<stop offset="1" stop-color="#CA4D2E"/>
</linearGradient>
<radialGradient id="paint2_radial" cx="0" cy="0" r="1" gradientUnits="userSpaceOnUse" gradientTransform="translate(-2.02622 1.29371) scale(20.6226 21.1365)">
<stop stop-color="#FFBB45"/>
<stop offset="1" stop-color="#CA4D2E"/>
</radialGradient>
<radialGradient id="paint3_radial" cx="0" cy="0" r="1" gradientUnits="userSpaceOnUse" gradientTransform="translate(-2.19224 4.34882) rotate(-12.2061) scale(19.4378 19.8794)">
<stop stop-color="#FFBB45"/>
<stop offset="1" stop-color="#CA4D2E"/>
</radialGradient>
<radialGradient id="paint4_radial" cx="0" cy="0" r="1" gradientUnits="userSpaceOnUse" gradientTransform="translate(-2.19213 4.34901) rotate(-12.2061) scale(19.4376 19.8792)">
<stop stop-color="#FFBB45"/>
<stop offset="1" stop-color="#CA4D2E"/>
</radialGradient>
<linearGradient id="paint5_linear" x1="12.6811" y1="25.6053" x2="-1.32912" y2="27.119" gradientUnits="userSpaceOnUse">
<stop stop-color="#85321E"/>
<stop offset="1" stop-color="#CA4D2E"/>
</linearGradient>
<radialGradient id="paint6_radial" cx="0" cy="0" r="1" gradientUnits="userSpaceOnUse" gradientTransform="translate(-2.19229 4.3491) rotate(-12.206) scale(19.4379 19.8795)">
<stop stop-color="#FFBB45"/>
<stop offset="1" stop-color="#CA4D2E"/>
</radialGradient>
<clipPath id="clip0">
<rect width="50" height="33" fill="white"/>
</clipPath>
</defs>
</svg>
