<svg width="26" height="41" viewBox="0 0 26 41" fill="none" xmlns="http://www.w3.org/2000/svg">
<g clip-path="url(#clip0)">
<path d="M22.3892 27.6357C22.5426 27.5938 23.1978 27.4264 24.4385 27.1614C24.2991 27.7333 24.0064 28.2355 23.616 28.654L21.8595 28.8633C21.8595 28.8633 22.6123 29.0307 23.1141 29.1284C21.6643 30.356 19.6149 30.9419 19.6149 30.9419C19.6149 30.9419 20.3259 31.4441 22.9608 31.1372C21.734 32.4904 15.7115 34.1923 15.7115 34.1923C15.7115 34.1923 15.3211 32.9647 13.1742 29.0586C20.4375 29.5887 24.4385 16.5591 24.1318 13.9644C26.0836 17.0474 23.9924 21.2185 23.9924 21.2185C23.9924 21.2185 25.0938 21.1069 25.9581 19.8514C26.3345 22.7949 23.9088 25.0688 23.6578 25.292C23.7694 25.2641 24.5361 25.027 25.3865 24.3713C25.2053 25.3199 22.6959 27.3706 22.3892 27.6357Z" fill="url(#paint0_linear)"/>
<path d="M23.7833 32.5462C23.7833 31.8347 22.3056 28.9609 21.3437 29.1562C19.3919 29.5468 15.4048 40.0793 15.4048 40.0793C15.4048 40.0793 18.4997 40.8745 18.8064 40.8745C19.0992 40.8745 19.7265 40.735 19.7683 40.6792C19.852 40.3444 19.5871 40.3025 19.4477 40.2328C19.2664 40.1351 18.5276 40.3583 18.5276 40.3583C18.5276 40.3583 16.534 39.898 16.7152 39.4934C17.4123 37.9728 23.7833 34.3039 23.7833 32.5462Z" fill="url(#paint1_linear)"/>
<path d="M18.918 40.4001C19.0713 40.3722 19.3083 40.3304 19.4617 40.8465C19.4059 40.8465 19.5035 40.986 19.5035 40.986L19.378 40.8744C19.378 40.8744 19.3223 40.2885 18.918 40.4001Z" fill="white"/>
<path d="M18.7645 40.5537C18.8621 40.5537 18.9876 40.7909 18.9039 40.9304C18.8203 41.0699 18.8342 40.9304 18.8342 40.9304C18.8342 40.9304 19.0294 40.763 18.7645 40.5537Z" fill="white"/>
<path d="M8.25305 5.21744C9.20104 3.11095 9.60533 0.585938 9.93992 0.585938C10.2606 0.585938 11.9753 4.54783 11.2783 5.70571C10.5812 6.86358 9.95386 6.83568 9.41016 6.37532C8.85252 5.91496 8.25305 5.21744 8.25305 5.21744Z" fill="url(#paint2_linear)"/>
<path d="M17.733 17.94C22.7936 30.021 16.4923 38.991 15.8649 39.6327C15.0145 40.4976 10.888 39.7304 10.888 39.7304C10.888 39.7304 7.1936 31.3183 6.25956 27.2727C5.32551 23.2271 8.81076 19.0699 12.8397 18.7491C16.8547 18.4282 17.259 16.7821 17.733 17.94Z" fill="url(#paint3_linear)"/>
<path d="M11.2783 39.5772C11.3898 39.4238 11.4455 39.1866 11.3619 38.9076C9.34045 32.1557 5.86914 29.1284 5.08844 29.1424C4.87933 29.1424 3.79193 31.1791 3.65252 31.9324C3.15064 34.8062 9.4938 38.1403 10.1769 39.1587C10.3581 39.5633 8.36458 40.0236 8.36458 40.0236C8.36458 40.0236 7.68147 39.647 7.50024 39.7446C7.37477 39.8144 7.04018 40.0934 7.12383 40.3445C7.16565 40.4003 7.793 40.5398 8.08576 40.5398C8.37852 40.5398 11.4874 39.7446 11.4874 39.7446C11.4874 39.7446 11.4037 39.6749 11.2783 39.5772Z" fill="url(#paint4_linear)"/>
<path d="M16.2273 21.4835C14.875 23.1994 12.8257 25.0408 10.9297 26.2405C10.2048 26.7148 9.49376 27.0775 8.85248 27.3007C7.34685 27.8588 6.23157 27.6356 6.13398 26.0871C6.12004 26.0173 6.12004 25.9476 6.12004 25.8639C6.1061 23.9945 6.44068 22.3065 6.74738 20.6883C6.76132 20.6743 6.76132 20.6604 6.76132 20.6464C6.77527 20.5488 6.80315 20.4511 6.81709 20.3535C7.16561 18.526 7.45838 16.8101 7.16561 15.0803C7.16561 15.0663 7.15167 15.0524 7.15167 15.0524C7.12379 14.8571 7.06803 14.6618 7.0262 14.4804C6.99832 14.3688 6.97044 14.2572 6.92862 14.1456C6.87285 13.9363 6.80315 13.7131 6.7195 13.4899C6.14792 11.788 5.21387 9.86285 5.0884 9.10953C5.06052 8.97003 5.06052 8.87237 5.10234 8.81657C5.38116 8.42596 7.5699 5.13369 8.05784 4.86863C8.54577 4.58962 11.083 5.09184 12.1983 5.13369C13.23 5.16159 16.3527 14.1177 17.4959 17.3123C17.4959 17.3263 17.4959 17.3263 17.5098 17.3263C17.5935 17.5774 17.6771 17.7866 17.7329 17.954C18.0257 18.7353 17.3704 20.0605 16.2273 21.4835Z" fill="url(#paint5_radial)"/>
<path d="M7.63966 6.90552C7.44449 7.21243 7.12384 7.35193 6.91473 7.21243C6.70561 7.07293 6.70561 6.72417 6.90079 6.41726C7.09596 6.11036 7.4166 5.97085 7.62572 6.11036C7.83483 6.24986 7.83483 6.61257 7.63966 6.90552Z" fill="#692718"/>
<path d="M8.23911 7.96576C8.18335 8.78883 7.4863 10.0583 7.45842 10.1002C7.43053 10.156 6.35708 10.3094 5.6182 10.6024C4.87933 10.8814 0.473966 9.9188 0.195145 9.59795C0.0557352 9.43054 -0.0279109 8.69117 -2.88477e-05 8.00761C0.0278532 7.40775 0.12544 6.84973 0.334556 6.73813C0.460025 6.65443 1.21284 6.68233 2.17477 6.73813C3.70828 6.83578 5.79943 7.05899 6.91472 7.17059C7.33295 7.21244 8.28094 7.5333 8.23911 7.96576Z" fill="url(#paint6_radial)"/>
<path d="M8.76891 12.8202C8.75497 12.8481 8.53192 13.8525 8.2531 14.6895C7.91851 15.6661 7.48634 16.4054 7.19358 15.0941C7.19358 15.0801 7.17964 15.0662 7.17964 15.0662C7.05417 14.55 6.76141 14.0897 6.37106 13.6991L6.35712 13.6851C4.94907 12.2622 2.32816 11.6205 2.00752 11.3554C1.58929 11.0206 1.46382 10.072 1.422 9.79297L3.26221 8.9978L5.11637 9.10941L7.36087 9.24891C7.34693 9.24891 8.76891 12.7225 8.76891 12.8202Z" fill="url(#paint7_radial)"/>
<path d="M11.5012 5.46857C11.794 4.92451 14.8749 -0.292915 15.6556 0.0139918C16.4363 0.320899 14.8749 10.9789 13.0208 11.537C11.1666 12.095 11.5012 5.46857 11.5012 5.46857Z" fill="url(#paint8_radial)"/>
<path d="M8.58777 6.05446C8.05801 6.75198 7.4446 8.14701 8.769 9.08168C10.0934 10.0024 12.5052 9.34674 11.9615 8.38417C11.4457 7.46345 11.9197 6.06841 10.3304 5.4546C9.73093 5.20349 8.97812 5.5383 8.58777 6.05446Z" fill="#B34429"/>
<path d="M10.0654 7.25418C9.93993 7.67269 9.60535 7.93775 9.32653 7.8401C9.04771 7.75639 8.92224 7.33788 9.06165 6.93332C9.18712 6.51481 9.5217 6.24976 9.80052 6.34741C10.0793 6.43111 10.1909 6.84962 10.0654 7.25418Z" fill="#692718"/>
<path d="M2.1748 6.73808C2.27239 8.44003 0.585523 8.25867 0 8.00757C0.027882 7.4077 0.125469 6.84969 0.334584 6.73808C0.460054 6.65438 1.21287 6.66833 2.1748 6.73808Z" fill="#692718"/>
<path d="M9.81444 5.34302C10.3163 5.34302 10.9576 5.95683 10.8879 6.18003C10.8043 6.41719 8.88039 5.34302 9.81444 5.34302Z" fill="#692718"/>
<path d="M7.44455 5.64991C7.97431 5.74757 8.3089 5.39881 8.22525 5.24536C8.1416 5.07795 6.49657 5.46856 7.44455 5.64991Z" fill="#692718"/>
<path d="M1.35229 10.0024L4.6842 10.7139L5.92495 10.7837C5.92495 10.7837 6.49653 10.8255 6.622 10.7418C6.94265 10.5326 6.84506 9.94664 6.48259 10.0582C5.98072 10.1977 6.03648 10.4628 6.03648 10.4628L4.85149 10.5744L1.35229 10.0024Z" fill="#692718"/>
<path d="M11.9614 5.929C12.1984 5.49654 14.9029 0.404674 15.3211 0.586028C15.7254 0.767383 14.7635 5.20359 14.7635 5.20359L15.1678 4.96643L14.5683 6.12431C14.5683 6.12431 13.9689 8.69117 13.69 8.83067C13.4112 8.97017 11.808 6.20801 11.9614 5.929Z" fill="#B34429"/>
<path d="M16.2272 21.4835C16.1993 21.609 16.1714 21.7485 16.1156 21.888C14.0803 27.0915 12.2261 27.2031 10.9296 26.2405C10.121 25.6407 9.31243 24.8176 9.08937 24.3433C7.40251 20.8557 6.92852 19.8094 6.83093 20.3674C7.17945 18.54 7.47222 16.8241 7.17945 15.0942C7.17945 15.0803 7.16551 15.0663 7.16551 15.0663C7.04004 14.5502 6.74728 14.0898 6.35693 13.6992C6.55211 13.8666 6.74728 14.02 6.94246 14.1595C7.36069 14.4246 7.79286 14.6199 8.23897 14.7036C9.21484 14.885 10.2744 14.5502 11.4733 13.5318C12.7977 12.4018 13.425 11.2718 13.1602 14.1874C12.965 16.4474 16.7151 19.0143 16.2272 21.4835Z" fill="#B34429"/>
<path d="M10.8741 27.1891C11.4317 28.333 10.3165 38.0703 11.8778 39.9257C11.3481 39.9955 11.1111 40.0373 11.1111 40.0373C11.1111 40.0373 7.33308 30.5372 6.87303 29.3095C6.44086 28.0819 8.99206 23.3248 10.8741 27.1891Z" fill="url(#paint9_linear)"/>
<path d="M14.5544 27.4123C15.0703 29.0445 15.6 39.1445 14.6381 40.0094C15.7534 40.3024 15.2515 40.0234 15.2515 40.0234C15.2515 40.0234 19.0574 32.532 17.8027 27.5936C16.8408 23.7294 14.5544 27.4123 14.5544 27.4123Z" fill="url(#paint10_linear)"/>
<path d="M7.98811 40.0654C7.83476 40.0375 7.59776 39.9956 7.44441 40.5118C7.50017 40.5118 7.40259 40.6513 7.40259 40.6513L7.52806 40.5397C7.52806 40.5397 7.56988 39.9538 7.98811 40.0654Z" fill="white"/>
<path d="M8.12764 40.2188C8.03005 40.2188 7.90458 40.4559 7.98823 40.5954C8.07188 40.7349 8.05793 40.5954 8.05793 40.5954C8.05793 40.5954 7.8767 40.428 8.12764 40.2188Z" fill="white"/>
<path d="M10.8461 40.1351C10.8322 40.0095 10.9855 39.577 11.2225 39.8002C11.4595 40.0095 11.3201 40.1351 11.3201 40.1351H11.1807H10.8461Z" fill="#CA4D2E"/>
<path d="M11.4595 39.5911C11.7243 39.5911 11.808 40.1351 11.808 40.1351H11.2364C11.2225 40.1351 11.097 39.5911 11.4595 39.5911Z" fill="#CA4D2E"/>
<path d="M12.1705 40.135C12.1844 40.0932 11.9335 39.4654 11.7662 39.6049C11.6129 39.7444 11.571 40.135 11.571 40.135H12.1705Z" fill="#CA4D2E"/>
<path d="M12.0589 39.9398C12.1983 39.8003 12.3238 40.1351 12.3238 40.1351H12.031L12.0589 39.9398Z" fill="#CA4D2E"/>
<path d="M11.2363 39.8979C11.2363 39.8979 11.1806 40.149 11.2642 40.2048C11.3479 40.2606 11.32 40.1909 11.32 40.1909C11.32 40.1909 11.2363 40.1072 11.2363 39.8979Z" fill="white"/>
<path d="M11.6685 39.8979C11.6685 39.8979 11.6546 40.163 11.7243 40.1909C11.78 40.2049 11.794 40.1909 11.794 40.1909C11.794 40.1909 11.6964 40.0375 11.6685 39.8979Z" fill="white"/>
<path d="M15.6418 40.1773C15.6557 40.0517 15.5024 39.6193 15.2654 39.8425C15.0284 40.0517 15.1678 40.1773 15.1678 40.1773H15.3072H15.6418Z" fill="#CA4D2E"/>
<path d="M15.0283 39.6328C14.7635 39.6328 14.6798 40.1769 14.6798 40.1769H15.2514C15.2653 40.1769 15.3769 39.6328 15.0283 39.6328Z" fill="#CA4D2E"/>
<path d="M14.3173 40.177C14.3034 40.1352 14.5543 39.5074 14.7216 39.6469C14.875 39.7864 14.9168 40.177 14.9168 40.177H14.3173Z" fill="#CA4D2E"/>
<path d="M14.4288 39.9818C14.2894 39.8423 14.1639 40.177 14.1639 40.177H14.4567L14.4288 39.9818Z" fill="#CA4D2E"/>
<path d="M15.2375 39.9399C15.2375 39.9399 15.2933 40.1911 15.2096 40.2469C15.126 40.3027 15.1539 40.2329 15.1539 40.2329C15.1539 40.2329 15.2515 40.1492 15.2375 39.9399Z" fill="white"/>
<path d="M14.8193 39.9399C14.8193 39.9399 14.8333 40.205 14.7636 40.2329C14.7078 40.2469 14.6938 40.2329 14.6938 40.2329C14.6938 40.2329 14.7914 40.0794 14.8193 39.9399Z" fill="white"/>
</g>
<defs>
<linearGradient id="paint0_linear" x1="14.9219" y1="30.6536" x2="26.1608" y2="20.128" gradientUnits="userSpaceOnUse">
<stop stop-color="#85321E"/>
<stop offset="1" stop-color="#CA4D2E"/>
</linearGradient>
<linearGradient id="paint1_linear" x1="16.3549" y1="41.6629" x2="23.1407" y2="29.7436" gradientUnits="userSpaceOnUse">
<stop stop-color="#85321E"/>
<stop offset="0.1707" stop-color="#89341F"/>
<stop offset="0.351" stop-color="#963922"/>
<stop offset="0.5359" stop-color="#AB4127"/>
<stop offset="0.7227" stop-color="#C84C2E"/>
<stop offset="0.7315" stop-color="#CA4D2E"/>
</linearGradient>
<linearGradient id="paint2_linear" x1="9.89723" y1="5.8161" x2="9.54523" y2="0.507707" gradientUnits="userSpaceOnUse">
<stop stop-color="#85321E"/>
<stop offset="1" stop-color="#CA4D2E"/>
</linearGradient>
<linearGradient id="paint3_linear" x1="13.2358" y1="40.4535" x2="12.7558" y2="20.8348" gradientUnits="userSpaceOnUse">
<stop stop-color="#85321E"/>
<stop offset="0.1741" stop-color="#9F3C24"/>
<stop offset="0.3789" stop-color="#B7452A"/>
<stop offset="0.5698" stop-color="#C54B2D"/>
<stop offset="0.7315" stop-color="#CA4D2E"/>
</linearGradient>
<linearGradient id="paint4_linear" x1="9.79344" y1="39.9157" x2="3.96334" y2="29.534" gradientUnits="userSpaceOnUse">
<stop stop-color="#85321E"/>
<stop offset="0.2721" stop-color="#A43E25"/>
<stop offset="0.5619" stop-color="#C0492C"/>
<stop offset="0.7315" stop-color="#CA4D2E"/>
</linearGradient>
<radialGradient id="paint5_radial" cx="0" cy="0" r="1" gradientUnits="userSpaceOnUse" gradientTransform="translate(-4.79554 0.499656) scale(21.53 21.5444)">
<stop stop-color="#FFBB45"/>
<stop offset="1" stop-color="#CA4D2E"/>
</radialGradient>
<radialGradient id="paint6_radial" cx="0" cy="0" r="1" gradientUnits="userSpaceOnUse" gradientTransform="translate(-4.7934 0.503088) scale(21.5307 21.5451)">
<stop stop-color="#FFBB45"/>
<stop offset="1" stop-color="#CA4D2E"/>
</radialGradient>
<radialGradient id="paint7_radial" cx="0" cy="0" r="1" gradientUnits="userSpaceOnUse" gradientTransform="translate(-4.79331 0.502852) scale(21.5306 21.5449)">
<stop stop-color="#FFBB45"/>
<stop offset="1" stop-color="#CA4D2E"/>
</radialGradient>
<radialGradient id="paint8_radial" cx="0" cy="0" r="1" gradientUnits="userSpaceOnUse" gradientTransform="translate(-4.7935 0.503006) scale(21.5308 21.5451)">
<stop stop-color="#FFBB45"/>
<stop offset="1" stop-color="#CA4D2E"/>
</radialGradient>
<linearGradient id="paint9_linear" x1="9.36187" y1="40.5428" x2="9.36187" y2="34.8158" gradientUnits="userSpaceOnUse">
<stop stop-color="#85321E"/>
<stop offset="0.1741" stop-color="#9F3C24"/>
<stop offset="0.3789" stop-color="#B7452A"/>
<stop offset="0.5698" stop-color="#C54B2D"/>
<stop offset="0.7315" stop-color="#CA4D2E"/>
</linearGradient>
<linearGradient id="paint10_linear" x1="16.3065" y1="40.0734" x2="16.3065" y2="37.2668" gradientUnits="userSpaceOnUse">
<stop stop-color="#85321E"/>
<stop offset="0.1741" stop-color="#9F3C24"/>
<stop offset="0.3789" stop-color="#B7452A"/>
<stop offset="0.5698" stop-color="#C54B2D"/>
<stop offset="0.7315" stop-color="#CA4D2E"/>
</linearGradient>
<clipPath id="clip0">
<rect width="26" height="41" fill="white"/>
</clipPath>
</defs>
</svg>
