<svg width="82" height="102" viewBox="0 0 82 102" fill="none" xmlns="http://www.w3.org/2000/svg">
<g opacity="0.3">
<path d="M62.0419 79.6468C62.0419 80.336 53.0402 80.853 44.9559 82.6336C43.9812 82.8634 43.0638 83.0931 42.2038 83.3803C38.477 84.4142 35.2089 85.8502 33.6608 87.8031C32.8581 88.7796 31.0234 90.6176 28.7299 92.628C24.3724 96.4764 18.4095 101.014 15.1987 101.876C13.8227 102.22 12.9626 101.876 12.9626 100.497V100.152C14.7974 78.498 16.5748 62.8746 17.9508 51.7315C18.1802 50.2955 18.3522 48.8595 18.5242 47.5384C20.7603 31.3406 22.1363 26.5732 22.1363 26.5732L33.6608 17.4404H33.9475L47.3067 17.8425L57.7418 26.5732C57.7418 26.6307 57.7418 26.6307 57.7418 26.6307C57.8564 27.8369 60.9526 63.5639 61.9846 79.0149C61.9846 79.1873 62.0419 79.4745 62.0419 79.6468Z" fill="url(#paint0_radial)"/>
<path d="M47.5931 54.2586C46.8477 55.0053 45.2423 57.1305 44.497 57.3603C44.0956 57.5326 41.9169 55.4648 38.8208 54.3735C37.5594 53.9139 36.5847 53.3396 34.8073 53.4544C34.2912 53.5119 33.7179 53.5693 33.1445 53.6268C35.7246 52.3631 35.954 51.961 36.642 51.9036C38.5914 51.7313 40.5982 51.961 42.3182 52.3631C42.3756 52.3631 42.4329 52.4205 42.4902 52.4205C43.5223 52.6503 44.4397 52.9375 45.185 53.2247C46.5611 53.6842 47.4784 54.1437 47.5931 54.2586Z" fill="#692718"/>
<path d="M41.5729 25.9412C39.5088 28.928 37.2727 34.7868 42.8343 38.348C48.3958 41.9092 58.2002 38.7501 55.8494 34.8442C53.556 31.1681 55.2761 25.3668 48.6252 23.0692C46.1597 22.2651 43.1209 23.7585 41.5729 25.9412Z" fill="#B34429"/>
<path d="M42.3184 34.6719C42.3184 35.074 44.4971 35.6484 47.0199 35.3037C50.6894 34.7868 49.772 31.283 49.256 31.5128C47.4212 33.3508 42.3184 34.6719 42.3184 34.6719Z" fill="#692718"/>
<path d="M33.0877 23.3565C31.1382 22.6672 27.8128 24.1606 27.8128 25.1371C27.7554 26.1136 36.6998 24.6201 33.0877 23.3565Z" fill="#692718"/>
<path d="M45.4146 52.8225L45.1852 53.2245L44.3252 54.7179C44.3252 54.7179 43.7518 53.5692 43.4652 53.4543C43.0065 53.282 34.9795 53.0522 34.9795 53.0522C36.5849 51.7886 39.853 52.1906 42.3758 52.4204C42.4331 52.4204 42.4905 52.4778 42.5478 52.4778C44.1532 52.5353 45.4146 52.8225 45.4146 52.8225Z" fill="white"/>
<path d="M30.1063 45.528L27.2969 48.5149L30.737 54.3162C30.737 54.3162 41.0001 50.5252 47.135 54.6034C48.6257 53.3397 52.3525 48.0553 52.3525 48.0553L48.3391 43.8623L51.0912 47.9979L47.1923 53.3397C47.1923 53.3397 42.2041 50.6401 38.0186 51.2145C34.0051 51.7889 31.425 53.1674 31.425 53.1674L28.9023 48.2277L30.1063 45.528Z" fill="#692718"/>
<path d="M33.1445 44.092C34.0046 42.254 38.8208 36.625 45.9877 43.1156C47.2491 44.2644 39.7381 49.0892 39.7381 49.0892C39.7381 49.0892 33.2019 46.3896 33.1445 44.092Z" fill="#692718"/>
<path d="M39.1653 47.3658L38.8213 51.3865L40.4842 51.5588L39.9681 47.0786L39.1653 47.3658Z" fill="#692718"/>
<path d="M47.3066 18.302C49.2561 15.6598 62.0419 -0.537928 64.9087 0.553412C66.6861 1.24268 57.111 28.8708 57.111 28.8708L47.3066 18.302Z" fill="url(#paint1_linear)"/>
<path d="M49.6001 18.8187C48.2814 17.6699 62.386 2.85066 63.246 3.02298C64.106 3.19529 59.6339 16.2914 59.6339 16.2914L61.6406 15.1426C61.6406 15.1426 57.9138 25.0221 57.3978 25.0221C56.8244 25.0221 50.0015 19.2207 49.6001 18.8187Z" fill="#B34429"/>
<path d="M34.4067 18.6466C32.572 15.8895 20.5889 -0.882641 17.6647 0.036382C15.83 0.610771 22.4236 28.3538 22.4236 28.3538L34.4067 18.6466Z" fill="url(#paint2_linear)"/>
<path d="M32.0553 19.1061C33.4314 18.0148 20.0148 2.56374 19.2121 2.67862C18.3521 2.85093 22.1362 16.1193 22.1362 16.1193L20.1868 14.8557C20.1868 14.8557 23.455 24.9075 23.971 24.9075C24.5443 24.9649 31.5966 19.4508 32.0553 19.1061Z" fill="#B34429"/>
<path d="M42.4332 29.6749C43.2933 27.8369 46.6761 26.4009 47.3641 27.0902C48.1095 27.7794 40.8852 33.1787 42.4332 29.6749Z" fill="#692718"/>
<path d="M35.7823 34.4998C35.7823 34.9019 33.6035 35.4762 31.0807 35.1316C27.4113 34.6147 28.3286 31.1109 28.8447 31.3406C30.7367 33.1787 35.7823 34.4998 35.7823 34.4998Z" fill="#692718"/>
<path d="M35.6672 29.5023C34.8072 27.6643 31.4244 26.2283 30.7364 26.9175C29.991 27.6068 37.2726 33.0061 35.6672 29.5023Z" fill="#692718"/>
<path d="M12.0455 41.565C10.7841 39.5547 8.6627 37.0848 7.74533 37.6592C6.82796 38.1762 7.28665 39.0377 7.17198 39.3824C7.05731 39.727 9.69475 42.082 10.2108 42.4841C10.7268 42.8861 12.0455 41.565 12.0455 41.565Z" fill="#B34429"/>
<path d="M5.33699 51.3296C3.21557 51.4445 1.26616 51.7317 0.520794 52.1337C-0.224569 52.5358 -0.281904 55.0631 1.09415 54.6036C2.47021 54.1441 5.85301 53.1102 5.85301 53.1102C5.85301 53.1102 6.08235 51.3296 5.33699 51.3296Z" fill="#B34429"/>
<path d="M4.93623 67.4122C6.14028 66.4357 8.66304 65.0572 8.83505 64.9423C9.00706 64.8274 9.92443 64.6551 9.58041 65.5741C9.17906 66.4931 7.05765 69.6523 6.08294 69.5374C5.10823 69.3076 3.90419 68.2737 4.93623 67.4122Z" fill="#B34429"/>
<path d="M68.8075 40.8182C69.4383 39.6694 70.4704 38.1185 71.1012 38.3483C71.7893 38.6355 72.5348 39.1524 72.3054 39.5545C72.0187 39.9566 70.5278 41.6798 69.8397 41.7946C69.1516 41.9095 68.4061 41.5649 68.8075 40.8182Z" fill="#B34429"/>
<path d="M76.6047 50.4677C78.6688 49.204 80.9622 48.285 81.3063 48.802C81.6503 49.3189 82.0516 49.8359 81.9943 50.64C81.9369 51.4442 77.4074 51.9611 77.0634 51.6739C76.6621 51.3293 76.6047 50.4677 76.6047 50.4677Z" fill="#B34429"/>
<path d="M70.3558 60.4622C71.0438 60.4047 74.312 60.577 74.8853 61.6109C75.2293 62.2428 74.14 64.6552 72.9932 63.9085C71.8465 63.1618 70.2411 62.53 69.9545 61.6109C69.6104 60.6919 69.6104 60.5196 70.3558 60.4622Z" fill="#B34429"/>
<path d="M38.4194 53.3972C37.9607 53.2823 42.8342 53.9141 43.0635 54.029C43.3502 54.0865 43.8089 55.0629 43.8089 55.0629L43.6942 55.982C43.6942 55.9245 40.0248 53.6844 38.4194 53.3972Z" fill="white"/>
<path d="M32.8579 56.3263C33.89 56.0391 40.7702 56.4986 42.1463 57.992C41.2289 58.7387 41.1716 59.4854 41.1716 59.4854C41.1716 59.4854 37.1007 56.4411 32.8579 56.3263Z" fill="#B34429"/>
</g>
<defs>
<radialGradient id="paint0_radial" cx="0" cy="0" r="1" gradientUnits="userSpaceOnUse" gradientTransform="translate(39.4561 41.5022) scale(35.3844 35.4481)">
<stop stop-color="#FFBB45"/>
<stop offset="0.1539" stop-color="#EC943D"/>
<stop offset="0.3086" stop-color="#DD7536"/>
<stop offset="0.4594" stop-color="#D35F32"/>
<stop offset="0.6029" stop-color="#CC522F"/>
<stop offset="0.7313" stop-color="#CA4D2E"/>
</radialGradient>
<linearGradient id="paint1_linear" x1="65.5996" y1="4.2208" x2="51.4022" y2="24.6683" gradientUnits="userSpaceOnUse">
<stop stop-color="#85321E"/>
<stop offset="0.0659692" stop-color="#8E3620"/>
<stop offset="0.2861" stop-color="#A84026"/>
<stop offset="0.5123" stop-color="#BB472B"/>
<stop offset="0.7463" stop-color="#C64C2D"/>
<stop offset="1" stop-color="#CA4D2E"/>
</linearGradient>
<linearGradient id="paint2_linear" x1="18.9321" y1="1.01469" x2="31.4097" y2="30.6065" gradientUnits="userSpaceOnUse">
<stop stop-color="#85321E"/>
<stop offset="0.0659692" stop-color="#8E3620"/>
<stop offset="0.2861" stop-color="#A84026"/>
<stop offset="0.5123" stop-color="#BB472B"/>
<stop offset="0.7463" stop-color="#C64C2D"/>
<stop offset="1" stop-color="#CA4D2E"/>
</linearGradient>
</defs>
</svg>
