<svg width="28" height="28" viewBox="0 0 28 28" fill="none" xmlns="http://www.w3.org/2000/svg">
<path d="M15.146 0V3.15405H22.6157L17.071 8.69876C15.2913 7.37838 13.0878 6.59706 10.7015 6.59706C4.79123 6.59706 0 11.3882 0 17.2985C0 23.2088 4.79123 28 10.7015 28C16.6117 28 21.4029 23.2088 21.4029 17.2985C21.4029 14.9123 20.6216 12.7087 19.3012 10.929L24.846 5.38431V12.854H28V0L15.146 0ZM10.7015 24.4755C6.73772 24.4755 3.52445 21.2622 3.52445 17.2985C3.52445 13.3347 6.73772 10.1215 10.7015 10.1215C14.6652 10.1215 17.8785 13.3347 17.8785 17.2985C17.8785 21.2623 14.6652 24.4755 10.7015 24.4755Z" fill="#6CB8FF"/>
</svg>
