<svg width="23" height="17" viewBox="0 0 23 17" fill="none" xmlns="http://www.w3.org/2000/svg">
<path fill-rule="evenodd" clip-rule="evenodd" d="M20.6996 11.4047L17.4692 8.50016L20.6996 5.59671V11.4047ZM14.95 12.9688C14.95 13.5854 14.4348 14.0859 13.8 14.0859H3.45C2.8152 14.0859 2.3 13.5854 2.3 12.9688V4.03162C2.3 3.41607 2.8152 2.91448 3.45 2.91448H13.8C14.4348 2.91448 14.95 3.41607 14.95 4.03162V12.9688ZM21.8638 3.07756C21.1439 2.77258 20.309 2.90552 19.7351 3.41941L17.25 5.6537V4.0316C17.25 2.18385 15.7021 0.680176 13.8 0.680176H3.45C1.5479 0.680176 0 2.18385 0 4.0316V12.9687C0 14.8176 1.5479 16.3202 3.45 16.3202H13.8C15.7021 16.3202 17.25 14.8176 17.25 12.9687V11.3478L19.7351 13.5809C20.1031 13.9127 20.5804 14.0859 21.0668 14.0859C21.3359 14.0859 21.6062 14.0334 21.8638 13.9239C22.5641 13.6267 23 12.9911 23 12.2661V4.7354C23 4.01038 22.5641 3.37472 21.8638 3.07756V3.07756Z" fill="white"/>
</svg>
