<svg width="33" height="33" viewBox="0 0 33 33" fill="none" xmlns="http://www.w3.org/2000/svg">
<g clip-path="url(#clip0)">
<path d="M21.8763 29.9915C21.8763 29.9915 21.7608 31.2578 21.8361 31.6724C21.8461 31.7283 21.8687 31.797 21.8938 31.8758C21.9716 32.1072 21.7583 32.8141 21.7583 32.8141L18.9109 32.8243C18.7554 32.8243 18.8607 32.7251 18.9862 32.6336C19.1919 32.4836 19.36 32.3844 20.0173 32.0741C20.0599 32.0538 20.2155 31.9572 20.2732 31.9216C20.4162 31.8351 20.5617 31.7003 20.6846 31.563C20.8928 31.3341 20.9229 30.2178 20.9229 30.2178L21.8763 29.9915Z" fill="#F7A491"/>
<path d="M20.2732 31.9217C21.0233 32.1276 21.5828 32.0005 21.8939 31.8784C21.9716 32.1098 22.1171 32.8905 22.0293 32.8905C21.3143 32.8905 20.7097 33.0278 18.6651 32.9948C18.5923 32.9948 18.5999 32.7379 18.6475 32.682C18.783 32.5269 20.2155 31.9547 20.2732 31.9217Z" fill="white"/>
<path d="M25.4461 14.9551C25.4461 14.9551 25.406 16.7631 24.8942 17.9202C24.3975 19.0467 22.0142 21.8287 21.3795 23.4537C21.5751 24.3691 22.1145 25.6559 22.0744 26.6705C22.0292 27.8199 22.097 30.8639 22.097 30.8639L20.8175 30.9045L19.1417 23.0519L21.6705 14.5787L22.817 12.5215L25.4461 14.9551Z" fill="#3C8F7C"/>
<path d="M30.9102 28.1909C30.9102 28.1909 31.6954 29.2844 32.0416 29.559C32.2273 29.7065 32.7316 29.9049 32.7842 30.1515C32.8369 30.3957 30.5038 32.5597 30.5038 32.5597C30.3809 32.6716 30.3934 32.5165 30.431 32.3538C30.4912 32.0867 30.5565 31.8909 30.8676 31.1738C30.8876 31.128 30.9453 30.9373 30.9654 30.8712C31.0206 30.7008 31.0407 30.4898 31.0457 30.2914C31.0532 29.9634 30.3056 29.0479 30.3056 29.0479L30.9102 28.1909Z" fill="#F7A491"/>
<path d="M30.9654 30.8713C31.7055 30.5 32.0643 30.0041 32.2298 29.6812C32.4506 29.8108 33.0477 30.088 32.9975 30.1643C32.5861 30.7721 32.1571 31.5248 30.5013 32.9565C30.4411 33.0073 30.1978 32.7124 30.1978 32.6335C30.1953 32.4148 30.9454 30.9374 30.9654 30.8713Z" fill="white"/>
<path d="M21.5024 2.02405C21.7232 0.566934 23.0252 -0.483309 24.3849 0.226177C24.691 0.386384 25.105 0.70934 25.3157 0.983979C25.8977 1.73924 26.0382 2.67759 26.6554 3.40488C27.1872 4.03299 28.6047 3.91347 29.267 4.39663C29.9293 4.8798 30.3934 5.7444 30.3934 6.77684C30.3934 7.93389 30.135 9.16214 29.2519 9.89197C28.3688 10.6243 27.1119 10.8049 26.0106 10.4947C24.9118 10.1844 23.9685 9.42661 23.2886 8.49589C22.6088 7.56516 22.1296 6.54798 21.7909 5.44179C21.4146 4.211 21.3594 2.96749 21.5024 2.02405Z" fill="#B75742"/>
<path d="M16.4925 15.9112C16.6756 15.751 17.0695 15.3976 17.0344 15.362C16.9867 15.3136 16.8161 15.3492 16.7609 15.3696C16.7057 15.3899 16.6405 15.4103 16.5853 15.4306C16.5301 15.451 16.4699 15.4281 16.4398 15.362C16.4097 15.2958 16.6079 15.1636 16.6856 15.1331C16.929 15.0339 17.6264 14.9042 17.7017 14.8864C17.7895 14.8661 18.7855 13.6353 19.1593 13.2411C19.7538 12.5774 20.3309 11.8654 20.3936 11.7942L22.0217 8.32812L23.5069 8.43747C23.5069 8.43747 21.7558 12.3079 21.6454 12.491C21.5927 12.5774 20.1 14.0091 20.0975 14.0066C19.3173 14.6626 18.6299 15.2399 18.4995 15.3543C18.4995 15.3543 18.2034 15.8019 18.0328 16.0994C17.9225 16.2901 17.7694 16.4402 17.659 16.5444C17.3505 16.2622 16.9591 16.1757 16.5953 15.9773C16.5602 15.9621 16.5251 15.9367 16.4925 15.9112Z" fill="#F48C7F"/>
<path d="M22.7343 5.64771C22.7343 5.64771 21.5853 6.20461 21.0209 9.66304L22.9677 10.2123L23.778 7.98214L22.7343 5.64771Z" fill="#FAE0B2"/>
<path d="M25.3559 13.7979C25.3559 13.7979 26.3443 15.3033 26.5801 16.5493C26.8084 17.7623 26.4271 21.4267 26.826 23.1254C27.5033 23.7612 28.6724 24.5037 29.2143 25.3582C29.829 26.327 31.6026 28.7835 31.6026 28.7835L30.5766 29.5591L24.7638 24.0968L22.4106 16.8087L21.6028 14.6777L25.3559 13.7979Z" fill="#50BFA5"/>
<path d="M24.5555 5.23315C24.5555 5.23315 26.1109 5.26621 26.3819 5.71886C26.7783 6.38257 25.2329 10.8073 25.1401 11.5346C25.0447 12.2619 25.9127 13.7114 25.9127 13.7114C25.9127 13.7114 22.3102 15.4203 21.4321 14.8303C21.4321 14.8303 21.5726 9.00691 21.668 8.4856C21.7633 7.96684 22.546 5.85618 22.7342 5.64766C22.9223 5.43913 24.5555 5.23315 24.5555 5.23315Z" fill="white"/>
<path d="M24.119 3.46338C24.119 3.46338 24.1265 3.50152 24.139 3.56764C24.1967 3.88551 24.4225 4.94338 24.5731 5.23328C24.7562 5.58421 23.9459 6.70311 23.1631 6.56579C22.9298 6.5251 23.3588 5.53843 23.3388 5.43163C23.2986 5.23073 23.2459 4.95864 23.1907 4.67891C23.1606 4.52125 23.128 4.36104 23.0979 4.21101C23.0151 3.78379 22.9474 3.43286 22.9474 3.43286L24.119 3.46338Z" fill="#F7A491"/>
<path d="M24.139 3.56764C24.1265 3.50152 24.119 3.46338 24.119 3.46338L22.9474 3.43286C22.9474 3.43286 23.0151 3.78379 23.0979 4.21101C23.128 4.36104 23.1581 4.52125 23.1882 4.67637C23.3689 4.6484 23.557 4.55939 23.7477 4.3941C23.9534 4.21101 24.0889 3.99231 24.1717 3.75582C24.1591 3.68207 24.1491 3.6185 24.139 3.56764Z" fill="#F47458"/>
<path d="M23.3313 0.770391C23.3313 0.770391 23.8832 0.706817 24.2295 1.15946C24.5757 1.61211 24.947 3.01074 24.089 3.77109C23.231 4.53143 22.3805 3.67191 22.2551 2.75644C22.1296 1.84606 22.0795 0.737333 23.3313 0.770391Z" fill="#F7A491"/>
<path d="M22.0016 2.74381C22.1045 2.9447 22.2751 3.05659 22.3855 2.99302C22.4958 2.92944 22.5009 2.71329 22.398 2.5124C22.2951 2.31151 22.122 2.19961 22.0142 2.26319C21.9038 2.32676 21.8988 2.54291 22.0016 2.74381Z" fill="#F7A491"/>
<path d="M23.2711 0.620399C23.2711 0.620399 24.0087 1.95037 24.5355 2.01394C25.0624 2.07497 25.1326 2.78192 25.1326 2.78192C25.1326 2.78192 24.9445 1.15188 24.4226 0.839094C23.8983 0.523767 23.2711 0.620399 23.2711 0.620399Z" fill="#B75742"/>
<path d="M24.3975 2.34682C24.3549 2.58332 24.4402 2.79947 24.5907 2.82999C24.7412 2.8605 24.8967 2.69521 24.9394 2.45872C24.982 2.22222 24.8967 2.00607 24.7462 1.97555C24.5957 1.94504 24.4402 2.11033 24.3975 2.34682Z" fill="#F7A491"/>
<path d="M5.70984 20.6614L5.73743 20.8623L6.53773 20.6055L6.40727 20.1223L5.70984 20.6614ZM5.82524 20.7021L6.29438 20.3512L6.36964 20.5699L5.82524 20.7021Z" fill="#355389"/>
<path d="M3.72552 18.4593L3.98643 17.2717L5.54436 18.2508L4.65376 18.978C4.65125 18.9806 4.37027 18.2406 3.72552 18.4593Z" fill="#F47458"/>
<path d="M13.8708 22.874C13.8708 22.874 15.6696 23.6878 17.659 24.6973C19.6485 25.7069 20.1276 25.6102 20.4162 25.3178C20.7021 25.0279 20.7222 24.3769 20.7222 24.3769C20.7222 24.3769 21.1914 25.0661 20.953 25.9485C20.7147 26.8309 20.0248 26.841 20.0248 26.841L19.5281 26.541L19.8542 27.1335C19.8542 27.1335 19.1517 27.5073 18.4945 26.8436C17.8397 26.1799 17.6992 25.7577 17.6992 25.7577C17.6992 25.7577 17.9576 26.7851 18.216 27.047C18.216 27.047 17.4885 27.3776 17.0569 26.7851C16.6254 26.1926 16.4348 25.4373 16.4348 25.4373L16.5978 26.8232C16.5978 26.8232 15.928 26.5613 15.5642 25.4856L15.7549 26.5028C15.7549 26.5028 15.0801 25.5543 14.8041 24.4964C14.5281 23.4386 13.9561 23.3216 13.9561 23.3216L13.8708 22.874Z" fill="#B75742"/>
<path d="M10.4388 26.5205C10.4388 26.5205 10.3736 28.7507 11.8538 29.567C12.2125 29.7653 12.7946 30.4901 12.6792 30.8868C12.5713 31.2657 11.6857 32.0438 11.6857 32.0438C11.6857 32.0438 11.071 32.0896 10.7926 32.7915C10.7474 32.9033 10.9481 32.8754 10.9481 32.8754L12.5161 32.8779L13.8683 30.5587L13.7755 29.1042L12.8949 26.8409L11.2115 26.5688L10.4388 26.5205Z" fill="#B75742"/>
<path d="M3.03805 25.0303C3.03805 25.0303 1.02854 28.092 0.589514 28.7583C0.283447 29.2211 0.283447 29.8034 0.283447 29.8034C0.283447 29.8034 0.368745 30.7341 0.551883 30.9198C0.579479 30.9477 0.627145 30.9706 0.684846 30.9833C1.14645 31.1003 1.55538 30.6578 1.42493 30.195C1.36472 29.9814 1.31705 29.7856 1.31705 29.7042C1.31705 29.4906 1.41238 29.4703 1.41238 29.4703L3.63262 28.1734L4.36016 26.0169L3.03805 25.0303Z" fill="#B75742"/>
<path d="M4.49565 25.7067L4.85942 28.6209L4.68632 31.9344C4.68632 31.9344 3.97885 32.1099 3.76812 32.4786C3.55738 32.8473 3.59501 32.9058 3.59501 32.9058H5.27838C5.27838 32.9058 6.65568 29.5847 6.65568 29.216C6.65568 28.8473 7.01945 26.7925 7.01945 26.5204C7.01945 26.2484 6.78864 25.0303 5.98585 24.9336C5.18556 24.8345 4.49565 25.7067 4.49565 25.7067Z" fill="#F47458"/>
<path d="M2.16254 17.9938L2.59655 17.3988C2.59655 17.3988 4.02653 16.9843 4.63866 17.6047C4.83435 17.8031 5.05512 18.0905 5.14041 18.4719C5.18557 18.6702 5.1931 19.072 5.19059 19.4306C5.18557 19.8324 5.26836 20.0994 5.42641 20.4605C5.70739 20.8953 6.87395 21.8083 7.33807 21.9227L7.01193 21.8795C7.01193 21.8795 7.63912 22.2177 8.15592 22.3067C10.1679 22.6271 13.201 22.6856 13.8759 22.8814C14.6787 23.1153 15.1679 25.5184 14.9471 26.7314C14.7263 27.9444 16.3645 27.4587 16.7584 28.2419C17.1322 28.9819 15.6972 32.3844 15.6972 32.3844C15.6972 32.3844 15.3259 32.8422 15.2582 32.9108H13.6375C13.6375 32.9108 13.6877 31.8504 14.498 31.5783C15.3083 31.3062 15.1929 29.5541 15.1929 29.5541C15.1929 29.5541 12.925 29.8389 11.7284 28.3513C10.9356 27.3672 10.9582 26.9069 11.0134 26.7772C10.5894 27.0162 7.62909 28.6387 6.13889 28.3513C4.53079 28.0411 4.02151 27.0569 4.02151 27.0569L4.12939 27.769C4.12939 27.769 3.04812 27.3723 3.15349 26.4797C3.15349 26.4797 2.99042 26.5967 2.99042 26.8484C2.99042 26.8484 2.52129 26.2381 2.52129 24.2978C2.52129 23.2145 2.55892 20.4732 2.55892 20.4732C2.55892 20.4732 0.637221 20.1172 0.386346 19.8629C0.223278 19.6925 0 18.4363 0 18.4363L2.16254 17.9938Z" fill="#F47458"/>
<path d="M5.54432 18.2533C5.54432 18.2533 5.15546 19.1052 4.75406 19.2349C4.35267 19.3646 3.98639 17.2717 3.98639 17.2717C3.98639 17.2717 4.55086 17.053 5.03254 17.5413C5.22069 17.7346 5.54432 18.2533 5.54432 18.2533Z" fill="#B75742"/>
<path d="M4.31007 26.2102C4.78924 26.7748 4.35021 26.256 4.67885 26.6451C4.74659 25.961 4.53334 25.1066 4.35773 24.4301C4.65627 24.7556 5.05516 25.4041 5.24332 25.6787C4.90464 25.0862 4.98994 23.9419 5.05767 23.268C5.06018 23.2706 5.44904 23.7385 5.6096 23.9317C5.6397 23.6266 5.69238 22.9527 5.58953 22.6577C5.48416 22.3551 5.17809 21.9991 4.9498 21.7778C5.20569 21.994 5.52179 22.3246 5.64723 22.6348C5.81782 23.062 5.69489 24.1199 5.69238 24.1962C5.1229 23.5426 5.51176 23.9877 5.15551 23.5757C5.11788 24.1428 5.06269 25.3202 5.3236 25.7906C5.01753 25.5948 4.72903 25.1701 4.55091 24.8446C5.01001 26.0475 4.71397 26.7519 4.71147 26.7722C4.71397 26.7748 4.68638 26.7391 4.32261 26.2611C4.30254 26.3348 4.2624 26.4925 4.25738 26.5688C4.25487 26.5383 4.29251 26.2967 4.31007 26.2102Z" fill="#B75742"/>
<path d="M5.56443 20.3516L5.82534 20.9059C5.82534 20.9059 5.57698 22.7801 2.53889 22.5716L2.43854 21.7782C2.43854 21.7756 5.20819 21.679 5.56443 20.3516Z" fill="#184655"/>
<path d="M15.2324 16.0467L6.29474 20.3911L6.39237 20.5975L15.3301 16.2531L15.2324 16.0467Z" fill="#184655"/>
<path d="M15.1854 16.1757L15.4287 15.9214L16.8211 15.4077L18.394 16.1757L16.5627 18.0549L16.4297 17.5997L17.5787 16.4427L16.6655 15.8349L16.5301 15.9138L16.0534 16.196L15.1854 16.1757Z" fill="#FAE0B2"/>
<path d="M14.2748 17.1802C14.2522 17.938 14.8618 18.556 15.6069 18.5306C16.2843 18.5077 16.8337 17.9508 16.8563 17.2642C16.8814 16.5064 16.2692 15.8884 15.5241 15.9138C14.8468 15.9367 14.2948 16.4962 14.2748 17.1802Z" fill="#F7CC7F"/>
<path d="M14.9095 17.1496C14.8743 17.5947 15.2381 17.9634 15.6771 17.9278C16.0233 17.8998 16.3018 17.6175 16.3294 17.2666C16.3645 16.8216 16.0007 16.4529 15.5617 16.4885C15.218 16.5139 14.937 16.7987 14.9095 17.1496Z" fill="#FAE0B2"/>
<path d="M16.8563 15.0391C16.8563 15.0391 16.4574 15.7918 16.4975 15.9342C16.5201 16.0105 17.1498 16.4606 17.5161 16.4606C17.8823 16.4606 17.4458 15.6596 17.3681 15.741C17.2903 15.8198 17.3405 16.0004 17.3405 16.0004C17.3405 16.0004 17.2727 15.4485 17.1849 15.3595C17.0971 15.2705 17.0645 15.4587 17.0645 15.4587C17.0645 15.4587 17.195 14.9883 17.0645 14.9476C16.934 14.9018 16.8563 15.0391 16.8563 15.0391Z" fill="#F79C8D"/>
<path d="M25.5289 8.62064C25.5289 8.62064 26.4195 11.8604 26.5776 12.6055C26.7356 13.3505 26.4747 16.3055 26.4747 16.4123C26.4747 16.5191 25.3382 17.3786 25.4863 17.4778C25.6318 17.5769 26.0432 17.0099 26.1862 17.1497C26.3292 17.2896 26.264 19.0086 26.3894 18.9705C26.6252 18.8967 26.4697 17.9202 26.5851 17.905C26.7005 17.8923 26.6503 18.9425 26.851 18.9857C27.0517 19.0315 26.8059 17.9889 26.8861 17.9355C26.9664 17.8821 27.2524 18.884 27.418 18.7569C27.5083 18.6882 27.142 17.8719 27.275 17.8592C27.4079 17.8465 27.7868 18.4263 27.8821 18.3373C27.9774 18.2483 27.4983 17.8923 27.4456 17.5337C27.3954 17.1752 27.1696 16.9412 27.2599 16.3462C27.3502 15.7511 27.704 13.2259 27.704 12.4732C27.704 11.6747 27.0266 8.5647 27.0266 8.5647L25.5289 8.62064Z" fill="#F79C8D"/>
<path d="M25.7874 10.4923C25.7874 10.4923 25.0323 8.0917 25.0097 7.23472C24.9871 6.37774 25.4387 5.35802 26.1663 5.53857C26.8963 5.71912 27.4156 9.6785 27.4156 9.6785L25.7874 10.4923Z" fill="#FAE0B2"/>
</g>
<defs>
<clipPath id="clip0">
<rect width="33" height="33" fill="white"/>
</clipPath>
</defs>
</svg>
