<svg width="27" height="19" viewBox="0 0 27 19" fill="none" xmlns="http://www.w3.org/2000/svg">
<path fill-rule="evenodd" clip-rule="evenodd" d="M0 1.58334C0 0.709335 0.671982 0 1.49996 0C2.32794 0 2.99992 0.709335 2.99992 1.58334C2.99992 2.45734 2.32794 3.16667 1.49996 3.16667C0.671982 3.16667 0 2.45734 0 1.58334ZM0 9.50012C0 8.62612 0.671982 7.91678 1.49996 7.91678C2.32794 7.91678 2.99992 8.62612 2.99992 9.50012C2.99992 10.3741 2.32794 11.0835 1.49996 11.0835C0.671982 11.0835 0 10.3741 0 9.50012ZM1.49996 15.8336C0.671982 15.8336 0 16.5429 0 17.4169C0 18.2909 0.671982 19.0002 1.49996 19.0002C2.32794 19.0002 2.99992 18.2909 2.99992 17.4169C2.99992 16.5429 2.32794 15.8336 1.49996 15.8336ZM7.40301 7.91678H25.596C26.3685 7.91678 27 8.58337 27 9.39878V9.60145C27 10.4169 26.3685 11.0835 25.596 11.0835H7.40301C6.63053 11.0835 6.00055 10.4169 6.00055 9.60145V9.39878C6.00055 8.58337 6.63053 7.91678 7.40301 7.91678ZM25.596 15.8336H7.40301C6.63053 15.8336 6.00055 16.5001 6.00055 17.3156V17.5182C6.00055 18.3337 6.63053 19.0002 7.40301 19.0002H25.596C26.3685 19.0002 27 18.3337 27 17.5182V17.3156C27 16.5001 26.3685 15.8336 25.596 15.8336ZM7.40302 0H25.596C26.3685 0 27 0.666585 27 1.482V1.68467C27 2.50009 26.3685 3.16667 25.596 3.16667H7.40302C6.63054 3.16667 6.00056 2.50009 6.00056 1.68467V1.482C6.00056 0.666585 6.63054 0 7.40302 0Z" fill="#171717"/>
</svg>
