<svg width="28" height="28" viewBox="0 0 28 28" fill="none" xmlns="http://www.w3.org/2000/svg">
<g clip-path="url(#clip0)">
<path d="M20.5769 15.8689C24.2035 12.2435 24.2035 6.34449 20.5769 2.71909C16.9504 -0.906363 11.0496 -0.906363 7.42297 2.71909C3.79643 6.34449 3.79643 12.2435 7.42297 15.8689C8.95805 17.4034 10.9006 18.2882 12.9056 18.5237V21.6367H10.7171C10.1128 21.6367 9.62289 22.1265 9.62289 22.7306C9.62289 23.3347 10.1128 23.8245 10.7171 23.8245H12.9056V26.9061C12.9057 27.5102 13.3956 28 14 28C14.6043 28 15.0942 27.5102 15.0942 26.9061V23.8245H17.2827C17.8871 23.8245 18.377 23.3347 18.377 22.7306C18.377 22.1265 17.8871 21.6367 17.2827 21.6367H15.0942V18.5238C17.0993 18.2882 19.0418 17.4034 20.5769 15.8689ZM8.97052 14.3218C6.19726 11.5494 6.19726 7.03847 8.97052 4.26609C11.7437 1.49382 16.256 1.49365 19.0294 4.26609C21.8027 7.03847 21.8027 11.5494 19.0294 14.3218C16.2562 17.0941 11.7438 17.0941 8.97052 14.3218Z" fill="#FF7D7D"/>
</g>
<defs>
<clipPath id="clip0">
<rect width="28" height="28" fill="white"/>
</clipPath>
</defs>
</svg>
