<svg width="90" height="90" viewBox="0 0 90 90" fill="none" xmlns="http://www.w3.org/2000/svg">
<circle cx="45" cy="45" r="45" fill="#6DAFE0"/>
<mask id="mask0" mask-type="alpha" maskUnits="userSpaceOnUse" x="7" y="7" width="76" height="76">
<rect x="7.71429" y="7.71436" width="74.5714" height="74.5714" rx="10" fill="#F1F1F1"/>
</mask>
<g mask="url(#mask0)">
<path d="M55.8155 21.9261C56.3189 18.9693 56.3189 13.5848 57.4517 10.2856C55.6896 11.4061 49.2394 17.9111 48.3269 24.3227L55.8155 21.9261Z" fill="#FFC37B"/>
<path d="M54.7449 22.0817C55.1225 19.7474 55.1539 15.5145 55.972 12.9312C54.682 13.8026 49.9308 18.9381 49.2386 23.9803L54.7449 22.0817Z" fill="#E25E54"/>
<path d="M50.2121 23.6694L49.2682 24.0118C49.929 18.9696 54.7116 13.8341 56.0016 12.9626C55.9072 13.2428 55.8128 13.554 55.7499 13.8652C53.925 15.8261 51.0932 19.7166 50.2121 23.6694Z" fill="#CE413E"/>
<path d="M65.6932 28.6179C68.1789 29.5205 70.759 17.631 73.7481 16.1682C75.2584 15.4212 67.5496 14.4875 61.1938 22.7665L65.6932 28.6179Z" fill="#FFC37B"/>
<path d="M65.2215 27.7776C67.2038 28.4934 69.3434 18.1913 71.7347 17.0086C72.9618 16.4172 66.7004 16.3861 61.6031 23.0778L65.2215 27.7776Z" fill="#E25E54"/>
<path d="M71.7636 17.0085C71.6063 17.0707 71.449 17.1952 71.3231 17.3197C69.6555 17.5998 65.628 19.156 62.2928 23.9181L61.632 23.0466C66.7293 16.386 72.9593 16.4171 71.7636 17.0085Z" fill="#CE413E"/>
<path d="M65.3167 27.7775C65.2853 27.7775 65.2538 27.7775 65.2223 27.7464L64.6874 27.0305L65.3167 27.7775Z" fill="#CE413E"/>
<path d="M65.2531 71.1335L62.6101 74.1526C63.9001 75.4909 67.9905 76.3002 70.665 72.3785C70.665 72.4096 67.4871 73.25 65.2531 71.1335Z" fill="#FF8E55"/>
<path d="M62.5782 81.0002H60.9735C60.9735 81.0002 56.6314 75.211 55.7818 71.5695C54.9323 67.928 64.3717 61.1118 66.9203 63.166C69.4689 65.2513 64.3717 74.3707 63.7738 75.7402C62.9872 77.701 62.5782 81.0002 62.5782 81.0002Z" fill="#FFA35F"/>
<path d="M54.6187 80.9999H53.014C53.014 80.9999 47.193 71.3514 45.7771 67.7721C44.3612 64.1928 53.3286 61.3916 56.1919 63.4147C59.0552 65.4689 55.3738 74.4638 54.9962 75.8022C54.4928 77.7319 54.6187 80.9999 54.6187 80.9999Z" fill="#FFA35F"/>
<path d="M58.9905 75.3976C55.4665 75.9267 49.3309 74.8996 46.2159 68.5814C43.1009 62.2631 42.8177 45.7673 46.971 39.8848C51.1244 34.0023 66.2588 35.5897 66.8252 37.5194C67.3915 39.4179 71.9539 49.9691 66.7937 68.7681C66.0071 71.6004 63.4899 74.7128 58.9905 75.3976Z" fill="#FFA35F"/>
<path d="M58.7997 75.3355C55.5274 75.8646 49.8008 74.8376 46.9061 68.5193C44.0114 62.2011 43.7282 45.7053 47.5983 39.8228C51.4685 33.9403 65.5331 35.5277 66.068 37.4574C66.6029 39.3559 70.8191 49.907 66.0365 68.7061C65.3443 71.5384 63.0159 74.6197 58.7997 75.3355Z" fill="#FFC37B"/>
<path d="M51.2521 57.0965C45.3368 50.965 44.1726 54.0775 44.3299 61.6718C43.2601 54.1397 43.9209 44.18 46.9415 39.8848C51.0948 34.0023 66.2292 35.5897 66.7956 37.5194C67.3619 39.4179 71.9243 49.9691 66.7641 68.7681C66.1034 71.2269 64.1211 73.8725 60.6915 74.993C67.2046 70.3866 65.3482 59.7109 61.6669 55.4781C59.0238 52.3968 56.0976 54.1086 51.2521 57.0965Z" fill="#FFA35F"/>
<path d="M65.7887 53.1128C67.9597 52.4591 70.1937 43.7755 67.3934 39.9161C64.6245 36.0878 61.3522 47.5104 61.3522 47.5104C61.3522 47.5104 62.2017 54.2021 65.7887 53.1128Z" fill="#FFB469"/>
<path d="M63.1458 47.4171C62.6109 48.1329 62.1704 48.8799 61.8242 49.5646C61.4781 48.4442 61.3523 47.5104 61.3523 47.5104C61.3523 47.5104 64.6246 36.0878 67.3935 39.9472C68.0857 40.9121 68.4947 42.1882 68.6206 43.5888C67.1418 43.5576 64.9392 45.0516 63.1458 47.4171Z" fill="#FFA35F"/>
<path d="M51.157 55.8519C56.1284 54.1712 67.8332 43.2155 68.7771 36.9284C69.7525 30.6413 62.9247 23.794 61.6661 22.8602C60.4076 21.9265 54.1147 20.8994 52.5414 21.5219C50.9682 22.1444 45.3675 24.8522 42.7245 31.1393C40.522 39.5428 44.7697 47.604 51.157 55.8519Z" fill="#FFB469"/>
<path d="M51.1854 53.2057C55.7477 51.6806 66.5401 41.5963 67.3896 35.8384C68.2391 30.0804 62.0092 23.7622 60.845 22.9218C59.6808 22.0814 53.8913 21.1166 52.444 21.708C50.9966 22.2993 45.8364 24.7893 43.4136 30.5472C41.3999 38.2349 45.3015 45.6425 51.1854 53.2057Z" fill="#FFC37B"/>
<path d="M46.6912 30.6719L57.2318 32.2592C62.8325 36.5232 64.2798 41.3475 63.6505 45.7671C59.5916 50.4669 54.1483 54.8554 51.1591 55.8514C46.4394 49.8133 42.9154 43.8374 42.2547 37.7682C42.3491 35.465 45.1809 31.8546 46.6912 30.6719Z" fill="#FFE8CA"/>
<path d="M42.8812 35.5894C43.07 41.752 47.2233 48.6615 51.2822 54.6685C54.177 53.7037 59.7147 47.1987 63.7107 42.6857C63.868 43.8684 63.8051 44.6154 63.6478 45.767C59.5889 50.4667 54.114 55.0731 51.0934 56.1002C46.3738 50.0621 42.8812 43.8373 42.2205 37.7681C42.2205 36.8966 42.661 36.1807 42.8812 35.5894Z" fill="#EFCEA8"/>
<path d="M54.9027 32.0104C55.4376 33.3798 54.2734 37.1147 52.2282 37.5816C49.3964 38.2352 48.4839 31.8547 48.4839 31.8547L54.9027 32.0104Z" fill="#EFCEA8"/>
<path d="M54.3944 31.2634C54.9293 32.6018 53.9539 36.43 51.9401 37.0525C50.0523 37.6439 48.07 31.2012 48.07 31.2012L54.3944 31.2634Z" fill="#68413C"/>
<path d="M51.8787 32.6951C52.4451 32.5395 53.0743 32.6951 53.4834 33.0997C53.8924 33.5043 54.0183 34.0957 53.8295 34.5937C53.4834 35.5585 52.8541 36.4611 51.9731 36.7101C51.1865 36.928 50.683 36.0877 50.3999 35.1228C50.2425 34.6248 50.3055 34.0646 50.5886 33.5977C50.8404 33.162 51.3123 32.8196 51.8787 32.6951Z" fill="#CE413E"/>
<path d="M52.3535 35.1538C52.7625 35.1538 53.1401 35.2161 53.4862 35.3094C53.1086 35.963 52.6052 36.5233 51.9759 36.71C51.3151 36.8968 50.8746 36.3054 50.56 35.5584C51.0319 35.3406 51.6612 35.1538 52.3535 35.1538Z" fill="#E25E54"/>
<path d="M47.3479 33.4423C47.3479 33.4423 48.2918 34.0337 49.4245 33.7536L49.0784 33.0688L47.3479 33.4423Z" fill="#68413C"/>
<path d="M55.9399 32.7576C55.9399 32.7576 55.405 33.7847 54.0521 34.127L53.8633 33.3801L55.9399 32.7576Z" fill="#68413C"/>
<path d="M49.7085 32.1039C50.4007 33.131 52.0369 34.3448 54.0191 33.7534C56.0014 33.1621 57.9836 31.8237 58.078 30.9834C58.2983 29.3338 53.5472 29.1159 51.911 29.2404C50.2748 29.3649 49.1421 31.2635 49.7085 32.1039Z" fill="#FFE8CA"/>
<path d="M51.2513 29.9873C52.5099 30.0184 57.1981 31.4812 59.1804 30.8588C61.1626 30.2674 61.6031 30.8588 61.729 30.0184C61.9492 28.3688 52.5413 27.5285 50.9052 27.653C49.269 27.7463 48.7656 29.925 51.2513 29.9873Z" fill="#FFC37B"/>
<path d="M49.8663 32.1037C49.3944 33.1308 47.9785 34.3757 46.7514 33.5354C42.8497 30.8587 46.185 28.3376 49.8034 28.68C50.9361 28.8045 50.2754 31.2633 49.8663 32.1037Z" fill="#FFE8CA"/>
<path d="M50.4665 29.3338C49.9946 30.3609 45.9042 31.3257 44.5197 30.7032C42.2858 29.7384 45.6839 26.875 48.1067 27.3418C50.3721 27.7776 50.8441 28.4934 50.4665 29.3338Z" fill="#FFC37B"/>
<path d="M49.3639 32.3525C50.3708 32.5393 52.6677 30.7963 52.3845 29.8626C52.1643 29.1156 47.4761 29.2712 47.1299 29.8003C46.8153 30.3295 48.42 32.1969 49.3639 32.3525Z" fill="#68413C"/>
<path d="M49.647 30.3608C50.6853 30.3608 51.6607 30.2986 52.4159 30.1741C52.2271 31.1078 50.3078 32.5395 49.3953 32.3528C48.6087 32.1971 47.413 30.9522 47.1613 30.2052C47.8535 30.2986 48.7031 30.3608 49.647 30.3608Z" fill="#4F2A28"/>
<path d="M57.0412 28.2756L55.9085 28.0266C55.9085 28.0266 56.1917 26.4704 56.6951 26.7194C57.1985 26.9995 57.0412 28.2756 57.0412 28.2756Z" fill="#68413C"/>
<path d="M50.3394 27.5907L49.2382 27.6219C49.2382 27.6219 49.2067 25.8478 49.7416 26.1279C50.3394 26.4391 50.3394 27.5907 50.3394 27.5907Z" fill="#68413C"/>
<path d="M59.4298 47.3237C60.2164 49.3779 62.5133 53.2996 64.4327 53.144C66.352 52.9883 67.2016 52.0857 66.2262 49.6892C65.2193 47.3237 59.9018 42.0015 58.8635 42.4995C57.8251 43.0597 59.4298 47.3237 59.4298 47.3237Z" fill="#FFC37B"/>
<path d="M58.867 42.5303C58.9614 42.4681 59.1187 42.4992 59.3075 42.5303C59.5907 43.2151 59.8424 43.7442 59.8424 43.7442C60.8178 45.705 63.4608 49.4399 65.3801 49.0975C65.5689 49.0664 65.7263 49.0353 65.8836 48.973C66.0409 49.222 66.1668 49.471 66.2612 49.6889C67.268 52.0543 66.4185 52.9881 64.4677 53.1437C62.5483 53.2993 60.2514 49.3777 59.4648 47.3235C59.4334 47.3235 57.8287 43.0594 58.867 42.5303Z" fill="#FFB469"/>
<path d="M57.6723 47.7282C59.0252 48.4441 60.3782 47.417 60.2209 46.3899C60.0636 45.3628 59.8748 42.406 58.9308 42.3126C57.1688 42.1881 54.9349 46.2343 57.6723 47.7282Z" fill="#FFC37B"/>
<path d="M61.5391 79.5061C59.6513 76.9851 56.788 72.4409 57.1656 70.8847C57.5431 69.3285 65.3778 65.3757 65.5351 67.2121C65.661 69.0173 61.5391 79.5061 61.5391 79.5061Z" fill="#FFC37B"/>
<path d="M58.8672 75.1175C58.8672 75.1175 56.413 77.7942 52.6687 75.0242L58.8672 75.1175Z" fill="#FFA35F"/>
<path d="M41.3414 45.705C41.5931 47.8525 42.2224 50.5915 43.2922 51.3696C44.8025 52.4589 46.8791 51.4941 46.5016 48.973C46.124 46.452 43.1349 40.6006 41.9707 40.9118C40.8379 41.192 41.3414 45.705 41.3414 45.705Z" fill="#FFC37B"/>
<path d="M41.9707 40.8811C42.0021 40.8811 42.0021 40.8811 42.0336 40.8811C42.8202 40.9434 42.9775 41.597 43.1349 42.3439C43.6697 44.9895 43.9529 47.6662 44.8025 47.4795C45.18 47.3861 45.4632 46.857 45.5576 46.0166C46.0296 47.1371 46.3757 48.1953 46.5016 48.9734C46.8791 51.4945 44.8025 53.113 43.2922 52.0236C42.2224 51.2455 41.5931 47.8841 41.3414 45.7365C41.3414 45.7054 40.8379 41.1923 41.9707 40.8811Z" fill="#FFB469"/>
<path d="M40.2076 46.2035C41.4662 47.0438 42.9136 46.1101 42.9136 45.0519C42.9136 43.9936 43.0709 41.0368 42.1584 40.8812C40.3964 40.6322 37.6905 44.5539 40.2076 46.2035Z" fill="#FFC37B"/>
<path d="M62.7013 77.6382C62.481 74.2768 62.7957 71.9114 62.7957 71.9114L63.7081 74.2457L62.7013 77.6382Z" fill="#FFA35F"/>
<path d="M63.3992 75.7713C63.1789 72.4099 63.4936 70.0444 63.4936 70.0444L64.406 72.3788L63.3992 75.7713Z" fill="#FFA35F"/>
<path d="M64.3393 72.9698C64.1191 69.6084 64.182 67.4297 64.182 67.4297L65.3777 69.5773L64.3393 72.9698Z" fill="#FFA35F"/>
<path d="M65.2867 69.5773C64.5945 66.2782 63.7449 61.7651 63.7449 61.7651L65.8216 66.0603L65.2867 69.5773Z" fill="#FFA35F"/>
<path d="M68.3074 60.5515L67.9613 67.8035L66.7656 65.687L68.3074 60.5515Z" fill="#FFA35F"/>
<path d="M68.7148 56.5364L68.8721 64.3486L67.7709 61.8275L68.7148 56.5364Z" fill="#FFA35F"/>
<path d="M68.9333 52.3037L69.5626 60.0536L68.3041 57.626L68.9333 52.3037Z" fill="#FFA35F"/>
<path opacity="0.5" d="M57.4811 25.879C58.016 26.5949 59.1487 26.7505 58.8026 25.9101C58.4565 25.0698 56.726 24.6652 56.3798 24.9764C56.0023 25.2876 56.9147 25.1009 57.4811 25.879Z" fill="#FFE8CA"/>
<path opacity="0.5" d="M49.1431 25.6299C48.7026 26.0968 47.916 26.0034 48.0733 25.5055C48.2306 24.9141 50.087 24.4161 50.6849 24.7585C51.3771 25.1942 49.7724 24.9763 49.1431 25.6299Z" fill="#FFE8CA"/>
<path d="M50.0573 31.8857C50.781 31.73 51.4103 31.2009 51.19 30.8897C51.0012 30.5784 49.8056 30.5784 49.3965 30.8897C49.019 31.1698 50.0573 31.8857 50.0573 31.8857Z" fill="#351817"/>
<path d="M47.8225 29.8314C47.8225 29.6758 48.3259 29.5513 48.9552 29.5513C49.5845 29.5513 50.0879 29.6758 50.0879 29.8314C50.0879 29.987 49.5845 30.1115 48.9552 30.1115C48.3259 30.1115 47.8225 29.987 47.8225 29.8314Z" fill="#9B6D6A"/>
<path d="M54.6181 81H51.1885C51.1885 81 51.8178 79.8484 52.51 79.6305C53.2337 79.4749 54.6181 81 54.6181 81Z" fill="#FFB469"/>
<path d="M62.517 80.9998H59.0874C59.0874 80.9998 59.5279 79.9105 60.2201 79.7237C60.9438 79.537 62.517 80.9998 62.517 80.9998Z" fill="#FFB469"/>
<path d="M25.6858 49.4305L25.685 49.4279C26.3824 48.1224 26.0463 46.5049 24.8865 45.5853L30.2223 35.5375C31.8418 36.0404 33.5624 35.1352 34.0653 33.5156C34.5682 31.8961 33.663 30.1756 32.0435 29.6726C31.435 29.4837 30.7827 29.4887 30.1773 29.687C29.9558 28.8805 29.4113 28.2012 28.6724 27.8094C27.1933 26.9798 25.3218 27.5063 24.4922 28.9854C23.7438 30.3196 24.0918 32.0013 25.3082 32.929L19.9716 42.9742C18.3521 42.4713 16.6315 43.3765 16.1286 44.9961C15.6257 46.6156 16.531 48.3363 18.1505 48.8391C18.759 49.0281 19.4113 49.023 20.0167 48.8247C20.4761 50.4572 22.1717 51.4082 23.8042 50.9488C24.6126 50.7214 25.2926 50.1727 25.6858 49.4305Z" fill="white"/>
</g>
</svg>
