<svg width="259" height="300" viewBox="0 0 259 300" fill="none" xmlns="http://www.w3.org/2000/svg">
<path d="M128.616 51.5702C123.81 51.5702 119.914 47.7007 119.914 42.9272L119.914 8.643C119.914 3.86947 123.81 -1.21197e-05 128.616 -2.70711e-05C133.422 -4.20224e-05 137.318 3.86942 137.318 8.64294L137.318 42.9271C137.318 47.6998 133.422 51.5701 128.616 51.5702V51.5702Z" fill="#171717"/>
<path d="M45.1091 75.4716C42.8814 75.4716 40.6554 74.628 38.9559 72.9401L14.5486 48.6974C11.1505 45.3223 11.1505 39.8496 14.5486 36.4745C17.9467 33.1002 23.4568 33.0993 26.8549 36.4744L51.2622 60.7171C54.6603 64.0922 54.6604 69.5649 51.2623 72.94C49.5636 74.6272 47.3359 75.4716 45.1091 75.4716V75.4716Z" fill="#171717"/>
<path d="M212.647 75.4713C210.42 75.4713 208.192 74.6277 206.494 72.9398C203.096 69.5647 203.096 64.0919 206.494 60.716L230.902 36.4731C234.3 33.098 239.81 33.098 243.209 36.4731C246.607 39.8482 246.607 45.3209 243.209 48.6969L218.801 72.9397C217.101 74.6277 214.875 75.4713 212.647 75.4713V75.4713Z" fill="#171717"/>
<g filter="url(#filter0_d)">
<path d="M88.2929 189.293L66.7277 158.256C65.8602 153.452 64.6456 143.661 66.7277 142.922C68.8099 142.183 81.9721 133.992 88.2929 129.989L104.467 126.849H160.425L187.939 151.05L160.425 189.293H88.2929Z" fill="#495059"/>
<mask id="path-5-outside-1" maskUnits="userSpaceOnUse" x="24.1031" y="73.3276" width="209" height="201" fill="black">
<rect fill="white" x="24.1031" y="73.3276" width="209" height="201"/>
<path fill-rule="evenodd" clip-rule="evenodd" d="M119.479 110.637C122.588 128.215 115.58 144.14 103.826 146.207C92.0724 148.273 80.024 135.698 76.9153 118.12C73.8065 100.541 80.8147 84.6162 92.5684 82.5499C104.322 80.4835 116.37 93.0584 119.479 110.637ZM178.577 118.12C175.468 135.698 163.42 148.273 151.666 146.207C139.912 144.14 132.904 128.215 136.013 110.637C139.122 93.0585 151.17 80.4836 162.924 82.55C174.677 84.6163 181.686 100.541 178.577 118.12ZM195.818 165.93C205.431 169.419 217.446 160.684 222.653 146.42C227.861 132.156 224.288 117.764 214.674 114.275C205.06 110.786 193.045 119.521 187.838 133.785C182.631 148.049 186.204 162.441 195.818 165.93ZM70.3113 133.785C75.5184 148.049 71.946 162.441 62.332 165.93C52.7181 169.419 40.7033 160.684 35.4962 146.419C30.2891 132.155 33.8615 117.764 43.4754 114.275C53.0893 110.786 65.1042 119.521 70.3113 133.785ZM63.0638 190.354C63.488 164.385 78.7513 156.337 92.0755 155.86C99.2223 155.603 105.883 160.354 112.136 164.814C117.541 168.669 122.641 172.307 127.488 172.307C132.381 172.307 137.321 168.789 142.701 164.957C148.815 160.603 155.499 155.843 163.329 155.382C178.049 154.515 191.916 163.437 192.34 189.406C191.848 203.166 185.577 209.569 177.382 217.937C171.376 224.069 164.337 231.256 157.781 243.167C144.129 267.969 127.916 265.961 127.916 265.961H127.488C127.488 265.961 111.135 267.861 97.6227 243.167C91.0048 231.07 83.8634 224.021 77.7977 218.033C69.7209 210.061 63.5511 203.971 63.0638 190.354Z"/>
</mask>
<path fill-rule="evenodd" clip-rule="evenodd" d="M119.479 110.637C122.588 128.215 115.58 144.14 103.826 146.207C92.0724 148.273 80.024 135.698 76.9153 118.12C73.8065 100.541 80.8147 84.6162 92.5684 82.5499C104.322 80.4835 116.37 93.0584 119.479 110.637ZM178.577 118.12C175.468 135.698 163.42 148.273 151.666 146.207C139.912 144.14 132.904 128.215 136.013 110.637C139.122 93.0585 151.17 80.4836 162.924 82.55C174.677 84.6163 181.686 100.541 178.577 118.12ZM195.818 165.93C205.431 169.419 217.446 160.684 222.653 146.42C227.861 132.156 224.288 117.764 214.674 114.275C205.06 110.786 193.045 119.521 187.838 133.785C182.631 148.049 186.204 162.441 195.818 165.93ZM70.3113 133.785C75.5184 148.049 71.946 162.441 62.332 165.93C52.7181 169.419 40.7033 160.684 35.4962 146.419C30.2891 132.155 33.8615 117.764 43.4754 114.275C53.0893 110.786 65.1042 119.521 70.3113 133.785ZM63.0638 190.354C63.488 164.385 78.7513 156.337 92.0755 155.86C99.2223 155.603 105.883 160.354 112.136 164.814C117.541 168.669 122.641 172.307 127.488 172.307C132.381 172.307 137.321 168.789 142.701 164.957C148.815 160.603 155.499 155.843 163.329 155.382C178.049 154.515 191.916 163.437 192.34 189.406C191.848 203.166 185.577 209.569 177.382 217.937C171.376 224.069 164.337 231.256 157.781 243.167C144.129 267.969 127.916 265.961 127.916 265.961H127.488C127.488 265.961 111.135 267.861 97.6227 243.167C91.0048 231.07 83.8634 224.021 77.7977 218.033C69.7209 210.061 63.5511 203.971 63.0638 190.354Z" fill="#FCFCFC"/>
<path d="M103.826 146.207L102.441 138.327L102.441 138.327L103.826 146.207ZM119.479 110.637L111.601 112.03L111.601 112.03L119.479 110.637ZM76.9153 118.12L84.793 116.726L84.793 116.726L76.9153 118.12ZM92.5684 82.5499L93.9536 90.429L93.9536 90.429L92.5684 82.5499ZM151.666 146.207L150.281 154.086L150.281 154.086L151.666 146.207ZM178.577 118.12L186.455 119.513L186.455 119.513L178.577 118.12ZM136.013 110.637L143.891 112.03L143.891 112.03L136.013 110.637ZM222.653 146.42L215.138 143.676L215.138 143.676L222.653 146.42ZM195.818 165.93L198.547 158.41L198.547 158.41L195.818 165.93ZM214.674 114.275L211.945 121.795L211.945 121.795L214.674 114.275ZM187.838 133.785L180.323 131.042L180.323 131.042L187.838 133.785ZM62.332 165.93L59.603 158.41L59.603 158.41L62.332 165.93ZM70.3113 133.785L77.8262 131.042L77.8262 131.042L70.3113 133.785ZM35.4962 146.419L27.9813 149.163L27.9813 149.163L35.4962 146.419ZM43.4754 114.275L46.2044 121.795L46.2044 121.795L43.4754 114.275ZM92.0755 155.86L91.7889 147.865L91.7889 147.865L92.0755 155.86ZM63.0638 190.354L55.0649 190.223L55.0614 190.432L55.0689 190.64L63.0638 190.354ZM112.136 164.814L107.491 171.327L107.491 171.327L112.136 164.814ZM142.701 164.957L138.06 158.441L138.06 158.441L142.701 164.957ZM163.329 155.382L162.858 147.396L162.858 147.396L163.329 155.382ZM192.34 189.406L200.335 189.692L200.343 189.484L200.339 189.276L192.34 189.406ZM177.382 217.937L171.666 212.339L171.666 212.339L177.382 217.937ZM157.781 243.167L150.772 239.309L150.772 239.309L157.781 243.167ZM127.916 265.961L128.898 258.022L128.409 257.961H127.916V265.961ZM127.488 265.961V257.961H127.025L126.565 258.015L127.488 265.961ZM97.6227 243.167L90.6043 247.007L90.6046 247.007L97.6227 243.167ZM77.7977 218.033L72.1776 223.727L72.1776 223.727L77.7977 218.033ZM105.211 154.086C114.534 152.447 121.02 145.478 124.548 137.461C128.102 129.385 129.149 119.375 127.357 109.244L111.601 112.03C112.918 119.476 112.015 126.218 109.904 131.016C107.767 135.873 104.872 137.9 102.441 138.327L105.211 154.086ZM69.0375 119.513C70.8294 129.645 75.246 138.691 81.3523 145.064C87.4131 151.39 95.8922 155.724 105.211 154.086L102.441 138.327C100.006 138.755 96.5844 137.835 92.9053 133.995C89.2718 130.203 86.1099 124.173 84.793 116.726L69.0375 119.513ZM91.1832 74.6707C81.861 76.3096 75.3742 83.2782 71.8461 91.2955C68.2922 99.3712 67.2457 109.381 69.0375 119.513L84.793 116.726C83.4761 109.28 84.3793 102.538 86.4907 97.7401C88.6279 92.8837 91.522 90.8565 93.9536 90.429L91.1832 74.6707ZM127.357 109.244C125.565 99.1115 121.148 90.0651 115.042 83.6919C108.981 77.3663 100.502 73.0324 91.1832 74.6707L93.9536 90.429C96.3881 90.001 99.8101 90.9214 103.489 94.7612C107.123 98.5535 110.285 104.584 111.601 112.03L127.357 109.244ZM150.281 154.086C159.6 155.724 168.079 151.39 174.14 145.065C180.246 138.691 184.663 129.645 186.455 119.513L170.699 116.727C169.382 124.173 166.22 130.203 162.587 133.995C158.908 137.835 155.486 138.756 153.051 138.327L150.281 154.086ZM128.135 109.244C126.343 119.375 127.39 129.385 130.944 137.461C134.472 145.478 140.959 152.447 150.281 154.086L153.051 138.327C150.62 137.9 147.725 135.873 145.588 131.016C143.477 126.218 142.574 119.477 143.891 112.03L128.135 109.244ZM164.309 74.6708C154.99 73.0325 146.511 77.3664 140.45 83.692C134.344 90.0652 129.927 99.1116 128.135 109.244L143.891 112.03C145.208 104.584 148.369 98.5536 152.003 94.7613C155.682 90.9215 159.104 90.0011 161.539 90.4291L164.309 74.6708ZM186.455 119.513C188.246 109.381 187.2 99.3713 183.646 91.2956C180.118 83.2783 173.631 76.3097 164.309 74.6708L161.539 90.4291C163.97 90.8566 166.864 92.8838 169.001 97.7402C171.113 102.538 172.016 109.28 170.699 116.727L186.455 119.513ZM215.138 143.676C213.007 149.516 209.59 153.885 206.184 156.361C202.728 158.873 200.095 158.972 198.547 158.41L193.089 173.45C201.154 176.377 209.335 173.852 215.592 169.303C221.899 164.718 227.093 157.587 230.168 149.163L215.138 143.676ZM211.945 121.795C213.489 122.355 215.433 124.108 216.457 128.234C217.468 132.305 217.27 137.836 215.138 143.676L230.168 149.163C233.244 140.739 233.863 131.943 231.986 124.379C230.122 116.871 225.474 109.684 217.403 106.755L211.945 121.795ZM195.353 136.529C197.485 130.689 200.902 126.32 204.308 123.844C207.763 121.332 210.396 121.233 211.945 121.795L217.403 106.755C209.338 103.828 201.157 106.353 194.899 110.902C188.593 115.487 183.399 122.618 180.323 131.042L195.353 136.529ZM198.547 158.41C197.003 157.849 195.059 156.097 194.034 151.971C193.024 147.9 193.221 142.369 195.353 136.529L180.323 131.042C177.248 139.466 176.628 148.262 178.506 155.826C180.369 163.334 185.018 170.521 193.089 173.45L198.547 158.41ZM65.061 173.45C73.1314 170.521 77.7802 163.334 79.6439 155.826C81.5213 148.262 80.9014 139.466 77.8262 131.042L62.7963 136.529C64.9282 142.369 65.1257 147.9 64.1152 151.971C63.091 156.097 61.1466 157.849 59.603 158.41L65.061 173.45ZM27.9813 149.163C31.0567 157.587 36.2509 164.718 42.5573 169.303C48.8147 173.852 56.9961 176.377 65.061 173.45L59.603 158.41C58.0541 158.972 55.4211 158.873 51.9659 156.361C48.5595 153.885 45.1429 149.516 43.0111 143.676L27.9813 149.163ZM40.7464 106.755C32.676 109.684 28.0273 116.871 26.1636 124.379C24.2861 131.942 24.906 140.739 27.9813 149.163L43.0111 143.676C40.8792 137.836 40.6818 132.305 41.6923 128.234C42.7165 124.108 44.6609 122.355 46.2044 121.795L40.7464 106.755ZM77.8262 131.042C74.7508 122.618 69.5565 115.487 63.2502 110.902C56.9928 106.353 48.8114 103.828 40.7464 106.755L46.2044 121.795C47.7534 121.233 50.3863 121.332 53.8416 123.844C57.2479 126.32 60.6646 130.689 62.7963 136.529L77.8262 131.042ZM91.7889 147.865C83.7125 148.154 74.4957 150.758 67.1893 157.779C59.7748 164.903 55.3031 175.635 55.0649 190.223L71.0627 190.485C71.2486 179.104 74.6207 172.827 78.275 169.316C82.0373 165.701 87.1142 164.043 92.362 163.854L91.7889 147.865ZM116.781 158.301C113.751 156.139 110.043 153.477 106.092 151.45C102.09 149.398 97.2392 147.669 91.7889 147.865L92.362 163.854C94.0585 163.794 96.111 164.313 98.79 165.687C101.519 167.086 104.268 169.029 107.491 171.327L116.781 158.301ZM127.488 164.307C127.006 164.307 125.91 164.103 123.845 162.979C121.797 161.864 119.583 160.299 116.781 158.301L107.491 171.327C110.094 173.184 113.132 175.365 116.197 177.033C119.246 178.692 123.123 180.307 127.488 180.307V164.307ZM138.06 158.441C135.267 160.43 133.111 161.951 131.115 163.027C129.133 164.096 128.042 164.307 127.488 164.307V180.307C131.827 180.307 135.653 178.758 138.709 177.11C141.751 175.47 144.755 173.316 147.342 171.473L138.06 158.441ZM162.858 147.396C152.334 148.016 143.77 154.375 138.06 158.441L147.342 171.473C153.861 166.831 158.663 163.671 163.799 163.368L162.858 147.396ZM200.339 189.276C200.105 174.947 196.128 163.96 188.857 156.678C181.54 149.35 171.972 146.859 162.858 147.396L163.799 163.368C169.406 163.038 174.131 164.575 177.534 167.983C180.983 171.438 184.151 177.897 184.341 189.537L200.339 189.276ZM183.097 223.534C187.057 219.491 191.369 215.142 194.586 209.848C197.976 204.27 200.042 197.89 200.335 189.692L184.345 189.12C184.146 194.683 182.831 198.383 180.913 201.539C178.823 204.978 175.901 208.015 171.666 212.339L183.097 223.534ZM164.789 247.025C170.787 236.128 177.167 229.59 183.097 223.534L171.666 212.339C165.586 218.548 157.887 226.384 150.772 239.309L164.789 247.025ZM127.916 265.961C126.933 273.901 126.939 273.902 126.945 273.902C126.948 273.903 126.954 273.903 126.959 273.904C126.967 273.905 126.977 273.906 126.986 273.907C127.005 273.909 127.025 273.912 127.046 273.914C127.087 273.919 127.134 273.923 127.184 273.928C127.285 273.938 127.402 273.948 127.536 273.958C127.803 273.977 128.136 273.993 128.529 273.998C129.315 274.009 130.345 273.977 131.576 273.835C134.046 273.551 137.311 272.83 141.019 271.157C148.545 267.762 157.233 260.751 164.789 247.025L150.772 239.309C144.676 250.384 138.432 254.771 134.439 256.572C132.387 257.498 130.746 257.825 129.748 257.94C129.246 257.998 128.903 258.002 128.749 258C128.672 257.999 128.643 257.996 128.666 257.998C128.678 257.999 128.703 258.001 128.741 258.004C128.76 258.006 128.783 258.009 128.809 258.011C128.822 258.013 128.836 258.015 128.851 258.016C128.859 258.017 128.866 258.018 128.874 258.019C128.878 258.019 128.884 258.02 128.886 258.02C128.892 258.021 128.898 258.022 127.916 265.961ZM127.488 273.961H127.916V257.961H127.488V273.961ZM90.6046 247.007C98.0978 260.701 106.793 267.708 114.327 271.114C118.036 272.791 121.306 273.522 123.776 273.816C125.007 273.963 126.037 274.001 126.822 273.995C127.214 273.991 127.546 273.977 127.813 273.96C127.946 273.952 128.063 273.943 128.163 273.933C128.212 273.929 128.258 273.924 128.3 273.92C128.32 273.918 128.34 273.916 128.359 273.914C128.368 273.913 128.377 273.912 128.386 273.911C128.39 273.91 128.396 273.91 128.399 273.909C128.405 273.909 128.411 273.908 127.488 265.961C126.565 258.015 126.571 258.014 126.577 258.013C126.579 258.013 126.585 258.013 126.589 258.012C126.597 258.011 126.604 258.01 126.612 258.01C126.626 258.008 126.64 258.006 126.653 258.005C126.678 258.003 126.7 258 126.719 257.999C126.756 257.995 126.78 257.994 126.79 257.993C126.81 257.992 126.777 257.994 126.696 257.995C126.534 257.996 126.181 257.99 125.668 257.928C124.649 257.807 122.986 257.47 120.918 256.535C116.897 254.717 110.66 250.327 104.641 239.327L90.6046 247.007ZM72.1776 223.727C78.1507 229.623 84.5785 235.992 90.6043 247.007L104.641 239.327C97.4312 226.149 89.5761 218.419 83.4177 212.34L72.1776 223.727ZM55.0689 190.64C55.3595 198.759 57.3971 205.052 60.7824 210.521C63.9883 215.7 68.2832 219.883 72.1776 223.727L83.4177 212.34C79.2353 208.212 76.407 205.363 74.3869 202.1C72.5464 199.126 71.2554 195.566 71.0587 190.068L55.0689 190.64Z" fill="#495059" mask="url(#path-5-outside-1)"/>
<path fill-rule="evenodd" clip-rule="evenodd" d="M69.7764 209.438C72.0582 212.365 74.7976 215.069 77.8007 218.034C80.0856 220.289 82.5231 222.695 85.0278 225.465C81.4209 221.059 77.8773 217.561 74.6401 214.365C72.9202 212.668 71.2869 211.055 69.7764 209.438ZM103.423 252.064C114.278 263.461 124.331 262.293 124.331 262.293H124.758C124.758 262.293 140.971 264.3 154.623 239.499C161.18 227.588 168.219 220.401 174.224 214.269C182.42 205.9 188.69 199.498 189.183 185.738C189.009 175.091 186.575 167.309 182.749 161.893C188.358 167.219 192.125 176.062 192.343 189.406C191.851 203.166 185.58 209.569 177.385 217.937C171.379 224.069 164.34 231.256 157.784 243.167C144.132 267.969 127.919 265.961 127.919 265.961H127.491C127.491 265.961 115.402 267.366 103.423 252.064Z" fill="#E3E2E1"/>
<path fill-rule="evenodd" clip-rule="evenodd" d="M149.288 142.505C161.042 144.571 173.09 131.996 176.199 114.418C177.904 104.775 176.566 95.6303 173.069 88.9973C170.38 85.563 166.928 83.2533 162.927 82.5499C151.173 80.4835 139.125 93.0584 136.016 110.637C134.311 120.279 135.65 129.424 139.146 136.057C141.836 139.491 145.287 141.801 149.288 142.505Z" fill="#FCFCFC"/>
<path fill-rule="evenodd" clip-rule="evenodd" d="M101.448 142.504C113.202 140.438 120.21 124.513 117.101 106.934C116.154 101.58 114.378 96.6901 112.033 92.5366C115.556 97.3535 118.236 103.594 119.482 110.637C122.591 128.215 115.583 144.141 103.829 146.207C95.6554 147.644 87.3393 142 81.9861 132.518C87.2541 139.722 94.4041 143.742 101.448 142.504Z" fill="#E3E2E1"/>
<path fill-rule="evenodd" clip-rule="evenodd" d="M193.44 162.227C203.054 165.716 215.068 156.981 220.276 142.717C223.576 133.675 223.349 124.581 220.292 118.246C225.466 124.339 226.673 135.417 222.656 146.419C217.449 160.683 205.434 169.418 195.821 165.93C192.301 164.652 189.591 161.914 187.825 158.255C189.359 160.061 191.241 161.429 193.44 162.227Z" fill="#E3E2E1"/>
<path fill-rule="evenodd" clip-rule="evenodd" d="M59.9542 162.227C69.5681 158.738 73.1405 144.347 67.9334 130.083C67.1591 127.961 66.2343 125.963 65.1892 124.108C67.2353 126.905 68.9937 130.167 70.3143 133.785C75.5214 148.049 71.949 162.44 62.3351 165.929C54.1508 168.899 44.2265 163.01 38.2434 152.393C44.2652 160.625 52.7785 164.831 59.9542 162.227Z" fill="#E3E2E1"/>
<g filter="url(#filter1_d)">
<ellipse cx="127.338" cy="208.456" rx="31.6163" ry="31.5226" fill="#FF4B4B"/>
</g>
<path fill-rule="evenodd" clip-rule="evenodd" d="M129.341 217.553L121.981 212.339C121.74 212.17 121.456 212.078 121.165 212.078H114.913V204.837H121.165C121.456 204.837 121.74 204.745 121.981 204.576L129.341 199.361V217.553ZM131.456 195.212C130.981 194.952 130.408 194.987 129.968 195.3L120.717 201.855H113.47C112.673 201.855 112.027 202.521 112.027 203.346V213.568C112.027 214.392 112.673 215.059 113.47 215.059H120.717L129.968 221.614C130.212 221.787 130.498 221.873 130.784 221.873C131.014 221.873 131.245 221.816 131.456 221.702C131.929 221.444 132.226 220.937 132.226 220.382V196.53C132.226 195.977 131.929 195.47 131.456 195.212ZM136.236 203.049C135.735 202.408 134.828 202.308 134.207 202.823C133.587 203.339 133.488 204.276 133.987 204.919C135.481 206.836 135.481 210.077 133.987 211.994C133.488 212.637 133.587 213.574 134.207 214.09C134.474 214.312 134.793 214.42 135.111 214.42C135.532 214.42 135.95 214.229 136.236 213.864C138.597 210.831 138.597 206.082 136.236 203.049ZM136.165 198.561C136.672 197.926 137.583 197.838 138.196 198.363C141.324 201.041 143.047 204.626 143.047 208.457C143.047 212.287 141.324 215.872 138.196 218.55C137.926 218.78 137.6 218.893 137.277 218.893C136.861 218.893 136.45 218.708 136.165 218.352C135.657 217.718 135.742 216.779 136.357 216.253C138.809 214.152 140.161 211.384 140.161 208.457C140.161 205.529 138.809 202.761 136.357 200.66C135.742 200.134 135.657 199.195 136.165 198.561Z" fill="white"/>
<g filter="url(#filter2_d)">
<path fill-rule="evenodd" clip-rule="evenodd" d="M125.385 237.972C142.813 237.972 156.941 223.885 156.941 206.509C156.941 198.316 153.801 190.855 148.654 185.257C154.952 191.009 158.901 199.276 158.901 208.463C158.901 225.839 144.773 239.925 127.345 239.925C118.134 239.925 109.844 235.99 104.076 229.715C109.69 234.843 117.171 237.972 125.385 237.972Z" fill="#EE3E3E"/>
</g>
</g>
<g filter="url(#filter3_d)">
<path d="M129.721 145.406H128.669V142.742L127.473 144.685H127.354L126.158 142.742V145.406H125.106V140.824H126.158L127.41 142.861L128.661 140.824H129.713V145.406H129.721Z" fill="white"/>
<path d="M132.718 143.646V145.406H131.666V143.646L130.112 140.823H131.307L132.184 142.591L133.061 140.823H134.256L132.718 143.646Z" fill="white"/>
<path d="M123.369 140.824V157.893H119.925V156.822C119.168 157.686 118.044 158.218 116.506 158.218C113.501 158.218 111.022 155.593 111.022 152.192C111.022 148.791 113.501 146.167 116.506 146.167C118.044 146.167 119.168 146.69 119.925 147.562V140.824H123.369ZM119.925 152.184C119.925 150.472 118.778 149.402 117.191 149.402C115.605 149.402 114.458 150.472 114.458 152.184C114.458 153.897 115.605 154.967 117.191 154.967C118.778 154.967 119.925 153.897 119.925 152.184Z" fill="white"/>
<path d="M123.289 152.184C123.289 148.783 125.999 146.159 129.37 146.159C132.742 146.159 135.452 148.783 135.452 152.184C135.452 155.585 132.742 158.21 129.37 158.21C125.999 158.21 123.289 155.585 123.289 152.184ZM132.009 152.184C132.009 150.567 130.861 149.489 129.37 149.489C127.88 149.489 126.732 150.559 126.732 152.184C126.732 153.81 127.88 154.88 129.37 154.88C130.861 154.88 132.009 153.81 132.009 152.184Z" fill="white"/>
<path d="M147.719 146.476V157.322C147.719 161.159 144.714 162.776 141.661 162.776C139.278 162.776 137.277 161.888 136.225 160.017L139.166 158.328C139.605 159.129 140.266 159.763 141.78 159.763C143.391 159.763 144.371 158.939 144.371 157.322V156.275C143.614 157.211 142.514 157.758 141.023 157.758C137.763 157.758 135.38 155.11 135.38 151.962C135.38 148.815 137.763 146.167 141.023 146.167C142.514 146.167 143.614 146.714 144.371 147.65V146.476H147.719ZM144.363 151.954C144.363 150.377 143.215 149.306 141.589 149.306C139.963 149.306 138.815 150.377 138.815 151.954C138.815 153.532 139.963 154.602 141.589 154.602C143.215 154.602 144.363 153.532 144.363 151.954Z" fill="white"/>
<g filter="url(#filter4_d)">
<g opacity="0.2">
<g opacity="0.2">
<path opacity="0.2" d="M133.467 156.862L133.459 156.823C133.459 156.823 133.459 156.823 133.467 156.823V156.862Z" fill="#3E2670"/>
</g>
</g>
<path d="M133.243 155.251C131.728 156.789 128.883 156.544 128.883 156.544C128.883 156.544 126.006 156.131 124.89 154.292C123.774 152.445 125.232 150.415 125.232 150.415C125.232 150.415 125.288 150.138 125.392 149.726L125.416 149.638C125.416 149.638 125.416 149.638 125.416 149.631C125.695 148.536 126.277 146.65 126.986 146.269C127.113 146.198 127.233 146.174 127.337 146.182C127.703 146.206 127.942 146.634 128.094 147.062C128.245 147.49 128.293 147.91 128.293 147.91C128.317 147.902 129.154 147.577 129.927 147.664C130.692 147.752 131.433 148.259 131.457 148.275C131.457 148.275 131.665 147.728 131.983 147.308C132.286 146.903 132.685 146.61 133.107 146.983C133.498 147.324 133.689 148.259 133.777 149.179C133.888 150.304 133.856 151.422 133.856 151.422C133.856 151.422 134.757 153.713 133.243 155.251Z" fill="#545176"/>
<path d="M129.306 156.576C129.051 156.576 128.891 156.56 128.883 156.56C128.851 156.552 125.982 156.124 124.874 154.293C124.292 153.334 124.42 152.327 124.627 151.653C124.842 150.955 125.185 150.448 125.217 150.408C125.225 150.376 125.28 150.107 125.376 149.726L125.4 149.639C125.4 149.639 125.4 149.639 125.4 149.631C125.679 148.537 126.261 146.642 126.986 146.254C127.114 146.183 127.233 146.159 127.345 146.167C127.656 146.191 127.919 146.492 128.118 147.055C128.246 147.419 128.301 147.784 128.317 147.879C128.461 147.824 129.218 147.562 129.919 147.641H129.935C130.645 147.721 131.33 148.165 131.45 148.244C131.49 148.141 131.689 147.665 131.968 147.293C132.199 146.983 132.43 146.817 132.653 146.793C132.813 146.777 132.972 146.833 133.116 146.967C133.45 147.261 133.673 148.006 133.793 149.171C133.905 150.258 133.873 151.344 133.873 151.415C133.889 151.463 134.096 152.025 134.136 152.755C134.168 153.46 134.04 154.459 133.259 155.26C132.103 156.441 130.158 156.576 129.306 156.576ZM127.313 146.198C127.217 146.198 127.114 146.23 127.002 146.286C126.293 146.666 125.719 148.553 125.44 149.639C125.44 149.647 125.44 149.647 125.44 149.647L125.416 149.734C125.312 150.139 125.257 150.416 125.257 150.424V150.432C125.257 150.44 124.89 150.947 124.667 151.669C124.46 152.335 124.34 153.334 124.914 154.285C126.014 156.1 128.867 156.529 128.899 156.529C128.923 156.529 131.753 156.758 133.243 155.244C134.016 154.451 134.144 153.46 134.112 152.763C134.08 152.01 133.857 151.431 133.857 151.431C133.857 151.423 133.889 150.305 133.777 149.187C133.657 148.03 133.434 147.293 133.108 147.007C132.964 146.88 132.821 146.825 132.669 146.841C132.454 146.864 132.231 147.023 132.008 147.324C131.697 147.736 131.49 148.284 131.49 148.284L131.482 148.299H131.458L131.45 148.291C131.418 148.276 130.7 147.776 129.951 147.681H129.935C129.202 147.594 128.389 147.895 128.317 147.927L128.293 147.951L128.285 147.911C128.285 147.903 128.23 147.491 128.086 147.071C127.951 146.69 127.719 146.238 127.353 146.206C127.329 146.198 127.321 146.198 127.313 146.198Z" fill="#3E2670"/>
<g opacity="0.6">
<g opacity="0.6">
<path opacity="0.6" d="M131.419 148.346C131.052 148.259 130.67 148.14 130.303 148.061C130.239 148.14 130.048 148.18 129.825 148.164C129.57 148.14 129.371 148.045 129.355 147.95C128.717 147.919 128.263 147.982 128.263 147.982C128.287 147.974 129.123 147.649 129.897 147.736C130.662 147.816 131.403 148.331 131.419 148.346Z" fill="white"/>
</g>
</g>
<g opacity="0.6">
<g opacity="0.6">
<path opacity="0.6" d="M133.778 149.17C133.188 146.191 132.017 147.269 131.985 147.3C132.288 146.896 132.686 146.603 133.109 146.976C133.499 147.324 133.69 148.251 133.778 149.17Z" fill="white"/>
</g>
</g>
<g opacity="0.6">
<g opacity="0.6">
<path opacity="0.6" d="M128.095 147.023C126.78 144.978 125.481 149.37 125.417 149.6C125.696 148.506 126.278 146.619 126.987 146.238C127.115 146.167 127.234 146.143 127.338 146.151C127.713 146.167 127.952 146.595 128.095 147.023Z" fill="white"/>
</g>
</g>
<path d="M127.855 149.434C127.776 149.434 127.696 149.434 127.608 149.449C126.237 149.664 125.998 151.836 125.998 151.836C125.998 151.836 125.353 151.416 124.882 152.145C124.548 152.668 124.595 153.405 124.643 153.786C124.707 153.953 124.779 154.119 124.874 154.285C125.966 156.125 128.796 156.529 128.796 156.529H128.852C128.86 156.529 128.907 156.537 128.907 156.537C128.907 156.537 131.753 156.791 133.243 155.253C133.379 155.118 133.482 154.967 133.586 154.817C133.73 154.46 133.945 153.754 133.738 153.168C133.451 152.351 132.725 152.613 132.725 152.613C132.725 152.613 132.996 150.44 131.713 149.917C131.554 149.854 131.394 149.822 131.251 149.814C130.207 149.79 129.497 151.075 129.497 151.075C129.497 151.075 129.099 149.664 128.086 149.449C128.015 149.449 127.935 149.442 127.855 149.434Z" fill="white"/>
<g opacity="0.2">
<g opacity="0.2">
<path opacity="0.2" d="M133.801 154.23C133.753 154.468 133.682 154.674 133.618 154.824C133.522 154.975 133.411 155.118 133.275 155.26C131.785 156.806 128.939 156.545 128.939 156.545C128.939 156.545 128.891 156.537 128.883 156.537C128.875 156.537 128.828 156.537 128.828 156.537C128.828 156.537 125.998 156.133 124.906 154.293C124.81 154.127 124.739 153.96 124.675 153.794C124.659 153.675 124.643 153.516 124.635 153.342C124.659 153.382 124.683 153.421 124.707 153.469C125.871 155.308 128.875 155.712 128.875 155.712C128.875 155.712 128.931 155.712 128.939 155.712C128.947 155.712 128.995 155.72 128.995 155.72C128.995 155.72 132.024 155.974 133.61 154.436C133.682 154.373 133.737 154.301 133.801 154.23Z" fill="#3E2670"/>
</g>
</g>
<path d="M129.355 156.704C129.084 156.704 128.908 156.688 128.876 156.688H128.868C128.749 156.672 125.911 156.244 124.771 154.365C124.293 153.572 124.206 152.629 124.508 151.622C124.716 150.956 125.027 150.472 125.106 150.361C125.186 149.989 125.903 146.699 126.931 146.144C127.075 146.064 127.226 146.033 127.362 146.041C128.063 146.088 128.342 147.246 128.422 147.713C128.717 147.618 129.339 147.452 129.936 147.515C129.944 147.515 129.952 147.515 129.96 147.515C130.566 147.587 131.14 147.896 131.403 148.054C131.562 147.682 131.993 146.818 132.559 146.683C132.718 146.643 132.957 146.643 133.212 146.873C134.089 147.65 134.025 151.019 134.009 151.392C134.057 151.519 134.232 152.058 134.272 152.748C134.32 153.794 134.001 154.69 133.356 155.348C132.168 156.553 130.239 156.704 129.355 156.704ZM128.9 156.402C129.02 156.41 131.714 156.601 133.14 155.15C134.575 153.691 133.73 151.487 133.722 151.463C133.714 151.447 133.714 151.424 133.714 151.408C133.746 150.409 133.682 147.674 133.013 147.079C132.885 146.96 132.75 146.921 132.622 146.952C132.16 147.063 131.722 147.975 131.594 148.316C131.578 148.356 131.546 148.387 131.499 148.403C131.459 148.419 131.411 148.411 131.371 148.387C131.363 148.379 130.654 147.888 129.928 147.801C129.92 147.801 129.912 147.801 129.904 147.801C129.171 147.713 128.35 148.031 128.342 148.038C128.302 148.054 128.255 148.054 128.215 148.031C128.175 148.007 128.151 147.967 128.143 147.927C128.087 147.523 127.824 146.366 127.322 146.326C127.242 146.318 127.147 146.342 127.051 146.397C126.262 146.818 125.569 149.465 125.361 150.449C125.353 150.464 125.345 150.488 125.337 150.504C125.321 150.52 123.943 152.478 124.995 154.222C126.063 155.951 128.781 156.387 128.9 156.402Z" fill="#3E2670"/>
<path d="M126.12 149.457C126.12 149.457 126.765 148.609 127.714 148.157C127.714 148.157 127.586 146.968 127.236 146.928C126.805 146.881 126.12 149.457 126.12 149.457Z" fill="#F05483"/>
<path d="M126.071 149.544L126.094 149.449C126.126 149.346 126.78 146.904 127.218 146.904C127.226 146.904 127.226 146.904 127.234 146.904C127.601 146.944 127.728 148.102 127.728 148.157V148.173L127.712 148.181C126.78 148.625 126.134 149.465 126.126 149.473L126.071 149.544ZM127.218 146.944C126.892 146.944 126.365 148.617 126.158 149.378C126.334 149.164 126.915 148.522 127.689 148.149C127.673 148.022 127.545 146.984 127.226 146.944C127.226 146.944 127.218 146.944 127.218 146.944Z" fill="#3E2670"/>
<path d="M126.119 149.592C126.103 149.592 126.079 149.584 126.063 149.576C126.007 149.552 125.975 149.489 125.991 149.425C125.991 149.417 126.166 148.767 126.39 148.133C126.82 146.92 127.059 146.777 127.242 146.801C127.665 146.849 127.8 147.848 127.832 148.149C127.84 148.204 127.808 148.252 127.76 148.276C126.852 148.704 126.222 149.528 126.214 149.536C126.19 149.568 126.158 149.592 126.119 149.592ZM127.218 147.055C127.195 147.063 127.003 147.158 126.613 148.268C126.525 148.506 126.453 148.752 126.39 148.95C126.661 148.68 127.067 148.331 127.569 148.078C127.505 147.554 127.346 147.079 127.218 147.055Z" fill="#3E2670"/>
<path d="M133.252 150.225C133.252 150.225 132.822 149.25 132.001 148.592C132.001 148.592 132.399 147.466 132.75 147.506C133.18 147.561 133.252 150.225 133.252 150.225Z" fill="#F05483"/>
<path d="M133.276 150.321L133.236 150.233C133.228 150.225 132.798 149.258 131.993 148.608L131.985 148.6V148.592C132.001 148.545 132.391 147.451 132.758 147.49C133.196 147.538 133.268 150.114 133.276 150.225V150.321ZM132.025 148.592C132.694 149.131 133.109 149.892 133.236 150.138C133.212 149.345 133.085 147.562 132.758 147.53C132.439 147.49 132.072 148.465 132.025 148.592Z" fill="#3E2670"/>
<path d="M133.252 150.352C133.204 150.352 133.156 150.321 133.133 150.273C133.125 150.265 132.702 149.314 131.921 148.695C131.881 148.664 131.865 148.6 131.881 148.553C131.985 148.267 132.343 147.332 132.774 147.379C132.957 147.403 133.164 147.593 133.3 148.87C133.372 149.544 133.388 150.218 133.388 150.218C133.388 150.281 133.348 150.336 133.284 150.344C133.276 150.352 133.26 150.352 133.252 150.352ZM132.152 148.553C132.575 148.909 132.893 149.345 133.093 149.67C133.077 149.456 133.061 149.211 133.037 148.949C132.917 147.776 132.75 147.641 132.734 147.625C132.606 147.633 132.343 148.061 132.152 148.553Z" fill="#3E2670"/>
<path d="M130.654 152.723C130.702 152.605 130.789 152.517 130.885 152.438C130.981 152.367 131.092 152.304 131.212 152.272C131.331 152.24 131.459 152.232 131.586 152.256C131.714 152.28 131.833 152.343 131.905 152.446C131.841 152.454 131.786 152.454 131.73 152.454C131.674 152.462 131.626 152.462 131.578 152.478C131.483 152.494 131.387 152.517 131.291 152.541C131.196 152.565 131.1 152.597 130.996 152.628C130.885 152.668 130.773 152.7 130.654 152.723Z" fill="#3E2670"/>
<path d="M127.792 152.422C127.681 152.367 127.585 152.319 127.489 152.264C127.394 152.208 127.306 152.161 127.218 152.113C127.131 152.066 127.043 152.018 126.955 151.979C126.908 151.955 126.86 151.939 126.812 151.923C126.764 151.907 126.708 151.891 126.645 151.876C126.74 151.796 126.876 151.757 127.003 151.765C127.131 151.765 127.258 151.804 127.362 151.868C127.474 151.931 127.561 152.01 127.641 152.105C127.713 152.192 127.768 152.295 127.792 152.422Z" fill="#3E2670"/>
<g opacity="0.3">
<g opacity="0.3">
<path opacity="0.3" d="M131.02 153.872C130.996 154.094 130.518 154.641 130.008 154.284C129.561 153.975 129.872 153.531 129.872 153.531L128.47 153.341C128.47 153.341 128.796 154.007 128.191 154.126C127.585 154.237 127.354 153.404 127.354 153.404C127.003 154.213 127.609 154.586 127.609 154.586C127.76 155.608 128.214 156.147 128.836 156.227C129.817 156.361 130.454 154.927 130.454 154.927C131.148 154.855 131.02 153.872 131.02 153.872ZM129.577 155.394C129.569 155.458 129.554 155.521 129.522 155.577C129.402 155.83 129.131 155.997 128.844 155.957C128.549 155.918 128.334 155.68 128.294 155.402C128.286 155.347 128.286 155.283 128.294 155.228L128.39 154.522C128.541 154.498 128.677 154.443 128.796 154.356C128.988 154.221 129.115 154.015 129.155 153.769C129.107 154.158 129.322 154.522 129.665 154.689L129.577 155.394Z" fill="#3E2670"/>
</g>
</g>
<path d="M128.301 155.394C127.967 155.029 127.864 154.435 127.864 154.435C127.943 154.475 128.039 154.498 128.134 154.514C128.23 154.53 128.317 154.522 128.404 154.514L128.309 155.219C128.293 155.275 128.293 155.338 128.301 155.394Z" fill="#3E2670"/>
<path d="M129.681 154.672L129.586 155.385C129.578 155.449 129.562 155.512 129.53 155.568C129.41 155.821 129.139 155.987 128.852 155.948C128.558 155.908 128.342 155.671 128.302 155.393C128.295 155.338 128.295 155.274 128.302 155.219L128.398 154.514C128.55 154.49 128.685 154.435 128.805 154.348C128.996 154.213 129.123 154.007 129.163 153.761C129.115 154.149 129.339 154.514 129.681 154.672Z" fill="#EE307B"/>
<path d="M130.239 154.76C130.239 154.76 129.984 155.307 129.53 155.576C129.554 155.52 129.57 155.457 129.586 155.394L129.681 154.681C129.769 154.72 129.865 154.752 129.96 154.768C130.056 154.776 130.152 154.768 130.239 154.76Z" fill="#3E2670"/>
<path d="M128.397 154.568H128.39C128.358 154.56 128.334 154.537 128.342 154.505L128.358 154.387C128.366 154.356 128.39 154.332 128.421 154.34C128.453 154.348 128.476 154.371 128.468 154.403L128.453 154.521C128.453 154.545 128.429 154.568 128.397 154.568Z" fill="#3E2670"/>
<path d="M129.681 154.734H129.673C129.641 154.726 129.618 154.703 129.626 154.671L129.641 154.561C129.649 154.529 129.673 154.506 129.704 154.514C129.736 154.522 129.76 154.545 129.752 154.577L129.736 154.687C129.736 154.711 129.712 154.734 129.681 154.734Z" fill="#3E2670"/>
<path d="M130.104 154.863C130.056 154.863 130.008 154.863 129.952 154.855C129.562 154.799 129.243 154.538 129.107 154.197C128.884 154.49 128.51 154.657 128.119 154.609C127.84 154.57 127.593 154.427 127.426 154.213C127.258 153.991 127.179 153.722 127.218 153.452C127.226 153.381 127.29 153.334 127.362 153.349C127.434 153.357 127.482 153.421 127.466 153.492C127.434 153.698 127.489 153.896 127.625 154.063C127.753 154.229 127.944 154.332 128.151 154.364C128.581 154.419 128.988 154.134 129.052 153.714L129.299 153.746C129.243 154.166 129.554 154.554 129.984 154.609C130.423 154.673 130.821 154.372 130.885 153.952C130.893 153.88 130.957 153.833 131.028 153.849C131.1 153.857 131.148 153.92 131.132 153.991C131.06 154.49 130.614 154.863 130.104 154.863Z" fill="#3E2670"/>
<path d="M129.538 155.662C129.498 155.662 129.45 155.639 129.426 155.599C129.394 155.544 129.41 155.464 129.474 155.425C129.889 155.179 130.136 154.672 130.136 154.664C130.168 154.601 130.239 154.577 130.303 154.601C130.367 154.632 130.391 154.704 130.367 154.767C130.359 154.791 130.088 155.353 129.602 155.639C129.586 155.662 129.562 155.662 129.538 155.662Z" fill="#3E2670"/>
<path d="M128.309 155.488C128.277 155.488 128.237 155.472 128.213 155.449C127.854 155.06 127.743 154.45 127.743 154.427C127.735 154.355 127.775 154.292 127.847 154.284C127.918 154.276 127.982 154.316 127.99 154.387C127.99 154.395 128.094 154.95 128.396 155.282C128.444 155.33 128.436 155.409 128.388 155.457C128.365 155.472 128.341 155.488 128.309 155.488Z" fill="#3E2670"/>
<path d="M128.948 156.051C128.916 156.051 128.876 156.051 128.844 156.043C128.422 155.987 128.127 155.591 128.191 155.171L128.286 154.466C128.294 154.395 128.358 154.347 128.43 154.363C128.502 154.371 128.549 154.435 128.534 154.506L128.438 155.211C128.398 155.496 128.597 155.766 128.884 155.805C129.02 155.821 129.155 155.789 129.267 155.702C129.378 155.615 129.45 155.496 129.474 155.354L129.57 154.641C129.578 154.569 129.641 154.522 129.713 154.538C129.785 154.546 129.833 154.609 129.817 154.68L129.721 155.393C129.689 155.599 129.586 155.781 129.418 155.908C129.275 155.995 129.115 156.051 128.948 156.051Z" fill="#3E2670"/>
<path d="M130.191 153.016C130.144 153.373 129.705 153.809 129.179 153.737C128.565 153.65 128.263 153.151 128.31 152.787C128.358 152.422 128.669 152.39 129.283 152.47C129.896 152.565 130.239 152.66 130.191 153.016Z" fill="#3E2670"/>
<path d="M129.666 152.86C129.676 152.787 129.504 152.703 129.281 152.672C129.059 152.641 128.87 152.675 128.86 152.749C128.85 152.822 129.022 152.906 129.245 152.937C129.467 152.968 129.655 152.933 129.666 152.86Z" fill="white"/>
<path d="M129.402 152.968C129.355 152.968 129.299 152.968 129.243 152.96C129.036 152.928 128.828 152.849 128.844 152.746C128.852 152.698 128.9 152.667 128.988 152.651C129.068 152.635 129.179 152.635 129.283 152.651C129.49 152.682 129.697 152.762 129.681 152.865C129.681 152.936 129.546 152.968 129.402 152.968ZM129.131 152.674C129.084 152.674 129.036 152.674 128.996 152.682C128.924 152.698 128.884 152.722 128.876 152.746C128.868 152.801 129.02 152.888 129.243 152.92C129.474 152.952 129.634 152.912 129.641 152.857C129.649 152.801 129.498 152.714 129.275 152.682C129.227 152.682 129.179 152.674 129.131 152.674Z" fill="#3E2670"/>
<path d="M129.242 153.952C129.234 154.063 129.218 154.174 129.202 154.277C129.187 154.387 129.163 154.49 129.139 154.601C129.091 154.815 129.044 155.029 128.98 155.243C128.98 155.251 128.972 155.251 128.964 155.251C128.956 155.251 128.956 155.243 128.956 155.235C128.948 155.013 128.964 154.791 128.972 154.578C128.98 154.467 128.988 154.356 128.996 154.253C129.012 154.142 129.028 154.039 129.051 153.928C129.067 153.872 129.115 153.841 129.171 153.857C129.21 153.865 129.242 153.904 129.242 153.952Z" fill="#3E2670"/>
</g>
</g>
<defs>
<filter id="filter0_d" x="0.102783" y="50.3226" width="257.944" height="249.678" filterUnits="userSpaceOnUse" color-interpolation-filters="sRGB">
<feFlood flood-opacity="0" result="BackgroundImageFix"/>
<feColorMatrix in="SourceAlpha" type="matrix" values="0 0 0 0 0 0 0 0 0 0 0 0 0 0 0 0 0 0 127 0"/>
<feOffset dy="1"/>
<feGaussianBlur stdDeviation="12.5"/>
<feColorMatrix type="matrix" values="0 0 0 0 0 0 0 0 0 0 0 0 0 0 0 0 0 0 0.2 0"/>
<feBlend mode="normal" in2="BackgroundImageFix" result="effect1_dropShadow"/>
<feBlend mode="normal" in="SourceGraphic" in2="effect1_dropShadow" result="shape"/>
</filter>
<filter id="filter1_d" x="80.7219" y="162.933" width="93.2326" height="93.0452" filterUnits="userSpaceOnUse" color-interpolation-filters="sRGB">
<feFlood flood-opacity="0" result="BackgroundImageFix"/>
<feColorMatrix in="SourceAlpha" type="matrix" values="0 0 0 0 0 0 0 0 0 0 0 0 0 0 0 0 0 0 127 0"/>
<feOffset dy="1"/>
<feGaussianBlur stdDeviation="7.5"/>
<feColorMatrix type="matrix" values="0 0 0 0 0 0 0 0 0 0 0 0 0 0 0 0 0 0 0.15 0"/>
<feBlend mode="normal" in2="BackgroundImageFix" result="effect1_dropShadow"/>
<feBlend mode="normal" in="SourceGraphic" in2="effect1_dropShadow" result="shape"/>
</filter>
<filter id="filter2_d" x="100.076" y="181.257" width="74.8257" height="74.6685" filterUnits="userSpaceOnUse" color-interpolation-filters="sRGB">
<feFlood flood-opacity="0" result="BackgroundImageFix"/>
<feColorMatrix in="SourceAlpha" type="matrix" values="0 0 0 0 0 0 0 0 0 0 0 0 0 0 0 0 0 0 127 0"/>
<feOffset dx="6" dy="6"/>
<feGaussianBlur stdDeviation="5"/>
<feColorMatrix type="matrix" values="0 0 0 0 0 0 0 0 0 0 0 0 0 0 0 0 0 0 0.06 0"/>
<feBlend mode="normal" in2="BackgroundImageFix" result="effect1_dropShadow"/>
<feBlend mode="normal" in="SourceGraphic" in2="effect1_dropShadow" result="shape"/>
</filter>
<filter id="filter3_d" x="103.022" y="132.823" width="52.6962" height="37.9525" filterUnits="userSpaceOnUse" color-interpolation-filters="sRGB">
<feFlood flood-opacity="0" result="BackgroundImageFix"/>
<feColorMatrix in="SourceAlpha" type="matrix" values="0 0 0 0 0 0 0 0 0 0 0 0 0 0 0 0 0 0 127 0"/>
<feOffset/>
<feGaussianBlur stdDeviation="4"/>
<feColorMatrix type="matrix" values="0 0 0 0 0 0 0 0 0 0 0 0 0 0 0 0 0 0 0.2 0"/>
<feBlend mode="normal" in2="BackgroundImageFix" result="effect1_dropShadow"/>
<feBlend mode="normal" in="SourceGraphic" in2="effect1_dropShadow" result="shape"/>
</filter>
<filter id="filter4_d" x="114.332" y="137.039" width="29.9447" height="30.8225" filterUnits="userSpaceOnUse" color-interpolation-filters="sRGB">
<feFlood flood-opacity="0" result="BackgroundImageFix"/>
<feColorMatrix in="SourceAlpha" type="matrix" values="0 0 0 0 0 0 0 0 0 0 0 0 0 0 0 0 0 0 127 0"/>
<feOffset dy="1"/>
<feGaussianBlur stdDeviation="5"/>
<feColorMatrix type="matrix" values="0 0 0 0 0 0 0 0 0 0 0 0 0 0 0 0 0 0 0.1 0"/>
<feBlend mode="normal" in2="BackgroundImageFix" result="effect1_dropShadow"/>
<feBlend mode="normal" in="SourceGraphic" in2="effect1_dropShadow" result="shape"/>
</filter>
</defs>
</svg>
