<svg width="602" height="426" viewBox="0 0 602 426" fill="none" xmlns="http://www.w3.org/2000/svg">
<circle cx="285" cy="215" r="200" fill="#CDDFB9"/>
<path d="M220.051 149.149L35.903 82.2294V128.263L220.051 196.887V149.149Z" fill="#AD1212"/>
<path d="M186.391 242.056L220.051 196.887L191.317 182.989L170.382 186.389L155.194 220.809L186.391 242.056Z" fill="#3F3F3F"/>
<path d="M81.0791 135.505L258.27 200.57C255.154 206.625 248.072 219.582 244.673 222.962C241.273 226.342 231.359 226.06 226.826 225.497L68.3315 161.7L81.0791 135.505Z" fill="#3F3F3F"/>
<path d="M108.867 115.816L78.755 152.991V192.255L108.867 152.991V115.816Z" fill="#A6672D"/>
<path d="M271.01 172.997L83.3876 106.551V144.459L269.719 209.627L271.01 172.997Z" fill="#C58A44"/>
<ellipse rx="6.94897" ry="9.84437" transform="matrix(-1 0 0 1 200.362 177.778)" fill="#A85941"/>
<ellipse rx="6.94887" ry="10.4233" transform="matrix(-0.83735 0.546667 0.546667 0.83735 216.906 186.206)" fill="#A85941"/>
<ellipse rx="6.94887" ry="10.4233" transform="matrix(0.191229 0.981545 0.981545 -0.191229 237.44 187.122)" fill="#A85941"/>
<ellipse rx="6.94887" ry="10.4233" transform="matrix(0.124406 -0.992231 -0.992231 -0.124406 224.265 168.308)" fill="#A85941"/>
<ellipse rx="6.94887" ry="10.4233" transform="matrix(-0.773986 0.633203 0.633203 0.773986 204.594 198.886)" fill="#A85941"/>
<ellipse rx="6.94887" ry="10.4233" transform="matrix(-0.301946 0.953325 0.953325 0.301946 232.332 202.088)" fill="#A85941"/>
<ellipse rx="6.94887" ry="10.4233" transform="matrix(0.769526 0.638615 0.638615 -0.769526 257.846 175.714)" fill="#A85941"/>
<path d="M239.739 211.258L53.2754 144.77V184.833L239.739 251.321V211.258Z" fill="#F5E365"/>
<path d="M271.01 172.566L239.739 210.868V251.321L271.01 213.019V172.566Z" fill="#C9BA61"/>
<path d="M220.051 148.575L35.715 82.2294L1.52588e-05 127.398L186.464 193.413L220.051 148.575Z" fill="#FF8585"/>
<ellipse rx="3.47444" ry="6.2198" transform="matrix(-0.989477 -0.144687 -0.144687 0.989477 256.011 211.474)" fill="#C58A44"/>
<path d="M186.464 193.398L-1.52588e-05 127.398V175.633L186.464 242.056V193.398Z" fill="#FF6B65"/>
<mask id="mask0" mask-type="alpha" maskUnits="userSpaceOnUse" x="188" y="12" width="402" height="402">
<circle cx="389.02" cy="212.98" r="200.941" transform="rotate(-3.54453 389.02 212.98)" fill="#CDDFB9"/>
</mask>
<g mask="url(#mask0)">
<path d="M402.279 202.493C413.913 171.704 417.64 135.43 422.202 135.148C426.765 134.865 454.653 189.69 445.755 206.769C436.856 223.848 427.905 224.004 419.763 217.937C411.423 211.883 402.279 202.493 402.279 202.493Z" fill="url(#paint0_linear)"/>
<path d="M539.956 354.862C526.172 373.438 508.62 389.062 488.666 401.25C488.388 409.63 486.798 416.101 483.003 419.124C482.618 419.347 482.246 419.768 481.862 419.991C440.409 454.818 432.762 495.316 430.47 516.168C430.284 516.379 430.085 516.391 429.887 516.403C409.128 525.256 393.459 523.04 390.521 501.318C390.248 500.14 390.199 499.347 390.126 498.157L390.076 497.363C388.553 472.766 391.132 450.104 393.97 428.422C394.083 427.022 394.393 425.608 394.506 424.207C394.692 423.997 394.68 423.798 394.667 423.6C398.315 395.695 401.491 369.811 395.517 344.095C395.505 343.896 395.294 343.71 395.294 343.71C394.726 340.958 393.76 338.23 393.005 335.688C392.51 334.126 392.015 332.563 391.322 331.013C390.344 328.087 389.156 324.974 387.769 321.874C382.606 309.25 375.795 295.733 370.495 284.114C370.049 283.345 369.591 282.378 369.145 281.609C368.922 281.224 368.699 280.84 368.675 280.443C364.786 272.321 361.765 265.339 360.701 261.024C360.182 259.065 360.096 257.676 360.642 256.846C362.267 254.157 368.757 243.201 375.992 231.402C380.707 223.942 385.584 215.873 389.976 209.628C391.44 207.546 392.718 205.674 394.008 204.001C396.204 200.878 398.263 198.759 399.417 198.091C400.372 197.434 401.934 196.939 404.104 196.605C413.39 195.433 432.816 197.217 447.185 197.72C448.586 197.833 449.987 197.945 451.177 197.871C453.78 198.108 456.161 197.961 458.355 198.024C458.95 197.987 459.768 198.335 460.586 198.682C466.572 202.095 476.122 218.031 486.785 239.076C489.051 243.516 491.33 248.154 493.831 253.176C510.636 286.584 528.552 328.287 539.956 354.862Z" fill="url(#paint1_radial)"/>
<path d="M397.192 229.69C394.945 235.206 390.368 238.476 386.898 237.098C383.427 235.72 382.488 230.203 384.735 224.687C386.982 219.171 391.558 215.901 395.029 217.279C398.5 218.657 399.439 224.175 397.192 229.69Z" fill="#692718"/>
<path d="M416.315 310.149C416.141 310.558 413.852 325.037 410.622 337.185C406.721 351.366 401.223 362.26 395.902 343.872C395.89 343.673 395.679 343.487 395.679 343.487C393.439 336.258 388.868 329.97 382.97 324.76L382.759 324.574C361.47 305.581 323.624 298.965 318.816 295.28C312.57 290.888 309.949 277.509 309.108 273.579L334.593 260.65L361.074 260.603L393.134 260.608C393.146 260.806 416.241 308.959 416.315 310.149Z" fill="url(#paint2_radial)"/>
<path d="M255.954 213.102C255.954 213.102 285.63 218.892 307.16 227.579C328.802 236.31 349.585 261.165 367.537 283.17C379.183 297.446 400.545 332.971 357.112 375.244" stroke="#9E6936" stroke-width="8" stroke-linecap="round"/>
<path d="M404.699 241.569C404.631 253.322 395.83 271.988 395.47 272.608C395.123 273.426 379.984 276.554 369.728 281.371C359.473 286.188 295.94 276.383 291.678 271.868C289.547 269.611 287.706 259.171 287.5 249.426C287.369 240.872 288.266 232.851 291.143 231.08C292.855 229.779 303.591 229.512 317.328 229.458C339.234 229.495 369.186 230.826 385.154 231.43C391.142 231.656 404.715 235.395 404.699 241.569Z" fill="url(#paint3_radial)"/>
<path d="M448.917 203.187C452.604 195.193 491.848 118.288 503.227 121.964C514.605 125.64 501.776 278.569 475.884 288.138C449.795 297.719 448.917 203.187 448.917 203.187Z" fill="url(#paint4_radial)"/>
<path d="M407.976 214.086C401.052 224.472 393.553 244.849 413.221 256.973C432.89 269.096 466.617 257.449 458.033 244.24C449.883 231.603 455.398 211.348 432.244 204.021C423.505 201.177 413.088 206.601 407.976 214.086Z" fill="#B34429"/>
<path d="M317.329 229.459C320.216 253.574 296.054 252.482 287.502 249.428C287.37 240.873 288.267 232.853 291.144 231.081C292.868 229.979 303.592 229.514 317.329 229.459Z" fill="#692718"/>
<path d="M431.728 211.82C438.869 211.377 448.535 219.54 447.74 222.776C446.746 226.023 418.438 212.643 431.728 211.82Z" fill="#692718"/>
<path d="M390.171 212.801C397.795 213.723 402.249 208.469 400.924 206.361C399.586 204.054 376.523 211.058 390.171 212.801Z" fill="#692718"/>
<path d="M308.313 276.813L356.35 283.993L374.066 283.891C374.066 283.891 382.236 283.983 383.948 282.682C388.326 279.424 386.421 271.178 381.362 273.085C374.344 275.511 375.371 279.23 375.371 279.23L358.608 281.862L308.313 276.813Z" fill="#692718"/>
<path d="M455.869 209.33C458.861 202.972 492.859 128.184 498.97 130.394C504.882 132.616 495.102 196.545 495.102 196.545L500.646 192.816L493.136 209.809C493.136 209.809 486.867 246.838 483.023 249.067C478.98 251.309 453.945 213.631 455.869 209.33Z" fill="#B34429"/>
<path d="M488.678 401.446C488.4 409.827 486.81 416.297 483.015 419.32C482.63 419.543 482.258 419.965 481.874 420.188C440.421 455.014 432.774 495.513 430.482 516.364C430.095 519.773 429.672 522.587 429.621 524.98C429.448 525.389 429.46 525.588 429.485 525.984C429.047 531.786 429.49 538.927 430.13 546.056C430.403 547.234 430.476 548.424 430.562 549.813C430.884 551.784 431.205 553.756 431.315 555.541C431.624 557.314 431.946 559.286 432.242 560.86C432.328 562.249 432.613 563.625 432.897 565.001C432.946 565.795 433.194 566.576 433.441 567.357C433.478 567.952 433.713 568.535 433.738 568.932C433.998 569.911 434.059 570.903 434.331 572.081L439.243 590.296C439.268 590.693 439.478 590.879 439.503 591.276C410.531 567.183 393.076 520.075 390.891 504.081C390.643 503.3 390.582 502.308 390.533 501.515C390.26 500.337 390.211 499.543 390.138 498.353L390.088 497.56C386.992 470.072 390.129 446.779 393.772 428.433C394.082 427.019 394.393 425.606 394.518 424.404C394.704 424.193 394.692 423.995 394.679 423.796C398.327 395.891 401.503 370.007 395.529 344.291C395.517 344.093 395.306 343.907 395.306 343.907C393.066 336.678 388.495 330.39 382.597 325.179C385.521 327.388 388.434 329.398 391.334 331.209C397.518 334.61 403.84 337.006 410.261 337.803C424.307 339.522 439.088 333.827 455.25 318.289C473.1 301.054 476.006 293.307 479.831 326.126C483.078 349.621 489.42 381.288 488.678 401.446Z" fill="#B34429"/>
<path d="M440.172 592.429C439.925 591.648 439.479 590.879 439.231 590.098C437.82 586.601 436.619 583.29 435.406 579.781C434.193 576.272 432.794 572.973 431.953 569.043L431.966 569.241L431.446 567.282L431.483 567.877L430.703 564.939L430.728 565.335L429.652 560.822L429.676 561.219L428.328 555.528L428.353 555.924L427.178 549.824L427.191 550.022C425.253 534.809 423.861 518.766 426.287 503.283C428.304 487.626 433.532 472.367 441.238 458.548C448.945 444.729 459.539 432.524 471.88 422.798C484.023 413.085 498.297 405.63 513.424 402.303C499.931 409.511 488.161 418.803 477.456 429.223C466.949 439.632 457.706 451.156 450.93 463.922C443.757 476.712 439.039 490.545 436.353 505.049C433.27 519.577 433.584 534.293 433.911 549.208L433.923 549.406L434.465 554.948L434.49 555.345L434.995 560.292L435.02 560.689L435.266 564.656L435.29 565.053L435.401 566.838L435.438 567.433L435.512 568.623L435.524 568.822C436.363 575.938 438.206 583.192 439.256 590.495C439.876 590.855 439.925 591.648 440.172 592.429Z" fill="#B34429"/>
<path d="M436.441 236.418C433.846 242.752 428.501 246.468 424.621 244.916C420.741 243.364 419.542 236.867 422.137 230.534C424.732 224.2 430.077 220.484 433.957 222.035C438.035 223.575 439.035 230.084 436.441 236.418Z" fill="#692718"/>
</g>
<defs>
<linearGradient id="paint0_linear" x1="426.362" y1="209.643" x2="416.685" y2="134.469" gradientUnits="userSpaceOnUse">
<stop stop-color="#85321E"/>
<stop offset="1" stop-color="#CA4D2E"/>
</linearGradient>
<radialGradient id="paint1_radial" cx="0" cy="0" r="1" gradientUnits="userSpaceOnUse" gradientTransform="translate(219.201 146.59) rotate(-3.54453) scale(301.156)">
<stop stop-color="#FFBB45"/>
<stop offset="1" stop-color="#CA4D2E"/>
</radialGradient>
<radialGradient id="paint2_radial" cx="0" cy="0" r="1" gradientUnits="userSpaceOnUse" gradientTransform="translate(212.648 147.042) rotate(-3.54453) scale(306.948)">
<stop stop-color="#FFBB45"/>
<stop offset="1" stop-color="#CA4D2E"/>
</radialGradient>
<radialGradient id="paint3_radial" cx="0" cy="0" r="1" gradientUnits="userSpaceOnUse" gradientTransform="translate(212.648 147.039) rotate(-3.54453) scale(306.95)">
<stop stop-color="#FFBB45"/>
<stop offset="1" stop-color="#CA4D2E"/>
</radialGradient>
<radialGradient id="paint4_radial" cx="0" cy="0" r="1" gradientUnits="userSpaceOnUse" gradientTransform="translate(212.648 147.04) rotate(-3.54453) scale(306.95)">
<stop stop-color="#FFBB45"/>
<stop offset="1" stop-color="#CA4D2E"/>
</radialGradient>
</defs>
</svg>
