<svg width="27" height="6" viewBox="0 0 27 6" fill="none" xmlns="http://www.w3.org/2000/svg">
<path fill-rule="evenodd" clip-rule="evenodd" d="M6 3C6 1.344 4.656 -1.15719e-06 3 -1.08481e-06C1.344 -1.01242e-06 -2.0352e-07 1.344 -1.31134e-07 3C-5.87481e-08 4.656 1.344 6 3 6C4.656 6 6 4.656 6 3ZM10.5 3C10.5 4.656 11.844 6 13.5 6C15.156 6 16.5 4.656 16.5 3C16.5 1.344 15.156 -6.6249e-07 13.5 -5.90104e-07C11.844 -5.17718e-07 10.5 1.344 10.5 3ZM24 6C22.344 6 21 4.656 21 3C21 1.344 22.344 -4.9985e-07 24 -5.72236e-07C25.656 -6.44622e-07 27 1.344 27 3C27 4.656 25.656 6 24 6Z" fill="#323232"/>
</svg>
