<svg width="109" height="82" viewBox="0 0 109 82" fill="none" xmlns="http://www.w3.org/2000/svg">
<g opacity="0.25">
<path d="M69.9043 13.9791C67.4608 11.6225 61.4583 2.67803 61.5646 0.107162C61.6177 -1.23183 75.2693 6.32009 79.5188 14.4076L69.9043 13.9791Z" fill="#FFA35F"/>
<path d="M76.3315 14.3004L80.156 14.836C75.9596 6.85563 61.9894 -0.964101 61.5644 0.107094C64.5922 1.55321 72.8256 7.8197 76.3315 14.3004Z" fill="#FFC37B"/>
<path d="M64.3803 59.3436C68.8954 61.9145 85.7872 70.002 92.1614 69.2522C94.9767 68.9308 97.5264 64.164 96.3047 62.6108C95.4017 61.486 91.7896 62.1823 90.0898 64.4854C90.0898 64.4854 78.9348 58.6473 75.6946 52.3809C65.8676 49.3815 64.3803 59.3436 64.3803 59.3436Z" fill="#FFC37B"/>
<path d="M84.2996 60.9506C81.0593 58.7011 77.341 55.5946 75.6943 52.4346C65.9204 49.4352 64.4331 59.3973 64.4331 59.3973C68.9482 61.9682 85.84 70.0557 92.2143 69.3059C94.0203 69.0916 95.667 67.1099 96.3576 65.2889C91.6831 71.4483 79.2533 65.396 84.2996 60.9506Z" fill="#FFA35F"/>
<path d="M17.3168 54.5773C17.1043 56.3448 19.4416 58.0587 18.6448 59.6119C17.848 61.1651 15.9888 61.7007 14.289 59.9868C13.0142 58.7014 12.8017 53.881 14.5015 51.9528C16.2013 50.0247 18.0074 50.9352 20.2915 48.043L22.6287 51.0959C22.6287 51.0959 17.6355 52.4349 17.3168 54.5773Z" fill="#FF7D43"/>
<path d="M23.9033 49.0609C28.1528 56.7199 44.4072 72.1987 64.1674 67.9139C83.9277 63.6292 76.1192 27.5299 58.2712 32.0289C40.4233 36.5279 38.8297 33.9571 35.4301 31.7075C32.0305 29.458 22.416 24.7983 21.0349 30.1008C19.6538 35.4032 23.9033 49.0609 23.9033 49.0609Z" fill="#FFC37B"/>
<path d="M58.2179 32.0284C54.1809 33.0461 50.9406 33.6888 48.3378 34.0637C54.5527 41.1871 55.6151 55.9161 51.6843 60.5758C47.1161 66.0389 32.0303 58.3798 28.8963 49.0069C27.9401 46.1682 24.0093 46.2218 22.522 44.0258C23.2125 46.918 23.3188 49.596 23.3188 49.596C27.5683 57.2551 44.3539 72.1447 64.1141 67.8599C83.8744 63.5751 76.0659 27.5294 58.2179 32.0284Z" fill="#FFA35F"/>
<path d="M4.56816 58.7548C5.57742 62.8789 5.31183 66.9494 2.28405 66.7887C-0.159424 66.628 -0.690613 58.969 1.11543 56.9337C2.92147 54.8985 5.20559 52.8632 5.7899 49.7032C6.58668 45.2577 13.3328 31.1715 22.5755 28.1186C34.6335 24.1016 30.384 51.6849 26.6656 52.9167C22.8411 54.1486 3.08083 52.6489 4.56816 58.7548Z" fill="#FFC37B"/>
<path d="M28.9496 45.6332C23.6377 52.5424 12.4296 54.6848 7.86137 51.1498C7.06459 50.5071 6.37404 49.7037 5.89597 48.7932C5.78973 49.1145 5.73661 49.4359 5.68349 49.7037C5.1523 52.8637 2.81507 54.899 1.00903 56.9343C-0.797012 58.9695 -0.265823 66.6286 2.17765 66.7893C5.20542 66.9499 5.47102 62.8794 4.46176 58.7553C2.97443 52.703 23.3721 54.7383 27.0904 53.56C28.4184 53.1315 29.2152 48.6325 29.9057 44.0264C29.6932 44.562 29.3745 45.0976 28.9496 45.6332Z" fill="#FFA35F"/>
<path d="M50.0909 63.5214C53.8623 67.4313 71.8696 81.4103 76.9159 81.9995C79.7312 82.3209 83.0246 76.9113 82.5465 75.4117C82.0684 73.912 79.0938 73.2693 76.6503 75.733C76.6503 75.733 69.9042 71.1804 66.9296 61.5932C57.9525 56.1837 50.0909 63.5214 50.0909 63.5214Z" fill="#FFC37B"/>
<path d="M78.0844 79.9645C75.0566 79.9645 57.8992 70.163 57.793 65.4498C57.7399 64.0572 63.2642 62.7718 70.0103 68.2885C68.8417 66.4139 67.9387 63.8966 67.1419 61.2721C58.1648 55.809 48.8159 63.2003 48.8159 63.2003C52.5873 67.1101 71.8695 81.4106 76.9158 81.9998C78.5093 82.1604 80.2091 80.5536 81.3778 78.8397C80.4747 79.536 79.3061 79.9645 78.0844 79.9645Z" fill="#FFA35F"/>
<path d="M108.691 37.7671C109.607 35.5241 108.547 32.9571 106.322 32.0335C104.098 31.1098 101.552 32.1793 100.636 34.4222C99.7197 36.6651 100.78 39.2322 103.005 40.1558C105.229 41.0795 107.775 40.01 108.691 37.7671Z" fill="#5796B5"/>
<path d="M20.6631 29.0834C18.7508 27.798 17.4229 23.5668 20.8756 19.5498C20.8756 19.5498 21.6724 25.4949 25.2314 27.6373L20.6631 29.0834Z" fill="#FFA35F"/>
<path d="M78.616 13.5511C84.5653 16.604 89.1866 20.7817 88.2305 37.1174C87.4337 51.0965 78.191 66.0932 75.5351 68.6641C75.5351 68.6641 51.6316 46.651 53.7563 32.9933C58.4839 20.0318 71.2324 9.74834 78.616 13.5511Z" fill="#FFC37B"/>
<path d="M58.7492 32.5103C59.1741 27.0472 62.9987 16.2281 73.5162 12.9609C66.0796 14.1393 56.6244 22.9231 52.853 33.3137C50.7282 46.9714 75.5348 68.7167 75.5348 68.7167C75.5879 68.6631 75.6941 68.556 75.7472 68.5024C67.5138 60.3078 57.8993 42.9544 58.7492 32.5103Z" fill="#FFB469"/>
<path d="M75.9599 67.3783C70.8604 62.8793 65.1236 50.1321 66.0266 43.33C66.9297 36.5279 72.5071 33.3679 72.5071 33.3679C72.5071 33.3679 74.2069 26.6193 78.5096 24.959C78.5096 24.959 80.8999 27.1014 84.1933 27.4763C84.1933 27.4763 87.0617 29.8865 86.318 35.296C86.318 35.296 88.3365 38.456 88.0178 40.8662C86.2649 53.7206 82.0154 60.4156 75.9599 67.3783Z" fill="#FFE8CA"/>
<path d="M84.5649 43.0619C77.6594 42.8477 79.4655 32.6178 76.0659 30.2612C76.0659 30.2612 86.4772 29.1364 84.9367 31.5466C83.5556 33.689 83.1307 37.4917 85.2023 40.7053C85.7335 41.4552 85.521 43.1155 84.5649 43.0619Z" fill="#EFCEA8"/>
<path d="M77.1287 31.118C75.482 30.7967 75.057 27.7973 76.1194 27.7438C77.1818 27.6902 77.1287 31.118 77.1287 31.118Z" fill="#EFCEA8"/>
<path d="M84.8308 41.9901C79.0408 41.7759 80.9531 31.7602 77.1816 30.6355C77.1816 30.6355 87.1149 28.6002 85.5744 31.0104C84.1933 33.1528 83.6621 37.384 85.1495 40.2227C85.5744 41.026 85.7869 42.0437 84.8308 41.9901Z" fill="#68413C"/>
<path d="M77.7128 30.3141C79.147 30.9569 88.2835 33.8491 90.302 32.8315C92.3205 31.8138 94.6046 27.1541 93.6485 25.9758C93.2235 25.4402 88.2303 22.548 85.9994 21.691C80.9531 19.8164 73.3039 28.3324 77.7128 30.3141Z" fill="#FFC37B"/>
<path d="M86.9021 27.959C82.8651 27.6913 79.4124 26.6736 77.447 25.3882C75.9065 27.3163 76.0128 29.5123 77.3938 30.3157C78.8281 30.9584 88.2832 33.8506 90.3549 32.833C91.8422 32.1367 93.4358 29.4587 93.8076 27.5841C91.8422 28.0126 89.4519 28.1197 86.9021 27.959Z" fill="#FFE8CA"/>
<path d="M90.0364 32.9928C89.1333 32.9393 85.2025 28.9758 85.9993 27.0477C86.7961 25.066 93.9671 24.7982 94.4983 26.6192C94.9233 28.226 91.2581 33.0464 90.0364 32.9928Z" fill="#68413C"/>
<path d="M75.6942 20.5672C76.3317 20.4601 76.7566 20.7279 77.0753 21.1564V21.1028C76.8629 20.5672 76.3848 19.978 75.6411 20.1387C74.8974 20.2994 74.1538 21.1564 74.3131 21.692C74.5787 21.1564 75.163 20.6743 75.6942 20.5672Z" fill="#68413C"/>
<path d="M82.387 19.2283C83.0244 19.1212 83.4494 19.389 83.7681 19.8175V19.7639C83.5556 19.2283 83.0776 18.6392 82.3339 18.7999C81.5902 18.9605 80.8466 19.8175 81.0059 20.3531C81.2184 19.8175 81.8027 19.3355 82.387 19.2283Z" fill="#68413C"/>
<path d="M60.29 22.2275C56.1998 17.8891 51.5785 10.1765 52.0565 6.37377C52.2159 5.03478 62.5209 10.0158 68.0453 17.1393C67.9922 17.1393 62.096 21.5847 60.29 22.2275Z" fill="#FFC37B"/>
<path d="M60.0774 21.0495C58.5369 19.8711 52.0033 10.1768 52.322 7.23103C52.4282 6.21339 60.4492 11.8907 65.283 17.4074L60.0774 21.0495Z" fill="#E25E54"/>
<path d="M63.5831 18.5855L65.5485 17.2465C60.7147 11.6763 52.4281 6.15966 52.3219 7.17729C54.7122 9.159 59.9179 14.4614 63.5831 18.5855Z" fill="#CE413E"/>
<path d="M80.4219 32.7791C79.8376 32.4042 78.2972 31.6544 77.4473 31.0652C75.5881 29.7262 76.1193 25.8699 76.7567 28.5479C77.0754 29.9404 77.8722 30.476 78.5096 30.6903C78.8815 30.851 79.2533 31.1188 79.5189 31.4401C79.7845 31.8686 80.2626 32.4577 80.4219 32.7791Z" fill="#68413C"/>
<path d="M78.0313 31.4393C78.7218 31.2787 80.5279 31.4929 81.1653 32.7783C81.8027 34.0638 79.9967 35.0814 79.9967 35.0814L79.0405 32.7783C78.7749 32.2427 78.5093 31.7607 78.0313 31.4393Z" fill="#C93632"/>
<path d="M90.4085 28.1189C88.4431 28.1189 86.7433 27.6904 85.9996 27.1548C85.3622 29.1365 89.1336 32.9928 90.0367 33.0464C91.099 33.0999 94.0206 29.4043 94.4987 27.4226C93.5956 27.8511 92.1083 28.1189 90.4085 28.1189Z" fill="#4F2A28"/>
<path d="M82.3871 35.778C82.4402 37.6526 80.8998 41.0269 78.7219 40.7055C76.544 40.3842 74.6317 38.8309 76.3847 36.5814C78.1376 34.3319 79.7311 34.2784 79.8905 32.3502C79.9436 30.4756 82.2809 33.957 82.3871 35.778Z" fill="#FF6161"/>
<path d="M81.2184 37.3316C81.3246 37.9208 81.3777 38.51 81.3777 39.0456C82.0152 38.0279 82.387 36.6889 82.3339 35.7784C82.2808 33.9038 79.9435 30.476 79.8373 32.3506C79.7842 32.7791 79.6779 33.154 79.5186 33.4218C80.2622 34.3859 80.8997 35.7249 81.2184 37.3316Z" fill="#F44D4D"/>
<path d="M106.344 36.528C104.113 36.528 102.253 34.8141 102.041 32.6182C100.979 33.4216 100.341 34.6534 100.341 36.0995C100.341 38.5097 102.306 40.4914 104.697 40.4914C107.087 40.4914 109.053 38.5097 109.053 36.0995C109.053 35.9389 109.053 35.7782 109.053 35.6175C108.256 36.2067 107.353 36.528 106.344 36.528Z" fill="#4085A0"/>
<path d="M33.4115 62.1826C35.4831 64.1643 41.22 65.7176 43.8759 65.9854L39.2546 62.7182L33.4115 62.1826Z" fill="#FFA35F"/>
<path d="M29.9057 59.7729C31.9773 61.7547 37.7142 63.3079 40.3701 63.5757L35.7488 60.3085L29.9057 59.7729Z" fill="#FFA35F"/>
<path d="M26.9308 56.4521C28.7368 58.7017 34.208 60.9512 36.8109 61.5939L32.6676 57.7376L26.9308 56.4521Z" fill="#FFA35F"/>
<path d="M39.2545 65.8783C41.6979 67.3779 47.6472 67.6457 50.2501 67.3244L45.0975 65.1284L39.2545 65.8783Z" fill="#FFA35F"/>
<path d="M89.7175 30.6369C88.9739 31.0119 87.2741 29.5122 87.699 29.0837C88.124 28.6552 90.2487 28.441 90.5674 28.8159C90.833 29.1373 90.0363 30.4227 89.7175 30.6369Z" fill="#351817"/>
<path d="M92.5331 27.1547C93.3252 27.1547 93.9673 26.9149 93.9673 26.6191C93.9673 26.3233 93.3252 26.0835 92.5331 26.0835C91.741 26.0835 91.0989 26.3233 91.0989 26.6191C91.0989 26.9149 91.741 27.1547 92.5331 27.1547Z" fill="#9B6D6A"/>
<path d="M105.388 32.779C105.069 33.1003 105.441 33.9573 106.185 34.7071C106.928 35.4034 107.831 35.7248 108.15 35.3498C108.469 35.0285 108.097 34.1715 107.353 33.4217C106.61 32.7254 105.707 32.4576 105.388 32.779Z" fill="#8BC2D8"/>
<path d="M102.997 32.8863C103.103 33.1005 103.528 33.2612 104.06 33.1541C104.591 33.047 104.909 32.7792 104.803 32.5114C104.697 32.2971 104.272 32.1364 103.741 32.2436C103.21 32.3507 102.891 32.672 102.997 32.8863Z" fill="#8BC2D8"/>
<path d="M105.228 38.9376C103.104 38.9376 101.298 37.3844 100.873 35.3491C100.82 35.5634 100.82 35.8312 100.82 36.099C100.82 38.2413 102.572 40.0088 104.697 40.0088C106.238 40.0088 107.566 39.0983 108.203 37.8129C107.406 38.5091 106.344 38.9376 105.228 38.9376Z" fill="#5796B5"/>
<path d="M53.8621 31.0649C52.7998 33.0467 52.0561 35.9389 52.1623 37.2243L54.0746 34.1179L53.8621 31.0649Z" fill="#FFB469"/>
<path d="M52.7998 35.0815C52.3748 37.2775 52.4811 40.2233 52.9591 41.5087L53.8622 37.9738L52.7998 35.0815Z" fill="#FFB469"/>
<path d="M53.4376 38.4556C53.3314 40.7051 53.9157 43.5973 54.6063 44.7756L54.9781 41.1336L53.4376 38.4556Z" fill="#FFB469"/>
<path d="M54.7124 42.0981C54.8718 44.3477 55.7217 47.1863 56.5185 48.2575V44.6155L54.7124 42.0981Z" fill="#FFB469"/>
<path d="M56.4124 45.418C56.6249 47.6675 57.6341 50.4526 58.484 51.4702L58.3247 47.8282L56.4124 45.418Z" fill="#FFB469"/>
<path d="M58.1652 47.561C58.537 49.757 59.7587 52.4885 60.6617 53.5062L60.2368 49.8641L58.1652 47.561Z" fill="#FFB469"/>
<path d="M66.3987 46.5977C66.08 48.8472 66.3456 51.7929 66.8768 53.0248L67.6205 49.4363L66.3987 46.5977Z" fill="#FFE8CA"/>
<path d="M66.3984 43.3306C65.6548 45.473 65.4423 48.4187 65.761 49.7577L67.1421 46.3835L66.3984 43.3306Z" fill="#FFE8CA"/>
<path d="M67.3013 39.5269C66.1327 41.455 65.2828 44.2937 65.2828 45.6327L67.3544 42.6333L67.3013 39.5269Z" fill="#FFE8CA"/>
<path d="M69.2669 36.0996C67.7265 37.7064 66.2391 40.2773 65.9735 41.6163L68.6295 39.1525L69.2669 36.0996Z" fill="#FFE8CA"/>
<path opacity="0.5" d="M71.9224 19.7637C71.5506 20.7278 70.2758 19.9779 70.4882 19.4423C71.2319 17.6213 74.1003 16.7108 74.6846 17.3535C75.2689 17.9427 72.8255 17.4071 71.9224 19.7637Z" fill="#FFE8CA"/>
<path opacity="0.5" d="M80.9531 15.8539C78.4034 15.2112 77.1285 16.4967 77.7128 16.9251C78.4565 17.5143 77.9784 15.9075 81.2718 16.818C82.5998 17.1929 81.6436 16.0146 80.9531 15.8539Z" fill="#FFE8CA"/>
</g>
</svg>
