<svg width="36" height="33" viewBox="0 0 36 33" fill="none" xmlns="http://www.w3.org/2000/svg">
<path d="M18.6987 13.5122C18.6987 13.5122 22.1012 18.0701 22.3347 22.3358C22.5499 26.2445 18.1812 25.1502 17.3707 22.039C16.5602 18.9278 16.7296 15.9186 16.7296 15.9186L18.6987 13.5122Z" fill="#FFB27D"/>
<path d="M20.2879 31.6136C20.2879 31.6136 19.6605 32.0634 18.5386 32.6337C17.9891 32.6012 17.4304 32.5734 16.858 32.541C16.8122 32.5363 16.771 32.5363 16.7252 32.5317C16.2627 32.5039 15.791 32.4761 15.3147 32.4482C12.7457 32.2952 9.95233 32.1144 6.88418 31.915C6.82465 31.9104 6.76512 31.9057 6.71016 31.9057C5.71645 31.8455 4.62657 31.7991 3.45884 31.7666C3.2665 30.4359 3.02838 28.6694 2.81773 26.7405C2.76736 26.2676 2.71698 25.7853 2.67119 25.2985C2.66203 25.2058 2.65287 25.1084 2.64371 25.0157C2.41933 22.5536 2.27279 19.9663 2.34606 17.7593C2.35979 17.3327 2.38269 16.9247 2.41475 16.5306C2.42391 16.4054 2.43764 16.2848 2.4468 16.1643C2.45138 16.1086 2.45596 16.053 2.46512 15.9973C2.47428 15.9185 2.48344 15.8397 2.4926 15.7609C2.52007 15.5383 2.54755 15.325 2.58418 15.121C2.59792 15.0468 2.61166 14.9726 2.6254 14.8985C2.62998 14.8753 2.63455 14.8567 2.63913 14.8335C2.65287 14.7686 2.66661 14.7037 2.68035 14.6388C2.68035 14.6388 2.76736 14.2447 3.20697 13.7115C3.24361 13.6651 3.28482 13.6187 3.33061 13.5724C3.47257 13.4194 3.64201 13.2571 3.84808 13.0902C3.94424 13.0113 4.04957 12.9325 4.16405 12.8537C4.31975 12.7424 4.49377 12.6311 4.6861 12.5245C5.20814 12.2277 5.86757 11.9403 6.69643 11.6945C6.94829 11.6203 7.21847 11.5508 7.50239 11.4812C8.02443 11.3607 8.60601 11.254 9.2517 11.1752C9.9157 11.0918 10.5248 11.0593 11.0926 11.0825C12.3748 11.1335 13.4235 11.4534 14.2981 12.0237C14.6416 12.2463 14.953 12.5106 15.246 12.812C15.4659 13.0392 15.6719 13.2849 15.8643 13.5538C15.9421 13.6651 16.02 13.7764 16.0932 13.8923C16.1528 13.9804 16.2077 14.0731 16.2627 14.1659C16.3176 14.254 16.368 14.3467 16.4184 14.4394C16.5145 14.6156 16.6107 14.8011 16.6977 14.9912C16.7939 15.1906 16.8854 15.3992 16.977 15.6171C17.0045 15.6821 17.032 15.747 17.0549 15.8119C17.293 16.4054 17.5082 17.0545 17.7051 17.75C17.7601 17.9447 17.8151 18.1441 17.87 18.3481C18.0028 18.8489 18.1264 19.3728 18.2455 19.9246C18.3188 20.2677 18.392 20.6201 18.4653 20.9818C18.4699 21.0142 18.4791 21.0467 18.4836 21.0838C18.5569 21.4454 18.6256 21.8117 18.6943 22.1919C18.7401 22.433 18.7813 22.6741 18.8271 22.9199C18.8317 22.957 18.8408 22.9894 18.8454 23.0265C18.9187 23.4577 18.9965 23.8936 19.0744 24.3433C19.0744 24.3526 19.079 24.3619 19.079 24.3712C19.079 24.3851 19.0835 24.399 19.0835 24.4129C19.0973 24.4824 19.1064 24.552 19.1202 24.6215C19.1385 24.7375 19.1568 24.8534 19.1797 24.9693C19.2209 25.2197 19.2621 25.4701 19.3033 25.7251C19.3217 25.8224 19.3354 25.9244 19.3537 26.0218C19.3949 26.2722 19.4361 26.5272 19.4774 26.7869C19.4911 26.8703 19.5048 26.9538 19.5186 27.0326C19.5369 27.1532 19.5598 27.2784 19.5781 27.3989C19.6193 27.6493 19.6605 27.9043 19.7017 28.164C19.7338 28.3494 19.7613 28.5349 19.7933 28.725C19.8208 28.8873 19.8483 29.0496 19.8758 29.2118C19.9444 29.6199 20.0131 30.0372 20.0864 30.4545C20.123 30.6631 20.1597 30.8671 20.1963 31.0804C20.2284 31.2612 20.2558 31.4374 20.2879 31.6136Z" fill="#366F90"/>
<path d="M0.221235 17.1475L4.49376 20.7595C4.49376 20.7595 14.7194 21.0841 17.3159 20.0686C18.7218 19.5215 19.6926 17.1151 19.6926 17.1151C19.6926 17.1151 17.8608 10.9019 8.70217 10.9947C-2.16002 11.106 0.221235 17.1475 0.221235 17.1475Z" fill="#366F90"/>
<path d="M7.32384 11.0459C7.97411 12.2978 9.54024 13.3225 10.4882 13.2622C11.9902 13.1648 11.2392 12.2514 11.1201 11.7182C11.0606 11.4493 11.056 11.1664 11.1201 10.8975L11.2438 10.3504L11.4727 9.32105L11.7063 8.2778L12.4756 4.82812L10.3783 8.00887L10.0211 8.55136L9.51734 9.31641L8.79381 10.4107C8.40914 10.9161 7.333 11.0459 7.32384 11.0459Z" fill="#FFB27D"/>
<path d="M9.52188 9.31152C9.52188 9.31152 9.95692 10.4243 11.1201 10.8926L11.2437 10.3455L11.4727 9.31616L9.52188 9.31152Z" fill="#E7925C"/>
<path d="M14.8934 3.67285C14.8934 3.67285 16.1893 5.66198 14.7697 6.72841C13.3502 7.79485 14.8934 3.67285 14.8934 3.67285Z" fill="#331832"/>
<path d="M8.69304 8.41636C8.69304 8.41636 5.93628 6.41796 6.6186 3.58496C6.92084 2.32843 7.4383 1.8694 8.23969 1.5541C12.1779 0.000820637 8.69304 8.41636 8.69304 8.41636Z" fill="#331832"/>
<path d="M14.9035 6.39289C15.1336 4.23396 13.7873 2.3163 11.8965 2.10967C10.0056 1.90304 8.28622 3.4857 8.0561 5.64462C7.82598 7.80355 9.17226 9.72121 11.0631 9.92784C12.954 10.1345 14.6734 8.55181 14.9035 6.39289Z" fill="#FFB27D"/>
<path d="M11.7245 5.61564C11.7428 5.611 11.7611 5.59245 11.7703 5.56927C11.784 5.53218 11.7611 5.49045 11.7245 5.48117C11.7016 5.4719 11.2207 5.25861 10.8361 5.74083C10.8132 5.77328 10.8132 5.81501 10.8452 5.84283C10.8727 5.86602 10.9139 5.85674 10.946 5.83356C11.2528 5.59709 11.6695 5.611 11.6832 5.62027C11.697 5.62027 11.7107 5.62027 11.7245 5.61564Z" fill="#080435"/>
<path d="M11.2209 6.42736C11.2254 6.59428 11.3262 6.72874 11.4498 6.72874C11.5689 6.7241 11.6651 6.585 11.6605 6.41808C11.6559 6.25116 11.5551 6.1167 11.4315 6.1167C11.3079 6.1167 11.2163 6.2558 11.2209 6.42736Z" fill="#080435"/>
<path d="M14.2843 6.02886C14.3026 6.02886 14.3163 6.01958 14.3301 6.00567C14.3484 5.97785 14.3484 5.93149 14.3255 5.9083C14.3117 5.89439 14.0324 5.51419 13.6157 5.81557C13.5882 5.83412 13.5791 5.87585 13.5928 5.91294C13.6065 5.9454 13.634 5.95003 13.6661 5.94076C13.9546 5.83412 14.2476 6.00104 14.2568 6.01495C14.2614 6.02422 14.2751 6.02886 14.2843 6.02886Z" fill="#080435"/>
<path d="M13.4967 6.57997C13.4371 6.73761 13.4829 6.8999 13.5928 6.94627C13.7073 6.988 13.8447 6.89526 13.9042 6.73762C13.9638 6.57997 13.918 6.41768 13.8081 6.37132C13.6936 6.32959 13.5562 6.42232 13.4967 6.57997Z" fill="#080435"/>
<path d="M13.3455 8.13851C13.3455 8.13851 12.2327 8.16633 11.1199 7.77686C11.1199 7.77686 11.0329 8.88965 12.2372 8.9592C12.9379 9.00093 13.3455 8.13851 13.3455 8.13851Z" fill="white"/>
<path d="M15.6857 4.55407C15.3102 4.86937 14.8477 5.19857 13.9684 4.79518C13.0892 4.38715 12.9747 3.86785 12.9747 3.86785C12.9747 3.86785 12.4664 4.47525 11.6421 4.21096C10.8179 3.94667 10.7904 3.57574 10.7904 3.57574C10.7904 3.57574 10.4927 4.32688 9.70965 4.32224C8.92659 4.3176 9.8974 5.53705 8.57856 5.40258C7.62605 5.30985 8.26258 3.26972 8.21221 2.03173C8.14352 0.339346 10.0714 -0.453523 10.6851 0.26516C11.1979 0.867926 11.8528 0.25125 13.2266 0.47381C14.8751 0.7381 13.9822 1.96218 14.6645 1.99C16.226 2.05491 16.7664 3.64529 15.6857 4.55407Z" fill="#331832"/>
<path d="M8.02885 6.11199C8.31735 6.41337 8.76613 6.45046 9.03173 6.19081C9.29733 5.93116 9.28359 5.47676 8.99509 5.17538C8.70659 4.874 8.25782 4.8369 7.99222 5.09656C7.72203 5.35621 7.74035 5.8106 8.02885 6.11199Z" fill="#FFB27D"/>
<path d="M6.9117 1.67489C6.89796 1.67025 6.88423 1.66562 6.87507 1.65171C6.84759 1.61925 6.85217 1.57288 6.88422 1.5497C7.35132 1.13704 7.8871 1.38278 7.91 1.39205C7.94663 1.4106 7.96037 1.45233 7.94663 1.48942C7.92831 1.52652 7.8871 1.54043 7.85046 1.52652C7.83215 1.51724 7.37421 1.31323 6.98039 1.66098C6.95749 1.67489 6.9346 1.67953 6.9117 1.67489Z" fill="#331832"/>
<path d="M8.11607 1.29931C8.08401 1.29004 8.06111 1.26222 8.06111 1.22976C8.05654 0.770729 8.37251 0.42298 8.38625 0.40907C8.41372 0.38125 8.45951 0.376613 8.49157 0.404433C8.51905 0.432253 8.52363 0.47862 8.49615 0.511076C8.49157 0.515713 8.20765 0.831006 8.21223 1.22976C8.21223 1.27149 8.18018 1.30395 8.13896 1.30395C8.1298 1.30395 8.12065 1.29931 8.11607 1.29931Z" fill="#331832"/>
<path d="M14.605 1.87427C14.5821 1.86964 14.5592 1.84645 14.5501 1.82327C14.5409 1.78618 14.5638 1.74445 14.6005 1.73054C14.6462 1.71663 15.7132 1.43379 16.5513 1.97628C16.5833 1.99946 16.597 2.04583 16.5742 2.07829C16.5513 2.11074 16.5055 2.12465 16.4734 2.10147C15.6858 1.59144 14.6463 1.86964 14.6371 1.87427C14.6279 1.87891 14.6188 1.87891 14.605 1.87427Z" fill="#331832"/>
<path d="M11.2483 0.49207C11.2346 0.487434 11.2209 0.482797 11.2117 0.473524C11.1842 0.445704 11.1842 0.399337 11.2117 0.36688C11.2209 0.357607 11.4727 0.116501 11.8482 0.00985732C11.8849 0.000583997 11.9261 0.0237673 11.9398 0.0608606C11.949 0.0979539 11.9261 0.139684 11.8894 0.153594C11.546 0.250964 11.317 0.473524 11.3124 0.47816C11.2987 0.49207 11.2712 0.496707 11.2483 0.49207Z" fill="#331832"/>
<path d="M17.4396 29.6522C17.2518 29.6615 17.087 29.6661 16.9633 29.6754C16.8626 29.68 16.7756 29.6754 16.6977 29.6615C15.1911 29.6337 14.2249 29.3647 14.2249 29.3647C14.2249 29.3647 13.4189 26.2813 13.6479 26.0588C14.1791 25.5441 15.4475 24.7698 15.9833 24.2644C16.2169 24.0465 17.0503 23.3649 17.2976 23.5689C17.5128 23.7451 17.1007 24.6075 16.858 24.9924C18.937 24.6956 22.0922 25.201 17.7876 26.1422C17.7876 26.1469 17.7876 26.1469 17.7876 26.1515C18.2318 26.0959 20.7046 25.7945 20.5444 26.4204C20.4024 26.9769 18.6393 27.2643 17.9112 27.3617C17.9112 27.371 17.9112 27.3756 17.9112 27.3849C18.6622 27.3524 20.4757 27.3153 20.1688 27.7975C19.7842 28.4003 17.8609 28.7666 17.8609 28.7666C17.8609 28.7666 20.3291 28.3539 19.9719 29.1051C19.775 29.527 18.3371 29.6151 17.4396 29.6522Z" fill="#FFB27D"/>
<path d="M12.219 29.796C11.3809 29.796 10.5796 29.7311 9.81939 29.5966C7.93271 29.2674 6.25667 28.5256 4.85081 27.3942C0.102046 23.5922 0.0241966 16.7531 0.0241966 16.4656C0.0241966 16.4656 0.170735 15.6171 1.72313 15.6774C4.32419 15.7748 4.29672 17.1889 4.29672 17.1889C4.29672 17.1889 4.33335 21.5474 7.48393 24.0558C9.39809 25.5767 12.1869 25.9151 15.7725 25.0666L16.7342 29.2303C15.1406 29.6059 13.6294 29.796 12.219 29.796Z" fill="#FFB27D"/>
<path d="M25.2565 27.4776C25.2565 27.4776 31.0311 28.5997 33.2658 25.2798C35.5005 21.9646 35.9538 24.2598 35.3768 25.4189C34.7998 26.5735 31.3745 31.2148 27.2165 30.0324C23.0538 28.8501 25.2565 27.4776 25.2565 27.4776Z" fill="#331832"/>
<path d="M27.0332 32.9999C26.1174 32.9767 25.1649 32.9443 24.1757 32.9072C22.4264 32.8376 20.5581 32.7495 18.5432 32.6383C18.0669 32.6104 17.5815 32.5826 17.0869 32.5548C17.0137 32.5502 16.9358 32.5455 16.8625 32.5409C16.8167 32.5362 16.7755 32.5362 16.7297 32.5316C16.3268 32.3415 15.9238 32.1375 15.5345 31.9288C15.4384 31.8778 15.3422 31.8222 15.2506 31.7712C14.9942 31.6275 14.7469 31.4791 14.4996 31.3261C14.376 31.2519 14.2569 31.1731 14.1378 31.0942C13.9318 30.9598 13.7349 30.8207 13.5425 30.6769C13.2586 30.4683 12.9838 30.2504 12.7274 30.0278C12.6862 29.9907 12.645 29.9583 12.6083 29.9212C12.5625 29.8794 12.5168 29.8377 12.4664 29.796C11.8894 29.2628 11.404 28.6925 11.0514 28.0897C10.9827 27.9738 10.9231 27.8625 10.8636 27.7466C10.7445 27.5055 10.6438 27.2597 10.566 27.0093C10.5614 26.9908 10.5568 26.9769 10.5522 26.9583C10.3828 26.3695 10.282 25.827 10.2454 25.3262C10.2454 25.3216 10.2454 25.317 10.2454 25.3123C10.2362 25.1964 10.2317 25.0805 10.2271 24.9692C10.2271 24.9599 10.2271 24.9553 10.2271 24.946C10.2088 23.8425 10.4835 22.9615 10.8819 22.2475C11.6513 20.875 12.8831 20.1378 13.3593 19.6881C13.8081 19.2615 14.0508 18.8998 14.1699 18.5984C14.3302 18.1904 14.2569 17.8937 14.1424 17.6943C14.1287 17.6665 14.1104 17.6433 14.092 17.6201C14.0234 17.5227 13.9501 17.4578 13.8997 17.4254C13.8768 17.4068 13.8631 17.3976 13.8539 17.3929C13.8677 17.4022 13.886 17.4115 13.8997 17.4161C13.9134 17.4254 13.9272 17.43 13.9455 17.4393C14.0691 17.5042 14.1928 17.5645 14.3164 17.6155C14.3989 17.6526 14.4859 17.685 14.5683 17.7128C14.7973 17.7917 15.0216 17.8519 15.246 17.8937C15.7681 17.991 16.2764 17.991 16.7526 17.94C17.0915 17.9029 17.4121 17.838 17.7051 17.7592C18.7126 17.4856 19.4041 17.0498 19.4224 17.0405C19.4178 17.0498 19.3537 17.124 19.2713 17.2585C19.0331 17.634 18.6118 18.464 18.6988 19.4655C18.7172 19.6881 18.763 19.9153 18.8362 20.1471C18.9828 20.6015 19.2163 21.0512 19.5094 21.4824C19.514 21.4871 19.514 21.4917 19.5186 21.4964C19.7246 21.7977 19.9582 22.0898 20.21 22.3727C20.2146 22.3773 20.2192 22.382 20.2238 22.3912C20.4161 22.6045 20.6222 22.8132 20.8374 23.0172C21.0068 23.1795 21.1808 23.3371 21.3594 23.4901C21.5747 23.6756 21.7991 23.8564 22.0234 24.028C22.1608 24.1346 22.2982 24.2366 22.4356 24.334C22.9759 24.7281 23.5346 25.0851 24.0613 25.3958C25.2381 26.0867 26.0578 26.8517 26.5982 27.6399C26.6303 27.6863 26.6623 27.7327 26.6898 27.7744C26.8272 27.9877 26.9462 28.2056 27.0516 28.4189C27.3217 28.9892 27.4637 29.5595 27.5141 30.1159C27.6194 31.1823 27.3767 32.1885 27.0332 32.9999Z" fill="#EF8062"/>
<path d="M11.1612 26.6942C11.1612 26.6942 10.5338 25.2383 11.0375 24.158C11.5458 23.0776 11.6145 22.3775 12.7502 21.2925C13.8859 20.2122 14.4034 19.3915 14.7102 20.2214C15.017 21.0514 14.3118 22.0529 14.614 23.022C14.9162 23.991 13.8813 24.5706 13.95 25.5675C14.0187 26.569 14.9391 27.3897 14.266 27.9693C13.5928 28.5489 12.3198 28.5953 11.1612 26.6942Z" fill="#FFC8BD"/>
<path d="M17.0318 12.6035C17.0318 12.6035 10.2728 10.3269 9.23782 14.2959C9.23782 14.2959 8.97222 15.3762 10.749 15.928C12.5258 16.4797 12.6082 12.3809 15.2459 13.5818C17.879 14.7827 17.0318 12.6035 17.0318 12.6035Z" fill="#331832"/>
<path d="M18.1035 12.7977C17.0777 12.334 15.8916 12.3757 14.9346 12.9739C14.3393 13.3448 13.7714 13.9708 13.4783 15.0047C12.6953 17.7635 15.8046 19.085 17.8562 18.3524C19.72 17.6847 21.3731 14.2721 18.1035 12.7977Z" fill="#EF8062"/>
<path d="M16.7665 14.8194C16.7161 15.0281 16.565 15.1672 16.4276 15.1347C16.2902 15.1023 16.2124 14.9075 16.2627 14.6989C16.3131 14.4902 16.4642 14.3511 16.6016 14.3836C16.739 14.4161 16.8169 14.6108 16.7665 14.8194Z" fill="#331832"/>
<path d="M16.2442 14.1843C16.2442 14.1843 16.4411 13.8551 16.8853 13.5815C17.3341 13.3126 17.5447 12.9741 17.2196 12.8721C16.7571 12.7284 16.4823 12.8536 16.1435 13.1967C15.8 13.5398 15.4016 14.2399 15.713 14.3373C16.0152 14.4393 16.0748 14.5645 16.2442 14.1843Z" fill="#FFC8BD"/>
<path d="M15.5757 14.537C15.5757 14.537 12.9838 14.1058 12.6175 14.9961C12.416 15.4922 14.1332 16.2109 14.985 16.081C15.8413 15.9466 16.8442 14.7967 15.5757 14.537Z" fill="#EF8062"/>
<path d="M19.1568 13.6047C19.1568 13.6047 23.063 12.6449 25.0229 16.9431C26.9829 21.2413 20.7412 21.1068 20.7916 18.8487C20.842 16.5907 20.9152 14.8844 19.4819 14.6247C19.4819 14.6247 18.8088 14.5552 18.7996 14.0637C18.7904 13.6603 19.1568 13.6047 19.1568 13.6047Z" fill="#331832"/>
<path d="M14.2111 17.6989C14.2111 17.6989 15.3651 17.8844 15.8871 16.8411C16.1344 16.3496 12.8739 16.651 12.8739 16.651L13.3547 17.5552L14.2111 17.6989Z" fill="#331832"/>
<path d="M12.5946 17.6527C12.6404 17.6991 12.7365 18.5615 13.9409 18.6032C15.0171 18.6403 15.6169 17.3513 15.4017 17.4116C13.4921 17.9495 13.0891 17.2076 12.8602 17.3096C12.6266 17.4162 12.5946 17.6527 12.5946 17.6527Z" fill="#FFC8BD"/>
<path d="M13.5654 16.3312C13.5654 16.3312 12.3336 16.8644 11.9993 18.3713C11.665 19.8782 12.7778 20.2167 13.2815 19.2708C13.7852 18.325 13.5425 17.5089 14.3714 16.8459C14.3714 16.8412 14.1287 16.1875 13.5654 16.3312Z" fill="#FF635C"/>
<path d="M12.4986 19.1594C12.4802 19.1594 12.4711 19.1455 12.4711 19.1316C12.5077 18.0142 12.9473 17.3372 13.3045 16.9709C13.6984 16.5676 14.0739 16.4377 14.0922 16.4285C14.1059 16.4238 14.1242 16.4331 14.1288 16.447C14.1334 16.4609 14.1242 16.4795 14.1105 16.4841C14.0968 16.4887 12.5947 17.0359 12.526 19.1363C12.526 19.1502 12.5169 19.1594 12.4986 19.1594Z" fill="#FF8280"/>
<path d="M13.4326 16.3638C13.4326 16.3638 13.2266 16.9991 14.0463 17.2077C14.866 17.4164 16.7206 17.2402 16.5099 16.2015C16.3451 15.3901 14.9163 15.5895 14.6324 15.6869C14.3531 15.7842 13.4326 16.3638 13.4326 16.3638Z" fill="#FFC8BD"/>
<path d="M12.5945 15.2461C12.5945 15.2461 12.1824 15.5011 12.2007 15.8535C12.2145 16.2059 12.4205 16.8736 12.9746 16.8411C13.5242 16.8086 13.5196 15.9833 13.5196 15.9833L12.5945 15.2461Z" fill="#FFC8BD"/>
<path d="M12.6817 14.894C12.6817 14.894 14.6874 15.1908 14.9484 15.5849C15.2094 15.9837 13.8906 16.4751 13.538 16.3639C13.19 16.2526 12.0177 15.0331 12.6817 14.894Z" fill="#331832"/>
<path d="M15.1452 14.2213C15.0948 14.43 14.9437 14.5691 14.8063 14.5366C14.6689 14.5041 14.5911 14.3094 14.6415 14.1008C14.6918 13.8921 14.843 13.753 14.9803 13.7855C15.1177 13.8226 15.1956 14.0173 15.1452 14.2213Z" fill="#331832"/>
<path d="M20.0407 19.9058C20.0407 19.9058 19.5049 18.9506 18.7997 19.3818C17.9021 19.929 17.3892 21.6723 17.9617 21.3339C18.47 21.0371 18.8958 20.5735 18.8958 20.5735C18.8958 20.5735 17.5587 22.0433 18.0212 22.34C18.4837 22.6321 19.5873 21.3849 19.5873 21.3849C19.5873 21.3849 18.4471 22.9799 18.9462 23.1097C19.4408 23.2395 20.3566 22.2102 20.3566 22.2102C20.3566 22.2102 19.2301 23.5966 19.8117 23.731C20.3887 23.8655 20.9245 22.8222 21.2542 22.4513C21.561 22.1036 21.4282 21.728 21.0619 21.3617C21.0619 21.3617 20.8512 20.7867 20.5673 20.6059C20.4574 20.5364 20.4437 20.3648 20.3841 20.286C20.2788 20.1376 20.0407 19.9058 20.0407 19.9058Z" fill="#FFB27D"/>
<path d="M20.8512 23.0637C20.8329 23.0637 20.8146 23.0544 20.8008 23.0405C20.778 23.0127 20.7825 22.9709 20.81 22.9478C21.6389 22.2291 21.442 21.886 21.2679 21.5846C21.2221 21.5058 21.1809 21.4316 21.1535 21.3528C21.0436 20.9957 20.897 20.8705 20.6635 20.7685C20.5078 20.699 20.4437 20.5135 20.3887 20.3512C20.3429 20.2168 20.3017 20.0916 20.2193 20.0638C20.0636 20.0128 19.9583 19.9015 19.8163 19.7485C19.7293 19.6557 19.6194 19.5445 19.4774 19.4146C19.34 19.2894 19.1752 19.2663 18.9874 19.3404C18.8409 19.3961 18.7402 19.4934 18.7402 19.4934C18.7127 19.5166 18.676 19.5166 18.6486 19.4888C18.6257 19.461 18.6257 19.4239 18.6531 19.3961C18.818 19.2338 19.2256 19.0112 19.5599 19.3126C19.711 19.4471 19.8209 19.563 19.9079 19.6557C20.0453 19.7995 20.1323 19.8968 20.2605 19.9386C20.4024 19.9849 20.4574 20.1472 20.5078 20.3049C20.5581 20.4486 20.6039 20.597 20.7138 20.6433C20.9749 20.7593 21.1489 20.9076 21.2725 21.3064C21.2908 21.3713 21.3321 21.4408 21.3733 21.5104C21.5519 21.8211 21.7991 22.2476 20.8879 23.0359C20.8787 23.059 20.865 23.0637 20.8512 23.0637Z" fill="#EC865C"/>
<path d="M14.7286 25.2893C14.7286 25.2893 12.6862 24.7236 10.882 24.872C9.94777 24.9508 9.0777 25.2197 8.59229 25.8642C7.18185 27.7467 6.94373 29.7915 8.55565 30.4684C10.1722 31.1454 11.0056 29.7266 10.8545 28.4654C10.7034 27.2042 13.6387 29.4252 14.2844 29.1099C14.9347 28.79 15.6765 25.7205 14.7286 25.2893Z" fill="#EF8062"/>
<path d="M10.8635 28.4887C10.8589 28.4887 10.8589 28.4887 10.8635 28.4887C10.8498 28.4887 10.8406 28.4748 10.8406 28.4609C10.9643 27.3713 10.5155 26.9818 10.5109 26.9772C10.5018 26.9679 10.5018 26.954 10.5063 26.9447C10.5155 26.9354 10.5292 26.9354 10.5384 26.9401C10.5567 26.9586 11.0101 27.3527 10.8864 28.4655C10.8818 28.4794 10.8727 28.4887 10.8635 28.4887Z" fill="#331832"/>
<path d="M9.08211 30.6446C9.07753 30.6446 9.07753 30.6446 9.07295 30.6446C8.82109 30.5472 8.65623 30.3989 8.58296 30.2041C8.45932 29.8749 8.63791 29.5318 8.64707 29.5179C8.65165 29.504 8.66539 29.504 8.67913 29.5086C8.69286 29.5133 8.69286 29.5272 8.68829 29.5411C8.68829 29.5457 8.51427 29.8796 8.62875 30.1856C8.69744 30.3711 8.85314 30.5055 9.09127 30.5983C9.105 30.6029 9.10958 30.6168 9.105 30.6307C9.10042 30.64 9.09127 30.6446 9.08211 30.6446Z" fill="#331832"/>
<path d="M9.89281 30.561C9.55393 30.5471 9.4944 30.0278 9.48982 30.0093C9.48982 29.9954 9.49898 29.9861 9.51272 29.9814C9.52646 29.9814 9.53562 29.9907 9.5402 30.0046C9.5402 30.0093 9.59515 30.5054 9.89281 30.5147C9.90655 30.5147 9.9157 30.5239 9.9157 30.5378C9.9157 30.5518 9.90655 30.561 9.89281 30.561Z" fill="#331832"/>
<path d="M7.77242 29.8841C7.76784 29.8841 7.75868 29.8795 7.7541 29.8749C7.54346 29.6337 7.70831 29.0263 7.71747 28.9985C7.72205 28.9846 7.73579 28.98 7.74494 28.98C7.75868 28.9846 7.76326 28.9985 7.76326 29.0078C7.76326 29.0124 7.59841 29.6152 7.79074 29.8378C7.7999 29.847 7.7999 29.8609 7.79074 29.8702C7.78158 29.8795 7.777 29.8841 7.77242 29.8841Z" fill="#331832"/>
<path d="M10.6026 25.3126C8.71136 25.3544 8.18015 23.9773 8.02904 25.155C8.0153 25.2477 7.99698 25.3451 7.97408 25.4332C7.7039 26.4904 6.69645 27.3435 5.49208 26.4301C5.26312 26.2585 5.09826 26.0591 4.98378 25.8459C4.94714 25.7763 4.91509 25.7068 4.89219 25.6326C4.55332 24.6357 5.11658 23.3931 6.53617 22.4936C8.19389 21.441 11.3124 22.3498 11.3124 22.3498L10.6026 25.3126Z" fill="#EF8062"/>
<path d="M7.9739 25.4332C7.70372 26.4904 6.69626 27.3435 5.4919 26.4301C5.26293 26.2586 5.09808 26.0592 4.98359 25.8459C4.97901 25.8366 4.91948 25.7624 4.89201 25.6326C4.85079 25.4379 4.87827 25.1226 5.26751 24.7563C5.92236 24.1396 6.53141 24.8212 7.08551 24.9371C7.53428 25.0345 7.90521 25.0901 7.9739 25.4332Z" fill="#FFC8BD"/>
<path d="M8.07002 25.025H8.06544C8.0517 25.0203 8.04254 25.0111 8.04712 24.9972C8.13871 24.5706 8.1616 24.0976 8.1616 24.093C8.1616 24.0791 8.17534 24.0698 8.1845 24.0698C8.19824 24.0698 8.2074 24.0837 8.2074 24.093C8.2074 24.0976 8.1845 24.5752 8.09291 25.0064C8.08833 25.0157 8.07918 25.025 8.07002 25.025Z" fill="#331832"/>
<path d="M6.72367 26.8239C6.71909 26.8239 6.71909 26.8239 6.71451 26.8239C5.93602 26.541 6.11919 25.9475 6.11919 25.9429C6.12377 25.929 6.13751 25.9243 6.15125 25.929C6.16499 25.9336 6.16957 25.9475 6.16499 25.9614C6.15583 25.9846 5.99555 26.5178 6.72825 26.7821C6.74198 26.7868 6.74656 26.8007 6.74198 26.8146C6.74198 26.8146 6.73283 26.8239 6.72367 26.8239Z" fill="#331832"/>
<path d="M7.4336 26.3882C7.30995 26.3882 7.20463 26.3511 7.12678 26.2769C6.9665 26.1239 6.97566 25.8689 6.97566 25.8596C6.97566 25.8457 6.98482 25.8364 6.99856 25.8364C7.0123 25.8364 7.02146 25.8457 7.02146 25.8596C7.02146 25.8642 7.01688 26.1007 7.15884 26.2398C7.23668 26.314 7.34659 26.3465 7.48397 26.3372C7.49771 26.3372 7.50686 26.3465 7.51144 26.3604C7.51144 26.3743 7.50228 26.3835 7.48855 26.3882C7.46565 26.3882 7.44733 26.3882 7.4336 26.3882Z" fill="#331832"/>
<path d="M5.66123 26.5732C5.65665 26.5732 5.65207 26.5732 5.65207 26.5686C5.37273 26.4202 5.36815 26.0122 5.36815 25.9983C5.36815 25.9844 5.37731 25.9751 5.39105 25.9751C5.40478 25.9751 5.41394 25.9844 5.41394 25.9983C5.41394 26.0029 5.41852 26.3924 5.67039 26.5269C5.68412 26.5315 5.68412 26.5454 5.67954 26.5593C5.67496 26.5686 5.66581 26.5732 5.66123 26.5732Z" fill="#331832"/>
<path d="M9.52191 25.1966C9.51275 25.1966 9.50359 25.192 9.49901 25.1827C9.49443 25.1734 9.49901 25.1549 9.50817 25.1503C10.0394 24.8489 10.8728 24.8442 10.882 24.8442C10.8957 24.8442 10.9049 24.8535 10.9049 24.8674C10.9049 24.8813 10.8957 24.8906 10.882 24.8906C10.8728 24.8906 10.0531 24.8952 9.53107 25.192C9.53107 25.1966 9.52649 25.1966 9.52191 25.1966Z" fill="#331832"/>
</svg>
