<svg width="33" height="33" viewBox="0 0 33 33" fill="none" xmlns="http://www.w3.org/2000/svg">
<g clip-path="url(#clip0)">
<path d="M21.8763 29.9917C21.8763 29.9917 21.7608 31.2581 21.8361 31.6726C21.8461 31.7285 21.8687 31.7972 21.8938 31.876C21.9716 32.1074 21.7583 32.8144 21.7583 32.8144L18.9109 32.8246C18.7554 32.8246 18.8607 32.7254 18.9862 32.6338C19.1919 32.4838 19.36 32.3846 20.0173 32.0744C20.0599 32.054 20.2155 31.9574 20.2732 31.9218C20.4162 31.8353 20.5617 31.7006 20.6846 31.5632C20.8928 31.3344 20.9229 30.218 20.9229 30.218L21.8763 29.9917Z" fill="#F7A491"/>
<path d="M20.2732 31.9217C21.0233 32.1276 21.5828 32.0005 21.8939 31.8784C21.9716 32.1098 22.1171 32.8905 22.0293 32.8905C21.3143 32.8905 20.7097 33.0278 18.6651 32.9948C18.5923 32.9948 18.5999 32.7379 18.6475 32.682C18.783 32.5269 20.2155 31.9547 20.2732 31.9217Z" fill="white"/>
<path d="M25.4461 14.9551C25.4461 14.9551 25.406 16.7631 24.8942 17.9202C24.3975 19.0467 22.0142 21.8287 21.3795 23.4537C21.5751 24.3691 22.1145 25.6559 22.0744 26.6705C22.0292 27.8199 22.097 30.8639 22.097 30.8639L20.8175 30.9045L19.1417 23.0519L21.6705 14.5787L22.817 12.5215L25.4461 14.9551Z" fill="#3C8F7C"/>
<path d="M30.9102 28.1909C30.9102 28.1909 31.6954 29.2844 32.0416 29.559C32.2273 29.7065 32.7316 29.9049 32.7842 30.1515C32.8369 30.3957 30.5038 32.5597 30.5038 32.5597C30.3809 32.6716 30.3934 32.5165 30.431 32.3538C30.4912 32.0867 30.5565 31.8909 30.8676 31.1738C30.8876 31.128 30.9453 30.9373 30.9654 30.8712C31.0206 30.7008 31.0407 30.4898 31.0457 30.2914C31.0532 29.9634 30.3056 29.0479 30.3056 29.0479L30.9102 28.1909Z" fill="#F7A491"/>
<path d="M30.9654 30.8713C31.7055 30.5 32.0643 30.0041 32.2298 29.6812C32.4506 29.8108 33.0477 30.088 32.9975 30.1643C32.5861 30.7721 32.1571 31.5248 30.5013 32.9565C30.4411 33.0073 30.1978 32.7124 30.1978 32.6335C30.1953 32.4148 30.9454 30.9374 30.9654 30.8713Z" fill="white"/>
<path d="M21.5024 2.02405C21.7232 0.566934 23.0252 -0.483309 24.3849 0.226177C24.691 0.386384 25.105 0.70934 25.3157 0.983979C25.8977 1.73924 26.0382 2.67759 26.6554 3.40488C27.1872 4.03299 28.6047 3.91347 29.267 4.39663C29.9293 4.8798 30.3934 5.7444 30.3934 6.77684C30.3934 7.93389 30.135 9.16214 29.2519 9.89197C28.3688 10.6243 27.1119 10.8049 26.0106 10.4947C24.9118 10.1844 23.9685 9.42661 23.2886 8.49589C22.6088 7.56516 22.1296 6.54798 21.7909 5.44179C21.4146 4.211 21.3594 2.96749 21.5024 2.02405Z" fill="#B75742"/>
<path d="M16.4925 15.9107C16.6756 15.7505 17.0695 15.3971 17.0344 15.3615C16.9867 15.3131 16.8161 15.3487 16.7609 15.3691C16.7057 15.3894 16.6405 15.4098 16.5853 15.4301C16.5301 15.4505 16.4699 15.4276 16.4398 15.3615C16.4097 15.2953 16.6079 15.1631 16.6856 15.1326C16.929 15.0334 17.6264 14.9037 17.7017 14.8859C17.7895 14.8656 18.7855 13.6348 19.1593 13.2406C19.7538 12.5769 20.3309 11.8649 20.3936 11.7937L22.0217 8.32764L23.5069 8.43698C23.5069 8.43698 21.7558 12.3074 21.6454 12.4905C21.5927 12.5769 20.1 14.0086 20.0975 14.0061C19.3173 14.6621 18.6299 15.2394 18.4995 15.3538C18.4995 15.3538 18.2034 15.8014 18.0328 16.0989C17.9225 16.2896 17.7694 16.4397 17.659 16.5439C17.3505 16.2617 16.9591 16.1752 16.5953 15.9769C16.5602 15.9616 16.5251 15.9362 16.4925 15.9107Z" fill="#F48C7F"/>
<path d="M22.7343 5.64746C22.7343 5.64746 21.5853 6.20437 21.0209 9.66279L22.9677 10.2121L23.778 7.9819L22.7343 5.64746Z" fill="#FAE0B2"/>
<path d="M25.3559 13.7979C25.3559 13.7979 26.3443 15.3033 26.5801 16.5493C26.8084 17.7623 26.4271 21.4267 26.826 23.1254C27.5033 23.7612 28.6724 24.5037 29.2143 25.3582C29.829 26.327 31.6026 28.7835 31.6026 28.7835L30.5766 29.5591L24.7638 24.0968L22.4106 16.8087L21.6028 14.6777L25.3559 13.7979Z" fill="#50BFA5"/>
<path d="M24.5555 5.2334C24.5555 5.2334 26.1109 5.26646 26.3819 5.7191C26.7783 6.38282 25.2329 10.8076 25.1401 11.5349C25.0447 12.2621 25.9127 13.7116 25.9127 13.7116C25.9127 13.7116 22.3102 15.4205 21.4321 14.8305C21.4321 14.8305 21.5726 9.00715 21.668 8.48585C21.7633 7.96708 22.546 5.85642 22.7342 5.6479C22.9223 5.43938 24.5555 5.2334 24.5555 5.2334Z" fill="white"/>
<path d="M24.119 3.46362C24.119 3.46362 24.1265 3.50177 24.139 3.56788C24.1967 3.88575 24.4225 4.94362 24.5731 5.23352C24.7562 5.58445 23.9459 6.70335 23.1631 6.56603C22.9298 6.52535 23.3588 5.53868 23.3388 5.43187C23.2986 5.23098 23.2459 4.95888 23.1907 4.67916C23.1606 4.52149 23.128 4.36129 23.0979 4.21125C23.0151 3.78403 22.9474 3.43311 22.9474 3.43311L24.119 3.46362Z" fill="#F7A491"/>
<path d="M24.139 3.56788C24.1265 3.50177 24.119 3.46362 24.119 3.46362L22.9474 3.43311C22.9474 3.43311 23.0151 3.78403 23.0979 4.21125C23.128 4.36129 23.1581 4.52149 23.1882 4.67661C23.3689 4.64864 23.557 4.55964 23.7477 4.39434C23.9534 4.21125 24.0889 3.99256 24.1717 3.75606C24.1591 3.68232 24.1491 3.61874 24.139 3.56788Z" fill="#F47458"/>
<path d="M23.3313 0.770147C23.3313 0.770147 23.8832 0.706573 24.2295 1.15922C24.5757 1.61187 24.947 3.0105 24.089 3.77084C23.231 4.53119 22.3805 3.67167 22.2551 2.7562C22.1296 1.84582 22.0795 0.737089 23.3313 0.770147Z" fill="#F7A491"/>
<path d="M22.0016 2.74356C22.1045 2.94446 22.2751 3.05635 22.3855 2.99277C22.4958 2.9292 22.5009 2.71305 22.398 2.51215C22.2951 2.31126 22.122 2.19937 22.0142 2.26294C21.9038 2.32652 21.8988 2.54267 22.0016 2.74356Z" fill="#F7A491"/>
<path d="M23.2711 0.620399C23.2711 0.620399 24.0087 1.95037 24.5355 2.01394C25.0624 2.07497 25.1326 2.78192 25.1326 2.78192C25.1326 2.78192 24.9445 1.15188 24.4226 0.839094C23.8983 0.523767 23.2711 0.620399 23.2711 0.620399Z" fill="#B75742"/>
<path d="M24.3975 2.34707C24.3549 2.58356 24.4402 2.79972 24.5907 2.83023C24.7412 2.86075 24.8967 2.69545 24.9394 2.45896C24.982 2.22246 24.8967 2.00631 24.7462 1.9758C24.5957 1.94528 24.4402 2.11057 24.3975 2.34707Z" fill="#F7A491"/>
<path d="M5.70984 20.6617L5.73743 20.8626L6.53773 20.6057L6.40727 20.1226L5.70984 20.6617ZM5.82524 20.7024L6.29438 20.3514L6.36964 20.5701L5.82524 20.7024Z" fill="#355389"/>
<path d="M3.72552 18.4595L3.98643 17.272L5.54436 18.251L4.65376 18.9783C4.65125 18.9808 4.37027 18.2408 3.72552 18.4595Z" fill="#F47458"/>
<path d="M13.8708 22.874C13.8708 22.874 15.6696 23.6878 17.659 24.6973C19.6485 25.7069 20.1276 25.6102 20.4162 25.3178C20.7021 25.0279 20.7222 24.3769 20.7222 24.3769C20.7222 24.3769 21.1914 25.0661 20.953 25.9485C20.7147 26.8309 20.0248 26.841 20.0248 26.841L19.5281 26.541L19.8542 27.1335C19.8542 27.1335 19.1517 27.5073 18.4945 26.8436C17.8397 26.1799 17.6992 25.7577 17.6992 25.7577C17.6992 25.7577 17.9576 26.7851 18.216 27.047C18.216 27.047 17.4885 27.3776 17.0569 26.7851C16.6254 26.1926 16.4348 25.4373 16.4348 25.4373L16.5978 26.8232C16.5978 26.8232 15.928 26.5613 15.5642 25.4856L15.7549 26.5028C15.7549 26.5028 15.0801 25.5543 14.8041 24.4964C14.5281 23.4386 13.9561 23.3216 13.9561 23.3216L13.8708 22.874Z" fill="#B75742"/>
<path d="M10.4388 26.521C10.4388 26.521 10.3736 28.7512 11.8538 29.5675C12.2125 29.7658 12.7946 30.4906 12.6792 30.8873C12.5713 31.2662 11.6857 32.0443 11.6857 32.0443C11.6857 32.0443 11.071 32.0901 10.7926 32.7919C10.7474 32.9038 10.9481 32.8759 10.9481 32.8759L12.5161 32.8784L13.8683 30.5592L13.7755 29.1046L12.8949 26.8414L11.2115 26.5693L10.4388 26.521Z" fill="#B75742"/>
<path d="M3.03805 25.0308C3.03805 25.0308 1.02854 28.0925 0.589514 28.7587C0.283447 29.2216 0.283447 29.8039 0.283447 29.8039C0.283447 29.8039 0.368745 30.7346 0.551883 30.9203C0.579479 30.9482 0.627145 30.9711 0.684846 30.9838C1.14645 31.1008 1.55538 30.6583 1.42493 30.1955C1.36472 29.9819 1.31705 29.7861 1.31705 29.7047C1.31705 29.4911 1.41238 29.4708 1.41238 29.4708L3.63262 28.1739L4.36016 26.0174L3.03805 25.0308Z" fill="#B75742"/>
<path d="M4.49565 25.7072L4.85942 28.6214L4.68632 31.9349C4.68632 31.9349 3.97885 32.1104 3.76812 32.4791C3.55738 32.8478 3.59501 32.9063 3.59501 32.9063H5.27838C5.27838 32.9063 6.65568 29.5852 6.65568 29.2165C6.65568 28.8477 7.01945 26.793 7.01945 26.5209C7.01945 26.2488 6.78864 25.0308 5.98585 24.9341C5.18556 24.835 4.49565 25.7072 4.49565 25.7072Z" fill="#F47458"/>
<path d="M2.16254 17.9943L2.59655 17.3993C2.59655 17.3993 4.02653 16.9848 4.63866 17.6052C4.83435 17.8036 5.05512 18.0909 5.14041 18.4724C5.18557 18.6707 5.1931 19.0725 5.19059 19.4311C5.18557 19.8329 5.26836 20.0999 5.42641 20.461C5.70739 20.8958 6.87395 21.8087 7.33807 21.9232L7.01193 21.88C7.01193 21.88 7.63912 22.2182 8.15592 22.3072C10.1679 22.6276 13.201 22.6861 13.8759 22.8819C14.6787 23.1158 15.1679 25.5189 14.9471 26.7319C14.7263 27.9449 16.3645 27.4592 16.7584 28.2424C17.1322 28.9824 15.6972 32.3849 15.6972 32.3849C15.6972 32.3849 15.3259 32.8426 15.2582 32.9113H13.6375C13.6375 32.9113 13.6877 31.8509 14.498 31.5788C15.3083 31.3067 15.1929 29.5546 15.1929 29.5546C15.1929 29.5546 12.925 29.8394 11.7284 28.3518C10.9356 27.3677 10.9582 26.9074 11.0134 26.7777C10.5894 27.0167 7.62909 28.6391 6.13889 28.3518C4.53079 28.0415 4.02151 27.0574 4.02151 27.0574L4.12939 27.7694C4.12939 27.7694 3.04812 27.3727 3.15349 26.4802C3.15349 26.4802 2.99042 26.5971 2.99042 26.8489C2.99042 26.8489 2.52129 26.2386 2.52129 24.2983C2.52129 23.215 2.55892 20.4737 2.55892 20.4737C2.55892 20.4737 0.637221 20.1177 0.386346 19.8634C0.223278 19.693 0 18.4368 0 18.4368L2.16254 17.9943Z" fill="#F47458"/>
<path d="M5.54432 18.2536C5.54432 18.2536 5.15546 19.1055 4.75406 19.2351C4.35267 19.3648 3.98639 17.272 3.98639 17.272C3.98639 17.272 4.55086 17.0533 5.03254 17.5415C5.22069 17.7348 5.54432 18.2536 5.54432 18.2536Z" fill="#B75742"/>
<path d="M4.31007 26.2102C4.78924 26.7748 4.35021 26.256 4.67885 26.6451C4.74659 25.961 4.53334 25.1066 4.35773 24.4301C4.65627 24.7556 5.05516 25.4041 5.24332 25.6787C4.90464 25.0862 4.98994 23.9419 5.05767 23.268C5.06018 23.2706 5.44904 23.7385 5.6096 23.9317C5.6397 23.6266 5.69238 22.9527 5.58953 22.6577C5.48416 22.3551 5.17809 21.9991 4.9498 21.7778C5.20569 21.994 5.52179 22.3246 5.64723 22.6348C5.81782 23.062 5.69489 24.1199 5.69238 24.1962C5.1229 23.5426 5.51176 23.9877 5.15551 23.5757C5.11788 24.1428 5.06269 25.3202 5.3236 25.7906C5.01753 25.5948 4.72903 25.1701 4.55091 24.8446C5.01001 26.0475 4.71397 26.7519 4.71147 26.7722C4.71397 26.7748 4.68638 26.7391 4.32261 26.2611C4.30254 26.3348 4.2624 26.4925 4.25738 26.5688C4.25487 26.5383 4.29251 26.2967 4.31007 26.2102Z" fill="#B75742"/>
<path d="M5.56443 20.3516L5.82534 20.9059C5.82534 20.9059 5.57698 22.7801 2.53889 22.5716L2.43854 21.7782C2.43854 21.7756 5.20819 21.679 5.56443 20.3516Z" fill="#184655"/>
<path d="M15.2324 16.0467L6.29474 20.3911L6.39237 20.5975L15.3301 16.2531L15.2324 16.0467Z" fill="#184655"/>
<path d="M15.1854 16.1757L15.4287 15.9214L16.8211 15.4077L18.394 16.1757L16.5627 18.0549L16.4297 17.5997L17.5787 16.4427L16.6655 15.8349L16.5301 15.9138L16.0534 16.196L15.1854 16.1757Z" fill="#FAE0B2"/>
<path d="M14.2748 17.1802C14.2522 17.938 14.8618 18.556 15.6069 18.5306C16.2843 18.5077 16.8337 17.9508 16.8563 17.2642C16.8814 16.5064 16.2692 15.8884 15.5241 15.9138C14.8468 15.9367 14.2948 16.4962 14.2748 17.1802Z" fill="#F7CC7F"/>
<path d="M14.9095 17.1499C14.8743 17.5949 15.2381 17.9636 15.6771 17.928C16.0233 17.9 16.3018 17.6178 16.3294 17.2669C16.3645 16.8218 16.0007 16.4531 15.5617 16.4887C15.218 16.5141 14.937 16.7989 14.9095 17.1499Z" fill="#FAE0B2"/>
<path d="M16.8563 15.0389C16.8563 15.0389 16.4574 15.7916 16.4975 15.934C16.5201 16.0103 17.1498 16.4604 17.5161 16.4604C17.8823 16.4604 17.4458 15.6594 17.3681 15.7407C17.2903 15.8196 17.3405 16.0001 17.3405 16.0001C17.3405 16.0001 17.2727 15.4483 17.1849 15.3593C17.0971 15.2703 17.0645 15.4585 17.0645 15.4585C17.0645 15.4585 17.195 14.988 17.0645 14.9473C16.934 14.9016 16.8563 15.0389 16.8563 15.0389Z" fill="#F79C8D"/>
<path d="M25.5289 8.6204C25.5289 8.6204 26.4195 11.8601 26.5776 12.6052C26.7356 13.3503 26.4747 16.3052 26.4747 16.412C26.4747 16.5188 25.3382 17.3783 25.4863 17.4775C25.6318 17.5767 26.0432 17.0096 26.1862 17.1495C26.3292 17.2893 26.264 19.0084 26.3894 18.9702C26.6252 18.8965 26.4697 17.92 26.5851 17.9047C26.7005 17.892 26.6503 18.9423 26.851 18.9855C27.0517 19.0313 26.8059 17.9887 26.8861 17.9353C26.9664 17.8819 27.2524 18.8838 27.418 18.7566C27.5083 18.688 27.142 17.8717 27.275 17.859C27.4079 17.8463 27.7868 18.426 27.8821 18.337C27.9774 18.248 27.4983 17.892 27.4456 17.5335C27.3954 17.1749 27.1696 16.941 27.2599 16.3459C27.3502 15.7509 27.704 13.2257 27.704 12.473C27.704 11.6745 27.0266 8.56445 27.0266 8.56445L25.5289 8.6204Z" fill="#F79C8D"/>
<path d="M25.7874 10.4923C25.7874 10.4923 25.0323 8.0917 25.0097 7.23472C24.9871 6.37774 25.4387 5.35802 26.1663 5.53857C26.8963 5.71912 27.4156 9.6785 27.4156 9.6785L25.7874 10.4923Z" fill="#FAE0B2"/>
</g>
<defs>
<clipPath id="clip0">
<rect width="33" height="33" fill="white"/>
</clipPath>
</defs>
</svg>
