<svg width="12" height="10" viewBox="0 0 12 10" fill="none" xmlns="http://www.w3.org/2000/svg">
<path fill-rule="evenodd" clip-rule="evenodd" d="M0.75 5.71432H9.64875L6.924 8.82863C6.6585 9.13149 6.702 9.5822 7.02 9.83435C7.33875 10.0872 7.81125 10.0458 8.07675 9.74292L11.8268 5.45718C11.856 5.42361 11.8702 5.38432 11.892 5.34718C11.91 5.31718 11.9318 5.29146 11.9453 5.25861C11.979 5.17646 11.9992 5.09003 11.9992 5.00289C11.9992 5.00218 12 5.00075 12 5.00003C12 4.99932 11.9992 4.99789 11.9992 4.99717C11.9992 4.91003 11.979 4.8236 11.9453 4.74146C11.9318 4.7086 11.91 4.68289 11.892 4.65289C11.8702 4.61574 11.856 4.57646 11.8268 4.54289L8.07675 0.257145C7.9275 0.0878577 7.7145 0 7.5 0C7.3305 0 7.16025 0.0542861 7.02 0.165715C6.702 0.41786 6.6585 0.868577 6.924 1.17144L9.64875 4.28574H0.75C0.336 4.28574 0 4.60574 0 5.00003C0 5.39432 0.336 5.71432 0.75 5.71432" fill="#70C818"/>
</svg>
