<svg width="43" height="32" viewBox="0 0 43 32" fill="none" xmlns="http://www.w3.org/2000/svg">
<g clip-path="url(#clip0)">
<path d="M27.577 5.45539C26.613 4.53573 24.2451 1.0452 24.287 0.0419383C24.3079 -0.480596 29.6934 2.4665 31.3698 5.6226L27.577 5.45539Z" fill="#FFA35F"/>
<path d="M30.1125 5.58084L31.6212 5.78985C29.9658 2.67554 24.4546 -0.376056 24.2869 0.0419715C25.4814 0.606309 28.7294 3.05177 30.1125 5.58084Z" fill="#FFC37B"/>
<path d="M25.3977 23.1586C27.1789 24.1618 33.8426 27.3179 36.3572 27.0253C37.4679 26.8999 38.4737 25.0397 37.9917 24.4335C37.6355 23.9946 36.2106 24.2663 35.54 25.1651C35.54 25.1651 31.1394 22.8868 29.8612 20.4414C25.9844 19.2709 25.3977 23.1586 25.3977 23.1586Z" fill="#FFC37B"/>
<path d="M33.2558 23.7857C31.9775 22.9078 30.5107 21.6956 29.8611 20.4624C26.0053 19.2919 25.4186 23.1796 25.4186 23.1796C27.1998 24.1828 33.8635 27.3389 36.3781 27.0463C37.0906 26.9627 37.7402 26.1893 38.0126 25.4787C36.1686 27.8824 31.2651 25.5205 33.2558 23.7857Z" fill="#FFA35F"/>
<path d="M6.83139 21.2985C6.74757 21.9883 7.6696 22.6571 7.35527 23.2632C7.04094 23.8694 6.30751 24.0784 5.63695 23.4096C5.13402 22.9079 5.0502 21.0268 5.72077 20.2743C6.39133 19.5219 7.10381 19.8772 8.00488 18.7485L8.92691 19.9399C8.92691 19.9399 6.95712 20.4625 6.83139 21.2985Z" fill="#FF7D43"/>
<path d="M9.42977 19.1458C11.1062 22.1347 17.5185 28.1751 25.3138 26.503C33.1091 24.8309 30.0287 10.7434 22.9878 12.4991C15.9468 14.2548 15.3182 13.2516 13.977 12.3737C12.6359 11.4959 8.84302 9.67744 8.29819 11.7467C7.75335 13.8159 9.42977 19.1458 9.42977 19.1458Z" fill="#FFC37B"/>
<path d="M22.9668 12.499C21.3742 12.8961 20.0959 13.1469 19.0691 13.2932C21.5209 16.0731 21.94 21.821 20.3893 23.6394C18.5871 25.7714 12.6359 22.7825 11.3995 19.1247C11.0223 18.017 9.47163 18.0379 8.88489 17.1809C9.1573 18.3096 9.19922 19.3546 9.19922 19.3546C10.8756 22.3435 17.4975 28.1541 25.2928 26.482C33.0881 24.8099 30.0077 10.7433 22.9668 12.499Z" fill="#FFA35F"/>
<path d="M1.80215 22.9288C2.2003 24.5382 2.09553 26.1267 0.90108 26.064C-0.0628575 26.0013 -0.272409 23.0124 0.440067 22.2182C1.15254 21.4239 2.05361 20.6297 2.28412 19.3965C2.59845 17.6617 5.25976 12.1646 8.90596 10.9732C13.6628 9.40562 11.9864 20.1698 10.5195 20.6506C9.01073 21.1313 1.21541 20.546 1.80215 22.9288Z" fill="#FFC37B"/>
<path d="M11.4205 17.8082C9.32501 20.5045 4.90347 21.3405 3.10132 19.961C2.78699 19.7102 2.51458 19.3967 2.32598 19.0414C2.28407 19.1668 2.26311 19.2922 2.24216 19.3967C2.03261 20.6299 1.11058 21.4241 0.398105 22.2184C-0.314371 23.0126 -0.104819 26.0015 0.859118 26.0642C2.05356 26.1269 2.15834 24.5384 1.76019 22.929C1.17345 20.5672 9.22023 21.3614 10.6871 20.9016C11.211 20.7344 11.5253 18.9787 11.7977 17.1812C11.7139 17.3902 11.5882 17.5992 11.4205 17.8082Z" fill="#FFA35F"/>
<path d="M19.7607 24.789C21.2485 26.3148 28.3523 31.77 30.3431 32C31.4537 32.1254 32.7529 30.0143 32.5643 29.4291C32.3757 28.8439 31.2022 28.593 30.2383 29.5545C30.2383 29.5545 27.577 27.7779 26.4035 24.0365C22.8621 21.9255 19.7607 24.789 19.7607 24.789Z" fill="#FFC37B"/>
<path d="M30.804 31.2059C29.6095 31.2059 22.841 27.3809 22.7991 25.5416C22.7782 24.9982 24.9575 24.4965 27.6188 26.6494C27.1578 25.9178 26.8015 24.9355 26.4872 23.9113C22.9458 21.7793 19.2577 24.6637 19.2577 24.6637C20.7455 26.1895 28.3522 31.7702 30.343 32.0001C30.9716 32.0628 31.6422 31.4358 32.1032 30.7669C31.747 31.0387 31.2859 31.2059 30.804 31.2059Z" fill="#FFA35F"/>
<path d="M42.8783 14.7385C43.2397 13.8632 42.8213 12.8615 41.9437 12.501C41.0662 12.1406 40.0618 12.5579 39.7005 13.4332C39.3391 14.3085 39.7575 15.3103 40.635 15.6707C41.5126 16.0312 42.5169 15.6138 42.8783 14.7385Z" fill="#5796B5"/>
<path d="M8.15151 11.3498C7.39713 10.8482 6.87325 9.197 8.23533 7.62939C8.23533 7.62939 8.54966 9.94945 9.95366 10.7855L8.15151 11.3498Z" fill="#FFA35F"/>
<path d="M31.0137 5.2885C33.3607 6.47988 35.1838 8.11019 34.8066 14.4851C34.4922 19.9404 30.846 25.7927 29.7983 26.796C29.7983 26.796 20.3685 18.2055 21.2067 12.8757C23.0717 7.81757 28.1009 3.8045 31.0137 5.2885Z" fill="#FFC37B"/>
<path d="M23.1763 12.6871C23.344 10.5552 24.8527 6.33309 29.0019 5.05811C26.0681 5.51794 22.3381 8.94576 20.8503 13.0006C20.0121 18.3305 29.7982 26.8164 29.7982 26.8164C29.8191 26.7955 29.861 26.7537 29.882 26.7328C26.6339 23.5349 22.841 16.7629 23.1763 12.6871Z" fill="#FFB469"/>
<path d="M29.9659 26.2941C27.9542 24.5384 25.691 19.5639 26.0473 16.9094C26.4035 14.2549 28.6038 13.0217 28.6038 13.0217C28.6038 13.0217 29.2744 10.3882 30.9717 9.74023C30.9717 9.74023 31.9147 10.5763 33.2139 10.7226C33.2139 10.7226 34.3455 11.6632 34.0521 13.7742C34.0521 13.7742 34.8484 15.0074 34.7227 15.9479C34.0312 20.9643 32.3548 23.5769 29.9659 26.2941Z" fill="#FFE8CA"/>
<path d="M33.3605 16.8048C30.6363 16.7212 31.3488 12.729 30.0077 11.8093C30.0077 11.8093 34.1149 11.3704 33.5072 12.311C32.9623 13.147 32.7947 14.631 33.612 15.8851C33.8215 16.1777 33.7377 16.8257 33.3605 16.8048Z" fill="#EFCEA8"/>
<path d="M30.427 12.1437C29.7774 12.0183 29.6097 10.8478 30.0288 10.8269C30.4479 10.806 30.427 12.1437 30.427 12.1437Z" fill="#EFCEA8"/>
<path d="M33.4654 16.3865C31.1813 16.3029 31.9357 12.3944 30.4478 11.9554C30.4478 11.9554 34.3665 11.1612 33.7588 12.1017C33.2139 12.9378 33.0044 14.589 33.5911 15.6968C33.7588 16.0103 33.8426 16.4074 33.4654 16.3865Z" fill="#68413C"/>
<path d="M30.6574 11.8299C31.2232 12.0808 34.8275 13.2094 35.6238 12.8123C36.4201 12.4152 37.3211 10.5968 36.9439 10.1369C36.7763 9.92791 34.8065 8.79924 33.9264 8.46481C31.9357 7.73327 28.9181 11.0566 30.6574 11.8299Z" fill="#FFC37B"/>
<path d="M34.2825 10.911C32.6899 10.8065 31.3279 10.4093 30.5525 9.90771C29.9448 10.6602 29.9867 11.5171 30.5316 11.8306C31.0974 12.0815 34.8274 13.2101 35.6446 12.813C36.2314 12.5413 36.86 11.4962 37.0067 10.7647C36.2314 10.9319 35.2884 10.9737 34.2825 10.911Z" fill="#FFE8CA"/>
<path d="M35.519 12.8755C35.1627 12.8546 33.612 11.3078 33.9264 10.5554C34.2407 9.78205 37.0696 9.67754 37.2792 10.3882C37.4468 11.0152 36.0009 12.8964 35.519 12.8755Z" fill="#68413C"/>
<path d="M29.8611 8.02635C30.1125 7.98454 30.2802 8.08905 30.4059 8.25626V8.23536C30.3221 8.02635 30.1335 7.79643 29.8401 7.85913C29.5467 7.92184 29.2534 8.25626 29.3162 8.46527C29.421 8.25626 29.6515 8.06815 29.8611 8.02635Z" fill="#68413C"/>
<path d="M32.5013 7.50388C32.7528 7.46208 32.9204 7.56659 33.0462 7.7338V7.7129C32.9623 7.50388 32.7737 7.27397 32.4804 7.33667C32.187 7.39938 31.8936 7.7338 31.9565 7.94281C32.0403 7.7338 32.2708 7.54569 32.5013 7.50388Z" fill="#68413C"/>
<path d="M23.7842 8.67423C22.1706 6.98122 20.3475 3.97142 20.5361 2.48742C20.599 1.96489 24.6643 3.90871 26.8436 6.6886C26.8227 6.6886 24.4966 8.42341 23.7842 8.67423Z" fill="#FFC37B"/>
<path d="M23.7003 8.21447C23.0926 7.75464 20.5151 3.97149 20.6409 2.82191C20.6828 2.42479 23.847 4.64033 25.7539 6.79317L23.7003 8.21447Z" fill="#E25E54"/>
<path d="M25.0833 7.25307L25.8587 6.73053C23.9518 4.55679 20.6827 2.40395 20.6408 2.80107C21.5838 3.57442 23.6374 5.64366 25.0833 7.25307Z" fill="#CE413E"/>
<path d="M31.7261 12.7919C31.4956 12.6456 30.8879 12.353 30.5526 12.1231C29.8192 11.6005 30.0287 10.0956 30.2802 11.1407C30.4059 11.6841 30.7203 11.8931 30.9717 11.9768C31.1184 12.0395 31.2651 12.144 31.3699 12.2694C31.4746 12.4366 31.6632 12.6665 31.7261 12.7919Z" fill="#68413C"/>
<path d="M30.783 12.269C31.0554 12.2063 31.7679 12.2899 32.0194 12.7916C32.2708 13.2932 31.5584 13.6903 31.5584 13.6903L31.1812 12.7916C31.0764 12.5826 30.9716 12.3944 30.783 12.269Z" fill="#C93632"/>
<path d="M35.6657 10.9734C34.8904 10.9734 34.2198 10.8062 33.9264 10.5972C33.675 11.3705 35.1628 12.8754 35.519 12.8963C35.9381 12.9172 37.0907 11.475 37.2793 10.7017C36.923 10.8689 36.3363 10.9734 35.6657 10.9734Z" fill="#4F2A28"/>
<path d="M32.5013 13.9623C32.5223 14.6938 31.9146 16.0106 31.0554 15.8852C30.1963 15.7598 29.4419 15.1536 30.1334 14.2758C30.8249 13.3979 31.4536 13.377 31.5164 12.6246C31.5374 11.893 32.4594 13.2516 32.5013 13.9623Z" fill="#FF6161"/>
<path d="M32.0403 14.5685C32.0822 14.7984 32.1032 15.0283 32.1032 15.2374C32.3546 14.8402 32.5013 14.3177 32.4804 13.9624C32.4594 13.2308 31.5374 11.8931 31.4955 12.6247C31.4745 12.7919 31.4326 12.9382 31.3698 13.0427C31.6631 13.4189 31.9146 13.9415 32.0403 14.5685Z" fill="#F44D4D"/>
<path d="M41.9521 14.2548C41.072 14.2548 40.3386 13.586 40.2548 12.729C39.8357 13.0425 39.5842 13.5233 39.5842 14.0876C39.5842 15.0282 40.3595 15.8015 41.3025 15.8015C42.2455 15.8015 43.0208 15.0282 43.0208 14.0876C43.0208 14.0249 43.0208 13.9622 43.0208 13.8995C42.7065 14.1294 42.3503 14.2548 41.9521 14.2548Z" fill="#4085A0"/>
<path d="M13.1807 24.2666C13.9979 25.04 16.2611 25.6461 17.3089 25.7506L15.4858 24.4756L13.1807 24.2666Z" fill="#FFA35F"/>
<path d="M11.7977 23.3262C12.615 24.0995 14.8781 24.7057 15.9259 24.8102L14.1028 23.5352L11.7977 23.3262Z" fill="#FFA35F"/>
<path d="M10.6241 22.0303C11.3366 22.9081 13.495 23.786 14.5218 24.0368L12.8873 22.5319L10.6241 22.0303Z" fill="#FFA35F"/>
<path d="M15.4858 25.7086C16.4497 26.2939 18.7967 26.3984 19.8235 26.273L17.7908 25.416L15.4858 25.7086Z" fill="#FFA35F"/>
<path d="M35.3931 11.956C35.0998 12.1023 34.4292 11.5171 34.5969 11.3499C34.7645 11.1827 35.6027 11.0991 35.7284 11.2454C35.8332 11.3708 35.5189 11.8724 35.3931 11.956Z" fill="#351817"/>
<path d="M36.5039 10.5972C36.8164 10.5972 37.0697 10.5037 37.0697 10.3882C37.0697 10.2728 36.8164 10.1792 36.5039 10.1792C36.1914 10.1792 35.9381 10.2728 35.9381 10.3882C35.9381 10.5037 36.1914 10.5972 36.5039 10.5972Z" fill="#9B6D6A"/>
<path d="M41.575 12.7919C41.4493 12.9173 41.596 13.2517 41.8893 13.5444C42.1827 13.8161 42.539 13.9415 42.6647 13.7952C42.7904 13.6698 42.6437 13.3353 42.3504 13.0427C42.057 12.771 41.7008 12.6665 41.575 12.7919Z" fill="#8BC2D8"/>
<path d="M40.632 12.8339C40.6739 12.9175 40.8415 12.9803 41.0511 12.9385C41.2606 12.8966 41.3863 12.7921 41.3444 12.6876C41.3025 12.604 41.1349 12.5413 40.9253 12.5831C40.7158 12.6249 40.5901 12.7503 40.632 12.8339Z" fill="#8BC2D8"/>
<path d="M41.5122 15.1953C40.674 15.1953 39.9615 14.5892 39.7938 13.7949C39.7729 13.8785 39.7729 13.983 39.7729 14.0875C39.7729 14.9236 40.4644 15.6133 41.3026 15.6133C41.9103 15.6133 42.4342 15.258 42.6857 14.7564C42.3713 15.0281 41.9522 15.1953 41.5122 15.1953Z" fill="#5796B5"/>
<path d="M21.2484 12.123C20.8293 12.8964 20.536 14.0251 20.5779 14.5267L21.3322 13.3144L21.2484 12.123Z" fill="#FFB469"/>
<path d="M20.8294 13.6904C20.6617 14.5474 20.7036 15.697 20.8922 16.1986L21.2485 14.8191L20.8294 13.6904Z" fill="#FFB469"/>
<path d="M21.0809 15.0073C21.039 15.8852 21.2695 17.0139 21.5419 17.4737L21.6886 16.0524L21.0809 15.0073Z" fill="#FFB469"/>
<path d="M21.5838 16.4287C21.6467 17.3066 21.982 18.4143 22.2963 18.8324V17.4111L21.5838 16.4287Z" fill="#FFB469"/>
<path d="M22.2544 17.7241C22.3382 18.602 22.7364 19.6888 23.0717 20.086L23.0088 18.6647L22.2544 17.7241Z" fill="#FFB469"/>
<path d="M22.9459 18.5605C23.0926 19.4175 23.5746 20.4835 23.9308 20.8806L23.7632 19.4593L22.9459 18.5605Z" fill="#FFB469"/>
<path d="M26.194 18.1846C26.0683 19.0624 26.173 20.212 26.3826 20.6927L26.676 19.2923L26.194 18.1846Z" fill="#FFE8CA"/>
<path d="M26.1939 16.9097C25.9006 17.7457 25.8167 18.8953 25.9425 19.4178L26.4873 18.101L26.1939 16.9097Z" fill="#FFE8CA"/>
<path d="M26.5501 15.4253C26.0891 16.1777 25.7538 17.2855 25.7538 17.808L26.5711 16.6376L26.5501 15.4253Z" fill="#FFE8CA"/>
<path d="M27.3256 14.0879C26.7179 14.7149 26.1311 15.7182 26.0264 16.2407L27.0741 15.2793L27.3256 14.0879Z" fill="#FFE8CA"/>
<path opacity="0.5" d="M28.3732 7.71267C28.2265 8.0889 27.7236 7.79628 27.8074 7.58726C28.1008 6.87662 29.2323 6.5213 29.4629 6.77211C29.6934 7.00203 28.7294 6.79301 28.3732 7.71267Z" fill="#FFE8CA"/>
<path opacity="0.5" d="M31.9356 6.18712C30.9298 5.9363 30.4268 6.43793 30.6573 6.60515C30.9507 6.83506 30.7621 6.20802 32.0613 6.56334C32.5852 6.70965 32.208 6.24982 31.9356 6.18712Z" fill="#FFE8CA"/>
</g>
<defs>
<clipPath id="clip0">
<rect width="43" height="32" fill="white"/>
</clipPath>
</defs>
</svg>
