<svg width="50" height="50" viewBox="0 0 50 50" fill="none" xmlns="http://www.w3.org/2000/svg">
<rect width="50" height="50" rx="10" fill="#171717"/>
<path d="M24.6347 14.3285H25.5766C26.2681 14.3285 26.8329 13.7625 26.8533 13.0588C27.5399 13.038 28.0923 12.4591 28.0923 11.7505V10.7851C28.0923 10.0765 27.5399 9.49753 26.8533 9.47667C26.8329 8.77302 26.268 8.20703 25.5766 8.20703H24.6347C23.9432 8.20703 23.3784 8.77302 23.358 9.47667C22.6714 9.49753 22.1191 10.0765 22.1191 10.7851V11.7504C22.1191 12.459 22.6714 13.0379 23.358 13.0588C23.3783 13.7625 23.9432 14.3285 24.6347 14.3285ZM23.2094 11.7504V10.7851C23.2094 10.6795 23.2932 10.5935 23.3964 10.5935H23.8638C24.1859 10.5935 24.4478 10.3251 24.4478 9.99514V9.51608C24.4478 9.41045 24.5316 9.32449 24.6347 9.32449H25.5766C25.6797 9.32449 25.7636 9.41045 25.7636 9.51608V9.99514C25.7636 10.3251 26.0255 10.5935 26.3475 10.5935H26.8149C26.9181 10.5935 27.0019 10.6795 27.0019 10.7852V11.7505C27.0019 11.8561 26.9181 11.9421 26.815 11.9421H26.3475C26.0255 11.9421 25.7636 12.2105 25.7636 12.5405V13.0195C25.7636 13.1251 25.6797 13.2112 25.5766 13.2112H24.6347C24.5316 13.2112 24.4478 13.1252 24.4478 13.0196V12.5405C24.4478 12.2105 24.1858 11.9421 23.8638 11.9421H23.3964C23.2932 11.9421 23.2094 11.8561 23.2094 11.7504Z" fill="white"/>
<path d="M35.9851 31.0051L29.1912 28.3942C29.0132 28.3257 28.8934 28.1488 28.8934 27.9538V25.4854C30.5619 24.3457 31.7308 22.4964 31.986 20.3614C33.2811 20.2563 34.3038 19.1434 34.3038 17.7897C34.3038 16.4543 33.3088 15.3527 32.0388 15.2222V9.9553C32.0388 8.95331 31.5203 8.00666 30.6857 7.48477L29.36 6.65568C28.674 6.22675 27.8867 6 27.0832 6H22.9169C22.1134 6 21.3261 6.22675 20.6401 6.65568L19.3143 7.48477C18.4797 8.00666 17.9613 8.95331 17.9613 9.9553V15.2159C16.6526 15.3067 15.6148 16.426 15.6148 17.7898C15.6148 19.172 16.6809 20.3038 18.0147 20.3673C18.2714 22.4998 19.4397 24.3468 21.1066 25.4854V27.9538C21.1066 28.1487 20.987 28.3257 20.8088 28.3942L14.0149 31.0051C11.6135 31.9281 10 34.314 10 36.9423V40.3775C10 40.6861 10.2441 40.9362 10.5452 40.9362C10.8462 40.9362 11.0903 40.6861 11.0903 40.3775V36.9423C11.0903 34.7771 12.4195 32.8116 14.3977 32.0513L16.5029 31.2423V34.8174C15.5736 35.0657 14.8857 35.933 14.8857 36.9621C14.8857 38.184 15.8557 39.1782 17.0481 39.1782C18.2405 39.1782 19.2105 38.184 19.2105 36.9621C19.2105 35.933 18.5225 35.0657 17.5932 34.8174V30.8233L17.9049 30.7035C17.9195 30.7173 17.9349 30.7307 17.9513 30.7432L19.3006 31.769C20.9614 33.0317 22.9322 33.699 25.0001 33.699C27.0679 33.699 29.0388 33.0317 30.6995 31.769L32.0513 30.7413C32.0669 30.7295 32.0816 30.7168 32.0957 30.7037L32.8501 30.9936V34.3505C31.4895 34.4442 30.4104 35.6077 30.4104 37.0255V41.4502C30.4104 41.7588 30.6544 42.0089 30.9555 42.0089H31.7858C32.0869 42.0089 32.3309 41.7588 32.3309 41.4502C32.3309 41.1417 32.0869 40.8915 31.7858 40.8915H31.5007V37.0255C31.5007 36.1628 32.1855 35.4611 33.0272 35.4611H33.7013C34.543 35.4611 35.2278 36.1628 35.2278 37.0255V40.8915H34.9455C34.6445 40.8915 34.4004 41.1417 34.4004 41.4502C34.4004 41.7588 34.6445 42.0089 34.9455 42.0089H35.773C36.0741 42.0089 36.3181 41.7588 36.3181 41.4502V37.0255C36.3181 35.6294 35.2716 34.4796 33.9404 34.3554V31.4127L35.6023 32.0514C37.5806 32.8117 38.9097 34.7772 38.9097 36.9425V42.8586C38.9097 42.8718 38.8992 42.8826 38.8864 42.8826H11.1137C11.1009 42.8826 11.0903 42.8718 11.0903 42.8586V42.6123C11.0903 42.3037 10.8462 42.0536 10.5452 42.0536C10.2441 42.0536 10 42.3037 10 42.6123V42.8586C10 43.4879 10.4997 44 11.1137 44H38.8863C39.5004 44 40 43.4879 40 42.8586V36.9424C40 34.314 38.3865 31.9281 35.9851 31.0051ZM18.1202 36.9621C18.1202 37.5679 17.6393 38.0608 17.0481 38.0608C16.4569 38.0608 15.976 37.5679 15.976 36.9621C15.976 36.3562 16.4569 35.8634 17.0481 35.8634C17.6393 35.8634 18.1202 36.3562 18.1202 36.9621ZM33.2135 17.7898C33.2135 18.508 32.7056 19.1057 32.0388 19.2287V16.351C32.7056 16.4739 33.2135 17.0717 33.2135 17.7898ZM16.7051 17.7898C16.7051 17.0426 17.2547 16.4256 17.9612 16.3383V19.2415C17.2547 19.1541 16.7051 18.537 16.7051 17.7898ZM19.0516 19.4791V16.3331H22.0386C22.3396 16.3331 22.5837 16.0829 22.5837 15.7744C22.5837 15.4658 22.3396 15.2157 22.0386 15.2157H19.0516V9.9553C19.0516 9.34015 19.3699 8.75896 19.8823 8.43857L21.2081 7.60955C21.7229 7.28759 22.3138 7.11738 22.9169 7.11738H27.0832C27.6863 7.11738 28.2772 7.28759 28.792 7.60955L30.1178 8.43857C30.6302 8.75896 30.9485 9.34015 30.9485 9.9553V15.2157H24.2192C23.9181 15.2157 23.6741 15.4658 23.6741 15.7744C23.6741 16.0829 23.9181 16.3331 24.2192 16.3331H30.9485V19.4791C30.9485 22.8405 28.28 25.5752 25 25.5752C21.72 25.5752 19.0516 22.8405 19.0516 19.4791ZM30.0498 30.8717C28.5784 31.9904 26.8321 32.5817 25 32.5817C23.1679 32.5817 21.4217 31.9904 19.9502 30.8717L19.1166 30.2379L21.1915 29.4405C21.7928 29.2094 22.1969 28.612 22.1969 27.9538V26.0952C23.0564 26.4791 24.0042 26.6926 25 26.6926C25.9958 26.6926 26.9437 26.4791 27.8031 26.0952V27.9538C27.8031 28.612 28.2072 29.2094 28.8084 29.4405L30.8834 30.2379L30.0498 30.8717Z" fill="white"/>
</svg>
