<svg width="79" height="77" viewBox="0 0 79 77" fill="none" xmlns="http://www.w3.org/2000/svg">
<g opacity="0.25" clip-path="url(#clip0)">
<path d="M52.3703 69.9805C52.3703 69.9805 52.094 72.9354 52.2742 73.9026C52.2982 74.0331 52.3522 74.1933 52.4123 74.3772C52.5985 74.9172 52.088 76.5667 52.088 76.5667L45.2714 76.5905C44.8991 76.5905 45.1513 76.3591 45.4516 76.1455C45.9441 75.7954 46.3465 75.564 47.92 74.8401C48.0221 74.7926 48.3944 74.5671 48.5326 74.4841C48.8749 74.2823 49.2232 73.9678 49.5175 73.6474C50.016 73.1134 50.0881 70.5086 50.0881 70.5086L52.3703 69.9805Z" fill="#F7A491"/>
<path d="M48.5325 74.4842C50.3283 74.9648 51.6676 74.6681 52.4123 74.3833C52.5985 74.9233 52.9468 76.7449 52.7366 76.7449C51.0249 76.7449 49.5776 77.0653 44.6828 76.9881C44.5087 76.9881 44.5267 76.3888 44.6408 76.2583C44.9651 75.8964 48.3944 74.5613 48.5325 74.4842Z" fill="white"/>
<path d="M60.9165 34.8952C60.9165 34.8952 60.8204 39.114 59.5952 41.8138C58.4061 44.4423 52.7006 50.9337 51.1811 54.7252C51.6496 56.8613 52.9408 59.8637 52.8447 62.2312C52.7366 64.9132 52.8988 72.0157 52.8988 72.0157L49.8358 72.1106L45.824 53.7877L51.8778 34.0171L54.6224 29.2168L60.9165 34.8952Z" fill="#3C8F7C"/>
<path d="M73.9971 65.7798C73.9971 65.7798 75.8769 68.3312 76.7057 68.9721C77.1502 69.3162 78.3573 69.779 78.4834 70.3546C78.6096 70.9242 73.0242 75.9737 73.0242 75.9737C72.7299 76.2348 72.7599 75.8728 72.85 75.4931C72.9942 74.8701 73.1503 74.4132 73.895 72.7399C73.9431 72.6331 74.0812 72.1881 74.1293 72.0338C74.2614 71.6362 74.3094 71.1438 74.3214 70.6809C74.3395 69.9155 72.5497 67.7794 72.5497 67.7794L73.9971 65.7798Z" fill="#F7A491"/>
<path d="M74.1293 72.0337C75.901 71.1674 76.7598 70.0104 77.1562 69.2568C77.6847 69.5594 79.1141 70.2062 78.994 70.3842C78.009 71.8023 76.982 73.5587 73.0182 76.8992C72.8741 77.0179 72.2915 76.3296 72.2915 76.1457C72.2855 75.6354 74.0812 72.188 74.1293 72.0337Z" fill="white"/>
<path d="M51.4755 4.72311C52.004 1.32317 55.121 -1.1274 58.3761 0.528072C59.1088 0.901887 60.0998 1.65545 60.6042 2.29628C61.9976 4.05855 62.3339 6.24804 63.8113 7.94504C65.0846 9.41063 68.4778 9.13176 70.0633 10.2591C71.6489 11.3865 72.7599 13.4039 72.7599 15.813C72.7599 18.5127 72.1413 21.3787 70.0273 23.0816C67.9133 24.7905 64.9044 25.2117 62.2678 24.4879C59.6373 23.764 57.3791 21.9958 55.7516 19.8241C54.124 17.6524 52.9769 15.2789 52.1661 12.6978C51.2653 9.82598 51.1331 6.92447 51.4755 4.72311Z" fill="#B75742"/>
<path d="M39.4819 37.1265C39.9203 36.7527 40.8632 35.928 40.7791 35.8449C40.665 35.7321 40.2566 35.8152 40.1245 35.8627C39.9924 35.9102 39.8362 35.9576 39.7041 36.0051C39.572 36.0526 39.4278 35.9992 39.3558 35.8449C39.2837 35.6906 39.7582 35.3821 39.9443 35.3109C40.5269 35.0795 42.1965 34.7768 42.3767 34.7353C42.5869 34.6878 44.9712 31.816 45.866 30.8963C47.2894 29.3476 48.6707 27.6862 48.8209 27.5201L52.7186 19.4326L56.2741 19.6878C56.2741 19.6878 52.082 28.7187 51.8178 29.1459C51.6916 29.3476 48.1182 32.6882 48.1122 32.6823C46.2444 34.2132 44.5988 35.5601 44.2865 35.8271C44.2865 35.8271 43.5778 36.8714 43.1694 37.5656C42.9052 38.0106 42.5388 38.3607 42.2746 38.604C41.5359 37.9454 40.599 37.7436 39.7281 37.2808C39.6441 37.2452 39.56 37.1859 39.4819 37.1265Z" fill="#F48C7F"/>
<path d="M54.4243 13.1787C54.4243 13.1787 51.6737 14.4782 50.3224 22.5478L54.9829 23.8295L56.9227 18.6257L54.4243 13.1787Z" fill="#FAE0B2"/>
<path d="M60.7003 32.1958C60.7003 32.1958 63.0666 35.7085 63.6311 38.6159C64.1776 41.4462 63.2648 49.9965 64.2197 53.9602C65.8412 55.4436 68.6399 57.1762 69.9372 59.1698C71.4086 61.4305 75.6547 67.1624 75.6547 67.1624L73.1983 68.9721L59.2829 56.2268L53.6495 39.2212L51.7156 34.2488L60.7003 32.1958Z" fill="#50BFA5"/>
<path d="M58.7845 12.2114C58.7845 12.2114 62.508 12.2886 63.1567 13.3447C64.1056 14.8934 60.406 25.2178 60.1838 26.9148C59.9556 28.6118 62.0336 31.994 62.0336 31.994C62.0336 31.994 53.4093 35.9813 51.3073 34.6047C51.3073 34.6047 51.6436 21.0169 51.8718 19.8005C52.1 18.59 53.9738 13.6652 54.4243 13.1786C54.8747 12.692 58.7845 12.2114 58.7845 12.2114Z" fill="white"/>
<path d="M57.7394 8.08146C57.7394 8.08146 57.7574 8.17046 57.7874 8.32473C57.9256 9.06643 58.4661 11.5348 58.8264 12.2112C59.2649 13.0301 57.325 15.6408 55.4512 15.3204C54.8927 15.2255 55.9196 12.9233 55.8716 12.674C55.7755 12.2053 55.6494 11.5704 55.5173 10.9177C55.4452 10.5498 55.3671 10.176 55.295 9.82593C55.0968 8.82909 54.9347 8.01025 54.9347 8.01025L57.7394 8.08146Z" fill="#F7A491"/>
<path d="M57.7874 8.32473C57.7574 8.17046 57.7394 8.08146 57.7394 8.08146L54.9347 8.01025C54.9347 8.01025 55.0968 8.82909 55.295 9.82593C55.3671 10.176 55.4392 10.5498 55.5112 10.9118C55.9437 10.8465 56.3941 10.6388 56.8505 10.2531C57.343 9.82593 57.6673 9.31564 57.8655 8.76382C57.8355 8.59174 57.8115 8.44341 57.7874 8.32473Z" fill="#F47458"/>
<path d="M55.8536 1.79815C55.8536 1.79815 57.1749 1.64981 58.0037 2.70599C58.8325 3.76216 59.7214 7.02563 57.6674 8.79977C55.6134 10.5739 53.5775 8.56836 53.2772 6.43227C52.9769 4.30805 52.8568 1.72101 55.8536 1.79815Z" fill="#F7A491"/>
<path d="M52.6705 6.4023C52.9168 6.87105 53.3251 7.13213 53.5894 6.98379C53.8536 6.83545 53.8657 6.3311 53.6194 5.86234C53.3732 5.39359 52.9588 5.13252 52.7005 5.28086C52.4363 5.42919 52.4243 5.93355 52.6705 6.4023Z" fill="#F7A491"/>
<path d="M55.7095 1.4476C55.7095 1.4476 57.4752 4.55086 58.7364 4.6992C59.9977 4.8416 60.1658 6.49114 60.1658 6.49114C60.1658 6.49114 59.7154 2.68771 58.4662 1.95789C57.211 1.22212 55.7095 1.4476 55.7095 1.4476Z" fill="#B75742"/>
<path d="M58.4061 5.47682C58.3041 6.02864 58.5082 6.533 58.8686 6.6042C59.2289 6.6754 59.6013 6.28972 59.7034 5.7379C59.8055 5.18607 59.6013 4.68172 59.241 4.61052C58.8806 4.53931 58.5082 4.925 58.4061 5.47682Z" fill="#F7A491"/>
<path d="M13.6691 48.2101L13.7352 48.6788L15.651 48.0795L15.3387 46.9521L13.6691 48.2101ZM13.9454 48.305L15.0685 47.4862L15.2486 47.9965L13.9454 48.305Z" fill="#355389"/>
<path d="M8.91858 43.0713L9.54318 40.3003L13.2728 42.5847L11.1407 44.2817C11.1347 44.2876 10.4621 42.561 8.91858 43.0713Z" fill="#F47458"/>
<path d="M33.2059 53.3721C33.2059 53.3721 37.5121 55.2708 42.2746 57.6264C47.0372 59.9821 48.1843 59.7566 48.875 59.0742C49.5596 58.3978 49.6077 56.8788 49.6077 56.8788C49.6077 56.8788 50.7308 58.4868 50.1602 60.5458C49.5897 62.6047 47.9381 62.6284 47.9381 62.6284L46.7489 61.9283L47.5297 63.3108C47.5297 63.3108 45.8481 64.183 44.2746 62.6344C42.7071 61.0857 42.3707 60.1007 42.3707 60.1007C42.3707 60.1007 42.9893 62.4979 43.6079 63.1091C43.6079 63.1091 41.8663 63.8804 40.8333 62.4979C39.8003 61.1154 39.3438 59.3531 39.3438 59.3531L39.7342 62.5869C39.7342 62.5869 38.1307 61.9757 37.2598 59.4658L37.7163 61.8393C37.7163 61.8393 36.1007 59.6261 35.4401 57.1577C34.7794 54.6893 33.4101 54.4164 33.4101 54.4164L33.2059 53.3721Z" fill="#B75742"/>
<path d="M24.99 61.8809C24.99 61.8809 24.8338 67.0846 28.3772 68.9893C29.2361 69.4521 30.6294 71.1432 30.3531 72.0688C30.0949 72.9529 27.9748 74.7686 27.9748 74.7686C27.9748 74.7686 26.5034 74.8754 25.8368 76.5131C25.7287 76.7741 26.2092 76.7089 26.2092 76.7089L29.9628 76.7148L33.1999 71.3034L32.9777 67.9094L30.8696 62.6285L26.8398 61.9936L24.99 61.8809Z" fill="#B75742"/>
<path d="M7.27299 58.4038C7.27299 58.4038 2.46237 65.5478 1.41135 67.1024C0.67865 68.1823 0.67865 69.5411 0.67865 69.5411C0.67865 69.5411 0.882846 71.7128 1.32127 72.146C1.38733 72.2112 1.50144 72.2646 1.63957 72.2943C2.74464 72.5672 3.72358 71.5348 3.41128 70.4549C3.26714 69.9565 3.15303 69.4996 3.15303 69.3097C3.15303 68.8113 3.38125 68.7638 3.38125 68.7638L8.69636 65.7377L10.438 60.706L7.27299 58.4038Z" fill="#B75742"/>
<path d="M10.7623 59.9823L11.6332 66.7822L11.2188 74.5136C11.2188 74.5136 9.52516 74.923 9.02067 75.7834C8.51619 76.6438 8.60628 76.7802 8.60628 76.7802H12.6362C12.6362 76.7802 15.9333 69.031 15.9333 68.1706C15.9333 67.3103 16.8042 62.5159 16.8042 61.881C16.8042 61.2462 16.2516 58.404 14.3298 58.1785C12.4139 57.9471 10.7623 59.9823 10.7623 59.9823Z" fill="#F47458"/>
<path d="M5.17698 41.9856L6.21598 40.5971C6.21598 40.5971 9.63927 39.63 11.1047 41.0777C11.5731 41.5406 12.1016 42.2111 12.3058 43.1011C12.4139 43.5639 12.432 44.5014 12.426 45.3381C12.4139 46.2756 12.6121 46.8986 12.9905 47.7411C13.6631 48.7558 16.4558 50.8859 17.5669 51.153L16.7861 51.0521C16.7861 51.0521 18.2876 51.8412 19.5248 52.0489C24.3414 52.7966 31.6024 52.933 33.218 53.3899C35.1398 53.9358 36.3109 59.543 35.7824 62.3733C35.2539 65.2036 39.1757 64.0703 40.1186 65.8979C41.0135 67.6245 37.5782 75.5637 37.5782 75.5637C37.5782 75.5637 36.6893 76.6317 36.5271 76.7919H32.6474C32.6474 76.7919 32.7675 74.3176 34.7074 73.6827C36.6473 73.0478 36.371 68.9596 36.371 68.9596C36.371 68.9596 30.9418 69.6242 28.077 66.153C26.1792 63.8567 26.2332 62.7828 26.3654 62.4801C25.3504 63.0379 18.2636 66.8235 14.6961 66.153C10.8464 65.4291 9.62726 63.1328 9.62726 63.1328L9.88551 64.7942C9.88551 64.7942 7.29702 63.8686 7.54926 61.7859C7.54926 61.7859 7.15889 62.0589 7.15889 62.6463C7.15889 62.6463 6.03581 61.2222 6.03581 56.6949C6.03581 54.1672 6.12589 47.7708 6.12589 47.7708C6.12589 47.7708 1.52547 46.9401 0.92489 46.3468C0.534514 45.9492 0 43.018 0 43.018L5.17698 41.9856Z" fill="#F47458"/>
<path d="M13.2727 42.5908C13.2727 42.5908 12.3418 44.5786 11.3809 44.8812C10.42 45.1838 9.54315 40.3005 9.54315 40.3005C9.54315 40.3005 10.8945 39.7902 12.0476 40.9294C12.498 41.3804 13.2727 42.5908 13.2727 42.5908Z" fill="#B75742"/>
<path d="M10.3179 61.1572C11.465 62.4744 10.414 61.264 11.2008 62.1718C11.3629 60.5757 10.8525 58.582 10.432 57.0037C11.1467 57.7632 12.1017 59.2762 12.5521 59.917C11.7413 58.5345 11.9455 55.8644 12.1077 54.292C12.1137 54.2979 13.0446 55.3897 13.4289 55.8407C13.501 55.1286 13.6271 53.5563 13.3809 52.868C13.1286 52.1619 12.3959 51.3312 11.8494 50.8149C12.462 51.3193 13.2187 52.0907 13.519 52.8146C13.9274 53.8114 13.6331 56.2798 13.6271 56.4578C12.2638 54.9328 13.1947 55.9712 12.3419 55.01C12.2518 56.3332 12.1197 59.0804 12.7443 60.1781C12.0116 59.7212 11.3209 58.7303 10.8945 57.9708C11.9935 60.7774 11.2849 62.421 11.2789 62.4685C11.2849 62.4744 11.2188 62.3913 10.348 61.2758C10.2999 61.4479 10.2038 61.8158 10.1918 61.9938C10.1858 61.9226 10.2759 61.3589 10.3179 61.1572Z" fill="#B75742"/>
<path d="M13.3208 47.4858L13.9454 48.7794C13.9454 48.7794 13.3509 53.1524 6.07788 52.6658L5.83765 50.8146C5.83765 50.8086 12.468 50.5832 13.3208 47.4858Z" fill="#184655"/>
<path d="M36.4654 37.4426L15.0692 47.5796L15.3029 48.0611L36.6992 37.9241L36.4654 37.4426Z" fill="#184655"/>
<path d="M36.353 37.7436L36.9355 37.1502L40.2687 35.9517L44.0344 37.7436L39.6501 42.1285L39.3318 41.0664L42.0825 38.3666L39.8964 36.9485L39.5721 37.1324L38.431 37.7911L36.353 37.7436Z" fill="#FAE0B2"/>
<path d="M34.1729 40.0871C34.1189 41.8553 35.5782 43.2972 37.362 43.2378C38.9835 43.1844 40.2988 41.885 40.3528 40.2829C40.4129 38.5147 38.9475 37.0728 37.1638 37.1321C35.5422 37.1855 34.2209 38.4909 34.1729 40.0871Z" fill="#F7CC7F"/>
<path d="M35.6923 40.0161C35.6082 41.0544 36.4791 41.9148 37.5301 41.8317C38.3589 41.7665 39.0255 41.1078 39.0916 40.289C39.1757 39.2506 38.3048 38.3903 37.2538 38.4733C36.431 38.5327 35.7584 39.1972 35.6923 40.0161Z" fill="#FAE0B2"/>
<path d="M40.3528 35.0909C40.3528 35.0909 39.3979 36.8472 39.494 37.1795C39.548 37.3575 41.0555 38.4078 41.9323 38.4078C42.8092 38.4078 41.7642 36.5387 41.578 36.7285C41.3918 36.9125 41.5119 37.3338 41.5119 37.3338C41.5119 37.3338 41.3498 36.0462 41.1396 35.8385C40.9294 35.6308 40.8513 36.0699 40.8513 36.0699C40.8513 36.0699 41.1636 34.9722 40.8513 34.8773C40.539 34.7705 40.3528 35.0909 40.3528 35.0909Z" fill="#F79C8D"/>
<path d="M61.1148 20.1149C61.1148 20.1149 63.2469 27.6743 63.6252 29.4128C64.0036 31.1514 63.379 38.0462 63.379 38.2954C63.379 38.5446 60.6584 40.5501 61.0127 40.7815C61.3611 41.0129 62.346 39.6898 62.6883 40.0161C63.0307 40.3425 62.8745 44.3535 63.1748 44.2645C63.7393 44.0925 63.367 41.814 63.6433 41.7784C63.9195 41.7487 63.7994 44.1993 64.2799 44.3001C64.7603 44.4069 64.1718 41.9742 64.3639 41.8496C64.5561 41.725 65.2408 44.0628 65.6372 43.7661C65.8534 43.6059 64.9765 41.7012 65.2948 41.6716C65.6131 41.6419 66.52 42.9948 66.7482 42.7871C66.9765 42.5794 65.8294 41.7487 65.7032 40.9121C65.5831 40.0754 65.0426 39.5296 65.2588 38.1411C65.475 36.7526 66.3218 30.8606 66.3218 29.1043C66.3218 27.2411 64.7003 19.9844 64.7003 19.9844L61.1148 20.1149Z" fill="#F79C8D"/>
<path d="M61.7334 24.4821C61.7334 24.4821 59.9257 18.8808 59.8716 16.8812C59.8176 14.8816 60.8986 12.5022 62.6403 12.9235C64.388 13.3448 65.6312 22.5833 65.6312 22.5833L61.7334 24.4821Z" fill="#FAE0B2"/>
</g>
<defs>
<clipPath id="clip0">
<rect width="79" height="77" fill="white"/>
</clipPath>
</defs>
</svg>
