<svg width="82" height="77" viewBox="0 0 82 77" fill="none" xmlns="http://www.w3.org/2000/svg">
<g opacity="0.25">
<path d="M43.0652 31.1196C43.0652 31.1196 50.9013 41.6168 51.4392 51.4411C51.9349 60.4432 41.8734 57.9231 40.0066 50.7577C38.1399 43.5923 38.5301 36.6619 38.5301 36.6619L43.0652 31.1196Z" fill="#FFB27D"/>
<path d="M46.7248 72.8092C46.7248 72.8092 45.2799 73.845 42.696 75.1585C41.4304 75.0838 40.1437 75.0197 38.8254 74.9449C38.7199 74.9343 38.625 74.9343 38.5196 74.9236C37.4544 74.8595 36.368 74.7954 35.2712 74.7314C29.3545 74.379 22.9211 73.9625 15.8549 73.5033C15.7178 73.4926 15.5806 73.482 15.4541 73.482C13.1655 73.3431 10.6554 73.2364 7.96598 73.1616C7.52302 70.0968 6.9746 66.0283 6.48945 61.5859C6.37344 60.4967 6.25743 59.3861 6.15196 58.2649C6.13087 58.0513 6.10978 57.8271 6.08868 57.6135C5.5719 51.9431 5.23441 45.9844 5.40315 40.9014C5.43479 39.9189 5.48752 38.9792 5.56135 38.0715C5.58244 37.7832 5.61408 37.5056 5.63518 37.2279C5.64572 37.0998 5.65627 36.9716 5.67736 36.8435C5.69846 36.662 5.71955 36.4804 5.74064 36.2989C5.80392 35.7863 5.8672 35.2951 5.95158 34.8252C5.98322 34.6544 6.01486 34.4835 6.0465 34.3126C6.05704 34.2592 6.06759 34.2165 6.07814 34.1631C6.10978 34.0136 6.14142 33.8641 6.17306 33.7146C6.17306 33.7146 6.37344 32.807 7.38592 31.5789C7.47029 31.4721 7.56521 31.3653 7.67068 31.2585C7.99762 30.9062 8.38785 30.5324 8.86244 30.148C9.08392 29.9664 9.3265 29.7849 9.59016 29.6034C9.94875 29.3471 10.3495 29.0908 10.7925 28.8452C11.9948 28.1617 13.5135 27.4997 15.4224 26.9337C16.0025 26.7628 16.6248 26.6027 17.2787 26.4425C18.481 26.1648 19.8204 25.9192 21.3075 25.7377C22.8367 25.5455 24.2394 25.4707 25.5472 25.5241C28.5003 25.6416 30.9154 26.3784 32.9298 27.6919C33.7208 28.2044 34.438 28.8131 35.113 29.5072C35.6192 30.0305 36.0938 30.5965 36.5368 31.2158C36.7161 31.4721 36.8954 31.7284 37.0641 31.9954C37.2012 32.1983 37.3278 32.4118 37.4544 32.6254C37.5809 32.8283 37.6969 33.0419 37.8129 33.2555C38.0344 33.6612 38.2559 34.0884 38.4563 34.5262C38.6778 34.9854 38.8887 35.4659 39.0996 35.9678C39.1629 36.1173 39.2262 36.2668 39.2789 36.4163C39.8273 37.7832 40.323 39.2782 40.7765 40.88C40.9031 41.3285 41.0297 41.7877 41.1562 42.2576C41.4621 43.4109 41.7468 44.6176 42.021 45.8883C42.1898 46.6785 42.3585 47.4901 42.5273 48.323C42.5378 48.3978 42.5589 48.4725 42.5695 48.558C42.7382 49.3909 42.8964 50.2345 43.0546 51.1102C43.1601 51.6655 43.255 52.2208 43.3605 52.7867C43.371 52.8722 43.3921 52.9469 43.4026 53.0323C43.5714 54.0255 43.7507 55.0292 43.93 56.0651C43.93 56.0864 43.9405 56.1078 43.9405 56.1291C43.9405 56.1612 43.9511 56.1932 43.9511 56.2253C43.9827 56.3854 44.0038 56.5456 44.0354 56.7058C44.0776 56.9728 44.1198 57.2397 44.1726 57.5067C44.2675 58.0833 44.3624 58.66 44.4573 59.2473C44.4995 59.4716 44.5311 59.7065 44.5733 59.9308C44.6682 60.5074 44.7632 61.0947 44.8581 61.6927C44.8897 61.8849 44.9214 62.0772 44.953 62.2587C44.9952 62.5363 45.0479 62.8247 45.0901 63.1023C45.185 63.679 45.2799 64.2663 45.3749 64.8643C45.4487 65.2914 45.512 65.7186 45.5858 66.1564C45.6491 66.5302 45.7124 66.9039 45.7756 67.2777C45.9338 68.2174 46.092 69.1785 46.2608 70.1395C46.3452 70.6201 46.4295 71.09 46.5139 71.5812C46.5877 71.9976 46.651 72.4034 46.7248 72.8092Z" fill="#366F90"/>
<path d="M0.509525 39.4918L10.3495 47.8105C10.3495 47.8105 33.9002 48.558 39.8801 46.2194C43.1179 44.9593 45.3538 39.417 45.3538 39.417C45.3538 39.417 41.1351 25.1076 20.0419 25.3212C-4.97472 25.5775 0.509525 39.4918 0.509525 39.4918Z" fill="#366F90"/>
<path d="M16.8673 25.4387C18.3649 28.322 21.9719 30.6819 24.155 30.5431C27.6143 30.3189 25.8847 28.2152 25.6105 26.9871C25.4734 26.3678 25.4628 25.7164 25.6105 25.097L25.8952 23.8369L26.4226 21.4663L26.9604 19.0636L28.7323 11.1187L23.9019 18.4442L23.0793 19.6936L21.9192 21.4556L20.2528 23.9757C19.3669 25.1397 16.8884 25.4387 16.8673 25.4387Z" fill="#FFB27D"/>
<path d="M21.9297 21.4448C21.9297 21.4448 22.9316 24.0077 25.6105 25.0862L25.8952 23.8262L26.4226 21.4555L21.9297 21.4448Z" fill="#E7925C"/>
<path d="M34.3009 8.45947C34.3009 8.45947 37.2856 13.0406 34.0161 15.4967C30.7467 17.9528 34.3009 8.45947 34.3009 8.45947Z" fill="#331832"/>
<path d="M20.0208 19.3837C20.0208 19.3837 13.6717 14.7812 15.2432 8.25653C15.9392 5.36261 17.131 4.30542 18.9767 3.57928C28.0467 0.00192595 20.0208 19.3837 20.0208 19.3837Z" fill="#331832"/>
<path d="M34.3243 14.7242C34.8543 9.75203 31.7537 5.33548 27.3989 4.8596C23.0441 4.38372 19.0842 8.02871 18.5542 13.0009C18.0242 17.9731 21.1248 22.3897 25.4796 22.8656C29.8344 23.3414 33.7943 19.6964 34.3243 14.7242Z" fill="#FFB27D"/>
<path d="M27.0026 12.9337C27.0448 12.923 27.087 12.8803 27.1081 12.8269C27.1397 12.7415 27.087 12.6454 27.0026 12.624C26.9499 12.6026 25.8425 12.1114 24.9566 13.222C24.9039 13.2968 24.9039 13.3929 24.9777 13.4569C25.041 13.5103 25.1359 13.489 25.2097 13.4356C25.9163 12.891 26.8761 12.923 26.9077 12.9444C26.9393 12.9444 26.971 12.9444 27.0026 12.9337Z" fill="#080435"/>
<path d="M25.8425 14.8029C25.8531 15.1873 26.0851 15.497 26.3698 15.497C26.644 15.4863 26.8655 15.1659 26.855 14.7815C26.8444 14.3971 26.6124 14.0874 26.3277 14.0874C26.0429 14.0874 25.832 14.4078 25.8425 14.8029Z" fill="#080435"/>
<path d="M32.8982 13.8845C32.9404 13.8845 32.972 13.8632 33.0037 13.8311C33.0458 13.7671 33.0458 13.6603 32.9931 13.6069C32.9615 13.5748 32.3181 12.6992 31.3584 13.3933C31.2951 13.436 31.274 13.5321 31.3057 13.6176C31.3373 13.6923 31.4006 13.703 31.4744 13.6816C32.1388 13.436 32.8138 13.8205 32.8349 13.8525C32.8455 13.8738 32.8771 13.8845 32.8982 13.8845Z" fill="#080435"/>
<path d="M31.0842 15.1549C30.9471 15.518 31.0525 15.8917 31.3057 15.9985C31.5693 16.0946 31.8857 15.8811 32.0228 15.518C32.1599 15.1549 32.0545 14.7812 31.8013 14.6744C31.5377 14.5783 31.2213 14.7918 31.0842 15.1549Z" fill="#080435"/>
<path d="M30.7362 18.7431C30.7362 18.7431 28.1733 18.8072 25.6105 17.9102C25.6105 17.9102 25.4101 20.473 28.1839 20.6332C29.7975 20.7293 30.7362 18.7431 30.7362 18.7431Z" fill="white"/>
<path d="M36.1255 10.4884C35.2607 11.2146 34.1954 11.9728 32.1705 11.0437C30.1455 10.104 29.8819 8.908 29.8819 8.908C29.8819 8.908 28.7112 10.3069 26.8128 9.69823C24.9144 9.08954 24.8511 8.23525 24.8511 8.23525C24.8511 8.23525 24.1656 9.96519 22.3621 9.95451C20.5587 9.94383 22.7945 12.7523 19.7571 12.4426C17.5634 12.2291 19.0294 7.53046 18.9134 4.67926C18.7552 0.781546 23.1953 -1.0445 24.6086 0.610687C25.7898 1.99891 27.298 0.578651 30.4619 1.09123C34.2587 1.69991 32.2021 4.51908 33.7736 4.58315C37.37 4.73265 38.6145 8.39543 36.1255 10.4884Z" fill="#331832"/>
<path d="M18.4915 14.0764C19.156 14.7705 20.1895 14.856 20.8012 14.258C21.4129 13.66 21.3813 12.6135 20.7169 11.9193C20.0524 11.2252 19.0188 11.1398 18.4071 11.7378C17.7849 12.3358 17.8271 13.3823 18.4915 14.0764Z" fill="#FFB27D"/>
<path d="M15.9181 3.85703C15.8865 3.84635 15.8549 3.83567 15.8338 3.80364C15.7705 3.72889 15.781 3.6221 15.8549 3.56871C16.9306 2.61831 18.1646 3.18428 18.2173 3.20563C18.3017 3.24835 18.3333 3.34446 18.3017 3.42988C18.2595 3.51531 18.1646 3.54735 18.0802 3.51531C18.038 3.49396 16.9834 3.0241 16.0763 3.82499C16.0236 3.85703 15.9709 3.86771 15.9181 3.85703Z" fill="#331832"/>
<path d="M18.6919 2.99221C18.6181 2.97085 18.5653 2.90678 18.5653 2.83203C18.5548 1.77484 19.2825 0.973945 19.3142 0.941909C19.3774 0.877837 19.4829 0.867158 19.5567 0.93123C19.62 0.995302 19.6305 1.10209 19.5673 1.17684C19.5567 1.18752 18.9028 1.91367 18.9134 2.83203C18.9134 2.92814 18.8396 3.00289 18.7446 3.00289C18.7235 3.00289 18.7024 2.99221 18.6919 2.99221Z" fill="#331832"/>
<path d="M33.6365 4.31623C33.5837 4.30555 33.531 4.25215 33.5099 4.19876C33.4888 4.11333 33.5415 4.01722 33.6259 3.98519C33.7314 3.95315 36.1887 3.30175 38.1188 4.55116C38.1926 4.60455 38.2242 4.71134 38.1715 4.78609C38.1188 4.86084 38.0133 4.89287 37.9395 4.83948C36.1255 3.66483 33.7314 4.30555 33.7103 4.31623C33.6892 4.3269 33.6681 4.3269 33.6365 4.31623Z" fill="#331832"/>
<path d="M25.9058 1.13384C25.8742 1.12317 25.8425 1.11249 25.8214 1.09113C25.7582 1.02706 25.7582 0.920271 25.8214 0.845521C25.8425 0.824163 26.4226 0.268873 27.2874 0.0232641C27.3718 0.00190679 27.4667 0.0553001 27.4983 0.140729C27.5194 0.226159 27.4667 0.322266 27.3823 0.354302C26.5913 0.578554 26.064 1.09113 26.0535 1.10181C26.0218 1.13384 25.9585 1.14452 25.9058 1.13384Z" fill="#331832"/>
<path d="M40.1648 68.292C39.7324 68.3133 39.3527 68.324 39.068 68.3454C38.836 68.356 38.6356 68.3454 38.4563 68.3133C34.9864 68.2492 32.7611 67.6299 32.7611 67.6299C32.7611 67.6299 30.9049 60.5286 31.4322 60.016C32.6556 58.8306 35.5771 57.0473 36.811 55.8833C37.3489 55.3814 39.2684 53.8117 39.8379 54.2815C40.3336 54.6873 39.3844 56.6735 38.8254 57.5599C43.6136 56.8764 50.8802 58.0404 40.9664 60.2082C40.9664 60.2189 40.9664 60.2189 40.9664 60.2296C41.9894 60.1014 47.6846 59.4073 47.3155 60.8489C46.9885 62.1304 42.9281 62.7924 41.2511 63.0167C41.2511 63.038 41.2511 63.0487 41.2511 63.0701C42.9808 62.9953 47.1572 62.9099 46.4506 64.0205C45.5647 65.4087 41.1351 66.2523 41.1351 66.2523C41.1351 66.2523 46.8198 65.3019 45.9971 67.0319C45.5436 68.0036 42.232 68.2065 40.1648 68.292Z" fill="#FFB27D"/>
<path d="M28.1417 68.6232C26.2116 68.6232 24.366 68.4737 22.6152 68.164C18.27 67.4058 14.41 65.6972 11.1722 63.0916C0.235308 54.3351 0.056015 38.5841 0.056015 37.922C0.056015 37.922 0.393507 35.9678 3.96881 36.1067C9.95929 36.3309 9.89602 39.5879 9.89602 39.5879C9.89602 39.5879 9.98039 49.6258 17.2365 55.403C21.645 58.9056 28.0678 59.6851 36.3259 57.7309L38.5406 67.3204C34.8704 68.1854 31.39 68.6232 28.1417 68.6232Z" fill="#FFB27D"/>
<path d="M58.1679 63.2836C58.1679 63.2836 71.4672 65.8678 76.614 58.2219C81.7607 50.5866 82.8048 55.8726 81.476 58.5422C80.1471 61.2012 72.2582 71.8906 62.6819 69.1675C53.095 66.4445 58.1679 63.2836 58.1679 63.2836Z" fill="#331832"/>
<path d="M62.26 76.002C60.1507 75.9486 57.957 75.8739 55.6789 75.7884C51.6501 75.6283 47.3471 75.4254 42.7066 75.1691C41.6097 75.105 40.4918 75.0409 39.3527 74.9769C39.184 74.9662 39.0047 74.9555 38.836 74.9448C38.7305 74.9341 38.6356 74.9341 38.5301 74.9235C37.602 74.4856 36.6739 74.0158 35.7774 73.5352C35.556 73.4178 35.3345 73.2896 35.1235 73.1722C34.5329 72.8411 33.9634 72.4994 33.3939 72.147C33.1091 71.9762 32.8349 71.7946 32.5607 71.6131C32.0861 71.3034 31.6326 70.983 31.1897 70.652C30.5358 70.1715 29.903 69.6696 29.3124 69.157C29.2174 69.0716 29.1225 68.9968 29.0381 68.9114C28.9327 68.8153 28.8272 68.7192 28.7112 68.6231C27.3823 67.395 26.2644 66.0815 25.4523 64.6933C25.2941 64.4263 25.157 64.1701 25.0199 63.9031C24.7457 63.3478 24.5136 62.7818 24.3343 62.2052C24.3238 62.1625 24.3133 62.1304 24.3027 62.0877C23.9125 60.7315 23.6805 59.4821 23.5961 58.3288C23.5961 58.3182 23.5961 58.3075 23.5961 58.2968C23.575 58.0298 23.5644 57.7629 23.5539 57.5066C23.5539 57.4852 23.5539 57.4745 23.5539 57.4532C23.5117 54.9117 24.1445 52.8827 25.0621 51.2382C26.8339 48.0773 29.6709 46.3794 30.7678 45.3436C31.8014 44.3612 32.3603 43.5282 32.6345 42.8341C33.0037 41.8944 32.8349 41.211 32.5713 40.7518C32.5396 40.6877 32.4974 40.6343 32.4553 40.5809C32.2971 40.3567 32.1283 40.2072 32.0123 40.1324C31.9596 40.0897 31.9279 40.0684 31.9068 40.0577C31.9385 40.079 31.9807 40.1004 32.0123 40.1111C32.0439 40.1324 32.0756 40.1431 32.1178 40.1645C32.4025 40.314 32.6873 40.4528 32.972 40.5702C33.1619 40.6557 33.3623 40.7304 33.5521 40.7945C34.0794 40.976 34.5962 41.1149 35.113 41.211C36.3153 41.4352 37.486 41.4352 38.5828 41.3178C39.3633 41.2323 40.1016 41.0828 40.7765 40.9013C43.0968 40.2712 44.6893 39.2675 44.7315 39.2461C44.721 39.2675 44.5733 39.4383 44.3835 39.748C43.8351 40.613 42.8648 42.5244 43.0651 44.831C43.1073 45.3436 43.2128 45.8669 43.3815 46.4008C43.719 47.4473 44.2569 48.4831 44.9319 49.4762C44.9424 49.4869 44.9425 49.4976 44.953 49.5083C45.4276 50.2024 45.9655 50.8751 46.5455 51.5265C46.5561 51.5372 46.5666 51.5479 46.5772 51.5693C47.0201 52.0605 47.4947 52.541 47.9904 53.0109C48.3806 53.3846 48.7814 53.7477 49.1927 54.1001C49.6884 54.5272 50.2052 54.9437 50.722 55.3388C51.0384 55.5844 51.3548 55.8194 51.6712 56.0436C52.9157 56.9513 54.2024 57.7736 55.4152 58.489C58.1257 60.0801 60.0136 61.8421 61.2581 63.6575C61.3319 63.7643 61.4057 63.8711 61.469 63.9672C61.7854 64.4584 62.0596 64.9603 62.3022 65.4515C62.9244 66.765 63.2514 68.0784 63.3674 69.3599C63.61 71.816 63.051 74.1332 62.26 76.002Z" fill="#EF8062"/>
<path d="M25.7054 61.4791C25.7054 61.4791 24.2605 58.126 25.4206 55.6379C26.5913 53.1497 26.7495 51.5373 29.3651 49.0385C31.9807 46.5503 33.1724 44.6602 33.8791 46.5717C34.5857 48.4832 32.9615 50.7898 33.6576 53.0216C34.3537 55.2534 31.9701 56.5883 32.1283 58.8842C32.2865 61.1908 34.4064 63.0809 32.856 64.4157C31.3057 65.7506 28.3737 65.8574 25.7054 61.4791Z" fill="#FFC8BD"/>
<path d="M39.2262 29.0265C39.2262 29.0265 23.6594 23.7833 21.2758 32.9242C21.2758 32.9242 20.6641 35.4123 24.7562 36.6831C28.8483 37.9538 29.0381 28.5139 35.113 31.2797C41.1773 34.0454 39.2262 29.0265 39.2262 29.0265Z" fill="#331832"/>
<path d="M41.6941 29.4748C39.3316 28.4069 36.6001 28.503 34.3958 29.8806C33.0248 30.7349 31.717 32.1765 31.042 34.5578C29.2385 40.9116 36.3997 43.955 41.1245 42.2678C45.417 40.7301 49.2243 32.8706 41.6941 29.4748Z" fill="#EF8062"/>
<path d="M38.6145 34.1308C38.4985 34.6114 38.1504 34.9317 37.834 34.857C37.5176 34.7822 37.3383 34.3337 37.4543 33.8532C37.5704 33.3726 37.9184 33.0523 38.2348 33.127C38.5512 33.2018 38.7305 33.6503 38.6145 34.1308Z" fill="#331832"/>
<path d="M37.4121 32.6678C37.4121 32.6678 37.8657 31.9096 38.8887 31.2796C39.9222 30.6602 40.4074 29.8807 39.6586 29.6458C38.5934 29.3147 37.9606 29.6031 37.1801 30.3933C36.3891 31.1835 35.4716 32.796 36.1887 33.0202C36.8848 33.2551 37.0219 33.5435 37.4121 32.6678Z" fill="#FFC8BD"/>
<path d="M35.8723 33.4797C35.8723 33.4797 29.903 32.4866 29.0592 34.5369C28.5952 35.6795 32.5502 37.3347 34.5118 37.0357C36.484 36.726 38.7938 34.0777 35.8723 33.4797Z" fill="#EF8062"/>
<path d="M44.1198 31.3332C44.1198 31.3332 53.1161 29.1228 57.63 39.0219C62.144 48.921 47.7689 48.6113 47.8849 43.4108C48.001 38.2103 48.1697 34.2806 44.8686 33.6825C44.8686 33.6825 43.3183 33.5224 43.2972 32.3904C43.2761 31.4614 44.1198 31.3332 44.1198 31.3332Z" fill="#331832"/>
<path d="M32.7295 40.7622C32.7295 40.7622 35.3872 41.1893 36.5895 38.7866C37.159 37.6547 29.6498 38.3488 29.6498 38.3488L30.7572 40.4311L32.7295 40.7622Z" fill="#331832"/>
<path d="M29.0065 40.6555C29.112 40.7623 29.3334 42.7486 32.1072 42.8447C34.5857 42.9301 35.9673 39.9614 35.4716 40.1002C31.0736 41.339 30.1455 39.6304 29.6182 39.8653C29.0803 40.1109 29.0065 40.6555 29.0065 40.6555Z" fill="#FFC8BD"/>
<path d="M31.2424 37.612C31.2424 37.612 28.4053 38.84 27.6354 42.3106C26.8655 45.7811 29.4284 46.5607 30.5885 44.3822C31.7486 42.2038 31.1896 40.3244 33.0986 38.7973C33.0986 38.7866 32.5396 37.281 31.2424 37.612Z" fill="#FF635C"/>
<path d="M28.785 44.126C28.7428 44.126 28.7217 44.094 28.7217 44.0619C28.8061 41.4884 29.8186 39.9293 30.6412 39.0857C31.5482 38.1566 32.4131 37.8576 32.4552 37.8363C32.4869 37.8256 32.5291 37.847 32.5396 37.879C32.5502 37.911 32.5291 37.9537 32.4974 37.9644C32.4658 37.9751 29.0065 39.2352 28.8483 44.0726C28.8483 44.1046 28.8272 44.126 28.785 44.126Z" fill="#FF8280"/>
<path d="M30.9365 37.6871C30.9365 37.6871 30.4619 39.1501 32.3498 39.6306C34.2376 40.1111 38.509 39.7054 38.0239 37.3133C37.6442 35.4446 34.3536 35.9038 33.6997 36.128C33.0564 36.3523 30.9365 37.6871 30.9365 37.6871Z" fill="#FFC8BD"/>
<path d="M29.0065 35.1133C29.0065 35.1133 28.0573 35.7006 28.0995 36.5122C28.1311 37.3238 28.6057 38.8615 29.8819 38.7867C31.1475 38.712 31.1369 36.8112 31.1369 36.8112L29.0065 35.1133Z" fill="#FFC8BD"/>
<path d="M29.2069 34.3018C29.2069 34.3018 33.8263 34.9852 34.4275 35.8929C35.0286 36.8112 31.9912 37.9432 31.1791 37.6869C30.3776 37.4306 27.6776 34.6221 29.2069 34.3018Z" fill="#331832"/>
<path d="M34.881 32.7534C34.7649 33.2339 34.4169 33.5543 34.1005 33.4795C33.7841 33.4048 33.6048 32.9563 33.7208 32.4757C33.8368 31.9952 34.1849 31.6748 34.5013 31.7496C34.8177 31.835 34.997 32.2835 34.881 32.7534Z" fill="#331832"/>
<path d="M46.1553 45.8455C46.1553 45.8455 44.9213 43.6457 43.2972 44.6388C41.23 45.8989 40.0488 49.9141 41.3671 49.1346C42.5378 48.4511 43.5186 47.3833 43.5186 47.3833C43.5186 47.3833 40.439 50.7684 41.5042 51.4518C42.5694 52.1246 45.1112 49.252 45.1112 49.252C45.1112 49.252 42.4851 52.9255 43.6347 53.2245C44.7737 53.5235 46.883 51.1528 46.883 51.1528C46.883 51.1528 44.2886 54.3458 45.628 54.6554C46.9568 54.9651 48.1908 52.5624 48.9502 51.7081C49.6568 50.9072 49.3509 50.0423 48.5072 49.1986C48.5072 49.1986 48.0221 47.8745 47.3682 47.458C47.115 47.2978 47.0834 46.9027 46.9463 46.7212C46.7037 46.3795 46.1553 45.8455 46.1553 45.8455Z" fill="#FFB27D"/>
<path d="M48.022 53.1176C47.9799 53.1176 47.9377 53.0962 47.906 53.0642C47.8533 53.0001 47.8638 52.904 47.9271 52.8506C49.8361 51.1954 49.3826 50.4052 48.9818 49.7111C48.8763 49.5295 48.7814 49.3587 48.7181 49.1771C48.465 48.3549 48.1275 48.0665 47.5896 47.8316C47.2311 47.6714 47.0834 47.2443 46.9568 46.8705C46.8514 46.5609 46.7565 46.2725 46.5666 46.2085C46.208 46.091 45.9655 45.8347 45.6385 45.4823C45.4381 45.2687 45.185 45.0124 44.8581 44.7134C44.5417 44.4251 44.162 44.3717 43.7296 44.5426C43.3921 44.6707 43.1601 44.895 43.1601 44.895C43.0968 44.9484 43.0124 44.9484 42.9491 44.8843C42.8964 44.8202 42.8964 44.7348 42.9597 44.6707C43.3394 44.297 44.278 43.7844 45.0479 44.4785C45.3959 44.7882 45.6491 45.0552 45.8494 45.2687C46.1658 45.5998 46.3662 45.824 46.6615 45.9201C46.9885 46.0269 47.115 46.4007 47.231 46.7637C47.3471 47.0948 47.4525 47.4365 47.7056 47.5433C48.3068 47.8103 48.7076 48.152 48.9923 49.0703C49.0345 49.2198 49.1294 49.38 49.2244 49.5402C49.6357 50.2557 50.2052 51.2381 48.1064 53.0535C48.0853 53.1069 48.0537 53.1176 48.022 53.1176Z" fill="#EC865C"/>
<path d="M33.9212 58.2433C33.9212 58.2433 29.2174 56.9405 25.0621 57.2822C22.9106 57.4638 20.9067 58.0831 19.7888 59.5675C16.5404 63.903 15.992 68.6123 19.7044 70.1714C23.4273 71.7305 25.3468 68.4628 24.9988 65.5582C24.6508 62.6536 31.4111 67.7687 32.8982 67.0425C34.3958 66.3057 36.1044 59.2364 33.9212 58.2433Z" fill="#EF8062"/>
<path d="M25.0199 65.6118C25.0093 65.6118 25.0093 65.6118 25.0199 65.6118C24.9882 65.6118 24.9671 65.5798 24.9671 65.5477C25.2519 63.0382 24.2183 62.1412 24.2078 62.1305C24.1867 62.1092 24.1867 62.0771 24.1972 62.0558C24.2183 62.0344 24.25 62.0344 24.2711 62.0451C24.3132 62.0878 25.3574 62.9955 25.0726 65.5584C25.0621 65.5904 25.041 65.6118 25.0199 65.6118Z" fill="#331832"/>
<path d="M20.9172 70.5773C20.9067 70.5773 20.9067 70.5773 20.8962 70.5773C20.3161 70.353 19.9364 70.0113 19.7677 69.5628C19.4829 68.8046 19.8942 68.0144 19.9153 67.9823C19.9259 67.9503 19.9575 67.9503 19.9891 67.961C20.0208 67.9717 20.0208 68.0037 20.0102 68.0357C20.0102 68.0464 19.6095 68.8153 19.8731 69.5201C20.0313 69.9472 20.3899 70.2569 20.9383 70.4705C20.97 70.4811 20.9805 70.5132 20.97 70.5452C20.9594 70.5666 20.9383 70.5773 20.9172 70.5773Z" fill="#331832"/>
<path d="M22.784 70.3851C22.0035 70.3531 21.8664 69.1571 21.8559 69.1144C21.8559 69.0823 21.877 69.061 21.9086 69.0503C21.9403 69.0503 21.9613 69.0717 21.9719 69.1037C21.9719 69.1144 22.0985 70.257 22.784 70.2783C22.8156 70.2783 22.8367 70.2997 22.8367 70.3317C22.8367 70.3638 22.8156 70.3851 22.784 70.3851Z" fill="#331832"/>
<path d="M17.9009 68.826C17.8904 68.826 17.8693 68.8153 17.8587 68.8046C17.3736 68.2493 17.7533 66.8504 17.7743 66.7864C17.7849 66.7543 17.8165 66.7437 17.8376 66.7437C17.8693 66.7543 17.8798 66.7864 17.8798 66.8077C17.8798 66.8184 17.5001 68.2066 17.9431 68.7192C17.9642 68.7406 17.9642 68.7726 17.9431 68.794C17.922 68.8153 17.9114 68.826 17.9009 68.826Z" fill="#331832"/>
<path d="M24.4187 58.2969C20.063 58.393 18.8396 55.2214 18.4915 57.9338C18.4599 58.1473 18.4177 58.3716 18.365 58.5745C17.7427 61.0092 15.4225 62.9741 12.6487 60.8704C12.1214 60.4753 11.7417 60.0161 11.478 59.5249C11.3936 59.3647 11.3198 59.2045 11.2671 59.0337C10.4866 56.7378 11.7839 53.8759 15.0533 51.8042C18.8712 49.3802 26.0534 51.4732 26.0534 51.4732L24.4187 58.2969Z" fill="#EF8062"/>
<path d="M18.365 58.5742C17.7427 61.0089 15.4225 62.9738 12.6487 60.8701C12.1214 60.475 11.7417 60.0158 11.478 59.5246C11.4675 59.5032 11.3304 59.3324 11.2671 59.0334C11.1722 58.5849 11.2354 57.8587 12.1319 57.0151C13.6401 55.5949 15.0428 57.1646 16.3189 57.4316C17.3525 57.6558 18.2068 57.784 18.365 58.5742Z" fill="#FFC8BD"/>
<path d="M18.5864 57.6349H18.5759C18.5443 57.6242 18.5232 57.6028 18.5337 57.5708C18.7446 56.5884 18.7974 55.4991 18.7974 55.4885C18.7974 55.4564 18.829 55.4351 18.8501 55.4351C18.8817 55.4351 18.9028 55.4671 18.9028 55.4885C18.9028 55.4991 18.8501 56.599 18.6392 57.5921C18.6286 57.6135 18.6075 57.6349 18.5864 57.6349Z" fill="#331832"/>
<path d="M15.4857 61.7779C15.4752 61.7779 15.4752 61.7779 15.4646 61.7779C13.6717 61.1265 14.0936 59.7596 14.0936 59.7489C14.1041 59.7169 14.1358 59.7062 14.1674 59.7169C14.199 59.7276 14.2096 59.7596 14.1991 59.7916C14.178 59.845 13.8088 61.0731 15.4963 61.6818C15.5279 61.6925 15.5385 61.7245 15.5279 61.7565C15.5279 61.7565 15.5068 61.7779 15.4857 61.7779Z" fill="#331832"/>
<path d="M17.1205 60.7742C16.8357 60.7742 16.5931 60.6887 16.4138 60.5179C16.0447 60.1655 16.0658 59.5782 16.0658 59.5568C16.0658 59.5248 16.0869 59.5034 16.1185 59.5034C16.1502 59.5034 16.1713 59.5248 16.1713 59.5568C16.1713 59.5675 16.1607 60.1121 16.4877 60.4325C16.667 60.6033 16.9201 60.6781 17.2365 60.6567C17.2681 60.6567 17.2892 60.6781 17.2998 60.7101C17.2998 60.7421 17.2787 60.7635 17.247 60.7742C17.1943 60.7742 17.1521 60.7742 17.1205 60.7742Z" fill="#331832"/>
<path d="M13.0389 61.2013C13.0284 61.2013 13.0178 61.2013 13.0178 61.1906C12.3745 60.8489 12.3639 59.9092 12.3639 59.8771C12.3639 59.8451 12.385 59.8237 12.4167 59.8237C12.4483 59.8237 12.4694 59.8451 12.4694 59.8771C12.4694 59.8878 12.48 60.7848 13.06 61.0945C13.0917 61.1052 13.0917 61.1372 13.0811 61.1692C13.0706 61.1906 13.0495 61.2013 13.0389 61.2013Z" fill="#331832"/>
<path d="M21.9297 58.0298C21.9086 58.0298 21.8875 58.0192 21.877 57.9978C21.8664 57.9764 21.877 57.9337 21.8981 57.9231C23.1215 57.2289 25.041 57.2183 25.0621 57.2183C25.0937 57.2183 25.1148 57.2396 25.1148 57.2717C25.1148 57.3037 25.0937 57.325 25.0621 57.325C25.041 57.325 23.1531 57.3357 21.9508 58.0192C21.9508 58.0298 21.9403 58.0298 21.9297 58.0298Z" fill="#331832"/>
</g>
</svg>
