<svg width="72" height="48" viewBox="0 0 72 48" fill="none" xmlns="http://www.w3.org/2000/svg">
<g filter="url(#filter0_d)">
<path d="M36.5925 10.7651H34.8149V6.25114L32.7949 9.54258H32.5929L30.5729 6.25114V10.7651H28.7953V3H30.5729L32.6872 6.45266L34.8014 3H36.579V10.7651H36.5925Z" fill="white"/>
<path d="M41.6559 7.78267V10.7651H39.8784V7.78267L37.2524 3H39.2724L40.7537 5.99588L42.235 3H44.255L41.6559 7.78267Z" fill="white"/>
<path d="M25.8597 3V31.9244H20.0421V30.1107C18.7628 31.5751 16.864 32.4752 14.265 32.4752C9.1881 32.4752 5 28.0284 5 22.265C5 16.5016 9.1881 12.0548 14.265 12.0548C16.864 12.0548 18.7628 12.9415 20.0421 14.4193V3H25.8597ZM20.0421 22.2516C20.0421 19.3497 18.103 17.5361 15.4231 17.5361C12.7433 17.5361 10.8041 19.3497 10.8041 22.2516C10.8041 25.1534 12.7433 26.9671 15.4231 26.9671C18.103 26.9671 20.0421 25.1534 20.0421 22.2516Z" fill="white"/>
<path d="M25.725 22.2516C25.725 16.4882 30.3037 12.0414 36 12.0414C41.6964 12.0414 46.275 16.4882 46.275 22.2516C46.275 28.015 41.6964 32.4618 36 32.4618C30.3037 32.4618 25.725 28.015 25.725 22.2516ZM40.4574 22.2516C40.4574 19.5109 38.5183 17.6839 36 17.6839C33.4818 17.6839 31.5426 19.4975 31.5426 22.2516C31.5426 25.0056 33.4818 26.8193 36 26.8193C38.5183 26.8193 40.4574 25.0056 40.4574 22.2516Z" fill="white"/>
<path d="M67 12.5788V30.9571C67 37.4594 61.9231 40.2 56.7654 40.2C52.7389 40.2 49.3588 38.6953 47.5812 35.5248L52.5504 32.6633C53.291 34.0201 54.4087 35.0949 56.9674 35.0949C59.6876 35.0949 61.344 33.6977 61.344 30.9571V29.1837C60.0647 30.769 58.2063 31.696 55.6881 31.696C50.1802 31.696 46.1537 27.2089 46.1537 21.8754C46.1537 16.5419 50.1802 12.0548 55.6881 12.0548C58.2063 12.0548 60.0647 12.9818 61.344 14.5671V12.5788H67ZM61.3305 21.862C61.3305 19.1885 59.3914 17.3749 56.6442 17.3749C53.897 17.3749 51.9578 19.1885 51.9578 21.862C51.9578 24.5354 53.897 26.3491 56.6442 26.3491C59.3914 26.3491 61.3305 24.5354 61.3305 21.862Z" fill="white"/>
<g filter="url(#filter1_d)">
<g opacity="0.2">
<g opacity="0.2">
<path opacity="0.2" d="M42.9218 30.1779L42.9083 30.1107C42.9083 30.1107 42.9083 30.1107 42.9218 30.1107V30.1779Z" fill="#3E2670"/>
</g>
</g>
<path d="M42.5464 27.4523C39.9877 30.0586 35.1802 29.6421 35.1802 29.6421C35.1802 29.6421 30.3187 28.9435 28.4334 25.8267C26.5481 22.6965 29.0125 19.2573 29.0125 19.2573C29.0125 19.2573 29.1068 18.7871 29.2818 18.0885L29.3222 17.9407C29.3222 17.9407 29.3222 17.9407 29.3222 17.9273C29.7935 16.0733 30.7766 12.8759 31.9751 12.2311C32.1906 12.1101 32.3926 12.0698 32.5677 12.0833C33.1871 12.1236 33.5911 12.849 33.847 13.5745C34.1028 14.3 34.1836 15.012 34.1836 15.012C34.224 14.9986 35.638 14.4477 36.9443 14.5955C38.2371 14.7433 39.4895 15.6031 39.5299 15.63C39.5299 15.63 39.88 14.703 40.4187 13.991C40.9304 13.3058 41.6037 12.8087 42.3174 13.4402C42.9773 14.0178 43.3005 15.6031 43.4486 17.1615C43.6372 19.0692 43.5833 20.9635 43.5833 20.9635C43.5833 20.9635 45.105 24.846 42.5464 27.4523Z" fill="#545176"/>
<path d="M35.8923 29.6943C35.4614 29.6943 35.192 29.6674 35.1786 29.6674C35.1247 29.654 30.2768 28.9285 28.4049 25.8252C27.4218 24.1996 27.6373 22.4934 27.9874 21.3515C28.351 20.1692 28.9301 19.3094 28.984 19.2423C28.9974 19.1885 29.0917 18.7318 29.2533 18.0869L29.2937 17.9391C29.2937 17.9391 29.2937 17.9391 29.2937 17.9257C29.765 16.0717 30.7481 12.8609 31.9735 12.2026C32.189 12.0817 32.391 12.0414 32.5795 12.0548C33.1047 12.0951 33.5491 12.6056 33.8858 13.5595C34.1013 14.1775 34.1955 14.7955 34.2225 14.9567C34.4649 14.8626 35.7442 14.4193 36.9292 14.5536H36.9562C38.1547 14.688 39.3128 15.4403 39.5148 15.5747C39.5821 15.4 39.9188 14.5939 40.3901 13.9625C40.7807 13.4386 41.1712 13.1565 41.5483 13.1162C41.8176 13.0893 42.0869 13.1833 42.3293 13.4117C42.8949 13.9088 43.272 15.1716 43.474 17.1465C43.6625 18.987 43.6086 20.8275 43.6086 20.9484C43.6356 21.0291 43.9857 21.9829 44.053 23.2189C44.1069 24.4145 43.8914 26.1073 42.5717 27.4642C40.6191 29.4659 37.3332 29.6943 35.8923 29.6943ZM32.5257 12.1086C32.3641 12.1086 32.189 12.1623 32.0005 12.2564C30.802 12.9012 29.8324 16.0986 29.361 17.9391C29.361 17.9526 29.361 17.9526 29.361 17.9526L29.3206 18.1003C29.1456 18.7855 29.0513 19.2557 29.0513 19.2691V19.2826C29.0513 19.296 28.4318 20.1558 28.0548 21.3784C27.7046 22.5068 27.5026 24.1996 28.4722 25.8117C30.3306 28.8882 35.1516 29.6137 35.2055 29.6137C35.2459 29.6137 40.0265 30.0033 42.5448 27.4373C43.851 26.0938 44.0665 24.4145 44.0126 23.2323C43.9588 21.956 43.5817 20.9753 43.5817 20.9753C43.5817 20.9619 43.6356 19.0676 43.447 17.1734C43.245 15.2119 42.868 13.9625 42.3159 13.4789C42.0735 13.2639 41.8311 13.1699 41.5752 13.1968C41.2116 13.2371 40.8345 13.5058 40.4575 14.0163C39.9323 14.7149 39.5821 15.6418 39.5821 15.6418L39.5687 15.6687H39.5283L39.5148 15.6553C39.4609 15.6284 38.249 14.782 36.9831 14.6208H36.9562C35.7172 14.473 34.3437 14.9835 34.2225 15.0373L34.1821 15.0776L34.1686 15.0104C34.1686 14.997 34.0743 14.2984 33.8319 13.5864C33.603 12.9415 33.2125 12.1757 32.593 12.122C32.5526 12.1086 32.5391 12.1086 32.5257 12.1086Z" fill="#3E2670"/>
<g opacity="0.6">
<g opacity="0.6">
<path opacity="0.6" d="M39.4609 15.7493C38.8415 15.6015 38.1951 15.4 37.5756 15.2657C37.4679 15.4 37.1447 15.4672 36.7676 15.4403C36.3367 15.4 36 15.2388 35.9731 15.0776C34.8958 15.0239 34.1282 15.1313 34.1282 15.1313C34.1686 15.1179 35.5826 14.5671 36.8888 14.7149C38.1816 14.8492 39.434 15.7224 39.4609 15.7493Z" fill="white"/>
</g>
</g>
<g opacity="0.6">
<g opacity="0.6">
<path opacity="0.6" d="M43.447 17.1464C42.4505 12.0951 40.4709 13.9222 40.4171 13.9759C40.9288 13.2908 41.6021 12.7937 42.3158 13.4251C42.9757 14.0162 43.2989 15.588 43.447 17.1464Z" fill="white"/>
</g>
</g>
<g opacity="0.6">
<g opacity="0.6">
<path opacity="0.6" d="M33.8454 13.5058C31.6235 10.0397 29.4284 17.4824 29.3207 17.872C29.792 16.018 30.7751 12.8206 31.9736 12.1758C32.1891 12.0549 32.3911 12.0145 32.5661 12.028C33.199 12.0549 33.603 12.7803 33.8454 13.5058Z" fill="white"/>
</g>
</g>
<path d="M33.4414 17.5898C33.3067 17.5898 33.172 17.5898 33.0239 17.6167C30.7077 17.9794 30.3037 21.6605 30.3037 21.6605C30.3037 21.6605 29.2129 20.9485 28.4183 22.1844C27.8527 23.0711 27.9335 24.3205 28.0143 24.9654C28.1221 25.2475 28.2433 25.5296 28.4049 25.8117C30.2498 28.9285 35.0304 29.6137 35.0304 29.6137H35.1247C35.1382 29.6137 35.219 29.6271 35.219 29.6271C35.219 29.6271 40.0265 30.057 42.5448 27.4507C42.7737 27.2223 42.9488 26.9671 43.1238 26.7118C43.3662 26.1073 43.7298 24.9116 43.3797 23.9175C42.8949 22.5337 41.6694 22.9771 41.6694 22.9771C41.6694 22.9771 42.1273 19.296 39.9592 18.4093C39.6899 18.3019 39.4205 18.2481 39.1781 18.2347C37.414 18.1944 36.2155 20.3708 36.2155 20.3708C36.2155 20.3708 35.5422 17.9794 33.8319 17.6167C33.7107 17.6167 33.576 17.6033 33.4414 17.5898Z" fill="white"/>
<g opacity="0.2">
<g opacity="0.2">
<path opacity="0.2" d="M43.4874 25.7177C43.4066 26.1207 43.2855 26.47 43.1777 26.7253C43.0161 26.9805 42.8276 27.2223 42.5987 27.4642C40.0804 30.0839 35.2729 29.6405 35.2729 29.6405C35.2729 29.6405 35.1921 29.6271 35.1786 29.6271C35.1651 29.6271 35.0843 29.6271 35.0843 29.6271C35.0843 29.6271 30.3037 28.9419 28.4588 25.8251C28.2972 25.543 28.176 25.2609 28.0682 24.9788C28.0413 24.7773 28.0144 24.5086 28.0009 24.213C28.0413 24.2802 28.0817 24.3474 28.1221 24.428C30.0882 27.5448 35.1651 28.2299 35.1651 28.2299C35.1651 28.2299 35.2594 28.2299 35.2729 28.2299C35.2863 28.2299 35.3671 28.2433 35.3671 28.2433C35.3671 28.2433 40.4844 28.6733 43.1643 26.067C43.2855 25.9595 43.3797 25.8386 43.4874 25.7177Z" fill="#3E2670"/>
</g>
</g>
<path d="M35.9731 29.9092C35.5152 29.9092 35.219 29.8824 35.1651 29.8824H35.1516C34.9496 29.8555 30.1555 29.13 28.2298 25.9461C27.4218 24.6026 27.2737 23.0039 27.7854 21.2977C28.1356 20.1693 28.6608 19.3498 28.7954 19.1617C28.9301 18.5303 30.1421 12.955 31.8793 12.0145C32.1217 11.8802 32.3775 11.8265 32.6065 11.8399C33.7915 11.9205 34.2628 13.8819 34.3975 14.6746C34.8958 14.5133 35.9462 14.2312 36.9562 14.3387C36.9696 14.3387 36.9831 14.3387 36.9966 14.3387C38.02 14.4596 38.9896 14.9836 39.434 15.2522C39.7033 14.6208 40.4305 13.1565 41.3867 12.9281C41.656 12.8609 42.06 12.8609 42.4909 13.2505C43.9722 14.5671 43.8645 20.2767 43.8376 20.9081C43.9184 21.1231 44.2146 22.0366 44.282 23.2054C44.3628 24.9788 43.8241 26.4969 42.7333 27.6119C40.7268 29.654 37.4679 29.9092 35.9731 29.9092ZM35.2055 29.3987C35.4075 29.4122 39.9592 29.7346 42.3697 27.2761C44.7937 24.8041 43.3662 21.0694 43.3528 21.0291C43.3393 21.0022 43.3393 20.9619 43.3393 20.935C43.3932 19.2423 43.2854 14.6074 42.1542 13.5998C41.9388 13.3983 41.7098 13.3311 41.4944 13.3849C40.7133 13.5729 39.9727 15.1179 39.7572 15.6956C39.7303 15.7628 39.6764 15.8165 39.5956 15.8434C39.5283 15.8702 39.4475 15.8568 39.3801 15.8165C39.3667 15.8031 38.1681 14.9701 36.9427 14.8223C36.9292 14.8223 36.9158 14.8223 36.9023 14.8223C35.6634 14.6746 34.2763 15.2119 34.2628 15.2254C34.1955 15.2522 34.1147 15.2522 34.0474 15.2119C33.98 15.1716 33.9396 15.1045 33.9262 15.0373C33.8319 14.3521 33.3875 12.3907 32.5391 12.3235C32.4045 12.3101 32.2429 12.3504 32.0813 12.4444C30.7481 13.1565 29.5765 17.6436 29.2264 19.3094C29.2129 19.3363 29.1994 19.3766 29.186 19.4035C29.159 19.4304 26.8293 22.7487 28.6069 25.7042C30.4114 28.633 35.0035 29.3719 35.2055 29.3987Z" fill="#3E2670"/>
<path d="M30.5057 17.6302C30.5057 17.6302 31.5965 16.1927 33.199 15.4269C33.199 15.4269 32.9835 13.4118 32.391 13.3446C31.6638 13.264 30.5057 17.6302 30.5057 17.6302Z" fill="#F05483"/>
<path d="M30.4248 17.778L30.4652 17.6168C30.5191 17.4421 31.6233 13.3043 32.364 13.3043C32.3775 13.3043 32.3775 13.3043 32.3909 13.3043C33.0104 13.3715 33.2259 15.3329 33.2259 15.427V15.4538L33.1989 15.4673C31.6233 16.2196 30.5325 17.6437 30.5191 17.6571L30.4248 17.778ZM32.364 13.3715C31.8119 13.3715 30.9231 16.2062 30.5729 17.4959C30.8692 17.1331 31.8523 16.045 33.1585 15.4135C33.1316 15.1986 32.9161 13.4387 32.3775 13.3715H32.364Z" fill="#3E2670"/>
<path d="M30.5057 17.8585C30.4788 17.8585 30.4384 17.8451 30.4115 17.8317C30.3172 17.7914 30.2633 17.6839 30.2903 17.5764C30.2903 17.563 30.5865 16.4614 30.9636 15.3866C31.6908 13.3311 32.0948 13.0893 32.4045 13.1296C33.1182 13.2102 33.3472 14.903 33.401 15.4135C33.4145 15.5075 33.3606 15.5881 33.2798 15.6284C31.7446 16.3539 30.6808 17.7511 30.6673 17.7645C30.6269 17.8182 30.5731 17.8585 30.5057 17.8585ZM32.3641 13.5595C32.3237 13.5729 32.0005 13.7342 31.3406 15.615C31.1925 16.018 31.0713 16.4345 30.9636 16.7704C31.4214 16.3136 32.1082 15.7225 32.9566 15.2926C32.8489 14.4059 32.5796 13.5998 32.3641 13.5595Z" fill="#3E2670"/>
<path d="M42.5593 18.9343C42.5593 18.9343 41.8321 17.2819 40.4451 16.1668C40.4451 16.1668 41.1184 14.2591 41.7109 14.3263C42.4381 14.4204 42.5593 18.9343 42.5593 18.9343Z" fill="#F05483"/>
<path d="M42.5986 19.0945L42.5313 18.9467C42.5178 18.9333 41.7906 17.2943 40.4305 16.1927L40.4171 16.1792V16.1658C40.444 16.0852 41.1038 14.2312 41.7233 14.2984C42.464 14.379 42.5852 18.7452 42.5986 18.9333V19.0945ZM40.4844 16.1658C41.6156 17.0793 42.3158 18.3691 42.5313 18.7855C42.4909 17.4421 42.2754 14.4193 41.7233 14.3656C41.1846 14.2984 40.5652 15.9509 40.4844 16.1658Z" fill="#3E2670"/>
<path d="M42.5582 19.1483C42.4774 19.1483 42.3966 19.0946 42.3562 19.014C42.3427 19.0005 41.629 17.3884 40.3093 16.3405C40.2419 16.2868 40.215 16.1793 40.2419 16.0987C40.417 15.615 41.023 14.0298 41.7502 14.1104C42.0599 14.1507 42.4101 14.4731 42.639 16.6361C42.7602 17.778 42.7871 18.9199 42.7871 18.9199C42.7871 19.0274 42.7198 19.1214 42.6121 19.1349C42.5986 19.1483 42.5717 19.1483 42.5582 19.1483ZM40.6998 16.0987C41.4135 16.7032 41.9522 17.4421 42.2889 17.9929C42.2619 17.6302 42.235 17.2137 42.1946 16.7704C41.9926 14.7821 41.7098 14.5537 41.6829 14.5269C41.4674 14.5403 41.023 15.2658 40.6998 16.0987Z" fill="#3E2670"/>
<path d="M38.1682 23.1652C38.249 22.9637 38.3971 22.8159 38.5587 22.6815C38.7203 22.5606 38.9088 22.4532 39.1108 22.3994C39.3128 22.3457 39.5283 22.3323 39.7437 22.3726C39.9592 22.4129 40.1612 22.5203 40.2824 22.695C40.1747 22.7084 40.0804 22.7084 39.9861 22.7084C39.8919 22.7218 39.8111 22.7219 39.7303 22.7487C39.5687 22.7756 39.4071 22.8159 39.2455 22.8562C39.0839 22.8965 38.9223 22.9502 38.7472 23.004C38.5587 23.0711 38.3702 23.1249 38.1682 23.1652Z" fill="#3E2670"/>
<path d="M33.3336 22.6546C33.1451 22.5605 32.9835 22.4799 32.8219 22.3859C32.6603 22.2919 32.5121 22.2113 32.364 22.1306C32.2159 22.05 32.0677 21.9694 31.9196 21.9023C31.8388 21.862 31.758 21.8351 31.6772 21.8082C31.5964 21.7813 31.5021 21.7545 31.3944 21.7276C31.556 21.5933 31.7849 21.5261 32.0004 21.5395C32.2159 21.5395 32.4313 21.6067 32.6064 21.7142C32.7949 21.8217 32.9431 21.956 33.0777 22.1172C33.1989 22.265 33.2932 22.4396 33.3336 22.6546Z" fill="#3E2670"/>
<g opacity="0.3">
<g opacity="0.3">
<path opacity="0.3" d="M38.7876 25.1132C38.7472 25.4894 37.9392 26.4164 37.0773 25.8118C36.3232 25.2879 36.8484 24.5356 36.8484 24.5356L34.4783 24.2131C34.4783 24.2131 35.0304 25.3416 34.007 25.5431C32.9835 25.7312 32.593 24.3206 32.593 24.3206C32.0005 25.6909 33.0239 26.3223 33.0239 26.3223C33.2798 28.0554 34.0474 28.9689 35.0978 29.1033C36.7541 29.3317 37.8315 26.9 37.8315 26.9C39.0031 26.7791 38.7876 25.1132 38.7876 25.1132ZM36.3501 27.6927C36.3367 27.8001 36.3098 27.9076 36.2559 28.0017C36.0539 28.4316 35.596 28.7137 35.1112 28.6465C34.613 28.5793 34.2494 28.1763 34.182 27.7061C34.1686 27.6121 34.1686 27.5046 34.182 27.4105L34.3436 26.2149C34.5995 26.1746 34.8284 26.0805 35.0304 25.9327C35.3536 25.7044 35.5691 25.3551 35.6364 24.9386C35.5556 25.5969 35.9192 26.2149 36.4983 26.497L36.3501 27.6927Z" fill="#3E2670"/>
</g>
</g>
<path d="M34.1955 27.6926C33.6299 27.0746 33.4548 26.067 33.4548 26.067C33.5895 26.1342 33.7511 26.1745 33.9127 26.2014C34.0743 26.2282 34.2224 26.2148 34.3706 26.2014L34.209 27.397C34.182 27.4911 34.182 27.5985 34.1955 27.6926Z" fill="#3E2670"/>
<path d="M36.5252 26.4701L36.3636 27.6792C36.3501 27.7867 36.3232 27.8942 36.2693 27.9882C36.0673 28.4181 35.6094 28.7002 35.1247 28.6331C34.6264 28.5659 34.2628 28.1629 34.1955 27.6927C34.182 27.5986 34.182 27.4912 34.1955 27.3971L34.3571 26.2014C34.6129 26.1611 34.8419 26.0671 35.0439 25.9193C35.3671 25.6909 35.5825 25.3416 35.6498 24.9252C35.569 25.5835 35.9461 26.2014 36.5252 26.4701Z" fill="#EE307B"/>
<path d="M37.4679 26.6179C37.4679 26.6179 37.037 27.5448 36.2694 28.0016C36.3098 27.9076 36.3367 27.8001 36.3637 27.6926L36.5253 26.4835C36.6734 26.5507 36.835 26.6044 36.9966 26.6313C37.1582 26.6447 37.3198 26.6313 37.4679 26.6179Z" fill="#3E2670"/>
<path d="M34.3571 26.2955H34.3436C34.2897 26.2821 34.2493 26.2418 34.2628 26.188L34.2897 25.9865C34.3032 25.9328 34.3436 25.8925 34.3975 25.9059C34.4513 25.9194 34.4917 25.9597 34.4783 26.0134L34.4513 26.2149C34.4513 26.2552 34.4109 26.2955 34.3571 26.2955Z" fill="#3E2670"/>
<path d="M36.5252 26.5775H36.5118C36.4579 26.5641 36.4175 26.5238 36.431 26.47L36.4579 26.2819C36.4714 26.2282 36.5118 26.1879 36.5656 26.2013C36.6195 26.2148 36.6599 26.2551 36.6464 26.3088L36.6195 26.4969C36.6195 26.5372 36.5791 26.5775 36.5252 26.5775Z" fill="#3E2670"/>
<path d="M37.2389 26.7925C37.1581 26.7925 37.0773 26.7925 36.983 26.779C36.3232 26.685 35.7845 26.2417 35.5556 25.664C35.1785 26.1611 34.5456 26.4432 33.8857 26.3626C33.4144 26.2954 32.9969 26.0536 32.7141 25.6908C32.4313 25.3147 32.2967 24.8579 32.364 24.4011C32.3775 24.2802 32.4852 24.1996 32.6064 24.2265C32.7276 24.2399 32.8084 24.3474 32.7815 24.4683C32.7276 24.8176 32.8219 25.1535 33.0508 25.4356C33.2663 25.7177 33.5895 25.8924 33.9396 25.9461C34.6668 26.0401 35.3536 25.5565 35.4613 24.8445L35.8788 24.8982C35.7845 25.6102 36.3097 26.2685 37.0369 26.3626C37.7776 26.47 38.4509 25.9595 38.5586 25.2475C38.5721 25.1266 38.6798 25.046 38.801 25.0729C38.9222 25.0863 39.003 25.1938 38.9761 25.3147C38.8549 26.1611 38.1008 26.7925 37.2389 26.7925Z" fill="#3E2670"/>
<path d="M36.2828 28.1494C36.2155 28.1494 36.1347 28.1091 36.0943 28.0419C36.0404 27.9479 36.0674 27.8135 36.1751 27.7464C36.8754 27.3299 37.2928 26.4701 37.2928 26.4567C37.3467 26.3492 37.4679 26.3089 37.5756 26.3492C37.6834 26.4029 37.7238 26.5238 37.6834 26.6313C37.6699 26.6716 37.212 27.6255 36.3906 28.1091C36.3636 28.1494 36.3232 28.1494 36.2828 28.1494Z" fill="#3E2670"/>
<path d="M34.2089 27.8538C34.1551 27.8538 34.0877 27.8269 34.0473 27.7866C33.4413 27.1283 33.2528 26.0939 33.2528 26.0536C33.2393 25.9327 33.3067 25.8252 33.4279 25.8118C33.5491 25.7983 33.6568 25.8655 33.6703 25.9864C33.6703 25.9998 33.8453 26.9402 34.3571 27.5045C34.4379 27.5851 34.4244 27.7194 34.3436 27.8001C34.3032 27.8269 34.2628 27.8538 34.2089 27.8538Z" fill="#3E2670"/>
<path d="M35.2863 28.8076C35.2324 28.8076 35.1651 28.8076 35.1112 28.7942C34.3975 28.7002 33.8992 28.0284 34.007 27.3164L34.1686 26.1207C34.182 25.9998 34.2898 25.9192 34.411 25.9461C34.5322 25.9595 34.613 26.067 34.586 26.1879L34.4244 27.3836C34.3571 27.8672 34.6938 28.324 35.1786 28.3912C35.4075 28.418 35.6364 28.3643 35.8249 28.2165C36.0135 28.0687 36.1347 27.8672 36.1751 27.6254L36.3367 26.4163C36.3501 26.2954 36.4579 26.2148 36.5791 26.2417C36.7003 26.2551 36.7811 26.3626 36.7541 26.4835L36.5925 27.6926C36.5387 28.0419 36.3636 28.3509 36.0808 28.5658C35.8384 28.7136 35.5691 28.8076 35.2863 28.8076Z" fill="#3E2670"/>
<path d="M37.387 23.6623C37.3062 24.2668 36.5656 25.0057 35.6768 24.8848C34.6398 24.737 34.1281 23.8906 34.2089 23.2727C34.2897 22.6547 34.8149 22.6009 35.8518 22.7353C36.8888 22.8965 37.4678 23.0577 37.387 23.6623Z" fill="#3E2670"/>
<path d="M36.4993 23.3943C36.5166 23.2694 36.226 23.1261 35.8503 23.0744C35.4745 23.0226 35.1559 23.0819 35.1386 23.2069C35.1213 23.3318 35.4119 23.4751 35.7876 23.5268C36.1634 23.5786 36.482 23.5193 36.4993 23.3943Z" fill="white"/>
<path d="M36.0539 23.5819C35.9731 23.5819 35.8789 23.5819 35.7846 23.5685C35.4345 23.5148 35.0843 23.3804 35.1113 23.2058C35.1247 23.1252 35.2055 23.0714 35.3537 23.0446C35.4883 23.0177 35.6769 23.0177 35.8519 23.0446C36.2021 23.0983 36.5522 23.2326 36.5253 23.4073C36.5253 23.5282 36.2963 23.5819 36.0539 23.5819ZM35.5961 23.0849C35.5153 23.0849 35.4345 23.0849 35.3671 23.0983C35.2459 23.1252 35.1786 23.1655 35.1651 23.2058C35.1517 23.2998 35.4075 23.4476 35.7846 23.5013C36.1751 23.5551 36.4445 23.4879 36.4579 23.3939C36.4714 23.2998 36.2155 23.152 35.8385 23.0983C35.7577 23.0983 35.6769 23.0849 35.5961 23.0849Z" fill="#3E2670"/>
<path d="M35.7845 25.2476C35.7711 25.4357 35.7441 25.6238 35.7172 25.7984C35.6903 25.9865 35.6499 26.1611 35.6095 26.3492C35.5287 26.712 35.4479 27.0747 35.3402 27.4374C35.3402 27.4508 35.3267 27.4508 35.3132 27.4508C35.2998 27.4508 35.2998 27.4374 35.2998 27.424C35.2863 27.0478 35.3132 26.6716 35.3267 26.3089C35.3402 26.1208 35.3536 25.9328 35.3671 25.7581C35.394 25.57 35.4209 25.3954 35.4613 25.2073C35.4883 25.1133 35.5691 25.0595 35.6633 25.0864C35.7307 25.0998 35.7845 25.167 35.7845 25.2476Z" fill="#3E2670"/>
</g>
</g>
<defs>
<filter id="filter0_d" x="0" y="0" width="72" height="47.2" filterUnits="userSpaceOnUse" color-interpolation-filters="sRGB">
<feFlood flood-opacity="0" result="BackgroundImageFix"/>
<feColorMatrix in="SourceAlpha" type="matrix" values="0 0 0 0 0 0 0 0 0 0 0 0 0 0 0 0 0 0 127 0"/>
<feOffset dy="2"/>
<feGaussianBlur stdDeviation="2.5"/>
<feColorMatrix type="matrix" values="0 0 0 0 0 0 0 0 0 0 0 0 0 0 0 0 0 0 0.15 0"/>
<feBlend mode="normal" in2="BackgroundImageFix" result="effect1_dropShadow"/>
<feBlend mode="normal" in="SourceGraphic" in2="effect1_dropShadow" result="shape"/>
</filter>
<filter id="filter1_d" x="17.4878" y="2.83789" width="36.8021" height="38.34" filterUnits="userSpaceOnUse" color-interpolation-filters="sRGB">
<feFlood flood-opacity="0" result="BackgroundImageFix"/>
<feColorMatrix in="SourceAlpha" type="matrix" values="0 0 0 0 0 0 0 0 0 0 0 0 0 0 0 0 0 0 127 0"/>
<feOffset dy="1"/>
<feGaussianBlur stdDeviation="5"/>
<feColorMatrix type="matrix" values="0 0 0 0 0 0 0 0 0 0 0 0 0 0 0 0 0 0 0.1 0"/>
<feBlend mode="normal" in2="BackgroundImageFix" result="effect1_dropShadow"/>
<feBlend mode="normal" in="SourceGraphic" in2="effect1_dropShadow" result="shape"/>
</filter>
</defs>
</svg>
