<svg width="19" height="17" viewBox="0 0 19 17" fill="none" xmlns="http://www.w3.org/2000/svg">
<path d="M16.4835 9.61462C17.477 9.61462 18.286 8.85487 18.286 7.92178L18.286 2.50463C18.286 1.57154 17.477 0.811788 16.4835 0.811787L14.3204 0.811787C13.9144 0.811787 13.541 0.940434 13.2389 1.15443L13.2389 9.61462L16.4835 9.61462Z" fill="#FF6E6E"/>
<path d="M0.981103 7.07602C0.981103 7.48298 1.15269 7.86219 1.45049 8.14186C1.11376 8.48787 0.942166 8.95173 0.989044 9.43451C1.0734 10.2952 1.89899 10.9696 2.86946 10.9696L7.32322 10.9696C7.10259 11.5987 6.7493 12.7518 6.7493 13.6782C6.7493 15.1469 8.07813 16.3867 8.91236 16.3867C9.6615 16.3867 10.1965 15.9906 10.2196 15.9743C10.3046 15.91 10.3544 15.8125 10.3544 15.7096L10.3544 13.4134L12.4309 9.18871L12.5175 9.14741L12.5175 1.88979C11.9306 1.62977 11.1879 1.4896 10.7149 1.4896L4.09663 1.4896C3.31144 1.4896 2.62429 1.98664 2.46281 2.67256C2.3799 3.02536 2.4282 3.38086 2.5933 3.68964C2.06047 3.94153 1.70211 4.45685 1.70211 5.0446C1.70211 5.28431 1.76052 5.51386 1.87154 5.72173C1.33872 5.97363 0.981103 6.48894 0.981103 7.07602Z" fill="#FF6E6E"/>
</svg>
