<svg width="27" height="27" viewBox="0 0 27 27" fill="none" xmlns="http://www.w3.org/2000/svg">
<path fill-rule="evenodd" clip-rule="evenodd" d="M23.9997 22.5002C23.9997 23.3282 23.3262 24.0002 22.4997 24.0002H4.49966C3.67316 24.0002 2.99966 23.3282 2.99966 22.5002V12.0002H23.9997V22.5002ZM7.49931 4.50026C8.32731 4.50026 8.99931 5.17076 8.99931 6.00026C8.99931 6.82976 8.32731 7.50026 7.49931 7.50026C6.67131 7.50026 5.99931 6.82976 5.99931 6.00026C5.99931 5.17076 6.67131 4.50026 7.49931 4.50026ZM13.5002 4.50026C14.3282 4.50026 15.0002 5.17076 15.0002 6.00026C15.0002 6.82976 14.3282 7.50026 13.5002 7.50026C12.6722 7.50026 12.0002 6.82976 12.0002 6.00026C12.0002 5.17076 12.6722 4.50026 13.5002 4.50026ZM22.5 0H4.5C2.019 0 0 2.019 0 4.5V9V12V22.5C0 24.981 2.019 27 4.5 27H22.5C24.981 27 27 24.981 27 22.5V12V9V4.5C27 2.019 24.981 0 22.5 0Z" fill="#6C5475"/>
</svg>
