<svg width="18" height="18" viewBox="0 0 18 18" fill="none" xmlns="http://www.w3.org/2000/svg">
<path fill-rule="evenodd" clip-rule="evenodd" d="M9.00044 13.3422C9.14355 13.3422 9.28665 13.3783 9.41716 13.4495L12.8094 15.3202L12.1641 11.3727C12.1128 11.0632 12.2109 10.7479 12.4251 10.5285L15.1576 7.74051L11.3747 7.15935C11.0822 7.11472 10.8293 6.92195 10.6979 6.64277L9.00044 3.03998L7.30296 6.64277C7.17156 6.92195 6.91865 7.11472 6.62613 7.15935L2.84326 7.74051L5.57579 10.5285C5.79 10.7479 5.8881 11.0632 5.8368 11.3727L5.19147 15.3202L8.58372 13.4495C8.71423 13.3783 8.85733 13.3422 9.00044 13.3422ZM14.006 17.9997C13.8629 17.9997 13.7198 17.9646 13.5893 17.8924L9 15.3626L4.41069 17.8924C4.10648 18.0595 3.73926 18.0301 3.46475 17.8174C3.18754 17.6047 3.04983 17.2448 3.10743 16.8887L3.98227 11.5443L0.274105 7.76014C0.0265933 7.50849 -0.0616106 7.13055 0.0436941 6.78585C0.148099 6.44114 0.430712 6.19045 0.770027 6.13822L5.90116 5.35195L8.19356 0.484297C8.49778 -0.161432 9.50222 -0.161432 9.80644 0.484297L12.0988 5.35195L17.23 6.13822C17.5693 6.19045 17.8519 6.44114 17.9563 6.78585C18.0616 7.13055 17.9734 7.50849 17.7259 7.76014L14.0177 11.5443L14.8926 16.8887C14.9502 17.2448 14.8125 17.6047 14.5353 17.8174C14.3795 17.9389 14.1932 17.9997 14.006 17.9997Z" fill="#FFA20D"/>
</svg>
