<svg width="19" height="17" viewBox="0 0 19 17" fill="none" xmlns="http://www.w3.org/2000/svg">
<path d="M2.51654 7.38538C1.52298 7.38538 0.713989 8.14513 0.713989 9.07822V14.4954C0.713989 15.4285 1.52298 16.1882 2.51654 16.1882H4.6796C5.08555 16.1882 5.45902 16.0596 5.76114 15.8456V7.38538H2.51654Z" fill="#70C818"/>
<path d="M18.0189 9.92397C18.0189 9.51702 17.8473 9.13781 17.5495 8.85814C17.8862 8.51213 18.0578 8.04827 18.011 7.56549C17.9266 6.70483 17.101 6.0304 16.1305 6.0304H11.6768C11.8974 5.40132 12.2507 4.24817 12.2507 3.32184C12.2507 1.85312 10.9219 0.613281 10.0876 0.613281C9.3385 0.613281 8.80348 1.00941 8.78043 1.02566C8.69536 1.09 8.64561 1.18751 8.64561 1.29041V3.58659L6.56907 7.81129L6.48254 7.85259V15.1102C7.06945 15.3702 7.81209 15.5104 8.28509 15.5104H14.9034C15.6886 15.5104 16.3757 15.0134 16.5372 14.3274C16.6201 13.9746 16.5718 13.6191 16.4067 13.3104C16.9395 13.0585 17.2979 12.5431 17.2979 11.9554C17.2979 11.7157 17.2395 11.4861 17.1285 11.2783C17.6613 11.0264 18.0189 10.5111 18.0189 9.92397Z" fill="#70C818"/>
</svg>
