<svg width="39" height="41" viewBox="0 0 39 41" fill="none" xmlns="http://www.w3.org/2000/svg">
<path fill-rule="evenodd" clip-rule="evenodd" d="M31.6078 34.7094H7.74273C3.80566 34.7094 0.600708 31.4959 0.600708 27.5456L0.600708 22.5295C0.600708 21.4069 1.48998 20.4995 2.59013 20.4995C3.69028 20.4995 4.57955 21.4069 4.57955 22.5295L4.57955 27.5456C4.57955 29.2548 5.99801 30.6494 7.74273 30.6494H31.6078L29.0355 28.0247C28.2596 27.2309 28.2596 25.948 29.0355 25.1543C29.4234 24.7584 29.9327 24.5595 30.442 24.5595C30.9513 24.5595 31.4606 24.7584 31.8485 25.1543L37.8168 31.2442C38.5947 32.0379 38.5947 33.3209 37.8168 34.1146L31.8485 40.2045C31.0727 40.9982 29.8134 40.9982 29.0355 40.2045C28.2596 39.4108 28.2596 38.1278 29.0355 37.3341L31.6078 34.7094ZM9.96541 15.8453C9.18754 16.639 7.93023 16.639 7.15237 15.8453L1.18411 9.75534C0.406242 8.96162 0.406242 7.67868 1.18411 6.88496L7.15237 0.795029C7.5403 0.399185 8.0496 0.200245 8.55889 0.200245C9.06818 0.200245 9.57747 0.399185 9.96541 0.795029C10.7433 1.58875 10.7433 2.87169 9.96541 3.66541L7.39309 6.29017H31.2582C35.1972 6.29017 38.4002 9.50362 38.4002 13.454V18.47C38.4002 19.5926 37.5109 20.5 36.4108 20.5C35.3106 20.5 34.4214 19.5926 34.4214 18.47V13.454C34.4214 11.7427 33.0029 10.3501 31.2582 10.3501L7.39309 10.3501L9.96541 12.9749C10.7433 13.7686 10.7433 15.0515 9.96541 15.8453Z" fill="#70C818"/>
</svg>
