<svg width="25" height="25" viewBox="0 0 25 25" fill="none" xmlns="http://www.w3.org/2000/svg">
<path fill-rule="evenodd" clip-rule="evenodd" d="M7.49996 8.75014C7.49996 8.06264 8.06246 7.50014 8.74996 7.50014C9.43746 7.50014 9.99996 8.06264 9.99996 8.75014V16.2501C9.99996 16.9376 9.43746 17.5001 8.74996 17.5001C8.06246 17.5001 7.49996 16.9376 7.49996 16.2501V8.75014ZM15.0006 8.75029C15.0006 8.06279 15.5631 7.50029 16.2506 7.50029C16.9381 7.50029 17.5006 8.06279 17.5006 8.75029V16.2503C17.5006 16.9378 16.9381 17.5003 16.2506 17.5003C15.5631 17.5003 15.0006 16.9378 15.0006 16.2503V8.75029ZM12.5 22.5003C6.98627 22.5003 2.50002 18.014 2.50002 12.5003C2.50002 6.98654 6.98627 2.50029 12.5 2.50029C18.0138 2.50029 22.5 6.98654 22.5 12.5003C22.5 18.014 18.0138 22.5003 12.5 22.5003M12.5 0C5.6075 0 0 5.6075 0 12.5C0 19.3925 5.6075 25 12.5 25C19.3925 25 25 19.3925 25 12.5C25 5.6075 19.3925 0 12.5 0" fill="#323232"/>
</svg>
