<svg width="21" height="20" viewBox="0 0 21 20" fill="none" xmlns="http://www.w3.org/2000/svg">
<path fill-rule="evenodd" clip-rule="evenodd" d="M16.3404 19.9996C16.1734 19.9996 16.0064 19.9606 15.8542 19.8804L10.5 17.0696L5.14581 19.8804C4.79089 20.0661 4.36247 20.0334 4.04221 19.7971C3.71879 19.5607 3.55814 19.1608 3.62534 18.7652L4.64598 12.827L0.319789 8.62238C0.0310256 8.34277 -0.0718791 7.92284 0.0509765 7.53983C0.172782 7.15683 0.502497 6.87828 0.898365 6.82024L6.88469 5.94661L9.55916 0.538107C9.91407 -0.179369 11.0859 -0.179369 11.4408 0.538107L14.1153 5.94661L20.1016 6.82024C20.4975 6.87828 20.8272 7.15683 20.949 7.53983C21.0719 7.92284 20.969 8.34277 20.6802 8.62238L16.354 12.827L17.3747 18.7652C17.4419 19.1608 17.2812 19.5607 16.9578 19.7971C16.7761 19.9321 16.5588 19.9996 16.3404 19.9996" fill="#FFC107"/>
</svg>
