<svg width="15" height="16" viewBox="0 0 15 16" fill="none" xmlns="http://www.w3.org/2000/svg">
<path fill-rule="evenodd" clip-rule="evenodd" d="M5.99999 11.0005C5.99999 11.413 5.66249 11.7505 5.24999 11.7505C4.83749 11.7505 4.49999 11.413 4.49999 11.0005V8.00049C4.49999 7.58799 4.83749 7.25049 5.24999 7.25049C5.66249 7.25049 5.99999 7.58799 5.99999 8.00049V11.0005ZM10.5 11.001C10.5 11.4135 10.1625 11.751 9.74998 11.751C9.33748 11.751 8.99998 11.4135 8.99998 11.001V8.00098C8.99998 7.58848 9.33748 7.25098 9.74998 7.25098C10.1625 7.25098 10.5 7.58848 10.5 8.00098V11.001ZM12 13.2503C12 13.6636 11.664 14.0003 11.25 14.0003H3.75001C3.336 14.0003 3.00001 13.6636 3.00001 13.2503V5.00033H12V13.2503ZM6.00001 2.24584C6.00001 2.12959 6.16051 1.99984 6.37501 1.99984H8.62501C8.83951 1.99984 9.00001 2.12959 9.00001 2.24584V3.49984H6.00001V2.24584ZM14.25 3.5H13.5H10.5V2.246C10.5 1.283 9.65925 0.5 8.625 0.5H6.375C5.34075 0.5 4.5 1.283 4.5 2.246V3.5H1.5H0.75C0.3375 3.5 0 3.8375 0 4.25C0 4.6625 0.3375 5 0.75 5H1.5V13.25C1.5 14.4905 2.5095 15.5 3.75 15.5H11.25C12.4905 15.5 13.5 14.4905 13.5 13.25V5H14.25C14.6625 5 15 4.6625 15 4.25C15 3.8375 14.6625 3.5 14.25 3.5Z" fill="#FF6181"/>
</svg>
