<svg width="552" height="571" viewBox="0 0 552 571" fill="none" xmlns="http://www.w3.org/2000/svg">
<circle cx="150.5" cy="165.5" r="150.5" fill="#9468B4" fill-opacity="0.05"/>
<circle cx="434" cy="143" r="71" fill="#9468B4" fill-opacity="0.05"/>
<circle cx="248.5" cy="463.5" r="97.5" fill="#9468B4" fill-opacity="0.05"/>
<circle cx="420" cy="533" r="38" fill="#9468B4" fill-opacity="0.05"/>
<path d="M189.466 181.267C186.414 176.689 181.727 174.073 174.533 174.073C157.529 174.073 154.586 188.788 154.041 208.953C164.178 197.617 176.059 188.025 189.466 181.267Z" fill="#3FDDC7"/>
<path d="M161.562 219.853C170.5 209.171 180.746 197.726 193.281 190.968C192.518 187.698 191.537 184.755 190.12 182.357C187.722 183.556 185.324 184.864 183.035 186.172C172.135 192.712 162.434 201.105 153.932 210.588C153.823 214.294 153.823 218.218 153.823 222.251C153.823 224.322 153.932 226.393 154.15 228.464C156.766 225.63 159.164 222.796 161.562 219.853Z" fill="#EBD800"/>
<path d="M179.329 202.849C171.808 209.716 165.159 217.564 158.728 225.412C157.311 227.047 156.003 228.791 154.586 230.426C158.074 253.207 174.533 270.647 174.533 270.647C174.533 270.647 195.134 249.065 195.134 222.36C195.134 211.024 195.134 200.56 193.499 192.385C188.485 195.219 183.689 198.925 179.329 202.849Z" fill="#3FDDC7"/>
<path d="M223.256 251.027C204.399 269.884 174.533 270.647 174.533 270.647C174.533 270.647 175.296 240.781 194.153 221.924C213.01 203.067 242.876 202.304 242.876 202.304C242.876 202.304 242.113 232.17 223.256 251.027Z" fill="#6276EF"/>
<path d="M154.913 221.924C173.77 240.781 174.533 270.647 174.533 270.647C174.533 270.647 144.667 269.884 125.81 251.027C106.953 232.17 106.19 202.304 106.19 202.304C106.19 202.304 136.056 203.067 154.913 221.924Z" fill="#6276EF"/>
<path d="M130.17 278.041H133.951V295.198H144.594V298.397H130.17V278.041ZM156.719 298.688C154.644 298.688 152.773 298.242 151.106 297.35C149.439 296.439 148.13 295.188 147.18 293.599C146.23 291.99 145.755 290.196 145.755 288.219C145.755 286.241 146.23 284.458 147.18 282.868C148.13 281.259 149.439 280.009 151.106 279.117C152.773 278.206 154.644 277.75 156.719 277.75C158.793 277.75 160.664 278.206 162.331 279.117C163.998 280.009 165.307 281.249 166.257 282.839C167.207 284.429 167.682 286.222 167.682 288.219C167.682 290.216 167.207 292.009 166.257 293.599C165.307 295.188 163.998 296.439 162.331 297.35C160.664 298.242 158.793 298.688 156.719 298.688ZM156.719 295.373C158.076 295.373 159.297 295.072 160.383 294.471C161.468 293.851 162.321 292.998 162.942 291.912C163.562 290.807 163.872 289.576 163.872 288.219C163.872 286.862 163.562 285.64 162.942 284.555C162.321 283.45 161.468 282.597 160.383 281.996C159.297 281.375 158.076 281.065 156.719 281.065C155.361 281.065 154.14 281.375 153.054 281.996C151.969 282.597 151.116 283.45 150.495 284.555C149.875 285.64 149.565 286.862 149.565 288.219C149.565 289.576 149.875 290.807 150.495 291.912C151.116 292.998 151.969 293.851 153.054 294.471C154.14 295.072 155.361 295.373 156.719 295.373ZM185.589 287.986H189.166V296.1C188.119 296.933 186.898 297.573 185.502 298.019C184.106 298.465 182.672 298.688 181.198 298.688C179.124 298.688 177.253 298.242 175.586 297.35C173.919 296.439 172.61 295.188 171.66 293.599C170.71 292.009 170.235 290.216 170.235 288.219C170.235 286.222 170.71 284.429 171.66 282.839C172.61 281.249 173.919 280.009 175.586 279.117C177.272 278.206 179.163 277.75 181.256 277.75C182.962 277.75 184.513 278.031 185.909 278.593C187.305 279.156 188.478 279.979 189.428 281.065L187.043 283.392C185.492 281.841 183.622 281.065 181.431 281.065C179.996 281.065 178.717 281.366 177.592 281.967C176.487 282.568 175.615 283.411 174.975 284.497C174.355 285.582 174.045 286.823 174.045 288.219C174.045 289.576 174.355 290.797 174.975 291.883C175.615 292.969 176.487 293.822 177.592 294.442C178.717 295.062 179.987 295.373 181.402 295.373C182.992 295.373 184.387 295.024 185.589 294.326V287.986ZM203.662 298.688C201.587 298.688 199.716 298.242 198.049 297.35C196.382 296.439 195.073 295.188 194.123 293.599C193.173 291.99 192.698 290.196 192.698 288.219C192.698 286.241 193.173 284.458 194.123 282.868C195.073 281.259 196.382 280.009 198.049 279.117C199.716 278.206 201.587 277.75 203.662 277.75C205.736 277.75 207.607 278.206 209.274 279.117C210.941 280.009 212.25 281.249 213.2 282.839C214.15 284.429 214.625 286.222 214.625 288.219C214.625 290.216 214.15 292.009 213.2 293.599C212.25 295.188 210.941 296.439 209.274 297.35C207.607 298.242 205.736 298.688 203.662 298.688ZM203.662 295.373C205.019 295.373 206.24 295.072 207.326 294.471C208.411 293.851 209.264 292.998 209.885 291.912C210.505 290.807 210.815 289.576 210.815 288.219C210.815 286.862 210.505 285.64 209.885 284.555C209.264 283.45 208.411 282.597 207.326 281.996C206.24 281.375 205.019 281.065 203.662 281.065C202.305 281.065 201.083 281.375 199.998 281.996C198.912 282.597 198.059 283.45 197.438 284.555C196.818 285.64 196.508 286.862 196.508 288.219C196.508 289.576 196.818 290.807 197.438 291.912C198.059 292.998 198.912 293.851 199.998 294.471C201.083 295.072 202.305 295.373 203.662 295.373Z" fill="#6276EF"/>
<path opacity="0.15" d="M7 473.824H258.027C258.027 473.824 271.761 435.238 258.027 416.054C237.644 387.605 182.926 394.69 174.533 374.089C166.249 353.597 156.657 330.053 135.947 329.399C115.237 328.745 98.015 392.945 83.3 401.557C68.585 410.168 57.358 391.093 29.563 408.751C7.327 422.812 7 473.824 7 473.824Z" fill="url(#paint0_linear)"/>
<path opacity="0.15" d="M294.869 473.824H545.896C545.896 473.824 559.63 435.238 545.896 416.054C525.513 387.605 470.795 394.69 462.402 374.089C454.118 353.597 444.526 330.053 423.816 329.399C403.106 328.745 385.884 392.945 371.169 401.557C356.454 410.168 345.227 391.093 317.432 408.751C295.305 422.812 294.869 473.824 294.869 473.824Z" fill="url(#paint1_linear)"/>
<path d="M528.347 473.932C524.968 459.217 521.807 405.916 497.936 401.229C471.449 395.997 470.795 429.678 449.104 427.171C418.584 423.574 419.02 452.895 408.011 449.952C363.212 437.744 325.825 473.932 325.825 473.932H528.347Z" fill="#3FDDC7"/>
<path d="M469.16 473.932C469.16 473.932 465.345 445.265 445.289 441.559C425.233 437.853 436.46 393.381 405.94 396.215C375.42 399.049 365.174 459.871 304.134 474.041" stroke="#4D61BC" stroke-width="1.2251" stroke-miterlimit="10"/>
<path d="M405.395 473.823L422.399 404.826C423.598 400.139 428.067 396.978 432.863 397.523C437.986 398.068 441.692 402.537 441.474 407.66L437.441 473.932L405.395 473.823Z" fill="#4D61BC"/>
<path d="M432.1 404.5L420.437 473.824" stroke="#3FDDC7" stroke-width="1.2251" stroke-miterlimit="10"/>
<path d="M422.944 418.561C422.944 418.561 423.162 425.864 427.74 430.224" stroke="#3FDDC7" stroke-width="1.2251" stroke-miterlimit="10"/>
<path d="M436.352 439.598C436.352 439.598 431.774 448.1 425.234 447.337" stroke="#3FDDC7" stroke-width="1.2251" stroke-miterlimit="10"/>
<path d="M414.115 453.658C414.115 453.658 415.641 460.743 422.072 463.795" stroke="#3FDDC7" stroke-width="1.2251" stroke-miterlimit="10"/>
<path d="M437.55 410.167C437.55 410.167 435.806 416.707 430.792 415.072" stroke="#3FDDC7" stroke-width="1.2251" stroke-miterlimit="10"/>
<path d="M483.657 473.823C483.657 473.823 487.036 459.762 497.609 454.748C509.49 449.189 506.547 431.204 520.172 433.493C530.745 435.237 533.906 473.714 533.906 473.714H483.657V473.823Z" fill="#4D61BC"/>
<path d="M236.336 473.932H60.0833C60.0833 473.932 66.6233 435.455 105.427 443.739C119.27 446.682 114.91 384.661 153.278 389.239C180.419 392.4 173.443 440.796 193.717 446.355C213.991 451.914 232.085 455.511 236.336 473.932Z" fill="#4D61BC"/>
<path d="M215.081 473.933C215.081 473.933 217.479 447.882 191.21 443.086C164.941 438.29 169.846 385.643 129.843 389.24C89.8399 392.837 60.301 463.033 12.45 473.933" stroke="#3FDDC7" stroke-width="1.2251" stroke-miterlimit="10"/>
<path d="M158.183 473.933L149.79 409.405C149.245 404.936 145.43 401.666 140.961 401.666C136.274 401.666 132.35 405.372 132.132 410.059L128.644 473.933H158.183Z" fill="#3FDDC7"/>
<path d="M140.96 408.097L144.557 473.933" stroke="#2D21A7" stroke-width="1.2251" stroke-miterlimit="10"/>
<path d="M147.828 421.831C147.828 421.831 146.847 428.48 142.269 431.968" stroke="#2D21A7" stroke-width="1.2251" stroke-miterlimit="10"/>
<path d="M133.549 439.707C133.549 439.707 136.819 447.882 142.814 447.882" stroke="#2D21A7" stroke-width="1.2251" stroke-miterlimit="10"/>
<path d="M152.296 454.749C152.296 454.749 150.225 461.071 144.012 463.142" stroke="#2D21A7" stroke-width="1.2251" stroke-miterlimit="10"/>
<path d="M135.402 412.674C135.402 412.674 136.383 418.778 141.07 417.797" stroke="#2D21A7" stroke-width="1.2251" stroke-miterlimit="10"/>
<path d="M50.6002 473.932C50.6002 473.932 48.0932 447.554 60.4102 447.445C70.2202 447.336 75.1252 467.501 75.1252 467.501C75.1252 467.501 82.9732 461.942 90.4942 464.885C97.9062 467.719 98.7782 473.823 98.7782 473.823H50.6002V473.932Z" fill="#3FDDC7"/>
<path d="M181.182 473.933C181.182 473.933 178.457 444.721 192.082 444.721C202.982 444.612 208.323 466.957 208.323 466.957C208.323 466.957 217.043 460.853 225.218 464.014C233.393 467.175 234.374 473.933 234.374 473.933H181.182Z" fill="#3FDDC7"/>
<path d="M191.537 451.479L198.077 473.933" stroke="#4D61BC" stroke-width="1.2251" stroke-miterlimit="10"/>
<path d="M377.382 62.4575V142.355" stroke="#2D21A7" stroke-width="3.6752" stroke-miterlimit="10"/>
<path d="M432.286 115.121V123.918H389.914V67.4219H431.156V76.2193H400.406V90.9084H427.686V99.5442H400.406V115.121H432.286Z" fill="#6276EF"/>
<path d="M500.77 210.371H407.575V303.566H500.77V210.371Z" stroke="#6276EF" stroke-width="1.2251" stroke-miterlimit="10"/>
<path d="M490.633 220.507H417.821V293.319H490.633V220.507Z" fill="#3FDDC7"/>
<path d="M417.821 293.319H490.633V256.042L458.478 277.296L437.005 265.307L417.821 283.4V293.319Z" fill="#4D61BC"/>
<path d="M457.606 264.108C463.866 264.108 468.942 259.032 468.942 252.772C468.942 246.511 463.866 241.436 457.606 241.436C451.345 241.436 446.27 246.511 446.27 252.772C446.27 259.032 451.345 264.108 457.606 264.108Z" fill="#EBD800"/>
<path d="M199.712 67.4712H168.647V98.5362H199.712V67.4712Z" fill="#EBD800"/>
<path d="M230.777 67.4712H199.712V98.5362H230.777V67.4712Z" fill="#3FDDC7"/>
<path d="M261.842 67.4712H230.777V98.5362H261.842V67.4712Z" fill="#E75526"/>
<path d="M292.907 67.4712H261.842V98.5362H292.907V67.4712Z" fill="#ED8CB1"/>
<path d="M179.765 92.8685C179.765 102.897 171.59 111.072 161.562 111.072C151.534 111.072 143.359 102.897 143.359 92.8685C143.359 82.8405 161.562 52.1025 161.562 52.1025C161.562 52.1025 179.765 82.8405 179.765 92.8685Z" fill="#6276EF"/>
<path d="M288.111 181.922C287.893 182.14 284.078 199.144 286.476 201.324C288.874 203.504 295.087 202.196 301.082 201.76L302.172 181.922H288.111Z" fill="#404261"/>
<path d="M287.784 276.861C287.784 276.861 298.684 278.605 307.84 278.605C316.996 278.605 331.275 275.662 331.275 275.662C331.275 275.662 349.587 304.111 362.558 352.834C374.875 399.159 385.666 467.393 380.87 476.658C376.292 485.378 297.594 485.16 315.688 485.378C318.304 485.378 250.833 482.98 252.141 473.933C252.141 473.933 259.88 384.662 267.292 349.019C274.268 314.793 287.784 276.861 287.784 276.861Z" fill="#404261"/>
<path d="M298.575 187.59C298.575 187.59 299.12 197.291 295.305 200.125C291.49 202.959 276.993 211.352 276.993 211.352C276.993 211.352 301.191 214.622 311.982 213.641C322.773 212.66 338.469 209.826 338.469 209.826C338.469 209.826 330.839 204.921 322.555 200.561C314.489 196.201 309.693 157.724 309.693 157.724L298.575 187.59Z" fill="white"/>
<path d="M370.188 322.641C370.188 322.641 371.496 326.892 372.477 329.399C373.567 331.906 377.491 333.105 380.216 331.579C382.941 330.162 383.05 326.238 380.652 323.731C378.254 321.224 373.785 318.935 373.785 318.935L370.188 322.641Z" fill="white"/>
<path d="M306.423 166.007C308.276 177.343 307.731 190.096 297.158 197.726L298.684 183.011L306.423 166.007Z" fill="white"/>
<path d="M303.154 177.125C304.353 184.537 303.917 192.821 297.05 197.835L298.031 188.244L303.154 177.125Z" fill="#EE7557"/>
<path d="M375.856 320.569C375.856 320.569 362.449 272.718 353.729 243.942C348.715 245.577 344.464 245.904 339.668 247.43C349.369 278.059 366.591 318.934 370.515 323.73C371.169 324.602 371.714 324.929 372.695 324.384L374.875 323.403C376.183 322.858 376.51 321.768 375.856 320.569Z" fill="white"/>
<path d="M204.618 199.035C204.618 199.035 202.765 194.675 201.457 192.277C200.149 189.77 195.789 189.007 193.064 190.86C190.339 192.604 190.666 196.746 193.391 199.144C196.116 201.433 201.021 203.395 201.021 203.395L204.618 199.035Z" fill="white"/>
<path d="M240.152 227.702L204.291 198.054C203.419 197.182 202.983 197.836 202.002 198.599L200.803 199.907C199.931 200.67 199.713 202.087 200.367 203.068C200.367 203.068 230.669 238.929 233.285 240.673C237.645 243.507 241.351 243.071 245.711 241.763L264.35 233.479C260.971 228.792 258.464 219.963 258.464 219.963L240.152 227.702Z" fill="white"/>
<path d="M348.062 220.507C344.465 212.441 341.631 207.209 331.93 205.247C331.167 205.138 324.736 211.678 302.936 211.896C288.766 212.114 288.657 204.484 282.226 207.427C279.174 208.844 270.018 212.005 259.336 216.801C258.464 217.237 257.919 218.218 258.137 219.199C259.336 225.085 261.625 230.535 264.786 235.222C265.331 236.094 266.421 236.421 267.402 235.985L282.989 229.445C282.989 229.445 282.335 242.961 282.226 249.61C282.117 260.074 280.591 274.135 287.785 276.86C287.785 276.86 298.358 279.694 307.95 279.694C317.542 279.694 331.276 275.661 331.276 275.661C338.688 274.026 334.001 255.387 334.219 235.004C335.418 239.582 336.617 242.525 338.034 246.885C338.361 247.975 339.56 248.629 340.65 248.302C344.901 247.103 349.915 246.122 354.384 244.923C355.583 244.596 356.237 243.397 355.91 242.198C351.223 227.592 349.152 223.123 348.062 220.507Z" fill="#E75526"/>
<path d="M285.604 187.154L306.532 188.244C307.622 188.353 308.603 187.48 308.603 186.39L305.115 155.434C305.224 154.344 302.935 153.254 301.845 153.254L288.22 154.344C287.13 154.235 284.95 161.429 284.95 162.519L283.751 185.082C283.642 186.172 284.514 187.154 285.604 187.154Z" fill="white"/>
<path d="M290.073 157.615C290.073 157.615 300.537 170.041 306.423 169.823C306.423 169.823 307.622 197.618 310.456 200.452C313.29 203.286 330.621 202.087 332.147 198.817C333.673 195.438 331.166 161.321 311.873 150.094C304.134 145.516 283.424 143.336 284.732 162.956C284.841 162.847 287.893 160.449 290.073 157.615Z" fill="#404261"/>
<path d="M290.074 149.44C285.932 151.729 279.392 160.122 284.624 166.989L285.931 159.577L290.074 149.44Z" fill="#404261"/>
<path d="M283.86 255.715C283.86 255.715 300.755 259.094 332.583 254.516" stroke="white" stroke-width="1.2251" stroke-miterlimit="10" stroke-linecap="round" stroke-linejoin="round"/>
<path d="M283.86 262.582C283.86 262.582 304.134 267.814 332.583 261.165" stroke="white" stroke-width="1.2251" stroke-miterlimit="10" stroke-linecap="round" stroke-linejoin="round"/>
<path d="M308.712 178.542C309.494 178.542 310.129 177.908 310.129 177.125C310.129 176.343 309.494 175.708 308.712 175.708C307.929 175.708 307.295 176.343 307.295 177.125C307.295 177.908 307.929 178.542 308.712 178.542Z" fill="#EBD800"/>
<path d="M253.994 157.614H92.6736V318.934H253.994V157.614Z" stroke="#2D21A7" stroke-width="1.2251" stroke-miterlimit="10"/>
<path d="M98.6689 311.958H86.0249V324.603H98.6689V311.958Z" fill="#6276EF"/>
<path d="M259.989 311.958H247.345V324.603H259.989V311.958Z" fill="#6276EF"/>
<path d="M98.6694 151.292H86.0254V163.936H98.6694V151.292Z" fill="#6276EF"/>
<path d="M259.989 151.292H247.345V163.936H259.989V151.292Z" fill="#6276EF"/>
<path opacity="0.15" d="M33.2686 136.686H152.079C152.079 136.686 150.444 112.052 124.611 119.028C124.611 119.028 125.156 103.768 110.441 102.024C99.2136 100.716 94.1996 114.123 94.1996 114.123C94.1996 114.123 92.6735 87.9633 68.2575 93.1953C55.2866 95.9203 55.2866 116.957 55.2866 116.957C55.2866 116.957 35.7756 121.426 33.2686 136.686Z" fill="url(#paint2_linear)"/>
<path opacity="0.15" d="M238.734 42.8374H370.733C370.733 42.8374 366.7 24.3074 345.881 24.3074C345.881 24.3074 345.227 0.218414 315.579 0.000413575C297.703 -0.108586 290.4 21.3644 290.4 21.3644C290.4 21.3644 275.576 13.7344 265.439 16.8954C255.302 20.0564 256.937 32.8094 256.937 32.8094C256.937 32.8094 237.535 30.1934 238.734 42.8374Z" fill="url(#paint3_linear)"/>
<path opacity="0.15" d="M378.254 190.205H504.803C504.803 190.205 496.192 168.732 471.885 178.215C471.885 178.215 473.738 163.5 459.568 160.993C448.232 159.031 444.526 168.95 444.526 168.95C444.526 168.95 434.062 152.709 422.726 158.704C414.115 163.173 414.115 174.727 414.115 174.727C414.115 174.727 382.178 177.888 378.254 190.205Z" fill="url(#paint4_linear)"/>
<defs>
<linearGradient id="paint0_linear" x1="7" y1="401.635" x2="264.102" y2="401.635" gradientUnits="userSpaceOnUse">
<stop stop-color="white"/>
<stop offset="1" stop-color="#C3CAF4"/>
</linearGradient>
<linearGradient id="paint1_linear" x1="294.897" y1="401.635" x2="552" y2="401.635" gradientUnits="userSpaceOnUse">
<stop stop-color="white"/>
<stop offset="1" stop-color="#C3CAF4"/>
</linearGradient>
<linearGradient id="paint2_linear" x1="33.2695" y1="114.639" x2="152.123" y2="114.639" gradientUnits="userSpaceOnUse">
<stop stop-color="white"/>
<stop offset="1" stop-color="#C3CAF4"/>
</linearGradient>
<linearGradient id="paint3_linear" x1="238.693" y1="21.4587" x2="370.736" y2="21.4587" gradientUnits="userSpaceOnUse">
<stop stop-color="white"/>
<stop offset="1" stop-color="#C3CAF4"/>
</linearGradient>
<linearGradient id="paint4_linear" x1="378.211" y1="173.816" x2="504.785" y2="173.816" gradientUnits="userSpaceOnUse">
<stop stop-color="white"/>
<stop offset="1" stop-color="#C3CAF4"/>
</linearGradient>
</defs>
</svg>
