<svg width="508" height="352" viewBox="0 0 508 352" fill="none" xmlns="http://www.w3.org/2000/svg">
<g clip-path="url(#clip0)">
<path opacity="0.26" d="M255.265 352.11C385.975 352.11 491.936 336.941 491.936 318.23C491.936 299.518 385.975 284.35 255.265 284.35C124.556 284.35 18.5947 299.518 18.5947 318.23C18.5947 336.941 124.556 352.11 255.265 352.11Z" fill="#C3B7FC"/>
<path d="M463.439 106.04C463.439 107.47 463.328 108.9 463.328 110.33C462.888 119.9 461.238 129.47 458.597 138.82C458.157 140.36 457.717 141.9 457.277 143.44C454.416 152.35 450.675 161.04 446.164 169.29C445.394 170.72 444.514 172.26 443.633 173.69C438.132 182.93 431.75 191.51 424.489 199.43C423.278 200.75 422.068 202.07 420.748 203.28C411.175 212.85 400.392 220.99 388.729 227.37C386.639 228.47 384.548 229.57 382.348 230.56C379.927 231.77 377.397 232.76 374.866 233.75C371.675 234.96 366.504 237.16 362.213 237.16C360.782 237.16 359.462 236.94 358.362 236.39C358.142 236.28 357.922 236.17 357.701 235.95C351.54 231.77 354.731 216.26 355.831 209.88C356.271 207.57 356.711 205.37 357.151 203.17C357.811 200.53 358.472 197.78 359.242 195.14C361.662 187 364.743 179.08 368.374 171.49C369.254 169.73 370.135 167.86 371.015 166.1C371.015 165.99 371.125 165.99 371.125 165.88C375.196 158.07 379.707 150.37 384.548 143C385.429 141.57 386.419 140.25 387.299 138.82C390.38 134.2 393.571 129.69 396.871 125.18C398.082 123.53 399.182 121.99 400.392 120.45C401.273 119.24 402.153 118.03 403.033 116.82C408.094 110 413.046 103.18 417.777 96.1401C418.657 94.9301 419.427 93.6101 420.197 92.4001C421.518 90.4201 422.728 88.5501 423.938 86.5701C426.799 81.9501 429.55 77.1101 431.97 72.2701C432.741 70.8401 433.511 69.3001 434.171 67.8701C434.611 66.8801 435.051 65.8901 435.491 64.9001C436.482 62.8101 440.773 54.3401 442.863 48.1801C442.973 47.7401 443.303 47.4101 443.523 47.0801C444.624 46.0901 446.604 46.2001 447.484 47.6301C452.546 55.8801 456.397 64.5701 458.927 73.3701C459.367 74.6901 459.698 76.1201 460.028 77.4401C462.558 86.9001 463.549 96.4701 463.439 106.04Z" fill="#ECBF4C"/>
<path d="M436.152 116.93C445.284 113.3 454.306 109.67 463.439 106.04C463.439 107.47 463.329 108.9 463.329 110.33C453.646 114.18 443.854 118.14 434.171 121.99C430.1 131.45 425.369 140.58 419.977 149.49C421.518 149.16 423.058 148.83 424.599 148.5C427.899 147.73 431.09 146.96 434.391 146.19C442.533 144.1 450.675 141.68 458.597 138.93C458.157 140.47 457.717 142.01 457.277 143.55C455.407 144.21 453.426 144.76 451.556 145.42C444.624 147.62 437.582 149.6 430.43 151.25C426.909 152.13 423.388 152.9 419.977 153.56C419.097 153.78 418.217 154 417.227 154.11C412.606 161.48 407.544 168.74 402.263 175.67C402.153 175.89 401.933 176 401.823 176.22C416.677 174.24 431.42 171.93 446.164 169.29C445.394 170.72 444.514 172.26 443.634 173.69C428.67 176.22 413.596 178.53 398.412 180.62C393.241 187.22 387.959 193.6 382.898 200.31C396.762 199.54 410.515 199.21 424.379 199.43C423.168 200.75 421.958 202.07 420.638 203.28C406.994 203.17 393.461 203.5 379.927 204.27C376.736 208.67 373.876 213.07 371.235 217.8C370.025 220 368.924 222.09 367.824 224.4C369.254 224.73 370.795 224.84 372.225 225.17C377.727 226.05 383.228 226.82 388.729 227.37C386.639 228.47 384.548 229.57 382.348 230.56C377.727 230.01 373.215 229.35 368.594 228.58C367.714 228.47 366.834 228.25 366.064 228.03C364.633 231 363.423 234.08 362.213 237.27C360.782 237.27 359.462 237.05 358.362 236.5C359.792 232.87 361.222 229.35 362.873 225.83C362.653 225.5 362.543 225.06 362.323 224.62C361.332 221.1 360.562 217.47 359.682 213.95C358.802 210.43 358.032 206.91 357.151 203.39C357.812 200.75 358.472 198 359.242 195.36C360.562 200.75 361.773 206.03 363.093 211.42C363.863 214.5 364.523 217.58 365.293 220.66C366.724 217.8 368.374 214.94 370.025 212.08C372.005 208.89 374.096 205.81 376.186 202.73C373.546 192.39 370.905 182.05 368.264 171.71C369.144 169.95 370.025 168.08 370.905 166.32C373.656 177.1 376.406 187.88 379.157 198.66C384.218 191.84 389.61 185.35 394.891 178.75C391.59 166.87 388.179 154.99 384.438 143.33C385.319 141.9 386.309 140.58 387.189 139.15C391.04 151.03 394.561 162.91 397.862 174.9C398.962 173.47 399.952 172.15 401.053 170.72C405.454 164.78 409.635 158.62 413.596 152.35C413.376 151.91 413.266 151.47 413.046 151.03C409.305 140.69 405.014 130.57 400.172 120.67C401.053 119.46 401.933 118.25 402.813 117.04C404.904 121.33 406.994 125.73 408.865 130.13C411.505 136.07 413.816 142.12 416.126 148.17C420.087 141.68 423.718 134.97 427.019 128.15C428.12 125.95 429.11 123.64 430.1 121.33C426.029 112.97 421.848 104.61 417.557 96.3598C418.437 95.1498 419.207 93.8298 419.977 92.6198C424.159 100.54 428.12 108.57 432.081 116.6C435.491 107.91 438.352 98.9998 440.443 89.8698C440.223 89.6498 440.003 89.5398 439.893 89.2098C437.252 83.5998 434.501 77.9898 431.86 72.3798C432.631 70.9498 433.401 69.4098 434.061 67.9798C436.592 73.2598 439.122 78.5398 441.653 83.8198C443.854 71.7198 444.624 59.5098 443.523 47.2998C444.624 46.3098 446.604 46.4198 447.485 47.8498C448.365 59.6198 447.705 71.6098 445.724 83.2698C450.235 80.1898 454.636 76.9998 458.927 73.5898C459.368 74.9098 459.698 76.3398 460.028 77.6598C454.966 81.5098 449.905 85.1398 444.624 88.6598C442.753 98.2298 439.893 107.8 436.152 116.93Z" fill="#E58F31"/>
<path d="M488.965 159.171C488.525 160.161 488.085 161.041 487.645 162.031C484.564 168.411 480.603 174.461 476.092 180.071C475.321 180.951 474.551 181.941 473.781 182.821C469.27 188.101 464.209 192.831 458.707 197.231C457.717 198.001 456.727 198.771 455.736 199.541C449.355 204.271 442.423 208.231 435.161 211.421C433.951 211.971 432.741 212.521 431.53 212.961C422.288 216.701 412.495 219.121 402.703 220.001C400.942 220.111 399.182 220.221 397.422 220.331C395.441 220.441 393.351 220.441 391.37 220.331C388.839 220.221 384.658 220.221 381.798 219.011C380.807 218.571 380.037 218.021 379.377 217.361C379.267 217.251 379.157 217.031 379.047 216.921C376.076 212.301 382.788 202.621 385.318 198.661C386.199 197.231 387.189 195.801 388.179 194.481C389.389 192.831 390.6 191.181 391.92 189.641C395.881 184.801 400.282 180.291 405.014 176.221C406.114 175.231 407.214 174.241 408.424 173.361L408.534 173.251C413.596 169.071 418.877 165.221 424.268 161.591C425.259 160.931 426.359 160.271 427.349 159.501C430.76 157.301 434.281 155.101 437.802 153.011C439.012 152.241 440.333 151.471 441.543 150.811C442.533 150.261 443.413 149.711 444.404 149.161C449.795 145.971 455.186 142.781 460.468 139.371C461.348 138.821 462.338 138.161 463.218 137.501C464.649 136.511 466.079 135.521 467.509 134.531C470.81 132.221 474.001 129.691 477.192 127.161C478.182 126.391 479.062 125.621 479.943 124.741C480.493 124.191 481.153 123.641 481.703 123.201C483.023 121.991 488.415 117.481 491.606 113.961C491.826 113.741 492.156 113.521 492.376 113.411C493.476 113.081 494.686 113.631 494.906 114.951C496.007 122.101 496.007 129.031 495.237 135.851C495.127 136.841 495.017 137.941 494.796 138.931C493.916 145.971 491.826 152.681 488.965 159.171Z" fill="#C3B7FC"/>
<path d="M467.179 158.731C474.441 158.841 481.703 159.061 488.855 159.171C488.415 160.161 487.975 161.041 487.535 162.031C479.723 161.811 472.021 161.701 464.209 161.481C458.707 166.761 452.766 171.601 446.604 176.001C447.704 176.221 448.915 176.441 450.015 176.661C452.436 177.101 454.856 177.541 457.387 177.871C463.549 178.861 469.82 179.521 475.982 179.961C475.211 180.841 474.441 181.831 473.671 182.711C472.241 182.601 470.7 182.491 469.27 182.271C463.879 181.721 458.487 181.061 453.206 180.071C450.565 179.631 447.924 179.191 445.394 178.641C444.734 178.531 444.074 178.421 443.413 178.201C438.022 181.941 432.521 185.351 426.909 188.541C426.799 188.651 426.579 188.761 426.469 188.761C437.142 191.731 447.814 194.481 458.597 197.011C457.607 197.781 456.617 198.551 455.626 199.321C444.624 196.681 433.731 193.931 422.838 190.851C417.447 193.821 411.945 196.681 406.554 199.761C416.236 203.281 425.699 207.131 435.051 211.311C433.841 211.861 432.631 212.411 431.42 212.851C422.178 208.781 412.826 205.041 403.363 201.741C399.952 203.831 396.651 206.031 393.461 208.451C392.03 209.551 390.6 210.761 389.279 211.861C390.16 212.521 391.15 213.071 392.14 213.621C395.661 215.821 399.182 217.911 402.703 219.891C400.942 220.001 399.182 220.111 397.422 220.221C394.451 218.461 391.59 216.701 388.619 214.831C388.069 214.501 387.519 214.171 387.079 213.731C385.208 215.381 383.448 217.141 381.798 218.901C380.807 218.461 380.037 217.911 379.377 217.251C381.357 215.161 383.448 213.181 385.539 211.311C385.539 210.981 385.539 210.651 385.539 210.321C385.869 207.681 386.419 204.931 386.859 202.291C387.299 199.651 387.739 197.011 388.179 194.371C389.39 192.721 390.6 191.071 391.92 189.531C391.26 193.491 390.6 197.561 389.94 201.521C389.5 203.831 389.169 206.141 388.729 208.451C390.6 206.911 392.47 205.371 394.451 204.051C396.651 202.401 399.072 200.971 401.383 199.541C402.593 191.731 403.803 183.921 405.014 176.111C406.114 175.121 407.214 174.131 408.424 173.251C407.104 181.391 405.894 189.531 404.573 197.671C409.965 194.481 415.576 191.621 421.078 188.651C422.288 179.631 423.388 170.501 424.268 161.481C425.259 160.821 426.359 160.161 427.349 159.391C426.469 168.521 425.479 177.761 424.158 186.891C425.259 186.231 426.359 185.571 427.569 184.911C432.301 182.161 436.922 179.191 441.433 176.001C441.433 175.671 441.433 175.341 441.433 175.011C441.873 166.871 441.873 158.731 441.543 150.591C442.533 150.041 443.413 149.491 444.404 148.941C444.624 152.461 444.734 156.091 444.734 159.611C444.734 164.451 444.624 169.181 444.404 174.021C449.025 170.721 453.426 167.311 457.607 163.571C459.037 162.361 460.358 161.151 461.678 159.831C461.348 152.901 460.908 146.081 460.468 139.151C461.348 138.601 462.338 137.941 463.218 137.281C463.769 143.881 464.099 150.481 464.429 157.081C469.27 152.241 473.781 146.961 477.852 141.351C477.742 141.131 477.742 141.021 477.742 140.801C477.522 136.181 477.302 131.561 477.192 127.051C478.182 126.281 479.062 125.511 479.943 124.631C480.163 128.921 480.273 133.321 480.493 137.611C485.554 130.021 489.625 121.881 492.486 113.301C493.586 112.971 494.796 113.521 495.017 114.841C492.156 123.201 488.305 131.011 483.464 138.491C487.425 137.721 491.386 136.731 495.347 135.741C495.237 136.731 495.127 137.831 494.907 138.821C490.395 139.921 485.774 140.911 481.263 141.791C477.192 147.951 472.351 153.561 467.179 158.731Z" fill="#A797FB"/>
<path d="M221.487 164.34L212.024 143L208.723 135.74C208.943 135.63 209.164 135.52 209.274 135.52C236.671 123.2 249.104 91.0797 236.891 63.6897L244.152 60.3897L265.498 50.9297C284.753 94.1597 265.278 144.76 222.147 164.12C221.817 164.23 221.597 164.34 221.487 164.34Z" fill="#A797FB"/>
<path d="M164.162 36.3L151.399 7.69998C151.619 7.58998 151.839 7.47998 151.949 7.47998C195.19 -11.88 245.913 7.58998 265.278 50.82L265.388 50.93L244.152 60.5L236.891 63.8C236.891 63.8 236.891 63.69 236.781 63.69C224.457 36.19 192.219 23.87 164.712 36.19C164.602 36.08 164.382 36.19 164.162 36.3Z" fill="#E08675"/>
<path d="M108.708 121L108.598 120.89C89.3428 77.8796 108.488 27.3896 151.289 7.80957L164.052 36.4096C136.985 48.8396 124.882 80.8496 137.095 108.13C137.095 108.13 137.095 108.24 137.205 108.24L108.708 121Z" fill="#ECBF4C"/>
<path d="M108.708 121L137.315 108.24C149.528 135.41 181.326 147.73 208.723 135.85L212.024 143.11L221.487 164.45C178.356 183.26 128.073 163.9 108.708 121Z" fill="#5F5EA5"/>
<path opacity="0.31" d="M211.914 143.11C211.914 143.11 212.024 143.11 212.024 143C212.134 142.89 212.354 142.89 212.464 142.78C243.932 128.7 258.016 91.8496 244.042 60.3896L243.932 60.2796C229.849 28.8196 192.879 14.6296 161.411 28.7096C161.301 28.8196 161.081 28.8196 160.971 28.9296L160.861 29.0396C129.723 43.3396 115.97 79.9696 129.943 111.32L130.053 111.43C144.137 142.67 180.556 156.75 211.914 143.11ZM137.315 108.24C137.315 108.24 137.315 108.13 137.205 108.13C124.992 80.8496 137.095 48.8396 164.162 36.4096C164.382 36.2996 164.602 36.1896 164.712 36.1896C192.219 23.8696 224.457 36.1896 236.781 63.6896C236.781 63.6896 236.781 63.7996 236.891 63.7996C249.104 91.2996 236.781 123.42 209.274 135.63C209.053 135.74 208.833 135.85 208.723 135.85C181.326 147.62 149.528 135.41 137.315 108.24Z" fill="#5F5EA5"/>
<path d="M325.133 302.169H230.509L234.91 274.559L238.761 250.359H316.991L320.842 274.559L325.133 302.169Z" fill="#DFDBFC"/>
<path d="M320.842 274.559H234.91L238.761 250.359H316.991L320.842 274.559Z" fill="#A797FB"/>
<path d="M413.266 91.0796V249.15C413.266 258.72 405.564 266.42 395.991 266.42H159.761C150.188 266.42 142.486 258.72 142.486 249.15V91.0796C142.486 81.5096 150.188 73.8096 159.761 73.8096H395.991C405.564 73.8096 413.266 81.6196 413.266 91.0796Z" fill="#DFDBFC"/>
<path d="M399.292 88.2197H157.34V232.21H399.292V88.2197Z" fill="#363271"/>
<path d="M413.266 226.93V249.15C413.266 258.72 405.564 266.42 395.991 266.42H159.761C150.188 266.42 142.486 258.72 142.486 249.15V226.93H413.266Z" fill="#C3B7FC"/>
<path d="M361.442 79.6396V226.93H196.84V79.6396H361.442Z" fill="white"/>
<path d="M361.442 66.6595V79.6395H196.84V66.6595C196.84 60.6095 201.681 55.7695 207.733 55.7695H350.55C356.491 55.7695 361.442 60.6095 361.442 66.6595Z" fill="#514E92"/>
<path d="M330.965 67.3192C330.965 70.7292 328.214 73.4792 324.803 73.4792C321.392 73.4792 318.641 70.7292 318.641 67.3192C318.641 63.9092 321.392 61.1592 324.803 61.1592C328.214 61.1592 330.965 63.9092 330.965 67.3192Z" fill="#ECBF4C"/>
<path d="M349.009 67.3192C349.009 70.7292 346.258 73.4792 342.848 73.4792C339.437 73.4792 336.686 70.7292 336.686 67.3192C336.686 63.9092 339.437 61.1592 342.848 61.1592C346.258 61.1592 349.009 63.9092 349.009 67.3192Z" fill="#DD6E5C"/>
<path d="M205.532 136.62C207.183 136.29 209.823 135.96 212.464 135.96C216.315 135.96 218.736 136.62 220.606 138.05C222.147 139.15 223.027 140.91 223.027 143.22C223.027 146.08 221.156 148.61 218.076 149.71V149.82C220.826 150.48 224.127 152.79 224.127 157.19C224.127 159.72 223.137 161.7 221.596 163.13C219.506 165 216.205 165.88 211.364 165.88C208.723 165.88 206.743 165.66 205.422 165.55V136.62H205.532ZM209.383 148.72H212.794C216.865 148.72 219.176 146.63 219.176 143.77C219.176 140.36 216.535 138.93 212.684 138.93C210.924 138.93 209.934 139.04 209.273 139.15V148.72H209.383ZM209.383 162.8C210.154 162.91 211.254 163.02 212.574 163.02C216.535 163.02 220.166 161.59 220.166 157.3C220.166 153.23 216.755 151.58 212.574 151.58H209.383V162.8Z" fill="#DFDBFC"/>
<path d="M235.35 116.159C237.111 115.829 239.641 115.609 242.062 115.609C245.803 115.609 248.223 116.269 249.874 117.809C251.194 119.019 251.964 120.889 251.964 122.979C251.964 126.499 249.764 128.919 246.903 129.909V130.019C248.994 130.789 250.204 132.659 250.864 135.409C251.744 139.149 252.404 141.789 252.955 142.779H249.324C248.884 142.009 248.333 139.699 247.563 136.289C246.793 132.549 245.363 131.119 242.172 131.009H238.871V142.669H235.35V116.159ZM238.761 128.479H242.282C246.023 128.479 248.333 126.389 248.333 123.309C248.333 119.789 245.803 118.359 242.172 118.249C240.521 118.249 239.311 118.359 238.761 118.579V128.479Z" fill="#DFDBFC"/>
<path d="M312.37 185.46V157.52H316.331L325.243 171.6C327.334 174.9 328.874 177.76 330.304 180.62H330.414C330.084 176.88 329.974 173.47 329.974 169.18V157.52H333.385V185.46H329.754L320.952 171.27C318.971 168.19 317.101 165 315.781 161.92H315.671C315.891 165.44 316.001 168.74 316.001 173.47V185.35H312.37V185.46Z" fill="#DFDBFC"/>
<path d="M334.265 125.399C336.686 125.069 339.547 124.739 342.628 124.739C348.349 124.739 352.31 126.059 355.061 128.589C357.811 131.119 359.352 134.639 359.352 139.589C359.352 144.539 357.811 148.719 354.951 151.469C352.09 154.329 347.359 155.869 341.417 155.869C338.556 155.869 336.246 155.759 334.265 155.539V125.399ZM338.226 152.459C339.217 152.679 340.647 152.679 342.187 152.679C350.66 152.679 355.281 147.949 355.281 139.699C355.281 132.439 351.21 127.929 342.848 127.929C340.757 127.929 339.217 128.149 338.226 128.369V152.459Z" fill="#DFDBFC"/>
<path d="M268.579 167.53L263.407 183.04H256.806L273.53 133.76H281.232L298.066 183.04H291.244L285.963 167.53H268.579ZM284.753 162.58L279.911 148.39C278.811 145.2 278.041 142.23 277.381 139.37H277.271C276.501 142.34 275.73 145.31 274.74 148.28L269.899 162.58H284.753Z" fill="#A797FB"/>
<path d="M314.68 188.98H248.223V125.51H314.68V188.98ZM250.094 187.11H312.92V127.27H250.094V187.11Z" fill="#5F5EA5"/>
<path d="M252.294 123.31H245.693V129.91H252.294V123.31Z" fill="#5F5EA5"/>
<path d="M284.753 123.31H278.151V129.91H284.753V123.31Z" fill="#5F5EA5"/>
<path d="M284.753 184.909H278.151V191.509H284.753V184.909Z" fill="#5F5EA5"/>
<path d="M252.294 184.579H245.693V191.179H252.294V184.579Z" fill="#5F5EA5"/>
<path d="M252.294 154.33H245.693V160.93H252.294V154.33Z" fill="#5F5EA5"/>
<path d="M317.211 154.33H310.609V160.93H317.211V154.33Z" fill="#5F5EA5"/>
<path d="M316.991 123.31H310.389V129.91H316.991V123.31Z" fill="#5F5EA5"/>
<path d="M316.991 184.579H310.389V191.179H316.991V184.579Z" fill="#5F5EA5"/>
<path d="M258.126 200.199H205.092V206.359H258.126V200.199Z" fill="#DFDBFC"/>
<path d="M258.126 211.199H205.092V217.359H258.126V211.199Z" fill="#DFDBFC"/>
<path d="M355.611 90.3096H302.577V96.4696H355.611V90.3096Z" fill="#DFDBFC"/>
<path d="M355.611 101.859H284.863V107.579H355.611V101.859Z" fill="#DFDBFC"/>
<path d="M332.615 297.22H221.927V307.45H332.615V297.22Z" fill="#C3B7FC"/>
<path d="M460.891 261.925C469.88 229.239 450.663 195.457 417.969 186.47C385.275 177.483 351.485 196.695 342.496 229.381C333.507 262.067 352.723 295.849 385.417 304.835C418.111 313.822 451.902 294.61 460.891 261.925Z" fill="#DD6E5C"/>
<path d="M448.039 254.147C452.734 228.572 435.801 204.034 410.22 199.341C384.638 194.648 360.094 211.576 355.4 237.151C350.705 262.726 367.638 287.264 393.219 291.957C418.801 296.65 443.345 279.722 448.039 254.147Z" fill="white"/>
<path d="M413.039 274.978C429.192 268.733 437.223 250.579 430.976 234.43C424.729 218.281 406.57 210.253 390.417 216.498C374.264 222.743 366.234 240.897 372.481 257.046C378.727 273.195 396.886 281.223 413.039 274.978Z" fill="#DD6E5C"/>
<path d="M401.909 261.573C410.659 261.461 417.661 254.279 417.549 245.531C417.436 236.784 410.252 229.784 401.503 229.896C392.753 230.009 385.751 237.191 385.864 245.938C385.976 254.685 393.16 261.685 401.909 261.573Z" fill="white"/>
<path d="M466.079 211.09L468.28 212.19L408.975 244.75L403.803 247.61L401.163 242.88L406.334 240.02L465.529 207.46L465.309 209.66C465.309 210.32 465.639 210.87 466.079 211.09Z" fill="#5F5EA5"/>
<path d="M483.354 212.74L477.192 216.15C476.752 216.37 476.312 216.37 475.982 216.15L468.39 212.19L466.189 211.09C465.749 210.87 465.419 210.32 465.529 209.77L465.749 207.57L466.629 198.99C466.629 198.55 466.96 198.22 467.29 198L473.451 194.59C473.121 194.81 472.791 195.14 472.791 195.58L471.911 204.16L471.691 206.36C471.581 206.91 471.911 207.46 472.351 207.68L474.551 208.78L482.143 212.74C482.473 212.96 482.914 212.96 483.354 212.74Z" fill="#5F5EA5"/>
<path d="M489.185 209.44L483.244 212.74C482.914 212.96 482.363 212.96 482.033 212.74L474.441 208.78L472.241 207.68C471.801 207.46 471.471 206.91 471.581 206.36L471.801 204.16L472.681 195.58C472.681 195.14 473.011 194.81 473.341 194.59L479.283 191.29C478.953 191.51 478.622 191.84 478.622 192.28L477.742 200.86L477.522 203.06C477.412 203.61 477.742 204.16 478.182 204.38L480.383 205.48L487.975 209.44C488.415 209.66 488.855 209.66 489.185 209.44Z" fill="#ECBF4C"/>
<path d="M494.907 206.36L489.185 209.44C488.855 209.66 488.305 209.66 487.975 209.44L480.383 205.48L478.182 204.38C477.742 204.16 477.412 203.61 477.522 203.06L477.742 200.86L478.622 192.28C478.622 191.84 478.953 191.51 479.283 191.29L485.004 188.21C484.674 188.43 484.344 188.76 484.344 189.2L483.464 197.78L483.244 199.98C483.134 200.53 483.464 201.08 483.904 201.3L486.104 202.4L493.696 206.36C494.026 206.58 494.577 206.58 494.907 206.36Z" fill="#5F5EA5"/>
<path d="M500.628 203.17L494.907 206.25C494.576 206.47 494.026 206.47 493.696 206.25L486.104 202.29L483.904 201.19C483.464 200.97 483.134 200.42 483.244 199.87L483.464 197.67L484.344 189.091C484.344 188.651 484.674 188.321 485.004 188.101L490.726 185.021C490.395 185.241 490.065 185.571 490.065 186.011L488.965 196.79C488.855 197.34 489.185 197.891 489.625 198.111L499.418 203.17C499.748 203.39 500.298 203.39 500.628 203.17Z" fill="#ECBF4C"/>
<path d="M506.019 200.2L500.628 203.17C500.298 203.39 499.748 203.39 499.418 203.17L489.625 198.11C489.185 197.89 488.855 197.34 488.965 196.79L490.065 186.01C490.065 185.57 490.395 185.24 490.726 185.02L496.227 182.05C495.897 182.27 495.567 182.6 495.567 183.04L494.466 193.82C494.466 194.37 494.687 194.92 495.127 195.14L504.919 200.2C505.249 200.42 505.689 200.42 506.019 200.2Z" fill="#5F5EA5"/>
<path d="M507.23 199.54L506.02 200.2C505.689 200.42 505.139 200.42 504.809 200.2L495.017 195.14C494.577 194.92 494.247 194.37 494.357 193.82L495.457 183.04C495.457 182.6 495.787 182.27 496.117 182.05L497.327 181.39C498.208 180.95 499.308 181.5 499.308 182.6V191.51C499.308 191.95 499.528 192.39 499.968 192.61L507.45 197.34C508.22 197.78 508.11 199.1 507.23 199.54Z" fill="#ECBF4C"/>
<path d="M412.826 253.88L391.92 252.12C391.37 252.12 390.93 251.24 391.15 250.8L400.832 232.21C401.053 231.77 401.713 231.88 402.043 232.43L413.266 252.89C413.596 253.33 413.376 253.88 412.826 253.88Z" fill="#ECBF4C"/>
<path d="M97.815 293.92C96.8248 295.68 95.2844 297.11 93.5239 298.32C90.003 300.74 85.6019 302.17 81.971 303.38C78.34 304.59 74.5991 305.47 70.8581 306.02C69.8679 306.13 68.8776 306.35 67.8874 306.46C66.8971 306.57 65.9069 306.68 64.9166 306.68C64.3665 306.68 63.8163 306.79 63.2662 306.79C63.1562 306.79 62.9361 306.79 62.8261 306.79C62.386 306.79 61.9459 306.79 61.5057 306.79C61.0656 306.79 60.5155 306.79 60.0754 306.79C59.3052 306.79 58.535 306.79 57.7648 306.79C57.2146 306.79 56.6645 306.79 56.2244 306.68C54.794 306.57 53.4737 306.46 52.0433 306.35C51.0531 306.24 50.0628 306.13 49.1826 305.91C43.3511 304.92 37.8497 302.72 33.7786 298.65C31.6881 296.45 29.8176 293.7 29.8176 290.73C29.8176 287.65 32.3483 284.57 35.319 284.79C36.6394 284.9 37.8497 285.67 38.95 286.33C40.8204 287.43 42.6909 288.64 44.4514 289.74C42.4709 287.43 40.8204 284.68 39.6101 281.93C38.6199 279.62 37.9597 277.2 38.3998 274.67C38.8399 272.25 40.4904 269.94 42.911 269.39C44.8915 268.95 46.982 269.83 48.5224 271.15C50.0628 272.58 51.0531 274.34 51.9333 276.21C53.3637 279.18 54.574 282.15 55.4542 285.23C55.1241 277.86 55.1241 269.72 59.7453 263.89C60.1854 263.23 60.8456 262.68 61.5057 262.35C62.8261 261.8 64.3665 262.46 65.4668 263.45C67.4473 265.32 67.8874 268.29 68.1074 271.04C68.5475 276.54 68.1074 282.04 67.0071 287.43C69.4278 282.81 72.0684 278.3 75.1492 274.01C76.2495 272.47 77.4598 270.93 79.0002 269.94C80.5406 268.95 82.6311 268.4 84.3916 269.17C86.152 269.94 87.2523 271.92 87.4724 273.9C87.6924 275.88 87.0323 277.86 86.2621 279.62C83.9515 284.79 80.1005 289.08 75.2593 291.94C79.2203 289.96 83.1813 288.2 87.3624 286.66C89.2328 286 91.2133 285.34 93.0838 285.45C95.0643 285.56 97.1549 286.33 98.1451 288.09C99.1354 289.85 98.8053 292.16 97.815 293.92Z" fill="#DD6E5C"/>
<path d="M51.8232 306.24C50.8329 306.13 49.8427 306.02 48.9624 305.8C43.351 301.29 38.2897 296.34 33.6685 290.84C33.1184 290.18 34.1086 289.08 34.6588 289.85C39.8301 295.9 45.5516 301.4 51.8232 306.24Z" fill="#D14F42"/>
<path d="M43.4611 274.89C48.1923 285.45 52.9236 296.12 57.6548 306.68C57.1046 306.68 56.5545 306.68 56.1144 306.57C51.4932 296.23 46.872 285.89 42.2508 275.55C41.8107 274.78 43.021 274.01 43.4611 274.89Z" fill="#D14F42"/>
<path d="M62.3859 270.82C62.0558 282.81 61.7257 294.8 61.2856 306.79C60.8455 306.79 60.2953 306.79 59.8552 306.79C60.1853 294.8 60.5154 282.81 60.9555 270.82C60.9555 269.83 62.4959 269.83 62.3859 270.82Z" fill="#D14F42"/>
<path d="M82.3012 275.88C75.6995 285.67 69.868 296.01 64.8067 306.57C64.2565 306.57 63.7064 306.68 63.1562 306.68C68.3276 295.79 74.2691 285.23 81.0908 275.11C81.531 274.34 82.8513 275.11 82.3012 275.88Z" fill="#D14F42"/>
<path d="M93.0838 292.82C85.2718 296.67 77.8999 301.07 70.7481 306.02C69.7579 306.13 68.7676 306.35 67.7773 306.46C75.5893 300.85 83.8415 295.9 92.4237 291.72C93.1939 291.17 93.964 292.38 93.0838 292.82Z" fill="#D14F42"/>
<path d="M39.39 172.259C38.8398 172.369 38.1797 172.479 37.7395 172.919C37.5195 173.249 37.4095 173.689 37.4095 174.239C37.1894 182.049 41.4805 189.529 47.7521 194.039C54.0237 198.549 62.0558 200.419 69.7577 200.089C75.1491 199.869 81.7508 198.989 86.592 196.569C91.9834 193.929 86.592 189.309 83.7313 186.669C76.0293 179.849 66.5669 175.119 56.5544 173.139C50.9429 172.039 45.1114 171.709 39.39 172.259Z" fill="#C3B7FC"/>
<path d="M53.2535 206.69C52.7033 206.91 52.0432 207.13 51.8231 207.68C51.603 208.12 51.7131 208.56 51.8231 209C53.3635 216.59 59.195 222.97 66.3468 226.05C73.4986 229.13 81.7508 229.02 89.2327 227.04C94.404 225.61 100.676 223.3 104.857 219.89C109.478 216.15 103.206 212.74 99.7954 210.98C90.7731 206.03 80.4304 203.61 70.1978 203.83C64.4763 203.83 58.7549 204.82 53.2535 206.69Z" fill="#C3B7FC"/>
<path d="M87.6922 110.109C88.1324 109.669 88.5725 109.229 89.1226 109.229C89.5627 109.229 90.0028 109.449 90.3329 109.779C96.7146 114.289 100.015 122.319 99.7953 130.019C99.5753 137.829 96.1644 145.199 91.2132 151.249C87.8023 155.429 83.0711 160.159 78.2298 162.579C72.8385 165.219 72.3983 158.179 72.1783 154.329C71.4081 144.099 73.3886 133.649 77.7897 124.519C80.5404 119.129 83.7312 114.289 87.6922 110.109Z" fill="#C3B7FC"/>
<path d="M101.006 140.91C101.336 140.47 101.886 139.92 102.436 139.92C102.876 139.92 103.316 140.14 103.647 140.36C110.248 144.43 114.099 152.24 114.429 159.94C114.759 167.75 111.789 175.34 107.277 181.61C104.087 186.01 99.7956 190.96 95.0643 193.71C89.893 196.79 89.0128 189.64 88.4627 185.79C87.0323 175.67 88.3526 165.11 92.2036 155.65C94.4042 150.37 97.3749 145.31 101.006 140.91Z" fill="#C3B7FC"/>
<path d="M117.73 167.42C118.06 166.98 118.5 166.54 119.05 166.54C119.491 166.54 119.821 166.76 120.151 166.98C126.202 170.72 129.723 177.87 130.053 184.91C130.383 192.06 127.633 199.1 123.452 204.82C120.591 208.78 116.52 213.4 112.229 215.93C107.497 218.68 106.617 212.19 106.177 208.67C104.857 199.32 106.067 189.75 109.588 181.06C111.569 176.11 114.319 171.49 117.73 167.42Z" fill="#C3B7FC"/>
<path d="M23.1058 143.33C22.5557 143.44 21.8955 143.55 21.5654 143.99C21.3454 144.32 21.2354 144.87 21.2354 145.31C21.2354 153.12 25.7465 160.49 32.1281 164.89C38.5098 169.29 46.5418 170.83 54.3538 170.28C59.7452 169.95 66.2369 168.85 71.0781 166.32C76.3595 163.57 70.8581 159.06 67.8873 156.53C60.0753 149.93 50.3928 145.53 40.2702 143.66C34.6588 142.67 28.8273 142.56 23.1058 143.33Z" fill="#C3B7FC"/>
<path d="M71.9583 120.45C70.0879 111.32 65.2466 103.18 59.4151 95.9197C56.9945 92.8397 53.8037 89.6497 49.9527 89.4297C44.0112 102.96 44.4513 119.13 51.163 132.33C53.1435 136.18 62.936 150.37 67.8873 146.08C73.7188 140.8 73.3887 127.27 71.9583 120.45Z" fill="#C3B7FC"/>
<path d="M127.413 231.33C121.031 226.71 115.089 221.54 109.588 215.93C118.39 203.83 122.681 188.65 121.691 173.69C121.581 172.04 118.94 171.82 119.05 173.58C120.041 187.88 116.08 202.18 107.828 213.95C102.106 207.79 96.8247 201.08 92.0935 194.04C92.2035 193.93 92.2035 193.93 92.3135 193.82C101.886 180.62 106.617 164.01 105.517 147.73C105.407 145.86 102.436 145.75 102.656 147.62C103.756 163.13 99.3553 178.75 90.4431 191.51C90.003 190.85 89.5628 190.08 89.1227 189.42C83.7313 180.95 79.1102 172.04 75.1492 162.8C75.3692 162.69 75.5893 162.58 75.6993 162.36C86.152 149.71 91.8734 133.54 91.8734 117.15C91.8734 115.28 89.0127 114.95 89.0127 116.82C89.1227 132.44 83.7313 147.73 73.9388 159.83C70.1979 150.92 66.897 141.9 63.9263 132.66C60.1853 121 57.1045 109.23 54.1338 97.46C53.6937 95.59 50.8329 96.4701 51.273 98.2301C56.5544 119.46 62.6059 140.69 71.1881 160.93C55.8942 161.59 40.6003 156.97 28.1671 148.06C26.6267 146.96 25.1964 149.49 26.7368 150.59C39.8301 160.16 56.2243 164.89 72.5085 163.9C76.6895 173.36 81.5308 182.6 87.0322 191.4C71.6283 191.62 56.5544 186.67 44.3413 177.32C42.8009 176.22 41.3705 178.64 42.8009 179.85C55.7842 189.86 72.1784 195.03 88.4626 194.37C88.5726 194.37 88.6826 194.37 88.7926 194.37C92.8637 200.53 97.2648 206.47 102.106 212.08C102.876 212.96 103.646 213.84 104.417 214.72C89.3428 218.57 73.2787 217.14 59.1951 210.65C57.4346 209.88 56.5544 212.63 58.3148 213.4C73.1686 220.22 90.333 221.54 106.177 217.25C106.397 217.14 106.617 217.14 106.727 216.92C112.669 223.19 119.16 228.91 126.202 233.97C127.523 234.96 128.953 232.43 127.413 231.33Z" fill="#A797FB"/>
<path d="M20.7953 230.01C20.3552 230.23 19.9151 230.45 19.8051 230.89C19.6951 231.22 19.8051 231.55 19.9151 231.88C21.8956 237.49 27.177 241.56 32.8984 243.1C38.6199 244.53 44.8915 243.54 50.2829 241.23C54.0239 239.58 58.535 237.05 61.2857 233.97C64.3665 230.56 59.1952 228.8 56.4445 227.81C49.0726 225.17 40.9305 224.51 33.2285 225.83C28.9374 226.49 24.6463 227.92 20.7953 230.01Z" fill="#ECBF4C"/>
<path d="M40.3803 250.469C40.0502 250.799 39.7201 251.129 39.6101 251.569C39.6101 251.899 39.7201 252.229 39.9402 252.559C43.131 257.509 49.1826 260.369 55.1241 260.589C61.0656 260.699 66.8971 258.389 71.6283 254.759C74.9291 252.339 78.6701 248.929 80.7606 245.189C82.9612 241.229 77.5698 240.569 74.5991 240.239C66.7871 239.249 58.755 240.459 51.6032 243.539C47.5321 245.299 43.6811 247.609 40.3803 250.469Z" fill="#ECBF4C"/>
<path d="M37.5195 172.04C37.7396 171.6 37.8496 171.16 38.2897 170.94C38.6198 170.83 38.9499 170.83 39.28 170.94C45.0015 172.37 49.7327 177.1 51.8232 182.71C53.9137 188.32 53.5837 194.59 51.7132 200.2C50.3928 204.16 48.4123 208.78 45.6616 211.86C42.5808 215.27 40.2703 210.32 38.9499 207.68C35.539 200.64 33.9986 192.61 34.5488 184.8C34.9889 180.51 35.9791 176.11 37.5195 172.04Z" fill="#ECBF4C"/>
<path d="M55.7843 190.19C55.8943 189.75 56.1144 189.31 56.5545 189.09C56.8846 188.98 57.2147 188.98 57.5447 189.09C63.3762 190.08 68.3275 194.59 70.7481 199.98C73.1687 205.37 73.2788 211.64 71.8484 217.47C70.8581 221.43 69.0977 226.27 66.567 229.57C63.7063 233.2 61.0656 228.47 59.6353 225.83C55.7843 219.01 53.6938 211.2 53.8038 203.28C53.6938 198.88 54.3539 194.48 55.7843 190.19Z" fill="#ECBF4C"/>
<path d="M75.0391 204.38C75.1491 203.94 75.3692 203.5 75.6993 203.39C76.0294 203.28 76.3594 203.28 76.5795 203.39C81.9709 204.38 86.482 208.45 88.6826 213.4C90.8832 218.35 90.9932 224.18 89.6728 229.46C88.7926 233.09 87.1422 237.49 84.8316 240.57C82.1909 243.87 79.8803 239.47 78.45 237.16C74.9291 230.89 73.0586 223.74 73.0586 216.48C73.1686 212.3 73.8288 208.23 75.0391 204.38Z" fill="#ECBF4C"/>
<path d="M0.990174 213.95C0.550062 214.17 0.219977 214.5 -7.91438e-05 214.94C-0.110107 215.27 -7.91401e-05 215.6 0.109949 215.93C2.31051 221.43 7.59186 225.39 13.4234 226.71C19.2548 228.03 25.4164 226.82 30.8078 224.29C34.5488 222.53 38.9499 219.89 41.5906 216.7C44.5613 213.18 39.39 211.53 36.5293 210.65C29.0474 208.23 21.0153 207.79 13.3133 209.33C9.02223 210.21 4.84116 211.75 0.990174 213.95Z" fill="#ECBF4C"/>
<path d="M29.2675 183.92C25.3065 177.98 19.5851 173.47 13.4235 169.95C10.7828 168.41 7.70201 167.09 4.84128 168.08C4.40117 179.41 9.35244 190.74 17.8246 198.22C20.3553 200.42 31.248 207.79 33.5586 203.28C36.3093 197.89 32.2383 188.43 29.2675 183.92Z" fill="#ECBF4C"/>
<path d="M100.015 247.059C94.184 245.629 88.4625 243.649 83.0711 241.119C85.8218 230.009 84.7215 218.019 79.7703 207.679C79.2201 206.469 77.2396 207.129 77.7898 208.339C82.521 218.239 83.7313 229.569 81.2006 240.239C75.3691 237.489 69.7577 234.189 64.3663 230.559C64.3663 230.449 64.4763 230.449 64.4763 230.339C67.5571 218.239 66.2368 205.149 60.8454 193.819C60.1852 192.499 58.0947 193.269 58.7549 194.589C63.9262 205.369 65.2465 217.689 62.4958 229.239C61.9457 228.909 61.3956 228.469 60.9555 228.139C54.7939 223.629 48.9624 218.569 43.461 213.179C43.571 213.069 43.681 212.849 43.7911 212.739C47.642 200.859 47.2019 187.659 42.4707 176.109C41.9206 174.789 39.83 175.339 40.2702 176.769C44.7813 187.879 45.2214 200.199 41.7005 211.639C36.5292 206.359 31.5779 200.859 26.8467 195.139C21.0152 187.769 15.4038 180.289 9.90238 172.699C9.02216 171.489 7.26171 172.919 8.14193 174.019C17.9344 187.659 28.1671 201.079 40.0501 212.959C29.3774 217.799 17.1642 218.789 5.83134 215.929C4.40098 215.599 4.18092 217.799 5.50126 218.129C17.4943 221.209 30.5877 219.889 41.8106 214.609C47.532 220.219 53.4735 225.389 59.9652 230.009C49.0724 234.519 36.9693 235.179 25.6364 231.989C24.206 231.549 23.876 233.749 25.3063 234.189C37.2994 237.599 50.5028 236.719 61.9457 231.659C62.0557 231.659 62.0557 231.549 62.1658 231.549C66.7869 234.739 71.6282 237.709 76.6895 240.349C77.4597 240.789 78.3399 241.119 79.1101 241.559C69.5377 248.599 57.6546 252.009 45.7716 251.459C44.3412 251.349 44.4512 253.659 45.8816 253.659C58.4248 254.319 70.968 250.469 80.9806 242.879C81.0906 242.769 81.2006 242.659 81.3107 242.549C87.3622 245.299 93.5238 247.499 100.015 249.149C101.116 249.589 101.446 247.389 100.015 247.059Z" fill="#E58F31"/>
<path d="M203.552 223.96V302.17C203.552 307.01 199.701 310.86 194.86 310.86H80.5406C75.6994 310.86 71.8484 307.01 71.8484 302.17V223.96H203.552Z" fill="white"/>
<path d="M203.552 213.51V223.96H71.8484V213.51C71.8484 208.67 75.6994 204.82 80.5406 204.82H194.86C199.701 204.93 203.552 208.78 203.552 213.51Z" fill="#514E92"/>
<path d="M179.236 214.06C179.236 216.81 177.035 219.01 174.285 219.01C171.534 219.01 169.333 216.81 169.333 214.06C169.333 211.31 171.534 209.11 174.285 209.11C176.925 209.11 179.236 211.42 179.236 214.06Z" fill="#ECBF4C"/>
<path d="M193.65 214.06C193.65 216.81 191.449 219.01 188.698 219.01C185.948 219.01 183.747 216.81 183.747 214.06C183.747 211.31 185.948 209.11 188.698 209.11C191.449 209.11 193.65 211.42 193.65 214.06Z" fill="#DD6E5C"/>
<path d="M131.484 236.17H79.4404V277.64H131.484V236.17Z" fill="#8690F1"/>
<path d="M195.96 237.16H138.305V245.41H195.96V237.16Z" fill="#DFDBFC"/>
<path d="M195.96 252.23H138.305V260.48H195.96V252.23Z" fill="#DFDBFC"/>
<path d="M195.96 269.061H138.305V277.311H195.96V269.061Z" fill="#DFDBFC"/>
<path d="M472.901 299.42C471.911 301.18 470.37 302.61 468.61 303.82C465.089 306.24 460.688 307.67 457.057 308.88C453.426 310.09 449.685 310.97 445.944 311.52C444.954 311.63 443.964 311.85 442.973 311.96C441.983 312.07 440.993 312.18 440.003 312.18C439.452 312.18 438.902 312.29 438.352 312.29C438.242 312.29 438.022 312.29 437.912 312.29C437.472 312.29 437.032 312.29 436.592 312.29C436.152 312.29 435.601 312.29 435.161 312.29C434.391 312.29 433.621 312.29 432.851 312.29C432.301 312.29 431.75 312.29 431.31 312.18C429.88 312.07 428.56 311.96 427.129 311.85C426.139 311.74 425.149 311.63 424.269 311.41C418.437 310.42 412.936 308.22 408.865 304.15C406.774 301.95 404.904 299.2 404.904 296.23C404.904 293.15 407.434 290.07 410.405 290.29C411.725 290.4 412.936 291.17 414.036 291.83C415.906 292.93 417.777 294.14 419.537 295.24C417.557 292.93 415.906 290.18 414.696 287.43C413.706 285.12 413.046 282.7 413.486 280.17C413.926 277.75 415.576 275.44 417.997 274.89C419.977 274.45 422.068 275.33 423.608 276.65C425.149 278.08 426.139 279.84 427.019 281.71C428.45 284.68 429.66 287.65 430.54 290.73C430.21 283.36 430.21 275.22 434.831 269.39C435.271 268.73 435.931 268.18 436.592 267.85C437.912 267.3 439.452 267.96 440.553 268.95C442.533 270.82 442.973 273.79 443.193 276.54C443.633 282.04 443.193 287.54 442.093 292.93C444.514 288.31 447.154 283.8 450.235 279.51C451.335 277.97 452.546 276.43 454.086 275.44C455.627 274.45 457.717 273.9 459.478 274.67C461.238 275.44 462.338 277.42 462.558 279.4C462.778 281.38 462.118 283.36 461.348 285.12C459.037 290.29 455.186 294.58 450.345 297.44C454.306 295.46 458.267 293.7 462.448 292.16C464.319 291.5 466.299 290.84 468.17 290.95C470.15 291.06 472.241 291.83 473.231 293.59C474.331 295.35 474.001 297.66 472.901 299.42Z" fill="#ECBF4C"/>
<path d="M427.019 311.74C426.029 311.63 425.039 311.52 424.158 311.3C418.547 306.79 413.486 301.84 408.865 296.34C408.314 295.68 409.305 294.58 409.855 295.35C414.916 301.4 420.638 306.9 427.019 311.74Z" fill="#E58F31"/>
<path d="M418.547 280.39C423.278 290.95 428.009 301.62 432.741 312.18C432.19 312.18 431.64 312.18 431.2 312.07C426.579 301.73 421.958 291.39 417.337 281.05C416.897 280.28 418.217 279.51 418.547 280.39Z" fill="#E58F31"/>
<path d="M437.582 276.32C437.252 288.31 436.922 300.3 436.482 312.29C436.042 312.29 435.491 312.29 435.051 312.29C435.381 300.3 435.711 288.31 436.152 276.32C436.152 275.33 437.582 275.33 437.582 276.32Z" fill="#E58F31"/>
<path d="M457.387 281.38C450.785 291.17 444.954 301.51 439.892 312.07C439.342 312.07 438.792 312.18 438.242 312.18C443.413 301.29 449.355 290.73 456.177 280.61C456.727 279.84 457.937 280.61 457.387 281.38Z" fill="#E58F31"/>
<path d="M468.28 298.32C460.468 302.17 453.096 306.57 445.944 311.52C444.954 311.63 443.964 311.85 442.973 311.96C450.785 306.35 459.037 301.4 467.62 297.22C468.39 296.67 469.05 297.88 468.28 298.32Z" fill="#E58F31"/>
<path d="M165.592 335.5C166.032 335.94 166.472 336.49 166.582 337.04C166.802 338.14 166.032 339.13 165.042 339.57C164.052 340.01 162.951 340.01 161.851 339.79C158.99 339.35 156.35 338.14 154.149 336.38C153.379 335.83 152.719 335.17 152.279 334.29C151.398 332.86 151.178 330.99 151.068 329.23C151.068 328.9 151.068 328.46 151.288 328.24C151.398 328.02 151.619 327.91 151.949 327.91C154.259 327.14 157.23 326.15 158.99 328.13C161.081 330.66 163.392 333.08 165.592 335.5Z" fill="#ECBF4C"/>
<path d="M121.801 336.6C121.801 337.26 121.911 337.92 121.581 338.47C121.141 339.46 119.82 339.79 118.83 339.57C117.73 339.35 116.96 338.58 116.19 337.81C114.209 335.72 112.889 333.08 112.229 330.33C112.008 329.45 111.898 328.46 112.008 327.58C112.229 325.82 113.219 324.28 114.099 322.85C114.319 322.52 114.539 322.3 114.869 322.19C115.089 322.19 115.309 322.19 115.529 322.3C117.84 323.07 120.811 324.17 121.031 326.81C121.251 330 121.581 333.3 121.801 336.6Z" fill="#ECBF4C"/>
<path d="M120.041 308.551C121.141 305.911 122.351 303.271 123.341 300.741L124.112 298.761C124.332 298.101 124.662 297.441 124.882 296.891C125.322 295.681 125.762 294.471 126.092 293.371C126.422 292.271 126.532 291.171 126.642 290.181C126.752 289.191 126.752 288.091 126.642 286.881C126.532 285.671 126.422 284.351 126.312 282.811L125.872 278.521L124.112 254.981L155.47 254.431C155.69 260.591 156.02 266.861 156.46 273.021C156.9 279.291 157.34 285.451 157.89 291.721C158.44 297.991 158.881 304.261 159.431 310.531C159.871 316.801 160.421 323.071 160.751 329.451L150.518 330.441C149.638 324.281 148.758 318.011 147.878 311.851C146.997 305.691 146.007 299.421 145.017 293.261C144.027 286.991 143.146 280.831 142.266 274.451C142.266 274.121 142.156 273.901 142.156 273.571C141.716 273.461 141.276 273.241 140.946 273.241C140.726 273.241 140.396 273.241 140.176 273.241L140.286 277.641L140.396 281.931C140.396 283.361 140.506 284.901 140.506 286.551C140.506 288.201 140.396 290.071 140.066 291.941C139.736 293.811 139.296 295.571 138.635 297.221C138.085 298.871 137.425 300.411 136.765 301.841C136.435 302.611 136.105 303.271 135.775 303.931L134.784 305.911C133.464 308.551 132.144 311.191 130.713 313.721C127.963 318.891 124.992 324.061 122.021 329.121L112.999 324.171C115.309 319.001 117.73 313.831 120.041 308.551Z" fill="#363271"/>
<path d="M163.942 259.82C164.052 260.04 164.052 260.26 164.162 260.37C164.272 260.48 164.492 260.59 164.712 260.59C164.932 260.59 165.152 260.37 165.262 260.15C165.482 259.82 165.702 259.49 165.922 259.16C166.362 260.04 166.583 261.03 166.803 262.02C166.803 262.46 166.913 262.9 167.243 263.12C167.463 263.23 167.683 263.23 168.013 263.12C169.113 262.9 169.993 262.24 170.654 261.36C170.874 261.14 170.984 260.81 171.094 260.48C171.204 260.04 171.094 259.71 171.094 259.27C170.874 258.06 170.213 256.96 169.663 255.97C169.113 254.98 168.563 253.88 167.793 253C167.683 252.89 167.683 252.89 167.573 252.78C167.463 252.78 167.353 252.78 167.353 252.78C166.032 252.78 164.602 253.22 163.502 254.1C163.172 254.43 162.842 254.76 162.842 255.2C162.842 255.97 163.502 256.52 163.612 257.29C163.502 258.06 163.722 258.94 163.942 259.82Z" fill="#F0C9A1"/>
<path d="M156.24 222.311C156.24 222.421 156.13 222.421 156.24 222.311C155.36 223.301 154.259 223.961 153.049 224.401C151.839 225.061 150.628 225.281 149.308 225.281C152.609 236.501 157.12 247.281 162.732 257.621L169.333 254.101C163.832 243.981 159.431 233.311 156.24 222.311Z" fill="#DD6E5C"/>
<path d="M157.23 259.82C156.9 260.26 156.24 260.48 155.69 260.48C154.589 260.59 153.489 260.81 152.389 260.92C149.748 261.25 147.107 261.47 144.357 261.58C138.195 261.91 132.034 261.8 125.872 261.25C123.671 261.03 122.351 261.47 121.691 259.49C121.031 257.62 122.791 241.78 123.011 236.72C123.341 231.22 123.671 225.72 125.322 220.55C126.972 215.38 130.053 210.32 134.784 207.57C135.334 207.24 135.885 207.02 136.435 206.8C138.525 205.81 140.946 205.37 143.256 205.7C145.567 206.03 147.548 207.02 149.418 208.45C151.619 210.32 153.379 212.74 154.479 215.49C156.35 220.33 156.57 225.61 156.68 230.78C156.9 240.13 157.23 249.59 157.45 258.94C157.45 259.05 157.45 259.49 157.23 259.82Z" fill="white"/>
<path d="M144.467 261.47C138.305 261.8 132.144 261.69 125.982 261.14C123.782 260.92 122.461 261.36 121.801 259.38C121.141 257.51 122.901 241.67 123.121 236.61C123.452 231.11 123.782 225.61 125.432 220.44C127.082 215.27 130.163 210.21 134.894 207.46C135.445 207.13 135.995 206.91 136.545 206.69C137.975 207.9 138.965 209.77 139.846 211.42C143.477 218.46 144.137 226.71 144.467 234.63C144.797 243.43 144.797 252.45 144.467 261.47Z" fill="#DD6E5C"/>
<path d="M157.23 259.82C156.9 260.26 156.24 260.48 155.69 260.48C154.589 260.59 153.489 260.81 152.389 260.92C152.719 249.15 152.609 237.27 151.949 225.5C151.619 220 151.178 214.39 149.638 209.11C149.528 208.89 149.418 208.56 149.418 208.34C151.619 210.21 153.379 212.63 154.479 215.38C156.35 220.22 156.57 225.5 156.68 230.67C156.9 240.02 157.23 249.48 157.45 258.83C157.45 259.05 157.45 259.49 157.23 259.82Z" fill="#DD6E5C"/>
<path d="M165.042 204.82C165.482 204.6 166.032 204.71 166.362 205.15C166.692 205.48 166.802 206.03 166.912 206.47C167.133 205.04 167.353 203.5 167.573 202.07C167.683 201.41 167.793 200.64 168.233 200.09C168.343 199.87 168.673 199.76 168.893 199.87C169.003 199.98 169.113 200.09 169.113 200.2C169.333 200.97 169.333 201.74 169.333 202.51C169.333 202.73 169.333 203.06 169.333 203.28C169.663 204.38 171.094 204.49 171.974 205.26C172.634 205.81 172.854 206.8 172.854 207.68C172.744 208.56 172.524 209.33 172.194 210.21C171.864 211.09 171.424 212.08 171.094 212.96C170.984 213.29 170.874 213.51 170.653 213.73C170.433 213.95 170.103 213.95 169.883 213.95C169.003 214.06 168.123 214.06 167.243 213.84C166.252 213.62 165.152 213.18 164.932 212.19C164.712 211.2 165.372 209.99 165.262 208.89C165.152 208.23 164.492 205.15 165.042 204.82Z" fill="#F0C9A1"/>
<path d="M172.304 211.861C169.993 221.211 166.582 228.911 163.392 235.181C162.181 237.601 159.321 243.211 153.819 243.981C153.489 243.981 153.049 244.091 152.719 244.091C148.208 244.091 145.017 240.571 143.697 239.031C138.415 232.981 133.904 226.381 130.163 219.231C129.063 217.251 129.943 214.721 131.924 213.731C132.474 213.511 133.024 213.291 133.684 213.291C135.114 213.291 136.545 214.061 137.205 215.491C140.616 221.981 144.907 228.141 149.748 233.751C151.509 235.731 152.279 236.061 152.609 236.061C153.489 236.061 154.699 234.521 156.24 231.551C159.211 225.611 162.401 218.571 164.492 210.101C167.243 210.211 169.553 210.541 172.084 211.531C172.084 211.751 172.194 211.751 172.304 211.861Z" fill="#DD6E5C"/>
<path d="M126.862 191.181C126.642 192.611 126.752 194.151 127.192 195.361C128.073 198.441 129.723 201.301 132.254 203.281C135.114 205.481 138.415 206.031 141.936 206.031C142.926 206.031 144.027 205.921 144.577 205.041C145.127 204.271 144.797 203.171 144.467 202.291C142.706 197.561 140.176 193.051 136.985 189.091C135.444 187.111 133.134 185.021 130.493 186.011C128.293 186.781 127.192 188.871 126.862 191.181Z" fill="#363271"/>
<path d="M139.185 196.57V207.02C139.185 209.11 140.836 210.76 142.926 210.76C145.017 210.76 146.667 209.11 146.667 207.02V196.57H139.185Z" fill="#F0C9A1"/>
<path d="M139.295 198.99V206.69C140.946 206.36 142.926 206.03 143.256 205.92C144.467 205.59 145.677 205.04 146.777 204.49C147.437 204.16 148.098 203.72 148.758 203.17C151.068 201.41 148.648 200.42 146.777 199.65C144.797 198.88 142.596 198.44 140.396 198.44C140.176 198.44 139.956 198.44 139.736 198.55C139.515 198.66 139.405 198.88 139.295 198.99Z" fill="#E9B588"/>
<path d="M152.829 189.2C155.58 195.36 154.479 201.74 149.418 204.05C144.357 206.36 137.975 203.17 135.224 197.12C132.474 190.96 134.454 184.14 139.515 181.94C144.577 179.52 150.078 183.04 152.829 189.2Z" fill="#F0C9A1"/>
<path d="M137.975 197.01C139.185 198.55 139.185 200.64 137.865 201.63C136.545 202.62 134.564 202.07 133.354 200.53C132.144 198.99 132.144 196.9 133.464 195.91C134.784 194.92 136.765 195.47 137.975 197.01Z" fill="#F0C9A1"/>
<path d="M143.476 189.2C145.787 188.43 147.988 187.44 149.858 185.79C151.728 184.25 153.049 181.94 153.049 179.52C153.049 177.1 151.398 174.68 149.088 174.13C147.327 173.8 145.567 174.46 143.916 175.34C142.706 176 141.716 176.77 140.616 177.65C140.286 177.87 139.955 178.2 139.625 178.42C139.185 178.64 138.745 178.64 138.305 178.75C134.784 179.19 131.483 181.28 129.393 184.25C128.733 185.24 128.072 186.45 127.962 187.77C127.632 191.62 131.043 191.4 134.014 191.29C137.315 191.18 140.506 190.3 143.476 189.2Z" fill="#363271"/>
<path d="M135.885 189.86C135.995 190.63 135.995 191.51 136.105 192.28C136.325 194.04 136.985 195.69 138.085 197.01C137.755 197.45 137.205 197.89 136.655 198.11C136.105 197.78 135.664 197.34 135.114 197.01C133.684 196.02 132.144 194.92 131.043 193.49C129.943 192.06 129.173 190.3 129.503 188.54C129.613 187.88 129.943 187.22 130.383 186.78C130.823 186.34 131.593 186.01 132.144 186.12C133.904 186.56 135.554 188.21 135.885 189.86Z" fill="#363271"/>
<path d="M150.408 187.88C149.088 188.43 148.318 189.97 148.538 191.29L146.997 191.95C146.117 190.85 144.577 190.41 143.256 190.96C141.716 191.62 140.946 193.49 141.606 195.14C142.266 196.68 144.137 197.45 145.787 196.79C147.327 196.13 148.098 194.26 147.438 192.61C147.438 192.61 147.438 192.61 147.438 192.5L148.868 191.84C148.868 191.84 148.868 191.84 148.868 191.95C149.528 193.49 151.399 194.26 153.049 193.6C154.589 192.94 155.36 191.07 154.699 189.42C153.929 187.88 152.059 187.11 150.408 187.88ZM145.567 196.24C144.357 196.79 142.816 196.24 142.266 195.03C141.716 193.82 142.266 192.28 143.476 191.73C144.687 191.18 146.227 191.73 146.777 192.94C147.327 194.15 146.777 195.69 145.567 196.24ZM152.719 193.05C151.509 193.6 149.968 193.05 149.418 191.84C148.868 190.63 149.418 189.09 150.628 188.54C151.839 187.99 153.379 188.54 153.929 189.75C154.589 190.96 153.929 192.39 152.719 193.05Z" fill="white"/>
<path d="M141.585 194.114L134.799 195.53L134.957 196.284L141.742 194.868L141.585 194.114Z" fill="white"/>
<path d="M354.401 210.32C349.339 218.02 342.077 224.29 333.385 228.69C327.444 231.66 321.172 233.53 314.79 234.19C315.341 236.83 315.781 239.47 316.551 242C316.661 242.22 316.771 242.44 316.881 242.66C334.706 240.35 351.43 230.23 361.552 215.16L354.401 210.32Z" fill="#DFDBFC"/>
<path d="M310.823 256.264L322.142 252.648L305.77 201.408L294.45 205.023L310.823 256.264Z" fill="#5F5EA5"/>
<path d="M305.548 238.59L316.111 235.18C316.991 234.85 317.981 235.4 318.201 236.28L330.194 273.79C331.405 277.53 329.314 281.6 325.463 282.81C321.722 284.02 317.651 281.93 316.441 278.08L304.448 240.57C304.228 239.8 304.668 238.92 305.548 238.59Z" fill="#514E92"/>
<path d="M289.044 195.03L290.144 178.31L293.775 177.21L304.338 190.08L303.127 200.53L295.976 202.84L289.044 195.03Z" fill="#ECBF4C"/>
<path d="M293.885 200.31L303.458 197.23C304.778 196.79 306.318 197.56 306.758 198.88C307.198 200.2 306.428 201.74 305.108 202.18L295.536 205.26C294.215 205.7 292.675 204.93 292.235 203.61C291.795 202.18 292.565 200.64 293.885 200.31Z" fill="#8690F1"/>
<path d="M294.215 191.07C293.885 190.08 294.435 188.98 295.535 188.65C296.526 188.32 297.626 188.87 297.956 189.86C298.286 190.85 297.736 191.95 296.636 192.28C295.535 192.61 294.545 192.06 294.215 191.07Z" fill="white"/>
<path d="M295.315 190.52L291.244 177.87L292.455 177.43L296.526 190.08C296.636 190.41 296.416 190.74 296.086 190.85C295.866 190.85 295.756 190.85 295.646 190.85C295.535 190.85 295.425 190.74 295.315 190.52Z" fill="white"/>
<path d="M304.338 238.37L316.991 234.3C317.871 234.08 318.751 234.52 318.971 235.29C319.192 236.17 318.751 237.05 317.981 237.27L305.328 241.34C304.448 241.56 303.568 241.12 303.348 240.35C303.017 239.47 303.458 238.59 304.338 238.37Z" fill="#ECBF4C"/>
<path d="M313.03 243.65C314.35 243.21 315.671 243.98 316.111 245.3L327.774 281.93C328.214 283.25 327.444 284.57 326.123 285.01C324.803 285.45 323.483 284.68 323.043 283.36L311.38 246.73C311.049 245.52 311.71 244.09 313.03 243.65Z" fill="#ECBF4C"/>
<path d="M257.136 193.16L256.145 192.61C259.666 185.79 266.818 180.84 277.271 177.65C280.572 176.66 283.983 175.89 287.283 175.12C292.345 174.02 297.626 172.81 302.467 170.83C311.71 167.09 318.091 160.49 319.522 153.12L320.622 153.34C319.082 161.04 312.48 167.97 302.907 171.82C297.956 173.8 292.675 175.01 287.613 176.11C284.313 176.88 280.902 177.65 277.711 178.53C267.478 181.83 260.547 186.67 257.136 193.16Z" fill="#ECBF4C"/>
<path d="M293.115 174.35C293.335 175.56 292.455 176.77 291.244 176.88C290.034 177.1 288.824 176.22 288.714 175.01C288.494 173.8 289.374 172.59 290.584 172.48C291.795 172.26 292.895 173.14 293.115 174.35Z" fill="#ECBF4C"/>
<path d="M258.896 192.61C259.116 193.82 258.236 195.03 257.026 195.14C255.815 195.36 254.605 194.48 254.495 193.27C254.275 192.06 255.155 190.85 256.365 190.74C257.576 190.52 258.676 191.4 258.896 192.61Z" fill="#ECBF4C"/>
<path d="M322.272 153.23C322.492 154.44 321.612 155.65 320.402 155.76C319.192 155.98 317.981 155.1 317.871 153.89C317.651 152.68 318.531 151.47 319.742 151.36C320.842 151.14 322.052 152.02 322.272 153.23Z" fill="#ECBF4C"/>
<path d="M351.21 190.63C356.491 191.07 361.662 194.7 363.313 200.09C364.083 202.62 364.193 205.26 364.633 207.9C365.073 210.54 366.064 213.18 368.044 214.72C369.474 215.71 371.235 216.04 372.665 217.03C376.076 219.23 376.846 224.73 374.316 227.92C373.766 228.58 373.215 229.13 372.775 229.79C372.005 231 372.005 232.65 371.455 233.97C370.905 235.29 369.915 236.28 368.814 237.05C363.863 240.46 356.821 238.48 352.86 233.86C348.899 229.24 347.689 222.53 348.129 216.26C348.459 211.75 349.339 206.47 346.479 203.06C344.608 200.86 341.747 200.2 339.107 199.65C333.935 198.66 337.456 195.47 339.987 193.82C343.288 191.62 347.249 190.3 351.21 190.63Z" fill="#363271"/>
<path d="M323.483 339.57C323.043 340.01 322.602 340.56 322.492 341.11C322.272 342.21 323.043 343.2 324.033 343.64C325.023 344.08 326.123 344.08 327.224 343.86C330.084 343.42 332.725 342.21 334.926 340.45C335.696 339.9 336.356 339.24 336.796 338.36C337.676 336.93 337.896 335.06 338.006 333.3C338.006 332.97 338.006 332.53 337.786 332.31C337.676 332.09 337.456 331.98 337.126 331.98C334.816 331.21 331.845 330.22 330.084 332.2C327.994 334.62 325.793 337.04 323.483 339.57Z" fill="#E08675"/>
<path d="M367.274 340.56C367.274 341.22 367.164 341.88 367.494 342.43C367.934 343.42 369.254 343.75 370.245 343.53C371.345 343.31 372.115 342.54 372.885 341.77C374.866 339.68 376.186 337.04 376.846 334.29C377.066 333.41 377.176 332.42 377.066 331.54C376.846 329.78 375.856 328.24 374.976 326.81C374.756 326.48 374.536 326.26 374.206 326.15C373.986 326.15 373.766 326.15 373.545 326.26C371.235 327.03 368.264 328.13 368.044 330.77C367.824 334.07 367.604 337.37 367.274 340.56Z" fill="#E08675"/>
<path d="M369.034 312.62C367.934 309.98 366.724 307.34 365.733 304.81L364.963 302.83C364.743 302.17 364.413 301.51 364.193 300.96C363.753 299.75 363.313 298.54 362.983 297.44C362.653 296.34 362.543 295.24 362.433 294.25C362.323 293.26 362.323 292.16 362.433 290.95C362.543 289.74 362.653 288.42 362.763 286.88L363.203 282.59L364.963 259.05L333.605 258.5C333.385 264.66 333.055 270.93 332.615 277.09C332.175 283.36 331.735 289.52 331.185 295.79C330.634 302.06 330.194 308.33 329.644 314.6C329.204 320.87 328.654 327.14 328.324 333.52L338.556 334.51C339.437 328.35 340.317 322.08 341.197 315.92C342.077 309.76 343.068 303.49 344.058 297.33C345.048 291.06 345.928 284.9 346.809 278.52C346.809 278.19 346.919 277.97 346.919 277.64C347.359 277.53 347.799 277.31 348.129 277.31C348.349 277.31 348.679 277.31 348.899 277.31L348.789 281.71L348.679 286C348.679 287.43 348.569 288.97 348.569 290.62C348.569 292.27 348.679 294.14 349.009 296.01C349.339 297.88 349.779 299.64 350.44 301.29C350.99 302.94 351.65 304.48 352.31 305.91C352.64 306.68 352.97 307.34 353.3 308L354.291 309.98C355.611 312.62 356.931 315.26 358.362 317.79C361.112 322.96 364.083 328.13 367.054 333.19L376.076 328.24C373.765 322.96 371.345 317.79 369.034 312.62Z" fill="#ECBF4C"/>
<path d="M367.274 266.97C367.274 267.74 366.834 268.4 366.064 268.73C357.701 271.48 349.119 272.58 340.317 272.03C337.566 271.81 334.816 271.48 332.065 271.04C331.075 270.82 330.525 269.83 330.745 268.95C330.745 268.73 330.855 268.62 330.855 268.51C331.955 264.44 332.395 260.37 333.275 256.19C334.375 250.36 335.366 244.53 336.026 238.7C336.466 234.63 335.696 227.59 339.107 224.51C343.068 220.88 349.449 218.68 354.621 220.77C355.171 220.99 355.721 221.21 356.161 221.54C360.782 224.51 362.543 231 363.533 235.95C365.293 244.53 366.504 256.41 367.274 266.97Z" fill="#5F5EA5"/>
<path d="M311.71 262.02C310.719 262.02 309.509 261.8 308.959 260.92C308.739 260.59 308.629 260.15 308.519 259.82C308.409 259.16 308.299 258.5 308.629 257.95C309.069 257.4 309.839 257.18 310.499 257.07C311.38 256.96 312.37 256.85 313.25 256.74C312.7 256.52 312.26 256.08 312.04 255.64C311.93 255.42 311.82 255.09 311.93 254.87C312.04 254.65 312.37 254.65 312.59 254.65C314.46 254.76 316.331 254.76 318.201 254.87C318.421 254.87 318.751 254.87 318.861 254.98C318.971 255.09 319.082 255.2 319.192 255.42C319.742 256.41 320.072 257.51 320.072 258.61C320.072 259.82 319.632 260.04 318.531 260.59C316.441 261.58 314.13 262.02 311.71 262.02Z" fill="#F0C9A1"/>
<path d="M357.701 231.33C357.701 232.1 357.481 232.87 357.041 233.53C348.459 247.72 334.155 258.06 318.091 262.13C317.541 261.14 317.101 260.15 316.771 259.16C316.221 257.4 316.001 255.64 315.671 253.99C321.502 252.45 327.664 249.7 332.835 246.29C339.767 241.78 345.488 235.84 349.559 229.13C350.77 227.15 353.19 226.49 355.171 227.48C356.821 228.25 357.701 229.79 357.701 231.33Z" fill="#DFDBFC"/>
<path d="M360.452 197.781C361.222 198.881 361.442 200.201 361.552 201.411C361.882 204.711 361.442 208.121 360.012 211.201C358.582 214.171 356.051 216.701 352.86 217.801C352.2 218.021 351.32 218.131 350.88 217.691C350.55 217.361 350.55 216.921 350.44 216.481C349.779 211.311 349.779 206.031 350.55 200.861C350.77 199.431 351.1 198.001 351.87 196.791C353.96 193.821 358.582 195.141 360.452 197.781Z" fill="#363271"/>
<path d="M352.53 211.311V221.761C352.53 223.851 350.88 225.501 348.789 225.501C346.699 225.501 345.048 223.851 345.048 221.761V211.311H352.53Z" fill="#F0C9A1"/>
<path d="M352.53 213.84V221.54C350.88 221.21 348.899 220.88 348.569 220.77C347.359 220.44 346.148 220 345.048 219.34C344.388 219.01 343.728 218.57 343.068 218.02C340.757 216.26 343.178 215.27 345.048 214.5C347.029 213.73 349.229 213.29 351.43 213.29C351.65 213.29 351.87 213.29 352.09 213.4C352.2 213.51 352.42 213.62 352.53 213.84Z" fill="#E9B588"/>
<path d="M336.356 207.35C336.356 214.06 339.877 219.45 345.488 219.45C351.1 219.45 355.611 214.06 355.611 207.35C355.611 200.64 351.1 195.25 345.488 195.25C339.987 195.25 336.356 200.64 336.356 207.35Z" fill="#F0C9A1"/>
<path d="M353.08 208.451C352.64 210.431 353.52 212.301 355.061 212.631C356.601 212.961 358.252 211.751 358.692 209.771C359.132 207.791 358.252 205.921 356.711 205.591C355.171 205.261 353.52 206.581 353.08 208.451Z" fill="#F0C9A1"/>
<path d="M352.75 207.13C352.75 207.68 352.64 208.34 352.86 208.89C353.08 209.44 353.63 209.88 354.181 209.77C354.511 209.66 354.731 209.33 354.951 209C356.601 206.47 357.481 203.5 357.261 200.42C357.261 199.65 357.151 198.88 356.491 198.33C356.271 198.11 355.941 198 355.611 197.89C355.061 197.67 354.401 197.45 353.741 197.67C352.75 197.89 351.98 198.88 351.76 199.87C351.1 202.4 352.86 204.49 352.75 207.13Z" fill="#363271"/>
<path d="M336.686 194.48C334.265 196.13 332.285 198.77 332.175 201.74C332.175 202.73 332.395 203.94 333.165 204.6C333.605 204.93 334.155 205.15 334.706 205.26C337.786 205.92 340.867 204.27 343.728 202.62C343.618 203.83 345.158 204.49 346.369 204.71C349.449 205.04 352.64 204.6 355.611 203.5C357.151 202.84 358.692 201.96 359.242 200.31C360.012 198 358.362 195.58 356.381 194.15C350.66 189.86 342.518 190.63 336.686 194.48Z" fill="#363271"/>
</g>
<defs>
<clipPath id="clip0">
<rect width="508" height="352" fill="white"/>
</clipPath>
</defs>
</svg>
