<svg width="585" height="586" viewBox="0 0 585 586" fill="none" xmlns="http://www.w3.org/2000/svg">
<circle cx="428" cy="429" r="157" fill="#9468B4" fill-opacity="0.05"/>
<circle cx="119" cy="119" r="119" fill="#9468B4" fill-opacity="0.05"/>
<circle cx="199" cy="495" r="62" fill="#9468B4" fill-opacity="0.05"/>
<circle cx="478.5" cy="198.5" r="37.5" fill="#9468B4" fill-opacity="0.05"/>
<circle cx="50.5" cy="269.5" r="39.5" fill="#9468B4" fill-opacity="0.05"/>
<g opacity="0.15">
<path d="M260 408.288C380.789 408.288 478.708 402.571 478.708 395.519C478.708 388.467 380.789 382.75 260 382.75C139.211 382.75 41.292 388.467 41.292 395.519C41.292 402.571 139.211 408.288 260 408.288Z" fill="#F5F5F5"/>
</g>
<path d="M410.926 235.738H167.165C166.55 235.739 165.941 235.614 165.376 235.371C164.811 235.128 164.302 234.773 163.879 234.326C163.457 233.879 163.13 233.35 162.919 232.773C162.708 232.195 162.618 231.58 162.653 230.966L170.888 81.5175C170.975 80.2344 171.543 79.0312 172.477 78.1471C173.411 77.2631 174.644 76.7629 175.93 76.7461H419.691C420.306 76.7451 420.914 76.8698 421.479 77.1126C422.044 77.3554 422.554 77.7111 422.976 78.158C423.399 78.6048 423.726 79.1334 423.937 79.7111C424.147 80.2888 424.238 80.9035 424.203 81.5175L415.991 230.966C415.908 232.255 415.339 233.465 414.399 234.35C413.459 235.236 412.218 235.732 410.926 235.738Z" fill="#263238"/>
<path d="M308.38 102.16H284.816C282.969 102.182 281.137 101.823 279.436 101.104C277.735 100.385 276.201 99.3228 274.93 97.9829C273.659 96.643 272.678 95.0549 272.05 93.3182C271.422 91.5815 271.16 89.7337 271.28 87.8907L271.516 83.5366C271.768 79.8208 273.41 76.336 276.115 73.7756C278.819 71.2152 282.389 69.7668 286.113 69.7186H309.665C311.512 69.6978 313.342 70.0583 315.043 70.7777C316.743 71.4971 318.277 72.5598 319.547 73.8993C320.818 75.2388 321.799 76.8263 322.427 78.5622C323.056 80.2982 323.32 82.1453 323.201 83.9878L322.965 88.3419C322.708 92.054 321.066 95.5342 318.365 98.0933C315.664 100.652 312.1 102.104 308.38 102.16Z" fill="#263238"/>
<path d="M329.834 390.804H322.288L301.499 73.0459H309.056L329.834 390.804Z" fill="#263238"/>
<path d="M273.164 390.804H280.721L301.499 73.0459H293.953L273.164 390.804Z" fill="#263238"/>
<path d="M409.629 235.738H165.868C165.253 235.739 164.644 235.614 164.079 235.371C163.514 235.128 163.005 234.773 162.582 234.326C162.16 233.879 161.833 233.35 161.622 232.773C161.411 232.195 161.321 231.58 161.356 230.966L169.557 81.5175C169.644 80.2344 170.212 79.0312 171.146 78.1471C172.08 77.2631 173.313 76.7629 174.599 76.7461H418.36C418.975 76.7451 419.583 76.8698 420.148 77.1126C420.713 77.3554 421.223 77.7111 421.645 78.158C422.068 78.6048 422.395 79.1334 422.606 79.7111C422.816 80.2888 422.907 80.9035 422.872 81.5175L414.66 230.966C414.577 232.249 414.013 233.454 413.08 234.339C412.147 235.224 410.915 235.723 409.629 235.738Z" fill="#BA68C8"/>
<path opacity="0.4" d="M169.76 231.158C169.267 231.163 168.778 231.067 168.324 230.875C167.87 230.683 167.46 230.399 167.121 230.041C166.782 229.682 166.521 229.258 166.354 228.794C166.187 228.33 166.117 227.837 166.15 227.345L173.967 85.1381C174.032 84.1134 174.483 83.1512 175.227 82.4442C175.972 81.7372 176.956 81.3376 177.983 81.3254H414.536C415.029 81.3197 415.518 81.416 415.972 81.6082C416.426 81.8005 416.835 82.0845 417.174 82.4426C417.513 82.8006 417.774 83.2249 417.941 83.6888C418.109 84.1527 418.178 84.6461 418.145 85.1381L410.328 227.345C410.263 228.372 409.811 229.335 409.064 230.043C408.317 230.75 407.33 231.148 406.301 231.158H169.76Z" fill="#263238"/>
<path opacity="0.1" d="M407.768 155.785H336.534C336.115 155.791 335.7 155.71 335.314 155.547C334.928 155.384 334.58 155.143 334.291 154.839C334.003 154.534 333.781 154.174 333.639 153.78C333.497 153.385 333.438 152.966 333.466 152.548L337.019 87.8121C337.022 87.7534 337.014 87.6947 336.994 87.6394C336.974 87.5842 336.943 87.5335 336.903 87.4904C336.863 87.4473 336.815 87.4126 336.761 87.3884C336.707 87.3642 336.65 87.351 336.591 87.3496C336.467 87.3521 336.348 87.401 336.258 87.4866C336.169 87.5722 336.114 87.6883 336.106 87.8121L332.553 152.548C332.494 153.412 332.114 154.224 331.488 154.823C330.862 155.421 330.035 155.765 329.169 155.785H255.149C254.73 155.791 254.315 155.71 253.929 155.547C253.543 155.384 253.194 155.143 252.906 154.839C252.618 154.534 252.396 154.174 252.254 153.78C252.112 153.385 252.053 152.966 252.081 152.548L255.634 87.8121C255.637 87.7534 255.629 87.6947 255.608 87.6394C255.588 87.5842 255.558 87.5335 255.518 87.4904C255.478 87.4473 255.429 87.4126 255.376 87.3884C255.322 87.3642 255.264 87.351 255.206 87.3496C255.082 87.3521 254.963 87.401 254.873 87.4866C254.783 87.5722 254.729 87.6883 254.721 87.8121L251.167 152.548C251.109 153.412 250.729 154.224 250.103 154.823C249.477 155.421 248.65 155.765 247.783 155.785H176.528C176.403 155.785 176.283 155.833 176.192 155.919C176.102 156.006 176.048 156.123 176.043 156.248C176.04 156.306 176.048 156.364 176.068 156.419C176.089 156.473 176.12 156.523 176.16 156.566C176.2 156.608 176.248 156.641 176.302 156.664C176.355 156.687 176.413 156.699 176.471 156.699H247.671C248.09 156.695 248.506 156.778 248.892 156.942C249.278 157.106 249.626 157.348 249.914 157.653C250.202 157.958 250.424 158.32 250.566 158.714C250.708 159.109 250.767 159.529 250.739 159.948L247.186 224.672C247.179 224.732 247.185 224.792 247.204 224.849C247.223 224.905 247.254 224.958 247.294 225.001C247.335 225.045 247.385 225.08 247.44 225.103C247.495 225.126 247.554 225.137 247.614 225.135C247.738 225.132 247.857 225.083 247.947 224.998C248.036 224.912 248.091 224.796 248.099 224.672L251.652 159.948C251.706 159.08 252.084 158.265 252.711 157.663C253.337 157.061 254.168 156.717 255.036 156.699H329.022C329.45 156.681 329.877 156.753 330.275 156.91C330.673 157.068 331.034 157.308 331.333 157.615C331.632 157.922 331.863 158.288 332.011 158.69C332.159 159.092 332.221 159.52 332.192 159.948L328.638 224.672C328.632 224.732 328.638 224.792 328.657 224.849C328.676 224.905 328.707 224.958 328.747 225.001C328.788 225.045 328.837 225.08 328.893 225.103C328.948 225.126 329.007 225.137 329.067 225.135C329.191 225.132 329.31 225.083 329.399 224.998C329.489 224.912 329.544 224.796 329.552 224.672L333.105 159.948C333.159 159.08 333.537 158.265 334.163 157.663C334.79 157.061 335.621 156.717 336.489 156.699H407.689C407.811 156.697 407.928 156.649 408.017 156.566C408.107 156.483 408.163 156.37 408.174 156.248C408.178 156.191 408.171 156.133 408.153 156.079C408.135 156.024 408.106 155.974 408.069 155.931C408.031 155.888 407.984 155.852 407.933 155.828C407.881 155.803 407.825 155.788 407.768 155.785Z" fill="white"/>
<path opacity="0.4" d="M291.64 99.0801H263.045L261.443 128.171L290.004 128.938L291.64 99.0801Z" fill="#263238"/>
<path d="M288.549 127.687L259.842 126.288C261.423 116.463 262.421 106.553 262.831 96.6104L291.697 98.0091C291.234 107.955 290.183 117.865 288.549 127.687Z" fill="white"/>
<path opacity="0.4" d="M326.123 118.516L297.483 120.704L298.115 149.694L326.766 148.272L326.123 118.516Z" fill="#263238"/>
<path d="M325.209 147.144L296.355 147.945C297.186 138.072 297.427 128.158 297.077 118.256L326.089 117.433C326.387 127.345 326.093 137.267 325.209 147.144Z" fill="#BA68C8"/>
<path opacity="0.4" d="M242.493 171.408L189.703 169.4L184.954 216.359L237.631 219.608L242.493 171.408Z" fill="#263238"/>
<path d="M235.003 217.486L182.168 213.189C185.679 197.428 188.129 181.45 189.5 165.361L242.651 169.648C241.185 185.748 238.629 201.731 235.003 217.486Z" fill="white"/>
<g style="mix-blend-mode:multiply" opacity="0.3">
<g style="mix-blend-mode:multiply" opacity="0.3">
<path d="M188.157 105.658C187.773 105.66 187.392 105.583 187.038 105.432C186.685 105.281 186.366 105.059 186.102 104.78C185.837 104.501 185.633 104.17 185.502 103.809C185.37 103.448 185.314 103.063 185.337 102.68C185.396 101.881 185.752 101.134 186.335 100.585C186.917 100.036 187.684 99.7249 188.485 99.7129C188.869 99.7106 189.249 99.7873 189.602 99.9384C189.955 100.089 190.273 100.312 190.537 100.591C190.8 100.87 191.003 101.201 191.133 101.562C191.264 101.923 191.318 102.308 191.293 102.691C191.237 103.488 190.883 104.235 190.303 104.785C189.722 105.334 188.957 105.645 188.157 105.658Z" fill="#263238"/>
</g>
<g style="mix-blend-mode:multiply" opacity="0.8">
<path d="M234.8 105.657H198.174C197.79 105.659 197.41 105.583 197.057 105.432C196.704 105.281 196.385 105.058 196.122 104.779C195.858 104.5 195.655 104.169 195.525 103.808C195.395 103.447 195.341 103.062 195.365 102.679C195.416 101.879 195.768 101.128 196.349 100.575C196.931 100.023 197.699 99.711 198.501 99.7012H235.184C235.568 99.699 235.949 99.7757 236.303 99.9266C236.656 100.078 236.975 100.299 237.24 100.579C237.504 100.858 237.708 101.188 237.84 101.55C237.971 101.911 238.027 102.295 238.004 102.679C237.947 103.489 237.584 104.247 236.989 104.8C236.395 105.353 235.612 105.659 234.8 105.657Z" fill="#263238"/>
</g>
<g style="mix-blend-mode:multiply" opacity="0.3">
<path d="M187.447 118.64C187.062 118.644 186.68 118.569 186.326 118.418C185.971 118.268 185.652 118.046 185.387 117.767C185.122 117.487 184.918 117.156 184.787 116.794C184.657 116.432 184.602 116.047 184.627 115.663C184.681 114.856 185.04 114.099 185.63 113.546C186.221 112.994 186.999 112.686 187.808 112.685C188.192 112.682 188.572 112.759 188.925 112.91C189.278 113.061 189.596 113.283 189.86 113.563C190.123 113.842 190.326 114.173 190.457 114.534C190.587 114.895 190.641 115.279 190.616 115.663C190.562 116.468 190.205 117.222 189.617 117.775C189.029 118.327 188.254 118.637 187.447 118.64Z" fill="#263238"/>
</g>
<g style="mix-blend-mode:multiply" opacity="0.8">
<path d="M240.575 118.64H197.463C197.079 118.643 196.698 118.566 196.344 118.415C195.991 118.264 195.672 118.042 195.407 117.763C195.143 117.484 194.939 117.153 194.807 116.792C194.676 116.431 194.62 116.046 194.643 115.663C194.7 114.862 195.054 114.112 195.637 113.561C196.22 113.009 196.988 112.697 197.79 112.685H240.903C241.287 112.682 241.668 112.759 242.021 112.91C242.375 113.061 242.694 113.283 242.958 113.562C243.223 113.841 243.427 114.172 243.558 114.533C243.69 114.894 243.746 115.279 243.723 115.663C243.666 116.463 243.312 117.213 242.729 117.764C242.146 118.316 241.378 118.628 240.575 118.64Z" fill="#263238"/>
</g>
<g style="mix-blend-mode:multiply" opacity="0.3">
<path d="M186.68 131.613C186.296 131.617 185.916 131.541 185.563 131.392C185.21 131.242 184.892 131.021 184.628 130.742C184.364 130.464 184.161 130.134 184.031 129.773C183.9 129.412 183.846 129.029 183.871 128.646C183.922 127.846 184.273 127.094 184.855 126.542C185.436 125.99 186.205 125.678 187.007 125.668C187.392 125.664 187.773 125.74 188.128 125.89C188.482 126.041 188.802 126.262 189.066 126.542C189.331 126.821 189.535 127.153 189.666 127.515C189.797 127.877 189.852 128.262 189.827 128.646C189.77 129.445 189.415 130.194 188.832 130.744C188.249 131.293 187.481 131.603 186.68 131.613Z" fill="#263238"/>
</g>
<g style="mix-blend-mode:multiply" opacity="0.8">
<path d="M217.734 131.613H196.741C196.358 131.617 195.978 131.541 195.625 131.392C195.272 131.242 194.953 131.021 194.69 130.742C194.426 130.464 194.223 130.134 194.093 129.773C193.962 129.412 193.908 129.029 193.933 128.646C193.984 127.846 194.335 127.094 194.917 126.542C195.498 125.99 196.267 125.678 197.069 125.668H218.061C218.445 125.664 218.826 125.74 219.18 125.89C219.534 126.041 219.853 126.263 220.117 126.542C220.381 126.822 220.584 127.153 220.713 127.515C220.843 127.878 220.896 128.262 220.869 128.646C220.816 129.444 220.463 130.193 219.882 130.743C219.301 131.293 218.534 131.603 217.734 131.613Z" fill="#263238"/>
</g>
<g style="mix-blend-mode:multiply" opacity="0.8">
<path d="M237.169 144.596H216.177C215.793 144.598 215.412 144.521 215.059 144.37C214.706 144.219 214.388 143.997 214.125 143.718C213.861 143.438 213.658 143.108 213.528 142.746C213.398 142.385 213.343 142.001 213.368 141.618C213.422 140.818 213.774 140.068 214.355 139.517C214.936 138.965 215.703 138.652 216.504 138.64H237.496C237.88 138.637 238.26 138.714 238.613 138.865C238.967 139.016 239.285 139.238 239.548 139.518C239.812 139.797 240.015 140.128 240.145 140.489C240.275 140.85 240.33 141.234 240.305 141.618C240.251 142.417 239.899 143.167 239.318 143.718C238.737 144.27 237.97 144.583 237.169 144.596Z" fill="#263238"/>
</g>
<g style="mix-blend-mode:multiply" opacity="0.3">
<path d="M186.014 144.596C185.63 144.598 185.25 144.521 184.897 144.37C184.544 144.219 184.225 143.997 183.962 143.718C183.698 143.438 183.495 143.108 183.365 142.746C183.235 142.385 183.181 142.001 183.205 141.618C183.259 140.818 183.611 140.068 184.192 139.517C184.773 138.965 185.54 138.652 186.341 138.64C186.725 138.637 187.106 138.714 187.459 138.865C187.812 139.016 188.13 139.238 188.393 139.518C188.657 139.797 188.86 140.128 188.99 140.489C189.12 140.85 189.175 141.234 189.15 141.618C189.096 142.417 188.744 143.167 188.163 143.718C187.582 144.27 186.815 144.583 186.014 144.596Z" fill="#263238"/>
</g>
<g style="mix-blend-mode:multiply" opacity="0.8">
<path d="M205.72 144.596H196.031C195.647 144.598 195.266 144.521 194.913 144.37C194.56 144.219 194.242 143.997 193.979 143.718C193.715 143.438 193.512 143.108 193.382 142.746C193.252 142.385 193.197 142.001 193.222 141.618C193.276 140.818 193.628 140.069 194.209 139.517C194.79 138.965 195.557 138.652 196.358 138.64H206.047C206.432 138.636 206.814 138.711 207.168 138.862C207.523 139.012 207.842 139.234 208.107 139.514C208.372 139.793 208.576 140.124 208.707 140.486C208.838 140.848 208.892 141.234 208.867 141.618C208.814 142.419 208.46 143.17 207.876 143.722C207.293 144.274 206.523 144.586 205.72 144.596Z" fill="#263238"/>
</g>
</g>
<path d="M277.078 183.218H262.876L260.925 218.761H275.126L277.078 183.218Z" fill="#BA68C8"/>
<path d="M298.634 190.55H284.421L282.876 218.761H297.077L298.634 190.55Z" fill="#BA68C8"/>
<path d="M321.611 171.622H307.41L304.826 218.761H319.028L321.611 171.622Z" fill="#BA68C8"/>
<path d="M266.046 203.274C264.636 203.274 263.214 203.274 261.782 203.161C258.835 203.111 255.922 202.523 253.187 201.424C252.964 201.323 252.791 201.138 252.704 200.91C252.618 200.682 252.625 200.429 252.724 200.206C252.774 200.096 252.845 199.996 252.934 199.914C253.022 199.832 253.126 199.768 253.239 199.726C253.352 199.684 253.473 199.665 253.594 199.67C253.714 199.675 253.833 199.703 253.942 199.754C256.458 200.75 259.133 201.285 261.838 201.334C278.882 202.213 293.806 197.769 308.831 187.369C313.519 184.11 317.645 180.11 321.047 175.525C321.112 175.419 321.197 175.327 321.299 175.254C321.401 175.182 321.516 175.132 321.638 175.106C321.759 175.08 321.885 175.079 322.007 175.104C322.129 175.128 322.245 175.177 322.348 175.248C322.45 175.319 322.537 175.41 322.603 175.516C322.669 175.621 322.712 175.739 322.731 175.862C322.75 175.985 322.743 176.111 322.712 176.232C322.68 176.352 322.624 176.465 322.547 176.563C319.046 181.326 314.772 185.471 309.902 188.824C295.802 198.649 281.759 203.274 266.046 203.274Z" fill="white"/>
<path d="M324.702 182.541C324.551 182.541 324.403 182.505 324.27 182.434C324.138 182.363 324.024 182.261 323.941 182.136C323.857 182.011 323.806 181.867 323.791 181.717C323.776 181.568 323.798 181.417 323.856 181.278C325.146 178.152 325.423 174.699 324.645 171.408C321.084 173.806 317.28 175.825 313.298 177.431C313.186 177.481 313.065 177.507 312.943 177.509C312.821 177.511 312.699 177.488 312.586 177.443C312.473 177.397 312.37 177.329 312.283 177.242C312.197 177.156 312.128 177.053 312.082 176.94C312.036 176.826 312.013 176.705 312.015 176.583C312.017 176.461 312.043 176.34 312.092 176.228C312.141 176.116 312.213 176.015 312.301 175.931C312.39 175.847 312.495 175.782 312.61 175.739C316.859 174.023 320.898 171.824 324.645 169.186C324.763 169.107 324.896 169.056 325.036 169.038C325.176 169.019 325.319 169.032 325.453 169.077C325.586 169.121 325.708 169.196 325.809 169.295C325.91 169.394 325.986 169.515 326.033 169.648C327.345 173.684 327.173 178.057 325.548 181.977C325.479 182.144 325.361 182.287 325.211 182.388C325.06 182.488 324.883 182.542 324.702 182.541Z" fill="white"/>
<path d="M399.499 147.506H346.664C346.227 147.51 345.794 147.424 345.392 147.253C344.99 147.081 344.628 146.829 344.328 146.511C344.029 146.194 343.798 145.817 343.65 145.406C343.503 144.995 343.442 144.558 343.472 144.122L345.931 99.4531C345.99 98.562 346.383 97.726 347.031 97.1115C347.679 96.497 348.535 96.149 349.428 96.1368H402.274C402.71 96.1342 403.142 96.2216 403.542 96.3934C403.943 96.5653 404.304 96.8179 404.602 97.1354C404.901 97.453 405.131 97.8288 405.277 98.2392C405.424 98.6496 405.485 99.0859 405.455 99.5208L402.996 144.19C402.937 145.081 402.544 145.917 401.896 146.531C401.248 147.146 400.392 147.494 399.499 147.506ZM349.428 97.0617C348.766 97.0691 348.132 97.3268 347.652 97.7831C347.173 98.2394 346.884 98.8602 346.844 99.5208L344.385 144.19C344.365 144.498 344.409 144.807 344.513 145.098C344.618 145.389 344.781 145.655 344.992 145.88C345.204 146.106 345.459 146.285 345.743 146.408C346.027 146.53 346.332 146.593 346.641 146.592H399.477C400.139 146.585 400.773 146.327 401.252 145.871C401.731 145.415 402.02 144.794 402.06 144.133L404.519 99.4644C404.541 99.1538 404.497 98.8421 404.393 98.549C404.288 98.2559 404.123 97.9876 403.91 97.7611C403.696 97.537 403.439 97.3592 403.154 97.2389C402.868 97.1186 402.561 97.0583 402.252 97.0617H349.428Z" fill="#BA68C8"/>
<path d="M404.497 108.961H345.841C345.732 108.944 345.633 108.889 345.561 108.805C345.489 108.721 345.45 108.615 345.45 108.504C345.45 108.394 345.489 108.288 345.561 108.204C345.633 108.12 345.732 108.065 345.841 108.048H404.497C404.563 108.037 404.63 108.041 404.694 108.059C404.759 108.078 404.818 108.11 404.869 108.153C404.92 108.196 404.961 108.25 404.989 108.311C405.017 108.372 405.031 108.438 405.031 108.504C405.031 108.571 405.017 108.637 404.989 108.698C404.961 108.759 404.92 108.813 404.869 108.856C404.818 108.899 404.759 108.931 404.694 108.95C404.63 108.968 404.563 108.972 404.497 108.961Z" fill="#BA68C8"/>
<path d="M357.617 147.506C357.496 147.497 357.384 147.441 357.303 147.351C357.223 147.26 357.182 147.141 357.188 147.021L359.264 108.477C359.267 108.417 359.281 108.357 359.308 108.303C359.334 108.249 359.37 108.2 359.416 108.16C359.461 108.12 359.514 108.09 359.571 108.07C359.628 108.051 359.689 108.044 359.749 108.048C359.869 108.057 359.982 108.113 360.062 108.203C360.142 108.294 360.184 108.412 360.177 108.533L358.068 147.088C358.057 147.201 358.005 147.306 357.922 147.383C357.839 147.46 357.73 147.503 357.617 147.506Z" fill="#BA68C8"/>
<path d="M397.785 113.541H365.964C365.855 113.524 365.756 113.469 365.684 113.385C365.613 113.301 365.573 113.195 365.573 113.085C365.573 112.974 365.613 112.868 365.684 112.784C365.756 112.7 365.855 112.645 365.964 112.628H397.785C397.851 112.617 397.918 112.621 397.983 112.64C398.047 112.658 398.107 112.69 398.157 112.733C398.208 112.776 398.249 112.83 398.277 112.891C398.305 112.952 398.319 113.018 398.319 113.085C398.319 113.151 398.305 113.217 398.277 113.278C398.249 113.339 398.208 113.393 398.157 113.436C398.107 113.48 398.047 113.511 397.983 113.53C397.918 113.548 397.851 113.552 397.785 113.541Z" fill="#BA68C8"/>
<path d="M392.991 119.159H365.659C365.593 119.169 365.526 119.165 365.462 119.147C365.397 119.129 365.338 119.097 365.287 119.053C365.236 119.01 365.195 118.956 365.167 118.895C365.139 118.835 365.125 118.769 365.125 118.702C365.125 118.635 365.139 118.569 365.167 118.508C365.195 118.448 365.236 118.394 365.287 118.35C365.338 118.307 365.397 118.275 365.462 118.257C365.526 118.239 365.593 118.234 365.659 118.245H392.991C393.057 118.234 393.124 118.239 393.189 118.257C393.253 118.275 393.312 118.307 393.363 118.35C393.414 118.394 393.455 118.448 393.483 118.508C393.511 118.569 393.525 118.635 393.525 118.702C393.525 118.769 393.511 118.835 393.483 118.895C393.455 118.956 393.414 119.01 393.363 119.053C393.312 119.097 393.253 119.129 393.189 119.147C393.124 119.165 393.057 119.169 392.991 119.159Z" fill="#BA68C8"/>
<path d="M381.248 124.956H365.344C365.278 124.967 365.21 124.963 365.146 124.945C365.081 124.926 365.022 124.895 364.971 124.851C364.92 124.808 364.879 124.754 364.852 124.693C364.824 124.632 364.809 124.566 364.809 124.5C364.809 124.433 364.824 124.367 364.852 124.306C364.879 124.245 364.92 124.191 364.971 124.148C365.022 124.105 365.081 124.073 365.146 124.055C365.21 124.036 365.278 124.032 365.344 124.043H381.248C381.314 124.032 381.382 124.036 381.446 124.055C381.51 124.073 381.57 124.105 381.621 124.148C381.672 124.191 381.712 124.245 381.74 124.306C381.768 124.367 381.783 124.433 381.783 124.5C381.783 124.566 381.768 124.632 381.74 124.693C381.712 124.754 381.672 124.808 381.621 124.851C381.57 124.895 381.51 124.926 381.446 124.945C381.382 124.963 381.314 124.967 381.248 124.956Z" fill="#BA68C8"/>
<path d="M384.136 136.282H364.723C364.657 136.292 364.59 136.288 364.525 136.27C364.461 136.252 364.402 136.22 364.351 136.176C364.3 136.133 364.259 136.079 364.231 136.018C364.203 135.958 364.189 135.892 364.189 135.825C364.189 135.758 364.203 135.692 364.231 135.631C364.259 135.571 364.3 135.517 364.351 135.473C364.402 135.43 364.461 135.398 364.525 135.38C364.59 135.362 364.657 135.358 364.723 135.368H384.136C384.202 135.358 384.27 135.362 384.334 135.38C384.398 135.398 384.458 135.43 384.509 135.473C384.559 135.517 384.6 135.571 384.628 135.631C384.656 135.692 384.671 135.758 384.671 135.825C384.671 135.892 384.656 135.958 384.628 136.018C384.6 136.079 384.559 136.133 384.509 136.176C384.458 136.22 384.398 136.252 384.334 136.27C384.27 136.288 384.202 136.292 384.136 136.282Z" fill="#BA68C8"/>
<path d="M380.312 142.08H364.396C364.287 142.063 364.188 142.007 364.117 141.923C364.045 141.84 364.006 141.733 364.006 141.623C364.006 141.513 364.045 141.406 364.117 141.322C364.188 141.239 364.287 141.183 364.396 141.166H380.312C380.421 141.183 380.52 141.239 380.592 141.322C380.663 141.406 380.703 141.513 380.703 141.623C380.703 141.733 380.663 141.84 380.592 141.923C380.52 142.007 380.421 142.063 380.312 142.08Z" fill="#BA68C8"/>
<path d="M389.618 142.079H384.531C384.465 142.09 384.397 142.086 384.333 142.068C384.269 142.05 384.209 142.018 384.158 141.974C384.108 141.931 384.067 141.877 384.039 141.816C384.011 141.755 383.996 141.689 383.996 141.623C383.996 141.556 384.011 141.49 384.039 141.429C384.067 141.368 384.108 141.314 384.158 141.271C384.209 141.228 384.269 141.196 384.333 141.178C384.397 141.159 384.465 141.155 384.531 141.166H389.618C389.684 141.155 389.752 141.159 389.816 141.178C389.88 141.196 389.94 141.228 389.991 141.271C390.042 141.314 390.082 141.368 390.11 141.429C390.138 141.49 390.153 141.556 390.153 141.623C390.153 141.689 390.138 141.755 390.11 141.816C390.082 141.877 390.042 141.931 389.991 141.974C389.94 142.018 389.88 142.05 389.816 142.068C389.752 142.086 389.684 142.09 389.618 142.079Z" fill="#BA68C8"/>
<path d="M394.83 130.585H365.028C364.905 130.585 364.787 130.536 364.701 130.45C364.614 130.363 364.565 130.245 364.565 130.123C364.565 130 364.614 129.882 364.701 129.796C364.787 129.709 364.905 129.66 365.028 129.66H394.83C394.952 129.66 395.07 129.709 395.157 129.796C395.243 129.882 395.292 130 395.292 130.123C395.292 130.245 395.243 130.363 395.157 130.45C395.07 130.536 394.952 130.585 394.83 130.585Z" fill="#BA68C8"/>
<path d="M367.047 212.512C360.144 212.512 354.492 210.47 350.984 206.68C347.228 202.631 345.671 196.258 346.709 189.196C347.079 185.278 348.537 181.541 350.919 178.407C353.301 175.274 356.512 172.869 360.189 171.464C364.493 169.521 369.172 168.547 373.895 168.609C378.617 168.672 383.268 169.769 387.52 171.825C391.231 173.686 393.555 176.044 394.435 178.83C394.508 179.062 394.486 179.313 394.374 179.529C394.319 179.636 394.243 179.731 394.15 179.808C394.058 179.886 393.952 179.944 393.837 179.981C393.605 180.054 393.354 180.032 393.138 179.92C392.922 179.808 392.76 179.615 392.686 179.383C391.964 177.127 389.945 175.096 386.697 173.461C382.687 171.527 378.303 170.495 373.851 170.438C369.4 170.382 364.991 171.302 360.933 173.134C357.54 174.416 354.576 176.628 352.381 179.517C350.187 182.405 348.85 185.854 348.525 189.467C347.566 195.976 348.954 201.796 352.327 205.428C357.008 210.493 364.735 210.854 368.976 210.628C376.804 210.188 383.527 207.459 387.926 202.935C393.07 197.634 394.514 189.715 391.31 184.504C390.907 183.753 390.344 183.101 389.659 182.594C388.975 182.087 388.186 181.738 387.351 181.571C387.119 181.536 386.91 181.413 386.766 181.228C386.622 181.044 386.555 180.81 386.578 180.577C386.601 180.344 386.713 180.129 386.89 179.976C387.068 179.823 387.297 179.744 387.531 179.755C388.653 179.929 389.718 180.361 390.644 181.017C391.569 181.672 392.331 182.534 392.867 183.534C396.522 189.444 394.976 198.322 389.269 204.21C384.542 209.072 377.391 211.993 369.1 212.456C368.389 212.512 367.712 212.512 367.047 212.512Z" fill="white"/>
<path d="M132.897 117.016L129.637 122.656L126.456 128.442C124.358 132.311 122.351 136.214 120.523 140.129C119.609 142.103 118.741 144.054 117.951 146.017L117.805 146.378V146.457C117.765 146.506 117.731 146.558 117.703 146.615C117.644 146.72 117.591 146.829 117.545 146.942C117.474 147.367 117.521 147.804 117.681 148.205C118.306 149.744 119.23 151.143 120.399 152.322C121.781 153.804 123.254 155.198 124.81 156.496L122.159 162.136C120.916 161.793 119.698 161.363 118.515 160.85C117.351 160.336 116.221 159.748 115.131 159.09C112.598 157.622 110.425 155.606 108.769 153.191C107.752 151.636 107.075 149.883 106.784 148.047C106.649 147.029 106.649 145.997 106.784 144.979C106.829 144.473 106.916 143.971 107.044 143.479L107.224 142.745L107.359 142.294C108.093 140.038 108.837 137.703 109.717 135.526C111.431 131.105 113.372 126.818 115.47 122.656C116.53 120.58 117.613 118.516 118.763 116.486C119.914 114.455 121.019 112.47 122.373 110.417L132.897 117.016Z" fill="white"/>
<path d="M121.933 155.887L127.855 154.342L128.193 163.907C128.193 163.907 123.557 164.595 120.726 161.764L121.933 155.887Z" fill="white"/>
<path d="M136.259 152.729L134.916 161.132L128.194 163.907L127.855 154.342L136.259 152.729Z" fill="white"/>
<path d="M160.736 71.9185C160.872 72.5728 161.323 73.0465 161.752 72.945C162.18 72.8435 162.428 72.2569 162.293 71.6027C162.158 70.9485 161.706 70.4747 161.278 70.5762C160.849 70.6777 160.646 71.2643 160.736 71.9185Z" fill="#263238"/>
<path d="M161.3 73.0469C162.488 74.8887 163.922 76.5587 165.564 78.0101C165.184 78.4209 164.718 78.743 164.2 78.9536C163.681 79.1641 163.123 79.2579 162.564 79.2283L161.3 73.0469Z" fill="#ED847E"/>
<path d="M157.634 68.7715C157.537 68.7683 157.444 68.728 157.375 68.6587C157.338 68.6229 157.308 68.58 157.288 68.5325C157.268 68.485 157.257 68.434 157.257 68.3824C157.257 68.3307 157.268 68.2797 157.288 68.2322C157.308 68.1847 157.338 68.1418 157.375 68.106C157.792 67.6323 158.318 67.2667 158.907 67.0408C159.497 66.8149 160.132 66.7353 160.759 66.8088C160.81 66.8169 160.858 66.8352 160.902 66.8625C160.945 66.8897 160.983 66.9255 161.012 66.9675C161.042 67.0096 161.063 67.0572 161.073 67.1074C161.084 67.1577 161.084 67.2096 161.075 67.26C161.058 67.3631 161.001 67.4555 160.917 67.5168C160.832 67.5781 160.727 67.6034 160.624 67.5871C160.134 67.5419 159.64 67.6134 159.183 67.7958C158.727 67.9781 158.319 68.2661 157.995 68.6362C157.952 68.6886 157.896 68.7287 157.833 68.7525C157.77 68.7763 157.701 68.7828 157.634 68.7715Z" fill="#263238"/>
<path d="M142.113 81.123C143.309 87.1917 144.493 98.3025 140.252 102.341C140.252 102.341 141.91 108.488 153.167 108.488C165.575 108.488 159.089 102.341 159.089 102.341C152.321 100.728 152.502 95.7194 153.686 91.0043L142.113 81.123Z" fill="white"/>
<path d="M137.804 103.469C136.902 101.788 135.898 99.8592 137.962 99.2501C140.218 98.5846 154.814 97.355 159.101 98.6071C157.781 100.942 160.003 103.818 160.003 103.818L137.804 103.469Z" fill="#263238"/>
<path d="M101.11 386.089C101.445 386.207 101.799 386.259 102.154 386.239C102.508 386.22 102.855 386.13 103.174 385.976C103.298 385.863 103.383 385.714 103.417 385.55C103.452 385.386 103.434 385.216 103.366 385.062C103.328 384.935 103.263 384.818 103.176 384.719C103.088 384.62 102.98 384.541 102.859 384.487C101.731 383.957 99.17 385.006 99.0572 385.051C99.0214 385.063 98.9903 385.086 98.968 385.116C98.9458 385.146 98.9336 385.183 98.9331 385.22C98.9334 385.258 98.9441 385.295 98.964 385.327C98.9839 385.358 99.0122 385.384 99.0459 385.401C99.7079 385.702 100.4 385.933 101.11 386.089ZM102.452 384.769C102.534 384.783 102.613 384.806 102.689 384.837C102.76 384.869 102.822 384.916 102.873 384.974C102.923 385.033 102.961 385.101 102.983 385.175C103.095 385.536 102.983 385.638 102.915 385.683C102.475 386.055 100.817 385.683 99.655 385.243C100.54 384.878 101.496 384.716 102.452 384.769Z" fill="#BA68C8"/>
<path d="M99.0911 385.424H99.1814C100.118 385.153 102.125 383.732 102.148 382.795C102.152 382.648 102.105 382.503 102.014 382.386C101.924 382.269 101.796 382.186 101.652 382.153C101.51 382.102 101.36 382.081 101.21 382.093C101.06 382.105 100.915 382.148 100.783 382.22C99.6551 382.795 98.967 385.085 98.9445 385.187C98.9287 385.216 98.9204 385.249 98.9204 385.283C98.9204 385.316 98.9287 385.349 98.9445 385.379L99.0911 385.424ZM101.437 382.491H101.516C101.764 382.581 101.764 382.694 101.764 382.75C101.764 383.303 100.422 384.42 99.5085 384.871C99.7717 383.961 100.297 383.149 101.02 382.536C101.151 382.479 101.297 382.463 101.437 382.491Z" fill="#BA68C8"/>
<path d="M162.293 387.476C163.353 387.476 164.38 387.33 164.729 386.856C164.816 386.73 164.863 386.58 164.863 386.427C164.863 386.274 164.816 386.125 164.729 385.999C164.663 385.883 164.573 385.783 164.467 385.704C164.36 385.624 164.238 385.567 164.109 385.536C162.733 385.164 159.834 386.811 159.71 386.89C159.674 386.909 159.646 386.939 159.63 386.976C159.613 387.012 159.61 387.054 159.62 387.093C159.625 387.131 159.643 387.166 159.669 387.194C159.695 387.222 159.729 387.242 159.766 387.251C160.601 387.396 161.446 387.472 162.293 387.476ZM163.601 385.875C163.729 385.857 163.858 385.857 163.985 385.875C164.064 385.89 164.14 385.922 164.206 385.969C164.272 386.016 164.327 386.076 164.369 386.145C164.504 386.393 164.459 386.517 164.369 386.585C163.985 387.115 161.887 387.127 160.353 386.912C161.358 386.358 162.461 386.006 163.601 385.875Z" fill="#BA68C8"/>
<path d="M159.789 387.251H159.868C160.872 386.8 162.846 384.995 162.699 384.07C162.699 383.844 162.507 383.574 161.966 383.517C161.765 383.495 161.561 383.513 161.367 383.571C161.173 383.629 160.993 383.726 160.838 383.856C159.789 384.724 159.563 386.958 159.552 387.048C159.553 387.083 159.561 387.117 159.577 387.148C159.592 387.179 159.615 387.207 159.642 387.228C159.664 387.242 159.688 387.251 159.713 387.254C159.738 387.258 159.764 387.257 159.789 387.251ZM161.808 383.867H161.921C162.282 383.867 162.304 384.036 162.304 384.081C162.394 384.645 161.052 386.055 160.048 386.664C160.146 385.717 160.54 384.824 161.176 384.115C161.371 383.96 161.615 383.88 161.864 383.889L161.808 383.867Z" fill="#BA68C8"/>
<path d="M150.675 387.059H158.965L159.789 367.86H151.498L150.675 387.059Z" fill="white"/>
<path d="M89.8528 383.224L97.9518 384.972L106.085 367.104L97.9857 365.345L89.8528 383.224Z" fill="white"/>
<path d="M98.6963 384.161L89.6723 382.187C89.5126 382.154 89.3465 382.176 89.201 382.25C89.0556 382.324 88.9394 382.444 88.8714 382.593L85.713 389.451C85.6361 389.617 85.598 389.799 85.6018 389.982C85.6056 390.166 85.6511 390.346 85.7348 390.509C85.8185 390.672 85.9382 390.814 86.085 390.923C86.2317 391.033 86.4015 391.108 86.5816 391.143C89.7738 391.775 91.353 391.921 95.3574 392.79C97.8165 393.32 103.378 394.673 106.773 395.418C110.168 396.162 111.285 392.88 110.021 392.282C104.077 389.564 101.595 387.172 99.9822 384.939C99.6689 384.524 99.2087 384.246 98.6963 384.161Z" fill="#263238"/>
<path d="M158.909 386.101H149.885C149.721 386.1 149.562 386.155 149.435 386.258C149.307 386.361 149.219 386.504 149.185 386.665L147.55 394.03C147.509 394.207 147.508 394.391 147.549 394.569C147.59 394.746 147.67 394.911 147.784 395.053C147.898 395.194 148.043 395.307 148.208 395.384C148.373 395.461 148.553 395.5 148.734 395.497C152.005 395.497 156.721 395.26 160.826 395.26C165.62 395.26 169.76 395.519 175.389 395.519C178.773 395.519 179.743 392.079 178.31 391.763C171.836 390.353 166.534 390.195 160.939 386.744C160.336 386.344 159.632 386.121 158.909 386.101Z" fill="#263238"/>
<path d="M125.407 104.225C117.647 106.007 111.24 125.837 111.24 125.837L126.896 137.715C130.931 133.41 133.78 128.132 135.165 122.397C137.782 112.008 133.349 102.397 125.407 104.225Z" fill="#BA68C8"/>
<path opacity="0.2" d="M125.407 104.225C117.647 106.007 111.24 125.837 111.24 125.837L126.896 137.715C130.931 133.41 133.78 128.132 135.165 122.397C137.782 112.008 133.349 102.397 125.407 104.225Z" fill="#FAFAFA"/>
<path opacity="0.2" d="M132.063 118.798C127.844 122.971 126.423 130.574 126.141 137.184L126.829 137.714C130.869 133.412 133.722 128.133 135.108 122.396C135.266 121.776 135.402 121.155 135.514 120.546L132.063 118.798Z" fill="black"/>
<path d="M171.836 104.641C171.836 104.641 180.657 114.602 172.321 176.269H128.024C127.72 169.501 131.995 136.27 125.43 104.213C130.333 103.27 135.291 102.644 140.274 102.34C146.548 101.979 152.838 101.979 159.112 102.34C163.407 102.775 167.661 103.544 171.836 104.641Z" fill="#BA68C8"/>
<path opacity="0.2" d="M171.836 104.641C171.836 104.641 180.657 114.602 172.321 176.269H128.024C127.72 169.501 131.995 136.27 125.43 104.213C130.333 103.27 135.291 102.644 140.274 102.34C146.548 101.979 152.838 101.979 159.112 102.34C163.407 102.775 167.661 103.544 171.836 104.641Z" fill="#FAFAFA"/>
<path opacity="0.2" d="M175.705 123.49L175.536 123.344L165.463 125.758C164.887 132.526 171.892 140.715 175.502 144.437C175.948 137.464 176.016 130.471 175.705 123.49Z" fill="black"/>
<path opacity="0.2" d="M159.789 367.872L159.36 377.765H151.069L151.498 367.872H159.789Z" fill="black"/>
<path opacity="0.2" d="M97.9745 365.345L106.085 367.104L101.889 376.32L93.7783 374.561L97.9745 365.345Z" fill="black"/>
<path d="M138.65 74.9637C140.771 82.9161 141.617 87.6649 146.546 90.97C153.912 95.9445 163.094 90.2368 163.387 81.8219C163.646 74.2417 160.116 62.5218 151.588 60.9201C149.709 60.5538 147.768 60.6747 145.949 61.2712C144.13 61.8678 142.494 62.9202 141.197 64.3281C139.899 65.736 138.984 67.4526 138.539 69.3144C138.093 71.1761 138.131 73.1209 138.65 74.9637Z" fill="white"/>
<path d="M142.294 87.9247C145.678 89.8536 157.984 83.4127 155.457 73.5991C155.457 73.5991 160.15 67.9591 159.62 61.7325C159.09 55.506 154.814 53.1372 150.269 54.4795C146.264 55.6075 146.377 57.8635 146.377 57.8635C146.377 57.8635 127.438 60.1195 131.487 67.8012C123.772 76.1822 138.075 85.5108 142.294 87.9247Z" fill="#263238"/>
<path d="M132.017 68.4101C132.017 68.4101 129.761 64.5073 126.468 66.6956C128.024 66.7181 130.551 67.0001 132.017 68.4101Z" fill="#263238"/>
<path d="M159.01 65.8725C159.01 65.8725 163.139 56.5552 156.754 53.5547C157.943 55.3489 158.756 57.3655 159.144 59.4826C159.531 61.5997 159.486 63.7734 159.01 65.8725Z" fill="#263238"/>
<path d="M152.163 75.3021C152.713 77.2783 153.903 79.0161 155.547 80.2427C157.702 81.8445 159.315 80.2427 159.168 77.8288C159.022 75.6292 157.736 72.1888 155.356 71.5007C152.976 70.8127 151.543 72.9107 152.163 75.3021Z" fill="white"/>
<path d="M156.608 176.27C156.608 176.27 147.2 239.584 142.034 263.272C136.394 289.216 106.062 375.215 106.062 375.215L91.229 372C91.229 372 112.435 301.951 117.173 265.63C120.816 237.734 128.002 176.225 128.002 176.225L156.608 176.27Z" fill="#263238"/>
<path d="M109.615 370.309C109.683 370.309 106.852 375.678 106.852 375.678L90.1685 372.057L91.5672 367.049L109.615 370.309Z" fill="#BA68C8"/>
<path opacity="0.3" d="M150.663 198.83C139.789 200.962 140.94 241.514 142.248 262.37C145.384 247.627 149.975 219.258 153.111 199.123C152.352 198.75 151.489 198.646 150.663 198.83Z" fill="black"/>
<path d="M172.321 176.27C172.321 176.27 173.449 238.231 172.569 263.498C171.633 289.78 162.417 375.847 162.417 375.847H148.407C148.407 375.847 147.9 291.314 147.279 265.506C146.603 237.306 143.207 176.27 143.207 176.27H172.321Z" fill="#263238"/>
<path opacity="0.4" d="M250.254 132.594H221.66L220.058 161.674L248.619 162.441L250.254 132.594Z" fill="#263238"/>
<path d="M235.184 151.308L206.544 147.766C208.848 138.128 210.569 128.361 211.699 118.517L240.508 122.059C239.322 131.906 237.544 141.673 235.184 151.308Z" fill="#BA68C8"/>
<path d="M165.147 370.252C165.214 370.252 164.357 376.084 164.357 376.084H147.279L146.817 370.884L165.147 370.252Z" fill="#BA68C8"/>
<path d="M175.919 112.199C177.194 114.184 178.649 116.418 180.104 118.471C181.559 120.524 183.059 122.622 184.616 124.618C187.58 128.575 190.886 132.263 194.497 135.639C195.346 136.435 196.235 137.188 197.159 137.895L197.836 138.403C197.708 138.347 197.576 138.302 197.441 138.267C197.148 138.267 197.001 138.267 197.08 138.267C197.728 138.291 198.37 138.143 198.942 137.839C199.929 137.42 200.883 136.926 201.795 136.361C206.009 133.601 210.006 130.524 213.752 127.156L218.591 131.059C215.659 135.989 212.001 140.45 207.74 144.291C206.542 145.361 205.247 146.317 203.871 147.145C202.134 148.228 200.197 148.949 198.175 149.265C196.728 149.455 195.258 149.328 193.866 148.893C193.094 148.651 192.355 148.313 191.666 147.889L190.696 147.269C189.399 146.434 188.169 145.543 187.007 144.629C182.519 141.004 178.428 136.912 174.802 132.424C173.031 130.236 171.317 128.025 169.726 125.724C168.136 123.423 166.613 121.212 165.124 118.595L175.919 112.199Z" fill="white"/>
<path d="M159.608 117.174C156.958 128.285 177.058 139.17 177.058 139.17L190.121 123.874C186.204 118.086 181.735 112.692 176.776 107.766C167.685 99.0016 161.661 108.736 159.608 117.174Z" fill="#BA68C8"/>
<path opacity="0.2" d="M159.608 117.174C156.958 128.285 177.058 139.17 177.058 139.17L190.121 123.874C186.204 118.086 181.735 112.692 176.776 107.766C167.685 99.0016 161.661 108.736 159.608 117.174Z" fill="#FAFAFA"/>
<path d="M212.376 129.469L215.467 119.565L223.577 123.615C223.577 123.615 222.393 130.834 216.482 132.086L212.376 129.469Z" fill="white"/>
<path d="M218.715 116.824L226.025 118.843L223.577 123.615L215.456 119.565L218.715 116.824Z" fill="white"/>
</svg>
