<svg width="441" height="442" viewBox="0 0 441 442" fill="none" xmlns="http://www.w3.org/2000/svg">
<path opacity="0.15" d="M422.513 298.572C379.721 398.559 265.756 454.571 166.911 439.456C150.829 436.994 106.743 429.673 67.7037 395.119C-7.44286 328.614 -23.5097 196.913 37.0995 104.105C81.232 36.5582 160.32 -1.73555 235.467 0.173613C251.66 0.583848 313.688 3.12415 368.211 47.745C376.221 54.293 393.88 69.8661 409.805 94.5749C447.189 152.591 450.39 233.423 422.513 298.572Z" fill="url(#paint0_linear)"/>
<path d="M422.167 21.9479C428.568 25.4033 434.67 30.4208 436.389 35.3594C444.131 57.654 420.101 82.1261 409.994 99.4348C392.635 129.177 381.913 163.132 382.985 197.781C384.152 235.333 382.228 271.749 370.592 307.865C364.601 326.468 355.219 345.654 339.956 358.529C311.118 382.875 255.145 355.926 250.068 321.529C246.015 294.091 254.971 266.763 266.56 242.307C286.048 201.141 312.001 163.479 331.742 122.455C346.831 91.0881 355.929 24.6617 397.617 17.5142C405.249 16.2204 415.371 18.2873 422.167 21.9479Z" fill="#BDD0FB"/>
<path d="M287.388 418.219C287.404 418.219 287.42 418.219 287.435 418.219C288.176 418.187 288.776 417.572 288.744 416.814C287.073 365.314 292.686 313.167 305.41 261.841C315.596 220.77 330.338 180.141 349.211 141.058C381.361 74.5371 414.787 35.123 415.118 34.7286C415.607 34.1605 415.544 33.3085 414.976 32.8194C414.409 32.3303 413.557 32.3934 413.068 32.9614C412.737 33.3558 379.074 73.0223 346.767 139.875C327.799 179.131 312.994 219.934 302.777 261.178C289.99 312.741 284.361 365.141 286.032 416.893C286.048 417.635 286.663 418.219 287.388 418.219Z" fill="#91B3FA"/>
<path d="M201.126 254.662C189.159 222.979 159.753 195.414 137.127 167.518C125.16 152.75 114.769 137.287 108.162 119.363C101.588 101.549 99.3328 79.5388 83.1084 67.2317C50.4229 42.4283 24.8958 76.4305 19.33 112.058C12.8812 153.397 33.0159 203.714 44.7152 244.611C51.7631 269.256 56.5091 295.937 66.2217 319.636C82.32 358.893 104.93 379.72 132.144 387.073C158.255 394.125 185.816 383.128 199.959 360.076C212.746 339.249 220.409 305.767 201.126 254.662Z" fill="#91B3FA"/>
<path d="M199.06 435.007C198.319 435.038 197.578 434.738 197.09 434.123C196.758 433.729 164.341 393.273 129.622 331.848C97.5511 275.126 56.8717 188.393 45.2039 97.226C45.0305 95.9164 45.9607 94.7014 47.2852 94.5437C48.6096 94.3543 49.8079 95.301 49.9656 96.6264C72.1186 269.651 199.549 429.516 200.826 431.109C201.662 432.135 201.489 433.65 200.464 434.486C200.038 434.817 199.549 434.991 199.06 435.007Z" fill="#7D97F4"/>
<path d="M201.173 441.192H292.938C293.916 441.192 294.72 440.387 294.72 439.409V347.58C294.72 346.602 293.916 345.797 292.938 345.797H201.173C200.195 345.797 199.391 346.602 199.391 347.58V439.409C199.391 440.387 200.195 441.192 201.173 441.192Z" fill="#BA68C8"/>
<path d="M161.03 346.617H253.095C253.993 346.617 254.734 345.891 254.734 344.976V252.847C254.734 251.948 254.009 251.206 253.095 251.206H161.03C160.131 251.206 159.39 251.932 159.39 252.847V344.976C159.39 345.876 160.131 346.617 161.03 346.617Z" fill="url(#paint1_linear)"/>
<path d="M183.261 254.709H274.585C275.688 254.709 276.587 253.809 276.587 252.705V161.317C276.587 160.213 275.688 159.313 274.585 159.313H183.261C182.157 159.313 181.259 160.213 181.259 161.317V252.705C181.259 253.809 182.157 254.709 183.261 254.709Z" fill="url(#paint2_linear)"/>
<path d="M297.038 117.785C297.038 117.785 298.394 177.112 360.722 187.509L371.917 176.449C371.917 176.449 317.945 158.083 303.897 119.71L306.893 99.3565L304.78 85.8818L297.038 117.785Z" fill="white"/>
<path d="M245.006 96.6111H337.418C338.222 96.6111 338.884 95.9642 338.884 95.1437V2.6832C338.884 1.87851 338.238 1.21582 337.418 1.21582H245.006C244.202 1.21582 243.54 1.86273 243.54 2.6832V95.1595C243.54 95.9642 244.186 96.6111 245.006 96.6111Z" fill="url(#paint3_linear)"/>
<path d="M357.301 321.025C357.301 321.025 386.88 385.527 402.395 412.239C402.395 412.239 405.469 429.043 402.395 434.329L399.762 435.496L412.013 435.133C412.013 435.133 413.101 412.523 412.249 411.261C411.398 409.999 409.695 410.078 409.695 410.078C409.695 410.078 404.445 368.407 389.213 359.524L374.471 308.687L357.301 321.025Z" fill="white"/>
<path d="M394.526 438.669C394.511 438.968 404.097 438.826 409.3 438.732C411.224 438.7 412.864 437.343 413.274 435.466L417.2 414.78C417.578 412.808 416.332 410.899 414.377 410.457L412.186 409.952C412.186 409.952 409.048 414.26 410.041 418.299C411.035 422.354 411.902 432.831 409.411 434.061C406.919 435.276 399.745 435.497 399.745 435.497C399.745 435.497 394.7 436.002 394.526 438.669Z" fill="#BA68C8"/>
<path d="M329.282 439.047C328.305 439.599 328.715 441.083 329.834 441.067C338.553 440.972 358.089 440.704 359.823 439.978C362.062 439.047 359.003 430.985 355.787 428.255L338.017 434.061L329.282 439.047Z" fill="#BA68C8"/>
<path d="M323.763 316.907C323.763 316.907 342.873 409.415 348.281 427.465L335.494 435.497C335.494 435.497 341.895 434.408 346.657 434.061C351.403 433.714 355.786 428.254 355.786 428.254L354.257 425.809C354.257 425.809 349.464 333.806 350.63 323.361L323.763 316.907Z" fill="white"/>
<path d="M276.32 101.124C276.32 101.124 273.687 149.248 317.472 173.846L306.924 197.908C306.924 197.908 267.285 173.909 268.752 108.477C268.799 106.599 268.121 104.769 266.891 103.349L258.471 93.5663C255.255 89.8426 254.056 84.7778 255.255 80.0128L256.358 75.5791C256.737 74.0959 258.424 73.3859 259.748 74.1433L260.631 74.6482C263.438 76.2733 265.661 78.7505 266.986 81.7168L271.117 90.9629C272.662 94.4183 276.225 96.5168 279.994 96.1855L282.548 95.9646L276.32 101.124Z" fill="white"/>
<path d="M315.942 170.233C323.274 172.268 348.076 178.801 363.575 178.532L354.068 232.242L354.824 240.998L323.81 240.856C323.81 240.856 315.075 220.566 308.185 210.452C306.198 207.533 307.68 204.046 308.8 200.701L307.255 199.675C305.678 198.618 305 196.646 305.583 194.847L313.136 171.732C313.546 170.564 314.76 169.917 315.942 170.233Z" fill="#BB6BD9"/>
<path d="M321.336 236.297L321.95 241.598C321.95 241.598 313.184 267.869 326.334 329.199C326.334 329.199 354.809 337.277 378.208 317.949C378.208 317.949 371.601 260.043 369.804 257.361C360.817 243.933 354.841 241.014 354.841 241.014L354.573 235.224C354.557 235.208 329.534 239.736 321.336 236.297Z" fill="#9B51E0"/>
<path d="M333.476 174.572C333.366 174.43 339.957 154.676 339.957 154.676L349.385 155.528L353.075 177.933C353.059 177.933 338.285 180.915 333.476 174.572Z" fill="url(#paint4_linear)"/>
<path d="M347.114 123.545C346.484 123.939 326.964 132.018 331.158 152.293C331.41 153.492 332.198 154.502 333.318 155.006C336.188 156.284 342.353 158.478 349.732 157.72C359.965 156.679 366.666 138.818 366.382 133.627C366.098 128.42 353.342 119.663 347.114 123.545Z" fill="white"/>
<path d="M353.059 115.656C352.538 115.719 341.785 119.474 347.114 127.285C352.459 135.095 354.462 139.686 351.939 143.126C349.637 146.25 344.544 144.467 344.986 150.968C345.08 152.261 344.513 153.524 343.44 154.265C338.631 157.516 326.916 167.535 338.521 181.814C339.467 182.982 339.656 184.575 338.931 185.885C335.525 191.991 328.383 209.868 354.241 219.792C379.8 229.591 389.024 212.882 391.594 206.192C392.145 204.74 393.58 203.856 395.125 203.935C397.932 204.061 401.905 203.604 401.732 199.849C401.622 197.561 400.202 195.525 398.515 193.884C396.844 192.259 397.175 189.419 399.193 188.267C400.723 187.4 402.063 186.043 402.646 183.928C404.192 178.185 401.101 161.018 384.656 158.099C383.284 157.863 381.849 156.569 381.644 155.196C381.644 155.18 381.644 155.149 381.629 155.133C381.408 153.792 381.865 152.435 382.953 151.63C385.586 149.705 388.945 145.824 386.217 139.592C383.789 134.069 379.137 132.207 375.684 131.608C373.65 131.261 372.326 129.336 372.752 127.316C373.919 121.857 372.894 113.053 353.059 115.656Z" fill="url(#paint5_linear)"/>
<path d="M24.5494 423.773C24.5494 423.773 21.9635 427.844 21.3171 439.235C21.254 440.293 22.0897 441.208 23.1618 441.208H43.3281C44.1322 441.208 44.7156 440.419 44.4634 439.646C43.2808 436.143 39.7017 427.607 31.7392 422.731L24.5494 423.773Z" fill="url(#paint6_linear)"/>
<path d="M23.6663 416.057L24.8015 425.635C24.8961 426.455 25.5426 427.118 26.3782 427.212C27.4819 427.339 29.0902 427.433 30.6354 427.165C32.0544 426.928 33.0635 425.666 33.0635 424.23V414.984L23.6663 416.057Z" fill="white"/>
<path d="M74.4362 422.716C74.4362 422.716 70.5732 428.727 70.6521 436.964C70.6678 438.904 72.2919 440.451 74.2312 440.451H105.561C107.027 440.451 107.626 438.557 106.428 437.721C100.499 433.555 88.8474 425.777 80.4277 422.716H74.4362Z" fill="url(#paint7_linear)"/>
<path d="M71.2202 412.381L73.6484 424.198C73.9164 425.524 75.2093 426.407 76.5338 426.123C77.3379 425.95 78.2839 425.603 79.293 424.972C80.2548 424.372 80.7436 423.236 80.5387 422.116L78.0159 407.789L71.2202 412.381Z" fill="white"/>
<path d="M30.6825 244.295C30.6825 244.295 19.6769 255.497 18.0845 264.475C16.492 273.453 22.5939 419.402 22.5939 419.402C22.5939 419.402 31.0609 420.806 35.4126 418.171C35.4126 418.171 40.5843 323.454 44.5103 301.554C44.5103 301.554 65.1338 399.679 70.8416 417.398C70.8416 417.398 78.9932 418.392 81.6264 416.846C81.6264 416.846 76.7227 287.291 69.9271 264.68L30.6825 244.295Z" fill="url(#paint8_linear)"/>
<path d="M44.2742 298.478C43.8642 298.478 43.5016 298.209 43.3912 297.783L39.8909 284.34L32.433 279.543C32.0073 279.275 31.8812 278.707 32.1492 278.281C32.4173 277.855 32.9849 277.729 33.4106 277.997L41.1681 282.983C41.3573 283.109 41.4992 283.299 41.5622 283.52L45.1572 297.31C45.2833 297.799 44.9837 298.304 44.4949 298.43C44.4319 298.462 44.353 298.478 44.2742 298.478Z" fill="url(#paint9_linear)"/>
<path d="M109.424 154.644C74.1529 148.869 64.2983 155.48 64.2983 155.48L79.2141 183.786C79.2141 183.786 114.154 185.885 140.691 168.592C136.418 163.18 133.611 157.342 131.877 152.845C125.191 155.022 117.639 156.001 109.424 154.644Z" fill="#BA68C8"/>
<path d="M169.166 106.93C169.214 105.794 167.684 105.352 167.132 106.346L161.835 115.655C160.81 117.454 160.368 119.521 160.557 121.588L161.693 127.347C161.945 130.124 161.015 132.885 159.091 134.92C154.519 139.796 144.885 148.6 131.861 152.844C133.595 157.341 136.402 163.179 140.675 168.591C150.403 162.248 159.012 153.302 164.342 140.679C166.454 140.206 167.984 138.376 168.063 136.214L169.166 106.93Z" fill="white"/>
<path d="M108.415 158.714C93.1519 148.38 68.5078 147.812 54.4749 148.49C48.3257 148.79 43.2644 153.413 42.4761 159.535C40.1898 177.238 33.5045 223.484 32.0066 231.515C31.2025 235.807 26.0782 245.905 28.8374 249.707C29.8308 251.08 31.439 251.853 33 252.548C37.4936 254.536 42.0977 256.271 46.7017 257.991C50.139 259.285 53.592 260.579 57.0292 261.872C61.6175 263.592 69.4538 266.858 73.6006 262.977C77.7473 259.095 77.7789 252.39 79.3241 247.309C80.7116 242.718 82.2725 238.174 83.7547 233.614C87.5388 221.938 91.3072 210.262 95.0913 198.586C95.249 198.097 97.8979 191.123 97.5825 190.902C122.101 208.037 139.649 206.065 151.696 198.286C147.911 191.975 144.884 185.458 142.598 178.768C122.416 179.936 108.415 158.714 108.415 158.714Z" fill="#BB6BD9"/>
<path d="M173.801 167.723L169.213 163.857C159.69 174.271 150.639 178.31 142.582 178.768C144.853 185.458 147.88 191.959 151.68 198.286C167.526 188.046 173.801 167.723 173.801 167.723Z" fill="white"/>
<path d="M171.358 168.37L191.256 164.568L207.07 150.21C204.09 149.184 190.121 155.937 190.121 155.937C190.121 155.937 174.18 157.168 170.002 158.13C166.533 158.935 168.188 163.795 168.835 165.42C168.977 165.751 169.055 165.956 169.055 165.956L171.358 168.37Z" fill="white"/>
<path d="M67.4048 120.01L62.8796 147.827C62.8796 147.827 76.7548 153.333 86.1836 150.32L86.089 126.274L67.4048 120.01Z" fill="white"/>
<path d="M80.9807 98.6148C81.296 98.8988 94.6824 123.56 94.6824 123.56L80.4446 130.913L64.2832 109.423C64.2832 109.423 75.6829 93.8813 80.9807 98.6148Z" fill="white"/>
<path d="M70.8257 111.742L78.4413 123.718C78.5359 123.876 78.6463 124.002 78.7882 124.128C79.6238 124.87 82.6669 127.221 84.8743 123.954C86.8768 120.988 88.7531 118.322 90.8501 117.438C91.7962 117.044 92.8841 117.422 93.3729 118.322C94.5869 120.562 97.2358 125.658 98.8599 130.439C99.191 131.418 98.718 132.459 97.7719 132.885C94.9496 134.131 88.9107 136.593 83.5972 137.429C82.8719 137.54 82.1624 137.255 81.7051 136.687C79.5292 133.863 72.907 125.327 70.6996 123.244C68.6183 121.272 64.8657 122.219 63.3048 122.724C62.8002 122.897 62.2484 122.834 61.7753 122.582C60.104 121.682 56.7456 119.189 59.5995 114.614C60.1986 113.651 59.8833 112.405 58.9057 111.837C56.9663 110.701 54.6486 108.444 56.5406 104.531C58.4642 100.555 62.1538 100.255 64.5188 100.555C65.4806 100.666 66.3478 100.082 66.6474 99.151C66.8209 98.6303 67.215 98.1728 68.0507 98.0465C69.1859 97.8887 69.9112 96.7369 69.6274 95.6325C69.0913 93.4866 69.2332 90.5992 72.6863 88.5796C78.8197 84.9979 84.4171 90.4256 85.9307 95.096C87.4444 99.7664 80.5699 103.285 76.2181 103.948C72.907 104.452 71.2357 108.255 70.6208 110.038C70.4316 110.622 70.5104 111.237 70.8257 111.742Z" fill="url(#paint10_linear)"/>
<path d="M73.5222 127.568C73.5222 127.568 70.5422 119.537 67.0103 119.931C63.4785 120.326 60.7823 123.923 65.2759 127.773C70.8575 132.569 73.5222 127.568 73.5222 127.568Z" fill="white"/>
<path d="M145.578 156.679H237.99C238.794 156.679 239.456 156.032 239.456 155.211V62.735C239.456 61.9303 238.81 61.2676 237.99 61.2676H145.578C144.774 61.2676 144.112 61.9145 144.112 62.735V155.211C144.112 156.016 144.774 156.679 145.578 156.679Z" fill="url(#paint11_linear)"/>
<path d="M278.512 14.9109C278.512 10.8401 281.602 7.44779 285.654 7.02177C287.609 6.81666 289.706 6.69043 291.74 6.69043C297.858 6.69043 301.043 7.43201 304.102 9.65674C307.397 11.9919 310.046 17.183 310.046 24.8039C310.046 30.8469 308.201 36.5586 303.471 39.6354V39.8405C308.328 42.1757 311.386 48.5343 311.386 57.4333C311.386 64.423 309.368 69.9296 306.53 73.5429C303.408 77.3612 298.331 79.5859 289.675 79.5859C288.319 79.5859 287.058 79.5386 285.907 79.4755C281.744 79.2072 278.527 75.736 278.527 71.5706V14.9109H278.512ZM289.312 34.3339H291.614C296.691 34.3339 299.009 31.7936 299.009 27.3442C299.009 23.3207 297.101 20.9855 293.238 20.9855C291.157 20.9855 290.069 21.1906 289.312 21.4115V34.3339ZM289.312 64.849C290.179 65.0542 291.22 65.0542 292.828 65.0542C296.644 65.0542 299.813 62.6243 299.813 56.3603C299.813 50.3173 296.518 48.3134 292.135 48.3134H289.312V64.849Z" fill="white"/>
<path d="M171.357 78.1344C171.357 75.4521 173.328 73.18 175.977 72.7856C178.547 72.4069 181.638 72.1387 185.106 72.1387C191.634 72.1387 195.954 73.8269 198.966 77.7557C201.441 81.0376 203.002 86.2287 203.002 93.4393C203.002 102.969 198.792 109.012 196.08 110.606V111.032C198.682 113.052 200.117 117.706 201.221 123.639C202.025 128.057 202.829 133.627 203.507 137.966C204.011 141.247 201.489 144.198 198.178 144.198H197.831C195.261 144.198 193.037 142.383 192.533 139.859C191.981 137.098 191.319 133.185 190.546 127.867C189.332 119.284 187.771 117.596 184.145 117.596H182.174V138.802C182.174 141.784 179.761 144.198 176.781 144.198C173.801 144.198 171.389 141.784 171.389 138.802V78.1344H171.357ZM182.158 103.506H185.39C189.663 103.506 192.202 100.334 192.202 94.9225C192.202 89.5263 190.01 86.7651 186.305 86.7651C183.877 86.7651 182.726 86.9702 182.142 87.1911V103.506H182.158Z" fill="white"/>
<path d="M222.412 227.223L220.709 238.693C220.457 240.397 219.006 241.644 217.288 241.644H212.889C210.744 241.644 209.12 239.703 209.483 237.589L220.678 173.087C220.961 171.431 222.396 170.216 224.083 170.216H233.181C234.852 170.216 236.287 171.415 236.587 173.056L248.349 237.557C248.743 239.687 247.104 241.644 244.943 241.644H239.914C238.211 241.644 236.776 240.413 236.492 238.741L234.632 227.191C234.364 225.519 232.913 224.288 231.21 224.288H225.818C224.115 224.272 222.664 225.534 222.412 227.223ZM228.419 209.646C230.548 209.646 232.172 207.736 231.825 205.622L230.406 197.039C229.854 193.883 229.239 190.002 228.672 186.467C228.593 185.978 227.883 185.978 227.804 186.467C227.363 189.56 226.653 194.435 226.244 197.134L224.982 205.67C224.683 207.768 226.307 209.646 228.419 209.646Z" fill="white"/>
<path d="M188.764 331.785L188.843 267.284C188.843 265.375 190.388 263.828 192.296 263.828H199.975C201.489 263.828 202.829 264.822 203.27 266.258L208.931 284.482C210.996 291.093 213.014 298.935 214.765 306.745C214.891 307.282 215.679 307.187 215.663 306.635C215.49 300.26 215.222 289.137 215.222 282.462V267.268C215.222 265.359 216.767 263.812 218.675 263.812H221.86C223.768 263.812 225.329 265.359 225.313 267.284L225.234 331.785C225.234 333.694 223.689 335.241 221.781 335.241H215.868C214.339 335.241 212.983 334.231 212.557 332.763L206.329 311.621C204.169 304.441 201.804 296.237 199.738 287.811C199.612 287.291 198.84 287.385 198.84 287.922C198.871 294.58 198.934 308.055 198.934 315.975L198.855 331.817C198.84 333.726 197.294 335.256 195.402 335.256H192.202C190.325 335.256 188.764 333.694 188.764 331.785Z" fill="white"/>
<path d="M229.207 361.796C229.207 360.124 230.39 358.703 232.03 358.388C235.278 357.773 239.046 357.457 242.893 357.457C251.092 357.457 256.122 359.682 260.395 364.668C264.952 369.969 268.137 378.647 268.137 391.68C268.137 406.511 264.794 415.521 260.978 420.822C256.185 427.496 248.964 430.352 240.765 430.352C237.059 430.352 234.237 430.084 232.124 429.737C230.453 429.453 229.223 428.017 229.223 426.313V361.796H229.207ZM240.118 414.779C240.749 414.984 241.853 414.984 242.657 414.984C250.619 415.189 256.453 408.31 256.453 392.737C256.453 378.537 250.966 372.604 243.918 372.604C241.9 372.604 240.686 372.92 240.102 373.141V414.779H240.118Z" fill="white"/>
<defs>
<linearGradient id="paint0_linear" x1="477.878" y1="448.96" x2="147.785" y2="160.331" gradientUnits="userSpaceOnUse">
<stop stop-color="#DAE3FE"/>
<stop offset="1" stop-color="#E9EFFD"/>
</linearGradient>
<linearGradient id="paint1_linear" x1="110.315" y1="691.659" x2="205.616" y2="305.312" gradientUnits="userSpaceOnUse">
<stop stop-color="#FF928E"/>
<stop offset="1" stop-color="#FE7062"/>
</linearGradient>
<linearGradient id="paint2_linear" x1="280.34" y1="145.503" x2="184.7" y2="259.751" gradientUnits="userSpaceOnUse">
<stop stop-color="#4F52FF"/>
<stop offset="1" stop-color="#4042E2"/>
</linearGradient>
<linearGradient id="paint3_linear" x1="431.339" y1="-108.668" x2="114.101" y2="247.568" gradientUnits="userSpaceOnUse">
<stop stop-color="#4F52FF"/>
<stop offset="1" stop-color="#4042E2"/>
</linearGradient>
<linearGradient id="paint4_linear" x1="333.469" y1="166.659" x2="353.058" y2="166.659" gradientUnits="userSpaceOnUse">
<stop stop-color="#FEBBBA"/>
<stop offset="1" stop-color="#FF928E"/>
</linearGradient>
<linearGradient id="paint5_linear" x1="388.038" y1="132.725" x2="337.792" y2="233.146" gradientUnits="userSpaceOnUse">
<stop stop-color="#09005D"/>
<stop offset="1" stop-color="#1A0F91"/>
</linearGradient>
<linearGradient id="paint6_linear" x1="21.3139" y1="431.959" x2="44.5206" y2="431.959" gradientUnits="userSpaceOnUse">
<stop stop-color="#09005D"/>
<stop offset="1" stop-color="#1A0F91"/>
</linearGradient>
<linearGradient id="paint7_linear" x1="70.665" y1="431.588" x2="107.077" y2="431.588" gradientUnits="userSpaceOnUse">
<stop stop-color="#09005D"/>
<stop offset="1" stop-color="#1A0F91"/>
</linearGradient>
<linearGradient id="paint8_linear" x1="17.8198" y1="332.034" x2="81.6299" y2="332.034" gradientUnits="userSpaceOnUse">
<stop stop-color="#09005D"/>
<stop offset="1" stop-color="#1A0F91"/>
</linearGradient>
<linearGradient id="paint9_linear" x1="31.9991" y1="288.169" x2="45.193" y2="288.169" gradientUnits="userSpaceOnUse">
<stop stop-color="#4F52FF"/>
<stop offset="1" stop-color="#4042E2"/>
</linearGradient>
<linearGradient id="paint10_linear" x1="68.2102" y1="128.643" x2="93.8205" y2="99.9681" gradientUnits="userSpaceOnUse">
<stop stop-color="#09005D"/>
<stop offset="1" stop-color="#1A0F91"/>
</linearGradient>
<linearGradient id="paint11_linear" x1="51.392" y1="678.889" x2="146.547" y2="293.132" gradientUnits="userSpaceOnUse">
<stop stop-color="#FF928E"/>
<stop offset="1" stop-color="#FE7062"/>
</linearGradient>
</defs>
</svg>
