<svg width="648" height="651" viewBox="0 0 648 651" fill="none" xmlns="http://www.w3.org/2000/svg">
<circle cx="157" cy="157" r="157" fill="#9468B4" fill-opacity="0.15"/>
<circle cx="544" cy="483" r="104" fill="#9468B4" fill-opacity="0.15"/>
<circle cx="402.5" cy="578.5" r="46.5" fill="#9468B4" fill-opacity="0.1"/>
<circle cx="475" cy="625" r="26" fill="#9468B4" fill-opacity="0.1"/>
<circle cx="222.5" cy="170.5" r="46.5" fill="#9468B4" fill-opacity="0.1"/>
<path d="M104.245 504.236C103.817 504.236 103.39 504.022 103.069 503.594C101.573 501.029 100.077 498.357 98.4733 495.471C98.1527 494.83 98.3664 494.082 99.0077 493.654C99.649 493.334 100.397 493.548 100.825 494.189C102.321 496.968 103.817 499.64 105.314 502.205C105.634 502.846 105.421 503.594 104.886 504.022C104.672 504.129 104.459 504.236 104.245 504.236ZM574.737 499.212C574.63 499.212 574.63 499.212 574.523 499.212C573.775 499.105 573.241 498.464 573.347 497.716C573.668 494.937 574.096 491.944 574.737 488.524C574.844 487.776 575.592 487.348 576.233 487.455C576.981 487.562 577.409 488.31 577.302 488.952C576.768 492.372 576.233 495.365 575.913 498.037C575.913 498.678 575.378 499.212 574.737 499.212ZM95.3738 487.99C94.9462 487.99 94.4118 487.776 94.1981 487.242C92.8086 484.57 91.4192 481.791 90.0297 478.905C89.7091 478.264 90.0297 477.408 90.671 477.195C91.3123 476.874 92.1673 477.195 92.3811 477.836C93.7705 480.615 95.16 483.394 96.4426 486.066C96.7632 486.707 96.5495 487.562 95.9082 487.883C95.8013 487.99 95.5875 487.99 95.3738 487.99ZM577.73 480.936C577.623 480.936 577.516 480.936 577.516 480.936C576.768 480.829 576.34 480.081 576.447 479.439C576.981 476.447 577.623 473.454 578.264 470.354C578.371 469.606 579.119 469.179 579.867 469.285C580.615 469.392 581.043 470.141 580.936 470.889C580.295 473.988 579.653 476.981 579.119 479.974C578.905 480.508 578.371 480.936 577.73 480.936ZM87.3577 471.423C86.8233 471.423 86.3957 471.103 86.182 470.675C84.8994 467.896 83.6168 465.01 82.4411 462.231C82.1205 461.59 82.4411 460.735 83.0824 460.521C83.7237 460.201 84.5787 460.521 84.7925 461.163C85.9682 463.941 87.2508 466.827 88.5334 469.606C88.854 470.247 88.5334 471.102 87.8921 471.316C87.6783 471.316 87.4645 471.423 87.3577 471.423ZM581.47 462.873C581.364 462.873 581.257 462.873 581.15 462.873C580.402 462.766 579.974 462.018 580.188 461.269L582.112 452.184C582.219 451.436 582.967 451.009 583.715 451.223C584.463 451.329 584.891 452.078 584.677 452.826L582.753 461.804C582.646 462.445 582.112 462.873 581.47 462.873ZM79.9828 454.429C79.4484 454.429 79.0209 454.108 78.8071 453.574C77.6315 450.688 76.4558 447.802 75.3869 445.023C75.1732 444.382 75.4938 443.527 76.1351 443.313C76.7764 443.1 77.5246 443.42 77.8452 444.061C78.914 446.947 80.0897 449.726 81.2654 452.612C81.5861 453.253 81.2654 454.108 80.5172 454.322C80.3035 454.429 80.1966 454.429 79.9828 454.429ZM585.318 444.81C585.211 444.81 585.104 444.81 584.997 444.81C584.249 444.703 583.822 443.955 583.929 443.206C584.57 440.107 585.211 437.114 585.746 434.122C585.853 433.373 586.601 432.946 587.349 433.053C588.097 433.16 588.525 433.908 588.418 434.656C587.776 437.649 587.242 440.641 586.601 443.741C586.494 444.382 585.96 444.81 585.318 444.81ZM73.2493 437.221C72.7149 437.221 72.1805 436.9 71.9667 436.366C70.8979 433.48 69.8291 430.488 68.8672 427.602C68.6534 426.96 68.9741 426.212 69.7222 425.892C70.3635 425.678 71.1117 425.999 71.4323 426.747C72.3943 429.633 73.4631 432.518 74.5319 435.404C74.7457 436.045 74.425 436.794 73.7837 437.114C73.57 437.221 73.4631 437.221 73.2493 437.221ZM588.952 426.747C588.845 426.747 588.845 426.747 588.738 426.747C587.99 426.64 587.563 425.892 587.67 425.25C588.311 421.937 588.738 418.944 589.166 416.165C589.273 415.417 589.914 414.99 590.662 415.097C591.41 415.204 591.838 415.845 591.731 416.593C591.304 419.372 590.769 422.365 590.128 425.785C590.128 426.212 589.593 426.747 588.952 426.747ZM67.264 419.799C66.7295 419.799 66.1951 419.479 65.9814 418.837C65.0194 415.845 64.0575 412.852 63.2025 409.966C62.9887 409.218 63.4162 408.577 64.0575 408.363C64.8057 408.149 65.447 408.577 65.6607 409.218C66.5158 412.104 67.4777 415.097 68.3328 417.982C68.5465 418.624 68.2259 419.372 67.4777 419.693C67.5846 419.799 67.3708 419.799 67.264 419.799ZM591.731 408.47H591.624C590.876 408.363 590.342 407.722 590.448 406.974C590.662 405.157 590.769 403.447 590.876 401.95C590.876 400.668 590.876 399.278 590.769 397.889C590.769 397.141 591.304 396.499 592.052 396.499C592.8 396.499 593.441 397.034 593.441 397.782C593.548 399.171 593.548 400.668 593.548 401.95C593.441 403.553 593.334 405.264 593.121 407.187C592.907 407.936 592.372 408.47 591.731 408.47ZM62.0268 402.057C61.4924 402.057 60.958 401.63 60.7442 401.095C59.8891 398.103 59.141 395.11 58.3928 392.117C58.179 391.369 58.6066 390.728 59.3547 390.514C60.1029 390.3 60.7442 390.728 60.958 391.476C61.7061 394.362 62.4543 397.354 63.2025 400.347C63.4162 401.095 62.9887 401.736 62.2405 401.95C62.2405 402.057 62.1336 402.057 62.0268 402.057ZM591.09 389.98C590.448 389.98 589.914 389.552 589.807 388.804C589.38 385.918 588.845 382.925 588.097 379.826C587.883 379.078 588.418 378.436 589.059 378.223C589.807 378.009 590.449 378.543 590.662 379.184C591.41 382.284 591.945 385.384 592.372 388.376C592.479 389.124 591.945 389.766 591.304 389.873C591.197 389.98 591.197 389.98 591.09 389.98ZM57.6446 384.101C57.0033 384.101 56.4689 383.674 56.3621 383.032C55.7208 379.933 55.0795 376.94 54.5451 373.947C54.4382 373.199 54.8657 372.558 55.6139 372.451C56.362 372.344 57.0033 372.772 57.1102 373.52C57.6446 376.406 58.179 379.505 58.9272 382.498C59.0341 383.246 58.6066 383.887 57.9653 384.101C57.8584 384.101 57.7515 384.101 57.6446 384.101ZM587.028 372.023C586.494 372.023 585.959 371.703 585.746 371.061C584.891 368.283 583.929 365.29 582.86 362.404C582.646 361.763 582.967 361.015 583.608 360.694C584.249 360.48 584.998 360.801 585.318 361.442C586.387 364.435 587.349 367.428 588.204 370.313C588.418 371.061 587.99 371.703 587.349 371.917C587.242 372.023 587.135 372.023 587.028 372.023ZM54.4382 365.931C53.7969 365.931 53.2625 365.504 53.1556 364.755C52.7281 361.549 52.4074 358.449 52.0868 355.564C51.9799 354.816 52.5143 354.174 53.2625 354.174C54.0107 354.067 54.6519 354.602 54.6519 355.35C54.9726 358.236 55.2932 361.335 55.7208 364.435C55.8276 365.183 55.2932 365.824 54.5451 365.931C54.5451 365.931 54.5451 365.931 54.4382 365.931ZM580.829 354.709C580.295 354.709 579.867 354.388 579.653 353.854C579.44 353.426 579.226 352.892 579.119 352.464C578.05 350.113 577.088 347.761 576.02 345.41C575.699 344.769 576.019 343.914 576.661 343.7C577.302 343.379 578.157 343.7 578.371 344.341C579.44 346.693 580.402 349.044 581.47 351.395C581.684 351.93 581.898 352.357 582.112 352.892C582.432 353.533 582.112 354.388 581.364 354.602C581.15 354.602 581.043 354.709 580.829 354.709ZM52.7281 347.548C51.9799 347.548 51.4455 347.013 51.4455 346.265C51.3386 344.555 51.3386 342.845 51.3386 341.135C51.3386 339.745 51.3386 338.249 51.4455 336.859C51.4455 336.111 52.0868 335.47 52.835 335.577C53.5831 335.577 54.1175 336.218 54.1175 336.966C54.1175 338.356 54.0107 339.745 54.0107 341.135C54.0107 342.738 54.0107 344.448 54.1175 346.158C54.1175 346.906 53.5831 347.548 52.7281 347.548C52.835 347.548 52.835 347.548 52.7281 347.548ZM573.454 337.714C572.92 337.714 572.492 337.394 572.279 336.966C571.103 334.081 569.82 331.302 568.752 328.416C568.431 327.775 568.752 326.919 569.5 326.706C570.141 326.385 570.996 326.706 571.21 327.454C572.386 330.34 573.561 333.119 574.737 335.898C575.058 336.539 574.737 337.394 574.096 337.608C573.775 337.714 573.561 337.714 573.454 337.714ZM53.69 329.164C53.5831 329.164 53.5831 329.164 53.4763 329.164C52.7281 329.057 52.3006 328.416 52.4074 327.668C52.9418 324.568 53.69 321.469 54.5451 318.476C54.7588 317.728 55.507 317.407 56.1483 317.621C56.8965 317.835 57.2171 318.583 57.0033 319.224C56.1483 322.11 55.4001 325.102 54.9726 327.988C54.8657 328.736 54.3313 329.164 53.69 329.164ZM566.507 320.613C565.973 320.613 565.438 320.293 565.224 319.758C564.049 316.659 563.087 313.88 562.125 310.994C561.911 310.353 562.232 309.605 562.98 309.284C563.621 309.07 564.369 309.391 564.69 310.139C565.652 312.918 566.614 315.804 567.79 318.796C568.003 319.438 567.683 320.186 567.041 320.507C566.828 320.613 566.614 320.613 566.507 320.613ZM59.0341 311.529C58.8203 311.529 58.7134 311.529 58.4997 311.422C57.8584 311.101 57.5377 310.353 57.8584 309.712C59.141 306.933 60.6373 304.154 62.3474 301.482C62.7749 300.84 63.5231 300.627 64.1644 301.054C64.8057 301.482 65.0194 302.23 64.5919 302.871C62.9887 305.436 61.4924 308.108 60.3167 310.887C59.996 311.208 59.5685 311.529 59.0341 311.529ZM560.522 303.192C559.987 303.192 559.453 302.871 559.239 302.23C558.384 299.237 557.529 296.138 556.781 293.252C556.567 292.504 556.995 291.862 557.743 291.649C558.491 291.435 559.132 291.862 559.346 292.611C560.094 295.496 560.842 298.489 561.697 301.482C561.911 302.23 561.484 302.871 560.842 303.085C560.842 303.192 560.629 303.192 560.522 303.192ZM68.7603 295.924C68.4396 295.924 68.2259 295.817 67.9052 295.603C67.3708 295.176 67.264 294.321 67.6915 293.786C69.6153 291.435 71.6461 289.083 73.8906 286.839C74.425 286.305 75.2801 286.305 75.7076 286.839C76.242 287.373 76.242 288.228 75.7076 288.656C73.57 290.794 71.5392 293.145 69.6153 295.389C69.5085 295.71 69.1878 295.924 68.7603 295.924ZM556.14 285.236C555.498 285.236 554.964 284.808 554.857 284.167C554.536 282.243 554.109 280.212 553.895 278.288C553.788 277.113 553.681 275.937 553.681 274.868C553.681 274.12 554.216 273.479 554.964 273.479C555.605 273.479 556.353 274.013 556.353 274.761C556.46 275.83 556.46 276.899 556.567 277.968C556.888 279.785 557.208 281.816 557.529 283.739C557.636 284.488 557.208 285.129 556.46 285.236C556.353 285.236 556.246 285.236 556.14 285.236ZM81.7998 282.884C81.4792 282.884 81.0517 282.777 80.8379 282.457C80.4104 281.922 80.4104 281.067 80.9448 280.64C83.2962 278.609 85.6476 276.685 88.1058 274.761C88.6402 274.334 89.4953 274.441 89.9228 274.975C90.3503 275.51 90.2435 276.365 89.7091 276.792C87.3577 278.716 84.8994 280.64 82.6549 282.671C82.4411 282.777 82.1205 282.884 81.7998 282.884ZM96.2288 271.341C95.8013 271.341 95.4806 271.127 95.16 270.807C94.7325 270.272 94.8394 269.417 95.3738 268.99C97.832 267.173 100.29 265.249 102.855 263.539C103.497 263.111 104.245 263.218 104.672 263.859C105.1 264.501 104.993 265.249 104.352 265.676C101.894 267.493 99.3284 269.31 96.977 271.127C96.7632 271.234 96.4426 271.341 96.2288 271.341ZM554.964 266.852C554.964 266.852 554.857 266.852 554.964 266.852C554.216 266.852 553.574 266.211 553.681 265.463C553.788 262.363 554.109 259.264 554.323 256.164C554.429 255.416 554.964 254.881 555.712 254.988C556.46 255.095 556.995 255.736 556.888 256.378C556.674 259.477 556.353 262.47 556.246 265.57C556.246 266.318 555.605 266.852 554.964 266.852ZM111.192 260.546C110.765 260.546 110.337 260.332 110.123 260.012C109.696 259.37 109.91 258.622 110.444 258.195C113.009 256.485 115.574 254.775 118.246 253.171C118.888 252.744 119.636 252.958 120.063 253.599C120.491 254.24 120.277 254.988 119.636 255.416C117.071 257.019 114.399 258.729 111.94 260.439C111.727 260.546 111.513 260.546 111.192 260.546ZM126.797 250.713C126.369 250.713 125.942 250.499 125.621 250.072C125.301 249.43 125.407 248.682 126.049 248.255C128.721 246.652 131.393 245.155 134.065 243.659C134.706 243.338 135.454 243.552 135.882 244.193C136.202 244.835 135.989 245.583 135.347 246.01C132.675 247.507 130.003 249.003 127.331 250.606C127.331 250.713 127.118 250.713 126.797 250.713ZM556.246 248.469C555.391 248.469 554.857 247.827 554.964 247.079C555.071 244.514 555.178 242.163 555.178 239.918L554.964 238.101C554.857 237.353 555.391 236.712 556.14 236.605C556.888 236.498 557.529 237.032 557.636 237.78L557.85 239.704C557.85 239.811 557.85 239.811 557.85 239.918C557.85 242.163 557.743 244.621 557.636 247.293C557.529 247.934 556.995 248.469 556.246 248.469ZM142.936 241.842C142.508 241.842 141.974 241.628 141.76 241.094C141.44 240.452 141.653 239.704 142.295 239.277C144.967 237.887 147.746 236.498 150.525 235.108C151.166 234.788 151.914 235.108 152.342 235.75C152.662 236.391 152.342 237.246 151.7 237.567C148.921 238.956 146.142 240.346 143.47 241.735C143.364 241.735 143.15 241.842 142.936 241.842ZM159.503 233.612C158.968 233.612 158.541 233.291 158.327 232.864C158.006 232.223 158.327 231.368 158.968 231.154C161.106 230.192 163.243 229.23 165.488 228.268L166.664 227.092C167.198 226.558 168.053 226.558 168.481 227.092C169.015 227.627 169.015 228.482 168.481 228.909L167.198 230.192C167.091 230.299 166.984 230.406 166.771 230.512C164.526 231.474 162.282 232.543 160.144 233.505C159.93 233.612 159.716 233.612 159.503 233.612ZM554.857 230.192C554.216 230.192 553.681 229.764 553.574 229.123C552.933 225.917 552.078 223.031 551.116 220.466C550.795 219.824 551.223 218.969 551.864 218.756C552.506 218.435 553.361 218.862 553.574 219.504C554.643 222.176 555.498 225.168 556.246 228.589C556.353 229.337 555.926 229.978 555.178 230.192C554.964 230.192 554.964 230.192 554.857 230.192ZM175 223.886C174.573 223.886 174.145 223.672 173.825 223.245C173.504 222.603 173.611 221.855 174.252 221.428C177.352 219.611 179.81 218.007 181.948 216.511C182.589 216.083 183.337 216.19 183.765 216.832C184.192 217.473 184.085 218.221 183.444 218.649C181.2 220.252 178.741 221.855 175.535 223.672C175.428 223.886 175.214 223.886 175 223.886ZM547.803 213.198C547.375 213.198 546.948 212.984 546.734 212.663C546.2 211.915 545.558 211.06 544.917 210.419C543.528 208.922 542.138 207.426 540.749 205.93C540.214 205.395 540.214 204.54 540.749 204.113C541.283 203.578 542.138 203.578 542.566 204.113C544.062 205.609 545.451 207.105 546.841 208.709C547.482 209.564 548.23 210.312 548.765 211.167C549.192 211.808 549.085 212.556 548.444 212.984C548.337 213.198 548.123 213.198 547.803 213.198ZM189.857 213.091C189.536 213.091 189.216 212.984 188.895 212.663C188.361 212.129 188.361 211.274 188.895 210.846C190.926 208.922 192.529 206.999 194.132 204.861C194.132 204.754 194.239 204.754 194.239 204.647C194.453 204.433 194.773 204.113 194.987 203.899C195.522 203.365 196.377 203.471 196.804 204.006C197.339 204.54 197.232 205.395 196.697 205.823C196.484 206.037 196.27 206.25 196.056 206.357C194.453 208.602 192.636 210.633 190.605 212.663C190.498 212.984 190.178 213.091 189.857 213.091ZM203.11 200.372C202.79 200.372 202.469 200.265 202.148 199.944C201.614 199.41 201.614 198.555 202.148 198.127L202.255 198.021C203.965 195.99 205.782 193.638 207.92 190.966C208.347 190.432 209.202 190.325 209.737 190.753C210.271 191.18 210.378 192.035 209.951 192.57C207.813 195.242 205.996 197.593 204.179 199.731L204.072 199.837C203.752 200.265 203.431 200.372 203.11 200.372ZM534.977 200.051C534.656 200.051 534.336 199.944 534.122 199.731C531.877 197.807 529.419 195.99 526.854 194.173C526.213 193.745 526.106 192.89 526.533 192.356C526.961 191.715 527.816 191.608 528.35 192.035C530.916 193.852 533.374 195.776 535.725 197.7C536.26 198.127 536.367 198.982 535.832 199.517C535.725 199.944 535.405 200.051 534.977 200.051ZM519.907 189.47C519.693 189.47 519.479 189.363 519.265 189.256C517.128 187.974 514.776 186.798 512.425 185.622C512.104 185.515 511.57 185.302 511.142 185.088C510.501 184.767 510.181 184.019 510.394 183.378C510.715 182.736 511.463 182.416 512.104 182.63C512.532 182.843 512.959 183.057 513.387 183.164C515.845 184.34 518.197 185.622 520.334 186.905C520.976 187.225 521.189 188.081 520.762 188.722C520.762 189.256 520.334 189.47 519.907 189.47ZM214.547 185.943C214.226 185.943 214.012 185.836 213.691 185.622C213.157 185.195 213.05 184.34 213.478 183.805L215.508 181.24C216.684 179.637 217.967 178.141 219.142 176.537C219.57 176.003 220.425 175.896 220.959 176.324C221.494 176.751 221.601 177.606 221.173 178.141C219.997 179.744 218.715 181.24 217.539 182.843L215.508 185.409C215.402 185.729 214.974 185.943 214.547 185.943ZM503.126 181.881C503.02 181.881 502.806 181.881 502.699 181.775C499.92 180.813 496.927 179.851 493.935 178.996C493.186 178.782 492.866 178.034 493.08 177.392C493.293 176.644 494.041 176.324 494.683 176.537C497.675 177.392 500.668 178.354 503.554 179.423C504.195 179.637 504.623 180.385 504.409 181.133C504.088 181.561 503.661 181.881 503.126 181.881ZM485.384 176.751C485.277 176.751 485.17 176.751 485.063 176.751C482.178 176.003 479.292 175.362 476.085 174.72C475.337 174.613 474.91 173.865 475.017 173.117C475.123 172.369 475.872 171.941 476.62 172.048C479.826 172.69 482.819 173.438 485.705 174.079C486.453 174.293 486.88 174.934 486.667 175.682C486.56 176.324 486.025 176.751 485.384 176.751ZM467.321 172.903C467.214 172.903 467.107 172.903 467.107 172.903C464.115 172.369 461.122 171.835 458.022 171.3C457.274 171.193 456.847 170.445 456.954 169.804C457.06 169.056 457.809 168.628 458.45 168.735C461.443 169.269 464.542 169.804 467.535 170.338C468.283 170.445 468.711 171.193 468.604 171.835C468.497 172.476 467.962 172.903 467.321 172.903ZM225.983 171.407C225.662 171.407 225.448 171.3 225.128 171.086C224.593 170.659 224.487 169.804 224.914 169.269C227.052 166.597 228.976 164.246 230.793 162.108C231.22 161.574 232.075 161.467 232.609 162.001C233.144 162.429 233.251 163.284 232.716 163.818C230.899 165.956 228.976 168.307 226.838 170.98C226.731 171.193 226.41 171.407 225.983 171.407ZM449.151 169.697C449.044 169.697 449.044 169.697 448.938 169.697C445.945 169.163 442.845 168.628 439.853 168.094C439.104 167.987 438.677 167.239 438.784 166.597C438.891 165.849 439.532 165.422 440.28 165.529C443.273 166.063 446.372 166.597 449.365 167.132C450.113 167.239 450.541 167.987 450.434 168.628C450.327 169.269 449.793 169.697 449.151 169.697ZM430.981 166.49C430.875 166.49 430.768 166.49 430.768 166.49C427.561 165.849 424.569 165.208 421.683 164.567C420.935 164.46 420.507 163.712 420.721 162.963C420.828 162.215 421.576 161.788 422.324 162.001C425.21 162.643 428.096 163.284 431.302 163.818C432.05 163.925 432.478 164.674 432.371 165.315C432.157 166.063 431.623 166.49 430.981 166.49ZM412.918 162.75C412.812 162.75 412.812 162.75 412.705 162.75C409.712 162.215 406.612 161.467 403.62 160.612C402.872 160.398 402.551 159.65 402.658 159.009C402.872 158.261 403.62 157.94 404.261 158.047C407.254 158.902 410.246 159.543 413.132 160.078C413.88 160.184 414.308 160.933 414.201 161.574C414.094 162.322 413.453 162.75 412.918 162.75ZM395.069 157.833C394.962 157.833 394.749 157.833 394.642 157.726C392.611 156.978 390.58 156.123 388.549 155.268C387.694 154.947 386.839 154.52 385.984 154.092C385.343 153.772 385.022 153.023 385.343 152.382C385.664 151.741 386.412 151.42 387.053 151.741C387.908 152.168 388.656 152.489 389.511 152.81C391.435 153.665 393.466 154.413 395.497 155.161C396.138 155.375 396.566 156.123 396.245 156.871C396.138 157.512 395.604 157.833 395.069 157.833ZM237.954 157.299C237.633 157.299 237.312 157.192 237.099 156.978C236.564 156.444 236.564 155.695 236.992 155.161C239.236 152.703 241.267 150.565 243.405 148.428C243.939 147.893 244.794 147.893 245.222 148.428C245.756 148.962 245.756 149.817 245.222 150.245C243.084 152.275 241.053 154.413 238.916 156.871C238.595 157.085 238.274 157.299 237.954 157.299ZM378.289 150.351C378.075 150.351 377.861 150.351 377.648 150.245C374.869 148.855 372.197 147.466 369.418 145.969C368.776 145.649 368.563 144.794 368.883 144.152C369.204 143.511 370.059 143.297 370.7 143.618C373.479 145.007 376.151 146.504 378.93 147.893C379.571 148.214 379.892 148.962 379.465 149.71C379.144 150.031 378.716 150.351 378.289 150.351ZM251.1 144.366C250.779 144.366 250.352 144.259 250.138 143.939C249.711 143.404 249.711 142.549 250.245 142.122C252.703 140.091 255.161 138.06 257.62 136.35C258.261 135.922 259.009 136.029 259.437 136.671C259.864 137.312 259.757 138.06 259.116 138.488C256.765 140.198 254.306 142.122 251.955 144.152C251.741 144.259 251.421 144.366 251.1 144.366ZM361.936 141.801C361.722 141.801 361.508 141.801 361.295 141.694C358.623 140.305 355.844 138.808 353.172 137.419C352.53 137.098 352.21 136.243 352.637 135.602C352.958 134.96 353.706 134.64 354.454 135.067C357.233 136.457 359.905 137.846 362.684 139.343C363.326 139.663 363.539 140.518 363.219 141.16C362.791 141.48 362.364 141.801 361.936 141.801ZM266.063 133.678C265.636 133.678 265.208 133.464 264.888 133.037C264.567 132.395 264.781 131.647 265.315 131.22C267.987 129.616 270.873 128.227 273.652 126.944C274.293 126.624 275.148 126.944 275.362 127.586C275.683 128.227 275.362 129.082 274.721 129.296C271.942 130.471 269.27 131.861 266.598 133.464C266.491 133.571 266.277 133.678 266.063 133.678ZM345.369 133.464C345.156 133.464 345.049 133.464 344.835 133.357C341.842 131.968 339.17 130.792 336.391 129.723C335.75 129.403 335.429 128.654 335.643 128.013C335.964 127.372 336.712 127.051 337.353 127.265C340.132 128.334 342.911 129.51 345.904 131.006C346.545 131.327 346.866 132.075 346.545 132.716C346.331 133.25 345.904 133.464 345.369 133.464ZM328.268 126.731C328.161 126.731 328.055 126.731 327.841 126.624C324.848 125.662 321.855 124.914 319.077 124.272C318.328 124.165 317.901 123.417 318.008 122.669C318.115 121.921 318.863 121.493 319.611 121.6C322.497 122.242 325.596 122.99 328.696 123.952C329.337 124.165 329.765 124.914 329.551 125.555C329.337 126.303 328.803 126.731 328.268 126.731ZM282.951 126.196C282.416 126.196 281.882 125.876 281.668 125.234C281.454 124.593 281.775 123.845 282.523 123.524C283.592 123.204 284.768 122.883 285.836 122.562C287.76 122.028 289.684 121.6 291.608 121.28C292.356 121.173 292.997 121.6 293.104 122.348C293.211 123.097 292.784 123.738 292.036 123.845C290.219 124.165 288.402 124.593 286.478 125.127C285.409 125.448 284.34 125.769 283.164 126.089C283.164 126.089 283.058 126.196 282.951 126.196ZM310.205 122.99H310.099C307.106 122.669 304.113 122.669 301.014 122.776C300.265 122.776 299.624 122.242 299.624 121.493C299.624 120.745 300.159 120.104 300.907 120.104C304.006 119.997 307.106 119.997 310.312 120.318C311.06 120.425 311.595 121.066 311.488 121.707C311.488 122.455 310.847 122.99 310.205 122.99Z" fill="#BA68C8"/>
<path d="M40.9707 289.297C40.9707 292.61 38.2987 295.282 34.9854 295.282C31.672 295.282 29 292.61 29 289.297C29 285.984 31.672 283.312 34.9854 283.312C38.2987 283.418 40.9707 285.984 40.9707 289.297Z" fill="#BA68C8"/>
<path d="M597.409 233.307C602.154 226.397 600.399 216.95 593.49 212.204C586.581 207.459 577.133 209.214 572.388 216.123C567.642 223.033 569.397 232.48 576.306 237.226C583.216 241.971 592.664 240.216 597.409 233.307Z" fill="#BA68C8"/>
<path d="M580.936 218.755C590.027 218.755 597.396 211.386 597.396 202.296C597.396 193.205 590.027 185.836 580.936 185.836C571.846 185.836 564.476 193.205 564.476 202.296C564.476 211.386 571.846 218.755 580.936 218.755Z" stroke="#BA68C8" stroke-width="1.2336" stroke-miterlimit="10"/>
<path d="M203.11 122.562C208.954 122.562 213.691 117.825 213.691 111.981C213.691 106.137 208.954 101.399 203.11 101.399C197.266 101.399 192.529 106.137 192.529 111.981C192.529 117.825 197.266 122.562 203.11 122.562Z" fill="#BA68C8"/>
<path d="M218.287 126.516C224.485 126.516 229.509 121.492 229.509 115.294C229.509 109.096 224.485 104.071 218.287 104.071C212.089 104.071 207.064 109.096 207.064 115.294C207.064 121.492 212.089 126.516 218.287 126.516Z" stroke="#BA68C8" stroke-width="1.2336" stroke-miterlimit="10"/>
<path d="M58.0717 263.646C61.7315 263.646 64.6984 260.679 64.6984 257.019C64.6984 253.359 61.7315 250.393 58.0717 250.393C54.4119 250.393 51.4451 253.359 51.4451 257.019C51.4451 260.679 54.4119 263.646 58.0717 263.646Z" stroke="#BA68C8" stroke-width="1.2336" stroke-miterlimit="10"/>
<path d="M582.218 305.757C586.232 305.757 589.486 302.503 589.486 298.489C589.486 294.475 586.232 291.221 582.218 291.221C578.204 291.221 574.95 294.475 574.95 298.489C574.95 302.503 578.204 305.757 582.218 305.757Z" stroke="#BA68C8" stroke-width="1.2336" stroke-miterlimit="10"/>
<path d="M449.044 219.397C449.044 219.397 445.731 142.228 422.003 123.097C398.276 104.072 420.079 204.968 449.044 219.397Z" fill="#9468B4"/>
<path d="M442.204 209.35C434.937 199.303 432.371 186.05 435.257 173.972C435.898 171.3 436.86 168.521 438.998 166.811C441.243 164.887 444.556 164.46 447.549 164.994C450.541 165.529 453.213 166.918 455.885 168.308C454.923 162.215 455.03 155.696 455.137 149.603C455.137 144.473 455.565 139.129 458.023 134.64C460.481 130.151 465.398 126.624 470.528 127.372C476.3 128.12 480.147 133.785 483.14 138.808C484.85 130.792 489.018 122.669 494.469 116.47C499.493 110.698 507.188 105.889 514.67 108.026C520.869 109.843 525.038 116.149 525.786 122.562C526.641 128.975 524.717 135.495 522.259 141.48C519.587 148 516.273 154.306 512.319 160.185C516.915 159.65 523.221 160.185 525.999 163.818C528.03 166.491 528.244 170.124 527.389 173.331C526.106 178.354 522.686 182.523 518.625 185.622C514.563 188.722 509.753 190.859 505.158 192.997C511.998 195.776 515.846 204.54 512.96 211.381C511.25 215.335 507.83 218.328 504.089 220.573C494.149 226.772 481.964 229.123 470.528 226.985C458.985 224.848 449.045 218.756 442.204 209.35Z" fill="#C755DB"/>
<path d="M514.135 110.912L463.366 213.946" stroke="#0B334C" stroke-width="0.9252" stroke-miterlimit="10" stroke-linecap="round" stroke-linejoin="round"/>
<path d="M467.749 129.296L487.522 164.46" stroke="#0B334C" stroke-width="0.9252" stroke-miterlimit="10" stroke-linecap="round" stroke-linejoin="round"/>
<path d="M461.122 133.464L484.208 171.514" stroke="#0B334C" stroke-width="0.9252" stroke-miterlimit="10" stroke-linecap="round" stroke-linejoin="round"/>
<path d="M508.15 186.478L476.94 186.905" stroke="#0B334C" stroke-width="0.9252" stroke-miterlimit="10" stroke-linecap="round" stroke-linejoin="round"/>
<path d="M454.816 214.48C454.816 214.48 419.118 155.589 392.397 150.779C365.57 146.076 425.958 215.656 454.816 214.48Z" fill="#C755DB"/>
<path d="M391.435 155.481L432.371 195.241" stroke="#0B334C" stroke-width="0.9252" stroke-miterlimit="10" stroke-linecap="round" stroke-linejoin="round"/>
<path d="M120.49 483.18C120.49 483.18 78.6989 394.789 114.29 374.161C149.882 353.533 126.582 483.608 126.582 483.608L120.49 483.18Z" fill="#9468B4"/>
<path d="M119.207 473.882C119.207 473.882 96.3346 406.653 77.4166 406.653C58.4986 406.653 72.6069 442.245 113.863 475.699L119.207 473.882Z" fill="#C755DB"/>
<path d="M73.5688 411.249L104.244 458.704" stroke="#0B334C" stroke-width="0.9252" stroke-miterlimit="10" stroke-linecap="round" stroke-linejoin="round"/>
<path d="M75.0655 504.236C75.0655 504.236 60.7434 490.662 67.1562 478.05C73.5691 465.545 91.9527 469.5 91.9527 469.5C91.9527 469.5 83.8297 452.399 98.3656 444.703C112.901 437.008 124.765 456.353 124.765 456.353C124.765 456.353 132.675 434.122 164.525 434.87C196.376 435.511 194.452 469.606 194.452 469.606C194.452 469.606 202.361 462.339 212.515 468.965C222.669 475.592 212.515 488.097 212.515 488.097C212.515 488.097 222.455 490.983 221.707 504.129L75.0655 504.236Z" fill="#C755DB"/>
<path d="M477.795 407.508H119.742V187.973C119.742 183.271 123.59 179.423 128.293 179.423H469.244C473.947 179.423 477.795 183.271 477.795 187.973V407.508Z" fill="white" stroke="#1F5B99" stroke-width="1.1536" stroke-miterlimit="10"/>
<path d="M477.795 196.524H119.743V187.867C119.743 183.164 123.59 179.316 128.293 179.316H469.245C473.948 179.316 477.795 183.164 477.795 187.867V196.524Z" fill="#1F5B99"/>
<path d="M391.402 306.193C392.483 301.596 389.634 296.993 385.037 295.912C380.44 294.83 375.837 297.68 374.756 302.277C373.674 306.873 376.524 311.476 381.121 312.558C385.718 313.639 390.321 310.789 391.402 306.193Z" fill="#A87AC9"/>
<path d="M417.231 310.245C420.571 306.906 420.571 301.492 417.231 298.153C413.892 294.814 408.478 294.814 405.139 298.153C401.8 301.492 401.8 306.906 405.139 310.245C408.478 313.584 413.892 313.584 417.231 310.245Z" fill="#DA81E9"/>
<path d="M442.383 312.162C446.816 310.534 449.089 305.62 447.46 301.187C445.832 296.754 440.918 294.481 436.485 296.11C432.052 297.738 429.779 302.652 431.408 307.085C433.036 311.518 437.95 313.791 442.383 312.162Z" fill="#F64652"/>
<path d="M360.546 217.259H230.899V384.314H360.546V217.259Z" stroke="#0B334C" stroke-width="1.1536" stroke-miterlimit="10"/>
<path d="M365.249 295.924H355.629V305.543H365.249V295.924Z" fill="white" stroke="#1F5B99" stroke-width="1.1536" stroke-miterlimit="10"/>
<path d="M365.249 379.398H355.629V389.018H365.249V379.398Z" fill="white" stroke="#1F5B99" stroke-width="1.1536" stroke-miterlimit="10"/>
<path d="M365.249 212.663H355.629V222.282H365.249V212.663Z" fill="white" stroke="#1F5B99" stroke-width="1.1536" stroke-miterlimit="10"/>
<path d="M235.602 212.663H225.982V222.282H235.602V212.663Z" fill="white" stroke="#1F5B99" stroke-width="1.1536" stroke-miterlimit="10"/>
<path d="M235.174 295.924H225.554V305.543H235.174V295.924Z" fill="white" stroke="#1F5B99" stroke-width="1.1536" stroke-miterlimit="10"/>
<path d="M235.174 378.863H225.554V388.483H235.174V378.863Z" fill="white" stroke="#1F5B99" stroke-width="1.1536" stroke-miterlimit="10"/>
<path d="M290.886 213.077V222.696H300.505V213.077H290.886Z" fill="white" stroke="#1F5B99" stroke-width="1.1536" stroke-miterlimit="10"/>
<path d="M290.865 377.695V387.314H300.484V377.695H290.865Z" fill="white" stroke="#1F5B99" stroke-width="1.1536" stroke-miterlimit="10"/>
<path d="M339.277 276.364C339.277 252.637 320.359 233.291 296.845 232.543C272.476 231.795 251.741 251.781 251.527 276.15C251.42 288.014 256.123 298.809 263.819 306.825C270.98 314.2 275.148 323.926 275.148 334.187V335.897H315.763V334.187C315.763 324.14 319.611 314.307 326.772 307.146C334.574 299.13 339.277 288.335 339.277 276.364Z" fill="#DA81E9"/>
<path d="M305.395 369.351H285.515C279.85 369.351 275.254 364.755 275.254 359.09V335.362H315.655V359.09C315.655 364.755 311.06 369.351 305.395 369.351Z" fill="#0B334C"/>
<path d="M313.946 356.418L275.576 348.616C273.973 348.295 272.904 346.906 272.904 345.303C272.904 343.165 274.828 341.562 276.965 341.989L315.336 349.792C316.939 350.112 318.008 351.502 318.008 353.105C318.008 355.243 316.084 356.846 313.946 356.418Z" fill="#114D73"/>
<path d="M313.946 349.578L275.576 341.776C273.973 341.455 272.904 340.066 272.904 338.463C272.904 336.325 274.828 334.722 276.965 335.149L315.336 342.952C316.939 343.272 318.008 344.662 318.008 346.265C318.008 348.403 316.084 350.006 313.946 349.578Z" fill="#0B334C"/>
<path d="M313.946 363.259L275.576 355.457C273.973 355.136 272.904 353.747 272.904 352.143C272.904 350.006 274.828 348.403 276.965 348.83L315.336 356.632C316.939 356.953 318.008 358.343 318.008 359.946C318.008 362.083 316.084 363.687 313.946 363.259Z" fill="#0B334C"/>
<path d="M299.945 339.21L297.701 338.89C299.625 323.819 301.976 308.642 304.648 293.679C301.976 295.282 298.877 296.244 295.456 296.778C292.998 297.099 289.792 297.206 286.692 296.351C290.967 309.284 293.853 322.644 295.456 336.218L293.212 336.431C291.609 322.43 288.509 308.642 284.02 295.389C283.272 295.068 282.524 294.641 281.776 294.106C279.317 292.503 277.393 290.045 276.538 287.266C276.004 285.77 276.752 284.166 278.142 283.525C279.638 282.884 281.241 283.311 282.096 284.701C283.272 286.518 284.127 288.655 284.768 290.686C285.089 291.648 285.516 292.717 285.837 293.679C288.509 294.641 291.822 294.961 295.243 294.427C297.915 294.106 301.976 293.038 305.29 290.579C305.931 286.945 306.679 283.311 307.32 279.784C307.534 278.929 307.748 277.86 308.496 276.898C309.03 276.257 309.779 275.937 310.634 275.937C311.275 275.937 311.916 276.15 312.344 276.578C312.985 277.219 313.092 277.967 313.199 278.609C313.412 280.853 313.199 282.884 312.451 284.701C311.382 287.48 309.672 289.938 307.32 291.755C304.434 307.573 301.976 323.392 299.945 339.21ZM279.424 285.663C279.21 285.663 279.104 285.77 278.997 285.77C278.783 285.876 278.355 286.09 278.569 286.732C279.317 288.976 280.814 290.9 282.738 292.289C282.631 292.076 282.524 291.862 282.524 291.541C281.882 289.724 281.134 287.693 280.066 286.09C279.852 285.663 279.638 285.663 279.424 285.663ZM310.634 278.181C310.527 278.181 310.313 278.288 310.099 278.395C309.779 278.822 309.672 279.357 309.458 280.105C308.923 282.67 308.496 285.235 307.962 287.693C308.817 286.518 309.672 285.235 310.206 283.739C310.74 282.243 310.954 280.639 310.74 278.715C310.847 278.395 310.74 278.288 310.634 278.181C310.74 278.181 310.634 278.181 310.634 278.181Z" fill="#0B334C"/>
<path d="M277.606 335.149L315.656 343.166" stroke="white" stroke-width="0.3084" stroke-miterlimit="10" stroke-linecap="round" stroke-linejoin="round"/>
<path d="M275.362 355.243L314.267 363.58" stroke="white" stroke-width="0.3084" stroke-miterlimit="10" stroke-linecap="round" stroke-linejoin="round"/>
<path d="M224.914 421.296H209.523C208.134 421.296 206.958 420.12 206.958 418.731V399.813C206.958 398.423 208.027 397.354 209.416 397.354H225.021C226.41 397.354 227.479 398.423 227.479 399.813V418.731C227.479 420.12 226.303 421.296 224.914 421.296Z" fill="#0B334C"/>
<path d="M218.929 404.302H206.958V415.417H218.929V404.302Z" fill="#DA81E9"/>
<path d="M206.637 398.209V398.744C206.637 399.278 207.065 399.706 207.599 399.706C208.133 399.706 208.775 399.812 209.309 400.026C210.378 400.561 211.126 401.736 212.302 402.164C213.477 402.591 214.76 402.057 215.722 401.309C217.005 400.454 218.073 399.278 219.677 399.064C220.425 398.957 221.066 399.064 221.707 399.385C222.883 400.24 222.776 401.736 222.776 403.019C222.776 403.874 222.99 404.622 223.204 405.37C223.417 406.012 223.738 406.653 224.273 407.08C224.807 407.508 225.662 407.508 226.089 406.974C226.303 406.653 226.41 406.225 226.517 405.798C226.624 404.836 226.624 403.767 226.517 402.698C226.41 402.164 226.41 401.523 226.517 400.988C226.624 400.561 226.838 400.24 227.158 400.026C227.479 399.812 227.586 399.492 227.586 399.171V397.995C227.586 397.247 227.051 396.713 226.303 396.713H207.92C207.171 396.927 206.637 397.461 206.637 398.209Z" fill="#DA81E9"/>
<path d="M112.261 421.188H104.351V504.128H112.261V421.188Z" fill="#184778"/>
<path d="M82.8682 421.188H74.959V504.128H82.8682V421.188Z" fill="#1F5B99"/>
<path d="M204.499 421.188H196.59V504.128H204.499V421.188Z" fill="#184778"/>
<path d="M233.891 421.188H225.982V504.128H233.891V421.188Z" fill="#1F5B99"/>
<path d="M233.892 421.188H75.1731V429.098H233.892V421.188Z" fill="#1F5B99"/>
<path d="M200.651 357.702C198.3 356.526 197.338 357.06 192.742 356.098C192.101 355.992 191.246 355.778 190.284 355.671C189.001 360.908 187.505 366.145 186.543 371.489C186.436 372.024 186.436 372.451 186.329 372.986C188.787 372.772 191.246 372.665 193.704 372.558C191.566 386.346 188.894 403.126 186.864 416.914C188.36 417.128 189.322 418.197 191.032 417.555C196.162 408.577 204.392 382.926 205.889 375.871C207.385 368.817 207.385 370.527 207.385 368.39C207.492 360.801 206.637 360.694 200.651 357.702Z" fill="#F1F1F1"/>
<path d="M194.025 371.383L193.704 372.665" stroke="#0B334C" stroke-width="0.3084" stroke-miterlimit="10" stroke-linecap="round" stroke-linejoin="round"/>
<path d="M191.46 416.594C191.46 416.594 188.787 418.411 186.757 416.594L186.329 417.769C185.902 418.838 185.795 419.907 185.795 420.976V421.297H199.903C199.903 420.228 199.262 419.373 198.3 419.052L191.46 416.594Z" fill="#1F5B99"/>
<path d="M147.532 404.088C145.181 403.768 142.829 403.447 140.585 403.02C140.692 404.302 140.799 405.585 140.906 406.867C124.66 405.692 99.97 409.432 94.8397 410.287C94.1984 410.394 93.8777 410.394 93.8777 410.394L93.4502 414.776L94.7328 414.99L142.402 421.082L146.891 421.617C153.304 422.472 159.075 417.876 159.717 411.463L160.251 406.119V405.692C155.976 405.264 151.807 404.73 147.532 404.088Z" fill="#F1F1F1"/>
<path d="M140.906 406.975C140.906 406.975 144.647 407.937 145.074 408.364" stroke="#0B334C" stroke-width="0.3084" stroke-miterlimit="10" stroke-linecap="round" stroke-linejoin="round"/>
<path d="M94.7325 414.884C94.7325 414.884 93.0224 412.105 94.8393 410.181L93.6637 409.754C92.5948 409.326 91.526 409.112 90.4572 409.112H90.1366L89.8159 423.221C90.8847 423.221 91.7398 422.579 92.1673 421.724L94.7325 414.884Z" fill="#1F5B99"/>
<path d="M144.968 353.426C144.968 353.426 139.944 366.786 139.944 371.489C139.944 376.085 139.944 404.622 139.944 404.622L160.145 406.867L166.558 375.657L191.568 374.161L195.095 354.388L175.429 351.182L144.968 353.426Z" fill="#F64652"/>
<path d="M167.841 365.076L166.558 375.444" stroke="#0B334C" stroke-width="0.3084" stroke-miterlimit="10" stroke-linecap="round" stroke-linejoin="round"/>
<path d="M192.744 354.281L189.323 373.413" stroke="#0B334C" stroke-width="0.3084" stroke-miterlimit="10" stroke-linecap="round" stroke-linejoin="round"/>
<path d="M140.479 402.271L159.824 404.516" stroke="#0B334C" stroke-width="0.3084" stroke-miterlimit="10" stroke-linecap="round" stroke-linejoin="round"/>
<path d="M166.878 373.093L189.43 372.131" stroke="#0B334C" stroke-width="0.3084" stroke-miterlimit="10" stroke-linecap="round" stroke-linejoin="round"/>
<path d="M146.036 356.099C146.036 356.099 141.975 366.894 141.975 371.917C141.975 376.94 141.868 402.378 141.868 402.378" stroke="#0B334C" stroke-width="0.3084" stroke-miterlimit="10" stroke-linecap="round" stroke-linejoin="round"/>
<path d="M151.06 356.099L143.471 364.435" stroke="#0B334C" stroke-width="0.3084" stroke-miterlimit="10" stroke-linecap="round" stroke-linejoin="round"/>
<path d="M208.241 323.606C207.386 322.537 205.889 322.216 204.714 322.964C204.714 322.964 204.714 322.964 204.607 322.964H204.5C202.042 324.674 199.476 326.491 196.911 328.202C194.346 329.912 191.781 331.515 189.109 333.118C185.047 335.576 180.986 337.821 176.924 339.852C176.497 338.783 176.176 337.714 175.856 336.645C175.107 334.187 174.359 331.622 173.611 329.057C172.97 329.377 172.329 329.805 171.794 330.019C169.015 331.301 166.236 332.477 163.35 333.225C164.099 335.576 164.847 337.821 165.702 340.172C166.129 341.348 166.664 342.631 167.198 343.806C167.946 345.623 168.695 347.333 169.55 349.15C170.618 351.181 173.077 352.143 175.214 351.074C175.856 350.754 176.604 350.326 177.245 350.005C178.207 349.471 179.276 348.937 180.238 348.295C182.055 347.226 183.872 346.158 185.582 344.982C186.971 344.127 188.254 343.165 189.536 342.203C190.819 341.241 192.102 340.279 193.384 339.317C198.408 335.47 203.11 331.408 207.599 326.919L207.706 326.812C208.775 326.064 208.989 324.674 208.241 323.606Z" fill="#F1F1F1"/>
<path d="M204.5 323.606C204.5 323.606 206.21 319.01 206.958 319.117C207.706 319.117 207.706 321.575 207.706 321.575C207.706 321.575 211.875 318.262 212.409 318.582C212.943 318.903 209.737 321.896 209.737 321.896C209.737 321.896 212.836 320.079 213.371 320.506C214.012 320.934 210.058 323.392 210.058 323.392C210.058 323.392 213.585 322.323 213.798 322.965C214.119 323.713 209.844 324.782 209.844 324.782C209.844 324.782 212.409 324.568 212.516 325.102C212.623 325.637 206.958 327.347 206.958 327.347L204.5 323.606Z" fill="#F1F1F1"/>
<path d="M164.205 336.859C164.205 336.859 156.937 319.437 162.281 315.91C167.625 312.383 171.366 318.262 171.687 319.758C172.008 321.361 175.214 333.866 175.214 333.866L164.205 336.859Z" fill="#1F5B99"/>
<path d="M163.458 311.315V301.161H155.441V311.315C155.441 312.491 154.479 313.559 153.197 313.559C162.282 326.813 165.702 313.559 165.702 313.559H165.595C164.526 313.559 163.458 312.597 163.458 311.315Z" fill="#F1F1F1"/>
<path d="M163.457 307.574V309.284C163.03 309.284 162.709 309.284 162.282 309.177C160.571 308.857 158.113 308.001 156.51 306.185C156.189 305.757 155.762 305.116 155.441 304.261V304.047C155.548 304.261 155.762 304.474 155.869 304.581C157.365 306.505 159.823 307.253 161.64 307.574C162.282 307.681 162.923 307.681 163.457 307.574Z" fill="#0B334C"/>
<path d="M171.58 317.3C170.725 316.124 168.908 314.842 167.305 313.88L167.839 313.345L163.564 311.849L161.319 318.903L155.441 311.314L151.166 312.597L151.807 313.025C149.669 313.452 144.753 315.162 144.325 321.254C143.898 327.24 143.257 352.357 143.15 356.525C143.15 356.846 143.363 357.06 143.684 357.06L165.274 354.708L166.984 352.464L169.442 354.922L179.276 351.929C179.382 351.716 173.504 319.865 171.58 317.3Z" fill="#1F5B99"/>
<path d="M161.426 321.362V318.903L151.7 312.918" stroke="#0B334C" stroke-width="0.3084" stroke-miterlimit="10" stroke-linecap="round" stroke-linejoin="round"/>
<path d="M167.197 313.986L161.425 318.903" stroke="#0B334C" stroke-width="0.3084" stroke-miterlimit="10" stroke-linecap="round" stroke-linejoin="round"/>
<path d="M172.328 324.782H166.556V325.851H172.328V324.782Z" stroke="#0B334C" stroke-width="0.3084" stroke-miterlimit="10" stroke-linecap="round" stroke-linejoin="round"/>
<path d="M167.197 352.251V343.486" stroke="#0B334C" stroke-width="0.3084" stroke-miterlimit="10" stroke-linecap="round" stroke-linejoin="round"/>
<path d="M210.59 325.53L213.155 324.461C213.262 324.461 213.262 324.354 213.262 324.248L209.628 315.376C209.628 315.27 209.521 315.27 209.414 315.27L206.849 316.338C206.742 316.338 206.742 316.445 206.742 316.552L210.376 325.423C210.376 325.53 210.483 325.53 210.59 325.53Z" fill="#1F5B99"/>
<path d="M208.774 319.011L206.102 312.384L199.154 315.27C198.192 315.697 197.017 315.163 196.589 314.201L194.772 309.712C194.558 309.285 194.558 308.75 194.772 308.216C194.986 307.788 195.307 307.361 195.841 307.147L203.002 304.154L203.43 305.116L196.268 308.109C196.055 308.216 195.841 308.323 195.841 308.536C195.734 308.75 195.734 308.964 195.841 309.178L197.658 313.667C197.872 314.094 198.406 314.308 198.834 314.094L206.743 310.888L209.842 318.476L208.774 319.011Z" fill="#1F5B99"/>
<path d="M200.009 309.177L217.431 302.016C217.965 301.802 218.286 301.161 218.072 300.627L216.79 297.634C216.576 297.1 215.935 296.779 215.4 296.993L197.979 304.154C197.444 304.368 197.123 305.009 197.337 305.543L198.62 308.536C198.727 309.177 199.368 309.391 200.009 309.177Z" fill="#DA81E9"/>
<path d="M212.835 322.216C212.835 321.896 212.408 320.827 212.408 320.827C212.408 320.186 211.446 319.331 211.446 319.331C211.446 319.331 211.873 318.262 211.125 317.941C210.698 317.727 209.95 318.262 209.522 318.689C208.774 319.117 208.24 319.544 208.24 319.544C208.24 319.544 208.453 317.193 207.705 317.086C207.171 316.979 205.781 319.651 205.14 320.827C205.14 320.827 205.14 320.827 205.033 320.827H204.926C202.361 322.323 199.582 323.927 196.91 325.316C194.238 326.812 191.459 328.202 188.68 329.484C183.977 331.729 179.168 333.866 174.358 335.683C172.327 333.866 170.403 332.05 168.48 330.126C167.625 329.271 166.77 328.416 165.914 327.561C164.525 328.736 163.029 329.912 161.639 331.088C160.998 331.836 160.25 332.584 159.608 333.332C159.074 333.973 158.54 334.508 158.005 335.149C159.074 336.111 160.036 337.073 161.105 338.035C161.532 338.356 161.853 338.676 162.281 338.997C164.311 340.814 166.449 342.524 168.693 344.127C168.907 344.234 169.121 344.448 169.228 344.555C170.938 345.837 173.289 346.051 175.32 345.303C177.671 344.234 180.023 343.165 182.374 341.989C183.015 341.669 183.55 341.348 184.084 341.028C185.474 340.279 186.863 339.424 188.253 338.676C189.642 337.821 191.032 336.966 192.314 336.111C197.658 332.691 202.682 329.057 207.598 324.995C208.667 324.782 210.591 324.354 211.767 323.927C212.301 323.82 212.942 323.713 213.156 323.499C213.797 323.285 212.835 322.216 212.835 322.216Z" fill="#F1F1F1"/>
<path d="M167.411 329.058L160.036 337.074L162.281 339.104L167.411 329.058Z" fill="#0B334C"/>
<path d="M170.831 338.142C170.831 338.142 173.717 336.112 174.572 335.791" stroke="#0B334C" stroke-width="0.3084" stroke-miterlimit="10" stroke-linecap="round" stroke-linejoin="round"/>
<path d="M175.962 345.09C175.962 345.09 198.407 333.44 207.92 325.103L210.164 324.568" stroke="#0B334C" stroke-width="0.3084" stroke-miterlimit="10" stroke-linecap="round" stroke-linejoin="round"/>
<path d="M159.609 337.714L146.783 323.927C146.783 323.927 144.325 318.262 148.279 315.59C152.234 312.918 156.082 315.804 157.578 317.621C159.074 319.331 167.518 328.95 167.518 328.95L159.609 337.714Z" fill="#1F5B99"/>
<path d="M148.708 326.064L159.61 337.821L160.144 337.18" stroke="#0B334C" stroke-width="0.3084" stroke-miterlimit="10" stroke-linecap="round" stroke-linejoin="round"/>
<path d="M157.792 335.897L166.342 327.774" stroke="#0B334C" stroke-width="0.3084" stroke-miterlimit="10" stroke-linecap="round" stroke-linejoin="round"/>
<path d="M167.732 292.824C166.77 288.442 162.388 285.77 158.113 286.946C154.158 288.014 151.7 291.969 152.341 295.817C152.234 295.817 152.234 295.817 152.128 295.817C151.059 296.244 150.417 297.527 150.952 298.703C151.379 299.664 152.769 300.84 153.945 300.733C154.586 302.336 155.227 303.726 155.868 304.474C157.365 306.398 159.823 307.146 161.64 307.467C162.923 307.681 164.312 307.36 165.274 306.505C166.236 305.757 167.305 304.581 168.053 303.192C168.374 302.55 168.587 301.909 168.801 301.161C168.908 300.733 168.908 300.306 168.908 299.771C168.801 297.954 168.374 295.282 167.732 292.824Z" fill="#F1F1F1"/>
<path d="M163.029 297.206C163.243 297.954 163.457 298.489 163.671 299.237C163.777 299.557 163.777 299.985 163.671 300.412C163.457 300.84 163.029 301.054 162.709 301.054C162.922 300.733 163.136 300.413 163.136 300.199C163.136 299.985 163.029 299.664 163.029 299.344C162.816 298.702 162.709 297.954 163.029 297.206Z" fill="#0B334C"/>
<path d="M160.998 295.496C160.57 295.496 160.25 295.389 159.822 295.496C159.502 295.603 159.074 295.71 158.86 296.031C158.753 296.137 158.753 296.137 158.647 296.031C158.647 296.031 158.54 295.924 158.647 295.817C158.753 295.603 158.86 295.389 159.074 295.175C159.288 294.962 159.502 294.855 159.715 294.748C160.25 294.641 160.784 294.641 161.212 294.855C161.319 294.962 161.425 295.069 161.319 295.175C161.319 295.496 161.212 295.496 160.998 295.496Z" fill="#0B334C"/>
<path d="M164.953 294.961C165.38 294.748 165.914 294.748 166.449 294.854C166.663 294.961 166.983 295.068 167.09 295.282C167.304 295.496 167.411 295.709 167.518 295.923C167.518 296.03 167.518 296.03 167.411 296.137C167.304 296.137 167.304 296.137 167.197 296.137C166.876 295.816 166.556 295.603 166.235 295.603C165.914 295.496 165.487 295.603 165.059 295.603C164.953 295.603 164.739 295.496 164.739 295.389C164.739 295.175 164.846 295.068 164.953 294.961Z" fill="#0B334C"/>
<path d="M166.555 298.275C166.555 298.917 166.235 299.451 165.807 299.451C165.38 299.451 165.059 298.917 165.059 298.275C165.059 297.634 165.38 297.1 165.807 297.1C166.235 297.1 166.555 297.634 166.555 298.275Z" fill="#0B334C"/>
<path d="M160.891 298.275C160.891 298.917 160.57 299.451 160.143 299.451C159.715 299.451 159.395 298.917 159.395 298.275C159.395 297.634 159.715 297.1 160.143 297.1C160.677 297.1 160.891 297.634 160.891 298.275Z" fill="#0B334C"/>
<path d="M162.921 303.833C162.707 303.94 162.6 303.94 162.387 303.94C162.173 303.94 161.959 303.94 161.852 303.727C162.066 303.727 162.173 303.727 162.387 303.727C162.494 303.833 162.707 303.833 162.921 303.833Z" fill="#0B334C"/>
<path d="M164.204 302.551C163.884 303.085 163.242 303.406 162.601 303.406C162.281 303.406 161.96 303.299 161.639 303.085C161.319 302.871 161.212 302.658 160.998 302.337C161.425 302.764 161.96 303.085 162.494 302.978C163.136 303.192 163.67 302.871 164.204 302.551Z" fill="#0B334C"/>
<path d="M160.25 302.229C160.25 302.229 160.143 301.054 162.815 301.054C162.815 301.054 164.525 301.054 164.846 302.229C164.846 302.229 163.563 303.298 160.25 302.229Z" fill="#0B334C"/>
<path d="M153.517 291.541C153.41 291.541 153.41 291.541 153.517 291.541C151.7 291.113 149.883 292.075 149.349 293.679C149.349 293.786 149.242 293.999 149.242 294.106C148.6 296.564 149.135 299.13 150.631 301.267C151.807 302.977 153.624 304.26 155.548 304.901V304.046C155.013 303.191 154.479 302.122 154.051 300.84C152.983 300.947 151.486 299.771 151.059 298.809C150.738 298.061 150.845 297.313 151.272 296.778C151.7 296.03 152.769 295.923 153.517 296.458C153.944 296.778 154.372 297.206 154.586 297.74C154.586 297.74 155.548 297.954 155.868 297.526C156.082 297.313 155.868 295.923 155.868 294.534C155.655 293.144 154.8 291.969 153.517 291.541Z" fill="#0B334C"/>
<path d="M169.976 294.641C169.976 294.427 169.976 294.32 169.976 294.106C169.976 293.999 169.976 293.892 169.976 293.786V293.679V293.572C169.656 290.579 167.304 291.327 167.304 291.327C167.518 291.648 167.732 292.396 167.732 292.396C167.732 292.396 168.801 297.847 168.908 299.771C168.908 300.092 168.908 300.412 168.908 300.626C169.228 299.771 169.549 298.809 169.656 297.954C169.763 297.206 169.976 296.244 169.976 295.496C169.976 295.282 169.976 294.961 169.976 294.641Z" fill="#0B334C"/>
<path d="M379.679 475.805L374.014 483.393H379.893L379.679 475.805Z" fill="#DA81E9"/>
<path d="M426.386 475.805L432.051 483.393H426.172L426.386 475.805Z" fill="#DA81E9"/>
<path d="M426.386 475.805H379.679V500.708H426.386V475.805Z" fill="#DA81E9"/>
<path d="M429.592 486.065H376.472L379.679 475.805H426.386L429.592 486.065Z" fill="#DA81E9"/>
<path d="M426.386 475.911L428.844 483.393H430.875L426.386 475.911Z" fill="#0B334C"/>
<path d="M426.386 486.064H379.679V489.698L426.386 486.064Z" fill="#0B334C"/>
<path d="M322.817 474.416L325.489 480.722H318.649H314.053H303.472C303.472 480.722 301.014 484.356 298.662 488.952C295.028 495.899 298.128 504.45 305.396 507.442C314.267 511.076 324.421 510.114 332.437 504.877C347.079 501.029 365.57 494.937 371.128 487.669C377.968 478.478 322.817 474.416 322.817 474.416Z" fill="#0B334C"/>
<path d="M325.169 481.149C325.169 481.149 322.177 492.906 328.483 494.296C334.789 495.685 357.661 488.524 356.913 481.684" stroke="white" stroke-width="0.3305" stroke-miterlimit="10" stroke-linecap="round" stroke-linejoin="round"/>
<path d="M327.627 480.615L343.767 478.478" stroke="white" stroke-width="0.3305" stroke-miterlimit="10" stroke-linecap="round" stroke-linejoin="round"/>
<path d="M306.785 490.662L316.832 490.983C316.832 490.983 317.152 503.274 312.556 503.595C307.961 504.022 304.327 499.854 306.785 490.662Z" stroke="white" stroke-width="0.3305" stroke-miterlimit="10" stroke-linecap="round" stroke-linejoin="round"/>
<path d="M303.151 482.967C303.151 482.967 314.374 484.463 324.634 483.715" stroke="white" stroke-width="0.3305" stroke-miterlimit="10" stroke-linecap="round" stroke-linejoin="round"/>
<path d="M343.018 506.481C339.812 506.267 338.957 501.885 341.95 500.495C348.149 497.716 356.379 494.403 359.051 495.579C362.685 497.182 354.882 507.336 343.018 506.481Z" fill="#A87AC9"/>
<path d="M353.813 446.626C353.278 444.489 352.744 442.351 352.53 441.603C352.53 441.496 352.423 441.389 352.423 441.282C351.996 439.679 351.462 437.969 350.927 436.366C348.896 429.953 346.545 423.754 343.659 417.662C343.766 415.952 343.873 412.104 343.445 412.104C342.804 411.997 342.163 414.669 342.163 414.669C342.163 414.669 342.59 409.966 341.735 409.966C340.88 409.966 340.773 413.921 340.773 413.921C340.773 413.921 339.705 409.111 339.063 409.539C338.422 409.966 339.17 413.707 339.17 413.707C339.17 413.707 337.353 409.432 336.819 409.859C336.284 410.287 338.101 415.631 338.101 415.631C338.101 415.631 335.75 414.776 335.429 415.524C335.216 416.058 337.567 418.196 338.529 419.158C338.529 419.158 338.529 419.158 338.529 419.265V419.372C339.384 422.471 340.239 425.678 340.987 428.884C341.735 432.091 342.483 435.297 343.125 438.503C343.445 440.214 343.766 441.924 344.087 443.634C339.705 444.382 335.322 444.916 330.833 445.237C329.765 445.344 328.696 445.344 327.627 445.451C327.841 448.23 328.055 450.902 328.055 453.681C328.055 454.856 328.161 455.925 328.268 457.101C329.551 456.994 330.727 456.887 332.009 456.673C335.429 456.246 338.85 455.711 342.27 454.963C343.339 454.749 344.407 454.429 345.583 454.215C346.652 453.894 348.683 453.36 350.5 452.719C352.958 451.757 354.454 449.192 353.813 446.626Z" fill="white"/>
<path d="M344.087 443.42C344.087 443.42 344.622 447.268 345.37 448.55" stroke="#0B334C" stroke-width="0.3305" stroke-miterlimit="10" stroke-linecap="round" stroke-linejoin="round"/>
<path d="M330.085 457.1C330.085 457.1 310.098 460.734 305.93 455.177C301.762 449.619 308.388 445.237 309.671 445.13C310.953 445.023 328.909 444.916 328.909 444.916L330.085 457.1Z" fill="#F64652"/>
<path d="M317.367 443.848V433.053H308.816V443.955C308.816 445.237 307.961 446.413 306.572 446.413L305.93 446.52C318.222 456.674 319.825 446.306 319.825 446.306C318.435 446.306 317.367 445.237 317.367 443.848Z" fill="white"/>
<path d="M317.366 439.68V442.138C316.404 441.71 315.442 441.069 314.587 440.214C314.266 439.787 313.946 439.359 313.518 438.718C314.694 439.252 315.87 439.466 316.832 439.68C317.152 439.68 317.259 439.68 317.366 439.68Z" fill="#0B334C"/>
<path d="M308.282 445.558C308.282 445.558 318.649 445.664 319.932 446.199C321.214 446.84 327.2 452.505 328.055 456.139C328.91 459.773 323.779 470.14 324.421 472.171C325.062 474.202 327.307 480.722 327.307 480.722H302.51C302.51 480.722 305.717 468.43 302.724 461.162C299.838 453.894 300.586 445.878 308.282 445.558Z" fill="#F64652"/>
<path d="M396.566 483.821C396.459 483.18 390.795 482.218 390.795 482.218C390.795 482.218 392.719 480.508 392.184 479.867C391.863 479.439 388.871 480.401 387.481 480.935C387.481 480.935 387.481 480.935 387.374 480.935H387.268C384.168 480.187 380.855 479.439 377.755 478.584C374.549 477.729 371.449 476.874 368.35 475.912C362.15 473.988 355.951 471.851 350.287 469.179C344.622 466.507 339.171 463.193 333.934 459.559C332.224 458.384 330.407 457.101 328.697 455.818C328.376 456.46 327.948 457.208 327.628 457.849C326.238 460.628 324.849 463.514 323.246 466.4C324.742 467.362 326.131 468.323 327.628 469.179C330.62 470.996 333.613 472.706 336.713 474.202C339.812 475.698 343.126 477.195 346.439 478.37C349.752 479.546 353.066 480.615 356.379 481.47C358.089 481.897 359.692 482.325 361.402 482.646C363.112 482.966 364.716 483.394 366.426 483.608C373.052 484.89 379.679 485.638 386.412 486.066C387.909 486.921 391.115 488.845 391.436 488.524C391.757 487.99 389.726 486.173 389.726 486.173C389.726 486.173 393.68 488.738 394.001 487.99C394.429 487.242 391.008 485.318 391.008 485.318C391.008 485.318 395.711 486.6 395.711 485.852C395.604 485.104 391.97 483.928 391.97 483.928C391.97 483.928 396.673 484.463 396.566 483.821Z" fill="white"/>
<path d="M326.879 469.499C326.879 469.499 306.358 460.308 308.282 451.436C310.206 442.565 318.222 446.627 321.108 449.833C324.1 453.04 333.933 459.559 333.933 459.559L326.879 469.499Z" fill="#F64652"/>
<path d="M325.17 468.751C325.17 468.751 312.558 461.376 309.031 456.78" stroke="#0B334C" stroke-width="0.3305" stroke-miterlimit="10" stroke-linecap="round" stroke-linejoin="round"/>
<path d="M329.659 456.46L320.147 448.871" stroke="#0B334C" stroke-width="0.3305" stroke-miterlimit="10" stroke-linecap="round" stroke-linejoin="round"/>
<path d="M325.596 431.449C325.489 431.235 325.275 431.129 325.062 431.022C324.634 430.701 324.314 430.273 324.1 429.739C323.886 427.922 323.352 425.784 322.817 423.647C321.642 419.051 316.832 416.379 312.236 417.768C307.64 419.158 305.182 424.074 306.785 428.563C307.961 431.877 309.35 435.297 310.633 436.686C312.343 438.61 315.015 439.358 316.832 439.679C318.221 439.893 319.611 439.465 320.68 438.503C321.642 437.648 322.817 436.366 323.459 434.763C323.672 434.335 323.779 433.907 323.993 433.373C324.42 433.052 324.848 432.732 325.276 432.304C325.382 432.197 325.489 432.09 325.596 431.984C325.81 431.877 325.81 431.663 325.596 431.449Z" fill="white"/>
<path d="M320.359 432.838C320.359 433.907 319.504 434.869 318.329 434.869C317.26 434.869 316.298 434.014 316.298 432.838C316.298 431.77 317.153 430.808 318.329 430.808C319.397 430.914 320.359 431.77 320.359 432.838Z" fill="#A83EBA"/>
<path d="M321.856 426.532C321.429 426.532 321.001 426.425 320.574 426.532C320.146 426.639 319.825 426.746 319.505 427.174C319.398 427.28 319.398 427.28 319.291 427.174C319.291 427.174 319.184 427.067 319.291 426.96C319.398 426.746 319.505 426.425 319.718 426.318C319.932 426.105 320.146 425.998 320.467 425.891C321.001 425.677 321.535 425.784 322.07 425.998C322.177 426.105 322.284 426.212 322.177 426.425C322.07 426.532 321.963 426.532 321.856 426.532Z" fill="#0B334C"/>
<path d="M321.215 435.19C321.001 435.19 320.787 435.19 320.574 435.083C320.36 434.976 320.146 434.869 320.146 434.655C320.36 434.762 320.467 434.869 320.681 434.869C320.787 435.083 321.001 435.083 321.215 435.19Z" fill="#0B334C"/>
<path d="M323.032 434.549C322.497 434.869 321.749 434.976 321.108 434.762C320.787 434.656 320.467 434.442 320.253 434.121C320.039 433.8 319.932 433.48 319.932 433.159C320.253 433.694 320.574 434.228 321.215 434.442C321.749 434.655 322.391 434.656 323.032 434.549Z" fill="#0B334C"/>
<path d="M322.069 429.846C321.642 429.739 321.214 429.632 320.787 429.632C320.359 429.632 320.039 429.739 319.504 429.846C319.611 429.632 319.825 429.418 320.039 429.311C320.252 429.205 320.466 429.098 320.787 429.098C321.321 429.098 321.856 429.418 322.069 429.846Z" fill="#0B334C"/>
<path d="M323.779 421.081C323.352 419.264 322.176 417.554 320.573 416.592C319.611 416.058 318.649 415.63 317.58 415.524C315.122 415.096 312.45 415.524 310.205 416.806C309.457 417.234 308.709 417.768 308.068 418.303C307.213 419.051 306.464 419.799 305.823 420.654C304.754 422.257 304.434 424.288 304.113 426.212C303.579 429.098 302.403 431.77 301.013 434.335C300.372 435.51 299.731 436.686 299.41 437.969C298.983 439.251 298.983 440.641 299.41 441.816C299.945 443.099 301.12 444.168 302.51 444.595C303.472 444.916 306.358 445.023 308.281 445.237C309.885 445.344 311.488 445.023 312.77 444.061C317.794 440.213 310.953 432.411 310.953 432.411C306.785 429.418 310.312 427.494 310.312 427.494C311.167 427.601 311.915 427.601 312.664 427.601C312.984 428.136 313.412 429.098 313.198 430.38C313.198 430.38 315.015 428.563 315.549 427.067C319.504 425.891 322.069 423.112 322.604 422.578C322.71 422.898 322.924 423.326 323.031 423.753C323.245 424.609 323.459 425.464 323.672 426.319C324.1 424.502 324.207 422.792 323.779 421.081Z" fill="#0B334C"/>
<path d="M358.942 93.918L371.661 101.186L385.128 75L358.942 93.918Z" fill="#BA68C8"/>
<path d="M358.943 93.918L358.515 103.537L366.638 98.3001L358.943 93.918Z" fill="#593375"/>
<path d="M358.515 103.537L353.92 92.5286L385.129 75L358.943 93.918L358.515 103.537Z" fill="#7E559B"/>
<path d="M385.129 75L343.338 88.8946L353.919 92.5286L385.129 75Z" fill="#BA68C8"/>
<path d="M549.833 320.721H502.057V265.784H537.969L549.833 278.61V320.721Z" fill="#BA68C8"/>
<path d="M537.969 265.783L534.656 278.716L549.833 278.609L537.969 265.783Z" fill="#BA68C8"/>
<path d="M537.862 265.677L534.762 278.823L549.725 278.716" stroke="#0B334C" stroke-width="0.9252" stroke-miterlimit="10" stroke-linecap="round" stroke-linejoin="round"/>
<path d="M152.234 162.429C155.547 161.36 159.075 161.895 161.853 163.391L152.555 132.823L124.659 141.266C124.873 139.663 124.659 137.953 124.231 136.243C122.2 129.616 115.253 125.876 108.627 127.906C102 129.937 98.259 136.884 100.29 143.511C100.824 145.221 101.679 146.717 102.641 147.893L74.7451 156.337L84.0438 186.905C85.5401 184.019 88.2122 181.774 91.5255 180.706C98.1521 178.675 105.099 182.416 107.13 189.042C109.161 195.669 105.42 202.616 98.7934 204.647C95.4801 205.716 91.953 205.182 89.1741 203.685L98.4728 234.253L126.369 225.81C126.155 227.413 126.369 229.123 126.796 230.833C128.827 237.46 135.774 241.201 142.401 239.17C149.028 237.139 152.769 230.192 150.738 223.565C150.203 221.855 149.348 220.359 148.386 219.183L176.282 210.739L166.984 180.278C165.487 183.164 162.815 185.408 159.502 186.477C152.875 188.508 145.928 184.767 143.897 178.141C141.867 171.407 145.607 164.46 152.234 162.429Z" fill="#A87AC9"/>
<path d="M99.8621 230.298L124.552 223.03" stroke="#0B334C" stroke-width="0.9252" stroke-miterlimit="10" stroke-linecap="round" stroke-linejoin="round"/>
<path d="M127.117 144.259L151.593 136.563" stroke="#0B334C" stroke-width="0.9252" stroke-miterlimit="10" stroke-linecap="round" stroke-linejoin="round"/>
<path d="M507.082 487.884L507.937 500.603L512.319 500.389C512.319 500.389 513.494 495.152 514.777 487.884H507.082Z" fill="#F7F7F7"/>
<path d="M507.722 499.32C507.722 499.32 510.394 501.137 512.425 499.32L512.853 500.496C513.28 501.565 513.387 502.634 513.387 503.702V504.023H499.172C499.172 502.954 499.813 502.099 500.775 501.779L507.722 499.32Z" fill="#0B334C"/>
<path d="M529.312 487.884L530.702 500.71L535.084 500.389C535.084 500.389 536.046 495.259 537.115 487.884H529.312Z" fill="#F7F7F7"/>
<path d="M530.595 499.32C530.595 499.32 533.267 501.137 535.298 499.32L535.726 500.496C536.153 501.565 536.26 502.634 536.26 503.702V504.023H522.045C522.045 502.954 522.686 502.099 523.648 501.779L530.595 499.32Z" fill="#0B334C"/>
<path d="M503.339 360.694C503.125 361.122 503.019 361.549 502.805 361.87C500.453 367.428 497.781 372.772 494.575 377.795C491.368 382.819 487.521 387.628 483.566 392.224C481.535 394.576 479.505 396.82 477.367 399.065C475.229 401.309 473.092 403.554 470.954 405.691L470.847 405.798C469.885 406.76 469.885 408.47 470.847 409.432C471.702 410.287 473.199 410.394 474.161 409.646C479.398 405.905 484.314 401.844 489.017 397.462C490.193 396.393 491.368 395.217 492.544 394.148C493.72 392.973 494.789 391.904 495.964 390.621C498.209 388.27 500.346 385.811 502.377 383.139C504.408 380.467 506.225 377.689 507.935 374.91C509.645 372.131 511.141 369.245 512.638 366.252C513.065 365.504 513.386 364.649 513.814 363.794C510.286 363.046 506.759 361.977 503.339 360.694Z" fill="#F7F7F7"/>
<path d="M471.489 405.691C471.489 405.691 466.679 406.546 466.572 407.295C466.465 408.043 468.817 408.47 468.817 408.47C468.817 408.47 464.862 412.104 465.076 412.639C465.397 413.28 468.817 410.608 468.817 410.608C468.817 410.608 466.465 413.387 466.786 414.028C467.107 414.669 470.206 411.249 470.206 411.249C470.206 411.249 468.496 414.563 469.244 414.883C469.886 415.311 471.81 411.249 471.81 411.249C471.81 411.249 471.168 413.814 471.703 414.028C472.237 414.242 474.802 408.898 474.802 408.898L471.489 405.691Z" fill="#F7F7F7"/>
<path d="M519.051 352.251C518.944 352.572 518.838 352.786 518.731 353.106C516.593 359.092 513.173 366.253 513.173 366.253L512.745 366.039L509.539 364.863L507.829 364.222H507.722L502.592 362.298L502.164 362.084C502.164 362.084 502.912 360.374 503.767 358.13C504.409 356.526 505.157 354.602 505.905 352.785C506.012 352.572 506.012 352.465 506.119 352.251C506.332 351.61 506.546 350.969 506.76 350.434C507.081 349.579 507.401 348.724 507.615 347.976C507.829 347.335 508.043 346.693 508.149 346.266C508.577 344.769 509.432 343.701 510.501 342.846C511.89 341.67 513.6 341.135 514.669 340.815C514.669 340.815 514.669 340.815 514.776 340.815C514.99 340.708 515.204 340.708 515.417 340.601H515.524C516.807 340.387 519.051 342.632 520.12 345.411C520.227 345.624 520.227 345.731 520.334 345.945C520.334 345.945 520.334 345.945 520.334 346.052C520.761 346.693 520.12 349.258 519.051 352.251Z" fill="#DA81E9"/>
<path d="M526.534 341.028C525.679 342.311 524.824 343.273 523.969 344.021C523.541 344.448 523.114 344.662 522.686 344.983C522.259 345.197 521.938 345.41 521.511 345.517C521.083 345.624 520.762 345.731 520.335 345.731C520.228 345.731 520.121 345.731 520.014 345.731C519.48 345.731 519.052 345.624 518.518 345.517C517.77 345.303 517.129 344.876 516.594 344.448C516.594 344.448 516.487 344.448 516.487 344.341C515.846 343.807 515.312 343.273 514.884 342.738C514.67 342.418 514.456 342.204 514.35 341.99C514.136 341.669 513.922 341.456 513.922 341.242C513.815 341.135 513.815 341.135 513.815 341.135H513.922C514.029 341.135 514.136 341.135 514.136 341.135C514.67 341.028 515.098 340.814 515.418 340.494L515.525 340.387C515.846 339.959 516.06 339.425 516.06 338.89V328.63H524.076V331.516V338.89C524.076 339.318 524.183 339.746 524.396 340.066C524.503 340.28 524.717 340.601 525.038 340.707C525.145 340.814 525.358 340.921 525.572 341.028C526 340.921 526.213 341.028 526.534 341.028Z" fill="#F7F7F7"/>
<path d="M524.29 331.409V331.623C523.862 332.371 523.542 333.119 523.114 333.547C521.618 335.471 519.053 336.219 517.343 336.539C516.915 336.646 516.595 336.646 516.167 336.646V334.936C516.808 335.043 517.45 335.15 518.091 335.043C519.801 334.723 522.366 333.867 523.862 332.05C523.969 331.837 524.183 331.623 524.29 331.409Z" fill="#0B334C"/>
<path d="M529.206 363.366C528.565 365.824 528.244 367.748 528.779 368.71C530.061 371.489 531.237 373.947 531.237 373.947H505.586C505.586 373.947 506.975 372.344 508.151 369.993C508.685 368.924 509.22 367.748 509.433 366.466C509.54 365.931 509.647 365.397 509.647 364.755C509.647 364.007 509.647 363.259 509.326 362.618V362.511C508.044 358.77 506.334 355.564 506.013 352.892C506.013 352.785 506.013 352.678 506.013 352.571C505.906 351.93 506.013 351.182 506.227 350.647C506.441 349.792 507.082 348.83 507.83 347.654C508.899 346.158 510.288 344.448 511.785 343.059C511.998 342.845 512.212 342.631 512.426 342.417C512.96 341.883 513.602 341.455 514.136 341.028C514.243 340.921 514.243 340.921 514.35 340.921C514.564 340.707 514.777 340.6 514.991 340.493C515.098 340.493 515.098 340.387 515.205 340.387L515.739 340.066V340.173V340.28C515.739 340.814 515.632 342.845 516.701 344.234C516.701 344.234 516.701 344.234 516.701 344.341C517.129 344.876 517.663 345.196 518.518 345.41H518.625C519.16 345.517 519.694 345.41 520.228 345.089C522.473 344.02 524.29 340.387 524.504 339.959V340.066C524.504 340.28 524.504 340.493 525.145 340.707C525.252 340.814 525.466 340.814 525.786 340.814C526 340.814 526.321 340.921 526.748 340.921C526.855 340.921 526.962 340.921 527.069 340.921C528.031 340.921 528.886 341.135 529.741 341.562C531.344 342.417 533.589 344.341 533.268 348.082C533.268 348.189 533.268 348.296 533.268 348.403C532.947 351.93 531.023 357.381 529.741 361.977C529.741 362.19 529.634 362.404 529.527 362.618C529.313 362.832 529.313 363.152 529.206 363.366Z" fill="#DA81E9"/>
<path d="M537.97 453.146C540.429 465.438 539.68 479.653 538.505 490.341H526.855L519.266 415.31V414.99V415.31L516.808 453.253C518.625 463.514 517.342 478.798 515.739 490.234H505.265C504.089 470.247 501.951 435.297 500.562 414.348V414.241C500.348 410.607 500.134 407.401 499.921 404.729C499.707 401.629 499.493 399.278 499.386 397.996C499.065 394.575 499.707 390.621 500.669 386.559C500.882 385.811 500.989 385.17 501.203 384.422C501.951 381.536 502.913 378.757 503.875 376.192C504.089 375.55 504.303 374.909 504.516 374.375C505.158 372.558 505.799 370.955 506.333 369.672C506.975 368.069 507.402 366.893 507.616 366.359C507.723 365.824 507.83 364.969 507.723 364.007V363.9C507.616 363.259 507.616 362.618 507.402 361.976C507.082 360.266 506.654 358.449 506.12 356.846C505.799 355.564 505.692 354.174 505.906 352.892C506.013 352.571 506.013 352.357 506.12 352.036C506.227 351.395 506.547 350.754 506.761 350.219C506.975 349.792 507.188 349.364 507.509 349.044L511.784 343.165L512.212 342.524L513.067 341.348L513.815 341.028L514.67 340.6L514.884 340.493L515.418 340.173V340.28V340.386L514.777 342.738L514.456 343.914L512.426 351.716L518.839 352.25L519.8 352.357L522.259 345.624L522.579 344.875L524.396 339.959V339.852V339.745L526.534 340.6V340.707L526.32 341.99L525.572 346.158L524.289 353.426L528.351 361.549L528.672 362.297L529.099 363.152L531.878 368.71C531.878 368.71 532.199 369.672 532.84 371.489C534.229 375.55 537.115 383.78 541.07 394.896C546.841 411.249 537.97 453.146 537.97 453.146Z" fill="#0B334C"/>
<path d="M514.67 341.134L511.25 352.464L520.656 353.212L525.252 340.279" stroke="white" stroke-width="0.3084" stroke-miterlimit="10" stroke-linecap="round" stroke-linejoin="round"/>
<path d="M515.74 417.448L523.328 412.959" stroke="white" stroke-width="0.3084" stroke-miterlimit="10" stroke-linecap="round" stroke-linejoin="round"/>
<path d="M517.663 386.132H536.902" stroke="white" stroke-width="0.3084" stroke-miterlimit="10" stroke-linecap="round" stroke-linejoin="round"/>
<path d="M530.703 386.238C530.703 386.238 531.344 400.881 539.04 401.629" stroke="white" stroke-width="0.3084" stroke-miterlimit="10" stroke-linecap="round" stroke-linejoin="round"/>
<path d="M534.23 386.238C534.23 386.238 539.574 397.781 539.253 404.194C538.932 410.607 535.085 454.001 535.085 454.001V488.203" stroke="white" stroke-width="0.3084" stroke-miterlimit="10" stroke-linecap="round" stroke-linejoin="round"/>
<path d="M517.021 416.379L515.098 453.253C515.098 453.253 514.563 470.995 513.494 488.845" stroke="white" stroke-width="0.3084" stroke-miterlimit="10" stroke-linecap="round" stroke-linejoin="round"/>
<path d="M481.683 323.882L409.415 370.763L456.296 443.031L528.564 396.15L481.683 323.882Z" fill="white"/>
<path d="M479.228 335.412L420.947 373.219L458.754 431.5L517.035 393.692L479.228 335.412Z" fill="#BA68C8"/>
<path d="M510.18 383.139L517.021 393.72L458.77 431.556L448.51 415.738C450.54 409.645 454.281 404.087 459.732 400.774C464.328 397.995 469.779 397.033 475.123 396.071C484.315 394.361 499.278 386.559 510.18 383.139Z" fill="#C755DB"/>
<path d="M474.803 362.511C477.048 365.931 476.086 370.634 472.559 372.878C469.138 375.123 464.436 374.161 462.191 370.634C459.947 367.213 460.908 362.511 464.436 360.266C467.856 358.021 472.559 358.983 474.803 362.511Z" fill="#DA81E9"/>
<path d="M481.75 323.927L409.498 370.741L456.205 443.206L528.671 396.392L481.75 323.927Z" stroke="#0B334C" stroke-width="0.3084" stroke-miterlimit="10" stroke-linecap="round" stroke-linejoin="round"/>
<path d="M522.792 361.015C522.792 362.404 522.792 363.794 522.792 365.076C522.792 367.214 522.685 369.245 522.471 371.275C519.051 371.168 515.524 370.848 512.104 370.42C509.004 370.1 506.012 369.672 502.912 369.244C499.813 368.817 496.82 368.283 493.827 367.641H493.72C493.72 367.641 493.72 367.641 493.613 367.641C492.652 366.679 490.407 364.649 489.979 364.969C489.338 365.29 490.3 367.534 490.3 367.534C490.3 367.534 485.063 366.252 484.742 366.786C484.422 367.321 488.59 368.71 488.59 368.71C488.59 368.71 484.956 368.283 484.635 368.924C484.315 369.565 488.911 370.206 488.911 370.206C488.911 370.206 485.277 370.634 485.277 371.489C485.277 372.237 489.659 371.489 489.659 371.489C489.659 371.489 487.201 372.344 487.307 372.878C487.414 373.306 490.941 372.878 492.545 372.665C498.53 374.802 504.515 376.512 510.714 378.009C512.318 378.329 513.814 378.65 515.417 378.971C517.02 379.291 518.624 379.612 520.227 379.826C520.654 379.933 521.082 379.933 521.51 380.04C522.578 380.146 524.075 380.36 525.678 380.467C528.884 380.788 531.77 378.65 532.411 375.444C532.411 375.444 532.411 375.444 532.411 375.337C532.625 373.947 532.839 372.558 532.946 371.275C533.16 369.351 533.373 367.534 533.587 365.611C533.694 364.328 533.801 363.152 533.801 361.87C530.06 362.083 526.319 361.763 522.792 361.015Z" fill="#F7F7F7"/>
<path d="M534.442 347.334C534.442 347.869 534.442 348.189 534.442 348.403C534.442 349.579 534.014 362.725 534.014 362.725H533.8L529.525 362.618H528.884L522.899 362.405H522.578C522.578 362.405 523.86 353.106 525.464 346.372C525.784 344.769 526.212 343.38 526.639 342.311C526.853 341.883 526.96 341.456 527.174 341.028C533.694 340.814 534.335 345.09 534.442 347.334Z" fill="#DA81E9"/>
<path d="M528.777 326.172C528.35 327.134 526.853 328.309 525.784 328.202C525.25 329.485 524.822 330.661 524.288 331.409C524.181 331.623 523.967 331.836 523.861 331.943C522.364 333.867 519.799 334.615 518.089 334.936C517.448 335.043 516.806 335.043 516.165 334.936C515.524 334.722 514.883 334.508 514.455 333.974C513.493 333.119 512.424 332.05 511.676 330.554C511.355 329.912 511.035 329.164 510.928 328.416C510.821 327.989 510.821 327.561 510.821 327.027C510.821 325.103 511.355 322.538 511.89 319.972C512.852 315.59 517.234 312.918 521.616 314.094C525.678 315.163 528.136 319.117 527.388 323.072C527.388 323.072 527.495 323.072 527.601 323.179C528.67 323.713 529.205 324.996 528.777 326.172Z" fill="#F7F7F7"/>
<path d="M519.157 328.844C519.157 329.913 520.012 330.768 521.081 330.768C522.15 330.768 523.005 329.913 523.005 328.844C523.005 327.775 522.15 326.92 521.081 326.92C520.012 326.92 519.157 327.775 519.157 328.844Z" fill="white"/>
<path d="M513.707 328.844C513.707 329.913 512.852 330.768 511.783 330.768C511.676 330.768 511.676 330.768 511.676 330.768C511.355 330.126 511.035 329.378 510.928 328.63C510.821 328.203 510.821 327.775 510.821 327.241C511.141 327.027 511.462 326.92 511.783 326.92C512.852 326.92 513.707 327.775 513.707 328.844Z" fill="white"/>
<path d="M516.699 324.568C517.02 325.317 516.913 326.065 516.699 326.706C516.592 327.027 516.485 327.347 516.592 327.561C516.592 327.775 516.806 328.095 517.02 328.416C516.699 328.309 516.272 328.202 516.058 327.668C515.951 327.24 516.058 326.813 516.058 326.492C516.272 325.851 516.485 325.21 516.699 324.568Z" fill="#0B334C"/>
<path d="M518.517 322.324C518.944 322.11 519.479 322.11 520.013 322.217C520.227 322.324 520.547 322.43 520.654 322.644C520.868 322.858 520.975 323.072 521.082 323.286C521.082 323.392 521.082 323.392 520.975 323.499C520.868 323.499 520.868 323.499 520.761 323.499C520.44 323.179 520.12 322.965 519.799 322.965C519.479 322.858 519.051 322.965 518.623 322.965C518.517 322.965 518.303 322.858 518.303 322.751C518.41 322.43 518.41 322.43 518.517 322.324Z" fill="#0B334C"/>
<path d="M514.562 322.858C514.134 322.858 513.707 322.752 513.386 322.858C512.959 322.965 512.638 323.072 512.424 323.393C512.317 323.5 512.317 323.5 512.211 323.393C512.211 323.393 512.104 323.286 512.211 323.179C512.317 322.965 512.424 322.752 512.638 322.538C512.852 322.324 513.066 322.217 513.279 322.11C513.814 322.003 514.348 322.003 514.776 322.217C514.883 322.324 514.99 322.431 514.883 322.538C514.883 322.752 514.776 322.858 514.562 322.858Z" fill="#0B334C"/>
<path d="M513.813 326.706C514.226 326.706 514.561 326.179 514.561 325.53C514.561 324.881 514.226 324.354 513.813 324.354C513.4 324.354 513.065 324.881 513.065 325.53C513.065 326.179 513.4 326.706 513.813 326.706Z" fill="#0B334C"/>
<path d="M518.837 325.53C518.837 326.171 519.157 326.706 519.585 326.706C520.012 326.706 520.333 326.171 520.333 325.53C520.333 324.889 520.012 324.354 519.585 324.354C519.157 324.461 518.837 324.996 518.837 325.53Z" fill="#0B334C"/>
<path d="M518.303 329.912C518.517 329.805 518.624 329.805 518.837 329.698C519.051 329.698 519.158 329.591 519.372 329.484C519.265 329.698 519.051 329.805 518.944 329.912C518.73 329.805 518.517 329.912 518.303 329.912Z" fill="#0B334C"/>
<path d="M516.699 329.271C517.341 329.378 517.875 329.378 518.409 329.164C518.944 328.95 519.264 328.523 519.585 327.988C519.585 328.309 519.478 328.63 519.264 328.843C519.051 329.164 518.837 329.378 518.516 329.485C517.875 329.698 517.127 329.591 516.699 329.271Z" fill="#0B334C"/>
<path d="M536.687 338.356C536.152 335.577 535.084 332.905 532.839 331.195C533.48 329.058 533.374 326.813 532.625 324.675C531.877 322.645 530.488 320.828 528.457 319.866C528.671 318.263 523.647 308.857 513.6 313.239C511.356 314.201 510.287 316.98 510.608 319.866C509.005 321.255 508.149 323.393 508.043 325.53C507.936 327.668 508.363 329.699 509.005 331.73C509.432 332.798 509.86 333.974 510.394 335.043C509.539 335.791 509.111 336.86 509.005 337.929C508.898 338.998 509.218 340.173 509.753 341.135C509.966 341.67 510.287 342.097 510.715 342.525C512.104 341.349 513.814 340.815 514.883 340.494L515.097 340.387C515.311 340.28 515.524 340.173 515.631 340.066V340.173C515.952 339.746 516.166 339.211 516.166 338.677V334.936C515.524 334.722 514.883 334.509 514.455 333.974C513.494 333.119 512.425 332.05 511.677 330.554C511.356 329.913 511.035 329.164 510.928 328.416C510.822 327.989 510.822 327.561 510.822 327.027C510.822 325.637 511.142 323.927 511.463 322.003C512.425 322.003 514.455 321.79 516.593 319.866C516.593 319.866 517.448 324.675 523.22 324.141C523.22 324.141 522.899 326.599 524.075 326.706C525.037 326.813 526.64 324.248 527.388 322.858H527.495C528.564 323.286 529.205 324.569 528.671 325.744C528.243 326.706 526.747 327.882 525.678 327.775C525.144 329.058 524.716 330.233 524.182 330.981V338.356C524.182 338.784 524.289 339.211 524.502 339.532L526.64 340.387V340.494C526.747 340.494 526.854 340.494 526.961 340.494C533.694 340.387 534.442 344.662 534.442 346.8C535.618 345.09 536.794 343.273 537.007 341.349C537.114 340.601 536.901 339.532 536.687 338.356Z" fill="#0B334C"/>
</svg>
