<svg width="577" height="435" viewBox="0 0 577 435" fill="none" xmlns="http://www.w3.org/2000/svg">
<path d="M75.2449 429.236C74.8174 429.236 74.3899 429.022 74.0692 428.594C72.5729 426.029 71.0765 423.357 69.4733 420.471C69.1527 419.83 69.3664 419.082 70.0077 418.654C70.649 418.334 71.3972 418.548 71.8247 419.189C73.3211 421.968 74.8174 424.64 76.3137 427.205C76.6344 427.846 76.4206 428.594 75.8862 429.022C75.6725 429.129 75.4587 429.236 75.2449 429.236ZM545.737 424.212C545.63 424.212 545.63 424.212 545.523 424.212C544.775 424.105 544.241 423.464 544.347 422.716C544.668 419.937 545.096 416.944 545.737 413.524C545.844 412.776 546.592 412.348 547.233 412.455C547.981 412.562 548.409 413.31 548.302 413.952C547.768 417.372 547.233 420.365 546.913 423.037C546.913 423.678 546.378 424.212 545.737 424.212ZM66.3738 412.99C65.9462 412.99 65.4118 412.776 65.1981 412.242C63.8086 409.57 62.4192 406.791 61.0297 403.905C60.7091 403.264 61.0297 402.408 61.671 402.195C62.3123 401.874 63.1673 402.195 63.3811 402.836C64.7705 405.615 66.16 408.394 67.4426 411.066C67.7632 411.707 67.5495 412.562 66.9082 412.883C66.8013 412.99 66.5875 412.99 66.3738 412.99ZM548.73 405.936C548.623 405.936 548.516 405.936 548.516 405.936C547.768 405.829 547.34 405.081 547.447 404.439C547.981 401.447 548.623 398.454 549.264 395.354C549.371 394.606 550.119 394.179 550.867 394.285C551.615 394.392 552.043 395.141 551.936 395.889C551.295 398.988 550.653 401.981 550.119 404.974C549.905 405.508 549.371 405.936 548.73 405.936ZM58.3577 396.423C57.8233 396.423 57.3957 396.103 57.182 395.675C55.8994 392.896 54.6168 390.01 53.4411 387.231C53.1205 386.59 53.4411 385.735 54.0824 385.521C54.7237 385.201 55.5787 385.521 55.7925 386.163C56.9682 388.941 58.2508 391.827 59.5334 394.606C59.854 395.247 59.5334 396.102 58.8921 396.316C58.6783 396.316 58.4645 396.423 58.3577 396.423ZM552.47 387.873C552.364 387.873 552.257 387.873 552.15 387.873C551.402 387.766 550.974 387.018 551.188 386.269L553.112 377.184C553.219 376.436 553.967 376.009 554.715 376.223C555.463 376.329 555.891 377.078 555.677 377.826L553.753 386.804C553.646 387.445 553.112 387.873 552.47 387.873ZM50.9828 379.429C50.4484 379.429 50.0209 379.108 49.8071 378.574C48.6315 375.688 47.4558 372.802 46.3869 370.023C46.1732 369.382 46.4938 368.527 47.1351 368.313C47.7764 368.1 48.5246 368.42 48.8452 369.061C49.914 371.947 51.0897 374.726 52.2654 377.612C52.5861 378.253 52.2654 379.108 51.5172 379.322C51.3035 379.429 51.1966 379.429 50.9828 379.429ZM556.318 369.81C556.211 369.81 556.104 369.81 555.997 369.81C555.249 369.703 554.822 368.955 554.929 368.206C555.57 365.107 556.211 362.114 556.746 359.122C556.853 358.373 557.601 357.946 558.349 358.053C559.097 358.16 559.525 358.908 559.418 359.656C558.776 362.649 558.242 365.641 557.601 368.741C557.494 369.382 556.96 369.81 556.318 369.81ZM44.2493 362.221C43.7149 362.221 43.1805 361.9 42.9667 361.366C41.8979 358.48 40.8291 355.488 39.8672 352.602C39.6534 351.96 39.9741 351.212 40.7222 350.892C41.3635 350.678 42.1117 350.999 42.4323 351.747C43.3943 354.633 44.4631 357.518 45.5319 360.404C45.7457 361.045 45.425 361.794 44.7837 362.114C44.57 362.221 44.4631 362.221 44.2493 362.221ZM559.952 351.747C559.845 351.747 559.845 351.747 559.738 351.747C558.99 351.64 558.563 350.892 558.67 350.25C559.311 346.937 559.738 343.944 560.166 341.165C560.273 340.417 560.914 339.99 561.662 340.097C562.41 340.204 562.838 340.845 562.731 341.593C562.304 344.372 561.769 347.365 561.128 350.785C561.128 351.212 560.593 351.747 559.952 351.747ZM38.264 344.799C37.7295 344.799 37.1951 344.479 36.9814 343.837C36.0194 340.845 35.0575 337.852 34.2025 334.966C33.9887 334.218 34.4162 333.577 35.0575 333.363C35.8057 333.149 36.447 333.577 36.6607 334.218C37.5158 337.104 38.4777 340.097 39.3328 342.982C39.5465 343.624 39.2259 344.372 38.4777 344.693C38.5846 344.799 38.3708 344.799 38.264 344.799ZM562.731 333.47H562.624C561.876 333.363 561.342 332.722 561.448 331.974C561.662 330.157 561.769 328.447 561.876 326.95C561.876 325.668 561.876 324.278 561.769 322.889C561.769 322.141 562.304 321.499 563.052 321.499C563.8 321.499 564.441 322.034 564.441 322.782C564.548 324.171 564.548 325.668 564.548 326.95C564.441 328.553 564.334 330.264 564.121 332.187C563.907 332.936 563.372 333.47 562.731 333.47ZM33.0268 327.057C32.4924 327.057 31.958 326.63 31.7442 326.095C30.8891 323.103 30.141 320.11 29.3928 317.117C29.179 316.369 29.6066 315.728 30.3547 315.514C31.1029 315.3 31.7442 315.728 31.958 316.476C32.7061 319.362 33.4543 322.354 34.2025 325.347C34.4162 326.095 33.9887 326.736 33.2405 326.95C33.2405 327.057 33.1336 327.057 33.0268 327.057ZM562.09 314.98C561.448 314.98 560.914 314.552 560.807 313.804C560.38 310.918 559.845 307.925 559.097 304.826C558.883 304.078 559.418 303.436 560.059 303.223C560.807 303.009 561.449 303.543 561.662 304.184C562.41 307.284 562.945 310.384 563.372 313.376C563.479 314.124 562.945 314.766 562.304 314.873C562.197 314.98 562.197 314.98 562.09 314.98ZM28.6446 309.101C28.0033 309.101 27.4689 308.674 27.3621 308.032C26.7208 304.933 26.0795 301.94 25.5451 298.947C25.4382 298.199 25.8657 297.558 26.6139 297.451C27.362 297.344 28.0033 297.772 28.1102 298.52C28.6446 301.406 29.179 304.505 29.9272 307.498C30.0341 308.246 29.6066 308.887 28.9653 309.101C28.8584 309.101 28.7515 309.101 28.6446 309.101ZM558.028 297.023C557.494 297.023 556.959 296.703 556.746 296.061C555.891 293.283 554.929 290.29 553.86 287.404C553.646 286.763 553.967 286.015 554.608 285.694C555.249 285.48 555.998 285.801 556.318 286.442C557.387 289.435 558.349 292.428 559.204 295.313C559.418 296.061 558.99 296.703 558.349 296.917C558.242 297.023 558.135 297.023 558.028 297.023ZM25.4382 290.931C24.7969 290.931 24.2625 290.504 24.1556 289.755C23.7281 286.549 23.4074 283.449 23.0868 280.564C22.9799 279.816 23.5143 279.174 24.2625 279.174C25.0107 279.067 25.6519 279.602 25.6519 280.35C25.9726 283.236 26.2932 286.335 26.7208 289.435C26.8276 290.183 26.2932 290.824 25.5451 290.931C25.5451 290.931 25.5451 290.931 25.4382 290.931ZM551.829 279.709C551.295 279.709 550.867 279.388 550.653 278.854C550.44 278.426 550.226 277.892 550.119 277.464C549.05 275.113 548.088 272.761 547.02 270.41C546.699 269.769 547.019 268.914 547.661 268.7C548.302 268.379 549.157 268.7 549.371 269.341C550.44 271.693 551.402 274.044 552.47 276.395C552.684 276.93 552.898 277.357 553.112 277.892C553.432 278.533 553.112 279.388 552.364 279.602C552.15 279.602 552.043 279.709 551.829 279.709ZM23.7281 272.548C22.9799 272.548 22.4455 272.013 22.4455 271.265C22.3386 269.555 22.3386 267.845 22.3386 266.135C22.3386 264.745 22.3386 263.249 22.4455 261.859C22.4455 261.111 23.0868 260.47 23.835 260.577C24.5831 260.577 25.1175 261.218 25.1175 261.966C25.1175 263.356 25.0107 264.745 25.0107 266.135C25.0107 267.738 25.0107 269.448 25.1175 271.158C25.1175 271.906 24.5831 272.548 23.7281 272.548C23.835 272.548 23.835 272.548 23.7281 272.548ZM544.454 262.714C543.92 262.714 543.492 262.394 543.279 261.966C542.103 259.081 540.82 256.302 539.752 253.416C539.431 252.775 539.752 251.919 540.5 251.706C541.141 251.385 541.996 251.706 542.21 252.454C543.386 255.34 544.561 258.119 545.737 260.898C546.058 261.539 545.737 262.394 545.096 262.608C544.775 262.714 544.561 262.714 544.454 262.714ZM24.69 254.164C24.5831 254.164 24.5831 254.164 24.4763 254.164C23.7281 254.057 23.3006 253.416 23.4074 252.668C23.9418 249.568 24.69 246.469 25.5451 243.476C25.7588 242.728 26.507 242.407 27.1483 242.621C27.8965 242.835 28.2171 243.583 28.0033 244.224C27.1483 247.11 26.4001 250.102 25.9726 252.988C25.8657 253.736 25.3313 254.164 24.69 254.164ZM537.507 245.613C536.973 245.613 536.438 245.293 536.224 244.758C535.049 241.659 534.087 238.88 533.125 235.994C532.911 235.353 533.232 234.605 533.98 234.284C534.621 234.07 535.369 234.391 535.69 235.139C536.652 237.918 537.614 240.804 538.79 243.796C539.003 244.438 538.683 245.186 538.041 245.507C537.828 245.613 537.614 245.613 537.507 245.613ZM30.0341 236.529C29.8203 236.529 29.7134 236.529 29.4997 236.422C28.8584 236.101 28.5377 235.353 28.8584 234.712C30.141 231.933 31.6373 229.154 33.3474 226.482C33.7749 225.84 34.5231 225.627 35.1644 226.054C35.8057 226.482 36.0194 227.23 35.5919 227.871C33.9887 230.436 32.4924 233.108 31.3167 235.887C30.996 236.208 30.5685 236.529 30.0341 236.529ZM531.522 228.192C530.987 228.192 530.453 227.871 530.239 227.23C529.384 224.237 528.529 221.138 527.781 218.252C527.567 217.504 527.995 216.862 528.743 216.649C529.491 216.435 530.132 216.862 530.346 217.611C531.094 220.496 531.842 223.489 532.697 226.482C532.911 227.23 532.484 227.871 531.842 228.085C531.842 228.192 531.629 228.192 531.522 228.192ZM39.7603 220.924C39.4396 220.924 39.2259 220.817 38.9052 220.603C38.3708 220.176 38.264 219.321 38.6915 218.786C40.6153 216.435 42.6461 214.083 44.8906 211.839C45.425 211.305 46.2801 211.305 46.7076 211.839C47.242 212.373 47.242 213.228 46.7076 213.656C44.57 215.794 42.5392 218.145 40.6153 220.389C40.5085 220.71 40.1878 220.924 39.7603 220.924ZM527.14 210.236C526.498 210.236 525.964 209.808 525.857 209.167C525.536 207.243 525.109 205.212 524.895 203.288C524.788 202.113 524.681 200.937 524.681 199.868C524.681 199.12 525.216 198.479 525.964 198.479C526.605 198.479 527.353 199.013 527.353 199.761C527.46 200.83 527.46 201.899 527.567 202.968C527.888 204.785 528.208 206.816 528.529 208.739C528.636 209.488 528.208 210.129 527.46 210.236C527.353 210.236 527.246 210.236 527.14 210.236ZM52.7998 207.884C52.4792 207.884 52.0517 207.777 51.8379 207.457C51.4104 206.922 51.4104 206.067 51.9448 205.64C54.2962 203.609 56.6476 201.685 59.1058 199.761C59.6402 199.334 60.4953 199.441 60.9228 199.975C61.3503 200.51 61.2435 201.365 60.7091 201.792C58.3577 203.716 55.8994 205.64 53.6549 207.671C53.4411 207.777 53.1205 207.884 52.7998 207.884ZM67.2288 196.341C66.8013 196.341 66.4806 196.127 66.16 195.807C65.7325 195.272 65.8394 194.417 66.3738 193.99C68.832 192.173 71.2903 190.249 73.8555 188.539C74.4968 188.111 75.2449 188.218 75.6724 188.859C76.1 189.501 75.9931 190.249 75.3518 190.676C72.8935 192.493 70.3284 194.31 67.977 196.127C67.7632 196.234 67.4426 196.341 67.2288 196.341ZM525.964 191.852C525.964 191.852 525.857 191.852 525.964 191.852C525.216 191.852 524.574 191.211 524.681 190.463C524.788 187.363 525.109 184.264 525.323 181.164C525.429 180.416 525.964 179.881 526.712 179.988C527.46 180.095 527.995 180.736 527.888 181.378C527.674 184.477 527.353 187.47 527.246 190.57C527.246 191.318 526.605 191.852 525.964 191.852ZM82.1922 185.546C81.7647 185.546 81.3372 185.332 81.1234 185.012C80.6959 184.37 80.9096 183.622 81.444 183.195C84.0092 181.485 86.5744 179.775 89.2464 178.171C89.8877 177.744 90.6358 177.958 91.0634 178.599C91.4909 179.24 91.2771 179.988 90.6358 180.416C88.0707 182.019 85.3987 183.729 82.9404 185.439C82.7266 185.546 82.5129 185.546 82.1922 185.546ZM97.7969 175.713C97.3694 175.713 96.9418 175.499 96.6212 175.072C96.3006 174.43 96.4074 173.682 97.0487 173.255C99.7208 171.652 102.393 170.155 105.065 168.659C105.706 168.338 106.454 168.552 106.882 169.193C107.202 169.835 106.989 170.583 106.347 171.01C103.675 172.507 101.003 174.003 98.3313 175.606C98.3313 175.713 98.1176 175.713 97.7969 175.713ZM527.246 173.469C526.391 173.469 525.857 172.827 525.964 172.079C526.071 169.514 526.178 167.163 526.178 164.918L525.964 163.101C525.857 162.353 526.391 161.712 527.14 161.605C527.888 161.498 528.529 162.032 528.636 162.78L528.85 164.704C528.85 164.811 528.85 164.811 528.85 164.918C528.85 167.163 528.743 169.621 528.636 172.293C528.529 172.934 527.995 173.469 527.246 173.469ZM113.936 166.842C113.508 166.842 112.974 166.628 112.76 166.094C112.44 165.452 112.653 164.704 113.295 164.277C115.967 162.887 118.746 161.498 121.525 160.108C122.166 159.788 122.914 160.108 123.342 160.75C123.662 161.391 123.342 162.246 122.7 162.567C119.921 163.956 117.142 165.346 114.47 166.735C114.364 166.735 114.15 166.842 113.936 166.842ZM130.503 158.612C129.968 158.612 129.541 158.291 129.327 157.864C129.006 157.223 129.327 156.368 129.968 156.154C132.106 155.192 134.243 154.23 136.488 153.268L137.664 152.092C138.198 151.558 139.053 151.558 139.481 152.092C140.015 152.627 140.015 153.482 139.481 153.909L138.198 155.192C138.091 155.299 137.984 155.406 137.771 155.512C135.526 156.474 133.282 157.543 131.144 158.505C130.93 158.612 130.716 158.612 130.503 158.612ZM525.857 155.192C525.216 155.192 524.681 154.764 524.574 154.123C523.933 150.917 523.078 148.031 522.116 145.466C521.795 144.824 522.223 143.969 522.864 143.756C523.506 143.435 524.361 143.862 524.574 144.504C525.643 147.176 526.498 150.168 527.246 153.589C527.353 154.337 526.926 154.978 526.178 155.192C525.964 155.192 525.964 155.192 525.857 155.192ZM146 148.886C145.573 148.886 145.145 148.672 144.825 148.245C144.504 147.603 144.611 146.855 145.252 146.428C148.352 144.611 150.81 143.007 152.948 141.511C153.589 141.083 154.337 141.19 154.765 141.832C155.192 142.473 155.085 143.221 154.444 143.649C152.2 145.252 149.741 146.855 146.535 148.672C146.428 148.886 146.214 148.886 146 148.886ZM518.803 138.198C518.375 138.198 517.948 137.984 517.734 137.663C517.2 136.915 516.558 136.06 515.917 135.419C514.528 133.922 513.138 132.426 511.749 130.93C511.214 130.395 511.214 129.54 511.749 129.113C512.283 128.578 513.138 128.578 513.566 129.113C515.062 130.609 516.451 132.105 517.841 133.709C518.482 134.564 519.23 135.312 519.765 136.167C520.192 136.808 520.085 137.556 519.444 137.984C519.337 138.198 519.123 138.198 518.803 138.198ZM160.857 138.091C160.536 138.091 160.216 137.984 159.895 137.663C159.361 137.129 159.361 136.274 159.895 135.846C161.926 133.922 163.529 131.999 165.132 129.861C165.132 129.754 165.239 129.754 165.239 129.647C165.453 129.433 165.773 129.113 165.987 128.899C166.522 128.365 167.377 128.471 167.804 129.006C168.339 129.54 168.232 130.395 167.697 130.823C167.484 131.037 167.27 131.25 167.056 131.357C165.453 133.602 163.636 135.633 161.605 137.663C161.498 137.984 161.178 138.091 160.857 138.091ZM174.11 125.372C173.79 125.372 173.469 125.265 173.148 124.944C172.614 124.41 172.614 123.555 173.148 123.127L173.255 123.021C174.965 120.99 176.782 118.638 178.92 115.966C179.347 115.432 180.202 115.325 180.737 115.753C181.271 116.18 181.378 117.035 180.951 117.57C178.813 120.242 176.996 122.593 175.179 124.731L175.072 124.837C174.752 125.265 174.431 125.372 174.11 125.372ZM505.977 125.051C505.656 125.051 505.336 124.944 505.122 124.731C502.877 122.807 500.419 120.99 497.854 119.173C497.213 118.745 497.106 117.89 497.533 117.356C497.961 116.715 498.816 116.608 499.35 117.035C501.916 118.852 504.374 120.776 506.725 122.7C507.26 123.127 507.367 123.982 506.832 124.517C506.725 124.944 506.405 125.051 505.977 125.051ZM490.907 114.47C490.693 114.47 490.479 114.363 490.265 114.256C488.128 112.974 485.776 111.798 483.425 110.622C483.104 110.515 482.57 110.302 482.142 110.088C481.501 109.767 481.181 109.019 481.394 108.378C481.715 107.736 482.463 107.416 483.104 107.63C483.532 107.843 483.959 108.057 484.387 108.164C486.845 109.34 489.197 110.622 491.334 111.905C491.976 112.225 492.189 113.081 491.762 113.722C491.762 114.256 491.334 114.47 490.907 114.47ZM185.547 110.943C185.226 110.943 185.012 110.836 184.691 110.622C184.157 110.195 184.05 109.34 184.478 108.805L186.508 106.24C187.684 104.637 188.967 103.141 190.142 101.537C190.57 101.003 191.425 100.896 191.959 101.324C192.494 101.751 192.601 102.606 192.173 103.141C190.997 104.744 189.715 106.24 188.539 107.843L186.508 110.409C186.402 110.729 185.974 110.943 185.547 110.943ZM474.126 106.881C474.02 106.881 473.806 106.881 473.699 106.775C470.92 105.813 467.927 104.851 464.935 103.996C464.186 103.782 463.866 103.034 464.08 102.392C464.293 101.644 465.041 101.324 465.683 101.537C468.675 102.392 471.668 103.354 474.554 104.423C475.195 104.637 475.623 105.385 475.409 106.133C475.088 106.561 474.661 106.881 474.126 106.881ZM456.384 101.751C456.277 101.751 456.17 101.751 456.063 101.751C453.178 101.003 450.292 100.362 447.085 99.7204C446.337 99.6135 445.91 98.8653 446.017 98.1171C446.123 97.369 446.872 96.9414 447.62 97.0483C450.826 97.6896 453.819 98.4378 456.705 99.0791C457.453 99.2928 457.88 99.9341 457.667 100.682C457.56 101.324 457.025 101.751 456.384 101.751ZM438.321 97.9034C438.214 97.9034 438.107 97.9034 438.107 97.9034C435.115 97.369 432.122 96.8346 429.022 96.3002C428.274 96.1933 427.847 95.4451 427.954 94.8038C428.06 94.0556 428.809 93.6281 429.45 93.735C432.443 94.2694 435.542 94.8038 438.535 95.3382C439.283 95.4451 439.711 96.1933 439.604 96.8346C439.497 97.4758 438.962 97.9034 438.321 97.9034ZM196.983 96.407C196.662 96.407 196.448 96.3002 196.128 96.0864C195.593 95.6589 195.487 94.8038 195.914 94.2694C198.052 91.5974 199.976 89.246 201.793 87.1084C202.22 86.5739 203.075 86.4671 203.609 87.0015C204.144 87.429 204.251 88.284 203.716 88.8185C201.899 90.9561 199.976 93.3075 197.838 95.9795C197.731 96.1933 197.41 96.407 196.983 96.407ZM420.151 94.6969C420.044 94.6969 420.044 94.6969 419.938 94.6969C416.945 94.1625 413.845 93.6281 410.853 93.0937C410.104 92.9868 409.677 92.2387 409.784 91.5974C409.891 90.8492 410.532 90.4217 411.28 90.5286C414.273 91.063 417.372 91.5974 420.365 92.1318C421.113 92.2387 421.541 92.9868 421.434 93.6281C421.327 94.2694 420.793 94.6969 420.151 94.6969ZM401.981 91.4905C401.875 91.4905 401.768 91.4905 401.768 91.4905C398.561 90.8492 395.569 90.2079 392.683 89.5666C391.935 89.4597 391.507 88.7116 391.721 87.9634C391.828 87.2152 392.576 86.7877 393.324 87.0015C396.21 87.6428 399.096 88.284 402.302 88.8185C403.05 88.9253 403.478 89.6735 403.371 90.3148C403.157 91.063 402.623 91.4905 401.981 91.4905ZM383.918 87.7496C383.812 87.7496 383.812 87.7496 383.705 87.7496C380.712 87.2152 377.612 86.4671 374.62 85.612C373.872 85.3982 373.551 84.6501 373.658 84.0088C373.872 83.2606 374.62 82.94 375.261 83.0469C378.254 83.9019 381.246 84.5432 384.132 85.0776C384.88 85.1845 385.308 85.9327 385.201 86.5739C385.094 87.3221 384.453 87.7496 383.918 87.7496ZM366.069 82.8331C365.962 82.8331 365.749 82.8331 365.642 82.7262C363.611 81.978 361.58 81.123 359.549 80.2679C358.694 79.9473 357.839 79.5198 356.984 79.0922C356.343 78.7716 356.022 78.0234 356.343 77.3821C356.664 76.7409 357.412 76.4202 358.053 76.7409C358.908 77.1684 359.656 77.489 360.511 77.8097C362.435 78.6647 364.466 79.4129 366.497 80.1611C367.138 80.3748 367.566 81.123 367.245 81.8712C367.138 82.5125 366.604 82.8331 366.069 82.8331ZM208.954 82.2987C208.633 82.2987 208.312 82.1918 208.099 81.978C207.564 81.4436 207.564 80.6955 207.992 80.1611C210.236 77.7028 212.267 75.5652 214.405 73.4275C214.939 72.8931 215.794 72.8931 216.222 73.4275C216.756 73.9619 216.756 74.817 216.222 75.2445C214.084 77.2753 212.053 79.4129 209.916 81.8712C209.595 82.0849 209.274 82.2987 208.954 82.2987ZM349.289 75.3514C349.075 75.3514 348.861 75.3514 348.648 75.2445C345.869 73.8551 343.197 72.4656 340.418 70.9693C339.776 70.6486 339.563 69.7936 339.883 69.1523C340.204 68.511 341.059 68.2972 341.7 68.6179C344.479 70.0073 347.151 71.5037 349.93 72.8931C350.571 73.2138 350.892 73.9619 350.465 74.7101C350.144 75.0308 349.716 75.3514 349.289 75.3514ZM222.1 69.366C221.779 69.366 221.352 69.2592 221.138 68.9385C220.711 68.4041 220.711 67.5491 221.245 67.1215C223.703 65.0908 226.161 63.06 228.62 61.3499C229.261 60.9224 230.009 61.0293 230.437 61.6706C230.864 62.3119 230.757 63.06 230.116 63.4876C227.765 65.1977 225.306 67.1215 222.955 69.1523C222.741 69.2592 222.421 69.366 222.1 69.366ZM332.936 66.8009C332.722 66.8009 332.508 66.8009 332.295 66.694C329.623 65.3045 326.844 63.8082 324.172 62.4187C323.53 62.0981 323.21 61.2431 323.637 60.6018C323.958 59.9605 324.706 59.6398 325.454 60.0674C328.233 61.4568 330.905 62.8463 333.684 64.3426C334.326 64.6633 334.539 65.5183 334.219 66.1596C333.791 66.4802 333.364 66.8009 332.936 66.8009ZM237.063 58.6779C236.636 58.6779 236.208 58.4641 235.888 58.0366C235.567 57.3953 235.781 56.6472 236.315 56.2196C238.987 54.6164 241.873 53.2269 244.652 51.9444C245.293 51.6237 246.148 51.9444 246.362 52.5857C246.683 53.2269 246.362 54.082 245.721 54.2958C242.942 55.4715 240.27 56.8609 237.598 58.4641C237.491 58.571 237.277 58.6779 237.063 58.6779ZM316.369 58.4641C316.156 58.4641 316.049 58.4641 315.835 58.3573C312.842 56.9678 310.17 55.7921 307.391 54.7233C306.75 54.4026 306.429 53.6545 306.643 53.0132C306.964 52.3719 307.712 52.0513 308.353 52.265C311.132 53.3338 313.911 54.5095 316.904 56.0059C317.545 56.3265 317.866 57.0747 317.545 57.716C317.331 58.2504 316.904 58.4641 316.369 58.4641ZM299.268 51.7306C299.161 51.7306 299.055 51.7306 298.841 51.6237C295.848 50.6618 292.855 49.9136 290.077 49.2723C289.328 49.1655 288.901 48.4173 289.008 47.6691C289.115 46.9209 289.863 46.4934 290.611 46.6003C293.497 47.2416 296.596 47.9898 299.696 48.9517C300.337 49.1655 300.765 49.9136 300.551 50.5549C300.337 51.3031 299.803 51.7306 299.268 51.7306ZM253.951 51.1962C253.416 51.1962 252.882 50.8756 252.668 50.2343C252.454 49.593 252.775 48.8448 253.523 48.5242C254.592 48.2035 255.768 47.8829 256.836 47.5622C258.76 47.0278 260.684 46.6003 262.608 46.2797C263.356 46.1728 263.997 46.6003 264.104 47.3485C264.211 48.0966 263.784 48.7379 263.036 48.8448C261.219 49.1655 259.402 49.593 257.478 50.1274C256.409 50.448 255.34 50.7687 254.164 51.0893C254.164 51.0893 254.058 51.1962 253.951 51.1962ZM281.205 47.9898H281.099C278.106 47.6691 275.113 47.6691 272.014 47.776C271.265 47.776 270.624 47.2416 270.624 46.4934C270.624 45.7452 271.159 45.104 271.907 45.104C275.006 44.9971 278.106 44.9971 281.312 45.3177C282.06 45.4246 282.595 46.0659 282.488 46.7072C282.488 47.4554 281.847 47.9898 281.205 47.9898Z" fill="#BA68C8"/>
<path d="M11.9707 214.297C11.9707 217.61 9.29868 220.282 5.98536 220.282C2.67204 220.282 0 217.61 0 214.297C0 210.984 2.67204 208.312 5.98536 208.312C9.29868 208.418 11.9707 210.984 11.9707 214.297Z" fill="#BA68C8"/>
<path d="M568.409 158.307C573.154 151.397 571.399 141.95 564.49 137.204C557.581 132.459 548.133 134.214 543.388 141.123C538.642 148.033 540.397 157.48 547.306 162.226C554.216 166.971 563.664 165.216 568.409 158.307Z" fill="#BA68C8"/>
<path d="M551.936 143.755C561.027 143.755 568.396 136.386 568.396 127.296C568.396 118.205 561.027 110.836 551.936 110.836C542.846 110.836 535.476 118.205 535.476 127.296C535.476 136.386 542.846 143.755 551.936 143.755Z" stroke="#BA68C8" stroke-width="1.2336" stroke-miterlimit="10"/>
<path d="M174.11 47.5619C179.954 47.5619 184.691 42.8245 184.691 36.9807C184.691 31.1368 179.954 26.3994 174.11 26.3994C168.266 26.3994 163.529 31.1368 163.529 36.9807C163.529 42.8245 168.266 47.5619 174.11 47.5619Z" fill="#BA68C8"/>
<path d="M189.287 51.5164C195.485 51.5164 200.509 46.4919 200.509 40.2938C200.509 34.0958 195.485 29.0713 189.287 29.0713C183.089 29.0713 178.064 34.0958 178.064 40.2938C178.064 46.4919 183.089 51.5164 189.287 51.5164Z" stroke="#BA68C8" stroke-width="1.2336" stroke-miterlimit="10"/>
<path d="M29.0717 188.646C32.7315 188.646 35.6984 185.679 35.6984 182.019C35.6984 178.359 32.7315 175.393 29.0717 175.393C25.4119 175.393 22.4451 178.359 22.4451 182.019C22.4451 185.679 25.4119 188.646 29.0717 188.646Z" stroke="#BA68C8" stroke-width="1.2336" stroke-miterlimit="10"/>
<path d="M553.218 230.757C557.232 230.757 560.486 227.503 560.486 223.489C560.486 219.475 557.232 216.221 553.218 216.221C549.204 216.221 545.95 219.475 545.95 223.489C545.95 227.503 549.204 230.757 553.218 230.757Z" stroke="#BA68C8" stroke-width="1.2336" stroke-miterlimit="10"/>
<path d="M420.044 144.397C420.044 144.397 416.731 67.2285 393.003 48.0967C369.276 29.0718 391.079 129.968 420.044 144.397Z" fill="#9468B4"/>
<path d="M413.204 134.35C405.937 124.303 403.371 111.05 406.257 98.9722C406.898 96.3002 407.86 93.5213 409.998 91.8112C412.243 89.8873 415.556 89.4598 418.549 89.9942C421.541 90.5286 424.213 91.9181 426.885 93.3075C425.923 87.2153 426.03 80.6955 426.137 74.6033C426.137 69.473 426.565 64.1289 429.023 59.6399C431.481 55.1508 436.398 51.6238 441.528 52.3719C447.3 53.1201 451.147 58.7848 454.14 63.8082C455.85 55.7921 460.018 47.6691 465.469 41.47C470.493 35.6984 478.188 30.8888 485.67 33.0264C491.869 34.8434 496.038 41.1494 496.786 47.5623C497.641 53.9751 495.717 60.4949 493.259 66.4803C490.587 73 487.273 79.306 483.319 85.1845C487.915 84.6501 494.221 85.1845 496.999 88.8185C499.03 91.4905 499.244 95.1245 498.389 98.3309C497.106 103.354 493.686 107.523 489.625 110.622C485.563 113.722 480.753 115.859 476.158 117.997C482.998 120.776 486.846 129.54 483.96 136.381C482.25 140.335 478.83 143.328 475.089 145.573C465.149 151.772 452.964 154.123 441.528 151.985C429.985 149.848 420.045 143.756 413.204 134.35Z" fill="#C755DB"/>
<path d="M485.135 35.9121L434.366 138.946" stroke="#0B334C" stroke-width="0.9252" stroke-miterlimit="10" stroke-linecap="round" stroke-linejoin="round"/>
<path d="M438.749 54.2959L458.522 89.4599" stroke="#0B334C" stroke-width="0.9252" stroke-miterlimit="10" stroke-linecap="round" stroke-linejoin="round"/>
<path d="M432.122 58.4639L455.208 96.5137" stroke="#0B334C" stroke-width="0.9252" stroke-miterlimit="10" stroke-linecap="round" stroke-linejoin="round"/>
<path d="M479.15 111.478L447.94 111.905" stroke="#0B334C" stroke-width="0.9252" stroke-miterlimit="10" stroke-linecap="round" stroke-linejoin="round"/>
<path d="M425.816 139.48C425.816 139.48 390.118 80.5886 363.397 75.7789C336.57 71.0761 396.958 140.656 425.816 139.48Z" fill="#C755DB"/>
<path d="M362.435 80.4814L403.371 120.241" stroke="#0B334C" stroke-width="0.9252" stroke-miterlimit="10" stroke-linecap="round" stroke-linejoin="round"/>
<path d="M91.4895 408.18C91.4895 408.18 49.6989 319.789 85.2904 299.161C120.882 278.533 97.5818 408.608 97.5818 408.608L91.4895 408.18Z" fill="#9468B4"/>
<path d="M90.2072 398.882C90.2072 398.882 67.3346 331.653 48.4166 331.653C29.4986 331.653 43.6069 367.245 84.8631 400.699L90.2072 398.882Z" fill="#C755DB"/>
<path d="M44.5688 336.249L75.2438 383.704" stroke="#0B334C" stroke-width="0.9252" stroke-miterlimit="10" stroke-linecap="round" stroke-linejoin="round"/>
<path d="M46.0655 429.236C46.0655 429.236 31.7434 415.662 38.1562 403.05C44.5691 390.545 62.9527 394.5 62.9527 394.5C62.9527 394.5 54.8297 377.399 69.3656 369.703C83.9015 362.008 95.7653 381.353 95.7653 381.353C95.7653 381.353 103.675 359.122 135.525 359.87C167.376 360.511 165.452 394.606 165.452 394.606C165.452 394.606 173.361 387.339 183.515 393.965C193.669 400.592 183.515 413.097 183.515 413.097C183.515 413.097 193.455 415.983 192.707 429.129L46.0655 429.236Z" fill="#C755DB"/>
<path d="M448.795 332.508H90.7422V112.973C90.7422 108.271 94.5899 104.423 99.2927 104.423H440.244C444.947 104.423 448.795 108.271 448.795 112.973V332.508Z" fill="white" stroke="#1F5B99" stroke-width="1.1536" stroke-miterlimit="10"/>
<path d="M448.795 121.524H90.7427V112.867C90.7427 108.164 94.5904 104.316 99.2932 104.316H440.245C444.948 104.316 448.795 108.164 448.795 112.867V121.524Z" fill="#1F5B99"/>
<path d="M362.402 231.193C363.483 226.596 360.634 221.993 356.037 220.912C351.44 219.83 346.837 222.68 345.756 227.277C344.674 231.873 347.524 236.476 352.121 237.558C356.718 238.639 361.321 235.789 362.402 231.193Z" fill="#A87AC9"/>
<path d="M388.231 235.245C391.571 231.906 391.571 226.492 388.231 223.153C384.892 219.814 379.478 219.814 376.139 223.153C372.8 226.492 372.8 231.906 376.139 235.245C379.478 238.584 384.892 238.584 388.231 235.245Z" fill="#DA81E9"/>
<path d="M413.383 237.162C417.816 235.534 420.089 230.62 418.46 226.187C416.832 221.754 411.918 219.481 407.485 221.11C403.052 222.738 400.779 227.652 402.408 232.085C404.036 236.518 408.95 238.791 413.383 237.162Z" fill="#F64652"/>
<path d="M331.546 142.259H201.899V309.314H331.546V142.259Z" stroke="#0B334C" stroke-width="1.1536" stroke-miterlimit="10"/>
<path d="M336.249 220.924H326.629V230.543H336.249V220.924Z" fill="white" stroke="#1F5B99" stroke-width="1.1536" stroke-miterlimit="10"/>
<path d="M336.249 304.398H326.629V314.018H336.249V304.398Z" fill="white" stroke="#1F5B99" stroke-width="1.1536" stroke-miterlimit="10"/>
<path d="M336.249 137.663H326.629V147.282H336.249V137.663Z" fill="white" stroke="#1F5B99" stroke-width="1.1536" stroke-miterlimit="10"/>
<path d="M206.602 137.663H196.982V147.282H206.602V137.663Z" fill="white" stroke="#1F5B99" stroke-width="1.1536" stroke-miterlimit="10"/>
<path d="M206.174 220.924H196.554V230.543H206.174V220.924Z" fill="white" stroke="#1F5B99" stroke-width="1.1536" stroke-miterlimit="10"/>
<path d="M206.174 303.863H196.554V313.483H206.174V303.863Z" fill="white" stroke="#1F5B99" stroke-width="1.1536" stroke-miterlimit="10"/>
<path d="M261.886 138.077V147.696H271.505V138.077H261.886Z" fill="white" stroke="#1F5B99" stroke-width="1.1536" stroke-miterlimit="10"/>
<path d="M261.865 302.695V312.314H271.484V302.695H261.865Z" fill="white" stroke="#1F5B99" stroke-width="1.1536" stroke-miterlimit="10"/>
<path d="M310.277 201.364C310.277 177.637 291.359 158.291 267.845 157.543C243.476 156.795 222.741 176.781 222.527 201.15C222.42 213.014 227.123 223.809 234.819 231.825C241.98 239.2 246.148 248.926 246.148 259.187V260.897H286.763V259.187C286.763 249.14 290.611 239.307 297.772 232.146C305.574 224.13 310.277 213.335 310.277 201.364Z" fill="#DA81E9"/>
<path d="M276.395 294.351H256.515C250.85 294.351 246.254 289.755 246.254 284.09V260.362H286.655V284.09C286.655 289.755 282.06 294.351 276.395 294.351Z" fill="#0B334C"/>
<path d="M284.946 281.418L246.576 273.616C244.973 273.295 243.904 271.906 243.904 270.303C243.904 268.165 245.828 266.562 247.965 266.989L286.336 274.792C287.939 275.112 289.008 276.502 289.008 278.105C289.008 280.243 287.084 281.846 284.946 281.418Z" fill="#114D73"/>
<path d="M284.946 274.578L246.576 266.776C244.973 266.455 243.904 265.066 243.904 263.463C243.904 261.325 245.828 259.722 247.965 260.149L286.336 267.952C287.939 268.272 289.008 269.662 289.008 271.265C289.008 273.403 287.084 275.006 284.946 274.578Z" fill="#0B334C"/>
<path d="M284.946 288.259L246.576 280.457C244.973 280.136 243.904 278.747 243.904 277.143C243.904 275.006 245.828 273.403 247.965 273.83L286.336 281.632C287.939 281.953 289.008 283.343 289.008 284.946C289.008 287.083 287.084 288.687 284.946 288.259Z" fill="#0B334C"/>
<path d="M270.945 264.21L268.701 263.89C270.625 248.819 272.976 233.642 275.648 218.679C272.976 220.282 269.877 221.244 266.456 221.778C263.998 222.099 260.792 222.206 257.692 221.351C261.967 234.284 264.853 247.644 266.456 261.218L264.212 261.431C262.609 247.43 259.509 233.642 255.02 220.389C254.272 220.068 253.524 219.641 252.776 219.106C250.317 217.503 248.393 215.045 247.538 212.266C247.004 210.77 247.752 209.166 249.142 208.525C250.638 207.884 252.241 208.311 253.096 209.701C254.272 211.518 255.127 213.655 255.768 215.686C256.089 216.648 256.516 217.717 256.837 218.679C259.509 219.641 262.822 219.961 266.243 219.427C268.915 219.106 272.976 218.038 276.29 215.579C276.931 211.945 277.679 208.311 278.32 204.784C278.534 203.929 278.748 202.86 279.496 201.898C280.03 201.257 280.779 200.937 281.634 200.937C282.275 200.937 282.916 201.15 283.344 201.578C283.985 202.219 284.092 202.967 284.199 203.609C284.412 205.853 284.199 207.884 283.451 209.701C282.382 212.48 280.672 214.938 278.32 216.755C275.434 232.573 272.976 248.392 270.945 264.21ZM250.424 210.663C250.21 210.663 250.104 210.77 249.997 210.77C249.783 210.876 249.355 211.09 249.569 211.732C250.317 213.976 251.814 215.9 253.738 217.289C253.631 217.076 253.524 216.862 253.524 216.541C252.882 214.724 252.134 212.693 251.066 211.09C250.852 210.663 250.638 210.663 250.424 210.663ZM281.634 203.181C281.527 203.181 281.313 203.288 281.099 203.395C280.779 203.822 280.672 204.357 280.458 205.105C279.923 207.67 279.496 210.235 278.962 212.693C279.817 211.518 280.672 210.235 281.206 208.739C281.74 207.243 281.954 205.639 281.74 203.715C281.847 203.395 281.74 203.288 281.634 203.181C281.74 203.181 281.634 203.181 281.634 203.181Z" fill="#0B334C"/>
<path d="M248.606 260.149L286.656 268.166" stroke="white" stroke-width="0.3084" stroke-miterlimit="10" stroke-linecap="round" stroke-linejoin="round"/>
<path d="M246.362 280.243L285.267 288.58" stroke="white" stroke-width="0.3084" stroke-miterlimit="10" stroke-linecap="round" stroke-linejoin="round"/>
<path d="M195.914 346.296H180.523C179.134 346.296 177.958 345.12 177.958 343.731V324.813C177.958 323.423 179.027 322.354 180.416 322.354H196.021C197.41 322.354 198.479 323.423 198.479 324.813V343.731C198.479 345.12 197.303 346.296 195.914 346.296Z" fill="#0B334C"/>
<path d="M189.929 329.302H177.958V340.417H189.929V329.302Z" fill="#DA81E9"/>
<path d="M177.637 323.209V323.744C177.637 324.278 178.065 324.706 178.599 324.706C179.133 324.706 179.775 324.812 180.309 325.026C181.378 325.561 182.126 326.736 183.302 327.164C184.477 327.591 185.76 327.057 186.722 326.309C188.005 325.454 189.073 324.278 190.677 324.064C191.425 323.957 192.066 324.064 192.707 324.385C193.883 325.24 193.776 326.736 193.776 328.019C193.776 328.874 193.99 329.622 194.204 330.37C194.417 331.012 194.738 331.653 195.273 332.08C195.807 332.508 196.662 332.508 197.089 331.974C197.303 331.653 197.41 331.225 197.517 330.798C197.624 329.836 197.624 328.767 197.517 327.698C197.41 327.164 197.41 326.523 197.517 325.988C197.624 325.561 197.838 325.24 198.158 325.026C198.479 324.812 198.586 324.492 198.586 324.171V322.995C198.586 322.247 198.051 321.713 197.303 321.713H178.92C178.171 321.927 177.637 322.461 177.637 323.209Z" fill="#DA81E9"/>
<path d="M83.2605 346.188H75.3513V429.128H83.2605V346.188Z" fill="#184778"/>
<path d="M53.8682 346.188H45.959V429.128H53.8682V346.188Z" fill="#1F5B99"/>
<path d="M175.499 346.188H167.59V429.128H175.499V346.188Z" fill="#184778"/>
<path d="M204.891 346.188H196.982V429.128H204.891V346.188Z" fill="#1F5B99"/>
<path d="M204.892 346.188H46.1731V354.098H204.892V346.188Z" fill="#1F5B99"/>
<path d="M171.651 282.702C169.3 281.526 168.338 282.06 163.742 281.098C163.101 280.992 162.246 280.778 161.284 280.671C160.001 285.908 158.505 291.145 157.543 296.489C157.436 297.024 157.436 297.451 157.329 297.986C159.787 297.772 162.246 297.665 164.704 297.558C162.566 311.346 159.894 328.126 157.864 341.914C159.36 342.128 160.322 343.197 162.032 342.555C167.162 333.577 175.392 307.926 176.889 300.871C178.385 293.817 178.385 295.527 178.385 293.39C178.492 285.801 177.637 285.694 171.651 282.702Z" fill="#F1F1F1"/>
<path d="M165.025 296.383L164.704 297.665" stroke="#0B334C" stroke-width="0.3084" stroke-miterlimit="10" stroke-linecap="round" stroke-linejoin="round"/>
<path d="M162.46 341.594C162.46 341.594 159.787 343.411 157.757 341.594L157.329 342.769C156.902 343.838 156.795 344.907 156.795 345.976V346.297H170.903C170.903 345.228 170.262 344.373 169.3 344.052L162.46 341.594Z" fill="#1F5B99"/>
<path d="M118.532 329.088C116.181 328.768 113.829 328.447 111.585 328.02C111.692 329.302 111.799 330.585 111.906 331.867C95.6596 330.692 70.97 334.432 65.8397 335.287C65.1984 335.394 64.8777 335.394 64.8777 335.394L64.4502 339.776L65.7328 339.99L113.402 346.082L117.891 346.617C124.304 347.472 130.075 342.876 130.717 336.463L131.251 331.119V330.692C126.976 330.264 122.807 329.73 118.532 329.088Z" fill="#F1F1F1"/>
<path d="M111.906 331.975C111.906 331.975 115.647 332.937 116.074 333.364" stroke="#0B334C" stroke-width="0.3084" stroke-miterlimit="10" stroke-linecap="round" stroke-linejoin="round"/>
<path d="M65.7325 339.884C65.7325 339.884 64.0224 337.105 65.8393 335.181L64.6637 334.754C63.5948 334.326 62.526 334.112 61.4572 334.112H61.1366L60.8159 348.221C61.8847 348.221 62.7398 347.579 63.1673 346.724L65.7325 339.884Z" fill="#1F5B99"/>
<path d="M115.968 278.426C115.968 278.426 110.944 291.786 110.944 296.489C110.944 301.085 110.944 329.622 110.944 329.622L131.145 331.867L137.558 300.657L162.568 299.161L166.095 279.388L146.429 276.182L115.968 278.426Z" fill="#F64652"/>
<path d="M138.841 290.076L137.558 300.444" stroke="#0B334C" stroke-width="0.3084" stroke-miterlimit="10" stroke-linecap="round" stroke-linejoin="round"/>
<path d="M163.744 279.281L160.323 298.413" stroke="#0B334C" stroke-width="0.3084" stroke-miterlimit="10" stroke-linecap="round" stroke-linejoin="round"/>
<path d="M111.479 327.271L130.824 329.516" stroke="#0B334C" stroke-width="0.3084" stroke-miterlimit="10" stroke-linecap="round" stroke-linejoin="round"/>
<path d="M137.878 298.093L160.43 297.131" stroke="#0B334C" stroke-width="0.3084" stroke-miterlimit="10" stroke-linecap="round" stroke-linejoin="round"/>
<path d="M117.036 281.099C117.036 281.099 112.975 291.894 112.975 296.917C112.975 301.94 112.868 327.378 112.868 327.378" stroke="#0B334C" stroke-width="0.3084" stroke-miterlimit="10" stroke-linecap="round" stroke-linejoin="round"/>
<path d="M122.06 281.099L114.471 289.435" stroke="#0B334C" stroke-width="0.3084" stroke-miterlimit="10" stroke-linecap="round" stroke-linejoin="round"/>
<path d="M179.241 248.606C178.386 247.537 176.889 247.216 175.714 247.964C175.714 247.964 175.714 247.964 175.607 247.964H175.5C173.042 249.674 170.476 251.491 167.911 253.202C165.346 254.912 162.781 256.515 160.109 258.118C156.047 260.576 151.986 262.821 147.924 264.852C147.497 263.783 147.176 262.714 146.856 261.645C146.107 259.187 145.359 256.622 144.611 254.057C143.97 254.377 143.329 254.805 142.794 255.019C140.015 256.301 137.236 257.477 134.35 258.225C135.099 260.576 135.847 262.821 136.702 265.172C137.129 266.348 137.664 267.631 138.198 268.806C138.946 270.623 139.695 272.333 140.55 274.15C141.618 276.181 144.077 277.143 146.214 276.074C146.856 275.754 147.604 275.326 148.245 275.005C149.207 274.471 150.276 273.937 151.238 273.295C153.055 272.226 154.872 271.158 156.582 269.982C157.971 269.127 159.254 268.165 160.536 267.203C161.819 266.241 163.102 265.279 164.384 264.317C169.408 260.47 174.11 256.408 178.599 251.919L178.706 251.812C179.775 251.064 179.989 249.674 179.241 248.606Z" fill="#F1F1F1"/>
<path d="M175.5 248.606C175.5 248.606 177.21 244.01 177.958 244.117C178.706 244.117 178.706 246.575 178.706 246.575C178.706 246.575 182.875 243.262 183.409 243.582C183.943 243.903 180.737 246.896 180.737 246.896C180.737 246.896 183.836 245.079 184.371 245.506C185.012 245.934 181.058 248.392 181.058 248.392C181.058 248.392 184.585 247.323 184.798 247.965C185.119 248.713 180.844 249.782 180.844 249.782C180.844 249.782 183.409 249.568 183.516 250.102C183.623 250.637 177.958 252.347 177.958 252.347L175.5 248.606Z" fill="#F1F1F1"/>
<path d="M135.205 261.859C135.205 261.859 127.937 244.437 133.281 240.91C138.625 237.383 142.366 243.262 142.687 244.758C143.008 246.361 146.214 258.866 146.214 258.866L135.205 261.859Z" fill="#1F5B99"/>
<path d="M134.458 236.315V226.161H126.441V236.315C126.441 237.491 125.479 238.559 124.197 238.559C133.282 251.813 136.702 238.559 136.702 238.559H136.595C135.526 238.559 134.458 237.597 134.458 236.315Z" fill="#F1F1F1"/>
<path d="M134.457 232.574V234.284C134.03 234.284 133.709 234.284 133.282 234.177C131.571 233.857 129.113 233.001 127.51 231.185C127.189 230.757 126.762 230.116 126.441 229.261V229.047C126.548 229.261 126.762 229.474 126.869 229.581C128.365 231.505 130.823 232.253 132.64 232.574C133.282 232.681 133.923 232.681 134.457 232.574Z" fill="#0B334C"/>
<path d="M142.58 242.3C141.725 241.124 139.908 239.842 138.305 238.88L138.839 238.345L134.564 236.849L132.319 243.903L126.441 236.314L122.166 237.597L122.807 238.025C120.669 238.452 115.753 240.162 115.325 246.254C114.898 252.24 114.257 277.357 114.15 281.525C114.15 281.846 114.363 282.06 114.684 282.06L136.274 279.708L137.984 277.464L140.442 279.922L150.276 276.929C150.382 276.716 144.504 244.865 142.58 242.3Z" fill="#1F5B99"/>
<path d="M132.426 246.362V243.903L122.7 237.918" stroke="#0B334C" stroke-width="0.3084" stroke-miterlimit="10" stroke-linecap="round" stroke-linejoin="round"/>
<path d="M138.197 238.986L132.425 243.903" stroke="#0B334C" stroke-width="0.3084" stroke-miterlimit="10" stroke-linecap="round" stroke-linejoin="round"/>
<path d="M143.328 249.782H137.556V250.851H143.328V249.782Z" stroke="#0B334C" stroke-width="0.3084" stroke-miterlimit="10" stroke-linecap="round" stroke-linejoin="round"/>
<path d="M138.197 277.251V268.486" stroke="#0B334C" stroke-width="0.3084" stroke-miterlimit="10" stroke-linecap="round" stroke-linejoin="round"/>
<path d="M181.59 250.53L184.155 249.461C184.262 249.461 184.262 249.354 184.262 249.248L180.628 240.376C180.628 240.27 180.521 240.27 180.414 240.27L177.849 241.338C177.742 241.338 177.742 241.445 177.742 241.552L181.376 250.423C181.376 250.53 181.483 250.53 181.59 250.53Z" fill="#1F5B99"/>
<path d="M179.774 244.011L177.102 237.384L170.154 240.27C169.192 240.697 168.017 240.163 167.589 239.201L165.772 234.712C165.558 234.285 165.558 233.75 165.772 233.216C165.986 232.788 166.307 232.361 166.841 232.147L174.002 229.154L174.43 230.116L167.268 233.109C167.055 233.216 166.841 233.323 166.841 233.536C166.734 233.75 166.734 233.964 166.841 234.178L168.658 238.667C168.872 239.094 169.406 239.308 169.834 239.094L177.743 235.888L180.842 243.476L179.774 244.011Z" fill="#1F5B99"/>
<path d="M171.009 234.177L188.431 227.016C188.965 226.802 189.286 226.161 189.072 225.627L187.79 222.634C187.576 222.1 186.935 221.779 186.4 221.993L168.979 229.154C168.444 229.368 168.123 230.009 168.337 230.543L169.62 233.536C169.727 234.177 170.368 234.391 171.009 234.177Z" fill="#DA81E9"/>
<path d="M183.835 247.216C183.835 246.896 183.408 245.827 183.408 245.827C183.408 245.186 182.446 244.331 182.446 244.331C182.446 244.331 182.873 243.262 182.125 242.941C181.698 242.727 180.95 243.262 180.522 243.689C179.774 244.117 179.24 244.544 179.24 244.544C179.24 244.544 179.453 242.193 178.705 242.086C178.171 241.979 176.781 244.651 176.14 245.827C176.14 245.827 176.14 245.827 176.033 245.827H175.926C173.361 247.323 170.582 248.927 167.91 250.316C165.238 251.812 162.459 253.202 159.68 254.484C154.977 256.729 150.168 258.866 145.358 260.683C143.327 258.866 141.403 257.05 139.48 255.126C138.625 254.271 137.77 253.416 136.914 252.561C135.525 253.736 134.029 254.912 132.639 256.088C131.998 256.836 131.25 257.584 130.608 258.332C130.074 258.973 129.54 259.508 129.005 260.149C130.074 261.111 131.036 262.073 132.105 263.035C132.532 263.356 132.853 263.676 133.281 263.997C135.311 265.814 137.449 267.524 139.693 269.127C139.907 269.234 140.121 269.448 140.228 269.555C141.938 270.837 144.289 271.051 146.32 270.303C148.671 269.234 151.023 268.165 153.374 266.989C154.015 266.669 154.55 266.348 155.084 266.028C156.474 265.279 157.863 264.424 159.253 263.676C160.642 262.821 162.032 261.966 163.314 261.111C168.658 257.691 173.682 254.057 178.598 249.995C179.667 249.782 181.591 249.354 182.767 248.927C183.301 248.82 183.942 248.713 184.156 248.499C184.797 248.285 183.835 247.216 183.835 247.216Z" fill="#F1F1F1"/>
<path d="M138.411 254.058L131.036 262.074L133.281 264.104L138.411 254.058Z" fill="#0B334C"/>
<path d="M141.831 263.142C141.831 263.142 144.717 261.112 145.572 260.791" stroke="#0B334C" stroke-width="0.3084" stroke-miterlimit="10" stroke-linecap="round" stroke-linejoin="round"/>
<path d="M146.962 270.09C146.962 270.09 169.407 258.44 178.92 250.103L181.164 249.568" stroke="#0B334C" stroke-width="0.3084" stroke-miterlimit="10" stroke-linecap="round" stroke-linejoin="round"/>
<path d="M130.609 262.714L117.783 248.927C117.783 248.927 115.325 243.262 119.279 240.59C123.234 237.918 127.082 240.804 128.578 242.621C130.074 244.331 138.518 253.95 138.518 253.95L130.609 262.714Z" fill="#1F5B99"/>
<path d="M119.708 251.064L130.61 262.821L131.144 262.18" stroke="#0B334C" stroke-width="0.3084" stroke-miterlimit="10" stroke-linecap="round" stroke-linejoin="round"/>
<path d="M128.792 260.897L137.342 252.774" stroke="#0B334C" stroke-width="0.3084" stroke-miterlimit="10" stroke-linecap="round" stroke-linejoin="round"/>
<path d="M138.732 217.824C137.77 213.442 133.388 210.77 129.113 211.946C125.158 213.014 122.7 216.969 123.341 220.817C123.234 220.817 123.234 220.817 123.128 220.817C122.059 221.244 121.417 222.527 121.952 223.703C122.379 224.664 123.769 225.84 124.945 225.733C125.586 227.336 126.227 228.726 126.868 229.474C128.365 231.398 130.823 232.146 132.64 232.467C133.923 232.681 135.312 232.36 136.274 231.505C137.236 230.757 138.305 229.581 139.053 228.192C139.374 227.55 139.587 226.909 139.801 226.161C139.908 225.733 139.908 225.306 139.908 224.771C139.801 222.954 139.374 220.282 138.732 217.824Z" fill="#F1F1F1"/>
<path d="M134.029 222.206C134.243 222.954 134.457 223.489 134.671 224.237C134.777 224.557 134.777 224.985 134.671 225.412C134.457 225.84 134.029 226.054 133.709 226.054C133.922 225.733 134.136 225.413 134.136 225.199C134.136 224.985 134.029 224.664 134.029 224.344C133.816 223.702 133.709 222.954 134.029 222.206Z" fill="#0B334C"/>
<path d="M131.998 220.496C131.57 220.496 131.25 220.389 130.822 220.496C130.502 220.603 130.074 220.71 129.86 221.031C129.753 221.137 129.753 221.137 129.647 221.031C129.647 221.031 129.54 220.924 129.647 220.817C129.753 220.603 129.86 220.389 130.074 220.175C130.288 219.962 130.502 219.855 130.715 219.748C131.25 219.641 131.784 219.641 132.212 219.855C132.319 219.962 132.425 220.069 132.319 220.175C132.319 220.496 132.212 220.496 131.998 220.496Z" fill="#0B334C"/>
<path d="M135.953 219.961C136.38 219.748 136.914 219.748 137.449 219.854C137.663 219.961 137.983 220.068 138.09 220.282C138.304 220.496 138.411 220.709 138.518 220.923C138.518 221.03 138.518 221.03 138.411 221.137C138.304 221.137 138.304 221.137 138.197 221.137C137.876 220.816 137.556 220.603 137.235 220.603C136.914 220.496 136.487 220.603 136.059 220.603C135.953 220.603 135.739 220.496 135.739 220.389C135.739 220.175 135.846 220.068 135.953 219.961Z" fill="#0B334C"/>
<path d="M137.555 223.275C137.555 223.917 137.235 224.451 136.807 224.451C136.38 224.451 136.059 223.917 136.059 223.275C136.059 222.634 136.38 222.1 136.807 222.1C137.235 222.1 137.555 222.634 137.555 223.275Z" fill="#0B334C"/>
<path d="M131.891 223.275C131.891 223.917 131.57 224.451 131.143 224.451C130.715 224.451 130.395 223.917 130.395 223.275C130.395 222.634 130.715 222.1 131.143 222.1C131.677 222.1 131.891 222.634 131.891 223.275Z" fill="#0B334C"/>
<path d="M133.921 228.833C133.707 228.94 133.6 228.94 133.387 228.94C133.173 228.94 132.959 228.94 132.852 228.727C133.066 228.727 133.173 228.727 133.387 228.727C133.494 228.833 133.707 228.833 133.921 228.833Z" fill="#0B334C"/>
<path d="M135.204 227.551C134.884 228.085 134.242 228.406 133.601 228.406C133.281 228.406 132.96 228.299 132.639 228.085C132.319 227.871 132.212 227.658 131.998 227.337C132.425 227.764 132.96 228.085 133.494 227.978C134.136 228.192 134.67 227.871 135.204 227.551Z" fill="#0B334C"/>
<path d="M131.25 227.229C131.25 227.229 131.143 226.054 133.815 226.054C133.815 226.054 135.525 226.054 135.846 227.229C135.846 227.229 134.563 228.298 131.25 227.229Z" fill="#0B334C"/>
<path d="M124.517 216.541C124.41 216.541 124.41 216.541 124.517 216.541C122.7 216.113 120.883 217.075 120.349 218.679C120.349 218.786 120.242 218.999 120.242 219.106C119.6 221.564 120.135 224.13 121.631 226.267C122.807 227.977 124.624 229.26 126.548 229.901V229.046C126.013 228.191 125.479 227.122 125.051 225.84C123.983 225.947 122.486 224.771 122.059 223.809C121.738 223.061 121.845 222.313 122.272 221.778C122.7 221.03 123.769 220.923 124.517 221.458C124.944 221.778 125.372 222.206 125.586 222.74C125.586 222.74 126.548 222.954 126.868 222.526C127.082 222.313 126.868 220.923 126.868 219.534C126.655 218.144 125.8 216.969 124.517 216.541Z" fill="#0B334C"/>
<path d="M140.976 219.641C140.976 219.427 140.976 219.32 140.976 219.106C140.976 218.999 140.976 218.892 140.976 218.786V218.679V218.572C140.656 215.579 138.304 216.327 138.304 216.327C138.518 216.648 138.732 217.396 138.732 217.396C138.732 217.396 139.801 222.847 139.908 224.771C139.908 225.092 139.908 225.412 139.908 225.626C140.228 224.771 140.549 223.809 140.656 222.954C140.763 222.206 140.976 221.244 140.976 220.496C140.976 220.282 140.976 219.961 140.976 219.641Z" fill="#0B334C"/>
<path d="M350.679 400.805L345.014 408.393H350.893L350.679 400.805Z" fill="#DA81E9"/>
<path d="M397.386 400.805L403.051 408.393H397.172L397.386 400.805Z" fill="#DA81E9"/>
<path d="M397.386 400.805H350.679V425.708H397.386V400.805Z" fill="#DA81E9"/>
<path d="M400.592 411.065H347.472L350.679 400.805H397.386L400.592 411.065Z" fill="#DA81E9"/>
<path d="M397.386 400.911L399.844 408.393H401.875L397.386 400.911Z" fill="#0B334C"/>
<path d="M397.386 411.064H350.679V414.698L397.386 411.064Z" fill="#0B334C"/>
<path d="M293.817 399.416L296.489 405.722H289.649H285.053H274.472C274.472 405.722 272.014 409.356 269.662 413.952C266.028 420.899 269.128 429.45 276.396 432.442C285.267 436.076 295.421 435.114 303.437 429.877C318.079 426.029 336.57 419.937 342.128 412.669C348.968 403.478 293.817 399.416 293.817 399.416Z" fill="#0B334C"/>
<path d="M296.169 406.149C296.169 406.149 293.177 417.906 299.483 419.296C305.789 420.685 328.661 413.524 327.913 406.684" stroke="white" stroke-width="0.3305" stroke-miterlimit="10" stroke-linecap="round" stroke-linejoin="round"/>
<path d="M298.627 405.615L314.767 403.478" stroke="white" stroke-width="0.3305" stroke-miterlimit="10" stroke-linecap="round" stroke-linejoin="round"/>
<path d="M277.785 415.662L287.832 415.983C287.832 415.983 288.152 428.274 283.556 428.595C278.961 429.022 275.327 424.854 277.785 415.662Z" stroke="white" stroke-width="0.3305" stroke-miterlimit="10" stroke-linecap="round" stroke-linejoin="round"/>
<path d="M274.151 407.967C274.151 407.967 285.374 409.463 295.634 408.715" stroke="white" stroke-width="0.3305" stroke-miterlimit="10" stroke-linecap="round" stroke-linejoin="round"/>
<path d="M314.018 431.481C310.812 431.267 309.957 426.885 312.95 425.495C319.149 422.716 327.379 419.403 330.051 420.579C333.685 422.182 325.882 432.336 314.018 431.481Z" fill="#A87AC9"/>
<path d="M324.813 371.626C324.278 369.489 323.744 367.351 323.53 366.603C323.53 366.496 323.423 366.389 323.423 366.282C322.996 364.679 322.462 362.969 321.927 361.366C319.896 354.953 317.545 348.754 314.659 342.662C314.766 340.952 314.873 337.104 314.445 337.104C313.804 336.997 313.163 339.669 313.163 339.669C313.163 339.669 313.59 334.966 312.735 334.966C311.88 334.966 311.773 338.921 311.773 338.921C311.773 338.921 310.705 334.111 310.063 334.539C309.422 334.966 310.17 338.707 310.17 338.707C310.17 338.707 308.353 334.432 307.819 334.859C307.284 335.287 309.101 340.631 309.101 340.631C309.101 340.631 306.75 339.776 306.429 340.524C306.216 341.058 308.567 343.196 309.529 344.158C309.529 344.158 309.529 344.158 309.529 344.265V344.372C310.384 347.471 311.239 350.678 311.987 353.884C312.735 357.091 313.483 360.297 314.125 363.503C314.445 365.214 314.766 366.924 315.087 368.634C310.705 369.382 306.322 369.916 301.833 370.237C300.765 370.344 299.696 370.344 298.627 370.451C298.841 373.23 299.055 375.902 299.055 378.681C299.055 379.856 299.161 380.925 299.268 382.101C300.551 381.994 301.727 381.887 303.009 381.673C306.429 381.246 309.85 380.711 313.27 379.963C314.339 379.749 315.407 379.429 316.583 379.215C317.652 378.894 319.683 378.36 321.5 377.719C323.958 376.757 325.454 374.192 324.813 371.626Z" fill="white"/>
<path d="M315.087 368.42C315.087 368.42 315.622 372.268 316.37 373.55" stroke="#0B334C" stroke-width="0.3305" stroke-miterlimit="10" stroke-linecap="round" stroke-linejoin="round"/>
<path d="M301.085 382.1C301.085 382.1 281.098 385.734 276.93 380.177C272.762 374.619 279.388 370.237 280.671 370.13C281.953 370.023 299.909 369.916 299.909 369.916L301.085 382.1Z" fill="#F64652"/>
<path d="M288.367 368.848V358.053H279.816V368.955C279.816 370.237 278.961 371.413 277.572 371.413L276.93 371.52C289.222 381.674 290.825 371.306 290.825 371.306C289.435 371.306 288.367 370.237 288.367 368.848Z" fill="white"/>
<path d="M288.366 364.68V367.138C287.404 366.71 286.442 366.069 285.587 365.214C285.266 364.787 284.946 364.359 284.518 363.718C285.694 364.252 286.87 364.466 287.832 364.68C288.152 364.68 288.259 364.68 288.366 364.68Z" fill="#0B334C"/>
<path d="M279.282 370.558C279.282 370.558 289.649 370.664 290.932 371.199C292.214 371.84 298.2 377.505 299.055 381.139C299.91 384.773 294.779 395.14 295.421 397.171C296.062 399.202 298.307 405.722 298.307 405.722H273.51C273.51 405.722 276.717 393.43 273.724 386.162C270.838 378.894 271.586 370.878 279.282 370.558Z" fill="#F64652"/>
<path d="M367.566 408.821C367.459 408.18 361.795 407.218 361.795 407.218C361.795 407.218 363.719 405.508 363.184 404.867C362.863 404.439 359.871 405.401 358.481 405.935C358.481 405.935 358.481 405.935 358.374 405.935H358.268C355.168 405.187 351.855 404.439 348.755 403.584C345.549 402.729 342.449 401.874 339.35 400.912C333.15 398.988 326.951 396.851 321.287 394.179C315.622 391.507 310.171 388.193 304.934 384.559C303.224 383.384 301.407 382.101 299.697 380.818C299.376 381.46 298.948 382.208 298.628 382.849C297.238 385.628 295.849 388.514 294.246 391.4C295.742 392.362 297.131 393.323 298.628 394.179C301.62 395.996 304.613 397.706 307.713 399.202C310.812 400.698 314.126 402.195 317.439 403.37C320.752 404.546 324.066 405.615 327.379 406.47C329.089 406.897 330.692 407.325 332.402 407.646C334.112 407.966 335.716 408.394 337.426 408.608C344.052 409.89 350.679 410.638 357.412 411.066C358.909 411.921 362.115 413.845 362.436 413.524C362.757 412.99 360.726 411.173 360.726 411.173C360.726 411.173 364.68 413.738 365.001 412.99C365.429 412.242 362.008 410.318 362.008 410.318C362.008 410.318 366.711 411.6 366.711 410.852C366.604 410.104 362.97 408.928 362.97 408.928C362.97 408.928 367.673 409.463 367.566 408.821Z" fill="white"/>
<path d="M297.879 394.499C297.879 394.499 277.358 385.308 279.282 376.436C281.206 367.565 289.222 371.627 292.108 374.833C295.1 378.04 304.933 384.559 304.933 384.559L297.879 394.499Z" fill="#F64652"/>
<path d="M296.17 393.751C296.17 393.751 283.558 386.376 280.031 381.78" stroke="#0B334C" stroke-width="0.3305" stroke-miterlimit="10" stroke-linecap="round" stroke-linejoin="round"/>
<path d="M300.659 381.46L291.147 373.871" stroke="#0B334C" stroke-width="0.3305" stroke-miterlimit="10" stroke-linecap="round" stroke-linejoin="round"/>
<path d="M296.596 356.449C296.489 356.235 296.275 356.129 296.062 356.022C295.634 355.701 295.314 355.273 295.1 354.739C294.886 352.922 294.352 350.784 293.817 348.647C292.642 344.051 287.832 341.379 283.236 342.768C278.64 344.158 276.182 349.074 277.785 353.563C278.961 356.877 280.35 360.297 281.633 361.686C283.343 363.61 286.015 364.358 287.832 364.679C289.221 364.893 290.611 364.465 291.68 363.503C292.642 362.648 293.817 361.366 294.459 359.763C294.672 359.335 294.779 358.907 294.993 358.373C295.42 358.052 295.848 357.732 296.276 357.304C296.382 357.197 296.489 357.09 296.596 356.984C296.81 356.877 296.81 356.663 296.596 356.449Z" fill="white"/>
<path d="M291.359 357.838C291.359 358.907 290.504 359.869 289.329 359.869C288.26 359.869 287.298 359.014 287.298 357.838C287.298 356.77 288.153 355.808 289.329 355.808C290.397 355.914 291.359 356.77 291.359 357.838Z" fill="#A83EBA"/>
<path d="M292.856 351.532C292.429 351.532 292.001 351.425 291.574 351.532C291.146 351.639 290.825 351.746 290.505 352.174C290.398 352.28 290.398 352.28 290.291 352.174C290.291 352.174 290.184 352.067 290.291 351.96C290.398 351.746 290.505 351.425 290.718 351.318C290.932 351.105 291.146 350.998 291.467 350.891C292.001 350.677 292.535 350.784 293.07 350.998C293.177 351.105 293.284 351.212 293.177 351.425C293.07 351.532 292.963 351.532 292.856 351.532Z" fill="#0B334C"/>
<path d="M292.215 360.19C292.001 360.19 291.787 360.19 291.574 360.083C291.36 359.976 291.146 359.869 291.146 359.655C291.36 359.762 291.467 359.869 291.681 359.869C291.787 360.083 292.001 360.083 292.215 360.19Z" fill="#0B334C"/>
<path d="M294.032 359.549C293.497 359.869 292.749 359.976 292.108 359.762C291.787 359.656 291.467 359.442 291.253 359.121C291.039 358.8 290.932 358.48 290.932 358.159C291.253 358.694 291.574 359.228 292.215 359.442C292.749 359.655 293.391 359.656 294.032 359.549Z" fill="#0B334C"/>
<path d="M293.069 354.846C292.642 354.739 292.214 354.632 291.787 354.632C291.359 354.632 291.039 354.739 290.504 354.846C290.611 354.632 290.825 354.418 291.039 354.311C291.252 354.205 291.466 354.098 291.787 354.098C292.321 354.098 292.856 354.418 293.069 354.846Z" fill="#0B334C"/>
<path d="M294.779 346.081C294.352 344.264 293.176 342.554 291.573 341.592C290.611 341.058 289.649 340.63 288.58 340.524C286.122 340.096 283.45 340.524 281.205 341.806C280.457 342.234 279.709 342.768 279.068 343.303C278.213 344.051 277.464 344.799 276.823 345.654C275.754 347.257 275.434 349.288 275.113 351.212C274.579 354.098 273.403 356.77 272.013 359.335C271.372 360.51 270.731 361.686 270.41 362.969C269.983 364.251 269.983 365.641 270.41 366.816C270.945 368.099 272.12 369.168 273.51 369.595C274.472 369.916 277.358 370.023 279.281 370.237C280.885 370.344 282.488 370.023 283.77 369.061C288.794 365.213 281.953 357.411 281.953 357.411C277.785 354.418 281.312 352.494 281.312 352.494C282.167 352.601 282.915 352.601 283.664 352.601C283.984 353.136 284.412 354.098 284.198 355.38C284.198 355.38 286.015 353.563 286.549 352.067C290.504 350.891 293.069 348.112 293.604 347.578C293.71 347.898 293.924 348.326 294.031 348.753C294.245 349.609 294.459 350.464 294.672 351.319C295.1 349.502 295.207 347.792 294.779 346.081Z" fill="#0B334C"/>
<path d="M329.942 18.918L342.661 26.1859L356.128 0L329.942 18.918Z" fill="#BA68C8"/>
<path d="M329.943 18.918L329.515 28.5373L337.638 23.3001L329.943 18.918Z" fill="#593375"/>
<path d="M329.515 28.5373L324.92 17.5286L356.129 0L329.943 18.918L329.515 28.5373Z" fill="#7E559B"/>
<path d="M356.129 0L314.338 13.8946L324.919 17.5286L356.129 0Z" fill="#BA68C8"/>
<path d="M520.833 245.721H473.057V190.784H508.969L520.833 203.61V245.721Z" fill="#BA68C8"/>
<path d="M508.969 190.783L505.656 203.716L520.833 203.609L508.969 190.783Z" fill="#BA68C8"/>
<path d="M508.862 190.677L505.762 203.823L520.725 203.716" stroke="#0B334C" stroke-width="0.9252" stroke-miterlimit="10" stroke-linecap="round" stroke-linejoin="round"/>
<path d="M123.234 87.429C126.547 86.3601 130.075 86.8945 132.853 88.3909L123.555 57.8228L95.6587 66.2664C95.8725 64.6632 95.6587 62.9531 95.2312 61.243C93.2005 54.6164 86.2532 50.8755 79.6265 52.9063C72.9999 54.937 69.259 61.8843 71.2898 68.5109C71.8242 70.221 72.6792 71.7174 73.6412 72.8931L45.7451 81.3367L55.0438 111.905C56.5401 109.019 59.2122 106.774 62.5255 105.706C69.1521 103.675 76.0994 107.416 78.1302 114.042C80.1609 120.669 76.4201 127.616 69.7934 129.647C66.4801 130.716 62.953 130.182 60.1741 128.685L69.4728 159.253L97.3688 150.81C97.1551 152.413 97.3688 154.123 97.7964 155.833C99.8271 162.46 106.774 166.201 113.401 164.17C120.028 162.139 123.769 155.192 121.738 148.565C121.203 146.855 120.348 145.359 119.386 144.183L147.282 135.739L137.984 105.278C136.487 108.164 133.815 110.408 130.502 111.477C123.875 113.508 116.928 109.767 114.897 103.141C112.867 96.407 116.607 89.4597 123.234 87.429Z" fill="#A87AC9"/>
<path d="M70.8621 155.298L95.5517 148.03" stroke="#0B334C" stroke-width="0.9252" stroke-miterlimit="10" stroke-linecap="round" stroke-linejoin="round"/>
<path d="M98.1167 69.2589L122.593 61.5635" stroke="#0B334C" stroke-width="0.9252" stroke-miterlimit="10" stroke-linecap="round" stroke-linejoin="round"/>
<path d="M478.082 412.884L478.937 425.603L483.319 425.389C483.319 425.389 484.494 420.152 485.777 412.884H478.082Z" fill="#F7F7F7"/>
<path d="M478.722 424.32C478.722 424.32 481.394 426.137 483.425 424.32L483.853 425.496C484.28 426.565 484.387 427.634 484.387 428.702V429.023H470.172C470.172 427.954 470.813 427.099 471.775 426.779L478.722 424.32Z" fill="#0B334C"/>
<path d="M500.312 412.884L501.702 425.71L506.084 425.389C506.084 425.389 507.046 420.259 508.115 412.884H500.312Z" fill="#F7F7F7"/>
<path d="M501.595 424.32C501.595 424.32 504.267 426.137 506.298 424.32L506.726 425.496C507.153 426.565 507.26 427.634 507.26 428.702V429.023H493.045C493.045 427.954 493.686 427.099 494.648 426.779L501.595 424.32Z" fill="#0B334C"/>
<path d="M474.339 285.694C474.125 286.122 474.019 286.549 473.805 286.87C471.453 292.428 468.781 297.772 465.575 302.795C462.368 307.819 458.521 312.628 454.566 317.224C452.535 319.576 450.505 321.82 448.367 324.065C446.229 326.309 444.092 328.554 441.954 330.691L441.847 330.798C440.885 331.76 440.885 333.47 441.847 334.432C442.702 335.287 444.199 335.394 445.161 334.646C450.398 330.905 455.314 326.844 460.017 322.462C461.193 321.393 462.368 320.217 463.544 319.148C464.72 317.973 465.789 316.904 466.964 315.621C469.209 313.27 471.346 310.811 473.377 308.139C475.408 305.467 477.225 302.689 478.935 299.91C480.645 297.131 482.141 294.245 483.638 291.252C484.065 290.504 484.386 289.649 484.814 288.794C481.286 288.046 477.759 286.977 474.339 285.694Z" fill="#F7F7F7"/>
<path d="M442.489 330.691C442.489 330.691 437.679 331.546 437.572 332.295C437.465 333.043 439.817 333.47 439.817 333.47C439.817 333.47 435.862 337.104 436.076 337.639C436.397 338.28 439.817 335.608 439.817 335.608C439.817 335.608 437.465 338.387 437.786 339.028C438.107 339.669 441.206 336.249 441.206 336.249C441.206 336.249 439.496 339.563 440.244 339.883C440.886 340.311 442.81 336.249 442.81 336.249C442.81 336.249 442.168 338.814 442.703 339.028C443.237 339.242 445.802 333.898 445.802 333.898L442.489 330.691Z" fill="#F7F7F7"/>
<path d="M490.051 277.251C489.944 277.572 489.838 277.786 489.731 278.106C487.593 284.092 484.173 291.253 484.173 291.253L483.745 291.039L480.539 289.863L478.829 289.222H478.722L473.592 287.298L473.164 287.084C473.164 287.084 473.912 285.374 474.767 283.13C475.409 281.526 476.157 279.602 476.905 277.785C477.012 277.572 477.012 277.465 477.119 277.251C477.332 276.61 477.546 275.969 477.76 275.434C478.081 274.579 478.401 273.724 478.615 272.976C478.829 272.335 479.043 271.693 479.149 271.266C479.577 269.769 480.432 268.701 481.501 267.846C482.89 266.67 484.6 266.135 485.669 265.815C485.669 265.815 485.669 265.815 485.776 265.815C485.99 265.708 486.204 265.708 486.417 265.601H486.524C487.807 265.387 490.051 267.632 491.12 270.411C491.227 270.624 491.227 270.731 491.334 270.945C491.334 270.945 491.334 270.945 491.334 271.052C491.761 271.693 491.12 274.258 490.051 277.251Z" fill="#DA81E9"/>
<path d="M497.534 266.028C496.679 267.311 495.824 268.273 494.969 269.021C494.541 269.448 494.114 269.662 493.686 269.983C493.259 270.197 492.938 270.41 492.511 270.517C492.083 270.624 491.762 270.731 491.335 270.731C491.228 270.731 491.121 270.731 491.014 270.731C490.48 270.731 490.052 270.624 489.518 270.517C488.77 270.303 488.129 269.876 487.594 269.448C487.594 269.448 487.487 269.448 487.487 269.341C486.846 268.807 486.312 268.273 485.884 267.738C485.67 267.418 485.456 267.204 485.35 266.99C485.136 266.669 484.922 266.456 484.922 266.242C484.815 266.135 484.815 266.135 484.815 266.135H484.922C485.029 266.135 485.136 266.135 485.136 266.135C485.67 266.028 486.098 265.814 486.418 265.494L486.525 265.387C486.846 264.959 487.06 264.425 487.06 263.89V253.63H495.076V256.516V263.89C495.076 264.318 495.183 264.746 495.396 265.066C495.503 265.28 495.717 265.601 496.038 265.707C496.145 265.814 496.358 265.921 496.572 266.028C497 265.921 497.213 266.028 497.534 266.028Z" fill="#F7F7F7"/>
<path d="M495.29 256.409V256.623C494.862 257.371 494.542 258.119 494.114 258.547C492.618 260.471 490.053 261.219 488.343 261.539C487.915 261.646 487.595 261.646 487.167 261.646V259.936C487.808 260.043 488.45 260.15 489.091 260.043C490.801 259.723 493.366 258.867 494.862 257.05C494.969 256.837 495.183 256.623 495.29 256.409Z" fill="#0B334C"/>
<path d="M500.206 288.366C499.565 290.824 499.244 292.748 499.779 293.71C501.061 296.489 502.237 298.947 502.237 298.947H476.586C476.586 298.947 477.975 297.344 479.151 294.993C479.685 293.924 480.22 292.748 480.433 291.466C480.54 290.931 480.647 290.397 480.647 289.755C480.647 289.007 480.647 288.259 480.326 287.618V287.511C479.044 283.77 477.334 280.564 477.013 277.892C477.013 277.785 477.013 277.678 477.013 277.571C476.906 276.93 477.013 276.182 477.227 275.647C477.441 274.792 478.082 273.83 478.83 272.654C479.899 271.158 481.288 269.448 482.785 268.059C482.998 267.845 483.212 267.631 483.426 267.417C483.96 266.883 484.602 266.455 485.136 266.028C485.243 265.921 485.243 265.921 485.35 265.921C485.564 265.707 485.777 265.6 485.991 265.493C486.098 265.493 486.098 265.387 486.205 265.387L486.739 265.066V265.173V265.28C486.739 265.814 486.632 267.845 487.701 269.234C487.701 269.234 487.701 269.234 487.701 269.341C488.129 269.876 488.663 270.196 489.518 270.41H489.625C490.16 270.517 490.694 270.41 491.228 270.089C493.473 269.02 495.29 265.387 495.504 264.959V265.066C495.504 265.28 495.504 265.493 496.145 265.707C496.252 265.814 496.466 265.814 496.786 265.814C497 265.814 497.321 265.921 497.748 265.921C497.855 265.921 497.962 265.921 498.069 265.921C499.031 265.921 499.886 266.135 500.741 266.562C502.344 267.417 504.589 269.341 504.268 273.082C504.268 273.189 504.268 273.296 504.268 273.403C503.947 276.93 502.023 282.381 500.741 286.977C500.741 287.19 500.634 287.404 500.527 287.618C500.313 287.832 500.313 288.152 500.206 288.366Z" fill="#DA81E9"/>
<path d="M508.97 378.146C511.429 390.438 510.68 404.653 509.505 415.341H497.855L490.266 340.31V339.99V340.31L487.808 378.253C489.625 388.514 488.342 403.798 486.739 415.234H476.265C475.089 395.247 472.951 360.297 471.562 339.348V339.241C471.348 335.607 471.134 332.401 470.921 329.729C470.707 326.629 470.493 324.278 470.386 322.996C470.065 319.575 470.707 315.621 471.669 311.559C471.882 310.811 471.989 310.17 472.203 309.422C472.951 306.536 473.913 303.757 474.875 301.192C475.089 300.55 475.303 299.909 475.516 299.375C476.158 297.558 476.799 295.955 477.333 294.672C477.975 293.069 478.402 291.893 478.616 291.359C478.723 290.824 478.83 289.969 478.723 289.007V288.9C478.616 288.259 478.616 287.618 478.402 286.976C478.082 285.266 477.654 283.449 477.12 281.846C476.799 280.564 476.692 279.174 476.906 277.892C477.013 277.571 477.013 277.357 477.12 277.036C477.227 276.395 477.547 275.754 477.761 275.219C477.975 274.792 478.188 274.364 478.509 274.044L482.784 268.165L483.212 267.524L484.067 266.348L484.815 266.028L485.67 265.6L485.884 265.493L486.418 265.173V265.28V265.386L485.777 267.738L485.456 268.914L483.426 276.716L489.839 277.25L490.8 277.357L493.259 270.624L493.579 269.875L495.396 264.959V264.852V264.745L497.534 265.6V265.707L497.32 266.99L496.572 271.158L495.289 278.426L499.351 286.549L499.672 287.297L500.099 288.152L502.878 293.71C502.878 293.71 503.199 294.672 503.84 296.489C505.229 300.55 508.115 308.78 512.07 319.896C517.841 336.249 508.97 378.146 508.97 378.146Z" fill="#0B334C"/>
<path d="M485.67 266.134L482.25 277.464L491.656 278.212L496.252 265.279" stroke="white" stroke-width="0.3084" stroke-miterlimit="10" stroke-linecap="round" stroke-linejoin="round"/>
<path d="M486.74 342.448L494.328 337.959" stroke="white" stroke-width="0.3084" stroke-miterlimit="10" stroke-linecap="round" stroke-linejoin="round"/>
<path d="M488.663 311.132H507.902" stroke="white" stroke-width="0.3084" stroke-miterlimit="10" stroke-linecap="round" stroke-linejoin="round"/>
<path d="M501.703 311.238C501.703 311.238 502.344 325.881 510.04 326.629" stroke="white" stroke-width="0.3084" stroke-miterlimit="10" stroke-linecap="round" stroke-linejoin="round"/>
<path d="M505.23 311.238C505.23 311.238 510.574 322.781 510.253 329.194C509.932 335.607 506.085 379.001 506.085 379.001V413.203" stroke="white" stroke-width="0.3084" stroke-miterlimit="10" stroke-linecap="round" stroke-linejoin="round"/>
<path d="M488.021 341.379L486.098 378.253C486.098 378.253 485.563 395.995 484.494 413.845" stroke="white" stroke-width="0.3084" stroke-miterlimit="10" stroke-linecap="round" stroke-linejoin="round"/>
<path d="M452.683 248.882L380.415 295.763L427.296 368.031L499.564 321.15L452.683 248.882Z" fill="white"/>
<path d="M450.228 260.412L391.947 298.219L429.754 356.5L488.035 318.692L450.228 260.412Z" fill="#BA68C8"/>
<path d="M481.18 308.139L488.021 318.72L429.77 356.556L419.51 340.738C421.54 334.645 425.281 329.087 430.732 325.774C435.328 322.995 440.779 322.033 446.123 321.071C455.315 319.361 470.278 311.559 481.18 308.139Z" fill="#C755DB"/>
<path d="M445.803 287.511C448.048 290.931 447.086 295.634 443.559 297.878C440.138 300.123 435.436 299.161 433.191 295.634C430.947 292.213 431.908 287.511 435.436 285.266C438.856 283.021 443.559 283.983 445.803 287.511Z" fill="#DA81E9"/>
<path d="M452.75 248.927L380.498 295.741L427.205 368.206L499.671 321.392L452.75 248.927Z" stroke="#0B334C" stroke-width="0.3084" stroke-miterlimit="10" stroke-linecap="round" stroke-linejoin="round"/>
<path d="M493.792 286.015C493.792 287.404 493.792 288.794 493.792 290.076C493.792 292.214 493.685 294.245 493.471 296.275C490.051 296.168 486.524 295.848 483.104 295.42C480.004 295.1 477.012 294.672 473.912 294.244C470.813 293.817 467.82 293.283 464.827 292.641H464.72C464.72 292.641 464.72 292.641 464.613 292.641C463.652 291.679 461.407 289.649 460.979 289.969C460.338 290.29 461.3 292.534 461.3 292.534C461.3 292.534 456.063 291.252 455.742 291.786C455.422 292.321 459.59 293.71 459.59 293.71C459.59 293.71 455.956 293.283 455.635 293.924C455.315 294.565 459.911 295.206 459.911 295.206C459.911 295.206 456.277 295.634 456.277 296.489C456.277 297.237 460.659 296.489 460.659 296.489C460.659 296.489 458.201 297.344 458.307 297.878C458.414 298.306 461.941 297.878 463.545 297.665C469.53 299.802 475.515 301.512 481.714 303.009C483.318 303.329 484.814 303.65 486.417 303.971C488.02 304.291 489.624 304.612 491.227 304.826C491.654 304.933 492.082 304.933 492.51 305.04C493.578 305.146 495.075 305.36 496.678 305.467C499.884 305.788 502.77 303.65 503.411 300.444C503.411 300.444 503.411 300.444 503.411 300.337C503.625 298.947 503.839 297.558 503.946 296.275C504.16 294.351 504.373 292.534 504.587 290.611C504.694 289.328 504.801 288.152 504.801 286.87C501.06 287.083 497.319 286.763 493.792 286.015Z" fill="#F7F7F7"/>
<path d="M505.442 272.334C505.442 272.869 505.442 273.189 505.442 273.403C505.442 274.579 505.014 287.725 505.014 287.725H504.8L500.525 287.618H499.884L493.899 287.405H493.578C493.578 287.405 494.86 278.106 496.464 271.372C496.784 269.769 497.212 268.38 497.639 267.311C497.853 266.883 497.96 266.456 498.174 266.028C504.694 265.814 505.335 270.09 505.442 272.334Z" fill="#DA81E9"/>
<path d="M499.777 251.172C499.35 252.134 497.853 253.309 496.784 253.202C496.25 254.485 495.822 255.661 495.288 256.409C495.181 256.623 494.967 256.836 494.861 256.943C493.364 258.867 490.799 259.615 489.089 259.936C488.448 260.043 487.806 260.043 487.165 259.936C486.524 259.722 485.883 259.508 485.455 258.974C484.493 258.119 483.424 257.05 482.676 255.554C482.355 254.912 482.035 254.164 481.928 253.416C481.821 252.989 481.821 252.561 481.821 252.027C481.821 250.103 482.355 247.538 482.89 244.972C483.852 240.59 488.234 237.918 492.616 239.094C496.678 240.163 499.136 244.117 498.388 248.072C498.388 248.072 498.495 248.072 498.601 248.179C499.67 248.713 500.205 249.996 499.777 251.172Z" fill="#F7F7F7"/>
<path d="M490.157 253.844C490.157 254.913 491.012 255.768 492.081 255.768C493.15 255.768 494.005 254.913 494.005 253.844C494.005 252.775 493.15 251.92 492.081 251.92C491.012 251.92 490.157 252.775 490.157 253.844Z" fill="white"/>
<path d="M484.707 253.844C484.707 254.913 483.852 255.768 482.783 255.768C482.676 255.768 482.676 255.768 482.676 255.768C482.355 255.126 482.035 254.378 481.928 253.63C481.821 253.203 481.821 252.775 481.821 252.241C482.141 252.027 482.462 251.92 482.783 251.92C483.852 251.92 484.707 252.775 484.707 253.844Z" fill="white"/>
<path d="M487.699 249.568C488.02 250.317 487.913 251.065 487.699 251.706C487.592 252.027 487.485 252.347 487.592 252.561C487.592 252.775 487.806 253.095 488.02 253.416C487.699 253.309 487.272 253.202 487.058 252.668C486.951 252.24 487.058 251.813 487.058 251.492C487.272 250.851 487.485 250.21 487.699 249.568Z" fill="#0B334C"/>
<path d="M489.517 247.324C489.944 247.11 490.479 247.11 491.013 247.217C491.227 247.324 491.547 247.43 491.654 247.644C491.868 247.858 491.975 248.072 492.082 248.286C492.082 248.392 492.082 248.392 491.975 248.499C491.868 248.499 491.868 248.499 491.761 248.499C491.44 248.179 491.12 247.965 490.799 247.965C490.479 247.858 490.051 247.965 489.623 247.965C489.517 247.965 489.303 247.858 489.303 247.751C489.41 247.43 489.41 247.43 489.517 247.324Z" fill="#0B334C"/>
<path d="M485.562 247.858C485.134 247.858 484.707 247.752 484.386 247.858C483.959 247.965 483.638 248.072 483.424 248.393C483.317 248.5 483.317 248.5 483.211 248.393C483.211 248.393 483.104 248.286 483.211 248.179C483.317 247.965 483.424 247.752 483.638 247.538C483.852 247.324 484.066 247.217 484.279 247.11C484.814 247.003 485.348 247.003 485.776 247.217C485.883 247.324 485.99 247.431 485.883 247.538C485.883 247.752 485.776 247.858 485.562 247.858Z" fill="#0B334C"/>
<path d="M484.813 251.706C485.226 251.706 485.561 251.179 485.561 250.53C485.561 249.881 485.226 249.354 484.813 249.354C484.4 249.354 484.065 249.881 484.065 250.53C484.065 251.179 484.4 251.706 484.813 251.706Z" fill="#0B334C"/>
<path d="M489.837 250.53C489.837 251.171 490.157 251.706 490.585 251.706C491.012 251.706 491.333 251.171 491.333 250.53C491.333 249.889 491.012 249.354 490.585 249.354C490.157 249.461 489.837 249.996 489.837 250.53Z" fill="#0B334C"/>
<path d="M489.303 254.912C489.517 254.805 489.624 254.805 489.837 254.698C490.051 254.698 490.158 254.591 490.372 254.484C490.265 254.698 490.051 254.805 489.944 254.912C489.73 254.805 489.517 254.912 489.303 254.912Z" fill="#0B334C"/>
<path d="M487.699 254.271C488.341 254.378 488.875 254.378 489.409 254.164C489.944 253.95 490.264 253.523 490.585 252.988C490.585 253.309 490.478 253.63 490.264 253.843C490.051 254.164 489.837 254.378 489.516 254.485C488.875 254.698 488.127 254.591 487.699 254.271Z" fill="#0B334C"/>
<path d="M507.687 263.356C507.152 260.577 506.084 257.905 503.839 256.195C504.48 254.058 504.374 251.813 503.625 249.675C502.877 247.645 501.488 245.828 499.457 244.866C499.671 243.263 494.647 233.857 484.6 238.239C482.356 239.201 481.287 241.98 481.608 244.866C480.005 246.255 479.149 248.393 479.043 250.53C478.936 252.668 479.363 254.699 480.005 256.73C480.432 257.798 480.86 258.974 481.394 260.043C480.539 260.791 480.111 261.86 480.005 262.929C479.898 263.998 480.218 265.173 480.753 266.135C480.966 266.67 481.287 267.097 481.715 267.525C483.104 266.349 484.814 265.815 485.883 265.494L486.097 265.387C486.311 265.28 486.524 265.173 486.631 265.066V265.173C486.952 264.746 487.166 264.211 487.166 263.677V259.936C486.524 259.722 485.883 259.509 485.455 258.974C484.494 258.119 483.425 257.05 482.677 255.554C482.356 254.913 482.035 254.164 481.928 253.416C481.822 252.989 481.822 252.561 481.822 252.027C481.822 250.637 482.142 248.927 482.463 247.003C483.425 247.003 485.455 246.79 487.593 244.866C487.593 244.866 488.448 249.675 494.22 249.141C494.22 249.141 493.899 251.599 495.075 251.706C496.037 251.813 497.64 249.248 498.388 247.858H498.495C499.564 248.286 500.205 249.569 499.671 250.744C499.243 251.706 497.747 252.882 496.678 252.775C496.144 254.058 495.716 255.233 495.182 255.981V263.356C495.182 263.784 495.289 264.211 495.502 264.532L497.64 265.387V265.494C497.747 265.494 497.854 265.494 497.961 265.494C504.694 265.387 505.442 269.662 505.442 271.8C506.618 270.09 507.794 268.273 508.007 266.349C508.114 265.601 507.901 264.532 507.687 263.356Z" fill="#0B334C"/>
</svg>
