<svg width="9" height="16" viewBox="0 0 9 16" fill="none" xmlns="http://www.w3.org/2000/svg">
<path d="M9 4.16867C9 1.87006 6.98128 0 4.5 0C2.01872 0 0 1.87006 0 4.16867C0 6.15196 1.50295 7.81605 3.5091 8.2353V15.082C3.5091 15.5882 3.95361 16 4.5 16C5.04639 16 5.4909 15.5882 5.4909 15.082V14.7874H6.82476C7.20551 14.7874 7.51528 14.5152 7.51528 14.1807C7.51528 13.8461 7.20551 13.5739 6.82476 13.5739H6.79806C6.67114 13.5739 6.56789 13.4782 6.56789 13.3606V13.0212C6.56789 12.9036 6.67114 12.808 6.79806 12.808H6.82476C7.20551 12.808 7.51528 12.5357 7.51528 12.2011C7.51528 11.8665 7.20551 11.5943 6.82476 11.5943H5.4909V8.23534C7.49705 7.81605 9 6.15201 9 4.16867ZM4.5 6.51509C3.10114 6.51509 1.96712 5.46455 1.96712 4.16867C1.96712 2.8728 3.10114 1.82226 4.5 1.82226C5.89886 1.82226 7.03289 2.8728 7.03289 4.16867C7.03289 5.46455 5.89886 6.51509 4.5 6.51509Z" fill="#9468B4"/>
</svg>
