<svg width="25" height="22" viewBox="0 0 25 22" fill="none" xmlns="http://www.w3.org/2000/svg">
<path fill-rule="evenodd" clip-rule="evenodd" d="M1.5625 12.5715H20.1016L14.425 19.423C13.8719 20.0893 13.9625 21.0809 14.625 21.6356C15.2891 22.1919 16.2734 22.1007 16.8266 21.4344L24.6391 12.0058C24.7 11.9319 24.7297 11.8455 24.775 11.7638C24.8125 11.6978 24.8578 11.6412 24.8859 11.5689C24.9562 11.3882 24.9984 11.1981 24.9984 11.0064C24.9984 11.0048 25 11.0016 25 11.0001C25 10.9985 24.9984 10.9954 24.9984 10.9938C24.9984 10.8021 24.9562 10.6119 24.8859 10.4312C24.8578 10.3589 24.8125 10.3024 24.775 10.2364C24.7297 10.1546 24.7 10.0682 24.6391 9.99435L16.8266 0.565718C16.5156 0.193287 16.0719 0 15.625 0C15.2719 0 14.9172 0.119429 14.625 0.364574C13.9625 0.919292 13.8719 1.91087 14.425 2.57716L20.1016 9.42863H1.5625C0.7 9.42863 0 10.1326 0 11.0001C0 11.8675 0.7 12.5715 1.5625 12.5715Z" fill="#9468B4"/>
</svg>
