<svg width="34" height="20" viewBox="0 0 34 20" fill="none" xmlns="http://www.w3.org/2000/svg">
<path d="M29.2606 12.7162C30.3889 13.8623 31.5789 14.9383 32.5904 16.1983C33.0366 16.7583 33.4616 17.3363 33.7846 17.9863C34.2436 18.9104 33.8271 19.9264 33.0302 19.9824L28.0792 19.9784C26.8 20.0904 25.7821 19.5544 24.9236 18.6464C24.2394 17.9203 23.6041 17.1463 22.9432 16.3983C22.6845 16.0888 22.3846 15.8118 22.0507 15.5743C21.3771 15.1183 20.7907 15.2563 20.4039 15.9903C20.0087 16.7363 19.9194 17.5623 19.8812 18.3924C19.8281 19.6044 19.4775 19.9244 18.3045 19.9784C15.8013 20.1024 13.4257 19.7084 11.2179 18.3944C9.27146 17.2383 7.76276 15.6043 6.44744 13.7543C3.89115 10.1522 1.9341 6.19412 0.172538 2.12404C-0.224822 1.20802 0.0641671 0.716013 1.03951 0.700013C2.65496 0.667678 4.27095 0.666345 5.88646 0.696013C6.54306 0.706014 6.97654 1.09602 7.23153 1.74203C8.10488 3.97608 9.17371 6.10212 10.5167 8.07415C10.8758 8.59816 11.2391 9.12217 11.7597 9.49218C12.3335 9.90019 12.7712 9.76419 13.0411 9.10017C13.2111 8.67817 13.2876 8.22416 13.3258 7.77215C13.4533 6.21812 13.4703 4.66609 13.2472 3.11806C13.1091 2.15204 12.5842 1.52603 11.6577 1.34403C11.1839 1.25002 11.254 1.06602 11.4835 0.786015C11.883 0.302006 12.257 0 13.0049 0H18.602C19.4838 0.180003 19.6793 0.592011 19.8005 1.51403L19.8047 7.97815C19.7941 8.33416 19.9747 9.39418 20.5952 9.63018C21.0882 9.79819 21.4154 9.38618 21.7129 9.06017C23.0516 7.58014 24.0078 5.83411 24.8641 4.02408C25.2424 3.22806 25.5696 2.40405 25.8841 1.57603C26.1179 0.964019 26.4855 0.662012 27.1506 0.676013L32.5372 0.682013C32.6966 0.682013 32.8581 0.682013 33.0132 0.710014C33.9227 0.870017 34.1713 1.27802 33.8908 2.20004C33.4488 3.64607 32.5882 4.85009 31.7489 6.06012C30.8501 7.35214 29.8896 8.60016 28.9971 9.90019C28.179 11.0882 28.2449 11.6862 29.2606 12.7162Z" fill="#50AF00"/>
</svg>
