<svg width="617" height="545" viewBox="0 0 617 545" fill="none" xmlns="http://www.w3.org/2000/svg">
<g opacity="0.2">
<path d="M582.9 537.809H37.3196C37.3196 537.809 19.9961 508.618 7.98256 449.944C-4.03095 391.27 53.2202 412.686 67.8594 362.109C82.4986 311.532 18.6319 322.196 23.9566 252.99C29.2812 183.784 117.102 182.464 159.684 191.778C202.267 201.093 196.942 169.16 246.228 115.928C295.515 62.6955 369.987 68.0202 407.245 109.283C444.503 150.545 432.518 193.113 479.12 193.113C525.722 193.113 568.32 202.472 596.19 291.627C624.06 380.782 573.057 421.531 573.982 461.782C574.745 487.335 577.729 512.773 582.9 537.809Z" fill="#9468B4"/>
<path opacity="0.7" d="M582.9 537.809H37.3196C37.3196 537.809 19.9961 508.618 7.98256 449.944C-4.03095 391.27 53.2202 412.686 67.8594 362.109C82.4986 311.532 18.6319 322.196 23.9566 252.99C29.2812 183.784 117.102 182.464 159.684 191.778C202.267 201.093 196.942 169.16 246.228 115.928C295.515 62.6955 369.987 68.0202 407.245 109.283C444.503 150.545 432.518 193.113 479.12 193.113C525.722 193.113 568.32 202.472 596.19 291.627C624.06 380.782 573.057 421.531 573.982 461.782C574.745 487.335 577.729 512.773 582.9 537.809Z" fill="white"/>
</g>
<path d="M257.95 537.808C244.587 517.463 187.541 431.917 170.848 429.628C154.581 427.399 96.7724 513.899 81.1357 537.808H257.95Z" fill="#2E353A" stroke="#A7A7A7" stroke-linecap="round" stroke-linejoin="round"/>
<path d="M331.102 37.9502V235.227" stroke="#A7A7A7" stroke-width="3" stroke-linecap="round" stroke-linejoin="round"/>
<path d="M354.543 43.2451V235.227" stroke="#A7A7A7" stroke-width="3" stroke-linecap="round" stroke-linejoin="round"/>
<path d="M380.241 148.301V334.253" stroke="#A7A7A7" stroke-width="3" stroke-linecap="round" stroke-linejoin="round"/>
<path d="M407.451 43.2451V334.254" stroke="#A7A7A7" stroke-width="3" stroke-linecap="round" stroke-linejoin="round"/>
<path d="M434.661 43.2451V240.522" stroke="#A7A7A7" stroke-width="3" stroke-linecap="round" stroke-linejoin="round"/>
<path d="M310.698 64.3975H435.425" stroke="#A7A7A7" stroke-width="3" stroke-linecap="round" stroke-linejoin="round"/>
<path d="M310.698 108.241H445.957" stroke="#A7A7A7" stroke-width="3" stroke-linecap="round" stroke-linejoin="round"/>
<path d="M308.438 148.301H458.849" stroke="#A7A7A7" stroke-width="3" stroke-linecap="round" stroke-linejoin="round"/>
<path d="M306.166 192.908H458.851" stroke="#A7A7A7" stroke-width="3" stroke-linecap="round" stroke-linejoin="round"/>
<path d="M334.887 241.271H450.533" stroke="#A7A7A7" stroke-width="3" stroke-linecap="round" stroke-linejoin="round"/>
<path d="M365.117 288.136H440.704" stroke="#A7A7A7" stroke-width="3" stroke-linecap="round" stroke-linejoin="round"/>
<path d="M166.125 56.6816L192.807 77.5696" stroke="#A7A7A7" stroke-width="2" stroke-linecap="round" stroke-linejoin="round"/>
<path d="M219.489 34.6494L228.774 48.5698" stroke="#A7A7A7" stroke-width="2" stroke-linecap="round" stroke-linejoin="round"/>
<path d="M267.06 1L275.186 26.5232" stroke="#A7A7A7" stroke-width="2" stroke-linecap="round" stroke-linejoin="round"/>
<path d="M419.289 328.988H375.283V224.357H315.583V39.0498C290.422 39.2982 265.748 46.0148 243.933 58.554C222.117 71.0931 203.895 89.0331 191.016 110.65C178.137 132.266 171.035 156.832 170.393 181.986C169.752 207.14 175.591 232.036 187.35 254.281C192.132 265.414 203.368 292.683 214.619 327.946C225.019 360.496 230.447 393.221 230.447 398.164C230.447 398.648 230.447 399.147 230.447 399.631C230.395 401.103 230.641 402.569 231.168 403.944C231.696 405.318 232.495 406.573 233.517 407.632C234.54 408.691 235.765 409.534 237.12 410.11C238.475 410.686 239.932 410.983 241.404 410.985H392.856C394.328 410.981 395.784 410.683 397.138 410.106C398.492 409.529 399.716 408.686 400.739 407.628C401.761 406.569 402.559 405.315 403.088 403.941C403.616 402.568 403.863 401.102 403.814 399.631C403.814 399.103 403.814 398.604 403.814 398.164C403.784 393.28 409.109 361.185 419.289 328.988Z" fill="#9468B4" stroke="#A7A7A7" stroke-width="2" stroke-linecap="round" stroke-linejoin="round"/>
<path d="M265.871 62.6963C270.116 60.7825 274.47 59.122 278.911 57.7236" stroke="#A7A7A7" stroke-width="2" stroke-linecap="round" stroke-linejoin="round"/>
<path d="M217.025 99.8659C217.025 99.8659 228.98 80.7969 255.252 67.9619" stroke="#A7A7A7" stroke-width="2" stroke-linecap="round" stroke-linejoin="round"/>
<path d="M220.164 310.975C225.606 328.753 232.808 353.381 235.302 367.14C239.527 390.346 236.769 402.345 245.863 404.413" stroke="#A7A7A7" stroke-width="2" stroke-linecap="round" stroke-linejoin="round"/>
<path d="M213.504 289.765C213.504 289.765 214.971 294.532 217.332 301.837" stroke="#A7A7A7" stroke-width="2" stroke-linecap="round" stroke-linejoin="round"/>
<path d="M307.836 409.561V269.33C307.836 269.33 313.704 232.659 294.635 232.659C275.566 232.659 277.033 251.728 299.035 272.264C321.038 292.8 354.776 273.731 359.176 257.596C363.577 241.46 351.842 234.126 344.508 247.328C337.173 260.529 344.508 410.148 344.508 410.148" stroke="#A7A7A7" stroke-width="2" stroke-linecap="round" stroke-linejoin="round"/>
<path d="M396.684 410.134H238.396V446.864H396.684V410.134Z" fill="white" stroke="#A7A7A7" stroke-width="2" stroke-linecap="round" stroke-linejoin="round"/>
<path d="M396.684 455.606H238.396V492.336H396.684V455.606Z" fill="white" stroke="#A7A7A7" stroke-width="2" stroke-linecap="round" stroke-linejoin="round"/>
<path d="M396.684 446.864H238.396V455.607H396.684V446.864Z" fill="#2E353A" stroke="#A7A7A7" stroke-linecap="round" stroke-linejoin="round"/>
<path d="M396.684 501.079H238.396V537.809H396.684V501.079Z" fill="white" stroke="#A7A7A7" stroke-width="2" stroke-linecap="round" stroke-linejoin="round"/>
<path d="M380.124 441.95H391.888" stroke="#A7A7A7" stroke-linecap="round" stroke-linejoin="round"/>
<path d="M244.616 441.95H374.462" stroke="#A7A7A7" stroke-linecap="round" stroke-linejoin="round"/>
<path d="M349.613 488.142H387.531" stroke="#A7A7A7" stroke-linecap="round" stroke-linejoin="round"/>
<path d="M268.114 488.142H345.256" stroke="#A7A7A7" stroke-linecap="round" stroke-linejoin="round"/>
<path d="M255.486 488.142H262.014" stroke="#A7A7A7" stroke-linecap="round" stroke-linejoin="round"/>
<path d="M396.684 492.336H238.396V501.078H396.684V492.336Z" fill="#2E353A" stroke="#A7A7A7" stroke-linecap="round" stroke-linejoin="round"/>
<path d="M313.191 509.132H259.006V537.339H313.191V509.132Z" fill="#9468B4" stroke="#A7A7A7" stroke-linecap="round" stroke-linejoin="round"/>
<path d="M383.704 509.132H329.519V537.339H383.704V509.132Z" fill="#9468B4" stroke="#A7A7A7" stroke-linecap="round" stroke-linejoin="round"/>
<path d="M432.445 537.808C422.059 528.699 377.717 490.4 364.808 489.402C352.164 488.39 307.278 527.13 295.133 537.808H432.445Z" fill="#2E353A" stroke="#2E353A" stroke-linecap="round" stroke-linejoin="round"/>
<path d="M603.642 537.809H616.374" stroke="#2E353A" stroke-linecap="round" stroke-linejoin="round"/>
<path d="M20.8027 537.809H590.909" stroke="#2E353A" stroke-linecap="round" stroke-linejoin="round"/>
<path d="M1 537.809H10.9012" stroke="#2E353A" stroke-linecap="round" stroke-linejoin="round"/>
<path d="M578.014 454.096H539.949V507.489H555.718H578.014H593.797V480.792L578.014 454.096Z" fill="#A7A7A7" stroke="#A7A7A7" stroke-linecap="round" stroke-linejoin="round"/>
<path d="M593.798 507.489H576.357V519.62H593.798V507.489Z" fill="white" stroke="#A7A7A7" stroke-linecap="round" stroke-linejoin="round"/>
<path d="M511.654 506.888C511.654 506.888 530.723 496.62 524.122 445.28L499.919 432.078L458.114 425.478L420.709 426.944V448.214C420.709 448.214 441.978 466.549 444.179 472.417C445.559 476.432 446.301 480.64 446.379 484.885V505.421L511.654 506.888Z" fill="#9468B4" stroke="#A7A7A7" stroke-linecap="round" stroke-linejoin="round"/>
<path d="M524.122 445.28L511.653 506.888" stroke="#A7A7A7" stroke-linecap="round" stroke-linejoin="round"/>
<path d="M499.919 432.078L485.984 506.888" stroke="#A7A7A7" stroke-linecap="round" stroke-linejoin="round"/>
<path d="M458.114 425.478L447.846 481.218" stroke="#A7A7A7" stroke-linecap="round" stroke-linejoin="round"/>
<path d="M422.176 445.28C422.176 445.28 446.379 455.548 455.913 462.149C465.448 468.75 463.981 482.685 463.981 482.685" stroke="#A7A7A7" stroke-linecap="round" stroke-linejoin="round"/>
<path d="M540.286 507.87H426.562V517.405H540.286V507.87Z" fill="white" stroke="#A7A7A7" stroke-linecap="round" stroke-linejoin="round"/>
<path d="M562.994 483.418H586.742L573.996 461.415H562.994V483.418Z" fill="white" stroke="#A7A7A7" stroke-linecap="round" stroke-linejoin="round"/>
<path d="M559.327 461.415H549.06V483.418H559.327V461.415Z" fill="white" stroke="#A7A7A7" stroke-linecap="round" stroke-linejoin="round"/>
<path d="M496.398 507.489H427.163V524.021H496.398V507.489Z" fill="white" stroke="#A7A7A7" stroke-linecap="round" stroke-linejoin="round"/>
<path d="M561.986 537.541C569.903 536.111 575.161 528.534 573.731 520.618C572.301 512.702 564.724 507.443 556.807 508.873C548.891 510.304 543.633 517.88 545.063 525.797C546.493 533.713 554.07 538.971 561.986 537.541Z" fill="#A7A7A7" stroke="#A7A7A7" stroke-linecap="round" stroke-linejoin="round"/>
<path d="M559.37 531.751C564.061 531.751 567.863 527.948 567.863 523.258C567.863 518.567 564.061 514.765 559.37 514.765C554.679 514.765 550.877 518.567 550.877 523.258C550.877 527.948 554.679 531.751 559.37 531.751Z" fill="white" stroke="#A7A7A7" stroke-linecap="round" stroke-linejoin="round"/>
<path d="M449.725 537.572C457.646 536.17 462.931 528.611 461.529 520.69C460.126 512.769 452.568 507.484 444.646 508.886C436.725 510.289 431.441 517.847 432.843 525.769C434.245 533.69 441.804 538.974 449.725 537.572Z" fill="#A7A7A7" stroke="#A7A7A7" stroke-linecap="round" stroke-linejoin="round"/>
<path d="M447.156 531.751C451.847 531.751 455.649 527.948 455.649 523.258C455.649 518.567 451.847 514.765 447.156 514.765C442.466 514.765 438.663 518.567 438.663 523.258C438.663 527.948 442.466 531.751 447.156 531.751Z" fill="white" stroke="#A7A7A7" stroke-linecap="round" stroke-linejoin="round"/>
<path d="M492.176 533.924C498.102 528.483 498.494 519.269 493.053 513.344C487.612 507.418 478.398 507.026 472.473 512.467C466.548 517.908 466.155 527.122 471.596 533.047C477.037 538.972 486.251 539.365 492.176 533.924Z" fill="#A7A7A7" stroke="#A7A7A7" stroke-linecap="round" stroke-linejoin="round"/>
<path d="M482.316 531.751C487.007 531.751 490.809 527.948 490.809 523.258C490.809 518.567 487.007 514.765 482.316 514.765C477.626 514.765 473.823 518.567 473.823 523.258C473.823 527.948 477.626 531.751 482.316 531.751Z" fill="white" stroke="#A7A7A7" stroke-linecap="round" stroke-linejoin="round"/>
<path d="M477.55 481.951H440.879C438.246 481.951 436.111 484.086 436.111 486.718V502.12C436.111 504.753 438.246 506.888 440.879 506.888H477.55C480.183 506.888 482.317 504.753 482.317 502.12V486.718C482.317 484.086 480.183 481.951 477.55 481.951Z" fill="#A7A7A7" stroke="#A7A7A7" stroke-linecap="round" stroke-linejoin="round"/>
<path d="M417.774 506.887V434.352H432.443V506.887" stroke="#A7A7A7" stroke-linecap="round" stroke-linejoin="round"/>
<path d="M417.878 443.96H432.282" stroke="#A7A7A7" stroke-linecap="round" stroke-linejoin="round"/>
<path d="M417.878 455.284H432.282" stroke="#A7A7A7" stroke-linecap="round" stroke-linejoin="round"/>
<path d="M417.878 466.608H432.282" stroke="#A7A7A7" stroke-linecap="round" stroke-linejoin="round"/>
<path d="M417.878 477.946H432.282" stroke="#A7A7A7" stroke-linecap="round" stroke-linejoin="round"/>
<path d="M417.878 489.271H432.282" stroke="#A7A7A7" stroke-linecap="round" stroke-linejoin="round"/>
<path d="M417.878 500.595H432.282" stroke="#A7A7A7" stroke-linecap="round" stroke-linejoin="round"/>
<path d="M124.391 539.232H97.9873V78.6406L124.391 109.342V539.232Z" stroke="#A7A7A7" stroke-linecap="round" stroke-linejoin="round"/>
<path d="M98.251 442.42H124.141L98.251 417.381H124.141L98.251 442.42Z" stroke="#A7A7A7" stroke-linecap="round" stroke-linejoin="round"/>
<path d="M98.251 416.749H124.141L98.251 391.71H124.141L98.251 416.749Z" stroke="#A7A7A7" stroke-linecap="round" stroke-linejoin="round"/>
<path d="M98.251 391.079H124.141L98.251 366.04H124.141L98.251 391.079Z" stroke="#A7A7A7" stroke-linecap="round" stroke-linejoin="round"/>
<path d="M98.251 365.41H124.141L98.251 340.371H124.141L98.251 365.41Z" stroke="#A7A7A7" stroke-linecap="round" stroke-linejoin="round"/>
<path d="M98.251 339.74H124.141L98.251 314.701H124.141L98.251 339.74Z" stroke="#A7A7A7" stroke-linecap="round" stroke-linejoin="round"/>
<path d="M98.251 314.07H124.141L98.251 289.031H124.141L98.251 314.07Z" stroke="#A7A7A7" stroke-linecap="round" stroke-linejoin="round"/>
<path d="M98.251 288.401H124.141L98.251 263.361H124.141L98.251 288.401Z" stroke="#A7A7A7" stroke-linecap="round" stroke-linejoin="round"/>
<path d="M98.251 262.731H124.141L98.251 237.691H124.141L98.251 262.731Z" stroke="#A7A7A7" stroke-linecap="round" stroke-linejoin="round"/>
<path d="M98.251 237.061H124.141L98.251 212.021H124.141L98.251 237.061Z" stroke="#A7A7A7" stroke-linecap="round" stroke-linejoin="round"/>
<path d="M98.251 211.391H124.141L98.251 186.352H124.141L98.251 211.391Z" stroke="#A7A7A7" stroke-linecap="round" stroke-linejoin="round"/>
<path d="M98.251 185.721H124.141L98.251 160.682H124.141L98.251 185.721Z" stroke="#A7A7A7" stroke-linecap="round" stroke-linejoin="round"/>
<path d="M98.251 160.051H124.141L98.251 135.012H124.141L98.251 160.051Z" stroke="#A7A7A7" stroke-linecap="round" stroke-linejoin="round"/>
<path d="M98.251 134.381H124.141L98.251 109.342H124.141L98.251 134.381Z" stroke="#A7A7A7" stroke-linecap="round" stroke-linejoin="round"/>
<path d="M246.976 135.071L234.185 127.018H142.903L131.755 135.071H246.976Z" stroke="#A7A7A7" stroke-linecap="round" stroke-linejoin="round"/>
<path d="M249.087 134.381H26.126V140.248H249.087V134.381Z" fill="#A7A7A7" stroke="#A7A7A7" stroke-linecap="round" stroke-linejoin="round"/>
<path d="M234.184 127.017L97.9873 78.6406L142.902 127.017" stroke="#A7A7A7" stroke-linecap="round" stroke-linejoin="round"/>
<path d="M98.0027 78.6406L26.127 134.381" stroke="#A7A7A7" stroke-linecap="round" stroke-linejoin="round"/>
<path d="M143.474 146.85H88.4668V182.054H143.474V146.85Z" fill="#A7A7A7" stroke="#A7A7A7" stroke-linecap="round" stroke-linejoin="round"/>
<path d="M132.003 154.184H99.9229V164.452H132.003V154.184Z" fill="white" stroke="#A7A7A7" stroke-linecap="round" stroke-linejoin="round"/>
<path d="M249.087 140.248V203.499" stroke="#A7A7A7" stroke-linecap="round" stroke-linejoin="round"/>
<path d="M257.449 225.105H241.152V243.573H257.449V225.105Z" fill="#A7A7A7" stroke="#A7A7A7" stroke-linecap="round" stroke-linejoin="round"/>
<path d="M241.152 225.105L249.308 202.296L257.464 225.105" stroke="#A7A7A7" stroke-linecap="round" stroke-linejoin="round"/>
<path d="M205.127 447.964L240.331 503.617L249.132 497.177L223.227 445.368C222.063 443.039 220.273 441.081 218.058 439.713C215.842 438.345 213.29 437.621 210.686 437.623C209.491 437.645 208.323 437.985 207.302 438.608C206.282 439.231 205.446 440.114 204.88 441.167C204.314 442.22 204.038 443.404 204.082 444.599C204.125 445.794 204.486 446.955 205.127 447.964Z" fill="#9468B4" stroke="#A7A7A7" stroke-linecap="round" stroke-linejoin="round"/>
<path d="M246.036 489.931L209.819 515.689C209.819 515.689 213.046 529.36 233.964 528.553C254.881 527.746 254.089 506.022 254.089 506.022L246.036 489.931Z" fill="#A7A7A7" stroke="white" stroke-linecap="round" stroke-linejoin="round"/>
<path d="M145.439 473.033L211.037 443.476C213.2 442.503 215.632 442.299 217.927 442.9C220.222 443.5 222.242 444.868 223.652 446.776C224.475 447.891 225.067 449.159 225.393 450.506C225.718 451.853 225.77 453.251 225.546 454.619C225.321 455.986 224.825 457.295 224.087 458.467C223.349 459.639 222.383 460.652 221.246 461.445L149.473 511.685L145.439 473.033Z" fill="#9468B4" stroke="#A7A7A7" stroke-linecap="round" stroke-linejoin="round"/>
<path d="M135.788 509.249H68.1807V519.708H135.788V509.249Z" fill="white" stroke="#A7A7A7" stroke-linecap="round" stroke-linejoin="round"/>
<path d="M102.784 479.473H44.0361V503.617H102.784V479.473Z" fill="#A7A7A7" stroke="#A7A7A7" stroke-linecap="round" stroke-linejoin="round"/>
<path d="M95.1418 452.101H145.015C146.182 452.101 147.301 452.564 148.126 453.39C148.952 454.215 149.415 455.334 149.415 456.501V503.587H90.7266V456.501C90.7266 455.922 90.8409 455.349 91.0629 454.814C91.285 454.279 91.6104 453.793 92.0206 453.384C92.4308 452.975 92.9177 452.652 93.4532 452.431C93.9888 452.211 94.5627 452.099 95.1418 452.101Z" fill="#9468B4" stroke="#A7A7A7" stroke-linecap="round" stroke-linejoin="round"/>
<path d="M43.4356 537.809H139.617C142.655 537.809 145.569 536.602 147.718 534.453C149.866 532.305 151.073 529.391 151.073 526.353C151.073 523.313 149.867 520.398 147.719 518.247C145.571 516.096 142.657 514.886 139.617 514.882H43.4356C40.3959 514.886 37.482 516.096 35.334 518.247C33.186 520.398 31.9795 523.313 31.9795 526.353C31.9795 529.391 33.1865 532.305 35.3349 534.453C37.4833 536.602 40.3972 537.809 43.4356 537.809Z" fill="#A7A7A7" stroke="#A7A7A7" stroke-linecap="round" stroke-linejoin="round"/>
<path d="M57.9278 537.809H154.095C157.134 537.809 160.05 536.602 162.2 534.454C164.351 532.306 165.561 529.392 165.565 526.353C165.565 523.31 164.357 520.393 162.206 518.242C160.054 516.09 157.137 514.882 154.095 514.882H57.9278C54.8856 514.882 51.9679 516.09 49.8167 518.242C47.6655 520.393 46.457 523.31 46.457 526.353C46.4609 529.392 47.6712 532.306 49.8219 534.454C51.9727 536.602 54.8881 537.809 57.9278 537.809Z" fill="white" stroke="#A7A7A7" stroke-linecap="round" stroke-linejoin="round"/>
<path d="M149.459 503.616H44.0361V511.669H149.459V503.616Z" fill="white" stroke="#A7A7A7" stroke-linecap="round" stroke-linejoin="round"/>
<path d="M65.7747 526.353C65.7747 527.786 65.3497 529.187 64.5535 530.378C63.7573 531.57 62.6256 532.499 61.3015 533.047C59.9774 533.596 58.5204 533.739 57.1148 533.46C55.7092 533.18 54.418 532.49 53.4046 531.477C52.3912 530.463 51.7011 529.172 51.4215 527.766C51.1419 526.361 51.2854 524.904 51.8338 523.58C52.3823 522.256 53.311 521.124 54.5027 520.328C55.6943 519.531 57.0953 519.106 58.5285 519.106C60.4503 519.106 62.2934 519.87 63.6523 521.229C65.0113 522.588 65.7747 524.431 65.7747 526.353Z" fill="#A7A7A7" stroke="#A7A7A7" stroke-linecap="round" stroke-linejoin="round"/>
<path d="M77.8468 533.599C81.8488 533.599 85.0931 530.355 85.0931 526.353C85.0931 522.351 81.8488 519.106 77.8468 519.106C73.8448 519.106 70.6006 522.351 70.6006 526.353C70.6006 530.355 73.8448 533.599 77.8468 533.599Z" fill="#A7A7A7" stroke="#A7A7A7" stroke-linecap="round" stroke-linejoin="round"/>
<path d="M97.1515 533.599C101.153 533.599 104.398 530.355 104.398 526.353C104.398 522.351 101.153 519.106 97.1515 519.106C93.1495 519.106 89.9053 522.351 89.9053 526.353C89.9053 530.355 93.1495 533.599 97.1515 533.599Z" fill="#A7A7A7" stroke="#A7A7A7" stroke-linecap="round" stroke-linejoin="round"/>
<path d="M123.716 526.353C123.716 527.786 123.291 529.187 122.495 530.378C121.699 531.57 120.567 532.499 119.243 533.047C117.919 533.596 116.462 533.739 115.056 533.46C113.651 533.18 112.359 532.49 111.346 531.477C110.333 530.463 109.642 529.172 109.363 527.766C109.083 526.361 109.227 524.904 109.775 523.58C110.324 522.256 111.252 521.124 112.444 520.328C113.636 519.531 115.037 519.106 116.47 519.106C118.392 519.106 120.235 519.87 121.594 521.229C122.953 522.588 123.716 524.431 123.716 526.353Z" fill="#A7A7A7" stroke="#A7A7A7" stroke-linecap="round" stroke-linejoin="round"/>
<path d="M143.034 526.353C143.034 527.786 142.609 529.187 141.812 530.378C141.016 531.57 139.884 532.499 138.56 533.047C137.236 533.596 135.779 533.739 134.374 533.46C132.968 533.18 131.677 532.49 130.663 531.477C129.65 530.463 128.96 529.172 128.68 527.766C128.401 526.361 128.544 524.904 129.093 523.58C129.641 522.256 130.57 521.124 131.761 520.328C132.953 519.531 134.354 519.106 135.787 519.106C137.709 519.106 139.552 519.87 140.911 521.229C142.27 522.588 143.034 524.431 143.034 526.353Z" fill="#A7A7A7" stroke="#A7A7A7" stroke-linecap="round" stroke-linejoin="round"/>
<path d="M162.338 526.353C162.338 527.787 161.913 529.188 161.116 530.38C160.319 531.572 159.187 532.501 157.862 533.049C156.537 533.597 155.079 533.739 153.673 533.459C152.267 533.178 150.976 532.486 149.963 531.471C148.95 530.457 148.261 529.164 147.983 527.757C147.705 526.351 147.851 524.893 148.402 523.57C148.952 522.246 149.883 521.115 151.077 520.321C152.27 519.526 153.673 519.104 155.107 519.106C156.058 519.106 156.999 519.294 157.877 519.658C158.756 520.023 159.554 520.557 160.225 521.23C160.897 521.903 161.429 522.702 161.792 523.581C162.155 524.46 162.34 525.402 162.338 526.353Z" fill="#A7A7A7" stroke="#A7A7A7" stroke-linecap="round" stroke-linejoin="round"/>
<path d="M218.679 452.101C218.679 451.303 218.442 450.522 217.998 449.859C217.554 449.195 216.923 448.678 216.185 448.373C215.448 448.068 214.636 447.989 213.853 448.146C213.07 448.303 212.351 448.688 211.788 449.254C211.224 449.82 210.841 450.54 210.687 451.323C210.533 452.107 210.615 452.918 210.923 453.655C211.23 454.392 211.749 455.021 212.415 455.462C213.08 455.904 213.861 456.138 214.66 456.135C215.189 456.135 215.713 456.031 216.201 455.828C216.69 455.625 217.134 455.327 217.507 454.953C217.88 454.578 218.176 454.133 218.377 453.644C218.578 453.154 218.681 452.63 218.679 452.101Z" fill="#A7A7A7" stroke="#A7A7A7" stroke-linecap="round" stroke-linejoin="round"/>
<path d="M140.614 458.54H97.958V484.298H140.614V458.54Z" fill="white" stroke="#A7A7A7" stroke-linecap="round" stroke-linejoin="round"/>
<path d="M140.613 458.54H117.275V484.298H140.613V458.54Z" fill="white" stroke="#A7A7A7" stroke-linecap="round" stroke-linejoin="round"/>
</svg>
