<svg width="655" height="591" viewBox="0 0 655 591" fill="none" xmlns="http://www.w3.org/2000/svg">
<circle cx="520.5" cy="155.5" r="134.5" fill="#9468B4" fill-opacity="0.15"/>
<circle r="70.5" transform="matrix(-1 0 0 1 70.5 520.5)" fill="#9468B4" fill-opacity="0.15"/>
<circle r="34" transform="matrix(-1 0 0 1 389 34)" fill="#9468B4" fill-opacity="0.15"/>
<g opacity="0.2">
<path d="M610.9 570.809H65.3196C65.3196 570.809 47.9961 541.618 35.9826 482.944C23.9691 424.27 81.2202 445.686 95.8594 395.109C110.499 344.532 46.6319 355.196 51.9566 285.99C57.2812 216.784 145.102 215.464 187.684 224.778C230.267 234.093 224.942 202.16 274.228 148.928C323.515 95.6955 397.987 101.02 435.245 142.283C472.503 183.545 460.518 226.113 507.12 226.113C553.722 226.113 596.32 235.472 624.19 324.627C652.06 413.782 601.057 454.531 601.982 494.782C602.745 520.335 605.729 545.773 610.9 570.809Z" fill="#9468B4"/>
<path opacity="0.7" d="M610.9 570.809H65.3196C65.3196 570.809 47.9961 541.618 35.9826 482.944C23.9691 424.27 81.2202 445.686 95.8594 395.109C110.499 344.532 46.6319 355.196 51.9566 285.99C57.2812 216.784 145.102 215.464 187.684 224.778C230.267 234.093 224.942 202.16 274.228 148.928C323.515 95.6955 397.987 101.02 435.245 142.283C472.503 183.545 460.518 226.113 507.12 226.113C553.722 226.113 596.32 235.472 624.19 324.627C652.06 413.782 601.057 454.531 601.982 494.782C602.745 520.335 605.729 545.773 610.9 570.809Z" fill="white"/>
</g>
<path d="M285.95 570.808C272.587 550.463 215.541 464.917 198.848 462.628C182.581 460.399 124.772 546.899 109.136 570.808H285.95Z" fill="#2E353A" stroke="#A7A7A7" stroke-linecap="round" stroke-linejoin="round"/>
<path d="M359.102 70.9502V268.227" stroke="#A7A7A7" stroke-width="3" stroke-linecap="round" stroke-linejoin="round"/>
<path d="M382.543 76.2451V268.227" stroke="#A7A7A7" stroke-width="3" stroke-linecap="round" stroke-linejoin="round"/>
<path d="M408.241 181.301V367.253" stroke="#A7A7A7" stroke-width="3" stroke-linecap="round" stroke-linejoin="round"/>
<path d="M435.451 76.2451V367.254" stroke="#A7A7A7" stroke-width="3" stroke-linecap="round" stroke-linejoin="round"/>
<path d="M462.661 76.2451V273.522" stroke="#A7A7A7" stroke-width="3" stroke-linecap="round" stroke-linejoin="round"/>
<path d="M338.698 97.3975H463.425" stroke="#A7A7A7" stroke-width="3" stroke-linecap="round" stroke-linejoin="round"/>
<path d="M338.698 141.241H473.957" stroke="#A7A7A7" stroke-width="3" stroke-linecap="round" stroke-linejoin="round"/>
<path d="M336.438 181.301H486.849" stroke="#A7A7A7" stroke-width="3" stroke-linecap="round" stroke-linejoin="round"/>
<path d="M334.166 225.908H486.851" stroke="#A7A7A7" stroke-width="3" stroke-linecap="round" stroke-linejoin="round"/>
<path d="M362.887 274.271H478.533" stroke="#A7A7A7" stroke-width="3" stroke-linecap="round" stroke-linejoin="round"/>
<path d="M393.117 321.136H468.704" stroke="#A7A7A7" stroke-width="3" stroke-linecap="round" stroke-linejoin="round"/>
<path d="M194.125 89.6816L220.807 110.57" stroke="#A7A7A7" stroke-width="2" stroke-linecap="round" stroke-linejoin="round"/>
<path d="M247.489 67.6494L256.774 81.5698" stroke="#A7A7A7" stroke-width="2" stroke-linecap="round" stroke-linejoin="round"/>
<path d="M295.06 34L303.186 59.5232" stroke="#A7A7A7" stroke-width="2" stroke-linecap="round" stroke-linejoin="round"/>
<path d="M447.289 361.988H403.283V257.357H343.583V72.0498C318.422 72.2982 293.748 79.0148 271.933 91.554C250.117 104.093 231.895 122.033 219.016 143.65C206.137 165.266 199.035 189.832 198.393 214.986C197.752 240.14 203.591 265.036 215.35 287.281C220.132 298.414 231.368 325.683 242.619 360.946C253.019 393.496 258.447 426.221 258.447 431.164C258.447 431.648 258.447 432.147 258.447 432.631C258.395 434.103 258.641 435.569 259.168 436.944C259.696 438.318 260.495 439.573 261.517 440.632C262.54 441.691 263.765 442.534 265.12 443.11C266.475 443.686 267.932 443.983 269.404 443.985H420.856C422.328 443.981 423.784 443.683 425.138 443.106C426.492 442.529 427.716 441.686 428.739 440.628C429.761 439.569 430.559 438.315 431.088 436.941C431.616 435.568 431.863 434.102 431.814 432.631C431.814 432.103 431.814 431.604 431.814 431.164C431.784 426.28 437.109 394.185 447.289 361.988Z" fill="#9468B4" stroke="#A7A7A7" stroke-width="2" stroke-linecap="round" stroke-linejoin="round"/>
<path d="M293.871 95.6963C298.116 93.7825 302.47 92.122 306.911 90.7236" stroke="#A7A7A7" stroke-width="2" stroke-linecap="round" stroke-linejoin="round"/>
<path d="M245.025 132.866C245.025 132.866 256.98 113.797 283.252 100.962" stroke="#A7A7A7" stroke-width="2" stroke-linecap="round" stroke-linejoin="round"/>
<path d="M248.164 343.975C253.606 361.753 260.808 386.381 263.302 400.14C267.527 423.346 264.769 435.345 273.863 437.413" stroke="#A7A7A7" stroke-width="2" stroke-linecap="round" stroke-linejoin="round"/>
<path d="M241.504 322.765C241.504 322.765 242.971 327.532 245.332 334.837" stroke="#A7A7A7" stroke-width="2" stroke-linecap="round" stroke-linejoin="round"/>
<path d="M335.836 442.561V302.33C335.836 302.33 341.704 265.659 322.635 265.659C303.566 265.659 305.033 284.728 327.035 305.264C349.038 325.8 382.776 306.731 387.176 290.596C391.577 274.46 379.842 267.126 372.508 280.328C365.173 293.529 372.508 443.148 372.508 443.148" stroke="#A7A7A7" stroke-width="2" stroke-linecap="round" stroke-linejoin="round"/>
<path d="M424.684 443.134H266.396V479.864H424.684V443.134Z" fill="white" stroke="#A7A7A7" stroke-width="2" stroke-linecap="round" stroke-linejoin="round"/>
<path d="M424.684 488.606H266.396V525.336H424.684V488.606Z" fill="white" stroke="#A7A7A7" stroke-width="2" stroke-linecap="round" stroke-linejoin="round"/>
<path d="M424.684 479.864H266.396V488.607H424.684V479.864Z" fill="#2E353A" stroke="#A7A7A7" stroke-linecap="round" stroke-linejoin="round"/>
<path d="M424.684 534.079H266.396V570.809H424.684V534.079Z" fill="white" stroke="#A7A7A7" stroke-width="2" stroke-linecap="round" stroke-linejoin="round"/>
<path d="M408.124 474.95H419.888" stroke="#A7A7A7" stroke-linecap="round" stroke-linejoin="round"/>
<path d="M272.616 474.95H402.462" stroke="#A7A7A7" stroke-linecap="round" stroke-linejoin="round"/>
<path d="M377.613 521.142H415.531" stroke="#A7A7A7" stroke-linecap="round" stroke-linejoin="round"/>
<path d="M296.114 521.142H373.256" stroke="#A7A7A7" stroke-linecap="round" stroke-linejoin="round"/>
<path d="M283.486 521.142H290.014" stroke="#A7A7A7" stroke-linecap="round" stroke-linejoin="round"/>
<path d="M424.684 525.336H266.396V534.078H424.684V525.336Z" fill="#2E353A" stroke="#A7A7A7" stroke-linecap="round" stroke-linejoin="round"/>
<path d="M341.191 542.132H287.006V570.339H341.191V542.132Z" fill="#9468B4" stroke="#A7A7A7" stroke-linecap="round" stroke-linejoin="round"/>
<path d="M411.704 542.132H357.519V570.339H411.704V542.132Z" fill="#9468B4" stroke="#A7A7A7" stroke-linecap="round" stroke-linejoin="round"/>
<path d="M460.445 570.808C450.059 561.699 405.717 523.4 392.808 522.402C380.164 521.39 335.278 560.13 323.133 570.808H460.445Z" fill="#2E353A" stroke="#2E353A" stroke-linecap="round" stroke-linejoin="round"/>
<path d="M631.642 570.809H644.374" stroke="#2E353A" stroke-linecap="round" stroke-linejoin="round"/>
<path d="M48.8027 570.809H618.909" stroke="#2E353A" stroke-linecap="round" stroke-linejoin="round"/>
<path d="M29 570.809H38.9012" stroke="#2E353A" stroke-linecap="round" stroke-linejoin="round"/>
<path d="M606.014 487.096H567.949V540.489H583.718H606.014H621.797V513.792L606.014 487.096Z" fill="#A7A7A7" stroke="#A7A7A7" stroke-linecap="round" stroke-linejoin="round"/>
<path d="M621.798 540.489H604.357V552.62H621.798V540.489Z" fill="white" stroke="#A7A7A7" stroke-linecap="round" stroke-linejoin="round"/>
<path d="M539.654 539.888C539.654 539.888 558.723 529.62 552.122 478.28L527.919 465.078L486.114 458.478L448.709 459.944V481.214C448.709 481.214 469.978 499.549 472.179 505.417C473.559 509.432 474.301 513.64 474.379 517.885V538.421L539.654 539.888Z" fill="#9468B4" stroke="#A7A7A7" stroke-linecap="round" stroke-linejoin="round"/>
<path d="M552.122 478.28L539.653 539.888" stroke="#A7A7A7" stroke-linecap="round" stroke-linejoin="round"/>
<path d="M527.919 465.078L513.984 539.888" stroke="#A7A7A7" stroke-linecap="round" stroke-linejoin="round"/>
<path d="M486.114 458.478L475.846 514.218" stroke="#A7A7A7" stroke-linecap="round" stroke-linejoin="round"/>
<path d="M450.176 478.28C450.176 478.28 474.379 488.548 483.913 495.149C493.448 501.75 491.981 515.685 491.981 515.685" stroke="#A7A7A7" stroke-linecap="round" stroke-linejoin="round"/>
<path d="M568.286 540.87H454.562V550.405H568.286V540.87Z" fill="white" stroke="#A7A7A7" stroke-linecap="round" stroke-linejoin="round"/>
<path d="M590.994 516.418H614.742L601.996 494.415H590.994V516.418Z" fill="white" stroke="#A7A7A7" stroke-linecap="round" stroke-linejoin="round"/>
<path d="M587.327 494.415H577.06V516.418H587.327V494.415Z" fill="white" stroke="#A7A7A7" stroke-linecap="round" stroke-linejoin="round"/>
<path d="M524.398 540.489H455.163V557.021H524.398V540.489Z" fill="white" stroke="#A7A7A7" stroke-linecap="round" stroke-linejoin="round"/>
<path d="M589.986 570.541C597.903 569.111 603.161 561.534 601.731 553.618C600.301 545.702 592.724 540.443 584.807 541.873C576.891 543.304 571.633 550.88 573.063 558.797C574.493 566.713 582.07 571.971 589.986 570.541Z" fill="#A7A7A7" stroke="#A7A7A7" stroke-linecap="round" stroke-linejoin="round"/>
<path d="M587.37 564.751C592.061 564.751 595.863 560.948 595.863 556.258C595.863 551.567 592.061 547.765 587.37 547.765C582.679 547.765 578.877 551.567 578.877 556.258C578.877 560.948 582.679 564.751 587.37 564.751Z" fill="white" stroke="#A7A7A7" stroke-linecap="round" stroke-linejoin="round"/>
<path d="M477.725 570.572C485.646 569.17 490.931 561.611 489.529 553.69C488.126 545.769 480.568 540.484 472.646 541.886C464.725 543.289 459.441 550.847 460.843 558.769C462.245 566.69 469.804 571.974 477.725 570.572Z" fill="#A7A7A7" stroke="#A7A7A7" stroke-linecap="round" stroke-linejoin="round"/>
<path d="M475.156 564.751C479.847 564.751 483.649 560.948 483.649 556.258C483.649 551.567 479.847 547.765 475.156 547.765C470.466 547.765 466.663 551.567 466.663 556.258C466.663 560.948 470.466 564.751 475.156 564.751Z" fill="white" stroke="#A7A7A7" stroke-linecap="round" stroke-linejoin="round"/>
<path d="M520.176 566.924C526.102 561.483 526.494 552.269 521.053 546.344C515.612 540.418 506.398 540.026 500.473 545.467C494.548 550.908 494.155 560.122 499.596 566.047C505.037 571.972 514.251 572.365 520.176 566.924Z" fill="#A7A7A7" stroke="#A7A7A7" stroke-linecap="round" stroke-linejoin="round"/>
<path d="M510.316 564.751C515.007 564.751 518.809 560.948 518.809 556.258C518.809 551.567 515.007 547.765 510.316 547.765C505.626 547.765 501.823 551.567 501.823 556.258C501.823 560.948 505.626 564.751 510.316 564.751Z" fill="white" stroke="#A7A7A7" stroke-linecap="round" stroke-linejoin="round"/>
<path d="M505.55 514.951H468.879C466.246 514.951 464.111 517.086 464.111 519.718V535.12C464.111 537.753 466.246 539.888 468.879 539.888H505.55C508.183 539.888 510.317 537.753 510.317 535.12V519.718C510.317 517.086 508.183 514.951 505.55 514.951Z" fill="#A7A7A7" stroke="#A7A7A7" stroke-linecap="round" stroke-linejoin="round"/>
<path d="M445.774 539.887V467.352H460.443V539.887" stroke="#A7A7A7" stroke-linecap="round" stroke-linejoin="round"/>
<path d="M445.878 476.96H460.282" stroke="#A7A7A7" stroke-linecap="round" stroke-linejoin="round"/>
<path d="M445.878 488.284H460.282" stroke="#A7A7A7" stroke-linecap="round" stroke-linejoin="round"/>
<path d="M445.878 499.608H460.282" stroke="#A7A7A7" stroke-linecap="round" stroke-linejoin="round"/>
<path d="M445.878 510.946H460.282" stroke="#A7A7A7" stroke-linecap="round" stroke-linejoin="round"/>
<path d="M445.878 522.271H460.282" stroke="#A7A7A7" stroke-linecap="round" stroke-linejoin="round"/>
<path d="M445.878 533.595H460.282" stroke="#A7A7A7" stroke-linecap="round" stroke-linejoin="round"/>
<path d="M152.391 572.232H125.987V111.641L152.391 142.342V572.232Z" stroke="#A7A7A7" stroke-linecap="round" stroke-linejoin="round"/>
<path d="M126.251 475.42H152.141L126.251 450.381H152.141L126.251 475.42Z" stroke="#A7A7A7" stroke-linecap="round" stroke-linejoin="round"/>
<path d="M126.251 449.749H152.141L126.251 424.71H152.141L126.251 449.749Z" stroke="#A7A7A7" stroke-linecap="round" stroke-linejoin="round"/>
<path d="M126.251 424.079H152.141L126.251 399.04H152.141L126.251 424.079Z" stroke="#A7A7A7" stroke-linecap="round" stroke-linejoin="round"/>
<path d="M126.251 398.41H152.141L126.251 373.371H152.141L126.251 398.41Z" stroke="#A7A7A7" stroke-linecap="round" stroke-linejoin="round"/>
<path d="M126.251 372.74H152.141L126.251 347.701H152.141L126.251 372.74Z" stroke="#A7A7A7" stroke-linecap="round" stroke-linejoin="round"/>
<path d="M126.251 347.07H152.141L126.251 322.031H152.141L126.251 347.07Z" stroke="#A7A7A7" stroke-linecap="round" stroke-linejoin="round"/>
<path d="M126.251 321.401H152.141L126.251 296.361H152.141L126.251 321.401Z" stroke="#A7A7A7" stroke-linecap="round" stroke-linejoin="round"/>
<path d="M126.251 295.731H152.141L126.251 270.691H152.141L126.251 295.731Z" stroke="#A7A7A7" stroke-linecap="round" stroke-linejoin="round"/>
<path d="M126.251 270.061H152.141L126.251 245.021H152.141L126.251 270.061Z" stroke="#A7A7A7" stroke-linecap="round" stroke-linejoin="round"/>
<path d="M126.251 244.391H152.141L126.251 219.352H152.141L126.251 244.391Z" stroke="#A7A7A7" stroke-linecap="round" stroke-linejoin="round"/>
<path d="M126.251 218.721H152.141L126.251 193.682H152.141L126.251 218.721Z" stroke="#A7A7A7" stroke-linecap="round" stroke-linejoin="round"/>
<path d="M126.251 193.051H152.141L126.251 168.012H152.141L126.251 193.051Z" stroke="#A7A7A7" stroke-linecap="round" stroke-linejoin="round"/>
<path d="M126.251 167.381H152.141L126.251 142.342H152.141L126.251 167.381Z" stroke="#A7A7A7" stroke-linecap="round" stroke-linejoin="round"/>
<path d="M274.976 168.071L262.185 160.018H170.903L159.755 168.071H274.976Z" stroke="#A7A7A7" stroke-linecap="round" stroke-linejoin="round"/>
<path d="M277.087 167.381H54.126V173.248H277.087V167.381Z" fill="#A7A7A7" stroke="#A7A7A7" stroke-linecap="round" stroke-linejoin="round"/>
<path d="M262.184 160.017L125.987 111.641L170.902 160.017" stroke="#A7A7A7" stroke-linecap="round" stroke-linejoin="round"/>
<path d="M126.003 111.641L54.127 167.381" stroke="#A7A7A7" stroke-linecap="round" stroke-linejoin="round"/>
<path d="M171.474 179.85H116.467V215.054H171.474V179.85Z" fill="#A7A7A7" stroke="#A7A7A7" stroke-linecap="round" stroke-linejoin="round"/>
<path d="M160.003 187.184H127.923V197.452H160.003V187.184Z" fill="white" stroke="#A7A7A7" stroke-linecap="round" stroke-linejoin="round"/>
<path d="M277.087 173.248V236.499" stroke="#A7A7A7" stroke-linecap="round" stroke-linejoin="round"/>
<path d="M285.449 258.105H269.152V276.573H285.449V258.105Z" fill="#A7A7A7" stroke="#A7A7A7" stroke-linecap="round" stroke-linejoin="round"/>
<path d="M269.152 258.105L277.308 235.296L285.464 258.105" stroke="#A7A7A7" stroke-linecap="round" stroke-linejoin="round"/>
<path d="M233.127 480.964L268.331 536.617L277.132 530.177L251.227 478.368C250.063 476.039 248.273 474.081 246.058 472.713C243.842 471.345 241.29 470.621 238.686 470.623C237.491 470.645 236.323 470.985 235.302 471.608C234.282 472.231 233.446 473.114 232.88 474.167C232.314 475.22 232.038 476.404 232.082 477.599C232.125 478.794 232.486 479.955 233.127 480.964Z" fill="#9468B4" stroke="#A7A7A7" stroke-linecap="round" stroke-linejoin="round"/>
<path d="M274.036 522.931L237.819 548.689C237.819 548.689 241.046 562.36 261.964 561.553C282.881 560.746 282.089 539.022 282.089 539.022L274.036 522.931Z" fill="#A7A7A7" stroke="white" stroke-linecap="round" stroke-linejoin="round"/>
<path d="M173.439 506.033L239.037 476.476C241.2 475.503 243.632 475.299 245.927 475.9C248.222 476.5 250.242 477.868 251.652 479.776C252.475 480.891 253.067 482.159 253.393 483.506C253.718 484.853 253.77 486.251 253.546 487.619C253.321 488.986 252.825 490.295 252.087 491.467C251.349 492.639 250.383 493.652 249.246 494.445L177.473 544.685L173.439 506.033Z" fill="#9468B4" stroke="#A7A7A7" stroke-linecap="round" stroke-linejoin="round"/>
<path d="M163.788 542.249H96.1807V552.708H163.788V542.249Z" fill="white" stroke="#A7A7A7" stroke-linecap="round" stroke-linejoin="round"/>
<path d="M130.784 512.473H72.0361V536.617H130.784V512.473Z" fill="#A7A7A7" stroke="#A7A7A7" stroke-linecap="round" stroke-linejoin="round"/>
<path d="M123.142 485.101H173.015C174.182 485.101 175.301 485.564 176.126 486.39C176.952 487.215 177.415 488.334 177.415 489.501V536.587H118.727V489.501C118.727 488.922 118.841 488.349 119.063 487.814C119.285 487.279 119.61 486.793 120.021 486.384C120.431 485.975 120.918 485.652 121.453 485.431C121.989 485.211 122.563 485.099 123.142 485.101Z" fill="#9468B4" stroke="#A7A7A7" stroke-linecap="round" stroke-linejoin="round"/>
<path d="M71.4356 570.809H167.617C170.655 570.809 173.569 569.602 175.718 567.453C177.866 565.305 179.073 562.391 179.073 559.353C179.073 556.313 177.867 553.398 175.719 551.247C173.571 549.096 170.657 547.886 167.617 547.882H71.4356C68.3959 547.886 65.482 549.096 63.334 551.247C61.186 553.398 59.9795 556.313 59.9795 559.353C59.9795 562.391 61.1865 565.305 63.3349 567.453C65.4833 569.602 68.3972 570.809 71.4356 570.809Z" fill="#A7A7A7" stroke="#A7A7A7" stroke-linecap="round" stroke-linejoin="round"/>
<path d="M85.9278 570.809H182.095C185.134 570.809 188.05 569.602 190.2 567.454C192.351 565.306 193.561 562.392 193.565 559.353C193.565 556.31 192.357 553.393 190.206 551.242C188.054 549.09 185.137 547.882 182.095 547.882H85.9278C82.8856 547.882 79.9679 549.09 77.8167 551.242C75.6655 553.393 74.457 556.31 74.457 559.353C74.4609 562.392 75.6712 565.306 77.8219 567.454C79.9727 569.602 82.8881 570.809 85.9278 570.809Z" fill="white" stroke="#A7A7A7" stroke-linecap="round" stroke-linejoin="round"/>
<path d="M177.459 536.616H72.0361V544.669H177.459V536.616Z" fill="white" stroke="#A7A7A7" stroke-linecap="round" stroke-linejoin="round"/>
<path d="M93.7747 559.353C93.7747 560.786 93.3497 562.187 92.5535 563.378C91.7573 564.57 90.6256 565.499 89.3015 566.047C87.9774 566.596 86.5204 566.739 85.1148 566.46C83.7092 566.18 82.418 565.49 81.4046 564.477C80.3912 563.463 79.7011 562.172 79.4215 560.766C79.1419 559.361 79.2854 557.904 79.8338 556.58C80.3823 555.256 81.311 554.124 82.5027 553.328C83.6943 552.531 85.0953 552.106 86.5285 552.106C88.4503 552.106 90.2934 552.87 91.6523 554.229C93.0113 555.588 93.7747 557.431 93.7747 559.353Z" fill="#A7A7A7" stroke="#A7A7A7" stroke-linecap="round" stroke-linejoin="round"/>
<path d="M105.847 566.599C109.849 566.599 113.093 563.355 113.093 559.353C113.093 555.351 109.849 552.106 105.847 552.106C101.845 552.106 98.6006 555.351 98.6006 559.353C98.6006 563.355 101.845 566.599 105.847 566.599Z" fill="#A7A7A7" stroke="#A7A7A7" stroke-linecap="round" stroke-linejoin="round"/>
<path d="M125.152 566.599C129.153 566.599 132.398 563.355 132.398 559.353C132.398 555.351 129.153 552.106 125.152 552.106C121.15 552.106 117.905 555.351 117.905 559.353C117.905 563.355 121.15 566.599 125.152 566.599Z" fill="#A7A7A7" stroke="#A7A7A7" stroke-linecap="round" stroke-linejoin="round"/>
<path d="M151.716 559.353C151.716 560.786 151.291 562.187 150.495 563.378C149.699 564.57 148.567 565.499 147.243 566.047C145.919 566.596 144.462 566.739 143.056 566.46C141.651 566.18 140.359 565.49 139.346 564.477C138.333 563.463 137.642 562.172 137.363 560.766C137.083 559.361 137.227 557.904 137.775 556.58C138.324 555.256 139.252 554.124 140.444 553.328C141.636 552.531 143.037 552.106 144.47 552.106C146.392 552.106 148.235 552.87 149.594 554.229C150.953 555.588 151.716 557.431 151.716 559.353Z" fill="#A7A7A7" stroke="#A7A7A7" stroke-linecap="round" stroke-linejoin="round"/>
<path d="M171.034 559.353C171.034 560.786 170.609 562.187 169.812 563.378C169.016 564.57 167.884 565.499 166.56 566.047C165.236 566.596 163.779 566.739 162.374 566.46C160.968 566.18 159.677 565.49 158.663 564.477C157.65 563.463 156.96 562.172 156.68 560.766C156.401 559.361 156.544 557.904 157.093 556.58C157.641 555.256 158.57 554.124 159.761 553.328C160.953 552.531 162.354 552.106 163.787 552.106C165.709 552.106 167.552 552.87 168.911 554.229C170.27 555.588 171.034 557.431 171.034 559.353Z" fill="#A7A7A7" stroke="#A7A7A7" stroke-linecap="round" stroke-linejoin="round"/>
<path d="M190.338 559.353C190.338 560.787 189.913 562.188 189.116 563.38C188.319 564.572 187.187 565.501 185.862 566.049C184.537 566.597 183.079 566.739 181.673 566.459C180.267 566.178 178.976 565.486 177.963 564.471C176.95 563.457 176.261 562.164 175.983 560.757C175.705 559.351 175.851 557.893 176.402 556.57C176.952 555.246 177.883 554.115 179.077 553.321C180.27 552.526 181.673 552.104 183.107 552.106C184.058 552.106 184.999 552.294 185.877 552.658C186.756 553.023 187.554 553.557 188.225 554.23C188.897 554.903 189.429 555.702 189.792 556.581C190.155 557.46 190.34 558.402 190.338 559.353Z" fill="#A7A7A7" stroke="#A7A7A7" stroke-linecap="round" stroke-linejoin="round"/>
<path d="M246.679 485.101C246.679 484.303 246.442 483.522 245.998 482.859C245.554 482.195 244.923 481.678 244.185 481.373C243.448 481.068 242.636 480.989 241.853 481.146C241.07 481.303 240.351 481.688 239.788 482.254C239.224 482.82 238.841 483.54 238.687 484.323C238.533 485.107 238.615 485.918 238.923 486.655C239.23 487.392 239.749 488.021 240.415 488.462C241.08 488.904 241.861 489.138 242.66 489.135C243.189 489.135 243.713 489.031 244.201 488.828C244.69 488.625 245.134 488.327 245.507 487.953C245.88 487.578 246.176 487.133 246.377 486.644C246.578 486.154 246.681 485.63 246.679 485.101Z" fill="#A7A7A7" stroke="#A7A7A7" stroke-linecap="round" stroke-linejoin="round"/>
<path d="M168.614 491.54H125.958V517.298H168.614V491.54Z" fill="white" stroke="#A7A7A7" stroke-linecap="round" stroke-linejoin="round"/>
<path d="M168.613 491.54H145.275V517.298H168.613V491.54Z" fill="white" stroke="#A7A7A7" stroke-linecap="round" stroke-linejoin="round"/>
</svg>
