<svg width="500" height="373" viewBox="0 0 500 373" fill="none" xmlns="http://www.w3.org/2000/svg">
<g opacity="0.3">
<path d="M500 327.4H0V327.65H500V327.4Z" fill="#EBEBEB"/>
<path d="M449.9 343.49H416.78V343.74H449.9V343.49Z" fill="#EBEBEB"/>
<path d="M331.22 346.21H322.53V346.46H331.22V346.21Z" fill="#EBEBEB"/>
<path d="M415.78 334.21H396.59V334.46H415.78V334.21Z" fill="#EBEBEB"/>
<path d="M95.65 335.89H52.46V336.14H95.65V335.89Z" fill="#EBEBEB"/>
<path d="M110.89 335.89H104.56V336.14H110.89V335.89Z" fill="#EBEBEB"/>
<path d="M225.15 340.11H131.47V340.36H225.15V340.11Z" fill="#EBEBEB"/>
<path d="M237 282.8H43.91C42.3973 282.797 40.9475 282.195 39.8788 281.124C38.8102 280.053 38.21 278.603 38.21 277.09V5.66C38.2231 4.15602 38.8292 2.71798 39.8964 1.65822C40.9637 0.598458 42.4059 0.00257639 43.91 0H237C238.514 0 239.967 0.601588 241.038 1.67242C242.108 2.74325 242.71 4.19561 242.71 5.71V277.09C242.71 278.604 242.108 280.057 241.038 281.128C239.967 282.198 238.514 282.8 237 282.8ZM43.91 0.200001C42.4636 0.20265 41.0774 0.779065 40.0556 1.80273C39.0338 2.82639 38.46 4.21365 38.46 5.66V277.09C38.46 278.536 39.0338 279.924 40.0556 280.947C41.0774 281.971 42.4636 282.547 43.91 282.55H237C238.447 282.547 239.834 281.971 240.858 280.948C241.881 279.924 242.457 278.537 242.46 277.09V5.66C242.457 4.21273 241.881 2.82549 240.858 1.80212C239.834 0.77874 238.447 0.202644 237 0.200001H43.91Z" fill="#EBEBEB"/>
<path d="M453.31 282.8H260.21C258.696 282.797 257.246 282.195 256.175 281.125C255.105 280.054 254.503 278.604 254.5 277.09V5.66C254.516 4.15511 255.124 2.71708 256.193 1.65759C257.262 0.598109 258.705 0.00254829 260.21 0H453.31C454.812 0.0052045 456.252 0.602249 457.317 1.66173C458.382 2.72121 458.987 4.15775 459 5.66V277.09C459 278.601 458.401 280.05 457.335 281.121C456.268 282.191 454.821 282.795 453.31 282.8ZM260.21 0.200001C258.763 0.202644 257.375 0.77874 256.352 1.80212C255.329 2.82549 254.753 4.21273 254.75 5.66V277.09C254.753 278.537 255.329 279.924 256.352 280.948C257.375 281.971 258.763 282.547 260.21 282.55H453.31C454.757 282.547 456.145 281.971 457.168 280.948C458.191 279.924 458.767 278.537 458.77 277.09V5.66C458.767 4.21273 458.191 2.82549 457.168 1.80212C456.145 0.77874 454.757 0.202644 453.31 0.200001H260.21Z" fill="#EBEBEB"/>
<path d="M428.26 41.2998H280.25V139.69H428.26V41.2998Z" fill="#E6E6E6"/>
<path d="M431.55 41.2998H283.54V139.69H431.55V41.2998Z" fill="#F5F5F5"/>
<path d="M425.65 133.06V47.9297L289.44 47.9297V133.06H425.65Z" fill="white"/>
<path d="M425.65 133.06V47.9297H423.16V133.06H425.65Z" fill="#E6E6E6"/>
<path d="M429.11 112.86H285.98V121.76H429.11V112.86Z" fill="#F5F5F5"/>
<path d="M438 30.3203H273.81C273.569 30.3203 273.338 30.4162 273.167 30.5868C272.996 30.7575 272.9 30.989 272.9 31.2303C272.9 31.4717 272.996 31.7031 273.167 31.8738C273.338 32.0444 273.569 32.1403 273.81 32.1403H438C438.242 32.1403 438.473 32.0444 438.644 31.8738C438.815 31.7031 438.91 31.4717 438.91 31.2303C438.91 30.989 438.815 30.7575 438.644 30.5868C438.473 30.4162 438.242 30.3203 438 30.3203Z" fill="#E6E6E6"/>
<path d="M438.9 33.5C440.154 33.5 441.17 32.4837 441.17 31.23C441.17 29.9763 440.154 28.96 438.9 28.96C437.646 28.96 436.63 29.9763 436.63 31.23C436.63 32.4837 437.646 33.5 438.9 33.5Z" fill="#E6E6E6"/>
<path d="M281.48 36.3205C281.156 36.3205 280.844 36.1923 280.614 35.9638C280.383 35.7352 280.253 35.4249 280.25 35.1005V32.4605C280.25 32.1342 280.38 31.8214 280.61 31.5907C280.841 31.3601 281.154 31.2305 281.48 31.2305C281.804 31.2331 282.115 31.3639 282.343 31.5942C282.572 31.8246 282.7 32.136 282.7 32.4605V35.1005C282.7 35.2607 282.668 35.4193 282.607 35.5673C282.546 35.7154 282.456 35.8498 282.343 35.9631C282.229 36.0764 282.095 36.1663 281.947 36.2276C281.799 36.2889 281.64 36.3205 281.48 36.3205Z" fill="#E6E6E6"/>
<path d="M424.28 36.3205C423.955 36.3205 423.644 36.1923 423.414 35.9638C423.183 35.7352 423.052 35.4249 423.05 35.1005V32.4605C423.052 32.1351 423.183 31.8237 423.413 31.5936C423.643 31.3635 423.954 31.2331 424.28 31.2305C424.606 31.2305 424.919 31.3601 425.15 31.5907C425.38 31.8214 425.51 32.1342 425.51 32.4605V35.1005C425.507 35.4249 425.376 35.7352 425.146 35.9638C424.916 36.1923 424.604 36.3205 424.28 36.3205Z" fill="#E6E6E6"/>
<path opacity="0.4" d="M437.7 31.2305H285.98V126.83H437.7V31.2305Z" fill="#E0E0E0"/>
<path d="M296.09 33.5C297.344 33.5 298.36 32.4837 298.36 31.23C298.36 29.9763 297.344 28.96 296.09 28.96C294.837 28.96 293.82 29.9763 293.82 31.23C293.82 32.4837 294.837 33.5 296.09 33.5Z" fill="#E6E6E6"/>
<path d="M377.72 144.16C380.38 147.84 375.72 151.16 379.56 154.97C383.4 158.78 378.35 162.3 377.47 166.34C376.59 170.38 382.47 172.24 382.98 177.24C383.49 182.24 374.33 188.24 374.33 188.24C374.33 188.24 367.8 186.64 365.44 181.88C363.08 177.12 367.44 173.88 364.35 170.4C361.26 166.92 354.56 164.92 355.96 160.4C357.36 155.88 352.29 154.4 350.45 150.4C349.83 149.04 350.2 150.02 350.97 148.49C352.9 144.65 356.26 137.77 360.5 137.06C369.42 135.5 374 139 377.72 144.16Z" fill="#E0E0E0"/>
<path d="M379.16 138.1C375.85 142.1 380.88 146.1 376.16 150.22C371.44 154.34 376.94 158.6 377.6 163.22C378.26 167.84 371.47 169.59 370.48 175.22C369.49 180.85 379.38 188.22 379.38 188.22C379.38 188.22 386.9 186.83 389.96 181.59C393.02 176.35 388.34 172.43 392.14 168.65C395.94 164.87 403.67 163.09 402.45 157.88C401.23 152.67 407.09 151.36 409.51 146.88C410.38 145.27 409.98 143.28 409.12 141.38C408.135 139.295 406.647 137.489 404.789 136.123C402.932 134.758 400.763 133.877 398.48 133.56C392.6 132.64 383.81 132.49 379.16 138.1Z" fill="#E6E6E6"/>
<path d="M410 172C410 172 409.19 194.85 378.42 194.85C347.65 194.85 346.88 172 346.88 172H410Z" fill="#F5F5F5"/>
<path d="M308.72 201.14H279.68V320.87H308.72V201.14Z" fill="#F0F0F0"/>
<path d="M428.46 320.88H285.26V327.4H428.46V320.88Z" fill="#F0F0F0"/>
<path d="M308.72 320.88H434.03V201.15H308.72V320.88Z" fill="#F5F5F5"/>
<path d="M423.12 275.31H319.63V246.71H423.12V275.31ZM320.63 274.31H422.12V247.71H320.63V274.31Z" fill="#F0F0F0"/>
<path d="M423.12 309.06H319.63V280.47H423.12V309.06ZM320.63 308.06H422.12V281.47H320.63V308.06Z" fill="#F0F0F0"/>
<path d="M383.4 251.84H359.4C358.788 251.837 358.202 251.593 357.769 251.16C357.337 250.728 357.092 250.142 357.09 249.53C357.09 248.916 357.333 248.328 357.766 247.893C358.199 247.458 358.786 247.213 359.4 247.21H383.4C384.013 247.213 384.601 247.458 385.034 247.893C385.467 248.328 385.71 248.916 385.71 249.53C385.707 250.142 385.463 250.728 385.03 251.16C384.598 251.593 384.012 251.837 383.4 251.84Z" fill="#EBEBEB"/>
<path d="M423.12 241.56H319.63V213H423.12V241.56ZM320.63 240.56H422.12V214H320.63V240.56Z" fill="#F0F0F0"/>
<path d="M383.4 218.09H359.4C358.787 218.085 358.201 217.838 357.769 217.404C357.336 216.97 357.092 216.383 357.09 215.77C357.092 215.158 357.337 214.572 357.769 214.139C358.202 213.707 358.788 213.463 359.4 213.46H383.4C384.012 213.463 384.598 213.707 385.03 214.139C385.463 214.572 385.707 215.158 385.71 215.77C385.707 216.383 385.463 216.97 385.031 217.404C384.599 217.838 384.013 218.085 383.4 218.09Z" fill="#EBEBEB"/>
<path d="M383.4 285.6H359.4C358.787 285.594 358.201 285.348 357.769 284.914C357.336 284.48 357.092 283.892 357.09 283.28C357.092 282.668 357.337 282.082 357.769 281.649C358.202 281.217 358.788 280.972 359.4 280.97H383.4C384.012 280.972 384.598 281.217 385.03 281.649C385.463 282.082 385.707 282.668 385.71 283.28C385.707 283.892 385.463 284.48 385.031 284.914C384.599 285.348 384.013 285.594 383.4 285.6Z" fill="#EBEBEB"/>
<path d="M437.9 194.85H308.72V201.15H437.9V194.85Z" fill="#F0F0F0"/>
<path d="M275.62 201.14H308.72V194.84H275.62V201.14Z" fill="#E6E6E6"/>
<path d="M201.93 27H95.1104V148.18H201.93V27Z" fill="#F0F0F0"/>
<path d="M210.67 27H96.6797V148.18H210.67V27Z" fill="#F5F5F5"/>
<path d="M201.12 138.63V36.5498L106.23 36.5498V138.63H201.12Z" fill="white"/>
<path d="M178.12 104.48V70.7C178.12 65.503 173.907 61.29 168.71 61.29H138.64C133.443 61.29 129.23 65.503 129.23 70.7V104.48C129.23 109.677 133.443 113.89 138.64 113.89H168.71C173.907 113.89 178.12 109.677 178.12 104.48Z" fill="#F5F5F5"/>
<path d="M197.47 232.61C196.94 232.61 196.4 232.61 195.86 232.66C192.486 232.907 189.207 233.895 186.258 235.554C183.309 237.213 180.762 239.502 178.8 242.258C176.837 245.015 175.507 248.17 174.903 251.5C174.3 254.829 174.439 258.251 175.31 261.52C177.817 271.282 179.028 281.332 178.91 291.41V320.75C178.91 321.772 179.316 322.753 180.037 323.476C180.759 324.2 181.738 324.608 182.76 324.61H275.92V232.61H197.47Z" fill="#F0F0F0"/>
<path d="M298.86 255.55C298.85 252.288 298.145 249.066 296.791 246.098C295.437 243.13 293.465 240.485 291.008 238.339C288.551 236.194 285.664 234.597 282.541 233.656C279.417 232.714 276.129 232.45 272.895 232.88C269.662 233.31 266.557 234.425 263.788 236.15C261.02 237.876 258.651 240.172 256.84 242.885C255.029 245.598 253.817 248.667 253.286 251.886C252.755 255.104 252.917 258.399 253.76 261.55C256.267 271.312 257.478 281.362 257.36 291.44V320.78C257.359 321.287 257.458 321.789 257.651 322.257C257.843 322.725 258.127 323.151 258.484 323.509C258.842 323.868 259.267 324.152 259.735 324.346C260.202 324.54 260.704 324.64 261.21 324.64H290.62C291.127 324.64 291.629 324.541 292.098 324.347C292.566 324.153 292.991 323.868 293.35 323.51C293.708 323.151 293.993 322.726 294.187 322.258C294.381 321.789 294.48 321.287 294.48 320.78V289.68C294.397 280.23 295.591 270.811 298.03 261.68C298.582 259.684 298.861 257.622 298.86 255.55Z" fill="#F5F5F5"/>
<path d="M244.3 268.75H160.69V324.61H244.3V268.75Z" fill="#F0F0F0"/>
<path d="M108.95 195.57H186.13C188.41 195.57 190.667 196.019 192.773 196.892C194.88 197.764 196.793 199.043 198.405 200.655C200.017 202.267 201.296 204.181 202.169 206.287C203.041 208.393 203.49 210.651 203.49 212.93V281.38H91.5801V212.93C91.5801 208.326 93.4091 203.911 96.6647 200.655C99.9203 197.399 104.336 195.57 108.94 195.57H108.95Z" fill="#E0E0E0"/>
<path d="M130 195.57H208.86C213.244 195.57 217.449 197.312 220.549 200.412C223.649 203.512 225.39 207.716 225.39 212.1V281.38H113.45V212.09C113.452 209.919 113.881 207.769 114.713 205.763C115.546 203.757 116.765 201.935 118.302 200.401C119.839 198.867 121.663 197.651 123.671 196.822C125.678 195.993 127.829 195.568 130 195.57Z" fill="#F5F5F5"/>
<path d="M166.16 263.65H243.23C244.556 263.65 245.828 264.177 246.766 265.115C247.704 266.053 248.23 267.324 248.23 268.65V281.32C248.23 282.646 247.704 283.918 246.766 284.856C245.828 285.794 244.556 286.32 243.23 286.32H166.16C165.76 286.32 165.376 286.161 165.093 285.878C164.809 285.595 164.65 285.211 164.65 284.81V265.15C164.653 264.752 164.813 264.37 165.096 264.089C165.379 263.808 165.762 263.65 166.16 263.65Z" fill="#E0E0E0"/>
<path d="M83.3395 232.61C82.8095 232.61 82.2695 232.61 81.7295 232.66C76.1984 233.06 70.9978 235.445 67.0857 239.375C63.1736 243.306 60.8133 248.517 60.4395 254.05C60.2815 256.564 60.5314 259.087 61.1795 261.52C63.6864 271.282 64.8968 281.332 64.7795 291.41V320.75C64.7782 321.257 64.8768 321.759 65.0697 322.227C65.2626 322.695 65.546 323.121 65.9036 323.479C66.2613 323.838 66.6861 324.122 67.1539 324.316C67.6216 324.51 68.1231 324.61 68.6295 324.61H161.78V232.61H83.3395Z" fill="#F0F0F0"/>
<path d="M184.729 255.55C184.72 252.288 184.014 249.066 182.66 246.098C181.306 243.13 179.335 240.485 176.877 238.339C174.42 236.194 171.533 234.597 168.41 233.656C165.286 232.714 161.998 232.45 158.764 232.88C155.531 233.31 152.426 234.425 149.657 236.15C146.889 237.876 144.52 240.172 142.709 242.885C140.898 245.598 139.687 248.667 139.156 251.886C138.625 255.104 138.786 258.399 139.63 261.55C142.128 271.314 143.335 281.363 143.22 291.44V320.78C143.22 321.287 143.319 321.789 143.513 322.258C143.707 322.726 143.992 323.151 144.35 323.51C144.709 323.868 145.134 324.153 145.602 324.347C146.071 324.541 146.573 324.64 147.08 324.64H176.49C176.996 324.64 177.497 324.54 177.965 324.346C178.433 324.152 178.858 323.868 179.215 323.509C179.573 323.151 179.856 322.725 180.049 322.257C180.242 321.789 180.341 321.287 180.34 320.78V289.68C180.255 280.229 181.452 270.81 183.899 261.68C184.451 259.684 184.73 257.622 184.729 255.55Z" fill="#F5F5F5"/>
<path d="M274.28 327.4H85.0002C84.633 327.402 84.2691 327.33 83.9294 327.191C83.5898 327.051 83.281 326.846 83.0209 326.587C82.7608 326.328 82.5544 326.02 82.4135 325.68C82.2727 325.341 82.2002 324.978 82.2002 324.61H277.07C277.07 325.35 276.776 326.06 276.253 326.583C275.73 327.106 275.02 327.4 274.28 327.4Z" fill="#E0E0E0"/>
</g>
<path d="M249.999 372.56C357.082 372.56 443.889 367.492 443.889 361.24C443.889 354.988 357.082 349.92 249.999 349.92C142.917 349.92 56.1094 354.988 56.1094 361.24C56.1094 367.492 142.917 372.56 249.999 372.56Z" fill="#F5F5F5" fill-opacity="0.15"/>
<path d="M308.2 68.3698C311.06 73.5298 311.3 94.5998 306 98.9198C296.26 97.8498 288.51 93.1398 288.26 82.0498C288.01 70.9598 302.81 58.6698 308.2 68.3698Z" fill="#263238"/>
<path d="M297.9 96C295.34 94.5 291.08 99.44 290.1 107.91C289.4 113.91 277.64 103.77 273.81 113.59C269.87 110.59 267.6 98.9 278.81 102.02C286.74 104.21 285.07 102.89 288.73 98.02C292.57 92.92 295.46 93.28 297.9 96Z" fill="#263238"/>
<path d="M331.629 121.609L332.539 124.459C332.859 125.459 333.199 126.459 333.539 127.409C334.209 129.409 334.909 131.409 335.649 133.329C336.389 135.249 337.119 137.269 337.909 139.229L339.059 142.229L339.349 142.969L339.419 143.139C339.296 143.031 339.153 142.946 338.999 142.889C338.779 142.809 338.689 142.889 338.819 142.889C339.06 142.89 339.3 142.853 339.529 142.779C340.315 142.532 341.069 142.196 341.779 141.779C343.482 140.781 345.112 139.665 346.659 138.439C348.279 137.179 349.869 135.829 351.419 134.439C352.969 133.049 354.559 131.599 356.069 130.179L359.139 132.779C357.859 134.619 356.499 136.299 355.139 138.009C353.779 139.719 352.219 141.319 350.639 142.909C349.014 144.567 347.248 146.079 345.359 147.429C344.274 148.191 343.107 148.828 341.879 149.329C341.107 149.641 340.296 149.849 339.469 149.949C338.339 150.09 337.192 149.935 336.139 149.499C334.775 148.873 333.652 147.82 332.939 146.499L332.679 145.959L332.319 145.229C331.839 144.229 331.319 143.229 330.899 142.289C329.989 140.289 329.079 138.289 328.259 136.289C327.439 134.289 326.609 132.229 325.849 130.169C325.479 129.169 325.129 128.079 324.779 127.029C324.429 125.979 324.119 124.949 323.779 123.719L331.629 121.609Z" fill="#803E3C"/>
<path d="M329.27 112.73C332.71 113.61 335.12 127.79 335.12 127.79L325.63 134.25C325.63 134.25 316.52 119.94 319.17 116.15C321.93 112.21 324.24 111.45 329.27 112.73Z" fill="#407BFF"/>
<path d="M329.27 112.73C332.71 113.61 335.12 127.79 335.12 127.79L325.63 134.25C325.63 134.25 316.52 119.94 319.17 116.15C321.93 112.21 324.24 111.45 329.27 112.73Z" fill="#263238"/>
<path opacity="0.3" d="M328.96 115.899L331.6 130.189L326.27 133.809L328.96 115.899Z" fill="black"/>
<path d="M355.91 130.52L359.08 122.88L362.99 130.52C362.99 130.52 360.45 134.32 357.1 133.39L355.91 130.52Z" fill="#7F3E3B"/>
<path d="M362.57 122.09L367.6 124.11L362.99 130.52L359.08 122.88L362.57 122.09Z" fill="#7F3E3B"/>
<path d="M371.569 115.597L360.5 124.538C357.17 127.228 356.651 132.107 359.341 135.437L368.282 146.507C370.972 149.836 375.851 150.355 379.181 147.666L390.251 138.724C393.58 136.034 394.099 131.155 391.41 127.825L382.468 116.756C379.778 113.426 374.899 112.907 371.569 115.597Z" fill="#407BFF"/>
<path d="M310.62 351.45H318.98L319.54 332.08H311.18L310.62 351.45Z" fill="#7F3E3B"/>
<path d="M254.5 326.5L262.19 329.78L272.25 313.02L264.56 309.74L254.5 326.5Z" fill="#7F3E3B"/>
<path d="M263.66 328.64L255.66 323.72C255.523 323.632 255.358 323.598 255.198 323.624C255.037 323.649 254.892 323.734 254.79 323.86L249.99 329.63C249.868 329.78 249.78 329.954 249.732 330.141C249.684 330.328 249.676 330.523 249.711 330.713C249.745 330.903 249.82 331.083 249.93 331.241C250.04 331.4 250.183 331.532 250.35 331.63C253.17 333.3 254.62 333.96 258.14 336.12C260.3 337.46 263.33 339.62 266.32 341.46C269.31 343.3 271.32 340.46 270.21 339.41C265.36 334.78 265.5 332.58 264.59 329.84C264.431 329.343 264.102 328.918 263.66 328.64Z" fill="#263238"/>
<path d="M319.269 350.48H309.869C309.709 350.478 309.553 350.535 309.432 350.64C309.31 350.745 309.231 350.89 309.209 351.049L308.139 358.49C308.118 358.677 308.137 358.867 308.195 359.047C308.253 359.227 308.348 359.392 308.475 359.532C308.602 359.672 308.757 359.784 308.93 359.859C309.103 359.935 309.29 359.972 309.479 359.97C312.749 359.92 314.329 359.72 318.479 359.72C321.019 359.72 326.279 359.99 329.789 359.99C333.299 359.99 333.489 356.52 332.029 356.2C325.469 354.79 322.889 352.85 320.689 351C320.294 350.662 319.79 350.477 319.269 350.48Z" fill="#263238"/>
<path opacity="0.2" d="M319.54 332.09L319.25 342.07H310.89L311.17 332.09H319.54Z" fill="black"/>
<path opacity="0.2" d="M264.549 309.75L272.249 313.02L267.059 321.66L259.359 318.38L264.549 309.75Z" fill="black"/>
<path d="M329.27 112.729C329.27 112.729 333.27 114.129 325.27 163.199H291.27C291.84 149.379 291.85 140.859 285.27 112.489C290.024 111.506 294.843 110.871 299.69 110.589C304.823 110.219 309.976 110.219 315.11 110.589C321.76 111.189 329.27 112.729 329.27 112.729Z" fill="#263238"/>
<path d="M301.24 93.2197C302.24 98.2197 303.18 107.28 299.71 110.59C299.71 110.59 301.07 115.59 310.29 115.59C320.42 115.59 315.13 110.59 315.13 110.59C309.6 109.27 309.74 105.16 310.7 101.31L301.24 93.2197Z" fill="#7F3E3B"/>
<path opacity="0.2" d="M305.1 96.5195L310.7 101.3C310.462 102.197 310.305 103.114 310.23 104.04C308.11 103.73 305.23 101.41 304.98 99.1995C304.858 98.3063 304.899 97.3983 305.1 96.5195Z" fill="black"/>
<path d="M296.66 84.3594C298.59 92.4294 299.24 95.8894 304.1 99.3594C311.4 104.569 320.89 100.429 321.41 91.9394C321.87 84.2994 318.63 72.3894 310.07 70.5494C308.187 70.1326 306.228 70.2045 304.38 70.7582C302.532 71.312 300.856 72.3292 299.512 73.7132C298.168 75.0972 297.201 76.802 296.702 78.6654C296.202 80.5288 296.188 82.4889 296.66 84.3594Z" fill="#7F3E3B"/>
<path d="M319.67 79.0899C319.728 79.1018 319.788 79.0998 319.846 79.0841C319.903 79.0685 319.956 79.0397 320 78.9999C320.073 78.9251 320.114 78.8246 320.114 78.7199C320.114 78.6152 320.073 78.5147 320 78.4399C319.574 77.9784 319.044 77.6238 318.456 77.4049C317.867 77.186 317.234 77.1089 316.61 77.1799C316.506 77.2017 316.415 77.2628 316.355 77.3504C316.296 77.4381 316.272 77.5454 316.29 77.6499C316.312 77.7531 316.373 77.8436 316.461 77.9016C316.549 77.9597 316.657 77.9806 316.76 77.9599C317.252 77.9049 317.751 77.9668 318.215 78.1405C318.679 78.3143 319.095 78.595 319.43 78.9599C319.492 79.0308 319.577 79.0769 319.67 79.0899Z" fill="#263238"/>
<path d="M319.459 88.7299C318.873 88.7182 318.309 88.5065 317.859 88.1299C316.43 86.7216 315.599 84.8158 315.539 82.8099C315.229 79.2099 316.539 76.1599 318.629 75.8599C318.971 75.8158 319.317 75.8447 319.647 75.9447C319.976 76.0447 320.28 76.2135 320.539 76.4399C321.969 77.8482 322.8 79.7539 322.859 81.7599C323.179 85.3499 321.859 88.4099 319.779 88.7599C319.672 88.7599 319.565 88.7498 319.459 88.7299ZM318.949 76.3299H318.699C316.939 76.5899 315.749 79.4699 316.029 82.7499C316.07 84.6304 316.837 86.4222 318.169 87.7499C318.375 87.9343 318.619 88.0725 318.882 88.1553C319.146 88.2381 319.425 88.2635 319.699 88.2299C321.459 87.9699 322.699 85.0899 322.369 81.8099C322.329 79.9293 321.562 78.1375 320.229 76.8099C319.882 76.5205 319.451 76.352 318.999 76.3299H318.949Z" fill="white"/>
<path d="M325.269 163.2C325.269 163.2 331.869 227.62 331.319 253.12C330.749 279.64 321.029 340.12 321.029 340.12H309.719C309.719 340.12 311.509 281.17 310.509 255.12C309.419 226.72 300.399 163.18 300.399 163.18L325.269 163.2Z" fill="#407BFF"/>
<path opacity="0.2" d="M325.269 163.2C325.269 163.2 331.869 227.62 331.319 253.12C330.749 279.64 321.029 340.12 321.029 340.12H309.719C309.719 340.12 311.509 281.17 310.509 255.12C309.419 226.72 300.399 163.18 300.399 163.18L325.269 163.2Z" fill="white"/>
<path d="M308.74 340.54H322.01L322.98 336.31L308.12 335.79L308.74 340.54Z" fill="#407BFF"/>
<path opacity="0.2" d="M310.62 179.23C319 196 312.3 226.62 309.35 238C307.83 220.9 305.28 200 303.3 184.63C304.56 176 306.77 171.49 310.62 179.23Z" fill="black"/>
<path d="M316.3 163.2C316.3 163.2 308.61 230.2 302.8 251.67C295.9 277.2 269.67 320.67 269.67 320.67L259.18 316.21C259.18 316.21 275.42 266.85 280.69 253.4C291.95 224.7 282.31 181.93 291.31 163.2H316.3Z" fill="#407BFF"/>
<path opacity="0.2" d="M316.3 163.2C316.3 163.2 308.61 230.2 302.8 251.67C295.9 277.2 269.67 320.67 269.67 320.67L259.18 316.21C259.18 316.21 275.42 266.85 280.69 253.4C291.95 224.7 282.31 181.93 291.31 163.2H316.3Z" fill="white"/>
<path d="M257.739 316.24L270.759 321.78L273.879 318.28L258.869 311.07L257.739 316.24Z" fill="#407BFF"/>
<path d="M309.43 84.4701C309.55 85.1301 310 85.6101 310.43 85.5301C310.86 85.4501 311.12 84.8501 311.01 84.1901C310.9 83.5301 310.44 83.0501 310.01 83.1201C309.58 83.1901 309.32 83.8001 309.43 84.4701Z" fill="#263238"/>
<path d="M316.94 83.1497C317.06 83.8097 317.51 84.2898 317.94 84.2098C318.37 84.1298 318.63 83.5297 318.51 82.8697C318.39 82.2097 317.95 81.7297 317.51 81.7997C317.07 81.8697 316.83 82.4797 316.94 83.1497Z" fill="#263238"/>
<path d="M317.33 81.8799L318.85 81.1299C318.85 81.1299 318.25 82.5199 317.33 81.8799Z" fill="#263238"/>
<path d="M315.16 84.6396C316.017 86.0495 317.063 87.3349 318.27 88.4597C317.974 88.7606 317.615 88.9934 317.22 89.142C316.824 89.2905 316.401 89.3511 315.98 89.3197L315.16 84.6396Z" fill="#630F0F"/>
<path d="M313 92.4495C313.379 92.4492 313.757 92.4158 314.13 92.3495C314.181 92.3398 314.227 92.3102 314.257 92.2672C314.287 92.2242 314.299 92.1712 314.29 92.1195C314.284 92.0893 314.27 92.061 314.25 92.0372C314.231 92.0134 314.205 91.9948 314.177 91.9829C314.148 91.9711 314.117 91.9665 314.086 91.9694C314.055 91.9722 314.026 91.9826 314 91.9995C313.176 92.162 312.326 92.128 311.518 91.9004C310.71 91.6728 309.968 91.258 309.35 90.6895C309.334 90.6661 309.312 90.6466 309.288 90.6321C309.263 90.6176 309.236 90.6086 309.207 90.6056C309.179 90.6026 309.15 90.6058 309.123 90.6148C309.096 90.6239 309.071 90.6386 309.05 90.6581C309.029 90.6776 309.013 90.7013 309.002 90.7277C308.991 90.7541 308.985 90.7825 308.986 90.8111C308.987 90.8396 308.994 90.8677 309.007 90.8933C309.02 90.9189 309.038 90.9415 309.06 90.9595C310.127 91.9537 311.542 92.4888 313 92.4495Z" fill="#263238"/>
<path d="M308.89 72.46C309.04 76.31 302.98 88.67 298.61 89.63C293.25 86.13 291.75 80 294.87 73.46C297.99 66.92 308.61 65.21 308.89 72.46Z" fill="#263238"/>
<path d="M311.649 66.2501C308.259 65.7201 296.649 67.6701 302.869 71.2501C309.089 74.8301 314.039 75.8001 317.059 75.4401C320.079 75.0801 319.109 67.4101 311.649 66.2501Z" fill="#263238"/>
<path d="M295.64 90.2696C296.257 91.7509 297.436 92.9269 298.92 93.5396C300.92 94.3396 302.11 92.6296 301.76 90.6496C301.45 88.8596 300.04 86.2896 297.97 86.3396C297.517 86.3596 297.076 86.4922 296.687 86.7253C296.298 86.9584 295.973 87.2847 295.742 87.6747C295.511 88.0647 295.38 88.5061 295.362 88.9592C295.345 89.4122 295.44 89.8626 295.64 90.2696Z" fill="#7F3E3B"/>
<path d="M306.75 82.19C306.801 82.1744 306.849 82.1487 306.89 82.1144C306.931 82.08 306.965 82.0377 306.99 81.99C307.199 81.5396 307.512 81.1452 307.903 80.8393C308.294 80.5333 308.752 80.3245 309.24 80.23C309.292 80.225 309.343 80.2096 309.389 80.1846C309.435 80.1596 309.476 80.1256 309.508 80.0845C309.541 80.0434 309.565 79.9961 309.579 79.9455C309.593 79.8949 309.597 79.842 309.59 79.79C309.585 79.7377 309.569 79.687 309.544 79.6408C309.519 79.5946 309.485 79.554 309.444 79.5213C309.403 79.4886 309.356 79.4646 309.305 79.4506C309.255 79.4366 309.202 79.433 309.15 79.44C308.531 79.5483 307.947 79.8038 307.448 80.1849C306.948 80.566 306.548 81.0617 306.28 81.63C306.256 81.6772 306.241 81.7287 306.237 81.7815C306.234 81.8343 306.24 81.8873 306.257 81.9376C306.274 81.9878 306.3 82.0342 306.335 82.0741C306.37 82.114 306.412 82.1466 306.46 82.17C306.551 82.2109 306.654 82.218 306.75 82.19Z" fill="#263238"/>
<path d="M310.999 90C310.412 89.984 309.848 89.7689 309.399 89.39C307.97 87.9817 307.139 86.076 307.079 84.07C306.769 80.48 308.079 77.42 310.159 77.12C310.502 77.0807 310.849 77.1119 311.179 77.2116C311.51 77.3114 311.816 77.4776 312.079 77.7C313.507 79.1095 314.338 81.0145 314.399 83.02C314.709 86.62 313.399 89.67 311.319 90.02L310.999 90ZM310.489 77.59H310.239C308.479 77.85 307.239 80.73 307.569 84.01C307.61 85.8905 308.377 87.6824 309.709 89.01C309.915 89.195 310.158 89.3336 310.422 89.4164C310.686 89.4992 310.965 89.5243 311.239 89.49C312.999 89.24 314.189 86.36 313.909 83.07C313.867 81.1899 313.1 79.3988 311.769 78.07C311.405 77.7625 310.946 77.5895 310.469 77.58L310.489 77.59Z" fill="white"/>
<path d="M289.619 123.33C289.284 128.118 288.633 132.878 287.669 137.58C286.778 142.362 285.439 147.049 283.669 151.58L282.919 153.31L282.729 153.74C282.664 153.89 282.591 154.037 282.509 154.18C282.418 154.362 282.311 154.536 282.189 154.7C281.914 155.121 281.577 155.499 281.189 155.82C280.701 156.207 280.14 156.492 279.539 156.66C278.58 156.924 277.563 156.897 276.619 156.58C276.063 156.404 275.535 156.152 275.049 155.83C274.373 155.38 273.743 154.864 273.169 154.29C271.409 152.454 269.841 150.444 268.489 148.29C265.936 144.277 263.668 140.09 261.699 135.76L265.189 133.76C267.909 137.43 270.639 141.18 273.519 144.61C274.83 146.254 276.278 147.782 277.849 149.18C278.115 149.41 278.407 149.608 278.719 149.77C278.799 149.77 278.859 149.77 278.719 149.77C278.325 149.652 277.904 149.652 277.509 149.77C276.029 150.21 275.859 151.52 276.169 150.51L276.719 149C278.071 144.792 279.11 140.49 279.829 136.13C280.589 131.74 281.169 127.13 281.589 122.8L289.619 123.33Z" fill="#803E3C"/>
<path d="M285.29 112.49C281.89 113.49 277.8 125.24 277.8 125.24L291 134.68C291 134.68 295.81 124.9 294.38 120.5C292.89 115.92 289.17 111.31 285.29 112.49Z" fill="#263238"/>
<path d="M267.05 331.82C267.212 331.764 267.359 331.672 267.481 331.551C267.602 331.43 267.694 331.282 267.75 331.12C267.813 331.018 267.846 330.9 267.846 330.78C267.846 330.66 267.813 330.542 267.75 330.44C267.15 329.56 264.13 329.63 263.75 329.64C263.711 329.641 263.674 329.652 263.642 329.674C263.61 329.695 263.585 329.725 263.57 329.76C263.55 329.792 263.54 329.828 263.54 329.865C263.54 329.902 263.55 329.939 263.57 329.97C264.36 330.76 265.84 332.05 266.88 331.85L267.05 331.82ZM264.24 330C265.45 330 267.07 330.17 267.38 330.64C267.409 330.685 267.425 330.737 267.425 330.79C267.425 330.844 267.409 330.896 267.38 330.94C267.339 331.061 267.268 331.169 267.173 331.255C267.079 331.341 266.964 331.401 266.84 331.43C266.29 331.57 265.33 331 264.24 330Z" fill="#407BFF"/>
<path d="M265.13 329.79C266.05 329.5 267.02 328.99 267.24 328.42C267.292 328.272 267.292 328.11 267.242 327.962C267.191 327.813 267.091 327.685 266.96 327.6C266.842 327.501 266.703 327.431 266.554 327.395C266.405 327.358 266.249 327.357 266.1 327.39C264.91 327.6 263.639 329.64 263.579 329.73C263.564 329.761 263.557 329.795 263.557 329.83C263.557 329.865 263.564 329.899 263.579 329.93C263.596 329.961 263.621 329.986 263.651 330.004C263.68 330.022 263.715 330.031 263.75 330.03C264.219 330.017 264.684 329.936 265.13 329.79ZM266.049 327.79H266.17C266.264 327.771 266.361 327.772 266.454 327.794C266.547 327.817 266.635 327.86 266.71 327.92C266.91 328.08 266.899 328.2 266.859 328.29C266.659 328.84 265.14 329.5 264.13 329.63C264.595 328.862 265.258 328.233 266.049 327.81V327.79Z" fill="#407BFF"/>
<path d="M322.41 351.94C323.115 351.996 323.818 351.816 324.41 351.43C324.548 351.306 324.652 351.149 324.713 350.974C324.775 350.8 324.791 350.612 324.76 350.43C324.754 350.322 324.721 350.217 324.663 350.126C324.605 350.035 324.525 349.961 324.43 349.91C323.43 349.35 320.07 351.05 319.69 351.24C319.655 351.261 319.626 351.292 319.608 351.329C319.591 351.367 319.584 351.409 319.59 351.45C319.594 351.49 319.613 351.529 319.642 351.558C319.671 351.587 319.709 351.605 319.75 351.61C320.624 351.807 321.515 351.918 322.41 351.94ZM323.9 350.21C324.027 350.203 324.154 350.227 324.27 350.28C324.308 350.303 324.34 350.335 324.363 350.373C324.385 350.412 324.398 350.455 324.4 350.5C324.417 350.615 324.404 350.733 324.364 350.843C324.324 350.953 324.257 351.052 324.17 351.13C323.66 351.59 322.29 351.67 320.44 351.36C321.519 350.782 322.69 350.393 323.9 350.21Z" fill="#407BFF"/>
<path d="M319.82 351.65H319.9C320.9 351.2 322.9 349.4 322.71 348.45C322.71 348.22 322.52 347.95 321.97 347.89C321.773 347.868 321.573 347.886 321.384 347.945C321.194 348.003 321.019 348.1 320.87 348.23C319.82 349.11 319.63 351.36 319.62 351.45C319.614 351.485 319.618 351.52 319.633 351.552C319.647 351.584 319.67 351.611 319.7 351.63C319.736 351.65 319.778 351.657 319.82 351.65ZM321.82 348.26H321.94C322.3 348.26 322.32 348.45 322.33 348.49C322.42 349.06 321.08 350.49 320.07 351.1C320.145 350.151 320.516 349.249 321.13 348.52C321.315 348.351 321.558 348.258 321.81 348.26H321.82Z" fill="#407BFF"/>
<path d="M290.799 161.209L289.929 164.209C289.809 164.439 290.089 164.679 290.479 164.679H325.479C325.779 164.679 326.039 164.529 326.059 164.339L326.359 161.339C326.359 161.129 326.119 160.949 325.779 160.949H291.349C291.243 160.943 291.137 160.963 291.041 161.009C290.945 161.054 290.862 161.123 290.799 161.209Z" fill="#263238"/>
<path d="M295.419 165.05H294.499C294.309 165.05 294.169 164.96 294.189 164.84L294.619 160.84C294.619 160.73 294.789 160.63 294.979 160.63H295.899C296.079 160.63 296.219 160.73 296.209 160.84L295.779 164.84C295.759 165 295.599 165.05 295.419 165.05Z" fill="#407BFF"/>
<path opacity="0.2" d="M295.419 165.05H294.499C294.309 165.05 294.169 164.96 294.189 164.84L294.619 160.84C294.619 160.73 294.789 160.63 294.979 160.63H295.899C296.079 160.63 296.219 160.73 296.209 160.84L295.779 164.84C295.759 165 295.599 165.05 295.419 165.05Z" fill="white"/>
<path d="M322.85 165.05H321.93C321.75 165.05 321.61 164.96 321.62 164.84L322.05 160.84C322.05 160.73 322.22 160.63 322.41 160.63H323.33C323.51 160.63 323.65 160.73 323.64 160.84L323.21 164.84C323.19 165 323 165.05 322.85 165.05Z" fill="#407BFF"/>
<path opacity="0.2" d="M322.85 165.05H321.93C321.75 165.05 321.61 164.96 321.62 164.84L322.05 160.84C322.05 160.73 322.22 160.63 322.41 160.63H323.33C323.51 160.63 323.65 160.73 323.64 160.84L323.21 164.84C323.19 165 323 165.05 322.85 165.05Z" fill="white"/>
<path d="M309.13 165.05H308.21C308.03 165.05 307.89 164.96 307.9 164.84L308.33 160.84C308.33 160.73 308.51 160.63 308.69 160.63H309.61C309.8 160.63 309.94 160.73 309.92 160.84L309.49 164.84C309.48 165 309.32 165.05 309.13 165.05Z" fill="#407BFF"/>
<path opacity="0.2" d="M309.13 165.05H308.21C308.03 165.05 307.89 164.96 307.9 164.84L308.33 160.84C308.33 160.73 308.51 160.63 308.69 160.63H309.61C309.8 160.63 309.94 160.73 309.92 160.84L309.49 164.84C309.48 165 309.32 165.05 309.13 165.05Z" fill="white"/>
<path d="M309.819 83.1902L311.339 82.4502C311.339 82.4502 310.739 83.8402 309.819 83.1902Z" fill="#263238"/>
<path d="M262.14 136.88L254.14 132.63L262.03 129.47C262.03 129.47 266.18 132.88 265.51 136.29L262.14 136.88Z" fill="#7F3E3B"/>
<path d="M251.319 126.2L258.069 123.91L263.049 130.41L254.169 132.63L251.319 126.2Z" fill="#7F3E3B"/>
<path d="M253.64 77.5196H140C138.436 77.5164 136.887 77.8267 135.445 78.432C134.002 79.0373 132.696 79.9255 131.603 81.044C130.509 82.1626 129.651 83.4889 129.079 84.9446C128.506 86.4002 128.231 87.9559 128.27 89.5196L134.15 349.24C134.248 352.439 135.582 355.477 137.872 357.714C140.162 359.952 143.229 361.215 146.43 361.24H260.06C261.624 361.243 263.173 360.932 264.616 360.327C266.058 359.722 267.364 358.834 268.458 357.715C269.551 356.596 270.409 355.27 270.982 353.815C271.554 352.359 271.829 350.803 271.79 349.24L265.91 89.5196C265.815 86.3206 264.483 83.2832 262.195 81.0455C259.907 78.8078 256.84 77.544 253.64 77.5196Z" fill="#263238"/>
<path d="M256.47 77.5196H142.8C141.236 77.5164 139.688 77.8267 138.246 78.4321C136.804 79.0376 135.499 79.9259 134.406 81.0446C133.313 82.1633 132.456 83.4897 131.885 84.9453C131.314 86.401 131.04 87.9563 131.08 89.5196L137 349.24C137.096 352.438 138.427 355.476 140.715 357.714C143.003 359.951 146.07 361.215 149.27 361.24H262.9C264.464 361.243 266.012 360.932 267.454 360.327C268.896 359.721 270.201 358.833 271.294 357.714C272.387 356.596 273.244 355.269 273.815 353.814C274.386 352.358 274.66 350.803 274.62 349.24L268.74 89.5196C268.644 86.3206 267.313 83.2832 265.025 81.0455C262.737 78.8078 259.67 77.544 256.47 77.5196Z" fill="#263238"/>
<path d="M138.51 349.09L132.63 89.6699C132.6 88.6042 132.786 87.5435 133.176 86.5512C133.565 85.5589 134.151 84.6553 134.898 83.8945C135.645 83.1337 136.537 82.5313 137.522 82.1233C138.507 81.7153 139.564 81.51 140.63 81.5199H258.86C261.035 81.5295 263.121 82.3857 264.676 83.907C266.231 85.4283 267.133 87.4953 267.19 89.6699L273.07 349.09C273.098 350.155 272.912 351.215 272.522 352.207C272.131 353.199 271.546 354.102 270.799 354.862C270.053 355.623 269.161 356.225 268.176 356.634C267.192 357.042 266.136 357.248 265.07 357.24H146.84C144.665 357.23 142.579 356.374 141.024 354.853C139.469 353.331 138.567 351.264 138.51 349.09Z" fill="white"/>
<path d="M178.121 346.649C177.956 346.649 177.795 346.607 177.651 346.529L173.721 344.279C173.577 344.194 173.457 344.075 173.371 343.932C173.286 343.788 173.237 343.626 173.231 343.459C173.229 343.291 173.272 343.125 173.357 342.979C173.441 342.833 173.563 342.712 173.711 342.629L177.541 340.389C177.686 340.317 177.846 340.282 178.008 340.285C178.17 340.289 178.329 340.332 178.471 340.411C178.612 340.49 178.733 340.602 178.822 340.737C178.91 340.873 178.965 341.028 178.981 341.189L179.081 345.669C179.081 345.935 178.975 346.189 178.788 346.377C178.6 346.564 178.346 346.669 178.081 346.669L178.121 346.649ZM173.961 343.849L177.901 346.089C177.97 346.131 178.049 346.153 178.13 346.153C178.21 346.153 178.289 346.132 178.359 346.091C178.428 346.05 178.486 345.991 178.525 345.92C178.564 345.85 178.583 345.77 178.581 345.689L178.481 341.199C178.475 341.121 178.45 341.046 178.407 340.98C178.365 340.914 178.307 340.86 178.239 340.822C178.17 340.785 178.093 340.765 178.015 340.764C177.937 340.764 177.86 340.783 177.791 340.819L174.001 343.059C173.93 343.1 173.872 343.158 173.832 343.228C173.791 343.299 173.77 343.378 173.771 343.459C173.774 343.538 173.797 343.615 173.837 343.683C173.877 343.751 173.933 343.808 174.001 343.849H173.961Z" fill="#263238"/>
<path d="M205.581 346.929C204.657 346.925 203.771 346.561 203.111 345.915C202.45 345.27 202.066 344.393 202.041 343.469C202.027 343.015 202.105 342.563 202.27 342.14C202.435 341.717 202.684 341.332 203.001 341.007C203.319 340.682 203.698 340.425 204.117 340.25C204.536 340.075 204.986 339.986 205.441 339.989C206.365 339.997 207.251 340.363 207.911 341.01C208.571 341.657 208.955 342.535 208.981 343.459C208.994 343.913 208.916 344.364 208.751 344.787C208.585 345.209 208.337 345.594 208.019 345.918C207.702 346.242 207.322 346.499 206.903 346.672C206.484 346.846 206.034 346.934 205.581 346.929ZM205.441 340.489C205.053 340.488 204.67 340.565 204.313 340.714C203.955 340.863 203.632 341.083 203.361 341.359C203.089 341.636 202.876 341.964 202.735 342.325C202.594 342.686 202.528 343.072 202.541 343.459C202.556 344.25 202.877 345.004 203.436 345.564C203.996 346.123 204.75 346.444 205.541 346.459C205.931 346.464 206.319 346.389 206.679 346.238C207.04 346.088 207.365 345.865 207.637 345.584C207.908 345.303 208.12 344.97 208.258 344.605C208.396 344.239 208.458 343.85 208.441 343.459C208.418 342.674 208.093 341.927 207.535 341.374C206.976 340.821 206.226 340.504 205.441 340.489Z" fill="#263238"/>
<path d="M237.81 346.58H233.24C233.018 346.58 232.805 346.493 232.646 346.338C232.487 346.183 232.395 345.972 232.39 345.75L232.29 341.18C232.285 341.071 232.303 340.962 232.342 340.86C232.382 340.759 232.442 340.667 232.52 340.59C232.596 340.51 232.687 340.446 232.789 340.403C232.89 340.36 233 340.339 233.11 340.34H237.68C237.902 340.34 238.115 340.427 238.274 340.582C238.433 340.737 238.525 340.948 238.53 341.17L238.63 345.74C238.635 345.85 238.618 345.96 238.579 346.063C238.54 346.166 238.48 346.26 238.403 346.339C238.326 346.418 238.234 346.48 238.132 346.521C238.03 346.563 237.92 346.583 237.81 346.58ZM233.11 340.84C233.023 340.842 232.94 340.878 232.88 340.94C232.848 340.969 232.824 341.005 232.808 341.044C232.793 341.084 232.786 341.127 232.79 341.17L232.89 345.74C232.893 345.831 232.931 345.917 232.996 345.981C233.061 346.044 233.149 346.08 233.24 346.08H237.81C237.88 346.075 237.947 346.047 238 346C238.06 345.935 238.092 345.849 238.09 345.76L237.99 341.19C237.987 341.099 237.949 341.012 237.884 340.949C237.819 340.885 237.731 340.85 237.64 340.85L233.11 340.84Z" fill="#263238"/>
<path d="M146.05 86.6094C145.785 86.6094 145.53 86.7147 145.343 86.9023C145.155 87.0898 145.05 87.3442 145.05 87.6094C145.05 87.8746 145.155 88.1289 145.343 88.3165C145.53 88.504 145.785 88.6094 146.05 88.6094C146.315 88.6094 146.569 88.504 146.757 88.3165C146.944 88.1289 147.05 87.8746 147.05 87.6094C147.05 87.3442 146.944 87.0898 146.757 86.9023C146.569 86.7147 146.315 86.6094 146.05 86.6094Z" fill="#263238"/>
<path d="M148.86 85.46C148.595 85.46 148.341 85.5653 148.153 85.7529C147.966 85.9404 147.86 86.1947 147.86 86.46V87.61C147.86 87.8752 147.966 88.1295 148.153 88.3171C148.341 88.5046 148.595 88.61 148.86 88.61C149.117 88.5971 149.358 88.4861 149.535 88.3C149.712 88.1138 149.811 87.8667 149.81 87.61V86.46C149.811 86.2032 149.712 85.9561 149.535 85.77C149.358 85.5838 149.117 85.4728 148.86 85.46Z" fill="#263238"/>
<path d="M151.67 84.2791C151.413 84.292 151.172 84.403 150.995 84.5891C150.818 84.7753 150.719 85.0223 150.72 85.2791L150.77 87.6091C150.77 87.8743 150.875 88.1287 151.063 88.3162C151.25 88.5038 151.505 88.6091 151.77 88.6091C152.035 88.6091 152.289 88.5038 152.477 88.3162C152.664 88.1287 152.77 87.8743 152.77 87.6091L152.71 85.2791C152.71 85.1444 152.683 85.011 152.63 84.887C152.577 84.763 152.5 84.6509 152.403 84.5575C152.306 84.4641 152.191 84.3913 152.065 84.3435C151.939 84.2956 151.804 84.2737 151.67 84.2791Z" fill="#263238"/>
<path d="M250.75 83.7793H243.92C243.706 83.7792 243.495 83.8219 243.298 83.9048C243.101 83.9877 242.923 84.1091 242.774 84.262C242.625 84.4148 242.508 84.5959 242.43 84.7947C242.352 84.9935 242.314 85.2058 242.32 85.4193V86.9193C242.333 87.3571 242.515 87.7727 242.829 88.0786C243.142 88.3846 243.562 88.5569 244 88.5593H250.83C251.043 88.5594 251.255 88.5167 251.452 88.4338C251.648 88.3509 251.826 88.2295 251.976 88.0766C252.125 87.9238 252.242 87.7426 252.32 87.5439C252.398 87.3451 252.435 87.1328 252.43 86.9193V85.4193C252.414 84.9823 252.231 84.5681 251.918 84.2627C251.606 83.9573 251.187 83.7842 250.75 83.7793Z" fill="#263238"/>
<path d="M253.49 84.8195H253.12C253.063 84.818 253.007 84.8282 252.955 84.8495C252.903 84.8707 252.855 84.9025 252.816 84.9429C252.777 84.9832 252.746 85.0313 252.726 85.084C252.706 85.1368 252.697 85.1931 252.7 85.2495V87.0895C252.705 87.2036 252.753 87.3115 252.835 87.3914C252.916 87.4713 253.025 87.517 253.14 87.5195H253.51C253.565 87.5182 253.619 87.506 253.67 87.4837C253.72 87.4614 253.766 87.4293 253.804 87.3894C253.842 87.3495 253.872 87.3024 253.892 87.251C253.911 87.1995 253.921 87.1446 253.92 87.0895V85.2495C253.92 85.1354 253.874 85.026 253.794 84.9454C253.713 84.8648 253.604 84.8195 253.49 84.8195Z" fill="#263238"/>
<path d="M229.471 88.56H170.301C168.733 88.6152 167.193 88.1369 165.932 87.2032C164.671 86.2696 163.765 84.9358 163.361 83.42L162.641 80H236.751L236.191 83.42C235.857 84.932 235 86.2774 233.77 87.2181C232.54 88.1587 231.017 88.6341 229.471 88.56Z" fill="#263238"/>
<path opacity="0.1" d="M141.93 349.13C141.397 349.125 140.886 348.914 140.504 348.542C140.122 348.169 139.898 347.663 139.88 347.13L134.11 92C134.102 91.7394 134.147 91.4799 134.241 91.2368C134.336 90.9938 134.478 90.7724 134.66 90.5857C134.842 90.399 135.06 90.2509 135.301 90.1503C135.541 90.0497 135.8 89.9986 136.06 90C136.594 90.0049 137.105 90.2156 137.487 90.5883C137.869 90.9609 138.092 91.4667 138.11 92L143.88 347.09C143.894 347.354 143.853 347.618 143.761 347.866C143.669 348.113 143.528 348.34 143.345 348.531C143.163 348.722 142.943 348.873 142.7 348.976C142.456 349.079 142.195 349.132 141.93 349.13Z" fill="#263238"/>
<path opacity="0.1" d="M269.65 349.13C269.125 349.113 268.627 348.896 268.255 348.525C267.884 348.154 267.668 347.655 267.65 347.13L261.83 92C261.822 91.7394 261.867 91.4799 261.961 91.2368C262.056 90.9938 262.198 90.7724 262.38 90.5857C262.562 90.399 262.78 90.2509 263.02 90.1503C263.261 90.0497 263.519 89.9986 263.78 90C264.314 90.0049 264.825 90.2156 265.207 90.5883C265.589 90.9609 265.812 91.4667 265.83 92L271.6 347.09C271.614 347.354 271.573 347.618 271.481 347.866C271.389 348.113 271.248 348.34 271.065 348.531C270.882 348.722 270.663 348.873 270.419 348.976C270.176 349.079 269.914 349.132 269.65 349.13Z" fill="#263238"/>
<path d="M172 156.4H157.73C155.665 156.38 153.687 155.563 152.211 154.118C150.735 152.674 149.874 150.714 149.81 148.65L149.49 134.42C149.463 133.41 149.639 132.405 150.008 131.465C150.377 130.524 150.93 129.667 151.636 128.944C152.342 128.222 153.186 127.648 154.118 127.257C155.049 126.867 156.05 126.667 157.06 126.67H171.29C173.357 126.687 175.337 127.504 176.815 128.948C178.294 130.393 179.155 132.354 179.22 134.42L179.54 148.65C179.564 149.657 179.387 150.658 179.019 151.595C178.651 152.533 178.1 153.387 177.398 154.109C176.696 154.831 175.857 155.405 174.93 155.798C174.003 156.192 173.007 156.396 172 156.4Z" fill="#407BFF"/>
<path d="M245.11 156.4H230.88C228.815 156.38 226.837 155.563 225.361 154.118C223.885 152.674 223.025 150.714 222.96 148.65L222.64 134.42C222.614 133.41 222.79 132.405 223.158 131.465C223.527 130.524 224.081 129.667 224.787 128.944C225.493 128.222 226.336 127.648 227.268 127.257C228.2 126.867 229.2 126.667 230.21 126.67H244.44C246.506 126.69 248.483 127.507 249.959 128.952C251.436 130.396 252.296 132.356 252.36 134.42L252.69 148.65C252.713 149.66 252.534 150.664 252.163 151.603C251.792 152.542 251.237 153.398 250.531 154.12C249.825 154.842 248.982 155.416 248.051 155.807C247.12 156.199 246.12 156.4 245.11 156.4Z" fill="#407BFF"/>
<path d="M208.54 156.4H194.31C192.243 156.383 190.263 155.566 188.785 154.122C187.306 152.677 186.445 150.716 186.38 148.65L186.06 134.42C186.035 133.41 186.212 132.404 186.582 131.464C186.952 130.523 187.506 129.666 188.213 128.944C188.92 128.221 189.764 127.648 190.696 127.257C191.628 126.867 192.629 126.667 193.64 126.67H207.86C209.927 126.687 211.907 127.504 213.385 128.948C214.864 130.393 215.725 132.354 215.79 134.42L216.11 148.65C216.135 149.659 215.958 150.664 215.589 151.604C215.22 152.544 214.666 153.4 213.961 154.123C213.255 154.845 212.412 155.419 211.481 155.81C210.55 156.201 209.55 156.402 208.54 156.4Z" fill="#407BFF"/>
<path d="M172.8 193.21H158.57C156.503 193.192 154.523 192.376 153.044 190.931C151.566 189.486 150.704 187.526 150.64 185.46L150.32 171.23C150.294 170.219 150.472 169.214 150.842 168.273C151.211 167.333 151.766 166.476 152.473 165.753C153.179 165.031 154.024 164.457 154.956 164.067C155.888 163.676 156.889 163.477 157.9 163.48H172.12C174.187 163.497 176.167 164.313 177.645 165.758C179.124 167.203 179.985 169.163 180.05 171.23L180.37 185.46C180.395 186.469 180.218 187.473 179.849 188.413C179.48 189.353 178.926 190.21 178.22 190.932C177.515 191.654 176.671 192.228 175.741 192.619C174.81 193.011 173.81 193.211 172.8 193.21Z" fill="#407BFF"/>
<path d="M209.37 193.21H195.14C193.075 193.19 191.097 192.372 189.621 190.928C188.145 189.483 187.284 187.524 187.22 185.46L186.9 171.23C186.874 170.22 187.052 169.216 187.421 168.276C187.79 167.336 188.344 166.479 189.049 165.757C189.755 165.035 190.598 164.461 191.529 164.07C192.46 163.679 193.46 163.478 194.47 163.48H208.7C210.765 163.499 212.743 164.317 214.219 165.761C215.695 167.206 216.555 169.165 216.62 171.23L216.95 185.46C216.973 186.469 216.793 187.473 216.422 188.412C216.052 189.352 215.497 190.208 214.791 190.93C214.085 191.652 213.241 192.225 212.31 192.617C211.379 193.008 210.38 193.21 209.37 193.21Z" fill="#407BFF"/>
<path d="M173.631 230H159.401C157.335 229.98 155.358 229.162 153.882 227.718C152.405 226.273 151.545 224.314 151.481 222.25L151.151 208.02C151.127 207.01 151.305 206.005 151.675 205.065C152.046 204.125 152.6 203.269 153.307 202.546C154.013 201.824 154.857 201.251 155.788 200.86C156.72 200.469 157.72 200.268 158.731 200.27H173.001C175.066 200.289 177.043 201.107 178.52 202.551C179.996 203.996 180.856 205.955 180.921 208.02L181.251 222.25C181.273 223.263 181.093 224.27 180.719 225.212C180.346 226.154 179.788 227.011 179.078 227.734C178.367 228.457 177.519 229.029 176.583 229.418C175.648 229.808 174.644 230.005 173.631 230Z" fill="#407BFF"/>
<path d="M246.78 230H232.55C230.485 229.98 228.507 229.162 227.031 227.718C225.555 226.273 224.695 224.314 224.63 222.25L224.3 208.02C224.275 207.009 224.452 206.004 224.822 205.063C225.192 204.123 225.746 203.266 226.453 202.543C227.16 201.821 228.004 201.247 228.936 200.857C229.869 200.466 230.87 200.267 231.88 200.27H246.11C248.175 200.289 250.153 201.107 251.629 202.551C253.105 203.996 253.966 205.955 254.03 208.02L254.35 222.25C254.376 223.259 254.198 224.263 253.829 225.203C253.46 226.143 252.906 227 252.201 227.722C251.495 228.445 250.652 229.018 249.721 229.409C248.79 229.801 247.79 230.001 246.78 230Z" fill="#407BFF"/>
<path d="M210.21 230H196C193.933 229.982 191.953 229.166 190.474 227.721C188.996 226.276 188.134 224.316 188.07 222.25L187.75 208.02C187.723 207.01 187.899 206.005 188.268 205.064C188.636 204.124 189.19 203.267 189.896 202.544C190.602 201.821 191.446 201.248 192.377 200.857C193.309 200.466 194.31 200.267 195.32 200.27H209.55C211.617 200.287 213.597 201.103 215.075 202.548C216.553 203.993 217.415 205.953 217.48 208.02L217.8 222.25C217.825 223.261 217.647 224.267 217.277 225.208C216.907 226.149 216.351 227.007 215.643 227.729C214.936 228.452 214.09 229.025 213.157 229.415C212.223 229.805 211.221 230.004 210.21 230Z" fill="#407BFF"/>
<path d="M174.46 266.839H160.24C158.173 266.822 156.193 266.006 154.715 264.561C153.237 263.116 152.375 261.155 152.31 259.089L152 244.859C151.975 243.85 152.152 242.846 152.521 241.906C152.891 240.966 153.444 240.109 154.15 239.387C154.855 238.664 155.699 238.091 156.63 237.7C157.561 237.308 158.561 237.108 159.57 237.109H173.8C175.867 237.126 177.848 237.943 179.326 239.388C180.804 240.832 181.666 242.793 181.73 244.859L182.05 259.089C182.076 260.101 181.898 261.107 181.528 262.048C181.157 262.989 180.602 263.846 179.894 264.569C179.186 265.292 178.341 265.865 177.407 266.255C176.474 266.645 175.472 266.844 174.46 266.839Z" fill="#407BFF"/>
<path d="M247.61 266.839H233.38C231.315 266.82 229.337 266.002 227.861 264.558C226.385 263.113 225.525 261.154 225.46 259.089L225.14 244.859C225.115 243.85 225.292 242.846 225.661 241.906C226.03 240.966 226.584 240.109 227.29 239.387C227.995 238.664 228.838 238.091 229.769 237.7C230.7 237.308 231.7 237.108 232.71 237.109H246.94C249.007 237.126 250.987 237.943 252.466 239.388C253.944 240.832 254.806 242.793 254.87 244.859L255.19 259.089C255.214 260.099 255.036 261.104 254.665 262.044C254.295 262.984 253.74 263.84 253.034 264.563C252.328 265.285 251.484 265.858 250.552 266.249C249.621 266.64 248.62 266.841 247.61 266.839Z" fill="#407BFF"/>
<path d="M211.001 266.839H196.811C194.745 266.82 192.768 266.002 191.291 264.558C189.815 263.113 188.955 261.154 188.891 259.089L188.561 244.859C188.538 243.85 188.717 242.846 189.088 241.906C189.459 240.967 190.013 240.111 190.72 239.389C191.426 238.667 192.269 238.094 193.2 237.702C194.131 237.311 195.131 237.109 196.141 237.109H210.37C212.436 237.129 214.413 237.947 215.89 239.391C217.366 240.836 218.226 242.795 218.29 244.859L218.611 259.089C218.636 260.102 218.458 261.11 218.086 262.053C217.714 262.995 217.157 263.853 216.447 264.576C215.737 265.299 214.889 265.872 213.954 266.261C213.018 266.65 212.014 266.846 211.001 266.839Z" fill="#407BFF"/>
<path d="M175.87 328.799H161.64C159.573 328.782 157.593 327.966 156.115 326.521C154.636 325.076 153.775 323.115 153.71 321.049L153.39 306.829C153.365 305.819 153.542 304.814 153.912 303.873C154.282 302.932 154.836 302.076 155.543 301.353C156.25 300.63 157.094 300.057 158.026 299.666C158.958 299.276 159.959 299.076 160.97 299.079H175.19C177.257 299.096 179.237 299.913 180.716 301.357C182.194 302.802 183.056 304.763 183.12 306.829L183.44 321.049C183.467 322.059 183.291 323.064 182.922 324.005C182.553 324.945 182 325.802 181.294 326.525C180.588 327.247 179.744 327.821 178.812 328.212C177.881 328.602 176.88 328.802 175.87 328.799Z" fill="#407BFF"/>
<path d="M249 328.799H234.79C232.723 328.782 230.743 327.966 229.264 326.521C227.786 325.076 226.924 323.115 226.86 321.049L226.54 306.829C226.513 305.819 226.689 304.814 227.058 303.874C227.427 302.933 227.98 302.076 228.686 301.354C229.392 300.631 230.236 300.057 231.167 299.667C232.099 299.276 233.1 299.076 234.11 299.079H248.34C250.407 299.096 252.387 299.913 253.865 301.357C255.344 302.802 256.205 304.763 256.27 306.829L256.59 321.049C256.617 322.061 256.44 323.067 256.07 324.009C255.7 324.951 255.145 325.809 254.436 326.532C253.728 327.255 252.882 327.828 251.948 328.218C251.014 328.607 250.012 328.805 249 328.799Z" fill="#407BFF"/>
<path d="M212.44 328.799H198.21C196.144 328.779 194.167 327.962 192.691 326.517C191.214 325.073 190.354 323.113 190.29 321.049L190 306.829C189.973 305.819 190.149 304.814 190.518 303.874C190.886 302.933 191.44 302.076 192.146 301.354C192.852 300.631 193.696 300.057 194.627 299.667C195.559 299.276 196.56 299.076 197.57 299.079H211.8C213.865 299.099 215.843 299.916 217.319 301.361C218.795 302.805 219.655 304.765 219.72 306.829L220.05 321.049C220.075 322.062 219.897 323.07 219.525 324.012C219.154 324.955 218.596 325.813 217.886 326.536C217.176 327.259 216.328 327.832 215.393 328.221C214.457 328.609 213.453 328.806 212.44 328.799Z" fill="#407BFF"/>
<path d="M251.91 114.389H149.03L149.01 113.279H251.88L251.91 114.389Z" fill="#407BFF"/>
<path d="M250.44 101.809C250.062 101.431 249.613 101.131 249.119 100.926C248.625 100.721 248.095 100.615 247.56 100.615C247.025 100.615 246.495 100.721 246.001 100.926C245.507 101.131 245.058 101.431 244.68 101.809C244.059 102.456 243.673 103.292 243.584 104.185C243.495 105.077 243.708 105.973 244.19 106.729L242.71 108.229C242.615 108.327 242.54 108.442 242.489 108.568C242.438 108.694 242.413 108.829 242.414 108.965C242.417 109.24 242.529 109.502 242.725 109.694C242.921 109.887 243.186 109.993 243.461 109.99C243.735 109.987 243.998 109.876 244.19 109.679L245.66 108.169C246.508 108.677 247.514 108.853 248.484 108.663C249.454 108.473 250.319 107.931 250.913 107.141C251.507 106.351 251.787 105.369 251.7 104.384C251.612 103.4 251.164 102.483 250.44 101.809ZM245.44 106.939C245.007 106.496 244.715 105.934 244.6 105.326C244.485 104.717 244.552 104.087 244.792 103.516C245.033 102.945 245.437 102.458 245.953 102.115C246.469 101.773 247.075 101.59 247.695 101.59C248.315 101.59 248.921 101.773 249.437 102.115C249.953 102.458 250.357 102.945 250.598 103.516C250.838 104.087 250.905 104.717 250.79 105.326C250.675 105.934 250.383 106.496 249.95 106.939C249.653 107.238 249.301 107.476 248.912 107.638C248.523 107.8 248.106 107.883 247.685 107.883C247.264 107.883 246.847 107.8 246.458 107.638C246.069 107.476 245.717 107.238 245.42 106.939H245.44Z" fill="#407BFF"/>
</svg>
