<svg width="322" height="280" viewBox="0 0 322 280" fill="none" xmlns="http://www.w3.org/2000/svg">
<path d="M7.78066 103.841C30.4387 189.753 132.085 222.505 181.65 133.612C207.195 87.784 299.527 173.869 293.524 107.098C285.247 15.0501 182.035 86.7849 131.456 72.7731C96.682 63.2063 96.8158 0.739368 43.5379 11.0614C1.41595 19.2198 -1.6602 68.1235 7.78066 103.841Z" fill="#9468B4"/>
<path opacity="0.9" d="M7.78066 103.841C30.4387 189.753 132.085 222.505 181.65 133.612C207.195 87.784 299.527 173.869 293.524 107.098C285.247 15.0501 182.035 86.7849 131.456 72.7731C96.682 63.2063 96.8158 0.739368 43.5379 11.0614C1.41595 19.2198 -1.6602 68.1235 7.78066 103.841Z" fill="white"/>
<path d="M152.541 280C236.786 280 305.081 276.013 305.081 271.094C305.081 266.176 236.786 262.188 152.541 262.188C68.2947 262.188 0 266.176 0 271.094C0 276.013 68.2947 280 152.541 280Z" fill="#F5F5F5"/>
<path d="M204.324 49.6115V135.437H128.302V29.353H184.058L204.324 49.6115Z" fill="#9468B4"/>
<path opacity="0.8" d="M204.324 49.6115V135.437H128.302V29.353H184.058L204.324 49.6115Z" fill="white"/>
<path opacity="0.2" d="M204.324 86.6748H128.302V91.8594H204.324V86.6748Z" fill="#9468B4"/>
<path d="M204.324 49.6115H184.058V29.353L204.324 49.6115Z" fill="#9468B4"/>
<path d="M182.885 203.631H127.633C127.633 203.631 131.102 249.128 120.938 267.57H189.573C179.416 249.128 182.885 203.631 182.885 203.631Z" fill="#9468B4"/>
<path opacity="0.2" d="M183.963 247.94C181.044 227.713 182.885 203.631 182.885 203.631H127.633C127.633 203.631 129.285 225.314 126.964 244.809L183.963 247.94Z" fill="black"/>
<path d="M197.55 265.972H112.968C112.217 265.974 111.498 266.273 110.968 266.804C110.437 267.335 110.138 268.054 110.136 268.804H200.382C200.38 268.054 200.081 267.335 199.551 266.804C199.02 266.273 198.301 265.974 197.55 265.972Z" fill="#9468B4"/>
<path d="M277.262 178.691H276.452V184.23H277.262V178.691Z" fill="#9468B4"/>
<path d="M277.262 157.819H276.452V173.696H277.262V157.819Z" fill="#9468B4"/>
<path d="M268.86 90.5693H41.6579C38.586 90.5693 36.0957 93.0596 36.0957 96.1316V233.724C36.0957 236.796 38.586 239.286 41.6579 239.286H268.86C271.932 239.286 274.422 236.796 274.422 233.724V96.1316C274.422 93.0596 271.932 90.5693 268.86 90.5693Z" fill="#9468B4"/>
<path d="M266.665 94.1411H43.845C41.503 94.1411 39.6045 96.0397 39.6045 98.3816V199.391C39.6045 201.733 41.503 203.631 43.845 203.631H266.665C269.007 203.631 270.905 201.733 270.905 199.391V98.3816C270.905 96.0397 269.007 94.1411 266.665 94.1411Z" fill="white"/>
<path opacity="0.9" d="M36.1035 207.179V233.708C36.1077 235.182 36.695 236.594 37.7372 237.637C38.7795 238.679 40.1918 239.266 41.6658 239.27H268.86C270.334 239.266 271.746 238.679 272.788 237.637C273.831 236.594 274.418 235.182 274.422 233.708V207.179H36.1035Z" fill="white"/>
<path opacity="0.5" d="M155.255 228.602C158.214 228.602 160.613 226.203 160.613 223.244C160.613 220.285 158.214 217.887 155.255 217.887C152.296 217.887 149.897 220.285 149.897 223.244C149.897 226.203 152.296 228.602 155.255 228.602Z" fill="#9468B4"/>
<path opacity="0.4" d="M99.334 74.3389V151.793H176.788L99.334 74.3389ZM116.351 115.438L135.689 134.8H116.351V115.438Z" fill="#9468B4"/>
<path d="M188.094 164.145V180.084C188.1 182.662 189.126 185.132 190.948 186.956C192.77 188.779 195.24 189.808 197.818 189.816H254.03C256.609 189.808 259.079 188.78 260.903 186.956C262.726 185.133 263.754 182.662 263.762 180.084V123.879C263.754 121.302 262.726 118.832 260.902 117.01C259.079 115.188 256.608 114.161 254.03 114.155H197.818C195.241 114.162 192.771 115.188 190.949 117.01C189.126 118.833 188.1 121.302 188.094 123.879V141.353" fill="white"/>
<path d="M254.03 190.217H250.883V189.431H254.117V190.217H254.03ZM247.673 190.217H244.432V189.431H247.673V190.217ZM241.183 190.217H237.941V189.431H241.183V190.217ZM234.7 190.217H231.451V189.431H234.692L234.7 190.217ZM228.217 190.217H224.976V189.431H228.217V190.217ZM221.734 190.217H218.485V189.431H221.734V190.217ZM215.244 190.217H212.003V189.431H215.244V190.217ZM208.761 190.217H205.52V189.431H208.761V190.217ZM202.278 190.217H199.029V189.431H202.278V190.217ZM195.725 189.997C194.613 189.763 193.549 189.343 192.578 188.754L193.003 188.062C193.888 188.603 194.859 188.989 195.874 189.202L195.725 189.997ZM257.468 189.612L257.193 188.825C258.167 188.467 259.077 187.952 259.883 187.298L260.395 187.928C259.519 188.651 258.526 189.22 257.46 189.612H257.468ZM190.053 186.567C189.328 185.701 188.753 184.72 188.353 183.664L189.14 183.381C189.514 184.35 190.046 185.251 190.713 186.048L190.053 186.567ZM262.621 185.442L261.937 185.009C262.489 184.131 262.888 183.165 263.117 182.153L263.904 182.334C263.653 183.436 263.216 184.487 262.613 185.442H262.621ZM187.7 180.367C187.7 180.273 187.7 180.179 187.7 180.084V177.118H188.487V180.344L187.7 180.367ZM264.163 179.022H263.377V175.781H264.163V179.022ZM188.503 173.869H187.716V170.628H188.503V173.869ZM264.155 172.563H263.369V169.322H264.155V172.563ZM188.495 167.41H187.708V164.145H188.495V167.41ZM264.155 166.072H263.369V162.807H264.155V166.072ZM264.155 159.59H263.369V156.348H264.155V159.59ZM264.155 153.107H263.369V149.865H264.155V153.107ZM264.155 146.624H263.369V143.375H264.155V146.624ZM188.495 140.897H187.708V137.647H188.495V140.897ZM264.155 140.11H263.369V136.869H264.155V140.11ZM188.495 134.382H187.708V131.141H188.495V134.382ZM264.155 133.596H263.369V130.354H264.155V133.596ZM188.495 127.868H187.708V124.627H188.495V127.868ZM264.155 127.082H263.369V123.832H264.155V127.082ZM188.794 121.48L188.007 121.275C188.29 120.181 188.758 119.143 189.392 118.207L190.06 118.663C189.476 119.543 189.047 120.517 188.794 121.543V121.48ZM262.834 120.788C262.498 119.804 261.995 118.886 261.347 118.073L261.984 117.57C262.685 118.456 263.233 119.453 263.605 120.52L262.834 120.788ZM192.185 116.406L191.689 115.76C192.587 115.075 193.591 114.544 194.663 114.187L194.915 114.974C193.928 115.318 193.006 115.823 192.185 116.468V116.406ZM259.057 115.989C258.187 115.422 257.226 115.007 256.217 114.761L256.414 113.975C257.526 114.258 258.583 114.729 259.537 115.367L259.057 115.989ZM253.094 114.494H249.86V113.707H253.102L253.094 114.494ZM246.611 114.494H243.37V113.707H246.611V114.494ZM240.128 114.494H236.879V113.707H240.128V114.494ZM233.638 114.494H230.428V113.707H233.669L233.638 114.494ZM227.155 114.494H223.914V113.707H227.155V114.494ZM220.672 114.494H217.423V113.707H220.672V114.494ZM214.182 114.494H210.94V113.707H214.182V114.494ZM207.699 114.494H204.466V113.707H207.707L207.699 114.494ZM201.216 114.494H197.975V113.707H201.216V114.494Z" fill="#9468B4"/>
<path d="M188.228 153.579V143.697C187.03 146.244 186.397 149.018 186.371 151.832L187.7 153.162V154.114L185.726 156.088C185.733 155.959 185.713 155.829 185.668 155.708C185.624 155.586 185.555 155.475 185.466 155.38C184.994 154.9 184.011 155.113 183.279 155.844C182.547 156.576 182.335 157.552 182.815 158.032C183.295 158.512 184.27 158.299 185.002 157.567L187.7 154.869V159.188C187.7 160.227 188.243 161.068 188.912 161.068C189.581 161.068 190.131 160.227 190.131 159.188C190.131 158.15 189.589 157.316 188.912 157.316C188.783 157.32 188.656 157.351 188.54 157.406C188.424 157.462 188.32 157.541 188.235 157.638V154.358L189.25 153.343H191.091C193.062 151.33 194.573 148.915 195.521 146.262L188.228 153.579ZM184.75 157.324C184.231 157.851 183.523 158 183.177 157.662C182.831 157.324 182.988 156.615 183.515 156.088C184.042 155.561 184.742 155.412 185.088 155.75C185.435 156.088 185.285 156.828 184.75 157.324ZM188.904 157.819C189.392 157.819 189.785 158.417 189.785 159.165C189.785 159.912 189.392 160.518 188.904 160.518C188.416 160.518 188.031 159.912 188.031 159.165C188.031 158.417 188.424 157.819 188.904 157.819Z" fill="#9468B4"/>
<path d="M157.757 171.721C156.865 170.821 156.365 169.605 156.365 168.338C156.365 167.071 156.865 165.855 157.757 164.955L160.794 161.918C161.693 161.022 162.911 160.519 164.181 160.519C165.45 160.519 166.668 161.022 167.568 161.918C168.463 162.816 168.966 164.033 168.966 165.301C168.966 166.569 168.463 167.786 167.568 168.684L164.531 171.721C163.632 172.617 162.414 173.12 161.144 173.12C159.874 173.12 158.657 172.617 157.757 171.721Z" fill="#263238"/>
<path d="M142.4 192.821L161.03 174.191L155.294 168.456L136.664 187.086C136.446 187.303 136.302 187.583 136.251 187.886C136.2 188.19 136.246 188.501 136.381 188.777C136.484 188.977 136.538 189.198 136.538 189.423C136.538 189.647 136.484 189.868 136.381 190.068C136.15 190.49 136.062 190.976 136.13 191.452C136.198 191.929 136.419 192.371 136.759 192.711C137.101 193.051 137.544 193.272 138.021 193.342C138.498 193.411 138.985 193.325 139.41 193.097C139.61 192.994 139.831 192.94 140.055 192.94C140.28 192.94 140.501 192.994 140.7 193.097C140.976 193.236 141.29 193.285 141.595 193.235C141.9 193.186 142.182 193.041 142.4 192.821Z" fill="white"/>
<path d="M138.38 194.175C137.852 194.175 137.334 194.039 136.875 193.779C136.416 193.519 136.032 193.144 135.762 192.691C135.491 192.238 135.343 191.723 135.332 191.195C135.32 190.668 135.446 190.146 135.697 189.682C135.741 189.599 135.764 189.506 135.764 189.411C135.764 189.316 135.741 189.223 135.697 189.14C135.486 188.711 135.415 188.227 135.492 187.756C135.57 187.285 135.793 186.85 136.13 186.512L154.76 167.882C154.833 167.803 154.922 167.741 155.021 167.698C155.12 167.655 155.227 167.633 155.334 167.633C155.442 167.633 155.548 167.655 155.647 167.698C155.746 167.741 155.835 167.803 155.908 167.882L161.636 173.617C161.715 173.691 161.777 173.78 161.82 173.878C161.863 173.977 161.885 174.084 161.885 174.191C161.885 174.299 161.863 174.406 161.82 174.504C161.777 174.603 161.715 174.692 161.636 174.766L143.006 193.396C142.67 193.733 142.236 193.957 141.766 194.034C141.296 194.112 140.813 194.04 140.386 193.828C140.302 193.786 140.209 193.764 140.115 193.764C140.021 193.764 139.928 193.786 139.843 193.828C139.393 194.067 138.889 194.186 138.38 194.175ZM155.318 169.605L137.263 187.66C137.157 187.759 137.087 187.889 137.064 188.032C137.041 188.175 137.067 188.321 137.137 188.447C137.3 188.762 137.385 189.111 137.385 189.466C137.385 189.821 137.3 190.17 137.137 190.485C136.993 190.754 136.939 191.063 136.984 191.365C137.028 191.668 137.169 191.948 137.385 192.164C137.602 192.38 137.881 192.521 138.184 192.566C138.486 192.61 138.795 192.557 139.064 192.412C139.379 192.25 139.729 192.165 140.083 192.165C140.438 192.165 140.787 192.25 141.102 192.412C141.229 192.48 141.375 192.504 141.517 192.481C141.659 192.459 141.789 192.39 141.889 192.286L159.984 174.231L155.318 169.605Z" fill="#9468B4"/>
<path d="M153.776 165.388C154.218 164.948 154.817 164.702 155.44 164.702C156.064 164.702 156.662 164.948 157.104 165.388L164.098 172.382C164.535 172.824 164.781 173.42 164.781 174.042C164.781 174.664 164.535 175.26 164.098 175.702C163.656 176.139 163.06 176.385 162.438 176.385C161.817 176.385 161.22 176.139 160.778 175.702L153.776 168.708C153.339 168.266 153.094 167.67 153.094 167.048C153.094 166.426 153.339 165.83 153.776 165.388Z" fill="#263238"/>
<path d="M243.506 90.6866L230.75 77.9305C230.206 77.3866 229.325 77.3867 228.781 77.9305L222.984 83.7272C222.44 84.271 222.44 85.1527 222.984 85.6965L235.74 98.4526C236.284 98.9965 237.166 98.9965 237.71 98.4527L243.506 92.6559C244.05 92.1121 244.05 91.2304 243.506 90.6866Z" fill="#263238"/>
<path d="M264.195 57.2509L238.815 82.631L234.535 78.3433C238.241 74.6378 236.109 65.9915 236.109 65.9915L243.15 58.9502C254.542 57.3767 278.553 40.3281 278.553 40.3281L279.34 41.1149L264.258 56.1258C264.179 56.1948 264.114 56.2789 264.068 56.3733C264.022 56.4676 263.995 56.5702 263.989 56.6751C263.984 56.7799 263.999 56.8849 264.034 56.9838C264.069 57.0827 264.124 57.1735 264.195 57.2509Z" fill="#9468B4"/>
<path d="M262.487 78.3121L255.446 85.3928C255.446 85.3928 246.792 83.2371 243.094 86.9662L238.814 82.6864L264.195 57.3062C264.274 57.3758 264.366 57.4289 264.465 57.4623C264.565 57.4957 264.671 57.5087 264.775 57.5007C264.88 57.4926 264.983 57.4636 265.076 57.4153C265.169 57.367 265.252 57.3005 265.32 57.2197L280.362 42.1772L281.149 42.964C281.149 42.964 264.084 66.928 262.487 78.3121Z" fill="#9468B4"/>
<path opacity="0.2" d="M262.487 78.3121L255.446 85.3928C255.446 85.3928 246.792 83.2371 243.094 86.9662L238.814 82.6864L264.195 57.3062C264.274 57.3758 264.366 57.4289 264.465 57.4623C264.565 57.4957 264.671 57.5087 264.775 57.5007C264.88 57.4926 264.983 57.4636 265.076 57.4153C265.169 57.367 265.252 57.3005 265.32 57.2197L280.362 42.1772L281.149 42.964C281.149 42.964 264.084 66.928 262.487 78.3121Z" fill="white"/>
<path d="M283.926 93.0162L283.47 92.5599C287.142 88.9734 290.066 84.6938 292.072 79.969C294.079 75.2442 295.127 70.1683 295.158 65.0353C295.188 59.9023 294.2 54.8143 292.249 50.0662C290.299 45.318 287.426 41.0042 283.796 37.3745C280.166 33.7449 275.852 30.8716 271.104 28.9213C266.356 26.971 261.268 25.9823 256.135 26.0127C251.002 26.043 245.926 27.0917 241.201 29.098C236.477 31.1043 232.197 34.0284 228.611 37.7006L228.154 37.2443C231.801 33.5141 236.152 30.5444 240.954 28.5073C245.757 26.4702 250.916 25.4061 256.133 25.3766C261.349 25.3471 266.52 26.3529 271.345 28.3356C276.17 30.3183 280.554 33.2387 284.243 36.9274C287.932 40.6162 290.852 45.0002 292.835 49.8254C294.818 54.6507 295.823 59.8213 295.794 65.038C295.764 70.2546 294.7 75.4136 292.663 80.2161C290.626 85.0186 287.656 89.3693 283.926 93.0162Z" fill="#9468B4"/>
<path d="M248.906 2.1908L248.45 2.64697L318.551 72.7473L319.007 72.2911L248.906 2.1908Z" fill="#9468B4"/>
<path d="M286.622 37.466L283.729 34.5732L280.837 37.466L283.73 40.3588L286.622 37.466Z" fill="#9468B4"/>
<path d="M283.73 40.887L280.315 37.4726L283.73 34.0581L287.152 37.4726L283.73 40.887ZM281.37 37.4726L283.73 39.8328L286.09 37.4726L283.73 35.1123L281.37 37.4726Z" fill="#9468B4"/>
<path d="M231.302 37.4685L228.409 34.5757L225.516 37.4685L228.409 40.3613L231.302 37.4685Z" fill="white"/>
<path d="M228.414 40.887L225 37.4726L228.414 34.0581L231.829 37.4726L228.414 40.887ZM226.054 37.4726L228.414 39.8328L230.775 37.4726L228.414 35.1123L226.054 37.4726Z" fill="#9468B4"/>
<path d="M286.748 92.904L283.855 90.0112L280.963 92.904L283.855 95.7968L286.748 92.904Z" fill="white"/>
<path d="M283.855 96.3201L280.44 92.9057L283.855 89.4912L287.269 92.9057L283.855 96.3201ZM281.495 92.9057L283.855 95.2659L286.215 92.9057L283.855 90.5454L281.495 92.9057Z" fill="#9468B4"/>
<path d="M320.352 74.0869C320.066 74.3726 319.701 74.5671 319.305 74.6457C318.908 74.7244 318.497 74.6837 318.123 74.5288C317.75 74.3738 317.43 74.1117 317.206 73.7754C316.981 73.439 316.861 73.0437 316.861 72.6393C316.861 72.2349 316.981 71.8395 317.206 71.5032C317.43 71.1669 317.75 70.9047 318.123 70.7498C318.497 70.5949 318.908 70.5542 319.305 70.6328C319.701 70.7115 320.066 70.9059 320.352 71.1917C320.734 71.5764 320.949 72.0968 320.949 72.6393C320.949 73.1817 320.734 73.7021 320.352 74.0869Z" fill="white"/>
<path d="M318.904 75.0547C318.345 75.055 317.803 74.8615 317.371 74.5072C316.939 74.153 316.643 73.6598 316.534 73.1118C316.425 72.5638 316.509 71.9948 316.772 71.5019C317.035 71.0089 317.461 70.6225 317.977 70.4084C318.493 70.1943 319.068 70.1658 319.603 70.3278C320.138 70.4898 320.6 70.8322 320.91 71.2967C321.221 71.7612 321.361 72.3191 321.306 72.8752C321.252 73.4313 321.006 73.9513 320.611 74.3466C320.387 74.5717 320.121 74.7501 319.828 74.8716C319.535 74.9932 319.221 75.0554 318.904 75.0547ZM318.904 70.9637C318.516 70.9651 318.141 71.1008 317.842 71.3477C317.544 71.5947 317.34 71.9376 317.265 72.318C317.191 72.6984 317.251 73.0928 317.435 73.4341C317.618 73.7754 317.915 74.0423 318.273 74.1896C318.632 74.3368 319.031 74.3552 319.401 74.2415C319.772 74.1279 320.091 73.8893 320.306 73.5664C320.52 73.2436 320.616 72.8563 320.577 72.4707C320.538 72.085 320.367 71.7248 320.092 71.4514C319.775 71.139 319.349 70.9638 318.904 70.9637Z" fill="#9468B4"/>
<path d="M250.096 3.86272C249.81 4.14956 249.446 4.34515 249.049 4.4247C248.652 4.50425 248.24 4.4642 247.866 4.3096C247.492 4.15501 247.172 3.89284 246.947 3.55629C246.722 3.21974 246.602 2.82395 246.602 2.41906C246.602 2.01416 246.722 1.61838 246.947 1.28182C247.172 0.945273 247.492 0.6831 247.866 0.528507C248.24 0.373914 248.652 0.333853 249.049 0.413406C249.446 0.49296 249.81 0.688549 250.096 0.975393C250.478 1.35878 250.693 1.87789 250.693 2.41906C250.693 2.96022 250.478 3.47933 250.096 3.86272Z" fill="white"/>
<path d="M248.68 4.83057C248.202 4.83057 247.735 4.68892 247.338 4.42352C246.941 4.15813 246.631 3.78091 246.448 3.33958C246.266 2.89824 246.218 2.41261 246.311 1.94409C246.404 1.47557 246.634 1.04521 246.972 0.707422C247.31 0.369638 247.74 0.139603 248.209 0.0464091C248.677 -0.0467852 249.163 0.00104934 249.604 0.183857C250.046 0.366664 250.423 0.676235 250.688 1.07343C250.954 1.47062 251.095 1.93759 251.095 2.41529C251.098 2.73286 251.037 3.04774 250.915 3.34109C250.794 3.63444 250.614 3.90022 250.387 4.12251C250.165 4.34932 249.899 4.52894 249.606 4.6506C249.312 4.77227 248.998 4.83348 248.68 4.83057ZM248.68 0.739534C248.46 0.739503 248.243 0.783327 248.04 0.868435C247.837 0.953542 247.654 1.07823 247.5 1.23518C247.232 1.55642 247.094 1.96622 247.113 2.38407C247.132 2.80191 247.306 3.19759 247.602 3.49336C247.898 3.78912 248.293 3.96359 248.711 3.98247C249.129 4.00135 249.539 3.86328 249.86 3.5954C250.017 3.43983 250.141 3.25477 250.226 3.05089C250.312 2.84702 250.355 2.62833 250.356 2.40742C250.352 1.9629 250.173 1.53788 249.858 1.22428C249.542 0.910678 249.117 0.733714 248.672 0.731665L248.68 0.739534Z" fill="#9468B4"/>
<path d="M88.9403 43.8608H57.5967V172.485H88.9403V43.8608Z" fill="#9468B4"/>
<path opacity="0.7" d="M88.9403 43.8608H57.5967V172.485H88.9403V43.8608Z" fill="white"/>
<path opacity="0.3" d="M86.604 49.9897H59.9414V62.2393H86.604V49.9897Z" fill="#263238"/>
<path opacity="0.416667" d="M86.604 64.8037H59.9414V77.0532H86.604V64.8037Z" fill="#263238"/>
<path opacity="0.533333" d="M86.604 79.6182H59.9414V91.8677H86.604V79.6182Z" fill="#263238"/>
<path opacity="0.65" d="M86.604 94.4404H59.9414V106.69H86.604V94.4404Z" fill="#263238"/>
<path opacity="0.766667" d="M86.604 109.254H59.9414V121.504H86.604V109.254Z" fill="#263238"/>
<path opacity="0.883333" d="M86.604 124.069H59.9414V136.318H86.604V124.069Z" fill="#263238"/>
<path d="M86.604 138.891H59.9414V151.141H86.604V138.891Z" fill="#263238"/>
<path d="M66.8398 51.512L35.9629 56.9009L58.0771 183.609L88.954 178.22L66.8398 51.512Z" fill="#9468B4"/>
<path opacity="0.8" d="M66.8398 51.512L35.9629 56.9009L58.0771 183.609L88.954 178.22L66.8398 51.512Z" fill="white"/>
<path d="M65.5897 57.9447L39.3242 62.5288L41.4303 74.5959L67.6958 70.0119L65.5897 57.9447Z" fill="#9468B4"/>
<path d="M68.1415 72.5439L41.876 77.1279L43.982 89.195L70.2475 84.611L68.1415 72.5439Z" fill="#9468B4"/>
<path d="M70.6913 87.1435L44.4258 91.7275L46.5318 103.795L72.7973 99.2106L70.6913 87.1435Z" fill="#9468B4"/>
<path d="M73.2333 101.736L46.9678 106.32L49.0738 118.387L75.3393 113.803L73.2333 101.736Z" fill="#9468B4"/>
<path d="M75.785 116.335L49.5195 120.919L51.6256 132.987L77.8911 128.402L75.785 116.335Z" fill="#9468B4"/>
<path d="M78.5541 132.085L52.1582 136.617L54.2406 148.744L80.6365 144.212L78.5541 132.085Z" fill="#9468B4"/>
<path d="M80.8768 145.519L54.6113 150.104L56.7174 162.171L82.9829 157.587L80.8768 145.519Z" fill="#9468B4"/>
<path opacity="0.05" d="M65.5897 57.9447L39.3242 62.5288L41.4303 74.5959L67.6958 70.0119L65.5897 57.9447Z" fill="black"/>
<path opacity="0.1" d="M68.1415 72.5439L41.876 77.1279L43.982 89.195L70.2475 84.611L68.1415 72.5439Z" fill="black"/>
<path opacity="0.2" d="M70.6913 87.1435L44.4258 91.7275L46.5318 103.795L72.7973 99.2106L70.6913 87.1435Z" fill="black"/>
<path opacity="0.3" d="M73.2333 101.736L46.9678 106.32L49.0738 118.387L75.3393 113.803L73.2333 101.736Z" fill="black"/>
<path opacity="0.4" d="M75.785 116.335L49.5195 120.919L51.6256 132.987L77.8911 128.402L75.785 116.335Z" fill="black"/>
<path opacity="0.5" d="M78.5541 132.085L52.1582 136.617L54.2406 148.744L80.6365 144.212L78.5541 132.085Z" fill="black"/>
<path opacity="0.6" d="M80.8768 145.519L54.6113 150.104L56.7174 162.171L82.9829 157.587L80.8768 145.519Z" fill="black"/>
<path d="M45.1722 63.0266L15.7002 73.6953L59.4811 194.639L88.9531 183.97L45.1722 63.0266Z" fill="#9468B4"/>
<path opacity="0.9" d="M45.1722 63.0266L15.7002 73.6953L59.4811 194.639L88.9531 183.97L45.1722 63.0266Z" fill="white"/>
<path d="M45.0578 69.577L19.9873 78.6523L24.1568 90.1704L49.2273 81.095L45.0578 69.577Z" fill="#9468B4"/>
<path d="M50.1047 83.5106L25.0342 92.5859L29.2037 104.104L54.2741 95.0286L50.1047 83.5106Z" fill="#9468B4"/>
<path d="M55.1369 97.4471L30.0664 106.522L34.2359 118.041L59.3064 108.965L55.1369 97.4471Z" fill="#9468B4"/>
<path d="M60.1847 111.381L35.1143 120.456L39.2837 131.974L64.3542 122.899L60.1847 111.381Z" fill="#9468B4"/>
<path d="M65.2316 125.306L40.1611 134.382L44.3306 145.9L69.4011 136.825L65.2316 125.306Z" fill="#9468B4"/>
<path d="M70.2707 139.24L45.2002 148.315L49.3697 159.833L74.4401 150.758L70.2707 139.24Z" fill="#9468B4"/>
<path d="M75.3175 153.174L50.2471 162.249L54.4165 173.767L79.487 164.692L75.3175 153.174Z" fill="#9468B4"/>
<path opacity="0.6" d="M45.0578 69.577L19.9873 78.6523L24.1568 90.1704L49.2273 81.095L45.0578 69.577Z" fill="white"/>
<path opacity="0.5" d="M50.1047 83.5106L25.0342 92.5859L29.2037 104.104L54.2741 95.0286L50.1047 83.5106Z" fill="white"/>
<path opacity="0.4" d="M55.1369 97.4471L30.0664 106.522L34.2359 118.041L59.3064 108.965L55.1369 97.4471Z" fill="white"/>
<path opacity="0.3" d="M60.1847 111.381L35.1143 120.456L39.2837 131.974L64.3542 122.899L60.1847 111.381Z" fill="white"/>
<path opacity="0.2" d="M65.2316 125.306L40.1611 134.382L44.3306 145.9L69.4011 136.825L65.2316 125.306Z" fill="white"/>
<path opacity="0.1" d="M70.2707 139.24L45.2002 148.315L49.3697 159.833L74.4401 150.758L70.2707 139.24Z" fill="white"/>
</svg>
