<svg width="446" height="332" viewBox="0 0 446 332" fill="none" xmlns="http://www.w3.org/2000/svg">
<g opacity="0.3">
<path d="M446 291.388H0.998047V291.61H446V291.388Z" fill="#EBEBEB"/>
<path d="M401.411 305.708H371.934V305.931H401.411V305.708Z" fill="#EBEBEB"/>
<path d="M244.166 302.922H232.693V303.144H244.166V302.922Z" fill="#EBEBEB"/>
<path d="M312.206 303.865H288.052V304.088H312.206V303.865Z" fill="#EBEBEB"/>
<path d="M371.044 297.448H321.105V297.671H371.044V297.448Z" fill="#EBEBEB"/>
<path d="M71.2993 307.746H47.6875V307.969H71.2993V307.746Z" fill="#EBEBEB"/>
<path d="M99.6898 307.746H79.2197V307.969H99.6898V307.746Z" fill="#EBEBEB"/>
<path d="M171.71 302.815H117.589V303.038H171.71V302.815Z" fill="#EBEBEB"/>
<path d="M211.93 251.693H40.0878C38.74 251.693 37.4474 251.158 36.4943 250.205C35.5413 249.252 35.0059 247.959 35.0059 246.611V5.03742C35.0176 3.69734 35.5582 2.41614 36.51 1.47269C37.4617 0.529252 38.7476 -5.13763e-05 40.0878 3.74029e-09H211.93C213.278 3.7403e-09 214.57 0.535416 215.523 1.48846C216.476 2.44151 217.012 3.73411 217.012 5.08192V246.611C217.012 247.959 216.476 249.252 215.523 250.205C214.57 251.158 213.278 251.693 211.93 251.693ZM40.0878 0.178002C38.7997 0.180354 37.5651 0.693082 36.6543 1.60389C35.7434 2.5147 35.2307 3.74935 35.2284 5.03742V246.611C35.2307 247.899 35.7434 249.134 36.6543 250.045C37.5651 250.956 38.7997 251.468 40.0878 251.471H211.93C213.218 251.468 214.453 250.956 215.363 250.045C216.274 249.134 216.787 247.899 216.789 246.611V5.03742C216.787 3.74935 216.274 2.5147 215.363 1.60389C214.453 0.693082 213.218 0.180354 211.93 0.178002H40.0878Z" fill="#EBEBEB"/>
<path d="M404.445 251.693H232.585C231.238 251.691 229.947 251.155 228.994 250.202C228.041 249.25 227.505 247.958 227.503 246.611V5.03742C227.517 3.69807 228.058 2.41821 229.01 1.47526C229.961 0.532319 231.245 0.00226799 232.585 0H404.445C405.782 0.00463202 407.063 0.536004 408.011 1.47895C408.959 2.42189 409.497 3.70042 409.509 5.03742V246.611C409.509 247.956 408.976 249.246 408.027 250.198C407.077 251.151 405.789 251.689 404.445 251.693ZM232.585 0.178002C231.297 0.180354 230.062 0.693082 229.151 1.60389C228.241 2.5147 227.728 3.74935 227.725 5.03742V246.611C227.728 247.899 228.241 249.134 229.151 250.045C230.062 250.956 231.297 251.468 232.585 251.471H404.445C405.733 251.468 406.967 250.956 407.878 250.045C408.789 249.134 409.302 247.899 409.304 246.611V5.03742C409.302 3.74935 408.789 2.5147 407.878 1.60389C406.967 0.693082 405.733 0.180354 404.445 0.178002H232.585Z" fill="#EBEBEB"/>
<path d="M67.4539 174.699L199.513 174.699L199.513 35.3423L67.4539 35.3423L67.4539 174.699Z" fill="#E6E6E6"/>
<path d="M61.8385 174.699L196.888 174.699L196.888 35.3423L61.8385 35.3423L61.8385 174.699Z" fill="#F0F0F0"/>
<path d="M67.4539 179.905L199.513 179.905V174.699L67.4539 174.699V179.905Z" fill="#E6E6E6"/>
<path d="M52.5113 179.905L187.561 179.905V174.699L52.5113 174.699V179.905Z" fill="#F0F0F0"/>
<path d="M189.048 166.849V43.1826L69.6894 43.1826L69.6894 166.849H189.048Z" fill="#FAFAFA"/>
<path d="M148.402 166.849L129.462 43.1826H107.729L126.668 166.849H148.402Z" fill="white"/>
<path d="M121.994 166.849L103.055 43.1826H94.582L113.521 166.849H121.994Z" fill="white"/>
<path d="M70.6953 166.849L70.6953 43.1826H69.6985L69.6985 166.849H70.6953Z" fill="#E6E6E6"/>
<path d="M191.638 100.072H67.0996V109.96H191.638V100.072Z" fill="#F0F0F0"/>
<path d="M244.174 291.388H259.357V107.62H244.174L244.174 291.388Z" fill="#E6E6E6"/>
<path d="M248.162 291.388H244.166V283.93H252.345L248.162 291.388Z" fill="#F0F0F0"/>
<path d="M367.065 291.388H382.248V107.62H367.065V291.388Z" fill="#E6E6E6"/>
<path d="M244.165 288.78H370.546V107.62L244.165 107.62L244.165 288.78Z" fill="#F0F0F0"/>
<path d="M250.146 163.075L364.565 163.075C366.157 163.075 367.448 161.784 367.448 160.192V113.466C367.448 111.874 366.157 110.583 364.565 110.583L250.146 110.583C248.553 110.583 247.262 111.874 247.262 113.466V160.192C247.262 161.784 248.553 163.075 250.146 163.075Z" fill="#E6E6E6"/>
<path d="M366.55 291.388H370.546V283.93H362.367L366.55 291.388Z" fill="#F0F0F0"/>
<path d="M250.146 224.05L364.565 224.05C366.157 224.05 367.448 222.759 367.448 221.166V174.441C367.448 172.848 366.157 171.557 364.565 171.557H250.146C248.553 171.557 247.262 172.848 247.262 174.441V221.166C247.262 222.759 248.553 224.05 250.146 224.05Z" fill="#E6E6E6"/>
<path d="M250.146 285.032H364.565C366.157 285.032 367.448 283.741 367.448 282.149V235.423C367.448 233.831 366.157 232.54 364.565 232.54H250.146C248.553 232.54 247.262 233.831 247.262 235.423V282.149C247.262 283.741 248.553 285.032 250.146 285.032Z" fill="#E6E6E6"/>
<path d="M283.2 117.063H328.831C330.753 117.063 332.595 114.197 333.913 109.15H278.109C279.435 114.197 281.278 117.063 283.2 117.063Z" fill="#F0F0F0"/>
<path d="M283.2 178.001H328.831C330.753 178.001 332.595 175.144 333.913 170.089H278.109C279.435 175.18 281.278 178.001 283.2 178.001Z" fill="#F0F0F0"/>
<path d="M283.2 239.011H328.831C330.753 239.011 332.595 236.154 333.913 231.099H278.109C279.435 236.154 281.278 239.011 283.2 239.011Z" fill="#F0F0F0"/>
<path d="M339.627 82.1826C339.627 82.1826 339.832 107.824 347.566 107.824C355.3 107.824 355.514 82.1826 355.514 82.1826H339.627Z" fill="#E6E6E6"/>
<path d="M256.136 82.3701C256.136 82.3701 256.634 107.824 275.921 107.824C295.207 107.824 295.705 82.3701 295.705 82.3701H256.136Z" fill="#E6E6E6"/>
<path d="M280.789 88.7607C280.789 88.7607 281.163 107.825 295.608 107.825C310.052 107.825 310.426 88.7607 310.426 88.7607H280.789Z" fill="#F0F0F0"/>
<path d="M300.039 93.8506C300.039 93.8506 300.315 107.824 310.897 107.824C321.479 107.824 321.755 93.8506 321.755 93.8506H300.039Z" fill="#EBEBEB"/>
<path d="M352.549 85.9478C352.451 85.9495 352.353 85.9282 352.264 85.8855C351.374 85.4494 344.032 81.569 344.53 77.7776C344.784 76.4513 345.332 75.1985 346.132 74.1107C347.165 72.482 347.912 71.3161 346.622 69.5539C344.646 66.8839 346.8 64.6678 348.704 62.7276C349.612 61.8951 350.403 60.943 351.054 59.8974C351.837 58.4378 351.205 57.3253 350.333 55.7856C349.376 54.352 348.814 52.691 348.704 50.9706C348.671 49.0478 349.141 47.1497 350.069 45.4649C350.996 43.7802 352.348 42.3676 353.991 41.3675C354.062 41.3209 354.143 41.2895 354.227 41.2753C354.311 41.2611 354.398 41.2643 354.48 41.2849C354.563 41.3054 354.641 41.3427 354.709 41.3946C354.777 41.4464 354.833 41.5117 354.875 41.5863C354.917 41.6609 354.942 41.7433 354.951 41.8282C354.959 41.9132 354.95 41.9991 354.924 42.0804C354.898 42.1617 354.855 42.2367 354.799 42.3009C354.742 42.365 354.673 42.4169 354.596 42.4533C353.147 43.3408 351.955 44.5924 351.14 46.0837C350.325 47.5749 349.915 49.2537 349.95 50.9528C350.058 52.4627 350.562 53.9175 351.41 55.1714C352.3 56.7646 353.252 58.42 352.14 60.5115C351.436 61.6626 350.576 62.7109 349.585 63.6265C347.529 65.7269 346.337 67.0975 347.618 68.8508C349.398 71.2894 348.224 73.1584 347.182 74.796C346.482 75.7343 345.998 76.8165 345.767 77.9645C345.438 80.4476 350.751 83.7406 352.825 84.7997C352.947 84.8638 353.045 84.9668 353.103 85.0925C353.16 85.2183 353.174 85.3595 353.142 85.4941C353.111 85.6286 353.035 85.7489 352.928 85.8358C352.821 85.9228 352.687 85.9716 352.549 85.9745V85.9478Z" fill="#E6E6E6"/>
<path d="M361.45 52.1897C361.45 52.1897 351.188 51.5311 350.529 58.215C356.003 64.8634 361.45 52.1897 361.45 52.1897Z" fill="#F0F0F0"/>
<path d="M342.234 42.498C342.234 42.498 343.445 52.7064 350.138 52.1546C355.691 45.5953 342.234 42.498 342.234 42.498Z" fill="#F0F0F0"/>
<path d="M341.673 60.9023C341.673 60.9023 347.761 63.5724 346.177 67.5774C341.095 69.7935 341.673 60.9023 341.673 60.9023Z" fill="#F0F0F0"/>
<path d="M351.732 67.9336C351.732 67.9336 350.592 72.8998 347.326 72.2768C344.932 68.7435 351.732 67.9336 351.732 67.9336Z" fill="#F0F0F0"/>
<path d="M355.568 62.9681C355.568 62.9681 350.432 67.1778 347.558 63.9293C347.923 58.3935 355.568 62.9681 355.568 62.9681Z" fill="#F0F0F0"/>
<path d="M128.321 208.652H65.2549V291.387H128.321V208.652Z" fill="#F5F5F5"/>
<path d="M72.3672 283.777V216.262H71.2725V283.777H72.3672Z" fill="#E6E6E6"/>
<path d="M121.318 216.262H71.2637V217.65H121.318V216.262Z" fill="#E6E6E6"/>
<path d="M192.491 208.652H129.426V291.387H192.491V208.652Z" fill="#F5F5F5"/>
<path d="M192.492 291.388H198.775V208.653H192.492V291.388Z" fill="#E0E0E0"/>
<path d="M136.528 283.777V216.262H135.434V283.777H136.528Z" fill="#E6E6E6"/>
<path d="M129.417 291.378V209.756H128.322V291.378H129.417Z" fill="#E6E6E6"/>
<path d="M185.478 216.262H135.424V217.65H185.478V216.262Z" fill="#E6E6E6"/>
<path d="M125.066 216.956C125.378 216.956 125.678 217.08 125.899 217.3C126.121 217.52 126.247 217.818 126.249 218.131V237.355C126.245 237.666 126.118 237.962 125.896 238.181C125.675 238.399 125.376 238.521 125.066 238.521C124.753 238.521 124.453 238.397 124.232 238.177C124.01 237.957 123.884 237.658 123.882 237.346V218.122C123.887 217.811 124.013 217.515 124.235 217.296C124.456 217.078 124.755 216.956 125.066 216.956Z" fill="#E0E0E0"/>
<path d="M132.719 216.956C133.031 216.956 133.331 217.08 133.553 217.3C133.774 217.52 133.9 217.818 133.902 218.131V237.355C133.898 237.666 133.771 237.962 133.55 238.181C133.328 238.399 133.03 238.521 132.719 238.521C132.407 238.521 132.108 238.397 131.888 238.177C131.668 237.956 131.544 237.658 131.544 237.346V218.122C131.546 217.812 131.671 217.515 131.891 217.297C132.111 217.079 132.409 216.956 132.719 216.956Z" fill="#E0E0E0"/>
<path d="M200.804 205.84H63.2988V209.765H200.804V205.84Z" fill="#EBEBEB"/>
<path d="M200.804 205.84H189.83V209.765H200.804V205.84Z" fill="#E0E0E0"/>
</g>
<path d="M223.499 331.58C318.803 331.58 396.062 327.07 396.062 321.505C396.062 315.941 318.803 311.431 223.499 311.431C128.196 311.431 50.9365 315.941 50.9365 321.505C50.9365 327.07 128.196 331.58 223.499 331.58Z" fill="#F5F5F5"/>
<path d="M380.227 44.2432L379.922 45.0791L397.451 51.4868L397.756 50.6509L380.227 44.2432Z" fill="#9468B4"/>
<path d="M370.188 40.5694L369.883 41.4053L375.475 43.4495L375.781 42.6136L370.188 40.5694Z" fill="#9468B4"/>
<path d="M314.788 23.6386L407.393 57.4588C409.914 58.3872 411.966 60.2763 413.098 62.713C414.23 65.1497 414.352 67.9357 413.436 70.4617L342.538 264.483C341.61 267.004 339.721 269.055 337.284 270.188C334.847 271.32 332.061 271.442 329.535 270.526L236.975 236.706C234.455 235.775 232.405 233.886 231.273 231.45C230.141 229.014 230.018 226.229 230.932 223.703L301.82 29.6817C302.749 27.1687 304.632 25.124 307.061 23.9923C309.489 22.8606 312.266 22.7335 314.788 23.6386Z" fill="#9468B4"/>
<path d="M338.943 263.014L409.761 69.2775C410.071 68.4285 410.212 67.5264 410.174 66.623C410.136 65.7196 409.92 64.8326 409.539 64.0126C409.158 63.1926 408.619 62.4558 407.953 61.8443C407.287 61.2328 406.507 60.7585 405.658 60.4487L311.807 26.1479C310.957 25.8372 310.054 25.6972 309.151 25.7357C308.247 25.7743 307.359 25.9908 306.539 26.3727C305.719 26.7546 304.983 27.2945 304.371 27.9615C303.76 28.6285 303.287 29.4095 302.978 30.2598L232.169 223.987C231.857 224.836 231.716 225.738 231.753 226.642C231.79 227.546 232.006 228.433 232.387 229.253C232.768 230.074 233.308 230.811 233.974 231.422C234.641 232.033 235.422 232.507 236.272 232.816L330.114 267.126C330.964 267.436 331.866 267.576 332.77 267.538C333.674 267.499 334.561 267.283 335.381 266.901C336.201 266.519 336.938 265.979 337.549 265.312C338.16 264.645 338.634 263.864 338.943 263.014Z" fill="white"/>
<path d="M369.211 45.7644C367.91 47.5073 366.083 48.7851 363.999 49.4086C361.915 50.0321 359.686 49.9683 357.641 49.2265L355.772 48.5412C353.726 47.7922 351.977 46.4027 350.784 44.5795C349.591 42.7563 349.018 40.5967 349.151 38.4219L369.211 45.7644Z" fill="#9468B4"/>
<path opacity="0.1" d="M336.217 262.062C336.639 262.214 337.103 262.194 337.51 262.006C337.917 261.818 338.233 261.476 338.389 261.056L407.943 70.7555C408.095 70.334 408.075 69.8694 407.887 69.4627C407.699 69.056 407.357 68.7401 406.937 68.5838C406.516 68.4313 406.051 68.4515 405.644 68.6398C405.238 68.8282 404.922 69.1695 404.766 69.5896L335.212 259.881C335.056 260.304 335.075 260.771 335.264 261.18C335.452 261.588 335.795 261.906 336.217 262.062Z" fill="#263238"/>
<path opacity="0.1" d="M234.865 225.011C235.286 225.163 235.751 225.143 236.157 224.955C236.564 224.767 236.88 224.425 237.036 224.005L306.59 33.7046C306.742 33.2843 306.722 32.821 306.533 32.4157C306.345 32.0104 306.004 31.6963 305.584 31.5419C305.163 31.3894 304.698 31.4095 304.292 31.5978C303.885 31.7862 303.569 32.1275 303.413 32.5476L233.859 222.848C233.707 223.269 233.727 223.732 233.915 224.137C234.104 224.542 234.445 224.857 234.865 225.011Z" fill="#263238"/>
<g opacity="0.9">
<path opacity="0.9" d="M334.4 247.165L363.03 62.0109C363.732 57.469 360.62 53.2178 356.078 52.5155L268.369 38.9531C263.827 38.2508 259.576 41.3634 258.874 45.9052L230.243 231.06C229.541 235.601 232.654 239.853 237.196 240.555L324.904 254.117C329.446 254.82 333.698 251.707 334.4 247.165Z" fill="white"/>
<path opacity="0.9" d="M326.216 254.674C325.766 254.674 325.317 254.638 324.873 254.568L237.154 241.013C234.859 240.655 232.799 239.403 231.426 237.529C230.053 235.656 229.479 233.314 229.829 231.018L258.452 45.8971C258.807 43.601 260.059 41.5397 261.933 40.1663C263.807 38.7929 266.15 38.2196 268.446 38.5724L356.165 52.1272C358.462 52.4845 360.523 53.7385 361.897 55.614C363.27 57.4895 363.843 59.8333 363.49 62.1308L334.876 247.252C334.55 249.316 333.5 251.197 331.913 252.557C330.326 253.918 328.307 254.668 326.216 254.674ZM267.111 39.3111C265.235 39.32 263.422 39.9965 261.999 41.2195C260.575 42.4425 259.633 44.1322 259.342 45.9861L230.71 231.152C230.393 233.214 230.908 235.319 232.141 237.002C233.374 238.686 235.225 239.812 237.287 240.132L325.006 253.651C327.07 253.968 329.175 253.454 330.86 252.221C332.546 250.988 333.673 249.137 333.995 247.074L334.431 247.145L333.995 247.074L362.609 61.9528C362.926 59.889 362.412 57.7836 361.179 56.0984C359.946 54.4133 358.095 53.286 356.032 52.9638L268.313 39.409C267.915 39.3467 267.514 39.314 267.111 39.3111Z" fill="#9468B4"/>
<path opacity="0.9" d="M342.112 125.623C341.672 125.622 341.231 125.589 340.795 125.526L260.926 113.181C259.82 113.013 258.759 112.628 257.802 112.049C256.845 111.469 256.012 110.706 255.35 109.804C254.689 108.902 254.212 107.879 253.947 106.792C253.682 105.705 253.634 104.577 253.806 103.471L259.662 65.6194C259.825 64.5141 260.208 63.4525 260.787 62.4972C261.366 61.5419 262.131 60.7122 263.036 60.0568C263.935 59.3931 264.958 58.9144 266.044 58.6486C267.131 58.3828 268.259 58.3351 269.363 58.5082L349.232 70.8526C351.461 71.1992 353.461 72.4146 354.796 74.2327C356.13 76.0509 356.69 78.3237 356.352 80.5536L350.505 118.414C350.194 120.419 349.177 122.246 347.639 123.567C346.1 124.889 344.141 125.618 342.112 125.623ZM268.064 59.3003C266.248 59.3026 264.493 59.9542 263.115 61.1376C261.737 62.3209 260.829 63.9579 260.552 65.7529L254.705 103.614C254.552 104.602 254.595 105.611 254.832 106.582C255.069 107.554 255.495 108.469 256.086 109.276C256.677 110.083 257.422 110.765 258.276 111.284C259.131 111.803 260.08 112.148 261.069 112.3L340.982 124.644C341.97 124.798 342.979 124.754 343.951 124.517C344.922 124.28 345.838 123.854 346.644 123.263C347.451 122.672 348.133 121.928 348.652 121.073C349.171 120.218 349.517 119.269 349.669 118.281L355.516 80.4201C355.82 78.4249 355.321 76.3904 354.129 74.7622C352.936 73.1341 351.146 72.045 349.152 71.7337L269.283 59.3893C268.88 59.3264 268.472 59.2966 268.064 59.3003Z" fill="#9468B4"/>
<path opacity="0.9" d="M331.477 183.171C330.934 183.169 330.393 183.128 329.857 183.047L253.993 171.325C251.232 170.899 248.754 169.394 247.103 167.141C245.453 164.887 244.765 162.071 245.191 159.31C245.617 156.55 247.122 154.071 249.375 152.421C251.628 150.77 254.445 150.082 257.206 150.508L333.079 162.238C335.837 162.668 338.312 164.174 339.96 166.427C341.609 168.68 342.296 171.494 341.872 174.253C341.484 176.734 340.224 178.995 338.319 180.629C336.413 182.264 333.987 183.165 331.477 183.171ZM255.595 151.3C253.159 151.291 250.811 152.203 249.021 153.855C247.231 155.506 246.132 157.774 245.946 160.203C245.76 162.631 246.5 165.04 248.018 166.945C249.535 168.85 251.718 170.109 254.126 170.471L329.99 182.192C332.519 182.578 335.098 181.943 337.16 180.428C339.221 178.912 340.596 176.64 340.982 174.111C341.376 171.591 340.754 169.018 339.252 166.957C337.75 164.896 335.491 163.516 332.972 163.119L257.072 151.389C256.582 151.325 256.089 151.295 255.595 151.3Z" fill="#9468B4"/>
<path opacity="0.9" d="M327.631 208.1C327.088 208.103 326.546 208.061 326.011 207.975L250.147 196.254C248.763 196.063 247.432 195.598 246.23 194.887C245.028 194.176 243.979 193.233 243.145 192.113C242.311 190.993 241.708 189.718 241.371 188.363C241.034 187.007 240.971 185.598 241.184 184.218C241.397 182.838 241.883 181.514 242.612 180.323C243.342 179.132 244.302 178.098 245.435 177.282C246.568 176.466 247.852 175.883 249.213 175.568C250.573 175.252 251.983 175.211 253.36 175.446L329.233 187.167C331.852 187.574 334.222 188.954 335.869 191.031C337.516 193.109 338.318 195.731 338.116 198.375C337.913 201.018 336.721 203.488 334.778 205.291C332.834 207.094 330.282 208.097 327.631 208.1ZM251.722 176.22C249.298 176.23 246.967 177.152 245.193 178.803C243.419 180.455 242.332 182.714 242.149 185.131C241.966 187.548 242.7 189.945 244.205 191.845C245.711 193.745 247.877 195.008 250.271 195.382L326.144 207.112C328.671 207.502 331.249 206.871 333.311 205.36C335.374 203.849 336.751 201.58 337.14 199.053C337.53 196.526 336.9 193.948 335.388 191.886C333.877 189.824 331.608 188.447 329.081 188.057L253.217 176.336C252.723 176.257 252.223 176.219 251.722 176.22Z" fill="#9468B4"/>
<path opacity="0.9" d="M323.786 233.039C323.238 233.037 322.691 232.995 322.149 232.914L246.285 221.184C243.56 220.719 241.128 219.202 239.513 216.96C237.897 214.717 237.228 211.93 237.65 209.198C238.071 206.467 239.55 204.011 241.767 202.361C243.983 200.71 246.76 199.997 249.498 200.376L325.37 212.097C328.128 212.529 330.601 214.036 332.249 216.288C333.897 218.54 334.586 221.353 334.164 224.112L333.728 224.05L334.164 224.112C333.774 226.587 332.516 228.842 330.614 230.473C328.712 232.104 326.292 233.004 323.786 233.012V233.039ZM247.887 201.141C245.451 201.131 243.102 202.044 241.312 203.696C239.522 205.347 238.424 207.615 238.238 210.044C238.052 212.472 238.792 214.881 240.31 216.786C241.827 218.691 244.01 219.95 246.418 220.312L322.291 232.033C324.81 232.423 327.381 231.798 329.44 230.297C331.5 228.796 332.882 226.54 333.283 224.023C333.476 222.772 333.422 221.495 333.122 220.265C332.822 219.035 332.282 217.876 331.534 216.854C330.786 215.833 329.844 214.969 328.762 214.311C327.68 213.654 326.479 213.216 325.228 213.023L249.364 201.301C248.877 201.208 248.383 201.155 247.887 201.141Z" fill="#9468B4"/>
<path opacity="0.9" d="M337.191 143.967C337.001 143.984 336.811 143.984 336.621 143.967L298.671 138.102C298.19 138.028 297.728 137.86 297.312 137.607C296.896 137.355 296.534 137.023 296.246 136.63C295.958 136.238 295.751 135.792 295.636 135.319C295.52 134.846 295.499 134.355 295.574 133.874C295.725 132.901 296.256 132.028 297.05 131.446C297.844 130.863 298.837 130.62 299.81 130.768L337.76 136.642C338.241 136.713 338.704 136.879 339.119 137.131C339.535 137.384 339.896 137.717 340.181 138.111C340.471 138.503 340.68 138.949 340.796 139.422C340.912 139.896 340.933 140.388 340.857 140.87C340.712 141.736 340.264 142.524 339.592 143.091C338.921 143.658 338.07 143.968 337.191 143.967ZM299.241 131.578C298.532 131.581 297.851 131.85 297.332 132.332C296.812 132.814 296.494 133.474 296.439 134.18C296.384 134.887 296.597 135.588 297.035 136.145C297.473 136.701 298.105 137.073 298.805 137.185L336.763 143.05C337.501 143.16 338.253 142.975 338.855 142.534C339.155 142.317 339.409 142.042 339.601 141.726C339.794 141.409 339.921 141.058 339.976 140.692C340.035 140.326 340.02 139.952 339.933 139.592C339.847 139.231 339.69 138.892 339.471 138.592C339.253 138.293 338.978 138.04 338.661 137.847C338.345 137.654 337.993 137.526 337.627 137.47L299.668 131.605C299.526 131.587 299.384 131.578 299.241 131.578Z" fill="#263238"/>
<path opacity="0.9" d="M335.534 154.7C335.344 154.713 335.154 154.713 334.964 154.7L281.039 146.37C280.08 146.204 279.224 145.668 278.656 144.877C278.088 144.087 277.854 143.105 278.003 142.143C278.152 141.181 278.674 140.316 279.455 139.735C280.236 139.154 281.214 138.903 282.178 139.036L336.095 147.366C337.068 147.518 337.941 148.049 338.523 148.843C339.106 149.637 339.349 150.629 339.201 151.603C339.055 152.47 338.607 153.257 337.936 153.824C337.264 154.391 336.413 154.702 335.534 154.7ZM281.6 139.837C281.086 139.843 280.583 139.99 280.146 140.261C279.709 140.532 279.354 140.918 279.121 141.376C278.887 141.834 278.783 142.348 278.82 142.861C278.857 143.374 279.033 143.867 279.33 144.287C279.55 144.587 279.826 144.84 280.144 145.032C280.462 145.225 280.814 145.352 281.182 145.408L335.098 153.739C335.466 153.803 335.844 153.793 336.208 153.71C336.573 153.627 336.917 153.473 337.221 153.256C337.526 153.038 337.784 152.763 337.981 152.445C338.178 152.127 338.309 151.774 338.368 151.404C338.427 151.035 338.412 150.658 338.324 150.295C338.236 149.931 338.077 149.589 337.855 149.288C337.634 148.987 337.355 148.733 337.034 148.54C336.714 148.348 336.358 148.221 335.988 148.167L282.063 139.837C281.909 139.822 281.754 139.822 281.6 139.837Z" fill="#263238"/>
<path opacity="0.9" d="M284.807 95.732C289.348 90.7796 289.015 83.0835 284.063 78.5423C279.11 74.0011 271.414 74.3344 266.873 79.2868C262.332 84.2392 262.665 91.9353 267.618 96.4765C272.57 101.018 280.266 100.684 284.807 95.732Z" fill="#9468B4"/>
</g>
<g opacity="0.95">
<path d="M267.413 251.702L272.45 64.4097C272.505 62.2047 271.684 60.0678 270.165 58.4678C268.647 56.8678 266.556 55.9352 264.351 55.8746L175.618 53.4894C173.412 53.4296 171.273 54.2482 169.671 55.7653C168.068 57.2825 167.134 59.3738 167.074 61.5795L162.09 248.872C162.032 251.079 162.853 253.218 164.371 254.82C165.89 256.422 167.982 257.355 170.189 257.416L258.913 259.801C261.112 259.847 263.24 259.021 264.832 257.503C266.425 255.986 267.352 253.901 267.413 251.702Z" fill="#9468B4"/>
<path opacity="0.2" d="M264.355 207.619L265.384 169.336C265.504 164.884 261.992 161.178 257.54 161.059L176.766 158.887C172.314 158.767 168.608 162.279 168.489 166.731L167.459 205.014C167.34 209.466 170.851 213.172 175.303 213.291L256.077 215.463C260.529 215.582 264.235 212.071 264.355 207.619Z" fill="#263238"/>
<path opacity="0.9" d="M235.784 238.183C235.73 240.248 236.29 242.283 237.393 244.03C238.496 245.777 240.093 247.157 241.981 247.996C243.869 248.835 245.963 249.095 247.999 248.743C250.035 248.391 251.92 247.442 253.417 246.018C254.914 244.594 255.954 242.757 256.406 240.742C256.859 238.726 256.703 236.621 255.958 234.694C255.214 232.766 253.914 231.103 252.224 229.915C250.534 228.727 248.529 228.067 246.464 228.019C243.7 227.952 241.023 228.985 239.021 230.89C237.018 232.796 235.854 235.419 235.784 238.183Z" fill="white"/>
<path opacity="0.9" d="M191.093 244.374C195.278 240.408 195.456 233.8 191.49 229.615C187.524 225.43 180.916 225.253 176.731 229.218C172.546 233.184 172.368 239.792 176.334 243.977C180.3 248.162 186.908 248.34 191.093 244.374Z" fill="white"/>
<path opacity="0.9" d="M204.632 237.347C204.578 239.412 205.138 241.447 206.242 243.194C207.345 244.941 208.941 246.321 210.829 247.16C212.717 247.999 214.812 248.259 216.848 247.907C218.883 247.555 220.769 246.606 222.266 245.182C223.762 243.758 224.803 241.922 225.255 239.906C225.707 237.89 225.552 235.785 224.807 233.858C224.063 231.93 222.763 230.267 221.073 229.079C219.383 227.891 217.378 227.231 215.313 227.183C212.549 227.116 209.872 228.149 207.869 230.054C205.867 231.96 204.702 234.583 204.632 237.347Z" fill="white"/>
<path opacity="0.9" d="M267.637 85.6633C267.711 82.9925 266.721 80.4016 264.885 78.4605C263.049 76.5194 260.517 75.3871 257.847 75.3126L181.101 73.2478C178.431 73.176 175.842 74.1665 173.901 76.0019C171.961 77.8374 170.828 80.3678 170.751 83.0378C170.679 85.708 171.669 88.2975 173.505 90.2381C175.34 92.1787 177.871 93.3117 180.541 93.3886L257.321 95.4712C259.988 95.5334 262.572 94.5362 264.505 92.6979C266.438 90.8596 267.564 88.3301 267.637 85.6633Z" fill="white"/>
<path opacity="0.9" d="M266.906 112.773C266.978 110.103 265.987 107.513 264.152 105.572C262.316 103.632 259.786 102.499 257.116 102.422L180.38 100.357C177.71 100.285 175.12 101.276 173.18 103.111C171.239 104.947 170.106 107.477 170.029 110.147C169.957 112.817 170.948 115.407 172.783 117.347C174.619 119.288 177.149 120.421 179.819 120.498L256.555 122.554C259.224 122.626 261.812 121.636 263.752 119.803C265.693 117.969 266.827 115.441 266.906 112.773Z" fill="white"/>
<path opacity="0.9" d="M266.221 139.882C266.296 137.211 265.306 134.62 263.47 132.679C261.634 130.738 259.102 129.606 256.431 129.531L179.695 127.466C177.026 127.397 174.438 128.388 172.497 130.223C170.557 132.058 169.424 134.587 169.344 137.256C169.273 139.926 170.263 142.516 172.099 144.457C173.934 146.397 176.465 147.53 179.135 147.607L255.871 149.663C258.539 149.735 261.128 148.746 263.068 146.912C265.008 145.078 266.142 142.55 266.221 139.882Z" fill="white"/>
</g>
<path d="M102.185 96.2451L101.135 97.4378L100.022 98.7283L97.8327 101.398C96.4087 103.178 95.0025 104.958 93.712 106.827C91.1244 110.328 88.9418 114.111 87.2061 118.104C86.8325 119.021 86.5058 119.957 86.2271 120.907C85.9809 121.748 85.8081 122.609 85.7109 123.479C85.5105 125.55 85.4956 127.635 85.6664 129.709C86.0701 134.308 86.7447 138.879 87.6867 143.398L81.9106 145.738C80.6097 143.521 79.4648 141.217 78.484 138.841C77.4784 136.427 76.6486 133.943 76.0009 131.409C75.2836 128.705 74.8775 125.928 74.7905 123.132C74.7381 121.567 74.8545 120 75.1376 118.46C75.4089 117.035 75.7595 115.627 76.1878 114.241C77.8989 109.121 80.2939 104.257 83.3079 99.7785C84.7586 97.598 86.2716 95.4886 87.8914 93.4772C88.6924 92.4626 89.5201 91.4688 90.3745 90.4957C90.8017 90.0062 91.2645 89.5167 91.6739 89.0361C92.0833 88.5555 92.5639 88.1461 93.0979 87.5498L102.185 96.2451Z" fill="#263238"/>
<path d="M88.6837 143.496L91.0867 145.676L82.6406 150.126C82.2519 149.415 81.9529 148.659 81.7506 147.874C81.6151 147.311 81.5934 146.726 81.6867 146.154C81.78 145.582 81.9864 145.034 82.2938 144.542C82.6012 144.051 83.0036 143.626 83.4772 143.292C83.9509 142.958 84.4864 142.721 85.0525 142.597C85.6856 142.446 86.3454 142.45 86.977 142.606C87.6086 142.762 88.1938 143.067 88.6837 143.496Z" fill="#FFB573"/>
<path d="M94.3264 151.15L87.1885 154.497L82.6406 150.109L91.0868 145.677L94.3264 151.15Z" fill="#FFB573"/>
<path d="M125.154 63.6449C125.154 64.2412 125.404 64.7307 125.786 64.7307C126.169 64.7307 126.516 64.2679 126.552 63.6805C126.587 63.0931 126.311 62.5947 125.92 62.5947C125.528 62.5947 125.19 63.0575 125.154 63.6449Z" fill="#263238"/>
<path d="M125.351 64.7217C125.94 66.5408 126.786 68.2669 127.861 69.8481C127.448 70.1299 126.978 70.3182 126.484 70.3997C125.991 70.4811 125.486 70.4539 125.004 70.3198L125.351 64.7217Z" fill="#FF5652"/>
<path d="M123.205 60.3163C123.25 60.3252 123.296 60.325 123.34 60.3158C123.384 60.3066 123.426 60.2887 123.464 60.2629C123.818 60.0013 124.23 59.8284 124.665 59.7587C125.1 59.6891 125.546 59.7246 125.965 59.8624C126.052 59.8953 126.149 59.8933 126.235 59.8569C126.321 59.8205 126.39 59.7524 126.427 59.6666C126.447 59.6258 126.458 59.5816 126.459 59.5365C126.461 59.4914 126.454 59.4463 126.438 59.404C126.423 59.3617 126.399 59.323 126.368 59.2902C126.337 59.2573 126.3 59.231 126.258 59.2127C125.731 59.0411 125.17 58.9951 124.621 59.0786C124.073 59.162 123.551 59.3725 123.099 59.6933C123.059 59.7171 123.025 59.7484 122.998 59.7855C122.971 59.8226 122.951 59.8647 122.94 59.9094C122.93 59.9541 122.928 60.0006 122.935 60.046C122.942 60.0914 122.959 60.1349 122.983 60.1739C123.009 60.2114 123.042 60.2433 123.08 60.2678C123.118 60.2922 123.161 60.3087 123.205 60.3163Z" fill="#263238"/>
<path d="M108.031 65.9053C108.743 71.3699 108.983 82.3971 104.996 85.4854C104.996 85.4854 106.296 89.9354 116.272 91.1903C127.246 92.552 121.871 86.4377 121.871 86.4377C115.97 84.2661 116.406 79.8783 117.723 75.8644L108.031 65.9053Z" fill="#FFB573"/>
<path d="M81.4999 306.251H81.5711C81.7073 306.19 81.8223 306.089 81.9015 305.963C81.9807 305.836 82.0206 305.688 82.0161 305.539C82.0276 305.423 82.0127 305.306 81.9727 305.197C81.9326 305.087 81.8684 304.988 81.7847 304.907C81.0282 304.142 78.5629 304.293 78.465 304.302C78.4309 304.303 78.3976 304.313 78.3692 304.332C78.3408 304.351 78.3185 304.378 78.3048 304.409C78.2875 304.437 78.2783 304.469 78.2783 304.502C78.2783 304.535 78.2875 304.568 78.3048 304.596C78.8566 305.103 80.5921 306.5 81.4999 306.251ZM78.8922 304.614C79.7199 304.614 81.0816 304.685 81.5622 305.139C81.6106 305.185 81.6478 305.243 81.6709 305.306C81.694 305.369 81.7025 305.437 81.6957 305.504C81.6957 305.833 81.5266 305.886 81.4821 305.904C80.9659 306.1 79.711 305.334 78.8922 304.614Z" fill="#9468B4"/>
<path d="M79.7023 304.435C80.5923 304.203 81.5357 303.758 81.7404 303.26C81.7926 303.141 81.8007 303.008 81.7632 302.884C81.7256 302.76 81.6449 302.653 81.5357 302.584C81.4314 302.501 81.3111 302.441 81.1824 302.407C81.0538 302.374 80.9195 302.367 80.7881 302.388C79.6934 302.548 78.3851 304.275 78.3317 304.355C78.3141 304.381 78.3047 304.412 78.3047 304.444C78.3047 304.475 78.3141 304.506 78.3317 304.533C78.3458 304.559 78.3661 304.582 78.3909 304.599C78.4157 304.616 78.4442 304.627 78.4741 304.631C78.8904 304.621 79.3035 304.555 79.7023 304.435ZM80.6991 302.762H80.8237C80.9074 302.745 80.9938 302.747 81.0768 302.767C81.1598 302.786 81.2374 302.824 81.3043 302.877C81.4823 303.02 81.4378 303.118 81.42 303.162C81.2331 303.625 79.7824 304.186 78.839 304.292C79.3204 303.634 79.9602 303.107 80.6991 302.762Z" fill="#9468B4"/>
<path d="M126.302 314.386C127.073 314.487 127.853 314.289 128.483 313.834C128.563 313.722 128.606 313.588 128.606 313.451C128.606 313.314 128.563 313.18 128.483 313.068C128.427 312.968 128.351 312.88 128.259 312.811C128.167 312.742 128.061 312.693 127.949 312.668C126.739 312.33 124.113 313.789 124.006 313.852C123.975 313.872 123.95 313.899 123.933 313.932C123.915 313.965 123.907 314.002 123.908 314.039C123.913 314.073 123.929 314.105 123.952 314.131C123.976 314.156 124.008 314.174 124.042 314.181C124.788 314.314 125.544 314.382 126.302 314.386ZM127.531 312.962C127.64 312.948 127.751 312.948 127.86 312.962C127.93 312.976 127.996 313.006 128.053 313.049C128.11 313.092 128.156 313.147 128.189 313.211C128.305 313.424 128.26 313.531 128.189 313.594C127.824 314.065 125.964 314.074 124.629 313.887C125.528 313.396 126.513 313.082 127.531 312.962Z" fill="#9468B4"/>
<path d="M124.096 314.172H124.168C125.058 313.781 126.891 312.188 126.838 311.36C126.838 311.164 126.686 310.924 126.206 310.871C125.852 310.839 125.501 310.948 125.227 311.173C124.266 311.939 123.99 313.914 123.972 314.003C123.97 314.032 123.976 314.061 123.989 314.088C124.001 314.114 124.02 314.137 124.043 314.155C124.059 314.164 124.078 314.17 124.096 314.172ZM126.01 311.191H126.117C126.428 311.191 126.437 311.351 126.446 311.387C126.508 311.885 125.262 313.167 124.337 313.674C124.454 312.831 124.823 312.043 125.396 311.413C125.57 311.274 125.787 311.199 126.01 311.2V311.191Z" fill="#9468B4"/>
<path d="M116.032 314.003H123.375L124.79 297.004H117.447L116.032 314.003Z" fill="#FFB573"/>
<path d="M70.2051 304.186L77.1916 305.548L83.6352 288.922L76.6487 287.561L70.2051 304.186Z" fill="#FFB573"/>
<path d="M78.4739 303.438L71.5675 299.202C71.4406 299.128 71.2922 299.099 71.1468 299.12C71.0013 299.141 70.8672 299.211 70.7665 299.318L65.9693 304.168C65.8529 304.281 65.7636 304.419 65.7084 304.572C65.6532 304.724 65.6334 304.887 65.6505 305.048C65.6677 305.21 65.7213 305.365 65.8074 305.502C65.8935 305.64 66.0097 305.756 66.1473 305.842C68.586 307.274 69.8498 307.853 72.8847 309.713C74.7537 310.861 78.5985 313.941 81.3842 315.16C84.1699 316.379 85.8342 313.745 84.8285 312.988C80.2539 309.615 79.8356 306.758 79.2126 304.444C79.1028 304.027 78.8387 303.668 78.4739 303.438Z" fill="#263238"/>
<path d="M123.356 313.157H115.346C115.199 313.157 115.056 313.206 114.939 313.296C114.823 313.386 114.741 313.513 114.705 313.656L112.987 320.188C112.942 320.342 112.934 320.504 112.964 320.662C112.994 320.82 113.06 320.968 113.159 321.095C113.257 321.221 113.383 321.323 113.528 321.391C113.674 321.46 113.833 321.493 113.993 321.488C116.885 321.443 121.113 321.274 124.673 321.274C128.918 321.274 129.613 321.505 134.597 321.505C137.614 321.505 138.566 318.453 137.32 318.177C131.624 316.922 129.915 316.788 125.073 313.727C124.565 313.381 123.97 313.184 123.356 313.157Z" fill="#263238"/>
<path d="M133.929 110.931C133.822 113.423 133.653 116.173 133.386 119.208C132.692 127.44 131.384 137.702 129.141 150.456H89.874C89.874 144.884 94.1104 119.306 91.0577 93.0238C90.8756 91.2526 91.3909 89.4801 92.4943 88.0826C93.5977 86.6851 95.2022 85.7726 96.9674 85.5388C98.961 85.2807 101.195 85.0582 103.384 84.9514C108.945 84.6308 114.52 84.6308 120.081 84.9514C122.532 85.1886 124.968 85.56 127.379 86.0639C128.762 86.3472 130.032 87.0304 131.03 88.0288C132.028 89.0272 132.711 90.2967 132.995 91.6799C133.698 95.231 134.33 101.158 133.929 110.931Z" fill="#263238"/>
<path opacity="0.3" d="M125.965 150.571C125.936 150.564 125.91 150.547 125.893 150.522C125.877 150.497 125.871 150.467 125.876 150.437C127.932 138.698 129.365 128.187 130.121 119.198C130.37 116.332 130.548 113.547 130.655 110.921C131.073 100.811 130.353 94.901 129.676 91.697C129.674 91.683 129.674 91.6686 129.677 91.6546C129.68 91.6407 129.686 91.6275 129.694 91.6159C129.703 91.6043 129.713 91.5945 129.725 91.587C129.738 91.5795 129.751 91.5746 129.765 91.5724C129.779 91.5684 129.794 91.5674 129.808 91.5693C129.823 91.5712 129.837 91.5761 129.849 91.5836C129.862 91.5911 129.873 91.6011 129.881 91.6129C129.89 91.6248 129.896 91.6383 129.899 91.6525C130.869 96.236 131.207 102.911 130.878 110.93C130.771 113.6 130.593 116.35 130.344 119.216C129.587 128.205 128.154 138.725 126.089 150.473C126.088 150.488 126.084 150.502 126.077 150.516C126.07 150.529 126.061 150.54 126.049 150.55C126.037 150.559 126.024 150.565 126.009 150.569C125.995 150.573 125.98 150.573 125.965 150.571Z" fill="black"/>
<path opacity="0.2" d="M126.969 104.95C126.871 110.495 129.728 122.946 132.416 128.633C132.825 125.224 133.155 122.092 133.395 119.208C133.6 116.743 133.751 114.473 133.858 112.373L126.969 104.95Z" fill="black"/>
<path d="M158.957 118.513L165.516 114.615L166.709 123.586C166.709 123.586 161.511 125.037 158.601 123.284L158.957 118.513Z" fill="#FFB573"/>
<path d="M174.14 115.256L171.977 122.421L166.708 123.586L165.516 114.615L174.14 115.256Z" fill="#FFB573"/>
<path d="M131.936 89.891C132.274 90.6742 132.496 91.2438 132.719 91.8312C132.941 92.4186 133.146 92.9704 133.342 93.5133L134.481 96.7529C135.229 98.88 135.95 100.972 136.715 102.983C137.48 104.994 138.246 107.059 139.091 108.973C139.855 110.799 140.747 112.568 141.761 114.268C142.158 114.933 142.604 115.567 143.096 116.164C143.283 116.395 143.452 116.555 143.524 116.636C143.595 116.716 143.577 116.698 143.524 116.698C143.47 116.698 143.524 116.698 143.577 116.698L143.71 116.778C144.272 117.062 144.871 117.263 145.49 117.374C146.373 117.524 147.265 117.61 148.16 117.632C152.36 117.592 156.547 117.181 160.674 116.404H160.888C161.606 116.287 162.344 116.422 162.974 116.787C163.605 117.152 164.089 117.724 164.345 118.406C164.601 119.088 164.613 119.838 164.379 120.528C164.144 121.217 163.678 121.805 163.059 122.189C162.005 122.858 160.918 123.473 159.802 124.032C158.707 124.592 157.586 125.1 156.429 125.562C154.051 126.549 151.575 127.278 149.042 127.734C147.647 127.99 146.232 128.115 144.814 128.108C143.157 128.127 141.506 127.892 139.919 127.414L139.252 127.182C139.001 127.104 138.757 127.006 138.522 126.888C138.016 126.655 137.528 126.384 137.062 126.079C136.278 125.556 135.545 124.96 134.873 124.299C133.776 123.246 132.783 122.089 131.909 120.845C129.105 116.669 126.779 112.191 124.976 107.495C124.086 105.279 123.249 103.045 122.484 100.874L121.362 97.6251L120.828 96.0765C120.668 95.5959 120.481 95.0886 120.375 94.8216L120.312 94.6436C119.798 93.1351 119.875 91.4875 120.53 90.0343C121.184 88.581 122.367 87.4308 123.837 86.8165C125.308 86.2022 126.957 86.1698 128.451 86.7257C129.945 87.2817 131.171 88.3845 131.882 89.8109L131.936 89.891Z" fill="#263238"/>
<path opacity="0.2" d="M124.789 297.004L124.059 305.77H116.717L117.447 297.004H124.789Z" fill="black"/>
<path opacity="0.2" d="M76.6489 287.569L83.6355 288.931L80.3068 297.493L73.3203 296.131L76.6489 287.569Z" fill="black"/>
<path d="M105.503 61.98C105.503 69.2602 105.129 73.55 108.565 77.3503C113.745 83.0731 122.921 79.9313 125.092 72.7134C127.059 66.2075 126.73 55.3939 119.752 52.3501C112.774 49.3063 105.503 54.6997 105.503 61.98Z" fill="#FFB573"/>
<path d="M121.959 65.638C122.582 63.9292 125.074 56.5867 120.454 54.2904C115.835 51.9942 109.774 51.2911 106.01 52.9198C102.245 54.5485 99.5127 60.5205 99.5127 60.5205C99.5127 60.5205 101.293 73.0962 108.626 75.3568C115.96 77.6175 124.273 68.9043 121.959 65.638Z" fill="#263238"/>
<path d="M120.18 55.2344C120.971 54.9798 121.714 54.5948 122.378 54.0952C125.048 51.5053 120.322 49.7698 115.641 49.3426C110.301 48.8709 102.753 50.9802 99.7363 54.8873C102.593 56.3558 116.104 56.4181 120.18 55.2344Z" fill="#263238"/>
<path d="M119.743 54.5042C120.448 54.5 121.146 54.3736 121.808 54.1304C125.368 52.3504 121.265 50.0097 117.598 48.4433C113.442 46.6632 106.758 46.4585 103.305 48.915C105.236 50.873 116.139 54.433 119.743 54.5042Z" fill="#263238"/>
<path d="M118.764 64.6326C118.767 66.2324 119.31 67.7843 120.303 69.0382C121.629 70.6491 123.187 69.7146 123.57 67.801C123.917 66.0744 123.65 63.1552 121.959 62.2385C120.268 61.3218 118.781 62.6746 118.764 64.6326Z" fill="#FFB573"/>
<path d="M115.213 150.456C115.213 150.456 116.423 206.019 108.983 226.507C97.3062 258.992 84.588 296.621 84.588 296.621L71.1846 293.64C71.1846 293.64 81.9892 252.655 87.8543 225.323C93.1944 200.759 89.0648 170.517 89.8747 150.456H115.213Z" fill="#9468B4"/>
<g opacity="0.3">
<path opacity="0.3" d="M115.213 150.456C115.213 150.456 116.423 206.019 108.983 226.507C97.3062 258.992 84.588 296.621 84.588 296.621L71.1846 293.64C71.1846 293.64 81.9892 252.655 87.8543 225.323C93.1944 200.759 89.0648 170.517 89.8747 150.456H115.213Z" fill="white"/>
</g>
<path opacity="0.2" d="M115.276 162.871C111.618 161.795 108.708 162.204 107.827 165.497C105.521 174.103 110.497 196.807 112.98 207.194C114.769 192.242 115.214 174.441 115.276 162.871Z" fill="black"/>
<path d="M88.2203 292.553C88.2826 292.553 84.9006 296.905 84.9006 296.905L70.2422 293.648L71.9154 288.619L88.2203 292.553Z" fill="#9468B4"/>
<path d="M129.159 150.456C129.159 150.456 137.312 197.146 137.169 219.538C137.018 244.645 126.854 304.089 126.854 304.089H114.394C114.394 304.089 115.961 244.352 116.334 221.478C116.744 196.558 103.296 150.474 103.296 150.474L129.159 150.456Z" fill="#9468B4"/>
<g opacity="0.3">
<path opacity="0.3" d="M129.159 150.456C129.159 150.456 137.312 197.146 137.169 219.538C137.018 244.645 126.854 304.089 126.854 304.089H114.394C114.394 304.089 115.961 244.352 116.334 221.478C116.744 196.558 103.296 150.474 103.296 150.474L129.159 150.456Z" fill="white"/>
</g>
<path d="M129.462 299.122C129.516 299.122 128.572 304.284 128.572 304.284H113.442L113.22 299.674L129.462 299.122Z" fill="#9468B4"/>
<path d="M115.159 166.432C115.121 166.443 115.081 166.443 115.043 166.432L109.863 163.379C109.835 163.36 109.811 163.335 109.792 163.306C109.774 163.277 109.762 163.244 109.757 163.21L108.689 154.862C108.684 154.83 108.687 154.798 108.696 154.767C108.705 154.736 108.721 154.708 108.742 154.684C108.764 154.661 108.79 154.643 108.819 154.631C108.848 154.618 108.88 154.612 108.911 154.613H118.844C118.899 154.61 118.953 154.629 118.994 154.666C119.036 154.702 119.062 154.753 119.066 154.808L120.018 162.89C120.023 162.931 120.016 162.972 119.999 163.01C119.981 163.047 119.954 163.08 119.921 163.103L115.275 166.361C115.245 166.396 115.204 166.421 115.159 166.432ZM110.184 163.014L115.15 165.942L119.6 162.836L118.71 155.084H109.169L110.184 163.014Z" fill="white"/>
</svg>
