<svg width="402" height="367" viewBox="0 0 402 367" fill="none" xmlns="http://www.w3.org/2000/svg">
<path d="M278.491 276.671C278.491 276.671 296.939 221.194 273.776 272.433C273.776 272.433 265.605 227.835 267.737 276.5C267.737 276.5 243.855 239.155 263.994 284.599C263.994 284.599 233.002 251.547 265.002 294.615C265.002 294.615 327.507 291.474 278.941 289.341C278.941 289.341 335.48 265.387 281.587 282.61C281.587 282.628 329.775 234.908 278.491 276.671Z" fill="#9468B4"/>
<path d="M274.56 277.904C274.56 277.904 262.132 295.425 257.633 313.585" stroke="#263238" stroke-width="0.75" stroke-linecap="round" stroke-linejoin="round"/>
<path d="M240.534 278.453C240.534 278.453 197.034 244.185 235.234 281.287C235.234 281.287 192.886 274.241 236.917 287.974C236.917 287.974 195.972 297.251 242.946 293.913C242.946 293.913 203.54 310.902 252.197 296.234C252.197 296.234 269.483 239.542 251.972 282.124C251.972 282.124 248.804 224.055 246.833 277.625C246.833 277.607 219.765 219.349 240.534 278.453Z" fill="#9468B4"/>
<path opacity="0.3" d="M240.534 278.453C240.534 278.453 197.034 244.185 235.234 281.287C235.234 281.287 192.886 274.241 236.917 287.974C236.917 287.974 195.972 297.251 242.946 293.913C242.946 293.913 203.54 310.902 252.197 296.234C252.197 296.234 269.483 239.542 251.972 282.124C251.972 282.124 248.804 224.055 246.833 277.625C246.833 277.607 219.765 219.349 240.534 278.453Z" fill="white"/>
<path d="M261.016 315.249C253.196 289.152 239.419 282.781 239.419 282.781" stroke="#263238" stroke-width="0.75" stroke-linecap="round" stroke-linejoin="round"/>
<path d="M258.136 281.485C258.136 281.485 263.715 286.723 265.2 293.841C270.552 292.01 276.211 291.249 281.857 291.6" stroke="#263238" stroke-width="0.5" stroke-linecap="round" stroke-linejoin="round"/>
<path d="M264.029 275.843C264.029 275.843 267.863 280.495 265.199 293.84L279.867 283.555" stroke="#263238" stroke-width="0.5" stroke-linecap="round" stroke-linejoin="round"/>
<path d="M253.825 282.143C252.232 286.11 251.455 290.358 251.539 294.633C251.539 294.633 245.24 295.335 240.975 297.333" stroke="#263238" stroke-width="0.5" stroke-linecap="round" stroke-linejoin="round"/>
<path d="M247.032 280.486C247.694 285.428 249.217 290.216 251.531 294.632C251.531 294.632 247.518 291.033 236.899 290.439" stroke="#263238" stroke-width="0.5" stroke-linecap="round" stroke-linejoin="round"/>
<path d="M246.15 311.596H272.103L268.116 335.892H266.857V336.864C266.858 337.031 266.826 337.195 266.763 337.349C266.701 337.503 266.608 337.643 266.491 337.761C266.374 337.879 266.234 337.973 266.081 338.036C265.928 338.1 265.763 338.133 265.597 338.133H264.391C264.225 338.133 264.06 338.1 263.907 338.036C263.753 337.973 263.614 337.879 263.497 337.761C263.38 337.643 263.287 337.503 263.224 337.349C263.162 337.195 263.13 337.031 263.131 336.864V335.892H255.122V336.864C255.122 337.031 255.089 337.196 255.026 337.35C254.962 337.504 254.868 337.644 254.751 337.762C254.633 337.879 254.493 337.973 254.339 338.037C254.185 338.1 254.02 338.133 253.853 338.133H252.648C252.313 338.131 251.992 337.996 251.756 337.758C251.52 337.521 251.388 337.199 251.388 336.864V335.892H250.128L246.15 311.596Z" fill="#263238" stroke="#263238" stroke-width="0.75" stroke-linecap="round" stroke-linejoin="round"/>
<path d="M360.587 338.078H56.8779C38.5474 340.886 23.8433 344.521 28.4597 348.661C39.2583 358.352 117.026 347.032 114.74 358.253C112.454 369.475 170.776 366.694 202.505 366.694C234.235 366.694 268.872 363.716 257.722 355.104C246.573 346.492 320.588 352.782 352.398 352.782C375.615 352.782 391.525 346.303 360.587 338.078Z" fill="#9468B4"/>
<path d="M0.779297 338.078H401.1" stroke="#263238" stroke-width="0.75" stroke-linecap="round" stroke-linejoin="round"/>
<path d="M288.767 21.5908H134.455C130.35 21.5908 127.022 24.9187 127.022 29.0238V231.992C127.022 236.097 130.35 239.425 134.455 239.425H288.767C292.872 239.425 296.2 236.097 296.2 231.992V29.0238C296.2 24.9187 292.872 21.5908 288.767 21.5908Z" fill="#263238" stroke="#263238" stroke-linecap="round" stroke-linejoin="round"/>
<path d="M286.068 18.3965H131.756C127.651 18.3965 124.323 21.7244 124.323 25.8295V228.797C124.323 232.902 127.651 236.23 131.756 236.23H286.068C290.173 236.23 293.501 232.902 293.501 228.797V25.8295C293.501 21.7244 290.173 18.3965 286.068 18.3965Z" fill="#9468B4"/>
<path opacity="0.8" d="M286.068 18.3965H131.756C127.651 18.3965 124.323 21.7244 124.323 25.8295V228.797C124.323 232.902 127.651 236.23 131.756 236.23H286.068C290.173 236.23 293.501 232.902 293.501 228.797V25.8295C293.501 21.7244 290.173 18.3965 286.068 18.3965Z" fill="white"/>
<path d="M286.068 18.3965H131.756C127.651 18.3965 124.323 21.7244 124.323 25.8295V228.797C124.323 232.902 127.651 236.23 131.756 236.23H286.068C290.173 236.23 293.501 232.902 293.501 228.797V25.8295C293.501 21.7244 290.173 18.3965 286.068 18.3965Z" stroke="#263238" stroke-linecap="round" stroke-linejoin="round"/>
<path d="M286.302 49.5234H131.522V109.887H286.302V49.5234Z" fill="white" stroke="#263238" stroke-linecap="round" stroke-linejoin="round"/>
<path d="M286.302 109.887L131.522 49.5234" stroke="#263238" stroke-width="0.75" stroke-linecap="round" stroke-linejoin="round"/>
<path d="M131.522 109.887L286.302 49.5234" stroke="#263238" stroke-width="0.75" stroke-linecap="round" stroke-linejoin="round"/>
<path d="M208.912 122.116H131.522V182.48H208.912V122.116Z" fill="#9468B4"/>
<path opacity="0.5" d="M208.912 122.116H131.522V182.48H208.912V122.116Z" fill="white"/>
<path d="M208.912 122.116H131.522V182.48H208.912V122.116Z" stroke="#263238" stroke-linecap="round" stroke-linejoin="round"/>
<path d="M242.433 28.8076H175.392C174.646 28.8076 174.042 29.412 174.042 30.1574C174.042 30.9029 174.646 31.5073 175.392 31.5073H242.433C243.178 31.5073 243.783 30.9029 243.783 30.1574C243.783 29.412 243.178 28.8076 242.433 28.8076Z" fill="#263238" stroke="#263238" stroke-width="0.75" stroke-linecap="round" stroke-linejoin="round"/>
<path d="M284.95 124.816H217.909C217.551 124.816 217.208 124.674 216.955 124.421C216.702 124.167 216.56 123.824 216.56 123.466C216.56 123.108 216.702 122.765 216.955 122.512C217.208 122.258 217.551 122.116 217.909 122.116H284.95C285.308 122.116 285.652 122.258 285.905 122.512C286.158 122.765 286.3 123.108 286.3 123.466C286.3 123.824 286.158 124.167 285.905 124.421C285.652 124.674 285.308 124.816 284.95 124.816Z" fill="#263238" stroke="#263238" stroke-width="0.75" stroke-linecap="round" stroke-linejoin="round"/>
<path d="M270.552 139.736H217.909C217.551 139.736 217.208 139.594 216.955 139.34C216.702 139.087 216.56 138.744 216.56 138.386C216.56 138.028 216.702 137.685 216.955 137.431C217.208 137.178 217.551 137.036 217.909 137.036H270.552C270.91 137.036 271.254 137.178 271.507 137.431C271.76 137.685 271.902 138.028 271.902 138.386C271.902 138.744 271.76 139.087 271.507 139.34C271.254 139.594 270.91 139.736 270.552 139.736Z" fill="#263238" stroke="#263238" stroke-width="0.75" stroke-linecap="round" stroke-linejoin="round"/>
<path d="M263.578 147.592H217.909C217.164 147.592 216.56 148.196 216.56 148.942C216.56 149.687 217.164 150.291 217.909 150.291H263.578C264.324 150.291 264.928 149.687 264.928 148.942C264.928 148.196 264.324 147.592 263.578 147.592Z" fill="#263238" stroke="#263238" stroke-width="0.75" stroke-linecap="round" stroke-linejoin="round"/>
<path d="M276.852 160.838H217.909C217.551 160.838 217.208 160.696 216.955 160.443C216.702 160.19 216.56 159.846 216.56 159.488C216.56 159.13 216.702 158.787 216.955 158.534C217.208 158.281 217.551 158.139 217.909 158.139H276.852C277.209 158.139 277.553 158.281 277.806 158.534C278.059 158.787 278.201 159.13 278.201 159.488C278.201 159.846 278.059 160.19 277.806 160.443C277.553 160.696 277.209 160.838 276.852 160.838Z" fill="#263238" stroke="#263238" stroke-width="0.75" stroke-linecap="round" stroke-linejoin="round"/>
<path d="M271.227 171.385H217.909C217.551 171.385 217.208 171.243 216.955 170.99C216.702 170.737 216.56 170.393 216.56 170.035C216.56 169.677 216.702 169.334 216.955 169.081C217.208 168.828 217.551 168.686 217.909 168.686H271.227C271.585 168.686 271.929 168.828 272.182 169.081C272.435 169.334 272.577 169.677 272.577 170.035C272.577 170.393 272.435 170.737 272.182 170.99C271.929 171.243 271.585 171.385 271.227 171.385Z" fill="#263238" stroke="#263238" stroke-width="0.75" stroke-linecap="round" stroke-linejoin="round"/>
<path d="M263.578 181.941H217.909C217.551 181.941 217.208 181.799 216.955 181.545C216.702 181.292 216.56 180.949 216.56 180.591C216.56 180.233 216.702 179.89 216.955 179.637C217.208 179.383 217.551 179.241 217.909 179.241H263.578C263.936 179.241 264.28 179.383 264.533 179.637C264.786 179.89 264.928 180.233 264.928 180.591C264.928 180.949 264.786 181.292 264.533 181.545C264.28 181.799 263.936 181.941 263.578 181.941Z" fill="#263238" stroke="#263238" stroke-width="0.75" stroke-linecap="round" stroke-linejoin="round"/>
<path d="M252.556 40.6508H165.268C164.91 40.6508 164.566 40.5086 164.313 40.2555C164.06 40.0023 163.918 39.659 163.918 39.301C163.918 38.943 164.06 38.5997 164.313 38.3465C164.566 38.0934 164.91 37.9512 165.268 37.9512H252.556C252.914 37.9512 253.257 38.0934 253.511 38.3465C253.764 38.5997 253.906 38.943 253.906 39.301C253.906 39.659 253.764 40.0023 253.511 40.2555C253.257 40.5086 252.914 40.6508 252.556 40.6508Z" fill="#263238" stroke="#263238" stroke-width="0.75" stroke-linecap="round" stroke-linejoin="round"/>
<path d="M208.912 226.925C216.864 226.925 223.31 220.479 223.31 212.527C223.31 204.575 216.864 198.129 208.912 198.129C200.96 198.129 194.514 204.575 194.514 212.527C194.514 220.479 200.96 226.925 208.912 226.925Z" fill="#9468B4" stroke="#263238" stroke-width="0.75" stroke-linecap="round" stroke-linejoin="round"/>
<path d="M165.717 226.925C173.669 226.925 180.115 220.479 180.115 212.527C180.115 204.575 173.669 198.129 165.717 198.129C157.766 198.129 151.319 204.575 151.319 212.527C151.319 220.479 157.766 226.925 165.717 226.925Z" fill="#9468B4" stroke="#263238" stroke-linecap="round" stroke-linejoin="round"/>
<path d="M252.106 226.925C260.058 226.925 266.504 220.479 266.504 212.527C266.504 204.575 260.058 198.129 252.106 198.129C244.154 198.129 237.708 204.575 237.708 212.527C237.708 220.479 244.154 226.925 252.106 226.925Z" fill="#9468B4" stroke="#263238" stroke-linecap="round" stroke-linejoin="round"/>
<path d="M246.816 148.131H222.663V114.881H240.256L246.816 121.432V148.131Z" fill="white" stroke="#263238" stroke-linecap="round" stroke-linejoin="round"/>
<path d="M240.256 114.881V115.781V122.341H246.816V121.432L240.256 114.881Z" fill="#263238" stroke="#263238" stroke-width="0.75" stroke-linecap="round" stroke-linejoin="round"/>
<path d="M240.256 121.441H246.816L240.256 114.881V121.441Z" fill="white" stroke="#263238" stroke-linecap="round" stroke-linejoin="round"/>
<path d="M233.768 123.259H237.673L240.661 141.598H237.772L237.25 137.954V138.008H233.974L233.453 141.607H230.753L233.768 123.259ZM236.935 135.497L235.657 126.435H235.603L234.343 135.497H236.935Z" fill="#9468B4" stroke="#9468B4" stroke-width="0.5" stroke-linecap="round" stroke-linejoin="round"/>
<path d="M231.968 122.358H235.873L238.861 140.698H235.972L235.45 137.053V137.107H232.175L231.653 140.707H228.953L231.968 122.358ZM235.135 134.597L233.857 125.535H233.803L232.544 134.597H235.135Z" fill="white" stroke="#263238" stroke-width="0.75" stroke-linecap="round" stroke-linejoin="round"/>
<path d="M318.762 207.946L334.96 269.138C334.96 269.138 335.185 275.887 338.334 281.062L342.753 332.607C342.753 332.607 346.127 337.781 358.275 332.607C358.275 332.607 358.806 295.712 354.307 272.738L350.482 229.021C351.344 222.154 351.117 215.193 349.808 208.396L318.762 207.946Z" fill="#263238"/>
<path opacity="0.5" d="M345.298 213.841C343.093 214.615 340.673 215.083 338.522 215.641C338.389 215.679 338.254 215.709 338.117 215.731C336.263 220.23 334.41 224.729 332.331 229.175C329.883 234.394 326.752 240.963 326.644 247.172C327.468 247.269 328.239 247.631 328.84 248.204C329.44 248.777 329.838 249.53 329.973 250.349C330.198 251.803 330.498 253.245 330.873 254.668C331.413 256.333 332.07 257.89 332.484 259.618C332.592 260.068 332.7 260.518 332.799 260.959C332.565 251.204 331.971 241.71 338.513 233.17C343.273 227.015 344.83 219.303 345.298 213.841Z" fill="black"/>
<path d="M318.762 207.946L334.96 269.138C334.96 269.138 335.185 275.887 338.334 281.062L342.753 332.607C342.753 332.607 346.127 337.781 358.275 332.607C358.275 332.607 358.806 295.712 354.307 272.738L350.482 229.021C351.344 222.154 351.117 215.193 349.808 208.396L318.762 207.946Z" stroke="#263238" stroke-width="0.75" stroke-linecap="round" stroke-linejoin="round"/>
<path d="M343.687 332.58C343.687 332.58 335.886 336.18 333.087 336.18C331.17 336.18 327.589 334.245 325.888 338.735C325.888 338.735 323.854 342.704 336.182 344.135C344.02 344.909 351.912 344.966 359.759 344.306C359.999 344.287 360.232 344.218 360.444 344.103C360.655 343.988 360.84 343.83 360.986 343.639C361.132 343.448 361.236 343.228 361.291 342.994C361.347 342.76 361.352 342.517 361.307 342.281L361.154 341.48C361.154 341.48 360.848 335.577 357.177 332.616L343.687 332.58Z" fill="#9468B4" stroke="#263238" stroke-linecap="round" stroke-linejoin="round"/>
<path d="M333.943 341.857C325.925 340.292 326.132 338.087 326.132 338.087C326.033 338.285 325.943 338.483 325.853 338.708C325.853 338.708 323.819 342.676 336.147 344.107C343.985 344.881 351.876 344.938 359.724 344.278C359.964 344.26 360.197 344.191 360.409 344.076C360.62 343.961 360.805 343.803 360.951 343.612C361.097 343.421 361.201 343.201 361.256 342.967C361.312 342.733 361.317 342.49 361.272 342.253L361.209 341.956L353.893 342.613C353.893 342.613 341.952 343.414 333.943 341.857Z" fill="white" stroke="#263238" stroke-width="0.75" stroke-linecap="round" stroke-linejoin="round"/>
<path d="M343.517 270.839C344.637 272.04 346.026 272.96 347.569 273.521C349.113 274.083 350.768 274.27 352.398 274.069" stroke="#7F7F7F" stroke-width="0.75" stroke-linecap="round" stroke-linejoin="round"/>
<path d="M303.247 205.444C303.247 205.444 299.197 216.018 306.621 261.237C306.621 261.237 305.272 265.511 307.971 274.06L311.571 303.081V331.877C311.571 331.877 314.045 337.952 328.668 331.877C328.668 331.877 329.118 280.809 327.544 270.011L330.99 237.057C331.159 235.523 331.646 234.042 332.421 232.708C333.196 231.373 334.241 230.216 335.49 229.309C338.702 226.942 342.824 221.984 343.498 211.932L303.247 205.444Z" fill="#263238" stroke="#263238" stroke-width="0.75" stroke-linecap="round" stroke-linejoin="round"/>
<path d="M312.579 331.32C312.579 331.32 303.967 335.279 300.881 335.252C298.766 335.252 294.806 333.12 292.899 338.069C292.899 338.069 290.649 342.451 304.255 344.026C312.909 344.88 321.623 344.946 330.289 344.224C330.553 344.202 330.81 344.125 331.042 343.998C331.274 343.87 331.477 343.694 331.637 343.483C331.796 343.271 331.91 343.028 331.969 342.77C332.028 342.511 332.032 342.243 331.98 341.983L331.818 341.083C331.818 341.083 331.477 334.559 327.427 331.302L312.579 331.32Z" fill="#9468B4" stroke="#263238" stroke-linecap="round" stroke-linejoin="round"/>
<path d="M301.817 341.552C292.971 339.833 293.205 337.403 293.205 337.403C293.089 337.625 292.986 337.853 292.899 338.087C292.899 338.087 290.649 342.47 304.255 344.044C312.909 344.898 321.623 344.965 330.289 344.242C330.553 344.221 330.81 344.144 331.042 344.016C331.274 343.888 331.477 343.713 331.637 343.501C331.796 343.29 331.91 343.047 331.969 342.788C332.028 342.53 332.032 342.262 331.98 342.002L331.917 341.678L323.819 342.398C323.819 342.398 310.671 343.28 301.817 341.552Z" fill="white" stroke="#263238" stroke-width="0.75" stroke-linecap="round" stroke-linejoin="round"/>
<path d="M314.496 267.762C314.496 267.762 318.024 271.991 325.07 271.415" stroke="#7F7F7F" stroke-width="0.75" stroke-linecap="round" stroke-linejoin="round"/>
<path d="M320.984 91.6099C320.984 91.6099 313.704 94.8765 313.146 91.6099C314.91 90.9272 316.442 89.7568 317.565 88.2354C319.365 85.7607 328.363 86.4356 328.363 86.4356C328.363 86.4356 344.228 84.9508 342.204 93.0677C342.204 93.0677 348.503 99.0159 343.103 107.682C337.704 116.348 334.591 119.245 334.591 119.245L329.191 118.345L321.686 95.5154L320.984 91.6099Z" fill="#263238" stroke="#263238" stroke-width="0.75" stroke-linecap="round" stroke-linejoin="round"/>
<path d="M322.091 125.176V121.765C322.091 121.765 316.251 122.665 315.45 121.162C314.649 119.659 315.954 113.414 315.954 113.414C315.954 113.414 313.146 113.513 313.146 112.208C313.146 110.904 316.458 105.378 316.458 105.378C316.458 105.378 316.062 100.951 316.458 99.547C316.854 98.1432 320.957 90.1973 320.957 90.1973C320.957 90.1973 326.987 93.5088 326.789 95.3176C326.591 97.1263 324.881 98.8361 326.285 100.348C327.689 101.86 329.605 105.927 328.984 107.862L329.884 108.492C329.884 108.492 330.388 104.892 332.404 104.271C334.42 103.65 336.003 107.682 334.609 110.499C333.214 113.315 331.594 112.811 331.594 112.811C331.594 112.811 332.404 117.644 334.51 119.245L335.149 124.276L322.091 125.176Z" fill="white"/>
<path d="M315.449 121.162C315.449 121.162 318.428 121.909 324.952 119.246C331.476 116.582 331.638 112.812 331.638 112.812L331.926 113.324C331.926 113.324 331.368 119.246 322.091 121.765C314.604 123.79 314.604 122.323 314.604 122.323L315.449 121.162Z" fill="#263238" stroke="#263238" stroke-width="0.5" stroke-linecap="round" stroke-linejoin="round"/>
<path d="M322.091 125.176V121.765C322.091 121.765 316.251 122.665 315.45 121.162C314.649 119.659 315.954 113.414 315.954 113.414C315.954 113.414 313.146 113.513 313.146 112.208C313.146 110.904 316.458 105.378 316.458 105.378C316.458 105.378 316.062 100.951 316.458 99.547C316.854 98.1432 320.957 90.1973 320.957 90.1973C320.957 90.1973 326.987 93.5088 326.789 95.3176C326.591 97.1263 324.881 98.8361 326.285 100.348C327.689 101.86 329.605 105.927 328.984 107.862L329.884 108.492C329.884 108.492 330.388 104.892 332.404 104.271C334.42 103.65 336.003 107.682 334.609 110.499C333.214 113.315 331.594 112.811 331.594 112.811C331.594 112.811 332.404 117.644 334.51 119.245L335.149 124.276L322.091 125.176Z" stroke="#263238" stroke-linecap="round" stroke-linejoin="round"/>
<path d="M321.794 113.414C321.794 113.414 320.777 116.663 317.537 114.917" stroke="#263238" stroke-width="0.75" stroke-linecap="round" stroke-linejoin="round"/>
<path d="M318.222 100.852C318.821 100.777 319.426 100.917 319.932 101.246C320.438 101.576 320.81 102.073 320.984 102.651" stroke="#263238" stroke-width="0.75" stroke-linecap="round" stroke-linejoin="round"/>
<path d="M317.563 104.271C317.563 104.937 317.86 105.477 318.22 105.477C318.58 105.477 318.868 104.937 318.868 104.271C318.868 103.605 318.58 103.065 318.22 103.065C317.86 103.065 317.563 103.605 317.563 104.271Z" fill="#2E353A"/>
<path d="M355.548 144.793C355.548 144.793 372.538 179.771 368.938 185.189C365.339 190.606 349.816 208.369 349.816 208.369L343.517 201.17L356.115 179.789L349.591 166.525C349.591 166.525 346.666 156.122 355.548 144.793Z" fill="#9468B4"/>
<path opacity="0.2" d="M356.313 168.549C357.285 163.15 356.529 153.251 356.313 151.056C355.365 157.727 354.028 164.338 352.309 170.853C352.233 171.163 352.128 171.464 351.994 171.753C353.613 174.291 355.53 176.693 355.251 179.906C354.972 183.118 351.841 187.303 350.014 190.002C349.805 190.31 349.564 190.593 349.294 190.848C349.438 191.115 349.556 191.395 349.645 191.685C350.401 194.25 350.284 196.887 350.302 199.523C352.498 186.151 360.488 181.976 361.181 178.952C362.018 175.28 355.215 174.624 356.313 168.549Z" fill="black"/>
<path d="M355.548 144.793C355.548 144.793 372.538 179.771 368.938 185.189C365.339 190.606 349.816 208.369 349.816 208.369L343.517 201.17L356.115 179.789L349.591 166.525C349.591 166.525 346.666 156.122 355.548 144.793Z" stroke="#263238" stroke-linecap="round" stroke-linejoin="round"/>
<path d="M358.302 179.295C360.21 178.772 362.224 178.772 364.133 179.295" stroke="#263238" stroke-width="0.75" stroke-linecap="round" stroke-linejoin="round"/>
<path d="M318.095 130.305L322.144 123.681C322.144 123.681 333.393 119.083 339.017 123.681L342.167 132.554L318.095 130.305Z" fill="#9468B4" stroke="#263238" stroke-linecap="round" stroke-linejoin="round"/>
<path d="M301.897 207.55L305.254 179.951L303.895 138.557C303.825 136.745 304.366 134.962 305.429 133.493C306.493 132.025 308.019 130.956 309.762 130.458C321.191 127.146 345.659 123.079 355.548 144.802C356.383 146.615 356.649 148.638 356.313 150.606L349.591 189.256L351.391 210.34C351.391 210.34 329.488 226.448 301.897 207.55Z" fill="#9468B4"/>
<path opacity="0.2" d="M330.126 205.445C329.568 197.346 344.191 194.197 343.516 190.858C342.841 187.52 332.493 189.247 332.493 185.954C332.493 182.66 305.109 175.551 311.372 160.226C313.127 156.18 314.072 151.83 314.153 147.421C311.214 151.201 307.897 154.671 304.254 157.779C304.483 158.437 304.56 159.138 304.479 159.83C304.479 159.929 304.56 160.028 304.587 160.127C305.119 162.429 305.168 164.816 304.731 167.137C304.767 167.604 304.74 168.073 304.65 168.532C304.996 171.181 305.128 173.853 305.046 176.523C305.046 176.739 305.1 176.955 305.145 177.171C305.267 177.855 305.243 178.558 305.073 179.232C305.421 180.134 305.446 181.129 305.145 182.048C304.983 182.561 304.812 183.074 304.641 183.587C304.704 183.837 304.741 184.094 304.749 184.352C304.911 188.428 304.038 192.451 303.345 196.419C302.698 200.118 302.572 203.906 301.888 207.596C302.361 207.818 302.79 208.123 303.157 208.496C305.514 210.871 309.807 212.419 312.902 213.607C316.513 214.946 320.248 215.923 324.052 216.523C331.791 217.884 339.764 216.55 346.639 212.743C343.858 212.824 330.63 212.707 330.126 205.445Z" fill="black"/>
<path d="M301.897 207.55L305.254 179.951L303.895 138.557C303.825 136.745 304.366 134.962 305.429 133.493C306.493 132.025 308.019 130.956 309.762 130.458C321.191 127.146 345.659 123.079 355.548 144.802C356.383 146.615 356.649 148.638 356.313 150.606L349.591 189.256L351.391 210.34C351.391 210.34 329.488 226.448 301.897 207.55Z" stroke="#263238" stroke-linecap="round" stroke-linejoin="round"/>
<path d="M347.117 190.147C347.117 190.147 313.371 197.346 311.571 190.147C309.772 182.948 321.02 187.447 330.127 186.322" stroke="#263238" stroke-width="0.75" stroke-linecap="round" stroke-linejoin="round"/>
<path d="M263.571 147.556L252.773 143.641C252.773 143.641 249.938 136.244 247.904 134.714C245.87 133.185 243.405 130.215 242.739 131.349C242.262 132.15 243.504 134.282 245.232 135.767C247.103 137.378 246.293 139.421 245.906 140.267C245.519 141.112 242.514 142.498 240.084 143.353C237.655 144.208 231.985 142.093 230.537 143.56C229.088 145.027 232.813 145.522 232.813 145.522C232.813 145.522 230.042 145.72 229.79 147.322C229.646 148.285 232.408 147.682 233.785 147.538C235.162 147.394 237.988 147.214 237.988 147.214C237.988 147.214 233.2 148.878 233.551 150.21C233.902 151.542 237.25 149.517 240.03 149.04C240.03 149.04 236.296 150.894 236.791 152.136C237.286 153.378 239.076 151.587 242.28 150.336L248.993 148.797L259.909 154.755L263.571 147.556Z" fill="white" stroke="#263238" stroke-linecap="round" stroke-linejoin="round"/>
<path d="M233.84 145.504C235.362 145.851 236.924 145.99 238.483 145.918" stroke="#263238" stroke-width="0.75" stroke-linecap="round" stroke-linejoin="round"/>
<path d="M308.611 131.357C308.258 131.218 307.871 131.189 307.5 131.272C307.13 131.355 306.793 131.548 306.533 131.825L287.23 152.378L255.582 143.64L252.081 152.459C252.081 152.459 276.09 165.894 288.292 165.157C297.552 164.59 308.872 154.628 313.795 149.859C314.609 149.063 315.216 148.081 315.564 146.997C315.912 145.913 315.991 144.761 315.793 143.64" fill="#9468B4"/>
<path d="M308.611 131.357C308.258 131.218 307.871 131.189 307.5 131.272C307.13 131.355 306.793 131.548 306.533 131.825L287.23 152.378L255.582 143.64L252.081 152.459C252.081 152.459 276.09 165.894 288.292 165.157C297.552 164.59 308.872 154.628 313.795 149.859C314.609 149.063 315.216 148.081 315.564 146.997C315.912 145.913 315.991 144.761 315.793 143.64" stroke="#263238" stroke-linecap="round" stroke-linejoin="round"/>
<path d="M258.775 151.524C258.806 151.733 258.774 151.946 258.684 152.137C258.594 152.328 258.45 152.488 258.269 152.597C258.089 152.706 257.88 152.76 257.669 152.751C257.458 152.741 257.255 152.67 257.084 152.546C256.914 152.421 256.784 152.249 256.711 152.051C256.638 151.853 256.625 151.638 256.674 151.432C256.723 151.227 256.831 151.041 256.986 150.897C257.14 150.753 257.334 150.658 257.542 150.624C257.682 150.6 257.826 150.604 257.965 150.636C258.103 150.669 258.234 150.729 258.349 150.813C258.464 150.897 258.561 151.003 258.634 151.125C258.707 151.247 258.755 151.383 258.775 151.524Z" fill="white" stroke="#263238" stroke-width="0.75" stroke-linecap="round" stroke-linejoin="round"/>
<path d="M286.914 158.471C287.94 155.816 286.536 153.629 287.976 153.377C289.416 153.125 289.524 157.679 291.908 157.616" stroke="#263238" stroke-width="0.75" stroke-linecap="round" stroke-linejoin="round"/>
<path d="M175.743 338.843L153.03 336.288V284.905L164.683 277.904V275.339H133.449V277.886L145.147 284.869V336.288L122.434 338.843C121.414 338.958 120.473 339.445 119.789 340.21C119.105 340.975 118.727 341.966 118.727 342.992V345.098H179.513V342.992C179.512 341.956 179.125 340.957 178.428 340.191C177.731 339.424 176.774 338.944 175.743 338.843Z" fill="white" stroke="#263238" stroke-width="0.75" stroke-linecap="round" stroke-linejoin="round"/>
<path d="M126.663 245.229H120.454V273.431H126.663V245.229Z" fill="white" stroke="#263238" stroke-width="0.75" stroke-linecap="round" stroke-linejoin="round"/>
<path d="M182.068 267.591H116.08C113.928 267.591 112.184 269.335 112.184 271.487V275.375C112.184 277.527 113.928 279.271 116.08 279.271H182.068C184.22 279.271 185.965 277.527 185.965 275.375V271.487C185.965 269.335 184.22 267.591 182.068 267.591Z" fill="#263238" stroke="#263238" stroke-linecap="round" stroke-linejoin="round"/>
<path d="M136.571 216.405H110.555C106.42 216.405 103.068 219.757 103.068 223.892V240.315C103.068 244.45 106.42 247.802 110.555 247.802H136.571C140.706 247.802 144.058 244.45 144.058 240.315V223.892C144.058 219.757 140.706 216.405 136.571 216.405Z" fill="#263238"/>
<path opacity="0.5" d="M143.41 216.405H117.394C113.259 216.405 109.907 219.757 109.907 223.892V240.315C109.907 244.45 113.259 247.802 117.394 247.802H143.41C147.545 247.802 150.897 244.45 150.897 240.315V223.892C150.897 219.757 147.545 216.405 143.41 216.405Z" fill="black"/>
<path d="M136.571 216.405H110.555C106.42 216.405 103.068 219.757 103.068 223.892V240.315C103.068 244.45 106.42 247.802 110.555 247.802H136.571C140.706 247.802 144.058 244.45 144.058 240.315V223.892C144.058 219.757 140.706 216.405 136.571 216.405Z" stroke="#263238" stroke-linecap="round" stroke-linejoin="round"/>
<path d="M172.854 265.827C174.795 264.275 176.95 263.011 179.252 262.074" stroke="#263238" stroke-width="0.75" stroke-linecap="round" stroke-linejoin="round"/>
<path d="M176.714 259.941C176.714 259.941 170.19 265.287 171.513 266.088" stroke="#263238" stroke-width="0.75" stroke-linecap="round" stroke-linejoin="round"/>
<path d="M197.339 309.912L199.364 324.175C199.364 324.175 195.576 327.27 195.387 335.693L202.064 338.069L203.864 335.693L209.821 341.902C209.821 341.902 220.376 346.654 221.816 343.477C223.256 340.301 217.434 337.952 212.511 330.969C211.234 329.169 206.959 324.022 206.959 324.022L207.382 309.138L197.339 309.912Z" fill="#263238" stroke="#263238" stroke-width="0.75" stroke-linecap="round" stroke-linejoin="round"/>
<path d="M146.371 249.376C146.371 249.376 202.244 245.633 204.791 253.525C207.337 261.417 208.534 286.677 208.66 296.719C208.786 306.762 207.994 319.441 207.994 319.441C204.638 320.458 201.056 320.458 197.7 319.441C197.7 319.441 195.243 304.872 193.47 297.79C191.697 290.708 189.817 281.259 190.888 266.294C190.888 266.294 137.345 274.393 137.048 264.998C136.751 255.604 146.371 249.376 146.371 249.376Z" fill="white"/>
<path opacity="0.5" d="M146.371 249.376C146.371 249.376 202.244 245.633 204.791 253.525C207.337 261.417 208.534 286.677 208.66 296.719C208.786 306.762 207.994 319.441 207.994 319.441C204.638 320.458 201.056 320.458 197.7 319.441C197.7 319.441 195.243 304.872 193.47 297.79C191.697 290.708 189.817 281.259 190.888 266.294C190.888 266.294 137.345 274.393 137.048 264.998C136.751 255.604 146.371 249.376 146.371 249.376Z" fill="black"/>
<path opacity="0.2" d="M185.731 252.022L186.703 252.454L187.09 252.607L187.324 252.715C187.74 252.891 188.135 253.111 188.503 253.372C192.508 255.325 194.397 258.889 193.002 263.433C192.995 263.686 192.971 263.939 192.93 264.189C192.307 267.384 191.404 270.519 190.231 273.557C190.59 274.177 190.739 274.897 190.654 275.608C190.51 276.751 190.393 277.885 190.303 279.028C190.721 280.012 190.852 281.095 190.681 282.15C190.579 282.836 190.531 283.528 190.537 284.22C190.87 286.722 191.194 289.223 191.662 291.698L192.202 293.768C192.202 293.282 192.202 292.76 192.148 292.175C191.104 271.649 194.271 279.991 195.666 265.827C196.773 255.172 189.439 252.625 185.731 252.022Z" fill="black"/>
<path d="M146.371 249.376C146.371 249.376 202.244 245.633 204.791 253.525C207.337 261.417 208.534 286.677 208.66 296.719C208.786 306.762 207.994 319.441 207.994 319.441C204.638 320.458 201.056 320.458 197.7 319.441C197.7 319.441 195.243 304.872 193.47 297.79C191.697 290.708 189.817 281.259 190.888 266.294C190.888 266.294 137.345 274.393 137.048 264.998C136.751 255.604 146.371 249.376 146.371 249.376Z" stroke="#263238" stroke-linecap="round" stroke-linejoin="round"/>
<path d="M196.89 261.21C196.89 261.21 196.314 263.802 192.696 266.312" stroke="#263238" stroke-width="0.75" stroke-linecap="round" stroke-linejoin="round"/>
<path d="M209.29 316.229L208.903 320.008C208.903 320.008 202.514 323.437 196.89 320.269L195.72 316.552C195.72 316.552 199.526 319.162 209.29 316.229Z" fill="#9468B4"/>
<path opacity="0.3" d="M209.29 316.229L208.903 320.008C208.903 320.008 202.514 323.437 196.89 320.269L195.72 316.552C195.72 316.552 199.526 319.162 209.29 316.229Z" fill="#9468B4" stroke="#263238" stroke-width="0.75" stroke-miterlimit="10"/>
<path d="M209.29 316.229L208.903 320.008C208.903 320.008 202.514 323.437 196.89 320.269L195.72 316.552C195.72 316.552 199.526 319.162 209.29 316.229Z" stroke="#263238" stroke-width="0.75" stroke-linecap="round" stroke-linejoin="round"/>
<path d="M206.608 325.3C209.162 327.855 211.42 330.689 213.34 333.75" stroke="#7F7F7F" stroke-linecap="round" stroke-linejoin="round"/>
<path d="M156.728 299.95L150.492 312.935C150.492 312.935 145.623 313.403 140.791 320.305L145.029 325.984L147.846 325.012L149.358 333.489C149.358 333.489 155.495 343.297 158.456 341.453C161.416 339.608 157.889 334.425 157.673 325.885C157.61 323.662 156.908 317.021 156.908 317.021L165.529 304.882L156.728 299.95Z" fill="#263238" stroke="#263238" stroke-width="0.75" stroke-linecap="round" stroke-linejoin="round"/>
<path d="M127.149 251.483C127.149 251.483 119.221 267.321 129.354 268.725C139.487 270.128 170.461 268.329 170.461 268.329C166.58 274.553 163.14 281.042 160.166 287.748C156.152 297.233 152.148 306.996 152.148 306.996C152.148 306.996 153.885 311.676 160.967 312.612C160.967 312.612 166.717 303.613 179.279 289.62C191.842 275.627 195.324 261.544 192.652 256.729C189.979 251.915 176.076 249.314 153.615 248.279L127.149 251.483Z" fill="white"/>
<path opacity="0.5" d="M127.149 251.483C127.149 251.483 119.221 267.321 129.354 268.725C139.487 270.128 170.461 268.329 170.461 268.329C166.58 274.553 163.14 281.042 160.166 287.748C156.152 297.233 152.148 306.996 152.148 306.996C152.148 306.996 153.885 311.676 160.967 312.612C160.967 312.612 166.717 303.613 179.279 289.62C191.842 275.627 195.324 261.544 192.652 256.729C189.979 251.915 176.076 249.314 153.615 248.279L127.149 251.483Z" fill="black"/>
<path d="M127.149 251.483C127.149 251.483 119.221 267.321 129.354 268.725C139.487 270.128 170.461 268.329 170.461 268.329C166.58 274.553 163.14 281.042 160.166 287.748C156.152 297.233 152.148 306.996 152.148 306.996C152.148 306.996 153.885 311.676 160.967 312.612C160.967 312.612 166.717 303.613 179.279 289.62C191.842 275.627 195.324 261.544 192.652 256.729C189.979 251.915 176.076 249.314 153.615 248.279L127.149 251.483Z" stroke="#263238" stroke-linecap="round" stroke-linejoin="round"/>
<path d="M163.343 311.271L160.94 314.213C160.94 314.213 153.741 313.547 150.78 307.797L151.851 304.054C151.851 304.054 153.588 308.328 163.343 311.271Z" fill="#9468B4"/>
<path opacity="0.3" d="M163.343 311.271L160.94 314.213C160.94 314.213 153.741 313.547 150.78 307.797L151.851 304.054C151.851 304.054 153.588 308.328 163.343 311.271Z" fill="#9468B4" stroke="#263238" stroke-width="0.75" stroke-miterlimit="10"/>
<path d="M163.343 311.271L160.94 314.213C160.94 314.213 153.741 313.547 150.78 307.797L151.851 304.054C151.851 304.054 153.588 308.328 163.343 311.271Z" stroke="#263238" stroke-width="0.75" stroke-linecap="round" stroke-linejoin="round"/>
<path d="M155.675 318.244C156.035 320.206 156.71 324.201 157.061 328.512" stroke="#7F7F7F" stroke-linecap="round" stroke-linejoin="round"/>
<path d="M152.787 156.752C152.787 156.752 159.671 153.333 152.418 148.77C145.165 144.208 132.486 156.752 132.486 156.752L131.253 162.611C131.253 162.611 131.784 167.281 133.467 169.99C134.816 172.176 137.219 172.185 138.353 174.354C140.09 177.648 139.514 179.987 141.305 178.548C145.732 174.948 147.163 160.721 147.163 160.721L152.787 156.752Z" fill="#263238" stroke="#263238" stroke-linecap="round" stroke-linejoin="round"/>
<path d="M150.132 184.855L151.329 177.836L142.276 170.034L139.721 181.787L150.132 184.855Z" fill="white"/>
<path d="M141.395 170.854C141.395 170.854 142.132 174.903 144.337 177.45C146.542 179.996 152.292 183.02 152.292 183.02L152.787 178.197L143.788 171.34L142.276 170.053L141.395 170.854Z" fill="#263238" stroke="#263238" stroke-width="0.5" stroke-linecap="round" stroke-linejoin="round"/>
<path d="M150.132 184.855L151.329 177.836L142.276 170.034L139.721 181.787L150.132 184.855Z" stroke="#263238" stroke-linecap="round" stroke-linejoin="round"/>
<path d="M153.011 154.277C153.011 154.277 157.124 161.476 157.034 163.555C157.034 163.555 162.433 177.728 157.034 180.059C152.84 181.859 147.576 178.349 145.515 176.747C144.951 176.302 144.477 175.752 144.12 175.128L142.366 172.041C142.366 172.041 140.206 172.662 138.235 169.854C136.264 167.047 138.289 164.383 140.458 166.039C140.458 166.039 142.096 162.646 141.583 160.774C141.07 158.903 143.526 158.876 143.634 156.887C143.661 156.887 149.502 156.68 153.011 154.277Z" fill="white"/>
<path d="M153.011 154.277C153.011 154.277 157.124 161.476 157.034 163.555C157.034 163.555 162.433 177.728 157.034 180.059C152.84 181.859 147.576 178.349 145.515 176.747C144.951 176.302 144.477 175.752 144.12 175.128L142.366 172.041C142.366 172.041 140.206 172.662 138.235 169.854C136.264 167.047 138.289 164.383 140.458 166.039C140.458 166.039 142.096 162.646 141.583 160.774C141.07 158.903 143.526 158.876 143.634 156.887C143.661 156.887 149.502 156.68 153.011 154.277Z" stroke="#263238" stroke-linecap="round" stroke-linejoin="round"/>
<path d="M152.256 173.706C152.256 173.706 153.588 175.506 156.296 173.104" stroke="#263238" stroke-width="0.75" stroke-linecap="round" stroke-linejoin="round"/>
<path d="M154.497 165.31C154.991 167.254 154.416 169.072 153.21 169.378C152.004 169.684 150.627 168.37 150.132 166.435C149.637 164.5 150.429 163.735 151.635 163.439C152.841 163.142 154.002 163.376 154.497 165.31Z" stroke="#263238" stroke-width="0.75" stroke-linecap="round" stroke-linejoin="round"/>
<path d="M160.003 163.753C160.498 165.697 160.102 167.47 159.103 167.722C158.105 167.973 156.917 166.606 156.404 164.671C155.891 162.736 156.539 162.025 157.52 161.773C158.501 161.521 159.544 161.773 160.003 163.753Z" fill="white" stroke="#263238" stroke-width="0.75" stroke-linecap="round" stroke-linejoin="round"/>
<path d="M149.493 163.384C149.65 163.061 149.87 162.771 150.14 162.534C150.411 162.297 150.726 162.115 151.067 162.001C151.408 161.887 151.769 161.843 152.127 161.87C152.486 161.897 152.836 161.996 153.156 162.16" stroke="#263238" stroke-width="0.75" stroke-linecap="round" stroke-linejoin="round"/>
<path d="M155.451 161.377C155.515 161.08 155.653 160.803 155.853 160.573C156.053 160.343 156.308 160.168 156.594 160.063" stroke="#263238" stroke-width="0.75" stroke-linecap="round" stroke-linejoin="round"/>
<path d="M150.131 166.435L147.836 167.362L140.484 166.039" stroke="#263238" stroke-width="0.75" stroke-linecap="round" stroke-linejoin="round"/>
<path d="M156.368 164.303L154.532 165.05" stroke="#263238" stroke-width="0.75" stroke-linecap="round" stroke-linejoin="round"/>
<path d="M153.48 165.778C153.543 166.39 153.3 166.921 152.913 166.966C152.526 167.011 152.166 166.543 152.094 165.931C152.022 165.319 152.274 164.788 152.652 164.743C153.03 164.698 153.408 165.157 153.48 165.778Z" fill="#263238"/>
<path d="M157.97 164.149C158.042 164.752 157.88 165.256 157.601 165.292C157.322 165.328 157.052 164.86 156.989 164.266C156.926 163.672 157.079 163.159 157.349 163.132C157.619 163.105 157.898 163.555 157.97 164.149Z" fill="#263238"/>
<path d="M155.892 164.509L159.671 167.829C159.761 167.909 159.831 168.008 159.876 168.119C159.92 168.231 159.939 168.351 159.929 168.47C159.92 168.59 159.882 168.706 159.82 168.808C159.758 168.911 159.673 168.998 159.572 169.062L157.628 170.277" fill="white"/>
<path d="M155.892 164.509L159.671 167.829C159.761 167.909 159.831 168.008 159.876 168.119C159.92 168.231 159.939 168.351 159.929 168.47C159.92 168.59 159.882 168.706 159.82 168.808C159.758 168.911 159.673 168.998 159.572 169.062L157.628 170.277" stroke="#263238" stroke-width="0.75" stroke-linecap="round" stroke-linejoin="round"/>
<path d="M134.482 156.996C134.482 156.996 133.816 145.027 124.53 149.797C115.243 154.566 124.116 168.604 121.335 171.7C118.555 174.795 123.873 173.409 124.53 171.169C125.187 168.928 124.647 174.903 125.934 175.119C127.22 175.335 127.427 169.99 128.633 169.99C129.839 169.99 128.318 173.319 129.281 173.688C130.244 174.057 132.485 167.155 133.124 163.34C133.461 161.202 133.915 159.084 134.482 156.996Z" fill="#263238" stroke="#263238" stroke-linecap="round" stroke-linejoin="round"/>
<path d="M134.483 155.366C134.483 155.366 131.235 158.966 132.504 167.965C132.549 167.947 126.25 158.831 134.483 155.366Z" fill="#9468B4" stroke="#263238" stroke-linecap="round" stroke-linejoin="round"/>
<path d="M142.177 156.752C142.177 156.752 145.776 157.751 146.271 160.72C146.766 163.69 148.44 153.899 142.177 156.752Z" fill="#263238" stroke="#263238" stroke-width="0.75" stroke-linecap="round" stroke-linejoin="round"/>
<path d="M154.146 156.114C154.146 156.114 158.06 154.935 159.23 157.499C159.203 157.499 158.645 151.317 154.146 156.114Z" fill="#263238" stroke="#263238" stroke-width="0.75" stroke-linecap="round" stroke-linejoin="round"/>
<path d="M185.048 153.54C185.84 153.324 186.659 154.35 186.659 154.35C187.505 152.91 188.855 155.303 188.855 155.303C189.988 153.918 190.564 156.95 190.564 156.95C190.564 156.95 191.761 156.671 191.617 158.192C191.428 160.19 189.107 164.761 189.107 164.761L187.595 172.5L181.934 171.834L183.734 164.41L182.042 161.153C181.421 159.844 181.113 158.408 181.143 156.959C181.413 155.114 184.256 153.747 185.048 153.54Z" fill="white" stroke="#263238" stroke-linecap="round" stroke-linejoin="round"/>
<path d="M185.056 155.394C185.056 155.394 186.747 158.93 186.54 155.394C186.54 155.394 187.773 159.776 188.556 156.212C188.556 156.212 188.079 160.307 189.744 158.012C189.744 158.012 189.042 159.236 189.357 159.812C189.672 160.388 190.563 159.443 190.563 159.443" fill="white"/>
<path d="M185.056 155.394C185.056 155.394 186.747 158.93 186.54 155.394C186.54 155.394 187.773 159.776 188.556 156.212C188.556 156.212 188.079 160.307 189.744 158.012C189.744 158.012 189.042 159.236 189.357 159.812C189.672 160.388 190.563 159.443 190.563 159.443" stroke="#263238" stroke-width="0.75" stroke-linecap="round" stroke-linejoin="round"/>
<path d="M157.43 187.366L175.553 187.744L182.356 168.847L188.341 170.952C188.341 170.952 185.272 194.88 182.203 196.302C179.135 197.724 160.444 199.749 160.444 199.749C160.444 199.749 154.631 193.332 157.43 187.366Z" fill="#9468B4"/>
<path opacity="0.2" d="M163.864 192.793C163.061 191.326 161.967 190.04 160.648 189.012C159.33 187.985 157.815 187.238 156.197 186.817C158.978 188.617 160.634 192.217 161.723 195.159C162.161 196.352 162.496 197.58 162.721 198.831C166.65 198.821 170.569 198.423 174.42 197.643C171.594 197.49 166.132 196.698 163.864 192.793Z" fill="black"/>
<path d="M157.43 187.366L175.553 187.744L182.356 168.847L188.341 170.952C188.341 170.952 185.272 194.88 182.203 196.302C179.135 197.724 160.444 199.749 160.444 199.749C160.444 199.749 154.631 193.332 157.43 187.366Z" stroke="#263238" stroke-linecap="round" stroke-linejoin="round"/>
<path d="M181.286 170.305L188.341 172.707L188.818 169.495L182.141 167.371L181.286 170.305Z" fill="#9468B4" stroke="#263238" stroke-linecap="round" stroke-linejoin="round"/>
<path d="M191.185 161.711C190.538 161.86 189.868 161.88 189.213 161.77C188.558 161.659 187.932 161.421 187.369 161.068C186.806 160.716 186.319 160.255 185.935 159.714C185.55 159.172 185.276 158.561 185.129 157.913L178.137 127.362L188.035 125.104L194.991 155.654C195.139 156.302 195.158 156.972 195.047 157.627C194.935 158.282 194.696 158.909 194.343 159.471C193.989 160.033 193.528 160.521 192.987 160.905C192.445 161.289 191.833 161.563 191.185 161.711Z" fill="white" stroke="#263238" stroke-width="0.75" stroke-linecap="round" stroke-linejoin="round"/>
<path d="M186.529 126.996L180.178 128.449L181.214 132.976L187.565 131.522L186.529 126.996Z" fill="#9468B4"/>
<path opacity="0.7" d="M186.528 126.996L180.177 128.449L181.213 132.976L187.564 131.522L186.528 126.996Z" fill="white"/>
<path d="M187.818 132.596L181.467 134.05L182.503 138.576L188.854 137.123L187.818 132.596Z" fill="#9468B4"/>
<path opacity="0.3" d="M187.819 132.596L181.468 134.05L182.504 138.576L188.855 137.123L187.819 132.596Z" fill="white"/>
<path d="M189.1 138.209L182.749 139.662L183.785 144.188L190.136 142.735L189.1 138.209Z" fill="#9468B4"/>
<path d="M190.378 143.801L184.027 145.254L185.063 149.78L191.414 148.327L190.378 143.801Z" fill="#9468B4"/>
<path opacity="0.2" d="M190.378 143.801L184.027 145.254L185.063 149.78L191.414 148.327L190.378 143.801Z" fill="black"/>
<path d="M191.661 149.413L185.31 150.866L186.345 155.393L192.696 153.939L191.661 149.413Z" fill="#9468B4"/>
<path opacity="0.3" d="M191.661 149.412L185.311 150.865L186.346 155.392L192.697 153.938L191.661 149.412Z" fill="black"/>
<path d="M182.636 156.312C182.662 156.109 182.745 155.918 182.876 155.761C183.007 155.604 183.181 155.488 183.376 155.427C183.571 155.365 183.779 155.361 183.976 155.414C184.174 155.467 184.352 155.576 184.489 155.727C185.947 156.797 188.089 157.148 187.846 157.814C187.603 158.48 187.045 158.885 184.957 158.039C184.957 158.039 184.588 158.264 185.11 158.939C185.812 159.673 186.292 160.59 186.496 161.585" fill="white"/>
<path d="M182.636 156.312C182.662 156.109 182.745 155.918 182.876 155.761C183.007 155.604 183.181 155.488 183.376 155.427C183.571 155.365 183.779 155.361 183.976 155.414C184.174 155.467 184.352 155.576 184.489 155.727C185.947 156.797 188.089 157.148 187.846 157.814C187.603 158.48 187.045 158.885 184.957 158.039C184.957 158.039 184.588 158.264 185.11 158.939C185.812 159.673 186.292 160.59 186.496 161.585" stroke="#263238" stroke-width="0.75" stroke-linecap="round" stroke-linejoin="round"/>
<path d="M123.693 187.762L129.353 238.372L125.754 253.589C125.754 253.589 129.542 254.443 140.044 251.141C150.546 247.838 161.785 248.828 161.785 248.828C161.785 248.828 166.437 215.137 164.575 204.608C163.516 198.401 161.081 192.509 157.448 187.366C157.448 187.366 137.281 178.548 124.962 185.288C124.529 185.527 124.176 185.891 123.95 186.332C123.724 186.772 123.635 187.27 123.693 187.762Z" fill="#9468B4"/>
<path opacity="0.12" d="M134.483 217.017C134.906 210.718 132.098 200.36 132.098 200.36L130.001 200.639C129.583 206.736 129.637 212.855 130.163 218.943C130.379 221.382 131.666 223.919 131.585 226.34C131.513 228.491 130.28 229.939 129.236 231.739C129.056 232.045 128.894 232.351 128.715 232.639C129.229 233.439 129.431 234.4 129.281 235.339C129.164 236.482 128.975 237.606 128.769 238.722C128.834 239.285 128.797 239.855 128.661 240.405C128.031 243.051 127.473 245.669 126.987 248.342C126.512 250.118 126.142 251.921 125.88 253.741C129.842 253.623 133.78 253.092 137.632 252.157C139.214 251.775 140.75 251.223 142.213 250.511C127.644 252.661 132.638 243.24 133.079 239.325C133.52 235.411 147.585 230.632 148.287 226.358C148.989 222.083 134.051 223.289 134.483 217.017Z" fill="black"/>
<path d="M123.693 187.762L129.353 238.372L125.754 253.589C125.754 253.589 129.542 254.443 140.044 251.141C150.546 247.838 161.785 248.828 161.785 248.828C161.785 248.828 166.437 215.137 164.575 204.608C163.516 198.401 161.081 192.509 157.448 187.366C157.448 187.366 137.281 178.548 124.962 185.288C124.529 185.527 124.176 185.891 123.95 186.332C123.724 186.772 123.635 187.27 123.693 187.762V187.762Z" stroke="#263238" stroke-linecap="round" stroke-linejoin="round"/>
<path d="M136.454 183.019L139.109 177.836C142.164 178.868 145.273 179.733 148.423 180.428C153.525 181.543 152.292 183.019 152.292 183.019L150.987 186.952C150.987 186.952 148.98 188.949 136.454 183.019Z" fill="#9468B4" stroke="#263238" stroke-linecap="round" stroke-linejoin="round"/>
<path d="M126.591 222.245C126.591 222.245 129.479 219.969 130.19 220.941C130.901 221.912 129.38 221.589 128.238 224.9" stroke="#263238" stroke-linecap="round" stroke-linejoin="round"/>
<path d="M152.489 246.236C152.289 245.182 152.514 244.091 153.116 243.202C153.718 242.313 154.648 241.699 155.702 241.494L180.323 236.761L181.853 244.707L157.232 249.44C156.178 249.643 155.087 249.42 154.198 248.82C153.309 248.219 152.694 247.29 152.489 246.236Z" fill="white" stroke="#263238" stroke-width="0.75" stroke-linecap="round" stroke-linejoin="round"/>
<path d="M180.38 243.479L179.394 238.354L175.744 239.056L176.73 244.181L180.38 243.479Z" fill="#9468B4"/>
<path opacity="0.7" d="M180.381 243.479L179.395 238.354L175.745 239.056L176.731 244.181L180.381 243.479Z" fill="white"/>
<path d="M175.86 244.353L174.874 239.228L171.224 239.93L172.21 245.055L175.86 244.353Z" fill="#9468B4"/>
<path opacity="0.3" d="M175.862 244.353L174.876 239.228L171.226 239.93L172.212 245.055L175.862 244.353Z" fill="white"/>
<path d="M171.341 245.211L170.356 240.095L166.707 240.797L167.691 245.913L171.341 245.211Z" fill="#9468B4"/>
<path d="M166.822 246.078L165.838 240.962L162.188 241.664L163.173 246.781L166.822 246.078Z" fill="#9468B4"/>
<path opacity="0.2" d="M166.822 246.078L165.838 240.962L162.188 241.664L163.173 246.781L166.822 246.078Z" fill="black"/>
<path d="M162.305 246.944L161.32 241.827L157.671 242.529L158.655 247.646L162.305 246.944Z" fill="#9468B4"/>
<path opacity="0.3" d="M162.305 246.944L161.32 241.827L157.671 242.529L158.655 247.646L162.305 246.944Z" fill="black"/>
<path d="M153.471 247.298C153.122 246.896 152.856 246.43 152.688 245.925C152.519 245.42 152.452 244.888 152.49 244.357C152.527 243.826 152.669 243.308 152.907 242.832C153.145 242.357 153.474 241.932 153.876 241.584L172.828 225.17L178.128 231.289L159.176 247.703C158.775 248.051 158.31 248.317 157.806 248.486C157.302 248.654 156.77 248.721 156.24 248.684C155.71 248.646 155.193 248.504 154.717 248.267C154.242 248.029 153.819 247.7 153.471 247.298Z" fill="white" stroke="#263238" stroke-width="0.75" stroke-linecap="round" stroke-linejoin="round"/>
<path d="M176.231 230.96L172.82 227.021L170.011 229.454L173.421 233.393L176.231 230.96Z" fill="#9468B4"/>
<path opacity="0.7" d="M176.231 230.96L172.82 227.021L170.011 229.454L173.421 233.393L176.231 230.96Z" fill="white"/>
<path d="M172.766 233.974L169.35 230.028L166.54 232.461L169.957 236.407L172.766 233.974Z" fill="#9468B4"/>
<path opacity="0.3" d="M172.764 233.974L169.348 230.028L166.538 232.461L169.955 236.407L172.764 233.974Z" fill="white"/>
<path d="M169.278 236.986L165.867 233.047L163.058 235.48L166.468 239.419L169.278 236.986Z" fill="#9468B4"/>
<path d="M165.805 240.005L162.395 236.066L159.585 238.499L162.996 242.438L165.805 240.005Z" fill="#9468B4"/>
<path opacity="0.2" d="M165.804 240.005L162.394 236.066L159.584 238.499L162.995 242.438L165.804 240.005Z" fill="black"/>
<path d="M162.33 243.009L158.913 239.063L156.104 241.496L159.52 245.442L162.33 243.009Z" fill="#9468B4"/>
<path opacity="0.3" d="M162.331 243.009L158.914 239.063L156.105 241.496L159.521 245.442L162.331 243.009Z" fill="black"/>
<path d="M154.236 247.443C153.224 247.089 152.393 246.349 151.925 245.384C151.458 244.419 151.393 243.308 151.743 242.295L159.95 218.646L167.59 221.292L159.383 244.986C159.025 245.993 158.282 246.817 157.317 247.278C156.352 247.738 155.244 247.797 154.236 247.443Z" fill="white" stroke="#263238" stroke-width="0.75" stroke-linecap="round" stroke-linejoin="round"/>
<path d="M165.795 221.923L160.863 220.214L159.647 223.726L164.578 225.434L165.795 221.923Z" fill="#9468B4"/>
<path opacity="0.7" d="M165.795 221.923L160.863 220.214L159.647 223.726L164.578 225.434L165.795 221.923Z" fill="white"/>
<path d="M164.276 226.26L159.353 224.555L158.136 228.066L163.059 229.772L164.276 226.26Z" fill="#9468B4"/>
<path opacity="0.3" d="M164.277 226.26L159.354 224.555L158.137 228.066L163.06 229.772L164.277 226.26Z" fill="white"/>
<path d="M162.775 230.604L157.852 228.898L156.635 232.41L161.558 234.116L162.775 230.604Z" fill="#9468B4"/>
<path d="M161.281 234.96L156.35 233.251L155.133 236.763L160.065 238.471L161.281 234.96Z" fill="#9468B4"/>
<path opacity="0.2" d="M161.279 234.96L156.348 233.251L155.131 236.763L160.063 238.471L161.279 234.96Z" fill="black"/>
<path d="M159.762 239.298L154.839 237.592L153.622 241.103L158.545 242.809L159.762 239.298Z" fill="#9468B4"/>
<path opacity="0.3" d="M159.761 239.298L154.838 237.592L153.621 241.103L158.544 242.809L159.761 239.298Z" fill="black"/>
<path d="M144.777 232.621L151.599 237.597C151.599 237.597 159.337 237.597 160.741 239.712C162.145 241.827 162.541 244.212 161.281 245.066C160.021 245.921 161.938 242.781 158.438 241.188C158.438 241.188 160.237 249.35 157.115 247.604C157.115 247.604 156.71 248.99 155.531 247.721C155.735 246.705 155.583 245.65 155.099 244.733C154.959 244.394 154.734 244.096 154.446 243.869C154.157 243.642 153.815 243.494 153.452 243.438C153.452 243.438 155.648 246.434 154.199 247.253C153.029 247.91 152.399 243.6 150.834 243.114C149.987 243.057 149.171 242.778 148.468 242.303C147.764 241.829 147.199 241.177 146.829 240.414L141.547 237.543L144.777 232.621Z" fill="white" stroke="#263238" stroke-linecap="round" stroke-linejoin="round"/>
<path d="M157.385 246.336C157.559 244.816 157.133 243.289 156.197 242.079" stroke="#263238" stroke-width="0.75" stroke-linecap="round" stroke-linejoin="round"/>
<path d="M159.076 239.784C159.076 239.784 158.932 240.405 157.528 240.27C156.493 240.171 154.972 242.259 153.389 241.944" stroke="#263238" stroke-width="0.75" stroke-linecap="round" stroke-linejoin="round"/>
<path d="M125.17 186.367C125.088 186.257 124.979 186.17 124.852 186.116C124.725 186.062 124.587 186.043 124.45 186.062C124.314 186.08 124.185 186.135 124.077 186.22C123.97 186.306 123.887 186.419 123.838 186.547C122.353 190.363 118.376 203.114 120.517 225.719C120.517 225.719 122.236 230.336 142.429 239.154L146.272 233.215L131.343 221.094C131.343 221.094 133.296 204.896 131.82 198.849" fill="#9468B4"/>
<path d="M125.17 186.367C125.088 186.257 124.979 186.17 124.852 186.116C124.725 186.062 124.587 186.043 124.45 186.062C124.314 186.08 124.185 186.135 124.077 186.22C123.97 186.306 123.887 186.419 123.838 186.547C122.353 190.363 118.376 203.114 120.517 225.719C120.517 225.719 122.236 230.336 142.429 239.154L146.272 233.215L131.343 221.094C131.343 221.094 133.296 204.896 131.82 198.849" stroke="#263238" stroke-linecap="round" stroke-linejoin="round"/>
<path d="M145.38 231.848L140.746 239.353L144.382 240.657L148.287 234.097L145.38 231.848Z" fill="#9468B4" stroke="#263238" stroke-linecap="round" stroke-linejoin="round"/>
<path d="M64.1042 113.522C64.1852 115.934 64.4371 123.169 64.4371 123.169L78.7812 131.772L79.6811 115.376L80.176 92.8793L82.5337 89.6037C82.5337 89.6037 86.0612 84.2044 80.176 82.1077C74.2908 80.011 75.9286 83.9075 70.0794 84.5644C64.2301 85.2213 50.516 94.463 56.7251 102.499C62.9343 110.535 63.9602 109.491 64.1042 113.522Z" fill="#999999"/>
<path d="M69.6019 109.23C70.4422 109.956 71.4507 110.46 72.5355 110.697C72.5355 110.697 74.7582 116.996 75.8741 117.842C76.9899 118.688 80.9674 119.363 80.9674 119.363L82.1372 111.057L73.8764 105.657L69.377 104.308L69.6019 109.23Z" fill="#263238" stroke="#263238" stroke-linecap="round" stroke-linejoin="round"/>
<path d="M64.1042 113.522C64.1852 115.934 64.4371 123.169 64.4371 123.169L78.7812 131.772L79.6811 115.376L80.176 92.8793L82.5337 89.6037C82.5337 89.6037 86.0612 84.2044 80.176 82.1077C74.2908 80.011 75.9286 83.9075 70.0794 84.5644C64.2301 85.2213 50.516 94.463 56.7251 102.499C62.9343 110.535 63.9602 109.491 64.1042 113.522Z" stroke="#263238" stroke-linecap="round" stroke-linejoin="round"/>
<path d="M80.1668 92.8978L82.5245 89.6223C82.5245 89.6223 86.052 84.223 80.1668 82.1263C74.2816 80.0295 75.9194 83.926 70.0701 84.5829C64.2209 85.2399 50.5158 94.4636 56.7249 102.5C60.7564 107.755 62.6101 109.132 63.447 110.598C64.1082 110.173 64.8963 109.99 65.6772 110.081C66.4581 110.171 67.1836 110.529 67.7305 111.093C70.0701 113.424 72.4548 100.403 72.4548 100.403L80.1218 94.9586L80.1668 92.8978Z" fill="#263238" stroke="#263238" stroke-linecap="round" stroke-linejoin="round"/>
<path d="M69.7197 101.564C69.7197 101.564 63.9425 101.717 67.0201 106.063C70.0977 110.409 73.3192 109.581 73.3192 109.581L76.8378 116.286C76.8378 116.286 89.0851 118.013 91.9737 117.185C94.8624 116.358 89.868 106.261 89.868 106.261L91.7848 104.065C91.8915 103.945 91.9726 103.804 92.023 103.652C92.0733 103.499 92.0919 103.337 92.0776 103.177C92.0632 103.017 92.0163 102.862 91.9396 102.72C91.863 102.579 91.7582 102.455 91.6318 102.355L87.0604 98.6839C87.4473 96.4252 82.453 89.6312 82.453 89.6312C82.453 89.6312 75.038 89.5502 74.3541 92.0518C73.9345 93.5323 73.595 95.0342 73.3372 96.5512L69.1258 98.27L69.7197 101.564Z" fill="#999999"/>
<path opacity="0.3" d="M72.5358 94.7692L73.4356 96.569C73.4356 96.569 77.1432 99.1066 77.3411 100.474C77.5931 102.274 75.6763 103.516 79.5908 107.341C83.5053 111.165 87.2578 106.72 89.9844 106.252C92.7111 105.784 94.9788 112.731 94.9788 112.731L94.6728 119.03L79.5908 119.498L76.3243 117.473L72.0498 110.274C72.0498 110.274 76.6842 109.86 74.3715 105.775C71.1679 100.133 67.4244 100.933 67.4244 100.933L64.8418 98.6387L71.4829 93.8604L72.5358 94.7692Z" fill="black"/>
<path d="M69.7197 101.564C69.7197 101.564 63.9425 101.717 67.0201 106.063C70.0977 110.409 73.3192 109.581 73.3192 109.581L76.8378 116.286C76.8378 116.286 89.0851 118.013 91.9737 117.185C94.8624 116.358 89.868 106.261 89.868 106.261L91.7848 104.065C91.8915 103.945 91.9726 103.804 92.023 103.652C92.0733 103.499 92.0919 103.337 92.0776 103.177C92.0632 103.017 92.0163 102.862 91.9396 102.72C91.863 102.579 91.7582 102.455 91.6318 102.355L87.0604 98.6839C87.4473 96.4252 82.453 89.6312 82.453 89.6312C82.453 89.6312 75.038 89.5502 74.3541 92.0518C73.9345 93.5323 73.595 95.0342 73.3372 96.5512L69.1258 98.27L69.7197 101.564Z" stroke="#263238" stroke-linecap="round" stroke-linejoin="round"/>
<path d="M86.0078 99.2772C86.2418 99.9701 86.2058 100.618 85.9178 100.717C85.6299 100.816 85.2069 100.33 84.9729 99.6282C84.739 98.9263 84.784 98.2964 85.0629 98.1974C85.3419 98.0984 85.7558 98.5843 86.0078 99.2772Z" fill="#263238"/>
<path d="M84.8559 96.0202C84.8559 96.0202 82.7502 95.5523 82.1562 98.4409" stroke="#263238" stroke-linecap="round" stroke-linejoin="round"/>
<path d="M89.0398 107.664C89.0398 107.664 88.3109 109.698 85.5303 108.672" stroke="#263238" stroke-linecap="round" stroke-linejoin="round"/>
<path d="M139.829 107.277C140.729 107.664 140.801 109.293 140.801 109.293C142.727 108.51 142.259 111.875 142.259 111.875C144.41 111.362 142.709 114.791 142.709 114.791C142.709 114.791 144.104 115.421 142.817 116.807C141.125 118.606 135.402 121.396 135.402 121.396L128.095 127.911L123.011 122.998L130.336 116.996C130.336 116.996 130.687 115.043 131.146 112.496C131.146 112.496 131.821 109.365 133.44 107.718C135.06 106.071 138.849 106.89 139.829 107.277Z" fill="#999999" stroke="#263238" stroke-linecap="round" stroke-linejoin="round"/>
<path d="M138.452 109.113C138.452 109.113 137.453 113.883 139.919 110.211C139.919 110.211 137.849 115.466 141.296 112.542C141.296 112.542 137.741 116.222 141.125 115.178C141.125 115.178 139.523 115.862 139.397 116.654C139.271 117.446 140.864 117.194 140.864 117.194" fill="#999999"/>
<path d="M138.452 109.113C138.452 109.113 137.453 113.883 139.919 110.211C139.919 110.211 137.849 115.466 141.296 112.542C141.296 112.542 137.741 116.222 141.125 115.178C141.125 115.178 139.523 115.862 139.397 116.654C139.271 117.446 140.864 117.194 140.864 117.194" stroke="#263238" stroke-linecap="round" stroke-linejoin="round"/>
<path d="M63.7441 147.556C63.7441 147.556 76.7654 150.588 104.662 146.476C104.662 146.476 126.088 135.282 131.559 124.978L126.475 119.138L100.153 133.914C100.153 133.914 72.7429 129.684 67.6676 130.314L63.7441 147.556Z" fill="#263238" stroke="#263238" stroke-linecap="round" stroke-linejoin="round"/>
<path d="M176.691 77.5784L132.719 85.3398L138.486 118.013L182.458 110.252L176.691 77.5784Z" fill="#999999" stroke="#263238" stroke-width="0.75" stroke-linecap="round" stroke-linejoin="round"/>
<path d="M140.54 86.1349L135.932 86.9482L136.535 90.3689L141.144 89.5555L140.54 86.1349Z" fill="#263238" stroke="#263238" stroke-linecap="round" stroke-linejoin="round"/>
<path d="M144.374 109.635L151.987 91.8809L165.215 105.955L144.374 109.635Z" fill="#9468B4"/>
<path opacity="0.5" d="M144.374 109.635L151.987 91.8809L165.215 105.955L144.374 109.635Z" fill="white"/>
<path d="M144.374 109.635L151.987 91.8809L165.215 105.955L144.374 109.635Z" stroke="#263238" stroke-width="0.75" stroke-linecap="round" stroke-linejoin="round"/>
<path d="M158.142 107.206L163.955 93.6533L174.06 104.398L158.142 107.206Z" fill="#9468B4" stroke="#263238" stroke-width="0.75" stroke-linecap="round" stroke-linejoin="round"/>
<path d="M162.344 90.0532C162.437 90.5792 162.373 91.1212 162.158 91.6104C161.943 92.0997 161.588 92.5143 161.138 92.8017C160.688 93.089 160.162 93.2363 159.628 93.2248C159.094 93.2134 158.575 93.0436 158.137 92.7372C157.7 92.4307 157.363 92.0012 157.169 91.5032C156.976 91.0052 156.935 90.4609 157.051 89.9394C157.167 89.4179 157.435 88.9425 157.821 88.5735C158.208 88.2045 158.695 87.9584 159.221 87.8665C159.925 87.7435 160.649 87.9046 161.235 88.3145C161.82 88.7244 162.219 89.3496 162.344 90.0532Z" fill="#9468B4"/>
<path opacity="0.7" d="M162.344 90.0532C162.437 90.5792 162.373 91.1212 162.158 91.6104C161.943 92.0997 161.588 92.5143 161.138 92.8017C160.688 93.089 160.162 93.2363 159.628 93.2248C159.094 93.2134 158.575 93.0436 158.137 92.7372C157.7 92.4307 157.363 92.0012 157.169 91.5032C156.976 91.0052 156.935 90.4609 157.051 89.9394C157.167 89.4179 157.435 88.9425 157.821 88.5735C158.208 88.2045 158.695 87.9584 159.221 87.8665C159.925 87.7435 160.649 87.9046 161.235 88.3145C161.82 88.7244 162.219 89.3496 162.344 90.0532Z" fill="white"/>
<path d="M162.344 90.0532C162.437 90.5792 162.373 91.1212 162.158 91.6104C161.943 92.0997 161.588 92.5143 161.138 92.8017C160.688 93.0891 160.162 93.2363 159.628 93.2248C159.094 93.2134 158.575 93.0436 158.137 92.7372C157.7 92.4307 157.363 92.0012 157.169 91.5032C156.976 91.0052 156.935 90.4609 157.051 89.9394C157.167 89.4179 157.435 88.9425 157.821 88.5735C158.208 88.2045 158.695 87.9584 159.221 87.8665C159.925 87.7435 160.649 87.9046 161.235 88.3145C161.82 88.7244 162.219 89.3496 162.344 90.0532V90.0532Z" stroke="#263238" stroke-width="0.75" stroke-linecap="round" stroke-linejoin="round"/>
<path d="M135.356 107.295C135.536 107.116 135.763 106.992 136.01 106.938C136.258 106.883 136.516 106.9 136.754 106.987C136.992 107.074 137.201 107.227 137.355 107.428C137.509 107.63 137.602 107.871 137.624 108.123C138.263 110.265 141.026 111.336 140.27 111.795C139.514 112.254 137.777 113.154 136.346 110.751C136.346 110.751 135.815 110.697 135.851 111.732C135.896 112.992 135.851 114.566 135.23 115.376" fill="#999999"/>
<path d="M135.356 107.295C135.536 107.116 135.763 106.992 136.01 106.938C136.258 106.883 136.516 106.9 136.754 106.987C136.992 107.074 137.201 107.227 137.355 107.428C137.509 107.63 137.602 107.871 137.624 108.123C138.263 110.265 141.026 111.336 140.27 111.795C139.514 112.254 137.777 113.154 136.346 110.751C136.346 110.751 135.815 110.697 135.851 111.732C135.896 112.992 135.851 114.566 135.23 115.376" stroke="#263238" stroke-linecap="round" stroke-linejoin="round"/>
<path d="M35.9199 326.479C33.569 329.497 31.9157 332.997 31.0785 336.729C30.9944 337.098 30.9852 337.48 31.0516 337.853C31.1181 338.226 31.2587 338.581 31.4652 338.899C31.6717 339.216 31.9398 339.488 32.2536 339.7C32.5675 339.912 32.9207 340.058 33.2922 340.131L51.5598 343.856C55.5733 344.684 61.7194 344.513 64.824 344.36C65.1821 344.347 65.5333 344.258 65.8542 344.098C66.1751 343.939 66.4582 343.713 66.6848 343.435C66.9113 343.157 67.0761 342.835 67.1679 342.488C67.2598 342.142 67.2768 341.78 67.2177 341.427C67.0479 340.734 66.7221 340.089 66.2652 339.542C65.8082 338.994 65.2322 338.559 64.5811 338.268C60.2616 335.874 49.994 334.263 45.7646 327.775L35.9199 326.479Z" fill="#263238" stroke="#263238" stroke-linecap="round" stroke-linejoin="round"/>
<path d="M90.3897 214.093C90.3897 214.093 80.779 240.792 68.4776 266.34C68.4776 266.34 66.093 277.571 60.7207 285.238L47.2225 328.333C47.2225 328.333 41.3013 330.771 34.2822 326.533C34.2822 326.533 37.6298 298.961 46.1876 278.956L51.236 263.109L57.5351 231.2C57.5351 231.2 52.1988 221.967 53.6206 208.415L77.3145 208.091L90.3897 214.093Z" fill="#9468B4"/>
<path opacity="0.2" d="M59.9643 209.918C58.3715 210.818 56.8597 211.835 55.2399 212.681C54.3972 213.085 53.5825 213.545 52.8012 214.057C52.8552 214.057 52.7472 214.138 52.6392 214.237C52.6555 214.384 52.6555 214.532 52.6392 214.678C52.5942 214.951 52.5156 215.217 52.4053 215.47C52.8245 215.879 53.1464 216.377 53.3474 216.926C53.5483 217.476 53.6231 218.064 53.5661 218.647C53.5661 219.061 53.5661 219.475 53.4941 219.889L53.6111 220.069C54.1355 221.236 54.49 222.472 54.664 223.74C55.0454 225.628 55.6716 227.458 56.5267 229.184C56.7087 229.585 56.8446 230.004 56.9317 230.435L57.5346 231.2C57.5346 231.2 63.3658 270.219 67.7122 269.346C72.0586 268.473 74.9113 247.686 74.9113 247.686L59.9643 209.918Z" fill="black"/>
<path d="M90.3897 214.093C90.3897 214.093 80.779 240.792 68.4777 266.34C68.4777 266.34 66.093 277.571 60.7207 285.238L47.2225 328.333C47.2225 328.333 41.3013 330.771 34.2822 326.533C34.2822 326.533 37.6298 298.961 46.1876 278.956L51.236 263.109L57.5351 231.2C57.5351 231.2 52.1988 221.967 53.6206 208.415L77.3145 208.091L90.3897 214.093Z" stroke="#263238" stroke-linecap="round" stroke-linejoin="round"/>
<path d="M76.7564 330.763C76.7564 330.763 73.8767 334.605 73.7238 341.462C73.7202 341.86 73.7956 342.254 73.9456 342.623C74.0956 342.991 74.3172 343.326 74.5976 343.608C74.878 343.89 75.2117 344.114 75.5791 344.266C75.9466 344.418 76.3406 344.496 76.7384 344.495H96.5357C100.882 344.495 107.226 343.01 110.421 342.191C110.793 342.098 111.141 341.927 111.442 341.69C111.743 341.452 111.989 341.153 112.166 340.812C112.342 340.472 112.444 340.098 112.464 339.715C112.484 339.332 112.423 338.949 112.284 338.592C111.954 337.915 111.476 337.321 110.886 336.853C110.295 336.386 109.608 336.057 108.873 335.892C103.87 334.335 92.8642 334.848 87.087 329.008L76.7564 330.763Z" fill="#263238" stroke="#263238" stroke-linecap="round" stroke-linejoin="round"/>
<path d="M88.6798 205.868C88.6798 205.868 92.6483 234.583 88.6798 262.686C88.6798 262.686 88.9228 274.385 86.1151 283.294L88.3558 329.43C88.3558 329.43 83.5415 333.174 75.5775 331.302C75.5775 331.302 67.3796 302.263 69.2784 281.422L68.3785 264.792L61.9984 230.345C61.9984 230.345 54.6823 224.945 51.9287 211.609L74.4257 204.113L88.6798 205.868Z" fill="#9468B4" stroke="#263238" stroke-linecap="round" stroke-linejoin="round"/>
<path d="M62.2322 122.404C62.2322 122.404 52.3965 129.9 50.9837 148.636C49.5709 167.371 46.5383 206.48 52.6305 216.784C52.6305 216.784 58.4797 206.264 90.1015 210.485C90.1015 210.485 93.3771 194.791 88.4547 164.114C83.5324 133.437 77.9171 125.689 62.2322 122.404Z" fill="#263238" stroke="#263238" stroke-linecap="round" stroke-linejoin="round"/>
<path d="M62.2324 123.34L63.1323 117.491C67.8548 117.736 72.3718 119.5 76.0096 122.522C80.194 126.049 81.5168 129.433 78.4662 133.41L62.2324 124.042V123.34Z" fill="#263238" stroke="#263238" stroke-linecap="round" stroke-linejoin="round"/>
<path d="M78.2502 131.214C74.8216 126.778 70.4392 124.411 64.5 122.908" stroke="#7F7F7F" stroke-width="0.75" stroke-linecap="round" stroke-linejoin="round"/>
<path d="M85.8454 149.878C84.1806 142.84 82.3089 137.621 79.9512 133.68" stroke="#7F7F7F" stroke-width="0.75" stroke-linecap="round" stroke-linejoin="round"/>
<path d="M112.759 189.866L68.1074 189.929L68.1537 223.107L112.806 223.045L112.759 189.866Z" fill="#999999" stroke="#263238" stroke-width="0.75" stroke-linecap="round" stroke-linejoin="round"/>
<path d="M75.6784 192.06L70.999 192.066L71.0039 195.54L75.6832 195.533L75.6784 192.06Z" fill="#263238" stroke="#263238" stroke-linecap="round" stroke-linejoin="round"/>
<path d="M75.3887 215.884L85.9533 199.704L96.5538 215.848L75.3887 215.884Z" fill="#9468B4"/>
<path opacity="0.5" d="M75.3887 215.884L85.9533 199.704L96.5538 215.848L75.3887 215.884Z" fill="white"/>
<path d="M75.3887 215.884L85.9533 199.704L96.5538 215.848L75.3887 215.884Z" stroke="#263238" stroke-width="0.75" stroke-linecap="round" stroke-linejoin="round"/>
<path d="M89.373 215.866L97.436 203.511L105.535 215.839L89.373 215.866Z" fill="#9468B4" stroke="#263238" stroke-width="0.75" stroke-linecap="round" stroke-linejoin="round"/>
<path d="M96.4725 199.686C96.4725 200.22 96.3142 200.742 96.0175 201.186C95.7209 201.63 95.2993 201.976 94.806 202.18C94.3127 202.384 93.7699 202.438 93.2462 202.334C92.7225 202.23 92.2415 201.972 91.8639 201.595C91.4864 201.217 91.2293 200.736 91.1251 200.213C91.0209 199.689 91.0744 199.146 91.2787 198.653C91.4831 198.16 91.8291 197.738 92.273 197.441C92.717 197.145 93.2389 196.986 93.7729 196.986C94.4889 196.986 95.1755 197.271 95.6818 197.777C96.1881 198.283 96.4725 198.97 96.4725 199.686Z" fill="#9468B4"/>
<path opacity="0.7" d="M96.4725 199.686C96.4725 200.22 96.3142 200.742 96.0175 201.186C95.7209 201.63 95.2993 201.976 94.806 202.18C94.3127 202.384 93.7699 202.438 93.2462 202.334C92.7225 202.23 92.2415 201.972 91.8639 201.595C91.4864 201.217 91.2293 200.736 91.1251 200.213C91.0209 199.689 91.0744 199.146 91.2787 198.653C91.4831 198.16 91.8291 197.738 92.273 197.441C92.717 197.145 93.2389 196.986 93.7729 196.986C94.4889 196.986 95.1755 197.271 95.6818 197.777C96.1881 198.283 96.4725 198.97 96.4725 199.686Z" fill="white"/>
<path d="M96.4725 199.686C96.4725 200.22 96.3142 200.742 96.0175 201.186C95.7209 201.63 95.2993 201.976 94.806 202.18C94.3127 202.384 93.7699 202.438 93.2462 202.334C92.7225 202.23 92.2415 201.972 91.8639 201.595C91.4864 201.217 91.2293 200.736 91.1251 200.213C91.0209 199.689 91.0744 199.146 91.2787 198.653C91.4831 198.16 91.8291 197.738 92.273 197.441C92.717 197.145 93.2389 196.986 93.7729 196.986C94.4889 196.986 95.1755 197.271 95.6818 197.777C96.1881 198.283 96.4725 198.97 96.4725 199.686Z" stroke="#263238" stroke-width="0.75" stroke-linecap="round" stroke-linejoin="round"/>
<path d="M110.414 187.144L66.1416 192.957L70.4608 225.853L114.733 220.04L110.414 187.144Z" fill="white" stroke="#263238" stroke-width="0.75" stroke-linecap="round" stroke-linejoin="round"/>
<path d="M73.9345 194.1L69.2949 194.709L69.7471 198.153L74.3867 197.544L73.9345 194.1Z" fill="#263238" stroke="#263238" stroke-linecap="round" stroke-linejoin="round"/>
<path d="M76.7207 217.746L85.1166 200.343L97.7149 214.984L76.7207 217.746Z" fill="#9468B4"/>
<path opacity="0.5" d="M76.7207 217.746L85.1166 200.343L97.7149 214.984L76.7207 217.746Z" fill="white"/>
<path d="M76.7207 217.746L85.1166 200.343L97.7149 214.984L76.7207 217.746Z" stroke="#263238" stroke-width="0.75" stroke-linecap="round" stroke-linejoin="round"/>
<path d="M90.5869 215.92L96.9941 202.638L106.614 213.814L90.5869 215.92Z" fill="#9468B4" stroke="#263238" stroke-width="0.75" stroke-linecap="round" stroke-linejoin="round"/>
<path d="M95.5458 198.966C95.6159 199.496 95.5275 200.034 95.2918 200.513C95.056 200.992 94.6836 201.39 94.2215 201.657C93.7594 201.925 93.2285 202.049 92.6957 202.015C92.163 201.98 91.6524 201.789 91.2285 201.464C90.8046 201.14 90.4864 200.697 90.3142 200.192C90.142 199.686 90.1235 199.141 90.261 198.625C90.3985 198.11 90.6859 197.646 91.0868 197.294C91.4877 196.941 91.9841 196.715 92.5132 196.645C92.8648 196.598 93.2222 196.621 93.5649 196.712C93.9076 196.804 94.229 196.962 94.5106 197.177C94.7923 197.393 95.0287 197.662 95.2063 197.969C95.3839 198.276 95.4993 198.615 95.5458 198.966Z" fill="#9468B4"/>
<path opacity="0.7" d="M95.5458 198.966C95.6159 199.496 95.5275 200.034 95.2918 200.513C95.056 200.992 94.6836 201.39 94.2215 201.657C93.7594 201.925 93.2285 202.049 92.6957 202.015C92.163 201.98 91.6524 201.789 91.2285 201.464C90.8046 201.14 90.4864 200.697 90.3142 200.192C90.142 199.686 90.1235 199.141 90.261 198.625C90.3985 198.11 90.6859 197.646 91.0868 197.294C91.4877 196.941 91.9841 196.715 92.5132 196.645C92.8648 196.598 93.2222 196.621 93.5649 196.712C93.9076 196.804 94.229 196.962 94.5106 197.177C94.7923 197.393 95.0287 197.662 95.2063 197.969C95.3839 198.276 95.4993 198.615 95.5458 198.966Z" fill="white"/>
<path d="M95.5458 198.966C95.6159 199.496 95.5275 200.034 95.2918 200.513C95.056 200.992 94.6836 201.39 94.2215 201.657C93.7594 201.925 93.2285 202.049 92.6957 202.015C92.163 201.98 91.6524 201.789 91.2285 201.464C90.8046 201.14 90.4864 200.697 90.3142 200.192C90.142 199.686 90.1235 199.141 90.261 198.625C90.3985 198.11 90.6859 197.646 91.0868 197.294C91.4877 196.941 91.9841 196.715 92.5132 196.645C92.8648 196.598 93.2222 196.621 93.5649 196.712C93.9076 196.804 94.229 196.962 94.5106 197.177C94.7923 197.393 95.0287 197.662 95.2063 197.969C95.3839 198.276 95.4993 198.615 95.5458 198.966V198.966Z" stroke="#263238" stroke-width="0.75" stroke-linecap="round" stroke-linejoin="round"/>
<path d="M84.4145 205.868L89.1388 212.599L94.5381 213.85C96.7518 214.363 97.9217 214.849 98.7675 216.973C99.3705 218.493 98.9655 218.961 97.8677 219.357C97.8677 219.357 101.089 225.54 97.7327 224.937C97.7327 224.937 98.0116 227.771 94.6641 226.736C94.6641 226.736 93.5932 228.653 91.2716 227.096C91.2716 227.096 89.4718 228.473 86.9701 223.821L83.3706 217.198L78.0703 211.222L84.4145 205.868Z" fill="#999999" stroke="#263238" stroke-linecap="round" stroke-linejoin="round"/>
<path d="M97.4534 222.939C97.4534 222.939 97.9033 224.811 96.0585 224.739C94.2138 224.667 94.5468 226.539 90.2363 225.882" fill="#999999"/>
<path d="M97.4534 222.939C97.4534 222.939 97.9033 224.811 96.0585 224.739C94.2138 224.667 94.5468 226.539 90.2363 225.882" stroke="#263238" stroke-linecap="round" stroke-linejoin="round"/>
<path d="M58.9469 138.558C58.9469 138.558 54.2675 152.605 56.8411 183.552C56.8411 183.552 68.3686 207.902 80.166 214.696L87.518 208.604L73.2369 179.565C73.2369 179.565 80.544 149.824 80.166 144.209" fill="#263238"/>
<path d="M58.9469 138.558C58.9469 138.558 54.2675 152.605 56.8411 183.552C56.8411 183.552 68.3686 207.902 80.166 214.696L87.518 208.604L73.2369 179.565C73.2369 179.565 80.544 149.824 80.166 144.209" stroke="#263238" stroke-linecap="round" stroke-linejoin="round"/>
<path d="M78.4922 156.285C79.563 150.886 80.2919 146.116 80.211 144.19" stroke="#7F7F7F" stroke-width="0.75" stroke-linecap="round" stroke-linejoin="round"/>
<path d="M74.0569 181.103L73.292 179.547C73.292 179.547 75.9916 168.541 78.0254 158.651" stroke="#7F7F7F" stroke-width="0.75" stroke-linecap="round" stroke-linejoin="round"/>
<path d="M78.0158 189.184L74.9922 183.029" stroke="#7F7F7F" stroke-width="0.75" stroke-linecap="round" stroke-linejoin="round"/>
<path d="M56.6357 180.213C56.7077 181.302 56.7887 182.4 56.8877 183.533C59.6931 189.277 62.8892 194.821 66.4534 200.127" stroke="#7F7F7F" stroke-width="0.75" stroke-linecap="round" stroke-linejoin="round"/>
<path d="M58.9927 138.558C58.9927 138.558 54.9162 150.805 56.464 177.576" stroke="#7F7F7F" stroke-width="0.75" stroke-linecap="round" stroke-linejoin="round"/>
<path d="M358.274 87.804C357.439 79.8836 355.626 72.0972 352.875 64.623" stroke="#263238" stroke-linecap="round" stroke-linejoin="round"/>
<path d="M330.586 29.7793C330.629 29.8168 330.669 29.8591 330.703 29.9053" stroke="#263238" stroke-linecap="round" stroke-linejoin="round"/>
<path d="M328.047 27.4042C327.642 27.0353 327.237 26.6843 326.832 26.3424C316.808 17.7305 308.979 15.8138 305.694 15.3818" stroke="#263238" stroke-linecap="round" stroke-linejoin="round"/>
<path d="M304.788 13.5381L302.767 14.5254L303.754 16.5469L305.775 15.5596L304.788 13.5381Z" stroke="#263238" stroke-linecap="round" stroke-linejoin="round"/>
<path d="M358.885 87.5108L356.863 88.498L357.851 90.5195L359.872 89.5323L358.885 87.5108Z" stroke="#263238" stroke-linecap="round" stroke-linejoin="round"/>
<path d="M341.321 40.299L342.518 41.5049C342.479 41.6565 342.398 41.7939 342.284 41.9008C342.181 42.0115 342.051 42.0923 341.906 42.1348L340.691 40.911L330.063 30.3194L330.675 29.6895L341.321 40.299Z" fill="#263238" stroke="#263238" stroke-linecap="round" stroke-linejoin="round"/>
<path d="M342.752 40.5421C342.919 40.7076 343.037 40.9164 343.093 41.1453C343.149 41.3742 343.139 41.614 343.066 41.8379C343.015 42.0422 342.909 42.2287 342.761 42.3779C342.614 42.5164 342.439 42.6209 342.248 42.6838C342.02 42.7591 341.777 42.7704 341.543 42.7164C341.31 42.6625 341.096 42.5453 340.925 42.3779C340.755 42.2062 340.636 41.9911 340.58 41.7562C340.525 41.5212 340.535 41.2755 340.61 41.046C340.672 40.8524 340.78 40.6766 340.925 40.5331C341.07 40.3818 341.253 40.2729 341.456 40.2181C341.681 40.1474 341.921 40.1402 342.149 40.1973C342.378 40.2545 342.586 40.3738 342.752 40.5421Z" fill="#263238" stroke="#263238" stroke-linecap="round" stroke-linejoin="round"/>
<path d="M327.903 27.4041L317.474 17.0645" stroke="#263238" stroke-linecap="round" stroke-linejoin="round"/>
<path d="M317.673 15.9216C317.756 16.102 317.784 16.3031 317.754 16.4995C317.723 16.6959 317.635 16.8789 317.501 17.0255C317.367 17.1721 317.192 17.2757 316.999 17.3233C316.806 17.3709 316.603 17.3604 316.416 17.2931C316.229 17.2257 316.067 17.1046 315.948 16.9449C315.83 16.7852 315.761 16.5941 315.751 16.3956C315.741 16.197 315.79 16 315.892 15.8292C315.994 15.6584 316.143 15.5215 316.323 15.4357C316.443 15.3781 316.574 15.3449 316.707 15.3382C316.84 15.3315 316.974 15.3513 317.099 15.3965C317.225 15.4417 317.34 15.5114 317.439 15.6015C317.537 15.6917 317.617 15.8005 317.673 15.9216V15.9216Z" stroke="#263238" stroke-linecap="round" stroke-linejoin="round"/>
<path d="M330.719 27.4033L330.701 29.653L330.584 29.779L330.45 29.923L329.973 30.4089L327.714 30.3909L327.723 27.4033H330.719Z" stroke="#263238" stroke-linecap="round" stroke-linejoin="round"/>
<path d="M330.703 29.6533V30.1842V30.4092H329.974L330.451 29.9233L330.586 29.7793L330.703 29.6533Z" stroke="#5C5C5C" stroke-miterlimit="10"/>
<path d="M351.076 35.3413L354.856 45.2939L346.073 54.0947L336.12 50.3512L329.083 31.3008L330.451 29.924L330.586 29.78L331.999 28.3672L351.076 35.3413Z" stroke="#263238" stroke-linecap="round" stroke-linejoin="round"/>
<path d="M366.572 51.6111L353.163 65.0463L346.072 54.1038L354.855 45.2939L366.572 51.6111Z" stroke="#263238" stroke-linecap="round" stroke-linejoin="round"/>
<path d="M350.446 53.0952L355.855 47.6689L360.894 50.3596" stroke="#263238" stroke-linecap="round" stroke-linejoin="round"/>
<path d="M348.763 54.7872L349.303 54.2383" stroke="#263238" stroke-linecap="round" stroke-linejoin="round"/>
<path d="M89.2563 38.6711C88.6037 36.9463 87.6139 35.3688 86.345 34.0307C85.076 32.6926 83.5532 31.6207 81.8654 30.8776C80.1777 30.1344 78.3588 29.7349 76.5149 29.7024C74.6711 29.6698 72.8392 30.0049 71.1263 30.688C69.4134 31.3712 67.8537 32.3887 66.5383 33.6812C65.2229 34.9737 64.1781 36.5152 63.465 38.2159C62.7518 39.9166 62.3846 41.7423 62.3848 43.5864C62.3849 45.4305 62.7524 47.2562 63.4658 48.9567C65.5265 54.122 71.0338 55.9758 75.2632 59.0264C76.577 59.9802 78.3768 64.7496 78.3768 64.7496L89.3553 60.3942C89.3553 60.3942 87.3756 55.6968 87.6815 54.095C88.5994 48.9837 91.3171 43.8454 89.2563 38.6711Z" stroke="#263238" stroke-linecap="round" stroke-linejoin="round"/>
<path d="M78.6716 65.4773L89.6132 61.1143L89.7265 61.3985C89.8766 61.7749 89.9507 62.1773 89.9444 62.5825C89.9382 62.9877 89.8517 63.3877 89.69 63.7593C89.5284 64.1309 89.2947 64.4668 89.0025 64.7476C88.7103 65.0284 88.3654 65.2486 87.9877 65.3954L82.7467 67.4852C81.9908 67.7867 81.146 67.7755 80.3983 67.4541C79.6507 67.1327 79.0613 66.5275 78.7598 65.7715L78.6465 65.4873L78.6716 65.4773Z" stroke="#263238" stroke-linecap="round" stroke-linejoin="round"/>
<path opacity="0.5" d="M78.6716 65.4773L89.6132 61.1143L89.7265 61.3985C89.8766 61.7749 89.9507 62.1773 89.9444 62.5825C89.9382 62.9877 89.8517 63.3877 89.69 63.7593C89.5284 64.1309 89.2947 64.4668 89.0025 64.7476C88.7103 65.0284 88.3654 65.2486 87.9877 65.3954L82.7467 67.4852C81.9908 67.7867 81.146 67.7755 80.3983 67.4541C79.6507 67.1327 79.0613 66.5275 78.7598 65.7715L78.6465 65.4873L78.6716 65.4773Z" stroke="#263238" stroke-linecap="round" stroke-linejoin="round"/>
<path d="M83.1221 68.1973L88.238 66.1583L88.3313 66.3924C88.5769 67.0087 88.5677 67.6974 88.3055 68.3069C88.0434 68.9164 87.5499 69.3968 86.9336 69.6425L86.4738 69.8257C85.8575 70.0713 85.1688 70.0621 84.5593 69.8C83.9498 69.5378 83.4694 69.0443 83.2237 68.428L83.1304 68.1939L83.1221 68.1973Z" stroke="#263238" stroke-linecap="round" stroke-linejoin="round"/>
<path opacity="0.2" d="M83.1221 68.1973L88.238 66.1583L88.3313 66.3924C88.5769 67.0087 88.5677 67.6974 88.3055 68.3069C88.0434 68.9164 87.5499 69.3968 86.9336 69.6425L86.4738 69.8257C85.8575 70.0713 85.1688 70.0621 84.5593 69.8C83.9498 69.5378 83.4694 69.0443 83.2237 68.428L83.1304 68.1939L83.1221 68.1973Z" stroke="#263238" stroke-linecap="round" stroke-linejoin="round"/>
<path d="M68.7646 14.3564L71.9412 26.2349" stroke="#263238" stroke-linecap="round" stroke-linejoin="round"/>
<path d="M67.4785 9.55957L68.1264 11.9802" stroke="#263238" stroke-linecap="round" stroke-linejoin="round"/>
<path d="M54.9884 48.9922L42.8311 52.2497" stroke="#263238" stroke-linecap="round" stroke-linejoin="round"/>
<path d="M59.506 47.7861L57.4453 48.3351" stroke="#263238" stroke-linecap="round" stroke-linejoin="round"/>
<path d="M106.218 35.2598L93.4941 38.6703" stroke="#263238" stroke-linecap="round" stroke-linejoin="round"/>
<path d="M110.159 34.207L108.351 34.693" stroke="#263238" stroke-linecap="round" stroke-linejoin="round"/>
<path d="M67.7041 58.4678L59.0742 73.4148" stroke="#263238" stroke-linecap="round" stroke-linejoin="round"/>
<path d="M93.9257 13.042L85.2959 27.989" stroke="#263238" stroke-linecap="round" stroke-linejoin="round"/>
<path d="M61.2515 34.4326L46.3135 25.8027" stroke="#263238" stroke-linecap="round" stroke-linejoin="round"/>
<path d="M94.0079 53.3392L91.7402 52.0254" stroke="#263238" stroke-linecap="round" stroke-linejoin="round"/>
<path d="M106.686 60.6553L96.0762 54.5361" stroke="#263238" stroke-linecap="round" stroke-linejoin="round"/>
</svg>
