<svg width="287" height="280" viewBox="0 0 287 280" fill="none" xmlns="http://www.w3.org/2000/svg">
<path d="M277.603 108.619C245.849 54.231 159.712 73.6005 142.121 47.149C133.111 33.6236 123.032 17.9026 108.412 9.73912C94.4759 1.92096 78.3184 -0.821911 64.2327 0.207481C13.9293 3.88853 -7.39472 48.8951 2.26723 98.3189C15.1672 164.246 73.608 231.592 143.033 232.062C179.349 232.335 214.048 219.305 241.216 200.978L241.822 200.567C268.99 182.071 301.853 150.14 277.603 108.619Z" fill="#9468B4"/>
<path opacity="0.7" d="M277.603 108.619C245.849 54.231 159.712 73.6005 142.121 47.149C133.111 33.6236 123.032 17.9026 108.412 9.73912C94.4759 1.92096 78.3184 -0.821911 64.2327 0.207481C13.9293 3.88853 -7.39472 48.8951 2.26723 98.3189C15.1672 164.246 73.608 231.592 143.033 232.062C179.349 232.335 214.048 219.305 241.216 200.978L241.822 200.567C268.99 182.071 301.853 150.14 277.603 108.619Z" fill="white"/>
<path d="M31.0962 112.574H27.565C23.7757 112.574 20.1416 114.08 17.4621 116.759C14.7827 119.438 13.2773 123.073 13.2773 126.862V205.265C13.2773 209.054 14.7827 212.689 17.4621 215.368C20.1416 218.047 23.7757 219.553 27.565 219.553H76.0116C79.8009 219.553 83.435 218.047 86.1145 215.368C88.794 212.689 90.2993 209.054 90.2993 205.265" stroke="#263238" stroke-width="1.10311" stroke-linecap="round" stroke-linejoin="round" stroke-dasharray="4.41 4.41"/>
<path d="M86.3516 38.5947V23.1082C86.3516 20.791 87.2707 18.5684 88.9074 16.9281C90.5441 15.2877 92.7646 14.3636 95.0818 14.3584H158.083C160.404 14.3584 162.629 15.2803 164.27 16.9212C165.911 18.5621 166.833 20.7876 166.833 23.1082" stroke="#263238" stroke-width="1.10311" stroke-linecap="round" stroke-linejoin="round" stroke-dasharray="4.41 4.41"/>
<path d="M143.034 280C211.947 280 267.812 272.194 267.812 262.565C267.812 252.937 211.947 245.131 143.034 245.131C74.1208 245.131 18.2559 252.937 18.2559 262.565C18.2559 272.194 74.1208 280 143.034 280Z" fill="#9468B4"/>
<path opacity="0.5" d="M143.034 280C211.947 280 267.812 272.194 267.812 262.565C267.812 252.937 211.947 245.131 143.034 245.131C74.1208 245.131 18.2559 252.937 18.2559 262.565C18.2559 272.194 74.1208 280 143.034 280Z" fill="white"/>
<path d="M260.658 59.3713V176.683C260.658 180.518 259.135 184.196 256.424 186.908C253.713 189.62 250.035 191.145 246.201 191.146H39.8663C36.0314 191.145 32.3542 189.62 29.6432 186.908C26.9321 184.196 25.4092 180.518 25.4092 176.683V59.3713C25.4092 59.026 25.4092 58.7198 25.4548 58.355C25.7088 54.7057 27.3373 51.2885 30.012 48.7928C32.6866 46.2972 36.2081 44.9088 39.8663 44.9077H246.201C249.863 44.9092 253.388 46.3013 256.063 48.8024C258.739 51.3035 260.364 54.7271 260.612 58.381C260.645 58.6937 260.658 59.0325 260.658 59.3713Z" fill="white" stroke="#263238" stroke-width="1.10311" stroke-linecap="round" stroke-linejoin="round"/>
<path d="M32.4453 63.7754H254.357V172.142C254.357 175.736 252.93 179.183 250.388 181.724C247.847 184.265 244.4 185.693 240.806 185.693H46.0033C42.4092 185.693 38.9624 184.265 36.421 181.724C33.8796 179.183 32.4518 175.736 32.4518 172.142V63.7754H32.4453Z" fill="#263238"/>
<path opacity="0.2" d="M254.364 63.7754V172.142C254.383 175.716 252.982 179.151 250.469 181.692C247.956 184.233 244.536 185.672 240.962 185.693H45.8471C42.2732 185.672 38.8537 184.233 36.3406 181.692C33.8275 179.151 32.4264 175.716 32.4455 172.142V63.7754H254.364Z" fill="white"/>
<path d="M260.611 58.3808H25.4541C25.7081 54.7315 27.3367 51.3144 30.0113 48.8187C32.6859 46.3231 36.2075 44.9347 39.8656 44.9336H246.2C249.858 44.9347 253.38 46.3231 256.054 48.8187C258.729 51.3144 260.357 54.7315 260.611 58.3808Z" fill="#9468B4" stroke="#263238" stroke-width="1.10311" stroke-miterlimit="10"/>
<path d="M54.3494 51.6312C54.3494 52.1377 54.1992 52.6327 53.9179 53.0538C53.6366 53.4748 53.2367 53.803 52.7688 53.9968C52.3009 54.1906 51.7861 54.2413 51.2894 54.1425C50.7928 54.0437 50.3365 53.7998 49.9785 53.4418C49.6204 53.0837 49.3765 52.6274 49.2777 52.1308C49.1789 51.6341 49.2296 51.1193 49.4234 50.6514C49.6172 50.1835 49.9454 49.7837 50.3665 49.5023C50.7875 49.221 51.2826 49.0708 51.789 49.0708C52.468 49.0708 53.1193 49.3406 53.5995 49.8207C54.0797 50.3009 54.3494 50.9522 54.3494 51.6312Z" fill="#263238"/>
<path d="M65.1775 51.6312C65.1775 52.1377 65.0274 52.6327 64.746 53.0538C64.4647 53.4748 64.0648 53.803 63.5969 53.9968C63.1291 54.1906 62.6142 54.2413 62.1176 54.1425C61.6209 54.0437 61.1647 53.7998 60.8066 53.4418C60.4485 53.0837 60.2046 52.6274 60.1058 52.1308C60.007 51.6341 60.0578 51.1193 60.2515 50.6514C60.4453 50.1835 60.7735 49.7837 61.1946 49.5023C61.6156 49.221 62.1107 49.0708 62.6171 49.0708C63.2962 49.0708 63.9474 49.3406 64.4276 49.8207C64.9078 50.3009 65.1775 50.9522 65.1775 51.6312Z" fill="#263238"/>
<path d="M73.4452 54.1917C74.8593 54.1917 76.0057 53.0453 76.0057 51.6312C76.0057 50.2172 74.8593 49.0708 73.4452 49.0708C72.0311 49.0708 70.8848 50.2172 70.8848 51.6312C70.8848 53.0453 72.0311 54.1917 73.4452 54.1917Z" fill="#263238"/>
<path d="M254.357 63.7754V172.142C254.357 175.736 252.93 179.183 250.388 181.724C247.847 184.265 244.4 185.693 240.806 185.693H46.0033C42.8665 185.693 39.827 184.604 37.4033 182.613C34.9796 180.621 33.3217 177.851 32.7124 174.774V174.735C32.5468 173.876 32.4639 173.003 32.4649 172.129V63.7754H254.357Z" stroke="#263238" stroke-width="1.10311" stroke-miterlimit="10"/>
<path d="M254.149 80.5327C253.199 79.9992 252.189 79.5814 251.139 79.2883L249.921 73.8481H244.748L243.543 79.2883C242.487 79.5761 241.472 79.9941 240.52 80.5327L235.848 77.5422L232.193 81.1842L235.132 85.8555C234.594 86.808 234.176 87.8234 233.887 88.8786L228.447 90.0839V95.2569L233.887 96.4752C234.173 97.5356 234.591 98.5557 235.132 99.5113L232.141 104.215L235.803 107.87L240.5 104.88C241.45 105.419 242.464 105.839 243.517 106.131L244.729 111.564H249.882L251.094 106.131C252.144 105.836 253.155 105.416 254.104 104.88L254.345 105.036V80.4024L254.149 80.5327ZM247.348 99.4266C246.025 99.4266 244.733 99.0344 243.633 98.2996C242.534 97.5648 241.677 96.5204 241.171 95.2986C240.666 94.0768 240.534 92.7324 240.792 91.4356C241.051 90.1387 241.688 88.9476 242.623 88.0131C243.559 87.0785 244.75 86.4423 246.048 86.1851C247.345 85.928 248.689 86.0613 249.91 86.5682C251.132 87.0751 252.175 87.9329 252.909 89.0331C253.643 90.1332 254.033 91.4262 254.032 92.7485C254.032 93.6261 253.859 94.495 253.523 95.3056C253.187 96.1163 252.695 96.8527 252.074 97.4729C251.453 98.0931 250.716 98.5849 249.905 98.9201C249.094 99.2553 248.225 99.4274 247.348 99.4266Z" fill="#263238"/>
<path d="M160.917 85.777V74.8707L149.45 72.3232C148.832 70.1076 147.957 67.9714 146.844 65.958L148.232 63.7754H94.0913L95.4269 65.8993C94.3005 67.9039 93.4252 70.0396 92.8208 72.2581L81.3477 74.812V85.7444L92.8208 88.3049C93.4253 90.54 94.3004 92.6929 95.4269 94.7158L89.1267 104.625L96.8472 112.339L106.75 106.033C108.759 107.163 110.896 108.049 113.115 108.671L115.669 120.105H126.55L129.117 108.645C131.329 108.019 133.459 107.134 135.462 106.007L145.372 112.313L153.086 104.599L146.825 94.6897C147.935 92.6794 148.809 90.548 149.431 88.3374L160.917 85.777ZM121.175 94.4161C118.387 94.4161 115.663 93.5896 113.345 92.0411C111.028 90.4926 109.222 88.2917 108.155 85.7167C107.089 83.1417 106.809 80.3082 107.353 77.5746C107.897 74.8409 109.239 72.33 111.21 70.3591C113.181 68.3883 115.692 67.0461 118.425 66.5024C121.159 65.9586 123.993 66.2377 126.568 67.3043C129.143 68.3709 131.343 70.1771 132.892 72.4946C134.44 74.8121 135.267 77.5366 135.267 80.3238C135.268 82.1747 134.904 84.0076 134.196 85.7177C133.488 87.4279 132.45 88.9817 131.141 90.2905C129.833 91.5992 128.279 92.6372 126.569 93.3451C124.858 94.053 123.026 94.4169 121.175 94.4161Z" fill="#263238"/>
<path d="M88.5537 160.669L89.0162 152.01L80.0449 149.482C79.6284 147.703 79.0121 145.976 78.2076 144.335L83.6282 136.726L77.8167 130.282L69.6989 134.843C68.1472 133.866 66.4878 133.073 64.7539 132.478L63.2033 123.278L54.5512 122.881L52.0494 131.878C50.2668 132.278 48.5388 132.89 46.9024 133.702L39.2992 128.288L32.8427 134.093L37.4424 142.218C36.4563 143.763 35.6601 145.421 35.0709 147.156L32.4649 147.586V159.314L34.3673 159.848C34.762 161.633 35.3723 163.363 36.185 165.001L32.4453 170.246L32.6929 174.735V174.774L36.5564 179.054L44.6873 174.461C46.2362 175.457 47.9013 176.26 49.6453 176.852L51.1698 185.687L51.2415 186.058L59.8936 186.514L60.1216 185.687L62.3954 177.523C64.1859 177.122 65.9225 176.51 67.5684 175.699L75.1585 181.107L81.6085 175.308L77.0479 167.177C78.0249 165.634 78.8103 163.978 79.3869 162.245L88.5537 160.669ZM65.5748 147.15C64.0927 145.501 62.155 144.329 60.0068 143.782C57.8586 143.235 55.5964 143.338 53.5064 144.077C51.4164 144.815 49.5925 146.158 48.2654 147.933C46.9383 149.709 46.1676 151.838 46.0509 154.052C45.9342 156.266 46.4767 158.464 47.6098 160.369C48.7428 162.275 50.4155 163.801 52.4162 164.756C54.417 165.71 56.6558 166.05 58.8497 165.732C61.0435 165.414 63.0937 164.452 64.7408 162.968C66.9401 160.982 68.2627 158.204 68.419 155.244C68.5752 152.285 67.5526 149.383 65.5748 147.176V147.15Z" fill="#263238"/>
<path d="M157.758 147.762C158.092 146.421 158.269 145.046 158.285 143.664L164.507 140.406L162.787 134.093L155.764 134.419C155.053 133.239 154.206 132.146 153.243 131.162L155.321 124.444L149.653 121.187L144.91 126.36C143.571 126.037 142.201 125.862 140.825 125.839L137.567 119.617L131.26 121.33L131.593 128.36C130.413 129.071 129.319 129.917 128.335 130.881L121.612 128.803L118.354 134.465L123.566 139.201C123.229 140.537 123.056 141.909 123.051 143.286L116.816 146.544L118.536 152.85L125.573 152.518C126.27 153.704 127.113 154.798 128.081 155.776L125.99 162.46L131.664 165.718L136.381 160.584C137.721 160.921 139.098 161.094 140.479 161.099L143.737 167.327L150.044 165.614L149.763 159.607L149.718 158.577C150.914 157.873 152.021 157.026 153.015 156.056L159.732 158.141L162.507 153.293L162.976 152.473L157.758 147.762ZM142.857 151.593C141.24 152.039 139.527 151.995 137.935 151.466C136.343 150.937 134.944 149.947 133.915 148.621C132.886 147.296 132.274 145.695 132.157 144.021C132.039 142.348 132.421 140.677 133.255 139.221C134.088 137.765 135.335 136.589 136.838 135.843C138.34 135.096 140.03 134.813 141.694 135.029C143.358 135.244 144.92 135.949 146.183 137.054C147.445 138.159 148.352 139.614 148.786 141.234C149.365 143.394 149.067 145.695 147.957 147.635C146.846 149.576 145.013 150.999 142.857 151.593Z" fill="#263238"/>
<path d="M229.893 158.864L231.326 150.199L222.557 146.674C222.358 144.827 221.936 143.012 221.3 141.267L227.613 134.237L222.505 127.07L213.801 130.764C212.356 129.606 210.776 128.626 209.097 127.845L208.589 118.405L199.923 116.972L196.373 125.702C194.534 125.918 192.726 126.344 190.985 126.972L183.935 120.659L176.801 125.767L180.502 134.465C179.483 135.736 178.599 137.109 177.863 138.563C177.765 138.765 177.661 138.967 177.57 139.169L168.136 139.69L166.696 148.342L168.117 148.915L175.466 151.88C175.666 153.718 176.088 155.525 176.723 157.261L170.397 164.337L175.511 171.503L184.209 167.79C185.649 168.958 187.227 169.947 188.906 170.735L189.395 180.129L198.054 181.563L201.598 172.898C203.441 172.696 205.252 172.272 206.992 171.634L214.029 177.947L221.195 172.832L217.495 164.128C218.674 162.682 219.669 161.095 220.459 159.405L229.893 158.864ZM205.592 158.473C203.769 159.781 201.599 160.519 199.357 160.594C197.114 160.668 194.9 160.076 192.994 158.892C191.088 157.709 189.576 155.986 188.65 153.943C187.723 151.9 187.423 149.628 187.787 147.414C188.152 145.2 189.165 143.144 190.698 141.506C192.231 139.868 194.215 138.721 196.4 138.211C198.585 137.701 200.872 137.85 202.972 138.64C205.072 139.43 206.89 140.824 208.198 142.648C209.949 145.094 210.657 148.135 210.165 151.103C209.674 154.071 208.024 156.722 205.579 158.473H205.592Z" fill="#263238"/>
<path d="M112.465 94.7158H44.3294C39.6122 94.7158 35.7881 98.5399 35.7881 103.257V197.59C35.7881 202.307 39.6122 206.131 44.3294 206.131H112.465C117.182 206.131 121.006 202.307 121.006 197.59V103.257C121.006 98.5399 117.182 94.7158 112.465 94.7158Z" fill="#9468B4" stroke="#263238" stroke-width="1.10311" stroke-miterlimit="10"/>
<path opacity="0.2" d="M112.465 94.7158H44.3294C39.6122 94.7158 35.7881 98.5399 35.7881 103.257V197.59C35.7881 202.307 39.6122 206.131 44.3294 206.131H112.465C117.182 206.131 121.006 202.307 121.006 197.59V103.257C121.006 98.5399 117.182 94.7158 112.465 94.7158Z" fill="black"/>
<path d="M128.935 111.675V206.007C128.936 207.129 128.716 208.241 128.287 209.278C127.858 210.315 127.229 211.257 126.436 212.051C125.642 212.845 124.701 213.475 123.664 213.904C122.627 214.334 121.516 214.555 120.394 214.555H52.2585C51.1368 214.554 50.0263 214.333 48.9903 213.902C47.9544 213.472 47.0133 212.843 46.2207 212.049C45.4282 211.255 44.7998 210.313 44.3713 209.276C43.9429 208.24 43.7228 207.129 43.7236 206.007V111.675C43.7236 109.41 44.6226 107.239 46.223 105.637C47.8234 104.036 49.9943 103.135 52.2585 103.133H120.394C122.659 103.133 124.832 104.033 126.433 105.635C128.035 107.237 128.935 109.409 128.935 111.675Z" fill="white" stroke="#263238" stroke-width="1.10311" stroke-linecap="round" stroke-linejoin="round"/>
<path d="M128.935 111.675V116.724H43.7236V111.675C43.7236 109.41 44.6226 107.239 46.223 105.637C47.8234 104.036 49.9943 103.135 52.2585 103.133H120.394C122.659 103.133 124.832 104.033 126.433 105.635C128.035 107.237 128.935 109.409 128.935 111.675Z" fill="#9468B4" stroke="#263238" stroke-width="1.10311" stroke-miterlimit="10"/>
<path d="M72.703 122.575H51.7373V126.093H72.703V122.575Z" fill="#9468B4"/>
<path d="M72.703 154.101H51.7373V157.619H72.703V154.101Z" fill="#9468B4"/>
<path d="M72.703 182.689H51.7373V186.208H72.703V182.689Z" fill="#9468B4"/>
<path d="M111.279 131.285H51.7373V133.865H111.279V131.285Z" fill="#263238"/>
<path d="M100.542 136.217H51.7373V138.732H100.542V136.217Z" fill="#263238"/>
<path d="M106.934 141.071H51.7373V143.586H106.934V141.071Z" fill="#263238"/>
<path d="M106.934 145.918H51.7373V148.433H106.934V145.918Z" fill="#263238"/>
<path d="M111.279 159.874H51.7373V162.454H111.279V159.874Z" fill="#263238"/>
<path d="M100.542 164.806H51.7373V167.32H100.542V164.806Z" fill="#263238"/>
<path d="M106.934 169.659H51.7373V172.174H106.934V169.659Z" fill="#263238"/>
<path d="M111.279 191.264H51.7373V193.844H111.279V191.264Z" fill="#263238"/>
<path d="M100.542 196.202H51.7373V198.717H100.542V196.202Z" fill="#263238"/>
<path d="M106.934 201.056H51.7373V203.571H106.934V201.056Z" fill="#263238"/>
<path d="M224.975 37.7214V75.848C224.975 77.1858 224.711 78.5105 224.199 79.7464C223.687 80.9823 222.936 82.1052 221.99 83.0509C221.043 83.9965 219.92 84.7465 218.684 85.2579C217.448 85.7692 216.123 86.032 214.785 86.0311H126.974C125.636 86.032 124.311 85.7692 123.075 85.2579C121.839 84.7465 120.715 83.9965 119.769 83.0509C118.823 82.1052 118.072 80.9823 117.56 79.7464C117.048 78.5105 116.784 77.1858 116.784 75.848V37.7214C116.786 35.0195 117.86 32.4287 119.771 30.5181C121.681 28.6076 124.272 27.5335 126.974 27.5317H214.785C217.487 27.5317 220.079 28.6053 221.99 30.5162C223.901 32.4272 224.975 35.0189 224.975 37.7214Z" fill="white" stroke="#222221" stroke-width="1.10311" stroke-miterlimit="10"/>
<path d="M224.975 37.7214V38.5944H116.784V37.7214C116.786 35.0195 117.86 32.4287 119.771 30.5181C121.681 28.6076 124.272 27.5335 126.974 27.5317H214.785C217.487 27.5317 220.079 28.6053 221.99 30.5162C223.901 32.4272 224.975 35.0189 224.975 37.7214Z" fill="#9468B4" stroke="#263238" stroke-width="1.10311" stroke-miterlimit="10"/>
<path d="M132.681 34.8872C132.463 35.1062 132.184 35.2555 131.881 35.3162C131.577 35.3768 131.263 35.3461 130.977 35.2278C130.691 35.1096 130.447 34.9092 130.275 34.652C130.103 34.3948 130.011 34.0923 130.011 33.7829C130.011 33.4735 130.103 33.171 130.275 32.9138C130.447 32.6566 130.691 32.4561 130.977 32.3379C131.263 32.2197 131.577 32.1889 131.881 32.2496C132.184 32.3102 132.463 32.4595 132.681 32.6786C132.972 32.9725 133.135 33.3694 133.135 33.7829C133.135 34.1964 132.972 34.5932 132.681 34.8872Z" fill="#263238"/>
<path d="M139.926 34.8872C139.707 35.1062 139.428 35.2555 139.125 35.3162C138.822 35.3768 138.507 35.3461 138.221 35.2278C137.935 35.1096 137.691 34.9092 137.519 34.652C137.347 34.3948 137.255 34.0923 137.255 33.7829C137.255 33.4735 137.347 33.171 137.519 32.9138C137.691 32.6566 137.935 32.4561 138.221 32.3379C138.507 32.2197 138.822 32.1889 139.125 32.2496C139.428 32.3102 139.707 32.4595 139.926 32.6786C140.216 32.9725 140.379 33.3694 140.379 33.7829C140.379 34.1964 140.216 34.5932 139.926 34.8872Z" fill="#263238"/>
<path d="M147.171 34.8872C146.952 35.1062 146.673 35.2555 146.37 35.3162C146.067 35.3768 145.752 35.3461 145.466 35.2278C145.18 35.1096 144.936 34.9092 144.764 34.652C144.592 34.3948 144.5 34.0923 144.5 33.7829C144.5 33.4735 144.592 33.171 144.764 32.9138C144.936 32.6566 145.18 32.4561 145.466 32.3379C145.752 32.2197 146.067 32.1889 146.37 32.2496C146.673 32.3102 146.952 32.4595 147.171 32.6786C147.461 32.9725 147.625 33.3694 147.625 33.7829C147.625 34.1964 147.461 34.5932 147.171 34.8872Z" fill="#263238"/>
<path d="M159.048 45.6045H123.684V76.1735H159.048V45.6045Z" stroke="#263238" stroke-width="1.10311" stroke-linecap="round" stroke-linejoin="round" stroke-dasharray="4.41 4.41"/>
<path d="M205.208 45.6045H164.508V47.7545H205.208V45.6045Z" fill="#263238"/>
<path d="M195.728 50.0547H164.508V52.1982H195.728V50.0547Z" fill="#263238"/>
<path d="M210.993 54.4849H164.508V56.6544H210.993V54.4849Z" fill="#263238"/>
<path d="M204.094 58.8042H164.508V60.9737H204.094V58.8042Z" fill="#263238"/>
<path d="M227.933 132.347H208.029C205.679 132.347 203.774 134.252 203.774 136.602V148.283C203.774 150.633 205.679 152.538 208.029 152.538H227.933C230.282 152.538 232.187 150.633 232.187 148.283V136.602C232.187 134.252 230.282 132.347 227.933 132.347Z" fill="white" stroke="#263238" stroke-width="1.10311" stroke-linecap="round" stroke-linejoin="round"/>
<path d="M212.941 138.419L207.475 141.846L212.55 146.342" stroke="#263238" stroke-width="1.10311" stroke-linecap="round" stroke-linejoin="round"/>
<path d="M222.896 146.667L227.809 142.485L222.141 138.771" stroke="#263238" stroke-width="1.10311" stroke-linecap="round" stroke-linejoin="round"/>
<path d="M215.6 149.248L219.632 136.595" stroke="#263238" stroke-width="1.10311" stroke-linecap="round" stroke-linejoin="round"/>
<path d="M173.563 259.353C173.563 259.353 154.669 264.768 152.031 265.706C149.633 266.553 143.131 268.833 138.251 268.123C137.78 268.055 137.314 267.955 136.857 267.823C131.912 266.351 129.69 264.976 129.039 261.868C128.387 258.761 130.85 256.467 133.222 255.001C135.593 253.535 148.454 252.004 148.454 252.004L151.562 252.917L173.563 259.353Z" fill="#9468B4"/>
<path d="M138.251 268.123C137.78 268.055 137.314 267.955 136.857 267.823C131.912 266.351 129.69 264.976 129.039 261.868C128.387 258.761 130.85 256.467 133.222 255.001C135.593 253.535 148.454 252.004 148.454 252.004L151.562 252.917C148.747 254.22 138.271 254.93 135.984 256.246C133.697 257.562 132.596 260.038 133.945 263.412C134.668 265.171 136.596 266.898 138.251 268.123Z" fill="white"/>
<path d="M170.723 260.122C170.723 260.122 156.533 263.797 150.904 266.149C145.275 268.501 134.544 269.53 130.707 264.683C126.87 259.835 130.264 255.653 134.088 254.721C137.913 253.789 145.646 252.324 149.868 252.916" stroke="#263238" stroke-width="1.10311" stroke-linecap="round" stroke-linejoin="round"/>
<path d="M138.532 267.869C138.532 267.869 131.313 263.908 133.711 258.357C135.483 254.265 145.112 255.151 149.881 252.917" stroke="#263238" stroke-width="1.10311" stroke-linecap="round" stroke-linejoin="round"/>
<path d="M231.112 269.002C230.916 270.957 230.232 272.788 228.277 273.941C226.974 274.71 225.124 275.166 222.472 275.14C215.847 275.055 203.39 270.318 203.39 270.318L191.728 263.868L197.793 254.272L199.454 251.666L203.741 252.63C203.741 252.63 207.292 254.643 210.862 256.246C214.433 257.848 223.104 258.2 226.16 260.656C229.216 263.113 231.444 265.784 231.112 269.002Z" fill="#9468B4"/>
<path d="M231.111 269.002C230.916 270.957 230.232 272.788 228.277 273.941C228.84 272.019 228.725 269.963 227.952 268.116C226.649 265.191 222.407 262.611 216.83 262.181C211.253 261.751 206.986 259.145 204.751 257.979C203.005 257.073 199.324 255.092 197.793 254.272L199.454 251.666L203.741 252.63C203.741 252.63 207.292 254.643 210.862 256.246C214.433 257.848 223.104 258.2 226.16 260.656C229.215 263.113 231.444 265.784 231.111 269.002Z" fill="white"/>
<path d="M194.314 265.68C202.709 270.559 211.987 273.728 221.613 275.003C223.737 275.257 226.206 275.296 227.626 273.7C228.004 273.239 228.285 272.706 228.453 272.135C228.621 271.563 228.672 270.963 228.604 270.371C228.349 267.374 225.828 265.002 223.066 263.81C220.303 262.618 217.261 262.344 214.322 261.686C211.4 261.027 208.575 259.993 205.918 258.611C203.807 257.51 201.768 256.174 199.442 255.679C197.116 255.184 194.347 255.783 193.103 257.816" stroke="#263238" stroke-width="1.10311" stroke-linecap="round" stroke-linejoin="round"/>
<path d="M226.844 274.514C227.936 273.992 228.89 273.221 229.631 272.264C230.372 271.307 230.879 270.19 231.111 269.002C231.535 266.181 229.926 263.341 227.665 261.608C225.404 259.875 222.57 259.054 219.775 258.474C216.98 257.894 214.12 257.503 211.442 256.441C207.357 254.839 203.324 251.685 199.063 252.812" stroke="#263238" stroke-width="1.10311" stroke-linecap="round" stroke-linejoin="round"/>
<path d="M207.475 164.747L187.74 157.242L187.493 157.144C187.493 157.144 187.564 156.623 187.623 155.841C187.747 154.264 187.812 151.697 187.069 150.831C185.968 149.528 182.854 150.622 179.811 149.228C176.769 147.834 171.146 150.329 171.146 150.329C171.146 150.329 167.081 149.58 165.283 152.512C164.37 154.877 164.683 158.375 164.683 158.375L164.312 158.506C161.96 159.385 149.164 164.2 146.46 166.135C143.47 168.252 140.16 189.993 139.098 196.378C138.036 202.763 136.147 208.516 137.105 210.711C138.062 212.907 151.809 223.494 159.719 226.224C167.628 228.954 195.676 228.179 195.676 228.179C195.676 228.179 196.132 228.055 196.946 227.794C201.689 226.27 218.518 219.976 227.45 205.2C227.463 205.226 218.811 176.865 207.475 164.747ZM154.155 201.317C152.702 202.346 153.503 206.333 153.503 206.333L151.034 204.157L157.236 188.905L159.881 200.633C159.881 200.633 155.608 200.294 154.155 201.317ZM203.774 211.005C203.09 211.356 205.729 204.027 204.478 202.366C203.227 200.704 199.454 200.861 199.454 200.861L199.774 198.86L202.008 187.394L202.751 186.514C202.751 186.514 210.426 199.668 211.801 204.307C211.801 204.32 203.435 211.005 203.774 211.005Z" fill="#9468B4"/>
<path d="M170.214 117.18L160.024 127.995C160.024 127.995 158.624 129.24 159.177 132.373C159.731 135.507 161.034 138.237 162.018 138.42C162.797 138.556 163.586 138.626 164.376 138.628C164.376 138.628 166.559 143.358 168.11 145.215C168.11 145.215 168.644 152.518 168.357 154.544C168.357 154.544 172.019 157.743 175.465 158.147C178.912 158.551 184.235 153.274 184.235 153.274L185.538 146.811C185.538 146.811 188.665 142.068 188.873 140.804C189.082 139.54 190.515 139.866 191.219 139.24C191.922 138.615 193.545 135.833 193.825 133.201C194.105 130.569 194.112 127.546 191.056 128.432C188.404 127.722 190.066 122.119 190.066 122.119L185.407 118.014L170.214 117.18Z" fill="white"/>
<path opacity="0.5" d="M187.741 157.242C187.587 157.644 187.411 158.038 187.213 158.421C185.532 161.587 178.209 167.627 178.209 167.627L175.994 160.818L174.782 167.627C172.339 166.558 164.886 160.102 164.886 160.102C164.886 160.102 164.631 159.496 164.325 158.551L164.697 158.421C164.697 158.421 164.384 154.896 165.296 152.557C167.081 149.625 171.16 150.375 171.16 150.375C171.16 150.375 176.782 147.879 179.825 149.274C182.867 150.668 185.982 149.586 187.083 150.876C188.184 152.166 187.506 157.17 187.506 157.17L187.741 157.242Z" fill="white"/>
<path opacity="0.2" d="M207.475 164.747L187.74 157.242L187.493 157.144C187.493 157.144 187.565 156.623 187.623 155.841L187.213 158.401L184.294 162.362C187.414 163.511 190.46 164.852 193.415 166.376C194.83 167.134 195.984 168.299 196.727 169.721C197.471 171.143 197.77 172.756 197.585 174.35L193.949 205.46L192.457 223.123L196.959 227.794C201.702 226.269 218.531 219.976 227.463 205.199C227.463 205.226 218.811 176.865 207.475 164.747ZM203.774 211.004C203.09 211.356 205.729 204.027 204.478 202.365C203.227 200.704 199.455 200.86 199.455 200.86L199.774 198.86L202.009 187.394L202.751 186.514C202.751 186.514 210.426 199.668 211.801 204.307C211.801 204.32 203.435 211.004 203.774 211.004Z" fill="black"/>
<path opacity="0.2" d="M161.191 202.366L158.122 192.111C158.122 192.111 152.617 173.341 148.845 168.715L149.835 181.914C149.835 181.914 146.577 197.681 143.6 202.366C140.622 207.05 139.958 208.229 143.6 208.229C147.242 208.229 156.109 215.292 156.109 215.292L155.425 209.428L161.191 202.366ZM153.457 206.333L150.988 204.157L157.19 188.905L159.836 200.632C159.836 200.632 155.588 200.313 154.135 201.336C152.682 202.359 153.457 206.333 153.457 206.333Z" fill="black"/>
<path d="M168.11 145.215C168.11 145.215 168.671 150.746 168.11 153.274" stroke="#263238" stroke-width="1.10311" stroke-linecap="round" stroke-linejoin="round"/>
<path d="M184.802 152.531C184.808 150.753 185.013 148.98 185.414 147.248" stroke="#263238" stroke-width="1.10311" stroke-linecap="round" stroke-linejoin="round"/>
<path d="M186.281 121.304C186.281 121.304 189.63 125.506 189.454 128.686C189.278 131.865 189.03 135.631 189.115 139.319C189.2 143.006 183.193 150.733 180.105 151.417C177.016 152.101 174.358 152.277 172.384 150.303C170.41 148.329 168.436 145.586 165.869 142.068C163.302 138.55 163.914 130.829 163.914 130.829" stroke="#263238" stroke-width="1.10311" stroke-linecap="round" stroke-linejoin="round"/>
<path d="M178.215 133.768C178.011 134.922 177.923 136.094 177.954 137.266C177.887 138.254 178.194 139.231 178.814 140.003C179.186 140.38 179.72 140.687 179.791 141.208C179.79 141.442 179.724 141.672 179.603 141.873C179.481 142.074 179.308 142.238 179.101 142.348C178.683 142.559 178.28 142.798 177.896 143.065" stroke="#263238" stroke-width="1.10311" stroke-linecap="round" stroke-linejoin="round"/>
<path d="M172.918 143.469C172.918 143.469 173.302 145.964 176.645 146.485" stroke="#263238" stroke-width="1.10311" stroke-linecap="round" stroke-linejoin="round"/>
<path d="M173.263 135.67C173.263 136.393 172.951 136.973 172.566 136.973C172.182 136.973 171.869 136.393 171.869 135.67C171.869 134.947 172.182 134.367 172.566 134.367C172.951 134.367 173.263 134.954 173.263 135.67Z" fill="#263238"/>
<path d="M183.238 135.983C183.238 136.706 182.925 137.286 182.541 137.286C182.156 137.286 181.844 136.699 181.844 135.983C181.844 135.266 182.156 134.68 182.541 134.68C182.925 134.68 183.238 135.26 183.238 135.983Z" fill="#263238"/>
<path d="M181.226 132.823C181.226 132.823 184.483 129.565 187.213 133.201" stroke="#263238" stroke-width="2.20621" stroke-linecap="round" stroke-linejoin="round"/>
<path d="M174.365 132.888C174.365 132.888 172.306 130.582 169.062 132.888" stroke="#263238" stroke-width="2.20621" stroke-linecap="round" stroke-linejoin="round"/>
<path d="M168.358 148.29C168.358 148.29 170.345 153.763 174.782 155.32C179.219 156.877 185.108 148.805 185.108 148.805L184.802 147.756C184.802 147.756 180.939 152.772 176.645 151.919C172.352 151.065 168.11 145.241 168.11 145.241L168.358 148.29Z" fill="#263238"/>
<path d="M164.377 138.419C164.377 138.419 161.731 139.351 161.028 137.292C160.324 135.234 157.914 129.806 160.024 127.995C162.135 126.184 163.829 130.386 163.829 130.386" stroke="#263238" stroke-width="1.10311" stroke-linecap="round" stroke-linejoin="round"/>
<path d="M189.108 139.54C189.108 139.54 191.565 140.035 192.268 137.976C192.972 135.918 195.382 130.49 193.272 128.679C191.161 126.868 189.467 131.07 189.467 131.07" stroke="#263238" stroke-width="1.10311" stroke-linecap="round" stroke-linejoin="round"/>
<path d="M163.83 135.67C164.749 135.525 165.578 135.036 166.149 134.302C166.498 133.658 166.72 132.952 166.801 132.224C167.043 130.838 167.165 129.434 167.166 128.028C167.137 127.478 167.188 126.928 167.316 126.393C167.511 125.854 167.812 125.36 168.202 124.94C169.12 123.858 170.234 122.946 171.114 121.826C171.585 121.297 171.944 120.677 172.168 120.005C172.392 119.333 172.477 118.622 172.417 117.916C174.433 119.578 176.788 120.778 179.317 121.432C181.846 122.086 184.488 122.178 187.056 121.702C191.715 120.79 196.178 116.705 195.637 111.571C195.535 110.71 195.166 109.903 194.581 109.262C193.997 108.622 193.227 108.181 192.379 108C190.079 107.427 188.014 108.652 185.929 109.44C182.131 110.874 178.411 108.411 174.573 108C171.316 107.642 167.257 108.053 165.55 111.317C165.55 111.317 159.686 112.007 157.08 116.854C154.474 121.702 159.406 128.406 159.406 128.406C159.406 128.406 161.361 126.008 163.921 130.855L163.83 135.67Z" fill="#263238"/>
<path d="M186.684 120.066C186.684 120.066 185.16 128.015 189.14 131.865C189.14 131.865 190.013 129.474 190.893 128.888C191.527 127.477 191.796 125.929 191.674 124.388C191.552 122.846 191.044 121.36 190.196 120.066C187.251 115.44 186.684 120.066 186.684 120.066Z" fill="#263238"/>
<path opacity="0.2" d="M193.942 111.023C193.593 112.108 193 113.098 192.21 113.919C191.419 114.74 190.452 115.37 189.382 115.76C183.857 118.014 178.495 115.519 172.957 115.03C168.442 114.626 163.458 118.705 163.139 123.344" stroke="white" stroke-width="1.10311" stroke-linecap="round" stroke-linejoin="round"/>
<path opacity="0.2" d="M159.731 122.118C159.799 120.288 160.386 118.514 161.425 117.005C162.463 115.496 163.91 114.314 165.595 113.597" stroke="white" stroke-width="1.10311" stroke-linecap="round" stroke-linejoin="round"/>
<path d="M166.833 152.531C169.263 155.063 172.194 157.061 175.439 158.395C175.439 158.395 182.052 156.473 185.414 151.88" stroke="#263238" stroke-width="1.10311" stroke-linecap="round" stroke-linejoin="round"/>
<path d="M173.591 140.975C176.528 139.628 177.817 136.155 176.469 133.218C175.122 130.281 171.649 128.992 168.712 130.339C165.775 131.686 164.487 135.159 165.834 138.096C167.181 141.033 170.654 142.322 173.591 140.975Z" stroke="#263238" stroke-width="1.10311" stroke-linecap="round" stroke-linejoin="round"/>
<path d="M184.928 141.49C188.135 141.097 190.416 138.177 190.022 134.97C189.629 131.763 186.709 129.483 183.502 129.876C180.295 130.27 178.015 133.189 178.408 136.396C178.802 139.603 181.721 141.884 184.928 141.49Z" stroke="#263238" stroke-width="1.10311" stroke-linecap="round" stroke-linejoin="round"/>
<path d="M168.11 150.349C167.517 150.504 166.962 150.778 166.477 151.153C165.993 151.528 165.588 151.997 165.289 152.531C164.253 154.355 164.879 160.095 164.879 160.095C164.879 160.095 170.227 165.386 174.782 167.62L176.124 160.069L178.209 167.62C178.209 167.62 185.258 162.636 187.212 158.421C187.212 158.421 187.864 153.502 187.212 151.906C187.064 151.462 186.782 151.076 186.406 150.799C186.029 150.523 185.575 150.37 185.108 150.362" stroke="#263238" stroke-width="1.10311" stroke-linecap="round" stroke-linejoin="round"/>
<path d="M159.732 200.867C159.732 200.867 157.64 186.86 154.858 181.146" stroke="#263238" stroke-width="1.10311" stroke-linecap="round" stroke-linejoin="round"/>
<path d="M148.845 168.715C150.464 171.017 151.91 173.436 153.171 175.953" stroke="#263238" stroke-width="1.10311" stroke-linecap="round" stroke-linejoin="round"/>
<path d="M203.773 179.172C204.335 176.83 205.105 174.543 206.073 172.337" stroke="#263238" stroke-width="1.10311" stroke-linecap="round" stroke-linejoin="round"/>
<path d="M199.454 200.867C199.454 200.867 200.959 191.264 202.757 183.354" stroke="#263238" stroke-width="1.10311" stroke-linecap="round" stroke-linejoin="round"/>
<path d="M202.009 187.381C203.463 185.452 205.509 184.052 207.833 183.394" stroke="#263238" stroke-width="1.10311" stroke-linecap="round" stroke-linejoin="round"/>
<path d="M187.499 157.144C187.499 157.144 199.637 161.998 207.474 164.754C207.474 164.754 217.117 173.816 227.456 205.226C227.456 205.226 217.983 221.162 199.962 226.27" stroke="#263238" stroke-width="1.10311" stroke-linecap="round" stroke-linejoin="round"/>
<path d="M203.09 211.571L211.801 204.32C211.801 204.32 216.407 200.821 221.195 203.212" stroke="#263238" stroke-width="1.10311" stroke-linecap="round" stroke-linejoin="round"/>
<path d="M202.758 186.514C202.758 186.514 209.957 197.153 211.801 204.32" stroke="#263238" stroke-width="1.10311" stroke-linecap="round" stroke-linejoin="round"/>
<path d="M153.556 206.737L151.008 204.32C151.008 204.32 147.229 203.669 142.942 206.529" stroke="#263238" stroke-width="1.10311" stroke-linecap="round" stroke-linejoin="round"/>
<path d="M151.008 204.32C151.008 204.32 154.174 193.896 157.295 188.56" stroke="#263238" stroke-width="1.10311" stroke-linecap="round" stroke-linejoin="round"/>
<path d="M164.696 158.421C164.696 158.421 147.229 164.975 145.515 166.891C143.802 168.806 137.293 205.454 137.117 209.649C136.968 213.402 150.571 221.826 157.314 225.377" stroke="#263238" stroke-width="1.10311" stroke-linecap="round" stroke-linejoin="round"/>
<path d="M177.758 170.807C177.758 171.035 177.691 171.258 177.564 171.447C177.437 171.637 177.257 171.785 177.047 171.872C176.836 171.959 176.604 171.982 176.38 171.938C176.157 171.893 175.951 171.783 175.79 171.622C175.629 171.461 175.519 171.255 175.474 171.031C175.43 170.808 175.453 170.576 175.54 170.365C175.627 170.155 175.775 169.974 175.965 169.848C176.154 169.721 176.377 169.653 176.605 169.653C176.757 169.652 176.907 169.682 177.048 169.739C177.188 169.797 177.315 169.882 177.423 169.989C177.53 170.096 177.615 170.224 177.672 170.364C177.73 170.504 177.759 170.655 177.758 170.807Z" fill="#263238"/>
<path d="M197.969 232.192H158.227C157.979 232.192 157.743 232.094 157.568 231.919C157.393 231.744 157.295 231.507 157.295 231.26C157.295 231.013 157.393 230.776 157.568 230.601C157.743 230.427 157.979 230.329 158.227 230.329H197.969C198.216 230.329 198.453 230.427 198.628 230.601C198.802 230.776 198.901 231.013 198.901 231.26C198.901 231.507 198.802 231.744 198.628 231.919C198.453 232.094 198.216 232.192 197.969 232.192Z" fill="#263238"/>
<path d="M199.363 229.078L204.686 204.06C204.769 203.672 204.764 203.27 204.671 202.885C204.578 202.499 204.401 202.139 204.151 201.831C203.901 201.523 203.585 201.275 203.227 201.105C202.869 200.935 202.477 200.847 202.08 200.848H155.627C155.234 200.848 154.846 200.935 154.49 201.103C154.135 201.272 153.821 201.517 153.572 201.821C153.323 202.125 153.144 202.481 153.049 202.862C152.954 203.244 152.944 203.641 153.021 204.027L157.797 228.211C157.914 228.805 158.23 229.341 158.694 229.731C159.157 230.121 159.739 230.341 160.344 230.355L196.692 231.189C197.314 231.202 197.92 230.999 198.408 230.614C198.895 230.229 199.233 229.685 199.363 229.078Z" fill="white" stroke="#263238" stroke-width="1.10311" stroke-linecap="round" stroke-linejoin="round"/>
<path d="M182.411 215.285C182.41 216.018 182.191 216.734 181.783 217.343C181.375 217.951 180.796 218.426 180.118 218.705C179.441 218.985 178.696 219.057 177.977 218.913C177.258 218.77 176.598 218.416 176.081 217.897C175.563 217.379 175.21 216.718 175.068 215.999C174.925 215.28 174.999 214.535 175.28 213.858C175.561 213.181 176.036 212.603 176.645 212.196C177.255 211.789 177.971 211.571 178.704 211.571C179.192 211.571 179.674 211.667 180.124 211.854C180.575 212.041 180.983 212.314 181.328 212.659C181.672 213.004 181.945 213.414 182.131 213.864C182.317 214.315 182.412 214.798 182.411 215.285Z" fill="#263238"/>
<path d="M189.701 203.239H195.219" stroke="#263238" stroke-width="1.10311" stroke-linecap="round" stroke-linejoin="round"/>
<path d="M163.348 203.239H184.294" stroke="#263238" stroke-width="1.10311" stroke-linecap="round" stroke-linejoin="round"/>
<path d="M199.454 255.64L195.219 266.755C195.219 266.755 184.417 264.032 170.585 261.198C156.115 258.233 141.007 254.396 133.169 240.642C132.218 238.968 131.579 236.987 132.029 235.111C133.156 230.361 139.339 229.071 143.411 228.596C145.971 228.319 148.543 228.175 151.118 228.166C152.421 228.166 156.754 227.456 157.803 228.231C159.379 229.381 161.061 230.378 162.826 231.208C165.139 232.192 198.9 230.329 198.9 230.329C199.488 229.048 199.847 227.674 199.962 226.27C205.272 223.573 217.553 221.292 222.765 222.302C230.929 223.885 235.691 228.648 234.786 233.638C233.88 238.629 215.846 252.011 199.454 255.64Z" fill="#263238"/>
<path d="M199.455 255.64C199.455 255.64 189.18 252.917 180.789 247.249C172.397 241.58 165.843 235 154.148 236.362" stroke="white" stroke-width="1.10311" stroke-linecap="round" stroke-linejoin="round"/>
<path d="M178.866 245.913C184.17 244.388 188.059 240.955 192.313 237.665C196.801 234.063 201.62 230.896 206.705 228.205" stroke="white" stroke-width="1.10311" stroke-linecap="round" stroke-linejoin="round"/>
<path d="M176.997 136.595H178.554" stroke="#263238" stroke-width="1.10311" stroke-linecap="round" stroke-linejoin="round"/>
</svg>
