<svg width="306" height="347" viewBox="0 0 306 347" fill="none" xmlns="http://www.w3.org/2000/svg">
<path d="M7.39756 125.641C7.39756 125.641 -5.72876 181.904 30.9101 230.931C67.5489 279.957 131.515 299.023 182.905 315.8C234.294 332.578 282.427 313.2 300.484 270.014C318.54 226.829 282.066 203.562 274.026 147.16C265.986 90.7579 272.385 74.5141 234.893 31.5664C197.401 -11.3812 120.407 -10.3557 68.3529 33.7323C16.2988 77.8203 7.39756 125.641 7.39756 125.641Z" fill="#9468B4"/>
<path opacity="0.7" d="M7.39756 125.641C7.39756 125.641 -5.72876 181.904 30.9101 230.931C67.5489 279.957 131.515 299.023 182.905 315.8C234.294 332.578 282.427 313.2 300.484 270.014C318.54 226.829 282.066 203.562 274.026 147.16C265.986 90.7579 272.385 74.5141 234.893 31.5664C197.401 -11.3812 120.407 -10.3557 68.3529 33.7323C16.2988 77.8203 7.39756 125.641 7.39756 125.641Z" fill="white"/>
<path d="M214.459 170.353L211.071 164.946H181.241V170.353V172.297V262.221H304.013V170.353H214.459Z" fill="#263238"/>
<path d="M303.209 172.831H182.151V260.26H303.209V172.831Z" fill="white"/>
<path opacity="0.17" d="M303.797 172.084H300.983V260.925H303.797V172.084Z" fill="black"/>
<path opacity="0.17" d="M303.797 225.795H300.983V260.203H303.797V225.795Z" fill="black"/>
<path d="M303.364 171.649H181.667V176.408H303.364V171.649Z" fill="#9468B4" stroke="#263238" stroke-miterlimit="10"/>
<path d="M303.209 172.831H182.151V260.26H303.209V172.831Z" stroke="#263238" stroke-linecap="round" stroke-linejoin="round"/>
<g opacity="0.17">
<path opacity="0.17" d="M245.223 180.986H236.756C236.658 180.987 236.56 180.969 236.469 180.932C236.378 180.895 236.296 180.84 236.226 180.77C236.156 180.701 236.102 180.618 236.064 180.527C236.027 180.436 236.009 180.338 236.01 180.24C236.01 180.042 236.088 179.852 236.228 179.712C236.368 179.572 236.558 179.493 236.756 179.493H245.223C245.421 179.493 245.611 179.572 245.751 179.712C245.891 179.852 245.969 180.042 245.969 180.24C245.969 180.438 245.891 180.628 245.751 180.768C245.611 180.908 245.421 180.986 245.223 180.986Z" fill="black"/>
<path opacity="0.17" d="M262.165 180.986H253.69C253.492 180.986 253.302 180.907 253.162 180.767C253.022 180.627 252.943 180.437 252.943 180.239C252.943 180.041 253.022 179.851 253.162 179.711C253.302 179.571 253.492 179.493 253.69 179.493H262.165C262.263 179.493 262.36 179.512 262.45 179.55C262.541 179.587 262.623 179.642 262.692 179.711C262.762 179.781 262.817 179.863 262.854 179.954C262.892 180.044 262.911 180.141 262.911 180.239C262.911 180.337 262.892 180.434 262.854 180.525C262.817 180.616 262.762 180.698 262.692 180.767C262.623 180.836 262.541 180.891 262.45 180.929C262.36 180.966 262.263 180.986 262.165 180.986Z" fill="black"/>
<path opacity="0.17" d="M279.097 180.986H270.63C270.432 180.986 270.242 180.907 270.102 180.767C269.962 180.627 269.884 180.437 269.884 180.239C269.884 180.041 269.962 179.851 270.102 179.711C270.242 179.571 270.432 179.493 270.63 179.493H279.097C279.195 179.493 279.292 179.512 279.383 179.55C279.473 179.587 279.555 179.642 279.625 179.711C279.694 179.781 279.749 179.863 279.787 179.954C279.824 180.044 279.843 180.141 279.843 180.239C279.844 180.338 279.826 180.435 279.789 180.526C279.752 180.617 279.697 180.7 279.627 180.77C279.558 180.839 279.475 180.894 279.384 180.931C279.293 180.968 279.195 180.987 279.097 180.986Z" fill="black"/>
<path opacity="0.17" d="M296.006 180.986H287.572C287.473 180.987 287.375 180.968 287.284 180.931C287.192 180.894 287.109 180.839 287.039 180.77C286.969 180.701 286.913 180.618 286.875 180.527C286.837 180.436 286.817 180.338 286.817 180.239C286.82 180.04 286.9 179.851 287.041 179.711C287.183 179.571 287.373 179.493 287.572 179.493H296.006C296.104 179.493 296.201 179.512 296.292 179.55C296.382 179.587 296.464 179.642 296.534 179.711C296.603 179.781 296.658 179.863 296.696 179.954C296.733 180.044 296.752 180.141 296.752 180.239C296.752 180.337 296.733 180.434 296.696 180.525C296.658 180.616 296.603 180.698 296.534 180.767C296.464 180.836 296.382 180.891 296.292 180.929C296.201 180.966 296.104 180.986 296.006 180.986Z" fill="black"/>
</g>
<path d="M285.077 225.565H277.111V250.694H285.077V225.565Z" fill="#9468B4" stroke="#263238" stroke-miterlimit="10"/>
<path d="M276.226 241.826H268.26V250.694H276.226V241.826Z" fill="#263238" stroke="#263238" stroke-linecap="round" stroke-linejoin="round"/>
<path d="M267.374 192.298H259.408V250.686H267.374V192.298Z" fill="#9468B4" stroke="#263238" stroke-miterlimit="10"/>
<path d="M258.53 195.261H250.563V250.695H258.53V195.261Z" fill="white" stroke="#263238" stroke-linecap="round" stroke-linejoin="round"/>
<path d="M249.678 225.565H241.712V250.694H249.678V225.565Z" fill="#9468B4" stroke="#263238" stroke-miterlimit="10"/>
<path d="M240.826 217.436H232.86V250.695H240.826V217.436Z" fill="#263238" stroke="#263238" stroke-linecap="round" stroke-linejoin="round"/>
<path d="M231.982 246.256H224.016V250.694H231.982V246.256Z" fill="#9468B4" stroke="#263238" stroke-miterlimit="10"/>
<path d="M223.13 241.826H215.164V250.694H223.13V241.826Z" fill="white" stroke="#263238" stroke-linecap="round" stroke-linejoin="round"/>
<path d="M214.279 225.565H206.312V250.694H214.279V225.565Z" fill="#9468B4" stroke="#263238" stroke-miterlimit="10"/>
<path d="M216.378 203.005L219.225 219.175C216.864 219.593 214.439 219.489 212.122 218.869C209.805 218.25 207.653 217.13 205.815 215.588C203.978 214.046 202.501 212.121 201.488 209.947C200.476 207.773 199.952 205.403 199.954 203.005H216.378Z" stroke="#263238" stroke-width="0.75" stroke-linecap="round" stroke-linejoin="round"/>
<path d="M216.377 203.005L229.315 213.112C226.867 216.368 223.248 218.543 219.224 219.175L216.377 203.005Z" stroke="#263238" stroke-width="0.75" stroke-miterlimit="10"/>
<path d="M216.378 203.005L208.174 188.787C210.041 187.707 212.102 187.006 214.24 186.724C216.378 186.441 218.55 186.583 220.634 187.14C222.717 187.698 224.669 188.661 226.38 189.974C228.091 191.287 229.526 192.924 230.603 194.793C232.274 197.615 233.047 200.88 232.818 204.152C232.59 207.424 231.371 210.549 229.324 213.112L216.378 203.005Z" stroke="#263238" stroke-width="0.75" stroke-linecap="round" stroke-linejoin="round"/>
<path d="M222.042 208.661C225.169 205.534 225.169 200.465 222.042 197.338C218.915 194.211 213.845 194.211 210.718 197.338C207.592 200.465 207.592 205.534 210.718 208.661C213.845 211.788 218.915 211.788 222.042 208.661Z" fill="white" stroke="#263238" stroke-width="0.75" stroke-linecap="round" stroke-linejoin="round"/>
<path d="M239.628 267.792H259.145" stroke="#263238" stroke-miterlimit="10"/>
<path d="M239.628 271.114H259.145" stroke="#263238" stroke-miterlimit="10"/>
<path d="M239.628 274.437H259.145" stroke="#263238" stroke-miterlimit="10"/>
<path d="M239.628 277.751H259.145" stroke="#263238" stroke-miterlimit="10"/>
<path d="M281.493 247.602V274.527H262.419" stroke="#263238" stroke-miterlimit="10"/>
<path d="M59.0422 30.7793L54.2429 23.125H11.9844V30.7793V33.5358V160.935H185.933V30.7793H59.0422Z" fill="#263238"/>
<path d="M184.784 34.291H13.2725V158.162H184.784V34.291Z" fill="white"/>
<path opacity="0.17" d="M185.629 33.2236H181.65V159.097H185.629V33.2236Z" fill="black"/>
<path opacity="0.17" d="M185.629 109.332H181.65V158.08H185.629V109.332Z" fill="black"/>
<path d="M185.014 32.6172H12.5918V39.3526H185.014V32.6172Z" fill="#9468B4" stroke="#263238" stroke-miterlimit="10"/>
<path d="M184.784 34.291H13.2725V158.162H184.784V34.291Z" stroke="#263238" stroke-linecap="round" stroke-linejoin="round"/>
<g opacity="0.17">
<path opacity="0.17" d="M102.639 45.85H90.6364C90.3557 45.85 90.0866 45.7385 89.8881 45.54C89.6896 45.3416 89.5781 45.0724 89.5781 44.7917C89.5781 44.6527 89.6055 44.5151 89.6587 44.3867C89.7119 44.2583 89.7898 44.1416 89.8881 44.0434C89.9864 43.9451 90.103 43.8671 90.2314 43.814C90.3598 43.7608 90.4974 43.7334 90.6364 43.7334H102.639C102.778 43.7334 102.915 43.7608 103.044 43.814C103.172 43.8671 103.289 43.9451 103.387 44.0434C103.485 44.1416 103.563 44.2583 103.617 44.3867C103.67 44.5151 103.697 44.6527 103.697 44.7917C103.697 45.0724 103.586 45.3416 103.387 45.54C103.189 45.7385 102.919 45.85 102.639 45.85Z" fill="black"/>
<path opacity="0.17" d="M126.634 45.85H114.639C114.359 45.85 114.09 45.7385 113.891 45.54C113.693 45.3416 113.581 45.0724 113.581 44.7917C113.581 44.6527 113.608 44.5151 113.662 44.3867C113.715 44.2583 113.793 44.1416 113.891 44.0434C113.989 43.9451 114.106 43.8671 114.234 43.814C114.363 43.7608 114.5 43.7334 114.639 43.7334H126.634C126.773 43.7334 126.91 43.7608 127.039 43.814C127.167 43.8671 127.284 43.9451 127.382 44.0434C127.48 44.1416 127.558 44.2583 127.611 44.3867C127.664 44.5151 127.692 44.6527 127.692 44.7917C127.692 45.0724 127.58 45.3416 127.382 45.54C127.183 45.7385 126.914 45.85 126.634 45.85Z" fill="black"/>
<path opacity="0.17" d="M150.631 45.85H138.636C138.356 45.85 138.087 45.7385 137.888 45.54C137.69 45.3416 137.578 45.0724 137.578 44.7917C137.578 44.6527 137.605 44.5151 137.659 44.3867C137.712 44.2583 137.79 44.1416 137.888 44.0434C137.986 43.9451 138.103 43.8671 138.231 43.814C138.36 43.7608 138.497 43.7334 138.636 43.7334H150.631C150.77 43.7334 150.907 43.7608 151.036 43.814C151.164 43.8671 151.281 43.9451 151.379 44.0434C151.477 44.1416 151.555 44.2583 151.608 44.3867C151.662 44.5151 151.689 44.6527 151.689 44.7917C151.689 45.0724 151.577 45.3416 151.379 45.54C151.18 45.7385 150.911 45.85 150.631 45.85Z" fill="black"/>
<path opacity="0.17" d="M174.636 45.85H162.633C162.353 45.85 162.084 45.7385 161.885 45.54C161.687 45.3416 161.575 45.0724 161.575 44.7917C161.575 44.6527 161.603 44.5151 161.656 44.3867C161.709 44.2583 161.787 44.1416 161.885 44.0434C161.983 43.9451 162.1 43.8671 162.228 43.814C162.357 43.7608 162.495 43.7334 162.633 43.7334H174.636C174.775 43.7334 174.912 43.7608 175.041 43.814C175.169 43.8671 175.286 43.9451 175.384 44.0434C175.482 44.1416 175.56 44.2583 175.614 44.3867C175.667 44.5151 175.694 44.6527 175.694 44.7917C175.694 45.0724 175.583 45.3416 175.384 45.54C175.186 45.7385 174.917 45.85 174.636 45.85Z" fill="black"/>
</g>
<path d="M22.6318 105.477H177.129" stroke="#263238" stroke-width="0.5" stroke-miterlimit="10"/>
<path d="M22.6318 105.476V104.278" stroke="#263238" stroke-width="0.5" stroke-miterlimit="10"/>
<path d="M41.9453 105.476V104.278" stroke="#263238" stroke-width="0.5" stroke-miterlimit="10"/>
<path d="M61.2578 105.476V104.278" stroke="#263238" stroke-width="0.5" stroke-miterlimit="10"/>
<path d="M80.5684 105.476V104.278" stroke="#263238" stroke-width="0.5" stroke-miterlimit="10"/>
<path d="M99.8818 105.476V104.278" stroke="#263238" stroke-width="0.5" stroke-miterlimit="10"/>
<path d="M119.194 105.476V104.278" stroke="#263238" stroke-width="0.5" stroke-miterlimit="10"/>
<path d="M138.505 105.476V104.278" stroke="#263238" stroke-width="0.5" stroke-miterlimit="10"/>
<path d="M157.818 105.476V104.278" stroke="#263238" stroke-width="0.5" stroke-miterlimit="10"/>
<path d="M177.129 105.476V104.278" stroke="#263238" stroke-width="0.5" stroke-miterlimit="10"/>
<path d="M51.6021 93.0225L32.29 98.9949" stroke="#263238" stroke-width="2" stroke-miterlimit="10" stroke-linecap="round"/>
<path d="M70.9127 79.8887L51.6006 93.0232" stroke="#263238" stroke-width="2" stroke-miterlimit="10" stroke-linecap="round"/>
<path d="M90.2252 61.9707L70.9131 79.8881" stroke="#263238" stroke-width="2" stroke-miterlimit="10" stroke-linecap="round"/>
<path d="M109.539 60.1816L90.2266 61.9701" stroke="#263238" stroke-width="2" stroke-miterlimit="10" stroke-linecap="round"/>
<path d="M128.849 73.3162L109.537 60.1816" stroke="#263238" stroke-width="2" stroke-miterlimit="10" stroke-linecap="round"/>
<path d="M148.162 85.8602L128.85 73.3164" stroke="#263238" stroke-width="2" stroke-miterlimit="10" stroke-linecap="round"/>
<path d="M167.472 59.584L148.16 85.8612" stroke="#263238" stroke-width="2" stroke-miterlimit="10" stroke-linecap="round"/>
<path d="M32.2893 96.5342C32.9421 96.5342 33.5681 96.7935 34.0296 97.255C34.4912 97.7166 34.7505 98.3426 34.7505 98.9954C34.7505 99.6481 34.4912 100.274 34.0296 100.736C33.5681 101.197 32.9421 101.457 32.2893 101.457C31.6366 101.457 31.0105 101.197 30.549 100.736C30.0874 100.274 29.8281 99.6481 29.8281 98.9954C29.8281 98.3426 30.0874 97.7166 30.549 97.255C31.0105 96.7935 31.6366 96.5342 32.2893 96.5342Z" fill="#9468B4" stroke="#263238" stroke-miterlimit="10"/>
<path d="M51.6018 90.5615C52.2546 90.5615 52.8806 90.8208 53.3421 91.2824C53.8037 91.7439 54.063 92.37 54.063 93.0227C54.063 93.6755 53.8037 94.3015 53.3421 94.763C52.8806 95.2246 52.2546 95.4839 51.6018 95.4839C50.9491 95.4839 50.3231 95.2246 49.8615 94.763C49.3999 94.3015 49.1406 93.6755 49.1406 93.0227C49.1406 92.37 49.3999 91.7439 49.8615 91.2824C50.3231 90.8208 50.9491 90.5615 51.6018 90.5615Z" fill="#9468B4" stroke="#263238" stroke-miterlimit="10"/>
<path d="M70.9133 77.4268C71.5661 77.4268 72.1921 77.6861 72.6537 78.1476C73.1152 78.6092 73.3745 79.2352 73.3745 79.8879C73.3745 80.5407 73.1152 81.1667 72.6537 81.6283C72.1921 82.0898 71.5661 82.3491 70.9133 82.3491C70.2606 82.3491 69.6346 82.0898 69.173 81.6283C68.7114 81.1667 68.4521 80.5407 68.4521 79.8879C68.4521 79.2352 68.7114 78.6092 69.173 78.1476C69.6346 77.6861 70.2606 77.4268 70.9133 77.4268Z" fill="#9468B4" stroke="#263238" stroke-miterlimit="10"/>
<path d="M90.2258 59.5098C90.8786 59.5098 91.5046 59.7691 91.9662 60.2306C92.4277 60.6922 92.687 61.3182 92.687 61.9709C92.687 62.6237 92.4277 63.2497 91.9662 63.7113C91.5046 64.1728 90.8786 64.4321 90.2258 64.4321C89.5731 64.4321 88.9471 64.1728 88.4855 63.7113C88.0239 63.2497 87.7646 62.6237 87.7646 61.9709C87.7646 61.3182 88.0239 60.6922 88.4855 60.2306C88.9471 59.7691 89.5731 59.5098 90.2258 59.5098Z" fill="#9468B4" stroke="#263238" stroke-miterlimit="10"/>
<path d="M109.536 57.7207C110.189 57.7207 110.815 57.98 111.277 58.4416C111.738 58.9031 111.998 59.5291 111.998 60.1819C111.998 60.8346 111.738 61.4606 111.277 61.9222C110.815 62.3838 110.189 62.6431 109.536 62.6431C108.884 62.6431 108.258 62.3838 107.796 61.9222C107.334 61.4606 107.075 60.8346 107.075 60.1819C107.075 59.5291 107.334 58.9031 107.796 58.4416C108.258 57.98 108.884 57.7207 109.536 57.7207Z" fill="#9468B4" stroke="#263238" stroke-miterlimit="10"/>
<path d="M128.85 70.8555C129.503 70.8555 130.129 71.1148 130.59 71.5763C131.052 72.0379 131.311 72.6639 131.311 73.3167C131.311 73.9694 131.052 74.5954 130.59 75.057C130.129 75.5185 129.503 75.7778 128.85 75.7778C128.197 75.7778 127.571 75.5185 127.11 75.057C126.648 74.5954 126.389 73.9694 126.389 73.3167C126.389 72.6639 126.648 72.0379 127.11 71.5763C127.571 71.1148 128.197 70.8555 128.85 70.8555Z" fill="#9468B4" stroke="#263238" stroke-miterlimit="10"/>
<path d="M150.624 85.8606C150.624 84.5013 149.522 83.3994 148.162 83.3994C146.803 83.3994 145.701 84.5013 145.701 85.8606C145.701 87.2199 146.803 88.3218 148.162 88.3218C149.522 88.3218 150.624 87.2199 150.624 85.8606Z" fill="#9468B4" stroke="#263238" stroke-miterlimit="10"/>
<path d="M167.473 57.123C168.126 57.123 168.752 57.3824 169.213 57.8439C169.675 58.3055 169.934 58.9315 169.934 59.5842C169.934 60.237 169.675 60.863 169.213 61.3246C168.752 61.7861 168.126 62.0454 167.473 62.0454C166.82 62.0454 166.194 61.7861 165.733 61.3246C165.271 60.863 165.012 60.237 165.012 59.5842C165.012 58.9315 165.271 58.3055 165.733 57.8439C166.194 57.3824 166.82 57.123 167.473 57.123Z" fill="#9468B4" stroke="#263238" stroke-miterlimit="10"/>
<path d="M94.2873 136.463L76.9606 139.523C76.1499 134.919 77.2008 130.182 79.8823 126.352C82.5639 122.523 86.6564 119.916 91.2601 119.103C92.2709 118.93 93.2946 118.842 94.3201 118.841L94.2873 136.463Z" fill="#263238" stroke="#263238" stroke-linecap="round" stroke-linejoin="round"/>
<path d="M94.2853 136.463L83.4397 150.352C79.9386 147.731 77.6009 143.844 76.9258 139.523L94.2853 136.463Z" fill="#9468B4" stroke="#263238" stroke-miterlimit="10"/>
<path d="M94.2853 136.463L109.553 127.652C110.716 129.658 111.472 131.874 111.778 134.173C112.084 136.472 111.933 138.809 111.334 141.05C110.735 143.29 109.699 145.391 108.287 147.23C106.875 149.07 105.114 150.613 103.105 151.771C100.073 153.574 96.5628 154.408 93.0442 154.162C89.5256 153.915 86.1661 152.601 83.415 150.393L94.2853 136.463Z" fill="white" stroke="#263238" stroke-linecap="round" stroke-linejoin="round"/>
<path d="M94.2852 136.463V118.841C97.3896 118.788 100.45 119.58 103.139 121.132C105.828 122.684 108.045 124.937 109.553 127.652L94.2852 136.463Z" fill="#9468B4" stroke="#263238" stroke-miterlimit="10"/>
<path d="M100.364 142.544C103.721 139.186 103.721 133.742 100.364 130.385C97.0059 127.027 91.5621 127.027 88.2045 130.385C84.8469 133.742 84.8469 139.186 88.2045 142.544C91.5621 145.901 97.0059 145.902 100.364 142.544Z" fill="white" stroke="#263238" stroke-linecap="round" stroke-linejoin="round"/>
<path d="M42.1498 136.496L45.2099 153.855C42.9301 154.258 40.5934 154.207 38.3332 153.706C36.073 153.205 33.9336 152.264 32.0373 150.936C30.141 149.608 28.525 147.92 27.2815 145.967C26.038 144.014 25.1915 141.836 24.7903 139.556C24.614 138.545 24.5234 137.521 24.5195 136.496H42.1498Z" fill="#263238" stroke="#263238" stroke-linecap="round" stroke-linejoin="round"/>
<path d="M42.1504 136.496L56.0397 147.349C53.4149 150.845 49.5297 153.18 45.2105 153.855L42.1504 136.496Z" fill="#9468B4" stroke="#263238" stroke-miterlimit="10"/>
<path d="M42.1493 136.496L33.3301 121.228C37.3807 118.892 42.1934 118.259 46.7101 119.47C51.2268 120.681 55.0779 123.636 57.4169 127.685C59.215 130.718 60.0463 134.227 59.8001 137.745C59.5538 141.262 58.2418 144.621 56.0386 147.374L42.1493 136.496Z" fill="white" stroke="#263238" stroke-linecap="round" stroke-linejoin="round"/>
<path d="M42.1503 136.496H24.5201C24.4672 133.391 25.259 130.331 26.811 127.641C28.363 124.952 30.6167 122.735 33.3311 121.228L42.1503 136.496Z" fill="#9468B4" stroke="#263238" stroke-miterlimit="10"/>
<path d="M42.1505 145.093C46.8989 145.093 50.7482 141.244 50.7482 136.496C50.7482 131.747 46.8989 127.898 42.1505 127.898C37.4021 127.898 33.5527 131.747 33.5527 136.496C33.5527 141.244 37.4021 145.093 42.1505 145.093Z" fill="white" stroke="#263238" stroke-linecap="round" stroke-linejoin="round"/>
<path d="M146.373 136.496L149.434 153.855C147.154 154.258 144.817 154.207 142.557 153.706C140.297 153.205 138.157 152.264 136.261 150.936C134.365 149.608 132.749 147.92 131.505 145.967C130.262 144.014 129.415 141.836 129.014 139.556C128.838 138.545 128.747 137.521 128.743 136.496H146.373Z" fill="#263238" stroke="#263238" stroke-linecap="round" stroke-linejoin="round"/>
<path d="M146.374 136.496L160.263 147.349C157.639 150.845 153.753 153.18 149.434 153.855L146.374 136.496Z" fill="#9468B4" stroke="#263238" stroke-miterlimit="10"/>
<path d="M146.373 136.496L137.554 121.228C141.604 118.892 146.417 118.259 150.934 119.47C155.45 120.681 159.302 123.636 161.641 127.685C163.439 130.718 164.27 134.227 164.024 137.745C163.777 141.262 162.465 144.621 160.262 147.374L146.373 136.496Z" fill="white" stroke="#263238" stroke-linecap="round" stroke-linejoin="round"/>
<path d="M146.374 136.496H128.744C128.691 133.391 129.483 130.331 131.035 127.641C132.587 124.952 134.84 122.735 137.555 121.228L146.374 136.496Z" fill="#9468B4" stroke="#263238" stroke-miterlimit="10"/>
<path d="M146.374 145.093C151.122 145.093 154.972 141.244 154.972 136.496C154.972 131.747 151.122 127.898 146.374 127.898C141.626 127.898 137.776 131.747 137.776 136.496C137.776 141.244 141.626 145.093 146.374 145.093Z" fill="white" stroke="#263238" stroke-linecap="round" stroke-linejoin="round"/>
<path d="M23.0605 53.209H42.5777" stroke="#263238" stroke-miterlimit="10"/>
<path d="M23.0605 56.5234H42.5777" stroke="#263238" stroke-miterlimit="10"/>
<path d="M23.0605 59.8467H42.5777" stroke="#263238" stroke-miterlimit="10"/>
<path d="M23.0605 63.168H42.5777" stroke="#263238" stroke-miterlimit="10"/>
<path d="M174.899 60.79H193.974L216.42 80.4221" stroke="#263238" stroke-linecap="round" stroke-linejoin="round"/>
<path d="M219.995 74.8105H239.512" stroke="#263238" stroke-miterlimit="10"/>
<path d="M219.995 78.1328H239.512" stroke="#263238" stroke-miterlimit="10"/>
<path d="M219.995 81.4551H239.512" stroke="#263238" stroke-miterlimit="10"/>
<path d="M219.995 84.7695H239.512" stroke="#263238" stroke-miterlimit="10"/>
<path d="M219.995 131.466H239.512" stroke="#263238" stroke-miterlimit="10"/>
<path d="M219.995 134.789H239.512" stroke="#263238" stroke-miterlimit="10"/>
<path d="M219.995 138.112H239.512" stroke="#263238" stroke-miterlimit="10"/>
<path d="M219.995 141.434H239.512" stroke="#263238" stroke-miterlimit="10"/>
<path d="M32.626 197.106H52.1432" stroke="#263238" stroke-miterlimit="10"/>
<path d="M32.626 200.429H52.1432" stroke="#263238" stroke-miterlimit="10"/>
<path d="M32.626 203.751H52.1432" stroke="#263238" stroke-miterlimit="10"/>
<path d="M32.626 207.066H52.1432" stroke="#263238" stroke-miterlimit="10"/>
<path d="M155.267 126.42L163.118 117.445H194.539L216.977 135.962" stroke="#263238" stroke-miterlimit="10"/>
<path d="M41.9453 153.355V195.425" stroke="#263238" stroke-miterlimit="10"/>
<path d="M3.94397 224.499C5.52733 225.196 9.4078 225.106 9.4078 225.106C9.4078 225.106 8.5874 222.571 8.50536 222.415C7.68497 220.635 4.96126 217.698 2.7626 217.993C2.39985 218.052 2.05365 218.187 1.74654 218.389C1.43943 218.591 1.1783 218.855 0.980171 219.165C0.782037 219.475 0.651334 219.822 0.596581 220.186C0.541829 220.549 0.564253 220.92 0.66239 221.274C1.03157 222.784 2.59032 223.908 3.94397 224.499Z" fill="#263238"/>
<path d="M54.6929 211.315C52.4943 211.077 49.8936 214.08 49.0896 215.884C49.0158 216.04 48.2118 218.6 48.2692 218.6H48.3184C47.9 219.068 47.498 219.576 46.9976 220.142C46.1772 221.201 45.1763 222.398 44.2165 223.777C43.1687 225.248 42.2072 226.78 41.3369 228.363C40.3505 230.13 39.5268 231.984 38.8757 233.9V233.966C38.8757 233.318 38.8757 231.505 38.8757 231.374C38.6214 229.421 36.9806 225.787 34.7737 225.385C34.4109 225.329 34.0405 225.35 33.6863 225.447C33.3322 225.543 33.0022 225.713 32.7177 225.945C32.4332 226.177 32.2005 226.466 32.0346 226.793C31.8688 227.121 31.7734 227.479 31.7547 227.846C31.6316 229.396 32.7556 230.955 33.8549 231.948C35.0937 233.055 38.5311 234.13 38.7772 234.212C38.1635 236.177 37.6784 238.181 37.3252 240.209C37.1201 241.391 36.9396 242.588 36.7837 243.786C36.7837 243.228 36.7837 242.728 36.7837 242.654C36.5294 240.701 34.8968 237.075 32.7227 236.673C32.3602 236.616 31.9896 236.637 31.6354 236.733C31.2812 236.829 30.9512 236.998 30.667 237.231C30.3829 237.463 30.1509 237.753 29.9863 238.081C29.8217 238.409 29.7282 238.768 29.7119 239.134C29.5806 240.693 30.7046 242.244 31.8039 243.236C32.9032 244.229 35.832 245.205 36.6032 245.452L36.4309 246.83C36.1684 249.045 35.9141 251.26 35.6105 253.393C35.5039 254.156 35.3644 254.902 35.2331 255.649C35.2331 255.157 35.2331 254.738 35.2331 254.673C34.987 252.72 33.3462 249.094 31.1312 248.692C30.7686 248.635 30.3981 248.655 30.0438 248.751C29.6896 248.848 29.3596 249.017 29.0755 249.25C28.7913 249.482 28.5593 249.771 28.3948 250.099C28.2302 250.428 28.1367 250.787 28.1203 251.153C27.9891 252.704 29.1212 254.263 30.2205 255.255C31.3199 256.248 33.9615 257.126 34.8804 257.429C34.7163 258.192 34.5604 258.947 34.3635 259.677C34.2241 260.178 34.1256 260.662 33.9533 261.154L33.4857 262.606C33.1575 263.517 32.8212 264.46 32.4766 265.338C32.2387 265.953 32.0008 266.536 31.7629 267.118C31.8859 266.363 32.0828 264.878 32.091 264.747C32.0627 263.017 31.594 261.323 30.7292 259.825C30.7458 259.634 30.7458 259.442 30.7292 259.251C30.6827 258.887 30.5602 258.536 30.3696 258.223C30.179 257.909 29.9246 257.639 29.6228 257.43C29.3211 257.221 28.9788 257.078 28.6182 257.01C28.2576 256.942 27.8867 256.951 27.5296 257.036C25.3966 257.602 24.043 261.343 23.9445 263.312C23.9445 263.426 24.0183 264.698 24.0758 265.494C23.9691 265.026 23.8707 264.575 23.7558 264.099C23.5261 263.156 23.28 262.22 23.0093 261.22C22.8698 260.735 22.7221 260.251 22.5744 259.759C22.4268 259.267 22.2299 258.767 22.0576 258.266C21.631 257.109 21.147 255.961 20.6383 254.82C21.4587 254.615 24.3875 253.877 25.5607 252.975C26.7339 252.072 27.9644 250.612 27.9562 249.053C27.9654 248.687 27.8975 248.322 27.7569 247.984C27.6164 247.645 27.4062 247.34 27.1402 247.088C26.8741 246.836 26.5581 246.642 26.2125 246.52C25.8669 246.398 25.4995 246.35 25.1341 246.379C22.9354 246.616 21.0321 250.111 20.6383 252.048C20.6383 252.162 20.4824 253.582 20.425 254.361C20.1133 253.672 19.8015 252.991 19.457 252.302C18.4807 250.325 17.4224 248.356 16.3805 246.387C16.0605 245.788 15.7488 245.181 15.437 244.582C15.7324 244.508 19.2272 243.704 20.5399 242.695C21.7048 241.801 22.9436 240.332 22.9354 238.774C22.9446 238.407 22.8767 238.043 22.7361 237.704C22.5955 237.366 22.3854 237.061 22.1194 236.808C21.8533 236.556 21.5372 236.363 21.1917 236.241C20.8461 236.118 20.4787 236.07 20.1133 236.099C17.9146 236.337 16.0113 239.832 15.6175 241.76C15.6175 241.907 15.4042 243.95 15.3796 244.467C14.6905 243.138 14.0095 241.809 13.4024 240.464C12.5613 238.659 11.8405 236.801 11.2448 234.901C11.3843 234.901 15.0268 234.081 16.3723 233.006C17.5454 232.112 18.7842 230.643 18.7678 229.085C18.7782 228.719 18.7114 228.354 18.5717 228.016C18.4321 227.677 18.2227 227.372 17.9573 227.12C17.6919 226.868 17.3763 226.674 17.0311 226.552C16.686 226.429 16.3189 226.381 15.9539 226.41C13.7552 226.648 11.8519 230.151 11.4499 232.079C11.4499 232.227 11.2284 234.425 11.2202 234.827C11.2202 234.713 11.1382 234.606 11.1053 234.491C10.557 232.571 10.1836 230.605 9.9896 228.617C9.86654 227.518 9.80911 226.468 9.77629 225.442C10.4736 225.352 13.6404 224.933 14.9612 224.138C16.282 223.342 17.6111 222.054 17.7669 220.503C17.8165 220.14 17.7893 219.77 17.6869 219.418C17.5845 219.066 17.4093 218.74 17.1726 218.46C16.9359 218.18 16.6431 217.953 16.313 217.793C15.9829 217.634 15.623 217.545 15.2565 217.533C13.0497 217.533 10.7772 220.815 10.1701 222.669C10.1701 222.776 9.91576 223.851 9.75988 224.63C9.75988 224.17 9.75988 223.686 9.75988 223.243C9.75988 221.603 9.86653 220.044 9.97319 218.69C10.0388 217.927 10.1127 217.23 10.1865 216.582C10.8264 216.147 13.3778 214.342 14.1654 213.054C14.953 211.766 15.5601 209.986 14.9858 208.534C14.8632 208.188 14.6692 207.873 14.4165 207.607C14.1637 207.342 13.8578 207.133 13.5188 206.993C13.1798 206.854 12.8152 206.788 12.4488 206.799C12.0825 206.81 11.7225 206.898 11.3925 207.057C9.43173 208.066 8.93128 211.979 9.23483 213.957C9.23483 214.129 10.006 216.705 10.0552 216.68H10.0962C10.006 217.304 9.92396 217.977 9.84193 218.707C9.71066 220.06 9.57119 221.586 9.53017 223.268C9.47007 225.071 9.5139 226.876 9.66144 228.674C9.81951 230.691 10.1544 232.689 10.6623 234.647V234.721C10.3178 234.171 9.29226 232.678 9.20202 232.571C7.914 231.086 4.54217 228.962 2.50759 229.823C2.1749 229.977 1.87821 230.199 1.63662 230.475C1.39504 230.751 1.21392 231.075 1.10494 231.425C0.995966 231.775 0.961546 232.144 1.0039 232.508C1.04625 232.872 1.16443 233.224 1.35083 233.539C2.1056 234.901 3.90227 235.574 5.35436 235.787C6.99515 236.025 10.4572 235.024 10.7362 234.967C11.3043 236.947 12.0032 238.888 12.8282 240.775C13.304 241.875 13.8208 242.966 14.3459 244.057C14.0341 243.597 13.747 243.187 13.6978 243.13C12.4098 241.645 9.04614 239.52 7.01156 240.382C6.67825 240.534 6.38077 240.755 6.1385 241.03C5.89623 241.305 5.71462 241.628 5.60549 241.977C5.49635 242.327 5.46215 242.696 5.50511 243.06C5.54807 243.424 5.66722 243.775 5.85481 244.09C6.60137 245.46 8.39803 246.132 9.85833 246.346C11.3186 246.559 14.3049 245.763 15.0842 245.525L15.6995 246.781C16.7004 248.774 17.7095 250.759 18.6366 252.737C18.9647 253.434 19.2683 254.131 19.5636 254.829C19.2847 254.418 19.0468 254.074 19.0057 254.008C17.7095 252.515 14.3459 250.399 12.3113 251.26C11.978 251.412 11.6805 251.633 11.4383 251.908C11.196 252.183 11.0144 252.506 10.9052 252.856C10.7961 253.206 10.7619 253.575 10.8049 253.939C10.8478 254.302 10.967 254.653 11.1546 254.968C11.9093 256.338 13.706 257.011 15.1581 257.224C16.6102 257.438 19.3175 256.716 20.2445 256.461C20.5317 257.183 20.8188 257.905 21.0649 258.619C21.2208 259.111 21.4095 259.579 21.5408 260.079C21.672 260.58 21.8115 261.064 21.9427 261.548C22.1725 262.491 22.4104 263.459 22.6073 264.386C22.7549 265.034 22.878 265.65 23.0011 266.265C22.6811 265.568 22.033 264.214 21.9674 264.107C20.9173 262.467 17.8654 259.833 15.7734 260.375C15.4201 260.474 15.0919 260.648 14.8102 260.883C14.5286 261.118 14.2997 261.41 14.1386 261.74C13.9776 262.07 13.8879 262.43 13.8756 262.797C13.8632 263.164 13.9284 263.529 14.067 263.869C14.6002 265.33 16.2738 266.273 17.6767 266.7C19.2272 267.176 22.6647 266.741 23.0913 266.7C23.2964 267.717 23.4851 268.718 23.6492 269.67C24.2316 272.951 24.5844 275.699 24.8059 277.619C24.8469 277.964 24.8798 278.267 24.9126 278.563H18.2674L20.7286 325.891H32.05L34.5112 278.563H28.3254L28.4649 278.276C29.2853 276.503 30.4913 273.96 31.7465 270.851C32.1485 269.866 32.5669 268.808 32.9771 267.725C33.3873 267.807 36.7837 268.496 38.3671 268.144C39.8027 267.815 41.542 267.003 42.1901 265.584C42.353 265.255 42.4448 264.896 42.4594 264.529C42.4741 264.163 42.4112 263.797 42.2749 263.456C42.1387 263.116 41.9321 262.808 41.6687 262.552C41.4052 262.297 41.0909 262.1 40.7462 261.974C38.6542 261.269 35.4629 263.615 34.2897 265.256C34.2241 265.354 33.5842 266.454 33.1986 267.151L33.699 265.814C34.0272 264.903 34.3389 263.984 34.6671 263C34.8147 262.516 34.9624 262.032 35.1019 261.539C35.2413 261.047 35.3644 260.522 35.4957 260.005C35.7828 258.816 36.0125 257.585 36.2176 256.346C37.038 256.642 39.8602 257.626 41.3369 257.528C42.8136 257.429 44.6185 256.88 45.4963 255.575C45.7077 255.276 45.8534 254.935 45.9238 254.575C45.9943 254.215 45.9878 253.845 45.9049 253.487C45.822 253.13 45.6646 252.795 45.4429 252.503C45.2211 252.211 44.9402 251.969 44.6185 251.793C42.6577 250.776 39.1464 252.614 37.7435 254.033C37.6615 254.123 36.7673 255.231 36.2915 255.854C36.4063 255.108 36.5294 254.361 36.6196 253.606C36.8985 251.416 37.1036 249.193 37.3169 246.969C37.3826 246.297 37.4564 245.616 37.5303 244.943C37.8092 245.05 41.1728 246.297 42.8218 246.182C44.2903 246.075 46.1034 245.542 46.9812 244.237C47.1928 243.937 47.3386 243.596 47.409 243.235C47.4795 242.875 47.4732 242.504 47.3903 242.146C47.3074 241.788 47.15 241.452 46.9282 241.159C46.7064 240.866 46.4254 240.624 46.1034 240.447C44.1426 239.438 40.6313 241.268 39.2285 242.687C39.1218 242.793 37.8502 244.393 37.5384 244.82C37.7025 243.327 37.8666 241.842 38.0963 240.382C38.3947 238.415 38.8195 236.469 39.3679 234.557C39.4992 234.606 43.0023 235.927 44.6923 235.812C46.1608 235.705 47.9739 235.164 48.8599 233.859C49.0702 233.559 49.2149 233.217 49.2847 232.857C49.3545 232.497 49.3478 232.126 49.265 231.769C49.1822 231.411 49.0253 231.075 48.8042 230.783C48.5832 230.49 48.3031 230.247 47.9821 230.069C46.0131 229.06 42.5018 230.89 41.099 232.317C40.9923 232.424 39.6141 234.146 39.3925 234.475C39.3925 234.368 39.4418 234.245 39.4828 234.138C40.0803 232.234 40.852 230.388 41.7881 228.625C42.2885 227.641 42.8218 226.73 43.3633 225.852C43.995 226.164 46.8745 227.567 48.4087 227.624C49.9428 227.682 51.7723 227.354 52.7568 226.148C52.9987 225.872 53.1799 225.548 53.2886 225.198C53.3973 224.847 53.4311 224.478 53.3878 224.113C53.3445 223.749 53.225 223.398 53.0371 223.082C52.8493 222.767 52.5972 222.495 52.2974 222.284C50.4597 221.061 46.7597 222.53 45.2173 223.76C45.1353 223.826 44.397 224.581 43.7981 225.171C44.0524 224.786 44.2985 224.351 44.5446 224.006C45.4717 222.612 46.3987 221.398 47.2355 220.323C47.7113 219.724 48.1626 219.182 48.581 218.682C49.4014 218.682 52.4778 218.575 53.8479 217.935C55.218 217.296 56.7029 216.139 57.0228 214.654C57.1347 214.279 57.1605 213.883 57.0983 213.497C57.036 213.111 56.8874 212.743 56.6635 212.422C56.4395 212.101 56.146 211.835 55.8048 211.643C55.4636 211.452 55.0835 211.339 54.6929 211.315ZM30.3928 270.277C29.0638 273.329 27.8414 275.823 26.9718 277.554L26.4877 278.497H26.3401C26.3401 278.152 26.2498 277.783 26.1924 277.373C25.9217 275.429 25.5033 272.656 24.8469 269.358C24.6418 268.316 24.4039 267.208 24.1496 266.076C25.1815 265.666 26.1871 265.192 27.1605 264.657C28.2926 265.888 31.1886 267.315 31.566 267.496C31.1722 268.455 30.7784 269.399 30.3928 270.277Z" fill="#263238"/>
<path d="M43.1263 225.352C43.1263 225.352 43.8318 222.776 43.8564 222.612C44.1272 220.659 43.5037 216.721 41.5183 215.761C41.1839 215.611 40.8216 215.533 40.455 215.532C40.0883 215.531 39.7256 215.607 39.3904 215.756C39.0552 215.904 38.7551 216.122 38.5097 216.394C38.2643 216.667 38.079 216.988 37.966 217.337C37.4328 218.805 38.1055 220.618 38.9095 221.832C39.8447 223.284 43.1263 225.352 43.1263 225.352Z" fill="#263238"/>
<path d="M184.29 347C207.135 347 225.654 341.56 225.654 334.85C225.654 328.139 207.135 322.7 184.29 322.7C161.445 322.7 142.926 328.139 142.926 334.85C142.926 341.56 161.445 347 184.29 347Z" fill="#9468B4"/>
<path opacity="0.5" d="M184.29 347C207.135 347 225.654 341.56 225.654 334.85C225.654 328.139 207.135 322.7 184.29 322.7C161.445 322.7 142.926 328.139 142.926 334.85C142.926 341.56 161.445 347 184.29 347Z" fill="white"/>
<path d="M181.254 141.204C179.354 138.695 176.536 137.043 173.419 136.61C168.382 136.052 164.132 139.522 162.114 141.762C160.096 144.001 161.442 148.325 161.22 149.26C160.999 150.195 158.308 153.059 158.423 153.961C158.537 154.863 159.875 154.962 159.875 154.962C159.875 154.962 160.999 160.229 161.671 161.459C162.344 162.69 164.132 162.911 164.805 162.911C165.291 162.954 165.754 163.139 166.134 163.445L167.176 167.079L182.485 163.584L182.033 158.547C182.033 158.547 185.84 153.51 185.504 148.587C185.382 147.12 184.938 145.698 184.203 144.421C183.468 143.145 182.462 142.047 181.254 141.204Z" fill="white" stroke="#263238" stroke-linecap="round" stroke-linejoin="round"/>
<path d="M178.122 143.329C174.841 143.887 170.287 139.186 167.457 141.204C167.457 141.204 163.65 144.338 163.88 145.79C164.11 147.242 165.89 148.366 165.775 149.703C165.66 151.04 166.226 153.846 166.899 152.616C167.572 151.385 167.236 150.04 168.245 149.703C169.254 149.367 170.706 151.163 170.927 152.837C171.149 154.511 170.812 155.298 171.707 156.529C172.338 157.357 173.15 158.03 174.082 158.497C175.013 158.963 176.039 159.21 177.08 159.22C178.735 159.112 180.38 158.887 182.003 158.547C182.003 158.547 185.809 153.51 185.473 148.587C185.351 147.12 184.907 145.698 184.172 144.421C183.438 143.145 182.431 142.047 181.223 141.204C181.223 141.204 181.371 142.746 178.122 143.329Z" fill="white" stroke="#263238" stroke-linecap="round" stroke-linejoin="round"/>
<path d="M167.375 155.635C167.375 155.635 167.711 158.211 169.278 157.759C170.845 157.308 171.182 155.077 171.182 155.077" stroke="#263238" stroke-linecap="round" stroke-linejoin="round"/>
<path d="M162.567 170.525C163.204 169.473 163.949 168.492 164.791 167.596C166.243 166.029 174.479 162.944 178.286 162.715C182.093 162.485 185.218 165.619 187.007 167.079C187.504 167.41 187.885 167.887 188.098 168.444C188.311 169.001 188.346 169.611 188.196 170.188C183.816 168.837 179.195 168.453 174.652 169.064C170.358 169.624 166.099 170.424 161.895 171.46L162.567 170.525Z" fill="#9468B4" stroke="#263238" stroke-linecap="round" stroke-linejoin="round"/>
<path d="M142.328 236.345C142.328 236.345 143.337 243.253 143.674 244.935C144.01 246.617 146.405 252.056 147.776 250.768C149.146 249.48 149.605 245.107 148.932 242.917C148.26 240.726 147.25 236.69 147.086 236.181C146.922 235.673 142.328 236.345 142.328 236.345Z" fill="white" stroke="#263238" stroke-linecap="round" stroke-linejoin="round"/>
<path d="M140.408 211.815C139.601 214.508 139.114 217.287 138.956 220.093C139.101 224.298 139.548 228.488 140.293 232.629C140.753 235.615 142.754 238.634 144.321 238.56C149.137 238.339 147.349 229.388 148.243 224.236C149.137 219.084 149.884 218.756 150.368 213.046" fill="#9468B4"/>
<path d="M140.408 211.815C139.601 214.508 139.114 217.287 138.956 220.093C139.101 224.298 139.548 228.488 140.293 232.629C140.753 235.615 142.754 238.634 144.321 238.56C149.137 238.339 147.349 229.388 148.243 224.236C149.137 219.084 149.884 218.756 150.368 213.046" stroke="#263238" stroke-linecap="round" stroke-linejoin="round"/>
<path d="M163.585 327.86C162.616 327.855 161.656 328.056 160.771 328.451C159.36 329.099 159.007 329.977 159.483 330.854C159.959 331.732 161.001 333.849 162.707 334.899C164.414 335.949 166.752 336.482 168.097 337.36C169.443 338.238 171.969 337.943 172.855 336.359C173.741 334.776 172.675 331.256 172.675 331.256C170.697 330.767 168.756 330.139 166.867 329.378C164.816 328.451 163.585 327.86 163.585 327.86Z" fill="white" stroke="#263238" stroke-linecap="round" stroke-linejoin="round"/>
<path d="M172.855 336.359C172.923 336.219 172.981 336.074 173.027 335.924C172.477 336.419 171.823 336.784 171.113 336.992C170.403 337.199 169.655 337.244 168.925 337.122C167.752 336.884 165.644 335.424 164.29 334.891C162.742 334.131 161.454 332.929 160.59 331.437C160.18 330.677 159.942 329.837 159.893 328.976C159.6 329.177 159.395 329.483 159.319 329.83C159.243 330.177 159.301 330.54 159.482 330.846C159.95 331.724 161 333.841 162.707 334.891C164.413 335.941 166.751 336.474 168.097 337.352C169.442 338.23 171.969 337.951 172.855 336.359Z" fill="white" stroke="#263238" stroke-linecap="round" stroke-linejoin="round"/>
<path d="M186.121 329.362C186.121 329.362 186.531 332.118 186.531 333.234C186.531 334.35 188.41 336.343 190.346 336.343C192.282 336.343 194.21 335.58 195.031 334.588C195.851 333.595 195.564 330.125 195.564 330.125C195.564 330.125 187.934 331.298 186.121 329.362Z" fill="white" stroke="#263238" stroke-linecap="round" stroke-linejoin="round"/>
<path d="M195.029 334.587C195.267 334.243 195.416 333.846 195.464 333.43C194.529 334.472 192.65 335.99 190.542 335.58C188.919 335.167 187.498 334.186 186.538 332.815C186.538 332.971 186.538 333.11 186.538 333.233C186.538 334.349 188.417 336.343 190.353 336.343C192.289 336.343 194.209 335.58 195.029 334.587Z" fill="white" stroke="#263238" stroke-linecap="round" stroke-linejoin="round"/>
<path d="M153.837 225.696C153.837 225.696 154.28 234.868 154.059 238.822C153.837 242.777 154.395 262.77 154.879 269.374C155.363 275.978 156.782 290.86 157.783 296.898C158.784 302.936 164.084 326.67 164.084 326.67C164.084 326.67 163.009 328.82 163.263 329.714C163.518 330.608 165.675 332.938 168.9 333.299C172.124 333.66 172.747 332.938 173.379 331.502C174.011 330.067 174.273 326.309 174.454 323.988C174.634 321.666 176.57 316.932 175.898 310.664C175.225 304.396 176.455 282.574 176.455 282.574L177.465 267.577C177.465 267.577 178.137 285.929 178.81 288.727C179.483 291.525 184.553 321.731 185.127 323.43C185.701 325.128 185.217 328.172 185.57 328.893C185.923 329.615 186.202 331.215 187.096 331.937C187.99 332.659 191.838 333.012 193.274 332.38C194.709 331.748 195.866 330.953 195.866 330.321C195.866 329.689 196.407 326.744 196.227 325.128C196.046 323.512 195.603 322.174 195.603 321.731C195.603 321.288 196.941 297.456 196.941 290.86C196.941 284.264 196.12 276.864 196.12 276.864C196.12 276.864 198.696 257.396 199.139 249.561C199.532 244.036 199.345 238.484 198.581 232.998C198.138 230.651 197.351 225.614 197.351 225.614C197.351 225.614 187.949 228.526 180.566 228.748C173.182 228.969 170.606 229.527 166.463 228.526C162.32 227.526 156.84 226.065 156.397 225.729C155.954 225.392 153.386 224.129 153.837 225.696Z" fill="#263238" stroke="#263238" stroke-linecap="round" stroke-linejoin="round"/>
<path d="M177.449 267.545L179.353 251.096" stroke="white" stroke-linecap="round" stroke-linejoin="round"/>
<path d="M178.901 254.902L185.095 252.343" stroke="white" stroke-linecap="round" stroke-linejoin="round"/>
<path d="M196.137 276.832L191.485 297.464" stroke="white" stroke-linecap="round" stroke-linejoin="round"/>
<path d="M211.192 169.048C211.192 169.048 212.644 164.7 213.169 163.379C213.694 162.058 214.883 160.614 214.883 158.908C214.883 157.201 214.219 153.37 213.825 154.429C213.449 155.619 213.272 156.864 213.3 158.112C213.324 158.767 213.14 159.413 212.775 159.958C212.775 159.958 211.192 156.537 209.879 156.406C208.566 156.274 208.558 156.668 209.059 157.226C209.72 157.758 210.271 158.412 210.683 159.154C211.006 159.629 211.23 160.165 211.339 160.729C211.339 160.729 209.1 158.227 208.058 158.227C207.016 158.227 206.081 158.752 206.737 159.154C207.365 159.456 208.03 159.676 208.714 159.81L209.641 161.656C209.641 161.656 207.401 160.836 206.737 161.525C206.072 162.214 207.401 162.436 207.401 162.436L208.32 162.567C207.672 163.651 207.269 164.863 207.139 166.119C207.184 167.444 207.316 168.765 207.533 170.073L211.192 169.048Z" fill="white" stroke="#263238" stroke-linecap="round" stroke-linejoin="round"/>
<path d="M208.951 166.808C209.202 165.578 209.601 164.382 210.141 163.248C210.797 162.198 212.38 161.542 213.299 160.483C214.218 159.425 214.751 157.85 215.408 158.506C216.064 159.162 215.539 160.352 214.883 161.279C214.226 162.206 211.987 164.561 211.847 166.677" fill="white"/>
<path d="M208.951 166.808C209.202 165.578 209.601 164.382 210.141 163.248C210.797 162.198 212.38 161.542 213.299 160.483C214.218 159.425 214.751 157.85 215.408 158.506C216.064 159.162 215.539 160.352 214.883 161.279C214.226 162.206 211.987 164.561 211.847 166.677" stroke="#263238" stroke-linecap="round" stroke-linejoin="round"/>
<path d="M206.448 172.863L206.711 168.917C207.562 168.468 208.527 168.283 209.484 168.384C211.19 168.515 211.715 169.204 211.715 169.204L211.846 173.552L206.448 172.863Z" fill="#9468B4" stroke="#263238" stroke-linecap="round" stroke-linejoin="round"/>
<path d="M149.097 215.351C149.325 215.129 149.526 214.882 149.695 214.612C149.695 214.612 149.695 214.694 149.745 214.818C150.565 212.356 152.05 208.796 152.05 208.796C152.05 208.796 152.493 225.581 153.953 227.37C155.077 228.764 157.235 229.158 158.876 229.511C161.074 229.978 163.281 230.438 165.504 230.758C173.224 231.874 180.961 231.422 188.664 230.43C190.912 230.142 194.62 230.29 196.245 228.379C197.072 227.329 197.507 226.023 197.475 224.687C197.475 224.236 198.369 205.547 198.369 205.547C198.369 205.547 207.993 212.709 210.011 212.488C212.029 212.266 213.366 210.469 213.145 205.104C212.923 199.739 212.324 173.429 211.685 172.198C211.045 170.967 207.435 170.746 206.089 172.313C204.744 173.88 204.12 186.883 204.12 186.883C204.12 186.883 199.838 177.572 198.05 174.659C196.261 171.747 185.407 168.285 185.407 168.285C185.407 168.285 178.582 166.045 171.977 167.464C167.127 168.434 162.467 170.185 158.178 172.649C154.823 174.553 148.219 176.341 147.095 178.687C145.971 181.034 141.951 205.883 141.057 209.132C140.794 210.059 140.499 211.085 140.236 212.184C140.349 212.799 140.531 213.399 140.778 213.973" fill="#9468B4"/>
<path d="M149.097 215.351C149.325 215.129 149.526 214.882 149.695 214.612C149.695 214.612 149.695 214.694 149.745 214.818C150.565 212.356 152.05 208.796 152.05 208.796C152.05 208.796 152.493 225.581 153.953 227.37C155.077 228.764 157.235 229.158 158.876 229.511C161.074 229.978 163.281 230.438 165.504 230.758C173.224 231.874 180.961 231.422 188.664 230.43C190.912 230.142 194.62 230.29 196.245 228.379C197.072 227.329 197.507 226.023 197.475 224.687C197.475 224.236 198.369 205.547 198.369 205.547C198.369 205.547 207.993 212.709 210.011 212.488C212.029 212.266 213.366 210.469 213.145 205.104C212.923 199.739 212.324 173.429 211.685 172.198C211.045 170.967 207.435 170.746 206.089 172.313C204.744 173.88 204.12 186.883 204.12 186.883C204.12 186.883 199.838 177.572 198.05 174.659C196.261 171.747 185.407 168.285 185.407 168.285C185.407 168.285 178.582 166.045 171.977 167.464C167.127 168.434 162.467 170.185 158.178 172.649C154.823 174.553 148.219 176.341 147.095 178.687C145.971 181.034 141.951 205.883 141.057 209.132C140.794 210.059 140.499 211.085 140.236 212.184C140.349 212.799 140.531 213.399 140.778 213.973" stroke="#263238" stroke-linecap="round" stroke-linejoin="round"/>
<path d="M189.714 204.752L193.086 201.987" stroke="#263238" stroke-miterlimit="10"/>
<path d="M167.111 223.309L186.989 206.991" stroke="#263238" stroke-miterlimit="10"/>
<path d="M164.396 219.428L172.928 212.455" stroke="#263238" stroke-miterlimit="10"/>
<path d="M149.745 224.4L144.823 233.539C144.428 234.269 144.289 235.109 144.429 235.927L146.988 250.694C146.984 250.748 146.989 250.802 147.005 250.854C147.022 250.905 147.048 250.953 147.082 250.995C147.117 251.036 147.16 251.07 147.207 251.096C147.255 251.121 147.308 251.136 147.362 251.141C147.416 251.146 147.47 251.14 147.521 251.124C147.573 251.108 147.621 251.081 147.662 251.047C147.704 251.012 147.738 250.97 147.763 250.922C147.788 250.874 147.804 250.821 147.809 250.768L152.37 238.503C152.562 237.978 152.63 237.417 152.567 236.862L151.074 224.663C151.091 224.575 151.091 224.486 151.074 224.398C151.056 224.311 151.022 224.228 150.972 224.154C150.923 224.08 150.859 224.017 150.785 223.968C150.711 223.918 150.628 223.884 150.541 223.867C150.364 223.832 150.182 223.869 150.032 223.969C149.883 224.069 149.78 224.224 149.745 224.4Z" fill="#263238" stroke="#263238" stroke-linecap="round" stroke-linejoin="round"/>
<path d="M204.11 186.884L209.066 198.361" stroke="#263238" stroke-linecap="round" stroke-linejoin="round"/>
<path d="M150.582 246.28C151.305 244.798 151.793 243.212 152.026 241.579C152.198 239.462 151.608 239.626 151.099 240.816C150.59 242.005 150.582 246.28 150.582 246.28Z" fill="white" stroke="#263238" stroke-linecap="round" stroke-linejoin="round"/>
<path d="M148.219 250.153C148.219 250.153 150.245 247.798 150.582 246.28C150.918 244.763 151.755 241.735 150.918 242.072C150.081 242.408 149.737 244.09 149.737 244.09C149.599 243.996 149.439 243.939 149.273 243.924C149.107 243.91 148.94 243.938 148.787 244.006C148.635 244.074 148.503 244.18 148.403 244.314C148.304 244.448 148.24 244.605 148.219 244.771C147.882 246.116 148.219 250.153 148.219 250.153Z" fill="white" stroke="#263238" stroke-linecap="round" stroke-linejoin="round"/>
<path d="M149.736 244.089C149.736 244.089 150.319 246.649 149.572 248.347" stroke="#263238" stroke-linecap="round" stroke-linejoin="round"/>
<path d="M198.376 205.547L198.827 190.666" stroke="#263238" stroke-linecap="round" stroke-linejoin="round"/>
<path d="M198.599 200.846L200.395 192.454" stroke="#263238" stroke-linecap="round" stroke-linejoin="round"/>
<path d="M152.05 208.796L151.599 191.896" stroke="#263238" stroke-linecap="round" stroke-linejoin="round"/>
<path d="M94.9981 347.001C117.843 347.001 136.362 341.561 136.362 334.851C136.362 328.14 117.843 322.701 94.9981 322.701C72.1532 322.701 53.6338 328.14 53.6338 334.851C53.6338 341.561 72.1532 347.001 94.9981 347.001Z" fill="#9468B4"/>
<path opacity="0.5" d="M94.9981 347.001C117.843 347.001 136.362 341.561 136.362 334.851C136.362 328.14 117.843 322.701 94.9981 322.701C72.1532 322.701 53.6338 328.14 53.6338 334.851C53.6338 341.561 72.1532 347.001 94.9981 347.001Z" fill="white"/>
<path d="M111.94 166.144C112.015 164.728 111.927 163.307 111.677 161.911C111.275 160.459 110.348 159.532 110.479 158.999C110.611 158.465 112.202 158.867 112.604 159.926C113.006 160.984 113.663 162.838 113.663 162.838V158.736C113.663 158.072 112.071 157.916 111.546 157.284C111.021 156.652 111.406 156.357 111.808 156.357C112.21 156.357 113.794 156.218 114.721 157.013C115.062 157.359 115.322 157.776 115.482 158.234C115.642 158.692 115.699 159.18 115.648 159.663C115.648 160.063 115.604 160.462 115.517 160.853C115.517 160.853 117.633 161.115 118.29 162.576C118.833 164.012 118.928 165.58 118.56 167.071C118.29 168.269 119.217 170.648 119.217 170.648L116.435 172.765C116.435 172.765 114.188 170.386 112.998 169.057C112.288 168.256 111.909 167.214 111.94 166.144Z" fill="white" stroke="#263238" stroke-linecap="round" stroke-linejoin="round"/>
<path d="M119.217 170.641L116.436 172.757C116.436 172.757 131.736 203.932 133.188 205.007C134.64 206.082 136.47 206.336 138.619 203.424C140.768 200.511 140.473 198.657 139.013 195.351C137.553 192.045 119.217 170.641 119.217 170.641Z" fill="#9468B4" stroke="#263238" stroke-linecap="round" stroke-linejoin="round"/>
<path d="M107.36 139.728C107.36 139.728 109.337 144.462 109.337 145.651C109.329 146.767 109.636 147.862 110.223 148.81C110.814 149.794 111.511 150.09 111.109 150.877C110.933 151.269 110.7 151.634 110.42 151.96C110.42 151.96 110.125 156.21 110.125 157.588C110.125 158.966 109.436 159.065 108.156 159.163C107.03 159.179 105.906 159.08 104.801 158.868L104.604 162.617C104.604 162.617 99.8618 162.027 97.9913 162.027H94.3405L94.5374 156.21C93.4412 154.049 92.5167 151.805 91.7727 149.499C91.4089 148.529 91.2617 147.491 91.3413 146.459C91.4209 145.426 91.7254 144.423 92.2334 143.52C92.7415 142.617 93.4408 141.837 94.2823 141.233C95.1239 140.629 96.0874 140.216 97.1052 140.024C100.487 139.389 103.947 139.29 107.36 139.728Z" fill="white" stroke="#263238" stroke-linecap="round" stroke-linejoin="round"/>
<path d="M104.031 151.074C104.031 151.074 106.107 150.483 105.713 148.703C105.319 146.923 104.63 146.143 104.729 145.848C104.827 145.553 106.37 144.954 106.37 143.674C106.37 142.394 104.729 141.705 104.729 141.705C104.729 141.705 112.03 139.433 112.523 137.357C113.015 135.281 112.03 133.214 110.061 133.214C109.067 133.22 108.076 133.319 107.1 133.509C106.706 133.509 104.138 130.646 101.874 131.737C99.6095 132.828 99.4126 134.198 99.4126 134.198C99.4126 134.198 91.1266 134.6 87.9681 137.948C84.8096 141.295 87.4759 149.105 89.6089 151.96C91.7419 154.815 93.4565 157.883 95.4337 158.277C97.4108 158.671 101.062 158.08 102.44 156.21C103.818 154.339 103.129 151.468 103.129 151.468L104.031 151.074Z" fill="#263238" stroke="#263238" stroke-linecap="round" stroke-linejoin="round"/>
<path d="M105.097 151.772C105.097 151.772 103.022 147.629 101.545 148.49C100.068 149.351 101.151 152.74 102.136 153.822C102.281 154.028 102.467 154.202 102.682 154.334C102.896 154.466 103.135 154.553 103.385 154.59C103.634 154.627 103.888 154.613 104.132 154.549C104.375 154.484 104.603 154.371 104.802 154.216" fill="white"/>
<path d="M105.097 151.772C105.097 151.772 103.022 147.629 101.545 148.49C100.068 149.351 101.151 152.74 102.136 153.822C102.281 154.028 102.467 154.202 102.682 154.334C102.896 154.466 103.135 154.553 103.385 154.59C103.634 154.627 103.888 154.613 104.132 154.549C104.375 154.484 104.603 154.371 104.802 154.216" stroke="#263238" stroke-linecap="round" stroke-linejoin="round"/>
<path d="M89.2053 165.874C89.7638 164.442 90.6002 163.134 91.6665 162.026C93.1432 160.746 96.7939 159.86 99.8704 160.451C102.947 161.042 105.4 161.928 105.991 163.314C106.442 164.502 106.804 165.723 107.073 166.965C107.073 166.965 104.219 165.579 98.5906 165.579C95.3396 165.548 92.1055 166.049 89.0166 167.064L89.2053 165.874Z" fill="#9468B4" stroke="#263238" stroke-linecap="round" stroke-linejoin="round"/>
<path d="M76.4336 328.156C76.4336 328.156 72.6844 327.861 71.1093 328.255C69.5341 328.648 69.1321 330.027 69.8294 331.011C70.7448 332.308 71.8013 333.5 72.9797 334.563C73.9642 335.384 77.0817 335.745 78.501 336.434C79.9203 337.123 81.5611 337.722 83.4234 336.434C85.2857 335.146 84.2438 330.322 84.2438 330.322C84.2438 330.322 79.5921 331.11 76.4336 328.156Z" fill="white" stroke="#263238" stroke-linecap="round" stroke-linejoin="round"/>
<path d="M82.15 336.138C80.378 336.434 77.121 335.548 74.2578 334.071C72.2479 333.029 70.525 330.617 69.6882 329.28C69.5472 329.552 69.4855 329.859 69.5102 330.165C69.5348 330.471 69.6448 330.764 69.8277 331.011C70.743 332.308 71.7996 333.499 72.978 334.563C73.9625 335.384 77.08 335.744 78.4993 336.434C79.9186 337.123 81.5594 337.722 83.4217 336.434C83.7145 336.224 83.9466 335.941 84.0944 335.613C83.4611 335.839 82.811 336.015 82.15 336.138Z" fill="white" stroke="#263238" stroke-linecap="round" stroke-linejoin="round"/>
<path d="M114.187 328.156C114.187 328.156 117.936 327.861 119.511 328.255C121.086 328.648 121.488 330.027 120.799 331.011C119.878 332.306 118.819 333.498 117.64 334.563C116.656 335.384 113.498 335.745 112.119 336.434C110.741 337.123 109.059 337.722 107.197 336.434C105.335 335.146 106.376 330.322 106.376 330.322C106.376 330.322 111.028 331.11 114.187 328.156Z" fill="white" stroke="#263238" stroke-linecap="round" stroke-linejoin="round"/>
<path d="M108.468 336.138C110.24 336.434 113.497 335.548 116.36 334.071C118.37 333.029 120.093 330.617 120.93 329.28C121.072 329.552 121.135 329.858 121.112 330.164C121.088 330.47 120.98 330.763 120.798 331.011C119.878 332.306 118.819 333.497 117.64 334.563C116.655 335.384 113.497 335.744 112.119 336.434C110.74 337.123 109.058 337.722 107.196 336.434C106.903 336.224 106.671 335.941 106.523 335.613C107.157 335.838 107.807 336.014 108.468 336.138Z" fill="white" stroke="#263238" stroke-linecap="round" stroke-linejoin="round"/>
<path d="M82.2008 219.158C82.2008 219.158 81.3804 228.339 81.3148 232.482C81.2715 235.154 81.4361 237.826 81.807 240.472L79.8381 278.366C79.8381 278.366 76.8764 302.74 76.8764 307.572C76.8764 312.405 77.2702 325.039 77.2702 325.039C76.8244 325.903 76.4299 326.794 76.0889 327.705C76.0907 328.856 76.1564 330.007 76.2858 331.151C77.8249 332.077 79.5356 332.683 81.3148 332.931C82.0151 333.022 82.7263 332.889 83.3466 332.552C83.967 332.215 84.4647 331.69 84.7686 331.052C85.1142 329.154 85.3443 327.236 85.4578 325.309C85.5008 324.157 85.468 323.003 85.3593 321.855C85.3593 321.855 89.6992 300.64 91.7748 293.437C93.8504 286.234 97.5996 266.692 97.7965 264.132C97.9934 261.573 100.258 249.628 100.258 249.628C100.258 249.628 102.235 271.04 102.719 275.06C103.203 279.08 102.005 290.336 102.005 296.39C102.005 302.445 105.672 325.916 105.672 325.916C105.659 327.152 105.722 328.388 105.861 329.616C106.058 330.437 107.231 333.128 107.231 333.128C107.231 333.128 110.152 333.71 111.522 332.931C112.892 332.151 115.025 330.79 115.222 328.451C115.419 326.113 114.524 321.38 114.336 320.018C114.147 318.656 117.617 292.329 117.617 282.977C117.617 273.624 119.176 253.336 119.176 249.054C119.176 244.771 118.2 230.332 118.2 230.332L116.444 216.492C116.444 216.492 100.217 222.604 82.2008 219.158Z" fill="#263238" stroke="#263238" stroke-linecap="round" stroke-linejoin="round"/>
<path d="M100.257 249.653L98.8955 240.669H95.5811" stroke="white" stroke-linecap="round" stroke-linejoin="round"/>
<path d="M75.7937 171.699C75.7937 171.699 53.4707 205.187 53.8645 206.549C54.2583 207.911 75.6952 219.224 75.6952 219.224L75.4983 214.934L67.2944 204.014L78.7799 191.93L75.7937 171.699Z" fill="#9468B4" stroke="#263238" stroke-linecap="round" stroke-linejoin="round"/>
<path d="M75.4985 214.942L78.5832 213.67L81.8648 216.582C81.8648 216.582 83.0052 218.97 82.1684 219.167L81.348 219.363C81.348 219.363 82.275 221.611 80.8229 222.276C79.3708 222.94 77.246 222.145 76.3189 221.349C75.5574 220.526 74.9315 219.587 74.4648 218.568L75.4985 214.942Z" fill="white" stroke="#263238" stroke-linecap="round" stroke-linejoin="round"/>
<path d="M79.5098 214.72C79.5098 214.72 80.7076 216.049 80.5681 216.705C80.4287 217.361 79.9118 219.617 79.3786 219.749C78.8453 219.88 78.3203 218.822 78.4515 218.428C78.5629 218.036 78.6532 217.639 78.7223 217.238C78.7223 217.238 77.5245 218.165 76.8682 217.632" fill="white"/>
<path d="M79.5098 214.72C79.5098 214.72 80.7076 216.049 80.5681 216.705C80.4287 217.361 79.9118 219.617 79.3786 219.749C78.8453 219.88 78.3203 218.822 78.4515 218.428C78.5629 218.036 78.6532 217.639 78.7223 217.238C78.7223 217.238 77.5245 218.165 76.8682 217.632" stroke="#263238" stroke-linecap="round" stroke-linejoin="round"/>
<path d="M104.703 164.898C101.373 164.363 97.985 164.296 94.6369 164.701C90.3728 165.283 86.2229 166.515 82.3309 168.351C79.8697 169.533 75.8252 171.313 75.8252 171.707C75.8252 172.101 81.568 208.707 81.568 208.707C81.568 208.707 81.568 218.182 82.1586 219.56C82.7493 220.939 84.5296 221.144 88.8695 221.636C95.3878 222.037 101.929 221.84 108.411 221.045C112.259 220.348 115.614 219.757 116.205 217.985C116.796 216.213 116.008 211.471 116.008 211.471L118.018 173.102C116.303 171.057 114.19 169.382 111.808 168.179C109.506 166.946 107.134 165.85 104.703 164.898Z" fill="#9468B4" stroke="#263238" stroke-linecap="round" stroke-linejoin="round"/>
<path d="M137.027 194.563L118.019 173.102L116.689 194.268C116.689 194.268 131.407 206.803 134.738 206.41C138.069 206.016 138.643 203.456 138.643 203.456" fill="#9468B4"/>
<path d="M137.027 194.563L118.019 173.102L116.689 194.268C116.689 194.268 131.407 206.803 134.738 206.41C138.069 206.016 138.643 203.456 138.643 203.456" stroke="#263238" stroke-linecap="round" stroke-linejoin="round"/>
</svg>
