<svg width="72" height="53" viewBox="0 0 72 53" fill="none" xmlns="http://www.w3.org/2000/svg">
<path d="M58.6354 0.0528564H4.29676C2.45723 0.0528564 0.966064 1.54402 0.966064 3.38355V33.9417L44.5725 38.093L61.9661 33.9417V3.38355C61.9661 1.54402 60.4749 0.0528564 58.6354 0.0528564Z" fill="#B9B9BE"/>
<path d="M52.3525 27.165H58.5761V25.3779H53.1894C52.9754 26.0078 52.6935 26.6064 52.3525 27.165Z" fill="#B4D0D5"/>
<path d="M38.9095 50.8861L24.7021 49.1917L28.9245 38.666L34.8312 40.7195L38.9095 50.8861Z" fill="#B4D0D5"/>
<path d="M3.96606 3.81665H58.9661V30.8167H3.96606V3.81665Z" fill="#C5EDFF"/>
<path d="M15.0404 7.89036H11.1495C10.6591 7.89036 10.2615 7.49277 10.2615 7.00237C10.2615 6.51196 10.6591 6.11438 11.1495 6.11438H15.0404C15.5308 6.11438 15.9284 6.51196 15.9284 7.00237C15.9284 7.49277 15.5308 7.89036 15.0404 7.89036Z" fill="#FFD549"/>
<path d="M27.2892 7.89036H23.3982C22.9078 7.89036 22.5103 7.49277 22.5103 7.00237C22.5103 6.51196 22.9078 6.11438 23.3982 6.11438H27.2892C27.7796 6.11438 28.1772 6.51196 28.1772 7.00237C28.1772 7.49277 27.7796 7.89036 27.2892 7.89036Z" fill="#FFD549"/>
<path d="M39.5382 7.89036H35.6473C35.1569 7.89036 34.7593 7.49277 34.7593 7.00237C34.7593 6.51196 35.1569 6.11438 35.6473 6.11438H39.5382C40.0286 6.11438 40.4262 6.51196 40.4262 7.00237C40.4262 7.49277 40.0286 7.89036 39.5382 7.89036Z" fill="#FFD549"/>
<path d="M51.7865 7.89036H47.8956C47.4052 7.89036 47.0076 7.49277 47.0076 7.00237C47.0076 6.51196 47.4052 6.11438 47.8956 6.11438H51.7865C52.2769 6.11438 52.6745 6.51196 52.6745 7.00237C52.6745 7.49277 52.2769 7.89036 51.7865 7.89036Z" fill="#FFD549"/>
<path d="M51.3702 28.5188H11.5662C10.2474 28.5188 9.17847 28.1917 9.17847 27.788V24.4303C9.17847 24.0266 10.2474 23.6995 11.5662 23.6995H51.3698C52.6886 23.6995 53.7575 24.0266 53.7575 24.4303V27.788C53.7579 28.1915 52.6886 28.5188 51.3702 28.5188Z" fill="#FCF5F5"/>
<path d="M41.5041 52.5805H21.4277C21.3567 52.5805 21.2993 52.5229 21.2993 52.4521V51.0087C21.2993 50.0051 22.1128 49.1917 23.1163 49.1917H39.8158C40.8193 49.1917 41.6328 50.0051 41.6328 51.0087V52.4521C41.6326 52.5231 41.575 52.5805 41.5041 52.5805Z" fill="#D0E2E7"/>
<path d="M17.0181 17.8947H9.17173C9.08345 17.8947 9.01196 17.8233 9.01196 17.735V9.88865C9.01196 9.80037 9.08345 9.72888 9.17173 9.72888H17.0181C17.1063 9.72888 17.1778 9.80037 17.1778 9.88865V17.735C17.1777 17.8233 17.1062 17.8947 17.0181 17.8947Z" fill="#91DAFA"/>
<path d="M29.2668 17.8947H21.4205C21.3322 17.8947 21.2607 17.8233 21.2607 17.735V9.88865C21.2607 9.80037 21.3322 9.72888 21.4205 9.72888H29.2668C29.3551 9.72888 29.4266 9.80037 29.4266 9.88865V17.735C29.4265 17.8233 29.355 17.8947 29.2668 17.8947Z" fill="#91DAFA"/>
<path d="M41.5156 17.8947H33.6693C33.581 17.8947 33.5095 17.8233 33.5095 17.735V9.88865C33.5095 9.80037 33.581 9.72888 33.6693 9.72888H41.5156C41.6039 9.72888 41.6754 9.80037 41.6754 9.88865V17.735C41.6753 17.8233 41.6038 17.8947 41.5156 17.8947Z" fill="#91DAFA"/>
<path d="M53.7642 17.8947H45.9178C45.8295 17.8947 45.7581 17.8233 45.7581 17.735V9.88865C45.7581 9.80037 45.8295 9.72888 45.9178 9.72888H53.7642C53.8524 9.72888 53.9239 9.80037 53.9239 9.88865V17.735C53.9239 17.8233 53.8524 17.8947 53.7642 17.8947Z" fill="#91DAFA"/>
<path d="M0.966064 33.9417V37.3887C0.966064 39.2283 2.45723 40.7194 4.29676 40.7194H58.6353C60.4748 40.7194 61.9659 39.2283 61.9659 37.3887V33.9417H0.966064Z" fill="#D0E2E7"/>
<path d="M34.8549 38.2242H28.0771C27.5837 38.2242 27.1836 37.8243 27.1836 37.3307C27.1836 36.8371 27.5837 36.4371 28.0771 36.4371H34.8549C35.3485 36.4371 35.7485 36.8371 35.7485 37.3307C35.7485 37.8243 35.3485 38.2242 34.8549 38.2242Z" fill="#B4D0D5"/>
<path d="M50.6334 21.7772H12.3026C10.5773 21.7772 9.17847 21.5075 9.17847 21.1748C9.17847 20.8421 10.5773 20.5724 12.3026 20.5724H50.6334C52.3587 20.5724 53.7575 20.8421 53.7575 21.1748C53.7575 21.5076 52.3587 21.7772 50.6334 21.7772Z" fill="#91DAFA"/>
<path d="M71.0339 49.367V22.782C71.0339 21.6966 70.154 20.8167 69.0685 20.8167H53.9314C52.846 20.8167 51.9661 21.6966 51.9661 22.782V49.367L61.4999 50.1117L71.0339 49.367Z" fill="#B2E5FB"/>
<path d="M51.9661 49.3671V51.199C51.9661 52.1646 52.7488 52.9473 53.7144 52.9473H69.2857C70.2513 52.9473 71.034 52.1646 71.034 51.199V49.3671H51.9661Z" fill="#B9B9BE"/>
<path d="M68.086 22.782V50.0749L71.0341 49.367V22.782C71.0341 21.6966 70.1542 20.8167 69.0687 20.8167H66.1206C67.2061 20.8167 68.086 21.6966 68.086 22.782Z" fill="#91DAFA"/>
<path d="M68.0857 49.3671V51.199C68.0857 52.1646 67.303 52.9473 66.3374 52.9473H69.2855C70.2511 52.9473 71.0338 52.1646 71.0338 51.199V49.3671H68.0857Z" fill="#A6A6AA"/>
<path d="M66.4142 31.3689H56.5855C56.2598 31.3689 55.9958 31.105 55.9958 30.7793V28.0704C55.9958 27.7448 56.2598 27.4808 56.5855 27.4808H66.4141C66.7398 27.4808 67.0038 27.7448 67.0038 28.0704V30.7793C67.0039 31.1049 66.7398 31.3689 66.4142 31.3689Z" fill="#FCF5F5"/>
<path d="M66.4142 42.0365H56.5855C56.2598 42.0365 55.9958 41.7726 55.9958 41.4469V38.7381C55.9958 38.4124 56.2598 38.1484 56.5855 38.1484H66.4141C66.7398 38.1484 67.0038 38.4124 67.0038 38.7381V41.4469C67.0039 41.7726 66.7398 42.0365 66.4142 42.0365Z" fill="#FFD549"/>
<path d="M66.4144 27.4807H63.4663C63.792 27.4807 64.0559 27.7447 64.0559 28.0703V30.7792C64.0559 31.1049 63.792 31.3688 63.4663 31.3688H66.4144C66.74 31.3688 67.004 31.1049 67.004 30.7792V28.0703C67.004 27.7448 66.7399 27.4807 66.4144 27.4807Z" fill="#EBE1DC"/>
<path d="M66.4144 38.1484H63.4663C63.792 38.1484 64.0559 38.4124 64.0559 38.7381V41.4469C64.0559 41.7726 63.792 42.0365 63.4663 42.0365H66.4144C66.74 42.0365 67.004 41.7726 67.004 41.4469V38.7381C67.004 38.4124 66.7399 38.1484 66.4144 38.1484Z" fill="#FFC400"/>
<path d="M63.1146 24.4377H59.8852C59.4782 24.4377 59.1482 24.1077 59.1482 23.7006C59.1482 23.2936 59.4782 22.9636 59.8852 22.9636H63.1146C63.5217 22.9636 63.8516 23.2936 63.8516 23.7006C63.8516 24.1077 63.5217 24.4377 63.1146 24.4377Z" fill="#FCF5F5"/>
<path d="M66.0215 35.2351H56.979C56.5719 35.2351 56.2419 34.9052 56.2419 34.4981C56.2419 34.0911 56.5719 33.7611 56.979 33.7611H66.0215C66.4285 33.7611 66.7585 34.0911 66.7585 34.4981C66.7585 34.9052 66.4285 35.2351 66.0215 35.2351Z" fill="#91DAFA"/>
<path d="M66.0212 45.9027H56.9787C56.5717 45.9027 56.2417 45.5728 56.2417 45.1657C56.2417 44.7587 56.5717 44.4287 56.9787 44.4287H66.0212C66.4283 44.4287 66.7582 44.7587 66.7582 45.1657C66.7582 45.5728 66.4283 45.9027 66.0212 45.9027Z" fill="#91DAFA"/>
</svg>
