<svg width="62" height="62" viewBox="0 0 62 62" fill="none" xmlns="http://www.w3.org/2000/svg">
<g clip-path="url(#clip0)">
<path fill-rule="evenodd" clip-rule="evenodd" d="M32.9008 53.8804C36.8542 48.0806 37.0628 40.2838 32.8973 34.178C28.3852 38.4364 10.3512 38.7218 3.04564 34.178C1.06539 37.0831 0.022168 40.4892 0.000976562 43.93V44.1527C0.022168 47.5135 1.01586 50.8953 3.04915 53.8769C13.9897 51.9774 18.332 49.7716 32.9008 53.8804Z" fill="#B3E59F"/>
<path fill-rule="evenodd" clip-rule="evenodd" d="M29.2798 30.2813C23.1694 25.4071 14.2797 24.9164 7.55763 29.6204C7.25357 29.8325 6.95652 30.0552 6.6665 30.2849C10.5455 38.7913 24.9162 38.9653 29.2798 30.2813Z" fill="#B3E59F"/>
<path fill-rule="evenodd" clip-rule="evenodd" d="M6.66284 57.7735C9.84531 60.3098 13.781 61.6632 17.7732 61.7085H18.2047C21.7372 61.6668 25.2909 60.6022 28.3886 58.4347C28.6927 58.2225 28.9897 57.9998 29.2763 57.7737C24.8561 50.2726 9.82763 48.8392 6.66284 57.7735Z" fill="#B3E59F"/>
<path fill-rule="evenodd" clip-rule="evenodd" d="M29.2797 30.2813C24.796 26.7047 18.8129 25.4871 13.2896 26.9518C17.6672 27.5606 21.8045 29.749 24.7571 33.35C27.0343 33.3603 28.7315 32.5254 29.2797 30.2813Z" fill="#95D6A4"/>
<path fill-rule="evenodd" clip-rule="evenodd" d="M32.9007 53.8804C36.8541 48.0806 37.0627 40.2838 32.8972 34.178C29.6722 34.1849 27.9997 35.601 27.4763 37.918C29.0993 41.9226 29.1454 46.3167 27.7487 50.2726C28.3073 52.9132 30.2098 53.9257 32.9007 53.8804Z" fill="#95D6A4"/>
<path fill-rule="evenodd" clip-rule="evenodd" d="M29.2762 57.7735C29.2409 55.86 28.1376 54.7258 25.2557 54.9416C24.1489 56.4168 22.7911 57.7492 21.1928 58.8661C19.4035 60.1186 17.4622 61.0023 15.4573 61.5346C16.2246 61.6424 16.9955 61.698 17.7734 61.7085H18.2049C21.7374 61.6668 25.2912 60.6022 28.3889 58.4347C28.6928 58.2225 28.9899 57.9998 29.2762 57.7735Z" fill="#95D6A4"/>
<path fill-rule="evenodd" clip-rule="evenodd" d="M27.3419 31.8748C20.8638 36.4081 12.1508 35.5766 6.66636 30.2848C5.23418 31.4225 4.02494 32.7376 3.04541 34.178C10.3545 41.112 21.8751 42.173 30.4501 36.1716C31.3271 35.5557 32.1404 34.8913 32.8971 34.178C32.8052 34.0457 32.7133 33.9136 32.6177 33.7814C31.6453 32.4384 30.5209 31.2694 29.2796 30.2814C28.6857 30.8519 28.0386 31.3843 27.3419 31.8748Z" fill="#F9F3F1"/>
<path fill-rule="evenodd" clip-rule="evenodd" d="M32.618 33.7814C31.6456 32.4384 30.5211 31.2694 29.2799 30.2814C28.6858 30.8519 28.0387 31.3843 27.3422 31.8749C26.5148 32.4525 25.6485 32.9464 24.7573 33.3501C24.9872 33.6284 25.2065 33.9172 25.4221 34.2129C26.2708 35.3888 26.9567 36.6344 27.4766 37.9182C28.4985 37.4241 29.4922 36.8396 30.4504 36.1717C31.3274 35.5558 32.1406 34.8914 32.8974 34.1781C32.8053 34.0457 32.7134 33.9136 32.618 33.7814Z" fill="#E2D8EC"/>
<path fill-rule="evenodd" clip-rule="evenodd" d="M30.4503 51.8833C21.8753 45.8853 10.3582 46.9429 3.04907 53.8769C3.14098 54.0126 3.23289 54.1449 3.32844 54.277C4.30082 55.6165 5.42529 56.7855 6.66299 57.7735C12.1474 52.4818 20.8639 51.6467 27.342 56.1836C28.0387 56.6707 28.6857 57.203 29.2763 57.7735C30.7085 56.6359 31.9177 55.3208 32.9007 53.8804C32.1441 53.1672 31.3272 52.4992 30.4503 51.8833Z" fill="#F9F3F1"/>
<path fill-rule="evenodd" clip-rule="evenodd" d="M32.9009 53.8804C32.1442 53.1672 31.3273 52.4992 30.4504 51.8834C29.577 51.2746 28.6753 50.7388 27.7488 50.2725C27.1654 51.9251 26.3308 53.5012 25.2559 54.9415C25.9702 55.2964 26.6704 55.7104 27.3422 56.1835C28.0388 56.6705 28.6858 57.2029 29.2764 57.7734C30.7085 56.6359 31.9178 55.3208 32.9009 53.8804Z" fill="#E2D8EC"/>
<path fill-rule="evenodd" clip-rule="evenodd" d="M23.074 20.8841L27.3916 18.4417L27.0097 12.9725L23.2508 11.1599C25.0401 7.55896 23.5267 3.20997 19.8667 1.44955C18.866 0.965959 17.8122 0.729346 16.7655 0.708496H16.4861C13.8095 0.757225 11.2528 2.24624 9.99407 4.7756C9.48487 5.79842 9.24438 6.88046 9.24086 7.9451C9.23735 9.98038 9.76774 8.90883 8.14109 10.1614C7.28532 10.8154 6.56748 11.6679 6.05828 12.6873C4.26549 16.2882 5.78243 20.6371 9.44237 22.401C13.1022 24.1649 17.5223 22.6724 19.3151 19.0715L23.074 20.8841Z" fill="#F9F3F1"/>
<path fill-rule="evenodd" clip-rule="evenodd" d="M61.9992 26.2002C61.9708 23.5422 60.4574 20.9955 57.8655 19.7464C54.2021 17.986 49.7855 19.475 47.9927 23.0759L44.2303 21.2668L40.7827 25.2469L40.2947 29.1783L44.0571 30.9874C42.2643 34.5883 43.7812 38.9373 47.4411 40.7012C51.101 42.4616 55.5211 40.9726 57.3104 37.3717C57.8196 36.3489 58.0636 35.2703 58.0636 34.2022C58.0706 32.1704 57.5367 33.2385 59.1669 31.9894C60.0192 31.3319 60.7405 30.483 61.2461 29.46C61.7482 28.4581 61.9886 27.3969 61.9993 26.3462V26.2002H61.9992Z" fill="#F9F3F1"/>
<path fill-rule="evenodd" clip-rule="evenodd" d="M47.9928 23.076L43.0494 20.6962L41.7305 23.3439L44.4497 24.6521L49.3932 27.0318C51.186 23.4309 55.6025 21.9417 59.2659 23.7023C60.3869 24.245 61.3098 25.0278 61.9922 25.9602C61.8791 23.3892 60.3798 20.9572 57.8656 19.7465C54.2022 17.9859 49.7856 19.475 47.9928 23.076Z" fill="#E2D8EC"/>
<path fill-rule="evenodd" clip-rule="evenodd" d="M23.2507 11.1599C25.04 7.55896 23.5265 3.20997 19.8666 1.44955C18.8659 0.965959 17.8121 0.729346 16.7654 0.708496H16.486C15.0539 0.736375 13.6537 1.17469 12.469 1.96448H12.5644C13.6075 1.98533 14.6613 2.22539 15.662 2.70553C19.3218 4.46941 20.8389 8.81494 19.0461 12.4193L27.6636 16.5699L28.9825 13.9223L23.2507 11.1599Z" fill="#E2D8EC"/>
<path fill-rule="evenodd" clip-rule="evenodd" d="M44.2305 21.2669L36.6915 17.6346L27.0096 12.9725L23.074 20.8842L32.7558 25.5463L40.2948 29.1785L44.2305 21.2669Z" fill="#C6805D"/>
<path fill-rule="evenodd" clip-rule="evenodd" d="M36.6913 17.6346L27.0095 12.9725L25.6941 15.6202L28.4099 16.9284L38.0917 21.5905L42.915 23.9145L44.2304 21.2669L36.6913 17.6346Z" fill="#BA6E4D"/>
</g>
<defs>
<clipPath id="clip0">
<rect width="62" height="61" fill="white" transform="translate(0 0.708496)"/>
</clipPath>
</defs>
</svg>
