<svg width="60" height="63" viewBox="0 0 60 63" fill="none" xmlns="http://www.w3.org/2000/svg">
<path fill-rule="evenodd" clip-rule="evenodd" d="M8.93179 10.465C-1.41482 10.465 -2.99546 23.7716 8.93179 28.3191L15.8343 30.95C18.149 29.691 16.6519 25.9486 13.313 24.6486L10.7104 23.6549C4.84754 21.4236 3.56746 15.4544 8.93179 15.4544H14.2953V10.465H8.93179Z" fill="#FFD05B"/>
<path fill-rule="evenodd" clip-rule="evenodd" d="M51.0679 28.3193C62.9952 23.7717 61.4146 10.4651 51.0679 10.4651H46.952L45.0323 13.0685L46.952 15.4546H51.0679C56.4322 15.4546 55.1521 21.4237 49.2893 23.6551L46.6868 24.6488C43.5977 25.5122 42.6413 27.7578 44.1655 30.9503L51.0679 28.3193Z" fill="#FFD05B"/>
<path fill-rule="evenodd" clip-rule="evenodd" d="M13.7834 26.59L8.96012 24.7547C4.07677 22.8947 1.45654 19.5671 0.777571 16.282C-0.201956 20.4546 2.23445 25.766 8.93178 28.3192L15.8342 30.9501C16.6831 30.3461 16.7767 27.2273 13.7834 26.59Z" fill="#FFC244"/>
<path fill-rule="evenodd" clip-rule="evenodd" d="M59.2504 16.4022C58.5326 19.6449 55.9159 22.9159 51.0927 24.7547L46.2094 26.6147C43.1402 26.9258 43.1402 28.797 44.1655 30.9501L51.068 28.3192C57.7016 25.7907 60.1556 20.5537 59.2504 16.4022Z" fill="#FFC244"/>
<path fill-rule="evenodd" clip-rule="evenodd" d="M27.1392 42.4569H32.8606V50.6255H27.1392V42.4569Z" fill="#FFE077"/>
<path fill-rule="evenodd" clip-rule="evenodd" d="M29.7346 42.4569H32.8605V50.6255H29.7346V42.4569Z" fill="#FFD05B"/>
<path fill-rule="evenodd" clip-rule="evenodd" d="M24.9009 37.828V41.3819C24.9009 42.6124 25.9086 43.6203 27.1392 43.6203H32.8606C34.0912 43.6203 35.0989 42.6124 35.0989 41.3819V37.828H24.9009Z" fill="#FFD05B"/>
<path fill-rule="evenodd" clip-rule="evenodd" d="M35.0988 41.3819V37.828H31.9729V41.3819C31.9729 42.6124 30.9652 43.6203 29.7346 43.6203H32.8605C34.0911 43.6203 35.0988 42.6125 35.0988 41.3819Z" fill="#FFC244"/>
<path fill-rule="evenodd" clip-rule="evenodd" d="M32.8606 49.4656H27.1392H22.0261C20.8203 49.4656 19.8337 50.4521 19.8337 51.6545V58.5394H40.1662V51.6545C40.1662 50.4521 39.1797 49.4656 37.9738 49.4656H32.8606Z" fill="#C6805D"/>
<path fill-rule="evenodd" clip-rule="evenodd" d="M40.1662 51.6545C40.1662 50.4521 39.1797 49.4656 37.9738 49.4656H34.8479C36.0538 49.4656 37.0403 50.4521 37.0403 51.6545V58.5394H39.7843H40.1662V51.6545Z" fill="#BA6E4D"/>
<path fill-rule="evenodd" clip-rule="evenodd" d="M40.1661 57.4186H19.8336H17.0896C15.6893 57.4186 14.5471 58.5607 14.5471 59.9576V61.8636C14.5471 62.2137 14.8335 62.5 15.1801 62.5H44.8196C45.1697 62.5 45.4525 62.2137 45.4525 61.8636V59.9576C45.4525 58.5607 44.3104 57.4186 42.9136 57.4186H40.1661Z" fill="#FFE077"/>
<path fill-rule="evenodd" clip-rule="evenodd" d="M45.4526 59.9576C45.4526 58.5607 44.3104 57.4186 42.9136 57.4186H40.1661H39.7842C41.1845 57.4186 42.3267 58.5607 42.3267 59.9576V61.8636C42.3267 62.2137 42.0403 62.5 41.6937 62.5H44.8196C45.1697 62.5 45.4526 62.2137 45.4526 61.8636V59.9576Z" fill="#FFD05B"/>
<path fill-rule="evenodd" clip-rule="evenodd" d="M13.0479 10.4649V15.4545V21.6605C13.0479 22.6789 13.1362 23.6761 13.313 24.6486C13.7232 26.9366 14.5966 29.0724 15.8343 30.9501C17.9595 34.1716 21.1562 36.6363 24.9009 37.828C26.5134 38.3372 28.2248 38.6131 29.9999 38.6131C31.775 38.6131 33.4864 38.3372 35.0989 37.828C38.8471 36.6363 42.0402 34.1716 44.1654 30.9501C45.403 29.0724 46.2765 26.9366 46.6867 24.6486C46.8635 23.6761 46.9519 22.6789 46.9519 21.6605V15.4545V10.4649V6.19324H13.0479V10.4649Z" fill="#FFE077"/>
<path fill-rule="evenodd" clip-rule="evenodd" d="M47.0262 0.5H12.9736C11.9163 0.538871 11.0605 1.41583 11.0605 2.48376V4.20946C11.0605 5.30209 11.9552 6.19322 13.0478 6.19322H46.952C48.0446 6.19322 48.9393 5.30209 48.9393 4.20946V2.48376C48.9393 1.41583 48.0835 0.538871 47.0262 0.5V0.5Z" fill="#FFD05B"/>
<path fill-rule="evenodd" clip-rule="evenodd" d="M46.9521 6.19324H42.7618V21.6605C42.7618 22.6789 42.6699 23.6761 42.4966 24.6486C42.0828 26.9366 41.2095 29.0724 39.9718 30.9501C37.8466 34.1716 34.6534 36.6363 30.9052 37.828C29.9399 38.1321 28.9356 38.3549 27.9031 38.4858C28.5926 38.5707 29.2892 38.6131 29.9999 38.6131C31.775 38.6131 33.4865 38.3372 35.0989 37.828C38.8472 36.6363 42.0403 34.1716 44.1655 30.9501C45.4031 29.0724 46.2765 26.9366 46.6868 24.6486C46.8636 23.6761 46.952 22.6789 46.952 21.6605C46.9521 16.5049 46.9521 11.349 46.9521 6.19324Z" fill="#FFD05B"/>
<path fill-rule="evenodd" clip-rule="evenodd" d="M48.9393 2.48376C48.9393 1.41583 48.0835 0.538871 47.0263 0.5H42.8359C43.8932 0.538871 44.7455 1.41583 44.7455 2.48376V4.20946C44.7455 5.30209 43.8508 6.19322 42.7617 6.19322H46.952C48.0447 6.19322 48.9393 5.30209 48.9393 4.20946V2.48376Z" fill="#FFC244"/>
<path fill-rule="evenodd" clip-rule="evenodd" d="M40.3605 21.3635C40.3605 27.0885 35.7211 31.7245 29.9997 31.7245C24.2783 31.7245 19.6389 27.0885 19.6389 21.3635C19.6389 15.6419 24.2783 11.0024 29.9997 11.0024C35.7211 11.0024 40.3605 15.6419 40.3605 21.3635Z" fill="#9DC6FB"/>
<path d="M30 18.5225C29.4832 18.5225 29.0645 18.1037 29.0645 17.587V16.5473C29.0645 16.0306 29.4833 15.6117 30 15.6117C30.5167 15.6117 30.9356 16.0306 30.9356 16.5473V17.587C30.9356 18.1037 30.5168 18.5225 30 18.5225Z" fill="#FFE077"/>
<path d="M25.3534 20.5275C25.1139 20.5275 24.8745 20.436 24.6918 20.2534L23.9564 19.5179C23.591 19.1524 23.591 18.5602 23.9565 18.1947C24.3218 17.8294 24.9142 17.8295 25.2797 18.1948L26.0151 18.9304C26.3804 19.2958 26.3804 19.8881 26.015 20.2536C25.8322 20.4362 25.5928 20.5275 25.3534 20.5275Z" fill="#FFE077"/>
<path d="M34.6463 20.5275C34.4069 20.5275 34.1674 20.4362 33.9848 20.2534C33.6193 19.888 33.6193 19.2957 33.9847 18.9302L34.7201 18.1947C35.0855 17.8294 35.6779 17.8293 36.0433 18.1946C36.4087 18.5601 36.4087 19.1523 36.0434 19.5178L35.308 20.2533C35.1253 20.4362 34.8857 20.5275 34.6463 20.5275Z" fill="#FFE077"/>
<path fill-rule="evenodd" clip-rule="evenodd" d="M32.8569 22.9443L31.1772 21.3918C30.7883 21.0276 30.3958 20.8473 29.9997 20.8473C29.936 20.8473 29.8689 20.8508 29.8052 20.8615C29.4764 20.911 29.1476 21.0878 28.8222 21.3918L27.1425 22.9443C26.0711 23.9345 26.0215 26.1834 28.0619 26.1834C28.8363 26.1834 28.9812 25.7661 29.8051 25.7061C29.8652 25.7025 29.9289 25.7025 29.9996 25.7025C31.0003 25.7025 31.1064 26.1834 31.9373 26.1834C33.9779 26.1834 33.9284 23.9343 32.8569 22.9443Z" fill="#FFE077"/>
<path fill-rule="evenodd" clip-rule="evenodd" d="M29.9998 31.7245C35.7213 31.7245 40.3606 27.0885 40.3606 21.3635C40.3606 15.9143 36.1526 11.4444 30.8061 11.0343C35.0034 12.3604 38.0445 16.282 38.0445 20.918C38.0445 26.6395 33.4051 31.279 27.6837 31.279C27.4113 31.279 27.1426 31.2683 26.8774 31.2471C27.864 31.5584 28.9107 31.7245 29.9998 31.7245Z" fill="#80B4FB"/>
<path d="M33.3804 54.3758H26.6194C26.1026 54.3758 25.6838 53.9569 25.6838 53.4402C25.6838 52.9235 26.1027 52.5046 26.6194 52.5046H33.3804C33.8973 52.5046 34.316 52.9235 34.316 53.4402C34.3161 53.9569 33.8973 54.3758 33.3804 54.3758Z" fill="#F9F3F1"/>
</svg>
