<svg width="69" height="72" viewBox="0 0 69 72" fill="none" xmlns="http://www.w3.org/2000/svg">
<path fill-rule="evenodd" clip-rule="evenodd" d="M57.1558 43.3496C63.4531 32.4423 59.7817 18.5116 48.9714 12.1096L48.5255 11.8521C37.5762 5.69126 23.6791 9.47883 17.3818 20.3861C12.2031 29.3559 15.1008 39.3248 16.3946 48.9542L17.0195 53.6056C17.9257 60.3437 22.2795 62.8574 28.5682 60.2732L32.9057 58.4869C41.895 54.7944 51.9771 52.3193 57.1558 43.3496Z" fill="#FF7E92"/>
<path fill-rule="evenodd" clip-rule="evenodd" d="M45.7272 36.2174C48.35 31.6745 46.7945 25.8639 42.2499 23.2401C37.707 20.6173 31.8955 22.1745 29.2727 26.7174C26.6489 31.2619 28.207 37.0717 32.7499 39.6946C37.2946 42.3184 43.1034 40.7619 45.7272 36.2174Z" fill="#F9F3F1"/>
<path fill-rule="evenodd" clip-rule="evenodd" d="M45.7318 36.2101C48.2601 31.831 46.9605 26.3065 42.8617 23.5932C45.6538 26.5399 46.2908 31.1221 44.1294 34.8657C41.5032 39.4143 35.7423 41.003 31.263 38.4168C31.096 38.3204 30.9334 38.2199 30.7753 38.1155C31.3741 38.7487 32.074 39.3043 32.8654 39.7612C37.3464 42.3483 43.1056 40.7587 45.7318 36.2101Z" fill="#E2D8EC"/>
<path fill-rule="evenodd" clip-rule="evenodd" d="M57.1559 43.3496C63.4532 32.4423 59.7818 18.5115 48.9715 12.1096L48.5527 11.8678C57.0352 18.8782 59.4727 31.1888 53.7878 41.0353C51.2166 45.4886 47.4095 48.8264 42.9954 50.6409L29.5376 56.1726L25.2 57.9589C22.7773 58.9544 20.6431 59.1926 18.8833 58.727C20.8926 61.4257 24.2803 62.0359 28.5681 60.2731L32.9057 58.4868L46.3635 52.9552C50.7776 51.1407 54.5848 47.8028 57.1559 43.3496Z" fill="#FF5F7A"/>
</svg>
