<svg width="62" height="62" viewBox="0 0 62 62" fill="none" xmlns="http://www.w3.org/2000/svg">
<g clip-path="url(#clip0)">
<path d="M43.957 60.8149H18.043C16.0366 60.8149 14.4102 59.2148 14.4102 57.2407V5.17627C14.4102 3.20223 16.0366 1.60205 18.043 1.60205H43.957C45.9634 1.60205 47.5898 3.20223 47.5898 5.17627V57.2407C47.5898 59.2148 45.9634 60.8149 43.957 60.8149Z" fill="#F9F3F1"/>
<path d="M36.9189 41.7772C36.9189 50.3906 44.0779 56.0776 47.4358 58.2713C47.5356 57.9448 47.5898 57.5991 47.5898 57.2407V28.4725C41.4774 29.9098 36.9189 35.3293 36.9189 41.7772Z" fill="#F3EAE6"/>
<path d="M43.957 61.7085H18.043C15.539 61.7085 13.502 59.7043 13.502 57.2407V5.17627C13.502 2.71268 15.539 0.708496 18.043 0.708496H43.957C46.461 0.708496 48.498 2.71268 48.498 5.17627V57.2407C48.498 59.7043 46.461 61.7085 43.957 61.7085ZM18.043 2.49561C16.5406 2.49561 15.3184 3.69821 15.3184 5.17627V57.2407C15.3184 58.7188 16.5406 59.9214 18.043 59.9214H43.957C45.4594 59.9214 46.6816 58.7188 46.6816 57.2407V5.17627C46.6816 3.69821 45.4594 2.49561 43.957 2.49561H18.043Z" fill="#9E9797"/>
<path d="M40.1541 54.9515H40.1419C39.6404 54.9515 39.2337 54.5516 39.2337 54.058C39.2337 53.5644 39.6404 53.1644 40.1419 53.1644H40.1541C40.6556 53.1644 41.0623 53.5644 41.0623 54.058C41.0623 54.5516 40.6556 54.9515 40.1541 54.9515ZM36.5091 54.9515H36.497C35.9955 54.9515 35.5888 54.5516 35.5888 54.058C35.5888 53.5644 35.9955 53.1644 36.497 53.1644H36.5091C37.0107 53.1644 37.4173 53.5644 37.4173 54.058C37.4173 54.5516 37.0107 54.9515 36.5091 54.9515ZM32.8642 54.9515H32.8521C32.3505 54.9515 31.9439 54.5516 31.9439 54.058C31.9439 53.5644 32.3505 53.1644 32.8521 53.1644H32.8642C33.3658 53.1644 33.7724 53.5644 33.7724 54.058C33.7724 54.5516 33.3658 54.9515 32.8642 54.9515ZM29.2193 54.9515C28.7177 54.9515 28.305 54.5516 28.305 54.058C28.305 53.5644 28.7056 53.1644 29.2072 53.1644H29.2193C29.7209 53.1644 30.1275 53.5644 30.1275 54.058C30.1275 54.5516 29.7209 54.9515 29.2193 54.9515ZM25.5807 54.8661C25.5367 54.8661 25.4923 54.863 25.4473 54.8564C25.4339 54.8545 25.4207 54.8524 25.4074 54.85C24.9137 54.763 24.585 54.2986 24.6736 53.8129C24.7618 53.3282 25.2317 53.0063 25.7243 53.0903C26.2136 53.168 26.5503 53.6184 26.478 54.1024C26.4116 54.5467 26.0238 54.8661 25.5807 54.8661ZM22.3539 53.3081C22.1277 53.3081 21.9011 53.2255 21.725 53.0591C21.356 52.7249 21.3345 52.1622 21.6742 51.7989C22.0139 51.4358 22.5909 51.4145 22.9601 51.7488L22.983 51.77C23.3448 52.1117 23.3565 52.6774 23.0091 53.0333C22.8309 53.2161 22.5926 53.3081 22.3539 53.3081ZM20.5146 50.2705C20.1051 50.2705 19.7334 49.9961 19.6327 49.5872C19.5076 49.1093 19.8 48.6225 20.2857 48.4995C20.7718 48.3767 21.2667 48.6646 21.3918 49.1423C21.3929 49.1465 21.3969 49.1621 21.398 49.1663C21.5162 49.6458 21.2167 50.1289 20.7293 50.2452C20.6574 50.2623 20.5853 50.2705 20.5146 50.2705ZM20.6631 46.738C20.5639 46.738 20.4631 46.7219 20.3642 46.6879C19.8906 46.5255 19.6404 46.0161 19.8055 45.5501C19.9685 45.0835 20.4865 44.8312 20.9609 44.9916C21.4353 45.1521 21.689 45.6565 21.526 46.1233L21.5208 46.1381C21.3901 46.5068 21.0387 46.738 20.6631 46.738ZM22.7503 43.8589C22.4797 43.8589 22.2118 43.7405 22.0329 43.5139C21.7249 43.1243 21.7963 42.563 22.1921 42.2601L22.2017 42.2527C22.5976 41.9496 23.1681 42.0198 23.4761 42.4093C23.784 42.7989 23.7127 43.3602 23.3168 43.6632L23.3073 43.6706C23.1415 43.7974 22.9452 43.8589 22.7503 43.8589ZM26.094 42.5682C25.6168 42.5682 25.2165 42.2019 25.1882 41.727C25.159 41.2378 25.5355 40.8174 26.031 40.7832C26.5296 40.7434 26.9667 41.1063 27.0102 41.5958C27.0539 42.0872 26.686 42.5204 26.1866 42.5636C26.1778 42.5645 26.157 42.566 26.1481 42.5665C26.13 42.5677 26.1119 42.5682 26.094 42.5682ZM29.751 42.5462H29.7389C29.2373 42.5462 28.8307 42.1463 28.8307 41.6527C28.8307 41.1591 29.2373 40.7591 29.7389 40.7591H29.751C30.2526 40.7591 30.6592 41.1591 30.6592 41.6527C30.6592 42.1463 30.2526 42.5462 29.751 42.5462ZM33.3572 42.2876C32.9675 42.2876 32.6073 42.0388 32.4883 41.6529C32.3429 41.1806 32.6142 40.6818 33.0942 40.5386C33.5735 40.3935 34.0857 40.657 34.2332 41.1287C34.3807 41.6004 34.1156 42.0992 33.6362 42.2442L33.6209 42.2489C33.5331 42.2752 33.4445 42.2876 33.3572 42.2876ZM36.3627 40.3488C36.1555 40.3488 35.9471 40.2795 35.7765 40.1374C35.3936 39.8186 35.3459 39.2549 35.6698 38.8781C35.9939 38.5014 36.5708 38.4498 36.9538 38.7686C37.3367 39.0875 37.3883 39.6467 37.0644 40.0234L37.0566 40.0325C36.8769 40.2412 36.6207 40.3488 36.3627 40.3488ZM37.8069 37.1112C37.7672 37.1112 37.7271 37.1087 37.6867 37.1034C37.1894 37.0386 36.8396 36.5896 36.9055 36.1002C36.9641 35.6102 37.4159 35.2609 37.9135 35.3177C38.4116 35.3754 38.7679 35.82 38.7093 36.3101L38.7061 36.3348C38.6457 36.7841 38.2556 37.1112 37.8069 37.1112ZM37.5044 33.5665C37.124 33.5665 36.7699 33.3298 36.6429 32.9553C36.4733 32.4909 36.72 31.9832 37.192 31.8163C37.6639 31.649 38.1856 31.8947 38.3552 32.3592L38.3661 32.3901C38.5247 32.8583 38.2675 33.3644 37.7916 33.5204C37.6965 33.5516 37.5996 33.5665 37.5044 33.5665ZM35.4025 30.6978C35.2076 30.6978 35.0113 30.6363 34.8456 30.5096L34.836 30.5022C34.44 30.1992 34.3687 29.6378 34.6767 29.2484C34.9846 28.8586 35.5552 28.7886 35.9511 29.0917L35.9607 29.0991C36.3567 29.402 36.428 29.9634 36.1199 30.3529C35.941 30.5794 35.6731 30.6978 35.4025 30.6978ZM32.0524 29.4236C32.0345 29.4236 32.0164 29.4231 31.9983 29.4221C31.9894 29.4215 31.9685 29.4199 31.9598 29.4192C31.4601 29.3758 31.0908 28.9422 31.1349 28.4506C31.179 27.96 31.6183 27.5972 32.1165 27.6389C32.6115 27.6736 32.9875 28.0936 32.9583 28.5826C32.9298 29.0571 32.5295 29.4236 32.0524 29.4236ZM32.0523 28.3864L32.0396 28.5291L32.0523 28.3864Z" fill="#9E9797"/>
<path d="M18.0589 35.2483C14.0794 35.2483 10.479 32.9394 8.89235 29.3699L6.9993 25.111C5.90376 22.6465 5.78557 19.8714 6.66762 17.3262L7.7542 14.191C8.75952 11.2901 11.543 9.33838 14.6745 9.33838H21.4434C24.575 9.33838 27.3583 11.2901 28.3636 14.191L29.4502 17.3262C30.3322 19.8714 30.2141 22.6465 29.1185 25.111L27.2255 29.3699C25.6388 32.9393 22.0384 35.2483 18.0589 35.2483Z" fill="#FED2A4"/>
<path d="M29.4505 17.3261L28.3639 14.191C27.5045 11.7111 25.3451 9.92616 22.7801 9.45996C23.651 10.2499 24.3317 11.2517 24.7311 12.4039L25.8176 15.539C26.6997 18.0842 26.5815 20.8593 25.486 23.3239L23.5929 27.5827C22.0062 31.1522 18.4059 33.4611 14.4264 33.4611C13.5425 33.4611 12.6774 33.3466 11.8489 33.1302C13.5811 34.4736 15.7562 35.2482 18.0592 35.2482C22.0387 35.2482 25.639 32.9394 27.2257 29.3698L29.1188 25.111C30.2142 22.6464 30.3325 19.8712 29.4505 17.3261Z" fill="#FFBD86"/>
<path d="M35.2097 20.3896C35.2097 22.1417 32.9789 22.9548 31.814 21.6239C30.7583 20.4177 29.6739 19.0253 28.6312 17.4345C27.5404 15.7703 26.6713 14.1575 25.9769 12.663C24.9302 10.41 27.6079 8.25773 29.6608 9.7041L34.3228 12.9886C34.8797 13.3809 35.2097 14.0113 35.2097 14.6825V20.3896Z" fill="#D78878"/>
<path d="M34.3229 12.9885L32.248 11.5265C32.3783 11.7994 32.4492 12.0999 32.4492 12.4096V18.1168C32.4492 19.2734 31.4771 20.0203 30.4812 20.0118C30.9271 20.5815 31.3731 21.1199 31.8141 21.6238C32.979 22.9548 35.2098 22.1416 35.2098 20.3895V14.6823C35.2098 14.0112 34.8798 13.3809 34.3229 12.9885Z" fill="#C96E59"/>
<path d="M0.908203 20.3896C0.908203 22.1417 3.13899 22.9548 4.30391 21.6239C5.35961 20.4177 6.444 19.0253 7.48674 17.4345C8.57755 15.7703 9.44664 14.1575 10.141 12.663C11.1877 10.41 8.50998 8.25773 6.45708 9.7041L1.79509 12.9886C1.23818 13.3809 0.908203 14.0113 0.908203 14.6825V20.3896Z" fill="#D78878"/>
<path d="M15.5251 18.6779C15.4134 18.6779 15.2998 18.6574 15.1896 18.6144C14.7746 18.452 14.3377 18.3706 13.8915 18.3749C13.4649 18.3784 13.047 18.4589 12.6499 18.6144C12.1838 18.7972 11.6557 18.5729 11.4703 18.1145C11.2849 17.6558 11.5125 17.1363 11.9785 16.9539C12.5853 16.7165 13.224 16.5933 13.8766 16.5879C14.5598 16.5808 15.227 16.7056 15.8612 16.9539C16.3273 17.1365 16.5547 17.6562 16.3692 18.1146C16.2277 18.4646 15.8862 18.6779 15.5251 18.6779Z" fill="#7A6D79"/>
<path d="M23.8032 18.6779C23.6914 18.6779 23.5779 18.6574 23.4677 18.6144C23.0528 18.452 22.6149 18.3706 22.1695 18.3749C21.7429 18.3784 21.325 18.4589 20.928 18.6144C20.462 18.7972 19.9338 18.5729 19.7484 18.1145C19.563 17.6558 19.7905 17.1363 20.2566 16.9539C20.8634 16.7165 21.5021 16.5933 22.1546 16.5879C22.8379 16.5808 23.5051 16.7056 24.1393 16.9539C24.6053 17.1365 24.8328 17.6562 24.6472 18.1146C24.5058 18.4646 24.1643 18.6779 23.8032 18.6779Z" fill="#7A6D79"/>
<path d="M21.0982 28.4887C20.5966 28.4887 20.19 28.8887 20.19 29.3823C20.19 29.8112 19.831 30.1599 19.3897 30.1599C18.9484 30.1599 18.5894 29.8111 18.5894 29.3823V26.2325C18.5894 25.7389 18.1828 25.339 17.6812 25.339C17.1796 25.339 16.773 25.7389 16.773 26.2325V29.3823C16.773 29.8112 16.4139 30.1599 15.9727 30.1599C15.5313 30.1599 15.1724 29.8111 15.1724 29.3823C15.1724 28.8887 14.7657 28.4887 14.2642 28.4887C13.7626 28.4887 13.356 28.8887 13.356 29.3823C13.356 30.7965 14.5298 31.947 15.9727 31.947C16.6252 31.947 17.2224 31.7111 17.6812 31.3224C18.14 31.711 18.7371 31.947 19.3897 31.947C20.8326 31.947 22.0064 30.7965 22.0064 29.3823C22.0064 28.8887 21.5998 28.4887 21.0982 28.4887Z" fill="#FFBD86"/>
<path d="M16.111 23.8137H19.2512C19.893 23.8137 20.2907 24.497 19.963 25.0368L18.3929 27.6235C18.0721 28.1519 17.2901 28.1519 16.9693 27.6235L15.3992 25.0368C15.0717 24.497 15.4693 23.8137 16.111 23.8137Z" fill="#7A6D79"/>
<path d="M34.711 6.09973H27.2893C25.2829 6.09973 23.6565 4.49955 23.6565 2.52551V1.60205H38.3438V2.52551C38.3438 4.49955 36.7173 6.09973 34.711 6.09973Z" fill="#9E9797"/>
<path d="M61.0919 41.7773C61.0919 49.6676 50.8218 56.1212 50.8218 56.1212C50.8218 56.1212 40.5518 50.7657 40.5518 41.7773C40.5518 36.1967 45.1498 31.6729 50.8218 31.6729C56.4939 31.6729 61.0919 36.1969 61.0919 41.7773Z" fill="#FE76A8"/>
<path d="M53.501 32.0225C55.9089 33.8716 57.4592 36.752 57.4592 39.9902C57.4592 46.861 49.6729 52.6415 47.6604 54.0209C49.4243 55.3918 50.822 56.1213 50.822 56.1213C50.822 56.1213 61.092 49.6675 61.092 41.7773C61.092 37.1089 57.8734 33.1821 53.501 32.0225Z" fill="#FE5694"/>
<path d="M50.822 44.2551C52.7706 44.2551 54.3503 42.7009 54.3503 40.7837C54.3503 38.8665 52.7706 37.3123 50.822 37.3123C48.8734 37.3123 47.2937 38.8665 47.2937 40.7837C47.2937 42.7009 48.8734 44.2551 50.822 44.2551Z" fill="white"/>
</g>
<defs>
<clipPath id="clip0">
<rect width="62" height="61" fill="white" transform="translate(0 0.708496)"/>
</clipPath>
</defs>
</svg>
