<svg width="78" height="57" viewBox="0 0 78 57" fill="none" xmlns="http://www.w3.org/2000/svg">
<path d="M39.0005 16.5571C38.4838 16.5571 38.0649 16.145 38.0649 15.6366V0.986276C38.0649 0.477903 38.4838 0.0657959 39.0005 0.0657959C39.5172 0.0657959 39.9361 0.477903 39.9361 0.986276V15.6366C39.9361 16.145 39.5172 16.5571 39.0005 16.5571Z" fill="#C9F0FE"/>
<path d="M39.7042 15.2277H38.2963C37.4766 15.2277 36.812 15.8815 36.812 16.688V19.1385H41.1885V16.688C41.1885 15.8814 40.524 15.2277 39.7042 15.2277Z" fill="#9BE8FD"/>
<path d="M40.2267 15.3225C40.064 15.2622 39.8884 15.2277 39.7042 15.2277H38.2963C37.4766 15.2277 36.812 15.8815 36.812 16.688V19.1385H39.265V16.688C39.265 16.0627 39.6652 15.5306 40.2267 15.3225Z" fill="#62DDFC"/>
<path d="M65.9153 21.8928H52.8393C52.0475 21.8928 51.2821 21.6282 50.6534 21.1545C47.4229 18.7204 43.3834 17.2739 39.0001 17.2739C34.6169 17.2739 30.5774 18.7204 27.3469 21.1545C26.7182 21.6282 25.9529 21.8928 25.1609 21.8928H12.085C11.1222 21.8928 10.3345 22.6679 10.3345 23.6151V50.5928C10.3345 51.5401 11.1222 52.3152 12.085 52.3152H25.1609C25.9528 52.3152 26.7182 52.5798 27.3469 53.0536C30.5774 55.4877 34.6169 56.9342 39.0001 56.9342C43.3834 56.9342 47.4229 55.4877 50.6534 53.0536C51.2821 52.5799 52.0474 52.3152 52.8393 52.3152H65.9153C66.8781 52.3152 67.6658 51.5402 67.6658 50.5928C67.6658 49.6127 67.6658 25.5036 67.6658 23.6151C67.6659 22.6678 66.8781 21.8928 65.9153 21.8928Z" fill="#FF7F87"/>
<path d="M75.9153 21.8928H52.8393C52.0475 21.8928 51.2821 21.6282 50.6534 21.1545C47.4229 18.7204 43.3834 17.2739 39.0001 17.2739C34.6169 17.2739 30.5773 18.7204 27.3469 21.1545C26.7182 21.6282 25.9529 21.8928 25.1609 21.8928H2.085C1.12219 21.8928 0.334473 22.6679 0.334473 23.6151V50.5928C0.334473 51.5401 1.12219 52.3152 2.085 52.3152H25.1609C25.9528 52.3152 26.7182 52.5798 27.3469 53.0536C30.5773 55.4877 34.6169 56.9342 39.0001 56.9342C43.3834 56.9342 47.4229 55.4877 50.6534 53.0536C51.2821 52.5799 52.0474 52.3152 52.8393 52.3152H75.9153C76.8781 52.3152 77.6658 51.5402 77.6658 50.5928C77.6658 49.6127 77.6658 25.5036 77.6658 23.6151C77.6659 22.6678 76.8781 21.8928 75.9153 21.8928Z" fill="#FF7F87"/>
<path d="M4.70063 50.5931V23.6152C4.70063 22.668 5.48834 21.8929 6.45116 21.8929H2.085C1.12219 21.8929 0.334473 22.6681 0.334473 23.6152V50.593C0.334473 51.5402 1.12219 52.3154 2.085 52.3154H6.45116C5.48834 52.3154 4.70063 51.5404 4.70063 50.5931Z" fill="#FF636E"/>
<path d="M39.0001 52.9127C47.874 52.9127 55.0677 45.835 55.0677 37.1042C55.0677 28.3734 47.874 21.2957 39.0001 21.2957C30.1261 21.2957 22.9324 28.3734 22.9324 37.1042C22.9324 45.835 30.1261 52.9127 39.0001 52.9127Z" fill="#FF636E"/>
<path d="M19.1958 45.38V31.7167H24.4406C25.4567 31.7167 26.3831 31.8148 27.2199 32.011C28.0567 32.2072 28.7216 32.5505 29.2147 33.041C29.7078 33.5315 29.9544 34.2252 29.9544 35.122C29.9544 35.7106 29.79 36.2992 29.4613 36.8877C29.1325 37.4623 28.6843 37.8547 28.1164 38.0649V38.149C28.8187 38.3311 29.409 38.6815 29.8871 39.2C30.3802 39.7185 30.6268 40.4332 30.6268 41.3441C30.6268 42.283 30.3653 43.0537 29.8423 43.6563C29.3193 44.2449 28.6245 44.6793 27.7578 44.9596C26.8912 45.2398 25.9348 45.38 24.8889 45.38H19.1958ZM23.051 37.0559H24.3509C24.9785 37.0559 25.4417 36.9298 25.7406 36.6775C26.0394 36.4253 26.1889 36.089 26.1889 35.6686C26.1889 35.2481 26.0394 34.9469 25.7406 34.7647C25.4417 34.5825 24.9785 34.4914 24.3509 34.4914H23.051V37.0559ZM23.051 42.6053H24.6199C26.1142 42.6053 26.8613 42.1008 26.8613 41.0918C26.8613 40.5873 26.6745 40.23 26.3009 40.0198C25.9423 39.8096 25.382 39.7045 24.6199 39.7045H23.051V42.6053Z" fill="#D0545D"/>
<path d="M39.0611 45.6322C37.7163 45.6322 36.5359 45.3519 35.5198 44.7914C34.5037 44.2168 33.7117 43.397 33.1439 42.332C32.5761 41.267 32.2922 39.9847 32.2922 38.4853C32.2922 36.9858 32.5761 35.7176 33.1439 34.6806C33.7117 33.6296 34.5037 32.8308 35.5198 32.2843C36.5359 31.7377 37.7163 31.4645 39.0611 31.4645C40.406 31.4645 41.5864 31.7377 42.6025 32.2843C43.6186 32.8308 44.4105 33.6296 44.9784 34.6806C45.5462 35.7176 45.8301 36.9858 45.8301 38.4853C45.8301 39.9847 45.5462 41.267 44.9784 42.332C44.4105 43.397 43.6186 44.2168 42.6025 44.7914C41.5864 45.3519 40.406 45.6322 39.0611 45.6322ZM39.0611 42.5212C39.9428 42.5212 40.6301 42.1568 41.1232 41.4281C41.6313 40.6994 41.8853 39.7185 41.8853 38.4853C41.8853 37.2381 41.6313 36.2781 41.1232 35.6055C40.6301 34.9188 39.9428 34.5755 39.0611 34.5755C38.1945 34.5755 37.5071 34.9188 36.9991 35.6055C36.491 36.2781 36.237 37.2381 36.237 38.4853C36.237 39.7185 36.491 40.6994 36.9991 41.4281C37.5071 42.1568 38.1945 42.5212 39.0611 42.5212Z" fill="#D0545D"/>
<path d="M50.556 45.38V40.6714L46.163 31.7167H50.2871L51.3629 34.5755C51.5422 35.094 51.7215 35.5985 51.9009 36.089C52.0802 36.5794 52.2669 37.0909 52.4612 37.6234H52.5509C52.7451 37.0909 52.9319 36.5794 53.1112 36.089C53.3054 35.5985 53.4997 35.094 53.694 34.5755L54.7698 31.7167H58.8043L54.4112 40.6714V45.38H50.556Z" fill="#D0545D"/>
<path d="M20.427 44.38V30.7167H25.3458C26.2987 30.7167 27.1675 30.8148 27.9523 31.011C28.7371 31.2072 29.3607 31.5505 29.8231 32.041C30.2856 32.5315 30.5168 33.2252 30.5168 34.122C30.5168 34.7106 30.3626 35.2992 30.0543 35.8877C29.746 36.4623 29.3256 36.8547 28.7931 37.0649V37.149C29.4518 37.3311 30.0053 37.6815 30.4537 38.2C30.9162 38.7185 31.1474 39.4332 31.1474 40.3441C31.1474 41.283 30.9022 42.0537 30.4117 42.6563C29.9212 43.2449 29.2696 43.6793 28.4568 43.9596C27.644 44.2398 26.7471 44.38 25.7662 44.38H20.427ZM24.0425 36.0559H25.2617C25.8503 36.0559 26.2847 35.9298 26.565 35.6775C26.8452 35.4253 26.9854 35.089 26.9854 34.6686C26.9854 34.2481 26.8452 33.9469 26.565 33.7647C26.2847 33.5825 25.8503 33.4914 25.2617 33.4914H24.0425V36.0559ZM24.0425 41.6053H25.5139C26.9153 41.6053 27.616 41.1008 27.616 40.0918C27.616 39.5873 27.4408 39.23 27.0905 39.0198C26.7541 38.8096 26.2286 38.7045 25.5139 38.7045H24.0425V41.6053Z" fill="white"/>
<path d="M39.0575 44.6322C37.7962 44.6322 36.6892 44.3519 35.7362 43.7914C34.7833 43.2168 34.0406 42.397 33.5081 41.332C32.9756 40.267 32.7093 38.9847 32.7093 37.4853C32.7093 35.9858 32.9756 34.7176 33.5081 33.6806C34.0406 32.6296 34.7833 31.8308 35.7362 31.2843C36.6892 30.7377 37.7962 30.4645 39.0575 30.4645C40.3187 30.4645 41.4258 30.7377 42.3787 31.2843C43.3316 31.8308 44.0743 32.6296 44.6068 33.6806C45.1394 34.7176 45.4056 35.9858 45.4056 37.4853C45.4056 38.9847 45.1394 40.267 44.6068 41.332C44.0743 42.397 43.3316 43.2168 42.3787 43.7914C41.4258 44.3519 40.3187 44.6322 39.0575 44.6322ZM39.0575 41.5212C39.8843 41.5212 40.5289 41.1568 40.9913 40.4281C41.4678 39.6994 41.706 38.7185 41.706 37.4853C41.706 36.2381 41.4678 35.2781 40.9913 34.6055C40.5289 33.9188 39.8843 33.5755 39.0575 33.5755C38.2447 33.5755 37.6001 33.9188 37.1236 34.6055C36.6471 35.2781 36.4089 36.2381 36.4089 37.4853C36.4089 38.7185 36.6471 39.6994 37.1236 40.4281C37.6001 41.1568 38.2447 41.5212 39.0575 41.5212Z" fill="white"/>
<path d="M49.8378 44.38V39.6714L45.7178 30.7167H49.5856L50.5945 33.5755C50.7627 34.094 50.9309 34.5985 51.099 35.089C51.2672 35.5794 51.4424 36.0909 51.6245 36.6234H51.7086C51.8908 36.0909 52.066 35.5794 52.2341 35.089C52.4163 34.5985 52.5985 34.094 52.7807 33.5755L53.7896 30.7167H57.5733L53.4533 39.6714V44.38H49.8378Z" fill="white"/>
</svg>
