<svg width="61" height="62" viewBox="0 0 61 62" fill="none" xmlns="http://www.w3.org/2000/svg">
<g clip-path="url(#clip0)">
<path d="M36.3096 41.1268L25.5806 41.3046L23.3035 51.5518L31.2218 55.899L38.8936 46.1602L36.3096 41.1268Z" fill="#FFD18D"/>
<path d="M22.7503 47.9865C24.8259 47.2541 26.2914 45.4138 26.5764 43.2731C26.6187 42.9553 26.7527 42.6569 26.9906 42.4419C27.2899 42.1712 27.6968 42.0661 28.0943 42.1347C28.8764 42.2698 29.6791 42.3434 30.5 42.3434C32.567 42.3434 34.5295 41.905 36.3096 41.1268V37.5021H24.6905V42.5079C24.6905 44.15 23.655 45.6135 22.1064 46.1601L22.7503 47.9865Z" fill="#FBBD80"/>
<path d="M48.894 49.6897L39.4301 46.3495L33.5565 48.3578C33.2636 48.7374 33.027 49.1607 32.8566 49.615L31.4068 53.4814C31.0926 54.319 29.9078 54.319 29.5936 53.4814L28.1438 49.615C27.974 49.1622 27.7384 48.7403 27.4469 48.3617L22.1067 46.6842L12.1064 50.2137C9.78374 51.0334 8.81274 53.2289 8.81274 55.6919V58.8036L10.1669 61.5431C10.4698 61.6501 10.7956 61.7084 11.1352 61.7084H42.1192L44.0557 60.4144L45.9923 61.7085H49.8653C51.4695 61.7085 52.77 60.408 52.77 58.8037V55.1679C52.77 52.7049 51.2167 50.5094 48.894 49.6897Z" fill="#77CC7D"/>
<path d="M12.751 51.5158L22.7513 47.9865L22.1064 46.1602L12.1062 49.6897C9.78346 50.5094 8.23022 52.7049 8.23022 55.168V58.8037C8.23022 60.0666 9.0411 61.1432 10.1667 61.5432V55.168C10.1667 53.5289 11.205 52.061 12.751 51.5158Z" fill="#52BD7E"/>
<path d="M26.2962 47.2868L22.4464 44.7203C22.0624 44.4642 21.551 44.5149 21.2246 44.8412L18.8811 47.1847L21.2441 51.9109C21.5217 52.4661 22.2429 52.6204 22.7233 52.2272L27.4467 48.3617C27.1263 47.9452 26.7388 47.5819 26.2962 47.2868Z" fill="#9AE59C"/>
<path d="M34.7091 47.2868L38.5589 44.7203C38.9429 44.4642 39.4543 44.5149 39.7807 44.8412L42.1242 47.1847L39.7611 51.9109C39.4835 52.4661 38.7624 52.6204 38.282 52.2272L33.5564 48.3579C33.8769 47.9413 34.2665 47.5819 34.7091 47.2868Z" fill="#9AE59C"/>
<path d="M43.623 34.0331L37.2266 35.0943V41.9771C37.2266 43.6193 38.262 45.0828 39.8106 45.6294L41.7441 46.3118C42.5184 46.5851 43.0361 47.3169 43.0361 48.1379L44.0558 61.7085H45.9923C45.9923 53.9624 48.8971 52.0259 48.8971 46.2164C48.8971 39.9363 45.0715 38.1109 43.623 34.0331Z" fill="#D48C64"/>
<path d="M41.4713 45.0161L39.5382 44.334C38.7639 44.0608 38.2461 43.3291 38.2461 42.5079V41.1182C38.2461 40.5153 38.5141 39.9316 39.0025 39.578C40.9714 38.1524 42.5687 36.2469 43.6228 34.033C43.2845 33.0809 43.0749 32.0072 43.0749 30.7243H43.0874L44.0556 29.7561V26.8513H36.3096V42.5079C36.3096 44.1501 37.3451 45.6137 38.8936 46.1602L40.827 46.8425C41.6013 47.1158 42.1191 47.8476 42.1191 48.6687V61.7085H44.0556V48.6681C44.0556 47.026 43.0199 45.5625 41.4713 45.0161Z" fill="#C6805D"/>
<path d="M30.5001 40.289C23.5484 40.289 18.9822 34.7715 18.9822 27.8197V12.3276H43.0874V27.8197C43.0874 34.1071 38.4776 39.3179 32.4534 40.2563C31.8168 40.3555 31.1644 40.289 30.5001 40.289Z" fill="#FFE09C"/>
<path d="M37.0887 12.3276H16.2134L17.9128 27.8197C17.9128 34.7715 23.5484 40.4071 30.5001 40.4071C31.1604 40.4071 31.8206 40.3544 32.4534 40.2565C26.4235 39.3229 21.7859 34.1113 21.7859 27.8199V26.3785C21.7859 25.1149 22.6106 24.0186 23.808 23.6149C29.6257 21.6534 34.4108 17.5879 37.0887 12.3276Z" fill="#FFD18D"/>
<path d="M37.2778 5.5498L33.4048 13.2959C35.0672 15.3572 38.526 18.1558 41.2392 20.2138C42.4068 21.0993 43.0873 22.4812 43.0873 23.9467H45.0239V13.2959C45.0239 9.01787 41.5558 5.5498 37.2778 5.5498Z" fill="#D48C64"/>
<path d="M24.6904 26.8514C24.1552 26.8514 23.7222 26.4179 23.7222 25.8832V24.9149C23.7222 24.3802 24.1552 23.9467 24.6904 23.9467C25.2256 23.9467 25.6587 24.3802 25.6587 24.9149V25.8832C25.6587 26.4179 25.2256 26.8514 24.6904 26.8514Z" fill="#4E3D4D"/>
<path d="M25.6589 22.9784H23.7224C23.1872 22.9784 22.7542 22.5448 22.7542 22.0101C22.7542 21.4754 23.1872 21.0419 23.7224 21.0419H25.6589C26.1941 21.0419 26.6272 21.4754 26.6272 22.0101C26.6272 22.5448 26.1941 22.9784 25.6589 22.9784Z" fill="#C6805D"/>
<path d="M16.9443 22.9784C27.2451 22.5182 35.8438 15.1038 37.2777 5.54993H34.1918L32.8098 6.25798L32.2148 5.54993H23.7221C19.4441 5.54993 15.9761 9.01799 15.9761 13.296V22.9784H16.9443Z" fill="#C6805D"/>
<path d="M36.3098 26.8514C35.7746 26.8514 35.3416 26.4179 35.3416 25.8832V24.9149C35.3416 24.3802 35.7746 23.9467 36.3098 23.9467C36.845 23.9467 37.2781 24.3802 37.2781 24.9149V25.8832C37.2781 26.4179 36.845 26.8514 36.3098 26.8514Z" fill="#4E3D4D"/>
<path d="M37.2778 22.9784H35.3413C34.8061 22.9784 34.373 22.5448 34.373 22.0101C34.373 21.4754 34.8061 21.0419 35.3413 21.0419H37.2778C37.813 21.0419 38.2461 21.4754 38.2461 22.0101C38.2461 22.5448 37.813 22.9784 37.2778 22.9784Z" fill="#D48C64"/>
<path d="M26.5867 30.7244C26.0852 30.7244 25.7702 31.2443 25.9754 31.7018C26.7399 33.4067 28.4779 34.5974 30.5002 34.5974C32.5225 34.5974 34.2607 33.4067 35.0251 31.7018C35.2302 31.2442 34.9152 30.7244 34.4138 30.7244H26.5867Z" fill="white"/>
<path d="M49.8652 23.9466H47.9287V13.2958C47.9287 7.4229 43.1508 2.64501 37.2779 2.64501H23.7223C17.8494 2.64501 13.0715 7.4229 13.0715 13.2958V23.9466H11.135V13.2958C11.135 6.35493 16.7819 0.708496 23.7223 0.708496H37.2779C44.2183 0.708496 49.8652 6.35493 49.8652 13.2958V23.9466Z" fill="#B8B2B8"/>
<path d="M48.8969 22.9784H45.0239V30.7244H48.8969C49.9665 30.7244 50.8335 29.8575 50.8335 28.7879L48.8969 22.9784Z" fill="#52BD7E"/>
<path d="M50.8335 28.7879V24.9149C50.8335 23.8454 49.9665 22.9784 48.897 22.9784V26.8514C48.897 27.9208 49.764 28.7879 50.8335 28.7879Z" fill="#77CC7D"/>
<path d="M22.7541 39.4385H19.8493C15.5782 39.4385 12.1033 35.9636 12.1033 31.6925V29.7561H14.0398V31.6926C14.0398 34.8962 16.6457 37.5021 19.8493 37.5021H22.7541V39.4385Z" fill="#B8B2B8"/>
<path d="M24.6904 36.5338H23.7222C22.6526 36.5338 21.7856 37.4008 21.7856 38.4703C21.7856 39.5398 22.6526 40.4068 23.7222 40.4068H24.6904C25.7599 40.4068 26.6269 39.5398 26.6269 38.4703C26.6269 37.4009 25.7599 36.5338 24.6904 36.5338Z" fill="#615260"/>
<path d="M12.1033 22.9784L10.1667 28.7879C10.1667 29.8575 11.0337 30.7244 12.1033 30.7244H15.9763V22.9784H12.1033Z" fill="#52BD7E"/>
<path d="M10.1667 28.7879V24.9149C10.1667 23.8454 11.0337 22.9784 12.1033 22.9784V26.8514C12.1033 27.9208 11.2363 28.7879 10.1667 28.7879Z" fill="#77CC7D"/>
<path d="M16.9446 30.7244H15.9763C15.4416 30.7244 15.0081 30.2909 15.0081 29.7562V22.9784C15.0081 22.4437 15.4416 22.0101 15.9763 22.0101H16.9446C17.4793 22.0101 17.9128 22.4437 17.9128 22.9784V29.7562C17.9128 30.2909 17.4794 30.7244 16.9446 30.7244Z" fill="#615260"/>
<path d="M17.9128 29.7562C16.8433 29.7562 15.9763 28.8892 15.9763 27.8197V22.0101H15.0081C14.4733 22.0101 14.0398 22.4437 14.0398 22.9784V30.7244C14.0398 31.2591 14.4733 31.6927 15.0081 31.6927H16.9446C17.4793 31.6927 17.9128 31.2591 17.9128 30.7244V29.7562Z" fill="#4E3D4D"/>
<path d="M45.9922 30.7244H45.0239C44.4892 30.7244 44.0557 30.2909 44.0557 29.7562V22.9784C44.0557 22.4437 44.4892 22.0101 45.0239 22.0101H45.9922C46.5269 22.0101 46.9604 22.4437 46.9604 22.9784V29.7562C46.9604 30.2909 46.5269 30.7244 45.9922 30.7244Z" fill="#615260"/>
<path d="M46.9604 29.7562C45.8909 29.7562 45.0239 28.8892 45.0239 27.8197V22.0101H44.0557C43.521 22.0101 43.0874 22.4437 43.0874 22.9784V30.7244C43.0874 31.2591 43.521 31.6927 44.0557 31.6927H45.9922C46.5269 31.6927 46.9604 31.2591 46.9604 30.7244V29.7562Z" fill="#4E3D4D"/>
<path d="M32.215 5.5498C30.7102 11.8556 25.7945 16.7501 19.6706 17.8983C19.1448 17.9965 18.7988 18.5029 18.8981 19.0282C18.9851 19.4939 19.3917 19.8182 19.8483 19.8182C19.907 19.8182 19.9675 19.813 20.028 19.8016C27.0473 18.4855 32.6411 12.8061 34.192 5.5498H32.215Z" fill="#D48C64"/>
</g>
<defs>
<clipPath id="clip0">
<rect width="61" height="61" fill="white" transform="translate(0 0.708496)"/>
</clipPath>
</defs>
</svg>
