<svg width="62" height="55" viewBox="0 0 62 55" fill="none" xmlns="http://www.w3.org/2000/svg">
<path d="M31 0.0571289C14.1556 0.0571289 0.5 6.23941 0.5 13.8663L0.521874 14.8557L1.25301 18.5607H2.30805C6.54964 13.245 17.7949 9.44504 31 9.44504C44.2051 9.44504 55.4504 13.245 59.6919 18.5607H60.747L61.4781 14.8557L61.5 13.8663C61.5 6.23941 47.8444 0.0571289 31 0.0571289Z" fill="#D74A6C"/>
<path d="M61.5 23.2541C61.5 30.881 47.8444 37.0647 31 37.0647C14.1556 37.0647 0.5 30.881 0.5 23.2541V13.8662C0.5 15.5146 1.13805 17.0951 2.30805 18.5606C6.55104 23.8764 17.7959 27.6763 31 27.6763C44.2041 27.6763 55.449 23.8764 59.6919 18.5606C60.8619 17.0951 61.5 15.5146 61.5 13.8662V23.2541Z" fill="#E1738C"/>
<path d="M31.0001 29.536C27.8531 29.536 25.293 32.0961 25.293 35.2431V36.8222C27.142 36.9809 29.0492 37.0647 31.0001 37.0647C32.951 37.0647 34.8582 36.9809 36.7072 36.8222V35.2431C36.7072 32.0961 34.1471 29.536 31.0001 29.536Z" fill="#D74A6C"/>
<path d="M33.6389 44.0968V35.2431C33.6389 33.786 32.4573 32.6044 31.0001 32.6044C29.543 32.6044 28.3613 33.786 28.3613 35.2431V44.0968H33.6389Z" fill="#EEE07D"/>
<path d="M28.3613 39.4498H33.6389V44.0968H28.3613V39.4498Z" fill="#E1BA68"/>
<path d="M45.2536 47.073C46.4418 46.2152 47.1803 44.7725 47.0435 43.1664C46.8657 41.0861 45.1866 39.4023 43.1072 39.2199C41.2992 39.0612 39.6964 40.0106 38.901 41.465C38.3295 42.5088 37.2074 43.1315 36.0174 43.1315H25.9826C24.7926 43.1315 23.6706 42.5088 23.0991 41.465C22.3037 40.0106 20.7004 39.0612 18.8928 39.2199C16.813 39.4023 15.1339 41.0861 14.9565 43.1664C14.8192 44.7725 15.5578 46.2152 16.7464 47.073C15.5578 47.9302 14.8197 49.3729 14.9565 50.979C15.1339 53.0593 16.813 54.7431 18.8928 54.9255C20.7004 55.0842 22.3032 54.1348 23.0991 52.6805C23.6706 51.6366 24.7926 51.0139 25.9826 51.0139H36.0174C37.2074 51.0139 38.3295 51.6366 38.901 52.6805C39.6964 54.1348 41.2992 55.0842 43.1072 54.9255C45.1866 54.7431 46.8657 53.0593 47.0435 50.979C47.1803 49.3729 46.4422 47.9302 45.2536 47.073Z" fill="#EEE07D"/>
<path d="M18.0247 50.979C17.9214 49.7671 18.3165 48.6483 19.0267 47.8041C19.3846 47.3787 19.3846 46.7667 19.0267 46.3418C18.3165 45.4971 17.9214 44.3783 18.0247 43.1664C18.1685 41.484 19.2943 40.0613 20.8199 39.4819C20.2283 39.2585 19.5754 39.1599 18.8931 39.2199C16.7835 39.4051 15.1086 41.1057 14.9522 43.2176C14.8349 44.8032 15.5702 46.2241 16.7463 47.0729C15.5577 47.9302 14.8195 49.3729 14.9564 50.979C15.1337 53.0593 16.8128 54.7431 18.8927 54.9255C19.5749 54.9856 20.2283 54.8869 20.8199 54.6635C19.2943 54.0841 18.1685 52.6614 18.0247 50.979Z" fill="#E1BA68"/>
<path d="M24.6315 48.2621C24.1228 48.2621 23.7109 47.8497 23.7109 47.3415V46.1887C23.7109 45.6805 24.1228 45.2682 24.6315 45.2682C25.1397 45.2682 25.5516 45.6805 25.5516 46.1887V47.3415C25.5516 47.8497 25.1397 48.2621 24.6315 48.2621Z" fill="#424952"/>
<path d="M37.3683 48.2621C36.8601 48.2621 36.4482 47.8497 36.4482 47.3415V46.1887C36.4482 45.6805 36.8601 45.2682 37.3683 45.2682C37.877 45.2682 38.2889 45.6805 38.2889 46.1887V47.3415C38.2889 47.8497 37.877 48.2621 37.3683 48.2621Z" fill="#424952"/>
<path d="M30.9999 48.8773C30.1217 48.8773 29.296 48.5092 28.7348 47.8669C28.4002 47.4844 28.4393 46.9027 28.8223 46.568C29.2048 46.2334 29.7866 46.2725 30.1207 46.6555C30.3325 46.8971 30.6527 47.0362 30.9999 47.0362C31.347 47.0362 31.6672 46.8971 31.8785 46.6555C32.2131 46.2725 32.7949 46.2334 33.1774 46.568C33.5604 46.9027 33.5995 47.4844 33.2649 47.8669C32.7037 48.5092 31.878 48.8773 30.9999 48.8773Z" fill="#424952"/>
<path d="M42.7829 31.5628C42.7829 32.4666 42.0499 33.1992 41.1461 33.1992C40.2423 33.1992 39.5098 32.4666 39.5098 31.5628C39.5098 30.659 40.2423 29.9265 41.1461 29.9265C42.0499 29.9265 42.7829 30.659 42.7829 31.5628Z" fill="#E9E9E9"/>
<path d="M54.0634 28.2898C54.0634 29.1936 53.3304 29.9261 52.4266 29.9261C51.5228 29.9261 50.7903 29.1936 50.7903 28.2898C50.7903 27.386 51.5228 26.6534 52.4266 26.6534C53.3304 26.6534 54.0634 27.386 54.0634 28.2898Z" fill="#E9E9E9"/>
<path d="M22.4904 31.5628C22.4904 32.4666 21.7579 33.1992 20.8541 33.1992C19.9503 33.1992 19.2173 32.4666 19.2173 31.5628C19.2173 30.659 19.9503 29.9265 20.8541 29.9265C21.7579 29.9265 22.4904 30.659 22.4904 31.5628Z" fill="#E9E9E9"/>
<path d="M11.2096 28.2898C11.2096 29.1936 10.4771 29.9261 9.57331 29.9261C8.66952 29.9261 7.93652 29.1936 7.93652 28.2898C7.93652 27.386 8.66952 26.6534 9.57331 26.6534C10.4771 26.6534 11.2096 27.386 11.2096 28.2898Z" fill="#E9E9E9"/>
</svg>
