<svg width="61" height="62" viewBox="0 0 61 62" fill="none" xmlns="http://www.w3.org/2000/svg">
<g clip-path="url(#clip0)">
<path d="M16.0324 57.152C13.5799 57.152 11.8851 55.6796 10.9772 54.2015C10.0699 52.7235 9.88638 50.9132 10.4787 49.2834C11.0413 47.8669 10.9295 46.272 10.1735 44.9483C10.0625 44.7637 9.84897 44.6662 9.63642 44.7024C5.61078 45.3881 2.60927 48.8332 2.51979 52.9423C2.42734 57.172 5.57456 61.7085 14.1901 61.7085L16.0324 57.152Z" fill="#EA8857"/>
<path d="M52.0382 60.1743V61.0979C52.0382 61.4359 51.7654 61.7085 51.427 61.7085H14.1908C13.8524 61.7085 13.5796 61.4359 13.5796 61.0979V60.1719C13.5796 58.0963 15.2654 56.4133 17.3456 56.4133H19.2531L17.9675 49.5243C17.4088 46.5321 18.7634 43.6078 21.1927 42.0403C21.8754 41.5999 22.645 41.2655 23.4802 41.0678L24.8146 40.9524H40.8688L42.1376 41.0678C43.0038 41.2725 43.7996 41.6248 44.5026 42.0914C46.883 43.6696 48.2043 46.563 47.6514 49.5242L46.3659 56.4132H48.2734C50.3524 56.4133 52.0382 58.0974 52.0382 60.1743Z" fill="#F7AA74"/>
<path d="M52.0382 60.1743V61.0979C52.0382 61.4359 51.7654 61.7085 51.427 61.7085H49.0073C49.2384 61.6811 49.4183 61.4835 49.4183 61.2455V60.1755C49.4183 58.0974 47.7324 56.4133 45.6522 56.4133H43.7448L45.0303 49.5197C45.57 46.6298 44.3274 43.8043 42.0578 42.1999C41.3131 41.6738 40.4577 41.2799 39.5177 41.0574L39.0757 40.9526H40.8688L42.1376 41.0681C43.0038 41.2728 43.7996 41.6251 44.5025 42.0916C46.883 43.6699 48.2042 46.5632 47.6514 49.5244L46.3659 56.4134H48.2733C50.3523 56.4133 52.0382 58.0974 52.0382 60.1743Z" fill="#EA8857"/>
<path d="M44.5025 42.0915C41.244 44.8075 37.1706 46.2881 32.8767 46.2881C28.5639 46.2881 24.4618 44.7885 21.1926 42.0403C21.8753 41.5999 22.645 41.2655 23.4801 41.0678L24.8145 40.9524H40.8687L42.1375 41.0678C43.0037 41.2726 43.7996 41.6249 44.5025 42.0915Z" fill="#EA8857"/>
<path d="M41.064 40.6978V61.4108C41.064 61.5751 40.9306 61.7083 40.7661 61.7083H38.1141C36.4866 61.7083 35.163 60.3872 35.163 58.7626V49.7075C35.163 48.4114 34.1074 47.3581 32.8087 47.3581C31.5101 47.3581 30.4545 48.4114 30.4545 49.7075V58.7626C30.4545 60.3872 29.1309 61.7083 27.5046 61.7083H24.8525C24.6869 61.7083 24.5547 61.575 24.5547 61.4108V40.6085C24.5547 40.5288 24.5857 40.4526 24.6417 40.3967C24.6977 40.3408 24.7787 40.311 24.8537 40.311L40.7673 40.4003C40.9318 40.4015 41.064 40.5348 41.064 40.6978Z" fill="#FFC599"/>
<path d="M41.064 40.6978V44.3505C38.5561 45.618 35.767 46.2882 32.8767 46.2882C29.9386 46.2882 27.0995 45.5931 24.5547 44.2803V40.6085C24.5547 40.5288 24.5857 40.4526 24.6417 40.3967C24.6977 40.3408 24.7787 40.311 24.8537 40.311L40.7673 40.4003C40.9318 40.4015 41.064 40.5348 41.064 40.6978Z" fill="#F7AA74"/>
<path d="M50.5776 6.78657V29.8539C50.5776 31.2179 50.0462 32.4997 49.08 33.4637L43.5733 38.9149C40.7091 41.7511 36.9097 43.3127 32.8768 43.3127C28.9106 43.3127 25.1577 41.7964 22.3091 39.0422L16.5486 33.4732C16.545 33.4709 16.5415 33.4673 16.5379 33.4637C15.5728 32.4996 15.0403 31.2178 15.0403 29.8539V7.00198C15.0403 6.66279 15.2333 6.35219 15.5371 6.20219L22.6379 2.68516C22.6593 2.67444 22.6808 2.66371 22.7034 2.65537H22.7046C29.2204 0.060729 36.3974 0.0595378 42.9144 2.6518C42.9299 2.65895 42.9466 2.6649 42.9609 2.67205L50.0617 5.97725C50.3762 6.12368 50.5776 6.43904 50.5776 6.78657Z" fill="#FFC599"/>
<path d="M50.5774 6.78657V29.8539C50.5774 31.2179 50.0461 32.4997 49.0798 33.4637L43.5732 38.9149C42.7868 39.6932 41.9314 40.3753 41.0188 40.9549C38.6062 42.4903 35.8028 43.3127 32.8767 43.3127V20.3001C32.8767 20.3001 34.1384 11.2759 31.0015 9.2871C28.7735 7.87433 26.8494 10.0845 24.7716 8.69437C22.3364 7.065 22.2923 4.53219 22.7033 2.65525H22.7045C29.2203 0.0606069 36.3973 0.0594155 42.9143 2.65168C42.9298 2.65883 42.9465 2.66478 42.9608 2.67193L47.2058 4.64764L50.0616 5.97713C50.3761 6.12367 50.5774 6.43904 50.5774 6.78657Z" fill="#FFECE1"/>
<path d="M50.0616 5.97732L47.2058 4.64783V28.3674C47.2058 29.7315 46.199 31.894 45.2602 33.6686C44.0581 35.9419 41.0188 40.955 41.0188 40.955C41.9314 40.3754 42.7868 39.6934 43.5732 38.9149L49.0799 33.4638C50.0461 32.4997 50.5775 31.2178 50.5775 29.8539V6.78664C50.5775 6.43911 50.3761 6.12374 50.0616 5.97732Z" fill="#FFD2BB"/>
<path d="M29.5286 31.0633V32.2926C29.5286 34.0996 31.0002 35.5697 32.8091 35.5697C34.618 35.5697 36.0896 34.0996 36.0896 32.2926V31.0633L32.8091 29.873L29.5286 31.0633Z" fill="#FF6248"/>
<path d="M25.3462 16.8256C25.3462 16.0039 26.0161 15.3354 26.8395 15.3354C27.6629 15.3354 28.3329 16.0039 28.3329 16.8256C28.3329 17.3186 28.733 17.7182 29.2265 17.7182C29.72 17.7182 30.12 17.3185 30.12 16.8256C30.12 15.0195 28.6484 13.55 26.8395 13.55C25.0306 13.55 23.5591 15.0194 23.5591 16.8256C23.5591 17.3186 23.9592 17.7182 24.4526 17.7182C24.9461 17.7182 25.3462 17.3186 25.3462 16.8256Z" fill="#EA8857"/>
<path d="M38.7783 13.55C36.9694 13.55 35.4978 15.0194 35.4978 16.8256C35.4978 17.3186 35.8979 17.7182 36.3914 17.7182C36.8848 17.7182 37.2849 17.3185 37.2849 16.8256C37.2849 16.0039 37.9548 15.3354 38.7783 15.3354C39.6018 15.3354 40.2718 16.0039 40.2718 16.8256C40.2718 17.3186 40.6718 17.7182 41.1653 17.7182C41.6588 17.7182 42.0589 17.3185 42.0589 16.8256C42.0589 15.0195 40.5873 13.55 38.7783 13.55Z" fill="#EA8857"/>
<path d="M39.9657 27.7257C39.4722 27.7257 39.0721 28.1254 39.0721 28.6183C39.0721 29.44 38.4022 30.1085 37.5787 30.1085H35.1959C34.3724 30.1085 33.7024 29.44 33.7024 28.6183V23.8634C33.7024 23.3704 33.3024 22.9708 32.8089 22.9708C32.3154 22.9708 31.9153 23.3705 31.9153 23.8634V28.6183C31.9153 29.44 31.2454 30.1085 30.4219 30.1085H28.0391C27.2156 30.1085 26.5457 29.44 26.5457 28.6183C26.5457 28.1253 26.1456 27.7257 25.6521 27.7257C25.1586 27.7257 24.7585 28.1254 24.7585 28.6183C24.7585 30.4244 26.2302 31.8939 28.0391 31.8939H30.4219C31.3616 31.8939 32.2102 31.4972 32.8089 30.8629C33.4076 31.4972 34.2562 31.8939 35.1959 31.8939H37.5787C39.3876 31.8939 40.8592 30.4245 40.8592 28.6183C40.8592 28.1253 40.4591 27.7257 39.9657 27.7257Z" fill="#EA8857"/>
<path d="M36.4628 20.6868C36.4151 20.486 36.2664 20.324 36.0702 20.2592C33.9673 19.5645 31.6509 19.5644 29.5479 20.2592C29.3516 20.324 29.2029 20.4858 29.1553 20.6868C29.1075 20.8878 29.1676 21.0991 29.3136 21.2451L32.3877 24.3162C32.4994 24.4278 32.6509 24.4905 32.809 24.4905C32.9671 24.4905 33.1185 24.4278 33.2302 24.3162L36.3044 21.2451C36.4505 21.0991 36.5105 20.8878 36.4628 20.6868Z" fill="#4A555B"/>
<path d="M21.5088 0.792833C21.1021 0.770911 20.643 0.764835 20.126 0.77806C14.5023 0.923054 2.42382 9.90673 9.08879 16.4969C15.7543 23.087 9.85522 28.0398 12.9341 29.0153C16.9173 30.2773 19.6077 14.7261 19.7141 9.13589C19.7706 6.17882 21.1041 4.57364 22.3481 3.7175C23.6027 2.85361 23.0305 0.875279 21.5088 0.792833Z" fill="#EA8857"/>
<path d="M45.4921 0.777083C44.9751 0.763859 44.516 0.769935 44.1093 0.791857C42.5876 0.874302 42.0154 2.85275 43.2703 3.7164C44.5141 4.57267 45.8478 6.17785 45.9041 9.1348C46.0106 14.725 48.7009 30.2763 52.6842 29.0142C55.7629 28.0387 49.8638 23.0859 56.5293 16.4958C63.1943 9.90576 51.1157 0.922077 45.4921 0.777083Z" fill="#EA8857"/>
<path d="M29.1536 28.2525C29.6471 28.2525 30.0471 27.8529 30.0471 27.3599C30.0471 26.8669 29.6471 26.4673 29.1536 26.4673C28.6601 26.4673 28.26 26.8669 28.26 27.3599C28.26 27.8529 28.6601 28.2525 29.1536 28.2525Z" fill="#F7AA74"/>
<path d="M36.4641 28.2532C36.9576 28.2532 37.3577 27.8536 37.3577 27.3606C37.3577 26.8676 36.9576 26.468 36.4641 26.468C35.9706 26.468 35.5706 26.8676 35.5706 27.3606C35.5706 27.8536 35.9706 28.2532 36.4641 28.2532Z" fill="#F7AA74"/>
</g>
<defs>
<clipPath id="clip0">
<rect width="61" height="61" fill="white" transform="translate(0 0.708496)"/>
</clipPath>
</defs>
</svg>
