<svg width="62" height="61" viewBox="0 0 62 61" fill="none" xmlns="http://www.w3.org/2000/svg">
<path fill-rule="evenodd" clip-rule="evenodd" d="M8.32422 10.3087C5.97622 10.3087 4.05615 12.2014 4.05615 14.5115V20.106H21.4183C20.3434 18.2726 19.7281 13.9862 19.7281 12.4832C19.7281 10.9767 19.7918 11.015 19.9191 10.3087H8.32422Z" fill="#FFE077"/>
<path fill-rule="evenodd" clip-rule="evenodd" d="M53.9963 10.3087H42.0797C42.1221 10.5522 42.1574 10.7958 42.1858 11.0393C42.3095 12.0691 42.2989 13.0954 42.1646 14.1044C41.9454 15.757 41.4009 18.7038 40.591 20.0886C40.5875 20.0955 40.584 20.0991 40.5803 20.106H58.2644V14.5115C58.2642 12.2014 56.3442 10.3087 53.9963 10.3087Z" fill="#FFE077"/>
<path fill-rule="evenodd" clip-rule="evenodd" d="M59.9335 22.1796H30.9975H2.06519V58.895C2.06519 60.0535 3.02703 60.9999 4.20455 60.9999H57.794C58.9715 60.9999 59.9333 60.0535 59.9333 58.895V22.1796H59.9335Z" fill="#F9F3F1"/>
<path fill-rule="evenodd" clip-rule="evenodd" d="M27.175 32.3212V53.6415C27.175 54.8557 28.1828 55.8507 29.417 55.8507H52.4546C53.6886 55.8507 54.7 54.8556 54.7 53.6415V32.3212C54.7 31.107 53.6886 30.1155 52.4546 30.1155H29.4169C28.1828 30.1155 27.175 31.1071 27.175 32.3212Z" fill="#9DC6FB"/>
<path fill-rule="evenodd" clip-rule="evenodd" d="M20.6935 36.0789H8.55057C7.86107 36.0789 7.29883 36.632 7.29883 37.307V61H21.9418V37.307C21.9417 36.632 21.3795 36.0789 20.6935 36.0789Z" fill="#E29A6C"/>
<path fill-rule="evenodd" clip-rule="evenodd" d="M30.9975 22.1796H2.06519V27.8331H30.4246H51.9771C56.0649 27.8331 56.0649 30.0459 56.0649 34.3635V58.895C56.0649 60.0535 55.103 60.9999 53.929 60.9999H57.794C58.9715 60.9999 59.9333 60.0535 59.9333 58.895V22.1796H56.0649H30.9975Z" fill="#E2D8EC"/>
<path fill-rule="evenodd" clip-rule="evenodd" d="M14.5652 10.3087C14.4415 11.015 14.3743 10.9767 14.3743 12.4832C14.3743 13.9861 14.9895 16.8808 16.0645 18.7143L18.0306 20.106L20.0037 18.7143C18.9287 16.8809 18.3099 14.7516 18.3099 12.4832C18.3099 11.7421 18.3771 11.015 18.5044 10.3087H14.5652Z" fill="#FFD05B"/>
<path fill-rule="evenodd" clip-rule="evenodd" d="M20.0045 18.7144H4.05669H1.62028C0.750344 18.7144 0.0361328 19.4172 0.0361328 20.2731V23.4043C0.0361328 24.2637 0.750465 24.9665 1.62028 24.9665H2.06579H30.9981H59.9341H60.3796C61.2494 24.9665 61.9637 24.2637 61.9637 23.4043V20.273C61.9637 19.4171 61.2494 18.7143 60.3796 18.7143H58.265H41.9954C43.0703 16.8808 43.6891 14.7515 43.6891 12.4831C43.6891 11.742 43.6219 11.0149 43.4946 10.3086C42.4515 4.44978 37.2535 0 30.9981 0C24.7463 0 19.5482 4.44978 18.5051 10.3088C18.3778 11.015 18.3106 11.7421 18.3106 12.4832C18.3106 14.7516 18.9294 16.8808 20.0045 18.7144Z" fill="#FF7E92"/>
<path fill-rule="evenodd" clip-rule="evenodd" d="M54.884 20.273V22.1796V23.4042C54.884 24.2636 54.1733 24.9664 53.2998 24.9664H59.9336H60.3791C61.2489 24.9664 61.9632 24.2636 61.9632 23.4042V20.273C61.9632 19.417 61.2489 18.7142 60.3791 18.7142H58.2645H53.2998C54.1733 18.7144 54.884 19.4172 54.884 20.273Z" fill="#FF5F7A"/>
<path fill-rule="evenodd" clip-rule="evenodd" d="M43.6886 12.4832C43.6886 14.7516 43.0698 16.8808 41.9949 18.7143H45.9341C47.009 16.8809 47.6243 14.7516 47.6243 12.4832C47.6243 11.7421 47.5571 11.015 47.4333 10.3087H43.4941C43.6214 11.015 43.6886 11.7421 43.6886 12.4832Z" fill="#FFD05B"/>
<path fill-rule="evenodd" clip-rule="evenodd" d="M52.4547 30.1155H29.417C28.1829 30.1155 27.175 31.1071 27.175 32.3212V33.626H48.6639C49.8979 33.626 50.9058 34.6176 50.9058 35.8317V55.8508H52.4546C53.6886 55.8508 54.7 54.8558 54.7 53.6416V32.3214C54.7001 31.1071 53.6888 30.1155 52.4547 30.1155Z" fill="#80B4FB"/>
<path fill-rule="evenodd" clip-rule="evenodd" d="M20.6935 36.0789H8.55057C7.86107 36.0789 7.29883 36.632 7.29883 37.307V38.7056H18.0592C18.7487 38.7056 19.311 39.2587 19.311 39.9337V61H21.9418V37.307C21.9417 36.632 21.3795 36.0789 20.6935 36.0789Z" fill="#C6805D"/>
<path d="M17.1112 50.9148C16.5951 50.9148 16.1768 50.5032 16.1768 49.9954V47.0799C16.1768 46.5722 16.5951 46.1605 17.1112 46.1605C17.6273 46.1605 18.0457 46.5722 18.0457 47.0799V49.9954C18.0457 50.5032 17.6273 50.9148 17.1112 50.9148Z" fill="#615260"/>
<path d="M30.9997 9.10946C30.4836 9.10946 30.0652 8.69783 30.0652 8.19005V6.85056C30.0652 6.34278 30.4836 5.93115 30.9997 5.93115C31.5158 5.93115 31.9342 6.34278 31.9342 6.85056V8.19005C31.9342 8.69783 31.5158 9.10946 30.9997 9.10946Z" fill="#FFE077"/>
<path d="M24.9176 11.691C24.6785 11.691 24.4393 11.6011 24.2568 11.4217L23.295 10.4754C22.93 10.1163 22.93 9.53417 23.295 9.17508C23.66 8.81599 24.2516 8.81599 24.6166 9.17508L25.5784 10.1214C25.9434 10.4805 25.9434 11.0626 25.5784 11.4217C25.396 11.6011 25.1568 11.691 24.9176 11.691Z" fill="#FFE077"/>
<path d="M37.082 11.6909C36.8428 11.6909 36.6037 11.6012 36.4212 11.4216C36.0562 11.0625 36.0562 10.4804 36.4212 10.1213L37.3829 9.175C37.748 8.81591 38.3396 8.81579 38.7045 9.175C39.0695 9.53409 39.0695 10.1162 38.7045 10.4753L37.7428 11.4216C37.5603 11.6011 37.3212 11.6909 37.082 11.6909Z" fill="#FFE077"/>
<path fill-rule="evenodd" clip-rule="evenodd" d="M35.3739 15.2248L32.8032 12.8833C32.2056 12.3371 31.6044 12.0658 30.9997 12.0658C30.9007 12.0658 30.7982 12.0727 30.6992 12.0866C30.197 12.1631 29.6949 12.4276 29.1927 12.8833L26.622 15.2248C24.9813 16.7209 24.9035 20.106 28.0329 20.106C29.2174 20.106 29.4367 19.4762 30.6992 19.3928C30.7946 19.3859 30.8936 19.3823 30.9997 19.3823C32.5308 19.3823 32.6934 20.106 33.9665 20.106C37.0924 20.1061 37.0147 16.7209 35.3739 15.2248Z" fill="#FFE077"/>
</svg>
