<svg width="17" height="21" viewBox="0 0 17 21" fill="none" xmlns="http://www.w3.org/2000/svg">
<path d="M13.6416 10.6409C13.6515 9.87399 13.856 9.12202 14.2359 8.45498C14.6159 7.78794 15.1589 7.22752 15.8146 6.82585C15.3981 6.23293 14.8486 5.74498 14.2097 5.40074C13.5708 5.05649 12.8602 4.86545 12.1343 4.84279C10.586 4.68108 9.0846 5.7662 8.29588 5.7662C7.4917 5.7662 6.27503 4.85878 4.96743 4.88602C4.12188 4.91389 3.29797 5.1594 2.57587 5.59866C1.85376 6.03792 1.25804 6.65598 0.846686 7.39269C-0.936412 10.4698 0.39378 14.9915 2.10199 17.4786C2.95669 18.6964 3.95522 20.0569 5.26223 20.0083C6.54131 19.9556 7.01858 19.1957 8.56275 19.1957C10.092 19.1957 10.5402 20.0083 11.874 19.9775C13.2463 19.9556 14.1112 18.7544 14.9355 17.5248C15.5498 16.6566 16.0224 15.697 16.3359 14.6817C15.5383 14.3461 14.8576 13.784 14.3785 13.0654C13.8994 12.3469 13.6431 11.5037 13.6416 10.6409Z" fill="#BEBEBE"/>
<path d="M11.1232 3.20737C11.8715 2.31221 12.2401 1.16165 12.1509 0C11.0077 0.119739 9.95168 0.664308 9.19333 1.5252C8.82255 1.94579 8.53858 2.43507 8.35766 2.96509C8.17674 3.4951 8.10241 4.05545 8.13892 4.61411C8.71074 4.61989 9.27642 4.49629 9.79335 4.25262C10.3103 4.00894 10.765 3.65156 11.1232 3.20737Z" fill="#BEBEBE"/>
</svg>
