<svg width="210" height="62" viewBox="0 0 210 62" fill="none" xmlns="http://www.w3.org/2000/svg">
<rect width="210" height="62" rx="10" fill="white"/>
<path d="M27.95 45.1705L14 43.1555V31.3755H27.95V45.1705ZM27.95 30.2905H14V19.1305L27.95 17.1155V30.2905ZM47.015 47.8055L29.035 45.1705V31.3755H47.015V47.8055ZM47.015 30.2905H29.035V17.1155L47.015 14.4805V30.2905Z" fill="#223344"/>
<path d="M71.0389 23.315C70.4189 23.625 69.024 23.935 67.474 23.935C65.769 23.935 64.219 23.47 63.134 22.385C62.204 21.455 61.584 19.905 61.584 18.045C61.584 14.635 63.909 12 67.784 12C69.179 12 70.109 12.31 70.729 12.465L70.419 13.705C69.799 13.395 69.0239 13.24 67.9389 13.24C65.1489 13.24 63.2889 14.945 63.2889 17.89C63.2889 20.835 64.994 22.54 67.784 22.54C68.714 22.54 69.489 22.385 69.799 22.23V18.82H67.474V17.58H71.194V23.315H71.0389Z" fill="#223344"/>
<path d="M74.1399 19.9059C74.1399 21.9209 75.5349 22.8509 76.9299 22.8509C78.0149 22.8509 78.6349 22.6959 79.2549 22.3859L79.5649 23.4709C79.0999 23.7809 78.1699 23.9359 76.7749 23.9359C74.2949 23.9359 72.7449 22.2309 72.7449 19.7509C72.7449 17.2709 74.1399 15.2559 76.6199 15.2559C79.2549 15.2559 80.0299 17.5809 80.0299 19.1309C80.0299 19.4409 80.0299 19.7509 80.0299 19.9059H74.1399ZM78.6349 18.8209C78.6349 17.8909 78.1699 16.3409 76.6199 16.3409C75.0699 16.3409 74.4499 17.7359 74.2949 18.8209H78.6349Z" fill="#223344"/>
<path d="M83.7495 13.0859V15.4109H85.9194V16.4959H83.7495V20.9909C83.7495 22.0759 84.0595 22.5409 84.8345 22.5409C85.2995 22.5409 85.4544 22.5409 85.7644 22.3859V23.4709C85.4544 23.6259 84.9894 23.6259 84.3694 23.6259C83.5944 23.6259 83.1294 23.4709 82.8194 23.0059C82.3544 22.5409 82.1995 21.7659 82.1995 20.8359V16.3409H80.9595V15.2559H82.1995V13.2409L83.7495 13.0859Z" fill="#223344"/>
<path d="M92.8946 13.0853C92.8946 13.5503 92.5846 14.0153 91.9646 14.0153C91.4996 14.0153 91.0347 13.5503 91.0347 13.0853C91.0347 12.6203 91.4996 12.1553 91.9646 12.1553C92.4296 12.1553 92.8946 12.6203 92.8946 13.0853ZM91.1896 23.7803V15.4103H92.7396V23.7803H91.1896Z" fill="#223344"/>
<path d="M96.9245 13.0859V15.4109H99.0945V16.4959H96.9245V20.9909C96.9245 22.0759 97.2345 22.5409 98.0095 22.5409C98.4745 22.5409 98.6295 22.5409 98.9395 22.3859V23.4709C98.6295 23.6259 98.1645 23.6259 97.5445 23.6259C96.7695 23.6259 96.3045 23.4709 95.9945 23.0059C95.5295 22.5409 95.3745 21.7659 95.3745 20.8359V16.3409H94.1345V15.2559H95.3745V13.2409L96.9245 13.0859Z" fill="#223344"/>
<path d="M111.805 19.5959C111.805 22.6959 109.635 24.0909 107.62 24.0909C105.45 24.0909 103.59 22.3859 103.59 19.7509C103.59 16.9609 105.45 15.2559 107.62 15.2559C110.255 15.2559 111.805 16.9609 111.805 19.5959ZM105.295 19.5959C105.295 21.4559 106.38 22.8509 107.775 22.8509C109.17 22.8509 110.255 21.4559 110.255 19.5959C110.255 18.2009 109.48 16.3409 107.775 16.3409C106.07 16.3409 105.295 18.0459 105.295 19.5959Z" fill="#223344"/>
<path d="M113.665 17.7359C113.665 16.8059 113.665 16.1859 113.665 15.4109H115.06L115.215 16.8059C115.68 16.0309 116.61 15.2559 118.005 15.2559C119.09 15.2559 120.95 15.8759 120.95 18.8209V23.7809H119.4V18.9759C119.4 17.5809 118.935 16.4959 117.54 16.4959C116.61 16.4959 115.835 17.2709 115.525 18.0459C115.525 18.2009 115.37 18.5109 115.37 18.8209V23.7809H113.82V17.7359H113.665Z" fill="#223344"/>
<path d="M65.6147 48.8898L61.4297 31.9948H63.7547L65.7697 40.5198C66.2347 42.6898 66.6997 44.7048 67.0097 46.4098C67.3197 44.7048 67.7847 42.6898 68.4047 40.5198L70.5747 31.9948H72.8997L74.9147 40.5198C75.3797 42.5348 75.8447 44.5498 76.1547 46.2548C76.4647 44.3948 76.9297 42.5348 77.5497 40.3648L79.7197 31.8398H81.8897L77.0847 48.7348H74.7597L72.5897 39.8998C72.1247 37.7298 71.6597 36.0248 71.5047 34.3198C71.1947 36.0248 70.8847 37.5748 70.2647 39.8998L67.9397 48.7348H65.6147V48.8898Z" fill="#223344"/>
<path d="M85.7641 33.2348C85.7641 34.0098 85.2991 34.6298 84.3691 34.6298C83.5941 34.6298 82.9741 34.0098 82.9741 33.2348C82.9741 32.4598 83.5941 31.8398 84.3691 31.8398C85.2991 31.9948 85.7641 32.4598 85.7641 33.2348ZM83.2841 48.8898V36.7998H85.4541V48.8898H83.2841Z" fill="#223344"/>
<path d="M88.2449 40.0552C88.2449 38.8152 88.2448 37.7302 88.0898 36.8002H90.1049L90.2599 38.8152C90.8799 37.7302 92.2748 36.4902 94.2898 36.4902C95.9948 36.4902 98.4749 37.4202 98.4749 41.6052V48.8902H96.3049V41.9152C96.3049 39.9002 95.5298 38.3502 93.5148 38.3502C92.1198 38.3502 90.8799 39.4352 90.5699 40.6752C90.4149 40.9852 90.4148 41.2952 90.4148 41.7602V49.0452H88.2449V40.0552Z" fill="#223344"/>
<path d="M112.269 31.0652V45.7902C112.269 46.8752 112.269 48.1152 112.424 48.8902H110.409L110.254 46.7202C109.634 48.1152 108.084 49.0452 106.224 49.0452C103.279 49.0452 101.109 46.5652 101.109 42.8452C101.109 38.8152 103.589 36.3352 106.534 36.3352C108.394 36.3352 109.634 37.2652 110.099 38.1952V30.9102H112.269V31.0652ZM110.099 41.6052C110.099 41.2952 110.099 40.9852 109.944 40.6752C109.634 39.2802 108.394 38.1952 106.844 38.1952C104.519 38.1952 103.279 40.2102 103.279 42.8452C103.279 45.3252 104.519 47.3402 106.844 47.3402C108.239 47.3402 109.634 46.4102 110.099 44.7052C110.099 44.3952 110.254 44.0852 110.254 43.7752V41.6052H110.099Z" fill="#223344"/>
<path d="M126.064 42.6902C126.064 47.1852 122.964 49.2002 120.019 49.2002C116.764 49.2002 114.284 46.7202 114.284 43.0002C114.284 38.9702 116.919 36.4902 120.329 36.4902C123.739 36.4902 126.064 38.9702 126.064 42.6902ZM116.609 42.8452C116.609 45.4802 118.159 47.4952 120.329 47.4952C122.344 47.4952 124.049 45.4802 124.049 42.8452C124.049 40.8302 122.964 38.1952 120.484 38.1952C117.694 38.0402 116.609 40.5202 116.609 42.8452Z" fill="#223344"/>
<path d="M128.854 36.6445L130.404 42.8445C130.714 44.2395 131.024 45.4795 131.334 46.7195C131.644 45.4795 131.954 44.2395 132.419 42.8445L134.434 36.6445H136.294L138.154 42.6895C138.619 44.0845 138.929 45.4795 139.239 46.7195C139.394 45.4795 139.704 44.2395 140.169 42.8445L141.874 36.7995H144.044L140.169 48.8895H138.154L136.294 43.1545C135.829 41.7595 135.519 40.6745 135.209 39.1245C134.899 40.5195 134.589 41.7595 134.124 43.1545L132.109 48.8895H130.249L126.684 36.7995H128.854V36.6445Z" fill="#223344"/>
<path d="M145.75 46.5652C146.37 47.0302 147.61 47.4952 148.695 47.4952C150.245 47.4952 151.02 46.7202 151.02 45.6352C151.02 44.5502 150.4 43.9302 148.85 43.4652C146.68 42.6902 145.595 41.4502 145.595 40.0552C145.595 38.0402 147.145 36.4902 149.78 36.4902C151.02 36.4902 152.105 36.8002 152.725 37.2652L152.105 38.8152C151.64 38.5052 150.71 38.0402 149.625 38.0402C148.385 38.0402 147.61 38.8152 147.61 39.7452C147.61 40.6752 148.385 41.1402 149.935 41.7602C151.95 42.5352 153.035 43.6202 153.035 45.4802C153.035 47.6502 151.33 49.0452 148.54 49.0452C147.145 49.0452 146.06 48.7352 145.13 48.2702L145.75 46.5652Z" fill="#223344"/>
<path d="M163.264 34.6302L160.474 36.1802L160.009 34.4752L163.574 32.6152H165.434V48.8902H163.264V34.6302Z" fill="#223344"/>
<path d="M180.625 40.5204C180.625 46.1004 178.61 49.0454 175.045 49.0454C171.945 49.0454 169.775 46.1004 169.62 40.6754C169.62 35.2504 171.945 32.1504 175.2 32.1504C178.765 32.3054 180.625 35.4054 180.625 40.5204ZM171.79 40.8304C171.79 45.0154 173.03 47.4954 175.045 47.4954C177.215 47.4954 178.3 44.8604 178.3 40.6754C178.3 36.6454 177.215 34.0104 175.045 34.0104C173.185 34.0104 171.79 36.3354 171.79 40.8304Z" fill="#223344"/>
</svg>
