<svg width="210" height="62" viewBox="0 0 210 62" fill="none" xmlns="http://www.w3.org/2000/svg">
<rect width="210" height="62" rx="10" fill="white"/>
<path d="M39.0137 31.3913C39.0304 30.0975 39.3753 28.8289 40.0163 27.7036C40.6572 26.5783 41.5734 25.6328 42.6796 24.9552C41.9769 23.955 41.0498 23.1318 39.972 22.551C38.8943 21.9703 37.6954 21.648 36.4708 21.6097C33.8587 21.337 31.3259 23.1676 29.9953 23.1676C28.6386 23.1676 26.5861 21.6367 24.3801 21.6827C22.9537 21.7297 21.5637 22.1439 20.3455 22.8849C19.1273 23.626 18.1223 24.6686 17.4284 25.9115C14.4203 31.1026 16.6643 38.7308 19.5461 42.9266C20.988 44.981 22.6725 47.2763 24.8775 47.1944C27.0353 47.1054 27.8405 45.8234 30.4455 45.8234C33.0255 45.8234 33.7815 47.1944 36.0316 47.1424C38.3469 47.1054 39.8058 45.079 41.1966 43.0045C42.2329 41.5399 43.0302 39.9211 43.5589 38.2082C42.2135 37.642 41.065 36.6937 40.2568 35.4815C39.4485 34.2693 39.0161 32.8468 39.0137 31.3913Z" fill="#223344"/>
<path d="M34.7652 18.8504C36.0275 17.3402 36.6494 15.3992 36.4989 13.4395C34.5702 13.6415 32.7887 14.5602 31.5094 16.0125C30.8839 16.722 30.4048 17.5475 30.0996 18.4416C29.7944 19.3358 29.669 20.2811 29.7306 21.2236C30.6953 21.2333 31.6496 21.0248 32.5216 20.6137C33.3937 20.2026 34.1608 19.5997 34.7652 18.8504Z" fill="#223344"/>
<path d="M76.3155 41.9927H68.9516L67.1838 47.1957H64.0654L71.0393 27.9453H74.279L81.2528 47.1957H78.0823L76.3155 41.9927ZM69.7147 39.5945H75.5514L72.6747 31.1499H72.5945L69.7147 39.5945Z" fill="#223344"/>
<path d="M96.3156 40.1798C96.3156 44.5415 93.9733 47.3433 90.4388 47.3433C89.5434 47.3899 88.6529 47.1844 87.8693 46.7502C87.0857 46.316 86.4406 45.6707 86.0078 44.8882H85.9406V51.8399H83.0488V33.1661H85.8474V35.5003H85.9005C86.3531 34.7214 87.0091 34.0794 87.7987 33.6425C88.5883 33.2056 89.482 32.9902 90.3846 33.0192C93.9593 33.0152 96.3156 35.8301 96.3156 40.1798ZM93.3446 40.1798C93.3446 37.3379 91.8706 35.4703 89.6226 35.4703C87.4166 35.4703 85.9286 37.3779 85.9286 40.1798C85.9286 43.0076 87.4146 44.9012 89.6226 44.9012C91.8706 44.9012 93.3456 43.0466 93.3456 40.1798H93.3446Z" fill="#223344"/>
<path d="M111.816 40.1798C111.816 44.5415 109.474 47.3433 105.939 47.3433C105.044 47.3899 104.153 47.1844 103.37 46.7502C102.586 46.316 101.941 45.6707 101.508 44.8882H101.441V51.8399H98.5532V33.1661H101.352V35.5003H101.405C101.857 34.7214 102.513 34.0794 103.303 33.6425C104.093 33.2056 104.986 32.9902 105.889 33.0192C109.46 33.0152 111.816 35.8301 111.816 40.1798ZM108.845 40.1798C108.845 37.3379 107.371 35.4703 105.123 35.4703C102.917 35.4703 101.429 37.3779 101.429 40.1798C101.429 43.0076 102.915 44.9012 105.123 44.9012C107.371 44.9012 108.845 43.0466 108.845 40.1798Z" fill="#223344"/>
<path d="M122.061 41.8321C122.276 43.7406 124.136 44.9947 126.679 44.9947C129.116 44.9947 130.869 43.7416 130.869 42.0199C130.869 40.5211 129.812 39.6308 127.308 39.0222L124.801 38.4227C121.255 37.5693 119.607 35.9156 119.607 33.2336C119.607 29.9121 122.515 27.6309 126.636 27.6309C130.718 27.6309 133.516 29.9121 133.61 33.2336H130.695C130.525 31.3061 128.928 30.1519 126.599 30.1519C124.271 30.1519 122.677 31.3251 122.677 33.0328C122.677 34.3937 123.694 35.1941 126.186 35.8077L128.314 36.3283C132.278 37.2626 133.924 38.8484 133.924 41.6642C133.924 45.2615 131.045 47.5208 126.467 47.5208C122.183 47.5208 119.291 45.3224 119.104 41.8361L122.061 41.8321Z" fill="#223344"/>
<path d="M140.159 29.8398V33.1613H142.837V35.4426H140.159V43.1797C140.159 44.3788 140.695 44.9414 141.872 44.9414C142.19 44.9358 142.508 44.9134 142.823 44.8744V47.1417C142.294 47.2401 141.757 47.2846 141.219 47.2746C138.367 47.2746 137.255 46.2074 137.255 43.4855V35.4426H135.208V33.1613H137.251V29.8398H140.159Z" fill="#223344"/>
<path d="M144.39 40.1799C144.39 35.7642 146.997 32.9854 151.069 32.9854C155.141 32.9854 157.75 35.7602 157.75 40.1799C157.75 44.5995 155.166 47.3744 151.069 47.3744C146.972 47.3744 144.39 44.6085 144.39 40.1799ZM154.805 40.1799C154.805 37.1512 153.412 35.3625 151.07 35.3625C148.728 35.3625 147.333 37.1642 147.333 40.1799C147.333 43.2216 148.725 44.9952 151.067 44.9952C153.409 44.9952 154.802 43.2206 154.802 40.1799H154.805Z" fill="#223344"/>
<path d="M160.134 33.1659H162.891V35.5551H162.955C163.142 34.809 163.58 34.1497 164.197 33.6878C164.814 33.226 165.572 32.9898 166.343 33.019C166.676 33.018 167.008 33.0542 167.333 33.1269V35.8249C166.911 35.6964 166.471 35.6377 166.03 35.651C165.61 35.6347 165.192 35.7089 164.804 35.8686C164.416 36.0284 164.067 36.2698 163.781 36.5765C163.495 36.8831 163.28 37.2477 163.149 37.6452C163.017 38.0427 162.974 38.4638 163.022 38.8796V47.2043H160.134V33.1659Z" fill="#223344"/>
<path d="M180.664 43.0746C180.275 45.6227 177.785 47.3713 174.599 47.3713C170.502 47.3713 167.959 44.6354 167.959 40.2477C167.959 35.8601 170.516 32.9902 174.477 32.9902C178.374 32.9902 180.824 35.6572 180.824 39.913V40.9002H170.877V41.0741C170.831 41.5906 170.896 42.1108 171.068 42.6004C171.239 43.0899 171.513 43.5375 171.871 43.9135C172.23 44.2894 172.664 44.5851 173.146 44.7809C173.628 44.9767 174.146 45.0681 174.666 45.0491C175.349 45.1129 176.034 44.9552 176.621 44.5994C177.207 44.2437 177.662 43.7089 177.918 43.0746H180.664ZM170.891 38.8858H177.932C177.958 38.4213 177.888 37.9566 177.725 37.5206C177.562 37.0847 177.311 36.687 176.986 36.3525C176.662 36.018 176.272 35.754 175.84 35.5769C175.408 35.3998 174.945 35.3135 174.478 35.3235C174.007 35.3207 173.541 35.4109 173.105 35.5887C172.669 35.7666 172.273 36.0287 171.94 36.3599C171.607 36.6911 171.342 37.0848 171.162 37.5183C170.982 37.9519 170.89 38.4166 170.891 38.8858Z" fill="#223344"/>
<path d="M69.352 13.4549C69.9582 13.4114 70.5665 13.5027 71.1329 13.7219C71.6994 13.9411 72.21 14.283 72.6279 14.7227C73.0457 15.1624 73.3604 15.6891 73.5492 16.2647C73.7381 16.8404 73.7963 17.4506 73.7198 18.0514C73.7198 21.0061 72.1155 22.7049 69.352 22.7049H66V13.4549H69.352ZM67.4409 21.3968H69.1906C69.6237 21.4227 70.0571 21.352 70.4593 21.1899C70.8615 21.0277 71.2224 20.7783 71.5156 20.4596C71.8089 20.141 72.0271 19.7612 72.1545 19.3478C72.2819 18.9345 72.3151 18.4981 72.2519 18.0704C72.3105 17.6443 72.2739 17.2106 72.1445 16.8003C72.0152 16.3901 71.7964 16.0134 71.5039 15.6973C71.2113 15.3812 70.8522 15.1335 70.4522 14.9719C70.0523 14.8104 69.6215 14.739 69.1906 14.7629H67.4419L67.4409 21.3968Z" fill="#223344"/>
<path d="M75.3486 19.2114C75.3054 18.7531 75.3587 18.2909 75.505 17.8544C75.6514 17.4178 75.8876 17.0165 76.1986 16.6762C76.5095 16.3358 76.8884 16.0639 77.3108 15.8779C77.7333 15.6918 78.1901 15.5957 78.652 15.5957C79.1138 15.5957 79.5706 15.6918 79.9931 15.8779C80.4156 16.0639 80.7944 16.3358 81.1054 16.6762C81.4163 17.0165 81.6525 17.4178 81.7989 17.8544C81.9453 18.2909 81.9986 18.7531 81.9554 19.2114C82.0001 19.6705 81.948 20.1339 81.8024 20.5718C81.6567 21.0097 81.4207 21.4124 81.1096 21.754C80.7985 22.0955 80.4192 22.3685 79.9959 22.5553C79.5727 22.7421 79.1149 22.8386 78.652 22.8386C78.1891 22.8386 77.7313 22.7421 77.308 22.5553C76.8848 22.3685 76.5054 22.0955 76.1943 21.754C75.8832 21.4124 75.6472 21.0097 75.5016 20.5718C75.3559 20.1339 75.3038 19.6705 75.3486 19.2114ZM80.5335 19.2114C80.5335 17.6985 79.8517 16.8132 78.6545 16.8132C77.4572 16.8132 76.7774 17.6985 76.7774 19.2114C76.7774 20.7243 77.4532 21.6146 78.6545 21.6146C79.8557 21.6146 80.5335 20.7302 80.5335 19.2114Z" fill="#223344"/>
<path d="M90.7371 22.7043H89.3013L87.8534 17.5632H87.7441L86.3042 22.7043H84.8843L82.9531 15.7236H84.3569L85.6113 21.0496H85.7116L87.1515 15.7236H88.478L89.9179 21.0496H90.0272L91.2756 15.7236H92.6603L90.7371 22.7043Z" fill="#223344"/>
<path d="M94.2847 15.7248H95.6153V16.834H95.7155C95.8907 16.4355 96.1863 16.1015 96.5611 15.8785C96.9358 15.6555 97.3711 15.5546 97.8062 15.5899C98.1472 15.5643 98.4896 15.6155 98.808 15.7398C99.1265 15.864 99.4127 16.0581 99.6456 16.3077C99.8785 16.5572 100.052 16.8558 100.153 17.1813C100.255 17.5068 100.281 17.8509 100.231 18.1879V22.7065H98.851V18.5327C98.851 17.4105 98.3617 16.8529 97.3399 16.8529C97.1084 16.8418 96.8773 16.8808 96.6623 16.9671C96.4474 17.0535 96.2538 17.1853 96.0949 17.3534C95.9359 17.5215 95.8154 17.7219 95.7416 17.9408C95.6678 18.1597 95.6425 18.392 95.6674 18.6216V22.7055H94.2847V15.7248Z" fill="#223344"/>
<path d="M102.435 13H103.818V22.7056H102.435V13Z" fill="#223344"/>
<path d="M105.739 19.2122C105.694 18.753 105.746 18.2896 105.892 17.8517C106.037 17.4139 106.273 17.0112 106.584 16.6696C106.896 16.328 107.275 16.0551 107.698 15.8683C108.121 15.6815 108.579 15.585 109.042 15.585C109.505 15.585 109.963 15.6815 110.386 15.8683C110.809 16.0551 111.189 16.328 111.5 16.6696C111.811 17.0112 112.047 17.4139 112.192 17.8517C112.338 18.2896 112.39 18.753 112.346 19.2122C112.39 19.6713 112.338 20.1347 112.192 20.5726C112.047 21.0105 111.811 21.4131 111.5 21.7547C111.189 22.0963 110.809 22.3693 110.386 22.5561C109.963 22.7429 109.505 22.8394 109.042 22.8394C108.579 22.8394 108.121 22.7429 107.698 22.5561C107.275 22.3693 106.896 22.0963 106.584 21.7547C106.273 21.4131 106.037 21.0105 105.892 20.5726C105.746 20.1347 105.694 19.6713 105.739 19.2122ZM110.924 19.2122C110.924 17.6993 110.242 16.814 109.045 16.814C107.847 16.814 107.168 17.6993 107.168 19.2122C107.168 20.725 107.843 21.6153 109.045 21.6153C110.246 21.6153 110.924 20.731 110.924 19.2122Z" fill="#223344"/>
<path d="M113.801 20.7309C113.801 19.4748 114.74 18.7504 116.408 18.6474L118.305 18.5385V17.939C118.305 17.2015 117.816 16.7858 116.872 16.7858C116.099 16.7858 115.568 17.0686 115.412 17.5613H114.073C114.214 16.3622 115.346 15.5938 116.935 15.5938C118.69 15.5938 119.681 16.4651 119.681 17.939V22.7084H118.351V21.7271H118.241C118.02 22.0799 117.708 22.3675 117.338 22.5607C116.968 22.7538 116.553 22.8455 116.136 22.8263C115.841 22.8568 115.543 22.8253 115.262 22.7339C114.98 22.6425 114.721 22.4932 114.501 22.2957C114.281 22.0982 114.105 21.8569 113.984 21.5873C113.864 21.3177 113.802 21.026 113.801 20.7309ZM118.303 20.1313V19.5478L116.593 19.6567C115.628 19.7206 115.189 20.0484 115.189 20.6629C115.189 21.2774 115.735 21.6572 116.493 21.6572C116.713 21.6794 116.935 21.6572 117.147 21.592C117.359 21.5267 117.555 21.4197 117.724 21.2774C117.893 21.135 118.032 20.9602 118.132 20.7633C118.232 20.5664 118.291 20.3515 118.306 20.1313H118.303Z" fill="#223344"/>
<path d="M121.497 19.2123C121.497 17.007 122.635 15.609 124.405 15.609C124.843 15.5887 125.277 15.6932 125.658 15.9102C126.038 16.1271 126.349 16.4476 126.553 16.8341H126.653V13H128.036V22.7056H126.714V21.6065H126.605C126.385 21.9902 126.063 22.3066 125.675 22.5214C125.288 22.7361 124.848 22.8409 124.405 22.8246C122.623 22.8206 121.497 21.4226 121.497 19.2123ZM122.925 19.2123C122.925 20.6932 123.627 21.5835 124.796 21.5835C125.965 21.5835 126.681 20.6842 126.681 19.2183C126.681 17.7524 125.953 16.8471 124.796 16.8471C123.639 16.8471 122.924 17.7464 122.924 19.2123H122.925Z" fill="#223344"/>
<path d="M133.758 19.2114C133.715 18.7531 133.768 18.2909 133.915 17.8544C134.061 17.4178 134.297 17.0165 134.608 16.6762C134.919 16.3358 135.298 16.0639 135.72 15.8779C136.143 15.6918 136.6 15.5957 137.062 15.5957C137.524 15.5957 137.98 15.6918 138.403 15.8779C138.825 16.0639 139.204 16.3358 139.515 16.6762C139.826 17.0165 140.062 17.4178 140.209 17.8544C140.355 18.2909 140.408 18.7531 140.365 19.2114C140.41 19.6705 140.358 20.1339 140.212 20.5718C140.066 21.0097 139.83 21.4124 139.519 21.754C139.208 22.0955 138.829 22.3685 138.406 22.5553C137.982 22.7421 137.525 22.8386 137.062 22.8386C136.599 22.8386 136.141 22.7421 135.718 22.5553C135.294 22.3685 134.915 22.0955 134.604 21.754C134.293 21.4124 134.057 21.0097 133.911 20.5718C133.766 20.1339 133.713 19.6705 133.758 19.2114ZM138.943 19.2114C138.943 17.6985 138.261 16.8132 137.064 16.8132C135.867 16.8132 135.187 17.6985 135.187 19.2114C135.187 20.7243 135.863 21.6146 137.064 21.6146C138.265 21.6146 138.942 20.7312 138.942 19.2114H138.943Z" fill="#223344"/>
<path d="M142.219 15.7248H143.554V16.834H143.654C143.829 16.4355 144.125 16.1015 144.5 15.8785C144.874 15.6555 145.31 15.5546 145.745 15.5899C146.086 15.5643 146.428 15.6155 146.747 15.7398C147.065 15.864 147.351 16.0581 147.584 16.3077C147.817 16.5572 147.991 16.8558 148.092 17.1813C148.193 17.5068 148.22 17.8509 148.169 18.1879V22.7065H146.786V18.5327C146.786 17.4105 146.296 16.8529 145.274 16.8529C145.043 16.8418 144.812 16.8808 144.597 16.9671C144.382 17.0535 144.188 17.1853 144.029 17.3534C143.871 17.5215 143.75 17.7219 143.676 17.9408C143.602 18.1597 143.577 18.392 143.602 18.6216V22.7055H142.219V15.7248Z" fill="#223344"/>
<path d="M155.979 13.9873V15.757H157.496V16.9171H155.979V20.5084C155.979 21.2398 156.28 21.5596 156.97 21.5596C157.146 21.559 157.322 21.5483 157.497 21.5276V22.6747C157.249 22.7188 156.997 22.7422 156.745 22.7447C155.208 22.7447 154.595 22.2061 154.595 20.8601V16.9171H153.483V15.757H154.595V13.9873H155.979Z" fill="#223344"/>
<path d="M159.38 13H160.751V16.8471H160.86C161.044 16.4452 161.348 16.1096 161.73 15.8859C162.112 15.6622 162.554 15.5613 162.996 15.597C163.335 15.5785 163.673 15.6347 163.988 15.7615C164.302 15.8883 164.585 16.0828 164.815 16.3309C165.045 16.579 165.218 16.8747 165.321 17.1969C165.423 17.5192 165.453 17.86 165.408 18.1951V22.7016H164.025V18.5388C164.025 17.4236 163.503 16.8591 162.527 16.8591C162.289 16.8397 162.05 16.8722 161.826 16.9544C161.603 17.0367 161.4 17.1666 161.232 17.3352C161.064 17.5037 160.935 17.7068 160.854 17.9303C160.773 18.1537 160.742 18.3921 160.763 18.6287V22.7056H159.38V13Z" fill="#223344"/>
<path d="M173.472 20.82C173.284 21.458 172.877 22.0098 172.323 22.379C171.768 22.7482 171.1 22.9112 170.437 22.8395C169.976 22.8516 169.517 22.7636 169.093 22.5814C168.669 22.3992 168.29 22.1272 167.982 21.7843C167.674 21.4415 167.445 21.036 167.31 20.596C167.175 20.156 167.138 19.692 167.201 19.2362C167.14 18.7791 167.178 18.3141 167.312 17.8727C167.447 17.4314 167.675 17.024 167.981 16.6781C168.287 16.3323 168.665 16.0561 169.087 15.8682C169.51 15.6802 169.968 15.585 170.431 15.589C172.38 15.589 173.555 16.916 173.555 19.1083V19.589H168.609V19.6659C168.588 19.9219 168.62 20.1796 168.704 20.4225C168.788 20.6653 168.923 20.8879 169.098 21.0761C169.274 21.2642 169.487 21.4138 169.724 21.5151C169.961 21.6164 170.216 21.6672 170.474 21.6644C170.805 21.704 171.14 21.6447 171.437 21.494C171.733 21.3432 171.978 21.108 172.141 20.818L173.472 20.82ZM168.61 18.5707H172.148C172.165 18.3364 172.133 18.1009 172.054 17.8796C171.975 17.6582 171.85 17.4559 171.688 17.2855C171.525 17.1152 171.329 16.9806 171.111 16.8904C170.893 16.8003 170.659 16.7566 170.423 16.7621C170.184 16.7591 169.947 16.8039 169.725 16.8938C169.504 16.9836 169.302 17.1168 169.133 17.2853C168.964 17.4539 168.831 17.6544 168.741 17.8752C168.651 18.096 168.606 18.3324 168.609 18.5707H168.61Z" fill="#223344"/>
</svg>
