<svg width="210" height="62" viewBox="0 0 210 62" fill="none" xmlns="http://www.w3.org/2000/svg">
<rect width="210" height="62" rx="10" fill="white"/>
<path d="M74.2547 16.2365C74.2828 16.8053 74.1945 17.3738 73.995 17.9075C73.7956 18.4412 73.4892 18.9288 73.0945 19.3408C72.6525 19.7976 72.1186 20.1563 71.5278 20.3932C70.937 20.6301 70.3026 20.74 69.6662 20.7156C68.3732 20.7156 67.1332 20.2038 66.2189 19.2927C65.3047 18.3817 64.791 17.1462 64.791 15.8578C64.791 14.5694 65.3047 13.3338 66.2189 12.4228C67.1332 11.5118 68.3732 11 69.6662 11C70.3251 10.998 70.9773 11.131 71.5824 11.3907C72.1439 11.6176 72.6437 11.9733 73.0414 12.4288L72.2211 13.2471C71.9081 12.881 71.5148 12.5915 71.0717 12.4009C70.6285 12.2103 70.1473 12.1238 69.6652 12.148C69.0564 12.1521 68.4579 12.3047 67.922 12.5925C67.386 12.8802 66.9289 13.2944 66.5907 13.7988C66.2524 14.3032 66.0433 14.8824 65.9815 15.4859C65.9198 16.0894 66.0073 16.6988 66.2365 17.2609C66.4656 17.8229 66.8294 18.3204 67.296 18.71C67.7627 19.0997 68.318 19.3695 68.9134 19.4959C69.5089 19.6223 70.1263 19.6015 70.7118 19.4353C71.2973 19.2691 71.8331 18.9626 72.2723 18.5424C72.7509 18.0282 73.0284 17.3599 73.0544 16.6591H69.6652V15.5421H74.1885C74.2309 15.7712 74.253 16.0035 74.2547 16.2365Z" fill="#223344" stroke="#223344" stroke-width="0.2" stroke-miterlimit="10"/>
<path d="M81.4239 12.352H77.1743V15.3004H81.0057V16.4174H77.1743V19.3659H81.4239V20.5099H75.9751V11.21H81.4239V12.352Z" fill="#223344" stroke="#223344" stroke-width="0.2" stroke-miterlimit="10"/>
<path d="M86.4807 20.5099H85.2775V12.352H82.6704V11.21H89.0878V12.352H86.4807V20.5099Z" fill="#223344" stroke="#223344" stroke-width="0.2" stroke-miterlimit="10"/>
<path d="M93.728 20.5099V11.21H94.9313V20.5099H93.728Z" fill="#223344" stroke="#223344" stroke-width="0.2" stroke-miterlimit="10"/>
<path d="M100.243 20.5099H99.0397V12.352H96.4326V11.21H102.85V12.352H100.243V20.5099Z" fill="#223344" stroke="#223344" stroke-width="0.2" stroke-miterlimit="10"/>
<path d="M114.995 19.3078C114.086 20.2102 112.856 20.7169 111.573 20.7169C110.29 20.7169 109.059 20.2102 108.15 19.3078C107.268 18.3756 106.776 17.1424 106.776 15.8609C106.776 14.5793 107.268 13.3461 108.15 12.4139C108.599 11.9661 109.133 11.6109 109.72 11.3688C110.307 11.1267 110.936 11.0024 111.571 11.0029C112.206 11.0035 112.835 11.1289 113.422 11.3721C114.008 11.6152 114.541 11.9713 114.989 12.4198C115.875 13.35 116.369 14.5832 116.371 15.8657C116.372 17.1481 115.879 18.3822 114.995 19.3138V19.3078ZM109.036 18.5295C109.709 19.1985 110.621 19.5742 111.571 19.5742C112.522 19.5742 113.434 19.1985 114.107 18.5295C114.774 17.7994 115.144 16.8474 115.144 15.8599C115.144 14.8723 114.774 13.9203 114.107 13.1902C113.434 12.5212 112.522 12.1455 111.571 12.1455C110.621 12.1455 109.709 12.5212 109.036 13.1902C108.37 13.9212 108.002 14.8729 108.002 15.8599C108.002 16.8468 108.37 17.7985 109.036 18.5295Z" fill="#223344" stroke="#223344" stroke-width="0.2" stroke-miterlimit="10"/>
<path d="M118.051 20.5099V11.21H119.512L124.049 18.4437H124.1L124.049 16.6522V11.21H125.252V20.5099H123.997L119.255 12.9245H119.203L119.255 14.7159V20.5109L118.051 20.5099Z" fill="#223344" stroke="#223344" stroke-width="0.2" stroke-miterlimit="10"/>
<path d="M106.481 34.0742C105.173 34.0787 103.896 34.4693 102.811 35.1966C101.725 35.924 100.881 36.9555 100.383 38.1608C99.886 39.3661 99.7582 40.6913 100.016 41.9689C100.274 43.2466 100.906 44.4194 101.833 45.3393C102.759 46.2592 103.938 46.885 105.221 47.1376C106.505 47.3902 107.834 47.2582 109.042 46.7585C110.25 46.2587 111.282 45.4135 112.008 44.3296C112.734 43.2457 113.122 41.9717 113.122 40.6684C113.136 39.7968 112.973 38.9313 112.644 38.1236C112.315 37.3159 111.826 36.5825 111.206 35.9672C110.586 35.3518 109.848 34.867 109.037 34.5418C108.225 34.2166 107.356 34.0576 106.481 34.0742ZM106.481 44.6649C105.676 44.7223 104.872 44.5368 104.174 44.1326C103.476 43.7284 102.917 43.1242 102.568 42.3986C102.22 41.6731 102.099 40.8598 102.22 40.0647C102.342 39.2695 102.702 38.5294 103.252 37.9406C103.802 37.3519 104.517 36.9417 105.304 36.7636C106.091 36.5855 106.914 36.6476 107.665 36.9419C108.416 37.2362 109.061 37.7491 109.516 38.4138C109.971 39.0784 110.214 39.8641 110.214 40.6684C110.239 41.1765 110.161 41.6843 109.985 42.1619C109.81 42.6395 109.54 43.0773 109.192 43.4496C108.845 43.8218 108.425 44.1209 107.96 44.3293C107.494 44.5377 106.991 44.6511 106.481 44.6629V44.6649ZM91.9948 34.0742C90.6869 34.0787 89.4097 34.4693 88.3244 35.1966C87.2391 35.924 86.3945 36.9555 85.8971 38.1608C85.3997 39.3661 85.272 40.6913 85.5299 41.9689C85.7879 43.2466 86.42 44.4194 87.3464 45.3393C88.2729 46.2592 89.4521 46.885 90.7352 47.1376C92.0184 47.3902 93.3478 47.2582 94.5557 46.7585C95.7637 46.2587 96.7959 45.4135 97.5221 44.3296C98.2482 43.2457 98.6358 41.9717 98.6358 40.6684C98.6494 39.7967 98.4867 38.9311 98.1575 38.1233C97.8282 37.3156 97.3391 36.5822 96.7192 35.9668C96.0994 35.3514 95.3616 34.8667 94.5497 34.5415C93.7379 34.2164 92.8686 34.0574 91.9938 34.0742H91.9948ZM91.9948 44.6649C91.1896 44.7223 90.3858 44.5368 89.6879 44.1326C88.99 43.7284 88.4304 43.1242 88.0819 42.3986C87.7335 41.6731 87.6123 40.8598 87.7342 40.0647C87.8562 39.2695 88.2155 38.5294 88.7655 37.9406C89.3155 37.3519 90.0306 36.9417 90.8178 36.7636C91.605 36.5855 92.4277 36.6476 93.179 36.9419C93.9302 37.2362 94.5752 37.7491 95.0298 38.4138C95.4844 39.0784 95.7277 39.8641 95.7279 40.6684C95.7523 41.1765 95.6744 41.6843 95.4988 42.162C95.3232 42.6396 95.0535 43.0774 94.7055 43.4496C94.3576 43.8219 93.9384 44.121 93.4727 44.3293C93.007 44.5377 92.5042 44.6511 91.9938 44.6629L91.9948 44.6649ZM74.7611 36.0994V38.8969H81.4793C81.3821 40.2084 80.8433 41.4487 79.9502 42.4169C79.2769 43.1003 78.4674 43.6355 77.5738 43.9882C76.6802 44.3408 75.7224 44.5029 74.7621 44.4641C72.7809 44.4641 70.8808 43.6799 69.4799 42.284C68.0789 40.888 67.2919 38.9947 67.2919 37.0206C67.2919 35.0464 68.0789 33.1532 69.4799 31.7572C70.8808 30.3613 72.7809 29.5771 74.7621 29.5771C76.6477 29.5525 78.4668 30.2707 79.8238 31.5753L81.8042 29.6021C80.878 28.6885 79.7779 27.9684 78.5687 27.484C77.3594 26.9997 76.0652 26.7608 74.7621 26.7815C73.4042 26.7681 72.0571 27.0231 70.7987 27.5316C69.5402 28.0402 68.3954 28.7922 67.4305 29.7443C66.4655 30.6964 65.6995 31.8296 65.1767 33.0784C64.6539 34.3273 64.3848 35.667 64.3848 37.0201C64.3848 38.3732 64.6539 39.7129 65.1767 40.9618C65.6995 42.2106 66.4655 43.3438 67.4305 44.2959C68.3954 45.248 69.5402 46 70.7987 46.5085C72.0571 47.0171 73.4042 47.272 74.7621 47.2587C76.0927 47.3135 77.4199 47.0857 78.6554 46.5905C79.8909 46.0952 81.0067 45.3438 81.9285 44.3862C83.5663 42.606 84.4391 40.2575 84.3601 37.8439C84.3669 37.2576 84.3166 36.672 84.2097 36.0954L74.7611 36.0994ZM145.239 38.2725C144.842 37.0782 144.085 36.0347 143.072 35.2839C142.059 34.5331 140.838 34.1114 139.576 34.0762C138.726 34.0815 137.885 34.2585 137.106 34.5967C136.326 34.9348 135.624 35.4269 135.04 36.0433C134.457 36.6597 134.006 37.3876 133.713 38.1829C133.42 38.9782 133.292 39.8244 133.337 40.6704C133.317 41.5373 133.474 42.3991 133.796 43.2045C134.119 44.0098 134.601 44.7422 135.213 45.3577C135.826 45.9732 136.557 46.4593 137.363 46.787C138.169 47.1146 139.033 47.2771 139.903 47.2647C140.993 47.2708 142.067 47.0071 143.03 46.4972C143.993 45.9873 144.813 45.2471 145.418 44.3432L143.162 42.8445C142.825 43.4035 142.347 43.8654 141.776 44.1849C141.205 44.5044 140.56 44.6705 139.906 44.6669C139.231 44.6931 138.565 44.5165 137.992 44.1601C137.42 43.8037 136.969 43.2841 136.697 42.6687L145.543 39.0228L145.239 38.2725ZM136.215 40.4706C136.183 39.9907 136.249 39.5094 136.407 39.0549C136.564 38.6004 136.812 38.1819 137.134 37.8238C137.456 37.4656 137.846 37.1752 138.283 36.9693C138.719 36.7635 139.192 36.6464 139.674 36.6249C140.176 36.5919 140.676 36.707 141.113 36.9558C141.549 37.2046 141.903 37.576 142.129 38.0237L136.215 40.4706ZM129.023 46.865H131.931V27.4829H129.023V46.865ZM124.261 35.5529H124.161C123.719 35.0742 123.18 34.6952 122.58 34.441C121.979 34.1868 121.331 34.0635 120.679 34.0792C118.923 34.0792 117.24 34.7739 115.999 36.0106C114.758 37.2472 114.061 38.9245 114.061 40.6734C114.061 42.4223 114.758 44.0996 115.999 45.3363C117.24 46.5729 118.923 47.2677 120.679 47.2677C121.333 47.2847 121.984 47.1595 122.585 46.9007C123.187 46.6419 123.724 46.2557 124.161 45.769H124.261V46.7171C124.261 49.239 122.908 50.5878 120.727 50.5878C120 50.5706 119.295 50.3382 118.701 49.9202C118.108 49.5022 117.652 48.9176 117.394 48.2408L114.863 49.2899C115.34 50.4473 116.153 51.4365 117.197 52.1307C118.242 52.8249 119.471 53.1926 120.727 53.1865C124.136 53.1865 127.018 51.1883 127.018 46.3185V34.4748H124.261V35.5529ZM120.928 44.6669C119.92 44.5859 118.98 44.1297 118.294 43.3892C117.609 42.6486 117.228 41.678 117.228 40.6704C117.228 39.6628 117.609 38.6922 118.294 37.9517C118.98 37.2111 119.92 36.7549 120.928 36.6739C122.909 36.6739 124.463 38.3724 124.463 40.6934C124.502 41.1871 124.44 41.6836 124.282 42.1532C124.124 42.6228 123.873 43.0558 123.543 43.4264C123.214 43.7969 122.812 44.0974 122.363 44.3099C121.914 44.5223 121.427 44.6424 120.93 44.6629L120.928 44.6669ZM158.854 27.4869H151.904V46.865H154.807V39.5224H158.859C159.68 39.5671 160.501 39.4447 161.273 39.1624C162.045 38.8802 162.751 38.4442 163.348 37.881C163.945 37.3178 164.42 36.6393 164.745 35.8868C165.07 35.1344 165.238 34.3238 165.238 33.5046C165.238 32.6855 165.07 31.8749 164.745 31.1225C164.42 30.37 163.945 29.6915 163.348 29.1283C162.751 28.5651 162.045 28.1291 161.273 27.8469C160.501 27.5646 159.68 27.4422 158.859 27.4869H158.854ZM158.928 36.8268H154.801V30.1796H158.928C159.371 30.1719 159.811 30.2522 160.222 30.4157C160.633 30.5791 161.007 30.8226 161.323 31.1318C161.639 31.441 161.889 31.8097 162.061 32.2165C162.232 32.6233 162.32 33.06 162.32 33.5012C162.32 33.9423 162.232 34.379 162.061 34.7858C161.889 35.1926 161.639 35.5613 161.323 35.8705C161.007 36.1797 160.633 36.4232 160.222 36.5867C159.811 36.7502 159.371 36.8304 158.928 36.8228V36.8268ZM176.867 34.0432C175.808 33.9816 174.753 34.2295 173.833 34.7564C172.914 35.2834 172.168 36.0665 171.689 37.0096L174.265 38.0827C174.52 37.6143 174.907 37.2303 175.378 36.9778C175.849 36.7252 176.384 36.6151 176.917 36.6609C177.653 36.5892 178.388 36.8114 178.96 37.2787C179.532 37.746 179.895 38.4203 179.969 39.1537V39.3536C179.037 38.8598 177.997 38.6028 176.942 38.6052C174.165 38.6052 171.339 40.1269 171.339 42.9684C171.339 45.5662 173.615 47.2307 176.167 47.2307C176.898 47.273 177.627 47.1192 178.278 46.7853C178.929 46.4514 179.479 45.9497 179.869 45.3324H179.969V46.831H182.777V39.4015C182.774 35.9595 180.196 34.0392 176.872 34.0392L176.867 34.0432ZM176.517 44.6639C175.566 44.6639 174.24 44.1893 174.24 43.0174C174.24 41.5187 175.891 40.9482 177.317 40.9482C178.243 40.9232 179.159 41.1468 179.969 41.5956C179.862 42.4351 179.453 43.2076 178.819 43.7706C178.185 44.3336 177.368 44.6491 176.519 44.6589L176.517 44.6639ZM192.979 34.4728L189.65 42.8735H189.55L186.099 34.4728H182.97L188.148 46.2136L185.197 52.7449H188.225L196.204 34.4718L192.979 34.4728ZM166.836 46.869H169.736V27.4829H166.836V46.869Z" fill="#223344"/>
<path d="M16.7257 11.6158C16.2157 12.223 15.9584 13.0017 16.0067 13.7919V48.0711C15.9589 48.8621 16.2165 49.6413 16.7267 50.2492L16.842 50.3611L36.1132 31.1588V30.7042L16.841 11.5029L16.7257 11.6158Z" fill="url(#paint0_linear)"/>
<path d="M42.5347 37.5622L36.1123 31.1588V30.7042L42.5367 24.3027L42.6811 24.3847L50.2927 28.6939C52.4656 29.9248 52.4656 31.9381 50.2927 33.17L42.6811 37.4793L42.5347 37.5622Z" fill="url(#paint1_linear)"/>
<path d="M42.6809 37.4819L36.1161 30.9326L16.7256 50.2498C17.4415 51.0051 18.6247 51.099 19.9583 50.3447L42.6809 37.4819Z" fill="url(#paint2_linear)"/>
<path d="M42.6809 24.3868L19.9583 11.52C18.6257 10.7666 17.4415 10.8595 16.7256 11.6199L36.1161 30.9331L42.6809 24.3868Z" fill="url(#paint3_linear)"/>
<path opacity="0.2" d="M42.5335 37.3359L19.9583 50.1188C19.5107 50.4577 18.9647 50.6427 18.4025 50.6457C17.8402 50.6488 17.2922 50.4698 16.8409 50.1358L16.7256 50.2507L16.8409 50.3626C17.2919 50.6974 17.8401 50.8769 18.4025 50.8738C18.9649 50.8707 19.511 50.6853 19.9583 50.3456L42.6809 37.4798L42.5335 37.3359Z" fill="black"/>
<path opacity="0.12" d="M16.7256 50.0248C16.2154 49.4169 15.9578 48.6377 16.0056 47.8467V48.0725C15.9578 48.8635 16.2154 49.6427 16.7256 50.2506L16.8409 50.1357L16.7256 50.0248Z" fill="black"/>
<path opacity="0.12" d="M50.2926 32.9438L42.5366 37.34L42.682 37.4828L50.2936 33.1726C50.7412 32.9789 51.1285 32.6692 51.4153 32.2758C51.702 31.8824 51.8777 31.4196 51.9241 30.9355C51.8275 31.3736 51.6298 31.7832 51.3466 32.1319C51.0634 32.4805 50.7025 32.7585 50.2926 32.9438Z" fill="black"/>
<path opacity="0.25" d="M19.9583 11.7477L50.2925 28.9217C50.7027 29.1075 51.0637 29.3862 51.3467 29.7356C51.6298 30.0849 51.8271 30.4953 51.9229 30.934C51.8774 30.4496 51.702 29.9863 51.4152 29.5925C51.1284 29.1988 50.7406 28.8891 50.2925 28.6959L19.9583 11.5219C17.7834 10.2909 16.0056 11.3131 16.0056 13.7939V14.0207C16.0066 11.5389 17.7834 10.5157 19.9583 11.7477Z" fill="white"/>
<defs>
<linearGradient id="paint0_linear" x1="34.4037" y1="-14.3377" x2="3.55821" y2="-22.5662" gradientUnits="userSpaceOnUse">
<stop stop-color="#00A0FF"/>
<stop offset="0.007" stop-color="#00A1FF"/>
<stop offset="0.26" stop-color="#00BEFF"/>
<stop offset="0.512" stop-color="#00D2FF"/>
<stop offset="0.76" stop-color="#00DFFF"/>
<stop offset="1" stop-color="#00E3FF"/>
</linearGradient>
<linearGradient id="paint1_linear" x1="53.124" y1="-31.8245" x2="15.4801" y2="-31.8245" gradientUnits="userSpaceOnUse">
<stop stop-color="#FFE000"/>
<stop offset="0.409" stop-color="#FFBD00"/>
<stop offset="0.775" stop-color="#FFA500"/>
<stop offset="1" stop-color="#FF9C00"/>
</linearGradient>
<linearGradient id="paint2_linear" x1="39.0991" y1="-35.3844" x2="14.474" y2="-77.0243" gradientUnits="userSpaceOnUse">
<stop stop-color="#FF3A44"/>
<stop offset="1" stop-color="#C31162"/>
</linearGradient>
<linearGradient id="paint3_linear" x1="11.846" y1="-1.09938" x2="22.8515" y2="-19.689" gradientUnits="userSpaceOnUse">
<stop stop-color="#32A071"/>
<stop offset="0.068" stop-color="#2DA771"/>
<stop offset="0.476" stop-color="#15CF74"/>
<stop offset="0.801" stop-color="#06E775"/>
<stop offset="1" stop-color="#00F076"/>
</linearGradient>
</defs>
</svg>
