<svg width="30" height="30" viewBox="0 0 30 30" fill="none" xmlns="http://www.w3.org/2000/svg">
<g id="Icon/Fill/linkedin">
<path id="Mask" fill-rule="evenodd" clip-rule="evenodd" d="M3.74991 6.5625C3.74991 5.01 5.00991 3.75 6.56241 3.75C8.11491 3.75 9.37491 5.01 9.37491 6.5625C9.37491 8.115 8.11491 9.375 6.56241 9.375C5.00991 9.375 3.74991 8.115 3.74991 6.5625ZM18.938 10.5005C14.8993 10.5005 11.6243 13.7555 11.6243 17.768V25.1242C11.6243 25.7455 12.1293 26.2505 12.7505 26.2505H15.3743C15.9955 26.2505 16.5005 25.7455 16.5005 25.1242V17.768C16.5005 16.348 17.7305 15.213 19.1905 15.3592C20.458 15.4855 21.3743 16.6442 21.3743 17.918V25.1242C21.3743 25.7455 21.8793 26.2505 22.5005 26.2505H25.1243C25.7455 26.2505 26.2505 25.7455 26.2505 25.1242V17.768C26.2505 13.7555 22.9755 10.5005 18.938 10.5005ZM8.24951 11.6248H4.87576C4.25451 11.6248 3.74951 12.1285 3.74951 12.7498V25.1248C3.74951 25.746 4.25451 26.2498 4.87576 26.2498H8.24951C8.87076 26.2498 9.37451 25.746 9.37451 25.1248V12.7498C9.37451 12.1285 8.87076 11.6248 8.24951 11.6248Z" fill="white"/>
<mask id="mask0" mask-type="alpha" maskUnits="userSpaceOnUse" x="3" y="3" width="24" height="24">
<path id="Mask_2" fill-rule="evenodd" clip-rule="evenodd" d="M3.74991 6.5625C3.74991 5.01 5.00991 3.75 6.56241 3.75C8.11491 3.75 9.37491 5.01 9.37491 6.5625C9.37491 8.115 8.11491 9.375 6.56241 9.375C5.00991 9.375 3.74991 8.115 3.74991 6.5625ZM18.938 10.5005C14.8993 10.5005 11.6243 13.7555 11.6243 17.768V25.1242C11.6243 25.7455 12.1293 26.2505 12.7505 26.2505H15.3743C15.9955 26.2505 16.5005 25.7455 16.5005 25.1242V17.768C16.5005 16.348 17.7305 15.213 19.1905 15.3592C20.458 15.4855 21.3743 16.6442 21.3743 17.918V25.1242C21.3743 25.7455 21.8793 26.2505 22.5005 26.2505H25.1243C25.7455 26.2505 26.2505 25.7455 26.2505 25.1242V17.768C26.2505 13.7555 22.9755 10.5005 18.938 10.5005ZM8.24951 11.6248H4.87576C4.25451 11.6248 3.74951 12.1285 3.74951 12.7498V25.1248C3.74951 25.746 4.25451 26.2498 4.87576 26.2498H8.24951C8.87076 26.2498 9.37451 25.746 9.37451 25.1248V12.7498C9.37451 12.1285 8.87076 11.6248 8.24951 11.6248Z" fill="white"/>
</mask>
<g mask="url(#mask0)">
<g id="&#240;&#159;&#142;&#168; Color">
<rect id="Base" width="30" height="30" fill="white"/>
</g>
</g>
</g>
</svg>
