<svg width="30" height="30" viewBox="0 0 30 30" fill="none" xmlns="http://www.w3.org/2000/svg">
<g id="Icon/Fill/google">
<path id="Mask" fill-rule="evenodd" clip-rule="evenodd" d="M21.8689 17.476C21.0364 20.1535 18.9614 22.0072 16.2002 22.416C11.9864 23.0397 7.84894 19.8447 7.52144 15.5947C7.18144 11.1847 10.6602 7.50098 15.0014 7.50098C16.0052 7.50098 16.9627 7.69848 17.8377 8.05598C18.1414 8.17973 18.4852 8.07348 18.6402 7.78598L20.4339 4.47723C20.6039 4.16098 20.4814 3.75348 20.1539 3.60598C18.5827 2.89598 16.8402 2.50098 15.0052 2.50098C7.97769 2.50098 2.30394 8.29598 2.50519 15.3672C2.68894 21.8185 8.01394 27.216 14.4602 27.4897C21.3927 27.7822 27.1427 22.4322 27.4914 15.6535C27.5052 15.406 27.5002 13.9647 27.4952 13.1197C27.4939 12.7747 27.2139 12.501 26.8702 12.501H15.6214C15.2764 12.501 14.9964 12.7797 14.9964 13.126V16.851C14.9964 17.1947 15.2764 17.476 15.6214 17.476H21.8689Z" fill="white"/>
<mask id="mask0" mask-type="alpha" maskUnits="userSpaceOnUse" x="2" y="2" width="26" height="26">
<path id="Mask_2" fill-rule="evenodd" clip-rule="evenodd" d="M21.8689 17.476C21.0364 20.1535 18.9614 22.0072 16.2002 22.416C11.9864 23.0397 7.84894 19.8447 7.52144 15.5947C7.18144 11.1847 10.6602 7.50098 15.0014 7.50098C16.0052 7.50098 16.9627 7.69848 17.8377 8.05598C18.1414 8.17973 18.4852 8.07348 18.6402 7.78598L20.4339 4.47723C20.6039 4.16098 20.4814 3.75348 20.1539 3.60598C18.5827 2.89598 16.8402 2.50098 15.0052 2.50098C7.97769 2.50098 2.30394 8.29598 2.50519 15.3672C2.68894 21.8185 8.01394 27.216 14.4602 27.4897C21.3927 27.7822 27.1427 22.4322 27.4914 15.6535C27.5052 15.406 27.5002 13.9647 27.4952 13.1197C27.4939 12.7747 27.2139 12.501 26.8702 12.501H15.6214C15.2764 12.501 14.9964 12.7797 14.9964 13.126V16.851C14.9964 17.1947 15.2764 17.476 15.6214 17.476H21.8689Z" fill="white"/>
</mask>
<g mask="url(#mask0)">
<g id="&#240;&#159;&#142;&#168; Color">
<rect id="Base" width="30" height="30" fill="white"/>
</g>
</g>
</g>
</svg>
