<svg width="19" height="21" viewBox="0 0 19 21" fill="none" xmlns="http://www.w3.org/2000/svg">
<path d="M13.8367 13.069L10.8655 10.1066V9.89628L13.8376 6.93475L13.9044 6.97266L17.4258 8.96627C18.4311 9.53574 18.4311 10.4671 17.4258 11.0371L13.9044 13.0307L13.8367 13.069Z" fill="#BEBEBE"/>
<path d="M13.1233 13.8124L10.0862 10.7825L1.11548 19.7193C1.4467 20.0687 1.99409 20.1122 2.61107 19.7632L13.1233 13.8124Z" fill="#BEBEBE"/>
<path d="M13.1233 6.19319L2.61107 0.240558C1.99455 -0.107966 1.4467 -0.0649791 1.11548 0.28678L10.0862 9.22175L13.1233 6.19319Z" fill="#BEBEBE"/>
<path d="M0.335271 1.06535C0.0993421 1.34624 -0.0196785 1.70649 0.00265968 2.0721V17.9308C-0.0194574 18.2968 0.0997064 18.6573 0.335735 18.9385L0.389082 18.9903L9.30463 10.1066V9.89631L0.388618 1.01312L0.335271 1.06535Z" fill="#BEBEBE"/>
</svg>
