<svg width="66" height="65" viewBox="0 0 66 65" fill="none" xmlns="http://www.w3.org/2000/svg">
<path fill-rule="evenodd" clip-rule="evenodd" d="M8.82456 10.9756C6.3246 10.9756 4.28027 12.9907 4.28027 15.4504V21.4069H22.7661C21.6216 19.4548 20.9665 14.8911 20.9665 13.2907C20.9665 11.6868 21.0343 11.7276 21.1698 10.9756H8.82456Z" fill="#FFE077"/>
<path fill-rule="evenodd" clip-rule="evenodd" d="M57.4524 10.9756H44.7646C44.8098 11.2349 44.8474 11.4942 44.8776 11.7534C45.0093 12.8499 44.998 13.9426 44.855 15.0169C44.6216 16.7765 44.0418 19.914 43.1796 21.3884C43.1758 21.3958 43.1721 21.3996 43.1682 21.4069H61.9967V15.4504C61.9966 12.9907 59.9523 10.9756 57.4524 10.9756Z" fill="#FFE077"/>
<path fill-rule="evenodd" clip-rule="evenodd" d="M63.7738 23.6152H32.9651H2.1604V62.7068C2.1604 63.9403 3.1845 64.9479 4.43822 64.9479H61.4958C62.7495 64.9479 63.7736 63.9403 63.7736 62.7068V23.6152H63.7738Z" fill="#F9F3F1"/>
<path fill-rule="evenodd" clip-rule="evenodd" d="M28.8953 34.4135V57.1135C28.8953 58.4063 29.9682 59.4657 31.2823 59.4657H55.8108C57.1247 59.4657 58.2016 58.4062 58.2016 57.1135V34.4135C58.2016 33.1206 57.1247 32.0649 55.8108 32.0649H31.2822C29.9682 32.0649 28.8953 33.1207 28.8953 34.4135Z" fill="#9DC6FB"/>
<path fill-rule="evenodd" clip-rule="evenodd" d="M21.9942 38.4141H9.06542C8.33129 38.4141 7.73267 39.003 7.73267 39.7216V64.948H23.3233V39.7216C23.3232 39.003 22.7246 38.4141 21.9942 38.4141Z" fill="#E29A6C"/>
<path fill-rule="evenodd" clip-rule="evenodd" d="M32.9651 23.6152H2.1604V29.6347H32.3552H55.3025C59.6548 29.6347 59.6548 31.9907 59.6548 36.5877V62.7068C59.6548 63.9403 58.6307 64.9479 57.3807 64.9479H61.4958C62.7495 64.9479 63.7736 63.9403 63.7736 62.7068V23.6152H59.6548H32.9651Z" fill="#E2D8EC"/>
<path fill-rule="evenodd" clip-rule="evenodd" d="M15.4694 10.9756C15.3377 11.7276 15.2661 11.6868 15.2661 13.2907C15.2661 14.891 15.9212 17.9729 17.0657 19.9252L19.159 21.4069L21.2598 19.9252C20.1153 17.9731 19.4565 15.706 19.4565 13.2907C19.4565 12.5017 19.528 11.7276 19.6635 10.9756H15.4694Z" fill="#FFD05B"/>
<path fill-rule="evenodd" clip-rule="evenodd" d="M21.2607 19.9255H4.28075H1.68667C0.760433 19.9255 0 20.6738 0 21.5851V24.919C0 25.834 0.760562 26.5823 1.68667 26.5823H2.16101H32.9658H63.7744H64.2487C65.1748 26.5823 65.9354 25.834 65.9354 24.919V21.585C65.9354 20.6737 65.1748 19.9254 64.2487 19.9254H61.9973H44.6747C45.8192 17.9733 46.4781 15.7062 46.4781 13.2909C46.4781 12.5019 46.4065 11.7278 46.271 10.9758C45.1604 4.73776 39.6259 0 32.9658 0C26.3093 0 20.7748 4.73776 19.6642 10.9759C19.5287 11.7279 19.4572 12.5021 19.4572 13.2911C19.4572 15.7063 20.116 17.9733 21.2607 19.9255Z" fill="#FF7E92"/>
<path fill-rule="evenodd" clip-rule="evenodd" d="M58.3974 21.5849V23.6149V24.9188C58.3974 25.8338 57.6407 26.5821 56.7107 26.5821H63.7738H64.2481C65.1742 26.5821 65.9348 25.8338 65.9348 24.9188V21.5849C65.9348 20.6736 65.1742 19.9253 64.2481 19.9253H61.9967H56.7107C57.6407 19.9254 58.3974 20.6737 58.3974 21.5849Z" fill="#FF5F7A"/>
<path fill-rule="evenodd" clip-rule="evenodd" d="M46.4777 13.2907C46.4777 15.706 45.8188 17.9729 44.6743 19.9252H48.8684C50.013 17.9731 50.6681 15.706 50.6681 13.2907C50.6681 12.5017 50.5965 11.7276 50.4647 10.9756H46.2706C46.4061 11.7276 46.4777 12.5017 46.4777 13.2907Z" fill="#FFD05B"/>
<path fill-rule="evenodd" clip-rule="evenodd" d="M55.8109 32.0649H31.2823C29.9684 32.0649 28.8953 33.1207 28.8953 34.4135V35.8026H51.7748C53.0887 35.8026 54.1618 36.8584 54.1618 38.1511V59.4658H55.8108C57.1247 59.4658 58.2016 58.4063 58.2016 57.1136V34.4136C58.2017 33.1207 57.1249 32.0649 55.8109 32.0649Z" fill="#80B4FB"/>
<path fill-rule="evenodd" clip-rule="evenodd" d="M21.9942 38.4141H9.06542C8.33129 38.4141 7.73267 39.003 7.73267 39.7216V41.2107H19.1894C19.9236 41.2107 20.5222 41.7997 20.5222 42.5183V64.948H23.3233V39.7216C23.3232 39.003 22.7246 38.4141 21.9942 38.4141Z" fill="#C6805D"/>
<path d="M18.1803 54.2099C17.6308 54.2099 17.1853 53.7717 17.1853 53.231V50.1269C17.1853 49.5862 17.6308 49.1479 18.1803 49.1479C18.7298 49.1479 19.1752 49.5862 19.1752 50.1269V53.231C19.1752 53.7717 18.7298 54.2099 18.1803 54.2099Z" fill="#615260"/>
<path d="M32.9674 9.69894C32.4179 9.69894 31.9724 9.26067 31.9724 8.72003V7.29385C31.9724 6.75321 32.4179 6.31494 32.9674 6.31494C33.5169 6.31494 33.9623 6.75321 33.9623 7.29385V8.72003C33.9623 9.26067 33.5169 9.69894 32.9674 9.69894Z" fill="#FFE077"/>
<path d="M26.4918 12.4474C26.2371 12.4474 25.9825 12.3517 25.7882 12.1607L24.7641 11.1531C24.3755 10.7708 24.3755 10.151 24.7641 9.76868C25.1527 9.38635 25.7827 9.38635 26.1713 9.76868L27.1954 10.7763C27.5839 11.1586 27.5839 11.7784 27.1954 12.1607C27.0011 12.3517 26.7464 12.4474 26.4918 12.4474Z" fill="#FFE077"/>
<path d="M39.4433 12.4474C39.1886 12.4474 38.934 12.3519 38.7397 12.1608C38.3511 11.7784 38.3511 11.1586 38.7397 10.7763L39.7637 9.76873C40.1524 9.3864 40.7822 9.38627 41.1708 9.76873C41.5594 10.1511 41.5594 10.7709 41.1708 11.1532L40.1468 12.1608C39.9525 12.3518 39.6979 12.4474 39.4433 12.4474Z" fill="#FFE077"/>
<path fill-rule="evenodd" clip-rule="evenodd" d="M37.6247 16.2101L34.8877 13.7171C34.2514 13.1355 33.6114 12.8467 32.9675 12.8467C32.862 12.8467 32.7529 12.854 32.6475 12.8689C32.1128 12.9503 31.5783 13.2319 31.0436 13.7171L28.3065 16.2101C26.5596 17.803 26.4767 21.4072 29.8087 21.4072C31.0699 21.4072 31.3034 20.7367 32.6475 20.6479C32.7491 20.6405 32.8545 20.6367 32.9675 20.6367C34.5977 20.6367 34.7708 21.4072 36.1263 21.4072C39.4545 21.4073 39.3717 17.803 37.6247 16.2101Z" fill="#FFE077"/>
</svg>
