<svg width="65" height="65" viewBox="0 0 65 65" fill="none" xmlns="http://www.w3.org/2000/svg">
<g clip-path="url(#clip0)">
<path d="M17.0836 60.145C14.4703 60.145 12.6644 58.576 11.697 57.001C10.7301 55.4261 10.5346 53.4971 11.1658 51.7604C11.7653 50.2511 11.6461 48.5515 10.8406 47.1411C10.7222 46.9443 10.4947 46.8405 10.2683 46.8791C5.97864 47.6097 2.7803 51.2807 2.68496 55.6593C2.58645 60.1664 5.94004 65.0002 15.1205 65.0002L17.0836 60.145Z" fill="#EA8857"/>
<path d="M55.4505 63.3652V64.3493C55.4505 64.7095 55.1597 65 54.7992 65H15.1212C14.7607 65 14.47 64.7095 14.47 64.3493V63.3626C14.47 61.1509 16.2664 59.3575 18.483 59.3575H20.5155L19.1457 52.0168C18.5502 48.8284 19.9937 45.7123 22.5823 44.042C23.3097 43.5728 24.1298 43.2164 25.0198 43.0058L26.4417 42.8828H43.5486L44.9006 43.0058C45.8236 43.2239 46.6716 43.5993 47.4207 44.0965C49.9572 45.7782 51.3651 48.8613 50.776 52.0167L49.4062 59.3574H51.4387C53.6541 59.3575 55.4505 61.1521 55.4505 63.3652Z" fill="#F7AA74"/>
<path d="M55.4504 63.3654V64.3495C55.4504 64.7097 55.1597 65.0002 54.7992 65.0002H52.2208C52.467 64.971 52.6587 64.7605 52.6587 64.5068V63.3667C52.6587 61.1524 50.8624 59.3577 48.6458 59.3577H46.6132L47.9831 52.0121C48.5582 48.9327 47.234 45.9219 44.8156 44.2124C44.0221 43.6518 43.1106 43.232 42.1089 42.9949L41.6379 42.8833H43.5486L44.9006 43.0063C45.8236 43.2244 46.6716 43.5998 47.4207 44.097C49.9572 45.7787 51.3651 48.8618 50.776 52.0172L49.4062 59.3579H51.4387C53.6541 59.3577 55.4504 61.1523 55.4504 63.3654Z" fill="#EA8857"/>
<path d="M47.4207 44.0966C43.9485 46.9908 39.608 48.5684 35.0326 48.5684C30.4369 48.5684 26.0659 46.9704 22.5823 44.042C23.3097 43.5728 24.1298 43.2164 25.0198 43.0058L26.4416 42.8828H43.5486L44.9006 43.0058C45.8236 43.2241 46.6716 43.5995 47.4207 44.0966Z" fill="#EA8857"/>
<path d="M43.7567 42.6118V64.6831C43.7567 64.8582 43.6145 65.0001 43.4393 65.0001H40.6133C38.8791 65.0001 37.4687 63.5923 37.4687 61.8612V52.2124C37.4687 50.8312 36.3439 49.7089 34.9601 49.7089C33.5763 49.7089 32.4515 50.8312 32.4515 52.2124V61.8612C32.4515 63.5923 31.0411 65.0001 29.3082 65.0001H26.4822C26.3057 65.0001 26.1648 64.858 26.1648 64.6831V42.5167C26.1648 42.4318 26.1978 42.3505 26.2575 42.291C26.3171 42.2314 26.4035 42.1997 26.4834 42.1997L43.4406 42.2948C43.6158 42.2961 43.7567 42.4381 43.7567 42.6118Z" fill="#FFC599"/>
<path d="M43.7567 42.6118V46.504C41.0843 47.8547 38.1123 48.5688 35.0325 48.5688C31.9018 48.5688 28.8765 47.8282 26.1648 46.4293V42.5167C26.1648 42.4318 26.1978 42.3505 26.2575 42.291C26.3171 42.2314 26.4035 42.1997 26.4834 42.1997L43.4406 42.2948C43.6158 42.2961 43.7567 42.4381 43.7567 42.6118Z" fill="#F7AA74"/>
<path d="M53.894 6.47664V31.0565C53.894 32.51 53.3277 33.8759 52.2981 34.9031L46.4304 40.7117C43.3784 43.734 39.3299 45.3979 35.0325 45.3979C30.8063 45.3979 26.8072 43.7822 23.7718 40.8474L17.6336 34.9132C17.6298 34.9107 17.626 34.9069 17.6222 34.9031C16.5938 33.8758 16.0264 32.5099 16.0264 31.0565V6.70617C16.0264 6.34474 16.232 6.01377 16.5558 5.85394L24.1222 2.10628C24.145 2.09485 24.1679 2.08343 24.192 2.07454H24.1933C31.1363 -0.690244 38.784 -0.691513 45.7283 2.07073C45.7448 2.07835 45.7626 2.0847 45.7778 2.09231L53.3442 5.61425C53.6794 5.77027 53.894 6.10632 53.894 6.47664Z" fill="#FFC599"/>
<path d="M53.8939 6.47677V31.0567C53.8939 32.5102 53.3277 33.876 52.2981 34.9032L46.4303 40.7118C45.5925 41.5412 44.6809 42.268 43.7085 42.8857C41.1377 44.5217 38.1505 45.3981 35.0325 45.3981V20.8764C35.0325 20.8764 36.3769 11.2605 33.0343 9.14126C30.6602 7.63585 28.6099 9.99096 26.3959 8.50967C23.801 6.77346 23.754 4.07456 24.192 2.07454H24.1932C31.1363 -0.690244 38.784 -0.691513 45.7283 2.07073C45.7448 2.07835 45.7626 2.0847 45.7778 2.09231L50.3011 4.19758L53.3442 5.61425C53.6794 5.7704 53.8939 6.10645 53.8939 6.47677Z" fill="#FFECE1"/>
<path d="M53.3442 5.61442L50.3012 4.19775V29.4727C50.3012 30.9262 49.2284 33.2305 48.228 35.1215C46.9471 37.5439 43.7085 42.8857 43.7085 42.8857C44.681 42.2681 45.5925 41.5414 46.4304 40.7119L52.2981 34.9033C53.3277 33.876 53.8939 32.5101 53.8939 31.0567V6.47682C53.8939 6.10649 53.6794 5.77045 53.3442 5.61442Z" fill="#FFD2BB"/>
<path d="M31.4646 32.3454V33.6553C31.4646 35.5808 33.0327 37.1474 34.9602 37.1474C36.8878 37.1474 38.4559 35.5808 38.4559 33.6553V32.3454L34.9602 31.0771L31.4646 32.3454Z" fill="#FF6248"/>
<path d="M27.0081 17.1739C27.0081 16.2983 27.7219 15.586 28.5993 15.586C29.4767 15.586 30.1907 16.2983 30.1907 17.1739C30.1907 17.6992 30.617 18.125 31.1428 18.125C31.6686 18.125 32.0949 17.6991 32.0949 17.1739C32.0949 15.2494 30.5268 13.6836 28.5993 13.6836C26.6718 13.6836 25.1038 15.2493 25.1038 17.1739C25.1038 17.6992 25.5301 18.125 26.0559 18.125C26.5817 18.125 27.0081 17.6992 27.0081 17.1739Z" fill="#EA8857"/>
<path d="M41.3211 13.6836C39.3936 13.6836 37.8254 15.2493 37.8254 17.1739C37.8254 17.6992 38.2517 18.125 38.7776 18.125C39.3034 18.125 39.7297 17.6991 39.7297 17.1739C39.7297 16.2983 40.4436 15.586 41.3211 15.586C42.1986 15.586 42.9125 16.2983 42.9125 17.1739C42.9125 17.6992 43.3388 18.125 43.8646 18.125C44.3904 18.125 44.8167 17.6991 44.8167 17.1739C44.8167 15.2494 43.2486 13.6836 41.3211 13.6836Z" fill="#EA8857"/>
<path d="M42.5861 28.7889C42.0603 28.7889 41.634 29.2148 41.634 29.74C41.634 30.6156 40.9201 31.3279 40.0426 31.3279H37.5036C36.6261 31.3279 35.9122 30.6156 35.9122 29.74V24.6733C35.9122 24.148 35.4859 23.7222 34.9601 23.7222C34.4342 23.7222 34.0079 24.1481 34.0079 24.6733V29.74C34.0079 30.6156 33.2941 31.3279 32.4166 31.3279H29.8775C29 31.3279 28.2861 30.6156 28.2861 29.74C28.2861 29.2147 27.8598 28.7889 27.334 28.7889C26.8081 28.7889 26.3818 29.2148 26.3818 29.74C26.3818 31.6645 27.95 33.2303 29.8775 33.2303H32.4166C33.4178 33.2303 34.3221 32.8077 34.9601 32.1318C35.598 32.8077 36.5023 33.2303 37.5036 33.2303H40.0426C41.9702 33.2303 43.5383 31.6646 43.5383 29.74C43.5383 29.2147 43.112 28.7889 42.5861 28.7889Z" fill="#EA8857"/>
<path d="M38.8537 21.2887C38.8029 21.0747 38.6444 20.9021 38.4353 20.8331C36.1945 20.0928 33.7263 20.0927 31.4853 20.8331C31.2762 20.9021 31.1178 21.0745 31.067 21.2887C31.0161 21.5029 31.0801 21.728 31.2357 21.8836L34.5113 25.1561C34.6304 25.275 34.7918 25.3418 34.9603 25.3418C35.1287 25.3418 35.2901 25.275 35.4092 25.1561L38.6849 21.8836C38.8406 21.728 38.9046 21.5029 38.8537 21.2887Z" fill="#4A555B"/>
<path d="M22.9191 0.0900336C22.4857 0.0666743 21.9965 0.0601997 21.4456 0.0742914C15.4531 0.228793 2.58262 9.80156 9.68463 16.8238C16.7873 23.8461 10.5013 29.1237 13.782 30.1632C18.0265 31.5079 20.8933 14.9369 21.0067 8.98018C21.0669 5.8292 22.4879 4.11876 23.8134 3.20648C25.1503 2.28594 24.5406 0.177885 22.9191 0.0900336Z" fill="#EA8857"/>
<path d="M48.4751 0.0733149C47.9241 0.0592231 47.435 0.0656977 47.0016 0.0890571C45.3801 0.176909 44.7704 2.28509 46.1076 3.20538C47.433 4.11779 48.8541 5.82823 48.9141 8.97908C49.0276 14.9358 51.8944 31.5069 56.1388 30.1621C59.4194 29.1226 53.1334 23.845 60.2361 16.8227C67.3381 9.80059 54.4674 0.227817 48.4751 0.0733149Z" fill="#EA8857"/>
<path d="M31.0652 29.3505C31.591 29.3505 32.0173 28.9247 32.0173 28.3994C32.0173 27.8741 31.591 27.4482 31.0652 27.4482C30.5393 27.4482 30.113 27.8741 30.113 28.3994C30.113 28.9247 30.5393 29.3505 31.0652 29.3505Z" fill="#F7AA74"/>
<path d="M38.855 29.3515C39.3808 29.3515 39.8071 28.9256 39.8071 28.4004C39.8071 27.8751 39.3808 27.4492 38.855 27.4492C38.3291 27.4492 37.9028 27.8751 37.9028 28.4004C37.9028 28.9256 38.3291 29.3515 38.855 29.3515Z" fill="#F7AA74"/>
</g>
<defs>
<clipPath id="clip0">
<rect width="65" height="65" fill="white"/>
</clipPath>
</defs>
</svg>
