<svg width="44" height="66" viewBox="0 0 44 66" fill="none" xmlns="http://www.w3.org/2000/svg">
<path d="M1.30944 61.8055C1.30944 62.8902 2.18886 63.7696 3.2736 63.7696H39.8097C40.8944 63.7696 41.7738 62.8902 41.7738 61.8055V1.96416C41.7738 0.879419 40.8944 0 39.8097 0H1.96416C0.879419 0 0 0.879419 0 1.96416V51.8793L1.30944 61.8055Z" fill="#EDF5FA"/>
<path d="M42.0357 0H38.1074C39.1922 0 40.0716 0.879419 40.0716 1.96416V63.1149C40.0716 64.1997 39.1922 64.8172 38.1074 64.8172H40.7263C41.811 64.8172 42.6905 64.1997 42.6905 63.1149L43.9999 51.8793V1.96416C43.9999 0.879419 43.1205 0 42.0357 0Z" fill="#D0E7F2"/>
<path d="M17.202 43.1656H7.42809C6.70489 43.1656 6.11865 42.5794 6.11865 41.8562V30.7728C6.11865 30.0496 6.70489 29.4634 7.42809 29.4634H17.202C17.9252 29.4634 18.5114 30.0496 18.5114 30.7728V41.8562C18.5114 42.5794 17.9252 43.1656 17.202 43.1656Z" fill="#77CC7D"/>
<path d="M18.5114 29.4634H15.6306C16.3538 29.4634 16.9401 30.0496 16.9401 30.7728V41.8562C16.9401 42.5794 16.3538 43.1656 15.6306 43.1656H18.5114C19.2346 43.1656 19.8208 42.5794 19.8208 41.8562V30.7728C19.8208 30.0495 19.2346 29.4634 18.5114 29.4634Z" fill="#52BD7E"/>
<path d="M35.2623 43.1656H25.4884C24.7652 43.1656 24.179 42.5794 24.179 41.8562V30.7728C24.179 30.0496 24.7652 29.4634 25.4884 29.4634H35.2623C35.9855 29.4634 36.5717 30.0496 36.5717 30.7728V41.8562C36.5717 42.5794 35.9854 43.1656 35.2623 43.1656Z" fill="#F7AA74"/>
<path d="M36.5717 29.4634H33.6909C34.4141 29.4634 35.0004 30.0496 35.0004 30.7728V41.8562C35.0004 42.5794 34.4141 43.1656 33.6909 43.1656H36.5717C37.2949 43.1656 37.8811 42.5794 37.8811 41.8562V30.7728C37.8811 30.0495 37.2948 29.4634 36.5717 29.4634Z" fill="#EA8857"/>
<path d="M35.2623 25.066H25.4884C24.7652 25.066 24.179 24.4798 24.179 23.7566V12.6732C24.179 11.95 24.7652 11.3638 25.4884 11.3638H35.2623C35.9855 11.3638 36.5717 11.95 36.5717 12.6732V23.7566C36.5717 24.4798 35.9854 25.066 35.2623 25.066Z" fill="#FFE077"/>
<path d="M36.5717 11.3638H33.6909C34.4141 11.3638 35.0004 11.95 35.0004 12.6732V23.7566C35.0004 24.4798 34.4141 25.066 33.6909 25.066H36.5717C37.2949 25.066 37.8811 24.4798 37.8811 23.7566V12.6732C37.8811 11.95 37.2948 11.3638 36.5717 11.3638Z" fill="#FFD05B"/>
<path d="M0 51.8789V63.1145C0 64.1993 0.879419 65.0787 1.96416 65.0787H39.5478C40.6325 65.0787 41.5119 64.1993 41.5119 63.1145V51.8789H0Z" fill="#9DC6FB"/>
<path d="M28.8195 4.9539H15.1806C14.6382 4.9539 14.1985 4.51419 14.1985 3.97182C14.1985 3.42946 14.6382 2.98975 15.1806 2.98975H28.8195C29.362 2.98975 29.8016 3.42946 29.8016 3.97182C29.8016 4.51419 29.362 4.9539 28.8195 4.9539Z" fill="#80B4FB"/>
<path d="M40.0716 51.8789V63.1145C40.0716 64.1993 39.1922 65.0787 38.1074 65.0787H42.0357C43.1205 65.0787 43.9999 64.1993 43.9999 63.1145V51.8789H40.0716Z" fill="#80B4FB"/>
<path d="M22 61.1879C23.4959 61.1879 24.7087 59.9752 24.7087 58.4792C24.7087 56.9832 23.4959 55.7705 22 55.7705C20.504 55.7705 19.2913 56.9832 19.2913 58.4792C19.2913 59.9752 20.504 61.1879 22 61.1879Z" fill="#EDF5FA"/>
<path d="M17.202 25.066H7.42809C6.70489 25.066 6.11865 24.4798 6.11865 23.7566V12.6732C6.11865 11.95 6.70489 11.3638 7.42809 11.3638H17.202C17.9252 11.3638 18.5114 11.95 18.5114 12.6732V23.7566C18.5114 24.4798 17.9252 25.066 17.202 25.066Z" fill="#FF7E92"/>
<path d="M18.5114 11.3638H15.6306C16.3538 11.3638 16.9401 11.95 16.9401 12.6732V23.7566C16.9401 24.4798 16.3538 25.066 15.6306 25.066H18.5114C19.2346 25.066 19.8208 24.4798 19.8208 23.7566V12.6732C19.8208 11.95 19.2346 11.3638 18.5114 11.3638Z" fill="#FF5F7A"/>
</svg>
