<svg width="86" height="65" viewBox="0 0 86 65" fill="none" xmlns="http://www.w3.org/2000/svg">
<path d="M41.5819 28.5195V64.3349H0.826218C0.279643 64.3349 -0.116957 63.8131 0.0313511 63.2865L1.02618 59.723L1.72273 57.2229L4.73556 46.4272L1.68941 35.5099L0.992857 33.0098L0.0313511 29.5662C-0.116957 29.0411 0.279643 28.5195 0.826218 28.5195H41.5819Z" fill="#FF7E92"/>
<path d="M41.5818 28.519V64.3344H11.3495C8.29838 59.0391 6.552 52.8955 6.552 46.3434C6.552 39.8613 8.26171 33.7777 11.2545 28.519H41.5818Z" fill="#FF5F7A"/>
<path d="M17.5817 33.0093V35.5094H1.68923L0.992676 33.0093H17.5817Z" fill="#E9C3DF"/>
<path d="M37.5818 57.2222V59.7224H1.02612L1.72267 57.2222H37.5818Z" fill="#E9C3DF"/>
<path d="M17.5819 33.0093V35.5094H8.20679C8.47341 34.6627 8.77003 33.8276 9.09664 33.0093H17.5819Z" fill="#FBB1C6"/>
<path d="M8.22168 57.2222H17.5818V59.7222H9.11486C8.78659 58.9041 8.4883 58.0705 8.22168 57.2222Z" fill="#FBB1C6"/>
<path d="M42.7383 28.519V64.3344H84.4938C85.0404 64.3344 85.437 63.8126 85.2887 63.2861L84.2938 59.7225L83.5973 57.2224L80.5845 46.4267L83.6306 35.5094L84.3272 33.0093L85.2887 29.5657C85.437 29.0406 85.0404 28.519 84.4938 28.519H42.7383Z" fill="#FF7E92"/>
<path d="M40.7383 28.519V64.3344H73.9706C77.0217 59.0391 78.7681 52.8955 78.7681 46.3434C78.7681 39.8613 77.0584 33.7777 74.0656 28.519H40.7383Z" fill="#FF5F7A"/>
<path d="M47.7378 33.0093V35.5094H83.6303L84.3268 33.0093H47.7378Z" fill="#E9C3DF"/>
<path d="M47.7373 57.2222V59.7224H84.293L83.5965 57.2222H47.7373Z" fill="#E9C3DF"/>
<path d="M67.7373 33.0093V35.5094H77.1124C76.8458 34.6627 76.5492 33.8276 76.2225 33.0093H67.7373Z" fill="#FBB1C6"/>
<path d="M77.0976 57.2222H67.7375V59.7222H76.2045C76.5327 58.9041 76.831 58.0705 77.0976 57.2222Z" fill="#FBB1C6"/>
<path d="M74.6705 32.9678C74.6705 41.8033 71.0744 49.8138 65.267 55.6142C59.4647 61.4112 51.4575 64.9997 42.6257 64.9997C42.0108 64.9997 41.4009 64.9831 40.7943 64.9481C32.6907 64.4897 25.3836 61.0079 19.9845 55.6142C14.1771 49.8138 10.5811 41.8033 10.5811 32.9678C10.5811 24.1373 14.1755 16.1301 19.9778 10.3298C25.3769 4.93283 32.6857 1.44758 40.7943 0.989159C41.4009 0.954165 42.0108 0.9375 42.6257 0.9375C51.4609 0.9375 59.4712 4.5294 65.2735 10.3298C71.0761 16.1301 74.6705 24.1373 74.6705 32.9678Z" fill="#FFE8A7"/>
<path d="M65.2738 10.3302L63.3791 12.2254L42.6342 32.9766L42.6259 32.9833L19.978 10.3302C25.3771 4.93332 32.6859 1.44807 40.7945 0.989647C41.4011 0.954653 42.011 0.937988 42.6259 0.937988C51.4609 0.937988 59.4714 4.52989 65.2738 10.3302Z" fill="#FFE26F"/>
<path d="M65.2669 55.6137C59.4646 61.4107 51.4574 64.9992 42.6256 64.9992C42.0107 64.9992 41.4008 64.9826 40.7942 64.9476C32.6906 64.4892 25.3835 61.0074 19.9844 55.6137L42.6191 32.9756L42.6257 32.9673L65.2669 55.6137Z" fill="#FFE26F"/>
<path d="M74.6706 32.9673C74.6706 41.8028 71.0745 49.8133 65.2672 55.6137C59.4648 61.4107 51.4576 64.9993 42.6258 64.9993C42.0109 64.9993 41.401 64.9826 40.7944 64.9476C57.6383 63.9976 71.0045 50.0434 71.0045 32.9673C71.0045 15.893 57.6384 1.93868 40.7944 0.988671C41.401 0.953676 42.0109 0.937012 42.6258 0.937012C51.461 0.937012 59.4713 4.52891 65.2737 10.3293C71.0762 16.1296 74.6706 24.1368 74.6706 32.9673Z" fill="#FFE26F"/>
<path d="M63.3725 53.7188L65.2672 55.6138C59.4648 61.4108 51.4576 64.9994 42.6258 64.9994C42.0109 64.9994 41.401 64.9827 40.7944 64.9477C49.8296 64.4376 57.8634 60.1857 63.3725 53.7188Z" fill="#FFC54B"/>
<path d="M40.7944 0.988671C41.401 0.953676 42.0109 0.937012 42.6258 0.937012C51.461 0.937012 59.4713 4.52891 65.2737 10.3293L63.379 12.2245C57.8701 5.75237 49.8329 1.49875 40.7944 0.988671Z" fill="#FFC54B"/>
<path d="M67.1019 32.9677C67.1019 46.4801 56.1437 57.4324 42.6258 57.4324C42.0659 57.4324 41.5093 57.4141 40.9594 57.3757C28.2182 56.5207 18.1499 45.92 18.1499 32.9677C18.1499 20.0168 28.2182 9.41461 40.9594 8.55959C41.5093 8.52126 42.0659 8.50293 42.6258 8.50293C56.1437 8.50293 67.1019 19.4569 67.1019 32.9677Z" fill="#FFC54B"/>
<path d="M67.1017 32.9677C67.1017 46.4801 56.1435 57.4324 42.6256 57.4324C42.0657 57.4324 41.5091 57.4141 40.9592 57.3757C53.7004 56.5207 63.7687 45.92 63.7687 32.9677C63.7687 20.0168 53.7004 9.41461 40.9592 8.55959C41.5091 8.52126 42.0657 8.50293 42.6256 8.50293C56.1435 8.50293 67.1017 19.4569 67.1017 32.9677Z" fill="#FEAC38"/>
<path d="M55.175 15.9529C54.6194 15.5429 53.8371 15.6607 53.4273 16.2163C53.0175 16.7719 53.1355 17.5546 53.6908 17.9645C55.233 19.1028 56.5869 20.4663 57.7154 22.0168C57.96 22.3531 58.3408 22.5314 58.7269 22.5314C58.9819 22.5314 59.2393 22.4536 59.4613 22.292C60.0194 21.8855 60.1425 21.1037 59.7362 20.5456C58.4575 18.7882 56.9227 17.243 55.175 15.9529Z" fill="#FFE26F"/>
<path d="M30.3224 15.7739C28.4731 17.0985 26.8559 18.7039 25.5156 20.5455C25.1093 21.1037 25.2325 21.8856 25.7905 22.2918C26.0125 22.4535 26.2698 22.5313 26.5249 22.5313C26.911 22.5313 27.2918 22.3528 27.5364 22.0167C28.719 20.3917 30.146 18.9752 31.7777 17.8064C32.3389 17.4045 32.4681 16.6236 32.0661 16.0622C31.6645 15.5011 30.8838 15.3718 30.3224 15.7739Z" fill="#FFE26F"/>
<path d="M59.4611 43.6438C58.9028 43.2373 58.1213 43.3608 57.715 43.9189C56.5866 45.4695 55.2326 46.8327 53.6904 47.9712C53.135 48.3811 53.017 49.1638 53.4269 49.7194C53.6721 50.0515 54.0502 50.2273 54.4336 50.2273C54.6914 50.2273 54.9513 50.1478 55.1748 49.983C56.9227 48.6929 58.4573 47.1477 59.7362 45.3905C60.1423 44.8319 60.0192 44.05 59.4611 43.6438Z" fill="#FFE26F"/>
<path d="M31.7779 48.1286C30.1462 46.96 28.7193 45.5434 27.5366 43.9183C27.1306 43.3604 26.349 43.2368 25.7908 43.6434C25.2327 44.0496 25.1096 44.8315 25.5158 45.3896C26.8561 47.2313 28.4733 48.8367 30.3227 50.1611C30.5431 50.3189 30.7974 50.3949 31.0492 50.3949C31.4387 50.3949 31.8224 50.2134 32.0664 49.8726C32.4682 49.3114 32.3392 48.5305 31.7779 48.1286Z" fill="#FFE26F"/>
<path d="M42.6259 14.3295C43.3163 14.3295 43.8759 13.7699 43.8759 13.0795C43.8759 12.3892 43.3163 11.8296 42.6259 11.8296C41.9356 11.8296 41.376 12.3892 41.376 13.0795C41.376 13.7699 41.9356 14.3295 42.6259 14.3295Z" fill="#FFE26F"/>
<path d="M35.8203 15.5287C36.5106 15.5287 37.0702 14.9691 37.0702 14.2788C37.0702 13.5884 36.5106 13.0288 35.8203 13.0288C35.1299 13.0288 34.5703 13.5884 34.5703 14.2788C34.5703 14.9691 35.1299 15.5287 35.8203 15.5287Z" fill="#FFE26F"/>
<path d="M49.4314 15.5287C50.1217 15.5287 50.6813 14.9691 50.6813 14.2788C50.6813 13.5884 50.1217 13.0288 49.4314 13.0288C48.741 13.0288 48.1814 13.5884 48.1814 14.2788C48.1814 14.9691 48.741 15.5287 49.4314 15.5287Z" fill="#FFE26F"/>
<path d="M42.6259 54.1064C43.3163 54.1064 43.8759 53.5467 43.8759 52.8564C43.8759 52.1661 43.3163 51.6064 42.6259 51.6064C41.9356 51.6064 41.376 52.1661 41.376 52.8564C41.376 53.5467 41.9356 54.1064 42.6259 54.1064Z" fill="#FFE26F"/>
<path d="M35.8203 52.9071C36.5106 52.9071 37.0702 52.3475 37.0702 51.6572C37.0702 50.9668 36.5106 50.4072 35.8203 50.4072C35.1299 50.4072 34.5703 50.9668 34.5703 51.6572C34.5703 52.3475 35.1299 52.9071 35.8203 52.9071Z" fill="#FFE26F"/>
<path d="M49.4314 52.9071C50.1217 52.9071 50.6813 52.3475 50.6813 51.6572C50.6813 50.9669 50.1217 50.4072 49.4314 50.4072C48.741 50.4072 48.1814 50.9669 48.1814 51.6572C48.1814 52.3475 48.741 52.9071 49.4314 52.9071Z" fill="#FFE26F"/>
<path d="M62.5227 34.2182C63.213 34.2182 63.7726 33.6585 63.7726 32.9682C63.7726 32.2779 63.213 31.7183 62.5227 31.7183C61.8323 31.7183 61.2727 32.2779 61.2727 32.9682C61.2727 33.6585 61.8323 34.2182 62.5227 34.2182Z" fill="#FFE26F"/>
<path d="M61.3234 27.411C62.0138 27.411 62.5734 26.8514 62.5734 26.1611C62.5734 25.4708 62.0138 24.9111 61.3234 24.9111C60.6331 24.9111 60.0735 25.4708 60.0735 26.1611C60.0735 26.8514 60.6331 27.411 61.3234 27.411Z" fill="#FFE26F"/>
<path d="M61.3237 41.0258C62.014 41.0258 62.5736 40.4662 62.5736 39.7758C62.5736 39.0855 62.014 38.5259 61.3237 38.5259C60.6334 38.5259 60.0737 39.0855 60.0737 39.7758C60.0737 40.4662 60.6334 41.0258 61.3237 41.0258Z" fill="#FFE26F"/>
<path d="M22.7548 34.2182C23.4452 34.2182 24.0048 33.6585 24.0048 32.9682C24.0048 32.2779 23.4452 31.7183 22.7548 31.7183C22.0645 31.7183 21.5049 32.2779 21.5049 32.9682C21.5049 33.6585 22.0645 34.2182 22.7548 34.2182Z" fill="#FFE26F"/>
<path d="M23.9541 27.411C24.6444 27.411 25.204 26.8514 25.204 26.1611C25.204 25.4708 24.6444 24.9111 23.9541 24.9111C23.2637 24.9111 22.7041 25.4708 22.7041 26.1611C22.7041 26.8514 23.2637 27.411 23.9541 27.411Z" fill="#FFE26F"/>
<path d="M23.9538 41.0258C24.6441 41.0258 25.2038 40.4662 25.2038 39.7758C25.2038 39.0855 24.6441 38.5259 23.9538 38.5259C23.2635 38.5259 22.7039 39.0855 22.7039 39.7758C22.7039 40.4662 23.2635 41.0258 23.9538 41.0258Z" fill="#FFE26F"/>
<path d="M55.6194 28.5933C55.4597 28.1096 55.0226 27.7711 54.5145 27.7378L46.7217 27.2254L43.782 19.839C43.5927 19.3634 43.1328 19.0513 42.6209 19.0513C42.109 19.0513 41.649 19.3634 41.4596 19.8391L38.5202 27.2256L30.7367 27.738C30.2286 27.7715 29.7917 28.1096 29.6321 28.5932C29.4722 29.0768 29.6217 29.6087 30.0098 29.9383L35.9888 35.0161L34.0243 42.7288C33.8978 43.2249 34.0868 43.748 34.5007 44.0487C34.7192 44.2074 34.977 44.2874 35.2354 44.2874C35.4667 44.2874 35.6987 44.2232 35.903 44.0941L42.6209 39.8468L49.3389 44.0941C49.7712 44.3675 50.3271 44.3497 50.7412 44.0487C51.1553 43.7478 51.3441 43.2249 51.2176 42.7288L49.2533 35.0166L55.2407 29.9388C55.6293 29.6092 55.779 29.0769 55.6194 28.5933Z" fill="#FFE8A7"/>
</svg>
