<svg width="65" height="65" viewBox="0 0 65 65" fill="none" xmlns="http://www.w3.org/2000/svg">
<path d="M38.6905 43.0688L27.258 43.2583L24.8315 54.1774L33.2691 58.8096L41.444 48.4322L38.6905 43.0688Z" fill="#FFD18D"/>
<path d="M24.242 50.3779C26.4537 49.5975 28.0153 47.6366 28.3189 45.3555C28.364 45.0168 28.5068 44.6989 28.7604 44.4698C29.0793 44.1813 29.5128 44.0694 29.9364 44.1425C30.7698 44.2865 31.6252 44.3648 32.4999 44.3648C34.7024 44.3648 36.7936 43.8977 38.6904 43.0685V39.2061H26.3094V44.5401C26.3094 46.2899 25.206 47.8494 23.5559 48.4319L24.242 50.3779Z" fill="#FBBD80"/>
<path d="M52.1 52.193L42.0154 48.6338L35.7566 50.7738C35.4446 51.1783 35.1925 51.6294 35.0109 52.1134L33.466 56.2333C33.1313 57.1259 31.8687 57.1259 31.5339 56.2333L29.989 52.1134C29.8081 51.6309 29.557 51.1814 29.2465 50.7779L23.5561 48.9904L12.9 52.7514C10.425 53.6248 9.39038 55.9643 9.39038 58.5888V61.9046L10.8333 64.8237C11.156 64.9378 11.5033 64.9998 11.8651 64.9998H44.8809L46.9444 63.621L49.0079 65H53.1349C54.8443 65 56.2301 63.6141 56.2301 61.9047V58.0305C56.2301 55.406 54.5749 53.0665 52.1 52.193Z" fill="#77CC7D"/>
<path d="M13.587 54.1389L24.2431 50.3782L23.5559 48.4321L12.8999 52.1931C10.4249 53.0665 8.76978 55.406 8.76978 58.0307V61.9048C8.76978 63.2505 9.63382 64.3976 10.8333 64.8239V58.0307C10.8333 56.284 11.9397 54.7199 13.587 54.1389Z" fill="#52BD7E"/>
<path d="M28.0202 49.6327L23.918 46.8979C23.5088 46.6251 22.9639 46.6791 22.6161 47.0268L20.1189 49.5239L22.6369 54.56C22.9327 55.1516 23.7011 55.3161 24.213 54.8971L29.2462 50.7781C28.9048 50.3343 28.4918 49.9472 28.0202 49.6327Z" fill="#9AE59C"/>
<path d="M36.9851 49.6327L41.0873 46.8979C41.4965 46.6251 42.0415 46.6791 42.3892 47.0268L44.8864 49.5239L42.3684 54.56C42.0726 55.1516 41.3042 55.3161 40.7923 54.8971L35.7568 50.774C36.0983 50.3302 36.5135 49.9472 36.9851 49.6327Z" fill="#9AE59C"/>
<path d="M46.4833 35.5098L39.6675 36.6405V43.9747C39.6675 45.7245 40.7708 47.284 42.421 47.8665L44.4813 48.5937C45.3064 48.8849 45.858 49.6647 45.858 50.5395L46.9446 65H49.0081C49.0081 56.746 52.1033 54.6825 52.1033 48.492C52.1033 41.8 48.0268 39.855 46.4833 35.5098Z" fill="#D48C64"/>
<path d="M44.1907 47.2128L42.1307 46.486C41.3057 46.1949 40.7539 45.4152 40.7539 44.5402V43.0593C40.7539 42.4169 41.0396 41.795 41.56 41.4182C43.658 39.8991 45.36 37.8686 46.4832 35.5095C46.1228 34.4951 45.8993 33.351 45.8993 31.9839H45.9127L46.9444 30.9522V27.8569H38.6904V44.5402C38.6904 46.29 39.7939 47.8496 41.4439 48.432L43.5041 49.159C44.3292 49.4503 44.8809 50.23 44.8809 51.105V64.9999H46.9444V51.1043C46.9444 49.3545 45.8408 47.7951 44.1907 47.2128Z" fill="#C6805D"/>
<path d="M32.5 42.1758C25.0924 42.1758 20.2268 36.2964 20.2268 28.8888V12.3809H45.9127V28.8888C45.9127 35.5885 41.0007 41.141 34.5814 42.141C33.9031 42.2466 33.2079 42.1758 32.5 42.1758Z" fill="#FFE09C"/>
<path d="M39.5206 12.3809H17.2764L19.0872 28.8888C19.0872 36.2964 25.0924 42.3016 32.4999 42.3016C33.2035 42.3016 33.907 42.2454 34.5813 42.1411C28.156 41.1463 23.2143 35.593 23.2143 28.889V27.3531C23.2143 26.0066 24.0931 24.8384 25.369 24.4083C31.5682 22.3181 36.6671 17.9861 39.5206 12.3809Z" fill="#FFD18D"/>
<path d="M39.7222 5.15869L35.5952 13.4127C37.3666 15.6092 41.0523 18.5913 43.9434 20.7842C45.1875 21.7278 45.9127 23.2004 45.9127 24.7619H47.9762V13.4127C47.9762 8.85417 44.2807 5.15869 39.7222 5.15869Z" fill="#D48C64"/>
<path d="M26.3093 27.8574C25.7391 27.8574 25.2776 27.3955 25.2776 26.8257V25.794C25.2776 25.2242 25.7391 24.7622 26.3093 24.7622C26.8796 24.7622 27.3411 25.2242 27.3411 25.794V26.8257C27.3411 27.3955 26.8796 27.8574 26.3093 27.8574Z" fill="#4E3D4D"/>
<path d="M27.3413 23.73H25.2778C24.7076 23.73 24.2461 23.268 24.2461 22.6982C24.2461 22.1285 24.7076 21.6665 25.2778 21.6665H27.3413C27.9116 21.6665 28.3731 22.1285 28.3731 22.6982C28.3731 23.268 27.9116 23.73 27.3413 23.73Z" fill="#C6805D"/>
<path d="M18.0554 23.73C29.0317 23.2396 38.1943 15.3391 39.7221 5.15869H36.4339L34.9613 5.91317L34.3273 5.15869H25.2777C20.7192 5.15869 17.0237 8.85417 17.0237 13.4127V23.73H18.0554Z" fill="#C6805D"/>
<path d="M38.6904 27.8574C38.1202 27.8574 37.6587 27.3955 37.6587 26.8257V25.794C37.6587 25.2242 38.1202 24.7622 38.6904 24.7622C39.2607 24.7622 39.7222 25.2242 39.7222 25.794V26.8257C39.7222 27.3955 39.2607 27.8574 38.6904 27.8574Z" fill="#4E3D4D"/>
<path d="M39.7222 23.73H37.6587C37.0884 23.73 36.627 23.268 36.627 22.6982C36.627 22.1285 37.0884 21.6665 37.6587 21.6665H39.7222C40.2925 21.6665 40.7539 22.1285 40.7539 22.6982C40.7539 23.268 40.2925 23.73 39.7222 23.73Z" fill="#D48C64"/>
<path d="M28.3299 31.9844C27.7956 31.9844 27.4599 32.5384 27.6785 33.0259C28.4932 34.8426 30.3452 36.1114 32.5001 36.1114C34.655 36.1114 36.5071 34.8426 37.3216 33.0259C37.5403 32.5383 37.2046 31.9844 36.6702 31.9844H28.3299Z" fill="white"/>
<path d="M53.1349 24.762H51.0714V13.4127C51.0714 7.1547 45.9802 2.0635 39.7222 2.0635H25.2777C19.0197 2.0635 13.9285 7.1547 13.9285 13.4127V24.762H11.865V13.4127C11.865 6.01669 17.8822 0 25.2777 0H39.7222C47.1177 0 53.1349 6.01669 53.1349 13.4127V24.762Z" fill="#B8B2B8"/>
<path d="M52.1033 23.73H47.9763V31.984H52.1033C53.243 31.984 54.1668 31.0601 54.1668 29.9205L52.1033 23.73Z" fill="#52BD7E"/>
<path d="M54.1668 29.9205V25.7935C54.1668 24.6538 53.2429 23.73 52.1033 23.73V27.857C52.1033 28.9965 53.0271 29.9205 54.1668 29.9205Z" fill="#77CC7D"/>
<path d="M24.246 41.27H21.1507C16.5996 41.27 12.8967 37.5671 12.8967 33.016V30.9526H14.9602V33.0161C14.9602 36.4298 17.7371 39.2066 21.1507 39.2066H24.246V41.27Z" fill="#B8B2B8"/>
<path d="M26.3094 38.1743H25.2776C24.1379 38.1743 23.2141 39.0982 23.2141 40.2378C23.2141 41.3775 24.1379 42.3013 25.2776 42.3013H26.3094C27.449 42.3013 28.3729 41.3775 28.3729 40.2378C28.3729 39.0983 27.449 38.1743 26.3094 38.1743Z" fill="#615260"/>
<path d="M12.8967 23.73L10.8333 29.9205C10.8333 31.0601 11.7571 31.984 12.8967 31.984H17.0237V23.73H12.8967Z" fill="#52BD7E"/>
<path d="M10.8333 29.9205V25.7935C10.8333 24.6538 11.7571 23.73 12.8967 23.73V27.857C12.8967 28.9965 11.9729 29.9205 10.8333 29.9205Z" fill="#77CC7D"/>
<path d="M18.0554 31.984H17.0237C16.4539 31.984 15.9919 31.522 15.9919 30.9522V23.73C15.9919 23.1602 16.4539 22.6982 17.0237 22.6982H18.0554C18.6252 22.6982 19.0872 23.1602 19.0872 23.73V30.9522C19.0872 31.522 18.6253 31.984 18.0554 31.984Z" fill="#615260"/>
<path d="M19.0872 30.9522C17.9475 30.9522 17.0237 30.0284 17.0237 28.8887V22.6982H15.992C15.4222 22.6982 14.9602 23.1602 14.9602 23.73V31.984C14.9602 32.5537 15.4222 33.0157 15.992 33.0157H18.0554C18.6252 33.0157 19.0872 32.5537 19.0872 31.984V30.9522Z" fill="#4E3D4D"/>
<path d="M49.0081 31.984H47.9763C47.4066 31.984 46.9446 31.522 46.9446 30.9522V23.73C46.9446 23.1602 47.4066 22.6982 47.9763 22.6982H49.0081C49.5778 22.6982 50.0398 23.1602 50.0398 23.73V30.9522C50.0398 31.522 49.5778 31.984 49.0081 31.984Z" fill="#615260"/>
<path d="M50.0396 30.9522C48.8999 30.9522 47.9761 30.0284 47.9761 28.8887V22.6982H46.9443C46.3746 22.6982 45.9126 23.1602 45.9126 23.73V31.984C45.9126 32.5537 46.3746 33.0157 46.9443 33.0157H49.0078C49.5776 33.0157 50.0396 32.5537 50.0396 31.984V30.9522Z" fill="#4E3D4D"/>
<path d="M34.3274 5.15869C32.7239 11.8779 27.4859 17.0934 20.9604 18.3169C20.4002 18.4216 20.0315 18.9612 20.1372 19.5209C20.2299 20.0172 20.6632 20.3627 21.1498 20.3627C21.2123 20.3627 21.2768 20.3571 21.3413 20.3451C28.8208 18.9426 34.7814 12.8908 36.4341 5.15869H34.3274Z" fill="#D48C64"/>
</svg>
