<svg width="26" height="15" viewBox="0 0 26 15" fill="none" xmlns="http://www.w3.org/2000/svg">
<path d="M26 13.72H0V14.8571H26V13.72Z" fill="#CB001C"/>
<path d="M26 12.583H0V13.7201H26V12.583Z" fill="#F4F4F4"/>
<path d="M26 11.446H0V12.583H26V11.446Z" fill="#CB001C"/>
<path d="M26 10.3089H0V11.4459H26V10.3089Z" fill="#F4F4F4"/>
<path d="M26 9.09622H0V10.2333H26V9.09622Z" fill="#CB001C"/>
<path d="M26 7.95924H0V9.0963H26V7.95924Z" fill="#F4F4F4"/>
<path d="M26 6.82222H0V7.95928H26V6.82222Z" fill="#CB001C"/>
<path d="M26 5.6852H0V6.82226H26V5.6852Z" fill="#F4F4F4"/>
<path d="M26 4.54807H0V5.68513H26V4.54807Z" fill="#CB001C"/>
<path d="M26 3.41104H0V4.5481H26V3.41104Z" fill="#F4F4F4"/>
<path d="M26 2.27403H0V3.41109H26V2.27403Z" fill="#CB001C"/>
<path d="M26 1.13686H0V2.27392H26V1.13686Z" fill="#F4F4F4"/>
<path d="M26 0H0V1.13706H26V0Z" fill="#CB001C"/>
<path d="M11.8393 0H0V7.95942H11.8393V0Z" fill="#2A3560"/>
<path d="M1.08269 0.909637L1.16007 1.21285H1.4696L1.23745 1.36446L1.31484 1.66768L1.08269 1.51607L0.77317 1.66768L0.927931 1.36446L0.618408 1.21285H1.00531L1.08269 0.909637Z" fill="#F4F4F4"/>
<path d="M1.08269 2.19873L1.16007 2.50195H1.4696L1.23745 2.72936L1.31484 3.03257L1.08269 2.80516L0.77317 3.03257L0.927931 2.72936L0.618408 2.50195H1.00531L1.08269 2.19873Z" fill="#F4F4F4"/>
<path d="M1.08269 3.56265L1.16007 3.86587H1.4696L1.23745 4.01748L1.31484 4.32069L1.08269 4.16908L0.77317 4.32069L0.927931 4.01748L0.618408 3.86587H1.00531L1.08269 3.56265Z" fill="#F4F4F4"/>
<path d="M1.08269 4.85176L1.16007 5.15498H1.4696L1.23745 5.38239L1.31484 5.68561L1.08269 5.45819L0.77317 5.68561L0.927931 5.38239L0.618408 5.15498H1.00531L1.08269 4.85176Z" fill="#F4F4F4"/>
<path d="M1.08269 6.21568L1.16007 6.5189H1.4696L1.23745 6.67051L1.31484 6.97372L1.08269 6.82212L0.77317 6.97372L0.927931 6.67051L0.618408 6.5189H1.00531L1.08269 6.21568Z" fill="#F4F4F4"/>
<path d="M2.0119 1.59145L2.08928 1.89466H2.47619L2.16667 2.04627L2.24405 2.34949L2.0119 2.19788L1.77976 2.34949L1.85714 2.04627L1.625 1.89466H1.93452L2.0119 1.59145Z" fill="#F4F4F4"/>
<path d="M2.0119 2.8801L2.08928 3.18331H2.47619L2.16667 3.41072L2.24405 3.71394L2.0119 3.48653L1.77976 3.71394L1.85714 3.41072L1.625 3.18331H1.93452L2.0119 2.8801Z" fill="#F4F4F4"/>
<path d="M2.0119 4.24446L2.08928 4.54768H2.47619L2.16667 4.77509L2.24405 5.07831L2.0119 4.85089L1.77976 5.07831L1.85714 4.77509L1.625 4.54768H1.93452L2.0119 4.24446Z" fill="#F4F4F4"/>
<path d="M2.0119 5.60992L2.08928 5.91314H2.47619L2.16667 6.06475L2.24405 6.36796L2.0119 6.21636L1.77976 6.36796L1.85714 6.06475L1.625 5.91314H1.93452L2.0119 5.60992Z" fill="#F4F4F4"/>
<path d="M2.94037 0.909637L3.09513 1.21285H3.40466L3.17251 1.36446L3.24989 1.66768L2.94037 1.51607L2.70823 1.66768L2.78561 1.36446L2.55347 1.21285H2.86299L2.94037 0.909637Z" fill="#F4F4F4"/>
<path d="M2.94037 2.19873L3.09513 2.50195H3.40466L3.17251 2.72936L3.24989 3.03257L2.94037 2.80516L2.70823 3.03257L2.78561 2.72936L2.55347 2.50195H2.86299L2.94037 2.19873Z" fill="#F4F4F4"/>
<path d="M2.94037 3.56265L3.09513 3.86587H3.40466L3.17251 4.01748L3.24989 4.32069L2.94037 4.16908L2.70823 4.32069L2.78561 4.01748L2.55347 3.86587H2.86299L2.94037 3.56265Z" fill="#F4F4F4"/>
<path d="M2.94037 4.85176L3.09513 5.15498H3.40466L3.17251 5.38239L3.24989 5.68561L2.94037 5.45819L2.70823 5.68561L2.78561 5.38239L2.55347 5.15498H2.86299L2.94037 4.85176Z" fill="#F4F4F4"/>
<path d="M2.94037 6.21568L3.09513 6.5189H3.40466L3.17251 6.67051L3.24989 6.97372L2.94037 6.82212L2.70823 6.97372L2.78561 6.67051L2.55347 6.5189H2.86299L2.94037 6.21568Z" fill="#F4F4F4"/>
<path d="M3.94646 1.59145L4.02384 1.89466H4.33337L4.10122 2.04627L4.17861 2.34949L3.94646 2.19788L3.63694 2.34949L3.7917 2.04627L3.48218 1.89466H3.7917L3.94646 1.59145Z" fill="#F4F4F4"/>
<path d="M3.94646 2.8801L4.02384 3.18331H4.33337L4.10122 3.41072L4.17861 3.71394L3.94646 3.48653L3.63694 3.71394L3.7917 3.41072L3.48218 3.18331H3.7917L3.94646 2.8801Z" fill="#F4F4F4"/>
<path d="M3.94646 4.24446L4.02384 4.54768H4.33337L4.10122 4.77509L4.17861 5.07831L3.94646 4.85089L3.63694 5.07831L3.7917 4.77509L3.48218 4.54768H3.7917L3.94646 4.24446Z" fill="#F4F4F4"/>
<path d="M3.94646 5.60992L4.02384 5.91314H4.33337L4.10122 6.06475L4.17861 6.36796L3.94646 6.21636L3.63694 6.36796L3.7917 6.06475L3.48218 5.91314H3.7917L3.94646 5.60992Z" fill="#F4F4F4"/>
<path d="M4.87445 0.909637L4.95183 1.21285H5.33874L5.02921 1.36446L5.18398 1.66768L4.87445 1.51607L4.64231 1.66768L4.71969 1.36446L4.48755 1.21285H4.79707L4.87445 0.909637Z" fill="#F4F4F4"/>
<path d="M4.87445 2.19873L4.95183 2.50195H5.33874L5.02921 2.72936L5.18398 3.03257L4.87445 2.80516L4.64231 3.03257L4.71969 2.72936L4.48755 2.50195H4.79707L4.87445 2.19873Z" fill="#F4F4F4"/>
<path d="M4.87445 3.56265L4.95183 3.86587H5.33874L5.02921 4.01748L5.18398 4.32069L4.87445 4.16908L4.64231 4.32069L4.71969 4.01748L4.48755 3.86587H4.79707L4.87445 3.56265Z" fill="#F4F4F4"/>
<path d="M4.87445 4.85176L4.95183 5.15498H5.33874L5.02921 5.38239L5.18398 5.68561L4.87445 5.45819L4.64231 5.68561L4.71969 5.38239L4.48755 5.15498H4.79707L4.87445 4.85176Z" fill="#F4F4F4"/>
<path d="M4.87445 6.21568L4.95183 6.5189H5.33874L5.02921 6.67051L5.18398 6.97372L4.87445 6.82212L4.64231 6.97372L4.71969 6.67051L4.48755 6.5189H4.79707L4.87445 6.21568Z" fill="#F4F4F4"/>
<path d="M5.80365 1.59145L5.95841 1.89466H6.26794L6.03579 2.04627L6.11318 2.34949L5.80365 2.19788L5.57151 2.34949L5.64889 2.04627L5.41675 1.89466H5.72627L5.80365 1.59145Z" fill="#F4F4F4"/>
<path d="M5.80365 2.8801L5.95841 3.18331H6.26794L6.03579 3.41072L6.11318 3.71394L5.80365 3.48653L5.57151 3.71394L5.64889 3.41072L5.41675 3.18331H5.72627L5.80365 2.8801Z" fill="#F4F4F4"/>
<path d="M5.80365 4.24446L5.95841 4.54768H6.26794L6.03579 4.77509L6.11318 5.07831L5.80365 4.85089L5.57151 5.07831L5.64889 4.77509L5.41675 4.54768H5.72627L5.80365 4.24446Z" fill="#F4F4F4"/>
<path d="M5.80365 5.60992L5.95841 5.91314H6.26794L6.03579 6.06475L6.11318 6.36796L5.80365 6.21636L5.57151 6.36796L5.64889 6.06475L5.41675 5.91314H5.72627L5.80365 5.60992Z" fill="#F4F4F4"/>
<path d="M6.8095 0.909637L6.88688 1.21285H7.1964L6.96426 1.36446L7.04164 1.66768L6.8095 1.51607L6.49998 1.66768L6.65474 1.36446L6.34521 1.21285H6.73212L6.8095 0.909637Z" fill="#F4F4F4"/>
<path d="M6.8095 2.19873L6.88688 2.50195H7.1964L6.96426 2.72936L7.04164 3.03257L6.8095 2.80516L6.49998 3.03257L6.65474 2.72936L6.34521 2.50195H6.73212L6.8095 2.19873Z" fill="#F4F4F4"/>
<path d="M6.8095 3.56265L6.88688 3.86587H7.1964L6.96426 4.01748L7.04164 4.32069L6.8095 4.16908L6.49998 4.32069L6.65474 4.01748L6.34521 3.86587H6.73212L6.8095 3.56265Z" fill="#F4F4F4"/>
<path d="M6.8095 4.85176L6.88688 5.15498H7.1964L6.96426 5.38239L7.04164 5.68561L6.8095 5.45819L6.49998 5.68561L6.65474 5.38239L6.34521 5.15498H6.73212L6.8095 4.85176Z" fill="#F4F4F4"/>
<path d="M6.8095 6.21568L6.88688 6.5189H7.1964L6.96426 6.67051L7.04164 6.97372L6.8095 6.82212L6.49998 6.97372L6.65474 6.67051L6.34521 6.5189H6.73212L6.8095 6.21568Z" fill="#F4F4F4"/>
<path d="M7.73798 1.59145L7.81536 1.89466H8.20226L7.89274 2.04627L7.97012 2.34949L7.73798 2.19788L7.50584 2.34949L7.58322 2.04627L7.35107 1.89466H7.6606L7.73798 1.59145Z" fill="#F4F4F4"/>
<path d="M7.73798 2.8801L7.81536 3.18331H8.20226L7.89274 3.41072L7.97012 3.71394L7.73798 3.48653L7.50584 3.71394L7.58322 3.41072L7.35107 3.18331H7.6606L7.73798 2.8801Z" fill="#F4F4F4"/>
<path d="M7.73798 4.24446L7.81536 4.54768H8.20226L7.89274 4.77509L7.97012 5.07831L7.73798 4.85089L7.50584 5.07831L7.58322 4.77509L7.35107 4.54768H7.6606L7.73798 4.24446Z" fill="#F4F4F4"/>
<path d="M7.73798 5.60992L7.81536 5.91314H8.20226L7.89274 6.06475L7.97012 6.36796L7.73798 6.21636L7.50584 6.36796L7.58322 6.06475L7.35107 5.91314H7.6606L7.73798 5.60992Z" fill="#F4F4F4"/>
<path d="M8.74407 0.909637L8.82145 1.21285H9.13097L8.89883 1.36446L8.97621 1.66768L8.74407 1.51607L8.43455 1.66768L8.51193 1.36446L8.27979 1.21285H8.58931L8.74407 0.909637Z" fill="#F4F4F4"/>
<path d="M8.74407 2.19873L8.82145 2.50195H9.13097L8.89883 2.72936L8.97621 3.03257L8.74407 2.80516L8.43455 3.03257L8.51193 2.72936L8.27979 2.50195H8.58931L8.74407 2.19873Z" fill="#F4F4F4"/>
<path d="M8.74407 3.56265L8.82145 3.86587H9.13097L8.89883 4.01748L8.97621 4.32069L8.74407 4.16908L8.43455 4.32069L8.51193 4.01748L8.27979 3.86587H8.58931L8.74407 3.56265Z" fill="#F4F4F4"/>
<path d="M8.74407 4.85176L8.82145 5.15498H9.13097L8.89883 5.38239L8.97621 5.68561L8.74407 5.45819L8.43455 5.68561L8.51193 5.38239L8.27979 5.15498H8.58931L8.74407 4.85176Z" fill="#F4F4F4"/>
<path d="M8.74407 6.21568L8.82145 6.5189H9.13097L8.89883 6.67051L8.97621 6.97372L8.74407 6.82212L8.43455 6.97372L8.51193 6.67051L8.27979 6.5189H8.58931L8.74407 6.21568Z" fill="#F4F4F4"/>
<path d="M9.67254 1.59145L9.74992 1.89466H10.0594L9.8273 2.04627L9.90468 2.34949L9.67254 2.19788L9.36301 2.34949L9.51778 2.04627L9.20825 1.89466H9.51778L9.67254 1.59145Z" fill="#F4F4F4"/>
<path d="M9.67254 2.8801L9.74992 3.18331H10.0594L9.8273 3.41072L9.90468 3.71394L9.67254 3.48653L9.36301 3.71394L9.51778 3.41072L9.20825 3.18331H9.51778L9.67254 2.8801Z" fill="#F4F4F4"/>
<path d="M9.67254 4.24446L9.74992 4.54768H10.0594L9.8273 4.77509L9.90468 5.07831L9.67254 4.85089L9.36301 5.07831L9.51778 4.77509L9.20825 4.54768H9.51778L9.67254 4.24446Z" fill="#F4F4F4"/>
<path d="M9.67254 5.60992L9.74992 5.91314H10.0594L9.8273 6.06475L9.90468 6.36796L9.67254 6.21636L9.36301 6.36796L9.51778 6.06475L9.20825 5.91314H9.51778L9.67254 5.60992Z" fill="#F4F4F4"/>
<path d="M10.6013 0.909637L10.6786 1.21285H11.0655L10.756 1.36446L10.9108 1.66768L10.6013 1.51607L10.3691 1.66768L10.4465 1.36446L10.2144 1.21285H10.5239L10.6013 0.909637Z" fill="#F4F4F4"/>
<path d="M10.6013 2.19873L10.6786 2.50195H11.0655L10.756 2.72936L10.9108 3.03257L10.6013 2.80516L10.3691 3.03257L10.4465 2.72936L10.2144 2.50195H10.5239L10.6013 2.19873Z" fill="#F4F4F4"/>
<path d="M10.6013 3.56265L10.6786 3.86587H11.0655L10.756 4.01748L10.9108 4.32069L10.6013 4.16908L10.3691 4.32069L10.4465 4.01748L10.2144 3.86587H10.5239L10.6013 3.56265Z" fill="#F4F4F4"/>
<path d="M10.6013 4.85176L10.6786 5.15498H11.0655L10.756 5.38239L10.9108 5.68561L10.6013 5.45819L10.3691 5.68561L10.4465 5.38239L10.2144 5.15498H10.5239L10.6013 4.85176Z" fill="#F4F4F4"/>
<path d="M10.6013 6.21568L10.6786 6.5189H11.0655L10.756 6.67051L10.9108 6.97372L10.6013 6.82212L10.3691 6.97372L10.4465 6.67051L10.2144 6.5189H10.5239L10.6013 6.21568Z" fill="#F4F4F4"/>
</svg>
