<svg width="445" height="447" viewBox="0 0 445 447" fill="none" xmlns="http://www.w3.org/2000/svg">
<g clip-path="url(#clip0)">
<path d="M108.8 102.5C89.9 102.5 74.5 87.1999 74.5 68.1999C74.5 49.2999 89.8 33.8999 108.8 33.8999C127.7 33.8999 143.1 49.1999 143.1 68.1999C143.1 87.0999 127.7 102.5 108.8 102.5Z" fill="#EBEBEB"/>
<path d="M100.4 60.5996H93.3003V83.4996H100.4V60.5996Z" fill="white"/>
<path d="M96.8001 57.5997C99.1001 57.5997 101 55.6997 101 53.3997C101 51.0997 99.1001 49.1997 96.8001 49.1997C94.5001 49.1997 92.6001 51.0997 92.6001 53.3997C92.6001 55.6997 94.5001 57.5997 96.8001 57.5997Z" fill="white"/>
<path d="M111.7 71.4999C111.7 68.2999 113.2 66.3999 116 66.3999C118.6 66.3999 119.9 68.1999 119.9 71.4999C119.9 74.7999 119.9 83.4999 119.9 83.4999H127C127 83.4999 127 75.0999 127 68.9999C127 62.8999 123.5 59.8999 118.7 59.8999C113.8 59.8999 111.8 63.6999 111.8 63.6999V60.5999H105V83.4999H111.8C111.7 83.4999 111.7 74.9999 111.7 71.4999Z" fill="white"/>
<path d="M154.7 0L159.4 8.6L168 13.3L159.4 18L154.7 26.5L150 18L141.4 13.3L150 8.6L154.7 0Z" fill="#F5F5F5"/>
<path d="M350.4 232.4L353.9 238.8L360.3 242.3L353.9 245.9L350.4 252.3L346.8 245.9L340.4 242.3L346.8 238.8L350.4 232.4Z" fill="#EBEBEB"/>
<path d="M360.3 200.6L361.9 203.5L364.8 205.1L361.9 206.7L360.3 209.6L358.7 206.7L355.8 205.1L358.7 203.5L360.3 200.6Z" fill="#E0E0E0"/>
<path d="M121.2 3.2002L122.8 6.1002L125.7 7.7002L122.8 9.3002L121.2 12.2002L119.6 9.3002L116.7 7.7002L119.6 6.1002L121.2 3.2002Z" fill="#E0E0E0"/>
<path d="M41.5998 272.9C45.1998 271.3 47.6998 267.6 47.6998 263.2C47.5998 257.5 43.2998 252.9 37.8998 252.9C32.4998 252.9 28.1998 257.6 28.2998 263.4C28.2998 267.8 30.9998 271.5 34.5998 273C19.6998 275.4 20.5998 291.7 20.5998 291.7L55.9998 291.4C55.8998 291.4 56.4998 274.9 41.5998 272.9Z" fill="#E0E0E0"/>
<path d="M381.1 380.1C380.6 377.6 378.1 375.6 375.5 375.7C372.9 375.8 370.6 377.9 370.2 380.5C369.8 378 367.5 375.8 364.9 375.8C362.3 375.7 359.8 377.7 359.3 380.3C359 382.2 359.6 384.1 360.6 385.7C361.6 387.3 363.1 388.5 364.5 389.8C366.5 391.6 368.3 393.2 370.3 395C372.3 393.2 373.9 391.6 375.9 389.8C377.3 388.5 378.7 387.2 379.7 385.7C380.9 383.8 381.5 381.9 381.1 380.1Z" fill="#EBEBEB"/>
<path d="M404.2 169.3L408 168.5L414 155.3L412.5 147.7C412.5 147.7 418.3 146.2 419.6 156.2C420.9 166.3 421.1 163.6 421.1 163.6C421.1 163.6 433.6 161.2 434.8 162.1C435.7 162.7 438.5 175 440 181.7C440.7 185.1 439.3 188.6 436.3 190C435.9 190.2 435.4 190.4 435 190.4C431.9 191 415.5 191.6 415.5 191.6L408.9 192.9L404.2 169.3Z" fill="#E0E0E0"/>
<path d="M392.9 169.3L400.4 194.8L406.9 193.5L401.8 168.1L392.9 169.3Z" fill="#E0E0E0"/>
<path d="M443 445.4C443 445.5 343.8 445.7 221.5 445.7C99.1 445.7 0 445.6 0 445.4C0 445.3 99.1 445.1 221.5 445.1C343.8 445.2 443 445.3 443 445.4Z" fill="#263238"/>
<path d="M365.9 159.3C345.7 169.1 321.4 160.7 311.6 140.5C301.8 120.3 310.2 95.9998 330.4 86.1998C350.6 76.3998 374.9 84.7998 384.7 105C394.5 125.1 386.1 149.4 365.9 159.3Z" fill="#9468B4"/>
<path d="M338.1 131.8C338.8 131.8 339.2 131.3 339 130.6C338.9 130.1 338.6 128.9 338.5 128.4C338.4 127.7 338.2 127.5 337.5 127.2C335.9 126.5 334.5 125.3 333.5 123.1C330.4 116.8 332.4 108.9 340 105.2C346.7 101.9 352.4 104.2 355 109.7C358.5 116.9 358.3 124.5 353.5 126.8C350.9 128.1 347.9 126.9 347.2 123.9C346.4 120.4 346.2 116.3 345.1 114C344.1 112 342.2 110.8 339.9 111.9C337.2 113.2 336.4 117 338.2 120.7C339.3 123.1 340.9 124.3 340.9 124.3C340.9 124.3 343.8 137.2 344.3 139.4C345.3 143.9 348.5 148.4 348.8 148.9C349 149.2 349.4 149.1 349.5 148.8C349.6 148.4 350.9 142.9 350 138.5C349.8 137.2 348.4 130.8 348.4 130.8C350.1 132 353.3 132.3 356 130.9C364 127 365.9 117.1 361.1 107.3C357.5 99.8999 347.9 96.0998 338.4 100.7C326.6 106.5 324.7 117.9 328.2 124.9C330.5 129.1 333.9 132.1 338.1 131.8Z" fill="white"/>
<path d="M406.5 273.9C392 268.4 384.8 252.2 390.3 237.7C395.8 223.2 412 216 426.5 221.5C441 227 448.2 243.2 442.7 257.7C437.2 272.2 421 279.4 406.5 273.9Z" fill="#9468B4"/>
<path fill-rule="evenodd" clip-rule="evenodd" d="M431.1 252.4C433.8 244.8 429.9 236.3 422.2 233.4C414.6 230.5 406.2 234.1 403 241.4C402.9 241.6 402.8 241.8 402.8 242C401.8 244.6 401.6 247.4 402.1 250L396.7 256.5L405.5 257C407.1 258.9 409.2 260.4 411.6 261.3C419.4 264.3 428.1 260.4 431 252.7C431.1 252.7 431.1 252.6 431.1 252.4ZM412.4 259.2C410 258.3 408 256.7 406.6 254.8L401.5 254.5L404.6 250.7C403.9 248.2 404 245.5 405 242.9C405.1 242.5 405.3 242.1 405.5 241.8C408.4 236.1 415.2 233.3 421.4 235.7C427.6 238.1 430.9 244.8 429.1 251.1C429 251.4 428.9 251.7 428.8 252C426.3 258.4 419 261.7 412.4 259.2Z" fill="white"/>
<path fill-rule="evenodd" clip-rule="evenodd" d="M422.3 252.7C422 252.4 420.6 250.9 420.4 250.7C420.1 250.5 419.9 250.3 419.6 250.6C419.2 250.9 418.3 251.4 418 251.5C417.7 251.7 417.5 251.6 417.2 251.3C416.9 251 415.9 250.2 415.1 248.5C414.4 247.2 414.2 245.8 414.1 245.4C414 245 414.3 244.9 414.5 244.8C414.7 244.7 415 244.5 415.3 244.4C415.4 244.4 415.4 244.3 415.5 244.3C415.6 244.2 415.7 244.1 415.9 244C416.1 243.8 416.1 243.6 416.1 243.4C416.1 243.2 416 241.2 416 240.4C416 239.6 415.6 239.6 415.4 239.5C415.2 239.4 415 239.3 414.8 239.2C414.6 239.1 414.2 239.1 413.7 239.3C413.3 239.5 412 240 411.4 241.7C411.2 242.1 411.2 242.5 411.1 242.9C411 244.2 411.4 245.5 411.4 245.7C411.5 246 412.3 250.4 415.3 253.1C418.3 255.8 418.5 255.4 419.1 255.5C419.8 255.7 421.5 255.5 422.1 254.8C422.7 254.1 423 253.4 422.9 253.2C422.8 253.2 422.6 253 422.3 252.7Z" fill="white"/>
<path d="M42.1002 144.4C30.3002 144.4 20.7002 134.8 20.7002 123C20.7002 111.2 30.3002 101.6 42.1002 101.6C53.9002 101.6 63.5002 111.2 63.5002 123C63.5002 134.8 53.9002 144.4 42.1002 144.4Z" fill="#9468B4"/>
<path d="M30.7002 130.1C32.8002 131.4 35.2002 132.2 37.9002 132.2C46.6002 132.2 51.5002 124.9 51.2002 118.3C52.1002 117.6 52.9002 116.8 53.5002 115.9C52.7002 116.3 51.8002 116.5 50.8002 116.6C51.8002 116 52.5002 115.1 52.9002 114C52.0002 114.5 51.0002 114.9 49.9002 115.1C49.0002 114.2 47.8002 113.6 46.5002 113.6C43.5002 113.6 41.3002 116.4 41.9002 119.3C38.0002 119.1 34.6002 117.2 32.3002 114.4C31.1002 116.5 31.7002 119.2 33.7002 120.6C32.9002 120.6 32.2002 120.4 31.6002 120C31.5002 122.2 33.1002 124.2 35.3002 124.6C34.6002 124.8 33.9002 124.8 33.2002 124.7C33.8002 126.6 35.5002 127.9 37.6002 127.9C35.7002 129.7 33.2002 130.4 30.7002 130.1Z" fill="white"/>
<path d="M80.5002 383.7C60.7002 388.4 40.9002 376.2 36.2002 356.4C31.5002 336.6 43.7002 316.8 63.5002 312.1C83.3002 307.4 103.1 319.6 107.8 339.4C112.5 359.2 100.3 379 80.5002 383.7Z" fill="#455A64"/>
<path d="M68.2004 331.8C73.4004 330.6 74.1004 330.4 76.2004 330C78.1004 329.6 79.3004 329.7 80.0004 329.8C81.0004 329.9 81.8004 330.2 82.6004 330.7C83.5004 331.2 84.0004 331.8 84.6004 332.6C85.0004 333.2 85.6004 334.2 86.1004 336.1C86.7004 338.1 86.9004 338.8 88.1004 344C89.3004 349.2 89.5004 349.9 89.9004 352C90.3004 353.9 90.2004 355.1 90.1004 355.8C90.0004 356.8 89.7004 357.6 89.2004 358.4C88.7004 359.3 88.1004 359.8 87.3004 360.4C86.7004 360.8 85.7004 361.4 83.8004 361.9C81.8004 362.5 81.1004 362.7 75.9004 363.9C70.7004 365.1 70.0004 365.3 67.9004 365.7C66.0004 366.1 64.8004 366 64.1004 365.9C63.1004 365.8 62.3004 365.5 61.5004 365C60.6004 364.5 60.1004 363.9 59.5004 363.1C59.1004 362.5 58.5004 361.5 58.0004 359.6C57.4004 357.6 57.2004 356.9 56.0004 351.7C54.8004 346.5 54.6004 345.8 54.2004 343.7C53.8004 341.8 53.9004 340.6 54.0004 339.9C54.1004 338.9 54.4004 338.1 54.9004 337.3C55.4004 336.4 56.0004 335.9 56.8004 335.3C57.4004 334.9 58.4004 334.3 60.3004 333.8C62.3004 333.2 62.9004 333.1 68.2004 331.8ZM67.3004 328.3C62.0004 329.6 61.3004 329.8 59.2004 330.3C57.1004 330.9 55.8004 331.6 54.7004 332.3C53.5004 333.1 52.6004 334 51.8004 335.4C51.0004 336.8 50.6004 338 50.4004 339.4C50.2004 340.8 50.2004 342.3 50.6004 344.4C51.0004 346.5 51.1004 347.2 52.4004 352.5C53.7004 357.8 53.9004 358.5 54.4004 360.6C55.0004 362.7 55.7004 364 56.4004 365.1C57.2004 366.3 58.1004 367.2 59.5004 368C60.9004 368.8 62.1004 369.2 63.5004 369.4C64.9004 369.6 66.4004 369.6 68.5004 369.2C70.6004 368.8 71.3004 368.7 76.6004 367.4C81.9004 366.1 82.6004 365.9 84.7004 365.4C86.8004 364.8 88.1004 364.1 89.2004 363.4C90.4004 362.6 91.3004 361.7 92.1004 360.3C92.9004 358.9 93.3004 357.7 93.5004 356.3C93.7004 354.9 93.7004 353.4 93.3004 351.3C92.9004 349.2 92.8004 348.5 91.5004 343.2C90.2004 337.9 90.0004 337.2 89.5004 335.1C88.9004 333 88.2004 331.7 87.5004 330.6C86.7004 329.4 85.8004 328.5 84.4004 327.7C83.0004 326.9 81.8004 326.5 80.4004 326.3C79.0004 326.1 77.5004 326.1 75.4004 326.5C73.3004 326.9 72.7004 327 67.3004 328.3Z" fill="white"/>
<path d="M69.6002 337.8C64.0002 339.1 60.6002 344.7 61.9002 350.3C63.2002 355.9 68.8002 359.3 74.4002 358C80.0002 356.7 83.4002 351.1 82.1002 345.5C80.8002 340 75.2002 336.5 69.6002 337.8ZM73.6002 354.5C70.0002 355.4 66.4002 353.1 65.5002 349.5C64.6002 345.9 66.9002 342.3 70.5002 341.4C74.1002 340.5 77.7002 342.8 78.6002 346.4C79.4002 350 77.2002 353.6 73.6002 354.5Z" fill="white"/>
<path d="M82.3006 334.4C82.6006 335.7 81.8006 337 80.5006 337.3C79.2006 337.6 77.9006 336.8 77.6006 335.5C77.3006 334.2 78.1006 332.9 79.4006 332.6C80.7006 332.3 82.0006 333.1 82.3006 334.4Z" fill="white"/>
<path d="M359.3 351.3C349.8 351.3 342.1 343.6 342.1 334.1C342.1 324.6 349.8 316.9 359.3 316.9C368.8 316.9 376.5 324.6 376.5 334.1C376.5 343.7 368.8 351.3 359.3 351.3Z" fill="#455A64"/>
<path d="M356.7 344.5H360.9V334H363.8L364.1 330.5H360.9C360.9 330.5 360.9 329.2 360.9 328.5C360.9 327.7 361.1 327.3 361.9 327.3C362.5 327.3 364.2 327.3 364.2 327.3V323.7C364.2 323.7 361.8 323.7 361.3 323.7C358.2 323.7 356.8 325.1 356.8 327.7C356.8 330 356.8 330.5 356.8 330.5H354.6V334H356.8V344.5H356.7Z" fill="white"/>
<path d="M300.8 446.2L162.9 446.1C146.3 446.1 132.9 432.6 132.9 416.1L133 70.3999C133 53.7999 146.5 40.3999 163.1 40.3999L301 40.4999C317.6 40.4999 331 53.9999 331 70.4999L330.9 416.2C330.8 432.7 317.4 446.2 300.8 446.2Z" fill="#263238"/>
<path d="M300.7 52.6001H274C270.4 52.6001 267.5 55.6001 267.5 59.4001V64.2001C267.5 67.9001 264.6 71.0001 261 71.0001H208.9C205.3 71.0001 202.4 68.0001 202.4 64.2001V59.4001C202.4 55.7001 199.5 52.6001 195.9 52.6001H186.5H163.1C151.5 52.6001 142.1 62.0001 142.1 73.6001L142 411C142 422.6 151.4 432 163 432L300.6 432.1C312.2 432.1 321.6 422.7 321.6 411.1L321.7 73.7001C321.7 62.1001 312.3 52.6001 300.7 52.6001Z" fill="white"/>
<path d="M302.7 79.9999C302.7 80.0999 299.2 80.1999 294.9 80.1999C290.6 80.1999 287.1 80.1999 287.1 80.0999C287.1 79.9999 290.6 79.8999 294.9 79.8999C299.3 79.8999 302.7 79.9999 302.7 79.9999Z" fill="#263238"/>
<path d="M302.8 83.9999C302.8 84.0999 299.3 84.1999 295 84.1999C290.7 84.1999 287.2 84.1999 287.2 84.0999C287.2 83.9999 290.7 83.8999 295 83.8999C299.3 83.8999 302.8 83.8999 302.8 83.9999Z" fill="#263238"/>
<path d="M302.8 87.9999C302.8 88.0999 299.3 88.1999 295 88.1999C290.7 88.1999 287.2 88.1999 287.2 88.0999C287.2 87.9999 290.7 87.8999 295 87.8999C299.3 87.8999 302.8 87.8999 302.8 87.9999Z" fill="#263238"/>
<path d="M156.5 91.9001C156.5 91.9001 156.6 91.9001 156.9 91.9001C157.2 91.9001 157.6 91.9001 158 91.9001C159.1 91.9001 160.5 91.8001 162.2 91.8001L162.1 91.9001C162.1 91.0001 162.1 90.0001 162.1 88.9001C162.1 88.3001 162.1 87.8001 162.1 87.2001C162.2 86.6001 162.8 86.0001 163.5 85.9001C164.2 85.9001 164.8 85.9001 165.5 85.9001C166.3 86.0001 166.9 86.7001 166.9 87.5001C166.9 88.9001 166.9 90.4001 167 91.9001L166.8 91.7001C168.5 91.7001 170.3 91.7001 172.1 91.6001L171.9 91.8001C171.9 89.7001 171.9 87.5001 171.8 85.2001C171.8 84.6001 171.8 84.1001 171.8 83.5001C171.8 83.0001 171.5 82.6001 171.1 82.3001C170.3 81.5001 169.6 80.8001 168.8 80.0001C168 79.3001 167.3 78.5001 166.6 77.8001C166.2 77.4001 165.9 77.1001 165.5 76.7001C165.1 76.3001 164.8 76.0001 164.4 75.9001C164 75.8001 163.5 75.9001 163.2 76.1001C162.9 76.4001 162.5 76.8001 162.2 77.1001C161.6 77.8001 160.9 78.4001 160.3 79.0001C159.1 80.2001 157.9 81.4001 157 82.4001C156.6 83.0001 156.8 83.7001 156.7 84.4001C156.7 85.1001 156.7 85.7001 156.7 86.3001C156.7 87.4001 156.7 88.4001 156.7 89.3001C156.7 90.1001 156.7 90.7001 156.7 91.2001C156.5 91.6001 156.5 91.9001 156.5 91.9001C156.5 91.9001 156.5 91.7001 156.5 91.3001C156.5 90.8001 156.5 90.2001 156.4 89.4001C156.4 88.5001 156.4 87.5001 156.3 86.4001C156.3 85.8001 156.3 85.2001 156.3 84.5001C156.3 84.2001 156.3 83.8001 156.3 83.5001C156.3 83.1001 156.4 82.7001 156.6 82.4001C157.6 81.2001 158.7 80.1001 159.9 78.9001C160.5 78.3001 161.1 77.6001 161.8 77.0001C162.1 76.7001 162.4 76.3001 162.8 76.0001C163.2 75.7001 163.8 75.6001 164.3 75.7001C164.9 75.8001 165.2 76.3001 165.6 76.6001C166 76.9001 166.3 77.3001 166.7 77.7001C167.4 78.4001 168.2 79.1001 168.9 79.9001C169.7 80.6001 170.4 81.4001 171.2 82.2001C171.4 82.4001 171.6 82.6001 171.8 82.8001C172 83.1001 172.1 83.4001 172.1 83.7001C172.1 84.3001 172.1 84.8001 172.1 85.4001C172.1 87.6001 172.1 89.8001 172.2 92.0001V92.2001H172C170.2 92.2001 168.4 92.2001 166.7 92.2001H166.5V92.0001C166.5 90.5001 166.5 89.0001 166.5 87.6001C166.5 87.0001 166 86.4001 165.4 86.3001C164.8 86.3001 164.1 86.3001 163.5 86.3001C162.9 86.3001 162.5 86.8001 162.4 87.3001C162.3 87.8001 162.4 88.4001 162.4 89.0001C162.4 90.1001 162.4 91.1001 162.4 92.0001V92.1001H162.3C160.6 92.1001 159.1 92.1001 158.1 92.1001C157.7 92.1001 157.3 92.1001 157 92.1001C156.6 91.9001 156.5 91.9001 156.5 91.9001Z" fill="#263238"/>
<path d="M247.5 355.5C247.5 355.5 247 355.6 246.1 355.6C245.1 355.6 243.7 355.6 242.2 355.7C238.9 355.7 234.3 355.8 229.2 355.8C224.1 355.8 219.5 355.8 216.2 355.7C214.6 355.7 213.3 355.6 212.3 355.6C211.4 355.6 210.9 355.5 210.9 355.5C210.9 355.5 211.4 355.4 212.3 355.4C213.3 355.4 214.7 355.4 216.2 355.3C219.5 355.3 224.1 355.2 229.2 355.2C234.3 355.2 238.9 355.2 242.2 355.3C243.8 355.3 245.1 355.4 246.1 355.4C247 355.5 247.5 355.5 247.5 355.5Z" fill="#455A64"/>
<path d="M305.3 364.6C305.3 364.7 284.1 364.9 258 364.9C231.9 364.9 210.7 364.8 210.7 364.6C210.7 364.5 231.9 364.3 258 364.3C284.1 364.3 305.3 364.4 305.3 364.6Z" fill="#455A64"/>
<path d="M275.7 373.1C275.7 373.2 261.1 373.4 243.2 373.4C225.2 373.4 210.7 373.3 210.7 373.1C210.7 372.9 225.3 372.8 243.2 372.8C261.2 372.8 275.7 372.9 275.7 373.1Z" fill="#455A64"/>
<path d="M307.1 389.6L304.2 386.7L301.4 389.5V381.1H307.1V389.6ZM304.2 386.3L306.9 389V381.3H301.7V388.8L304.2 386.3Z" fill="#263238"/>
<path d="M228.9 388.5L227.9 388C227.4 388.3 227 388.4 226.6 388.4C225 388.4 223.7 387.1 223.7 385.5C223.7 383.9 225 382.6 226.6 382.6C228.2 382.6 229.5 383.9 229.5 385.5C229.5 386.2 229.3 386.9 228.8 387.4L228.9 388.5ZM226.5 382.9C225 382.9 223.8 384.1 223.8 385.6C223.8 387.1 225 388.3 226.5 388.3C226.9 388.3 227.3 388.2 227.8 387.9L228.6 388.2L228.4 387.4C228.9 386.9 229.1 386.2 229.1 385.6C229.2 384.1 228 382.9 226.5 382.9Z" fill="#263238"/>
<path d="M235.6 388.1L234.4 385.2L232.2 383.2H237.6L235.6 388.1ZM232.7 383.4L234.6 385.1L235.6 387.6L237.3 383.4H232.7Z" fill="#263238"/>
<path d="M237.476 383.171L234.542 385.08L234.652 385.248L237.585 383.339L237.476 383.171Z" fill="#263238"/>
<path d="M220.4 383.8C220.2 383 219.5 382.4 218.7 382.5C217.9 382.5 217.2 383.2 217.1 384C217 383.2 216.3 382.6 215.5 382.6C214.7 382.6 214 383.2 213.8 384C213.7 384.6 213.9 385.2 214.2 385.6C214.5 386.1 215 386.5 215.4 386.8C216 387.3 216.6 387.8 217.2 388.4C217.8 387.9 218.3 387.3 218.9 386.8C219.3 386.4 219.8 386 220.1 385.5C220.3 384.9 220.5 384.3 220.4 383.8Z" fill="#9468B4"/>
<path d="M313.2 397.1C313.2 397.1 313.2 396.8 313.2 396.2C313.2 395.6 313.2 394.7 313.2 393.5C313.2 391.1 313.2 387.5 313.2 382.9C313.2 373.7 313.1 360.3 313.1 343.6L313.3 343.8C274.8 343.8 217.4 343.9 153.4 343.9L153.7 343.6C153.7 362.2 153.7 380.3 153.7 397.2L153.4 396.9C199.4 396.9 239.4 397 267.8 397C282 397 293.4 397.1 301.2 397.1C305.1 397.1 308.1 397.1 310.2 397.1C311.2 397.1 312 397.1 312.5 397.1C312.9 397.1 313.2 397.1 313.2 397.1C313.2 397.1 312.9 397.1 312.4 397.1C311.9 397.1 311.1 397.1 310.1 397.1C308.1 397.1 305.1 397.1 301.2 397.1C293.4 397.1 282.1 397.1 267.9 397.2C239.4 397.2 199.4 397.3 153.3 397.3H153V397C153 380.1 153 362 153 343.4V343.1H153.3C217.3 343.1 274.7 343.2 313.2 343.2H313.4V343.4C313.4 360.2 313.3 373.6 313.3 382.8C313.3 387.4 313.3 390.9 313.3 393.3C313.3 394.5 313.3 395.4 313.3 396C313.2 396.8 313.2 397.1 313.2 397.1Z" fill="#263238"/>
<path d="M159.921 352.52L159.72 387.92L204.02 388.172L204.221 352.772L159.921 352.52Z" fill="#EBEBEB"/>
<path d="M204.2 352.7C204.2 352.7 204.1 352.7 204 352.7C203.8 352.7 203.6 352.7 203.4 352.7C202.8 352.7 202 352.7 201 352.7C198.9 352.7 195.8 352.7 191.9 352.7C184.1 352.7 173.1 352.7 160 352.6L160.2 352.4C160.1 362.9 160.1 375 160 387.8C160.1 387.9 159.5 387.3 159.7 387.5H159.8H160H160.4H161.2H162.7C163.7 387.5 164.7 387.5 165.7 387.5C167.7 387.5 169.7 387.5 171.7 387.5C175.6 387.5 179.5 387.5 183.2 387.6C190.6 387.7 197.6 387.7 203.9 387.8L203.7 388C203.8 377.4 203.9 368.5 204 362.3C204 359.2 204.1 356.8 204.1 355.1C204.1 354.3 204.1 353.7 204.1 353.2C204.2 353 204.2 352.7 204.2 352.7C204.2 352.7 204.2 352.9 204.2 353.3C204.2 353.7 204.2 354.4 204.2 355.2C204.2 356.9 204.2 359.3 204.2 362.3C204.2 368.5 204.2 377.4 204.2 388.1V388.3H204C197.7 388.3 190.7 388.2 183.3 388.2C179.6 388.2 175.7 388.2 171.8 388.1C169.8 388.1 167.8 388.1 165.8 388.1C164.8 388.1 163.8 388.1 162.8 388.1H161.3H160.5H160.1H159.9H159.8C160 388.3 159.5 387.8 159.5 387.8C159.6 375 159.7 362.9 159.7 352.4V352.2H159.9C173.1 352.3 184.2 352.4 192 352.5C195.9 352.5 198.9 352.6 201 352.6C202 352.6 202.8 352.6 203.4 352.6C203.6 352.6 203.8 352.6 204 352.6C204.1 352.7 204.2 352.7 204.2 352.7Z" fill="#263238"/>
<path d="M161.38 354.699L161.204 385.699L202.404 385.933L202.58 354.933L161.38 354.699Z" fill="#E0E0E0"/>
<path d="M161.2 385.7L175.7 366.5L184.6 378.6L190.6 372.2L202.4 385.9L161.2 385.7Z" fill="#F5F5F5"/>
<path d="M188.4 364.2C188.4 366 186.9 367.4 185.1 367.4C183.3 367.4 181.9 365.9 181.9 364.1C181.9 362.3 183.4 360.9 185.2 360.9C187 361 188.4 362.4 188.4 364.2Z" fill="#F5F5F5"/>
<path d="M234.6 123C234.6 123 234.4 123 234.1 123.1C233.7 123.1 233.3 123.1 232.7 123.1C231.4 123.1 229.8 123.1 227.7 123.2C223.5 123.2 217.7 123.3 211.2 123.3C204.8 123.3 198.9 123.3 194.7 123.2C192.7 123.2 191 123.1 189.7 123.1C189.2 123.1 188.7 123.1 188.3 123.1C188 123.1 187.8 123.1 187.8 123C187.8 123 188 123 188.3 122.9C188.7 122.9 189.1 122.9 189.7 122.9C191 122.9 192.6 122.9 194.7 122.8C198.9 122.8 204.7 122.7 211.2 122.7C217.6 122.7 223.4 122.7 227.7 122.8C229.7 122.8 231.4 122.9 232.7 122.9C233.2 122.9 233.7 122.9 234.1 122.9C234.4 123 234.6 123 234.6 123Z" fill="#263238"/>
<path d="M300 318.8L295.6 314.4L291.4 318.5V306H299.9L300 318.8ZM295.7 313.8L295.8 313.9L299.6 317.8V306.4H291.8V317.6L295.7 313.8Z" fill="#263238"/>
<path d="M189.2 317.4L187.2 316.5C186.2 317 185.3 317.3 184.6 317.3C181.5 317.3 178.9 314.8 178.9 311.7C178.9 308.6 181.4 306 184.5 306C187.6 306 190.2 308.5 190.2 311.6C190.2 313 189.7 314.3 188.8 315.4L189.2 317.4ZM184.4 306.4C181.5 306.4 179.1 308.8 179.2 311.7C179.2 314.6 181.6 317 184.5 316.9C185.2 316.9 186.1 316.6 187 316.1H187.1L188.6 316.8L188.3 315.3L188.4 315.2C189.3 314.2 189.8 312.9 189.8 311.6C189.7 308.7 187.3 306.4 184.4 306.4Z" fill="#263238"/>
<path d="M202.3 316.6L200 310.9L195.6 306.9L206.2 306.8L202.3 316.6ZM196.6 307.2L200.3 310.6L202.3 315.5L205.6 307.1L196.6 307.2Z" fill="#263238"/>
<path d="M205.908 306.786L200.124 310.548L200.342 310.884L206.126 307.121L205.908 306.786Z" fill="#263238"/>
<path d="M172.4 308.1C172.1 306.6 170.6 305.4 169 305.5C167.5 305.6 166.1 306.8 165.9 308.4C165.7 306.9 164.3 305.6 162.7 305.6C161.2 305.6 159.7 306.8 159.4 308.3C159.2 309.4 159.6 310.6 160.2 311.5C160.8 312.4 161.7 313.2 162.5 313.9C163.7 314.9 164.8 315.9 166 317C167.2 315.9 168.2 314.9 169.3 313.9C170.1 313.1 171 312.4 171.6 311.4C172.3 310.3 172.7 309.2 172.4 308.1Z" fill="#9468B4"/>
<path d="M171.5 130.2C175.476 130.2 178.7 126.976 178.7 123C178.7 119.023 175.476 115.8 171.5 115.8C167.523 115.8 164.3 119.023 164.3 123C164.3 126.976 167.523 130.2 171.5 130.2Z" fill="#EBEBEB"/>
<path d="M297.3 277.4C297.3 277.5 267 277.7 229.7 277.7C192.4 277.7 162.1 277.6 162.1 277.4C162.1 277.2 192.4 277.1 229.7 277.1C267 277.1 297.3 277.2 297.3 277.4Z" fill="#455A64"/>
<path d="M297.3 266.1C297.3 266.2 267 266.4 229.7 266.4C192.4 266.4 162.1 266.3 162.1 266.1C162.1 265.9 192.4 265.8 229.7 265.8C267 265.9 297.3 266 297.3 266.1Z" fill="#455A64"/>
<path d="M235.7 288.8C235.7 288.9 219.2 289.1 198.9 289.1C178.6 289.1 162.1 289 162.1 288.8C162.1 288.6 178.6 288.5 198.9 288.5C219.2 288.5 235.7 288.6 235.7 288.8Z" fill="#455A64"/>
<path d="M226.6 411.4C226.6 413 225.3 414.3 223.7 414.3C222.1 414.3 220.8 413 220.8 411.4C220.8 409.8 222.1 408.5 223.7 408.5C225.4 408.5 226.6 409.8 226.6 411.4Z" fill="#263238"/>
<path d="M235.5 411.4C235.5 413 234.2 414.3 232.6 414.3C231 414.3 229.7 413 229.7 411.4C229.7 409.8 231 408.5 232.6 408.5C234.3 408.5 235.5 409.8 235.5 411.4Z" fill="#263238"/>
<path d="M244.4 411.5C244.4 413.1 243.1 414.4 241.5 414.4C239.9 414.4 238.6 413.1 238.6 411.5C238.6 409.9 239.9 408.6 241.5 408.6C243.2 408.6 244.4 409.9 244.4 411.5Z" fill="#263238"/>
<path d="M314.1 137.3H154.2V235.1H314.1V137.3Z" fill="#E0E0E0"/>
<path d="M169 235.1L214.8 173.8L243.2 212.1L262.4 191.6L300.2 235.1H169Z" fill="#F5F5F5"/>
<path d="M255.2 166.2C255.2 171.9 250.6 176.5 244.9 176.5C239.2 176.5 234.6 171.9 234.6 166.2C234.6 160.5 239.2 155.9 244.9 155.9C250.6 155.9 255.2 160.5 255.2 166.2Z" fill="#F5F5F5"/>
<path d="M313.7 326C313.7 323.9 313.6 235.6 313.5 104.8L313.7 105C265.5 105 211.1 105 153.8 105L154.1 104.7C154.1 187.4 154.1 264 154.1 325.9L153.9 325.7C250.7 325.9 311.9 326 313.7 326C312 326 250.8 326.1 153.8 326.2H153.6V326C153.6 264.1 153.6 187.5 153.6 104.8V104.5H153.9C211.2 104.5 265.6 104.5 313.8 104.5H314V104.7C314 170.2 313.9 225.5 313.9 264.5C313.9 284 313.9 299.3 313.8 309.9C313.8 315.1 313.8 319.2 313.8 321.9C313.8 323.3 313.8 324.3 313.8 325C313.7 325.6 313.7 326 313.7 326Z" fill="#263238"/>
<path d="M238.5 353.4L242 341.5C242.6 338.9 243.4 335.9 244.5 332.4C245.5 329.3 248 326 250.4 323.6C254 319.9 255.7 319.9 258.2 318C258.4 317.9 258.7 317.7 258.9 317.5C259.4 317.2 259.8 316.9 260.1 316.5C262.2 314.2 260.2 310.7 255.9 311.1C252.7 311.4 247.5 312.3 239 321C238.9 321.1 238.8 321.2 238.7 321.4C234.2 327.2 230.1 310.7 229.3 304.5C228.8 300.5 224.5 298.1 220.6 299.5L199.9 309.2C198.2 308.6 196.2 308.7 193.9 309.4C190.9 310.5 189.2 313.7 190 316.7L198.4 350.2L173.7 432H226.7L238.5 353.4Z" fill="#FFBE9D"/>
<path d="M279.3 278.2L262.9 310.3L254.7 308L213.5 341.5C210 344.4 204.9 343.9 201.9 340.5L186.2 322.3C186.2 322.3 217.8 308.7 223.7 297.4C229.6 286.1 222.8 283.6 222.8 283.6L237.7 266.7L279.3 278.2Z" fill="#9468B4"/>
<path d="M258 212.6C258 212.6 234 207.3 200.2 174.8C166.4 142.3 150.5 99.2002 146.4 99.4002C142.3 99.6002 124.2 91.2002 89.8999 165.9C55.5999 240.6 69.0999 257.9 75.8999 257.8C82.6999 257.7 129.1 244.7 158.1 248C187.1 251.3 224.3 266.4 224.3 266.4L258 212.6Z" fill="#9468B4"/>
<path d="M309 253.3L300.8 268.9L297.1 275.9C292.1 285.5 280.4 289.4 270.6 284.9L219.2 267L249.2 198.6L300.6 226C310.5 231.1 314.2 243.4 309 253.3Z" fill="#9468B4"/>
<g opacity="0.4">
<path opacity="0.4" d="M309 253.3L300.8 268.9L297.1 275.9C292.1 285.5 280.4 289.4 270.6 284.9L219.2 267L249.2 198.6L300.6 226C310.5 231.1 314.2 243.4 309 253.3Z" fill="black"/>
</g>
<path d="M92.6997 167.2C74.3997 207.7 66.7997 243.7 75.6997 247.7C84.5997 251.7 106.6 222.2 124.9 181.7C143.2 141.2 150.8 105.2 141.9 101.2C133 97.2 111 126.8 92.6997 167.2Z" fill="#9468B4"/>
<g opacity="0.5">
<path opacity="0.5" d="M92.6997 167.2C74.3997 207.7 66.7997 243.7 75.6997 247.7C84.5997 251.7 106.6 222.2 124.9 181.7C143.2 141.2 150.8 105.2 141.9 101.2C133 97.2 111 126.8 92.6997 167.2Z" fill="black"/>
</g>
<path d="M313.4 275.8L299.5 271.4L308.1 255L318.6 261.5L313.4 275.8Z" fill="#9468B4"/>
<g opacity="0.6">
<path opacity="0.6" d="M308.1 255L299.5 271.4L302.4 272.3L309.4 255.8L308.1 255Z" fill="black"/>
</g>
<path d="M298.5 258.8C298.3 259.3 291.3 256.5 283 252.8C274.6 249 268 245.6 268.2 245.1C268.4 244.6 275.4 247.4 283.7 251.1C292.1 254.9 298.7 258.3 298.5 258.8Z" fill="#9468B4"/>
<path d="M302.8 249C302.6 249.4 296.3 246.8 288.7 243.1C281.1 239.4 275.2 236 275.4 235.6C275.6 235.2 281.9 237.8 289.5 241.5C297.1 245.2 303 248.5 302.8 249Z" fill="#9468B4"/>
<path d="M293.1 269C293 269.2 291.4 268.9 288.7 268C287.4 267.6 285.8 267.1 284.1 266.5C282.4 265.9 280.6 265 278.7 264.1C271.1 260.6 265.2 257.1 265.4 256.7C265.6 256.2 271.9 259 279.4 262.5C281.3 263.4 283.1 264.3 284.7 265C286.4 265.7 287.9 266.3 289.1 266.9C291.7 268 293.2 268.8 293.1 269Z" fill="#9468B4"/>
<path d="M130 158.2C130 158.2 109.1 145.3 97.7 173.5C86.3 201.7 108.2 206.3 108.2 206.3C117.2 192.4 124.5 176.4 130 158.2Z" fill="#9468B4"/>
<g opacity="0.5">
<path opacity="0.5" d="M152.2 124.6C152.3 124.6 152 126.5 151.4 130C150.7 133.4 149.8 138.4 148.5 144.6C147.6 147.6 146.7 150.9 145.6 154.5C145.1 156.3 144.5 158.1 144 160C143.7 160.9 143.4 161.9 143.1 162.9C142.8 163.9 142.4 164.8 142 165.8C140.5 169.7 138.9 173.7 137.3 178C136.9 179.1 136.5 180.1 136.1 181.2C135.7 182.3 135.1 183.3 134.6 184.4C133.6 186.5 132.5 188.6 131.5 190.8C130.4 193 129.4 195.1 128.4 197.2C127.9 198.2 127.4 199.3 126.8 200.3C126.2 201.3 125.6 202.3 125.1 203.2C122.8 207.1 120.6 210.8 118.5 214.4C118 215.3 117.5 216.2 116.9 217C116.3 217.8 115.7 218.6 115.2 219.4C114.1 221 113 222.6 111.9 224.1C109.8 227.1 107.8 229.9 105.9 232.5C101.9 237.3 98.6 241.1 96.3 243.8C94 246.4 92.7 247.9 92.6 247.8C92.5 247.7 93.6 246.2 95.8 243.4C98 240.6 101.2 236.6 105 231.7C106.8 229.1 108.7 226.3 110.8 223.3C111.8 221.8 112.9 220.2 114 218.6C114.6 217.8 115.1 217 115.7 216.2C116.2 215.4 116.7 214.5 117.3 213.6C119.4 210 121.6 206.3 123.8 202.4C124.4 201.4 124.9 200.5 125.5 199.5C126.1 198.5 126.5 197.4 127 196.4C128 194.3 129 192.2 130.1 190C131.1 187.9 132.2 185.7 133.2 183.7C133.7 182.6 134.3 181.6 134.7 180.6C135.1 179.5 135.5 178.5 135.9 177.4C137.6 173.2 139.2 169.2 140.7 165.4C141.1 164.4 141.5 163.5 141.8 162.6C142.1 161.6 142.4 160.7 142.7 159.8C143.3 157.9 143.8 156.1 144.4 154.4C145.5 150.9 146.5 147.6 147.5 144.7C148.9 138.7 150.1 133.8 151 130.3C151.5 126.5 152 124.6 152.2 124.6Z" fill="black"/>
</g>
<g opacity="0.4">
<path opacity="0.4" d="M191.2 320.1C193.1 323.6 195 327.1 197.9 329.8C200.7 332.6 204.6 334.5 208.5 334.1C212.4 333.7 216.1 330.4 216.2 326.5C218.1 327.9 221 327.1 222.5 325.4C224 323.7 224.6 321.2 224.8 318.8C227.4 320.3 230.9 319.1 232.6 316.7C234.3 314.3 234.4 311 233.6 308.1C232.8 305.2 231.1 302.7 229.5 300.2C231.5 300.4 233.6 300.5 235.3 299.6C237.1 298.7 238.3 296.4 237.2 294.7C236.6 293.7 235.4 293.2 234.3 292.9C231.2 291.9 229 291.2 225.8 291.5C225.1 291.5 227.1 300 206.9 311.6C195 318.5 191.2 320.1 191.2 320.1Z" fill="black"/>
</g>
<path d="M236.6 332.3C236.6 332.4 235.2 332.1 233.1 332.2C230.9 332.2 227.9 332.7 224.9 334.2C221.9 335.6 219.6 337.7 218.3 339.4C216.9 341.1 216.3 342.3 216.2 342.2C216.2 342.2 216.3 341.9 216.6 341.3C216.9 340.8 217.4 340 218 339.1C219.3 337.4 221.6 335.2 224.7 333.7C227.8 332.2 230.9 331.8 233.1 331.8C234.2 331.8 235.1 331.9 235.7 332C236.3 332.2 236.6 332.3 236.6 332.3Z" fill="#EB996E"/>
<path d="M192.5 314.7C195.7 317.8 198 321.3 201.4 324.4C202.9 325.8 205.4 328.5 207.4 328.9C209.5 329.3 210.8 329 211.6 327C212.3 325.4 211.1 323.3 210.2 322C208 318.6 206 315.9 204.3 313.3C203.5 312.1 204.5 311.8 204.9 312.4C206.5 314 208.8 315.4 210.2 317.2C212.1 319.6 212.5 322.8 217.5 321.8C218.2 321.7 218.8 321.4 219.4 321C221.3 319.6 221.4 317 220.6 315C220 313.4 218.9 312.1 217.8 310.8C219.9 313.2 222.3 315.8 225.7 316C227.7 316.2 229.7 315.2 230.5 313.4C231.5 311.1 230.1 308.9 228.6 307.1C226 303.9 223.2 301 220.1 298.4C218.9 297.4 217.5 296.9 216 296.9C214.2 296.9 212 297.2 211 298.7C209 301.5 209.6 303.9 209.6 303.9C209.6 303.9 205.2 301.7 201.7 304C198.2 306.3 197.3 310.4 197.3 310.4L192.5 314.7Z" fill="#FFBE9D"/>
<path d="M216 296C214.6 294.6 214.3 292.1 215.4 290C216.1 288.5 217.1 287.1 218.1 286.8C222.3 285.4 240.6 288.6 240.4 292.6C240.2 296.8 238.9 298.6 229 297.2C227.3 296.9 224.5 296.6 224.5 296.6L222.1 300.2L216 296Z" fill="#FFBE9D"/>
<path d="M219.2 313C219.1 313.1 217.7 310.2 214.8 307.7C212 305.1 209 304 209.1 303.9C209.1 303.8 209.9 304 211 304.6C212.2 305.1 213.7 306.1 215.1 307.4C216.5 308.7 217.6 310.1 218.3 311.2C219 312.2 219.3 313 219.2 313Z" fill="#EB996E"/>
<path d="M222.3 300.5C222.2 300.6 221 299.6 219.4 298.6C218.6 298.1 217.8 297.7 217.3 297.4C216.7 297.1 216.4 297.1 216.4 297C216.4 296.9 216.8 296.9 217.5 297.1C218.1 297.3 219 297.7 219.8 298.2C221.3 299.2 222.4 300.4 222.3 300.5Z" fill="#EB996E"/>
<path d="M225.4 296.7C225.4 296.8 223.8 296.9 221.9 296.3C220.9 296 220.1 295.5 219.6 295.1C219.1 294.7 218.9 294.3 218.9 294.3C219 294.2 220.1 295.3 222 295.8C223.8 296.4 225.4 296.6 225.4 296.7Z" fill="#EB996E"/>
<path d="M207.6 318C207.5 318 206.9 317.2 205.9 315.8C204.9 314.4 203.7 312.4 201.6 310.9C199.6 309.4 197.2 309.1 195.5 309.3C193.9 309.5 193 310.2 192.9 310.1C192.9 310.1 193.1 309.9 193.5 309.6C193.9 309.3 194.6 309.1 195.4 308.9C197.1 308.6 199.7 308.9 201.8 310.4C204 312 205.2 314.1 206.1 315.5C207.1 317.1 207.6 318 207.6 318Z" fill="#EB996E"/>
<path d="M221.6 358.5C221.6 358.6 218.3 359.1 214.1 359.6C210 360.1 206.6 360.3 206.6 360.2C206.6 360.1 209.9 359.6 214.1 359.1C218.2 358.6 221.6 358.4 221.6 358.5Z" fill="#EB996E"/>
<path d="M379.1 26L380.3 28L382.3 29.2L380.3 30.3L379.1 32.3L378 30.3L375.9 29.2L378 28L379.1 26Z" fill="#9468B4"/>
<path d="M402.7 77.1001L403.9 79.2001L405.9 80.3001L403.9 81.4001L402.7 83.5001L401.6 81.4001L399.5 80.3001L401.6 79.2001L402.7 77.1001Z" fill="#9468B4"/>
<path d="M24.4002 213.6L25.5002 215.7L27.6002 216.8L25.5002 218L24.4002 220L23.3002 218L21.2002 216.8L23.3002 215.7L24.4002 213.6Z" fill="#9468B4"/>
<path d="M348.2 38.7002L350.8 43.4002L355.5 46.0002L350.8 48.7002L348.2 53.4002L345.6 48.7002L340.8 46.0002L345.6 43.4002L348.2 38.7002Z" fill="#9468B4"/>
<path d="M45.6002 181.2L48.2002 186L52.9002 188.6L48.2002 191.2L45.6002 195.9L43.0002 191.2L38.2002 188.6L43.0002 186L45.6002 181.2Z" fill="#9468B4"/>
<path d="M409.2 294.7L411.8 299.4L416.5 302L411.8 304.6L409.2 309.4L406.6 304.6L401.8 302L406.6 299.4L409.2 294.7Z" fill="#9468B4"/>
</g>
<defs>
<clipPath id="clip0">
<rect width="444.5" height="446.2" fill="white"/>
</clipPath>
</defs>
</svg>
