<svg width="473" height="357" viewBox="0 0 473 357" fill="none" xmlns="http://www.w3.org/2000/svg">
<path d="M448.199 224.264C447.916 213.872 448.723 196.151 439.613 188.854C431.609 182.448 425.386 191.142 423.14 198.156C417.699 215.17 420.253 233.931 420.269 251.494C420.269 251.761 420.269 252.027 420.269 252.326C419.845 265.255 418.289 279.241 419.704 292.145C419.704 292.145 418.314 279.216 408.164 284.757C398.014 290.298 413.239 319.376 413.239 319.376C413.239 319.376 401.242 310.607 395.701 317.995C390.16 325.383 402.623 333.686 402.623 333.686C402.623 333.686 391.083 330.458 391.083 333.686C391.083 336.914 394.777 339.685 405.394 341.074H462.617C462.617 341.074 471.852 335.991 470.005 330.458C468.158 324.925 458.457 328.112 458.457 328.112C458.457 328.112 473.234 310.108 472.31 302.262C471.387 294.416 452.459 303.651 452.459 303.651C452.459 303.651 467.227 266.262 464.456 249.647C462.276 236.56 452.118 245.487 446.585 250.546C447.887 241.849 448.427 233.055 448.199 224.264Z" fill="#9468B4" stroke="white" stroke-linecap="round" stroke-linejoin="round"/>
<path opacity="0.5" d="M448.199 224.264C447.916 213.872 448.723 196.151 439.613 188.854C431.609 182.448 425.386 191.142 423.14 198.156C417.699 215.17 420.253 233.931 420.269 251.494C420.269 251.761 420.269 252.027 420.269 252.326C419.845 265.255 418.289 279.241 419.704 292.145C419.704 292.145 418.314 279.216 408.164 284.757C398.014 290.298 413.239 319.376 413.239 319.376C413.239 319.376 401.242 310.607 395.701 317.995C390.16 325.383 402.623 333.686 402.623 333.686C402.623 333.686 391.083 330.458 391.083 333.686C391.083 336.914 394.777 339.685 405.394 341.074H462.617C462.617 341.074 471.852 335.991 470.005 330.458C468.158 324.925 458.457 328.112 458.457 328.112C458.457 328.112 473.234 310.108 472.31 302.262C471.387 294.416 452.459 303.651 452.459 303.651C452.459 303.651 467.227 266.262 464.456 249.647C462.276 236.56 452.118 245.487 446.585 250.546C447.887 241.849 448.427 233.055 448.199 224.264Z" fill="white"/>
<path d="M429.837 340.574L433.997 213.639" stroke="white" stroke-linecap="round" stroke-linejoin="round"/>
<path d="M432.15 287.494L453.84 267.186" stroke="white" stroke-linecap="round" stroke-linejoin="round"/>
<path d="M442.3 278.26L446.918 265.339" stroke="white" stroke-linecap="round" stroke-linejoin="round"/>
<path d="M414.146 303.186L430.761 321.19" stroke="white" stroke-linecap="round" stroke-linejoin="round"/>
<path d="M458.457 313.344L430.761 327.654" stroke="white" stroke-linecap="round" stroke-linejoin="round"/>
<path d="M443.69 321.647L453.84 321.189" stroke="white" stroke-linecap="round" stroke-linejoin="round"/>
<path d="M429.837 340.574L433.997 213.639" stroke="#9468B4" stroke-linecap="round" stroke-linejoin="round"/>
<path d="M432.15 287.494L453.84 267.186" stroke="#9468B4" stroke-linecap="round" stroke-linejoin="round"/>
<path d="M442.3 278.26L446.918 265.339" stroke="#9468B4" stroke-linecap="round" stroke-linejoin="round"/>
<path d="M414.146 303.186L430.761 321.19" stroke="#9468B4" stroke-linecap="round" stroke-linejoin="round"/>
<path d="M458.457 313.344L430.761 327.654" stroke="#9468B4" stroke-linecap="round" stroke-linejoin="round"/>
<path d="M443.69 321.647L453.84 321.189" stroke="#9468B4" stroke-linecap="round" stroke-linejoin="round"/>
<g opacity="0.8">
<path opacity="0.8" d="M429.837 340.574L433.997 213.639" stroke="white" stroke-linecap="round" stroke-linejoin="round"/>
<path opacity="0.8" d="M432.15 287.494L453.84 267.186" stroke="white" stroke-linecap="round" stroke-linejoin="round"/>
<path opacity="0.8" d="M442.3 278.259L446.918 265.338" stroke="white" stroke-linecap="round" stroke-linejoin="round"/>
<path opacity="0.8" d="M414.146 303.185L430.761 321.189" stroke="white" stroke-linecap="round" stroke-linejoin="round"/>
<path opacity="0.8" d="M458.457 313.344L430.761 327.654" stroke="white" stroke-linecap="round" stroke-linejoin="round"/>
<path opacity="0.8" d="M443.69 321.647L453.84 321.189" stroke="white" stroke-linecap="round" stroke-linejoin="round"/>
</g>
<path d="M350.549 314.925C350.549 327.829 360.774 338.295 360.774 338.295C360.774 338.295 370.999 327.829 370.999 314.925C370.999 302.021 360.774 291.555 360.774 291.555C360.774 291.555 350.549 302.013 350.549 314.925Z" fill="#9468B4"/>
<path d="M343.461 334.834C348.453 340.433 356.889 341.041 356.889 341.041C356.889 341.041 357.297 332.563 352.338 326.963C347.38 321.364 338.91 320.757 338.91 320.757C338.91 320.757 338.494 329.235 343.461 334.834Z" fill="#9468B4"/>
<path d="M369.519 326.772C364.302 332.138 364.335 340.625 364.335 340.625C364.335 340.625 372.813 340.4 378.022 335.025C383.23 329.651 383.213 321.173 383.213 321.173C383.213 321.173 374.727 321.397 369.519 326.772Z" fill="#9468B4"/>
<g opacity="0.5">
<path opacity="0.5" d="M350.549 314.925C350.549 327.829 360.774 338.295 360.774 338.295C360.774 338.295 370.999 327.829 370.999 314.925C370.999 302.021 360.774 291.555 360.774 291.555C360.774 291.555 350.549 302.013 350.549 314.925Z" fill="white"/>
<path opacity="0.5" d="M360.774 338.295V291.555" stroke="white" stroke-linecap="round" stroke-linejoin="round"/>
<path opacity="0.5" d="M360.774 308.169L355.05 303.169" stroke="white" stroke-linecap="round" stroke-linejoin="round"/>
<path opacity="0.5" d="M360.866 315.89L367.954 305.623" stroke="white" stroke-linecap="round" stroke-linejoin="round"/>
<path opacity="0.5" d="M360.774 320.341L352.321 312.804" stroke="white" stroke-linecap="round" stroke-linejoin="round"/>
<path opacity="0.5" d="M360.866 326.34L369.227 318.894" stroke="white" stroke-linecap="round" stroke-linejoin="round"/>
<path opacity="0.5" d="M360.866 331.523L354.318 326.34" stroke="white" stroke-linecap="round" stroke-linejoin="round"/>
<path opacity="0.5" d="M343.461 334.834C348.453 340.433 356.889 341.041 356.889 341.041C356.889 341.041 357.297 332.563 352.338 326.963C347.38 321.364 338.91 320.757 338.91 320.757C338.91 320.757 338.494 329.235 343.461 334.834Z" fill="white"/>
<path opacity="0.5" d="M356.889 341.041L338.91 320.757" stroke="white" stroke-linecap="round" stroke-linejoin="round"/>
<path opacity="0.5" d="M345.3 327.971L340.89 328.004" stroke="white" stroke-linecap="round" stroke-linejoin="round"/>
<path opacity="0.5" d="M348.311 331.282L347.438 324.102" stroke="white" stroke-linecap="round" stroke-linejoin="round"/>
<path opacity="0.5" d="M349.984 333.253L343.419 333.229" stroke="white" stroke-linecap="round" stroke-linejoin="round"/>
<path opacity="0.5" d="M352.33 335.816L353.087 329.368" stroke="white" stroke-linecap="round" stroke-linejoin="round"/>
<path opacity="0.5" d="M354.326 338.062L349.493 338.337" stroke="white" stroke-linecap="round" stroke-linejoin="round"/>
<path opacity="0.5" d="M369.519 326.772C364.302 332.138 364.335 340.625 364.335 340.625C364.335 340.625 372.813 340.4 378.022 335.025C383.23 329.651 383.213 321.173 383.213 321.173C383.213 321.173 374.727 321.397 369.519 326.772Z" fill="white"/>
<path opacity="0.5" d="M364.335 340.625L383.213 321.173" stroke="white" stroke-linecap="round" stroke-linejoin="round"/>
<path opacity="0.5" d="M376.499 328.087L376.141 323.694" stroke="white" stroke-linecap="round" stroke-linejoin="round"/>
<path opacity="0.5" d="M373.42 331.34L380.517 329.926" stroke="white" stroke-linecap="round" stroke-linejoin="round"/>
<path opacity="0.5" d="M371.582 333.154L371.116 326.606" stroke="white" stroke-linecap="round" stroke-linejoin="round"/>
<path opacity="0.5" d="M369.194 335.683L375.684 335.965" stroke="white" stroke-linecap="round" stroke-linejoin="round"/>
<path opacity="0.5" d="M367.106 337.838L366.474 333.046" stroke="white" stroke-linecap="round" stroke-linejoin="round"/>
</g>
<path d="M360.774 338.295V291.555" stroke="#9468B4" stroke-linecap="round" stroke-linejoin="round"/>
<path d="M360.774 308.169L355.05 303.169" stroke="#9468B4" stroke-linecap="round" stroke-linejoin="round"/>
<path d="M360.866 315.89L367.955 305.623" stroke="#9468B4" stroke-linecap="round" stroke-linejoin="round"/>
<path d="M360.774 320.34L352.321 312.803" stroke="#9468B4" stroke-linecap="round" stroke-linejoin="round"/>
<path d="M360.866 326.34L369.228 318.894" stroke="#9468B4" stroke-linecap="round" stroke-linejoin="round"/>
<path d="M360.866 331.523L354.318 326.34" stroke="#9468B4" stroke-linecap="round" stroke-linejoin="round"/>
<g opacity="0.7">
<path opacity="0.7" d="M360.774 338.295V291.555" stroke="white" stroke-linecap="round" stroke-linejoin="round"/>
<path opacity="0.7" d="M360.774 308.169L355.05 303.169" stroke="white" stroke-linecap="round" stroke-linejoin="round"/>
<path opacity="0.7" d="M360.866 315.89L367.954 305.623" stroke="white" stroke-linecap="round" stroke-linejoin="round"/>
<path opacity="0.7" d="M360.774 320.341L352.321 312.804" stroke="white" stroke-linecap="round" stroke-linejoin="round"/>
<path opacity="0.7" d="M360.866 326.34L369.227 318.894" stroke="white" stroke-linecap="round" stroke-linejoin="round"/>
<path opacity="0.7" d="M360.866 331.523L354.318 326.34" stroke="white" stroke-linecap="round" stroke-linejoin="round"/>
</g>
<path d="M356.889 341.041L338.91 320.757" stroke="#9468B4" stroke-linecap="round" stroke-linejoin="round"/>
<path d="M345.3 327.971L340.89 328.004" stroke="#9468B4" stroke-linecap="round" stroke-linejoin="round"/>
<path d="M348.312 331.282L347.438 324.102" stroke="#9468B4" stroke-linecap="round" stroke-linejoin="round"/>
<path d="M349.984 333.253L343.419 333.229" stroke="#9468B4" stroke-linecap="round" stroke-linejoin="round"/>
<path d="M352.33 335.816L353.087 329.368" stroke="#9468B4" stroke-linecap="round" stroke-linejoin="round"/>
<path d="M354.326 338.062L349.493 338.337" stroke="#9468B4" stroke-linecap="round" stroke-linejoin="round"/>
<g opacity="0.7">
<path opacity="0.7" d="M356.889 341.041L338.91 320.757" stroke="white" stroke-linecap="round" stroke-linejoin="round"/>
<path opacity="0.7" d="M345.3 327.97L340.89 328.003" stroke="white" stroke-linecap="round" stroke-linejoin="round"/>
<path opacity="0.7" d="M348.312 331.282L347.438 324.102" stroke="white" stroke-linecap="round" stroke-linejoin="round"/>
<path opacity="0.7" d="M349.984 333.253L343.419 333.229" stroke="white" stroke-linecap="round" stroke-linejoin="round"/>
<path opacity="0.7" d="M352.33 335.816L353.087 329.368" stroke="white" stroke-linecap="round" stroke-linejoin="round"/>
<path opacity="0.7" d="M354.327 338.062L349.493 338.337" stroke="white" stroke-linecap="round" stroke-linejoin="round"/>
</g>
<path d="M364.335 340.625L383.213 321.173" stroke="#9468B4" stroke-linecap="round" stroke-linejoin="round"/>
<path d="M376.499 328.087L376.141 323.694" stroke="#9468B4" stroke-linecap="round" stroke-linejoin="round"/>
<path d="M373.42 331.34L380.517 329.926" stroke="#9468B4" stroke-linecap="round" stroke-linejoin="round"/>
<path d="M371.582 333.153L371.116 326.605" stroke="#9468B4" stroke-linecap="round" stroke-linejoin="round"/>
<path d="M369.194 335.683L375.684 335.965" stroke="#9468B4" stroke-linecap="round" stroke-linejoin="round"/>
<path d="M367.106 337.837L366.474 333.045" stroke="#9468B4" stroke-linecap="round" stroke-linejoin="round"/>
<g opacity="0.7">
<path opacity="0.7" d="M364.335 340.625L383.213 321.173" stroke="white" stroke-linecap="round" stroke-linejoin="round"/>
<path opacity="0.7" d="M376.499 328.086L376.141 323.693" stroke="white" stroke-linecap="round" stroke-linejoin="round"/>
<path opacity="0.7" d="M373.421 331.339L380.518 329.925" stroke="white" stroke-linecap="round" stroke-linejoin="round"/>
<path opacity="0.7" d="M371.582 333.153L371.116 326.605" stroke="white" stroke-linecap="round" stroke-linejoin="round"/>
<path opacity="0.7" d="M369.194 335.683L375.684 335.965" stroke="white" stroke-linecap="round" stroke-linejoin="round"/>
<path opacity="0.7" d="M367.106 337.837L366.474 333.045" stroke="white" stroke-linecap="round" stroke-linejoin="round"/>
</g>
<path d="M25.1525 224.264C25.427 213.872 24.6283 196.151 33.7385 188.854C41.7422 182.448 47.9654 191.142 50.2035 198.156C55.653 215.17 53.0904 233.931 53.0821 251.494C53.0821 251.761 53.0821 252.027 53.0821 252.326C53.5148 265.255 55.0622 279.241 53.6562 292.145C53.6562 292.145 55.0373 279.216 65.1958 284.757C75.3543 290.298 60.1124 319.376 60.1124 319.376C60.1124 319.376 72.1179 310.607 77.6589 317.995C83.1999 325.383 70.7534 333.653 70.7534 333.653C70.7534 333.653 82.2931 330.425 82.2931 333.653C82.2931 336.881 78.5991 339.651 67.9829 341.041H10.7342C10.7342 341.041 1.49917 335.957 3.34617 330.425C5.19318 324.892 14.8858 328.112 14.8858 328.112C14.8858 328.112 0.118074 310.108 1.04158 302.262C1.96508 294.416 20.8927 303.651 20.8927 303.651C20.8927 303.651 6.11667 266.262 8.88718 249.672C11.067 236.585 21.2338 245.512 26.7582 250.571C25.4571 241.865 24.9198 233.063 25.1525 224.264Z" fill="#9468B4" stroke="white" stroke-linecap="round" stroke-linejoin="round"/>
<path opacity="0.5" d="M25.1525 224.264C25.427 213.872 24.6283 196.151 33.7385 188.854C41.7422 182.448 47.9654 191.142 50.2035 198.156C55.653 215.17 53.0904 233.931 53.0821 251.494C53.0821 251.761 53.0821 252.027 53.0821 252.326C53.5148 265.255 55.0622 279.241 53.6562 292.145C53.6562 292.145 55.0373 279.216 65.1958 284.757C75.3543 290.298 60.1124 319.376 60.1124 319.376C60.1124 319.376 72.1179 310.607 77.6589 317.995C83.1999 325.383 70.7534 333.653 70.7534 333.653C70.7534 333.653 82.2931 330.425 82.2931 333.653C82.2931 336.881 78.5991 339.651 67.9829 341.041H10.7342C10.7342 341.041 1.49917 335.957 3.34617 330.425C5.19318 324.892 14.8858 328.112 14.8858 328.112C14.8858 328.112 0.118074 310.108 1.04158 302.262C1.96508 294.416 20.8927 303.651 20.8927 303.651C20.8927 303.651 6.11667 266.262 8.88718 249.672C11.067 236.585 21.2338 245.512 26.7582 250.571C25.4571 241.865 24.9198 233.063 25.1525 224.264Z" fill="white"/>
<path d="M43.5061 340.574L39.3545 213.639" stroke="white" stroke-linecap="round" stroke-linejoin="round"/>
<path d="M41.2015 287.494L19.5034 267.186" stroke="white" stroke-linecap="round" stroke-linejoin="round"/>
<path d="M31.0428 278.26L26.4253 265.339" stroke="white" stroke-linecap="round" stroke-linejoin="round"/>
<path d="M59.1972 303.186L42.5825 321.19" stroke="white" stroke-linecap="round" stroke-linejoin="round"/>
<path d="M14.8857 313.344L42.5825 327.654" stroke="white" stroke-linecap="round" stroke-linejoin="round"/>
<path d="M29.6619 321.647L19.5034 321.189" stroke="white" stroke-linecap="round" stroke-linejoin="round"/>
<path d="M43.5061 340.574L39.3545 213.639" stroke="#9468B4" stroke-linecap="round" stroke-linejoin="round"/>
<path d="M41.2015 287.494L19.5034 267.186" stroke="#9468B4" stroke-linecap="round" stroke-linejoin="round"/>
<path d="M31.0428 278.26L26.4253 265.339" stroke="#9468B4" stroke-linecap="round" stroke-linejoin="round"/>
<path d="M59.1972 303.186L42.5825 321.19" stroke="#9468B4" stroke-linecap="round" stroke-linejoin="round"/>
<path d="M14.8857 313.344L42.5825 327.654" stroke="#9468B4" stroke-linecap="round" stroke-linejoin="round"/>
<path d="M29.6619 321.647L19.5034 321.189" stroke="#9468B4" stroke-linecap="round" stroke-linejoin="round"/>
<g opacity="0.8">
<path opacity="0.8" d="M43.5061 340.574L39.3545 213.639" stroke="white" stroke-linecap="round" stroke-linejoin="round"/>
<path opacity="0.8" d="M41.2015 287.494L19.5034 267.186" stroke="white" stroke-linecap="round" stroke-linejoin="round"/>
<path opacity="0.8" d="M31.0428 278.259L26.4253 265.338" stroke="white" stroke-linecap="round" stroke-linejoin="round"/>
<path opacity="0.8" d="M59.1972 303.185L42.5825 321.189" stroke="white" stroke-linecap="round" stroke-linejoin="round"/>
<path opacity="0.8" d="M14.8857 313.344L42.5825 327.654" stroke="white" stroke-linecap="round" stroke-linejoin="round"/>
<path opacity="0.8" d="M29.6619 321.647L19.5034 321.189" stroke="white" stroke-linecap="round" stroke-linejoin="round"/>
</g>
<path d="M124.466 314.925C124.466 327.829 114.241 338.295 114.241 338.295C114.241 338.295 104.033 327.829 104.033 314.925C104.033 302.021 114.258 291.555 114.258 291.555C114.258 291.555 124.466 302.013 124.466 314.925Z" fill="#9468B4"/>
<path d="M131.547 334.834C126.555 340.433 118.118 341.041 118.118 341.041C118.118 341.041 117.711 332.563 122.678 326.963C127.645 321.364 136.106 320.757 136.106 320.757C136.106 320.757 136.48 329.235 131.547 334.834Z" fill="#9468B4"/>
<path d="M105.497 326.772C110.705 332.138 110.68 340.625 110.68 340.625C110.68 340.625 102.203 340.4 96.986 335.025C91.7695 329.651 91.8027 321.173 91.8027 321.173C91.8027 321.173 100.281 321.397 105.497 326.772Z" fill="#9468B4"/>
<g opacity="0.5">
<path opacity="0.5" d="M124.466 314.925C124.466 327.829 114.241 338.295 114.241 338.295C114.241 338.295 104.033 327.829 104.033 314.925C104.033 302.021 114.258 291.555 114.258 291.555C114.258 291.555 124.466 302.013 124.466 314.925Z" fill="white"/>
<path opacity="0.5" d="M114.241 338.295V291.555" stroke="white" stroke-linecap="round" stroke-linejoin="round"/>
<path opacity="0.5" d="M114.241 308.169L119.965 303.169" stroke="white" stroke-linecap="round" stroke-linejoin="round"/>
<path opacity="0.5" d="M114.15 315.89L107.062 305.623" stroke="white" stroke-linecap="round" stroke-linejoin="round"/>
<path opacity="0.5" d="M114.241 320.341L122.694 312.804" stroke="white" stroke-linecap="round" stroke-linejoin="round"/>
<path opacity="0.5" d="M114.15 326.34L105.789 318.894" stroke="white" stroke-linecap="round" stroke-linejoin="round"/>
<path opacity="0.5" d="M114.15 331.523L120.689 326.34" stroke="white" stroke-linecap="round" stroke-linejoin="round"/>
<path opacity="0.5" d="M131.547 334.834C126.555 340.433 118.118 341.041 118.118 341.041C118.118 341.041 117.711 332.563 122.678 326.963C127.645 321.364 136.106 320.757 136.106 320.757C136.106 320.757 136.48 329.235 131.547 334.834Z" fill="white"/>
<path opacity="0.5" d="M118.118 341.041L136.106 320.757" stroke="white" stroke-linecap="round" stroke-linejoin="round"/>
<path opacity="0.5" d="M129.716 327.971L134.118 328.004" stroke="white" stroke-linecap="round" stroke-linejoin="round"/>
<path opacity="0.5" d="M126.705 331.282L127.578 324.102" stroke="white" stroke-linecap="round" stroke-linejoin="round"/>
<path opacity="0.5" d="M125.024 333.253L131.597 333.229" stroke="white" stroke-linecap="round" stroke-linejoin="round"/>
<path opacity="0.5" d="M122.678 335.816L121.92 329.368" stroke="white" stroke-linecap="round" stroke-linejoin="round"/>
<path opacity="0.5" d="M120.689 338.062L125.523 338.337" stroke="white" stroke-linecap="round" stroke-linejoin="round"/>
<path opacity="0.5" d="M105.497 326.772C110.705 332.138 110.68 340.625 110.68 340.625C110.68 340.625 102.203 340.4 96.986 335.025C91.7695 329.651 91.8027 321.173 91.8027 321.173C91.8027 321.173 100.281 321.397 105.497 326.772Z" fill="white"/>
<path opacity="0.5" d="M110.68 340.625L91.8027 321.173" stroke="white" stroke-linecap="round" stroke-linejoin="round"/>
<path opacity="0.5" d="M98.5083 328.087L98.8744 323.694" stroke="white" stroke-linecap="round" stroke-linejoin="round"/>
<path opacity="0.5" d="M101.595 331.34L94.4985 329.926" stroke="white" stroke-linecap="round" stroke-linejoin="round"/>
<path opacity="0.5" d="M103.426 333.154L103.9 326.606" stroke="white" stroke-linecap="round" stroke-linejoin="round"/>
<path opacity="0.5" d="M105.813 335.683L99.3237 335.965" stroke="white" stroke-linecap="round" stroke-linejoin="round"/>
<path opacity="0.5" d="M107.91 337.838L108.534 333.046" stroke="white" stroke-linecap="round" stroke-linejoin="round"/>
</g>
<path d="M114.241 338.295V291.555" stroke="#9468B4" stroke-linecap="round" stroke-linejoin="round"/>
<path d="M114.241 308.169L119.965 303.169" stroke="#9468B4" stroke-linecap="round" stroke-linejoin="round"/>
<path d="M114.15 315.89L107.061 305.623" stroke="#9468B4" stroke-linecap="round" stroke-linejoin="round"/>
<path d="M114.241 320.34L122.694 312.803" stroke="#9468B4" stroke-linecap="round" stroke-linejoin="round"/>
<path d="M114.15 326.34L105.788 318.894" stroke="#9468B4" stroke-linecap="round" stroke-linejoin="round"/>
<path d="M114.15 331.523L120.689 326.34" stroke="#9468B4" stroke-linecap="round" stroke-linejoin="round"/>
<g opacity="0.7">
<path opacity="0.7" d="M114.241 338.295V291.555" stroke="white" stroke-linecap="round" stroke-linejoin="round"/>
<path opacity="0.7" d="M114.241 308.169L119.965 303.169" stroke="white" stroke-linecap="round" stroke-linejoin="round"/>
<path opacity="0.7" d="M114.15 315.89L107.061 305.623" stroke="white" stroke-linecap="round" stroke-linejoin="round"/>
<path opacity="0.7" d="M114.241 320.341L122.694 312.804" stroke="white" stroke-linecap="round" stroke-linejoin="round"/>
<path opacity="0.7" d="M114.15 326.34L105.788 318.894" stroke="white" stroke-linecap="round" stroke-linejoin="round"/>
<path opacity="0.7" d="M114.149 331.523L120.689 326.34" stroke="white" stroke-linecap="round" stroke-linejoin="round"/>
</g>
<path d="M118.118 341.041L136.106 320.757" stroke="#9468B4" stroke-linecap="round" stroke-linejoin="round"/>
<path d="M129.716 327.971L134.118 328.004" stroke="#9468B4" stroke-linecap="round" stroke-linejoin="round"/>
<path d="M126.704 331.282L127.578 324.102" stroke="#9468B4" stroke-linecap="round" stroke-linejoin="round"/>
<path d="M125.024 333.253L131.597 333.229" stroke="#9468B4" stroke-linecap="round" stroke-linejoin="round"/>
<path d="M122.678 335.816L121.92 329.368" stroke="#9468B4" stroke-linecap="round" stroke-linejoin="round"/>
<path d="M120.689 338.062L125.523 338.337" stroke="#9468B4" stroke-linecap="round" stroke-linejoin="round"/>
<g opacity="0.7">
<path opacity="0.7" d="M118.118 341.041L136.106 320.757" stroke="white" stroke-linecap="round" stroke-linejoin="round"/>
<path opacity="0.7" d="M129.716 327.97L134.117 328.003" stroke="white" stroke-linecap="round" stroke-linejoin="round"/>
<path opacity="0.7" d="M126.704 331.282L127.578 324.102" stroke="white" stroke-linecap="round" stroke-linejoin="round"/>
<path opacity="0.7" d="M125.023 333.253L131.596 333.229" stroke="white" stroke-linecap="round" stroke-linejoin="round"/>
<path opacity="0.7" d="M122.678 335.816L121.92 329.368" stroke="white" stroke-linecap="round" stroke-linejoin="round"/>
<path opacity="0.7" d="M120.689 338.062L125.523 338.337" stroke="white" stroke-linecap="round" stroke-linejoin="round"/>
</g>
<path d="M110.68 340.625L91.8027 321.173" stroke="#9468B4" stroke-linecap="round" stroke-linejoin="round"/>
<path d="M98.5083 328.087L98.8744 323.694" stroke="#9468B4" stroke-linecap="round" stroke-linejoin="round"/>
<path d="M101.595 331.34L94.498 329.926" stroke="#9468B4" stroke-linecap="round" stroke-linejoin="round"/>
<path d="M103.425 333.153L103.9 326.605" stroke="#9468B4" stroke-linecap="round" stroke-linejoin="round"/>
<path d="M105.813 335.683L99.3237 335.965" stroke="#9468B4" stroke-linecap="round" stroke-linejoin="round"/>
<path d="M107.91 337.837L108.534 333.045" stroke="#9468B4" stroke-linecap="round" stroke-linejoin="round"/>
<g opacity="0.7">
<path opacity="0.7" d="M110.68 340.625L91.8027 321.173" stroke="white" stroke-linecap="round" stroke-linejoin="round"/>
<path opacity="0.7" d="M98.5083 328.086L98.8744 323.693" stroke="white" stroke-linecap="round" stroke-linejoin="round"/>
<path opacity="0.7" d="M101.595 331.339L94.4985 329.925" stroke="white" stroke-linecap="round" stroke-linejoin="round"/>
<path opacity="0.7" d="M103.426 333.153L103.9 326.605" stroke="white" stroke-linecap="round" stroke-linejoin="round"/>
<path opacity="0.7" d="M105.813 335.683L99.3237 335.965" stroke="white" stroke-linecap="round" stroke-linejoin="round"/>
<path opacity="0.7" d="M107.91 337.837L108.534 333.045" stroke="white" stroke-linecap="round" stroke-linejoin="round"/>
</g>
<path d="M354.776 93.7753H129.866C129.799 93.7764 129.732 93.7641 129.669 93.7391C129.607 93.7141 129.55 93.6769 129.502 93.6296C129.454 93.5824 129.416 93.5261 129.39 93.4639C129.363 93.4018 129.35 93.3351 129.35 93.2678C129.35 93.131 129.404 92.9998 129.501 92.903C129.598 92.8063 129.729 92.752 129.866 92.752H354.776C354.843 92.7519 354.91 92.7653 354.972 92.7914C355.034 92.8174 355.091 92.8555 355.138 92.9035C355.185 92.9515 355.222 93.0085 355.247 93.071C355.272 93.1336 355.285 93.2004 355.283 93.2678C355.283 93.4024 355.23 93.5315 355.135 93.6266C355.04 93.7218 354.911 93.7753 354.776 93.7753Z" fill="#9468B4"/>
<g opacity="0.3">
<path opacity="0.3" d="M354.776 93.7753H129.866C129.799 93.7764 129.732 93.7641 129.669 93.7391C129.607 93.7141 129.55 93.6769 129.502 93.6296C129.454 93.5824 129.416 93.5261 129.39 93.4639C129.363 93.4018 129.35 93.3351 129.35 93.2678C129.35 93.131 129.404 92.9998 129.501 92.903C129.598 92.8063 129.729 92.752 129.866 92.752H354.776C354.843 92.7519 354.91 92.7653 354.972 92.7914C355.034 92.8174 355.091 92.8555 355.138 92.9035C355.185 92.9515 355.222 93.0085 355.247 93.071C355.272 93.1336 355.285 93.2004 355.283 93.2678C355.283 93.4024 355.23 93.5315 355.135 93.6266C355.04 93.7218 354.911 93.7753 354.776 93.7753Z" fill="white"/>
</g>
<path d="M354.327 182.98H129.417C129.349 182.981 129.282 182.969 129.22 182.944C129.157 182.919 129.1 182.882 129.052 182.835C129.004 182.787 128.966 182.731 128.94 182.669C128.914 182.607 128.901 182.54 128.901 182.473C128.901 182.336 128.955 182.205 129.052 182.108C129.149 182.011 129.28 181.957 129.417 181.957H354.327C354.394 181.957 354.461 181.97 354.523 181.996C354.585 182.022 354.641 182.061 354.689 182.109C354.736 182.157 354.773 182.214 354.798 182.276C354.823 182.339 354.835 182.406 354.834 182.473C354.834 182.54 354.821 182.606 354.796 182.667C354.77 182.729 354.733 182.785 354.686 182.832C354.638 182.879 354.583 182.916 354.521 182.942C354.459 182.967 354.393 182.98 354.327 182.98Z" fill="#9468B4"/>
<g opacity="0.3">
<path opacity="0.3" d="M354.327 182.98H129.417C129.349 182.981 129.282 182.969 129.22 182.944C129.157 182.919 129.1 182.882 129.052 182.835C129.004 182.787 128.966 182.731 128.94 182.669C128.914 182.607 128.901 182.54 128.901 182.473C128.901 182.336 128.955 182.205 129.052 182.108C129.149 182.011 129.28 181.957 129.417 181.957H354.327C354.394 181.957 354.461 181.97 354.523 181.996C354.585 182.022 354.641 182.061 354.689 182.109C354.736 182.157 354.773 182.214 354.798 182.276C354.823 182.339 354.835 182.406 354.834 182.473C354.834 182.54 354.821 182.606 354.796 182.667C354.77 182.729 354.733 182.785 354.686 182.832C354.638 182.879 354.583 182.916 354.521 182.942C354.459 182.967 354.393 182.98 354.327 182.98Z" fill="white"/>
</g>
<path d="M354.327 255.904H129.417C129.28 255.904 129.149 255.85 129.052 255.753C128.955 255.656 128.901 255.525 128.901 255.388C128.901 255.321 128.914 255.254 128.94 255.192C128.966 255.13 129.004 255.074 129.052 255.027C129.1 254.979 129.157 254.942 129.22 254.917C129.282 254.892 129.349 254.88 129.417 254.881H354.327C354.393 254.881 354.459 254.894 354.521 254.92C354.583 254.945 354.638 254.982 354.686 255.03C354.733 255.077 354.77 255.133 354.796 255.194C354.821 255.256 354.834 255.322 354.834 255.388C354.835 255.456 354.823 255.523 354.798 255.585C354.773 255.648 354.736 255.705 354.689 255.753C354.641 255.801 354.585 255.839 354.523 255.865C354.461 255.891 354.394 255.904 354.327 255.904Z" fill="#9468B4"/>
<g opacity="0.3">
<path opacity="0.3" d="M354.327 255.904H129.417C129.28 255.904 129.149 255.85 129.052 255.753C128.955 255.656 128.901 255.525 128.901 255.388C128.901 255.321 128.914 255.254 128.94 255.192C128.966 255.13 129.004 255.074 129.052 255.027C129.1 254.979 129.157 254.942 129.22 254.917C129.282 254.892 129.349 254.88 129.417 254.881H354.327C354.393 254.881 354.459 254.894 354.521 254.92C354.583 254.945 354.638 254.982 354.686 255.03C354.733 255.077 354.77 255.133 354.796 255.194C354.821 255.256 354.834 255.322 354.834 255.388C354.835 255.456 354.823 255.523 354.798 255.585C354.773 255.648 354.736 255.705 354.689 255.753C354.641 255.801 354.585 255.839 354.523 255.865C354.461 255.891 354.394 255.904 354.327 255.904Z" fill="white"/>
</g>
<path d="M177.23 268.242V344.136" stroke="#263238" stroke-width="0.265171" stroke-miterlimit="10"/>
<path d="M188.071 268.242V344.136" stroke="#263238" stroke-width="0.265171" stroke-miterlimit="10"/>
<path d="M198.912 268.242V344.136" stroke="#263238" stroke-width="0.265171" stroke-miterlimit="10"/>
<path d="M209.753 268.242V344.136" stroke="#263238" stroke-width="0.265171" stroke-miterlimit="10"/>
<path d="M220.593 268.242V344.136" stroke="#263238" stroke-width="0.265171" stroke-miterlimit="10"/>
<path d="M231.434 268.242V344.136" stroke="#263238" stroke-width="0.265171" stroke-miterlimit="10"/>
<path d="M242.275 268.242V344.136" stroke="#263238" stroke-width="0.265171" stroke-miterlimit="10"/>
<path d="M253.116 268.242V344.136" stroke="#263238" stroke-width="0.265171" stroke-miterlimit="10"/>
<path d="M263.957 268.242V344.136" stroke="#263238" stroke-width="0.265171" stroke-miterlimit="10"/>
<path d="M274.797 268.242V344.136" stroke="#263238" stroke-width="0.265171" stroke-miterlimit="10"/>
<path d="M285.638 268.242V344.136" stroke="#263238" stroke-width="0.265171" stroke-miterlimit="10"/>
<path d="M296.479 268.242V344.136" stroke="#263238" stroke-width="0.265171" stroke-miterlimit="10"/>
<path d="M177.771 275.289H295.938" stroke="#263238" stroke-width="0.265171" stroke-miterlimit="10"/>
<path d="M177.771 285.589H295.938" stroke="#263238" stroke-width="0.265171" stroke-miterlimit="10"/>
<path d="M177.771 295.889H295.938" stroke="#263238" stroke-width="0.265171" stroke-miterlimit="10"/>
<path d="M177.771 306.188H295.938" stroke="#263238" stroke-width="0.265171" stroke-miterlimit="10"/>
<path d="M177.771 316.489H295.938" stroke="#263238" stroke-width="0.265171" stroke-miterlimit="10"/>
<path d="M177.771 326.789H295.938" stroke="#263238" stroke-width="0.265171" stroke-miterlimit="10"/>
<path d="M177.771 337.089H295.938" stroke="#263238" stroke-width="0.265171" stroke-miterlimit="10"/>
<path d="M202.598 294.865L186.74 343.753H219.953L204.087 294.865C204.036 294.708 203.937 294.57 203.803 294.472C203.669 294.375 203.508 294.322 203.342 294.322C203.177 294.322 203.015 294.375 202.882 294.472C202.748 294.57 202.648 294.708 202.598 294.865Z" fill="#9468B4" stroke="#263238" stroke-width="1.06068" stroke-miterlimit="10"/>
<path d="M232.832 278.675L211.725 343.753H255.454L234.321 278.675C234.271 278.517 234.171 278.38 234.037 278.282C233.904 278.184 233.742 278.132 233.577 278.132C233.411 278.132 233.25 278.184 233.116 278.282C232.982 278.38 232.883 278.517 232.832 278.675Z" fill="#263238" stroke="#263238" stroke-width="1.06068" stroke-miterlimit="10"/>
<path d="M260.654 306.047L248.415 343.753H274.373L262.109 306.047C262.052 305.901 261.952 305.775 261.822 305.687C261.692 305.598 261.539 305.551 261.381 305.551C261.224 305.551 261.071 305.598 260.941 305.687C260.811 305.775 260.711 305.901 260.654 306.047Z" fill="#9468B4" stroke="#263238" stroke-width="1.06068" stroke-miterlimit="10"/>
<path d="M277.418 318.993L269.389 343.753H286.936L278.907 318.993C278.856 318.835 278.757 318.698 278.623 318.6C278.489 318.503 278.328 318.45 278.162 318.45C277.997 318.45 277.835 318.503 277.702 318.6C277.568 318.698 277.468 318.835 277.418 318.993Z" fill="#263238" stroke="#263238" stroke-width="1.06068" stroke-miterlimit="10"/>
<path d="M175.8 244.256C171.043 244.256 166.392 242.845 162.437 240.202C158.481 237.559 155.398 233.803 153.578 229.408C151.757 225.013 151.281 220.176 152.209 215.511C153.137 210.845 155.428 206.559 158.792 203.195C162.156 199.831 166.442 197.541 171.107 196.613C175.773 195.684 180.609 196.161 185.004 197.981C189.399 199.802 193.156 202.885 195.799 206.84C198.442 210.796 199.852 215.446 199.852 220.203C199.846 226.58 197.31 232.694 192.8 237.204C188.291 241.713 182.177 244.249 175.8 244.256ZM175.8 203.214C172.44 203.216 169.156 204.213 166.363 206.081C163.571 207.949 161.394 210.603 160.11 213.707C158.825 216.812 158.49 220.228 159.146 223.523C159.803 226.818 161.422 229.844 163.798 232.219C166.174 234.594 169.201 236.211 172.497 236.866C175.792 237.521 179.208 237.184 182.311 235.898C185.415 234.612 188.068 232.434 189.935 229.641C191.801 226.847 192.797 223.563 192.797 220.203C192.793 215.697 191 211.377 187.813 208.192C184.626 205.006 180.306 203.216 175.8 203.214Z" fill="#263238" stroke="#263238" stroke-width="1.06068" stroke-miterlimit="10"/>
<path d="M175.8 244.256C172.553 244.266 169.339 243.613 166.354 242.339C163.368 241.064 160.674 239.194 158.436 236.843L163.536 231.959C165.116 233.62 167.019 234.941 169.128 235.841C171.237 236.741 173.507 237.201 175.8 237.192C178.031 237.192 180.24 236.753 182.301 235.899C184.362 235.045 186.235 233.794 187.813 232.216C189.39 230.639 190.642 228.766 191.495 226.704C192.349 224.643 192.789 222.434 192.789 220.203C192.789 217.972 192.349 215.763 191.495 213.702C190.642 211.64 189.39 209.767 187.813 208.19C186.235 206.612 184.362 205.361 182.301 204.507C180.24 203.653 178.031 203.214 175.8 203.214V196.15C178.958 196.15 182.086 196.773 185.004 197.981C187.922 199.19 190.574 200.962 192.807 203.195C195.041 205.429 196.812 208.08 198.021 210.998C199.23 213.917 199.852 217.044 199.852 220.203C199.852 223.362 199.23 226.489 198.021 229.408C196.812 232.326 195.041 234.977 192.807 237.211C190.574 239.444 187.922 241.216 185.004 242.425C182.086 243.634 178.958 244.256 175.8 244.256Z" fill="#9468B4" stroke="#263238" stroke-width="1.06068" stroke-miterlimit="10"/>
<path d="M235.12 244.256C230.363 244.257 225.711 242.848 221.755 240.206C217.798 237.564 214.714 233.808 212.892 229.413C211.071 225.018 210.593 220.182 211.52 215.516C212.447 210.849 214.738 206.563 218.101 203.198C221.464 199.834 225.75 197.542 230.416 196.613C235.082 195.684 239.919 196.16 244.314 197.981C248.71 199.801 252.467 202.884 255.11 206.839C257.753 210.795 259.164 215.446 259.164 220.203C259.158 226.579 256.623 232.692 252.115 237.201C247.608 241.71 241.496 244.247 235.12 244.256ZM235.12 203.214C231.761 203.217 228.478 204.216 225.686 206.085C222.894 207.954 220.719 210.608 219.436 213.713C218.153 216.818 217.819 220.233 218.476 223.528C219.133 226.822 220.753 229.848 223.129 232.222C225.506 234.596 228.533 236.213 231.828 236.867C235.124 237.521 238.539 237.184 241.642 235.897C244.745 234.611 247.398 232.433 249.264 229.64C251.13 226.846 252.126 223.562 252.126 220.203C252.119 215.696 250.325 211.376 247.137 208.191C243.948 205.006 239.627 203.216 235.12 203.214Z" fill="#263238" stroke="#263238" stroke-width="1.06068" stroke-miterlimit="10"/>
<path d="M244.48 242.359L241.734 235.861C245.342 234.332 248.311 231.602 250.138 228.136C251.965 224.669 252.538 220.677 251.76 216.836C250.982 212.995 248.9 209.542 245.868 207.059C242.836 204.577 239.039 203.218 235.12 203.214V196.15C240.67 196.151 246.049 198.071 250.345 201.584C254.641 205.098 257.59 209.989 258.691 215.428C259.793 220.867 258.98 226.52 256.39 231.429C253.8 236.337 249.592 240.198 244.48 242.359Z" fill="#9468B4" stroke="#263238" stroke-width="1.06068" stroke-miterlimit="10"/>
<path d="M294.432 244.256C289.675 244.256 285.025 242.845 281.069 240.202C277.114 237.559 274.031 233.803 272.21 229.408C270.39 225.013 269.913 220.176 270.842 215.511C271.77 210.845 274.06 206.559 277.424 203.195C280.788 199.831 285.074 197.541 289.74 196.613C294.405 195.684 299.242 196.161 303.637 197.981C308.032 199.802 311.788 202.885 314.431 206.84C317.074 210.796 318.485 215.446 318.485 220.203C318.478 226.58 315.942 232.694 311.433 237.204C306.923 241.713 300.809 244.249 294.432 244.256ZM294.432 203.214C291.072 203.214 287.787 204.21 284.993 206.077C282.2 207.944 280.022 210.597 278.736 213.702C277.45 216.806 277.114 220.222 277.769 223.517C278.425 226.813 280.043 229.84 282.419 232.216C284.795 234.592 287.822 236.21 291.118 236.866C294.413 237.521 297.829 237.185 300.933 235.899C304.038 234.613 306.691 232.436 308.558 229.642C310.425 226.848 311.421 223.563 311.421 220.203C311.417 215.699 309.625 211.38 306.44 208.195C303.255 205.01 298.936 203.218 294.432 203.214Z" fill="#263238" stroke="#263238" stroke-width="1.06068" stroke-miterlimit="10"/>
<path d="M311.088 216.817C310.299 212.983 308.214 209.538 305.184 207.061C302.154 204.584 298.363 203.225 294.449 203.214V196.15C299.992 196.165 305.362 198.087 309.654 201.595C313.947 205.102 316.901 209.981 318.019 215.411L311.088 216.817Z" fill="#9468B4" stroke="#263238" stroke-width="1.06068" stroke-miterlimit="10"/>
<path d="M185.393 169.519H298.351" stroke="#263238" stroke-width="1.06068" stroke-miterlimit="10"/>
<path d="M185.393 169.519V167.114" stroke="#263238" stroke-width="1.06068" stroke-miterlimit="10"/>
<path d="M207.981 169.519V167.114" stroke="#263238" stroke-width="1.06068" stroke-miterlimit="10"/>
<path d="M230.578 169.519V167.114" stroke="#263238" stroke-width="1.06068" stroke-miterlimit="10"/>
<path d="M253.166 169.519V167.114" stroke="#263238" stroke-width="1.06068" stroke-miterlimit="10"/>
<path d="M275.754 169.519V167.114" stroke="#263238" stroke-width="1.06068" stroke-miterlimit="10"/>
<path d="M298.351 169.519V167.114" stroke="#263238" stroke-width="1.06068" stroke-miterlimit="10"/>
<path d="M204.819 137.412H188.554V156.673H204.819V137.412Z" fill="#9468B4" stroke="#263238" stroke-width="1.06068" stroke-miterlimit="10"/>
<path d="M227.408 114.94H211.143V159.884H227.408V114.94Z" fill="#9468B4" stroke="#263238" stroke-width="1.06068" stroke-miterlimit="10"/>
<path d="M250.005 83.4834H233.739V133.569H250.005V83.4834Z" fill="#9468B4" stroke="#263238" stroke-width="1.06068" stroke-miterlimit="10"/>
<path d="M272.593 130.357H256.328V139.992H272.593V130.357Z" fill="#9468B4" stroke="#263238" stroke-width="1.06068" stroke-miterlimit="10"/>
<path d="M295.181 124.575H278.916V149.618H295.181V124.575Z" fill="#9468B4" stroke="#263238" stroke-width="1.06068" stroke-miterlimit="10"/>
<path d="M204.819 156.682H188.554V169.527H204.819V156.682Z" fill="#263238" stroke="#263238" stroke-width="1.06068" stroke-miterlimit="10"/>
<path d="M227.408 159.893H211.143V169.527H227.408V159.893Z" fill="#263238" stroke="#263238" stroke-width="1.06068" stroke-miterlimit="10"/>
<path d="M250.005 133.561H233.739V169.519H250.005V133.561Z" fill="#263238" stroke="#263238" stroke-width="1.06068" stroke-miterlimit="10"/>
<path d="M272.593 139.983H256.328V169.519H272.593V139.983Z" fill="#263238" stroke="#263238" stroke-width="1.06068" stroke-miterlimit="10"/>
<path d="M295.181 149.618H278.916V169.519H295.181V149.618Z" fill="#263238" stroke="#263238" stroke-width="1.06068" stroke-miterlimit="10"/>
<path d="M328.452 74.3895C328.257 74.3909 328.064 74.3437 327.891 74.2522C327.718 74.1608 327.571 74.0278 327.462 73.8653L292.469 22.8315L256.968 60.6867L220.719 37.0584L185.651 45.1952L150.033 74.1233C149.786 74.3241 149.469 74.4185 149.153 74.3857C148.836 74.3529 148.545 74.1957 148.344 73.9485C148.144 73.7014 148.049 73.3846 148.082 73.0679C148.115 72.7512 148.272 72.4604 148.519 72.2596L184.569 42.9821L221.176 34.4876L256.602 57.5834L292.768 19.0127L329.442 72.5092C329.567 72.6887 329.64 72.8988 329.653 73.1168C329.667 73.3348 329.621 73.5523 329.519 73.7459C329.418 73.9395 329.266 74.1018 329.08 74.2152C328.893 74.3287 328.679 74.3889 328.461 74.3895H328.452Z" fill="#263238"/>
<path d="M152.288 73.1919C152.288 73.7793 152.114 74.3536 151.787 74.842C151.461 75.3305 150.997 75.7111 150.454 75.936C149.912 76.1608 149.315 76.2196 148.738 76.105C148.162 75.9904 147.633 75.7075 147.218 75.2921C146.802 74.8767 146.519 74.3475 146.405 73.7713C146.29 73.1952 146.349 72.598 146.574 72.0552C146.799 71.5125 147.179 71.0486 147.668 70.7222C148.156 70.3959 148.73 70.2217 149.318 70.2217C150.106 70.2217 150.861 70.5346 151.418 71.0916C151.975 71.6486 152.288 72.4041 152.288 73.1919Z" fill="#9468B4"/>
<path d="M185.11 47.0585C186.75 47.0585 188.08 45.7287 188.08 44.0883C188.08 42.448 186.75 41.1182 185.11 41.1182C183.469 41.1182 182.14 42.448 182.14 44.0883C182.14 45.7287 183.469 47.0585 185.11 47.0585Z" fill="#9468B4"/>
<path d="M220.943 38.7392C222.584 38.7392 223.913 37.4094 223.913 35.769C223.913 34.1286 222.584 32.7988 220.943 32.7988C219.303 32.7988 217.973 34.1286 217.973 35.769C217.973 37.4094 219.303 38.7392 220.943 38.7392Z" fill="#9468B4"/>
<path d="M256.777 62.1015C258.417 62.1015 259.747 60.7717 259.747 59.1313C259.747 57.4909 258.417 56.1611 256.777 56.1611C255.136 56.1611 253.807 57.4909 253.807 59.1313C253.807 60.7717 255.136 62.1015 256.777 62.1015Z" fill="#9468B4"/>
<path d="M295.581 20.9262C295.581 21.5137 295.406 22.0879 295.08 22.5764C294.754 23.0648 294.29 23.4455 293.747 23.6703C293.204 23.8951 292.607 23.9539 292.031 23.8393C291.455 23.7247 290.925 23.4419 290.51 23.0265C290.095 22.6111 289.812 22.0818 289.697 21.5057C289.583 20.9295 289.641 20.3323 289.866 19.7896C290.091 19.2469 290.472 18.783 290.96 18.4566C291.449 18.1303 292.023 17.9561 292.61 17.9561C293.398 17.9561 294.154 18.269 294.711 18.826C295.268 19.383 295.581 20.1385 295.581 20.9262Z" fill="#9468B4"/>
<path d="M331.414 73.1919C331.414 73.7793 331.24 74.3536 330.913 74.842C330.587 75.3305 330.123 75.7111 329.58 75.936C329.038 76.1608 328.441 76.2196 327.864 76.105C327.288 75.9904 326.759 75.7075 326.344 75.2921C325.928 74.8767 325.645 74.3475 325.531 73.7713C325.416 73.1952 325.475 72.598 325.7 72.0552C325.925 71.5125 326.305 71.0486 326.794 70.7222C327.282 70.3959 327.856 70.2217 328.444 70.2217C329.232 70.2217 329.987 70.5346 330.544 71.0916C331.101 71.6486 331.414 72.4041 331.414 73.1919Z" fill="#9468B4"/>
<path d="M392.498 356.282C424.212 356.282 449.922 352.829 449.922 348.57C449.922 344.31 424.212 340.857 392.498 340.857C360.784 340.857 335.075 344.31 335.075 348.57C335.075 352.829 360.784 356.282 392.498 356.282Z" fill="#9468B4"/>
<path opacity="0.7" d="M392.498 356.282C424.212 356.282 449.922 352.829 449.922 348.57C449.922 344.31 424.212 340.857 392.498 340.857C360.784 340.857 335.075 344.31 335.075 348.57C335.075 352.829 360.784 356.282 392.498 356.282Z" fill="white"/>
<path d="M77.8918 356.282C107.157 356.282 130.881 352.829 130.881 348.57C130.881 344.31 107.157 340.857 77.8918 340.857C48.6268 340.857 24.9028 344.31 24.9028 348.57C24.9028 352.829 48.6268 356.282 77.8918 356.282Z" fill="#9468B4"/>
<path opacity="0.7" d="M77.8918 356.282C107.157 356.282 130.881 352.829 130.881 348.57C130.881 344.31 107.157 340.857 77.8918 340.857C48.6268 340.857 24.9028 344.31 24.9028 348.57C24.9028 352.829 48.6268 356.282 77.8918 356.282Z" fill="white"/>
<path d="M376.291 76.8695C376.291 76.8695 398.105 74.7562 399.353 78.392C400.601 82.0278 400.185 90.3309 400.185 90.3309C401.284 90.6166 402.356 90.998 403.388 91.4708C403.679 91.7536 406.908 93.8669 403.896 97.3362C403.109 98.216 402.156 98.9314 401.092 99.4412C399.764 100.029 398.501 100.754 397.323 101.604L392.947 106.571L393.779 112.969C393.779 112.969 395.734 114.384 398.122 119.317C398.122 119.317 403.763 122.645 407.074 124.534C409.797 125.965 412.629 127.177 415.544 128.161C415.544 128.161 417.058 128.652 416.95 129.742C416.841 130.832 409.412 155.533 409.412 155.533L405.502 168.013C405.427 169.547 405.227 171.072 404.903 172.572C404.345 175.26 402.249 177.024 400.077 176.474L400.293 185.626C400.293 185.626 390.093 190.726 373.271 189.861C373.271 189.861 365.35 189.096 359.493 184.761L359.385 163.379L332.395 158.154C332.395 158.154 328.976 157.43 330.731 154.352C332.487 151.274 338.385 143.636 338.385 143.636L357.346 120.44C357.346 120.44 358.653 118.901 359.135 118.41C359.618 117.92 360.799 117.578 365.483 117.187C370.167 116.796 375.417 115.889 375.417 115.889C375.417 115.889 378.262 113.443 378.67 113.443C379.078 113.443 379.161 109.783 379.161 109.783C377.722 108.744 376.525 107.406 375.654 105.861C374.782 104.315 374.255 102.599 374.111 100.831C373.703 94.8902 376.307 80.9711 376.307 80.9711L376.291 76.8695Z" fill="white"/>
<path d="M359.826 184.678C359.826 184.678 357.53 218.789 357.53 235.113C357.53 251.436 358.553 264.656 359.061 276.121C359.568 287.586 357.53 295.481 359.31 303.884C361.091 312.287 365.176 336.748 365.176 336.748L369.976 339.643C369.976 339.643 370.808 320.183 372.555 313.311C374.303 306.438 374.852 277.394 375.883 268.475C376.915 259.556 380.218 227.974 380.218 227.974C380.218 227.974 392.956 261.087 396.026 274.083C399.096 287.078 409.529 316.364 411.833 323.494C414.138 330.624 417.69 341.19 417.69 341.19C418.77 341.506 419.904 341.591 421.018 341.44C421.5 341.401 421.963 341.24 422.365 340.973C422.767 340.705 423.094 340.339 423.315 339.909C423.315 339.909 419.929 318.577 418.439 308.211C416.601 295.39 413.605 276.121 411.783 268.991C409.961 261.861 407.199 250.646 407.199 245.296C407.199 239.946 400.327 186.225 400.327 186.225C400.327 186.225 376.383 196.65 359.826 184.678Z" fill="#263238"/>
<path d="M380.201 227.974L369.984 216.06" stroke="white" stroke-width="0.530341" stroke-miterlimit="10" stroke-linecap="round"/>
<path d="M367.372 216.934L375.783 224.763" stroke="white" stroke-width="0.530341" stroke-miterlimit="10" stroke-linecap="round"/>
<path d="M385.351 217.808C387.505 212.358 391.508 207.84 396.658 205.045" stroke="white" stroke-width="0.530341" stroke-miterlimit="10" stroke-linecap="round"/>
<path d="M397.232 189.104C397.232 189.104 396.075 193.446 397.523 196.059C398.971 198.671 400.427 198.671 400.427 198.671C400.427 198.671 403.031 212.873 403.031 220.993C403.031 229.114 401.292 229.979 403.031 238.964C404.77 247.95 405.934 250.853 405.934 256.07C405.934 261.286 408.247 264.772 410.277 267.959C412.307 271.145 412.89 280.439 412.89 284.191C412.89 287.943 414.046 292.02 415.211 295.789C415.211 295.789 415.486 304.242 416.95 306.222C418.414 308.202 418.689 314.924 418.689 314.924" stroke="white" stroke-width="0.530341" stroke-miterlimit="10" stroke-linecap="round"/>
<path d="M378.105 226.793C378.105 226.793 378.679 233.449 376.649 245.055C374.619 256.661 373.171 259.839 372.88 273.176C372.589 286.513 373.753 288.834 373.171 295.789C372.589 302.745 369.111 313.735 369.111 318.727C369.111 323.719 369.643 339.676 369.643 339.676" stroke="white" stroke-width="0.530341" stroke-miterlimit="10" stroke-linecap="round"/>
<path d="M371.723 190.843L372.306 193.164L376.074 194.029L375.492 191.134" stroke="white" stroke-width="0.530341" stroke-miterlimit="10" stroke-linecap="round"/>
<path d="M376.091 194.029C376.091 194.029 383.047 193.737 386.524 192.581L385.692 190.26" stroke="white" stroke-width="0.530341" stroke-miterlimit="10" stroke-linecap="round"/>
<path d="M388.829 189.678L389.661 192.581C389.661 192.581 395.227 192.265 396.059 191.433" stroke="white" stroke-width="0.530341" stroke-miterlimit="10" stroke-linecap="round"/>
<path d="M372.306 193.164C370.383 193.104 368.499 192.606 366.798 191.708L364.186 190.261L365.018 188.23" stroke="white" stroke-width="0.530341" stroke-miterlimit="10" stroke-linecap="round"/>
<path d="M365.175 336.747C365.175 336.747 352.696 344.892 350.907 348.711C349.118 352.53 356.257 351.007 361.348 348.969C366.44 346.931 369.668 339.642 369.668 339.642L365.175 336.747Z" fill="white" stroke="#263238" stroke-width="1.06068" stroke-miterlimit="10" stroke-linecap="round"/>
<path d="M418.09 341.298C418.719 344.788 419.958 348.139 421.751 351.199C424.496 355.467 429.679 359.127 429.679 352.413C429.679 345.699 423.281 339.934 423.281 339.934C423.281 339.934 420.103 341.656 418.09 341.298Z" fill="white" stroke="#263238" stroke-width="1.06068" stroke-miterlimit="10" stroke-linecap="round"/>
<path d="M376.216 81.4785C376.216 81.4785 373.512 98.2513 374.427 102.411C376.516 111.721 383.845 111.322 388.43 109.541C392.714 107.877 396.991 101.995 397.54 101.221C397.579 101.167 397.634 101.126 397.698 101.105C398.38 100.914 402.615 99.5658 404.479 96.2961C406.517 92.7269 402.698 91.2044 402.698 91.2044" fill="white"/>
<g style="mix-blend-mode:multiply" opacity="0.5">
<path d="M393.563 105.54L397.606 101.097C397.606 101.097 402.39 99.6243 404.478 96.2547C405.701 94.2829 405.027 92.5607 404.287 92.0948C403.272 91.5455 402.225 91.0593 401.15 90.6388L399.794 93.6257L398.638 93.8253C398.638 93.8253 399.12 90.747 397.722 88.9249C396.325 87.1029 396.009 81.8281 396.009 81.8281C396.009 81.8281 394.053 92.3444 393.812 96.7456C393.75 99.195 392.985 101.575 391.607 103.601C391.607 103.601 391.857 106.288 392.34 108.976C392.398 109.292 392.456 109.766 392.514 110.357L393.18 109.292L393.546 110.307C393.13 108.56 392.939 106.704 393.563 105.54Z" fill="#9468B4"/>
</g>
<path d="M376.216 81.4785C376.216 81.4785 373.512 98.2513 374.427 102.411C376.516 111.721 383.845 111.322 388.43 109.541C392.714 107.877 396.991 101.995 397.54 101.221C397.579 101.167 397.634 101.126 397.698 101.105C398.38 100.914 402.615 99.5658 404.479 96.2961C406.517 92.7269 402.698 91.2044 402.698 91.2044" stroke="#263238" stroke-width="1.06068" stroke-miterlimit="10" stroke-linecap="round"/>
<path d="M386.566 90.006C386.408 90.6716 386.566 91.2706 386.874 91.3455C387.182 91.4204 387.598 90.9545 387.756 90.2972C387.914 89.6399 387.756 89.0409 387.448 88.9577C387.14 88.8745 386.724 89.3487 386.566 90.006Z" fill="#263238"/>
<path d="M379.419 88.2672C379.261 88.9328 379.419 89.5319 379.727 89.6067C380.035 89.6816 380.451 89.2157 380.609 88.5584C380.767 87.9012 380.609 87.2938 380.301 87.219C379.993 87.1441 379.569 87.6017 379.419 88.2672Z" fill="#263238"/>
<path d="M391 87.0939C390.607 86.4021 390.047 85.8197 389.371 85.3997C388.696 84.9798 387.926 84.7356 387.131 84.6895" stroke="#263238" stroke-width="1.06068" stroke-miterlimit="10" stroke-linecap="round"/>
<path d="M381.657 84.8141C381.002 84.5279 380.276 84.4478 379.574 84.5845C378.873 84.7213 378.229 85.0683 377.73 85.5796" stroke="#263238" stroke-width="1.06068" stroke-miterlimit="10" stroke-linecap="round"/>
<path d="M382.14 87.8428C382.155 88.9573 382.072 90.071 381.89 91.1707C381.615 92.5601 380.534 92.8347 380.808 93.9079C381.083 94.9812 382.472 95.0893 382.472 95.0893" stroke="#263238" stroke-width="1.06068" stroke-miterlimit="10" stroke-linecap="round"/>
<path d="M383.92 99.4243C384.509 99.6119 385.131 99.6696 385.745 99.5935C386.358 99.5174 386.947 99.3092 387.473 98.9834" stroke="#263238" stroke-width="1.06068" stroke-miterlimit="10" stroke-linecap="round"/>
<path d="M397.099 69.764C397.099 69.764 391.5 64.9219 386.15 64.9219C380.8 64.9219 376.466 67.9836 373.154 68.2498C369.843 68.516 367.555 65.446 365.517 69.5227C363.479 73.5995 371.124 80.48 376.216 81.495C381.308 82.51 388.438 80.9875 390.476 80.7296C392.429 80.5957 394.389 80.5957 396.342 80.7296C396.342 80.7296 394.811 85.5717 396.342 87.1025C397.873 88.6334 398.122 89.6484 398.122 90.6634C398.21 91.7837 398.379 92.896 398.63 93.9914L400.161 94.5072L400.926 91.7034C402.991 89.501 404.403 86.7671 405.003 83.8079C405.76 79.2237 401.941 74.6561 401.941 74.6561L397.099 69.764Z" fill="#263238"/>
<path d="M375.65 79.4064C375.65 79.4064 384.361 81.0703 391.184 78.2333C398.006 75.3962 392.124 69.7637 392.124 69.7637" stroke="white" stroke-width="0.530341" stroke-miterlimit="10" stroke-linecap="round"/>
<path d="M393.563 69.29C394.27 69.29 400.152 73.7578 398.971 77.0524C397.789 80.3471 395.443 80.5884 395.443 80.5884" stroke="white" stroke-width="0.530341" stroke-miterlimit="10" stroke-linecap="round"/>
<path d="M392.597 170.351L385.243 166.474C383.352 166.369 381.473 166.125 379.619 165.742C377.905 165.251 360.317 163.57 360.317 163.57L360.05 167.73C360.05 167.73 380.109 170.426 384.261 170.917C388.413 171.408 392.09 173.363 392.822 174.586C393.554 175.809 395.027 177.032 394.295 180.41C393.563 183.788 388.671 188.729 388.671 188.729C388.438 188.38 400.435 187.515 400.318 186.234C400.06 183.688 398.704 176.25 398.704 176.25L392.597 170.351Z" fill="#9468B4"/>
<path opacity="0.5" d="M392.597 170.351L385.243 166.474C383.352 166.369 381.473 166.125 379.619 165.742C377.905 165.251 360.317 163.57 360.317 163.57L360.05 167.73C360.05 167.73 380.109 170.426 384.261 170.917C388.413 171.408 392.09 173.363 392.822 174.586C393.554 175.809 395.027 177.032 394.295 180.41C393.563 183.788 388.671 188.729 388.671 188.729C388.479 188.355 400.46 187.506 400.318 186.234C399.927 182.989 398.704 176.25 398.704 176.25L392.597 170.351Z" fill="white"/>
<path d="M416.858 129.65C416.21 126.605 411.367 127.012 408.447 125.323C405.527 123.634 398.463 119.724 398.463 119.724L395.044 114.582C394.427 113.196 393.928 111.76 393.555 110.289L393.189 109.274L392.523 110.339C392.947 114.899 393.355 126.571 393.355 126.571L394.819 133.909C394.819 133.909 400.452 158.12 401.916 163.503C403.38 168.886 403.38 172.547 402.407 174.261C401.433 175.974 401.758 176.757 401.758 176.757C401.758 176.757 405.577 173.803 405.344 170.874C405.036 167.43 417.316 131.713 416.858 129.65Z" fill="#9468B4"/>
<path opacity="0.5" d="M416.858 129.65C416.526 126.555 411.367 127.012 408.447 125.323C405.527 123.634 398.463 119.724 398.463 119.724L395.044 114.582C394.427 113.196 393.928 111.76 393.555 110.289L393.189 109.274L392.523 110.339C392.947 114.899 393.355 126.571 393.355 126.571L394.819 133.909C394.819 133.909 400.452 158.12 401.916 163.503C403.38 168.886 403.38 172.547 402.407 174.261C401.433 175.974 401.758 176.757 401.758 176.757C401.758 176.757 405.685 173.795 405.344 170.874C404.953 167.738 417.158 132.221 416.858 129.65Z" fill="white"/>
<path d="M395.485 126.597C395.485 126.597 393.954 112.844 393.188 109.275C392.423 105.705 392.939 103.675 389.627 103.675C386.316 103.675 382.239 103.16 382.971 104.948C383.704 106.737 388.795 105.198 389.627 105.963C390.459 106.729 389.877 108.509 389.877 108.509C389.877 108.509 383.221 109.025 383.221 110.806C383.221 112.586 383.479 117.461 384.752 117.936C386.025 118.41 386.532 115.648 386.532 115.648C386.532 115.648 386.79 121.472 388.063 123.543C388.874 124.823 389.813 126.016 390.867 127.104L395.485 126.597Z" fill="white" stroke="#263238" stroke-width="1.06068" stroke-miterlimit="10" stroke-linecap="round"/>
<path d="M390.901 130.416C390.901 130.416 390.135 162.031 391.408 167.098C392.681 172.165 399.561 179.07 403.122 175.759C406.683 172.448 404.911 165.318 404.911 162.006C404.911 158.695 396.758 134.243 396.758 132.454C396.637 130.969 396.291 129.51 395.734 128.128" stroke="#263238" stroke-width="1.06068" stroke-miterlimit="10" stroke-linecap="round"/>
<path d="M391.408 134.242L396.499 133.727" stroke="#263238" stroke-width="1.06068" stroke-miterlimit="10" stroke-linecap="round"/>
<path d="M358.844 150.051L359.826 121.921C359.826 121.921 358.603 121.189 358.112 123.876C357.621 126.564 357.38 131.955 357.38 131.955C357.38 131.955 351.506 128.286 352.979 130.482C354.451 132.679 356.889 137.579 356.889 137.579L347.804 146.623L351.964 148.337L358.844 150.051Z" fill="#9468B4"/>
<path opacity="0.5" d="M358.844 150.051L359.826 121.921C359.826 121.921 358.603 121.189 358.112 123.876C357.621 126.564 357.38 131.955 357.38 131.955C357.38 131.955 351.506 128.286 352.979 130.482C354.451 132.679 356.889 137.579 356.889 137.579L347.804 146.623L351.964 148.337L358.844 150.051Z" fill="white"/>
<path d="M371.024 128.202C371.024 128.202 370.558 129.866 372.513 129.866C374.469 129.866 377.905 128.477 377.905 128.477L377.655 125.715C377.655 125.715 372.954 128.003 371.024 128.202Z" fill="#9468B4"/>
<path opacity="0.5" d="M371.024 128.202C371.024 128.202 370.558 129.866 372.513 129.866C374.469 129.866 377.905 128.477 377.905 128.477L377.655 125.715C377.655 125.715 372.954 128.003 371.024 128.202Z" fill="white"/>
<path d="M379.419 109.6C379.419 109.6 376.873 124.575 378.404 127.903C379.935 131.231 382.223 130.449 384.003 128.927C385.784 127.404 388.08 123.577 388.08 123.577" stroke="#263238" stroke-width="1.06068" stroke-miterlimit="10" stroke-linecap="round"/>
<path d="M359.31 163.786L359.826 184.677C359.826 184.677 365.65 190.276 376.89 190.276C388.13 190.276 400.327 186.2 400.327 186.2V178.812" stroke="#263238" stroke-width="1.06068" stroke-miterlimit="10" stroke-linecap="round"/>
<path d="M393.704 112.586C393.704 112.586 398.288 117.17 398.288 121.505C398.288 125.839 397.523 126.854 397.523 126.854" stroke="#263238" stroke-width="1.06068" stroke-miterlimit="10" stroke-linecap="round"/>
<path d="M397.772 118.959C397.772 118.959 404.653 123.027 408.472 125.324C412.291 127.62 416.883 127.612 416.883 129.65C416.883 131.688 406.184 166.332 406.184 166.332" stroke="#263238" stroke-width="1.06068" stroke-miterlimit="10" stroke-linecap="round"/>
<path d="M402.107 130.416L399.562 140.608" stroke="#263238" stroke-width="1.06068" stroke-miterlimit="10" stroke-linecap="round"/>
<path d="M359.377 136.398L355.258 127.762" stroke="#263238" stroke-width="0.530341" stroke-miterlimit="10" stroke-linecap="round"/>
<path d="M359.376 138.868L353.203 135.166" stroke="#263238" stroke-width="0.530341" stroke-miterlimit="10" stroke-linecap="round"/>
<path d="M379.519 158.188L378.288 164.361" stroke="#263238" stroke-width="0.530341" stroke-miterlimit="10" stroke-linecap="round"/>
<path d="M412.823 129.409C412.823 129.409 406.658 130.641 400.901 137.629" stroke="#263238" stroke-width="0.530341" stroke-miterlimit="10" stroke-linecap="round"/>
<path d="M408.713 129.034C408.713 129.034 407.049 128.618 401.317 133.552" stroke="#263238" stroke-width="0.530341" stroke-miterlimit="10" stroke-linecap="round"/>
<path d="M379.519 131.057L377.056 150.375L379.111 150.791L380.758 144.626" stroke="#263238" stroke-width="0.530341" stroke-miterlimit="10" stroke-linecap="round"/>
<path d="M381.166 181.624C373.762 187.797 363.487 187.381 363.487 187.381" stroke="#263238" stroke-width="0.530341" stroke-miterlimit="10" stroke-linecap="round"/>
<path d="M349.876 148.07C349.876 148.07 344.842 143.461 337.712 149.326" stroke="#263238" stroke-width="0.530341" stroke-miterlimit="10" stroke-linecap="round"/>
<path d="M378.928 113.352C378.928 113.352 376.89 113.859 374.594 117.428C372.297 120.997 369.502 127.104 371.54 127.612C373.579 128.119 377.364 125.831 377.364 125.831" stroke="#263238" stroke-width="1.06068" stroke-miterlimit="10" stroke-linecap="round"/>
<path d="M386.824 126.854L389.37 129.142" stroke="#263238" stroke-width="1.06068" stroke-miterlimit="10" stroke-linecap="round"/>
<path d="M375.359 115.897C375.359 115.897 365.933 117.17 362.114 117.428C358.295 117.686 359.036 119.092 357.788 119.974C355.774 121.38 332.678 150.658 331.164 153.461C329.65 156.265 329.891 157.538 332.437 158.304C334.983 159.069 360.342 163.528 360.342 163.528L382.747 165.825L384.527 160.217C384.527 160.217 389.736 160.908 390.651 160.908" stroke="#263238" stroke-width="1.06068" stroke-miterlimit="10" stroke-linecap="round"/>
<path d="M381.981 158.154C377.036 156.719 372.257 154.767 367.721 152.33" stroke="#263238" stroke-width="1.06068" stroke-miterlimit="10" stroke-linecap="round"/>
<path d="M365.683 151.814C365.683 151.814 358.195 149.035 354.144 148.527C350.092 148.02 343.885 147.854 343.885 147.854" stroke="#263238" stroke-width="1.06068" stroke-miterlimit="10" stroke-linecap="round"/>
<path d="M358.803 148.503L359.568 128.377" stroke="#263238" stroke-width="1.06068" stroke-miterlimit="10" stroke-linecap="round"/>
<path d="M382.747 165.825C384.495 166.704 386.326 167.406 388.213 167.922" stroke="#263238" stroke-width="1.06068" stroke-miterlimit="10" stroke-linecap="round"/>
<path d="M49.3966 149.609L52.4 133.194L71.4109 125.706C71.4109 125.706 72.3344 120.606 73.2662 120.382C74.198 120.157 75.1132 118.06 75.1132 118.06L74.6556 113.859C74.6556 113.859 76.3944 107.203 85.1386 112.386C85.1386 112.386 82.4929 114.15 82.9505 114.882C83.4081 115.614 82.443 117.944 83.5994 117.944C84.7559 117.944 87.0937 119.416 88.2752 120.606C89.102 121.494 89.8327 122.468 90.4549 123.51L100.297 124.076C101.306 124.084 102.31 124.221 103.284 124.483C103.451 119.674 102.86 116.005 101.695 113.152C97.4603 102.852 89.7395 99.1743 88.6329 94.016C87.5264 88.8577 88.0838 88.3169 88.0838 88.3169C89.2089 87.1729 90.0327 85.7677 90.4814 84.2271C90.93 82.6865 90.9896 81.0587 90.6546 79.4895C89.5564 73.9735 85.3216 70.1048 70.0547 69.3726C54.7878 68.6405 57.0009 79.1151 57.0009 79.1151L57.184 79.8473C57.184 79.8473 47.4331 83.1752 49.2801 95.4802C51.1271 107.785 56.4518 113.135 56.2688 116.995C56.0857 120.856 50.3783 122.328 42.2831 131.139C34.1879 139.95 32.5406 153.203 35.8519 161.848C37.5159 166.099 40.7689 169.643 44.854 172.289L49.3966 149.609Z" fill="#263238"/>
<path d="M62.1426 151.231V154.942L55.0957 176.715C59.4991 177.88 64.1171 177.977 68.5655 176.998C71.0766 176.344 73.4766 175.32 75.6873 173.961L62.1426 151.231Z" fill="#263238"/>
<path d="M82.4011 114.749L83.2331 118.493C83.2331 118.493 85.7291 115.997 90.6045 123.577C90.6045 123.577 100.738 123.336 103.5 124.717C103.5 124.717 104.074 124.883 105.946 126.871C107.818 128.86 114.857 135.191 114.857 135.191C114.857 135.191 123.892 143.578 124.791 144.227C125.689 144.876 129.059 148.095 131.58 149.219L138.335 133.835L141.347 126.222L143.011 119.958H143.544L143.66 114.908L143.252 108.884C143.319 108.578 143.459 108.292 143.66 108.052C144.358 107.085 144.894 106.012 145.249 104.874C145.249 104.308 144.675 100.963 144.675 100.963C144.675 100.963 144.392 100.132 145.008 100.032C145.624 99.9318 147.895 100.722 148.178 102.311L149.01 102.028C149.699 100.382 150.558 98.8124 151.572 97.3444C152.92 95.5972 154.301 94.499 155.158 95.0647C155.393 95.2269 155.563 95.4678 155.636 95.7439C155.709 96.02 155.681 96.3132 155.557 96.5706L152.878 101.496C152.878 101.496 151.697 103.085 153.161 103.651C153.161 103.651 156.331 105.689 156.539 107.478C156.747 109.267 155.599 110.806 154.584 112.12C153.569 113.435 151.78 116.28 151.78 116.28L149.7 118.119L148.868 121.289L149.85 122.512L148.386 128.86L147.329 133.619L146.797 136.506L143.469 147.904L140.141 157.838C140.141 157.838 138.427 163.529 134.275 163.371C130.124 163.212 125.573 160.966 124.1 160.234C122.628 159.502 110.489 153.162 110.489 153.162L107.993 151.981C108.326 153.117 108.469 154.3 108.417 155.483C108.376 157.68 106.013 162.522 105.322 163.62L104.915 172.206C104.753 173.696 104.781 175.2 104.998 176.682C105.364 178.92 107.236 191.583 107.643 193.164C107.643 193.164 103.6 196.825 91.5529 198.563C79.5058 200.302 73.865 197.482 73.865 197.482L68.4987 194.329L75.113 181.258C75.113 181.258 76.7769 177.373 76.6105 176.349C76.4441 175.326 73.5987 170.917 73.5987 170.917L63.1573 152.33L62.6665 152.497L61.0441 157.921L55.1786 176.316L47.4578 199.279C47.4578 199.279 45.3446 205.103 44.471 206.825L42.0333 214.255C42.1687 215.582 42.4966 216.882 43.0067 218.115L36.875 214.146L37.9649 208.323L39.321 199.637L40.985 190.194L42.4493 182.381L44.7872 171.965L45.6191 169.086L47.2831 160.949L50.2117 146.19L52.7076 133.552L70.1793 126.605L71.2692 125.773C71.5115 124.165 72.1021 122.629 72.9997 121.272C73.6227 120.38 74.3644 119.576 75.2045 118.884C75.2045 118.884 75.1213 117.795 75.063 116.763C75.0048 115.731 74.7386 113.834 74.7386 113.834C74.7386 113.834 80.1381 116.156 82.4011 114.749Z" fill="white"/>
<path d="M58.9976 81.3118C58.9976 81.3118 62.234 74.1484 68.7068 74.1484C75.1796 74.1484 88.5829 86.8611 88.5829 86.8611" stroke="white" stroke-width="0.530341" stroke-miterlimit="10" stroke-linecap="round"/>
<path d="M61.7681 82.4433C61.7681 82.4433 65.695 78.2834 70.5538 79.8975C75.4126 81.5115 76.1031 87.2938 76.1031 87.2938" stroke="white" stroke-width="0.530341" stroke-miterlimit="10" stroke-linecap="round"/>
<path d="M58.5318 83.1582C58.5318 83.1582 52.7579 86.3946 52.2919 92.4099C51.826 98.4251 60.3788 105.58 61.5353 113.675C62.6917 121.771 56.6848 123.609 46.9756 130.315C37.2663 137.021 38.8887 152.038 40.9687 155.274" stroke="white" stroke-width="0.530341" stroke-miterlimit="10" stroke-linecap="round"/>
<path d="M42.125 157.13C42.125 157.13 43.5061 160.133 45.5861 161.057" stroke="white" stroke-width="0.530341" stroke-miterlimit="10" stroke-linecap="round"/>
<path d="M59.2307 98.875C58.9573 99.4621 58.8346 100.108 58.8738 100.755C58.9131 101.401 59.1129 102.028 59.4553 102.577C60.6118 104.657 69.4391 115.057 68.707 119.916C67.9748 124.775 63.3906 127.77 63.3906 127.77" stroke="white" stroke-width="0.530341" stroke-miterlimit="10" stroke-linecap="round"/>
<path d="M63.6153 83.1582C63.6153 83.1582 58.2989 85.4711 58.5319 90.7875C58.7648 96.1039 59.9213 97.4933 59.9213 97.4933" stroke="white" stroke-width="0.530341" stroke-miterlimit="10" stroke-linecap="round"/>
<path d="M88.583 100.747C90.2349 104.487 92.5015 107.923 95.2888 110.914C99.4487 115.074 99.9063 121.089 99.9063 121.089" stroke="white" stroke-width="0.530341" stroke-miterlimit="10" stroke-linecap="round"/>
<path d="M93.4336 113.9C93.4336 113.9 95.5136 118.759 95.5136 121.763" stroke="white" stroke-width="0.530341" stroke-miterlimit="10" stroke-linecap="round"/>
<path d="M81.9269 115.19L75.3959 121.072C75.3959 121.072 74.697 122.852 73.3825 125.706C72.0679 128.56 72.2842 134.026 72.2842 134.026L76.311 142.038C76.311 142.038 68.5653 133.152 68.1243 132.054C67.6834 130.956 59.5799 132.936 58.049 133.593C56.5182 134.25 54.538 135.565 54.979 137.537C55.4199 139.508 57.3918 142.129 56.5099 142.57C55.628 143.011 53.2235 141.913 53.2235 143.227C53.2235 144.542 56.0772 149.584 54.7627 151.331C53.4481 153.078 45.12 181.349 45.12 181.349C45.12 181.349 50.3781 176.964 49.0636 178.72C47.7491 180.475 41.401 194.711 41.401 194.711L38.9883 203.03L44.6874 173.462L49.5046 148.502L52.3999 133.194C55.1953 132.262 71.4107 125.706 71.4107 125.706C71.4107 125.706 72.6919 120.315 75.113 118.06L74.6554 113.858C74.6554 113.858 79.0732 115.406 81.9269 115.19Z" fill="#9468B4"/>
<path opacity="0.5" d="M81.9269 115.19L75.3959 121.072C75.3959 121.072 74.697 122.852 73.3825 125.706C72.0679 128.56 72.2842 134.026 72.2842 134.026L76.311 142.038C76.311 142.038 68.5653 133.152 68.1243 132.054C67.6834 130.956 59.5799 132.936 58.049 133.593C56.5182 134.25 54.538 135.565 54.979 137.537C55.4199 139.508 57.3918 142.129 56.5099 142.57C55.628 143.011 53.2235 141.913 53.2235 143.227C53.2235 144.542 56.0772 149.584 54.7627 151.331C53.4481 153.078 45.12 181.349 45.12 181.349C45.12 181.349 50.3781 176.964 49.0636 178.72C47.7491 180.475 41.401 194.711 41.401 194.711L38.9883 203.03L44.6874 173.462L49.5046 148.502L52.3999 133.194C55.1953 132.262 71.4107 125.706 71.4107 125.706C71.4107 125.706 71.7601 120.714 75.1213 118.967L74.6554 113.858C74.6554 113.858 79.0732 115.406 81.9269 115.19Z" fill="white"/>
<path d="M106.238 144.759C106.238 144.759 110.181 138.195 110.622 139.726C111.063 141.256 109.524 146.506 109.524 146.506C109.524 146.506 113.684 144.975 113.251 146.29C112.819 147.604 111.937 148.262 112.153 148.919C112.37 149.576 126.613 157.023 128.369 157.896C130.124 158.77 134.284 153.736 136.256 155.267C138.228 156.798 136.256 162.048 132.312 162.056C128.369 162.064 116.979 157.064 116.979 157.064L108.01 151.848" fill="#9468B4"/>
<path opacity="0.5" d="M106.238 144.759C106.238 144.759 110.181 138.195 110.622 139.726C111.063 141.256 109.524 146.506 109.524 146.506C109.524 146.506 113.684 144.975 113.251 146.29C112.819 147.604 111.937 148.262 112.153 148.919C112.37 149.576 126.613 157.023 128.369 157.896C130.124 158.77 134.284 153.736 136.256 155.267C138.228 156.798 136.256 162.048 132.312 162.056C128.369 162.064 116.979 157.064 116.979 157.064L108.043 151.864" fill="white"/>
<path d="M82.5845 171.265C82.5845 171.265 108.193 157.687 104.033 162.721C99.8731 167.754 86.0871 173.462 82.5845 171.265Z" fill="#9468B4"/>
<path opacity="0.5" d="M82.5845 171.265C82.5845 171.265 108.193 157.687 104.033 162.721C99.8731 167.754 86.0871 173.462 82.5845 171.265Z" fill="white"/>
<path d="M74.6558 113.9C74.6558 113.9 74.8388 117.395 75.3962 121.072C75.9537 124.749 75.7623 124.749 79.2566 129.159C82.751 133.568 86.4283 137.254 86.9774 136.522" stroke="#263238" stroke-width="1.06068" stroke-miterlimit="10" stroke-linecap="round"/>
<path d="M87.1605 135.232C87.1605 135.232 87.5266 128.792 86.2453 124.566C84.964 120.339 83.1171 118.859 83.1171 117.91C83.0549 116.922 82.9326 115.938 82.751 114.965" stroke="#263238" stroke-width="1.06068" stroke-miterlimit="10" stroke-linecap="round"/>
<path d="M74.6557 119.233C73.1862 120.557 72.1581 122.299 71.7105 124.225C71.1614 127.162 70.6123 130.657 70.6123 130.657L76.3114 142.063C76.8076 140.077 77.5482 138.16 78.5161 136.356C78.9955 135.465 79.6165 134.659 80.3548 133.968" stroke="#263238" stroke-width="1.06068" stroke-miterlimit="10" stroke-linecap="round"/>
<path d="M88.45 132.105C88.8523 132.004 89.2708 131.984 89.6807 132.047C90.0907 132.11 90.4841 132.254 90.8378 132.471C92.3104 133.211 95.2556 137.071 95.2556 137.071C95.2556 137.071 93.2339 127.504 89.7396 122.545C86.2452 117.586 83.8491 117.944 83.8491 117.944" stroke="#263238" stroke-width="1.06068" stroke-miterlimit="10" stroke-linecap="round"/>
<path d="M70.0549 126.405L52.4002 133.194C52.4002 133.194 45.9689 168.321 43.5728 177.697C41.1767 187.073 37.1416 213.564 37.1416 213.564L41.9172 214.479L43.5811 209.703" stroke="#263238" stroke-linecap="round" stroke-linejoin="round"/>
<path d="M44.4961 206.958C44.4961 206.958 45.5943 205.294 48.5395 196.142C51.4848 186.99 59.3553 164.527 60.6782 160.092C62.001 155.658 63.066 152.737 63.066 152.737" stroke="#263238" stroke-width="1.06068" stroke-miterlimit="10" stroke-linecap="round"/>
<path d="M59.938 147.338C59.938 147.338 74.8305 173.961 76.1201 175.109C77.4096 176.258 75.5709 179.336 75.1966 180.992" stroke="#263238" stroke-width="1.06068" stroke-miterlimit="10" stroke-linecap="round"/>
<path d="M73.549 184.336L68.7734 194.27C68.7734 194.27 71.9017 199.053 85.1385 199.053C93.016 199.078 100.781 197.181 107.76 193.529C107.76 193.529 104.632 176.981 104.815 174.036C104.998 171.091 105.372 163.37 105.372 163.37C105.372 163.37 108.7 158.378 108.309 154.542C107.918 150.707 106.288 146.264 106.288 145.532C106.288 144.8 105.921 136.888 105.921 136.888" stroke="#263238" stroke-width="1.06068" stroke-miterlimit="10" stroke-linecap="round"/>
<path d="M85.1138 167.987L98.2924 159.9" stroke="#263238" stroke-width="0.530341" stroke-miterlimit="10" stroke-linecap="round"/>
<path d="M92.0522 165.45L99.2156 161.29" stroke="#263238" stroke-width="0.530341" stroke-miterlimit="10" stroke-linecap="round"/>
<path d="M131.489 149.393L128.801 155.974" stroke="#263238" stroke-width="0.530341" stroke-miterlimit="10" stroke-linecap="round"/>
<path d="M130.415 152.271L127.877 154.817" stroke="#263238" stroke-width="0.530341" stroke-miterlimit="10" stroke-linecap="round"/>
<path d="M55.2953 175.625C55.2953 175.625 50.9024 180.708 47.8989 182.788" stroke="#263238" stroke-width="0.530341" stroke-miterlimit="10" stroke-linecap="round"/>
<path d="M52.758 177.006C52.758 177.006 45.1287 183.013 43.2817 184.402" stroke="#263238" stroke-width="0.530341" stroke-miterlimit="10" stroke-linecap="round"/>
<path d="M54.1138 134.242C56.4136 137.494 58.498 140.893 60.3536 144.417" stroke="#263238" stroke-width="0.530341" stroke-miterlimit="10" stroke-linecap="round"/>
<path d="M61.0776 146.031L62.6917 148.802" stroke="#263238" stroke-width="0.530341" stroke-miterlimit="10" stroke-linecap="round"/>
<path d="M106.288 145.532L108.309 135.232" stroke="#263238" stroke-width="0.530341" stroke-miterlimit="10" stroke-linecap="round"/>
<path d="M107.028 146.265L110.148 141.855" stroke="#263238" stroke-width="0.530341" stroke-miterlimit="10" stroke-linecap="round"/>
<path d="M63.0661 152.704L54.2388 147.92" stroke="#263238" stroke-width="0.530341" stroke-miterlimit="10" stroke-linecap="round"/>
<path d="M86.7944 137.438C86.7944 137.438 90.1224 144.093 91.2123 148.844" stroke="#263238" stroke-width="0.530341" stroke-miterlimit="10" stroke-linecap="round"/>
<path d="M141.414 125.848C142.294 125.783 143.179 125.897 144.014 126.183C144.849 126.469 145.617 126.921 146.273 127.512" stroke="#263238" stroke-width="0.530341" stroke-miterlimit="10" stroke-linecap="round"/>
<path d="M40.3364 208.996L42.6161 209.845" stroke="#263238" stroke-width="0.530341" stroke-miterlimit="10" stroke-linecap="round"/>
<path d="M37.0831 213.896C37.1117 217.06 36.945 220.222 36.5839 223.364C36.0348 227.233 36.2179 236.061 36.95 238.814C37.6821 241.568 38.0565 242.142 38.7887 240.478C39.5208 238.814 41.7339 229.08 41.7339 229.08C41.7339 229.08 42.1 235.511 43.7556 234.962C45.4113 234.413 44.4961 231.285 44.4961 228.523C44.4961 225.761 44.6791 224.845 44.4961 222.641C44.3131 220.436 41.8587 214.986 41.8587 214.986" fill="white"/>
<path d="M37.0831 213.896C37.1117 217.06 36.945 220.222 36.5839 223.364C36.0348 227.233 36.2179 236.061 36.95 238.814C37.6821 241.568 38.0565 242.142 38.7887 240.478C39.5208 238.814 41.7339 229.08 41.7339 229.08C41.7339 229.08 42.1 235.511 43.7556 234.962C45.4113 234.413 44.4961 231.285 44.4961 228.523C44.4961 225.761 44.6791 224.845 44.4961 222.641C44.3131 220.436 41.8587 214.986 41.8587 214.986" stroke="#263238" stroke-miterlimit="10" stroke-linecap="round"/>
<path d="M143.56 119.815C143.477 118.189 143.477 116.559 143.56 114.932C143.71 113.401 143.103 111.113 143.252 109.108C143.402 107.103 145.391 106.362 145.083 103.767C144.775 101.171 144.168 100.863 144.625 100.256C145.083 99.6482 147.953 100.555 148.136 102.236C148.299 103.965 148.299 105.706 148.136 107.436C147.986 107.893 149.051 110.764 148.444 112.011C148.096 112.687 147.839 113.406 147.679 114.15" stroke="#263238" stroke-width="0.880843" stroke-miterlimit="10" stroke-linecap="round"/>
<path d="M148.752 102.103C148.752 102.103 152.263 95.0808 154.251 94.9227C156.24 94.7647 155.624 96.5867 155.008 97.5185C154.393 98.4503 152.413 101.795 152.263 103.176C152.113 104.557 150.274 109.125 150.274 109.125" stroke="#263238" stroke-width="0.880843" stroke-miterlimit="10" stroke-linecap="round"/>
<path d="M152.288 103.176C152.288 103.176 157.637 106.379 156.448 109C155.258 111.62 154.609 112.669 153.694 112.328C152.882 111.913 152.157 111.348 151.556 110.664" stroke="#263238" stroke-width="0.880843" stroke-miterlimit="10" stroke-linecap="round"/>
<path d="M154.251 112.336C154.251 112.336 152.87 114.624 151.805 116.005C151.193 116.803 150.467 117.506 149.65 118.093L149.001 120.348" stroke="#263238" stroke-width="0.880843" stroke-miterlimit="10" stroke-linecap="round"/>
<path d="M90.1055 123.46C90.1055 123.46 102.793 123.277 104.449 125.298C106.105 127.32 126.155 145.715 128.576 147.371C130.997 149.026 131.522 149.393 131.522 149.393C131.522 149.393 141.447 126.929 141.447 125.847C141.447 124.766 143.111 119.782 143.111 119.782C143.111 119.782 146.239 120.148 146.98 120.148C147.72 120.148 149.734 122.544 149.734 122.544C149.734 122.544 146.98 133.76 146.98 135.024C146.98 136.289 141.83 153.785 139.434 159.152C137.038 164.518 133.735 163.744 128.402 162.089C123.069 160.433 108.542 152.163 108.542 152.163" stroke="#263238" stroke-width="1.06068" stroke-miterlimit="10" stroke-linecap="round"/>
<path d="M68.7734 194.27C68.7734 194.27 61.4104 212.69 59.4219 225.228C57.4335 237.766 58.2821 267.085 57.7081 270.221C57.134 273.358 49.1636 288.159 49.1636 295.281C49.1636 302.403 44.8955 339.135 44.8955 339.135L47.7409 340.84C47.7409 340.84 57.7247 310.057 61.4104 302.111C65.0961 294.166 70.2377 275.346 71.6604 271.644C73.0831 267.942 83.0586 238.323 83.6243 234.621C84.1901 230.919 87.6095 221.808 87.6095 221.808C87.6095 221.808 95.0142 267.085 96.4369 276.486C97.8596 285.888 107.827 336.855 107.827 336.855C108.481 337.015 109.15 337.11 109.823 337.138C110.655 337.138 110.963 335.715 110.963 335.715C110.963 335.715 114.948 299.549 113.809 289.865C112.669 280.18 109.258 268.233 109.258 264.805C109.258 261.377 114.383 231.776 114.383 221.542C114.383 211.309 107.727 193.546 107.727 193.546C107.727 193.546 84.1069 205.46 68.7734 194.27Z" fill="#263238"/>
<path d="M109.149 266.686C109.149 266.686 106.612 277.551 103.143 283.325" stroke="white" stroke-width="0.530341" stroke-miterlimit="10" stroke-linecap="round"/>
<path d="M108.459 277.784C108.459 277.784 106.379 285.638 102.219 289.34" stroke="white" stroke-width="0.530341" stroke-miterlimit="10" stroke-linecap="round"/>
<path d="M59.2305 274.315C59.2305 274.315 60.8445 283.792 62.6915 287.719" stroke="white" stroke-width="0.530341" stroke-miterlimit="10" stroke-linecap="round"/>
<path d="M58.7646 279.864C58.7646 279.864 60.1541 286.57 62.6916 290.497" stroke="white" stroke-width="0.530341" stroke-miterlimit="10" stroke-linecap="round"/>
<path d="M88.3501 221.85L97.5934 214.221" stroke="white" stroke-width="0.530341" stroke-miterlimit="10" stroke-linecap="round"/>
<path d="M92.7427 218.614L103.608 213.755" stroke="white" stroke-width="0.530341" stroke-miterlimit="10" stroke-linecap="round"/>
<path d="M68.9316 205.668C68.9316 205.668 76.1033 210.285 80.2632 214.221" stroke="white" stroke-width="0.530341" stroke-miterlimit="10" stroke-linecap="round"/>
<path d="M45.1952 339.11C45.1952 339.11 34.3794 348.262 34.3794 352.805C34.3794 357.347 38.6475 357.073 43.2067 352.805C47.766 348.537 47.999 339.743 47.999 339.743L45.1952 339.11Z" fill="white" stroke="#263238" stroke-width="1.06068" stroke-miterlimit="10" stroke-linecap="round"/>
<path d="M107.827 336.856C107.827 336.856 111.529 345.966 115.523 349.959C119.516 353.953 121.787 355.367 121.787 351.091C121.787 346.814 119.225 341.981 110.972 335.716C110.963 335.716 113.243 337.421 107.827 336.856Z" fill="white" stroke="#263238" stroke-width="1.06068" stroke-miterlimit="10" stroke-linecap="round"/>
<path d="M69.622 84.689C68.8816 84.4144 68.1827 84.0816 67.4589 83.7738C66.735 83.4659 65.4122 83.2995 64.913 85.5709C64.1725 88.8988 69.3225 91.6443 67.6669 94.3982C66.6369 96.0735 65.0888 97.3675 63.2574 98.0839C62.9592 98.1864 62.6485 98.248 62.3339 98.2669C60.8612 98.45 58.4734 98.2669 59.2056 100.838C59.9377 103.409 62.3338 105.622 63.8065 105.622H65.2791C65.2791 105.622 66.943 110.614 73.1829 113.342C79.4228 116.071 83.6659 115.922 85.1385 112.427C86.6111 108.933 87.7177 105.988 87.7177 101.387C87.7177 96.786 86.0537 89.0652 86.0537 89.0652C86.0537 89.0652 84.5811 91.0952 78.882 88.5161C75.1131 86.8105 71.5855 85.4294 69.622 84.689Z" fill="white"/>
<g style="mix-blend-mode:multiply" opacity="0.5">
<path d="M78.8904 88.5167C78.8904 88.5167 70.0964 88.0258 68.7818 88.2422C67.4673 88.4585 68.9981 92.4021 68.5655 96.3457C68.1329 100.289 68.3409 106.646 70.0964 108.617C72.1679 110.651 74.363 112.554 76.669 114.317C76.669 114.317 69.9216 113.227 67.4673 110.373C65.0129 107.519 64.6219 105.988 64.6219 105.988C64.6219 105.988 58.9228 102.66 58.4819 100.073C58.0409 97.4855 61.8098 98.8583 63.6152 97.577C64.6302 96.8781 68.8317 95.5636 67.7751 92.061C66.7185 88.5583 65.0129 87.901 64.9464 85.5549C64.8965 83.8909 66.3608 83.4083 67.2593 83.2586C67.6644 83.1904 68.0806 83.2515 68.449 83.4333L78.8904 88.5167Z" fill="#9468B4"/>
</g>
<path d="M69.622 84.689C68.8816 84.4144 68.1827 84.0816 67.4589 83.7738C66.735 83.4659 65.4122 83.2995 64.913 85.5709C64.1725 88.8988 69.3225 91.6443 67.6669 94.3982C66.6369 96.0735 65.0888 97.3675 63.2574 98.0839C62.9592 98.1864 62.6485 98.248 62.3339 98.2669C60.8612 98.45 58.4734 98.2669 59.2056 100.838C59.9377 103.409 62.3338 105.622 63.8065 105.622H65.2791C65.2791 105.622 66.943 110.614 73.1829 113.342C79.4228 116.071 83.6659 115.922 85.1385 112.427C86.6111 108.933 87.7177 105.988 87.7177 101.387C87.7177 96.786 86.0537 89.0652 86.0537 89.0652C86.0537 89.0652 84.5811 91.0952 78.882 88.5161C75.1131 86.8105 71.5855 85.4294 69.622 84.689Z" stroke="#263238" stroke-width="1.06068" stroke-miterlimit="10" stroke-linecap="round"/>
<path d="M76.12 95.5884C76.2365 96.2872 76.0451 96.9029 75.6874 96.9611C75.3296 97.0194 74.9635 96.4952 74.8554 95.7964C74.7472 95.0975 74.9386 94.4735 75.288 94.4153C75.6374 94.357 76.0035 94.9228 76.12 95.5884Z" fill="#263238"/>
<path d="M83.7326 94.3157C83.8408 95.0146 83.6494 95.6302 83.3 95.6885C82.9505 95.7467 82.5762 95.2226 82.468 94.5237C82.3598 93.8248 82.5429 93.2091 82.8923 93.1509C83.2417 93.0927 83.6161 93.6168 83.7326 94.3157Z" fill="#263238"/>
<path d="M71.7104 92.1939C72.176 91.5019 72.8074 90.9375 73.5472 90.5524C74.2869 90.1673 75.1114 89.9736 75.9453 89.9891" stroke="#263238" stroke-width="1.06068" stroke-miterlimit="10" stroke-linecap="round"/>
<path d="M81.644 90.5379C82.3508 90.2909 83.1159 90.2645 83.8379 90.4621C84.56 90.6597 85.205 91.072 85.6875 91.6445" stroke="#263238" stroke-width="1.06068" stroke-miterlimit="10" stroke-linecap="round"/>
<path d="M80.9123 93.667C80.8106 94.8296 80.8106 95.9988 80.9123 97.1613C81.0953 98.6339 82.1935 99 81.8274 100.107C81.4614 101.213 79.9888 101.205 79.9888 101.205" stroke="#263238" stroke-width="1.06068" stroke-miterlimit="10" stroke-linecap="round"/>
<path d="M78.15 105.622C77.5199 105.771 76.8651 105.782 76.2304 105.654C75.5957 105.526 74.9961 105.263 74.4727 104.882" stroke="#263238" stroke-width="1.06068" stroke-miterlimit="10" stroke-linecap="round"/>
</svg>
