<svg width="27" height="21" viewBox="0 0 27 21" fill="none" xmlns="http://www.w3.org/2000/svg">
<path fill-rule="evenodd" clip-rule="evenodd" d="M22.95 18.375H4.05001C3.30616 18.375 2.70001 17.787 2.70001 17.0625V4.26558L12.69 11.55C12.9303 11.7258 13.2152 11.8125 13.5 11.8125C13.7849 11.8125 14.0697 11.7258 14.31 11.55L24.3 4.26558V17.0625C24.3 17.787 23.6939 18.375 22.95 18.375ZM22.0495 2.62495L13.5 8.85933L4.95044 2.62495H22.0495ZM22.95 0H4.05C1.8171 0 0 1.76662 0 3.9375V17.0625C0 19.2334 1.8171 21 4.05 21H22.95C25.1829 21 27 19.2334 27 17.0625V3.9375C27 1.76662 25.1829 0 22.95 0Z" fill="white"/>
</svg>
