<svg width="27" height="27" viewBox="0 0 27 27" fill="none" xmlns="http://www.w3.org/2000/svg">
<path fill-rule="evenodd" clip-rule="evenodd" d="M6.21 2.7C4.2741 2.7 2.7 4.2741 2.7 6.21C2.7 16.1838 10.8148 24.3 20.79 24.3C22.7246 24.3 24.3 22.7259 24.3 20.79C24.3 20.6402 24.2906 20.493 24.2717 20.3472L18.0347 18.9162C17.9104 19.1538 17.7741 19.4116 17.6499 19.652C17.0343 20.8265 16.5888 21.6797 15.4521 21.222C10.989 19.656 7.34535 16.011 5.7591 11.4939C5.27715 10.4341 6.19515 9.95355 7.35885 9.34605C7.5951 9.22185 7.85025 9.0882 8.0838 8.9667L6.6528 2.72835C6.50295 2.70945 6.35715 2.7 6.21 2.7ZM20.79 27C9.3258 27 0 17.6742 0 6.21C0 2.78505 2.78505 0 6.21 0C6.561 0 6.90795 0.0297 7.2441 0.08775C7.57215 0.1404 7.90155 0.2241 8.22285 0.3348C8.6616 0.48735 8.99235 0.8559 9.0963 1.3095L10.9445 9.3609C11.0471 9.8037 10.9188 10.2681 10.6029 10.5975C10.4193 10.7892 10.4152 10.7933 8.74125 11.6694C10.0967 14.6043 12.4524 16.952 15.3279 18.2615C16.2054 16.5861 16.2108 16.5807 16.4025 16.3971C16.7319 16.0812 17.199 15.9584 17.6391 16.0555L25.6919 17.9037C26.1441 18.0077 26.5126 18.337 26.6638 18.7758C26.7745 19.0944 26.8583 19.4238 26.9136 19.7626C26.9703 20.0961 27 20.4417 27 20.79C27 24.215 24.2136 27 20.79 27Z" fill="white"/>
</svg>
