<svg width="881" height="674" viewBox="0 0 881 674" fill="none" xmlns="http://www.w3.org/2000/svg">
<circle cx="161" cy="84" r="84" fill="#9468B4" fill-opacity="0.05"/>
<ellipse cx="274.5" cy="98" rx="18.5" ry="18" fill="#9468B4" fill-opacity="0.05"/>
<circle cx="95.5" cy="202.5" r="34.5" fill="#9468B4" fill-opacity="0.05"/>
<ellipse cx="759" cy="519.5" rx="97" ry="97.5" fill="#9468B4" fill-opacity="0.05"/>
<ellipse cx="179" cy="494.5" rx="179" ry="179.5" fill="#9468B4" fill-opacity="0.05"/>
<circle cx="622.5" cy="145.5" r="136.5" fill="#9468B4" fill-opacity="0.05"/>
<circle cx="622" cy="577" r="29" fill="#9468B4" fill-opacity="0.05"/>
<circle cx="673" cy="612" r="15" fill="#9468B4" fill-opacity="0.05"/>
<mask id="mask0" mask-type="alpha" maskUnits="userSpaceOnUse" x="180" y="341" width="568" height="186">
<rect width="566.895" height="185.021" transform="matrix(1 0 0 -1 180.719 526.323)" fill="#C4C4C4"/>
</mask>
<g mask="url(#mask0)">
<path d="M644.089 380.812L596.888 374.469L597.276 379.129L556.928 384.566C556.928 384.566 530.935 449.936 553.825 593.622H586.672L598.44 447.995H602.578L613.958 593.622H646.934C669.953 449.936 644.089 380.812 644.089 380.812Z" fill="#724196"/>
<path d="M365.797 380.683L325.449 375.246L325.837 370.586L278.636 376.929C278.636 376.929 252.902 446.054 275.791 589.74H308.638L320.018 444.112H324.156L335.924 589.74H368.9C391.79 446.054 365.797 380.683 365.797 380.683Z" fill="#282828"/>
<path d="M387.393 482.816V623.137H456.837L462.139 482.816H387.393Z" fill="#8156A0"/>
<path d="M537.918 482.816V623.137H468.474L463.172 482.816H537.918Z" fill="#8156A0"/>
<path d="M500.029 482.816H428.387V531.618H500.029V482.816Z" fill="#8156A0"/>
<path d="M581.758 360.359C586.025 407.866 581.499 442.558 582.792 530.064L541.41 531.747L535.203 367.997L581.758 360.359Z" fill="#FFCDC6"/>
</g>
<path d="M141.17 168.648H786.857" stroke="#DED8D5" stroke-opacity="0.6" stroke-width="1.9678" stroke-miterlimit="10"/>
<path d="M778.451 526.181H149.576C144.92 526.181 141.17 522.427 141.17 517.767V134.733C141.17 130.073 144.92 126.319 149.576 126.319H778.451C783.107 126.319 786.857 130.073 786.857 134.733V517.767C786.857 522.427 783.107 526.181 778.451 526.181Z" stroke="#DED8D5" stroke-width="1.9678" stroke-miterlimit="10"/>
<path d="M183.716 147.808C183.716 151.044 181.129 153.763 177.767 153.763C174.534 153.763 171.818 151.174 171.818 147.808C171.818 144.442 174.405 141.854 177.767 141.854C181 141.983 183.716 144.572 183.716 147.808Z" fill="#FFCDC6"/>
<path d="M206.604 147.808C206.604 151.044 204.018 153.763 200.656 153.763C197.423 153.763 194.707 151.174 194.707 147.808C194.707 144.442 197.293 141.854 200.656 141.854C204.018 141.983 206.604 144.572 206.604 147.808Z" fill="#EAD254"/>
<path d="M229.622 147.808C229.622 151.044 227.036 153.763 223.673 153.763C220.311 153.763 217.725 151.174 217.725 147.808C217.725 144.442 220.311 141.854 223.673 141.854C227.036 141.854 229.622 144.572 229.622 147.808Z" fill="#9468B4"/>
<path d="M870.784 311.299H718.964C714.697 311.299 711.205 307.804 711.205 303.532V163.082C711.205 158.81 714.697 155.315 718.964 155.315H870.784C875.051 155.315 878.543 158.81 878.543 163.082V303.532C878.543 307.804 875.051 311.299 870.784 311.299Z" fill="white" fill-opacity="0.8"/>
<path d="M755.372 270.962H834.257C838.524 270.962 842.016 267.467 842.016 263.195V198.472C842.016 194.2 838.524 190.705 834.257 190.705H755.372C751.105 190.705 747.613 194.2 747.613 198.472V263.195C747.613 267.467 751.105 270.962 755.372 270.962Z" fill="#C98BD2"/>
<path d="M816.729 243.986H779.744H773.148V214.731H816.729V221.98V243.986Z" stroke="white" stroke-width="1.6466" stroke-miterlimit="10" stroke-linecap="round" stroke-linejoin="round"/>
<path d="M772.83 214.911L794.556 232.128L816.41 214.911" stroke="white" stroke-width="1.6466" stroke-miterlimit="10" stroke-linecap="round" stroke-linejoin="round"/>
<path d="M202.854 428.966H58.1465C54.0084 428.966 50.7754 425.601 50.7754 421.588V295.248C50.7754 291.105 54.1377 287.869 58.1465 287.869H202.854C206.992 287.869 210.225 291.235 210.225 295.248V421.588C210.225 425.73 206.992 428.966 202.854 428.966Z" fill="white" fill-opacity="0.8"/>
<path d="M167.678 401.783H92.6737C87.8889 401.783 84.1387 397.899 84.1387 393.239V320.62C84.1387 315.83 88.0182 312.076 92.6737 312.076H167.678C172.463 312.076 176.213 315.96 176.213 320.62V393.239C176.213 397.899 172.463 401.783 167.678 401.783Z" fill="#9B3CE0"/>
<path d="M112.202 339.26C102.115 349.357 102.115 366.056 112.202 376.153C122.289 386.249 138.971 386.249 149.058 376.153C159.144 366.056 159.144 349.357 149.058 339.26C138.971 329.163 122.418 329.163 112.202 339.26ZM149.058 343.014H140.781C140.005 340.425 138.841 337.836 137.548 335.118C142.204 336.671 146.213 339.39 149.058 343.014ZM121.125 356.218C121.125 352.852 121.513 349.486 122.418 346.121H139.1C139.876 349.486 140.393 352.852 140.393 356.218H121.125ZM140.135 359.324C139.876 362.69 139.359 366.056 138.324 369.421H123.065C122.159 366.056 121.513 362.69 121.254 359.324H140.135ZM130.694 334.212C131.988 334.212 133.151 334.341 134.315 334.471C135.867 337.318 137.16 340.166 138.066 343.014H123.194C124.099 340.166 125.392 337.318 126.944 334.471C128.237 334.341 129.401 334.212 130.694 334.212ZM123.841 335.247C122.547 337.836 121.383 340.425 120.608 343.144H112.331C115.305 339.39 119.314 336.671 123.841 335.247ZM110.262 346.121H119.832C119.056 349.486 118.538 352.852 118.538 356.218H107.288C107.417 352.593 108.581 349.098 110.262 346.121ZM110.262 369.421C108.581 366.444 107.417 362.949 107.288 359.324H118.538C118.668 362.69 119.185 366.056 120.09 369.421H110.262ZM112.331 372.528H120.996C121.901 375.117 122.935 377.835 124.228 380.424C119.444 379 115.305 376.282 112.331 372.528ZM130.694 381.33C129.66 381.33 128.625 381.201 127.591 381.072C126.168 378.224 124.875 375.246 123.97 372.399H137.419C136.384 375.246 135.221 378.224 133.798 381.072C132.763 381.201 131.729 381.33 130.694 381.33ZM137.16 380.424C138.453 377.835 139.488 375.117 140.393 372.528H149.058C146.083 376.282 141.945 379 137.16 380.424ZM151.127 369.421H141.299C142.204 366.056 142.721 362.69 142.85 359.324H154.23C153.972 362.949 152.937 366.444 151.127 369.421ZM154.23 356.218H142.98C142.98 352.852 142.462 349.486 141.686 346.121H151.256C152.937 349.098 153.972 352.593 154.23 356.218Z" fill="white"/>
<path d="M194.318 89.2979H63.1895C60.4738 89.2979 58.2754 87.0973 58.2754 84.3789C58.2754 81.6606 60.4738 79.46 63.1895 79.46H194.318C197.034 79.46 199.233 81.6606 199.233 84.3789C199.103 87.0973 196.905 89.2979 194.318 89.2979Z" fill="#C98BD2"/>
<path d="M876.086 409.938H812.461C809.745 409.938 807.547 407.737 807.547 405.019C807.547 402.3 809.745 400.1 812.461 400.1H876.086C878.801 400.1 881 402.3 881 405.019C881 407.737 878.801 409.938 876.086 409.938Z" fill="#9468B4"/>
<path d="M831.601 466.765H823.842C821.773 466.765 820.092 465.082 820.092 463.011V455.762C820.092 453.691 821.773 452.008 823.842 452.008H831.601C833.67 452.008 835.351 453.691 835.351 455.762V463.011C835.222 465.082 833.541 466.765 831.601 466.765Z" fill="#C98BD2"/>
<path d="M94.3551 500.81H86.5959C84.5268 500.81 82.8457 499.127 82.8457 497.056V489.807C82.8457 487.736 84.5268 486.053 86.5959 486.053H94.3551C96.4241 486.053 98.1053 487.736 98.1053 489.807V497.056C98.1053 499.127 96.4241 500.81 94.3551 500.81Z" fill="#FFCDC6"/>
<path d="M689.609 84.2493H560.161C557.962 84.2493 556.281 82.5665 556.281 80.3659V48.7809C556.281 46.5803 557.962 44.8975 560.161 44.8975H689.609C691.807 44.8975 693.488 46.5803 693.488 48.7809V80.3659C693.488 82.5665 691.678 84.2493 689.609 84.2493Z" fill="#FFCDC6"/>
<path d="M574.902 58.8779H666.977" stroke="white" stroke-opacity="0.6" stroke-width="1.1803" stroke-miterlimit="10"/>
<path d="M574.902 68.3271H612.405" stroke="white" stroke-opacity="0.6" stroke-width="1.1803" stroke-miterlimit="10"/>
<path d="M571.152 79.8477V95.1224L590.55 79.8477H571.152Z" fill="#FFCDC6"/>
<path d="M371.615 86.5793H309.025C302.947 86.5793 298.033 81.6603 298.033 75.5763V17.3252C298.033 12.6651 301.783 8.91113 306.439 8.91113H371.745C376.4 8.91113 380.15 12.6651 380.15 17.3252V78.2947C379.892 82.8254 376.271 86.5793 371.615 86.5793Z" fill="#9468B4"/>
<path d="M358.036 53.4407L353.381 48.7806C352.605 47.8745 351.441 47.3567 350.406 47.3567C349.372 47.3567 348.208 47.8745 347.432 48.6512L344.716 51.3696C344.587 51.2401 344.328 51.2401 344.199 51.1107C343.811 50.9812 343.553 50.8518 343.423 50.7223C340.966 49.169 338.638 47.0978 336.44 44.3794C335.405 43.0849 334.63 41.9199 334.242 41.0138C334.888 40.3666 335.535 39.7193 336.052 39.2015C336.311 38.9426 336.569 38.6837 336.828 38.4249C337.733 37.5187 338.25 36.4831 338.25 35.3181C338.25 34.2825 337.733 33.1175 336.828 32.2114L334.5 29.8814C334.242 29.6225 333.983 29.3636 333.724 29.1047C333.207 28.5869 332.69 28.0691 332.172 27.5513C331.397 26.7746 330.233 26.2568 329.198 26.2568C328.164 26.2568 327.129 26.6452 326.224 27.5513L323.249 30.5286C322.215 31.5642 321.439 32.9881 321.31 34.6709C321.18 37.1304 321.827 39.4604 322.344 41.0138C323.637 44.8972 325.707 48.2628 328.81 51.8873C332.56 56.2885 336.957 59.7836 342.13 62.3725C344.07 63.2787 346.656 64.3143 349.63 64.5731C349.76 64.5731 350.018 64.5731 350.277 64.5731C352.217 64.5731 353.898 63.7965 355.321 62.3725C355.321 62.3725 355.321 62.3725 355.45 62.2431C355.838 61.7253 356.355 61.2075 357.002 60.6897C357.39 60.3014 357.778 59.9131 358.036 59.6542C359.847 57.7125 359.847 55.253 358.036 53.4407ZM356.226 57.8419C355.838 58.2302 355.579 58.4891 355.191 58.8775C354.545 59.3953 354.157 59.9131 353.51 60.5603C352.734 61.337 351.7 61.8548 350.536 61.8548C350.406 61.8548 350.277 61.8548 350.148 61.8548C347.691 61.7253 345.363 60.6897 343.682 59.9131C338.897 57.583 334.759 54.3468 331.267 50.2045C328.422 46.8389 326.482 43.4733 325.189 40.1077C324.413 38.166 324.025 36.4831 324.155 34.9298C324.284 34.0237 324.543 33.1175 325.319 32.4703L328.164 29.6225C328.422 29.3636 328.81 28.9752 329.327 28.9752C329.845 28.9752 330.103 29.2341 330.491 29.6225C331.009 30.1402 331.526 30.658 332.043 31.1758C332.302 31.4347 332.56 31.8231 332.819 31.9525L335.147 34.2825C335.405 34.5414 335.793 35.0592 335.793 35.4476C335.793 35.9654 335.405 36.3537 335.147 36.6126C334.888 36.8715 334.63 37.1304 334.371 37.3893C333.595 38.166 332.948 38.8132 332.302 39.4604C332.302 39.4604 332.302 39.4604 332.172 39.5899C331.397 40.3666 331.526 41.1432 331.655 41.661V41.7905C332.302 43.3438 333.207 44.6383 334.371 46.3211C336.699 49.2984 339.156 51.499 342.001 53.3113C342.389 53.5701 342.777 53.6996 343.035 53.9585C343.423 54.0879 343.682 54.2174 343.811 54.3468L343.94 54.4763C344.716 54.8646 345.622 54.7352 346.268 54.0879L349.243 51.1107C349.501 50.8518 349.889 50.4634 350.406 50.4634C350.794 50.4634 351.182 50.8518 351.441 51.1107L356.096 55.7708C356.872 56.1591 356.872 57.0652 356.226 57.8419Z" fill="white"/>
<path d="M583.438 447.866H617.707" stroke="#282828" stroke-width="1.2333" stroke-miterlimit="10" stroke-linecap="round" stroke-linejoin="round"/>
<path d="M671.763 311.817C667.754 305.345 644.994 305.603 643.83 305.474C637.752 304.697 647.71 353.628 660.512 396.346C662.969 404.501 671.892 408.773 679.781 405.407C679.91 405.407 679.91 405.278 680.039 405.278C686.246 402.689 689.738 396.087 688.574 389.356C682.496 357.253 676.418 319.325 671.763 311.817Z" fill="#FFCDC6"/>
<path d="M677.064 329.551L648.097 340.813L645.381 326.962L675.383 319.584L677.064 329.551Z" fill="#FFBDB7"/>
<path d="M682.626 356.994C682.626 356.994 668.919 375.376 669.565 374.599C670.212 373.693 680.299 344.826 680.299 344.826L682.626 356.994Z" fill="#FFBDB7"/>
<path d="M702.152 332.27L662.839 383.272C657.667 390.003 659.348 399.711 666.46 404.242C673.573 408.902 683.013 406.443 687.022 398.935L719.74 338.483L702.152 332.27Z" fill="#FFCDC6"/>
<path d="M712.368 345.343C703.833 342.625 699.177 333.434 701.893 324.891C704.609 316.347 713.79 311.687 722.325 314.405C730.86 317.124 735.516 326.315 732.8 334.858C730.084 343.402 720.903 348.062 712.368 345.343Z" fill="#FFCDC6"/>
<path d="M729.181 320.101C729.181 320.101 733.578 315.441 725.689 312.205C717.801 308.969 708.102 309.746 701.895 324.762L729.181 320.101Z" fill="#FFCDC6"/>
<path d="M737.327 287.87L753.75 294.989C754.655 295.378 755.043 296.413 754.526 297.449L732.801 337.966C732.283 338.872 731.12 339.39 730.214 339.001L713.791 331.882C712.886 331.493 712.498 330.458 713.015 329.422L734.74 288.905C735.258 287.999 736.422 287.481 737.327 287.87Z" fill="#372F5F"/>
<path d="M735.776 287.222L752.199 294.342C753.105 294.73 753.493 295.765 752.975 296.801L731.25 337.318C730.733 338.224 729.569 338.742 728.663 338.354L712.24 331.234C711.335 330.846 710.947 329.81 711.464 328.774L733.19 288.258C733.707 287.222 734.871 286.834 735.776 287.222Z" fill="#261B43"/>
<path d="M733.965 291.364L748.448 297.578L730.732 330.587L716.248 324.373L733.965 291.364Z" fill="#606060"/>
<path d="M748.448 297.578L716.248 324.373L733.965 291.364L748.448 297.578Z" fill="white" fill-opacity="0.6"/>
<path d="M721.032 310.911C721.032 310.911 724.653 311.688 728.015 313.5C729.438 314.277 730.214 315.96 729.826 317.642C729.438 319.066 728.274 320.231 726.722 320.361L718.187 321.396C718.187 321.396 713.661 329.163 707.842 329.94L713.144 316.348L721.032 310.911Z" fill="#FFCDC6"/>
<path d="M611.759 247.611C610.854 247.611 672.409 256.155 682.625 326.574L650.684 331.493L644.218 384.566H554.988L537.271 286.445C537.271 286.445 557.057 258.097 593.784 247.611H611.759Z" fill="#9468B4"/>
<path d="M650.555 331.493L653.4 300.685" stroke="#282828" stroke-width="1.2333" stroke-miterlimit="10" stroke-linecap="round" stroke-linejoin="round"/>
<path d="M617.578 248.647V224.182H588.999V248.906C587.576 249.294 585.119 250.2 581.369 252.013L603.741 265.346L626.501 252.013C626.372 252.013 622.751 249.942 617.578 248.647Z" fill="#FFCDC6"/>
<path d="M588.74 227.159C588.74 227.159 593.913 240.88 607.621 239.586C620.165 238.55 618.225 219.521 618.225 219.521L588.74 227.159Z" fill="#282828"/>
<path d="M576.197 209.036C571.671 213.049 561.714 197.644 565.981 193.373C570.378 189.101 573.611 195.832 573.611 195.832L575.551 200.492L576.973 206.706L577.361 208.388L576.197 209.036Z" fill="#FFBDB7"/>
<path d="M568.049 198.81C568.049 198.81 571.411 197.257 574.515 202.176" stroke="#282828" stroke-width="0.9928" stroke-miterlimit="10" stroke-linecap="round" stroke-linejoin="round"/>
<path d="M629.216 208.518C633.354 212.919 644.605 198.421 640.726 193.761C636.717 189.101 632.966 195.574 632.966 195.574L630.639 199.975L628.699 206.059L628.182 207.612L629.216 208.518Z" fill="#FFBDB7"/>
<path d="M638.141 199.069C638.141 199.069 634.908 197.256 631.416 201.916" stroke="#282828" stroke-width="0.9928" stroke-miterlimit="10" stroke-linecap="round" stroke-linejoin="round"/>
<path d="M568.309 178.616C568.309 199.069 583.827 208.777 603.095 208.777C622.364 208.777 637.882 199.069 637.882 178.616C637.882 158.163 622.364 144.312 603.095 144.312C583.827 144.312 568.309 158.163 568.309 178.616Z" fill="#282828"/>
<path d="M573.093 180.04C573.093 192.596 574.903 203.47 576.584 211.107C578.265 218.615 583.179 223.922 590.033 228.065L591.327 228.841C598.568 233.372 608.009 233.372 615.38 229.1C622.88 224.699 628.053 219.003 629.734 210.978C632.708 196.35 632.967 180.04 632.967 180.04C632.967 180.04 635.812 148.325 603.482 148.973C571.153 149.49 573.093 180.04 573.093 180.04Z" fill="#FFCDC6"/>
<path d="M601.025 198.033V202.434C601.025 202.693 601.025 202.952 601.155 203.211C601.543 204.117 602.577 204.506 603.482 204.247L605.551 203.729" stroke="#282828" stroke-width="1.2316" stroke-miterlimit="10" stroke-linecap="round" stroke-linejoin="round"/>
<path d="M595.852 181.076L579.816 184.83C579.816 184.83 580.592 180.687 587.058 179.263C593.783 177.839 595.852 181.076 595.852 181.076Z" fill="#282828"/>
<path d="M610.207 181.076L625.725 184.83C625.725 184.83 625.079 180.687 618.742 179.263C612.276 177.839 610.207 181.076 610.207 181.076Z" fill="#282828"/>
<path d="M589.774 195.573C591.274 195.573 592.49 194.356 592.49 192.855C592.49 191.354 591.274 190.137 589.774 190.137C588.274 190.137 587.059 191.354 587.059 192.855C587.059 194.356 588.274 195.573 589.774 195.573Z" fill="#282828"/>
<path d="M618.224 192.855C618.224 194.408 617.06 195.573 615.509 195.573C613.957 195.573 612.793 194.408 612.793 192.855C612.793 191.302 613.957 190.137 615.509 190.137C616.931 190.137 618.224 191.431 618.224 192.855Z" fill="#282828"/>
<path d="M592.49 209.425H613.31C613.44 209.425 604.129 220.687 592.49 209.425Z" fill="white" fill-opacity="0.6"/>
<path d="M596.823 202.008C601.318 197.509 601.318 190.214 596.823 185.715C592.328 181.216 585.041 181.216 580.546 185.715C576.052 190.214 576.052 197.509 580.546 202.008C585.041 206.507 592.328 206.507 596.823 202.008Z" stroke="#C98BD2" stroke-width="1.3423" stroke-miterlimit="10"/>
<path d="M625.044 202.077C629.538 197.578 629.538 190.283 625.044 185.784C620.549 181.285 613.262 181.285 608.767 185.784C604.273 190.283 604.273 197.578 608.767 202.077C613.262 206.576 620.549 206.576 625.044 202.077Z" stroke="#C98BD2" stroke-width="1.3423" stroke-miterlimit="10"/>
<path d="M600.25 193.891C600.25 193.891 602.966 191.302 605.552 193.891" stroke="#C98BD2" stroke-width="1.3423" stroke-miterlimit="10"/>
<path d="M577.101 193.891H573.48" stroke="#C98BD2" stroke-width="1.3423" stroke-miterlimit="10"/>
<path d="M628.441 193.891H632.192" stroke="#C98BD2" stroke-width="1.3423" stroke-miterlimit="10"/>
<path d="M632.58 190.525C632.58 190.525 619.648 173.05 622.622 155.315C622.622 155.315 632.192 160.105 634.649 172.661C637.235 185.088 632.58 190.525 632.58 190.525Z" fill="#282828"/>
<path d="M573.094 191.69C573.094 191.69 588.095 171.885 585.12 154.15C585.12 154.15 574.775 160.105 572.188 172.661C569.602 185.088 573.094 191.69 573.094 191.69Z" fill="#282828"/>
<path d="M631.416 162.306C631.416 162.306 614.863 180.428 569.473 177.321C569.473 177.321 576.456 150.655 598.44 147.808C598.44 147.808 623.786 144.83 631.416 162.306Z" fill="#282828"/>
<path d="M651.807 144.584C653.72 132.727 645.668 121.564 633.823 119.649C621.978 117.735 610.825 125.795 608.912 137.651C607 149.508 615.052 160.672 626.897 162.587C638.742 164.501 649.894 156.441 651.807 144.584Z" fill="#282828"/>
<path d="M362.561 184.182C357.13 177.709 352.733 170.202 348.983 159.716C344.974 148.454 331.913 152.985 331.913 152.985C331.913 152.985 321.05 139.005 304.627 143.794C288.203 148.713 282.513 160.364 282.254 174.214C281.867 188.065 271.004 190.266 262.598 206.317C247.726 234.666 272.685 258.484 318.205 251.883V251.494C322.731 252.918 328.163 253.436 334.887 253.048C389.46 249.811 384.157 209.683 362.561 184.182Z" fill="#282828"/>
<path d="M344.717 205.153C349.243 209.166 359.2 193.762 354.933 189.49C350.665 185.218 347.303 191.949 347.303 191.949L345.363 196.609L343.941 202.823L343.553 204.506L344.717 205.153Z" fill="#FFBDB7"/>
<path d="M352.733 194.926C352.733 194.926 349.371 193.373 346.268 198.292" stroke="#282828" stroke-width="0.9928" stroke-miterlimit="10" stroke-linecap="round" stroke-linejoin="round"/>
<path d="M291.695 204.764C287.557 209.166 276.306 194.667 280.186 190.007C284.195 185.347 287.945 191.82 287.945 191.82L290.273 196.221L292.213 202.305L292.73 203.858L291.695 204.764Z" fill="#FFBDB7"/>
<path d="M282.773 195.186C282.773 195.186 286.006 193.374 289.498 198.034" stroke="#282828" stroke-width="0.9928" stroke-miterlimit="10" stroke-linecap="round" stroke-linejoin="round"/>
<path d="M352.605 174.733C352.605 195.186 337.086 204.894 317.818 204.894C298.549 204.894 283.031 195.186 283.031 174.733C283.031 154.281 298.549 140.43 317.818 140.43C337.086 140.43 352.605 154.281 352.605 174.733Z" fill="#282828"/>
<path d="M331.913 220.428H303.334V257.579H331.913V220.428Z" fill="#FFCDC6"/>
<path d="M299.195 218.098C299.195 218.098 307.213 234.02 316.912 236.479C319.498 237.126 322.343 236.867 324.8 235.961C328.551 234.667 333.206 229.101 333.982 223.017L334.37 219.522C334.37 219.651 316.912 229.101 299.195 218.098Z" fill="#282828"/>
<path d="M347.819 176.157C347.819 188.713 346.009 199.587 344.327 207.224C342.646 214.732 337.732 220.04 330.878 224.182L329.585 224.959C322.343 229.489 312.903 229.489 305.532 225.218C298.031 220.816 292.859 215.121 291.178 207.095C288.203 192.467 287.945 176.157 287.945 176.157C287.945 176.157 285.1 144.443 317.429 145.09C349.759 145.737 347.819 176.157 347.819 176.157Z" fill="#FFCDC6"/>
<path d="M315.619 195.962V198.551C315.619 198.81 315.619 199.069 315.748 199.328C316.136 200.234 317.171 200.622 318.076 200.363L320.145 199.845" stroke="#282828" stroke-width="1.2298" stroke-miterlimit="10" stroke-linecap="round" stroke-linejoin="round"/>
<path d="M322.344 178.745L339.543 182.758C339.543 182.758 338.767 178.357 331.784 176.674C324.801 174.991 322.344 178.745 322.344 178.745Z" fill="#282828"/>
<path d="M313.292 178.746L295.834 182.759C295.834 182.759 296.61 178.358 303.722 176.675C310.964 175.251 313.292 178.746 313.292 178.746Z" fill="#282828"/>
<path d="M307.084 189.49C307.084 190.914 305.92 192.208 304.368 192.208C302.816 192.208 301.652 191.043 301.652 189.49C301.652 188.066 302.816 186.771 304.368 186.771C305.92 186.771 307.084 187.937 307.084 189.49Z" fill="#282828"/>
<path d="M332.818 189.49C332.818 190.914 331.654 192.208 330.102 192.208C328.551 192.208 327.387 191.043 327.387 189.49C327.387 188.066 328.551 186.771 330.102 186.771C331.525 186.771 332.818 187.937 332.818 189.49Z" fill="#282828"/>
<path d="M305.273 204.894H329.068C329.068 204.894 327.387 211.366 316.653 211.366C308.377 211.366 305.273 204.894 305.273 204.894Z" fill="white" fill-opacity="0.6"/>
<path d="M288.334 186.642C288.334 186.642 301.266 169.167 298.291 151.433C298.291 151.433 288.722 156.222 286.265 168.779C283.678 181.205 288.334 186.642 288.334 186.642Z" fill="#282828"/>
<path d="M347.819 186.124C347.819 186.124 332.818 168.002 335.793 150.268C335.793 150.268 346.138 156.222 348.724 168.779C351.182 181.205 347.819 186.124 347.819 186.124Z" fill="#282828"/>
<path d="M289.498 158.423C289.498 158.423 304.37 178.358 349.76 175.251C349.76 175.251 344.588 146.772 322.604 143.925C322.474 144.054 297.128 140.947 289.498 158.423Z" fill="#282828"/>
<path d="M248.116 468.447C247.469 469.483 285.877 301.072 274.497 303.661C273.462 303.92 253.418 305.733 250.443 311.817C241.779 329.292 235.701 467.153 235.701 467.153L248.116 468.447Z" fill="#FFCDC6"/>
<path d="M235.701 467.154C235.701 467.154 229.493 495.891 252.9 499.127C254.452 499.386 255.874 498.48 256.392 496.926L256.521 496.668C257.038 494.985 256.262 493.302 254.71 492.655C250.831 490.972 245.012 486.571 247.857 476.862C247.857 476.862 251.219 476.474 253.159 482.817C253.676 484.5 255.486 485.276 257.038 484.5C258.073 483.982 258.59 482.817 258.461 481.781C257.943 477.38 255.616 466.636 247.081 463.788L235.701 467.154Z" fill="#FFCDC6"/>
<path d="M243.59 352.205C243.59 352.205 265.703 383.402 265.833 382.754C265.962 382.107 273.592 338.872 273.592 338.872L246.693 327.222L243.59 352.205Z" fill="#FFBDB7"/>
<path d="M305.016 251.365C305.921 251.365 250.314 252.401 240.098 322.691L272.039 327.61L278.505 380.683H367.735L385.452 282.562C385.452 282.562 372.908 261.333 336.181 250.848L305.016 251.365Z" fill="#9468B4"/>
<path d="M277.859 259.908C277.859 259.908 285.748 270.393 317.948 270.393C349.89 270.393 358.037 259.39 358.037 259.39C358.037 259.39 339.156 248.905 317.302 245.41C317.431 245.41 297.904 248.905 277.859 259.908Z" fill="#FFCDC6"/>
<path d="M540.375 397.381C540.375 397.381 565.98 395.051 583.567 383.401L583.05 373.175L540.375 379V397.381Z" fill="#FFBDB7"/>
<path d="M499.252 250.848C499.252 250.848 580.723 271.3 595.465 374.728C595.465 374.728 555.635 392.074 515.675 384.566L524.598 350.004L499.252 250.848Z" fill="#C98BD2"/>
<path d="M256.004 293.824L316.654 365.538L298.162 417.834C298.162 417.834 252.125 353.758 231.434 304.18L256.004 293.824Z" fill="#FFCDC6"/>
<path d="M257.945 296.414C257.945 296.414 236.607 308.452 231.305 304.051C221.865 296.414 213.977 268.582 213.977 268.582C213.977 268.582 253.807 253.567 253.419 254.084C253.031 254.732 257.945 296.414 257.945 296.414Z" fill="#FFCDC6"/>
<path d="M257.945 296.413C257.557 294.212 265.833 271.17 268.678 262.497C269.325 260.426 267.902 258.096 265.704 257.708C264.281 257.449 261.824 257.578 260.79 259.779L250.832 276.866L257.945 296.413Z" fill="#FFCDC6"/>
<path d="M257.299 271.429L250.445 237.255C250.057 234.925 247.729 233.372 245.531 233.89C243.591 234.278 242.298 235.961 242.556 238.032L245.531 263.404L257.299 271.429Z" fill="#FFCDC6"/>
<path d="M243.591 258.873L234.28 234.537C233.504 232.466 231.047 231.172 228.978 231.949C227.167 232.596 226.133 234.408 226.521 236.35L233.374 264.569L243.591 258.873Z" fill="#FFCDC6"/>
<path d="M233.632 265.993L221.864 242.046C220.83 239.845 218.114 238.809 215.915 239.715C213.846 240.622 212.941 242.952 213.846 245.152L223.287 267.805L233.632 265.993Z" fill="#FFCDC6"/>
<path d="M213.976 268.582L204.795 253.954C204.019 252.271 204.795 250.33 206.346 249.553C207.898 248.776 209.967 249.424 211.002 250.847L223.158 267.676L213.976 268.582Z" fill="#FFCDC6"/>
<path d="M255.357 268.841C255.357 268.841 241.52 267.417 240.098 285.928" stroke="#282828" stroke-width="1.5317" stroke-miterlimit="10" stroke-linecap="round" stroke-linejoin="round"/>
<path d="M285.746 393.369C285.746 393.369 297.126 432.85 319.886 427.672C342.646 422.365 378.079 373.822 378.079 373.822L370.191 290.847L306.437 369.421L285.746 393.369Z" fill="#FFCDC6"/>
<path d="M326.094 344.956C326.094 344.956 347.561 377.447 366.053 388.968L378.08 373.823L331.654 337.966L326.094 344.956Z" fill="#FFBDB7"/>
<path d="M420.367 249.035C420.367 249.035 357.131 263.274 323.508 336.8C323.508 336.8 343.811 367.479 376.528 381.201L398.383 354.405L420.367 249.035Z" fill="#C98BD2"/>
<path d="M420.368 248.776C395.669 261.462 380.15 278.29 380.15 278.29L385.064 493.302H540.635L540.117 279.455C540.117 279.455 520.461 260.297 499.253 250.847C481.148 242.822 437.826 239.844 420.368 248.776Z" fill="#C98BD2"/>
<path d="M493.95 353.499C482.052 353.499 472.354 343.79 472.354 331.881V310.264H515.675V331.881C515.546 343.79 505.847 353.499 493.95 353.499Z" stroke="#282828" stroke-width="1.3968" stroke-miterlimit="10" stroke-linecap="round" stroke-linejoin="round"/>
<path d="M540.375 385.472L542.315 315.053" stroke="#282828" stroke-width="1.3968" stroke-miterlimit="10" stroke-linecap="round" stroke-linejoin="round"/>
<path d="M382.478 373.693L379.115 312.724" stroke="#282828" stroke-width="1.3968" stroke-miterlimit="10" stroke-linecap="round" stroke-linejoin="round"/>
<path d="M422.179 170.331L415.713 138.229C415.325 135.64 414.29 131.627 415.584 127.743C417.653 121.53 425.153 109.362 438.085 114.928L440.93 127.614C440.93 127.614 427.481 130.332 422.179 147.808V170.331Z" fill="#282828"/>
<path d="M437.05 121.53C436.792 125.802 433.041 144.183 419.98 150.915C419.98 150.915 408.6 126.32 437.05 121.53Z" fill="#282828"/>
<path d="M482.958 242.951V188.454H432.782V242.951L417.781 249.812C417.781 249.812 421.273 272.465 458.387 272.983C495.502 273.501 499.252 250.977 499.252 250.977L482.958 242.951Z" fill="#FFCDC6"/>
<path d="M438.084 114.928C438.084 114.928 447.266 90.592 475.716 103.537C492.915 111.433 497.7 121.918 499.769 129.297C500.416 131.756 500.674 135.64 500.545 137.97L493.691 170.331L466.793 125.543L440.8 127.614L438.084 114.928Z" fill="#282828"/>
<path d="M493.691 170.331C493.691 170.331 497.053 164.894 504.037 167.613C511.02 170.202 507.916 187.289 497.441 189.36C497.441 189.36 493.691 190.136 490.717 187.548C490.717 187.548 493.303 174.991 493.691 170.331Z" fill="#FFBDB7"/>
<path d="M502.614 173.568C502.614 173.568 496.794 171.626 492.656 180.299" stroke="#282828" stroke-width="1.3968" stroke-miterlimit="10" stroke-linecap="round" stroke-linejoin="round"/>
<path d="M422.179 170.331C422.179 170.331 418.816 164.894 411.833 167.613C404.85 170.202 407.954 187.289 418.428 189.36C418.428 189.36 422.179 190.136 425.153 187.548C425.153 187.548 422.567 174.991 422.179 170.331Z" fill="#FFBDB7"/>
<path d="M413.125 173.568C413.125 173.568 418.944 171.626 423.083 180.299" stroke="#282828" stroke-width="1.3968" stroke-miterlimit="10" stroke-linecap="round" stroke-linejoin="round"/>
<path d="M494.337 154.151C494.337 164.377 493.303 185.865 487.095 198.551C481.147 210.46 471.448 216.933 458.645 217.321C445.843 217.709 436.273 212.79 428.644 197.257C421.014 181.723 421.402 154.41 421.402 154.41C421.402 154.41 421.402 117.906 457.482 117.906C495.501 117.776 494.337 154.151 494.337 154.151Z" fill="#FFCDC6"/>
<path d="M433.17 204.894C433.17 204.894 437.437 226.252 455.93 228.712C477.267 231.56 482.958 205.411 482.958 205.411C482.958 205.411 473.517 217.32 458.516 217.32C441.964 217.32 433.17 204.894 433.17 204.894Z" fill="#282828"/>
<path d="M455.283 169.425V177.839C455.283 178.227 455.413 178.486 455.542 178.874C456.059 180.169 457.482 180.687 458.775 180.428L461.62 179.651" stroke="#282828" stroke-width="1.3968" stroke-miterlimit="10" stroke-linecap="round" stroke-linejoin="round"/>
<path d="M444.55 165.283C444.55 167.095 443.127 168.519 441.317 168.519C439.506 168.519 438.084 167.095 438.084 165.283C438.084 163.471 439.506 162.047 441.317 162.047C443.127 162.047 444.55 163.471 444.55 165.283Z" fill="#282828"/>
<path d="M475.458 165.283C475.458 167.095 474.036 168.519 472.225 168.519C470.415 168.519 468.992 167.095 468.992 165.283C468.992 163.471 470.415 162.047 472.225 162.047C473.906 162.047 475.458 163.471 475.458 165.283Z" fill="#282828"/>
<path d="M463.689 148.972L485.803 154.668C485.803 154.668 484.768 148.455 475.716 146.254C466.793 143.924 463.689 148.972 463.689 148.972Z" fill="#282828"/>
<path d="M449.981 148.972L427.867 154.668C427.867 154.668 428.902 148.455 437.954 146.254C447.006 143.924 449.981 148.972 449.981 148.972Z" fill="#282828"/>
<path d="M445.584 186.383C445.584 186.383 448.817 188.842 457.481 188.842C465.24 188.842 470.154 186.383 470.154 186.383" stroke="#282828" stroke-width="1.3968" stroke-miterlimit="10" stroke-linecap="round" stroke-linejoin="round"/>
<path d="M440.412 180.298C448.125 180.298 454.378 174.039 454.378 166.318C454.378 158.597 448.125 152.338 440.412 152.338C432.698 152.338 426.445 158.597 426.445 166.318C426.445 174.039 432.698 180.298 440.412 180.298Z" stroke="white" stroke-opacity="0.6" stroke-width="1.9514" stroke-miterlimit="10"/>
<path d="M474.81 180.298C482.524 180.298 488.777 174.039 488.777 166.318C488.777 158.597 482.524 152.338 474.81 152.338C467.097 152.338 460.844 158.597 460.844 166.318C460.844 174.039 467.097 180.298 474.81 180.298Z" stroke="white" stroke-opacity="0.6" stroke-width="1.9514" stroke-miterlimit="10"/>
<path d="M454.379 166.318C454.379 166.318 457.741 163.212 460.715 166.318" stroke="white" stroke-opacity="0.6" stroke-width="1.9514" stroke-miterlimit="10"/>
<path d="M426.445 166.319L421.789 166.189" stroke="white" stroke-opacity="0.6" stroke-width="1.9514" stroke-miterlimit="10"/>
<path d="M488.777 166.319L493.95 166.189" stroke="white" stroke-opacity="0.6" stroke-width="1.9514" stroke-miterlimit="10"/>
<path d="M433.17 122.436C433.17 122.436 439.894 141.465 470.155 140.947C490.717 140.559 495.631 155.445 495.631 155.445C495.631 155.445 492.01 122.178 491.105 122.436C490.199 122.695 459.809 114.281 459.809 114.281L433.17 122.436Z" fill="#282828"/>
</svg>
