<svg width="573" height="500" viewBox="0 0 573 500" fill="none" xmlns="http://www.w3.org/2000/svg">
<circle cx="428.5" cy="336.5" r="144.5" fill="#9468B4" fill-opacity="0.15"/>
<circle cx="444" cy="223" r="26" fill="#9468B4" fill-opacity="0.15"/>
<circle cx="104" cy="104" r="104" fill="#9468B4" fill-opacity="0.15"/>
<circle cx="49" cy="323" r="40" fill="#9468B4" fill-opacity="0.15"/>
<circle cx="296" cy="474" r="26" fill="#9468B4" fill-opacity="0.15"/>
<path d="M356.07 101.042C325.192 68.6211 297.403 59.3579 245.684 73.2526C173.894 91.7789 174.666 133.463 123.719 151.989C72.7713 170.516 59.6485 229.182 75.0871 253.112C90.5257 277.042 119.087 311.779 121.403 365.814C124.491 426.796 193.192 455.358 268.842 429.112C344.491 402.867 347.578 375.849 395.438 367.358C468.771 354.235 476.491 252.34 415.508 193.674C378.456 158.937 380.771 128.06 356.07 101.042Z" fill="#9468B4"/>
<path d="M254.947 129.604C263.438 129.604 271.158 130.376 278.105 132.692C285.052 135.008 290.456 138.095 295.087 141.955C299.719 145.815 303.579 150.446 305.894 155.078C308.21 160.481 309.754 165.885 309.754 171.288C309.754 186.727 300.491 202.165 282.736 216.832L253.403 240.762H307.438C308.21 242.306 308.982 244.622 309.754 246.937C310.526 249.253 311.298 252.341 311.298 255.429C311.298 260.832 309.754 264.692 307.438 267.008C305.122 269.323 302.035 270.867 298.175 270.867H218.666C215.579 268.551 212.491 265.464 210.947 262.376C209.403 258.516 207.859 254.657 207.859 250.025C207.859 244.622 208.631 240.762 210.947 236.902C213.263 233.043 215.579 230.727 217.894 228.411L248.772 201.393C252.631 198.306 255.719 195.218 258.807 192.13C261.122 189.815 263.438 187.499 264.982 185.183C266.526 182.867 268.07 181.323 268.07 179.008C268.842 177.464 268.842 175.148 268.842 173.604C268.842 169.744 267.298 165.885 263.438 163.569C259.579 161.253 254.947 159.709 249.544 159.709C243.368 159.709 237.965 160.481 233.333 162.797C228.701 164.341 224.842 166.657 221.754 168.972C219.438 167.429 217.123 165.113 215.579 162.025C214.035 158.937 213.263 155.85 213.263 152.762C213.263 145.043 217.123 138.867 224.07 135.008C232.561 131.148 242.596 129.604 254.947 129.604Z" fill="white"/>
<path d="M267.296 110.305C265.752 110.305 264.98 109.533 264.98 107.989V90.2347C264.98 88.6909 265.752 87.9189 267.296 87.9189C268.84 87.9189 269.612 88.6909 269.612 90.2347V107.989C269.612 108.761 268.84 110.305 267.296 110.305Z" fill="white"/>
<path d="M338.312 139.638C337.54 139.638 336.768 139.638 336.768 138.866C335.996 138.094 335.996 136.55 336.768 135.778L349.119 123.427C349.891 122.655 351.435 122.655 352.207 123.427C352.979 124.199 352.979 125.743 352.207 126.515L339.856 138.866C339.084 138.866 339.084 139.638 338.312 139.638Z" fill="white"/>
<path d="M385.401 209.884H367.647C366.103 209.884 365.331 209.112 365.331 207.568C365.331 206.024 366.103 205.252 367.647 205.252H385.401C386.945 205.252 387.717 206.024 387.717 207.568C387.717 209.112 386.945 209.884 385.401 209.884Z" fill="white"/>
<path d="M166.945 209.884H149.191C147.647 209.884 146.875 209.112 146.875 207.568C146.875 206.024 147.647 205.252 149.191 205.252H166.945C168.489 205.252 169.261 206.024 169.261 207.568C169.261 209.112 168.489 209.884 166.945 209.884Z" fill="white"/>
<path d="M196.278 139.638C195.506 139.638 194.735 139.638 194.735 138.866L182.384 126.515C181.612 125.743 181.612 124.199 182.384 123.427C183.156 122.655 184.699 122.655 185.471 123.427L197.822 135.778C198.594 136.55 198.594 138.094 197.822 138.866C197.822 138.866 197.05 139.638 196.278 139.638Z" fill="white"/>
<path d="M196.28 334.164C210.175 336.48 217.123 344.199 217.123 355.006C217.123 366.585 207.859 376.62 189.333 376.62C179.298 376.62 170.035 372.761 163.859 368.129L168.491 354.234C173.894 357.322 180.842 361.182 186.245 361.182C190.877 361.182 193.965 359.638 193.965 357.322C193.965 355.006 191.649 353.462 185.473 351.919C172.351 349.603 165.403 341.883 165.403 331.076C165.403 320.269 173.894 309.462 189.333 309.462C200.14 309.462 208.631 311.778 214.807 315.638L210.175 329.533C205.544 327.217 199.368 324.901 192.421 324.901C190.105 324.901 187.789 326.445 187.789 328.761C187.789 331.848 190.105 333.392 196.28 334.164Z" fill="white"/>
<path d="M268.07 327.989H255.719V375.849H234.105V327.989H221.754V310.235H268.842V327.989H268.07Z" fill="white"/>
<path d="M316.702 327.217H295.088V335.708H315.158V351.919H295.088V359.638H316.702V375.848H274.246V309.462H316.702V327.217Z" fill="white"/>
<path d="M375.368 331.077C375.368 344.972 365.333 351.919 352.982 351.919H346.035V376.621H324.421V310.235H354.526C365.333 310.235 375.368 318.726 375.368 331.077ZM345.263 335.709H349.123C352.21 335.709 353.754 334.165 353.754 331.077C353.754 327.989 351.438 326.445 349.123 326.445H345.263V335.709Z" fill="white"/>
</svg>
