<svg width="507" height="520" viewBox="0 0 507 520" fill="none" xmlns="http://www.w3.org/2000/svg">
<circle cx="425" cy="438" r="82" fill="#9468B4" fill-opacity="0.1"/>
<circle cx="40" cy="396" r="40" fill="#9468B4" fill-opacity="0.15"/>
<circle cx="310" cy="26" r="26" fill="#9468B4" fill-opacity="0.15"/>
<circle cx="153" cy="181" r="153" fill="#9468B4" fill-opacity="0.15"/>
<path d="M356.186 123.042C325.309 90.6211 297.52 81.3579 245.8 95.2526C174.011 113.779 175.555 155.463 123.836 173.99C72.1162 192.516 59.7653 251.182 75.2039 275.112C90.6425 299.042 119.204 333.779 121.52 387.814C124.607 448.796 193.309 477.358 268.958 451.112C344.607 424.867 347.695 397.849 395.555 389.358C468.888 376.235 476.607 274.34 415.625 215.674C378.572 180.937 380.888 150.06 356.186 123.042Z" fill="#9468B4"/>
<path d="M255.835 156.235C258.923 155.463 262.01 154.691 265.87 153.919C269.73 153.147 272.817 153.147 275.905 153.147C278.993 153.147 282.853 153.147 285.94 153.919C289.028 154.691 292.116 155.463 294.432 157.007C296.747 158.551 299.063 160.867 300.607 163.183C302.151 166.27 302.923 169.358 302.923 173.218V233.428H322.993C323.765 234.972 324.537 237.288 326.081 239.604C326.853 242.691 327.625 245.007 327.625 248.095C327.625 253.498 326.081 258.13 323.765 260.446C321.449 262.761 317.589 264.305 313.73 264.305H302.923V291.323C301.379 291.323 299.063 292.095 295.203 292.867C292.116 293.639 289.028 293.639 285.94 293.639C282.853 293.639 279.765 293.639 277.449 292.867C275.133 292.867 272.817 292.095 271.274 290.551C269.73 289.779 268.186 287.463 267.414 285.919C266.642 283.604 265.87 281.288 265.87 277.428V265.077H209.519C206.432 263.533 203.344 260.446 200.256 257.358C197.94 253.498 196.396 249.639 196.396 244.235C196.396 241.147 196.396 238.06 197.168 234.972C197.94 231.884 199.484 228.797 201.028 225.709L255.835 156.235ZM267.414 191.744L236.537 234.2H267.414V191.744Z" fill="white"/>
<path d="M267.414 132.305C265.87 132.305 265.098 131.533 265.098 129.989V112.235C265.098 110.691 265.87 109.919 267.414 109.919C268.957 109.919 269.729 110.691 269.729 112.235V129.989C269.729 130.761 268.957 132.305 267.414 132.305Z" fill="white"/>
<path d="M338.429 161.638C337.657 161.638 336.886 161.638 336.886 160.866C336.114 160.094 336.114 158.55 336.886 157.778L349.236 145.427C350.008 144.655 351.552 144.655 352.324 145.427C353.096 146.199 353.096 147.743 352.324 148.515L339.973 160.866C339.201 160.866 339.201 161.638 338.429 161.638Z" fill="white"/>
<path d="M385.518 232.656H367.764C366.22 232.656 365.448 231.884 365.448 230.34C365.448 228.796 366.22 228.024 367.764 228.024H385.518C387.062 228.024 387.834 228.796 387.834 230.34C387.834 231.884 387.062 232.656 385.518 232.656Z" fill="white"/>
<path d="M167.062 232.656H149.308C147.764 232.656 146.992 231.884 146.992 230.34C146.992 228.796 147.764 228.024 149.308 228.024H167.062C168.606 228.024 169.378 228.796 169.378 230.34C169.378 231.884 168.606 232.656 167.062 232.656Z" fill="white"/>
<path d="M196.396 161.638C195.624 161.638 194.852 161.638 194.852 160.866L182.501 148.515C181.729 147.743 181.729 146.199 182.501 145.427C183.273 144.655 184.817 144.655 185.589 145.427L197.939 157.778C198.711 158.55 198.711 160.094 197.939 160.866C197.939 160.866 197.168 161.638 196.396 161.638Z" fill="white"/>
<path d="M194.081 356.937C207.976 359.252 214.923 366.972 214.923 377.779C214.923 389.358 205.66 399.393 187.134 399.393C177.099 399.393 167.836 395.533 161.66 390.902L166.292 377.007C171.695 380.094 178.643 383.954 184.046 383.954C188.678 383.954 191.765 382.41 191.765 380.095C191.765 377.779 189.45 376.235 183.274 374.691C169.379 372.375 163.204 364.656 163.204 353.849C163.204 343.042 171.695 332.235 187.134 332.235C197.941 332.235 206.432 334.551 212.608 338.41L207.976 352.305C203.344 349.989 197.169 347.673 190.222 347.673C187.906 347.673 185.59 349.217 185.59 351.533C185.59 353.849 187.906 355.393 194.081 356.937Z" fill="white"/>
<path d="M265.87 350.76H252.747V398.62H231.133V350.76H218.782V333.006H265.87V350.76Z" fill="white"/>
<path d="M313.73 349.217H292.116V357.708H312.186V373.919H292.116V381.638H313.73V397.848H271.273V331.462H313.73V349.217Z" fill="white"/>
<path d="M372.397 353.848C372.397 367.743 362.361 374.69 350.011 374.69H343.063V399.392H321.449V333.006H351.554C363.133 333.006 372.397 340.725 372.397 353.848ZM343.063 358.48H346.923C350.011 358.48 351.554 356.936 351.554 353.848C351.554 350.76 349.239 349.216 346.923 349.216H343.063V358.48Z" fill="white"/>
</svg>
