<svg width="591" height="453" viewBox="0 0 591 453" fill="none" xmlns="http://www.w3.org/2000/svg">
<circle cx="446.5" cy="308.5" r="144.5" fill="#9468B4" fill-opacity="0.15"/>
<circle cx="467" cy="56" r="40" fill="#9468B4" fill-opacity="0.15"/>
<circle cx="104" cy="187" r="104" fill="#9468B4" fill-opacity="0.15"/>
<path d="M395.186 34.0421C364.309 1.62107 336.52 -7.64211 284.8 6.25263C213.011 24.7789 214.555 66.4632 162.835 84.9895C111.116 103.516 98.7653 162.182 114.204 186.112C129.643 210.042 158.204 244.779 160.52 298.814C163.607 359.796 232.309 388.358 307.958 362.112C383.607 335.867 386.695 308.849 434.555 300.358C507.888 287.235 515.607 185.34 454.625 126.674C417.572 91.9368 419.888 61.0597 395.186 34.0421Z" fill="#9468B4"/>
<path d="M292.519 62.6025C309.502 62.6025 323.397 66.4622 331.888 73.4095C341.151 80.3569 345.783 90.392 345.783 101.971C345.783 108.918 344.239 115.094 340.379 120.497C336.519 125.901 331.888 128.989 326.484 132.076C329.572 133.62 332.66 135.164 334.976 136.708C338.063 138.252 340.379 140.567 341.923 143.655C344.239 146.743 345.783 149.831 346.554 152.918C348.098 156.778 348.098 160.638 348.098 165.269C348.098 171.445 346.554 177.62 344.239 183.024C341.151 188.427 337.291 192.287 332.66 196.146C328.028 200.006 321.853 202.322 314.905 204.638C308.73 206.182 301.783 206.953 293.291 206.953C277.853 206.953 265.502 204.638 257.783 200.778C250.063 196.146 245.432 190.743 245.432 183.796C245.432 179.936 246.204 176.076 248.519 172.988C250.835 169.901 253.151 167.585 255.467 166.041C258.554 168.357 262.414 170.673 267.818 172.988C273.221 175.304 279.397 176.848 287.888 176.848C295.607 176.848 301.011 175.304 304.87 172.988C308.73 169.901 310.274 166.813 310.274 162.182C310.274 157.55 308.73 154.462 305.642 152.146C302.554 149.831 297.923 149.059 290.204 149.059H268.59C267.818 147.515 266.274 145.199 265.502 142.883C264.73 140.567 264.73 137.48 264.73 134.392C264.73 131.304 264.73 128.217 265.502 125.129C266.274 122.813 267.046 120.497 268.59 118.953H290.204C301.011 118.953 306.414 115.094 306.414 106.603C306.414 102.743 304.87 99.6552 301.011 97.3394C297.923 95.0236 292.519 93.4797 285.572 93.4797C279.397 93.4797 273.993 94.2516 269.361 95.7955C264.73 97.3393 260.87 98.8832 257.783 101.199C255.467 99.6552 253.151 97.3394 251.607 94.2517C250.063 91.9359 249.291 88.8482 249.291 84.9885C249.291 77.2692 253.151 71.8657 260.87 68.006C269.361 64.1464 279.397 62.6025 292.519 62.6025Z" fill="white"/>
<path d="M306.415 43.3049C304.872 43.3049 304.1 42.5329 304.1 40.9891V23.2347C304.1 21.6909 304.872 20.9189 306.415 20.9189C307.959 20.9189 308.731 21.6909 308.731 23.2347V40.9891C308.731 41.761 307.959 43.3049 306.415 43.3049Z" fill="white"/>
<path d="M377.431 72.6376C376.659 72.6376 375.888 72.6376 375.888 71.8657C375.116 71.0937 375.116 69.5499 375.888 68.778L388.238 56.4271C389.01 55.6552 390.554 55.6552 391.326 56.4271C392.098 57.199 392.098 58.7429 391.326 59.5148L378.975 71.8657C378.975 71.8657 378.203 72.6376 377.431 72.6376Z" fill="white"/>
<path d="M424.52 143.656H406.766C405.222 143.656 404.45 142.884 404.45 141.34C404.45 139.796 405.222 139.024 406.766 139.024H424.52C426.064 139.024 426.836 139.796 426.836 141.34C426.836 142.884 426.064 143.656 424.52 143.656Z" fill="white"/>
<path d="M206.064 143.656H188.31C186.766 143.656 185.994 142.884 185.994 141.34C185.994 139.796 186.766 139.024 188.31 139.024H206.064C207.608 139.024 208.38 139.796 208.38 141.34C208.38 142.884 207.608 143.656 206.064 143.656Z" fill="white"/>
<path d="M236.169 72.6376C235.398 72.6376 234.626 72.6376 234.626 71.8657L221.503 59.5148C220.731 58.7429 220.731 57.199 221.503 56.4271C222.275 55.6552 223.819 55.6552 224.591 56.4271L236.941 68.778C237.713 69.5499 237.713 71.0937 236.941 71.8657L236.169 72.6376Z" fill="white"/>
<path d="M223.818 267.937C237.712 270.252 244.66 277.972 244.66 288.779C244.66 300.358 235.396 310.393 216.87 310.393C206.835 310.393 197.572 306.533 191.396 301.902L196.028 288.007C201.432 291.094 208.379 294.954 213.782 294.954C218.414 294.954 221.502 293.41 221.502 291.095C221.502 288.779 219.186 287.235 213.011 285.691C199.888 283.375 192.94 275.656 192.94 264.849C192.94 254.042 201.432 243.235 216.87 243.235C227.677 243.235 236.168 245.551 242.344 249.41L237.712 263.305C233.081 260.989 226.905 258.673 219.958 258.673C217.642 258.673 215.326 260.217 215.326 262.533C216.098 264.849 218.414 266.393 223.818 267.937Z" fill="white"/>
<path d="M296.379 261.76H283.256V309.62H261.642V261.76H249.291V244.006H296.379V261.76Z" fill="white"/>
<path d="M344.239 260.217H322.625V268.708H342.695V284.919H322.625V292.638H344.239V308.848H301.783V242.462H344.239V260.217Z" fill="white"/>
<path d="M402.905 264.848C402.905 278.743 392.87 285.69 380.519 285.69H373.572V310.392H351.958V244.006H382.063C393.642 244.006 402.905 251.725 402.905 264.848ZM372.8 269.48H376.66C379.747 269.48 381.291 267.936 381.291 264.848C381.291 261.76 378.976 260.216 376.66 260.216H372.8V269.48Z" fill="white"/>
</svg>
