<svg width="616" height="443" viewBox="0 0 616 443" fill="none" xmlns="http://www.w3.org/2000/svg">
<circle cx="500" cy="403" r="40" fill="#9468B4" fill-opacity="0.15"/>
<circle cx="193" cy="52" r="26" fill="#9468B4" fill-opacity="0.15"/>
<circle cx="512" cy="104" r="104" fill="#9468B4" fill-opacity="0.15"/>
<circle cx="153" cy="258" r="153" fill="#9468B4" fill-opacity="0.15"/>
<path d="M428.069 65.0421C397.192 32.6211 369.403 23.3579 317.684 37.2526C245.894 55.7789 246.666 97.4632 195.719 115.989C144.771 134.516 131.648 193.182 147.087 217.112C162.526 241.042 191.087 275.779 193.403 329.814C196.491 390.796 265.192 419.358 340.841 393.112C416.491 366.867 419.578 339.849 467.438 331.358C540.771 318.235 548.491 216.34 487.508 157.674C450.455 122.937 452.771 92.0596 428.069 65.0421Z" fill="#9468B4"/>
<path d="M322.317 133.744L299.931 140.691C297.615 139.147 295.299 136.832 292.983 134.516C290.667 131.428 289.896 128.34 289.896 122.937C289.896 113.674 295.299 107.498 306.106 103.639L331.58 95.1475H340.071C346.246 95.1475 351.65 96.6913 355.51 100.551C359.369 104.411 360.913 109.814 360.913 115.99V234.095C359.369 234.095 357.053 234.867 353.194 235.639C350.106 236.411 347.018 236.411 343.159 236.411C340.071 236.411 336.983 236.411 333.896 235.639C331.58 234.867 329.264 234.095 326.948 232.551C325.404 231.007 323.86 229.463 323.089 227.147C322.317 224.832 321.545 221.744 321.545 217.884V133.744H322.317Z" fill="white"/>
<path d="M339.299 74.3044C337.755 74.3044 336.983 73.5325 336.983 71.9886V54.2342C336.983 52.6904 337.755 51.9185 339.299 51.9185C340.843 51.9185 341.615 52.6904 341.615 54.2342V71.9886C341.615 72.7606 340.843 74.3044 339.299 74.3044Z" fill="white"/>
<path d="M410.316 103.637C409.544 103.637 408.772 103.637 408.772 102.865C408 102.093 408 100.549 408.772 99.7775L421.123 87.4266C421.895 86.6547 423.439 86.6547 424.211 87.4266C424.983 88.1985 424.983 89.7424 424.211 90.5143L411.86 102.865C411.86 102.865 411.088 103.637 410.316 103.637Z" fill="white"/>
<path d="M457.404 173.883H439.65C438.106 173.883 437.334 173.111 437.334 171.567C437.334 170.023 438.106 169.251 439.65 169.251H457.404C458.948 169.251 459.72 170.023 459.72 171.567C459.72 173.111 458.948 173.883 457.404 173.883Z" fill="white"/>
<path d="M238.948 173.883H221.194C219.65 173.883 218.878 173.111 218.878 171.567C218.878 170.023 219.65 169.251 221.194 169.251H238.948C240.492 169.251 241.264 170.023 241.264 171.567C241.264 173.111 240.492 173.883 238.948 173.883Z" fill="white"/>
<path d="M269.054 103.637C268.282 103.637 267.51 103.637 267.51 102.865L255.159 90.5143C254.387 89.7424 254.387 88.1985 255.159 87.4266C255.931 86.6547 257.475 86.6547 258.247 87.4266L270.598 99.7775C271.37 100.549 271.37 102.093 270.598 102.865C269.826 102.865 269.054 103.637 269.054 103.637Z" fill="white"/>
<path d="M256.702 298.164C270.597 300.479 277.544 308.199 277.544 319.006C277.544 330.585 268.281 340.62 249.755 340.62C239.72 340.62 230.457 336.76 224.281 332.129L228.913 318.234C234.316 321.322 241.264 325.181 246.667 325.181C251.299 325.181 254.387 323.637 254.387 321.322C254.387 319.006 252.071 317.462 245.895 315.918C232.772 313.602 225.825 305.883 225.825 295.076C225.825 284.269 234.316 273.462 249.755 273.462C260.562 273.462 269.053 275.778 275.229 279.637L270.597 293.532C265.965 291.216 259.79 288.901 252.843 288.901C250.527 288.901 248.211 290.444 248.211 292.76C248.983 295.848 251.299 297.392 256.702 298.164Z" fill="white"/>
<path d="M329.264 291.989H316.141V339.848H294.527V291.989H282.176V274.234H329.264V291.989Z" fill="white"/>
<path d="M377.124 291.216H355.51V299.708H375.58V315.918H355.51V323.637H377.124V339.848H334.668V273.462H377.124V291.216Z" fill="white"/>
<path d="M435.79 295.076C435.79 308.971 425.755 315.919 413.404 315.919H406.457V340.62H384.843V274.234H414.948C426.527 274.234 435.79 282.726 435.79 295.076ZM405.685 299.708H409.545C412.632 299.708 414.176 298.164 414.176 295.076C414.176 291.989 411.86 290.445 409.545 290.445H405.685V299.708Z" fill="white"/>
</svg>
