<svg width="9" height="37" viewBox="0 0 9 37" fill="none" xmlns="http://www.w3.org/2000/svg">
<path d="M7.07617 25.0869H1.2168L0.386719 0.453125H7.90625L7.07617 25.0869ZM4.14648 28.9443C5.33464 28.9443 6.28678 29.2943 7.00293 29.9941C7.73535 30.694 8.10156 31.5892 8.10156 32.6797C8.10156 33.7539 7.73535 34.641 7.00293 35.3408C6.28678 36.0407 5.33464 36.3906 4.14648 36.3906C2.97461 36.3906 2.02246 36.0407 1.29004 35.3408C0.573893 34.641 0.21582 33.7539 0.21582 32.6797C0.21582 31.6055 0.573893 30.7184 1.29004 30.0186C2.02246 29.3024 2.97461 28.9443 4.14648 28.9443Z" fill="#50AF00"/>
</svg>
