<svg width="23" height="38" viewBox="0 0 23 38" fill="none" xmlns="http://www.w3.org/2000/svg">
<path d="M8.02051 26.0869C8.02051 23.8083 8.2972 21.9935 8.85059 20.6426C9.40397 19.2917 10.4131 17.9652 11.8779 16.6631C13.359 15.3447 14.3438 14.2786 14.832 13.4648C15.3203 12.6348 15.5645 11.764 15.5645 10.8525C15.5645 8.10189 14.2949 6.72656 11.7559 6.72656C10.5514 6.72656 9.58301 7.10091 8.85059 7.84961C8.13444 8.58203 7.76009 9.59928 7.72754 10.9014H0.647461C0.680013 7.79264 1.68099 5.35938 3.65039 3.60156C5.63607 1.84375 8.33789 0.964844 11.7559 0.964844C15.2064 0.964844 17.8838 1.80306 19.7881 3.47949C21.6924 5.13965 22.6445 7.49154 22.6445 10.5352C22.6445 11.9186 22.3353 13.2288 21.7168 14.4658C21.0983 15.6865 20.016 17.0456 18.4697 18.543L16.4922 20.4229C15.2552 21.611 14.5472 23.0026 14.3682 24.5977L14.2705 26.0869H8.02051ZM7.3125 33.582C7.3125 32.4915 7.67871 31.5964 8.41113 30.8965C9.15983 30.1803 10.112 29.8223 11.2676 29.8223C12.4232 29.8223 13.3672 30.1803 14.0996 30.8965C14.8483 31.5964 15.2227 32.4915 15.2227 33.582C15.2227 34.6562 14.8564 35.5433 14.124 36.2432C13.4079 36.943 12.4557 37.293 11.2676 37.293C10.0794 37.293 9.11914 36.943 8.38672 36.2432C7.67057 35.5433 7.3125 34.6562 7.3125 33.582Z" fill="#50AF00"/>
</svg>
