<svg width="464" height="410" viewBox="0 0 464 410" fill="none" xmlns="http://www.w3.org/2000/svg">
<g clip-path="url(#clip0)">
<g opacity="0.15">
<path d="M229.3 360.4C352.515 360.4 452.4 348.446 452.4 333.7C452.4 318.954 352.515 307 229.3 307C106.085 307 6.2 318.954 6.2 333.7C6.2 348.446 106.085 360.4 229.3 360.4Z" fill="#D9E4F5"/>
</g>
<path d="M116.7 21.6C116.7 22.7 116.3 23.6 115.6 24.3C114.9 25 113.9 25.4 112.9 25.4H30.7C28.6 25.4 26.9 23.7 26.9 21.6C26.9 20.5 27.3 19.6 28 18.9C28.7 18.2 29.7 17.8 30.7 17.8H34.6C36.1 14.2 39.7 11.7 43.8 11.7C46.6 11.7 49.1 12.8 50.9 14.7C53.3 10.6 57.8 7.8 62.9 7.8C64.3 7.8 65.7 8 66.9 8.4C69.6 3.4 74.9 0 80.9 0C88.2 0 94.4 4.9 96.2 11.7C97.5 11 99.1 10.6 100.7 10.6C105.3 10.6 109.1 13.6 110.3 17.8H112.8C114.9 17.8 116.7 19.5 116.7 21.6Z" fill="#D9E4F5"/>
<path d="M412 23.4999C412 24.5999 411.6 25.4999 410.9 26.1999C410.2 26.8999 409.2 27.2999 408.2 27.2999H326.1C324 27.2999 322.3 25.5999 322.3 23.4999C322.3 22.3999 322.7 21.4999 323.4 20.7999C324.1 20.0999 325.1 19.6999 326.1 19.6999H330C331.5 16.0999 335.1 13.5999 339.2 13.5999C342 13.5999 344.5 14.6999 346.3 16.5999C348.7 12.4999 353.2 9.6999 358.3 9.6999C359.7 9.6999 361.1 9.8999 362.3 10.2999C365 5.2999 370.3 1.8999 376.3 1.8999C383.6 1.8999 389.8 6.7999 391.6 13.5999C392.9 12.8999 394.5 12.4999 396.1 12.4999C400.7 12.4999 404.5 15.4999 405.7 19.6999H408.2C410.3 19.5999 412 21.3999 412 23.4999Z" fill="#D9E4F5"/>
<path d="M278.3 49.2001C278.3 50.3001 277.9 51.2001 277.2 51.9001C276.5 52.6001 275.5 53.0001 274.5 53.0001H192.4C190.3 53.0001 188.6 51.3001 188.6 49.2001C188.6 48.1001 189 47.2001 189.7 46.5001C190.4 45.8001 191.4 45.4001 192.4 45.4001H196.3C197.8 41.8001 201.4 39.3001 205.5 39.3001C208.3 39.3001 210.8 40.4001 212.6 42.3001C215 38.2001 219.5 35.4001 224.6 35.4001C226 35.4001 227.4 35.6001 228.6 36.0001C231.3 31.0001 236.6 27.6001 242.6 27.6001C249.9 27.6001 256.1 32.5001 257.9 39.3001C259.2 38.6001 260.8 38.2001 262.4 38.2001C267 38.2001 270.8 41.2001 272 45.4001H274.5C276.6 45.3001 278.3 47.1001 278.3 49.2001Z" fill="#D9E4F5"/>
<path d="M382.5 201.2C387.2 192.8 396.2 175.1 400.1 156.9C405.9 129.6 418.8 128.4 423.5 136.2C436.4 157.6 401.4 194.4 390.3 205.2L382.5 201.2Z" fill="#C7D9ED"/>
<path d="M385.5 202.7C394.1 191.7 400.7 179.6 404.9 170.7C410.5 158.9 413.4 149.9 413.5 149.8C413.6 149.5 413.9 149.3 414.3 149.4C414.6 149.5 414.8 149.8 414.7 150.2C414.7 150.3 411.8 159.3 406.1 171.2C401.9 180.1 395.3 192.2 386.7 203.2L385.5 202.7Z" fill="#B4CAE3"/>
<path d="M73.6 281.6C69.3 273 61.1 254.9 58.1 236.5C53.6 209 40.7 207.2 35.7 214.8C21.8 235.6 55.1 273.9 65.7 285.3L73.6 281.6Z" fill="#C7D9ED"/>
<path d="M70.5 283C62.4 271.6 56.4 259.3 52.6 250.2C47.5 238.1 45 229 45 228.9C44.9 228.6 44.6 228.4 44.2 228.5C43.9 228.6 43.7 228.9 43.8 229.3C43.8 229.4 46.3 238.5 51.4 250.7C55.2 259.8 61.2 272.2 69.3 283.6L70.5 283Z" fill="#B4CAE3"/>
<path d="M84.1 306.6C74.8 297.2 54.4 275.2 41.6 250.1C23.2 214.2 4.7 217.4 1.1 230.1C-8.3 262.9 46.9 298.6 69.8 311.8L84.1 306.6Z" fill="#D9E4F5"/>
<path d="M79.1 308.5C63 296.4 49.4 282.2 40.2 271.4C27.9 257 20.4 245.6 20.3 245.5C20 245.1 19.5 245 19.1 245.2C18.7 245.5 18.6 246 18.8 246.4C18.9 246.5 26.4 258 38.8 272.5C47.9 283.1 61.3 297.2 77.1 309.2L79.1 308.5Z" fill="#C7D9ED"/>
<path d="M375.9 218.3C385.6 209.3 407 188.3 421 163.8C441 128.8 459.3 132.8 462.4 145.7C470.3 178.9 413.5 212 390 224.2L375.9 218.3Z" fill="#D9E4F5"/>
<path d="M380.8 220.4C397.4 209.1 411.6 195.5 421.3 185.1C434.3 171.3 442.2 160.2 442.3 160.1C442.6 159.7 443.1 159.6 443.5 159.9C443.9 160.2 444 160.7 443.7 161.1C443.6 161.2 435.6 172.3 422.5 186.2C412.9 196.4 398.9 209.8 382.6 221.1L380.8 220.4Z" fill="#C7D9ED"/>
<path d="M95.5 163.8C85.8 158 64.4 144.3 48.6 126.4C25.9 100.8 11.4 107.3 11.1 118.5C10.3 147.5 63.3 165.1 84.9 171.1L95.5 163.8Z" fill="#D9E4F5"/>
<path d="M91.7 166.299C76 159.799 61.8 150.999 51.9 144.099C38.7 134.899 30.2 127.099 30.1 126.999C29.8 126.699 29.3 126.699 29 126.999C28.7 127.299 28.7 127.799 29 128.099C29.1 128.199 37.7 135.999 50.9 145.299C60.6 152.099 74.6 160.799 90.1 167.299L91.7 166.299Z" fill="#C7D9ED"/>
<path d="M147.5 53.0998C149.1 38.0998 147.9 23.5998 140.4 27.1998C132.9 30.7998 135.5 55.6998 145.7 72.0998L147.8 78.4998C140.6 66.3998 126.2 56.0998 120.3 59.9998C114.4 63.7998 124.6 69.7998 134.8 73.6998C142.6 76.6998 147 80.3998 149 82.4998L159 112.8C147.5 93.6998 124.9 77.4998 115.5 83.4998C106.2 89.4998 122.4 98.9998 138.6 105.2C150.8 109.9 157.8 115.7 161.1 119.1L163.1 125.1C164.2 124.9 165.3 124.7 166.4 124.5L154.5 88.3998C155.3 85.2998 156.9 81.0998 160 76.0998C165.9 66.8998 170.5 55.9998 163.5 56.4998C157.4 56.8998 152.6 69.3998 152.3 81.8998L148.2 69.3998C147.7 65.3998 146.8 59.4998 147.5 53.0998Z" fill="#C7D9ED"/>
<path d="M437.8 218.8C441.9 204.3 448.4 191.2 454 197.3C459.6 203.4 448 225.6 432.5 237.1L428.2 242.3C439.4 233.7 456.5 229.5 460.6 235.2C464.6 240.9 453 242.7 442 242.5C433.7 242.4 428.2 244.2 425.5 245.4L405 270C422.7 256.4 449.8 249.8 456.2 258.9C462.6 268 444.1 270.8 426.8 270.5C413.7 270.3 405 273.2 400.8 275.1L396.7 280C395.7 279.4 394.8 278.8 393.8 278.3L418.2 249.2C418.6 246 418.7 241.5 417.6 235.8C415.5 225.1 415.2 213.3 421.6 216.2C427.1 218.8 427 232.2 422.7 243.9L431.1 233.8C433.1 230.2 436.1 225.1 437.8 218.8Z" fill="#D9E4F5"/>
<path d="M416.4 106.9C413.7 106.9 411.5 104.7 411.5 102C411.5 99.3001 413.7 97.1001 416.4 97.1001C419.1 97.1001 421.3 99.3001 421.3 102C421.3 104.8 419.1 106.9 416.4 106.9ZM416.4 98.8001C414.6 98.8001 413.1 100.3 413.1 102.1C413.1 103.9 414.6 105.4 416.4 105.4C418.2 105.4 419.7 103.9 419.7 102.1C419.7 100.2 418.2 98.8001 416.4 98.8001Z" fill="#BA68C8"/>
<path d="M441.1 111.9C438.4 111.9 436.2 109.7 436.2 107C436.2 104.3 438.4 102.1 441.1 102.1C443.8 102.1 446 104.3 446 107C446 109.7 443.8 111.9 441.1 111.9ZM441.1 103.7C439.3 103.7 437.8 105.2 437.8 107C437.8 108.8 439.3 110.3 441.1 110.3C442.9 110.3 444.4 108.8 444.4 107C444.4 105.2 442.9 103.7 441.1 103.7Z" fill="#9468B4"/>
<path d="M452.8 121.8C452.4 121.8 452 121.5 452 121V117.6C452 117.2 452.3 116.8 452.8 116.8C453.2 116.8 453.6 117.1 453.6 117.6V121C453.6 121.5 453.2 121.8 452.8 121.8Z" fill="#BA68C8"/>
<path d="M452.8 127.7C452.4 127.7 452 127.4 452 126.9V123.5C452 123.1 452.3 122.7 452.8 122.7C453.2 122.7 453.6 123 453.6 123.5V126.9C453.6 127.4 453.2 127.7 452.8 127.7Z" fill="#BA68C8"/>
<path d="M457.5 123.1H454.5C454.1 123.1 453.7 122.8 453.7 122.3C453.7 121.9 454 121.5 454.5 121.5H457.5C457.9 121.5 458.3 121.8 458.3 122.3C458.3 122.7 458 123.1 457.5 123.1Z" fill="#BA68C8"/>
<path d="M451.1 123.1H448.1C447.7 123.1 447.3 122.8 447.3 122.3C447.3 121.9 447.6 121.5 448.1 121.5H451.1C451.5 121.5 451.9 121.8 451.9 122.3C451.9 122.7 451.5 123.1 451.1 123.1Z" fill="#BA68C8"/>
<path d="M426.9 116.3C426.5 116.3 426.1 116 426.1 115.5V112.1C426.1 111.7 426.4 111.3 426.9 111.3C427.3 111.3 427.7 111.6 427.7 112.1V115.5C427.6 116 427.3 116.3 426.9 116.3Z" fill="#9468B4"/>
<path d="M426.9 122.2C426.5 122.2 426.1 121.9 426.1 121.4V118C426.1 117.6 426.4 117.2 426.9 117.2C427.3 117.2 427.7 117.5 427.7 118V121.4C427.6 121.9 427.3 122.2 426.9 122.2Z" fill="#9468B4"/>
<path d="M431.6 117.6H428.6C428.2 117.6 427.8 117.3 427.8 116.8C427.8 116.4 428.1 116 428.6 116H431.6C432 116 432.4 116.3 432.4 116.8C432.3 117.3 432 117.6 431.6 117.6Z" fill="#9468B4"/>
<path d="M425.2 117.6H422.2C421.8 117.6 421.4 117.3 421.4 116.8C421.4 116.4 421.7 116 422.2 116H425.2C425.6 116 426 116.3 426 116.8C425.9 117.3 425.6 117.6 425.2 117.6Z" fill="#9468B4"/>
<path d="M20.6 198.8C20.6 201.5 18.4 203.7 15.7 203.7C13 203.7 10.8 201.5 10.8 198.8C10.8 196.1 13 193.9 15.7 193.9C18.4 194 20.6 196.1 20.6 198.8ZM12.4 198.8C12.4 200.6 13.9 202.1 15.7 202.1C17.5 202.1 19 200.6 19 198.8C19 197 17.5 195.5 15.7 195.5C13.9 195.5 12.4 197 12.4 198.8Z" fill="#BA68C8"/>
<path d="M25.5 174.1C25.5 176.8 23.3 179 20.6 179C17.9 179 15.7 176.8 15.7 174.1C15.7 171.4 17.9 169.2 20.6 169.2C23.3 169.3 25.5 171.4 25.5 174.1ZM17.3 174.1C17.3 175.9 18.8 177.4 20.6 177.4C22.4 177.4 23.9 175.9 23.9 174.1C23.9 172.3 22.4 170.8 20.6 170.8C18.8 170.8 17.3 172.3 17.3 174.1Z" fill="#9468B4"/>
<path d="M35.4 162.4C35.4 162.8 35.1 163.2 34.6 163.2H31.2C30.8 163.2 30.4 162.9 30.4 162.4C30.4 162 30.7 161.6 31.2 161.6H34.6C35.1 161.6 35.4 162 35.4 162.4Z" fill="#BA68C8"/>
<path d="M41.3 162.4C41.3 162.8 41 163.2 40.5 163.2H37.1C36.7 163.2 36.3 162.9 36.3 162.4C36.3 162 36.6 161.6 37.1 161.6H40.5C41 161.6 41.3 162 41.3 162.4Z" fill="#BA68C8"/>
<path d="M36.7 157.7V160.7C36.7 161.1 36.4 161.5 35.9 161.5C35.5 161.5 35.1 161.2 35.1 160.7V157.7C35.1 157.3 35.4 156.9 35.9 156.9C36.4 156.9 36.7 157.3 36.7 157.7Z" fill="#BA68C8"/>
<path d="M36.7 164.1V167.1C36.7 167.5 36.4 167.9 35.9 167.9C35.5 167.9 35.1 167.6 35.1 167.1V164.1C35.1 163.7 35.4 163.3 35.9 163.3C36.4 163.3 36.7 163.7 36.7 164.1Z" fill="#BA68C8"/>
<path d="M30 188.4C30 188.8 29.7 189.2 29.2 189.2H25.8C25.4 189.2 25 188.9 25 188.4C25 188 25.3 187.6 25.8 187.6H29.2C29.6 187.6 30 187.9 30 188.4Z" fill="#9468B4"/>
<path d="M35.8 188.4C35.8 188.8 35.5 189.2 35 189.2H31.6C31.2 189.2 30.8 188.9 30.8 188.4C30.8 188 31.1 187.6 31.6 187.6H35C35.5 187.6 35.8 187.9 35.8 188.4Z" fill="#9468B4"/>
<path d="M31.2 183.6V186.6C31.2 187 30.9 187.4 30.4 187.4C30 187.4 29.6 187.1 29.6 186.6V183.6C29.6 183.2 29.9 182.8 30.4 182.8C30.9 182.9 31.2 183.2 31.2 183.6Z" fill="#9468B4"/>
<path d="M31.2 190.1V193.1C31.2 193.5 30.9 193.9 30.4 193.9C30 193.9 29.6 193.6 29.6 193.1V190.1C29.6 189.7 29.9 189.3 30.4 189.3C30.9 189.3 31.2 189.6 31.2 190.1Z" fill="#9468B4"/>
<path d="M50.8 62.1002C50.6 61.1002 50.2 60.1002 49.6 59.2002C49.2 58.6002 48.7 58.1002 48.1 57.6002C44.7 54.8002 39.7 55.2002 36.9 58.6002C34.7 61.2002 34.5 64.8002 36.1 67.6002L27.1 78.4002C26.3 79.3002 26.5 80.7002 27.4 81.4002L28.4 82.3002C28.9 82.8002 29.6 83.1002 30.2 83.4002C30.8 83.7002 31.5 83.9002 32.2 84.0002C32.7 84.1002 33.1 83.9002 33.4 83.6002C33.7 83.3002 33.8 82.8002 33.6 82.4002L32.8 80.3002L35 80.7002C35.5 80.8002 35.9 80.6002 36.2 80.3002C36.5 80.0002 36.6 79.5002 36.4 79.1002L35.6 77.0002L37.8 77.4002C38.3 77.5002 38.7 77.3002 39 77.0002C39.3 76.7002 39.4 76.2002 39.2 75.8002L38.4 73.7002L40.3 71.4002C41.6 71.8002 42.9 71.9002 44.2 71.7002C46.1 71.4002 47.8 70.4002 49.1 68.8002C49.2 68.6002 49.4 68.5002 49.5 68.3002C49.6 68.1002 49.8 67.9002 49.9 67.7002C50.9 65.8002 51.1 63.9002 50.8 62.1002ZM42.3 60.3002C43.3 59.1002 45 59.0002 46.2 59.9002C46.4 60.0002 46.5 60.2002 46.6 60.4002C47.4 61.4002 47.4 62.8002 46.5 63.8002C46.4 63.9002 46.3 64.0002 46.2 64.1002C46 64.3002 45.7 64.5002 45.4 64.6002H45.3C45.1 64.7002 44.9 64.7002 44.7 64.7002C44.6 64.7002 44.6 64.7002 44.5 64.7002C44.4 64.7002 44.4 64.7002 44.3 64.7002C44.2 64.7002 44.2 64.7002 44.1 64.7002C44 64.7002 44 64.7002 43.9 64.7002C43.8 64.7002 43.8 64.7002 43.8 64.7002H43.7H43.6C43.5 64.7002 43.5 64.7002 43.4 64.6002C43.3 64.6002 43.2 64.5002 43.2 64.5002C43 64.4002 42.9 64.3002 42.7 64.2002C41.6 63.3002 41.4 61.8002 42.1 60.6002C42.1 60.5002 42.2 60.4002 42.3 60.3002Z" fill="#9468B4"/>
<path d="M37.5 71.8C37.7 71.9 37.7 72.2 37.5 72.3L30.5 80.8C30.4 81 30.1 81 30 80.8C29.8 80.7 29.8 80.4 30 80.3L37 71.8C37.1 71.7 37.4 71.6 37.5 71.8Z" fill="#BA68C8"/>
<path d="M35.9 70.5002C36.1 70.6002 36.1 70.9002 35.9 71.0002L28.9 79.5002C28.8 79.7002 28.5 79.7002 28.4 79.5002C28.2 79.4002 28.2 79.1002 28.4 79.0002L35.4 70.5002C35.6 70.4002 35.8 70.3002 35.9 70.5002Z" fill="#BA68C8"/>
<path d="M46.2 64.1001C46.1 64.2001 46.1 64.3001 46 64.4001C45.3 65.3001 44.2 65.6001 43.1 65.3001C42.7 65.2001 42.4 65.0001 42.1 64.8001C40.9 63.8001 40.8 62.1001 41.7 60.9001C41.8 60.8001 41.9 60.7001 42 60.6001C41.3 61.7001 41.5 63.3001 42.6 64.2001C42.8 64.3001 42.9 64.4001 43.1 64.5001C43.2 64.5001 43.2 64.6001 43.3 64.6001C43.4 64.6001 43.4 64.6001 43.5 64.7001H43.6H43.7H43.8C43.9 64.7001 43.9 64.7001 44 64.7001C44.1 64.7001 44.1 64.7001 44.2 64.7001C44.3 64.7001 44.3 64.7001 44.4 64.7001C44.5 64.7001 44.5 64.7001 44.6 64.7001C44.8 64.7001 45 64.6001 45.2 64.6001H45.3C45.7 64.5001 46 64.3001 46.2 64.1001Z" fill="#BA68C8"/>
<path d="M48.3 65.1002C48.3 65.0002 48.3 64.8002 48.3 64.7002C48.4 63.3002 49.5 62.2002 50.8 62.1002C50.6 61.1002 50.2 60.1002 49.6 59.2002C48.5 59.4002 47.5 59.8002 46.6 60.4002C47.4 61.4002 47.4 62.8002 46.5 63.8002C46.4 63.9002 46.3 64.0002 46.2 64.1002C46 64.3002 45.7 64.5002 45.4 64.6002H45.3C45.1 64.7002 44.9 64.7002 44.7 64.7002C44.6 64.7002 44.6 64.7002 44.5 64.7002C44.4 64.7002 44.4 64.7002 44.3 64.7002C44.2 64.7002 44.2 64.7002 44.1 64.7002C44 64.7002 44 64.7002 43.9 64.7002C43.8 64.7002 43.8 64.7002 43.8 64.7002H43.7H43.6C43.5 64.7002 43.5 64.7002 43.4 64.6002C43.3 64.8002 43.3 65.1002 43.2 65.3002C43.1 65.7002 43 66.2002 43 66.6002C42.9 68.4002 43.4 70.1002 44.4 71.5002C46.3 71.2002 48 70.2002 49.3 68.6002C49.4 68.4002 49.6 68.3002 49.7 68.1002C49.8 67.9002 50 67.7002 50.1 67.5002C49 67.1002 48.4 66.2002 48.3 65.1002Z" fill="#BA68C8"/>
<path d="M60.5 67.5998C60.6 63.2998 57.2 59.6998 53 59.4998C48.6 59.2998 44.8 62.5998 44.6 66.9998C44.4 70.3998 46.4 73.3998 49.3 74.6998L48.6 88.6998C48.5 89.8998 49.4 90.8998 50.6 90.9998L51.9 91.0998C52.6 91.0998 53.3 91.0998 54 90.8998C54.7 90.7998 55.4 90.4998 56 90.1998C56.4 89.9998 56.7 89.5998 56.7 89.0998C56.7 88.6998 56.5 88.1998 56.1 87.9998L54.3 86.7998L56.3 85.7998C56.7 85.5998 57 85.1998 57 84.6998C57 84.2998 56.8 83.7998 56.4 83.5998L54.6 82.3998L56.6 81.3998C57 81.1998 57.3 80.7998 57.3 80.2998C57.3 79.8998 57.1 79.3998 56.7 79.1998L54.9 77.9998L55.1 74.9998C58.2 73.9998 60.5 71.0998 60.5 67.5998ZM55.4 65.8998C55.1 67.1998 53.9 68.1998 52.5 68.0998C51.1 67.9998 50 66.8998 49.9 65.5998C49.9 65.4998 49.9 65.2998 49.9 65.1998C50 63.6998 51.3 62.4998 52.8 62.5998C54.3 62.6998 55.5 63.9998 55.4 65.4998C55.5 65.5998 55.5 65.6998 55.4 65.8998Z" fill="#9468B4"/>
<path d="M53.1 77.1997C53.3 77.1997 53.5 77.3997 53.4 77.5997L52.8 88.5997C52.8 88.7997 52.6 88.9997 52.4 88.8997C52.2 88.8997 52 88.6997 52.1 88.4997L52.7 77.4997C52.7 77.3997 52.9 77.1997 53.1 77.1997Z" fill="#BA68C8"/>
<path d="M51 77.0996C51.2 77.0996 51.4 77.2996 51.3 77.4996L50.7 88.4996C50.7 88.6996 50.5 88.8996 50.3 88.7996C50.1 88.7996 49.9 88.5996 50 88.3996L50.6 77.3996C50.7 77.2996 50.8 77.0996 51 77.0996Z" fill="#BA68C8"/>
<path d="M55.4 66.2996C55.3 67.7996 54 68.9996 52.5 68.8996C51 68.7996 49.8 67.4996 49.9 65.9996C49.9 65.8996 49.9 65.6996 50 65.5996C50.1 66.8996 51.2 67.9996 52.6 68.0996C54 68.1996 55.2 67.1996 55.5 65.8996C55.4 65.9996 55.4 66.0996 55.4 66.2996Z" fill="#BA68C8"/>
<path d="M54.7 49.1C50.1 47.1 44.7 49.3 42.7 53.9C42.4 54.5 42.3 55.1 42.1 55.7C43.2 55.6 44.4 55.7 45.5 56.1C45.6 55.8 45.7 55.5 45.8 55.2C47 52.3 50.4 51 53.3 52.2C56.2 53.4 57.5 56.8 56.3 59.7C56.2 59.9 56.1 60.1 56 60.3C57.1 60.8 58 61.6 58.7 62.5C59 62.1 59.2 61.6 59.4 61.1C61.5 56.5 59.3 51.1 54.7 49.1ZM53.5 62.7C52.7 63.1 51.8 63.3 50.9 63.2C50.2 63.2 49.5 63 48.9 62.7C48.3 62.4 47.7 62 47.2 61.6C47.2 61.6 47.2 61.6 47.1 61.5C46.5 61 46.1 60.3 45.8 59.6C44.7 58.9 43.2 59.1 42.3 60.1C42.8 61.8 43.8 63.3 45.2 64.5L45.3 64.6C45.4 64.7 45.5 64.7 45.5 64.8C46.1 65.2 46.7 65.6 47.4 65.9C48.2 66.2 49 66.5 49.8 66.6C49.9 66.6 50 66.6 50.1 66.6C50.1 66.6 50.1 66.6 50.2 66.6C52 66.7 53.8 66.3 55.3 65.5C55.3 65.5 55.3 65.5 55.3 65.4C55.6 64.2 54.7 63 53.5 62.7Z" fill="#3B3E7D"/>
<path d="M16.8 97.0004H14.7C14.2 97.0004 13.7 96.6004 13.7 96.0004V93.9004C13.7 93.4004 14.1 92.9004 14.7 92.9004C15.3 92.9004 15.7 93.3004 15.7 93.9004V95.0004H16.8C17.3 95.0004 17.8 95.4004 17.8 96.0004C17.8 96.6004 17.4 97.0004 16.8 97.0004Z" fill="#B4CAE3"/>
<path d="M73.5 97H69.3C68.8 97 68.3 96.6 68.3 96C68.3 95.4 68.7 95 69.3 95H73.5C74 95 74.5 95.4 74.5 96C74.5 96.6 74.1 97 73.5 97ZM65.4 97H61.2C60.7 97 60.2 96.6 60.2 96C60.2 95.4 60.6 95 61.2 95H65.4C65.9 95 66.4 95.4 66.4 96C66.4 96.6 66 97 65.4 97ZM57.3 97H53.1C52.6 97 52.1 96.6 52.1 96C52.1 95.4 52.5 95 53.1 95H57.3C57.8 95 58.3 95.4 58.3 96C58.3 96.6 57.9 97 57.3 97ZM49.2 97H45C44.5 97 44 96.6 44 96C44 95.4 44.4 95 45 95H49.2C49.7 95 50.2 95.4 50.2 96C50.2 96.6 49.8 97 49.2 97ZM41.1 97H37C36.5 97 36 96.6 36 96C36 95.4 36.4 95 37 95H41.2C41.7 95 42.2 95.4 42.2 96C42.2 96.6 41.7 97 41.1 97ZM33 97H28.8C28.3 97 27.8 96.6 27.8 96C27.8 95.4 28.2 95 28.8 95H33C33.5 95 34 95.4 34 96C34 96.6 33.6 97 33 97ZM24.9 97H20.7C20.2 97 19.7 96.6 19.7 96C19.7 95.4 20.1 95 20.7 95H24.9C25.4 95 25.9 95.4 25.9 96C25.9 96.6 25.5 97 24.9 97Z" fill="#B4CAE3"/>
<path d="M79.6 97.0004H77.5C77 97.0004 76.5 96.6004 76.5 96.0004C76.5 95.4004 76.9 95.0004 77.5 95.0004H78.6V93.9004C78.6 93.4004 79 92.9004 79.6 92.9004C80.2 92.9004 80.6 93.3004 80.6 93.9004V96.0004C80.5 96.5004 80.1 97.0004 79.6 97.0004Z" fill="#B4CAE3"/>
<path d="M79.6 91.1001C79.1 91.1001 78.6 90.7001 78.6 90.1001V86.1001C78.6 85.6001 79 85.1001 79.6 85.1001C80.2 85.1001 80.6 85.5001 80.6 86.1001V90.1001C80.5 90.7001 80.1 91.1001 79.6 91.1001ZM79.6 83.3001C79.1 83.3001 78.6 82.9001 78.6 82.3001V78.3001C78.6 77.8001 79 77.3001 79.6 77.3001C80.2 77.3001 80.6 77.7001 80.6 78.3001V82.3001C80.5 82.9001 80.1 83.3001 79.6 83.3001ZM79.6 75.5001C79.1 75.5001 78.6 75.1001 78.6 74.5001V70.5001C78.6 70.0001 79 69.5001 79.6 69.5001C80.2 69.5001 80.6 69.9001 80.6 70.5001V74.5001C80.5 75.1001 80.1 75.5001 79.6 75.5001ZM79.6 67.7001C79.1 67.7001 78.6 67.3001 78.6 66.7001V62.7001C78.6 62.2001 79 61.7001 79.6 61.7001C80.2 61.7001 80.6 62.1001 80.6 62.7001V66.7001C80.5 67.3001 80.1 67.7001 79.6 67.7001ZM79.6 59.9001C79.1 59.9001 78.6 59.5001 78.6 58.9001V54.9001C78.6 54.4001 79 53.9001 79.6 53.9001C80.2 53.9001 80.6 54.3001 80.6 54.9001V58.9001C80.5 59.5001 80.1 59.9001 79.6 59.9001ZM79.6 52.1001C79.1 52.1001 78.6 51.7001 78.6 51.1001V47.1001C78.6 46.6001 79 46.1001 79.6 46.1001C80.2 46.1001 80.6 46.5001 80.6 47.1001V51.1001C80.5 51.7001 80.1 52.1001 79.6 52.1001Z" fill="#B4CAE3"/>
<path d="M79.6 44.3002C79.1 44.3002 78.6 43.9002 78.6 43.3002V42.2002H77.5C77 42.2002 76.5 41.8002 76.5 41.2002C76.5 40.7002 76.9 40.2002 77.5 40.2002H79.6C80.1 40.2002 80.6 40.6002 80.6 41.2002V43.3002C80.5 43.9002 80.1 44.3002 79.6 44.3002Z" fill="#B4CAE3"/>
<path d="M73.5 42.3003H69.3C68.8 42.3003 68.3 41.9003 68.3 41.3003C68.3 40.8003 68.7 40.3003 69.3 40.3003H73.5C74 40.3003 74.5 40.7003 74.5 41.3003C74.5 41.8003 74.1 42.3003 73.5 42.3003ZM65.4 42.3003H61.2C60.7 42.3003 60.2 41.9003 60.2 41.3003C60.2 40.8003 60.6 40.3003 61.2 40.3003H65.4C65.9 40.3003 66.4 40.7003 66.4 41.3003C66.4 41.8003 66 42.3003 65.4 42.3003ZM57.3 42.3003H53.1C52.6 42.3003 52.1 41.9003 52.1 41.3003C52.1 40.8003 52.5 40.3003 53.1 40.3003H57.3C57.8 40.3003 58.3 40.7003 58.3 41.3003C58.3 41.8003 57.9 42.3003 57.3 42.3003ZM49.2 42.3003H45C44.5 42.3003 44 41.9003 44 41.3003C44 40.8003 44.4 40.3003 45 40.3003H49.2C49.7 40.3003 50.2 40.7003 50.2 41.3003C50.2 41.8003 49.8 42.3003 49.2 42.3003ZM41.1 42.3003H37C36.5 42.3003 36 41.9003 36 41.3003C36 40.8003 36.4 40.3003 37 40.3003H41.2C41.7 40.3003 42.2 40.7003 42.2 41.3003C42.1 41.8003 41.7 42.3003 41.1 42.3003ZM33 42.3003H28.8C28.3 42.3003 27.8 41.9003 27.8 41.3003C27.8 40.8003 28.2 40.3003 28.8 40.3003H33C33.5 40.3003 34 40.7003 34 41.3003C34 41.8003 33.6 42.3003 33 42.3003ZM24.9 42.3003H20.7C20.2 42.3003 19.7 41.9003 19.7 41.3003C19.7 40.8003 20.1 40.3003 20.7 40.3003H24.9C25.4 40.3003 25.9 40.7003 25.9 41.3003C25.9 41.8003 25.5 42.3003 24.9 42.3003Z" fill="#B4CAE3"/>
<path d="M14.7 44.3002C14.2 44.3002 13.7 43.9002 13.7 43.3002V41.2002C13.7 40.7002 14.1 40.2002 14.7 40.2002H16.8C17.3 40.2002 17.8 40.6002 17.8 41.2002C17.8 41.7002 17.4 42.2002 16.8 42.2002H15.7V43.3002C15.7 43.9002 15.3 44.3002 14.7 44.3002Z" fill="#B4CAE3"/>
<path d="M14.7 91.1001C14.2 91.1001 13.7 90.7001 13.7 90.1001V86.1001C13.7 85.6001 14.1 85.1001 14.7 85.1001C15.3 85.1001 15.7 85.5001 15.7 86.1001V90.1001C15.7 90.7001 15.3 91.1001 14.7 91.1001ZM14.7 83.3001C14.2 83.3001 13.7 82.9001 13.7 82.3001V78.3001C13.7 77.8001 14.1 77.3001 14.7 77.3001C15.3 77.3001 15.7 77.7001 15.7 78.3001V82.3001C15.7 82.9001 15.3 83.3001 14.7 83.3001ZM14.7 75.5001C14.2 75.5001 13.7 75.1001 13.7 74.5001V70.5001C13.7 70.0001 14.1 69.5001 14.7 69.5001C15.3 69.5001 15.7 69.9001 15.7 70.5001V74.5001C15.7 75.1001 15.3 75.5001 14.7 75.5001ZM14.7 67.7001C14.2 67.7001 13.7 67.3001 13.7 66.7001V62.7001C13.7 62.2001 14.1 61.7001 14.7 61.7001C15.3 61.7001 15.7 62.1001 15.7 62.7001V66.7001C15.7 67.3001 15.3 67.7001 14.7 67.7001ZM14.7 59.9001C14.2 59.9001 13.7 59.5001 13.7 58.9001V54.9001C13.7 54.4001 14.1 53.9001 14.7 53.9001C15.3 53.9001 15.7 54.3001 15.7 54.9001V58.9001C15.7 59.5001 15.3 59.9001 14.7 59.9001ZM14.7 52.1001C14.2 52.1001 13.7 51.7001 13.7 51.1001V47.1001C13.7 46.6001 14.1 46.1001 14.7 46.1001C15.3 46.1001 15.7 46.5001 15.7 47.1001V51.1001C15.7 51.7001 15.3 52.1001 14.7 52.1001Z" fill="#B4CAE3"/>
<path d="M107.5 110.5C107 110.5 106.5 110.1 106.5 109.5V105.3C106.5 104.8 106.9 104.3 107.5 104.3C108.1 104.3 108.5 104.7 108.5 105.3V109.5C108.5 110.1 108.1 110.5 107.5 110.5ZM107.5 102.4C107 102.4 106.5 102 106.5 101.4V97.2002C106.5 96.7002 106.9 96.2002 107.5 96.2002C108.1 96.2002 108.5 96.6002 108.5 97.2002V101.4C108.5 101.9 108.1 102.4 107.5 102.4ZM107.5 94.2002C107 94.2002 106.5 93.8002 106.5 93.2002V89.0002C106.5 88.5002 106.9 88.0002 107.5 88.0002C108.1 88.0002 108.5 88.4002 108.5 89.0002V93.2002C108.5 93.8002 108.1 94.2002 107.5 94.2002ZM107.5 86.1002C107 86.1002 106.5 85.7002 106.5 85.1002V80.9002C106.5 80.4002 106.9 79.9002 107.5 79.9002C108.1 79.9002 108.5 80.3002 108.5 80.9002V85.1002C108.5 85.6002 108.1 86.1002 107.5 86.1002ZM107.5 77.9002C107 77.9002 106.5 77.5002 106.5 76.9002V72.7002C106.5 72.2002 106.9 71.7002 107.5 71.7002C108.1 71.7002 108.5 72.1002 108.5 72.7002V76.9002C108.5 77.5002 108.1 77.9002 107.5 77.9002ZM104.1 73.2002H99.9C99.4 73.2002 98.9 72.8002 98.9 72.2002C98.9 71.6002 99.3 71.2002 99.9 71.2002H104.1C104.6 71.2002 105.1 71.6002 105.1 72.2002C105.1 72.8002 104.7 73.2002 104.1 73.2002ZM96 73.2002H91.8C91.3 73.2002 90.8 72.8002 90.8 72.2002C90.8 71.6002 91.2 71.2002 91.8 71.2002H96C96.5 71.2002 97 71.6002 97 72.2002C97 72.8002 96.5 73.2002 96 73.2002ZM87.9 73.2002H83.7C83.2 73.2002 82.7 72.8002 82.7 72.2002C82.7 71.6002 83.1 71.2002 83.7 71.2002H87.9C88.4 71.2002 88.9 71.6002 88.9 72.2002C88.9 72.8002 88.4 73.2002 87.9 73.2002ZM79.7 73.2002C79.1 73.2002 78.6 72.8002 78.6 72.2002C78.6 71.6002 79 71.2002 79.6 71.2002H79.7C80.2 71.2002 80.7 71.6002 80.7 72.2002C80.7 72.8002 80.3 73.2002 79.7 73.2002Z" fill="#B4CAE3"/>
<path d="M325.1 67.4999L324.9 73.3999L330.4 73.5999C330.6 74.9999 331.1 76.3999 331.8 77.5999L327.9 81.2999L331.9 85.5999L335.6 82.0999C337.1 83.1999 338.7 83.8999 340.4 84.2999L340.2 89.7999L346.1 89.9999L346.3 84.2999C347.5 83.9999 348.6 83.5999 349.6 83.0999L353.3 86.9999L357.6 82.9999L354.1 79.2999C355.2 77.7999 355.9 76.1999 356.3 74.4999L361.1 74.5999L361.3 68.6999L356.3 68.5999C356 67.0999 355.4 65.6999 354.6 64.3999L358.3 60.8999L354.3 56.5999L350.4 60.2999C349 59.3999 347.4 58.7999 345.8 58.5999L346 53.0999L340.1 52.8999L339.9 58.8999C338.7 59.1999 337.5 59.7999 336.4 60.4999L332.9 56.7999L328.6 60.7999L332.3 64.6999C331.7 65.6999 331.2 66.7999 330.9 67.9999L325.1 67.4999ZM339.8 67.3999C342 65.3999 345.4 65.4999 347.4 67.5999C349.4 69.7999 349.3 73.1999 347.2 75.1999C345 77.1999 341.6 77.0999 339.6 74.9999C337.5 72.7999 337.6 69.3999 339.8 67.3999Z" fill="#BA68C8"/>
<path d="M344.3 79.6997C349 79.1997 352.5 74.8997 352 70.1997C351.5 65.4997 347.2 61.9997 342.5 62.4997C337.8 62.9997 334.3 67.2997 334.8 71.9997C335.4 76.7997 339.6 80.1997 344.3 79.6997ZM339.8 67.3997C342 65.3997 345.4 65.4997 347.4 67.5997C349.4 69.7997 349.3 73.1997 347.2 75.1997C345 77.1997 341.6 77.0997 339.6 74.9997C337.5 72.7997 337.6 69.3997 339.8 67.3997Z" fill="#9468B4"/>
<path d="M363.7 70L363.6 73.4L366.8 73.5C366.9 74.3 367.2 75.1 367.6 75.8L365.3 77.9L367.6 80.4L369.8 78.4C370.6 79 371.6 79.4 372.6 79.7L372.5 82.9L375.9 83L376 79.7C376.7 79.5 377.3 79.3 377.9 79L380 81.3L382.5 79L380.5 76.8C381.1 76 381.5 75 381.8 74L384.6 74.1L384.7 70.7L381.8 70.6C381.6 69.7 381.3 68.9 380.8 68.2L383 66.2L380.7 63.7L378.4 65.8C377.6 65.3 376.7 64.9 375.7 64.8L375.8 61.6L372.4 61.5L372.3 65C371.6 65.2 370.9 65.5 370.3 65.9L368.3 63.7L365.8 66L367.9 68.3C367.5 68.9 367.3 69.5 367.1 70.2L363.7 70ZM372.1 69.9C373.3 68.7 375.3 68.8 376.5 70C377.7 71.2 377.6 73.2 376.4 74.4C375.2 75.6 373.2 75.5 372 74.3C370.8 73.1 370.9 71.1 372.1 69.9Z" fill="#BA68C8"/>
<path d="M374.8 77.1002C377.5 76.8002 379.5 74.3002 379.2 71.6002C378.9 68.9002 376.4 66.9002 373.7 67.2002C371 67.5002 369 70.0002 369.3 72.7002C369.6 75.4002 372.1 77.4002 374.8 77.1002ZM372.1 69.9002C373.3 68.7002 375.3 68.8002 376.5 70.0002C377.7 71.2002 377.6 73.2002 376.4 74.4002C375.2 75.6002 373.2 75.5002 372 74.3002C370.8 73.1002 370.9 71.1002 372.1 69.9002Z" fill="#9468B4"/>
<path d="M400 96.9999H397.9C397.4 96.9999 396.9 96.5999 396.9 95.9999C396.9 95.3999 397.3 94.9999 397.9 94.9999H399V93.8999C399 93.3999 399.4 92.8999 400 92.8999C400.5 92.8999 401 93.2999 401 93.8999V95.9999C401 96.4999 400.5 96.9999 400 96.9999Z" fill="#B4CAE3"/>
<path d="M393.9 97H389.7C389.2 97 388.7 96.6 388.7 96C388.7 95.4 389.1 95 389.7 95H393.9C394.4 95 394.9 95.4 394.9 96C394.9 96.6 394.4 97 393.9 97ZM385.7 97H381.5C381 97 380.5 96.6 380.5 96C380.5 95.4 380.9 95 381.5 95H385.7C386.2 95 386.7 95.4 386.7 96C386.7 96.6 386.2 97 385.7 97ZM377.5 97H373.3C372.8 97 372.3 96.6 372.3 96C372.3 95.4 372.7 95 373.3 95H377.5C378 95 378.5 95.4 378.5 96C378.5 96.6 378 97 377.5 97ZM369.2 97H365C364.5 97 364 96.6 364 96C364 95.4 364.4 95 365 95H369.2C369.7 95 370.2 95.4 370.2 96C370.2 96.6 369.8 97 369.2 97ZM361 97H356.8C356.3 97 355.8 96.6 355.8 96C355.8 95.4 356.2 95 356.8 95H361C361.5 95 362 95.4 362 96C362 96.6 361.6 97 361 97ZM352.8 97H348.6C348.1 97 347.6 96.6 347.6 96C347.6 95.4 348 95 348.6 95H352.8C353.3 95 353.8 95.4 353.8 96C353.8 96.6 353.3 97 352.8 97ZM344.6 97H340.4C339.9 97 339.4 96.6 339.4 96C339.4 95.4 339.8 95 340.4 95H344.6C345.1 95 345.6 95.4 345.6 96C345.6 96.6 345.1 97 344.6 97ZM336.4 97H332.2C331.7 97 331.2 96.6 331.2 96C331.2 95.4 331.6 95 332.2 95H336.4C336.9 95 337.4 95.4 337.4 96C337.4 96.6 336.9 97 336.4 97ZM328.1 97H323.9C323.4 97 322.9 96.6 322.9 96C322.9 95.4 323.3 95 323.9 95H328.1C328.6 95 329.1 95.4 329.1 96C329.1 96.6 328.7 97 328.1 97ZM319.9 97H315.7C315.2 97 314.7 96.6 314.7 96C314.7 95.4 315.1 95 315.7 95H319.9C320.4 95 320.9 95.4 320.9 96C320.9 96.6 320.5 97 319.9 97Z" fill="#B4CAE3"/>
<path d="M311.7 96.9999H309.6C309.1 96.9999 308.6 96.5999 308.6 95.9999V93.8999C308.6 93.3999 309 92.8999 309.6 92.8999C310.2 92.8999 310.6 93.2999 310.6 93.8999V94.9999H311.7C312.2 94.9999 312.7 95.3999 312.7 95.9999C312.7 96.5999 312.2 96.9999 311.7 96.9999Z" fill="#B4CAE3"/>
<path d="M309.6 90.8002C309.1 90.8002 308.6 90.4002 308.6 89.8002V85.5002C308.6 85.0002 309 84.5002 309.6 84.5002C310.2 84.5002 310.6 84.9002 310.6 85.5002V89.8002C310.6 90.4002 310.1 90.8002 309.6 90.8002ZM309.6 82.5002C309.1 82.5002 308.6 82.1002 308.6 81.5002V77.2002C308.6 76.7002 309 76.2002 309.6 76.2002C310.2 76.2002 310.6 76.6002 310.6 77.2002V81.5002C310.6 82.1002 310.1 82.5002 309.6 82.5002ZM309.6 74.2002C309.1 74.2002 308.6 73.8002 308.6 73.2002V68.9002C308.6 68.4002 309 67.9002 309.6 67.9002C310.2 67.9002 310.6 68.3002 310.6 68.9002V73.2002C310.6 73.7002 310.1 74.2002 309.6 74.2002ZM309.6 65.8002C309.1 65.8002 308.6 65.4002 308.6 64.8002V60.5002C308.6 60.0002 309 59.5002 309.6 59.5002C310.2 59.5002 310.6 59.9002 310.6 60.5002V64.8002C310.6 65.4002 310.1 65.8002 309.6 65.8002ZM309.6 57.5002C309.1 57.5002 308.6 57.1002 308.6 56.5002V52.2002C308.6 51.7002 309 51.2002 309.6 51.2002C310.2 51.2002 310.6 51.6002 310.6 52.2002V56.5002C310.6 57.1002 310.1 57.5002 309.6 57.5002Z" fill="#B4CAE3"/>
<path d="M309.6 49.2001C309.1 49.2001 308.6 48.8001 308.6 48.2001V46.1001C308.6 45.6001 309 45.1001 309.6 45.1001H311.7C312.2 45.1001 312.7 45.5001 312.7 46.1001C312.7 46.7001 312.3 47.1001 311.7 47.1001H310.6V48.2001C310.6 48.7001 310.1 49.2001 309.6 49.2001Z" fill="#B4CAE3"/>
<path d="M393.9 47.1001H389.7C389.2 47.1001 388.7 46.7001 388.7 46.1001C388.7 45.5001 389.1 45.1001 389.7 45.1001H393.9C394.4 45.1001 394.9 45.5001 394.9 46.1001C394.9 46.7001 394.4 47.1001 393.9 47.1001ZM385.7 47.1001H381.5C381 47.1001 380.5 46.7001 380.5 46.1001C380.5 45.5001 380.9 45.1001 381.5 45.1001H385.7C386.2 45.1001 386.7 45.5001 386.7 46.1001C386.7 46.7001 386.2 47.1001 385.7 47.1001ZM377.5 47.1001H373.3C372.8 47.1001 372.3 46.7001 372.3 46.1001C372.3 45.5001 372.7 45.1001 373.3 45.1001H377.5C378 45.1001 378.5 45.5001 378.5 46.1001C378.5 46.7001 378 47.1001 377.5 47.1001ZM369.2 47.1001H365C364.5 47.1001 364 46.7001 364 46.1001C364 45.5001 364.4 45.1001 365 45.1001H369.2C369.7 45.1001 370.2 45.5001 370.2 46.1001C370.2 46.7001 369.8 47.1001 369.2 47.1001ZM361 47.1001H356.8C356.3 47.1001 355.8 46.7001 355.8 46.1001C355.8 45.5001 356.2 45.1001 356.8 45.1001H361C361.5 45.1001 362 45.5001 362 46.1001C362 46.7001 361.6 47.1001 361 47.1001ZM352.8 47.1001H348.6C348.1 47.1001 347.6 46.7001 347.6 46.1001C347.6 45.5001 348 45.1001 348.6 45.1001H352.8C353.3 45.1001 353.8 45.5001 353.8 46.1001C353.8 46.7001 353.3 47.1001 352.8 47.1001ZM344.6 47.1001H340.4C339.9 47.1001 339.4 46.7001 339.4 46.1001C339.4 45.5001 339.8 45.1001 340.4 45.1001H344.6C345.1 45.1001 345.6 45.5001 345.6 46.1001C345.6 46.7001 345.1 47.1001 344.6 47.1001ZM336.4 47.1001H332.2C331.7 47.1001 331.2 46.7001 331.2 46.1001C331.2 45.5001 331.6 45.1001 332.2 45.1001H336.4C336.9 45.1001 337.4 45.5001 337.4 46.1001C337.4 46.7001 336.9 47.1001 336.4 47.1001ZM328.1 47.1001H323.9C323.4 47.1001 322.9 46.7001 322.9 46.1001C322.9 45.5001 323.3 45.1001 323.9 45.1001H328.1C328.6 45.1001 329.1 45.5001 329.1 46.1001C329.1 46.7001 328.7 47.1001 328.1 47.1001ZM319.9 47.1001H315.7C315.2 47.1001 314.7 46.7001 314.7 46.1001C314.7 45.5001 315.1 45.1001 315.7 45.1001H319.9C320.4 45.1001 320.9 45.5001 320.9 46.1001C320.9 46.7001 320.5 47.1001 319.9 47.1001Z" fill="#B4CAE3"/>
<path d="M400 49.2001C399.5 49.2001 399 48.8001 399 48.2001V47.1001H397.9C397.4 47.1001 396.9 46.7001 396.9 46.1001C396.9 45.5001 397.3 45.1001 397.9 45.1001H400C400.5 45.1001 401 45.5001 401 46.1001V48.2001C401 48.7001 400.5 49.2001 400 49.2001Z" fill="#B4CAE3"/>
<path d="M400 90.8002C399.5 90.8002 399 90.4002 399 89.8002V85.5002C399 85.0002 399.4 84.5002 400 84.5002C400.5 84.5002 401 84.9002 401 85.5002V89.8002C401 90.4002 400.5 90.8002 400 90.8002ZM400 82.5002C399.5 82.5002 399 82.1002 399 81.5002V77.2002C399 76.7002 399.4 76.2002 400 76.2002C400.5 76.2002 401 76.6002 401 77.2002V81.5002C401 82.1002 400.5 82.5002 400 82.5002ZM400 74.2002C399.5 74.2002 399 73.8002 399 73.2002V68.9002C399 68.4002 399.4 67.9002 400 67.9002C400.5 67.9002 401 68.3002 401 68.9002V73.2002C401 73.7002 400.5 74.2002 400 74.2002ZM400 65.8002C399.5 65.8002 399 65.4002 399 64.8002V60.5002C399 60.0002 399.4 59.5002 400 59.5002C400.5 59.5002 401 59.9002 401 60.5002V64.8002C401 65.4002 400.5 65.8002 400 65.8002ZM400 57.5002C399.5 57.5002 399 57.1002 399 56.5002V52.2002C399 51.7002 399.4 51.2002 400 51.2002C400.5 51.2002 401 51.6002 401 52.2002V56.5002C401 57.1002 400.5 57.5002 400 57.5002Z" fill="#B4CAE3"/>
<path d="M281.7 110.5C281.2 110.5 280.7 110.1 280.7 109.5V105.3C280.7 104.8 281.1 104.3 281.7 104.3C282.2 104.3 282.7 104.7 282.7 105.3V109.5C282.7 110.1 282.3 110.5 281.7 110.5ZM281.7 102.4C281.2 102.4 280.7 102 280.7 101.4V97.2C280.7 96.7 281.1 96.2 281.7 96.2C282.2 96.2 282.7 96.6 282.7 97.2V101.4C282.7 101.9 282.3 102.4 281.7 102.4ZM281.7 94.2C281.2 94.2 280.7 93.8 280.7 93.2V89C280.7 88.5 281.1 88 281.7 88C282.2 88 282.7 88.4 282.7 89V93.2C282.7 93.8 282.3 94.2 281.7 94.2ZM281.7 86.1C281.2 86.1 280.7 85.7 280.7 85.1V80.9C280.7 80.4 281.1 79.9 281.7 79.9C282.2 79.9 282.7 80.3 282.7 80.9V85.1C282.7 85.6 282.3 86.1 281.7 86.1ZM281.7 77.9C281.2 77.9 280.7 77.5 280.7 76.9V72.7C280.7 72.2 281.1 71.7 281.7 71.7C282.2 71.7 282.7 72.1 282.7 72.7V76.9C282.7 77.5 282.3 77.9 281.7 77.9ZM309.6 72.5H308.9C308.4 72.5 307.9 72.1 307.9 71.5C307.9 70.9 308.3 70.5 308.9 70.5H309.6C310.1 70.5 310.6 70.9 310.6 71.5C310.6 72.1 310.1 72.5 309.6 72.5ZM304.9 72.5H300.7C300.2 72.5 299.7 72.1 299.7 71.5C299.7 70.9 300.1 70.5 300.7 70.5H304.9C305.4 70.5 305.9 70.9 305.9 71.5C305.9 72.1 305.5 72.5 304.9 72.5ZM296.8 72.5H292.6C292.1 72.5 291.6 72.1 291.6 71.5C291.6 70.9 292 70.5 292.6 70.5H296.8C297.3 70.5 297.8 70.9 297.8 71.5C297.8 72.1 297.3 72.5 296.8 72.5ZM288.6 72.5H284.4C283.9 72.5 283.4 72.1 283.4 71.5C283.4 70.9 283.8 70.5 284.4 70.5H288.6C289.1 70.5 289.6 70.9 289.6 71.5C289.6 72.1 289.2 72.5 288.6 72.5Z" fill="#B4CAE3"/>
<path d="M33.4 186.6L33.3 186.7L33.4 186.6Z" fill="#9468B4"/>
<path d="M401.5 115.5V303.6C401.5 311.4 395.2 317.6 387.5 317.6H66.9C59.1 317.6 52.9 311.3 52.9 303.6V115.5C52.9 107.7 59.2 101.5 66.9 101.5H387.4C395.2 101.5 401.5 107.8 401.5 115.5Z" fill="#3B3E7D"/>
<path d="M401.5 213.3V303.5C401.5 311.3 395.2 317.5 387.5 317.5H66.9C59.1 317.5 52.9 311.2 52.9 303.5V213.3H401.5Z" fill="#18285D"/>
<path d="M386 125.1V294C386 299 382 303 377 303H77.4C75.3 303 73.4 302.3 71.8 301.1C71.4 300.8 71 300.4 70.7 300C69.3 298.4 68.4 296.3 68.4 294V125.1C68.4 120.1 72.4 116.1 77.4 116.1H377C378.7 116.1 380.2 116.5 381.6 117.3C382.9 118 383.9 119.1 384.7 120.3C385.5 121.7 386 123.3 386 125.1Z" fill="white"/>
<path d="M434 310.1V311.3C434 317.3 432.1 322.8 428.8 327.3C423.8 334.2 415.7 338.6 406.6 338.6H47.6C38.5 338.6 30.4 334.1 25.4 327.3C22.1 322.8 20.2 317.3 20.2 311.3V310.1H434Z" fill="#021147"/>
<path d="M180.8 310.1V310.4C180.8 312.6 182.3 314.3 184 314.3H268.5C270.3 314.3 271.7 312.5 271.7 310.4V310.1H180.8Z" fill="white"/>
<path d="M386 125.1V135.1H68.4V125.1C68.4 123.2 69 121.4 70 119.9C71.6 117.6 74.3 116 77.4 116H377C380.1 116 382.8 117.5 384.4 119.9C385.4 121.4 386 123.1 386 125.1Z" fill="#D9E4F5"/>
<path d="M309.3 128.6H140.8C140.4 128.6 140 128.3 140 127.8V124.3C140 123.9 140.3 123.5 140.8 123.5H309.3C309.7 123.5 310.1 123.8 310.1 124.3V127.8C310 128.2 309.7 128.6 309.3 128.6Z" fill="white"/>
<path d="M99.4 126V127.9C99.4 128.4 98.8 128.8 98.4 128.5L96.8 127.6L95.2 126.7C94.7 126.4 94.7 125.8 95.2 125.5L96.8 124.6L98.4 123.7C98.9 123.4 99.4 123.8 99.4 124.3V126Z" fill="#3B3E7D"/>
<path d="M107.9 126V127.9C107.9 128.4 108.5 128.8 108.9 128.5L110.5 127.6L112.1 126.7C112.6 126.4 112.6 125.8 112.1 125.5L110.5 124.6L108.9 123.7C108.4 123.4 107.9 123.8 107.9 124.3V126Z" fill="#3B3E7D"/>
<path d="M384.4 119.9H70C71.6 117.6 74.3 116 77.4 116H377C380 116.1 382.7 117.6 384.4 119.9Z" fill="#B9D2F0"/>
<path d="M258.8 92.6999H178C172.5 92.6999 168.1 88.2999 168.1 82.7999V80.7999C168.1 75.2999 172.5 70.8999 178 70.8999H258.8C264.3 70.8999 268.7 75.2999 268.7 80.7999V82.7999C268.7 88.2999 264.3 92.6999 258.8 92.6999Z" fill="#BA68C8"/>
<path d="M257.9 75.2998C254.3 75.2998 251.4 78.1998 251.4 81.7998C251.4 85.3998 254.3 88.2998 257.9 88.2998C261.5 88.2998 264.4 85.3998 264.4 81.7998C264.4 78.1998 261.5 75.2998 257.9 75.2998ZM258.2 84.1998V81.8998H261.1C261.1 82.6998 261 83.4998 260.8 84.1998H258.2ZM260 86.7998C260.5 86.1998 260.9 85.4998 261.1 84.6998H263.1C262.3 86.1998 260.9 87.1998 259.2 87.5998C259.5 87.3998 259.8 87.0998 260 86.7998ZM260.6 84.6998C260.4 85.2998 260 85.8998 259.6 86.3998C259 87.1998 258.4 87.5998 258.2 87.6998V84.6998H260.6ZM258.2 78.5998V75.7998C258.3 75.7998 258.4 75.7998 258.4 75.7998C258.7 76.0998 259.7 76.9998 260.4 78.5998H258.2ZM261 78.5998C260.8 77.9998 260.5 77.4998 260.1 76.9998C259.8 76.5998 259.6 76.2998 259.3 75.9998C260.8 76.3998 262.1 77.2998 262.9 78.5998H261ZM258.2 81.3998V79.0998H260.7C261 79.7998 261.1 80.5998 261.2 81.3998H258.2ZM261.7 81.3998C261.7 80.5998 261.5 79.8998 261.3 79.0998H263.3C263.7 79.7998 263.9 80.5998 263.9 81.3998H261.7ZM263.9 81.8998C263.9 82.6998 263.7 83.4998 263.4 84.1998H261.3C261.5 83.4998 261.6 82.6998 261.6 81.8998H263.9ZM254.6 84.1998H252.5C252.2 83.4998 252 82.6998 252 81.8998H254.3C254.3 82.6998 254.4 83.4998 254.6 84.1998ZM255.5 78.5998C255.7 78.1998 255.9 77.6998 256.2 77.2998C256.7 76.4998 257.3 75.9998 257.5 75.7998C257.6 75.7998 257.6 75.7998 257.7 75.7998V78.5998H255.5ZM257.7 79.1998V81.4998H254.8C254.8 80.6998 255 79.9998 255.2 79.1998H257.7ZM252.9 78.5998C253.7 77.2998 255.1 76.2998 256.6 75.9998C256.3 76.2998 256 76.6998 255.8 76.9998C255.5 77.4998 255.2 77.9998 254.9 78.5998H252.9ZM257.7 81.8998V84.1998H255.2C255 83.4998 254.9 82.6998 254.9 81.8998H257.7ZM252 81.3998C252.1 80.5998 252.3 79.7998 252.6 79.0998H254.7C254.5 79.7998 254.3 80.5998 254.3 81.3998H252ZM254.8 84.6998C255.1 85.4998 255.5 86.1998 255.9 86.7998C256.1 87.0998 256.4 87.3998 256.7 87.6998C255 87.2998 253.6 86.2998 252.7 84.7998H254.8V84.6998ZM257.7 84.6998V87.6998C257.3 87.4998 256.1 86.5998 255.4 84.6998H257.7Z" fill="white"/>
<path d="M241.6 75.5999C245 75.5999 247.8 78.3999 247.8 81.7999C247.8 85.1999 245 87.9999 241.6 87.9999H179.2C175.8 87.9999 173 85.1999 173 81.7999C173 78.3999 175.8 75.5999 179.2 75.5999H241.6ZM241.6 74.8999H179.2C175.4 74.8999 172.4 77.9999 172.4 81.6999C172.4 85.4999 175.5 88.4999 179.2 88.4999H241.6C245.4 88.4999 248.4 85.3999 248.4 81.6999C248.4 77.9999 245.3 74.8999 241.6 74.8999Z" fill="white"/>
<path d="M351.4 157V270.6C351.4 274.6 348.1 277.9 344.1 277.9H113.4C109.4 277.9 106.1 274.6 106.1 270.6V157C106.1 153 109.4 149.7 113.4 149.7H344.1C348.1 149.7 351.4 153 351.4 157Z" fill="#D9E4F5"/>
<path d="M351.4 157V162.3H106.1V157C106.1 153 109.4 149.7 113.4 149.7H344.1C348.1 149.7 351.4 153 351.4 157Z" fill="#B4CAE3"/>
<path d="M327.8 155.9C327.8 157.3 326.7 158.4 325.3 158.4C323.9 158.4 322.8 157.3 322.8 155.9C322.8 154.5 323.9 153.4 325.3 153.4C326.7 153.5 327.8 154.6 327.8 155.9Z" fill="#3B3E7D"/>
<path d="M335.8 155.9C335.8 157.3 334.7 158.4 333.3 158.4C331.9 158.4 330.8 157.3 330.8 155.9C330.8 154.5 331.9 153.4 333.3 153.4C334.7 153.5 335.8 154.6 335.8 155.9Z" fill="#9468B4"/>
<path d="M343.7 155.9C343.7 157.3 342.6 158.4 341.2 158.4C339.8 158.4 338.7 157.3 338.7 155.9C338.7 154.5 339.8 153.4 341.2 153.4C342.6 153.5 343.7 154.6 343.7 155.9Z" fill="#BA68C8"/>
<path d="M137.5 199.1H122.4C119.8 199.1 117.8 197 117.8 194.5V179.4C117.8 176.8 119.9 174.8 122.4 174.8H137.5C140.1 174.8 142.1 176.9 142.1 179.4V194.5C142.1 197 140 199.1 137.5 199.1Z" fill="#B4CAE3"/>
<path d="M134.2 195.6H119.1C116.5 195.6 114.5 193.5 114.5 191V175.9C114.5 173.3 116.6 171.3 119.1 171.3H134.2C136.8 171.3 138.8 173.4 138.8 175.9V191C138.9 193.5 136.8 195.6 134.2 195.6Z" fill="#BA68C8"/>
<path d="M131.2 181.2L124.6 183.5L131.2 185.8V189.5L120 185.4V181.5L131.2 177.4V181.2Z" fill="white"/>
<path d="M177.6 199.1H162.5C159.9 199.1 157.9 197 157.9 194.5V179.4C157.9 176.8 160 174.8 162.5 174.8H177.6C180.2 174.8 182.2 176.9 182.2 179.4V194.5C182.2 197 180.2 199.1 177.6 199.1Z" fill="#B4CAE3"/>
<path d="M174.4 195.6H159.3C156.7 195.6 154.7 193.5 154.7 191V175.9C154.7 173.3 156.8 171.3 159.3 171.3H174.4C177 171.3 179 173.4 179 175.9V191C179 193.5 176.9 195.6 174.4 195.6Z" fill="#BA68C8"/>
<path d="M167.5 175.6H170.9L165.4 191.4H162L167.5 175.6Z" fill="white"/>
<path d="M216.3 199.1H201.2C198.6 199.1 196.6 197 196.6 194.5V179.4C196.6 176.8 198.7 174.8 201.2 174.8H216.3C218.9 174.8 220.9 176.9 220.9 179.4V194.5C220.9 197 218.9 199.1 216.3 199.1Z" fill="#B4CAE3"/>
<path d="M213.1 195.6H198C195.4 195.6 193.4 193.5 193.4 191V175.9C193.4 173.3 195.5 171.3 198 171.3H213.1C215.7 171.3 217.7 173.4 217.7 175.9V191C217.7 193.5 215.7 195.6 213.1 195.6Z" fill="#BA68C8"/>
<path d="M200.1 177.5L211.3 181.6V185.5L200.1 189.6V185.9L206.7 183.6L200.1 181.3V177.5Z" fill="white"/>
<path d="M336.9 267.3H321.8C319.2 267.3 317.2 265.2 317.2 262.7V247.6C317.2 245 319.3 243 321.8 243H336.9C339.5 243 341.5 245.1 341.5 247.6V262.7C341.5 265.2 339.4 267.3 336.9 267.3Z" fill="#B4CAE3"/>
<path d="M333.6 263.8H318.5C315.9 263.8 313.9 261.7 313.9 259.2V244.1C313.9 241.5 316 239.5 318.5 239.5H333.6C336.2 239.5 338.2 241.6 338.2 244.1V259.2C338.3 261.7 336.2 263.8 333.6 263.8Z" fill="#BA68C8"/>
<path d="M325.9 243.7C321.5 243.7 318 247.3 318 251.6C318 256 321.6 259.5 325.9 259.5C330.3 259.5 333.8 255.9 333.8 251.6C333.8 247.3 330.3 243.7 325.9 243.7ZM326.2 254.6V251.8H329.8C329.8 252.8 329.6 253.7 329.4 254.6H326.2ZM328.4 257.8C329 257.1 329.4 256.2 329.8 255.3H332.2C331.2 257.1 329.5 258.4 327.5 258.8C327.8 258.5 328.2 258.1 328.4 257.8ZM329.1 255.2C328.8 256 328.4 256.7 327.9 257.3C327.1 258.3 326.4 258.8 326.1 258.9V255.2H329.1ZM326.2 247.8V244.4C326.3 244.4 326.4 244.4 326.5 244.4C326.9 244.7 328.1 245.9 329 247.8H326.2ZM329.7 247.8C329.4 247.1 329.1 246.5 328.6 245.9C328.3 245.5 328 245 327.6 244.7C329.4 245.1 331 246.3 332 247.9H329.7V247.8ZM326.2 251.2V248.4H329.2C329.5 249.3 329.7 250.2 329.8 251.2H326.2ZM330.4 251.2C330.4 250.3 330.2 249.3 329.9 248.4H332.4C332.8 249.3 333.1 250.2 333.2 251.2H330.4ZM333.2 251.8C333.2 252.8 333 253.7 332.6 254.6H330C330.2 253.7 330.4 252.8 330.4 251.8H333.2ZM321.8 254.6H319.2C318.8 253.7 318.6 252.8 318.6 251.8H321.4C321.4 252.8 321.6 253.7 321.8 254.6ZM322.9 247.8C323.1 247.3 323.4 246.7 323.8 246.2C324.5 245.2 325.1 244.6 325.4 244.4C325.5 244.4 325.5 244.4 325.6 244.4V247.8H322.9ZM325.6 248.4V251.2H322.1C322.1 250.3 322.3 249.3 322.6 248.4H325.6ZM319.7 247.8C320.7 246.2 322.4 245 324.2 244.6C323.8 245 323.5 245.4 323.2 245.9C322.8 246.5 322.4 247.2 322.1 247.8H319.7ZM325.6 251.8V254.6H322.5C322.2 253.7 322.1 252.8 322.1 251.8H325.6ZM318.6 251.2C318.7 250.2 318.9 249.3 319.4 248.4H322C321.7 249.3 321.5 250.2 321.5 251.2H318.6ZM322 255.2C322.3 256.1 322.8 257 323.4 257.7C323.7 258.1 324 258.4 324.4 258.7C322.4 258.3 320.6 257 319.6 255.1H322V255.2ZM325.6 255.2V258.9C325.1 258.6 323.6 257.5 322.7 255.2H325.6Z" fill="white"/>
<path d="M218.2 212.1H117.3C115.8 212.1 114.5 210.8 114.5 209.3C114.5 207.8 115.8 206.5 117.3 206.5H218.1C219.6 206.5 220.9 207.8 220.9 209.3C220.9 210.9 219.7 212.1 218.2 212.1Z" fill="#B4CAE3"/>
<path d="M218.2 222.5H117.3C115.8 222.5 114.5 221.2 114.5 219.7C114.5 218.2 115.8 216.9 117.3 216.9H218.1C219.6 216.9 220.9 218.2 220.9 219.7C220.9 221.2 219.7 222.5 218.2 222.5Z" fill="#B4CAE3"/>
<path d="M218.2 232.8H117.3C115.8 232.8 114.5 231.5 114.5 230C114.5 228.5 115.8 227.2 117.3 227.2H218.1C219.6 227.2 220.9 228.5 220.9 230C220.9 231.6 219.7 232.8 218.2 232.8Z" fill="#B4CAE3"/>
<path d="M218.2 243.2H117.3C115.8 243.2 114.5 241.9 114.5 240.4C114.5 238.9 115.8 237.6 117.3 237.6H218.1C219.6 237.6 220.9 238.9 220.9 240.4C220.9 242 219.7 243.2 218.2 243.2Z" fill="#B4CAE3"/>
<path d="M218.2 253.6H117.3C115.8 253.6 114.5 252.3 114.5 250.8C114.5 249.3 115.8 248 117.3 248H218.1C219.6 248 220.9 249.3 220.9 250.8C220.9 252.3 219.7 253.6 218.2 253.6Z" fill="#B4CAE3"/>
<path d="M218.2 263.9H117.3C115.8 263.9 114.5 262.6 114.5 261.1C114.5 259.6 115.8 258.3 117.3 258.3H218.1C219.6 258.3 220.9 259.6 220.9 261.1C220.9 262.7 219.7 263.9 218.2 263.9Z" fill="#B4CAE3"/>
<path d="M304.7 237.6H236C234.5 237.6 233.1 238.8 233.1 240.3C233.1 241.9 234.3 243.2 235.9 243.2H304.7C306.2 243.2 307.5 241.9 307.5 240.4C307.5 238.9 306.3 237.6 304.7 237.6Z" fill="#B4CAE3"/>
<path d="M304.7 248H236C234.5 248 233.1 249.2 233.1 250.7C233.1 252.3 234.3 253.6 235.9 253.6H304.7C306.2 253.6 307.5 252.3 307.5 250.8C307.5 249.2 306.3 248 304.7 248Z" fill="#B4CAE3"/>
<path d="M304.7 258.3H236C234.5 258.3 233.1 259.5 233.1 261C233.1 262.6 234.3 263.9 235.9 263.9H304.7C306.2 263.9 307.5 262.6 307.5 261.1C307.5 259.6 306.3 258.3 304.7 258.3Z" fill="#B4CAE3"/>
<path d="M338.3 174.7V226.6C338.3 226.7 338.3 226.8 338.3 226.9C338.2 227.5 338.1 228 337.8 228.5C337.2 229.4 336.3 230 335.2 230H236C234.8 230 233.8 229.2 233.3 228.1C233.1 227.6 233 227.1 233 226.6V174.7C233 174.3 233.1 173.9 233.2 173.5C233.4 173 233.7 172.5 234.1 172.1C234.6 171.6 235.3 171.3 236.1 171.3H335.3C335.9 171.3 336.5 171.5 337 171.8C337.4 172.1 337.8 172.6 338.1 173.1C338.1 173.6 338.3 174.2 338.3 174.7Z" fill="#B4CAE3"/>
<path d="M338.2 227C338.1 227.6 338 228.1 337.7 228.6L285.1 200.9L283.3 200L233 173.6C233.2 173.1 233.5 172.6 233.9 172.2L285.1 199.1L286.9 200L338.2 227Z" fill="#D9E4F5"/>
<path d="M337.9 173.1L286.9 199.9L285.1 200.8L233.2 228.1C233 227.6 232.9 227.1 232.9 226.6V226.5L283.4 200L285.2 199.1L336.9 171.9C337.3 172.2 337.7 172.6 337.9 173.1Z" fill="#D9E4F5"/>
<path opacity="0.15" d="M78.1 409C100.468 409 118.6 405.463 118.6 401.1C118.6 396.737 100.468 393.2 78.1 393.2C55.7325 393.2 37.6 396.737 37.6 401.1C37.6 405.463 55.7325 409 78.1 409Z" fill="#D9E4F5"/>
<path d="M55.3 268.9L49.5 272.5C47 270.9 44.2 270 41.3 269.8C40.8 268.4 40.5 266.8 40.5 265C40.5 250.6 51.8 224.1 51.8 224.1L50.8 253.8C50 261.3 52.4 266 55.3 268.9Z" fill="#9468B4"/>
<path d="M71.9 258.7L49.5 272.5C43.9 269 36.6 268.8 30.6 272.5C23.1 277.1 20.2 286.3 23.3 294.2C23.7 295.2 24.2 296.2 24.8 297.2C30 305.6 41 308.2 49.4 303C52.4 301.2 54.6 298.6 56.1 295.6C57.5 292.7 58.1 289.4 57.9 286.1L136.7 237.5L137.6 239L157 238.4L166.2 221.4L166.3 221.3L164.7 218.2L159.7 220.7L158.7 221.2L157.9 221.5L152.6 231.2L141.5 231.5L138.6 226.8L135.7 222.1L135.9 221.8L141 212.4L152.1 212.1L156.1 204.7L152.8 204.8L136.7 205.3L127.5 222.4L128.4 223.9L71.9 258.7ZM44.7 279.1L48.1 284.5L49.9 287.3L45.3 295.9L35.6 296.2L30.5 287.9L30.7 287.6L35.2 279.3L44.7 279.1Z" fill="#9468B4"/>
<path d="M71.9 258.7L49.5 272.5C43.9 269 36.6 268.8 30.6 272.5C23.1 277.1 20.2 286.3 23.3 294.2C28.5 302.5 39.5 305 47.8 299.9C50.8 298.1 53 295.5 54.5 292.5C55.9 289.6 56.5 286.3 56.3 283L135.1 234.4L136 235.9L155.4 235.3L162.9 221.4L164.6 218.2L156.2 218.4L150.9 228.1L139.8 228.4L136.9 223.7L135.7 221.8L133.9 219L139.2 209.3L150.3 209L152.5 204.9L136.4 205.4L127.2 222.5L128.1 224L71.9 258.7ZM43.1 276L48.2 284.3L48 284.6L43.6 292.9L33.9 293.2L30.5 287.8L28.7 285L33.3 276.4L43.1 276Z" fill="#BA68C8"/>
<path d="M82.5 197.9C82.5 199.7 84 201.2 85.8 201.2C87.6 201.2 89.1 199.7 89.1 197.9C89.1 197.7 89.1 197.4 89 197.2C89 197 88.9 196.8 88.8 196.6C88.3 195.4 87.1 194.6 85.7 194.6C85.5 194.6 85.3 194.6 85.1 194.7C84.7 194.8 84.4 194.9 84.1 195.1C83.2 195.5 82.5 196.6 82.5 197.9ZM83 197.9C83 196.7 83.8 195.6 84.9 195.2C85.2 195.1 85.5 195.1 85.8 195.1C86 195.1 86.2 195.1 86.4 195.2C86.9 195.3 87.3 195.6 87.7 195.9C88.1 196.2 88.3 196.7 88.5 197.2C88.6 197.4 88.6 197.7 88.6 197.9C88.6 199.5 87.3 200.7 85.8 200.7C84.3 200.7 83 199.4 83 197.9Z" fill="#BA68C8"/>
<path d="M69 208V214.6C69 214.6 71 218 73.6 218.2C76.3 218.4 78.6 215.3 78.6 215.3V208.4L69 208Z" fill="#FB9A83"/>
<path d="M76 209.6C76 209.6 76.4 211.9 78.7 212.8V209.8L76 209.6Z" fill="#FF6D6B"/>
<path d="M77.9 210.9C67.9 213.7 64.6 206 63.3 201.1C63.1 200.6 63 200 62.9 199.3V199.2C62.8 198.5 62.6 197.7 62.5 196.9C62.4 196.3 62.4 195.7 62.3 195.1C62.2 193.6 62.1 192.2 62 190.9C61.9 187.9 63.6 185.2 66.4 184.1C70.4 182.6 76.5 181.3 82.2 184.6C84.3 185.8 85.7 188 85.7 190.5C85.7 190.5 86.7 194.4 86.2 196.2C85.7 198 85.6 198.5 85.5 200.8C85.3 203.1 84 208.8 82.6 209.9C81.3 211.2 77.9 210.9 77.9 210.9Z" fill="#FB9A83"/>
<path d="M81.6 200.6C81.5 200.6 81.4 200.5 81.4 200.3C81.3 198.2 79.4 196.9 79.4 196.9C79.3 196.8 79.2 196.6 79.3 196.5C79.4 196.4 79.6 196.3 79.7 196.4C79.8 196.5 81.9 197.9 82 200.3C82 200.4 81.9 200.6 81.6 200.6C81.7 200.6 81.7 200.6 81.6 200.6Z" fill="#FF6D6B"/>
<path d="M79.8 199.1C79.7 199.1 79.7 199.1 79.6 199C79.5 198.9 79.5 198.7 79.6 198.6C79.6 198.6 80.1 198.1 81 197.9C81.2 197.9 81.3 198 81.4 198.1C81.4 198.3 81.3 198.4 81.2 198.5C80.5 198.6 80.2 199 80.2 199C80 199.1 79.9 199.1 79.8 199.1Z" fill="#FF6D6B"/>
<path d="M61.6 195.7C62 201 64.3 206.7 64.3 206.7C66.8 212.3 71.5 211.3 74.1 210.5C76 209.9 78.5 207.9 79.5 206.9C80.3 206.2 80.8 205.1 81 204.2C81.2 203.5 80.7 202.9 80 202.8C78.8 202.7 77.6 201.7 77.3 198.9C76.8 194.2 80 194.2 80 194.2C81.9 194 82.9 196.4 82.9 196.4C82.9 196.4 84.1 194.9 83.8 192.3C83.6 190.1 85.8 191.7 85.8 191.7C85.8 191.7 88.9 189 89 186.3C89.1 183.6 87.5 183.5 86.1 182.8C84.7 182.1 87.9 179.6 86.4 178.2C84.8 176.9 83.1 176.7 81.8 177.4C80.5 178.1 80.1 174.6 78.2 174.6C76.3 174.5 75 176.7 73.7 175.8C72.4 174.9 68.9 173.7 67.3 176.3C65.7 178.9 65.3 179.6 64 179.7C62.7 179.8 59.2 182.3 59.9 186.3C60.8 190.4 61.4 192.6 61.6 195.7Z" fill="#021147"/>
<path d="M80.9 194.2C81.2 194.3 81.5 194.5 81.8 194.7C82.4 194.6 83.1 194.7 83.8 194.8C84 194.8 84.1 194.9 84.3 194.9C84.5 195 84.8 195.1 85 195.1C85.5 195.3 86 195.5 86.4 195.7C87.3 196.2 88.1 196.7 88.6 197C88.9 197.2 89 197.3 89 197.3L89.1 197C89.1 196.8 89 196.6 88.9 196.4C88.6 196.2 88.2 196 87.8 195.7C87.4 195.5 87 195.2 86.5 195C86.5 195 86.5 195 86.4 195C86 194.8 85.6 194.6 85.2 194.5C84.8 194.3 84.3 194.2 83.9 194.1C82.9 194 81.9 194 80.9 194.2Z" fill="#BA68C8"/>
<path d="M94.3 405.4C95 405.5 95.9 405.5 96.7 405.4L97.8 405L99.6 404.5C99.6 404.5 106.1 401.9 108.4 399.7C110.7 397.5 110.3 395 106.7 393.8C103.1 392.6 99.9 393.7 98 393C98 393 92.2 393.5 92.6 396.6C92.5 399.5 92.4 401 92.7 403.9C92.7 404.6 93.4 405.2 94.3 405.4Z" fill="#BA68C8"/>
<path d="M97.5 394.2C97.4 394.2 97.3 394.1 97.3 394C97.2 393.8 97.2 393.6 97.4 393.5C97.5 393.5 98.9 392.6 100.2 392.6C101.9 392.7 102.5 394 102.5 394C102.6 394.2 102.5 394.4 102.3 394.5C102.1 394.6 101.9 394.5 101.8 394.3C101.8 394.3 101.3 393.4 100.1 393.3C99.1 393.3 97.8 394 97.8 394C97.7 394.2 97.6 394.3 97.5 394.2Z" fill="white"/>
<path d="M98.8 394.1C98.7 394.1 98.6 394 98.6 393.9C98.5 393.7 98.5 393.5 98.7 393.4C98.8 393.4 100.2 392.5 101.5 392.5C103.2 392.6 103.8 393.9 103.8 393.9C103.9 394.1 103.8 394.3 103.6 394.4C103.4 394.5 103.2 394.4 103.1 394.2C103.1 394.2 102.6 393.3 101.4 393.2C100.4 393.2 99.1 393.9 99.1 393.9C99 394.1 98.9 394.1 98.8 394.1Z" fill="white"/>
<path d="M100 393.8C99.9 393.8 99.8 393.7 99.8 393.6C99.7 393.4 99.7 393.2 99.9 393.1C100 393.1 101.4 392.2 102.7 392.2C104.4 392.3 105 393.6 105 393.6C105.1 393.8 105 394 104.8 394.1C104.6 394.2 104.4 394.1 104.3 393.9C104.3 393.9 103.8 393 102.6 392.9C101.6 392.9 100.3 393.6 100.3 393.6C100.2 393.8 100.1 393.8 100 393.8Z" fill="white"/>
<path d="M99.3 388.9L98.9 395C96.7 395.6 95 395.9 93.7 394.9L93.3 388.5L99.3 388.9Z" fill="#FB9A83"/>
<path d="M101.1 391.4C97.8 393.5 92.4 392.3 92.4 392.3C93 392.2 87.7 352.4 87 346.4C86.4 340.9 79.5 324.8 76.6 315.7C76.4 315.1 76.2 314.5 76.1 313.9C75.9 313.1 75.7 312.3 75.5 311.6C74.2 307.1 73.4 304.3 73.4 304.3L92.5 300.1C93.1 302.2 93.6 304.4 94.1 306.5C94.2 307 94.3 307.4 94.4 307.9C94.5 308.2 94.5 308.5 94.6 308.8C106.3 358.5 101.1 391.4 101.1 391.4Z" fill="#3B3E7D"/>
<path d="M94.3 307.8C87.7 310.2 81.3 311.3 75.3 311.6C74 307.1 73.2 304.3 73.2 304.3L92.3 300.1C92.9 302.2 93.4 304.4 93.9 306.5C94.1 306.9 94.2 307.3 94.3 307.8Z" fill="#18285D"/>
<path d="M44.7 404C45.4 404.3 46.2 404.6 47 404.6H48.2H50.1C50.1 404.6 57.1 404 59.9 402.5C62.7 401 63 398.5 59.9 396.3C56.8 394.1 53.4 394.3 51.7 393.1C51.7 393.1 46 392 45.5 395C44.6 397.7 44 399.1 43.6 402C43.4 402.8 43.9 403.7 44.7 404Z" fill="#BA68C8"/>
<path d="M50.8 394.2C50.7 394.2 50.6 394.1 50.6 394C50.5 393.8 50.7 393.6 50.9 393.5C51 393.5 52.6 393 53.8 393.4C55.4 393.9 55.6 395.4 55.6 395.4C55.6 395.6 55.5 395.8 55.3 395.8C55.1 395.8 54.9 395.7 54.9 395.5C54.9 395.5 54.7 394.5 53.6 394.1C52.6 393.8 51.2 394.2 51.2 394.2C51 394.3 50.9 394.3 50.8 394.2Z" fill="white"/>
<path d="M52.1 394.5C52 394.5 51.9 394.4 51.9 394.3C51.8 394.1 52 393.9 52.2 393.8C52.3 393.8 53.9 393.3 55.1 393.7C56.7 394.2 56.9 395.7 56.9 395.7C56.9 395.9 56.8 396.1 56.6 396.1C56.4 396.1 56.2 396 56.2 395.8C56.2 395.8 56 394.8 54.9 394.4C53.9 394.1 52.5 394.5 52.5 394.5C52.3 394.5 52.2 394.5 52.1 394.5Z" fill="white"/>
<path d="M53.4 394.6C53.3 394.6 53.2 394.5 53.2 394.4C53.1 394.2 53.3 394 53.5 393.9C53.6 393.9 55.2 393.4 56.4 393.8C58 394.3 58.2 395.8 58.2 395.8C58.2 396 58.1 396.2 57.9 396.2C57.7 396.2 57.5 396.1 57.5 395.9C57.5 395.9 57.3 394.9 56.2 394.5C55.2 394.2 53.8 394.6 53.8 394.6C53.6 394.6 53.5 394.6 53.4 394.6Z" fill="white"/>
<path d="M54.1 389.6L52.1 395.3C49.8 395.3 48.1 395.1 47.1 393.8L48.5 387.5L54.1 389.6Z" fill="#FB9A83"/>
<path d="M72.3 302.4C72.2 304.6 72.2 306.8 72.1 309C72.1 309.9 72 310.8 72 311.7C71.9 313.3 71.8 314.9 71.7 316.5C70.8 329.5 68.9 344.1 67.5 351.4C66.6 356.3 55.2 392.6 55.2 392.6C51.5 393.6 46.7 391.1 46.6 391C47.3 391 52 347.4 53.5 344.2C54.4 342.2 53.6 336.9 52.9 314.4C52.9 313.4 52.8 312.3 52.8 311.2C52.8 310.5 52.8 309.8 52.8 309.1C52.7 304.3 52.9 301.2 52.9 301.2L72.3 302.4Z" fill="#3B3E7D"/>
<path d="M52.7 301.1L72.2 302.4C72.1 304.6 72.1 306.8 72 309C72 309.9 71.9 310.8 71.9 311.7C64.3 311.7 57.6 310.4 52.7 309C52.6 304.1 52.7 301.1 52.7 301.1Z" fill="#18285D"/>
<path d="M94.3 301.2C94.3 301.2 82.6 305.8 72.2 305.8C61.8 305.8 51.8 304.9 51.8 304.9C51.8 304.9 50.9 289.2 50.4 271.6C50.4 270.5 50.3 269.3 50.3 268.1C50.3 266.8 50.2 265.5 50.2 264.2C50.2 263 50.1 261.9 50.1 260.7C50.1 259.2 50 257.7 50 256.3C50 255.1 50 254 49.9 252.8C49.7 239.6 49.1 227.6 51.2 224.9C55.6 219.4 68.8 213.9 68.8 213.9C71.7 214.7 75 215 78.8 214.6C78.8 214.6 86.2 220.2 91.4 224C95.5 227 92.3 237.7 92.5 252.3C92.5 253.4 92.5 254.6 92.6 255.7C92.6 256.1 92.6 256.4 92.6 256.8C92.6 257.8 92.6 258.9 92.7 260.1C92.7 261.2 92.8 262.3 92.8 263.5C92.8 264.7 92.9 266 92.9 267.4C92.9 268.5 93 269.7 93 270.8C93.6 285.1 94.3 301.2 94.3 301.2Z" fill="#9468B4"/>
<path d="M69 221.5C75.5 222.1 79.7 218.7 79.9 218.5C80.1 218.4 80.1 218.1 80 218C79.9 217.8 79.6 217.8 79.5 217.9C79.5 217.9 74.5 221.9 67.4 220.5C67.2 220.5 67 220.6 67 220.8C67 221 67.1 221.2 67.3 221.2C67.7 221.4 68.4 221.5 69 221.5Z" fill="#BA68C8"/>
<path d="M92.7 255.9C83.8 257.6 75.9 258.2 69.2 258.2C60.3 258.2 53.7 257.2 50 256.4C50 255.2 50 254.1 49.9 252.9C55.5 254.1 71.4 256.6 92.5 252.4C92.7 253.6 92.7 254.7 92.7 255.9Z" fill="#BA68C8"/>
<path d="M92.9 263.7C83.9 265.4 76 266 69.2 266C60.4 266 53.9 265 50.2 264.2C50.2 263 50.1 261.9 50.1 260.7C55.8 261.9 71.7 264.4 92.8 260.2C92.9 261.3 92.9 262.5 92.9 263.7Z" fill="#BA68C8"/>
<path d="M93.2 270.9C84.1 272.7 76.1 273.3 69.3 273.3C60.7 273.3 54.2 272.3 50.5 271.6C50.5 270.5 50.4 269.3 50.4 268.1C56.3 269.3 72.1 271.7 93.1 267.5C93.1 268.6 93.1 269.8 93.2 270.9Z" fill="#BA68C8"/>
<path d="M92.5 225C92.5 225 110.8 253.4 113.8 251.5C118.3 248.7 122.2 246.3 122.2 246.3L126.5 243.6C126.5 243.6 123.9 260.2 113.9 263.6C107.6 265.7 90.4 244.1 90.4 244.1C90.4 244.1 90.4 229.5 92.5 225Z" fill="#9468B4"/>
<path d="M276.3 283.6C256.8 257.4 244.5 233.2 244.5 233.2L245.1 251.3C245.1 251.3 263.6 281.2 269.4 287.4C271.8 287.4 276.3 286.6 276.3 283.6Z" fill="#BA68C8"/>
<path d="M228 228.8C228 228.8 224.8 229.7 221.7 230.4C218.8 231.1 217.2 232 217.2 232C217.2 232 216.9 259.5 217.2 267.9C217.5 276.3 214.8 283.9 215.3 288.8C215.3 288.8 239.2 290.5 244.3 288.5C244.3 288.5 242.3 267 244.6 261C246.9 254.9 248 250.6 247.5 248.1C246.1 241.7 244.5 240.7 244.9 234.8C245.3 228.9 228 228.8 228 228.8Z" fill="#9468B4"/>
<path d="M238.3 238.8C231.8 238.8 227.9 235 227.7 234.8C227.6 234.7 227.6 234.4 227.7 234.3C227.8 234.2 228.1 234.2 228.2 234.3C228.2 234.3 232.8 238.8 240 238C240.2 238 240.4 238.1 240.4 238.3C240.4 238.5 240.3 238.7 240.1 238.7C239.5 238.8 238.9 238.8 238.3 238.8Z" fill="#BA68C8"/>
<path d="M222.9 273.1C222.7 273.1 222.5 272.9 222.5 272.7C222.5 272.5 222.7 272.3 222.9 272.3C223 272.3 232.9 271.8 239.6 262.9C239.7 262.7 240 262.7 240.1 262.8C240.3 262.9 240.3 263.2 240.2 263.3C233.2 272.6 223 273.1 222.9 273.1Z" fill="#BA68C8"/>
<path d="M222.5 276.6C221.7 276.6 221.3 276.6 221.3 276.6C221.1 276.6 221 276.4 221 276.2C221 276 221.2 275.9 221.4 275.9C221.5 275.9 231.3 276.9 239.3 269C239.4 268.9 239.7 268.9 239.8 269C239.9 269.1 239.9 269.4 239.8 269.5C233.3 275.9 225.5 276.6 222.5 276.6Z" fill="#BA68C8"/>
<path d="M317.8 302.6L324.1 304.8L321.9 310.6L315.1 308.6L317.8 302.6Z" fill="#FB9A83"/>
<path d="M323.1 305.6C323.1 305.6 321.7 303.5 322.2 302.4C322.7 301.3 332.8 295.1 334.5 292.4C336.2 289.6 338.1 291 339.1 292C340 293 330 315.6 330 315.6C330 315.6 322.9 313.7 321 312.2C319.1 310.6 322.8 308.2 323.1 305.6Z" fill="#BA68C8"/>
<path d="M329.7 302.6C329.7 302.7 329.6 302.8 329.5 302.9C329.3 303.1 329 303 328.9 302.8C328.8 302.7 327.6 301.2 327.4 299.8C327.2 297.9 328.6 296.9 328.6 296.9C328.8 296.8 329.1 296.8 329.2 297C329.3 297.2 329.3 297.5 329.1 297.6C329.1 297.6 328.1 298.3 328.3 299.7C328.4 300.9 329.6 302.2 329.6 302.2C329.7 302.4 329.7 302.5 329.7 302.6Z" fill="white"/>
<path d="M328.1 303.4C328.1 303.5 328 303.6 327.9 303.7C327.7 303.9 327.4 303.8 327.3 303.6C327.2 303.5 326 302 325.8 300.6C325.6 298.7 327 297.7 327 297.7C327.2 297.6 327.5 297.6 327.6 297.8C327.7 298 327.7 298.3 327.5 298.4C327.5 298.4 326.5 299.1 326.7 300.5C326.8 301.7 328 303 328 303C328 303.2 328.1 303.3 328.1 303.4Z" fill="white"/>
<path d="M331.3 301.3C331.3 301.4 331.2 301.5 331.1 301.6C330.9 301.8 330.6 301.7 330.5 301.5C330.4 301.4 329.2 299.9 329 298.5C328.8 296.6 330.2 295.6 330.2 295.6C330.4 295.5 330.7 295.5 330.8 295.7C330.9 295.9 330.9 296.2 330.7 296.3C330.7 296.3 329.7 297 329.9 298.4C330 299.6 331.2 300.9 331.2 300.9C331.3 301 331.3 301.1 331.3 301.3Z" fill="white"/>
<path d="M234 291.3C234 291.3 259.5 283.9 272.2 283.4C285 282.9 319.3 301.9 319.3 301.9C320.1 303.9 319.6 306.1 318.2 308.1C318 308.4 317.8 308.7 317.6 308.9C317.1 309.5 316.6 310.1 316 310.6C316 310.6 290.6 307.3 273.7 298.4C273.7 298.4 249.9 304.3 236.2 303.9C236.3 303.8 230.6 299.1 234 291.3Z" fill="#021147"/>
<path d="M243.794 217.153C249.105 211.842 249.105 203.231 243.794 197.92C238.482 192.609 229.871 192.609 224.56 197.92C219.249 203.231 219.249 211.842 224.56 217.153C229.871 222.464 238.482 222.464 243.794 217.153Z" fill="#021147"/>
<path d="M229.3 202.6C233.884 202.6 237.6 198.884 237.6 194.3C237.6 189.716 233.884 186 229.3 186C224.716 186 221 189.716 221 194.3C221 198.884 224.716 202.6 229.3 202.6Z" fill="#021147"/>
<path d="M244 211.3C244 211.3 246.1 209.1 247.2 211.2C248.4 213.3 245.9 218.8 242.7 217.1L244 211.3Z" fill="#FF6D6B"/>
<path d="M244.2 216.8C244.2 217.1 244.4 217.4 244.8 217.5C245.1 217.5 245.4 217.3 245.5 216.9C245.5 216.6 245.3 216.3 244.9 216.2C244.6 216.2 244.3 216.5 244.2 216.8Z" fill="white"/>
<path d="M243.6 215.4C243.7 215.4 243.8 215.3 243.9 215.2C244.6 213.5 246.6 213 246.6 213C246.8 213 246.8 212.8 246.8 212.7C246.8 212.6 246.6 212.5 246.5 212.5C246.4 212.5 244.2 213.1 243.4 215.1C243.3 215.1 243.4 215.3 243.6 215.4Z" fill="#ED495C"/>
<path d="M245.6 214.7C245.7 214.7 245.7 214.7 245.8 214.7C245.9 214.6 246 214.5 245.9 214.3C245.9 214.3 245.6 213.8 244.9 213.4C244.8 213.3 244.6 213.4 244.5 213.5C244.4 213.6 244.5 213.8 244.6 213.9C245.1 214.2 245.4 214.6 245.4 214.6C245.4 214.6 245.5 214.7 245.6 214.7Z" fill="#ED495C"/>
<path d="M228.6 221.9L227.9 228.9C227.9 228.9 230.9 231.7 233.4 232.2C235.9 232.7 237.1 229.8 237.1 229.8L237.7 223.3L228.6 221.9Z" fill="#FB9A83"/>
<path d="M228.6 222.5L228.3 225.3C229.8 227.3 232.8 228.3 237.3 228.1L237.7 223.9L228.6 222.5Z" fill="#FF6D6B"/>
<path d="M244.8 214.1C244.7 214.8 244.5 215.4 244.3 216.1C243.1 220.6 239.7 225.2 236 225.7C228 226.7 225.3 220.3 224.5 215.6C224.4 215.1 224.7 214.5 224.7 213.9C224.6 212.5 224.2 210.8 224.2 209.2C224.2 208.1 224.3 207 224.3 206C224.4 203.2 226.3 200.8 228.9 200.1C232.6 199 238.2 198.4 243.1 201.9C244.9 203.2 245.9 205.4 245.7 207.7C245.6 209.4 245.3 211.7 244.8 214.1Z" fill="#FB9A83"/>
<path d="M234.9 216.7C234.8 216.7 234.6 216.6 234.6 216.4C234.6 216.2 234.7 216.1 234.9 216.1L236 216L234.9 212C234.9 211.8 235 211.7 235.1 211.6C235.3 211.6 235.4 211.7 235.5 211.8L236.8 216.5L234.9 216.7C235 216.7 234.9 216.7 234.9 216.7Z" fill="#FF6D6B"/>
<path d="M242.5 206.1C245.4 207.8 244.5 212.4 244.3 215.9C244.3 216 245.1 213.4 245.1 213.3C245.6 210.9 245.9 208.6 246 206.8C246.2 204.5 245.1 202.2 243.2 200.9C238 197.3 232.2 197.9 228.2 199C225.5 199.8 223.5 202.2 223.4 205C223.4 206 223.3 207.1 223.3 208.2C223.8 208.6 225 208.8 225 209.6C224.9 211.8 224.8 215.5 225.2 215.3C225.7 215.2 226.4 210.2 226.1 208.6C226.1 208.6 226.9 207.5 229.9 206.7C233.7 205.6 237.4 203.9 237.4 203.9C237.4 203.9 238.9 203.2 239.5 202.3C239.7 202.6 240.3 204.8 242.5 206.1Z" fill="#021147"/>
<path d="M239.5 212.1C239.4 212.8 239.7 213.3 240.2 213.4C240.7 213.5 241 212.9 241.1 212.3C241.2 211.6 240.9 211.1 240.4 211C240 210.9 239.6 211.4 239.5 212.1Z" fill="#021147"/>
<path d="M230.4 211.2C230.3 211.9 230.6 212.4 231.1 212.5C231.5 212.5 231.9 212 232 211.4C232.1 210.7 231.8 210.2 231.3 210.1C230.9 210.1 230.5 210.6 230.4 211.2Z" fill="#021147"/>
<path d="M242.1 208.7C241.5 208.5 240.3 208.2 238.9 208.1C238.5 208.1 238.2 208.3 238.3 208.6C238.3 208.8 238.5 209 238.8 209C239.7 209 242.1 209.3 243.2 209.7C243.2 209.5 243.2 209.4 243 209.2C242.7 209 242.4 208.8 242.1 208.7Z" fill="#021147"/>
<path d="M229.6 207.7C230.2 207.6 231.5 207.5 232.8 207.7C233.2 207.7 233.4 208 233.3 208.3C233.2 208.5 233 208.7 232.7 208.6C231.8 208.5 229.4 208.3 228.3 208.5C228.3 208.3 228.4 208.2 228.6 208C228.9 207.9 229.3 207.7 229.6 207.7Z" fill="#021147"/>
<path d="M238.1 218.8C237.8 219.8 236.8 221.7 234.3 221.5C231.8 221.3 231.2 219.4 231.1 218.1L238.1 218.8Z" fill="white"/>
<path d="M234.2 223.3C234.9 223.4 235.6 223 235.6 223C235.7 222.9 235.8 222.7 235.7 222.6C235.6 222.5 235.4 222.4 235.3 222.5C235.3 222.5 234.7 222.8 234.2 222.7C233.6 222.6 233.1 222.3 233.1 222.3C233 222.2 232.8 222.2 232.7 222.4C232.6 222.5 232.6 222.7 232.8 222.8C232.8 222.8 233.4 223.3 234.2 223.3Z" fill="#FF6D6B"/>
<path d="M225.1 209.5C225.1 209.5 223.2 206.7 221.8 208.5C220.4 210.3 221.6 216 224.8 214.9L225.1 209.5Z" fill="#FB9A83"/>
<path d="M222.8 214.8C222.8 215.1 223 215.4 223.4 215.5C223.7 215.5 224 215.3 224.1 214.9C224.1 214.6 223.9 214.3 223.5 214.2C223.2 214.2 222.9 214.4 222.8 214.8Z" fill="white"/>
<path d="M224.3 213C224.2 213 224.1 212.9 224.1 212.8C223.8 211 222.1 210.2 222.1 210.2C222 210.1 221.9 210 222 209.8C222.1 209.7 222.2 209.6 222.4 209.7C222.5 209.7 224.4 210.7 224.7 212.7C224.6 212.9 224.5 213 224.3 213C224.3 213 224.3 213.1 224.3 213Z" fill="#FF6D6B"/>
<path d="M222.6 212C222.6 212 222.5 212 222.5 211.9C222.4 211.8 222.4 211.6 222.5 211.5C222.5 211.5 222.9 211 223.6 210.8C223.7 210.8 223.9 210.8 223.9 211C223.9 211.1 223.9 211.3 223.7 211.3C223.2 211.5 222.9 211.8 222.9 211.8C222.8 212 222.7 212 222.6 212Z" fill="#FF6D6B"/>
<path d="M234.6 210.7C234.6 210.5 234.6 210.3 234.5 210.2C234.3 209.8 234 209.4 233.5 209.3L229.1 208.8C228.8 208.8 228.4 208.9 228.2 209.1C228.1 209.2 227.9 209.3 227.9 209.5C227.8 209.6 227.8 209.8 227.8 209.9L227.7 210.5C227.6 211.5 227.9 212.4 228.4 213.1C229 213.8 229.7 214.2 230.5 214.3H230.6C231.5 214.4 232.5 214.1 233.2 213.6C234 213 234.4 212.1 234.6 211.2V210.7ZM234 211.1C233.9 211.9 233.5 212.7 232.8 213.2C232.2 213.7 231.4 213.9 230.6 213.8H230.5C229.8 213.7 229.2 213.3 228.7 212.7C228.2 212.1 228 211.3 228.1 210.5L228.2 209.9C228.2 209.5 228.6 209.2 229 209.3L233.4 209.8C233.8 209.8 234.1 210.2 234 210.6V211.1Z" fill="white"/>
<path d="M244 211.5C244 211.3 243.9 211.2 243.8 211C243.6 210.7 243.3 210.5 242.9 210.4L238.5 209.9C238 209.8 237.5 210.1 237.3 210.5C237.2 210.6 237.2 210.8 237.1 211L237 211.6C236.9 212.6 237.2 213.5 237.7 214.2C238.3 214.9 239 215.3 239.8 215.4H239.9C240.8 215.5 241.8 215.2 242.5 214.7C243.3 214.1 243.7 213.2 243.9 212.3L244 211.8C244 211.7 244 211.6 244 211.5ZM243.4 212.3C243.3 213.1 242.9 213.9 242.2 214.4C241.6 214.9 240.8 215.1 240 215H239.9C239.2 214.9 238.6 214.5 238.1 213.9C237.6 213.3 237.4 212.5 237.5 211.7L237.6 211.1C237.6 210.7 238 210.4 238.4 210.5L242.8 211C243.2 211 243.5 211.4 243.4 211.8V212.3Z" fill="white"/>
<path d="M228.1 209.1C227.7 208.8 226.6 208.2 224.9 208.2L225 208.7C226.4 208.8 227.3 209.3 227.7 209.5C227.8 209.6 227.9 209.6 227.9 209.6L228.2 209.2C228.3 209.2 228.2 209.1 228.1 209.1Z" fill="white"/>
<path d="M234.4 210.7L234.3 210.2C234.3 210.2 235.1 210 235.9 210.1C236.8 210.2 237.3 210.5 237.3 210.5L237 211C237 211 236.6 210.7 235.8 210.6C235.1 210.6 234.4 210.7 234.4 210.7Z" fill="white"/>
<path d="M245.5 210.7C244.5 210.7 243.7 211 243.6 211.1L243.8 211.6C243.8 211.6 244.7 211.3 245.6 211.3L245.5 210.7Z" fill="white"/>
<path d="M262.6 337.9L260.4 344.6L254.5 344L256.5 336.9L262.6 337.9Z" fill="#FB9A83"/>
<path d="M260 344.3C260 344.3 261.5 342.3 262.7 342.3C263.9 342.4 273.2 349.7 276.4 350.3C279.6 350.9 279 353.2 278.4 354.4C277.8 355.6 253.1 354 253.1 354C253.1 354 252.4 346.6 253.2 344.4C253.9 342.3 257.5 344.9 260 344.3Z" fill="#BA68C8"/>
<path d="M265.1 349.5C265 349.5 264.9 349.5 264.8 349.5C264.6 349.4 264.5 349.1 264.6 348.9C264.6 348.8 265.6 347.1 266.9 346.5C268.6 345.6 270 346.6 270 346.6C270.2 346.7 270.2 347 270.1 347.2C270 347.4 269.7 347.4 269.5 347.3C269.5 347.3 268.5 346.6 267.3 347.2C266.2 347.7 265.4 349.2 265.4 349.3C265.3 349.4 265.2 349.4 265.1 349.5Z" fill="white"/>
<path d="M263.8 348.2C263.7 348.2 263.6 348.2 263.5 348.2C263.3 348.1 263.2 347.8 263.3 347.6C263.3 347.5 264.3 345.8 265.6 345.2C267.3 344.3 268.7 345.3 268.7 345.3C268.9 345.4 268.9 345.7 268.8 345.9C268.7 346.1 268.4 346.1 268.2 346C268.2 346 267.2 345.3 266 345.9C264.9 346.4 264.1 347.9 264.1 348C264 348.1 263.9 348.2 263.8 348.2Z" fill="white"/>
<path d="M266.9 350.5C266.8 350.5 266.7 350.5 266.6 350.5C266.4 350.4 266.3 350.1 266.4 349.9C266.4 349.8 267.4 348.1 268.7 347.5C270.4 346.6 271.8 347.6 271.8 347.6C272 347.7 272 348 271.9 348.2C271.8 348.4 271.5 348.4 271.3 348.3C271.3 348.3 270.3 347.6 269.1 348.2C268 348.7 267.2 350.2 267.2 350.3C267.1 350.4 267 350.4 266.9 350.5Z" fill="white"/>
<path d="M214.9 291.8C214.6 294.5 215 297.3 216.3 299.8C218.2 303.4 222.3 307.2 231.1 306.7C249.9 305.7 263.2 306.7 263.2 306.7C263.2 306.7 261.2 313 259.1 322.3C257.9 327.7 254 340.9 254 340.9C256.6 342.4 259.3 342 262 341.5C262 341.5 281.5 308 279.8 297.1C278.1 286.2 215.1 289 215.1 289L214.9 291.8Z" fill="#3B3E7D"/>
<path d="M254.1 283.1C245.2 277.5 231.2 266.8 231.2 266.8C231.2 266.8 222.4 249.7 217.2 232C217.2 232 211.3 238.8 215.4 254C219.4 268.8 225.8 274.2 225.8 274.2C225.8 274.2 242.2 285.9 250.8 288.8C252.2 286.6 252.8 285.5 254.1 283.1Z" fill="#BA68C8"/>
<path d="M294.8 290L239.3 290.7C238.3 290.7 237.5 289.9 237.5 288.9V288C237.5 287 238.3 286.2 239.3 286.2L294.8 285.5C295.8 285.5 296.6 286.3 296.6 287.3V288.2C296.6 289.2 295.8 290 294.8 290Z" fill="#9468B4"/>
<path d="M296.6 290L248.2 290.6L262.6 264L311 263.5L296.6 290Z" fill="#9468B4"/>
<path d="M293.6 290L245.3 290.5L259.6 264H262.6L248.3 290.4L293.6 290Z" fill="#9468B4"/>
<path d="M283.3 276.9C283.3 278.6 282 280 280.3 280C278.6 280 277.2 278.7 277.2 277C277.2 275.3 278.5 273.9 280.2 273.9C281.9 273.9 283.3 275.2 283.3 276.9Z" fill="#BA68C8"/>
<path opacity="0.15" d="M421.1 382.3C443.468 382.3 461.6 378.763 461.6 374.4C461.6 370.037 443.468 366.5 421.1 366.5C398.732 366.5 380.6 370.037 380.6 374.4C380.6 378.763 398.732 382.3 421.1 382.3Z" fill="#D9E4F5"/>
<path d="M394.1 290.8V372.7C394.1 374.5 395.6 376 397.4 376H444.9C445.8 376 446.6 375.6 447.2 375C447.8 374.4 448.1 373.6 448.1 372.7V290.8C448.1 289 446.6 287.5 444.8 287.5H397.3C396.7 287.5 396.1 287.7 395.6 288C394.7 288.7 394.1 289.7 394.1 290.8Z" fill="#BA68C8"/>
<path d="M408.9 303.4H440.6C441.8 303.4 442.8 302.4 442.8 301.2C442.8 300 441.8 299 440.6 299H408.9C407.7 299 406.7 300 406.7 301.2C406.7 302.4 407.7 303.4 408.9 303.4Z" fill="#9468B4"/>
<path d="M408.9 313.6H440.6C441.8 313.6 442.8 312.6 442.8 311.4C442.8 310.2 441.8 309.2 440.6 309.2H408.9C407.7 309.2 406.7 310.2 406.7 311.4C406.7 312.6 407.7 313.6 408.9 313.6Z" fill="#9468B4"/>
<path d="M408.9 323.8H440.6C441.8 323.8 442.8 322.8 442.8 321.6C442.8 320.4 441.8 319.4 440.6 319.4H408.9C407.7 319.4 406.7 320.4 406.7 321.6C406.7 322.8 407.7 323.8 408.9 323.8Z" fill="#9468B4"/>
<path d="M408.9 334.1H440.6C441.8 334.1 442.8 333.1 442.8 331.9C442.8 330.7 441.8 329.7 440.6 329.7H408.9C407.7 329.7 406.7 330.7 406.7 331.9C406.7 333 407.7 334.1 408.9 334.1Z" fill="#9468B4"/>
<path d="M408.9 344.3H440.6C441.8 344.3 442.8 343.3 442.8 342.1C442.8 340.9 441.8 339.9 440.6 339.9H408.9C407.7 339.9 406.7 340.9 406.7 342.1C406.7 343.3 407.7 344.3 408.9 344.3Z" fill="#9468B4"/>
<path d="M408.9 354.5H440.6C441.8 354.5 442.8 353.5 442.8 352.3C442.8 351.1 441.8 350.1 440.6 350.1H408.9C407.7 350.1 406.7 351.1 406.7 352.3C406.7 353.5 407.7 354.5 408.9 354.5Z" fill="#9468B4"/>
<path d="M408.9 364.7H440.6C441.8 364.7 442.8 363.7 442.8 362.5C442.8 361.3 441.8 360.3 440.6 360.3H408.9C407.7 360.3 406.7 361.3 406.7 362.5C406.7 363.7 407.7 364.7 408.9 364.7Z" fill="#9468B4"/>
<path d="M400.2 299.9C400.2 300.4 400.6 300.9 401.2 300.9C401.7 300.9 402.2 300.5 402.2 299.9C402.2 299.4 401.8 298.9 401.2 298.9C400.7 298.9 400.2 299.3 400.2 299.9Z" fill="#021147"/>
<path d="M400.2 302.4C400.2 302.9 400.6 303.4 401.2 303.4C401.7 303.4 402.2 303 402.2 302.4C402.2 301.9 401.8 301.4 401.2 301.4C400.7 301.5 400.2 301.9 400.2 302.4Z" fill="#9468B4"/>
<path d="M400.2 310.1C400.2 310.6 400.6 311.1 401.2 311.1C401.7 311.1 402.2 310.7 402.2 310.1C402.2 309.6 401.8 309.1 401.2 309.1C400.7 309.1 400.2 309.5 400.2 310.1Z" fill="white"/>
<path d="M400.2 312.6C400.2 313.1 400.6 313.6 401.2 313.6C401.7 313.6 402.2 313.2 402.2 312.6C402.2 312.1 401.8 311.6 401.2 311.6C400.7 311.7 400.2 312.1 400.2 312.6Z" fill="#9468B4"/>
<path d="M400.2 330.5C400.2 331 400.6 331.5 401.2 331.5C401.7 331.5 402.2 331.1 402.2 330.5C402.2 330 401.8 329.5 401.2 329.5C400.7 329.6 400.2 330 400.2 330.5Z" fill="white"/>
<path d="M400.2 333.1C400.2 333.6 400.6 334.1 401.2 334.1C401.7 334.1 402.2 333.7 402.2 333.1C402.2 332.6 401.8 332.1 401.2 332.1C400.7 332.1 400.2 332.6 400.2 333.1Z" fill="#9468B4"/>
<path d="M400.2 320.3C400.2 320.8 400.6 321.3 401.2 321.3C401.7 321.3 402.2 320.9 402.2 320.3C402.2 319.8 401.8 319.3 401.2 319.3C400.7 319.3 400.2 319.8 400.2 320.3Z" fill="#021147"/>
<path d="M400.2 322.9C400.2 323.4 400.6 323.9 401.2 323.9C401.7 323.9 402.2 323.5 402.2 322.9C402.2 322.4 401.8 321.9 401.2 321.9C400.7 321.9 400.2 322.3 400.2 322.9Z" fill="#9468B4"/>
<path d="M400.2 340.7C400.2 341.2 400.6 341.7 401.2 341.7C401.7 341.7 402.2 341.3 402.2 340.7C402.2 340.2 401.8 339.7 401.2 339.7C400.7 339.8 400.2 340.2 400.2 340.7Z" fill="#021147"/>
<path d="M400.2 343.3C400.2 343.8 400.6 344.3 401.2 344.3C401.7 344.3 402.2 343.9 402.2 343.3C402.2 342.8 401.8 342.3 401.2 342.3C400.7 342.4 400.2 342.8 400.2 343.3Z" fill="#9468B4"/>
<path d="M400.2 351C400.2 351.5 400.6 352 401.2 352C401.7 352 402.2 351.6 402.2 351C402.2 350.5 401.8 350 401.2 350C400.7 350 400.2 350.4 400.2 351Z" fill="white"/>
<path d="M400.2 353.5C400.2 354 400.6 354.5 401.2 354.5C401.7 354.5 402.2 354.1 402.2 353.5C402.2 353 401.8 352.5 401.2 352.5C400.7 352.6 400.2 353 400.2 353.5Z" fill="#9468B4"/>
<path d="M400.2 361.2C400.2 361.7 400.6 362.2 401.2 362.2C401.7 362.2 402.2 361.8 402.2 361.2C402.2 360.7 401.8 360.2 401.2 360.2C400.7 360.2 400.2 360.7 400.2 361.2Z" fill="#021147"/>
<path d="M400.2 363.8C400.2 364.3 400.6 364.8 401.2 364.8C401.7 364.8 402.2 364.4 402.2 363.8C402.2 363.3 401.8 362.8 401.2 362.8C400.7 362.8 400.2 363.2 400.2 363.8Z" fill="#9468B4"/>
<path d="M404.4 287.6H437.8C437.8 285.6 436.1 283.9 434.1 283.9H408.1C406.1 283.9 404.4 285.5 404.4 287.6Z" fill="#9468B4"/>
<path d="M401.5 206V208.2H420.1V283.9H422.3V206H401.5Z" fill="#9468B4"/>
<path d="M424 207.1C424 208.7 422.7 210 421.1 210C419.5 210 418.2 208.7 418.2 207.1C418.2 205.5 419.5 204.2 421.1 204.2C422.7 204.2 424 205.5 424 207.1Z" fill="#9468B4"/>
</g>
<defs>
<clipPath id="clip0">
<rect width="463.1" height="409.1" fill="white"/>
</clipPath>
</defs>
</svg>
