<svg width="380" height="309" viewBox="0 0 380 309" fill="none" xmlns="http://www.w3.org/2000/svg">
<path d="M379.65 302.98C379.65 306.1 294.65 308.64 189.83 308.64C85.01 308.64 0 306.1 0 302.98C0 299.86 85 297.32 189.83 297.32C294.66 297.32 379.65 299.86 379.65 302.98Z" fill="#9468B4"/>
<path opacity="0.3" d="M379.65 302.98C379.65 306.1 294.65 308.64 189.83 308.64C85.01 308.64 0 306.1 0 302.98C0 299.86 85 297.32 189.83 297.32C294.66 297.32 379.65 299.86 379.65 302.98Z" fill="white"/>
<path d="M343.31 194.009C343.31 194.059 345.88 191.359 346.02 191.169C347.65 188.989 349.52 183.809 347.75 181.319C347.445 180.915 347.058 180.58 346.615 180.335C346.172 180.09 345.682 179.94 345.177 179.897C344.673 179.854 344.165 179.917 343.686 180.083C343.208 180.249 342.769 180.513 342.4 180.859C340.78 182.279 340.4 184.909 340.54 186.939C340.71 189.319 343.31 193.999 343.31 194.009Z" fill="#9468B4"/>
<path d="M366.67 184.709C364.17 182.959 359.01 184.869 356.84 186.509C356.65 186.659 353.97 189.219 354.02 189.239H354.08C353.26 189.539 352.39 189.859 351.44 190.239C349.7 190.939 347.74 191.759 345.66 192.779C343.415 193.871 341.231 195.086 339.12 196.419C336.754 197.905 334.525 199.598 332.46 201.479C332.434 201.5 332.411 201.524 332.39 201.549C332.83 200.779 334 198.549 334.07 198.389C335.07 195.849 335.5 190.389 333.14 188.439C332.736 188.131 332.272 187.912 331.778 187.795C331.284 187.678 330.771 187.666 330.272 187.761C329.773 187.855 329.3 188.053 328.882 188.342C328.465 188.632 328.113 189.005 327.85 189.439C326.67 191.239 326.99 193.869 327.67 195.789C328.43 197.959 331.88 201.539 332.16 201.789C330.101 203.754 328.176 205.855 326.4 208.079C325.4 209.369 324.35 210.699 323.4 212.079C323.76 211.399 324.08 210.779 324.11 210.689C325.11 208.159 325.54 202.689 323.18 200.739C322.777 200.432 322.314 200.212 321.821 200.095C321.327 199.979 320.815 199.967 320.317 200.061C319.819 200.156 319.346 200.354 318.93 200.643C318.513 200.932 318.162 201.306 317.9 201.739C316.71 203.529 317.04 206.169 317.71 208.079C318.38 209.989 321.28 213.149 322.05 213.959L320.88 215.499C319.08 218.009 317.3 220.499 315.47 222.919C314.83 223.769 314.17 224.589 313.47 225.399C313.79 224.789 314.06 224.279 314.09 224.199C315.09 221.659 315.52 216.199 313.16 214.199C312.757 213.89 312.293 213.669 311.799 213.551C311.304 213.433 310.791 213.421 310.291 213.516C309.792 213.61 309.318 213.809 308.901 214.099C308.484 214.389 308.132 214.764 307.87 215.199C306.68 216.999 307.01 219.629 307.69 221.549C308.37 223.469 310.97 226.309 311.88 227.279C311.18 228.099 310.48 228.909 309.76 229.669C309.26 230.179 308.82 230.669 308.28 231.179L306.75 232.619C305.75 233.499 304.75 234.419 303.7 235.259C303 235.849 302.33 236.389 301.7 236.939C302.34 236.109 303.58 234.439 303.7 234.289C304.826 232.174 305.391 229.805 305.34 227.409C305.473 227.179 305.587 226.938 305.68 226.689C305.867 226.218 305.953 225.712 305.932 225.205C305.91 224.699 305.783 224.202 305.558 223.747C305.332 223.293 305.014 222.891 304.623 222.567C304.233 222.244 303.778 222.006 303.29 221.869C300.29 221.139 296.19 224.769 294.76 227.089C294.68 227.229 293.92 228.809 293.47 229.819C293.64 229.189 293.83 228.569 294 227.919C294.36 226.629 294.68 225.329 295 223.919C295.14 223.239 295.29 222.549 295.44 221.859C295.59 221.169 295.68 220.429 295.81 219.709C296.06 218.029 296.24 216.319 296.39 214.589C297.52 214.899 301.55 215.949 303.57 215.589C305.59 215.229 308.06 214.329 309.08 212.439C309.338 212.003 309.501 211.516 309.559 211.012C309.616 210.508 309.566 209.998 309.412 209.514C309.258 209.031 309.004 208.585 308.666 208.207C308.327 207.829 307.913 207.526 307.45 207.319C304.63 206.139 300 209.109 298.23 211.179C298.12 211.309 297.02 212.939 296.43 213.849C296.51 212.849 296.59 211.769 296.64 210.709C296.76 207.709 296.8 204.579 296.85 201.499C296.85 200.559 296.85 199.619 296.91 198.679C297.31 198.789 302.08 200.139 304.34 199.789C306.34 199.489 308.83 198.539 309.86 196.639C310.115 196.201 310.275 195.715 310.33 195.211C310.385 194.707 310.333 194.197 310.178 193.715C310.024 193.232 309.77 192.787 309.432 192.409C309.095 192.031 308.682 191.728 308.22 191.519C305.41 190.349 300.77 193.319 299 195.389C298.87 195.539 297.29 197.889 296.91 198.509C296.96 196.439 297.03 194.369 297.18 192.339C297.373 189.595 297.74 186.867 298.28 184.169C298.47 184.169 303.44 185.649 305.76 185.289C307.76 184.989 310.24 184.039 311.27 182.139C311.525 181.702 311.686 181.216 311.741 180.713C311.797 180.209 311.746 179.7 311.592 179.217C311.439 178.735 311.186 178.29 310.849 177.911C310.513 177.533 310.101 177.229 309.64 177.019C306.82 175.849 302.18 178.809 300.42 180.889C300.3 181.019 299.09 182.809 298.54 183.669L298.38 183.609C298.998 180.908 299.858 178.267 300.95 175.719C301.53 174.309 302.16 172.999 302.81 171.719C303.71 172.079 307.81 173.719 309.95 173.599C312.09 173.479 314.55 172.839 315.78 171.069C316.082 170.662 316.295 170.197 316.405 169.702C316.516 169.208 316.521 168.695 316.422 168.199C316.322 167.702 316.119 167.232 315.825 166.818C315.532 166.405 315.156 166.058 314.72 165.799C312.05 164.329 307.11 166.799 305.13 168.629C305.02 168.729 304.04 169.879 303.33 170.729C303.63 170.169 303.93 169.579 304.23 169.039C305.35 167.039 306.49 165.239 307.52 163.669C308.11 162.789 308.66 161.999 309.19 161.259C310.25 161.159 314.55 160.669 316.36 159.639C318.17 158.609 320.09 156.849 320.36 154.709C320.442 154.209 320.418 153.697 320.289 153.207C320.16 152.717 319.928 152.26 319.61 151.865C319.292 151.471 318.894 151.148 318.443 150.918C317.991 150.687 317.496 150.555 316.99 150.529C313.94 150.449 310.69 154.879 309.79 157.449C309.71 157.679 308.89 161.289 308.94 161.279H309.01C308.49 161.946 307.94 162.706 307.36 163.559C306.29 165.109 305.1 166.869 303.94 168.869C302.663 171.015 301.511 173.232 300.49 175.509C299.338 178.057 298.411 180.7 297.72 183.409C297.726 183.442 297.726 183.476 297.72 183.509C297.72 182.619 297.42 180.129 297.38 179.939C296.82 177.279 294.15 172.459 291.12 172.159C290.614 172.121 290.106 172.19 289.629 172.361C289.152 172.532 288.716 172.802 288.35 173.153C287.984 173.504 287.696 173.928 287.504 174.398C287.313 174.868 287.223 175.373 287.24 175.879C287.24 178.029 288.97 180.049 290.59 181.269C292.42 182.659 297.27 183.749 297.66 183.829C297.032 186.607 296.588 189.423 296.33 192.259C296.18 193.909 296.07 195.569 295.98 197.259C295.91 196.489 295.84 195.799 295.82 195.709C295.25 193.039 292.58 188.229 289.55 187.919C289.044 187.881 288.536 187.95 288.059 188.121C287.582 188.292 287.146 188.562 286.78 188.913C286.414 189.264 286.125 189.688 285.934 190.158C285.743 190.628 285.653 191.133 285.67 191.639C285.67 193.789 287.4 195.809 289.02 197.039C290.64 198.269 294.79 199.289 295.88 199.549C295.88 200.189 295.82 200.829 295.8 201.469C295.68 204.549 295.58 207.629 295.39 210.639C295.32 211.699 295.21 212.749 295.11 213.789C295.05 213.109 294.98 212.529 294.97 212.449C294.4 209.779 291.73 204.969 288.7 204.659C288.194 204.621 287.686 204.69 287.209 204.861C286.732 205.032 286.296 205.302 285.93 205.653C285.564 206.004 285.276 206.428 285.084 206.898C284.893 207.368 284.803 207.873 284.82 208.379C284.82 210.539 286.55 212.549 288.17 213.779C289.79 215.009 293.54 215.939 294.83 216.239C294.7 217.309 294.56 218.379 294.38 219.399C294.24 220.099 294.16 220.789 293.98 221.479L293.5 223.479C293.14 224.769 292.79 226.109 292.41 227.359C292.15 228.229 291.89 229.059 291.63 229.899C291.71 228.839 291.82 226.769 291.81 226.589C291.66 223.879 289.75 218.709 286.81 217.949C286.316 217.836 285.805 217.829 285.308 217.926C284.811 218.024 284.34 218.225 283.926 218.516C283.512 218.808 283.164 219.183 282.905 219.618C282.645 220.052 282.48 220.537 282.42 221.039C282.09 223.169 283.49 225.419 284.91 226.879C286.33 228.339 290.91 230.249 291.47 230.469C291.03 231.849 290.6 233.179 290.17 234.469C288.68 238.819 287.28 242.389 286.27 244.869C286.27 244.959 286.2 245.039 286.16 245.119L287.98 246.119C288.04 245.959 288.11 245.799 288.17 245.629C289.17 243.099 290.48 239.459 291.88 235.029C292.33 233.629 292.78 232.129 293.23 230.579C294.756 230.77 296.292 230.871 297.83 230.879C298.38 233.109 300.93 236.769 301.26 237.239C300.14 238.149 299.04 239.029 297.99 239.839C294.35 242.649 291.21 244.839 288.99 246.359L288.73 246.539L290.73 247.639C292.89 246.089 295.73 243.939 299.1 241.259C300.24 240.339 301.45 239.329 302.67 238.259C303.12 238.639 306.77 241.739 308.93 242.359C310.88 242.919 313.53 243.099 315.25 241.809C315.666 241.52 316.015 241.146 316.277 240.712C316.539 240.278 316.706 239.794 316.768 239.292C316.83 238.789 316.786 238.279 316.638 237.794C316.49 237.31 316.242 236.862 315.91 236.479C313.85 234.229 308.4 234.979 305.91 236.119C305.77 236.189 304.27 237.119 303.33 237.679C303.83 237.249 304.33 236.839 304.82 236.389C305.82 235.519 306.82 234.609 307.88 233.629L309.38 232.159C309.89 231.669 310.38 231.099 310.88 230.569C312.02 229.309 313.11 227.979 314.18 226.619C314.96 227.499 317.75 230.619 319.6 231.459C321.45 232.299 324.04 232.879 325.94 231.869C326.394 231.645 326.795 231.328 327.119 230.938C327.442 230.549 327.681 230.096 327.818 229.609C327.956 229.121 327.99 228.611 327.918 228.11C327.846 227.609 327.669 227.128 327.4 226.699C325.7 224.169 320.2 224.079 317.58 224.829C317.41 224.879 315.58 225.629 314.58 226.059C315.21 225.239 315.86 224.419 316.47 223.559C318.26 221.089 319.99 218.559 321.73 215.999L323.34 213.679C323.61 213.989 326.85 217.749 328.93 218.679C330.77 219.529 333.36 220.109 335.26 219.089C335.716 218.867 336.12 218.551 336.445 218.162C336.771 217.773 337.01 217.319 337.148 216.831C337.286 216.343 337.319 215.831 337.245 215.33C337.171 214.828 336.992 214.347 336.72 213.919C335.02 211.389 329.52 211.299 326.9 212.059C326.71 212.109 324.09 213.199 323.44 213.509C324.62 211.809 325.82 210.119 327.07 208.509C328.736 206.321 330.547 204.246 332.49 202.299C332.62 202.449 335.98 206.379 338.1 207.359C339.95 208.219 342.54 208.789 344.44 207.779C344.895 207.556 345.298 207.239 345.622 206.85C345.946 206.461 346.185 206.008 346.323 205.52C346.461 205.032 346.494 204.521 346.421 204.02C346.348 203.518 346.171 203.038 345.9 202.609C344.2 200.069 338.7 199.989 336.08 200.739C335.91 200.789 333.92 201.619 332.98 202.029L332.88 201.879C334.887 199.974 337.059 198.251 339.37 196.729C340.64 195.869 341.89 195.119 343.13 194.429C343.68 195.219 346.23 198.829 348.05 199.929C349.87 201.029 352.3 201.839 354.3 201.039C354.778 200.866 355.214 200.593 355.579 200.24C355.944 199.886 356.23 199.459 356.419 198.987C356.608 198.515 356.695 198.008 356.674 197.5C356.654 196.993 356.526 196.495 356.3 196.039C354.89 193.329 349.43 192.649 346.75 193.109C346.6 193.109 345.14 193.549 344.09 193.869L345.77 192.949C347.82 191.889 349.77 191.029 351.48 190.289C352.48 189.879 353.36 189.519 354.2 189.199C355.15 189.699 358.99 191.669 361.07 191.799C363.15 191.929 365.73 191.529 367.13 189.899C367.45 189.533 367.693 189.105 367.843 188.642C367.994 188.18 368.05 187.691 368.007 187.206C367.964 186.721 367.823 186.25 367.593 185.821C367.364 185.392 367.05 185.014 366.67 184.709Z" fill="#9468B4"/>
<path d="M296.43 166.86C297.88 168.76 302.63 171.23 302.64 171.23C302.65 171.23 303.32 167.61 303.33 167.37C303.49 164.65 302.19 159.31 299.33 158.21C298.852 158.04 298.344 157.973 297.838 158.013C297.333 158.053 296.842 158.199 296.396 158.441C295.951 158.684 295.562 159.017 295.254 159.42C294.946 159.823 294.727 160.286 294.61 160.78C294.05 162.85 295.24 165.25 296.43 166.86Z" fill="#9468B4"/>
<g opacity="0.5">
<path opacity="0.5" d="M343.31 194.009C343.31 194.059 345.88 191.359 346.02 191.169C347.65 188.989 349.52 183.809 347.75 181.319C347.445 180.915 347.058 180.58 346.615 180.335C346.172 180.09 345.682 179.94 345.177 179.897C344.673 179.854 344.165 179.917 343.686 180.083C343.208 180.249 342.769 180.513 342.4 180.859C340.78 182.279 340.4 184.909 340.54 186.939C340.71 189.319 343.31 193.999 343.31 194.009Z" fill="white"/>
<path opacity="0.5" d="M366.67 184.709C364.17 182.959 359.01 184.869 356.84 186.509C356.65 186.659 353.97 189.219 354.02 189.239H354.08C353.26 189.539 352.39 189.859 351.44 190.239C349.7 190.939 347.74 191.759 345.66 192.779C343.415 193.871 341.231 195.086 339.12 196.419C336.754 197.905 334.525 199.598 332.46 201.479C332.434 201.5 332.411 201.524 332.39 201.549C332.83 200.779 334 198.549 334.07 198.389C335.07 195.849 335.5 190.389 333.14 188.439C332.736 188.131 332.272 187.912 331.778 187.795C331.284 187.678 330.771 187.666 330.272 187.761C329.773 187.855 329.3 188.053 328.882 188.342C328.465 188.632 328.113 189.005 327.85 189.439C326.67 191.239 326.99 193.869 327.67 195.789C328.43 197.959 331.88 201.539 332.16 201.789C330.101 203.754 328.176 205.855 326.4 208.079C325.4 209.369 324.35 210.699 323.4 212.079C323.76 211.399 324.08 210.779 324.11 210.689C325.11 208.159 325.54 202.689 323.18 200.739C322.777 200.432 322.314 200.212 321.821 200.095C321.327 199.979 320.815 199.967 320.317 200.061C319.819 200.156 319.346 200.354 318.93 200.643C318.513 200.932 318.162 201.306 317.9 201.739C316.71 203.529 317.04 206.169 317.71 208.079C318.38 209.989 321.28 213.149 322.05 213.959L320.88 215.499C319.08 218.009 317.3 220.499 315.47 222.919C314.83 223.769 314.17 224.589 313.47 225.399C313.79 224.789 314.06 224.279 314.09 224.199C315.09 221.659 315.52 216.199 313.16 214.199C312.757 213.89 312.293 213.669 311.799 213.551C311.304 213.433 310.791 213.421 310.291 213.516C309.792 213.61 309.318 213.809 308.901 214.099C308.484 214.389 308.132 214.764 307.87 215.199C306.68 216.999 307.01 219.629 307.69 221.549C308.37 223.469 310.97 226.309 311.88 227.279C311.18 228.099 310.48 228.909 309.76 229.669C309.26 230.179 308.82 230.669 308.28 231.179L306.75 232.619C305.75 233.499 304.75 234.419 303.7 235.259C303 235.849 302.33 236.389 301.7 236.939C302.34 236.109 303.58 234.439 303.7 234.289C304.826 232.174 305.391 229.805 305.34 227.409C305.473 227.179 305.587 226.938 305.68 226.689C305.867 226.218 305.953 225.712 305.932 225.205C305.91 224.699 305.783 224.202 305.558 223.747C305.332 223.293 305.014 222.891 304.623 222.567C304.233 222.244 303.778 222.006 303.29 221.869C300.29 221.139 296.19 224.769 294.76 227.089C294.68 227.229 293.92 228.809 293.47 229.819C293.64 229.189 293.83 228.569 294 227.919C294.36 226.629 294.68 225.329 295 223.919C295.14 223.239 295.29 222.549 295.44 221.859C295.59 221.169 295.68 220.429 295.81 219.709C296.06 218.029 296.24 216.319 296.39 214.589C297.52 214.899 301.55 215.949 303.57 215.589C305.59 215.229 308.06 214.329 309.08 212.439C309.338 212.003 309.501 211.516 309.559 211.012C309.616 210.508 309.566 209.998 309.412 209.514C309.258 209.031 309.004 208.585 308.666 208.207C308.327 207.829 307.913 207.526 307.45 207.319C304.63 206.139 300 209.109 298.23 211.179C298.12 211.309 297.02 212.939 296.43 213.849C296.51 212.849 296.59 211.769 296.64 210.709C296.76 207.709 296.8 204.579 296.85 201.499C296.85 200.559 296.85 199.619 296.91 198.679C297.31 198.789 302.08 200.139 304.34 199.789C306.34 199.489 308.83 198.539 309.86 196.639C310.115 196.201 310.275 195.715 310.33 195.211C310.385 194.707 310.333 194.197 310.178 193.715C310.024 193.232 309.77 192.787 309.432 192.409C309.095 192.031 308.682 191.728 308.22 191.519C305.41 190.349 300.77 193.319 299 195.389C298.87 195.539 297.29 197.889 296.91 198.509C296.96 196.439 297.03 194.369 297.18 192.339C297.373 189.595 297.74 186.867 298.28 184.169C298.47 184.169 303.44 185.649 305.76 185.289C307.76 184.989 310.24 184.039 311.27 182.139C311.525 181.702 311.686 181.216 311.741 180.713C311.797 180.209 311.746 179.7 311.592 179.217C311.439 178.735 311.186 178.29 310.849 177.911C310.513 177.533 310.101 177.229 309.64 177.019C306.82 175.849 302.18 178.809 300.42 180.889C300.3 181.019 299.09 182.809 298.54 183.669L298.38 183.609C298.998 180.908 299.858 178.267 300.95 175.719C301.53 174.309 302.16 172.999 302.81 171.719C303.71 172.079 307.81 173.719 309.95 173.599C312.09 173.479 314.55 172.839 315.78 171.069C316.082 170.662 316.295 170.197 316.405 169.702C316.516 169.208 316.521 168.695 316.422 168.199C316.322 167.702 316.119 167.232 315.825 166.818C315.532 166.405 315.156 166.058 314.72 165.799C312.05 164.329 307.11 166.799 305.13 168.629C305.02 168.729 304.04 169.879 303.33 170.729C303.63 170.169 303.93 169.579 304.23 169.039C305.35 167.039 306.49 165.239 307.52 163.669C308.11 162.789 308.66 161.999 309.19 161.259C310.25 161.159 314.55 160.669 316.36 159.639C318.17 158.609 320.09 156.849 320.36 154.709C320.442 154.209 320.418 153.697 320.289 153.207C320.16 152.717 319.928 152.26 319.61 151.865C319.292 151.471 318.894 151.148 318.443 150.918C317.991 150.687 317.496 150.555 316.99 150.529C313.94 150.449 310.69 154.879 309.79 157.449C309.71 157.679 308.89 161.289 308.94 161.279H309.01C308.49 161.946 307.94 162.706 307.36 163.559C306.29 165.109 305.1 166.869 303.94 168.869C302.663 171.015 301.511 173.232 300.49 175.509C299.338 178.057 298.411 180.7 297.72 183.409C297.726 183.442 297.726 183.476 297.72 183.509C297.72 182.619 297.42 180.129 297.38 179.939C296.82 177.279 294.15 172.459 291.12 172.159C290.614 172.121 290.106 172.19 289.629 172.361C289.152 172.532 288.716 172.802 288.35 173.153C287.984 173.504 287.696 173.928 287.504 174.398C287.313 174.868 287.223 175.373 287.24 175.879C287.24 178.029 288.97 180.049 290.59 181.269C292.42 182.659 297.27 183.749 297.66 183.829C297.032 186.607 296.588 189.423 296.33 192.259C296.18 193.909 296.07 195.569 295.98 197.259C295.91 196.489 295.84 195.799 295.82 195.709C295.25 193.039 292.58 188.229 289.55 187.919C289.044 187.881 288.536 187.95 288.059 188.121C287.582 188.292 287.146 188.562 286.78 188.913C286.414 189.264 286.125 189.688 285.934 190.158C285.743 190.628 285.653 191.133 285.67 191.639C285.67 193.789 287.4 195.809 289.02 197.039C290.64 198.269 294.79 199.289 295.88 199.549C295.88 200.189 295.82 200.829 295.8 201.469C295.68 204.549 295.58 207.629 295.39 210.639C295.32 211.699 295.21 212.749 295.11 213.789C295.05 213.109 294.98 212.529 294.97 212.449C294.4 209.779 291.73 204.969 288.7 204.659C288.194 204.621 287.686 204.69 287.209 204.861C286.732 205.032 286.296 205.302 285.93 205.653C285.564 206.004 285.276 206.428 285.084 206.898C284.893 207.368 284.803 207.873 284.82 208.379C284.82 210.539 286.55 212.549 288.17 213.779C289.79 215.009 293.54 215.939 294.83 216.239C294.7 217.309 294.56 218.379 294.38 219.399C294.24 220.099 294.16 220.789 293.98 221.479L293.5 223.479C293.14 224.769 292.79 226.109 292.41 227.359C292.15 228.229 291.89 229.059 291.63 229.899C291.71 228.839 291.82 226.769 291.81 226.589C291.66 223.879 289.75 218.709 286.81 217.949C286.316 217.836 285.805 217.829 285.308 217.926C284.811 218.024 284.34 218.225 283.926 218.516C283.512 218.808 283.164 219.183 282.905 219.618C282.645 220.052 282.48 220.537 282.42 221.039C282.09 223.169 283.49 225.419 284.91 226.879C286.33 228.339 290.91 230.249 291.47 230.469C291.03 231.849 290.6 233.179 290.17 234.469C288.68 238.819 287.28 242.389 286.27 244.869C286.27 244.959 286.2 245.039 286.16 245.119L287.98 246.119C288.04 245.959 288.11 245.799 288.17 245.629C289.17 243.099 290.48 239.459 291.88 235.029C292.33 233.629 292.78 232.129 293.23 230.579C294.756 230.77 296.292 230.871 297.83 230.879C298.38 233.109 300.93 236.769 301.26 237.239C300.14 238.149 299.04 239.029 297.99 239.839C294.35 242.649 291.21 244.839 288.99 246.359L288.73 246.539L290.73 247.639C292.89 246.089 295.73 243.939 299.1 241.259C300.24 240.339 301.45 239.329 302.67 238.259C303.12 238.639 306.77 241.739 308.93 242.359C310.88 242.919 313.53 243.099 315.25 241.809C315.666 241.52 316.015 241.146 316.277 240.712C316.539 240.278 316.706 239.794 316.768 239.292C316.83 238.789 316.786 238.279 316.638 237.794C316.49 237.31 316.242 236.862 315.91 236.479C313.85 234.229 308.4 234.979 305.91 236.119C305.77 236.189 304.27 237.119 303.33 237.679C303.83 237.249 304.33 236.839 304.82 236.389C305.82 235.519 306.82 234.609 307.88 233.629L309.38 232.159C309.89 231.669 310.38 231.099 310.88 230.569C312.02 229.309 313.11 227.979 314.18 226.619C314.96 227.499 317.75 230.619 319.6 231.459C321.45 232.299 324.04 232.879 325.94 231.869C326.394 231.645 326.795 231.328 327.119 230.938C327.442 230.549 327.681 230.096 327.818 229.609C327.956 229.121 327.99 228.611 327.918 228.11C327.846 227.609 327.669 227.128 327.4 226.699C325.7 224.169 320.2 224.079 317.58 224.829C317.41 224.879 315.58 225.629 314.58 226.059C315.21 225.239 315.86 224.419 316.47 223.559C318.26 221.089 319.99 218.559 321.73 215.999L323.34 213.679C323.61 213.989 326.85 217.749 328.93 218.679C330.77 219.529 333.36 220.109 335.26 219.089C335.716 218.867 336.12 218.551 336.445 218.162C336.771 217.773 337.01 217.319 337.148 216.831C337.286 216.343 337.319 215.831 337.245 215.33C337.171 214.828 336.992 214.347 336.72 213.919C335.02 211.389 329.52 211.299 326.9 212.059C326.71 212.109 324.09 213.199 323.44 213.509C324.62 211.809 325.82 210.119 327.07 208.509C328.736 206.321 330.547 204.246 332.49 202.299C332.62 202.449 335.98 206.379 338.1 207.359C339.95 208.219 342.54 208.789 344.44 207.779C344.895 207.556 345.298 207.239 345.622 206.85C345.946 206.461 346.185 206.008 346.323 205.52C346.461 205.032 346.494 204.521 346.421 204.02C346.348 203.518 346.171 203.038 345.9 202.609C344.2 200.069 338.7 199.989 336.08 200.739C335.91 200.789 333.92 201.619 332.98 202.029L332.88 201.879C334.887 199.974 337.059 198.251 339.37 196.729C340.64 195.869 341.89 195.119 343.13 194.429C343.68 195.219 346.23 198.829 348.05 199.929C349.87 201.029 352.3 201.839 354.3 201.039C354.778 200.866 355.214 200.593 355.579 200.24C355.944 199.886 356.23 199.459 356.419 198.987C356.608 198.515 356.695 198.008 356.674 197.5C356.654 196.993 356.526 196.495 356.3 196.039C354.89 193.329 349.43 192.649 346.75 193.109C346.6 193.109 345.14 193.549 344.09 193.869L345.77 192.949C347.82 191.889 349.77 191.029 351.48 190.289C352.48 189.879 353.36 189.519 354.2 189.199C355.15 189.699 358.99 191.669 361.07 191.799C363.15 191.929 365.73 191.529 367.13 189.899C367.45 189.533 367.693 189.105 367.843 188.642C367.994 188.18 368.05 187.691 368.007 187.206C367.964 186.721 367.823 186.25 367.593 185.821C367.364 185.392 367.05 185.014 366.67 184.709Z" fill="white"/>
<path opacity="0.5" d="M296.43 166.86C297.88 168.76 302.63 171.23 302.64 171.23C302.65 171.23 303.32 167.61 303.33 167.37C303.49 164.65 302.19 159.31 299.33 158.21C298.852 158.04 298.344 157.973 297.838 158.013C297.333 158.053 296.842 158.199 296.396 158.441C295.951 158.684 295.562 159.017 295.254 159.42C294.946 159.823 294.727 160.286 294.61 160.78C294.05 162.85 295.24 165.25 296.43 166.86Z" fill="white"/>
</g>
<path d="M101.24 116.299C101.3 116.299 100.46 112.109 100.37 111.859C99.3699 108.859 95.7699 103.649 92.2499 103.659C91.6653 103.678 91.091 103.819 90.5645 104.073C90.0379 104.328 89.5708 104.691 89.1936 105.138C88.8164 105.585 88.5374 106.106 88.3748 106.668C88.2122 107.23 88.1697 107.82 88.2499 108.399C88.5099 110.869 90.7299 112.979 92.7399 114.189C95.0799 115.619 101.24 116.299 101.24 116.299Z" fill="#9468B4"/>
<path d="M108.05 88.0895C104.73 89.2795 103.05 95.4195 103.19 98.5595C103.19 98.8295 103.82 103.06 103.88 103.03H103.95C103.68 104.03 103.41 105.029 103.13 106.179C102.63 108.289 102.13 110.68 101.67 113.32C101.195 116.163 100.881 119.031 100.73 121.91C100.554 125.13 100.665 128.359 101.06 131.56C101.065 131.599 101.065 131.64 101.06 131.679C100.63 130.739 99.3299 128.169 99.1999 127.979C97.4799 125.349 92.5999 121.28 89.1999 122.22C88.6412 122.392 88.125 122.681 87.6847 123.066C87.2444 123.451 86.8897 123.924 86.6437 124.454C86.3978 124.985 86.2659 125.561 86.2566 126.146C86.2473 126.731 86.3609 127.311 86.5899 127.85C87.4899 130.16 90.1899 131.61 92.4499 132.25C94.9999 132.98 100.68 132.12 101.13 132.05C101.61 135.299 102.309 138.513 103.22 141.67C103.74 143.51 104.32 145.35 104.93 147.19C104.53 146.39 104.16 145.68 104.1 145.59C102.37 142.959 97.4999 138.889 94.0999 139.829C93.5406 140 93.0236 140.286 92.5824 140.67C92.1413 141.054 91.786 141.526 91.5397 142.057C91.2935 142.587 91.1617 143.163 91.1532 143.748C91.1446 144.332 91.2593 144.912 91.4899 145.45C92.3899 147.77 95.0899 149.219 97.3499 149.859C99.6099 150.499 104.49 149.86 105.78 149.69C106.02 150.39 106.25 151.099 106.49 151.799C107.65 155.159 108.83 158.519 109.88 161.799C110.25 162.969 110.57 164.139 110.88 165.299C110.52 164.589 110.22 164 110.16 163.92C108.44 161.29 103.56 157.22 100.16 158.16C99.6006 158.33 99.0836 158.616 98.6424 159C98.2013 159.384 97.846 159.856 97.5997 160.387C97.3535 160.917 97.2217 161.493 97.2132 162.078C97.2046 162.662 97.3193 163.242 97.5499 163.78C98.4499 166.1 101.15 167.55 103.41 168.19C105.67 168.83 110.08 168.269 111.61 168.049C111.91 169.259 112.21 170.46 112.44 171.64C112.59 172.45 112.78 173.219 112.88 174.049C112.98 174.879 113.1 175.66 113.22 176.45C113.38 177.99 113.55 179.579 113.67 181.09C113.76 182.09 113.82 183.09 113.89 184.09C113.54 182.92 112.79 180.639 112.71 180.459C111.465 177.988 109.61 175.874 107.32 174.32C107.192 174.039 107.038 173.771 106.86 173.519C106.543 173.027 106.126 172.607 105.637 172.285C105.147 171.964 104.595 171.75 104.017 171.655C103.44 171.561 102.848 171.589 102.282 171.738C101.716 171.887 101.187 172.153 100.73 172.519C98.0699 174.829 98.7299 181.14 99.9599 184.04C100.03 184.21 101.03 185.97 101.67 187.04C101.19 186.45 100.74 185.87 100.24 185.26C99.2399 184.07 98.2399 182.9 97.1599 181.64L95.5099 179.85C94.9699 179.24 94.3299 178.67 93.7299 178.07C92.3299 176.71 90.8299 175.4 89.2999 174.07C90.2999 173.21 94.0199 170.07 95.0799 168C96.1399 165.93 96.8799 162.93 95.7799 160.7C95.5394 160.166 95.1891 159.69 94.7519 159.301C94.3148 158.912 93.8005 158.62 93.2428 158.444C92.6851 158.267 92.0964 158.21 91.5152 158.277C90.9341 158.343 90.3734 158.532 89.8699 158.829C86.8699 160.699 86.5899 167.039 87.3599 170.09C87.4099 170.28 88.2099 172.399 88.6699 173.56C87.7399 172.799 86.8199 172.03 85.8599 171.28C83.0699 169.13 80.1899 167.04 77.3199 164.94C76.4399 164.3 75.5699 163.64 74.6999 163C75.0799 162.69 79.5299 159.099 80.6999 156.739C81.7499 154.639 82.5099 151.67 81.4099 149.44C81.1694 148.906 80.8191 148.43 80.3819 148.041C79.9448 147.652 79.4305 147.36 78.8728 147.184C78.3151 147.007 77.7264 146.95 77.1452 147.017C76.564 147.083 76.0034 147.272 75.4999 147.57C72.4999 149.44 72.2099 155.779 72.9899 158.829C72.9899 159.059 74.1999 162.12 74.5299 162.88C72.6099 161.45 70.7199 160.01 68.8999 158.51C66.4307 156.501 64.0926 154.337 61.8999 152.03C62.0799 151.89 66.7399 148.159 67.8999 145.739C68.9499 143.639 69.7099 140.67 68.6099 138.44C68.3694 137.906 68.0191 137.43 67.5819 137.041C67.1448 136.652 66.6305 136.36 66.0728 136.184C65.5151 136.007 64.9264 135.95 64.3452 136.017C63.764 136.083 63.2034 136.272 62.6999 136.57C59.6999 138.44 59.4099 144.779 60.1899 147.829C60.1899 148.029 61.1199 150.359 61.5599 151.459L61.3899 151.56C59.2565 149.176 57.3421 146.606 55.6699 143.88C54.7299 142.4 53.9199 140.88 53.1599 139.47C54.0899 138.86 58.3599 136.05 59.6899 133.99C61.0199 131.93 62.0399 129.15 61.1899 126.82C61.0094 126.263 60.7137 125.75 60.3221 125.315C59.9305 124.88 59.4517 124.533 58.9169 124.295C58.382 124.057 57.8032 123.935 57.2179 123.936C56.6327 123.937 56.0541 124.06 55.5199 124.3C52.3499 125.84 51.3599 132.11 51.7899 135.22C51.7899 135.39 52.2399 137.09 52.5699 138.32C52.2399 137.66 51.8899 136.98 51.5699 136.32C50.4099 133.92 49.4999 131.66 48.6999 129.64C48.2599 128.49 47.8899 127.45 47.5499 126.46C48.1599 125.39 50.5499 121.02 50.7899 118.63C51.0299 116.24 50.6599 113.25 48.7899 111.57C48.373 111.159 47.8744 110.842 47.3266 110.637C46.7788 110.432 46.194 110.344 45.6103 110.38C45.0265 110.416 44.4568 110.574 43.9382 110.845C43.4195 111.115 42.9636 111.491 42.5999 111.949C40.4999 114.769 42.5099 120.8 44.3299 123.36C44.4799 123.58 47.3299 126.77 47.3299 126.71V126.64C47.6399 127.64 47.9799 128.64 48.3299 129.72C49.0799 131.72 49.9499 134.05 51.0599 136.48C52.2241 139.115 53.5431 141.68 55.0099 144.16C56.6433 146.944 58.5171 149.581 60.6099 152.04L60.6899 152.119C59.8099 151.579 57.3099 150.12 57.0999 150.06C54.2099 148.819 47.8999 148.119 45.5799 150.769C45.2086 151.222 44.9366 151.748 44.7814 152.312C44.6262 152.877 44.5913 153.468 44.6789 154.046C44.7666 154.625 44.9749 155.179 45.2903 155.672C45.6057 156.166 46.0212 156.587 46.5099 156.91C48.5099 158.34 51.5899 158.06 53.8199 157.35C56.3499 156.55 60.6099 152.7 60.9499 152.35C63.1288 154.792 65.4672 157.087 67.9499 159.22C69.3999 160.47 70.8999 161.69 72.4199 162.88L70.8499 162C67.9599 160.76 61.6499 160.06 59.3299 162.72C58.9584 163.171 58.6858 163.695 58.5299 164.258C58.374 164.822 58.3383 165.411 58.425 165.989C58.5118 166.567 58.7191 167.121 59.0335 167.613C59.3478 168.106 59.7623 168.527 60.2499 168.85C62.2499 170.29 65.3299 170 67.5699 169.29C69.8099 168.58 73.5699 165.37 74.5099 164.5L76.2699 165.869C79.0999 168.03 81.9299 170.179 84.6399 172.369C85.5899 173.139 86.4999 173.94 87.4199 174.73C86.7299 174.34 86.1499 174.01 86.0499 173.97C83.1699 172.73 76.8499 172.029 74.5399 174.679C74.1682 175.132 73.8955 175.657 73.7395 176.221C73.5835 176.785 73.5477 177.375 73.6344 177.954C73.7212 178.533 73.9285 179.087 74.2429 179.581C74.5574 180.074 74.972 180.496 75.4599 180.82C77.4599 182.25 80.5399 181.97 82.7799 181.26C85.0199 180.55 88.3899 177.639 89.5399 176.619C90.4599 177.459 91.3699 178.3 92.2199 179.16C92.7899 179.75 93.3699 180.29 93.9099 180.92L95.5199 182.739C96.5199 183.939 97.5199 185.169 98.4499 186.359C99.0999 187.179 99.7099 187.979 100.32 188.78C99.3799 188 97.4999 186.51 97.3199 186.41C94.6499 184.74 88.5199 183.09 85.8299 185.41C85.3939 185.8 85.0451 186.277 84.8063 186.812C84.5675 187.346 84.444 187.924 84.444 188.51C84.444 189.095 84.5675 189.673 84.8063 190.207C85.0451 190.742 85.3939 191.219 85.8299 191.609C87.6199 193.339 90.6799 193.52 92.9999 193.16C95.5499 192.76 100.18 189.739 100.75 189.359C101.75 190.689 102.75 191.989 103.62 193.239C106.74 197.539 109.17 201.24 110.83 203.85L111 204.119L113.15 203.07L112.81 202.56C111.07 199.96 108.54 196.27 105.3 192C104.3 190.64 103.17 189.219 102.01 187.769C103.2 186.454 104.316 185.071 105.35 183.63C107.82 184.63 112.98 184.63 113.64 184.63C113.75 186.3 113.84 187.92 113.9 189.45C114.12 194.75 114.11 199.18 114.05 202.28V202.64L116.41 201.489C116.41 198.409 116.3 194.259 115.98 189.34C115.88 187.649 115.74 185.839 115.57 183.989C116.23 183.829 121.57 182.45 123.57 180.84C125.4 179.369 127.33 176.99 127.27 174.51C127.274 173.924 127.155 173.344 126.921 172.807C126.686 172.271 126.341 171.79 125.908 171.395C125.475 171.001 124.964 170.702 124.407 170.519C123.851 170.335 123.263 170.27 122.68 170.329C119.19 170.779 116.26 176.41 115.68 179.51C115.68 179.69 115.5 181.71 115.42 182.98C115.35 182.23 115.29 181.489 115.21 180.709C115.05 179.179 114.85 177.64 114.64 176L114.25 173.59C114.14 172.789 113.92 171.96 113.75 171.13C113.33 169.21 112.81 167.299 112.24 165.369C113.58 165.24 118.36 164.67 120.41 163.5C122.46 162.33 124.71 160.269 125.02 157.799C125.113 157.222 125.084 156.631 124.934 156.066C124.783 155.5 124.515 154.973 124.147 154.518C123.779 154.063 123.319 153.691 122.798 153.426C122.276 153.161 121.704 153.009 121.12 152.98C117.6 152.89 113.85 157.98 112.82 160.98C112.75 161.16 112.25 163.38 111.99 164.6C111.64 163.45 111.3 162.3 110.91 161.14C109.77 157.81 108.52 154.48 107.28 151.14L106.17 148.079C106.65 148.029 112.35 147.49 114.64 146.17C116.64 145 118.94 142.94 119.25 140.48C119.343 139.901 119.314 139.31 119.164 138.744C119.014 138.178 118.746 137.65 118.378 137.194C118.01 136.739 117.55 136.365 117.028 136.099C116.507 135.833 115.935 135.68 115.35 135.649C111.83 135.569 108.08 140.649 107.05 143.649C106.97 143.879 106.25 147.06 106.1 147.88C105.29 145.63 104.5 143.38 103.82 141.13C102.871 138.099 102.123 135.009 101.58 131.88C101.8 131.88 107.75 131.32 110.1 129.97C112.1 128.8 114.4 126.74 114.71 124.27C114.802 123.692 114.771 123.102 114.62 122.537C114.469 121.972 114.201 121.445 113.834 120.991C113.466 120.536 113.007 120.164 112.486 119.899C111.965 119.633 111.394 119.48 110.81 119.449C107.29 119.359 103.54 124.45 102.51 127.45C102.44 127.65 101.89 130.069 101.65 131.229H101.45C100.991 128.065 100.814 124.866 100.92 121.67C100.92 119.91 101.09 118.23 101.25 116.6C102.37 116.6 107.48 116.6 109.72 115.6C111.96 114.6 114.36 112.869 114.94 110.449C115.096 109.885 115.132 109.295 115.045 108.716C114.957 108.137 114.749 107.583 114.432 107.09C114.116 106.598 113.7 106.177 113.21 105.856C112.72 105.536 112.168 105.322 111.59 105.229C108.1 104.749 103.81 109.439 102.46 112.229C102.38 112.389 101.81 114.039 101.4 115.229C101.49 114.489 101.57 113.73 101.66 113.03C102.02 110.39 102.51 108.03 102.96 105.88C103.23 104.68 103.49 103.599 103.75 102.589C104.85 102.029 109.27 99.7195 110.75 97.8395C112.23 95.9595 113.6 93.2795 113 90.8395C112.672 89.8423 111.981 89.0052 111.063 88.4955C110.146 87.9857 109.07 87.8408 108.05 88.0895Z" fill="#9468B4"/>
<path d="M44.3899 142.37C47.1399 142.26 52.6399 139.44 52.6499 139.44C52.6599 139.44 49.6499 136.38 49.4699 136.21C47.0099 134.21 41.1099 131.91 38.1799 133.85C37.7005 134.186 37.2974 134.619 36.9971 135.122C36.6967 135.625 36.5058 136.185 36.4369 136.766C36.368 137.348 36.4226 137.937 36.5972 138.496C36.7718 139.055 37.0623 139.571 37.4499 140.01C39.0299 141.94 42.0399 142.5 44.3899 142.37Z" fill="#9468B4"/>
<g opacity="0.5">
<path opacity="0.5" d="M101.24 116.299C101.3 116.299 100.46 112.109 100.37 111.859C99.3699 108.859 95.7699 103.649 92.2499 103.659C91.6653 103.678 91.091 103.819 90.5645 104.073C90.0379 104.328 89.5708 104.691 89.1936 105.138C88.8164 105.585 88.5374 106.106 88.3748 106.668C88.2122 107.23 88.1697 107.82 88.2499 108.399C88.5099 110.869 90.7299 112.979 92.7399 114.189C95.0799 115.619 101.24 116.299 101.24 116.299Z" fill="white"/>
<path opacity="0.5" d="M108.05 88.0895C104.73 89.2795 103.05 95.4195 103.19 98.5595C103.19 98.8295 103.82 103.06 103.88 103.03H103.95C103.68 104.03 103.41 105.029 103.13 106.179C102.63 108.289 102.13 110.68 101.67 113.32C101.195 116.163 100.881 119.031 100.73 121.91C100.554 125.13 100.665 128.359 101.06 131.56C101.065 131.599 101.065 131.64 101.06 131.679C100.63 130.739 99.3299 128.169 99.1999 127.979C97.4799 125.349 92.5999 121.28 89.1999 122.22C88.6412 122.392 88.125 122.681 87.6847 123.066C87.2444 123.451 86.8897 123.924 86.6437 124.454C86.3978 124.985 86.2659 125.561 86.2566 126.146C86.2473 126.731 86.3609 127.311 86.5899 127.85C87.4899 130.16 90.1899 131.61 92.4499 132.25C94.9999 132.98 100.68 132.12 101.13 132.05C101.61 135.299 102.309 138.513 103.22 141.67C103.74 143.51 104.32 145.35 104.93 147.19C104.53 146.39 104.16 145.68 104.1 145.59C102.37 142.959 97.4999 138.889 94.0999 139.829C93.5406 140 93.0236 140.286 92.5824 140.67C92.1413 141.054 91.786 141.526 91.5397 142.057C91.2935 142.587 91.1617 143.163 91.1532 143.748C91.1446 144.332 91.2593 144.912 91.4899 145.45C92.3899 147.77 95.0899 149.219 97.3499 149.859C99.6099 150.499 104.49 149.86 105.78 149.69C106.02 150.39 106.25 151.099 106.49 151.799C107.65 155.159 108.83 158.519 109.88 161.799C110.25 162.969 110.57 164.139 110.88 165.299C110.52 164.589 110.22 164 110.16 163.92C108.44 161.29 103.56 157.22 100.16 158.16C99.6006 158.33 99.0836 158.616 98.6424 159C98.2013 159.384 97.846 159.856 97.5997 160.387C97.3535 160.917 97.2217 161.493 97.2132 162.078C97.2046 162.662 97.3193 163.242 97.5499 163.78C98.4499 166.1 101.15 167.55 103.41 168.19C105.67 168.83 110.08 168.269 111.61 168.049C111.91 169.259 112.21 170.46 112.44 171.64C112.59 172.45 112.78 173.219 112.88 174.049C112.98 174.879 113.1 175.66 113.22 176.45C113.38 177.99 113.55 179.579 113.67 181.09C113.76 182.09 113.82 183.09 113.89 184.09C113.54 182.92 112.79 180.639 112.71 180.459C111.465 177.988 109.61 175.874 107.32 174.32C107.192 174.039 107.038 173.771 106.86 173.519C106.543 173.027 106.126 172.607 105.637 172.285C105.147 171.964 104.595 171.75 104.017 171.655C103.44 171.561 102.848 171.589 102.282 171.738C101.716 171.887 101.187 172.153 100.73 172.519C98.0699 174.829 98.7299 181.14 99.9599 184.04C100.03 184.21 101.03 185.97 101.67 187.04C101.19 186.45 100.74 185.87 100.24 185.26C99.2399 184.07 98.2399 182.9 97.1599 181.64L95.5099 179.85C94.9699 179.24 94.3299 178.67 93.7299 178.07C92.3299 176.71 90.8299 175.4 89.2999 174.07C90.2999 173.21 94.0199 170.07 95.0799 168C96.1399 165.93 96.8799 162.93 95.7799 160.7C95.5394 160.166 95.1891 159.69 94.7519 159.301C94.3148 158.912 93.8005 158.62 93.2428 158.444C92.6851 158.267 92.0964 158.21 91.5152 158.277C90.9341 158.343 90.3734 158.532 89.8699 158.829C86.8699 160.699 86.5899 167.039 87.3599 170.09C87.4099 170.28 88.2099 172.399 88.6699 173.56C87.7399 172.799 86.8199 172.03 85.8599 171.28C83.0699 169.13 80.1899 167.04 77.3199 164.94C76.4399 164.3 75.5699 163.64 74.6999 163C75.0799 162.69 79.5299 159.099 80.6999 156.739C81.7499 154.639 82.5099 151.67 81.4099 149.44C81.1694 148.906 80.8191 148.43 80.3819 148.041C79.9448 147.652 79.4305 147.36 78.8728 147.184C78.3151 147.007 77.7264 146.95 77.1452 147.017C76.564 147.083 76.0034 147.272 75.4999 147.57C72.4999 149.44 72.2099 155.779 72.9899 158.829C72.9899 159.059 74.1999 162.12 74.5299 162.88C72.6099 161.45 70.7199 160.01 68.8999 158.51C66.4307 156.501 64.0926 154.337 61.8999 152.03C62.0799 151.89 66.7399 148.159 67.8999 145.739C68.9499 143.639 69.7099 140.67 68.6099 138.44C68.3694 137.906 68.0191 137.43 67.5819 137.041C67.1448 136.652 66.6305 136.36 66.0728 136.184C65.5151 136.007 64.9264 135.95 64.3452 136.017C63.764 136.083 63.2034 136.272 62.6999 136.57C59.6999 138.44 59.4099 144.779 60.1899 147.829C60.1899 148.029 61.1199 150.359 61.5599 151.459L61.3899 151.56C59.2565 149.176 57.3421 146.606 55.6699 143.88C54.7299 142.4 53.9199 140.88 53.1599 139.47C54.0899 138.86 58.3599 136.05 59.6899 133.99C61.0199 131.93 62.0399 129.15 61.1899 126.82C61.0094 126.263 60.7137 125.75 60.3221 125.315C59.9305 124.88 59.4517 124.533 58.9169 124.295C58.382 124.057 57.8032 123.935 57.2179 123.936C56.6327 123.937 56.0541 124.06 55.5199 124.3C52.3499 125.84 51.3599 132.11 51.7899 135.22C51.7899 135.39 52.2399 137.09 52.5699 138.32C52.2399 137.66 51.8899 136.98 51.5699 136.32C50.4099 133.92 49.4999 131.66 48.6999 129.64C48.2599 128.49 47.8899 127.45 47.5499 126.46C48.1599 125.39 50.5499 121.02 50.7899 118.63C51.0299 116.24 50.6599 113.25 48.7899 111.57C48.373 111.159 47.8744 110.842 47.3266 110.637C46.7788 110.432 46.194 110.344 45.6103 110.38C45.0265 110.416 44.4568 110.574 43.9382 110.845C43.4195 111.115 42.9636 111.491 42.5999 111.949C40.4999 114.769 42.5099 120.8 44.3299 123.36C44.4799 123.58 47.3299 126.77 47.3299 126.71V126.64C47.6399 127.64 47.9799 128.64 48.3299 129.72C49.0799 131.72 49.9499 134.05 51.0599 136.48C52.2241 139.115 53.5431 141.68 55.0099 144.16C56.6433 146.944 58.5171 149.581 60.6099 152.04L60.6899 152.119C59.8099 151.579 57.3099 150.12 57.0999 150.06C54.2099 148.819 47.8999 148.119 45.5799 150.769C45.2086 151.222 44.9366 151.748 44.7814 152.312C44.6262 152.877 44.5913 153.468 44.6789 154.046C44.7666 154.625 44.9749 155.179 45.2903 155.672C45.6057 156.166 46.0212 156.587 46.5099 156.91C48.5099 158.34 51.5899 158.06 53.8199 157.35C56.3499 156.55 60.6099 152.7 60.9499 152.35C63.1288 154.792 65.4672 157.087 67.9499 159.22C69.3999 160.47 70.8999 161.69 72.4199 162.88L70.8499 162C67.9599 160.76 61.6499 160.06 59.3299 162.72C58.9584 163.171 58.6858 163.695 58.5299 164.258C58.374 164.822 58.3383 165.411 58.425 165.989C58.5118 166.567 58.7191 167.121 59.0335 167.613C59.3478 168.106 59.7623 168.527 60.2499 168.85C62.2499 170.29 65.3299 170 67.5699 169.29C69.8099 168.58 73.5699 165.37 74.5099 164.5L76.2699 165.869C79.0999 168.03 81.9299 170.179 84.6399 172.369C85.5899 173.139 86.4999 173.94 87.4199 174.73C86.7299 174.34 86.1499 174.01 86.0499 173.97C83.1699 172.73 76.8499 172.029 74.5399 174.679C74.1682 175.132 73.8955 175.657 73.7395 176.221C73.5835 176.785 73.5477 177.375 73.6344 177.954C73.7212 178.533 73.9285 179.087 74.2429 179.581C74.5574 180.074 74.972 180.496 75.4599 180.82C77.4599 182.25 80.5399 181.97 82.7799 181.26C85.0199 180.55 88.3899 177.639 89.5399 176.619C90.4599 177.459 91.3699 178.3 92.2199 179.16C92.7899 179.75 93.3699 180.29 93.9099 180.92L95.5199 182.739C96.5199 183.939 97.5199 185.169 98.4499 186.359C99.0999 187.179 99.7099 187.979 100.32 188.78C99.3799 188 97.4999 186.51 97.3199 186.41C94.6499 184.74 88.5199 183.09 85.8299 185.41C85.3939 185.8 85.0451 186.277 84.8063 186.812C84.5675 187.346 84.444 187.924 84.444 188.51C84.444 189.095 84.5675 189.673 84.8063 190.207C85.0451 190.742 85.3939 191.219 85.8299 191.609C87.6199 193.339 90.6799 193.52 92.9999 193.16C95.5499 192.76 100.18 189.739 100.75 189.359C101.75 190.689 102.75 191.989 103.62 193.239C106.74 197.539 109.17 201.24 110.83 203.85L111 204.119L113.15 203.07L112.81 202.56C111.07 199.96 108.54 196.27 105.3 192C104.3 190.64 103.17 189.219 102.01 187.769C103.2 186.454 104.316 185.071 105.35 183.63C107.82 184.63 112.98 184.63 113.64 184.63C113.75 186.3 113.84 187.92 113.9 189.45C114.12 194.75 114.11 199.18 114.05 202.28V202.64L116.41 201.489C116.41 198.409 116.3 194.259 115.98 189.34C115.88 187.649 115.74 185.839 115.57 183.989C116.23 183.829 121.57 182.45 123.57 180.84C125.4 179.369 127.33 176.99 127.27 174.51C127.274 173.924 127.155 173.344 126.921 172.807C126.686 172.271 126.341 171.79 125.908 171.395C125.475 171.001 124.964 170.702 124.407 170.519C123.851 170.335 123.263 170.27 122.68 170.329C119.19 170.779 116.26 176.41 115.68 179.51C115.68 179.69 115.5 181.71 115.42 182.98C115.35 182.23 115.29 181.489 115.21 180.709C115.05 179.179 114.85 177.64 114.64 176L114.25 173.59C114.14 172.789 113.92 171.96 113.75 171.13C113.33 169.21 112.81 167.299 112.24 165.369C113.58 165.24 118.36 164.67 120.41 163.5C122.46 162.33 124.71 160.269 125.02 157.799C125.113 157.222 125.084 156.631 124.934 156.066C124.783 155.5 124.515 154.973 124.147 154.518C123.779 154.063 123.319 153.691 122.798 153.426C122.276 153.161 121.704 153.009 121.12 152.98C117.6 152.89 113.85 157.98 112.82 160.98C112.75 161.16 112.25 163.38 111.99 164.6C111.64 163.45 111.3 162.3 110.91 161.14C109.77 157.81 108.52 154.48 107.28 151.14L106.17 148.079C106.65 148.029 112.35 147.49 114.64 146.17C116.64 145 118.94 142.94 119.25 140.48C119.343 139.901 119.314 139.31 119.164 138.744C119.014 138.178 118.746 137.65 118.378 137.194C118.01 136.739 117.55 136.365 117.028 136.099C116.507 135.833 115.935 135.68 115.35 135.649C111.83 135.569 108.08 140.649 107.05 143.649C106.97 143.879 106.25 147.06 106.1 147.88C105.29 145.63 104.5 143.38 103.82 141.13C102.871 138.099 102.123 135.009 101.58 131.88C101.8 131.88 107.75 131.32 110.1 129.97C112.1 128.8 114.4 126.74 114.71 124.27C114.802 123.692 114.771 123.102 114.62 122.537C114.469 121.972 114.201 121.445 113.834 120.991C113.466 120.536 113.007 120.164 112.486 119.899C111.965 119.633 111.394 119.48 110.81 119.449C107.29 119.359 103.54 124.45 102.51 127.45C102.44 127.65 101.89 130.069 101.65 131.229H101.45C100.991 128.065 100.814 124.866 100.92 121.67C100.92 119.91 101.09 118.23 101.25 116.6C102.37 116.6 107.48 116.6 109.72 115.6C111.96 114.6 114.36 112.869 114.94 110.449C115.096 109.885 115.132 109.295 115.045 108.716C114.957 108.137 114.749 107.583 114.432 107.09C114.116 106.598 113.7 106.177 113.21 105.856C112.72 105.536 112.168 105.322 111.59 105.229C108.1 104.749 103.81 109.439 102.46 112.229C102.38 112.389 101.81 114.039 101.4 115.229C101.49 114.489 101.57 113.73 101.66 113.03C102.02 110.39 102.51 108.03 102.96 105.88C103.23 104.68 103.49 103.599 103.75 102.589C104.85 102.029 109.27 99.7195 110.75 97.8395C112.23 95.9595 113.6 93.2795 113 90.8395C112.672 89.8423 111.981 89.0052 111.063 88.4955C110.146 87.9857 109.07 87.8408 108.05 88.0895Z" fill="white"/>
<path opacity="0.5" d="M44.3899 142.37C47.1399 142.26 52.6399 139.44 52.6499 139.44C52.6599 139.44 49.6499 136.38 49.4699 136.21C47.0099 134.21 41.1099 131.91 38.1799 133.85C37.7005 134.186 37.2974 134.619 36.9971 135.122C36.6967 135.625 36.5058 136.185 36.4369 136.766C36.368 137.348 36.4226 137.937 36.5972 138.496C36.7718 139.055 37.0623 139.571 37.4499 140.01C39.0299 141.94 42.0399 142.5 44.3899 142.37Z" fill="white"/>
</g>
<path d="M77.9999 217.889C77.9999 217.889 94.6999 177.639 104.05 179.389C113.4 181.139 88.0499 243.559 88.0499 243.559C88.0499 243.559 117.43 188.139 137.47 188.139C157.51 188.139 130.12 249.389 104.75 269.809C104.75 269.809 144.81 226.639 168.18 235.979C191.55 245.319 121.44 289.059 121.44 289.059C121.44 289.059 162.17 276.229 157.5 286.149C152.83 296.069 140.14 297.809 140.14 297.809L186.21 300.149H25.9199L61.9799 296.649C61.9799 296.649 24.5799 277.979 34.5999 270.399C44.6199 262.819 66.6499 279.149 66.6499 279.149C66.6499 279.149 28.5899 237.149 35.9299 221.389C43.2699 205.629 75.9999 249.979 75.9999 249.979C75.9999 249.979 49.2899 193.389 54.6299 183.499C59.9699 173.609 77.9999 217.889 77.9999 217.889Z" fill="#9468B4"/>
<path opacity="0.5" d="M77.9999 217.889C77.9999 217.889 94.6999 177.639 104.05 179.389C113.4 181.139 88.0499 243.559 88.0499 243.559C88.0499 243.559 117.43 188.139 137.47 188.139C157.51 188.139 130.12 249.389 104.75 269.809C104.75 269.809 144.81 226.639 168.18 235.979C191.55 245.319 121.44 289.059 121.44 289.059C121.44 289.059 162.17 276.229 157.5 286.149C152.83 296.069 140.14 297.809 140.14 297.809L186.21 300.149H25.9199L61.9799 296.649C61.9799 296.649 24.5799 277.979 34.5999 270.399C44.6199 262.819 66.6499 279.149 66.6499 279.149C66.6499 279.149 28.5899 237.149 35.9299 221.389C43.2699 205.629 75.9999 249.979 75.9999 249.979C75.9999 249.979 49.2899 193.389 54.6299 183.499C59.9699 173.609 77.9999 217.889 77.9999 217.889Z" fill="white"/>
<path d="M72.6599 220.01C87.3499 263.42 87.3499 294.14 87.3499 294.14C87.3499 294.14 69.9899 294.8 51.9599 281.45" stroke="#263238" stroke-linecap="round" stroke-linejoin="round"/>
<path d="M80.0099 243.389C83.0298 230.411 87.0416 217.684 92.0099 205.319" stroke="#263238" stroke-linecap="round" stroke-linejoin="round"/>
<path d="M123.41 218.01L86.0199 273.44C86.0199 273.44 60.6399 252.07 51.9599 240.05" stroke="#263238" stroke-linecap="round" stroke-linejoin="round"/>
<path d="M86.6899 286.79C86.6899 286.79 126.08 268.09 142.11 257.41" stroke="#263238" stroke-linecap="round" stroke-linejoin="round"/>
<path d="M293.43 217.889C293.43 217.889 276.74 177.639 267.43 179.389C258.12 181.139 283.43 243.559 283.43 243.559C283.43 243.559 254.05 188.139 234.02 188.139C213.99 188.139 241.36 249.389 266.74 269.809C266.74 269.809 226.67 226.639 203.3 235.979C179.93 245.319 250.05 289.059 250.05 289.059C250.05 289.059 209.31 276.229 213.99 286.149C218.67 296.069 231.35 297.809 231.35 297.809L185.24 300.149H345.52L309.46 296.649C309.46 296.649 346.85 277.979 336.84 270.399C326.83 262.819 304.78 279.149 304.78 279.149C304.78 279.149 342.85 237.149 335.5 221.389C328.15 205.629 295.43 249.979 295.43 249.979C295.43 249.979 322.15 193.389 316.8 183.469C311.45 173.549 293.43 217.889 293.43 217.889Z" fill="#9468B4"/>
<path opacity="0.5" d="M293.43 217.889C293.43 217.889 276.74 177.639 267.43 179.389C258.12 181.139 283.43 243.559 283.43 243.559C283.43 243.559 254.05 188.139 234.02 188.139C213.99 188.139 241.36 249.389 266.74 269.809C266.74 269.809 226.67 226.639 203.3 235.979C179.93 245.319 250.05 289.059 250.05 289.059C250.05 289.059 209.31 276.229 213.99 286.149C218.67 296.069 231.35 297.809 231.35 297.809L185.24 300.149H345.52L309.46 296.649C309.46 296.649 346.85 277.979 336.84 270.399C326.83 262.819 304.78 279.149 304.78 279.149C304.78 279.149 342.85 237.149 335.5 221.389C328.15 205.629 295.43 249.979 295.43 249.979C295.43 249.979 322.15 193.389 316.8 183.469C311.45 173.549 293.43 217.889 293.43 217.889Z" fill="white"/>
<path d="M298.77 220.01C284.08 263.42 284.08 294.14 284.08 294.14C284.08 294.14 301.44 294.8 319.47 281.45" stroke="#263238" stroke-linecap="round" stroke-linejoin="round"/>
<path d="M291.43 243.389C288.41 230.411 284.398 217.684 279.43 205.319" stroke="#263238" stroke-linecap="round" stroke-linejoin="round"/>
<path d="M248.02 218.01L285.42 273.44C285.42 273.44 310.79 252.07 319.47 240.05" stroke="#263238" stroke-linecap="round" stroke-linejoin="round"/>
<path d="M284.75 286.79C284.75 286.79 245.35 268.09 229.32 257.41" stroke="#263238" stroke-linecap="round" stroke-linejoin="round"/>
<path d="M266.47 1H112.07C108.342 1 105.32 4.02208 105.32 7.75V296.84C105.32 300.568 108.342 303.59 112.07 303.59H266.47C270.198 303.59 273.22 300.568 273.22 296.84V7.75C273.22 4.02208 270.198 1 266.47 1Z" fill="#263238" stroke="#263238" stroke-miterlimit="10"/>
<path d="M200.88 19.0801H179.98C179.698 19.0801 179.418 19.0245 179.158 18.9164C178.897 18.8084 178.66 18.65 178.46 18.4504C178.26 18.2507 178.102 18.0137 177.994 17.7528C177.886 17.492 177.83 17.2124 177.83 16.9301C177.83 16.6482 177.886 16.3691 177.994 16.1088C178.102 15.8485 178.261 15.6122 178.461 15.4133C178.66 15.2145 178.898 15.057 179.158 14.9501C179.419 14.8431 179.698 14.7887 179.98 14.7901H200.88C201.448 14.7901 201.992 15.0155 202.394 15.4169C202.795 15.8182 203.02 16.3625 203.02 16.9301C203.022 17.2119 202.967 17.4913 202.86 17.7521C202.753 18.0129 202.596 18.25 202.397 18.4497C202.198 18.6495 201.962 18.8081 201.702 18.9162C201.441 19.0244 201.162 19.0801 200.88 19.0801Z" fill="#9468B4"/>
<path d="M262.61 276.55H115.93V19.3301H150.7L154.61 22.5701C155.973 23.7095 157.694 24.3326 159.47 24.3301H220.81C222.651 24.3199 224.427 23.6452 225.81 22.4301L229.34 19.3301H262.58L262.61 276.55Z" fill="white" stroke="#263238" stroke-width="0.938618" stroke-linecap="round" stroke-linejoin="round"/>
<path d="M174.51 38.2903L172.51 31.5703H122.59V38.2903V262.89V269.62H256.4V38.2903H174.51Z" fill="#9468B4"/>
<path d="M251.69 50.4004H127.29V262.22H251.69V50.4004Z" fill="white"/>
<path d="M193.96 284.5C193.962 283.839 193.768 283.192 193.402 282.642C193.036 282.091 192.516 281.661 191.905 281.407C191.295 281.153 190.623 281.085 189.975 281.213C189.326 281.341 188.73 281.658 188.262 282.125C187.794 282.591 187.475 283.186 187.345 283.835C187.216 284.483 187.281 285.155 187.534 285.766C187.786 286.377 188.214 286.899 188.764 287.266C189.313 287.634 189.959 287.83 190.62 287.83C191.504 287.827 192.35 287.476 192.976 286.852C193.601 286.229 193.955 285.383 193.96 284.5Z" fill="#9468B4"/>
<path d="M180.149 252.969C202.771 252.969 221.109 226.876 221.109 194.689C221.109 162.502 202.771 136.409 180.149 136.409C157.528 136.409 139.189 162.502 139.189 194.689C139.189 226.876 157.528 252.969 180.149 252.969Z" fill="#9468B4"/>
<path opacity="0.5" d="M180.149 252.969C202.771 252.969 221.109 226.876 221.109 194.689C221.109 162.502 202.771 136.409 180.149 136.409C157.528 136.409 139.189 162.502 139.189 194.689C139.189 226.876 157.528 252.969 180.149 252.969Z" fill="white"/>
<path d="M185.959 129.639C185.959 129.639 183.399 125.359 181.049 125.149C178.699 124.939 150.719 142.499 146.439 151.639C142.159 160.779 138.109 179.119 149.439 196.769C160.489 213.939 177.809 213.369 186.789 212.509C195.769 211.649 201.789 208.729 210.889 201.429C219.989 194.129 228.339 183.379 229.549 176.079C230.759 168.779 226.309 164.719 223.469 163.709C220.629 162.699 204.199 162.899 192.229 150.709C180.259 138.519 185.959 129.639 185.959 129.639Z" fill="#263238" stroke="#263238" stroke-linecap="round" stroke-linejoin="round"/>
<path d="M189.589 124.079C189.589 124.079 182.329 126.859 177.839 131.769C173.349 136.679 170.579 144.379 170.369 155.699C170.159 167.019 173.789 179.829 187.879 185.389C201.969 190.949 214.579 186.669 218.639 182.819C222.699 178.969 227.639 168.089 227.639 168.089C227.639 168.089 205.219 174.089 194.539 161.459C183.859 148.829 189.589 124.079 189.589 124.079Z" fill="white" stroke="#263238" stroke-linecap="round" stroke-linejoin="round"/>
<path d="M315.069 131.969C309.589 123.749 296.509 121.319 286.169 117.969C275.829 114.619 269.739 107.969 272.479 91.5094C275.219 75.0494 289.479 48.3094 289.209 43.4394C288.939 38.5694 239.929 38.8794 235.359 40.4394C230.789 41.9994 229.889 41.6494 225.629 47.1294C223.269 50.0889 221.133 53.221 219.239 56.4994L224.519 45.3994H224.909C225.483 43.9406 226.298 42.5884 227.319 41.3994C231.966 36.0091 234.599 29.1739 234.769 22.0594C234.969 11.5894 227.519 12.5994 226.109 15.8194C224.699 19.0394 216.449 30.1194 214.029 33.1394C211.609 36.1594 206.579 44.4194 206.579 44.4194L200.989 63.7994C200.989 63.7994 199.769 69.5794 192.769 91.4894C185.769 113.399 188.819 123.499 188.819 123.499C188.819 123.499 186.989 122.589 182.729 135.669C178.469 148.749 180.299 165.479 187.899 173.389C195.499 181.299 205.549 180.999 216.809 176.439C223.736 173.472 229.505 168.324 233.239 161.779C233.239 161.779 245.109 158.779 253.929 152.049C262.749 145.319 269.439 138.359 282.239 138.969C295.039 139.579 309.619 146.879 314.489 146.569C319.359 146.259 320.549 140.179 315.069 131.969Z" fill="white"/>
<path d="M236.599 103.499C202.749 108.549 192.109 116.629 195.489 127.749C196.191 129.955 197.33 131.995 198.839 133.749C198.839 133.959 198.839 134.189 198.899 134.429C198.899 134.429 199.499 134.789 200.399 135.429C201.584 136.574 202.866 137.615 204.229 138.539C206.449 140.649 208.439 143.289 208.029 145.739C207.159 150.959 195.029 160.079 188.899 160.519C182.769 160.959 180.639 154.869 179.769 161.389C178.899 167.909 192.379 183.989 205.419 182.249C218.459 180.509 229.329 162.249 229.329 162.249C229.329 162.249 227.589 159.249 236.329 150.079C242.069 144.079 250.279 141.429 256.569 138.969C262.508 137.223 268.296 135.002 273.879 132.329C289.349 124.749 307.729 129.809 307.729 129.809C307.729 129.809 270.449 98.3895 236.599 103.499Z" fill="#9468B4"/>
<path opacity="0.5" d="M236.599 103.499C202.749 108.549 192.109 116.629 195.489 127.749C196.191 129.955 197.33 131.995 198.839 133.749C198.839 133.959 198.839 134.189 198.899 134.429C198.899 134.429 199.499 134.789 200.399 135.429C201.584 136.574 202.866 137.615 204.229 138.539C206.449 140.649 208.439 143.289 208.029 145.739C207.159 150.959 195.029 160.079 188.899 160.519C182.769 160.959 180.639 154.869 179.769 161.389C178.899 167.909 192.379 183.989 205.419 182.249C218.459 180.509 229.329 162.249 229.329 162.249C229.329 162.249 227.589 159.249 236.329 150.079C242.069 144.079 250.279 141.429 256.569 138.969C262.508 137.223 268.296 135.002 273.879 132.329C289.349 124.749 307.729 129.809 307.729 129.809C307.729 129.809 270.449 98.3895 236.599 103.499Z" fill="white"/>
<path d="M315.069 131.969C309.589 123.749 296.509 121.319 286.169 117.969C275.829 114.619 269.739 107.969 272.479 91.5094C275.219 75.0494 289.479 48.3094 289.209 43.4394C288.939 38.5694 239.929 38.8794 235.359 40.4394C230.789 41.9994 229.889 41.6494 225.629 47.1294C223.269 50.0889 221.133 53.221 219.239 56.4994L224.519 45.3994H224.909C225.483 43.9406 226.298 42.5884 227.319 41.3994C231.966 36.0091 234.599 29.1739 234.769 22.0594C234.969 11.5894 227.519 12.5994 226.109 15.8194C224.699 19.0394 216.449 30.1194 214.029 33.1394C211.609 36.1594 206.579 44.4194 206.579 44.4194L200.989 63.7994C200.989 63.7994 199.769 69.5794 192.769 91.4894C185.769 113.399 188.819 123.499 188.819 123.499C188.819 123.499 186.989 122.589 182.729 135.669C178.469 148.749 180.299 165.479 187.899 173.389C195.499 181.299 205.549 180.999 216.809 176.439C223.736 173.472 229.505 168.324 233.239 161.779C233.239 161.779 245.109 158.779 253.929 152.049C262.749 145.319 269.439 138.359 282.239 138.969C295.039 139.579 309.619 146.879 314.489 146.569C319.359 146.259 320.549 140.179 315.069 131.969Z" stroke="#263238" stroke-linecap="round" stroke-linejoin="round"/>
<path d="M315.239 146.499C315.239 146.499 315.879 143.939 308.619 140.499C301.359 137.059 298.369 139.429 298.369 141.139C298.369 142.849 314.119 146.499 315.239 146.499Z" fill="white" stroke="#263238" stroke-linecap="round" stroke-linejoin="round"/>
<path d="M246.449 29.3298L228.129 43.4298H252.699C252.699 43.4298 252.699 26.1098 246.449 29.3298Z" fill="white" stroke="#263238" stroke-linecap="round" stroke-linejoin="round"/>
<path d="M223.469 131.03C226.072 128.089 229.315 125.786 232.949 124.3" stroke="#263238" stroke-linecap="round" stroke-linejoin="round"/>
<path d="M220.139 136.499C220.42 135.686 220.786 134.905 221.229 134.169" stroke="#263238" stroke-linecap="round" stroke-linejoin="round"/>
<path d="M212.839 155.499C211.86 154.637 210.944 153.704 210.099 152.709" stroke="#263238" stroke-linecap="round" stroke-linejoin="round"/>
<path d="M233.239 161.779C227.589 162.422 221.881 161.253 216.939 158.439" stroke="#263238" stroke-linecap="round" stroke-linejoin="round"/>
<path d="M301.739 42.2197H209.419C196.669 42.2197 186.339 52.0897 186.339 64.2197V107.72C186.339 118.3 194.149 127.14 204.569 129.27L199.699 143.68L222.239 129.8H301.739C314.479 129.8 324.819 119.93 324.819 107.8V64.2997C324.819 52.0897 314.479 42.2197 301.739 42.2197Z" fill="#9468B4" stroke="#263238" stroke-width="2" stroke-miterlimit="10"/>
<path d="M201.369 71.5098H305.149" stroke="#263238" stroke-width="2.06409" stroke-miterlimit="10" stroke-linecap="round"/>
<path d="M201.369 82.1992H305.149" stroke="#263238" stroke-width="2.06409" stroke-miterlimit="10" stroke-linecap="round"/>
<path d="M201.369 92.8799H305.149" stroke="#263238" stroke-width="2.06409" stroke-miterlimit="10" stroke-linecap="round"/>
<path d="M201.369 103.56H305.149" stroke="#263238" stroke-width="2.06409" stroke-miterlimit="10" stroke-linecap="round"/>
<path d="M323.979 80.3495C331.087 80.3495 336.849 74.8471 336.849 68.0595C336.849 61.2719 331.087 55.7695 323.979 55.7695C316.872 55.7695 311.109 61.2719 311.109 68.0595C311.109 74.8471 316.872 80.3495 323.979 80.3495Z" fill="#263238"/>
<path d="M322.979 76.7397C322.556 75.8949 322.367 74.9524 322.429 74.0097V64.0097L320.169 65.2697C319.926 65.4104 319.651 65.4862 319.369 65.4897C319.159 65.4919 318.95 65.4493 318.757 65.3649C318.564 65.2804 318.391 65.156 318.249 64.9997C317.955 64.6939 317.793 64.2842 317.799 63.8597C317.793 63.5713 317.877 63.288 318.039 63.0497C318.273 62.7706 318.55 62.5308 318.859 62.3397L323.239 60.0997C323.729 59.7489 324.301 59.5318 324.899 59.4697C326.389 59.4697 327.129 60.5897 327.129 62.8297V74.3597C327.129 76.5497 326.349 77.6397 324.779 77.6397C324.426 77.6709 324.07 77.6034 323.752 77.4445C323.434 77.2856 323.167 77.0416 322.979 76.7397Z" fill="white"/>
<path d="M274.599 35.7793C274.599 35.7793 275.009 43.8293 282.259 47.6593C289.509 51.4893 298.769 50.6593 298.969 45.8493C299.169 41.0393 293.529 35.9793 289.709 29.5293C285.889 23.0793 277.419 26.7193 273.799 31.1493" fill="white"/>
<path d="M274.599 35.7793C274.599 35.7793 275.009 43.8293 282.259 47.6593C289.509 51.4893 298.769 50.6593 298.969 45.8493C299.169 41.0393 293.529 35.9793 289.709 29.5293C285.889 23.0793 277.419 26.7193 273.799 31.1493" stroke="#263238" stroke-linecap="round" stroke-linejoin="round"/>
<path d="M287.089 42.219C286.479 45.439 288.699 47.219 290.709 48.219C292.719 49.219 296.709 48.629 298.969 45.809C299.069 43.449 297.779 41.049 295.969 38.459C293.449 38.779 287.559 39.699 287.089 42.219Z" fill="white" stroke="#263238" stroke-linecap="round" stroke-linejoin="round"/>
<path d="M259.499 35.7793C259.499 35.7793 259.899 43.8293 267.149 47.6593C274.399 51.4893 283.669 50.6593 283.869 45.8493C284.069 41.0393 278.429 35.9793 274.599 29.5293C270.769 23.0793 262.319 26.7193 258.689 31.1493" fill="white"/>
<path d="M259.499 35.7793C259.499 35.7793 259.899 43.8293 267.149 47.6593C274.399 51.4893 283.669 50.6593 283.869 45.8493C284.069 41.0393 278.429 35.9793 274.599 29.5293C270.769 23.0793 262.319 26.7193 258.689 31.1493" stroke="#263238" stroke-linecap="round" stroke-linejoin="round"/>
<path d="M271.989 42.219C271.379 45.439 273.599 47.219 275.609 48.219C277.619 49.219 281.609 48.629 283.869 45.809C283.959 43.449 282.669 41.049 280.869 38.459C278.349 38.779 272.459 39.699 271.989 42.219Z" fill="white" stroke="#263238" stroke-linecap="round" stroke-linejoin="round"/>
<path d="M245.449 35.7793C245.449 35.7793 245.849 43.8293 253.099 47.6593C260.349 51.4893 269.609 50.6593 269.809 45.8493C270.009 41.0393 264.379 35.9793 260.549 29.5293C256.719 23.0793 248.259 26.7193 244.639 31.1493" fill="white"/>
<path d="M245.449 35.7793C245.449 35.7793 245.849 43.8293 253.099 47.6593C260.349 51.4893 269.609 50.6593 269.809 45.8493C270.009 41.0393 264.379 35.9793 260.549 29.5293C256.719 23.0793 248.259 26.7193 244.639 31.1493" stroke="#263238" stroke-linecap="round" stroke-linejoin="round"/>
<path d="M257.929 42.219C257.329 45.439 259.539 47.219 261.559 48.219C263.579 49.219 267.559 48.629 269.809 45.809C269.909 43.449 268.619 41.049 266.809 38.459C264.289 38.779 258.399 39.699 257.929 42.219Z" fill="white" stroke="#263238" stroke-linecap="round" stroke-linejoin="round"/>
<path d="M188.819 123.499C188.819 123.499 189.379 135.879 196.209 144.209" stroke="#263238" stroke-linecap="round" stroke-linejoin="round"/>
<path d="M168.939 175.169C168.939 177.689 167.259 179.729 165.189 179.729C163.119 179.729 161.439 177.729 161.439 175.169C161.439 172.609 163.119 170.609 165.189 170.609C167.259 170.609 168.939 172.649 168.939 175.169Z" fill="white"/>
<path d="M159.609 180.849C159.609 183.369 157.929 185.409 155.859 185.409C153.789 185.409 152.109 183.409 152.109 180.849C152.109 178.289 153.789 176.279 155.859 176.279C157.929 176.279 159.609 178.329 159.609 180.849Z" stroke="#263238" stroke-linecap="round" stroke-linejoin="round"/>
</svg>
