<svg width="587" height="384" viewBox="0 0 587 384" fill="none" xmlns="http://www.w3.org/2000/svg">
<g clip-path="url(#clip0)">
<path opacity="0.15" d="M29.1653 374.889C29.1653 374.889 -16.3761 327.204 6.39459 255.095C29.1653 182.986 121.702 155.461 134.298 130.94C146.895 106.419 149.705 49.7201 190.208 20.1592C237.784 -14.5384 306.387 -2.52021 338.266 41.4818C370.145 85.4838 398.923 140.923 439.813 145.478C480.704 150.033 521.4 145.575 554.345 209.058C587.29 272.541 546.109 360.351 533.512 375.374" fill="#9468B4"/>
<path d="M475.472 94.595C475.472 94.2073 475.375 93.9166 475.181 93.6258C475.084 93.432 474.988 93.2381 474.891 93.0443C474.794 92.8505 474.6 92.6566 474.503 92.5597C474.406 92.4628 474.406 92.3659 474.309 92.3659C474.212 92.2689 474.115 92.172 474.019 92.172C473.922 92.0751 473.825 91.9782 473.631 91.9782C473.34 91.7843 473.05 91.6874 472.759 91.5905C472.662 91.5905 472.565 91.4936 472.468 91.4936C472.081 91.3966 471.693 91.3966 471.305 91.4936H471.209C470.918 91.4936 470.627 91.4936 470.433 91.4936C469.755 91.3966 469.174 91.2028 468.592 90.8151C468.495 90.7182 468.399 90.7182 468.302 90.6213C468.205 90.5244 468.108 90.4274 468.011 90.3305C467.914 90.2336 467.72 90.0398 467.623 89.9428C467.526 89.8459 467.43 89.6521 467.333 89.4582C467.333 89.3613 467.236 89.2644 467.236 89.1675C467.236 89.0705 467.139 88.9736 467.139 88.9736C466.848 88.2952 466.654 87.6167 466.267 87.0352C466.17 86.9383 466.17 86.8414 466.17 86.6475C465.976 86.1629 465.976 85.6783 465.976 85.1937C466.073 84.806 466.17 84.4183 466.364 84.0307C466.557 83.643 466.751 83.3522 467.139 83.0615C467.236 82.9645 467.333 82.8676 467.43 82.7707L467.526 82.6738C467.623 82.5769 467.72 82.4799 467.817 82.383C468.108 82.0922 468.302 81.8015 468.495 81.5107C468.592 81.3169 468.689 81.22 468.689 81.0261C468.786 80.8323 468.786 80.7354 468.883 80.5415C469.077 79.5723 468.883 78.5062 468.205 77.6339C467.43 76.6647 466.654 75.7924 465.879 75.017C465.007 74.1447 464.135 73.3694 463.166 72.594C462.294 71.9156 461.131 71.7217 460.162 71.9156C460.065 71.9156 459.872 72.0125 459.775 72.0125C459.29 72.2063 458.806 72.4971 458.418 72.8848C458.321 72.9817 458.224 73.0786 458.127 73.1755L458.031 73.2725C457.643 73.854 457.062 74.2417 456.383 74.5324C456.19 74.6293 455.899 74.6293 455.608 74.7263H455.511C455.414 74.7263 455.414 74.7263 455.317 74.7263C455.027 74.7263 454.833 74.7263 454.542 74.7263C454.349 74.7263 454.155 74.6293 453.961 74.6293C453.864 74.6293 453.767 74.5324 453.573 74.5324C453.38 74.4355 453.283 74.4355 453.089 74.3386C452.895 74.2417 452.701 74.1447 452.411 74.0478C452.023 73.854 451.635 73.7571 451.248 73.6601C449.794 73.0786 448.922 71.6248 449.019 70.0741V69.9771V69.6864C449.31 67.8449 448.05 66.1003 446.306 65.7126C446.209 65.7126 446.015 65.6157 445.919 65.6157C444.756 65.5188 443.593 65.4219 442.333 65.4219C441.074 65.4219 439.911 65.5188 438.748 65.6157C436.81 65.8096 435.454 67.5541 435.647 69.4925C435.647 69.5895 435.647 69.6864 435.647 69.7833C435.647 69.9772 435.647 70.171 435.647 70.2679C435.647 71.6248 434.872 72.8848 433.613 73.4663C433.516 73.4663 433.419 73.5632 433.322 73.5632C432.934 73.6601 432.547 73.854 432.256 73.9509C431.965 74.0478 431.675 74.2417 431.384 74.3386C431.287 74.3386 431.287 74.4355 431.19 74.4355C429.64 75.114 427.896 74.6293 426.83 73.2725C425.667 71.7217 423.632 71.334 422.082 72.4002C421.985 72.4971 421.888 72.594 421.791 72.594C420.919 73.2725 420.047 74.0478 419.175 74.9201C418.303 75.7924 417.528 76.6647 416.85 77.537C416.074 78.5062 415.881 79.7661 416.268 80.8323C416.365 81.123 416.462 81.5107 416.656 81.8015C416.849 81.9953 416.946 82.2861 417.14 82.4799C417.237 82.5768 417.334 82.6738 417.528 82.7707C418.884 83.7399 419.369 85.5814 418.691 87.1321C418.4 87.8106 418.109 88.5859 417.818 89.3613C417.625 89.8459 417.431 90.2336 417.14 90.5244C416.946 90.7182 416.753 90.912 416.559 91.009C416.365 91.1059 416.074 91.2997 415.881 91.3966C415.687 91.4936 415.493 91.4936 415.396 91.5905C415.008 91.6874 414.524 91.6874 414.039 91.5905C413.846 91.5905 413.652 91.5905 413.555 91.5905C413.361 91.5905 413.071 91.5905 412.877 91.6874C411.326 91.9782 410.164 93.1412 409.97 94.7889C409.873 95.9519 409.776 97.115 409.776 98.278C409.776 99.4411 409.873 100.604 409.97 101.767C410.164 103.415 411.423 104.675 412.877 104.869C413.264 104.966 413.652 104.966 414.039 104.869C414.233 104.869 414.427 104.869 414.524 104.869C415.299 104.869 415.977 105.062 416.559 105.45C416.656 105.547 416.849 105.644 416.946 105.741C417.334 106.129 417.625 106.516 417.818 107.098C418.109 107.873 418.4 108.552 418.691 109.327C419.369 110.684 418.981 112.332 417.915 113.398C417.818 113.495 417.722 113.591 417.625 113.688C417.528 113.785 417.431 113.882 417.237 113.979C417.043 114.173 416.85 114.367 416.753 114.658C416.559 114.948 416.462 115.239 416.365 115.627C416.365 115.724 416.268 115.821 416.268 115.918C416.268 116.015 416.268 116.111 416.171 116.208C416.171 116.305 416.171 116.402 416.171 116.596V116.693C416.171 116.887 416.171 116.984 416.171 117.178C416.171 117.371 416.268 117.468 416.268 117.662C416.268 117.662 416.268 117.662 416.268 117.759C416.268 117.856 416.268 117.856 416.365 117.953C416.462 118.05 416.462 118.147 416.559 118.341C416.559 118.341 416.559 118.341 416.559 118.438V118.534C416.656 118.728 416.753 118.825 416.85 118.922C417.528 119.794 418.303 120.667 419.175 121.539C420.047 122.411 420.919 123.187 421.791 123.865C422.566 124.447 423.438 124.737 424.311 124.64C424.601 124.64 424.892 124.544 425.183 124.447C425.861 124.253 426.442 123.768 426.83 123.187L427.121 122.896C427.508 122.508 427.993 122.121 428.477 122.024L429.737 121.83C430.221 121.83 430.706 121.927 431.19 122.121C431.868 122.411 432.644 122.799 433.322 122.993C434 123.284 434.582 123.768 435.066 124.35C435.163 124.544 435.357 124.834 435.454 125.028C435.647 125.61 435.744 126.288 435.647 126.87C435.357 128.711 436.616 130.553 438.457 130.843C438.554 130.843 438.651 130.94 438.845 130.94C440.008 131.037 441.171 131.134 442.333 131.134C443.496 131.134 444.659 131.037 445.822 130.94C446.694 130.843 447.469 130.456 447.953 129.874C448.147 129.68 448.341 129.39 448.535 129.099C448.632 129.002 448.632 128.808 448.729 128.711C448.922 128.13 449.019 127.548 448.922 126.87C448.922 126.676 448.922 126.482 448.922 126.385C448.922 124.931 449.794 123.574 451.248 122.993C452.023 122.702 452.701 122.411 453.38 122.121C454.348 121.636 455.511 121.733 456.48 122.217C456.771 122.314 456.965 122.508 457.158 122.702C457.255 122.799 457.352 122.896 457.449 122.993C457.546 123.09 457.643 123.187 457.74 123.284C458.903 124.834 460.937 125.125 462.488 124.156C462.585 124.059 462.682 123.962 462.779 123.962C463.651 123.187 464.523 122.411 465.395 121.636C466.267 120.764 467.042 119.891 467.72 119.019C468.495 118.05 468.689 116.79 468.302 115.724C468.302 115.53 468.205 115.433 468.108 115.239C468.011 115.045 467.914 114.948 467.817 114.755C467.623 114.561 467.526 114.27 467.333 114.076C467.236 113.979 467.139 113.882 466.945 113.785C466.848 113.688 466.751 113.591 466.654 113.495C465.589 112.428 465.201 110.781 465.879 109.424C466.267 108.745 466.557 107.97 466.751 107.195C467.333 105.644 468.98 104.675 470.627 104.966C471.499 105.062 472.371 104.869 473.05 104.481C473.243 104.384 473.437 104.19 473.534 104.093C473.631 103.996 473.728 103.899 473.728 103.899C473.825 103.802 473.825 103.802 473.922 103.706C474.309 103.221 474.6 102.543 474.697 101.864C474.794 100.701 474.891 99.538 474.891 98.3749C475.666 96.9211 475.569 95.7581 475.472 94.595ZM460.162 99.8287C460.162 99.9257 460.162 99.9257 460.162 100.023C460.162 100.313 460.065 100.604 460.065 100.895C460.065 101.186 459.969 101.476 459.872 101.767C459.775 102.349 459.581 102.93 459.387 103.512C459.29 103.803 459.193 104.19 459 104.481C458.903 104.772 458.709 105.062 458.612 105.353C458.515 105.547 458.418 105.741 458.321 106.032C458.031 106.613 457.74 107.195 457.352 107.679C457.255 107.776 457.159 107.97 457.062 108.067C457.062 108.164 456.965 108.164 456.965 108.261C456.868 108.455 456.771 108.552 456.577 108.745C456.48 108.939 456.286 109.133 456.093 109.327C455.802 109.715 455.414 110.102 455.124 110.393C455.027 110.587 454.833 110.684 454.639 110.878C454.445 110.975 454.349 111.168 454.155 111.265C453.961 111.459 453.67 111.653 453.476 111.847C452.895 112.332 452.314 112.719 451.635 113.107C451.442 113.204 451.248 113.301 451.054 113.398C450.86 113.495 450.57 113.688 450.376 113.785C450.182 113.882 449.891 113.979 449.697 114.076C449.31 114.27 448.922 114.367 448.535 114.561C448.341 114.658 448.147 114.755 447.856 114.755C447.372 114.948 446.887 115.045 446.403 115.142C446.209 115.239 445.918 115.239 445.725 115.239C445.434 115.336 445.24 115.336 444.95 115.336C443.69 115.53 442.527 115.53 441.267 115.433C440.977 115.433 440.783 115.433 440.492 115.336C440.202 115.336 440.008 115.239 439.717 115.239C439.426 115.239 439.233 115.142 438.942 115.142C438.167 114.948 437.295 114.755 436.52 114.464C436.326 114.367 436.132 114.27 435.938 114.173C435.938 114.173 435.938 114.173 435.841 114.173C435.647 114.076 435.357 113.979 435.163 113.882C435.163 113.882 435.163 113.882 435.066 113.882C434.775 113.785 434.582 113.688 434.388 113.495C433.903 113.204 433.419 112.913 432.934 112.622C432.741 112.525 432.547 112.332 432.256 112.138C432.062 111.944 431.868 111.847 431.675 111.653C431.384 111.459 431.19 111.168 430.9 110.975C430.609 110.781 430.415 110.49 430.124 110.296C429.931 110.102 429.737 109.909 429.543 109.618C428.865 108.842 428.283 107.97 427.702 107.195C427.605 106.904 427.411 106.71 427.314 106.419C427.121 106.129 427.024 105.838 426.927 105.547C426.83 105.353 426.733 105.256 426.733 105.062C426.636 104.966 426.636 104.869 426.636 104.772C426.539 104.675 426.539 104.481 426.442 104.384C426.345 104.19 426.345 103.996 426.248 103.802C426.248 103.706 426.152 103.609 426.152 103.609C426.055 103.415 425.958 103.124 425.958 102.93C425.861 102.543 425.764 102.252 425.667 101.864C425.57 101.67 425.57 101.379 425.57 101.186C425.473 100.798 425.473 100.41 425.376 99.9257C425.28 99.3441 425.279 98.7626 425.279 98.1811C425.279 97.5996 425.28 97.018 425.376 96.4365C425.376 96.3396 425.376 96.3396 425.376 96.2427C425.376 95.9519 425.473 95.6612 425.473 95.3704C425.57 95.0796 425.57 94.7889 425.667 94.4981C425.764 93.9166 425.958 93.3351 426.152 92.7535C426.248 92.5597 426.345 92.2689 426.442 92.0751C426.539 91.8812 426.539 91.6874 426.636 91.5905C426.733 91.4936 426.733 91.2997 426.83 91.2028C426.927 91.009 426.927 90.912 427.024 90.7182C427.217 90.2336 427.508 89.8459 427.702 89.4582C427.799 89.2644 427.993 89.0705 428.089 88.8767C428.089 88.8767 428.089 88.8767 428.089 88.7798C428.186 88.5859 428.38 88.3921 428.477 88.1983C428.671 87.9075 428.865 87.7136 429.058 87.4229C429.252 87.229 429.446 86.9383 429.64 86.7444C429.834 86.5506 430.027 86.2598 430.221 86.066C431.287 84.9999 432.547 84.0307 433.806 83.2553C434 83.1584 434.194 82.9645 434.485 82.8676C434.678 82.7707 434.969 82.6738 435.163 82.5768C435.357 82.4799 435.551 82.383 435.841 82.2861C436.229 82.0922 436.616 81.9953 437.101 81.8015C437.295 81.7046 437.488 81.7046 437.682 81.6076C437.973 81.5107 438.167 81.5107 438.361 81.4138C438.651 81.3169 438.845 81.3169 439.039 81.22C439.33 81.123 439.523 81.123 439.717 81.123C440.008 81.123 440.202 81.0261 440.492 81.0261C440.783 81.0261 440.977 80.9292 441.267 80.9292C442.236 80.8323 443.205 80.8323 444.174 80.9292C444.465 80.9292 444.659 80.9292 444.95 81.0261C445.24 81.0261 445.434 81.123 445.725 81.123C446.015 81.123 446.209 81.22 446.5 81.22C447.081 81.3169 447.663 81.5107 448.244 81.7046C448.438 81.8015 448.535 81.8015 448.729 81.8984C449.504 82.1892 450.376 82.5768 451.151 82.9645C451.442 83.0615 451.635 83.2553 451.926 83.3522C452.12 83.4491 452.411 83.643 452.604 83.8368C452.798 84.0307 453.089 84.1276 453.283 84.3214C453.283 84.3214 453.38 84.3214 453.38 84.4183C453.573 84.6122 453.767 84.7091 454.058 84.9029C454.252 85.0968 454.445 85.2906 454.639 85.3876C455.124 85.7752 455.511 86.1629 455.899 86.6475C456.093 86.8414 456.19 87.0352 456.383 87.1321C456.674 87.4229 456.868 87.7137 457.062 88.0044C457.159 88.1983 457.255 88.2952 457.352 88.489C457.74 89.0705 458.031 89.5551 458.321 90.1367C458.418 90.3305 458.612 90.6213 458.709 90.8151C458.709 90.912 458.709 90.912 458.806 90.912C458.903 91.2028 459 91.3966 459.096 91.6874C459.096 91.6874 459.096 91.7843 459.193 91.7843C459.29 91.9782 459.387 92.172 459.387 92.4628C459.387 92.5597 459.484 92.7535 459.484 92.8505C459.678 93.432 459.872 94.0135 459.969 94.595C459.969 94.7889 460.065 94.8858 460.065 95.0796C460.162 95.5642 460.259 95.9519 460.259 96.4365C460.356 97.018 460.356 97.5996 460.356 98.1811C460.259 98.6657 460.259 99.2472 460.162 99.8287Z" fill="#9468B4"/>
<path d="M417.431 67.2636C417.431 67.0697 417.334 66.8759 417.237 66.6821C417.14 66.5851 417.14 66.3913 417.043 66.2944C416.946 66.1975 416.849 66.1005 416.752 66.0036C416.655 65.9067 416.655 65.9067 416.655 65.9067C416.558 65.8098 416.558 65.8098 416.462 65.8098C416.365 65.7129 416.365 65.7129 416.268 65.7129C416.074 65.6159 415.88 65.519 415.783 65.519C415.686 65.519 415.686 65.519 415.59 65.519C415.396 65.519 415.105 65.4221 414.814 65.519H414.717C414.524 65.519 414.33 65.519 414.233 65.519C413.845 65.519 413.458 65.3252 413.07 65.1313C412.973 65.1313 412.973 65.0344 412.876 65.0344C412.78 65.0344 412.779 64.9375 412.683 64.8406C412.586 64.7436 412.489 64.6467 412.489 64.5498C412.392 64.4529 412.392 64.356 412.295 64.259C412.295 64.1621 412.198 64.1621 412.198 64.0652C412.198 63.9683 412.198 63.9683 412.101 63.9683C411.907 63.5806 411.811 63.096 411.617 62.7083C411.617 62.6114 411.52 62.5145 411.52 62.5145C411.423 62.2237 411.423 61.9329 411.423 61.5453C411.423 61.2545 411.52 61.0607 411.617 60.7699C411.714 60.5761 411.907 60.2853 412.101 60.1884C412.198 60.0915 412.198 60.0915 412.295 59.9945C412.392 59.9945 412.392 59.8976 412.489 59.8007C412.683 59.6068 412.78 59.413 412.876 59.2192C412.973 59.1222 412.973 59.0253 412.973 58.9284C412.973 58.8315 413.07 58.7346 413.07 58.6376C413.167 58.0561 413.07 57.3777 412.683 56.7961C412.198 56.2146 411.714 55.6331 411.229 55.1485C410.648 54.567 410.163 54.0824 409.582 53.6947C409.001 53.2101 408.322 53.1132 407.741 53.307C407.644 53.307 407.547 53.4039 407.45 53.4039C407.159 53.5008 406.869 53.6947 406.578 53.9854C406.481 54.0824 406.481 54.0824 406.384 54.1793V54.2762C406.094 54.6639 405.803 54.8577 405.318 55.0516C405.125 55.1485 405.028 55.1485 404.834 55.1485C404.834 55.1485 404.834 55.1485 404.737 55.1485H404.64C404.446 55.1485 404.349 55.1485 404.156 55.1485C404.059 55.1485 403.962 55.1485 403.768 55.0516C403.671 55.0516 403.574 54.9547 403.574 54.9547C403.477 54.9547 403.381 54.8577 403.284 54.8577C403.187 54.7608 402.993 54.7608 402.896 54.6639C402.702 54.567 402.412 54.47 402.218 54.3731C401.346 53.9854 400.764 53.1132 400.861 52.144V51.9501C401.055 50.7871 400.28 49.7209 399.214 49.4302C399.117 49.4302 399.02 49.4302 398.923 49.3333C398.148 49.2363 397.47 49.2363 396.695 49.2363C395.919 49.2363 395.241 49.2363 394.466 49.3333C393.303 49.4302 392.431 50.5932 392.528 51.7563C392.528 51.8532 392.528 51.8532 392.528 51.9501C392.528 52.047 392.528 52.144 392.528 52.2409C392.528 53.1132 392.044 53.8885 391.268 54.2762C391.172 54.2762 391.172 54.3731 391.075 54.3731C390.881 54.47 390.59 54.567 390.396 54.6639C390.203 54.7608 390.009 54.8577 389.815 54.8577C389.815 54.8577 389.718 54.8577 389.718 54.9547C388.749 55.4393 387.586 55.0516 387.005 54.2762C386.327 53.307 384.97 53.1132 384.001 53.6947C383.904 53.6947 383.904 53.7916 383.807 53.7916C383.226 54.2762 382.645 54.7608 382.16 55.2454C381.676 55.73 381.094 56.3115 380.707 56.8931C380.222 57.4746 380.125 58.25 380.319 58.9284C380.416 59.1222 380.513 59.3161 380.61 59.5099C380.707 59.7038 380.804 59.8007 380.9 59.8976C380.997 59.9945 380.997 59.9945 381.094 60.0915C381.966 60.673 382.257 61.836 381.773 62.8052C381.579 63.2898 381.385 63.6775 381.191 64.1621C381.094 64.4529 380.9 64.6467 380.707 64.9375C380.61 65.0344 380.416 65.1313 380.319 65.2283C380.222 65.3252 380.028 65.4221 379.835 65.4221C379.738 65.4221 379.641 65.519 379.544 65.519C379.253 65.6159 378.963 65.6159 378.672 65.519C378.575 65.519 378.478 65.519 378.381 65.519C378.284 65.519 378.09 65.519 377.994 65.519C377.025 65.7129 376.249 66.4882 376.153 67.4574C376.056 68.1359 376.056 68.9112 376.056 69.6866C376.056 70.462 376.056 71.1404 376.153 71.9158C376.249 72.885 377.025 73.6604 377.994 73.8542C378.187 73.8542 378.478 73.9511 378.769 73.8542C378.866 73.8542 378.963 73.8542 379.059 73.8542C379.544 73.8542 379.931 73.9511 380.319 74.2419C380.416 74.3388 380.513 74.3388 380.61 74.4357C380.9 74.6296 381.094 74.9203 381.191 75.308C381.385 75.7926 381.579 76.1803 381.773 76.6649C382.16 77.5372 381.966 78.6033 381.288 79.1848C381.191 79.2818 381.191 79.2818 381.094 79.3787C380.997 79.4756 380.9 79.4756 380.9 79.5725C380.804 79.6694 380.707 79.8633 380.61 79.9602C380.513 80.154 380.416 80.3479 380.319 80.5417C380.319 80.6386 380.319 80.6387 380.319 80.7356C380.319 80.8325 380.319 80.8325 380.319 80.9294C380.319 81.0263 380.319 81.1233 380.319 81.1233C380.319 81.1233 380.319 81.1233 380.319 81.2202C380.319 81.3171 380.319 81.414 380.319 81.5109C380.319 81.6079 380.416 81.7048 380.416 81.8017V81.8986C380.416 81.9955 380.513 82.0925 380.513 82.0925C380.61 82.1894 380.61 82.2863 380.707 82.3832C381.191 82.9647 381.676 83.5463 382.16 84.0309C382.645 84.5155 383.226 85.0001 383.807 85.4847C384.292 85.8724 384.873 85.9693 385.358 85.9693C385.552 85.9693 385.745 85.8724 385.939 85.8724C386.327 85.7754 386.714 85.4847 387.005 85.097L387.199 84.9032C387.489 84.6124 387.78 84.4186 388.071 84.3216L388.846 84.2247C389.137 84.2247 389.427 84.3216 389.718 84.4186C390.203 84.6124 390.59 84.8062 391.075 85.0001C391.559 85.1939 391.85 85.4847 392.141 85.8724C392.237 85.9693 392.334 86.1631 392.334 86.357C392.431 86.7447 392.528 87.1323 392.431 87.52C392.237 88.6831 393.013 89.7492 394.175 90.04C394.272 90.04 394.272 90.04 394.369 90.04C395.047 90.1369 395.823 90.1369 396.598 90.1369C397.373 90.1369 398.051 90.1369 398.826 90.04C399.408 89.943 399.795 89.7492 400.183 89.3615C400.28 89.1677 400.474 89.0708 400.571 88.8769C400.667 88.78 400.667 88.6831 400.667 88.5862C400.764 88.1985 400.861 87.8108 400.764 87.4231C400.764 87.3262 400.764 87.2293 400.764 87.1323C400.764 86.1631 401.346 85.3878 402.218 85.0001C402.702 84.8062 403.09 84.6124 403.574 84.4186C404.156 84.1278 404.931 84.1278 405.512 84.4186C405.706 84.5155 405.803 84.6124 405.997 84.7093C406.094 84.8062 406.094 84.8062 406.191 84.9032C406.287 85.0001 406.287 85.0001 406.384 85.097C407.063 86.0662 408.419 86.2601 409.388 85.6785C409.485 85.6785 409.485 85.5816 409.582 85.4847C410.163 85.0001 410.745 84.5155 411.229 84.0309C411.714 83.5463 412.198 82.9647 412.683 82.3832C413.167 81.8017 413.264 81.0263 413.07 80.3479C413.07 80.251 412.973 80.154 412.973 80.0571C412.973 79.9602 412.876 79.8633 412.78 79.7664C412.683 79.5725 412.586 79.4756 412.489 79.3787C412.392 79.2818 412.392 79.2818 412.295 79.1848C412.198 79.0879 412.198 79.0879 412.101 78.991C411.423 78.3126 411.229 77.3433 411.617 76.4711C411.811 75.9865 412.004 75.5988 412.198 75.1142C412.586 74.145 413.555 73.5634 414.621 73.6604C415.202 73.7573 415.686 73.6604 416.171 73.3696C416.268 73.2727 416.365 73.1758 416.462 73.1758C416.462 73.0788 416.558 73.0788 416.655 73.0788L416.752 72.9819C417.043 72.6912 417.237 72.3035 417.237 71.8189C417.334 71.1404 417.334 70.3651 417.334 69.5897C417.527 68.7174 417.431 68.039 417.431 67.2636ZM407.838 70.5589V70.6558C407.838 70.8497 407.741 71.0435 407.741 71.2373C407.741 71.4312 407.644 71.625 407.644 71.8189C407.547 72.2065 407.45 72.4973 407.353 72.885C407.256 73.0788 407.16 73.2727 407.16 73.4665C407.063 73.6604 406.966 73.8542 406.966 74.048C406.869 74.145 406.869 74.3388 406.772 74.4357C406.578 74.8234 406.384 75.1142 406.191 75.5019C406.094 75.5988 406.094 75.6957 405.997 75.7926C405.997 75.7926 405.997 75.8895 405.9 75.8895C405.803 75.9865 405.803 76.0834 405.706 76.1803C405.609 76.2772 405.512 76.3741 405.415 76.568C405.222 76.7618 405.028 77.0526 404.834 77.2464C404.737 77.3433 404.64 77.4403 404.543 77.5372C404.446 77.6341 404.349 77.731 404.253 77.828C404.059 77.9249 403.962 78.1187 403.768 78.2156C403.381 78.5064 402.993 78.7972 402.605 78.991C402.508 79.0879 402.315 79.1848 402.218 79.1848C402.024 79.2818 401.927 79.3787 401.733 79.3787C401.636 79.4756 401.443 79.4756 401.346 79.5725C401.152 79.6694 400.861 79.7664 400.667 79.8633C400.571 79.9602 400.377 79.9602 400.28 79.9602C399.989 80.0571 399.698 80.154 399.408 80.154C399.214 80.154 399.117 80.251 398.923 80.251C398.729 80.251 398.633 80.3479 398.439 80.3479C397.664 80.4448 396.888 80.4448 396.113 80.4448C395.919 80.4448 395.823 80.4448 395.629 80.3479C395.435 80.3479 395.338 80.3479 395.144 80.251C394.95 80.251 394.854 80.154 394.66 80.154C394.175 80.0571 393.594 79.8633 393.109 79.6694C393.013 79.5725 392.819 79.5725 392.722 79.4756C392.722 79.4756 392.722 79.4756 392.625 79.4756C392.431 79.3787 392.334 79.3787 392.237 79.2818C392.237 79.2818 392.237 79.2818 392.141 79.2818C391.947 79.1848 391.85 79.0879 391.656 79.0879C391.365 78.8941 391.075 78.7002 390.784 78.5064C390.687 78.4095 390.493 78.3125 390.396 78.2156C390.299 78.1187 390.106 78.0218 390.009 77.9249C389.815 77.828 389.718 77.6341 389.524 77.5372C389.33 77.4403 389.234 77.2464 389.04 77.0526C388.943 76.9557 388.749 76.7618 388.652 76.6649C388.265 76.1803 387.877 75.6957 387.489 75.1142C387.393 74.9203 387.296 74.8234 387.199 74.6296C387.102 74.4357 387.005 74.2419 386.908 74.145C386.811 74.048 386.811 73.9511 386.811 73.8542C386.811 73.7573 386.714 73.7573 386.714 73.6604C386.714 73.5634 386.617 73.4665 386.617 73.3696C386.617 73.2727 386.52 73.1758 386.52 72.9819C386.52 72.9819 386.52 72.885 386.424 72.885C386.327 72.6911 386.327 72.5942 386.327 72.4004C386.23 72.2065 386.23 71.9158 386.133 71.7219C386.133 71.625 386.036 71.4312 386.036 71.3343C386.036 71.0435 385.939 70.8497 385.939 70.5589C385.939 70.1712 385.842 69.7835 385.842 69.3958C385.842 69.0082 385.842 68.6205 385.939 68.3297V68.2328C385.939 68.039 385.939 67.8451 386.036 67.6513C386.036 67.4574 386.133 67.2636 386.133 67.0697C386.23 66.6821 386.327 66.3913 386.424 66.0036C386.52 65.8098 386.52 65.7129 386.617 65.519C386.617 65.4221 386.714 65.3252 386.714 65.2283C386.714 65.1313 386.811 65.0344 386.811 65.0344C386.811 64.9375 386.908 64.8406 386.908 64.7437C387.005 64.4529 387.199 64.1621 387.393 63.9683C387.489 63.8714 387.586 63.6775 387.586 63.5806C387.683 63.4837 387.78 63.2898 387.877 63.1929C387.974 62.9991 388.071 62.9022 388.265 62.7083C388.362 62.5145 388.555 62.4175 388.652 62.2237C388.749 62.0299 388.943 61.9329 389.04 61.836C389.718 61.1576 390.493 60.5761 391.268 60.0915C391.365 59.9945 391.559 59.8976 391.656 59.8976C391.753 59.8976 391.947 59.8007 392.044 59.7038C392.14 59.6068 392.334 59.6069 392.431 59.5099C392.722 59.413 392.916 59.3161 393.206 59.2192C393.303 59.1222 393.497 59.1222 393.594 59.1222C393.788 59.1222 393.885 59.0253 394.078 59.0253C394.272 59.0253 394.369 58.9284 394.563 58.9284C394.757 58.9284 394.854 58.8315 395.047 58.8315C395.241 58.8315 395.338 58.7346 395.532 58.7346C395.726 58.7346 395.823 58.7346 396.016 58.7346C396.598 58.6376 397.276 58.6376 397.857 58.7346C398.051 58.7346 398.148 58.7346 398.342 58.7346C398.536 58.7346 398.633 58.7346 398.826 58.8315C399.02 58.8315 399.117 58.9284 399.311 58.9284C399.698 59.0253 400.086 59.1222 400.474 59.2192C400.57 59.2192 400.667 59.3161 400.764 59.3161C401.249 59.5099 401.733 59.7038 402.218 59.9945C402.412 60.0915 402.508 60.1884 402.702 60.2853C402.896 60.3822 402.993 60.4791 403.09 60.5761C403.187 60.673 403.381 60.7699 403.477 60.8668C403.477 60.8668 403.477 60.8668 403.574 60.8668C403.671 60.9637 403.865 61.0607 403.962 61.1576C404.059 61.2545 404.253 61.3514 404.349 61.4483C404.64 61.7391 404.931 61.9329 405.125 62.2237C405.222 62.3206 405.318 62.4176 405.415 62.5145C405.609 62.7083 405.706 62.9022 405.9 63.096C405.997 63.1929 405.997 63.2898 406.094 63.3868C406.287 63.7744 406.578 64.0652 406.675 64.4529C406.772 64.5498 406.869 64.7436 406.869 64.8406V64.9375C406.966 65.1313 406.966 65.2283 407.063 65.4221V65.519C407.159 65.6159 407.159 65.8098 407.256 65.9067C407.256 66.0036 407.353 66.1005 407.353 66.1005C407.45 66.4882 407.547 66.779 407.644 67.1667C407.644 67.2636 407.644 67.3605 407.741 67.4574C407.838 67.7482 407.838 68.039 407.838 68.3297C407.838 68.7174 407.935 69.1051 407.935 69.4928C407.838 69.8804 407.838 70.1712 407.838 70.5589Z" fill="#6F3698"/>
<path d="M452.895 42.5485C452.895 42.3547 452.798 42.1608 452.701 41.967C452.604 41.8701 452.604 41.6762 452.507 41.5793C452.41 41.4824 452.313 41.3854 452.217 41.2885C452.217 41.1916 452.12 41.1916 452.12 41.1916C452.023 41.0947 452.023 41.0947 451.926 41.0947C451.829 41.0947 451.829 40.9978 451.732 40.9978C451.538 40.9008 451.344 40.8039 451.248 40.8039C451.151 40.8039 451.151 40.8039 451.054 40.8039C450.86 40.8039 450.569 40.707 450.279 40.8039H450.182C449.988 40.8039 449.794 40.8039 449.697 40.8039C449.31 40.8039 448.922 40.6101 448.534 40.4162C448.438 40.4162 448.438 40.3193 448.341 40.3193C448.244 40.2224 448.244 40.2224 448.147 40.1255C448.05 40.0286 447.953 39.9316 447.953 39.8347C447.856 39.7378 447.856 39.6409 447.759 39.544C447.759 39.447 447.662 39.447 447.662 39.3501C447.662 39.2532 447.662 39.2532 447.566 39.2532C447.372 38.8655 447.275 38.3809 447.081 37.9932C447.081 37.8963 446.984 37.7994 446.984 37.7994C446.887 37.5086 446.887 37.2179 446.887 36.8302C446.887 36.5394 446.984 36.3456 447.081 36.0548C447.178 35.861 447.372 35.5702 447.566 35.4733C447.662 35.3764 447.662 35.3764 447.759 35.2794C447.856 35.1825 447.856 35.1825 447.953 35.0856C448.147 34.8918 448.244 34.6979 448.341 34.5041C448.438 34.4072 448.438 34.3102 448.438 34.2133C448.438 34.1164 448.534 34.0195 448.534 33.9226C448.631 33.341 448.534 32.6626 448.147 32.0811C447.662 31.4995 447.178 30.918 446.693 30.4334C446.112 29.8519 445.628 29.3673 445.046 28.9796C444.465 28.495 443.787 28.3981 443.205 28.5919C443.108 28.5919 443.011 28.6888 442.914 28.6888C442.624 28.7858 442.333 28.9796 442.042 29.2704C441.946 29.3673 441.945 29.3673 441.849 29.4642V29.5611C441.558 29.9488 441.267 30.1426 440.783 30.3365C440.589 30.4334 440.492 30.4334 440.298 30.4334C440.298 30.4334 440.298 30.4334 440.201 30.4334H440.104C439.911 30.4334 439.814 30.4334 439.62 30.4334C439.523 30.4334 439.426 30.4334 439.232 30.3365C439.135 30.3365 439.039 30.2396 439.039 30.2396C438.942 30.2396 438.845 30.1426 438.748 30.1426C438.651 30.0457 438.457 30.0457 438.36 29.9488C438.167 29.8519 437.876 29.755 437.682 29.658C436.81 29.2704 436.229 28.3981 436.325 27.4289V27.235C436.519 26.072 435.744 25.0058 434.678 24.7151C434.581 24.7151 434.484 24.7151 434.388 24.7151C433.612 24.6182 432.934 24.6182 432.159 24.6182C431.384 24.6182 430.705 24.6182 429.93 24.7151C428.768 24.812 427.895 25.9751 427.992 27.1381C427.992 27.235 427.992 27.235 427.992 27.3319C427.992 27.4289 427.992 27.5258 427.992 27.6227C427.992 28.495 427.508 29.2704 426.733 29.658C426.636 29.658 426.636 29.755 426.539 29.755C426.345 29.8519 426.054 29.9488 425.861 30.0457C425.667 30.1426 425.473 30.2396 425.279 30.2396C425.279 30.2396 425.182 30.2396 425.182 30.3365C424.213 30.8211 423.051 30.4334 422.469 29.658C421.791 28.6888 420.434 28.495 419.465 29.0765C419.369 29.0765 419.369 29.1734 419.272 29.1734C418.69 29.658 418.109 30.1426 417.624 30.6272C417.14 31.1119 416.559 31.6934 416.171 32.2749C415.686 32.8564 415.59 33.6318 415.783 34.3102C415.88 34.5041 415.977 34.6979 416.074 34.8918C416.171 35.0856 416.268 35.1825 416.365 35.2794C416.462 35.3764 416.462 35.3764 416.559 35.4733C417.431 36.0548 417.721 37.2179 417.237 38.1871C417.043 38.6717 416.849 39.0594 416.655 39.544C416.559 39.8347 416.365 40.0286 416.171 40.3193C416.074 40.4162 415.88 40.5132 415.783 40.6101C415.686 40.707 415.493 40.8039 415.299 40.8039C415.202 40.8039 415.105 40.9008 415.008 40.9008C414.717 40.9978 414.427 40.9978 414.136 40.9008C414.039 40.9008 413.942 40.9008 413.845 40.9008C413.749 40.9008 413.555 40.9008 413.458 40.9008C412.489 41.0947 411.714 41.8701 411.617 42.8393C411.52 43.5177 411.52 44.2931 411.52 45.0684C411.52 45.8438 411.617 46.5222 411.617 47.2976C411.714 48.2668 412.489 49.0422 413.458 49.236C413.652 49.236 413.942 49.236 414.233 49.236C414.33 49.236 414.427 49.236 414.524 49.236C415.008 49.236 415.396 49.3329 415.783 49.6237C415.88 49.7206 415.977 49.7206 416.074 49.8176C416.365 50.0114 416.559 50.3022 416.655 50.6898C416.849 51.1744 417.043 51.5621 417.237 52.0467C417.624 52.919 417.431 53.9851 416.752 54.5667C416.655 54.6636 416.655 54.6636 416.559 54.7605C416.462 54.8574 416.365 54.8574 416.365 54.9544C416.268 55.0513 416.171 55.2451 416.074 55.342C415.977 55.5359 415.88 55.7297 415.783 55.9236C415.783 56.0205 415.783 56.0205 415.783 56.1174C415.783 56.2143 415.783 56.2143 415.783 56.3112C415.783 56.4082 415.783 56.5051 415.783 56.5051C415.783 56.5051 415.783 56.5051 415.783 56.602C415.783 56.6989 415.783 56.7958 415.783 56.8928C415.783 56.9897 415.88 57.0866 415.88 57.1835V57.2804C415.88 57.3774 415.977 57.4743 415.977 57.4743C416.074 57.5712 416.074 57.6681 416.171 57.765C416.655 58.3466 417.14 58.9281 417.624 59.4127C418.109 59.8973 418.69 60.3819 419.272 60.8665C419.756 61.2542 420.338 61.3511 420.822 61.3511C421.016 61.3511 421.21 61.2542 421.403 61.2542C421.791 61.1573 422.179 60.8665 422.469 60.4788L422.663 60.285C422.954 59.9942 423.244 59.8004 423.535 59.7035L424.31 59.6065C424.601 59.6065 424.892 59.7035 425.182 59.8004C425.667 59.9942 426.054 60.1881 426.539 60.3819C427.023 60.5758 427.314 60.8665 427.605 61.2542C427.702 61.3511 427.799 61.545 427.799 61.7388C427.895 62.1265 427.992 62.5142 427.895 62.9018C427.702 64.0649 428.477 65.131 429.64 65.4218C429.736 65.4218 429.737 65.4218 429.833 65.4218C430.512 65.5187 431.287 65.5187 432.062 65.5187C432.837 65.5187 433.515 65.5187 434.291 65.4218C434.872 65.3249 435.26 65.131 435.647 64.7433C435.744 64.5495 435.938 64.4526 436.035 64.2587C436.132 64.1618 436.132 64.0649 436.132 63.968C436.229 63.5803 436.325 63.1926 436.229 62.8049C436.229 62.708 436.229 62.6111 436.229 62.5142C436.229 61.545 436.81 60.7696 437.682 60.3819C438.167 60.1881 438.554 59.9942 439.039 59.8004C439.62 59.5096 440.395 59.5096 440.977 59.8004C441.17 59.8973 441.267 59.9942 441.461 60.0911C441.558 60.1881 441.558 60.1881 441.655 60.285C441.752 60.3819 441.752 60.3819 441.849 60.4788C442.527 61.448 443.883 61.6419 444.852 61.0604C444.949 61.0604 444.949 60.9634 445.046 60.8665C445.628 60.3819 446.209 59.8973 446.693 59.4127C447.178 58.9281 447.662 58.3466 448.147 57.765C448.631 57.1835 448.728 56.4082 448.534 55.7297C448.534 55.6328 448.438 55.5359 448.438 55.439C448.438 55.342 448.341 55.2451 448.244 55.1482C448.147 54.9544 448.05 54.8574 447.953 54.7605C447.856 54.6636 447.856 54.6636 447.759 54.5667C447.662 54.4697 447.662 54.4697 447.566 54.3728C446.887 53.6944 446.693 52.7252 447.081 51.8529C447.275 51.3683 447.469 50.9806 447.662 50.496C448.05 49.5268 449.019 48.9453 450.085 49.0422C450.666 49.1391 451.151 49.0422 451.635 48.7514C451.732 48.6545 451.829 48.5576 451.926 48.5576C452.023 48.4607 452.023 48.4607 452.12 48.4607L452.217 48.3637C452.507 48.073 452.701 47.6853 452.701 47.2007C452.798 46.5222 452.798 45.7469 452.798 44.9715C452.992 44.0023 452.992 43.3239 452.895 42.5485ZM443.302 45.8438V45.9407C443.302 46.1346 443.205 46.3284 443.205 46.5222C443.205 46.7161 443.108 46.9099 443.108 47.1038C443.011 47.4915 442.914 47.7822 442.818 48.1699C442.721 48.3637 442.624 48.5576 442.624 48.7514C442.527 48.9453 442.43 49.1391 442.43 49.333C442.333 49.4299 442.333 49.6237 442.236 49.7206C442.042 50.1083 441.849 50.3991 441.655 50.7868C441.558 50.8837 441.558 50.9806 441.461 51.0775L441.364 51.1744C441.267 51.2714 441.267 51.3683 441.17 51.4652C441.073 51.5621 440.977 51.659 440.88 51.8529C440.686 52.0467 440.492 52.3375 440.298 52.5313C440.201 52.6283 440.104 52.7252 440.008 52.8221C439.911 52.919 439.814 53.0159 439.717 53.1129C439.523 53.2098 439.426 53.4036 439.232 53.5005C438.845 53.7913 438.457 54.0821 438.07 54.2759C437.973 54.3728 437.779 54.4697 437.682 54.4697C437.488 54.5667 437.391 54.6636 437.198 54.6636C437.101 54.7605 436.907 54.7605 436.81 54.8574C436.616 54.9543 436.325 55.0513 436.132 55.1482C436.035 55.1482 435.841 55.2451 435.744 55.2451C435.453 55.342 435.163 55.439 434.872 55.439C434.678 55.439 434.581 55.5359 434.388 55.5359C434.194 55.5359 434.097 55.6328 433.903 55.6328C433.128 55.7297 432.353 55.7297 431.578 55.7297C431.384 55.7297 431.287 55.7297 431.093 55.6328C430.899 55.6328 430.802 55.6328 430.609 55.5359C430.415 55.5359 430.318 55.439 430.124 55.439C429.64 55.342 429.058 55.1482 428.574 54.9544C428.477 54.9544 428.283 54.8574 428.186 54.7605C427.992 54.6636 427.895 54.6636 427.799 54.5667C427.799 54.5667 427.799 54.5667 427.702 54.5667C427.508 54.4697 427.411 54.3728 427.217 54.3728C426.926 54.179 426.636 53.9851 426.345 53.7913C426.248 53.6944 426.054 53.5975 425.958 53.5005C425.861 53.4036 425.667 53.3067 425.57 53.2098C425.376 53.1129 425.279 52.919 425.085 52.8221C424.892 52.7252 424.795 52.5313 424.601 52.3375C424.504 52.2406 424.31 52.0467 424.213 51.9498C423.826 51.4652 423.438 50.9806 423.051 50.3991C422.954 50.2052 422.857 50.1083 422.76 49.9145C422.663 49.7206 422.566 49.5268 422.469 49.4299C422.372 49.3329 422.372 49.236 422.372 49.1391C422.372 49.0422 422.275 49.0422 422.275 48.9453C422.275 48.8483 422.179 48.7514 422.179 48.6545C422.179 48.5576 422.082 48.4607 422.082 48.2668C422.082 48.2668 422.082 48.1699 421.985 48.1699C421.888 47.9761 421.888 47.8791 421.888 47.6853C421.791 47.4915 421.791 47.2007 421.694 47.0069C421.694 46.9099 421.597 46.7161 421.597 46.6192C421.597 46.3284 421.5 46.1346 421.5 45.8438C421.5 45.4561 421.403 45.0684 421.403 44.6808C421.403 44.2931 421.403 43.9054 421.5 43.6146V43.5177C421.5 43.3239 421.5 43.13 421.597 42.9362C421.597 42.7423 421.694 42.5485 421.694 42.3547C421.791 41.967 421.888 41.6762 421.985 41.2885C422.082 41.0947 422.082 40.9978 422.179 40.8039C422.179 40.707 422.275 40.6101 422.275 40.5132C422.275 40.4162 422.372 40.3193 422.372 40.3193C422.372 40.2224 422.469 40.1255 422.469 40.0286C422.566 39.7378 422.76 39.447 422.954 39.2532C423.051 39.1563 423.148 38.9624 423.148 38.8655C423.244 38.7686 423.341 38.5747 423.438 38.4778C423.535 38.284 423.632 38.1871 423.826 37.9932C423.923 37.7994 424.116 37.7025 424.213 37.5086C424.31 37.3148 424.504 37.2179 424.601 37.1209C425.279 36.4425 426.054 35.861 426.83 35.3764C426.926 35.2794 427.12 35.1825 427.217 35.1825C427.314 35.0856 427.508 35.0856 427.605 34.9887C427.702 34.8918 427.895 34.8918 427.992 34.7948C428.283 34.6979 428.477 34.601 428.768 34.5041C428.864 34.5041 429.058 34.4072 429.155 34.4072C429.349 34.4072 429.446 34.3102 429.64 34.3102C429.833 34.3102 429.93 34.2133 430.124 34.2133C430.318 34.2133 430.415 34.1164 430.609 34.1164C430.802 34.1164 430.899 34.0195 431.093 34.0195C431.287 34.0195 431.384 34.0195 431.578 33.9226C432.159 33.8256 432.837 33.8256 433.419 33.9226C433.612 33.9226 433.709 33.9226 433.903 34.0195C434.097 34.0195 434.194 34.0195 434.388 34.1164C434.581 34.1164 434.678 34.1164 434.872 34.2133C435.26 34.3102 435.647 34.4072 436.035 34.5041C436.132 34.5041 436.229 34.601 436.325 34.601C436.81 34.7948 437.294 34.9887 437.779 35.2794C437.973 35.3764 438.07 35.4733 438.263 35.5702C438.457 35.6671 438.554 35.764 438.651 35.861C438.748 35.9579 438.942 36.0548 439.039 36.1517C439.039 36.1517 439.039 36.1517 439.136 36.1517C439.232 36.2487 439.426 36.3456 439.523 36.4425C439.62 36.5394 439.814 36.6363 439.911 36.7333C440.201 37.024 440.492 37.2179 440.686 37.5086C440.783 37.6055 440.88 37.7025 440.977 37.7994C441.17 37.9932 441.267 38.1871 441.461 38.3809C441.558 38.4778 441.558 38.5747 441.655 38.6717C441.849 39.0594 442.139 39.3501 442.236 39.7378C442.333 39.8347 442.43 40.0286 442.43 40.1255V40.2224C442.527 40.4162 442.527 40.5132 442.624 40.707V40.8039C442.721 40.9008 442.721 41.0947 442.818 41.1916C442.818 41.2885 442.914 41.3855 442.914 41.3855C443.011 41.7731 443.108 42.0639 443.205 42.4516C443.205 42.5485 443.205 42.6454 443.302 42.7423C443.399 43.0331 443.399 43.3239 443.399 43.6146C443.399 44.0023 443.496 44.39 443.496 44.7777C443.399 45.1654 443.399 45.553 443.302 45.8438Z" stroke="#9468B4" stroke-width="0.5" stroke-miterlimit="10"/>
<path d="M209.297 72.788C209.297 72.5942 209.2 72.4003 209.103 72.2065C209.006 72.1096 209.006 71.9157 208.909 71.8188C208.812 71.7219 208.715 71.625 208.618 71.528C208.522 71.4311 208.522 71.4311 208.522 71.4311C208.425 71.3342 208.425 71.3342 208.328 71.3342C208.231 71.2373 208.231 71.2373 208.134 71.2373C207.94 71.1404 207.746 71.0434 207.649 71.0434C207.553 71.0434 207.553 71.0434 207.456 71.0434C207.262 71.0434 206.971 70.9465 206.68 71.0434H206.584C206.39 71.0434 206.196 71.0434 206.099 71.0434C205.712 71.0434 205.324 70.8496 204.936 70.6558C204.839 70.6558 204.839 70.5588 204.743 70.5588C204.646 70.4619 204.646 70.4619 204.549 70.365C204.452 70.2681 204.355 70.1711 204.355 70.0742C204.258 69.9773 204.258 69.8804 204.161 69.7835C204.161 69.6865 204.064 69.6865 204.064 69.5896C204.064 69.4927 204.064 69.4927 203.967 69.4927C203.774 69.105 203.677 68.6204 203.483 68.2327C203.483 68.1358 203.386 68.0389 203.386 68.0389C203.289 67.7481 203.289 67.4574 203.289 67.0697C203.289 66.7789 203.386 66.5851 203.483 66.2943C203.58 66.1005 203.774 65.8097 203.967 65.7128C204.064 65.6159 204.064 65.6159 204.161 65.5189C204.258 65.5189 204.258 65.422 204.355 65.3251C204.549 65.1313 204.646 64.9374 204.743 64.7436C204.839 64.6467 204.839 64.5497 204.839 64.4528C204.839 64.3559 204.936 64.259 204.936 64.1621C205.033 63.5805 204.936 62.9021 204.549 62.3206C204.064 61.739 203.58 61.1575 203.095 60.6729C202.514 60.0914 202.029 59.6068 201.448 59.2191C200.867 58.7345 200.188 58.6376 199.607 58.8314C199.51 58.8314 199.413 58.9283 199.316 58.9283C199.026 59.0253 198.735 59.2191 198.444 59.5099C198.347 59.6068 198.347 59.6068 198.25 59.7037V59.8006C197.96 60.1883 197.669 60.3821 197.185 60.576C196.991 60.6729 196.894 60.6729 196.7 60.6729C196.7 60.6729 196.7 60.6729 196.603 60.6729H196.506C196.313 60.6729 196.216 60.6729 196.022 60.6729C195.925 60.6729 195.828 60.6729 195.634 60.576C195.537 60.576 195.44 60.4791 195.44 60.4791C195.344 60.4791 195.247 60.3821 195.15 60.3821C195.053 60.2852 194.859 60.2852 194.762 60.1883C194.568 60.0914 194.278 59.9945 194.084 59.8975C193.212 59.5099 192.63 58.6376 192.727 57.6684V57.4745C192.921 56.3115 192.146 55.2453 191.08 54.9546C190.983 54.9546 190.886 54.9546 190.789 54.8577C190.014 54.7607 189.336 54.7607 188.561 54.7607C187.786 54.7607 187.107 54.7607 186.332 54.8577C185.169 54.9546 184.297 56.1176 184.394 57.2807C184.394 57.3776 184.394 57.3776 184.394 57.4745C184.394 57.5714 184.394 57.6684 184.394 57.7653C184.394 58.6376 183.91 59.4129 183.135 59.8006C183.038 59.8006 183.038 59.8975 182.941 59.8975C182.747 59.9945 182.456 60.0914 182.263 60.1883C182.069 60.2852 181.875 60.3821 181.681 60.3821C181.681 60.3821 181.584 60.3821 181.584 60.4791C180.615 60.9637 179.453 60.576 178.871 59.8006C178.193 58.8314 176.836 58.6376 175.867 59.2191C175.77 59.2191 175.77 59.316 175.674 59.316C175.092 59.8006 174.511 60.2852 174.026 60.7698C173.542 61.2544 172.96 61.836 172.573 62.4175C172.088 62.999 171.991 63.7744 172.185 64.4528C172.282 64.6467 172.379 64.8405 172.476 65.0343C172.573 65.2282 172.67 65.3251 172.767 65.422C172.864 65.5189 172.864 65.5189 172.96 65.6159C173.833 66.1974 174.123 67.3604 173.639 68.3297C173.445 68.8143 173.251 69.2019 173.057 69.6865C172.96 69.9773 172.767 70.1711 172.573 70.4619C172.476 70.5588 172.282 70.6557 172.185 70.7527C172.088 70.8496 171.895 70.9465 171.701 70.9465C171.604 70.9465 171.507 71.0434 171.41 71.0434C171.119 71.1404 170.829 71.1404 170.538 71.0434C170.441 71.0434 170.344 71.0434 170.247 71.0434C170.15 71.0434 169.957 71.0434 169.86 71.0434C168.891 71.2373 168.116 72.0126 168.019 72.9818C167.922 73.6603 167.922 74.4357 167.922 75.211C167.922 75.9864 168.019 76.6648 168.019 77.4402C168.116 78.4094 168.891 79.1848 169.86 79.3786C170.054 79.3786 170.344 79.4755 170.635 79.3786C170.732 79.3786 170.829 79.3786 170.926 79.3786C171.41 79.3786 171.798 79.4755 172.185 79.7663C172.282 79.8632 172.379 79.8632 172.476 79.9601C172.767 80.154 172.96 80.4447 173.057 80.8324C173.251 81.317 173.445 81.7047 173.639 82.1893C174.026 83.0616 173.833 84.1277 173.154 84.7093C173.057 84.8062 173.057 84.8062 172.96 84.9031C172.864 85 172.767 85 172.767 85.0969C172.67 85.1939 172.573 85.3877 172.476 85.4846C172.379 85.6785 172.282 85.8723 172.185 86.0662C172.185 86.1631 172.185 86.1631 172.185 86.26C172.185 86.3569 172.185 86.3569 172.185 86.4538C172.185 86.5508 172.185 86.6477 172.185 86.6477C172.185 86.6477 172.185 86.6477 172.185 86.7446C172.185 86.8415 172.185 86.9384 172.185 87.0354C172.185 87.1323 172.282 87.2292 172.282 87.3261V87.423C172.282 87.52 172.379 87.6169 172.379 87.6169C172.476 87.7138 172.476 87.8107 172.573 87.9076C173.057 88.4892 173.542 89.0707 174.026 89.5553C174.511 90.0399 175.092 90.5245 175.674 91.0091C176.158 91.3968 176.739 91.4937 177.224 91.4937C177.418 91.4937 177.612 91.3968 177.805 91.3968C178.193 91.2999 178.58 91.0091 178.871 90.6214L179.065 90.4276C179.356 90.1368 179.646 89.943 179.937 89.8461L180.712 89.7491C181.003 89.7491 181.294 89.8461 181.584 89.943C182.069 90.1368 182.456 90.3307 182.941 90.5245C183.425 90.7183 183.716 91.0091 184.007 91.3968C184.104 91.4937 184.2 91.6876 184.2 91.8814C184.297 92.2691 184.394 92.6568 184.297 93.0444C184.104 94.2075 184.879 95.2736 186.042 95.5644C186.138 95.5644 186.138 95.5644 186.235 95.5644C186.914 95.6613 187.689 95.6613 188.464 95.6613C189.239 95.6613 189.917 95.6613 190.693 95.5644C191.274 95.4675 191.662 95.2736 192.049 94.8859C192.146 94.6921 192.34 94.5952 192.437 94.4013C192.534 94.3044 192.534 94.2075 192.534 94.1106C192.63 93.7229 192.727 93.3352 192.63 92.9475C192.63 92.8506 192.63 92.7537 192.63 92.6568C192.63 91.6876 193.212 90.9122 194.084 90.5245C194.568 90.3307 194.956 90.1368 195.44 89.943C196.022 89.6522 196.797 89.6522 197.378 89.943C197.572 90.0399 197.669 90.1368 197.863 90.2337C197.96 90.3307 197.96 90.3307 198.057 90.4276C198.154 90.5245 198.154 90.5245 198.25 90.6214C198.929 91.5906 200.285 91.7845 201.254 91.203C201.351 91.203 201.351 91.106 201.448 91.0091C202.029 90.5245 202.611 90.0399 203.095 89.5553C203.58 89.0707 204.064 88.4892 204.549 87.9076C205.033 87.3261 205.13 86.5508 204.936 85.8723C204.936 85.7754 204.839 85.6785 204.839 85.5816C204.839 85.4846 204.743 85.3877 204.646 85.2908C204.549 85.0969 204.452 85 204.355 84.9031C204.258 84.8062 204.258 84.8062 204.161 84.7093C204.064 84.6123 204.064 84.6123 203.967 84.5154C203.289 83.837 203.095 82.8678 203.483 81.9955C203.677 81.5109 203.87 81.1232 204.064 80.6386C204.452 79.6694 205.421 79.0879 206.487 79.1848C207.068 79.2817 207.553 79.1848 208.037 78.894C208.134 78.7971 208.231 78.7002 208.328 78.7002C208.425 78.6032 208.425 78.6033 208.522 78.6033L208.618 78.5063C208.909 78.2156 209.103 77.8279 209.103 77.3433C209.2 76.6648 209.2 75.8895 209.2 75.1141C209.394 74.2418 209.297 73.4664 209.297 72.788ZM199.704 76.0833V76.1802C199.704 76.3741 199.607 76.5679 199.607 76.7618C199.607 76.9556 199.51 77.1494 199.51 77.3433C199.413 77.731 199.316 78.0217 199.219 78.4094C199.123 78.6033 199.026 78.7971 199.026 78.9909C198.929 79.1848 198.832 79.3786 198.832 79.5725C198.735 79.6694 198.735 79.8632 198.638 79.9601C198.444 80.3478 198.25 80.6386 198.057 81.0263C197.96 81.1232 197.96 81.2201 197.863 81.317L197.766 81.414C197.669 81.5109 197.669 81.6078 197.572 81.7047C197.475 81.8016 197.378 81.8986 197.282 82.0924C197.088 82.2862 196.894 82.577 196.7 82.7708C196.603 82.8678 196.506 82.9647 196.409 83.0616C196.313 83.1585 196.216 83.2554 196.119 83.3524C195.925 83.4493 195.828 83.6431 195.634 83.7401C195.247 84.0308 194.859 84.3216 194.472 84.5154C194.375 84.6123 194.181 84.7093 194.084 84.7093C193.89 84.8062 193.793 84.9031 193.599 84.9031C193.503 85 193.309 85 193.212 85.0969C193.018 85.1939 192.727 85.2908 192.534 85.3877C192.437 85.4846 192.243 85.4846 192.146 85.4846C191.855 85.5815 191.565 85.6785 191.274 85.6785C191.08 85.6785 190.983 85.7754 190.789 85.7754C190.596 85.7754 190.499 85.8723 190.305 85.8723C189.53 85.9692 188.755 85.9692 187.979 85.9692C187.786 85.9692 187.689 85.9692 187.495 85.8723C187.301 85.8723 187.204 85.8723 187.01 85.7754C186.817 85.7754 186.72 85.6785 186.526 85.6785C186.042 85.5815 185.46 85.3877 184.976 85.1939C184.879 85.0969 184.685 85.0969 184.588 85C184.588 85 184.588 85 184.491 85C184.297 84.9031 184.2 84.9031 184.104 84.8062C184.104 84.8062 184.104 84.8062 184.007 84.8062C183.813 84.7093 183.716 84.6123 183.522 84.6123C183.232 84.4185 182.941 84.2247 182.65 84.0308C182.553 83.9339 182.359 83.837 182.263 83.7401C182.166 83.6431 181.972 83.5462 181.875 83.4493C181.681 83.3524 181.584 83.1585 181.39 83.0616C181.197 82.9647 181.1 82.7708 180.906 82.577C180.809 82.4801 180.615 82.2862 180.518 82.1893C180.131 81.7047 179.743 81.2201 179.356 80.6386C179.259 80.4447 179.162 80.3478 179.065 80.154C178.968 79.9601 178.871 79.7663 178.774 79.6694C178.677 79.5725 178.677 79.4755 178.677 79.3786C178.677 79.2817 178.58 79.2817 178.58 79.1848C178.58 79.0879 178.484 78.9909 178.484 78.894C178.484 78.7971 178.387 78.7002 178.387 78.5063C178.387 78.5063 178.387 78.4094 178.29 78.4094C178.193 78.2156 178.193 78.1186 178.193 77.9248C178.096 77.731 178.096 77.4402 177.999 77.2464C177.999 77.1494 177.902 76.9556 177.902 76.8587C177.902 76.5679 177.805 76.3741 177.805 76.0833C177.805 75.6956 177.708 75.3079 177.708 74.9203C177.708 74.5326 177.708 74.1449 177.805 73.8541V73.7572C177.805 73.5634 177.805 73.3695 177.902 73.1757C177.902 72.9818 177.999 72.788 177.999 72.5942C178.096 72.2065 178.193 71.9157 178.29 71.528C178.387 71.3342 178.387 71.2373 178.484 71.0434C178.484 70.9465 178.58 70.8496 178.58 70.7527C178.58 70.6557 178.677 70.5588 178.677 70.5588C178.677 70.4619 178.774 70.365 178.774 70.2681C178.871 69.9773 179.065 69.6865 179.259 69.4927C179.356 69.3958 179.453 69.2019 179.453 69.105C179.549 69.0081 179.646 68.8143 179.743 68.7173C179.84 68.5235 179.937 68.4266 180.131 68.2327C180.228 68.0389 180.422 67.942 180.518 67.7481C180.615 67.5543 180.809 67.4574 180.906 67.3604C181.584 66.682 182.359 66.1005 183.135 65.6159C183.232 65.5189 183.425 65.422 183.522 65.422C183.619 65.3251 183.813 65.3251 183.91 65.2282C184.007 65.1313 184.2 65.1313 184.297 65.0343C184.588 64.9374 184.782 64.8405 185.073 64.7436C185.169 64.6467 185.363 64.6467 185.46 64.6467C185.654 64.6467 185.751 64.5497 185.945 64.5497C186.138 64.5497 186.235 64.4528 186.429 64.4528C186.623 64.4528 186.72 64.3559 186.914 64.3559C187.107 64.3559 187.204 64.259 187.398 64.259C187.592 64.259 187.689 64.259 187.883 64.1621C188.464 64.1621 189.142 64.1621 189.724 64.1621C189.917 64.1621 190.014 64.1621 190.208 64.259C190.402 64.259 190.499 64.259 190.693 64.3559C190.886 64.3559 190.983 64.4528 191.177 64.4528C191.565 64.5497 191.952 64.6467 192.34 64.7436C192.437 64.7436 192.534 64.8405 192.63 64.8405C193.115 65.0343 193.599 65.2282 194.084 65.5189C194.278 65.6159 194.375 65.7128 194.568 65.8097C194.762 65.9066 194.859 66.0035 194.956 66.1005C195.053 66.1974 195.247 66.2943 195.344 66.3912C195.344 66.3912 195.344 66.3912 195.44 66.3912C195.537 66.4882 195.731 66.5851 195.828 66.682C195.925 66.7789 196.119 66.8758 196.216 66.9728C196.506 67.2635 196.797 67.4574 196.991 67.7481C197.088 67.845 197.185 67.942 197.282 68.0389C197.475 68.2327 197.572 68.4266 197.766 68.6204C197.863 68.7173 197.863 68.8143 197.96 68.9112C198.154 69.2989 198.444 69.5896 198.541 69.9773C198.638 70.0742 198.735 70.2681 198.735 70.365V70.4619C198.832 70.6557 198.832 70.7527 198.929 70.9465V71.0434C199.026 71.1404 199.026 71.3342 199.123 71.4311C199.123 71.528 199.219 71.625 199.219 71.625C199.316 72.0126 199.413 72.3034 199.51 72.6911C199.51 72.788 199.51 72.8849 199.607 72.9818C199.704 73.2726 199.704 73.5634 199.704 73.8541C199.704 74.2418 199.801 74.6295 199.801 75.0172C199.704 75.3079 199.704 75.6956 199.704 76.0833Z" stroke="#9468B4" stroke-width="0.5" stroke-miterlimit="10"/>
<path d="M530.8 304.622H473.243V372.079H530.8V304.622Z" fill="#71359C"/>
<path d="M530.8 304.622H473.243V324.588H530.8V304.622Z" fill="#9468B4"/>
<path d="M530.8 328.367H473.243V348.333H530.8V328.367Z" fill="#9468B4"/>
<path d="M530.8 352.113H473.243V372.079H530.8V352.113Z" fill="#9468B4"/>
<path d="M478.476 372.079H473.243V375.374H478.476V372.079Z" fill="#60258B"/>
<path d="M530.8 372.079H525.567V375.374H530.8V372.079Z" fill="#60258B"/>
<path d="M478.476 307.433H476.538V322.455H478.476V307.433Z" fill="#8856AC"/>
<path d="M482.449 307.433H480.511V322.455H482.449V307.433Z" fill="#8856AC"/>
<path d="M486.421 307.433H484.484V322.455H486.421V307.433Z" fill="#8856AC"/>
<path d="M490.297 307.433H488.359V322.455H490.297V307.433Z" fill="#8856AC"/>
<path d="M527.602 307.433H492.913V322.455H527.602V307.433Z" fill="#D57EE3"/>
<path d="M478.476 330.888H476.538V345.91H478.476V330.888Z" fill="#8856AC"/>
<path d="M482.449 330.888H480.511V345.91H482.449V330.888Z" fill="#8856AC"/>
<path d="M486.421 330.888H484.484V345.91H486.421V330.888Z" fill="#8856AC"/>
<path d="M490.297 330.888H488.359V345.91H490.297V330.888Z" fill="#8856AC"/>
<path d="M494.27 330.888H492.332V345.91H494.27V330.888Z" fill="#8856AC"/>
<path d="M498.242 330.888H496.305V345.91H498.242V330.888Z" fill="#8856AC"/>
<path d="M502.215 330.888H500.277V345.91H502.215V330.888Z" fill="#8856AC"/>
<path d="M527.505 330.888H504.638V345.91H527.505V330.888Z" fill="#D57EE3"/>
<path d="M478.476 354.343H476.538V369.365H478.476V354.343Z" fill="#8856AC"/>
<path d="M482.449 354.343H480.511V369.365H482.449V354.343Z" fill="#8856AC"/>
<path d="M486.421 354.343H484.484V369.365H486.421V354.343Z" fill="#8856AC"/>
<path d="M490.297 354.343H488.359V369.365H490.297V354.343Z" fill="#8856AC"/>
<path d="M519.657 354.343H517.719V369.365H519.657V354.343Z" fill="#8856AC"/>
<path d="M523.532 354.343H521.595V369.365H523.532V354.343Z" fill="#8856AC"/>
<path d="M527.505 354.343H525.567V369.365H527.505V354.343Z" fill="#8856AC"/>
<path d="M515.296 354.343H492.913V369.365H515.296V354.343Z" fill="#D57EE3"/>
<path d="M443.108 166.897H445.531" stroke="#9468B4" stroke-miterlimit="10"/>
<path d="M450.472 166.897H497.371" stroke="#9468B4" stroke-miterlimit="10" stroke-dasharray="5.1 5.1"/>
<path d="M499.793 166.897H502.215V169.32" stroke="#9468B4" stroke-miterlimit="10"/>
<path d="M502.215 174.264V299.776" stroke="#9468B4" stroke-miterlimit="10" stroke-dasharray="5.08 5.08"/>
<path d="M502.215 302.199V304.622" stroke="#9468B4" stroke-miterlimit="10"/>
<path d="M308.325 307.82H248.055V364.81H308.325V307.82Z" fill="#7002C0"/>
<path d="M374.699 375.277H181.584V368.202C181.584 364.325 184.782 361.127 188.658 361.127H367.626C371.502 361.127 374.699 364.325 374.699 368.202V375.277Z" fill="#9468B4"/>
<path d="M435.841 329.531H120.442C116.47 329.531 113.272 326.332 113.272 322.359V105.256C113.272 101.282 116.47 98.084 120.442 98.084H435.841C439.814 98.084 443.011 101.282 443.011 105.256V322.359C443.108 326.332 439.814 329.531 435.841 329.531Z" fill="#9468B4"/>
<path d="M432.837 109.326V298.613C432.837 300.066 431.674 301.133 430.318 301.133H124.996C123.543 301.133 122.477 299.969 122.477 298.613V109.326C122.477 107.873 123.64 106.806 124.996 106.806H430.318C431.674 106.71 432.837 107.873 432.837 109.326Z" fill="#D57EE3"/>
<path d="M421.791 315.768C421.791 319.161 418.981 321.971 415.59 321.971C412.198 321.971 409.388 319.161 409.388 315.768C409.388 312.376 412.198 309.565 415.59 309.565C418.981 309.662 421.791 312.376 421.791 315.768Z" fill="#9468B4"/>
<g opacity="0.35">
<g opacity="0.35">
<g opacity="0.35">
<path opacity="0.35" d="M416.171 258.004H218.793C213.27 258.004 208.909 253.545 208.909 248.118V121.927C208.909 116.402 213.367 112.041 218.793 112.041H416.171C421.694 112.041 426.055 116.499 426.055 121.927V248.118C426.152 253.545 421.694 258.004 416.171 258.004Z" fill="white"/>
</g>
</g>
</g>
<path d="M389.815 106.71V277.194C389.815 285.723 382.936 292.604 374.409 292.604H153.097C144.57 292.604 137.69 285.723 137.69 277.194V106.71H389.815Z" fill="#9468B4"/>
<path d="M391.075 283.105H154.065C148.058 283.105 143.31 278.259 143.31 272.347V85.7748C143.31 79.7657 148.155 75.0166 154.065 75.0166H391.075C397.082 75.0166 401.83 79.8626 401.83 85.7748V272.347C401.83 278.259 396.985 283.105 391.075 283.105Z" fill="white"/>
<path d="M391.075 74.9199H154.065C148.058 74.9199 143.31 79.766 143.31 85.6781V95.1763H401.927V85.6781C401.83 79.766 396.985 74.9199 391.075 74.9199Z" fill="#9468B4"/>
<path d="M370.145 85.484C370.145 87.2286 368.788 88.5854 367.044 88.5854C365.3 88.5854 363.944 87.2286 363.944 85.484C363.944 83.7394 365.3 82.3825 367.044 82.3825C368.692 82.2856 370.145 83.7394 370.145 85.484Z" fill="white"/>
<path d="M382.838 85.484C382.838 87.2286 381.482 88.5854 379.737 88.5854C377.993 88.5854 376.637 87.2286 376.637 85.484C376.637 83.7394 377.993 82.3825 379.737 82.3825C381.385 82.2856 382.838 83.7394 382.838 85.484Z" fill="white"/>
<path d="M395.532 85.484C395.532 87.2286 394.175 88.5854 392.431 88.5854C390.687 88.5854 389.33 87.2286 389.33 85.484C389.33 83.7394 390.687 82.3825 392.431 82.3825C394.078 82.2856 395.532 83.7394 395.532 85.484Z" fill="white"/>
<path d="M390.687 106.903H310.941V111.265H390.687V106.903Z" fill="#EBB4F4"/>
<path d="M390.687 268.762V271.185H388.265" stroke="#9468B4" stroke-miterlimit="10"/>
<path d="M383.42 271.185H156.972" stroke="#9468B4" stroke-miterlimit="10" stroke-dasharray="4.92 4.92"/>
<path d="M154.55 271.185H152.128V268.762" stroke="#9468B4" stroke-miterlimit="10"/>
<path d="M152.128 263.722V196.071" stroke="#9468B4" stroke-miterlimit="10" stroke-dasharray="5.18 5.18"/>
<path d="M152.128 193.551V191.128H154.55" stroke="#9468B4" stroke-miterlimit="10"/>
<path d="M159.298 191.128H385.842" stroke="#9468B4" stroke-miterlimit="10" stroke-dasharray="4.92 4.92"/>
<path d="M388.265 191.128H390.687V193.551" stroke="#9468B4" stroke-miterlimit="10"/>
<path d="M390.687 198.494V266.242" stroke="#9468B4" stroke-miterlimit="10" stroke-dasharray="5.18 5.18"/>
<path d="M390.687 116.498H310.941V120.859H390.687V116.498Z" fill="#EBB4F4"/>
<path d="M390.687 126.19H253.288V130.552H390.687V126.19Z" fill="#EBB4F4"/>
<path d="M390.687 135.786H253.288V140.148H390.687V135.786Z" fill="#EBB4F4"/>
<path d="M390.687 145.478H253.288V149.839H390.687V145.478Z" fill="#EBB4F4"/>
<path d="M390.687 155.073H253.288V159.435H390.687V155.073Z" fill="#EBB4F4"/>
<path d="M390.687 164.668H253.288V169.029H390.687V164.668Z" fill="#EBB4F4"/>
<path d="M344.661 174.36H253.288V178.722H344.661V174.36Z" fill="#EBB4F4"/>
<path d="M246.021 176.299V178.722H243.598" stroke="#9468B4" stroke-miterlimit="10"/>
<path d="M238.947 178.722H157.554" stroke="#9468B4" stroke-miterlimit="10" stroke-dasharray="4.8 4.8"/>
<path d="M155.228 178.722H152.806V176.299" stroke="#9468B4" stroke-miterlimit="10"/>
<path d="M152.806 171.162V111.943" stroke="#9468B4" stroke-miterlimit="10" stroke-dasharray="5.31 5.31"/>
<path d="M152.806 109.326V106.903H155.228" stroke="#9468B4" stroke-miterlimit="10"/>
<path d="M159.879 106.903H241.272" stroke="#9468B4" stroke-miterlimit="10" stroke-dasharray="4.8 4.8"/>
<path d="M243.598 106.903H246.021V109.326" stroke="#9468B4" stroke-miterlimit="10"/>
<path d="M246.021 114.463V173.681" stroke="#9468B4" stroke-miterlimit="10" stroke-dasharray="5.31 5.31"/>
<path d="M265.884 120.667H254.354C253.772 120.667 253.288 120.182 253.288 119.601V108.067C253.288 107.486 253.772 107.001 254.354 107.001H265.884C266.466 107.001 266.95 107.486 266.95 108.067V119.601C267.047 120.182 266.563 120.667 265.884 120.667Z" fill="#6F3698"/>
<path d="M261.718 117.178L258.326 113.786L261.718 110.394" stroke="white" stroke-width="1.5" stroke-miterlimit="10" stroke-linecap="round" stroke-linejoin="round"/>
<path d="M303.965 120.667H292.434C291.852 120.667 291.368 120.182 291.368 119.601V108.067C291.368 107.486 291.852 107.001 292.434 107.001H303.965C304.546 107.001 305.03 107.486 305.03 108.067V119.601C305.03 120.182 304.546 120.667 303.965 120.667Z" fill="#6F3698"/>
<path d="M297.085 117.178L300.476 113.786L297.085 110.394" stroke="white" stroke-width="1.5" stroke-miterlimit="10" stroke-linecap="round" stroke-linejoin="round"/>
<path d="M284.682 120.667H273.151C272.57 120.667 272.086 120.182 272.086 119.601V108.067C272.086 107.486 272.57 107.001 273.151 107.001H284.682C285.264 107.001 285.748 107.486 285.748 108.067V119.601C285.748 120.182 285.264 120.667 284.682 120.667Z" fill="#6F3698"/>
<path d="M280.709 110.394L277.415 117.178" stroke="white" stroke-width="1.5" stroke-miterlimit="10" stroke-linecap="round" stroke-linejoin="round"/>
<path d="M156.1 105.062H151.062V110.102H156.1V105.062Z" fill="#9468B4"/>
<path d="M248.637 105.062H243.598V110.102H248.637V105.062Z" fill="#9468B4"/>
<path d="M156.1 141.311H151.062V146.35H156.1V141.311Z" fill="#9468B4"/>
<path d="M248.637 141.311H243.598V146.35H248.637V141.311Z" fill="#9468B4"/>
<path d="M202.32 105.062H197.282V110.102H202.32V105.062Z" fill="#9468B4"/>
<path d="M156.1 176.202H151.062V181.242H156.1V176.202Z" fill="#9468B4"/>
<path d="M248.637 176.202H243.598V181.242H248.637V176.202Z" fill="#9468B4"/>
<path d="M202.32 176.202H197.282V181.242H202.32V176.202Z" fill="#9468B4"/>
<path d="M154.647 188.414H149.608V193.454H154.647V188.414Z" fill="#9468B4"/>
<path d="M393.207 188.414H388.168V193.454H393.207V188.414Z" fill="#9468B4"/>
<path d="M154.647 224.662H149.608V229.702H154.647V224.662Z" fill="#9468B4"/>
<path d="M393.207 224.662H388.168V229.702H393.207V224.662Z" fill="#9468B4"/>
<path d="M277.803 188.414H272.764V193.454H277.803V188.414Z" fill="#9468B4"/>
<path d="M154.647 268.664H149.608V273.704H154.647V268.664Z" fill="#9468B4"/>
<path d="M393.207 268.664H388.168V273.704H393.207V268.664Z" fill="#9468B4"/>
<path d="M277.803 268.664H272.764V273.704H277.803V268.664Z" fill="#9468B4"/>
<path d="M272.57 253.351C284.183 253.351 293.597 243.934 293.597 232.319C293.597 220.703 284.183 211.287 272.57 211.287C260.958 211.287 251.544 220.703 251.544 232.319C251.544 243.934 260.958 253.351 272.57 253.351Z" fill="#D57EE3"/>
<path d="M266.757 244.53V220.106L283.714 232.318L266.757 244.53Z" fill="#6F3698"/>
<path d="M128.388 311.601V372.176C128.388 373.727 127.129 374.987 125.578 374.987H57.7505V319.064C57.7505 317.513 59.0102 316.253 60.5605 316.253H103.68C105.23 316.253 106.49 314.993 106.49 313.442V311.698C106.49 310.147 107.749 308.887 109.3 308.887H125.384C127.129 308.693 128.388 309.953 128.388 311.601Z" fill="#FCA424"/>
<path d="M125.287 368.783H62.7892C62.014 368.783 61.3357 368.105 61.3357 367.33V319.063C61.3357 318.288 62.014 317.609 62.7892 317.609H125.287C126.063 317.609 126.741 318.288 126.741 319.063V367.33C126.741 368.202 126.16 368.783 125.287 368.783Z" fill="#FCFCFC"/>
<path d="M123.64 370.722H61.1417C60.3665 370.722 59.6883 370.044 59.6883 369.268V321.002C59.6883 320.226 60.3665 319.548 61.1417 319.548H123.64C124.415 319.548 125.094 320.226 125.094 321.002V369.268C125.094 370.14 124.415 370.722 123.64 370.722Z" fill="#E2DED0"/>
<path d="M125.772 374.89H57.266C56.0064 374.89 54.9405 374.018 54.6498 372.758L45.8322 326.333C45.5415 324.685 46.8012 323.231 48.4484 323.231H116.954C118.214 323.231 119.28 324.104 119.571 325.364L128.388 371.789C128.679 373.339 127.419 374.89 125.772 374.89Z" fill="#FECB22"/>
<path d="M18.9918 374.89H557.253" stroke="#9468B4" stroke-miterlimit="10" stroke-linecap="round"/>
<path d="M15.116 374.89H3.97287" stroke="#9468B4" stroke-miterlimit="10" stroke-linecap="round"/>
<path d="M561.516 374.89H586.516" stroke="#9468B4" stroke-miterlimit="10" stroke-linecap="round"/>
<path d="M438.07 377.409C437.682 378.088 436.132 379.638 433.806 380.608C431.578 381.577 426.733 382.061 429.446 383.031C432.062 383.903 435.26 383.418 436.81 383.128C438.36 382.837 439.814 383.321 441.655 383.321C444.077 383.321 444.174 382.643 443.884 379.832C443.399 376.052 439.136 375.277 438.07 377.409Z" fill="#222B70"/>
<path d="M481.964 374.89C481.867 375.665 482.933 377.992 480.995 379.639C479.057 381.384 474.6 383.128 477.604 383.225C480.511 383.322 483.321 382.644 484.871 381.868C486.325 381.093 485.162 379.93 487.003 379.348C489.425 378.573 488.941 376.828 487.681 375.665C485.937 372.079 482.449 372.37 481.964 374.89Z" fill="#222B70"/>
<path d="M473.05 298.71C473.05 298.71 478.864 281.555 462.294 267.404C462.294 267.404 453.38 270.893 446.306 271.378C440.686 271.669 437.392 270.99 437.392 270.99C437.392 270.99 436.035 286.304 436.035 294.542L473.05 298.71Z" fill="#8A47BB"/>
<path d="M439.717 280.683C438.458 281.167 436.811 283.106 436.132 294.639C435.939 297.353 434.873 318.094 434.485 323.134C434.388 324.006 434.388 324.782 434.485 325.46C434.388 325.945 434.388 326.429 434.388 326.914C434.776 335.152 438.167 361.418 437.973 377.216C437.973 377.216 438.458 377.894 439.33 378.282C440.493 378.863 442.431 378.766 443.69 378.282C444.853 365.488 453.283 338.738 447.372 326.72C449.698 319.16 454.93 302.974 455.996 296.771C457.74 286.692 446.21 278.163 439.717 280.683Z" fill="#8A47BB"/>
<path d="M473.244 328.95C472.759 320.905 474.213 300.552 472.759 294.252C470.53 284.269 459 280.102 453.961 284.851C452.895 285.82 452.217 291.344 452.992 293.864C453.864 296.384 458.515 325.267 460.066 330.113C460.259 330.791 460.938 332.827 461.132 333.311C463.845 341.065 476.829 361.418 481.286 376.635C481.286 376.635 482.061 376.925 482.933 376.925C484.871 377.022 486.518 376.441 487.778 375.278C485.259 362.678 483.902 339.514 473.244 328.95Z" fill="#8A47BB"/>
<path d="M400.28 226.504C400.28 226.504 398.149 224.178 397.567 223.305C396.986 222.433 394.079 222.239 393.207 220.591C392.432 218.847 390.688 216.521 392.529 215.649C394.37 214.776 394.273 214.679 394.757 214.001C395.242 213.322 391.753 210.803 391.075 208.767C390.494 206.829 395.92 211.384 396.792 212.547C397.567 213.71 398.924 212.644 399.699 214.679C400.474 216.715 400.668 219.235 402.703 222.142" fill="#FFCCB0"/>
<path d="M434.097 219.429C430.125 222.821 423.439 232.319 420.241 236.681C414.233 229.412 402.412 219.913 402.412 219.913C402.412 219.913 396.986 223.984 397.858 224.76C398.73 225.535 415.396 249.571 419.563 249.862C420.047 249.862 420.629 249.765 421.113 249.474C421.113 249.474 427.121 247.148 435.841 237.456C438.167 234.839 440.299 237.165 440.299 237.165L442.915 216.618C442.818 216.618 437.295 217.006 434.097 219.429Z" fill="#FECB22"/>
<path d="M433.322 221.367C435.648 219.429 440.59 215.94 448.244 216.134C453.477 216.328 467.818 217.2 469.368 220.689C470.143 222.53 471.015 240.849 469.852 247.245C468.98 251.994 466.655 263.819 466.655 266.726C466.655 269.537 468.205 270.797 467.43 271.669C465.783 273.511 454.833 274.286 449.698 274.286C445.144 274.286 437.295 273.026 436.908 271.572C436.714 270.894 437.101 267.114 436.908 262.074C436.423 251.316 435.357 235.13 434.485 232.901C433.71 230.478 431.191 223.112 433.322 221.367Z" fill="#FECB22"/>
<path d="M434.776 228.151C435.163 230.865 435.357 233.482 435.648 236.196C435.938 238.91 436.132 241.526 436.326 244.24C436.52 246.954 436.714 249.571 436.81 252.285C436.907 254.998 437.004 257.712 437.004 260.329C436.714 257.615 436.52 254.998 436.229 252.285C436.132 250.928 436.035 249.571 435.938 248.214L435.648 244.143C435.454 241.429 435.26 238.813 435.163 236.099C434.969 233.579 434.776 230.865 434.776 228.151Z" fill="#FCB424"/>
<path d="M456.771 217.006C456.771 217.006 451.248 220.786 447.566 220.592C445.725 219.72 444.659 217.006 444.659 217.006C444.659 217.006 445.822 216.424 446.113 216.23C446.21 216.133 446.307 214.098 446.404 212.354C446.404 211.869 446.404 211.287 446.404 210.9C446.404 210.318 446.404 209.931 446.404 209.931L457.353 205.278C457.353 205.278 456.093 207.895 455.803 209.931C455.512 212.644 455.512 215.843 455.512 216.037C455.609 216.521 456.771 217.006 456.771 217.006Z" fill="#FFCCB0"/>
<path d="M443.109 188.608C443.109 188.608 441.849 192.098 441.656 193.551C441.559 195.102 442.528 195.587 442.818 195.781C443.109 195.974 444.95 188.802 444.95 188.802" fill="#3B2E7A"/>
<path d="M450.376 186.767C449.02 187.154 445.531 186.379 444.562 187.833C443.593 189.287 442.721 192.776 442.431 193.745C441.752 195.683 441.268 197.719 440.686 199.754C440.008 202.371 438.845 207.12 441.365 209.252C442.14 209.834 442.431 210.124 443.303 210.221C444.465 210.415 445.725 210.706 446.888 210.9C448.729 211.191 450.764 211.578 452.605 210.997C455.027 210.221 456.384 206.829 457.062 204.503L460.647 191.322L450.376 186.767Z" fill="#FFCCB0"/>
<path d="M455.608 214.583C455.608 214.583 457.062 215.455 458.128 217.006C457.062 219.526 454.64 223.887 451.926 225.923C450.667 222.531 448.826 220.786 448.826 220.786C448.826 220.786 452.895 218.46 455.608 214.583Z" fill="#FCB424"/>
<path d="M447.178 220.495C447.178 220.495 444.95 221.562 443.399 224.469C443.399 224.469 442.915 220.495 443.981 217.103C443.981 217.103 445.725 214.874 446.306 214.874C446.112 217.685 447.178 220.495 447.178 220.495Z" fill="#FCB424"/>
<path d="M459.872 236.002L492.623 275.546C493.301 276.322 493.205 277.485 492.429 278.066L465.201 300.649C464.426 301.327 463.264 301.133 462.682 300.358L429.931 260.814C429.253 260.039 429.35 258.876 430.125 258.294L457.353 235.712C458.128 235.13 459.194 235.227 459.872 236.002Z" fill="#D57EE3"/>
<path d="M459.872 236.002L461.713 238.134L431.675 263.043L429.834 260.911C429.156 260.135 429.253 258.972 430.028 258.391L457.256 235.808C458.128 235.13 459.194 235.227 459.872 236.002Z" fill="#BA68C8"/>
<path d="M451.539 243.562C451.926 244.047 451.829 244.726 451.442 245.113C450.957 245.501 450.279 245.404 449.891 245.016C449.504 244.532 449.601 243.853 449.988 243.466C450.473 243.078 451.151 243.175 451.539 243.562Z" fill="white"/>
<path d="M455.221 240.558C455.608 241.043 455.512 241.721 455.124 242.109C454.64 242.497 453.961 242.4 453.574 242.012C453.186 241.527 453.283 240.849 453.671 240.461C454.155 239.977 454.833 240.073 455.221 240.558Z" fill="white"/>
<path d="M458.903 237.457C459.29 237.941 459.194 238.62 458.806 239.007C458.321 239.395 457.643 239.298 457.256 238.91C456.868 238.426 456.965 237.747 457.353 237.36C457.837 236.972 458.515 236.972 458.903 237.457Z" fill="white"/>
<path opacity="0.5" d="M449.115 251.496L434.723 263.439L443.509 274.031L457.901 262.088L449.115 251.496Z" fill="white"/>
<path opacity="0.5" d="M471.446 253.333L444.675 275.55L463.916 298.747L490.687 276.531L471.446 253.333Z" fill="white"/>
<path opacity="0.5" d="M461.553 241.186L450.666 250.223L451.408 251.118L462.296 242.081L461.553 241.186Z" fill="white"/>
<path opacity="0.5" d="M463.092 243.203L452.204 252.238L452.947 253.133L463.834 244.098L463.092 243.203Z" fill="white"/>
<path opacity="0.5" d="M464.731 245.117L453.843 254.152L454.586 255.047L465.473 246.012L464.731 245.117Z" fill="white"/>
<path opacity="0.5" d="M466.395 246.986L455.507 256.022L456.25 256.918L467.137 247.881L466.395 246.986Z" fill="white"/>
<path opacity="0.5" d="M467.958 248.959L457.071 257.995L457.814 258.89L468.701 249.854L467.958 248.959Z" fill="white"/>
<path opacity="0.5" d="M466.478 253.544L458.722 259.979L459.465 260.875L467.22 254.439L466.478 253.544Z" fill="white"/>
<path d="M446.5 272.057C443.884 272.444 442.043 273.704 440.589 275.158C440.492 275.255 440.299 275.449 440.396 275.546C440.396 275.74 440.686 275.837 440.88 275.837C442.14 276.03 442.334 275.255 443.399 274.77C444.175 274.48 444.95 274.092 445.725 273.801" fill="#F2A181"/>
<path d="M455.415 272.057C454.349 272.736 453.186 273.414 452.12 274.093C451.636 274.383 451.151 274.674 450.957 275.256C450.279 277.582 448.729 277.776 447.954 278.26C447.372 278.648 445.919 279.036 445.24 279.326C445.434 279.617 445.628 279.908 445.822 280.102C445.725 280.199 445.531 280.199 445.337 280.296C445.337 280.296 445.337 280.296 445.24 280.296C444.271 280.586 443.399 279.714 443.399 279.714C442.527 278.842 441.461 277.582 441.268 276.806C440.977 275.643 441.462 275.062 441.558 274.965C442.237 274.287 444.271 272.833 444.853 272.542C445.434 272.251 450.86 270.7 452.895 270.216L455.415 272.057Z" fill="#FFCCB0"/>
<path d="M465.395 232.32C466.17 243.175 469.852 256.647 469.852 256.647L449.407 270.797C449.407 270.797 449.697 271.96 450.182 273.317C450.569 274.383 451.442 275.643 451.442 275.643C451.442 275.643 477.797 266.242 479.638 260.62C479.154 253.933 479.929 230.187 473.243 221.368C471.112 218.557 458.127 216.909 458.127 216.909" fill="#FECB22"/>
<path d="M463.07 190.159C462.876 189.965 462.779 189.868 462.682 189.674C462.779 186.476 461.132 185.894 459.097 185.022C456.287 183.762 445.047 183.471 443.981 179.304C443.109 179.691 442.334 180.176 442.528 183.277C442.334 182.89 442.14 182.502 441.946 182.017C441.268 183.084 440.88 184.344 440.88 185.507C440.88 186.767 441.365 188.027 442.334 188.802C442.915 189.287 443.594 189.577 444.369 189.868C446.113 190.45 447.954 190.643 449.698 190.934C451.442 191.322 453.283 191.903 454.64 193.066C455.027 193.357 455.318 193.745 455.609 194.23C455.221 195.296 454.64 197.331 454.64 198.397C454.64 199.172 455.027 199.851 455.415 200.239C455.221 201.886 455.124 203.34 455.415 203.243C455.899 203.146 456.093 202.468 456.384 202.08C456.965 201.305 457.547 201.789 458.419 202.274L458.031 203.049L459.388 202.371C459.485 202.371 467.43 194.714 463.07 190.159Z" fill="#3B2E7A"/>
<path d="M455.221 205.666C455.221 205.666 455.124 206.248 455.415 206.732C455.705 207.12 456.384 207.12 456.868 206.926C458.128 206.538 459.097 205.278 459.29 203.921C459.581 202.371 458.709 200.82 457.353 201.208C456.48 201.402 455.996 202.371 455.996 203.243" fill="#FFCCB0"/>
<path d="M451.054 211.384C451.054 211.384 449.504 212.257 446.403 212.257C446.403 211.772 446.403 211.19 446.403 210.803L451.054 211.384Z" fill="#F2A181"/>
<path d="M465.589 234.451C466.461 238.134 467.139 241.817 467.817 245.5L468.786 251.025C469.174 252.866 469.464 254.708 469.852 256.549C469.077 254.804 468.496 252.963 468.108 251.218C467.623 249.377 467.236 247.535 466.945 245.694C466.17 242.011 465.686 238.231 465.589 234.451Z" fill="#FCB424"/>
<path d="M451.442 287.854C452.12 290.471 452.701 293.185 453.283 295.802C453.864 298.419 454.445 301.133 454.93 303.846C455.414 306.56 455.996 309.177 456.48 311.891L457.934 319.935C457.062 317.318 456.383 314.702 455.802 311.988C455.124 309.371 454.639 306.657 454.058 303.943C453.573 301.23 452.992 298.613 452.604 295.899C452.217 293.282 451.829 290.665 451.442 287.854Z" fill="#642F8B"/>
<path d="M412.102 383.516H490.782" stroke="#9468B4" stroke-miterlimit="10" stroke-linecap="round"/>
<path d="M493.689 383.516H504.929" stroke="#9468B4" stroke-miterlimit="10" stroke-linecap="round"/>
<path d="M127.516 383.515L149.027 235.614H138.271L116.76 383.515H127.516Z" fill="#65739B"/>
<path d="M129.357 383.515L150.965 235.614H140.112L118.601 383.515H129.357Z" fill="#35416D"/>
<path d="M190.208 304.622H134.202" stroke="#222B54" stroke-width="2" stroke-miterlimit="10" stroke-linecap="round"/>
<path d="M194.181 276.127H138.175" stroke="#222B54" stroke-width="2" stroke-miterlimit="10" stroke-linecap="round"/>
<path d="M198.735 247.633H142.341" stroke="#222B54" stroke-width="2" stroke-miterlimit="10" stroke-linecap="round"/>
<path d="M186.235 333.214H130.229" stroke="#222B54" stroke-width="2" stroke-miterlimit="10" stroke-linecap="round"/>
<path d="M181.681 361.708H125.772" stroke="#222B54" stroke-width="2" stroke-miterlimit="10" stroke-linecap="round"/>
<path d="M203.888 134.267L106.708 122.726L97.831 197.506L195.012 209.047L203.888 134.267Z" fill="#BA68C8"/>
<path d="M201.373 135.725L108.715 124.721L100.25 196.036L192.908 207.04L201.373 135.725Z" fill="#6F3698"/>
<path d="M170.344 160.792L138.659 191.71L140.21 191.904L139.144 200.723L192.921 207.023L193.987 198.3L170.344 160.792Z" fill="#9468B4"/>
<path d="M101.354 187.251L144.182 143.83L181.778 205.762L100.288 196.07L101.354 187.251Z" fill="#BA68C8"/>
<path d="M187.865 150.605C190.057 145.604 187.78 139.773 182.78 137.582C177.781 135.39 171.952 137.667 169.761 142.668C167.57 147.669 169.847 153.499 174.846 155.691C179.845 157.882 185.674 155.605 187.865 150.605Z" fill="white"/>
<path d="M140.403 323.134C140.403 323.134 140.016 327.495 139.822 328.561C139.628 329.628 136.14 329.531 135.752 328.949C135.365 328.368 135.558 323.231 135.558 323.231" fill="#FFCCB0"/>
<path d="M134.783 329.918C134.686 331.081 134.88 333.019 134.88 333.019L138.95 333.31L139.24 332.632C139.24 332.632 140.5 333.407 141.566 333.504L144.957 333.698C147.476 333.892 148.93 333.601 149.027 333.213C149.414 331.372 146.411 331.275 145.635 331.178C143.407 330.984 140.984 329.821 140.597 328.658C140.306 327.786 140.5 327.592 140.015 327.689C140.015 327.689 139.628 327.786 139.24 328.27C138.756 329.046 137.884 329.53 137.012 329.239C136.527 329.143 136.043 328.852 135.655 328.464C135.655 328.464 134.88 328.755 134.783 329.918Z" fill="#8A47BB"/>
<path d="M181.1 293.282C181.1 293.282 180.615 296.286 180.131 297.352C179.743 298.418 176.352 297.449 176.061 296.771C175.867 296.092 177.127 291.149 177.127 291.149" fill="#FFCCB0"/>
<path d="M174.995 297.547C174.705 298.71 174.317 300.842 174.317 300.842L177.708 302.393L178.29 301.908C178.29 301.908 179.162 302.974 180.131 303.459C180.906 303.846 182.553 304.331 183.425 304.428C186.429 304.816 188.561 304.234 188.755 303.846C189.53 302.102 185.557 301.617 184.782 301.423C182.553 300.842 181.294 298.903 181.1 297.644C180.906 296.771 181.197 296.577 180.615 296.577C180.615 296.577 180.131 296.577 179.743 296.965C179.065 297.644 178.193 297.934 177.321 297.547C176.836 297.353 176.352 296.965 176.158 296.577C176.158 296.384 175.286 296.48 174.995 297.547Z" fill="#8A47BB"/>
<path d="M132.651 209.057C133.62 209.445 135.268 209.833 137.302 210.123C138.562 210.22 140.015 210.317 141.469 210.317C143.794 210.317 146.217 209.833 148.058 208.864C152.612 206.634 153.097 202.273 153.484 201.885C152.903 201.885 149.802 201.885 146.798 201.788C143.504 201.691 140.209 201.401 140.112 200.722C140.694 199.656 141.178 198.396 141.566 197.039C143.891 188.898 143.213 175.91 142.632 169.901C140.015 170.483 135.752 171.452 134.686 173.391C132.748 176.88 131.779 183.18 131.198 189.77C130.229 198.784 130.326 208.185 132.651 209.057Z" fill="#FECB22"/>
<path d="M156.682 221.561L141.759 221.464C141.759 221.464 137.205 228.636 137.787 235.905C138.271 243.077 139.822 243.659 139.822 247.148C139.918 261.298 140.403 270.7 140.791 275.643C140.984 278.259 140.597 280.779 139.822 283.299C138.853 286.304 137.496 290.471 137.108 293.379C135.946 300.648 134.977 324.878 134.977 324.878C134.977 324.878 138.756 325.944 140.791 325.557C140.791 325.557 150.093 294.833 152.806 282.621L155.131 273.22C156.391 268.761 163.174 239.394 163.174 239.394L156.682 221.561Z" fill="#8A47BB"/>
<path d="M185.363 248.213C187.398 242.301 199.219 243.367 197.475 250.249C195.44 257.906 182.069 294.542 182.069 294.542C182.069 294.542 179.162 294.542 175.673 292.894C175.673 292.894 177.418 283.977 179.84 263.915C180.421 258.39 184.491 249.57 185.363 248.213Z" fill="#8A47BB"/>
<path d="M156.197 216.617C166.468 219.912 183.91 234.16 193.212 240.072C199.51 244.046 198.832 254.029 192.63 254.61C185.266 255.289 152.515 248.601 141.857 229.605" fill="#8A47BB"/>
<path d="M146.023 167.285C146.023 167.285 147.186 163.214 146.701 160.21C146.217 157.205 144.376 151.778 145.054 147.707C145.732 143.636 156.585 137.046 160.945 140.341C168.6 145.962 163.174 164.087 162.205 164.668C161.333 165.153 157.845 164.474 157.263 165.153C156.682 165.831 156.197 169.611 156.197 169.611" fill="#FFCCB0"/>
<path d="M144.085 170.483C144.085 170.483 144.182 168.447 144.86 167.672C146.701 165.734 156.585 168.254 157.069 168.544C157.554 168.835 158.038 170.87 158.038 170.87L144.085 170.483Z" fill="#FCB424"/>
<path d="M145.151 160.404C145.733 161.76 145.926 163.699 146.702 164.087C146.702 164.087 152.806 164.668 154.356 164.474C157.651 162.923 158.62 155.17 158.62 155.17C158.523 154.104 158.426 152.747 158.814 152.165C159.783 150.711 161.43 151.875 161.624 153.231C161.721 154.588 161.721 156.139 162.108 156.333C162.593 156.624 162.98 154.588 162.786 151.971C162.593 149.742 164.24 146.059 165.5 144.024C167.05 141.698 166.275 135.786 161.43 136.27C161.43 136.949 160.558 138.112 158.911 138.596C155.616 139.469 149.705 138.693 146.798 140.438C145.539 141.116 144.473 142.764 145.054 144.024C145.054 144.024 142.051 143.636 142.535 148.385C143.504 158.465 144.376 158.368 145.151 160.404Z" fill="#222B54"/>
<path d="M167.437 222.821C166.759 223.111 166.081 223.499 165.402 223.693C163.658 224.177 161.817 223.887 160.073 223.79C158.232 223.596 156.391 223.499 154.55 223.305C144.957 222.917 141.663 225.244 140.112 222.917C139.822 222.433 139.628 221.851 139.822 220.979C140.015 219.719 139.24 208.089 137.69 197.427C136.624 190.352 134.589 183.761 134.395 180.66C133.814 169.611 145.054 169.708 145.054 169.708C161.526 168.642 167.728 173.391 168.6 180.563C168.697 181.048 168.697 181.629 168.697 182.211C169.084 189.48 167.05 204.599 165.984 213.419C165.596 215.745 168.891 222.239 167.437 222.821Z" fill="#FECB22"/>
<path d="M201.06 158.077C201.06 157.786 201.06 157.496 201.06 157.399C200.963 156.817 200.382 157.011 200.188 157.496C200.188 157.593 200.091 157.883 199.994 158.271C199.994 158.077 199.994 157.883 199.994 157.786C199.898 157.302 199.413 157.399 199.219 157.786C199.122 157.883 199.122 158.174 199.025 158.756C198.929 159.24 198.832 159.725 198.735 160.209C198.638 160.694 198.153 162.729 197.088 162.923C195.537 163.214 196.506 160.5 195.44 159.822C195.053 159.628 194.665 161.76 194.665 162.923C194.665 164.086 194.568 164.765 194.665 165.443C194.762 166.122 195.15 167.188 195.053 167.575C194.956 167.963 194.471 169.126 194.471 169.126L198.153 170.677C198.153 170.677 198.638 168.448 199.122 167.963C200.382 166.8 201.06 165.443 201.448 163.699C202.32 161.372 201.254 157.689 201.06 158.077Z" fill="#FFCCB0"/>
<path d="M198.735 169.998C198.735 169.998 197.669 176.395 196.603 181.435C195.731 185.312 194.568 188.801 192.727 193.356C192.727 193.356 190.014 199.559 188.754 200.141C182.553 202.951 167.34 189.479 164.433 186.862C157.747 188.607 152.806 169.611 152.806 169.611C152.806 169.611 160.654 169.707 165.402 170.774C170.441 171.84 184.491 187.735 185.169 187.735C185.557 186.959 186.041 186.087 187.495 183.179C190.886 176.783 195.053 168.738 195.053 168.738C195.053 168.738 198.153 169.611 198.153 169.707L198.735 169.998Z" fill="#FECB22"/>
<path d="M181.584 383.515L203.192 235.614H192.34L170.829 383.515H181.584Z" fill="#3B4772"/>
<path d="M183.425 383.515L205.033 235.614H194.278L172.67 383.515H183.425Z" fill="#222B54"/>
<path d="M148.252 227.958C147.864 229.412 147.67 230.866 147.67 232.319C147.67 233.773 147.864 235.227 148.349 236.584C149.317 239.298 151.449 241.43 153.969 242.69C156.585 244.047 159.298 245.21 162.011 246.47C163.368 247.051 164.724 247.73 166.081 248.311C167.437 248.893 168.794 249.474 170.15 250.056C167.243 249.281 164.433 248.215 161.72 247.148C158.91 246.082 156.197 244.822 153.581 243.562C152.224 242.884 150.965 241.915 149.899 240.752C148.833 239.589 148.058 238.232 147.67 236.778C146.895 233.87 147.186 230.672 148.252 227.958Z" fill="#642F8B"/>
<path d="M162.108 183.181C163.077 184.538 164.143 185.701 165.306 186.864C166.468 188.027 167.631 189.093 168.794 190.159C169.957 191.225 171.216 192.194 172.476 193.26L176.255 196.265C175.48 195.877 174.801 195.49 174.123 195.102C173.445 194.714 172.67 194.23 171.991 193.842C170.635 192.97 169.278 191.904 168.116 190.837C166.856 189.771 165.693 188.608 164.724 187.348C163.755 186.088 162.786 184.731 162.108 183.181Z" fill="#FCB424"/>
<path d="M135.171 185.7C135.946 188.026 136.527 190.449 137.012 192.775C137.496 195.198 137.981 197.621 138.272 200.044C138.562 202.467 138.95 204.89 139.047 207.314C139.144 208.573 139.241 209.737 139.241 210.997C139.241 212.256 139.337 213.42 139.337 214.68C138.95 212.256 138.659 209.833 138.272 207.41L137.206 200.141L136.14 192.872L135.171 185.7Z" fill="#FCB424"/>
<path d="M182.747 185.604C183.813 186.282 184.782 187.154 185.654 188.123C186.526 189.093 187.301 190.062 187.786 191.225L185.267 188.414C184.395 187.445 183.522 186.573 182.747 185.604Z" fill="#FCB424"/>
<path d="M106.005 383.516H194.181" stroke="#9468B4" stroke-miterlimit="10" stroke-linecap="round"/>
<path d="M79.2613 383.516H101.548" stroke="#9468B4" stroke-miterlimit="10" stroke-linecap="round"/>
<path d="M358.227 383.515H295.535C294.081 383.515 292.919 382.352 292.919 380.899V280.586C292.919 279.132 294.081 277.969 295.535 277.969H358.227C359.68 277.969 360.843 279.132 360.843 280.586V380.899C360.94 382.352 359.68 383.515 358.227 383.515Z" fill="#222B54"/>
<path d="M353.867 368.202H299.895C298.442 368.202 297.279 367.039 297.279 365.586V285.917C297.279 284.463 298.442 283.3 299.895 283.3H353.867C355.32 283.3 356.483 284.463 356.483 285.917V365.489C356.58 366.942 355.32 368.202 353.867 368.202Z" fill="#D57EE3"/>
<path d="M278.965 383.516H362.587" stroke="#9468B4" stroke-miterlimit="10" stroke-linecap="round"/>
<path d="M364.816 383.516H370.727" stroke="#9468B4" stroke-miterlimit="10" stroke-linecap="round"/>
<path d="M333.422 289.6V319.742C333.422 320.227 333.034 320.711 332.453 320.711H302.608C302.124 320.711 301.736 320.323 301.736 319.742V289.6C301.736 289.115 302.124 288.727 302.608 288.727H332.453C333.034 288.63 333.422 289.115 333.422 289.6Z" fill="white"/>
<path d="M333.421 314.121V319.742C333.421 320.227 333.034 320.711 332.452 320.711H317.627L318.209 314.121L325.185 306.367L333.421 314.121Z" fill="#752CAA"/>
<path d="M329.352 320.712H302.705C302.221 320.712 301.833 320.324 301.833 319.742V314.121L312.298 303.169L329.352 320.712Z" fill="#6F3698"/>
<path d="M325.573 301.036C327.606 301.036 329.255 299.387 329.255 297.353C329.255 295.319 327.606 293.67 325.573 293.67C323.539 293.67 321.891 295.319 321.891 297.353C321.891 299.387 323.539 301.036 325.573 301.036Z" fill="#752CAA"/>
<path d="M351.735 325.266V355.408C351.735 355.893 351.056 356.377 350.281 356.377H303.48C302.705 356.377 302.027 355.99 302.027 355.408V325.266C302.027 324.781 302.705 324.393 303.48 324.393H350.281C351.153 324.296 351.735 324.781 351.735 325.266Z" fill="white"/>
<path d="M326.929 349.109C331.746 349.109 335.65 345.203 335.65 340.386C335.65 335.568 331.746 331.663 326.929 331.663C322.113 331.663 318.209 335.568 318.209 340.386C318.209 345.203 322.113 349.109 326.929 349.109Z" fill="#D57EE3"/>
<path d="M324.507 345.426V335.249L331.581 340.386L324.507 345.426Z" fill="#6F3698"/>
<path d="M351.735 288.63H335.65V291.053H351.735V288.63Z" fill="#EBB4F4"/>
<path d="M351.735 358.704H302.027V361.127H351.735V358.704Z" fill="#EBB4F4"/>
<path d="M343.983 363.162H302.027V365.585H343.983V363.162Z" fill="#EBB4F4"/>
<path d="M351.735 292.895H335.65V295.318H351.735V292.895Z" fill="#EBB4F4"/>
<path d="M351.735 297.159H335.65V299.582H351.735V297.159Z" fill="#EBB4F4"/>
<path d="M351.735 301.326H335.65V303.749H351.735V301.326Z" fill="#EBB4F4"/>
<path d="M351.735 305.591H335.65V308.014H351.735V305.591Z" fill="#EBB4F4"/>
<path d="M351.735 309.855H335.65V312.279H351.735V309.855Z" fill="#EBB4F4"/>
<path d="M351.735 314.023H335.65V316.447H351.735V314.023Z" fill="#EBB4F4"/>
<path d="M346.599 318.288H335.65V320.711H346.599V318.288Z" fill="#EBB4F4"/>
<path d="M331.58 375.858C331.58 378.184 329.643 380.123 327.317 380.123C324.991 380.123 323.054 378.184 323.054 375.858C323.054 373.532 324.991 371.594 327.317 371.594C329.643 371.594 331.58 373.532 331.58 375.858Z" fill="white"/>
<path d="M132.264 90.8144H112.594C109.203 90.8144 106.489 88.1006 106.489 84.7084V65.1304C106.489 61.7382 109.203 59.0244 112.594 59.0244H132.264C135.655 59.0244 138.368 61.7382 138.368 65.1304V84.8053C138.368 88.1006 135.655 90.8144 132.264 90.8144Z" fill="#D57EE3"/>
<path d="M127.419 76.5674L120.83 69.9768C121.315 68.3291 120.927 66.3907 119.571 65.1308C118.214 63.7739 116.373 63.3862 114.629 63.8708L117.73 66.9722L117.051 69.5891L114.435 70.2676L111.334 67.1661C110.85 68.8137 111.237 70.7522 112.594 72.109C113.951 73.4659 115.792 73.8536 117.439 73.369L124.028 79.9596C123.543 81.6073 123.931 83.5457 125.287 84.8057C126.644 86.1625 128.485 86.5502 130.229 86.0656L127.129 82.9642L127.807 80.3473L130.423 79.6689L133.524 82.7703C134.008 81.1227 133.621 79.1843 132.264 77.8274C131.004 76.4705 129.163 76.0828 127.419 76.5674Z" fill="white"/>
<path d="M96.6063 236.196C96.6063 236.002 96.5094 235.905 96.5094 235.711C96.5094 235.615 96.4125 235.518 96.4125 235.421C96.3156 235.324 96.3156 235.227 96.2187 235.13L96.1218 235.033L96.0249 234.936C95.928 234.936 95.928 234.839 95.8311 234.839C95.7342 234.742 95.5404 234.742 95.4435 234.645C95.4435 234.645 95.3466 234.645 95.2497 234.645C95.0559 234.645 94.8621 234.645 94.6684 234.645C94.5715 234.645 94.3777 234.645 94.2808 234.645C93.9901 234.645 93.6025 234.548 93.4087 234.355L93.3118 234.258L93.2149 234.161C93.118 234.064 93.118 234.064 93.0211 233.967C93.0211 233.87 92.9242 233.773 92.9242 233.773C92.9242 233.773 92.9242 233.676 92.8273 233.676V233.579C92.7304 233.288 92.5366 232.901 92.4397 232.61C92.4397 232.513 92.4397 232.513 92.3428 232.416C92.2459 232.222 92.2459 231.932 92.2459 231.641C92.2459 231.447 92.3428 231.253 92.4397 231.059C92.5366 230.865 92.6335 230.672 92.8273 230.575C92.9242 230.575 92.9242 230.478 93.0211 230.478C93.118 230.478 93.118 230.381 93.2149 230.381C93.3118 230.284 93.5056 230.09 93.6025 229.896C93.6025 229.799 93.6994 229.702 93.6994 229.702C93.6994 229.605 93.7963 229.509 93.7963 229.412C93.8932 228.927 93.7963 228.346 93.5056 227.958C93.118 227.473 92.7304 227.086 92.3428 226.601C91.9552 226.213 91.4708 225.826 90.9863 225.438C90.5018 225.05 90.0173 224.953 89.5328 225.147C89.4359 225.147 89.4359 225.147 89.339 225.244C89.0483 225.341 88.8546 225.438 88.6608 225.729C88.6608 225.729 88.5639 225.826 88.5639 225.922C88.3701 226.213 88.0794 226.407 87.7887 226.504C87.6918 226.504 87.5949 226.601 87.4011 226.601H87.3042C87.2073 226.601 87.0135 226.601 86.9166 226.601C86.8197 226.601 86.7228 226.601 86.6259 226.504C86.529 226.504 86.529 226.504 86.4321 226.407C86.3352 226.407 86.2383 226.31 86.2383 226.31C86.1414 226.213 86.0445 226.213 85.9477 226.213C85.7539 226.116 85.5601 226.019 85.3663 226.019C84.688 225.729 84.2035 225.05 84.3004 224.275V224.178C84.3973 223.306 83.8159 222.433 82.9439 222.24C82.847 222.24 82.847 222.24 82.7501 222.24C82.1687 222.143 81.5873 222.143 81.0059 222.143C80.4245 222.143 79.8432 222.143 79.2618 222.24C78.2928 222.336 77.6145 223.209 77.7114 224.178V224.275C77.7114 224.372 77.7114 224.469 77.7114 224.566C77.7114 225.244 77.3238 225.826 76.7425 226.213C76.7425 226.213 76.6456 226.213 76.6456 226.31C76.4518 226.407 76.258 226.407 76.0642 226.504C75.8704 226.601 75.7735 226.601 75.6766 226.698H75.5797C74.8045 227.086 73.9325 226.795 73.448 226.116C72.8666 225.341 71.8007 225.147 71.0256 225.632C70.9287 225.632 70.9287 225.729 70.8318 225.729C70.3473 226.116 69.9597 226.504 69.5721 226.892C69.1845 227.279 68.7969 227.764 68.4094 228.152C68.0218 228.636 67.9249 229.218 68.1187 229.799C68.1187 229.993 68.2156 230.09 68.3125 230.284C68.4094 230.381 68.5063 230.478 68.6032 230.575C68.7001 230.575 68.7 230.672 68.7969 230.672C69.4752 231.156 69.669 232.028 69.3783 232.804C69.1845 233.192 69.0876 233.482 68.8938 233.87C68.7969 234.064 68.7 234.258 68.5063 234.452C68.4094 234.548 68.3125 234.645 68.2156 234.742C68.1187 234.839 68.0218 234.839 67.828 234.936C67.7311 234.936 67.6342 235.033 67.5373 235.033C67.3435 235.033 67.0528 235.13 66.859 235.033C66.7621 235.033 66.6652 235.033 66.5683 235.033C66.4714 235.033 66.3745 235.033 66.2776 235.033C65.5025 235.13 64.9211 235.808 64.8242 236.584C64.7273 237.165 64.7273 237.747 64.7273 238.328C64.7273 238.91 64.7273 239.491 64.8242 240.073C64.9211 240.848 65.5025 241.527 66.2776 241.624C66.4714 241.624 66.6652 241.624 66.859 241.624C66.9559 241.624 67.0528 241.624 67.1497 241.624C67.5373 241.624 67.828 241.721 68.1187 241.914C68.2156 242.011 68.2156 242.011 68.3125 242.108C68.5063 242.302 68.7 242.496 68.7969 242.787C68.8938 243.174 69.0876 243.465 69.2814 243.853C69.5721 244.531 69.3783 245.307 68.8938 245.888C68.7969 245.888 68.7969 245.985 68.7 245.985C68.6032 245.985 68.6031 246.082 68.5063 246.082C68.4094 246.179 68.3125 246.276 68.2156 246.373C68.1187 246.47 68.0218 246.664 68.0218 246.857C68.0218 246.954 68.0218 246.954 68.0218 247.051C68.0218 247.148 68.0218 247.148 68.0218 247.245C68.0218 247.342 68.0218 247.342 68.0218 247.439C68.0218 247.439 68.0218 247.439 68.0218 247.536C68.0218 247.633 68.0218 247.73 68.0218 247.827C68.0218 247.924 68.0218 248.02 68.1187 248.02V248.117C68.1187 248.214 68.2156 248.214 68.2156 248.311C68.2156 248.408 68.3125 248.408 68.3125 248.505C68.7 248.99 69.0876 249.377 69.4752 249.765C69.8628 250.153 70.3473 250.54 70.7349 250.928C71.1225 251.219 71.607 251.316 71.9945 251.316C72.1883 251.316 72.2852 251.316 72.479 251.219C72.7697 251.122 73.0604 250.928 73.3511 250.637L73.448 250.443C73.6418 250.25 73.8356 250.056 74.1263 249.959L74.7076 249.862C74.9983 249.862 75.1921 249.959 75.3859 250.056C75.7735 250.25 76.0642 250.347 76.4518 250.54C76.8394 250.637 77.1301 250.928 77.3239 251.219C77.4207 251.316 77.4207 251.413 77.5176 251.607C77.6145 251.897 77.7114 252.188 77.6145 252.479C77.5176 253.448 78.099 254.32 78.9711 254.514C79.068 254.514 79.068 254.514 79.1649 254.514C79.7463 254.611 80.3276 254.611 80.909 254.611C81.4904 254.611 82.0718 254.611 82.6532 254.514C83.0408 254.417 83.4283 254.223 83.719 253.933C83.8159 253.836 83.9128 253.642 84.0097 253.545C84.0097 253.448 84.1066 253.448 84.1066 253.351C84.2035 253.06 84.3004 252.77 84.2035 252.479C84.2035 252.382 84.2035 252.285 84.2035 252.188C84.2035 251.413 84.688 250.734 85.3663 250.54C85.7539 250.443 86.0445 250.25 86.4321 250.056C86.9166 249.862 87.498 249.862 87.9825 250.056C88.0794 250.153 88.1763 250.153 88.3701 250.25C88.467 250.25 88.467 250.347 88.5639 250.443C88.6608 250.443 88.6608 250.54 88.6608 250.637C89.2421 251.413 90.2111 251.607 90.9863 251.122C91.0832 251.122 91.0832 251.025 91.1801 251.025C91.6646 250.637 92.0521 250.25 92.4397 249.862C92.8273 249.474 93.2149 248.99 93.6025 248.602C93.9901 248.117 94.087 247.536 93.8932 246.954C93.8932 246.857 93.7963 246.76 93.7963 246.76C93.7963 246.664 93.6994 246.567 93.6994 246.567C93.6025 246.47 93.5056 246.373 93.4087 246.276C93.3118 246.276 93.3118 246.179 93.2149 246.179C93.118 246.179 93.118 246.082 93.0211 246.082C92.4397 245.597 92.3428 244.725 92.6335 244.047C92.8273 243.659 92.9242 243.368 93.118 242.981C93.4087 242.205 94.1839 241.721 95.0559 241.817C95.5404 241.914 95.928 241.818 96.2187 241.624C96.3156 241.527 96.4125 241.527 96.5094 241.43L96.6063 241.333L96.7032 241.236C96.897 240.945 97.0908 240.654 97.0908 240.364C97.1877 239.782 97.1877 239.201 97.1877 238.619C96.7032 237.359 96.7032 236.778 96.6063 236.196ZM89.0483 238.813C89.0483 238.91 89.0483 238.91 89.0483 238.813C89.0483 239.007 89.0483 239.201 88.9515 239.298C88.9515 239.491 88.9514 239.588 88.8545 239.782C88.7577 240.073 88.7577 240.364 88.6608 240.654C88.5639 240.848 88.5639 240.945 88.467 241.139C88.3701 241.236 88.3701 241.43 88.2732 241.527C88.2732 241.624 88.1763 241.721 88.0794 241.817C87.9825 242.108 87.7887 242.399 87.5949 242.593C87.5949 242.69 87.498 242.69 87.498 242.787C87.498 242.787 87.498 242.884 87.4011 242.884C87.3042 242.981 87.3042 243.077 87.2073 243.077C87.1104 243.174 87.1104 243.271 87.0135 243.368C86.8197 243.562 86.7228 243.756 86.529 243.95C86.4321 244.047 86.3352 244.144 86.3352 244.144C86.2383 244.241 86.1414 244.241 86.1414 244.337C86.0446 244.434 85.9477 244.531 85.7539 244.628C85.4632 244.822 85.1725 245.016 84.8818 245.21C84.7849 245.307 84.688 245.307 84.5911 245.404C84.4942 245.5 84.3973 245.5 84.2035 245.597C84.1066 245.694 84.0097 245.694 83.9128 245.791C83.719 245.888 83.5252 245.985 83.3314 245.985C83.2345 245.985 83.1376 246.082 83.0408 246.082C82.847 246.179 82.5563 246.179 82.3625 246.276C82.2656 246.276 82.1687 246.373 81.9749 246.373C81.878 246.373 81.7811 246.373 81.5873 246.47C81.0059 246.567 80.4245 246.567 79.7463 246.47C79.6494 246.47 79.5525 246.47 79.3587 246.47C79.2618 246.47 79.1649 246.47 78.9711 246.373C78.8742 246.373 78.7773 246.373 78.5835 246.276C78.1959 246.179 77.8083 246.082 77.3239 245.888C77.227 245.888 77.1301 245.791 77.0332 245.791C76.9363 245.791 76.8394 245.694 76.6456 245.597C76.5487 245.5 76.4518 245.5 76.258 245.404C75.9673 245.307 75.7735 245.113 75.5797 245.016C75.4828 244.919 75.3859 244.822 75.289 244.822C75.1921 244.725 75.0952 244.725 74.9983 244.628C74.9014 244.531 74.7076 244.434 74.6107 244.337C74.5138 244.241 74.3201 244.144 74.2232 243.95C74.1263 243.853 74.0294 243.756 73.9325 243.659C73.5449 243.271 73.2542 242.884 73.0604 242.399C72.9635 242.302 72.9635 242.205 72.8666 242.011C72.7697 241.914 72.6728 241.721 72.6728 241.624C72.6728 241.527 72.5759 241.43 72.5759 241.43C72.5759 241.333 72.5759 241.333 72.479 241.236C72.479 241.139 72.3821 241.139 72.3821 241.042C72.3821 240.945 72.2852 240.848 72.2852 240.751V240.654C72.2852 240.558 72.1883 240.461 72.1883 240.267C72.0914 240.073 72.0914 239.879 72.0914 239.782C72.0914 239.685 72.0914 239.588 71.9945 239.491C71.9945 239.298 71.8976 239.104 71.8976 238.91C71.8976 238.619 71.8976 238.328 71.8976 238.038C71.8976 237.747 71.8976 237.456 71.8976 237.165V237.068C71.8976 236.971 71.8976 236.778 71.9945 236.681C71.9945 236.487 71.9945 236.39 72.0914 236.196C72.1883 235.905 72.1883 235.615 72.2852 235.324C72.2852 235.227 72.3821 235.13 72.3821 234.936C72.3821 234.839 72.479 234.742 72.479 234.645C72.479 234.548 72.479 234.548 72.5759 234.452C72.5759 234.355 72.6728 234.258 72.6728 234.258C72.7697 234.064 72.8666 233.87 73.0604 233.579C73.1573 233.482 73.1573 233.385 73.2542 233.288C73.3511 233.192 73.3511 233.095 73.448 232.998C73.5449 232.901 73.6418 232.707 73.7387 232.61C73.8356 232.513 73.9325 232.416 74.0294 232.222C74.1263 232.125 74.2232 232.029 74.3201 231.932C74.9014 231.35 75.4828 230.962 76.0642 230.575C76.1611 230.478 76.258 230.478 76.3549 230.381C76.4518 230.284 76.5487 230.284 76.6456 230.187C76.7425 230.09 76.8394 230.09 76.9363 230.09C77.1301 229.993 77.3239 229.896 77.5176 229.896C77.6145 229.896 77.7114 229.799 77.8083 229.799C77.9052 229.799 78.0021 229.702 78.1959 229.702C78.2928 229.702 78.3897 229.605 78.5835 229.605C78.6804 229.605 78.7773 229.509 78.9711 229.509C79.068 229.509 79.1649 229.509 79.3587 229.412C79.4556 229.412 79.5525 229.412 79.7463 229.412C80.2308 229.412 80.7152 229.412 81.1997 229.412C81.2966 229.412 81.3935 229.412 81.5873 229.412C81.6842 229.412 81.7811 229.412 81.9749 229.509C82.0718 229.509 82.1687 229.509 82.3625 229.605C82.6532 229.702 82.9439 229.702 83.2345 229.799C83.3314 229.799 83.4283 229.799 83.4283 229.896C83.8159 229.993 84.2035 230.187 84.5911 230.478C84.688 230.575 84.8818 230.575 84.9787 230.672C85.0756 230.769 85.1725 230.769 85.3663 230.865C85.4632 230.962 85.5601 231.059 85.657 231.059C85.7539 231.156 85.8508 231.253 85.9477 231.35C86.0445 231.447 86.1414 231.544 86.2383 231.641C86.4321 231.835 86.6259 232.029 86.8197 232.222C86.9166 232.319 87.0135 232.416 87.0135 232.513C87.1104 232.707 87.3042 232.804 87.4011 232.998C87.498 233.095 87.498 233.192 87.5949 233.192C87.7887 233.482 87.9825 233.773 88.0794 234.064C88.1763 234.161 88.1763 234.258 88.2732 234.452C88.2732 234.452 88.2732 234.452 88.2732 234.548C88.3701 234.645 88.3701 234.839 88.467 234.936C88.467 234.936 88.467 234.936 88.467 235.033C88.467 235.13 88.5639 235.227 88.5639 235.324C88.5639 235.421 88.5639 235.421 88.6608 235.518C88.7577 235.808 88.8545 236.099 88.8545 236.39C88.8545 236.487 88.8545 236.584 88.8545 236.681C88.8545 236.875 88.9515 237.165 88.9515 237.359C88.9515 237.65 88.9515 237.941 88.9515 238.231C89.0483 238.231 89.0483 238.522 89.0483 238.813Z" fill="#6F3698"/>
<path d="M96.9937 260.62H63.855C60.4636 260.62 57.7505 257.906 57.7505 254.514V221.367C57.7505 217.975 60.4636 215.261 63.855 215.261H96.9937C100.385 215.261 103.098 217.975 103.098 221.367V254.514C103.098 257.906 100.385 260.62 96.9937 260.62Z" stroke="#D57EE3" stroke-miterlimit="10"/>
<path d="M555.509 273.801H522.273C518.882 273.801 516.169 271.088 516.169 267.695V234.548C516.169 231.156 518.882 228.442 522.273 228.442H555.412C558.803 228.442 561.516 231.156 561.516 234.548V267.695C561.516 271.088 558.803 273.801 555.509 273.801Z" stroke="#D57EE3" stroke-miterlimit="10"/>
<path d="M553.959 264.303H523.824C522.177 264.303 521.208 262.462 522.177 261.105L537.293 238.716C538.068 237.553 539.812 237.553 540.684 238.716L555.8 261.105C556.575 262.559 555.606 264.303 553.959 264.303Z" stroke="#6F3698" stroke-width="2" stroke-miterlimit="10"/>
<path d="M539.23 257.809H538.455C537.971 257.809 537.486 257.421 537.486 256.84L537.002 244.046C537.002 243.465 537.389 243.077 537.971 243.077H539.812C540.393 243.077 540.781 243.562 540.781 244.046L540.296 256.84C540.199 257.324 539.812 257.809 539.23 257.809Z" fill="#6F3698"/>
<path d="M538.843 261.589C539.539 261.589 540.103 261.025 540.103 260.329C540.103 259.633 539.539 259.069 538.843 259.069C538.147 259.069 537.583 259.633 537.583 260.329C537.583 261.025 538.147 261.589 538.843 261.589Z" fill="#6F3698"/>
<path d="M280.128 58.54H260.458C257.067 58.54 254.354 55.8262 254.354 52.434V32.856C254.354 29.4638 257.067 26.75 260.458 26.75H280.128C283.52 26.75 286.233 29.4638 286.233 32.856V52.5309C286.136 55.8262 283.423 58.54 280.128 58.54Z" fill="#D57EE3"/>
<path d="M273.248 49.6237C273.248 51.2713 271.892 52.6282 270.245 52.6282C268.597 52.6282 267.241 51.2713 267.241 49.6237C267.241 47.976 268.597 46.6191 270.245 46.6191C271.892 46.6191 273.248 47.976 273.248 49.6237Z" fill="#6F3698"/>
<path d="M270.245 39.5439C267.435 39.5439 264.818 40.707 262.977 42.6454L265.012 44.5838C266.369 43.2269 268.21 42.3546 270.245 42.3546C272.279 42.3546 274.12 43.2269 275.477 44.5838L277.512 42.6454C275.671 40.707 273.151 39.5439 270.245 39.5439Z" fill="#6F3698"/>
<path d="M270.245 32.8564C265.497 32.8564 261.233 34.7949 258.23 37.9932L260.264 39.9317C262.784 37.3148 266.369 35.6671 270.245 35.6671C274.218 35.6671 277.706 37.3148 280.225 39.9317L282.26 37.9932C279.256 34.7949 274.993 32.8564 270.245 32.8564Z" fill="#6F3698"/>
</g>
<defs>
<clipPath id="clip0">
<rect width="587" height="384" fill="white"/>
</clipPath>
</defs>
</svg>
