<svg width="455" height="397" viewBox="0 0 455 397" fill="none" xmlns="http://www.w3.org/2000/svg">
<g clip-path="url(#clip0)">
<g opacity="0.15">
<path d="M279.953 146.85C370.061 115.151 462.805 159.104 406.855 257.443C352.425 353.148 432.6 378.467 432.6 378.467L104.805 376.745C38.0096 352.642 -18.65 247.72 43.6857 214.806C43.6857 214.806 83.4184 207.21 86.9659 179.461C90.5135 151.812 74.7015 129.025 100.244 111.606C125.786 94.1866 168.56 98.9465 208.293 132.874C238.903 159.104 279.953 146.85 279.953 146.85Z" fill="#CCCCFF"/>
</g>
<path opacity="0.15" d="M230.186 397C354.067 397 454.493 390.652 454.493 382.821C454.493 374.991 354.067 368.643 230.186 368.643C106.305 368.643 5.87878 374.991 5.87878 382.821C5.87878 390.652 106.305 397 230.186 397Z" fill="#CCCCFF"/>
<path d="M128.523 42.4344C128.523 43.4471 128.118 44.4599 127.408 45.1688C126.699 45.8778 125.786 46.2829 124.671 46.2829H42.1652C40.0367 46.2829 38.3136 44.5612 38.3136 42.4344C38.3136 41.4216 38.719 40.4089 39.4285 39.6999C40.1381 38.991 41.0503 38.5859 42.1652 38.5859H46.0169C47.5373 35.0413 51.0848 32.5094 55.2405 32.5094C58.0786 32.5094 60.5112 33.6234 62.3357 35.4464C64.7683 31.2941 69.2281 28.5596 74.3974 28.5596C75.8164 28.5596 77.134 28.7622 78.4517 29.1673C81.087 24.1035 86.4591 20.6602 92.5406 20.6602C99.9398 20.6602 106.021 25.6227 107.947 32.4081C109.265 31.6992 110.785 31.2941 112.407 31.2941C116.968 31.2941 120.82 34.3323 122.036 38.5859H124.57C126.8 38.4846 128.523 40.3076 128.523 42.4344Z" fill="#CCCCFF"/>
<path d="M427.126 45.1688C427.126 46.1815 426.721 47.1943 426.011 47.9032C425.302 48.6121 424.39 49.0172 423.275 49.0172H340.769C338.64 49.0172 336.917 47.2956 336.917 45.1688C336.917 44.156 337.322 43.1433 338.032 42.4343C338.741 41.7254 339.654 41.3203 340.769 41.3203H344.62C346.141 37.7757 349.688 35.2438 353.844 35.2438C356.682 35.2438 359.114 36.3578 360.939 38.1808C363.372 34.0285 367.831 31.294 373.001 31.294C374.42 31.294 375.737 31.4966 377.055 31.9017C379.69 26.8379 385.062 23.3945 391.144 23.3945C398.543 23.3945 404.726 28.357 406.55 35.1425C407.868 34.4336 409.388 34.0285 411.01 34.0285C415.571 34.0285 419.423 37.0667 420.639 41.3203H423.173C425.403 41.3203 427.126 43.042 427.126 45.1688Z" fill="#CCCCFF"/>
<path d="M293.333 54.5877C293.333 55.6005 292.927 56.6132 292.218 57.3222C291.508 58.0311 290.596 58.4362 289.481 58.4362H206.975C204.846 58.4362 203.123 56.7145 203.123 54.5877C203.123 53.575 203.529 52.5622 204.238 51.8533C204.948 51.1443 205.86 50.7392 206.975 50.7392H210.826C212.347 47.1946 215.894 44.6627 220.05 44.6627C222.888 44.6627 225.321 45.7767 227.145 47.5997C229.578 43.4474 234.038 40.713 239.207 40.713C240.626 40.713 241.944 40.9155 243.261 41.3206C245.897 36.2568 251.269 32.8135 257.35 32.8135C264.749 32.8135 270.831 37.776 272.757 44.5614C274.074 43.8525 275.595 43.4474 277.216 43.4474C281.778 43.4474 285.629 46.4857 286.846 50.7392H289.38C291.609 50.7392 293.333 52.4609 293.333 54.5877Z" fill="#CCCCFF"/>
<path d="M435.843 102.896C438.884 102.896 441.418 105.427 441.418 108.466C441.418 111.504 438.884 114.036 435.843 114.036C432.802 114.036 430.268 111.504 430.268 108.466C430.268 105.427 432.802 102.896 435.843 102.896ZM435.843 104.617C433.715 104.617 431.991 106.339 431.991 108.466C431.991 110.592 433.715 112.314 435.843 112.314C437.972 112.314 439.695 110.592 439.695 108.466C439.593 106.339 437.87 104.617 435.843 104.617Z" fill="#BA68C8"/>
<path d="M430.167 74.7412C433.208 74.7412 435.742 77.2731 435.742 80.3114C435.742 83.3496 433.208 85.8815 430.167 85.8815C427.126 85.8815 424.592 83.3496 424.592 80.3114C424.592 77.2731 427.126 74.7412 430.167 74.7412ZM430.167 76.5642C428.039 76.5642 426.315 78.2859 426.315 80.4126C426.315 82.5394 428.039 84.2611 430.167 84.2611C432.296 84.2611 434.019 82.5394 434.019 80.4126C434.019 78.1846 432.296 76.5642 430.167 76.5642Z" fill="#68318F"/>
<path d="M413.341 67.0443C413.341 67.5507 413.747 67.9558 414.254 67.9558H418.105C418.612 67.9558 419.018 67.5507 419.018 67.0443C419.018 66.5379 418.612 66.1328 418.105 66.1328H414.254C413.747 66.1328 413.341 66.5379 413.341 67.0443Z" fill="#A558B3"/>
<path d="M406.652 67.0443C406.652 67.5507 407.057 67.9558 407.564 67.9558H411.416C411.922 67.9558 412.328 67.5507 412.328 67.0443C412.328 66.5379 411.922 66.1328 411.416 66.1328H407.463C407.057 66.1328 406.652 66.5379 406.652 67.0443Z" fill="#A558B3"/>
<path d="M411.922 61.5755V65.0189C411.922 65.5253 412.328 65.9304 412.835 65.9304C413.341 65.9304 413.747 65.5253 413.747 65.0189V61.5755C413.747 61.0692 413.341 60.6641 412.835 60.6641C412.328 60.7653 411.922 61.1704 411.922 61.5755Z" fill="#A558B3"/>
<path d="M411.922 68.9691V72.4125C411.922 72.9188 412.328 73.3239 412.835 73.3239C413.341 73.3239 413.747 72.9188 413.747 72.4125V68.9691C413.747 68.4627 413.341 68.0576 412.835 68.0576C412.328 68.0576 411.922 68.4627 411.922 68.9691Z" fill="#A558B3"/>
<path d="M419.626 96.515C419.626 97.0214 420.031 97.4265 420.538 97.4265H424.39C424.896 97.4265 425.302 97.0214 425.302 96.515C425.302 96.0086 424.896 95.6035 424.39 95.6035H420.538C419.93 95.7048 419.626 96.1099 419.626 96.515Z" fill="#68318F"/>
<path d="M412.835 96.515C412.835 97.0214 413.24 97.4265 413.747 97.4265H417.599C418.105 97.4265 418.511 97.0214 418.511 96.515C418.511 96.0086 418.105 95.6035 417.599 95.6035H413.747C413.24 95.7048 412.835 96.1099 412.835 96.515Z" fill="#68318F"/>
<path d="M418.105 91.1478V94.5912C418.105 95.0976 418.511 95.5027 419.018 95.5027C419.524 95.5027 419.93 95.0976 419.93 94.5912V91.1478C419.93 90.6414 419.524 90.2363 419.018 90.2363C418.511 90.3376 418.105 90.7427 418.105 91.1478Z" fill="#68318F"/>
<path d="M418.105 98.5414V101.985C418.105 102.491 418.511 102.896 419.018 102.896C419.524 102.896 419.93 102.491 419.93 101.985V98.5414C419.93 98.035 419.524 97.6299 419.018 97.6299C418.511 97.6299 418.105 98.035 418.105 98.5414Z" fill="#68318F"/>
<path d="M46.9291 96.3123C46.9291 99.3506 44.3952 101.882 41.3544 101.882C38.3136 101.882 35.7797 99.3506 35.7797 96.3123C35.7797 93.2741 38.3136 90.7422 41.3544 90.7422C44.3952 90.8435 46.9291 93.2741 46.9291 96.3123ZM45.206 96.3123C45.206 94.1856 43.4829 92.4639 41.3544 92.4639C39.2259 92.4639 37.5028 94.1856 37.5028 96.3123C37.5028 98.4391 39.2259 100.161 41.3544 100.161C43.4829 100.161 45.206 98.4391 45.206 96.3123Z" fill="#A558B3"/>
<path d="M70.6471 61.7777C71.3566 64.7147 69.5322 67.7529 66.5928 68.4619C63.6534 69.1708 60.6126 67.3478 59.9031 64.4108C59.1936 61.4739 61.018 58.4356 63.9574 57.7267C66.8968 56.9165 69.8362 58.7394 70.6471 61.7777ZM68.924 62.1828C68.4172 60.1573 66.39 58.942 64.3629 59.3471C62.3357 59.8534 61.1194 61.879 61.5248 63.9045C62.0316 65.93 64.0588 67.1453 66.086 66.7402C68.1131 66.2338 69.4308 64.2083 68.924 62.1828Z" fill="#BA68C8"/>
<path d="M64.3629 89.2236C63.8561 89.2236 63.4506 89.6287 63.4506 90.1351V93.9836C63.4506 94.49 63.8561 94.8951 64.3629 94.8951C64.8696 94.8951 65.2751 94.49 65.2751 93.9836V90.1351C65.1737 89.6287 64.7683 89.2236 64.3629 89.2236Z" fill="#68318F"/>
<path d="M64.3629 82.5391C63.8561 82.5391 63.4506 82.9442 63.4506 83.4505V87.299C63.4506 87.8054 63.8561 88.2105 64.3629 88.2105C64.8696 88.2105 65.2751 87.8054 65.2751 87.299V83.4505C65.1737 82.9442 64.7683 82.5391 64.3629 82.5391Z" fill="#68318F"/>
<path d="M69.7349 87.8057H66.2887C65.7819 87.8057 65.3765 88.2108 65.3765 88.7171C65.3765 89.2235 65.7819 89.6286 66.2887 89.6286H69.7349C70.2417 89.6286 70.6471 89.2235 70.6471 88.7171C70.5458 88.2108 70.1403 87.8057 69.7349 87.8057Z" fill="#68318F"/>
<path d="M62.437 87.8057H58.9908C58.4841 87.8057 58.0786 88.2108 58.0786 88.7171C58.0786 89.2235 58.4841 89.6286 58.9908 89.6286H62.437C62.9438 89.6286 63.3493 89.2235 63.3493 88.7171C63.2479 88.2108 62.8425 87.8057 62.437 87.8057Z" fill="#68318F"/>
<path d="M45.0033 76.0576C44.4965 76.0576 44.0911 76.4627 44.0911 76.9691V80.8176C44.0911 81.324 44.4965 81.729 45.0033 81.729C45.5101 81.729 45.9155 81.324 45.9155 80.8176V76.9691C45.9155 76.4627 45.5101 76.0576 45.0033 76.0576Z" fill="#68318F"/>
<path d="M45.0033 69.373C44.4965 69.373 44.0911 69.7782 44.0911 70.2845V74.133C44.0911 74.6394 44.4965 75.0445 45.0033 75.0445C45.5101 75.0445 45.9155 74.6394 45.9155 74.133V70.2845C45.9155 69.7782 45.5101 69.373 45.0033 69.373Z" fill="#68318F"/>
<path d="M50.3753 74.6396H46.9291C46.4223 74.6396 46.0169 75.0448 46.0169 75.5511C46.0169 76.0575 46.4223 76.4626 46.9291 76.4626H50.3753C50.8821 76.4626 51.2876 76.0575 51.2876 75.5511C51.2876 75.0448 50.8821 74.6396 50.3753 74.6396Z" fill="#68318F"/>
<path d="M43.0775 74.6396H39.6313C39.1245 74.6396 38.7191 75.0448 38.7191 75.5511C38.7191 76.0575 39.1245 76.4626 39.6313 76.4626H43.0775C43.5843 76.4626 43.9897 76.0575 43.9897 75.5511C43.9897 75.0448 43.5843 74.6396 43.0775 74.6396Z" fill="#68318F"/>
<path d="M264.344 293.396H217.516V383.024H264.344V293.396Z" fill="#2A3554"/>
<path d="M318.47 384.239H163.492V381.403C163.492 370.972 172.006 362.465 182.446 362.465H299.414C309.854 362.465 318.368 370.972 318.368 381.403V384.239H318.47Z" fill="#2A3554"/>
<path d="M264.344 296.13L217.516 305.042V293.396H264.344V296.13Z" fill="#161631"/>
<path d="M396.212 88.4134V287.42C396.212 290.762 393.475 293.496 390.13 293.496H87.8782C84.5333 293.496 81.7966 290.762 81.7966 287.42V88.4134C81.7966 85.0714 84.5333 82.3369 87.8782 82.3369H390.13C393.475 82.4382 396.212 85.0714 396.212 88.4134Z" fill="#2A3554"/>
<path d="M387.799 96.9203V278.811C387.799 282.153 385.062 284.888 381.718 284.888H96.2909C95.5814 284.888 94.8719 284.786 94.1624 284.483C91.8312 283.672 90.2094 281.343 90.2094 278.71V96.9203C90.2094 93.5782 92.9461 90.8438 96.2909 90.8438H381.718C382.528 90.8438 383.339 91.0463 384.049 91.2489C386.279 92.1603 387.799 94.3884 387.799 96.9203Z" fill="white"/>
<path d="M387.799 96.9203V105.934H90.2094V96.9203C90.2094 93.5782 92.9461 90.8438 96.2909 90.8438H381.718C385.062 90.8438 387.799 93.5782 387.799 96.9203Z" fill="#E3E3FF"/>
<path d="M130.55 98.5411C130.55 99.6552 131.462 100.567 132.577 100.567H333.673C334.788 100.567 335.701 99.6552 335.701 98.5411C335.701 97.4271 334.788 96.5156 333.673 96.5156H132.577C131.462 96.5156 130.55 97.4271 130.55 98.5411Z" fill="white"/>
<path d="M107.643 98.541V100.06C107.643 100.465 107.136 100.769 106.832 100.567L105.515 99.8576L104.197 99.1487C103.792 98.9461 103.792 98.4398 104.197 98.2372L105.515 97.5283L106.832 96.8194C107.238 96.6168 107.643 96.9206 107.643 97.3257V98.541Z" fill="#2A3554"/>
<path d="M114.333 98.541V100.06C114.333 100.465 114.84 100.769 115.144 100.567L116.461 99.8576L117.779 99.1487C118.184 98.9461 118.184 98.4398 117.779 98.2372L116.461 97.5283L115.144 96.8194C114.738 96.6168 114.333 96.9206 114.333 97.3257V98.541Z" fill="#2A3554"/>
<path d="M364.486 98.4392C364.486 100.06 363.169 101.376 361.547 101.376C359.925 101.376 358.608 100.06 358.608 98.4392C358.608 96.8188 359.925 95.5022 361.547 95.5022C363.169 95.4009 364.486 96.8188 364.486 98.4392Z" fill="#68318F"/>
<path d="M353.54 98.4392C353.54 100.06 352.222 101.376 350.6 101.376C348.979 101.376 347.661 100.06 347.661 98.4392C347.661 96.8188 348.979 95.5022 350.6 95.5022C352.121 95.4009 353.54 96.8188 353.54 98.4392Z" fill="#A558B3"/>
<path d="M375.535 98.4392C375.535 100.06 374.217 101.376 372.595 101.376C370.974 101.376 369.656 100.06 369.656 98.4392C369.656 96.8188 370.974 95.5022 372.595 95.5022C374.116 95.4009 375.535 96.8188 375.535 98.4392Z" fill="#BA68C8"/>
<path d="M128.827 125.986H103.487V240.63H128.827V125.986Z" fill="#E3E3FF"/>
<path d="M128.827 125.986H103.487V133.582H128.827V125.986Z" fill="#2A3554"/>
<path d="M377.156 184.119H351.817V240.53H377.156V184.119Z" fill="#E3E3FF"/>
<path d="M377.156 184.119H351.817V192.221H377.156V184.119Z" fill="#2A3554"/>
<path d="M377.765 126.29H352.425V159.205H377.765V126.29Z" fill="#E3E3FF"/>
<path d="M377.765 126.29H352.425V134.392H377.765V126.29Z" fill="#2A3554"/>
<path d="M341.782 126.29H140.281V240.529H341.782V126.29Z" fill="#E3E3FF"/>
<path d="M293.231 158.191H230.997V220.375H293.231V158.191Z" fill="#A558B3"/>
<path d="M240.28 187.118C244.341 170.49 234.143 153.721 217.502 149.663C200.86 145.605 184.077 155.795 180.016 172.422C175.955 189.05 186.153 205.819 202.794 209.877C219.435 213.935 236.218 203.745 240.28 187.118Z" fill="#BA68C8"/>
<path d="M222.685 230.705H186.804L204.745 199.613L222.685 168.623L240.626 199.613L258.567 230.705H222.685Z" fill="#68318F"/>
<path d="M341.782 126.29H140.281V136.114H341.782V126.29Z" fill="#2A3554"/>
<path d="M170.993 233.44C170.688 233.44 170.486 233.237 170.486 232.934V142.798C170.486 142.495 170.688 142.292 170.993 142.292C171.297 142.292 171.499 142.495 171.499 142.798V232.934C171.398 233.237 171.195 233.44 170.993 233.44Z" fill="#2A3554"/>
<path d="M172.412 143.001C172.412 143.811 171.803 144.419 170.993 144.419C170.182 144.419 169.573 143.811 169.573 143.001C169.573 142.191 170.182 141.583 170.993 141.583C171.702 141.482 172.412 142.191 172.412 143.001Z" fill="#2A3554"/>
<path d="M172.412 232.933C172.412 233.744 171.803 234.351 170.993 234.351C170.182 234.351 169.573 233.744 169.573 232.933C169.573 232.123 170.182 231.516 170.993 231.516C171.702 231.516 172.412 232.123 172.412 232.933Z" fill="#2A3554"/>
<path d="M310.766 233.44C310.462 233.44 310.26 233.237 310.26 232.934V142.798C310.26 142.495 310.462 142.292 310.766 142.292C311.071 142.292 311.273 142.495 311.273 142.798V232.934C311.172 233.237 310.969 233.44 310.766 233.44Z" fill="#2A3554"/>
<path d="M312.185 143.001C312.185 143.811 311.577 144.419 310.766 144.419C309.955 144.419 309.347 143.811 309.347 143.001C309.347 142.191 309.955 141.583 310.766 141.583C311.476 141.482 312.185 142.191 312.185 143.001Z" fill="#2A3554"/>
<path d="M312.185 232.933C312.185 233.744 311.577 234.351 310.766 234.351C309.955 234.351 309.347 233.744 309.347 232.933C309.347 232.123 309.955 231.516 310.766 231.516C311.476 231.516 312.185 232.123 312.185 232.933Z" fill="#2A3554"/>
<path d="M14.3929 347.982L8.5141 355.578C8.5141 355.578 9.62905 358.92 13.9875 361.553L20.9812 352.844L14.3929 347.982Z" fill="#F5AB86"/>
<path d="M12.9739 359.224C12.9739 359.224 15.7106 358.616 16.6229 359.527C17.5351 360.439 19.9677 372.896 22.0962 375.529C24.3261 378.263 22.0962 379.681 20.6772 380.289C19.4609 380.795 0 362.161 0 362.161C0 362.161 4.86523 355.78 7.09512 354.565C9.42638 353.248 10.5413 357.907 12.9739 359.224Z" fill="#BA68C8"/>
<path d="M13.4808 366.008C13.3795 366.008 13.2781 365.907 13.1767 365.705C13.0754 365.502 13.1767 365.198 13.4808 365.097C13.5822 365.097 15.6094 364.388 17.1297 364.692C19.2583 365.198 19.6637 366.92 19.6637 366.92C19.7651 367.224 19.5624 367.426 19.2583 367.528C18.9542 367.629 18.7515 367.426 18.6501 367.224C18.6501 367.224 18.346 366.008 16.8257 365.603C15.508 365.3 13.7849 365.907 13.6835 365.907C13.6835 366.11 13.5822 366.11 13.4808 366.008Z" fill="white"/>
<path d="M13.2781 364.085C13.1767 364.085 13.0753 363.983 12.974 363.781C12.8726 363.578 12.974 363.274 13.2781 363.173C13.3794 363.173 15.4066 362.464 16.927 362.768C19.0555 363.274 19.461 364.996 19.461 364.996C19.5623 365.3 19.3596 365.502 19.0555 365.604C18.7514 365.705 18.5487 365.502 18.4474 365.3C18.4474 365.3 18.1433 364.085 16.6229 363.68C15.3052 363.376 13.5821 363.983 13.4808 363.983C13.4808 364.186 13.3794 364.186 13.2781 364.085Z" fill="white"/>
<path d="M14.2917 368.135C14.1903 368.135 14.089 368.034 13.9876 367.832C13.8862 367.629 13.9876 367.325 14.2917 367.224C14.393 367.224 16.4202 366.515 17.9406 366.819C20.0691 367.325 20.4746 369.047 20.4746 369.047C20.5759 369.351 20.3732 369.553 20.0691 369.655C19.7651 369.756 19.5623 369.553 19.461 369.351C19.461 369.351 19.1569 368.135 17.6365 367.73C16.3188 367.427 14.5957 368.034 14.4944 368.034C14.4944 368.135 14.393 368.135 14.2917 368.135Z" fill="white"/>
<path d="M51.5917 245.492L46.321 295.826C46.321 295.826 39.3273 304.13 34.2593 313.346C30.0022 321.145 11.859 348.793 11.859 348.793L20.5759 355.882L65.7819 305.143L75.8165 244.985L51.5917 245.492Z" fill="#161642"/>
<path d="M59.8017 362.465L60.7139 372.187C60.7139 372.187 63.8561 374.111 68.924 373.2L68.1131 361.756L59.8017 362.465Z" fill="#F5AB86"/>
<path d="M67.2009 371.883C67.2009 371.883 68.924 369.554 70.343 369.554C71.7621 369.655 82.6075 377.96 86.2564 378.669C89.9053 379.276 89.2972 382.011 88.5876 383.428C87.9795 384.846 59.3963 384.036 59.3963 384.036C59.3963 384.036 58.3827 374.82 59.1936 372.187C60.0044 369.554 64.2615 372.491 67.2009 371.883Z" fill="#BA68C8"/>
<path d="M72.6743 376.845C72.5729 376.845 72.3702 376.845 72.2689 376.845C72.0661 376.744 71.9648 376.44 72.0661 376.237C72.0661 376.136 73.0797 374.212 74.4987 373.402C76.3232 372.288 77.9449 373.3 77.9449 373.3C78.1477 373.402 78.249 373.706 78.0463 374.009C77.9449 374.212 77.6409 374.313 77.3368 374.111C77.3368 374.111 76.2218 373.402 74.9042 374.212C73.7892 374.921 72.877 376.643 72.877 376.643C72.877 376.744 72.7756 376.845 72.6743 376.845Z" fill="white"/>
<path d="M71.1539 375.63C71.0525 375.63 70.8498 375.63 70.7485 375.63C70.5457 375.529 70.4444 375.225 70.5457 375.023C70.5457 374.921 71.5593 372.997 72.9784 372.187C74.8028 371.073 76.4246 372.086 76.4246 372.086C76.6273 372.187 76.7286 372.491 76.5259 372.795C76.4246 372.997 76.1205 373.098 75.8164 372.896C75.8164 372.896 74.7015 372.187 73.3838 372.997C72.2688 373.706 71.3566 375.428 71.3566 375.428C71.3566 375.428 71.2553 375.529 71.1539 375.63Z" fill="white"/>
<path d="M74.8028 377.859C74.7015 377.859 74.4988 377.859 74.3974 377.859C74.1947 377.757 74.0933 377.454 74.1947 377.251C74.1947 377.15 75.2083 375.226 76.6273 374.415C78.4517 373.301 80.0735 374.314 80.0735 374.314C80.2762 374.415 80.3776 374.719 80.1748 375.023C80.0735 375.226 79.7694 375.327 79.4653 375.124C79.4653 375.124 78.3504 374.415 77.0327 375.226C75.9178 375.935 75.0055 377.656 75.0055 377.656C75.0055 377.757 74.9042 377.859 74.8028 377.859Z" fill="white"/>
<path d="M24.0221 246.909C24.0221 246.909 34.5634 284.482 48.3482 304.839C48.3482 304.839 50.3754 324.587 53.923 335.12C55.4434 339.678 59.3963 367.123 59.3963 367.123L61.1194 366.921L62.133 366.819L69.6336 365.705L66.2888 300.484L49.6659 248.935L28.2792 247.314L27.1642 247.213L24.0221 246.909Z" fill="#2A3554"/>
<path d="M27.1642 247.213L50.5781 304.839C50.5781 304.94 54.1257 320.536 56.0515 331.575C57.7746 341.399 60.41 358.413 61.1195 366.819L62.1331 366.718C61.4235 358.211 58.8896 341.5 57.1665 331.474C55.1393 320.435 51.6931 304.737 51.6931 304.636L28.4819 247.314L27.1642 247.213Z" fill="#161642"/>
<path d="M74.296 193.031C77.2354 204.374 85.8509 212.78 85.8509 212.78C90.8175 215.312 103.994 220.578 108.657 219.869C108.454 216.73 108.859 214.502 109.468 210.653C103.183 210.248 91.9325 202.855 91.9325 202.855C82.5061 183.916 81.5939 163.054 81.5939 163.054C74.8028 169.738 74.296 193.031 74.296 193.031Z" fill="#A558B3"/>
<path d="M24.1234 233.541C24.1234 233.947 24.022 234.25 24.022 234.655C23.4139 241.137 23.0084 246.1 22.8057 248.53C28.8873 250.758 34.9688 252.48 41.1517 253.493C41.4558 253.493 41.6585 253.594 41.9626 253.594C42.0639 253.594 42.2666 253.594 42.368 253.695C42.6721 253.797 43.0775 253.797 43.3816 253.898C43.787 253.999 44.0911 253.999 44.4965 254.1C48.7536 254.708 52.9093 255.012 57.1664 255.012C58.0786 255.012 58.8895 255.012 59.7004 255.012C59.8017 255.012 59.8017 255.012 59.9031 255.012C60.1058 255.012 60.3085 255.012 60.6126 255.012C60.7139 255.012 60.9167 255.012 61.018 255.012C65.9846 254.911 71.0525 254.404 76.0191 253.493C76.1205 252.379 76.3232 250.758 76.5259 248.632C76.5259 248.226 76.6273 247.821 76.6273 247.416C76.9314 244.479 77.2354 240.732 77.5395 236.58C77.5395 236.175 77.6409 235.871 77.6409 235.466C77.8436 232.63 78.1477 229.693 78.3504 226.553C78.3504 226.148 78.4517 225.845 78.4517 225.439C78.6545 222.199 78.9585 218.958 79.1613 215.514C79.364 213.489 79.4653 211.362 79.5667 209.337C79.668 207.21 79.8708 205.083 79.9721 203.058C79.9721 202.551 80.0735 202.146 80.0735 201.64C81.3912 181.79 82.202 163.56 80.9857 161.433C80.1748 159.914 78.1477 158.091 75.715 156.167C75.411 155.964 75.1069 155.661 74.8028 155.458C73.7892 154.648 65.0724 150.799 63.9574 150.09L54.531 148.571C54.4297 148.571 45.1047 150.799 45.1047 150.901C44.6992 151.103 44.2938 151.306 43.8884 151.508C40.3408 153.129 36.8946 154.85 34.7661 156.471C34.462 156.673 34.1579 156.876 33.9552 157.18C33.7525 157.382 33.5498 157.484 33.4484 157.686C33.347 157.889 33.1443 158.091 33.043 158.496C31.5226 162.547 29.3941 178.853 27.4682 196.576C27.3669 197.892 27.1642 199.108 27.0628 200.424C26.9614 201.032 26.9614 201.538 26.8601 202.146C26.8601 202.551 26.7587 202.956 26.7587 203.361C26.7587 203.564 26.7587 203.766 26.6574 203.969C26.556 204.982 26.4546 205.893 26.3533 206.906C26.2519 207.615 26.2519 208.324 26.1506 209.033C25.6438 217.742 24.8329 226.452 24.1234 233.541Z" fill="#BA68C8"/>
<path d="M46.9291 201.944C51.5916 206.4 58.0786 210.653 66.8968 212.78C67.2009 212.881 67.6063 212.577 67.6063 212.274C67.6063 211.97 67.4036 211.767 67.2009 211.666C58.5854 209.539 52.1998 205.488 47.74 201.032C47.4359 200.728 46.8277 200.931 46.8277 201.336C46.7264 201.64 46.7264 201.842 46.9291 201.944Z" fill="#A558B3"/>
<path d="M46.7264 193.233C46.7264 193.335 46.7264 193.436 46.8278 193.537C47.1319 194.044 47.5373 194.55 47.9427 195.056C50.1726 197.993 54.3284 201.842 61.4235 203.462H61.5248C61.7276 203.462 61.9303 203.26 62.0316 203.057C62.133 202.753 61.9303 202.449 61.6262 202.449C53.9229 200.728 49.7672 196.272 47.74 192.93C47.436 192.423 46.7264 192.626 46.7264 193.233Z" fill="#A558B3"/>
<path d="M46.8278 169.333C46.8278 169.636 47.1319 169.839 47.436 169.839C53.7202 168.32 58.6868 165.282 61.9303 162.75C66.3901 159.205 68.7213 155.863 68.8227 155.762C69.0254 155.559 68.924 155.154 68.7213 155.053C68.5186 154.85 68.1132 154.952 68.0118 155.154C67.9105 155.255 60.6126 165.687 47.2333 168.826C46.9292 168.826 46.8278 169.13 46.8278 169.333Z" fill="#A558B3"/>
<path d="M74.1947 124.467C74.1947 124.467 79.6681 123.151 79.4653 118.897C79.364 115.353 76.83 117.176 77.4382 114.441C78.0463 111.707 76.9314 108.871 73.6879 109.58C71.5593 110.086 69.3295 110.896 65.6805 109.175C60.4099 106.643 58.8895 110.289 54.8351 110.188C48.855 109.985 47.0305 113.53 46.9291 116.365C46.7264 119.302 48.6522 122.847 48.6522 122.847L74.1947 124.467Z" fill="#2A3554"/>
<path d="M72.6743 130.443C72.6743 130.443 75.2082 127.708 76.6273 130.24C78.0463 132.873 75.1069 139.861 71.1539 137.734L72.6743 130.443Z" fill="#F88265"/>
<path d="M72.2688 135.608C72.3702 135.608 72.5729 135.506 72.5729 135.405C73.3838 133.278 75.8164 132.569 75.8164 132.569C76.0191 132.468 76.1205 132.367 76.0191 132.164C75.9178 131.962 75.8164 131.86 75.6137 131.962C75.5123 131.962 72.877 132.772 71.8634 135.304C71.8634 135.304 71.9648 135.506 72.2688 135.608C72.1675 135.608 72.2688 135.608 72.2688 135.608Z" fill="#F8664D"/>
<path d="M74.7014 134.697C74.8028 134.697 74.8028 134.697 74.9041 134.697C75.1069 134.595 75.1069 134.393 75.0055 134.19C75.0055 134.19 74.6001 133.481 73.7892 133.076C73.5865 132.975 73.3838 133.076 73.2824 133.177C73.181 133.38 73.2824 133.583 73.3838 133.684C73.9919 134.089 74.296 134.595 74.296 134.595C74.4987 134.595 74.6001 134.697 74.7014 134.697Z" fill="#F8664D"/>
<path d="M49.7672 128.316C49.7672 128.316 47.8414 125.176 45.9156 127.404C43.9897 129.734 45.7128 137.127 49.9699 135.709L49.7672 128.316Z" fill="#F88265"/>
<path d="M49.2604 133.481C49.1591 133.481 48.9563 133.379 48.9563 133.177C48.5509 130.847 46.321 129.733 46.321 129.733C46.1183 129.632 46.1183 129.43 46.1183 129.227C46.2196 129.024 46.4224 129.024 46.6251 129.024C46.7264 129.126 49.1591 130.341 49.6658 132.974C49.6658 133.278 49.5645 133.481 49.2604 133.481C49.3618 133.481 49.3618 133.481 49.2604 133.481Z" fill="#F8664D"/>
<path d="M47.0305 132.164C46.9292 132.164 46.9292 132.164 46.8278 132.063C46.7264 131.962 46.6251 131.759 46.7264 131.557C46.7264 131.557 47.2332 130.949 48.1455 130.645C48.3482 130.544 48.5509 130.645 48.5509 130.848C48.6523 131.05 48.5509 131.253 48.3482 131.253C47.6387 131.455 47.3346 131.962 47.3346 131.962C47.3346 132.164 47.1319 132.164 47.0305 132.164Z" fill="#F8664D"/>
<path d="M54.5311 142.394L53.9229 149.584C53.9229 149.584 55.7474 153.433 58.5854 153.939C61.4235 154.445 64.3629 151.306 64.3629 151.306L65.0724 143.811L54.5311 142.394Z" fill="#F5AB86"/>
<path d="M54.5311 142.394L54.227 145.634C55.9501 147.964 59.3963 148.875 64.5656 148.571L64.971 143.913L54.5311 142.394Z" fill="#F88265"/>
<path d="M48.6523 123.252C48.5509 126.088 48.4495 129.531 48.7536 132.468C48.855 133.177 48.9563 133.785 49.0577 134.393C49.1591 134.696 49.1591 135.102 49.2604 135.507C50.4767 140.976 53.7202 149.078 63.9575 146.444C68.3159 145.33 70.8499 141.178 72.3702 136.621C72.4716 136.317 72.573 136.114 72.6743 135.811C72.7757 135.608 72.7757 135.507 72.877 135.304L72.9784 135.102V135C73.992 131.456 74.3974 127.81 74.6001 125.177C74.8029 122.543 73.5865 119.91 71.3567 118.391C65.3765 114.239 58.6868 114.948 54.227 116.264C50.9835 117.277 48.7536 120.012 48.6523 123.252Z" fill="#F5AB86"/>
<path d="M55.5447 129.126C55.4433 129.936 55.8488 130.544 56.2542 130.645C56.761 130.645 57.1664 130.139 57.2678 129.329C57.3691 128.519 56.9637 127.911 56.5583 127.81C56.0515 127.81 55.646 128.417 55.5447 129.126Z" fill="#2A3554"/>
<path d="M66.2887 130.139C66.1873 130.949 66.5928 131.557 66.9982 131.658C67.505 131.658 67.9105 131.152 68.0118 130.342C68.1132 129.531 67.7077 128.924 67.3023 128.823C66.7955 128.721 66.3901 129.329 66.2887 130.139Z" fill="#2A3554"/>
<path d="M53.112 124.568C53.112 124.568 56.761 123.049 59.599 124.163L59.3963 125.784C59.3963 125.784 55.2406 125.48 53.2134 126.391C52.9093 125.784 52.9093 125.176 53.112 124.568Z" fill="#2A3554"/>
<path d="M70.5458 125.987C70.5458 125.987 67.0996 123.961 64.1602 124.771V126.392C64.1602 126.392 68.3159 126.696 70.343 127.81C70.6471 127.202 70.7485 126.594 70.5458 125.987Z" fill="#2A3554"/>
<path d="M60.6126 135.911C60.0044 135.81 59.4976 135.607 59.3963 135.506C59.1936 135.405 59.1936 135.202 59.2949 135C59.3963 134.797 59.599 134.797 59.8017 134.898C60.1058 135.101 60.8153 135.303 61.1194 135.202C61.2207 135.202 61.3221 135.101 61.3221 134.898C61.5248 133.683 61.6262 129.733 61.6262 129.632C61.6262 129.429 61.8289 129.328 61.9302 129.328C62.133 129.328 62.2343 129.531 62.2343 129.632C62.2343 129.835 62.2343 133.784 61.9302 135C61.8289 135.506 61.5248 135.708 61.3221 135.81C61.1194 135.911 60.9167 135.911 60.6126 135.911Z" fill="#F88265"/>
<path d="M64.667 138.849C64.2615 140.165 63.2479 142.494 60.3085 142.191C57.3691 141.887 56.761 139.659 56.6596 138.14L64.667 138.849Z" fill="white"/>
<path d="M48.6523 123.252C48.5509 126.087 48.4495 129.531 48.7536 132.468H50.274C50.274 132.468 50.0713 130.037 50.0713 128.518C50.0713 126.999 49.9699 124.062 51.389 123.859C52.7066 123.657 52.3012 120.315 54.227 118.998C56.1528 117.783 60.3085 117.682 62.8425 119.606C65.3765 121.53 68.62 120.011 69.7349 120.416C70.9512 120.821 72.4716 122.644 71.8634 124.264C71.2553 125.784 72.5729 126.898 72.6743 128.619C72.877 130.341 71.3566 134.696 71.3566 134.696L72.7757 135.101C73.7893 131.556 74.1947 127.91 74.3974 125.277C74.6001 122.644 73.3838 120.011 71.1539 118.492C65.1738 114.339 58.4841 115.048 54.0243 116.365C50.9835 117.276 48.7536 120.011 48.6523 123.252Z" fill="#2A3554"/>
<path d="M63.4506 130.645C63.6533 128.417 65.6805 126.695 67.9104 126.898C70.1403 127.101 71.8634 129.126 71.6607 131.354C71.458 133.582 69.4308 135.304 67.2009 135.101C64.8697 134.899 63.2479 132.873 63.4506 130.645ZM64.0588 130.747C63.8561 132.671 65.2751 134.392 67.2009 134.595C69.1267 134.798 70.8498 133.38 71.0525 131.455C71.2553 129.531 69.8362 127.81 67.9104 127.607C65.9846 127.404 64.2615 128.822 64.0588 130.747Z" fill="white"/>
<path d="M52.0984 129.633C52.3011 127.404 54.3283 125.683 56.5582 125.885C58.7881 126.088 60.5112 128.113 60.3085 130.341C60.1058 132.57 58.0786 134.291 55.8487 134.089C53.6188 133.886 51.8957 131.861 52.0984 129.633ZM52.8079 129.633C52.6052 131.557 54.0242 133.278 55.9501 133.481C57.8759 133.684 59.599 132.266 59.8017 130.341C60.0044 128.417 58.5854 126.696 56.6596 126.493C54.6324 126.29 53.0107 127.708 52.8079 129.633Z" fill="white"/>
<path d="M74.1947 128.215C74.3974 128.417 74.1947 128.823 74.0934 128.924C72.573 129.126 71.458 129.937 71.458 129.937C71.3567 130.038 71.3567 130.038 71.2553 130.038C71.1539 130.038 71.0526 130.038 71.0526 129.937C70.9512 129.835 70.9512 129.633 71.0526 129.531C71.0526 129.329 72.3702 128.316 74.1947 128.215Z" fill="white"/>
<path d="M53.2134 128.215C53.112 128.316 53.0107 128.316 52.9093 128.316C52.808 128.316 52.808 128.316 52.7066 128.215C52.7066 128.215 50.5781 126.594 48.5509 126.29C48.3482 126.088 48.3482 125.885 48.5509 125.683C50.7808 125.885 53.0107 127.607 53.112 127.708C53.2134 127.911 53.3148 128.113 53.2134 128.215Z" fill="white"/>
<path d="M60.3086 129.43C60.3086 129.43 61.2208 128.417 62.133 128.518C63.1466 128.62 63.7548 129.734 63.7548 129.734L64.3629 129.43C64.3629 129.329 63.552 128.012 62.2344 127.911C60.9167 127.81 59.9031 128.924 59.8018 129.025L60.3086 129.43Z" fill="white"/>
<path d="M40.6449 248.327L38.8205 244.681C37.4014 241.643 38.6177 238.098 41.5571 236.68L145.551 186.144L152.646 200.626L48.7536 251.061C45.7129 252.479 42.1653 251.264 40.6449 248.327Z" fill="#68318F"/>
<path d="M174.407 189.911L167.356 175.432L145.664 185.977L152.715 200.457L174.407 189.911Z" fill="#BA68C8"/>
<path d="M195.724 185.941C190.048 189.283 182.953 191.208 174.439 189.992L167.344 175.51C167.344 175.51 172.918 165.889 181.736 163.762C183.662 163.255 185.385 163.053 186.906 163.053C198.866 162.749 197.143 174.092 215.286 161.23C215.185 161.129 209.509 177.738 195.724 185.941Z" fill="white"/>
<path d="M195.724 185.941C189.642 185.03 190.048 174.599 191.062 170.548C192.379 165.686 187.007 163.053 186.804 162.952C198.765 162.648 197.042 173.991 215.185 161.129C215.185 161.129 209.509 177.738 195.724 185.941Z" fill="#68318F"/>
<path d="M59.3963 230.098L60.9167 230.807C62.2344 231.415 63.6534 231.111 64.7683 230.2C65.2751 229.794 66.086 228.984 66.4914 228.782C67.6064 228.174 70.2417 227.465 70.9512 227.769C71.6607 228.073 70.9512 229.288 70.1404 229.693C69.3295 229.997 68.2145 230.402 67.4037 231.01C66.5928 231.617 69.7349 235.162 71.1539 236.276C72.573 237.39 75.8165 237.795 75.411 239.314C75.1069 240.732 72.877 240.023 72.877 240.023C72.877 240.023 72.9784 241.542 70.7485 241.644C70.7485 241.644 70.5458 242.96 69.1268 243.062C69.1268 243.062 68.62 244.581 67.0996 244.378C65.5792 244.176 61.0181 243.467 55.2406 234.96L59.3963 230.098Z" fill="#F5AB86"/>
<path d="M59.8018 229.288C59.8018 229.288 38.5164 211.869 31.7254 202.653C31.7254 202.653 32.9417 191.715 34.2593 182.904C35.1716 177.232 35.3743 171.46 35.0702 165.788C34.8675 162.547 34.462 159.509 33.7525 157.585C33.7525 157.585 27.5696 159.408 23.5153 179.967C21.2854 191.208 20.4745 200.019 20.0691 204.678C19.8664 207.007 20.5759 209.337 22.0963 211.16C26.6574 216.932 37.9082 229.389 54.5311 235.365C54.5311 235.365 58.8895 231.921 59.8018 229.288Z" fill="#A558B3"/>
<path d="M122.746 213.185C122.746 213.185 119.502 210.552 117.475 210.653C115.549 210.755 119.299 215.008 119.299 215.008C119.299 215.008 114.637 209.944 113.218 210.755C111.799 211.666 116.157 216.73 116.157 216.73C116.157 216.73 112.508 213.793 111.292 214.299C110.076 214.907 113.218 218.755 113.218 218.755C113.218 218.755 110.076 216.73 109.164 217.034C108.251 217.337 110.38 220.882 112.103 222.3C113.826 223.617 115.144 220.983 115.144 220.983C115.144 220.983 117.576 219.971 117.678 218.857C117.678 218.857 120.009 218.249 120.617 217.034C120.718 216.932 124.165 215.514 122.746 213.185Z" fill="#F5AB86"/>
<path d="M415.673 217.749L396.215 219.759L412.323 375.501L431.782 373.492L415.673 217.749Z" fill="#A558B3"/>
<path d="M400.824 219.298L399.514 219.434L415.622 375.176L416.933 375.04L400.824 219.298Z" fill="#68318F"/>
<path d="M406.599 218.686L405.288 218.821L421.397 374.563L422.708 374.428L406.599 218.686Z" fill="#68318F"/>
<path d="M412.285 218.183L410.974 218.318L427.083 374.06L428.393 373.925L412.285 218.183Z" fill="#68318F"/>
<path d="M430.924 365.414L411.465 367.423L412.309 375.583L431.768 373.573L430.924 365.414Z" fill="#2A3554"/>
<path d="M412.328 375.529L412.531 377.859C413.037 383.226 417.903 387.075 423.275 386.568C428.647 386.062 432.498 381.201 431.992 375.833L431.789 373.504L412.328 375.529Z" fill="#BA68C8"/>
<path d="M415.571 217.844L396.212 219.768L400.57 206.197L401.483 203.361L404.118 195.36L408.071 202.956L409.591 205.994L415.571 217.844Z" fill="#F5AB86"/>
<path d="M408.071 202.956C407.26 203.361 406.246 203.564 405.03 203.766C403.611 203.867 402.395 203.665 401.584 203.361L404.219 195.36L408.071 202.956Z" fill="#2A3554"/>
<path d="M282.589 45.7764C282.589 45.7764 277.014 71.1965 269.817 79.3998H280.359C280.359 79.3998 287.961 73.6271 288.265 64.7149C288.467 55.8026 282.589 45.7764 282.589 45.7764Z" fill="#A558B3"/>
<path d="M310.665 37.3705C303.773 39.8012 296.779 42.2318 289.886 44.4598C286.339 45.6751 282.487 43.8522 281.068 40.4088C281.068 40.4088 281.068 40.4088 281.068 40.3075C278.737 34.8387 273.973 28.5596 272.959 25.7239C272.757 25.2175 272.554 24.8124 272.351 24.306C269.817 17.5205 269.615 3.54452 285.123 0.303703C285.123 0.303703 297.894 -2.63329 303.57 8.81085C303.57 8.81085 306.104 14.1784 307.928 18.0269C309.955 22.483 311.577 23.9009 312.996 24.9137C317.456 28.357 316.341 35.345 310.969 37.2693C310.766 37.3705 310.665 37.3705 310.665 37.3705Z" fill="#2A3554"/>
<path d="M284.413 54.6887C284.008 58.2333 282.893 61.8792 284.413 67.6519C284.92 69.4749 285.629 70.8927 287.048 73.4246C287.15 73.5259 287.15 73.7285 287.251 73.8297C287.251 74.0323 287.352 74.3361 287.352 74.5387C288.265 80.919 288.062 77.5769 287.961 82.742H320.902L320.091 41.3203L309.651 40.4088L307.827 40.2063H307.726L304.887 40.0037C304.685 40.0037 304.381 40.0037 304.178 39.9024C300.428 39.6999 296.576 40.3075 293.13 41.6241H293.028L291.508 42.2318H291.407L289.886 42.8394L282.589 45.6751C282.893 47.3968 284.109 53.0682 284.413 54.6887Z" fill="#BA68C8"/>
<path d="M287.251 73.8297C287.251 74.0323 287.352 74.3361 287.352 74.5387C289.177 74.9438 294.853 75.754 304.482 73.4246C305.698 73.1208 307.016 72.817 308.435 72.4119C308.739 72.3106 308.84 72.0068 308.84 71.703C308.739 71.3991 308.435 71.2979 308.131 71.2979C294.245 75.4501 287.15 73.3234 287.048 73.3234C287.15 73.5259 287.15 73.6272 287.251 73.8297Z" fill="#A558B3"/>
<path d="M278.129 24.812C278.129 24.812 275.088 22.8877 274.277 25.6222C273.466 28.3566 278.027 34.1293 281.372 31.1923L278.129 24.812Z" fill="#F88265"/>
<path d="M279.446 31.3947C279.548 31.7998 279.345 32.2049 279.041 32.3062C278.635 32.4075 278.23 32.2049 278.129 31.9011C278.027 31.496 278.23 31.0909 278.534 30.9896C278.94 30.7871 279.345 30.9896 279.446 31.3947Z" fill="white"/>
<path d="M279.75 29.4704C279.649 29.4704 279.446 29.4704 279.345 29.3691C278.027 27.5461 275.493 27.5461 275.493 27.5461C275.291 27.5461 275.189 27.4449 275.189 27.2423C275.189 27.0398 275.392 26.9385 275.493 26.9385C275.595 26.9385 278.331 26.9385 279.852 29.0653C280.055 29.1665 280.055 29.3691 279.75 29.4704C279.852 29.4704 279.852 29.4704 279.75 29.4704Z" fill="#F8664D"/>
<path d="M277.216 29.2681C277.115 29.2681 277.115 29.2681 277.014 29.2681C276.811 29.2681 276.71 29.0655 276.811 28.863C276.811 28.863 277.014 28.154 277.723 27.4451C277.825 27.3438 278.129 27.3438 278.23 27.4451C278.331 27.5464 278.331 27.7489 278.23 27.9515C277.723 28.4579 277.52 28.9642 277.52 28.9642C277.419 29.1668 277.318 29.2681 277.216 29.2681Z" fill="#F8664D"/>
<path d="M299.313 32.6104L302.151 40.6111C302.151 40.6111 299.414 44.8647 296.677 46.08C293.839 47.3966 291.609 44.257 291.609 44.257L288.974 36.7626L299.313 32.6104Z" fill="#F5AB86"/>
<path d="M299.617 33.4209L300.732 36.6617C299.515 39.4974 296.373 41.5229 291.001 42.637L289.278 37.7757L299.617 33.4209Z" fill="#F88265"/>
<path d="M277.926 28.3563C278.331 29.0652 278.737 29.8754 279.142 30.5843C281.879 35.4455 287.251 39.9017 291.711 39.3953C301.441 38.18 302.658 29.8754 302.252 24.1027C302.252 23.495 301.644 22.8874 301.543 22.1784C301.239 20.4568 301.239 18.33 300.732 16.507C300.428 15.1904 300.022 13.9751 299.617 12.7598C298.603 9.51901 295.765 7.29095 292.522 7.18967C287.758 6.98712 281.068 7.99988 276.406 13.57C274.682 15.5955 274.176 18.5325 274.987 21.1657C275.696 23.0899 276.71 25.7231 277.926 28.3563Z" fill="#F5AB86"/>
<path d="M290.393 28.458C290.596 28.3567 290.697 28.2554 290.596 28.0529C290.596 27.8503 290.393 27.749 290.19 27.749L288.873 27.9516L288.974 22.9891C288.974 22.7865 288.771 22.584 288.569 22.584C288.366 22.584 288.163 22.7865 288.163 22.9891L288.062 28.8631L290.393 28.458Z" fill="#F88265"/>
<path d="M278.331 18.3304C275.392 21.1661 278.027 24.9133 277.521 27.4452C277.521 27.6477 277.419 27.6477 277.318 27.6477C276 25.0146 274.987 22.3814 274.277 20.2546C273.365 17.6215 273.973 14.5832 275.797 12.4564C280.764 6.6837 287.859 5.67095 292.826 5.77222C296.272 5.8735 299.211 8.10156 300.225 11.4436C300.529 12.5577 300.934 13.8743 301.34 15.1908C300.833 15.6972 299.515 16.4061 299.82 17.4189C300.529 19.9508 301.036 21.6725 300.428 21.7738C299.414 21.875 297.894 19.0393 298.198 16.71C298.198 16.71 296.88 15.6972 293.231 15.5959C288.467 15.4947 283.501 14.4819 283.501 14.4819C283.501 14.4819 281.575 14.0768 280.561 13.2666C280.561 13.2666 280.561 16.1023 278.331 18.3304Z" fill="#2A3554"/>
<path d="M284.21 24.103C284.514 24.9132 284.312 25.6222 283.805 25.8247C283.298 26.0273 282.69 25.5209 282.386 24.7107C282.082 23.9005 282.284 23.1916 282.791 22.989C283.298 22.7864 283.906 23.2928 284.21 24.103Z" fill="#2A3554"/>
<path d="M293.839 20.6596C294.143 21.4698 293.941 22.1787 293.434 22.3813C292.927 22.5838 292.319 22.0775 292.015 21.2673C291.711 20.457 291.913 19.7481 292.42 19.5456C292.927 19.4443 293.535 19.8494 293.839 20.6596Z" fill="#2A3554"/>
<path d="M279.649 21.5716C280.359 21.1665 281.676 20.4575 283.197 19.9511C283.602 19.8499 284.007 20.0524 284.109 20.3563C284.109 20.6601 283.906 20.8626 283.602 20.9639C282.487 21.2677 279.75 22.2805 278.636 23.0907C278.534 22.8881 278.636 22.6856 278.737 22.483C278.94 22.0779 279.244 21.7741 279.649 21.5716Z" fill="#2A3554"/>
<path d="M293.941 16.7101C293.13 16.8114 291.609 17.1152 290.089 17.6216C289.684 17.8241 289.481 18.2292 289.684 18.533C289.785 18.7356 290.19 18.8369 290.494 18.7356C291.508 18.3305 294.245 17.419 295.664 17.3177C295.664 17.1152 295.461 17.0139 295.157 16.8114C294.853 16.6088 294.346 16.6088 293.941 16.7101Z" fill="#2A3554"/>
<path d="M287.251 31.9011C287.961 33.0152 289.582 34.9394 292.522 33.9267C295.461 32.9139 295.461 30.5846 295.258 29.0654L287.251 31.9011Z" fill="white"/>
<path d="M293.231 36.0531C292.42 36.357 291.508 36.1544 291.407 36.1544C291.204 36.1544 291.103 35.9519 291.103 35.7493C291.103 35.5468 291.305 35.4455 291.508 35.4455C291.508 35.4455 292.218 35.5468 292.927 35.3442C293.637 35.1417 294.143 34.534 294.143 34.534C294.245 34.3315 294.549 34.3315 294.65 34.4327C294.853 34.534 294.853 34.8378 294.752 34.9391C294.752 35.0404 294.143 35.7493 293.231 36.0531Z" fill="#F88265"/>
<path d="M299.819 17.014C299.819 17.014 301.239 13.1655 303.468 14.7859C305.698 16.4063 305.901 23.4956 301.847 23.1918L299.819 17.014Z" fill="#F5AB86"/>
<path d="M304.077 22.5842C304.178 22.9893 303.975 23.3944 303.671 23.4957C303.266 23.5969 302.86 23.3944 302.759 23.0906C302.658 22.6854 302.86 22.2803 303.164 22.1791C303.468 21.9765 303.874 22.1791 304.077 22.5842Z" fill="white"/>
<path d="M301.847 21.0646C301.948 21.0646 302.049 20.862 302.049 20.7608C301.948 18.634 303.671 17.1148 303.671 17.1148C303.772 17.0136 303.772 16.811 303.671 16.7097C303.57 16.6085 303.367 16.6085 303.266 16.7097C303.164 16.811 301.239 18.4314 301.441 20.9633C301.441 20.862 301.543 21.0646 301.847 21.0646C301.745 21.0646 301.847 21.0646 301.847 21.0646Z" fill="#F88265"/>
<path d="M303.57 19.3428C303.671 19.3428 303.671 19.2416 303.671 19.2416C303.772 19.1403 303.772 18.9377 303.57 18.8365C303.57 18.8365 302.962 18.4314 302.151 18.3301C301.948 18.3301 301.847 18.4314 301.847 18.6339C301.847 18.8365 301.948 18.9377 302.151 18.9377C302.86 19.039 303.266 19.3428 303.266 19.3428C303.266 19.3428 303.468 19.3428 303.57 19.3428Z" fill="#F88265"/>
<path d="M369.352 75.7539H254.411L254.715 213.286L364.182 82.033L369.352 75.7539ZM271.743 93.072H332.558L271.845 165.889L271.743 93.072Z" fill="#BA68C8"/>
<path d="M256.235 186.651V185.334H262.114V186.651H256.235Z" fill="#2A3554"/>
<path d="M256.235 178.852V177.435H262.114V178.852H256.235Z" fill="#2A3554"/>
<path d="M256.235 171.054V169.636H262.013V171.054H256.235Z" fill="#2A3554"/>
<path d="M256.134 163.154V161.838H262.013V163.154H256.134Z" fill="#2A3554"/>
<path d="M256.134 155.357V154.04H262.013V155.357H256.134Z" fill="#2A3554"/>
<path d="M256.134 147.558V146.141H262.013V147.558H256.134Z" fill="#2A3554"/>
<path d="M256.134 139.76V138.342H262.013V139.76H256.134Z" fill="#2A3554"/>
<path d="M256.134 131.861V130.544H262.013V131.861H256.134Z" fill="#2A3554"/>
<path d="M256.134 124.063V122.746H261.911L262.013 124.063H256.134Z" fill="#2A3554"/>
<path d="M256.134 116.264V114.947L261.911 114.846V116.264H256.134Z" fill="#2A3554"/>
<path d="M256.033 108.466V107.048H261.911V108.466H256.033Z" fill="#2A3554"/>
<path d="M256.033 100.567V99.25H261.911V100.567H256.033Z" fill="#2A3554"/>
<path d="M256.033 92.7677V91.4512H261.911V92.7677H256.033Z" fill="#2A3554"/>
<path d="M256.033 84.9699V83.6533H261.911V84.9699H256.033Z" fill="#2A3554"/>
<path d="M369.352 75.7539L254.411 75.8552V82.033H364.182L369.352 75.7539Z" fill="#A558B3"/>
<path d="M297.488 90.5407L295.968 90.642C294.549 90.7432 293.434 90.0343 292.826 88.819C292.522 88.3126 292.116 87.2999 291.812 86.996C291.001 86.0846 288.974 84.5654 288.163 84.5654C287.454 84.5654 287.656 85.882 288.265 86.4897C288.873 87.0973 289.684 87.8062 290.19 88.6164C290.697 89.4267 286.744 91.4522 285.123 91.9585C283.501 92.4649 280.561 91.756 280.359 93.1738C280.156 94.5917 282.386 94.5917 282.386 94.5917C282.386 94.5917 281.879 95.9083 283.703 96.7185C283.703 96.7185 283.501 97.9338 284.717 98.5414C284.717 98.5414 284.717 100.061 286.035 100.364C287.454 100.668 291.711 101.58 299.617 96.0096L297.488 90.5407Z" fill="#F5AB86"/>
<path d="M298.907 97.0219C298.907 97.0219 312.287 96.8193 332.457 84.565L335.599 82.5394C336.005 76.3616 332.052 65.829 329.315 56.7142C327.491 50.6377 325.058 43.3458 320.091 41.3203C319.179 42.3331 317.557 46.6879 317.456 48.8147C317.152 54.081 318.672 59.4486 319.585 62.3856C321.004 66.6392 322.017 72.0068 323.335 76.2604L323.436 76.868C323.233 76.868 317.963 79.9063 310.564 83.2484C302.556 86.8943 296.171 90.5402 296.171 90.5402L298.907 97.0219Z" fill="#A558B3"/>
<path d="M281.068 76.1591C281.068 76.1591 280.156 80.1088 278.534 81.2229C276.912 82.3369 277.419 76.7667 277.419 76.7667C277.419 76.7667 276.912 83.4509 275.291 83.6535C273.669 83.856 273.973 77.2731 273.973 77.2731C273.973 77.2731 272.959 81.7292 271.642 82.0331C270.426 82.3369 270.425 77.4757 270.425 77.4757C270.425 77.4757 269.209 80.919 268.297 81.2229C267.385 81.5267 266.979 77.4757 267.486 75.4502C267.993 73.4246 270.527 74.6399 270.527 74.6399C270.527 74.6399 272.959 73.931 273.77 74.7412C273.77 74.7412 275.899 73.8297 277.115 74.4374C277.318 74.5387 280.865 73.5259 281.068 76.1591Z" fill="#F5AB86"/>
<path d="M382.022 305.042V331.677H261.303C257.553 331.677 254.411 328.639 254.411 324.791V311.929C254.411 308.182 257.452 305.042 261.303 305.042H382.022Z" fill="#BA68C8"/>
<path d="M382.022 308.485V328.335H272.453C268.905 328.335 266.067 325.499 266.067 321.955V314.764C266.067 311.219 268.905 308.384 272.453 308.384H382.022V308.485Z" fill="white"/>
<path d="M382.022 312.436H277.217V314.157H382.022V312.436Z" fill="#CCCCFF"/>
<path d="M382.022 317.499H277.217V319.221H382.022V317.499Z" fill="#CCCCFF"/>
<path d="M382.022 322.562H277.217V324.284H382.022V322.562Z" fill="#CCCCFF"/>
<path d="M364.081 331.678V358.313H243.363C239.612 358.313 236.47 355.275 236.47 351.426V338.564C236.47 334.817 239.511 331.678 243.363 331.678H364.081Z" fill="#A558B3"/>
<path d="M364.081 335.02V354.87H254.512C250.965 354.87 248.127 352.035 248.127 348.49V341.299C248.127 337.755 250.965 334.919 254.512 334.919H364.081V335.02Z" fill="white"/>
<path d="M364.081 339.071H259.276V340.793H364.081V339.071Z" fill="#CCCCFF"/>
<path d="M364.081 344.135H259.276V345.856H364.081V344.135Z" fill="#CCCCFF"/>
<path d="M364.081 349.198H259.276V350.92H364.081V349.198Z" fill="#CCCCFF"/>
<path d="M387.9 358.312V384.948H267.081C263.33 384.948 260.188 381.91 260.188 378.061V365.199C260.188 361.452 263.229 358.312 267.081 358.312H387.9Z" fill="#68318F"/>
<path d="M387.9 361.655V381.505H278.331C274.784 381.505 271.946 378.669 271.946 375.125V367.934C271.946 364.389 274.784 361.554 278.331 361.554H387.9V361.655Z" fill="white"/>
<path d="M387.9 365.706H283.095V367.428H387.9V365.706Z" fill="#CCCCFF"/>
<path d="M387.9 370.77H283.095V372.491H387.9V370.77Z" fill="#CCCCFF"/>
<path d="M387.9 375.833H283.095V377.555H387.9V375.833Z" fill="#CCCCFF"/>
<path d="M187.007 59.0434L187.514 52.8656L181.838 52.4605C181.635 51.2452 181.23 50.0298 180.621 48.9158L185.183 45.0673L181.128 40.3074L176.668 44.0546C175.452 43.1431 174.135 42.4342 172.715 41.9278L173.121 36.2564L166.938 35.75L166.533 41.1176C164.607 41.3202 162.884 41.9278 161.262 42.8393L157.512 38.3832L152.849 42.4342L156.701 46.9916C155.991 48.0043 155.383 49.1184 154.978 50.3337L149.302 49.9286L148.795 56.1064L154.167 56.5115C154.37 58.4357 154.978 60.1574 155.89 61.7778L152.038 65.1199L156.093 69.8798L160.046 66.4365C161.363 67.348 162.782 68.0569 164.404 68.462L163.999 73.8296L170.182 74.336L170.587 68.6645C172.31 68.3607 174.033 67.6518 175.452 66.7403L179.202 71.1964L183.966 67.1454L179.811 62.2842C180.52 61.1702 181.128 59.8536 181.432 58.537L187.007 59.0434ZM173.83 55.3975C173.628 58.537 170.891 60.8663 167.749 60.6638C164.607 60.4612 162.276 57.7268 162.478 54.5872C162.681 51.4477 165.418 49.1184 168.56 49.3209C171.702 49.5235 174.033 52.2579 173.83 55.3975Z" fill="#CCCCFF"/>
<path d="M168.154 45.5732C162.884 45.5732 158.627 49.8268 158.627 55.0931C158.627 60.3595 162.884 64.613 168.154 64.613C173.425 64.613 177.682 60.3595 177.682 55.0931C177.682 49.8268 173.425 45.5732 168.154 45.5732ZM173.83 55.397C173.628 58.5365 170.891 60.8658 167.749 60.6633C164.607 60.4607 162.276 57.7263 162.478 54.5868C162.681 51.4472 165.418 49.1179 168.56 49.3204C171.702 49.523 174.033 52.2574 173.83 55.397Z" fill="#B6B6EF"/>
<path d="M432.093 137.836C430.775 138.241 429.458 138.747 428.343 139.456L423.477 135.304L419.423 139.962L423.883 143.71C422.971 145.229 422.261 146.849 421.957 148.571L416.281 148.976L416.788 155.154L422.16 154.749C422.565 156.369 423.275 157.787 424.187 159.103L420.741 163.053L425.505 167.104L428.849 163.256C430.471 164.167 432.296 164.775 434.12 164.977L434.525 170.345L440.708 169.839L440.303 164.167C441.519 163.762 442.634 163.155 443.648 162.446L448.209 166.294L452.263 161.635L447.803 157.888C448.716 156.268 449.324 154.445 449.527 152.622L454.899 152.217L454.392 146.039L448.716 146.444C448.209 145.026 447.499 143.71 446.587 142.494L450.337 138.038L445.675 133.987L441.925 138.747C440.81 138.241 439.593 137.836 438.377 137.532L437.972 131.86L431.789 132.367L432.093 137.836ZM441.418 150.799C441.621 153.938 439.289 156.673 436.147 156.875C433.005 157.078 430.268 154.749 430.066 151.609C429.863 148.47 432.194 145.735 435.336 145.533C438.478 145.33 441.215 147.659 441.418 150.799Z" fill="#CCCCFF"/>
<path d="M435.539 141.685C430.268 141.685 426.011 145.938 426.011 151.204C426.011 156.471 430.268 160.724 435.539 160.724C440.81 160.724 445.067 156.471 445.067 151.204C445.067 145.938 440.81 141.685 435.539 141.685ZM441.418 150.799C441.621 153.939 439.289 156.673 436.147 156.876C433.005 157.078 430.268 154.749 430.066 151.61C429.863 148.47 432.194 145.736 435.336 145.533C438.478 145.33 441.215 147.66 441.418 150.799Z" fill="#B6B6EF"/>
<path d="M135.517 344.944C135.517 344.944 134.706 345.754 133.084 345.856C132.577 345.856 131.969 345.856 131.361 345.754C130.652 345.653 129.841 345.349 128.929 344.944C128.929 344.944 129.334 328.538 122.644 317.296C116.056 306.054 107.238 290.458 114.231 282.457C121.225 274.456 132.577 285.597 136.226 304.231C139.977 322.967 135.517 344.944 135.517 344.944Z" fill="#A558B3"/>
<path d="M132.983 345.856C132.476 345.856 131.868 345.856 131.26 345.755C133.388 316.689 120.212 294.206 120.009 294.003C119.806 293.598 119.908 293.092 120.313 292.788C120.718 292.585 121.225 292.687 121.529 293.092C121.732 293.294 135.213 316.182 132.983 345.856Z" fill="#68318F"/>
<path d="M158.221 318.511C142.713 343.527 143.828 349.4 143.828 349.4L141.801 348.995L140.078 348.692L137.645 348.286C136.226 337.146 144.842 290.154 160.046 290.154C175.452 290.154 163.492 309.903 158.221 318.511Z" fill="#A558B3"/>
<path d="M157.613 304.029C157.512 304.231 144.436 327.423 141.7 348.894L139.977 348.59C142.815 326.714 155.89 303.421 156.093 303.117C156.295 302.712 156.904 302.509 157.309 302.813C157.714 303.117 157.917 303.623 157.613 304.029Z" fill="#68318F"/>
<path d="M128.726 347.172L126.901 347.679L125.178 348.185L124.165 348.489C124.266 348.286 123.455 346.362 112.508 331.778C108.049 325.803 95.9869 309.599 107.035 306.865C117.171 304.231 129.03 338.766 128.726 347.172Z" fill="#A558B3"/>
<path d="M127.003 347.578L125.28 348.084C122.137 334.007 109.366 316.79 109.265 316.587C108.961 316.182 109.062 315.676 109.468 315.372C109.873 315.068 110.38 315.169 110.684 315.575C111.191 316.385 123.759 333.298 127.003 347.578Z" fill="#68318F"/>
<path d="M150.315 384.239H115.651V346.362C115.651 344.134 117.475 342.21 119.806 342.21H146.261C148.491 342.21 150.417 344.033 150.417 346.362V384.239H150.315Z" fill="#BA68C8"/>
<path d="M176.669 334.412L186.906 341.4C188.223 342.312 189.947 341.907 190.859 340.691L208.495 314.866L215.793 304.232L200.893 294.104L196.535 300.384L175.959 330.564C175.047 331.779 175.351 333.501 176.669 334.412Z" fill="#BA68C8"/>
<path d="M196.535 300.282C198.765 304.839 202.515 310.511 208.394 314.764L215.692 304.13L200.792 294.003L196.535 300.282Z" fill="#A558B3"/>
<path d="M149.707 383.227L151.227 384.24C153.356 385.657 156.194 385.151 157.714 383.024L186.399 340.995L177.175 334.716L148.491 376.745C147.072 378.872 147.579 381.809 149.707 383.227Z" fill="#2A3554"/>
<path d="M192.278 232.63C176.364 255.619 182.243 287.116 205.252 303.016C228.26 318.917 259.783 313.043 275.696 290.053C291.61 267.064 285.731 235.567 262.722 219.667C239.714 203.868 208.09 209.64 192.278 232.63ZM198.663 237.086C212.043 217.641 238.802 212.679 258.262 226.148C277.723 239.517 282.69 266.253 269.209 285.698C255.83 305.143 229.071 310.106 209.61 296.636C190.149 283.268 185.284 256.531 198.663 237.086Z" fill="#445279"/>
<path opacity="0.5" d="M191.974 252.682C187.108 275.773 202.11 298.56 225.219 303.32C227.247 303.725 229.172 304.029 231.2 304.13C236.268 304.434 241.335 303.928 245.998 302.51C250.965 301.092 255.526 298.763 259.58 295.724C265.966 290.964 271.135 284.382 274.074 276.583C274.885 274.558 275.493 272.431 275.899 270.203C280.764 247.112 265.763 224.325 242.653 219.565C240.423 219.059 238.193 218.856 236.065 218.755C227.753 218.35 219.645 220.375 212.651 224.325C208.191 226.857 204.238 230.199 200.995 234.048C197.853 237.795 195.319 242.15 193.595 247.011C192.987 248.733 192.379 250.657 191.974 252.682Z" fill="white"/>
<path opacity="0.5" d="M212.752 224.224L259.681 295.725C266.067 290.965 271.236 284.382 274.176 276.583L236.166 218.654C227.753 218.147 219.645 220.274 212.752 224.224Z" fill="white"/>
<path opacity="0.5" d="M193.595 246.91L231.098 304.13C236.166 304.434 241.234 303.928 245.897 302.51L200.995 233.946C197.853 237.693 195.319 242.048 193.595 246.91Z" fill="white"/>
</g>
<defs>
<clipPath id="clip0">
<rect width="455" height="397" fill="white"/>
</clipPath>
</defs>
</svg>
