<svg width="72" height="49" viewBox="0 0 72 49" fill="none" xmlns="http://www.w3.org/2000/svg">
<path d="M70.5124 38.244H69.3173V25.0976C69.3141 22.2459 68.1799 19.5119 66.1634 17.4954C64.1469 15.4789 61.4129 14.3447 58.5611 14.3415H50.1953V1.19513C50.1953 0.878158 50.0694 0.574173 49.8452 0.350043C49.6211 0.125914 49.3171 0 49.0001 0H1.19513C0.878158 0 0.574174 0.125914 0.350044 0.350043C0.125915 0.574173 0 0.878158 0 1.19513V39.4391C0 39.7561 0.125915 40.0601 0.350044 40.2842C0.574174 40.5083 0.878158 40.6343 1.19513 40.6343H2.39025V41.8294C2.39025 42.7803 2.76799 43.6922 3.44038 44.3646C4.11277 45.037 5.02473 45.4148 5.97563 45.4148H11.7266C12.3538 46.5045 13.2572 47.4097 14.3458 48.0392C15.4343 48.6686 16.6695 49 17.9269 49C19.1843 49 20.4195 48.6686 21.508 48.0392C22.5965 47.4097 23.4999 46.5045 24.1272 45.4148H52.3608C52.9881 46.5045 53.8915 47.4097 54.98 48.0392C56.0685 48.6686 57.3037 49 58.5611 49C59.8186 49 61.0537 48.6686 62.1423 48.0392C63.2308 47.4097 64.1342 46.5045 64.7615 45.4148H68.1222C69.0731 45.4148 69.985 45.037 70.6574 44.3646C71.3298 43.6922 71.7075 42.7803 71.7075 41.8294V39.4391C71.7075 39.1222 71.5816 38.8182 71.3575 38.5941C71.1334 38.3699 70.8294 38.244 70.5124 38.244ZM66.927 25.0976V27.4879H56.1709C55.8539 27.4879 55.5499 27.362 55.3258 27.1378C55.1017 26.9137 54.9758 26.6097 54.9758 26.2928V16.7318H58.5611C60.7791 16.7343 62.9056 17.6165 64.4739 19.1849C66.0423 20.7532 66.9245 22.8796 66.927 25.0976ZM52.5855 16.7318V26.2928C52.5855 27.2437 52.9633 28.1556 53.6357 28.828C54.308 29.5004 55.22 29.8781 56.1709 29.8781H66.927V38.244H64.7615C64.1342 37.1542 63.2308 36.249 62.1423 35.6196C61.0537 34.9902 59.8186 34.6588 58.5611 34.6588C57.3037 34.6588 56.0685 34.9902 54.98 35.6196C53.8915 36.249 52.9881 37.1542 52.3608 38.244H50.1953V16.7318H52.5855ZM24.1272 38.244C23.4999 37.1542 22.5965 36.249 21.508 35.6196C20.4195 34.9902 19.1843 34.6588 17.9269 34.6588C16.6695 34.6588 15.4343 34.9902 14.3458 35.6196C13.2572 36.249 12.3538 37.1542 11.7266 38.244H2.39025V33.4635H47.805V38.244H24.1272ZM2.39025 2.39025H47.805V31.0733H2.39025V2.39025ZM5.97563 43.0245C5.65866 43.0245 5.35468 42.8986 5.13055 42.6745C4.90642 42.4503 4.7805 42.1464 4.7805 41.8294V40.6343H10.8637C10.7203 41.4246 10.7203 42.2342 10.8637 43.0245H5.97563ZM17.9269 46.6099C16.9814 46.6099 16.0571 46.3295 15.271 45.8042C14.4848 45.2789 13.8721 44.5323 13.5103 43.6588C13.1484 42.7853 13.0538 41.8241 13.2382 40.8968C13.4227 39.9694 13.878 39.1176 14.5466 38.4491C15.2151 37.7805 16.0669 37.3252 16.9943 37.1407C17.9216 36.9563 18.8828 37.0509 19.7563 37.4128C20.6298 37.7746 21.3764 38.3873 21.9017 39.1735C22.427 39.9596 22.7074 40.8839 22.7074 41.8294C22.7074 43.0973 22.2037 44.3132 21.3072 45.2097C20.4107 46.1062 19.1947 46.6099 17.9269 46.6099ZM24.9901 43.0245C25.1335 42.2342 25.1335 41.4246 24.9901 40.6343H51.498C51.3545 41.4246 51.3545 42.2342 51.498 43.0245H24.9901ZM58.5611 46.6099C57.6157 46.6099 56.6914 46.3295 55.9052 45.8042C55.1191 45.2789 54.5064 44.5323 54.1445 43.6588C53.7827 42.7853 53.688 41.8241 53.8725 40.8968C54.057 39.9694 54.5123 39.1176 55.1808 38.4491C55.8494 37.7805 56.7012 37.3252 57.6285 37.1407C58.5558 36.9563 59.517 37.0509 60.3906 37.4128C61.2641 37.7746 62.0107 38.3873 62.536 39.1735C63.0613 39.9596 63.3416 40.8839 63.3416 41.8294C63.3416 43.0973 62.838 44.3132 61.9415 45.2097C61.045 46.1062 59.829 46.6099 58.5611 46.6099ZM69.3173 41.8294C69.3173 42.1464 69.1914 42.4503 68.9672 42.6745C68.7431 42.8986 68.4391 43.0245 68.1222 43.0245H65.6243C65.7678 42.2342 65.7678 41.4246 65.6243 40.6343H69.3173V41.8294Z" fill="#50AF00"/>
<path d="M44.2194 22.7074H5.9754C5.65843 22.7074 5.35445 22.8333 5.13032 23.0574C4.90619 23.2816 4.78027 23.5855 4.78027 23.9025C4.78027 24.2195 4.90619 24.5235 5.13032 24.7476C5.35445 24.9717 5.65843 25.0976 5.9754 25.0976H44.2194C44.5364 25.0976 44.8404 24.9717 45.0645 24.7476C45.2886 24.5235 45.4145 24.2195 45.4145 23.9025C45.4145 23.5855 45.2886 23.2816 45.0645 23.0574C44.8404 22.8333 44.5364 22.7074 44.2194 22.7074Z" fill="#50AF00"/>
</svg>
