<svg width="56" height="52" viewBox="0 0 56 52" fill="none" xmlns="http://www.w3.org/2000/svg">
<path d="M49.0322 51.2142H4.79283C3.78723 51.2132 2.8231 50.8133 2.11203 50.1022C1.40096 49.3911 1.00103 48.427 1 47.4214V12.2309C1 12.025 1.08178 11.8276 1.22736 11.682C1.37294 11.5364 1.57039 11.4547 1.77627 11.4547H49.0322C50.0378 11.4559 51.0018 11.8559 51.7128 12.5669C52.4238 13.2779 52.8238 14.2419 52.8251 15.2475V25.6339C52.8251 25.8398 52.7433 26.0372 52.5977 26.1828C52.4521 26.3284 52.2547 26.4102 52.0488 26.4102C51.8429 26.4102 51.6455 26.3284 51.4999 26.1828C51.3543 26.0372 51.2725 25.8398 51.2725 25.6339V15.2475C51.2719 14.6535 51.0357 14.084 50.6157 13.664C50.1957 13.244 49.6262 13.0078 49.0322 13.0072H2.55253V47.4214C2.55335 48.0153 2.78965 48.5846 3.20961 49.0046C3.62957 49.4246 4.19892 49.6609 4.79283 49.6617H49.0322C49.6261 49.6609 50.1955 49.4246 50.6155 49.0046C51.0354 48.5846 51.2717 48.0153 51.2725 47.4214V37.0357C51.2725 36.8298 51.3543 36.6324 51.4999 36.4868C51.6455 36.3412 51.8429 36.2594 52.0488 36.2594C52.2547 36.2594 52.4521 36.3412 52.5977 36.4868C52.7433 36.6324 52.8251 36.8298 52.8251 37.0357V47.4214C52.8238 48.4269 52.4238 49.3909 51.7128 50.102C51.0018 50.813 50.0378 51.213 49.0322 51.2142Z" fill="#50AF00" stroke="#50AF00"/>
<path d="M53.2641 37.8082H44.1733C42.4562 37.8082 40.8095 37.1261 39.5954 35.912C38.3813 34.6978 37.6992 33.0511 37.6992 31.3341C37.6992 29.6171 38.3813 27.9704 39.5954 26.7563C40.8095 25.5421 42.4562 24.86 44.1733 24.86H53.2641C53.8143 24.8609 54.3417 25.0799 54.7307 25.469C55.1197 25.8581 55.3385 26.3856 55.3391 26.9358V35.7309C55.3391 36.2814 55.1205 36.8094 54.7315 37.1989C54.3424 37.5884 53.8147 37.8075 53.2641 37.8082ZM44.1733 26.4157C43.527 26.4157 42.887 26.543 42.2899 26.7903C41.6928 27.0376 41.1502 27.4002 40.6932 27.8572C40.2362 28.3142 39.8737 28.8567 39.6264 29.4538C39.379 30.0509 39.2518 30.6909 39.2518 31.3372C39.2518 31.9835 39.379 32.6235 39.6264 33.2206C39.8737 33.8177 40.2362 34.3602 40.6932 34.8173C41.1502 35.2743 41.6928 35.6368 42.2899 35.8841C42.887 36.1314 43.527 36.2587 44.1733 36.2587H53.2641C53.3332 36.2586 53.4015 36.2449 53.4652 36.2182C53.5289 36.1916 53.5867 36.1526 53.6352 36.1036C53.6838 36.0545 53.7222 35.9963 53.7481 35.9323C53.7741 35.8684 53.7872 35.7999 53.7866 35.7309V26.9358C53.7863 26.7972 53.7313 26.6644 53.6334 26.5663C53.5354 26.4683 53.4027 26.413 53.2641 26.4126L44.1733 26.4157Z" fill="#50AF00" stroke="#50AF00"/>
<path d="M1.77614 13.0072C1.59238 13.0072 1.4146 12.942 1.27441 12.8232C1.13422 12.7044 1.04072 12.5397 1.01054 12.3584C0.980364 12.1772 1.01546 11.9911 1.1096 11.8333C1.20373 11.6755 1.3508 11.5562 1.52463 11.4966L31.2742 1.30501C32.1243 1.01364 33.0315 0.9294 33.9207 1.05929C34.8098 1.18918 35.6551 1.52945 36.3862 2.0518C37.1174 2.57415 37.7132 3.2635 38.1243 4.06252C38.5354 4.86154 38.7498 5.74715 38.7497 6.64572V12.2309C38.7497 12.4368 38.6679 12.6343 38.5223 12.7799C38.3767 12.9254 38.1793 13.0072 37.9734 13.0072C37.7675 13.0072 37.5701 12.9254 37.4245 12.7799C37.2789 12.6343 37.1972 12.4368 37.1972 12.2309V6.64572C37.1971 5.99428 37.0416 5.35226 36.7435 4.77303C36.4454 4.19379 36.0134 3.69406 35.4833 3.31538C34.9533 2.9367 34.3405 2.69 33.6959 2.59579C33.0513 2.50157 32.3935 2.56257 31.7773 2.7737L2.02765 12.9653C1.94672 12.9931 1.86172 13.0073 1.77614 13.0072Z" fill="#50AF00" stroke="#50AF00"/>
<path d="M44.4782 34.1217C43.9269 34.1215 43.388 33.9579 42.9297 33.6515C42.4714 33.3451 42.1142 32.9097 41.9034 32.4003C41.6925 31.8909 41.6374 31.3305 41.7451 30.7898C41.8527 30.2491 42.1183 29.7525 42.5081 29.3627C42.898 28.9729 43.3947 28.7075 43.9354 28.6C44.4762 28.4925 45.0366 28.5478 45.5459 28.7588C46.0552 28.9698 46.4905 29.3271 46.7968 29.7855C47.1031 30.2439 47.2665 30.7828 47.2665 31.3341C47.2659 32.0733 46.9719 32.7821 46.4491 33.3048C45.9263 33.8274 45.2175 34.1212 44.4782 34.1217ZM44.4782 30.0998C44.2339 30.0998 43.9951 30.1723 43.792 30.308C43.5889 30.4438 43.4306 30.6367 43.3371 30.8624C43.2436 31.0881 43.2192 31.3365 43.267 31.5761C43.3147 31.8157 43.4324 32.0357 43.6052 32.2084C43.778 32.3811 43.9981 32.4987 44.2377 32.5463C44.4774 32.5938 44.7257 32.5693 44.9514 32.4757C45.177 32.3821 45.3699 32.2236 45.5055 32.0204C45.6411 31.8172 45.7134 31.5784 45.7132 31.3341C45.713 31.0067 45.5828 30.6927 45.3512 30.4613C45.1196 30.2298 44.8056 30.0998 44.4782 30.0998Z" fill="#50AF00" stroke="#50AF00"/>
</svg>
