<svg width="91" height="86" viewBox="0 0 91 86" fill="none" xmlns="http://www.w3.org/2000/svg">
<path d="M54.33 26.9C42.82 38.58 33.4 50.61 26.06 62.99L24.04 58.43C19.95 49.35 16.24 44.82 12.9 44.82C8.99001 44.82 4.69 47.29 0 52.25C2.78 53.2 5.29 55.13 7.53 58.05C9.76 60.95 12.18 65.45 14.79 71.53L16.61 75.77C18.52 80.42 19.76 83.76 20.33 85.8C21.76 84.46 24.47 82.39 28.47 79.6L33.29 76.35C39.29 63.72 47.97 50.12 59.35 35.57C70.73 21.02 81.06 10.25 90.35 3.25999L88.07 0C77.08 6.25 65.84 15.22 54.33 26.9Z" fill="#85C441"/>
</svg>
