<svg width="70" height="70" viewBox="0 0 70 70" fill="none" xmlns="http://www.w3.org/2000/svg">
<path d="M70 35L52.5 65.3109L17.5 65.3109L-1.5299e-06 35L17.5 4.68911L52.5 4.68911L70 35Z" fill="#C4C4C4"/>
<path d="M70 35L52.5 65.3109L17.5 65.3109L-1.5299e-06 35L17.5 4.68911L52.5 4.68911L70 35Z" fill="#00602B"/>
<path d="M70 35L52.5 65.3109L17.5 65.3109L-1.5299e-06 35L17.5 4.68911L52.5 4.68911L70 35Z" fill="#50AF00"/>
<path d="M26.0877 43.6442H26.0894C26.0908 43.6442 26.0923 43.6439 26.0937 43.6439H46.0216C46.5122 43.6439 46.9436 43.3133 47.0784 42.8341L51.4749 27.2019C51.5697 26.8649 51.5033 26.5026 51.2958 26.2229C51.0879 25.9432 50.7631 25.7786 50.4182 25.7786H23.5528L22.7671 22.1866C22.6552 21.6757 22.2092 21.3123 21.694 21.3123H15.0991C14.492 21.3123 14 21.8121 14 22.4288C14 23.0456 14.492 23.5454 15.0991 23.5454H20.8124C20.9515 24.1819 24.5723 40.7347 24.7807 41.687C23.6126 42.2029 22.7931 43.386 22.7931 44.7605C22.7931 46.6075 24.2724 48.1103 26.0905 48.1103H46.0216C46.6287 48.1103 47.1207 47.6104 47.1207 46.9937C47.1207 46.377 46.6287 45.8771 46.0216 45.8771H26.0905C25.4846 45.8771 24.9914 45.3761 24.9914 44.7605C24.9914 44.1458 25.4829 43.6457 26.0877 43.6442ZM48.9609 28.0118L45.1924 41.4108H26.9721L24.0411 28.0118H48.9609Z" fill="white"/>
<path d="M25.6123 51.2365C25.6123 52.9604 27.0149 54.363 28.7387 54.363C30.4626 54.363 31.8652 52.9604 31.8652 51.2365C31.8652 49.5127 30.4626 48.1101 28.7387 48.1101C27.0149 48.1101 25.6123 49.5127 25.6123 51.2365ZM28.7387 50.1944C29.3133 50.1944 29.7809 50.662 29.7809 51.2365C29.7809 51.8111 29.3133 52.2787 28.7387 52.2787C28.1642 52.2787 27.6966 51.8111 27.6966 51.2365C27.6966 50.662 28.1642 50.1944 28.7387 50.1944Z" fill="white"/>
<path d="M39.9043 51.2365C39.9043 52.9604 41.5072 54.363 43.4774 54.363C45.4475 54.363 47.0504 52.9604 47.0504 51.2365C47.0504 49.5127 45.4475 48.1101 43.4774 48.1101C41.5072 48.1101 39.9043 49.5127 39.9043 51.2365ZM43.4774 50.1944C44.134 50.1944 44.6684 50.662 44.6684 51.2365C44.6684 51.8111 44.134 52.2787 43.4774 52.2787C42.8208 52.2787 42.2863 51.8111 42.2863 51.2365C42.2863 50.662 42.8208 50.1944 43.4774 50.1944Z" fill="white"/>
</svg>
