<svg width="78" height="72" viewBox="0 0 78 72" fill="none" xmlns="http://www.w3.org/2000/svg">
<path d="M41.67 55.08C50.57 63.37 57.37 67.51 62.08 67.51C67.3 67.51 72.31 62.65 77.11 52.94C68.17 52.94 59.57 48.95 51.33 40.97L49.11 38.83L51.4 35.68C54.47 31.54 58.23 27.82 62.68 24.52C67.13 21.22 70.58 19.58 73.04 19.58C73.4 19.58 73.99 19.63 74.81 19.73C72 11.49 67.88 7.37 62.45 7.37C55.49 7.37 47.75 12.82 39.21 23.71L37.36 26.09L35.07 23.17C29.23 15.65 25.74 7.93 24.56 0C16.32 6.19 12.2 11.56 12.2 16.11C12.2 21.69 15.96 28.47 23.48 36.45L26.17 39.36L24.09 41.97C15.86 52.2 8.39 57.32 1.69 57.32C1.33 57.32 0.77 57.29 0 57.24C5.67 66.81 11.45 71.6 17.33 71.6C22.45 71.6 29 65.57 36.97 53.49L38.12 51.88L41.67 55.08Z" fill="#EF3940"/>
</svg>
