<svg width="73" height="72" viewBox="0 0 73 72" fill="none" xmlns="http://www.w3.org/2000/svg">
<path fill-rule="evenodd" clip-rule="evenodd" d="M45.3292 11.801C45.3294 11.8009 45.3295 11.8008 46.6165 13.4186L47.9035 15.0364L47.8825 15.0531L47.8164 15.106C47.7578 15.1529 47.6708 15.2227 47.5586 15.3131C47.3342 15.494 47.0092 15.7573 46.6096 16.0849C45.8097 16.7404 44.7135 17.6508 43.5275 18.671C41.111 20.7496 38.47 23.1582 37.1202 24.7988C35.8637 26.3259 34.5839 28.4519 33.1232 30.8783C33.0049 31.0748 32.8854 31.2733 32.7647 31.4736C31.2031 34.0638 29.4569 36.9048 27.4798 39.2117C25.5195 41.499 23.0131 43.7423 21.0402 45.3866C20.0454 46.2157 19.1692 46.9065 18.5404 47.3911C18.2257 47.6335 17.9722 47.8249 17.796 47.9567C17.7079 48.0226 17.6391 48.0736 17.5915 48.1087L17.5363 48.1494L17.5211 48.1605L17.5153 48.1647C17.5152 48.1649 17.5145 48.1653 16.2964 46.495C15.0783 44.8247 15.0782 44.8248 15.0781 44.8249L15.0907 44.8157L15.136 44.7823C15.1769 44.7521 15.2388 44.7063 15.3197 44.6458C15.4815 44.5248 15.7191 44.3454 16.0168 44.116C16.6127 43.6568 17.4467 42.9993 18.3931 42.2105C20.3027 40.6191 22.6032 38.5482 24.3404 36.5211C26.0609 34.5137 27.6425 31.9618 29.2238 29.3389C29.3564 29.119 29.4893 28.8981 29.6224 28.6766C31.0274 26.3402 32.466 23.9481 33.9274 22.1719C35.5356 20.2172 38.441 17.5925 40.8313 15.5365C42.0487 14.4894 43.171 13.5573 43.9888 12.887C44.398 12.5517 44.7317 12.2813 44.9637 12.0943C45.0797 12.0008 45.1704 11.928 45.2324 11.8784L45.3036 11.8214L45.3292 11.801Z" fill="#50AF00"/>
<path fill-rule="evenodd" clip-rule="evenodd" d="M60.6372 43.8297C60.6373 43.8298 60.6374 43.8299 59.0196 45.117L57.4019 46.404L57.3851 46.383L57.3322 46.3169C57.2853 46.2583 57.2155 46.1713 57.1251 46.0591C56.9442 45.8347 56.6809 45.5097 56.3533 45.1101C55.6978 44.3102 54.7874 43.214 53.7672 42.028C51.6887 39.6115 49.28 36.9705 47.6394 35.6207C46.1123 34.3642 43.9864 33.0844 41.5599 31.6237C41.3634 31.5054 41.1649 31.3859 40.9646 31.2652C38.3745 29.7036 35.5335 27.9574 33.2266 25.9803C30.9393 24.0199 28.6959 21.5136 27.0516 19.5407C26.2225 18.5459 25.5318 17.6697 25.0472 17.0408C24.8047 16.7262 24.6133 16.4727 24.4816 16.2965C24.4157 16.2084 24.3646 16.1396 24.3295 16.092L24.2889 16.0368L24.2777 16.0216L24.2735 16.0158C24.2734 16.0156 24.2729 16.015 25.9432 14.7969C27.6135 13.5788 27.6134 13.5787 27.6133 13.5786L27.6225 13.5912L27.6559 13.6365C27.6861 13.6774 27.732 13.7393 27.7925 13.8201C27.9135 13.9819 28.0929 14.2196 28.3223 14.5173C28.7814 15.1132 29.4389 15.9472 30.2277 16.8936C31.8191 18.8031 33.8901 21.1037 35.9171 22.8409C37.9245 24.5614 40.4764 26.143 43.0994 27.7243C43.3192 27.8569 43.5402 27.9897 43.7616 28.1229C46.098 29.5279 48.4902 30.9665 50.2663 32.4279C52.221 34.0361 54.8457 36.9415 56.9017 39.3318C57.9488 40.5491 58.881 41.6715 59.5512 42.4893C59.8865 42.8985 60.1569 43.2322 60.3439 43.4642C60.4375 43.5802 60.5102 43.6709 60.5599 43.7329L60.6168 43.8041L60.6372 43.8297Z" fill="#50AF00"/>
<path fill-rule="evenodd" clip-rule="evenodd" d="M54.9434 22.853C54.9435 22.8529 54.9436 22.8528 56.2627 24.4446L57.5818 26.0363L57.5607 26.0538L57.4946 26.1089C57.436 26.1577 57.349 26.2304 57.2368 26.3247C57.0124 26.5131 56.6873 26.7875 56.2876 27.1287C55.4877 27.8116 54.3914 28.7601 53.2051 29.8229C50.7896 31.9872 48.1456 34.4986 46.7922 36.2121C45.5319 37.8078 44.2487 40.0282 42.7891 42.5539C42.6705 42.7592 42.5507 42.9664 42.4297 43.1756C40.868 45.8737 39.1253 48.827 37.1527 51.2245C35.1954 53.6034 32.6912 55.9385 30.7181 57.6515C29.7236 58.5148 28.8476 59.2343 28.2188 59.739C27.9041 59.9915 27.6507 60.1908 27.4746 60.3281C27.3865 60.3967 27.3177 60.4498 27.2701 60.4864L27.2149 60.5287L27.1953 60.5437L27.194 60.5447C27.1938 60.5449 27.1931 60.5454 25.9426 58.8992C24.6921 57.253 24.692 57.2531 24.6919 57.2532L24.6941 57.2515L24.7045 57.2436L24.7498 57.2088C24.7907 57.1774 24.8526 57.1296 24.9335 57.0665C25.0953 56.9405 25.333 56.7536 25.6308 56.5146C26.2268 56.0362 27.0609 55.3512 28.0076 54.5293C29.917 52.8717 32.2196 50.7127 33.9599 48.5976C35.6849 46.501 37.2699 43.8367 38.8512 41.1045C38.9837 40.8756 39.1164 40.6457 39.2494 40.4154C40.6552 37.9804 42.0903 35.4946 43.5477 33.6494C45.1523 31.6178 48.0548 28.8862 50.4461 26.7436C51.6632 25.6531 52.7855 24.6822 53.6032 23.9841C54.0123 23.6348 54.3459 23.3533 54.5779 23.1584C54.6939 23.061 54.7846 22.9853 54.8466 22.9335L54.9178 22.8743L54.9434 22.853Z" fill="#50AF00"/>
<path fill-rule="evenodd" clip-rule="evenodd" d="M49.5859 53.4451C49.586 53.4452 49.5861 53.4453 47.9944 54.7644L46.4027 56.0835L46.3852 56.0624L46.3301 55.9963C46.2812 55.9377 46.2085 55.8507 46.1143 55.7385C45.9258 55.5141 45.6515 55.189 45.3103 54.7893C44.6274 53.9894 43.6789 52.8931 42.616 51.7068C40.4518 49.2913 37.9403 46.6473 36.2268 45.2939C34.6312 44.0336 32.4107 42.7504 29.8851 41.2908C29.6798 41.1722 29.4725 41.0524 29.2634 40.9314C26.5653 39.3698 23.612 37.627 21.2145 35.6544C18.8355 33.6971 16.5005 31.1929 14.7875 29.2198C13.9241 28.2253 13.2047 27.3493 12.7 26.7205C12.4475 26.4058 12.2482 26.1524 12.1109 25.9763C12.0423 25.8882 11.9891 25.8194 11.9525 25.7718L11.9102 25.7166L11.8953 25.6971L11.8943 25.6957C11.8941 25.6955 11.8936 25.6948 13.5398 24.4443C15.186 23.1938 15.1859 23.1937 15.1858 23.1936L15.1875 23.1958L15.1954 23.2062L15.2302 23.2515C15.2616 23.2924 15.3094 23.3543 15.3724 23.4352C15.4985 23.597 15.6854 23.8347 15.9244 24.1325C16.4028 24.7285 17.0878 25.5626 17.9097 26.5093C19.5673 28.4187 21.7263 30.7213 23.8414 32.4616C25.938 34.1866 28.6023 35.7716 31.3345 37.3529C31.5634 37.4854 31.7932 37.6181 32.0236 37.7511C34.4586 39.1569 36.9444 40.592 38.7896 42.0494C40.8211 43.654 43.5528 46.5565 45.6954 48.9478C46.7859 50.1649 47.7568 51.2872 48.4548 52.1049C48.8041 52.514 49.0857 52.8476 49.2805 53.0796C49.3779 53.1956 49.4537 53.2863 49.5054 53.3483L49.5647 53.4195L49.5859 53.4451Z" fill="#50AF00"/>
<path fill-rule="evenodd" clip-rule="evenodd" d="M0.121094 36L36.1211 -3.15104e-06L72.1211 36L36.1211 72L0.121094 36ZM5.96823 36L36.1211 66.1529L66.274 36L36.1211 5.84714L5.96823 36Z" fill="#50AF00"/>
</svg>
