<svg width="35" height="35" viewBox="0 0 35 35" fill="none" xmlns="http://www.w3.org/2000/svg">
<path d="M17.5 34.1C26.6536 34.1 34.1 26.6536 34.1 17.5C34.1 8.3464 26.6536 0.9 17.5 0.9C8.3464 0.9 0.9 8.3464 0.9 17.5C0.9 26.6536 8.3464 34.1 17.5 34.1ZM17.5 3.1625C25.406 3.1625 31.8375 9.59398 31.8375 17.5C31.8375 25.406 25.406 31.8375 17.5 31.8375C9.59398 31.8375 3.1625 25.406 3.1625 17.5C3.1625 9.59398 9.59398 3.1625 17.5 3.1625Z" fill="#50AF00" stroke="#50AF00" stroke-width="0.2"/>
<path d="M23.3197 25.0997L23.3197 25.1C23.181 25.8476 22.3711 26.2445 21.7012 25.9096L17.0494 23.5837L14.9362 25.697C14.2307 26.4024 13.0055 25.9121 13.0055 24.8975V20.8619C13.0055 20.5631 13.1246 20.2751 13.3372 20.0625C13.3372 20.0625 13.3372 20.0625 13.3372 20.0624L13.5717 19.8274L11.8973 20.5546C11.8972 20.5547 11.8971 20.5547 11.897 20.5547C11.5541 20.7057 11.1545 20.6738 10.8379 20.4718L6.80369 17.8978C6.02542 17.4016 6.13963 16.2254 6.99975 15.8903L23.3197 25.0997ZM23.3197 25.0997L26.0106 10.3033L26.0107 10.3029C26.1659 9.43036 25.3068 8.72398 24.4843 9.04689L24.4842 9.04693L6.99991 15.8902L23.3197 25.0997ZM18.1229 15.3911L18.123 15.3911C19.263 14.898 20.2535 16.3481 19.3733 17.2283L15.268 21.3337V22.1687L16.0266 21.4101L18.1229 15.3911ZM18.1229 15.3911L11.5483 18.2437L9.89709 17.1901M18.1229 15.3911L9.89709 17.1901M9.89709 17.1901L23.4223 11.8945L21.3648 23.2126L17.3315 21.1973C17.3315 21.1973 17.3315 21.1973 17.3315 21.1973C16.8911 20.9771 16.3662 21.0691 16.0267 21.4099L9.89709 17.1901Z" fill="#50AF00" stroke="#50AF00" stroke-width="0.2"/>
</svg>
