<svg width="42" height="27" viewBox="0 0 42 27" fill="none" xmlns="http://www.w3.org/2000/svg">
<path d="M41.522 13.523C41.5218 13.5221 41.5214 13.5208 41.521 13.5195L41.5216 13.5216L41.522 13.523ZM41.522 13.523C41.5224 13.524 41.5225 13.5244 41.5223 13.5238L41.522 13.523ZM34.1938 16.3873L34.6759 15.6211H33.7706H2.625C1.47274 15.6211 0.5 14.6368 0.5 13.3774C0.5 12.118 1.47274 11.1338 2.625 11.1338H33.7706H34.6649L34.1966 10.3719L30.426 4.23774L30.4099 4.21154L30.3907 4.18751C29.6268 3.23119 29.7557 1.80433 30.6642 1.01371L30.6646 1.01339C31.0628 0.666181 31.5414 0.5 32.016 0.5C32.6102 0.5 33.2073 0.764277 33.6341 1.28765L40.9825 11.906L40.9918 11.9195L41.002 11.9324C41.0195 11.9544 41.0388 11.9862 41.0678 12.0459C41.0733 12.0572 41.0811 12.0739 41.0904 12.0938C41.1149 12.1464 41.15 12.2215 41.1808 12.2794L41.1833 12.2839C41.2109 12.3345 41.247 12.3932 41.2716 12.4333C41.28 12.4469 41.287 12.4583 41.292 12.4666C41.3191 12.512 41.3321 12.5382 41.3401 12.5595L41.8084 12.3842L41.3401 12.5595C41.4412 12.8297 41.4974 13.102 41.4974 13.3665C41.4974 13.3702 41.4974 13.3739 41.4975 13.3774C41.4974 13.381 41.4974 13.3846 41.4974 13.3884C41.4974 13.6528 41.4412 13.9252 41.3401 14.1953L41.8084 14.3706L41.3401 14.1953C41.3321 14.2167 41.3191 14.2428 41.292 14.2882C41.287 14.2965 41.28 14.308 41.2716 14.3216C41.247 14.3617 41.2109 14.4204 41.1833 14.471L41.1809 14.4755C41.15 14.5334 41.1149 14.6084 41.0904 14.661C41.0811 14.6809 41.0733 14.6976 41.0678 14.709C41.0388 14.7687 41.0195 14.8004 41.002 14.8225L40.9925 14.8344L40.9838 14.847L33.3914 25.7124C32.6351 26.6462 31.3151 26.7648 30.4213 25.9866L30.4212 25.9865C29.5126 25.1959 29.3837 23.7691 30.1476 22.8127L30.1652 22.7907L30.1802 22.7669L34.1938 16.3873ZM41.5216 13.2333L41.521 13.2354L41.5223 13.231L41.5216 13.2333Z" fill="white" stroke="#424657"/>
</svg>
