<svg width="50" height="50" viewBox="0 0 50 50" fill="none" xmlns="http://www.w3.org/2000/svg">
<path d="M25 50C38.2138 50 48.9258 39.2881 48.9258 26.0742C48.9258 12.8604 38.2138 2.14844 25 2.14844C11.7862 2.14844 1.07422 12.8604 1.07422 26.0742C1.07422 39.2881 11.7862 50 25 50Z" fill="#5DC1D8"/>
<path d="M28.1187 39.3132C28.1187 39.0978 28.2939 38.9226 28.5093 38.9226H28.9359C28.9753 38.9226 29.0111 38.8988 29.0261 38.8623C29.0413 38.8258 29.0329 38.7838 29.0049 38.7559L24.3651 34.116C24.1081 33.859 23.9665 33.5156 23.9665 33.1493C23.9665 32.783 24.1081 32.4396 24.3651 32.1826L24.5589 31.9888C24.816 31.7317 25.1593 31.5901 25.5256 31.5901C25.892 31.5901 26.2353 31.7317 26.4923 31.9888L27.7085 33.205C27.7272 33.2236 27.7522 33.2336 27.7776 33.2336C27.7902 33.2336 27.8029 33.2313 27.815 33.2262C27.8515 33.2111 27.8752 33.1754 27.8752 33.1359V23.2171C27.8752 22.4632 28.4885 21.8499 29.2424 21.8499H29.2831C29.6952 21.8499 30.0643 22.034 30.3152 22.3232V0.976562C30.3152 0.439453 29.8757 0 29.3386 0H8.66235C8.12524 0 7.68579 0.439453 7.68579 0.976562V39.0092C7.68579 39.5463 8.12524 39.9857 8.66235 39.9857H28.1186V39.3132H28.1187Z" fill="#2E4C89"/>
<path d="M23.9663 33.1494C23.9663 32.7831 24.1079 32.4397 24.3649 32.1827L24.5587 31.9889C24.8158 31.7318 25.1591 31.5902 25.5254 31.5902C25.8918 31.5902 26.2351 31.7318 26.4921 31.9889L27.7084 33.2051C27.727 33.2237 27.752 33.2337 27.7774 33.2337C27.79 33.2337 27.8027 33.2313 27.8148 33.2263C27.8513 33.2112 27.8751 33.1755 27.8751 33.136V23.2172C27.8751 22.5666 28.3323 22.0217 28.9419 21.8844V4.21406C28.9419 3.93066 28.71 3.69873 28.4266 3.69873H9.57407C9.29067 3.69873 9.05884 3.93066 9.05884 4.21406V33.2087C9.05884 33.4921 9.29067 33.7238 9.57407 33.7238H24.0928C24.0109 33.5464 23.9663 33.3518 23.9663 33.1494Z" fill="#C3DDF4"/>
<path d="M10.9965 33.2088V4.21406C10.9965 3.93066 11.2284 3.69873 11.5118 3.69873H9.57407C9.29067 3.69873 9.05884 3.93066 9.05884 4.21406V33.2087C9.05884 33.4921 9.29067 33.7238 9.57407 33.7238H11.5118C11.2284 33.7239 10.9965 33.4922 10.9965 33.2088Z" fill="#AEC1ED"/>
<path d="M19.0001 38.3381C20.0012 38.3381 20.8127 37.5266 20.8127 36.5255C20.8127 35.5244 20.0012 34.7129 19.0001 34.7129C17.999 34.7129 17.1875 35.5244 17.1875 36.5255C17.1875 37.5266 17.999 38.3381 19.0001 38.3381Z" fill="#1A2B63"/>
<path d="M22.9371 2.57275H17.3347C16.9302 2.57275 16.6023 2.24492 16.6023 1.84033C16.6023 1.43574 16.9302 1.10791 17.3347 1.10791H22.9371C23.3416 1.10791 23.6695 1.43574 23.6695 1.84033C23.6695 2.24492 23.3416 2.57275 22.9371 2.57275Z" fill="#1A2B63"/>
<path d="M15.0636 2.66426C15.5186 2.66426 15.8874 2.29542 15.8874 1.84043C15.8874 1.38544 15.5186 1.0166 15.0636 1.0166C14.6086 1.0166 14.2397 1.38544 14.2397 1.84043C14.2397 2.29542 14.6086 2.66426 15.0636 2.66426Z" fill="#1A2B63"/>
<path d="M28.4266 3.69873H9.57407C9.29067 3.69873 9.05884 3.93066 9.05884 4.21406V6.50117H28.942V4.21406C28.9419 3.93066 28.71 3.69873 28.4266 3.69873Z" fill="#FF9518"/>
<path d="M11.5118 3.69873H9.57407C9.29067 3.69873 9.05884 3.93066 9.05884 4.21406V6.50117H10.9965V4.21406C10.9965 3.93066 11.2284 3.69873 11.5118 3.69873Z" fill="#EF8318"/>
<path d="M27.4185 21.7958C27.4185 22.3329 26.979 22.7724 26.4419 22.7724H11.5591C11.022 22.7724 10.5825 22.3329 10.5825 21.7958V17.0503C10.5825 16.5132 11.022 16.0737 11.5591 16.0737H26.4419C26.979 16.0737 27.4185 16.5132 27.4185 17.0503V21.7958Z" fill="#445EA0"/>
<path d="M23.9663 33.1492C23.9663 32.7829 24.1079 32.4395 24.3649 32.1825L24.5587 31.9887C24.8158 31.7316 25.1591 31.59 25.5254 31.59C25.8918 31.59 26.2351 31.7316 26.4921 31.9887L27.7084 33.2049C27.727 33.2235 27.752 33.2335 27.7774 33.2335C27.79 33.2335 27.8027 33.2311 27.8148 33.2261C27.8513 33.211 27.875 33.1753 27.875 33.1358V24.2773H9.05884V33.2086C9.05884 33.492 9.29067 33.7237 9.57407 33.7237H24.0928C24.0109 33.5462 23.9663 33.3516 23.9663 33.1492Z" fill="#EEF6FF"/>
<path d="M10.9965 33.2086V24.2773H9.05884V33.2086C9.05884 33.492 9.29067 33.7237 9.57407 33.7237H11.5118C11.2284 33.7237 10.9965 33.492 10.9965 33.2086Z" fill="#D9EAFC"/>
<path d="M20.5512 27.0317H12.7617C12.3572 27.0317 12.0293 26.7039 12.0293 26.2993C12.0293 25.8947 12.3572 25.5669 12.7617 25.5669H20.5513C20.9558 25.5669 21.2837 25.8947 21.2837 26.2993C21.2836 26.7038 20.9557 27.0317 20.5512 27.0317Z" fill="#5DC1D8"/>
<path d="M20.5512 29.46H12.7617C12.3572 29.46 12.0293 29.132 12.0293 28.7275C12.0293 28.3229 12.3572 27.9951 12.7617 27.9951H20.5513C20.9558 27.9951 21.2837 28.3229 21.2837 28.7275C21.2836 29.132 20.9557 29.46 20.5512 29.46Z" fill="#5DC1D8"/>
<path d="M16.672 31.8882H12.7617C12.3572 31.8882 12.0293 31.5604 12.0293 31.1558C12.0293 30.7512 12.3572 30.4233 12.7617 30.4233H16.672C17.0765 30.4233 17.4044 30.7512 17.4044 31.1558C17.4044 31.5604 17.0765 31.8882 16.672 31.8882Z" fill="#5DC1D8"/>
<path d="M24.3025 31.2066C24.1529 31.2066 24.0019 31.1608 23.8717 31.0661C23.5448 30.8279 23.4729 30.3697 23.7111 30.0427L24.6696 28.7275L23.7113 27.4124C23.4731 27.0854 23.545 26.6273 23.8719 26.389C24.199 26.1508 24.657 26.2228 24.8952 26.5497L26.1678 28.2962C26.3551 28.5533 26.3551 28.9018 26.1678 29.1588L24.8951 30.9054C24.7517 31.1021 24.5286 31.2065 24.3025 31.2066Z" fill="#FF9518"/>
<path d="M29.011 42.9219V49.6633C32.589 49.0592 35.897 47.6617 38.7476 45.6568V42.9219H29.011Z" fill="#EF8318"/>
<path d="M29.011 42.9219V49.6633C29.6665 49.5526 30.3125 49.4147 30.9488 49.252V42.9219H29.011Z" fill="#DB722C"/>
<path d="M38.9168 38.9223V28.7729C38.9168 27.9672 38.2576 27.308 37.452 27.308H37.4113C36.8137 27.308 36.2974 27.6712 36.0702 28.1873C35.8431 27.6712 35.3268 27.308 34.7291 27.308H34.6884C34.0907 27.308 33.5744 27.6712 33.3473 28.1873C33.1201 27.6712 32.6038 27.308 32.0062 27.308H31.9655C31.4595 27.308 31.0114 27.5683 30.748 27.9613V23.2168C30.748 22.4111 30.0889 21.752 29.2832 21.752H29.2426C28.4369 21.752 27.7777 22.4111 27.7777 23.2168V33.1356L26.5615 31.9193C25.9919 31.3497 25.0597 31.3497 24.4899 31.9193L24.2962 32.1132C23.7265 32.6828 23.7265 33.6151 24.2962 34.1848L29.0337 38.9223H38.9168Z" fill="#FFE2B8"/>
<path d="M30.9712 38.9225L26.2337 34.185C25.664 33.6154 25.664 32.683 26.2337 32.1134L26.4275 31.9196C26.449 31.8981 26.4719 31.879 26.4944 31.8591C25.9209 31.3523 25.0378 31.3714 24.4897 31.9196L24.2959 32.1134C23.7262 32.683 23.7262 33.6154 24.2959 34.185L29.0334 38.9225H30.9712Z" fill="#FFC987"/>
<path d="M39.7377 42.5316C39.7377 42.8002 39.518 43.0199 39.2495 43.0199H28.509C28.2405 43.0199 28.0208 42.8002 28.0208 42.5316V39.3135C28.0208 39.0449 28.2405 38.8252 28.509 38.8252H39.2495C39.518 38.8252 39.7377 39.0449 39.7377 39.3135V42.5316Z" fill="#FF9518"/>
<path d="M29.9585 42.5316V39.3135C29.9585 39.0449 30.1783 38.8252 30.4468 38.8252H28.509C28.2405 38.8252 28.0208 39.0449 28.0208 39.3135V42.5316C28.0208 42.8002 28.2405 43.0199 28.509 43.0199H30.4468C30.1783 43.0199 29.9585 42.8002 29.9585 42.5316Z" fill="#EF8318"/>
<path d="M37.5927 41.8304C38.0939 41.8304 38.5003 41.424 38.5003 40.9228C38.5003 40.4215 38.0939 40.0151 37.5927 40.0151C37.0914 40.0151 36.6851 40.4215 36.6851 40.9228C36.6851 41.424 37.0914 41.8304 37.5927 41.8304Z" fill="#DB722C"/>
<path d="M46.7486 23.4416C46.7486 23.7102 46.5289 23.9299 46.2603 23.9299H32.2188C31.9502 23.9299 31.7305 23.7102 31.7305 23.4416V13.311C31.7305 13.0425 31.9502 12.8228 32.2188 12.8228H46.2603C46.5289 12.8228 46.7486 13.0425 46.7486 13.311V23.4416Z" fill="#FE3745"/>
<path d="M36.7869 16.1415C36.7869 15.6044 37.1674 15.3846 37.6326 15.6532L41.5032 17.8879C41.9683 18.1564 41.9683 18.5959 41.5032 18.8644L37.6326 21.0992C37.1674 21.3677 36.7869 21.148 36.7869 20.6109V16.1415Z" fill="white"/>
<path d="M45.5734 7.63652C44.3621 7.63652 43.3766 6.65098 43.3766 5.43965C43.3766 5.23857 43.4042 5.04395 43.4551 4.85889H32.2188C31.9502 4.85889 31.7305 5.07861 31.7305 5.34717V11.1396C31.7305 11.4082 31.9502 11.6279 32.2188 11.6279H46.2603C46.5289 11.6279 46.7486 11.4082 46.7486 11.1396V7.29434C46.4085 7.51064 46.0056 7.63652 45.5734 7.63652Z" fill="#FFAF10"/>
<path d="M33.6683 23.4416V13.311C33.6683 13.0425 33.888 12.8228 34.1565 12.8228H32.2187C31.9502 12.8228 31.7305 13.0425 31.7305 13.311V23.4416C31.7305 23.7102 31.9502 23.9299 32.2187 23.9299H34.1565C33.888 23.9299 33.6683 23.7102 33.6683 23.4416Z" fill="#B7092B"/>
<path d="M33.6683 11.1396V5.34717C33.6683 5.07861 33.888 4.85889 34.1565 4.85889H32.2187C31.9502 4.85889 31.7305 5.07861 31.7305 5.34717V11.1396C31.7305 11.4082 31.9502 11.6279 32.2187 11.6279H34.1565C33.888 11.6279 33.6683 11.4082 33.6683 11.1396Z" fill="#EF9614"/>
<path d="M45.5731 7.73408C46.8403 7.73408 47.8676 6.70679 47.8676 5.43955C47.8676 4.17232 46.8403 3.14502 45.5731 3.14502C44.3059 3.14502 43.2786 4.17232 43.2786 5.43955C43.2786 6.70679 44.3059 7.73408 45.5731 7.73408Z" fill="#B7092B"/>
<path d="M45.6432 6.69277C45.3734 6.69277 45.1549 6.47422 45.1549 6.20449V5.14258C44.9537 5.08223 44.8071 4.8956 44.8071 4.6748C44.8071 4.40508 45.0257 4.18652 45.2954 4.18652H45.6432C45.9129 4.18652 46.1314 4.40508 46.1314 4.6748V6.20449C46.1314 6.47422 45.9129 6.69277 45.6432 6.69277Z" fill="#EEF6FF"/>
<path d="M41.0858 7.83398H34.094C33.6894 7.83398 33.3616 7.50605 33.3616 7.10156C33.3616 6.69697 33.6894 6.36914 34.094 6.36914H41.0858C41.4904 6.36914 41.8182 6.69697 41.8182 7.10156C41.8182 7.50605 41.4903 7.83398 41.0858 7.83398Z" fill="#DB722C"/>
<path d="M43.1996 10.0986H34.094C33.6894 10.0986 33.3616 9.7708 33.3616 9.36621C33.3616 8.96162 33.6894 8.63379 34.094 8.63379H43.1996C43.6042 8.63379 43.932 8.96162 43.932 9.36621C43.932 9.7708 43.6042 10.0986 43.1996 10.0986Z" fill="#DB722C"/>
<path d="M19 14.9736C21.0134 14.9736 22.6455 13.3415 22.6455 11.3281C22.6455 9.31477 21.0134 7.68262 19 7.68262C16.9866 7.68262 15.3545 9.31477 15.3545 11.3281C15.3545 13.3415 16.9866 14.9736 19 14.9736Z" fill="#EF8318"/>
<path d="M19 14.2578C20.618 14.2578 21.9297 12.9461 21.9297 11.3281C21.9297 9.7101 20.618 8.39844 19 8.39844C17.382 8.39844 16.0703 9.7101 16.0703 11.3281C16.0703 12.9461 17.382 14.2578 19 14.2578Z" fill="#FF9518"/>
<path d="M20.1484 12.1601H19.4978V12.0034C20.0524 11.8004 20.4491 11.2692 20.4491 10.6443C20.4491 9.84443 19.8005 9.1958 19.0006 9.1958C18.2006 9.1958 17.5521 9.84443 17.5521 10.6443C17.5521 11.2693 17.9487 11.8004 18.5034 12.0034V12.1601H17.8527C17.5929 12.1601 17.3804 12.3727 17.3804 12.6326V13.7686C17.8445 14.0773 18.4014 14.2576 19.0006 14.2576C19.5998 14.2576 20.1567 14.0773 20.6208 13.7686V12.6324C20.6209 12.3727 20.4083 12.1601 20.1484 12.1601Z" fill="white"/>
<path d="M15.7227 20.8389C15.7227 21.1074 15.5029 21.3271 15.2344 21.3271H12.4023C12.1338 21.3271 11.9141 21.1074 11.9141 20.8389V18.0068C11.9141 17.7383 12.1338 17.5186 12.4023 17.5186H15.2344C15.5029 17.5186 15.7227 17.7383 15.7227 18.0068V20.8389Z" fill="#FF9518"/>
<path d="M13.1356 20.8389V18.0068C13.1356 17.7383 13.3554 17.5186 13.6239 17.5186H12.4023C12.1338 17.5186 11.9141 17.7383 11.9141 18.0068V20.8389C11.9141 21.1074 12.1338 21.3271 12.4023 21.3271H13.6239C13.3554 21.3271 13.1356 21.1074 13.1356 20.8389Z" fill="#EF8318"/>
<path d="M22.2329 19.4229C22.2329 19.1472 22.327 18.8937 22.4834 18.6904H17.2524C16.8479 18.6904 16.52 19.0183 16.52 19.4229C16.52 19.8274 16.8479 20.1553 17.2524 20.1553H22.4834C22.3271 19.9521 22.2329 19.6985 22.2329 19.4229Z" fill="#1A2B63"/>
<path d="M25.5859 18.6904H24.3914C24.5478 18.8937 24.6418 19.1472 24.6418 19.4229C24.6418 19.6985 24.5478 19.9521 24.3914 20.1553H25.5859C25.9905 20.1553 26.3183 19.8274 26.3183 19.4229C26.3183 19.0183 25.9905 18.6904 25.5859 18.6904Z" fill="#1A2B63"/>
<path d="M23.4375 20.7247C24.1567 20.7247 24.7396 20.1418 24.7396 19.4227C24.7396 18.7036 24.1567 18.1206 23.4375 18.1206C22.7184 18.1206 22.1355 18.7036 22.1355 19.4227C22.1355 20.1418 22.7184 20.7247 23.4375 20.7247Z" fill="#FF9518"/>
</svg>
