<svg width="50" height="50" viewBox="0 0 50 50" fill="none" xmlns="http://www.w3.org/2000/svg">
<g clip-path="url(#clip0)">
<path d="M25 50C38.8071 50 50 38.8071 50 25C50 11.1929 38.8071 0 25 0C11.1929 0 0 11.1929 0 25C0 38.8071 11.1929 50 25 50Z" fill="#4ABAA4"/>
<path opacity="0.1" d="M16.4454 44.0352V41.6175L7.89024 29.7491C7.45069 29.3497 11 28.2765 11 27.6506V10.9999L30.9766 6.29834L38.0072 13.2663C38.5193 13.2817 37.116 16.7601 37.4676 17.0903L40.3422 15.3466L49.6283 29.3276C47.5867 42.9873 33.7792 51.7603 21.4959 49.7729L16.4454 44.0352Z" fill="black"/>
<path d="M30.9791 6.2915V25.0838L11.3411 29.8916L8.76663 29.887C8.59375 29.887 8.4162 29.873 8.23397 29.8356C7.01916 29.5973 6.19214 28.4573 6.19214 27.2191V6.2915H30.9791Z" fill="#ECECEC"/>
<path d="M13.9147 13.2451H13.9146C12.4926 13.2451 11.3398 14.3979 11.3398 15.8199V29.8905H16.4895V15.8199C16.4895 14.3979 15.3367 13.2451 13.9147 13.2451Z" fill="#B0B1B5"/>
<path d="M37.8187 13.2451H24.4274H13.8667C15.2887 13.2451 16.4415 14.3979 16.4415 15.8199V23.9528V29.8905V44.0381H40.3932V15.8196C40.3932 14.3977 39.2406 13.2451 37.8187 13.2451Z" fill="#E6E7E8"/>
<path d="M18.5854 15.3604H38.3458V22.8864H18.5854V15.3604Z" fill="#32796B"/>
<path d="M18.5857 24.3369H38.346V24.8077H18.5857V24.3369Z" fill="#DAD7DC"/>
<path d="M18.5857 26.2583H38.346V26.7291H18.5857V26.2583Z" fill="#DAD7DC"/>
<path d="M18.5857 28.1787H38.346V28.6495H18.5857V28.1787Z" fill="#DAD7DC"/>
<path d="M18.5857 30.1001H38.346V30.5709H18.5857V30.1001Z" fill="#DAD7DC"/>
<path d="M18.5857 32.0205H38.346V32.4913H18.5857V32.0205Z" fill="#DAD7DC"/>
<path d="M18.5857 33.9409H38.346V34.4117H18.5857V33.9409Z" fill="#DAD7DC"/>
<path d="M18.5857 35.8623H38.346V36.3331H18.5857V35.8623Z" fill="#DAD7DC"/>
<path d="M18.5857 37.7837H38.346V38.2545H18.5857V37.7837Z" fill="#DAD7DC"/>
<path d="M18.5857 39.7041H38.346V40.1749H18.5857V39.7041Z" fill="#DAD7DC"/>
<path d="M18.5857 41.6245H38.346V42.0953H18.5857V41.6245Z" fill="#DAD7DC"/>
<path d="M33.8577 38.1177L35.6572 36.3182L36.9497 37.6106L35.1501 39.4101L33.8577 38.1177Z" fill="#344E5C"/>
<path d="M43.0229 42.5622L37.6628 38.314L35.8633 40.1135L40.1116 45.4736C40.8811 46.4446 42.325 46.5279 43.2011 45.6518L43.2011 45.6518C44.0772 44.7757 43.9939 43.3318 43.0229 42.5622Z" fill="#344E5C"/>
<path d="M38.0298 38.2095L35.7579 40.4815C35.5491 40.6902 35.2108 40.6902 35.0021 40.4815L34.9236 40.4031C34.7149 40.1943 34.7149 39.856 34.9236 39.6473L37.1956 37.3753C37.4043 37.1666 37.7427 37.1666 37.9514 37.3753L38.0298 37.4537C38.2385 37.6624 38.2385 38.0008 38.0298 38.2095Z" fill="#DB584D"/>
<path d="M30.646 39.7876C34.3406 39.7876 37.3357 36.7925 37.3357 33.0979C37.3357 29.4033 34.3406 26.4082 30.646 26.4082C26.9514 26.4082 23.9563 29.4033 23.9563 33.0979C23.9563 36.7925 26.9514 39.7876 30.646 39.7876Z" fill="#DB584D"/>
<path d="M30.6459 38.1996C33.4639 38.1996 35.7484 35.9151 35.7484 33.0971C35.7484 30.2791 33.4639 27.9946 30.6459 27.9946C27.8279 27.9946 25.5435 30.2791 25.5435 33.0971C25.5435 35.9151 27.8279 38.1996 30.6459 38.1996Z" fill="#E6E7E8"/>
<path d="M30.646 37.644C33.1571 37.644 35.1928 35.6083 35.1928 33.0971C35.1928 30.586 33.1571 28.5503 30.646 28.5503C28.1348 28.5503 26.0991 30.586 26.0991 33.0971C26.0991 35.6083 28.1348 37.644 30.646 37.644Z" fill="#D6B251"/>
<path d="M29.6853 35.5203C29.5465 35.5203 29.4076 35.4673 29.3016 35.3613L27.9993 34.059C27.7873 33.847 27.7873 33.5036 27.9993 33.2916C28.2113 33.0796 28.5547 33.0796 28.7667 33.2916L29.6853 34.2102L32.5256 31.3699C32.7376 31.1579 33.0811 31.1579 33.293 31.3699C33.505 31.5819 33.505 31.9253 33.293 32.1373L30.069 35.3613C29.963 35.4673 29.8242 35.5203 29.6853 35.5203Z" fill="#E6E7E8"/>
</g>
<defs>
<clipPath id="clip0">
<rect width="50" height="50" fill="white"/>
</clipPath>
</defs>
</svg>
