<svg width="50" height="50" viewBox="0 0 50 50" fill="none" xmlns="http://www.w3.org/2000/svg">
<g clip-path="url(#clip0)">
<path d="M23.9258 49.5605C37.1396 49.5605 47.8516 38.8486 47.8516 25.6348C47.8516 12.4209 37.1396 1.70898 23.9258 1.70898C10.7119 1.70898 0 12.4209 0 25.6348C0 38.8486 10.7119 49.5605 23.9258 49.5605Z" fill="#91E0E8"/>
<path d="M5.56641 15.6084H2.19756C0.787891 18.6582 0 22.0542 0 25.6347C0 26.0598 0.0115234 26.4824 0.0333984 26.9021H5.56641V15.6084Z" fill="#445EA0"/>
<path d="M40.5641 33.0811H38.4648V40.9788H40.5641C41.1012 40.9788 41.5406 40.5394 41.5406 40.0022V34.0576C41.5406 33.5205 41.1012 33.0811 40.5641 33.0811Z" fill="#293D7C"/>
<path d="M27.5105 32.7138V41.3459L35.5899 46.1665V27.8931L27.5105 32.7138Z" fill="#EEF6FF"/>
<path d="M38.5627 47.7112C38.5627 47.9798 38.343 48.1995 38.0745 48.1995H35.9807C35.7122 48.1995 35.4924 47.9798 35.4924 47.7112V26.3481C35.4924 26.0796 35.7122 25.8599 35.9807 25.8599H38.0745C38.343 25.8599 38.5627 26.0796 38.5627 26.3481V47.7112Z" fill="#FE3745"/>
<path d="M37.1695 47.7112V26.3481C37.1695 26.0796 37.3893 25.8599 37.6578 25.8599H35.9805C35.7119 25.8599 35.4922 26.0796 35.4922 26.3481V47.7113C35.4922 47.9799 35.7119 48.1996 35.9805 48.1996H37.6578C37.3893 48.1995 37.1695 47.9798 37.1695 47.7112Z" fill="#B7092B"/>
<path d="M18.6444 33.4131H16.3806C16.1121 33.4131 15.8923 33.6328 15.8923 33.9014V40.158C15.8923 40.4266 16.1121 40.6463 16.3806 40.6463H18.6444V33.4131Z" fill="#EEF6FF"/>
<path d="M17.3093 40.1585V33.9019C17.3093 33.6333 17.5291 33.4136 17.7976 33.4136H16.3806C16.1121 33.4136 15.8923 33.6333 15.8923 33.9019V40.1585C15.8923 40.427 16.1121 40.6468 16.3806 40.6468H17.7976C17.5291 40.6468 17.3093 40.427 17.3093 40.1585Z" fill="#D9EAFC"/>
<path d="M27.6081 41.3928C27.6081 41.6613 27.3883 41.8811 27.1198 41.8811H19.0349C18.7664 41.8811 18.5466 41.6613 18.5466 41.3928V32.6665C18.5466 32.3979 18.7664 32.1782 19.0349 32.1782H27.1198C27.3883 32.1782 27.6081 32.3979 27.6081 32.6665V41.3928Z" fill="#FE3745"/>
<path d="M20.4844 41.3928V32.6665C20.4844 32.3979 20.7042 32.1782 20.9727 32.1782H19.0349C18.7664 32.1782 18.5466 32.3979 18.5466 32.6665V41.3928C18.5466 41.6613 18.7664 41.8811 19.0349 41.8811H20.9727C20.7042 41.8811 20.4844 41.6613 20.4844 41.3928Z" fill="#B7092B"/>
<path d="M47.317 8.31445C47.317 8.0459 47.0973 7.82617 46.8287 7.82617H33.5034C33.2349 7.82617 33.0151 8.0459 33.0151 8.31445V17.5875C33.0151 17.8561 33.2349 18.0758 33.5034 18.0758H37.5258C37.7943 18.0758 38.1456 18.2518 38.3064 18.4669L39.8736 20.5634C40.0344 20.7785 40.2977 20.7785 40.4584 20.5634L42.0256 18.4669C42.1864 18.2518 42.5377 18.0758 42.8062 18.0758H46.8286C47.0972 18.0758 47.3169 17.8561 47.3169 17.5875V8.31445H47.317Z" fill="#52BBEF"/>
<path d="M34.9529 17.5875V8.31445C34.9529 8.0459 35.1727 7.82617 35.4412 7.82617H33.5034C33.2349 7.82617 33.0151 8.0459 33.0151 8.31445V17.5875C33.0151 17.8561 33.2349 18.0758 33.5034 18.0758H35.4412C35.1727 18.0758 34.9529 17.8561 34.9529 17.5875Z" fill="#1E99D6"/>
<path d="M44.35 11.4492H35.9824C35.5778 11.4492 35.25 11.1214 35.25 10.7168C35.25 10.3123 35.5778 9.98438 35.9824 9.98438H44.35C44.7546 9.98438 45.0824 10.3123 45.0824 10.7168C45.0824 11.1214 44.7545 11.4492 44.35 11.4492Z" fill="white"/>
<path d="M44.35 13.7197H35.9824C35.5778 13.7197 35.25 13.3919 35.25 12.9873C35.25 12.5827 35.5778 12.2549 35.9824 12.2549H44.35C44.7546 12.2549 45.0824 12.5827 45.0824 12.9873C45.0824 13.3919 44.7545 13.7197 44.35 13.7197Z" fill="white"/>
<path d="M40.1829 15.9907H35.9824C35.5778 15.9907 35.25 15.6629 35.25 15.2583C35.25 14.8537 35.5778 14.5259 35.9824 14.5259H40.1829C40.5875 14.5259 40.9153 14.8537 40.9153 15.2583C40.9153 15.6629 40.5874 15.9907 40.1829 15.9907Z" fill="white"/>
<path d="M26.1727 11.3005C29.1718 11.3005 31.603 8.86927 31.603 5.87021C31.603 2.87116 29.1718 0.439941 26.1727 0.439941C23.1737 0.439941 20.7424 2.87116 20.7424 5.87021C20.7424 8.86927 23.1737 11.3005 26.1727 11.3005Z" fill="#FE3745"/>
<path d="M22.6801 5.86973C22.6801 3.20156 24.605 0.984473 27.1416 0.527344C26.8269 0.470605 26.5036 0.439453 26.1726 0.439453C23.1736 0.439453 20.7424 2.8707 20.7424 5.86973C20.7424 8.86875 23.1736 11.2999 26.1726 11.2999C26.5036 11.2999 26.8269 11.2687 27.1416 11.212C24.605 10.755 22.6801 8.53789 22.6801 5.86973Z" fill="#B7092B"/>
<path d="M26.1629 8.85879C26.0749 8.85879 25.9919 8.82422 25.9293 8.76132L23.3642 6.17461C23.0548 5.8626 22.8845 5.44736 22.8845 5.00537C22.8845 4.56357 23.0548 4.14824 23.3642 3.83633C23.6738 3.52393 24.0857 3.35205 24.5237 3.35205C24.9616 3.35205 25.3732 3.52393 25.6832 3.83633L26.1723 4.32959L26.6619 3.83633C26.9713 3.52393 27.3831 3.35205 27.8211 3.35205C28.2594 3.35205 28.6709 3.52393 28.9807 3.83633C29.2904 4.14844 29.4608 4.56377 29.4608 5.00537C29.4608 5.44697 29.2904 5.86201 28.9805 6.17461L26.3954 8.76211C26.3333 8.82441 26.2506 8.85879 26.1629 8.85879Z" fill="white"/>
<path d="M7.53633 35.9791C7.46191 35.9791 7.39199 35.9498 7.33916 35.8968L5.17393 33.7135C4.91279 33.4501 4.76904 33.0996 4.76904 32.7266C4.76904 32.3537 4.91289 32.0031 5.17393 31.7397C5.43525 31.4761 5.78281 31.3311 6.15254 31.3311C6.52217 31.3311 6.86963 31.4761 7.13125 31.7397L7.54414 32.1562L7.95732 31.7397C8.21856 31.4761 8.56602 31.3311 8.93594 31.3311C9.30586 31.3311 9.65322 31.4761 9.91465 31.7397C10.1761 32.0032 10.3199 32.3538 10.3199 32.7266C10.3199 33.0993 10.1761 33.4497 9.91455 33.7135L7.73242 35.8976C7.68018 35.9501 7.61035 35.9791 7.53633 35.9791Z" fill="#FE3745"/>
<path d="M6.26558 33.2579C6.00444 32.9945 5.8606 32.644 5.8606 32.2709C5.8606 31.9208 5.98882 31.5914 6.22036 31.3344C6.1979 31.3332 6.17554 31.3311 6.15278 31.3311C5.78306 31.3311 5.4354 31.4761 5.17417 31.7397C4.91304 32.003 4.76929 32.3536 4.76929 32.7266C4.76929 33.0996 4.91313 33.4501 5.17417 33.7135L7.3394 35.8968C7.39224 35.9498 7.46216 35.9791 7.53657 35.9791C7.6106 35.9791 7.68042 35.9501 7.73276 35.8976L8.3103 35.3194L6.26558 33.2579Z" fill="#B7092B"/>
<path d="M18.1809 27.5621V26.2142C18.1809 25.4603 18.7942 24.847 19.5481 24.847H19.8641C19.9181 24.847 19.9618 24.8033 19.9618 24.7493C19.9618 24.6953 19.9181 24.6517 19.8641 24.6517C19.1102 24.6517 18.4969 24.0384 18.4969 23.2845V21.9365C18.4969 21.1826 19.1102 20.5693 19.8641 20.5693C19.9181 20.5693 19.9618 20.5257 19.9618 20.4717C19.9618 20.4177 19.9181 20.374 19.8641 20.374C19.1102 20.374 18.4969 19.7608 18.4969 19.0068V17.6587C18.4969 16.9048 19.1102 16.2915 19.8641 16.2915C19.9181 16.2915 19.9618 16.2479 19.9618 16.1939C19.9618 16.1399 19.9181 16.0962 19.8641 16.0962H19.2607C18.5068 16.0962 17.8935 15.4829 17.8935 14.729V13.3809C17.8935 12.7111 18.3779 12.1535 19.0145 12.037V6.78906C19.0145 5.9834 18.3553 5.32422 17.5497 5.32422L15.2712 5.32432C14.4656 5.32432 13.7174 5.97744 13.6085 6.77568L12.6908 13.5099C12.5823 14.3051 12.008 14.956 11.4124 14.9607V27.6564H18.1856C18.1835 27.6251 18.1809 27.5941 18.1809 27.5621Z" fill="#FFE2B8"/>
<path d="M17.5497 5.32422L15.2712 5.32432C14.4656 5.32432 13.7174 5.97744 13.6085 6.77568L12.6908 13.5099C12.5823 14.3051 12.008 14.956 11.4124 14.9607V16.8991C12.4612 16.899 13.331 16.899 13.3433 16.899C13.9413 16.899 14.5196 16.2459 14.6285 15.4477L15.5462 8.71348C15.6551 7.91523 16.4033 7.26211 17.2089 7.26211L19.0144 7.26201V6.78906C19.0145 5.9834 18.3553 5.32422 17.5497 5.32422Z" fill="#FFC987"/>
<path d="M19.5481 29.0267C18.7424 29.0267 18.0833 28.3675 18.0833 27.5618V26.2139C18.0833 25.4082 18.7424 24.749 19.5481 24.749H27.4924C28.2981 24.749 28.9573 25.4082 28.9573 26.2139V27.5618C28.9573 28.3675 28.2981 29.0267 27.4924 29.0267H19.5481Z" fill="#FFE2B8"/>
<path d="M5.95703 29.2459C5.68848 29.2459 5.46875 29.0262 5.46875 28.7576V13.7529C5.46875 13.4844 5.68848 13.2646 5.95703 13.2646H11.0217C11.2902 13.2646 11.51 13.4844 11.51 13.7529V28.7575C11.51 29.0261 11.2902 29.2458 11.0217 29.2458H5.95703V29.2459Z" fill="#293D7C"/>
<path d="M7.40654 28.7576V13.7529C7.40654 13.4844 7.62627 13.2646 7.89482 13.2646H5.95703C5.68848 13.2646 5.46875 13.4844 5.46875 13.7529V28.7575C5.46875 29.0261 5.68848 29.2458 5.95703 29.2458H7.89482C7.62627 29.2459 7.40654 29.0262 7.40654 28.7576Z" fill="#1A2B63"/>
<path d="M8.48936 16.9636C9.21132 16.9636 9.79658 16.3783 9.79658 15.6563C9.79658 14.9344 9.21132 14.3491 8.48936 14.3491C7.76739 14.3491 7.18213 14.9344 7.18213 15.6563C7.18213 16.3783 7.76739 16.9636 8.48936 16.9636Z" fill="#AEC1ED"/>
<path d="M19.2607 16.1939C18.4551 16.1939 17.7959 15.5347 17.7959 14.729V13.3809C17.7959 12.5752 18.4551 11.916 19.2607 11.916H27.4924C28.2981 11.916 28.9572 12.5752 28.9572 13.3809V14.729C28.9572 15.5347 28.2981 16.1939 27.4924 16.1939H19.2607Z" fill="#FFE2B8"/>
<path d="M19.864 20.4717C19.0583 20.4717 18.3992 19.8125 18.3992 19.0068V17.6587C18.3992 16.853 19.0583 16.1938 19.864 16.1938H27.8489C28.6545 16.1938 29.3137 16.853 29.3137 17.6587V19.0068C29.3137 19.8125 28.6545 20.4717 27.8489 20.4717H19.864Z" fill="#FFE2B8"/>
<path d="M19.864 24.7493C19.0583 24.7493 18.3992 24.0901 18.3992 23.2845V21.9365C18.3992 21.1309 19.0583 20.4717 19.864 20.4717H27.8489C28.6545 20.4717 29.3137 21.1309 29.3137 21.9365V23.2845C29.3137 24.0901 28.6545 24.7493 27.8489 24.7493H19.864Z" fill="#FFE2B8"/>
<path d="M21.056 27.5187C20.2503 27.5187 19.5912 26.8595 19.5912 26.0538V24.749H19.5481C18.7424 24.749 18.0833 25.4082 18.0833 26.2139V27.5618C18.0833 28.3675 18.7424 29.0267 19.5481 29.0267H27.4924C28.2981 29.0267 28.9573 28.3675 28.9573 27.5618V27.5188H21.056V27.5187Z" fill="#FFC987"/>
<path d="M20.7687 14.6858C19.963 14.6858 19.3038 14.0267 19.3038 13.221V11.916H19.2607C18.4551 11.916 17.7959 12.5752 17.7959 13.3809V14.729C17.7959 15.5347 18.4551 16.1938 19.2607 16.1938H27.4924C28.2981 16.1938 28.9572 15.5347 28.9572 14.729V14.6859H20.7687V14.6858Z" fill="#FFC987"/>
<path d="M21.3722 18.9632C20.5665 18.9632 19.9073 18.304 19.9073 17.4983V16.1934H19.8643C19.0586 16.1934 18.3994 16.8525 18.3994 17.6582V19.0063C18.3994 19.812 19.0586 20.4712 19.8643 20.4712H27.8491C28.6548 20.4712 29.314 19.812 29.314 19.0063V18.9633L21.3722 18.9632Z" fill="#FFC987"/>
<path d="M21.3722 23.2413C20.5665 23.2413 19.9073 22.5821 19.9073 21.7765V20.4717H19.8643C19.0586 20.4717 18.3994 21.1309 18.3994 21.9365V23.2845C18.3994 24.0901 19.0586 24.7493 19.8643 24.7493H27.8491C28.6548 24.7493 29.314 24.0901 29.314 23.2845V23.2414H21.3722V23.2413Z" fill="#FFC987"/>
<path d="M11.9126 38.0513H3.17656C3.06973 38.0513 2.98242 38.139 2.98242 38.2463V43.8518C2.98242 43.9591 3.06973 44.0468 3.17656 44.0468H11.9126C12.0194 44.0468 12.1067 43.9591 12.1067 43.8518V38.2463C12.1068 38.139 12.0194 38.0513 11.9126 38.0513Z" fill="#FFAF10"/>
<path d="M4.92012 43.8519V39.5824L3.0292 38.121C3.03799 38.1105 3.04775 38.1012 3.0585 38.0928C3.0125 38.1285 2.98242 38.1838 2.98242 38.2463V43.8518C2.98242 43.9591 3.06973 44.0468 3.17656 44.0468H5.11426C5.00742 44.0469 4.92012 43.9592 4.92012 43.8519Z" fill="#EF9614"/>
<path d="M11.9125 38.0513H3.17642C3.11733 38.0513 3.0647 38.0787 3.02905 38.121L7.39058 41.4919C7.47524 41.5573 7.61372 41.5573 7.69829 41.4919L12.0597 38.121C12.0242 38.0787 11.9716 38.0513 11.9125 38.0513Z" fill="#FFD00D"/>
<path d="M49.8059 22.6714H41.0699C40.963 22.6714 40.8757 22.7591 40.8757 22.8664V28.4719C40.8757 28.5792 40.9631 28.6669 41.0699 28.6669H49.8059C49.9127 28.6669 50.0001 28.5792 50.0001 28.4719V22.8664C50.0001 22.7592 49.9127 22.6714 49.8059 22.6714Z" fill="#FFAF10"/>
<path d="M42.8134 28.4715V24.2021L40.9225 22.7406C40.9313 22.7302 40.9411 22.7208 40.9518 22.7124C40.9058 22.7481 40.8757 22.8034 40.8757 22.8659V28.4714C40.8757 28.5787 40.9631 28.6664 41.0699 28.6664H43.0077C42.9008 28.6665 42.8134 28.5787 42.8134 28.4715Z" fill="#EF9614"/>
<path d="M49.806 22.6714H41.07C41.0109 22.6714 40.9583 22.6988 40.9226 22.7411L45.2841 26.112C45.3688 26.1775 45.5073 26.1775 45.5918 26.112L49.9533 22.7411C49.9176 22.6989 49.8651 22.6714 49.806 22.6714Z" fill="#FFD00D"/>
</g>
<defs>
<clipPath id="clip0">
<rect width="50" height="50" fill="white"/>
</clipPath>
</defs>
</svg>
