<svg width="50" height="50" viewBox="0 0 50 50" fill="none" xmlns="http://www.w3.org/2000/svg">
<circle cx="25" cy="25" r="21.9727" fill="#1BBDD4"/>
<path d="M18.203 12.3266L20.2573 11.4495L20.2447 8.7085L18.0746 7.78789C17.8959 7.2168 17.6548 6.65977 17.3514 6.12754L18.2307 3.91904L16.2761 1.98184L14.0637 2.86914C13.5278 2.56963 12.9674 2.33232 12.3933 2.15713L11.458 0L8.70635 0.00146484L7.83643 2.05234C7.18418 2.22148 6.55049 2.47168 5.95127 2.80313L3.90654 1.98828L1.96982 3.92754L2.79824 5.96025C2.46865 6.55889 2.2207 7.19141 2.0543 7.84199L0 8.71904L0.0125977 11.4601L2.18271 12.3807C2.36143 12.9518 2.60254 13.5088 2.90596 14.041L2.02666 16.2494L3.98125 18.1866L6.19365 17.2993C6.72949 17.5988 7.28994 17.8361 7.86406 18.0113L8.79932 20.1684L11.5509 20.1669L12.4208 18.116C13.073 17.947 13.7067 17.6967 14.306 17.3652L16.3507 18.1801L18.2874 16.2408L17.459 14.2082C17.7887 13.6097 18.0366 12.9771 18.203 12.3266ZM12.9362 12.7896C11.4727 14.2552 9.08867 14.2564 7.61162 12.7925C6.13447 11.3285 6.12354 8.95381 7.58721 7.48828C9.05088 6.02275 11.4348 6.02158 12.9118 7.48545C14.3889 8.94941 14.3999 11.3241 12.9362 12.7896Z" fill="#A6F5CF"/>
<path d="M18.2032 12.3266L20.2575 11.4495L20.2449 8.7085L18.0748 7.78789C17.896 7.2168 17.6549 6.65977 17.3515 6.12754L18.2308 3.91904L16.2762 1.98184L14.0638 2.86914C13.528 2.56963 12.9675 2.33232 12.3934 2.15713L11.4582 0L8.70649 0.00146484L8.15698 1.29697C11.846 2.62988 14.4827 6.16279 14.4827 10.3116C14.4827 14.3705 11.9591 17.8398 8.39536 19.2365L8.79946 20.1686L11.551 20.1671L12.4209 18.1162C13.0732 17.9472 13.7069 17.6969 14.3061 17.3654L16.3508 18.1803L18.2875 16.241L17.4591 14.2083C17.7888 13.6097 18.0368 12.9771 18.2032 12.3266Z" fill="#8AEDBD"/>
<path d="M43.999 34.4732H6.00098V13.8443C6.00098 12.7185 6.91367 11.8057 8.03965 11.8057H41.9604C43.0862 11.8057 43.999 12.7184 43.999 13.8443V34.4732Z" fill="#6967BF"/>
<path d="M41.9604 11.8057H37.9363C39.0622 11.8057 39.9749 12.7184 39.9749 13.8443V34.4732H43.9991V13.8443C43.9991 12.7184 43.0863 11.8057 41.9604 11.8057Z" fill="#5B59B2"/>
<path d="M46.7209 38.1937H3.27891C2.15303 38.1937 1.24023 37.281 1.24023 36.155V34.4731H48.7596V36.155C48.7596 37.281 47.8469 38.1937 46.7209 38.1937Z" fill="#7776D0"/>
<path d="M9.39185 15.2031H40.6078V34.473H9.39185V15.2031Z" fill="#D4D9FF"/>
<path d="M35.3983 30.5289H14.6016C13.3213 30.5289 12.2834 29.491 12.2834 28.2107V21.5071C12.2834 20.2269 13.3213 19.189 14.6016 19.189H35.3982C36.6785 19.189 37.7164 20.2269 37.7164 21.5071V28.2107C37.7164 29.491 36.6786 30.5289 35.3983 30.5289Z" fill="#FFF5B5"/>
<path d="M35.2126 27.61L34.1168 21.8758C34.0364 21.4811 33.6995 21.1896 33.2975 21.1669C32.895 21.1449 32.5277 21.3958 32.4034 21.7788C32.4005 21.7875 32.3979 21.7962 32.3954 21.8049L31.3613 25.4325L30.2888 21.7973C30.2862 21.7882 30.2834 21.7792 30.2802 21.7703C30.1518 21.3885 29.7827 21.1399 29.3795 21.1678C28.9776 21.195 28.6439 21.4902 28.5664 21.894L27.5334 27.6176C27.4593 28.0277 27.7318 28.4202 28.1419 28.4942C28.5513 28.5681 28.9444 28.2958 29.0184 27.8857L29.5852 24.7453L30.522 27.9206C30.5247 27.9296 30.5275 27.9385 30.5305 27.9474C30.6522 28.3096 30.9898 28.5521 31.3716 28.5521H31.3763C31.76 28.5502 32.0972 28.3036 32.2157 27.9386C32.2185 27.93 32.2211 27.9214 32.2236 27.9127L33.128 24.7401L33.7306 27.8933C33.8088 28.3028 34.2049 28.5709 34.6133 28.4928C35.0225 28.4146 35.2909 28.0194 35.2126 27.61Z" fill="#7776D0"/>
<path d="M20.8034 26.39C20.4841 26.1222 20.0082 26.1638 19.7404 26.4829C19.6895 26.5436 19.635 26.5999 19.578 26.6506C19.2856 26.911 18.9118 27.0431 18.4669 27.0431C17.2625 27.0431 16.2828 26.0632 16.2828 24.8588C16.2828 23.6544 17.2625 22.6745 18.4669 22.6745C18.9047 22.6745 19.3269 22.8033 19.6877 23.0471C20.0331 23.2803 20.5021 23.1895 20.7353 22.8442C20.9685 22.4989 20.8778 22.0299 20.5325 21.7967C19.9211 21.3838 19.207 21.1655 18.4669 21.1655C16.4305 21.1655 14.7737 22.8224 14.7737 24.8588C14.7737 26.8952 16.4305 28.552 18.4669 28.552C19.2815 28.552 20.0127 28.2842 20.5814 27.7776C20.6926 27.6787 20.7986 27.5694 20.8963 27.453C21.1641 27.1339 21.1226 26.6579 20.8034 26.39Z" fill="#7776D0"/>
<path d="M26.6407 23.4476C26.6407 22.1893 25.5782 21.1655 24.2721 21.1655H22.7103C22.71 21.1655 22.7096 21.1655 22.7093 21.1655C22.709 21.1655 22.7086 21.1655 22.7083 21.1655C22.2916 21.1655 21.9539 21.5033 21.9539 21.92V27.7976C21.9539 28.2143 22.2917 28.5521 22.7083 28.5521C23.125 28.5521 23.4628 28.2143 23.4628 27.7976V26.1863L25.3197 28.2961C25.4688 28.4655 25.6771 28.5521 25.8864 28.5521C26.0634 28.5521 26.2413 28.4902 26.3846 28.364C26.6974 28.0887 26.7278 27.6119 26.4525 27.2991L24.9796 25.6257C25.9412 25.3351 26.6407 24.4686 26.6407 23.4476ZM24.2721 24.2206C24.0844 24.2206 23.7693 24.2219 23.4714 24.2233C23.47 23.9332 23.4687 23.6284 23.4687 23.4477C23.4687 23.2937 23.4679 22.9789 23.4671 22.6747H24.2721C24.738 22.6747 25.1316 23.0287 25.1316 23.4477C25.1316 23.8666 24.738 24.2206 24.2721 24.2206Z" fill="#7776D0"/>
<path d="M50 37.4727C50 33.3257 46.5879 29.9755 42.4179 30.0764C38.542 30.1703 35.3646 33.2946 35.209 37.1684C35.1277 39.1946 35.8626 41.0476 37.1106 42.4286C37.5524 42.9175 37.7898 43.5558 37.7676 44.2147C37.7676 45.9662 39.1874 47.386 40.9389 47.386H44.2638C46.0152 47.386 47.4351 45.9662 47.4351 44.2147C47.4204 43.5709 47.6345 42.9309 48.0715 42.4514C49.2692 41.1372 50 39.3908 50 37.4727Z" fill="#FFD54D"/>
<path d="M49.9999 37.4727C49.9999 33.3257 46.5878 29.9755 42.4178 30.0764C41.7881 30.0917 41.1768 30.187 40.5939 30.3524C43.6999 31.2304 45.9758 34.0858 45.9758 37.4727C45.9758 39.3908 45.2449 41.1372 44.0475 42.4513C43.6105 42.9308 43.3965 43.5709 43.411 44.2147C43.411 45.848 42.1763 47.1929 40.5894 47.367C40.7042 47.3796 40.8208 47.3861 40.939 47.3861H44.2639C46.0153 47.3861 47.4352 45.9663 47.4352 44.2148C47.4205 43.571 47.6346 42.931 48.0716 42.4514C49.269 41.1372 49.9999 39.3908 49.9999 37.4727Z" fill="#FFC919"/>
<path d="M44.0184 50.0003H41.1845C40.4626 50.0003 39.8774 49.4151 39.8774 48.6933C39.8774 47.9714 40.4626 47.3862 41.1845 47.3862H44.0184C44.7402 47.3862 45.3254 47.9714 45.3254 48.6933C45.3254 49.4151 44.7402 50.0003 44.0184 50.0003Z" fill="#7776D0"/>
<path d="M43.356 47.3132V40.4753H44.8755C45.2923 40.4753 45.63 40.1375 45.63 39.7208C45.63 39.3041 45.2922 38.9663 44.8755 38.9663H40.3272C39.9104 38.9663 39.5728 39.3041 39.5728 39.7208C39.5728 40.1375 39.9105 40.4753 40.3272 40.4753H41.8469V47.3132H43.356Z" fill="white"/>
<path d="M33.7173 45.5937C33.7173 45.1762 34.0554 44.8392 34.4718 44.8392C34.8884 44.8392 35.2263 45.1762 35.2263 45.5937C35.2263 46.0102 34.8883 46.3481 34.4718 46.3481C34.0553 46.3481 33.7173 46.0102 33.7173 45.5937ZM29.6931 45.5937C29.6931 45.1762 30.0312 44.8392 30.4476 44.8392C30.8642 44.8392 31.2021 45.1762 31.2021 45.5937C31.2021 46.0102 30.8641 46.3481 30.4476 46.3481C30.0312 46.3481 29.6931 46.0102 29.6931 45.5937ZM25.669 45.5937C25.669 45.1762 26.0071 44.8392 26.4235 44.8392C26.8401 44.8392 27.178 45.1762 27.178 45.5937C27.178 46.0102 26.84 46.3481 26.4235 46.3481C26.0071 46.3481 25.669 46.0102 25.669 45.5937ZM21.6449 45.5937C21.6449 45.1762 21.983 44.8392 22.3994 44.8392C22.816 44.8392 23.1539 45.1762 23.1539 45.5937C23.1539 46.0102 22.8159 46.3481 22.3994 46.3481C21.983 46.3481 21.6449 46.0102 21.6449 45.5937ZM17.6208 45.5937C17.6208 45.1762 17.9588 44.8392 18.3752 44.8392C18.7918 44.8392 19.1297 45.1762 19.1297 45.5937C19.1297 46.0102 18.7917 46.3481 18.3752 46.3481C17.9587 46.3481 17.6208 46.0102 17.6208 45.5937ZM13.5965 45.5937C13.5965 45.1762 13.9346 44.8392 14.351 44.8392C14.7676 44.8392 15.1055 45.1762 15.1055 45.5937C15.1055 46.0102 14.7675 46.3481 14.351 46.3481C13.9346 46.3481 13.5965 46.0102 13.5965 45.5937ZM9.57241 45.5937C9.57241 45.1762 9.9105 44.8392 10.3269 44.8392C10.7435 44.8392 11.0814 45.1762 11.0814 45.5937C11.0814 46.0102 10.7434 46.3481 10.3269 46.3481C9.9105 46.3481 9.57241 46.0102 9.57241 45.5937ZM9.37427 41.7677C9.37427 41.3502 9.71235 41.0132 10.1288 41.0132C10.5453 41.0132 10.8833 41.3502 10.8833 41.7677C10.8833 42.1842 10.5452 42.5222 10.1288 42.5222C9.71235 42.5223 9.37427 42.1842 9.37427 41.7677Z" fill="#E8F3FF"/>
<path d="M41.999 8.17939C41.999 7.76289 42.336 7.4249 42.7535 7.4249C43.17 7.4249 43.508 7.76289 43.508 8.17939C43.508 8.59589 43.1699 8.93388 42.7535 8.93388C42.336 8.93388 41.999 8.59589 41.999 8.17939ZM41.7777 4.37656C41.7777 3.96006 42.1148 3.62207 42.5322 3.62207C42.9488 3.62207 43.2867 3.96006 43.2867 4.37656C43.2867 4.79307 42.9487 5.13105 42.5322 5.13105C42.1148 5.13105 41.7777 4.79297 41.7777 4.37656ZM37.7536 4.37656C37.7536 3.96006 38.0907 3.62207 38.5081 3.62207C38.9247 3.62207 39.2626 3.96006 39.2626 4.37656C39.2626 4.79307 38.9246 5.13105 38.5081 5.13105C38.0906 5.13105 37.7536 4.79297 37.7536 4.37656ZM33.7293 4.37656C33.7293 3.96006 34.0665 3.62207 34.4838 3.62207C34.9004 3.62207 35.2383 3.96006 35.2383 4.37656C35.2383 4.79307 34.9003 5.13105 34.4838 5.13105C34.0665 5.13105 33.7293 4.79297 33.7293 4.37656ZM29.7052 4.37656C29.7052 3.96006 30.0423 3.62207 30.4587 3.62207C30.8763 3.62207 31.2142 3.96006 31.2142 4.37656C31.2142 4.79307 30.8762 5.13105 30.4587 5.13105C30.0423 5.13105 29.7052 4.79297 29.7052 4.37656ZM25.6811 4.37656C25.6811 3.96006 26.0182 3.62207 26.4356 3.62207C26.8522 3.62207 27.1901 3.96006 27.1901 4.37656C27.1901 4.79307 26.8521 5.13105 26.4356 5.13105C26.0182 5.13105 25.6811 4.79297 25.6811 4.37656ZM21.657 4.37656C21.657 3.96006 21.9941 3.62207 22.4115 3.62207C22.8281 3.62207 23.166 3.96006 23.166 4.37656C23.166 4.79307 22.828 5.13105 22.4115 5.13105C21.994 5.13105 21.657 4.79297 21.657 4.37656Z" fill="#E8F3FF"/>
</svg>
