<svg width="50" height="50" viewBox="0 0 50 50" fill="none" xmlns="http://www.w3.org/2000/svg">
<g clip-path="url(#clip0)">
<circle cx="25" cy="24" r="22" fill="#913E98"/>
<path d="M40.2059 14.0141V29.1078C40.2059 29.4457 40.1737 29.7758 40.1121 30.0961C39.2606 30.2563 38.4842 30.6274 37.8377 31.1527C37.1864 31.682 36.6668 32.3676 36.3377 33.1527C36.1942 33.4945 36.0868 33.8559 36.0204 34.2309C35.6893 34.2973 35.3475 34.3324 34.9969 34.3324H16.4443L11.955 39.6156C11.8164 39.7797 11.6132 39.8744 11.3984 39.8744C11.1835 39.8744 10.9794 39.7797 10.8398 39.6156L6.35056 34.3324H5.20994C2.3369 34.3324 0 31.9887 0 29.1078V14.0141C0 11.1333 2.3369 8.78955 5.20994 8.78955H34.9969C37.869 8.78955 40.2059 11.1333 40.2059 14.0141Z" fill="#9090FB"/>
<path d="M33.0448 34.332C34.2928 34.332 35.4393 33.8896 36.3378 33.1523C36.1942 33.4941 36.0868 33.8555 36.0204 34.2305C35.6893 34.2969 35.3475 34.332 34.9969 34.332H33.0448Z" fill="#6C5FEA"/>
<path d="M40.2059 14.0137V29.1074C40.2059 29.4453 40.1737 29.7754 40.1122 30.0957C39.2606 30.2559 38.4842 30.627 37.8378 31.1523C38.1053 30.5244 38.2538 29.833 38.2538 29.1074V14.0137C38.2538 11.1328 35.9169 8.78906 33.0448 8.78906H34.9969C37.869 8.78906 40.2059 11.1328 40.2059 14.0137Z" fill="#6C5FEA"/>
<path d="M24.7668 46.8413C24.7668 48.5825 23.3527 49.9995 21.6147 49.9995H3.15205C1.41406 49.9995 0 48.5825 0 46.8413C0 45.1001 1.41406 43.6841 3.15205 43.6841H3.42627L5.07353 41.4087C5.21113 41.2183 5.43164 41.105 5.66592 41.105C5.90107 41.105 6.12168 41.2183 6.25928 41.4087L7.90654 43.6841H21.6146C23.3527 43.6841 24.7668 45.1001 24.7668 46.8413Z" fill="#FF6B81"/>
<path d="M50 3.1582C50 4.89941 48.5859 6.31543 46.8479 6.31543H44.8962L43.2489 8.59082C43.1113 8.78125 42.8908 8.89453 42.6565 8.89453C42.4214 8.89453 42.2008 8.78125 42.0632 8.59082L40.4169 6.31543H28.3853C26.6473 6.31543 25.2333 4.89941 25.2333 3.1582C25.2333 1.41699 26.6473 0 28.3853 0H46.8479C48.5859 0 50 1.41699 50 3.1582Z" fill="#FBDF63"/>
<path d="M49.9998 3.1582C49.9998 4.89941 48.5857 6.31543 46.8478 6.31543H44.896C46.634 6.31543 48.048 4.89941 48.048 3.1582C48.048 1.41699 46.634 0 44.896 0H46.8478C48.5857 0 49.9998 1.41699 49.9998 3.1582Z" fill="#FFA402"/>
<path d="M24.7667 46.8418C24.7667 48.583 23.3526 50 21.6146 50H19.6628C21.4008 50 22.8149 48.583 22.8149 46.8418C22.8149 45.1006 21.4008 43.6846 19.6628 43.6846H21.6146C23.3526 43.6846 24.7667 45.1006 24.7667 46.8418Z" fill="#ED2061"/>
<path d="M14.6342 18.4028C15.0387 18.4028 15.3666 18.075 15.3666 17.6704C15.3666 17.2658 15.0387 16.938 14.6342 16.938H10.728C10.3235 16.938 9.99561 17.2658 9.99561 17.6704V21.5767C9.99561 21.9813 10.3235 22.3091 10.728 22.3091H13.9018V24.7505H10.728C10.3235 24.7505 9.99561 25.0783 9.99561 25.4829C9.99561 25.8875 10.3235 26.2153 10.728 26.2153H14.6342C15.0387 26.2153 15.3666 25.8875 15.3666 25.4829V21.5767C15.3666 21.1721 15.0387 20.8442 14.6342 20.8442H11.4605V18.4028H14.6342Z" fill="white"/>
<path d="M21.9583 18.4028C22.3628 18.4028 22.6907 18.075 22.6907 17.6704C22.6907 17.2658 22.3628 16.938 21.9583 16.938H18.0521C17.6476 16.938 17.3197 17.2658 17.3197 17.6704V25.4829C17.3197 25.8875 17.6476 26.2153 18.0521 26.2153H21.9583C22.3628 26.2153 22.6907 25.8875 22.6907 25.4829C22.6907 25.0783 22.3628 24.7505 21.9583 24.7505H18.7845V22.3091H21.9583C22.3628 22.3091 22.6907 21.9813 22.6907 21.5767C22.6907 21.1721 22.3628 20.8442 21.9583 20.8442H18.7845V18.4028H21.9583Z" fill="white"/>
<path d="M29.2822 16.938H25.3761C24.9716 16.938 24.6437 17.2658 24.6437 17.6704V25.4829C24.6437 25.8875 24.9716 26.2153 25.3761 26.2153H29.2822C29.6867 26.2153 30.0147 25.8875 30.0147 25.4829V17.6704C30.0147 17.2658 29.6867 16.938 29.2822 16.938ZM28.5498 24.7505H26.1085V18.4028H28.5498V24.7505Z" fill="white"/>
<path d="M49.9991 33.6666C49.9991 33.3072 49.7365 33.0006 49.381 32.9439L48.3702 32.7838L47.8888 31.6198L48.4894 30.7907C48.7003 30.4987 48.6691 30.0974 48.4142 29.8426L46.3458 27.7743C46.0909 27.5194 45.6886 27.4882 45.3966 27.7001L44.5695 28.3017L43.4064 27.8202L43.2452 26.8086C43.1886 26.4531 42.882 26.1914 42.5226 26.1914H41.2794L39.5978 26.1924C39.2374 26.1934 38.9308 26.4551 38.8741 26.8105L38.714 27.8222L37.5519 28.3046L36.7238 27.703C36.4318 27.4921 36.0304 27.5233 35.7755 27.7782L33.7081 29.8484C33.4532 30.1033 33.422 30.5047 33.6339 30.7966L34.2345 31.6247L33.7531 32.7896L32.7433 32.9498C32.3878 33.0064 32.1261 33.3131 32.1261 33.6734L32.1271 36.6C32.1271 36.9594 32.3898 37.266 32.7452 37.3227L33.756 37.4828L34.2374 38.6468L33.6368 39.4758C33.4259 39.7678 33.4572 40.1691 33.712 40.4239L35.7804 42.4922C36.0353 42.7471 36.4376 42.7783 36.7286 42.5664L37.5558 41.9648L38.7199 42.4473L38.881 43.4579C38.9376 43.8134 39.2443 44.0751 39.6036 44.0751H39.6046L41.0685 44.0741H42.5284C42.8888 44.0731 43.1954 43.8114 43.2521 43.456L43.4122 42.4443L44.5743 41.9619L45.4025 42.5635C45.6945 42.7744 46.0968 42.7432 46.3507 42.4883L48.4181 40.4181C48.673 40.1632 48.7042 39.7618 48.4923 39.4699L47.8917 38.6419L48.3732 37.4779L49.3829 37.3168C49.7384 37.2602 50.0001 36.9535 50.0001 36.5932L49.9991 33.6666ZM41.0626 39.0394C38.9054 39.0394 37.1564 37.2904 37.1564 35.1333C37.1564 32.9762 38.9054 31.2272 41.0626 31.2272C43.2208 31.2272 44.9689 32.9762 44.9689 35.1333C44.9689 37.2904 43.2208 39.0394 41.0626 39.0394Z" fill="#56788B"/>
<path d="M50.0001 36.5931C50.0001 36.9534 49.7384 37.2601 49.3829 37.3167L48.3732 37.4778L47.8917 38.6418L48.4923 39.4699C48.7042 39.7619 48.673 40.1633 48.4181 40.4181L46.3507 42.4883C46.0968 42.7432 45.6945 42.7744 45.4025 42.5635L44.5743 41.9619L43.4122 42.4443L43.2521 43.456C43.1954 43.8114 42.8888 44.0731 42.5284 44.0741H41.0685L41.715 41.0343L44.8361 39.7385L45.7062 40.3703L46.2999 39.7746L45.6691 38.9055L46.9855 35.7211L48.047 35.5521L48.046 34.7095L46.9845 34.5415L45.6661 31.3581L46.297 30.488L45.7023 29.8933L44.8331 30.5241L41.5802 29.1775L41.2794 26.1914H42.5226C42.882 26.1914 43.1886 26.4531 43.2452 26.8086L43.4064 27.8202L44.5695 28.3017L45.3966 27.7001C45.6886 27.4882 46.0909 27.5194 46.3458 27.7743L48.4142 29.8426C48.6691 30.0975 48.7003 30.4988 48.4894 30.7907L47.8888 31.6198L48.3702 32.7838L49.381 32.9439C49.7365 33.0006 49.9991 33.3072 49.9991 33.6666L50.0001 36.5931Z" fill="#415E6F"/>
</g>
<defs>
<clipPath id="clip0">
<rect width="50" height="50" fill="white"/>
</clipPath>
</defs>
</svg>
