<svg width="50" height="50" viewBox="0 0 50 50" fill="none" xmlns="http://www.w3.org/2000/svg">
<path d="M25 50C38.8071 50 50 38.8071 50 25C50 11.1929 38.8071 0 25 0C11.1929 0 0 11.1929 0 25C0 38.8071 11.1929 50 25 50Z" fill="#FEE572"/>
<path d="M49.9982 25.1362L37.7445 12.8825C34.5408 9.51397 30.0157 7.41406 25 7.41406C15.2875 7.41406 7.41406 15.2876 7.41406 25C7.41406 30.0157 9.51397 34.5408 12.8824 37.7445L25.1361 49.9982C38.8351 49.925 49.925 38.8351 49.9982 25.1362Z" fill="#FFC100"/>
<path d="M25 42.5859C34.7124 42.5859 42.5859 34.7124 42.5859 25C42.5859 15.2876 34.7124 7.41406 25 7.41406C15.2876 7.41406 7.41406 15.2876 7.41406 25C7.41406 34.7124 15.2876 42.5859 25 42.5859Z" fill="#006EF5"/>
<path d="M42.5859 25C42.5859 34.7129 34.7129 42.5859 25 42.5859V7.41406C34.7129 7.41406 42.5859 15.2871 42.5859 25Z" fill="#0043A3"/>
<path d="M13.8569 24.8016C13.8569 23.3695 14.1157 21.9539 14.6337 20.5545C15.1511 19.1555 15.9061 17.9053 16.8977 16.8032C17.8893 15.7017 19.1007 14.8093 20.5333 14.1261C21.9652 13.4434 23.5956 13.1016 25.4248 13.1016C27.584 13.1016 29.4514 13.5756 31.0269 14.5227C32.6019 15.4703 33.7753 16.7041 34.5469 18.2243L31.0434 20.6371C30.7346 19.9761 30.3602 19.4199 29.9197 18.9681C29.4786 18.5167 29.0051 18.1583 28.4985 17.8939C27.9914 17.6295 27.4626 17.4368 26.9121 17.3155C26.361 17.1946 25.8214 17.1337 25.2926 17.1337C24.1467 17.1337 23.1494 17.365 22.3015 17.8277C21.4529 18.2904 20.748 18.891 20.1861 19.629C19.6243 20.3674 19.1998 21.2046 18.9138 22.1408C18.6271 23.0776 18.4841 24.0082 18.4841 24.9336C18.4841 25.9695 18.6493 26.9663 18.9798 27.9248C19.3103 28.8833 19.7782 29.7261 20.3845 30.4532C20.9901 31.1804 21.7173 31.7643 22.5658 32.2049C23.4139 32.646 24.3449 32.8659 25.3586 32.8659C25.8874 32.8659 26.438 32.7998 27.0112 32.6676C27.584 32.5353 28.1293 32.3263 28.6473 32.0396C29.1647 31.7535 29.644 31.3843 30.085 30.9324C30.5255 30.4809 30.8782 29.9357 31.1426 29.2964L34.8773 31.4446C34.5024 32.3262 33.9684 33.1029 33.2744 33.7748C32.5803 34.4472 31.7979 35.0142 30.9278 35.4768C30.0571 35.9395 29.1265 36.2924 28.135 36.5346C27.1434 36.7767 26.1736 36.898 25.2266 36.898C23.5519 36.898 22.0206 36.5459 20.6324 35.8404C19.2442 35.1354 18.0487 34.2157 17.0464 33.0807C16.0435 31.9461 15.2616 30.6571 14.6998 29.2138C14.1379 27.771 13.8569 26.3002 13.8569 24.8016Z" fill="white"/>
<path d="M31.1426 29.2969C30.8779 29.9355 30.5254 30.4814 30.085 30.9326C29.6436 31.3848 29.165 31.7539 28.6475 32.04C28.1289 32.3262 27.584 32.5352 27.0117 32.668C26.4385 32.7998 25.8877 32.8662 25.3584 32.8662C25.2373 32.8662 25.1182 32.8633 25 32.8564V36.8965C25.0752 36.8975 25.1504 36.8984 25.2266 36.8984C26.1738 36.8984 27.1436 36.7773 28.1348 36.5352C29.127 36.293 30.0566 35.9395 30.9277 35.4775C31.7979 35.0146 32.5801 34.4473 33.2744 33.7754C33.9688 33.1035 34.502 32.3262 34.877 31.4453L31.1426 29.2969ZM26.9121 17.3154C27.4629 17.4365 27.9912 17.6299 28.498 17.8945C29.0049 18.1582 29.4785 18.5166 29.9199 18.9678C30.3604 19.4199 30.7344 19.9766 31.043 20.6377L34.5469 18.2246C33.7754 16.7041 32.6016 15.4707 31.0273 14.5225C29.4512 13.5762 27.584 13.1016 25.4248 13.1016C25.2822 13.1016 25.1406 13.1035 25 13.1074V17.1396C25.0967 17.1357 25.1943 17.1338 25.293 17.1338C25.8213 17.1338 26.3613 17.1943 26.9121 17.3154Z" fill="#FFF4AA"/>
</svg>
