<svg width="50" height="50" viewBox="0 0 50 50" fill="none" xmlns="http://www.w3.org/2000/svg">
<g clip-path="url(#clip0)">
<path d="M25 48.9258C38.2138 48.9258 48.9258 38.2138 48.9258 25C48.9258 11.7862 38.2138 1.07422 25 1.07422C11.7862 1.07422 1.07422 11.7862 1.07422 25C1.07422 38.2138 11.7862 48.9258 25 48.9258Z" fill="#F24976"/>
<path d="M29.3721 37.4736H20.6289V41.8125H29.3721V37.4736Z" fill="#445EA0"/>
<path d="M22.5666 37.4736H20.6289V41.8125H22.5666V37.4736Z" fill="#2E4C89"/>
<path d="M33.7009 44.3157C33.7009 44.5535 33.5063 44.7483 33.2684 44.7483H16.7314C16.4936 44.7483 16.2988 44.5535 16.2988 44.3157V42.1475C16.2988 41.9097 16.4936 41.7148 16.7314 41.7148H33.2683C33.5062 41.7148 33.7008 41.9097 33.7008 42.1475V44.3157H33.7009Z" fill="#293D7C"/>
<path d="M18.2368 44.3157V42.1475C18.2368 41.9097 18.4315 41.7148 18.6694 41.7148H16.7317C16.4938 41.7148 16.2991 41.9097 16.2991 42.1475V44.3157C16.2991 44.5535 16.4938 44.7483 16.7317 44.7483H18.6694C18.4314 44.7483 18.2368 44.5534 18.2368 44.3157Z" fill="#1A2B63"/>
<path d="M49.4334 4.18604H0.566699C0.25498 4.18604 0 4.44111 0 4.75293V37.0043C0 37.3159 0.25498 37.571 0.566699 37.571H34.2059V35.8771C34.2059 35.7046 34.3461 35.5644 34.5187 35.5644H35.8356C36.1046 35.5644 36.3845 35.3652 36.4729 35.1111L36.7216 34.5136C36.8386 34.2775 36.7822 33.9394 36.5907 33.7498L35.6612 32.8276C35.6024 32.7691 35.57 32.6911 35.57 32.6078C35.57 32.5245 35.6024 32.4465 35.6613 32.388L37.347 30.7155C37.4061 30.6568 37.4851 30.6245 37.5695 30.6245C37.6539 30.6245 37.733 30.6568 37.7921 30.7155L38.7215 31.6377C38.8405 31.7559 39.0244 31.8266 39.2132 31.8266C39.3147 31.8266 39.4116 31.8055 39.4934 31.7657L40.0989 31.5176C40.3483 31.4325 40.548 31.1533 40.548 30.8841V29.5834C40.548 29.4108 40.6882 29.2706 40.8606 29.2706H43.2473C43.4197 29.2706 43.56 29.4109 43.56 29.5834V30.8841C43.56 31.1534 43.7596 31.4325 44.0144 31.5197L44.6205 31.7684C44.6964 31.8056 44.7934 31.8266 44.8948 31.8266C45.0837 31.8266 45.2675 31.756 45.3866 31.6378L46.3161 30.7156C46.3752 30.6569 46.4542 30.6246 46.5386 30.6246C46.6229 30.6246 46.702 30.6569 46.761 30.7156L48.4464 32.3882C48.5053 32.4467 48.5377 32.5247 48.5377 32.608C48.5377 32.6912 48.5052 32.7693 48.4464 32.8277L47.5172 33.75C47.3257 33.9395 47.2693 34.2776 47.3889 34.5195L47.6371 35.1166C47.7232 35.3653 48.003 35.5644 48.2722 35.5644H49.5893C49.7618 35.5644 49.9021 35.7047 49.9021 35.8772V37.3214C49.9637 37.2308 49.9997 37.1216 49.9997 37.0044V4.75293C50 4.44111 49.745 4.18604 49.4334 4.18604Z" fill="#293D7C"/>
<path d="M2.48755 31.9046C2.48755 32.0917 2.64058 32.2446 2.82759 32.2446H35.8062L37.347 30.7158C37.4061 30.6571 37.4851 30.6248 37.5696 30.6248C37.654 30.6248 37.7331 30.6571 37.7921 30.7158L38.7215 31.638C38.8406 31.7562 39.0245 31.8269 39.2132 31.8269C39.3148 31.8269 39.4117 31.8058 39.4934 31.766L40.099 31.5179C40.3484 31.4328 40.548 31.1536 40.548 30.8844V29.5837C40.548 29.4111 40.6882 29.2709 40.8607 29.2709H43.2473C43.4198 29.2709 43.56 29.4112 43.56 29.5837V30.8844C43.56 31.1537 43.7596 31.4328 44.0144 31.52L44.6206 31.7687C44.6964 31.8059 44.7934 31.8269 44.8949 31.8269C45.0837 31.8269 45.2675 31.7563 45.3867 31.6381L46.3162 30.7159C46.3752 30.6572 46.4542 30.6249 46.5386 30.6249C46.623 30.6249 46.702 30.6572 46.7611 30.7159L47.5123 31.4614V9.75732H2.48755V31.9046Z" fill="white"/>
<path d="M4.42524 31.9046V9.75732H2.48755V31.9046C2.48755 32.0917 2.64058 32.2446 2.82759 32.2446H4.76528C4.57827 32.2447 4.42524 32.0917 4.42524 31.9046Z" fill="#D9EAFC"/>
<path d="M24.3765 24.7587C23.4851 23.8673 22.181 23.6351 21.0736 24.0604L17.3374 20.3242L16.5863 21.0753C16.5655 21.0961 16.5551 21.1252 16.5582 21.1545C16.5809 21.3747 16.5207 21.592 16.3884 21.7663C16.3638 21.7987 16.3619 21.843 16.3835 21.8774C16.5917 22.2079 16.5694 22.6099 16.3333 22.8671L19.3001 25.8339C18.8746 26.9412 19.1068 28.2455 19.9983 29.137C20.77 29.9087 21.862 30.2149 22.9193 29.9562C22.9476 29.9493 22.973 29.9347 22.9928 29.9147C23.0115 29.8961 23.0256 29.8725 23.0329 29.8462C23.0482 29.7916 23.0329 29.7331 22.9928 29.6932L21.087 27.7871L23.0265 25.8475L24.9325 27.7536C24.9725 27.7935 25.031 27.809 25.0855 27.7936C25.112 27.7862 25.1355 27.7723 25.1542 27.7536C25.1741 27.7336 25.1886 27.7083 25.1956 27.6798C25.4545 26.6224 25.1483 25.5305 24.3765 24.7587Z" fill="#FF9518"/>
<path d="M14.5438 20.3766C14.7111 20.3766 14.8773 20.4257 15.0247 20.5184C15.0406 20.5285 15.0587 20.5334 15.0767 20.5334C15.0975 20.5334 15.1183 20.5267 15.1358 20.5135C15.286 20.3995 15.4663 20.3393 15.6571 20.3393C15.6873 20.3393 15.7176 20.3409 15.7476 20.344C15.751 20.3443 15.7544 20.3445 15.7577 20.3445C15.7835 20.3445 15.8084 20.3342 15.8267 20.3159L16.5779 19.5647L12.8417 15.8286C13.2671 14.7212 13.0348 13.417 12.1434 12.5257C11.3717 11.7539 10.2798 11.4475 9.22244 11.7063C9.19402 11.7134 9.16883 11.7279 9.14891 11.7477C9.13016 11.7664 9.11609 11.7899 9.10867 11.8165C9.09344 11.8711 9.10877 11.9295 9.14891 11.9695L11.0548 13.8754L9.11512 15.8151L7.20916 13.9091C7.16922 13.869 7.11062 13.8538 7.05613 13.869C7.02976 13.8762 7.00623 13.8903 6.98758 13.9091C6.96756 13.929 6.95301 13.9543 6.94607 13.9827C6.68728 15.0399 6.99363 16.132 7.76521 16.9036C8.65672 17.7951 9.96082 18.0273 11.0683 17.6019L14.0352 20.5688C14.17 20.4451 14.3491 20.3766 14.5438 20.3766Z" fill="#FF9518"/>
<path d="M25 36.4271C25.8449 36.4271 26.5299 35.7422 26.5299 34.8972C26.5299 34.0522 25.8449 33.3672 25 33.3672C24.155 33.3672 23.47 34.0522 23.47 34.8972C23.47 35.7422 24.155 36.4271 25 36.4271Z" fill="#445EA0"/>
<path d="M47.1725 7.07617H2.82759C2.64058 7.07617 2.48755 7.2291 2.48755 7.41621V9.85469H47.5124V7.41621C47.5124 7.2291 47.3594 7.07617 47.1725 7.07617Z" fill="#5DC1D8"/>
<path d="M4.76528 7.07617H2.82759C2.64058 7.07617 2.48755 7.2291 2.48755 7.41621V9.85469H4.42524V7.41621C4.42524 7.2291 4.57827 7.07617 4.76528 7.07617Z" fill="#28A5A5"/>
<path d="M40.4504 44.5334C40.4504 44.7591 40.6351 44.9438 40.8608 44.9438H43.2474C43.4731 44.9438 43.6578 44.759 43.6578 44.5334V43.2328C43.6578 43.0071 43.8325 42.7626 44.0461 42.6895L44.6579 42.4389C44.8609 42.3399 45.158 42.3893 45.3181 42.5483L46.2476 43.4707C46.4078 43.6295 46.6699 43.6295 46.8301 43.4707L48.5155 41.7979C48.6758 41.6389 48.6758 41.3787 48.5155 41.2197L47.5863 40.2975C47.4258 40.1385 47.3767 39.8428 47.4768 39.6403L47.7276 39.0374C47.8016 38.8242 48.0469 38.6497 48.2725 38.6497H49.5896C49.8155 38.6497 50 38.4651 50 38.2395V35.8772C50 35.6516 49.8154 35.4668 49.5896 35.4668H48.2725C48.0468 35.4668 47.8016 35.2924 47.7276 35.0791L47.4768 34.4762C47.3768 34.2738 47.4258 33.9781 47.5863 33.8192L48.5155 32.897C48.6758 32.738 48.6758 32.4778 48.5155 32.3187L46.8301 30.6462C46.6699 30.4871 46.4078 30.4871 46.2476 30.6462L45.3181 31.5684C45.1579 31.7272 44.8607 31.7767 44.6578 31.6778L44.0461 31.4272C43.8325 31.3542 43.6578 31.1097 43.6578 30.884V29.5833C43.6578 29.3575 43.473 29.1729 43.2474 29.1729H40.8608C40.635 29.1729 40.4504 29.3576 40.4504 29.5833V30.884C40.4504 31.1097 40.2757 31.3541 40.0621 31.4272L39.4506 31.6778C39.2479 31.7767 38.9505 31.7274 38.7903 31.5684L37.8609 30.6462C37.7005 30.4871 37.4384 30.4871 37.2782 30.6462L35.5924 32.3187C35.4323 32.4778 35.4323 32.7378 35.5924 32.897L36.5219 33.8192C36.6823 33.9781 36.7314 34.2737 36.6314 34.4762L36.3806 35.0791C36.3064 35.2924 36.0613 35.4668 35.8356 35.4668H34.5186C34.2927 35.4668 34.1082 35.6516 34.1082 35.8772V38.2395C34.1082 38.4652 34.2928 38.6497 34.5186 38.6497H35.8356C36.0614 38.6497 36.3064 38.8242 36.3806 39.0374L36.6315 39.6405C36.7315 39.8427 36.6825 40.1385 36.5222 40.2975L35.5924 41.2197C35.4323 41.3787 35.4323 41.6389 35.5924 41.7979L37.2782 43.4707C37.4384 43.6295 37.7005 43.6295 37.8609 43.4705L38.7901 42.5483C38.9503 42.3893 39.2475 42.3399 39.4504 42.4388L40.0621 42.6895C40.2757 42.7625 40.4504 43.007 40.4504 43.2328V44.5334Z" fill="#FF9518"/>
<path d="M42.0542 40.8533C39.9421 40.8533 38.23 39.1544 38.23 37.0583C38.2301 34.962 39.9421 33.2632 42.0542 33.2632C44.1663 33.2632 45.8784 34.9621 45.8784 37.0581C45.8784 39.1543 44.1663 40.8533 42.0542 40.8533Z" fill="#FFAF10"/>
<path d="M39.3935 37.0583C39.3935 35.1583 40.7998 33.5848 42.6358 33.3066C42.4463 33.2779 42.252 33.2632 42.0542 33.2632C39.9421 33.2632 38.2301 34.9621 38.23 37.0583C38.23 39.1544 39.9421 40.8533 42.0542 40.8533C42.252 40.8533 42.4463 40.8385 42.6358 40.8098C40.7998 40.5316 39.3935 38.9581 39.3935 37.0583Z" fill="#FF9518"/>
<path d="M42.0541 41.4695C39.606 41.4695 37.6143 39.4907 37.6143 37.0588C37.6144 34.6267 39.6062 32.6479 42.0541 32.6479C44.5022 32.6479 46.494 34.6267 46.494 37.0586C46.494 39.4907 44.5022 41.4695 42.0541 41.4695ZM42.0541 33.8791C40.2851 33.8791 38.8457 35.3054 38.8456 37.0588C38.8456 38.8119 40.285 40.2385 42.0541 40.2385C43.8233 40.2385 45.2626 38.812 45.2628 37.0586C45.2628 35.3054 43.8233 33.8791 42.0541 33.8791Z" fill="#DB722C"/>
<path d="M42.0541 38.6631C41.1612 38.6631 40.4375 37.9446 40.4375 37.0587C40.4375 36.1724 41.1612 35.4541 42.0541 35.4541C42.9473 35.4541 43.6707 36.1723 43.6707 37.0585C43.6707 37.9446 42.9472 38.6631 42.0541 38.6631Z" fill="#FFAF10"/>
<path d="M41.6008 37.0586C41.6008 36.3763 42.0306 35.7949 42.6357 35.563C42.4551 35.4937 42.2594 35.4541 42.0541 35.4541C41.1612 35.4541 40.4375 36.1723 40.4375 37.0587C40.4375 37.9445 41.1612 38.6631 42.0541 38.6631C42.2595 38.6631 42.4551 38.6234 42.6357 38.5542C42.0307 38.3222 41.6008 37.7409 41.6008 37.0586Z" fill="#FF9518"/>
<path d="M42.054 39.2786C40.8232 39.2786 39.8218 38.2828 39.8218 37.0588C39.8218 35.8345 40.8232 34.8389 42.054 34.8389C43.285 34.8389 44.2862 35.8345 44.2862 37.0586C44.2859 38.2828 43.2848 39.2786 42.054 39.2786ZM42.054 36.0698C41.5021 36.0698 41.0531 36.5135 41.0531 37.0587C41.0531 37.6036 41.5021 38.0474 42.054 38.0474C42.606 38.0474 43.0549 37.6036 43.0549 37.0585C43.0549 36.5136 42.606 36.0698 42.054 36.0698Z" fill="#DB722C"/>
<path d="M13.7149 22.1299L14.7724 23.1874C14.8602 23.2752 14.9252 23.3773 14.968 23.4862L15.4262 23.028C15.3184 22.9812 15.2178 22.9136 15.1321 22.8277L14.0746 21.7703C13.9868 21.6824 13.9199 21.5822 13.8738 21.4766L13.4158 21.9346C13.5267 21.978 13.6285 22.0436 13.7149 22.1299Z" fill="#445EA0"/>
<path d="M24.6811 12.7698L24.1326 12.2212C24.0715 12.1603 23.9583 12.1414 23.8808 12.1791L22.6585 12.7755C22.581 12.8133 22.4867 12.9077 22.449 12.9851L21.9055 14.0991L15.7575 20.2471C15.4864 20.219 15.2074 20.3046 14.9978 20.5026C15.068 20.5436 15.1341 20.5932 15.1928 20.6519L16.2503 21.7093C16.3101 21.7691 16.3597 21.8348 16.4002 21.9039C16.5979 21.6943 16.6834 21.4156 16.6553 21.1448L22.8031 14.997L23.9173 14.4535C23.9949 14.4157 24.0892 14.3213 24.1269 14.2439L24.7233 13.0215C24.7611 12.9441 24.7419 12.8308 24.6811 12.7698Z" fill="#445EA0"/>
<path d="M16.3818 22.9588C16.0363 23.3043 15.443 23.2762 15.0632 22.8964L14.0057 21.8389C13.6259 21.4591 13.5978 20.8657 13.9433 20.5202C14.2888 20.1747 14.8821 20.2027 15.2619 20.5826L16.3194 21.64C16.6992 22.0198 16.7273 22.6132 16.3818 22.9588Z" fill="#293D7C"/>
<path d="M42.0344 14.4517H29.1562C28.7518 14.4517 28.4238 14.1238 28.4238 13.7192C28.4238 13.3146 28.7518 12.9868 29.1562 12.9868H42.0343C42.4389 12.9868 42.7667 13.3146 42.7667 13.7192C42.7668 14.1238 42.4389 14.4517 42.0344 14.4517Z" fill="#69CDFF"/>
<path d="M42.0344 16.8433H29.1562C28.7518 16.8433 28.4238 16.5154 28.4238 16.1108C28.4238 15.7062 28.7518 15.3784 29.1562 15.3784H42.0343C42.4389 15.3784 42.7667 15.7062 42.7667 16.1108C42.7668 16.5153 42.4389 16.8433 42.0344 16.8433Z" fill="#69CDFF"/>
<path d="M42.0344 19.2344H29.1562C28.7518 19.2344 28.4238 18.9065 28.4238 18.502C28.4238 18.0974 28.7518 17.7695 29.1562 17.7695H42.0343C42.4389 17.7695 42.7667 18.0974 42.7667 18.502C42.7668 18.9065 42.4389 19.2344 42.0344 19.2344Z" fill="#69CDFF"/>
<path d="M42.0344 23.2402H29.1562C28.7518 23.2402 28.4238 22.9124 28.4238 22.5078C28.4238 22.1032 28.7518 21.7754 29.1562 21.7754H42.0343C42.4389 21.7754 42.7667 22.1032 42.7667 22.5078C42.7667 22.9124 42.4389 23.2402 42.0344 23.2402Z" fill="#37C47A"/>
<path d="M42.0344 25.6318H29.1562C28.7518 25.6318 28.4238 25.304 28.4238 24.8994C28.4238 24.4948 28.7518 24.167 29.1562 24.167H42.0343C42.4389 24.167 42.7667 24.4948 42.7667 24.8994C42.7668 25.3039 42.4389 25.6318 42.0344 25.6318Z" fill="#37C47A"/>
<path d="M35.5552 28.0229H29.1562C28.7518 28.0229 28.4238 27.6951 28.4238 27.2905C28.4238 26.8859 28.7518 26.5581 29.1562 26.5581H35.5552C35.9598 26.5581 36.2876 26.8859 36.2876 27.2905C36.2876 27.6951 35.9598 28.0229 35.5552 28.0229Z" fill="#37C47A"/>
<path d="M10.3109 29.0299C9.93113 29.4098 9.30964 29.4098 8.92976 29.0299L7.87224 27.9725C7.49246 27.5926 7.49246 26.9712 7.87224 26.5914L12.4029 22.0608C12.7827 21.6809 13.4042 21.6809 13.784 22.0608L14.8415 23.1183C15.2213 23.4981 15.2213 24.1196 14.8415 24.4995L10.3109 29.0299Z" fill="#293D7C"/>
<path d="M9.51707 27.9721C9.13728 27.5922 9.13728 26.9709 9.51707 26.591L13.9158 22.1922L13.784 22.0603C13.4042 21.6804 12.7827 21.6804 12.4029 22.0603L7.87224 26.5909C7.49246 26.9708 7.49246 27.5921 7.87224 27.972L8.92976 29.0295C9.30955 29.4093 9.93103 29.4093 10.3109 29.0295L10.4427 28.8976L9.51707 27.9721Z" fill="#1A2B63"/>
<path d="M14.578 21.155C14.9235 20.8095 15.5169 20.8375 15.8966 21.2174L15.2619 20.5826C14.8821 20.2027 14.2886 20.1747 13.9432 20.5202C13.5978 20.8657 13.6258 21.4591 14.0056 21.8389L14.6401 22.4733C14.2606 22.0935 14.2327 21.5004 14.578 21.155Z" fill="#1A2B63"/>
</g>
<defs>
<clipPath id="clip0">
<rect width="50" height="50" fill="white"/>
</clipPath>
</defs>
</svg>
