<svg width="50" height="50" viewBox="0 0 50 50" fill="none" xmlns="http://www.w3.org/2000/svg">
<path d="M25 48.9258C38.2138 48.9258 48.9258 38.2138 48.9258 25C48.9258 11.7862 38.2138 1.07422 25 1.07422C11.7862 1.07422 1.07422 11.7862 1.07422 25C1.07422 38.2138 11.7862 48.9258 25 48.9258Z" fill="#FFAF10"/>
<path d="M27.6006 37.0928H17.0537V41.6016H27.6006V37.0928Z" fill="#445EA0"/>
<path d="M18.9914 37.0928H17.0537V41.6016H18.9914V37.0928Z" fill="#2E4C89"/>
<path d="M32.5326 43.9453C32.5326 44.2139 32.3129 44.4336 32.0444 44.4336H12.6105C12.3419 44.4336 12.1222 44.2139 12.1222 43.9453V41.9922C12.1222 41.7236 12.3419 41.5039 12.6105 41.5039H32.0444C32.3129 41.5039 32.5326 41.7236 32.5326 41.9922V43.9453Z" fill="#293D7C"/>
<path d="M14.0599 43.9453V41.9922C14.0599 41.7236 14.2796 41.5039 14.5482 41.5039H12.6105C12.3419 41.5039 12.1222 41.7236 12.1222 41.9922V43.9453C12.1222 44.2139 12.3419 44.4336 12.6105 44.4336H14.5482C14.2796 44.4336 14.0599 44.2139 14.0599 43.9453Z" fill="#1A2B63"/>
<path d="M0 36.2144C0 36.7516 0.439453 37.191 0.976562 37.191H30.2905V30.6528H0V36.2144Z" fill="#293D7C"/>
<path d="M1.9377 36.2144V30.6528H0V36.2144C0 36.7516 0.439453 37.191 0.976562 37.191H2.91426C2.37715 37.191 1.9377 36.7516 1.9377 36.2144Z" fill="#1A2B63"/>
<path d="M30.2905 28.0258C30.2905 27.8104 30.4657 27.6352 30.6812 27.6352H44.6548V6.49043C44.6548 5.9 44.1718 5.41699 43.5814 5.41699H1.07344C0.483008 5.41699 0 5.9 0 6.49043V30.75H30.2905V28.0258Z" fill="#445EA0"/>
<path d="M30.2905 28.0259C30.2905 27.8104 30.4657 27.6353 30.6811 27.6353H42.508V8.05225C42.508 7.78369 42.2883 7.56396 42.0197 7.56396H2.63513C2.36658 7.56396 2.14685 7.78369 2.14685 8.05225V28.1148C2.14685 28.3834 2.36658 28.6031 2.63513 28.6031H30.2904L30.2905 28.0259Z" fill="#EEF6FF"/>
<path d="M22.3271 35.3635C23.0774 35.3635 23.6856 34.7553 23.6856 34.005C23.6856 33.2547 23.0774 32.6465 22.3271 32.6465C21.5768 32.6465 20.9686 33.2547 20.9686 34.005C20.9686 34.7553 21.5768 35.3635 22.3271 35.3635Z" fill="#445EA0"/>
<path d="M40.6602 20.1536C40.6602 20.4222 40.4405 20.6419 40.172 20.6419H24.6976C24.4291 20.6419 24.2094 20.4222 24.2094 20.1536V13.0522C24.2094 12.7837 24.4291 12.564 24.6976 12.564H40.172C40.4405 12.564 40.6602 12.7837 40.6602 13.0522V20.1536Z" fill="#FFAF10"/>
<path d="M26.1472 20.1536V13.0522C26.1472 12.7837 26.3669 12.564 26.6355 12.564H24.6978C24.4292 12.564 24.2095 12.7837 24.2095 13.0522V20.1536C24.2095 20.4222 24.4292 20.6419 24.6978 20.6419H26.6355C26.3669 20.6419 26.1472 20.4222 26.1472 20.1536Z" fill="#FF9518"/>
<path d="M29.2252 23.4492H25.015C24.6105 23.4492 24.2826 23.1214 24.2826 22.7168C24.2826 22.3122 24.6105 21.9844 25.015 21.9844H29.2252C29.6297 21.9844 29.9576 22.3122 29.9576 22.7168C29.9576 23.1214 29.6297 23.4492 29.2252 23.4492Z" fill="#C3DDF4"/>
<path d="M29.2252 25.6753H25.015C24.6105 25.6753 24.2826 25.3475 24.2826 24.9429C24.2826 24.5383 24.6105 24.2104 25.015 24.2104H29.2252C29.6297 24.2104 29.9576 24.5383 29.9576 24.9429C29.9576 25.3475 29.6297 25.6753 29.2252 25.6753Z" fill="#C3DDF4"/>
<path d="M34.3047 23.4492H31.1738C30.7693 23.4492 30.4414 23.1214 30.4414 22.7168C30.4414 22.3122 30.7693 21.9844 31.1738 21.9844H34.3047C34.7092 21.9844 35.0371 22.3122 35.0371 22.7168C35.0371 23.1214 34.7092 23.4492 34.3047 23.4492Z" fill="#C3DDF4"/>
<path d="M34.3047 25.6753H31.1738C30.7693 25.6753 30.4414 25.3475 30.4414 24.9429C30.4414 24.5383 30.7693 24.2104 31.1738 24.2104H34.3047C34.7092 24.2104 35.0371 24.5383 35.0371 24.9429C35.0371 25.3475 34.7092 25.6753 34.3047 25.6753Z" fill="#C3DDF4"/>
<path d="M40.2121 23.4492H36.2242C35.8198 23.4492 35.4918 23.1214 35.4918 22.7168C35.4918 22.3122 35.8198 21.9844 36.2242 21.9844H40.2121C40.6166 21.9844 40.9446 22.3122 40.9446 22.7168C40.9446 23.1214 40.6166 23.4492 40.2121 23.4492Z" fill="#C3DDF4"/>
<path d="M40.2121 25.6753H36.2242C35.8198 25.6753 35.4918 25.3475 35.4918 24.9429C35.4918 24.5383 35.8198 24.2104 36.2242 24.2104H40.2121C40.6166 24.2104 40.9446 24.5383 40.9446 24.9429C40.9446 25.3475 40.6166 25.6753 40.2121 25.6753Z" fill="#C3DDF4"/>
<path d="M35.0943 10.848C35.0943 11.1166 34.8745 11.3363 34.606 11.3363H33.5319C33.2633 11.3363 33.0436 11.1166 33.0436 10.848V9.77393C33.0436 9.50537 33.2633 9.28564 33.5319 9.28564H34.606C34.8745 9.28564 35.0943 9.50537 35.0943 9.77393V10.848Z" fill="#EF8318"/>
<path d="M37.8284 10.848C37.8284 11.1166 37.6087 11.3363 37.3401 11.3363H36.266C35.9974 11.3363 35.7777 11.1166 35.7777 10.848V9.77393C35.7777 9.50537 35.9974 9.28564 36.266 9.28564H37.3401C37.6087 9.28564 37.8284 9.50537 37.8284 9.77393V10.848Z" fill="#EF8318"/>
<path d="M40.5626 10.848C40.5626 11.1166 40.3429 11.3363 40.0744 11.3363H39.0002C38.7317 11.3363 38.512 11.1166 38.512 10.848V9.77393C38.512 9.50537 38.7317 9.28564 39.0002 9.28564H40.0744C40.3429 9.28564 40.5626 9.50537 40.5626 9.77393V10.848Z" fill="#EF8318"/>
<path d="M18.6425 25.0981H17.7635C17.3591 25.0981 17.0311 24.7703 17.0311 24.3657C17.0311 23.9611 17.3591 23.6333 17.7635 23.6333H18.6425C19.0469 23.6333 19.3749 23.9611 19.3749 24.3657C19.3749 24.7703 19.0469 25.0981 18.6425 25.0981Z" fill="#69CDFF"/>
<path d="M15.3221 25.0981H14.4432C14.0387 25.0981 13.7108 24.7703 13.7108 24.3657C13.7108 23.9611 14.0387 23.6333 14.4432 23.6333H15.3221C15.7266 23.6333 16.0546 23.9611 16.0546 24.3657C16.0546 24.7703 15.7266 25.0981 15.3221 25.0981Z" fill="#69CDFF"/>
<path d="M12.0017 25.0981H11.1228C10.7183 25.0981 10.3904 24.7703 10.3904 24.3657C10.3904 23.9611 10.7183 23.6333 11.1228 23.6333H12.0017C12.4062 23.6333 12.7341 23.9611 12.7341 24.3657C12.7342 24.7703 12.4063 25.0981 12.0017 25.0981Z" fill="#69CDFF"/>
<path d="M8.6814 25.0981H7.80249C7.398 25.0981 7.07007 24.7703 7.07007 24.3657C7.07007 23.9611 7.398 23.6333 7.80249 23.6333H8.6814C9.08589 23.6333 9.41382 23.9611 9.41382 24.3657C9.41382 24.7703 9.08599 25.0981 8.6814 25.0981Z" fill="#69CDFF"/>
<path d="M21.4989 22.0806C21.0944 22.0806 20.7665 21.7527 20.7665 21.3481V20.4692C20.7665 20.0647 21.0944 19.7368 21.4989 19.7368C21.9034 19.7368 22.2313 20.0647 22.2313 20.4692V21.3481C22.2313 21.7527 21.9034 22.0806 21.4989 22.0806Z" fill="#69CDFF"/>
<path d="M21.4989 18.7603C21.0944 18.7603 20.7665 18.4324 20.7665 18.0278V17.1489C20.7665 16.7444 21.0944 16.4165 21.4989 16.4165C21.9034 16.4165 22.2313 16.7444 22.2313 17.1489V18.0278C22.2313 18.4324 21.9034 18.7603 21.4989 18.7603Z" fill="#69CDFF"/>
<path d="M21.4989 15.4399C21.0944 15.4399 20.7665 15.1121 20.7665 14.7075V13.8286C20.7665 13.4241 21.0944 13.0962 21.4989 13.0962C21.9034 13.0962 22.2313 13.4241 22.2313 13.8286V14.7075C22.2313 15.1121 21.9034 15.4399 21.4989 15.4399Z" fill="#69CDFF"/>
<path d="M4.89722 22.0806C4.49272 22.0806 4.16479 21.7527 4.16479 21.3481V20.4692C4.16479 20.0647 4.49272 19.7368 4.89722 19.7368C5.30171 19.7368 5.62964 20.0647 5.62964 20.4692V21.3481C5.62964 21.7527 5.30181 22.0806 4.89722 22.0806Z" fill="#69CDFF"/>
<path d="M4.89722 18.7603C4.49272 18.7603 4.16479 18.4324 4.16479 18.0278V17.1489C4.16479 16.7444 4.49272 16.4165 4.89722 16.4165C5.30171 16.4165 5.62964 16.7444 5.62964 17.1489V18.0278C5.62964 18.4324 5.30181 18.7603 4.89722 18.7603Z" fill="#69CDFF"/>
<path d="M4.89722 15.4399C4.49272 15.4399 4.16479 15.1121 4.16479 14.7075V13.8286C4.16479 13.4241 4.49272 13.0962 4.89722 13.0962C5.30171 13.0962 5.62964 13.4241 5.62964 13.8286V14.7075C5.62964 15.1121 5.30181 15.4399 4.89722 15.4399Z" fill="#69CDFF"/>
<path d="M18.6425 11.8169H17.7635C17.3591 11.8169 17.0311 11.4891 17.0311 11.0845C17.0311 10.6799 17.3591 10.3521 17.7635 10.3521H18.6425C19.0469 10.3521 19.3749 10.6799 19.3749 11.0845C19.3749 11.4891 19.0469 11.8169 18.6425 11.8169Z" fill="#69CDFF"/>
<path d="M15.3221 11.8169H14.4432C14.0387 11.8169 13.7108 11.4891 13.7108 11.0845C13.7108 10.6799 14.0387 10.3521 14.4432 10.3521H15.3221C15.7266 10.3521 16.0546 10.6799 16.0546 11.0845C16.0546 11.4891 15.7266 11.8169 15.3221 11.8169Z" fill="#69CDFF"/>
<path d="M12.0017 11.8169H11.1228C10.7183 11.8169 10.3904 11.4891 10.3904 11.0845C10.3904 10.6799 10.7183 10.3521 11.1228 10.3521H12.0017C12.4062 10.3521 12.7341 10.6799 12.7341 11.0845C12.7341 11.4891 12.4063 11.8169 12.0017 11.8169Z" fill="#69CDFF"/>
<path d="M8.6814 11.8169H7.80249C7.398 11.8169 7.07007 11.4891 7.07007 11.0845C7.07007 10.6799 7.398 10.3521 7.80249 10.3521H8.6814C9.08589 10.3521 9.41382 10.6799 9.41382 11.0845C9.41382 11.4891 9.08599 11.8169 8.6814 11.8169Z" fill="#69CDFF"/>
<path d="M19.5458 21.9243C19.5458 22.1929 19.326 22.4126 19.0575 22.4126H7.33874C7.07019 22.4126 6.85046 22.1929 6.85046 21.9243V13.5259C6.85046 13.2573 7.07019 13.0376 7.33874 13.0376H19.0575C19.326 13.0376 19.5458 13.2573 19.5458 13.5259V21.9243Z" fill="#5DC1D8"/>
<path d="M8.78813 21.9243V13.5259C8.78813 13.2573 9.00786 13.0376 9.27642 13.0376H7.33862C7.07007 13.0376 6.85034 13.2573 6.85034 13.5259V21.9243C6.85034 22.1929 7.07007 22.4126 7.33862 22.4126H9.27642C9.00786 22.4126 8.78813 22.1929 8.78813 21.9243Z" fill="#28A5A5"/>
<path d="M22.8657 11.8174C22.8657 12.0859 22.646 12.3057 22.3774 12.3057H20.3267C20.0581 12.3057 19.8384 12.0859 19.8384 11.8174V9.7666C19.8384 9.49805 20.0581 9.27832 20.3267 9.27832H22.3774C22.646 9.27832 22.8657 9.49805 22.8657 9.7666V11.8174Z" fill="#52BBEF"/>
<path d="M6.65478 12.0127C6.65478 12.2812 6.43506 12.501 6.1665 12.501H4.11572C3.84717 12.501 3.62744 12.2812 3.62744 12.0127V9.96191C3.62744 9.69336 3.84717 9.47363 4.11572 9.47363H6.1665C6.43506 9.47363 6.65478 9.69336 6.65478 9.96191V12.0127Z" fill="#52BBEF"/>
<path d="M22.8657 25.4771C22.8657 25.7456 22.646 25.9653 22.3774 25.9653H20.3267C20.0581 25.9653 19.8384 25.7456 19.8384 25.4771V23.4263C19.8384 23.1577 20.0581 22.938 20.3267 22.938H22.3774C22.646 22.938 22.8657 23.1577 22.8657 23.4263V25.4771Z" fill="#52BBEF"/>
<path d="M6.65478 25.4771C6.65478 25.7456 6.43506 25.9653 6.1665 25.9653H4.11572C3.84717 25.9653 3.62744 25.7456 3.62744 25.4771V23.4263C3.62744 23.1577 3.84717 22.938 4.11572 22.938H6.1665C6.43506 22.938 6.65478 23.1577 6.65478 23.4263V25.4771Z" fill="#52BBEF"/>
<path d="M20.9147 11.8174V9.7666C20.9147 9.49805 21.1345 9.27832 21.403 9.27832H20.3267C20.0581 9.27832 19.8384 9.49805 19.8384 9.7666V11.8174C19.8384 12.0859 20.0581 12.3057 20.3267 12.3057H21.403C21.1345 12.3057 20.9147 12.0859 20.9147 11.8174Z" fill="#1E99D6"/>
<path d="M4.70381 12.0127V9.96191C4.70381 9.69336 4.92354 9.47363 5.19209 9.47363H4.11572C3.84717 9.47363 3.62744 9.69336 3.62744 9.96191V12.0127C3.62744 12.2812 3.84717 12.501 4.11572 12.501H5.19209C4.92354 12.501 4.70381 12.2812 4.70381 12.0127Z" fill="#1E99D6"/>
<path d="M20.9147 25.4771V23.4263C20.9147 23.1577 21.1345 22.938 21.403 22.938H20.3267C20.0581 22.938 19.8384 23.1577 19.8384 23.4263V25.4771C19.8384 25.7456 20.0581 25.9653 20.3267 25.9653H21.403C21.1345 25.9653 20.9147 25.7456 20.9147 25.4771Z" fill="#1E99D6"/>
<path d="M4.70381 25.4771V23.4263C4.70381 23.1577 4.92354 22.938 5.19209 22.938H4.11572C3.84717 22.938 3.62744 23.1577 3.62744 23.4263V25.4771C3.62744 25.7456 3.84717 25.9653 4.11572 25.9653H5.19209C4.92354 25.9653 4.70381 25.7456 4.70381 25.4771Z" fill="#1E99D6"/>
<path d="M42.5252 35.8179C42.51 35.7767 42.5112 35.7532 42.5133 35.7456C42.5134 35.7456 42.5194 35.745 42.525 35.745C42.5361 35.745 42.5555 35.7473 42.5849 35.7581L46.6966 37.2684V28.0264C46.6966 27.7578 46.4769 27.5381 46.2084 27.5381H30.681C30.4125 27.5381 30.1927 27.7578 30.1927 28.0264V39.2373C30.1927 39.5059 30.4125 39.7256 30.681 39.7256H43.9603L42.5252 35.8179Z" fill="#5DC1D8"/>
<path d="M32.1306 39.2373V28.0264C32.1306 27.7578 32.3503 27.5381 32.6188 27.5381H30.6812C30.4126 27.5381 30.1929 27.7578 30.1929 28.0264V39.2373C30.1929 39.5059 30.4126 39.7256 30.6812 39.7256H32.6188C32.3503 39.7256 32.1306 39.5059 32.1306 39.2373Z" fill="#28A5A5"/>
<path d="M42.6187 35.6665C42.4579 35.6074 42.3745 35.6907 42.4336 35.8516L45.0083 42.8616C45.0673 43.0225 45.2149 43.055 45.3361 42.9338L46.703 41.5669C46.8242 41.4457 47.0225 41.4457 47.1439 41.5669L48.7189 43.1421C48.8401 43.2633 49.0384 43.2633 49.1597 43.1421L49.9091 42.3926C50.0303 42.2715 50.0303 42.073 49.9091 41.9518L48.334 40.3767C48.2128 40.2555 48.2128 40.0572 48.334 39.9359L49.7008 38.569C49.8221 38.4479 49.7896 38.3004 49.6287 38.2413L42.6187 35.6665Z" fill="#293D7C"/>
</svg>
