<svg width="50" height="50" viewBox="0 0 50 50" fill="none" xmlns="http://www.w3.org/2000/svg">
<g clip-path="url(#clip0)">
<path d="M25 50C38.8071 50 50 38.8071 50 25C50 11.1929 38.8071 0 25 0C11.1929 0 0 11.1929 0 25C0 38.8071 11.1929 50 25 50Z" fill="#FFCE00"/>
<path d="M50 25.0002C50 21.8227 49.4072 18.7837 48.3261 15.9876L41.6554 9.31689L8.34448 37.0266L20.9998 49.6818C22.3023 49.8913 23.6384 50.0002 25 50.0002C38.8071 50.0002 50 38.8073 50 25.0002Z" fill="#FFA300"/>
<path d="M8.34448 9.31689H41.6553V14.418H8.34448V9.31689Z" fill="#7584F2"/>
<path d="M25.0117 9.31689H41.6554V14.418H25.0117V9.31689Z" fill="#606AEA"/>
<path d="M8.34448 13.9404H41.6553V37.0262H8.34448V13.9404Z" fill="white"/>
<path d="M25.0117 13.9404H41.6554V37.0262H25.0117V13.9404Z" fill="#E9EDF5"/>
<path d="M10.5175 12.7101C11.15 12.7101 11.6628 12.1973 11.6628 11.5647C11.6628 10.9322 11.15 10.4194 10.5175 10.4194C9.88497 10.4194 9.37219 10.9322 9.37219 11.5647C9.37219 12.1973 9.88497 12.7101 10.5175 12.7101Z" fill="#4855B7"/>
<path d="M16.7533 12.7101C17.3859 12.7101 17.8987 12.1973 17.8987 11.5647C17.8987 10.9322 17.3859 10.4194 16.7533 10.4194C16.1208 10.4194 15.608 10.9322 15.608 11.5647C15.608 12.1973 16.1208 12.7101 16.7533 12.7101Z" fill="#4855B7"/>
<path d="M13.6354 12.7101C14.268 12.7101 14.7807 12.1973 14.7807 11.5647C14.7807 10.9322 14.268 10.4194 13.6354 10.4194C13.0029 10.4194 12.4901 10.9322 12.4901 11.5647C12.4901 12.1973 13.0029 12.7101 13.6354 12.7101Z" fill="#4855B7"/>
<path d="M21.1262 17.1211H39.271V26.9224H21.1262V17.1211Z" fill="#A3D4FF"/>
<path d="M25.0117 17.1211H39.2709V26.9224H25.0117V17.1211Z" fill="#65B1FC"/>
<path d="M33.628 18.6841L28.8652 25.3218L25.8238 20.5194L21.1262 26.7545V28.9142H39.271V25.8634L33.628 18.6841Z" fill="#FE6A16"/>
<path d="M39.2709 25.8633L33.6279 18.6841L28.8651 25.3218L25.8237 20.5194L25.0117 21.5973V28.9142H39.2709V25.8633Z" fill="#F24500"/>
<path d="M29.0779 22.2622C30.066 22.2622 30.8669 21.4612 30.8669 20.4731C30.8669 19.4851 30.066 18.6841 29.0779 18.6841C28.0898 18.6841 27.2888 19.4851 27.2888 20.4731C27.2888 21.4612 28.0898 22.2622 29.0779 22.2622Z" fill="#FF9500"/>
<path d="M9.7821 17.1211H19.6131V20.0163H9.7821V17.1211Z" fill="#CDD2E1"/>
<path d="M9.7821 21.5698H19.6131V24.465H9.7821V21.5698Z" fill="#CDD2E1"/>
<path d="M9.7821 26.0186H19.6131V28.9138H9.7821V26.0186Z" fill="#CDD2E1"/>
<path d="M9.7821 30.4673H39.2711V33.3625H9.7821V30.4673Z" fill="#CDD2E1"/>
<path d="M25.0117 30.4678H39.2709V33.363H25.0117V30.4678Z" fill="#AFB4C8"/>
</g>
<defs>
<clipPath id="clip0">
<rect width="50" height="50" fill="white"/>
</clipPath>
</defs>
</svg>
