<svg width="54" height="68" viewBox="0 0 54 68" fill="none" xmlns="http://www.w3.org/2000/svg">
<path fill-rule="evenodd" clip-rule="evenodd" d="M33.6509 37.326H30.3248V33.9999C30.3248 32.1639 28.838 30.6738 26.9987 30.6738C25.1594 30.6738 23.6726 32.1639 23.6726 33.9999V37.326H20.3465C18.5072 37.326 17.0204 38.8161 17.0204 40.6521C17.0204 42.4881 18.5072 43.9782 20.3465 43.9782H23.6726V47.3043C23.6726 49.1403 25.1594 50.6303 26.9987 50.6303C28.838 50.6303 30.3248 49.1403 30.3248 47.3043V43.9782H33.6509C35.4902 43.9782 36.977 42.4881 36.977 40.6521C36.977 38.8161 35.4902 37.326 33.6509 37.326ZM45.107 60.6085H8.88925C7.87147 60.6085 7.04327 59.8635 7.04327 58.9455V9.05416C7.04327 8.13616 7.87147 7.39111 8.88925 7.39111H26.9998V17.8683C26.9998 23.0969 31.0476 27.3476 36.0268 27.3476H46.9563V58.9455C46.9563 59.8635 46.1281 60.6085 45.107 60.6085ZM33.652 10.6445L42.7721 20.696H36.0268C34.7163 20.696 33.652 19.4287 33.652 17.8688V10.6445ZM52.7437 21.7867L34.6365 1.83021C34.0045 1.13506 33.1132 0.739258 32.1719 0.739258H8.88927C4.20281 0.739258 0.391113 4.47113 0.391113 9.05447V58.9458C0.391113 63.5291 4.20281 67.261 8.88927 67.261H45.107C49.7935 67.261 53.6085 63.5291 53.6085 58.9458V24.0219C53.6085 23.1937 53.2992 22.3987 52.7437 21.7867Z" fill="#9468B4"/>
</svg>
