<svg width="92" height="92" viewBox="0 0 92 92" fill="none" xmlns="http://www.w3.org/2000/svg">
<rect x="1" y="1" width="90" height="90" rx="20.9048" stroke="white" stroke-width="2"/>
<path d="M44.4453 83.3751V77.7749H60.2338V83.3751" stroke="white" stroke-width="2.92063" stroke-miterlimit="10" stroke-linecap="round"/>
<path d="M56.894 77.7746C56.894 76.189 56.894 73.4901 56.894 71.9045C66.2727 67.8899 66.2727 57.5329 62.6629 52.9448" stroke="white" stroke-width="2.92063" stroke-miterlimit="10" stroke-linecap="round"/>
<path d="M58.5133 58.916C58.682 63.3017 55.106 66.9789 50.8552 66.9114C45.9972 66.8777 43.2983 63.3017 43.3658 59.1521C43.4333 53.4507 49.2359 52.4049 50.1468 50.7181C51.2263 48.6602 49.0335 46.7035 46.6045 47.0408C44.3104 47.3782 39.115 53.0796 39.115 53.0796C39.115 53.0796 36.2812 47.7156 34.2908 44.8143C31.7943 41.2045 28.1845 43.9709 29.6689 47.3445C30.9509 50.212 34.6281 57.4316 34.6281 57.4316C34.6281 57.4316 28.252 53.3158 25.9917 52.2025C22.8542 50.6169 21.4373 54.7327 23.1916 56.487C26.0929 59.422 33.7172 63.9089 33.7172 63.9089C33.7172 63.9089 28.6568 62.492 26.5652 62.7956C23.8663 63.1667 24.0012 66.5403 25.9579 67.485C30.175 69.5091 43.1634 71.3646 46.6719 72.0731C46.6719 73.6924 46.6719 76.0877 46.6719 77.707" stroke="white" stroke-width="2.92063" stroke-miterlimit="10" stroke-linecap="round" stroke-linejoin="round"/>
<path d="M49.5396 55.4415C53.3181 55.4415 55.7808 55.4415 59.593 55.4415C59.593 42.1832 59.593 28.8911 59.593 15.6328C51.7325 15.6328 43.872 15.6328 36.0452 15.6328C36.0452 26.7657 36.0452 30.6454 36.0452 41.7783" stroke="white" stroke-width="2.92063" stroke-miterlimit="10" stroke-linecap="round" stroke-linejoin="round"/>
<path d="M46.9755 39.2143C49.1927 39.2143 50.9901 37.4169 50.9901 35.1997C50.9901 32.9825 49.1927 31.1851 46.9755 31.1851C44.7583 31.1851 42.9609 32.9825 42.9609 35.1997C42.9609 37.4169 44.7583 39.2143 46.9755 39.2143Z" stroke="white" stroke-width="2.92063" stroke-miterlimit="10" stroke-linecap="round" stroke-linejoin="round"/>
<path d="M43.2984 18.8042C43.2984 21.0645 41.4429 22.92 39.1826 22.92" stroke="white" stroke-width="2.92063" stroke-miterlimit="10" stroke-linecap="round" stroke-linejoin="round"/>
<path d="M55.8819 22.9532C53.6216 22.9532 51.7661 21.0977 51.7661 18.8374" stroke="white" stroke-width="2.92063" stroke-miterlimit="10" stroke-linecap="round" stroke-linejoin="round"/>
<path d="M25.3362 23.5391L29.6881 26.7103" stroke="white" stroke-width="2.92063" stroke-miterlimit="10" stroke-linecap="round" stroke-linejoin="round"/>
<path d="M28.7573 10.0625L31.4829 14.7066" stroke="white" stroke-width="2.92063" stroke-miterlimit="10" stroke-linecap="round" stroke-linejoin="round"/>
<path d="M68.8043 24.0781L64.1487 26.7433" stroke="white" stroke-width="2.92063" stroke-miterlimit="10" stroke-linecap="round" stroke-linejoin="round"/>
<path d="M67.9763 10.2424L64.5339 14.3567" stroke="white" stroke-width="2.92063" stroke-miterlimit="10" stroke-linecap="round" stroke-linejoin="round"/>
</svg>
