<svg width="235" height="207" viewBox="0 0 235 207" fill="none" xmlns="http://www.w3.org/2000/svg">
<path d="M228.205 149.539C224.359 140.778 216.693 133.421 207.819 129.822C198.579 126.074 188.107 127.135 178.373 125.879C169.916 124.789 163.603 121.332 158.554 114.612C153.718 108.173 149.468 101.254 141.566 98.2749C135.318 95.9208 128.524 96.3866 122.313 98.8383C110.869 103.358 101.846 112.925 94.5662 122.499C87.9202 131.238 82.5036 140.777 70.2169 141.089C57.9301 141.401 46.3616 134.16 33.9759 136.019C17.6026 138.48 3.9824 152.441 1.13251 168.693C-1.54504 183.92 5.44637 198.32 16.9879 207H215.181C229.729 191.547 237.426 170.544 228.205 149.539Z" fill="#F7F0E3"/>
<path d="M49.265 206.437H49.8313C53.8177 202.176 56.4465 197.237 58.3253 191.79C61.467 182.776 61.142 173.476 57.759 165.313C56.0487 161.195 53.9167 157.201 51.5301 153.483C49.109 149.712 46.4338 145.831 44.7349 141.652C44.0213 139.886 43.909 137.892 43.6024 136.019H43.0361C43.3437 137.959 43.9963 139.824 44.7349 141.652C46.4469 145.865 48.5329 149.697 50.9638 153.483C53.3406 157.186 56.0618 161.219 57.759 165.313C61.1042 173.39 60.8695 182.865 57.759 191.79C55.8585 197.301 53.3404 202.162 49.265 206.437Z" fill="white"/>
<path d="M214.615 188.973C218.701 189.841 222.697 190.737 226.506 191.227C226.571 191.101 226.441 191.352 226.506 191.227C222.667 190.74 218.739 189.849 214.615 188.973C208.33 187.64 201.548 186.157 194.795 186.157C190.618 186.157 186.901 186.372 182.904 187.847C181.384 188.409 179.756 189.257 178.374 190.1C174.764 188.568 171.208 186.867 167.615 185.03C170.222 183.072 172.879 181.253 175.542 179.396C195.32 165.64 213.406 157.95 231.036 155.736C231.001 155.607 231.073 155.301 231.036 155.173C213.358 157.397 194.782 165.046 174.976 178.833C172.256 180.718 169.707 183.022 167.048 185.03C162.963 182.937 159.003 180.772 155.157 178.27C148.139 173.693 139.789 166.671 132.506 157.989C160.729 154.835 189.451 151.081 212.916 135.456C213.806 134.863 214.725 133.997 215.747 133.202C215.634 133.123 215.862 133.28 215.747 133.202C214.768 133.959 213.771 134.33 212.916 134.892C189.457 150.513 160.199 154.83 131.94 157.989C126.794 151.792 122.112 144.452 118.916 136.019C113.938 122.882 114.613 109.871 120.048 100.529C120.284 100.123 120.358 99.7975 120.615 99.4019C120.386 99.5051 120.273 99.8587 120.048 99.9652C119.91 100.191 119.617 100.3 119.482 100.529C113.986 109.974 113.896 122.771 118.916 136.019C122.094 144.408 126.834 151.802 131.94 157.989C130.303 158.172 128.477 158.374 126.843 158.553C120.96 159.2 114.639 160.056 108.723 160.806C106.567 161.083 104.684 160.964 102.494 161.37C97.8224 151.543 92.7154 141.996 86.0724 133.766L85.5061 134.329C92.0917 142.497 97.2785 151.6 101.928 161.37C92.409 163.178 83.0795 166.974 78.1446 174.89C73.5352 182.279 73.5272 192.551 78.1446 205.31C78.3041 205.752 78.5386 206.005 78.7109 206.437H79.2772C79.0953 205.96 78.8895 205.236 78.7109 204.747C74.1366 192.109 74.17 182.173 78.7109 174.89C83.5883 167.071 92.4617 163.719 101.928 161.933C103.58 165.413 105.439 169.15 107.024 172.636C112.532 184.748 118.253 196.67 125.711 206.437H126.277C118.751 196.651 113.131 184.825 107.59 172.636L107.024 172.073C105.452 168.614 104.124 165.384 102.494 161.933C104.634 161.539 106.608 161.078 108.723 160.806C114.624 160.05 120.96 159.76 126.843 159.116C128.561 158.929 130.215 158.745 131.94 158.553C139.293 167.368 148.058 173.641 155.157 178.27C158.961 180.742 162.446 182.956 166.482 185.03C159.699 190.142 153.105 195.559 146.663 200.803C144.43 202.624 142.142 204.596 139.868 206.437H140.434C142.58 204.703 145.121 203.088 147.229 201.367C153.716 196.078 160.217 190.736 167.048 185.593C170.623 187.425 174.212 189.127 177.807 190.663C172.896 193.776 168.902 198.332 166.482 204.184C166.179 204.916 166.161 205.695 165.916 206.437C166.147 205.746 166.766 204.868 167.048 204.184C169.476 198.315 173.424 193.725 178.374 190.663C188.409 194.911 198.213 197.742 206.687 200.24L207.253 200.803C210.826 201.855 214.216 203.016 217.446 204.747C217.537 204.645 217.923 204.287 218.012 204.184C214.728 202.409 210.877 201.316 207.253 200.24H206.687C198.299 197.767 188.873 194.284 178.94 190.1C180.227 189.334 181.498 188.93 182.904 188.41C193.247 184.601 204.494 186.825 214.615 188.973Z" fill="white"/>
<path d="M18.1205 163.623C19.8556 170.793 18.9519 178.697 15.8554 185.03C13.8269 189.178 10.969 192.508 7.36145 195.733C7.43243 195.844 7.28889 196.184 7.36145 196.296C11.0273 193.03 14.3632 189.238 16.4217 185.03C19.5591 178.616 19.884 170.88 18.1205 163.623C16.7434 157.952 14.0195 153.029 10.1928 149.539V150.102C13.9564 153.532 16.7623 158.036 18.1205 163.623Z" fill="white"/>
<path d="M190.269 86.9067C193.679 90.4387 195.547 96.0683 193.667 101.554C191.846 106.864 187.702 111.685 182.908 114.51C179.051 116.786 173.676 118.019 169.884 115.637C167.049 113.857 165.432 110.003 165.354 106.624C165.276 103.244 166.233 100.13 167.619 97.0468C169.573 92.7135 172.762 88.4155 176.679 85.78C182.072 82.1496 186.991 83.5127 190.269 86.9067Z" fill="#F7F0E3"/>
<path d="M133.072 36.3076C131.215 30.1289 128.126 24.5896 123.446 19.4073C118.765 14.225 112.297 9.83849 104.193 6.45045C96.0913 3.06348 85.5315 1.38037 73.048 1.38037C63.0888 1.38037 53.3771 2.63817 43.0359 5.32377C32.6948 8.00937 23.4832 12.1637 15.8552 17.154L26.048 44.1944L20.3853 48.7011L28.3131 50.9545C35.9177 46.9744 42.4457 43.7427 48.6986 41.941C54.9515 40.1393 62.0641 39.1126 69.0841 39.1243C76.1084 39.1243 81.3277 40.8074 84.9396 44.1944C88.5514 47.5814 90.0402 51.8046 90.0359 56.5879C90.0359 62.3687 88.6438 67.314 84.9396 71.7982C81.2354 76.2823 76.9807 81.2957 72.4817 85.8817C69.3654 89.065 66.3532 92.0631 63.4215 95.4585C60.496 98.8472 57.7283 102.846 55.4938 106.725C53.2132 110.688 51.7124 114.74 50.3974 119.119C49.0254 123.605 48.126 128.752 48.1323 134.329C48.1323 136.131 48.0273 138.035 48.1323 140.526C48.1498 140.986 48.1053 141.21 48.1323 141.653H40.7709L48.6986 147.286H87.7709C87.5595 145.901 87.1892 144.744 87.2046 143.343V139.399C87.2172 135.958 88.1301 132.429 89.4697 129.259C90.8477 125.949 92.5346 123.2 94.5661 120.246C96.6318 117.23 98.8472 114.449 101.361 111.795C103.896 109.099 106.377 106.299 108.723 103.909C111.839 100.725 115.029 97.3592 118.349 93.7685C121.614 90.2545 124.262 86.5441 126.843 82.5017C129.425 78.4171 132.042 74.1055 133.638 69.5448C135.297 64.8633 135.897 59.3546 135.903 53.7712C135.91 48.1878 134.934 42.482 133.072 36.3076Z" fill="#3B226B"/>
<path d="M61.1565 37.4341C54.1904 37.4341 47.5185 38.5226 41.3373 40.2509C35.156 41.9791 28.4975 44.8486 20.9517 48.701L8.4939 16.0271C16.0365 11.2169 24.858 7.35854 35.1084 4.76029C45.3587 2.16204 55.2625 0.816895 65.1204 0.816895C77.4872 0.816895 87.6733 2.61773 95.6987 5.88697C103.724 9.15621 110.308 13.2766 114.952 18.2805C119.588 23.2876 122.737 28.6579 124.578 34.6174C126.419 40.577 127.413 46.1286 127.41 51.5177C127.41 56.9153 126.794 62.2173 125.144 66.7279C123.562 71.1386 121.467 75.1863 118.916 79.1215C116.353 83.0305 113.085 86.4401 109.855 89.825C106.571 93.2921 103.319 96.8927 100.229 99.9651C97.9061 102.274 95.9447 104.688 93.4337 107.289C90.9453 109.846 88.6918 112.261 86.6385 115.175C84.631 118.022 82.9116 121.552 81.5421 124.752C80.2165 127.805 79.2904 131.004 79.277 134.329V137.709C79.2614 139.062 79.0671 140.316 79.277 141.652H41.3373C40.9186 139.511 40.8365 137.073 40.771 134.892C40.6673 132.487 40.2047 130.432 40.2047 128.696C40.2047 123.312 41.1159 118.943 42.4698 114.612C43.7748 110.378 45.3089 106.036 47.5662 102.218C49.7851 98.4696 52.6014 94.7776 55.4939 91.515C58.392 88.2468 61.4603 85.0137 64.5541 81.9382C69.0008 77.5122 72.7669 73.3121 76.4457 68.9813C80.1085 64.6505 82.102 59.9119 82.1084 54.3344C82.1084 49.7126 80.5876 45.7735 77.012 42.5042C73.4364 39.235 68.1131 37.4341 61.1565 37.4341Z" fill="#4C2E88"/>
<path d="M90.6023 184.467C90.6023 191.421 88.3217 197.021 83.8071 200.804C79.2925 204.586 74.2121 206.432 68.5179 206.437C62.8131 206.437 57.7381 204.592 53.2288 200.804C48.7195 197.015 46.4325 191.416 46.4336 184.467C46.4336 177.519 48.7195 172.483 53.2288 168.693C60.1759 162.844 70.5755 161.211 78.7107 165.313C85.9317 168.956 90.6023 176.357 90.6023 184.467Z" fill="#3B226B"/>
<path d="M82.6745 185.03C82.6745 191.953 80.3941 197.038 75.8794 200.803C71.3646 204.569 66.2836 206.432 60.5902 206.437C54.8852 206.437 49.8105 204.574 45.301 200.803C40.7916 197.033 38.5048 191.947 38.5059 185.03C38.5059 178.115 40.7926 172.466 45.301 168.693C49.8094 164.92 54.8841 163.057 60.5902 163.06C66.2867 163.06 71.3678 164.922 75.8794 168.693C80.3909 172.464 82.6714 178.112 82.6745 185.03Z" fill="#4C2E88"/>
<path d="M179.381 85.8296C178.949 83.5359 180.799 81.552 183.104 81.121C185.409 80.6901 187.297 81.9752 187.728 84.2689C188.16 86.5625 186.971 88.9961 184.666 89.4271C182.361 89.8581 179.812 88.1232 179.381 85.8296Z" fill="#D3DFFF"/>
<path d="M177.464 94.0751C177.234 92.8518 178.045 91.6739 179.274 91.4443C180.504 91.2146 181.687 92.0202 181.916 93.2435C182.146 94.4668 181.336 95.6447 180.106 95.8743C178.877 96.1039 177.694 95.2984 177.464 94.0751Z" fill="#D3DFFF"/>
<path d="M182.079 76.0397C175.673 69.6525 175.673 59.2968 182.079 52.9096C188.484 46.5224 198.87 46.5224 205.276 52.9096C211.682 59.2968 211.682 69.6525 205.276 76.0397C198.87 82.4269 188.484 82.4269 182.079 76.0397Z" fill="#D3DFFF"/>
<path d="M199.887 66.1651C198.792 66.1651 198.188 65.564 198.188 64.4751C198.188 63.3861 198.792 62.2217 199.887 62.2217C200.981 62.2217 202.152 63.3861 202.152 64.4751C202.152 65.564 200.981 66.1651 199.887 66.1651Z" fill="white"/>
<path d="M193.658 66.1651C192.563 66.1651 191.959 65.564 191.959 64.4751C191.959 63.3861 192.563 62.2217 193.658 62.2217C194.752 62.2217 195.923 63.3861 195.923 64.4751C195.923 65.564 194.752 66.1651 193.658 66.1651Z" fill="white"/>
<path d="M187.429 66.1651C186.334 66.1651 185.73 65.564 185.73 64.4751C185.73 63.3861 186.334 62.2217 187.429 62.2217C188.524 62.2217 189.694 63.3861 189.694 64.4751C189.694 65.564 188.524 66.1651 187.429 66.1651Z" fill="white"/>
<path d="M205.549 197.987L203.851 204.184C203.454 205.688 202.087 206.546 200.453 206.437C195.468 206.103 184.881 204.55 178.935 200.24L180.634 191.79C188.807 191.336 196.658 191.858 203.284 194.044C204.936 194.592 205.973 196.377 205.549 197.987Z" fill="#102048"/>
<path d="M195.923 203.057C195.962 203.057 196.458 203.084 196.489 203.057C196.52 203.03 196.479 203.099 196.489 203.057L198.188 195.17C198.201 195.119 198.211 195.217 198.188 195.17C198.165 195.124 198.234 195.185 198.188 195.17C198.142 195.156 198.23 195.144 198.188 195.17C198.146 195.196 197.635 195.119 197.622 195.17L195.923 203.057C195.92 203.031 195.917 203.082 195.923 203.057C195.911 203.034 195.926 203.083 195.923 203.057C195.904 203.041 195.935 203.08 195.923 203.057C195.9 203.05 195.942 203.073 195.923 203.057C195.906 203.056 195.939 203.063 195.923 203.057Z" fill="white"/>
<path d="M191.393 201.93C191.433 201.93 191.928 201.957 191.959 201.93C191.991 201.904 191.949 201.973 191.959 201.93L193.658 194.044C193.664 194.018 193.661 194.07 193.658 194.044C193.655 194.017 193.67 194.067 193.658 194.044C193.646 194.021 193.677 194.06 193.658 194.044C193.639 194.027 193.681 194.051 193.658 194.044C193.635 194.036 193.682 194.04 193.658 194.044C193.634 194.047 193.679 194.031 193.658 194.044C193.637 194.057 193.106 194.023 193.092 194.044C193.077 194.064 193.098 194.018 193.092 194.044L191.393 201.93C191.39 201.904 191.386 201.956 191.393 201.93C191.381 201.907 191.396 201.957 191.393 201.93C191.374 201.914 191.404 201.953 191.393 201.93C191.37 201.923 191.412 201.947 191.393 201.93C191.376 201.93 191.409 201.935 191.393 201.93Z" fill="white"/>
<path d="M186.297 166.44L205.55 172.073L191.393 191.79L171.007 193.48L142.694 181.65L153.453 165.313L186.297 166.44Z" fill="#455B66"/>
<path d="M163.08 168.693C120.99 156.49 113.836 193.609 179.501 200.24C181.821 197.684 184.654 193.244 185.73 189.537L151.188 173.2L163.08 168.693Z" fill="#455B66"/>
<path d="M160.814 195.733C162.773 195.108 164.778 194.043 164.778 194.043L171.573 196.297L169.875 203.62L163.08 204.747C160.946 200.899 160.592 197.599 160.814 195.733Z" fill="#F9B384"/>
<path d="M185.164 190.1L185.73 189.537C178.455 185.279 159.706 175.089 143.827 172.073V172.637C159.613 175.637 177.914 185.857 185.164 190.1Z" fill="#253238"/>
<path d="M186.297 166.44C225.471 158.969 235.541 196.266 169.875 203.057C167.434 200.33 165.767 197.008 164.779 193.48C174.866 186.71 185.827 180.455 198.188 174.326L186.297 166.44Z" fill="#455B66"/>
<path d="M165.345 194.043C167.197 192.873 168.962 191.41 171.007 190.1C181.271 183.526 192.833 176.322 202.718 172.073V171.51C192.787 175.778 180.731 183.513 170.441 190.1C168.397 191.409 166.631 192.31 164.779 193.48L165.345 194.043Z" fill="#253238"/>
<path d="M215.176 185.03L215.742 184.467C214.229 181.801 211.644 180.271 208.381 179.396V179.96C211.523 180.807 213.727 182.476 215.176 185.03Z" fill="#253238"/>
<path d="M133.068 182.776C134.517 180.222 136.721 178.554 139.863 177.706V177.143C136.598 178.023 134.013 179.548 132.501 182.213L133.068 182.776Z" fill="#253238"/>
<path d="M173.272 203.057L173.839 202.494C170.822 199.137 168.97 195.733 168.176 191.79H167.61C168.423 195.843 170.18 199.611 173.272 203.057Z" fill="#253238"/>
<path d="M141.562 193.48C146.553 190.356 156.12 195.46 158.549 195.734C159.258 195.814 160.009 195.995 160.815 195.734C160.593 197.65 160.95 200.238 163.08 204.184L161.947 204.747C161.947 204.747 153.664 207.652 144.959 205.874C136.925 204.237 137.637 195.935 141.562 193.48Z" fill="#102048"/>
<path d="M148.357 203.62C148.376 203.62 148.338 203.626 148.357 203.62C148.38 203.613 148.338 203.636 148.357 203.62C148.345 203.643 148.375 203.604 148.357 203.62C148.355 203.645 148.368 203.598 148.357 203.62C148.364 203.644 148.359 203.595 148.357 203.62C147.8 201.784 147.878 197.593 149.489 195.17C149.508 195.129 149.5 195.214 149.489 195.17C149.478 195.126 149.525 195.196 149.489 195.17C149.454 195.144 149.533 195.167 149.489 195.17C149.446 195.173 148.954 195.139 148.923 195.17C147.234 197.709 147.778 201.708 148.357 203.62C148.326 203.597 148.369 203.657 148.357 203.62C148.319 203.619 148.387 203.643 148.357 203.62Z" fill="white"/>
<path d="M152.321 204.184C152.34 204.184 152.303 204.19 152.321 204.184C152.367 204.168 152.298 204.229 152.321 204.184C152.336 204.233 152.343 204.139 152.321 204.184C151.767 202.359 151.851 198.708 153.453 196.297C153.481 196.255 153.462 195.784 153.453 195.734C153.445 195.684 153.493 195.763 153.453 195.734C153.433 195.719 153.477 195.739 153.453 195.734C153.43 195.728 153.477 195.729 153.453 195.734C153.429 195.738 152.907 195.72 152.887 195.734C152.867 195.748 152.901 195.713 152.887 195.734C151.208 198.26 151.745 202.28 152.321 204.184C152.289 204.161 152.333 204.222 152.321 204.184C152.282 204.184 152.352 204.207 152.321 204.184Z" fill="white"/>
<path d="M193.092 117.993C193.092 117.993 183.096 109.404 183.465 107.852C183.73 106.743 186.863 108.416 186.863 108.416C186.863 108.416 182.697 103.895 182.899 103.346C183.26 102.363 185.73 104.472 185.73 104.472C185.73 104.472 184.279 101.511 185.164 101.092C186.049 100.673 187.995 102.219 187.995 102.219C187.995 102.219 186.898 100.903 187.429 100.529C187.959 100.155 190.26 101.656 190.26 101.656C190.26 101.656 189.082 99.8477 190.827 100.529C192.571 101.21 204.983 112.359 204.983 112.359L193.092 117.993Z" fill="#F9B384"/>
<path d="M189.128 107.852C189.172 107.851 189.661 107.881 189.694 107.852C191.279 106.399 191.914 106.139 193.658 105.599C193.681 105.591 193.639 105.614 193.658 105.599C193.677 105.583 193.647 105.057 193.658 105.035C193.669 105.014 193.656 105.06 193.658 105.035C193.66 105.011 193.665 105.059 193.658 105.035C193.644 104.988 193.702 105.059 193.658 105.035C193.614 105.012 193.705 105.021 193.658 105.035C191.847 105.595 190.769 105.787 189.128 107.289C189.11 107.305 189.138 107.83 189.128 107.852C189.129 107.827 189.117 107.874 189.128 107.852C189.119 107.829 189.127 107.877 189.128 107.852C189.111 107.834 189.136 107.875 189.128 107.852C189.101 107.842 189.147 107.873 189.128 107.852C189.1 107.855 189.154 107.862 189.128 107.852Z" fill="#E28B6D"/>
<path d="M192.525 112.359C192.552 112.356 192.502 112.37 192.525 112.359C192.549 112.348 192.509 112.377 192.525 112.359C192.519 112.38 192.542 112.341 192.525 112.359C192.529 112.381 192.532 112.338 192.525 112.359C192.325 111.19 192.124 109.876 191.393 109.542C190.768 109.258 189.54 109.762 188.561 110.106C188.536 110.114 188.581 110.09 188.561 110.106C188.542 110.122 188.572 110.085 188.561 110.106C188.551 110.127 188.561 110.083 188.561 110.106C188.562 110.128 188.55 110.085 188.561 110.106C188.573 110.126 188.541 110.09 188.561 110.106C188.582 110.121 188.536 110.098 188.561 110.106C188.587 110.114 188.534 110.107 188.561 110.106C188.589 110.105 189.103 110.115 189.128 110.106C189.981 109.806 190.321 109.875 190.827 110.106C191.428 110.374 191.772 111.313 191.959 112.359C191.966 112.398 191.922 112.333 191.959 112.359C191.996 112.385 192.476 112.359 192.525 112.359Z" fill="#E28B6D"/>
<path d="M193.092 104.472C193.13 104.472 193.06 104.495 193.092 104.472C193.124 104.45 193.077 104.51 193.092 104.472C193.1 104.512 193.106 104.435 193.092 104.472C193.083 104.433 193.12 103.937 193.092 103.909L190.827 101.656C190.808 101.636 190.284 101.666 190.26 101.656C190.236 101.645 190.286 101.655 190.26 101.656C190.234 101.656 190.284 101.645 190.26 101.656C190.236 101.666 190.278 101.636 190.26 101.656C190.242 101.675 190.269 101.63 190.26 101.656C190.251 101.681 190.259 101.628 190.26 101.656C190.262 101.683 190.249 102.194 190.26 102.219C190.272 102.243 190.24 102.201 190.26 102.219L192.525 104.472C192.561 104.508 193.042 104.472 193.092 104.472Z" fill="#E28B6D"/>
<path d="M190.826 105.035C190.852 105.036 190.803 105.045 190.826 105.035C190.85 105.026 190.808 105.053 190.826 105.035C190.816 105.059 190.845 105.018 190.826 105.035C190.826 105.061 190.836 105.012 190.826 105.035C190.836 105.059 190.826 105.01 190.826 105.035C190.816 105.012 190.845 104.49 190.826 104.472L188.561 102.219C188.544 102.199 188.586 102.23 188.561 102.219C188.537 102.207 188.022 102.22 187.995 102.219C187.968 102.218 188.021 102.21 187.995 102.219C187.97 102.228 188.015 102.201 187.995 102.219C187.975 102.237 188.006 102.195 187.995 102.219C187.984 102.243 187.995 102.193 187.995 102.219C187.995 102.245 187.984 102.195 187.995 102.219C188.006 102.243 187.975 102.764 187.995 102.782L190.26 105.035C190.28 105.055 190.8 105.025 190.826 105.035C190.798 105.036 190.853 105.045 190.826 105.035Z" fill="#E28B6D"/>
<path d="M187.995 106.162C188.044 106.162 187.959 106.193 187.995 106.162C188.014 106.146 187.985 106.184 187.995 106.162C187.994 106.186 188.006 106.14 187.995 106.162C188.004 106.185 187.996 106.138 187.995 106.162C187.986 106.14 188.013 105.616 187.995 105.599L186.297 103.909C186.28 103.89 186.32 103.92 186.297 103.909C186.273 103.898 185.757 103.91 185.73 103.909C185.704 103.907 185.755 103.9 185.73 103.909C185.706 103.917 185.75 103.892 185.73 103.909C185.711 103.926 185.741 103.886 185.73 103.909C185.72 103.931 185.731 103.884 185.73 103.909C185.73 103.933 185.72 103.886 185.73 103.909C185.74 103.932 185.712 104.455 185.73 104.472L187.429 106.162C187.447 106.181 187.971 106.152 187.995 106.162C187.968 106.162 188.02 106.172 187.995 106.162Z" fill="#E28B6D"/>
<path d="M155.718 174.326L191.959 175.453L195.923 142.779C195.923 142.779 184.113 131.229 179.501 127.006L171.573 126.442C147.419 137.516 150.896 151.616 155.718 174.326Z" fill="#7337EE"/>
<path d="M171.573 126.442C171.573 126.442 143.449 128.778 134.766 147.849C126.269 166.511 161.947 173.2 161.947 173.2L171.573 126.442Z" fill="#7337EE"/>
<path d="M203.284 130.386L191.959 116.866L202.718 110.105C207.193 113.214 215.771 120.157 223.104 128.132C224.722 129.893 225.866 132.061 226.501 134.329C227.033 136.184 227.378 138.058 227.068 139.963C226.273 144.833 221.992 148.941 216.875 149.539C212.505 150.051 195.844 148.441 182.333 144.469L178.369 129.259C180.411 128.101 195.782 127.628 203.284 130.386Z" fill="#7337EE"/>
<g opacity="0.8">
<path opacity="0.8" d="M148.356 134.33C148.482 134.257 148.797 133.838 148.923 133.766C150.952 134.225 152.524 134.655 154.585 134.893C155.825 135.039 160.169 135.348 161.381 132.64C161.983 131.293 161.495 129.747 160.814 128.696C160.913 128.667 161.282 128.724 161.381 128.696C162.078 129.809 162.015 131.219 161.381 132.64C160.087 135.531 155.878 135.609 154.585 135.456C152.465 135.209 150.432 134.799 148.356 134.33Z" fill="white"/>
<path opacity="0.8" d="M135.333 155.736C136.63 155.228 138.464 154.475 139.863 154.609C142.333 154.846 144.265 157.438 144.393 160.243C144.48 162.16 143.501 164.109 142.128 165.876C143.472 164.16 143.91 162.1 143.827 160.243C143.704 157.573 142.193 155.395 139.863 155.173C138.523 155.047 137.221 155.217 135.899 155.736C135.433 155.921 134.688 156.142 134.2 156.3C134.175 156.205 134.222 156.396 134.2 156.3C134.679 156.151 134.871 155.918 135.333 155.736Z" fill="white"/>
<path opacity="0.8" d="M205.549 146.159C207.298 144.563 209.922 144.178 212.911 145.033C215.574 145.794 218.137 146.98 219.706 148.976C219.603 149.013 219.244 148.942 219.14 148.976C217.612 147.083 215.468 145.765 212.911 145.033C210.023 144.206 207.789 144.628 206.116 146.159C205.346 146.892 204.808 147.939 204.417 148.976H203.851C204.26 147.854 204.721 146.949 205.549 146.159Z" fill="white"/>
<path opacity="0.8" d="M221.405 126.442C218.215 125.618 214.649 124.221 211.778 122.499C210.685 121.849 209.809 121.463 208.947 120.246C208.031 118.945 207.409 117.027 207.814 115.739C207.975 115.245 208.585 114.973 208.947 114.612C208.608 114.944 208.528 115.279 208.381 115.739C208.003 116.934 208.087 118.466 208.947 119.682C209.776 120.855 211.292 121.865 212.345 122.499C215.052 124.125 217.832 125.068 220.839 125.879L221.405 126.442Z" fill="white"/>
</g>
<path d="M168.742 119.119V119.682V127.569V128.696C168.799 129.979 169.509 131.188 170.441 132.076C171.373 132.964 172.549 133.203 173.839 133.203C175.128 133.203 176.304 132.964 177.236 132.076C178.168 131.188 178.878 129.979 178.935 128.696V118.556L168.742 119.119Z" fill="#F9B384"/>
<path d="M169.308 119.683V127.569C173.666 125.785 175.537 120.809 175.537 120.809L169.308 119.683Z" fill="#102048"/>
<path d="M167.044 105.599C165.437 107.432 161.158 118.389 165.911 121.936C171.26 125.927 178.935 119.119 178.935 119.119L180.068 106.726L173.272 105.036L167.044 105.599Z" fill="#F9B384"/>
<path d="M183.465 105.036C183.465 105.036 199.133 113.055 186.297 136.019C184.648 138.966 180.929 140.275 177.803 138.836C177.011 138.47 176.679 137.789 176.104 137.146C175.529 136.504 175.234 135.704 174.971 134.893C174.708 134.081 174.312 133.485 174.405 132.639C174.498 131.793 174.538 131.126 174.971 130.386C177.072 126.768 179.238 122.022 178.369 118.556L183.465 105.036Z" fill="#102048"/>
<path d="M178.796 111.771C177.14 110.119 177.54 107.441 179.196 105.789C180.853 104.137 183.139 104.137 184.796 105.789C186.452 107.441 186.852 110.119 185.196 111.771C183.539 113.422 180.453 113.422 178.796 111.771Z" fill="#FBC343"/>
<path d="M177.236 114.049C177.691 111.525 177.621 109.718 174.971 108.416C174.971 108.416 165.994 109.557 164.212 106.162C162.43 102.768 164.755 97.3712 170.441 101.092C184.998 98.3526 186.746 111.927 182.332 116.303L178.369 115.739C178.16 115.708 177.982 115.282 177.802 115.176C177.623 115.07 177.359 115.341 177.236 115.176C177.113 115.011 177.283 114.81 177.236 114.613C177.189 114.415 177.2 114.249 177.236 114.049Z" fill="#102048"/>
<path d="M169.875 114.613C169.562 114.613 169.308 114.36 169.308 114.049C169.308 113.738 169.562 113.486 169.875 113.486C170.187 113.486 170.441 113.738 170.441 114.049C170.441 114.36 170.187 114.613 169.875 114.613Z" fill="#102048"/>
<path d="M165.911 112.359C165.598 112.359 165.345 112.107 165.345 111.796C165.345 111.485 165.598 111.232 165.911 111.232C166.224 111.232 166.477 111.485 166.477 111.796C166.477 112.107 166.224 112.359 165.911 112.359Z" fill="#102048"/>
<path d="M165.911 115.739C165.935 115.739 165.889 115.747 165.911 115.739C165.933 115.731 166.46 115.754 166.477 115.739C166.494 115.723 166.468 115.759 166.477 115.739C166.487 115.718 166.477 115.761 166.477 115.739C166.477 115.717 166.487 115.759 166.477 115.739C166.468 115.718 166.494 115.191 166.477 115.176C166.213 114.922 165.788 114.872 165.911 114.612C166.034 114.353 166.233 114.049 166.477 114.049C167.002 114.049 167.564 113.093 167.61 112.922C167.618 112.9 167.612 112.946 167.61 112.922C167.607 112.899 167.622 112.943 167.61 112.922C167.597 112.901 167.63 112.937 167.61 112.922C167.589 112.908 167.635 112.928 167.61 112.922C167.584 112.917 167.635 112.918 167.61 112.922C167.584 112.927 167.065 112.909 167.043 112.922C167.022 112.936 167.057 112.902 167.043 112.922C167.03 112.942 167.047 112.899 167.043 112.922C166.948 113.281 166.625 114.049 166.477 114.049C166.226 114.049 165.568 114.131 165.345 114.612C165.183 114.956 165.408 115.256 165.911 115.739C165.886 115.731 165.93 115.755 165.911 115.739C165.885 115.741 165.935 115.747 165.911 115.739Z" fill="#102048"/>
<path d="M165.911 117.992C165.944 117.992 165.883 118.005 165.911 117.992C167.035 117.461 168.731 117.988 168.742 117.992C168.761 118 168.72 117.99 168.742 117.992C168.764 117.994 168.721 117.996 168.742 117.992C168.764 117.988 168.725 118.002 168.742 117.992C168.76 117.983 168.731 118.006 168.742 117.992C168.753 117.979 168.739 118.008 168.742 117.992C168.745 117.977 168.748 118.007 168.742 117.992C168.736 117.977 168.756 117.441 168.742 117.429C168.729 117.417 168.762 117.437 168.742 117.429C168.688 117.407 167.208 117.38 165.911 117.992C165.92 117.961 165.874 118.01 165.911 117.992C165.886 117.966 165.902 118.023 165.911 117.992C165.886 117.983 165.926 118.008 165.911 117.992C165.883 117.993 165.935 118.001 165.911 117.992Z" fill="#102048"/>
<path d="M169.875 111.232C169.54 111.707 170.325 112.088 171.007 112.359C171.69 112.63 172.546 113.148 172.706 112.922C172.866 112.696 172.256 112.069 171.574 111.796C170.892 111.523 170.134 110.865 169.875 111.232Z" fill="#102048"/>
<path d="M167.61 110.106C167.458 110.494 167.085 110.782 166.477 110.669C165.869 110.557 165.275 109.728 165.345 109.542C165.415 109.357 165.869 109.433 166.477 109.542C167.085 109.652 167.724 109.805 167.61 110.106Z" fill="#102048"/>
<path opacity="0.4" d="M171.423 118.205C170.734 117.572 170.691 116.501 171.326 115.815C171.961 115.128 173.035 115.085 173.724 115.718C174.413 116.352 174.456 117.422 173.821 118.109C173.185 118.796 172.112 118.839 171.423 118.205Z" fill="#EB5D60"/>
<path d="M177.604 119.091C176.745 117.981 176.879 116.087 178.116 115.135C179.353 114.184 181.225 114.535 182.083 115.644C182.942 116.753 182.462 118.201 181.226 119.153C179.989 120.104 178.463 120.2 177.604 119.091Z" fill="#F9B384"/>
<path d="M178.369 117.992C178.409 117.992 178.34 118.026 178.369 117.992C178.397 117.958 178.935 118.04 178.935 117.992C178.934 117.73 178.832 117.098 178.935 116.866C179.038 116.633 179.318 116.45 179.501 116.302C179.645 116.179 179.891 116.331 180.067 116.302C180.244 116.273 180.467 116.23 180.634 116.302C180.653 116.315 180.612 116.3 180.634 116.302C180.655 116.304 180.613 116.311 180.634 116.302C180.654 116.294 180.618 116.32 180.634 116.302C180.649 116.285 180.625 116.326 180.634 116.302C180.642 116.279 180.634 116.328 180.634 116.302C180.633 116.277 180.643 115.762 180.634 115.739C180.624 115.716 180.65 115.755 180.634 115.739C180.617 115.722 180.654 115.746 180.634 115.739C180.42 115.643 180.294 115.705 180.067 115.739C179.841 115.773 179.121 116.146 178.935 116.302C178.71 116.482 178.496 116.581 178.369 116.866C178.242 117.15 178.367 117.671 178.369 117.992C178.361 117.97 178.368 118.017 178.369 117.992C178.354 117.975 178.376 118.015 178.369 117.992C178.35 117.983 178.383 118.01 178.369 117.992C178.348 117.992 178.388 118.002 178.369 117.992Z" fill="#102048"/>
<path d="M203.371 130.52L209.513 137.146L209.098 137.529L202.955 130.903L203.371 130.52Z" fill="#102048"/>
<path d="M159.116 159.68V159.116C154.46 157.727 150.185 156.247 146.092 151.229H145.525C149.699 156.336 154.397 158.271 159.116 159.68Z" fill="#102048"/>
<path d="M155.718 144.469H195.357C196.762 144.469 197.622 145.773 197.622 147.286V174.89C197.622 176.402 196.762 177.706 195.357 177.706H155.718C154.313 177.706 153.453 176.402 153.453 174.89V147.286C153.452 145.78 154.313 144.469 155.718 144.469Z" fill="#D3DFFF"/>
<path d="M173.839 159.117C173.765 159.12 173.889 159.626 173.839 159.68C173.789 159.734 173.27 159.607 173.272 159.68V162.497C173.27 162.57 173.789 162.443 173.839 162.497C173.889 162.55 173.765 163.057 173.839 163.06H177.803C177.876 163.057 177.752 162.55 177.803 162.497C177.853 162.443 178.371 162.57 178.369 162.497V159.68C178.371 159.607 177.853 159.734 177.803 159.68C177.752 159.626 177.876 159.12 177.803 159.117H173.839ZM173.839 158.553H177.803C178.087 158.557 178.17 158.914 178.369 159.117C178.568 159.319 178.938 159.397 178.935 159.68V162.497C178.938 162.779 178.568 162.858 178.369 163.06C178.17 163.262 178.087 163.62 177.803 163.623H173.839C173.554 163.62 173.472 163.262 173.272 163.06C173.073 162.858 172.704 162.779 172.706 162.497V159.68C172.704 159.397 173.073 159.319 173.272 159.117C173.472 158.914 173.554 158.557 173.839 158.553Z" fill="#1F3C88"/>
<path d="M235 206.437H0V207H235V206.437Z" fill="#102048"/>
</svg>
