<svg width="216" height="143" viewBox="0 0 216 143" fill="none" xmlns="http://www.w3.org/2000/svg">
<path d="M164.849 31.8728L157.664 38.3183C156.526 39.3235 148.829 31.2822 148.829 31.2822L146.712 33.1108C146.712 33.1108 153.926 42.0437 156.6 42.2368C159.274 42.4298 166.704 36.5579 166.704 36.5579L164.849 31.8728Z" fill="#FFEDED"/>
<path d="M160.275 35.3712L163.011 40.0108L165.856 38.3072L170.612 35.3996V24.9277C170.612 24.9277 163.137 29.8172 160.275 35.3712Z" fill="#9468B4"/>
<path opacity="0.2" d="M165.873 38.279L170.629 35.3714V35.3033C170.299 34.0426 170.021 33.0317 170.021 33.0317C170.021 33.0317 165.048 35.3885 165.873 38.279Z" fill="black"/>
<path d="M200.054 37.728C200.054 37.728 204.088 42.5437 203.564 44.9061C203.041 47.2685 199.496 48.5974 199.496 48.5974L195.457 48.2339C195.457 48.2339 198.871 45.7863 198.871 44.9061C198.871 44.0259 196.339 41.6408 196.339 41.6408L200.054 37.728Z" fill="#FFEDED"/>
<path d="M167.148 61.4887L189.563 63.056C189.491 55.9189 189.781 48.7828 190.433 41.6751C190.559 40.3046 190.684 39.0098 190.809 37.7907C191.509 31.1976 192.225 26.9157 192.225 26.9157H192.157L170.601 24.9395C166.106 40.2667 167.148 61.4887 167.148 61.4887Z" fill="#9468B4"/>
<path d="M167.153 61.4941C167.153 61.4941 155.951 97.9695 156.634 110.134C157.374 123.473 175.34 151.533 175.34 151.533L182.11 147.262C182.11 147.262 169.423 119.617 168.945 109.395C169.645 94.5849 183.379 62.664 183.379 62.664L167.153 61.4941Z" fill="#263238"/>
<path opacity="0.2" d="M178.139 71.4153C174.401 73.6868 172.916 83.4431 173.707 88.3894C175.733 82.1427 178.042 75.9527 179.891 71.2165C179.607 71.0932 179.296 71.0467 178.989 71.0816C178.681 71.1165 178.388 71.2315 178.139 71.4153V71.4153Z" fill="black"/>
<path d="M185.99 26.5407C185.08 27.3641 180.363 27.898 180.363 27.898L178.549 30.6295L177.689 26.7395C177.689 26.7395 176.125 26.3703 176.455 25.882C176.97 25.8357 177.471 25.6873 177.928 25.4455C178.385 25.2036 178.79 24.8732 179.117 24.4736C179.914 23.3889 179.857 21.8727 179.601 20.3962C179.601 20.3962 179.601 20.3564 179.601 20.3394L183.271 17.6362L185.797 15.7622C184.977 18.7834 183.982 24.3487 185.99 26.5407Z" fill="#FFEDED"/>
<path opacity="0.2" d="M184.761 18.3629C183.982 21.9122 180.779 23.9737 179.118 24.4734C179.914 23.3887 179.857 21.8725 179.601 20.396C179.604 20.3753 179.604 20.3542 179.601 20.3335L183.271 17.6304C183.35 18.1812 184.875 17.8178 184.761 18.3629Z" fill="black"/>
<path d="M175.101 62.0449C175.101 62.0449 177.479 97.9694 179.254 110.134C181.194 123.473 185.347 152.572 185.347 152.572H193.033C193.033 152.572 191.463 124.745 190.758 111.61C189.921 96.669 189.586 63.0558 189.586 63.0558L175.101 62.0449Z" fill="#263238"/>
<path d="M180.221 3.09285C179.478 2.90448 178.696 2.94591 177.978 3.21164C177.259 3.47737 176.639 3.95484 176.199 4.58071C174.429 6.81819 175.727 8.30606 175.727 8.30606C175.85 7.66863 176.129 7.0716 176.54 6.56832C176.54 6.56832 175.505 8.83987 177.746 11.526C179.988 14.2121 186.587 17.29 186.587 17.29C186.587 17.29 190.604 15.717 191.764 12.1336C192.925 8.55025 192.902 6.00043 188.698 3.67778C184.494 1.35512 180.335 0.685013 180.221 3.09285Z" fill="#263238"/>
<path d="M187.549 11.719C187.077 15.3705 186.929 17.6988 185.342 19.5501C185.129 19.797 184.897 20.0267 184.647 20.2373C181.268 23.2244 176.279 20.9642 175.545 16.7561C175.421 15.992 175.364 15.2187 175.374 14.4448C175.374 10.8615 176.688 6.59663 180.09 5.48357C181.016 5.17183 182.007 5.10325 182.966 5.28446C183.926 5.46567 184.823 5.89055 185.571 6.51818C186.319 7.1458 186.892 7.95503 187.235 8.86792C187.579 9.78081 187.681 10.7666 187.532 11.7303L187.549 11.719Z" fill="#FFEDED"/>
<path d="M181.165 12.4343C181.165 12.7694 180.949 13.0306 180.722 13.0022C180.494 12.9738 180.341 12.6956 180.363 12.3605C180.386 12.0255 180.591 11.7642 180.807 11.7926C181.023 11.821 181.188 12.0879 181.165 12.4343Z" fill="#263238"/>
<path d="M177.343 12.1677C177.343 12.5028 177.121 12.764 176.899 12.7356C176.677 12.7072 176.523 12.429 176.54 12.0939C176.557 11.7589 176.768 11.4976 176.984 11.526C177.2 11.5544 177.365 11.8441 177.343 12.1677Z" fill="#263238"/>
<path d="M178.549 12.4175C178.073 13.421 177.461 14.3537 176.728 15.1888C176.949 15.3708 177.207 15.5027 177.484 15.5752C177.761 15.6478 178.05 15.6593 178.332 15.609L178.549 12.4175Z" fill="#DCDCDC"/>
<path d="M182.554 11.1169C182.518 11.126 182.481 11.1261 182.445 11.1172C182.409 11.1083 182.376 11.0906 182.349 11.0658C182.176 10.8864 181.964 10.7498 181.729 10.667C181.494 10.5842 181.242 10.5574 180.995 10.5888C180.97 10.5945 180.943 10.5951 180.918 10.5905C180.892 10.5859 180.867 10.5761 180.846 10.5618C180.824 10.5474 180.805 10.5289 180.791 10.5072C180.776 10.4854 180.767 10.461 180.762 10.4354C180.752 10.3851 180.761 10.3327 180.789 10.2892C180.816 10.2458 180.86 10.2148 180.91 10.2026C181.219 10.155 181.535 10.1818 181.832 10.2805C182.129 10.3793 182.398 10.5472 182.616 10.7705C182.653 10.8076 182.673 10.8576 182.673 10.9096C182.673 10.9616 182.653 11.0116 182.616 11.0487V11.0487L182.554 11.1169Z" fill="#263238"/>
<path d="M179.26 17.3975C179.747 17.3376 180.212 17.1612 180.616 16.8834C181.02 16.6056 181.351 16.2345 181.581 15.8018C181.587 15.7895 181.59 15.7762 181.59 15.7626C181.591 15.7491 181.589 15.7356 181.584 15.7229C181.579 15.7102 181.572 15.6986 181.563 15.6888C181.553 15.6789 181.542 15.671 181.53 15.6655C181.518 15.6588 181.505 15.6546 181.491 15.6533C181.478 15.652 181.464 15.6535 181.451 15.6578C181.439 15.6621 181.427 15.669 181.417 15.6782C181.407 15.6873 181.399 15.6985 181.393 15.7109C181.172 16.1065 180.861 16.4453 180.486 16.7006C180.111 16.9558 179.681 17.1205 179.231 17.1817C179.218 17.1824 179.205 17.1858 179.193 17.1917C179.181 17.1976 179.171 17.2058 179.162 17.216C179.154 17.2261 179.147 17.2378 179.144 17.2505C179.14 17.2632 179.139 17.2765 179.14 17.2896V17.2896C179.142 17.3031 179.146 17.3161 179.152 17.328C179.159 17.3399 179.168 17.3503 179.178 17.3588C179.189 17.3672 179.201 17.3735 179.214 17.3772C179.227 17.381 179.241 17.3821 179.254 17.3805L179.26 17.3975Z" fill="#263238"/>
<path d="M175.869 10.2367C175.828 10.2295 175.79 10.2097 175.761 10.1799C175.746 10.1588 175.736 10.1349 175.73 10.1096C175.725 10.0843 175.724 10.0582 175.729 10.0328C175.734 10.0074 175.744 9.98315 175.758 9.9616C175.772 9.94004 175.791 9.92159 175.812 9.90732V9.90732C176.072 9.72611 176.371 9.60985 176.685 9.56834C176.999 9.52683 177.318 9.56129 177.616 9.66881C177.663 9.6911 177.7 9.73056 177.719 9.77912C177.738 9.82768 177.738 9.88167 177.718 9.93004V9.93004C177.696 9.97718 177.656 10.014 177.608 10.033C177.559 10.052 177.505 10.0517 177.456 10.0323V10.0323C177.219 9.95398 176.967 9.93221 176.72 9.9687C176.473 10.0052 176.238 10.0989 176.034 10.2424C175.981 10.2617 175.921 10.2597 175.869 10.2367V10.2367Z" fill="#263238"/>
<path d="M177.689 6.94826C178.657 6.63024 179.629 7.51615 179.629 7.51615C180.924 7.40443 182.226 7.40443 183.521 7.51615C184.79 7.73195 185.159 8.99833 185.267 9.31067C185.376 9.623 184.767 10.242 184.767 10.242C184.767 10.242 184.903 14.0639 184.955 15.1202L186.519 17.9596C188.256 15.2453 189.196 12.0996 189.233 8.87907C189.284 3.4444 178.549 3.70562 178.549 3.70562L177.689 6.94826Z" fill="#263238"/>
<path d="M189.102 16.4097C188.482 17.2528 187.554 17.818 186.519 17.9827C185.142 18.1815 184.63 16.9151 185.154 15.7112C185.632 14.6492 186.917 13.2182 188.226 13.5816C189.534 13.9451 189.853 15.3648 189.102 16.4097Z" fill="#FFEDED"/>
<path d="M147.4 33.7189C147.4 33.7189 143.116 33.3497 142.155 32.9976C141.194 32.6456 141.432 29.5903 141.501 29.0849C141.569 28.5795 147.497 29.6528 148.424 30.1185C149.352 30.5841 149.864 32.8386 149.864 32.8386L147.4 33.7189Z" fill="#FFEDED"/>
<path d="M215.458 47.3226L165.643 43.4878L163.02 77.4375L212.835 81.2722L215.458 47.3226Z" fill="#9468B4"/>
<path opacity="0.7" d="M215.458 47.3226L165.643 43.4878L163.02 77.4375L212.835 81.2722L215.458 47.3226Z" fill="#FFEDED"/>
<path d="M215.458 47.3226L165.643 43.4878L163.02 77.4375L212.835 81.2722L215.458 47.3226Z" stroke="black" stroke-width="0.5" stroke-miterlimit="10"/>
<path d="M166.191 43.0098L165.175 42.9316L165.097 43.9451L166.112 44.0233L166.191 43.0098Z" fill="black"/>
<path d="M163.572 76.9571L162.557 76.8789L162.478 77.8924L163.494 77.9706L163.572 76.9571Z" fill="black"/>
<path d="M213.381 80.7974L212.366 80.7192L212.287 81.7328L213.303 81.8109L213.381 80.7974Z" fill="black"/>
<path d="M216 46.8614L214.985 46.7832L214.906 47.7967L215.922 47.8749L216 46.8614Z" fill="black"/>
<path d="M212.257 75.5301L164.468 71.8511L164.103 76.5732L211.892 80.2523L212.257 75.5301Z" fill="#9468B4"/>
<path opacity="0.2" d="M207.433 77.9403L168.854 74.9703C168.741 74.9616 168.635 74.9083 168.56 74.8222C168.486 74.736 168.448 74.6239 168.456 74.5103V74.5103C168.46 74.4536 168.476 74.3982 168.502 74.3475C168.528 74.2967 168.563 74.2516 168.607 74.2147C168.65 74.1777 168.7 74.1497 168.754 74.1322C168.809 74.1147 168.866 74.1081 168.923 74.1128L207.495 77.0828C207.609 77.0915 207.715 77.1448 207.789 77.231C207.864 77.3171 207.901 77.4292 207.893 77.5428V77.5428C207.885 77.6564 207.831 77.7618 207.745 77.8363C207.659 77.9108 207.546 77.9481 207.433 77.9403Z" fill="black"/>
<path d="M184.107 63.1012L184.699 55.4688L194.478 60.063L184.107 63.1012Z" fill="#9468B4"/>
<path d="M174.692 75.0211C174.677 75.2002 174.611 75.3712 174.499 75.5124C174.388 75.6536 174.237 75.7586 174.066 75.8142C173.894 75.8698 173.711 75.8735 173.537 75.8247C173.364 75.776 173.209 75.6771 173.092 75.5405C172.975 75.4038 172.901 75.2357 172.88 75.0572C172.859 74.8787 172.891 74.698 172.973 74.5379C173.055 74.3777 173.182 74.2453 173.339 74.1575C173.496 74.0696 173.676 74.0302 173.855 74.0443C174.095 74.0646 174.318 74.1785 174.474 74.3613C174.631 74.5441 174.709 74.7812 174.692 75.0211V75.0211Z" fill="#9468B4"/>
<path opacity="0.4" d="M174.692 75.0211C174.677 75.2002 174.611 75.3712 174.499 75.5124C174.388 75.6536 174.237 75.7586 174.066 75.8142C173.894 75.8698 173.711 75.8735 173.537 75.8247C173.364 75.776 173.209 75.6771 173.092 75.5405C172.975 75.4038 172.901 75.2357 172.88 75.0572C172.859 74.8787 172.891 74.698 172.973 74.5379C173.055 74.3777 173.182 74.2453 173.339 74.1575C173.496 74.0696 173.676 74.0302 173.855 74.0443C174.095 74.0646 174.318 74.1785 174.474 74.3613C174.631 74.5441 174.709 74.7812 174.692 75.0211V75.0211Z" fill="#FFEDED"/>
<path d="M185.529 24.4735L180.364 26.9211L178.549 30.4591V26.4839C178.549 26.4839 177.815 25.6888 178.549 24.1328L175.357 25.3481L173.918 29.0053L177.638 27.455L178.549 31.2711L180.364 28.25L182.69 30.8566L187.612 26.4725L185.529 24.4735Z" fill="#9468B4"/>
<path opacity="0.2" d="M185.529 24.4735L180.364 26.9211L178.549 30.4591V26.4839C178.549 26.4839 177.815 25.6888 178.549 24.1328L175.357 25.3481L173.918 29.0053L177.638 27.455L178.549 31.2711L180.364 28.25L182.69 30.8566L187.612 26.4725L185.529 24.4735Z" fill="black"/>
<path opacity="0.2" d="M189.5 37.5977C189.593 38.9976 189.908 40.3739 190.433 41.6751C190.558 40.3046 190.684 39.0098 190.809 37.7907L189.5 37.5977Z" fill="black"/>
<path d="M192.225 26.9209C196.595 28.8233 202.284 39.2497 202.284 39.2497L197.243 43.8326L189.478 37.5858L192.225 26.9209Z" fill="#9468B4"/>
<path d="M193.511 45.9968C193.511 45.9968 194.08 43.2142 194.62 43.1574C195.161 43.1006 199.286 43.8275 199.542 44.5885C199.798 45.3495 200.014 47.2178 198.973 47.3257C197.932 47.4336 193.181 47.3257 193.511 45.9968Z" fill="#FFEDED"/>
<path d="M107.906 32.6856C108.782 31.7145 110.944 29.9995 108.475 28.0119C106.006 26.0243 106.967 22.2308 109.613 22.3047C112.258 22.3785 109.784 20.6635 109.892 17.631C110 14.5984 113.874 14.2236 116.099 15.7626C118.323 17.3016 120.081 13.332 122.926 14.0249C125.77 14.7177 124.757 17.205 125.4 19.8173C126.043 22.4296 130.219 20.283 131.51 23.2246C132.802 26.1663 130.606 25.9959 130.811 29.1874C131.016 32.379 133.627 32.9582 133.377 35.4058C133.126 37.8534 127.886 38.109 128.256 41.7037C128.626 45.2984 126.43 48.1549 123.489 46.667C120.547 45.1791 121.128 49.8245 117.231 48.8023C113.334 47.7801 112.748 44.9804 112.679 42.2205C112.611 39.4605 109.931 41.5504 108.156 40.3748C106.381 39.1993 105.101 35.809 107.906 32.6856Z" fill="#2E353A"/>
<path d="M105.693 63.215L107.093 38.9038L128.325 39.6023L124.399 64.8335L105.693 63.215Z" fill="#9468B4"/>
<path opacity="0.7" d="M105.693 63.215L107.093 38.9038L128.325 39.6023L124.399 64.8335L105.693 63.215Z" fill="#FFEDED"/>
<path d="M107.707 68.5815C107.707 68.5815 101.915 99.4008 100.368 112.053C98.3484 128.562 90.0934 152.714 90.0934 152.714L93.3931 153.566C93.3931 153.566 105.033 133.042 107.303 114.58C116.554 95.7038 117.299 72.4829 117.299 72.4829L107.707 68.5815Z" fill="#FFEDED"/>
<path d="M113.726 68.0874C113.726 68.0874 114.443 99.4404 115.552 112.138C116.997 128.709 113.925 154.043 113.925 154.043L117.339 154.19C117.339 154.19 124.479 131.708 122.874 113.172C127.995 92.8018 123.927 69.9103 123.927 69.9103L113.726 68.0874Z" fill="#FFEDED"/>
<path d="M115.319 42.192C119.666 41.6241 120.974 39.7841 120.974 39.7841C118.215 37.1889 120.508 32.6855 120.508 32.6855L115.274 33.6623C115.393 34.3893 115.461 35.1236 115.478 35.86C115.518 39.0288 114.079 39.0629 114.079 39.0629C113.163 40.7779 115.319 42.192 115.319 42.192Z" fill="#FFEDED"/>
<path opacity="0.2" d="M115.274 33.6623C115.393 34.3893 115.461 35.1236 115.478 35.86C119.011 35.86 120.508 32.6855 120.508 32.6855L115.274 33.6623Z" fill="black"/>
<path d="M118.164 19.0503C113.612 18.8004 112.019 21.1514 111.428 25.8138C110.688 31.6403 111.763 35.8654 117.521 34.9284C125.338 33.6563 125.719 19.4648 118.164 19.0503Z" fill="#FFEDED"/>
<path d="M114.38 25.7231C113.98 26.3826 113.5 26.9909 112.952 27.5347C113.078 27.7267 113.253 27.8811 113.459 27.9811C113.666 28.0812 113.896 28.1232 114.124 28.1026L114.38 25.7231Z" fill="#A3A3A3"/>
<path d="M117.185 25.5015C117.185 25.8763 117.339 26.1943 117.584 26.2114C117.828 26.2284 118.061 25.9445 118.09 25.5753C118.118 25.2062 117.942 24.8825 117.692 24.8655C117.441 24.8484 117.219 25.1324 117.185 25.5015Z" fill="#2E353A"/>
<path d="M117.794 24.8883L117.009 24.5078C117.009 24.5078 117.356 25.2234 117.794 24.8883Z" fill="#2E353A"/>
<path d="M112.554 25.0644C112.526 25.4335 112.702 25.7515 112.953 25.7742C113.203 25.7969 113.425 25.5073 113.453 25.1325C113.482 24.7577 113.305 24.4454 113.055 24.4226C112.805 24.3999 112.583 24.6895 112.554 25.0644Z" fill="#2E353A"/>
<path d="M113.157 24.4508L112.372 24.0703C112.372 24.0703 112.725 24.7802 113.157 24.4508Z" fill="#2E353A"/>
<path d="M117.436 22.3042C117.798 22.3057 118.156 22.3898 118.482 22.5502C118.807 22.7107 119.091 22.9431 119.313 23.2298" stroke="#2E353A" stroke-width="0.72468" stroke-linecap="round" stroke-linejoin="round"/>
<path d="M114.102 21.8843C113.786 21.8263 113.46 21.8412 113.151 21.9278C112.841 22.0144 112.555 22.1705 112.315 22.3841" stroke="#2E353A" stroke-width="0.72468" stroke-linecap="round" stroke-linejoin="round"/>
<path d="M122.715 26.9781C122.715 26.9781 120.792 23.1279 121.276 20.2657C121.276 20.2657 112.463 16.0974 111.513 25.2063C111.513 25.2063 111.081 17.0458 118.909 17.2957C126.738 17.5455 126.083 28.9601 121.856 32.1459C121.856 32.1629 123.904 29.3803 122.715 26.9781Z" fill="#2E353A"/>
<path d="M121.924 27.8925C121.959 27.6331 122.045 27.3832 122.177 27.157C122.309 26.9309 122.485 26.733 122.694 26.5747C122.902 26.4164 123.14 26.3008 123.394 26.2346C123.648 26.1684 123.912 26.1528 124.172 26.1888C125.571 26.416 126.083 29.3406 122.539 29.846C122.033 29.9255 121.777 29.4201 121.924 27.8925Z" fill="#FFEDED"/>
<path d="M116.867 28.3184C116.867 28.3184 116.525 30.022 114.227 30.022" stroke="#2E353A" stroke-width="0.72468" stroke-linecap="round" stroke-linejoin="round"/>
<path d="M105.727 63.4365L94.6049 128.653C94.6049 128.653 121.515 131.856 130.64 129.982C130.64 129.982 132.876 83.3069 123.352 64.8903L105.727 63.4365Z" fill="#9468B4"/>
<path d="M105.693 63.2148L105.17 66.7017L124.786 68.0873L124.479 64.3165L105.693 63.2148Z" fill="black"/>
<path d="M115.24 63.6125C115.029 63.3853 109.897 62.9764 109.476 63.391C109.476 63.391 108.947 66.8551 109.158 67.1788C109.368 67.5025 114.318 67.5422 114.779 67.5763C115.24 67.6104 115.439 63.8396 115.24 63.6125ZM114.318 67.1845C113.942 67.1845 109.875 67.1277 109.704 66.8608C109.533 66.5939 109.966 63.7487 109.966 63.7487C110.313 63.408 114.517 63.7487 114.699 63.9305C114.881 64.1122 114.671 67.2129 114.307 67.1845H114.318Z" fill="#FFEDED"/>
<path d="M114.198 64.9074L113.186 64.8393C113.092 64.8311 113 64.859 112.927 64.9171C112.854 64.9753 112.806 65.0592 112.793 65.1516V65.1516C112.784 65.2032 112.786 65.2561 112.799 65.3067C112.812 65.3574 112.836 65.4047 112.869 65.4455C112.902 65.4864 112.943 65.5197 112.99 65.5435C113.036 65.5672 113.088 65.5808 113.14 65.5832L114.158 65.64C114.251 65.6357 114.339 65.5975 114.405 65.5326C114.471 65.4677 114.51 65.3807 114.516 65.2884C114.522 65.1961 114.493 65.105 114.435 65.0326C114.378 64.9602 114.295 64.9115 114.204 64.8961L114.198 64.9074Z" fill="#FFEDED"/>
<path d="M128.325 39.6021C131.892 41.919 129.411 60.5514 114.227 74.8111L112.548 72.7212C112.548 72.7212 122.396 59.1317 123.557 53.4755C126.168 40.7378 128.325 39.6021 128.325 39.6021Z" fill="#FFEDED"/>
<path d="M107.093 38.9037C105.386 38.4437 102.155 48.6259 102.155 57.962C102.155 63.2149 103.696 73.3347 103.696 73.3347L106.382 71.631C106.382 71.631 105.5 57.0193 105.693 55.6734C105.887 54.3275 107.884 45.5139 107.884 45.5139C108.242 44.2595 108.45 42.967 108.504 41.6636C108.483 41.1291 108.345 40.6055 108.102 40.129C107.858 39.6525 107.514 39.2344 107.093 38.9037V38.9037Z" fill="#FFEDED"/>
<path d="M137.689 76.7969L87.7667 74.7954L86.3978 108.818L136.32 110.82L137.689 76.7969Z" fill="#9468B4"/>
<path opacity="0.7" d="M137.689 76.7969L87.7667 74.7954L86.3978 108.818L136.32 110.82L137.689 76.7969Z" fill="#FFEDED"/>
<path d="M137.689 76.7969L87.7667 74.7954L86.3978 108.818L136.32 110.82L137.689 76.7969Z" stroke="black" stroke-width="0.5" stroke-miterlimit="10"/>
<path d="M88.2921 74.3118L87.2745 74.271L87.2337 75.2867L88.2512 75.3275L88.2921 74.3118Z" fill="black"/>
<path d="M86.914 108.337L85.8965 108.296L85.8556 109.312L86.8731 109.352L86.914 108.337Z" fill="black"/>
<path d="M136.835 110.341L135.818 110.3L135.777 111.316L136.794 111.356L136.835 110.341Z" fill="black"/>
<path d="M138.219 76.3098L137.201 76.269L137.161 77.2847L138.178 77.3255L138.219 76.3098Z" fill="black"/>
<path d="M133.564 81.6373L104.959 80.5015C104.903 80.4993 104.847 80.486 104.796 80.4622C104.744 80.4383 104.698 80.4046 104.66 80.3628C104.622 80.3211 104.593 80.2722 104.574 80.219C104.555 80.1658 104.547 80.1093 104.55 80.0529V80.0529C104.554 79.9394 104.603 79.8323 104.686 79.7547C104.769 79.6771 104.88 79.6353 104.993 79.6383L133.598 80.7741C133.655 80.7756 133.711 80.7882 133.762 80.8114C133.814 80.8345 133.86 80.8676 133.899 80.9088C133.938 80.9501 133.968 80.9985 133.987 81.0515C134.007 81.1044 134.016 81.1607 134.014 81.2171C134.012 81.2742 134 81.3306 133.976 81.3827C133.953 81.4349 133.919 81.4819 133.877 81.521C133.835 81.5601 133.786 81.5905 133.732 81.6105C133.679 81.6305 133.622 81.6396 133.564 81.6373Z" fill="#9468B4"/>
<path d="M133.445 84.7717L104.834 83.636C104.778 83.6338 104.723 83.6206 104.672 83.5971C104.621 83.5736 104.575 83.5404 104.537 83.4993C104.499 83.4581 104.47 83.4099 104.45 83.3573C104.431 83.3048 104.422 83.2489 104.424 83.193V83.193C104.426 83.1361 104.439 83.08 104.462 83.0281C104.486 82.9762 104.519 82.9296 104.561 82.8909C104.603 82.8523 104.653 82.8224 104.706 82.8031C104.76 82.7838 104.817 82.7754 104.874 82.7784L133.479 83.9142C133.593 83.9201 133.7 83.9705 133.776 84.0545C133.853 84.1385 133.893 84.2493 133.889 84.3629V84.3629C133.883 84.4753 133.833 84.581 133.75 84.6574C133.667 84.7338 133.558 84.7748 133.445 84.7717Z" fill="#9468B4"/>
<path d="M133.308 87.9011L104.703 86.7654C104.646 86.7632 104.591 86.7498 104.539 86.7261C104.487 86.7023 104.441 86.6687 104.402 86.627C104.364 86.5853 104.334 86.5365 104.314 86.4832C104.295 86.43 104.286 86.3734 104.288 86.3167C104.29 86.2603 104.304 86.2048 104.327 86.1536C104.351 86.1024 104.385 86.0564 104.427 86.0184C104.469 85.9803 104.518 85.9509 104.571 85.932C104.624 85.913 104.681 85.9048 104.737 85.9079L133.343 87.0436C133.457 87.0495 133.564 87.0997 133.642 87.1836C133.719 87.2674 133.761 87.3782 133.758 87.4923C133.752 87.6057 133.701 87.7123 133.617 87.7889C133.533 87.8654 133.422 87.9058 133.308 87.9011V87.9011Z" fill="#9468B4"/>
<path d="M133.177 91.036L104.572 89.9002C104.458 89.8943 104.351 89.8441 104.273 89.7602C104.196 89.6764 104.154 89.5656 104.157 89.4515V89.4515C104.159 89.3948 104.173 89.3391 104.196 89.2876C104.22 89.2361 104.254 89.1897 104.296 89.1512C104.337 89.1127 104.386 89.0828 104.44 89.0632C104.493 89.0436 104.55 89.0347 104.606 89.037L133.212 90.1727C133.326 90.1786 133.433 90.2289 133.511 90.3127C133.588 90.3965 133.63 90.5073 133.627 90.6214V90.6214C133.625 90.6781 133.611 90.7338 133.588 90.7853C133.564 90.8368 133.53 90.8832 133.488 90.9217C133.447 90.9602 133.398 90.9901 133.344 91.0097C133.291 91.0293 133.234 91.0382 133.177 91.036Z" fill="#9468B4"/>
<path d="M133.047 94.1702L91.2483 92.4666C91.1915 92.4644 91.1357 92.451 91.0841 92.4273C91.0325 92.4035 90.986 92.3699 90.9475 92.3282C90.9089 92.2865 90.8789 92.2377 90.8593 92.1844C90.8396 92.1312 90.8307 92.0746 90.833 92.0179V92.0179C90.8352 91.9612 90.8486 91.9055 90.8723 91.854C90.8961 91.8025 90.9299 91.7561 90.9716 91.7176C91.0133 91.6791 91.0623 91.6492 91.1156 91.6296C91.169 91.61 91.2256 91.6011 91.2824 91.6034L133.081 93.307C133.138 93.3092 133.193 93.3226 133.245 93.3463C133.297 93.3701 133.343 93.4037 133.382 93.4454C133.42 93.4871 133.45 93.5359 133.47 93.5892C133.489 93.6424 133.498 93.699 133.496 93.7557C133.49 93.8697 133.44 93.9768 133.356 94.0543C133.272 94.1317 133.161 94.1734 133.047 94.1702V94.1702Z" fill="#9468B4"/>
<path d="M132.916 97.2993L91.1173 95.5957C91.0605 95.5935 91.0047 95.5801 90.9531 95.5564C90.9015 95.5326 90.8551 95.499 90.8165 95.4573C90.7779 95.4156 90.7479 95.3668 90.7283 95.3135C90.7087 95.2603 90.6997 95.2037 90.702 95.147C90.7079 95.0335 90.7584 94.927 90.8426 94.8504C90.9267 94.7739 91.0377 94.7335 91.1515 94.7382L132.956 96.4418C133.012 96.444 133.067 96.4572 133.118 96.4807C133.169 96.5041 133.214 96.5374 133.252 96.5785C133.29 96.6196 133.32 96.6679 133.339 96.7204C133.359 96.773 133.367 96.8288 133.365 96.8848V96.8848C133.364 96.9417 133.351 96.9978 133.327 97.0496C133.304 97.1015 133.27 97.1482 133.228 97.1868C133.186 97.2255 133.137 97.2553 133.083 97.2747C133.03 97.294 132.973 97.3024 132.916 97.2993Z" fill="#9468B4"/>
<path d="M132.791 100.434L90.9865 98.7305C90.8723 98.7246 90.765 98.6744 90.6874 98.5906C90.6098 98.5068 90.5681 98.396 90.5712 98.2819V98.2819C90.5771 98.1679 90.6274 98.0608 90.7114 97.9833C90.7954 97.9058 90.9064 97.8642 91.0206 97.8674L132.825 99.571C132.939 99.5769 133.046 99.6271 133.124 99.7109C133.201 99.7948 133.243 99.9055 133.24 100.02C133.234 100.134 133.184 100.241 133.1 100.318C133.016 100.396 132.905 100.437 132.791 100.434V100.434Z" fill="#9468B4"/>
<path d="M132.66 103.563L90.8557 101.86C90.7996 101.858 90.7445 101.844 90.6936 101.821C90.6427 101.798 90.5969 101.764 90.5588 101.723C90.5208 101.682 90.4912 101.634 90.4719 101.581C90.4525 101.529 90.4437 101.473 90.446 101.417C90.4475 101.36 90.4602 101.305 90.4834 101.253C90.5065 101.202 90.5397 101.155 90.581 101.117C90.6223 101.078 90.6709 101.048 90.7239 101.029C90.7769 101.009 90.8333 101 90.8898 101.002L132.694 102.706C132.808 102.712 132.915 102.762 132.993 102.846C133.071 102.93 133.112 103.041 133.109 103.155V103.155C133.103 103.268 133.053 103.375 132.969 103.451C132.884 103.528 132.773 103.568 132.66 103.563V103.563Z" fill="#9468B4"/>
<path d="M132.529 106.698L90.7306 104.994C90.6738 104.992 90.618 104.979 90.5664 104.955C90.5148 104.931 90.4683 104.898 90.4298 104.856C90.3912 104.814 90.3612 104.765 90.3416 104.712C90.3219 104.659 90.313 104.602 90.3153 104.546V104.546C90.3212 104.432 90.3715 104.324 90.4555 104.247C90.5394 104.17 90.6504 104.128 90.7647 104.131L132.563 105.835C132.62 105.837 132.676 105.85 132.727 105.874C132.779 105.898 132.825 105.931 132.864 105.973C132.903 106.015 132.933 106.064 132.952 106.117C132.972 106.17 132.981 106.227 132.978 106.283C132.976 106.34 132.963 106.396 132.939 106.447C132.915 106.499 132.882 106.545 132.84 106.584C132.798 106.622 132.749 106.652 132.696 106.672C132.642 106.691 132.586 106.7 132.529 106.698Z" fill="#9468B4"/>
<path d="M95.8452 81.6941L93.4785 81.5976L93.5126 80.7344L99.2303 80.9729L99.1904 81.8304L96.8237 81.7339L96.5734 87.7762L95.5949 87.7364L95.8452 81.6941Z" fill="#9468B4"/>
<path d="M101.514 79.4497L91.3785 79.0327L90.9608 89.1496L101.096 89.5665L101.514 79.4497Z" stroke="#9468B4" stroke-width="0.5" stroke-miterlimit="10"/>
<path d="M113.009 72.0967C113.009 72.0967 111.303 72.8804 111.075 73.3347C110.847 73.789 108.947 78.8432 109.101 79.5076C109.254 80.172 112.338 80.9955 112.782 80.8308C113.226 80.6661 114.983 74.8452 114.978 74.1127C114.972 73.3801 113.009 72.0967 113.009 72.0967Z" fill="#FFEDED"/>
<path d="M104.641 70.4727C104.641 70.4727 103.127 71.5516 102.968 72.0457C102.809 72.5398 101.887 77.8438 102.16 78.4685C102.433 79.0932 105.613 79.343 106.023 79.0988C106.433 78.8547 107.087 72.8123 106.945 72.0911C106.802 71.3699 104.641 70.4727 104.641 70.4727Z" fill="#FFEDED"/>
<path d="M120.013 37.9443C120.013 37.9443 117.43 40.7838 115.547 41.6697C115.547 41.6697 114.494 39.3641 114.978 37.9443C114.978 37.9443 111.707 39.8013 112.031 42.1921C112.355 44.5829 115.308 42.5385 115.308 42.5385C115.308 42.5385 117.817 44.8101 119.859 43.5323C121.902 42.2546 121.447 39.3754 121.447 39.3754L120.013 37.9443Z" fill="#9468B4"/>
<path d="M115.348 45.0881C115.346 45.2031 115.299 45.3129 115.217 45.3937C115.135 45.4745 115.025 45.5198 114.909 45.5197C114.803 45.5075 114.704 45.4565 114.632 45.3764C114.561 45.2963 114.521 45.1927 114.521 45.0853C114.521 44.978 114.561 44.8743 114.632 44.7942C114.704 44.7141 114.803 44.6631 114.909 44.6509C114.967 44.6509 115.024 44.6622 115.077 44.6842C115.13 44.7061 115.179 44.7383 115.219 44.779C115.26 44.8196 115.292 44.8678 115.314 44.9208C115.336 44.9739 115.348 45.0307 115.348 45.0881V45.0881Z" fill="#9468B4"/>
<path d="M114.506 50.3353C114.506 50.4217 114.48 50.5063 114.432 50.5782C114.384 50.6501 114.315 50.7061 114.235 50.7392C114.155 50.7723 114.067 50.781 113.982 50.7641C113.897 50.7473 113.819 50.7056 113.758 50.6445C113.696 50.5833 113.655 50.5054 113.638 50.4206C113.621 50.3357 113.63 50.2478 113.663 50.1679C113.696 50.088 113.752 50.0197 113.824 49.9717C113.896 49.9236 113.981 49.898 114.067 49.898C114.125 49.8972 114.183 49.908 114.236 49.9297C114.29 49.9514 114.338 49.9836 114.379 50.0244C114.42 50.0651 114.452 50.1136 114.474 50.167C114.495 50.2204 114.506 50.2776 114.506 50.3353V50.3353Z" fill="#9468B4"/>
<path d="M70.7216 27.7101C70.3518 26.8923 70.7216 21.946 70.7216 21.946C70.7216 21.946 76.8204 18.7545 77.7932 17.9708C78.7661 17.1871 79.8698 20.7137 79.2554 21.4463C78.6409 22.1789 76.8204 24.9274 73.771 24.9274L73.3614 28.9481L70.7216 27.7101Z" fill="#FFEDED"/>
<path d="M53.0738 27.3809C54.9739 27.8409 64.1335 33.9229 65.9996 33.7185C67.8656 33.5141 70.0673 25.2002 70.0673 25.2002L73.8734 26.336C73.8734 26.336 73.6913 41.5042 70.2096 43.1454C66.7278 44.7866 52.4138 41.6576 52.4138 41.6576L53.0738 27.3809Z" fill="#263238"/>
<path opacity="0.2" d="M73.8678 26.3476C73.8678 26.3476 73.6914 41.5216 70.2096 43.1628C68.9808 43.7307 66.4206 43.7307 63.6102 43.4694C59.8474 43.0669 56.1083 42.4679 52.4082 41.6749L52.4935 39.9372L53.0625 27.3869C54.957 27.8355 64.1165 33.9233 65.9826 33.7131C67.8486 33.503 70.056 25.1948 70.056 25.1948L73.8678 26.3476Z" fill="#FFEDED"/>
<path opacity="0.2" d="M63.6102 43.4694C59.8474 43.0669 56.1083 42.4679 52.4082 41.6749L52.4935 39.9372C52.8747 38.2335 53.2274 36.7627 53.2274 36.7627C53.2274 36.7627 63.5533 38.9775 63.6102 43.4694Z" fill="black"/>
<path d="M59.7644 157.978H51.7483C51.7483 157.978 51.0087 132.855 53.2275 114.859C53.2275 114.859 51.0258 104.069 49.1029 93.9149C48.1072 88.6733 47.1856 83.5964 46.6736 80.2515C44.6767 106.516 41.6273 113.99 41.6273 113.99C39.9205 140.783 36.3307 157.944 36.3307 157.944H28.1951C27.4385 136.836 31.4664 111.071 31.4664 111.071C28.8835 81.2396 28.747 60.6026 28.7868 57.502H60.2138C62.444 69.7683 68.7703 108.828 59.7644 157.978Z" fill="#9468B4"/>
<path d="M60.1911 57.502H28.7584V60.3357L60.5894 60.0404L60.1911 57.502Z" fill="black"/>
<path d="M38.8624 61.2559H39.9832V56.2301H38.8624V61.2559Z" fill="#9468B4"/>
<path d="M54.7635 61.2559H55.8843V56.2301H54.7635V61.2559Z" fill="#9468B4"/>
<path d="M45.86 60.1763H51.6743V57.0075H45.86V60.1763Z" fill="#FFEDED"/>
<path d="M60.1911 57.5021H28.7641C28.6162 56.1505 28.5081 53.737 28.4285 50.8465C28.3431 47.6493 28.2862 43.8728 28.2521 40.3235C28.1895 33.8212 28.1952 28.0912 28.1952 28.0912C28.1952 28.0912 32.1776 24.4454 41.8492 24.4738C45.8248 24.5608 49.7235 25.5843 53.2276 27.4609C60.1911 45.2982 60.1911 57.5021 60.1911 57.5021Z" fill="#263238"/>
<path d="M34.8401 25.9841C37.5823 28.5225 42.6798 29.3346 42.6798 29.3346C42.6798 29.3346 46.3379 27.4265 47.4302 25.8989C45.5812 24.4735 45.1944 24.3429 44.5856 23.2696C44.257 22.6271 44.1263 21.9019 44.2102 21.1854C44.2406 20.7858 44.3015 20.389 44.3922 19.9985L34.8401 15.8359C36.1998 18.806 37.7643 23.6444 34.8401 25.9841Z" fill="#FFEDED"/>
<path opacity="0.2" d="M37.1271 18.6528C37.696 22.3441 42.3213 23.1619 44.5856 23.2698C44.2569 22.6273 44.1263 21.9021 44.2101 21.1856L37.1271 18.6528Z" fill="black"/>
<path d="M42.4749 4.94385C42.4749 4.94385 48.3177 7.08478 44.7505 13.4962C42.839 16.9036 39.1296 6.00579 39.1296 6.00579L42.4749 4.94385Z" fill="#263238"/>
<path d="M37.332 20.7195C38.2557 21.4626 39.3981 21.8828 40.584 21.9156C41.7699 21.9484 42.9338 21.5921 43.8973 20.9012C45.1627 20.0335 46.0464 18.7144 46.3664 17.2156C46.4144 17.0077 46.4505 16.7973 46.4745 16.5853C46.8955 12.6441 45.496 6.40874 41.104 5.25593C40.1355 4.99598 39.1165 4.98773 38.1439 5.23198C37.1714 5.47622 36.2776 5.96482 35.5477 6.6513C34.8178 7.33777 34.276 8.19927 33.9739 9.15382C33.6718 10.1084 33.6195 11.1242 33.8218 12.1046C34.624 16.3184 34.8914 18.8284 37.332 20.7195Z" fill="#FFEDED"/>
<path d="M40.4381 12.463C40.4381 12.8094 40.6998 13.0649 40.933 13.0308C41.1663 12.9968 41.3028 12.6958 41.263 12.3551C41.2232 12.0143 40.9956 11.7531 40.768 11.7872C40.5405 11.8212 40.3982 12.1109 40.4381 12.463Z" fill="#263238"/>
<path d="M45.7179 12.5308C46.4473 12.8062 47.0572 13.3279 47.4417 14.0052C47.8261 14.6826 47.961 15.4729 47.8228 16.2391C47.1913 20.4869 42.2816 23.7863 37.332 20.7197C32.9001 17.9655 45.7179 12.5308 45.7179 12.5308Z" fill="#FFEDED"/>
<path d="M44.358 11.957C44.358 12.3034 44.6254 12.5589 44.8473 12.5249C45.0692 12.4908 45.2228 12.1898 45.1773 11.8434C45.1318 11.497 44.9099 11.2414 44.688 11.2755C44.4661 11.3096 44.3182 11.6276 44.358 11.957Z" fill="#263238"/>
<path d="M43.135 12.2866C43.6851 13.2928 44.3724 14.2178 45.1774 15.0352C44.9603 15.2348 44.7024 15.3848 44.4214 15.475C44.1405 15.5653 43.8433 15.5934 43.5503 15.5576L43.135 12.2866Z" fill="#DDDDDD"/>
<path d="M45.5812 10.1629C45.5482 10.1813 45.511 10.191 45.4731 10.191C45.4353 10.191 45.3981 10.1813 45.365 10.1629C45.1425 10.0341 44.893 9.95885 44.6362 9.94308C44.3795 9.9273 44.1225 9.97148 43.8859 10.0721C43.8628 10.085 43.8373 10.0933 43.811 10.0963C43.7847 10.0993 43.758 10.097 43.7326 10.0896C43.7072 10.0822 43.6835 10.0698 43.6629 10.0531C43.6423 10.0365 43.6253 10.0159 43.6128 9.99258C43.5997 9.9691 43.5914 9.94325 43.5883 9.91655C43.5852 9.88985 43.5874 9.8628 43.5948 9.83695C43.6022 9.8111 43.6146 9.78697 43.6314 9.76593C43.6481 9.74488 43.6689 9.72734 43.6924 9.71431V9.71431C43.9888 9.5793 44.3131 9.51661 44.6386 9.53142C44.9641 9.54624 45.2813 9.63812 45.5642 9.79949C45.6116 9.82591 45.647 9.86963 45.6629 9.92149C45.6788 9.97335 45.674 10.0294 45.6495 10.0778V10.0778C45.6347 10.1117 45.6111 10.141 45.5812 10.1629V10.1629Z" fill="#263238"/>
<path d="M39.4654 11.0035C39.4267 11.0169 39.3846 11.0169 39.3459 11.0035C39.3087 10.9644 39.288 10.9126 39.288 10.8587C39.288 10.8048 39.3087 10.7529 39.3459 10.7139V10.7139C39.5561 10.4643 39.8238 10.2693 40.126 10.1457C40.4282 10.0221 40.756 9.97344 41.0811 10.004C41.1335 10.0124 41.1806 10.0408 41.2124 10.0832C41.2443 10.1255 41.2584 10.1786 41.2518 10.2311V10.2311C41.2421 10.2839 41.2125 10.3309 41.1691 10.3626C41.1257 10.3943 41.0719 10.4082 41.0186 10.4015V10.4015C40.7623 10.3822 40.505 10.4236 40.2677 10.5223C40.0305 10.621 39.8199 10.7741 39.6532 10.9694C39.6272 10.9903 39.5964 11.0044 39.5636 11.0104C39.5308 11.0163 39.4971 11.0139 39.4654 11.0035Z" fill="#263238"/>
<path d="M36.2623 6.40332L36.7686 7.13589C35.4544 7.84007 36.0177 9.40745 36.433 10.0889C37.3148 11.5484 36.8597 14.1323 35.8299 15.3135C35.8299 15.3135 35.6706 14.6434 35.1245 14.9046C34.5783 15.1658 35.3691 18.6697 36.7857 20.1519C36.7857 20.1519 34.8229 18.9309 33.2072 15.393C31.7166 12.1276 30.4024 8.88499 32.0694 6.40332H36.2623Z" fill="#263238"/>
<path d="M32.4165 15.8303C32.711 16.2762 33.0908 16.6597 33.534 16.9588C33.9772 17.258 34.4752 17.467 34.9994 17.5737C36.4046 17.852 36.9963 16.5686 36.5184 15.3022C36.0803 14.1664 34.8117 12.6445 33.4576 12.9511C32.1036 13.2578 31.694 14.7173 32.4165 15.8303Z" fill="#FFEDED"/>
<path d="M41.4225 6.85207C41.4225 6.85207 45.4334 4.2114 44.671 2.18973C43.9087 0.168052 42.9643 2.70651 42.9643 2.70651C42.9643 2.70651 43.3397 1.04828 42.1791 0.968775C41.0186 0.889271 41.5135 1.7922 40.9844 2.47935C40.4553 3.16649 34.3622 3.04723 32.5929 4.49535C30.8235 5.94346 32.8318 9.86756 32.8318 9.86756C32.8318 9.86756 35.9154 5.47211 41.4225 6.85207Z" fill="#263238"/>
<path d="M43.9827 17.1706C43.6165 17.6714 43.2858 18.197 42.9927 18.7436L42.6798 18.6357C41.2803 18.1417 40.7967 17.4488 40.6829 16.8299C40.6341 16.5277 40.6575 16.2183 40.7512 15.9269C40.8002 15.7603 40.873 15.6015 40.9674 15.4556C41.6939 16.1456 42.5615 16.6706 43.5104 16.9945C43.8006 17.1138 43.9827 17.1706 43.9827 17.1706Z" fill="#263238"/>
<path d="M43.5102 16.9945L43.203 17.4489C41.8888 16.9832 41.0241 16.4721 40.751 15.9269C40.8 15.7603 40.8728 15.6015 40.9672 15.4556C41.6937 16.1457 42.5613 16.6707 43.5102 16.9945V16.9945Z" fill="#FFEDED"/>
<path d="M42.6798 18.636C41.2802 18.1419 40.7966 17.4491 40.6829 16.8301C41.2104 17.0307 41.6993 17.3208 42.1279 17.6876C42.4062 17.9387 42.5991 18.2702 42.6798 18.636V18.636Z" fill="#DDDDDD"/>
<path d="M44.8587 27.6313L43.5843 30.9932L46.9125 48.2058L45.6722 50.0628L43.5843 48.3705L42.418 31.385L39.2776 27.8528L42.418 27.0464L44.8587 27.6313Z" fill="#9468B4"/>
<path d="M36.086 23.332L42.475 26.4384L45.1716 23.5819L48.3178 25.4843L46.2071 30.3681L42.6798 27.682L40.2334 30.6521L33.7592 25.4446L36.086 23.332Z" fill="#263238"/>
<path opacity="0.2" d="M36.086 23.332L42.475 26.4384L45.1716 23.5819L48.3178 25.4843L46.2071 30.3681L42.6798 27.682L40.2334 30.6521L33.7592 25.4446L36.086 23.332Z" fill="#FFEDED"/>
<path opacity="0.2" d="M28.4283 50.8463C28.343 47.649 28.2861 43.8726 28.252 40.3233L30.9202 38.0518C30.9202 38.0518 31.307 47.3821 28.4283 50.8463Z" fill="black"/>
<path opacity="0.2" d="M49.1029 93.9148C48.1073 88.6732 47.1856 83.5963 46.6736 80.2515C48.0643 78.7465 49.0216 76.8942 49.4442 74.8906C49.4442 74.8906 50.7413 85.0672 49.1029 93.9148Z" fill="black"/>
<path d="M13.4431 42.243L9.16482 40.2724C9.16482 40.2724 7.78235 39.1821 6.88915 39.273C5.99595 39.3638 0.369353 40.1759 0.0621374 40.2724C-0.245078 40.369 0.631055 44.1 1.71769 43.9353C2.80432 43.7706 6.95173 44.1341 7.50358 43.4924L12.5101 47.3597L13.4431 42.243Z" fill="#FFEDED"/>
<path d="M28.3999 27.9487C26.1584 28.1986 20.6626 40.9022 18.5064 42.2254C16.3502 43.5486 11.1958 40.6808 11.1958 40.6808L8.92017 46.2517C8.92017 46.2517 17.397 52.4985 20.3839 51.9647C26.1697 50.9709 29.9531 42.7763 29.9531 42.7763C29.9531 42.7763 32.1775 35.8594 30.1977 30.6178C29.7792 29.6192 29.1684 28.7124 28.3999 27.9487V27.9487Z" fill="#263238"/>
<path opacity="0.2" d="M28.3999 27.9487C26.1584 28.1986 20.6626 40.9022 18.5064 42.2254C16.3502 43.5486 11.1958 40.6808 11.1958 40.6808L8.92017 46.2517C8.92017 46.2517 17.397 52.4985 20.3839 51.9647C26.1697 50.9709 29.9531 42.7763 29.9531 42.7763C29.9531 42.7763 32.1775 35.8594 30.1977 30.6178C29.7792 29.6192 29.1684 28.7124 28.3999 27.9487V27.9487Z" fill="#FFEDED"/>
</svg>
