<svg width="183" height="175" viewBox="0 0 183 175" fill="none" xmlns="http://www.w3.org/2000/svg">
<g opacity="0.15">
<path d="M181.722 154.928C181.722 160.608 143.215 165.23 95.738 165.23C48.2608 165.23 9.79321 160.608 9.79321 154.928C9.79321 149.248 48.2999 144.625 95.7772 144.625C143.254 144.625 181.722 149.248 181.722 154.928Z" fill="#D9E4F5"/>
</g>
<path d="M50.337 33.6885C50.337 34.0802 50.1803 34.472 49.9061 34.7462C49.6319 35.0204 49.2794 35.1771 48.8485 35.1771H17.2361C16.4135 35.1771 15.7476 34.5111 15.7476 33.6885C15.7476 33.2968 15.9042 32.9051 16.1785 32.6308C16.4527 32.3566 16.8052 32.1999 17.2361 32.1999H18.7247C19.3123 30.8289 20.6833 29.8496 22.2502 29.8496C23.3079 29.8496 24.2872 30.2805 24.9923 30.9856C25.9325 29.4187 27.656 28.361 29.6147 28.361C30.1631 28.361 30.6723 28.4394 31.1816 28.5961C32.2001 26.6766 34.2371 25.3447 36.5874 25.3447C39.4078 25.3447 41.7582 27.2642 42.5025 29.8496C43.0117 29.5754 43.5993 29.4579 44.2261 29.4579C45.9889 29.4579 47.4774 30.633 47.9475 32.2391H48.8876C49.6711 32.2391 50.337 32.9051 50.337 33.6885Z" fill="#D9E4F5"/>
<path d="M159.59 36.3521C159.59 36.7438 159.433 37.1355 159.159 37.4097C158.884 37.6839 158.532 37.8406 158.101 37.8406H126.449C125.627 37.8406 124.961 37.1747 124.961 36.3521C124.961 35.9604 125.118 35.5686 125.392 35.2944C125.666 35.0202 126.019 34.8635 126.449 34.8635H127.938C128.526 33.4925 129.897 32.5132 131.464 32.5132C132.521 32.5132 133.501 32.9441 134.206 33.6492C135.146 32.0823 136.869 31.0246 138.828 31.0246C139.376 31.0246 139.886 31.1029 140.395 31.2596C141.413 29.3402 143.45 28.0083 145.801 28.0083C148.621 28.0083 150.972 29.9278 151.716 32.5132C152.225 32.2389 152.813 32.1214 153.439 32.1214C155.202 32.1214 156.691 33.2966 157.161 34.9027H158.101C158.924 34.9027 159.59 35.5686 159.59 36.3521Z" fill="#D9E4F5"/>
<path d="M104.983 42.4629C104.983 42.8546 104.826 43.2464 104.552 43.5206C104.278 43.7948 103.925 43.9515 103.494 43.9515H71.8428C71.0202 43.9515 70.3542 43.2855 70.3542 42.4629C70.3542 42.0712 70.5109 41.6795 70.7851 41.4053C71.0594 41.131 71.4119 40.9744 71.8428 40.9744H73.3314C73.919 39.6033 75.29 38.624 76.8569 38.624C77.9146 38.624 78.8939 39.0549 79.599 39.76C80.5391 38.1931 82.2627 37.1354 84.2214 37.1354C84.7698 37.1354 85.279 37.2138 85.7883 37.3705C86.8068 35.451 88.8437 34.1191 91.1941 34.1191C94.0145 34.1191 96.3649 36.0386 97.1092 38.624C97.6184 38.3498 98.206 38.2323 98.8328 38.2323C100.596 38.2323 102.084 39.4074 102.554 41.0135H103.494C104.317 40.9744 104.983 41.6403 104.983 42.4629Z" fill="#D9E4F5"/>
<path d="M172.986 111.094C169.657 116.382 174.553 115.677 172.124 119.633C169.892 123.237 164.995 121.318 166.915 128.526C167.345 130.092 166.444 131.542 164.956 132.521C162.527 134.127 159.707 133.775 157.67 132.325C157.513 132.208 157.356 132.09 157.2 131.934C155.594 130.563 154.653 128.408 155.045 125.94C155.359 123.942 156.26 121.866 158.414 120.652C163.428 117.753 158.845 111.29 163.311 109.958C168.716 108.352 168.481 106.276 171.772 102.672C175.258 98.8719 177.53 103.925 172.986 111.094Z" fill="#C7D9ED"/>
<path d="M170.518 109.175C170.44 109.331 162.762 121.906 157.67 132.286C157.513 132.169 157.356 132.051 157.2 131.895C162.292 121.475 169.931 108.979 170.009 108.822C170.088 108.665 170.283 108.626 170.401 108.744C170.558 108.861 170.597 109.057 170.518 109.175Z" fill="#B4CAE3"/>
<path d="M177.335 125.274C171.459 130.797 177.805 131.463 173.496 135.616C169.578 139.415 164.094 135.42 164.133 144.978C164.133 147.054 162.566 148.582 160.412 149.287C156.847 150.501 153.478 149.169 151.402 146.702C151.246 146.506 151.089 146.31 150.932 146.075C149.404 143.842 148.895 140.826 150.188 137.927C151.246 135.577 153.008 133.265 156.064 132.443C163.232 130.484 159.589 120.926 165.622 120.691C172.869 120.417 173.221 117.753 178.471 114.345C184.111 110.741 185.287 117.792 177.335 125.274Z" fill="#D9E4F5"/>
<path d="M174.867 122.062C174.71 122.219 161.078 135.381 151.442 146.702C151.285 146.506 151.128 146.31 150.971 146.075C160.647 134.754 174.201 121.67 174.358 121.514C174.514 121.357 174.749 121.357 174.906 121.514C175.023 121.67 175.023 121.944 174.867 122.062Z" fill="#C7D9ED"/>
<path d="M17.3144 66.8288C20.9574 71.9212 16.0217 71.4903 18.6854 75.2901C21.1141 78.7764 25.8932 76.5828 24.4046 83.8689C24.0912 85.475 25.0314 86.846 26.5983 87.747C29.1445 89.1964 31.9258 88.7263 33.8452 87.1202C34.0019 87.0027 34.1586 86.846 34.3153 86.7285C35.843 85.2399 36.6657 83.0463 36.1172 80.6176C35.6863 78.6589 34.6679 76.6219 32.4742 75.5251C27.3034 72.9397 31.534 66.202 26.9508 65.1052C21.4667 63.8125 21.5842 61.7363 18.0978 58.3283C14.3764 54.7636 12.3786 59.9344 17.3144 66.8288Z" fill="#C7D9ED"/>
<path d="M19.6647 64.7919C19.7823 64.9486 28.1652 77.0529 33.8061 87.1595C33.9628 87.0419 34.1195 86.8852 34.2761 86.7677C28.5961 76.6612 20.2523 64.6352 20.174 64.4785C20.0956 64.361 19.8998 64.3218 19.7431 64.4001C19.5864 64.4785 19.5864 64.6352 19.6647 64.7919Z" fill="#B4CAE3"/>
<path d="M14.1804 83.0852C20.4872 88.0601 14.2587 89.2745 18.9203 93.0742C23.1509 96.5214 28.2826 92.0557 29.0268 101.614C29.1835 103.69 30.9071 105.061 33.1008 105.609C36.7439 106.51 39.9952 104.865 41.8363 102.241C41.993 102.045 42.1105 101.81 42.2672 101.575C43.5991 99.2243 43.8341 96.1688 42.3064 93.3876C41.0528 91.1156 39.0942 89.0002 35.9604 88.4127C28.6351 87.0808 31.4555 77.2484 25.423 77.5618C18.176 77.9144 17.5884 75.329 12.0651 72.3519C6.18918 69.2572 5.60159 76.3475 14.1804 83.0852Z" fill="#D9E4F5"/>
<path d="M16.3347 79.7168C16.5306 79.8735 31.2203 91.8211 41.8361 102.241C41.9928 102.045 42.1103 101.81 42.267 101.575C31.6121 91.1552 17.0007 79.2859 16.844 79.1292C16.6873 79.0117 16.4522 79.0117 16.2955 79.1684C16.1389 79.3642 16.178 79.5992 16.3347 79.7168Z" fill="#C7D9ED"/>
<path d="M143.764 49.5924C140.121 54.6849 145.056 54.254 142.393 58.0537C139.964 61.5401 135.185 59.3464 136.673 66.6326C136.987 68.2386 136.047 69.6097 134.48 70.5106C131.934 71.96 129.152 71.49 127.233 69.8839C127.076 69.7664 126.919 69.6097 126.763 69.4922C125.235 68.0036 124.412 65.8099 124.961 63.3812C125.392 61.4226 126.41 59.3856 128.604 58.2888C133.775 55.7034 129.544 48.9657 134.127 47.8688C139.611 46.5761 139.494 44.5 142.98 41.092C146.702 37.5273 148.699 42.6981 143.764 49.5924Z" fill="#C7D9ED"/>
<path d="M141.413 47.5555C141.296 47.7122 132.913 59.8166 127.272 69.9231C127.115 69.8056 126.959 69.6489 126.802 69.5314C132.482 59.4249 140.826 47.3988 140.904 47.2422C140.983 47.1246 141.178 47.0855 141.335 47.1638C141.453 47.2422 141.492 47.3988 141.413 47.5555Z" fill="#B4CAE3"/>
<path d="M155.476 56.526C149.17 61.5009 155.398 62.7153 150.736 66.515C146.506 69.9622 141.374 65.4966 140.63 75.0547C140.473 77.1308 138.75 78.5019 136.556 79.0503C132.913 79.9513 129.662 78.306 127.82 75.6814C127.664 75.4856 127.546 75.2506 127.39 75.0155C126.058 72.6652 125.823 69.6097 127.35 66.8284C128.604 64.5564 130.563 62.4411 133.696 61.8535C141.022 60.5216 138.201 50.6893 144.234 51.0027C151.481 51.3552 152.068 48.7698 157.592 45.7927C163.468 42.6589 164.055 49.7883 155.476 56.526Z" fill="#D9E4F5"/>
<path d="M153.322 53.1572C153.126 53.3139 138.436 65.2615 127.82 75.6815C127.664 75.4856 127.546 75.2506 127.389 75.0155C138.044 64.5956 152.656 52.7263 152.812 52.5696C152.969 52.4521 153.204 52.4521 153.361 52.6088C153.518 52.7655 153.478 53.0005 153.322 53.1572Z" fill="#C7D9ED"/>
<path d="M63.6948 62.1669C61.2269 60.4824 55.0376 64.6347 51.7863 69.7272L54.6459 61.6968C55.7036 60.7958 57.5055 59.5423 60.3651 58.5238C64.7916 56.9569 69.2181 54.489 66.7503 52.8046C64.4391 51.1985 58.8374 54.8024 55.4685 59.4248L59.1508 49.0832C59.8559 48.5739 60.8744 47.908 62.3629 47.3988C65.1442 46.4195 67.9646 44.8525 66.3977 43.7949C65.0267 42.8547 61.932 44.735 59.7775 47.3596L60.9919 43.9907C61.5403 43.0114 62.3237 41.6404 63.5381 40.3477C66.3977 37.4097 68.513 34.1192 66.3194 33.61C64.1257 33.1399 60.5218 38.8983 59.9734 44.1083L59.3466 45.8319C59.8167 42.0321 58.4456 37.4489 56.5654 37.2922C54.6851 37.1355 55.8603 40.1127 57.388 42.6197C58.5632 44.5392 58.8765 46.0669 58.9549 46.8504L56.0561 54.9983C56.8004 49.0048 54.6459 41.7579 51.6296 41.5229C48.6525 41.2487 50.5328 45.9886 52.9615 49.9842C54.8026 53.0005 55.3118 55.4292 55.4685 56.6827L51.9822 66.4367C52.6089 60.5216 50.4936 53.3138 47.5165 53.3138C45.2445 53.3138 45.9496 56.526 48.6525 61.07C50.4936 64.1647 51.0812 66.9459 51.2771 68.3953L49.6318 72.9785C49.906 73.1744 50.1802 73.2919 50.4936 73.2919L51.1595 71.4508C52.0997 70.5498 54.0191 69.0221 57.3096 67.8861C61.7362 66.3192 66.1627 63.8905 63.6948 62.1669Z" fill="#D9E4F5"/>
<path d="M32.3565 147.328H33.7276L33.6884 147.289C33.1791 146.114 32.474 143.764 32.5916 140.277C32.7482 135.577 32.0431 130.563 29.5753 132.247C27.1074 133.931 28.7526 141.218 32.3174 146.075L25.8539 140.473C25.3838 139.181 24.8745 137.026 24.9529 134.01C25.1096 129.309 24.4045 124.295 21.9366 125.979C19.6254 127.585 20.9181 134.088 24.0519 138.906L15.7473 131.738C15.5123 130.915 15.2772 129.701 15.3164 128.134C15.3948 125.196 14.9639 122.023 13.397 123.081C12.0259 124.021 12.6527 127.585 14.2979 130.523L11.595 128.212C10.8899 127.35 9.87142 126.136 9.12713 124.53C7.40354 120.809 5.13152 117.636 3.878 119.477C2.62447 121.357 6.69843 126.763 11.36 129.192L12.731 130.406C9.36217 128.604 4.62228 128.212 3.76048 129.897C2.93785 131.581 6.11084 131.581 9.04879 131.072C11.2816 130.68 12.8094 130.954 13.5928 131.15L20.1347 136.791C14.8072 133.931 7.28602 133.305 5.95415 136.008C4.62228 138.711 9.71472 138.671 14.3371 137.849C17.8235 137.222 20.2522 137.614 21.5057 137.966L29.3402 144.743C24.0519 142.001 16.5699 141.374 15.4731 144.116C14.6113 146.232 17.9018 146.741 23.1118 145.84C26.6765 145.252 29.4577 145.683 30.868 146.036L32.3565 147.328Z" fill="#D9E4F5"/>
<path d="M168.913 52.9222C167.894 52.9222 167.032 52.0996 167.032 51.0419C167.032 50.0234 167.855 49.1616 168.913 49.1616C169.931 49.1616 170.793 49.9842 170.793 51.0419C170.793 52.0604 169.97 52.9222 168.913 52.9222ZM168.913 52.3346C169.618 52.3346 170.205 51.747 170.205 51.0419C170.205 50.3368 169.618 49.7492 168.913 49.7492C168.207 49.7492 167.62 50.3368 167.62 51.0419C167.62 51.747 168.207 52.3346 168.913 52.3346Z" fill="#BA68C8"/>
<path d="M170.832 62.4412C169.813 62.4412 168.952 61.6186 168.952 60.561C168.952 59.5425 169.774 58.6807 170.832 58.6807C171.85 58.6807 172.712 59.5033 172.712 60.561C172.712 61.5794 171.85 62.4412 170.832 62.4412ZM170.832 61.8536C171.537 61.8536 172.125 61.2661 172.125 60.561C172.125 59.8558 171.537 59.2683 170.832 59.2683C170.127 59.2683 169.539 59.8558 169.539 60.561C169.539 61.2661 170.127 61.8536 170.832 61.8536Z" fill="#9468B4"/>
<path d="M176.512 65.0662C176.512 64.9095 176.395 64.792 176.199 64.792H174.906C174.749 64.792 174.632 64.9095 174.632 65.0662C174.632 65.2229 174.749 65.3796 174.906 65.3796H176.199C176.395 65.3796 176.512 65.2229 176.512 65.0662Z" fill="#BA68C8"/>
<path d="M178.784 65.0657C178.784 64.909 178.667 64.7915 178.471 64.7915H177.178C177.021 64.7915 176.865 64.909 176.865 65.0657C176.865 65.2224 176.982 65.3791 177.178 65.3791H178.471C178.667 65.3791 178.784 65.2224 178.784 65.0657Z" fill="#BA68C8"/>
<path d="M177.021 66.907V65.7318C177.021 65.5751 176.904 65.4185 176.708 65.4185C176.551 65.4185 176.434 65.536 176.434 65.7318V66.907C176.434 67.0637 176.551 67.1812 176.708 67.1812C176.864 67.1812 177.021 67.0637 177.021 66.907Z" fill="#BA68C8"/>
<path d="M177.022 64.4392V63.2641C177.022 63.1074 176.904 62.9507 176.708 62.9507C176.552 62.9507 176.434 63.0682 176.434 63.2641V64.4392C176.434 64.5959 176.552 64.7526 176.708 64.7526C176.865 64.7135 177.022 64.5959 177.022 64.4392Z" fill="#BA68C8"/>
<path d="M174.397 55.0771C174.397 54.9204 174.279 54.7637 174.084 54.7637H172.791C172.634 54.7637 172.517 54.8812 172.517 55.0771C172.517 55.2729 172.634 55.3904 172.791 55.3904H174.084C174.279 55.3513 174.397 55.2337 174.397 55.0771Z" fill="#9468B4"/>
<path d="M176.669 55.0771C176.669 54.9204 176.551 54.7637 176.355 54.7637H175.102C174.945 54.7637 174.789 54.8812 174.789 55.0771C174.789 55.2729 174.906 55.3904 175.102 55.3904H176.395C176.551 55.3513 176.669 55.2337 176.669 55.0771Z" fill="#9468B4"/>
<path d="M174.906 56.8786V55.7034C174.906 55.5467 174.789 55.4292 174.632 55.4292C174.476 55.4292 174.319 55.5467 174.319 55.7034V56.8786C174.319 57.0353 174.436 57.192 174.632 57.192C174.75 57.192 174.906 57.0353 174.906 56.8786Z" fill="#9468B4"/>
<path d="M174.906 54.4108V53.2356C174.906 53.0789 174.789 52.9614 174.632 52.9614C174.476 52.9614 174.319 53.0789 174.319 53.2356V54.4108C174.319 54.5675 174.436 54.7242 174.632 54.7242C174.75 54.7242 174.906 54.5675 174.906 54.4108Z" fill="#9468B4"/>
<path d="M13.6712 114.032C13.6712 115.05 12.8486 115.912 11.7909 115.912C10.7724 115.912 9.91064 115.089 9.91064 114.032C9.91064 113.013 10.7333 112.151 11.7909 112.151C12.8486 112.151 13.6712 112.974 13.6712 114.032ZM10.4982 114.032C10.4982 114.737 11.0858 115.324 11.7909 115.324C12.496 115.324 13.0836 114.737 13.0836 114.032C13.0836 113.327 12.496 112.739 11.7909 112.739C11.0858 112.739 10.4982 113.327 10.4982 114.032Z" fill="#BA68C8"/>
<path d="M15.5907 104.513C15.5907 105.531 14.768 106.393 13.7104 106.393C12.6919 106.393 11.8301 105.57 11.8301 104.513C11.8301 103.494 12.6527 102.632 13.7104 102.632C14.7289 102.632 15.5907 103.455 15.5907 104.513ZM12.4177 104.513C12.4177 105.218 13.0053 105.805 13.7104 105.805C14.4155 105.805 15.0031 105.218 15.0031 104.513C15.0031 103.807 14.4155 103.22 13.7104 103.22C13.0053 103.22 12.4177 103.807 12.4177 104.513Z" fill="#9468B4"/>
<path d="M19.3907 100.008C19.3907 100.164 19.2731 100.282 19.0773 100.282H17.7846C17.6279 100.282 17.4712 100.164 17.4712 100.008C17.4712 99.8511 17.5887 99.7336 17.7846 99.7336H19.0773C19.2731 99.6944 19.3907 99.8119 19.3907 100.008Z" fill="#BA68C8"/>
<path d="M21.6626 100.008C21.6626 100.164 21.5451 100.282 21.3492 100.282H20.0565C19.8999 100.282 19.7432 100.164 19.7432 100.008C19.7432 99.8511 19.8607 99.7336 20.0565 99.7336H21.3492C21.5451 99.6944 21.6626 99.8119 21.6626 100.008Z" fill="#BA68C8"/>
<path d="M19.8998 98.1664V99.3416C19.8998 99.4983 19.7823 99.655 19.5865 99.655C19.4298 99.655 19.3123 99.5375 19.3123 99.3416V98.1664C19.3123 98.0097 19.4298 97.853 19.5865 97.853C19.7432 97.8922 19.8998 98.0097 19.8998 98.1664Z" fill="#BA68C8"/>
<path d="M19.8996 100.635V101.81C19.8996 101.967 19.7821 102.123 19.5862 102.123C19.4295 102.123 19.312 102.006 19.312 101.81V100.635C19.312 100.478 19.4295 100.321 19.5862 100.321C19.7429 100.36 19.8996 100.478 19.8996 100.635Z" fill="#BA68C8"/>
<path d="M17.2749 109.996C17.2749 110.153 17.1574 110.31 16.9615 110.31H15.6688C15.5122 110.31 15.3555 110.192 15.3555 109.996C15.3555 109.84 15.473 109.683 15.6688 109.683H16.9615C17.1574 109.683 17.2749 109.84 17.2749 109.996Z" fill="#9468B4"/>
<path d="M19.5469 109.997C19.5469 110.154 19.4294 110.31 19.2335 110.31H17.9408C17.7841 110.31 17.6274 110.193 17.6274 109.997C17.6274 109.84 17.745 109.684 17.9408 109.684H19.2335C19.4294 109.684 19.5469 109.84 19.5469 109.997Z" fill="#9468B4"/>
<path d="M17.7844 108.195V109.37C17.7844 109.527 17.6668 109.683 17.5102 109.683C17.3535 109.683 17.1968 109.566 17.1968 109.37V108.195C17.1968 108.038 17.3143 107.881 17.5102 107.881C17.706 107.881 17.7844 107.999 17.7844 108.195Z" fill="#9468B4"/>
<path d="M17.7841 110.662V111.838C17.7841 111.994 17.6666 112.151 17.5099 112.151C17.3532 112.151 17.1965 112.034 17.1965 111.838V110.662C17.1965 110.506 17.3141 110.349 17.5099 110.349C17.7058 110.349 17.7841 110.506 17.7841 110.662Z" fill="#9468B4"/>
<path d="M105.178 47.7122L105.1 49.945L107.176 50.0233C107.255 50.5718 107.45 51.081 107.725 51.5511L106.236 52.9613L107.764 54.5674L109.174 53.2355C109.722 53.6272 110.349 53.9014 111.015 54.0581L110.937 56.1343L113.17 56.2126L113.248 54.0581C113.679 53.9406 114.11 53.7839 114.502 53.5881L115.912 55.0766L117.518 53.5489L116.186 52.1387C116.578 51.5902 116.852 50.9635 117.009 50.2975L118.85 50.3367L118.928 48.1039L117.048 48.0647C116.93 47.5163 116.695 46.9679 116.382 46.4586L117.792 45.1268L116.264 43.5207L114.776 44.9309C114.227 44.5783 113.64 44.3825 113.013 44.265L113.091 42.1496L110.858 42.0713L110.78 44.3433C110.31 44.4608 109.879 44.6567 109.448 44.9309L108.116 43.5207L106.51 45.0484L107.921 46.537C107.685 46.9287 107.49 47.3596 107.372 47.7905L105.178 47.7122ZM110.741 47.673C111.564 46.8895 112.856 46.9287 113.64 47.7513C114.423 48.574 114.384 49.8666 113.561 50.6501C112.739 51.4336 111.446 51.3944 110.663 50.5718C109.879 49.7491 109.918 48.4564 110.741 47.673Z" fill="#BA68C8"/>
<path d="M112.504 52.3738C114.306 52.178 115.599 50.5719 115.403 48.77C115.207 46.968 113.601 45.6753 111.799 45.8712C109.997 46.067 108.704 47.6731 108.9 49.4751C109.057 51.277 110.663 52.5697 112.504 52.3738ZM110.741 47.6731C111.564 46.8897 112.856 46.9288 113.64 47.7515C114.423 48.5741 114.384 49.8668 113.562 50.6502C112.739 51.4337 111.446 51.3945 110.663 50.5719C109.879 49.7493 109.918 48.4566 110.741 47.6731Z" fill="#9468B4"/>
<path d="M119.829 48.6523L119.79 49.945L121.004 49.9842C121.043 50.2976 121.161 50.6109 121.318 50.8852L120.456 51.7078L121.357 52.6479L122.179 51.8645C122.493 52.0995 122.845 52.2562 123.237 52.3346L123.198 53.5489L124.491 53.5881L124.53 52.3346C124.804 52.2954 125.039 52.1779 125.274 52.0603L126.097 52.9221L127.037 52.0212L126.253 51.1985C126.488 50.8852 126.645 50.5326 126.723 50.1409L127.781 50.1801L127.82 48.8874L126.723 48.8482C126.645 48.5348 126.527 48.2214 126.332 47.908L127.154 47.1246L126.253 46.1844L125.391 47.0071C125.078 46.8112 124.726 46.6937 124.373 46.6153L124.412 45.401L123.119 45.3618L123.08 46.6937C122.806 46.772 122.532 46.8895 122.297 47.0462L121.513 46.2236L120.573 47.1246L121.396 47.9864C121.239 48.2214 121.161 48.4565 121.082 48.6915L119.829 48.6523ZM123.08 48.6131C123.55 48.1822 124.295 48.1822 124.765 48.6523C125.196 49.1224 125.196 49.8667 124.726 50.3367C124.255 50.7676 123.511 50.7676 123.041 50.2976C122.571 49.8275 122.61 49.0832 123.08 48.6131Z" fill="#BA68C8"/>
<path d="M124.099 51.3554C125.156 51.2379 125.901 50.2977 125.783 49.2401C125.666 48.1824 124.725 47.4381 123.668 47.5557C122.61 47.6732 121.866 48.6133 121.983 49.671C122.101 50.7286 123.041 51.4729 124.099 51.3554ZM123.08 48.6133C123.55 48.1824 124.295 48.1824 124.765 48.6525C125.196 49.1226 125.196 49.8668 124.725 50.3369C124.255 50.7678 123.511 50.7678 123.041 50.2977C122.571 49.8277 122.61 49.0834 123.08 48.6133Z" fill="#9468B4"/>
<path d="M16.2569 98.2451L16.2175 98.2845V98.2451H16.2569Z" fill="#9468B4"/>
<path d="M160.49 60.5216V157.004C160.49 157.905 159.746 158.61 158.884 158.61H26.8332C26.4023 158.61 26.0498 158.453 25.7364 158.179C25.423 157.866 25.188 157.435 25.188 156.965V60.5216C25.188 59.6206 25.9323 58.9155 26.7941 58.9155H158.845C159.394 58.9155 159.864 59.1897 160.138 59.5815C160.373 59.8557 160.49 60.1691 160.49 60.5216Z" fill="#3B3E7D"/>
<path d="M160.49 60.5214V157.004C160.49 157.905 159.746 158.61 158.884 158.61H26.8332C26.4023 158.61 26.0497 158.453 25.7363 158.179L160.177 59.5029C160.373 59.8555 160.49 60.1689 160.49 60.5214Z" fill="#18285D"/>
<path d="M156.651 64.5563V153.047C156.651 154.027 155.868 154.849 154.849 154.849H30.8288C29.8495 154.849 29.0269 154.066 29.0269 153.047V64.5563C29.0269 63.577 29.8103 62.7544 30.8288 62.7544H154.849C155.829 62.7544 156.651 63.577 156.651 64.5563Z" fill="white"/>
<path d="M156.652 64.5563V70.7456H29.0662V64.5563C29.0662 63.577 29.8496 62.7544 30.8681 62.7544H154.889C155.829 62.7544 156.652 63.577 156.652 64.5563Z" fill="#D9E4F5"/>
<path d="M50.6895 66.9851C50.6895 67.5727 51.1595 68.0427 51.7471 68.0427H144.743C145.331 68.0427 145.801 67.5727 145.801 66.9851C145.801 66.3975 145.331 65.9274 144.743 65.9274H51.7471C51.1595 65.8882 50.6895 66.3975 50.6895 66.9851Z" fill="white"/>
<path d="M36.1562 66.9849V67.7683C36.1562 68.0033 35.9212 68.1209 35.7253 68.0034L35.0594 67.6116L34.3935 67.2199C34.1976 67.1024 34.1976 66.8282 34.3935 66.7107L35.0594 66.3189L35.7253 65.9272C35.9212 65.8097 36.1562 65.9664 36.1562 66.1622V66.9849Z" fill="#3B3E7D"/>
<path d="M39.6819 66.9849V67.7683C39.6819 68.0033 39.9169 68.1209 40.1128 68.0034L40.7787 67.6116L41.4447 67.2199C41.6405 67.1024 41.6405 66.8282 41.4447 66.7107L40.7787 66.3189L40.1128 65.9272C39.9169 65.8097 39.6819 65.9664 39.6819 66.1622V66.9849Z" fill="#3B3E7D"/>
<path d="M150.031 77.6402V129.152C150.031 130.993 148.543 132.482 146.702 132.482H42.15C40.3089 132.482 38.8203 130.993 38.8203 129.152V77.6402C38.8203 75.7991 40.3089 74.3105 42.15 74.3105H146.702C148.543 74.3105 150.031 75.7991 150.031 77.6402Z" fill="#D9E4F5"/>
<path d="M150.031 77.6402V80.0689H38.8203V77.6402C38.8203 75.7991 40.3089 74.3105 42.15 74.3105H146.702C148.543 74.3105 150.031 75.7991 150.031 77.6402Z" fill="#B4CAE3"/>
<path d="M139.337 77.1311C139.337 77.7579 138.828 78.2671 138.201 78.2671C137.575 78.2671 137.065 77.7579 137.065 77.1311C137.065 76.5044 137.575 75.9951 138.201 75.9951C138.828 75.9951 139.337 76.5044 139.337 77.1311Z" fill="#3B3E7D"/>
<path d="M142.941 77.1311C142.941 77.7579 142.432 78.2671 141.805 78.2671C141.179 78.2671 140.669 77.7579 140.669 77.1311C140.669 76.5044 141.179 75.9951 141.805 75.9951C142.432 75.9951 142.941 76.5044 142.941 77.1311Z" fill="#9468B4"/>
<path d="M146.545 77.1311C146.545 77.7579 146.036 78.2671 145.409 78.2671C144.782 78.2671 144.273 77.7579 144.273 77.1311C144.273 76.5044 144.782 75.9951 145.409 75.9951C146.036 75.9951 146.545 76.5044 146.545 77.1311Z" fill="#BA68C8"/>
<path d="M69.1011 83.3203H41.8369V102.828H69.1011V83.3203Z" fill="#BA68C8"/>
<path d="M69.1008 97.6965L67.769 95.4637L63.3816 88.0601L54.6069 102.828H69.1008V97.6965Z" fill="#18285D"/>
<path d="M52.7658 102.828H41.8367L47.3208 94.0145L52.7658 85.2007L58.25 94.0145L63.7342 102.828H52.7658Z" fill="#3B3E7D"/>
<path d="M49.2402 90.9199L52.7658 93.5836L56.3305 90.9199L52.7658 85.2007L49.2402 90.9199Z" fill="white"/>
<path d="M60.4045 93.0742L63.3817 95.4637L66.3588 93.0742L63.3817 88.0601L60.4045 93.0742Z" fill="white"/>
<path d="M144.587 108.469H117.323V127.977H144.587V108.469Z" fill="#BA68C8"/>
<path d="M144.587 122.806L143.294 120.573L138.867 113.209L130.093 127.977H144.587V122.806Z" fill="#18285D"/>
<path d="M128.291 127.977H117.322L122.806 119.163L128.291 110.35L133.775 119.163L139.22 127.977H128.291Z" fill="#3B3E7D"/>
<path d="M124.726 116.069L128.291 118.733L131.816 116.069L128.291 110.35L124.726 116.069Z" fill="white"/>
<path d="M135.89 118.223L138.867 120.573L141.884 118.223L138.867 113.209L135.89 118.223Z" fill="white"/>
<path d="M67.8477 107.607H43.0514C42.3854 107.607 41.7979 107.059 41.7979 106.354C41.7979 105.688 42.3463 105.1 43.0514 105.1H67.8477C68.5136 105.1 69.1012 105.649 69.1012 106.354C69.1012 107.02 68.5528 107.607 67.8477 107.607Z" fill="#B4CAE3"/>
<path d="M67.8472 112.7H43.0509C42.385 112.7 41.7974 112.152 41.7974 111.446C41.7974 110.78 42.3458 110.193 43.0509 110.193H67.8472C68.5131 110.193 69.1007 110.741 69.1007 111.446C69.1007 112.152 68.5523 112.7 67.8472 112.7Z" fill="#B4CAE3"/>
<path d="M67.8472 117.831H43.0509C42.385 117.831 41.7974 117.283 41.7974 116.578C41.7974 115.912 42.3458 115.324 43.0509 115.324H67.8472C68.5131 115.324 69.1007 115.873 69.1007 116.578C69.1007 117.283 68.5523 117.831 67.8472 117.831Z" fill="#B4CAE3"/>
<path d="M67.8472 122.963H43.0509C42.385 122.963 41.7974 122.415 41.7974 121.71C41.7974 121.044 42.3458 120.456 43.0509 120.456H67.8472C68.5131 120.456 69.1007 121.004 69.1007 121.71C69.1007 122.415 68.5523 122.963 67.8472 122.963Z" fill="#B4CAE3"/>
<path d="M67.8472 128.094H43.0509C42.385 128.094 41.7974 127.546 41.7974 126.841C41.7974 126.175 42.3458 125.587 43.0509 125.587H67.8472C68.5131 125.587 69.1007 126.136 69.1007 126.841C69.1007 127.546 68.5523 128.094 67.8472 128.094Z" fill="#B4CAE3"/>
<path d="M73.8018 84.5738C73.8018 85.2398 74.3502 85.8274 75.0553 85.8274H111.212C111.878 85.8274 112.465 85.2789 112.465 84.5738C112.465 83.9079 111.917 83.3203 111.212 83.3203H75.0553C74.3502 83.3203 73.8018 83.8687 73.8018 84.5738Z" fill="#B4CAE3"/>
<path d="M73.8018 89.8619C73.8018 90.5279 74.3502 91.1155 75.0553 91.1155H111.212C111.878 91.1155 112.465 90.567 112.465 89.8619C112.465 89.196 111.917 88.6084 111.212 88.6084H75.0553C74.3502 88.6084 73.8018 89.1568 73.8018 89.8619Z" fill="#B4CAE3"/>
<path d="M73.8018 95.1505C73.8018 95.8164 74.3502 96.404 75.0553 96.404H111.212C111.878 96.404 112.465 95.8556 112.465 95.1505C112.465 94.4846 111.917 93.897 111.212 93.897H75.0553C74.3502 93.897 73.8018 94.4454 73.8018 95.1505Z" fill="#B4CAE3"/>
<path d="M73.8018 100.439C73.8018 101.105 74.3502 101.692 75.0553 101.692H111.212C111.878 101.692 112.465 101.144 112.465 100.439C112.465 99.7726 111.917 99.1851 111.212 99.1851H75.0553C74.3502 99.1851 73.8018 99.7335 73.8018 100.439Z" fill="#B4CAE3"/>
<path d="M73.8018 105.727C73.8018 106.393 74.3502 106.981 75.0553 106.981H111.212C111.878 106.981 112.465 106.432 112.465 105.727C112.465 105.061 111.917 104.474 111.212 104.474H75.0553C74.3502 104.474 73.8018 105.022 73.8018 105.727Z" fill="#B4CAE3"/>
<path d="M73.8018 111.015C73.8018 111.681 74.3502 112.269 75.0553 112.269H111.212C111.878 112.269 112.465 111.72 112.465 111.015C112.465 110.349 111.917 109.762 111.212 109.762H75.0553C74.3502 109.762 73.8018 110.31 73.8018 111.015Z" fill="#B4CAE3"/>
<path d="M73.8018 116.303C73.8018 116.969 74.3502 117.557 75.0553 117.557H111.212C111.878 117.557 112.465 117.008 112.465 116.303C112.465 115.637 111.917 115.05 111.212 115.05H75.0553C74.3502 115.05 73.8018 115.598 73.8018 116.303Z" fill="#B4CAE3"/>
<path d="M73.8018 121.592C73.8018 122.258 74.3502 122.845 75.0553 122.845H111.212C111.878 122.845 112.465 122.297 112.465 121.592C112.465 120.926 111.917 120.338 111.212 120.338H75.0553C74.3502 120.338 73.8018 120.887 73.8018 121.592Z" fill="#B4CAE3"/>
<path d="M73.8018 126.88C73.8018 127.546 74.3502 128.134 75.0553 128.134H111.212C111.878 128.134 112.465 127.585 112.465 126.88C112.465 126.214 111.917 125.626 111.212 125.626H75.0553C74.3502 125.626 73.8018 126.175 73.8018 126.88Z" fill="#B4CAE3"/>
<path d="M129.427 84.5738C129.427 85.2398 129.975 85.8274 130.68 85.8274H142.981C143.646 85.8274 144.234 85.2789 144.234 84.5738C144.234 83.9079 143.686 83.3203 142.981 83.3203H130.641C129.975 83.3203 129.427 83.8687 129.427 84.5738Z" fill="#B4CAE3"/>
<path d="M129.427 89.8619C129.427 90.5279 129.975 91.1155 130.68 91.1155H142.981C143.646 91.1155 144.234 90.567 144.234 89.8619C144.234 89.196 143.686 88.6084 142.981 88.6084H130.641C129.975 88.6084 129.427 89.1568 129.427 89.8619Z" fill="#B4CAE3"/>
<path d="M129.427 95.1505C129.427 95.8164 129.975 96.404 130.68 96.404H142.981C143.646 96.404 144.234 95.8556 144.234 95.1505C144.234 94.4846 143.686 93.897 142.981 93.897H130.641C129.975 93.897 129.427 94.4454 129.427 95.1505Z" fill="#B4CAE3"/>
<path d="M129.427 100.439C129.427 101.105 129.975 101.692 130.68 101.692H142.981C143.646 101.692 144.234 101.144 144.234 100.439C144.234 99.7726 143.686 99.1851 142.981 99.1851H130.641C129.975 99.1851 129.427 99.7335 129.427 100.439Z" fill="#B4CAE3"/>
<path d="M129.427 105.727C129.427 106.393 129.975 106.981 130.68 106.981H142.981C143.646 106.981 144.234 106.432 144.234 105.727C144.234 105.061 143.686 104.474 142.981 104.474H130.641C129.975 104.474 129.427 105.022 129.427 105.727Z" fill="#B4CAE3"/>
<path d="M122.336 93.3485C125.106 93.3485 127.35 91.1036 127.35 88.3344C127.35 85.5652 125.106 83.3203 122.336 83.3203C119.567 83.3203 117.322 85.5652 117.322 88.3344C117.322 91.1036 119.567 93.3485 122.336 93.3485Z" fill="#B4CAE3"/>
<path d="M122.336 106.393C125.106 106.393 127.35 104.148 127.35 101.379C127.35 98.6096 125.106 96.3647 122.336 96.3647C119.567 96.3647 117.322 98.6096 117.322 101.379C117.322 104.148 119.567 106.393 122.336 106.393Z" fill="#B4CAE3"/>
<path d="M93.9363 0V52.5305C93.9363 52.8048 94.1713 53.0006 94.4064 53.0006C94.6806 53.0006 94.8764 52.7656 94.8764 52.5305V0H93.9363Z" fill="#BA68C8"/>
<path d="M98.8719 66.8286C98.8328 69.1398 96.9525 71.0984 94.6413 71.2159C92.0951 71.3334 89.9797 69.2965 89.9797 66.7502C89.9797 66.5935 89.9797 66.3977 90.0189 66.241C90.7632 66.7502 91.4683 67.2595 92.2126 67.7296C92.6435 68.6697 93.662 69.2965 94.7588 69.1398C95.7773 68.9831 96.6391 68.1605 96.7958 67.142C97.0308 65.7709 96.1298 64.5957 94.8763 64.3607C94.0537 64.3607 93.3486 63.6948 93.3486 62.833V62.3237H94.8763C97.1483 62.5588 98.9111 64.5174 98.8719 66.8286Z" fill="#18285D"/>
<path d="M94.4064 75.0157C94.1321 75.0157 93.9363 74.7806 93.9363 74.5456V69.2181C93.9363 68.9439 94.1713 68.748 94.4064 68.748C94.6806 68.748 94.8764 68.9831 94.8764 69.2181V74.5456C94.9156 74.8198 94.6806 75.0157 94.4064 75.0157Z" fill="#9468B4"/>
<path d="M97.0701 59.8556H91.8601V54.9198C91.8601 53.9014 92.6827 53.0396 93.7404 53.0396H95.229C96.2474 53.0396 97.1092 53.8622 97.1092 54.9198V59.8556H97.0701Z" fill="#9468B4"/>
<path d="M97.0698 59.856C97.6574 61.5404 96.4823 62.6764 95.738 62.6764H93.3876C92.2908 62.6764 91.4682 61.2662 91.8599 59.856H97.0698Z" fill="#BA68C8"/>
<path d="M4.89673 171.576H50.3762V117.166L6.97288 169.148L4.89673 171.576ZM43.5601 164.76H19.469L43.521 135.968V164.76H43.5601Z" fill="#BA68C8"/>
<path d="M49.7497 127.742H47.4385V128.291H49.7497V127.742Z" fill="#3B3E7D"/>
<path d="M49.7494 130.836H47.4382V131.385H49.7494V130.836Z" fill="#3B3E7D"/>
<path d="M49.7494 133.931H47.4382V134.48H49.7494V133.931Z" fill="#3B3E7D"/>
<path d="M49.7494 137.026H47.4382V137.574H49.7494V137.026Z" fill="#3B3E7D"/>
<path d="M49.7494 140.121H47.4382V140.669H49.7494V140.121Z" fill="#3B3E7D"/>
<path d="M49.7494 143.215H47.4382V143.764H49.7494V143.215Z" fill="#3B3E7D"/>
<path d="M49.7494 146.31H47.4382V146.858H49.7494V146.31Z" fill="#3B3E7D"/>
<path d="M49.7494 149.404H47.4382V149.953H49.7494V149.404Z" fill="#3B3E7D"/>
<path d="M49.7494 152.499H47.4382V153.047H49.7494V152.499Z" fill="#3B3E7D"/>
<path d="M49.7494 155.594H47.4382V156.142H49.7494V155.594Z" fill="#3B3E7D"/>
<path d="M49.7494 158.688H47.4382V159.237H49.7494V158.688Z" fill="#3B3E7D"/>
<path d="M49.7494 161.783H47.4382V162.331H49.7494V161.783Z" fill="#3B3E7D"/>
<path d="M49.7494 164.877H47.4382V165.426H49.7494V164.877Z" fill="#3B3E7D"/>
<path d="M143.098 164.8L142.941 167.62L145.252 167.659L145.526 164.721L143.098 164.8Z" fill="#FB9A83"/>
<path d="M151.52 130.445C151.52 130.445 151.481 131.111 151.403 132.208C151.363 132.482 151.363 132.835 151.324 133.188C151.011 136.87 150.462 143.529 149.836 148.269C148.974 154.889 146.193 165.779 146.193 165.779L143.333 165.701H143.059L142.393 165.662C142.393 165.662 142.863 158.767 143.49 152.813C143.881 148.857 144.116 139.534 144.234 133.658C144.273 130.602 144.312 128.487 144.312 128.487L151.52 130.445Z" fill="#3B3E7D"/>
<path d="M151.52 130.445C151.52 130.445 151.481 131.111 151.403 132.208C151.363 132.482 151.363 132.835 151.324 133.187C149.992 133.422 146.388 133.618 144.195 133.618C144.234 130.563 144.273 128.447 144.273 128.447L151.52 130.445Z" fill="#18285D"/>
<path d="M145.801 132.168C145.801 132.403 145.527 153.87 143.294 165.661H143.02C145.252 153.909 145.527 132.403 145.527 132.168H145.801Z" fill="#18285D"/>
<path d="M161.431 166.014L159.08 165.857H158.806L158.219 165.818C158.219 165.818 156.769 151.99 156.299 148.308C155.907 145.096 154.066 137.927 152.891 133.461C152.539 132.208 152.264 131.15 152.069 130.445C151.912 129.897 151.833 129.622 151.833 129.622L159.746 128.839C159.746 128.839 159.786 128.996 159.786 129.309C159.864 129.936 160.021 131.189 160.177 132.717C160.687 136.908 161.431 143.411 161.705 146.741C162.488 155.28 161.431 166.014 161.431 166.014Z" fill="#3B3E7D"/>
<path d="M160.217 132.717L152.891 133.422C152.539 132.169 152.264 131.111 152.069 130.406L159.786 129.309C159.864 129.936 160.021 131.189 160.217 132.717Z" fill="#18285D"/>
<path d="M159.041 165.818H158.767C158.649 161.548 158.219 150.893 157.357 146.349C156.299 140.63 153.792 132.364 153.792 132.247L154.066 132.168C154.105 132.247 156.573 140.551 157.631 146.271C158.493 150.854 158.924 161.548 159.041 165.818Z" fill="#18285D"/>
<path d="M161 129.426C155.124 131.307 149.131 131.659 143.059 130.523C142.941 128.878 142.628 123.433 142.393 117.714C142.393 117.518 142.393 117.322 142.354 117.126C142.354 116.969 142.354 116.813 142.354 116.656C142.354 116.539 142.354 116.421 142.354 116.343C142.354 116.303 142.354 116.225 142.354 116.186C142.354 116.029 142.354 115.873 142.354 115.716C142.354 115.598 142.354 115.481 142.354 115.324V115.285V115.246C142.354 115.128 142.354 114.972 142.354 114.854C142.354 114.815 142.354 114.815 142.354 114.776C142.354 114.619 142.354 114.462 142.354 114.306C142.354 114.188 142.354 114.11 142.354 113.992C142.354 113.953 142.354 113.914 142.354 113.875C142.354 113.757 142.354 113.64 142.354 113.522C142.354 113.483 142.354 113.444 142.354 113.405C142.354 113.287 142.354 113.17 142.354 113.091C142.354 113.052 142.354 113.013 142.354 112.935C142.354 112.778 142.354 112.621 142.354 112.465C142.354 112.308 142.354 112.151 142.354 111.994C142.354 111.877 142.354 111.799 142.354 111.681C142.354 111.446 142.354 111.25 142.354 111.054C142.236 106.158 142.236 102.123 142.589 101.575C143.411 100.282 147.368 98.2449 148.543 97.3048V97.5006C148.543 97.5006 149.366 98.4799 150.267 98.3624C151.05 98.2449 151.598 97.3048 151.716 97.1089C152.382 97.5006 153.831 98.1274 155.281 98.7933C156.73 99.4592 158.101 100.164 158.571 100.752C159.002 101.261 159.433 105.178 159.864 109.997C159.864 110.075 159.864 110.193 159.903 110.271C159.903 110.349 159.903 110.428 159.903 110.467C159.903 110.506 159.903 110.545 159.903 110.584C159.903 110.702 159.903 110.78 159.942 110.898C159.942 111.054 159.981 111.211 159.981 111.329C159.981 111.485 160.021 111.642 160.021 111.799C160.021 111.838 160.021 111.877 160.021 111.955C160.021 112.073 160.021 112.19 160.06 112.269C160.06 112.308 160.06 112.347 160.06 112.386C160.06 112.504 160.06 112.621 160.099 112.739V112.856C160.099 112.974 160.099 113.052 160.138 113.17C160.138 113.326 160.177 113.483 160.177 113.64C160.177 113.679 160.177 113.679 160.177 113.718C160.177 113.836 160.177 113.992 160.216 114.11V114.149V114.188C160.216 114.306 160.216 114.423 160.256 114.58C160.256 114.737 160.295 114.893 160.295 115.011C160.295 115.05 160.295 115.128 160.295 115.167C160.295 115.285 160.295 115.403 160.334 115.481C160.334 115.638 160.373 115.794 160.373 115.951C160.373 116.147 160.412 116.343 160.412 116.539C160.647 122.336 160.922 127.781 161 129.426Z" fill="#9468B4"/>
<path d="M159.864 112.034L142.236 113.091C142.236 113.052 142.236 113.013 142.236 112.935C142.236 112.778 142.236 112.621 142.236 112.465C142.236 112.308 142.236 112.151 142.236 111.995C142.236 111.877 142.236 111.799 142.236 111.681L159.785 110.624C159.785 110.741 159.785 110.819 159.824 110.937C159.824 111.094 159.864 111.25 159.864 111.368C159.864 111.525 159.903 111.681 159.903 111.838C159.864 111.916 159.864 111.955 159.864 112.034Z" fill="#BA68C8"/>
<path d="M160.059 114.306L142.314 115.363V115.324V115.285C142.314 115.167 142.314 115.011 142.314 114.893C142.314 114.854 142.314 114.854 142.314 114.815C142.314 114.658 142.314 114.501 142.314 114.345C142.314 114.227 142.314 114.149 142.314 114.031L159.981 112.974C159.981 113.091 159.981 113.17 160.02 113.287C160.02 113.444 160.059 113.6 160.059 113.757C160.059 113.796 160.059 113.796 160.059 113.835C160.059 113.953 160.059 114.11 160.098 114.227V114.266C160.059 114.266 160.059 114.266 160.059 114.306Z" fill="#BA68C8"/>
<path d="M160.216 116.617L142.392 117.675C142.392 117.479 142.392 117.283 142.353 117.087C142.353 116.931 142.353 116.774 142.353 116.617C142.353 116.5 142.353 116.382 142.353 116.304L160.138 115.246C160.138 115.364 160.138 115.481 160.177 115.559C160.177 115.716 160.216 115.873 160.216 116.03C160.216 116.265 160.216 116.46 160.216 116.617Z" fill="#BA68C8"/>
<path d="M157.748 107.647C158.297 108.313 159.158 109.84 159.55 110.545C159.589 110.624 159.628 110.741 159.668 110.781C159.707 110.859 159.746 110.898 159.746 110.898C159.746 110.937 159.785 110.937 159.785 110.937C159.785 110.781 159.746 110.663 159.746 110.506C159.746 110.428 159.746 110.35 159.746 110.31C159.668 110.154 159.589 109.997 159.472 109.801C159.041 109.018 158.414 107.999 157.983 107.451C157.944 107.373 157.866 107.373 157.787 107.451C157.709 107.49 157.709 107.568 157.748 107.647Z" fill="#BA68C8"/>
<path d="M145.957 102.946C148.347 102.711 150.11 101.614 151.167 100.752C152.342 99.8121 152.93 98.9112 152.93 98.872C152.969 98.7936 152.969 98.7153 152.891 98.6761C152.812 98.6369 152.734 98.637 152.695 98.7153C152.656 98.7545 150.305 102.28 145.918 102.672C145.84 102.672 145.801 102.75 145.801 102.828C145.84 102.868 145.879 102.946 145.957 102.946Z" fill="#BA68C8"/>
<path d="M156.22 126.45C156.299 126.45 156.338 126.371 156.338 126.293C156.338 126.215 156.26 126.136 156.181 126.136C152.264 126.097 149.796 124.295 148.464 122.728C146.976 121.044 146.427 119.359 146.427 119.359C146.388 119.281 146.31 119.242 146.27 119.281C146.192 119.32 146.153 119.399 146.192 119.438C146.231 119.516 146.78 121.2 148.307 122.924C149.678 124.53 152.186 126.41 156.22 126.45Z" fill="#BA68C8"/>
<path d="M152.93 124.099C153.008 124.099 153.047 124.06 153.047 123.982C153.047 123.903 153.008 123.825 152.93 123.825C149.483 123.12 148.66 120.338 148.66 120.299C148.621 120.221 148.582 120.182 148.503 120.221C148.425 120.26 148.386 120.299 148.425 120.378C148.425 120.417 148.66 121.122 149.287 121.984C149.874 122.728 151.01 123.707 152.93 124.099C152.891 124.099 152.93 124.099 152.93 124.099Z" fill="#BA68C8"/>
<path d="M143.921 107.999C143.451 108.743 142.785 110.349 142.51 111.093C142.471 111.211 142.432 111.289 142.393 111.329C142.354 111.407 142.354 111.446 142.354 111.485C142.315 111.524 142.275 111.564 142.236 111.564C142.236 111.485 142.236 111.407 142.236 111.368C142.197 111.368 142.158 111.368 142.119 111.368C142.119 111.329 142.158 111.211 142.236 111.093C142.315 110.898 142.393 110.663 142.51 110.388C142.863 109.566 143.333 108.469 143.725 107.881C143.764 107.803 143.842 107.803 143.921 107.842C143.921 107.842 143.96 107.96 143.921 107.999Z" fill="#BA68C8"/>
<path d="M145.174 90.1753C145.331 92.7215 147.015 94.3668 149.561 94.2493C152.108 94.0926 153.792 92.0948 153.635 89.5485C153.479 87.0023 151.873 85.1612 149.287 85.3179C146.232 85.4746 145.017 87.6291 145.174 90.1753Z" fill="#021147"/>
<path d="M145.801 91.2333C145.801 91.2333 145.017 90.3323 144.547 91.1549C144.077 91.9776 144.939 94.2104 146.192 93.5836L145.801 91.2333Z" fill="#FF6D6B"/>
<path d="M145.879 92.8784C145.84 92.8784 145.801 92.8392 145.761 92.8001C145.526 92.095 144.782 91.8599 144.743 91.8599C144.704 91.8599 144.665 91.7816 144.665 91.7424C144.665 91.7032 144.743 91.6641 144.782 91.6641C144.821 91.6641 145.644 91.9383 145.918 92.7609C145.996 92.8001 145.996 92.8784 145.879 92.8784C145.918 92.8784 145.918 92.8784 145.879 92.8784Z" fill="#ED495C"/>
<path d="M145.135 92.565C145.096 92.565 145.096 92.565 145.056 92.565C145.017 92.5258 144.978 92.4867 145.017 92.4083C145.017 92.4083 145.135 92.1733 145.409 92.0558C145.448 92.0166 145.526 92.0558 145.566 92.095C145.605 92.1341 145.566 92.2125 145.526 92.2516C145.331 92.3692 145.213 92.5258 145.213 92.5258C145.213 92.565 145.174 92.565 145.135 92.565Z" fill="#ED495C"/>
<path d="M153.087 90.8023C153.087 90.8023 153.753 89.823 154.301 90.5673C154.889 91.3116 154.262 93.6619 152.93 93.1919L153.087 90.8023Z" fill="#FF6D6B"/>
<path d="M153.204 92.4472C153.244 92.4472 153.283 92.408 153.322 92.3689C153.479 91.6638 154.184 91.3112 154.223 91.3112C154.262 91.272 154.301 91.2329 154.262 91.1545C154.223 91.1153 154.184 91.0762 154.105 91.1153C154.066 91.1153 153.283 91.5071 153.087 92.3297C153.087 92.3689 153.126 92.4472 153.204 92.4472Z" fill="#ED495C"/>
<path d="M153.949 92.0559C153.988 92.0559 153.988 92.0559 153.988 92.0167C154.027 91.9775 154.066 91.8992 154.027 91.86C154.027 91.86 153.871 91.6641 153.596 91.5466C153.557 91.5074 153.479 91.5466 153.44 91.625C153.401 91.6641 153.44 91.7425 153.518 91.7817C153.753 91.86 153.831 92.0167 153.831 92.0167C153.871 92.0167 153.91 92.0559 153.949 92.0559Z" fill="#ED495C"/>
<path d="M151.441 95.2285L151.598 97.5397C151.598 97.5397 150.971 98.7541 150.07 98.8716C149.169 98.9891 148.269 97.9706 148.269 97.9706L148.112 95.5811L151.441 95.2285Z" fill="#FB9A83"/>
<path d="M151.441 95.2285L151.52 96.247C150.932 96.9913 149.835 97.2263 148.19 97.0696L148.112 95.5811L151.441 95.2285Z" fill="#FF6D6B"/>
<path d="M145.409 91.233C145.409 91.3505 145.448 91.5072 145.448 91.6247C145.487 91.9773 145.565 92.3298 145.644 92.6432V92.6824C146.036 94.3668 146.858 95.9729 148.386 96.4038C151.833 97.4223 152.852 94.4452 153.243 92.7216C153.282 92.5257 153.322 92.3298 153.361 92.0948C153.361 92.0948 153.361 92.0948 153.361 92.0556C153.4 91.8206 153.4 91.5464 153.439 91.2722C153.439 91.0763 153.478 90.8413 153.478 90.6454C153.478 90.1362 153.518 89.6269 153.478 89.196C153.478 88.1775 152.812 87.2766 151.794 86.9632C150.384 86.5323 148.229 86.2189 146.31 87.4724C145.605 87.9425 145.174 88.726 145.213 89.5878C145.291 90.0187 145.33 90.6062 145.409 91.233Z" fill="#FB9A83"/>
<path d="M148.112 91.2722C148.112 91.5072 147.994 91.7423 147.838 91.7423C147.681 91.7423 147.564 91.5464 147.524 91.3114C147.524 91.0763 147.642 90.8413 147.799 90.8413C147.955 90.8413 148.112 91.0372 148.112 91.2722Z" fill="#021147"/>
<path d="M151.559 91.0764C151.559 91.3114 151.442 91.5465 151.285 91.5465C151.128 91.5465 150.971 91.3506 150.971 91.1156C150.971 90.8805 151.089 90.6455 151.246 90.6455C151.442 90.6455 151.559 90.8414 151.559 91.0764Z" fill="#021147"/>
<path d="M151.99 89.5488C151.99 89.5488 151.089 89.2354 150.423 89.5879L150.501 89.9797C150.501 89.9797 151.52 89.823 152.029 90.0188C152.029 89.823 152.029 89.6663 151.99 89.5488Z" fill="#021147"/>
<path d="M146.702 89.8622C146.702 89.8622 147.563 89.4704 148.268 89.7055L148.229 90.0972C148.229 90.0972 147.211 90.058 146.741 90.2931C146.662 90.1364 146.662 90.0189 146.702 89.8622Z" fill="#021147"/>
<path d="M149.679 93.0743C149.483 93.1135 149.287 93.0743 149.287 93.0743C149.209 93.0743 149.209 92.996 149.209 92.9568C149.209 92.8784 149.287 92.8784 149.326 92.8784C149.444 92.9176 149.679 92.9176 149.757 92.8393C149.757 92.8393 149.796 92.8001 149.796 92.7218C149.757 92.33 149.444 91.1157 149.444 91.0765C149.444 91.0373 149.444 90.959 149.522 90.959C149.561 90.959 149.64 90.959 149.64 91.0373C149.64 91.0765 149.992 92.2909 150.031 92.7218C150.031 92.8784 149.992 92.9568 149.914 92.996C149.836 93.0351 149.757 93.0351 149.679 93.0743Z" fill="#FF6D6B"/>
<path d="M148.229 93.8184C148.347 94.2493 148.7 95.0719 149.679 94.9936C150.697 94.9153 150.932 94.171 150.972 93.6226L148.229 93.8184Z" fill="#FCFBFF"/>
<path d="M153.518 90.8021L153.009 90.8413C153.048 90.332 152.813 89.7445 152.656 89.3527C152.264 88.4518 152.969 88.0209 152.343 87.59C151.716 87.1591 150.306 87.4333 149.287 87.4724C148.269 87.5116 146.663 87.6291 146.271 87.7466C145.879 87.8642 146.153 88.4909 146.31 89.0002C146.506 89.5094 145.879 90.097 145.801 90.6454C145.762 90.8021 145.801 91.0371 145.84 91.2722L145.409 91.3114C145.331 90.6846 145.292 90.097 145.252 89.5878C145.213 88.726 145.644 87.9425 146.349 87.4724C148.269 86.2189 150.423 86.5323 151.833 86.9632C152.813 87.2766 153.479 88.1775 153.518 89.196C153.518 89.6661 153.518 90.2537 153.518 90.8021Z" fill="#021147"/>
<path d="M149.992 91.3506C149.953 90.6454 150.501 90.0187 151.207 89.9795C151.912 89.9403 152.538 90.4888 152.578 91.1939C152.617 91.899 152.068 92.5257 151.363 92.5649C150.658 92.6041 150.071 92.0557 149.992 91.3506ZM150.227 91.3114C150.266 91.899 150.776 92.369 151.402 92.3299C152.029 92.2907 152.46 91.7815 152.421 91.1547C152.382 90.5671 151.873 90.097 151.246 90.1362C150.658 90.2146 150.188 90.7238 150.227 91.3114Z" fill="#FCFBFF"/>
<path d="M146.467 91.5464C146.427 90.8413 146.976 90.2145 147.681 90.1753C148.386 90.1361 149.013 90.6846 149.052 91.3897C149.091 92.0948 148.543 92.7215 147.838 92.7607C147.133 92.7999 146.506 92.2515 146.467 91.5464ZM146.662 91.5464C146.702 92.1339 147.211 92.604 147.838 92.5648C148.425 92.5257 148.895 92.0164 148.856 91.3897C148.817 90.8021 148.308 90.332 147.681 90.3712C147.093 90.4104 146.623 90.9196 146.662 91.5464Z" fill="#FCFBFF"/>
<path d="M152.382 90.7631C152.421 90.7631 152.421 90.7631 152.46 90.7239C152.46 90.7239 153.008 90.0972 153.792 90.2539C153.831 90.2539 153.909 90.2147 153.909 90.1755C153.909 90.1364 153.87 90.058 153.831 90.058C152.93 89.9013 152.342 90.5673 152.303 90.6064C152.264 90.6456 152.264 90.7239 152.303 90.7631C152.303 90.7631 152.342 90.7631 152.382 90.7631Z" fill="#FCFBFF"/>
<path d="M146.623 91.1155C146.662 91.1155 146.702 91.0763 146.702 91.0763C146.741 91.0371 146.702 90.9588 146.662 90.9196C146.623 90.8805 145.683 90.3712 144.9 90.5279C144.86 90.5279 144.821 90.6062 144.821 90.6454C144.821 90.6846 144.9 90.7238 144.939 90.7238C145.644 90.5671 146.545 91.0763 146.545 91.0763C146.584 91.1155 146.623 91.1155 146.623 91.1155Z" fill="#FCFBFF"/>
<path d="M148.974 91.1153C148.974 91.1153 149.209 90.7628 149.522 90.7628C149.836 90.7628 150.071 91.037 150.071 91.0761L150.227 90.9586C150.227 90.9586 149.914 90.5669 149.483 90.5669C149.052 90.6061 148.778 90.9978 148.778 91.037L148.974 91.1153Z" fill="#FCFBFF"/>
<path d="M143.45 128.095L142.314 129.662C142.314 129.662 141.649 129.231 140.748 128.526C139.377 127.429 137.457 125.627 136.478 123.511C135.263 120.848 135.616 118.693 135.616 118.693C135.773 117.126 136.83 113.914 137.692 111.525C138.005 110.663 138.28 109.919 138.476 109.37L141.061 109.958L142.158 110.624L141.727 111.72L138.906 119.242C139.141 121.435 140.277 123.629 141.335 125.235C142.393 126.998 143.45 128.095 143.45 128.095Z" fill="#FB9A83"/>
<path d="M143.451 128.094L142.315 129.661C142.315 129.661 141.649 129.23 140.748 128.525C140.552 127.35 140.669 125.666 141.296 125.274C142.393 126.998 143.451 128.094 143.451 128.094Z" fill="#FF6D6B"/>
<path d="M142.824 126.293C143.059 126.293 144.273 126.371 144.156 125.94C143.999 125.47 142.785 124.922 142.785 124.922V124.883V124.765L142.745 123.747C142.51 123.747 142.315 123.786 142.197 123.825C141.649 123.982 141.727 125.196 141.727 125.196C141.727 125.196 141.061 125.431 141.1 125.94C141.139 126.41 141.649 126.489 141.649 126.489C141.649 126.489 140.904 126.841 141.1 127.272C141.257 127.703 141.844 127.821 141.844 127.821C141.844 127.821 141.218 128.251 141.453 128.526C141.688 128.8 142.197 128.957 142.197 128.957C142.197 128.957 141.766 129.544 142.197 129.858C142.628 130.171 143.294 130.093 143.725 129.975C144.156 129.818 144.077 129.309 143.255 128.917C143.255 128.917 143.999 128.996 144.352 128.369C144.665 127.86 143.881 127.625 143.216 127.546C143.725 127.586 144.626 127.586 144.782 127.076C144.939 126.489 143.098 126.332 142.824 126.293Z" fill="#FB9A83"/>
<path d="M142.079 110.663L141.649 111.76C140.787 111.799 139.259 111.838 137.614 111.525C137.927 110.663 138.201 109.919 138.397 109.37L140.983 109.958L142.079 110.663Z" fill="#FF6D6B"/>
<path d="M142.432 101.614C142.432 101.614 139.298 104.748 137.026 110.232C138.828 110.819 140.512 111.211 142.079 111.407C142.275 111.054 143.098 108.704 143.725 107.02L142.432 101.614Z" fill="#9468B4"/>
<path d="M166.954 119.359L166.915 119.398C165.975 119.986 164.721 119.633 164.29 118.615L161.705 113.836L160.921 112.19L160.412 111.133L159.942 110.193L159.511 109.331C159.472 109.057 159.394 108.782 159.354 108.469L160.647 105.139L161.235 104.708C161.235 104.708 161.94 106.197 162.88 108.077C163.037 108.352 163.193 108.665 163.35 108.939C163.428 109.096 163.507 109.253 163.585 109.409C163.781 109.762 163.977 110.114 164.173 110.467C164.369 110.819 164.604 111.211 164.8 111.564C164.956 111.799 165.074 112.073 165.23 112.308C165.309 112.465 165.387 112.582 165.465 112.739C166.092 113.875 166.601 114.737 166.797 115.089L167.111 115.05C167.111 115.05 168.56 118.301 166.954 119.359Z" fill="#FB9A83"/>
<path d="M163.585 109.449L160.921 112.23L160.412 111.172L159.942 110.232L162.88 108.117C163.037 108.391 163.193 108.704 163.35 108.979C163.429 109.135 163.507 109.292 163.585 109.449Z" fill="#FF6D6B"/>
<path d="M165.426 116.499C165.426 116.499 165.074 112.621 165.779 111.681C166.484 110.741 167.189 110.31 167.933 110.232C168.717 110.154 169.461 110.114 169.461 110.467C169.461 110.467 171.185 109.918 172.046 110.271C172.908 110.624 169.853 111.485 168.913 111.642C167.973 111.799 167.581 112.386 167.62 112.974C167.659 113.522 167.698 117.283 167.698 117.283L165.426 116.499Z" fill="#FB9A83"/>
<path d="M165.191 116.46C165.27 116.46 165.348 116.382 165.348 116.343C165.348 114.698 165.426 113.444 165.466 112.739C165.387 112.621 165.348 112.465 165.231 112.308C165.152 112.974 165.035 114.345 165.035 116.343C165.035 116.421 165.113 116.46 165.191 116.46Z" fill="#FF6D6B"/>
<path d="M163.742 111.564L175.454 109.879C175.885 109.801 176.199 109.409 176.12 108.978C176.042 108.547 175.65 108.234 175.219 108.312L163.507 109.997C163.076 110.075 162.763 110.467 162.841 110.898C162.88 111.329 163.311 111.642 163.742 111.564Z" fill="#18285D"/>
<path d="M176.277 109.762L177.452 100.008C177.53 99.4594 177.06 98.9893 176.512 99.0677L170.989 99.8511C170.636 99.8903 170.323 100.204 170.284 100.556L168.952 110.78L176.277 109.762Z" fill="#3B3E7D"/>
<path d="M170.245 100.596L168.913 110.741L168.286 110.82L169.618 100.674C169.657 100.282 169.97 100.008 170.323 99.969L170.95 99.8906C170.597 99.9298 170.284 100.243 170.245 100.596Z" fill="#18285D"/>
<path d="M172.399 105.453C172.36 106.08 172.791 106.55 173.417 106.432C174.044 106.354 174.593 105.766 174.632 105.1C174.671 104.474 174.24 104.004 173.613 104.121C172.987 104.199 172.438 104.787 172.399 105.453Z" fill="#586199"/>
<path d="M164.055 108.469L163.389 108.978L160.451 111.172L160.099 111.446C159.942 110.976 159.746 110.232 159.589 109.37C159.55 109.096 159.472 108.822 159.433 108.508C158.845 105.179 158.336 100.674 158.336 100.674C158.336 100.674 161 103.181 164.055 108.469Z" fill="#9468B4"/>
<path d="M68.7873 166.64L70.8243 166.484H71.0593L71.5686 166.445C71.5686 166.445 72.2345 151.246 72.4695 147.172C72.6654 143.646 73.9581 135.772 74.8199 130.837C75.0549 129.426 75.2508 128.29 75.4075 127.546C75.525 126.958 75.5642 126.645 75.5642 126.645L68.6698 125.744C68.6698 125.744 68.6698 125.94 68.6306 126.293C68.5914 126.998 68.5131 128.33 68.4347 130.053C68.1997 134.676 67.808 141.844 67.6905 145.487C67.3771 154.81 68.7873 166.64 68.7873 166.64Z" fill="#3B3E7D"/>
<path d="M68.4346 129.975L74.8197 130.798C75.0548 129.387 75.2506 128.251 75.4073 127.507L68.6304 126.214C68.5913 126.919 68.5129 128.251 68.4346 129.975Z" fill="#18285D"/>
<path d="M70.8244 166.445H71.0595C70.9811 161.744 70.9028 149.992 71.4512 145.017C72.1563 138.75 73.9583 129.623 73.9583 129.544L73.7232 129.466C73.7232 129.544 71.9213 138.711 71.2162 144.978C70.6678 149.953 70.7461 161.744 70.8244 166.445Z" fill="#18285D"/>
<path d="M85.3574 165.23L86.1801 167.894L88.0995 167.267L87.3552 164.369L85.3574 165.23Z" fill="#FB9A83"/>
<path d="M85.1617 165.818L87.0811 165.113L87.3162 165.035L87.7862 164.878C87.7862 164.878 84.339 150.071 83.4772 146.075C82.733 142.628 81.832 134.676 81.3227 129.74C81.166 128.33 81.0485 127.155 81.0094 126.41C80.931 125.823 80.931 125.47 80.931 125.47L74.0366 126.45C74.0366 126.45 74.0758 126.645 74.1541 126.959C74.3108 127.664 74.585 128.957 74.9768 130.602C75.9953 135.107 77.5622 142.119 78.424 145.683C80.6568 154.811 85.1617 165.818 85.1617 165.818Z" fill="#3B3E7D"/>
<path d="M74.9378 130.602L81.3229 129.701C81.1662 128.291 81.0487 127.115 81.0095 126.371L74.1543 126.959C74.2718 127.625 74.546 128.956 74.9378 130.602Z" fill="#18285D"/>
<path d="M87.0812 165.074L87.3162 164.995C85.9844 160.49 82.733 149.209 81.9104 144.273C80.8919 138.045 80.1476 128.761 80.1476 128.682L79.9126 128.643C79.9126 128.721 80.6569 138.005 81.6754 144.273C82.498 149.248 85.7493 160.569 87.0812 165.074Z" fill="#18285D"/>
<path d="M72.783 109.527C70.9027 112.621 65.5361 115.481 65.5361 115.481C63.4991 115.167 62.2064 114.619 60.8745 113.953C61.2271 113.052 61.3446 112.112 61.4621 110.898C63.3816 111.328 64.9876 111.524 64.9876 111.524C68.8657 109.487 73.0964 100.086 73.0964 100.086C74.5066 102.671 72.783 109.527 72.783 109.527Z" fill="#BA68C8"/>
<path d="M73.4099 97.3049C73.4099 97.6966 73.3708 98.1275 73.3708 98.5976C73.9583 98.7543 74.5459 98.8326 75.1335 98.9501C76.7788 99.2243 78.424 99.3419 80.0693 99.146C81.2836 98.9893 82.4588 98.7151 83.4773 97.9708C83.9474 97.6574 84.2999 97.2657 84.6133 96.8348C84.3391 96.3647 84.1041 95.738 84.0649 94.2494C84.0257 92.9175 83.9474 91.0372 83.9474 91.0372C83.7515 87.0025 79.6776 86.2582 79.6776 86.2582C74.781 85.2789 73.0965 89.3528 72.9399 91.6248C72.9399 91.7815 72.9399 91.9382 72.9399 92.0949C72.8223 92.9959 73.4099 95.4246 73.4099 97.3049Z" fill="#021147"/>
<path d="M83.9081 101.614C83.9081 101.614 83.7122 104.238 83.2421 106.785C83.0855 107.686 82.8896 108.587 82.6546 109.331C82.537 109.801 82.3803 110.271 82.2628 110.819C81.6361 113.248 81.0876 116.382 81.0093 119.085C81.0093 119.594 81.0093 120.064 81.0093 120.534C81.2052 124.021 82.4587 127.037 81.3227 128.251C81.3227 128.251 71.7646 130.445 67.9256 127.194C67.6122 126.919 67.4556 126.489 67.6123 126.097C68.1607 124.373 69.7667 119.359 70.4327 116.735C71.0203 114.502 71.412 112.817 71.412 111.485C71.412 111.368 71.412 111.25 71.412 111.133C71.412 110.702 71.3337 110.271 71.2161 109.879C70.7461 108.234 70.6285 107.646 71.2945 106.471C71.412 106.236 71.6079 105.766 71.7646 105.218C72.3913 103.259 73.1356 100.008 73.1356 100.008L73.8799 99.8511L74.9767 99.5769L75.6426 99.4202L79.0115 99.146C79.0115 99.146 79.5991 99.4202 80.3825 99.7728C80.8134 99.9686 81.3227 100.204 81.8319 100.478C82.6154 100.909 83.438 101.3 83.9081 101.614Z" fill="#9468B4"/>
<path d="M83.242 106.785C83.0854 107.686 82.8895 108.587 82.6545 109.331C82.5369 109.801 82.3802 110.271 82.2627 110.819C81.636 113.248 81.0876 116.382 81.0092 119.085L77.562 117.361L80.5391 114.149L81.2834 105.923L83.242 106.785Z" fill="#BA68C8"/>
<path d="M71.4121 111.172C71.4121 111.289 71.4121 111.407 71.4121 111.524C72.979 113.052 75.7211 115.167 78.9724 115.363C79.0508 115.363 79.0899 115.324 79.0899 115.246C79.0899 115.167 79.0508 115.128 78.9724 115.128C75.6819 114.893 72.9398 112.7 71.4121 111.172Z" fill="#BA68C8"/>
<path d="M75.1335 106.04C76.7787 106.158 78.424 104.473 78.5023 104.434C78.5415 104.395 78.5415 104.317 78.5023 104.277C78.4631 104.238 78.3848 104.238 78.3456 104.277C78.3456 104.277 76.5829 106.04 75.016 105.805C74.9376 105.805 74.8984 105.844 74.8984 105.923C74.8984 106.001 74.9376 106.04 75.016 106.04C75.016 106.04 75.0943 106.04 75.1335 106.04Z" fill="#BA68C8"/>
<path d="M77.8757 123.081C77.9149 123.081 77.9932 123.042 77.9932 123.002C77.9932 122.924 77.954 122.885 77.9149 122.885C73.645 122.101 72.3915 114.58 72.3523 114.502C72.3523 114.424 72.274 114.384 72.2348 114.424C72.1565 114.424 72.1173 114.502 72.1565 114.541C72.1957 114.815 73.4492 122.297 77.8757 123.081Z" fill="#BA68C8"/>
<path d="M76.348 120.73C76.3872 120.73 76.4263 120.73 76.4655 120.691C76.5047 120.652 76.5047 120.573 76.4263 120.534C74.2327 118.967 74.0368 116.891 74.0368 116.852C74.0368 116.774 73.9584 116.734 73.9193 116.734C73.8409 116.734 73.8018 116.813 73.8018 116.852C73.8018 116.93 73.9976 119.085 76.2696 120.691C76.3088 120.73 76.3088 120.73 76.348 120.73Z" fill="#BA68C8"/>
<path d="M74.5457 92.4084C74.5457 92.4084 73.8798 91.4683 73.3313 92.1734C72.7437 92.8785 73.3705 95.1113 74.6632 94.6804L74.5457 92.4084Z" fill="#FF6D6B"/>
<path d="M74.1146 94.4845C74.1146 94.6021 73.9971 94.7196 73.8796 94.7196C73.7621 94.7196 73.6445 94.6021 73.6445 94.4845C73.6445 94.367 73.7621 94.2495 73.8796 94.2495C74.0363 94.2495 74.1146 94.367 74.1146 94.4845Z" fill="white"/>
<path d="M74.4673 93.9754C74.4282 93.9754 74.389 93.9363 74.3498 93.8971C74.1931 93.192 73.488 92.8786 73.488 92.8786C73.4488 92.8394 73.4097 92.8002 73.4488 92.7219C73.488 92.6827 73.5272 92.6436 73.6055 92.6827C73.6447 92.6827 74.4282 93.0353 74.624 93.8579C74.5848 93.9363 74.5457 93.9754 74.4673 93.9754Z" fill="#ED495C"/>
<path d="M73.7229 93.5836C73.6837 93.5836 73.6837 93.5836 73.6837 93.5444C73.6445 93.5052 73.6445 93.4269 73.6445 93.3877C73.6445 93.3877 73.8012 93.1919 74.0754 93.1135C74.1146 93.0743 74.1929 93.1135 74.2321 93.1919C74.2713 93.231 74.2321 93.3094 74.1538 93.3094C73.9187 93.3877 73.8404 93.5052 73.8404 93.5052C73.8012 93.5836 73.762 93.5836 73.7229 93.5836Z" fill="#ED495C"/>
<path d="M79.7165 97.3834L79.5598 99.8121C79.5598 99.8121 78.228 100.948 77.2486 100.987C76.2693 101.026 75.9951 99.8513 75.9951 99.8513L76.1518 97.3442L79.7165 97.3834Z" fill="#FB9A83"/>
<path d="M79.7163 97.6184L79.638 98.676C78.9328 99.342 77.7577 99.5378 76.0732 99.1853L76.1908 97.54L79.7163 97.6184Z" fill="#FF6D6B"/>
<path d="M74.0758 93.4271C74.0758 93.7013 74.115 93.9363 74.1541 94.2105C74.35 95.9733 75.3293 97.9319 76.7004 98.3628C79.6775 99.2638 81.0877 96.9526 81.6753 95.2682C81.7536 95.0723 81.6753 94.8373 81.7145 94.6414C81.832 94.093 82.1062 93.5054 82.1845 92.8787C82.2629 92.4478 82.3021 92.056 82.3412 91.6643C82.4587 90.6067 81.9103 89.5882 80.9702 89.1573C79.6383 88.5305 77.5622 87.9429 75.486 88.9614C74.7026 89.3531 74.1933 90.0974 74.115 90.9984C74.0758 91.6251 74.0366 92.4869 74.0758 93.4271Z" fill="#FB9A83"/>
<path d="M77.6403 95.0329C77.6795 95.0329 77.7578 94.9937 77.7578 94.9545C77.7578 94.8762 77.7186 94.837 77.6795 94.7978L77.2877 94.7195L77.9537 93.2701C77.9929 93.1917 77.9537 93.1526 77.9145 93.1134C77.8362 93.0742 77.797 93.1134 77.7578 93.1526L76.9744 94.837L77.6403 95.0329Z" fill="#FF6D6B"/>
<path d="M75.4466 90.5673C74.2322 91.0374 74.5064 92.4476 74.0755 93.1136C74.0364 93.1527 74.0364 93.1527 73.9972 93.1527C73.958 92.2126 73.9972 91.3116 74.0364 90.6457C74.1147 89.7447 74.6631 88.9613 75.4466 88.5695C77.6402 87.5119 79.8339 88.0995 81.2441 88.7654C82.2234 89.2355 82.811 90.254 82.6935 91.3508C82.6543 91.7425 82.576 92.1734 82.5368 92.6043C82.341 92.7218 81.8709 92.7218 81.7925 93.0352C81.675 93.8579 81.5967 94.4454 81.44 94.3671C81.1658 94.2496 81.0483 93.2311 81.4008 92.6043C81.4008 92.6043 81.1658 92.1343 80.1081 91.6642C78.7371 91.0374 77.4444 90.1365 77.4444 90.1365C77.4444 90.1365 76.9351 89.7839 76.7393 89.4313C76.7393 89.3922 76.3475 90.2148 75.4466 90.5673Z" fill="#021147"/>
<path d="M76.426 92.957C76.426 93.2312 76.2693 93.4271 76.1126 93.3879C75.9559 93.3879 75.8384 93.1529 75.8384 92.9178C75.8384 92.6436 75.9951 92.4478 76.1518 92.4869C76.3084 92.4869 76.426 92.722 76.426 92.957Z" fill="#021147"/>
<path d="M79.6381 93.1919C79.6381 93.4661 79.4814 93.6619 79.3247 93.6228C79.1681 93.6228 79.0505 93.3877 79.0505 93.1527C79.0505 92.8785 79.2072 92.6826 79.3639 92.7218C79.5206 92.7218 79.6381 92.9177 79.6381 93.1919Z" fill="#021147"/>
<path d="M75.4076 91.6643C75.6426 91.6251 76.1519 91.5859 76.6611 91.6251C76.7786 91.6251 76.8961 91.7426 76.857 91.8602C76.8178 91.9385 76.7394 91.9777 76.6219 91.9777C76.2694 91.9385 75.3684 91.8602 74.9375 91.9777C74.9375 91.8993 74.9767 91.8602 75.055 91.7818C75.1334 91.7426 75.2509 91.7035 75.4076 91.6643Z" fill="#021147"/>
<path d="M80.1867 92.0557C79.9517 91.9774 79.4816 91.8599 78.9723 91.8599C78.8548 91.8599 78.7373 91.9382 78.7373 92.0557C78.7373 92.1341 78.8157 92.2124 78.9332 92.2124C79.2857 92.2124 80.1867 92.2908 80.6176 92.4475C80.6176 92.3691 80.6176 92.3299 80.5392 92.2516C80.4217 92.1341 80.3042 92.0949 80.1867 92.0557Z" fill="#021147"/>
<path d="M76.3086 95.6206C76.3869 96.0515 76.622 96.7958 77.5621 96.8741C78.5414 96.9525 78.8548 96.2865 78.9723 95.8165L76.3086 95.6206Z" fill="white"/>
<path d="M77.5226 97.5793C77.2484 97.5793 77.0134 97.3835 77.0134 97.3835C76.9742 97.3443 76.9351 97.266 76.9742 97.2268C77.0134 97.1876 77.0917 97.1484 77.1309 97.1876C77.1309 97.1876 77.3268 97.3051 77.5226 97.3443C77.7577 97.3443 77.9535 97.266 77.9535 97.266C77.9927 97.2268 78.0711 97.266 78.1102 97.3051C78.1494 97.3443 78.1102 97.4226 78.0711 97.4618C78.0711 97.4618 77.836 97.6185 77.5226 97.5793Z" fill="#FF6D6B"/>
<path d="M81.8318 92.9176C81.8318 92.9176 82.7328 91.9774 83.1637 92.7217C83.5946 93.466 82.772 95.5422 81.636 94.9546L81.8318 92.9176Z" fill="#FB9A83"/>
<path d="M82.3412 95.0329C82.3412 95.1504 82.2237 95.2679 82.1061 95.2679C81.9886 95.2679 81.8711 95.1504 81.8711 95.0329C81.8711 94.9154 81.9886 94.7979 82.1061 94.7979C82.2628 94.7979 82.3803 94.9154 82.3412 95.0329Z" fill="white"/>
<path d="M81.91 94.2888C81.9492 94.2888 81.9883 94.2497 82.0275 94.2105C82.2626 93.5837 82.9677 93.3487 82.9677 93.3487C83.0068 93.3487 83.046 93.2703 83.046 93.2312C83.046 93.192 82.9677 93.1528 82.9285 93.1528C82.8893 93.1528 82.145 93.3879 81.8708 94.1321C81.7925 94.2105 81.8317 94.2888 81.91 94.2888Z" fill="#FF6D6B"/>
<path d="M82.6152 94.0145H82.6544C82.6936 93.9753 82.7328 93.9362 82.6936 93.897C82.6936 93.897 82.5761 93.7011 82.341 93.5836C82.3018 93.5444 82.2235 93.5836 82.2235 93.6228C82.1843 93.662 82.2235 93.7403 82.2627 93.7403C82.4585 93.8578 82.5369 93.9753 82.5369 93.9753C82.5369 94.0145 82.5761 94.0145 82.6152 94.0145Z" fill="#FF6D6B"/>
<path d="M77.0919 125.352H61.5403C60.0518 125.352 58.8374 124.138 58.8374 122.649V107.098C58.8374 105.609 60.0518 104.395 61.5403 104.395H77.0919C78.5804 104.395 79.7948 105.609 79.7948 107.098V122.649C79.8339 124.138 78.6196 125.352 77.0919 125.352Z" fill="#9468B4"/>
<path d="M76.191 125.353H60.6394C59.1509 125.353 57.9365 124.139 57.9365 122.65V107.098C57.9365 105.61 59.1509 104.396 60.6394 104.396H76.191C77.6795 104.396 78.8939 105.61 78.8939 107.098V122.65C78.9331 124.139 77.6795 125.353 76.191 125.353Z" fill="#BA68C8"/>
<path d="M74.389 109.214C73.0179 107.843 70.7851 107.803 69.414 109.174L68.043 110.545C67.6121 110.976 67.8471 111.721 68.4739 111.799C68.7089 111.838 68.944 111.76 69.1006 111.603L70.4717 110.232C71.2551 109.449 72.5478 109.449 73.3313 110.232C74.1148 111.016 74.1148 112.308 73.3313 113.092L70.6284 115.755C69.8449 116.539 68.5522 116.539 67.7688 115.755C67.7296 115.716 67.6904 115.677 67.6904 115.638C67.4554 115.364 67.0637 115.285 66.7503 115.481C66.3586 115.716 66.2802 116.226 66.5544 116.578C66.5936 116.656 66.6719 116.696 66.7503 116.774C68.1213 118.145 70.3542 118.184 71.7252 116.813L74.4281 114.149C75.76 112.817 75.76 110.585 74.389 109.214Z" fill="white"/>
<path d="M67.1421 118.928L65.9669 120.104C65.1443 120.887 63.8124 120.926 63.029 120.104C62.2847 119.32 62.2847 118.027 63.0681 117.283L65.7711 114.619C66.5545 113.836 67.8472 113.836 68.6307 114.619C68.7482 114.737 68.8657 114.894 68.9832 115.05C69.1791 115.403 69.61 115.52 69.9625 115.364C70.3543 115.168 70.5109 114.698 70.2759 114.345C70.1192 114.071 69.9234 113.797 69.6883 113.562C68.3173 112.191 66.0844 112.152 64.7134 113.523L62.0105 116.186C60.6394 117.557 60.6003 119.79 61.9713 121.161C63.3424 122.532 65.5752 122.571 66.9462 121.2L68.1606 119.986C68.6307 119.555 68.3173 118.772 67.6905 118.733H67.6513C67.4947 118.733 67.2988 118.811 67.1421 118.928Z" fill="white"/>
<path d="M56.9572 111.172C56.9572 111.172 58.2499 111.289 58.6417 111.72C59.0726 112.151 57.3098 112.269 57.3098 112.269C57.3098 112.269 59.4251 112.151 59.5818 112.66C59.6993 113.17 57.6623 113.366 57.6623 113.366C57.6623 113.366 59.1117 113.483 59.2684 113.875C59.3859 114.267 57.8974 114.462 57.8974 114.462C57.8974 114.462 59.0334 114.697 59.1901 114.972C59.3076 115.246 58.0933 115.559 57.4273 115.481C56.7614 115.403 57.0356 114.541 57.0356 114.541C57.0356 114.541 56.7222 113.796 56.9181 113.522C56.9181 113.522 56.5263 112.895 56.683 112.465C56.6047 112.425 56.1346 111.368 56.9572 111.172Z" fill="#FB9A83"/>
<path d="M71.2944 123.002L70.8243 123.198C70.3934 123.394 69.9625 123.277 69.61 122.963C69.4533 122.846 69.2183 122.572 69.0616 122.493C68.709 122.297 67.8864 122.023 67.6514 122.141C67.4163 122.219 67.6514 122.65 67.8864 122.767C68.1214 122.885 68.474 123.002 68.7482 123.237C68.9832 123.433 67.9647 124.53 67.4947 124.844C67.0246 125.196 66.0061 125.274 66.1236 125.744C66.202 126.215 66.9071 125.98 66.9071 125.98C66.9071 125.98 66.8679 126.45 67.573 126.528C67.573 126.528 67.6122 126.959 68.0823 126.998C68.0823 126.998 68.2389 127.507 68.709 127.429C69.1791 127.39 70.6677 127.194 72.5871 124.569L71.2944 123.002Z" fill="#FB9A83"/>
<path d="M83.9082 101.614C83.9082 101.614 85.1226 111.955 84.1432 115.794C83.1639 119.633 72.6265 124.922 72.6265 124.922L71.0596 123.08C71.0596 123.08 79.09 117.165 80.8527 114.541L81.1269 106.55C81.1661 106.55 81.4403 104.042 83.9082 101.614Z" fill="#9468B4"/>
<path d="M124.217 131.072V169.422C124.217 170.754 123.12 171.851 121.788 171.851H104.2C102.868 171.851 101.771 170.754 101.771 169.422V131.072C101.771 129.74 102.868 128.643 104.2 128.643H121.749C123.12 128.643 124.217 129.74 124.217 131.072Z" fill="#3B3E7D"/>
<path d="M124.217 150.227V169.422C124.217 170.754 123.12 171.85 121.788 171.85H104.199C102.868 171.85 101.771 170.754 101.771 169.422V150.227H124.217Z" fill="#18285D"/>
<path d="M122.219 135.263V165.152C122.219 165.739 121.749 166.17 121.161 166.17H104.787C104.552 166.17 104.356 166.092 104.2 165.974C103.925 165.778 103.729 165.465 103.729 165.112V135.224C103.729 134.558 104.278 134.009 104.944 134.009H121.005C121.671 134.088 122.219 134.597 122.219 135.263Z" fill="#F9F9F9"/>
<path d="M122.219 135.263V136.869H103.769V135.263C103.769 134.597 104.317 134.049 104.983 134.049H121.044C121.67 134.088 122.219 134.597 122.219 135.263Z" fill="#D9E4F5"/>
<path d="M118.027 135.929H107.96C107.686 135.929 107.49 135.733 107.49 135.459C107.49 135.185 107.686 134.989 107.96 134.989H118.027C118.302 134.989 118.498 135.185 118.498 135.459C118.498 135.733 118.262 135.929 118.027 135.929Z" fill="#F9F9F9"/>
<path d="M118.341 132.246H108.195C107.882 132.246 107.607 131.972 107.607 131.659C107.607 131.345 107.882 131.071 108.195 131.071H118.341C118.654 131.071 118.928 131.345 118.928 131.659C118.967 131.972 118.693 132.246 118.341 132.246Z" fill="#586199"/>
<path d="M121.005 140.121V162.762C121.005 163.585 120.339 164.29 119.477 164.29H106.472C105.649 164.29 104.944 163.624 104.944 162.762V140.121C104.944 139.298 105.61 138.593 106.472 138.593H119.477C120.339 138.593 121.005 139.298 121.005 140.121Z" fill="#D9E4F5"/>
<path d="M121.005 140.121V141.139H104.944V140.121C104.944 139.298 105.61 138.593 106.472 138.593H119.477C120.339 138.593 121.005 139.298 121.005 140.121Z" fill="#B4CAE3"/>
<path d="M119.242 147.563H106.746V156.494H119.242V147.563Z" fill="#BA68C8"/>
<path d="M119.242 154.144L118.615 153.126L116.617 149.718L112.583 156.495H119.242V154.144Z" fill="#18285D"/>
<path d="M111.76 156.495H106.746L109.253 152.46L111.76 148.425L114.267 152.46L116.774 156.495H111.76Z" fill="#3B3E7D"/>
<path d="M110.115 151.05L111.76 152.264L113.405 151.05L111.76 148.425L110.115 151.05Z" fill="white"/>
<path d="M115.246 152.029L116.617 153.126L117.988 152.029L116.617 149.718L115.246 152.029Z" fill="white"/>
<path d="M118.772 143.92H107.255C106.981 143.92 106.785 143.685 106.785 143.45V143.372C106.785 143.098 107.02 142.902 107.255 142.902H118.772C119.046 142.902 119.242 143.137 119.242 143.372V143.45C119.242 143.724 119.007 143.92 118.772 143.92Z" fill="#B4CAE3"/>
<path d="M118.772 145.761H107.255C106.981 145.761 106.785 145.526 106.785 145.291V145.213C106.785 144.939 107.02 144.743 107.255 144.743H118.772C119.046 144.743 119.242 144.978 119.242 145.213V145.291C119.242 145.526 119.007 145.761 118.772 145.761Z" fill="#B4CAE3"/>
<path d="M118.772 159.237H107.255C106.981 159.237 106.785 159.002 106.785 158.767V158.688C106.785 158.414 107.02 158.218 107.255 158.218H118.772C119.046 158.218 119.242 158.453 119.242 158.688V158.767C119.242 159.002 119.007 159.237 118.772 159.237Z" fill="#B4CAE3"/>
<path d="M118.772 161.039H107.255C106.981 161.039 106.785 160.803 106.785 160.568V160.49C106.785 160.216 107.02 160.02 107.255 160.02H118.772C119.046 160.02 119.242 160.255 119.242 160.49V160.568C119.242 160.843 119.007 161.039 118.772 161.039Z" fill="#B4CAE3"/>
<path d="M23.5425 41.249C23.4642 41.249 23.3859 41.249 23.3467 41.249V43.7169H25.3445C24.7177 42.3459 23.8168 41.5232 23.5425 41.249Z" fill="#BA68C8"/>
<path d="M23.3467 48.6526H25.6579C25.8537 48.0258 25.9321 47.3599 25.9712 46.6548H23.3859V48.6526H23.3467Z" fill="#BA68C8"/>
<path d="M24.6003 50.6503C24.9529 50.1802 25.2271 49.671 25.4621 49.1226H23.3076V51.8255C23.5035 51.708 24.0519 51.3554 24.6003 50.6503Z" fill="#BA68C8"/>
<path d="M24.3652 41.4053C24.6394 41.6795 24.8745 41.9929 25.1095 42.3062C25.4229 42.7371 25.6971 43.2072 25.893 43.7165H27.6166C26.8331 42.5413 25.6579 41.7187 24.3652 41.4053Z" fill="#BA68C8"/>
<path d="M27.8517 44.1475H26.0498C26.2848 44.8134 26.4024 45.4793 26.4024 46.1453H28.4002C28.3218 45.4793 28.1651 44.8134 27.8517 44.1475Z" fill="#BA68C8"/>
<path d="M25.5403 44.1475H23.3467V46.1453H25.9321C25.8929 45.4793 25.7754 44.8134 25.5403 44.1475Z" fill="#BA68C8"/>
<path d="M25.9712 49.1226C25.7361 49.7885 25.3836 50.4153 24.9527 50.9637C24.7568 51.2379 24.5218 51.4729 24.2476 51.708C25.6969 51.3946 26.9505 50.4544 27.6948 49.1226H25.9712Z" fill="#BA68C8"/>
<path d="M28.3999 46.6548H26.4021C26.4021 47.3599 26.2846 48.0258 26.1279 48.6526H27.969C28.2433 48.0258 28.3999 47.3599 28.3999 46.6548Z" fill="#BA68C8"/>
<path d="M17.8235 46.1843H19.8605C19.8996 45.5184 20.0172 44.8133 20.213 44.1865H18.3327C18.0585 44.8133 17.8627 45.4792 17.8235 46.1843Z" fill="#BA68C8"/>
<path d="M22.0148 51.708C21.7798 51.4729 21.5056 51.2379 21.3097 50.9637C20.8788 50.4153 20.5654 49.8277 20.2912 49.1226H18.4893C19.2335 50.4544 20.5262 51.3946 22.0148 51.708Z" fill="#BA68C8"/>
<path d="M20.174 48.6526C20.0173 48.0258 19.8998 47.3599 19.8998 46.6548H17.8628C17.8628 47.3599 18.0195 48.0258 18.2937 48.6526H20.174Z" fill="#BA68C8"/>
<path d="M21.5447 42.5809C21.3097 42.9334 21.0747 43.3252 20.918 43.7169H22.8766V41.249C22.8374 41.249 22.7591 41.249 22.7199 41.249C22.524 41.4449 22.054 41.8758 21.5447 42.5809Z" fill="#BA68C8"/>
<path d="M22.8768 46.6548H20.3306C20.3306 47.3599 20.4481 48.0258 20.6439 48.6526H22.8768V46.6548Z" fill="#BA68C8"/>
<path d="M22.8769 51.7863V49.1226H20.8008C21.4275 50.7678 22.5244 51.5513 22.8769 51.7863Z" fill="#BA68C8"/>
<path d="M21.9365 41.3662C20.5655 41.6796 19.3903 42.5022 18.646 43.6774H20.4088C20.6046 43.1682 20.8788 42.6981 21.1922 42.2672C21.4273 41.9538 21.6623 41.6404 21.9365 41.3662Z" fill="#BA68C8"/>
<path d="M22.8768 44.1475H20.7223C20.4873 44.8134 20.3697 45.4793 20.3306 46.1453H22.8768V44.1475Z" fill="#BA68C8"/>
<path d="M14.8071 54.5677H14.2195C14.0628 54.5677 13.9453 54.4501 13.9453 54.2934V53.7059C13.9453 53.5492 14.0628 53.4316 14.2195 53.4316C14.3762 53.4316 14.4937 53.5492 14.4937 53.7059V54.0192H14.8071C14.9638 54.0192 15.0813 54.1368 15.0813 54.2934C15.0813 54.4501 14.9638 54.5677 14.8071 54.5677Z" fill="#B4CAE3"/>
<path d="M30.3587 54.5675H29.2227C29.066 54.5675 28.9485 54.4499 28.9485 54.2933C28.9485 54.1366 29.066 54.019 29.2227 54.019H30.3587C30.5154 54.019 30.6329 54.1366 30.6329 54.2933C30.5937 54.4499 30.4762 54.5675 30.3587 54.5675ZM28.1258 54.5675H26.9898C26.8331 54.5675 26.7156 54.4499 26.7156 54.2933C26.7156 54.1366 26.8331 54.019 26.9898 54.019H28.1258C28.2825 54.019 28.4 54.1366 28.4 54.2933C28.4 54.4499 28.2825 54.5675 28.1258 54.5675ZM25.893 54.5675H24.757C24.6003 54.5675 24.4828 54.4499 24.4828 54.2933C24.4828 54.1366 24.6003 54.019 24.757 54.019H25.893C26.0497 54.019 26.1672 54.1366 26.1672 54.2933C26.1672 54.4499 26.0497 54.5675 25.893 54.5675ZM23.6601 54.5675H22.5241C22.3674 54.5675 22.2499 54.4499 22.2499 54.2933C22.2499 54.1366 22.3674 54.019 22.5241 54.019H23.6601C23.8168 54.019 23.9344 54.1366 23.9344 54.2933C23.9344 54.4499 23.8168 54.5675 23.6601 54.5675ZM21.4665 54.5675H20.3305C20.1738 54.5675 20.0563 54.4499 20.0563 54.2933C20.0563 54.1366 20.1738 54.019 20.3305 54.019H21.4665C21.6232 54.019 21.7407 54.1366 21.7407 54.2933C21.7407 54.4499 21.6232 54.5675 21.4665 54.5675ZM19.2336 54.5675H18.0976C17.9409 54.5675 17.8234 54.4499 17.8234 54.2933C17.8234 54.1366 17.9409 54.019 18.0976 54.019H19.2336C19.3903 54.019 19.5078 54.1366 19.5078 54.2933C19.5078 54.4499 19.3903 54.5675 19.2336 54.5675ZM17.0008 54.5675H15.8648C15.7081 54.5675 15.5906 54.4499 15.5906 54.2933C15.5906 54.1366 15.7081 54.019 15.8648 54.019H17.0008C17.1575 54.019 17.275 54.1366 17.275 54.2933C17.275 54.4499 17.1575 54.5675 17.0008 54.5675Z" fill="#B4CAE3"/>
<path d="M32.0039 54.5677H31.4163C31.2596 54.5677 31.1421 54.4501 31.1421 54.2934C31.1421 54.1368 31.2596 54.0192 31.4163 54.0192H31.7297V53.7059C31.7297 53.5492 31.8472 53.4316 32.0039 53.4316C32.1606 53.4316 32.2781 53.5492 32.2781 53.7059V54.2934C32.2781 54.4501 32.1214 54.5677 32.0039 54.5677Z" fill="#B4CAE3"/>
<path d="M32.0039 52.9613C31.8473 52.9613 31.7297 52.8438 31.7297 52.6871V51.5903C31.7297 51.4336 31.8473 51.3161 32.0039 51.3161C32.1606 51.3161 32.2782 51.4336 32.2782 51.5903V52.6871C32.2782 52.8438 32.1215 52.9613 32.0039 52.9613ZM32.0039 50.846C31.8473 50.846 31.7297 50.7285 31.7297 50.5718V49.475C31.7297 49.3183 31.8473 49.2008 32.0039 49.2008C32.1606 49.2008 32.2782 49.3183 32.2782 49.475V50.5718C32.2782 50.6893 32.1215 50.846 32.0039 50.846ZM32.0039 48.6915C31.8473 48.6915 31.7297 48.574 31.7297 48.4173V47.3205C31.7297 47.1638 31.8473 47.0463 32.0039 47.0463C32.1606 47.0463 32.2782 47.1638 32.2782 47.3205V48.4173C32.2782 48.574 32.1215 48.6915 32.0039 48.6915ZM32.0039 46.5762C31.8473 46.5762 31.7297 46.4587 31.7297 46.302V45.2052C31.7297 45.0485 31.8473 44.931 32.0039 44.931C32.1606 44.931 32.2782 45.0485 32.2782 45.2052V46.302C32.2782 46.4195 32.1215 46.5762 32.0039 46.5762ZM32.0039 44.4217C31.8473 44.4217 31.7297 44.3042 31.7297 44.1475V43.0507C31.7297 42.894 31.8473 42.7765 32.0039 42.7765C32.1606 42.7765 32.2782 42.894 32.2782 43.0507V44.1475C32.2782 44.3042 32.1215 44.4217 32.0039 44.4217ZM32.0039 42.3064C31.8473 42.3064 31.7297 42.1889 31.7297 42.0322V40.9353C31.7297 40.7786 31.8473 40.6611 32.0039 40.6611C32.1606 40.6611 32.2782 40.7786 32.2782 40.9353V42.0322C32.2782 42.1497 32.1215 42.3064 32.0039 42.3064Z" fill="#B4CAE3"/>
<path d="M32.0039 40.1521C31.8472 40.1521 31.7297 40.0346 31.7297 39.8779V39.5645H31.4163C31.2596 39.5645 31.1421 39.447 31.1421 39.2903C31.1421 39.1336 31.2596 39.0161 31.4163 39.0161H32.0039C32.1606 39.0161 32.2781 39.1336 32.2781 39.2903V39.8779C32.2781 40.0346 32.1214 40.1521 32.0039 40.1521Z" fill="#B4CAE3"/>
<path d="M30.3587 39.5645H29.2227C29.066 39.5645 28.9485 39.447 28.9485 39.2903C28.9485 39.1336 29.066 39.0161 29.2227 39.0161H30.3587C30.5154 39.0161 30.6329 39.1336 30.6329 39.2903C30.5937 39.447 30.4762 39.5645 30.3587 39.5645ZM28.1258 39.5645H26.9898C26.8331 39.5645 26.7156 39.447 26.7156 39.2903C26.7156 39.1336 26.8331 39.0161 26.9898 39.0161H28.1258C28.2825 39.0161 28.4 39.1336 28.4 39.2903C28.4 39.447 28.2825 39.5645 28.1258 39.5645ZM25.893 39.5645H24.757C24.6003 39.5645 24.4828 39.447 24.4828 39.2903C24.4828 39.1336 24.6003 39.0161 24.757 39.0161H25.893C26.0497 39.0161 26.1672 39.1336 26.1672 39.2903C26.1672 39.447 26.0497 39.5645 25.893 39.5645ZM23.6601 39.5645H22.5241C22.3674 39.5645 22.2499 39.447 22.2499 39.2903C22.2499 39.1336 22.3674 39.0161 22.5241 39.0161H23.6601C23.8168 39.0161 23.9344 39.1336 23.9344 39.2903C23.9344 39.447 23.8168 39.5645 23.6601 39.5645ZM21.4665 39.5645H20.3305C20.1738 39.5645 20.0563 39.447 20.0563 39.2903C20.0563 39.1336 20.1738 39.0161 20.3305 39.0161H21.4665C21.6232 39.0161 21.7407 39.1336 21.7407 39.2903C21.7407 39.447 21.6232 39.5645 21.4665 39.5645ZM19.2336 39.5645H18.0976C17.9409 39.5645 17.8234 39.447 17.8234 39.2903C17.8234 39.1336 17.9409 39.0161 18.0976 39.0161H19.2336C19.3903 39.0161 19.5078 39.1336 19.5078 39.2903C19.5078 39.447 19.3903 39.5645 19.2336 39.5645ZM17.0008 39.5645H15.8648C15.7081 39.5645 15.5906 39.447 15.5906 39.2903C15.5906 39.1336 15.7081 39.0161 15.8648 39.0161H17.0008C17.1575 39.0161 17.275 39.1336 17.275 39.2903C17.275 39.447 17.1575 39.5645 17.0008 39.5645Z" fill="#B4CAE3"/>
<path d="M14.2198 40.1521C14.0631 40.1521 13.9456 40.0346 13.9456 39.8779V39.2903C13.9456 39.1336 14.0631 39.0161 14.2198 39.0161H14.8074C14.964 39.0161 15.0816 39.1336 15.0816 39.2903C15.0816 39.447 14.964 39.5645 14.8074 39.5645H14.494V39.8779C14.494 40.0346 14.3765 40.1521 14.2198 40.1521Z" fill="#B4CAE3"/>
<path d="M14.2195 52.9613C14.0628 52.9613 13.9453 52.8438 13.9453 52.6871V51.5903C13.9453 51.4336 14.0628 51.3161 14.2195 51.3161C14.3762 51.3161 14.4937 51.4336 14.4937 51.5903V52.6871C14.4937 52.8438 14.3762 52.9613 14.2195 52.9613ZM14.2195 50.846C14.0628 50.846 13.9453 50.7285 13.9453 50.5718V49.475C13.9453 49.3183 14.0628 49.2008 14.2195 49.2008C14.3762 49.2008 14.4937 49.3183 14.4937 49.475V50.5718C14.4937 50.6893 14.3762 50.846 14.2195 50.846ZM14.2195 48.6915C14.0628 48.6915 13.9453 48.574 13.9453 48.4173V47.3205C13.9453 47.1638 14.0628 47.0463 14.2195 47.0463C14.3762 47.0463 14.4937 47.1638 14.4937 47.3205V48.4173C14.4937 48.574 14.3762 48.6915 14.2195 48.6915ZM14.2195 46.5762C14.0628 46.5762 13.9453 46.4587 13.9453 46.302V45.2052C13.9453 45.0485 14.0628 44.931 14.2195 44.931C14.3762 44.931 14.4937 45.0485 14.4937 45.2052V46.302C14.4937 46.4195 14.3762 46.5762 14.2195 46.5762ZM14.2195 44.4217C14.0628 44.4217 13.9453 44.3042 13.9453 44.1475V43.0507C13.9453 42.894 14.0628 42.7765 14.2195 42.7765C14.3762 42.7765 14.4937 42.894 14.4937 43.0507V44.1475C14.4937 44.3042 14.3762 44.4217 14.2195 44.4217ZM14.2195 42.3064C14.0628 42.3064 13.9453 42.1889 13.9453 42.0322V40.9353C13.9453 40.7786 14.0628 40.6611 14.2195 40.6611C14.3762 40.6611 14.4937 40.7786 14.4937 40.9353V42.0322C14.4937 42.1497 14.3762 42.3064 14.2195 42.3064Z" fill="#B4CAE3"/>
<path d="M39.6426 58.2891C39.4859 58.2891 39.3684 58.1716 39.3684 58.0149V56.8789C39.3684 56.7222 39.4859 56.6047 39.6426 56.6047C39.7993 56.6047 39.9168 56.7222 39.9168 56.8789V58.0149C39.9168 58.1716 39.7993 58.2891 39.6426 58.2891ZM39.6426 56.0562C39.4859 56.0562 39.3684 55.9387 39.3684 55.782V54.646C39.3684 54.4893 39.4859 54.3718 39.6426 54.3718C39.7993 54.3718 39.9168 54.4893 39.9168 54.646V55.782C39.9168 55.9387 39.7993 56.0562 39.6426 56.0562ZM39.6426 53.8234C39.4859 53.8234 39.3684 53.7059 39.3684 53.5492V52.4132C39.3684 52.2565 39.4859 52.139 39.6426 52.139C39.7993 52.139 39.9168 52.2565 39.9168 52.4132V53.5492C39.9168 53.7059 39.7993 53.8234 39.6426 53.8234ZM39.6426 51.5906C39.4859 51.5906 39.3684 51.473 39.3684 51.3163V50.1803C39.3684 50.0237 39.4859 49.9061 39.6426 49.9061C39.7993 49.9061 39.9168 50.0237 39.9168 50.1803V51.3163C39.9168 51.473 39.7993 51.5906 39.6426 51.5906ZM39.6426 49.3577C39.4859 49.3577 39.3684 49.2402 39.3684 49.0835V47.9475C39.3684 47.7908 39.4859 47.6733 39.6426 47.6733C39.7993 47.6733 39.9168 47.7908 39.9168 47.9475V49.0835C39.9168 49.2402 39.7993 49.3577 39.6426 49.3577ZM38.7416 48.065H37.6056C37.4489 48.065 37.3314 47.9475 37.3314 47.7908C37.3314 47.6341 37.4489 47.5166 37.6056 47.5166H38.7416C38.8983 47.5166 39.0159 47.6341 39.0159 47.7908C38.9767 47.9475 38.8592 48.065 38.7416 48.065ZM36.5088 48.065H35.3728C35.2161 48.065 35.0986 47.9475 35.0986 47.7908C35.0986 47.6341 35.2161 47.5166 35.3728 47.5166H36.5088C36.6655 47.5166 36.783 47.6341 36.783 47.7908C36.783 47.9475 36.6263 48.065 36.5088 48.065ZM34.276 48.065H33.14C32.9833 48.065 32.8657 47.9475 32.8657 47.7908C32.8657 47.6341 32.9833 47.5166 33.14 47.5166H34.276C34.4326 47.5166 34.5502 47.6341 34.5502 47.7908C34.5502 47.9475 34.3935 48.065 34.276 48.065ZM32.0431 48.065C31.8864 48.065 31.7297 47.9475 31.7297 47.7908C31.7297 47.6341 31.8473 47.5166 32.0039 47.5166H32.0431C32.1998 47.5166 32.3173 47.6341 32.3173 47.7908C32.3173 47.9475 32.1998 48.065 32.0431 48.065Z" fill="#B4CAE3"/>
<path d="M182.035 91.6638H182.623C182.779 91.6638 182.897 91.5463 182.897 91.3896V90.802C182.897 90.6453 182.779 90.5278 182.623 90.5278C182.466 90.5278 182.349 90.6453 182.349 90.802V91.1154H182.035C181.879 91.1154 181.761 91.2329 181.761 91.3896C181.761 91.5463 181.879 91.6638 182.035 91.6638Z" fill="#B4CAE3"/>
<path d="M166.249 91.3899C166.249 91.2332 166.366 91.1157 166.523 91.1157H167.659C167.815 91.1157 167.933 91.2332 167.933 91.3899C167.933 91.5466 167.815 91.6641 167.659 91.6641H166.484C166.366 91.6641 166.249 91.5466 166.249 91.3899ZM168.442 91.3899C168.442 91.2332 168.56 91.1157 168.716 91.1157H169.852C170.009 91.1157 170.127 91.2332 170.127 91.3899C170.127 91.5466 170.009 91.6641 169.852 91.6641H168.716C168.56 91.6641 168.442 91.5466 168.442 91.3899ZM170.675 91.3899C170.675 91.2332 170.793 91.1157 170.949 91.1157H172.085C172.242 91.1157 172.359 91.2332 172.359 91.3899C172.359 91.5466 172.242 91.6641 172.085 91.6641H170.949C170.793 91.6641 170.675 91.5466 170.675 91.3899ZM172.908 91.3899C172.908 91.2332 173.025 91.1157 173.182 91.1157H174.318C174.475 91.1157 174.592 91.2332 174.592 91.3899C174.592 91.5466 174.475 91.6641 174.318 91.6641H173.143C173.025 91.6641 172.908 91.5466 172.908 91.3899ZM175.102 91.3899C175.102 91.2332 175.219 91.1157 175.376 91.1157H176.512C176.668 91.1157 176.786 91.2332 176.786 91.3899C176.786 91.5466 176.668 91.6641 176.512 91.6641H175.376C175.219 91.6641 175.102 91.5466 175.102 91.3899ZM177.334 91.3899C177.334 91.2332 177.452 91.1157 177.609 91.1157H178.745C178.901 91.1157 179.019 91.2332 179.019 91.3899C179.019 91.5466 178.901 91.6641 178.745 91.6641H177.609C177.452 91.6641 177.334 91.5466 177.334 91.3899ZM179.567 91.3899C179.567 91.2332 179.685 91.1157 179.841 91.1157H180.977C181.134 91.1157 181.252 91.2332 181.252 91.3899C181.252 91.5466 181.134 91.6641 180.977 91.6641H179.802C179.685 91.6641 179.567 91.5466 179.567 91.3899Z" fill="#B4CAE3"/>
<path d="M164.838 91.6638H165.426C165.583 91.6638 165.7 91.5463 165.7 91.3896C165.7 91.2329 165.583 91.1154 165.426 91.1154H165.113V90.802C165.113 90.6453 164.995 90.5278 164.838 90.5278C164.682 90.5278 164.564 90.6453 164.564 90.802V91.3896C164.564 91.5463 164.682 91.6638 164.838 91.6638Z" fill="#B4CAE3"/>
<path d="M164.564 89.7838V88.687C164.564 88.5303 164.682 88.4128 164.838 88.4128C164.995 88.4128 165.113 88.5303 165.113 88.687V89.7838C165.113 89.9405 164.995 90.058 164.838 90.058C164.682 90.058 164.564 89.9405 164.564 89.7838ZM164.564 87.6293V86.5325C164.564 86.3758 164.682 86.2583 164.838 86.2583C164.995 86.2583 165.113 86.3758 165.113 86.5325V87.6293C165.113 87.786 164.995 87.9035 164.838 87.9035C164.682 87.9035 164.564 87.786 164.564 87.6293ZM164.564 85.514V84.4172C164.564 84.2605 164.682 84.143 164.838 84.143C164.995 84.143 165.113 84.2605 165.113 84.4172V85.514C165.113 85.6707 164.995 85.7882 164.838 85.7882C164.682 85.7882 164.564 85.6707 164.564 85.514ZM164.564 83.3595V82.2627C164.564 82.106 164.682 81.9885 164.838 81.9885C164.995 81.9885 165.113 82.106 165.113 82.2627V83.3595C165.113 83.5162 164.995 83.6337 164.838 83.6337C164.682 83.6337 164.564 83.5162 164.564 83.3595ZM164.564 81.2442V80.1473C164.564 79.9907 164.682 79.8731 164.838 79.8731C164.995 79.8731 165.113 79.9907 165.113 80.1473V81.2442C165.113 81.4009 164.995 81.5184 164.838 81.5184C164.682 81.5184 164.564 81.4009 164.564 81.2442ZM164.564 79.1289V78.032C164.564 77.8753 164.682 77.7578 164.838 77.7578C164.995 77.7578 165.113 77.8753 165.113 78.032V79.1289C165.113 79.2855 164.995 79.4031 164.838 79.4031C164.682 79.4031 164.564 79.2464 164.564 79.1289Z" fill="#B4CAE3"/>
<path d="M164.839 77.2483C164.995 77.2483 165.113 77.1308 165.113 76.9741V76.6607H165.426C165.583 76.6607 165.7 76.5432 165.7 76.3865C165.7 76.2298 165.583 76.1123 165.426 76.1123H164.839C164.682 76.1123 164.564 76.2298 164.564 76.3865V76.9741C164.564 77.1308 164.682 77.2483 164.839 77.2483Z" fill="#B4CAE3"/>
<path d="M166.249 76.3865C166.249 76.2298 166.366 76.1123 166.523 76.1123H167.659C167.815 76.1123 167.933 76.2298 167.933 76.3865C167.933 76.5432 167.815 76.6607 167.659 76.6607H166.484C166.366 76.6607 166.249 76.5432 166.249 76.3865ZM168.442 76.3865C168.442 76.2298 168.56 76.1123 168.716 76.1123H169.852C170.009 76.1123 170.127 76.2298 170.127 76.3865C170.127 76.5432 170.009 76.6607 169.852 76.6607H168.716C168.56 76.6607 168.442 76.5432 168.442 76.3865ZM170.675 76.3865C170.675 76.2298 170.793 76.1123 170.949 76.1123H172.085C172.242 76.1123 172.359 76.2298 172.359 76.3865C172.359 76.5432 172.242 76.6607 172.085 76.6607H170.949C170.793 76.6607 170.675 76.5432 170.675 76.3865ZM172.908 76.3865C172.908 76.2298 173.025 76.1123 173.182 76.1123H174.318C174.475 76.1123 174.592 76.2298 174.592 76.3865C174.592 76.5432 174.475 76.6607 174.318 76.6607H173.143C173.025 76.6607 172.908 76.5432 172.908 76.3865ZM175.102 76.3865C175.102 76.2298 175.219 76.1123 175.376 76.1123H176.512C176.668 76.1123 176.786 76.2298 176.786 76.3865C176.786 76.5432 176.668 76.6607 176.512 76.6607H175.376C175.219 76.6607 175.102 76.5432 175.102 76.3865ZM177.334 76.3865C177.334 76.2298 177.452 76.1123 177.609 76.1123H178.745C178.901 76.1123 179.019 76.2298 179.019 76.3865C179.019 76.5432 178.901 76.6607 178.745 76.6607H177.609C177.452 76.6607 177.334 76.5432 177.334 76.3865ZM179.567 76.3865C179.567 76.2298 179.685 76.1123 179.841 76.1123H180.977C181.134 76.1123 181.252 76.2298 181.252 76.3865C181.252 76.5432 181.134 76.6607 180.977 76.6607H179.802C179.685 76.6607 179.567 76.5432 179.567 76.3865Z" fill="#B4CAE3"/>
<path d="M182.623 77.2483C182.779 77.2483 182.897 77.1308 182.897 76.9741V76.3865C182.897 76.2298 182.779 76.1123 182.623 76.1123H182.035C181.879 76.1123 181.761 76.2298 181.761 76.3865C181.761 76.5432 181.879 76.6607 182.035 76.6607H182.349V76.9741C182.349 77.1308 182.466 77.2483 182.623 77.2483Z" fill="#B4CAE3"/>
<path d="M182.349 89.7838V88.687C182.349 88.5303 182.466 88.4128 182.623 88.4128C182.78 88.4128 182.897 88.5303 182.897 88.687V89.7838C182.897 89.9405 182.78 90.058 182.623 90.058C182.466 90.058 182.349 89.9405 182.349 89.7838ZM182.349 87.6293V86.5325C182.349 86.3758 182.466 86.2583 182.623 86.2583C182.78 86.2583 182.897 86.3758 182.897 86.5325V87.6293C182.897 87.786 182.78 87.9035 182.623 87.9035C182.466 87.9035 182.349 87.786 182.349 87.6293ZM182.349 85.514V84.4172C182.349 84.2605 182.466 84.143 182.623 84.143C182.78 84.143 182.897 84.2605 182.897 84.4172V85.514C182.897 85.6707 182.78 85.7882 182.623 85.7882C182.466 85.7882 182.349 85.6707 182.349 85.514ZM182.349 83.3595V82.2627C182.349 82.106 182.466 81.9885 182.623 81.9885C182.78 81.9885 182.897 82.106 182.897 82.2627V83.3595C182.897 83.5162 182.78 83.6337 182.623 83.6337C182.466 83.6337 182.349 83.5162 182.349 83.3595ZM182.349 81.2442V80.1473C182.349 79.9907 182.466 79.8731 182.623 79.8731C182.78 79.8731 182.897 79.9907 182.897 80.1473V81.2442C182.897 81.4009 182.78 81.5184 182.623 81.5184C182.466 81.5184 182.349 81.4009 182.349 81.2442ZM182.349 79.1289V78.032C182.349 77.8753 182.466 77.7578 182.623 77.7578C182.78 77.7578 182.897 77.8753 182.897 78.032V79.1289C182.897 79.2855 182.78 79.4031 182.623 79.4031C182.466 79.4031 182.349 79.2464 182.349 79.1289Z" fill="#B4CAE3"/>
<path d="M163.742 84.6128H162.567C162.41 84.6128 162.292 84.7303 162.292 84.887C162.292 85.0437 162.41 85.1612 162.567 85.1612H163.703C163.859 85.1612 163.977 85.0437 163.977 84.887C163.977 84.7303 163.859 84.6128 163.742 84.6128Z" fill="#B4CAE3"/>
<path d="M161.235 84.6128H160.96V85.1612H161.235C161.391 85.1612 161.509 85.0437 161.509 84.887C161.509 84.7303 161.391 84.6128 161.235 84.6128Z" fill="#B4CAE3"/>
<path d="M164.839 84.6128C164.682 84.6128 164.525 84.7303 164.525 84.887C164.525 85.0437 164.643 85.1612 164.8 85.1612H164.839C164.995 85.1612 165.113 85.0437 165.113 84.887C165.113 84.7303 164.995 84.6128 164.839 84.6128Z" fill="#B4CAE3"/>
<path d="M173.966 87.3159C172.046 87.3159 170.479 85.749 170.479 83.8295C170.479 83.3203 170.597 82.8502 170.793 82.4193L170.949 83.8687C170.949 84.0254 171.106 84.1821 171.302 84.1821C171.302 84.1821 171.341 84.1821 171.38 84.1821C171.576 84.1429 171.694 83.9862 171.654 83.7904L171.419 81.5575C171.419 81.3617 171.224 81.2441 171.067 81.2441L168.834 81.4792C168.677 81.4792 168.521 81.6359 168.521 81.7926C168.481 82.0276 168.677 82.1843 168.873 82.1843L170.009 82.0668C169.696 82.7327 169.578 83.477 169.617 84.2996C169.813 86.3758 171.459 88.021 173.535 88.2561C174.044 88.2952 174.553 88.2952 174.984 88.1777C175.337 88.0994 175.454 87.7076 175.219 87.4334C175.102 87.3159 174.945 87.2767 174.788 87.3159C174.514 87.2767 174.24 87.3159 173.966 87.3159Z" fill="#BA68C8"/>
<path d="M179.763 84.9261C179.685 84.7302 179.45 84.6519 179.254 84.7302L178.039 85.4353C178.235 84.9261 178.353 84.3776 178.353 83.8292C178.353 81.4005 176.394 79.4419 173.966 79.4419C173.73 79.4419 173.495 79.4811 173.26 79.5202C172.908 79.5986 172.751 80.0295 173.025 80.2645C173.143 80.382 173.26 80.4212 173.417 80.382C173.613 80.3429 173.77 80.3429 173.966 80.3429C175.885 80.3429 177.452 81.9098 177.452 83.8292C177.452 84.2601 177.374 84.691 177.217 85.0828L176.59 84.0251C176.512 83.8684 176.277 83.7901 176.12 83.9076C175.963 84.0251 175.924 84.221 176.042 84.3776L177.178 86.2971C177.256 86.4146 177.334 86.4538 177.452 86.4538C177.491 86.4538 177.569 86.4538 177.609 86.4146L179.567 85.2786C179.724 85.2394 179.802 85.0828 179.763 84.9261Z" fill="#BA68C8"/>
</svg>
