<svg width="184" height="142" viewBox="0 0 184 142" fill="none" xmlns="http://www.w3.org/2000/svg">
<path d="M179.375 113.174H184C184 113.174 173.854 41.7466 174.423 21.5923L173.705 113.174H179.375Z" fill="#E0E0E0"/>
<path d="M157.672 0.103501C157.672 0.103501 174.959 -0.944943 174.496 18.1771C173.157 73.543 179.669 115.19 179.669 115.19H114.904V2.08345L157.672 0.103501Z" fill="#EBEBEB"/>
<path d="M113.291 144.954L158.225 144.926C160.819 144.925 163.308 143.894 165.142 142.058C166.977 140.223 168.007 137.734 168.007 135.139L167.983 22.488C167.984 21.2006 167.73 19.9258 167.237 18.7366C166.744 17.5473 166.021 16.4672 165.109 15.558C164.198 14.6487 163.116 13.9284 161.925 13.4381C160.735 12.9479 159.46 12.6975 158.172 12.7012L113.238 12.7294C111.953 12.7289 110.68 12.9817 109.493 13.4734C108.306 13.9651 107.227 14.686 106.318 15.595C105.41 16.5039 104.689 17.5831 104.198 18.7707C103.707 19.9583 103.454 21.2311 103.455 22.5163L103.476 135.168C103.476 136.455 103.73 137.73 104.223 138.919C104.717 140.109 105.44 141.189 106.352 142.098C107.264 143.007 108.346 143.727 109.537 144.218C110.727 144.708 112.003 144.958 113.291 144.954Z" fill="#455A64"/>
<path d="M113.291 16.7129H122.005H147.446H158.136C159.954 16.7129 161.698 17.4351 162.983 18.7207C164.269 20.0063 164.991 21.75 164.991 23.5681L165.011 133.522C165.011 135.34 164.289 137.083 163.003 138.369C161.718 139.655 159.974 140.377 158.156 140.377L113.311 140.405C111.493 140.405 109.749 139.683 108.464 138.397C107.178 137.112 106.456 135.368 106.456 133.55L106.436 23.5681C106.436 21.75 107.158 20.0063 108.443 18.7207C109.729 17.4351 111.473 16.7129 113.291 16.7129Z" fill="#EBEBEB"/>
<path d="M118.936 0.0913086L161.938 0.494556C155.632 0.200185 154.285 2.70839 153.248 4.29718C151.277 7.3417 151.474 10.8177 153.728 13.6646C155.04 15.2148 156.841 16.2728 158.833 16.6648H111.714C108.972 13.9751 108.399 11.108 108.807 8.52725C109.581 3.63586 113.948 0.0913086 118.936 0.0913086Z" fill="#EBEBEB"/>
<path d="M166.717 2.34932C166.62 2.30435 166.528 2.24891 166.443 2.18399C166.193 2.01474 165.933 1.86121 165.664 1.72429C164.664 1.22911 163.591 0.894357 162.487 0.7323C160.86 0.457623 159.192 0.547142 157.603 0.994411C155.672 1.61528 154.058 2.96113 153.099 4.74865C152.095 6.50872 151.761 8.5726 152.16 10.5594C152.361 11.413 152.728 12.2186 153.24 12.9305C153.689 13.5577 154.222 14.1196 154.825 14.6C155.687 15.3057 156.655 15.8717 157.692 16.2775C158.426 16.5598 158.858 16.6525 158.849 16.6807C158.744 16.6685 158.64 16.6469 158.539 16.6162C158.237 16.5459 157.94 16.4584 157.648 16.3541C156.586 15.9755 155.595 15.4221 154.716 14.7169C154.104 14.232 153.561 13.6648 153.103 13.0314C152.571 12.3075 152.189 11.485 151.978 10.6119C151.554 8.57794 151.89 6.4592 152.922 4.6559C153.906 2.82181 155.567 1.44435 157.551 0.816981C159.168 0.371424 160.865 0.295621 162.515 0.595195C163.633 0.765572 164.714 1.12272 165.713 1.6517C165.982 1.79895 166.239 1.96609 166.483 2.15173C166.566 2.21192 166.644 2.27795 166.717 2.34932Z" fill="#263238"/>
<path d="M168.536 3.36133C168.875 3.54795 169.194 3.7696 169.487 4.02265C170.335 4.73403 171.092 5.54658 171.741 6.44214C172.222 7.08501 172.647 7.76762 173.012 8.48257C173.453 9.3322 173.78 10.2366 173.984 11.1722C174.213 12.1884 174.121 13.2974 174.161 14.4506C174.201 15.6039 174.23 16.8379 174.266 18.1242C174.355 20.701 174.471 23.5197 174.609 26.5481C174.609 28.0683 174.609 29.6289 174.584 31.2459C174.56 32.8629 174.584 34.5203 174.584 36.226C174.584 43.0369 174.73 50.5292 175.024 58.4046C175.592 74.1313 176.754 88.3216 177.774 98.5762C178.298 103.706 178.762 107.851 179.097 110.71C179.266 112.137 179.399 113.246 179.5 114.004C179.54 114.381 179.573 114.667 179.597 114.863C179.597 115.057 179.621 115.158 179.621 115.158C179.621 115.158 179.621 115.061 179.573 114.867C179.524 114.674 179.508 114.383 179.456 114.013C179.359 113.25 179.214 112.145 179.028 110.722C178.665 107.859 178.181 103.718 177.637 98.5923C176.58 88.3377 175.395 74.1394 174.814 58.4127C174.52 50.5534 174.411 43.0611 174.411 36.2341C174.411 34.5283 174.411 32.867 174.411 31.254C174.411 29.641 174.451 28.0724 174.447 26.5642C174.314 23.5358 174.209 20.7131 174.129 18.1363C174.092 16.85 174.06 15.6241 174.04 14.4627C174.02 13.3014 174.1 12.2005 173.879 11.2045C173.684 10.2767 173.367 9.37894 172.935 8.535C172.577 7.82266 172.16 7.14149 171.689 6.4986C171.048 5.59884 170.304 4.77733 169.471 4.05088C169.343 3.93815 169.208 3.83312 169.068 3.73635C168.975 3.66008 168.878 3.58874 168.778 3.52263C168.612 3.42182 168.536 3.36133 168.536 3.36133Z" fill="#263238"/>
<path d="M164.987 85.2977C164.987 85.2977 164.422 129.707 160.874 136.188L98.3059 135.381L99.5802 130.046L165.007 49.6143L164.987 85.2977Z" fill="#E0E0E0"/>
<path d="M164.987 23.54C164.987 23.54 163.866 121.965 157.551 130.574H96.5801C96.5801 130.574 110.609 56.7193 106.435 23.5683L164.987 23.54Z" fill="#F5F5F5"/>
<path d="M165.515 23.54C165.515 23.54 164.394 121.965 158.079 130.574H96.5801C96.5801 130.574 106.359 57.8363 106.359 25.149" fill="#FAFAFA"/>
<path d="M106.359 25.1494V25.6696C106.359 26.0164 106.359 26.5325 106.359 27.2059C106.359 27.8794 106.359 28.7222 106.323 29.7141C106.286 30.7061 106.302 31.8554 106.238 33.1498C106.064 38.3315 105.653 45.8642 104.923 55.28C103.419 74.1077 100.645 100.444 96.697 130.591L96.5962 130.474H158.079L157.999 130.514C158.493 129.705 158.868 128.829 159.112 127.913C159.37 126.998 159.6 126.078 159.785 125.151C160.188 123.3 160.467 121.445 160.729 119.606C161.245 115.924 161.62 112.291 161.938 108.718C162.58 101.593 163.015 94.758 163.378 88.2818C164.084 75.3255 164.487 63.8087 164.781 54.2114C165.076 44.6141 165.237 36.9484 165.346 31.6739C165.394 29.0407 165.435 27.0043 165.463 25.6252C165.463 24.9357 165.487 24.4155 165.491 24.0606C165.495 23.7057 165.491 23.5283 165.491 23.5283C165.491 23.5283 165.491 23.7057 165.491 24.0606C165.491 24.4155 165.491 24.9357 165.491 25.6252C165.471 27.0043 165.443 29.0407 165.41 31.6739C165.322 36.9484 165.177 44.6222 164.906 54.2155C164.636 63.8087 164.245 75.3336 163.547 88.2899C163.193 94.7701 162.761 101.597 162.124 108.735C161.797 112.299 161.426 115.933 160.914 119.622C160.652 121.465 160.362 123.324 159.975 125.179C159.785 126.111 159.571 127.038 159.293 127.957C159.046 128.897 158.661 129.795 158.152 130.623L158.124 130.667H96.4631V130.55C100.419 100.42 103.222 74.0956 104.758 55.2559C105.508 45.844 105.939 38.3194 106.137 33.1377C106.206 31.8433 106.218 30.694 106.238 29.702C106.258 28.7101 106.274 27.8713 106.29 27.1938C106.306 26.5164 106.314 25.9841 106.323 25.6575C106.331 25.3308 106.359 25.1494 106.359 25.1494Z" fill="#263238"/>
<path d="M164.999 23.4148C164.999 23.4148 164.862 16.5596 158.144 16.5596C151.426 16.5596 111.73 16.5596 111.73 16.5596C111.73 16.5596 106.436 18.0274 106.436 23.9027L147.902 27.0884L164.999 23.4148Z" fill="#FAFAFA"/>
<path d="M118.936 0.0914745H118.823C118.751 0.0914745 118.638 0.0914745 118.493 0.0914745C118.066 0.0960201 117.64 0.132414 117.218 0.200352C115.633 0.447353 114.133 1.08479 112.855 2.05529C110.926 3.57987 109.543 5.68768 108.911 8.06368C108.568 9.50696 108.631 11.017 109.093 12.4268C109.33 13.1844 109.669 13.9062 110.101 14.5721C110.536 15.2744 111.06 15.9169 111.662 16.4835L111.597 16.4593H123.449L148.297 16.54L155.829 16.5883L157.874 16.6125H158.406H158.588C158.588 16.6125 158.527 16.6125 158.406 16.6125H157.874H155.829H148.297H123.449L111.597 16.5843H111.557L111.533 16.5601C110.914 15.9792 110.372 15.322 109.92 14.6044C109.486 13.9206 109.143 13.1832 108.899 12.4107C108.434 10.9677 108.377 9.42427 108.734 7.95078C109.383 5.54874 110.799 3.42461 112.766 1.90206C113.501 1.34075 114.317 0.894735 115.186 0.579405C115.836 0.335052 116.513 0.167247 117.202 0.0793776C117.627 0.0166728 118.056 -0.00896326 118.485 0.00276029C118.637 0.0202149 118.788 0.0498811 118.936 0.0914745Z" fill="#263238"/>
<path d="M165.007 63.1714C165.007 63.1714 165.007 63.2924 165.007 63.5222C165.007 63.7521 165.007 64.1029 165.007 64.5545V68.5104C165.007 71.9461 164.975 76.9221 164.91 83.0676C164.846 89.2131 164.745 96.5321 164.475 104.653C164.338 108.714 164.144 112.981 163.733 117.384C163.322 121.787 162.753 126.336 161.963 130.961C161.652 132.772 161.321 134.554 160.959 136.224L160.938 136.304H160.874C143.341 136.264 127.699 135.978 116.44 135.784L103.153 135.518L99.556 135.433L98.6245 135.405H98.3059H98.6245H99.56L103.153 135.454L116.46 135.655C127.719 135.808 143.361 136.058 160.89 136.107L160.789 136.187C161.152 134.53 161.483 132.744 161.793 130.945C162.58 126.328 163.148 121.783 163.563 117.384C163.979 112.985 164.176 108.726 164.318 104.666C164.6 96.5482 164.701 89.2293 164.797 83.0838C164.894 76.9383 164.922 71.9743 164.963 68.5305C164.963 66.8167 164.991 65.482 164.999 64.5747C164.999 64.123 164.999 63.7682 164.999 63.5424C164.999 63.3166 165.007 63.1714 165.007 63.1714Z" fill="#263238"/>
<path d="M160.922 27.8627C159.006 28.0025 157.083 28.0025 155.168 27.8627C157.083 27.7229 159.006 27.7229 160.922 27.8627Z" fill="#263238"/>
<path d="M160.922 26.3588C159.006 26.4986 157.083 26.4986 155.168 26.3588C157.083 26.2189 159.006 26.2189 160.922 26.3588Z" fill="#263238"/>
<path d="M160.922 24.8627C159.006 25.0025 157.083 25.0025 155.168 24.8627C157.083 24.7229 159.006 24.7229 160.922 24.8627Z" fill="#263238"/>
<path d="M113.077 28.8347H113.202H113.545L114.815 28.8025L114.779 28.8388C114.779 28.5565 114.779 28.25 114.779 27.9194C114.779 27.746 114.779 27.5847 114.779 27.3871C114.796 27.2826 114.848 27.1867 114.925 27.1139C115.002 27.0411 115.101 26.9955 115.206 26.9838C115.412 26.9838 115.589 26.9838 115.811 26.9838C115.925 27.0063 116.027 27.0677 116.101 27.1574C116.175 27.2472 116.215 27.3597 116.214 27.4758C116.214 27.9073 116.214 28.3549 116.214 28.8186L116.154 28.7622H117.767L117.706 28.8227C117.706 28.1775 117.706 27.5121 117.706 26.8064C117.706 26.637 117.706 26.4677 117.706 26.2983C117.699 26.2224 117.675 26.149 117.636 26.0834C117.597 26.0179 117.544 25.9618 117.48 25.9193L116.779 25.2297L116.113 24.5523L115.783 24.2297C115.67 24.1208 115.581 24.0079 115.452 23.9837C115.39 23.9663 115.324 23.9634 115.261 23.9753C115.197 23.9872 115.137 24.0135 115.085 24.0522C114.988 24.1329 114.884 24.2498 114.787 24.3466L114.21 24.9273C113.851 25.3023 113.472 25.6451 113.198 25.9677C113.117 26.1568 113.089 26.3646 113.117 26.5685V27.133C113.117 27.4798 113.117 27.7823 113.117 28.0403C113.117 28.2984 113.117 28.4678 113.117 28.6251C113.117 28.7823 113.117 28.8307 113.117 28.8347C113.112 28.7704 113.112 28.7056 113.117 28.6412C113.117 28.488 113.117 28.2984 113.117 28.0686C113.117 27.8387 113.117 27.5 113.117 27.1492V26.5766C113.117 26.4717 113.117 26.3669 113.117 26.258C113.117 26.1406 113.148 26.0252 113.206 25.9233C113.504 25.5604 113.855 25.2378 114.222 24.8547L114.791 24.27C114.896 24.1651 114.98 24.0684 115.101 23.9595C115.167 23.9108 115.243 23.8776 115.323 23.8622C115.403 23.8469 115.486 23.8498 115.565 23.8708C115.723 23.9213 115.863 24.0165 115.968 24.145L116.295 24.4676L116.976 25.1329L117.678 25.8225C117.743 25.8813 117.803 25.9461 117.856 26.016C117.908 26.0968 117.937 26.1902 117.94 26.2862C117.94 26.4556 117.94 26.625 117.94 26.7983C117.94 27.4798 117.94 28.1492 117.94 28.8146V28.8751H117.88H116.267H116.113V28.8186C116.113 28.3509 116.113 27.9032 116.113 27.4718C116.115 27.3769 116.083 27.2844 116.024 27.2106C115.964 27.1369 115.88 27.0865 115.787 27.0685C115.605 27.0685 115.384 27.0685 115.206 27.0685C115.124 27.0791 115.046 27.1151 114.985 27.1714C114.923 27.2277 114.881 27.3016 114.863 27.3831C114.863 27.5444 114.863 27.7298 114.863 27.8952V28.8509H114.827H113.537H113.198L113.077 28.8347Z" fill="#263238"/>
<path d="M130.57 26.1976H129.788V25.625H132.074V26.1976H131.292V28.1735H130.57V26.1976Z" fill="#9468B4"/>
<path d="M133.925 27.6856H132.844L132.647 28.1776H131.909L133.05 25.625H133.76L134.889 28.1735H134.139L133.925 27.6856ZM133.711 27.1533L133.385 26.3468L133.058 27.1533H133.711Z" fill="#9468B4"/>
<path d="M134.901 27.9476L135.139 27.4153C135.39 27.5743 135.68 27.6609 135.977 27.6653C136.276 27.6653 136.381 27.5806 136.381 27.4556C136.381 27.0524 134.933 27.3467 134.933 26.4031C134.933 25.9475 135.304 25.5966 136.062 25.5966C136.384 25.5896 136.702 25.666 136.985 25.8184L136.764 26.3507C136.548 26.2296 136.305 26.1631 136.058 26.1572C135.756 26.1572 135.655 26.258 135.655 26.383C135.655 26.7862 137.098 26.4838 137.098 27.4234C137.098 27.8669 136.727 28.2299 135.969 28.2299C135.594 28.2371 135.224 28.1394 134.901 27.9476Z" fill="#9468B4"/>
<path d="M138.421 27.2501L138.151 27.5364V28.1735H137.437V25.625H138.151V26.6855L139.139 25.625H139.945L138.901 26.7541L139.998 28.1735H139.159L138.421 27.2501Z" fill="#9468B4"/>
<path d="M139.941 27.9476L140.179 27.4153C140.431 27.575 140.723 27.6616 141.022 27.6653C141.32 27.6653 141.425 27.5806 141.425 27.4556C141.425 27.0524 139.973 27.3467 139.973 26.4031C139.973 25.9475 140.344 25.5966 141.103 25.5966C141.426 25.5896 141.745 25.666 142.03 25.8184L141.808 26.3507C141.591 26.2295 141.347 26.1631 141.098 26.1572C140.796 26.1572 140.695 26.258 140.695 26.383C140.695 26.7862 142.143 26.4838 142.143 27.4234C142.143 27.8669 141.772 28.2298 141.014 28.2298C140.637 28.2366 140.266 28.1389 139.941 27.9476Z" fill="#9468B4"/>
<path d="M164.172 34.5043C164.172 34.5607 151.156 34.6091 135.106 34.6091C119.057 34.6091 106.036 34.5607 106.036 34.5043C106.036 34.4478 119.049 34.3994 135.106 34.3994C151.164 34.3994 164.172 34.4478 164.172 34.5043Z" fill="#E0E0E0"/>
<path d="M164.673 54.5863C164.673 54.6427 151.66 54.6911 135.606 54.6911C119.553 54.6911 106.54 54.6427 106.54 54.5863C106.54 54.5298 119.549 54.4814 135.606 54.4814C151.664 54.4814 164.673 54.5258 164.673 54.5863Z" fill="#E0E0E0"/>
<path d="M164.027 73.8495C164.027 73.9059 150.466 73.9543 133.743 73.9543C117.021 73.9543 103.455 73.9059 103.455 73.8495C103.455 73.793 117.013 73.7446 133.743 73.7446C150.474 73.7446 164.027 73.789 164.027 73.8495Z" fill="#E0E0E0"/>
<path d="M163.213 92.6288C163.213 92.6892 149.301 92.7336 132.163 92.7336C115.024 92.7336 101.112 92.6892 101.112 92.6288C101.112 92.5683 115.016 92.5239 132.163 92.5239C149.309 92.5239 163.213 92.5723 163.213 92.6288Z" fill="#E0E0E0"/>
<path d="M161.277 113.755C161.277 113.815 147.313 113.86 130.094 113.86C112.875 113.86 98.9108 113.815 98.9108 113.755C98.9108 113.694 112.871 113.65 130.094 113.65C147.317 113.65 161.277 113.698 161.277 113.755Z" fill="#E0E0E0"/>
<path d="M117.948 48.3962C117.943 48.352 117.943 48.3074 117.948 48.2632C117.948 48.1623 117.948 48.0414 117.948 47.8962C117.948 47.5534 117.948 47.0897 117.924 46.5211C117.924 45.3114 117.9 43.6621 117.88 41.6822L117.972 41.7709H111.25L111.355 41.666V43.4685C111.355 44.0573 111.355 44.638 111.355 45.2025C111.355 46.3316 111.355 47.3962 111.355 48.372L111.262 48.2833L116.101 48.3277L117.476 48.3519H117.843H117.98C117.825 48.3708 117.669 48.3789 117.513 48.3761L116.158 48.3962L111.258 48.4446H111.17V48.3519C111.17 47.376 111.17 46.3114 111.17 45.1823C111.17 44.6178 111.17 44.0371 111.17 43.4484V41.6459L111.274 41.541H117.997H118.085V41.6338C118.085 43.65 118.049 45.3275 118.041 46.5332C118.041 47.0978 118.021 47.5534 118.017 47.8881C118.013 48.2228 117.952 48.4043 117.948 48.3962Z" fill="#263238"/>
<path d="M156.616 44.5814C156.616 44.6379 148.954 44.6863 139.482 44.6863C130.009 44.6863 122.348 44.6379 122.348 44.5814C122.348 44.525 130.009 44.4766 139.482 44.4766C148.954 44.4766 156.616 44.5209 156.616 44.5814Z" fill="#263238"/>
<path d="M140.026 47.243C140.026 47.3035 136.07 47.3519 131.187 47.3519C126.304 47.3519 122.348 47.3035 122.348 47.243C122.348 47.1825 126.304 47.1382 131.187 47.1382C136.07 47.1382 140.026 47.1866 140.026 47.243Z" fill="#263238"/>
<path d="M118.13 38.1254C118.408 38.198 117.88 41.1296 116.698 44.5774C116.549 45.0089 116.4 45.4282 116.25 45.8315L116.025 46.4243L115.912 46.7106L115.879 46.7831C115.863 46.829 115.842 46.8734 115.819 46.9162C115.769 46.9997 115.71 47.0768 115.642 47.1461C115.508 47.2724 115.342 47.3593 115.162 47.397C114.982 47.4348 114.795 47.4219 114.621 47.3598C114.463 47.296 114.324 47.1917 114.218 47.0574L114.15 46.9565L114.113 46.892L114.045 46.771C113.875 46.4565 113.73 46.1541 113.605 45.8799C113.109 44.775 112.916 44.0491 113.041 43.9886C113.166 43.9281 113.605 44.533 114.25 45.521L114.783 46.3275L114.859 46.4323L114.891 46.4807H114.924C114.944 46.4807 114.972 46.4807 114.968 46.4525L114.992 46.3839L115.089 46.0936C115.154 45.896 115.218 45.6903 115.287 45.4968L115.69 44.2467C116.863 40.8312 117.839 38.0528 118.13 38.1254Z" fill="#9468B4"/>
<path d="M117.21 68.6433C117.207 68.599 117.207 68.5546 117.21 68.5103C117.21 68.4094 117.21 68.2885 117.21 68.1433C117.21 67.7992 117.202 67.3395 117.186 66.7642C117.186 65.5545 117.158 63.9092 117.142 61.9252L117.23 62.0139H110.512L110.617 61.9091V63.7156C110.617 64.3084 110.617 64.8891 110.617 65.4536C110.617 66.5787 110.617 67.6433 110.617 68.6232L110.528 68.5345L115.367 68.5788L116.742 68.603H117.109C117.154 68.5974 117.198 68.5974 117.243 68.603C117.088 68.6191 116.934 68.6258 116.779 68.6232L115.424 68.6474L110.524 68.6958H110.432V68.603C110.432 67.6231 110.432 66.5585 110.432 65.4335C110.432 64.8689 110.432 64.2883 110.432 63.6955V61.8889C110.335 61.9817 110.557 61.7599 110.537 61.7841H117.255H117.323V61.8768C117.303 63.8931 117.287 65.5666 117.275 66.7763C117.275 67.3408 117.267 67.7925 117.251 68.1312C117.252 68.3028 117.239 68.4741 117.21 68.6433Z" fill="#263238"/>
<path d="M155.882 64.8246C155.882 64.8851 148.22 64.9334 138.748 64.9334C129.275 64.9334 121.61 64.8851 121.61 64.8246C121.61 64.7641 129.271 64.7197 138.748 64.7197C148.224 64.7197 155.882 64.7843 155.882 64.8246Z" fill="#263238"/>
<path d="M116.17 87.4831C116.17 87.4831 116.17 87.4348 116.17 87.3501C116.17 87.2654 116.17 87.1283 116.17 86.9831C116.17 86.6404 116.17 86.1766 116.146 85.608C116.146 84.3983 116.121 82.749 116.101 80.7691L116.19 80.8578H109.472L109.577 80.7529V82.5514C109.577 83.1442 109.577 83.7249 109.577 84.2894C109.577 85.4185 109.577 86.4831 109.577 87.4589L109.488 87.3702L114.327 87.4146L115.702 87.4388H116.069H116.202C116.048 87.4581 115.893 87.4662 115.738 87.463L114.383 87.4831L109.484 87.5315H109.395V87.4388C109.395 86.4629 109.395 85.3984 109.395 84.2693C109.395 83.7047 109.395 83.124 109.395 82.5313V80.7328L109.5 80.6279H116.218H116.311V80.7207C116.291 82.7369 116.275 84.4104 116.263 85.6201C116.263 86.1847 116.263 86.6404 116.242 86.9751C116.232 87.1461 116.208 87.316 116.17 87.4831Z" fill="#263238"/>
<path d="M154.825 83.6683C154.825 83.7248 147.163 83.7732 137.691 83.7732C128.219 83.7732 120.557 83.7248 120.557 83.6683C120.557 83.6119 128.219 83.5635 137.691 83.5635C147.163 83.5635 154.825 83.6078 154.825 83.6683Z" fill="#263238"/>
<path d="M114.545 107.424C114.54 107.38 114.54 107.335 114.545 107.291C114.545 107.19 114.545 107.069 114.545 106.924C114.545 106.581 114.545 106.117 114.521 105.549C114.521 104.339 114.492 102.69 114.472 100.71L114.565 100.799H107.847C107.823 100.823 108.044 100.601 107.948 100.694V104.23C107.948 105.359 107.948 106.424 107.948 107.4L107.855 107.311L112.694 107.355L114.069 107.38H114.44H114.573C114.419 107.399 114.264 107.407 114.109 107.404L112.754 107.424L107.851 107.472H107.762V107.38C107.762 106.404 107.762 105.339 107.762 104.21V102.476C107.762 102.178 107.762 101.879 107.762 101.577V100.674C107.669 100.766 107.891 100.545 107.871 100.569H114.589H114.682V100.662C114.682 102.678 114.65 104.355 114.638 105.561C114.638 106.126 114.638 106.581 114.613 106.916C114.602 107.087 114.579 107.256 114.545 107.424Z" fill="#263238"/>
<path d="M153.212 103.609C153.212 103.666 145.551 103.714 136.078 103.714C126.606 103.714 118.94 103.666 118.94 103.609C118.94 103.553 126.602 103.504 136.078 103.504C145.555 103.504 153.212 103.549 153.212 103.609Z" fill="#263238"/>
<path d="M113.577 126.34C113.577 126.34 113.577 126.292 113.577 126.207C113.577 126.122 113.577 125.985 113.577 125.836C113.577 125.497 113.577 125.029 113.553 124.461C113.553 123.251 113.528 121.606 113.508 119.622L113.597 119.715H106.879L106.984 119.61V121.416C106.984 122.009 106.984 122.59 106.984 123.154C106.984 124.279 106.984 125.344 106.984 126.324L106.891 126.231L111.73 126.279L113.105 126.304H113.472H113.605C113.605 126.304 113.452 126.304 113.141 126.324L111.786 126.348L106.887 126.392H106.798V126.304C106.798 125.324 106.798 124.259 106.798 123.134C106.798 122.57 106.798 121.989 106.798 121.396V119.626L106.903 119.521H113.621H113.714V119.626C113.694 121.642 113.678 123.32 113.67 124.525C113.67 125.095 113.661 125.547 113.645 125.88C113.633 126.035 113.61 126.188 113.577 126.34Z" fill="#263238"/>
<path d="M147.22 86.2533C147.22 86.3138 141.191 86.3581 133.751 86.3581C126.311 86.3581 120.283 86.3138 120.283 86.2533C120.283 86.1928 126.331 86.1484 133.751 86.1484C141.171 86.1484 147.22 86.1968 147.22 86.2533Z" fill="#263238"/>
<path d="M130.074 106.859C130.074 106.92 127.634 106.964 124.622 106.964C121.61 106.964 119.17 106.92 119.17 106.859C119.17 106.799 121.61 106.754 124.622 106.754C127.634 106.754 130.074 106.803 130.074 106.859Z" fill="#263238"/>
<path d="M157.353 0.167833C157.353 0.224287 148.772 0.272677 138.191 0.272677C127.61 0.272677 119.025 0.224287 119.025 0.167833C119.025 0.111378 127.606 0.0629883 138.191 0.0629883C148.776 0.0629883 157.353 0.111378 157.353 0.167833Z" fill="#263238"/>
<path d="M61.1022 69.9122C61.1022 69.9122 71.4293 84.4291 73.3649 85.0582C79.9903 87.2599 87.3173 72.0131 87.3173 72.0131L83.3776 72.8801L76.1474 77.4408L68.2558 66.6499L61.1022 70.7671" fill="#FFEEEE"/>
<path d="M74.6273 81.8481C74.5445 81.6226 74.5115 81.3819 74.5305 81.1424C74.5259 79.9783 74.9411 78.8516 75.6999 77.9689C75.844 77.7776 76.025 77.6172 76.2322 77.4971C75.7372 78.1096 75.33 78.7882 75.0225 79.5133C74.781 80.269 74.648 81.0551 74.6273 81.8481Z" fill="#D9D9D9"/>
<path d="M44.174 91.0019C44.174 91.0019 40.6779 97.6152 39.1778 103.023C37.6777 108.43 36.2462 111.519 37.7906 116.374C39.3351 121.229 41.3957 139.63 42.4118 144.485C43.2466 148.485 45.0975 164.147 46.4443 169.111H54.0133L54.7835 113.503C54.7835 113.503 68.2399 144.731 69.7843 148.481C71.3287 152.231 75.8532 168.24 75.8532 168.24L83.6883 167.03C83.6883 167.03 78.9421 139.339 77.5065 132.718C76.0709 126.097 71.9901 108.12 70.3367 102.474C68.6834 96.8288 68.8528 92.9456 66.5059 90.2075L44.174 91.0019Z" fill="#263238"/>
<path d="M55.8037 92.0908C55.8037 92.0908 55.844 92.0304 55.9529 91.986C56.1161 91.9291 56.2937 91.9291 56.4569 91.986C56.5827 92.0281 56.6949 92.103 56.7821 92.203C56.8693 92.3029 56.9282 92.4243 56.9529 92.5546C56.9875 92.7162 56.9716 92.8846 56.9073 93.0369C56.8431 93.1892 56.7336 93.318 56.5936 93.406C56.4537 93.494 56.2901 93.5369 56.125 93.5289C55.9599 93.5208 55.8013 93.4623 55.6706 93.3611C55.5644 93.282 55.4811 93.1761 55.4294 93.0542C55.3777 92.9323 55.3593 92.7988 55.3762 92.6675C55.3932 92.496 55.4703 92.336 55.594 92.2159C55.6787 92.1312 55.7432 92.115 55.7512 92.1231C55.6256 92.2824 55.5473 92.4739 55.5254 92.6756C55.5196 92.7783 55.5402 92.8809 55.5854 92.9734C55.6306 93.0659 55.6988 93.1452 55.7835 93.2038C55.8831 93.2783 56.0028 93.321 56.1271 93.3263C56.2513 93.3315 56.3743 93.2991 56.4798 93.2333C56.5853 93.1675 56.6685 93.0713 56.7184 92.9574C56.7682 92.8434 56.7825 92.7171 56.7594 92.5949C56.7445 92.4933 56.7037 92.3972 56.6408 92.3159C56.5779 92.2347 56.4951 92.171 56.4005 92.1312C56.2101 92.0582 56.0021 92.0441 55.8037 92.0908Z" fill="#455A64"/>
<path d="M57.9973 106.459C57.9389 106.483 57.878 106.5 57.8158 106.511C57.6908 106.539 57.5094 106.572 57.2755 106.6C56.605 106.681 55.9267 106.67 55.2592 106.568C55.0349 106.535 54.8127 106.49 54.5939 106.431C54.4685 106.392 54.3539 106.324 54.2592 106.233C54.1629 106.132 54.0997 106.004 54.0777 105.866C54.0132 105.346 54.0172 104.83 53.985 104.253C53.9366 103.132 53.8882 101.902 53.8317 100.624C53.7309 98.039 53.6503 95.7001 53.6019 94.0065C53.6019 93.2 53.5656 92.5064 53.5535 91.9903V91.4459C53.543 91.3831 53.543 91.3191 53.5535 91.2563C53.5722 91.3178 53.5817 91.3817 53.5817 91.4459C53.5817 91.5951 53.6099 91.7725 53.6261 91.9903C53.6543 92.4943 53.6906 93.1718 53.739 94.0065C53.8237 95.7001 53.9285 98.039 54.0293 100.62C54.0777 101.91 54.1261 103.14 54.1664 104.249C54.1947 104.801 54.1866 105.358 54.235 105.826C54.2514 105.931 54.2984 106.029 54.37 106.108C54.4417 106.187 54.535 106.243 54.6382 106.269C54.8473 106.331 55.0601 106.38 55.2754 106.414C55.9304 106.526 56.5965 106.558 57.2593 106.511C57.7352 106.487 57.9933 106.422 57.9973 106.459Z" fill="#455A64"/>
<path d="M68.6833 97.3091C68.5928 97.4018 68.4879 97.4794 68.3728 97.5389C68.0666 97.7155 67.7385 97.8511 67.3969 97.9422C66.8298 98.0991 66.2362 98.1369 65.6538 98.0529C65.0713 97.969 64.5126 97.7653 64.0128 97.4546C63.513 97.1439 63.0831 96.733 62.7501 96.2478C62.4171 95.7626 62.1883 95.2136 62.0781 94.6355C62.0084 94.288 61.9854 93.9327 62.0095 93.579C62.0093 93.4417 62.0325 93.3053 62.0781 93.1758C62.0827 93.6484 62.1313 94.1195 62.2232 94.5831C62.346 95.135 62.5778 95.6568 62.905 96.1178C63.2323 96.5788 63.6484 96.9698 64.1289 97.2677C64.6094 97.5656 65.1446 97.7645 65.703 97.8526C66.2615 97.9407 66.8319 97.9163 67.3808 97.7809C67.8286 97.6642 68.2646 97.5063 68.6833 97.3091Z" fill="#455A64"/>
<path d="M58.9166 94.3574C58.7435 93.2382 58.7069 92.1021 58.8078 90.9741C58.9863 92.0928 59.0229 93.2295 58.9166 94.3574Z" fill="#455A64"/>
<path d="M60.2273 94.1151C60.1786 93.5597 60.1786 93.0011 60.2273 92.4457C60.2062 91.8887 60.2386 91.331 60.3241 90.7803C60.45 91.3286 60.4881 91.8935 60.437 92.4537C60.4566 93.0152 60.3858 93.5761 60.2273 94.1151Z" fill="#455A64"/>
<path d="M67.5302 93.2359C67.5302 93.2359 67.4657 93.2642 67.3286 93.2924L66.7439 93.4134C66.2358 93.5182 65.4938 93.6432 64.5744 93.7763C59.7761 94.4629 54.912 94.5617 50.0897 94.0707C49.1663 93.9739 48.4203 93.8771 47.9082 93.7965L47.3194 93.6997C47.2489 93.6937 47.1796 93.6774 47.1138 93.6513C47.1833 93.6415 47.2539 93.6415 47.3235 93.6513L47.9203 93.7077C48.4324 93.7642 49.1824 93.8368 50.1059 93.9134C52.5105 94.1131 54.9236 94.1912 57.3361 94.1473C59.7496 94.0948 62.1588 93.9185 64.5542 93.619C65.4736 93.5061 66.2197 93.4053 66.7318 93.3247L67.3245 93.244C67.3927 93.235 67.4616 93.2323 67.5302 93.2359Z" fill="#455A64"/>
<path d="M47.775 94.3247C47.6412 94.6627 47.4441 94.972 47.1943 95.2361C46.628 95.9183 45.9081 96.4567 45.0937 96.8072C44.2792 97.1576 43.3933 97.3102 42.5085 97.2523C42.1447 97.2486 41.7849 97.1761 41.448 97.0386C41.448 97.0023 41.8512 97.095 42.5166 97.1031C43.374 97.1185 44.2248 96.9505 45.0121 96.6104C45.7993 96.2704 46.5048 95.766 47.0814 95.1312C47.533 94.6634 47.7427 94.3247 47.775 94.3247Z" fill="#455A64"/>
<path d="M57.7192 103.934C57.6587 103.934 57.5902 101.962 57.566 99.5348C57.5418 97.1073 57.566 95.1313 57.6224 95.1313C57.6789 95.1313 57.7474 97.0992 57.7757 99.5308C57.8039 101.962 57.7757 103.934 57.7192 103.934Z" fill="#455A64"/>
<path d="M54.8398 113.278C54.7513 112.418 54.7324 111.552 54.7834 110.689C54.7667 109.825 54.8179 108.96 54.9366 108.104C55.0252 108.964 55.044 109.83 54.9931 110.693C55.0122 111.557 54.961 112.422 54.8398 113.278Z" fill="#455A64"/>
<path d="M67.3204 108.136C66.9059 108.244 66.484 108.32 66.0582 108.366C65.2759 108.491 64.1952 108.664 63.0097 108.882C61.8241 109.1 60.7515 109.33 59.9772 109.499C59.5627 109.608 59.1409 109.688 58.7151 109.737C59.1044 109.564 59.5096 109.429 59.9248 109.334C60.695 109.128 61.7636 108.878 62.9532 108.656C64.1428 108.434 65.2316 108.285 66.0219 108.201C66.4516 108.137 66.8865 108.115 67.3204 108.136Z" fill="#455A64"/>
<path d="M68.4896 109.991C67.999 110.036 67.5062 110.053 67.0137 110.04C66.1024 110.04 64.8443 110.084 63.4571 110.156C62.0699 110.229 60.8158 110.326 59.9045 110.402C59.4163 110.466 58.9248 110.499 58.4326 110.503C58.5611 110.451 58.6974 110.421 58.8359 110.415C59.0859 110.366 59.4528 110.314 59.9045 110.257C60.8118 110.14 62.0699 110.015 63.4611 109.943C64.8523 109.87 66.1185 109.87 67.0299 109.894C67.4896 109.894 67.8364 109.923 68.1106 109.939C68.2387 109.938 68.3663 109.956 68.4896 109.991Z" fill="#455A64"/>
<path d="M51.876 108.782C51.5202 108.672 51.1725 108.537 50.8356 108.378C50.0093 108.037 49.1653 107.739 48.3073 107.487C47.449 107.241 46.578 107.042 45.6983 106.89C45.3282 106.848 44.9616 106.78 44.6014 106.685C44.9747 106.656 45.35 106.675 45.7184 106.741C47.5129 106.963 49.2607 107.47 50.8961 108.241C51.2434 108.381 51.5725 108.562 51.876 108.782Z" fill="#455A64"/>
<path d="M62.6144 56.8472C61.8563 56.2423 60.9691 55.8189 60.1949 55.2543C59.4207 54.6898 58.6787 53.2018 58.4972 52.2461L52.2751 52.7905C51.6148 55.248 51.3427 57.7937 51.4686 60.3352C51.5211 61.416 51.6783 62.5692 52.4042 63.3717C53.2107 64.2548 54.4648 64.4887 55.6301 64.6782L61.3079 65.5855C61.9773 65.6904 62.6991 65.7912 63.3241 65.4968C63.9032 65.1629 64.3352 64.6229 64.5339 63.9846C64.9884 62.7421 65.0479 61.3896 64.7043 60.112C64.3607 58.8343 63.6308 57.6941 62.6144 56.8472Z" fill="#263238"/>
<path d="M39.6172 62.416C39.2866 60.5732 39.6414 58.6981 39.8108 56.8553C40.0608 54.1696 39.9156 51.3953 39.8108 48.6451C39.7059 45.895 39.6011 43.1166 39.96 40.4673C40.3189 37.8179 41.1697 35.2936 42.6093 33.8701C44.0489 32.4467 46.1216 32.362 47.5572 34.1121L46.9926 41.0963C47.8238 51.0047 47.9263 60.9608 47.2991 70.8842C45.4021 71.2563 43.4527 71.2755 41.5488 70.9407C41.3179 70.9249 41.0964 70.8431 40.9105 70.7052C40.7247 70.5672 40.5824 70.3789 40.5003 70.1624C40.2665 69.485 40.5891 68.747 40.7141 68.0373C40.8288 67.067 40.7254 66.0834 40.4116 65.1581C40.097 64.2593 39.8318 63.3439 39.6172 62.416Z" fill="#263238"/>
<path d="M44.8997 34.7008C45.4621 34.1379 46.1547 33.7224 46.916 33.491C47.2178 33.379 47.5459 33.358 47.8596 33.4306C48.0146 33.4722 48.1511 33.5649 48.2469 33.6937C48.3428 33.8225 48.3924 33.9798 48.3878 34.1403L46.5248 36.7775C46.3213 36.9261 46.0786 37.0115 45.8268 37.023C45.5751 37.0345 45.3256 36.9715 45.1094 36.842C44.9271 36.7704 44.763 36.6591 44.629 36.5161C44.4951 36.3731 44.3947 36.202 44.3352 36.0154C44.3145 35.7668 44.3552 35.5169 44.4536 35.2877C44.5521 35.0585 44.7052 34.857 44.8997 34.7008Z" fill="#455A64"/>
<path d="M58.8523 42.3262C58.6952 40.4596 57.8357 38.7222 56.4473 37.4647C55.0589 36.2073 53.2451 35.5236 51.3721 35.5516C50.4047 35.5638 49.4498 35.7714 48.5646 36.1618C47.6794 36.5522 46.8822 37.1175 46.2209 37.8236C45.5596 38.5298 45.0477 39.3622 44.7161 40.2711C44.3845 41.1799 44.2399 42.1464 44.291 43.1125L45.6702 59.2424C45.696 59.5546 45.8268 59.8488 46.0411 60.0771C47.2293 61.3288 48.8611 62.0643 50.5857 62.1256C52.0723 62.0837 53.5054 61.5617 54.6706 60.6377C54.8617 60.4906 55.0104 60.2956 55.1017 60.0726C55.1931 59.8495 55.2238 59.6062 55.1908 59.3674L54.6868 55.2099C55.0465 55.1631 55.4033 55.0958 55.7554 55.0083C56.6667 54.6373 58.8806 53.9437 58.9814 50.2903C59.0828 47.6352 59.0398 44.9766 58.8523 42.3262Z" fill="#FFEEEE"/>
<path d="M54.3398 48.3227C54.6678 48.1937 55.0105 48.1056 55.36 48.0606C55.5213 48.0324 55.6746 47.988 55.6947 47.8791C55.6933 47.7117 55.6413 47.5487 55.5455 47.4114C55.3641 47.0363 55.1705 46.6411 54.9649 46.2298C54.1584 44.5483 53.5616 43.1571 53.6301 43.1289C53.6987 43.1006 54.4084 44.4354 55.2189 46.1169C55.4125 46.5202 55.598 46.9234 55.7794 47.3267C55.8952 47.5117 55.9423 47.7315 55.9125 47.9477C55.8931 48.0063 55.8604 48.0598 55.8171 48.1038C55.7737 48.1479 55.7208 48.1814 55.6625 48.2017C55.5752 48.2327 55.4845 48.253 55.3923 48.2622C55.0452 48.325 54.6918 48.3453 54.3398 48.3227Z" fill="#263238"/>
<path d="M57.6423 44.6086C57.6558 44.7614 57.6082 44.9134 57.51 45.0313C57.4117 45.1491 57.2708 45.2233 57.1181 45.2377C57.0439 45.2497 56.9681 45.2469 56.895 45.2295C56.8219 45.212 56.7529 45.1803 56.6922 45.136C56.6314 45.0918 56.5801 45.0359 56.541 44.9717C56.502 44.9075 56.4761 44.8361 56.4648 44.7618C56.4524 44.6088 56.5002 44.4569 56.5982 44.3387C56.6961 44.2204 56.8364 44.1451 56.9891 44.1287C57.0635 44.1173 57.1394 44.1206 57.2125 44.1385C57.2856 44.1565 57.3545 44.1886 57.4152 44.2332C57.4759 44.2778 57.5272 44.3339 57.5661 44.3983C57.6051 44.4627 57.631 44.5342 57.6423 44.6086Z" fill="#263238"/>
<path d="M57.8963 43.4512C57.8399 43.552 57.3277 43.2213 56.6866 43.3181C56.0454 43.4149 55.6542 43.8665 55.5696 43.7819C55.4849 43.6972 55.5696 43.5681 55.747 43.3786C55.9672 43.1141 56.2774 42.9403 56.618 42.8907C56.9608 42.8427 57.3092 42.9215 57.5979 43.1125C57.8318 43.2455 57.9245 43.4028 57.8963 43.4512Z" fill="#263238"/>
<path d="M51.6582 45.1687C51.6717 45.3215 51.6241 45.4735 51.5259 45.5913C51.4277 45.7092 51.2868 45.7834 51.134 45.7977C51.0595 45.8097 50.9834 45.8068 50.9101 45.7891C50.8367 45.7714 50.7677 45.7393 50.7069 45.6946C50.6461 45.65 50.5948 45.5937 50.5559 45.529C50.5171 45.4643 50.4916 45.3925 50.4808 45.3179C50.4673 45.165 50.5149 45.0131 50.6131 44.8952C50.7113 44.7773 50.8522 44.7031 51.005 44.6888C51.0794 44.6773 51.1553 44.6807 51.2285 44.6986C51.3016 44.7165 51.3704 44.7487 51.4311 44.7933C51.4918 44.8378 51.5431 44.8939 51.5821 44.9583C51.621 45.0228 51.6469 45.0942 51.6582 45.1687Z" fill="#263238"/>
<path d="M51.7431 44.0684C51.6664 44.1652 51.1664 43.766 50.4769 43.7781C49.7873 43.7902 49.2913 44.1813 49.2147 44.0886C49.1381 43.9958 49.251 43.8749 49.4647 43.6853C49.749 43.4516 50.1048 43.3221 50.4728 43.3184C50.8403 43.3166 51.1974 43.4404 51.485 43.6692C51.7027 43.8587 51.7793 44.0281 51.7431 44.0684Z" fill="#263238"/>
<path d="M54.6866 55.2097C54.6866 55.2097 52.1864 55.613 48.9604 54.0322C48.9604 54.0322 50.2387 57.1372 54.8277 56.363L54.6866 55.2097Z" fill="#D9D9D9"/>
<path d="M54.1946 49.8506C54.059 49.7103 53.8909 49.6056 53.7052 49.5458C53.5195 49.486 53.3219 49.473 53.13 49.5079C52.991 49.5313 52.858 49.5823 52.7389 49.6578C52.6198 49.7333 52.517 49.8317 52.4364 49.9474C52.3588 50.0571 52.3171 50.1881 52.3171 50.3224C52.3171 50.4568 52.3588 50.5878 52.4364 50.6974C52.5503 50.8005 52.6912 50.869 52.8427 50.8947C52.9941 50.9204 53.1498 50.9023 53.2913 50.8426C53.5827 50.7156 53.8459 50.532 54.0655 50.3023C54.1336 50.2473 54.191 50.1804 54.2349 50.1047C54.2576 50.0699 54.2697 50.0293 54.2697 49.9877C54.2697 49.9462 54.2576 49.9055 54.2349 49.8708" fill="#D9D9D9"/>
<path d="M52.0818 41.7091C52.0334 41.8825 51.3922 41.8623 50.6543 42.0196C49.9163 42.1768 49.3316 42.4228 49.2187 42.2897C49.1663 42.2212 49.255 42.0518 49.4808 41.8865C49.7856 41.6495 50.1421 41.4879 50.5212 41.4147C50.8998 41.3355 51.2915 41.3437 51.6664 41.4389C51.9487 41.4994 52.102 41.6244 52.0818 41.7091Z" fill="#263238"/>
<path d="M57.7351 42.0761C57.6101 42.2253 57.0818 42.1003 56.4487 42.1204C55.8156 42.1406 55.2954 42.2696 55.1623 42.1204C55.1059 42.0478 55.1825 41.9027 55.4083 41.7575C55.7212 41.5832 56.0744 41.4943 56.4326 41.4994C56.7942 41.4862 57.153 41.5682 57.473 41.7373C57.7109 41.8583 57.7915 42.0035 57.7351 42.0761Z" fill="#263238"/>
<path d="M51.8035 34.6687C51.5799 34.4285 51.3049 34.2421 50.999 34.1233C50.6931 34.0046 50.3643 33.9567 50.0373 33.9832C47.1742 33.9832 44.295 36.1083 43.0692 38.6971C41.8433 41.286 42.2627 44.8144 43.799 47.2339L44.8757 47.2661C47.0452 46.8145 49.8357 40.1851 52.4124 36.3784C52.735 35.8946 52.1624 35.1122 51.8035 34.6687Z" fill="#263238"/>
<path d="M57.4326 35.7249C56.0655 34.5595 53.9243 33.2126 51.6298 34.495C51.3717 35.2289 52.2226 36.0072 52.9001 36.4346C53.892 37.0637 54.7348 37.4588 55.3921 37.9185C56.7228 38.842 58.4366 40.4388 58.8439 42.4309C58.8722 42.5559 58.9004 46.4835 59.0214 46.4432C59.1423 46.4029 59.5093 41.6042 59.5456 40.4792C59.6182 38.096 58.7996 36.8862 57.4326 35.7249Z" fill="#263238"/>
<path d="M45.3877 45.8869C45.3151 45.8627 42.565 45.2135 42.811 47.9596C43.057 50.7057 45.7547 49.9073 45.7506 49.8266C45.7466 49.746 45.3877 45.8869 45.3877 45.8869Z" fill="#FFEEEE"/>
<path d="M44.8231 48.8589C44.8231 48.8589 44.7787 48.8951 44.7021 48.9395C44.6477 48.9692 44.588 48.9877 44.5263 48.994C44.4647 49.0002 44.4024 48.994 44.3432 48.9758C44.1568 48.8787 43.9996 48.7338 43.8877 48.556C43.7757 48.3781 43.713 48.1737 43.7061 47.9636C43.679 47.7283 43.7052 47.4899 43.7827 47.266C43.801 47.177 43.8407 47.0939 43.8983 47.0236C43.9559 46.9534 44.0297 46.8982 44.1134 46.8628C44.1668 46.8441 44.2252 46.8447 44.2783 46.8646C44.3313 46.8845 44.3757 46.9224 44.4037 46.9717C44.4481 47.0442 44.436 47.1007 44.4521 47.1047C44.4682 47.1088 44.5045 47.0523 44.4722 46.9434C44.4524 46.8759 44.4096 46.8175 44.3513 46.7781C44.3114 46.7532 44.267 46.7364 44.2206 46.7288C44.1743 46.7212 44.1268 46.7229 44.0811 46.7337C43.9704 46.7658 43.8697 46.8256 43.7886 46.9075C43.7074 46.9893 43.6485 47.0905 43.6174 47.2015C43.521 47.4489 43.4864 47.716 43.5165 47.9798C43.5242 48.2262 43.6049 48.4647 43.7485 48.6651C43.8921 48.8654 44.0921 49.0185 44.323 49.1048C44.3985 49.1209 44.4766 49.1195 44.5514 49.1006C44.6263 49.0817 44.6957 49.0459 44.7545 48.996C44.8231 48.9234 44.8352 48.8629 44.8231 48.8589Z" fill="#D9D9D9"/>
<path d="M58.0455 36.2008C57.7952 36.3041 57.5321 36.3733 57.2632 36.4064C55.9757 36.6295 54.6594 36.6295 53.3719 36.4064C53.1028 36.3795 52.8392 36.313 52.5896 36.2088C52.8601 36.2157 53.1296 36.2426 53.3961 36.2895C54.0362 36.36 54.6797 36.395 55.3236 36.3943C55.9681 36.3885 56.6117 36.3455 57.2511 36.2653C57.5136 36.2209 57.7794 36.1993 58.0455 36.2008Z" fill="#455A64"/>
<path d="M59.2311 38.0396C59.0557 38.1505 58.8594 38.2246 58.6544 38.2573C57.6775 38.4924 56.6504 38.4003 55.7309 37.9952C55.5355 37.9268 55.3559 37.8199 55.2026 37.6807C55.8407 37.9313 56.507 38.1033 57.1866 38.1928C57.8718 38.2259 58.5585 38.1744 59.2311 38.0396Z" fill="#455A64"/>
<path d="M42.8392 39.6727C42.8392 39.6364 43.4401 39.6727 44.3917 39.5195C44.9472 39.4325 45.4956 39.3058 46.033 39.1404C46.6877 38.9278 47.3276 38.6718 47.9484 38.3742C48.5654 38.0679 49.1633 37.7245 49.7388 37.346C50.2062 37.031 50.6559 36.6904 51.0857 36.3257C51.8155 35.7047 52.2147 35.2531 52.2349 35.2773C52.1589 35.3948 52.0711 35.5043 51.9728 35.6039C51.8675 35.7305 51.7558 35.8516 51.6381 35.9668C51.501 36.104 51.3478 36.2612 51.1623 36.4185C50.7407 36.7992 50.2949 37.1521 49.8275 37.475C49.2514 37.8665 48.6491 38.2181 48.025 38.5275C47.3955 38.8293 46.7445 39.0841 46.0773 39.2896C45.531 39.4507 44.9728 39.568 44.4079 39.6404C44.1913 39.6712 43.9732 39.6901 43.7546 39.6969C43.5895 39.7086 43.4237 39.7086 43.2586 39.6969C43.1184 39.7048 42.9776 39.6967 42.8392 39.6727Z" fill="#455A64"/>
<path d="M52.1785 36.2573C52.1338 36.397 52.0757 36.532 52.0051 36.6606C51.9368 36.8199 51.8587 36.9747 51.7712 37.1243C51.6704 37.2977 51.5696 37.5074 51.4244 37.7171C51.1082 38.2231 50.7523 38.7032 50.3598 39.1526C49.8765 39.7007 49.3447 40.2041 48.771 40.6568C48.19 41.1028 47.569 41.4942 46.9161 41.8262C46.3809 42.0908 45.8253 42.3119 45.2547 42.4875C45.0168 42.5682 44.7869 42.6125 44.5934 42.6649C44.3998 42.7174 44.2264 42.7415 44.0853 42.7657C43.9405 42.7955 43.7935 42.813 43.6458 42.8182C43.6458 42.7819 44.2627 42.6891 45.2184 42.3706C45.772 42.1816 46.3111 41.9525 46.8314 41.685C48.1158 41.0224 49.2669 40.1283 50.2268 39.0478C50.6198 38.6091 50.981 38.1428 51.3075 37.6526C51.8841 36.8098 52.1462 36.2573 52.1785 36.2573Z" fill="#455A64"/>
<path d="M50.0372 33.983C50.2152 33.9233 50.4059 33.9122 50.5897 33.9507C51.0383 34.0202 51.4579 34.216 51.7994 34.5153C51.8973 34.6017 51.9865 34.6976 52.0656 34.8016C52.1366 34.8992 52.1961 35.0048 52.243 35.1161C52.3327 35.2954 52.4082 35.4815 52.4688 35.6726C52.5431 35.8476 52.5531 36.0433 52.497 36.225C52.4688 36.225 52.4769 36.0153 52.3559 35.7129C52.2806 35.5338 52.1958 35.3588 52.1019 35.1887C52.056 35.0874 51.9992 34.9914 51.9325 34.9024C51.8579 34.8095 51.7757 34.7232 51.6865 34.6443C51.3654 34.3645 50.9804 34.1679 50.5655 34.0717C50.2469 33.9991 50.0413 34.0112 50.0372 33.983Z" fill="#455A64"/>
<path d="M43.1737 46.1974C43.1675 46.1485 43.1539 46.101 43.1334 46.0562C43.1052 45.9635 43.0568 45.8344 43.0044 45.653C42.8399 45.1711 42.7052 44.6795 42.6011 44.1811C42.4525 43.4433 42.3836 42.6916 42.3955 41.9391C42.407 41.0187 42.5621 40.1058 42.8552 39.2333C43.0125 38.785 43.2152 38.354 43.46 37.9469C43.6969 37.5702 43.9668 37.2152 44.2665 36.8864C44.7726 36.33 45.3455 35.8383 45.9723 35.4226C46.3937 35.1393 46.8313 34.8808 47.2828 34.6483L47.6538 34.4588C47.6986 34.4403 47.7406 34.4159 47.7788 34.3862L47.6458 34.4346C47.557 34.4749 47.424 34.5233 47.2627 34.604C46.7995 34.8194 46.3521 35.0673 45.9239 35.346C45.2827 35.7571 44.6961 36.2476 44.1778 36.8057C43.877 37.1395 43.6071 37.4999 43.3713 37.8824C43.118 38.2957 42.9098 38.7351 42.7503 39.1929C42.4527 40.0781 42.2988 41.0052 42.2947 41.9391C42.2884 42.6981 42.3668 43.4556 42.5285 44.1973C42.6344 44.6978 42.7773 45.1897 42.956 45.6691C43.0165 45.8425 43.077 45.9675 43.1092 46.0724C43.1275 46.1156 43.1491 46.1574 43.1737 46.1974Z" fill="#455A64"/>
<path d="M54.5535 50.5807C54.5535 50.496 53.9285 50.4073 53.2066 50.0847C52.4848 49.7621 51.9727 49.2782 51.9324 49.3548C52.2165 49.8087 52.6414 50.1571 53.1421 50.3468C53.8881 50.6855 54.5495 50.6492 54.5535 50.5807Z" fill="#263238"/>
<path d="M58.8804 57.8227L54.9366 57.355L45.6095 58.5607L40.8472 61.2141L49.1218 64.7021L55.1423 63.4682L58.8804 57.8227Z" fill="#FFEEEE"/>
<path d="M43.2785 59.6455L36.6733 62.3392L38.1533 75.0213C38.1533 75.0213 40.609 74.1422 41.9277 80.5498C43.2463 86.9575 43.2664 91.0585 43.2664 91.0585L67.2919 90.2036C67.2919 90.2036 66.4169 74.8439 65.9774 71.4203L64.3644 58.343L58.1664 57.3066C58.1664 57.3066 52.1943 67.3959 43.2785 59.6455Z" fill="#455A64"/>
<path d="M64.3687 58.3432C64.3687 58.3432 67.2962 58.1335 69.6109 62.1821C71.369 65.2629 71.99 66.4525 71.99 66.4525L65.1832 70.4285L62.4613 62.9966L64.3687 58.3432Z" fill="#455A64"/>
<path d="M36.7541 62.2949C36.7541 62.2949 34.1209 63.7869 32.7217 65.7185C31.3224 67.65 29.6489 71.1946 29.6489 71.1946L37.7139 75.6787L38.9236 73.3762L36.7541 62.2949Z" fill="#455A64"/>
<path d="M39.0084 73.1504C38.9721 73.1504 39.1818 72.598 39.3673 71.6907C39.4788 71.1591 39.5502 70.6199 39.581 70.0777C39.6182 69.4161 39.602 68.7526 39.5326 68.0937C39.4478 67.4365 39.313 66.7867 39.1293 66.15C38.9762 65.6304 38.7862 65.1224 38.5608 64.6298C38.1575 63.791 37.8511 63.3112 37.8833 63.291C37.9811 63.385 38.0652 63.4923 38.1333 63.6096C38.3433 63.914 38.5307 64.2334 38.6938 64.5653C38.9422 65.0569 39.1499 65.568 39.3148 66.0936C39.5071 66.7405 39.642 67.403 39.7181 68.0735C39.7918 68.7431 39.804 69.418 39.7544 70.0898C39.7129 70.6339 39.6252 71.1735 39.4923 71.7028C39.4083 72.0626 39.2977 72.4158 39.1616 72.7593C39.1316 72.897 39.0799 73.029 39.0084 73.1504Z" fill="#263238"/>
<path d="M64.8282 64.4845C64.7637 64.4845 64.5499 63.2263 63.9088 61.7948C63.4924 60.9416 63.0335 60.1099 62.5337 59.3027C62.7505 59.4856 62.9381 59.7004 63.0902 59.9399C63.8877 61.0483 64.4465 62.3102 64.7314 63.6457C64.8101 63.918 64.8428 64.2014 64.8282 64.4845Z" fill="#263238"/>
<path d="M60.0619 57.3267C60.0501 57.3979 60.0284 57.4671 59.9974 57.5324C59.941 57.6614 59.8764 57.859 59.7555 58.0969C59.4286 58.7793 59.0226 59.4208 58.5457 60.0083C57.8462 60.888 57.0119 61.6515 56.0738 62.2705C54.4445 63.3369 52.5495 63.9265 50.6028 63.9728C48.6561 64.0191 46.7353 63.5203 45.0571 62.5326C44.4031 62.1543 43.7954 61.701 43.2465 61.1818C43.0489 61.0043 42.9158 60.843 42.8191 60.7422C42.7223 60.6414 42.6779 60.5809 42.686 60.5769C42.6941 60.5728 42.9037 60.7745 43.303 61.1213C43.8653 61.6115 44.4776 62.0413 45.1297 62.4036C46.0945 62.9432 47.1362 63.3322 48.2185 63.5569C49.541 63.8456 50.9078 63.8662 52.2384 63.6176C53.5689 63.3689 54.836 62.856 55.9649 62.1092C56.8929 61.5074 57.7237 60.7677 58.4288 59.9156C58.9062 59.3422 59.3225 58.7205 59.6708 58.0606C59.9248 57.5929 60.0619 57.3227 60.0619 57.3267Z" fill="#263238"/>
<path d="M48.771 72.0616C47.4142 67.7609 46.5167 63.3287 46.0934 58.8391C45.8233 55.6736 44.9966 53.121 44.8837 50.0039L43.0812 53.1936C42.1366 57.2039 41.4777 61.2762 41.1093 65.3797C40.9924 66.6661 40.948 68.1017 41.7868 69.0856C42.4602 69.8921 43.6215 70.259 43.9925 71.2268C44.3958 72.2753 43.807 73.8238 44.799 74.348C45.0571 74.4529 45.3419 74.4732 45.6122 74.4058C45.8826 74.3383 46.1245 74.1868 46.3031 73.973C46.6483 73.5373 46.8958 73.0326 47.029 72.493C47.1217 73.2995 48.0653 74.1544 48.6783 73.61C49.0654 73.2431 48.9363 72.5858 48.771 72.0616Z" fill="#263238"/>
<path d="M0.490092 108.878C0.834643 109.715 1.34982 110.472 2.0028 111.099C2.65578 111.726 3.43226 112.211 4.28276 112.521C5.13327 112.832 6.03916 112.962 6.94273 112.903C7.8463 112.845 8.72774 112.599 9.53091 112.18L99.3947 65.315L110.871 48.6851L91.1402 51.6973L3.34105 100.708C1.94853 101.485 0.889272 102.746 0.363862 104.251C-0.161547 105.757 -0.116638 107.403 0.490092 108.878Z" fill="#9468B4"/>
<path d="M3.34105 100.708C1.94852 101.486 0.889272 102.746 0.363862 104.252C-0.161547 105.758 -0.116638 107.404 0.490092 108.878C0.834643 109.716 1.34982 110.472 2.0028 111.099C2.65578 111.727 3.43226 112.211 4.28276 112.522C5.13326 112.832 6.03916 112.963 6.94273 112.904C7.8463 112.845 8.72774 112.599 9.53091 112.181L3.34105 100.708Z" fill="#263238"/>
<g opacity="0.4">
<path opacity="0.4" d="M91.1362 51.6978L3.34106 100.708L4.39757 102.668L92.5395 54.3148L91.1362 51.6978Z" fill="black"/>
</g>
<g opacity="0.4">
<path opacity="0.4" d="M97.8503 62.666L8.51477 110.298L9.53096 112.181L99.3947 65.3154L97.8503 62.666Z" fill="black"/>
</g>
<g opacity="0.4">
<path opacity="0.4" d="M94.3017 56.9722L5.88965 105.426L7.29698 108.039L95.8058 59.6699L94.3017 56.9722Z" fill="black"/>
</g>
<g opacity="0.4">
<path opacity="0.4" d="M99.3947 65.315L91.1362 51.6973L103.214 49.8545L106.927 54.3951L99.3947 65.315Z" fill="#FFEEEE"/>
</g>
<path d="M83.5187 73.7594L85.1317 72.0577C85.1317 72.0577 84.9421 68.1825 85.6035 67.2187L85.9462 66.6461C85.9462 66.6461 85.6035 64.7629 86.6156 64.3274C86.9019 63.6137 87.2729 63.3233 87.777 63.7225C87.777 63.7225 87.4947 62.3031 88.8173 62.1096C90.14 61.916 90.5191 67.9244 90.5191 67.9244C90.5191 67.9244 91.1804 70.6181 89.6682 70.6181C89.6682 70.6181 88.8173 71.5617 87.8697 71.6585C87.8697 71.6585 87.5874 73.2715 86.2567 73.1706L83.5187 73.7594Z" fill="#FFEEEE"/>
<path d="M87.6683 70.9648C87.6683 70.9648 87.7449 71.0132 87.8175 71.1584C87.9136 71.3662 87.9405 71.5995 87.8941 71.8238C87.8318 72.1584 87.6568 72.4615 87.3981 72.6827C87.0884 72.9442 86.7291 73.1403 86.3416 73.2593C85.663 73.4945 84.9541 73.6303 84.2366 73.6626C83.9404 73.6985 83.6401 73.6821 83.3495 73.6142C84.3422 73.5343 85.3228 73.3436 86.273 73.0456C86.6349 72.9346 86.9727 72.7568 87.2691 72.5214C87.5061 72.3317 87.6746 72.0697 87.7489 71.7754C87.8063 71.5033 87.7782 71.2202 87.6683 70.9648Z" fill="#D9D9D9"/>
<path d="M88.8417 68.8316C88.7771 68.8316 88.7731 67.6218 88.4868 66.1782C88.2005 64.7346 87.7489 63.6136 87.8093 63.5894C87.9634 63.8057 88.0818 64.0453 88.1602 64.2991C88.3917 64.895 88.5698 65.5104 88.6925 66.1379C88.8139 66.7655 88.8827 67.4022 88.8981 68.0412C88.9223 68.306 88.9033 68.5729 88.8417 68.8316Z" fill="#D9D9D9"/>
<path d="M87.7005 69.4926C87.64 69.4926 87.5271 68.3192 87.2247 66.8997C86.9223 65.4803 86.5553 64.3512 86.6118 64.3311C87.0028 65.1284 87.2745 65.979 87.4183 66.8554C87.6393 67.7162 87.7343 68.6045 87.7005 69.4926Z" fill="#D9D9D9"/>
<path d="M89.8136 69.4487C89.862 69.4165 90.0596 69.7875 89.9305 70.2552C89.8015 70.723 89.4466 70.9488 89.4224 70.8964C89.3982 70.844 89.6281 70.598 89.7289 70.2028C89.8297 69.8076 89.7571 69.4689 89.8136 69.4487Z" fill="#D9D9D9"/>
<path d="M86.1197 69.7265C86.0323 69.2409 85.9905 68.7481 85.9947 68.2547C85.9315 67.7654 85.9112 67.2716 85.9342 66.7788C86.1172 67.2449 86.2089 67.7419 86.2044 68.2426C86.2676 68.7383 86.2389 69.2413 86.1197 69.7265Z" fill="#D9D9D9"/>
<path d="M30.0441 71.1948C30.0441 71.1948 24.7091 82.4414 23.9026 84.1189C23.0961 85.7964 21.7937 88.8974 23.9026 90.6354C26.0116 92.3734 40.706 92.4823 40.706 92.4823L41.4359 86.5586L31.7579 84.2157L37.4437 75.6789L30.0441 71.1948Z" fill="#FFEEEE"/>
<path d="M42.7222 86.6633C43.0186 86.0173 43.4537 85.4445 43.9965 84.9857C44.9199 84.1792 46.9523 83.5582 47.2225 82.788C47.4927 82.0178 48.2548 82.6187 48.0733 83.5744C47.9604 84.1873 46.7023 85.7882 46.7023 85.7882C46.7023 85.7882 48.1782 86.1552 49.1621 85.5906C50.146 85.0261 53.5978 84.0058 53.9527 84.4897C54.3075 84.9736 53.4648 85.2116 53.0817 85.4333C52.7873 85.5987 50.5009 86.7318 50.5009 86.7318C50.5009 86.7318 55.0495 86.5786 55.6221 86.7963C56.1947 87.0141 55.6221 87.5786 55.3197 87.6028C55.1423 87.6028 54.36 88.3085 53.8075 88.8126C53.4333 89.1636 52.9414 89.3621 52.4284 89.369H51.3719L54.5979 89.7078C54.5979 89.7078 55.1503 90.2159 54.3801 90.482C54.0333 90.599 44.2989 92.0023 43.5408 92.0466C42.2343 92.1232 40.1697 92.4499 40.1697 92.4499L40.6939 86.4011L42.7222 86.6633Z" fill="#FFEEEE"/>
<path d="M55.3845 87.6269C54.6993 87.9619 53.9636 88.1812 53.2069 88.2762C52.4662 88.4412 51.7037 88.4862 50.9487 88.4092C50.9487 88.3488 51.9528 88.2883 53.1706 88.0705C54.3884 87.8528 55.3643 87.5705 55.3845 87.6269Z" fill="#D9D9D9"/>
</svg>
