<svg width="192" height="167" viewBox="0 0 192 167" fill="none" xmlns="http://www.w3.org/2000/svg">
<g opacity="0.15">
<path d="M94.7718 148.919C145.705 148.919 186.994 143.979 186.994 137.886C186.994 131.793 145.705 126.854 94.7718 126.854C43.8387 126.854 2.54932 131.793 2.54932 137.886C2.54932 143.979 43.8387 148.919 94.7718 148.919Z" fill="#D9E4F5"/>
</g>
<path d="M48.2264 8.92518C48.2264 9.37971 48.0611 9.75159 47.7717 10.0408C47.4824 10.3301 47.069 10.4954 46.6556 10.4954H12.6768C11.8087 10.4954 11.106 9.79291 11.106 8.92518C11.106 8.47066 11.2713 8.09878 11.5607 7.80953C11.85 7.52029 12.2634 7.35501 12.6768 7.35501H14.2889C14.9089 5.86748 16.3971 4.83447 18.0919 4.83447C19.2493 4.83447 20.2827 5.289 21.0268 6.07408C22.0189 4.37995 23.879 3.22298 25.9872 3.22298C26.5659 3.22298 27.1447 3.30562 27.6407 3.4709C28.7568 1.40489 30.9476 0 33.4279 0C36.4454 0 39.0083 2.02469 39.7524 4.83447C40.2898 4.54523 40.9512 4.37995 41.6125 4.37995C43.514 4.37995 45.0848 5.61956 45.5809 7.35501H46.6143C47.4824 7.35501 48.2264 8.05746 48.2264 8.92518Z" fill="#D9E4F5"/>
<path d="M170.294 9.71034C170.294 10.1649 170.129 10.5367 169.839 10.826C169.55 11.1152 169.137 11.2805 168.723 11.2805H134.786C133.918 11.2805 133.215 10.5781 133.215 9.71034C133.215 9.25582 133.38 8.88393 133.67 8.59469C133.959 8.30545 134.372 8.14017 134.786 8.14017H136.398C137.018 6.65264 138.506 5.61963 140.201 5.61963C141.358 5.61963 142.392 6.07415 143.136 6.85924C144.128 5.16511 145.988 4.00814 148.096 4.00814C148.675 4.00814 149.254 4.09078 149.75 4.25606C150.866 2.19005 153.057 0.785156 155.537 0.785156C158.554 0.785156 161.117 2.80985 161.861 5.61963C162.399 5.33039 163.06 5.16511 163.721 5.16511C165.623 5.16511 167.194 6.40472 167.69 8.14017H168.723C169.591 8.09885 170.294 8.84261 170.294 9.71034Z" fill="#D9E4F5"/>
<path d="M115.026 20.3295C115.026 20.784 114.861 21.1559 114.572 21.4451C114.282 21.7344 113.869 21.8996 113.456 21.8996H79.5181C78.65 21.8996 77.9473 21.1972 77.9473 20.3295C77.9473 19.875 78.1126 19.5031 78.402 19.2138C78.6913 18.9246 79.1047 18.7593 79.5181 18.7593H81.1302C81.7503 17.2718 83.2384 16.2388 84.9332 16.2388C86.0906 16.2388 87.124 16.6933 87.8681 17.4784C88.8602 15.7842 90.7203 14.6273 92.8285 14.6273C93.4072 14.6273 93.986 14.7099 94.482 14.8752C95.5981 12.8092 97.7889 11.4043 100.269 11.4043C103.287 11.4043 105.85 13.429 106.594 16.2388C107.131 15.9495 107.792 15.7842 108.454 15.7842C110.355 15.7842 111.926 17.0239 112.422 18.7593H113.456C114.324 18.718 115.026 19.4618 115.026 20.3295Z" fill="#D9E4F5"/>
<path d="M158.1 83.1362C160.042 79.6653 163.763 72.3516 165.375 64.8313C167.772 53.5509 173.105 53.0551 175.048 56.278C180.38 65.1206 165.912 80.3265 161.324 84.789L158.1 83.1362Z" fill="#C7D9ED"/>
<path d="M159.339 83.7561C162.894 79.2109 165.623 74.2112 167.359 70.5337C169.674 65.6579 170.872 61.939 170.914 61.8977C170.955 61.7738 171.079 61.6911 171.244 61.7324C171.368 61.7737 171.451 61.8977 171.41 62.063C171.41 62.1043 170.211 65.8231 167.855 70.7403C166.119 74.4178 163.39 79.4175 159.835 83.9627L159.339 83.7561Z" fill="#B4CAE3"/>
<path d="M30.4098 116.358C28.6323 112.804 25.2427 105.325 24.0026 97.7223C22.1425 86.3592 16.81 85.6154 14.7432 88.7558C8.99735 97.3504 22.7625 113.176 27.1442 117.887L30.4098 116.358Z" fill="#C7D9ED"/>
<path d="M29.1283 116.936C25.78 112.226 23.2998 107.143 21.729 103.383C19.6208 98.3833 18.5874 94.6231 18.5874 94.5818C18.546 94.4578 18.422 94.3752 18.2567 94.4165C18.1327 94.4578 18.05 94.5818 18.0913 94.7471C18.0913 94.7884 19.1247 98.5485 21.2329 103.59C22.8037 107.35 25.2839 112.474 28.6322 117.184L29.1283 116.936Z" fill="#B4CAE3"/>
<path d="M34.7505 126.688C30.9061 122.804 22.4734 113.713 17.1823 103.342C9.57634 88.508 1.92903 89.8303 0.440901 95.078C-3.44476 108.631 19.3732 123.382 28.8393 128.837L34.7505 126.688Z" fill="#D9E4F5"/>
<path d="M32.6838 127.473C26.0285 122.473 20.4067 116.606 16.6037 112.143C11.5193 106.193 8.41903 101.482 8.3777 101.441C8.25369 101.276 8.047 101.235 7.88166 101.317C7.71631 101.441 7.67497 101.648 7.75765 101.813C7.79898 101.854 10.8992 106.606 16.025 112.598C19.7867 116.978 25.3258 122.804 31.857 127.762L32.6838 127.473Z" fill="#C7D9ED"/>
<path d="M155.372 90.2023C159.381 86.4835 168.227 77.8062 174.015 67.6827C182.282 53.2206 189.847 54.8735 191.128 60.2038C194.394 73.9221 170.914 87.5991 161.2 92.6402L155.372 90.2023Z" fill="#D9E4F5"/>
<path d="M157.397 91.0699C164.259 86.4007 170.129 80.7811 174.138 76.4838C179.512 70.7816 182.778 66.1951 182.819 66.1537C182.943 65.9885 183.15 65.9471 183.315 66.0711C183.481 66.1951 183.522 66.4017 183.398 66.5669C183.357 66.6083 180.05 71.1948 174.634 76.9383C170.666 81.153 164.879 86.6899 158.141 91.3591L157.397 91.0699Z" fill="#C7D9ED"/>
<path d="M39.4628 67.6823C35.4531 65.2857 26.607 59.6249 20.0758 52.2285C10.6924 41.6505 4.69851 44.3363 4.5745 48.9642C4.24381 60.9471 26.1523 68.2195 35.0811 70.6987L39.4628 67.6823Z" fill="#D9E4F5"/>
<path d="M37.8921 68.7156C31.4022 66.0298 25.5324 62.3936 21.44 59.5425C15.9835 55.7411 12.4699 52.5181 12.4286 52.4768C12.3046 52.3528 12.0979 52.3528 11.9739 52.4768C11.8499 52.6007 11.8499 52.8073 11.9739 52.9313C12.0152 52.9726 15.5702 56.1956 21.0266 60.0384C25.0363 62.8482 30.8235 66.443 37.2307 69.1288L37.8921 68.7156Z" fill="#C7D9ED"/>
<path d="M60.958 21.9409C61.6194 15.7428 61.1234 9.75137 58.0231 11.2389C54.9228 12.7264 55.9976 23.0152 60.214 29.7917L61.082 32.4362C58.1058 27.4365 52.1533 23.1805 49.7144 24.792C47.2755 26.3621 51.4919 28.8413 55.7082 30.4528C58.9325 31.6924 60.7513 33.2213 61.5781 34.089L65.7118 46.6091C60.958 38.7169 51.6159 32.023 47.7302 34.5022C43.8859 36.9814 50.5825 40.9069 57.279 43.4687C62.3221 45.4108 65.2157 47.8074 66.5798 49.2122L67.4066 51.6915C67.8613 51.6088 68.316 51.5262 68.7707 51.4435L63.8516 36.5269C64.1823 35.246 64.8437 33.5105 66.1251 31.4445C68.564 27.6431 70.4655 23.1391 67.5719 23.3457C65.0504 23.511 63.0662 28.6761 62.9422 33.8411L61.2474 28.6761C61.0407 27.0233 60.6687 24.5854 60.958 21.9409Z" fill="#C7D9ED"/>
<path d="M180.959 90.4089C182.654 84.4175 185.341 79.0045 187.656 81.525C189.97 84.0456 185.175 93.2187 178.768 97.9705L176.991 100.119C181.62 96.5656 188.689 94.8302 190.384 97.1854C192.037 99.5407 187.242 100.284 182.695 100.202C179.264 100.16 176.991 100.904 175.875 101.4L167.4 111.565C174.717 105.945 185.919 103.218 188.565 106.978C191.21 110.738 183.563 111.895 176.412 111.771C170.997 111.689 167.4 112.887 165.664 113.672L163.97 115.697C163.556 115.449 163.184 115.201 162.771 114.994L172.857 102.97C173.022 101.648 173.064 99.7886 172.609 97.4333C171.741 93.0121 171.617 88.1363 174.262 89.3346C176.536 90.4089 176.495 95.9458 174.717 100.78L178.189 96.6069C179.016 95.1194 180.256 93.0121 180.959 90.4089Z" fill="#D9E4F5"/>
<path d="M172.113 44.1715C170.997 44.1715 170.087 43.2624 170.087 42.1468C170.087 41.0311 170.997 40.1221 172.113 40.1221C173.229 40.1221 174.138 41.0311 174.138 42.1468C174.138 43.3037 173.229 44.1715 172.113 44.1715ZM172.113 40.8245C171.369 40.8245 170.749 41.4443 170.749 42.1881C170.749 42.9319 171.369 43.5517 172.113 43.5517C172.857 43.5517 173.477 42.9319 173.477 42.1881C173.477 41.403 172.857 40.8245 172.113 40.8245Z" fill="#BA68C8"/>
<path d="M182.323 46.2374C181.207 46.2374 180.298 45.3283 180.298 44.2127C180.298 43.097 181.207 42.188 182.323 42.188C183.439 42.188 184.349 43.097 184.349 44.2127C184.349 45.3283 183.439 46.2374 182.323 46.2374ZM182.323 42.8491C181.579 42.8491 180.959 43.4689 180.959 44.2127C180.959 44.9564 181.579 45.5763 182.323 45.5763C183.067 45.5763 183.687 44.9564 183.687 44.2127C183.687 43.4689 183.067 42.8491 182.323 42.8491Z" fill="#9468B4"/>
<path d="M187.159 50.3282C186.994 50.3282 186.829 50.2043 186.829 49.9977V48.5928C186.829 48.4275 186.953 48.2622 187.159 48.2622C187.325 48.2622 187.49 48.3862 187.49 48.5928V49.9977C187.49 50.2043 187.325 50.3282 187.159 50.3282Z" fill="#BA68C8"/>
<path d="M187.159 52.7662C186.994 52.7662 186.829 52.6423 186.829 52.4357V51.0308C186.829 50.8655 186.953 50.7002 187.159 50.7002C187.325 50.7002 187.49 50.8242 187.49 51.0308V52.4357C187.49 52.6423 187.325 52.7662 187.159 52.7662Z" fill="#BA68C8"/>
<path d="M189.102 50.8657H187.862C187.697 50.8657 187.531 50.7418 187.531 50.5352C187.531 50.3699 187.655 50.2046 187.862 50.2046H189.102C189.267 50.2046 189.433 50.3286 189.433 50.5352C189.433 50.7004 189.309 50.8657 189.102 50.8657Z" fill="#BA68C8"/>
<path d="M186.457 50.8657H185.216C185.051 50.8657 184.886 50.7418 184.886 50.5352C184.886 50.3699 185.01 50.2046 185.216 50.2046H186.457C186.622 50.2046 186.787 50.3286 186.787 50.5352C186.787 50.7004 186.622 50.8657 186.457 50.8657Z" fill="#BA68C8"/>
<path d="M176.453 48.0553C176.288 48.0553 176.123 47.9313 176.123 47.7247V46.3198C176.123 46.1545 176.247 45.9893 176.453 45.9893C176.619 45.9893 176.784 46.1132 176.784 46.3198V47.7247C176.743 47.9313 176.619 48.0553 176.453 48.0553Z" fill="#9468B4"/>
<path d="M176.453 50.4938C176.288 50.4938 176.123 50.3698 176.123 50.1632V48.7583C176.123 48.593 176.247 48.4277 176.453 48.4277C176.619 48.4277 176.784 48.5517 176.784 48.7583V50.1632C176.743 50.3698 176.619 50.4938 176.453 50.4938Z" fill="#9468B4"/>
<path d="M178.396 48.5928H177.156C176.991 48.5928 176.825 48.4688 176.825 48.2622C176.825 48.0969 176.949 47.9316 177.156 47.9316H178.396C178.561 47.9316 178.727 48.0556 178.727 48.2622C178.685 48.4688 178.561 48.5928 178.396 48.5928Z" fill="#9468B4"/>
<path d="M175.751 48.5928H174.51C174.345 48.5928 174.18 48.4688 174.18 48.2622C174.18 48.0969 174.304 47.9316 174.51 47.9316H175.751C175.916 47.9316 176.081 48.0556 176.081 48.2622C176.04 48.4688 175.916 48.5928 175.751 48.5928Z" fill="#9468B4"/>
<path d="M8.50169 82.1443C8.50169 83.26 7.59228 84.169 6.47619 84.169C5.36009 84.169 4.45068 83.26 4.45068 82.1443C4.45068 81.0287 5.36009 80.1196 6.47619 80.1196C7.59228 80.1609 8.50169 81.0287 8.50169 82.1443ZM5.11207 82.1443C5.11207 82.8881 5.73213 83.5079 6.47619 83.5079C7.22025 83.5079 7.8403 82.8881 7.8403 82.1443C7.8403 81.4006 7.22025 80.7808 6.47619 80.7808C5.73213 80.7808 5.11207 81.4006 5.11207 82.1443Z" fill="#BA68C8"/>
<path d="M10.5271 71.9388C10.5271 73.0544 9.61767 73.9635 8.50158 73.9635C7.38548 73.9635 6.47607 73.0544 6.47607 71.9388C6.47607 70.8231 7.38548 69.9141 8.50158 69.9141C9.61767 69.9554 10.5271 70.8231 10.5271 71.9388ZM7.13746 71.9388C7.13746 72.6825 7.75752 73.3023 8.50158 73.3023C9.24564 73.3023 9.8657 72.6825 9.8657 71.9388C9.8657 71.195 9.24564 70.5752 8.50158 70.5752C7.75752 70.5752 7.13746 71.195 7.13746 71.9388Z" fill="#9468B4"/>
<path d="M14.6196 67.104C14.6196 67.2693 14.4956 67.4346 14.2889 67.4346H12.8834C12.7181 67.4346 12.5527 67.3106 12.5527 67.104C12.5527 66.9387 12.6767 66.7734 12.8834 66.7734H14.2889C14.4956 66.7734 14.6196 66.9387 14.6196 67.104Z" fill="#BA68C8"/>
<path d="M17.0585 67.104C17.0585 67.2693 16.9345 67.4346 16.7278 67.4346H15.3224C15.157 67.4346 14.9917 67.3106 14.9917 67.104C14.9917 66.9387 15.1157 66.7734 15.3224 66.7734H16.7278C16.9345 66.7734 17.0585 66.9387 17.0585 67.104Z" fill="#BA68C8"/>
<path d="M15.157 65.1621V66.4017C15.157 66.567 15.033 66.7323 14.8263 66.7323C14.661 66.7323 14.4956 66.6083 14.4956 66.4017V65.1621C14.4956 64.9968 14.6196 64.8315 14.8263 64.8315C15.033 64.8315 15.157 64.9968 15.157 65.1621Z" fill="#BA68C8"/>
<path d="M15.157 67.8066V69.0462C15.157 69.2115 15.033 69.3768 14.8263 69.3768C14.661 69.3768 14.4956 69.2528 14.4956 69.0462V67.8066C14.4956 67.6414 14.6196 67.4761 14.8263 67.4761C15.033 67.4761 15.157 67.6414 15.157 67.8066Z" fill="#BA68C8"/>
<path d="M12.3874 77.8472C12.3874 78.0124 12.2634 78.1777 12.0567 78.1777H10.6513C10.4859 78.1777 10.3206 78.0538 10.3206 77.8472C10.3206 77.6819 10.4446 77.5166 10.6513 77.5166H12.0567C12.2221 77.5166 12.3874 77.6406 12.3874 77.8472Z" fill="#9468B4"/>
<path d="M14.7851 77.8472C14.7851 78.0124 14.6611 78.1777 14.4544 78.1777H13.049C12.8836 78.1777 12.7183 78.0538 12.7183 77.8472C12.7183 77.6819 12.8423 77.5166 13.049 77.5166H14.4544C14.6611 77.5166 14.7851 77.6406 14.7851 77.8472Z" fill="#9468B4"/>
<path d="M12.8838 75.8638V77.1034C12.8838 77.2687 12.7598 77.4339 12.5531 77.4339C12.3878 77.4339 12.2224 77.31 12.2224 77.1034V75.8638C12.2224 75.6985 12.3464 75.5332 12.5531 75.5332C12.7598 75.5745 12.8838 75.6985 12.8838 75.8638Z" fill="#9468B4"/>
<path d="M12.8836 78.5498V79.7894C12.8836 79.9547 12.7595 80.12 12.5529 80.12C12.3875 80.12 12.2222 79.996 12.2222 79.7894V78.5498C12.2222 78.3845 12.3462 78.2192 12.5529 78.2192C12.7595 78.2192 12.8836 78.3432 12.8836 78.5498Z" fill="#9468B4"/>
<path d="M20.9854 25.6599C20.9028 25.2467 20.7374 24.8335 20.4894 24.4616C20.3241 24.2137 20.1174 24.0071 19.8693 23.8005C18.4639 22.6435 16.3971 22.8088 15.2396 24.2137C14.3302 25.288 14.2475 26.7756 14.9089 27.9325L11.1886 32.3951C10.8579 32.767 10.9406 33.3455 11.3126 33.6347L11.726 34.0066C11.9327 34.2132 12.222 34.3372 12.4701 34.4612C12.7181 34.5851 13.0074 34.6678 13.2968 34.7091C13.5035 34.7504 13.6688 34.6678 13.7928 34.5438C13.9168 34.4198 13.9582 34.2132 13.8755 34.0479L13.5448 33.1802L14.4542 33.3455C14.6609 33.3868 14.8263 33.3042 14.9503 33.1802C15.0743 33.0563 15.1156 32.8497 15.0329 32.6844L14.7022 31.8166L15.6117 31.9819C15.8183 32.0233 15.9837 31.9406 16.1077 31.8166C16.2317 31.6927 16.273 31.4861 16.1904 31.3208L15.8597 30.4531L16.6451 29.5027C17.1825 29.668 17.7198 29.7093 18.2572 29.6267C19.0426 29.5027 19.7453 29.0895 20.2827 28.4284C20.3241 28.3457 20.4067 28.3044 20.4481 28.2218C20.4894 28.1391 20.5721 28.0565 20.6134 27.9739C21.0268 27.1888 21.1095 26.4037 20.9854 25.6599ZM17.4718 24.9162C17.8852 24.4203 18.5879 24.379 19.0839 24.7509C19.1666 24.7922 19.208 24.8748 19.2493 24.9575C19.58 25.3707 19.58 25.9492 19.208 26.3624C19.1666 26.4037 19.1253 26.445 19.0839 26.4863C19.0013 26.569 18.8773 26.6516 18.7533 26.6929H18.7119C18.6292 26.7342 18.5466 26.7342 18.4639 26.7342C18.4226 26.7342 18.4226 26.7342 18.3812 26.7342C18.3399 26.7342 18.3399 26.7342 18.2985 26.7342C18.2572 26.7342 18.2572 26.7342 18.2159 26.7342C18.1745 26.7342 18.1745 26.7342 18.1332 26.7342C18.0919 26.7342 18.0919 26.7342 18.0919 26.7342H18.0505H18.0092C17.9679 26.7342 17.9679 26.7342 17.9265 26.6929C17.8852 26.6929 17.8438 26.6516 17.8438 26.6516C17.7612 26.6103 17.7198 26.569 17.6372 26.5276C17.1825 26.1558 17.0998 25.536 17.3891 25.0401C17.3891 24.9988 17.4305 24.9575 17.4718 24.9162Z" fill="#9468B4"/>
<path d="M15.4875 29.6678C15.5701 29.7092 15.5701 29.8331 15.4875 29.8744L12.5939 33.3867C12.5525 33.4693 12.4285 33.4693 12.3872 33.3867C12.3045 33.3453 12.3045 33.2214 12.3872 33.1801L15.2808 29.6678C15.3221 29.6265 15.4461 29.5852 15.4875 29.6678Z" fill="#BA68C8"/>
<path d="M14.8263 29.1307C14.909 29.172 14.909 29.296 14.8263 29.3373L11.9328 32.8495C11.8914 32.9322 11.7674 32.9322 11.7261 32.8495C11.6434 32.8082 11.6434 32.6843 11.7261 32.6429L14.6196 29.1307C14.7023 29.0894 14.785 29.0481 14.8263 29.1307Z" fill="#BA68C8"/>
<path d="M19.0837 26.4867C19.0424 26.5281 19.0424 26.5694 19.001 26.6107C18.7117 26.9826 18.257 27.1065 17.8023 26.9826C17.6369 26.9413 17.5129 26.8586 17.3889 26.776C16.8929 26.3628 16.8515 25.6603 17.2236 25.1645C17.2649 25.1232 17.3062 25.0818 17.3476 25.0405C17.0582 25.4951 17.1409 26.1562 17.5956 26.5281C17.6783 26.5694 17.7196 26.6107 17.8023 26.652C17.8436 26.652 17.8436 26.6933 17.8849 26.6933C17.9263 26.6933 17.9263 26.6933 17.9676 26.7347H18.0089H18.0503H18.0916C18.133 26.7347 18.133 26.7347 18.1743 26.7347C18.2156 26.7347 18.2156 26.7347 18.257 26.7347C18.2983 26.7347 18.2983 26.7347 18.3396 26.7347C18.381 26.7347 18.381 26.7347 18.4223 26.7347C18.505 26.7347 18.5877 26.6933 18.6703 26.6933H18.7117C18.877 26.652 19.001 26.5694 19.0837 26.4867Z" fill="#BA68C8"/>
<path d="M19.9519 26.8998C19.9519 26.8585 19.9519 26.7758 19.9519 26.7345C19.9932 26.156 20.4479 25.7015 20.9853 25.6602C20.9026 25.247 20.7373 24.8338 20.4893 24.4619C20.0346 24.5446 19.6212 24.7098 19.2492 24.9578C19.5799 25.371 19.5799 25.9494 19.2078 26.3626C19.1665 26.404 19.1252 26.4453 19.0838 26.4866C19.0012 26.5692 18.8771 26.6519 18.7531 26.6932H18.7118C18.6291 26.7345 18.5464 26.7345 18.4638 26.7345C18.4224 26.7345 18.4224 26.7345 18.3811 26.7345C18.3398 26.7345 18.3398 26.7345 18.2984 26.7345C18.2571 26.7345 18.2571 26.7345 18.2158 26.7345C18.1744 26.7345 18.1744 26.7345 18.1331 26.7345C18.0917 26.7345 18.0917 26.7345 18.0917 26.7345H18.0504H18.0091C17.9677 26.7345 17.9677 26.7345 17.9264 26.6932C17.8851 26.7758 17.8851 26.8998 17.8437 26.9825C17.8024 27.1477 17.7611 27.3543 17.7611 27.5196C17.7197 28.2634 17.9264 28.9658 18.3398 29.5443C19.1252 29.4203 19.8279 29.0071 20.3653 28.346C20.4066 28.2634 20.4893 28.2221 20.5306 28.1394C20.572 28.0568 20.6546 27.9741 20.696 27.8915C20.2413 27.7262 19.9932 27.3543 19.9519 26.8998Z" fill="#BA68C8"/>
<path d="M24.995 27.9325C25.0363 26.1558 23.6309 24.6682 21.8947 24.5856C20.0759 24.503 18.5051 25.8665 18.4224 27.6846C18.3398 29.0895 19.1665 30.3291 20.3653 30.8663L20.0759 36.6511C20.0346 37.147 20.4066 37.5602 20.9026 37.6015L21.44 37.6428C21.7294 37.6428 22.0187 37.6428 22.3081 37.5602C22.5975 37.5188 22.8868 37.3949 23.1348 37.2709C23.3002 37.1883 23.4242 37.023 23.4242 36.8164C23.4242 36.6511 23.3415 36.4445 23.1762 36.3619L22.4321 35.866L23.2588 35.4528C23.4242 35.3702 23.5482 35.2049 23.5482 34.9983C23.5482 34.833 23.4655 34.6264 23.3002 34.5438L22.5561 34.0479L23.3829 33.6347C23.5482 33.5521 23.6722 33.3868 23.6722 33.1802C23.6722 33.0149 23.5895 32.8083 23.4242 32.7257L22.6801 32.2298L22.7628 30.9902C24.0442 30.577 24.995 29.3787 24.995 27.9325ZM22.8868 27.2301C22.7628 27.7673 22.2668 28.1805 21.688 28.1391C21.1093 28.0978 20.6546 27.6433 20.6133 27.1061C20.6133 27.0648 20.6133 26.9822 20.6133 26.9409C20.6546 26.321 21.192 25.8252 21.8121 25.8665C22.4321 25.9078 22.9282 26.445 22.8868 27.0648C22.9282 27.1061 22.9282 27.1475 22.8868 27.2301Z" fill="#9468B4"/>
<path d="M21.9361 31.8989C22.0188 31.8989 22.1014 31.9816 22.0601 32.0642L21.8121 36.6094C21.8121 36.6921 21.7294 36.7747 21.6467 36.7334C21.5641 36.7334 21.4814 36.6508 21.5227 36.5681L21.7707 32.0229C21.7707 31.9816 21.8534 31.8989 21.9361 31.8989Z" fill="#BA68C8"/>
<path d="M21.0679 31.8579C21.1506 31.8579 21.2333 31.9406 21.1919 32.0232L20.9439 36.5684C20.9439 36.6511 20.8612 36.7337 20.7786 36.6924C20.6959 36.6924 20.6132 36.6097 20.6545 36.5271L20.9026 31.9819C20.9439 31.9406 20.9852 31.8579 21.0679 31.8579Z" fill="#BA68C8"/>
<path d="M22.8868 27.3952C22.8454 28.015 22.3081 28.5108 21.688 28.4695C21.068 28.4282 20.5719 27.891 20.6132 27.2712C20.6132 27.2299 20.6132 27.1473 20.6546 27.106C20.6959 27.6431 21.1506 28.0976 21.7293 28.139C22.3081 28.1803 22.8041 27.7671 22.9281 27.2299C22.8868 27.2712 22.8868 27.3126 22.8868 27.3952Z" fill="#BA68C8"/>
<path d="M22.5976 20.288C20.6961 19.4616 18.4639 20.3706 17.6372 22.2713C17.5132 22.5193 17.4718 22.7672 17.3892 23.0151C17.8439 22.9738 18.3399 23.0151 18.7946 23.1804C18.836 23.0564 18.8773 22.9325 18.9186 22.8085C19.4147 21.6102 20.8201 21.0731 22.0189 21.5689C23.2177 22.0647 23.755 23.4696 23.259 24.6679C23.2177 24.7506 23.1763 24.8332 23.135 24.9158C23.5897 25.1224 23.9617 25.453 24.2511 25.8249C24.3751 25.6596 24.4578 25.453 24.5404 25.2464C25.4085 23.3457 24.4991 21.1144 22.5976 20.288ZM22.1016 25.9075C21.7709 26.0728 21.3988 26.1555 21.0268 26.1141C20.7374 26.1141 20.4481 26.0315 20.2001 25.9075C19.952 25.7836 19.704 25.6183 19.4973 25.453C19.4973 25.453 19.4973 25.453 19.456 25.4117C19.208 25.2051 19.0426 24.9158 18.9186 24.6266C18.4639 24.3374 17.8439 24.42 17.4718 24.8332C17.6785 25.5356 18.0919 26.1555 18.6706 26.6513L18.7119 26.6926C18.7533 26.7339 18.7946 26.7339 18.7946 26.7753C19.0426 26.9405 19.2907 27.1058 19.58 27.2298C19.9107 27.3537 20.2414 27.4777 20.5721 27.519C20.6134 27.519 20.6548 27.519 20.6961 27.519C20.6961 27.519 20.6961 27.519 20.7374 27.519C21.4815 27.5603 22.2256 27.3951 22.8456 27.0645C22.8456 27.0645 22.8456 27.0645 22.8456 27.0232C22.9696 26.5273 22.5976 26.0315 22.1016 25.9075Z" fill="#3B3E7D"/>
<path d="M6.93086 40.0808H6.06278C5.8561 40.0808 5.64941 39.9156 5.64941 39.6676V38.7999C5.64941 38.5933 5.81476 38.3867 6.06278 38.3867C6.3108 38.3867 6.47615 38.552 6.47615 38.7999V39.2544H6.93086C7.13754 39.2544 7.34422 39.4197 7.34422 39.6676C7.34422 39.9156 7.17888 40.0808 6.93086 40.0808Z" fill="#B4CAE3"/>
<path d="M30.3691 40.0808H28.633C28.4263 40.0808 28.2196 39.9155 28.2196 39.6676C28.2196 39.4197 28.3849 39.2544 28.633 39.2544H30.3691C30.5758 39.2544 30.7825 39.4197 30.7825 39.6676C30.7825 39.9155 30.6171 40.0808 30.3691 40.0808ZM27.0208 40.0808H25.2847C25.078 40.0808 24.8713 39.9155 24.8713 39.6676C24.8713 39.4197 25.0366 39.2544 25.2847 39.2544H27.0208C27.2275 39.2544 27.4342 39.4197 27.4342 39.6676C27.4342 39.9155 27.2688 40.0808 27.0208 40.0808ZM23.6725 40.0808H21.9364C21.7297 40.0808 21.523 39.9155 21.523 39.6676C21.523 39.4197 21.6884 39.2544 21.9364 39.2544H23.6725C23.8792 39.2544 24.0859 39.4197 24.0859 39.6676C24.0859 39.9155 23.9206 40.0808 23.6725 40.0808ZM20.3243 40.0808H18.5881C18.3814 40.0808 18.1747 39.9155 18.1747 39.6676C18.1747 39.4197 18.3401 39.2544 18.5881 39.2544H20.3243C20.5309 39.2544 20.7376 39.4197 20.7376 39.6676C20.7376 39.9155 20.5723 40.0808 20.3243 40.0808ZM16.976 40.0808H15.2812C15.0745 40.0808 14.8678 39.9155 14.8678 39.6676C14.8678 39.4197 15.0331 39.2544 15.2812 39.2544H17.0173C17.224 39.2544 17.4307 39.4197 17.4307 39.6676C17.4307 39.9155 17.224 40.0808 16.976 40.0808ZM13.6277 40.0808H11.8915C11.6849 40.0808 11.4782 39.9155 11.4782 39.6676C11.4782 39.4197 11.6435 39.2544 11.8915 39.2544H13.6277C13.8344 39.2544 14.0411 39.4197 14.0411 39.6676C14.0411 39.9155 13.8757 40.0808 13.6277 40.0808ZM10.2794 40.0808H8.54325C8.33657 40.0808 8.12988 39.9155 8.12988 39.6676C8.12988 39.4197 8.29523 39.2544 8.54325 39.2544H10.2794C10.4861 39.2544 10.6928 39.4197 10.6928 39.6676C10.6928 39.9155 10.5274 40.0808 10.2794 40.0808Z" fill="#B4CAE3"/>
<path d="M32.8903 40.0808H32.0223C31.8156 40.0808 31.6089 39.9156 31.6089 39.6676C31.6089 39.4197 31.7742 39.2544 32.0223 39.2544H32.477V38.7999C32.477 38.5933 32.6423 38.3867 32.8903 38.3867C33.1383 38.3867 33.3037 38.552 33.3037 38.7999V39.6676C33.2624 39.8742 33.097 40.0808 32.8903 40.0808Z" fill="#B4CAE3"/>
<path d="M32.8904 37.643C32.6837 37.643 32.4771 37.4777 32.4771 37.2298V35.5769C32.4771 35.3703 32.6424 35.1637 32.8904 35.1637C33.1384 35.1637 33.3038 35.329 33.3038 35.5769V37.2298C33.2624 37.4777 33.0971 37.643 32.8904 37.643ZM32.8904 34.42C32.6837 34.42 32.4771 34.2547 32.4771 34.0068V32.354C32.4771 32.1474 32.6424 31.9408 32.8904 31.9408C33.1384 31.9408 33.3038 32.106 33.3038 32.354V34.0068C33.2624 34.2547 33.0971 34.42 32.8904 34.42ZM32.8904 31.197C32.6837 31.197 32.4771 31.0317 32.4771 30.7838V29.131C32.4771 28.9244 32.6424 28.7178 32.8904 28.7178C33.1384 28.7178 33.3038 28.8831 33.3038 29.131V30.7838C33.2624 31.0317 33.0971 31.197 32.8904 31.197ZM32.8904 27.974C32.6837 27.974 32.4771 27.8087 32.4771 27.5608V25.908C32.4771 25.7014 32.6424 25.4948 32.8904 25.4948C33.1384 25.4948 33.3038 25.6601 33.3038 25.908V27.5608C33.2624 27.8087 33.0971 27.974 32.8904 27.974ZM32.8904 24.751C32.6837 24.751 32.4771 24.5857 32.4771 24.3378V22.685C32.4771 22.4784 32.6424 22.2718 32.8904 22.2718C33.1384 22.2718 33.3038 22.4371 33.3038 22.685V24.3378C33.2624 24.5857 33.0971 24.751 32.8904 24.751ZM32.8904 21.528C32.6837 21.528 32.4771 21.3628 32.4771 21.1148V19.462C32.4771 19.2554 32.6424 19.0488 32.8904 19.0488C33.1384 19.0488 33.3038 19.2141 33.3038 19.462V21.1148C33.2624 21.3628 33.0971 21.528 32.8904 21.528Z" fill="#B4CAE3"/>
<path d="M32.8903 18.305C32.6836 18.305 32.477 18.1397 32.477 17.8918V17.4372H32.0223C31.8156 17.4372 31.6089 17.272 31.6089 17.024C31.6089 16.8174 31.7742 16.6108 32.0223 16.6108H32.8903C33.097 16.6108 33.3037 16.7761 33.3037 17.024V17.8918C33.2624 18.1397 33.097 18.305 32.8903 18.305Z" fill="#B4CAE3"/>
<path d="M30.3691 17.4783H28.633C28.4263 17.4783 28.2196 17.313 28.2196 17.0651C28.2196 16.8585 28.3849 16.6519 28.633 16.6519H30.3691C30.5758 16.6519 30.7825 16.8171 30.7825 17.0651C30.7825 17.2717 30.6171 17.4783 30.3691 17.4783ZM27.0208 17.4783H25.2847C25.078 17.4783 24.8713 17.313 24.8713 17.0651C24.8713 16.8585 25.0366 16.6519 25.2847 16.6519H27.0208C27.2275 16.6519 27.4342 16.8171 27.4342 17.0651C27.4342 17.2717 27.2688 17.4783 27.0208 17.4783ZM23.6725 17.4783H21.9364C21.7297 17.4783 21.523 17.313 21.523 17.0651C21.523 16.8585 21.6884 16.6519 21.9364 16.6519H23.6725C23.8792 16.6519 24.0859 16.8171 24.0859 17.0651C24.0859 17.2717 23.9206 17.4783 23.6725 17.4783ZM20.3243 17.4783H18.5881C18.3814 17.4783 18.1747 17.313 18.1747 17.0651C18.1747 16.8585 18.3401 16.6519 18.5881 16.6519H20.3243C20.5309 16.6519 20.7376 16.8171 20.7376 17.0651C20.7376 17.2717 20.5723 17.4783 20.3243 17.4783ZM16.976 17.4783H15.2812C15.0745 17.4783 14.8678 17.313 14.8678 17.0651C14.8678 16.8585 15.0331 16.6519 15.2812 16.6519H17.0173C17.224 16.6519 17.4307 16.8171 17.4307 17.0651C17.3893 17.2717 17.224 17.4783 16.976 17.4783ZM13.6277 17.4783H11.8915C11.6849 17.4783 11.4782 17.313 11.4782 17.0651C11.4782 16.8585 11.6435 16.6519 11.8915 16.6519H13.6277C13.8344 16.6519 14.0411 16.8171 14.0411 17.0651C14.0411 17.2717 13.8757 17.4783 13.6277 17.4783ZM10.2794 17.4783H8.54325C8.33657 17.4783 8.12988 17.313 8.12988 17.0651C8.12988 16.8585 8.29523 16.6519 8.54325 16.6519H10.2794C10.4861 16.6519 10.6928 16.8171 10.6928 17.0651C10.6928 17.2717 10.5274 17.4783 10.2794 17.4783Z" fill="#B4CAE3"/>
<path d="M6.06278 18.305C5.8561 18.305 5.64941 18.1397 5.64941 17.8918V17.024C5.64941 16.8174 5.81476 16.6108 6.06278 16.6108H6.93086C7.13754 16.6108 7.34422 16.7761 7.34422 17.024C7.34422 17.2306 7.17888 17.4372 6.93086 17.4372H6.47615V17.8918C6.47615 18.1397 6.3108 18.305 6.06278 18.305Z" fill="#B4CAE3"/>
<path d="M6.06278 37.643C5.8561 37.643 5.64941 37.4777 5.64941 37.2298V35.5769C5.64941 35.3703 5.81476 35.1637 6.06278 35.1637C6.3108 35.1637 6.47615 35.329 6.47615 35.5769V37.2298C6.47615 37.4777 6.3108 37.643 6.06278 37.643ZM6.06278 34.42C5.8561 34.42 5.64941 34.2547 5.64941 34.0068V32.354C5.64941 32.1474 5.81476 31.9408 6.06278 31.9408C6.3108 31.9408 6.47615 32.106 6.47615 32.354V34.0068C6.47615 34.2547 6.3108 34.42 6.06278 34.42ZM6.06278 31.197C5.8561 31.197 5.64941 31.0317 5.64941 30.7838V29.131C5.64941 28.9244 5.81476 28.7178 6.06278 28.7178C6.3108 28.7178 6.47615 28.8831 6.47615 29.131V30.7838C6.47615 31.0317 6.3108 31.197 6.06278 31.197ZM6.06278 27.974C5.8561 27.974 5.64941 27.8087 5.64941 27.5608V25.908C5.64941 25.7014 5.81476 25.4948 6.06278 25.4948C6.3108 25.4948 6.47615 25.6601 6.47615 25.908V27.5608C6.47615 27.8087 6.3108 27.974 6.06278 27.974ZM6.06278 24.751C5.8561 24.751 5.64941 24.5857 5.64941 24.3378V22.685C5.64941 22.4784 5.81476 22.2718 6.06278 22.2718C6.3108 22.2718 6.47615 22.4371 6.47615 22.685V24.3378C6.47615 24.5857 6.3108 24.751 6.06278 24.751ZM6.06278 21.528C5.8561 21.528 5.64941 21.3628 5.64941 21.1148V19.462C5.64941 19.2554 5.81476 19.0488 6.06278 19.0488C6.3108 19.0488 6.47615 19.2141 6.47615 19.462V21.1148C6.47615 21.3628 6.3108 21.528 6.06278 21.528Z" fill="#B4CAE3"/>
<path d="M44.4234 45.6588C44.2167 45.6588 44.01 45.4935 44.01 45.2456V43.5101C44.01 43.3035 44.1754 43.0969 44.4234 43.0969C44.6714 43.0969 44.8368 43.2622 44.8368 43.5101V45.2456C44.8368 45.4935 44.6714 45.6588 44.4234 45.6588ZM44.4234 42.3118C44.2167 42.3118 44.01 42.1466 44.01 41.8986V40.1632C44.01 39.9566 44.1754 39.75 44.4234 39.75C44.6714 39.75 44.8368 39.9153 44.8368 40.1632V41.8986C44.8368 42.1052 44.6714 42.3118 44.4234 42.3118ZM44.4234 38.9236C44.2167 38.9236 44.01 38.7583 44.01 38.5104V36.7749C44.01 36.5683 44.1754 36.3617 44.4234 36.3617C44.6714 36.3617 44.8368 36.527 44.8368 36.7749V38.5104C44.8368 38.7583 44.6714 38.9236 44.4234 38.9236ZM44.4234 35.5766C44.2167 35.5766 44.01 35.4114 44.01 35.1634V33.428C44.01 33.2214 44.1754 33.0148 44.4234 33.0148C44.6714 33.0148 44.8368 33.1801 44.8368 33.428V35.1634C44.8368 35.37 44.6714 35.5766 44.4234 35.5766ZM44.4234 32.1884C44.2167 32.1884 44.01 32.0231 44.01 31.7752V30.0397C44.01 29.8331 44.1754 29.6265 44.4234 29.6265C44.6714 29.6265 44.8368 29.7918 44.8368 30.0397V31.7752C44.8368 32.0231 44.6714 32.1884 44.4234 32.1884ZM43.0179 30.2463H41.2818C41.0751 30.2463 40.8684 30.081 40.8684 29.8331C40.8684 29.5852 41.0338 29.4199 41.2818 29.4199H43.0179C43.2246 29.4199 43.4313 29.5852 43.4313 29.8331C43.4313 30.081 43.266 30.2463 43.0179 30.2463ZM39.6697 30.2463H37.9335C37.7268 30.2463 37.5201 30.081 37.5201 29.8331C37.5201 29.5852 37.6855 29.4199 37.9335 29.4199H39.6697C39.8763 29.4199 40.083 29.5852 40.083 29.8331C40.083 30.081 39.8763 30.2463 39.6697 30.2463ZM36.3214 30.2463H34.5852C34.3785 30.2463 34.1719 30.081 34.1719 29.8331C34.1719 29.5852 34.3372 29.4199 34.5852 29.4199H36.3214C36.5281 29.4199 36.7347 29.5852 36.7347 29.8331C36.7347 30.081 36.5281 30.2463 36.3214 30.2463ZM32.9318 30.2463C32.6837 30.2463 32.4771 30.081 32.4771 29.8331C32.4771 29.5852 32.6424 29.4199 32.8904 29.4199H32.9318C33.1384 29.4199 33.3451 29.5852 33.3451 29.8331C33.3451 30.081 33.1798 30.2463 32.9318 30.2463Z" fill="#B4CAE3"/>
<path d="M134.372 27.8912L134.289 30.3291L136.563 30.4117C136.646 30.9902 136.852 31.5687 137.142 32.0645L135.529 33.5934L137.183 35.3701L138.712 33.9239C139.332 34.3784 139.994 34.6677 140.697 34.833L140.614 37.1056L143.053 37.1882L143.135 34.833C143.631 34.709 144.086 34.5437 144.5 34.3371L146.029 35.9486L147.806 34.2958L146.36 32.767C146.814 32.1472 147.104 31.486 147.269 30.7836L149.253 30.8249L149.336 28.387L147.269 28.3457C147.145 27.7259 146.897 27.1474 146.566 26.6102L148.096 25.164L146.442 23.3872L144.83 24.9161C144.251 24.5442 143.59 24.2963 142.929 24.2137L143.011 21.941L140.573 21.8584L140.49 24.3376C139.994 24.4616 139.498 24.7095 139.043 24.9987L137.596 23.4699L135.819 25.1227L137.348 26.7342C137.1 27.1474 136.894 27.6019 136.77 28.0978L134.372 27.8912ZM140.448 27.8498C141.358 27.0234 142.763 27.0648 143.59 27.9325C144.417 28.8415 144.375 30.2464 143.507 31.0728C142.598 31.8992 141.193 31.8579 140.366 30.9902C139.498 30.0811 139.539 28.6762 140.448 27.8498Z" fill="#BA68C8"/>
<path d="M142.308 32.9324C144.251 32.7258 145.698 30.949 145.491 29.007C145.285 27.0649 143.507 25.6187 141.564 25.8253C139.622 26.0319 138.175 27.8087 138.381 29.7508C138.63 31.7341 140.366 33.139 142.308 32.9324ZM140.448 27.85C141.358 27.0236 142.763 27.0649 143.59 27.9327C144.417 28.8417 144.375 30.2466 143.507 31.073C142.598 31.8994 141.192 31.8581 140.366 30.9904C139.498 30.0813 139.539 28.6764 140.448 27.85Z" fill="#9468B4"/>
<path d="M150.328 28.9243L150.287 30.3292L151.609 30.3705C151.651 30.7011 151.775 31.0317 151.94 31.3209L150.989 32.1886L151.94 33.2216L152.849 32.3952C153.18 32.6432 153.594 32.8084 154.007 32.9324L153.966 34.2547L155.371 34.296L155.412 32.9324C155.702 32.8498 155.95 32.7671 156.198 32.6432L157.066 33.5935L158.099 32.6432L157.273 31.7341C157.521 31.4036 157.686 30.9903 157.81 30.5771L158.967 30.6185L159.009 29.2136L157.81 29.1723C157.727 28.8004 157.603 28.4698 157.397 28.1806L158.306 27.3542L157.355 26.3212L156.404 27.1889C156.074 26.9823 155.702 26.817 155.288 26.7757L155.33 25.4534L153.924 25.4121L153.883 26.8583C153.594 26.941 153.304 27.0649 153.056 27.2302L152.229 26.3212L151.196 27.2715L152.064 28.2219C151.899 28.4698 151.816 28.7177 151.733 29.007L150.328 28.9243ZM153.8 28.883C154.296 28.3872 155.123 28.4285 155.619 28.9243C156.115 29.4202 156.074 30.2466 155.578 30.7424C155.082 31.2383 154.255 31.1969 153.759 30.7011C153.263 30.2053 153.304 29.3789 153.8 28.883Z" fill="#BA68C8"/>
<path d="M154.916 31.8579C156.033 31.7339 156.859 30.7009 156.735 29.5853C156.611 28.4696 155.578 27.6432 154.462 27.7672C153.346 27.8912 152.519 28.9242 152.643 30.0398C152.767 31.1555 153.8 31.9819 154.916 31.8579ZM153.8 28.8828C154.296 28.387 155.123 28.4283 155.619 28.9242C156.115 29.42 156.074 30.2464 155.578 30.7423C155.082 31.2381 154.255 31.1968 153.759 30.7009C153.263 30.2051 153.304 29.3787 153.8 28.8828Z" fill="#9468B4"/>
<path d="M165.334 40.0804H164.466C164.259 40.0804 164.052 39.9151 164.052 39.6672C164.052 39.4192 164.218 39.254 164.466 39.254H164.92V38.7994C164.92 38.5928 165.086 38.3862 165.334 38.3862C165.54 38.3862 165.747 38.5515 165.747 38.7994V39.6672C165.747 39.8738 165.54 40.0804 165.334 40.0804Z" fill="#B4CAE3"/>
<path d="M162.812 40.0803H161.076C160.869 40.0803 160.663 39.915 160.663 39.6671C160.663 39.4192 160.828 39.2539 161.076 39.2539H162.812C163.019 39.2539 163.226 39.4192 163.226 39.6671C163.226 39.915 163.019 40.0803 162.812 40.0803ZM159.423 40.0803H157.686C157.48 40.0803 157.273 39.915 157.273 39.6671C157.273 39.4192 157.438 39.2539 157.686 39.2539H159.423C159.629 39.2539 159.836 39.4192 159.836 39.6671C159.836 39.915 159.629 40.0803 159.423 40.0803ZM156.033 40.0803H154.297C154.09 40.0803 153.883 39.915 153.883 39.6671C153.883 39.4192 154.049 39.2539 154.297 39.2539H156.033C156.24 39.2539 156.446 39.4192 156.446 39.6671C156.446 39.915 156.24 40.0803 156.033 40.0803ZM152.602 40.0803H150.866C150.659 40.0803 150.453 39.915 150.453 39.6671C150.453 39.4192 150.618 39.2539 150.866 39.2539H152.602C152.809 39.2539 153.015 39.4192 153.015 39.6671C153.015 39.915 152.85 40.0803 152.602 40.0803ZM149.212 40.0803H147.476C147.27 40.0803 147.063 39.915 147.063 39.6671C147.063 39.4192 147.228 39.2539 147.476 39.2539H149.212C149.419 39.2539 149.626 39.4192 149.626 39.6671C149.626 39.915 149.46 40.0803 149.212 40.0803ZM145.823 40.0803H144.087C143.88 40.0803 143.673 39.915 143.673 39.6671C143.673 39.4192 143.839 39.2539 144.087 39.2539H145.823C146.029 39.2539 146.236 39.4192 146.236 39.6671C146.236 39.915 146.029 40.0803 145.823 40.0803ZM142.433 40.0803H140.697C140.49 40.0803 140.284 39.915 140.284 39.6671C140.284 39.4192 140.449 39.2539 140.697 39.2539H142.433C142.64 39.2539 142.847 39.4192 142.847 39.6671C142.847 39.915 142.64 40.0803 142.433 40.0803ZM139.044 40.0803H137.307C137.101 40.0803 136.894 39.915 136.894 39.6671C136.894 39.4192 137.059 39.2539 137.307 39.2539H139.044C139.25 39.2539 139.457 39.4192 139.457 39.6671C139.457 39.915 139.25 40.0803 139.044 40.0803ZM135.613 40.0803H133.876C133.67 40.0803 133.463 39.915 133.463 39.6671C133.463 39.4192 133.628 39.2539 133.876 39.2539H135.613C135.819 39.2539 136.026 39.4192 136.026 39.6671C136.026 39.915 135.861 40.0803 135.613 40.0803ZM132.223 40.0803H130.487C130.28 40.0803 130.073 39.915 130.073 39.6671C130.073 39.4192 130.239 39.2539 130.487 39.2539H132.223C132.43 39.2539 132.636 39.4192 132.636 39.6671C132.636 39.915 132.471 40.0803 132.223 40.0803Z" fill="#B4CAE3"/>
<path d="M128.833 40.0804H127.965C127.758 40.0804 127.552 39.9151 127.552 39.6672V38.7994C127.552 38.5928 127.717 38.3862 127.965 38.3862C128.213 38.3862 128.378 38.5515 128.378 38.7994V39.254H128.833C129.04 39.254 129.247 39.4192 129.247 39.6672C129.247 39.9151 129.04 40.0804 128.833 40.0804Z" fill="#B4CAE3"/>
<path d="M127.965 37.5186C127.758 37.5186 127.552 37.3533 127.552 37.1054V35.3286C127.552 35.122 127.717 34.9154 127.965 34.9154C128.213 34.9154 128.378 35.0807 128.378 35.3286V37.1054C128.378 37.3533 128.172 37.5186 127.965 37.5186ZM127.965 34.089C127.758 34.089 127.552 33.9237 127.552 33.6758V31.899C127.552 31.6924 127.717 31.4858 127.965 31.4858C128.213 31.4858 128.378 31.6511 128.378 31.899V33.6758C128.378 33.9237 128.172 34.089 127.965 34.089ZM127.965 30.6594C127.758 30.6594 127.552 30.4941 127.552 30.2462V28.4695C127.552 28.2629 127.717 28.0563 127.965 28.0563C128.213 28.0563 128.378 28.2215 128.378 28.4695V30.2462C128.378 30.4528 128.172 30.6594 127.965 30.6594ZM127.965 27.1885C127.758 27.1885 127.552 27.0232 127.552 26.7753V24.9985C127.552 24.7919 127.717 24.5853 127.965 24.5853C128.213 24.5853 128.378 24.7506 128.378 24.9985V26.7753C128.378 27.0232 128.172 27.1885 127.965 27.1885ZM127.965 23.7589C127.758 23.7589 127.552 23.5937 127.552 23.3457V21.569C127.552 21.3624 127.717 21.1558 127.965 21.1558C128.213 21.1558 128.378 21.321 128.378 21.569V23.3457C128.378 23.5937 128.172 23.7589 127.965 23.7589Z" fill="#B4CAE3"/>
<path d="M127.965 20.3294C127.758 20.3294 127.552 20.1641 127.552 19.9162V19.0485C127.552 18.8419 127.717 18.6353 127.965 18.6353H128.833C129.04 18.6353 129.247 18.8005 129.247 19.0485C129.247 19.2964 129.081 19.4617 128.833 19.4617H128.378V19.9162C128.378 20.1228 128.172 20.3294 127.965 20.3294Z" fill="#B4CAE3"/>
<path d="M162.812 19.4617H161.076C160.869 19.4617 160.663 19.2964 160.663 19.0485C160.663 18.8005 160.828 18.6353 161.076 18.6353H162.812C163.019 18.6353 163.226 18.8005 163.226 19.0485C163.226 19.2964 163.019 19.4617 162.812 19.4617ZM159.423 19.4617H157.686C157.48 19.4617 157.273 19.2964 157.273 19.0485C157.273 18.8005 157.438 18.6353 157.686 18.6353H159.423C159.629 18.6353 159.836 18.8005 159.836 19.0485C159.836 19.2964 159.629 19.4617 159.423 19.4617ZM156.033 19.4617H154.297C154.09 19.4617 153.883 19.2964 153.883 19.0485C153.883 18.8005 154.049 18.6353 154.297 18.6353H156.033C156.24 18.6353 156.446 18.8005 156.446 19.0485C156.446 19.2964 156.24 19.4617 156.033 19.4617ZM152.602 19.4617H150.866C150.659 19.4617 150.453 19.2964 150.453 19.0485C150.453 18.8005 150.618 18.6353 150.866 18.6353H152.602C152.809 18.6353 153.015 18.8005 153.015 19.0485C153.015 19.2964 152.85 19.4617 152.602 19.4617ZM149.212 19.4617H147.476C147.27 19.4617 147.063 19.2964 147.063 19.0485C147.063 18.8005 147.228 18.6353 147.476 18.6353H149.212C149.419 18.6353 149.626 18.8005 149.626 19.0485C149.626 19.2964 149.46 19.4617 149.212 19.4617ZM145.823 19.4617H144.087C143.88 19.4617 143.673 19.2964 143.673 19.0485C143.673 18.8005 143.839 18.6353 144.087 18.6353H145.823C146.029 18.6353 146.236 18.8005 146.236 19.0485C146.236 19.2964 146.029 19.4617 145.823 19.4617ZM142.433 19.4617H140.697C140.49 19.4617 140.284 19.2964 140.284 19.0485C140.284 18.8005 140.449 18.6353 140.697 18.6353H142.433C142.64 18.6353 142.847 18.8005 142.847 19.0485C142.847 19.2964 142.64 19.4617 142.433 19.4617ZM139.044 19.4617H137.307C137.101 19.4617 136.894 19.2964 136.894 19.0485C136.894 18.8005 137.059 18.6353 137.307 18.6353H139.044C139.25 18.6353 139.457 18.8005 139.457 19.0485C139.457 19.2964 139.25 19.4617 139.044 19.4617ZM135.613 19.4617H133.876C133.67 19.4617 133.463 19.2964 133.463 19.0485C133.463 18.8005 133.628 18.6353 133.876 18.6353H135.613C135.819 18.6353 136.026 18.8005 136.026 19.0485C136.026 19.2964 135.861 19.4617 135.613 19.4617ZM132.223 19.4617H130.487C130.28 19.4617 130.073 19.2964 130.073 19.0485C130.073 18.8005 130.239 18.6353 130.487 18.6353H132.223C132.43 18.6353 132.636 18.8005 132.636 19.0485C132.636 19.2964 132.471 19.4617 132.223 19.4617Z" fill="#B4CAE3"/>
<path d="M165.334 20.3294C165.127 20.3294 164.92 20.1641 164.92 19.9162V19.4617H164.466C164.259 19.4617 164.052 19.2964 164.052 19.0485C164.052 18.8005 164.218 18.6353 164.466 18.6353H165.334C165.54 18.6353 165.747 18.8005 165.747 19.0485V19.9162C165.747 20.1228 165.54 20.3294 165.334 20.3294Z" fill="#B4CAE3"/>
<path d="M165.334 37.5186C165.127 37.5186 164.92 37.3533 164.92 37.1054V35.3286C164.92 35.122 165.086 34.9154 165.334 34.9154C165.54 34.9154 165.747 35.0807 165.747 35.3286V37.1054C165.747 37.3533 165.54 37.5186 165.334 37.5186ZM165.334 34.089C165.127 34.089 164.92 33.9237 164.92 33.6758V31.899C164.92 31.6924 165.086 31.4858 165.334 31.4858C165.54 31.4858 165.747 31.6511 165.747 31.899V33.6758C165.747 33.9237 165.54 34.089 165.334 34.089ZM165.334 30.6594C165.127 30.6594 164.92 30.4941 164.92 30.2462V28.4695C164.92 28.2629 165.086 28.0563 165.334 28.0563C165.54 28.0563 165.747 28.2215 165.747 28.4695V30.2462C165.747 30.4528 165.54 30.6594 165.334 30.6594ZM165.334 27.1885C165.127 27.1885 164.92 27.0232 164.92 26.7753V24.9985C164.92 24.7919 165.086 24.5853 165.334 24.5853C165.54 24.5853 165.747 24.7506 165.747 24.9985V26.7753C165.747 27.0232 165.54 27.1885 165.334 27.1885ZM165.334 23.7589C165.127 23.7589 164.92 23.5937 164.92 23.3457V21.569C164.92 21.3624 165.086 21.1558 165.334 21.1558C165.54 21.1558 165.747 21.321 165.747 21.569V23.3457C165.747 23.5937 165.54 23.7589 165.334 23.7589Z" fill="#B4CAE3"/>
<path d="M116.432 45.659C116.225 45.659 116.019 45.4937 116.019 45.2458V43.5103C116.019 43.3037 116.184 43.0971 116.432 43.0971C116.639 43.0971 116.845 43.2624 116.845 43.5103V45.2458C116.845 45.4937 116.68 45.659 116.432 45.659ZM116.432 42.312C116.225 42.312 116.019 42.1468 116.019 41.8988V40.1634C116.019 39.9568 116.184 39.7502 116.432 39.7502C116.639 39.7502 116.845 39.9155 116.845 40.1634V41.8988C116.845 42.1054 116.68 42.312 116.432 42.312ZM116.432 38.9238C116.225 38.9238 116.019 38.7585 116.019 38.5106V36.7751C116.019 36.5685 116.184 36.3619 116.432 36.3619C116.639 36.3619 116.845 36.5272 116.845 36.7751V38.5106C116.845 38.7585 116.68 38.9238 116.432 38.9238ZM116.432 35.5768C116.225 35.5768 116.019 35.4115 116.019 35.1636V33.4282C116.019 33.2216 116.184 33.015 116.432 33.015C116.639 33.015 116.845 33.1803 116.845 33.4282V35.1636C116.845 35.3702 116.68 35.5768 116.432 35.5768ZM116.432 32.1886C116.225 32.1886 116.019 32.0233 116.019 31.7754V30.0399C116.019 29.8333 116.184 29.6267 116.432 29.6267C116.639 29.6267 116.845 29.792 116.845 30.0399V31.7754C116.845 32.0233 116.68 32.1886 116.432 32.1886ZM127.965 29.9573H127.676C127.469 29.9573 127.262 29.792 127.262 29.5441C127.262 29.2961 127.428 29.1309 127.676 29.1309H127.965C128.172 29.1309 128.378 29.2961 128.378 29.5441C128.378 29.792 128.172 29.9573 127.965 29.9573ZM126.022 29.9573H124.286C124.079 29.9573 123.873 29.792 123.873 29.5441C123.873 29.2961 124.038 29.1309 124.286 29.1309H126.022C126.229 29.1309 126.435 29.2961 126.435 29.5441C126.435 29.792 126.27 29.9573 126.022 29.9573ZM122.674 29.9573H120.938C120.731 29.9573 120.524 29.792 120.524 29.5441C120.524 29.2961 120.69 29.1309 120.938 29.1309H122.674C122.88 29.1309 123.087 29.2961 123.087 29.5441C123.087 29.792 122.88 29.9573 122.674 29.9573ZM119.284 29.9573H117.548C117.341 29.9573 117.135 29.792 117.135 29.5441C117.135 29.2961 117.3 29.1309 117.548 29.1309H119.284C119.491 29.1309 119.698 29.2961 119.698 29.5441C119.698 29.792 119.532 29.9573 119.284 29.9573Z" fill="#B4CAE3"/>
<path d="M13.793 77.1035L13.7515 77.1451L13.793 77.1035Z" fill="#9468B4"/>
<path d="M165.954 47.7248V125.448C165.954 128.671 163.35 131.233 160.167 131.233H27.6407C24.4164 131.233 21.8535 128.63 21.8535 125.448V47.7248C21.8535 44.5018 24.4577 41.9399 27.6407 41.9399H160.125C163.35 41.9399 165.954 44.5431 165.954 47.7248Z" fill="#3B3E7D"/>
<path d="M165.954 88.1362V125.407C165.954 128.63 163.35 131.192 160.167 131.192H27.6407C24.4164 131.192 21.8535 128.589 21.8535 125.407V88.1362H165.954Z" fill="#18285D"/>
<path d="M159.547 51.692V121.482C159.547 123.548 157.893 125.201 155.826 125.201H31.9811C31.113 125.201 30.3276 124.912 29.6662 124.416C29.5008 124.292 29.3355 124.126 29.2115 123.961C28.6328 123.3 28.2607 122.432 28.2607 121.482V51.692C28.2607 49.626 29.9142 47.9731 31.9811 47.9731H155.826C156.529 47.9731 157.149 48.1384 157.728 48.469C158.265 48.7582 158.678 49.2128 159.009 49.7086C159.34 50.2871 159.547 50.9482 159.547 51.692Z" fill="white"/>
<path d="M179.388 128.134V128.63C179.388 131.109 178.603 133.382 177.239 135.241C175.172 138.092 171.824 139.911 168.062 139.911H19.6627C15.9011 139.911 12.5528 138.051 10.4859 135.241C9.12183 133.382 8.33643 131.109 8.33643 128.63V128.134H179.388Z" fill="#021147"/>
<path d="M74.7231 128.134V128.258C74.7231 129.167 75.3432 129.87 76.0459 129.87H110.976C111.72 129.87 112.298 129.126 112.298 128.258V128.134H74.7231Z" fill="white"/>
<path d="M159.547 51.6918V55.8238H28.2607V51.6918C28.2607 50.9067 28.5088 50.1629 28.9221 49.5431C29.5835 48.5928 30.6996 47.9316 31.9811 47.9316H155.826C157.108 47.9316 158.224 48.5514 158.885 49.5431C159.298 50.1629 159.547 50.8654 159.547 51.6918Z" fill="#D9E4F5"/>
<path d="M127.841 53.1381H58.1886C58.0233 53.1381 57.8579 53.0141 57.8579 52.8075V51.3613C57.8579 51.196 57.9819 51.0308 58.1886 51.0308H127.841C128.007 51.0308 128.172 51.1547 128.172 51.3613V52.8075C128.131 52.9728 128.007 53.1381 127.841 53.1381Z" fill="white"/>
<path d="M41.075 52.0639V52.849C41.075 53.0556 40.827 53.2208 40.6616 53.0969L40.0002 52.725L39.3389 52.3531C39.1322 52.2291 39.1322 51.9812 39.3389 51.8573L40.0002 51.4854L40.6616 51.1135C40.8683 50.9895 41.075 51.1548 41.075 51.3614V52.0639Z" fill="#3B3E7D"/>
<path d="M44.5889 52.0639V52.849C44.5889 53.0556 44.8369 53.2208 45.0022 53.0969L45.6636 52.725L46.325 52.3531C46.5317 52.2291 46.5317 51.9812 46.325 51.8573L45.6636 51.4854L45.0022 51.1135C44.7956 50.9895 44.5889 51.1548 44.5889 51.3614V52.0639Z" fill="#3B3E7D"/>
<path d="M158.885 49.5431H28.9221C29.5835 48.5928 30.6996 47.9316 31.981 47.9316H155.826C157.066 47.973 158.182 48.5928 158.885 49.5431Z" fill="#B9D2F0"/>
<path d="M106.966 38.3037H73.5657C71.2922 38.3037 69.4734 36.4856 69.4734 34.213V33.3866C69.4734 31.114 71.2922 29.2959 73.5657 29.2959H106.966C109.239 29.2959 111.058 31.114 111.058 33.3866V34.213C111.058 36.4856 109.239 38.3037 106.966 38.3037Z" fill="#BA68C8"/>
<path d="M106.594 31.1143C105.106 31.1143 103.907 32.3125 103.907 33.8001C103.907 35.2876 105.106 36.4859 106.594 36.4859C108.082 36.4859 109.281 35.2876 109.281 33.8001C109.281 32.3125 108.082 31.1143 106.594 31.1143ZM106.718 34.7918V33.8414H107.917C107.917 34.172 107.875 34.5025 107.793 34.7918H106.718ZM107.462 35.8661C107.669 35.6182 107.834 35.3289 107.917 34.9984H108.743C108.413 35.6182 107.834 36.0314 107.131 36.1966C107.255 36.114 107.379 35.99 107.462 35.8661ZM107.71 34.9984C107.627 35.2463 107.462 35.4942 107.297 35.7008C107.049 36.0314 106.801 36.1966 106.718 36.238V34.9984H107.71ZM106.718 32.4778V31.3209C106.759 31.3209 106.801 31.3209 106.801 31.3209C106.925 31.4448 107.338 31.8167 107.627 32.4778H106.718ZM107.875 32.4778C107.793 32.2299 107.669 32.0233 107.503 31.8167C107.379 31.6514 107.297 31.5275 107.173 31.4035C107.793 31.5688 108.33 31.9407 108.661 32.4778H107.875ZM106.718 33.6348V32.6844H107.751C107.875 32.9737 107.917 33.3042 107.958 33.6348H106.718ZM108.165 33.6348C108.165 33.3042 108.082 33.015 107.999 32.6844H108.826C108.991 32.9737 109.074 33.3042 109.074 33.6348H108.165ZM109.074 33.8414C109.074 34.172 108.991 34.5025 108.867 34.7918H107.999C108.082 34.5025 108.123 34.172 108.123 33.8414H109.074ZM105.23 34.7918H104.362C104.238 34.5025 104.155 34.172 104.155 33.8414H105.106C105.106 34.172 105.147 34.5025 105.23 34.7918ZM105.602 32.4778C105.684 32.3125 105.767 32.1059 105.891 31.9407C106.098 31.6101 106.346 31.4035 106.429 31.3209C106.47 31.3209 106.47 31.3209 106.511 31.3209V32.4778H105.602ZM106.511 32.7257V33.6761H105.312C105.312 33.3456 105.395 33.0563 105.478 32.7257H106.511ZM104.527 32.4778C104.858 31.9407 105.436 31.5275 106.057 31.4035C105.932 31.5275 105.808 31.6927 105.726 31.8167C105.602 32.0233 105.478 32.2299 105.354 32.4778H104.527ZM106.511 33.8414V34.7918H105.478C105.395 34.5025 105.354 34.172 105.354 33.8414H106.511ZM104.155 33.6348C104.196 33.3042 104.279 32.9737 104.403 32.6844H105.271C105.188 32.9737 105.106 33.3042 105.106 33.6348H104.155ZM105.312 34.9984C105.436 35.3289 105.602 35.6182 105.767 35.8661C105.85 35.99 105.974 36.114 106.098 36.238C105.395 36.0727 104.816 35.6595 104.444 35.0397H105.312V34.9984ZM106.511 34.9984V36.238C106.346 36.1553 105.85 35.7834 105.56 34.9984H106.511Z" fill="white"/>
<path d="M99.8558 31.238C101.261 31.238 102.419 32.3949 102.419 33.7998C102.419 35.2047 101.261 36.3617 99.8558 36.3617H74.0616C72.6562 36.3617 71.4988 35.2047 71.4988 33.7998C71.4988 32.3949 72.6562 31.238 74.0616 31.238H99.8558ZM99.8558 30.9487H74.0616C72.4908 30.9487 71.2507 32.2297 71.2507 33.7585C71.2507 35.3287 72.5322 36.5683 74.0616 36.5683H99.8558C101.427 36.5683 102.667 35.2874 102.667 33.7585C102.667 32.2297 101.385 30.9487 99.8558 30.9487Z" fill="white"/>
<path d="M145.244 64.8728V111.813C145.244 113.465 143.88 114.829 142.226 114.829H46.8621C45.2086 114.829 43.8445 113.465 43.8445 111.813V64.8728C43.8445 63.22 45.2086 61.8564 46.8621 61.8564H142.226C143.88 61.8564 145.244 63.22 145.244 64.8728Z" fill="#D9E4F5"/>
<path d="M145.244 64.8728V67.0628H43.8445V64.8728C43.8445 63.22 45.2086 61.8564 46.8621 61.8564H142.226C143.88 61.8564 145.244 63.22 145.244 64.8728Z" fill="#B4CAE3"/>
<path d="M135.488 64.4183C135.488 64.9967 135.034 65.4513 134.455 65.4513C133.876 65.4513 133.421 64.9967 133.421 64.4183C133.421 63.8398 133.876 63.3853 134.455 63.3853C135.034 63.4266 135.488 63.8811 135.488 64.4183Z" fill="#3B3E7D"/>
<path d="M138.795 64.4183C138.795 64.9967 138.341 65.4513 137.762 65.4513C137.183 65.4513 136.729 64.9967 136.729 64.4183C136.729 63.8398 137.183 63.3853 137.762 63.3853C138.341 63.4266 138.795 63.8811 138.795 64.4183Z" fill="#9468B4"/>
<path d="M142.061 64.4183C142.061 64.9967 141.606 65.4513 141.028 65.4513C140.449 65.4513 139.994 64.9967 139.994 64.4183C139.994 63.8398 140.449 63.3853 141.028 63.3853C141.606 63.4266 142.061 63.8811 142.061 64.4183Z" fill="#BA68C8"/>
<path d="M56.8245 82.2684H50.5826C49.5079 82.2684 48.6812 81.4006 48.6812 80.3676V74.1283C48.6812 73.0539 49.5492 72.2275 50.5826 72.2275H56.8245C57.8993 72.2275 58.726 73.0953 58.726 74.1283V80.3676C58.726 81.4006 57.8579 82.2684 56.8245 82.2684Z" fill="#B4CAE3"/>
<path d="M55.4602 80.8226H49.2184C48.1436 80.8226 47.3169 79.9548 47.3169 78.9218V72.6825C47.3169 71.6081 48.185 70.7817 49.2184 70.7817H55.4602C56.535 70.7817 57.3617 71.6495 57.3617 72.6825V78.9218C57.4031 79.9548 56.535 80.8226 55.4602 80.8226Z" fill="#BA68C8"/>
<path d="M54.2201 74.8719L51.4918 75.8223L54.2201 76.7727V78.3015L49.5903 76.6074V74.9959L54.2201 73.3018V74.8719Z" fill="white"/>
<path d="M73.4004 82.2684H67.1586C66.0838 82.2684 65.2571 81.4006 65.2571 80.3676V74.1283C65.2571 73.0539 66.1252 72.2275 67.1586 72.2275H73.4004C74.4752 72.2275 75.3019 73.0953 75.3019 74.1283V80.3676C75.3019 81.4006 74.4752 82.2684 73.4004 82.2684Z" fill="#B4CAE3"/>
<path d="M72.0777 80.8226H65.8358C64.7611 80.8226 63.9343 79.9548 63.9343 78.9218V72.6825C63.9343 71.6081 64.8024 70.7817 65.8358 70.7817H72.0777C73.1524 70.7817 73.9792 71.6495 73.9792 72.6825V78.9218C73.9792 79.9548 73.1111 80.8226 72.0777 80.8226Z" fill="#BA68C8"/>
<path d="M69.2252 72.5581H70.6306L68.3571 79.0867H66.9517L69.2252 72.5581Z" fill="white"/>
<path d="M89.3978 82.2684H83.1559C82.0811 82.2684 81.2544 81.4006 81.2544 80.3676V74.1283C81.2544 73.0539 82.1225 72.2275 83.1559 72.2275H89.3978C90.4725 72.2275 91.2992 73.0953 91.2992 74.1283V80.3676C91.2992 81.4006 90.4725 82.2684 89.3978 82.2684Z" fill="#B4CAE3"/>
<path d="M88.075 80.8226H81.8331C80.7584 80.8226 79.9316 79.9548 79.9316 78.9218V72.6825C79.9316 71.6081 80.7997 70.7817 81.8331 70.7817H88.075C89.1498 70.7817 89.9765 71.6495 89.9765 72.6825V78.9218C89.9765 79.9548 89.1498 80.8226 88.075 80.8226Z" fill="#BA68C8"/>
<path d="M82.7014 73.3433L87.3311 75.0374V76.6489L82.7014 78.343V76.8142L85.4296 75.8638L82.7014 74.9134V73.3433Z" fill="white"/>
<path d="M139.25 110.449H133.008C131.933 110.449 131.106 109.581 131.106 108.548V102.309C131.106 101.235 131.975 100.408 133.008 100.408H139.25C140.325 100.408 141.151 101.276 141.151 102.309V108.548C141.151 109.581 140.283 110.449 139.25 110.449Z" fill="#B4CAE3"/>
<path d="M137.886 109.003H131.644C130.569 109.003 129.742 108.135 129.742 107.102V100.863C129.742 99.7883 130.611 98.9619 131.644 98.9619H137.886C138.961 98.9619 139.787 99.8296 139.787 100.863V107.102C139.829 108.135 138.961 109.003 137.886 109.003Z" fill="#BA68C8"/>
<path d="M134.703 100.697C132.884 100.697 131.437 102.185 131.437 103.962C131.437 105.78 132.925 107.226 134.703 107.226C136.522 107.226 137.968 105.738 137.968 103.962C137.968 102.185 136.522 100.697 134.703 100.697ZM134.827 105.201V104.044H136.315C136.315 104.457 136.232 104.829 136.15 105.201H134.827ZM135.736 106.523C135.984 106.234 136.15 105.862 136.315 105.49H137.307C136.894 106.234 136.191 106.771 135.364 106.937C135.488 106.813 135.654 106.647 135.736 106.523ZM136.026 105.449C135.902 105.78 135.736 106.069 135.53 106.317C135.199 106.73 134.91 106.937 134.786 106.978V105.449H136.026ZM134.827 102.391V100.987C134.868 100.987 134.91 100.987 134.951 100.987C135.116 101.11 135.612 101.606 135.984 102.391H134.827ZM136.274 102.391C136.15 102.102 136.026 101.854 135.819 101.606C135.695 101.441 135.571 101.234 135.406 101.11C136.15 101.276 136.811 101.772 137.224 102.433H136.274V102.391ZM134.827 103.796V102.639H136.067C136.191 103.011 136.274 103.383 136.315 103.796H134.827ZM136.563 103.796C136.563 103.424 136.48 103.011 136.356 102.639H137.39C137.555 103.011 137.679 103.383 137.72 103.796H136.563ZM137.72 104.044C137.72 104.457 137.638 104.829 137.472 105.201H136.398C136.48 104.829 136.563 104.457 136.563 104.044H137.72ZM133.008 105.201H131.933C131.768 104.829 131.685 104.457 131.685 104.044H132.843C132.843 104.457 132.925 104.829 133.008 105.201ZM133.463 102.391C133.545 102.185 133.669 101.937 133.835 101.73C134.124 101.317 134.372 101.069 134.496 100.987C134.538 100.987 134.538 100.987 134.579 100.987V102.391H133.463ZM134.579 102.639V103.796H133.132C133.132 103.424 133.215 103.011 133.339 102.639H134.579ZM132.14 102.391C132.553 101.73 133.256 101.234 134 101.069C133.835 101.234 133.711 101.4 133.587 101.606C133.421 101.854 133.256 102.143 133.132 102.391H132.14ZM134.579 104.044V105.201H133.297C133.173 104.829 133.132 104.457 133.132 104.044H134.579ZM131.685 103.796C131.727 103.383 131.809 103.011 132.016 102.639H133.091C132.967 103.011 132.884 103.383 132.884 103.796H131.685ZM133.091 105.449C133.215 105.821 133.421 106.193 133.669 106.482C133.793 106.647 133.917 106.771 134.083 106.895C133.256 106.73 132.512 106.193 132.099 105.408H133.091V105.449ZM134.579 105.449V106.978C134.372 106.854 133.752 106.399 133.38 105.449H134.579Z" fill="white"/>
<path d="M90.1832 87.6401H48.4743C47.8543 87.6401 47.3169 87.1029 47.3169 86.4831C47.3169 85.8633 47.8543 85.3262 48.4743 85.3262H90.1419C90.7619 85.3262 91.2993 85.8633 91.2993 86.4831C91.2993 87.1443 90.8032 87.6401 90.1832 87.6401Z" fill="#B4CAE3"/>
<path d="M90.1832 91.9375H48.4743C47.8543 91.9375 47.3169 91.4003 47.3169 90.7805C47.3169 90.1607 47.8543 89.6235 48.4743 89.6235H90.1419C90.7619 89.6235 91.2993 90.1607 91.2993 90.7805C91.2993 91.4003 90.8032 91.9375 90.1832 91.9375Z" fill="#B4CAE3"/>
<path d="M90.1832 96.1934H48.4743C47.8543 96.1934 47.3169 95.6562 47.3169 95.0364C47.3169 94.4166 47.8543 93.8794 48.4743 93.8794H90.1419C90.7619 93.8794 91.2993 94.4166 91.2993 95.0364C91.2993 95.6975 90.8032 96.1934 90.1832 96.1934Z" fill="#B4CAE3"/>
<path d="M90.1832 100.491H48.4743C47.8543 100.491 47.3169 99.9535 47.3169 99.3337C47.3169 98.7139 47.8543 98.1768 48.4743 98.1768H90.1419C90.7619 98.1768 91.2993 98.7139 91.2993 99.3337C91.2993 99.9948 90.8032 100.491 90.1832 100.491Z" fill="#B4CAE3"/>
<path d="M90.1832 104.788H48.4743C47.8543 104.788 47.3169 104.251 47.3169 103.631C47.3169 103.011 47.8543 102.474 48.4743 102.474H90.1419C90.7619 102.474 91.2993 103.011 91.2993 103.631C91.2993 104.251 90.8032 104.788 90.1832 104.788Z" fill="#B4CAE3"/>
<path d="M90.1832 109.044H48.4743C47.8543 109.044 47.3169 108.507 47.3169 107.887C47.3169 107.267 47.8543 106.73 48.4743 106.73H90.1419C90.7619 106.73 91.2993 107.267 91.2993 107.887C91.2993 108.548 90.8032 109.044 90.1832 109.044Z" fill="#B4CAE3"/>
<path d="M125.939 98.1772H97.5411C96.921 98.1772 96.3423 98.6731 96.3423 99.2929C96.3423 99.954 96.8383 100.491 97.4997 100.491H125.939C126.56 100.491 127.097 99.954 127.097 99.3342C127.097 98.7144 126.601 98.1772 125.939 98.1772Z" fill="#B4CAE3"/>
<path d="M125.939 102.474H97.5411C96.921 102.474 96.3423 102.97 96.3423 103.59C96.3423 104.251 96.8383 104.788 97.4997 104.788H125.939C126.56 104.788 127.097 104.251 127.097 103.631C127.097 102.97 126.601 102.474 125.939 102.474Z" fill="#B4CAE3"/>
<path d="M125.939 106.73H97.5411C96.921 106.73 96.3423 107.226 96.3423 107.846C96.3423 108.507 96.8383 109.044 97.4997 109.044H125.939C126.56 109.044 127.097 108.507 127.097 107.887C127.097 107.268 126.601 106.73 125.939 106.73Z" fill="#B4CAE3"/>
<path d="M139.829 72.1861V93.6314C139.829 93.6727 139.829 93.714 139.829 93.7553C139.788 94.0032 139.746 94.2098 139.622 94.4165C139.374 94.7883 139.002 95.0363 138.548 95.0363H97.5414C97.0453 95.0363 96.632 94.7057 96.4253 94.2512C96.3426 94.0446 96.3013 93.838 96.3013 93.6314V72.1861C96.3013 72.0209 96.3426 71.8556 96.3839 71.6903C96.4666 71.4837 96.5906 71.2771 96.756 71.1118C96.9627 70.9052 97.252 70.7812 97.5827 70.7812H138.589C138.837 70.7812 139.085 70.8639 139.292 70.9879C139.457 71.1118 139.622 71.3184 139.746 71.525C139.746 71.7316 139.829 71.9795 139.829 72.1861Z" fill="#B4CAE3"/>
<path d="M139.787 93.7968C139.746 94.0448 139.705 94.2514 139.581 94.458L117.838 83.0122L117.093 82.6404L96.301 71.7318C96.3837 71.5252 96.5077 71.3186 96.6731 71.1533L117.838 82.2685L118.582 82.6404L139.787 93.7968Z" fill="#D9E4F5"/>
<path d="M139.663 71.5251L118.582 82.599L117.838 82.9709L96.3838 94.2513C96.3011 94.0447 96.2598 93.8381 96.2598 93.6315V93.5902L117.135 82.6403L117.879 82.2684L139.25 71.0293C139.415 71.1533 139.581 71.3185 139.663 71.5251Z" fill="#D9E4F5"/>
<path d="M22.8456 111.11L20.4481 112.598C19.4147 111.937 18.2572 111.565 17.0585 111.482C16.8518 110.904 16.7278 110.242 16.7278 109.499C16.7278 103.549 21.3988 92.5986 21.3988 92.5986L20.9855 104.871C20.6548 107.97 21.6469 109.912 22.8456 111.11Z" fill="#9468B4"/>
<path d="M29.7076 106.895L20.4481 112.598C18.1332 111.151 15.1157 111.069 12.6354 112.598C9.53518 114.498 8.33641 118.3 9.61786 121.564C9.7832 121.977 9.98989 122.391 10.2379 122.804C12.3874 126.275 16.9345 127.349 20.4068 125.2C21.6469 124.457 22.5563 123.382 23.1763 122.143C23.7551 120.944 24.0031 119.581 23.9204 118.217L56.4938 98.1356L56.8659 98.7554L64.8852 98.5075L68.6882 91.483L68.7295 91.4417L68.0681 90.1608L66.0013 91.1938L65.5879 91.4004L65.2572 91.5243L63.0664 95.5324L58.478 95.6564L57.2792 93.7143L56.0805 91.7723L56.1631 91.6483L58.2713 87.7642L62.8597 87.6402L64.5132 84.5825L63.1491 84.6238L56.4938 84.8304L52.6908 91.8962L53.0629 92.516L29.7076 106.895ZM18.4639 115.325L19.8694 117.556L20.6135 118.713L18.712 122.267L14.7023 122.391L12.5941 118.961L12.6768 118.837L14.5369 115.407L18.4639 115.325Z" fill="#9468B4"/>
<path d="M29.7076 106.896L20.4481 112.598C18.1332 111.152 15.1157 111.069 12.6354 112.598C9.53518 114.499 8.33641 118.3 9.61786 121.565C11.7674 124.994 16.3144 126.027 19.7454 123.92C20.9855 123.176 21.8949 122.102 22.5149 120.862C23.0937 119.664 23.3417 118.3 23.259 116.937L55.8324 96.855L56.2045 97.4748L64.2238 97.2269L67.3241 91.4834L68.0268 90.1611L64.5545 90.2438L62.3637 94.2518L57.7753 94.3758L56.5765 92.4337L56.0805 91.6487L55.3364 90.4917L57.5272 86.4836L62.1156 86.3597L63.025 84.6655L56.3698 84.8721L52.5668 91.9379L52.9389 92.5577L29.7076 106.896ZM17.8025 114.044L19.9107 117.474L19.8281 117.598L18.0092 121.027L13.9996 121.151L12.5941 118.92L11.85 117.763L13.7515 114.21L17.8025 114.044Z" fill="#BA68C8"/>
<path d="M34.0894 81.7727C34.0894 82.5165 34.7094 83.1363 35.4535 83.1363C36.1975 83.1363 36.8176 82.5165 36.8176 81.7727C36.8176 81.6901 36.8176 81.5661 36.7762 81.4835C36.7762 81.4009 36.7349 81.3182 36.6936 81.2356C36.4869 80.7397 35.9908 80.4092 35.4121 80.4092C35.3295 80.4092 35.2468 80.4092 35.1641 80.4505C34.9988 80.4918 34.8748 80.5331 34.7507 80.6158C34.3787 80.7811 34.0894 81.2356 34.0894 81.7727ZM34.296 81.7727C34.296 81.2769 34.6267 80.8224 35.0814 80.6571C35.2054 80.6158 35.3295 80.6158 35.4535 80.6158C35.5361 80.6158 35.6188 80.6158 35.7015 80.6571C35.9082 80.6984 36.0735 80.8224 36.2389 80.9463C36.4042 81.0703 36.4869 81.2769 36.5696 81.4835C36.6109 81.5661 36.6109 81.6901 36.6109 81.7727C36.6109 82.4339 36.0735 82.9297 35.4535 82.9297C34.8334 82.9297 34.296 82.3926 34.296 81.7727Z" fill="#BA68C8"/>
<path d="M28.5088 85.9463V88.6734C28.5088 88.6734 29.3355 90.0783 30.4103 90.161C31.5264 90.2436 32.4771 88.9627 32.4771 88.9627V86.1116L28.5088 85.9463Z" fill="#FB9A83"/>
<path d="M31.4023 86.6074C31.4023 86.6074 31.5677 87.5578 32.5184 87.9297V86.6901L31.4023 86.6074Z" fill="#FF6D6B"/>
<path d="M32.1876 87.1446C28.0539 88.3016 26.6898 85.1199 26.1524 83.0952C26.0697 82.8886 26.0284 82.6407 25.987 82.3515V82.3102C25.9457 82.0209 25.863 81.6904 25.8217 81.3598C25.7804 81.1119 25.7804 80.8639 25.739 80.616C25.6977 79.9962 25.6563 79.4177 25.615 78.8806C25.5737 77.641 26.2764 76.5253 27.4338 76.0708C29.0873 75.451 31.6089 74.9138 33.9651 76.2774C34.8331 76.7732 35.4118 77.6823 35.4118 78.7153C35.4118 78.7153 35.8252 80.3268 35.6185 81.0705C35.4118 81.8143 35.3705 82.0209 35.3292 82.9713C35.2465 83.9216 34.7091 86.2769 34.1304 86.7314C33.593 87.2686 32.1876 87.1446 32.1876 87.1446Z" fill="#FB9A83"/>
<path d="M33.7171 82.8883C33.6758 82.8883 33.6345 82.847 33.6345 82.7644C33.5931 81.8966 32.8077 81.3595 32.8077 81.3595C32.7664 81.3181 32.7251 81.2355 32.7664 81.1942C32.8077 81.1529 32.8904 81.1115 32.9317 81.1529C32.9731 81.1942 33.8411 81.7727 33.8825 82.7644C33.8825 82.8057 33.8411 82.8883 33.7171 82.8883C33.7585 82.8883 33.7585 82.8883 33.7171 82.8883Z" fill="#FF6D6B"/>
<path d="M32.9731 82.2683C32.9317 82.2683 32.9317 82.2683 32.8904 82.227C32.849 82.1857 32.849 82.103 32.8904 82.0617C32.8904 82.0617 33.0971 81.8551 33.4691 81.7725C33.5518 81.7725 33.5931 81.8138 33.6344 81.8551C33.6344 81.9377 33.5931 81.9791 33.5518 82.0204C33.2624 82.0617 33.1384 82.227 33.1384 82.227C33.0557 82.2683 33.0144 82.2683 32.9731 82.2683Z" fill="#FF6D6B"/>
<path d="M25.4498 80.8635C25.6152 83.0535 26.5659 85.4087 26.5659 85.4087C27.5993 87.7227 29.5422 87.3095 30.6169 86.9789C31.4023 86.731 32.4357 85.9046 32.8491 85.4914C33.1798 85.2021 33.3865 84.7476 33.4692 84.3757C33.5518 84.0865 33.3452 83.8386 33.0558 83.7972C32.5598 83.7559 32.0637 83.3427 31.9397 82.1858C31.733 80.2437 33.0558 80.2437 33.0558 80.2437C33.8412 80.1611 34.2546 81.1527 34.2546 81.1527C34.2546 81.1527 34.7506 80.5329 34.6266 79.4586C34.5439 78.5496 35.4533 79.2107 35.4533 79.2107C35.4533 79.2107 36.7348 78.095 36.7761 76.9794C36.8175 75.8638 36.1561 75.8224 35.5773 75.5332C34.9986 75.2439 36.3214 74.2109 35.7014 73.6325C35.04 73.0953 34.3372 73.0126 33.7999 73.3019C33.2625 73.5911 33.0971 72.1449 32.3117 72.1449C31.5263 72.1036 30.989 73.0127 30.4516 72.6408C29.9142 72.2689 28.4674 71.773 27.806 72.8474C27.1446 73.9217 26.9793 74.2109 26.4419 74.2523C25.9045 74.2936 24.4577 75.3266 24.7471 76.9794C25.1191 78.6735 25.3671 79.5826 25.4498 80.8635Z" fill="#021147"/>
<path d="M33.4277 80.2442C33.5517 80.2856 33.6758 80.3682 33.7998 80.4508C34.0478 80.4095 34.3371 80.4508 34.6265 80.4922C34.7092 80.4922 34.7505 80.5335 34.8332 80.5335C34.9159 80.5748 35.0399 80.6161 35.1225 80.6161C35.3292 80.6988 35.5359 80.7814 35.7013 80.864C36.0733 81.0706 36.404 81.2773 36.6107 81.4012C36.7347 81.4839 36.776 81.5252 36.776 81.5252L36.8174 81.4012C36.8174 81.3186 36.776 81.2359 36.7347 81.1533C36.6107 81.0706 36.4453 80.988 36.28 80.864C36.1146 80.7814 35.9493 80.6574 35.7426 80.5748C35.7426 80.5748 35.7426 80.5748 35.7013 80.5748C35.5359 80.4922 35.3706 80.4095 35.2052 80.3682C35.0399 80.2856 34.8332 80.2442 34.6678 80.2029C34.2545 80.1616 33.8411 80.1616 33.4277 80.2442Z" fill="#BA68C8"/>
<path d="M41.7787 161.727C40.4146 162.595 38.1824 162.099 38.1824 162.099C38.4304 162.058 36.2395 145.612 35.9502 143.133C35.7022 140.861 32.8499 134.208 31.6511 130.448C31.5685 130.2 31.4858 129.952 31.4445 129.704C31.3618 129.374 31.2791 129.043 31.1964 128.754C30.6591 126.894 30.3284 125.737 30.3284 125.737L38.2237 124.002C38.4717 124.87 38.6784 125.779 38.8851 126.646C38.9264 126.853 38.9678 127.018 39.0091 127.225C39.0504 127.349 39.0504 127.473 39.0918 127.597C43.9282 148.133 41.7787 161.727 41.7787 161.727Z" fill="#3B3E7D"/>
<path d="M38.9672 127.184C36.239 128.175 33.5934 128.63 31.1132 128.754C30.5758 126.894 30.2451 125.737 30.2451 125.737L38.1405 124.002C38.3885 124.87 38.5952 125.779 38.8018 126.646C38.8845 126.812 38.9259 126.977 38.9672 127.184Z" fill="#18285D"/>
<path d="M29.8731 124.952C29.8317 125.861 29.8317 126.77 29.7904 127.68C29.7904 128.051 29.7491 128.423 29.7491 128.795C29.7077 129.456 29.6664 130.117 29.6251 130.779C29.253 136.15 28.4676 142.183 27.8889 145.199C27.5169 147.224 22.8045 162.223 22.8045 162.223C21.275 162.636 19.2908 161.603 19.2495 161.562C19.5389 161.562 21.4817 143.547 22.1018 142.224C22.4738 141.398 22.1431 139.208 21.8537 129.911C21.8537 129.498 21.8124 129.043 21.8124 128.589C21.8124 128.299 21.8124 128.01 21.8124 127.721C21.7711 125.737 21.8537 124.457 21.8537 124.457L29.8731 124.952Z" fill="#3B3E7D"/>
<path d="M21.7708 124.415L29.8315 124.952C29.7902 125.861 29.7902 126.77 29.7488 127.679C29.7488 128.051 29.7075 128.423 29.7075 128.795C26.5659 128.795 23.7963 128.258 21.7708 127.679C21.7295 125.655 21.7708 124.415 21.7708 124.415Z" fill="#18285D"/>
<path d="M38.9669 124.457C38.9669 124.457 34.1305 126.358 29.8315 126.358C25.5325 126.358 21.3988 125.986 21.3988 125.986C21.3988 125.986 21.0267 119.498 20.8201 112.226C20.8201 111.772 20.7787 111.276 20.7787 110.78C20.7787 110.243 20.7374 109.706 20.7374 109.168C20.7374 108.673 20.696 108.218 20.696 107.722C20.696 107.102 20.6547 106.483 20.6547 105.904C20.6547 105.408 20.6547 104.954 20.6134 104.458C20.5307 99.0036 20.2827 94.0452 21.1508 92.9295C22.9696 90.6569 28.426 88.3843 28.426 88.3843C29.6248 88.7148 30.9889 88.8388 32.5597 88.6735C32.5597 88.6735 35.6186 90.9875 37.7682 92.5576C39.463 93.7972 38.1402 98.2185 38.2229 104.251C38.2229 104.706 38.2229 105.202 38.2642 105.656C38.2642 105.821 38.2642 105.945 38.2642 106.111C38.2642 106.524 38.2642 106.978 38.3055 107.474C38.3055 107.929 38.3469 108.383 38.3469 108.879C38.3469 109.375 38.3882 109.912 38.3882 110.491C38.3882 110.945 38.4295 111.441 38.4295 111.896C38.6776 117.804 38.9669 124.457 38.9669 124.457Z" fill="#9468B4"/>
<path d="M28.5084 91.5245C31.1953 91.7724 32.9314 90.3675 33.0141 90.2848C33.0968 90.2435 33.0968 90.1196 33.0554 90.0782C33.0141 89.9956 32.8901 89.9956 32.8487 90.0369C32.8487 90.0369 30.7819 91.6897 27.847 91.1112C27.7643 91.1112 27.6816 91.1526 27.6816 91.2352C27.6816 91.3179 27.723 91.4005 27.8057 91.4005C27.971 91.4831 28.2604 91.5245 28.5084 91.5245Z" fill="#BA68C8"/>
<path d="M38.3054 105.739C34.6265 106.441 31.3609 106.689 28.5913 106.689C24.9123 106.689 22.1841 106.276 20.6546 105.945C20.6546 105.449 20.6546 104.995 20.6133 104.499C22.9281 104.995 29.5007 106.028 38.2228 104.292C38.3054 104.788 38.3054 105.243 38.3054 105.739Z" fill="#BA68C8"/>
<path d="M38.3882 108.961C34.6679 109.664 31.4023 109.912 28.5914 109.912C24.9537 109.912 22.2668 109.499 20.7374 109.168C20.7374 108.672 20.696 108.218 20.696 107.722C23.0522 108.218 29.6248 109.251 38.3469 107.515C38.3882 107.97 38.3882 108.466 38.3882 108.961Z" fill="#BA68C8"/>
<path d="M38.512 111.937C34.7503 112.68 31.4434 112.928 28.6325 112.928C25.0775 112.928 22.3906 112.515 20.8612 112.226C20.8612 111.771 20.8198 111.276 20.8198 110.78C23.2587 111.276 29.7899 112.267 38.4706 110.532C38.4706 110.986 38.4706 111.482 38.512 111.937Z" fill="#BA68C8"/>
<path d="M38.2228 92.9707C38.2228 92.9707 45.7875 104.706 47.0276 103.921C48.8877 102.764 50.4999 101.772 50.4999 101.772L52.2773 100.656C52.2773 100.656 51.2026 107.515 47.0689 108.92C44.4647 109.788 37.3547 100.863 37.3547 100.863C37.3547 100.863 37.3547 94.8301 38.2228 92.9707Z" fill="#9468B4"/>
<path d="M114.2 117.184C106.139 106.358 101.055 96.3589 101.055 96.3589L101.303 103.838C101.303 103.838 108.95 116.193 111.348 118.755C112.34 118.755 114.2 118.424 114.2 117.184Z" fill="#BA68C8"/>
<path d="M94.2339 94.5405C94.2339 94.5405 92.9111 94.9124 91.6297 95.2016C90.4309 95.4909 89.7695 95.8628 89.7695 95.8628C89.7695 95.8628 89.6455 107.226 89.7695 110.697C89.8935 114.168 88.7774 117.308 88.9841 119.333C88.9841 119.333 98.8636 120.035 100.972 119.209C100.972 119.209 100.145 110.325 101.096 107.846C102.047 105.325 102.501 103.548 102.295 102.515C101.716 99.8708 101.054 99.4576 101.22 97.0197C101.385 94.5818 94.2339 94.5405 94.2339 94.5405Z" fill="#9468B4"/>
<path d="M98.4918 98.6726C95.8049 98.6726 94.1928 97.1025 94.1101 97.0198C94.0688 96.9785 94.0688 96.8545 94.1101 96.8132C94.1514 96.7719 94.2755 96.7719 94.3168 96.8132C94.3168 96.8132 96.2183 98.6726 99.1945 98.3421C99.2772 98.3421 99.3599 98.3834 99.3599 98.466C99.3599 98.5487 99.3186 98.6313 99.2359 98.6313C98.9879 98.6726 98.7398 98.6726 98.4918 98.6726Z" fill="#BA68C8"/>
<path d="M92.1258 112.846C92.0431 112.846 91.9604 112.763 91.9604 112.68C91.9604 112.598 92.0431 112.515 92.1258 112.515C92.1671 112.515 96.2595 112.308 99.0291 108.631C99.0704 108.548 99.1944 108.548 99.2357 108.59C99.3184 108.631 99.3184 108.755 99.2771 108.796C96.3835 112.639 92.1671 112.846 92.1258 112.846Z" fill="#BA68C8"/>
<path d="M91.9606 114.292C91.6299 114.292 91.4646 114.292 91.4646 114.292C91.3819 114.292 91.3406 114.209 91.3406 114.127C91.3406 114.044 91.4232 114.003 91.5059 114.003C91.5473 114.003 95.5983 114.416 98.9052 111.152C98.9465 111.11 99.0706 111.11 99.1119 111.152C99.1532 111.193 99.1532 111.317 99.1119 111.358C96.425 114.003 93.2007 114.292 91.9606 114.292Z" fill="#BA68C8"/>
<path d="M131.355 125.035L133.959 125.944L133.049 128.341L130.239 127.514L131.355 125.035Z" fill="#FB9A83"/>
<path d="M133.545 126.275C133.545 126.275 132.967 125.407 133.173 124.952C133.38 124.498 137.555 121.936 138.258 120.82C138.961 119.663 139.746 120.242 140.159 120.655C140.531 121.068 136.398 130.407 136.398 130.407C136.398 130.407 133.463 129.622 132.677 129.002C131.892 128.341 133.421 127.349 133.545 126.275Z" fill="#BA68C8"/>
<path d="M136.274 125.035C136.274 125.077 136.232 125.118 136.191 125.159C136.108 125.242 135.984 125.201 135.943 125.118C135.902 125.077 135.406 124.457 135.323 123.878C135.24 123.093 135.819 122.68 135.819 122.68C135.902 122.639 136.026 122.639 136.067 122.721C136.108 122.804 136.108 122.928 136.026 122.969C136.026 122.969 135.612 123.258 135.695 123.837C135.736 124.333 136.232 124.87 136.232 124.87C136.274 124.953 136.274 124.994 136.274 125.035Z" fill="white"/>
<path d="M135.612 125.366C135.612 125.407 135.571 125.448 135.529 125.49C135.447 125.572 135.323 125.531 135.281 125.448C135.24 125.407 134.744 124.787 134.661 124.209C134.579 123.424 135.157 123.011 135.157 123.011C135.24 122.969 135.364 122.969 135.405 123.052C135.447 123.134 135.447 123.258 135.364 123.3C135.364 123.3 134.951 123.589 135.033 124.168C135.075 124.663 135.571 125.201 135.571 125.201C135.571 125.283 135.612 125.324 135.612 125.366Z" fill="white"/>
<path d="M136.935 124.498C136.935 124.539 136.894 124.581 136.852 124.622C136.77 124.705 136.646 124.663 136.604 124.581C136.563 124.539 136.067 123.92 135.984 123.341C135.901 122.556 136.48 122.143 136.48 122.143C136.563 122.102 136.687 122.102 136.728 122.184C136.77 122.267 136.77 122.391 136.687 122.432C136.687 122.432 136.274 122.721 136.356 123.3C136.398 123.796 136.894 124.333 136.894 124.333C136.935 124.374 136.935 124.415 136.935 124.498Z" fill="white"/>
<path d="M96.7143 120.366C96.7143 120.366 107.255 117.308 112.505 117.102C117.796 116.895 131.975 124.746 131.975 124.746C132.305 125.572 132.099 126.481 131.52 127.308C131.437 127.432 131.355 127.556 131.272 127.638C131.065 127.886 130.859 128.134 130.611 128.341C130.611 128.341 120.111 126.977 113.125 123.3C113.125 123.3 103.287 125.738 97.6237 125.572C97.6651 125.531 95.3089 123.589 96.7143 120.366Z" fill="#021147"/>
<path d="M100.763 89.7282C102.958 87.5337 102.958 83.9756 100.763 81.7811C98.5671 79.5866 95.0076 79.5866 92.8121 81.7811C90.6167 83.9756 90.6167 87.5337 92.8121 89.7282C95.0076 91.9227 98.5671 91.9227 100.763 89.7282Z" fill="#021147"/>
<path d="M94.7713 83.7146C96.6662 83.7146 98.2022 82.1792 98.2022 80.2851C98.2022 78.3909 96.6662 76.8555 94.7713 76.8555C92.8764 76.8555 91.3403 78.3909 91.3403 80.2851C91.3403 82.1792 92.8764 83.7146 94.7713 83.7146Z" fill="#021147"/>
<path d="M100.848 87.3096C100.848 87.3096 101.716 86.4006 102.171 87.2683C102.667 88.136 101.633 90.4086 100.311 89.7062L100.848 87.3096Z" fill="#FF6D6B"/>
<path d="M100.931 89.5819C100.931 89.7059 101.013 89.8298 101.179 89.8712C101.303 89.8712 101.427 89.7885 101.468 89.6232C101.468 89.4993 101.385 89.3753 101.22 89.334C101.096 89.334 100.972 89.4579 100.931 89.5819Z" fill="white"/>
<path d="M100.682 89.0035C100.724 89.0035 100.765 88.9621 100.806 88.9208C101.096 88.2184 101.922 88.0118 101.922 88.0118C102.005 88.0118 102.005 87.9291 102.005 87.8878C102.005 87.8465 101.922 87.8052 101.881 87.8052C101.84 87.8052 100.93 88.0531 100.6 88.8795C100.558 88.8795 100.6 88.9621 100.682 89.0035Z" fill="#ED495C"/>
<path d="M101.509 88.7139C101.551 88.7139 101.551 88.7139 101.592 88.7139C101.633 88.6726 101.675 88.6313 101.633 88.5487C101.633 88.5487 101.509 88.3421 101.22 88.1768C101.179 88.1355 101.096 88.1768 101.055 88.2181C101.013 88.2594 101.055 88.3421 101.096 88.3834C101.303 88.5073 101.427 88.6726 101.427 88.6726C101.427 88.6726 101.468 88.7139 101.509 88.7139Z" fill="#ED495C"/>
<path d="M94.4822 91.6895L94.1929 94.5819C94.1929 94.5819 95.433 95.7388 96.4664 95.9454C97.4998 96.152 97.9959 94.9538 97.9959 94.9538L98.2439 92.2679L94.4822 91.6895Z" fill="#FB9A83"/>
<path d="M94.4819 91.9375L94.3579 93.0945C94.978 93.9209 96.2181 94.3341 98.0782 94.2514L98.2436 92.516L94.4819 91.9375Z" fill="#FF6D6B"/>
<path d="M101.179 88.4664C101.137 88.7557 101.055 89.0036 100.972 89.2928C100.476 91.1523 99.0705 93.053 97.5411 93.2596C94.2341 93.6728 93.118 91.0283 92.7873 89.0862C92.746 88.8796 92.87 88.6317 92.87 88.3838C92.8287 87.8053 92.6633 87.1029 92.6633 86.4417C92.6633 85.9872 92.7047 85.5327 92.7047 85.1195C92.746 83.9625 93.5314 82.9708 94.6062 82.6816C96.1356 82.2271 98.4505 81.9791 100.476 83.4254C101.22 83.9625 101.633 84.8716 101.551 85.8219C101.509 86.5244 101.385 87.4748 101.179 88.4664Z" fill="#FB9A83"/>
<path d="M97.0862 89.5409C97.0448 89.5409 96.9622 89.4996 96.9622 89.417C96.9622 89.3343 97.0035 89.293 97.0862 89.293L97.5409 89.2517L97.0862 87.5989C97.0862 87.5162 97.1275 87.4749 97.1688 87.4336C97.2515 87.4336 97.2928 87.4749 97.3342 87.5162L97.8716 89.4583L97.0862 89.5409C97.1275 89.5409 97.0862 89.5409 97.0862 89.5409Z" fill="#FF6D6B"/>
<path d="M100.228 85.1609C101.426 85.8633 101.054 87.7641 100.972 89.2103C100.972 89.2516 101.302 88.1773 101.302 88.136C101.509 87.1443 101.633 86.1939 101.674 85.4501C101.757 84.4998 101.302 83.5494 100.517 83.0122C98.3675 81.5247 95.97 81.7726 94.3165 82.2272C93.2004 82.5577 92.3737 83.5494 92.3323 84.7064C92.3323 85.1196 92.291 85.5741 92.291 86.0286C92.4977 86.1939 92.9937 86.2766 92.9937 86.6071C92.9524 87.5162 92.9111 89.045 93.0764 88.9624C93.2831 88.921 93.5725 86.855 93.4484 86.1939C93.4484 86.1939 93.7791 85.7394 95.0192 85.4088C96.59 84.9543 98.1195 84.2519 98.1195 84.2519C98.1195 84.2519 98.7396 83.9626 98.9876 83.5907C99.0703 83.7147 99.3183 84.6237 100.228 85.1609Z" fill="#021147"/>
<path d="M98.9877 87.64C98.9463 87.9292 99.0703 88.1358 99.277 88.1771C99.4837 88.2185 99.6077 87.9705 99.6491 87.7226C99.6904 87.4334 99.5664 87.2268 99.3597 87.1854C99.1943 87.1441 99.029 87.3507 98.9877 87.64Z" fill="#021147"/>
<path d="M95.2262 87.268C95.1848 87.5572 95.3089 87.7638 95.5155 87.8051C95.6809 87.8051 95.8462 87.5985 95.8876 87.3506C95.9289 87.0614 95.8049 86.8548 95.5982 86.8135C95.4329 86.8135 95.2675 87.0201 95.2262 87.268Z" fill="#021147"/>
<path d="M100.063 86.2352C99.8147 86.1526 99.3186 86.0286 98.7399 85.9873C98.5746 85.9873 98.4506 86.0699 98.4919 86.1939C98.4919 86.2766 98.5746 86.3592 98.6986 86.3592C99.0706 86.3592 100.063 86.4832 100.517 86.6485C100.517 86.5658 100.517 86.5245 100.435 86.4418C100.311 86.3592 100.187 86.2766 100.063 86.2352Z" fill="#021147"/>
<path d="M94.8953 85.8221C95.1433 85.7808 95.6807 85.7395 96.2181 85.8221C96.3834 85.8221 96.4661 85.9461 96.4248 86.0701C96.3834 86.1527 96.3007 86.2353 96.1767 86.194C95.8047 86.1527 94.8126 86.0701 94.3579 86.1527C94.3579 86.0701 94.3992 86.0287 94.4819 85.9461C94.6059 85.9048 94.7713 85.8221 94.8953 85.8221Z" fill="#021147"/>
<path d="M98.4087 90.4084C98.2847 90.8216 97.8713 91.6067 96.8379 91.524C95.8045 91.4414 95.5565 90.6563 95.5151 90.1191L98.4087 90.4084Z" fill="white"/>
<path d="M96.7969 92.268C97.0862 92.3093 97.3756 92.144 97.3756 92.144C97.4169 92.1027 97.4583 92.0201 97.4169 91.9787C97.3756 91.9374 97.2929 91.8961 97.2516 91.9374C97.2516 91.9374 97.0035 92.0614 96.7969 92.0201C96.5488 91.9787 96.3422 91.8548 96.3422 91.8548C96.3008 91.8135 96.2181 91.8135 96.1768 91.8961C96.1355 91.9374 96.1355 92.0201 96.2181 92.0614C96.2181 92.0614 96.4662 92.268 96.7969 92.268Z" fill="#FF6D6B"/>
<path d="M93.0353 86.5659C93.0353 86.5659 92.2499 85.4089 91.6712 86.1527C91.0924 86.8965 91.5885 89.2517 92.9113 88.7972L93.0353 86.5659Z" fill="#FB9A83"/>
<path d="M92.0845 88.7557C92.0845 88.8797 92.1671 89.0037 92.3325 89.045C92.4565 89.045 92.5805 88.9623 92.6219 88.7971C92.6219 88.6731 92.5392 88.5491 92.3738 88.5078C92.2498 88.5078 92.1258 88.5905 92.0845 88.7557Z" fill="white"/>
<path d="M92.7042 88.012C92.6629 88.012 92.6215 87.9707 92.6215 87.9294C92.4975 87.1856 91.7948 86.8551 91.7948 86.8551C91.7535 86.8137 91.7121 86.7724 91.7534 86.6898C91.7948 86.6485 91.8361 86.6071 91.9188 86.6485C91.9601 86.6485 92.7455 87.0617 92.8695 87.8881C92.8282 87.9707 92.7869 88.012 92.7042 88.012C92.7042 88.012 92.7042 88.0534 92.7042 88.012Z" fill="#FF6D6B"/>
<path d="M92.0018 87.5989C92.0018 87.5989 91.9604 87.5989 91.9604 87.5575C91.9191 87.5162 91.9191 87.4336 91.9604 87.3923C91.9604 87.3923 92.1258 87.1857 92.4151 87.103C92.4565 87.103 92.5391 87.103 92.5391 87.1857C92.5391 87.227 92.5391 87.3096 92.4565 87.3096C92.2498 87.3923 92.1258 87.5162 92.1258 87.5162C92.0845 87.5989 92.0431 87.5989 92.0018 87.5989Z" fill="#FF6D6B"/>
<path d="M96.9622 87.0615C96.9622 86.9788 96.9622 86.8962 96.9209 86.8548C96.8382 86.6896 96.7142 86.5243 96.5075 86.483L94.6887 86.2764C94.5647 86.2764 94.3993 86.3177 94.3167 86.4003C94.2753 86.4416 94.1926 86.483 94.1926 86.5656C94.1513 86.6069 94.1513 86.6896 94.1513 86.7309L94.11 86.9788C94.0686 87.392 94.1926 87.7639 94.3993 88.0531C94.6473 88.3424 94.9367 88.5077 95.2674 88.549H95.3087C95.6808 88.5903 96.0941 88.4663 96.3835 88.2597C96.7142 88.0118 96.8795 87.6399 96.9622 87.2681V87.0615ZM96.7142 87.2267C96.6729 87.5573 96.5075 87.8879 96.2182 88.0945C95.9701 88.3011 95.6394 88.3837 95.3087 88.3424H95.2674C94.978 88.3011 94.73 88.1358 94.5233 87.8879C94.3167 87.6399 94.234 87.3094 94.2753 86.9788L94.3167 86.7309C94.3167 86.5656 94.482 86.4416 94.6474 86.483L96.4662 86.6896C96.6315 86.6896 96.7555 86.8549 96.7142 87.0201V87.2267Z" fill="white"/>
<path d="M100.848 87.3923C100.848 87.3096 100.807 87.2683 100.765 87.1857C100.683 87.0617 100.559 86.9791 100.393 86.9378L98.5745 86.7312C98.3678 86.6898 98.1611 86.8138 98.0785 86.9791C98.0371 87.0204 98.0371 87.103 97.9958 87.1857L97.9545 87.4336C97.9131 87.8468 98.0371 88.2187 98.2438 88.5079C98.4918 88.7972 98.7812 88.9625 99.1119 89.0038H99.1532C99.5252 89.0451 99.9386 88.9211 100.228 88.7145C100.559 88.4666 100.724 88.0947 100.807 87.7228L100.848 87.5162C100.848 87.4749 100.848 87.4336 100.848 87.3923ZM100.6 87.7228C100.559 88.0534 100.393 88.384 100.104 88.5906C99.8559 88.7972 99.5253 88.8798 99.1946 88.8385H99.1532C98.8639 88.7972 98.6158 88.6319 98.4092 88.384C98.2025 88.136 98.1198 87.8055 98.1611 87.4749L98.2025 87.227C98.2025 87.0617 98.3678 86.9378 98.5332 86.9791L100.352 87.1857C100.517 87.1857 100.641 87.351 100.6 87.5162V87.7228Z" fill="white"/>
<path d="M94.2754 86.4007C94.1101 86.2767 93.6554 86.0288 92.9526 86.0288L92.994 86.2354C93.5727 86.2767 93.9447 86.4833 94.1101 86.566C94.1514 86.6073 94.1928 86.6073 94.1928 86.6073L94.3168 86.442C94.3581 86.442 94.3168 86.4007 94.2754 86.4007Z" fill="white"/>
<path d="M96.8797 87.0617L96.8384 86.8551C96.8384 86.8551 97.1691 86.7725 97.4998 86.8138C97.8718 86.8551 98.0785 86.9791 98.0785 86.9791L97.9545 87.1857C97.9545 87.1857 97.7891 87.0617 97.4584 87.0204C97.1691 87.0204 96.8797 87.0617 96.8797 87.0617Z" fill="white"/>
<path d="M101.468 87.0615C101.055 87.0615 100.724 87.1855 100.683 87.2268L100.765 87.4334C100.765 87.4334 101.137 87.3094 101.509 87.3094L101.468 87.0615Z" fill="white"/>
<path d="M108.537 139.621L107.627 142.39L105.188 142.142L106.015 139.208L108.537 139.621Z" fill="#FB9A83"/>
<path d="M107.462 142.265C107.462 142.265 108.082 141.439 108.578 141.439C109.074 141.48 112.918 144.497 114.241 144.745C115.564 144.993 115.316 145.943 115.068 146.439C114.82 146.935 104.61 146.273 104.61 146.273C104.61 146.273 104.32 143.216 104.651 142.307C104.94 141.439 106.428 142.513 107.462 142.265Z" fill="#BA68C8"/>
<path d="M109.57 144.414C109.528 144.414 109.487 144.414 109.446 144.414C109.363 144.373 109.322 144.249 109.363 144.166C109.363 144.125 109.777 143.422 110.314 143.174C111.017 142.802 111.595 143.216 111.595 143.216C111.678 143.257 111.678 143.381 111.637 143.463C111.595 143.546 111.471 143.546 111.389 143.505C111.389 143.505 110.975 143.216 110.479 143.463C110.025 143.67 109.694 144.29 109.694 144.331C109.652 144.373 109.611 144.373 109.57 144.414Z" fill="white"/>
<path d="M109.032 143.877C108.991 143.877 108.95 143.877 108.908 143.877C108.826 143.835 108.784 143.711 108.826 143.629C108.826 143.587 109.239 142.885 109.777 142.637C110.479 142.265 111.058 142.678 111.058 142.678C111.141 142.72 111.141 142.844 111.099 142.926C111.058 143.009 110.934 143.009 110.851 142.968C110.851 142.968 110.438 142.678 109.942 142.926C109.487 143.133 109.156 143.753 109.156 143.794C109.115 143.835 109.074 143.877 109.032 143.877Z" fill="white"/>
<path d="M110.314 144.827C110.272 144.827 110.231 144.827 110.19 144.827C110.107 144.786 110.066 144.662 110.107 144.579C110.107 144.538 110.52 143.835 111.058 143.587C111.761 143.215 112.339 143.629 112.339 143.629C112.422 143.67 112.422 143.794 112.381 143.877C112.339 143.959 112.215 143.959 112.133 143.918C112.133 143.918 111.719 143.629 111.223 143.877C110.768 144.083 110.438 144.703 110.438 144.744C110.396 144.786 110.355 144.786 110.314 144.827Z" fill="white"/>
<path d="M88.8189 120.572C88.6949 121.688 88.8602 122.845 89.3976 123.878C90.183 125.366 91.8778 126.936 95.5154 126.729C103.287 126.316 108.785 126.729 108.785 126.729C108.785 126.729 107.958 129.332 107.09 133.175C106.594 135.406 104.982 140.861 104.982 140.861C106.056 141.481 107.172 141.315 108.289 141.109C108.289 141.109 116.349 127.266 115.646 122.762C114.944 118.259 88.9015 119.415 88.9015 119.415L88.8189 120.572Z" fill="#3B3E7D"/>
<path d="M105.023 116.977C101.344 114.664 95.5569 110.242 95.5569 110.242C95.5569 110.242 91.9193 103.176 89.7698 95.8628C89.7698 95.8628 87.3309 98.6726 89.0257 104.953C90.6792 111.069 93.3247 113.3 93.3247 113.3C93.3247 113.3 100.104 118.134 103.659 119.333C104.238 118.424 104.486 117.969 105.023 116.977Z" fill="#BA68C8"/>
<path d="M121.847 119.829L98.9052 120.118C98.4918 120.118 98.1611 119.787 98.1611 119.374V119.002C98.1611 118.589 98.4918 118.258 98.9052 118.258L121.847 117.969C122.26 117.969 122.591 118.3 122.591 118.713V119.085C122.591 119.498 122.26 119.829 121.847 119.829Z" fill="#9468B4"/>
<path d="M122.591 119.829L102.584 120.077L108.536 109.086L128.543 108.879L122.591 119.829Z" fill="#9468B4"/>
<path d="M121.351 119.829L101.385 120.035L107.296 109.085H108.537L102.625 119.994L121.351 119.829Z" fill="#9468B4"/>
<path d="M117.093 114.416C117.093 115.118 116.556 115.697 115.853 115.697C115.15 115.697 114.572 115.16 114.572 114.457C114.572 113.755 115.109 113.176 115.812 113.176C116.515 113.176 117.093 113.713 117.093 114.416Z" fill="#BA68C8"/>
<path d="M162.895 120.159V154.001C162.895 154.745 163.515 155.364 164.259 155.364H183.894C184.266 155.364 184.596 155.199 184.844 154.951C185.092 154.703 185.216 154.373 185.216 154.001V120.159C185.216 119.416 184.596 118.796 183.852 118.796H164.217C163.969 118.796 163.721 118.879 163.515 119.002C163.143 119.292 162.895 119.705 162.895 120.159Z" fill="#BA68C8"/>
<path d="M169.012 125.366H182.116C182.612 125.366 183.026 124.953 183.026 124.457C183.026 123.961 182.612 123.548 182.116 123.548H169.012C168.516 123.548 168.103 123.961 168.103 124.457C168.103 124.953 168.516 125.366 169.012 125.366Z" fill="#9468B4"/>
<path d="M169.012 129.581H182.116C182.612 129.581 183.026 129.168 183.026 128.672C183.026 128.176 182.612 127.763 182.116 127.763H169.012C168.516 127.763 168.103 128.176 168.103 128.672C168.103 129.168 168.516 129.581 169.012 129.581Z" fill="#9468B4"/>
<path d="M169.012 133.796H182.116C182.612 133.796 183.026 133.382 183.026 132.887C183.026 132.391 182.612 131.978 182.116 131.978H169.012C168.516 131.978 168.103 132.391 168.103 132.887C168.103 133.382 168.516 133.796 169.012 133.796Z" fill="#9468B4"/>
<path d="M169.012 138.051H182.116C182.612 138.051 183.026 137.638 183.026 137.142C183.026 136.647 182.612 136.233 182.116 136.233H169.012C168.516 136.233 168.103 136.647 168.103 137.142C168.103 137.597 168.516 138.051 169.012 138.051Z" fill="#9468B4"/>
<path d="M169.012 142.266H182.116C182.612 142.266 183.026 141.853 183.026 141.357C183.026 140.861 182.612 140.448 182.116 140.448H169.012C168.516 140.448 168.103 140.861 168.103 141.357C168.103 141.853 168.516 142.266 169.012 142.266Z" fill="#9468B4"/>
<path d="M169.012 146.481H182.116C182.612 146.481 183.026 146.067 183.026 145.572C183.026 145.076 182.612 144.663 182.116 144.663H169.012C168.516 144.663 168.103 145.076 168.103 145.572C168.103 146.067 168.516 146.481 169.012 146.481Z" fill="#9468B4"/>
<path d="M165.416 123.92C165.416 124.127 165.581 124.333 165.829 124.333C166.036 124.333 166.243 124.168 166.243 123.92C166.243 123.713 166.077 123.507 165.829 123.507C165.623 123.507 165.416 123.672 165.416 123.92Z" fill="#021147"/>
<path d="M165.416 124.953C165.416 125.16 165.581 125.366 165.829 125.366C166.036 125.366 166.243 125.201 166.243 124.953C166.243 124.747 166.077 124.54 165.829 124.54C165.623 124.581 165.416 124.747 165.416 124.953Z" fill="#9468B4"/>
<path d="M165.416 128.135C165.416 128.341 165.581 128.548 165.829 128.548C166.036 128.548 166.243 128.383 166.243 128.135C166.243 127.928 166.077 127.722 165.829 127.722C165.623 127.722 165.416 127.887 165.416 128.135Z" fill="white"/>
<path d="M165.416 129.168C165.416 129.374 165.581 129.581 165.829 129.581C166.036 129.581 166.243 129.416 166.243 129.168C166.243 128.961 166.077 128.754 165.829 128.754C165.623 128.796 165.416 128.961 165.416 129.168Z" fill="#9468B4"/>
<path d="M165.416 136.564C165.416 136.771 165.581 136.977 165.829 136.977C166.036 136.977 166.243 136.812 166.243 136.564C166.243 136.357 166.077 136.151 165.829 136.151C165.623 136.192 165.416 136.357 165.416 136.564Z" fill="white"/>
<path d="M165.416 137.638C165.416 137.845 165.581 138.052 165.829 138.052C166.036 138.052 166.243 137.886 166.243 137.638C166.243 137.432 166.077 137.225 165.829 137.225C165.623 137.225 165.416 137.432 165.416 137.638Z" fill="#9468B4"/>
<path d="M165.416 132.349C165.416 132.556 165.581 132.762 165.829 132.762C166.036 132.762 166.243 132.597 166.243 132.349C166.243 132.143 166.077 131.936 165.829 131.936C165.623 131.936 165.416 132.143 165.416 132.349Z" fill="#021147"/>
<path d="M165.416 133.423C165.416 133.63 165.581 133.837 165.829 133.837C166.036 133.837 166.243 133.671 166.243 133.423C166.243 133.217 166.077 133.01 165.829 133.01C165.623 133.01 165.416 133.176 165.416 133.423Z" fill="#9468B4"/>
<path d="M165.416 140.778C165.416 140.985 165.581 141.192 165.829 141.192C166.036 141.192 166.243 141.026 166.243 140.778C166.243 140.572 166.077 140.365 165.829 140.365C165.623 140.407 165.416 140.572 165.416 140.778Z" fill="#021147"/>
<path d="M165.416 141.853C165.416 142.059 165.581 142.266 165.829 142.266C166.036 142.266 166.243 142.101 166.243 141.853C166.243 141.646 166.077 141.439 165.829 141.439C165.623 141.481 165.416 141.646 165.416 141.853Z" fill="#9468B4"/>
<path d="M165.416 145.034C165.416 145.241 165.581 145.447 165.829 145.447C166.036 145.447 166.243 145.282 166.243 145.034C166.243 144.828 166.077 144.621 165.829 144.621C165.623 144.621 165.416 144.786 165.416 145.034Z" fill="white"/>
<path d="M167.152 118.837H180.959C180.959 118.011 180.256 117.309 179.429 117.309H168.682C167.855 117.309 167.152 117.97 167.152 118.837Z" fill="#9468B4"/>
<path d="M165.954 85.1201V86.0292H173.642V117.309H174.552V85.1201H165.954Z" fill="#9468B4"/>
<path d="M175.254 85.5743C175.254 86.2354 174.717 86.7726 174.056 86.7726C173.394 86.7726 172.857 86.2354 172.857 85.5743C172.857 84.9131 173.394 84.376 174.056 84.376C174.717 84.376 175.254 84.9131 175.254 85.5743Z" fill="#9468B4"/>
</svg>
