<svg width="60" height="40" viewBox="0 0 60 40" fill="none" xmlns="http://www.w3.org/2000/svg">
<path d="M19.8214 0V3.17829C15.3316 5.55556 12.1173 8.03618 10.1786 10.6202C8.2398 13.2041 7.27041 16.0207 7.27041 19.0698C7.27041 20.8786 7.52551 22.1189 8.03571 22.7907C8.4949 23.5142 9.05612 23.876 9.71939 23.876C10.3827 23.876 11.2755 23.6951 12.398 23.3333C13.5204 22.9199 14.5408 22.7132 15.4592 22.7132C17.551 22.7132 19.3622 23.5142 20.8929 25.1163C22.4745 26.6667 23.2653 28.5788 23.2653 30.8527C23.2653 33.3333 22.3214 35.478 20.4337 37.2868C18.5459 39.0439 16.199 39.9225 13.3929 39.9225C9.97449 39.9225 6.88776 38.4238 4.13265 35.4264C1.37755 32.4289 0 28.7339 0 24.3411C0 19.1731 1.68367 14.3669 5.05102 9.92248C8.46939 5.42636 13.3929 2.11886 19.8214 0ZM56.3265 0.232558V3.17829C51.1735 6.17571 47.7806 8.86305 46.148 11.2403C44.5153 13.6176 43.699 16.4083 43.699 19.6124C43.699 21.0594 43.9796 22.1447 44.5408 22.8682C45.102 23.5917 45.6888 23.9535 46.301 23.9535C46.8622 23.9535 47.7041 23.7468 48.8265 23.3333C49.949 22.9199 51.0714 22.7132 52.1939 22.7132C54.2857 22.7132 56.0969 23.4884 57.6276 25.0388C59.2092 26.5375 60 28.3979 60 30.6202C60 33.1525 59.0051 35.3488 57.0153 37.2093C55.0765 39.0698 52.6786 40 49.8214 40C46.4541 40 43.4184 38.5271 40.7143 35.5814C38.0102 32.6357 36.6582 28.9664 36.6582 24.5736C36.6582 19.1473 38.3673 14.2119 41.7857 9.76744C45.2041 5.27132 50.051 2.09302 56.3265 0.232558Z" fill="#913E98"/>
</svg>
