<svg width="105" height="105" viewBox="0 0 105 105" fill="none" xmlns="http://www.w3.org/2000/svg">
<path d="M104 52.5C104 80.9427 80.9427 104 52.5 104C24.0573 104 1 80.9427 1 52.5C1 24.0573 24.0573 1 52.5 1C80.9427 1 104 24.0573 104 52.5Z" fill="#AC6BAD" stroke="white" stroke-width="2"/>
<path d="M52.5 88.86C39.875 88.86 28.7145 82.396 22.2 72.7C22.3515 62.6 42.4 57.045 52.5 57.045C62.6 57.045 82.6485 62.6 82.8 72.7C79.4614 77.6713 74.9516 81.7453 69.6678 84.5634C64.384 87.3814 58.4883 88.8569 52.5 88.86ZM52.5 17.15C56.518 17.15 60.3715 18.7462 63.2127 21.5873C66.0538 24.4285 67.65 28.282 67.65 32.3C67.65 36.318 66.0538 40.1715 63.2127 43.0127C60.3715 45.8538 56.518 47.45 52.5 47.45C48.482 47.45 44.6285 45.8538 41.7873 43.0127C38.9462 40.1715 37.35 36.318 37.35 32.3C37.35 28.282 38.9462 24.4285 41.7873 21.5873C44.6285 18.7462 48.482 17.15 52.5 17.15ZM52.5 2C45.8682 2 39.3014 3.30622 33.1745 5.84408C27.0475 8.38195 21.4805 12.1017 16.7911 16.7911C7.32052 26.2617 2 39.1066 2 52.5C2 65.8934 7.32052 78.7383 16.7911 88.2089C21.4805 92.8983 27.0475 96.6181 33.1745 99.1559C39.3014 101.694 45.8682 103 52.5 103C65.8934 103 78.7383 97.6795 88.2089 88.2089C97.6795 78.7383 103 65.8934 103 52.5C103 24.5735 80.275 2 52.5 2Z" fill="#EEEEEE"/>
</svg>
