<svg width="101" height="101" viewBox="0 0 101 101" fill="none" xmlns="http://www.w3.org/2000/svg">
<path d="M50.5 86.86C37.875 86.86 26.7145 80.396 20.2 70.7C20.3515 60.6 40.4 55.045 50.5 55.045C60.6 55.045 80.6485 60.6 80.8 70.7C77.4614 75.6713 72.9516 79.7453 67.6678 82.5634C62.384 85.3814 56.4883 86.8569 50.5 86.86ZM50.5 15.15C54.518 15.15 58.3715 16.7462 61.2127 19.5873C64.0538 22.4285 65.65 26.282 65.65 30.3C65.65 34.318 64.0538 38.1715 61.2127 41.0127C58.3715 43.8538 54.518 45.45 50.5 45.45C46.482 45.45 42.6285 43.8538 39.7873 41.0127C36.9462 38.1715 35.35 34.318 35.35 30.3C35.35 26.282 36.9462 22.4285 39.7873 19.5873C42.6285 16.7462 46.482 15.15 50.5 15.15ZM50.5 0C43.8682 0 37.3014 1.30622 31.1745 3.84408C25.0475 6.38195 19.4805 10.1017 14.7911 14.7911C5.32052 24.2617 0 37.1066 0 50.5C0 63.8934 5.32052 76.7383 14.7911 86.2089C19.4805 90.8983 25.0475 94.6181 31.1745 97.1559C37.3014 99.6938 43.8682 101 50.5 101C63.8934 101 76.7383 95.6795 86.2089 86.2089C95.6795 76.7383 101 63.8934 101 50.5C101 22.5735 78.275 0 50.5 0Z" fill="#EEEEEE"/>
</svg>
