<svg width="613" height="426" viewBox="0 0 613 426" fill="none" xmlns="http://www.w3.org/2000/svg">
<path d="M517.39 322.169L510.854 420.886C510.818 421.388 510.593 421.857 510.226 422.201C509.858 422.545 509.375 422.737 508.871 422.739C508.607 422.739 508.345 422.686 508.101 422.583C507.858 422.479 507.638 422.328 507.454 422.137C507.27 421.947 507.127 421.721 507.032 421.474C506.938 421.227 506.894 420.964 506.903 420.699L509.59 322.169H517.39Z" fill="#263238" stroke="#263238" stroke-linecap="round" stroke-linejoin="round"/>
<path d="M534.113 322.169L540.649 420.886C540.681 421.386 540.903 421.856 541.268 422.2C541.633 422.544 542.115 422.736 542.617 422.739C542.882 422.739 543.144 422.686 543.389 422.583C543.633 422.48 543.854 422.328 544.039 422.138C544.224 421.948 544.369 421.723 544.465 421.475C544.561 421.228 544.607 420.964 544.599 420.699L541.884 322.227L534.113 322.169Z" fill="#263238" stroke="#263238" stroke-linecap="round" stroke-linejoin="round"/>
<path d="M468.579 322.169L475.115 420.886C475.148 421.386 475.369 421.856 475.734 422.2C476.099 422.544 476.581 422.736 477.083 422.739C477.348 422.739 477.611 422.686 477.855 422.583C478.099 422.48 478.321 422.328 478.505 422.138C478.69 421.948 478.835 421.723 478.931 421.475C479.027 421.228 479.073 420.964 479.065 420.699L476.336 322.227L468.579 322.169Z" fill="#263238" stroke="#263238" stroke-linecap="round" stroke-linejoin="round"/>
<path d="M441.874 322.169L435.338 420.886C435.302 421.388 435.078 421.857 434.71 422.201C434.342 422.545 433.859 422.737 433.356 422.739C433.091 422.737 432.829 422.683 432.586 422.579C432.342 422.475 432.122 422.324 431.938 422.134C431.753 421.944 431.608 421.72 431.511 421.473C431.415 421.227 431.368 420.964 431.373 420.699L434.103 322.227L441.874 322.169Z" fill="#263238" stroke="#263238" stroke-linecap="round" stroke-linejoin="round"/>
<path d="M555.746 222.648C555.746 222.648 490.529 220.206 485.013 220.206C479.497 220.206 478.218 222.648 478.218 222.648L468.91 288.282C468.91 288.282 439.964 280.022 434.29 281.099C428.616 282.177 437.091 323.361 437.091 323.361H469.844L470.433 320.891H544.384L564.021 227.345C562.828 223.065 555.746 222.648 555.746 222.648Z" fill="white" stroke="#263238" stroke-linecap="round" stroke-linejoin="round"/>
<path d="M530.922 263.704C530.922 263.704 537.559 306.799 529.945 311.827C528.767 312.603 522.375 316.28 516.399 315.677C511.601 315.188 477.7 315.677 477.7 315.677C477.7 315.677 472.988 306.713 472.04 300.105C471.092 293.497 478.504 265.141 478.504 265.141L530.922 263.704Z" fill="white" stroke="#263238" stroke-linecap="round" stroke-linejoin="round"/>
<path d="M475.402 286.789C475.402 286.789 426.331 291.888 424.018 293.267C421.705 294.646 411.09 303.912 412.914 309.931C414.738 315.95 410.142 316.409 414.351 317.343C418.559 318.277 478.217 318.262 478.217 318.262" fill="#9468B4"/>
<path d="M475.402 286.789C475.402 286.789 426.331 291.888 424.018 293.267C421.705 294.646 411.09 303.912 412.914 309.931C414.738 315.95 410.142 316.409 414.351 317.343C418.559 318.277 478.217 318.262 478.217 318.262" stroke="#263238" stroke-linecap="round" stroke-linejoin="round"/>
<path d="M430.769 323.291H547.37V314.585H430.769V323.291Z" fill="white" stroke="#263238" stroke-linecap="round" stroke-linejoin="round"/>
<path d="M519.832 288.641H449.587C449.587 288.641 445.895 292.807 445.421 301.569C444.947 310.332 445.895 312.214 452.374 314.498C458.852 316.782 516.399 315.618 516.399 315.618" fill="#9468B4"/>
<path d="M519.832 288.641H449.587C449.587 288.641 445.895 292.807 445.421 301.569C444.947 310.332 445.895 312.214 452.374 314.498C458.852 316.782 516.399 315.618 516.399 315.618" stroke="#263238" stroke-linecap="round" stroke-linejoin="round"/>
<path d="M464.485 400.114L457.13 382.69L445.078 384.974L454.301 400.517L448.986 411.161L437.493 418.674C437.493 418.674 436.158 419.996 441.904 419.55C447.65 419.105 459.573 419.55 459.573 419.55L467.085 410.716C467.085 410.716 469.815 406.22 464.485 400.114Z" fill="white" stroke="#263238" stroke-linecap="round" stroke-linejoin="round"/>
<path d="M467.703 407.727L468.004 419.119H466.209L463.81 413.43L467.703 407.727Z" fill="#263238" stroke="#263238" stroke-linecap="round" stroke-linejoin="round"/>
<path d="M459.586 419.608L467.099 410.773C467.099 410.773 469.038 407.484 466.366 402.743C461.023 411.879 453.912 414.623 453.912 414.623L446.5 412.842L437.507 418.731C437.507 418.731 436.171 420.053 441.917 419.608C447.663 419.162 459.586 419.608 459.586 419.608Z" fill="#263238" stroke="#263238" stroke-linecap="round" stroke-linejoin="round"/>
<path d="M435.595 311.324L460.231 385.806L442.749 388.909L408.273 311.338C408.273 311.338 405.501 299.76 412.899 296.068C420.297 292.376 442.06 290.509 442.06 290.509" fill="#9468B4"/>
<path d="M435.595 311.324L460.231 385.806L442.749 388.909L408.273 311.338C408.273 311.338 405.501 299.76 412.899 296.068C420.297 292.376 442.06 290.509 442.06 290.509" stroke="#263238" stroke-linecap="round" stroke-linejoin="round"/>
<path d="M514.619 323.276C514.619 323.276 506.129 282.034 511.818 281.014C517.506 279.994 546.438 288.196 546.438 288.196L555.746 222.649C555.746 222.649 565.572 221.097 566.606 229.831C567.64 238.565 547.371 323.276 547.371 323.276H514.619Z" fill="#263238" stroke="#263238" stroke-linecap="round" stroke-linejoin="round"/>
<path d="M414.652 201.848L410.271 194.666C409.848 193.978 409.254 193.412 408.546 193.024C407.838 192.636 407.041 192.439 406.234 192.453L402.111 192.525L395.058 190.414C394.61 190.283 394.133 190.288 393.688 190.429C393.243 190.57 392.85 190.839 392.559 191.204L392.3 191.534L398.793 194.407L392.314 196.792L385.434 193.301C385.162 193.162 384.851 193.123 384.554 193.191C384.257 193.26 383.994 193.431 383.81 193.674C383.602 193.945 383.508 194.288 383.552 194.627C383.595 194.966 383.77 195.274 384.04 195.484L393.665 202.911C393.966 203.146 394.315 203.313 394.686 203.402C395.058 203.491 395.444 203.5 395.82 203.428L406.464 201.288L409.438 204.534L414.652 201.848Z" fill="white" stroke="#263238" stroke-linecap="round" stroke-linejoin="round"/>
<path d="M488.862 187.109L449.401 228.38L411.736 197.941L406.536 201.719L447.979 248.678L483.906 229.328L488.862 187.109Z" fill="white" stroke="#263238" stroke-linecap="round" stroke-linejoin="round"/>
<path d="M547.903 197.654L568.589 261.219L550.747 261.736L533.006 231.9C533.006 231.9 542.976 201.805 547.903 197.654Z" fill="white" stroke="#263238" stroke-linecap="round" stroke-linejoin="round"/>
<path d="M525.392 186.736L547.902 197.726L529.055 250.431L531.282 265.126L478.504 265.213L484.796 241.539L480.487 226.369C479.927 224.401 479.898 222.32 480.401 220.336L488.847 187.182L511.027 183.619L525.392 186.736Z" fill="white" stroke="#263238" stroke-linecap="round" stroke-linejoin="round"/>
<path d="M524.315 183.648C524.315 183.648 528.74 186.636 528.883 189.294C528.955 190.859 528.883 193.603 528.74 195.701C528.661 197.339 528.286 198.95 527.634 200.455L519.661 210.08L510.439 202.797L502.782 206.704C502.782 206.704 501.346 194.968 504.693 186.78C508.04 178.592 522.606 181.594 524.315 183.648Z" fill="white" stroke="#263238" stroke-linecap="round" stroke-linejoin="round"/>
<path d="M530.651 160.879C530.651 160.879 528.841 167.386 527.993 171.696C527.146 176.005 525.436 184.624 525.594 187.856C525.752 191.088 512.149 204.85 510.439 202.796C508.73 200.742 506.934 188.804 506.934 188.804L508.629 169.498C508.629 169.498 526.356 149.861 530.651 160.879Z" fill="white" stroke="#263238" stroke-linecap="round" stroke-linejoin="round"/>
<path d="M502.221 150.824C502.221 150.824 499.793 154.831 499.793 156.57C499.793 158.308 500.641 161.712 500.497 162.704C500.354 163.695 497.94 167.013 497.624 168.134C497.466 168.589 497.479 169.088 497.661 169.535C497.844 169.982 498.183 170.347 498.616 170.561C499.202 170.862 499.773 171.192 500.325 171.552C500.325 171.552 501.043 180.401 502.192 182.685C503.342 184.969 504.333 185.975 507.752 186.262C511.171 186.549 519.316 182.973 520.45 180.114C521.585 177.255 521.743 173.836 521.887 169.699C522.031 165.562 519.172 159.644 517.032 153.998C514.891 148.353 505.927 145.25 502.221 150.824Z" fill="white" stroke="#263238" stroke-linecap="round" stroke-linejoin="round"/>
<path d="M539.067 180.042C545.12 180.042 550.027 175.135 550.027 169.082C550.027 163.028 545.12 158.121 539.067 158.121C533.013 158.121 528.106 163.028 528.106 169.082C528.106 175.135 533.013 180.042 539.067 180.042Z" fill="#263238" stroke="#263238" stroke-linecap="round" stroke-linejoin="round"/>
<path d="M502.163 150.206C502.163 150.206 506.573 146.399 514.502 153.97C522.432 161.54 519.415 172.486 524.716 174.756C530.017 177.025 539.828 165.677 540.963 160.017C542.098 154.357 538.693 142.621 528.106 140.351C517.519 138.082 504.547 139.633 502.163 150.206Z" fill="#263238" stroke="#263238" stroke-linecap="round" stroke-linejoin="round"/>
<path d="M502.164 150.205C502.07 149.315 502.18 148.415 502.486 147.574C502.792 146.733 503.286 145.972 503.93 145.351C504.574 144.729 505.351 144.262 506.202 143.986C507.054 143.709 507.957 143.63 508.843 143.755C516.026 144.143 516.773 155.477 520.551 160.017C524.329 164.556 526.225 163.795 526.225 163.795C526.225 163.795 519.804 165.677 515.638 163.407C511.472 161.137 509.461 148.338 502.164 150.205Z" fill="#263238" stroke="#263238" stroke-linecap="round" stroke-linejoin="round"/>
<path d="M513.899 142.434C517.678 144.769 520.678 148.174 522.518 152.217C525.779 159.126 525.779 164.829 533.522 164.427C533.522 164.427 529.859 165.246 524.156 162.387C518.453 159.528 517.232 151.398 513.569 148.137C511.571 146.246 508.985 145.095 506.243 144.876" stroke="white" stroke-width="0.5" stroke-linecap="round" stroke-linejoin="round"/>
<path d="M540.964 160.017C540.964 160.017 540.634 170.389 532.676 172.572" stroke="white" stroke-width="0.5" stroke-linecap="round" stroke-linejoin="round"/>
<path d="M518.755 170.604C518.755 170.604 526.339 160.678 528.121 168.09C529.902 175.502 523.811 177.312 520.938 176.465C518.065 175.617 518.467 174.08 518.467 174.08" fill="white"/>
<path d="M518.755 170.604C518.755 170.604 526.339 160.678 528.121 168.09C529.902 175.502 523.811 177.312 520.938 176.465C518.065 175.617 518.467 174.08 518.467 174.08" stroke="#263238" stroke-linecap="round" stroke-linejoin="round"/>
<path d="M501.877 255.545C501.877 255.545 487.397 257.556 484.984 257.556C482.57 257.556 476.537 265.198 476.537 265.198H503.083L501.877 255.545Z" fill="white" stroke="#263238" stroke-linecap="round" stroke-linejoin="round"/>
<path d="M563.388 245.805L568.588 257.527C568.821 258.217 568.888 258.952 568.783 259.673C568.678 260.394 568.405 261.08 567.985 261.675C567.565 262.27 567.01 262.757 566.366 263.097C565.722 263.437 565.007 263.621 564.279 263.632L501.503 263.991L501.906 255.545L550.574 247.845" fill="white"/>
<path d="M563.388 245.805L568.588 257.527C568.821 258.217 568.888 258.952 568.783 259.673C568.678 260.394 568.405 261.08 567.985 261.675C567.565 262.27 567.01 262.757 566.366 263.097C565.722 263.437 565.007 263.621 564.279 263.632L501.503 263.991L501.906 255.545L550.574 247.845" stroke="#263238" stroke-linecap="round" stroke-linejoin="round"/>
<path d="M479.367 407.727L479.668 419.119H477.873L475.474 413.43L479.367 407.727Z" fill="#263238" stroke="#263238" stroke-linecap="round" stroke-linejoin="round"/>
<path d="M476.148 400.115L473.835 383.537L461.797 384.313L465.963 400.632L460.648 411.276L449.156 418.789C449.156 418.789 447.835 420.111 453.581 419.665C459.327 419.22 471.25 419.665 471.25 419.665L478.762 410.831C478.762 410.831 481.477 406.22 476.148 400.115Z" fill="white" stroke="#263238" stroke-linecap="round" stroke-linejoin="round"/>
<path d="M471.25 419.608L478.762 410.773C478.762 410.773 480.702 407.484 478.015 402.743C472.672 411.879 465.561 414.623 465.561 414.623L458.163 412.842L449.156 418.731C449.156 418.731 447.835 420.053 453.581 419.608C459.327 419.162 471.25 419.608 471.25 419.608Z" fill="#263238" stroke="#263238" stroke-linecap="round" stroke-linejoin="round"/>
<path d="M470.632 298.496L475.789 386.582L459.456 386.97L443.51 306.943C443.51 306.943 443.812 291.701 448.682 289.949C453.552 288.196 466.48 290.078 466.48 290.078" fill="#9468B4"/>
<path d="M470.632 298.496L475.789 386.582L459.456 386.97L443.51 306.943C443.51 306.943 443.812 291.701 448.682 289.949C453.552 288.196 466.48 290.078 466.48 290.078" stroke="#263238" stroke-linecap="round" stroke-linejoin="round"/>
<path d="M399.239 108.892L419.508 165.706C419.508 165.706 416.836 178.562 408.792 178.031C400.747 177.499 398.607 166.237 396.467 164.628C394.326 163.02 391.108 150.694 391.108 150.694L399.239 108.892Z" fill="white" stroke="#263238" stroke-linecap="round" stroke-linejoin="round"/>
<path d="M346.808 97.5005L313.854 109.395L326.496 200.771H385.953L399.24 108.892L363.672 97.759L346.808 97.5005Z" fill="white" stroke="#263238" stroke-linecap="round" stroke-linejoin="round"/>
<path d="M349.981 113.158L354.736 120.327L350.613 181.119L356.676 196.95L362.896 181.55L357.566 121.232L361.847 110.874L355.914 103.074L349.981 113.158Z" fill="#9468B4" stroke="#263238" stroke-linecap="round" stroke-linejoin="round"/>
<path d="M356.561 110.2L348.072 116.564L342.484 99.972L346.377 91.5684L363.744 91.1519L367.982 94.9586L367.134 116.133L356.561 110.2Z" fill="white" stroke="#263238" stroke-linecap="round" stroke-linejoin="round"/>
<path d="M365.539 87.2582L364.217 97.9314L354.708 110.199L347.597 97.759V77.7485C347.597 77.7485 360.051 80.8657 365.539 87.2582Z" fill="white" stroke="#263238" stroke-linecap="round" stroke-linejoin="round"/>
<path d="M342.713 65.079C342.713 55.3826 349.78 47.5249 358.514 47.5249C367.248 47.5249 372.089 55.8135 372.089 65.5099C372.089 68.6415 371.443 74.014 371.184 76.8727C370.739 81.7568 369.259 83.8253 366.372 88.2067C356.905 102.572 349.134 81.4982 345.155 74.4162C343.544 71.5685 342.703 68.3506 342.713 65.079Z" fill="white" stroke="#263238" stroke-linecap="round" stroke-linejoin="round"/>
<path d="M365.381 68.1245L366.717 78.1369L362.019 78.0077" fill="white"/>
<path d="M365.381 68.1245L366.717 78.1369L362.019 78.0077" stroke="#263238" stroke-linecap="round" stroke-linejoin="round"/>
<path d="M375.868 66.3862L353.286 66.4868C353.009 67.365 352.966 68.3006 353.163 69.2003C353.359 70.1001 353.788 70.9326 354.407 71.6151C355.843 73.0516 361.69 72.5488 362.623 72.1753C363.557 71.8018 364.06 67.6935 364.06 67.6935H365.741C365.741 67.6935 365.927 72.003 368.341 72.3621C370.754 72.7212 373.9 72.6063 374.503 72.1753C377.175 70.3797 375.868 66.3862 375.868 66.3862Z" fill="white" stroke="#263238" stroke-linecap="round" stroke-linejoin="round"/>
<path d="M345.5 76.0396C345.5 76.0396 350.585 86.4542 351.792 90.0598C352.999 93.6654 358.975 96.481 365.022 94.4699C371.07 92.4588 369.432 83.5094 369.432 83.5094C369.432 83.5094 363.011 78.0219 361.819 79.1999C360.627 80.3778 354.191 85.621 353.789 84.4144C353.387 83.2077 350.585 75.9965 350.585 75.9965L349.278 70.8825L351.965 69.1587C352.352 68.8357 352.605 68.3787 352.671 67.8785C352.738 67.3782 352.614 66.8712 352.324 66.4581L351.06 64.6337C350.904 64.4103 350.794 64.1579 350.737 63.8914C350.681 63.625 350.678 63.3498 350.729 63.0823C351.06 61.5165 351.965 58.27 354.062 57.3363C356.935 56.144 360.426 57.8822 363.643 58.6866C366.861 59.491 370.352 56.5893 370.352 56.5893L371.788 61.3585C374.973 58.3695 377.236 54.5313 378.31 50.2974C379.919 43.474 363.471 40.6729 358.199 40.6729C352.927 40.6729 344.567 43.5459 342.153 51.1019C339.74 58.6579 344.078 74.6892 345.5 76.0396Z" fill="#263238" stroke="#263238" stroke-linecap="round" stroke-linejoin="round"/>
<path d="M358.515 50.3408C358.515 50.3408 361.503 54.8227 357.581 55.7564C353.659 56.6902 346.017 53.3287 342.656 54.636" stroke="white" stroke-width="0.5" stroke-linecap="round" stroke-linejoin="round"/>
<path d="M351.792 60.2238C351.792 60.2238 345.643 59.4768 343.173 62.0912" stroke="white" stroke-width="0.5" stroke-linecap="round" stroke-linejoin="round"/>
<path d="M366.587 82.8774C366.587 82.8774 362.062 85.2333 359.821 82.4321" stroke="white" stroke-width="0.5" stroke-linecap="round" stroke-linejoin="round"/>
<path d="M346.26 72.8654C346.26 72.8654 341.822 67.9812 341.822 73.3107C341.822 78.6401 343.157 78.6401 345.815 80.4932C348.473 82.3463 349.378 80.0479 349.378 80.0479" fill="white"/>
<path d="M346.26 72.8654C346.26 72.8654 341.822 67.9812 341.822 73.3107C341.822 78.6401 343.157 78.6401 345.815 80.4932C348.473 82.3463 349.378 80.0479 349.378 80.0479" stroke="#263238" stroke-linecap="round" stroke-linejoin="round"/>
<path d="M405.531 403.993H405.732L405.344 402.039L385.951 200.785H326.494L306.944 403.978H307.159L319.772 405.056C319.772 405.056 333.763 358.082 333.763 354.577C333.763 351.072 337.757 318.665 337.757 318.665L357.595 248.922L375.134 318.665C375.134 318.665 379.128 351.144 379.128 354.577C379.128 358.01 393.134 405.085 393.134 405.085L404.999 404.065H405.531V403.993Z" fill="#263238" stroke="#263238" stroke-linecap="round" stroke-linejoin="round"/>
<path d="M381.512 212.623L368.282 231.513" stroke="white" stroke-width="0.5" stroke-linecap="round" stroke-linejoin="round"/>
<path d="M374.431 216.875L366.401 230.105" stroke="white" stroke-width="0.5" stroke-linecap="round" stroke-linejoin="round"/>
<path d="M336.652 215.941L348.445 228.683" stroke="white" stroke-width="0.5" stroke-linecap="round" stroke-linejoin="round"/>
<path d="M335.702 220.652L352.696 237.66" stroke="white" stroke-width="0.5" stroke-linecap="round" stroke-linejoin="round"/>
<path d="M330.029 202.711H382.461" stroke="white" stroke-width="0.5" stroke-linecap="round" stroke-linejoin="round"/>
<path d="M307.159 403.979C307.159 403.979 299.589 409.94 295.222 411.578C290.855 413.215 282.696 417.568 282.696 417.568C282.696 417.568 282.696 420.297 289.778 420.297H317.574L317.1 403.979H307.159Z" fill="#263238" stroke="#263238" stroke-linecap="round" stroke-linejoin="round"/>
<path d="M317.473 417.324C306.374 417.832 295.253 417.654 284.175 416.793L282.739 417.569C282.739 417.569 282.739 420.298 289.821 420.298H317.617L317.473 417.324Z" fill="white" stroke="#263238" stroke-linecap="round" stroke-linejoin="round"/>
<path d="M404.383 403.979C404.383 403.979 411.968 409.94 416.32 411.578C420.673 413.216 428.861 417.568 428.861 417.568C428.861 417.568 428.861 420.298 421.765 420.298H393.983L394.485 403.979H404.383Z" fill="#263238" stroke="#263238" stroke-linecap="round" stroke-linejoin="round"/>
<path d="M394.069 417.324C405.169 417.832 416.289 417.654 427.367 416.793L428.804 417.569C428.804 417.569 428.804 420.298 421.707 420.298H393.983L394.069 417.324Z" fill="white" stroke="#263238" stroke-linecap="round" stroke-linejoin="round"/>
<path d="M313.854 109.396L291.961 167.847H312.963L320.806 151.902L313.854 109.396Z" fill="white" stroke="#263238" stroke-linecap="round" stroke-linejoin="round"/>
<path d="M409.626 158.796C400.863 155.176 372.751 153.381 371.286 153.381C369.82 153.381 324.125 149.617 320.376 149.071C316.627 148.525 312.332 157.116 312.332 157.116L332.155 156.57L356.274 161.397C356.274 161.397 405.115 179.08 408.793 178.017C409.294 177.85 409.747 177.564 410.114 177.184" fill="white"/>
<path d="M409.626 158.796C400.863 155.176 372.751 153.381 371.286 153.381C369.82 153.381 324.125 149.617 320.376 149.071C316.627 148.525 312.332 157.116 312.332 157.116L332.155 156.57L356.274 161.397C356.274 161.397 405.115 179.08 408.793 178.017C409.294 177.85 409.747 177.564 410.114 177.184" stroke="#263238" stroke-linecap="round" stroke-linejoin="round"/>
<path d="M307.505 156.053L383.065 148.554L383.611 154.975L318.222 174.813C318.222 174.813 306.442 177.485 297.32 175.876C288.199 174.268 292.508 165.16 294.648 159.802" fill="white"/>
<path d="M307.505 156.053L383.065 148.554L383.611 154.975L318.222 174.813C318.222 174.813 306.442 177.485 297.32 175.876C288.199 174.268 292.508 165.16 294.648 159.802" stroke="#263238" stroke-linecap="round" stroke-linejoin="round"/>
<path d="M383.078 148.554L397.544 148.008L401.825 156.584L383.61 154.99L383.078 148.554Z" fill="white" stroke="#263238" stroke-linecap="round" stroke-linejoin="round"/>
<path d="M479.424 274.593L491.764 421.504C491.796 421.723 491.873 421.933 491.99 422.121C492.107 422.309 492.26 422.471 492.442 422.598C492.624 422.724 492.829 422.812 493.046 422.856C493.263 422.9 493.487 422.9 493.703 422.854C494.073 422.763 494.397 422.541 494.616 422.229C494.835 421.918 494.934 421.538 494.895 421.159L486.492 274.636L479.424 274.593Z" fill="#263238" stroke="#263238" stroke-linecap="round" stroke-linejoin="round"/>
<path d="M562.354 274.593L574.737 421.992C574.767 422.212 574.843 422.423 574.959 422.612C575.075 422.802 575.229 422.965 575.411 423.092C575.593 423.218 575.8 423.306 576.017 423.349C576.235 423.393 576.459 423.39 576.676 423.343C577.046 423.251 577.37 423.029 577.589 422.718C577.808 422.406 577.907 422.026 577.868 421.648L569.436 274.593H562.354Z" fill="#263238" stroke="#263238" stroke-linecap="round" stroke-linejoin="round"/>
<path d="M220.122 274.593L213.673 420.225C213.637 420.607 213.739 420.99 213.96 421.303C214.181 421.617 214.507 421.841 214.879 421.935C215.093 421.99 215.315 421.998 215.532 421.959C215.749 421.921 215.955 421.836 216.136 421.71C216.317 421.585 216.47 421.422 216.582 421.233C216.695 421.044 216.766 420.832 216.79 420.613L227.233 274.593H220.122Z" fill="#263238" stroke="#263238" stroke-linecap="round" stroke-linejoin="round"/>
<path d="M143.685 274.592L137.192 419.679C137.16 420.062 137.265 420.445 137.489 420.758C137.712 421.071 138.04 421.294 138.413 421.388C138.626 421.441 138.848 421.447 139.064 421.408C139.28 421.368 139.485 421.283 139.666 421.158C139.846 421.033 139.998 420.871 140.112 420.683C140.225 420.495 140.297 420.285 140.324 420.067L150.724 274.535L143.685 274.592Z" fill="#263238" stroke="#263238" stroke-linecap="round" stroke-linejoin="round"/>
<path d="M578.5 266.448H139.088V279.06H578.5V266.448Z" fill="#9468B4" stroke="#263238" stroke-linecap="round" stroke-linejoin="round"/>
<path d="M578.5 266.448H139.088V270.772H578.5V266.448Z" fill="#263238" stroke="#263238" stroke-linecap="round" stroke-linejoin="round"/>
<path d="M578.486 266.448H468.536V279.06H578.486V266.448Z" fill="#263238" stroke="#263238" stroke-linecap="round" stroke-linejoin="round"/>
<path d="M582.408 262.253H135.167V267.066H582.408V262.253Z" fill="#9468B4" stroke="#263238" stroke-linecap="round" stroke-linejoin="round"/>
<path d="M582.394 262.253H473.119V267.066H582.394V262.253Z" fill="#263238" stroke="#263238" stroke-linecap="round" stroke-linejoin="round"/>
<path d="M234.788 261.822H294.806C295.034 261.824 295.259 261.758 295.45 261.633C295.642 261.508 295.793 261.329 295.883 261.118L312.503 223.223C312.58 223.046 312.611 222.852 312.593 222.659C312.576 222.467 312.511 222.281 312.404 222.12C312.297 221.959 312.151 221.827 311.981 221.736C311.81 221.646 311.619 221.599 311.426 221.6H251.409C251.184 221.6 250.964 221.665 250.775 221.787C250.587 221.91 250.437 222.084 250.346 222.29L233.783 260.185C233.706 260.357 233.672 260.547 233.684 260.735C233.696 260.924 233.754 261.107 233.853 261.269C233.952 261.43 234.089 261.565 234.252 261.661C234.415 261.758 234.599 261.813 234.788 261.822Z" fill="white" stroke="#263238" stroke-linecap="round" stroke-linejoin="round"/>
<path d="M240.419 258.863H291.63C291.822 258.863 292.01 258.807 292.17 258.702C292.331 258.598 292.458 258.449 292.535 258.274L306.714 225.938C306.79 225.786 306.827 225.616 306.818 225.445C306.81 225.274 306.758 225.109 306.667 224.964C306.576 224.82 306.449 224.701 306.299 224.62C306.148 224.539 305.979 224.498 305.809 224.502H254.597C254.402 224.5 254.21 224.557 254.046 224.664C253.883 224.772 253.755 224.925 253.678 225.105L239.528 257.469C239.462 257.619 239.434 257.783 239.446 257.946C239.458 258.11 239.511 258.268 239.599 258.406C239.687 258.544 239.808 258.658 239.952 258.737C240.095 258.817 240.255 258.86 240.419 258.863Z" fill="#9468B4" stroke="#263238" stroke-linecap="round" stroke-linejoin="round"/>
<path d="M295.639 259.308H205.469V262.253H295.639V259.308Z" fill="white" stroke="#263238" stroke-linecap="round" stroke-linejoin="round"/>
<path d="M295.654 259.308H251.941V262.253H295.654V259.308Z" fill="white" stroke="#263238" stroke-linecap="round" stroke-linejoin="round"/>
<path d="M324.612 238.809H308.71V262.31H324.612V238.809Z" fill="white" stroke="#263238" stroke-linecap="round" stroke-linejoin="round"/>
<path d="M323.91 259.107H322.243C321.897 259.107 321.564 258.97 321.319 258.724C321.074 258.479 320.936 258.147 320.936 257.8C320.936 257.453 321.074 257.121 321.319 256.876C321.564 256.631 321.897 256.493 322.243 256.493H323.91C324.568 256.489 325.198 256.226 325.663 255.761C326.128 255.296 326.391 254.666 326.395 254.008V248.262C326.391 247.604 326.128 246.974 325.663 246.509C325.198 246.043 324.568 245.78 323.91 245.777H321.769C321.598 245.777 321.428 245.743 321.269 245.677C321.111 245.611 320.966 245.515 320.845 245.394C320.724 245.272 320.627 245.128 320.562 244.97C320.496 244.811 320.462 244.641 320.462 244.469C320.462 244.298 320.496 244.128 320.562 243.969C320.627 243.81 320.724 243.666 320.845 243.545C320.966 243.424 321.111 243.327 321.269 243.262C321.428 243.196 321.598 243.162 321.769 243.162H323.91C324.579 243.162 325.243 243.294 325.861 243.55C326.48 243.807 327.042 244.182 327.516 244.656C327.989 245.129 328.365 245.691 328.621 246.31C328.877 246.929 329.009 247.592 329.009 248.262V254.008C329.009 254.677 328.877 255.341 328.621 255.959C328.365 256.578 327.989 257.14 327.516 257.614C327.042 258.087 326.48 258.463 325.861 258.719C325.243 258.975 324.579 259.107 323.91 259.107Z" fill="white" stroke="#263238" stroke-linecap="round" stroke-linejoin="round"/>
<path d="M448.856 261.822H388.839C388.613 261.821 388.392 261.754 388.203 261.629C388.014 261.504 387.866 261.326 387.776 261.118L371.156 223.223C371.08 223.047 371.049 222.854 371.066 222.663C371.082 222.471 371.146 222.287 371.251 222.126C371.357 221.965 371.5 221.833 371.669 221.741C371.838 221.65 372.027 221.601 372.219 221.6H432.236C432.463 221.599 432.685 221.664 432.876 221.786C433.068 221.908 433.219 222.083 433.313 222.29L449.934 260.185C450.009 260.363 450.04 260.558 450.022 260.751C450.005 260.944 449.94 261.13 449.833 261.292C449.727 261.454 449.582 261.587 449.411 261.679C449.241 261.772 449.05 261.821 448.856 261.822Z" fill="white" stroke="#263238" stroke-linecap="round" stroke-linejoin="round"/>
<path d="M388.006 262.253H478.176V259.309H388.006V262.253Z" fill="white" stroke="#263238" stroke-linecap="round" stroke-linejoin="round"/>
<path d="M388.007 262.253H450.179V259.309H388.007V262.253Z" fill="white" stroke="#263238" stroke-linecap="round" stroke-linejoin="round"/>
<path d="M411.536 237.33C411.862 237.945 411.998 238.642 411.929 239.334C411.859 240.027 411.587 240.683 411.146 241.221C410.705 241.759 410.115 242.155 409.45 242.36C408.785 242.564 408.074 242.567 407.407 242.369C406.74 242.171 406.146 241.781 405.7 241.247C405.254 240.713 404.976 240.059 404.9 239.368C404.824 238.676 404.954 237.977 405.273 237.359C405.592 236.741 406.087 236.231 406.695 235.893C407.528 235.443 408.505 235.342 409.413 235.611C410.32 235.88 411.084 236.498 411.536 237.33Z" fill="white" stroke="#263238" stroke-linecap="round" stroke-linejoin="round"/>
<path d="M130.886 125.785L135.31 169.498L155.421 227.72L148.54 231.656L124.924 178.361L113.13 132.609C113.13 132.609 112.139 118.847 117.066 116.807C121.994 114.767 128.918 116.937 130.886 125.785Z" fill="white" stroke="#263238" stroke-linecap="round" stroke-linejoin="round"/>
<path d="M155.479 227.777C155.479 227.777 159.903 237.128 160.406 239.585C160.909 242.041 161.412 247.055 159.472 249.296C157.131 251.996 154.99 249.913 154.99 249.913C154.99 249.913 149.086 248.477 149.086 243.521C149.086 238.565 148.598 231.713 148.598 231.713L155.479 227.777Z" fill="white" stroke="#263238" stroke-linecap="round" stroke-linejoin="round"/>
<path d="M150.652 242.443L158.94 244.598" stroke="#263238" stroke-linecap="round" stroke-linejoin="round"/>
<path d="M152.634 236.855L154.99 240.562C154.99 240.562 149.502 249.942 152.447 247.485C155.392 245.029 160.894 242.041 160.405 239.585C159.574 237.007 158.476 234.523 157.13 232.172" fill="white"/>
<path d="M152.634 236.855L154.99 240.562C154.99 240.562 149.502 249.942 152.447 247.485C155.392 245.029 160.894 242.041 160.405 239.585C159.574 237.007 158.476 234.523 157.13 232.172" stroke="#263238" stroke-linecap="round" stroke-linejoin="round"/>
<path d="M107.371 73.2524C107.371 73.2524 102.315 67.7937 90.6505 71.2987C78.9861 74.8038 76.2854 93.4784 76.6446 102.801C77.0037 112.124 85.9818 122.639 83.2668 127.308C80.5519 131.977 70.4245 142.865 71.2002 154.602C71.9759 166.338 81.701 175.603 95.707 171.322C109.713 167.042 107.371 149.904 104.585 143.641C101.798 137.378 107.702 134.692 109.641 121.074C111.58 107.456 99.1402 96.179 99.1402 86.4539C99.1402 76.7287 109.196 78.2945 109.196 78.2945L107.371 73.2524Z" fill="#263238" stroke="#263238" stroke-linecap="round" stroke-linejoin="round"/>
<path d="M89.8443 110.171C91.683 113.963 93.8234 118.014 95.9494 122.381C103.046 136.861 97.5008 142.09 86.7127 150.106C75.9246 158.121 78.3953 167.976 81.1678 169.498" stroke="white" stroke-width="0.5" stroke-linecap="round" stroke-linejoin="round"/>
<path d="M103.663 77.0874C103.663 77.0874 89.1834 78.3228 85.4772 87.5595C83.2363 93.1762 84.9601 99.4681 88.264 106.794" stroke="white" stroke-width="0.5" stroke-linecap="round" stroke-linejoin="round"/>
<path d="M93.0781 165.892C94.1921 166.311 95.3802 166.497 96.5688 166.438" stroke="white" stroke-width="0.5" stroke-linecap="round" stroke-linejoin="round"/>
<path d="M107.371 76.125C107.371 76.125 93.8105 78.5814 90.7364 88.4358C87.6623 98.2902 105.834 112.856 106.753 123.573C107.673 134.289 94.7299 140.552 90.1331 148.87C86.901 154.702 87.2601 161.123 90.6646 164.355" stroke="white" stroke-width="0.5" stroke-linecap="round" stroke-linejoin="round"/>
<path d="M142.162 274.462C142.162 274.462 138.815 303.365 135.454 312.587C132.092 321.809 124.565 394.281 124.148 398.476C123.732 402.67 135.037 412.295 139.648 415.24C144.259 418.184 142.162 419.003 137.134 419.42C132.107 419.836 126.246 419.003 123.732 414.392C121.218 409.781 115.343 408.531 115.343 408.531L114.509 418.587H112.829L111.579 406.017C111.152 403.164 111.587 400.247 112.829 397.643C114.926 393.031 115.702 383.392 115.702 370.349C115.702 357.306 113.188 336.404 114.438 326.349C115.687 316.293 120.73 308.752 120.73 300.377C120.73 292.002 121.146 279.433 121.146 279.433L142.162 274.462Z" fill="white" stroke="#263238" stroke-linecap="round" stroke-linejoin="round"/>
<path d="M111.579 406.018C111.246 403.856 111.428 401.646 112.111 399.568C114.711 403.963 122.166 409.925 127.912 412.295C131.028 413.644 134.424 414.216 137.81 413.961C138.485 414.464 139.117 414.895 139.649 415.24C144.26 418.113 142.163 419.004 137.135 419.42C132.107 419.837 126.246 419.004 123.732 414.392C121.218 409.781 115.343 408.531 115.343 408.531L114.51 418.587H112.829L111.579 406.018Z" fill="#263238" stroke="#263238" stroke-linecap="round" stroke-linejoin="round"/>
<path d="M117.857 279.074C117.857 279.074 110.674 300.435 104.038 318.865C97.4012 337.295 81.4129 379.615 79.7322 387.156C78.0515 394.698 77.2183 408.531 72.5497 415.656C67.8811 422.782 63.3273 426.129 64.1605 413.559C64.9937 400.99 72.5497 391.767 74.216 382.129C75.8824 372.49 76.7299 337.726 82.5909 322.226C88.4518 306.727 94.7437 294.157 95.5194 289.546C96.0922 284.957 96.3705 280.337 96.3526 275.712L117.857 279.074Z" fill="white" stroke="#263238" stroke-linecap="round" stroke-linejoin="round"/>
<path d="M65.023 408.173C65.0849 410.542 65.8226 412.845 67.149 414.809C69.5624 417.51 73.4553 412.267 75.4808 409.063C74.8181 411.374 73.852 413.586 72.6078 415.643C67.9966 422.753 63.3854 426.115 64.2186 413.545C64.3572 411.738 64.626 409.942 65.023 408.173Z" fill="#263238" stroke="#263238" stroke-linecap="round" stroke-linejoin="round"/>
<path d="M114.553 110.457C114.553 110.457 112.039 112.554 110.358 126.804C108.677 141.055 119.164 185.457 119.164 185.457C119.164 185.457 101.15 214.963 96.9555 229.629C92.7609 244.296 90.2471 299.242 90.2471 299.242C90.2471 299.242 99.0528 302.604 117.067 303.853C135.08 305.103 144.719 300.506 144.719 300.506C144.719 300.506 145.552 222.088 145.552 210.007C145.552 197.926 146.4 170.445 147.65 167.098C148.899 163.751 152.677 154.946 152.677 151.598C152.677 148.251 127.481 112.554 127.481 112.554L114.553 110.457Z" fill="white" stroke="#263238" stroke-linecap="round" stroke-linejoin="round"/>
<path d="M96.9123 229.63C100.216 218.138 113.892 187.569 118.776 182.312C126.203 184.782 139.749 187.224 145.797 185.414C145.61 189.724 145.509 205.813 145.509 209.935C145.509 222.088 144.676 300.435 144.676 300.435C144.676 300.435 135.037 305.046 117.023 303.782C99.0096 302.518 90.2039 299.171 90.2039 299.171C90.2039 299.171 92.7177 244.297 96.9123 229.63Z" fill="#263238" stroke="#263238" stroke-linecap="round" stroke-linejoin="round"/>
<path d="M123.847 61.0704C123.847 61.0704 128.343 51.2734 137.235 51.2734C146.127 51.2734 150.077 59.1742 148.109 66.0838C146.141 72.9934 154.028 71.0254 155.019 75.4785C156.01 79.9317 148.598 82.8765 144.647 82.8765C140.697 82.8765 123.847 61.0704 123.847 61.0704Z" fill="#263238" stroke="#263238" stroke-linecap="round" stroke-linejoin="round"/>
<path d="M136.832 60.0653C139.475 58.6288 142.578 57.5945 144.015 59.8354C146.787 64.1449 138.168 67.5351 140.941 72.1606C143.713 76.7862 150.493 75.5508 150.177 77.0878C149.861 78.6249 145.566 79.5442 145.566 79.5442" stroke="white" stroke-width="0.5" stroke-linecap="round" stroke-linejoin="round"/>
<path d="M132.308 63.196C132.308 63.196 133.156 62.4634 134.42 61.5728" stroke="white" stroke-width="0.5" stroke-linecap="round" stroke-linejoin="round"/>
<path d="M146.645 83.868C146.016 83.4006 145.521 82.7765 145.209 82.058C144.491 76.7573 142.939 71.5428 140.009 68.6123C135.575 64.439 129.922 61.796 123.877 61.0707C122.087 60.8068 120.26 60.9743 118.547 61.5591C110.919 64.231 104.369 69.5029 105.777 82.216C107.328 96.2219 118.231 99.7269 118.231 99.7269L119.007 108.346L129.896 113.402L130.284 104.065C130.284 104.065 137.667 107.168 140.339 106.78C143.011 106.392 143.844 102.887 145.008 97.8308C145.435 95.5235 145.646 93.1815 145.64 90.835L148.901 87.5885C150.754 85.7067 148.929 85.247 146.645 83.868Z" fill="white" stroke="#263238" stroke-linecap="round" stroke-linejoin="round"/>
<path d="M105.747 82.216C104.311 69.5029 110.89 64.231 118.518 61.5591C120.23 60.9743 122.057 60.8068 123.847 61.0707C127.968 61.6217 131.936 62.9995 135.512 65.1216C133.328 64.6763 137.049 71.0975 133.63 75.1771C130.636 78.9643 126.819 82.02 122.468 84.1122C122.468 84.1122 118.59 80.995 117.412 85.2757C116.234 89.5565 116.636 92.6594 119.753 93.4494C122.87 94.2395 124.063 93.4494 124.063 93.4494C124.063 93.4494 121.994 98.3479 118.317 100.373V99.6695C118.317 99.6695 107.37 96.2363 105.747 82.216Z" fill="#263238" stroke="#263238" stroke-linecap="round" stroke-linejoin="round"/>
<path d="M135.454 110.874L133.371 122.194L111.163 110.457L113.26 99.9854L135.454 110.874Z" fill="white" stroke="#263238" stroke-linecap="round" stroke-linejoin="round"/>
<path d="M124.724 206.316C127.024 206.808 129.358 207.124 131.705 207.264C133.53 207.149 136.015 205.095 137.854 205.971C139.692 206.847 142.264 212.378 142.264 212.378C142.264 212.378 144.706 213.613 144.002 214.92C143.298 216.227 140.281 217.434 140.281 217.434C140.281 217.434 137.408 220.149 135.742 220.422C134.076 220.695 123.919 213.24 123.919 213.24L124.724 206.316Z" fill="white" stroke="#263238" stroke-linecap="round" stroke-linejoin="round"/>
<path d="M125.801 211.687C126.137 211.283 126.379 210.809 126.508 210.3C126.637 209.79 126.65 209.258 126.547 208.743C126.444 208.228 126.226 207.742 125.911 207.322C125.595 206.902 125.19 206.557 124.724 206.314L96.8123 180.17L127.209 132.909C128.565 130.41 128.894 127.481 128.127 124.744C127.359 122.006 125.555 119.675 123.098 118.245C120.64 116.816 117.722 116.4 114.963 117.086C112.204 117.772 109.821 119.506 108.319 121.92L81.9732 174.28C80.6034 175.61 79.8115 177.425 79.7684 179.333C79.7254 181.241 80.4348 183.09 81.7434 184.48L81.8439 184.58C84.4871 188.66 113.562 209.992 122.066 212.779C122.727 212.988 123.435 212.996 124.1 212.802C124.765 212.607 125.357 212.219 125.801 211.687Z" fill="white" stroke="#263238" stroke-linecap="round" stroke-linejoin="round"/>
<path d="M236.237 139.331C236.237 139.331 239.842 150.493 239.842 152.662C239.816 154.229 239.696 155.793 239.483 157.345L242.658 162.272C242.844 162.589 242.902 162.965 242.819 163.323C242.736 163.682 242.519 163.994 242.213 164.197L237.314 167.07C237.314 167.07 236.596 178.562 235.878 179.999C235.159 181.435 222.949 181.09 222.949 181.09L218.984 188.646L198.442 180.731L203.844 165.95L202.723 143.641C202.723 143.641 215.336 132.494 236.237 139.331Z" fill="white" stroke="#263238" stroke-linecap="round" stroke-linejoin="round"/>
<path d="M222.173 166.482C222.173 166.482 218.596 169.843 215.91 170.073C213.223 170.303 204.489 168.277 203.814 167.387C203.139 166.496 197.106 153.955 197.321 147.908C197.537 141.86 197.781 132.911 204.26 130.009C210.738 127.107 221.052 127.983 226.425 124.636C231.797 121.289 240.301 118.589 244.783 124.407C249.265 130.224 245.904 138.283 242.327 141.645C238.75 145.006 234.268 145.954 234.713 147.391C235.159 148.827 237.845 150.522 236.279 152.763C234.713 155.004 229.097 157.073 229.097 157.906C229.097 158.739 230.447 161.942 228.881 162.388C227.315 162.833 225.735 159.256 224.17 159.256C222.604 159.256 219.271 163.58 222.173 166.482Z" fill="#263238" stroke="#263238" stroke-linecap="round" stroke-linejoin="round"/>
<path d="M212.822 156.21C212.177 156.932 211.627 157.734 211.185 158.595" stroke="white" stroke-width="0.5" stroke-linecap="round" stroke-linejoin="round"/>
<path d="M242.242 133.011C241.958 135.476 241.059 137.831 239.629 139.859C238.198 141.887 236.281 143.523 234.054 144.618C228.308 147.591 220.652 150.019 215.566 153.754" stroke="white" stroke-width="0.5" stroke-linecap="round" stroke-linejoin="round"/>
<path d="M234.714 147.463C234.714 147.463 229.615 151.772 224.156 156.211C220.431 159.094 216.29 161.395 211.874 163.035" stroke="white" stroke-width="0.5" stroke-linecap="round" stroke-linejoin="round"/>
<path d="M221.815 167.084L224.688 167.803C224.514 169.146 224.617 170.51 224.99 171.812C225.363 173.114 225.998 174.326 226.857 175.373" fill="white"/>
<path d="M221.815 167.084L224.688 167.803C224.514 169.146 224.617 170.51 224.99 171.812C225.363 173.114 225.998 174.326 226.857 175.373" stroke="#263238" stroke-linecap="round" stroke-linejoin="round"/>
<path d="M225.147 159.371L245.43 154.343" stroke="#263238" stroke-linecap="round" stroke-linejoin="round"/>
<path d="M240.215 153.94L244.841 154.142C244.841 154.142 246.435 159.37 241.623 159.974" stroke="#263238" stroke-linecap="round" stroke-linejoin="round"/>
<path d="M219.761 402.298C219.761 402.298 238.435 414.091 241.725 414.091C245.014 414.091 246.652 417.05 245.014 417.381C243.377 417.711 233.206 418.027 226.34 418.358C219.473 418.688 214.848 418.027 210.926 418.027C207.005 418.027 202.393 418.358 200.425 417.381C198.457 416.404 201.747 405.242 201.747 403.274C201.747 401.306 217.462 400.976 219.761 402.298Z" fill="#263238" stroke="#263238" stroke-linecap="round" stroke-linejoin="round"/>
<path d="M243.835 414.58C236.581 416.964 224.816 415.399 217.749 414.752C212.161 414.249 203.384 414.134 199.807 414.106C199.663 415.786 199.807 417.065 200.367 417.381C202.335 418.358 206.932 418.027 210.868 418.027C214.804 418.027 219.386 418.688 226.281 418.358C233.177 418.027 243.333 417.697 244.956 417.381C246.234 417.122 245.631 415.427 243.835 414.58Z" fill="white" stroke="#263238" stroke-linecap="round" stroke-linejoin="round"/>
<path d="M234.512 321.279L219.774 395.187L222.848 402.858C220.642 406.053 217.313 408.299 213.525 409.15C209.312 409.978 205.033 410.42 200.74 410.471C200.74 410.471 199.102 402.269 200.094 401.278C201.085 400.287 201.401 396.365 201.401 396.365L209.919 321.925L234.512 321.279Z" fill="#9468B4" stroke="#263238" stroke-linecap="round" stroke-linejoin="round"/>
<path d="M279.432 399.799C279.432 399.799 290.924 409.308 296.168 410.946C301.411 412.583 306.985 414.221 306.985 415.859C306.985 417.496 294.53 419.134 285.02 418.157C275.511 417.18 261.074 412.914 257.799 412.914C254.524 412.914 255.17 404.381 255.17 403.074C255.17 401.767 271.244 391.266 279.432 399.799Z" fill="#263238" stroke="#263238" stroke-linecap="round" stroke-linejoin="round"/>
<path d="M307.043 415.858C307.043 415.269 306.31 414.68 305.147 414.091C295.76 415.347 286.244 415.279 276.876 413.89C267.439 412.54 259.538 410.73 255.501 409.724C255.846 411.491 256.521 412.913 257.857 412.913C261.132 412.913 275.569 417.223 285.079 418.157C294.588 419.09 307.043 417.496 307.043 415.858Z" fill="white" stroke="#263238" stroke-linecap="round" stroke-linejoin="round"/>
<path d="M222.389 288.153C232.222 287.4 242.106 287.622 251.895 288.814C268.616 290.782 305.979 293.123 306.626 297.347C307.272 301.57 277.637 390.331 277.637 392.615C277.637 394.9 280.252 397.212 280.912 398.519C281.329 399.451 281.554 400.458 281.573 401.479C281.573 401.479 273.543 410.098 267.309 412.439C261.074 414.781 255.817 412.583 254.524 412.583C253.231 412.583 253.217 403.734 254.208 399.468C255.199 395.201 256.822 384.384 257.153 383.407C257.483 382.431 275.439 319.311 275.439 319.311C275.439 319.311 226.598 327.183 197.423 323.893C168.247 320.604 165.288 316.035 163.651 309.14C162.013 302.245 165.288 288.483 165.288 288.483L222.389 288.153Z" fill="#9468B4" stroke="#263238" stroke-linecap="round" stroke-linejoin="round"/>
<path d="M218.697 309.4C218.034 310.358 217.294 311.262 216.484 312.1" stroke="#263238" stroke-linecap="round" stroke-linejoin="round"/>
<path d="M227.634 291.759C225.749 296.48 223.575 301.081 221.126 305.535" stroke="#263238" stroke-linecap="round" stroke-linejoin="round"/>
<path d="M223.726 295.049C219.769 301.576 213.778 306.623 206.674 309.414" stroke="#263238" stroke-linecap="round" stroke-linejoin="round"/>
<path d="M298.165 313.149C299.286 312.718 300.363 312.272 301.383 311.813L298.165 313.149Z" fill="white"/>
<path d="M298.165 313.149C299.286 312.718 300.363 312.272 301.383 311.813" stroke="#263238" stroke-linecap="round" stroke-linejoin="round"/>
<path d="M275.44 319.311C281.75 318.092 287.985 316.514 294.115 314.585L275.44 319.311Z" fill="white"/>
<path d="M275.44 319.311C281.75 318.092 287.985 316.514 294.115 314.585" stroke="#263238" stroke-linecap="round" stroke-linejoin="round"/>
<path d="M313.349 210.409C314.038 207.666 315.188 207.881 314.268 206.976C313.004 205.712 311.984 207.206 308.321 209.26C304.658 211.314 301.009 213.828 301.009 213.828C301.09 213.066 301.406 212.348 301.914 211.774C302.841 210.259 303.337 208.521 303.351 206.746C303.351 205.31 302.202 205.597 301.742 206.976C301.282 208.355 297.174 210.855 296.944 212.004C296.714 213.153 295.895 217.664 295.895 217.664C294.588 219.632 294.588 228.811 294.588 228.811L267.97 248.807L254.524 264.608C254.524 264.608 260.428 274.118 263.703 272.811C266.979 271.504 268.616 270.182 276.488 263.617C283.154 258.058 299.86 232.416 299.86 232.416C302.77 230.589 305.523 228.523 308.091 226.239C311.054 222.888 312.804 218.638 313.062 214.173C313 212.911 313.097 211.647 313.349 210.409Z" fill="white" stroke="#263238" stroke-linecap="round" stroke-linejoin="round"/>
<path d="M190.183 180.071C190.183 180.071 192.711 170.59 203.456 172.486C214.201 174.382 222.418 183.231 224.314 186.391C226.21 189.552 189.551 185.127 189.551 185.127L190.183 180.071Z" fill="white" stroke="#263238" stroke-linecap="round" stroke-linejoin="round"/>
<path d="M252.124 262.871C252.124 262.871 249.625 265.572 252.124 269.824C253.834 272.769 256.85 275.024 262.625 274.033C268.026 273.085 276.143 259.668 276.143 250.23C276.143 240.792 269.19 240.175 266.662 242.013C264.133 243.852 252.124 262.871 252.124 262.871Z" fill="white" stroke="#263238" stroke-linecap="round" stroke-linejoin="round"/>
<path d="M194.838 178.965C194.838 178.965 169.268 191.103 165.663 193.33C162.057 195.556 159.759 224.143 159.759 229.07C159.759 233.997 163.364 282.221 164.341 290.38C165.318 298.539 196.806 304.156 207.307 301.197C217.808 298.238 228.036 290.782 228.036 288.153C228.036 285.525 227.044 263.244 227.705 258.978C228.366 254.712 234.256 236.683 234.256 236.683L252.154 265.241C252.154 265.241 254.036 268.746 260.687 265.988C270.197 262.052 270.987 246.84 270.987 246.84C270.987 246.84 260.5 228.481 257.541 219.302C254.582 210.123 253.232 203.227 251.968 201.59C250.704 199.952 221.14 186.176 215.897 182.57C212.928 180.334 209.468 178.841 205.805 178.213C202.142 177.586 198.381 177.844 194.838 178.965Z" fill="white" stroke="#263238" stroke-linecap="round" stroke-linejoin="round"/>
<path d="M234.182 236.684L225.664 224.215" stroke="#263238" stroke-linecap="round" stroke-linejoin="round"/>
<path d="M232.803 234.903L217.792 227.505" stroke="#263238" stroke-linecap="round" stroke-linejoin="round"/>
<path d="M188.315 328.95L201.416 422.065C201.446 422.28 201.521 422.487 201.636 422.673C201.751 422.858 201.903 423.017 202.083 423.14C202.262 423.263 202.466 423.347 202.68 423.387C202.894 423.427 203.115 423.422 203.327 423.372C203.695 423.281 204.018 423.062 204.24 422.754C204.461 422.446 204.565 422.069 204.533 421.691L195.297 327.413L188.315 328.95Z" fill="#263238" stroke="#263238" stroke-linecap="round" stroke-linejoin="round"/>
<path d="M150.679 329.682L128.787 421.13C128.737 421.342 128.731 421.562 128.771 421.777C128.811 421.991 128.895 422.194 129.018 422.374C129.141 422.554 129.301 422.706 129.486 422.821C129.671 422.936 129.878 423.011 130.094 423.041C130.469 423.096 130.851 423.013 131.168 422.807C131.486 422.601 131.717 422.285 131.818 421.92L157.244 333.173L150.679 329.682Z" fill="#263238" stroke="#263238" stroke-linecap="round" stroke-linejoin="round"/>
<path d="M190.442 328.548L176.508 421.533C176.476 421.747 176.488 421.966 176.544 422.175C176.6 422.385 176.698 422.58 176.833 422.75C176.967 422.92 177.136 423.06 177.327 423.162C177.518 423.264 177.728 423.326 177.944 423.343C178.322 423.364 178.694 423.247 178.993 423.015C179.291 422.782 179.495 422.45 179.568 422.079L197.251 331.464L190.442 328.548Z" fill="#263238" stroke="#263238" stroke-linecap="round" stroke-linejoin="round"/>
<path d="M239.771 328.95L252.872 422.064C252.902 422.28 252.977 422.487 253.092 422.672C253.207 422.857 253.359 423.016 253.539 423.14C253.719 423.263 253.922 423.347 254.136 423.387C254.35 423.426 254.571 423.421 254.783 423.371C255.151 423.28 255.474 423.061 255.696 422.753C255.917 422.445 256.021 422.068 255.989 421.69L246.71 327.384L239.771 328.95Z" fill="#263238" stroke="#263238" stroke-linecap="round" stroke-linejoin="round"/>
<path d="M129.949 232.316L145.894 335.989H259.292C259.292 335.989 260.973 306.11 255.974 295.551C250.975 284.993 189.248 307.632 187.022 307.043C185.37 306.627 187.812 253.103 190.843 232.187C191.055 230.715 190.948 229.214 190.529 227.787C190.11 226.359 189.389 225.039 188.415 223.915C187.441 222.791 186.236 221.889 184.883 221.272C183.529 220.654 182.059 220.335 180.572 220.336H140.206C138.707 220.334 137.225 220.658 135.864 221.284C134.502 221.91 133.291 222.824 132.317 223.962C131.342 225.101 130.625 226.438 130.217 227.88C129.808 229.322 129.717 230.836 129.949 232.316Z" fill="#9468B4" stroke="#263238" stroke-linecap="round" stroke-linejoin="round"/>
<path d="M255.976 295.552C250.977 284.993 189.25 307.633 187.023 307.044C185.371 306.627 187.814 253.103 190.845 232.188C191.109 230.734 191.051 229.24 190.673 227.812C190.295 226.383 189.606 225.056 188.657 223.924C187.708 222.791 186.521 221.882 185.18 221.261C183.839 220.64 182.378 220.322 180.901 220.329C179.423 220.337 177.966 220.67 176.631 221.305C175.297 221.939 174.119 222.861 173.182 224.002C172.244 225.144 171.569 226.478 171.206 227.911C170.842 229.343 170.799 230.837 171.078 232.288L187.023 335.961H259.294C259.294 335.961 260.975 306.11 255.976 295.552Z" fill="#263238" stroke="#263238" stroke-linecap="round" stroke-linejoin="round"/>
<path d="M313.348 210.41C313.348 210.41 311.523 212.235 308.78 215.438L313.348 210.41Z" fill="white"/>
<path d="M313.348 210.41C313.348 210.41 311.523 212.235 308.78 215.438" stroke="#263238" stroke-linecap="round" stroke-linejoin="round"/>
<path d="M313.062 214.116C313.062 214.116 310.835 218.641 309.471 220.695L313.062 214.116Z" fill="white"/>
<path d="M313.062 214.116C313.062 214.116 310.835 218.641 309.471 220.695" stroke="#263238" stroke-linecap="round" stroke-linejoin="round"/>
<path d="M5.89526 266.521C8.27986 267.555 14.0977 267.426 14.1121 267.426C14.1264 267.426 12.8623 263.619 12.7474 263.389C11.4689 260.703 7.41796 256.293 4.12837 256.738C3.58381 256.827 3.0641 257.03 2.60321 257.333C2.14231 257.636 1.7506 258.033 1.45369 258.498C1.15677 258.964 0.96132 259.486 0.880113 260.032C0.798906 260.577 0.833767 261.134 0.982421 261.666C1.52829 263.935 3.85543 265.63 5.89526 266.521Z" fill="#263238"/>
<path d="M82.2453 246.682C78.9414 246.323 75.0628 250.848 73.8131 253.563C73.7125 253.793 72.5059 257.642 72.5633 257.642C71.9313 258.346 71.2705 259.079 70.5666 259.97C69.2737 261.55 67.8372 263.36 66.3864 265.428C64.8236 267.645 63.3849 269.947 62.0768 272.323C60.6024 274.988 59.3624 277.776 58.3707 280.655C58.3769 280.688 58.3769 280.723 58.3707 280.756C58.3707 279.793 58.3707 277.064 58.3707 276.863C57.9828 273.918 55.4977 268.459 52.2512 267.856C51.7103 267.769 51.1572 267.796 50.6274 267.935C50.0976 268.075 49.6029 268.324 49.1753 268.666C48.7476 269.009 48.3964 269.437 48.1444 269.923C47.8923 270.41 47.745 270.943 47.7118 271.49C47.5107 273.832 49.1483 276.173 50.8578 277.639C52.7252 279.305 57.8966 280.914 58.3132 281.043C57.3739 284.029 56.6443 287.077 56.1297 290.165C55.7993 291.946 55.5408 293.742 55.2966 295.552C55.2966 294.704 55.2966 293.957 55.2966 293.857C54.9231 290.912 52.4235 285.453 49.1914 284.85C48.6463 284.765 48.0894 284.795 47.5568 284.939C47.0241 285.083 46.5277 285.337 46.0997 285.685C45.6716 286.033 45.3216 286.467 45.0722 286.959C44.8228 287.452 44.6797 287.991 44.6521 288.542C44.4653 290.883 46.0886 293.225 47.8124 294.704C49.5362 296.184 53.8601 297.663 54.9949 298.023C54.9087 298.726 54.8081 299.459 54.7219 300.105C54.3341 303.438 53.9462 306.771 53.4722 310.017C53.2998 311.167 53.0987 312.287 52.8976 313.407C52.8976 312.66 52.8976 312.043 52.8976 311.971C52.5097 309.026 50.0246 303.567 46.7781 302.964C46.2329 302.881 45.6764 302.913 45.1445 303.059C44.6127 303.205 44.1174 303.461 43.6908 303.81C43.2641 304.16 42.9157 304.595 42.668 305.087C42.4204 305.58 42.279 306.119 42.2531 306.67C42.0664 308.997 43.6896 311.339 45.4134 312.818C47.5583 314.236 49.908 315.317 52.3805 316.022C52.1362 317.171 51.892 318.306 51.6047 319.412C51.3893 320.159 51.2456 320.849 50.987 321.624C50.7285 322.4 50.513 323.061 50.2832 323.808C49.7804 325.172 49.2776 326.595 48.7605 327.916C48.4013 328.85 48.0422 329.726 47.6974 330.602C47.8698 329.468 48.1715 327.227 48.1859 327.04C48.1454 324.43 47.4382 321.873 46.1317 319.613C46.1673 319.327 46.1673 319.037 46.1317 318.751C46.0665 318.198 45.8844 317.666 45.5974 317.188C45.3104 316.711 44.9251 316.301 44.4672 315.984C44.0092 315.668 43.4891 315.452 42.9414 315.352C42.3937 315.252 41.831 315.27 41.2906 315.404C38.0729 316.252 36.0474 321.883 35.8894 324.842C35.8894 325.014 36.0043 326.925 36.0905 328.132C35.9325 327.428 35.7745 326.695 35.6021 326.034C35.2717 324.598 34.8838 323.161 34.496 321.725C34.2661 320.992 34.0507 320.288 33.8208 319.527C33.591 318.766 33.3037 318.09 33.0451 317.286C32.4131 315.548 31.6948 313.824 30.9191 312.1C32.1545 311.799 36.5502 310.664 38.3171 309.328C40.084 307.992 41.9371 305.765 41.9227 303.424C41.9398 302.866 41.8376 302.311 41.6231 301.796C41.4086 301.281 41.0866 300.818 40.6787 300.437C40.2708 300.056 39.7863 299.767 39.2577 299.588C38.7291 299.41 38.1684 299.346 37.6132 299.402C34.3092 299.761 31.4362 305.018 30.8473 307.92C30.8473 308.107 30.6031 310.233 30.5169 311.411C30.0572 310.376 29.5831 309.342 29.0804 308.308C27.6439 305.349 26.0063 302.375 24.4405 299.416L23.004 296.687C23.4493 296.586 28.75 295.379 30.6749 293.814C32.5998 292.248 34.2949 290.265 34.2805 287.91C34.2952 287.352 34.1915 286.799 33.9762 286.285C33.7609 285.771 33.4389 285.308 33.0315 284.928C32.6241 284.548 32.1406 284.258 31.613 284.079C31.0854 283.9 30.5257 283.834 29.971 283.887C26.667 284.246 23.8084 289.504 23.2051 292.406C23.2051 292.636 22.8747 295.695 22.8459 296.485C21.8117 294.489 20.7917 292.478 19.8724 290.467C18.6103 287.748 17.5258 284.951 16.6259 282.092C16.827 282.092 22.3719 280.799 24.3543 279.219C26.1068 277.868 27.9743 275.656 27.9455 273.315C27.9626 272.757 27.8605 272.202 27.6459 271.687C27.4314 271.172 27.1094 270.708 26.7015 270.328C26.2936 269.947 25.8092 269.658 25.2805 269.479C24.7519 269.301 24.1912 269.237 23.636 269.292C20.3321 269.652 17.4734 274.909 16.8701 277.811C16.8701 278.041 16.5253 281.345 16.511 281.948C16.511 281.776 16.3961 281.618 16.3386 281.445C15.5222 278.555 14.9598 275.599 14.6579 272.611C14.4855 270.959 14.3993 269.379 14.3419 267.827C15.3905 267.698 20.0879 267.066 22.1421 265.874C24.1963 264.681 26.1355 262.728 26.4516 260.401C26.5263 259.854 26.4854 259.298 26.3313 258.768C26.1772 258.238 25.9135 257.747 25.5573 257.326C25.2011 256.904 24.7603 256.563 24.2635 256.323C23.7667 256.083 23.225 255.95 22.6736 255.933C19.3409 255.933 15.922 260.846 15.0026 263.661C15.0026 263.819 14.6291 265.428 14.3993 266.606C14.3993 265.917 14.3993 265.17 14.3993 264.523C14.3993 262.009 14.5573 259.711 14.7153 257.686C14.8159 256.522 14.9308 255.473 15.0457 254.497C16.0082 253.836 19.8437 251.135 21.0216 249.196C22.1995 247.257 23.1189 244.57 22.257 242.387C22.0719 241.868 21.7798 241.394 21.3995 240.996C21.0192 240.598 20.5593 240.284 20.0498 240.076C19.5403 239.867 18.9926 239.768 18.4423 239.785C17.8919 239.802 17.3514 239.935 16.8557 240.175C13.8965 241.697 13.1208 247.63 13.6092 250.56C13.6092 250.805 14.7728 254.683 14.8159 254.655C14.6866 255.588 14.5573 256.594 14.4424 257.7C14.2413 259.74 14.0402 262.009 13.9684 264.566C13.8818 267.278 13.9489 269.993 14.1695 272.697C14.3811 275.731 14.8618 278.74 15.606 281.69C15.6122 281.723 15.6122 281.757 15.606 281.79C15.0888 280.971 13.5518 278.73 13.4081 278.572C11.4688 276.331 6.39799 273.128 3.3526 274.435C2.85048 274.663 2.40201 274.994 2.03646 275.407C1.67091 275.819 1.39649 276.304 1.23112 276.83C1.06574 277.356 1.01312 277.911 1.0767 278.459C1.14027 279.007 1.31861 279.535 1.60007 280.009C2.73491 282.063 5.43553 283.083 7.63338 283.399C10.1042 283.758 15.3043 282.25 15.7209 282.135C16.5753 285.112 17.6263 288.03 18.8668 290.869C19.5851 292.521 20.3033 294.173 21.1509 295.81C20.6768 295.106 20.2459 294.489 20.1884 294.374C18.2491 292.133 13.1783 288.929 10.1329 290.237C9.63925 290.488 9.2045 290.841 8.85728 291.273C8.51007 291.705 8.25827 292.205 8.11848 292.741C7.97868 293.278 7.95407 293.837 8.04625 294.383C8.13844 294.93 8.34533 295.45 8.6533 295.911C9.77377 297.965 12.4888 298.985 14.6722 299.301C16.8557 299.617 21.352 298.439 22.5299 298.094C22.8459 298.726 23.1476 299.358 23.4636 299.976C24.9001 302.978 26.4947 305.966 27.8881 308.94C28.3765 309.989 28.8218 311.037 29.3246 312.086L28.477 310.879C26.5378 308.638 21.4669 305.449 18.4215 306.742C17.9202 306.973 17.4729 307.306 17.1088 307.721C16.7446 308.135 16.4717 308.622 16.3078 309.149C16.1439 309.676 16.0926 310.231 16.1573 310.779C16.222 311.328 16.4012 311.856 16.6833 312.33C17.8182 314.384 20.5188 315.404 22.7023 315.72C25.2982 315.731 27.8804 315.343 30.3589 314.571C30.7898 315.663 31.2208 316.755 31.5799 317.818C31.8241 318.565 32.097 319.254 32.2838 320.015C32.4705 320.777 32.7004 321.452 32.9015 322.228C33.2462 323.664 33.6054 325.101 33.907 326.537C34.1225 327.5 34.3092 328.433 34.496 329.41C34.0076 328.361 33.0595 326.322 32.9302 326.164C31.35 323.65 26.8251 319.728 23.6073 320.547C23.0778 320.7 22.5863 320.962 22.1646 321.317C21.743 321.672 21.4005 322.111 21.1595 322.607C20.9184 323.103 20.7842 323.643 20.7654 324.194C20.7466 324.745 20.8436 325.294 21.0503 325.804C21.8548 328.002 24.3686 329.424 26.4803 330.114C28.8218 330.818 33.9788 330.114 34.6253 330.114C34.9413 331.651 35.2142 333.159 35.4728 334.582C36.3347 339.509 36.9093 343.66 37.211 346.548C37.211 347.065 37.3259 347.524 37.369 347.984H27.3135L30.9622 419.192H47.9991L51.6478 347.984H42.3249L42.5404 347.567C43.8189 344.896 45.5858 341.075 47.4963 336.392C48.114 334.955 48.7317 333.332 49.3494 331.694C49.9815 331.823 55.0954 332.858 57.4657 332.312C59.6348 331.823 62.2492 330.602 63.2117 328.476C63.4573 327.982 63.5959 327.442 63.6183 326.89C63.6407 326.339 63.5464 325.789 63.3417 325.276C63.1369 324.764 62.8263 324.3 62.4301 323.916C62.0339 323.532 61.5611 323.235 61.0426 323.046C57.8966 321.983 53.0987 325.56 51.3318 327.945C51.2312 328.089 50.2688 329.74 49.6798 330.818L50.4412 328.807C50.944 327.442 51.4036 326.049 51.8777 324.569L52.5241 322.371C52.7683 321.639 52.9263 320.849 53.1274 320.073C53.544 318.277 53.8888 316.438 54.2048 314.571C55.3971 315.002 59.6922 316.496 61.9045 316.338C64.1167 316.18 66.8891 315.375 68.1676 313.465C68.4917 313.011 68.7158 312.494 68.825 311.948C68.9342 311.401 68.926 310.837 68.8011 310.294C68.6762 309.751 68.4373 309.241 68.1002 308.797C67.7632 308.353 67.3357 307.985 66.846 307.719C63.973 306.282 58.6005 309.012 56.5032 311.095C56.3739 311.238 55.0667 312.905 54.3197 313.838C54.4921 312.718 54.6645 311.597 54.8081 310.448C55.2247 307.159 55.5264 303.812 55.8568 300.479C55.9573 299.459 56.0723 298.439 56.1728 297.419C56.6038 297.577 61.6603 299.459 64.1454 299.287C66.3433 299.129 69.1157 298.324 70.3942 296.414C70.7183 295.96 70.9423 295.443 71.0516 294.896C71.1608 294.35 71.1526 293.786 71.0277 293.243C70.9027 292.7 70.6638 292.189 70.3268 291.745C69.9898 291.301 69.5623 290.934 69.0726 290.668C66.1996 289.159 60.8415 291.961 58.7298 294.043C58.5718 294.201 56.6469 296.615 56.1872 297.247C56.4314 295.006 56.69 292.779 57.0347 290.581C57.477 287.622 58.1153 284.694 58.9453 281.819C59.1464 281.819 64.404 283.873 66.961 283.701C69.1588 283.543 71.9313 282.724 73.2097 280.828C73.5361 280.375 73.7621 279.858 73.8726 279.311C73.9831 278.764 73.9755 278.199 73.8504 277.655C73.7253 277.111 73.4855 276.6 73.1472 276.157C72.8088 275.713 72.3795 275.346 71.8882 275.082C69.0152 273.559 63.657 276.36 61.5453 278.457C61.3873 278.615 59.3188 281.215 58.974 281.704L59.1033 281.201C60.0153 278.336 61.1786 275.558 62.5796 272.898C63.341 271.462 64.1454 270.025 64.9499 268.732C65.8979 269.206 70.2362 271.318 72.5346 271.404C74.833 271.49 77.5911 270.988 79.085 269.178C79.4401 268.765 79.7053 268.283 79.8638 267.762C80.0224 267.241 80.0708 266.693 80.0059 266.153C79.941 265.612 79.7644 265.091 79.4871 264.623C79.2099 264.154 78.8381 263.749 78.3955 263.432C75.6231 261.593 70.0638 263.791 67.751 265.644C67.6217 265.744 66.4438 266.908 65.6106 267.77C65.9841 267.181 66.3576 266.563 66.7311 266.017C68.1676 263.92 69.5179 262.096 70.7821 260.472C71.5003 259.567 72.2186 258.763 72.8075 258.016C73.9711 258.016 78.6684 257.844 80.7226 256.881C82.7768 255.919 85.0322 254.18 85.5062 251.896C85.7049 251.339 85.7749 250.744 85.711 250.156C85.6471 249.568 85.451 249.002 85.1373 248.5C84.8236 247.999 84.4005 247.575 83.8997 247.26C83.3989 246.945 82.8333 246.747 82.2453 246.682ZM45.6863 335.386C43.6896 339.983 41.8509 343.732 40.5437 346.332L39.8111 347.769H39.5956C39.5956 347.266 39.4519 346.706 39.3657 346.088C38.9635 343.215 38.3314 338.992 37.3403 334.036C37.0386 332.47 36.6795 330.804 36.2916 329.094C37.8442 328.467 39.3598 327.753 40.831 326.954C42.8294 328.688 45.0579 330.139 47.4532 331.263C46.8643 332.657 46.2609 334.064 45.6863 335.386Z" fill="#263238"/>
<path d="M64.8499 267.798C64.8499 267.798 65.9129 263.934 65.9417 263.675C66.3582 260.73 65.4245 254.826 62.4222 253.375C61.9234 253.152 61.3835 253.035 60.837 253.032C60.2905 253.029 59.7493 253.14 59.2479 253.358C58.7466 253.575 58.2961 253.895 57.925 254.296C57.554 254.697 57.2705 255.171 57.0928 255.688C56.2884 257.886 57.3083 260.587 58.5293 262.454C59.9658 264.695 64.8499 267.798 64.8499 267.798Z" fill="#263238"/>
<path d="M605.736 418.846H21.4385V426H605.736V418.846Z" fill="#263238"/>
</svg>
