<svg width="213" height="171" viewBox="0 0 213 171" fill="none" xmlns="http://www.w3.org/2000/svg">
<circle cx="109.048" cy="89.6387" r="80.5" fill="#DFBEDB"/>
<path d="M106.298 158.926C164.702 158.926 212.048 156.159 212.048 152.746C212.048 149.333 164.702 146.566 106.298 146.566C47.8935 146.566 0.547607 149.333 0.547607 152.746C0.547607 156.159 47.8935 158.926 106.298 158.926Z" fill="#F5F5F5" fill-opacity="0.15"/>
<path d="M125.462 8.38923C125.264 7.73525 125.002 7.10259 124.679 6.50062L125.165 4.90649L122.022 1.75719L120.429 2.24394C119.828 1.92069 119.196 1.65817 118.542 1.46027L117.759 0H113.31L112.53 1.46027C111.876 1.65771 111.244 1.92025 110.643 2.24394L109.05 1.75719L105.904 4.90649L106.39 6.50062C106.069 7.10316 105.808 7.73571 105.61 8.38923L104.139 9.1729V13.6267L105.61 14.408C105.807 15.0617 106.069 15.6943 106.39 16.2966L105.904 17.8907L109.05 21.04L110.643 20.5532C111.245 20.8751 111.877 21.1368 112.53 21.3345L113.31 22.7948H117.759L118.542 21.3345C119.195 21.1363 119.827 20.8747 120.429 20.5532L122.022 21.04L125.168 17.8907L124.681 16.2966C125.005 15.6948 125.267 15.0621 125.464 14.408L126.935 13.6267V9.1729L125.462 8.38923ZM115.535 17.7252C114.284 17.7252 113.062 17.3541 112.023 16.6588C110.983 15.9635 110.173 14.9752 109.694 13.8189C109.216 12.6627 109.091 11.3904 109.335 10.1629C109.579 8.9354 110.181 7.80789 111.065 6.92293C111.949 6.03797 113.075 5.4353 114.301 5.19114C115.528 4.94698 116.799 5.0723 117.954 5.55123C119.109 6.03017 120.096 6.84122 120.791 7.88183C121.485 8.92243 121.856 10.1459 121.856 11.3974C121.856 13.0756 121.19 14.6851 120.005 15.8718C118.819 17.0585 117.211 17.7252 115.535 17.7252Z" fill="#253238"/>
<path opacity="0.2" d="M125.462 8.38923C125.264 7.73525 125.002 7.10259 124.679 6.50062L125.165 4.90649L122.022 1.75719L120.429 2.24394C119.828 1.92069 119.196 1.65817 118.542 1.46027L117.759 0H113.31L112.53 1.46027C111.876 1.65771 111.244 1.92025 110.643 2.24394L109.05 1.75719L105.904 4.90649L106.39 6.50062C106.069 7.10316 105.808 7.73571 105.61 8.38923L104.139 9.1729V13.6267L105.61 14.408C105.807 15.0617 106.069 15.6943 106.39 16.2966L105.904 17.8907L109.05 21.04L110.643 20.5532C111.245 20.8751 111.877 21.1368 112.53 21.3345L113.31 22.7948H117.759L118.542 21.3345C119.195 21.1363 119.827 20.8747 120.429 20.5532L122.022 21.04L125.168 17.8907L124.681 16.2966C125.005 15.6948 125.267 15.0621 125.464 14.408L126.935 13.6267V9.1729L125.462 8.38923ZM115.535 17.7252C114.284 17.7252 113.062 17.3541 112.023 16.6588C110.983 15.9635 110.173 14.9752 109.694 13.8189C109.216 12.6627 109.091 11.3904 109.335 10.1629C109.579 8.9354 110.181 7.80789 111.065 6.92293C111.949 6.03797 113.075 5.4353 114.301 5.19114C115.528 4.94698 116.799 5.0723 117.954 5.55123C119.109 6.03017 120.096 6.84122 120.791 7.88183C121.485 8.92243 121.856 10.1459 121.856 11.3974C121.856 13.0756 121.19 14.6851 120.005 15.8718C118.819 17.0585 117.211 17.7252 115.535 17.7252Z" fill="white"/>
<path d="M115.535 9.30176C115.12 9.30176 114.715 9.4248 114.37 9.65532C114.026 9.88584 113.757 10.2135 113.599 10.5968C113.44 10.9802 113.398 11.402 113.479 11.809C113.56 12.2159 113.76 12.5897 114.053 12.8831C114.346 13.1765 114.719 13.3763 115.126 13.4573C115.532 13.5382 115.954 13.4967 116.337 13.3379C116.72 13.1791 117.047 12.9102 117.277 12.5652C117.508 12.2202 117.631 11.8146 117.631 11.3997C117.631 10.8433 117.41 10.3097 117.017 9.91622C116.624 9.52279 116.091 9.30176 115.535 9.30176Z" fill="#253238"/>
<path d="M176.671 37.9361C176.28 36.645 175.764 35.3955 175.13 34.2057L176.09 31.06L169.889 24.8528L166.743 25.8173C165.558 25.1747 164.311 24.6566 163.019 24.2713L161.478 21.3677H152.699L151.154 24.2713C149.864 24.6578 148.616 25.1758 147.431 25.8173L144.289 24.8528L138.081 31.0668L139.041 34.2124C138.403 35.4009 137.887 36.6507 137.5 37.9428L134.596 39.4854V48.2737L137.497 49.8196C137.883 51.1109 138.399 52.3596 139.038 53.5467L138.077 56.689L144.285 62.903L147.428 61.9418C148.614 62.5812 149.863 63.097 151.154 63.481L152.699 66.3881H161.478L163.019 63.4844C164.31 63.0962 165.557 62.5783 166.743 61.9385L169.889 62.8996L176.097 56.6856L175.136 53.54C175.769 52.3513 176.283 51.1029 176.671 49.8129L179.571 48.267V39.4787L176.671 37.9361ZM157.087 59.8044C153.939 59.8044 150.861 58.8699 148.244 57.1192C145.626 55.3684 143.586 52.88 142.381 49.9685C141.176 47.0571 140.861 43.8535 141.475 40.7627C142.09 37.672 143.606 34.833 145.832 32.6046C148.058 30.3763 150.894 28.8589 153.982 28.2441C157.069 27.6293 160.27 27.9448 163.178 29.1508C166.087 30.3567 168.573 32.3989 170.322 35.0191C172.071 37.6393 173.004 40.7199 173.004 43.8711C173.004 45.9635 172.593 48.0354 171.793 49.9685C170.993 51.9016 169.82 53.6581 168.342 55.1377C166.864 56.6172 165.109 57.7908 163.178 58.5915C161.247 59.3923 159.177 59.8044 157.087 59.8044Z" fill="#253238"/>
<path d="M157.087 30.1729C154.38 30.1735 151.734 30.9777 149.483 32.4836C147.233 33.9896 145.479 36.1298 144.443 38.6335C143.408 41.1372 143.137 43.892 143.666 46.5497C144.194 49.2073 145.498 51.6484 147.412 53.5643C149.327 55.4802 151.766 56.7848 154.421 57.3132C157.076 57.8417 159.828 57.5701 162.329 56.533C164.83 55.4958 166.968 53.7396 168.472 51.4865C169.976 49.2333 170.778 46.5844 170.778 43.8746C170.774 40.2414 169.33 36.7584 166.763 34.1897C164.196 31.621 160.716 30.1764 157.087 30.1729ZM157.087 55.7514C154.74 55.7521 152.446 55.0561 150.494 53.7514C148.542 52.4468 147.021 50.5921 146.123 48.422C145.224 46.2518 144.989 43.8637 145.446 41.5596C145.903 39.2555 147.033 37.1389 148.692 35.4776C150.352 33.8162 152.466 32.6847 154.768 32.2262C157.069 31.7676 159.455 32.0026 161.623 32.9015C163.792 33.8003 165.645 35.3226 166.949 37.2758C168.253 39.229 168.949 41.5254 168.949 43.8746C168.945 47.0228 167.694 50.0412 165.471 52.2676C163.247 54.4941 160.232 55.747 157.087 55.7514Z" fill="#253238"/>
<path opacity="0.2" d="M157.087 30.1729C154.38 30.1735 151.734 30.9777 149.483 32.4836C147.233 33.9896 145.479 36.1298 144.443 38.6335C143.408 41.1372 143.137 43.892 143.666 46.5497C144.194 49.2073 145.498 51.6484 147.412 53.5643C149.327 55.4802 151.766 56.7848 154.421 57.3132C157.076 57.8417 159.828 57.5701 162.329 56.533C164.83 55.4958 166.968 53.7396 168.472 51.4865C169.976 49.2333 170.778 46.5844 170.778 43.8746C170.774 40.2414 169.33 36.7584 166.763 34.1897C164.196 31.621 160.716 30.1764 157.087 30.1729ZM157.087 55.7514C154.74 55.7521 152.446 55.0561 150.494 53.7514C148.542 52.4468 147.021 50.5921 146.123 48.422C145.224 46.2518 144.989 43.8637 145.446 41.5596C145.903 39.2555 147.033 37.1389 148.692 35.4776C150.352 33.8162 152.466 32.6847 154.768 32.2262C157.069 31.7676 159.455 32.0026 161.623 32.9015C163.792 33.8003 165.645 35.3226 166.949 37.2758C168.253 39.229 168.949 41.5254 168.949 43.8746C168.945 47.0228 167.694 50.0412 165.471 52.2676C163.247 54.4941 160.232 55.747 157.087 55.7514Z" fill="black"/>
<path d="M125.933 54.4299C125.788 54.4299 125.649 54.3724 125.547 54.27C125.445 54.1676 125.387 54.0287 125.387 53.8839V52.792C125.387 52.6472 125.445 52.5084 125.547 52.406C125.649 52.3036 125.788 52.2461 125.933 52.2461C126.077 52.2461 126.216 52.3036 126.318 52.406C126.421 52.5084 126.478 52.6472 126.478 52.792V53.8839C126.478 54.0287 126.421 54.1676 126.318 54.27C126.216 54.3724 126.077 54.4299 125.933 54.4299Z" fill="#253238"/>
<path d="M117.44 40.3228C116.94 40.0006 116.548 39.5344 116.317 38.9853C116.26 38.852 116.152 38.747 116.018 38.6933C115.883 38.6395 115.733 38.6414 115.6 38.6986C115.467 38.7558 115.362 38.8636 115.308 38.9982C115.254 39.1329 115.256 39.2834 115.313 39.4166C115.634 40.1622 116.167 40.7965 116.846 41.24C116.934 41.2968 117.036 41.3271 117.14 41.3274C117.259 41.3283 117.374 41.2908 117.469 41.2205C117.564 41.1503 117.633 41.0511 117.667 40.9378C117.701 40.8246 117.697 40.7034 117.656 40.5925C117.615 40.4816 117.54 40.387 117.44 40.3228Z" fill="#253238"/>
<path d="M115.537 33.5037C115.682 33.5037 115.82 33.4462 115.923 33.3438C116.025 33.2414 116.083 33.1026 116.083 32.9578V30.8668C116.083 30.722 116.025 30.5831 115.923 30.4807C115.82 30.3783 115.682 30.3208 115.537 30.3208C115.392 30.3208 115.254 30.3783 115.151 30.4807C115.049 30.5831 114.992 30.722 114.992 30.8668V32.9578C114.992 33.1026 115.049 33.2414 115.151 33.3438C115.254 33.4462 115.392 33.5037 115.537 33.5037Z" fill="#253238"/>
<path d="M121.215 40.8032H119.12C118.976 40.8032 118.837 40.8607 118.735 40.9631C118.632 41.0655 118.575 41.2044 118.575 41.3492C118.575 41.494 118.632 41.6328 118.735 41.7352C118.837 41.8376 118.976 41.8951 119.12 41.8951H121.215C121.359 41.8951 121.498 41.8376 121.6 41.7352C121.703 41.6328 121.76 41.494 121.76 41.3492C121.76 41.2044 121.703 41.0655 121.6 40.9631C121.498 40.8607 121.359 40.8032 121.215 40.8032Z" fill="#253238"/>
<path d="M116.083 37.1452V35.0543C116.083 34.9095 116.025 34.7706 115.923 34.6682C115.82 34.5658 115.682 34.5083 115.537 34.5083C115.392 34.5083 115.254 34.5658 115.151 34.6682C115.049 34.7706 114.992 34.9095 114.992 35.0543V37.1452C114.992 37.29 115.049 37.4289 115.151 37.5313C115.254 37.6337 115.392 37.6912 115.537 37.6912C115.682 37.6912 115.82 37.6337 115.923 37.5313C116.025 37.4289 116.083 37.29 116.083 37.1452Z" fill="#253238"/>
<path d="M126.445 44.352C126.426 44.2087 126.351 44.0789 126.237 43.9909C126.122 43.9029 125.978 43.8639 125.834 43.8825C125.763 43.8944 125.695 43.9202 125.634 43.9585C125.573 43.9969 125.521 44.0469 125.479 44.1058C125.437 44.1647 125.408 44.2312 125.392 44.3016C125.376 44.372 125.375 44.4448 125.387 44.5158C125.405 44.6424 125.414 44.7701 125.414 44.8979V46.5358C125.414 46.6806 125.472 46.8195 125.574 46.9218C125.676 47.0242 125.815 47.0817 125.96 47.0817C126.105 47.0817 126.243 47.0242 126.346 46.9218C126.448 46.8195 126.505 46.6806 126.505 46.5358V44.8979C126.497 44.7148 126.477 44.5325 126.445 44.352Z" fill="#253238"/>
<path d="M125.933 48.0591C125.788 48.0591 125.649 48.1166 125.547 48.219C125.445 48.3214 125.387 48.4602 125.387 48.605V50.7015C125.387 50.8463 125.445 50.9852 125.547 51.0875C125.649 51.1899 125.788 51.2475 125.933 51.2475C126.077 51.2475 126.216 51.1899 126.318 51.0875C126.421 50.9852 126.478 50.8463 126.478 50.7015V48.605C126.478 48.4602 126.421 48.3214 126.318 48.219C126.216 48.1166 126.077 48.0591 125.933 48.0591Z" fill="#253238"/>
<path d="M125.458 42.1845C124.924 41.5741 124.219 41.1385 123.435 40.9343C123.365 40.9164 123.293 40.9123 123.222 40.9224C123.151 40.9324 123.082 40.9564 123.021 40.9929C122.959 41.0294 122.905 41.0777 122.862 41.1351C122.819 41.1925 122.787 41.2578 122.769 41.3274C122.751 41.3969 122.747 41.4693 122.757 41.5404C122.767 41.6115 122.791 41.68 122.828 41.7418C122.864 41.8037 122.913 41.8577 122.97 41.9009C123.027 41.9441 123.092 41.9755 123.162 41.9935C123.735 42.1415 124.25 42.4593 124.64 42.9052C124.691 42.9634 124.754 43.0101 124.825 43.0421C124.895 43.0741 124.972 43.0907 125.049 43.0908C125.154 43.0907 125.256 43.0603 125.344 43.0034C125.432 42.9464 125.502 42.8653 125.545 42.7696C125.589 42.674 125.603 42.568 125.588 42.4642C125.572 42.3605 125.527 42.2634 125.458 42.1845Z" fill="#253238"/>
<path d="M115.537 29.2947C115.392 29.2947 115.254 29.2371 115.151 29.1347C115.049 29.0324 114.992 28.8935 114.992 28.7487V27.6568C114.992 27.512 115.049 27.3731 115.151 27.2707C115.254 27.1684 115.392 27.1108 115.537 27.1108C115.682 27.1108 115.82 27.1684 115.923 27.2707C116.025 27.3731 116.083 27.512 116.083 27.6568V28.7487C116.083 28.8935 116.025 29.0324 115.923 29.1347C115.82 29.2371 115.682 29.2947 115.537 29.2947Z" fill="#253238"/>
<path d="M151.769 81.9194H25.4841V83.9449H151.769V81.9194Z" fill="#253238"/>
<path d="M151.769 83.9448H179.17V81.9194H151.769V83.9448Z" fill="#253238"/>
<path opacity="0.2" d="M151.769 83.9448H179.17V81.9194H151.769V83.9448Z" fill="black"/>
<path d="M170.018 86.1123H34.6361L30.1091 83.9448H174.545L170.018 86.1123Z" fill="#253238"/>
<path opacity="0.6" d="M170.018 86.1123H34.6361L30.1091 83.9448H174.545L170.018 86.1123Z" fill="white"/>
<path d="M38.7268 86.1123V150.72H40.4612L42.6429 86.1123H38.7268Z" fill="#253238"/>
<path d="M59.2012 86.1123V150.72H60.9356L63.1172 86.1123H59.2012Z" fill="#253238"/>
<path d="M170.018 86.1123V150.72H168.289L166.102 86.1123H170.018Z" fill="#253238"/>
<path d="M149.549 86.1123V150.72H147.815L145.633 86.1123H149.549Z" fill="#253238"/>
<path d="M108.337 57.395L102.638 80.6363L102.48 81.9193H141.793L141.957 80.6363L147.651 57.395H108.337Z" fill="#253238"/>
<path opacity="0.3" d="M108.337 57.395L102.638 80.6363L102.48 81.9193H141.793L141.957 80.6363L147.651 57.395H108.337Z" fill="black"/>
<path d="M146.446 57.395H107.127L101.433 80.6363H140.746L146.446 57.395Z" fill="#253238"/>
<path d="M139.912 79.5715L145.093 58.4595H107.961L102.785 79.5715H139.912Z" fill="white"/>
<path d="M130.503 80.6362L130.339 81.9192H87.05L87.2082 80.6362H130.503Z" fill="#253238"/>
<path opacity="0.6" d="M130.503 80.6362L130.339 81.9192H87.05L87.2082 80.6362H130.503Z" fill="white"/>
<path d="M48.724 77.6937C48.6966 76.8621 48.3713 76.0681 47.8076 75.4567C47.2438 74.8453 46.4792 74.4573 45.6533 74.3634V73.7355C45.6526 73.6992 45.6447 73.6634 45.63 73.6302C45.6153 73.5969 45.5941 73.567 45.5677 73.5421C45.5413 73.5172 45.5102 73.4978 45.4762 73.4851C45.4422 73.4723 45.406 73.4665 45.3697 73.468H39.4793C39.4427 73.4665 39.4063 73.4723 39.3719 73.485C39.3376 73.4976 39.3062 73.5169 39.2793 73.5418C39.2525 73.5666 39.2308 73.5965 39.2155 73.6298C39.2002 73.663 39.1916 73.6989 39.1902 73.7355V81.9248H45.6533V81.0295C46.4805 80.9365 47.2465 80.548 47.8106 79.9352C48.3747 79.3225 48.699 78.5266 48.724 77.6937ZM45.6533 79.9703V75.4225C46.1984 75.5029 46.6964 75.7769 47.0565 76.1943C47.4166 76.6118 47.6147 77.1449 47.6147 77.6964C47.6147 78.2479 47.4166 78.7811 47.0565 79.1985C46.6964 79.616 46.1984 79.8899 45.6533 79.9703Z" fill="#253238"/>
<path d="M158.963 81.9191H164.439L162.819 69.9136H158.963V81.9191Z" fill="#263238"/>
<path d="M150.934 81.9191H161.308L163.233 67.8662H152.865L150.934 81.9191Z" fill="#253238"/>
<path opacity="0.3" d="M150.934 81.9191H161.308L163.233 67.8662H152.865L150.934 81.9191Z" fill="black"/>
<path d="M149.549 81.9191H160.343L162.273 67.8662H151.48L149.549 81.9191Z" fill="#253238"/>
<path opacity="0.4" d="M159.388 80.8109L161.014 68.9746H152.434L150.809 80.8109H159.388Z" fill="white"/>
<path d="M77.6854 61.173L77.2381 61.6534L76.7582 62.1994C76.4364 62.5706 76.1146 62.9473 75.8091 63.335C75.1983 64.1102 74.6092 64.9018 74.0584 65.7153C72.9623 67.2886 72.0475 68.9809 71.3313 70.7599C70.9977 71.6056 70.7386 72.4788 70.5568 73.3696C70.4696 73.8719 70.415 74.0902 70.3877 74.3032C70.3575 74.4729 70.3575 74.6466 70.3877 74.8164C70.4792 75.0833 70.6227 75.3293 70.81 75.5402C70.9972 75.751 71.2245 75.9226 71.4786 76.0448C71.8468 76.2719 72.2336 76.4673 72.6348 76.6289C72.8457 76.7163 73.0639 76.7982 73.2893 76.8746C73.4966 76.951 73.7584 77.0275 73.922 77.093V80.1012C73.5402 80.1558 73.2621 80.1995 72.9403 80.2213C72.6185 80.2431 72.3076 80.2486 71.9858 80.2213C71.3242 80.208 70.666 80.1238 70.0223 79.9702C69.2971 79.7996 68.602 79.5198 67.9607 79.1403C67.2066 78.6987 66.5587 78.0967 66.0626 77.3769C65.5519 76.6106 65.2132 75.7426 65.07 74.8327C65.0335 74.6196 65.0098 74.4045 64.9991 74.1885C64.9883 73.9812 64.9883 73.7734 64.9991 73.5661V73.2604C64.9929 73.1786 64.9929 73.0965 64.9991 73.0147L65.0427 72.5343C65.1822 71.2865 65.4453 70.0557 65.8281 68.86C66.5667 66.5633 67.6066 64.375 68.9206 62.3522C69.5519 61.3591 70.2384 60.4021 70.9768 59.486C71.3422 59.0274 71.7186 58.5797 72.1113 58.1375C72.3021 57.9136 72.5039 57.6953 72.7112 57.4769C72.9185 57.2585 73.1094 57.0674 73.393 56.7944L77.6854 61.173Z" fill="white"/>
<path d="M72.8367 77.0273L75.3783 75.1602L76.8236 80.3904C76.8236 80.3904 74.5711 81.2257 72.853 80.101L72.8367 77.0273Z" fill="white"/>
<path d="M78.907 73.9043L79.8996 78.2828L76.8235 80.3902L75.3782 75.16L78.907 73.9043Z" fill="white"/>
<path d="M94.9804 41.1033C94.8657 41.4254 94.9476 41.7476 95.1605 41.8185C95.3735 41.8895 95.6355 41.693 95.7447 41.3709C95.8539 41.0487 95.7775 40.7212 95.57 40.6502C95.3626 40.5792 95.095 40.7758 94.9804 41.1033Z" fill="#263238"/>
<path d="M94.9201 41.7368C94.9626 42.8612 95.159 43.9744 95.5037 45.0453C95.229 45.1241 94.9405 45.1425 94.6581 45.0991C94.3756 45.0558 94.1059 44.9517 93.8674 44.7942L94.9201 41.7368Z" fill="#A02724"/>
<path d="M94.4567 38.9087C94.4974 38.9225 94.5415 38.9225 94.5822 38.9087C94.8215 38.8288 95.0763 38.807 95.3257 38.8449C95.5751 38.8829 95.8119 38.9796 96.0166 39.1271C96.0576 39.1569 96.1084 39.1702 96.1587 39.1642C96.2091 39.1583 96.2553 39.1336 96.2883 39.0951C96.3213 39.0565 96.3386 39.007 96.3368 38.9563C96.3349 38.9056 96.3141 38.8574 96.2784 38.8214C96.0224 38.6304 95.7244 38.5035 95.4094 38.4513C95.0944 38.399 94.7715 38.423 94.4677 38.5211C94.4279 38.5348 94.3933 38.5605 94.3689 38.5948C94.3444 38.629 94.3313 38.6701 94.3313 38.7122C94.3313 38.7543 94.3444 38.7954 94.3689 38.8296C94.3933 38.8639 94.4279 38.8896 94.4677 38.9033L94.4567 38.9087Z" fill="#263238"/>
<path d="M83.0194 42.2935C83.6303 45.3999 84.2357 51.0942 82.0649 53.1689C82.0649 53.1689 82.9158 56.319 88.6862 56.319C95.0294 56.319 91.7187 53.1689 91.7187 53.1689C88.2554 52.339 88.3426 49.7676 88.948 47.3544L83.0194 42.2935Z" fill="white"/>
<path d="M81.2359 54.2503C80.7777 53.2512 80.2814 52.1101 81.3122 51.7553C82.4521 51.3622 88.6917 50.9582 90.8406 51.6952C91.1247 51.7726 91.3905 51.9059 91.6226 52.0874C91.8546 52.2689 92.0481 52.4948 92.1918 52.752C92.3356 53.0093 92.4266 53.2926 92.4596 53.5855C92.4926 53.8784 92.4669 54.1749 92.3841 54.4577L81.2359 54.2503Z" fill="#263238"/>
<path d="M103.025 59.5786C104.361 61.9863 105.796 64.4649 107.247 66.8453C108.697 69.2256 110.219 71.5951 111.844 73.757C112.248 74.303 112.668 74.8217 113.083 75.3403C113.29 75.6078 113.508 75.8262 113.721 76.0719L114.037 76.4322L114.119 76.525L114.157 76.5687L114.195 76.6178C114.449 76.8638 114.755 77.0503 115.09 77.1638C115.605 77.3433 116.137 77.4732 116.677 77.5514C119.328 77.8194 122.001 77.7882 124.645 77.4586L125.474 80.3522C124.738 80.6798 124.051 80.8981 123.32 81.1711C122.589 81.4441 121.869 81.6243 121.138 81.8099C119.589 82.1989 118.001 82.4113 116.404 82.4432C115.508 82.4577 114.613 82.3679 113.737 82.1757C112.662 81.962 111.648 81.5106 110.77 80.8545L110.405 80.5542L110.317 80.4777L110.263 80.4231L110.159 80.3194L109.734 79.899C109.456 79.6206 109.15 79.3531 108.899 79.0583C108.354 78.485 107.841 77.9118 107.367 77.3221C105.461 75.0171 103.703 72.5937 102.103 70.0664C101.307 68.8216 100.54 67.5641 99.8018 66.2939C99.06 65.0109 98.3455 63.7552 97.6528 62.4012L103.025 59.5786Z" fill="white"/>
<path d="M74.4672 54.1299C70.4857 55.0417 65.926 65.9007 65.926 65.9007L73.9163 71.3602C75.9036 68.5075 77.667 65.5049 79.1905 62.3793C81.5521 57.4329 78.536 53.1963 74.4672 54.1299Z" fill="#253238"/>
<path opacity="0.2" d="M77.3145 61.0527L73.5403 71.1201L73.9112 71.3822C73.9112 71.3822 75.5474 69.0837 77.3145 65.9827V61.0527Z" fill="black"/>
<path d="M98.2473 54.3426C98.2473 54.3426 102.763 59.4527 98.4982 91.0634H75.7926C75.6399 87.5748 77.827 70.5629 74.4673 54.1242C76.9765 53.6406 79.5143 53.3196 82.0649 53.1633C85.2801 52.9749 88.5035 52.9749 91.7187 53.1633C93.9223 53.3854 96.1051 53.7797 98.2473 54.3426Z" fill="#253238"/>
<path opacity="0.2" d="M95.7222 63.4878C96.3145 67.0756 97.8634 70.4368 100.205 73.2167C100.298 71.1803 100.336 69.3513 100.331 67.7189L95.7222 63.4878Z" fill="black"/>
<path d="M93.753 57.7935C93.2076 61.8172 101.116 72.092 101.116 72.092L109.074 66.6325C109.074 66.6325 106.865 60.971 103.15 57.2585C98.9181 53 94.3748 53.415 93.753 57.7935Z" fill="#253238"/>
<path d="M123.751 77.4859L126.99 76.1538L130.323 78.6761C130.323 78.6761 127.143 81.4932 124.253 80.3959L123.751 77.4859Z" fill="white"/>
<path d="M129.129 76.0229L131.572 77.77L130.307 78.6763L126.974 76.154L129.129 76.0229Z" fill="white"/>
<path d="M84.4319 36.6594C83.2974 40.7213 82.4248 43.0416 83.7228 45.7768C85.67 49.8987 91.2059 49.7841 93.5403 46.148C95.6346 42.8723 97.14 36.7795 93.8021 33.8477C93.0692 33.1961 92.1821 32.7429 91.225 32.5311C90.2679 32.3194 89.2726 32.3561 88.3336 32.6378C87.3947 32.9196 86.5433 33.437 85.8604 34.1408C85.1775 34.8447 84.6858 35.7117 84.4319 36.6594Z" fill="white"/>
<path d="M93.0714 36.7032C91.4352 41.3656 89.5099 46.4867 84.8084 45.5149C81.7759 44.887 81.536 40.0007 80.4451 37.7787C79.4798 35.8296 79.5398 31.9097 81.536 31.8606C80.6415 30.5612 85.163 25.8059 88.25 28.3173C89.0408 27.2254 94.7404 24.0097 98.9619 29.1144C102.938 33.9406 100.991 37.9643 93.0714 36.7032Z" fill="#263238"/>
<path d="M89.3898 39.6839C89.2805 40.7254 89.5142 41.774 90.0552 42.6703C90.7806 43.8386 91.8441 43.391 92.2368 42.1953C92.5859 41.1034 92.6241 39.2199 91.6151 38.461C90.606 37.7021 89.5425 38.4283 89.3898 39.6839Z" fill="white"/>
<path d="M124.231 147.636C124.776 147.636 125.322 147.559 125.48 147.313C125.525 147.249 125.549 147.171 125.549 147.092C125.549 147.013 125.525 146.936 125.48 146.871C125.407 146.756 125.295 146.673 125.164 146.636C124.455 146.445 122.982 147.292 122.911 147.33C122.892 147.339 122.877 147.354 122.869 147.373C122.86 147.392 122.857 147.413 122.862 147.434C122.866 147.453 122.875 147.471 122.888 147.486C122.902 147.5 122.919 147.511 122.938 147.515C123.365 147.593 123.797 147.633 124.231 147.636ZM124.907 146.811C124.971 146.802 125.035 146.802 125.098 146.811C125.139 146.819 125.178 146.836 125.212 146.86C125.246 146.885 125.274 146.916 125.294 146.953C125.365 147.079 125.344 147.139 125.294 147.171C125.098 147.45 124.024 147.455 123.233 147.341C123.751 147.057 124.32 146.877 124.907 146.811Z" fill="#253238"/>
<path d="M122.949 147.515H122.993C123.505 147.286 124.52 146.369 124.438 145.877C124.438 145.763 124.34 145.626 124.067 145.594C123.969 145.585 123.871 145.596 123.777 145.626C123.683 145.656 123.597 145.704 123.522 145.768C122.976 146.211 122.867 147.357 122.862 147.406C122.86 147.424 122.862 147.441 122.869 147.457C122.876 147.474 122.886 147.488 122.9 147.499C122.915 147.508 122.932 147.513 122.949 147.515ZM123.985 145.796H124.045C124.225 145.796 124.236 145.888 124.242 145.91C124.291 146.2 123.598 146.92 123.074 147.231C123.118 146.751 123.308 146.295 123.62 145.927C123.722 145.84 123.852 145.793 123.985 145.796Z" fill="#253238"/>
<path d="M118.013 147.417H122.256L123.222 137.574H118.978L118.013 147.417Z" fill="white"/>
<path d="M122.496 146.926H117.866C117.78 146.926 117.698 146.956 117.631 147.009C117.565 147.063 117.519 147.137 117.5 147.221L116.66 150.977C116.639 151.068 116.638 151.164 116.659 151.255C116.68 151.347 116.721 151.433 116.78 151.506C116.839 151.579 116.914 151.638 116.999 151.678C117.084 151.718 117.177 151.737 117.271 151.736C118.94 151.708 121.356 151.61 123.456 151.61C125.916 151.61 128.038 151.741 130.917 151.741C132.663 151.741 133.148 149.978 132.417 149.819C129.096 149.093 126.385 149.017 123.516 147.242C123.212 147.045 122.859 146.935 122.496 146.926Z" fill="#263238"/>
<path opacity="0.2" d="M123.216 137.579L122.725 142.651H118.477L118.973 137.579H123.216Z" fill="black"/>
<path d="M107.219 147.63C107.399 147.654 107.582 147.641 107.757 147.594C107.932 147.546 108.096 147.464 108.239 147.352C108.289 147.283 108.316 147.2 108.316 147.114C108.316 147.029 108.289 146.946 108.239 146.877C108.207 146.817 108.162 146.765 108.107 146.724C108.053 146.684 107.99 146.656 107.923 146.642C107.301 146.495 106.129 147.297 106.08 147.33C106.064 147.342 106.052 147.358 106.044 147.376C106.036 147.394 106.034 147.414 106.036 147.434C106.04 147.453 106.049 147.47 106.063 147.483C106.076 147.497 106.093 147.506 106.112 147.51C106.476 147.59 106.847 147.63 107.219 147.63ZM107.765 146.822C107.805 146.817 107.845 146.817 107.885 146.822C107.924 146.828 107.961 146.843 107.993 146.866C108.025 146.888 108.052 146.918 108.07 146.953C108.163 147.123 108.108 147.188 108.07 147.215C107.89 147.45 107.023 147.456 106.385 147.352C106.795 147.074 107.263 146.893 107.754 146.822H107.765Z" fill="#253238"/>
<path d="M106.14 147.515H106.183C106.625 147.275 107.476 146.347 107.383 145.878C107.369 145.802 107.329 145.734 107.27 145.686C107.212 145.637 107.138 145.61 107.061 145.61C106.985 145.601 106.908 145.608 106.835 145.63C106.761 145.653 106.694 145.69 106.636 145.741C106.145 146.145 106.041 147.379 106.036 147.423C106.036 147.441 106.04 147.459 106.049 147.475C106.057 147.491 106.07 147.505 106.085 147.515C106.103 147.521 106.122 147.521 106.14 147.515ZM106.996 145.796H107.039C107.17 145.796 107.181 145.872 107.187 145.899C107.241 146.178 106.696 146.882 106.26 147.215C106.289 146.731 106.464 146.266 106.761 145.883C106.827 145.827 106.91 145.796 106.996 145.796Z" fill="#253238"/>
<path d="M101.274 147.417H105.517L107.65 137.574H103.407L101.274 147.417Z" fill="white"/>
<path d="M105.818 146.926H101.051C100.966 146.926 100.884 146.956 100.819 147.009C100.753 147.063 100.708 147.137 100.691 147.22L99.8507 150.977C99.8311 151.069 99.8324 151.164 99.8546 151.256C99.8769 151.347 99.9194 151.433 99.9792 151.506C100.039 151.579 100.114 151.637 100.2 151.677C100.285 151.717 100.378 151.737 100.473 151.735C102.136 151.708 102.949 151.61 105.043 151.61C106.336 151.61 107.988 151.741 109.772 151.741C111.555 151.741 111.784 149.977 111.054 149.819C107.781 149.104 107.557 148.116 106.51 147.171C106.317 147.007 106.071 146.92 105.818 146.926Z" fill="#263238"/>
<g opacity="0.2">
<path opacity="0.2" d="M103.407 137.579H107.65L106.548 142.651H102.305L103.407 137.579Z" fill="black"/>
</g>
<path d="M98.4981 91.0693C98.4981 91.0693 130.296 94.4379 129.947 110.675C129.721 120.872 127.762 130.956 124.154 140.495H117.849C117.849 140.495 118.171 130.192 117.958 113.568C117.893 108.584 107.841 106.94 98.0181 106.362C93.8585 106.1 89.8547 104.679 86.4585 102.261C83.0623 99.8426 80.409 96.5221 78.7978 92.6744L78.127 91.0693H98.4981Z" fill="#263238"/>
<path d="M125.698 138.802C125.731 138.802 125.289 141.789 125.289 141.789H116.562L116.322 139.124L125.698 138.802Z" fill="#253238"/>
<path d="M91.6915 91.0693C91.6915 91.0693 114.741 98.7127 115.324 108.19C116.415 125.628 107.847 140.495 107.847 140.495H101.482C101.482 140.495 103.898 133.124 104.754 117.324C105.845 97.4788 68.8496 117.292 75.7818 91.0693H91.6915Z" fill="#263238"/>
<path d="M109.772 138.802C109.805 138.802 108.97 141.789 108.97 141.789H100.244L100.402 139.124L109.772 138.802Z" fill="#253238"/>
<path d="M108.316 107.786H72.8638C72.8638 106.712 73.2901 105.682 74.0491 104.922C74.808 104.162 75.8374 103.735 76.9107 103.735H104.269C105.342 103.735 106.371 104.162 107.13 104.922C107.889 105.682 108.316 106.712 108.316 107.786Z" fill="#253238"/>
<path d="M74.5054 107.781L69.1604 152.636H70.3058L77.0852 107.781H74.5054Z" fill="#253238"/>
<path opacity="0.4" d="M74.5054 107.781L69.1604 152.636H70.3058L77.0852 107.781H74.5054Z" fill="black"/>
<path d="M81.6559 107.781L81.5522 152.636H82.6922L84.2357 107.781H81.6559Z" fill="#253238"/>
<path opacity="0.4" d="M81.6559 107.781L81.5522 152.636H82.6922L84.2357 107.781H81.6559Z" fill="black"/>
<path d="M106.674 107.781L112.019 152.636H110.874L104.1 107.781H106.674Z" fill="#253238"/>
<path opacity="0.4" d="M106.674 107.781L112.019 152.636H110.874L104.1 107.781H106.674Z" fill="black"/>
<path d="M99.5236 107.781L99.6273 152.636H98.4874L96.9438 107.781H99.5236Z" fill="#253238"/>
<path opacity="0.4" d="M99.5236 107.781L99.6273 152.636H98.4874L96.9438 107.781H99.5236Z" fill="black"/>
</svg>
