<svg width="162" height="162" viewBox="0 0 162 162" fill="none" xmlns="http://www.w3.org/2000/svg">
<circle cx="81.0476" cy="80.6328" r="80.5" fill="#DFBEDB"/>
<path d="M135.805 8.15283H23.6545V76.1627H135.805V8.15283Z" fill="white" stroke="#263238" stroke-linecap="round" stroke-linejoin="round"/>
<path d="M88.2872 17.0889H27.4707V22.4021H88.2872V17.0889Z" stroke="#263238" stroke-linecap="round" stroke-linejoin="round"/>
<path d="M88.2872 25.4136H27.4707V56.1096H88.2872V25.4136Z" stroke="#263238" stroke-linecap="round" stroke-linejoin="round"/>
<path d="M132.922 47.605H91.7332V72.0558H132.922V47.605Z" stroke="#263238" stroke-linecap="round" stroke-linejoin="round"/>
<path d="M91.7332 72.0558L132.922 47.605" stroke="#263238" stroke-linecap="round" stroke-linejoin="round"/>
<path d="M132.922 72.0558L91.7332 47.605" stroke="#263238" stroke-linecap="round" stroke-linejoin="round"/>
<path d="M77.6279 60.772H87.594" stroke="#263238" stroke-linecap="round" stroke-linejoin="round"/>
<path d="M59.9485 60.772H75.5581" stroke="#263238" stroke-linecap="round" stroke-linejoin="round"/>
<path d="M35.8738 60.772H56.9372" stroke="#263238" stroke-linecap="round" stroke-linejoin="round"/>
<path d="M27.7878 60.772H33.4281" stroke="#263238" stroke-linecap="round" stroke-linejoin="round"/>
<path d="M42.4556 63.5903H87.5939" stroke="#263238" stroke-linecap="round" stroke-linejoin="round"/>
<path d="M27.7878 63.5903H40.1996" stroke="#263238" stroke-linecap="round" stroke-linejoin="round"/>
<path d="M66.3411 66.4126H87.5942" stroke="#263238" stroke-linecap="round" stroke-linejoin="round"/>
<path d="M45.2773 66.4126H63.3327" stroke="#263238" stroke-linecap="round" stroke-linejoin="round"/>
<path d="M27.7878 66.4126H43.2078" stroke="#263238" stroke-linecap="round" stroke-linejoin="round"/>
<path d="M62.9568 69.2339H87.594" stroke="#263238" stroke-linecap="round" stroke-linejoin="round"/>
<path d="M42.8315 69.2339H60.5108" stroke="#263238" stroke-linecap="round" stroke-linejoin="round"/>
<path d="M27.7878 69.2339H40.7653" stroke="#263238" stroke-linecap="round" stroke-linejoin="round"/>
<path d="M76.686 72.0557H87.5938" stroke="#263238" stroke-linecap="round" stroke-linejoin="round"/>
<path d="M50.9209 72.0557H74.6165" stroke="#263238" stroke-linecap="round" stroke-linejoin="round"/>
<path d="M40.1995 72.0557H48.8511" stroke="#263238" stroke-linecap="round" stroke-linejoin="round"/>
<path d="M31.7375 72.0557H36.8154" stroke="#263238" stroke-linecap="round" stroke-linejoin="round"/>
<path d="M27.7878 72.0557H31.7376" stroke="#263238" stroke-linecap="round" stroke-linejoin="round"/>
<path d="M135.805 8.15283H23.6545V13.0574H135.805V8.15283Z" fill="#9468B4" stroke="#263238" stroke-linecap="round" stroke-linejoin="round"/>
<path d="M133.278 9.62402H39.7646V11.6022H133.278V9.62402Z" fill="white" stroke="#263238" stroke-linecap="round" stroke-linejoin="round"/>
<path d="M37.8158 9.62402H25.3811V11.6022H37.8158V9.62402Z" fill="white" stroke="#263238" stroke-linecap="round" stroke-linejoin="round"/>
<path d="M142.247 19.9106H99.741V44.1065H142.247V19.9106Z" fill="white" stroke="#263238" stroke-linecap="round" stroke-linejoin="round"/>
<path d="M142.247 39.5288H99.741V44.1064H142.247V39.5288Z" fill="white" stroke="#263238" stroke-linecap="round" stroke-linejoin="round"/>
<path d="M126.589 30.1447L115.403 23.687V36.6023L126.589 30.1447Z" fill="#9468B4" stroke="#263238" stroke-linecap="round" stroke-linejoin="round"/>
<path d="M101.137 18.6421H98.6914V21.0878H101.137V18.6421Z" fill="white" stroke="#263238" stroke-linecap="round" stroke-linejoin="round"/>
<path d="M143.359 18.6421H140.913V21.0878H143.359V18.6421Z" fill="white" stroke="#263238" stroke-linecap="round" stroke-linejoin="round"/>
<path d="M101.137 42.4321H98.6914V44.8779H101.137V42.4321Z" fill="white" stroke="#263238" stroke-linecap="round" stroke-linejoin="round"/>
<path d="M143.359 42.4321H140.913V44.8779H143.359V42.4321Z" fill="white" stroke="#263238" stroke-linecap="round" stroke-linejoin="round"/>
<path d="M48.9426 39.8167V44.0673H47.8865V34.6113H48.9426V38.8619H51.2673V34.6113H52.3202V44.0739H51.2673V39.8232L48.9426 39.8167Z" fill="#263238"/>
<path d="M54.7659 44.0739V35.5726H53.0232V34.6113H57.5517V35.5726H55.809V44.0739H54.7659Z" fill="#263238"/>
<path d="M61.7535 44.0608H60.7399L59.1737 36.5405V44.0837H58.2549V34.6114H59.7263L61.2826 42.1579L62.7834 34.6016H64.2548V44.0641H63.2543V36.4653L61.7535 44.0608Z" fill="#263238"/>
<path d="M65.3372 44.0739V34.6113H66.39V43.1126H69.1039V44.0739H65.3372Z" fill="#263238"/>
<path d="M136.525 42.9749L138.784 53.111C138.805 53.1779 138.846 53.2372 138.9 53.2813C138.955 53.3254 139.021 53.3525 139.091 53.3591C139.16 53.3658 139.231 53.3517 139.292 53.3186C139.354 53.2855 139.405 53.2349 139.438 53.1732L140.903 50.0898C140.932 50.0278 140.978 49.9755 141.036 49.9395C141.094 49.9035 141.162 49.8852 141.23 49.8871L144.637 50.0735C144.709 50.0768 144.781 50.058 144.842 50.0198C144.903 49.9815 144.952 49.9254 144.98 49.8591C145.009 49.7928 145.017 49.7193 145.003 49.6484C144.989 49.5774 144.954 49.5125 144.902 49.462L137.113 42.6251C137.057 42.5723 136.985 42.5392 136.908 42.5309C136.832 42.5226 136.754 42.5394 136.688 42.5788C136.621 42.6183 136.57 42.6783 136.54 42.7497C136.511 42.8212 136.505 42.9002 136.525 42.9749Z" fill="#263238"/>
<path d="M145.831 51.9668H142.78V55.0174H145.831V51.9668Z" fill="white" stroke="#263238" stroke-width="0.75" stroke-linecap="round" stroke-linejoin="round"/>
<path d="M142.992 51.7246H142.535V52.1824H142.992V51.7246Z" fill="#263238"/>
<path d="M144.542 51.7246H144.084V52.1824H144.542V51.7246Z" fill="#263238"/>
<path d="M146.027 51.7246H145.569V52.1824H146.027V51.7246Z" fill="#263238"/>
<path d="M142.992 53.2681H142.535V53.7258H142.992V53.2681Z" fill="#263238"/>
<path d="M144.542 53.2681H144.084V53.7258H144.542V53.2681Z" fill="#263238"/>
<path d="M146.027 53.2681H145.569V53.7258H146.027V53.2681Z" fill="#263238"/>
<path d="M142.992 54.7524H142.535V55.2102H142.992V54.7524Z" fill="#263238"/>
<path d="M144.542 54.7524H144.084V55.2102H144.542V54.7524Z" fill="#263238"/>
<path d="M146.027 54.7524H145.569V55.2102H146.027V54.7524Z" fill="#263238"/>
<path d="M62.7177 98.9978L61.7499 99.1874L58.9478 85.3337L59.9156 85.144L62.7177 98.9978Z" fill="white" stroke="#263238" stroke-linecap="round" stroke-linejoin="round"/>
<path d="M80.0994 98.7231H61.6909V99.3804H80.0994V98.7231Z" fill="white" stroke="#263238" stroke-linecap="round" stroke-linejoin="round"/>
<path d="M113.637 133.235H85.1936V134.624H113.637V133.235Z" fill="white" stroke="#263238" stroke-linecap="round" stroke-linejoin="round"/>
<path d="M117.93 90.4147C117.93 90.4147 115.236 111.772 114.49 118.39C113.745 125.008 116.674 145.784 116.674 145.784H114.964L111.606 122.242H86.5146L84.9092 145.362H83.6274L85.7789 118.498V115.578C85.7789 115.429 85.8083 115.281 85.8655 115.143C85.9227 115.005 86.0065 114.879 86.1122 114.774C86.2178 114.668 86.3433 114.584 86.4813 114.527C86.6194 114.47 86.7673 114.441 86.9168 114.441H110.956L114.719 88.0671C114.719 88.0671 115.144 85.6115 117.279 86.3603C119.414 87.1091 117.93 90.4147 117.93 90.4147Z" fill="#263238" stroke="#263238" stroke-linecap="round" stroke-linejoin="round"/>
<path d="M117.289 86.3603C117.233 86.3388 117.177 86.3202 117.119 86.3047C117.282 86.6317 117.38 87.2006 117.184 88.2665C116.756 90.6174 112.247 118.593 112.247 118.593H85.7624L83.6404 145.673H84.9221L87.7144 122.222H111.609L114.967 145.764H116.677C116.677 145.764 113.735 124.992 114.493 118.371C115.252 111.75 118.437 90.8823 118.437 90.8823C118.437 90.8823 119.427 87.1058 117.289 86.3603Z" fill="white" stroke="#263238" stroke-linecap="round" stroke-linejoin="round"/>
<path d="M91.6969 92.2788L78.3336 93.0374L72.3729 96.4836L71.1958 98.5011L72.1179 98.6678L74.2203 97.7425C74.2203 97.7425 76.5745 97.324 77.248 97.0722C77.9216 96.8204 79.7624 94.7997 79.7624 94.7997L92.1873 96.8172L91.6969 92.2788Z" fill="white" stroke="#263238" stroke-linecap="round" stroke-linejoin="round"/>
<path d="M72.4223 133.578C72.4223 133.578 70.0681 137.698 69.7313 137.698C69.3946 137.698 66.6676 138.303 64.4998 137.211C62.332 136.119 60.7168 135.278 60.0432 136.285C59.7064 136.756 59.4245 137.264 59.2029 137.799C59.2029 137.799 61.2203 140.657 63.0709 141.664C64.9216 142.671 65.7129 142.151 67.6485 143.243C69.5842 144.335 69.751 145.176 71.3466 144.842C72.9422 144.509 73.8708 139.379 74.2893 138.79C74.7078 138.201 76.2969 134.922 76.2969 134.922L72.4223 133.578Z" fill="white" stroke="#263238" stroke-linecap="round" stroke-linejoin="round"/>
<path d="M70.1368 137.273C69.9439 137.535 69.8098 137.698 69.7313 137.698C69.4044 137.698 66.6676 138.303 64.4998 137.211C62.332 136.119 60.7168 135.279 60.0432 136.286C59.7064 136.757 59.4245 137.265 59.2029 137.799C59.2029 137.799 61.2203 140.657 63.0709 141.664C64.9216 142.671 65.7129 142.151 67.6485 143.244C69.5842 144.336 69.751 145.176 71.3466 144.842C72.7624 144.542 73.6354 140.49 74.1258 139.156C72.6741 138.784 71.1177 137.898 70.1368 137.273Z" fill="#263238" stroke="#263238" stroke-linecap="round" stroke-linejoin="round"/>
<path d="M71.3267 144.842C71.3746 144.831 71.4216 144.815 71.4673 144.797C71.4831 144.791 71.4984 144.785 71.5131 144.777L71.6046 144.731L71.6569 144.699L71.7387 144.643L71.791 144.6L71.8695 144.532L71.9185 144.483C71.9474 144.456 71.9747 144.428 72.0003 144.398L72.046 144.345C72.0722 144.313 72.1016 144.28 72.1278 144.244L72.167 144.195L72.2618 144.058L72.2847 144.025C72.3501 143.927 72.4122 143.819 72.4744 143.698C70.8395 143.698 69.7278 142.668 67.9654 142.063C65.7813 141.308 65.657 141.916 64.0614 140.821C62.4658 139.725 62.2958 139.058 62.2958 139.058L63.7116 136.822C61.923 135.939 60.6184 135.396 60.0266 136.282C59.6898 136.753 59.4079 137.261 59.1863 137.796C59.1863 137.796 61.2037 140.654 63.0543 141.661C64.905 142.668 65.6963 142.148 67.6319 143.24C69.5676 144.332 69.7311 145.176 71.3267 144.842Z" fill="white" stroke="#263238" stroke-linecap="round" stroke-linejoin="round"/>
<path d="M74.9431 112.564L67.4685 131.224L76.3785 136.269C76.3785 136.269 85.8606 114.751 85.9587 114.329C86.0568 113.908 87.7243 113.489 87.7243 113.489L94.5253 114.418C94.5253 114.418 84.2715 109.879 81.247 109.206C78.2226 108.532 76.2019 109.036 74.9431 112.564Z" fill="#9468B4" stroke="#263238" stroke-linecap="round" stroke-linejoin="round"/>
<path d="M82.702 127.078L86.9068 131.027C86.9068 131.027 85.4779 134.559 83.7973 136.828C82.1167 139.097 81.9467 140.425 82.702 140.945C83.4573 141.464 84.9711 141.366 85.9717 140.693C86.9722 140.019 92.6942 134.389 93.3677 133.382C93.5842 133.039 93.6703 132.63 93.6102 132.229C93.5502 131.828 93.3481 131.462 93.0408 131.198C92.789 131.027 87.2436 124.387 87.2436 124.387L82.702 127.078Z" fill="white" stroke="#263238" stroke-linecap="round" stroke-linejoin="round"/>
<path d="M93.3778 133.382C93.5942 133.039 93.6803 132.63 93.6203 132.229C93.5602 131.828 93.3581 131.462 93.0508 131.198C92.9331 131.116 91.6285 129.589 90.2846 128C89.0552 129.488 86.8351 130.318 86.3446 130.492L86.9168 131.028C86.9168 131.028 85.488 134.559 83.8073 136.828C82.1267 139.097 81.9567 140.425 82.712 140.945C83.4673 141.465 84.9811 141.367 85.9817 140.693C86.9822 140.019 92.7042 134.389 93.3778 133.382Z" fill="#263238" stroke="#263238" stroke-linecap="round" stroke-linejoin="round"/>
<path d="M93.149 131.29C93.1063 131.868 92.8935 132.421 92.5376 132.879C91.5305 134.137 85.8968 139.349 85.8968 139.349L83.2811 137.544C82.0778 139.382 82.0157 140.487 82.686 140.945C83.4445 141.452 84.9551 141.367 85.9557 140.693C86.9562 140.02 92.6782 134.389 93.3517 133.382C93.5586 133.062 93.6512 132.68 93.6144 132.301C93.5776 131.921 93.4136 131.565 93.149 131.29Z" fill="white" stroke="#263238" stroke-linecap="round" stroke-linejoin="round"/>
<path d="M90.7717 130.861C90.7802 131.037 90.7357 131.212 90.644 131.363C90.5523 131.513 90.4176 131.633 90.2572 131.706C90.0968 131.78 89.9182 131.803 89.7442 131.774C89.5702 131.745 89.409 131.665 89.2812 131.543C89.1535 131.421 89.0651 131.264 89.0274 131.092C88.9898 130.92 89.0046 130.74 89.07 130.576C89.1354 130.412 89.2483 130.272 89.3943 130.173C89.5402 130.074 89.7125 130.021 89.8889 130.021C90.1173 130.015 90.3385 130.101 90.5039 130.258C90.6694 130.416 90.7657 130.633 90.7717 130.861Z" fill="white"/>
<path d="M93.4628 100.518L93.041 101.947C93.041 101.947 80.3513 102.114 74.8026 103.628C69.2539 105.142 67.7433 105.982 68.1618 109.091C68.5803 112.201 77.1568 130.112 77.1568 130.112C78.8827 129.628 80.5684 129.01 82.1987 128.265C84.1293 127.324 85.9599 126.19 87.6623 124.881L81.2733 112.691C81.2733 112.691 88.5877 114.205 96.739 114.961C104.89 115.716 108.34 114.876 109.684 112.44C111.028 110.004 108.758 100.253 108.758 100.253L93.5478 99.7466L93.4628 100.518Z" fill="#9468B4" stroke="#263238" stroke-linecap="round" stroke-linejoin="round"/>
<path d="M75.6428 108.679C75.3565 108.399 75.1051 108.085 74.894 107.744" stroke="#263238" stroke-linecap="round" stroke-linejoin="round"/>
<path d="M81.2732 112.705C79.5742 111.736 77.954 110.635 76.4275 109.412" stroke="#263238" stroke-linecap="round" stroke-linejoin="round"/>
<path d="M82.2151 119.725L82.8886 120.052" stroke="#263238" stroke-linecap="round" stroke-linejoin="round"/>
<path d="M70.4473 109.814C73.3265 113.58 76.9309 116.732 81.0477 119.084" stroke="#263238" stroke-linecap="round" stroke-linejoin="round"/>
<path d="M105.662 106.09C105.983 106.339 106.288 106.609 106.574 106.897" stroke="#263238" stroke-linecap="round" stroke-linejoin="round"/>
<path d="M93.8813 102.114C93.8813 102.114 100.041 102.591 104.39 105.213" stroke="#263238" stroke-linecap="round" stroke-linejoin="round"/>
<path d="M102.288 103.542C102.288 103.542 106.322 103.628 107.918 105.308" stroke="#263238" stroke-linecap="round" stroke-linejoin="round"/>
<path d="M94.6398 75.3021C94.6398 75.3021 91.782 83.8034 91.37 86.3963C90.9581 88.9891 91.2033 100.348 91.2033 100.348C91.2033 100.348 97.9258 102.365 101.709 101.947C105.492 101.528 110.21 100.77 110.21 100.77C110.21 100.77 109.37 85.7292 108.614 80.5141C107.859 75.2989 106.094 72.2744 104.413 71.0156C103.295 70.1944 102.115 69.463 100.882 68.8281L94.6398 75.3021Z" fill="#263238" stroke="#263238" stroke-linecap="round" stroke-linejoin="round"/>
<path d="M79.8445 62.1907C80.0271 63.2559 80.398 64.2801 80.9398 65.2152C81.7801 66.559 82.9572 67.1476 82.6204 68.4849C82.2836 69.8222 82.2935 70.7541 83.2744 70.8358L84.2847 70.9208C84.2847 70.9208 86.3021 74.3671 87.816 74.3671C89.3299 74.3671 93.6263 70.5121 93.6263 70.5121C93.6263 70.5121 91.3571 59.8365 91.3571 59.4997C91.3571 59.163 79.3376 60.7618 79.3376 60.7618L79.8445 62.1907Z" fill="white" stroke="#263238" stroke-linecap="round" stroke-linejoin="round"/>
<path d="M84.847 66.51C85.0072 66.8369 84.9516 67.2064 84.7195 67.3176C84.4873 67.4288 84.1734 67.2457 84.0132 66.9089C83.853 66.5721 83.9086 66.2124 84.1407 66.1045C84.3729 65.9966 84.6868 66.1765 84.847 66.51Z" fill="#263238"/>
<path d="M82.787 65.5519C82.787 65.5519 82.702 64.3749 84.4677 64.6266" stroke="#263238" stroke-linecap="round" stroke-linejoin="round"/>
<path d="M85.2427 71.1989C85.295 71.3853 87.2961 71.2741 86.9887 69.502" stroke="#263238" stroke-linecap="round" stroke-linejoin="round"/>
<path d="M96.8958 58.238C96.6179 54.8342 92.3804 56.1388 90.3957 57.1688L90.3401 57.0641L82.3555 59.3333C82.2901 59.6572 82.3278 59.9935 82.4633 60.2949C82.5987 60.5963 82.8252 60.8477 83.1108 61.0139C84.7823 62.2587 86.7572 63.0322 88.8295 63.2537C89.4246 66.8111 90.2551 72.1277 90.2551 74.1255C90.2551 77.2349 89.078 78.412 89.078 78.412C89.078 78.412 94.4566 76.7314 97.5792 73.7887C99.3934 72.099 100.976 70.1773 102.288 68.0732C102.288 68.0732 97.2457 62.3578 96.8958 58.238Z" fill="#9468B4" stroke="#263238" stroke-linecap="round" stroke-linejoin="round"/>
<path d="M88.8427 63.2538L88.604 62.1421" stroke="#263238" stroke-linecap="round" stroke-linejoin="round"/>
<path d="M92.8318 70.9897C92.9005 71.3723 92.956 71.7287 92.9953 72.0393" stroke="#263238" stroke-linecap="round" stroke-linejoin="round"/>
<path d="M90.7522 62.1421C90.7522 62.1421 91.9391 66.5268 92.6094 69.8194" stroke="#263238" stroke-linecap="round" stroke-linejoin="round"/>
<path d="M94.7214 63.2437L96.353 67.5564" stroke="#263238" stroke-linecap="round" stroke-linejoin="round"/>
<path d="M94.0217 61.3931L94.4435 62.508" stroke="#263238" stroke-linecap="round" stroke-linejoin="round"/>
<path d="M96.0752 61.4878L96.8207 63.3548" stroke="#263238" stroke-linecap="round" stroke-linejoin="round"/>
<path d="M79.0205 62.0603C79.0205 62.0603 73.3966 65.0455 75.2701 65.0455C77.1437 65.0455 86.5212 61.1709 86.8939 61.1709C87.2667 61.1709 80.6455 61.8085 79.0205 62.0603Z" fill="#757575" stroke="#263238" stroke-linecap="round" stroke-linejoin="round"/>
<path d="M79.0205 62.06C79.0205 62.06 75.656 63.1259 77.1568 59.4998C78.6576 55.8737 88.8754 50.5898 93.1261 50.5898C97.3767 50.5898 100.519 56.9331 99.8944 58.9341C99.2698 60.9352 97.8933 61.1837 97.2786 61.1837C96.6639 61.1837 79.0205 62.06 79.0205 62.06Z" fill="#757575" stroke="#263238" stroke-linecap="round" stroke-linejoin="round"/>
<path d="M80.6455 60.9349C80.6455 60.9349 86.7697 61.0591 92.0208 60.3104C97.272 59.5616 99.394 58.8096 99.394 58.8096" stroke="#263238" stroke-linecap="round" stroke-linejoin="round"/>
<path d="M98.645 60.4351L90.3955 60.5593" stroke="#263238" stroke-linecap="round" stroke-linejoin="round"/>
<path d="M93.4626 93.4557L92.3705 94.4725C92.3705 94.4725 78.7522 92.7069 77.8269 92.9587C76.9016 93.2104 73.6253 94.1358 73.6253 94.1358L71.0096 94.3025L68.9104 97.8338H69.5807L71.0946 95.7314H72.046L70.4472 97.582L69.7573 98.5826L72.1082 98.6676L72.4515 98.3766L73.7921 97.2387L73.3703 98.5008H73.8738L75.0509 96.4834L76.6498 95.6431L78.3304 94.466C78.3304 94.466 95.4768 100.433 95.8953 100.678C96.3138 100.924 97.2424 101.604 97.9977 100.93C98.753 100.257 100.77 94.6262 100.77 94.6262L93.4626 93.4557Z" fill="white" stroke="#263238" stroke-linecap="round" stroke-linejoin="round"/>
<path d="M70.8103 98.4681C71.6822 97.7834 72.4528 96.9787 73.0991 96.078C73.0991 96.078 73.2135 95.1919 73.9852 95.0513" stroke="#263238" stroke-linecap="round" stroke-linejoin="round"/>
<path d="M73.7954 97.2388L74.1747 95.7772L74.5932 95.4404" stroke="#263238" stroke-linecap="round" stroke-linejoin="round"/>
<path d="M72.0459 95.7251C72.2674 95.3703 72.5358 95.047 72.8437 94.7638C73.1282 94.5938 73.3015 94.5088 73.3015 94.5088" stroke="#263238" stroke-linecap="round" stroke-linejoin="round"/>
<path d="M86.2693 97.2386C90.8207 98.8342 95.6795 100.554 95.9149 100.685C96.3367 100.937 97.262 101.61 98.0173 100.937C98.7726 100.263 100.79 94.6327 100.79 94.6327L93.479 93.4556L92.3706 94.4724C92.3706 94.4724 89.866 94.1455 86.9363 93.7956L86.2693 97.2386Z" fill="#757575" stroke="#263238" stroke-linecap="round" stroke-linejoin="round"/>
<path d="M95.915 80.6812L92.2856 92.8673C92.2856 92.8673 92.6126 94.5512 95.9837 95.4831C97.8408 96.0261 99.7643 96.3089 101.699 96.3234L104.39 81.1945" fill="#263238"/>
<path d="M95.915 80.6812L92.2856 92.8673C92.2856 92.8673 92.6126 94.5512 95.9837 95.4831C97.8408 96.0261 99.7643 96.3089 101.699 96.3234L104.39 81.1945" stroke="#263238" stroke-linecap="round" stroke-linejoin="round"/>
<path d="M95.6731 81.7793L92.3936 91.9448" stroke="#707070" stroke-linecap="round" stroke-linejoin="round"/>
<path d="M103.68 85.0361L102.068 95.388" stroke="#707070" stroke-linecap="round" stroke-linejoin="round"/>
<path d="M104.034 82.7603L103.857 83.8981" stroke="#707070" stroke-linecap="round" stroke-linejoin="round"/>
<path d="M65.6705 100.195H62.7278V143.944H65.6705V100.195Z" fill="#263238" stroke="#263238" stroke-linecap="round" stroke-linejoin="round"/>
<path d="M85.7302 99.4233H41.9292V101.231H85.7302V99.4233Z" fill="#757575" stroke="#263238" stroke-linecap="round" stroke-linejoin="round"/>
<path d="M79.9693 145.732H48.4363C48.4371 145.253 48.6279 144.793 48.9668 144.454C49.3057 144.115 49.7651 143.925 50.2444 143.924H78.1612C78.6405 143.925 79.0999 144.115 79.4388 144.454C79.7777 144.793 79.9685 145.253 79.9693 145.732Z" fill="#757575" stroke="#263238" stroke-linecap="round" stroke-linejoin="round"/>
<path d="M54.5893 99.7438H48.8346L47.9714 88.98H55.4525L54.5893 99.7438Z" fill="#9468B4" stroke="#263238" stroke-linecap="round" stroke-linejoin="round"/>
<path d="M55.7601 87.917H47.4485V90.3693H55.7601V87.917Z" fill="white" stroke="#263238" stroke-linecap="round" stroke-linejoin="round"/>
<path d="M54.8283 96.7584L55.1454 92.8184H48.2791L48.5962 96.7584H54.8283Z" fill="white" stroke="#263238" stroke-linecap="round" stroke-linejoin="round"/>
<path d="M148.011 145.785H151.935" stroke="#263238" stroke-linecap="round" stroke-linejoin="round"/>
<path d="M141.472 145.785H145.615" stroke="#263238" stroke-linecap="round" stroke-linejoin="round"/>
<path d="M41.8569 145.785H139.075" stroke="#263238" stroke-linecap="round" stroke-linejoin="round"/>
<path d="M14.98 145.785H38.8031" stroke="#263238" stroke-linecap="round" stroke-linejoin="round"/>
</svg>
