<svg width="812" height="814" viewBox="0 0 812 814" fill="none" xmlns="http://www.w3.org/2000/svg">
<path fill-rule="evenodd" clip-rule="evenodd" d="M359.872 1.89511C294.136 9.48186 230.782 33.1176 176.749 70.2105C160.583 81.309 156.01 85.5075 156.01 89.2495C156.01 90.8437 158.563 95.5598 161.685 99.7278C172.861 114.656 178.132 129.542 178.132 146.186C178.132 178.33 155.894 207.929 124.41 217.691C106.647 223.2 82.9901 220.257 67.1548 210.571C60.0398 206.22 55.5448 205.541 51.9306 208.276C48.9676 210.518 31.9198 246.276 25.42 263.882C-7.94981 354.278 -8.48351 454.92 23.9268 545.825C40.181 591.415 72.8596 646.319 102.559 677.938C108.101 683.838 110.26 685.222 113.918 685.222C117.9 685.222 119.198 684.15 124.863 676.184C136.676 659.571 158.605 644.998 177.854 640.969C188.319 638.779 207.962 639.076 217.592 641.571C250.208 650.019 276.676 677.408 283.241 709.503C287.849 732.036 282.557 759.337 270.128 777.144C267.566 780.814 267.338 788.4 269.731 790.359C275.462 795.048 320.031 806.287 351.652 811.016C377.466 814.876 438.717 814.493 465.572 810.304C555.985 796.201 634.038 755.898 697.356 690.62C766.376 619.464 805.634 529.479 811.324 429.396C813.225 395.951 809.648 343.543 804.946 335.924C802.489 331.945 797.737 331.896 787.053 335.741C781.354 337.792 774.291 338.881 763.677 339.347C741.628 340.313 731.157 337.434 704.915 323.187C682.616 311.081 654.164 315.567 635.695 334.101C620.82 349.028 616.867 362.56 619.414 389.837C622.888 427.047 615.019 467.428 597.411 502.769C561.291 575.26 487.206 621.398 406.92 621.398C369.084 621.398 338.993 613.963 305.511 596.339C258.224 571.448 219.153 524.873 202.577 473.632C188.385 429.762 188.572 381.002 203.095 338.785C209.107 321.308 220.977 298.14 231.752 282.853C243.323 266.436 266.327 243.256 282.257 231.963C354.224 180.941 448.5 178.881 522.059 226.72C536.872 236.354 547.477 245.197 561.346 259.478C578.971 277.626 597.92 284.365 619.468 280.15C643.662 275.416 661.712 256.896 667.017 231.364C672.789 203.583 686.128 183.049 707.406 169.188C726.65 156.652 726.779 156.055 713.595 140.502C664.465 82.5341 592.951 36.5849 518.259 14.9929C498.565 9.3001 474.328 4.53965 451.893 1.95755C429.438 -0.625938 381.996 -0.65785 359.872 1.89511ZM686.941 550.254C699.986 554.865 710.253 564.546 716.293 577.929C720.851 588.032 720.587 604.164 715.688 614.763C700.362 647.927 659.175 654.902 635.295 628.379C624.099 615.941 620.042 600.522 623.945 585.232C631.324 556.331 659.645 540.605 686.941 550.254Z" fill="#D0D9DE"/>
<path d="M58.7515 170.977C44.8145 142.569 59.0999 107.988 88.7117 98.4537C124.892 86.8031 159.905 114.648 156.739 152.556C155.197 171.008 144.841 186.32 128.418 194.433C119.844 198.669 118.202 198.993 105.332 198.993C93.2191 198.993 90.4912 198.53 83.6306 195.303C72.7368 190.177 63.9612 181.599 58.7515 170.977Z" fill="url(#paint0_linear)"/>
<path d="M145.198 697.797L145.199 697.796C152.809 681.713 166.487 670.203 183.245 665.682L183.245 665.682C197.816 661.749 215.646 664.001 228.41 671.33C232.091 673.443 237.052 677.583 241.682 682.328C246.336 687.097 250.144 691.954 251.836 695.284C267.271 725.646 254.758 762.777 224.326 777.28L224.326 777.28C219.643 779.512 216.984 780.606 214.22 781.268C211.423 781.938 208.293 782.221 202.583 782.472C187.428 783.136 177.102 780.532 166.856 773.862C157.217 767.586 150.336 760.088 145.95 751.318C141.557 742.536 139.525 732.198 140.012 720.047C140.252 714.06 140.514 710.874 141.175 708.048C141.827 705.265 142.916 702.618 145.198 697.797Z" stroke="url(#paint1_linear)" stroke-width="10"/>
<path d="M645.835 609.846C637.402 592.865 644.648 573.755 661.896 567.478C672.136 563.752 683.88 566.076 692 573.438C707.097 587.124 704.189 612.662 686.453 622.165C681.21 624.973 678.688 625.424 670.428 625.03C657.735 624.425 651.013 620.275 645.835 609.846Z" fill="url(#paint2_linear)"/>
<path d="M696.199 204.335C704.987 195.705 717.585 188.873 728.586 186.767C765.953 179.616 800.707 204.002 806.842 241.676C813.219 280.846 782.306 317.05 742.599 316.914C723.029 316.846 709.585 311.285 695.976 297.628C682.393 283.997 676.825 270.473 676.757 250.947C676.696 233.096 683.485 216.819 696.199 204.335Z" fill="url(#paint3_linear)"/>
<path d="M257.892 360.821C275.502 299.839 329.953 254.073 393.535 246.815C406.703 245.311 428.207 246.257 442.439 248.967C505.66 261.002 555.165 310.091 568.961 374.427C572.311 390.047 572.347 424.673 569.027 439.414C561.893 471.107 548.715 496.101 527.258 518.637C503.942 543.126 471.138 560.431 437.705 565.877C424.724 567.992 394.442 567.591 381.541 565.135C358.679 560.784 334.727 550.332 316.492 536.75C295.327 520.986 274.582 494.946 264.393 471.355C249.893 437.776 247.486 396.854 257.892 360.821Z" fill="url(#paint4_linear)"/>
<defs>
<linearGradient id="paint0_linear" x1="127.192" y1="198.993" x2="75.5364" y2="101.657" gradientUnits="userSpaceOnUse">
<stop stop-color="#723E8F"/>
<stop offset="1" stop-color="#D4B6FD"/>
</linearGradient>
<linearGradient id="paint1_linear" x1="199.2" y1="658.769" x2="199.2" y2="787.572" gradientUnits="userSpaceOnUse">
<stop stop-color="#764394"/>
<stop offset="1" stop-color="#A47CC8"/>
</linearGradient>
<linearGradient id="paint2_linear" x1="684.672" y1="625.153" x2="654.878" y2="569.194" gradientUnits="userSpaceOnUse">
<stop stop-color="#723E8F"/>
<stop offset="1" stop-color="#D4B6FD"/>
</linearGradient>
<linearGradient id="paint3_linear" x1="770.073" y1="316.914" x2="704.067" y2="193.388" gradientUnits="userSpaceOnUse">
<stop stop-color="#723E8F"/>
<stop offset="1" stop-color="#D4B6FD"/>
</linearGradient>
<linearGradient id="paint4_linear" x1="479.582" y1="567.246" x2="318.249" y2="265.33" gradientUnits="userSpaceOnUse">
<stop stop-color="#723E8F"/>
<stop offset="1" stop-color="#D4B6FD"/>
</linearGradient>
</defs>
</svg>
