<svg width="154" height="154" viewBox="0 0 154 154" fill="none" xmlns="http://www.w3.org/2000/svg">
<path d="M106.226 43.898V110.105C106.226 111.706 104.928 113.003 103.325 113.003H54.5337C52.9313 113.003 51.6333 111.706 51.6333 110.105V43.898C51.6333 42.2971 52.9312 41.0005 54.5337 41.0005H66.5355V45.1946C66.5355 45.9958 67.1851 46.6434 67.9857 46.6434H90.0183C90.8189 46.6434 91.4685 45.9958 91.4685 45.1946V41.0005H103.325C104.928 41.0005 106.226 42.2971 106.226 43.898Z" fill="#FCA62F"/>
<path d="M106.226 43.8975V110.105C106.226 111.705 104.927 113.002 103.326 113.002H100.47C102.071 113.002 103.371 111.706 103.371 110.105V43.8975C103.37 42.2966 102.071 41 100.47 41H103.326C104.927 41 106.226 42.2966 106.226 43.8975Z" fill="#FB9927"/>
<path d="M106.226 57.5027V73.882C104.981 74.5122 103.575 74.8671 102.084 74.8671C97.0126 74.8671 92.8999 70.7585 92.8999 65.6923C92.8999 60.6246 97.0126 56.5176 102.084 56.5176C103.575 56.5176 104.981 56.8725 106.226 57.5027Z" fill="#FB9927"/>
<path d="M101.515 46.7392V107.164C101.515 107.915 100.906 108.523 100.153 108.523H57.705C56.9523 108.523 56.3418 107.915 56.3418 107.164V46.7392C56.3418 45.9888 56.9523 45.3789 57.705 45.3789H66.5468C66.6367 46.0932 67.2472 46.6437 67.9853 46.6437H90.0179C90.7561 46.6437 91.3666 46.0932 91.4564 45.3789H100.153C100.906 45.3789 101.515 45.9888 101.515 46.7392Z" fill="#F8F3F1"/>
<path d="M64.7905 45.3779V49.3837C64.7905 50.1835 65.4402 50.8325 66.2407 50.8325H67.0644V52.7737C67.0644 54.6296 68.5754 56.1391 70.4332 56.1391H87.4265C89.2842 56.1391 90.7952 54.6296 90.7952 52.7737V50.8324H91.6189C92.4194 50.8324 93.0691 50.1834 93.0691 49.3836V45.3779H64.7905ZM88.6199 52.7737C88.6199 53.4315 88.0849 53.966 87.4265 53.966H70.4332C69.7748 53.966 69.2397 53.4315 69.2397 52.7737V50.8324H88.6199V52.7737Z" fill="#EFE2DD"/>
<path d="M101.516 46.738V107.163C101.516 107.913 100.906 108.523 100.155 108.523H97.0029C97.7544 108.523 98.3643 107.913 98.3643 107.163V46.738C98.3643 45.9873 97.7544 45.3779 97.0029 45.3779H100.154C100.906 45.3779 101.516 45.9871 101.516 46.738Z" fill="#EFE2DD"/>
<path d="M96.4913 61.3297H61.3674C60.7667 61.3297 60.2798 60.8433 60.2798 60.2432C60.2798 59.6432 60.7667 59.1567 61.3674 59.1567H96.4913C97.092 59.1567 97.5789 59.6432 97.5789 60.2432C97.5789 60.8433 97.092 61.3297 96.4913 61.3297Z" fill="#EFE2DD"/>
<path d="M62.2815 103.331C61.7068 103.331 61.2266 102.881 61.1963 102.301C61.1651 101.702 61.626 101.191 62.2259 101.16C63.0165 101.118 63.7949 100.932 64.526 100.626C64.4978 100.34 64.506 100.045 64.5519 99.7471C64.8252 97.9664 65.6991 96.2922 67.0125 95.0326C68.2623 93.8342 69.4394 94.0541 70.1244 94.6599C70.7538 95.2167 70.9922 96.1021 70.7318 96.9156C70.2198 98.515 69.2474 99.9265 67.9895 101.016C68.3097 100.895 68.589 100.719 68.6882 100.654C69.241 100.288 70.0669 99.8373 70.8543 100.141C71.0689 100.224 71.4228 100.424 71.634 100.881C71.7159 100.858 71.8145 100.822 71.9165 100.769C72.5213 100.454 73.1 100.08 73.6369 99.6569C74.1389 99.2616 74.8044 99.194 75.374 99.4806C75.8446 99.7175 76.1614 100.149 76.2507 100.652C76.7538 100.388 77.2247 100.066 77.6546 99.6908C78.2361 99.183 79.1006 99.1505 79.71 99.6137C81.4917 100.967 84.284 100.72 86.7613 100.381C87.3572 100.299 87.9049 100.716 87.9863 101.31C88.0676 101.905 87.6512 102.453 87.0561 102.534C84.2888 102.912 81.1602 103.174 78.7577 101.601C78.1514 102.084 77.4889 102.489 76.7832 102.81C76.5788 102.903 76.1001 103.121 75.5398 103.013C74.9505 102.9 74.4898 102.478 74.2601 101.894C73.8299 102.188 73.3821 102.456 72.9216 102.696C72.6198 102.853 71.5621 103.334 70.6244 102.919C70.3623 102.803 70.1406 102.631 69.969 102.414C69.9435 102.43 69.9166 102.447 69.8884 102.466C68.2286 103.563 66.5574 103.593 65.4795 102.59C64.492 103.015 63.4298 103.273 62.3388 103.33C62.3198 103.331 62.3005 103.331 62.2815 103.331ZM74.1014 100.933C74.1013 100.935 74.1013 100.936 74.1013 100.937C74.1013 100.935 74.1014 100.934 74.1014 100.933ZM68.5478 96.5729C68.5383 96.5816 68.5286 96.5908 68.5188 96.6002C67.828 97.2627 67.3019 98.0792 66.9835 98.9677C67.6646 98.2803 68.2077 97.4655 68.5478 96.5729Z" fill="#EFE2DD"/>
<path d="M73.0247 75.8698H72.8776C72.277 75.8698 71.79 75.3833 71.79 74.7833C71.79 74.1832 72.277 73.6968 72.8776 73.6968H73.0247C73.6254 73.6968 74.1123 74.1832 74.1123 74.7833C74.1123 75.3833 73.6254 75.8698 73.0247 75.8698Z" fill="#EFE2DD"/>
<path d="M76.4676 75.8678H76.3205C75.7198 75.8678 75.2329 75.3814 75.2329 74.7813C75.2329 74.1813 75.7198 73.6948 76.3205 73.6948H76.4676C77.0683 73.6948 77.5552 74.1813 77.5552 74.7813C77.5552 75.3814 77.0683 75.8678 76.4676 75.8678Z" fill="#EFE2DD"/>
<path d="M79.911 75.8678H79.7639C79.1632 75.8678 78.6763 75.3814 78.6763 74.7813C78.6763 74.1813 79.1632 73.6948 79.7639 73.6948H79.911C80.5116 73.6948 80.9986 74.1813 80.9986 74.7813C80.9986 75.3814 80.5116 75.8678 79.911 75.8678Z" fill="#EFE2DD"/>
<path d="M83.3533 75.8678H83.2062C82.6056 75.8678 82.1187 75.3814 82.1187 74.7813C82.1187 74.1813 82.6056 73.6948 83.2062 73.6948H83.3533C83.954 73.6948 84.4409 74.1813 84.4409 74.7813C84.4409 75.3814 83.954 75.8678 83.3533 75.8678Z" fill="#EFE2DD"/>
<path d="M96.1704 71.6066H72.4836C71.8829 71.6066 71.396 71.1202 71.396 70.5201C71.396 69.92 71.8829 69.4336 72.4836 69.4336H96.1704C96.771 69.4336 97.258 69.92 97.258 70.5201C97.2581 71.1202 96.771 71.6066 96.1704 71.6066Z" fill="#EFE2DD"/>
<path d="M78.8679 67.5265H72.4836C71.8829 67.5265 71.396 67.0401 71.396 66.44C71.396 65.84 71.8829 65.3535 72.4836 65.3535H78.8679C79.4686 65.3535 79.9555 65.84 79.9555 66.44C79.9555 67.0401 79.4686 67.5265 78.8679 67.5265Z" fill="#EFE2DD"/>
<path d="M73.0247 90.3869H72.8776C72.277 90.3869 71.79 89.9004 71.79 89.3004C71.79 88.7003 72.277 88.2139 72.8776 88.2139H73.0247C73.6254 88.2139 74.1123 88.7003 74.1123 89.3004C74.1125 89.9004 73.6254 90.3869 73.0247 90.3869Z" fill="#EFE2DD"/>
<path d="M76.4676 90.3859H76.3205C75.7198 90.3859 75.2329 89.8995 75.2329 89.2994C75.2329 88.6993 75.7198 88.2129 76.3205 88.2129H76.4676C77.0683 88.2129 77.5552 88.6993 77.5552 89.2994C77.5552 89.8995 77.0683 90.3859 76.4676 90.3859Z" fill="#EFE2DD"/>
<path d="M79.911 90.3859H79.7639C79.1632 90.3859 78.6763 89.8995 78.6763 89.2994C78.6763 88.6993 79.1632 88.2129 79.7639 88.2129H79.911C80.5116 88.2129 80.9986 88.6993 80.9986 89.2994C80.9987 89.8995 80.5116 90.3859 79.911 90.3859Z" fill="#EFE2DD"/>
<path d="M83.3533 90.3859H83.2062C82.6056 90.3859 82.1187 89.8995 82.1187 89.2994C82.1187 88.6993 82.6056 88.2129 83.2062 88.2129H83.3533C83.954 88.2129 84.4409 88.6993 84.4409 89.2994C84.4409 89.8995 83.954 90.3859 83.3533 90.3859Z" fill="#EFE2DD"/>
<path d="M96.1704 86.1247H72.4836C71.8829 86.1247 71.396 85.6382 71.396 85.0382C71.396 84.4381 71.8829 83.9517 72.4836 83.9517H96.1704C96.771 83.9517 97.258 84.4381 97.258 85.0382C97.2581 85.6382 96.771 86.1247 96.1704 86.1247Z" fill="#EFE2DD"/>
<path d="M78.8679 82.0446H72.4836C71.8829 82.0446 71.396 81.5581 71.396 80.9581C71.396 80.358 71.8829 79.8716 72.4836 79.8716H78.8679C79.4686 79.8716 79.9555 80.358 79.9555 80.9581C79.9555 81.5581 79.4686 82.0446 78.8679 82.0446Z" fill="#EFE2DD"/>
<path d="M87.4261 54.8356H70.4324C68.5748 54.8356 67.0635 53.326 67.0635 51.4701V47.7901C67.0635 47.19 67.5504 46.7036 68.1511 46.7036C68.7517 46.7036 69.2387 47.19 69.2387 47.7901V51.4702C69.2387 52.1277 69.7741 52.6626 70.4322 52.6626H87.426C88.0841 52.6626 88.6196 52.1277 88.6196 51.4702V47.7901C88.6196 47.19 89.1065 46.7036 89.7072 46.7036C90.3078 46.7036 90.7948 47.19 90.7948 47.7901V51.4702C90.7949 53.326 89.2836 54.8356 87.4261 54.8356Z" fill="#FCA62F"/>
<path d="M91.6181 48.6591H66.2398C65.4388 48.6591 64.7896 48.0105 64.7896 47.2103V41H93.0681V47.2103C93.0681 48.0103 92.4189 48.6591 91.6181 48.6591Z" fill="#5BBD93"/>
<path d="M93.0683 41V47.2107C93.0683 48.0105 92.4186 48.6595 91.6181 48.6595H88.7627C89.5633 48.6595 90.2129 48.0105 90.2129 47.2107V41H93.0683Z" fill="#2DB181"/>
<path d="M69.9598 45.9171H69.82C69.2193 45.9171 68.7324 45.4307 68.7324 44.8306C68.7324 44.2306 69.2193 43.7441 69.82 43.7441H69.9598C70.5605 43.7441 71.0474 44.2306 71.0474 44.8306C71.0474 45.4307 70.5605 45.9171 69.9598 45.9171Z" fill="#2DB181"/>
<path d="M88.0384 45.9162H87.8986C87.298 45.9162 86.811 45.4297 86.811 44.8297C86.811 44.2296 87.298 43.7432 87.8986 43.7432H88.0384C88.6391 43.7432 89.126 44.2296 89.126 44.8297C89.126 45.4297 88.6391 45.9162 88.0384 45.9162Z" fill="#2DB181"/>
<path d="M66.9477 72.0905H62.7422C62.3417 72.0905 62.0171 71.7662 62.0171 71.3661V67.1648C62.0171 66.7647 62.3417 66.4404 62.7422 66.4404H66.9477C67.3482 66.4404 67.6728 66.7647 67.6728 67.1648V71.3661C67.6728 71.766 67.3482 72.0905 66.9477 72.0905Z" fill="#BCEA73"/>
<path d="M66.9477 86.6085H62.7422C62.3417 86.6085 62.0171 86.2843 62.0171 85.8842V81.6829C62.0171 81.2828 62.3417 80.9585 62.7422 80.9585H66.9477C67.3482 80.9585 67.6728 81.2828 67.6728 81.6829V85.8842C67.6728 86.2843 67.3482 86.6085 66.9477 86.6085Z" fill="#BCEA73"/>
<path d="M103.438 72.4365C108.525 72.4365 112.649 68.3125 112.649 63.2253C112.649 58.1381 108.525 54.0142 103.438 54.0142C98.3502 54.0142 94.2261 58.1381 94.2261 63.2253C94.2261 68.3125 98.3502 72.4365 103.438 72.4365Z" fill="#BCEA73"/>
<path d="M112.649 63.2253C112.649 68.3117 108.525 72.4367 103.437 72.4367C102.955 72.4367 102.483 72.4003 102.02 72.3291C106.435 71.6469 109.815 67.8303 109.815 63.2253C109.815 58.6188 106.435 54.8035 102.02 54.1228C102.483 54.0501 102.955 54.0137 103.437 54.0137C108.525 54.0137 112.649 58.1373 112.649 63.2253Z" fill="#A3E440"/>
<path d="M101.428 67.2246C101.149 67.2246 100.87 67.118 100.657 66.9051L98.9597 65.2081C98.5336 64.7821 98.5336 64.0914 98.9597 63.6653C99.3857 63.2393 100.076 63.2393 100.503 63.6653L101.428 64.5908L106.475 59.5441C106.901 59.1181 107.592 59.1181 108.018 59.5441C108.444 59.9701 108.444 60.6608 108.018 61.0869L102.2 66.9049C101.986 67.118 101.707 67.2246 101.428 67.2246Z" fill="#A3E440"/>
</svg>
