<svg width="387" height="69" viewBox="0 0 387 69" fill="none" xmlns="http://www.w3.org/2000/svg">
<path fill-rule="evenodd" clip-rule="evenodd" d="M114.979 0.208949L111.441 0.296499L111.815 18.8266L110.384 17.6854C106.065 14.2418 98.6019 13.8801 93.0615 16.8459C89.2856 18.8675 85.9362 23.141 84.1925 28.1619C83.4468 30.3093 83.3209 31.1003 83.22 34.2653C83.0733 38.8624 83.669 41.6596 85.6825 45.8313C88.2801 51.2122 92.2945 54.4167 97.8488 55.5425C102.606 56.507 107.229 55.6256 110.496 53.1311L112.25 51.7918L112.417 54.4049L125.312 54.5551L125.306 49.8645C125.303 47.285 125.118 35.4821 124.896 23.6361C124.674 11.7901 124.49 1.62599 124.486 1.04894L124.48 0L121.499 0.0606989C119.86 0.0942649 116.926 0.160837 114.979 0.208949ZM224.451 2.96584C224.299 3.00807 221.397 3.93646 218.004 5.02959L211.834 7.01697V13.9858H206.277L206.426 26.4332L212.027 26.5918L212.207 29.7291C212.305 31.4547 212.387 34.5031 212.389 36.503C212.396 44.2218 213.879 48.3916 217.484 50.836C220.166 52.6539 224.763 53.4158 230.01 52.9123C231.812 52.7395 233.358 52.5011 233.445 52.3825C233.532 52.2642 233.54 49.5994 233.464 46.4607L233.325 40.7545L230.552 40.7251C227.507 40.6932 226.322 40.2873 225.782 39.0921C225.616 38.7237 225.388 35.6933 225.276 32.3579L225.072 26.2934H228.974C231.507 26.2934 232.943 26.1857 233.065 25.9865C233.168 25.8179 233.162 22.9891 233.051 19.7004L232.848 13.7212L225.006 13.5663L224.867 8.22787C224.78 4.87099 224.626 2.918 224.451 2.96584ZM197.997 13.8692C194.97 14.6902 192.107 16.9002 190.785 19.4361L190.203 20.5508V17.5645C190.203 15.922 190.11 14.5218 189.995 14.453C189.881 14.3839 186.93 14.3951 183.437 14.4779L177.087 14.6281L177.269 25.7054C177.369 31.7979 177.531 40.5298 177.629 45.1094L177.808 53.436L190.619 53.286V43.7757C190.619 34.3853 190.627 34.2488 191.264 32.9585C192.587 30.2746 194.973 28.5703 198.244 27.972C199.216 27.7943 200.445 27.7311 200.975 27.8313L201.94 28.0139L201.757 22.4934C201.656 19.4571 201.573 16.1749 201.573 15.1995V13.4264L200.533 13.4449C199.961 13.4549 198.82 13.646 197.997 13.8692ZM143.892 14.4021C141.384 14.971 140.027 15.5271 138.156 16.7536C133.957 19.5072 130.969 24.1863 129.848 29.7655C129.247 32.7565 129.463 38.1436 130.303 41.1108C132.276 48.0802 137.511 53.3453 143.805 54.6905C148.828 55.7643 153.554 54.7895 157.297 51.9076L158.59 50.9121V52.2855C158.59 53.041 158.713 53.7009 158.865 53.7523C159.016 53.8035 161.967 53.8094 165.424 53.7652L171.708 53.6846L171.528 44.8143C171.429 39.9354 171.266 31.1918 171.165 25.3843L170.983 14.825H158.035V17.9486L157.273 17.3553C155.635 16.0815 154.287 15.3041 152.796 14.7741C150.715 14.0345 146.321 13.851 143.892 14.4021ZM54.4214 16.0647C41.2042 19.0971 34.6369 33.7095 40.9615 46.0134C42.4471 48.9037 46.2529 52.6735 49.2493 54.2234C52.5562 55.9338 55.1688 56.5632 59.0348 56.5808C62.9795 56.5984 65.1928 56.0919 68.7271 54.3618C70.9273 53.2849 71.7304 52.6914 73.729 50.6651C76.4442 47.9121 78.014 45.2064 79.034 41.522C79.8628 38.5271 79.8709 33.8105 79.0523 30.7286C77.2692 24.0159 72.4794 18.9061 65.8289 16.6213C63.9349 15.9707 63.063 15.8457 59.8667 15.7668C57.3506 15.7047 55.565 15.8023 54.4214 16.0647ZM17.0319 16.5156C11.5961 17.3774 6.38899 20.6814 3.47555 25.1177C-0.673039 31.434 -1.13476 39.3769 2.23624 46.433C4.29473 50.742 8.83656 54.6043 13.9715 56.4124C16.0026 57.1277 16.53 57.194 20.2111 57.1979C23.6489 57.2015 24.5338 57.1075 26.3119 56.5506C29.8477 55.4429 32.2705 54.1107 34.3534 52.1289C36.4272 50.1557 38.3695 47.466 38.1457 46.8775C38.0689 46.6761 35.6099 45.1815 32.6812 43.5561L27.3563 40.6009L25.9328 42.0697C24.1153 43.9449 22.5438 44.5832 20.1259 44.4277C15.8159 44.1511 13.1856 41.1399 13.2034 36.503C13.2189 32.4631 15.9998 29.4897 20.071 29.1599C21.546 29.0405 22.0527 29.1317 23.4165 29.7616C24.3006 30.1697 25.4961 31.0195 26.0732 31.6502L27.1225 32.7968L32.3329 29.6416C35.1984 27.9062 37.6543 26.3876 37.7904 26.2665C38.1984 25.9032 36.3595 23.3256 34.402 21.5161C32.3751 19.6428 28.6583 17.6314 25.896 16.9131C23.8236 16.3741 19.2258 16.1679 17.0319 16.5156ZM153.423 26.8632C154.414 27.2369 155.319 27.8559 156.057 28.6623C157.723 30.486 158.123 31.6083 158.15 34.545C158.177 37.3464 157.688 38.6997 155.995 40.5136C154.483 42.1337 153.197 42.6509 150.685 42.6504C147.154 42.6495 144.868 41.2826 143.264 38.2138C142.376 36.5153 142.388 32.5596 143.286 30.7168C144.035 29.1795 145.705 27.5711 147.321 26.831C148.879 26.1172 151.483 26.1309 153.423 26.8632ZM106.504 27.4215C108.25 27.9104 110.079 29.3773 110.986 31.0167C112.057 32.9512 112.324 36.0787 111.604 38.2644C111.045 39.9612 109.307 42.0336 107.739 42.8736C106.124 43.7379 103.004 43.7116 100.985 42.8165C99.3579 42.0954 97.5601 40.2949 96.8637 38.6896C96.133 37.0057 96.2032 33.5048 97.0041 31.6802C97.729 30.0282 99.3041 28.4514 101.01 27.6701C102.293 27.0825 104.877 26.9653 106.504 27.4215ZM62.5367 29.0368C68.3525 32.0323 67.8771 41.336 61.7982 43.4993C57.5575 45.0087 53.1868 42.748 51.9328 38.3967C50.7445 34.2737 53.0315 29.7496 56.9156 28.5398C58.2991 28.109 61.2399 28.3692 62.5367 29.0368Z" fill="white"/>
<path d="M331.77 18.0404C333.448 15.4228 335.753 13.7951 338.861 13.0335C339.63 12.8449 340.649 12.6802 341.126 12.667C341.882 12.6463 342.015 12.7549 342.166 13.5174C342.261 13.9982 342.339 17.2566 342.339 20.7587V27.1256L340.541 27.1362C336.222 27.1614 332.921 29.2626 331.641 32.8022C331.258 33.8603 331.199 35.403 331.234 43.3475L331.275 52.6531L318.352 52.5029L318.017 33.3445C317.832 22.8076 317.77 14.1009 317.878 13.9963C317.986 13.8916 320.882 13.7697 324.314 13.7249L330.554 13.6438L330.712 19.6927L331.77 18.0404Z" fill="white"/>
<path d="M248.581 44.6269C249.231 42.2029 251.356 39.877 253.738 38.9811C254.196 38.8088 255.568 38.7067 256.788 38.754C259.498 38.8591 260.776 39.453 262.534 41.4253C265.998 45.3122 264.806 51.5809 260.116 54.1331C259.214 54.6237 258.54 54.7367 256.511 54.7367C253.825 54.7367 252.728 54.3535 250.85 52.7597C248.917 51.1191 247.857 47.322 248.581 44.6269Z" fill="white"/>
<path fill-rule="evenodd" clip-rule="evenodd" d="M363.276 12.0936C356.726 13.1082 350.98 17.2846 348.07 23.1469C346.377 26.5583 346.081 27.9631 346.1 32.5031C346.115 36.1232 346.196 36.7996 346.855 38.7968C347.925 42.0359 349.378 44.3676 351.913 46.9086C354.519 49.5214 356.385 50.7066 359.738 51.8777C362.929 52.9927 367.694 53.2593 371.074 52.5116C378.693 50.8266 384.53 45.1802 386.44 37.646C387.186 34.7017 387.187 30.026 386.441 27.0831C384.687 20.1688 378.984 14.4063 372.148 12.6427C369.599 11.9848 365.583 11.7364 363.276 12.0936ZM373.902 32.109C373.752 28.8702 372.465 26.6196 370.039 25.3541C367.988 24.2842 364.805 24.4034 362.734 25.6277C357.553 28.6906 357.827 36.763 363.205 39.5307C366.876 41.4194 371.758 39.6426 373.386 35.8259C373.9 34.6201 373.988 33.9865 373.902 32.109Z" fill="white"/>
<path fill-rule="evenodd" clip-rule="evenodd" d="M290.138 13.6203C288.136 14.1325 286.806 14.8144 285 16.2547L283.578 17.3887L283.41 14.4614L277.032 14.5602C273.524 14.6144 270.61 14.7006 270.557 14.7515C270.379 14.921 271.396 68.7237 271.581 68.9139C271.681 69.0171 274.62 69.0291 278.111 68.941L284.459 68.7805L284.055 50.2951L284.981 51.052C287.359 52.9955 291.276 54.3211 294.642 54.3211C296.909 54.3211 300.128 53.5496 302.358 52.4721C306.485 50.4772 310.458 45.4563 311.947 40.3517C314.48 31.6721 311.116 20.7942 304.491 16.2424C301.64 14.2838 298.871 13.4363 294.919 13.3126C292.742 13.2446 291.225 13.3423 290.138 13.6203ZM298.742 29.8072C297.828 28.0568 296.117 26.5278 294.421 25.9449C288.871 24.0375 283.421 28.3628 283.894 34.2995C284.342 39.9324 288.969 43.1844 294.273 41.5953C296.035 41.0675 297.979 39.3663 298.823 37.6136C299.344 36.5311 299.468 35.8046 299.48 33.7619C299.492 31.5496 299.402 31.0702 298.742 29.8072Z" fill="white"/>
</svg>
