<svg width="389" height="71" viewBox="0 0 389 71" fill="none" xmlns="http://www.w3.org/2000/svg">
<path fill-rule="evenodd" clip-rule="evenodd" d="M116.502 0.181047L112.963 0.203467L112.996 18.7373L111.585 17.5699C107.331 14.0475 99.8758 13.5485 94.2817 16.4119C90.4693 18.3636 87.0418 22.5747 85.206 27.5627C84.4209 29.696 84.2805 30.4846 84.1213 33.6472C83.89 38.2409 84.4341 41.0485 86.3706 45.2566C88.8687 50.6844 92.8234 53.9621 98.356 55.19C103.095 56.2418 107.733 55.4457 111.046 53.0117L112.824 51.7049L112.943 54.3207L125.833 54.7082L125.913 50.0183C125.957 47.4391 125.99 35.6348 125.986 23.7867C125.982 11.9386 125.985 1.77286 125.992 1.19584L126.005 0.146973L123.024 0.152803C121.384 0.156193 118.449 0.168763 116.502 0.181047ZM225.905 4.95199C225.752 4.99141 222.833 5.86624 219.42 6.89674L213.215 8.77025L213.086 15.7379L207.531 15.6357L207.451 28.0837L213.048 28.3454L213.17 31.4854C213.236 33.2125 213.262 36.2619 213.227 38.2615C213.093 45.9792 214.498 50.1755 218.058 52.6858C220.706 54.5528 225.288 55.3992 230.544 54.9923C232.349 54.8526 233.898 54.6428 233.987 54.5258C234.076 54.4091 234.134 51.7449 234.116 48.6053L234.082 42.8975L231.31 42.8171C228.266 42.7292 227.088 42.3016 226.57 41.0966C226.411 40.7252 226.239 37.6911 226.188 34.3543L226.096 28.287L229.998 28.3588C232.529 28.4054 233.967 28.3242 234.093 28.1273C234.2 27.9605 234.245 25.1321 234.195 21.842L234.103 15.8601L226.264 15.5608L226.224 10.2208C226.199 6.86287 226.08 4.90737 225.905 4.95199ZM199.254 15.3667C196.212 16.1318 193.309 18.2888 191.941 20.7999L191.339 21.9037L191.394 18.918C191.424 17.2758 191.356 15.874 191.243 15.8031C191.13 15.7319 188.179 15.6888 184.686 15.7073L178.334 15.7406L178.312 26.8195C178.3 32.9128 178.301 41.6462 178.315 46.2267L178.34 54.5552L191.153 54.6411L191.328 45.1323C191.5 35.7435 191.511 35.6072 192.171 34.3288C193.543 31.6697 195.96 30.0096 199.242 29.4716C200.217 29.3119 201.446 29.2713 201.975 29.3812L202.936 29.5816L202.854 24.0586C202.809 21.021 202.787 17.7378 202.805 16.7626L202.838 14.9898L201.798 14.9891C201.226 14.9886 200.081 15.1587 199.254 15.3667ZM145.149 14.9038C142.63 15.4265 141.264 15.9575 139.371 17.1494C135.121 19.8252 132.048 24.4485 130.824 30.0062C130.168 32.9857 130.286 38.3758 131.07 41.358C132.915 48.3625 138.052 53.7231 144.32 55.1838C149.323 56.3499 154.066 55.4622 157.861 52.6497L159.172 51.6781L159.147 53.0513C159.133 53.8067 159.244 54.4687 159.395 54.5229C159.545 54.5769 162.496 54.6371 165.952 54.6565L172.237 54.6916L172.22 45.8194C172.211 40.9396 172.209 32.1944 172.215 26.3861L172.227 15.8252L159.282 15.5869L159.224 18.71L158.473 18.1028C156.859 16.799 155.525 15.997 154.044 15.4396C151.977 14.6619 147.588 14.3976 145.149 14.9038ZM55.6625 14.9197C42.3917 17.7084 35.5566 32.1975 41.6538 44.6157C43.0859 47.5328 46.8217 51.372 49.7891 52.9768C53.064 54.7478 55.6645 55.4251 59.5295 55.5139C63.4733 55.6041 65.6955 55.1383 69.2611 53.4736C71.4807 52.4374 72.2946 51.8587 74.3301 49.8696C77.0955 47.167 78.7149 44.4907 79.8024 40.8256C80.6863 37.8465 80.7812 33.1308 80.0194 30.0344C78.3601 23.29 73.6652 18.0929 67.0579 15.6862C65.1761 15.0008 64.3067 14.8598 61.1124 14.7221C58.5979 14.6137 56.8108 14.6784 55.6625 14.9197ZM18.2711 14.6825C12.8203 15.4441 7.55329 18.6518 4.5587 23.0337C0.294583 29.2726 -0.31323 37.2056 2.92736 44.3225C4.9062 48.6687 9.37618 52.614 14.477 54.5163C16.4946 55.2687 17.0207 55.3447 20.701 55.4164C24.1382 55.4833 25.0247 55.4056 26.8128 54.8815C30.3683 53.8391 32.8153 52.5516 34.9343 50.6085C37.044 48.6738 39.0355 46.0203 38.8225 45.4277C38.7494 45.225 36.3184 43.6854 33.4201 42.0064L28.1505 38.9537L26.7002 40.396C24.8485 42.2375 23.2655 42.8468 20.8509 42.6468C16.5467 42.2909 13.9723 39.2318 14.0754 34.5961C14.1652 30.5571 17.0004 27.6354 21.077 27.3806C22.5539 27.2883 23.0588 27.3888 24.4108 28.0437C25.2873 28.468 26.4669 29.3397 27.0323 29.9809L28.0603 31.1466L33.328 28.0878C36.2249 26.4055 38.7083 24.9324 38.8466 24.8138C39.2612 24.458 37.4701 21.847 35.5461 20.0018C33.5541 18.0915 29.8749 16.012 27.1263 15.243C25.0642 14.666 20.4709 14.3752 18.2711 14.6825ZM154.449 27.5382C155.432 27.9301 156.327 28.5656 157.049 29.3855C158.681 31.2396 159.06 32.369 159.033 35.3057C159.009 38.1071 158.495 39.4512 156.769 41.2337C155.227 42.8257 153.932 43.3191 151.421 43.2723C147.89 43.2065 145.629 41.7977 144.083 38.7C143.226 36.9855 143.311 33.0306 144.242 31.2047C145.02 29.6814 146.719 28.104 148.348 27.3937C149.919 26.7087 152.523 26.7703 154.449 27.5382ZM107.528 27.233C109.264 27.754 111.065 29.2542 111.943 30.9101C112.978 32.864 113.187 35.9959 112.427 38.1679C111.837 39.8541 110.061 41.8942 108.477 42.7052C106.847 43.5397 103.728 43.456 101.726 42.5239C100.112 41.7729 98.348 39.9396 97.6813 38.3218C96.9817 36.6247 97.1163 33.1257 97.9506 31.3161C98.7058 29.6778 100.31 28.1302 102.029 27.3805C103.324 26.8166 105.909 26.7469 107.528 27.233ZM63.5377 28.039C69.2974 31.141 68.6509 40.4343 62.5332 42.4854C58.2655 43.9165 53.9371 41.5758 52.7634 37.2022C51.6512 33.058 54.021 28.5767 57.9267 27.4386C59.3179 27.0334 62.2535 27.3476 63.5377 28.039Z" fill="white"/>
<path d="M333.025 19.7225C334.733 17.1242 337.056 15.523 340.174 14.7969C340.944 14.6171 341.965 14.464 342.442 14.4563C343.198 14.4443 343.33 14.5543 343.472 15.3185C343.562 15.8004 343.603 19.0595 343.563 22.5613L343.49 28.9278L341.691 28.9179C337.373 28.8937 334.049 30.9571 332.728 34.4818C332.333 35.5355 332.256 37.0774 332.2 45.0218L332.134 54.3272L319.214 54.0294L319.098 34.8685C319.034 24.3301 319.071 15.6232 319.181 15.5199C319.29 15.4165 322.187 15.3276 325.619 15.3221L331.859 15.3123L331.948 21.3625L333.025 19.7225Z" fill="white"/>
<path d="M249.538 45.3569C250.216 42.9405 252.367 40.6391 254.759 39.7704C255.219 39.6033 256.593 39.5169 257.812 39.5781C260.52 39.7142 261.791 40.3226 263.527 42.3149C266.946 46.2411 265.682 52.4958 260.964 54.9942C260.057 55.4745 259.381 55.5798 257.352 55.5566C254.666 55.526 253.573 55.1302 251.714 53.5151C249.8 51.8526 248.784 48.0435 249.538 45.3569Z" fill="white"/>
<path fill-rule="evenodd" clip-rule="evenodd" d="M364.598 14.136C358.036 15.0756 352.242 19.1861 349.266 25.0148C347.534 28.4067 347.222 29.808 347.189 34.3479C347.162 37.968 347.236 38.6452 347.873 40.6498C348.905 43.9009 350.332 46.2491 352.837 48.8188C355.413 51.4613 357.266 52.6677 360.605 53.8771C363.783 55.0284 368.545 55.3494 371.932 54.6404C379.571 53.0425 385.471 47.4632 387.468 39.9513C388.248 37.0157 388.302 32.3403 387.589 29.3891C385.915 22.4552 380.278 16.628 373.463 14.7864C370.921 14.0994 366.908 13.8052 364.598 14.136ZM374.994 34.2715C374.881 31.0311 373.62 28.766 371.209 27.4729C369.17 26.3796 365.986 26.4624 363.901 27.663C358.685 30.6665 358.866 38.7414 364.213 41.5705C367.862 43.501 372.764 41.7801 374.436 37.9822C374.964 36.7823 375.059 36.1498 374.994 34.2715Z" fill="white"/>
<path fill-rule="evenodd" clip-rule="evenodd" d="M291.447 14.8271C289.439 15.3163 288.101 15.983 286.279 17.4026L284.844 18.5202L284.71 15.5913L278.331 15.6171C274.823 15.6313 271.908 15.6842 271.854 15.7345C271.674 15.9019 272.076 69.7127 272.259 69.905C272.358 70.0094 275.296 70.055 278.789 70.0068L285.138 69.9187L284.945 51.43L285.862 52.1974C288.217 54.1679 292.119 55.5382 295.485 55.5766C297.752 55.6025 300.98 54.8679 303.222 53.8159C307.371 51.8683 311.401 46.8931 312.949 41.8059C315.581 33.1558 312.341 22.2401 305.769 17.6129C302.94 15.6219 300.181 14.7428 296.231 14.574C294.054 14.4812 292.536 14.5615 291.447 14.8271ZM299.866 31.1112C298.971 29.3504 297.278 27.8021 295.589 27.1998C290.061 25.2291 284.562 29.4918 284.966 35.4336C285.35 41.0713 289.939 44.3759 295.262 42.8475C297.029 42.3398 298.993 40.6609 299.857 38.918C300.39 37.8415 300.523 37.1165 300.557 35.074C300.595 32.862 300.511 32.3816 299.866 31.1112Z" fill="white"/>
</svg>
