<svg width="76" height="70" viewBox="0 0 76 70" fill="none" xmlns="http://www.w3.org/2000/svg">
<path d="M29.1494 40.7549C35.3963 47.0018 42.3672 50.2018 44.6837 47.8844L47.6085 44.9596C48.1385 44.4295 48.7677 44.009 49.4602 43.7222C50.1526 43.4353 50.8948 43.2877 51.6444 43.2877C52.3939 43.2877 53.1361 43.4353 53.8286 43.7222C54.5211 44.009 55.1503 44.4295 55.6803 44.9596L62.1373 51.4166C62.8794 52.1585 63.468 53.0394 63.8696 54.0088C64.2712 54.9783 64.4779 56.0174 64.4779 57.0667C64.4779 58.1161 64.2712 59.1551 63.8696 60.1246C63.468 61.094 62.8794 61.9749 62.1373 62.7168L57.5951 67.259C51.9681 72.886 35.1059 65.1473 19.9315 49.9729C12.3478 42.3821 6.61928 34.3736 3.49141 27.5576C0.36353 20.7417 -0.167282 15.1201 2.64887 12.3057L7.19106 7.76349C7.933 7.02143 8.81385 6.43278 9.78331 6.03117C10.7528 5.62956 11.7918 5.42285 12.8412 5.42285C13.8905 5.42285 14.9296 5.62956 15.8991 6.03117C16.8685 6.43278 17.7494 7.02143 18.4913 7.76349L24.9483 14.2205C25.4784 14.7505 25.8989 15.3797 26.1857 16.0722C26.4726 16.7646 26.6202 17.5068 26.6202 18.2564C26.6202 19.0059 26.4726 19.7481 26.1857 20.4406C25.8989 21.1331 25.4784 21.7623 24.9483 22.2923L22.0235 25.2171C19.7035 27.5371 22.8999 34.5072 29.1494 40.7549Z" fill="#723E8F"/>
<path d="M75.6255 3.46013V24.2536C75.6256 24.6461 75.5484 25.0348 75.3982 25.3975C75.248 25.7602 75.0279 26.0897 74.7503 26.3673C74.4727 26.6449 74.1432 26.865 73.7805 27.0152C73.4178 27.1654 73.0291 27.2426 72.6365 27.2425H50.5989L41.5475 35.1548V27.2416H38.4303C38.0378 27.2417 37.6491 27.1645 37.2864 27.0143C36.9237 26.8642 36.5942 26.644 36.3166 26.3664C36.039 26.0888 35.8189 25.7593 35.6687 25.3966C35.5185 25.0339 35.4413 24.6452 35.4414 24.2527V3.46013C35.4413 3.06758 35.5185 2.67886 35.6687 2.31618C35.8189 1.95349 36.039 1.62394 36.3166 1.34637C36.5942 1.0688 36.9237 0.848641 37.2864 0.698474C37.6491 0.548307 38.0378 0.471075 38.4303 0.471192H72.6357C73.0283 0.470958 73.4171 0.548103 73.7799 0.698217C74.1427 0.848332 74.4723 1.06847 74.75 1.34606C75.0277 1.62364 75.2479 1.95322 75.3981 2.31597C75.5483 2.67871 75.6256 3.06751 75.6255 3.46013Z" fill="#EEEFEE"/>
<path d="M46.5906 13.8559C46.5906 14.3915 46.4318 14.9152 46.1342 15.3606C45.8366 15.806 45.4136 16.1531 44.9187 16.3581C44.4238 16.5631 43.8792 16.6167 43.3538 16.5122C42.8285 16.4077 42.3459 16.1498 41.9671 15.771C41.5883 15.3922 41.3304 14.9096 41.2259 14.3842C41.1214 13.8589 41.175 13.3143 41.38 12.8194C41.585 12.3245 41.9321 11.9015 42.3775 11.6039C42.8229 11.3063 43.3466 11.1475 43.8822 11.1475C44.238 11.1472 44.5902 11.2171 44.919 11.3531C45.2477 11.4892 45.5463 11.6887 45.7979 11.9402C46.0494 12.1918 46.2489 12.4904 46.3849 12.8191C46.521 13.1478 46.5908 13.5001 46.5906 13.8559Z" fill="#575B6D"/>
<path d="M58.2425 13.8559C58.2425 14.3915 58.0836 14.9152 57.786 15.3606C57.4884 15.806 57.0654 16.1531 56.5705 16.3581C56.0756 16.5631 55.5311 16.6167 55.0057 16.5122C54.4803 16.4077 53.9977 16.1498 53.619 15.771C53.2402 15.3922 52.9822 14.9096 52.8777 14.3842C52.7732 13.8589 52.8269 13.3143 53.0318 12.8194C53.2368 12.3245 53.584 11.9015 54.0294 11.6039C54.4748 11.3063 54.9984 11.1475 55.5341 11.1475C55.8898 11.1472 56.2421 11.2171 56.5708 11.3531C56.8995 11.4892 57.1982 11.6887 57.4497 11.9402C57.7013 12.1918 57.9008 12.4904 58.0368 12.8191C58.1728 13.1478 58.2427 13.5001 58.2425 13.8559Z" fill="#575B6D"/>
<path d="M69.8938 13.8559C69.8938 14.3915 69.735 14.9152 69.4374 15.3606C69.1398 15.806 68.7168 16.1531 68.2219 16.3581C67.727 16.5631 67.1824 16.6167 66.6571 16.5122C66.1317 16.4077 65.6491 16.1498 65.2703 15.771C64.8915 15.3922 64.6336 14.9096 64.5291 14.3842C64.4246 13.8589 64.4782 13.3143 64.6832 12.8194C64.8882 12.3245 65.2353 11.9015 65.6807 11.6039C66.1261 11.3063 66.6498 11.1475 67.1854 11.1475C67.5412 11.1472 67.8935 11.2171 68.2222 11.3531C68.5509 11.4892 68.8495 11.6887 69.1011 11.9402C69.3526 12.1918 69.5521 12.4904 69.6882 12.8191C69.8242 13.1478 69.8941 13.5001 69.8938 13.8559Z" fill="#575B6D"/>
</svg>
