<svg width="274" height="275" viewBox="0 0 274 275" fill="none" xmlns="http://www.w3.org/2000/svg">
<mask id="mask0" mask-type="alpha" maskUnits="userSpaceOnUse" x="0" y="0" width="274" height="275">
<circle cx="137" cy="137.429" r="137" fill="white" fill-opacity="0.5"/>
</mask>
<g mask="url(#mask0)">
<circle cx="4.62097" cy="6.43396" r="6.00476" fill="white" fill-opacity="0.5"/>
<circle cx="4.62097" cy="43.6635" r="6.00476" fill="white" fill-opacity="0.5"/>
<circle cx="4.62097" cy="80.8929" r="6.00476" fill="white" fill-opacity="0.5"/>
<circle cx="4.62097" cy="118.123" r="6.00476" fill="white" fill-opacity="0.5"/>
<circle cx="4.62097" cy="155.352" r="6.00476" fill="white" fill-opacity="0.5"/>
<circle cx="4.62097" cy="192.582" r="6.00476" fill="white" fill-opacity="0.5"/>
<circle cx="4.62097" cy="229.811" r="6.00476" fill="white" fill-opacity="0.5"/>
<circle cx="4.62097" cy="267.041" r="6.00476" fill="white" fill-opacity="0.5"/>
<circle cx="38.2479" cy="6.43396" r="6.00476" fill="white" fill-opacity="0.5"/>
<circle cx="38.2479" cy="43.6635" r="6.00476" fill="white" fill-opacity="0.5"/>
<circle cx="38.2479" cy="80.8929" r="6.00476" fill="white" fill-opacity="0.5"/>
<circle cx="38.2479" cy="118.123" r="6.00476" fill="white" fill-opacity="0.5"/>
<circle cx="38.2479" cy="155.352" r="6.00476" fill="white" fill-opacity="0.5"/>
<circle cx="38.2479" cy="192.582" r="6.00476" fill="white" fill-opacity="0.5"/>
<circle cx="38.2479" cy="229.811" r="6.00476" fill="white" fill-opacity="0.5"/>
<circle cx="38.2479" cy="267.041" r="6.00476" fill="white" fill-opacity="0.5"/>
<circle cx="71.8739" cy="6.43396" r="6.00476" fill="white" fill-opacity="0.5"/>
<circle cx="71.8739" cy="43.6635" r="6.00476" fill="white" fill-opacity="0.5"/>
<circle cx="71.8739" cy="80.8929" r="6.00476" fill="white" fill-opacity="0.5"/>
<circle cx="71.8739" cy="118.122" r="6.00476" fill="white" fill-opacity="0.5"/>
<circle cx="71.8739" cy="155.352" r="6.00476" fill="white" fill-opacity="0.5"/>
<circle cx="71.8739" cy="192.581" r="6.00476" fill="white" fill-opacity="0.5"/>
<circle cx="71.8739" cy="229.811" r="6.00476" fill="white" fill-opacity="0.5"/>
<circle cx="71.8739" cy="267.041" r="6.00476" fill="white" fill-opacity="0.5"/>
<circle cx="105.501" cy="6.43396" r="6.00476" fill="white" fill-opacity="0.5"/>
<circle cx="105.501" cy="43.6635" r="6.00476" fill="white" fill-opacity="0.5"/>
<circle cx="105.501" cy="80.8929" r="6.00476" fill="white" fill-opacity="0.5"/>
<circle cx="105.501" cy="118.122" r="6.00476" fill="white" fill-opacity="0.5"/>
<circle cx="105.501" cy="155.352" r="6.00476" fill="white" fill-opacity="0.5"/>
<circle cx="105.501" cy="192.581" r="6.00476" fill="white" fill-opacity="0.5"/>
<circle cx="105.501" cy="229.811" r="6.00476" fill="white" fill-opacity="0.5"/>
<circle cx="105.501" cy="267.041" r="6.00476" fill="white" fill-opacity="0.5"/>
<circle cx="139.128" cy="6.43396" r="6.00476" fill="white" fill-opacity="0.5"/>
<circle cx="139.128" cy="43.6635" r="6.00476" fill="white" fill-opacity="0.5"/>
<circle cx="139.128" cy="80.8929" r="6.00476" fill="white" fill-opacity="0.5"/>
<circle cx="139.128" cy="118.122" r="6.00476" fill="white" fill-opacity="0.5"/>
<circle cx="139.128" cy="155.352" r="6.00476" fill="white" fill-opacity="0.5"/>
<circle cx="139.128" cy="192.581" r="6.00476" fill="white" fill-opacity="0.5"/>
<circle cx="139.128" cy="229.811" r="6.00476" fill="white" fill-opacity="0.5"/>
<circle cx="139.128" cy="267.041" r="6.00476" fill="white" fill-opacity="0.5"/>
<circle cx="172.755" cy="6.43396" r="6.00476" fill="white" fill-opacity="0.5"/>
<circle cx="172.755" cy="43.6635" r="6.00476" fill="white" fill-opacity="0.5"/>
<circle cx="172.755" cy="80.8929" r="6.00476" fill="white" fill-opacity="0.5"/>
<circle cx="172.755" cy="118.122" r="6.00476" fill="white" fill-opacity="0.5"/>
<circle cx="172.755" cy="155.352" r="6.00476" fill="white" fill-opacity="0.5"/>
<circle cx="172.755" cy="192.581" r="6.00476" fill="white" fill-opacity="0.5"/>
<circle cx="172.755" cy="229.811" r="6.00476" fill="white" fill-opacity="0.5"/>
<circle cx="172.755" cy="267.041" r="6.00476" fill="white" fill-opacity="0.5"/>
<circle cx="206.381" cy="6.43396" r="6.00476" fill="white" fill-opacity="0.5"/>
<circle cx="206.381" cy="43.6635" r="6.00476" fill="white" fill-opacity="0.5"/>
<circle cx="206.381" cy="80.8929" r="6.00476" fill="white" fill-opacity="0.5"/>
<circle cx="206.381" cy="118.122" r="6.00476" fill="white" fill-opacity="0.5"/>
<circle cx="206.381" cy="155.352" r="6.00476" fill="white" fill-opacity="0.5"/>
<circle cx="206.381" cy="192.581" r="6.00476" fill="white" fill-opacity="0.5"/>
<circle cx="206.381" cy="229.811" r="6.00476" fill="white" fill-opacity="0.5"/>
<circle cx="206.381" cy="267.041" r="6.00476" fill="white" fill-opacity="0.5"/>
<circle cx="240.008" cy="6.43396" r="6.00476" fill="white" fill-opacity="0.5"/>
<circle cx="240.008" cy="43.6635" r="6.00476" fill="white" fill-opacity="0.5"/>
<circle cx="240.008" cy="80.8929" r="6.00476" fill="white" fill-opacity="0.5"/>
<circle cx="240.008" cy="118.122" r="6.00476" fill="white" fill-opacity="0.5"/>
<circle cx="240.008" cy="155.352" r="6.00476" fill="white" fill-opacity="0.5"/>
<circle cx="240.008" cy="192.581" r="6.00476" fill="white" fill-opacity="0.5"/>
<circle cx="240.008" cy="229.811" r="6.00476" fill="white" fill-opacity="0.5"/>
<circle cx="240.008" cy="267.041" r="6.00476" fill="white" fill-opacity="0.5"/>
<circle cx="273.635" cy="6.43396" r="6.00476" fill="white" fill-opacity="0.5"/>
<circle cx="273.635" cy="43.6635" r="6.00476" fill="white" fill-opacity="0.5"/>
<circle cx="273.635" cy="80.8929" r="6.00476" fill="white" fill-opacity="0.5"/>
<circle cx="273.635" cy="118.122" r="6.00476" fill="white" fill-opacity="0.5"/>
<circle cx="273.635" cy="155.352" r="6.00476" fill="white" fill-opacity="0.5"/>
<circle cx="273.635" cy="192.581" r="6.00476" fill="white" fill-opacity="0.5"/>
<circle cx="273.635" cy="229.811" r="6.00476" fill="white" fill-opacity="0.5"/>
<circle cx="273.635" cy="267.041" r="6.00476" fill="white" fill-opacity="0.5"/>
</g>
</svg>
