<svg width="659" height="581" viewBox="0 0 659 581" fill="none" xmlns="http://www.w3.org/2000/svg">
<circle cx="524.5" cy="440.5" r="134.5" fill="#9468B4" fill-opacity="0.15"/>
<circle cx="71" cy="167" r="71" fill="#9468B4" fill-opacity="0.15"/>
<path opacity="0.5" d="M418.28 445.877C418.28 445.877 485.591 441.683 531.915 358.908C578.239 276.132 569.885 149.863 512.274 79.721C454.662 9.57913 364.966 -14.2905 279.394 8.16387C237.695 19.1063 209.891 47.4633 185.866 81.654C164.93 111.444 141.388 140.163 109.7 159.01C78.3402 177.685 46.0826 192.562 30.3076 228.047C-8.24974 314.344 19.952 414.828 111.098 448.69C209.338 485.159 373.388 465.518 418.28 445.877Z" fill="#9468B4"/>
<path opacity="0.3" d="M418.28 445.877C418.28 445.877 485.591 441.683 531.915 358.908C578.239 276.132 569.885 149.863 512.274 79.721C454.662 9.57913 364.966 -14.2905 279.394 8.16387C237.695 19.1063 209.891 47.4633 185.866 81.654C164.93 111.444 141.388 140.163 109.7 159.01C78.3402 177.685 46.0826 192.562 30.3076 228.047C-8.24974 314.344 19.952 414.828 111.098 448.69C209.338 485.159 373.388 465.518 418.28 445.877Z" fill="white"/>
<path d="M89.6625 153.798H493.22C496.158 153.798 498.977 154.965 501.055 157.043C503.133 159.121 504.3 161.94 504.3 164.878V445.515H78.582V164.896C78.5798 163.439 78.8647 161.996 79.4205 160.65C79.9764 159.304 80.7922 158.08 81.8213 157.049C82.8505 156.019 84.0728 155.201 85.4182 154.643C86.7637 154.085 88.206 153.798 89.6625 153.798Z" fill="#263238"/>
<path d="M505.18 446.377H77.7188V164.895C77.7187 161.726 78.9765 158.686 81.2159 156.444C83.4552 154.201 86.493 152.939 89.6622 152.935H493.219C496.39 152.939 499.43 154.201 501.672 156.443C503.914 158.685 505.176 161.724 505.18 164.895V446.377ZM79.4447 444.651H503.454V164.895C503.45 162.182 502.37 159.582 500.451 157.663C498.533 155.745 495.932 154.665 493.219 154.661H89.6622C86.9508 154.665 84.3519 155.745 82.4363 157.664C80.5206 159.583 79.4447 162.184 79.4447 164.895V444.651Z" fill="#263238"/>
<path d="M555.508 579.274H27.3735C21.5398 579.274 16.6209 570.904 19.2098 565.674L78.5819 450.33H504.317L564 565.277C566.606 570.489 561.428 579.274 555.508 579.274Z" fill="#263238"/>
<path d="M555.508 580.137H27.3736C25.7375 580.034 24.1548 579.515 22.7748 578.63C21.3947 577.745 20.2629 576.524 19.4861 575.08C18.5069 573.667 17.8948 572.033 17.7049 570.325C17.5151 568.616 17.7536 566.887 18.3988 565.294L78.0124 449.467H504.835L505.077 449.916L564.759 564.88C565.401 566.509 565.626 568.273 565.415 570.012C565.204 571.751 564.564 573.409 563.551 574.838C562.754 576.319 561.602 577.578 560.198 578.503C558.795 579.427 557.183 579.989 555.508 580.137ZM79.1515 451.193L19.9694 566.105C19.4583 567.434 19.2839 568.868 19.4615 570.28C19.6392 571.693 20.1635 573.039 20.9877 574.2C21.6157 575.382 22.5284 576.39 23.6433 577.131C24.7583 577.872 26.0403 578.324 27.3736 578.446H555.508C556.89 578.298 558.213 577.811 559.36 577.028C560.507 576.245 561.443 575.19 562.084 573.958C562.935 572.778 563.484 571.407 563.682 569.966C563.881 568.525 563.723 567.057 563.223 565.691L503.782 451.193H79.1515Z" fill="#263238"/>
<path d="M555.509 574.459H27.3737C26.0371 574.46 24.7224 574.12 23.5541 573.47C22.3858 572.821 21.4025 571.884 20.6973 570.749C19.9922 569.613 19.5886 568.317 19.5246 566.982C19.4607 565.647 19.7386 564.317 20.3319 563.12L78.5821 445.515H504.318L562.55 563.12C563.144 564.317 563.422 565.647 563.358 566.982C563.294 568.317 562.89 569.613 562.185 570.749C561.48 571.884 560.497 572.821 559.328 573.47C558.16 574.12 556.845 574.46 555.509 574.459Z" fill="white"/>
<path d="M555.508 575.322H27.3731C25.884 575.335 24.4164 574.966 23.1103 574.251C21.8042 573.536 20.7031 572.497 19.9122 571.236C19.1212 569.974 18.6667 568.531 18.592 567.043C18.5173 565.556 18.825 564.074 19.4856 562.74L77.7357 445.135C77.8034 444.987 77.9132 444.862 78.0513 444.776C78.1894 444.69 78.3498 444.647 78.5124 444.652H504.317C504.477 444.648 504.635 444.692 504.77 444.778C504.905 444.864 505.012 444.988 505.076 445.135L563.326 562.74C563.984 564.069 564.292 565.545 564.221 567.026C564.149 568.508 563.701 569.946 562.918 571.206C562.135 572.466 561.044 573.505 559.747 574.225C558.45 574.946 556.991 575.323 555.508 575.322ZM79.151 446.378L21.1079 563.499C20.5791 564.565 20.3311 565.749 20.3875 566.937C20.4439 568.126 20.8028 569.28 21.4302 570.291C22.0576 571.303 22.9327 572.137 23.9727 572.715C25.0127 573.293 26.1831 573.597 27.3731 573.596H555.508C556.698 573.597 557.868 573.293 558.908 572.715C559.948 572.137 560.823 571.303 561.451 570.291C562.078 569.28 562.437 568.126 562.493 566.937C562.55 565.749 562.302 564.565 561.773 563.499L503.782 446.378H79.151Z" fill="#263238"/>
<path d="M478.532 176.891H104.367V422.404H478.532V176.891Z" fill="white"/>
<path d="M479.377 423.267H103.504V176.045H479.377V423.267ZM105.23 421.541H477.651V177.771H105.23V421.541Z" fill="#263238"/>
<path d="M470.179 288.782H114.085V413.567H470.179V288.782Z" fill="#9468B4"/>
<path opacity="0.46" d="M159.597 363.826V360.719C159.597 360.261 159.415 359.822 159.092 359.499C158.768 359.175 158.329 358.993 157.871 358.993H155.489C155.127 357.411 154.503 355.9 153.643 354.523L155.369 352.797C155.67 352.477 155.837 352.054 155.837 351.615C155.837 351.175 155.67 350.753 155.369 350.433L153.142 348.206C152.821 347.9 152.395 347.729 151.951 347.729C151.508 347.729 151.081 347.9 150.76 348.206L149.035 349.932C147.653 349.069 146.136 348.444 144.547 348.085V345.652C144.547 345.194 144.365 344.755 144.042 344.431C143.718 344.108 143.279 343.926 142.821 343.926H139.68C139.222 343.926 138.783 344.108 138.46 344.431C138.136 344.755 137.954 345.194 137.954 345.652V348.085C136.371 348.447 134.861 349.072 133.484 349.932L131.758 348.206C131.438 347.905 131.015 347.738 130.576 347.738C130.136 347.738 129.713 347.905 129.393 348.206L127.253 350.364C126.952 350.684 126.785 351.106 126.785 351.546C126.785 351.985 126.952 352.408 127.253 352.728L128.979 354.454C128.119 355.831 127.495 357.342 127.132 358.924H124.768C124.31 358.924 123.871 359.106 123.548 359.43C123.224 359.753 123.042 360.192 123.042 360.65V363.791C123.042 364.249 123.224 364.688 123.548 365.012C123.871 365.335 124.31 365.517 124.768 365.517H127.201C127.561 367.106 128.185 368.623 129.048 370.005L127.322 371.731C127.021 372.051 126.854 372.473 126.854 372.913C126.854 373.352 127.021 373.775 127.322 374.095L129.549 376.322C129.869 376.622 130.292 376.79 130.731 376.79C131.17 376.79 131.593 376.622 131.913 376.322L133.639 374.596C135.016 375.456 136.527 376.08 138.109 376.442V378.876C138.109 379.334 138.291 379.773 138.615 380.096C138.939 380.42 139.378 380.602 139.835 380.602H142.976C143.434 380.602 143.873 380.42 144.197 380.096C144.521 379.773 144.702 379.334 144.702 378.876V376.442C146.291 376.083 147.808 375.459 149.19 374.596L150.916 376.322C151.237 376.628 151.663 376.798 152.107 376.798C152.55 376.798 152.977 376.628 153.298 376.322L155.524 374.095C155.825 373.775 155.993 373.352 155.993 372.913C155.993 372.473 155.825 372.051 155.524 371.731L153.798 370.005C154.661 368.623 155.286 367.106 155.645 365.517H158.078C158.493 365.467 158.876 365.268 159.156 364.957C159.435 364.646 159.592 364.244 159.597 363.826ZM142.027 369.349C140.553 369.498 139.069 369.187 137.778 368.46C136.487 367.732 135.453 366.623 134.818 365.284C134.183 363.945 133.977 362.443 134.229 360.983C134.482 359.522 135.18 358.176 136.227 357.128C137.275 356.081 138.621 355.383 140.082 355.13C141.542 354.878 143.044 355.084 144.383 355.719C145.721 356.354 146.831 357.388 147.559 358.679C148.286 359.97 148.597 361.454 148.448 362.928C148.281 364.574 147.551 366.112 146.381 367.282C145.211 368.452 143.673 369.182 142.027 369.349Z" fill="white"/>
<path opacity="0.46" d="M189.232 385.832V382.691C189.232 382.233 189.05 381.794 188.726 381.47C188.403 381.147 187.964 380.965 187.506 380.965H185.176C184.811 379.375 184.181 377.858 183.312 376.477L185.038 374.751C185.344 374.431 185.514 374.004 185.514 373.561C185.514 373.117 185.344 372.691 185.038 372.37L182.811 370.143C182.49 369.837 182.064 369.667 181.62 369.667C181.177 369.667 180.75 369.837 180.429 370.143L178.704 371.869C177.321 371.009 175.804 370.385 174.216 370.022V367.623C174.216 367.166 174.034 366.727 173.711 366.403C173.387 366.079 172.948 365.897 172.49 365.897H169.332C168.874 365.897 168.435 366.079 168.111 366.403C167.788 366.727 167.606 367.166 167.606 367.623V370.057C166.018 370.419 164.501 371.043 163.118 371.904L161.392 370.178C161.071 369.872 160.645 369.701 160.202 369.701C159.758 369.701 159.332 369.872 159.011 370.178L156.784 372.404C156.478 372.725 156.308 373.152 156.308 373.595C156.308 374.039 156.478 374.465 156.784 374.786L158.51 376.512C157.634 377.889 157.003 379.407 156.646 380.999H154.23C153.772 380.999 153.333 381.181 153.009 381.505C152.686 381.829 152.504 382.268 152.504 382.725V385.866C152.504 386.324 152.686 386.763 153.009 387.087C153.333 387.411 153.772 387.592 154.23 387.592H156.646C157.004 389.179 157.634 390.692 158.51 392.063L156.784 393.789C156.478 394.109 156.308 394.536 156.308 394.979C156.308 395.423 156.478 395.849 156.784 396.17L159.011 398.379C159.332 398.685 159.758 398.856 160.202 398.856C160.645 398.856 161.071 398.685 161.392 398.379L163.118 396.654C164.501 397.514 166.018 398.138 167.606 398.5V400.934C167.606 401.392 167.788 401.831 168.111 402.154C168.435 402.478 168.874 402.66 169.332 402.66H172.49C172.948 402.66 173.387 402.478 173.711 402.154C174.034 401.831 174.216 401.392 174.216 400.934V398.5C175.804 398.138 177.321 397.514 178.704 396.654L180.429 398.379C180.75 398.685 181.177 398.856 181.62 398.856C182.064 398.856 182.49 398.685 182.811 398.379L185.038 396.17C185.344 395.849 185.514 395.423 185.514 394.979C185.514 394.536 185.344 394.109 185.038 393.789L183.312 392.063C184.181 390.688 184.811 389.177 185.176 387.592H187.592C188.041 387.57 188.463 387.374 188.769 387.045C189.075 386.716 189.241 386.281 189.232 385.832ZM171.662 391.424C170.183 391.577 168.693 391.267 167.397 390.539C166.101 389.811 165.063 388.699 164.424 387.357C163.785 386.015 163.578 384.508 163.83 383.043C164.083 381.578 164.783 380.227 165.834 379.176C166.885 378.125 168.236 377.425 169.701 377.172C171.166 376.92 172.673 377.127 174.015 377.766C175.358 378.405 176.469 379.443 177.197 380.739C177.926 382.035 178.235 383.525 178.082 385.004C177.912 386.648 177.182 388.185 176.012 389.354C174.843 390.523 173.307 391.254 171.662 391.424Z" fill="white"/>
<path d="M192.597 300.795H128.047C127.85 300.795 127.661 300.717 127.522 300.578C127.383 300.439 127.305 300.25 127.305 300.053C127.305 299.855 127.382 299.664 127.521 299.522C127.66 299.38 127.848 299.298 128.047 299.294H192.597C192.798 299.294 192.991 299.374 193.134 299.516C193.276 299.659 193.356 299.852 193.356 300.053C193.352 300.252 193.27 300.44 193.128 300.579C192.986 300.718 192.795 300.796 192.597 300.795Z" fill="#263238"/>
<path d="M192.597 310.115H128.047C127.848 310.11 127.66 310.028 127.521 309.886C127.382 309.744 127.305 309.554 127.305 309.355C127.305 309.159 127.383 308.97 127.522 308.831C127.661 308.691 127.85 308.613 128.047 308.613H192.597C192.795 308.613 192.986 308.691 193.128 308.83C193.27 308.968 193.352 309.157 193.356 309.355C193.356 309.557 193.276 309.75 193.134 309.892C192.991 310.035 192.798 310.115 192.597 310.115Z" fill="#263238"/>
<path d="M192.597 319.419H128.047C127.85 319.419 127.661 319.34 127.522 319.201C127.383 319.062 127.305 318.873 127.305 318.676C127.305 318.478 127.382 318.287 127.521 318.145C127.66 318.003 127.848 317.922 128.047 317.917H192.597C192.798 317.917 192.991 317.997 193.134 318.139C193.276 318.282 193.356 318.475 193.356 318.676C193.352 318.875 193.27 319.064 193.128 319.202C192.986 319.341 192.795 319.419 192.597 319.419Z" fill="#263238"/>
<path d="M192.597 328.738H128.047C127.848 328.733 127.66 328.651 127.521 328.509C127.382 328.368 127.305 328.177 127.305 327.978C127.305 327.782 127.383 327.593 127.522 327.454C127.661 327.315 127.85 327.236 128.047 327.236H192.597C192.795 327.236 192.986 327.314 193.128 327.453C193.27 327.591 193.352 327.78 193.356 327.978C193.356 328.18 193.276 328.373 193.134 328.515C192.991 328.658 192.798 328.738 192.597 328.738Z" fill="#263238"/>
<path d="M463.344 188.472H120.92C117.145 188.472 114.085 191.532 114.085 195.306V196.083C114.085 199.858 117.145 202.918 120.92 202.918H463.344C467.119 202.918 470.179 199.858 470.179 196.083V195.306C470.179 191.532 467.119 188.472 463.344 188.472Z" fill="#9468B4"/>
<path d="M463.344 236.107H120.92C117.145 236.107 114.085 239.167 114.085 242.942V243.719C114.085 247.493 117.145 250.553 120.92 250.553H463.344C467.119 250.553 470.179 247.493 470.179 243.719V242.942C470.179 239.167 467.119 236.107 463.344 236.107Z" fill="#9468B4"/>
<path d="M273.682 486.333L274.424 470.609H251.935L250.434 486.333H273.682Z" fill="#263238"/>
<path d="M274.509 487.195H249.483L251.209 469.746H275.372L274.509 487.195ZM251.382 485.469H272.853L273.526 471.472H252.711L251.382 485.469Z" fill="white"/>
<path d="M320.178 486.333L319.418 470.609H296.912L296.929 486.333H320.178Z" fill="#263238"/>
<path d="M321.092 487.195H296.066V469.746H320.229L321.092 487.195ZM297.792 485.469H319.263L318.59 471.472H297.775L297.792 485.469Z" fill="white"/>
<path d="M441.252 503.125H465.311L459.667 486.332H436.419L441.252 503.125Z" fill="#263238"/>
<path d="M466.502 503.971H440.613L435.263 485.452H460.289L466.502 503.971ZM441.908 502.245H464.103L459.046 487.178H437.558L441.908 502.245Z" fill="white"/>
<path d="M250.433 486.333L251.934 470.609H229.428L227.185 486.333H250.433Z" fill="#263238"/>
<path d="M251.227 487.195H226.201L228.687 469.746H252.85L251.227 487.195ZM228.186 485.469H249.657L250.986 471.472H230.274L228.186 485.469Z" fill="white"/>
<path d="M203.936 486.333L206.939 470.609H184.433L180.688 486.333H203.936Z" fill="#263238"/>
<path d="M204.661 487.195H179.601L183.76 469.746H207.923L204.661 487.195ZM181.792 485.469H203.229L205.887 471.472H185.175L181.792 485.469Z" fill="white"/>
<path d="M413.171 486.333L409.391 470.609H386.902L389.923 486.333H413.171Z" fill="#263238"/>
<path d="M414.258 487.195H389.198L385.85 469.746H410.013L414.258 487.195ZM390.63 485.469H412.067L408.718 471.472H388.007L390.63 485.469Z" fill="white"/>
<path d="M436.419 486.333L431.88 470.609H409.391L413.17 486.333H436.419Z" fill="#263238"/>
<path d="M437.558 487.195H412.48L408.304 469.746H432.467L437.558 487.195ZM413.844 485.469H435.263L431.241 471.472H410.53L413.844 485.469Z" fill="white"/>
<path d="M180.688 486.333L184.433 470.609H161.944L157.439 486.333H180.688Z" fill="#263238"/>
<path d="M181.379 487.195H156.301L161.289 469.746H185.538L181.379 487.195ZM158.596 485.469H179.998L183.329 471.472H162.618L158.596 485.469Z" fill="white"/>
<path d="M343.426 486.333L341.907 470.609H319.418L320.177 486.333H343.426Z" fill="#263238"/>
<path d="M344.376 487.195H319.35L318.504 469.746H342.667L344.376 487.195ZM321.007 485.469H342.477L341.131 471.472H320.316L321.007 485.469Z" fill="white"/>
<path d="M459.667 486.333L454.386 470.609H431.88L436.419 486.333H459.667Z" fill="#263238"/>
<path d="M460.858 487.195H435.763L430.74 469.746H455.007L460.858 487.195ZM437.057 485.469H458.459L453.764 471.472H433.053L437.057 485.469Z" fill="white"/>
<path d="M389.923 486.333L386.903 470.609H364.396L366.675 486.333H389.923Z" fill="#263238"/>
<path d="M390.958 487.195H365.932L363.412 469.746H387.575L390.958 487.195ZM367.416 485.469H388.835L386.143 471.472H365.431L367.416 485.469Z" fill="white"/>
<path d="M366.674 486.333L364.396 470.609H341.907L343.426 486.333H366.674Z" fill="#263238"/>
<path d="M367.675 487.195H342.649L340.923 469.746H365.086L367.675 487.195ZM344.202 485.469H365.673L363.653 471.472H342.856L344.202 485.469Z" fill="white"/>
<path d="M296.929 486.333L296.912 470.609H274.423L273.681 486.333H296.929Z" fill="#263238"/>
<path d="M297.792 487.195H272.783L273.594 469.746H297.757L297.792 487.195ZM274.595 485.469H296.066V471.472H275.251L274.595 485.469Z" fill="white"/>
<path d="M134.209 486.332H110.961L104.54 503.125H128.582L134.209 486.332Z" fill="#263238"/>
<path d="M129.203 503.971H103.314L110.391 485.452H135.434L129.203 503.971ZM105.783 502.245H127.961L133 487.178H111.547L105.783 502.245Z" fill="white"/>
<path d="M139.456 470.609H116.95L110.961 486.333H134.209L139.456 470.609Z" fill="#263238"/>
<path d="M134.813 487.195H109.701L116.363 469.746H140.647L134.813 487.195ZM112.204 485.469H133.571L138.248 471.472H117.537L112.204 485.469Z" fill="white"/>
<path d="M157.44 486.333L161.945 470.609H139.456L134.209 486.333H157.44Z" fill="#263238"/>
<path d="M158.096 487.195H133.001L138.835 469.746H162.998L158.096 487.195ZM135.4 485.469H156.802L160.806 471.472H140.095L135.4 485.469Z" fill="white"/>
<path d="M97.6536 521.128L90.2666 540.476H116.104L122.576 521.128H97.6536Z" fill="#263238"/>
<path d="M116.724 541.338H89.0059L97.1523 520.265H123.852L116.724 541.338ZM91.5085 539.612H115.482L121.315 521.991H98.2568L91.5085 539.612Z" fill="white"/>
<path d="M128.583 503.126H104.541L97.6543 521.127H122.577L128.583 503.126Z" fill="#263238"/>
<path d="M123.197 521.99H96.3936L103.936 502.245H129.825L123.197 521.99ZM98.9134 520.264H121.955L127.391 503.988H105.127L98.9134 520.264Z" fill="white"/>
<path d="M122.576 521.128L116.104 540.476H141.941L147.481 521.128H122.576Z" fill="#263238"/>
<path d="M142.597 541.338H114.982L122.024 520.265H148.69L142.597 541.338ZM117.295 539.612H141.286L146.343 521.991H123.198L117.295 539.612Z" fill="white"/>
<path d="M227.184 486.333L229.428 470.609H206.939L203.936 486.333H227.184Z" fill="#263238"/>
<path d="M227.945 487.195H202.901L206.215 469.746H230.378L227.945 487.195ZM204.99 485.469H226.443L228.428 471.472H207.613L204.99 485.469Z" fill="white"/>
<path d="M224.786 503.125L227.185 486.332H203.937L200.744 503.125H224.786Z" fill="#263238"/>
<path d="M225.544 503.971H199.655L203.193 485.452H228.15L225.544 503.971ZM201.778 502.245H224.043L226.2 487.178H204.66L201.778 502.245Z" fill="white"/>
<path d="M200.743 503.125L203.936 486.332H180.688L176.684 503.125H200.743Z" fill="#263238"/>
<path d="M201.45 503.972H175.562L179.997 485.47H204.971L201.45 503.972ZM177.788 502.246H200.018L202.9 487.178H181.378L177.788 502.246Z" fill="white"/>
<path d="M248.845 503.125L250.432 486.332H227.184L224.785 503.125H248.845Z" fill="#263238"/>
<path d="M249.621 503.971H223.732L226.373 485.452H251.313L249.621 503.971ZM225.786 502.245H248.051L249.483 487.178H227.944L225.786 502.245Z" fill="white"/>
<path d="M157.44 486.332H134.209L128.582 503.125H152.641L157.44 486.332Z" fill="#263238"/>
<path d="M153.281 503.971H127.392L133.57 485.452H158.596L153.281 503.971ZM129.791 502.245H151.986L156.301 487.178H134.813L129.791 502.245Z" fill="white"/>
<path d="M446.446 521.127H471.351L465.31 503.126H441.251L446.446 521.127Z" fill="#263238"/>
<path d="M472.56 521.99H445.791L440.112 502.245H466.001L472.56 521.99ZM447.085 520.264H470.161L464.776 503.971H442.339L447.085 520.264Z" fill="white"/>
<path d="M176.684 503.125L180.688 486.332H157.44L152.642 503.125H176.684Z" fill="#263238"/>
<path d="M177.374 503.971H151.485L156.801 485.452H181.724L177.374 503.971ZM153.781 502.245H176.011L179.601 487.178H158.096L153.781 502.245Z" fill="white"/>
<path d="M128.582 503.126L122.576 521.127H147.481L152.642 503.126H128.582Z" fill="#263238"/>
<path d="M148.137 521.99H121.316L127.961 502.245H153.85L148.137 521.99ZM123.767 520.264H146.826L151.486 503.988H129.204L123.767 520.264Z" fill="white"/>
<path d="M393.15 503.125L389.922 486.332H366.674L369.107 503.125H393.15Z" fill="#263238"/>
<path d="M394.203 503.971H368.314L365.639 485.452H390.561L394.203 503.971ZM369.85 502.245H392.114L389.198 487.178H367.675L369.85 502.245Z" fill="white"/>
<path d="M369.109 503.125L366.675 486.332H343.427L345.049 503.125H369.109Z" fill="#263238"/>
<path d="M370.091 503.971H344.202L342.477 485.452H367.416L370.091 503.971ZM345.825 502.245H368.124L365.949 487.178H344.375L345.825 502.245Z" fill="white"/>
<path d="M441.252 503.125L436.419 486.332H413.171L417.21 503.125H441.252Z" fill="#263238"/>
<path d="M442.34 503.971H416.451L411.998 485.452H436.989L442.34 503.971ZM417.814 502.245H440.044L435.695 487.178H414.259L417.814 502.245Z" fill="white"/>
<path d="M296.946 503.125L296.929 486.332H273.681L272.887 503.125H296.946Z" fill="#263238"/>
<path d="M297.81 503.971H271.921L272.784 485.452H297.724L297.81 503.971ZM273.802 502.245H296.084V487.178H274.51L273.802 502.245Z" fill="white"/>
<path d="M345.048 503.125L343.426 486.332H320.178L320.989 503.125H345.048Z" fill="#263238"/>
<path d="M345.997 503.971H320.108L319.193 485.452H344.133L345.997 503.971ZM321.834 502.245H344.116L342.666 487.178H321.092L321.834 502.245Z" fill="white"/>
<path d="M320.989 503.125L320.178 486.332H296.93L296.947 503.125H320.989Z" fill="#263238"/>
<path d="M321.904 503.972H296.015V485.47H321.006L321.904 503.972ZM297.741 502.246H320.022L319.28 487.178H297.792L297.741 502.246Z" fill="white"/>
<path d="M272.887 503.125L273.681 486.332H250.433L248.845 503.125H272.887Z" fill="#263238"/>
<path d="M273.715 503.971H247.826L249.552 485.452H274.492L273.715 503.971ZM249.794 502.245H272.076L272.783 487.178H251.226L249.794 502.245Z" fill="white"/>
<path d="M345.048 503.126L346.791 521.127H371.696L369.107 503.126H345.048Z" fill="#263238"/>
<path d="M372.698 521.99H345.998L344.1 502.245H369.851L372.698 521.99ZM347.569 520.264H370.713L368.349 503.971H345.998L347.569 520.264Z" fill="white"/>
<path d="M369.108 503.126L371.697 521.127H396.62L393.151 503.126H369.108Z" fill="#263238"/>
<path d="M397.655 521.99H370.955L368.124 502.245H393.875L397.655 521.99ZM372.456 520.264H395.566L392.442 503.971H370.092L372.456 520.264Z" fill="white"/>
<path d="M152.641 503.126L147.48 521.127H172.386L176.683 503.126H152.641Z" fill="#263238"/>
<path d="M173.094 521.99H146.342L151.986 502.245H177.788L173.094 521.99ZM148.637 520.264H171.713L175.596 503.988H153.28L148.637 520.264Z" fill="white"/>
<path d="M393.15 503.126L396.62 521.127H421.525L417.21 503.126H393.15Z" fill="#263238"/>
<path d="M422.629 521.99H395.911L392.114 502.245H417.882L422.629 521.99ZM397.327 520.264H420.437L416.45 503.971H394.203L397.327 520.264Z" fill="white"/>
<path d="M296.946 503.126L296.964 521.127H321.869L320.989 503.126H296.946Z" fill="#263238"/>
<path d="M322.784 521.99H296.102V502.245H321.835L322.784 521.99ZM297.827 520.264H320.972L320.178 503.988H297.741L297.827 520.264Z" fill="white"/>
<path d="M417.21 503.126L421.525 521.127H446.447L441.252 503.126H417.21Z" fill="#263238"/>
<path d="M447.517 521.99H420.852L416.105 502.245H441.908L447.517 521.99ZM422.146 520.264H445.222L440.614 503.971H418.297L422.146 520.264Z" fill="white"/>
<path d="M320.989 503.126L321.869 521.127H346.792L345.049 503.126H320.989Z" fill="#263238"/>
<path d="M347.741 521.99H321.058L320.092 502.245H345.825L347.741 521.99ZM322.698 520.264H345.843L344.272 503.988H321.835L322.698 520.264Z" fill="white"/>
<path d="M200.743 503.126L197.309 521.127H222.231L224.785 503.126H200.743Z" fill="#263238"/>
<path d="M222.973 521.99H196.272L200.018 502.245H225.786L222.973 521.99ZM198.344 520.264H221.419L223.749 503.988H201.45L198.344 520.264Z" fill="white"/>
<path d="M176.684 503.126L172.387 521.127H197.309L200.744 503.126H176.684Z" fill="#263238"/>
<path d="M198.017 521.99H171.368L176.011 502.245H201.779L198.017 521.99ZM173.491 520.264H196.601L199.691 503.988H177.374L173.491 520.264Z" fill="white"/>
<path d="M272.887 503.126L272.059 521.127H296.964L296.947 503.126H272.887Z" fill="#263238"/>
<path d="M297.827 521.99H271.145L272.077 502.263H297.81L297.827 521.99ZM272.957 520.264H296.102V503.971H273.664L272.957 520.264Z" fill="white"/>
<path d="M248.845 503.126L247.137 521.127H272.059L272.888 503.126H248.845Z" fill="#263238"/>
<path d="M272.869 521.99H246.187L248.051 502.245H273.801L272.869 521.99ZM248.085 520.264H271.23L271.989 503.988H249.552L248.085 520.264Z" fill="white"/>
<path d="M224.785 503.126L222.23 521.127H247.136L248.844 503.126H224.785Z" fill="#263238"/>
<path d="M247.912 521.99H221.229L224.043 502.245H249.794L247.912 521.99ZM223.214 520.264H246.342L247.895 503.988H225.458L223.214 520.264Z" fill="white"/>
<path d="M417.21 503.125L413.171 486.332H389.923L393.15 503.125H417.21Z" fill="#263238"/>
<path d="M418.298 503.972H392.409L388.836 485.47H413.81L418.298 503.972ZM393.858 502.246H416.106L412.481 487.178H390.959L393.858 502.246Z" fill="white"/>
<path d="M139.455 470.609L144.823 454.523H123.094L116.949 470.609H139.455Z" fill="#263238"/>
<path d="M140.077 471.473H115.707L122.507 453.661H146.032L140.077 471.473ZM118.21 469.747H138.921L143.719 455.387H123.698L118.21 469.747Z" fill="white"/>
<path d="M116.95 470.609H96.1869L89.4902 486.333H110.961L116.95 470.609Z" fill="#263238"/>
<path d="M111.548 487.195H88.1963L95.6178 469.746H118.21L111.548 487.195ZM90.837 485.469H110.392L115.742 471.472H96.7569L90.837 485.469Z" fill="white"/>
<path d="M123.094 454.523H103.038L96.1865 470.609H116.949L123.094 454.523Z" fill="#263238"/>
<path d="M117.554 471.473H94.8926L102.469 453.661H124.354L117.554 471.473ZM97.4987 469.747H116.363L121.852 455.387H103.626L97.4987 469.747Z" fill="white"/>
<path d="M110.96 486.332H89.4898L82.3271 503.125H104.54L110.96 486.332Z" fill="#263238"/>
<path d="M105.126 503.971H80.9629L88.8504 485.452H112.133L105.126 503.971ZM83.6381 502.245H103.935L109.7 487.178H90.0585L83.6381 502.245Z" fill="white"/>
<path d="M104.54 503.126H82.3272L74.6641 521.127H97.6534L104.54 503.126Z" fill="#263238"/>
<path d="M98.2577 521.99H73.3525L81.7578 502.245H105.783L98.2577 521.99ZM75.9587 520.264H97.1531L103.366 503.988H82.8969L75.9587 520.264Z" fill="white"/>
<path d="M97.6534 521.128H74.664L66.4141 540.476H90.2664L97.6534 521.128Z" fill="#263238"/>
<path d="M90.8525 541.338H65.1016L74.0937 520.265H98.878L90.8525 541.338ZM67.725 539.612H89.6616L96.3927 521.991H75.2328L67.725 539.612Z" fill="white"/>
<path d="M482.915 486.332L489.353 503.125H510.633L503.471 486.332H482.915Z" fill="#263238"/>
<path d="M511.945 503.971H488.766L481.655 485.452H504.092L511.945 503.971ZM489.957 502.245H509.322L502.901 487.178H484.158L489.957 502.245Z" fill="white"/>
<path d="M496.275 521.127H518.315L510.634 503.126H489.354L496.275 521.127Z" fill="#263238"/>
<path d="M519.61 521.99H495.671L488.111 502.245H511.204L519.61 521.99ZM496.862 520.264H517.003L510.1 503.988H490.666L496.862 520.264Z" fill="white"/>
<path d="M503.696 540.476H526.547L518.315 521.128H496.274L503.696 540.476Z" fill="#263238"/>
<path d="M527.859 541.338H503.109L495.015 520.265H518.884L527.859 541.338ZM504.283 539.612H525.184L517.676 521.991H497.569L504.283 539.612Z" fill="white"/>
<path d="M319.418 470.609L318.624 454.523H296.895L296.912 470.609H319.418Z" fill="#263238"/>
<path d="M320.315 471.473H296.049V453.661H319.452L320.315 471.473ZM297.775 469.747H318.486L317.778 455.387H297.757L297.775 469.747Z" fill="white"/>
<path d="M482.916 486.333H503.472L496.775 470.609H476.875L482.916 486.333Z" fill="#263238"/>
<path d="M504.783 487.195H482.346L475.649 469.746H497.379L504.783 487.195ZM483.502 485.469H502.16L496.205 471.472H478.135L483.502 485.469Z" fill="white"/>
<path d="M471.352 521.127H496.275L489.354 503.126H465.312L471.352 521.127Z" fill="#263238"/>
<path d="M497.569 521.99H470.731L464.104 502.245H489.992L497.569 521.99ZM472.008 520.264H495.049L488.767 503.971H466.503L472.008 520.264Z" fill="white"/>
<path d="M161.944 470.609L166.552 454.523H144.823L139.455 470.609H161.944Z" fill="#263238"/>
<path d="M162.601 471.473H138.248L144.203 453.661H167.692L162.601 471.473ZM140.647 469.747H161.358L165.483 455.387H145.48L140.647 469.747Z" fill="white"/>
<path d="M454.386 470.609L459.667 486.333H482.915L476.875 470.609H454.386Z" fill="#263238"/>
<path d="M484.158 487.195H459.046L453.178 469.746H477.462L484.158 487.195ZM460.289 485.469H481.656L476.288 471.472H455.577L460.289 485.469Z" fill="white"/>
<path d="M496.774 470.609L489.922 454.523H470.695L476.874 470.609H496.774Z" fill="#263238"/>
<path d="M498.087 471.473H476.288L469.385 453.661H490.493L498.087 471.473ZM477.462 469.747H495.464L489.354 455.387H471.956L477.462 469.747Z" fill="white"/>
<path d="M476.874 470.609L470.696 454.523H448.983L454.386 470.609H476.874Z" fill="#263238"/>
<path d="M478.135 471.473H453.764L447.775 453.661H471.3L478.135 471.473ZM455.007 469.747H475.615L470.109 455.387H450.174L455.007 469.747Z" fill="white"/>
<path d="M396.619 521.128L400.347 540.476H426.184L421.524 521.128H396.619Z" fill="#263238"/>
<path d="M427.272 541.338H399.657L395.602 520.265H422.25L427.272 541.338ZM401.055 539.612H425.08L420.852 521.991H397.655L401.055 539.612Z" fill="white"/>
<path d="M477.859 540.476H503.696L496.275 521.128H471.353L477.859 540.476Z" fill="#263238"/>
<path d="M504.956 541.338H477.237L470.161 520.265H496.861L504.956 541.338ZM478.48 539.612H502.436L495.67 521.991H472.56L478.48 539.612Z" fill="white"/>
<path d="M454.386 470.609L448.983 454.523H427.254L431.879 470.609H454.386Z" fill="#263238"/>
<path d="M455.577 471.473H431.241L426.063 453.661H449.571L455.577 471.473ZM432.536 469.747H453.247L448.432 455.387H428.393L432.536 469.747Z" fill="white"/>
<path d="M446.447 521.128L452.022 540.476H477.859L471.352 521.128H446.447Z" fill="#263238"/>
<path d="M479.05 541.338H451.435L445.359 520.265H472.042L479.05 541.338ZM452.66 539.612H476.651L470.731 521.991H447.517L452.66 539.612Z" fill="white"/>
<path d="M421.524 521.128L426.184 540.476H452.022L446.447 521.128H421.524Z" fill="#263238"/>
<path d="M453.16 541.338H425.545L420.488 520.265H447.137L453.16 541.338ZM426.857 539.612H450.865L445.79 521.991H422.628L426.857 539.612Z" fill="white"/>
<path d="M465.312 503.125H489.354L482.916 486.332H459.668L465.312 503.125Z" fill="#263238"/>
<path d="M490.664 503.971H464.776L458.545 485.452H483.588L490.664 503.971ZM465.984 502.245H488.162L482.363 487.178H460.858L465.984 502.245Z" fill="white"/>
<path d="M251.934 470.609L253.453 454.523H231.723L229.428 470.609H251.934Z" fill="#263238"/>
<path d="M252.712 471.473H228.428L230.982 453.661H254.403L252.712 471.473ZM230.43 469.747H251.141L252.504 455.387H232.484L230.43 469.747Z" fill="white"/>
<path d="M431.879 470.609L427.254 454.523H405.524L409.39 470.609H431.879Z" fill="#263238"/>
<path d="M433.037 471.473H408.718L404.369 453.661H427.825L433.037 471.473ZM410.065 469.747H430.776L426.634 455.387H406.63L410.065 469.747Z" fill="white"/>
<path d="M229.428 470.609L231.724 454.523H209.994L206.939 470.609H229.428Z" fill="#263238"/>
<path d="M230.188 471.473H205.887L209.339 453.661H232.777L230.188 471.473ZM207.975 469.747H228.686L230.74 455.387H210.719L207.975 469.747Z" fill="white"/>
<path d="M296.912 470.609L296.894 454.523H275.182L274.423 470.609H296.912Z" fill="#263238"/>
<path d="M297.776 471.473H273.526L274.355 453.661H297.758L297.776 471.473ZM275.339 469.747H296.05V455.387H275.994L275.339 469.747Z" fill="white"/>
<path d="M206.94 470.609L209.995 454.523H188.282L184.434 470.609H206.94Z" fill="#263238"/>
<path d="M207.612 471.473H183.346L187.591 453.661H211.064L207.612 471.473ZM185.503 469.747H206.214L208.959 455.387H188.955L185.503 469.747Z" fill="white"/>
<path d="M184.433 470.609L188.282 454.523H166.553L161.944 470.609H184.433Z" fill="#263238"/>
<path d="M185.176 471.473H160.806L165.983 453.661H189.456L185.176 471.473ZM163.136 469.747H183.847L187.299 455.387H167.209L163.136 469.747Z" fill="white"/>
<path d="M274.422 470.609L275.182 454.523H253.452L251.934 470.609H274.422Z" fill="#263238"/>
<path d="M275.252 471.473H250.985L252.711 453.661H276.132L275.252 471.473ZM252.815 469.747H273.526L274.199 455.387H254.213L252.815 469.747Z" fill="white"/>
<path d="M409.391 470.609L405.525 454.523H383.796L386.903 470.609H409.391Z" fill="#263238"/>
<path d="M410.479 471.473H386.177L382.726 453.661H406.181L410.479 471.473ZM387.61 469.747H408.321L404.869 455.387H384.849L387.61 469.747Z" fill="white"/>
<path d="M386.902 470.609L383.795 454.523H362.083L364.396 470.609H386.902Z" fill="#263238"/>
<path d="M387.938 471.473H363.655L361.083 453.661H384.521L387.938 471.473ZM365.156 469.747H385.867L383.106 455.387H363.085L365.156 469.747Z" fill="white"/>
<path d="M341.907 470.609L340.353 454.523H318.624L319.418 470.609H341.907Z" fill="#263238"/>
<path d="M342.856 471.473H318.59L317.727 453.661H341.13L342.856 471.473ZM320.229 469.747H340.94L339.542 455.387H319.522L320.229 469.747Z" fill="white"/>
<path d="M396.619 521.128H371.696H346.791H321.869H296.964H272.058H247.136H222.231H197.308H172.386H147.481L141.94 540.476H167.778H193.615H219.469H245.306H271.144H296.981H322.818H348.655H374.492H400.347L396.619 521.128Z" fill="#263238"/>
<path d="M401.383 541.338H140.768L146.791 520.265H397.327L401.383 541.338ZM143.08 539.612H399.295L395.843 521.991H148.137L143.08 539.612Z" fill="white"/>
<path d="M364.396 470.609L362.083 454.523H340.354L341.907 470.609H364.396Z" fill="#263238"/>
<path d="M365.397 471.473H341.13L339.404 453.661H362.825L365.397 471.473ZM342.684 469.747H363.395L361.306 455.387H341.286L342.684 469.747Z" fill="white"/>
<path d="M325.182 317.883C350.604 317.883 371.213 291.649 371.213 259.288C371.213 226.926 350.604 200.692 325.182 200.692C299.76 200.692 279.151 226.926 279.151 259.288C279.151 291.649 299.76 317.883 325.182 317.883Z" fill="#263238"/>
<path d="M325.182 318.729C299.293 318.729 278.271 292.063 278.271 259.287C278.271 226.512 299.311 199.829 325.182 199.829C351.054 199.829 372.076 226.495 372.076 259.287C372.076 292.08 351.037 318.729 325.182 318.729ZM325.182 201.555C300.26 201.555 279.997 227.444 279.997 259.287C279.997 291.131 300.26 317.003 325.182 317.003C350.105 317.003 370.35 291.114 370.35 259.287C370.35 227.461 350.087 201.555 325.182 201.555Z" fill="#263238"/>
<path d="M221.42 408.511C217.191 408.511 212.393 404.766 209.839 402.453C206.249 399.191 202.538 394.618 202.538 392.581C202.538 389.664 237.057 285.573 241.044 273.751C241.088 273.613 241.167 273.488 241.273 273.388C241.378 273.289 241.507 273.218 241.648 273.181C241.786 273.146 241.93 273.145 242.068 273.178C242.206 273.212 242.334 273.278 242.442 273.371L255.507 285.297C255.609 285.39 255.687 285.506 255.735 285.635C255.783 285.764 255.8 285.903 255.783 286.039L242.908 399.122C242.892 399.253 242.847 399.379 242.775 399.49C242.703 399.6 242.607 399.693 242.493 399.761C241.958 400.089 229.359 407.752 222.093 408.477L221.42 408.511ZM242.269 275.615C231.396 308.407 204.557 389.526 204.299 392.685C204.299 393.668 206.922 397.517 211.03 401.228C215.137 404.939 219.228 407.079 221.955 406.82C228.185 406.199 239.214 399.83 241.268 398.57L254.057 286.384L242.269 275.615Z" fill="#263238"/>
<path d="M318.158 258.735L241.803 274.009L254.022 424.442H402.936L422.784 267.9L331.896 257.976L318.158 258.735Z" fill="#9468B4"/>
<path d="M402.935 425.304H254.022C253.806 425.305 253.599 425.223 253.441 425.075C253.284 424.928 253.189 424.726 253.176 424.51L240.939 274.078C240.922 273.868 240.983 273.658 241.111 273.49C241.238 273.321 241.423 273.205 241.63 273.163L318.071 257.889L331.879 257.112L422.887 267.054C423.115 267.078 423.325 267.19 423.474 267.364C423.544 267.457 423.596 267.562 423.626 267.675C423.655 267.788 423.662 267.905 423.646 268.02L403.798 424.579C403.765 424.784 403.66 424.969 403.501 425.102C403.343 425.235 403.142 425.307 402.935 425.304ZM254.833 423.578H402.176L421.817 268.676L331.879 258.89L318.33 259.649L242.786 274.769L254.833 423.578Z" fill="#263238"/>
<path opacity="0.3" d="M254.022 424.442H402.935L406.681 394.98L406.404 393.547L370.47 401.383L386.142 335.418L299.914 373.302L279.013 394.203H292.079L253.625 419.505L254.022 424.442Z" fill="black"/>
<path d="M310.046 250.26C310.046 250.26 297.654 257.043 294.512 263.136C291.371 269.228 278.375 314.482 278.375 314.482L299.759 319.073L279.152 328.997L310.339 418.331L359.977 415.276L392.286 321.351L372.421 312.963L389.991 305.317C389.991 305.317 373.198 273.25 364.102 259.511C355.006 245.773 310.046 250.26 310.046 250.26Z" fill="#9468B4"/>
<path d="M310.409 419.195C310.231 419.194 310.058 419.14 309.913 419.038C309.768 418.936 309.658 418.792 309.598 418.625L278.376 329.274C278.309 329.074 278.318 328.856 278.4 328.662C278.483 328.468 278.634 328.311 278.824 328.221L297.171 319.384L278.186 315.328C278.069 315.303 277.959 315.255 277.861 315.187C277.763 315.119 277.68 315.032 277.616 314.931C277.556 314.828 277.517 314.713 277.502 314.595C277.487 314.476 277.497 314.356 277.53 314.241C278.065 312.394 290.681 268.866 293.736 262.756C296.791 256.646 309.028 249.794 309.546 249.501C309.647 249.446 309.759 249.416 309.874 249.415C311.721 249.225 355.266 245.014 364.603 259.028C373.699 272.646 390.492 304.61 390.613 304.921C390.664 305.029 390.69 305.146 390.69 305.266C390.69 305.385 390.664 305.503 390.613 305.611C390.577 305.724 390.517 305.827 390.437 305.914C390.356 306.001 390.257 306.068 390.147 306.112L374.424 313.015L392.425 320.627C392.627 320.714 392.789 320.875 392.878 321.076C392.968 321.278 392.978 321.505 392.908 321.714L360.72 415.639C360.663 415.798 360.56 415.936 360.425 416.038C360.29 416.139 360.129 416.198 359.96 416.209L310.323 419.264L310.409 419.195ZM280.274 329.446L311.013 417.469L359.339 414.5L391.079 321.869L371.973 313.792C371.815 313.727 371.68 313.617 371.585 313.476C371.49 313.335 371.439 313.168 371.438 312.998C371.439 312.83 371.489 312.666 371.581 312.525C371.672 312.385 371.802 312.273 371.956 312.204L388.68 304.938C385.987 299.76 371.421 272.352 363.188 260.064C354.696 247.326 313.291 250.916 310.236 251.192C308.821 251.986 298.017 258.096 295.29 263.619C292.563 269.142 281.327 307.561 279.463 313.93L299.95 318.314C300.125 318.352 300.284 318.444 300.405 318.577C300.526 318.71 300.602 318.878 300.623 319.056C300.639 319.234 300.602 319.413 300.516 319.57C300.43 319.727 300.299 319.854 300.14 319.936L280.274 329.446Z" fill="#263238"/>
<path d="M308.113 425.978L307.475 268.676L348.707 264.845L360.806 424.442L308.113 425.978Z" fill="white"/>
<path d="M308.113 426.84C307.889 426.838 307.673 426.752 307.509 426.599C307.347 426.432 307.254 426.21 307.25 425.977L306.612 268.676C306.606 268.46 306.684 268.251 306.828 268.09C306.973 267.93 307.173 267.831 307.388 267.813L348.621 264.068C348.735 264.051 348.851 264.06 348.961 264.092C349.071 264.125 349.173 264.182 349.259 264.258C349.438 264.411 349.55 264.627 349.57 264.862L361.652 424.459C361.658 424.575 361.642 424.691 361.603 424.8C361.565 424.91 361.505 425.011 361.427 425.097C361.349 425.184 361.253 425.254 361.146 425.302C361.039 425.35 360.923 425.374 360.806 425.373L308.13 426.909L308.113 426.84ZM308.337 269.453L308.976 425.08L359.874 423.613L347.913 265.794L308.337 269.453Z" fill="#263238"/>
<path d="M301.364 227.427C301.364 227.427 306.697 257.216 307.474 264.845C308.251 272.474 327.961 326.72 333.864 317.866C340.301 308.218 347.947 277.841 349.397 270.955C350.847 264.068 350.933 234.313 350.933 234.313C350.933 234.313 331.137 248.052 301.364 227.427Z" fill="white"/>
<path d="M332.311 319.712C332.09 319.707 331.87 319.678 331.655 319.626C323.543 317.606 307.354 272.3 306.612 264.931C305.87 257.561 300.571 227.892 300.502 227.582C300.47 227.413 300.49 227.239 300.558 227.081C300.626 226.923 300.74 226.79 300.885 226.697C301.029 226.604 301.198 226.557 301.37 226.561C301.541 226.565 301.708 226.62 301.848 226.719C330.809 246.774 350.312 233.726 350.502 233.622C350.638 233.542 350.793 233.499 350.951 233.499C351.109 233.499 351.264 233.542 351.4 233.622C351.539 233.699 351.656 233.811 351.738 233.948C351.82 234.084 351.864 234.24 351.866 234.399C351.866 235.607 351.866 264.344 350.312 271.23C348.586 278.721 341.113 308.649 334.589 318.435C334.348 318.822 334.012 319.143 333.614 319.366C333.216 319.589 332.767 319.708 332.311 319.712ZM302.538 229.29C303.747 236.194 307.716 258.251 308.286 264.758C309.028 272.197 325.39 316.294 332.035 317.951C332.345 317.951 332.708 317.951 333.122 317.399C339.422 307.924 347.05 277.703 348.655 270.799C349.95 264.983 350.14 241.941 350.157 235.832C345.186 238.369 327.237 245.497 302.538 229.29Z" fill="#263238"/>
<path d="M350.691 254.109C351.002 244.341 351.002 234.313 351.002 234.313C351.002 234.313 331.137 248.12 301.364 227.409C301.364 227.409 303.556 239.681 305.334 250.485C309.407 255.663 317.157 263.895 326.718 265.431C336.539 267.019 344.478 261.807 350.691 254.109Z" fill="#9468B4"/>
<path opacity="0.5" d="M350.691 254.109C351.002 244.341 351.002 234.313 351.002 234.313C351.002 234.313 331.137 248.12 301.364 227.409C301.364 227.409 303.556 239.681 305.334 250.485C309.407 255.663 317.157 263.895 326.718 265.431C336.539 267.019 344.478 261.807 350.691 254.109Z" fill="white"/>
<path d="M367.037 197.653C367.037 197.653 375.425 186.953 375.425 199.172C375.425 211.392 367.037 212.98 367.037 212.98V197.653Z" fill="white"/>
<path d="M367.036 213.791C366.833 213.794 366.636 213.72 366.484 213.584C366.384 213.508 366.303 213.408 366.249 213.294C366.195 213.18 366.169 213.055 366.173 212.928V197.654C366.169 197.461 366.23 197.273 366.346 197.119C367.088 196.187 370.885 191.596 373.785 192.597C375.511 193.184 376.287 195.341 376.287 199.173C376.287 211.962 367.278 213.757 367.192 213.774L367.036 213.791ZM367.899 197.947V211.755C369.988 210.926 374.561 208.079 374.561 199.173C374.561 195.134 373.629 194.375 373.232 194.237C371.955 193.805 369.383 196.135 367.899 197.947Z" fill="#263238"/>
<path d="M283.794 172.456C283.794 172.456 293.718 217.451 293.718 223.612C293.718 236.574 318.157 251.106 328.841 254.161C339.524 257.216 365.5 233.536 367.036 227.427C368.572 221.317 369.314 167.865 366.259 157.181C363.204 146.498 345.686 139.611 334.191 139.611C322.696 139.611 289.144 145.721 283.794 172.456Z" fill="white"/>
<path d="M330.948 255.3C330.16 255.308 329.375 255.204 328.618 254.989C318.262 252.021 292.856 237.35 292.856 223.612C292.856 217.623 283.053 173.094 282.949 172.645C282.932 172.525 282.932 172.403 282.949 172.283C288.421 144.91 322.646 138.748 334.192 138.748C345.739 138.748 363.878 145.652 367.089 156.939C370.299 168.227 369.367 221.644 367.865 227.703C366.743 232.207 354.161 244.651 342.839 251.192C338.041 253.902 334.054 255.3 330.948 255.3ZM284.675 172.455C285.452 175.994 294.582 217.589 294.582 223.629C294.582 235.987 318.555 250.329 329.101 253.35C331.949 254.161 336.402 252.884 341.994 249.656C353.212 243.184 365.276 230.947 366.157 227.219C367.589 221.472 368.452 168.089 365.397 157.423C362.446 147.067 344.928 140.474 334.158 140.474C323.026 140.474 290.043 146.359 284.675 172.438V172.455Z" fill="#263238"/>
<path d="M334.191 139.611C322.748 139.611 289.144 145.721 283.794 172.404C283.794 172.404 289.731 199.329 292.424 214.379C292.424 207.475 293.632 194.254 301.053 188.49C311.305 180.516 328.409 179.36 338.092 174.803C347.774 170.247 350.052 158.286 350.052 158.286C350.052 158.286 350.622 179.36 355.23 184.503C359.838 189.646 364.36 193.132 364.93 202.159C365.5 211.186 367.208 220.385 362.652 227.806C358.095 235.228 339.283 249.45 330.739 252.297C329.428 252.746 328.15 253.126 326.942 253.488C327.615 253.73 328.271 253.954 328.875 254.127C339.576 257.182 365.534 233.502 367.07 227.392C368.606 221.282 369.348 167.83 366.293 157.147C363.239 146.463 345.686 139.611 334.191 139.611Z" fill="#9468B4"/>
<path d="M318.33 249.64C314.17 245.445 302.796 233.83 297.618 227.841C296.122 226.135 294.782 224.298 293.614 222.353C293.614 222.853 293.614 223.302 293.614 223.612C293.718 233.191 307.042 243.616 318.33 249.64Z" fill="#9468B4"/>
<g opacity="0.5">
<path opacity="0.5" d="M334.191 139.611C322.748 139.611 289.144 145.721 283.794 172.404C283.794 172.404 289.731 199.329 292.424 214.379C292.424 207.475 293.632 194.254 301.053 188.49C311.305 180.516 328.409 179.36 338.092 174.803C347.774 170.247 350.052 158.286 350.052 158.286C350.052 158.286 350.622 179.36 355.23 184.503C359.838 189.646 364.36 193.132 364.93 202.159C365.5 211.186 367.208 220.385 362.652 227.806C358.095 235.228 339.283 249.45 330.739 252.297C329.428 252.746 328.15 253.126 326.942 253.488C327.615 253.73 328.271 253.954 328.875 254.127C339.576 257.182 365.534 233.502 367.07 227.392C368.606 221.282 369.348 167.83 366.293 157.147C363.239 146.463 345.686 139.611 334.191 139.611Z" fill="white"/>
<path opacity="0.5" d="M318.33 249.64C314.17 245.445 302.796 233.83 297.618 227.841C296.122 226.135 294.782 224.298 293.614 222.353C293.614 222.853 293.614 223.302 293.614 223.612C293.718 233.191 307.042 243.616 318.33 249.64Z" fill="white"/>
</g>
<path d="M323.336 200.088C323.336 202.228 322.386 203.954 321.195 203.954C320.005 203.954 319.038 202.228 319.038 200.088C319.038 197.948 320.005 196.222 321.195 196.222C322.386 196.222 323.336 197.948 323.336 200.088Z" fill="#263238"/>
<path d="M348.483 200.088C348.483 202.228 347.516 203.954 346.325 203.954C345.134 203.954 344.168 202.228 344.168 200.088C344.168 197.948 345.134 196.222 346.325 196.222C347.516 196.222 348.483 197.948 348.483 200.088Z" fill="#263238"/>
<path d="M336.798 216.432C336.625 216.435 336.455 216.383 336.312 216.284C336.17 216.185 336.062 216.043 336.004 215.88C335.918 215.669 335.919 215.433 336.006 215.223C336.094 215.013 336.26 214.846 336.47 214.758C339.922 213.411 344.789 210.754 345.1 209.097C345.238 208.458 344.979 208.234 342.787 207.75C341.195 207.533 339.694 206.876 338.455 205.852C335.883 203.28 337.989 196.066 338.248 195.255C338.314 195.026 338.469 194.833 338.678 194.718C338.781 194.661 338.895 194.625 339.012 194.612C339.129 194.599 339.248 194.609 339.361 194.642C339.475 194.675 339.58 194.73 339.672 194.803C339.764 194.877 339.841 194.968 339.898 195.072C339.955 195.175 339.991 195.289 340.004 195.406C340.017 195.523 340.007 195.642 339.974 195.755C339.145 198.448 338.352 203.246 339.75 204.644C340.759 205.404 341.948 205.892 343.201 206.059C344.927 206.456 347.326 206.991 346.826 209.511C346.205 212.687 338.645 215.845 337.143 216.415C337.031 216.446 336.913 216.452 336.798 216.432Z" fill="#263238"/>
<path d="M329.152 227.927C327.38 228.031 325.612 227.677 324.016 226.9C322.42 226.124 321.051 224.95 320.039 223.492C319.975 223.398 319.93 223.293 319.908 223.182C319.885 223.071 319.885 222.956 319.907 222.845C319.93 222.734 319.975 222.628 320.039 222.535C320.103 222.441 320.185 222.362 320.281 222.301C320.471 222.176 320.703 222.131 320.926 222.176C321.149 222.222 321.345 222.353 321.472 222.542C325.614 228.773 335.279 225.114 335.279 225.079C335.492 224.995 335.73 224.998 335.94 225.089C336.15 225.179 336.316 225.35 336.401 225.563C336.485 225.776 336.482 226.013 336.392 226.224C336.301 226.434 336.13 226.6 335.918 226.685C333.746 227.469 331.46 227.889 329.152 227.927Z" fill="#263238"/>
<path d="M313.309 194.082C313.206 194.098 313.101 194.098 312.998 194.082C312.891 194.041 312.793 193.98 312.71 193.902C312.627 193.824 312.56 193.73 312.513 193.625C312.467 193.521 312.441 193.408 312.439 193.294C312.436 193.18 312.456 193.066 312.498 192.96C313.392 190.847 315.041 189.143 317.123 188.179C318.399 187.684 319.762 187.454 321.13 187.501C322.497 187.549 323.841 187.873 325.08 188.455C325.293 188.54 325.463 188.706 325.554 188.916C325.644 189.126 325.648 189.364 325.563 189.577C325.478 189.79 325.312 189.96 325.102 190.051C324.892 190.142 324.654 190.145 324.441 190.06C323.414 189.564 322.298 189.281 321.159 189.228C320.02 189.174 318.882 189.352 317.814 189.75C316.158 190.541 314.841 191.901 314.103 193.581C314.037 193.735 313.925 193.865 313.783 193.955C313.642 194.044 313.476 194.088 313.309 194.082Z" fill="#263238"/>
<path d="M350.191 191.251C350.059 191.249 349.929 191.219 349.81 191.162C349.691 191.106 349.585 191.024 349.501 190.923C347.775 188.765 346.204 187.712 344.651 187.782C343.9 187.909 343.185 188.193 342.551 188.615C341.918 189.038 341.381 189.589 340.974 190.232C340.85 190.424 340.657 190.559 340.435 190.611C340.213 190.662 339.979 190.626 339.784 190.508C339.685 190.45 339.6 190.373 339.532 190.28C339.465 190.188 339.417 190.083 339.391 189.972C339.365 189.861 339.362 189.745 339.382 189.633C339.402 189.52 339.445 189.413 339.507 189.318C340.056 188.437 340.792 187.688 341.663 187.124C342.534 186.56 343.519 186.195 344.547 186.056C346.756 185.935 348.845 187.229 350.864 189.87C351.003 190.051 351.065 190.28 351.036 190.506C351.007 190.732 350.889 190.938 350.709 191.078C350.56 191.191 350.378 191.252 350.191 191.251Z" fill="#263238"/>
<path d="M370.091 145.721C362.531 137.091 354.558 137.609 349.794 139.473C343.339 128.6 322.007 119.97 294.564 130.447C262.496 142.666 266.311 175.511 267.847 181.62C269.383 187.73 280.066 203.764 286.936 204.524C286.936 204.524 293.045 199.173 293.045 193.84C293.045 188.507 307.561 177.806 322.058 173.215C331.189 170.333 341.216 165.034 347.015 158.269C346.908 162.711 348.05 167.094 350.312 170.92C354.903 177.823 361.772 181.62 361.772 183.916C361.772 186.211 365.586 194.599 368.676 194.599C371.765 194.599 371.731 182.38 372.49 177.029C373.249 171.679 380.775 157.941 370.091 145.721Z" fill="#263238"/>
<path d="M286.849 205.386H286.745C279.237 204.54 268.468 187.972 266.914 181.827C266.828 181.448 258.388 143.287 294.184 129.652C320.608 119.573 342.51 126.597 350.156 138.42C354.057 137.108 362.583 135.831 370.729 145.151C379.652 155.351 376.269 166.553 374.181 173.267C373.759 174.538 373.419 175.835 373.163 177.15C372.973 178.444 372.835 180.188 372.679 182.017C372.023 190.146 371.368 195.462 368.485 195.462C364.688 195.462 360.753 186.349 360.753 183.916C360.753 183.191 359.027 181.568 357.301 180.015C354.345 177.471 351.713 174.573 349.466 171.385C347.39 168.071 346.202 164.28 346.014 160.374C340.525 165.949 331.775 170.971 322.092 174.026C307.456 178.652 293.683 189.093 293.683 193.822C293.683 199.484 287.539 204.92 287.28 205.162C287.161 205.276 287.011 205.354 286.849 205.386ZM318.502 126.597C310.38 126.696 302.344 128.275 294.788 131.257C260.39 144.375 268.502 181.033 268.588 181.413C270.107 187.488 280.256 202.366 286.573 203.608C287.746 202.504 292.096 198.086 292.096 193.84C292.096 187.851 307.042 177.029 321.713 172.386C331.982 169.159 341.164 163.653 346.273 157.699C346.39 157.566 346.546 157.471 346.718 157.428C346.891 157.385 347.072 157.395 347.239 157.457C347.403 157.52 347.543 157.632 347.642 157.777C347.74 157.921 347.793 158.093 347.791 158.268C347.683 162.546 348.777 166.767 350.95 170.453C353.124 173.517 355.669 176.299 358.527 178.738C360.943 180.964 362.548 182.431 362.548 183.916C362.548 186.142 366.276 193.736 368.554 193.736C370.073 193.736 370.746 185.434 371.04 181.879C371.178 180.015 371.333 178.255 371.523 176.908C371.787 175.505 372.145 174.122 372.593 172.766C374.63 166 377.771 155.766 369.435 146.29C361.771 137.54 354.039 138.765 350.104 140.284C349.912 140.356 349.701 140.358 349.508 140.288C349.315 140.218 349.153 140.082 349.051 139.904C344.995 133.104 333.967 126.597 318.502 126.597Z" fill="#263238"/>
<path d="M280.429 185.452H280.273C280.049 185.41 279.851 185.281 279.722 185.093C279.593 184.906 279.543 184.675 279.583 184.451C280.084 181.775 281.965 179.497 285.348 177.443C285.544 177.331 285.777 177.301 285.996 177.359C286.214 177.417 286.402 177.558 286.517 177.753C286.633 177.948 286.667 178.18 286.613 178.399C286.559 178.619 286.42 178.809 286.228 178.928C283.311 180.654 281.689 182.604 281.274 184.778C281.234 184.972 281.128 185.145 280.973 185.268C280.819 185.391 280.626 185.456 280.429 185.452Z" fill="white"/>
<path d="M291.355 176.391C291.18 176.389 291.01 176.336 290.865 176.238C290.721 176.14 290.609 176 290.544 175.838C290.465 175.625 290.473 175.39 290.567 175.183C290.661 174.976 290.832 174.815 291.044 174.734C297.034 172.609 303.157 170.88 309.374 169.556C313.999 168.486 318.383 167.45 322.025 166.294C335.694 161.944 343.357 150.036 343.443 149.932C343.502 149.834 343.579 149.748 343.671 149.681C343.764 149.613 343.869 149.565 343.98 149.539C344.091 149.514 344.207 149.511 344.319 149.531C344.431 149.551 344.539 149.593 344.634 149.656C344.826 149.78 344.961 149.975 345.01 150.198C345.058 150.421 345.016 150.654 344.893 150.847C339.448 158.812 331.58 164.81 322.456 167.951C318.763 169.124 314.344 170.16 309.684 171.247C303.548 172.524 297.5 174.196 291.579 176.252C291.511 176.308 291.435 176.355 291.355 176.391Z" fill="white"/>
<path d="M277.857 160.996C277.683 160.997 277.514 160.942 277.373 160.84C277.184 160.714 277.053 160.518 277.007 160.294C276.962 160.071 277.007 159.84 277.132 159.649C278.858 156.974 283.518 157.164 290.473 157.44C296.114 157.756 301.768 157.721 307.405 157.337C323.093 156.077 337.108 146.636 337.246 146.532C337.436 146.407 337.668 146.363 337.891 146.408C338.114 146.453 338.31 146.585 338.437 146.774C338.502 146.866 338.548 146.971 338.571 147.081C338.595 147.192 338.597 147.306 338.576 147.417C338.555 147.528 338.512 147.633 338.45 147.727C338.387 147.822 338.307 147.902 338.213 147.965C337.626 148.362 323.68 157.768 307.543 159.062C301.838 159.456 296.114 159.491 290.404 159.166C284.26 158.924 279.824 158.735 278.564 160.616C278.487 160.733 278.382 160.829 278.258 160.895C278.135 160.961 277.997 160.996 277.857 160.996Z" fill="white"/>
<path d="M370.574 170.004C370.461 170 370.349 169.973 370.246 169.926C370.143 169.878 370.051 169.811 369.974 169.727C369.897 169.644 369.837 169.546 369.798 169.44C369.759 169.333 369.741 169.22 369.746 169.107C369.824 166.973 369.667 164.838 369.28 162.738C369.254 162.627 369.252 162.512 369.273 162.4C369.293 162.288 369.336 162.181 369.399 162.086C369.462 161.99 369.543 161.909 369.638 161.846C369.734 161.783 369.841 161.74 369.953 161.72C370.065 161.697 370.181 161.698 370.293 161.72C370.405 161.743 370.512 161.788 370.606 161.852C370.701 161.916 370.782 161.999 370.845 162.094C370.907 162.19 370.95 162.298 370.971 162.41C371.379 164.641 371.547 166.909 371.472 169.176C371.467 169.289 371.44 169.401 371.393 169.504C371.345 169.607 371.278 169.699 371.195 169.776C371.111 169.853 371.013 169.913 370.907 169.952C370.8 169.991 370.687 170.009 370.574 170.004Z" fill="white"/>
<path d="M369.159 159.977C368.979 159.978 368.803 159.922 368.657 159.817C368.511 159.711 368.403 159.562 368.348 159.39C367.233 156.319 365.445 153.537 363.116 151.246C360.787 148.956 357.974 147.215 354.885 146.152C354.665 146.088 354.478 145.94 354.366 145.74C354.253 145.54 354.223 145.304 354.281 145.082C354.313 144.973 354.366 144.872 354.437 144.784C354.508 144.695 354.595 144.622 354.695 144.567C354.794 144.513 354.903 144.478 355.016 144.466C355.129 144.454 355.243 144.464 355.351 144.495C358.72 145.61 361.788 147.48 364.322 149.963C366.856 152.446 368.788 155.476 369.97 158.821C370.008 158.928 370.024 159.042 370.018 159.156C370.012 159.27 369.983 159.382 369.933 159.485C369.883 159.587 369.814 159.679 369.728 159.755C369.643 159.831 369.543 159.888 369.435 159.925C369.347 159.959 369.253 159.977 369.159 159.977Z" fill="white"/>
<path d="M313.653 238.317C311.407 238.405 309.174 237.942 307.147 236.971C300.571 233.519 288.886 217.986 288.403 217.261C288.266 217.078 288.207 216.847 288.239 216.621C288.272 216.394 288.393 216.19 288.576 216.052C288.759 215.915 288.989 215.856 289.215 215.889C289.442 215.921 289.646 216.042 289.784 216.225C289.905 216.38 301.71 232.155 307.958 235.452C314.206 238.748 325.925 234.157 326.046 234.106C326.152 234.065 326.266 234.045 326.38 234.049C326.494 234.052 326.606 234.077 326.71 234.124C326.814 234.17 326.908 234.237 326.987 234.319C327.065 234.402 327.127 234.5 327.167 234.606C327.208 234.713 327.228 234.826 327.225 234.94C327.222 235.054 327.196 235.167 327.15 235.271C327.103 235.375 327.037 235.469 326.954 235.547C326.871 235.626 326.773 235.687 326.667 235.728C322.492 237.271 318.1 238.144 313.653 238.317Z" fill="#263238"/>
<path d="M330.636 235.055C330.636 236.626 328.703 237.921 326.339 237.921C323.974 237.921 322.041 236.626 322.041 235.055C322.041 233.485 323.957 232.19 326.339 232.19C328.72 232.19 330.636 233.468 330.636 235.055Z" fill="#263238"/>
<path d="M282.363 194.893C282.363 194.893 268.193 158.199 282.363 136.314C282.363 136.314 260.461 158.838 279.791 200.053L282.363 194.893Z" fill="white"/>
<path d="M292.182 206.784C293.477 215.414 291.13 222.87 286.918 223.509C282.707 224.147 278.289 217.675 276.977 209.063C275.665 200.45 278.047 192.977 282.241 192.338C286.435 191.7 290.957 198.172 292.182 206.784Z" fill="white"/>
<path d="M286.401 224.371C281.896 224.371 277.495 217.934 276.183 209.166C275.51 205.252 275.716 201.237 276.787 197.412C277.874 193.96 279.79 191.803 282.172 191.458C286.901 190.75 291.716 197.395 293.097 206.612C293.762 210.526 293.555 214.539 292.493 218.365C291.389 221.817 289.49 223.974 287.108 224.32C286.874 224.354 286.637 224.371 286.401 224.371ZM282.949 193.132C282.794 193.115 282.638 193.115 282.483 193.132C280.757 193.374 279.376 195.117 278.496 197.896C277.509 201.47 277.326 205.219 277.961 208.873C279.152 216.846 283.242 223.146 286.918 222.576C288.644 222.335 290.042 220.592 290.923 217.813C291.901 214.237 292.084 210.49 291.458 206.836C290.232 199.242 286.418 193.167 282.88 193.167L282.949 193.132Z" fill="#263238"/>
<path d="M284.569 223.251C288.302 222.69 290.279 215.258 288.985 206.652C287.691 198.046 283.616 191.524 279.884 192.085C276.151 192.647 274.174 200.078 275.468 208.684C276.762 217.29 280.836 223.812 284.569 223.251Z" fill="white"/>
<path d="M284.088 224.165C282.121 224.165 280.101 222.663 278.358 219.884C276.379 216.49 275.1 212.734 274.595 208.838C273.197 199.604 275.476 191.89 279.773 191.251C284.071 190.612 288.403 197.326 289.87 206.543C290.525 210.417 290.407 214.382 289.525 218.21C288.593 221.662 286.884 223.802 284.709 224.13L284.088 224.165ZM280.291 192.925H279.998C277.202 193.339 274.992 199.829 276.304 208.459C276.764 212.103 277.937 215.622 279.756 218.814C281.275 221.213 282.932 222.473 284.364 222.266C285.797 222.059 287.039 220.35 287.816 217.606C288.643 214.009 288.749 210.284 288.127 206.646C286.867 198.483 283.07 192.925 280.291 192.925Z" fill="#263238"/>
<path d="M422.784 267.899L442.684 425.218L402.936 424.441L422.784 267.899Z" fill="#9468B4"/>
<path d="M442.684 426.081L402.988 425.304C402.867 425.303 402.747 425.276 402.637 425.225C402.527 425.175 402.429 425.102 402.349 425.011C402.272 424.918 402.216 424.81 402.183 424.694C402.15 424.578 402.142 424.457 402.159 424.337L421.99 267.796C422.015 267.585 422.118 267.391 422.277 267.251C422.436 267.111 422.641 267.035 422.853 267.036C423.062 267.039 423.263 267.117 423.419 267.257C423.574 267.397 423.674 267.588 423.699 267.796L443.599 425.097C443.618 425.22 443.61 425.346 443.574 425.466C443.538 425.585 443.476 425.695 443.392 425.787C443.304 425.887 443.195 425.966 443.072 426.017C442.949 426.068 442.817 426.09 442.684 426.081ZM403.92 423.595L441.7 424.337L422.715 274.768L403.92 423.595Z" fill="#263238"/>
<path opacity="0.3" d="M433.623 353.696L412.929 366.122L413.274 342.874L402.936 424.442L442.684 425.218L439.422 399.519L422.076 400.089L437.471 384.089L437.351 383.036L416.191 390.285L435.331 367.106L433.623 353.696Z" fill="black"/>
<path d="M280.584 221.507C280.584 221.507 286.452 219.453 287.729 221.714C289.007 223.975 290.491 233.795 290.456 235.193C290.422 236.591 289.939 237.869 287.281 236.919C284.623 235.97 280.377 227.323 280.377 227.323L280.584 221.507Z" fill="white"/>
<path d="M288.852 238.179C288.214 238.161 287.583 238.033 286.988 237.799C284.158 236.746 280.361 229.273 279.636 227.771C279.61 227.64 279.61 227.505 279.636 227.374L279.808 221.575C279.812 221.401 279.868 221.232 279.97 221.09C280.072 220.948 280.214 220.841 280.378 220.781C281.483 220.402 287.005 218.624 288.559 221.385C289.922 223.784 291.458 233.864 291.407 235.314C291.431 235.78 291.347 236.245 291.161 236.673C290.976 237.102 290.693 237.481 290.337 237.782C289.896 238.066 289.376 238.205 288.852 238.179ZM281.275 227.202C282.88 230.429 285.918 235.555 287.575 236.177C288.766 236.608 289.18 236.418 289.301 236.349C289.422 236.28 289.612 235.849 289.629 235.262C289.629 234.071 288.196 224.354 287.005 222.231C286.436 221.196 283.554 221.592 281.465 222.231L281.275 227.202Z" fill="#263238"/>
<path d="M254.903 252.642C254.903 252.642 260.339 217.692 260.46 213.895C260.581 210.098 265.638 206.991 268.054 206.059C270.47 205.127 284.278 205.576 285.745 205.628C287.212 205.68 293.115 205.369 293.063 207.354C293.011 209.339 292.493 210.184 287.557 210.978C282.621 211.772 270.816 212.393 270.816 212.393L267.726 217.053L282.379 219.849C282.379 219.849 285.831 221.368 285.21 223.733C284.589 226.097 282.88 236.47 282.845 237.885C282.811 239.301 281.292 240.215 277.788 242.494C275.697 243.847 273.345 244.746 270.885 245.134C270.885 245.134 271.161 252.262 269.159 253.143L264.171 255.369L263.48 296.153L240.957 293.599L254.903 252.642Z" fill="white"/>
<path d="M263.463 296.861H263.36L240.923 294.306C240.794 294.291 240.669 294.248 240.559 294.179C240.448 294.111 240.355 294.018 240.284 293.909C240.229 293.793 240.2 293.667 240.2 293.538C240.2 293.41 240.229 293.283 240.284 293.167L254.23 252.366C254.506 250.64 259.649 217.416 259.753 213.809C259.873 209.459 265.414 206.059 267.916 205.179C270.419 204.299 281.309 204.558 285.918 204.696H286.694C289.559 204.696 292.442 204.782 293.598 205.956C293.762 206.121 293.891 206.318 293.977 206.535C294.063 206.751 294.105 206.983 294.099 207.216C294.099 209.943 292.683 210.892 287.868 211.686C283.415 212.411 273.681 212.963 271.472 213.084L269.349 216.294L282.725 218.849H282.915C283.07 218.849 286.953 220.695 286.228 223.716C285.624 226.253 283.916 236.453 283.881 237.713C283.881 239.439 282.276 240.526 278.893 242.718L278.444 243.012C276.445 244.288 274.228 245.183 271.903 245.652C271.903 247.999 271.731 252.798 269.659 253.73L265.189 255.732L264.499 295.963C264.495 296.084 264.468 296.203 264.417 296.312C264.367 296.422 264.295 296.52 264.205 296.602C264.111 296.701 263.995 296.776 263.866 296.821C263.737 296.866 263.599 296.879 263.463 296.861ZM242.131 292.787L262.618 295.135L263.291 255.3C263.297 255.138 263.348 254.98 263.44 254.846C263.532 254.711 263.659 254.606 263.808 254.541L268.779 252.314C269.642 251.917 270.108 248.207 269.987 245.117C269.977 244.899 270.05 244.686 270.191 244.519C270.331 244.353 270.53 244.246 270.747 244.22C273.09 243.857 275.331 243.004 277.323 241.717L277.789 241.424C280.74 239.491 281.948 238.679 281.983 237.816C281.983 236.229 283.864 225.735 284.382 223.474C284.727 222.024 282.656 220.851 282.121 220.626L267.571 217.847C267.43 217.82 267.299 217.758 267.188 217.668C267.076 217.577 266.989 217.461 266.932 217.33C266.869 217.204 266.836 217.065 266.836 216.924C266.836 216.783 266.869 216.644 266.932 216.518L270.005 211.858C270.084 211.748 270.187 211.656 270.307 211.59C270.426 211.525 270.559 211.487 270.695 211.479C270.799 211.479 282.5 210.875 287.333 210.081C292.166 209.287 292.079 208.545 292.114 207.268C291.958 207.009 291.026 206.525 286.556 206.525H285.624C278.721 206.318 269.97 206.301 268.261 206.905C265.931 207.734 261.358 210.737 261.237 213.964C261.116 217.761 255.904 251.382 255.679 252.815C255.679 252.815 255.679 252.918 255.679 252.953L242.131 292.787Z" fill="#263238"/>
<path d="M284.036 226.494H283.88L266.103 223.301C265.874 223.26 265.671 223.13 265.539 222.939C265.406 222.748 265.355 222.512 265.396 222.283C265.437 222.054 265.567 221.851 265.758 221.718C265.949 221.586 266.185 221.534 266.414 221.575L284.191 224.786C284.42 224.806 284.631 224.917 284.779 225.093C284.926 225.27 284.997 225.497 284.976 225.726C284.956 225.955 284.845 226.166 284.669 226.314C284.492 226.461 284.265 226.532 284.036 226.512V226.494Z" fill="#263238"/>
<path d="M282.018 234.468H281.828L267.192 230.913C266.963 230.86 266.764 230.718 266.64 230.519C266.515 230.32 266.475 230.08 266.527 229.851C266.58 229.622 266.721 229.424 266.921 229.299C267.12 229.174 267.36 229.134 267.589 229.187L282.242 232.742C282.353 232.766 282.457 232.812 282.549 232.878C282.641 232.944 282.718 233.028 282.777 233.125C282.835 233.222 282.873 233.33 282.888 233.443C282.902 233.555 282.894 233.669 282.863 233.778C282.827 233.974 282.722 234.151 282.567 234.278C282.412 234.404 282.217 234.471 282.018 234.468Z" fill="#263238"/>
<path d="M270.85 245.911C270.705 245.914 270.562 245.879 270.435 245.809C270.307 245.739 270.201 245.638 270.125 245.514C269.504 244.547 268.106 242.183 268.572 240.888C268.645 240.682 268.766 240.497 268.925 240.347C269.084 240.196 269.277 240.086 269.487 240.025C270.85 239.611 274.026 238.8 274.026 238.8L274.457 240.526C274.457 240.526 271.627 241.251 270.194 241.665C270.481 242.726 270.948 243.73 271.575 244.633C271.698 244.826 271.74 245.059 271.692 245.282C271.643 245.506 271.508 245.701 271.316 245.824C271.17 245.891 271.01 245.921 270.85 245.911Z" fill="#263238"/>
<path d="M242.976 272.473L267.312 281.655C267.312 281.655 250.363 388.041 246.29 396.395C242.217 404.748 232.69 414.448 220.401 415.621C208.113 416.795 199.224 403.54 198.862 389.612C198.499 375.683 242.976 272.473 242.976 272.473Z" fill="#9468B4"/>
<path d="M218.831 416.554C214.585 416.512 210.507 414.894 207.388 412.015C201.796 407.044 198.171 398.484 197.947 389.578C197.567 375.684 240.37 276.288 242.182 272.059C242.273 271.857 242.439 271.697 242.645 271.613C242.851 271.53 243.081 271.529 243.287 271.61L267.623 280.775C267.809 280.841 267.967 280.971 268.068 281.141C268.169 281.311 268.207 281.512 268.175 281.707C267.485 286.056 251.157 388.335 247.05 396.689C242.666 405.663 232.724 415.242 220.418 416.416C219.901 416.537 219.366 416.554 218.831 416.554ZM243.442 273.578C239.404 283.001 199.328 376.702 199.673 389.595C199.88 397.966 203.28 406.06 208.544 410.72C210.102 412.182 211.951 413.298 213.971 413.994C215.991 414.69 218.135 414.951 220.263 414.759C231.896 413.654 241.32 404.542 245.514 396.015C249.328 388.231 264.878 291.424 266.363 282.208L243.442 273.578Z" fill="#263238"/>
<path opacity="0.3" d="M222.834 361.548C216.898 364.576 210.7 367.06 204.315 368.97C202.123 375.339 200.449 380.741 199.552 384.607L211.064 383.157C219.266 382.212 227.358 380.478 235.227 377.979C235.227 377.979 216.241 389.733 199.31 391.7H198.913C200.035 404.783 208.596 416.795 220.332 415.674C232.672 414.5 242.182 404.783 246.221 396.447C248.223 392.339 253.332 364.621 258.009 337.472C247.166 346.716 235.376 354.786 222.834 361.548Z" fill="black"/>
<path d="M483.295 89.7483V85.0192C483.295 84.3509 483.029 83.71 482.557 83.2374C482.084 82.7648 481.443 82.4994 480.775 82.4994H477.133C476.58 80.1165 475.635 77.8419 474.337 75.7682L476.909 73.1793C477.38 72.7042 477.644 72.0621 477.644 71.393C477.644 70.7238 477.38 70.0818 476.909 69.6066L473.578 66.2756C473.103 65.8045 472.461 65.5401 471.791 65.5401C471.122 65.5401 470.48 65.8045 470.005 66.2756L467.416 68.8472C465.343 67.5495 463.068 66.6047 460.685 66.0512V62.4095C460.685 61.7412 460.42 61.1003 459.947 60.6277C459.474 60.1551 458.834 59.8896 458.165 59.8896H453.436C452.768 59.8896 452.127 60.1551 451.654 60.6277C451.182 61.1003 450.916 61.7412 450.916 62.4095V66.0512C448.534 66.6047 446.259 67.5495 444.185 68.8472L441.596 66.2756C441.121 65.8045 440.479 65.5401 439.81 65.5401C439.141 65.5401 438.499 65.8045 438.024 66.2756L434.693 69.6066C434.221 70.0818 433.957 70.7238 433.957 71.393C433.957 72.0621 434.221 72.7042 434.693 73.1793L437.264 75.7682C435.965 77.8392 435.026 80.115 434.486 82.4994H430.826C430.158 82.4994 429.517 82.7648 429.045 83.2374C428.572 83.71 428.307 84.3509 428.307 85.0192V89.7483C428.307 90.4166 428.572 91.0575 429.045 91.5301C429.517 92.0026 430.158 92.2681 430.826 92.2681H434.486C435.026 94.6525 435.965 96.9283 437.264 98.9992L434.693 101.588C434.221 102.063 433.957 102.705 433.957 103.374C433.957 104.044 434.221 104.686 434.693 105.161L438.024 108.492C438.499 108.963 439.141 109.227 439.81 109.227C440.479 109.227 441.121 108.963 441.596 108.492L444.185 105.92C446.27 107.237 448.564 108.188 450.968 108.733V112.392C450.968 113.061 451.234 113.702 451.706 114.174C452.179 114.647 452.82 114.912 453.488 114.912H458.217C458.885 114.912 459.526 114.647 459.999 114.174C460.471 113.702 460.737 113.061 460.737 112.392V108.733C463.121 108.193 465.397 107.254 467.468 105.955L470.057 108.526C470.532 108.998 471.174 109.262 471.843 109.262C472.512 109.262 473.154 108.998 473.63 108.526L476.857 105.282C477.328 104.806 477.593 104.164 477.593 103.495C477.593 102.826 477.328 102.184 476.857 101.709L474.285 99.1201C475.583 97.0463 476.528 94.7718 477.081 92.3889H480.723C481.069 92.3964 481.412 92.3327 481.732 92.2018C482.052 92.0708 482.342 91.8754 482.583 91.6277C482.824 91.38 483.012 91.0854 483.134 90.762C483.257 90.4387 483.311 90.0936 483.295 89.7483ZM456.905 98.1363C454.683 98.3736 452.442 97.9159 450.491 96.8263C448.539 95.7367 446.974 94.0688 446.01 92.0524C445.046 90.0361 444.732 87.7705 445.109 85.5677C445.487 83.365 446.538 81.3335 448.118 79.7532C449.699 78.1729 451.73 77.1216 453.933 76.744C456.136 76.3664 458.401 76.6812 460.418 77.645C462.434 78.6088 464.102 80.1742 465.192 82.1255C466.281 84.0767 466.739 86.3179 466.501 88.5401C466.247 91.0035 465.156 93.3053 463.41 95.0611C461.663 96.817 459.367 97.9207 456.905 98.1881V98.1363Z" fill="#263238"/>
<path d="M41.4569 295.928V292.373C41.4569 291.864 41.255 291.377 40.8957 291.018C40.5365 290.659 40.0492 290.457 39.5411 290.457H36.7451C36.3295 288.66 35.6179 286.945 34.6394 285.383L36.5897 283.45C36.7672 283.273 36.908 283.063 37.004 282.832C37.1001 282.601 37.1496 282.354 37.1496 282.103C37.1496 281.853 37.1001 281.605 37.004 281.374C36.908 281.143 36.7672 280.934 36.5897 280.757L34.0699 278.237C33.8934 278.06 33.6837 277.919 33.4526 277.823C33.2216 277.727 32.9739 277.677 32.7236 277.677C32.4734 277.677 32.2257 277.727 31.9947 277.823C31.7636 277.919 31.5539 278.06 31.3774 278.237L29.4271 280.17C27.8664 279.191 26.1505 278.485 24.3529 278.082V275.32C24.3529 274.817 24.1529 274.334 23.7968 273.978C23.4408 273.622 22.9579 273.422 22.4544 273.422H18.9507C18.4456 273.422 17.9609 273.621 17.6021 273.977C17.2433 274.332 17.0395 274.815 17.0349 275.32V278.082C15.2373 278.485 13.5214 279.191 11.9607 280.17L10.0104 278.237C9.83397 278.06 9.62421 277.919 9.39318 277.823C9.16214 277.727 8.9144 277.677 8.66418 277.677C8.41397 277.677 8.16621 277.727 7.93517 277.823C7.70414 277.919 7.49437 278.06 7.31794 278.237L4.81535 280.757C4.63582 280.932 4.49316 281.142 4.39576 281.373C4.29835 281.604 4.24817 281.852 4.24817 282.103C4.24817 282.354 4.29835 282.603 4.39576 282.834C4.49316 283.065 4.63582 283.274 4.81535 283.45L6.7484 285.383C5.7699 286.945 5.0583 288.66 4.64276 290.457H1.89852C1.39342 290.461 0.910565 290.665 0.55501 291.024C0.199455 291.383 -2.04972e-05 291.867 1.57973e-09 292.373V295.928C1.57973e-09 296.432 0.200021 296.914 0.556063 297.27C0.912106 297.627 1.395 297.827 1.89852 297.827H4.64276C5.05204 299.625 5.76406 301.341 6.7484 302.901L4.81535 304.851C4.63582 305.026 4.49316 305.236 4.39576 305.467C4.29835 305.698 4.24817 305.946 4.24817 306.197C4.24817 306.448 4.29835 306.697 4.39576 306.928C4.49316 307.159 4.63582 307.368 4.81535 307.544L7.40425 310.063C7.58068 310.241 7.79044 310.382 8.02147 310.478C8.25251 310.574 8.50025 310.623 8.75047 310.623C9.00068 310.623 9.24843 310.574 9.47947 310.478C9.7105 310.382 9.92026 310.241 10.0967 310.063L12.047 308.113C13.6069 309.097 15.3227 309.809 17.1212 310.219V312.963C17.1212 313.471 17.3231 313.958 17.6824 314.318C18.0416 314.677 18.5289 314.879 19.037 314.879H22.5924C23.0975 314.874 23.5804 314.67 23.936 314.312C24.2915 313.953 24.491 313.468 24.491 312.963V310.219C26.2895 309.809 28.0053 309.097 29.5652 308.113L31.5155 310.063C31.6919 310.241 31.9017 310.382 32.1327 310.478C32.3638 310.574 32.6115 310.623 32.8617 310.623C33.1119 310.623 33.3597 310.574 33.5907 310.478C33.8218 310.382 34.0315 310.241 34.208 310.063L36.7278 307.544C36.9052 307.367 37.046 307.157 37.1421 306.926C37.2382 306.695 37.2877 306.448 37.2877 306.197C37.2877 305.947 37.2382 305.699 37.1421 305.468C37.046 305.237 36.9052 305.028 36.7278 304.851L34.7775 302.901C35.7618 301.341 36.4739 299.625 36.8831 297.827H39.6274C40.1174 297.804 40.5803 297.595 40.9207 297.242C41.261 296.889 41.4529 296.419 41.4569 295.928ZM21.5569 302.245C19.8831 302.418 18.1968 302.068 16.7298 301.244C15.2627 300.42 14.0869 299.162 13.3638 297.642C12.6408 296.123 12.406 294.417 12.6917 292.758C12.9774 291.1 13.7696 289.571 14.9594 288.381C16.1493 287.191 17.6783 286.399 19.3366 286.114C20.9949 285.828 22.7009 286.063 24.2203 286.786C25.7398 287.509 26.998 288.685 27.8222 290.152C28.6463 291.619 28.996 293.305 28.8231 294.979C28.6308 296.84 27.8034 298.579 26.4801 299.902C25.1569 301.225 23.4184 302.053 21.5569 302.245Z" fill="#263238"/>
<path d="M570.61 248.534V244.978C570.61 244.47 570.408 243.983 570.049 243.623C569.69 243.264 569.202 243.062 568.694 243.062H565.95C565.541 241.264 564.829 239.548 563.845 237.988L565.795 236.055C565.972 235.879 566.113 235.669 566.209 235.438C566.305 235.207 566.355 234.959 566.355 234.709C566.355 234.459 566.305 234.211 566.209 233.98C566.113 233.749 565.972 233.539 565.795 233.363L563.275 230.843C563.099 230.665 562.889 230.525 562.658 230.428C562.427 230.332 562.179 230.283 561.929 230.283C561.679 230.283 561.431 230.332 561.2 230.428C560.969 230.525 560.759 230.665 560.583 230.843L558.632 232.776C557.069 231.798 555.354 231.087 553.558 230.67V227.822C553.558 227.573 553.509 227.326 553.413 227.096C553.318 226.866 553.178 226.656 553.002 226.48C552.826 226.304 552.616 226.164 552.386 226.068C552.156 225.973 551.909 225.924 551.659 225.924H548.087C547.583 225.924 547.1 226.124 546.744 226.48C546.388 226.836 546.188 227.319 546.188 227.822V230.567C544.392 230.983 542.678 231.695 541.114 232.672L539.164 230.739C538.987 230.562 538.778 230.421 538.546 230.325C538.315 230.229 538.068 230.179 537.818 230.179C537.567 230.179 537.32 230.229 537.089 230.325C536.857 230.421 536.648 230.562 536.471 230.739L533.969 233.259C533.789 233.434 533.647 233.644 533.549 233.875C533.452 234.106 533.402 234.354 533.402 234.605C533.402 234.856 533.452 235.104 533.549 235.336C533.647 235.567 533.789 235.776 533.969 235.952L535.902 237.885C534.917 239.444 534.205 241.16 533.796 242.959H531.052C530.547 242.963 530.064 243.167 529.708 243.526C529.353 243.885 529.153 244.369 529.153 244.875V248.534C529.153 249.037 529.353 249.52 529.709 249.876C530.065 250.232 530.548 250.432 531.052 250.432H533.813C534.223 252.231 534.935 253.946 535.919 255.506L533.986 257.457C533.806 257.632 533.664 257.841 533.566 258.072C533.469 258.304 533.419 258.552 533.419 258.803C533.419 259.054 533.469 259.302 533.566 259.533C533.664 259.764 533.806 259.974 533.986 260.149L536.489 262.669C536.665 262.846 536.875 262.987 537.106 263.083C537.337 263.179 537.585 263.229 537.835 263.229C538.085 263.229 538.333 263.179 538.564 263.083C538.795 262.987 539.005 262.846 539.181 262.669L541.131 260.719C542.691 261.703 544.407 262.415 546.206 262.824V265.568C546.206 266.074 546.405 266.558 546.761 266.917C547.116 267.276 547.599 267.48 548.104 267.484H551.677C552.182 267.48 552.665 267.276 553.02 266.917C553.376 266.558 553.575 266.074 553.575 265.568V262.824C555.374 262.415 557.09 261.703 558.65 260.719L560.6 262.669C560.776 262.846 560.986 262.987 561.217 263.083C561.448 263.179 561.696 263.229 561.946 263.229C562.196 263.229 562.444 263.179 562.675 263.083C562.906 262.987 563.116 262.846 563.292 262.669L565.812 260.149C565.99 259.973 566.13 259.763 566.226 259.532C566.323 259.301 566.372 259.053 566.372 258.803C566.372 258.553 566.323 258.305 566.226 258.074C566.13 257.843 565.99 257.633 565.812 257.457L563.845 255.437C564.829 253.877 565.541 252.162 565.95 250.363H568.694C569.188 250.364 569.663 250.174 570.019 249.833C570.376 249.492 570.588 249.027 570.61 248.534ZM550.71 254.85C549.036 255.023 547.35 254.674 545.883 253.85C544.416 253.025 543.24 251.767 542.517 250.248C541.794 248.728 541.559 247.022 541.845 245.364C542.131 243.706 542.923 242.177 544.113 240.987C545.303 239.797 546.832 239.005 548.49 238.719C550.148 238.433 551.854 238.668 553.374 239.391C554.893 240.114 556.151 241.29 556.975 242.757C557.8 244.224 558.149 245.91 557.976 247.584C557.777 249.44 556.946 251.17 555.623 252.486C554.301 253.803 552.566 254.625 550.71 254.816V254.85Z" fill="#263238"/>
<path d="M279.739 16.914V15.0845C279.739 14.9561 279.713 14.829 279.664 14.7106C279.614 14.5922 279.541 14.4849 279.45 14.3949C279.358 14.3049 279.249 14.2341 279.13 14.1865C279.011 14.139 278.883 14.1157 278.755 14.118H277.357C277.14 13.1954 276.773 12.3149 276.27 11.5118L277.271 10.528C277.452 10.344 277.554 10.096 277.554 9.83766C277.554 9.57931 277.452 9.33135 277.271 9.1473L275.976 7.85285C275.795 7.67262 275.55 7.57144 275.294 7.57144C275.039 7.57144 274.794 7.67262 274.613 7.85285L273.612 8.85388C272.809 8.35079 271.928 7.98343 271.005 7.76655V6.36855C271.006 6.11059 270.904 5.86294 270.723 5.67893C270.543 5.49493 270.297 5.38929 270.039 5.38477H268.209C267.952 5.38929 267.706 5.49493 267.525 5.67893C267.344 5.86294 267.243 6.11059 267.243 6.36855V7.76655C266.32 7.9813 265.439 8.3488 264.637 8.85388L263.636 7.85285C263.452 7.67155 263.204 7.56992 262.945 7.56992C262.687 7.56992 262.439 7.67155 262.255 7.85285L260.978 9.1473C260.797 9.33135 260.695 9.57931 260.695 9.83766C260.695 10.096 260.797 10.344 260.978 10.528L261.962 11.5118C261.465 12.316 261.103 13.1965 260.892 14.118H259.476C259.22 14.118 258.974 14.2198 258.793 14.4011C258.612 14.5823 258.51 14.8282 258.51 15.0845V16.914C258.51 17.1719 258.611 17.4196 258.792 17.6036C258.973 17.7876 259.218 17.8932 259.476 17.8978H260.892C261.1 18.8147 261.462 19.6899 261.962 20.4867L260.978 21.4877C260.797 21.6717 260.695 21.9197 260.695 22.1781C260.695 22.4364 260.797 22.6844 260.978 22.8684L262.255 24.1629C262.439 24.3442 262.687 24.4458 262.945 24.4458C263.204 24.4458 263.452 24.3442 263.636 24.1629L264.637 23.1618C265.436 23.6688 266.318 24.031 267.243 24.2319V25.6472C267.243 25.9035 267.345 26.1494 267.526 26.3306C267.707 26.5119 267.953 26.6137 268.209 26.6137H270.039C270.295 26.6137 270.541 26.5119 270.722 26.3306C270.904 26.1494 271.005 25.9035 271.005 25.6472V24.1629C271.929 23.9586 272.811 23.5966 273.612 23.0928L274.613 24.0939C274.794 24.2741 275.039 24.3752 275.294 24.3752C275.55 24.3752 275.795 24.2741 275.976 24.0939L277.271 22.7994C277.452 22.6154 277.554 22.3674 277.554 22.109C277.554 21.8507 277.452 21.6027 277.271 21.4187L276.27 20.4176C276.775 19.6217 277.142 18.7466 277.357 17.8287H278.755C279.004 17.8293 279.245 17.7352 279.427 17.5654C279.61 17.3956 279.721 17.1628 279.739 16.914ZM269.556 20.1587C268.696 20.2653 267.825 20.1022 267.063 19.692C266.3 19.2818 265.684 18.6448 265.299 17.869C264.915 17.0932 264.781 16.2171 264.916 15.3619C265.051 14.5066 265.449 13.7145 266.054 13.0951C266.659 12.4757 267.441 12.0597 268.293 11.9046C269.145 11.7494 270.024 11.8629 270.809 12.2292C271.593 12.5956 272.244 13.1967 272.672 13.9494C273.1 14.7021 273.284 15.5692 273.197 16.4307C273.1 17.3718 272.687 18.2522 272.026 18.929C271.365 19.6058 270.494 20.0392 269.556 20.1587Z" fill="#263238"/>
<path d="M57.7149 137.764H45.9785V149.5H57.7149V137.764ZM48.3603 140.145H55.264V147.135H48.3603V140.145Z" fill="#263238"/>
<path d="M531.794 367.123H520.006V378.859H531.742L531.794 367.123ZM522.422 369.505H529.412V376.495H522.422V369.505Z" fill="#263238"/>
<path d="M355.715 30.9287H343.961V42.665H355.697L355.715 30.9287ZM346.343 33.2932H353.333V40.197H346.343V33.2932Z" fill="#263238"/>
<path d="M50.8115 325.183H39.0752V336.936H50.8115V325.183ZM41.4397 327.564H48.3434V334.468H41.4397V327.564Z" fill="#263238"/>
<path opacity="0.9" d="M393.495 112.186C392.098 112.182 390.732 112.593 389.569 113.367C388.406 114.14 387.498 115.242 386.961 116.531C386.424 117.821 386.282 119.241 386.552 120.611C386.823 121.982 387.494 123.241 388.48 124.23C389.467 125.219 390.725 125.893 392.094 126.167C393.464 126.441 394.885 126.302 396.175 125.768C397.466 125.234 398.57 124.329 399.346 123.168C400.123 122.007 400.537 120.642 400.537 119.245C400.537 117.375 399.796 115.583 398.476 114.259C397.156 112.936 395.364 112.19 393.495 112.186ZM393.495 123.473C392.659 123.473 391.841 123.225 391.146 122.761C390.451 122.296 389.909 121.635 389.589 120.863C389.269 120.09 389.185 119.24 389.348 118.42C389.511 117.599 389.914 116.846 390.505 116.255C391.097 115.663 391.85 115.26 392.67 115.097C393.491 114.934 394.341 115.018 395.113 115.338C395.886 115.658 396.547 116.2 397.011 116.895C397.476 117.591 397.724 118.408 397.724 119.245C397.706 120.354 397.252 121.412 396.461 122.19C395.67 122.968 394.605 123.404 393.495 123.404V123.473Z" fill="#263238"/>
<path d="M268.02 145.289L252.21 123.404C255.11 123.395 257.888 122.239 259.938 120.189C261.988 118.139 263.144 115.361 263.153 112.462V52.8828C263.139 49.9849 261.982 47.2096 259.933 45.1604C257.884 43.1113 255.108 41.954 252.21 41.9404H114.826C111.927 41.9495 109.149 43.1053 107.099 45.1554C105.049 47.2056 103.893 49.9835 103.884 52.8828V112.462C103.888 115.363 105.043 118.143 107.094 120.194C109.145 122.245 111.926 123.4 114.826 123.404H233.622L268.02 145.289Z" fill="#263238"/>
<path d="M149.535 80.2386C149.535 78.9141 149.142 77.6194 148.406 76.5182C147.67 75.4169 146.625 74.5586 145.401 74.0517C144.177 73.5449 142.831 73.4123 141.532 73.6707C140.233 73.9291 139.04 74.5669 138.103 75.5034C137.166 76.4399 136.529 77.6331 136.27 78.9322C136.012 80.2312 136.145 81.5776 136.651 82.8013C137.158 84.0249 138.017 85.0708 139.118 85.8066C140.219 86.5425 141.514 86.9352 142.838 86.9352C143.718 86.9352 144.588 86.762 145.401 86.4255C146.213 86.0889 146.952 85.5957 147.573 84.9738C148.195 84.352 148.689 83.6138 149.025 82.8013C149.362 81.9888 149.535 81.118 149.535 80.2386Z" fill="#9468B4"/>
<path d="M189.041 80.2386C189.041 78.9134 188.647 77.618 187.911 76.5164C187.174 75.4147 186.127 74.5564 184.903 74.0501C183.678 73.5438 182.331 73.4121 181.031 73.6719C179.732 73.9317 178.539 74.5712 177.603 75.5095C176.667 76.4478 176.03 77.6426 175.774 78.9427C175.518 80.2429 175.653 81.5899 176.162 82.8132C176.672 84.0366 177.533 85.0812 178.636 85.815C179.74 86.5488 181.036 86.9386 182.361 86.9352C183.24 86.9352 184.11 86.7619 184.921 86.4251C185.733 86.0884 186.47 85.5948 187.09 84.9728C187.711 84.3507 188.203 83.6123 188.537 82.8C188.872 81.9876 189.043 81.1172 189.041 80.2386Z" fill="#9468B4"/>
<path d="M228.565 80.2386C228.565 78.9141 228.172 77.6194 227.437 76.5182C226.701 75.4169 225.655 74.5586 224.431 74.0517C223.208 73.5449 221.861 73.4123 220.562 73.6707C219.263 73.9291 218.07 74.5669 217.133 75.5034C216.197 76.4399 215.559 77.6331 215.301 78.9322C215.042 80.2312 215.175 81.5776 215.682 82.8013C216.188 84.0249 217.047 85.0708 218.148 85.8066C219.249 86.5425 220.544 86.9352 221.868 86.9352C222.748 86.9352 223.619 86.762 224.431 86.4255C225.244 86.0889 225.982 85.5957 226.604 84.9738C227.226 84.352 227.719 83.6138 228.055 82.8013C228.392 81.9888 228.565 81.118 228.565 80.2386Z" fill="#9468B4"/>
</svg>
