<svg width="352" height="336" viewBox="0 0 352 336" fill="none" xmlns="http://www.w3.org/2000/svg">
<path d="M306.862 37.3861C306.862 37.3861 287.869 2.23957 247.168 0.191978C206.467 -1.85562 191.985 39.8181 162.33 55.8929C146.804 64.3186 115.408 50.213 98.8465 55.0377C45.8992 70.4849 27.0002 141.186 49.7826 178.521C69.4976 210.89 103.507 225.741 154.908 225.537C206.31 225.333 242.414 227.106 287.853 189.967C333.292 152.828 329.111 83.8218 306.862 37.3861Z" fill="#9468B4"/>
<path opacity="0.8" d="M306.862 37.3861C306.862 37.3861 287.869 2.23957 247.168 0.191978C206.467 -1.85562 191.985 39.8181 162.33 55.8929C146.804 64.3186 115.408 50.213 98.8465 55.0377C45.8992 70.4849 27.0002 141.186 49.7826 178.521C69.4976 210.89 103.507 225.741 154.908 225.537C206.31 225.333 242.414 227.106 287.853 189.967C333.292 152.828 329.111 83.8218 306.862 37.3861Z" fill="white"/>
<path d="M201.486 43.5059H179.276V48.6209H201.486V43.5059Z" fill="#9468B4"/>
<path d="M193.868 50.8955H179.276V56.0106H193.868V50.8955Z" fill="#9468B4"/>
<path d="M187.679 58.2861H179.276V63.4012H187.679V58.2861Z" fill="#9468B4"/>
<g opacity="0.2">
<path opacity="0.2" d="M201.486 43.5059H179.276V48.6209H201.486V43.5059Z" fill="black"/>
<path opacity="0.2" d="M193.869 50.8965H179.277V56.0115H193.869V50.8965Z" fill="black"/>
<path opacity="0.2" d="M187.68 58.2861H179.277V63.4012H187.68V58.2861Z" fill="black"/>
</g>
<path d="M140.709 100.149V115.549H148.24V100.149H140.709Z" fill="#9468B4"/>
<path d="M151.591 105.436V115.549H159.122V105.436H151.591Z" fill="#9468B4"/>
<path d="M162.463 109.719V115.54H169.994V109.719H162.463Z" fill="#9468B4"/>
<g opacity="0.2">
<path opacity="0.2" d="M140.71 100.149V115.549H148.241V100.149H140.71Z" fill="black"/>
<path opacity="0.2" d="M151.591 105.436V115.549H159.122V105.436H151.591Z" fill="black"/>
<path opacity="0.2" d="M162.466 109.719V115.54H169.997V109.719H162.466Z" fill="black"/>
</g>
<path d="M139.022 126.783H230.223C231.417 126.785 232.6 126.551 233.704 126.095C234.808 125.64 235.811 124.971 236.657 124.127C237.502 123.283 238.173 122.281 238.63 121.178C239.088 120.075 239.323 118.892 239.323 117.698V42.5408C239.323 41.3465 239.088 40.1638 238.63 39.0606C238.173 37.9574 237.502 36.9552 236.657 36.1114C235.811 35.2676 234.808 34.5987 233.704 34.1431C232.6 33.6875 231.417 33.454 230.223 33.4561H139.022C137.828 33.455 136.646 33.6892 135.542 34.1452C134.439 34.6012 133.436 35.2701 132.591 36.1137C131.746 36.9573 131.075 37.9591 130.617 39.0618C130.159 40.1646 129.923 41.3468 129.922 42.5408V117.698C129.923 118.892 130.159 120.074 130.617 121.177C131.075 122.28 131.746 123.281 132.591 124.125C133.436 124.969 134.439 125.637 135.542 126.093C136.646 126.549 137.828 126.784 139.022 126.783V126.783Z" stroke="#263238" stroke-width="1.0631" stroke-miterlimit="10"/>
<path d="M196.528 100.979H229.047" stroke="#263238" stroke-width="1.0631" stroke-miterlimit="10"/>
<path d="M196.528 104.455H229.047" stroke="#263238" stroke-width="1.0631" stroke-miterlimit="10"/>
<path d="M196.528 107.931H229.047" stroke="#263238" stroke-width="1.0631" stroke-miterlimit="10"/>
<path d="M196.528 111.414H229.047" stroke="#263238" stroke-width="1.0631" stroke-miterlimit="10"/>
<path d="M196.528 114.89H229.047" stroke="#263238" stroke-width="1.0631" stroke-miterlimit="10"/>
<path d="M139.712 44.2666H172.23" stroke="#263238" stroke-width="1.0631" stroke-miterlimit="10"/>
<path d="M139.712 47.7422H172.23" stroke="#263238" stroke-width="1.0631" stroke-miterlimit="10"/>
<path d="M139.712 51.2178H172.23" stroke="#263238" stroke-width="1.0631" stroke-miterlimit="10"/>
<path d="M139.712 54.6934H172.23" stroke="#263238" stroke-width="1.0631" stroke-miterlimit="10"/>
<path d="M139.712 58.1768H172.23" stroke="#263238" stroke-width="1.0631" stroke-miterlimit="10"/>
<path d="M224.974 71.6003L231.172 74.856L230.474 57.377L215.662 66.7206L221.86 69.9685L217.199 78.8414C216.375 78.8447 215.575 79.1205 214.924 79.6259L206.718 75.8132C206.718 74.8103 206.32 73.8485 205.611 73.1393C204.902 72.4302 203.94 72.0318 202.937 72.0318C201.934 72.0318 200.972 72.4302 200.263 73.1393C199.554 73.8485 199.156 74.8103 199.156 75.8132C199.155 76.3551 199.273 76.8905 199.501 77.3822L188.745 89.0402C188.402 88.9302 188.046 88.872 187.686 88.8676C187.504 88.8738 187.324 88.8922 187.145 88.9225L171.682 69.3801C171.904 68.8872 172.016 68.3518 172.011 67.8111C172.011 66.8082 171.613 65.8464 170.904 65.1372C170.194 64.4281 169.233 64.0297 168.23 64.0297C167.227 64.0297 166.265 64.4281 165.556 65.1372C164.847 65.8464 164.448 66.8082 164.448 67.8111C164.457 68.2005 164.523 68.5865 164.644 68.9565L146.985 86.9377C146.57 86.7859 146.132 86.7062 145.69 86.7023C144.944 86.7039 144.216 86.9265 143.596 87.3421C142.977 87.7577 142.494 88.3475 142.21 89.0372C141.925 89.7269 141.852 90.4853 141.998 91.2168C142.145 91.9483 142.505 92.6199 143.033 93.1469C143.561 93.6739 144.233 94.0325 144.965 94.1774C145.697 94.3224 146.455 94.2472 147.144 93.9614C147.833 93.6755 148.422 93.1919 148.836 92.5715C149.251 91.9511 149.472 91.2218 149.472 90.4758C149.47 90.1631 149.428 89.8519 149.346 89.5501L167.155 71.3649C167.503 71.4743 167.865 71.5325 168.23 71.5375C168.461 71.537 168.692 71.516 168.92 71.4748L184.305 90.9779C184.026 91.5345 183.89 92.1511 183.907 92.7731C183.924 93.3951 184.094 94.0033 184.403 94.5437C184.711 95.0841 185.148 95.54 185.675 95.871C186.202 96.202 186.803 96.3979 187.423 96.4412C188.044 96.4845 188.666 96.374 189.234 96.1195C189.802 95.8649 190.298 95.4742 190.678 94.9819C191.059 94.4896 191.312 93.911 191.416 93.2974C191.519 92.6838 191.469 92.0542 191.271 91.4643L202.301 79.5161C202.511 79.5533 202.724 79.5743 202.937 79.5789C203.686 79.5798 204.419 79.3557 205.039 78.9355L213.434 82.8581C213.466 83.4402 213.633 84.0068 213.921 84.5136C214.209 85.0204 214.61 85.4537 215.093 85.7793C215.577 86.105 216.129 86.3142 216.707 86.3906C217.285 86.4669 217.873 86.4084 218.424 86.2196C218.976 86.0307 219.476 85.7167 219.886 85.302C220.295 84.8874 220.603 84.3835 220.786 83.8299C220.968 83.2762 221.02 82.6879 220.936 82.1109C220.853 81.534 220.637 80.9842 220.306 80.5046L224.974 71.6003Z" fill="#263238"/>
<path d="M109.078 88.7727L98.4715 72.1958L80.9453 85.0855L64.7842 53.1006L22.1377 80.2136V102.117H118.304V83.7047L109.078 88.7727Z" fill="#263238" stroke="#263238" stroke-width="1.16063" stroke-linecap="round" stroke-linejoin="round"/>
<path d="M110.922 101.2L99.3972 83.705L80.0274 91.5345L57.4254 69.8975L22.1377 84.1443V115.933H118.304V96.1318L110.922 101.2Z" fill="#9468B4" stroke="#263238" stroke-width="0.876601" stroke-miterlimit="10"/>
<path opacity="0.2" d="M110.922 101.2L99.3972 83.705L80.0274 91.5345L57.4254 69.8975L22.1377 84.1443V115.933H118.304V96.1318L110.922 101.2Z" fill="black"/>
<path d="M110.922 101.2L99.3972 83.705L80.0274 91.5345L57.4254 69.8975L22.1377 84.1443V115.933H118.304V96.1318L110.922 101.2Z" stroke="#263238" stroke-width="0.876601" stroke-miterlimit="10"/>
<path d="M76.779 44.9883H69.0357C68.5623 44.9848 68.1016 45.1418 67.7288 45.4337C67.356 45.7257 67.0931 46.1353 66.9829 46.5958C66.8728 47.0563 66.922 47.5405 67.1224 47.9695C67.3228 48.3985 67.6626 48.747 68.0865 48.958L65.3799 51.8372L70.3145 49.1934H76.779C77.3366 49.1934 77.8714 48.9719 78.2657 48.5776C78.66 48.1833 78.8815 47.6485 78.8815 47.0909C78.8815 46.5332 78.66 45.9985 78.2657 45.6042C77.8714 45.2099 77.3366 44.9883 76.779 44.9883Z" fill="#9468B4"/>
<path opacity="0.2" d="M76.779 44.9883H69.0357C68.5623 44.9848 68.1016 45.1418 67.7288 45.4337C67.356 45.7257 67.0931 46.1353 66.9829 46.5958C66.8728 47.0563 66.922 47.5405 67.1224 47.9695C67.3228 48.3985 67.6626 48.747 68.0865 48.958L65.3799 51.8372L70.3145 49.1934H76.779C77.3366 49.1934 77.8714 48.9719 78.2657 48.5776C78.66 48.1833 78.8815 47.6485 78.8815 47.0909C78.8815 46.5332 78.66 45.9985 78.2657 45.6042C77.8714 45.2099 77.3366 44.9883 76.779 44.9883Z" fill="black"/>
<path d="M110.695 63.7071H102.952C102.478 63.7036 102.018 63.8606 101.645 64.1525C101.272 64.4444 101.009 64.854 100.899 65.3145C100.789 65.775 100.838 66.2593 101.038 66.6883C101.239 67.1173 101.579 67.4657 102.003 67.6768L99.2959 70.5795L104.231 67.9278H110.695C111.253 67.9278 111.787 67.7063 112.182 67.312C112.576 66.9177 112.797 66.3829 112.797 65.8253C112.797 65.2677 112.576 64.7329 112.182 64.3386C111.787 63.9443 111.253 63.7228 110.695 63.7228V63.7071Z" fill="#9468B4"/>
<path opacity="0.2" d="M110.695 63.7071H102.952C102.478 63.7036 102.018 63.8606 101.645 64.1525C101.272 64.4444 101.009 64.854 100.899 65.3145C100.789 65.775 100.838 66.2593 101.038 66.6883C101.239 67.1173 101.579 67.4657 102.003 67.6768L99.2959 70.5795L104.231 67.9278H110.695C111.253 67.9278 111.787 67.7063 112.182 67.312C112.576 66.9177 112.797 66.3829 112.797 65.8253C112.797 65.2677 112.576 64.7329 112.182 64.3386C111.787 63.9443 111.253 63.7228 110.695 63.7228V63.7071Z" fill="black"/>
<path d="M26.0213 126.783H117.222C118.416 126.785 119.599 126.551 120.703 126.095C121.807 125.64 122.811 124.971 123.656 124.127C124.501 123.283 125.172 122.281 125.629 121.178C126.087 120.075 126.322 118.892 126.322 117.698V42.5408C126.322 41.3465 126.087 40.1638 125.629 39.0606C125.172 37.9574 124.501 36.9552 123.656 36.1114C122.811 35.2676 121.807 34.5987 120.703 34.1431C119.599 33.6875 118.416 33.454 117.222 33.4561H26.0213C24.827 33.454 23.644 33.6875 22.5399 34.1431C21.4359 34.5987 20.4326 35.2676 19.5873 36.1114C18.742 36.9552 18.0715 37.9574 17.6139 39.0606C17.1564 40.1638 16.9209 41.3465 16.9209 42.5408V117.698C16.9209 118.892 17.1564 120.075 17.6139 121.178C18.0715 122.281 18.742 123.283 19.5873 124.127C20.4326 124.971 21.4359 125.64 22.5399 126.095C23.644 126.551 24.827 126.785 26.0213 126.783V126.783Z" stroke="#263238" stroke-width="1.0631" stroke-miterlimit="10"/>
<path d="M23.8477 43.6006H30.1317" stroke="#263238" stroke-width="1.0631" stroke-miterlimit="10"/>
<path d="M23.8477 50.4414H30.1317" stroke="#263238" stroke-width="1.0631" stroke-miterlimit="10"/>
<path d="M23.8477 57.2822H30.1317" stroke="#263238" stroke-width="1.0631" stroke-miterlimit="10"/>
<path d="M23.8477 64.123H30.1317" stroke="#263238" stroke-width="1.0631" stroke-miterlimit="10"/>
<path d="M23.8477 70.9639H30.1317" stroke="#263238" stroke-width="1.0631" stroke-miterlimit="10"/>
<path d="M270.65 52.873C266.565 52.8793 262.573 54.0965 259.179 56.3708C255.784 58.6452 253.141 61.8747 251.582 65.6511C250.022 69.4276 249.618 73.5815 250.418 77.5879C251.219 81.5943 253.19 85.2734 256.081 88.1602C258.972 91.047 262.654 93.0119 266.662 93.8067C270.67 94.6015 274.823 94.1905 278.597 92.6255C282.371 91.0606 285.596 88.412 287.866 85.0145C290.135 81.6169 291.346 77.623 291.346 73.5373C291.338 68.0539 289.154 62.798 285.273 58.9236C281.393 55.0492 276.134 52.873 270.65 52.873ZM270.65 88.1294C267.765 88.1185 264.947 87.2528 262.553 85.6416C260.159 84.0304 258.297 81.746 257.2 79.0768C256.104 76.4076 255.823 73.4734 256.393 70.6448C256.963 67.8161 258.359 65.2198 260.404 63.1837C262.449 61.1477 265.051 59.7633 267.882 59.2052C270.713 58.6472 273.646 58.9407 276.311 60.0485C278.975 61.1563 281.251 63.0289 282.852 65.4296C284.453 67.8304 285.307 70.6517 285.305 73.5373C285.301 75.4577 284.919 77.3584 284.18 79.1311C283.441 80.9037 282.361 82.5134 281 83.8684C279.639 85.2234 278.025 86.2971 276.249 87.0282C274.473 87.7593 272.571 88.1335 270.65 88.1294Z" fill="#9468B4" stroke="#263238" stroke-width="1.0631" stroke-miterlimit="10"/>
<g opacity="0.2">
<path opacity="0.2" d="M270.65 52.873C266.565 52.8793 262.573 54.0965 259.179 56.3708C255.784 58.6452 253.141 61.8747 251.582 65.6511C250.022 69.4276 249.618 73.5815 250.418 77.5879C251.219 81.5943 253.19 85.2734 256.081 88.1602C258.972 91.047 262.654 93.0119 266.662 93.8067C270.67 94.6015 274.823 94.1905 278.597 92.6255C282.371 91.0606 285.596 88.412 287.866 85.0145C290.135 81.6169 291.346 77.623 291.346 73.5373C291.338 68.0539 289.154 62.798 285.273 58.9236C281.393 55.0492 276.134 52.873 270.65 52.873ZM270.65 88.1294C267.765 88.1185 264.947 87.2528 262.553 85.6416C260.159 84.0304 258.297 81.746 257.2 79.0768C256.104 76.4076 255.823 73.4734 256.393 70.6448C256.963 67.8161 258.359 65.2198 260.404 63.1837C262.449 61.1477 265.051 59.7633 267.882 59.2052C270.713 58.6472 273.646 58.9407 276.311 60.0485C278.975 61.1563 281.251 63.0289 282.852 65.4296C284.453 67.8304 285.307 70.6517 285.305 73.5373C285.301 75.4577 284.919 77.3584 284.18 79.1311C283.441 80.9037 282.361 82.5134 281 83.8684C279.639 85.2234 278.025 86.2971 276.249 87.0282C274.473 87.7593 272.571 88.1335 270.65 88.1294Z" fill="black"/>
</g>
<path d="M270.65 52.873C266.565 52.8793 262.573 54.0965 259.179 56.3708C255.784 58.6452 253.141 61.8747 251.582 65.6511C250.022 69.4276 249.618 73.5815 250.418 77.5879C251.219 81.5943 253.19 85.2734 256.081 88.1602C258.972 91.047 262.654 93.0119 266.662 93.8067C270.67 94.6015 274.823 94.1905 278.597 92.6255C282.371 91.0606 285.596 88.412 287.866 85.0145C290.135 81.6169 291.346 77.623 291.346 73.5373C291.338 68.0539 289.154 62.798 285.273 58.9236C281.393 55.0492 276.134 52.873 270.65 52.873V52.873ZM270.65 88.1294C267.765 88.1185 264.947 87.2528 262.553 85.6416C260.159 84.0304 258.297 81.746 257.2 79.0768C256.104 76.4077 255.823 73.4734 256.393 70.6448C256.963 67.8161 258.359 65.2198 260.404 63.1837C262.449 61.1477 265.051 59.7633 267.882 59.2052C270.713 58.6472 273.646 58.9407 276.311 60.0485C278.975 61.1563 281.251 63.0289 282.852 65.4296C284.453 67.8304 285.307 70.6517 285.305 73.5373C285.301 75.4577 284.919 77.3584 284.18 79.1311C283.441 80.9037 282.361 82.5134 281 83.8684C279.639 85.2234 278.025 86.2971 276.249 87.0282C274.473 87.7593 272.571 88.1335 270.65 88.1294V88.1294Z" stroke="#263238" stroke-width="1.0631" stroke-miterlimit="10"/>
<path d="M270.651 52.8731C267.858 52.8618 265.093 53.4201 262.523 54.5141C259.953 55.6081 257.634 57.2146 255.706 59.2355L260.092 63.4327C261.761 61.685 263.837 60.3787 266.135 59.6309C268.433 58.883 270.881 58.717 273.259 59.1477C275.637 59.5784 277.871 60.5923 279.761 62.0987C281.65 63.605 283.137 65.5566 284.087 67.7787C285.037 70.0007 285.421 72.4238 285.205 74.8307C284.988 77.2377 284.178 79.5533 282.846 81.5701C281.515 83.5868 279.704 85.2417 277.575 86.3865C275.447 87.5313 273.068 88.1301 270.651 88.1294V94.1937C273.398 94.2472 276.128 93.7524 278.682 92.7382C281.235 91.7239 283.561 90.2107 285.523 88.2869C287.484 86.3631 289.043 84.0674 290.106 81.5342C291.17 79.0009 291.718 76.2809 291.718 73.5334C291.718 70.7858 291.17 68.0659 290.106 65.5326C289.043 62.9994 287.484 60.7037 285.523 58.7799C283.561 56.8561 281.235 55.3428 278.682 54.3286C276.128 53.3144 273.398 52.8195 270.651 52.8731Z" fill="#263238" stroke="#263238" stroke-width="1.0631" stroke-linecap="round" stroke-linejoin="round"/>
<path d="M321.691 52.873C317.606 52.8793 313.614 54.0965 310.22 56.3708C306.826 58.6452 304.182 61.8747 302.623 65.6511C301.063 69.4276 300.659 73.5815 301.459 77.5879C302.26 81.5943 304.231 85.2734 307.122 88.1602C310.013 91.047 313.695 93.0119 317.703 93.8067C321.711 94.6015 325.864 94.1905 329.638 92.6255C333.412 91.0606 336.637 88.412 338.907 85.0145C341.176 81.6169 342.387 77.623 342.387 73.5373C342.379 68.0539 340.195 62.798 336.314 58.9236C332.434 55.0492 327.175 52.873 321.691 52.873ZM321.691 88.1294C318.804 88.1278 315.982 87.27 313.582 85.6645C311.181 84.0589 309.311 81.7777 308.208 79.1093C307.104 76.441 306.817 73.5053 307.381 70.6735C307.946 67.8417 309.338 65.2409 311.381 63.2002C313.424 61.1595 316.026 59.7704 318.859 59.2085C321.691 58.6467 324.627 58.9374 327.294 60.0439C329.961 61.1504 332.24 63.0229 333.843 65.4247C335.446 67.8265 336.301 70.6497 336.299 73.5373C336.289 77.4069 334.746 81.1148 332.008 83.8495C329.271 86.5843 325.561 88.1231 321.691 88.1294Z" fill="#9468B4" stroke="#263238" stroke-width="1.0631" stroke-miterlimit="10"/>
<g opacity="0.2">
<path opacity="0.2" d="M321.691 52.873C317.606 52.8793 313.614 54.0965 310.22 56.3708C306.826 58.6452 304.182 61.8747 302.623 65.6511C301.063 69.4276 300.659 73.5815 301.459 77.5879C302.26 81.5943 304.231 85.2734 307.122 88.1602C310.013 91.047 313.695 93.0119 317.703 93.8067C321.711 94.6015 325.864 94.1905 329.638 92.6255C333.412 91.0606 336.637 88.412 338.907 85.0145C341.176 81.6169 342.387 77.623 342.387 73.5373C342.379 68.0539 340.195 62.798 336.314 58.9236C332.434 55.0492 327.175 52.873 321.691 52.873ZM321.691 88.1294C318.804 88.1278 315.982 87.27 313.582 85.6645C311.181 84.0589 309.311 81.7777 308.208 79.1093C307.104 76.441 306.817 73.5053 307.381 70.6735C307.946 67.8417 309.338 65.2409 311.381 63.2002C313.424 61.1595 316.026 59.7704 318.859 59.2085C321.691 58.6467 324.627 58.9374 327.294 60.0439C329.961 61.1504 332.24 63.0229 333.843 65.4247C335.446 67.8265 336.301 70.6497 336.299 73.5373C336.289 77.4069 334.746 81.1148 332.008 83.8495C329.271 86.5843 325.561 88.1231 321.691 88.1294Z" fill="black"/>
</g>
<path d="M321.691 52.873C317.606 52.8793 313.614 54.0965 310.22 56.3708C306.826 58.6452 304.182 61.8747 302.623 65.6511C301.063 69.4276 300.659 73.5815 301.459 77.5879C302.26 81.5943 304.231 85.2734 307.122 88.1602C310.013 91.047 313.695 93.0119 317.703 93.8067C321.711 94.6015 325.864 94.1905 329.638 92.6255C333.412 91.0606 336.637 88.412 338.907 85.0145C341.176 81.6169 342.387 77.623 342.387 73.5373C342.379 68.0539 340.195 62.798 336.314 58.9236C332.434 55.0492 327.175 52.873 321.691 52.873V52.873ZM321.691 88.1294C318.804 88.1278 315.982 87.27 313.582 85.6645C311.181 84.0589 309.311 81.7777 308.208 79.1093C307.104 76.441 306.817 73.5053 307.381 70.6735C307.946 67.8417 309.338 65.2409 311.381 63.2002C313.424 61.1595 316.026 59.7704 318.859 59.2085C321.691 58.6467 324.627 58.9374 327.294 60.0439C329.961 61.1504 332.24 63.0229 333.843 65.4247C335.446 67.8265 336.301 70.6497 336.299 73.5373C336.289 77.4069 334.746 81.1148 332.008 83.8495C329.271 86.5843 325.561 88.1231 321.691 88.1294V88.1294Z" stroke="#263238" stroke-width="1.0631" stroke-miterlimit="10"/>
<path d="M329.748 54.4971L327.395 60.0829C330.498 61.3953 333.051 63.7405 334.623 66.7209C336.194 69.7013 336.686 73.1333 336.015 76.4351C335.345 79.7369 333.553 82.7052 330.944 84.8366C328.335 86.968 325.068 88.1314 321.699 88.1294V94.1938C326.473 94.2047 331.102 92.5623 334.801 89.5455C338.501 86.5288 341.041 82.3241 341.99 77.6462C342.94 72.9682 342.24 68.1058 340.01 63.8856C337.779 59.6654 334.156 56.3479 329.756 54.4971H329.748Z" fill="#263238" stroke="#263238" stroke-width="1.0631" stroke-linecap="round" stroke-linejoin="round"/>
<path d="M339.689 33.4561H254.411C252.927 33.455 251.457 33.7464 250.085 34.3136C248.713 34.8808 247.466 35.7126 246.415 36.7616C245.365 37.8107 244.531 39.0563 243.962 40.4275C243.393 41.7987 243.1 43.2686 243.099 44.7531V115.493C243.103 118.49 244.297 121.363 246.418 123.48C248.539 125.597 251.414 126.785 254.411 126.783H339.689C341.173 126.785 342.643 126.494 344.015 125.928C345.387 125.362 346.634 124.53 347.684 123.482C348.735 122.434 349.569 121.188 350.138 119.818C350.707 118.447 351 116.977 351.001 115.493V44.7531C351 43.2686 350.707 41.7987 350.138 40.4275C349.569 39.0563 348.735 37.8107 347.685 36.7616C346.634 35.7126 345.387 34.8808 344.015 34.3136C342.644 33.7464 341.173 33.455 339.689 33.4561V33.4561Z" stroke="#263238" stroke-width="1.0631" stroke-miterlimit="10"/>
<path d="M252.264 100.979H284.774" stroke="#263238" stroke-width="1.0631" stroke-miterlimit="10"/>
<path d="M252.264 104.455H284.774" stroke="#263238" stroke-width="1.0631" stroke-miterlimit="10"/>
<path d="M252.264 107.931H284.774" stroke="#263238" stroke-width="1.0631" stroke-miterlimit="10"/>
<path d="M252.264 111.414H284.774" stroke="#263238" stroke-width="1.0631" stroke-miterlimit="10"/>
<path d="M252.264 114.89H284.774" stroke="#263238" stroke-width="1.0631" stroke-miterlimit="10"/>
<path d="M305.956 100.979H338.474" stroke="#263238" stroke-width="1.0631" stroke-miterlimit="10"/>
<path d="M305.956 104.455H338.474" stroke="#263238" stroke-width="1.0631" stroke-miterlimit="10"/>
<path d="M305.956 107.931H338.474" stroke="#263238" stroke-width="1.0631" stroke-miterlimit="10"/>
<path d="M305.956 111.414H338.474" stroke="#263238" stroke-width="1.0631" stroke-miterlimit="10"/>
<path d="M305.956 114.89H338.474" stroke="#263238" stroke-width="1.0631" stroke-miterlimit="10"/>
<path d="M279.706 43.0352H312.217" stroke="#263238" stroke-width="1.0631" stroke-miterlimit="10"/>
<path d="M279.706 46.5186H312.217" stroke="#263238" stroke-width="1.0631" stroke-miterlimit="10"/>
<path d="M242.752 257.561H338.997C342.177 257.564 345.228 256.303 347.478 254.056C349.729 251.81 350.996 248.762 351 245.582V144.214C350.999 142.639 350.688 141.079 350.084 139.624C349.48 138.169 348.596 136.848 347.481 135.734C346.367 134.621 345.044 133.739 343.588 133.137C342.132 132.535 340.572 132.226 338.997 132.227H196.842C195.267 132.226 193.707 132.535 192.251 133.137C190.795 133.739 189.472 134.621 188.358 135.734C187.243 136.848 186.359 138.169 185.755 139.624C185.151 141.079 184.84 142.639 184.839 144.214V211.008" stroke="#263238" stroke-width="1.0631" stroke-miterlimit="10"/>
<path d="M231.394 191.341H208.502V224.612H231.394V191.341Z" fill="#9468B4" stroke="#263238" stroke-width="1.16063" stroke-miterlimit="10"/>
<path opacity="0.2" d="M231.394 191.341H208.502V224.612H231.394V191.341Z" fill="black"/>
<path d="M231.394 191.341H208.502V224.612H231.394V191.341Z" stroke="#263238" stroke-width="1.16063" stroke-miterlimit="10"/>
<path d="M263.181 174.7H240.289V211.533H263.181V174.7Z" fill="#9468B4" stroke="#263238" stroke-width="1.16063" stroke-miterlimit="10"/>
<path opacity="0.2" d="M263.181 174.7H240.289V211.533H263.181V174.7Z" fill="black"/>
<path d="M263.181 174.7H240.289V211.533H263.181V174.7Z" stroke="#263238" stroke-width="1.16063" stroke-miterlimit="10"/>
<path d="M294.97 161.042H272.078V185.401H294.97V161.042Z" fill="#9468B4" stroke="#263238" stroke-width="1.16063" stroke-miterlimit="10"/>
<path opacity="0.2" d="M294.97 161.042H272.078V185.401H294.97V161.042Z" fill="black"/>
<path d="M294.97 161.042H272.078V185.401H294.97V161.042Z" stroke="#263238" stroke-width="1.16063" stroke-miterlimit="10"/>
<path d="M231.394 224.604H208.502V238.271H231.394V224.604Z" fill="#263238" stroke="#263238" stroke-width="1.16063" stroke-linecap="round" stroke-linejoin="round"/>
<path d="M263.181 211.533H240.289V238.27H263.181V211.533Z" fill="#263238" stroke="#263238" stroke-width="1.16063" stroke-linecap="round" stroke-linejoin="round"/>
<path d="M324.885 174.701H301.993V211.534H324.885V174.701Z" fill="#9468B4" stroke="#263238" stroke-width="1.16063" stroke-miterlimit="10"/>
<path opacity="0.2" d="M324.885 174.701H301.993V211.534H324.885V174.701Z" fill="black"/>
<path d="M324.885 174.701H301.993V211.534H324.885V174.701Z" stroke="#263238" stroke-width="1.16063" stroke-miterlimit="10"/>
<path d="M324.885 211.534H301.993V238.271H324.885V211.534Z" fill="#263238" stroke="#263238" stroke-width="1.16063" stroke-linecap="round" stroke-linejoin="round"/>
<path d="M294.97 185.394H272.078V238.27H294.97V185.394Z" fill="#263238" stroke="#263238" stroke-width="1.16063" stroke-linecap="round" stroke-linejoin="round"/>
<path d="M259.212 161.089H244.926C244.271 161.089 243.642 161.349 243.179 161.813C242.715 162.276 242.455 162.905 242.455 163.56V166.847C242.455 167.503 242.715 168.131 243.179 168.595C243.642 169.058 244.271 169.318 244.926 169.318H250.222L252.073 172.519L253.917 169.318H259.212C259.868 169.318 260.496 169.058 260.96 168.595C261.423 168.131 261.684 167.503 261.684 166.847V163.56C261.684 162.905 261.423 162.276 260.96 161.813C260.496 161.349 259.868 161.089 259.212 161.089Z" fill="#9468B4"/>
<path opacity="0.5" d="M259.212 161.089H244.926C244.271 161.089 243.642 161.349 243.179 161.813C242.715 162.276 242.455 162.905 242.455 163.56V166.847C242.455 167.503 242.715 168.131 243.179 168.595C243.642 169.058 244.271 169.318 244.926 169.318H250.222L252.073 172.519L253.917 169.318H259.212C259.868 169.318 260.496 169.058 260.96 168.595C261.423 168.131 261.684 167.503 261.684 166.847V163.56C261.684 162.905 261.423 162.276 260.96 161.813C260.496 161.349 259.868 161.089 259.212 161.089Z" fill="white"/>
<path d="M259.212 161.089H244.926C244.271 161.089 243.642 161.349 243.179 161.813C242.715 162.276 242.455 162.905 242.455 163.56V166.847C242.455 167.503 242.715 168.131 243.179 168.595C243.642 169.058 244.271 169.318 244.926 169.318H250.222L252.073 172.519L253.917 169.318H259.212C259.868 169.318 260.496 169.058 260.96 168.595C261.423 168.131 261.684 167.503 261.684 166.847V163.56C261.684 162.905 261.423 162.276 260.96 161.813C260.496 161.349 259.868 161.089 259.212 161.089V161.089Z" stroke="#263238" stroke-width="1.16689" stroke-linecap="round" stroke-linejoin="round"/>
<path d="M227.085 178.152H212.807C212.153 178.152 211.526 178.412 211.063 178.873C210.599 179.335 210.338 179.962 210.336 180.616V183.911C210.338 184.565 210.599 185.191 211.063 185.653C211.526 186.115 212.153 186.374 212.807 186.374H218.095L219.946 189.575L221.798 186.374H227.085C227.739 186.374 228.367 186.115 228.83 185.653C229.293 185.191 229.555 184.565 229.557 183.911V180.616C229.555 179.962 229.293 179.335 228.83 178.873C228.367 178.412 227.739 178.152 227.085 178.152Z" fill="#9468B4"/>
<path opacity="0.5" d="M227.085 178.152H212.807C212.153 178.152 211.526 178.412 211.063 178.873C210.599 179.335 210.338 179.962 210.336 180.616V183.911C210.338 184.565 210.599 185.191 211.063 185.653C211.526 186.115 212.153 186.374 212.807 186.374H218.095L219.946 189.575L221.798 186.374H227.085C227.739 186.374 228.367 186.115 228.83 185.653C229.293 185.191 229.555 184.565 229.557 183.911V180.616C229.555 179.962 229.293 179.335 228.83 178.873C228.367 178.412 227.739 178.152 227.085 178.152Z" fill="white"/>
<path d="M227.085 178.152H212.807C212.153 178.152 211.526 178.412 211.063 178.873C210.599 179.335 210.338 179.962 210.336 180.616V183.911C210.338 184.565 210.599 185.191 211.063 185.653C211.526 186.115 212.153 186.374 212.807 186.374H218.095L219.946 189.575L221.798 186.374H227.085C227.739 186.374 228.367 186.115 228.83 185.653C229.293 185.191 229.555 184.565 229.557 183.911V180.616C229.555 179.962 229.293 179.335 228.83 178.873C228.367 178.412 227.739 178.152 227.085 178.152V178.152Z" stroke="#263238" stroke-width="1.16689" stroke-linecap="round" stroke-linejoin="round"/>
<path d="M290.521 147.384H276.235C275.579 147.384 274.951 147.644 274.487 148.108C274.024 148.571 273.764 149.2 273.764 149.855V153.142C273.764 153.466 273.828 153.787 273.952 154.087C274.076 154.386 274.258 154.658 274.488 154.887C274.718 155.116 274.99 155.297 275.29 155.42C275.59 155.544 275.911 155.607 276.235 155.606H281.53L283.374 158.806L285.225 155.606H290.521C290.845 155.607 291.166 155.544 291.466 155.42C291.766 155.297 292.038 155.116 292.268 154.887C292.498 154.658 292.68 154.386 292.804 154.087C292.928 153.787 292.992 153.466 292.992 153.142V149.855C292.992 149.2 292.732 148.571 292.268 148.108C291.805 147.644 291.176 147.384 290.521 147.384Z" fill="#9468B4"/>
<path opacity="0.5" d="M290.521 147.384H276.235C275.579 147.384 274.951 147.644 274.487 148.108C274.024 148.571 273.764 149.2 273.764 149.855V153.142C273.764 153.466 273.828 153.787 273.952 154.087C274.076 154.386 274.258 154.658 274.488 154.887C274.718 155.116 274.99 155.297 275.29 155.42C275.59 155.544 275.911 155.607 276.235 155.606H281.53L283.374 158.806L285.225 155.606H290.521C290.845 155.607 291.166 155.544 291.466 155.42C291.766 155.297 292.038 155.116 292.268 154.887C292.498 154.658 292.68 154.386 292.804 154.087C292.928 153.787 292.992 153.466 292.992 153.142V149.855C292.992 149.2 292.732 148.571 292.268 148.108C291.805 147.644 291.176 147.384 290.521 147.384Z" fill="white"/>
<path d="M290.521 147.384H276.235C275.579 147.384 274.951 147.644 274.487 148.108C274.024 148.571 273.764 149.2 273.764 149.855V153.142C273.764 153.466 273.828 153.787 273.952 154.087C274.076 154.386 274.258 154.658 274.488 154.887C274.718 155.116 274.99 155.297 275.29 155.42C275.59 155.544 275.911 155.607 276.235 155.606H281.53L283.374 158.806L285.225 155.606H290.521C290.845 155.607 291.166 155.544 291.466 155.42C291.766 155.297 292.038 155.116 292.268 154.887C292.498 154.658 292.68 154.386 292.804 154.087C292.928 153.787 292.992 153.466 292.992 153.142V149.855C292.992 149.2 292.732 148.571 292.268 148.108C291.805 147.644 291.176 147.384 290.521 147.384V147.384Z" stroke="#263238" stroke-width="1.16689" stroke-linecap="round" stroke-linejoin="round"/>
<path d="M320.609 160.877H306.331C305.675 160.877 305.047 161.137 304.583 161.601C304.12 162.064 303.859 162.693 303.859 163.348V166.635C303.859 166.959 303.923 167.28 304.048 167.58C304.172 167.879 304.354 168.151 304.584 168.38C304.813 168.609 305.086 168.79 305.386 168.913C305.685 169.037 306.006 169.1 306.331 169.099H311.618L313.47 172.3L315.321 169.099H320.609C320.933 169.1 321.255 169.037 321.555 168.914C321.855 168.79 322.128 168.609 322.359 168.38C322.589 168.152 322.772 167.88 322.897 167.58C323.022 167.281 323.087 166.96 323.088 166.635V163.348C323.086 162.692 322.824 162.064 322.359 161.6C321.894 161.137 321.265 160.877 320.609 160.877Z" fill="#9468B4"/>
<path opacity="0.5" d="M320.609 160.877H306.331C305.675 160.877 305.047 161.137 304.583 161.601C304.12 162.064 303.859 162.693 303.859 163.348V166.635C303.859 166.959 303.923 167.28 304.048 167.58C304.172 167.879 304.354 168.151 304.584 168.38C304.813 168.609 305.086 168.79 305.386 168.913C305.685 169.037 306.006 169.1 306.331 169.099H311.618L313.47 172.3L315.321 169.099H320.609C320.933 169.1 321.255 169.037 321.555 168.914C321.855 168.79 322.128 168.609 322.359 168.38C322.589 168.152 322.772 167.88 322.897 167.58C323.022 167.281 323.087 166.96 323.088 166.635V163.348C323.086 162.692 322.824 162.064 322.359 161.6C321.894 161.137 321.265 160.877 320.609 160.877Z" fill="white"/>
<path d="M320.609 160.877H306.331C305.675 160.877 305.047 161.137 304.583 161.601C304.12 162.064 303.859 162.693 303.859 163.348V166.635C303.859 166.959 303.923 167.28 304.048 167.58C304.172 167.879 304.354 168.151 304.584 168.38C304.813 168.609 305.086 168.79 305.386 168.913C305.685 169.037 306.006 169.1 306.331 169.099H311.618L313.47 172.3L315.321 169.099H320.609C320.933 169.1 321.255 169.037 321.555 168.914C321.855 168.79 322.128 168.609 322.359 168.38C322.589 168.152 322.772 167.88 322.897 167.58C323.022 167.281 323.087 166.96 323.088 166.635V163.348C323.086 162.692 322.824 162.064 322.359 161.6C321.894 161.137 321.265 160.877 320.609 160.877V160.877Z" stroke="#263238" stroke-width="1.16689" stroke-linecap="round" stroke-linejoin="round"/>
<path d="M209.277 142.708H241.796" stroke="#263238" stroke-width="1.0631" stroke-miterlimit="10"/>
<path d="M209.277 146.183H241.796" stroke="#263238" stroke-width="1.0631" stroke-miterlimit="10"/>
<path d="M209.277 149.666H241.796" stroke="#263238" stroke-width="1.0631" stroke-miterlimit="10"/>
<path d="M209.277 153.142H241.796" stroke="#263238" stroke-width="1.0631" stroke-miterlimit="10"/>
<path d="M209.277 156.617H241.796" stroke="#263238" stroke-width="1.0631" stroke-miterlimit="10"/>
<path d="M34.7915 198.165C34.36 198.683 33.9207 199.232 33.45 199.86C27.6132 207.705 30.6571 224.18 27.1111 230.26C23.565 236.34 14.6843 234.598 12.9113 244.154C11.1382 253.709 12.1267 263.688 10.6283 268.474C9.12987 273.259 3.27735 276.319 2.25748 281.936C1.2376 287.553 0.931641 291.625 0.931641 291.625L34.7915 290.511V198.165Z" fill="#9468B4"/>
<path opacity="0.7" d="M34.7915 198.165C34.36 198.683 33.9207 199.232 33.45 199.86C27.6132 207.705 30.6571 224.18 27.1111 230.26C23.565 236.34 14.6843 234.598 12.9113 244.154C11.1382 253.709 12.1267 263.688 10.6283 268.474C9.12987 273.259 3.27735 276.319 2.25748 281.936C1.2376 287.553 0.931641 291.625 0.931641 291.625L34.7915 290.511V198.165Z" fill="white"/>
<path d="M155.2 290.864L120.43 294.881L131.107 304.766L155.082 302.687" fill="#263238"/>
<path d="M155.2 290.864L120.43 294.881L131.107 304.766L155.082 302.687" stroke="#263238" stroke-width="0.969857" stroke-linecap="round" stroke-linejoin="round"/>
<path d="M131.765 296.457L154.037 294.025" stroke="white" stroke-width="0.484928" stroke-linecap="round" stroke-linejoin="round"/>
<path d="M133.508 298.89L153.694 297.156" stroke="white" stroke-width="0.484928" stroke-linecap="round" stroke-linejoin="round"/>
<path d="M135.595 300.977L154.039 299.235" stroke="white" stroke-width="0.484928" stroke-linecap="round" stroke-linejoin="round"/>
<path d="M133.985 295.029L140.332 301.949" stroke="white" stroke-width="0.484928" stroke-linecap="round" stroke-linejoin="round"/>
<path d="M138.686 294.803L144.993 301.322" stroke="white" stroke-width="0.484928" stroke-linecap="round" stroke-linejoin="round"/>
<path d="M143.564 294.104L149.864 300.624" stroke="white" stroke-width="0.484928" stroke-linecap="round" stroke-linejoin="round"/>
<path d="M148.782 293.759L154.039 299.235" stroke="white" stroke-width="0.484928" stroke-linecap="round" stroke-linejoin="round"/>
<path d="M119.644 208.537C118.499 208.05 113.195 187.409 113.195 187.409L110.465 179.627C110.465 179.627 106.362 165.623 104.793 163.019C103.224 160.414 96.948 158.312 96.948 158.312L94.5944 157.017L84.3956 151.526V151.58L82.9286 148.513L65.371 134.392C65.371 134.392 65.6849 137.796 66.1556 141.154C66.1085 141.154 62.4997 143.508 61.2131 145.571C60.9699 145.955 60.7581 146.779 59.7853 148.937C55.8627 150.961 41.0902 158.704 36.2026 162.477C30.4678 166.894 29.4244 170.017 29.6832 172.621L29.95 176.779C29.95 176.779 32.3977 191.685 34.9474 199.036L34.6336 198.887L34.5473 290.378L108.002 287.593L108.12 219.63C110.63 218.806 113.242 217.841 114.819 217.143L115.212 217.496L118.522 219.92C119.054 220.32 119.672 220.591 120.327 220.713C120.982 220.834 121.656 220.801 122.296 220.618C123.7 220.218 122.821 218.555 121.802 218.006C121.027 217.483 120.293 216.904 119.605 216.272L116.545 212.459C118.381 212.789 121.323 213.306 122.547 213.479C124.367 213.738 126.713 214.264 126.972 211.91C127.23 209.556 121.472 209.321 119.644 208.537Z" fill="white"/>
<path d="M65.458 134.423C65.458 134.423 66.4544 145.485 67.1055 147.477C67.6939 149.282 70.6672 159.127 73.2718 163.544C75.8764 167.961 79.0537 167.467 79.548 162.509C80.0422 157.55 79.7912 149.509 79.7912 149.509" stroke="#263238" stroke-width="0.969857" stroke-linecap="round" stroke-linejoin="round"/>
<path d="M66.054 141.414C66.054 141.414 62.5942 143.524 61.2919 145.603C59.9896 147.682 54.5137 166.927 54.5137 166.927L64.9321 167.452L56.0749 171.375" stroke="#263238" stroke-width="0.969857" stroke-linecap="round" stroke-linejoin="round"/>
<path d="M56.3428 173.688C56.3428 173.688 65.2 188.257 66.5023 189.826C67.3024 190.797 67.9991 191.849 68.5813 192.964" stroke="#263238" stroke-width="0.969857" stroke-linecap="round" stroke-linejoin="round"/>
<path d="M66.7607 145.893C66.7607 145.893 71.1854 164.101 73.8214 173.719C76.4574 183.338 78.9757 195.317 78.9757 195.317" stroke="#263238" stroke-width="0.969857" stroke-linecap="round" stroke-linejoin="round"/>
<path d="M79.7588 151.589C79.7588 151.589 80.8022 172.653 80.8022 180.977V194.235" stroke="#263238" stroke-width="0.969857" stroke-linecap="round" stroke-linejoin="round"/>
<path d="M83.4316 149.502L90.4688 163.812L84.7339 165.632L93.5912 170.566L85.5185 195.796" stroke="#263238" stroke-width="0.969857" stroke-linecap="round" stroke-linejoin="round"/>
<path d="M84.4756 151.589L94.6351 157.049" stroke="#263238" stroke-width="0.969857" stroke-linecap="round" stroke-linejoin="round"/>
<path d="M102.716 172.912L104.018 197.358" stroke="#263238" stroke-width="0.969857" stroke-linecap="round" stroke-linejoin="round"/>
<path d="M59.724 148.984C59.724 148.984 42.0095 158.085 36.2825 162.509C30.5555 166.934 29.5043 170.049 29.7632 172.653" stroke="#263238" stroke-width="0.969857" stroke-linecap="round" stroke-linejoin="round"/>
<path d="M34.7139 198.918V289.938" stroke="#263238" stroke-width="0.969857" stroke-linecap="round" stroke-linejoin="round"/>
<path d="M80.5674 221.285V286.565" stroke="#263238" stroke-width="0.969857" stroke-linecap="round" stroke-linejoin="round"/>
<path d="M41.0752 171.359C41.0752 171.359 47.0532 173.454 49.7049 178.53" stroke="#263238" stroke-width="0.969857" stroke-linecap="round" stroke-linejoin="round"/>
<path d="M44.958 171.061C44.958 171.061 50.3398 173.155 52.7326 178.231" stroke="#263238" stroke-width="0.969857" stroke-linecap="round" stroke-linejoin="round"/>
<path d="M41.3721 254.604H61.2047V258.495H42.0781" stroke="#263238" stroke-width="0.969857" stroke-linecap="round" stroke-linejoin="round"/>
<path d="M114.712 190.847C112.844 186.139 111.283 182.217 110.467 179.636C110.51 181.2 110.234 182.757 109.656 184.211C109.077 185.665 108.208 186.986 107.102 188.093C101.689 193.381 100.159 191.545 100.402 198.888C100.645 206.231 103.54 209.565 101.728 215.826C99.9156 222.086 92.0312 228.268 92.3136 239.11C92.4154 241.487 93.0766 243.807 94.2435 245.881L61.5918 289.461L108.286 288.088V225.742L114.712 190.847Z" fill="#9468B4"/>
<path opacity="0.7" d="M114.712 190.847C112.844 186.139 111.283 182.217 110.467 179.636C110.51 181.2 110.234 182.757 109.656 184.211C109.077 185.665 108.208 186.986 107.102 188.093C101.689 193.381 100.159 191.545 100.402 198.888C100.645 206.231 103.54 209.565 101.728 215.826C99.9156 222.086 92.0312 228.268 92.3136 239.11C92.4154 241.487 93.0766 243.807 94.2435 245.881L61.5918 289.461L108.286 288.088V225.742L114.712 190.847Z" fill="white"/>
<path d="M108.325 258.3V285.389" stroke="#263238" stroke-width="0.969857" stroke-linecap="round" stroke-linejoin="round"/>
<path d="M93.0963 112.834C94.6653 112.575 102.471 107.633 101.169 102.69C99.8667 97.7476 88.9069 91.7617 80.3086 94.6331C75.1287 96.3576 70.3442 99.0965 66.2343 102.69C66.2343 102.69 60.5073 102.69 58.3891 105.044C56.2709 107.397 57.8713 111.022 59.1736 113.626C60.3034 115.878 60.2563 121.848 60.2249 123.394C60.1538 123.39 60.0831 123.406 60.0209 123.441C59.5849 123.681 59.2045 124.011 58.9045 124.408C58.6044 124.806 58.3914 125.262 58.2793 125.747C57.9263 127.316 58.5774 129.411 60.1621 131.78C60.6894 132.67 61.4307 133.413 62.3185 133.944C63.2063 134.474 64.2126 134.774 65.2458 134.816C65.9254 135.599 66.4786 136.483 66.8855 137.436C67.5445 139.006 74.1109 149.079 77.8687 149.369C78.4101 149.416 78.9278 149.432 79.4378 149.432C82.6779 149.432 85.0314 148.561 86.2945 146.882C87.9655 144.662 92.1078 135.711 92.6256 131.356C92.7119 130.572 92.7589 129.591 92.7825 128.414C93.3622 127.681 93.6775 126.773 93.6775 125.837C93.6775 124.902 93.3622 123.994 92.7825 123.26C92.6962 118.655 92.453 113.885 92.3902 112.787C92.6189 112.856 92.8604 112.872 93.0963 112.834Z" fill="white"/>
<path d="M92.0306 112.574C92.0306 112.574 92.8151 126.876 92.2894 131.301C91.7638 135.725 87.5823 144.559 86.0133 146.646C84.4443 148.733 81.3062 149.243 77.9406 148.999C74.575 148.756 68.0399 139.115 67.2554 137.294C66.8208 136.243 66.2047 135.277 65.4353 134.439C65.4353 134.439 62.5718 134.698 60.485 131.575C58.3982 128.453 57.6215 125.299 60.2261 123.769" stroke="#263238" stroke-width="0.969857" stroke-linecap="round" stroke-linejoin="round"/>
<path d="M80.8271 126.617C80.8271 126.617 82.6551 123.479 84.4752 125.314L85.7775 133.638L81.8549 134.682L82.3727 138.84" stroke="#263238" stroke-width="0.969857" stroke-linecap="round" stroke-linejoin="round"/>
<path d="M76.9206 130.516C79.0783 130.516 80.8275 128.77 80.8275 126.617C80.8275 124.463 79.0783 122.718 76.9206 122.718C74.7629 122.718 73.0137 124.463 73.0137 126.617C73.0137 128.77 74.7629 130.516 76.9206 130.516Z" fill="#9468B4" stroke="#263238" stroke-width="0.969857" stroke-linecap="round" stroke-linejoin="round"/>
<path opacity="0.4" d="M76.9206 130.516C79.0783 130.516 80.8275 128.77 80.8275 126.617C80.8275 124.463 79.0783 122.718 76.9206 122.718C74.7629 122.718 73.0137 124.463 73.0137 126.617C73.0137 128.77 74.7629 130.516 76.9206 130.516Z" fill="white" stroke="#263238" stroke-width="1.16689" stroke-miterlimit="10"/>
<path d="M93.3335 125.841C93.3335 125.065 93.1034 124.306 92.6724 123.661C92.2414 123.016 91.6288 122.513 90.912 122.217C90.1952 121.92 89.4065 121.842 88.6456 121.993C87.8847 122.145 87.1858 122.518 86.6372 123.067C86.0886 123.615 85.715 124.314 85.5637 125.075C85.4123 125.836 85.49 126.625 85.7869 127.342C86.0838 128.058 86.5865 128.671 87.2316 129.102C87.8767 129.533 88.6351 129.763 89.4109 129.763C90.4512 129.763 91.449 129.35 92.1846 128.614C92.9202 127.879 93.3335 126.881 93.3335 125.841Z" fill="#9468B4" stroke="#263238" stroke-width="0.969857" stroke-linecap="round" stroke-linejoin="round"/>
<path opacity="0.4" d="M93.3335 125.841C93.3335 125.065 93.1034 124.306 92.6724 123.661C92.2414 123.016 91.6288 122.513 90.912 122.217C90.1952 121.92 89.4065 121.842 88.6456 121.993C87.8847 122.145 87.1858 122.518 86.6372 123.067C86.0886 123.615 85.715 124.314 85.5637 125.075C85.4123 125.836 85.49 126.625 85.7869 127.342C86.0838 128.058 86.5865 128.671 87.2316 129.102C87.8767 129.533 88.6351 129.763 89.4109 129.763C90.4512 129.763 91.449 129.35 92.1846 128.614C92.9202 127.879 93.3335 126.881 93.3335 125.841Z" fill="white" stroke="#263238" stroke-width="1.16689" stroke-miterlimit="10"/>
<path d="M73.0121 126.617L65.1982 127.135" stroke="#263238" stroke-width="0.969857" stroke-linecap="round" stroke-linejoin="round"/>
<path d="M73.0771 121.197C73.0771 121.197 75.1718 119.11 79.063 120.303" stroke="#263238" stroke-width="0.969857" stroke-linecap="round" stroke-linejoin="round"/>
<path d="M86.2393 120.004C86.2393 120.004 90.1619 117.917 91.323 120.6" stroke="#263238" stroke-width="0.969857" stroke-linecap="round" stroke-linejoin="round"/>
<path d="M68.3213 113.092C68.3213 113.092 70.4081 118.035 70.9259 118.819C71.4437 119.604 68.3213 123.236 68.3213 123.236V126.876L65.1832 127.135L62.0451 124.279L60.2251 123.754C60.2251 123.754 60.4839 116.214 59.1816 113.618C57.8793 111.021 56.3181 107.342 58.3971 105.035C60.4761 102.729 66.2423 102.681 66.2423 102.681C70.3522 99.0879 75.1367 96.3489 80.3166 94.6245C88.9463 91.761 99.8511 97.7625 101.153 102.681C102.456 107.6 94.6655 112.574 93.0964 112.833C91.5274 113.092 89.1738 109.978 86.8203 109.978H83.1723C80.5677 109.978 80.3088 109.711 77.4374 109.711C74.5661 109.711 68.3213 113.092 68.3213 113.092Z" fill="#263238"/>
<path d="M71.5862 108.824C71.5862 108.824 76.0344 106.36 78.2625 102.163C80.4905 97.9661 73.069 99.9431 71.092 102.658C69.115 105.372 73.8143 104.383 73.8143 104.383" stroke="white" stroke-width="0.484928" stroke-linecap="round" stroke-linejoin="round"/>
<path d="M68.3234 113.093C68.3234 113.093 65.656 115.98 62.1963 116.231" stroke="white" stroke-width="0.484928" stroke-linecap="round" stroke-linejoin="round"/>
<path d="M69.608 116.725C69.608 116.725 64.9009 118.945 62.4375 118.945" stroke="white" stroke-width="0.484928" stroke-linecap="round" stroke-linejoin="round"/>
<path d="M62.4375 120.913C62.4375 120.913 66.1483 121.698 68.1253 120.913" stroke="white" stroke-width="0.484928" stroke-linecap="round" stroke-linejoin="round"/>
<path d="M75.5391 109.319C75.5391 109.319 77.5161 109.075 83.9413 106.855C90.3665 104.635 92.571 102.148 88.3895 98.9551" stroke="white" stroke-width="0.484928" stroke-linecap="round" stroke-linejoin="round"/>
<path d="M204.671 248.791C204.671 248.791 194.433 221.56 191.805 218.94C189.177 216.32 176.005 208.294 176.005 208.294L174.946 206.482L174.303 204.278C174.303 204.278 173.518 200.959 171.259 199.319L171.078 198.935L155.545 192.282C155.545 192.282 155.655 194.338 155.819 196.817C153.984 197.484 149.912 199.272 148.516 202.457C147.605 204.521 147.088 207.949 146.829 211.173L146.193 211.644L146.429 210.781C146.429 210.781 129.232 220.423 128.455 221.992C127.451 223.31 124.854 231.759 124.854 231.759C124.854 231.759 122.266 239.879 119.418 248.846C115.401 261.179 111.518 273.504 111.267 275.473C111.267 275.653 111.267 275.567 111.267 275.567C111.008 278.948 123.921 291.414 123.921 291.414H124.093L125.662 292.983C125.662 292.983 125.662 292.826 125.662 292.332C126.753 294.552 128.534 297.824 129.946 297.133C131.107 296.561 130.73 294.544 129.789 291.916C130.958 293.697 132.3 294.992 133.366 294.474C135.21 293.564 134.292 290.418 132.441 285.915C132.282 285.53 132.042 285.186 131.735 284.905C131.429 284.625 131.064 284.415 130.668 284.291C131.264 284.228 131.868 284.165 132.488 284.087C133.108 286.966 134.496 289.461 136.057 289.131C137.619 288.802 137.854 286.778 137.54 283.334C137.697 283.334 137.909 282.871 138.066 282.847C138.756 285.271 139.815 287.429 141.149 287.146C142.616 286.833 143.016 285.373 142.843 282.439C142.843 281.349 142.765 280.996 142.726 280.305C143.298 280.658 146.107 282.353 146.429 282.596C147.472 283.381 155.411 281.686 155.411 281.686C167.007 277.936 185.545 277.763 197.517 269.746C205.511 264.356 204.671 248.791 204.671 248.791ZM131.586 271.064L134.724 250.415L135.971 269.244L135.602 273.888L131.586 271.064Z" fill="white"/>
<path d="M128.502 221.544L147.181 210.56C147.181 210.56 148.35 200.55 150.735 199.53C150.735 199.53 154.015 196.667 157.741 197.231C159.875 197.545 161.452 194.878 162.66 190.234C162.66 181.047 162.534 169.318 162.44 161.991C161.656 158.374 160.808 155.44 160.526 154.295L151.724 150.6C151.724 150.6 149.841 144.245 140.16 142.825C130.479 141.405 120.1 151.784 118.915 158.853C117.731 165.921 124.579 173.461 121.983 177.469C119.386 181.478 108.528 187.362 105.696 194.195C102.864 201.029 103.57 205.744 103.57 205.744C103.57 205.744 111.36 216.813 109.234 220.587C107.108 224.36 94.6029 227.891 94.8382 238.968C95.0579 249.229 105.217 256.455 116.475 257.796L128.502 221.544Z" fill="#263238"/>
<path d="M148.939 152.49C148.939 152.49 142.271 144.849 133.869 147.312C125.467 149.776 122.25 158.664 123.984 163.105C125.718 167.545 129.664 171.24 126.698 177.901C123.733 184.561 116.319 185.55 112.577 193.199C108.835 200.848 109.863 203.319 109.863 203.319" stroke="white" stroke-width="0.484928" stroke-linecap="round" stroke-linejoin="round"/>
<path d="M144.49 158.908C144.49 158.908 138.316 159.646 138.316 163.615C138.316 167.585 141.775 169.531 142.238 174.465C142.701 179.4 141.25 181.377 137.531 187.543C133.812 193.709 133.609 196.918 136.299 201.115C138.99 205.313 140.748 212.216 137.288 214.68" stroke="white" stroke-width="0.484928" stroke-linecap="round" stroke-linejoin="round"/>
<path d="M145.974 153.973C145.974 153.973 138.56 150.05 132.637 153.73C126.714 157.409 134.614 164.831 135.603 171.735C136.591 178.638 131.68 183.581 124.98 190.979C123.018 193.217 121.56 195.853 120.708 198.705C119.855 201.557 119.626 204.56 120.038 207.509" stroke="white" stroke-width="0.484928" stroke-linecap="round" stroke-linejoin="round"/>
<path d="M119.535 216.146C119.535 216.146 121.261 219.842 116.561 224.776C111.862 229.711 101.734 230.95 99.3019 238.348C96.8699 245.746 101.726 249.7 101.726 249.7" stroke="white" stroke-width="0.484928" stroke-linecap="round" stroke-linejoin="round"/>
<path d="M155.601 191.866C155.601 191.866 156.118 201.783 156.644 204.379C157.17 206.976 159.264 216.249 160.057 224.439C160.44 228.689 161.228 232.892 162.41 236.992C162.41 236.992 168.757 261.641 169.134 230.676C169.267 219.756 168.09 202.591 168.09 202.591L168.608 197.389" fill="white"/>
<g style="mix-blend-mode:multiply" opacity="0.3">
<path d="M166.214 198.204L156.643 204.378L156.031 193.952C156.031 193.952 162.425 197.734 166.214 198.204Z" fill="#9468B4"/>
</g>
<g style="mix-blend-mode:multiply" opacity="0.3">
<path d="M168.104 202.559C168.104 202.559 167.79 220.257 166.927 227.742C166.451 232.498 166.942 237.301 168.371 241.863C168.371 241.863 169.571 214.483 168.104 202.559Z" fill="#9468B4"/>
</g>
<path d="M155.601 191.866C155.601 191.866 156.118 201.783 156.644 204.379C157.17 206.976 159.264 216.249 160.057 224.439C160.44 228.689 161.228 232.892 162.41 236.992C162.41 236.992 168.757 261.641 169.134 230.676C169.267 219.756 168.09 202.591 168.09 202.591L168.608 197.389" stroke="#263238" stroke-width="0.969857" stroke-linecap="round" stroke-linejoin="round"/>
<path d="M148.695 233.414L147.04 236.96L157.929 247.59L148.695 233.414Z" fill="#9468B4"/>
<path opacity="0.7" d="M148.695 233.414L147.04 236.96L157.929 247.59L148.695 233.414Z" fill="white"/>
<path d="M136.01 241.252C136.01 241.252 139.65 232.842 140.795 234.756C141.941 236.67 134.668 244.884 137.54 246.03C140.411 247.175 144.6 242.97 143.282 246.406C141.964 249.842 139.65 253.859 139.65 255.585C139.65 257.311 140.435 274.312 140.435 274.312L140.631 275.457L138.332 277.026C138.332 277.026 135.845 274.539 135.845 272.437C135.845 270.334 135.461 261.924 135.461 260.018C135.461 258.111 134.566 251.388 134.566 251.388L136.01 241.252Z" fill="#9468B4"/>
<path opacity="0.7" d="M136.009 241.252C136.009 241.252 139.65 232.842 140.795 234.756C141.94 236.67 134.668 244.884 137.539 246.03C140.411 247.175 144.6 242.97 143.282 246.406C141.964 249.842 139.65 253.859 139.65 255.585C139.65 257.311 140.434 274.312 140.434 274.312L140.63 275.457L138.332 277.026C138.332 277.026 135.845 274.539 135.845 272.437C135.845 270.334 135.46 261.924 135.46 260.018C135.46 258.111 134.676 250.917 134.676 250.917L136.009 241.252Z" fill="white"/>
<path d="M155.725 196.753C155.725 196.753 150.39 197.875 148.562 202.041C146.734 206.206 146.483 215.825 146.742 218.421C146.887 220.511 146.887 222.608 146.742 224.698L154.038 222.344" fill="white"/>
<g style="mix-blend-mode:multiply" opacity="0.3">
<path d="M156.729 203.359C154.531 203.41 152.417 204.21 150.735 205.626C147.652 208.05 147.33 212.42 147.33 212.42C147.33 212.42 146.357 207.242 148.303 202.715C150.249 198.189 155.724 196.753 155.724 196.753L156.729 203.359Z" fill="#9468B4"/>
</g>
<path d="M155.725 196.753C155.725 196.753 150.39 197.875 148.562 202.041C146.734 206.206 146.483 215.825 146.742 218.421C146.887 220.511 146.887 222.608 146.742 224.698L154.038 222.344" stroke="#263238" stroke-width="0.969857" stroke-linecap="round" stroke-linejoin="round"/>
<path d="M155.858 222.847L147.785 231.947C147.785 231.947 153.779 241.306 156.642 244.429" stroke="#263238" stroke-width="0.969857" stroke-linecap="round" stroke-linejoin="round"/>
<path d="M176.444 243.127L180.61 227.264L173.314 221.772L179.049 219.952L174.342 203.83C174.342 203.83 173.471 199.782 170.419 198.479" stroke="#263238" stroke-width="0.969857" stroke-linecap="round" stroke-linejoin="round"/>
<path d="M159.781 215.041C159.781 215.041 162.386 218.179 165.273 217.646C168.16 217.112 168.136 215.567 168.136 215.567" stroke="#263238" stroke-width="0.969857" stroke-linecap="round" stroke-linejoin="round"/>
<path d="M134.291 218.319C134.291 218.319 130.078 222.909 130.266 224.054C130.455 225.2 135.436 227.302 134.291 228.636C133.145 229.969 130.266 226.729 129.694 227.302C129.121 227.875 118.593 263.798 119.55 264.355C120.507 264.912 122.805 262.825 123.378 264.167C123.951 265.508 113.807 269.321 115.91 270.443C118.012 271.565 123.182 269.101 122.186 269.486C121.189 269.87 118.357 273.495 119.126 275.024C119.895 276.554 128.093 284.305 128.093 284.305C127.61 284.504 127.223 284.883 127.014 285.361C126.805 285.84 126.79 286.381 126.971 286.871C127.189 287.857 127.744 288.736 128.54 289.358C128.54 289.358 126.344 287.545 126.006 289.507C125.814 290.529 125.702 291.565 125.669 292.605L120.295 287.286C115.917 282.83 112.356 278.657 111.304 275.071C111.304 275.071 111.116 275.597 112.269 271.392C113.423 267.187 124.9 231.264 124.9 231.264C124.9 231.264 127.497 222.807 128.493 221.497C129.49 220.186 134.291 218.319 134.291 218.319Z" fill="#9468B4"/>
<path opacity="0.7" d="M134.292 218.319C134.292 218.319 130.079 222.909 130.267 224.054C130.455 225.2 135.437 227.302 134.292 228.636C133.146 229.969 130.267 226.729 129.694 227.302C129.122 227.875 118.593 263.798 119.55 264.355C120.508 264.912 122.806 262.825 123.379 264.167C123.952 265.508 113.808 269.321 115.91 270.443C118.013 271.565 123.183 269.101 122.186 269.486C121.19 269.87 118.358 273.495 119.127 275.024C119.896 276.554 128.094 284.305 128.094 284.305C127.611 284.504 127.224 284.883 127.015 285.361C126.806 285.84 126.79 286.381 126.972 286.871C127.19 287.857 127.745 288.736 128.541 289.358C128.541 289.358 126.344 287.545 126.007 289.507C125.67 291.468 125.497 292.755 125.497 292.755L120.296 287.263C114.867 281.842 111.509 277.566 111.305 275.048C111.305 275.048 110.67 276.24 112.27 271.369C113.627 267.226 124.901 231.24 124.901 231.24C124.901 231.24 127.498 222.783 128.494 221.473C129.49 220.163 134.292 218.319 134.292 218.319Z" fill="white"/>
<path d="M143.722 213.095V227.742L152.955 225.38L156.031 221.834L146.562 223.725L147.181 210.521L143.722 213.095Z" fill="#9468B4"/>
<path opacity="0.7" d="M143.722 213.095V227.742L152.955 225.38L156.031 221.834L146.562 223.725L147.181 210.521L143.722 213.095Z" fill="white"/>
<path d="M146.483 210.364C146.483 210.364 129.287 219.982 128.502 221.544C127.718 223.105 111.572 271.753 111.313 275.119C111.054 278.484 124.078 291.24 124.078 291.24" stroke="#263238" stroke-width="0.969857" stroke-linecap="round" stroke-linejoin="round"/>
<path d="M136.843 234.811L131.634 270.694" stroke="#263238" stroke-width="0.969857" stroke-linecap="round" stroke-linejoin="round"/>
<path d="M137.36 232.723L138.145 229.083" stroke="#263238" stroke-width="0.969857" stroke-linecap="round" stroke-linejoin="round"/>
<path d="M116.783 272.782C116.783 272.782 120.172 268.075 125.123 268.357C130.073 268.639 137.361 275.637 137.361 275.637" stroke="#263238" stroke-width="0.969857" stroke-linecap="round" stroke-linejoin="round"/>
<path d="M118.343 267.313C119.435 266.331 120.827 265.746 122.293 265.652C123.759 265.558 125.214 265.961 126.423 266.795" stroke="#263238" stroke-width="0.969857" stroke-linecap="round" stroke-linejoin="round"/>
<path d="M142.522 278.147C142.465 277.715 142.308 277.302 142.062 276.942C141.816 276.582 141.489 276.285 141.107 276.075C140.725 275.865 140.299 275.748 139.864 275.733C139.428 275.718 138.995 275.806 138.6 275.989C138.279 276.15 138.005 276.392 137.806 276.69C137.606 276.989 137.488 277.334 137.462 277.692C137.172 280.555 138.929 287.593 141.283 287.106C143.236 286.667 143.173 282.964 142.522 278.147Z" fill="white" stroke="#263238" stroke-width="0.969857" stroke-linecap="round" stroke-linejoin="round"/>
<path d="M137.28 280.225C137.222 279.794 137.064 279.382 136.817 279.023C136.571 278.664 136.244 278.368 135.862 278.159C135.48 277.95 135.055 277.833 134.62 277.819C134.185 277.804 133.752 277.892 133.357 278.076C133.036 278.234 132.762 278.474 132.562 278.771C132.363 279.069 132.245 279.413 132.22 279.77C131.93 282.634 133.687 289.671 136.04 289.185C138.025 288.745 137.963 285.05 137.28 280.225Z" fill="white" stroke="#263238" stroke-width="0.969857" stroke-linecap="round" stroke-linejoin="round"/>
<path d="M132.495 285.467C132.332 285.059 132.076 284.696 131.746 284.406C131.416 284.117 131.022 283.909 130.597 283.8C130.172 283.692 129.727 283.685 129.299 283.781C128.871 283.877 128.471 284.073 128.133 284.353C127.86 284.586 127.653 284.888 127.533 285.226C127.413 285.565 127.385 285.93 127.45 286.283C127.874 289.123 131.326 295.548 133.468 294.458C135.311 293.516 134.291 289.719 132.495 285.467Z" fill="white" stroke="#263238" stroke-width="0.969857" stroke-linecap="round" stroke-linejoin="round"/>
<path d="M129.121 290.488C129.001 290.183 128.81 289.91 128.564 289.693C128.318 289.476 128.024 289.32 127.706 289.239C127.388 289.158 127.056 289.154 126.736 289.226C126.416 289.299 126.117 289.446 125.866 289.657C125.663 289.833 125.509 290.058 125.418 290.311C125.328 290.564 125.303 290.835 125.348 291.1C125.669 293.226 128.243 297.996 129.851 297.204C131.232 296.521 130.502 293.862 129.121 290.488Z" fill="white" stroke="#263238" stroke-width="0.969857" stroke-linecap="round" stroke-linejoin="round"/>
<path d="M142.923 280.046C142.923 280.046 144.963 282.25 146.477 282.721C147.724 283.106 154.212 281.937 154.212 281.937" stroke="#263238" stroke-width="0.969857" stroke-linecap="round" stroke-linejoin="round"/>
<path d="M152.21 286.824C152.21 286.824 148.044 287.86 145.15 288.393C142.255 288.927 139.156 289.178 139.156 289.178C139.156 289.178 137.069 291.782 135.508 291.782" stroke="#263238" stroke-width="0.969857" stroke-linecap="round" stroke-linejoin="round"/>
<path d="M176.061 207.87C176.061 207.87 189.233 215.904 191.861 218.524C194.489 221.144 203.715 245.715 203.715 245.715" stroke="#263238" stroke-width="0.969857" stroke-linecap="round" stroke-linejoin="round"/>
<path d="M188.582 225.403L191.532 246.703" stroke="#263238" stroke-width="0.969857" stroke-linecap="round" stroke-linejoin="round"/>
<path d="M191.53 244.138L189.694 228.314L197.806 246.186L191.899 246.453L191.53 244.138Z" fill="#9468B4"/>
<path opacity="0.7" d="M191.53 244.138L189.694 228.314L197.806 246.186L191.899 246.453L191.53 244.138Z" fill="white"/>
<path d="M141.368 236.34L136.269 244.711L140.591 241.29" stroke="#263238" stroke-width="0.969857" stroke-linecap="round" stroke-linejoin="round"/>
<path d="M134.85 251.427C134.85 251.427 135.909 266.976 135.909 269.094C135.909 271.212 135.611 274.005 135.611 274.005" stroke="#263238" stroke-width="0.969857" stroke-linecap="round" stroke-linejoin="round"/>
<path d="M152.469 149.768C152.469 149.768 144.914 154.185 144.396 160.689C144.146 164.978 144.586 169.279 145.698 173.429C145.698 173.429 143.345 171.35 143.094 176.034C142.843 180.717 146.742 184.35 148.303 184.35H149.872C149.872 184.35 153.347 191.489 157.521 194.87C161.695 198.251 165.766 198.4 168.63 197.357C171.493 196.314 176.969 191.638 177.495 185.393C178.02 179.148 177.495 168.746 176.969 162.25C176.444 155.754 175.149 151.063 168.112 148.725C161.075 146.387 156.117 147.94 152.469 149.768Z" fill="white"/>
<g style="mix-blend-mode:multiply" opacity="0.3">
<path d="M145.698 173.43C145.698 173.43 143.345 171.351 143.094 176.034C142.843 180.718 146.742 184.35 148.303 184.35H149.872C149.872 184.35 153.347 191.481 157.521 194.87L159.31 196.102C159.919 196.471 160.556 196.791 161.216 197.059C159.812 195.333 156.76 191.356 155.324 187.778C153.426 183.071 152.971 173.131 153.426 166.753C153.881 160.375 157.215 157.771 157.215 157.771L152.508 157.535C151.81 157.535 148.162 162.964 144.459 166.079L145.698 173.43Z" fill="#9468B4"/>
</g>
<path d="M152.469 149.768C152.469 149.768 144.914 154.185 144.396 160.689C144.146 164.978 144.586 169.279 145.698 173.429C145.698 173.429 143.345 171.35 143.094 176.034C142.843 180.717 146.742 184.35 148.303 184.35H149.872C149.872 184.35 153.347 191.489 157.521 194.87C161.695 198.251 165.766 198.4 168.63 197.357C171.493 196.314 176.969 191.638 177.495 185.393C178.02 179.148 177.495 168.746 176.969 162.25C176.444 155.754 175.149 151.063 168.112 148.725C161.075 146.387 156.117 147.94 152.469 149.768Z" stroke="#263238" stroke-width="0.969857" stroke-linecap="round" stroke-linejoin="round"/>
<path d="M164.535 173.642C164.535 173.642 166.716 169.915 168.889 172.073L170.458 179.471L167.32 180.114L167.618 184.735" stroke="#263238" stroke-width="0.969857" stroke-linecap="round" stroke-linejoin="round"/>
<path d="M159.876 178.294C162.45 178.294 164.536 176.211 164.536 173.641C164.536 171.072 162.45 168.989 159.876 168.989C157.302 168.989 155.216 171.072 155.216 173.641C155.216 176.211 157.302 178.294 159.876 178.294Z" fill="#9468B4" stroke="#263238" stroke-width="0.969857" stroke-linecap="round" stroke-linejoin="round"/>
<path opacity="0.4" d="M159.876 178.294C162.45 178.294 164.536 176.211 164.536 173.641C164.536 171.072 162.45 168.989 159.876 168.989C157.302 168.989 155.216 171.072 155.216 173.641C155.216 176.211 157.302 178.294 159.876 178.294Z" fill="white" stroke="#263238" stroke-width="1.16689" stroke-miterlimit="10"/>
<path d="M179.464 172.708C179.465 171.786 179.194 170.884 178.683 170.116C178.173 169.349 177.447 168.749 176.597 168.394C175.746 168.038 174.809 167.942 173.904 168.118C172.999 168.294 172.167 168.734 171.512 169.383C170.857 170.031 170.408 170.86 170.223 171.763C170.038 172.666 170.124 173.603 170.471 174.457C170.818 175.311 171.411 176.044 172.173 176.562C172.936 177.08 173.835 177.36 174.757 177.368C175.373 177.374 175.984 177.258 176.554 177.027C177.125 176.795 177.644 176.453 178.082 176.02C178.52 175.586 178.867 175.071 179.105 174.502C179.342 173.934 179.464 173.324 179.464 172.708Z" fill="#9468B4" stroke="#263238" stroke-width="0.969857" stroke-linecap="round" stroke-linejoin="round"/>
<path opacity="0.4" d="M179.464 172.708C179.465 171.786 179.194 170.884 178.683 170.116C178.173 169.349 177.447 168.749 176.597 168.394C175.746 168.038 174.809 167.942 173.904 168.118C172.999 168.294 172.167 168.734 171.512 169.383C170.857 170.031 170.408 170.86 170.223 171.763C170.038 172.666 170.124 173.603 170.471 174.457C170.818 175.311 171.411 176.044 172.173 176.562C172.936 177.08 173.835 177.36 174.757 177.368C175.373 177.374 175.984 177.258 176.554 177.027C177.125 176.795 177.644 176.453 178.082 176.02C178.52 175.586 178.867 175.071 179.105 174.502C179.342 173.934 179.464 173.324 179.464 172.708Z" fill="white" stroke="#263238" stroke-width="1.16689" stroke-miterlimit="10"/>
<path d="M155.216 173.642L145.888 174.261" stroke="#263238" stroke-width="0.969857" stroke-linecap="round" stroke-linejoin="round"/>
<path d="M156.078 167.42C156.622 166.751 157.339 166.244 158.151 165.955C158.963 165.666 159.839 165.606 160.683 165.78" stroke="#263238" stroke-width="0.969857" stroke-linecap="round" stroke-linejoin="round"/>
<path d="M170.568 165.451C171.338 165.029 172.227 164.876 173.093 165.019C173.959 165.161 174.752 165.59 175.346 166.236" stroke="#263238" stroke-width="0.969857" stroke-linecap="round" stroke-linejoin="round"/>
<path d="M176.961 162.25C176.444 155.746 175.141 151.063 168.104 148.725C161.067 146.387 156.117 147.94 152.469 149.768C152.469 149.768 144.914 154.185 144.396 160.689C144.146 164.978 144.586 169.279 145.698 173.429C145.698 173.429 147.785 175.508 148.303 172.645C148.821 169.781 147.259 165.098 154.579 159.637C161.899 154.177 172.294 156.782 175.942 161.991C176.368 162.332 176.736 162.74 177.032 163.199C177.04 163.105 176.969 162.367 176.961 162.25Z" fill="#263238"/>
<path d="M63.1125 191.112C63.1125 191.112 56.8364 190.076 52.1293 193.199C50.7891 194.09 49.733 195.348 49.0864 196.822C48.4398 198.296 48.2297 199.925 48.4812 201.515" stroke="#263238" stroke-width="0.969857" stroke-linecap="round" stroke-linejoin="round"/>
<path d="M49.5648 191.638C49.5648 191.638 46.4268 195.278 46.4268 198.4" stroke="#263238" stroke-width="0.969857" stroke-linecap="round" stroke-linejoin="round"/>
<path d="M30.0225 176.811C30.0225 176.811 33.1605 195.797 36.0162 201.516C38.8718 207.235 46.9995 212.703 53.2129 215.3C59.4263 217.897 88.6418 222.062 89.6852 221.804C90.7286 221.545 84.7349 216.084 86.0372 209.322C86.6883 205.964 91.2464 202.559 91.2464 202.559C91.2464 202.559 78.4822 197.068 73.5319 195.02C68.5816 192.972 63.1135 191.097 63.1135 191.097C63.1135 191.097 56.0528 184.602 52.6951 181.738C49.6078 179.309 46.389 177.051 43.0533 174.976" stroke="#263238" stroke-width="0.969857" stroke-linecap="round" stroke-linejoin="round"/>
<path d="M116.17 212.036L119.575 216.272C120.263 216.904 120.997 217.483 121.771 218.006C122.791 218.555 123.67 220.218 122.266 220.619C121.626 220.802 120.952 220.834 120.297 220.713C119.642 220.592 119.024 220.32 118.492 219.92L115.181 217.496L112.412 214.994L114.42 211.385L116.17 212.036Z" fill="white" stroke="#263238" stroke-width="0.969857" stroke-linecap="round" stroke-linejoin="round"/>
<path d="M91.2459 202.559C91.2459 202.559 99.3265 204.379 101.931 204.912C104.536 205.446 117.825 207.776 119.646 208.552C121.466 209.329 127.2 209.596 126.942 211.934C126.683 214.271 124.337 213.754 122.517 213.503C120.697 213.252 114.954 212.208 114.954 212.208C114.954 212.208 116.782 215.589 116.264 216.366C115.746 217.143 104.018 221.309 101.672 221.309C99.3265 221.309 97.7496 217.143 96.7219 215.817L93.5838 211.894L87.3076 209.039" fill="white"/>
<path d="M91.2459 202.559C91.2459 202.559 99.3265 204.379 101.931 204.912C104.536 205.446 117.825 207.776 119.646 208.552C121.466 209.329 127.2 209.596 126.942 211.934C126.683 214.271 124.337 213.754 122.517 213.503C120.697 213.252 114.954 212.208 114.954 212.208C114.954 212.208 116.782 215.589 116.264 216.366C115.746 217.143 104.018 221.309 101.672 221.309C99.3265 221.309 97.7496 217.143 96.7219 215.817L93.5838 211.894L87.3076 209.039" stroke="#263238" stroke-width="0.969857" stroke-linecap="round" stroke-linejoin="round"/>
<path d="M114.954 212.185L113.134 209.58" stroke="#263238" stroke-width="0.969857" stroke-linecap="round" stroke-linejoin="round"/>
<path d="M89.6846 221.803C91.0473 220.562 92.109 219.027 92.7887 217.314C93.4685 215.601 93.7484 213.755 93.6072 211.918" stroke="#263238" stroke-width="0.969857" stroke-linecap="round" stroke-linejoin="round"/>
<path d="M103.491 215.3L105.578 220.242" stroke="#263238" stroke-width="0.969857" stroke-linecap="round" stroke-linejoin="round"/>
<path d="M108.7 213.221L110.787 218.681" stroke="#263238" stroke-width="0.969857" stroke-linecap="round" stroke-linejoin="round"/>
<path d="M158.729 251.191V312.305L240.272 307.629V247.033L158.729 251.191Z" fill="#263238" stroke="#263238" stroke-width="0.969857" stroke-linecap="round" stroke-linejoin="round"/>
<path d="M240.273 247.033L236.099 244.688L155.341 248.594V308.147L158.73 312.305V251.191L240.273 247.033Z" fill="white" stroke="#263238" stroke-width="0.969857" stroke-linecap="round" stroke-linejoin="round"/>
<path d="M155.341 248.595L158.722 251.191" stroke="#263238" stroke-width="0.969857" stroke-linecap="round" stroke-linejoin="round"/>
<path d="M191.296 286.825V328.177L213.702 326.616V285.005L191.296 286.825Z" fill="#263238" stroke="#263238" stroke-width="0.969857" stroke-linecap="round" stroke-linejoin="round"/>
<path d="M190.596 310.234V286.824L213.7 285.004L213.763 308.783" stroke="white" stroke-width="0.969857" stroke-linecap="round" stroke-linejoin="round"/>
<path d="M191.296 328.175L179.567 317.773L191.296 317.247" fill="white"/>
<path d="M191.296 328.175L179.567 317.773L191.296 317.247" stroke="#263238" stroke-width="0.969857" stroke-linecap="round" stroke-linejoin="round"/>
<path opacity="0.7" d="M49.2021 289.962L123.3 297.384C123.3 297.384 120.46 295.101 121.566 294.881C123.669 294.473 126.783 294.191 126.783 294.191L120.248 287.303L49.2021 289.962Z" fill="#9468B4"/>
<path opacity="0.7" d="M49.2021 289.962L123.3 297.384C123.3 297.384 120.46 295.101 121.566 294.881C123.669 294.473 126.783 294.191 126.783 294.191L120.248 287.303L49.2021 289.962Z" fill="white"/>
<path d="M120.303 287.334L4.66504 291.453" stroke="#263238" stroke-width="0.969857" stroke-linecap="round" stroke-linejoin="round"/>
<path d="M239.716 284.847L317.666 332.953" stroke="#263238" stroke-width="0.969857" stroke-linecap="round" stroke-linejoin="round"/>
<path d="M98.0246 296.96L57.2217 301.942L83.5109 329.549L127.491 324.112L98.0246 296.96Z" fill="#9468B4"/>
<path opacity="0.7" d="M98.0246 296.96L57.2217 301.942L83.5109 329.549L127.491 324.112L98.0246 296.96Z" fill="white"/>
<path d="M56.3105 307.825L92.5789 303.299L118.876 329.996L77.1631 335.88L56.3105 307.825Z" fill="white"/>
<path d="M78.4111 331.997C78.3487 331.997 78.2889 331.972 78.2447 331.928C78.2006 331.884 78.1758 331.824 78.1758 331.762C78.1758 331.699 78.2006 331.64 78.2447 331.595C78.2889 331.551 78.3487 331.526 78.4111 331.526L111.769 327.235C111.831 327.23 111.892 327.248 111.941 327.286C111.991 327.324 112.024 327.378 112.036 327.439C112.04 327.471 112.038 327.503 112.03 327.534C112.021 327.564 112.007 327.593 111.987 327.618C111.967 327.643 111.942 327.663 111.914 327.679C111.886 327.694 111.856 327.703 111.824 327.706L78.4739 331.997H78.4111Z" fill="#9468B4"/>
<path d="M76.5518 329.768C76.4893 329.768 76.4295 329.743 76.3853 329.699C76.3412 329.655 76.3164 329.595 76.3164 329.533C76.3164 329.47 76.3412 329.41 76.3853 329.366C76.4295 329.322 76.4893 329.297 76.5518 329.297L109.91 325.006C109.972 324.998 110.035 325.014 110.085 325.053C110.135 325.091 110.168 325.148 110.176 325.21C110.185 325.272 110.168 325.336 110.13 325.386C110.091 325.436 110.035 325.468 109.972 325.477L76.6224 329.768H76.5518Z" fill="#9468B4"/>
<path d="M74.7007 327.541C74.6421 327.541 74.5856 327.519 74.542 327.48C74.4985 327.441 74.4712 327.387 74.4653 327.329C74.4585 327.267 74.4759 327.204 74.5139 327.155C74.5519 327.105 74.6075 327.072 74.6693 327.062L108.004 322.771C108.066 322.768 108.128 322.788 108.177 322.827C108.226 322.866 108.259 322.921 108.27 322.983C108.274 323.014 108.271 323.045 108.262 323.075C108.253 323.104 108.238 323.132 108.218 323.156C108.199 323.18 108.174 323.2 108.147 323.215C108.119 323.23 108.089 323.239 108.058 323.242L74.7085 327.541H74.7007Z" fill="#9468B4"/>
<path d="M72.8418 325.305C72.7794 325.305 72.7195 325.28 72.6754 325.236C72.6312 325.191 72.6064 325.132 72.6064 325.069C72.6064 325.007 72.6312 324.947 72.6754 324.903C72.7195 324.859 72.7794 324.834 72.8418 324.834L106.2 320.542C106.262 320.536 106.324 320.553 106.374 320.591C106.423 320.629 106.457 320.685 106.466 320.746C106.471 320.777 106.469 320.809 106.461 320.839C106.453 320.869 106.439 320.898 106.42 320.923C106.401 320.947 106.378 320.968 106.35 320.984C106.323 320.999 106.293 321.009 106.262 321.013L72.9046 325.305H72.8418Z" fill="#9468B4"/>
<path d="M70.9887 323.077C70.9313 323.077 70.8758 323.057 70.8324 323.019C70.7891 322.982 70.761 322.93 70.7533 322.873C70.7489 322.842 70.7507 322.811 70.7586 322.78C70.7665 322.75 70.7804 322.722 70.7994 322.697C70.8184 322.672 70.8421 322.651 70.8692 322.636C70.8963 322.62 70.9263 322.61 70.9573 322.606L104.315 318.315C104.377 318.308 104.44 318.326 104.489 318.364C104.539 318.401 104.572 318.457 104.582 318.519C104.586 318.55 104.584 318.583 104.576 318.613C104.567 318.644 104.553 318.673 104.533 318.698C104.513 318.723 104.489 318.743 104.461 318.758C104.433 318.773 104.402 318.783 104.37 318.786L71.0201 323.077H70.9887Z" fill="#9468B4"/>
<path d="M69.1307 320.841C69.0721 320.841 69.0156 320.819 68.9721 320.78C68.9285 320.741 68.9012 320.687 68.8953 320.629C68.8904 320.567 68.9085 320.505 68.9462 320.456C68.9838 320.407 69.0384 320.373 69.0993 320.362L102.457 316.071C102.52 316.064 102.584 316.082 102.634 316.122C102.684 316.162 102.716 316.219 102.724 316.282C102.73 316.344 102.713 316.405 102.675 316.454C102.637 316.502 102.581 316.534 102.52 316.541L69.1621 320.841H69.1307Z" fill="#9468B4"/>
<path d="M67.2797 318.612C67.2223 318.613 67.1668 318.593 67.1235 318.555C67.0801 318.517 67.052 318.465 67.0443 318.408C67.0399 318.378 67.0417 318.346 67.0496 318.316C67.0576 318.286 67.0714 318.257 67.0904 318.232C67.1094 318.207 67.1331 318.187 67.1602 318.171C67.1874 318.156 67.2173 318.146 67.2483 318.142L100.606 313.85C100.668 313.845 100.729 313.864 100.779 313.901C100.828 313.939 100.861 313.993 100.873 314.054C100.877 314.086 100.875 314.118 100.867 314.149C100.858 314.179 100.844 314.208 100.824 314.233C100.804 314.258 100.78 314.279 100.752 314.294C100.724 314.309 100.693 314.318 100.661 314.321L67.3111 318.612H67.2797Z" fill="#9468B4"/>
<path d="M65.4199 316.384C65.3575 316.384 65.2976 316.359 65.2535 316.315C65.2094 316.271 65.1846 316.211 65.1846 316.149C65.1846 316.086 65.2094 316.027 65.2535 315.982C65.2976 315.938 65.3575 315.914 65.4199 315.914L98.7777 311.622C98.8086 311.618 98.84 311.62 98.8702 311.628C98.9003 311.636 98.9286 311.65 98.9533 311.669C98.9781 311.688 98.9989 311.712 99.0145 311.739C99.0301 311.765 99.0403 311.795 99.0444 311.826C99.0486 311.857 99.0465 311.888 99.0385 311.919C99.0305 311.949 99.0166 311.977 98.9977 312.002C98.9788 312.027 98.9551 312.047 98.9281 312.063C98.9012 312.079 98.8714 312.089 98.8405 312.093L65.4827 316.384H65.4199Z" fill="#9468B4"/>
<path d="M63.5688 314.157C63.5103 314.158 63.4537 314.136 63.4102 314.097C63.3667 314.058 63.3393 314.004 63.3335 313.945C63.3267 313.883 63.3441 313.821 63.382 313.771C63.42 313.722 63.4757 313.688 63.5375 313.679L96.8952 309.387C96.9582 309.383 97.0206 309.402 97.07 309.441C97.1194 309.48 97.1523 309.537 97.162 309.599C97.1652 309.63 97.1623 309.661 97.1534 309.691C97.1445 309.721 97.1298 309.749 97.1101 309.773C97.0904 309.797 97.0661 309.817 97.0386 309.832C97.0112 309.846 96.9811 309.855 96.9502 309.858L63.6002 314.157H63.5688Z" fill="#9468B4"/>
<path d="M61.7168 311.921C61.6544 311.921 61.5945 311.896 61.5504 311.852C61.5062 311.808 61.4814 311.748 61.4814 311.685C61.4814 311.623 61.5062 311.563 61.5504 311.519C61.5945 311.475 61.6544 311.45 61.7168 311.45L95.0746 307.159C95.1367 307.152 95.1991 307.169 95.2488 307.207C95.2985 307.245 95.3316 307.301 95.3413 307.363C95.3457 307.394 95.3439 307.425 95.336 307.455C95.3281 307.486 95.3143 307.514 95.2953 307.539C95.2763 307.564 95.2525 307.584 95.2254 307.6C95.1983 307.616 95.1684 307.626 95.1373 307.629L61.7168 311.921Z" fill="#9468B4"/>
<g opacity="0.7">
<path opacity="0.7" d="M78.4121 331.996C78.3497 331.996 78.2898 331.971 78.2457 331.927C78.2016 331.883 78.1768 331.823 78.1768 331.761C78.1768 331.698 78.2016 331.639 78.2457 331.594C78.2898 331.55 78.3497 331.526 78.4121 331.526L111.77 327.234C111.832 327.229 111.893 327.247 111.942 327.285C111.992 327.323 112.025 327.377 112.037 327.438C112.041 327.47 112.039 327.502 112.031 327.533C112.022 327.563 112.008 327.592 111.988 327.617C111.968 327.642 111.943 327.662 111.915 327.678C111.887 327.693 111.857 327.702 111.825 327.705L78.4749 331.996H78.4121Z" fill="white"/>
<path opacity="0.7" d="M76.5527 329.769C76.4903 329.769 76.4305 329.744 76.3863 329.7C76.3422 329.656 76.3174 329.596 76.3174 329.534C76.3174 329.471 76.3422 329.411 76.3863 329.367C76.4305 329.323 76.4903 329.298 76.5527 329.298L109.911 325.007C109.973 324.999 110.036 325.015 110.086 325.054C110.136 325.092 110.169 325.149 110.177 325.211C110.186 325.273 110.169 325.337 110.131 325.387C110.092 325.437 110.036 325.469 109.973 325.478L76.6233 329.769H76.5527Z" fill="white"/>
<path opacity="0.7" d="M74.7016 327.541C74.6431 327.541 74.5865 327.519 74.543 327.48C74.4995 327.441 74.4721 327.387 74.4663 327.329C74.4595 327.267 74.4769 327.204 74.5149 327.155C74.5528 327.105 74.6085 327.072 74.6703 327.062L108.005 322.771C108.067 322.768 108.129 322.788 108.178 322.827C108.227 322.866 108.26 322.921 108.271 322.983C108.274 323.014 108.272 323.045 108.263 323.075C108.254 323.104 108.239 323.132 108.219 323.156C108.2 323.18 108.175 323.2 108.148 323.215C108.12 323.23 108.09 323.239 108.059 323.242L74.7095 327.541H74.7016Z" fill="white"/>
<path opacity="0.7" d="M72.8428 325.305C72.7804 325.305 72.7205 325.28 72.6764 325.236C72.6322 325.191 72.6074 325.132 72.6074 325.069C72.6074 325.007 72.6322 324.947 72.6764 324.903C72.7205 324.859 72.7804 324.834 72.8428 324.834L106.201 320.542C106.263 320.536 106.325 320.553 106.375 320.591C106.424 320.629 106.458 320.685 106.467 320.746C106.472 320.777 106.47 320.809 106.462 320.839C106.454 320.869 106.44 320.898 106.421 320.923C106.402 320.947 106.379 320.968 106.351 320.984C106.324 320.999 106.294 321.009 106.263 321.013L72.9055 325.305H72.8428Z" fill="white"/>
<path opacity="0.7" d="M70.9897 323.077C70.9323 323.077 70.8768 323.057 70.8334 323.019C70.7901 322.982 70.7619 322.93 70.7543 322.873C70.7499 322.842 70.7517 322.811 70.7596 322.78C70.7675 322.75 70.7814 322.722 70.8004 322.697C70.8193 322.672 70.8431 322.651 70.8702 322.636C70.8973 322.62 70.9273 322.61 70.9583 322.606L104.316 318.315C104.378 318.308 104.441 318.326 104.49 318.364C104.54 318.401 104.573 318.457 104.583 318.519C104.587 318.55 104.585 318.583 104.577 318.613C104.568 318.644 104.554 318.673 104.534 318.698C104.514 318.723 104.49 318.743 104.462 318.758C104.433 318.773 104.403 318.783 104.371 318.786L71.021 323.077H70.9897Z" fill="white"/>
<path opacity="0.7" d="M69.1317 320.842C69.0731 320.842 69.0166 320.82 68.973 320.781C68.9295 320.742 68.9022 320.688 68.8963 320.63C68.8914 320.568 68.9095 320.506 68.9471 320.457C68.9848 320.408 69.0393 320.374 69.1003 320.363L102.458 316.072C102.521 316.065 102.585 316.083 102.635 316.123C102.685 316.163 102.717 316.22 102.725 316.283C102.731 316.345 102.714 316.406 102.676 316.455C102.638 316.503 102.582 316.534 102.521 316.542L69.163 320.842H69.1317Z" fill="white"/>
<path opacity="0.7" d="M67.2797 318.612C67.2223 318.613 67.1668 318.593 67.1235 318.555C67.0801 318.517 67.052 318.465 67.0443 318.408C67.0399 318.378 67.0417 318.346 67.0496 318.316C67.0576 318.286 67.0714 318.257 67.0904 318.232C67.1094 318.207 67.1331 318.187 67.1602 318.171C67.1874 318.156 67.2173 318.146 67.2483 318.142L100.606 313.85C100.668 313.845 100.729 313.864 100.779 313.901C100.828 313.939 100.861 313.993 100.873 314.054C100.877 314.086 100.875 314.118 100.867 314.149C100.858 314.179 100.844 314.208 100.824 314.233C100.804 314.258 100.78 314.279 100.752 314.294C100.724 314.309 100.693 314.318 100.661 314.321L67.3111 318.612H67.2797Z" fill="white"/>
<path opacity="0.7" d="M65.4209 316.385C65.3585 316.385 65.2986 316.36 65.2545 316.316C65.2103 316.272 65.1855 316.212 65.1855 316.15C65.1855 316.087 65.2103 316.028 65.2545 315.983C65.2986 315.939 65.3585 315.914 65.4209 315.914L98.7787 311.623C98.8096 311.619 98.841 311.621 98.8711 311.629C98.9013 311.637 98.9295 311.651 98.9543 311.67C98.9791 311.689 98.9999 311.713 99.0155 311.739C99.0311 311.766 99.0413 311.796 99.0454 311.827C99.0495 311.858 99.0475 311.889 99.0395 311.92C99.0315 311.95 99.0176 311.978 98.9987 312.003C98.9797 312.028 98.9561 312.048 98.9291 312.064C98.9021 312.08 98.8724 312.09 98.8414 312.094L65.4837 316.385H65.4209Z" fill="white"/>
<path opacity="0.7" d="M63.5698 314.156C63.5113 314.157 63.4547 314.135 63.4112 314.096C63.3677 314.057 63.3403 314.003 63.3345 313.944C63.3276 313.882 63.345 313.82 63.383 313.77C63.421 313.721 63.4767 313.687 63.5384 313.678L96.8962 309.386C96.9592 309.382 97.0216 309.401 97.071 309.44C97.1204 309.479 97.1533 309.536 97.1629 309.598C97.1662 309.629 97.1633 309.66 97.1544 309.69C97.1455 309.72 97.1307 309.748 97.111 309.772C97.0913 309.796 97.0671 309.816 97.0396 309.831C97.0122 309.845 96.9821 309.854 96.9511 309.857L63.6012 314.156H63.5698Z" fill="white"/>
<path opacity="0.7" d="M61.7168 311.921C61.6544 311.921 61.5945 311.896 61.5504 311.852C61.5062 311.808 61.4814 311.748 61.4814 311.685C61.4814 311.623 61.5062 311.563 61.5504 311.519C61.5945 311.475 61.6544 311.45 61.7168 311.45L95.0746 307.159C95.1367 307.152 95.1991 307.169 95.2488 307.207C95.2985 307.245 95.3316 307.301 95.3413 307.363C95.3457 307.394 95.3439 307.425 95.336 307.455C95.3281 307.486 95.3143 307.514 95.2953 307.539C95.2763 307.564 95.2525 307.584 95.2254 307.6C95.1983 307.616 95.1684 307.626 95.1373 307.629L61.7168 311.921Z" fill="white"/>
</g>
<path d="M97.0205 158.343C97.0205 158.343 103.297 160.43 104.866 163.05C106.435 165.67 110.467 179.627 110.467 179.627" stroke="#263238" stroke-width="0.969857" stroke-linecap="round" stroke-linejoin="round"/>
</svg>
