<svg width="502" height="502" viewBox="0 0 502 502" fill="none" xmlns="http://www.w3.org/2000/svg">
<path d="M501 383.4H1V383.65H501V383.4Z" fill="#EBEBEB"/>
<path d="M450.9 399.49H417.78V399.74H450.9V399.49Z" fill="#EBEBEB"/>
<path d="M332.22 402.21H323.53V402.46H332.22V402.21Z" fill="#EBEBEB"/>
<path d="M416.78 390.21H397.59V390.46H416.78V390.21Z" fill="#EBEBEB"/>
<path d="M96.65 391.89H53.46V392.14H96.65V391.89Z" fill="#EBEBEB"/>
<path d="M111.89 391.89H105.56V392.14H111.89V391.89Z" fill="#EBEBEB"/>
<path d="M226.15 396.11H132.47V396.36H226.15V396.11Z" fill="#EBEBEB"/>
<path d="M238 338.8H44.91C43.3973 338.797 41.9475 338.195 40.8788 337.124C39.8102 336.053 39.21 334.603 39.21 333.09V61.66C39.2231 60.156 39.8292 58.718 40.8964 57.6582C41.9637 56.5985 43.4059 56.0026 44.91 56H238C239.514 56 240.967 56.6016 242.038 57.6724C243.108 58.7433 243.71 60.1956 243.71 61.71V333.09C243.71 334.604 243.108 336.057 242.038 337.128C240.967 338.198 239.514 338.8 238 338.8ZM44.91 56.2C43.4636 56.2026 42.0774 56.7791 41.0556 57.8027C40.0338 58.8264 39.46 60.2136 39.46 61.66V333.09C39.46 334.536 40.0338 335.924 41.0556 336.947C42.0774 337.971 43.4636 338.547 44.91 338.55H238C239.447 338.547 240.834 337.971 241.858 336.948C242.881 335.924 243.457 334.537 243.46 333.09V61.66C243.457 60.2127 242.881 58.8255 241.858 57.8021C240.834 56.7787 239.447 56.2026 238 56.2H44.91Z" fill="#EBEBEB"/>
<path d="M454.31 338.8H261.21C259.696 338.797 258.246 338.195 257.175 337.125C256.105 336.054 255.503 334.604 255.5 333.09V61.66C255.516 60.1551 256.124 58.7171 257.193 57.6576C258.262 56.5981 259.705 56.0025 261.21 56H454.31C455.812 56.0052 457.252 56.6022 458.317 57.6617C459.382 58.7212 459.987 60.1578 460 61.66V333.09C460 334.601 459.401 336.05 458.335 337.121C457.268 338.191 455.821 338.795 454.31 338.8ZM261.21 56.2C259.763 56.2026 258.375 56.7787 257.352 57.8021C256.329 58.8255 255.753 60.2127 255.75 61.66V333.09C255.753 334.537 256.329 335.924 257.352 336.948C258.375 337.971 259.763 338.547 261.21 338.55H454.31C455.757 338.547 457.145 337.971 458.168 336.948C459.191 335.924 459.767 334.537 459.77 333.09V61.66C459.767 60.2127 459.191 58.8255 458.168 57.8021C457.145 56.7787 455.757 56.2026 454.31 56.2H261.21Z" fill="#EBEBEB"/>
<path d="M180.14 243.69L411.83 243.69V89.6204L180.14 89.6204L180.14 243.69Z" fill="#E6E6E6"/>
<path d="M176.55 243.69L408.24 243.69V89.6204L176.55 89.6204L176.55 243.69Z" fill="#F5F5F5"/>
<path d="M401.8 236.45V96.8398L182.98 96.8398V236.45H401.8Z" fill="white"/>
<path d="M185.7 236.46V96.8496H182.99V236.46H185.7Z" fill="#E6E6E6"/>
<path d="M179.21 202.76L405.58 202.76V193.05L179.21 193.05V202.76Z" fill="#F5F5F5"/>
<g opacity="0.4">
<path opacity="0.4" d="M191.23 82.0098H169.36V212.35H191.23V82.0098Z" fill="#E6E6E6"/>
<path opacity="0.4" d="M191.24 201.88H202.08L202.08 82.0099H191.24V201.88Z" fill="#F5F5F5"/>
<path opacity="0.4" d="M223.95 82.0098H202.08V212.35H223.95V82.0098Z" fill="#E6E6E6"/>
<path opacity="0.4" d="M223.961 201.88H234.801L234.801 82.0099H223.961V201.88Z" fill="#F5F5F5"/>
<path opacity="0.4" d="M256.671 82.0098H234.801V212.35H256.671V82.0098Z" fill="#E6E6E6"/>
<path opacity="0.4" d="M256.68 201.88H267.521V82.0099H256.68V201.88Z" fill="#F5F5F5"/>
<path opacity="0.4" d="M289.391 82.0098H267.521V212.35H289.391V82.0098Z" fill="#E6E6E6"/>
<path opacity="0.4" d="M289.4 201.88H300.24V82.0099H289.4V201.88Z" fill="#F5F5F5"/>
<path opacity="0.4" d="M322.11 82.0098H300.24V212.35H322.11V82.0098Z" fill="#E6E6E6"/>
<path opacity="0.4" d="M322.11 201.88H332.95V82.0099H322.11V201.88Z" fill="#F5F5F5"/>
<path opacity="0.4" d="M354.82 82.0098H332.95V212.35H354.82V82.0098Z" fill="#E6E6E6"/>
<path opacity="0.4" d="M354.83 201.88H365.67V82.0099H354.83V201.88Z" fill="#F5F5F5"/>
<path opacity="0.4" d="M387.54 82.0098H365.67V212.35H387.54V82.0098Z" fill="#E6E6E6"/>
<path opacity="0.4" d="M387.551 201.88H398.391V82.0099H387.551V201.88Z" fill="#F5F5F5"/>
<path opacity="0.4" d="M420.261 82.0098H398.391V212.35H420.261V82.0098Z" fill="#E6E6E6"/>
</g>
<path d="M83.7901 383.4H135.08V278H83.7901L83.7901 383.4Z" fill="#EBEBEB"/>
<path d="M93.53 383.4H83.79V361.93H103.75L93.53 383.4Z" fill="#F5F5F5"/>
<path d="M376.43 383.4H427.72V278H376.43V383.4Z" fill="#EBEBEB"/>
<path d="M83.7897 370.23L384.93 370.23V278L83.7897 278V370.23Z" fill="#F5F5F5"/>
<path d="M374.92 344.21H285.65C285.433 344.21 285.224 344.123 285.07 343.97C284.916 343.816 284.83 343.607 284.83 343.39V285C284.83 284.782 284.916 284.574 285.07 284.42C285.224 284.266 285.433 284.18 285.65 284.18H302.13C302.307 284.176 302.48 284.233 302.62 284.34C305.07 286.131 307.787 287.525 310.67 288.47C314.147 289.621 317.788 290.202 321.45 290.19H339.11C345.866 290.309 352.483 288.27 358 284.37C358.138 284.264 358.307 284.208 358.48 284.21H374.97C375.188 284.21 375.396 284.296 375.55 284.45C375.704 284.604 375.79 284.812 375.79 285.03V343.39C375.79 343.502 375.768 343.613 375.723 343.716C375.679 343.819 375.614 343.911 375.533 343.988C375.451 344.065 375.355 344.124 375.249 344.162C375.144 344.201 375.032 344.217 374.92 344.21ZM286.47 342.57H374.1V285.85H358.7C352.959 289.851 346.107 291.95 339.11 291.85H321.45C317.61 291.862 313.794 291.251 310.15 290.04C307.192 289.069 304.4 287.653 301.87 285.84H286.47V342.57Z" fill="#E6E6E6"/>
<path d="M279 344.21H189.72C189.503 344.21 189.294 344.123 189.141 343.97C188.987 343.816 188.9 343.607 188.9 343.39V285C188.9 284.782 188.987 284.574 189.141 284.42C189.294 284.266 189.503 284.18 189.72 284.18H205.31C205.487 284.176 205.66 284.233 205.8 284.34C208.233 286.13 210.933 287.524 213.8 288.47C217.277 289.621 220.918 290.202 224.58 290.19H242.24C248.973 290.289 255.562 288.24 261.05 284.34C261.192 284.235 261.364 284.179 261.54 284.18H279C279.108 284.179 279.216 284.199 279.316 284.24C279.416 284.28 279.507 284.341 279.583 284.417C279.66 284.493 279.72 284.584 279.761 284.685C279.801 284.785 279.822 284.892 279.82 285V343.36C279.824 343.47 279.806 343.58 279.767 343.683C279.727 343.786 279.668 343.88 279.591 343.959C279.515 344.039 279.423 344.102 279.321 344.145C279.22 344.188 279.111 344.21 279 344.21ZM190.55 342.57H278.18V285.85H261.86C256.126 289.849 249.281 291.948 242.29 291.85H224.63C220.791 291.862 216.974 291.251 213.33 290.04C210.367 289.076 207.571 287.659 205.04 285.84H190.54L190.55 342.57Z" fill="#E6E6E6"/>
<path d="M183.07 344.21H93.7996C93.5821 344.21 93.3735 344.123 93.2197 343.97C93.0659 343.816 92.9796 343.607 92.9796 343.39V285C92.9782 284.892 92.9985 284.785 93.0392 284.685C93.08 284.584 93.1403 284.493 93.2167 284.417C93.2931 284.341 93.3841 284.28 93.4842 284.24C93.5843 284.199 93.6915 284.179 93.7996 284.18H109.39C109.563 284.178 109.732 284.234 109.87 284.34C112.304 286.126 115.003 287.52 117.87 288.47C121.35 289.621 124.994 290.202 128.66 290.19H146.32C153.058 290.288 159.653 288.239 165.15 284.34C165.29 284.233 165.463 284.176 165.64 284.18H183.02C183.237 284.18 183.446 284.266 183.599 284.42C183.753 284.574 183.84 284.782 183.84 285V343.36C183.848 343.574 183.772 343.783 183.628 343.942C183.484 344.101 183.284 344.197 183.07 344.21ZM94.6196 342.57H182.25V285.85H166C160.262 289.85 153.413 291.948 146.42 291.85H128.71C124.87 291.864 121.053 291.252 117.41 290.04C114.446 289.076 111.65 287.659 109.12 285.84H94.6196V342.57Z" fill="#E6E6E6"/>
<path d="M375.19 383.4H384.93V361.93H364.98L375.19 383.4Z" fill="#F5F5F5"/>
<path d="M144.94 260.34H136.85C136.91 254.74 136.85 240.52 136.28 207.95C135.28 148.95 133.41 145.31 133.41 145.31L143 174.45C145.277 181.303 146.603 188.436 146.94 195.65C148 218.37 144 236.51 144.94 260.34Z" fill="#E6E6E6"/>
<path d="M151.09 165.66C161.88 149.33 183.42 140.81 205.44 132.79C214.08 129.64 189.82 168.71 172.18 186.43C158.48 200.19 145.18 199.88 141.25 213.43C140.49 197.69 141.79 179.73 151.09 165.66Z" fill="#E6E6E6"/>
<path d="M138.73 155.18C130.27 136.08 108.9 111.31 84.8802 93.8604C75.4502 87.0104 98.7202 145.86 115.13 169.92C127.91 188.68 139.83 200.1 141.69 213.48C149.75 196.74 147.18 174.27 138.73 155.18Z" fill="#E6E6E6"/>
<path d="M139.53 278C144.103 278 148.503 276.25 151.827 273.11C155.152 269.969 157.149 265.676 157.41 261.11L159 244.92H120.06L121.64 261.11C121.902 265.677 123.902 269.97 127.228 273.11C130.554 276.25 134.955 278 139.53 278Z" fill="#F0F0F0"/>
<path d="M117.54 245.01H161.52L162.78 239.26H116.28L117.54 245.01Z" fill="#F0F0F0"/>
<path d="M119.71 254.87H159.35L160.49 249.12H118.57L119.71 254.87Z" fill="#F0F0F0"/>
<path d="M251 428.56C358.083 428.56 444.89 423.492 444.89 417.24C444.89 410.988 358.083 405.92 251 405.92C143.918 405.92 57.1104 410.988 57.1104 417.24C57.1104 423.492 143.918 428.56 251 428.56Z" fill="#F5F5F5"/>
<path d="M406.28 319.33H95.71V354.49H406.28V319.33Z" fill="#9468B4"/>
<path opacity="0.3" d="M406.29 319.33H339.67V354.49H406.29V319.33Z" fill="black"/>
<path d="M130 354.49H95.71V417.24H130V354.49Z" fill="#9468B4"/>
<path opacity="0.3" d="M95.7197 354.49V358L120 365.33V417.24H130V354.49H95.7197Z" fill="black"/>
<path d="M406.29 354.49H372V417.24H406.29V354.49Z" fill="#9468B4"/>
<path opacity="0.2" d="M406.29 354.49H372V417.24H406.29V354.49Z" fill="black"/>
<path opacity="0.3" d="M372 354.49V358L396.29 365.33V417.24H406.29V354.49H372Z" fill="black"/>
<path d="M339.67 354.49H305.38V417.24H339.67V354.49Z" fill="#9468B4"/>
<path opacity="0.3" d="M305.38 354.49V358L329.67 365.33V417.24H339.67V354.49H305.38Z" fill="black"/>
<path d="M196.62 354.49H162.33V417.24H196.62V354.49Z" fill="#9468B4"/>
<path opacity="0.2" d="M196.62 354.49H162.33V417.24H196.62V354.49Z" fill="black"/>
<path opacity="0.3" d="M162.33 354.49V358L186.62 365.33V417.24H196.62V354.49H162.33Z" fill="black"/>
<path d="M363.48 312.42H173.6C173.008 312.424 172.422 312.306 171.879 312.073C171.335 311.839 170.846 311.495 170.441 311.063C170.037 310.631 169.727 310.119 169.531 309.561C169.334 309.003 169.256 308.41 169.3 307.82L177.12 183.73C177.219 182.493 177.774 181.337 178.678 180.487C179.582 179.637 180.77 179.153 182.01 179.13H371.88C372.472 179.126 373.058 179.244 373.602 179.477C374.145 179.711 374.635 180.055 375.039 180.487C375.443 180.919 375.753 181.431 375.949 181.989C376.146 182.547 376.224 183.14 376.18 183.73L368.36 307.82C368.261 309.055 367.707 310.21 366.806 311.059C365.904 311.909 364.719 312.394 363.48 312.42Z" fill="#263238"/>
<path opacity="0.6" d="M363.48 312.42H173.6C173.008 312.424 172.422 312.306 171.879 312.073C171.335 311.839 170.846 311.495 170.441 311.063C170.037 310.631 169.727 310.119 169.531 309.561C169.334 309.003 169.256 308.41 169.3 307.82L177.12 183.73C177.219 182.493 177.774 181.337 178.678 180.487C179.582 179.637 180.77 179.153 182.01 179.13H371.88C372.472 179.126 373.058 179.244 373.602 179.477C374.145 179.711 374.635 180.055 375.039 180.487C375.443 180.919 375.753 181.431 375.949 181.989C376.146 182.547 376.224 183.14 376.18 183.73L368.36 307.82C368.261 309.055 367.707 310.21 366.806 311.059C365.904 311.909 364.719 312.394 363.48 312.42Z" fill="black"/>
<path d="M362.06 312.42H172.19C171.598 312.426 171.01 312.309 170.465 312.076C169.921 311.843 169.43 311.499 169.025 311.067C168.62 310.634 168.309 310.122 168.112 309.564C167.915 309.005 167.836 308.411 167.88 307.82L175.7 183.73C175.799 182.493 176.355 181.337 177.258 180.487C178.162 179.637 179.35 179.153 180.59 179.13H370.46C371.052 179.124 371.639 179.241 372.184 179.475C372.728 179.708 373.218 180.051 373.622 180.484C374.027 180.917 374.337 181.429 374.533 181.987C374.728 182.546 374.806 183.14 374.76 183.73L366.94 307.82C366.841 309.055 366.287 310.21 365.386 311.06C364.484 311.909 363.299 312.394 362.06 312.42Z" fill="#263238"/>
<path d="M361.82 314H135.89C134.85 313.991 133.829 314.276 132.944 314.823C132.059 315.37 131.347 316.156 130.89 317.09C130.774 317.333 130.723 317.601 130.739 317.869C130.756 318.138 130.841 318.397 130.987 318.624C131.132 318.85 131.332 319.035 131.569 319.163C131.806 319.29 132.071 319.354 132.34 319.35H365.32C365.589 319.354 365.854 319.29 366.091 319.163C366.328 319.035 366.529 318.85 366.674 318.624C366.819 318.397 366.904 318.138 366.921 317.869C366.938 317.601 366.886 317.333 366.77 317.09C366.319 316.162 365.615 315.38 364.74 314.833C363.864 314.287 362.852 313.998 361.82 314Z" fill="#263238"/>
<path opacity="0.6" d="M361.82 314H329.69C328.657 313.997 327.645 314.285 326.769 314.831C325.894 315.378 325.19 316.161 324.74 317.09C324.624 317.332 324.573 317.599 324.589 317.867C324.605 318.134 324.689 318.393 324.833 318.619C324.977 318.845 325.177 319.031 325.412 319.159C325.648 319.287 325.912 319.352 326.18 319.35H365.32C365.589 319.354 365.854 319.29 366.091 319.162C366.328 319.035 366.528 318.85 366.674 318.623C366.819 318.397 366.904 318.138 366.921 317.869C366.937 317.601 366.886 317.333 366.77 317.09C366.319 316.162 365.615 315.379 364.739 314.833C363.864 314.286 362.852 313.998 361.82 314Z" fill="black"/>
<path d="M341.9 317.899H333.6C333.408 317.897 333.225 317.819 333.09 317.682C332.955 317.546 332.88 317.361 332.88 317.169C332.88 316.978 332.955 316.793 333.09 316.657C333.225 316.52 333.408 316.442 333.6 316.439H341.9C341.996 316.439 342.091 316.458 342.179 316.495C342.268 316.532 342.348 316.585 342.416 316.653C342.484 316.721 342.538 316.802 342.574 316.89C342.611 316.979 342.63 317.074 342.63 317.169C342.63 317.265 342.611 317.36 342.574 317.449C342.538 317.537 342.484 317.618 342.416 317.686C342.348 317.753 342.268 317.807 342.179 317.844C342.091 317.881 341.996 317.899 341.9 317.899Z" fill="#9468B4"/>
<path opacity="0.7" d="M235.17 317.899H226.88C226.687 317.899 226.501 317.823 226.364 317.686C226.227 317.549 226.15 317.363 226.15 317.169C226.15 317.074 226.169 316.979 226.206 316.89C226.243 316.802 226.296 316.721 226.364 316.653C226.432 316.585 226.512 316.532 226.601 316.495C226.69 316.458 226.785 316.439 226.88 316.439H235.17C235.266 316.439 235.361 316.458 235.45 316.495C235.538 316.532 235.619 316.585 235.687 316.653C235.754 316.721 235.808 316.802 235.845 316.89C235.882 316.979 235.9 317.074 235.9 317.169C235.9 317.363 235.823 317.549 235.687 317.686C235.55 317.823 235.364 317.899 235.17 317.899Z" fill="white"/>
<path d="M350.49 316.439H345.06C344.729 316.439 344.46 316.708 344.46 317.039V317.299C344.46 317.631 344.729 317.899 345.06 317.899H350.49C350.821 317.899 351.09 317.631 351.09 317.299V317.039C351.09 316.708 350.821 316.439 350.49 316.439Z" fill="#9468B4"/>
<path d="M172.16 303.34L179.42 188.21C179.457 187.73 179.673 187.281 180.025 186.951C180.376 186.622 180.838 186.436 181.32 186.43H368.81C369.04 186.426 369.268 186.471 369.479 186.561C369.691 186.65 369.881 186.783 370.038 186.951C370.196 187.118 370.316 187.317 370.392 187.534C370.468 187.751 370.498 187.981 370.48 188.21L363.23 303.34C363.19 303.821 362.972 304.27 362.619 304.599C362.266 304.928 361.803 305.114 361.32 305.12H173.84C173.61 305.122 173.383 305.076 173.171 304.986C172.96 304.896 172.769 304.763 172.612 304.596C172.454 304.429 172.333 304.231 172.255 304.015C172.177 303.799 172.145 303.569 172.16 303.34Z" fill="white"/>
<path opacity="0.1" d="M278.82 182.88L216.37 301.58H170.3C170.069 301.583 169.84 301.539 169.627 301.448C169.415 301.358 169.223 301.225 169.065 301.056C168.907 300.888 168.785 300.688 168.709 300.47C168.632 300.252 168.602 300.02 168.62 299.79L175.88 184.67C175.918 184.189 176.133 183.739 176.484 183.408C176.836 183.077 177.298 182.888 177.78 182.88H278.82Z" fill="#9468B4"/>
<path opacity="0.1" d="M333.51 182.88L271.06 301.58H256.5L318.95 182.88H333.51Z" fill="#9468B4"/>
<path opacity="0.1" d="M366.94 184.669L359.68 299.789C359.645 300.272 359.431 300.723 359.079 301.054C358.727 301.386 358.264 301.573 357.78 301.579H286.78L349.23 182.879H365.23C365.463 182.873 365.695 182.916 365.911 183.005C366.126 183.094 366.321 183.227 366.482 183.395C366.643 183.564 366.767 183.764 366.846 183.984C366.925 184.203 366.957 184.437 366.94 184.669Z" fill="#9468B4"/>
<path opacity="0.4" d="M276.631 182.999C276.603 183.362 276.441 183.702 276.177 183.951C275.912 184.201 275.564 184.343 275.201 184.35C275.027 184.351 274.855 184.317 274.695 184.249C274.535 184.18 274.391 184.08 274.273 183.952C274.154 183.825 274.063 183.675 274.006 183.511C273.949 183.347 273.927 183.173 273.941 182.999C273.966 182.636 274.127 182.295 274.392 182.045C274.657 181.795 275.006 181.654 275.371 181.649C275.544 181.648 275.717 181.682 275.876 181.75C276.036 181.819 276.18 181.919 276.298 182.047C276.417 182.174 276.508 182.324 276.565 182.488C276.622 182.652 276.644 182.826 276.631 182.999Z" fill="white"/>
<path d="M245.651 155.39C240.181 161.65 237.021 180.84 241.071 190.28C245.121 199.72 198.131 209.17 236.901 224.51C275.671 239.85 306.681 222.06 295.461 206.17C284.241 190.28 296.671 163.82 283.681 157.17C271.941 151.11 256.611 142.84 245.651 155.39Z" fill="#263238"/>
<path d="M234.3 232.73L234.369 232.494L234.134 232.421L221.274 228.441L221.036 228.367L220.962 228.605C218.761 235.606 216.621 242.607 214.54 249.608L214.54 249.61L208.43 270.609L208.43 270.61L207.66 273.209L207.66 273.209L207.289 274.471C206.427 274.479 205.569 274.345 204.749 274.072L204.749 274.072L204.735 274.068C203.23 273.661 201.758 273.14 200.331 272.511C197.183 271.12 194.117 269.552 191.146 267.814C190.822 267.624 190.496 267.434 190.168 267.243C188.96 266.539 187.739 265.827 186.562 265.097C185.064 264.168 183.515 263.179 182.065 262.249L181.881 262.131L181.739 262.298L177.429 267.378L177.284 267.55L177.439 267.712C182.768 273.296 188.794 278.17 195.369 282.213L195.369 282.213L195.373 282.215C197.188 283.29 199.081 284.228 201.035 285.021C203.44 286.016 206.019 286.522 208.621 286.51L208.625 286.51C210.497 286.477 212.334 285.993 213.979 285.099L213.983 285.098C215.797 284.076 217.289 282.566 218.289 280.74L218.289 280.74L218.293 280.734C218.337 280.648 218.383 280.56 218.43 280.469C218.591 280.163 218.762 279.837 218.882 279.532C218.882 279.532 218.883 279.532 218.883 279.531L219.122 278.944L219.122 278.944L219.123 278.939L219.273 278.549L219.273 278.549L219.275 278.546L219.755 277.236L219.755 277.235L220.705 274.615L220.705 274.614C223.196 267.661 225.547 260.739 227.808 253.737C230.069 246.735 232.249 239.733 234.3 232.73Z" fill="white" stroke="black" stroke-width="0.5"/>
<path d="M225.58 214.55C220.26 215.9 216.58 237.77 216.58 237.77L231.23 247.77C231.23 247.77 245.23 225.71 241.18 219.87C236.88 213.74 233.33 212.58 225.58 214.55Z" fill="#9468B4"/>
<path opacity="0.5" d="M225.58 214.55C220.26 215.9 216.58 237.77 216.58 237.77L231.23 247.77C231.23 247.77 245.23 225.71 241.18 219.87C236.88 213.74 233.33 212.58 225.58 214.55Z" fill="white"/>
<path opacity="0.2" d="M225.1 222.5L236.47 225.13L237.56 236.26C235.633 240.189 233.507 244.018 231.19 247.73L222.3 241.73C222.69 236.58 223.65 226 225.1 222.5Z" fill="black"/>
<path d="M225.58 214.55C225.58 214.55 219.43 216.71 231.74 292.37H284.1C283.22 271.06 283.2 257.91 293.38 214.18C286.051 212.665 278.622 211.685 271.15 211.25C262.34 210.82 255.15 210.54 247.37 211.25C237.16 212.18 225.58 214.55 225.58 214.55Z" fill="#9468B4"/>
<path opacity="0.5" d="M225.58 214.55C225.58 214.55 219.43 216.71 231.74 292.37H284.1C283.22 271.06 283.2 257.91 293.38 214.18C286.051 212.665 278.622 211.685 271.15 211.25C262.34 210.82 255.15 210.54 247.37 211.25C237.16 212.18 225.58 214.55 225.58 214.55Z" fill="white"/>
<path opacity="0.2" d="M281.06 234.479L287.82 240.24C286.38 247.89 285.41 254.239 284.82 259.929C283.53 254.249 280.31 238.829 281.06 234.479Z" fill="black"/>
<path d="M269.036 184.518L269.174 183.813L268.628 184.28L254.038 196.75L253.921 196.85L253.958 197C254.696 199.964 255.105 202.982 254.301 205.496C253.507 207.981 251.511 210.022 247.314 211.006L247.218 211.029L247.163 211.11L247.371 211.25C247.163 211.11 247.163 211.11 247.163 211.11L247.163 211.111L247.161 211.113L247.157 211.12L247.14 211.146C247.125 211.168 247.103 211.201 247.076 211.244C247.022 211.33 246.944 211.456 246.85 211.615C246.662 211.933 246.408 212.387 246.146 212.932C245.624 214.018 245.059 215.481 244.918 216.956C244.777 218.434 245.06 219.956 246.275 221.101C247.482 222.239 249.56 222.96 252.901 222.96C259.606 222.96 264.228 220.058 267.17 217.158C268.64 215.709 269.69 214.26 270.374 213.173C270.716 212.63 270.966 212.176 271.132 211.857C271.215 211.698 271.276 211.572 271.317 211.486C271.338 211.442 271.353 211.409 271.363 211.386L271.375 211.36L271.378 211.353L271.379 211.351L271.38 211.35C271.38 211.35 271.38 211.35 271.151 211.25L271.38 211.35L271.45 211.189L271.323 211.069C270.028 209.834 269.134 208.047 268.551 205.919C267.968 203.793 267.702 201.345 267.648 198.807C267.541 193.731 268.288 188.333 269.036 184.518Z" fill="white" stroke="black" stroke-width="0.5"/>
<path d="M269.45 208.39C268.19 210.94 264.13 216.77 252.79 218.85C252.475 218.908 252.15 218.844 251.88 218.67C249.76 217.19 248.44 214.06 249.37 210.43C249.432 210.207 249.43 209.971 249.365 209.749C249.299 209.527 249.173 209.328 249.001 209.174C248.828 209.02 248.615 208.918 248.387 208.878C248.159 208.839 247.925 208.864 247.71 208.95C246.839 209.315 246.003 209.757 245.21 210.27C245.036 210.386 244.895 210.544 244.8 210.73C243.97 212.29 240.61 219.93 250.75 224.64C250.912 224.709 251.085 224.75 251.26 224.76C257.26 224.88 267.75 223.7 274.38 211.76C274.499 211.545 274.552 211.299 274.532 211.054C274.512 210.809 274.422 210.574 274.27 210.38C273.379 209.405 272.344 208.572 271.2 207.91C271.056 207.818 270.895 207.757 270.725 207.731C270.556 207.705 270.384 207.715 270.218 207.76C270.053 207.806 269.9 207.885 269.767 207.994C269.635 208.102 269.527 208.237 269.45 208.39Z" fill="#FAFAFA"/>
<path d="M272.231 239.869L258.731 239.479C258.59 239.48 258.45 239.451 258.321 239.394C258.192 239.337 258.076 239.254 257.982 239.149C257.887 239.044 257.816 238.92 257.773 238.786C257.729 238.652 257.715 238.51 257.731 238.369L257.861 236.699C257.9 236.419 258.04 236.162 258.256 235.977C258.472 235.793 258.747 235.694 259.031 235.699L272.531 236.089C272.673 236.088 272.813 236.118 272.943 236.175C273.073 236.233 273.189 236.317 273.284 236.423C273.378 236.529 273.449 236.654 273.492 236.79C273.535 236.925 273.548 237.068 273.531 237.209L273.401 238.869C273.362 239.15 273.221 239.407 273.005 239.591C272.79 239.776 272.514 239.875 272.231 239.869Z" fill="#FAFAFA"/>
<path opacity="0.2" d="M262.84 189.56L254.2 196.93C254.571 198.312 254.818 199.724 254.94 201.15C258.19 200.68 262.67 197.1 263.02 193.69C263.211 192.313 263.15 190.914 262.84 189.56Z" fill="black"/>
<path d="M279.115 170.048C279.717 167.097 279.555 164.04 278.645 161.169C277.735 158.296 276.107 155.704 273.915 153.637C271.723 151.57 269.04 150.097 266.119 149.357C263.199 148.617 260.138 148.634 257.226 149.408C250.566 151.157 246.209 156.748 243.675 163.326C241.141 169.908 240.413 177.525 241.041 183.426C242.445 196.677 257.601 202.451 268.624 193.806C272.278 190.945 274.304 188.149 275.715 184.482C276.998 181.146 277.772 177.088 278.814 171.624C278.912 171.111 279.012 170.586 279.115 170.048ZM279.115 170.048C279.115 170.049 279.115 170.049 279.115 170.05L278.87 170L279.115 170.047C279.115 170.047 279.115 170.048 279.115 170.048Z" fill="white" stroke="black" stroke-width="0.5"/>
<path d="M271.72 160.7C270.16 168.57 269.79 179 277 179C284.21 179 289.86 166.73 283.64 157.12C277.42 147.51 272.63 156.06 271.72 160.7Z" fill="#263238"/>
<path d="M284.18 161.67C284.18 170.23 273.4 166 268.63 162.31C263.86 158.62 263.63 159.02 254.79 159.01C245.95 159 244.18 158.39 241.57 154.17C238.96 149.95 239.2 147.17 245.08 148.06C250.96 148.95 246.02 142.95 250.4 139.62C254.78 136.29 259.97 137.13 265.96 144.73C271.95 152.33 284.18 146.84 284.18 161.67Z" fill="#263238"/>
<path d="M281.015 181.185C282.15 177.316 281.037 173.584 278.53 172.849C276.023 172.114 273.072 174.654 271.938 178.523C270.803 182.392 271.916 186.124 274.423 186.859C276.93 187.594 279.881 185.053 281.015 181.185Z" fill="white"/>
<path d="M261 190.86C258.679 190.86 256.382 190.387 254.25 189.47C254.204 189.451 254.163 189.424 254.128 189.389C254.093 189.354 254.066 189.313 254.047 189.267C254.028 189.222 254.019 189.173 254.02 189.123C254.02 189.074 254.03 189.025 254.05 188.98C254.092 188.889 254.167 188.817 254.26 188.78C254.353 188.743 254.457 188.743 254.55 188.78C256.559 189.642 258.721 190.093 260.908 190.105C263.095 190.117 265.261 189.69 267.28 188.85C269.244 188.047 271.026 186.859 272.524 185.356C274.022 183.853 275.203 182.066 276 180.1C279 171.51 282.06 160.79 278.52 154.1C277.808 152.798 276.823 151.665 275.632 150.78C274.441 149.894 273.072 149.277 271.62 148.97C271.524 148.944 271.441 148.881 271.391 148.795C271.34 148.709 271.326 148.607 271.35 148.51C271.376 148.414 271.439 148.331 271.525 148.281C271.611 148.23 271.713 148.216 271.81 148.24C273.361 148.574 274.823 149.238 276.094 150.187C277.366 151.136 278.419 152.348 279.18 153.74C282.86 160.65 279.79 171.58 276.7 180.33C275.862 182.395 274.619 184.271 273.044 185.848C271.469 187.424 269.594 188.67 267.53 189.51C265.462 190.379 263.244 190.838 261 190.86Z" fill="white"/>
<path opacity="0.6" d="M280.65 181.22C279.76 184.22 277.72 186.33 276.09 185.86C274.46 185.39 273.86 182.53 274.75 179.49C275.64 176.45 277.68 174.37 279.31 174.85C280.94 175.33 281.54 178.18 280.65 181.22Z" fill="#9468B4"/>
<path d="M255.289 187.815L251.371 187.059C250.682 186.926 250.016 187.377 249.883 188.065L249.84 188.291C249.707 188.98 250.158 189.646 250.846 189.779L254.764 190.535C255.453 190.668 256.119 190.217 256.252 189.528L256.295 189.302C256.428 188.614 255.977 187.948 255.289 187.815Z" fill="white"/>
<path d="M250.17 171.05C250.17 171.05 247.85 175.26 245.65 177.15C246.84 178.6 249.24 178.32 249.24 178.32L250.17 171.05Z" fill="#A02724"/>
<path d="M252.38 183.7H252.47C254.737 183.879 256.988 183.193 258.77 181.78C258.807 181.742 258.827 181.692 258.827 181.64C258.827 181.587 258.807 181.537 258.77 181.5C258.752 181.482 258.731 181.468 258.708 181.458C258.685 181.448 258.66 181.443 258.635 181.443C258.61 181.443 258.585 181.448 258.562 181.458C258.539 181.468 258.518 181.482 258.5 181.5C256.799 182.837 254.658 183.49 252.5 183.33C252.474 183.325 252.448 183.327 252.423 183.333C252.397 183.339 252.374 183.351 252.353 183.367C252.332 183.383 252.315 183.403 252.303 183.426C252.29 183.449 252.282 183.474 252.28 183.5C252.275 183.539 252.282 183.579 252.299 183.615C252.317 183.651 252.345 183.68 252.38 183.7Z" fill="#263238"/>
<path d="M263.82 166.1C263.877 166.131 263.941 166.148 264.005 166.148C264.07 166.148 264.134 166.131 264.19 166.1C264.276 166.043 264.336 165.954 264.359 165.854C264.381 165.753 264.364 165.648 264.31 165.56C263.832 164.759 263.17 164.084 262.379 163.59C261.587 163.096 260.69 162.798 259.76 162.72C259.656 162.72 259.556 162.76 259.481 162.833C259.406 162.906 259.363 163.005 259.36 163.11C259.36 163.211 259.4 163.309 259.471 163.382C259.542 163.455 259.639 163.497 259.74 163.5C260.541 163.576 261.313 163.841 261.992 164.271C262.672 164.702 263.24 165.288 263.65 165.98C263.695 166.034 263.754 166.076 263.82 166.1Z" fill="#263238"/>
<path d="M258.09 171.22C257.92 172.22 257.23 172.99 256.55 172.88C255.87 172.77 255.48 171.88 255.65 170.8C255.82 169.72 256.52 169.03 257.19 169.14C257.86 169.25 258.27 170.19 258.09 171.22Z" fill="#263238"/>
<path d="M246.43 169.24C246.26 170.24 245.57 171.01 244.89 170.9C244.21 170.79 243.82 169.85 243.99 168.82C244.16 167.79 244.86 167.04 245.53 167.16C246.2 167.28 246.61 168.2 246.43 169.24Z" fill="#263238"/>
<path d="M245.82 167.27L243.46 166.13C243.46 166.13 244.4 168.28 245.82 167.27Z" fill="#263238"/>
<path d="M257.48 169.25L255.12 168.12C255.12 168.12 256.06 170.27 257.48 169.25Z" fill="#263238"/>
<path d="M242.471 162.27C242.531 162.307 242.6 162.326 242.671 162.326C242.741 162.326 242.81 162.307 242.871 162.27C243.488 161.752 244.221 161.39 245.008 161.216C245.795 161.042 246.612 161.06 247.391 161.27C247.489 161.305 247.597 161.299 247.69 161.254C247.784 161.209 247.856 161.129 247.891 161.03C247.925 160.932 247.919 160.824 247.874 160.731C247.829 160.637 247.749 160.565 247.651 160.53C246.753 160.275 245.807 160.24 244.893 160.428C243.979 160.616 243.124 161.021 242.401 161.61C242.359 161.64 242.324 161.678 242.297 161.722C242.271 161.765 242.254 161.814 242.247 161.865C242.241 161.916 242.245 161.967 242.259 162.016C242.273 162.066 242.298 162.111 242.331 162.15C242.364 162.204 242.413 162.246 242.471 162.27Z" fill="#263238"/>
<path d="M229.75 305.12C229.75 305.12 229.61 297.96 231.75 292.37H284.1C284.1 292.37 288.81 299.97 290.03 305.12H229.75Z" fill="#9468B4"/>
<path d="M284.89 289.3L285.3 293.98C285.49 294.35 285.06 294.72 284.45 294.72H231.45C230.98 294.72 230.59 294.49 230.56 294.19L230.08 289.5C230.08 289.18 230.46 288.9 230.98 288.9H283.98C284.153 288.882 284.329 288.909 284.488 288.979C284.648 289.049 284.786 289.16 284.89 289.3Z" fill="#9468B4"/>
<path opacity="0.3" d="M284.89 289.3L285.3 293.98C285.49 294.35 285.06 294.72 284.45 294.72H231.45C230.98 294.72 230.59 294.49 230.56 294.19L230.08 289.5C230.08 289.18 230.46 288.9 230.98 288.9H283.98C284.153 288.882 284.329 288.909 284.488 288.979C284.648 289.049 284.786 289.16 284.89 289.3Z" fill="#FAFAFA"/>
<path d="M277.76 295.22H279.18C279.47 295.22 279.68 295.08 279.66 294.9L279 288.81C279 288.63 278.73 288.49 278.45 288.49H277C276.71 288.49 276.5 288.63 276.52 288.81L277.18 294.9C277.23 295.08 277.48 295.22 277.76 295.22Z" fill="#9468B4"/>
<path d="M235.47 295.22H236.89C237.17 295.22 237.39 295.08 237.37 294.9L236.7 288.81C236.7 288.63 236.44 288.49 236.15 288.49H234.73C234.45 288.49 234.23 288.63 234.25 288.81L234.92 294.9C234.94 295.08 235.19 295.22 235.47 295.22Z" fill="#9468B4"/>
<path d="M256.621 295.22H258.001C258.281 295.22 258.501 295.08 258.481 294.9L257.811 288.81C257.811 288.63 257.541 288.49 257.261 288.49H255.841C255.561 288.49 255.341 288.63 255.361 288.81L256.031 294.9C256.091 295.08 256.331 295.22 256.621 295.22Z" fill="#9468B4"/>
<path d="M298.027 228.691L298.099 228.926C300.4 236.395 302.61 243.903 304.731 251.452L298.027 228.691ZM298.027 228.691L297.791 228.76M298.027 228.691L297.791 228.76M322.099 255.374C324.502 247.736 326.443 240.068 328.105 232.262L328.153 232.036L327.931 231.97L321.541 230.07L321.325 230.006L321.239 230.214C320.535 231.918 319.846 233.623 319.156 235.33C318.389 237.228 317.621 239.129 316.829 241.034C316.463 241.916 316.099 242.796 315.737 243.674C314.615 246.391 313.502 249.086 312.331 251.76C312.267 251.907 312.202 252.054 312.138 252.201C310.692 255.505 309.26 258.777 307.684 261.878L304.731 251.452L313.38 275.71L313.587 275.85C313.587 275.85 313.588 275.85 313.588 275.849C314.269 274.84 314.889 273.79 315.442 272.704M322.099 255.374C320.917 259.209 319.605 263.005 318.093 266.851L318.092 266.854C317.31 268.777 316.477 270.705 315.442 272.704M322.099 255.374C322.099 255.374 322.099 255.374 322.099 255.374L321.86 255.3L322.099 255.375C322.099 255.375 322.099 255.374 322.099 255.374ZM315.442 272.704C315.442 272.705 315.442 272.705 315.442 272.705L315.22 272.59L315.443 272.704C315.443 272.704 315.443 272.704 315.442 272.704ZM307.78 262.24C307.727 262.348 307.673 262.456 307.619 262.564L307.518 262.207L307.78 262.24ZM307.78 262.24C307.782 262.237 307.783 262.234 307.785 262.231L307.78 262.24ZM297.791 228.76L284.881 232.5L284.643 232.569L284.709 232.807C286.83 240.377 289.118 247.91 291.572 255.407C292.727 259.016 293.956 262.607 295.187 266.203L295.333 266.63C295.333 266.63 295.333 266.63 295.334 266.631C295.875 268.236 296.46 269.842 297.044 271.445C297.141 271.712 297.238 271.979 297.335 272.245L297.336 272.247M297.791 228.76L297.336 272.247M297.336 272.247L297.855 273.656L297.856 273.657L297.336 272.247ZM312.166 277.657C312.167 277.657 312.167 277.656 312.168 277.655L311.98 277.49L312.164 277.659C312.165 277.659 312.165 277.658 312.166 277.657ZM301.389 279.169C301.389 279.169 301.39 279.17 301.39 279.17L301.54 278.97L301.389 279.169C301.389 279.169 301.389 279.169 301.389 279.169ZM298.306 274.857L298.307 274.86L298.54 274.77L298.304 274.853C298.305 274.854 298.305 274.855 298.306 274.857Z" fill="white" stroke="black" stroke-width="0.5"/>
<path d="M293.38 214.18C298.63 215.77 306.66 236.36 306.66 236.36L286.31 250.91C286.31 250.91 277.16 233.31 279.36 226.53C281.66 219.47 287.4 212.36 293.38 214.18Z" fill="#9468B4"/>
<path opacity="0.5" d="M293.38 214.18C298.63 215.77 306.66 236.36 306.66 236.36L286.31 250.91C286.31 250.91 277.16 233.31 279.36 226.53C281.66 219.47 287.4 212.36 293.38 214.18Z" fill="white"/>
<mask id="path-107-outside-1" maskUnits="userSpaceOnUse" x="158.75" y="209.99" width="173" height="63" fill="black">
<rect fill="white" x="158.75" y="209.99" width="173" height="63"/>
<path fill-rule="evenodd" clip-rule="evenodd" d="M331.17 216.24L323.77 210.99L318.91 220.75V220.75L321.7 233.05L325.97 237.76C330.65 235.15 330.51 226.87 330.51 226.87V226.87L331.17 216.24ZM164.17 271.64L159.75 261.57L170.04 257.98L170.055 258.021L181.62 262.3C182.333 262.58 182.951 263.059 183.4 263.68L185.99 267.15C182.81 271.46 174.61 270.28 174.61 270.28L174.605 270.268L164.17 271.64Z"/>
</mask>
<path fill-rule="evenodd" clip-rule="evenodd" d="M331.17 216.24L323.77 210.99L318.91 220.75V220.75L321.7 233.05L325.97 237.76C330.65 235.15 330.51 226.87 330.51 226.87V226.87L331.17 216.24ZM164.17 271.64L159.75 261.57L170.04 257.98L170.055 258.021L181.62 262.3C182.333 262.58 182.951 263.059 183.4 263.68L185.99 267.15C182.81 271.46 174.61 270.28 174.61 270.28L174.605 270.268L164.17 271.64Z" fill="white"/>
<path d="M323.77 210.99L324.059 210.582L323.583 210.244L323.323 210.767L323.77 210.99ZM331.17 216.24L331.669 216.271L331.686 215.993L331.459 215.832L331.17 216.24ZM318.91 220.75L318.463 220.527L318.41 220.633V220.75H318.91ZM318.91 220.75H318.41V220.806L318.423 220.861L318.91 220.75ZM321.7 233.05L321.213 233.161L321.242 233.289L321.33 233.386L321.7 233.05ZM325.97 237.76L325.6 238.096L325.867 238.391L326.214 238.197L325.97 237.76ZM330.51 226.87H330.01L330.01 226.879L330.51 226.87ZM330.51 226.87L330.011 226.839L330.01 226.855V226.87H330.51ZM159.75 261.57L159.585 261.098L159.075 261.276L159.292 261.771L159.75 261.57ZM164.17 271.64L163.712 271.841L163.863 272.185L164.235 272.136L164.17 271.64ZM170.04 257.98L170.508 257.804L170.336 257.348L169.875 257.508L170.04 257.98ZM170.055 258.021L169.587 258.197L169.668 258.411L169.882 258.49L170.055 258.021ZM181.62 262.3L181.803 261.835L181.794 261.832L181.62 262.3ZM183.4 263.68L182.995 263.973L182.999 263.98L183.4 263.68ZM185.99 267.15L186.392 267.447L186.613 267.149L186.391 266.851L185.99 267.15ZM174.61 270.28L174.142 270.456L174.246 270.733L174.539 270.775L174.61 270.28ZM174.605 270.268L175.073 270.092L174.934 269.72L174.54 269.772L174.605 270.268ZM323.481 211.398L330.881 216.648L331.459 215.832L324.059 210.582L323.481 211.398ZM319.358 220.973L324.218 211.213L323.323 210.767L318.463 220.527L319.358 220.973ZM319.41 220.75V220.75H318.41V220.75H319.41ZM318.423 220.861L321.213 233.161L322.188 232.94L319.398 220.64L318.423 220.861ZM321.33 233.386L325.6 238.096L326.341 237.425L322.071 232.715L321.33 233.386ZM326.214 238.197C328.748 236.784 329.925 233.877 330.482 231.449C330.765 230.219 330.896 229.076 330.958 228.242C330.988 227.824 331.001 227.482 331.007 227.243C331.01 227.123 331.01 227.03 331.011 226.965C331.011 226.933 331.011 226.908 331.01 226.89C331.01 226.882 331.01 226.875 331.01 226.87C331.01 226.868 331.01 226.866 331.01 226.865C331.01 226.864 331.01 226.863 331.01 226.863C331.01 226.863 331.01 226.863 331.01 226.862C331.01 226.862 331.01 226.862 330.51 226.87C330.01 226.879 330.01 226.879 330.01 226.879C330.01 226.879 330.01 226.879 330.01 226.879C330.01 226.879 330.01 226.879 330.01 226.879C330.01 226.88 330.01 226.881 330.01 226.883C330.01 226.886 330.01 226.891 330.01 226.898C330.011 226.912 330.011 226.934 330.011 226.963C330.01 227.021 330.01 227.108 330.007 227.22C330.002 227.444 329.99 227.769 329.96 228.168C329.902 228.968 329.776 230.058 329.508 231.225C328.965 233.589 327.872 236.127 325.727 237.324L326.214 238.197ZM331.01 226.87V226.87H330.01V226.87H331.01ZM330.671 216.209L330.011 226.839L331.009 226.901L331.669 216.271L330.671 216.209ZM159.292 261.771L163.712 271.841L164.628 271.44L160.208 261.37L159.292 261.771ZM169.875 257.508L159.585 261.098L159.915 262.043L170.205 258.453L169.875 257.508ZM170.523 257.845L170.508 257.804L169.572 258.157L169.587 258.197L170.523 257.845ZM181.794 261.832L170.229 257.552L169.882 258.49L181.446 262.769L181.794 261.832ZM183.805 263.388C183.3 262.689 182.605 262.15 181.803 261.835L181.437 262.766C182.061 263.011 182.602 263.43 182.995 263.973L183.805 263.388ZM186.391 266.851L183.801 263.381L182.999 263.98L185.589 267.45L186.391 266.851ZM174.61 270.28C174.539 270.775 174.539 270.775 174.539 270.775C174.539 270.775 174.539 270.775 174.54 270.776C174.54 270.776 174.541 270.776 174.541 270.776C174.543 270.776 174.545 270.776 174.547 270.777C174.552 270.777 174.558 270.778 174.567 270.779C174.584 270.782 174.609 270.785 174.641 270.789C174.705 270.797 174.798 270.808 174.917 270.82C175.155 270.845 175.496 270.875 175.915 270.897C176.751 270.941 177.901 270.954 179.157 270.829C181.637 270.582 184.67 269.781 186.392 267.447L185.588 266.854C184.13 268.83 181.473 269.594 179.058 269.834C177.866 269.953 176.768 269.941 175.967 269.898C175.567 269.877 175.243 269.849 175.02 269.825C174.908 269.814 174.822 269.804 174.765 269.797C174.736 269.793 174.714 269.79 174.7 269.788C174.693 269.787 174.688 269.787 174.685 269.786C174.683 269.786 174.682 269.786 174.682 269.786C174.681 269.786 174.681 269.786 174.681 269.786C174.681 269.786 174.681 269.786 174.681 269.786C174.681 269.786 174.681 269.786 174.61 270.28ZM174.137 270.443L174.142 270.456L175.078 270.105L175.073 270.092L174.137 270.443ZM164.235 272.136L174.67 270.763L174.54 269.772L164.105 271.145L164.235 272.136Z" fill="black" mask="url(#path-107-outside-1)"/>
<path d="M116 149.089H197C198.547 149.074 200.08 149.38 201.502 149.987C202.924 150.595 204.205 151.491 205.263 152.619C206.321 153.747 207.134 155.082 207.65 156.54C208.166 157.998 208.374 159.547 208.26 161.089L206 197.749C205.752 200.977 204.308 203.995 201.952 206.214C199.596 208.434 196.496 209.694 193.26 209.749H183.88L187.71 222.339L169.39 209.749H112.29C110.744 209.765 109.211 209.459 107.788 208.851C106.366 208.244 105.085 207.348 104.027 206.22C102.969 205.092 102.156 203.757 101.64 202.299C101.124 200.841 100.917 199.292 101.03 197.749L103.27 161.089C103.518 157.864 104.961 154.847 107.315 152.628C109.669 150.409 112.766 149.147 116 149.089Z" fill="#9468B4"/>
<path d="M189.58 168.29H121.08C120.789 168.289 120.502 168.227 120.236 168.108C119.97 167.99 119.732 167.817 119.537 167.602C119.341 167.387 119.192 167.133 119.1 166.858C119.008 166.582 118.974 166.29 119 166C119.045 165.393 119.315 164.825 119.757 164.407C120.199 163.989 120.781 163.751 121.39 163.74H189.9C190.189 163.741 190.475 163.801 190.74 163.917C191.005 164.033 191.244 164.202 191.441 164.414C191.638 164.626 191.789 164.876 191.885 165.149C191.981 165.422 192.02 165.712 192 166C191.964 166.618 191.694 167.2 191.244 167.625C190.794 168.051 190.199 168.289 189.58 168.29Z" fill="white"/>
<path d="M149 181.68H120.26C119.969 181.682 119.681 181.624 119.413 181.51C119.146 181.395 118.905 181.226 118.706 181.014C118.507 180.802 118.354 180.551 118.256 180.276C118.159 180.002 118.119 179.711 118.14 179.42C118.185 178.812 118.456 178.242 118.901 177.824C119.345 177.405 119.93 177.169 120.54 177.16H149.31C149.602 177.157 149.891 177.214 150.16 177.328C150.429 177.442 150.671 177.611 150.871 177.823C151.071 178.035 151.225 178.287 151.323 178.562C151.421 178.837 151.461 179.129 151.44 179.42C151.392 180.035 151.115 180.609 150.662 181.028C150.21 181.447 149.617 181.68 149 181.68Z" fill="white"/>
<path d="M173.63 195.07H119.44C119.149 195.072 118.86 195.014 118.593 194.899C118.326 194.785 118.085 194.616 117.886 194.404C117.686 194.191 117.533 193.94 117.436 193.666C117.339 193.392 117.299 193.1 117.32 192.81C117.363 192.201 117.633 191.63 118.078 191.211C118.523 190.792 119.109 190.556 119.72 190.55H173.91C174.201 190.546 174.49 190.603 174.758 190.718C175.027 190.832 175.268 191 175.468 191.213C175.667 191.426 175.82 191.677 175.917 191.952C176.014 192.227 176.052 192.519 176.03 192.81C175.985 193.419 175.713 193.988 175.269 194.407C174.825 194.825 174.24 195.062 173.63 195.07Z" fill="white"/>
<path d="M170.111 181.68H158.781C158.49 181.682 158.201 181.624 157.934 181.51C157.666 181.395 157.425 181.226 157.226 181.014C157.027 180.802 156.874 180.551 156.777 180.276C156.679 180.002 156.64 179.711 156.661 179.42C156.708 178.813 156.98 178.244 157.424 177.826C157.867 177.408 158.451 177.171 159.061 177.16H170.381C170.672 177.157 170.961 177.214 171.229 177.328C171.497 177.442 171.739 177.611 171.938 177.823C172.138 178.036 172.291 178.288 172.388 178.563C172.484 178.838 172.523 179.13 172.501 179.42C172.456 180.027 172.186 180.595 171.744 181.014C171.302 181.432 170.719 181.669 170.111 181.68Z" fill="white"/>
<path d="M228.791 83.1898H184.631C182.112 83.2276 179.699 84.2058 177.866 85.9322C176.032 87.6587 174.91 90.0084 174.721 92.5198L173.001 121.06C172.915 122.26 173.079 123.464 173.482 124.598C173.885 125.731 174.518 126.769 175.342 127.646C176.166 128.522 177.163 129.219 178.269 129.691C179.375 130.163 180.568 130.401 181.771 130.39H189.001L184.821 140.19L200.281 130.39H225.901C228.419 130.352 230.832 129.374 232.666 127.647C234.499 125.921 235.621 123.571 235.811 121.06L237.561 92.5198C237.646 91.3199 237.483 90.1152 237.08 88.9817C236.677 87.8482 236.043 86.8105 235.219 85.934C234.395 85.0574 233.399 84.361 232.292 83.8888C231.186 83.4165 229.994 83.1785 228.791 83.1898Z" fill="#9468B4"/>
<g opacity="0.5">
<path opacity="0.5" d="M228.791 83.1898H184.631C182.112 83.2276 179.699 84.2058 177.866 85.9322C176.032 87.6587 174.91 90.0084 174.721 92.5198L173.001 121.06C172.915 122.26 173.079 123.464 173.482 124.598C173.885 125.731 174.518 126.769 175.342 127.646C176.166 128.522 177.163 129.219 178.269 129.691C179.375 130.163 180.568 130.401 181.771 130.39H189.001L184.821 140.19L200.281 130.39H225.901C228.419 130.352 230.832 129.374 232.666 127.647C234.499 125.921 235.621 123.571 235.811 121.06L237.561 92.5198C237.646 91.3199 237.483 90.1152 237.08 88.9817C236.677 87.8482 236.043 86.8105 235.219 85.934C234.395 85.0574 233.399 84.361 232.292 83.8888C231.186 83.4165 229.994 83.1785 228.791 83.1898Z" fill="#FAFAFA"/>
</g>
<path d="M207.5 111.46C207.348 112.089 206.99 112.648 206.482 113.049C205.974 113.449 205.347 113.668 204.7 113.67H202.09C202.09 112.93 202.15 112.48 202.16 112.32C202.198 110.879 202.568 109.465 203.24 108.19C204.185 106.768 205.385 105.534 206.78 104.55C207.893 103.744 208.942 102.855 209.92 101.89C210.439 101.276 210.747 100.512 210.8 99.71C210.84 99.1786 210.756 98.6453 210.557 98.1511C210.358 97.657 210.047 97.2153 209.65 96.86C208.68 96.0289 207.426 95.606 206.15 95.68C204.809 95.6434 203.498 96.0826 202.45 96.92C201.827 97.4339 201.317 98.0704 200.95 98.79C200.68 99.3156 200.261 99.7498 199.745 100.038C199.229 100.326 198.639 100.456 198.05 100.41C197.626 100.357 197.222 100.199 196.876 99.949C196.53 99.699 196.252 99.3657 196.068 98.9799C195.885 98.594 195.802 98.1682 195.827 97.7417C195.851 97.3152 195.983 96.9019 196.21 96.54C196.814 95.5273 197.589 94.6272 198.5 93.88C200.667 92.1379 203.392 91.2392 206.17 91.35C209.44 91.35 211.98 92.2 213.81 93.91C214.667 94.6465 215.341 95.5717 215.78 96.6127C216.219 97.6537 216.411 98.7824 216.34 99.91C216.248 101.192 215.806 102.423 215.06 103.47C213.656 105.2 212.032 106.739 210.23 108.05C209.297 108.702 208.49 109.518 207.85 110.46C207.688 110.775 207.57 111.112 207.5 111.46ZM201.79 118.64V118.32C201.843 117.597 202.165 116.921 202.693 116.424C203.221 115.928 203.916 115.648 204.64 115.64H205C205.347 115.635 205.691 115.702 206.01 115.837C206.329 115.972 206.617 116.172 206.855 116.424C207.093 116.676 207.275 116.974 207.392 117.301C207.508 117.627 207.555 117.974 207.53 118.32V118.64C207.478 119.364 207.156 120.041 206.628 120.539C206.101 121.037 205.406 121.319 204.68 121.33H204.36C204.009 121.341 203.66 121.278 203.336 121.145C203.011 121.012 202.718 120.812 202.475 120.558C202.233 120.304 202.047 120.002 201.929 119.672C201.811 119.342 201.763 118.99 201.79 118.64Z" fill="white"/>
<rect x="1" y="1" width="500" height="500" stroke="black"/>
</svg>
