<svg width="359" height="338" viewBox="0 0 359 338" fill="none" xmlns="http://www.w3.org/2000/svg">
<path d="M193.071 8.41652C178.219 -1.49227 155.718 -2.0407 140.161 3.59225C112.313 13.6684 116.026 36.1258 91.8916 51.9278C67.757 67.7298 44.5507 62.1526 21.3444 82.6581C-1.86185 103.164 -3.9597 141.971 5.56416 160.125C15.088 178.279 25.9857 191.599 16.7032 222.841C7.42067 254.082 8.34892 290.371 45.479 309.473C82.6091 328.575 111.385 287.852 135.519 296.227C159.654 304.602 205.138 341.681 255.264 330.619C305.39 319.558 283.111 281.503 315.6 270.674C348.089 259.845 366.654 222.459 355.515 182.982C344.376 143.505 316.529 135.911 323.026 111.083C327.927 92.3345 334.5 74.2923 322.005 56.2408C305.882 32.9468 278.285 22.9544 251.551 25.3154C241.591 26.2449 230.201 26.5516 219.795 24.1349C207.969 21.3649 202.502 14.7187 193.071 8.41652Z" fill="#9468B4"/>
<path opacity="0.7" d="M193.071 8.41652C178.219 -1.49227 155.718 -2.0407 140.161 3.59225C112.313 13.6684 116.026 36.1258 91.8916 51.9278C67.757 67.7298 44.5507 62.1526 21.3444 82.6581C-1.86185 103.164 -3.9597 141.971 5.56416 160.125C15.088 178.279 25.9857 191.599 16.7032 222.841C7.42067 254.082 8.34892 290.371 45.479 309.473C82.6091 328.575 111.385 287.852 135.519 296.227C159.654 304.602 205.138 341.681 255.264 330.619C305.39 319.558 283.111 281.503 315.6 270.674C348.089 259.845 366.654 222.459 355.515 182.982C344.376 143.505 316.529 135.911 323.026 111.083C327.927 92.3345 334.5 74.2923 322.005 56.2408C305.882 32.9468 278.285 22.9544 251.551 25.3154C241.591 26.2449 230.201 26.5516 219.795 24.1349C207.969 21.3649 202.502 14.7187 193.071 8.41652Z" fill="white"/>
<path d="M336.663 146.796L180.559 183.819L180.41 183.717L322.665 112.701C322.776 112.161 322.879 111.622 323.027 111.065C325.301 102.355 327.938 93.7939 328.857 85.3166L180.494 183.001H180.327L311.647 44.3894C305.857 39.1414 299.254 34.8689 292.098 31.7385L180.16 182.257H179.983L248.015 25.5664C240.806 26.1702 233.556 26.0644 226.368 25.2504L179.594 181.672L179.426 181.755L190.129 6.62257C183.38 3.0427 175.967 0.891187 168.352 0.301758L178.851 181.318L178.73 181.449L128.02 10.0153C120.854 15.3787 116.816 22.0992 112.5 29.0335L178.043 181.244L177.969 181.402L85.1439 55.8133C78.9122 58.8803 72.3795 61.2915 65.6506 63.0079L177.292 181.439V181.625L24.2599 80.2228C23.3316 80.9943 22.3198 81.7937 21.3452 82.6488C16.5149 86.9677 12.4586 92.0827 9.35214 97.7723L176.577 181.904L176.632 182.071L0.431641 139.713C0.979309 147.642 2.78012 154.771 5.56487 160.116C6.029 161.045 6.49313 161.882 6.96654 162.746L176.103 182.564L176.205 182.713L20.2591 200.504C20.2307 207.428 19.2212 214.313 17.2608 220.954L175.918 183.326L176.066 183.428L12.5917 265.051C13.6669 272.721 16.2509 280.101 20.1941 286.764L175.946 184.172H176.113L54.1403 312.921C63.8777 315.71 73.021 314.78 81.6444 312.168L176.28 184.916H176.456L128.614 295.065C130.964 295.064 133.298 295.453 135.52 296.218C138.005 297.103 140.443 298.114 142.826 299.248L176.846 185.501L177.013 185.418L169.225 312.893C174.34 315.505 179.751 318.136 185.404 320.59L177.589 185.855L177.709 185.724L220.799 331.382C227.643 332.483 234.586 332.848 241.508 332.469L178.387 185.91L178.461 185.752L278.193 320.72C284.477 315.831 287.995 309.993 290.603 303.989L179.148 185.734V185.548L310.644 272.701C312.229 271.9 313.87 271.217 315.555 270.656C321.553 268.664 327.194 265.724 332.263 261.946L179.863 185.269L179.807 185.102L355.729 227.386C357.788 220.28 358.804 212.913 358.746 205.514L180.336 184.609L180.234 184.46L348.573 165.256C345.156 158.762 341.171 152.584 336.663 146.796ZM176.001 183.326L176.54 183.196L176.14 183.401L176.001 183.326ZM176.205 184.126H176.038L176.512 183.81L176.205 184.126ZM176.502 184.776H176.354L176.688 184.33L176.502 184.776ZM176.363 182.657L176.261 182.545L176.818 182.611L176.363 182.657ZM177.05 185.26L176.92 185.343L177.078 184.804L177.05 185.26ZM176.781 182.062L176.725 181.923L177.227 182.174L176.781 182.062ZM178.897 181.402V181.96L178.767 181.532L178.897 181.402ZM178.127 181.309L178.35 181.83L178.081 181.467L178.127 181.309ZM177.375 181.495L177.756 181.904L177.384 181.653L177.375 181.495ZM177.616 185.697V185.139L177.746 185.566L177.616 185.697ZM178.387 185.789L178.164 185.269L178.433 185.631L178.387 185.789ZM178.303 184.33H178.034L177.793 184.209L177.607 184.014L177.505 183.763V183.494L177.579 183.233L177.746 183.02L177.969 182.871L178.229 182.806H178.498L178.74 182.927L178.925 183.122L179.027 183.373V183.642L178.953 183.903L178.786 184.116L178.563 184.265L178.303 184.33ZM178.758 185.195L179.129 185.446V185.604L178.758 185.195ZM180.271 183.01H180.438L179.965 183.326L180.271 183.01ZM179.974 182.36H180.123L179.788 182.806L179.974 182.36ZM179.464 181.839L179.594 181.755L179.436 182.285L179.464 181.839ZM179.287 184.925L179.733 185.037L179.788 185.176L179.287 184.925ZM179.696 184.488L180.076 184.516L180.178 184.628L179.696 184.488ZM179.937 183.94L180.336 183.735L180.475 183.81L179.937 183.94Z" fill="white"/>
<path d="M176.361 338C256.592 338 321.633 334.646 321.633 330.508C321.633 326.37 256.592 323.016 176.361 323.016C96.1301 323.016 31.0898 326.37 31.0898 330.508C31.0898 334.646 96.1301 338 176.361 338Z" fill="#263238"/>
<path d="M90.8157 197.669H270.256C271.312 197.669 272.325 198.089 273.072 198.837C273.819 199.585 274.238 200.599 274.238 201.657V317.011H86.8242V201.657C86.8242 201.132 86.9275 200.613 87.1282 200.128C87.3289 199.644 87.6231 199.204 87.9939 198.834C88.3646 198.463 88.8047 198.17 89.2889 197.97C89.7732 197.77 90.292 197.668 90.8157 197.669Z" fill="#9468B4" stroke="#263238" stroke-linecap="round" stroke-linejoin="round"/>
<path d="M100.442 206.723H260.63C261.153 206.723 261.671 206.826 262.154 207.026C262.637 207.227 263.076 207.52 263.446 207.891C263.816 208.261 264.109 208.701 264.309 209.184C264.509 209.668 264.612 210.187 264.612 210.71V318.619H96.4502V210.72C96.449 210.194 96.5514 209.674 96.7515 209.189C96.9517 208.703 97.2457 208.262 97.6166 207.891C97.9874 207.519 98.4279 207.225 98.9128 207.024C99.3976 206.824 99.9172 206.721 100.442 206.723Z" fill="#263238" stroke="#263238" stroke-linecap="round" stroke-linejoin="round"/>
<path d="M272.631 326.651H80.0934C71.2286 326.651 64.0439 321.278 64.0439 314.65H288.681C288.681 321.278 281.496 326.651 272.631 326.651Z" fill="#9468B4" stroke="#263238" stroke-linecap="round" stroke-linejoin="round"/>
<path d="M179.732 87.7793C167.367 99.5564 135.742 111.454 98.8623 136.691C98.8623 136.691 101.164 221.966 179.732 268.582V87.7793Z" fill="#9468B4" stroke="#263238" stroke-linecap="round" stroke-linejoin="round"/>
<path d="M179.732 87.7793C192.087 99.5564 223.722 111.454 260.602 136.691C260.602 136.691 258.3 221.966 179.732 268.582V87.7793Z" fill="#263238" stroke="#263238" stroke-linecap="round" stroke-linejoin="round"/>
<path d="M179.733 95.0391C164.816 105.626 138.964 115.721 104.795 139.099C104.795 139.099 106.93 218.109 179.733 261.323C252.536 218.127 254.67 139.099 254.67 139.099C220.492 115.73 194.761 105.626 179.733 95.0391Z" fill="#263238" stroke="#263238" stroke-linecap="round" stroke-linejoin="round"/>
<path d="M241.897 130.705C189.767 146.507 150 192.379 131.918 216.575C144.356 234.847 160.686 250.13 179.732 261.323C252.535 218.127 254.67 139.099 254.67 139.099C250.27 136.099 246.013 133.302 241.897 130.705Z" fill="#9468B4" stroke="#263238" stroke-linecap="round" stroke-linejoin="round"/>
<path d="M208.118 174.709H152.228C150.997 174.709 149.817 174.219 148.946 173.347C148.076 172.476 147.587 171.293 147.587 170.061V143.718C147.731 135.164 151.226 127.009 157.318 121.011C163.41 115.013 171.611 111.651 180.155 111.651C188.698 111.651 196.9 115.013 202.992 121.011C209.083 127.009 212.578 135.164 212.722 143.718V170.061C212.722 171.287 212.238 172.464 211.376 173.334C210.514 174.205 209.343 174.699 208.118 174.709ZM156.907 165.413H203.477V143.718C203.355 137.614 200.849 131.802 196.495 127.529C192.141 123.255 186.288 120.862 180.192 120.862C174.095 120.862 168.242 123.255 163.889 127.529C159.535 131.802 157.028 137.614 156.907 143.718V165.413Z" fill="white" stroke="#263238" stroke-linecap="round" stroke-linejoin="round"/>
<path d="M215.285 162.012H144.181V222.18H215.285V162.012Z" fill="white" stroke="#263238" stroke-linecap="round" stroke-linejoin="round"/>
<path d="M187.121 186.997C187.121 185.627 186.758 184.281 186.07 183.097C185.381 181.913 184.392 180.932 183.202 180.256C182.012 179.579 180.664 179.231 179.296 179.246C177.927 179.26 176.587 179.638 175.412 180.34C174.237 181.043 173.269 182.044 172.606 183.243C171.943 184.442 171.61 185.795 171.64 187.165C171.669 188.535 172.061 189.873 172.775 191.042C173.489 192.211 174.499 193.169 175.703 193.82L174.404 207.484H184.355L183.055 193.82C184.286 193.157 185.314 192.173 186.03 190.971C186.746 189.77 187.123 188.396 187.121 186.997Z" fill="#263238" stroke="#263238" stroke-linecap="round" stroke-linejoin="round"/>
<path d="M319.824 175.304L319.713 173.91" stroke="#263238" stroke-linecap="round" stroke-linejoin="round"/>
<path d="M319.445 171.131C315.769 136.29 299.542 103.984 273.8 80.2583C248.057 56.5322 214.564 43.0117 179.586 42.2266C144.608 41.4416 110.544 53.4458 83.7655 75.993C56.9874 98.5403 39.331 130.086 34.1001 164.726C33.7041 167.366 33.3947 170.015 33.1719 172.674" stroke="#263238" stroke-linecap="round" stroke-linejoin="round" stroke-dasharray="3.01 3.01"/>
<path d="M33.0031 174.049L32.8916 175.434" stroke="#263238" stroke-linecap="round" stroke-linejoin="round"/>
<path d="M64.9624 151.081L73.1868 117.571H48.2354L64.9624 151.081Z" fill="#263238" stroke="#263238" stroke-linecap="round" stroke-linejoin="round"/>
<path d="M64.9629 151.081L66.7916 118.845H50.9092L64.9629 151.081Z" fill="#9468B4" stroke="#263238" stroke-linecap="round" stroke-linejoin="round"/>
<path d="M64.9629 151.081L63.2642 116.335H47.3818L64.9629 151.081Z" fill="#9468B4" stroke="#263238" stroke-linecap="round" stroke-linejoin="round"/>
<path d="M35.3156 114.726L31.222 110.088H9.66797L19.7766 151.08H64.9639L57.7978 114.726H35.3156Z" fill="#263238" stroke="#263238" stroke-linecap="round" stroke-linejoin="round"/>
<path d="M112.926 51.2861H59.0971C57.2157 51.2861 55.6904 52.8135 55.6904 54.6975V83.8197C55.6904 85.7037 57.2157 87.2311 59.0971 87.2311H112.926C114.808 87.2311 116.333 85.7037 116.333 83.8197V54.6975C116.333 52.8135 114.808 51.2861 112.926 51.2861Z" fill="#263238" stroke="#263238" stroke-linecap="round" stroke-linejoin="round"/>
<path d="M116.333 58.0996H55.6904V71.113H116.333V58.0996Z" fill="#9468B4" stroke="#263238" stroke-linecap="round" stroke-linejoin="round"/>
<path d="M103.532 81.4868C103.532 80.985 103.383 80.4943 103.105 80.077C102.827 79.6597 102.431 79.3344 101.968 79.1424C101.505 78.9503 100.995 78.9001 100.504 78.998C100.012 79.0959 99.5605 79.3376 99.2061 79.6925C98.8517 80.0474 98.6103 80.4995 98.5126 80.9918C98.4148 81.484 98.465 81.9943 98.6568 82.4579C98.8486 82.9216 99.1734 83.318 99.5901 83.5968C100.007 83.8756 100.497 84.0245 100.998 84.0245C101.67 84.0245 102.315 83.7571 102.79 83.2812C103.265 82.8053 103.532 82.1599 103.532 81.4868Z" fill="white" stroke="#263238" stroke-linecap="round" stroke-linejoin="round"/>
<path d="M110.577 81.4868C110.577 80.985 110.428 80.4943 110.15 80.077C109.871 79.6597 109.476 79.3344 109.013 79.1424C108.55 78.9503 108.04 78.9001 107.549 78.998C107.057 79.0959 106.605 79.3376 106.251 79.6925C105.897 80.0474 105.655 80.4995 105.557 80.9918C105.46 81.484 105.51 81.9943 105.702 82.4579C105.893 82.9216 106.218 83.318 106.635 83.5968C107.052 83.8756 107.542 84.0245 108.043 84.0245C108.715 84.0245 109.36 83.7571 109.835 83.2812C110.31 82.8053 110.577 82.1599 110.577 81.4868Z" fill="white" stroke="#263238" stroke-linecap="round" stroke-linejoin="round"/>
<path d="M213.557 27.2021H148.616V69.3656H213.557V27.2021Z" fill="#9468B4" stroke="#263238" stroke-linecap="round" stroke-linejoin="round"/>
<path d="M210.616 29.8789H151.783V66.3444H210.616V29.8789Z" fill="#263238" stroke="#263238" stroke-linecap="round" stroke-linejoin="round"/>
<path d="M168.993 55.3109C168.993 51.3326 165.763 44.4912 161.79 44.4912C157.817 44.4912 154.577 51.3326 154.577 55.3109C154.577 59.2893 157.807 60.2746 161.79 60.2746C165.772 60.2746 168.993 59.2614 168.993 55.3109Z" fill="white" stroke="#263238" stroke-linecap="round" stroke-linejoin="round"/>
<path d="M161.79 45.8112C164.527 45.8112 166.747 43.5889 166.747 40.8475C166.747 38.1061 164.527 35.8838 161.79 35.8838C159.052 35.8838 156.833 38.1061 156.833 40.8475C156.833 43.5889 159.052 45.8112 161.79 45.8112Z" fill="white" stroke="#263238" stroke-linecap="round" stroke-linejoin="round"/>
<path d="M176.194 36.8223H188.197" stroke="white" stroke-width="2" stroke-linecap="round" stroke-linejoin="round"/>
<path d="M176.194 42.0283H188.197" stroke="white" stroke-width="2" stroke-linecap="round" stroke-linejoin="round"/>
<path d="M176.194 51.249H204.2" stroke="white" stroke-width="2" stroke-linecap="round" stroke-linejoin="round"/>
<path d="M176.194 58.0625H204.2" stroke="white" stroke-width="2" stroke-linecap="round" stroke-linejoin="round"/>
<path d="M302.428 51.2861H254.131C251.143 51.2861 248.72 53.7124 248.72 56.7053V81.877C248.72 84.8699 251.143 87.2961 254.131 87.2961H302.428C305.417 87.2961 307.84 84.8699 307.84 81.877V56.7053C307.84 53.7124 305.417 51.2861 302.428 51.2861Z" fill="#263238" stroke="#263238" stroke-width="2" stroke-linecap="round" stroke-linejoin="round"/>
<path d="M280.642 68.3895L307.84 54.6139V53.9818C307.84 53.2668 307.556 52.5812 307.052 52.0757C306.547 51.5701 305.862 51.2861 305.148 51.2861H251.421C250.706 51.2861 250.02 51.5698 249.514 52.0751C249.008 52.5804 248.722 53.266 248.72 53.9818V54.7347L275.426 68.4546C276.24 68.8524 277.136 69.0537 278.042 69.0424C278.948 69.0311 279.838 68.8075 280.642 68.3895Z" fill="#9468B4" stroke="#263238" stroke-width="2" stroke-linecap="round" stroke-linejoin="round"/>
<path d="M337.646 114.067H285.414C283.337 114.067 281.654 115.753 281.654 117.832V140.503C281.654 142.582 283.337 144.268 285.414 144.268H337.646C339.723 144.268 341.406 142.582 341.406 140.503V117.832C341.406 115.753 339.723 114.067 337.646 114.067Z" fill="#263238"/>
<path d="M281.664 136.366V152.587L290.696 142.176" fill="#263238"/>
<path d="M302.495 129.72C302.497 129.106 302.316 128.504 301.976 127.992C301.636 127.48 301.152 127.081 300.585 126.845C300.018 126.608 299.394 126.546 298.792 126.666C298.189 126.785 297.636 127.081 297.202 127.516C296.768 127.951 296.472 128.505 296.353 129.108C296.234 129.711 296.296 130.336 296.532 130.903C296.768 131.471 297.166 131.956 297.678 132.296C298.189 132.637 298.79 132.818 299.404 132.816C300.223 132.813 301.007 132.486 301.587 131.906C302.166 131.326 302.492 130.541 302.495 129.72Z" fill="#9468B4"/>
<path d="M315.758 129.72C315.76 129.106 315.58 128.504 315.24 127.992C314.9 127.48 314.416 127.081 313.849 126.845C313.282 126.608 312.658 126.546 312.055 126.666C311.453 126.785 310.9 127.081 310.466 127.516C310.032 127.951 309.736 128.505 309.617 129.108C309.497 129.711 309.56 130.336 309.795 130.903C310.031 131.471 310.43 131.956 310.941 132.296C311.453 132.637 312.053 132.818 312.667 132.816C313.486 132.813 314.271 132.486 314.85 131.906C315.429 131.326 315.756 130.541 315.758 129.72Z" fill="#9468B4"/>
<path d="M329.033 129.72C329.035 129.106 328.854 128.505 328.515 127.993C328.175 127.481 327.692 127.082 327.125 126.845C326.559 126.609 325.935 126.546 325.333 126.665C324.731 126.784 324.178 127.079 323.743 127.512C323.309 127.946 323.013 128.499 322.892 129.102C322.772 129.704 322.833 130.329 323.067 130.897C323.302 131.465 323.699 131.95 324.209 132.292C324.719 132.633 325.319 132.816 325.932 132.816C326.752 132.813 327.538 132.487 328.119 131.907C328.699 131.327 329.028 130.541 329.033 129.72Z" fill="#9468B4"/>
<path d="M64.6474 189.415C64.5023 189.224 64.3155 189.07 64.1014 188.964C63.8874 188.857 63.6518 188.802 63.4128 188.801H23.3123L21.7714 184.153C21.6667 183.845 21.4681 183.576 21.2034 183.386C20.9387 183.196 20.6212 183.094 20.2955 183.094H10.1404C9.7488 183.124 9.38303 183.301 9.11621 183.59C8.84939 183.879 8.70117 184.257 8.70117 184.651C8.70117 185.044 8.84939 185.423 9.11621 185.712C9.38303 186 9.7488 186.177 10.1404 186.208H19.1723L28.9654 215.627C29.0688 215.937 29.2672 216.206 29.5321 216.396C29.7971 216.586 30.1152 216.688 30.4413 216.687H31.0075C30.4498 217.548 30.1532 218.552 30.1535 219.578C30.1486 220.415 30.3391 221.242 30.7098 221.992C31.0805 222.742 31.6212 223.395 32.2887 223.899C32.9562 224.403 33.7321 224.744 34.5545 224.895C35.3768 225.045 36.2229 225.001 37.0253 224.766C37.8276 224.531 38.564 224.111 39.1757 223.541C39.7874 222.97 40.2575 222.264 40.5485 221.48C40.8395 220.695 40.9433 219.853 40.8517 219.021C40.7601 218.189 40.4756 217.389 40.0208 216.687H47.4469C46.8892 217.548 46.5925 218.552 46.5929 219.578C46.5628 220.302 46.6792 221.024 46.935 221.701C47.1908 222.379 47.5809 222.998 48.0816 223.52C48.5824 224.043 49.1835 224.459 49.8489 224.743C50.5143 225.027 51.2302 225.174 51.9535 225.174C52.6769 225.174 53.3928 225.027 54.0582 224.743C54.7236 224.459 55.3247 224.043 55.8254 223.52C56.3262 222.998 56.7162 222.379 56.972 221.701C57.2279 221.024 57.3443 220.302 57.3142 219.578C57.3145 218.552 57.0179 217.548 56.4602 216.687H57.6576C57.8719 216.704 58.0873 216.676 58.2903 216.605C58.4933 216.534 58.6795 216.422 58.8372 216.276C58.9949 216.13 59.1208 215.953 59.2068 215.755C59.2929 215.558 59.3373 215.345 59.3373 215.13C59.3373 214.915 59.2929 214.702 59.2068 214.505C59.1208 214.307 58.9949 214.13 58.8372 213.984C58.6795 213.838 58.4933 213.726 58.2903 213.655C58.0873 213.584 57.8719 213.556 57.6576 213.573H31.5552L29.8379 208.433H58.9665C59.3087 208.432 59.6413 208.319 59.9131 208.111C60.1848 207.903 60.3806 207.611 60.4702 207.28L64.9073 190.772C64.9723 190.541 64.9826 190.298 64.9375 190.062C64.8924 189.827 64.7931 189.605 64.6474 189.415ZM35.5095 221.827C35.0653 221.827 34.6309 221.695 34.2615 221.448C33.8921 221.201 33.6042 220.85 33.4342 220.439C33.2641 220.028 33.2197 219.575 33.3063 219.139C33.393 218.703 33.607 218.302 33.9211 217.987C34.2353 217.673 34.6355 217.458 35.0713 217.372C35.507 217.285 35.9587 217.329 36.3692 217.5C36.7797 217.67 37.1305 217.958 37.3773 218.328C37.6242 218.698 37.7559 219.133 37.7559 219.578C37.7535 220.174 37.516 220.744 37.0953 221.166C36.6745 221.587 36.1046 221.825 35.5095 221.827ZM52.0046 221.827C51.5603 221.827 51.126 221.695 50.7566 221.448C50.3871 221.201 50.0992 220.85 49.9292 220.439C49.7592 220.028 49.7147 219.575 49.8014 219.139C49.888 218.703 50.102 218.302 50.4162 217.987C50.7303 217.673 51.1306 217.458 51.5663 217.372C52.0021 217.285 52.4538 217.329 52.8642 217.5C53.2747 217.67 53.6255 217.958 53.8724 218.328C54.1192 218.698 54.2509 219.133 54.2509 219.578C54.2497 219.875 54.1899 220.169 54.0748 220.444C53.9598 220.718 53.7917 220.967 53.5804 221.176C53.3691 221.385 53.1187 221.55 52.8435 221.662C52.5683 221.773 52.2737 221.83 51.9767 221.827H52.0046ZM56.1539 205.319H50.3894V191.952H56.1539V205.319ZM41.506 191.952H47.2705V205.347H41.506V191.952ZM38.3964 205.347H32.632V191.952H38.3964V205.347ZM24.3519 191.952H29.513V205.347H28.8168L24.3519 191.952ZM59.2635 199.835V191.952H61.3799L59.2635 199.835Z" fill="#263238"/>
<path d="M317.596 181.885C313.157 181.883 308.818 183.199 305.127 185.667C301.436 188.135 298.559 191.644 296.86 195.75C295.161 199.855 294.716 204.373 295.581 208.732C296.446 213.091 298.583 217.095 301.722 220.238C304.86 223.38 308.859 225.52 313.212 226.387C317.565 227.254 322.076 226.808 326.176 225.106C330.276 223.405 333.78 220.524 336.245 216.828C338.709 213.131 340.024 208.786 340.022 204.342C340.015 198.388 337.65 192.681 333.445 188.471C329.241 184.261 323.541 181.892 317.596 181.885ZM317.596 184.673C319.452 184.673 321.476 187.109 322.905 191.18H312.286C313.743 187.109 315.711 184.673 317.596 184.673ZM323.713 193.969C324.395 196.906 324.771 199.905 324.836 202.92H310.346C310.411 199.905 310.787 196.906 311.469 193.969H323.713ZM324.882 205.736C324.806 209.248 324.288 212.737 323.341 216.119H311.887C310.959 212.747 310.457 209.271 310.392 205.774L324.882 205.736ZM307.598 202.948H298.009C298.235 199.773 299.229 196.701 300.906 193.997H308.592C307.961 196.94 307.613 199.938 307.552 202.948H307.598ZM307.598 205.736C307.645 209.237 308.09 212.72 308.926 216.119H301.862C299.61 213.114 298.272 209.522 298.009 205.774L307.598 205.736ZM309.798 218.908C310.344 220.432 311.074 221.883 311.97 223.23C309.151 222.377 306.559 220.9 304.387 218.908H309.798ZM312.815 218.908H322.367C321.002 222.161 319.248 224.058 317.596 224.058C315.943 224.058 314.189 222.124 312.815 218.908ZM325.384 218.908H330.795C328.623 220.9 326.031 222.377 323.211 223.23C324.108 221.883 324.837 220.432 325.384 218.908ZM326.256 216.119C327.124 212.724 327.598 209.24 327.667 205.736H337.209C336.943 209.501 335.592 213.108 333.32 216.119H326.256ZM327.667 202.948C327.606 199.938 327.257 196.94 326.627 193.997H334.313C335.99 196.701 336.984 199.773 337.209 202.948H327.667ZM332.215 191.208H325.894C325.295 189.186 324.404 187.263 323.249 185.501C326.69 186.551 329.778 188.525 332.178 191.208H332.215ZM312.007 185.501C310.852 187.262 309.963 189.185 309.371 191.208H303.041C305.441 188.525 308.529 186.551 311.97 185.501H312.007Z" fill="#263238"/>
</svg>
