<svg width="338" height="306" viewBox="0 0 338 306" fill="none" xmlns="http://www.w3.org/2000/svg">
<path d="M329.454 228.184C336.608 165.11 301.978 81.2879 266.072 46.6757C201.261 -15.8197 147.412 -3.73663 105.538 18.6387C63.6629 41.0141 57.6757 115.755 28.7523 149.563C-0.171021 183.37 -16.6134 228.844 27.26 274.119C71.1335 319.395 106.532 296.386 152.405 293.51C198.277 290.634 259.126 313.245 292.002 293.591C314.983 279.88 326.297 256.094 329.454 228.184Z" fill="#9468B4"/>
<path opacity="0.7" d="M329.454 228.184C336.608 165.11 301.978 81.2879 266.072 46.6757C201.261 -15.8197 147.412 -3.73663 105.538 18.6387C63.6629 41.0141 57.6757 115.755 28.7523 149.563C-0.171021 183.37 -16.6134 228.844 27.26 274.119C71.1335 319.395 106.532 296.386 152.405 293.51C198.277 290.634 259.126 313.245 292.002 293.591C314.983 279.88 326.297 256.094 329.454 228.184Z" fill="white"/>
<path d="M165.23 103.926C159.468 100.778 156.846 103.401 154.747 100.778C152.649 98.1555 160.518 91.3452 144.799 84.4988C144.799 84.4988 143.75 69.82 122.261 69.2955C100.772 68.7709 106.542 83.9742 100.772 87.6371C95.0014 91.3 93.4368 85.5479 87.6666 89.2108C81.8964 92.8737 84.5282 100.218 79.8071 101.267C75.0861 102.316 68.8003 96.5547 63.0392 100.218C57.278 103.88 57.269 107.037 54.6552 107.037C52.0415 107.037 46.7868 104.939 43.6484 107.037C40.5101 109.135 36.8291 111.749 36.8291 111.749H169.426C169.426 111.749 170.982 107.073 165.23 103.926Z" fill="#9468B4"/>
<path d="M250.661 62.0874C248.328 60.8031 247.261 61.8703 246.41 60.8031C245.56 59.7359 248.753 56.9774 242.368 54.2099C242.368 54.2099 241.943 48.2588 233.224 48.0417C224.505 47.8247 226.839 54.0018 224.505 55.4851C222.172 56.9683 221.521 54.6349 219.187 56.1272C216.854 57.6195 217.912 60.5951 215.995 61.0201C214.077 61.4452 211.527 59.1028 209.185 60.5951C206.842 62.0873 206.851 63.3626 205.784 63.3626C204.717 63.3626 202.591 62.5124 201.316 63.3626C200.041 64.2127 198.558 65.2709 198.558 65.2709H252.38C252.38 65.2709 253.004 63.3626 250.661 62.0874Z" fill="#9468B4"/>
<path d="M175.007 172.499C172.665 171.224 171.607 172.291 170.756 171.224C169.906 170.156 173.09 167.398 166.714 164.63C166.714 164.63 166.289 158.67 157.57 158.462C148.851 158.254 151.185 164.422 148.842 165.906C146.5 167.389 145.867 165.055 143.524 166.548C141.182 168.04 142.249 171.016 140.341 171.441C138.432 171.866 135.873 169.523 133.531 171.016C131.188 172.508 131.188 173.792 130.13 173.792C129.072 173.792 126.937 172.942 125.662 173.792C124.387 174.642 122.895 175.709 122.895 175.709H176.708C176.708 175.709 177.313 173.792 175.007 172.499Z" fill="#9468B4"/>
<g opacity="0.4">
<path opacity="0.4" d="M165.23 103.926C159.468 100.778 156.846 103.401 154.747 100.778C152.649 98.1555 160.518 91.3452 144.799 84.4988C144.799 84.4988 143.75 69.82 122.261 69.2955C100.772 68.7709 106.542 83.9742 100.772 87.6371C95.0014 91.3 93.4368 85.5479 87.6666 89.2108C81.8964 92.8737 84.5282 100.218 79.8071 101.267C75.0861 102.316 68.8003 96.5547 63.0392 100.218C57.278 103.88 57.269 107.037 54.6552 107.037C52.0415 107.037 46.7868 104.939 43.6484 107.037C40.5101 109.135 36.8291 111.749 36.8291 111.749H169.426C169.426 111.749 170.982 107.073 165.23 103.926Z" fill="white"/>
</g>
<g opacity="0.4">
<path opacity="0.4" d="M250.661 62.0874C248.328 60.8031 247.261 61.8703 246.41 60.8031C245.56 59.7359 248.753 56.9774 242.368 54.2099C242.368 54.2099 241.943 48.2588 233.224 48.0417C224.505 47.8247 226.839 54.0018 224.505 55.4851C222.172 56.9683 221.521 54.6349 219.187 56.1272C216.854 57.6195 217.912 60.5951 215.995 61.0201C214.077 61.4452 211.527 59.1028 209.185 60.5951C206.842 62.0873 206.851 63.3626 205.784 63.3626C204.717 63.3626 202.591 62.5124 201.316 63.3626C200.041 64.2127 198.558 65.2709 198.558 65.2709H252.38C252.38 65.2709 253.004 63.3626 250.661 62.0874Z" fill="white"/>
</g>
<g opacity="0.4">
<path opacity="0.4" d="M175.007 172.499C172.665 171.224 171.607 172.291 170.756 171.224C169.906 170.156 173.09 167.398 166.714 164.63C166.714 164.63 166.289 158.67 157.57 158.462C148.851 158.254 151.185 164.422 148.842 165.906C146.5 167.389 145.867 165.055 143.524 166.548C141.182 168.04 142.249 171.016 140.341 171.441C138.432 171.866 135.873 169.523 133.531 171.016C131.188 172.508 131.188 173.792 130.13 173.792C129.072 173.792 126.937 172.942 125.662 173.792C124.387 174.642 122.895 175.709 122.895 175.709H176.708C176.708 175.709 177.313 173.792 175.007 172.499Z" fill="white"/>
</g>
<path d="M338.001 185.884H1.55664V188.95H338.001V185.884Z" fill="#263238"/>
<path d="M259.615 187.693V41.1768" stroke="#263238" stroke-linecap="round" stroke-linejoin="round"/>
<path d="M107.673 187.693V18.8647" stroke="#263238" stroke-linecap="round" stroke-linejoin="round"/>
<path d="M10.6729 104.296H325.854" stroke="#263238" stroke-linecap="round" stroke-linejoin="round"/>
<path d="M166.46 24.1827H175.504C176.3 24.1827 177.064 24.4991 177.627 25.0622C178.19 25.6253 178.506 26.3891 178.506 27.1854V36.3201H163.43V27.1854C163.43 26.7888 163.508 26.3961 163.661 26.03C163.813 25.664 164.037 25.3317 164.319 25.0525C164.6 24.7734 164.935 24.5528 165.302 24.4035C165.67 24.2542 166.063 24.1792 166.46 24.1827Z" fill="#263238"/>
<path d="M170.753 54.5898C174.625 54.5898 177.763 51.4516 177.763 47.5805C177.763 43.7094 174.625 40.5713 170.753 40.5713C166.882 40.5713 163.744 43.7094 163.744 47.5805C163.744 51.4516 166.882 54.5898 170.753 54.5898Z" fill="#9468B4"/>
<path opacity="0.4" d="M170.753 54.5898C174.625 54.5898 177.763 51.4516 177.763 47.5805C177.763 43.7094 174.625 40.5713 170.753 40.5713C166.882 40.5713 163.744 43.7094 163.744 47.5805C163.744 51.4516 166.882 54.5898 170.753 54.5898Z" fill="white"/>
<path d="M200.754 47.9152H141.144L163.501 35.7417H178.342L200.754 47.9152Z" fill="#263238"/>
<path d="M172.21 1.49121H169.687V25.8563H172.21V1.49121Z" fill="#263238"/>
<path d="M270.837 127.124C271.898 127.405 272.995 127.527 274.093 127.485C274.093 127.485 273.595 125.975 273.55 125.885C273.044 124.817 271.443 123.072 270.14 123.244C269.924 123.279 269.718 123.359 269.536 123.48C269.353 123.6 269.197 123.757 269.08 123.942C268.962 124.126 268.884 124.333 268.852 124.549C268.82 124.766 268.833 124.987 268.892 125.197C269.057 125.641 269.316 126.043 269.652 126.375C269.987 126.708 270.392 126.964 270.837 127.124Z" fill="#263238"/>
<path d="M301.08 119.264C299.778 119.12 298.222 120.919 297.743 121.978C297.743 122.077 297.227 123.597 297.245 123.597L296.459 124.501C295.943 125.134 295.373 125.849 294.803 126.663C294.184 127.537 293.611 128.442 293.085 129.376C292.504 130.432 292.013 131.537 291.62 132.677C291.62 132.288 291.62 131.212 291.62 131.13C291.466 129.964 290.489 127.802 289.196 127.567C288.98 127.529 288.758 127.539 288.545 127.594C288.332 127.649 288.134 127.748 287.962 127.886C287.791 128.024 287.652 128.197 287.552 128.393C287.453 128.589 287.397 128.804 287.387 129.023C287.403 129.497 287.523 129.961 287.738 130.384C287.954 130.806 288.26 131.175 288.635 131.465C289.545 132.059 290.539 132.514 291.584 132.813C291.202 133.997 290.9 135.205 290.679 136.43C290.553 137.136 290.453 137.85 290.354 138.565C290.354 138.23 290.354 137.932 290.354 137.886C290.209 136.729 289.232 134.558 287.939 134.323C287.722 134.288 287.5 134.3 287.288 134.357C287.076 134.413 286.878 134.514 286.708 134.652C286.537 134.79 286.398 134.963 286.298 135.159C286.199 135.354 286.141 135.569 286.13 135.788C286.15 136.26 286.272 136.721 286.487 137.142C286.703 137.562 287.007 137.93 287.378 138.221C288.26 138.807 289.227 139.252 290.245 139.541L290.137 140.364C289.983 141.685 289.829 143.005 289.639 144.29C289.576 144.751 289.495 145.194 289.413 145.637C289.413 145.339 289.413 145.095 289.413 145.058C289.259 143.892 288.283 141.73 286.989 141.486C286.772 141.45 286.55 141.46 286.337 141.516C286.125 141.573 285.926 141.673 285.755 141.812C285.584 141.95 285.445 142.123 285.346 142.32C285.247 142.516 285.19 142.731 285.18 142.951C285.199 143.424 285.32 143.888 285.536 144.309C285.751 144.731 286.056 145.101 286.429 145.393C287.282 145.962 288.219 146.395 289.205 146.677C289.115 147.139 289.015 147.582 288.898 148.025C288.816 148.323 288.753 148.613 288.653 148.929C288.554 149.246 288.473 149.508 288.373 149.834C288.183 150.376 287.975 150.937 287.776 151.462C287.631 151.823 287.496 152.176 287.351 152.52C287.423 152.068 287.541 151.181 287.541 151.109C287.529 150.076 287.252 149.064 286.736 148.17C286.745 148.055 286.745 147.94 286.736 147.826C286.709 147.609 286.636 147.401 286.523 147.215C286.411 147.028 286.26 146.867 286.081 146.743C285.901 146.618 285.698 146.533 285.484 146.492C285.27 146.451 285.049 146.456 284.837 146.505C283.562 146.84 282.757 149.074 282.702 150.25C282.702 150.313 282.702 151.073 282.775 151.543C282.711 151.272 282.657 151 282.585 150.72C282.449 150.159 282.304 149.599 282.142 149.002C282.06 148.712 281.97 148.423 281.879 148.097C281.789 147.772 281.671 147.509 281.572 147.193C281.319 146.505 281.029 145.818 280.731 145.14C281.759 144.927 282.748 144.555 283.661 144.036C284.054 143.774 284.385 143.429 284.632 143.027C284.878 142.624 285.035 142.172 285.09 141.703C285.094 141.485 285.053 141.268 284.969 141.067C284.885 140.866 284.759 140.685 284.601 140.535C284.443 140.385 284.255 140.27 284.049 140.197C283.844 140.124 283.625 140.095 283.408 140.111C282.096 140.256 280.966 142.336 280.695 143.485C280.695 143.557 280.604 144.389 280.577 144.868C280.387 144.462 280.197 144.045 279.998 143.638C279.41 142.463 278.786 141.287 278.189 140.12L277.629 139.035C278.692 138.815 279.716 138.437 280.667 137.913C281.061 137.652 281.392 137.307 281.639 136.904C281.886 136.501 282.042 136.049 282.096 135.58C282.101 135.362 282.06 135.146 281.975 134.946C281.891 134.745 281.766 134.564 281.607 134.415C281.449 134.266 281.26 134.151 281.055 134.079C280.849 134.008 280.631 133.98 280.414 133.997C279.103 134.133 277.972 136.222 277.701 137.371C277.701 137.452 277.574 138.673 277.556 138.981C277.149 138.185 276.742 137.398 276.38 136.593C275.882 135.518 275.453 134.413 275.096 133.283C276.165 133.059 277.196 132.678 278.153 132.152C278.545 131.889 278.876 131.544 279.122 131.142C279.369 130.739 279.526 130.288 279.582 129.819C279.588 129.6 279.547 129.383 279.464 129.18C279.38 128.978 279.255 128.796 279.097 128.645C278.938 128.494 278.75 128.378 278.543 128.305C278.337 128.231 278.118 128.202 277.9 128.218C276.588 128.363 275.458 130.443 275.187 131.601C275.187 131.691 275.051 132.993 275.051 133.238C275.032 133.169 275.008 133.103 274.979 133.039C274.66 131.893 274.439 130.722 274.318 129.539C274.246 128.878 274.21 128.254 274.192 127.639C275.254 127.545 276.295 127.282 277.276 126.861C277.696 126.645 278.064 126.339 278.355 125.966C278.645 125.592 278.851 125.161 278.958 124.7C278.993 124.48 278.98 124.256 278.922 124.041C278.863 123.827 278.759 123.627 278.617 123.456C278.475 123.285 278.298 123.146 278.098 123.048C277.898 122.951 277.679 122.897 277.457 122.891C276.145 122.891 274.789 124.836 274.427 125.957C274.427 126.02 274.273 126.653 274.183 127.124C274.183 126.843 274.183 126.563 274.183 126.301C274.183 125.306 274.246 124.392 274.309 123.587C274.309 123.126 274.391 122.683 274.436 122.33C275.328 121.752 276.127 121.041 276.806 120.223C277.082 119.835 277.269 119.39 277.354 118.921C277.438 118.452 277.418 117.97 277.294 117.51C277.222 117.302 277.108 117.113 276.958 116.952C276.808 116.792 276.626 116.665 276.424 116.58C276.221 116.495 276.004 116.453 275.784 116.457C275.565 116.462 275.349 116.512 275.15 116.605C273.984 117.211 273.676 119.563 273.866 120.72C273.866 120.82 274.327 122.357 274.345 122.339C274.291 122.71 274.246 123.108 274.192 123.542C274.119 124.347 274.029 125.261 274.011 126.256C273.973 127.332 273.997 128.41 274.083 129.484C274.181 130.684 274.381 131.873 274.68 133.039V133.084C274.472 132.758 273.866 131.872 273.776 131.809C273.007 130.904 270.999 129.656 269.787 130.172C269.588 130.262 269.411 130.393 269.266 130.556C269.122 130.72 269.013 130.912 268.947 131.12C268.881 131.328 268.86 131.548 268.885 131.764C268.91 131.981 268.98 132.19 269.091 132.378C269.368 132.762 269.725 133.082 270.137 133.314C270.549 133.547 271.007 133.687 271.478 133.726C272.568 133.714 273.649 133.543 274.689 133.22C275.025 134.399 275.442 135.553 275.937 136.674C276.218 137.335 276.525 137.986 276.842 138.637C276.652 138.357 276.48 138.112 276.453 138.085C275.684 137.181 273.676 135.933 272.464 136.448C272.266 136.539 272.09 136.671 271.946 136.835C271.802 136.999 271.694 137.191 271.63 137.399C271.565 137.607 271.544 137.826 271.57 138.043C271.595 138.259 271.666 138.468 271.777 138.655C272.053 139.04 272.41 139.36 272.822 139.592C273.234 139.825 273.693 139.965 274.165 140.003C275.22 140 276.269 139.838 277.276 139.523L277.647 140.265C278.244 141.45 278.84 142.635 279.392 143.819C279.591 144.226 279.772 144.642 279.944 145.058C279.781 144.814 279.636 144.615 279.609 144.588C278.84 143.684 276.833 142.436 275.63 142.942C275.431 143.033 275.253 143.165 275.108 143.329C274.964 143.494 274.855 143.686 274.789 143.895C274.724 144.104 274.702 144.324 274.727 144.542C274.752 144.759 274.822 144.969 274.933 145.158C275.211 145.541 275.568 145.858 275.98 146.089C276.392 146.321 276.85 146.459 277.321 146.496C278.348 146.505 279.371 146.353 280.351 146.044C280.523 146.478 280.695 146.949 280.839 147.338C280.93 147.627 281.038 147.898 281.12 148.242L281.364 149.146C281.499 149.707 281.635 150.286 281.762 150.838C281.843 151.227 281.915 151.588 281.988 151.959C281.798 151.543 281.409 150.738 281.373 150.675C280.749 149.68 278.958 148.124 277.683 148.45C277.472 148.509 277.276 148.612 277.108 148.752C276.94 148.892 276.803 149.065 276.707 149.262C276.611 149.458 276.557 149.672 276.549 149.891C276.541 150.11 276.579 150.327 276.661 150.53C276.876 150.952 277.181 151.323 277.555 151.615C277.928 151.907 278.361 152.114 278.822 152.221C279.889 152.385 280.975 152.385 282.042 152.221C282.169 152.836 282.277 153.424 282.377 154.03C282.72 155.984 282.937 157.648 283.064 158.769C283.064 158.968 283.064 159.158 283.127 159.33H279.166L280.613 187.53H287.36L288.807 159.33H285.117L285.199 159.158C285.705 158.1 286.41 156.59 287.17 154.736C287.405 154.148 287.649 153.515 287.903 152.873C288.955 153.114 290.037 153.197 291.113 153.117C291.581 153.044 292.027 152.87 292.42 152.608C292.814 152.345 293.145 152.001 293.393 151.597C293.488 151.401 293.542 151.187 293.55 150.969C293.558 150.751 293.521 150.534 293.44 150.331C293.359 150.128 293.236 149.945 293.08 149.792C292.924 149.639 292.738 149.521 292.533 149.445C291.285 149.029 289.377 150.44 288.681 151.389C288.681 151.444 288.265 152.095 288.029 152.511C288.129 152.249 288.228 151.995 288.328 151.715C288.527 151.172 288.708 150.63 288.907 150.042C288.997 149.752 289.078 149.463 289.169 149.137C289.259 148.812 289.323 148.531 289.404 148.233C289.576 147.518 289.712 146.786 289.829 146.053C290.807 146.44 291.838 146.675 292.886 146.75C293.359 146.749 293.825 146.644 294.253 146.445C294.681 146.245 295.06 145.954 295.364 145.592C295.489 145.412 295.575 145.209 295.616 144.994C295.657 144.779 295.653 144.558 295.604 144.345C295.554 144.132 295.461 143.932 295.329 143.757C295.198 143.582 295.031 143.437 294.84 143.331C293.673 142.734 291.575 143.837 290.743 144.67C290.688 144.724 290.164 145.384 289.838 145.755C289.911 145.312 289.983 144.85 290.037 144.416C290.2 143.105 290.327 141.784 290.453 140.464C290.453 140.057 290.535 139.659 290.58 139.252C291.589 139.654 292.653 139.904 293.736 139.994C294.209 139.99 294.675 139.883 295.103 139.682C295.531 139.481 295.91 139.189 296.214 138.827C296.339 138.648 296.425 138.445 296.466 138.231C296.507 138.017 296.503 137.797 296.453 137.584C296.404 137.372 296.31 137.172 296.179 136.998C296.047 136.825 295.881 136.68 295.69 136.575C294.523 135.969 292.425 137.081 291.593 137.913C291.529 137.977 290.77 138.926 290.589 139.18C290.679 138.275 290.779 137.371 290.914 136.539C291.092 135.366 291.346 134.206 291.674 133.066C292.69 133.468 293.76 133.718 294.849 133.807C295.321 133.806 295.788 133.702 296.216 133.502C296.644 133.302 297.023 133.011 297.327 132.65C297.452 132.47 297.538 132.266 297.579 132.052C297.62 131.837 297.616 131.616 297.566 131.403C297.517 131.19 297.423 130.989 297.292 130.815C297.16 130.64 296.993 130.495 296.802 130.389C295.636 129.792 293.537 130.895 292.705 131.727C292.642 131.791 291.801 132.822 291.683 133.012C291.705 132.946 291.724 132.88 291.737 132.813C292.097 131.679 292.557 130.581 293.112 129.53C293.411 128.942 293.736 128.399 294.017 127.874C294.957 128.379 295.97 128.736 297.019 128.933C297.492 128.98 297.969 128.923 298.417 128.767C298.865 128.611 299.274 128.359 299.615 128.028C299.759 127.864 299.867 127.67 299.932 127.461C299.997 127.252 300.017 127.032 299.992 126.815C299.966 126.597 299.895 126.388 299.784 126.2C299.672 126.011 299.522 125.849 299.344 125.722C298.249 124.998 296.043 125.867 295.12 126.626L294.279 127.467L294.722 126.771C295.274 125.948 295.825 125.224 296.323 124.582C296.612 124.221 296.875 123.904 297.128 123.606C298.19 123.617 299.249 123.468 300.266 123.162C300.706 122.988 301.102 122.721 301.428 122.379C301.755 122.037 302.003 121.629 302.156 121.182C302.268 120.785 302.217 120.36 302.015 120C301.813 119.641 301.477 119.376 301.08 119.264ZM286.609 154.401C285.823 156.21 285.09 157.711 284.574 158.742L284.285 159.303H284.195C284.195 159.095 284.14 158.878 284.104 158.634C283.95 157.476 283.697 155.821 283.308 153.858C283.182 153.234 283.046 152.574 282.892 151.896C283.509 151.647 284.113 151.366 284.701 151.055C285.493 151.733 286.372 152.302 287.315 152.746C287.062 153.316 286.836 153.895 286.6 154.401H286.609Z" fill="#263238"/>
<path d="M294.19 127.667C294.19 127.667 294.615 126.138 294.624 126.03C294.787 124.872 294.416 122.529 293.231 121.951C293.034 121.862 292.82 121.815 292.604 121.813C292.388 121.811 292.173 121.854 291.975 121.939C291.776 122.024 291.597 122.149 291.449 122.307C291.301 122.465 291.187 122.651 291.115 122.855C291.003 123.321 290.996 123.805 291.093 124.274C291.19 124.743 291.389 125.185 291.675 125.568C292.405 126.388 293.252 127.095 294.19 127.667Z" fill="#263238"/>
<path d="M101.313 152.465L94.0143 173.981L86.9056 222.585L60.5508 288.155H68.8353L107.165 225.552L118.976 186.888L135.527 227.297L138.448 288.644H147.194L152.566 223.408L141.849 172.932L139.57 162.215L101.313 152.465Z" fill="#263238" stroke="#263238" stroke-linecap="round" stroke-linejoin="round"/>
<path d="M149.121 95.2611C149.121 95.2611 135.79 93.0362 123.67 95.659C111.551 98.2818 95.4253 103.437 83.6046 111.812C81.2145 113.589 78.9787 115.565 76.9209 117.718L85.7571 124.347C85.7571 124.347 100.056 120.458 104.75 120.422C107.475 120.342 110.194 120.097 112.89 119.689L101.34 152.466C101.34 152.466 100.725 160.343 109.218 163.78C117.71 167.217 133.474 169.116 139.805 164.241C143.143 161.682 159.051 120.512 159.051 120.512C159.051 120.512 163.709 144.715 165.12 148.351C166.159 150.792 167.596 153.044 169.371 155.016L178.252 148.351C178.252 148.351 173.386 124.546 171.568 116.696C169.751 108.845 162.841 96.473 149.121 95.2611Z" fill="#9468B4" stroke="#263238" stroke-linecap="round" stroke-linejoin="round"/>
<path d="M126.899 117.881L112.962 119.699L123.869 122.53" stroke="#263238" stroke-linecap="round" stroke-linejoin="round"/>
<path d="M126.491 97.8838C126.491 97.8838 131.348 105.969 126.898 114.245" stroke="#263238" stroke-linecap="round" stroke-linejoin="round"/>
<path d="M159.024 120.512L168.313 119.092" stroke="#263238" stroke-linecap="round" stroke-linejoin="round"/>
<path d="M159.422 121.317L171.749 123.135" stroke="#263238" stroke-linecap="round" stroke-linejoin="round"/>
<path d="M148.107 92.8374C148.107 92.8374 141.65 94.8543 140.031 96.8711C138.412 98.888 138.421 118.089 138.421 118.089L146.705 116.28L153.778 121.706C153.778 121.706 153.371 110.193 152.159 102.307C150.947 94.4201 148.107 92.8374 148.107 92.8374Z" fill="#9468B4" stroke="#263238" stroke-linecap="round" stroke-linejoin="round"/>
<path d="M151.138 87.7813C151.138 87.7813 145.892 95.2609 144.68 96.8255C143.468 98.3902 144.273 107.136 144.879 110.166C145.321 112.23 145.926 114.256 146.688 116.225L154.973 107.534C154.973 107.534 151.735 103.699 152.341 98.8514C152.947 94.0038 155.606 88.7762 155.389 87.3834C155.172 85.9906 151.138 87.7813 151.138 87.7813Z" fill="white" stroke="#263238" stroke-linecap="round" stroke-linejoin="round"/>
<path d="M150.937 91.2181C150.937 91.2181 147.319 100.109 148.106 103.337C148.893 106.566 157.404 114.046 161.446 112.834C165.489 111.622 166.086 104.142 166.086 104.142C166.086 104.142 167.895 104.956 168.51 104.549C169.125 104.142 169.324 99.1228 169.324 99.1228C170.255 98.0944 171.131 97.0166 171.947 95.894C172.486 95.0553 172.957 94.1753 173.358 93.2621C173.358 93.2621 180.032 93.0631 179.426 87.0035C178.82 80.9439 167.506 72.2524 159.42 72.2524C151.335 72.2524 148.314 81.5408 148.314 84.3536C148.314 87.1663 150.937 91.2181 150.937 91.2181Z" fill="white" stroke="#263238" stroke-linecap="round" stroke-linejoin="round"/>
<path d="M165.97 97.6666C164.719 96.312 162.99 95.4977 161.149 95.3965L165.97 97.6666Z" fill="white"/>
<path d="M165.97 97.6666C164.719 96.312 162.99 95.4977 161.149 95.3965" stroke="#263238" stroke-linecap="round" stroke-linejoin="round"/>
<path d="M164.224 98.7251L163.501 99.9461C163.501 99.9461 161.8 100.389 161.158 99.3491" fill="white"/>
<path d="M164.224 98.7251L163.501 99.9461C163.501 99.9461 161.8 100.389 161.158 99.3491" stroke="#263238" stroke-linecap="round" stroke-linejoin="round"/>
<path d="M179.426 86.9674C178.82 80.9078 167.506 72.2163 159.42 72.2163C151.335 72.2163 148.314 81.5409 148.314 84.3536C148.314 87.1664 150.937 91.2182 150.937 91.2182C150.937 91.2182 147.319 100.109 148.106 103.337C148.893 106.566 157.404 114.046 161.446 112.834C164.63 111.875 165.679 107.036 165.968 105.029C163.092 101.927 158.796 105.219 156.382 105.933C153.759 106.738 151.127 103.102 151.127 101.076C151.127 99.0505 153.759 93.6058 154.365 92.5929C154.971 91.5799 158.199 92.3939 160.017 92.1949C161.835 91.996 159.212 88.9571 159.619 87.1392C160.026 85.3214 166.077 91.589 168.501 92.9999C169.238 93.4069 170.06 93.6368 170.901 93.6713C171.743 93.7059 172.58 93.5441 173.348 93.1989C173.348 93.1989 180.023 93.0361 179.426 86.9674ZM161.844 106.774C164.874 106.367 164.874 107.579 164.874 107.579C163.78 110.139 163.264 109.605 162.251 109.198C161.238 108.791 158.814 107.181 161.844 106.774Z" fill="#263238" stroke="#263238" stroke-linecap="round" stroke-linejoin="round"/>
<path d="M151.743 93.0365C151.743 93.0365 152.349 88.9937 149.934 88.5958C147.52 88.1978 147.312 91.6256 147.312 93.8414C147.312 96.0572 149.934 96.0663 151.146 95.6502" fill="white"/>
<path d="M151.743 93.0365C151.743 93.0365 152.349 88.9937 149.934 88.5958C147.52 88.1978 147.312 91.6256 147.312 93.8414C147.312 96.0572 149.934 96.0663 151.146 95.6502" stroke="#263238" stroke-linecap="round" stroke-linejoin="round"/>
<path d="M150.224 81.731C149.736 82.0392 149.315 82.4421 148.985 82.9157" stroke="white" stroke-width="0.5" stroke-linecap="round" stroke-linejoin="round"/>
<path d="M166.459 89.3639C163.472 88.0853 160.822 86.1319 158.717 83.657C156.564 81.1699 154.086 80.582 152.105 80.9438" stroke="white" stroke-width="0.5" stroke-linecap="round" stroke-linejoin="round"/>
<path d="M158.193 90.4674C158.193 90.4674 156.384 84.2088 148.805 86.2347" stroke="white" stroke-width="0.5" stroke-linecap="round" stroke-linejoin="round"/>
<path d="M75.2299 127.829C75.2299 127.829 77.9432 123.542 81.3438 124.754C83.7974 125.766 86.0536 127.202 88.0093 128.996L91.0392 124.148C91.0392 124.148 91.6451 119.102 86.1915 116.479C80.7378 113.856 77.708 116.072 77.708 116.072C75.6278 116.461 73.0141 126.662 75.2299 127.829Z" fill="#9468B4" stroke="#263238" stroke-linecap="round" stroke-linejoin="round"/>
<path d="M179.039 144.308C175.887 145.194 172.889 146.558 170.149 148.35C168.046 149.788 166.538 151.942 165.907 154.41C165.907 154.41 170.556 159.457 171.56 159.457C172.564 159.457 180.251 150.973 181.056 150.168C181.861 149.363 179.039 144.308 179.039 144.308Z" fill="#9468B4" stroke="#263238" stroke-linecap="round" stroke-linejoin="round"/>
<path d="M214.591 167.135C214.591 167.135 214.392 169.966 213.578 170.572C212.764 171.178 209.137 170.572 209.137 170.572C209.137 170.572 206.713 167.135 207.717 165.724C208.721 164.313 210.548 164.711 211.76 165.118C212.815 165.619 213.773 166.302 214.591 167.135Z" fill="white" stroke="#263238" stroke-linecap="round" stroke-linejoin="round"/>
<path d="M181.056 150.168L202.636 161.275L210.513 162.288C210.513 162.288 220.209 167.135 220.209 167.94C220.209 168.745 219.205 169.161 218.4 168.953C217.595 168.745 211.734 166.33 210.522 166.33C209.31 166.33 208.297 166.728 208.505 167.741C208.713 168.754 211.535 172.996 209.916 172.996C208.297 172.996 206.687 168.953 205.874 168.546C204.578 167.502 203.368 166.356 202.256 165.119C202.256 165.119 183.67 161.275 179.428 160.669C177.049 160.385 174.768 159.556 172.763 158.245L181.056 150.168Z" fill="white" stroke="#263238" stroke-linecap="round" stroke-linejoin="round"/>
<path d="M68.826 288.155L71.4217 291.872C72.5098 293.421 73.9557 294.684 75.6363 295.553L80.6649 298.149C80.8317 298.235 80.9721 298.364 81.0709 298.523C81.1697 298.683 81.2232 298.866 81.2256 299.054C81.2258 299.195 81.1972 299.335 81.1416 299.465C81.086 299.594 81.0044 299.712 80.902 299.809C80.7996 299.906 80.6785 299.982 80.546 300.031C80.4134 300.08 80.2723 300.101 80.1313 300.094C75.4102 299.849 56.9148 298.909 56.2727 298.909C55.6305 298.909 55.2868 297.923 55.531 294.957C55.7752 291.99 60.5506 288.137 60.5506 288.137L68.826 288.155Z" fill="white" stroke="#263238" stroke-linecap="round" stroke-linejoin="round"/>
<path d="M147.149 288.155L149.745 291.872C150.833 293.421 152.279 294.684 153.959 295.553L158.979 298.149C159.148 298.233 159.291 298.361 159.391 298.521C159.492 298.681 159.546 298.865 159.549 299.054C159.549 299.195 159.52 299.335 159.465 299.465C159.409 299.594 159.327 299.712 159.225 299.809C159.123 299.906 159.001 299.982 158.869 300.031C158.736 300.08 158.595 300.101 158.454 300.094C153.733 299.849 135.238 298.909 134.596 298.909C133.954 298.909 133.601 297.923 133.854 294.957C134.107 291.99 138.874 288.137 138.874 288.137L147.149 288.155Z" fill="white" stroke="#263238" stroke-linecap="round" stroke-linejoin="round"/>
<path d="M79.4894 160.768C79.4894 160.768 76.7761 165.1 77.5268 168.663C78.2775 172.227 84.9069 187.747 89.8269 202C94.747 216.254 93.7611 231.774 93.7611 236.368C93.7611 240.963 93.517 244.255 96.9628 246.037C100.409 247.818 105.817 246.805 107.291 243.495C108.765 240.185 109.751 219.076 107.047 206.333C104.343 193.589 94.747 171.214 92.2869 166.122C89.8269 161.03 88.5969 153.894 79.4894 160.768Z" fill="white"/>
<path opacity="0.25" d="M79.4904 160.768C79.4904 160.768 76.7771 165.1 77.5278 168.663C78.2784 172.227 84.9078 187.747 89.8279 202C94.7479 216.254 93.7621 231.774 93.7621 236.368C93.7621 240.963 93.5179 244.255 96.9638 246.037C100.41 247.818 105.818 246.805 107.292 243.495C108.766 240.185 109.752 219.076 107.048 206.333C104.344 193.589 94.7479 171.214 92.2879 166.122C89.8279 161.03 88.5979 153.894 79.4904 160.768Z" fill="black"/>
<path opacity="0.25" d="M75.8722 163.481C75.8722 163.481 73.1589 167.813 73.9096 171.377C74.6603 174.94 81.2897 190.46 86.2097 204.714C91.1298 218.967 90.1439 234.487 90.1439 239.082C90.1439 243.676 89.8998 246.968 93.3456 248.75C96.7914 250.532 102.2 249.519 103.674 246.209C105.148 242.898 106.134 221.789 103.43 209.046C100.726 196.303 91.1298 173.927 88.6698 168.835C86.2097 163.744 84.9797 156.608 75.8722 163.481Z" fill="black"/>
<path d="M79.4894 160.768C79.4894 160.768 76.7761 165.1 77.5268 168.663C78.2775 172.227 84.9069 187.747 89.8269 202C94.747 216.254 93.7611 231.774 93.7611 236.368C93.7611 240.963 93.517 244.255 96.9628 246.037C100.409 247.818 105.817 246.805 107.291 243.495C108.765 240.185 109.751 219.076 107.047 206.333C104.343 193.589 94.747 171.214 92.2869 166.122C89.8269 161.03 88.5969 153.894 79.4894 160.768Z" stroke="#263238" stroke-linecap="round" stroke-linejoin="round"/>
<path d="M75.6892 124.953C75.3757 129.69 76.0565 134.44 77.688 138.899C79.2707 143.222 87.709 156.861 87.709 156.861C87.709 156.861 80.6364 159.493 78.6195 161.31C76.6027 163.128 74.1698 168.98 75.3817 169.188C76.5936 169.396 81.0434 164.34 82.0563 163.933C83.0693 163.526 88.9209 163.128 88.9209 163.128C88.9209 163.128 87.709 164.783 86.7684 166.312C86.2756 166.997 85.911 167.767 85.6921 168.582C85.6921 169.586 87.103 169.387 87.9079 167.768C88.7129 166.149 91.1458 166.357 91.9507 162.721C92.3826 160.163 92.2437 157.541 91.5437 155.043L88.0074 128.986C88.0074 128.986 84.3445 121.67 75.6892 124.953Z" fill="white" stroke="#263238" stroke-linecap="round" stroke-linejoin="round"/>
<path d="M75.3838 169.197C75.3838 169.197 78.1875 163.165 81.2716 162.134" stroke="#263238" stroke-linecap="round" stroke-linejoin="round"/>
<path d="M76.1348 165.733C77.4221 163.883 78.98 162.237 80.7564 160.849" stroke="#263238" stroke-linecap="round" stroke-linejoin="round"/>
<path d="M131.628 243.061H128.327V274.87H131.628V243.061Z" fill="white" stroke="#263238" stroke-linecap="round" stroke-linejoin="round"/>
<path d="M134.17 276.172V270.809H125.786V276.217L92.2588 289.096V295.445H94.547V290.615L130.1 283.109L164.712 290.615V295.445H166.937V289.096L134.17 276.172Z" fill="white" stroke="#263238" stroke-linecap="round" stroke-linejoin="round"/>
<path d="M138.23 243.061H121.725V253.218H138.23V243.061Z" fill="white" stroke="#263238" stroke-linecap="round" stroke-linejoin="round"/>
<path d="M88.7048 299.253C90.6678 299.253 92.2591 297.661 92.2591 295.698C92.2591 293.735 90.6678 292.144 88.7048 292.144C86.7417 292.144 85.1504 293.735 85.1504 295.698C85.1504 297.661 86.7417 299.253 88.7048 299.253Z" fill="#263238" stroke="#263238" stroke-linecap="round" stroke-linejoin="round"/>
<path d="M90.2347 295.698C90.2347 295.396 90.145 295.101 89.9771 294.849C89.8091 294.598 89.5704 294.402 89.2911 294.286C89.0118 294.171 88.7045 294.14 88.408 294.199C88.1115 294.258 87.8392 294.404 87.6254 294.618C87.4117 294.831 87.2661 295.104 87.2071 295.4C87.1481 295.697 87.1784 296.004 87.2941 296.283C87.4098 296.563 87.6057 296.801 87.857 296.969C88.1084 297.137 88.4039 297.227 88.7062 297.227C89.1116 297.227 89.5004 297.066 89.787 296.779C90.0736 296.493 90.2347 296.104 90.2347 295.698Z" fill="white" stroke="#263238" stroke-linecap="round" stroke-linejoin="round"/>
<path d="M170.744 299.253C172.707 299.253 174.298 297.661 174.298 295.698C174.298 293.735 172.707 292.144 170.744 292.144C168.781 292.144 167.189 293.735 167.189 295.698C167.189 297.661 168.781 299.253 170.744 299.253Z" fill="#263238" stroke="#263238" stroke-linecap="round" stroke-linejoin="round"/>
<path d="M170.745 297.227C171.589 297.227 172.274 296.543 172.274 295.698C172.274 294.854 171.589 294.17 170.745 294.17C169.901 294.17 169.217 294.854 169.217 295.698C169.217 296.543 169.901 297.227 170.745 297.227Z" fill="white" stroke="#263238" stroke-linecap="round" stroke-linejoin="round"/>
<path d="M131.502 296.205H128.707L127.314 277.158H132.904L131.502 296.205Z" fill="white" stroke="#263238" stroke-linecap="round" stroke-linejoin="round"/>
<path d="M131.377 292.144H128.582V300.022H131.377V292.144Z" fill="#263238" stroke="#263238" stroke-linecap="round" stroke-linejoin="round"/>
<path d="M140.502 188.706C140.502 188.706 162.814 185.197 164.921 184.844C167.029 184.491 171.071 187.304 172.998 188.706C174.924 190.108 183.715 195.38 182.666 195.733C181.617 196.086 178.099 194.684 175.81 193.807C173.522 192.929 171.768 192.224 171.768 192.224C172.618 193.407 173.559 194.523 174.58 195.561C175.485 196.267 175.114 196.791 172.654 195.733C170.524 194.862 168.688 193.4 167.363 191.518C166.459 190.117 165.075 187.657 165.075 187.657C165.075 187.657 145.757 194.892 142.591 195.914C139.426 196.936 134.506 196.963 134.686 193.626C134.867 190.288 140.502 188.706 140.502 188.706Z" fill="white" stroke="#263238" stroke-linecap="round" stroke-linejoin="round"/>
<path d="M172.996 188.706C171.07 187.304 167.027 184.491 164.92 184.844C163.798 185.034 157.015 186.101 150.874 187.069L151.661 192.631C157.992 190.316 165.092 187.657 165.092 187.657C165.092 187.657 166.502 190.117 167.38 191.518C168.7 193.397 170.529 194.859 172.652 195.733C175.112 196.791 175.456 196.267 174.579 195.561C173.557 194.523 172.617 193.407 171.766 192.224C171.766 192.224 173.53 192.929 175.809 193.807C178.088 194.684 181.606 196.086 182.664 195.733C183.723 195.38 174.932 190.117 172.996 188.706Z" fill="white" stroke="#263238" stroke-linecap="round" stroke-linejoin="round"/>
<path d="M174.228 190.641L182.666 195.733" stroke="#263238" stroke-linecap="round" stroke-linejoin="round"/>
<path d="M157.93 133.355C157.93 133.355 162.85 130.19 161.973 126.681C161.096 123.171 146.517 117.89 139.489 119.445C132.462 121.001 130.174 128.227 128.238 133.5C126.303 138.773 118.407 161.437 118.407 161.437C118.407 161.437 124.205 167.931 131.585 164.594C138.965 161.257 145.639 143.168 148.977 139.478C152.314 135.788 157.93 133.355 157.93 133.355Z" fill="#263238" stroke="#263238" stroke-linecap="round" stroke-linejoin="round"/>
<path d="M152.893 121.959C152.893 121.959 156.022 124.166 156.944 126.192C157.867 128.218 156.754 129.321 156.754 129.321" stroke="white" stroke-width="0.5" stroke-linecap="round" stroke-linejoin="round"/>
<path d="M155.251 123.985C151.511 127.898 147.076 131.081 142.173 133.373C134.621 136.692 129.466 139.451 127.069 142.218" stroke="white" stroke-width="0.5" stroke-linecap="round" stroke-linejoin="round"/>
<path d="M124.602 146.867C124.21 147.753 123.866 148.658 123.571 149.58" stroke="white" stroke-width="0.5" stroke-linecap="round" stroke-linejoin="round"/>
<path d="M146.09 124.772C144.458 126.348 142.717 127.808 140.881 129.14C135.762 132.903 129.413 137.895 125.659 144.723" stroke="white" stroke-width="0.5" stroke-linecap="round" stroke-linejoin="round"/>
<path d="M148.985 121.408C148.675 121.89 148.33 122.35 147.954 122.782" stroke="white" stroke-width="0.5" stroke-linecap="round" stroke-linejoin="round"/>
<path d="M130.878 151.796C130.878 151.796 118.216 157.223 114.535 159.177C110.854 161.13 110.148 164.974 110.148 168.311C110.148 171.649 114.906 196.773 114.906 196.773H135.617C135.617 196.773 139.307 189.393 141.948 186.933C144.589 184.473 146.687 179.562 145.638 176.216C144.589 172.869 143.522 171.124 143.522 167.787C143.522 164.449 142.825 160.235 140.184 157.594C137.543 154.953 136.151 150.747 130.878 151.796Z" fill="white" stroke="#263238" stroke-linecap="round" stroke-linejoin="round"/>
<path d="M174.525 247.402C174.977 249.699 176.813 252.548 177.717 254.728C179.526 259.151 182.854 266.16 184.862 270.51C187.711 276.714 189.846 284.746 189.457 285.288C188.766 286.664 188.317 288.147 188.127 289.675C188.127 290.769 188.887 300.076 188.887 300.076H190.225L191.175 294.595C191.175 294.595 194.214 294.785 195.164 295.689C196.113 296.594 197.253 298.61 198.962 299.524C200.671 300.437 208.459 300.799 208.459 300.799C208.459 300.799 209.788 300.076 208.079 298.61C206.369 297.145 203.71 295.147 202.191 292.958C200.671 290.769 196.303 285.478 196.303 285.478C196.303 285.478 186.418 231.294 185.658 228.961C184.898 226.628 182.429 221.482 180.15 220.939C177.871 220.396 170.075 219.609 170.075 219.609L169.704 228.961C169.704 228.961 171.513 228.599 173.584 232.796C174.868 235.292 173.213 240.646 174.525 247.402Z" fill="white" stroke="#263238" stroke-linecap="round" stroke-linejoin="round"/>
<path d="M204.714 295.735C200.192 297.236 195.516 292.75 193.454 290.398C192.138 288.968 190.506 287.866 188.688 287.179C188.396 287.984 188.207 288.822 188.127 289.675C188.127 290.769 188.887 300.076 188.887 300.076H190.225L191.175 294.595C191.175 294.595 194.214 294.785 195.163 295.689C196.113 296.594 197.253 298.611 198.962 299.524C200.671 300.438 208.458 300.799 208.458 300.799C208.458 300.799 209.788 300.076 208.078 298.611C207.156 297.806 205.89 296.793 204.714 295.735Z" fill="#263238" stroke="#263238" stroke-linecap="round" stroke-linejoin="round"/>
<path d="M180.215 217.331C180.215 217.331 188.49 219.646 187.975 221.428C187.459 223.209 175.032 260.408 170.375 269.136C165.717 277.863 163.989 284.809 164.505 286.944C165.02 289.078 169.344 296.033 170.718 297.1C172.093 298.168 175.548 299.949 175.032 300.13C171.356 300.401 167.665 300.401 163.989 300.13C163.139 300.031 158.301 294.251 157.432 293.89L156.528 293.537V299.949H154.701L154.014 290.154C154.552 288.342 155.43 286.648 156.6 285.162C158.328 283.209 160.046 281.065 161.602 275.729C163.157 270.393 168.837 242.98 169.742 237.454C170.327 233.907 171.351 230.447 172.789 227.153L180.215 217.331Z" fill="white" stroke="#263238" stroke-linecap="round" stroke-linejoin="round"/>
<path d="M170.719 297.101C170.257 296.682 169.844 296.211 169.489 295.699C168.139 295.777 166.79 295.532 165.554 294.984C163.311 293.736 161.24 290.887 159.341 288.744C158.316 287.703 157.108 286.859 155.778 286.257C155.006 287.478 154.398 288.794 153.969 290.173L154.656 299.968H156.555V293.537L157.46 293.89C158.364 294.252 163.167 300.031 164.017 300.131C167.693 300.401 171.384 300.401 175.06 300.131C175.548 299.95 172.102 298.168 170.719 297.101Z" fill="#263238" stroke="#263238" stroke-linecap="round" stroke-linejoin="round"/>
<path d="M114.907 196.773C114.907 196.773 113.306 216.299 113.098 222.63C112.89 228.961 118.19 235.102 125.398 235.808C132.606 236.513 175.503 230.68 175.503 230.68L182.53 217.855C182.53 217.855 161.801 212.582 154.773 210.62C147.746 208.657 141.071 207.454 141.071 207.454L135.645 196.737L114.907 196.773Z" fill="#263238" stroke="#263238" stroke-linecap="round" stroke-linejoin="round"/>
<path d="M138.953 162.161L142.472 168.311C142.472 168.311 141.242 161.817 140.536 159.529C139.831 157.241 137.904 157.946 137.904 159.176C138.015 160.404 138.258 161.617 138.628 162.794" fill="#9468B4"/>
<path d="M138.953 162.161L142.472 168.311C142.472 168.311 141.242 161.817 140.536 159.529C139.831 157.241 137.904 157.946 137.904 159.176C138.015 160.404 138.258 161.617 138.628 162.794" stroke="#263238" stroke-linecap="round" stroke-linejoin="round"/>
<path d="M139.434 140.745L133.374 150.44L138.629 162.758C138.629 162.758 141.857 155.288 143.476 153.47C145.095 151.652 147.917 149.02 147.917 149.02C147.917 149.02 142.87 142.96 142.491 141.35C142.111 139.741 139.841 139.126 139.434 140.745Z" fill="white" stroke="#263238" stroke-linecap="round" stroke-linejoin="round"/>
<path d="M132.28 148.64L129.124 151.796L134.74 167.967L138.955 162.161L132.28 148.64Z" fill="#9468B4" stroke="#263238" stroke-linecap="round" stroke-linejoin="round"/>
<path d="M112.781 174.461C112.781 174.461 121.916 195.019 123.851 199.233C125.787 203.448 130.001 204.325 133.863 204.325C137.725 204.325 161.936 203.638 161.936 203.638C161.936 203.638 175.286 204.162 177.574 203.638C179.862 203.113 183.543 199.948 184.249 199.948C184.954 199.948 188.816 203.457 189.675 203.457C190.534 203.457 191.086 202.932 190.381 201.702C189.675 200.472 186.862 195.028 184.954 194.856C183.046 194.684 174.761 200.12 174.761 200.12C174.761 200.12 161.059 198.193 153.86 196.258C146.661 194.322 135.41 189.927 135.41 189.927C135.41 189.927 130.843 181.489 128.907 176.36C126.972 171.232 126.628 164.413 123.11 161.6C119.592 158.788 115.205 161.953 115.205 161.953" fill="white"/>
<path d="M112.781 174.461C112.781 174.461 121.916 195.019 123.851 199.233C125.787 203.448 130.001 204.325 133.863 204.325C137.725 204.325 161.936 203.638 161.936 203.638C161.936 203.638 175.286 204.162 177.574 203.638C179.862 203.113 183.543 199.948 184.249 199.948C184.954 199.948 188.816 203.457 189.675 203.457C190.534 203.457 191.086 202.932 190.381 201.702C189.675 200.472 186.862 195.028 184.954 194.856C183.046 194.684 174.761 200.12 174.761 200.12C174.761 200.12 161.059 198.193 153.86 196.258C146.661 194.322 135.41 189.927 135.41 189.927C135.41 189.927 130.843 181.489 128.907 176.36C126.972 171.232 126.628 164.413 123.11 161.6C119.592 158.788 115.205 161.953 115.205 161.953" stroke="#263238" stroke-linecap="round" stroke-linejoin="round"/>
<path d="M184.99 194.847C183.054 194.666 174.797 200.11 174.797 200.11C174.797 200.11 167.932 199.143 161.366 197.895L161.538 203.638H161.936C161.936 203.638 175.285 204.162 177.573 203.638C179.862 203.113 183.543 199.948 184.248 199.948C184.954 199.948 188.815 203.457 189.675 203.457C190.534 203.457 191.085 202.932 190.38 201.702C189.675 200.472 186.916 195.019 184.99 194.847Z" fill="white" stroke="#263238" stroke-linecap="round" stroke-linejoin="round"/>
<path d="M184.637 198.003C184.637 198.003 189.376 201.34 190.434 202.923" stroke="#263238" stroke-linecap="round" stroke-linejoin="round"/>
<path d="M185.162 196.42L189.377 199.939" stroke="#263238" stroke-linecap="round" stroke-linejoin="round"/>
<path d="M157.415 129.222C157.967 131.168 158.414 133.143 158.753 135.137C158.952 136.946 157.542 137.968 158.148 138.972C158.753 139.976 160.309 143.15 159.504 143.548C158.794 143.819 158.04 143.957 157.279 143.955C157.279 143.955 153.58 150.838 152.757 152.095C151.934 153.352 146.291 150.485 143.659 149.273C141.027 148.061 140.837 142.201 140.837 142.201L140.629 138.158C140.629 138.158 153.381 133.464 157.415 129.222Z" fill="white" stroke="#263238" stroke-linecap="round" stroke-linejoin="round"/>
<path d="M154.447 135.887C157.07 132.704 157.034 136.222 157.034 136.222L154.447 135.887Z" fill="white"/>
<path d="M154.447 135.887C157.07 132.704 157.034 136.222 157.034 136.222" stroke="#263238" stroke-linecap="round" stroke-linejoin="round"/>
<path d="M155.704 139.659C155.469 140.401 155.044 140.925 154.746 140.835C154.447 140.744 154.402 140.066 154.628 139.324C154.854 138.583 155.288 138.058 155.587 138.158C155.885 138.257 155.93 138.926 155.704 139.659Z" fill="#263238"/>
<path d="M142.038 139.731C142.038 139.731 140.618 134.675 139.008 135.688C137.398 136.701 136.584 140.536 138.194 142.562C139.804 144.588 142.436 143.367 142.436 143.367" fill="white"/>
<path d="M142.038 139.731C142.038 139.731 140.618 134.675 139.008 135.688C137.398 136.701 136.584 140.536 138.194 142.562C139.804 144.588 142.436 143.367 142.436 143.367" stroke="#263238" stroke-linecap="round" stroke-linejoin="round"/>
<path d="M153.25 232.559L107.577 233.929C105.459 233.993 103.794 235.761 103.857 237.879L104.054 244.436C104.117 246.554 105.886 248.219 108.004 248.156L153.677 246.786C155.795 246.722 157.46 244.954 157.397 242.836L157.2 236.279C157.136 234.161 155.368 232.496 153.25 232.559Z" fill="white"/>
<path opacity="0.25" d="M153.25 232.56L107.577 233.93C105.459 233.993 103.794 235.762 103.857 237.88L104.054 244.437C104.117 246.555 105.886 248.22 108.004 248.156L153.677 246.786C155.795 246.723 157.46 244.954 157.397 242.836L157.2 236.279C157.136 234.162 155.368 232.496 153.25 232.56Z" fill="black"/>
<path opacity="0.25" d="M153.625 235.845L107.974 237.288C105.858 237.355 104.196 239.125 104.263 241.242L104.47 247.796C104.537 249.913 106.307 251.574 108.424 251.507L154.074 250.065C156.191 249.998 157.853 248.228 157.786 246.111L157.579 239.557C157.512 237.44 155.742 235.779 153.625 235.845Z" fill="black"/>
<path d="M153.25 232.559L107.577 233.929C105.459 233.993 103.794 235.761 103.857 237.879L104.054 244.436C104.117 246.554 105.886 248.219 108.004 248.156L153.677 246.786C155.795 246.722 157.46 244.954 157.397 242.836L157.2 236.279C157.136 234.161 155.368 232.496 153.25 232.559Z" stroke="#263238" stroke-width="1.00045" stroke-linecap="round" stroke-linejoin="round"/>
<path d="M139.759 241.09C139.517 241.089 139.277 241.04 139.054 240.945C138.828 240.856 138.622 240.722 138.449 240.552C138.276 240.381 138.138 240.178 138.046 239.953C137.953 239.729 137.906 239.488 137.908 239.245C137.911 239.002 137.962 238.762 138.059 238.539C141.026 231.394 144.39 218.642 140.944 214.843C140.13 214.283 135.228 213.089 108.801 215.513L106.884 215.684C105.075 215.829 103.456 218.181 103.049 218.995C102.829 219.431 102.446 219.763 101.982 219.916C101.518 220.07 101.012 220.033 100.575 219.813C100.139 219.594 99.8073 219.21 99.6538 218.746C99.5003 218.282 99.5374 217.776 99.7569 217.339C100.01 216.833 102.38 212.338 106.594 212.012L108.466 211.85C136.621 209.263 142.02 210.565 143.657 212.347C149.862 219.121 142.337 237.843 141.46 239.959C141.323 240.297 141.088 240.585 140.784 240.787C140.481 240.989 140.124 241.094 139.759 241.09Z" fill="white" stroke="#263238" stroke-linecap="round" stroke-linejoin="round"/>
<path d="M300.973 205.483H155.994V215.64H300.973V205.483Z" fill="#9468B4" stroke="#263238" stroke-linecap="round" stroke-linejoin="round"/>
<path d="M214.936 201.386H183.372V208.259H214.936V201.386Z" fill="white" stroke="#263238" stroke-linecap="round" stroke-linejoin="round"/>
<path d="M276.155 194.893H244.591V199.984H276.155V194.893Z" fill="white" stroke="#263238" stroke-linecap="round" stroke-linejoin="round"/>
<path d="M277.431 189.8H245.867V194.892H277.431V189.8Z" fill="white" stroke="#263238" stroke-linecap="round" stroke-linejoin="round"/>
<path d="M278.065 199.857H246.501V208.259H278.065V199.857Z" fill="white" stroke="#263238" stroke-linecap="round" stroke-linejoin="round"/>
<path d="M300.973 205.709H155.994V210.548H300.973V205.709Z" fill="#263238" stroke="#263238" stroke-linecap="round" stroke-linejoin="round"/>
<path d="M156.791 300.112C156.524 300.112 156.268 300.007 156.078 299.819C155.889 299.631 155.781 299.376 155.778 299.108L155.118 205.709H158.455L157.795 299.108C157.795 299.375 157.689 299.63 157.501 299.818C157.313 300.007 157.058 300.112 156.791 300.112Z" fill="#9468B4" stroke="#263238" stroke-linecap="round" stroke-linejoin="round"/>
<path d="M300.096 300.112C299.83 300.112 299.574 300.007 299.386 299.818C299.198 299.63 299.092 299.375 299.092 299.108L298.432 205.709H301.769L301.109 299.108C301.104 299.375 300.996 299.629 300.806 299.816C300.617 300.004 300.362 300.11 300.096 300.112Z" fill="#9468B4" stroke="#263238" stroke-linecap="round" stroke-linejoin="round"/>
<path d="M234.381 204.045H218.753C218.453 204.045 218.165 203.926 217.953 203.714C217.741 203.502 217.622 203.215 217.622 202.915C217.622 202.615 217.741 202.327 217.953 202.115C218.165 201.903 218.453 201.784 218.753 201.784H234.381C234.756 201.779 235.125 201.695 235.466 201.54C235.807 201.384 236.112 201.159 236.362 200.88C236.662 200.543 236.874 200.137 236.979 199.698C237.083 199.259 237.076 198.801 236.959 198.366L231.414 178.468C231.375 178.325 231.363 178.176 231.381 178.028C231.399 177.881 231.446 177.738 231.519 177.609C231.592 177.48 231.69 177.366 231.807 177.274C231.924 177.183 232.058 177.115 232.201 177.076C232.49 176.998 232.798 177.036 233.059 177.184C233.32 177.331 233.512 177.575 233.594 177.862L239.138 197.76C239.342 198.493 239.373 199.263 239.23 200.011C239.086 200.758 238.772 201.462 238.311 202.068C237.851 202.674 237.256 203.166 236.575 203.504C235.893 203.842 235.142 204.018 234.381 204.018V204.045Z" fill="white" stroke="#263238" stroke-linecap="round" stroke-linejoin="round"/>
<path d="M232.426 152.413L228.888 151.989L223.401 197.732L226.939 198.156L232.426 152.413Z" fill="white" stroke="#263238" stroke-linecap="round" stroke-linejoin="round"/>
<path d="M232.483 152.394C235.949 167.821 234.011 183.97 226.993 198.139L232.483 152.394Z" fill="#263238" stroke="#263238" stroke-linecap="round" stroke-linejoin="round"/>
<path d="M202.572 201.404C201.914 201.388 201.27 201.218 200.691 200.906C199.829 200.477 199.112 199.804 198.63 198.972C198.148 198.139 197.921 197.182 197.977 196.221C198 195.764 198.123 195.318 198.339 194.915C198.555 194.511 198.858 194.16 199.225 193.888C200.79 192.767 203.16 193.309 203.431 193.382C203.664 193.44 203.863 193.589 203.986 193.795C204.109 194.001 204.145 194.248 204.087 194.48C204.028 194.713 203.879 194.913 203.673 195.036C203.467 195.159 203.22 195.195 202.988 195.136C202.085 194.892 201.126 194.969 200.274 195.353C200.12 195.472 199.995 195.626 199.91 195.802C199.825 195.977 199.783 196.171 199.786 196.366C199.754 196.971 199.901 197.573 200.208 198.095C200.515 198.618 200.969 199.039 201.514 199.306C201.75 199.469 202.026 199.565 202.313 199.584C202.599 199.603 202.886 199.545 203.141 199.414C203.326 199.261 203.564 199.187 203.803 199.209C203.922 199.22 204.037 199.254 204.142 199.309C204.247 199.365 204.341 199.44 204.417 199.532C204.493 199.623 204.55 199.729 204.585 199.842C204.62 199.956 204.633 200.075 204.622 200.194C204.611 200.312 204.577 200.427 204.522 200.532C204.466 200.638 204.391 200.731 204.299 200.807C203.81 201.2 203.199 201.411 202.572 201.404Z" fill="white" stroke="#263238" stroke-linecap="round" stroke-linejoin="round"/>
<path d="M210.865 202.951C209.689 203.927 205.927 203.927 204.751 202.951C202.653 201.205 202.716 192.224 202.716 192.224H212.9C212.9 192.224 212.963 201.205 210.865 202.951Z" fill="white" stroke="#263238" stroke-linecap="round" stroke-linejoin="round"/>
<path d="M304.537 203.493H152.432V207.708H304.537V203.493Z" fill="#9468B4" stroke="#263238" stroke-linecap="round" stroke-linejoin="round"/>
<path d="M334.401 299.407H0.199219V305.457H334.401V299.407Z" fill="#263238"/>
</svg>
