<svg width="622" height="464" viewBox="0 0 622 464" fill="none" xmlns="http://www.w3.org/2000/svg">
<path d="M622 407.706H0V408.017H622V407.706Z" fill="#EBEBEB"/>
<path d="M294.828 352.223H54.624C52.7423 352.22 50.9387 351.47 49.6093 350.138C48.2799 348.807 47.5332 347.002 47.5332 345.12V7.46096C47.5496 5.59002 48.3035 3.80109 49.6311 2.48275C50.9588 1.1644 52.753 0.423127 54.624 0.419922H294.828C296.712 0.419922 298.519 1.1683 299.851 2.50041C301.183 3.83253 301.931 5.63926 301.931 7.52316V345.12C301.931 347.004 301.183 348.811 299.851 350.143C298.519 351.475 296.712 352.223 294.828 352.223ZM54.624 0.668723C52.8247 0.672018 51.1003 1.38908 49.8292 2.66251C48.5581 3.93595 47.8442 5.6617 47.8442 7.46096V345.12C47.8442 346.919 48.5581 348.645 49.8292 349.918C51.1003 351.192 52.8247 351.909 54.624 351.912H294.828C296.628 351.909 298.354 351.192 299.627 349.919C300.9 348.646 301.617 346.92 301.62 345.12V7.46096C301.617 5.66056 300.9 3.93483 299.627 2.66175C298.354 1.38867 296.628 0.672011 294.828 0.668723H54.624Z" fill="#EBEBEB"/>
<path d="M563.918 352.223H323.701C321.818 352.22 320.014 351.47 318.682 350.139C317.351 348.808 316.601 347.003 316.598 345.12V7.46096C316.618 5.58888 317.374 3.79997 318.704 2.48197C320.034 1.16397 321.829 0.423092 323.701 0.419922H563.918C565.787 0.426396 567.578 1.16912 568.902 2.48711C570.227 3.8051 570.98 5.59217 570.996 7.46096V345.12C570.996 346.999 570.251 348.802 568.924 350.134C567.598 351.465 565.797 352.217 563.918 352.223ZM323.701 0.668723C321.901 0.672011 320.175 1.38867 318.902 2.66175C317.629 3.93483 316.912 5.66056 316.909 7.46096V345.12C316.912 346.92 317.629 348.646 318.902 349.919C320.175 351.192 321.901 351.909 323.701 351.912H563.918C565.718 351.909 567.444 351.192 568.717 349.919C569.99 348.646 570.707 346.92 570.71 345.12V7.46096C570.707 5.66056 569.99 3.93483 568.717 2.66175C567.444 1.38867 565.718 0.672011 563.918 0.668723H323.701Z" fill="#EBEBEB"/>
<path d="M106.573 427.722H65.2603V428.033H106.573V427.722Z" fill="#EBEBEB"/>
<path d="M249.335 426.49H182.035V426.801H249.335V426.49Z" fill="#EBEBEB"/>
<path d="M131.59 416.177H107.818V416.488H131.59V416.177Z" fill="#EBEBEB"/>
<path d="M559.676 418.267H541.289V418.578H559.676V418.267Z" fill="#EBEBEB"/>
<path d="M530.205 418.267H486.989V418.578H530.205V418.267Z" fill="#EBEBEB"/>
<path d="M389.098 423.517H332.559V423.828H389.098V423.517Z" fill="#EBEBEB"/>
<path d="M452.231 143.368H479.288L476.091 78.2695H452.231V143.368Z" fill="#F5F5F5"/>
<path d="M518.561 149.688L526.212 173.547H518.561L471.625 149.688H518.561Z" fill="#F5F5F5"/>
<path d="M526.212 149.688V173.547L479.288 149.688H526.212Z" fill="#E6E6E6"/>
<path d="M396.985 149.688L404.636 173.547H396.985L350.062 149.688H396.985Z" fill="#F5F5F5"/>
<path d="M404.636 149.688V173.547L357.712 149.688H404.636Z" fill="#E6E6E6"/>
<path d="M539.908 143.492H509.63V150.658H539.908V143.492Z" fill="#E6E6E6"/>
<path d="M338.903 150.67L509.617 150.67V143.505L338.903 143.505V150.67Z" fill="#F5F5F5"/>
<path d="M419.925 143.368H470.555L477.746 64.4736H427.102L419.925 143.368Z" fill="#E6E6E6"/>
<path d="M416.914 143.368H467.557L474.735 64.4736H424.092L416.914 143.368Z" fill="#F0F0F0"/>
<path d="M462.681 134.635L469.237 73.2065H428.968L422.4 134.635H462.681Z" fill="white"/>
<path d="M93.6856 241.606L267.472 241.606V40.2899L93.6856 40.2899L93.6856 241.606Z" fill="#E6E6E6"/>
<path d="M87.0926 241.606L264.387 241.606V40.2899L87.0926 40.2899L87.0926 241.606Z" fill="#F0F0F0"/>
<path d="M93.6856 253.873L267.472 253.873V241.607L93.6856 241.607V253.873Z" fill="#E6E6E6"/>
<path d="M76.0956 253.873L253.391 253.873V241.607L76.0956 241.607V253.873Z" fill="#F0F0F0"/>
<path d="M255.144 232.364V49.5332L96.3228 49.5332V232.364H255.144Z" fill="#FAFAFA"/>
<path d="M189.15 232.364L174.347 49.5332H148.758L163.549 232.364H189.15Z" fill="white"/>
<path d="M207.561 232.364L192.77 49.5332H167.169L181.96 232.364H207.561Z" fill="white"/>
<path d="M250.865 151.093C251.053 151.093 251.233 151.019 251.366 150.886C251.499 150.753 251.574 150.572 251.574 150.384V55.5416C251.574 55.3535 251.499 55.1732 251.366 55.0402C251.233 54.9072 251.053 54.8325 250.865 54.8325C250.678 54.8357 250.499 54.9114 250.367 55.0437C250.235 55.176 250.159 55.3545 250.156 55.5416V150.384C250.159 150.571 250.235 150.75 250.367 150.882C250.499 151.014 250.678 151.09 250.865 151.093Z" fill="#F0F0F0"/>
<path d="M158.05 232.364L143.247 49.5332H133.27L148.073 232.364H158.05Z" fill="white"/>
<path d="M97.5046 232.364L97.5046 49.5332H96.3353L96.3353 232.364H97.5046Z" fill="#E6E6E6"/>
<path opacity="0.5" d="M84.903 66.2772H258.69L259.536 53.1157H85.7489L84.903 66.2772Z" fill="#E0E0E0"/>
<path opacity="0.5" d="M84.903 87.9228H258.69L259.536 74.7612H85.7489L84.903 87.9228Z" fill="#E0E0E0"/>
<path opacity="0.5" d="M84.903 109.556H258.69L259.536 96.3945H85.7489L84.903 109.556Z" fill="#E0E0E0"/>
<path opacity="0.5" d="M84.903 131.189H258.69L259.536 118.028H85.7489L84.903 131.189Z" fill="#E0E0E0"/>
<path opacity="0.5" d="M84.903 152.822H258.69L259.536 139.661H85.7489L84.903 152.822Z" fill="#E0E0E0"/>
<path opacity="0.5" d="M84.903 174.455H258.69L259.536 161.294H85.7489L84.903 174.455Z" fill="#E0E0E0"/>
<path d="M508.585 398.612H544.71V237.601H508.585V398.612Z" fill="#F0F0F0"/>
<path d="M359.64 407.706H537.781V398.624H359.64V407.706Z" fill="#F0F0F0"/>
<path d="M508.597 237.613H352.711V398.624H508.597V237.613Z" fill="#F5F5F5"/>
<path d="M494.391 296.032H366.906V334.471H494.391V296.032Z" fill="#F0F0F0"/>
<path d="M494.391 343.042H366.906V381.482H494.391V343.042Z" fill="#F0F0F0"/>
<path d="M415.857 301.169H445.427C447.11 301.169 448.474 299.805 448.474 298.122V297.773C448.474 296.09 447.11 294.726 445.427 294.726H415.857C414.173 294.726 412.809 296.09 412.809 297.773V298.122C412.809 299.805 414.173 301.169 415.857 301.169Z" fill="#F5F5F5"/>
<path d="M494.391 249.021H366.906V287.461H494.391V249.021Z" fill="#F0F0F0"/>
<path d="M415.857 254.159H445.427C447.11 254.159 448.474 252.794 448.474 251.111V250.763C448.474 249.079 447.11 247.715 445.427 247.715H415.857C414.173 247.715 412.809 249.079 412.809 250.763V251.111C412.809 252.794 414.173 254.159 415.857 254.159Z" fill="#F5F5F5"/>
<path d="M415.857 348.18H445.427C447.11 348.18 448.474 346.816 448.474 345.132V344.784C448.474 343.101 447.11 341.736 445.427 341.736H415.857C414.173 341.736 412.809 343.101 412.809 344.784V345.132C412.809 346.816 414.173 348.18 415.857 348.18Z" fill="#F5F5F5"/>
<path d="M347.885 237.613L508.584 237.613V231.605L347.885 231.605V237.613Z" fill="#F0F0F0"/>
<path d="M549.773 231.592H508.597V237.601H549.773V231.592Z" fill="#E6E6E6"/>
<path d="M237.032 313.162H217.874V407.706H237.032V313.162Z" fill="#F0F0F0"/>
<path d="M97.2807 407.706H217.874V313.162H97.2807L97.2807 407.706Z" fill="#F5F5F5"/>
<path d="M96.8703 394.768H180.268V368.806H96.8703V394.768Z" fill="#FAFAFA"/>
<path d="M96.8703 360.434H180.268V334.471H96.8703V360.434Z" fill="#FAFAFA"/>
<g style="mix-blend-mode:multiply" opacity="0.7">
<path d="M237.032 319.381H96.8704V322.715H237.032V319.381Z" fill="#E6E6E6"/>
</g>
<path d="M239.271 311.146H217.874V320.787H239.271V311.146Z" fill="#F0F0F0"/>
<path d="M95.0666 320.787H217.887V311.146H95.0666V320.787Z" fill="#F5F5F5"/>
<path d="M311 463.885C444.211 463.885 552.199 457.58 552.199 449.803C552.199 442.025 444.211 435.721 311 435.721C177.789 435.721 69.8008 442.025 69.8008 449.803C69.8008 457.58 177.789 463.885 311 463.885Z" fill="#F5F5F5"/>
<path d="M454.744 207.334C455.08 204.668 454.839 201.96 454.035 199.395C453.232 196.831 451.886 194.469 450.088 192.471C448.291 190.473 446.084 188.885 443.618 187.815C441.152 186.746 438.485 186.22 435.798 186.273H513.374C516.062 186.218 518.731 186.743 521.198 187.812C523.665 188.88 525.873 190.468 527.672 192.466C529.471 194.464 530.819 196.827 531.623 199.392C532.427 201.958 532.669 204.667 532.333 207.334H454.744Z" fill="#9468B4"/>
<path opacity="0.2" d="M454.744 207.334C455.08 204.668 454.839 201.96 454.035 199.395C453.232 196.831 451.886 194.469 450.088 192.471C448.291 190.473 446.084 188.885 443.618 187.815C441.152 186.746 438.485 186.22 435.798 186.273H513.374C516.062 186.218 518.731 186.743 521.198 187.812C523.665 188.88 525.873 190.468 527.672 192.466C529.471 194.464 530.819 196.827 531.623 199.392C532.427 201.958 532.669 204.667 532.333 207.334H454.744Z" fill="black"/>
<path d="M435.798 186.273H513.374C507.622 186.394 502.108 188.594 497.852 192.466C493.596 196.337 490.886 201.619 490.223 207.334L483.506 274.61C482.842 280.324 480.132 285.604 475.876 289.474C471.619 293.343 466.106 295.54 460.355 295.658H424.876C422.187 295.722 419.516 295.203 417.046 294.138C414.576 293.073 412.366 291.487 410.567 289.487C408.767 287.488 407.421 285.124 406.621 282.556C405.82 279.988 405.585 277.277 405.93 274.61L412.635 207.334C413.301 201.618 416.013 196.336 420.271 192.465C424.529 188.593 430.045 186.394 435.798 186.273Z" fill="#9468B4"/>
<path d="M441.409 274.61C441.064 277.277 441.299 279.988 442.1 282.556C442.9 285.124 444.246 287.488 446.046 289.487C447.845 291.486 450.055 293.073 452.525 294.138C454.995 295.203 457.666 295.722 460.355 295.658H382.767C380.078 295.722 377.407 295.203 374.937 294.138C372.467 293.073 370.257 291.486 368.457 289.487C366.658 287.488 365.312 285.124 364.511 282.556C363.711 279.988 363.475 277.277 363.82 274.61H441.409Z" fill="#9468B4"/>
<path opacity="0.2" d="M441.409 274.61C441.064 277.277 441.299 279.988 442.1 282.556C442.9 285.124 444.246 287.488 446.046 289.487C447.845 291.486 450.055 293.073 452.525 294.138C454.995 295.203 457.666 295.722 460.355 295.658H382.767C380.078 295.722 377.407 295.203 374.937 294.138C372.467 293.073 370.257 291.486 368.457 289.487C366.658 287.488 365.312 285.124 364.511 282.556C363.711 279.988 363.475 277.277 363.82 274.61H441.409Z" fill="black"/>
<path d="M422.823 230.97H475.32C475.771 230.958 476.203 230.785 476.536 230.481C476.87 230.177 477.083 229.764 477.136 229.316V229.142C477.161 228.932 477.141 228.72 477.077 228.518C477.013 228.317 476.907 228.132 476.765 227.975C476.624 227.819 476.451 227.694 476.257 227.61C476.064 227.526 475.854 227.484 475.643 227.487H423.159C422.709 227.499 422.279 227.673 421.948 227.977C421.617 228.281 421.406 228.695 421.355 229.142V229.316C421.331 229.523 421.35 229.733 421.413 229.933C421.475 230.132 421.579 230.316 421.718 230.472C421.857 230.629 422.027 230.754 422.217 230.84C422.408 230.925 422.614 230.97 422.823 230.97Z" fill="white"/>
<path d="M421.716 241.831H474.225C474.676 241.819 475.108 241.645 475.442 241.341C475.775 241.038 475.988 240.624 476.042 240.176V240.002C476.067 239.792 476.046 239.58 475.982 239.379C475.918 239.178 475.812 238.993 475.671 238.836C475.529 238.679 475.356 238.555 475.163 238.47C474.969 238.386 474.76 238.344 474.549 238.347H422.077C421.626 238.359 421.194 238.533 420.861 238.837C420.527 239.14 420.314 239.554 420.261 240.002V240.176C420.234 240.383 420.252 240.593 420.313 240.792C420.374 240.992 420.477 241.176 420.615 241.332C420.752 241.489 420.922 241.614 421.112 241.7C421.302 241.786 421.508 241.83 421.716 241.831Z" fill="white"/>
<path d="M420.646 252.69H473.156C473.605 252.679 474.035 252.507 474.368 252.206C474.701 251.905 474.915 251.494 474.972 251.048V250.862C474.999 250.653 474.98 250.441 474.918 250.24C474.855 250.038 474.75 249.853 474.61 249.696C474.469 249.539 474.297 249.414 474.104 249.33C473.911 249.246 473.702 249.204 473.491 249.207H420.995C420.544 249.219 420.112 249.393 419.778 249.696C419.445 250 419.232 250.414 419.178 250.862V251.048C419.154 251.255 419.173 251.465 419.236 251.664C419.298 251.862 419.403 252.046 419.541 252.201C419.68 252.356 419.851 252.48 420.041 252.565C420.232 252.649 420.438 252.692 420.646 252.69Z" fill="white"/>
<path d="M431.668 263.551H472.036C472.486 263.542 472.917 263.371 473.251 263.069C473.585 262.768 473.798 262.355 473.852 261.909V261.722C473.879 261.514 473.861 261.302 473.798 261.102C473.736 260.901 473.63 260.717 473.49 260.56C473.349 260.404 473.176 260.281 472.983 260.198C472.79 260.115 472.582 260.075 472.372 260.08H432.054C431.604 260.089 431.172 260.26 430.839 260.562C430.505 260.863 430.291 261.275 430.237 261.722V261.909C430.211 262.113 430.228 262.32 430.288 262.517C430.348 262.714 430.448 262.896 430.584 263.051C430.719 263.207 430.885 263.331 431.072 263.417C431.259 263.504 431.462 263.549 431.668 263.551Z" fill="white"/>
<path d="M424.988 209.25H477.497C477.948 209.238 478.38 209.065 478.713 208.761C479.047 208.457 479.26 208.043 479.313 207.595V207.409C479.338 207.201 479.318 206.99 479.255 206.79C479.192 206.591 479.086 206.407 478.946 206.252C478.806 206.096 478.634 205.972 478.442 205.889C478.25 205.805 478.042 205.764 477.833 205.767H425.336C424.887 205.778 424.457 205.95 424.124 206.251C423.791 206.552 423.576 206.963 423.52 207.409V207.595C423.495 207.803 423.515 208.013 423.577 208.213C423.64 208.412 423.744 208.596 423.883 208.752C424.021 208.908 424.191 209.034 424.382 209.119C424.572 209.205 424.779 209.25 424.988 209.25Z" fill="white"/>
<path d="M423.906 220.11H476.452C476.902 220.098 477.332 219.924 477.663 219.62C477.995 219.316 478.205 218.903 478.256 218.456V218.282C478.281 218.073 478.261 217.862 478.197 217.661C478.134 217.461 478.029 217.277 477.889 217.12C477.749 216.964 477.577 216.839 477.385 216.754C477.193 216.669 476.986 216.626 476.776 216.627H424.204C423.753 216.639 423.322 216.812 422.988 217.116C422.655 217.42 422.442 217.834 422.388 218.282V218.456C422.363 218.667 422.384 218.882 422.449 219.085C422.514 219.288 422.623 219.474 422.767 219.631C422.911 219.788 423.087 219.913 423.284 219.995C423.48 220.078 423.693 220.117 423.906 220.11Z" fill="white"/>
<path d="M262.397 188.438L257.657 235.909C257.53 236.804 257.6 237.716 257.862 238.582C258.124 239.447 258.571 240.245 259.172 240.92C259.774 241.595 260.515 242.131 261.345 242.49C262.175 242.849 263.073 243.023 263.977 243H372.031C373.949 242.953 375.785 242.217 377.204 240.926C378.623 239.635 379.529 237.876 379.756 235.971L384.496 188.5C384.588 187.616 384.499 186.723 384.234 185.875C383.839 184.581 383.033 183.45 381.937 182.655C380.842 181.861 379.517 181.445 378.164 181.471H270.122C268.674 181.505 267.262 181.931 266.038 182.705C264.813 183.478 263.821 184.57 263.168 185.863C262.757 186.667 262.496 187.54 262.397 188.438Z" fill="#9468B4"/>
<path opacity="0.3" d="M263.168 185.776L313.326 223.32C315.272 224.676 317.586 225.403 319.957 225.403C322.328 225.403 324.642 224.676 326.587 223.32L384.234 185.776C383.839 184.481 383.033 183.351 381.937 182.556C380.842 181.762 379.517 181.346 378.164 181.372H270.122C268.673 181.407 267.26 181.835 266.035 182.611C264.811 183.387 263.82 184.481 263.168 185.776Z" fill="black"/>
<path d="M286.891 192.792H344.986C347.541 192.735 349.988 191.757 351.879 190.038C353.769 188.319 354.975 185.975 355.274 183.437L363.671 99.3926C363.815 98.2086 363.704 97.0074 363.345 95.87C362.986 94.7326 362.387 93.6854 361.589 92.7989C360.791 91.9125 359.812 91.2073 358.718 90.731C357.625 90.2547 356.442 90.0183 355.249 90.0377H297.154C294.6 90.0951 292.152 91.0733 290.262 92.7923C288.372 94.5112 287.166 96.8551 286.867 99.3926L278.482 183.437C278.334 184.621 278.442 185.823 278.799 186.961C279.156 188.099 279.753 189.148 280.551 190.035C281.348 190.922 282.327 191.627 283.421 192.103C284.515 192.579 285.699 192.814 286.891 192.792Z" fill="#9468B4"/>
<path opacity="0.5" d="M286.891 192.792H344.986C347.541 192.735 349.988 191.757 351.879 190.038C353.769 188.319 354.975 185.975 355.274 183.437L363.671 99.3926C363.815 98.2086 363.704 97.0074 363.345 95.87C362.986 94.7326 362.387 93.6854 361.589 92.7989C360.791 91.9125 359.812 91.2073 358.718 90.731C357.625 90.2547 356.442 90.0183 355.249 90.0377H297.154C294.6 90.0951 292.152 91.0733 290.262 92.7923C288.372 94.5112 287.166 96.8551 286.867 99.3926L278.482 183.437C278.334 184.621 278.442 185.823 278.799 186.961C279.156 188.099 279.753 189.148 280.551 190.035C281.348 190.922 282.327 191.627 283.421 192.103C284.515 192.579 285.699 192.814 286.891 192.792Z" fill="white"/>
<path d="M296.843 135.245H346.541C347.114 135.231 347.662 135.01 348.085 134.624C348.508 134.237 348.777 133.711 348.843 133.142C348.877 132.876 348.853 132.606 348.773 132.349C348.693 132.093 348.559 131.857 348.379 131.658C348.2 131.458 347.979 131.3 347.733 131.193C347.487 131.086 347.22 131.034 346.952 131.04H297.316C296.743 131.051 296.194 131.268 295.769 131.652C295.343 132.036 295.071 132.561 295.002 133.13C294.969 133.393 294.992 133.659 295.069 133.913C295.146 134.166 295.275 134.4 295.449 134.6C295.623 134.8 295.837 134.96 296.077 135.071C296.318 135.182 296.579 135.242 296.843 135.245Z" fill="white"/>
<path d="M295.537 148.344H345.235C345.808 148.33 346.356 148.109 346.779 147.723C347.202 147.337 347.471 146.811 347.537 146.242C347.569 145.976 347.543 145.707 347.463 145.453C347.382 145.198 347.247 144.964 347.068 144.765C346.889 144.567 346.669 144.41 346.423 144.304C346.178 144.198 345.913 144.146 345.646 144.152H295.886C295.314 144.163 294.766 144.381 294.343 144.765C293.92 145.149 293.65 145.674 293.584 146.242C293.551 146.513 293.578 146.788 293.663 147.048C293.747 147.308 293.887 147.546 294.073 147.746C294.259 147.946 294.486 148.104 294.739 148.207C294.992 148.31 295.265 148.357 295.537 148.344Z" fill="white"/>
<path d="M344.128 157.238H294.443C293.281 157.238 292.34 158.177 292.34 159.334C292.34 160.492 293.281 161.431 294.443 161.431H344.128C345.289 161.431 346.23 160.492 346.23 159.334C346.23 158.177 345.289 157.238 344.128 157.238Z" fill="white"/>
<path d="M304.643 174.58H342.61C343.185 174.569 343.736 174.349 344.162 173.963C344.587 173.576 344.858 173.049 344.924 172.478C344.956 172.212 344.931 171.942 344.85 171.687C344.769 171.431 344.635 171.196 344.456 170.997C344.277 170.798 344.057 170.64 343.812 170.532C343.566 170.425 343.301 170.371 343.033 170.375H305.066C304.492 170.386 303.94 170.606 303.515 170.992C303.09 171.379 302.819 171.906 302.753 172.478C302.721 172.743 302.746 173.013 302.827 173.268C302.907 173.524 303.042 173.759 303.221 173.958C303.4 174.157 303.62 174.315 303.865 174.423C304.11 174.53 304.376 174.584 304.643 174.58Z" fill="white"/>
<path d="M299.456 109.046H349.216C349.788 109.032 350.337 108.811 350.759 108.425C351.182 108.039 351.451 107.513 351.517 106.944C351.541 106.678 351.507 106.41 351.418 106.159C351.329 105.907 351.188 105.677 351.002 105.485C350.817 105.293 350.593 105.143 350.345 105.044C350.097 104.946 349.831 104.902 349.564 104.916H299.879C299.307 104.929 298.758 105.148 298.334 105.531C297.909 105.915 297.636 106.438 297.565 107.006C297.542 107.267 297.575 107.53 297.66 107.777C297.745 108.025 297.881 108.252 298.059 108.445C298.237 108.637 298.453 108.789 298.694 108.893C298.934 108.997 299.194 109.049 299.456 109.046Z" fill="white"/>
<path d="M298.15 122.145H347.91C348.482 122.131 349.03 121.911 349.453 121.524C349.876 121.138 350.145 120.612 350.211 120.043C350.243 119.778 350.218 119.509 350.137 119.254C350.056 118.999 349.922 118.765 349.742 118.567C349.563 118.369 349.343 118.211 349.098 118.105C348.853 117.999 348.587 117.948 348.32 117.953H298.56C297.987 117.964 297.438 118.181 297.013 118.565C296.587 118.949 296.315 119.474 296.246 120.043C296.214 120.31 296.24 120.581 296.321 120.837C296.403 121.093 296.538 121.329 296.719 121.528C296.899 121.727 297.12 121.886 297.367 121.992C297.614 122.099 297.881 122.151 298.15 122.145Z" fill="white"/>
<path d="M332.385 326.248L335.532 294.75C335.644 293.821 335.556 292.88 335.274 291.988C334.991 291.096 334.522 290.275 333.896 289.58C333.27 288.885 332.503 288.331 331.646 287.957C330.789 287.583 329.861 287.397 328.926 287.41H262.994C260.99 287.456 259.07 288.224 257.587 289.573C256.104 290.921 255.157 292.759 254.921 294.75L251.773 326.248C251.659 327.177 251.746 328.12 252.027 329.012C252.309 329.905 252.778 330.727 253.404 331.422C254.03 332.118 254.799 332.671 255.657 333.045C256.515 333.418 257.443 333.603 258.379 333.588H324.311C326.316 333.544 328.237 332.777 329.721 331.428C331.205 330.08 332.151 328.24 332.385 326.248Z" fill="#9468B4"/>
<path d="M292.937 317.453C293.224 317.453 293.505 317.371 293.746 317.217L329.822 295.77C330.166 295.58 330.426 295.266 330.548 294.892C330.671 294.518 330.647 294.112 330.481 293.755C330.386 293.59 330.258 293.447 330.105 293.334C329.952 293.221 329.777 293.14 329.592 293.097C329.406 293.054 329.214 293.049 329.027 293.083C328.84 293.117 328.662 293.189 328.503 293.294L293.31 314.256L262.298 293.294C261.96 293.094 261.558 293.029 261.174 293.115C260.79 293.2 260.453 293.429 260.233 293.755C260.112 293.902 260.022 294.072 259.969 294.255C259.917 294.438 259.902 294.63 259.927 294.819C259.951 295.008 260.014 295.19 260.112 295.353C260.209 295.517 260.339 295.659 260.494 295.77L292.228 317.217C292.435 317.366 292.682 317.449 292.937 317.453Z" fill="white"/>
<path d="M498.931 130.107L502.937 89.9878C503.081 88.8038 502.97 87.6026 502.611 86.4652C502.251 85.3278 501.653 84.2806 500.855 83.3941C500.057 82.5077 499.078 81.8026 497.984 81.3262C496.891 80.8499 495.708 80.6135 494.515 80.6329H410.52C407.967 80.6955 405.523 81.6755 403.633 83.3934C401.744 85.1114 400.537 87.4524 400.232 89.9878L396.227 130.119C396.083 131.303 396.194 132.504 396.553 133.642C396.912 134.779 397.511 135.826 398.309 136.713C399.107 137.599 400.086 138.305 401.179 138.781C402.273 139.257 403.456 139.494 404.649 139.474H488.643C491.198 139.411 493.645 138.429 495.534 136.709C497.424 134.988 498.63 132.644 498.931 130.107Z" fill="#9468B4"/>
<path opacity="0.5" d="M498.931 130.107L502.937 89.9878C503.081 88.8038 502.97 87.6026 502.611 86.4652C502.251 85.3278 501.653 84.2806 500.855 83.3941C500.057 82.5077 499.078 81.8026 497.984 81.3262C496.891 80.8499 495.708 80.6135 494.515 80.6329H410.52C407.967 80.6955 405.523 81.6755 403.633 83.3934C401.744 85.1114 400.537 87.4524 400.232 89.9878L396.227 130.119C396.083 131.303 396.194 132.504 396.553 133.642C396.912 134.779 397.511 135.826 398.309 136.713C399.107 137.599 400.086 138.305 401.179 138.781C402.273 139.257 403.456 139.494 404.649 139.474H488.643C491.198 139.411 493.645 138.429 495.534 136.709C497.424 134.988 498.63 132.644 498.931 130.107Z" fill="black"/>
<path d="M448.661 118.898C449.026 118.896 449.384 118.793 449.694 118.6L495.597 91.2319C496.034 90.9892 496.363 90.5899 496.518 90.1145C496.673 89.639 496.641 89.1227 496.431 88.6693C496.308 88.4646 496.146 88.2866 495.954 88.1458C495.761 88.0051 495.543 87.9045 495.311 87.8499C495.078 87.7954 494.838 87.788 494.603 87.8283C494.368 87.8687 494.143 87.9558 493.943 88.0846L449.084 114.868L409.562 88.1219C409.135 87.8634 408.624 87.7786 408.136 87.885C407.647 87.9915 407.219 88.281 406.937 88.6941C406.782 88.8813 406.667 89.0984 406.599 89.3319C406.531 89.5654 406.511 89.8104 406.541 90.0517C406.572 90.2931 406.651 90.5256 406.775 90.735C406.899 90.9444 407.064 91.1262 407.261 91.2692L447.691 118.637C447.981 118.819 448.319 118.91 448.661 118.898Z" fill="white"/>
<path d="M181.873 129.286C178.738 134.797 175.578 140.482 172.543 146.142C169.507 151.802 166.559 157.487 163.947 163.185C163.325 164.591 162.703 166.021 162.093 167.427L161.67 168.484L161.446 169.007V169.144V169.007C161.545 168.501 161.545 167.982 161.446 167.477C161.22 166.509 160.693 165.638 159.941 164.989C159.589 164.667 159.161 164.441 158.697 164.329C158.535 164.329 158.585 164.329 158.697 164.329C159.14 164.441 159.596 164.496 160.053 164.491C161.43 164.488 162.805 164.401 164.171 164.23C170.105 163.483 176.548 162.053 182.831 160.734L185.418 167.402C179.424 170.77 173.074 173.461 166.484 175.426C164.649 175.968 162.773 176.359 160.874 176.595C159.694 176.744 158.503 176.781 157.316 176.707C156.5 176.639 155.692 176.493 154.903 176.272C153.657 175.925 152.502 175.309 151.519 174.468C150.136 173.274 149.186 171.655 148.82 169.865C148.566 168.552 148.592 167.2 148.894 165.897L149.068 165.213L149.168 164.877V164.727L149.367 164.093L149.778 162.849C150.312 161.145 150.934 159.565 151.519 157.935C154.007 151.541 156.806 145.433 159.804 139.449C162.802 133.466 166.024 127.681 169.507 121.872L181.873 129.286Z" fill="#FFC3BD"/>
<path d="M218.645 86.791C218.446 87.5374 218.645 88.2465 219.18 88.3709C219.715 88.4953 220.213 87.9852 220.424 87.2388C220.636 86.4924 220.424 85.7958 219.889 85.6714C219.354 85.547 218.832 86.0446 218.645 86.791Z" fill="#263238"/>
<path d="M218.621 88.2217C218.935 90.7242 219.588 93.1723 220.561 95.4991C219.96 95.7359 219.314 95.8376 218.669 95.7967C218.024 95.7559 217.396 95.5736 216.829 95.2627L218.621 88.2217Z" fill="#ED847E"/>
<path d="M216.966 81.9642C216.914 81.9396 216.868 81.9049 216.829 81.8622C216.791 81.8195 216.761 81.7696 216.742 81.7154C216.72 81.6607 216.709 81.6021 216.709 81.5431C216.71 81.484 216.722 81.4257 216.745 81.3713C216.768 81.317 216.802 81.2677 216.844 81.2265C216.886 81.1852 216.936 81.1526 216.991 81.1307C217.654 80.8543 218.373 80.7394 219.089 80.7956C219.805 80.8519 220.497 81.0776 221.109 81.4542C221.205 81.5261 221.269 81.6327 221.287 81.7512C221.306 81.8697 221.278 81.9907 221.208 82.0886C221.139 82.1838 221.034 82.2476 220.918 82.2662C220.801 82.2848 220.682 82.2568 220.586 82.1881C220.098 81.8981 219.548 81.7277 218.982 81.6909C218.415 81.6542 217.848 81.7521 217.327 81.9767C217.269 81.9997 217.207 82.0105 217.145 82.0084C217.083 82.0062 217.022 81.9912 216.966 81.9642Z" fill="#263238"/>
<path d="M195.719 90.8091C193.765 97.8999 194.611 107.877 188.814 112.529C188.814 112.529 189.337 119.608 202.287 119.608C216.543 119.608 210.497 112.529 210.497 112.529C203.033 110.676 204.414 104.904 206.84 99.4798L195.719 90.8091Z" fill="#FFC3BD"/>
<path d="M188.304 114.097C187.272 112.728 186.14 111.173 188.491 110.688C191.066 110.141 205.173 109.593 210.037 110.601C214.901 111.609 213.533 114.333 213.533 114.333L188.304 114.097Z" fill="#263238"/>
<path d="M146.966 435.882C147.351 436.02 147.759 436.08 148.167 436.058C148.575 436.037 148.974 435.935 149.342 435.758C149.484 435.629 149.581 435.459 149.621 435.271C149.662 435.084 149.642 434.889 149.566 434.713C149.524 434.565 149.45 434.428 149.349 434.312C149.248 434.196 149.123 434.103 148.982 434.041C147.738 433.432 144.74 434.638 144.615 434.688C144.575 434.705 144.54 434.733 144.514 434.768C144.488 434.803 144.471 434.844 144.466 434.887C144.465 434.932 144.477 434.976 144.502 435.014C144.526 435.052 144.561 435.081 144.603 435.099C145.361 435.443 146.153 435.705 146.966 435.882ZM148.521 434.365L148.783 434.452C148.866 434.486 148.941 434.538 149.001 434.605C149.061 434.671 149.106 434.751 149.131 434.837C149.255 435.248 149.131 435.372 149.056 435.41C148.534 435.845 146.63 435.41 145.324 434.912C146.336 434.493 147.428 434.306 148.521 434.365Z" fill="#9468B4"/>
<path d="M144.652 435.111H144.764C145.834 434.8 148.148 433.158 148.173 432.075C148.175 431.906 148.119 431.742 148.015 431.608C147.911 431.475 147.765 431.381 147.601 431.342C147.436 431.285 147.261 431.263 147.087 431.278C146.914 431.293 146.745 431.344 146.593 431.429C145.349 432.075 144.515 434.713 144.478 434.825C144.457 434.858 144.446 434.897 144.446 434.937C144.446 434.976 144.457 435.015 144.478 435.049C144.494 435.079 144.521 435.102 144.553 435.114C144.585 435.125 144.621 435.124 144.652 435.111ZM147.352 431.74H147.451C147.725 431.827 147.725 431.964 147.725 432.026C147.725 432.673 146.182 433.954 145.063 434.514C145.363 433.464 145.969 432.529 146.804 431.827C146.97 431.732 147.165 431.701 147.352 431.74Z" fill="#9468B4"/>
<path d="M215.61 440.559C216.854 440.559 218.023 440.385 218.422 439.838C218.524 439.695 218.579 439.523 218.579 439.347C218.579 439.17 218.524 438.999 218.422 438.855C218.346 438.719 218.243 438.6 218.119 438.505C217.994 438.411 217.852 438.344 217.7 438.308C216.108 437.872 212.724 439.776 212.637 439.863C212.597 439.883 212.564 439.916 212.544 439.956C212.524 439.997 212.517 440.042 212.525 440.087C212.53 440.133 212.549 440.176 212.581 440.209C212.612 440.243 212.654 440.265 212.699 440.273C213.659 440.455 214.633 440.551 215.61 440.559ZM217.128 438.706C217.272 438.685 217.419 438.685 217.563 438.706C217.655 438.728 217.742 438.768 217.819 438.823C217.896 438.879 217.961 438.949 218.011 439.029C218.16 439.303 218.111 439.44 218.011 439.527C217.563 440.137 215.162 440.149 213.383 439.9C214.543 439.265 215.815 438.86 217.128 438.706Z" fill="#9468B4"/>
<path d="M212.724 440.298H212.811C213.968 439.776 216.245 437.723 216.071 436.641C216.071 436.392 215.847 436.069 215.225 436.006C215.002 435.983 214.777 436.004 214.563 436.071C214.349 436.137 214.151 436.246 213.981 436.392C212.737 437.387 212.513 439.962 212.5 440.124C212.495 440.162 212.501 440.201 212.516 440.236C212.532 440.271 212.556 440.301 212.587 440.323C212.634 440.327 212.682 440.319 212.724 440.298ZM215.05 436.429H215.212C215.61 436.429 215.648 436.641 215.648 436.691C215.76 437.338 214.205 438.955 213.035 439.664C213.138 438.577 213.572 437.548 214.279 436.716C214.5 436.533 214.776 436.432 215.063 436.429H215.05Z" fill="#9468B4"/>
<path d="M202.25 440.062H211.791L212.736 417.993H203.207L202.25 440.062Z" fill="#FFC3BD"/>
<path d="M134.016 432.585L143.334 434.601L152.701 414.037L143.371 412.022L134.016 432.585Z" fill="#FFC3BD"/>
<path d="M144.229 433.668L133.767 431.404C133.583 431.358 133.388 431.38 133.217 431.464C133.046 431.548 132.911 431.69 132.834 431.864L129.202 439.751C129.116 439.944 129.074 440.153 129.08 440.364C129.085 440.575 129.139 440.782 129.236 440.97C129.332 441.158 129.47 441.321 129.639 441.448C129.807 441.575 130.002 441.663 130.21 441.704C133.942 442.425 135.696 442.6 140.298 443.595C143.135 444.204 149.529 445.759 153.435 446.605C157.341 447.451 158.697 443.707 157.167 443.01C150.337 439.875 147.476 437.126 145.623 434.563C145.286 434.101 144.789 433.782 144.229 433.668Z" fill="#263238"/>
<path d="M211.729 438.967H201.317C201.126 438.965 200.941 439.028 200.792 439.146C200.643 439.264 200.538 439.429 200.495 439.614L198.617 448.086C198.57 448.29 198.57 448.503 198.617 448.707C198.664 448.911 198.757 449.102 198.889 449.265C199.021 449.428 199.188 449.559 199.378 449.648C199.568 449.737 199.776 449.781 199.985 449.778C203.717 449.715 209.166 449.504 213.893 449.504C219.404 449.504 224.181 449.803 230.65 449.803C234.569 449.803 235.626 445.847 234.009 445.486C226.545 443.856 220.462 443.682 214.018 439.701C213.336 439.251 212.545 438.998 211.729 438.967Z" fill="#263238"/>
<path d="M173.19 114.681C164.258 116.734 158.834 132.993 158.834 132.993L174.16 150.111C177.668 144.654 180.898 139.024 183.838 133.242C189.088 122.096 182.321 112.591 173.19 114.681Z" fill="#9468B4"/>
<path opacity="0.3" d="M177.183 129.958C174.695 133.491 172.406 138.666 174.981 148.717C176.996 145.483 178.974 142.174 180.679 139.176C181.139 130.916 179.559 127.109 177.183 129.958Z" fill="black"/>
<path d="M228.896 120.963C231.185 129.671 233.474 150.633 227.142 197.569H176.138C175.79 189.744 180.704 151.541 173.152 114.681C178.789 113.596 184.49 112.877 190.22 112.529C197.442 112.112 204.681 112.112 211.903 112.529C215.167 112.843 218.411 113.341 221.619 114.022C223.36 114.381 224.966 115.222 226.252 116.45C227.539 117.677 228.455 119.241 228.896 120.963Z" fill="#9468B4"/>
<path opacity="0.3" d="M229.244 122.332C220.823 114.619 214.603 114.246 212.911 122.718C209.365 140.469 230.252 159.59 230.862 160.137C231.944 140.071 230.675 128.639 229.244 122.332Z" fill="black"/>
<path d="M223.92 117.965C226.657 121.001 229.232 124.086 231.857 127.171C234.482 130.256 237.02 133.391 239.52 136.576C242.02 139.76 244.496 142.957 246.984 146.241C249.472 149.526 251.811 152.847 254.125 156.38L250.044 153.73C252.097 154.253 254.162 154.813 256.264 155.248C258.367 155.683 260.531 156.131 262.696 156.492C264.86 156.853 267.062 157.226 269.276 157.562C271.491 157.898 273.742 158.184 275.87 158.507L276.317 165.648C273.829 166.208 271.553 166.519 269.152 166.892C266.751 167.265 264.375 167.315 261.962 167.402C257.083 167.553 252.2 167.279 247.37 166.581L245.106 166.245L243.351 163.931C241.05 160.896 238.525 157.86 236.037 154.813L228.386 145.719L212.936 127.507L223.92 117.965Z" fill="#FFC3BD"/>
<path d="M306.497 97.3772C300.32 95.9672 293.842 96.8248 288.244 99.7936C282.647 102.762 278.304 107.644 276.006 113.549C271.54 125.579 277.947 137.869 290.312 140.992C296.489 142.402 302.967 141.544 308.565 138.575C314.162 135.607 318.506 130.725 320.803 124.82C321.907 122.092 322.406 119.157 322.265 116.218C322.124 113.278 321.347 110.405 319.986 107.795C318.626 105.186 316.715 102.903 314.386 101.104C312.057 99.3054 309.365 98.0338 306.497 97.3772ZM291.569 137.509C289.155 136.955 286.89 135.884 284.93 134.369C282.97 132.855 281.362 130.933 280.217 128.737C279.072 126.541 278.418 124.122 278.298 121.648C278.179 119.174 278.598 116.704 279.527 114.408C281.468 109.444 285.126 105.343 289.836 102.85C294.546 100.357 299.995 99.6374 305.191 100.823C307.604 101.378 309.867 102.45 311.826 103.966C313.784 105.481 315.391 107.402 316.534 109.599C317.678 111.795 318.332 114.213 318.45 116.686C318.568 119.159 318.149 121.629 317.22 123.924C315.278 128.878 311.625 132.972 306.924 135.464C302.222 137.957 296.784 138.682 291.594 137.509H291.569Z" fill="#263238"/>
<path opacity="0.3" d="M292.166 136.016C289.956 135.508 287.884 134.527 286.09 133.14C284.296 131.754 282.825 129.994 281.777 127.984C280.729 125.974 280.13 123.76 280.021 121.495C279.912 119.231 280.295 116.97 281.144 114.868C282.923 110.322 286.275 106.565 290.59 104.282C294.905 101.999 299.896 101.341 304.656 102.428C306.866 102.935 308.941 103.915 310.736 105.3C312.531 106.686 314.005 108.445 315.055 110.455C316.105 112.465 316.706 114.679 316.818 116.944C316.93 119.21 316.549 121.472 315.702 123.576C313.923 128.127 310.567 131.887 306.247 134.171C301.926 136.454 296.929 137.109 292.166 136.016Z" fill="#9468B4"/>
<g opacity="0.5">
<path opacity="0.5" d="M304.643 102.353L304.32 102.279L281.243 114.482L281.144 114.868C279.779 118.386 279.682 122.271 280.87 125.853L313.799 108.437C311.551 105.402 308.312 103.25 304.643 102.353Z" fill="#FAFAFA"/>
<path opacity="0.5" d="M314.993 110.29L281.741 127.88C282.323 129.029 283.055 130.096 283.918 131.052L316.349 113.885C316.056 112.633 315.6 111.424 314.993 110.29Z" fill="#FAFAFA"/>
</g>
<path d="M291.569 143.368L287.638 142.373C287.499 142.34 287.369 142.278 287.257 142.19C287.144 142.103 287.052 141.992 286.986 141.866C286.92 141.74 286.882 141.601 286.874 141.459C286.866 141.317 286.889 141.174 286.941 141.042C287.046 140.75 287.256 140.508 287.53 140.363C287.803 140.218 288.121 140.181 288.421 140.258L292.352 141.253C292.491 141.286 292.621 141.348 292.733 141.436C292.846 141.523 292.938 141.634 293.004 141.76C293.07 141.886 293.108 142.025 293.116 142.167C293.124 142.309 293.101 142.452 293.049 142.584C292.944 142.876 292.734 143.118 292.461 143.263C292.187 143.408 291.869 143.445 291.569 143.368Z" fill="#263238"/>
<path d="M291.681 141.639C291.432 143.368 291.071 145.06 290.661 146.752C290.25 148.443 289.79 150.098 289.292 151.728C288.795 153.357 288.247 155.037 287.675 156.704C287.103 158.37 287.103 160.137 284.403 161.244C283.964 161.383 283.498 161.418 283.043 161.347C282.587 161.276 282.155 161.1 281.779 160.834C281.652 160.738 281.539 160.625 281.443 160.498C279.95 158.333 281.331 156.89 281.803 155.223C282.276 153.556 283.11 151.989 283.831 150.384C284.553 148.779 285.287 147.174 286.095 145.595C286.904 144.015 287.75 142.435 288.72 140.892C288.977 140.66 289.297 140.508 289.64 140.455C289.982 140.402 290.333 140.45 290.648 140.594C291.32 140.818 291.731 141.253 291.681 141.639Z" fill="#263238"/>
<path d="M273.68 165.872L280.696 166.494L279.278 155.572C279.278 155.572 273.892 155.671 271.205 159.416L273.68 165.872Z" fill="#FFC3BD"/>
<path d="M289.927 163.931L287.575 156.865L279.228 155.559L280.646 166.494L289.927 163.931Z" fill="#FFC3BD"/>
<path d="M211.766 122.12C208.096 134.772 227.366 152.188 227.366 152.188L244.67 135.244C244.67 135.244 238.96 128.129 234.954 123.439C223.721 110.364 214.702 112.056 211.766 122.12Z" fill="#9468B4"/>
<path opacity="0.2" d="M212.736 417.993L212.251 429.376H202.71L203.195 417.993H212.736Z" fill="black"/>
<path opacity="0.2" d="M143.371 412.022L152.688 414.05L147.862 424.636L138.544 422.621L143.371 412.022Z" fill="black"/>
<path d="M194.188 78.9038C192.422 88.1964 190.917 93.5457 194.35 99.4173C199.5 108.25 211.866 106.881 216.369 98.3475C220.424 90.6223 222.589 76.7143 214.59 70.8053C212.826 69.4891 210.755 68.6464 208.573 68.3576C206.392 68.0687 204.172 68.3434 202.127 69.1553C200.081 69.9673 198.278 71.2895 196.888 72.9959C195.499 74.7024 194.569 76.7363 194.188 78.9038Z" fill="#FFC3BD"/>
<path d="M210.236 87.0149C212.177 86.2561 225.027 69.8726 197.249 69.6736C185.157 69.5865 186.488 93.5708 195.047 98.2856C203.605 103 212.289 93.3096 210.236 87.0149Z" fill="#263238"/>
<path d="M194.45 72.5719C210.149 78.9039 225.624 79.8244 229.22 71.1413C232.056 64.2993 223.41 69.2878 223.41 69.2878C223.41 69.2878 228.473 61.8238 219.529 61.5874C210.584 61.351 214.864 66.5634 214.864 66.5634C214.864 66.5634 187.844 58.8008 194.45 72.5719Z" fill="#263238"/>
<path d="M194.462 69.8726C194.462 69.8726 189.897 69.5865 188.814 73.6046C190.158 72.0496 191.8 70.7434 192.932 71.9501C194.562 70.6936 194.462 69.8726 194.462 69.8726Z" fill="#263238"/>
<path d="M208.631 85.8204C208.172 87.7635 208.36 89.8033 209.166 91.6299C210.261 94.0184 212.376 93.4213 213.396 91.2567C214.304 89.3161 214.851 85.7333 213.122 84.0539C211.393 82.3745 209.228 83.4941 208.631 85.8204Z" fill="#FFC3BD"/>
<path d="M209.079 197.569C209.079 197.569 198.256 270.43 192.322 297.723C185.816 327.592 152.676 423.38 152.676 423.38L135.609 419.648C135.609 419.648 160.003 329.931 163.723 300.348C167.741 268.228 176.163 197.482 176.163 197.482L209.079 197.569Z" fill="#263238"/>
<path d="M156.744 417.732L153.559 423.952L134.352 419.747L135.982 413.975L156.744 417.732Z" fill="#9468B4"/>
<path opacity="0.3" d="M202.237 223.531C189.722 226.019 191.041 272.632 192.559 296.629C196.166 279.673 201.441 247.03 204.999 223.867C204.142 223.45 203.169 223.331 202.237 223.531Z" fill="black"/>
<path d="M227.167 197.569C227.167 197.569 228.411 268.85 227.441 297.922C226.358 328.164 215.797 427.174 215.797 427.174H199.625C199.625 427.174 199.028 329.93 198.319 300.286C197.535 267.942 193.616 197.619 193.616 197.619L227.167 197.569Z" fill="#263238"/>
<path d="M218.944 420.743C219.019 420.743 218.036 427.448 218.036 427.448H198.356L197.821 421.464L218.944 420.743Z" fill="#9468B4"/>
</svg>
