<svg width="240" height="209" viewBox="0 0 240 209" fill="none" xmlns="http://www.w3.org/2000/svg">
<path d="M35.1436 190.3C82.0095 214.383 157.97 214.383 204.847 190.3C251.723 166.216 251.713 127.166 204.847 103.077C157.981 78.9886 82.0199 78.9938 35.1436 103.077C-11.7327 127.161 -11.6964 166.216 35.1436 190.3Z" fill="#F5F5F5"/>
<path d="M201.053 125.783C201.11 122.564 204.479 114.148 207.894 110.023C211.309 105.897 216.611 102.938 220.332 104.28C223.789 105.529 223.333 110.08 219.062 113.028C214.792 115.977 208.386 119.662 206.443 124.85L202.442 131.193L201.053 125.783Z" fill="#9468B4"/>
<path opacity="0.1" d="M201.053 125.783C201.11 122.564 204.479 114.148 207.894 110.023C211.309 105.897 216.611 102.938 220.332 104.28C223.789 105.529 223.333 110.08 219.062 113.028C214.792 115.977 208.386 119.662 206.443 124.85L202.442 131.193L201.053 125.783Z" fill="black"/>
<path d="M201.665 128.395C201.715 128.391 201.763 128.372 201.801 128.339C201.839 128.306 201.866 128.262 201.877 128.213C204.225 117.257 213.279 108.478 218.627 106.597C218.657 106.587 218.684 106.571 218.707 106.551C218.73 106.53 218.749 106.505 218.763 106.477C218.776 106.449 218.784 106.419 218.786 106.387C218.787 106.356 218.783 106.325 218.772 106.296C218.762 106.267 218.746 106.24 218.725 106.218C218.704 106.195 218.679 106.176 218.651 106.163C218.623 106.15 218.593 106.143 218.562 106.142C218.531 106.141 218.5 106.145 218.472 106.156C213.014 108.074 203.8 116.993 201.416 128.115C201.405 128.176 201.417 128.239 201.451 128.291C201.485 128.343 201.537 128.38 201.597 128.395H201.665Z" fill="white"/>
<path d="M203.178 135.459C203.727 133.66 205.992 130.711 209.609 128.307C213.61 125.648 218.637 124.482 219.829 122.373C221.26 119.849 219.151 117.397 215.082 117.833C211.014 118.268 203.769 123.684 202.483 132.012L203.178 135.459Z" fill="#9468B4"/>
<path d="M202.426 133.546C202.471 133.543 202.515 133.527 202.551 133.501C202.588 133.474 202.616 133.438 202.634 133.396C206.168 124.041 213.408 120.859 216.741 120.486C216.771 120.483 216.801 120.474 216.828 120.459C216.855 120.444 216.879 120.424 216.898 120.4C216.918 120.376 216.932 120.348 216.94 120.319C216.949 120.289 216.951 120.258 216.948 120.227C216.945 120.196 216.937 120.166 216.922 120.139C216.907 120.111 216.887 120.087 216.863 120.068C216.839 120.048 216.811 120.034 216.781 120.026C216.751 120.017 216.719 120.015 216.689 120.02C213.004 120.429 205.805 123.679 202.178 133.23C202.156 133.288 202.158 133.352 202.183 133.408C202.208 133.465 202.255 133.509 202.312 133.531C202.347 133.549 202.388 133.555 202.426 133.546Z" fill="white"/>
<path d="M43.8347 156.225L47.7579 153.981C47.7579 153.981 49.6392 143.616 48.2347 134.702C46.2549 122.17 37.7244 117.848 34.6253 119.097C31.5261 120.346 30.7954 124.052 36.3925 131.292C39.6938 135.567 43.9435 144.6 43.8347 156.225Z" fill="#9468B4"/>
<g opacity="0.1">
<path opacity="0.1" d="M43.8347 156.225L47.7579 153.981C47.7579 153.981 49.6392 143.616 48.2347 134.702C46.2549 122.17 37.7244 117.848 34.6253 119.097C31.5261 120.346 30.7954 124.052 36.3925 131.292C39.6938 135.567 43.9435 144.6 43.8347 156.225Z" fill="black"/>
</g>
<path d="M45.2549 151.25H45.2186C45.1819 151.245 45.1464 151.234 45.1144 151.215C45.0823 151.197 45.0543 151.172 45.0321 151.142C45.0098 151.113 44.9938 151.079 44.9848 151.043C44.9759 151.007 44.9743 150.97 44.9802 150.934C46.6023 139.206 41.8706 126.353 36.5844 121.17C36.5581 121.145 36.5372 121.114 36.5229 121.08C36.5086 121.046 36.5012 121.01 36.5012 120.973C36.5012 120.937 36.5086 120.9 36.5229 120.866C36.5372 120.833 36.5581 120.802 36.5844 120.776C36.6368 120.724 36.7076 120.695 36.7814 120.695C36.8551 120.695 36.9259 120.724 36.9783 120.776C42.3785 126.052 47.1828 139.112 45.5399 151.017C45.5276 151.083 45.4923 151.143 45.4401 151.185C45.3879 151.228 45.3223 151.251 45.2549 151.25Z" fill="white"/>
<path d="M32.9514 162.511C32.3347 162.869 31.0546 162.091 30.5674 161.76C29.7282 161.19 29.0499 160.413 28.598 159.505C28.0839 158.475 27.9027 157.311 28.0798 156.173C28.178 155.575 28.3182 154.984 28.4996 154.406L29.0178 152.685C29.2178 152.131 29.3025 151.542 29.2666 150.954C29.1163 149.778 28.0746 148.954 27.1262 148.244C26.0897 147.456 24.9858 146.419 24.991 145.004C25.0684 143.908 25.5056 142.868 26.2348 142.045C26.9137 141.19 27.717 140.433 28.3078 139.526C28.7945 138.904 29.0542 138.135 29.0437 137.345C28.981 136.859 28.8187 136.391 28.567 135.971C27.9908 135.095 27.4881 134.173 27.064 133.214C26.7168 132.224 26.7686 130.996 27.5408 130.286C27.8862 130.028 28.2795 129.842 28.6977 129.738C29.1159 129.634 29.5507 129.614 29.9766 129.68C30.7786 129.78 31.5494 130.052 32.2362 130.478C34.4854 131.727 35.7655 134.385 38.1495 135.349C39.0965 135.643 40.0606 135.878 41.0362 136.054C41.5241 136.145 41.9877 136.337 42.3974 136.617C42.807 136.897 43.1536 137.26 43.415 137.682C44.2908 139.428 42.6635 141.584 43.2803 143.439C43.7985 145.082 45.4207 145.709 46.3172 147.186C46.6805 147.841 46.8274 148.594 46.737 149.337C46.6571 150.591 46.3498 151.821 45.8301 152.965C45.2461 154.102 44.5792 155.195 43.8348 156.235C43.7985 156.261 33.0447 162.459 32.9514 162.511Z" fill="#9468B4"/>
<path d="M39.3209 159.111C39.2841 159.11 39.248 159.101 39.2145 159.086C39.1811 159.071 39.151 159.049 39.126 159.022C39.1009 158.995 39.0815 158.964 39.0687 158.929C39.0559 158.895 39.05 158.858 39.0514 158.821C39.5126 147.72 34.2782 135.458 30.4742 131.898C30.4235 131.845 30.3953 131.774 30.3953 131.701C30.3953 131.627 30.4235 131.557 30.4742 131.504C30.5266 131.452 30.5974 131.423 30.6712 131.423C30.7449 131.423 30.8157 131.452 30.8681 131.504C34.7498 135.132 40.0879 147.601 39.6215 158.863C39.6136 158.935 39.5778 159.002 39.5217 159.048C39.4655 159.094 39.3935 159.117 39.3209 159.111Z" fill="white"/>
<path d="M37.6571 146H37.5742C34.9433 145.274 32.241 144.837 29.5153 144.699C29.4785 144.698 29.4424 144.689 29.409 144.674C29.3755 144.658 29.3454 144.637 29.3204 144.61C29.2954 144.583 29.2759 144.551 29.2631 144.517C29.2503 144.482 29.2444 144.445 29.2458 144.409C29.2464 144.372 29.2545 144.335 29.2696 144.301C29.2847 144.268 29.3064 144.237 29.3335 144.212C29.3606 144.187 29.3925 144.167 29.4273 144.155C29.4621 144.142 29.4991 144.137 29.536 144.139C32.3105 144.284 35.0612 144.729 37.74 145.466C37.8018 145.487 37.8542 145.53 37.888 145.586C37.9218 145.642 37.935 145.708 37.9251 145.772C37.9152 145.837 37.883 145.896 37.8341 145.94C37.7851 145.983 37.7225 146.008 37.6571 146.01V146Z" fill="white"/>
<path d="M34.3196 158.391L90.8769 191.041C91.5723 191.394 92.3412 191.578 93.121 191.578C93.9008 191.578 94.6696 191.394 95.365 191.041L202.452 129.208C203.691 128.493 203.691 127.332 202.452 126.617L145.89 93.9664C145.194 93.6136 144.426 93.4297 143.646 93.4297C142.866 93.4297 142.097 93.6136 141.402 93.9664L34.3196 155.8C33.081 156.52 33.081 157.676 34.3196 158.391Z" fill="#37474F"/>
<path d="M64.8864 173.56C65.8503 174.048 66.9155 174.302 67.9959 174.302C69.0764 174.302 70.1416 174.048 71.1055 173.56C72.8261 172.565 72.8261 170.969 71.1055 169.963C70.1416 169.475 69.0764 169.221 67.9959 169.221C66.9155 169.221 65.8503 169.475 64.8864 169.963C63.1658 170.958 63.1658 172.586 64.8864 173.56Z" fill="#263238"/>
<path d="M90.8768 191.047L34.3195 158.397C33.2104 157.759 33.0964 156.764 33.9671 156.049C33.4143 156.486 32.9601 157.036 32.6342 157.661C32.3082 158.286 32.1178 158.973 32.0754 159.677V161.786C32.1172 162.565 32.3422 163.323 32.7321 163.998C33.122 164.673 33.6659 165.247 34.3195 165.673L90.8768 198.323C91.5689 198.683 92.341 198.861 93.1209 198.841V191.58C92.3397 191.596 91.5674 191.412 90.8768 191.047Z" fill="#455A64"/>
<path d="M202.452 136.5C203.105 136.074 203.649 135.5 204.039 134.825C204.428 134.149 204.654 133.392 204.696 132.613V130.504C204.653 129.8 204.461 129.113 204.134 128.488C203.807 127.863 203.353 127.314 202.799 126.876C203.675 127.591 203.561 128.586 202.452 129.229L95.3649 191.046C94.6733 191.408 93.9008 191.586 93.1208 191.565V198.862C93.9008 198.883 94.6733 198.705 95.3649 198.344L202.452 136.5Z" fill="#263238"/>
<path d="M100.2 184.278L46.82 153.452C46.0737 153.022 46.0737 152.327 46.82 151.897L134.623 101.175C135.04 100.963 135.502 100.853 135.97 100.853C136.439 100.853 136.9 100.963 137.318 101.175L190.724 131.996C191.471 132.421 191.471 133.121 190.724 133.551L102.89 184.278C102.474 184.49 102.013 184.6 101.545 184.6C101.078 184.6 100.617 184.49 100.2 184.278Z" fill="#FAFAFA"/>
<path d="M86.3161 142.802L117.893 161.029L97.9613 172.539C97.6128 172.713 97.2287 172.804 96.8393 172.804C96.4499 172.804 96.0657 172.713 95.7173 172.539L66.384 155.603C66.2486 155.557 66.131 155.47 66.0477 155.353C65.9645 155.237 65.9197 155.098 65.9197 154.955C65.9197 154.812 65.9645 154.673 66.0477 154.556C66.131 154.44 66.2486 154.353 66.384 154.307L86.3161 142.802Z" fill="#E6E6E6"/>
<path d="M117.868 161.029L114.147 146.238C114.062 145.885 113.866 145.568 113.587 145.336C113.305 145.096 112.955 144.95 112.587 144.916L86.2954 142.802L117.868 161.029Z" fill="#E0E0E0"/>
<path d="M117.868 161.029L89.6071 159.863C89.2687 159.849 88.9461 159.716 88.6973 159.486C88.4485 159.256 88.2897 158.945 88.2493 158.609L86.2903 142.797L117.868 161.029Z" fill="#E0E0E0"/>
<path d="M117.868 161.029L89.6071 159.863C89.2687 159.849 88.9461 159.716 88.6973 159.486C88.4485 159.256 88.2897 158.945 88.2493 158.609L86.2903 142.797L89.7781 158.345C89.8096 158.483 89.8843 158.608 89.9914 158.701C90.0986 158.794 90.2326 158.851 90.3741 158.863L117.868 161.029Z" fill="#FAFAFA"/>
<path d="M92.6287 159.816L96.8421 173.187L97.9615 172.54L92.6287 159.816Z" fill="#FAFAFA"/>
<path d="M65.2646 154.954L66.3841 154.307L88.4203 157.385L65.2646 154.954Z" fill="#FAFAFA"/>
<path d="M104.279 136.152L129.399 150.663C129.747 150.84 130.131 150.931 130.521 150.931C130.911 150.931 131.295 150.84 131.643 150.663L167.294 130.089C167.429 130.043 167.547 129.955 167.63 129.839C167.713 129.723 167.758 129.584 167.758 129.441C167.758 129.298 167.713 129.158 167.63 129.042C167.547 128.926 167.429 128.839 167.294 128.793L142.174 114.282C141.826 114.105 141.442 114.014 141.052 114.014C140.662 114.014 140.278 114.105 139.93 114.282L104.279 134.856C104.144 134.902 104.026 134.99 103.943 135.106C103.859 135.222 103.815 135.361 103.815 135.504C103.815 135.647 103.859 135.787 103.943 135.903C104.026 136.019 104.144 136.106 104.279 136.152Z" fill="#E6E6E6"/>
<path d="M124.253 134.235C123.953 133.77 123.776 133.237 123.737 132.686C123.698 132.134 123.799 131.581 124.03 131.079C124.496 130.042 125.512 129.047 127.072 128.151C128.782 127.145 130.67 126.478 132.633 126.187C134.547 125.911 136.496 125.981 138.385 126.394C140.334 126.818 142.204 127.547 143.926 128.555C145.591 129.512 146.724 130.5 147.325 131.519C147.619 131.954 147.794 132.457 147.834 132.979C147.874 133.502 147.778 134.026 147.553 134.499C147.097 135.469 146.139 136.376 144.687 137.215C143.296 138.056 141.731 138.566 140.111 138.708C138.763 138.839 137.407 138.561 136.219 137.91C136.006 137.817 135.815 137.681 135.659 137.509C135.503 137.338 135.384 137.135 135.312 136.915C135.278 136.724 135.295 136.527 135.361 136.345C135.427 136.163 135.541 136.002 135.69 135.878C134.856 135.946 134.015 135.888 133.198 135.707C132.396 135.534 131.627 135.237 130.917 134.826C129.722 134.135 129.097 133.385 129.041 132.577C128.986 131.768 129.558 131.025 130.757 130.348C132.203 129.5 133.859 129.074 135.535 129.12C137.247 129.158 138.921 129.634 140.396 130.504C141.007 130.844 141.551 131.292 142.003 131.825C142.362 132.22 142.596 132.712 142.677 133.24L138.012 135.945C137.634 136.163 137.427 136.355 137.396 136.521C137.364 136.686 137.499 136.863 137.795 137.039C138.44 137.352 139.179 137.415 139.868 137.215C140.883 136.978 141.853 136.581 142.744 136.039C143.915 135.365 144.656 134.639 144.967 133.878C145.123 133.508 145.182 133.105 145.14 132.706C145.097 132.307 144.954 131.926 144.724 131.597C144.098 130.704 143.266 129.975 142.298 129.472C140.31 128.296 138.061 127.628 135.753 127.529C133.411 127.463 131.099 128.071 129.093 129.281C127.818 130.017 126.999 130.794 126.637 131.613C126.455 131.994 126.374 132.416 126.403 132.837C126.433 133.258 126.57 133.665 126.802 134.017C127.43 134.941 128.278 135.695 129.269 136.21C129.928 136.587 130.622 136.897 131.342 137.137C132.014 137.369 132.709 137.526 133.415 137.604C133.491 137.61 133.564 137.629 133.633 137.661C133.669 137.661 133.669 137.728 133.633 137.796L132.949 138.754C132.921 138.791 132.888 138.825 132.85 138.853C132.75 138.887 132.64 138.887 132.539 138.853C131.685 138.745 130.844 138.547 130.031 138.262C129.181 137.98 128.362 137.614 127.585 137.168C125.978 136.308 124.869 135.298 124.253 134.235ZM135.058 134.686C135.773 134.777 136.498 134.641 137.131 134.297L139.842 132.743C139.521 132.198 139.047 131.76 138.479 131.483C137.614 130.976 136.631 130.703 135.628 130.69C134.629 130.673 133.645 130.931 132.783 131.437C132.026 131.872 131.658 132.302 131.679 132.727C131.679 133.152 132.104 133.593 132.897 134.049C133.562 134.417 134.3 134.637 135.058 134.691V134.686Z" fill="#FAFAFA"/>
<path d="M169.828 112.935C170.041 113.045 170.277 113.102 170.517 113.102C170.757 113.102 170.993 113.045 171.207 112.935C171.289 112.906 171.36 112.852 171.411 112.781C171.461 112.71 171.488 112.625 171.488 112.538C171.488 112.451 171.461 112.366 171.411 112.295C171.36 112.224 171.289 112.17 171.207 112.142C170.992 112.036 170.756 111.98 170.517 111.98C170.278 111.98 170.042 112.036 169.828 112.142C169.746 112.17 169.674 112.224 169.624 112.295C169.573 112.366 169.546 112.451 169.546 112.538C169.546 112.625 169.573 112.71 169.624 112.781C169.674 112.852 169.746 112.906 169.828 112.935Z" fill="#263238"/>
<path d="M172.025 119.175C172.452 119.392 172.923 119.505 173.401 119.505C173.88 119.505 174.351 119.392 174.777 119.175C175.539 118.74 175.539 118.024 174.777 117.589C174.351 117.372 173.88 117.259 173.401 117.259C172.923 117.259 172.452 117.372 172.025 117.589C171.248 118.024 171.248 118.74 172.025 119.175Z" fill="#263238"/>
<path d="M170.087 116.412C170.605 116.117 170.569 115.629 170.025 115.318L160.976 110.089C160.685 109.934 160.362 109.849 160.032 109.844C159.702 109.839 159.375 109.912 159.079 110.058C158.561 110.348 158.603 110.841 159.142 111.152L168.19 116.376C168.482 116.529 168.805 116.613 169.135 116.619C169.464 116.625 169.79 116.555 170.087 116.412Z" fill="#263238"/>
<path d="M52.7644 50.5055C52.7931 49.9489 52.9531 49.407 53.2314 48.9242C53.5098 48.4414 53.8985 48.0313 54.3658 47.7276L136.37 0.384918C136.866 0.131898 137.416 0 137.974 0C138.531 0 139.081 0.131898 139.578 0.384918L141.381 1.42143C141.848 1.72462 142.236 2.13385 142.514 2.61571C142.793 3.09758 142.953 3.63842 142.982 4.1941V67.0586C142.951 67.6144 142.789 68.1551 142.511 68.6374C142.233 69.1197 141.846 69.5303 141.381 69.8365L59.3774 117.179C58.8807 117.43 58.3322 117.56 57.7759 117.56C57.2197 117.56 56.6712 117.43 56.1745 117.179L54.3658 116.143C53.9008 115.837 53.5138 115.426 53.2358 114.944C52.9577 114.461 52.7963 113.921 52.7644 113.365V50.5055Z" fill="#9468B4"/>
<path opacity="0.4" d="M53.2307 48.9245L57.781 51.5468L142.516 2.62343C142.246 2.13578 141.857 1.72404 141.386 1.42626L139.572 0.38975C139.076 0.136774 138.528 0.00488281 137.971 0.00488281C137.414 0.00488281 136.865 0.136774 136.369 0.38975L54.3709 47.7273C53.8929 48.0201 53.4998 48.4328 53.2307 48.9245Z" fill="white"/>
<path opacity="0.1" d="M52.7644 50.4999V113.354C52.794 113.911 52.9551 114.453 53.2343 114.936C53.5135 115.419 53.903 115.828 54.371 116.132L56.1745 117.168C56.314 117.25 56.4616 117.316 56.615 117.365C56.8292 117.436 57.0496 117.486 57.2732 117.516C57.6944 117.57 58.1218 117.554 58.5378 117.469C58.643 117.448 58.7468 117.42 58.8487 117.386C58.9149 117.368 58.9791 117.344 59.0405 117.314C58.9193 117.365 58.7888 117.392 58.657 117.392C58.5251 117.392 58.3947 117.365 58.2735 117.314C58.1055 117.201 57.9711 117.046 57.8844 116.863C57.7977 116.681 57.762 116.478 57.7811 116.277V53.3866C57.7652 53.1015 57.8365 52.8184 57.9856 52.5749C58.1346 52.3314 58.3544 52.139 58.6155 52.0236L57.7811 51.5364L53.2308 48.9141C52.9436 49.3947 52.7831 49.9403 52.7644 50.4999Z" fill="black"/>
<path opacity="0.2" d="M57.7812 51.5473L95.759 65.7371C97.0725 66.2257 98.5131 66.2527 99.844 65.8138C101.175 65.3749 102.317 64.4961 103.082 63.322L109.182 53.9934L142.817 2.45801L110.395 54.3303L142.983 67.0846C142.949 67.6539 142.771 68.2052 142.464 68.686L110.306 54.4754L103.217 65.8252C102.43 67.0849 101.216 68.0185 99.7962 68.4545C98.3767 68.8906 96.8475 68.7998 95.4895 68.1988L90.4469 65.9703L58.2684 117.309C58.1004 117.197 57.966 117.041 57.8793 116.858C57.7926 116.676 57.7569 116.473 57.776 116.272V115.236L90.2862 65.9289L57.7812 51.5473Z" fill="black"/>
<path d="M67.177 36.8698L61.5695 33.6411L61.5176 33.61C59.03 32.2055 55.6199 32.418 51.8418 34.5947C44.239 38.9843 38.0769 49.6604 38.0769 58.4345C38.0769 62.8137 39.6317 65.8974 42.0934 67.3381L47.193 70.2455L48.4109 68.2088C49.7984 67.8933 51.1299 67.369 52.3601 66.654C59.9629 62.2644 66.1249 51.5883 66.1249 42.8142C66.1244 41.6299 65.9799 40.45 65.6948 39.3005L67.177 36.8698Z" fill="#37474F"/>
<path d="M57.1592 37.6576C49.5512 42.0472 43.3892 52.7233 43.3892 61.4973C43.3892 70.2714 49.5512 73.837 57.1541 69.4474C64.7569 65.0578 70.9241 54.3765 70.9241 45.6076C70.9241 36.8387 64.7621 33.2627 57.1592 37.6576Z" fill="#455A64"/>
<path d="M52.8783 54.6C52.8293 54.5493 52.7938 54.4872 52.7748 54.4193C52.7558 54.3515 52.7539 54.28 52.7694 54.2113C52.7956 54.0243 52.8667 53.8464 52.9768 53.693L57.2316 47.3755C57.3405 47.2252 57.4441 47.0749 57.5581 46.9298C57.653 46.7942 57.7747 46.6795 57.9157 46.5929L59.4705 45.7119C59.5221 45.6736 59.5838 45.6513 59.6479 45.6479C59.7121 45.6445 59.7758 45.6601 59.8311 45.6928C59.8864 45.7254 59.9309 45.7736 59.9589 45.8314C59.987 45.8892 59.9974 45.954 59.9888 46.0176V60.6014C59.9805 60.785 59.9252 60.9635 59.8281 61.1196C59.7423 61.2811 59.6154 61.4169 59.4601 61.5135L57.8743 62.4256C57.8215 62.4656 57.7587 62.4902 57.6928 62.4966C57.627 62.503 57.5606 62.491 57.5011 62.4619C57.4469 62.4241 57.4038 62.3724 57.3764 62.3122C57.3491 62.252 57.3384 62.1856 57.3457 62.1199V50.9722L54.573 55.0819C54.4813 55.2323 54.3481 55.3529 54.1895 55.4292C54.132 55.4581 54.0677 55.4705 54.0037 55.465C53.9396 55.4595 53.8784 55.4363 53.8267 55.3981L52.8783 54.6Z" fill="#FAFAFA"/>
<path d="M179.856 104.865V103.938H180.085C180.428 103.308 180.951 102.793 181.587 102.461C182.884 101.804 184.317 101.462 185.77 101.462C187.223 101.462 188.656 101.804 189.952 102.461C190.588 102.793 191.111 103.308 191.455 103.938H191.683V104.834C191.683 105.721 191.123 106.612 189.952 107.291C188.659 107.942 187.23 108.281 185.782 108.28C184.334 108.28 182.906 107.939 181.613 107.286C180.427 106.622 179.851 105.731 179.856 104.865Z" fill="#263238"/>
<path d="M189.952 101.522C188.656 100.863 187.223 100.52 185.77 100.52C184.316 100.52 182.883 100.863 181.587 101.522C179.276 102.854 179.276 105.015 181.587 106.352C182.884 107.009 184.316 107.351 185.77 107.351C187.223 107.351 188.656 107.009 189.952 106.352C192.263 105.015 192.263 102.854 189.952 101.522Z" fill="#455A64"/>
<path d="M187.314 68.416V103.543C187.302 103.677 187.254 103.806 187.175 103.915C187.097 104.024 186.991 104.111 186.868 104.165C186.535 104.336 186.165 104.426 185.79 104.426C185.415 104.426 185.046 104.336 184.712 104.165C184.589 104.111 184.483 104.024 184.405 103.915C184.327 103.806 184.279 103.677 184.267 103.543V68.416H187.314Z" fill="#37474F"/>
<path d="M184.246 72.2412V73.3399L187.293 75.0968V74.0033L184.246 72.2412Z" fill="#263238"/>
<path d="M203.686 59.1136L203.427 59.6319L200.638 65.2187L199.317 67.8981L194.839 76.8795L194.347 77.8693H194.259C194.079 77.8753 193.9 77.8342 193.74 77.7501L173.782 66.2137C173.634 66.1196 173.509 65.9917 173.419 65.8404C173.329 65.6891 173.276 65.5187 173.264 65.3431V57.6314C173.264 53.7859 175.798 49.2046 178.924 47.401C180.406 46.5459 181.748 46.4785 182.759 47.0434L203.686 59.1136Z" fill="#455A64"/>
<path d="M199.918 59.5234C198.653 59.9899 194.067 63.7783 194.067 69.7486C194.067 74.7654 194.067 77.367 194.067 77.8386H194.253H194.342L194.834 76.8488L199.317 67.8985L200.638 65.245L200.944 64.6386L199.918 59.5234Z" fill="#37474F"/>
<path d="M205.329 71.5256C205.279 71.6101 205.207 71.6799 205.121 71.7277L205.07 71.7588L194.761 77.7447C194.633 77.8128 194.492 77.8517 194.347 77.8587H194.259V69.748C194.284 68.2806 194.589 66.8314 195.155 65.4775L195.674 65.7678L199.327 67.8771L204.997 71.1576L205.287 71.3235C205.319 71.3455 205.34 71.3787 205.348 71.4163C205.356 71.4539 205.349 71.493 205.329 71.5256Z" fill="#37474F"/>
<path d="M203.686 59.1137C202.686 58.5954 201.364 58.6835 199.918 59.5231C198.144 60.6383 196.709 62.2195 195.772 64.0941C195.534 64.5434 195.322 65.0053 195.135 65.4779C194.568 66.8317 194.264 68.2809 194.238 69.7483V77.8538H194.326C194.471 77.8468 194.613 77.8079 194.741 77.7398L205.044 71.785L205.096 71.7539C205.177 71.7003 205.247 71.6317 205.303 71.5518C205.448 71.3701 205.532 71.1468 205.541 70.9144V63.2338C205.567 61.1608 204.842 59.7252 203.686 59.1137ZM204.836 71.2409L194.99 76.9417C194.907 76.9883 194.839 76.9417 194.839 76.8536V69.7483C194.866 68.382 195.145 67.0325 195.663 65.7681C195.669 65.7406 195.68 65.7143 195.694 65.6903C195.893 65.1899 196.121 64.7018 196.378 64.2289C197.251 62.5072 198.575 61.0546 200.208 60.0258C200.841 59.6243 201.569 59.3972 202.318 59.3676C202.704 59.3633 203.085 59.456 203.427 59.6371C204.411 60.1554 204.981 61.4355 204.981 63.2131V70.9869C204.979 71.0376 204.964 71.087 204.939 71.1311C204.914 71.1751 204.879 71.2127 204.836 71.2409Z" fill="#455A64"/>
<path d="M204.987 63.2343V71.1792L195.658 65.7893C195.664 65.7618 195.674 65.7355 195.689 65.7116C196.689 63.2136 198.374 61.094 200.203 60.0471C200.836 59.6455 201.564 59.4185 202.312 59.3889C203.966 59.3682 204.987 60.8452 204.987 63.2343Z" fill="#263238"/>
<path d="M187.915 67.173L188.739 66.6962C188.915 66.6167 189.109 66.5849 189.301 66.604C189.493 66.6231 189.676 66.6924 189.833 66.805C190.285 67.1005 190.662 67.4985 190.932 67.9667C191.202 68.4349 191.358 68.9602 191.388 69.4999C191.406 69.6895 191.375 69.8807 191.297 70.0544C191.219 70.2281 191.096 70.3782 190.942 70.4898L190.18 70.9303L190.04 70.6971C189.884 70.6628 189.734 70.6051 189.594 70.5261C189.142 70.2306 188.765 69.8326 188.495 69.3643C188.225 68.8961 188.069 68.3709 188.04 67.8311C188.041 67.6968 188.057 67.5631 188.086 67.4321L187.915 67.173Z" fill="#E0E0E0"/>
<path d="M189.05 67.2609C189.502 67.5556 189.879 67.9527 190.149 68.42C190.419 68.8873 190.575 69.4117 190.605 69.9506C190.605 70.9457 189.905 71.3448 189.05 70.8524C188.598 70.5566 188.221 70.1585 187.951 69.6904C187.681 69.2222 187.525 68.6971 187.495 68.1575C187.49 67.1676 188.19 66.7634 189.05 67.2609Z" fill="#FAFAFA"/>
<path d="M189.05 69.4842C188.931 69.4842 188.816 69.4367 188.731 69.3521C188.647 69.2676 188.599 69.1529 188.599 69.0333V56.279C188.599 56.1594 188.647 56.0447 188.731 55.9602C188.816 55.8756 188.931 55.8281 189.05 55.8281C189.17 55.8281 189.285 55.8756 189.369 55.9602C189.454 56.0447 189.501 56.1594 189.501 56.279V69.0333C189.501 69.1529 189.454 69.2676 189.369 69.3521C189.285 69.4367 189.17 69.4842 189.05 69.4842Z" fill="#EBEBEB"/>
<path d="M188.6 57.5385L184.08 54.9316L185.495 57.6525L184.08 58.7408L188.6 61.3528V57.5385Z" fill="#9468B4"/>
<path d="M202.634 65.8257C202.63 65.7564 202.611 65.6889 202.577 65.6285C202.542 65.5682 202.494 65.5168 202.437 65.4785L192.217 59.5807C192.155 59.5501 192.086 59.5342 192.017 59.5342C191.948 59.5342 191.88 59.5501 191.818 59.5807L191.59 59.7103C191.532 59.7486 191.484 59.8 191.449 59.8603C191.415 59.9207 191.396 59.9882 191.393 60.0575V67.8987C191.397 67.9678 191.417 68.0349 191.451 68.095C191.485 68.1552 191.533 68.2068 191.59 68.246L201.825 74.1178C201.887 74.1484 201.955 74.1644 202.025 74.1644C202.094 74.1644 202.162 74.1484 202.224 74.1178L202.452 73.9883C202.51 73.95 202.558 73.8986 202.592 73.8382C202.626 73.7779 202.646 73.7103 202.649 73.641L202.634 65.8257Z" fill="#F0F0F0"/>
<path d="M202.577 65.618L202.012 65.9445L191.46 59.8498C191.494 59.7893 191.542 59.7378 191.6 59.6995L191.828 59.57C191.889 59.5369 191.958 59.5195 192.027 59.5195C192.097 59.5195 192.166 59.5369 192.227 59.57L202.447 65.4677C202.501 65.5072 202.546 65.5586 202.577 65.618Z" fill="#FAFAFA"/>
<path d="M202.634 65.8255V73.6563C202.63 73.7256 202.611 73.7932 202.577 73.8535C202.543 73.9139 202.495 73.9653 202.437 74.0035L202.209 74.1331L202.157 74.159H202.074C202.021 74.1694 201.966 74.1694 201.913 74.159H201.877H201.851C201.866 74.1668 201.883 74.1708 201.9 74.1708C201.917 74.1708 201.934 74.1668 201.95 74.159C201.971 74.1451 201.988 74.1257 201.999 74.1028C202.009 74.08 202.014 74.0547 202.012 74.0295V66.1727C202.013 66.1372 202.003 66.1021 201.984 66.0724C201.964 66.0427 201.936 66.0198 201.903 66.0069L202.012 65.9447L202.577 65.6182C202.614 65.681 202.633 65.7525 202.634 65.8255Z" fill="#E0E0E0"/>
<path d="M202.012 65.9448L197.275 67.7121C197.111 67.7723 196.932 67.7754 196.766 67.7208C196.601 67.6663 196.458 67.5572 196.363 67.4115L195.606 66.2506L191.413 59.8242L195.451 66.2921L191.393 67.8987C191.396 67.9685 191.418 68.0362 191.455 68.0956L195.466 66.3232L196.347 67.738C196.445 67.8954 196.597 68.012 196.774 68.0663C196.951 68.1206 197.142 68.1089 197.311 68.0334L197.938 67.7587L201.949 74.1177C201.971 74.1038 201.988 74.0844 201.998 74.0615C202.009 74.0387 202.014 74.0134 202.012 73.9882V73.8586L197.959 67.7121L202.012 65.9448Z" fill="#E0E0E0"/>
<path d="M210.542 67.0792L208.469 69.4476L208.428 69.4995L206.49 71.7435C206.374 71.8702 206.242 71.9801 206.096 72.07L195.212 78.3409C195.176 78.3623 195.135 78.3764 195.093 78.3824H195.088L199.006 73.858L199.234 73.5989C202.123 70.4462 205.437 67.7111 209.081 65.4726C210.506 64.6486 211.418 64.3532 211.765 64.5242C212.19 64.7574 211.796 65.6333 210.542 67.0792Z" fill="#37474F"/>
</svg>
