<svg width="240" height="212" viewBox="0 0 240 212" fill="none" xmlns="http://www.w3.org/2000/svg">
<path d="M54.9498 127.323C80.4419 135.979 112.46 126.247 138.208 114.002C240.736 75.2138 183.59 -5.87287 114.462 0.337426C45.3333 6.54773 -22.244 100.87 54.9498 127.323Z" fill="#9468B4"/>
<path opacity="0.9" d="M54.9498 127.323C80.4419 135.979 112.46 126.247 138.208 114.002C240.736 75.2138 183.59 -5.87287 114.462 0.337426C45.3333 6.54773 -22.244 100.87 54.9498 127.323Z" fill="white"/>
<path d="M117.935 211.743C183.069 211.743 235.87 208.66 235.87 204.857C235.87 201.054 183.069 197.972 117.935 197.972C52.8012 197.972 0 201.054 0 204.857C0 208.66 52.8012 211.743 117.935 211.743Z" fill="#F5F5F5"/>
<path d="M53.0704 199.56L57.833 197.753L54.9134 186.245L50.1508 188.052L53.0704 199.56Z" fill="#B55B52"/>
<path d="M17.2866 199.657H22.3777L23.1441 187.856H18.0469L17.2866 199.657Z" fill="#B55B52"/>
<path d="M22.8887 199.066H16.6784C16.5786 199.065 16.4816 199.099 16.4047 199.163C16.3278 199.226 16.276 199.315 16.2587 199.413L15.4801 203.939C15.4644 204.052 15.4732 204.167 15.5058 204.276C15.5383 204.385 15.594 204.486 15.6689 204.572C15.7439 204.658 15.8364 204.727 15.9402 204.774C16.0441 204.821 16.1568 204.845 16.2708 204.845C18.2659 204.808 19.7196 204.693 22.2378 204.693C23.7828 204.693 28.4603 204.857 30.6014 204.857C32.7424 204.857 32.9127 202.74 32.0247 202.546C28.0588 201.688 25.0419 200.508 23.7281 199.377C23.4937 199.177 23.1963 199.067 22.8887 199.066Z" fill="#263238"/>
<path d="M57.5897 197.218L52.3891 199.189C52.2943 199.225 52.2144 199.292 52.1625 199.379C52.1106 199.466 52.0897 199.568 52.1032 199.669L52.7723 204.255C52.784 204.368 52.8218 204.477 52.8826 204.573C52.9435 204.669 53.0257 204.75 53.1229 204.809C53.2202 204.868 53.3297 204.903 53.443 204.913C53.5563 204.922 53.6703 204.906 53.776 204.864C55.6372 204.121 57.2248 203.179 59.597 202.327C62.3071 201.446 64.9135 200.273 67.3705 198.83C69.1344 197.71 68.3924 195.582 67.559 195.916C63.7757 197.437 62.8451 197.936 58.8731 197.169C58.4491 197.066 58.0047 197.083 57.5897 197.218Z" fill="#263238"/>
<path d="M44.1533 44.4297C45.7531 47.2642 47.444 50.1838 49.1471 53.0061C50.8502 55.8284 52.5959 58.6507 54.4511 61.2784C54.8952 61.9414 55.3939 62.5801 55.844 63.1944C55.9437 63.3733 56.0782 63.5304 56.2394 63.6567C56.5242 63.8025 56.8481 63.8537 57.1639 63.8027C57.7453 63.7433 58.3161 63.6063 58.861 63.3951C60.2411 62.8536 61.5585 62.1643 62.7903 61.3392C63.4472 60.9074 64.1163 60.4633 64.7672 59.9889C65.418 59.5145 66.0749 59.0035 66.671 58.5473L69.5237 61.0898C69.0034 61.8416 68.4451 62.5664 67.851 63.2613C67.2766 63.9623 66.6676 64.6343 66.0262 65.2746C65.3682 65.9376 64.6715 66.5612 63.9399 67.142C63.1776 67.7654 62.3636 68.323 61.5069 68.8086C60.5399 69.3689 59.5001 69.7926 58.417 70.0677C57.0704 70.4151 55.6578 70.4151 54.3112 70.0677C52.8559 69.6626 51.5512 68.84 50.5583 67.7016C49.95 66.996 49.3418 66.333 48.7943 65.6335C46.5917 62.9008 44.5428 60.0477 42.657 57.0875C40.7714 54.1557 39.0075 51.2178 37.3895 48.0914L44.1533 44.4297Z" fill="#B65B52"/>
<path d="M35.1147 44.6667C33.7461 49.3381 43.4113 62.075 43.4113 62.075L53.1434 55.8039C51.3078 51.753 49.0422 47.9111 46.3857 44.3443C42.4138 39.2654 36.6232 39.5391 35.1147 44.6667Z" fill="#9468B4"/>
<path opacity="0.2" d="M35.1147 44.6667C33.7461 49.3381 43.4113 62.075 43.4113 62.075L53.1434 55.8039C51.3078 51.753 49.0422 47.9111 46.3857 44.3443C42.4138 39.2654 36.6232 39.5391 35.1147 44.6667Z" fill="black"/>
<path opacity="0.2" d="M41.0574 50.1472C43.0646 51.0048 46.0147 55.8344 47.5536 59.417L43.4113 62.0751C41.1023 58.9887 39.0245 55.7358 37.1949 52.343C38.5027 50.8893 39.999 49.6971 41.0574 50.1472Z" fill="black"/>
<path d="M66.0688 60.1349L67.8571 55.1289L72.9239 57.5619C72.9239 57.5619 71.8716 62.0204 68.1613 62.0144L66.0688 60.1349Z" fill="#B55B52"/>
<path d="M72.3642 51.8379L74.5114 54.204L72.9238 57.5494L67.8571 55.1286L72.3642 51.8379Z" fill="#B55B52"/>
<path opacity="0.2" d="M54.9134 186.251L56.4158 192.181L51.6532 193.988L50.1508 188.057L54.9134 186.251Z" fill="black"/>
<path opacity="0.2" d="M18.047 187.862H23.1442L22.7488 193.939H17.6516L18.047 187.862Z" fill="black"/>
<path d="M12.4146 42.5986C17.8889 61.9473 17.0008 82.476 17.3414 86.6486L44.567 85.6267C49.1958 56.7832 40.9175 40.7313 40.9175 40.7313C40.9175 40.7313 39.1718 40.3968 36.7935 40.1535C36.0514 40.0744 35.2485 40.0075 34.4091 39.9649C33.9468 39.9345 33.4785 39.9223 33.004 39.9102C29.1383 39.9756 25.2796 40.2639 21.4472 40.7739C20.7233 40.8651 19.9873 40.9685 19.2696 41.0902C18.5519 41.2118 17.9619 41.3213 17.3475 41.443C14.5313 41.9965 12.4146 42.5986 12.4146 42.5986Z" fill="#9468B4"/>
<path opacity="0.2" d="M12.4146 42.5986C17.8889 61.9473 17.0008 82.476 17.3414 86.6486L44.567 85.6267C49.1958 56.7832 40.9175 40.7313 40.9175 40.7313C40.9175 40.7313 39.1718 40.3968 36.7935 40.1535C36.0514 40.0744 35.2485 40.0075 34.4091 39.9649C33.9468 39.9345 33.4785 39.9223 33.004 39.9102C29.1383 39.9756 25.2796 40.2639 21.4472 40.7739C20.7233 40.8651 19.9873 40.9685 19.2696 41.0902C18.5519 41.2118 17.9619 41.3213 17.3475 41.443C14.5313 41.9965 12.4146 42.5986 12.4146 42.5986Z" fill="black"/>
<path opacity="0.2" d="M18.2113 50.9014C18.6979 52.7687 18.1383 61.3147 16.1858 63.4193C15.9182 60.6821 15.5775 57.8294 15.0909 54.9037L18.2113 50.9014Z" fill="black"/>
<path d="M21.5991 27.709C22.6027 31.3585 23.8375 38.1223 21.4227 40.7926C23.5942 42.6538 26.4044 44.7767 30.8264 44.6003C35.2484 44.4239 34.2569 41.4495 32.9735 39.9349C28.7522 39.2537 28.6306 36.1759 29.1415 33.2441L21.5991 27.709Z" fill="#B55B52"/>
<path d="M30.942 43.9492L31.7449 44.4906L28.8131 45.3482L29.5673 43.9857L30.942 43.9492Z" fill="#9468B4"/>
<path d="M32.049 43.6631L31.7449 44.4903L34.6888 45.348L34.4881 43.7726L32.049 43.6631Z" fill="#9468B4"/>
<path d="M19.665 40.4823L20.8207 39.9044C21.0055 39.8118 21.2123 39.7719 21.4183 39.789C21.6243 39.8062 21.8216 39.8798 21.9886 40.0017C24.662 41.9409 27.7187 43.2868 30.9543 43.9493C28.6307 45.0563 29.2025 48.0368 29.2025 48.0368C29.2025 48.0368 21.8122 45.6038 19.4704 41.1878C19.4041 41.0681 19.3874 40.9272 19.4237 40.7953C19.4601 40.6634 19.5467 40.551 19.665 40.4823Z" fill="white"/>
<path d="M34.2631 39.7222L32.5661 39.4667C32.5223 39.4597 32.4774 39.4658 32.437 39.4842C32.3966 39.5026 32.3626 39.5325 32.3392 39.5702C32.3158 39.6079 32.3041 39.6517 32.3055 39.6961C32.3069 39.7404 32.3214 39.7834 32.3471 39.8195C32.9554 40.665 33.9286 42.5202 32.0491 43.6637C34.3726 44.7707 35.0904 47.4896 35.0904 47.4896C35.0904 47.4896 38.1316 44.2233 34.5916 39.9107C34.507 39.812 34.391 39.7454 34.2631 39.7222Z" fill="white"/>
<path opacity="0.2" d="M24.671 29.9346L29.1295 33.1827C29.0006 33.8687 28.9334 34.5649 28.9288 35.2629C27.3291 35.1534 25.0238 33.578 24.7318 31.9297C24.5933 31.2735 24.5727 30.5979 24.671 29.9346Z" fill="black"/>
<path d="M34.5246 20.1724C34.3178 21.9424 32.6208 23.4631 31.5259 23.822L30.1573 16.1518C33.229 13.9804 34.8105 17.6907 34.5246 20.1724Z" fill="#263238"/>
<path d="M20.0602 22.2954C20.9483 27.2709 21.2098 30.2331 24.0382 32.5141C28.296 35.9446 34.2143 32.9338 34.8348 27.794C35.3944 23.1652 33.8494 15.8053 28.7157 14.3759C27.5849 14.0559 26.391 14.0301 25.2474 14.301C24.1038 14.572 23.0484 15.1306 22.1814 15.9239C21.3143 16.7173 20.6643 17.719 20.2931 18.8341C19.9219 19.9492 19.8417 21.1406 20.0602 22.2954Z" fill="#B55B52"/>
<path d="M21.0092 25.6528C23.3145 26.8693 24.3242 24.1261 24.3485 23.0069C24.3485 21.2308 23.6064 19.2783 22.688 18.5666C27.1404 18.5666 35.948 18.3476 33.7218 14.1081C31.4955 9.86854 27.0309 10.3491 23.7038 12.6726C21.9337 13.8891 16.204 12.8307 17.6212 16.1336C14.6347 17.7211 17.2258 23.6395 21.0092 25.6528Z" fill="#263238"/>
<path d="M18.1078 15.8595C17.314 15.8555 16.5431 15.5929 15.912 15.1113C16.0154 15.5559 16.2618 15.9544 16.6134 16.2455C16.9649 16.5367 17.4023 16.7045 17.8584 16.7232L18.1078 15.8595Z" fill="#263238"/>
<path d="M18.1808 26.3889C18.7516 27.5338 19.7502 28.4079 20.9606 28.822C22.5664 29.339 22.9313 27.867 22.542 26.322C22.1892 24.923 21.435 23.0314 19.7988 23.1834C18.1626 23.3355 17.4996 24.99 18.1808 26.3889Z" fill="#B55B52"/>
<path d="M50.4975 139.476C48.4294 124.069 44.567 85.627 44.567 85.627L26.6964 86.3021C26.6964 86.3021 35.139 124.714 38.1925 140.291C41.2459 155.868 49.7493 193.459 49.7493 193.459L57.8148 190.417C57.8148 190.417 52.6568 155.497 50.4975 139.476Z" fill="#263238"/>
<path opacity="0.2" d="M33.3872 96.6543C31.9155 97.0057 30.5494 97.7044 29.4031 98.692C31.094 106.459 33.302 116.684 35.1998 125.692C36.4649 117.889 36.5014 103.163 33.3872 96.6543Z" fill="black"/>
<path d="M34.9139 85.9912C34.9139 85.9912 31.1123 127.693 29.3727 142.51C27.4689 158.745 25.1149 192.765 25.1149 192.765H15.7478C15.7478 192.765 15.3646 162.674 16.575 146.786C17.9558 128.691 17.3353 86.6481 17.3353 86.6481L34.9139 85.9912Z" fill="#263238"/>
<path d="M26.3315 192.966H15.3464L15.1152 189.682L27.3777 189.469L26.3315 192.966Z" fill="#9468B4"/>
<path d="M58.867 190.211L49.2566 193.854L48.0826 190.746L58.7636 186.513L58.867 190.211Z" fill="#9468B4"/>
<path d="M27.8278 22.8426C27.8703 23.2563 28.1258 23.5604 28.3934 23.53C28.6611 23.4996 28.8375 23.1407 28.7888 22.7331C28.7402 22.3256 28.4908 22.0215 28.2231 22.0519C27.9555 22.0823 27.7791 22.4108 27.8278 22.8426Z" fill="#263238"/>
<path d="M32.4384 22.2891C32.487 22.6966 32.7425 23.0008 33.004 22.9704C33.2656 22.9399 33.4542 22.5872 33.4055 22.1796C33.3568 21.7721 33.1014 21.4619 32.8337 21.4923C32.5661 21.5227 32.3897 21.8816 32.4384 22.2891Z" fill="#263238"/>
<path d="M30.9968 22.6602C31.6258 23.8515 32.4159 24.9506 33.3447 25.9265C33.0917 26.1617 32.7898 26.3382 32.4607 26.4433C32.1316 26.5485 31.7834 26.5797 31.4409 26.5348L30.9968 22.6602Z" fill="#A02724"/>
<path d="M29.8472 27.8064C29.3853 27.8053 28.9285 27.7098 28.5049 27.5257C28.0812 27.3416 27.6997 27.0728 27.3838 26.7358C27.3719 26.7237 27.3628 26.7092 27.3569 26.6934C27.351 26.6775 27.3484 26.6606 27.3495 26.6437C27.3505 26.6268 27.355 26.6103 27.3628 26.5952C27.3705 26.5802 27.3813 26.5669 27.3945 26.5563C27.4077 26.5456 27.423 26.5379 27.4393 26.5335C27.4557 26.5291 27.4728 26.5281 27.4895 26.5307C27.5062 26.5333 27.5223 26.5394 27.5365 26.5485C27.5508 26.5576 27.563 26.5697 27.5723 26.5838C27.928 26.9506 28.3648 27.2286 28.8477 27.3956C29.3305 27.5625 29.8458 27.6136 30.3521 27.5448C30.3677 27.5422 30.3837 27.5429 30.3991 27.5468C30.4145 27.5507 30.4289 27.5577 30.4415 27.5674C30.454 27.5771 30.4644 27.5893 30.4721 27.6032C30.4797 27.6171 30.4844 27.6324 30.4859 27.6482C30.4894 27.6796 30.4805 27.7111 30.4612 27.736C30.4419 27.761 30.4137 27.7775 30.3825 27.782C30.205 27.8049 30.026 27.813 29.8472 27.8064Z" fill="#263238"/>
<path d="M26.2341 21.4916C26.1944 21.5034 26.1522 21.5034 26.1125 21.4916C26.085 21.4759 26.061 21.4548 26.0418 21.4297C26.0227 21.4046 26.0087 21.3759 26.0008 21.3453C25.9928 21.3147 25.9911 21.2828 25.9956 21.2515C26.0002 21.2202 26.011 21.1902 26.0273 21.1631C26.2127 20.8298 26.475 20.5455 26.7924 20.3339C27.1098 20.1223 27.4731 19.9895 27.8521 19.9466C27.884 19.945 27.916 19.9497 27.9462 19.9604C27.9763 19.9711 28.004 19.9877 28.0278 20.0092C28.0515 20.0306 28.0708 20.0566 28.0845 20.0855C28.0981 20.1144 28.106 20.1458 28.1076 20.1777C28.1092 20.2094 28.1045 20.2411 28.0937 20.2709C28.0828 20.3007 28.0662 20.328 28.0446 20.3512C28.0231 20.3745 27.9971 20.3932 27.9682 20.4062C27.9393 20.4192 27.9081 20.4264 27.8764 20.4271C27.5752 20.4653 27.2872 20.5738 27.0357 20.7439C26.7842 20.9141 26.5763 21.141 26.4288 21.4064C26.4062 21.436 26.3765 21.4593 26.3425 21.4742C26.3084 21.4891 26.2711 21.4951 26.2341 21.4916Z" fill="#263238"/>
<path d="M34.245 20.4769C34.2047 20.4753 34.1653 20.464 34.1304 20.4439C34.0954 20.4237 34.0659 20.3954 34.0442 20.3614C33.8897 20.1003 33.6748 19.8802 33.4177 19.7193C33.1605 19.5584 32.8685 19.4616 32.5662 19.4368C32.5017 19.4368 32.4398 19.4112 32.3941 19.3655C32.3485 19.3199 32.3229 19.258 32.3229 19.1935C32.3229 19.129 32.3485 19.0671 32.3941 19.0215C32.4398 18.9758 32.5017 18.9502 32.5662 18.9502C32.9484 18.9811 33.3178 19.1019 33.6445 19.3027C33.9711 19.5036 34.2456 19.7788 34.4457 20.1059C34.4626 20.1322 34.4741 20.1616 34.4795 20.1924C34.485 20.2232 34.4843 20.2548 34.4775 20.2853C34.4707 20.3158 34.458 20.3447 34.44 20.3703C34.422 20.3959 34.3991 20.4176 34.3727 20.4343C34.3353 20.4609 34.2908 20.4757 34.245 20.4769Z" fill="#263238"/>
<path d="M24.6162 199.956C24.1628 199.944 23.712 199.883 23.2719 199.773C23.2489 199.768 23.228 199.755 23.2118 199.738C23.1956 199.721 23.1848 199.699 23.1807 199.676C23.1746 199.653 23.1761 199.629 23.1848 199.607C23.1936 199.585 23.2092 199.567 23.2294 199.554C23.4058 199.439 24.9994 198.429 25.5772 198.715C25.641 198.747 25.6953 198.796 25.7347 198.855C25.7742 198.915 25.7974 198.984 25.8023 199.055C25.8238 199.172 25.815 199.292 25.7766 199.404C25.7383 199.515 25.6717 199.615 25.5833 199.694C25.3014 199.892 24.9592 199.984 24.6162 199.956ZM23.6187 199.603C24.4885 199.773 25.1515 199.743 25.4434 199.512C25.5021 199.456 25.5462 199.388 25.5717 199.311C25.5971 199.235 25.6032 199.153 25.5894 199.074C25.5894 198.976 25.5347 198.946 25.5042 198.934C25.1819 198.782 24.2634 199.238 23.6187 199.603Z" fill="#9468B4"/>
<path d="M23.3023 199.772C23.2803 199.777 23.2574 199.777 23.2354 199.772C23.2171 199.76 23.202 199.744 23.1914 199.725C23.1808 199.706 23.175 199.684 23.1746 199.662C23.1746 199.602 23.2293 198.13 23.7828 197.649C23.8496 197.586 23.9297 197.54 24.0172 197.512C24.1046 197.485 24.197 197.478 24.2877 197.491C24.3801 197.492 24.4695 197.524 24.5421 197.581C24.6147 197.638 24.6664 197.718 24.6891 197.807C24.8229 198.373 23.8619 199.492 23.3449 199.778C23.3304 199.78 23.3157 199.778 23.3023 199.772ZM24.2268 197.71C24.1281 197.711 24.0329 197.747 23.9592 197.813C23.6226 198.279 23.4398 198.838 23.4361 199.413C23.941 199.012 24.5431 198.196 24.4641 197.831C24.4641 197.801 24.4641 197.734 24.2816 197.71H24.2268Z" fill="#9468B4"/>
<path d="M58.3258 197.699C58.303 197.7 58.2804 197.694 58.2609 197.682C58.2415 197.67 58.2259 197.652 58.2163 197.632C58.2033 197.612 58.1963 197.589 58.1963 197.565C58.1963 197.541 58.2033 197.518 58.2163 197.498C58.3927 197.303 59.9377 195.606 60.6494 195.71C60.7154 195.717 60.7783 195.742 60.8317 195.781C60.8851 195.821 60.9271 195.874 60.9535 195.935C61.0016 196.029 61.0266 196.133 61.0266 196.239C61.0266 196.345 61.0016 196.449 60.9535 196.543C60.6068 197.2 59.1713 197.534 58.3441 197.668L58.3258 197.699ZM60.5703 195.947C60.1628 195.947 59.2747 196.744 58.6543 197.394C59.7735 197.169 60.5399 196.823 60.7345 196.452C60.7676 196.388 60.7849 196.317 60.7849 196.245C60.7849 196.173 60.7676 196.102 60.7345 196.038C60.7251 196.014 60.7094 195.993 60.6891 195.977C60.6688 195.961 60.6446 195.95 60.619 195.947H60.5703Z" fill="#9468B4"/>
<path d="M58.3258 197.699H58.2893C58.2689 197.693 58.2504 197.682 58.2354 197.667C58.2205 197.653 58.2097 197.634 58.2041 197.614C58.2041 197.559 57.8331 196.227 58.2467 195.497C58.3051 195.392 58.3843 195.3 58.4795 195.227C58.5747 195.154 58.6838 195.101 58.8002 195.071C59.1226 194.98 59.2686 195.108 59.3416 195.223C59.6335 195.728 58.8854 197.194 58.4049 197.656C58.3961 197.669 58.3843 197.68 58.3705 197.687C58.3568 197.695 58.3414 197.699 58.3258 197.699ZM58.9888 195.266H58.861C58.7752 195.286 58.6948 195.325 58.6255 195.38C58.5562 195.434 58.4996 195.503 58.4596 195.582C58.2582 196.13 58.2327 196.728 58.3866 197.291C58.8367 196.683 59.3051 195.612 59.1287 195.308C59.1044 195.32 59.0739 195.272 58.9705 195.278L58.9888 195.266Z" fill="#9468B4"/>
<path d="M18.0105 49.8001C16.4838 52.9448 14.9266 56.1929 13.4182 59.3923C12.67 61.0042 11.9158 62.61 11.2102 64.2219L10.1518 66.6549L9.66522 67.8532L9.54357 68.1573L9.45233 68.3824C9.3915 68.5223 9.34892 68.6743 9.29418 68.8142C8.91676 70.0126 8.84979 71.2872 9.09954 72.5185C9.39759 73.9484 9.93868 75.3165 10.6993 76.5634C11.5365 77.9589 12.5061 79.2707 13.5946 80.4806C14.1481 81.0888 14.732 81.7336 15.3403 82.3054C15.6444 82.5973 15.9485 82.9136 16.2709 83.1752C16.5933 83.4367 16.9156 83.7834 17.1833 83.9963L15.1395 87.2505C14.2606 86.8036 13.4095 86.3039 12.5909 85.7542C11.7819 85.225 10.9912 84.6654 10.2248 84.0571C8.64636 82.8065 7.21763 81.3778 5.96701 79.7993C4.60472 78.1046 3.56371 76.1752 2.89532 74.1061C2.1837 71.8243 2.08095 69.3962 2.59728 67.0624C2.67635 66.7766 2.73717 66.4542 2.82841 66.1987L3.06563 65.4445L3.49141 64.1002C3.79554 63.2183 4.09967 62.3302 4.41596 61.4604C5.05463 59.7147 5.72371 57.9873 6.44754 56.2841C7.84045 52.8901 9.40367 49.6055 11.1433 46.2783L18.0105 49.8001Z" fill="#B65B52"/>
<path d="M12.4145 42.5989C7.76747 44.0527 3.19946 59.8126 3.19946 59.8126L13.923 64.5205C13.923 64.5205 17.4023 56.9051 19.3973 50.9381C21.6053 44.4359 18.0409 40.835 12.4145 42.5989Z" fill="#9468B4"/>
<path opacity="0.2" d="M12.4145 42.5989C7.76747 44.0527 3.19946 59.8126 3.19946 59.8126L13.923 64.5205C13.923 64.5205 17.4023 56.9051 19.3973 50.9381C21.6053 44.4359 18.0409 40.835 12.4145 42.5989Z" fill="black"/>
<path d="M16.0276 83.0117L20.474 85.6516L16.1493 89.958C16.1493 89.958 12.3964 87.0688 13.5155 84.8061L16.0276 83.0117Z" fill="#B55B52"/>
<path d="M23.4482 89.8666L18.9836 92.993L16.1492 89.9578L20.4739 85.6514L23.4482 89.8666Z" fill="#B55B52"/>
<path d="M238.592 81.8676L238.38 84.7979L238.986 84.8418L239.199 81.9115L238.592 81.8676Z" fill="#9468B4"/>
<path d="M239.393 70.773L238.778 79.2725L239.385 79.3164L240 70.8169L239.393 70.773Z" fill="#9468B4"/>
<path d="M222.75 166.391H73.7693C72.7054 166.403 71.6506 166.193 70.6728 165.773C69.695 165.354 68.8158 164.734 68.0917 163.955C67.3676 163.175 66.8146 162.252 66.4683 161.246C66.1221 160.24 65.9901 159.173 66.081 158.113L73.9883 48.1398C74.1844 45.9131 75.1965 43.8374 76.8301 42.3116C78.4637 40.7858 80.6035 39.9175 82.8384 39.8736H231.819C232.882 39.8604 233.937 40.07 234.915 40.4889C235.893 40.9078 236.772 41.5268 237.496 42.306C238.22 43.0851 238.773 44.0073 239.12 45.0131C239.466 46.0189 239.598 47.0861 239.507 48.1459L231.6 158.119C231.405 160.347 230.394 162.424 228.76 163.951C227.126 165.478 224.985 166.347 222.75 166.391Z" fill="#9468B4"/>
<path d="M188.097 204.858H139.735L131.116 145.103H179.478L188.097 204.858Z" fill="#9468B4"/>
<path d="M180.415 201.293H128.105L127.065 204.857H179.381L180.415 201.293Z" fill="#9468B4"/>
<path d="M182.027 173.867L134.893 171.294L131.116 145.103H177.879L182.027 173.867Z" fill="#263238"/>
<path d="M221.071 166.392H72.0846C71.0191 166.404 69.963 166.192 68.9844 165.771C68.0058 165.349 67.1264 164.727 66.4031 163.945C65.6797 163.162 65.1285 162.237 64.7849 161.229C64.4413 160.22 64.3131 159.15 64.4084 158.089L72.3157 48.1164C72.5172 45.8961 73.53 43.828 75.1605 42.3075C76.791 40.787 78.9247 39.9208 81.1537 39.8745H230.14C231.203 39.8622 232.257 40.0724 233.234 40.4917C234.211 40.911 235.09 41.53 235.813 42.3091C236.537 43.0882 237.089 44.0101 237.435 45.0155C237.781 46.0208 237.913 47.0875 237.822 48.1468L229.915 158.12C229.722 160.347 228.712 162.424 227.079 163.951C225.446 165.478 223.306 166.348 221.071 166.392Z" fill="#263238"/>
<path d="M237.437 49.1771L232.915 112.262L233.497 112.303L238.019 49.2188L237.437 49.1771Z" fill="white"/>
<path d="M232.543 117.754L230.977 139.602L231.56 139.643L233.126 117.796L232.543 117.754Z" fill="white"/>
<path d="M220.73 164.311H72.6927C71.8647 164.32 71.0438 164.156 70.283 163.829C69.5222 163.502 68.8383 163.019 68.2752 162.412C67.7121 161.805 67.2822 161.086 67.0133 160.303C66.7444 159.52 66.6423 158.689 66.7136 157.864L74.5662 48.3412C74.7177 46.6043 75.507 44.9849 76.7818 43.7955C78.0566 42.6061 79.7266 41.9307 81.4699 41.8998H229.532C230.359 41.8908 231.18 42.055 231.94 42.3818C232.7 42.7085 233.384 43.1907 233.947 43.7972C234.51 44.4038 234.94 45.1214 235.209 45.9039C235.479 46.6864 235.581 47.5166 235.511 48.3412L227.658 157.876C227.505 159.616 226.712 161.237 225.432 162.426C224.152 163.615 222.477 164.287 220.73 164.311Z" fill="white"/>
<path opacity="0.2" d="M220.73 164.311H72.6927C71.8647 164.32 71.0438 164.156 70.283 163.829C69.5222 163.502 68.8383 163.019 68.2752 162.412C67.7121 161.805 67.2822 161.086 67.0133 160.303C66.7444 159.52 66.6423 158.689 66.7136 157.864L74.5662 48.3412C74.7177 46.6043 75.507 44.9849 76.7818 43.7955C78.0566 42.6061 79.7266 41.9307 81.4699 41.8998H229.532C230.359 41.8908 231.18 42.055 231.94 42.3818C232.7 42.7085 233.384 43.1907 233.947 43.7972C234.51 44.4038 234.94 45.1214 235.209 45.9039C235.479 46.6864 235.581 47.5166 235.511 48.3412L227.658 157.876C227.505 159.616 226.712 161.237 225.432 162.426C224.152 163.615 222.477 164.287 220.73 164.311Z" fill="#9468B4"/>
<path opacity="0.5" d="M110.672 159.457H76.099C75.6988 159.462 75.302 159.383 74.9342 159.225C74.5664 159.067 74.2357 158.834 73.9635 158.541C73.6913 158.247 73.4836 157.9 73.3538 157.522C73.2239 157.143 73.1749 156.741 73.2097 156.343L80.8373 49.8978C80.9095 49.0573 81.291 48.2736 81.9079 47.6983C82.5248 47.1229 83.3332 46.797 84.1766 46.7835H118.75C119.15 46.7776 119.548 46.856 119.916 47.0135C120.284 47.171 120.615 47.4041 120.888 47.6977C121.16 47.9913 121.368 48.3389 121.497 48.7179C121.627 49.0969 121.675 49.4989 121.639 49.8978L114.012 156.343C113.938 157.183 113.556 157.966 112.94 158.541C112.323 159.116 111.515 159.442 110.672 159.457Z" fill="white"/>
<path opacity="0.4" d="M109.334 61.7714H91.4392C91.0789 61.7753 90.7219 61.7038 90.3909 61.5615C90.0599 61.4192 89.7623 61.2094 89.5171 60.9454C89.272 60.6813 89.0848 60.369 88.9675 60.0284C88.8501 59.6877 88.8053 59.3263 88.8358 58.9674L89.0305 56.2241C89.0965 55.4681 89.44 54.7633 89.9948 54.2455C90.5497 53.7278 91.2765 53.4337 92.0353 53.4201H109.936C110.297 53.4162 110.654 53.4877 110.985 53.63C111.316 53.7722 111.613 53.9821 111.858 54.2461C112.103 54.5102 112.291 54.8225 112.408 55.1631C112.525 55.5038 112.57 55.8652 112.54 56.2241L112.339 58.9674C112.28 59.7259 111.938 60.4347 111.382 60.9538C110.826 61.4729 110.095 61.7646 109.334 61.7714Z" fill="#9468B4"/>
<path d="M97.9536 104.835H70.6368C70.0101 104.843 69.3887 104.721 68.8123 104.474C68.2359 104.228 67.7172 103.865 67.2895 103.407C66.8618 102.949 66.5344 102.406 66.3284 101.814C66.1224 101.222 66.0422 100.594 66.0931 99.9694L68.0578 72.6222C68.1789 71.3077 68.781 70.0842 69.7486 69.1863C70.7161 68.2883 71.9811 67.779 73.3009 67.7562H100.624C101.25 67.749 101.871 67.8726 102.446 68.119C103.022 68.3654 103.54 68.7293 103.967 69.1872C104.394 69.6452 104.721 70.1873 104.927 70.7787C105.132 71.3702 105.212 71.9981 105.161 72.6222L103.203 99.9451C103.089 101.265 102.488 102.496 101.519 103.4C100.549 104.303 99.2787 104.815 97.9536 104.835Z" fill="#9468B4"/>
<path d="M101.871 82.4522C101.366 82.4624 100.884 82.6587 100.515 83.0034C100.147 83.3482 99.9192 83.817 99.8757 84.3196L99.5899 88.2854C99.5694 88.5242 99.5993 88.7646 99.6774 88.9911C99.7556 89.2176 99.8804 89.4252 100.044 89.6006C100.207 89.776 100.405 89.9152 100.626 90.0092C100.846 90.1033 101.084 90.1501 101.323 90.1467H104.097C104.222 90.1455 104.342 90.0973 104.434 90.0116C104.525 89.926 104.581 89.8092 104.59 89.6844L105.076 82.9145C105.081 82.8551 105.074 82.7952 105.055 82.7389C105.035 82.6825 105.004 82.6309 104.963 82.5873C104.923 82.5437 104.873 82.5091 104.818 82.4859C104.763 82.4626 104.704 82.4511 104.644 82.4522H101.871Z" fill="white"/>
<path d="M91.3298 74.6839H74.1404C74.0443 74.6851 73.949 74.6661 73.8607 74.6282C73.7723 74.5903 73.6929 74.5343 73.6276 74.4638C73.5622 74.3933 73.5124 74.3099 73.4813 74.2189C73.4502 74.1279 73.4385 74.0315 73.447 73.9357C73.4637 73.7334 73.5552 73.5446 73.7037 73.4063C73.8522 73.2679 74.047 73.1899 74.2499 73.1876H91.4697C91.5658 73.1863 91.6611 73.2053 91.7495 73.2432C91.8378 73.2811 91.9172 73.3371 91.9826 73.4076C92.0479 73.4781 92.0978 73.5615 92.1288 73.6525C92.1599 73.7435 92.1716 73.84 92.1631 73.9357C92.1447 74.1427 92.0484 74.335 91.8938 74.4739C91.7391 74.6127 91.5376 74.6878 91.3298 74.6839Z" fill="white"/>
<path d="M91.0621 78.4855H73.8363C73.7401 78.4867 73.6448 78.4678 73.5565 78.4299C73.4681 78.392 73.3887 78.336 73.3234 78.2655C73.258 78.195 73.2082 78.1115 73.1771 78.0206C73.146 77.9296 73.1343 77.8331 73.1428 77.7374C73.1609 77.5362 73.2531 77.3488 73.4014 77.2117C73.5498 77.0746 73.7437 76.9975 73.9457 76.9953H91.1716C91.2674 76.9932 91.3626 77.0113 91.4509 77.0486C91.5393 77.0858 91.6188 77.1412 91.6842 77.2112C91.7497 77.2813 91.7996 77.3644 91.8307 77.455C91.8619 77.5457 91.8736 77.6419 91.865 77.7374C91.8483 77.9396 91.7568 78.1284 91.6083 78.2668C91.4598 78.4052 91.265 78.4832 91.0621 78.4855Z" fill="white"/>
<path d="M84.8335 82.2932H73.5625C73.4667 82.2935 73.3718 82.274 73.2839 82.2357C73.196 82.1975 73.1169 82.1415 73.0518 82.0712C72.9866 82.0009 72.9367 81.9178 72.9053 81.8273C72.8739 81.7367 72.8615 81.6406 72.8691 81.5451C72.8858 81.3428 72.9773 81.154 73.1258 81.0156C73.2743 80.8773 73.469 80.7993 73.672 80.7969H84.943C85.0391 80.7957 85.1344 80.8146 85.2228 80.8526C85.3111 80.8905 85.3905 80.9465 85.4559 81.017C85.5212 81.0875 85.5711 81.1709 85.6022 81.2619C85.6333 81.3529 85.6449 81.4493 85.6364 81.5451C85.6184 81.7469 85.5265 81.9349 85.3783 82.073C85.2301 82.2111 85.0361 82.2895 84.8335 82.2932Z" fill="white"/>
<path opacity="0.5" d="M91.3783 100.419H74.7486C74.3375 100.424 73.9299 100.343 73.5521 100.181C73.1742 100.019 72.8346 99.7792 72.5549 99.4778C72.2753 99.1764 72.0619 98.8197 71.9285 98.4308C71.7951 98.0419 71.7446 97.6294 71.7803 97.2198L72.3885 88.467C72.4623 87.605 72.8534 86.8012 73.4861 86.2112C74.1188 85.6212 74.948 85.2871 75.813 85.2736H92.4732C92.8837 85.2688 93.2908 85.3498 93.6681 85.5116C94.0455 85.6734 94.3849 85.9123 94.6644 86.2131C94.9439 86.5138 95.1575 86.8697 95.2913 87.2578C95.4251 87.646 95.4763 88.0579 95.4415 88.467L94.8332 97.2198C94.7577 98.087 94.3621 98.895 93.7234 99.4865C93.0847 100.078 92.2487 100.41 91.3783 100.419Z" fill="white"/>
<path opacity="0.4" d="M106.932 115.067H86.2022C86.0238 115.069 85.8469 115.034 85.6829 114.964C85.5188 114.894 85.3713 114.79 85.2498 114.659C85.1284 114.529 85.0356 114.374 84.9775 114.205C84.9195 114.037 84.8974 113.858 84.9127 113.68C84.9457 113.305 85.1163 112.956 85.3915 112.7C85.6667 112.444 86.027 112.299 86.4029 112.293H107.132C107.31 112.292 107.486 112.327 107.65 112.398C107.813 112.468 107.96 112.572 108.081 112.703C108.201 112.833 108.294 112.988 108.351 113.156C108.409 113.324 108.431 113.503 108.416 113.68C108.384 114.054 108.215 114.403 107.941 114.659C107.666 114.915 107.307 115.06 106.932 115.067Z" fill="#9468B4"/>
<path opacity="0.8" d="M102.728 120.51H89.6022C89.4238 120.512 89.2469 120.477 89.0829 120.407C88.9189 120.337 88.7714 120.233 88.6499 120.103C88.5284 119.972 88.4356 119.817 88.3776 119.649C88.3195 119.48 88.2974 119.301 88.3127 119.123C88.3443 118.749 88.5136 118.4 88.7878 118.144C89.062 117.888 89.4216 117.743 89.7968 117.736H102.953C103.132 117.734 103.308 117.769 103.472 117.839C103.636 117.909 103.783 118.013 103.904 118.144C104.025 118.275 104.117 118.43 104.174 118.598C104.232 118.767 104.253 118.946 104.237 119.123C104.205 119.501 104.032 119.854 103.753 120.111C103.473 120.367 103.108 120.51 102.728 120.51Z" fill="white"/>
<path opacity="0.4" d="M105.855 130.084H85.1255C84.9473 130.086 84.7709 130.05 84.6073 129.98C84.4437 129.909 84.2966 129.805 84.1753 129.675C84.054 129.544 83.9612 129.39 83.9028 129.222C83.8444 129.054 83.8216 128.875 83.836 128.697C83.869 128.323 84.0396 127.974 84.3148 127.718C84.59 127.462 84.9503 127.317 85.3262 127.311H106.056C106.233 127.309 106.41 127.345 106.573 127.415C106.736 127.486 106.883 127.59 107.004 127.72C107.125 127.851 107.217 128.005 107.275 128.173C107.332 128.342 107.354 128.52 107.339 128.697C107.307 129.071 107.138 129.42 106.864 129.677C106.59 129.933 106.23 130.078 105.855 130.084Z" fill="#9468B4"/>
<path opacity="0.8" d="M101.676 135.522H88.5257C88.3476 135.525 88.1708 135.491 88.0068 135.421C87.8428 135.352 87.6952 135.248 87.5736 135.118C87.452 134.988 87.3592 134.834 87.301 134.665C87.2429 134.497 87.2208 134.318 87.2362 134.141C87.2681 133.764 87.44 133.412 87.7181 133.156C87.9961 132.899 88.3602 132.756 88.7386 132.754H101.877C102.055 132.752 102.232 132.787 102.396 132.857C102.56 132.927 102.708 133.031 102.829 133.161C102.951 133.292 103.043 133.447 103.102 133.615C103.16 133.784 103.182 133.963 103.166 134.141C103.133 134.515 102.962 134.863 102.687 135.118C102.412 135.373 102.052 135.517 101.676 135.522Z" fill="white"/>
<path opacity="0.4" d="M104.778 145.102H84.0489C83.8708 145.103 83.6944 145.068 83.5308 144.997C83.3672 144.927 83.2201 144.823 83.0988 144.692C82.9775 144.562 82.8847 144.408 82.8262 144.239C82.7678 144.071 82.7451 143.893 82.7594 143.715C82.7911 143.34 82.9613 142.99 83.2368 142.734C83.5123 142.478 83.8734 142.333 84.2497 142.328H104.979C105.157 142.326 105.334 142.361 105.498 142.431C105.661 142.501 105.808 142.605 105.93 142.736C106.051 142.867 106.143 143.021 106.2 143.19C106.257 143.359 106.279 143.538 106.262 143.715C106.231 144.089 106.062 144.438 105.787 144.694C105.513 144.95 105.154 145.096 104.778 145.102Z" fill="#9468B4"/>
<path opacity="0.8" d="M100.6 150.54H87.4491C87.2707 150.543 87.0938 150.508 86.9298 150.437C86.7658 150.367 86.6183 150.264 86.4968 150.133C86.3753 150.002 86.2826 149.848 86.2245 149.679C86.1664 149.51 86.1443 149.331 86.1596 149.153C86.1925 148.78 86.3623 148.432 86.6362 148.176C86.9101 147.92 87.2689 147.774 87.6438 147.767H100.8C100.978 147.765 101.155 147.801 101.319 147.871C101.482 147.942 101.629 148.046 101.751 148.176C101.872 148.307 101.965 148.461 102.023 148.629C102.081 148.797 102.104 148.976 102.09 149.153C102.058 149.528 101.888 149.878 101.612 150.135C101.337 150.391 100.976 150.536 100.6 150.54Z" fill="white"/>
<path opacity="0.5" d="M222.36 128.235C223.261 126.861 225.323 127.438 225.207 129.026L223.212 156.86C223.109 158.289 222.026 159.457 220.779 159.457H120.532C119.316 159.457 118.391 158.289 118.494 156.86L119.711 140.321C119.752 139.795 119.908 139.285 120.168 138.826C120.429 138.368 120.788 137.972 121.219 137.669C121.65 137.365 122.143 137.16 122.663 137.068C123.182 136.977 123.715 137.001 124.224 137.14C129.875 138.898 134.717 137.864 139.218 135.632C148.84 130.857 156.894 120.602 167.958 120.602C168.384 120.602 168.803 120.602 169.211 120.638C185.67 121.63 190.682 142.079 203.431 142.079C207.203 142.079 210.639 140.449 213.638 138.132C217.275 135.291 220.274 131.416 222.36 128.235Z" fill="#9468B4"/>
<path opacity="0.5" d="M224.441 139.7L223.224 156.859C223.121 158.289 222.038 159.457 220.791 159.457H120.532C119.316 159.457 118.391 158.289 118.494 156.859L120.927 122.76C121.092 120.425 124.151 119.439 125.392 121.331C128.592 126.197 133.512 132.517 139.175 135.631C141.233 136.832 143.563 137.492 145.945 137.547C154.047 137.547 160.939 127.943 169.168 120.638C174.211 116.161 179.758 112.548 186.394 112.548C200.244 112.548 202.288 135.053 213.595 138.131C215.773 138.739 218.297 138.599 221.314 137.444C221.671 137.29 222.062 137.231 222.448 137.273C222.834 137.315 223.203 137.457 223.518 137.684C223.834 137.912 224.084 138.217 224.246 138.57C224.408 138.924 224.475 139.313 224.441 139.7Z" fill="#9468B4"/>
<g opacity="0.8">
<path opacity="0.8" d="M224.933 133.046C224.879 133.044 224.827 133.022 224.787 132.985C224.768 132.967 224.753 132.944 224.745 132.918C224.739 132.892 224.739 132.865 224.745 132.839C224.745 132.812 224.75 132.785 224.76 132.76C224.771 132.735 224.786 132.712 224.806 132.693C224.845 132.655 224.897 132.633 224.952 132.633C225.006 132.633 225.059 132.655 225.098 132.693C225.118 132.712 225.134 132.734 225.144 132.759C225.155 132.785 225.16 132.812 225.159 132.839C225.161 132.865 225.161 132.892 225.159 132.918C225.146 132.943 225.129 132.965 225.11 132.985C225.087 133.008 225.059 133.025 225.029 133.036C224.998 133.046 224.966 133.05 224.933 133.046Z" fill="white"/>
<path opacity="0.8" d="M127.448 147.297C127.393 147.297 127.341 147.276 127.302 147.237C127.263 147.198 127.241 147.145 127.241 147.091C127.243 147.037 127.265 146.986 127.304 146.948C127.343 146.911 127.394 146.89 127.448 146.89C127.503 146.89 127.555 146.912 127.594 146.95C127.633 146.989 127.655 147.042 127.655 147.097C127.655 147.152 127.633 147.205 127.595 147.245C127.556 147.285 127.503 147.308 127.448 147.31V147.297ZM125.362 147.182C125.334 147.18 125.307 147.173 125.283 147.161C125.258 147.149 125.236 147.131 125.219 147.11C125.201 147.089 125.188 147.065 125.18 147.038C125.172 147.012 125.17 146.984 125.173 146.957C125.176 146.93 125.185 146.903 125.198 146.879C125.211 146.855 125.229 146.834 125.251 146.817C125.272 146.8 125.297 146.788 125.323 146.78C125.35 146.773 125.377 146.771 125.404 146.774C125.458 146.78 125.507 146.807 125.542 146.85C125.576 146.892 125.592 146.945 125.587 146.999C125.581 147.051 125.557 147.098 125.519 147.132C125.481 147.167 125.431 147.187 125.38 147.188L125.362 147.182ZM129.297 146.999C129.294 146.972 129.296 146.945 129.303 146.918C129.311 146.892 129.323 146.867 129.34 146.846C129.357 146.824 129.378 146.806 129.402 146.793C129.426 146.78 129.452 146.771 129.48 146.768C129.507 146.765 129.534 146.767 129.561 146.774C129.587 146.782 129.612 146.794 129.633 146.811C129.655 146.828 129.673 146.849 129.686 146.873C129.699 146.897 129.708 146.924 129.711 146.951C129.714 146.978 129.712 147.006 129.705 147.032C129.697 147.058 129.685 147.083 129.668 147.104C129.651 147.126 129.63 147.144 129.606 147.157C129.582 147.17 129.556 147.179 129.528 147.182C129.501 147.185 129.474 147.183 129.447 147.176C129.421 147.168 129.396 147.156 129.375 147.139C129.353 147.122 129.335 147.101 129.322 147.077C129.309 147.053 129.3 147.027 129.297 146.999ZM123.306 146.866C123.252 146.852 123.205 146.82 123.175 146.773C123.144 146.727 123.132 146.671 123.142 146.616C123.155 146.562 123.188 146.515 123.234 146.485C123.28 146.454 123.336 146.443 123.391 146.452C123.445 146.465 123.492 146.498 123.522 146.544C123.553 146.591 123.564 146.647 123.555 146.701C123.544 146.748 123.518 146.79 123.48 146.819C123.443 146.849 123.396 146.865 123.348 146.866H123.306ZM131.329 146.659C131.321 146.632 131.32 146.604 131.323 146.577C131.327 146.549 131.336 146.523 131.351 146.499C131.365 146.475 131.384 146.454 131.406 146.438C131.428 146.421 131.454 146.41 131.481 146.403C131.534 146.392 131.589 146.402 131.636 146.43C131.682 146.458 131.716 146.503 131.73 146.555C131.743 146.609 131.735 146.666 131.706 146.714C131.678 146.762 131.632 146.797 131.578 146.811H131.529C131.482 146.815 131.434 146.802 131.395 146.774C131.356 146.746 131.328 146.705 131.317 146.659H131.329ZM197.854 146.744C197.799 146.744 197.746 146.722 197.708 146.683C197.669 146.645 197.647 146.592 197.647 146.537C197.647 146.482 197.669 146.43 197.708 146.391C197.746 146.352 197.799 146.33 197.854 146.33C197.909 146.33 197.961 146.352 198 146.391C198.039 146.43 198.061 146.482 198.061 146.537C198.061 146.592 198.039 146.645 198 146.683C197.961 146.722 197.909 146.744 197.854 146.744ZM199.709 146.452C199.706 146.425 199.708 146.398 199.715 146.372C199.723 146.346 199.735 146.322 199.752 146.301C199.769 146.28 199.79 146.262 199.814 146.249C199.838 146.237 199.864 146.229 199.891 146.227C199.919 146.223 199.947 146.224 199.973 146.231C200 146.238 200.025 146.251 200.047 146.268C200.069 146.285 200.086 146.306 200.099 146.331C200.113 146.355 200.12 146.382 200.123 146.409C200.128 146.465 200.111 146.52 200.076 146.564C200.04 146.607 199.989 146.634 199.934 146.641C199.879 146.644 199.826 146.626 199.784 146.591C199.742 146.556 199.715 146.506 199.709 146.452ZM195.774 146.616C195.746 146.613 195.72 146.605 195.697 146.591C195.673 146.578 195.652 146.56 195.636 146.538C195.619 146.517 195.607 146.492 195.601 146.466C195.594 146.439 195.593 146.412 195.597 146.385C195.6 146.358 195.609 146.331 195.622 146.307C195.635 146.284 195.653 146.262 195.675 146.245C195.696 146.228 195.721 146.216 195.747 146.209C195.773 146.201 195.801 146.199 195.828 146.203C195.883 146.21 195.932 146.238 195.966 146.282C196 146.325 196.016 146.379 196.011 146.434C196.005 146.485 195.981 146.532 195.943 146.567C195.905 146.601 195.855 146.621 195.804 146.622L195.774 146.616ZM121.286 146.367C121.26 146.36 121.235 146.348 121.213 146.331C121.192 146.314 121.174 146.293 121.16 146.27C121.146 146.246 121.138 146.22 121.134 146.192C121.131 146.165 121.133 146.138 121.14 146.111C121.157 146.058 121.194 146.014 121.242 145.987C121.291 145.96 121.348 145.952 121.402 145.965C121.455 145.982 121.499 146.019 121.525 146.068C121.551 146.117 121.557 146.174 121.542 146.227C121.53 146.27 121.503 146.308 121.467 146.335C121.43 146.361 121.386 146.375 121.341 146.373H121.286V146.367ZM201.753 146.166C201.746 146.139 201.746 146.111 201.751 146.084C201.756 146.057 201.767 146.032 201.782 146.009C201.797 145.986 201.817 145.967 201.84 145.952C201.864 145.937 201.89 145.927 201.917 145.923C201.944 145.917 201.971 145.918 201.998 145.923C202.025 145.928 202.05 145.939 202.073 145.954C202.095 145.97 202.115 145.989 202.13 146.012C202.145 146.035 202.155 146.06 202.16 146.087C202.166 146.114 202.165 146.141 202.16 146.168C202.155 146.195 202.144 146.22 202.129 146.243C202.113 146.265 202.094 146.285 202.071 146.3C202.048 146.315 202.023 146.325 201.996 146.33H201.959C201.912 146.33 201.865 146.314 201.828 146.284C201.79 146.254 201.764 146.213 201.753 146.166ZM193.73 146.239C193.703 146.234 193.677 146.224 193.654 146.208C193.631 146.193 193.612 146.172 193.597 146.149C193.583 146.125 193.574 146.099 193.57 146.071C193.567 146.044 193.57 146.016 193.578 145.99C193.591 145.936 193.624 145.891 193.671 145.862C193.718 145.834 193.774 145.825 193.827 145.838C193.88 145.851 193.926 145.884 193.955 145.931C193.983 145.978 193.992 146.034 193.979 146.087C193.968 146.132 193.943 146.172 193.906 146.201C193.87 146.229 193.825 146.245 193.778 146.245H193.73V146.239ZM133.299 146.069C133.289 146.043 133.284 146.016 133.284 145.988C133.284 145.961 133.291 145.934 133.302 145.908C133.313 145.883 133.33 145.861 133.35 145.842C133.371 145.824 133.395 145.81 133.421 145.801C133.472 145.781 133.529 145.782 133.579 145.804C133.629 145.825 133.668 145.866 133.689 145.917C133.698 145.942 133.703 145.969 133.702 145.997C133.701 146.024 133.695 146.051 133.684 146.076C133.672 146.101 133.656 146.123 133.636 146.142C133.616 146.16 133.593 146.175 133.567 146.184C133.543 146.19 133.518 146.19 133.494 146.184C133.454 146.185 133.415 146.175 133.38 146.155C133.346 146.134 133.318 146.104 133.299 146.069ZM203.766 145.71C203.758 145.683 203.755 145.655 203.758 145.627C203.761 145.599 203.769 145.572 203.783 145.548C203.797 145.523 203.815 145.502 203.837 145.485C203.859 145.468 203.885 145.455 203.912 145.448C203.938 145.441 203.966 145.439 203.993 145.442C204.02 145.446 204.046 145.454 204.07 145.468C204.094 145.482 204.115 145.5 204.131 145.521C204.148 145.543 204.16 145.568 204.167 145.594C204.175 145.621 204.177 145.648 204.174 145.675C204.17 145.703 204.161 145.729 204.148 145.753C204.134 145.776 204.116 145.797 204.094 145.814C204.073 145.831 204.048 145.843 204.021 145.85H203.967C203.923 145.851 203.88 145.838 203.843 145.813C203.807 145.788 203.78 145.752 203.766 145.71ZM191.735 145.637C191.683 145.619 191.641 145.581 191.617 145.532C191.593 145.483 191.589 145.427 191.607 145.375C191.626 145.323 191.665 145.281 191.715 145.257C191.765 145.233 191.822 145.23 191.875 145.248C191.926 145.267 191.969 145.306 191.993 145.356C192.017 145.405 192.02 145.463 192.002 145.515C191.986 145.555 191.959 145.589 191.923 145.613C191.887 145.637 191.845 145.65 191.802 145.649C191.779 145.651 191.755 145.647 191.735 145.637ZM135.167 145.248C135.154 145.223 135.147 145.197 135.144 145.169C135.142 145.142 135.146 145.115 135.154 145.089C135.162 145.063 135.176 145.039 135.194 145.018C135.212 144.997 135.234 144.98 135.258 144.968C135.308 144.945 135.365 144.942 135.418 144.96C135.47 144.978 135.513 145.016 135.538 145.065C135.55 145.089 135.558 145.115 135.56 145.142C135.562 145.169 135.559 145.196 135.55 145.221C135.542 145.247 135.528 145.27 135.51 145.291C135.493 145.311 135.471 145.327 135.447 145.339C135.415 145.348 135.381 145.348 135.349 145.339C135.318 145.337 135.287 145.327 135.26 145.312C135.232 145.296 135.209 145.274 135.191 145.248H135.167ZM205.725 145.102C205.715 145.077 205.71 145.05 205.711 145.023C205.712 144.996 205.719 144.969 205.73 144.945C205.741 144.921 205.757 144.899 205.777 144.881C205.797 144.863 205.821 144.849 205.846 144.84C205.898 144.824 205.954 144.829 206.002 144.852C206.051 144.876 206.089 144.917 206.108 144.968C206.125 145.02 206.122 145.078 206.098 145.128C206.074 145.177 206.032 145.216 205.98 145.235H205.913C205.875 145.231 205.839 145.216 205.809 145.193C205.779 145.169 205.756 145.137 205.743 145.102H205.725ZM189.794 144.846C189.77 144.835 189.747 144.819 189.729 144.799C189.71 144.779 189.696 144.756 189.686 144.731C189.676 144.705 189.672 144.678 189.673 144.651C189.674 144.624 189.68 144.597 189.691 144.572C189.715 144.523 189.756 144.486 189.807 144.466C189.858 144.447 189.914 144.448 189.965 144.469C189.99 144.48 190.013 144.496 190.032 144.517C190.051 144.537 190.066 144.561 190.076 144.587C190.086 144.613 190.09 144.641 190.089 144.669C190.087 144.697 190.08 144.724 190.068 144.749C190.051 144.785 190.024 144.815 189.991 144.837C189.958 144.858 189.919 144.87 189.88 144.87C189.855 144.868 189.832 144.86 189.813 144.846H189.794ZM207.653 144.372C207.642 144.347 207.636 144.32 207.637 144.292C207.637 144.265 207.642 144.238 207.653 144.213C207.664 144.188 207.68 144.165 207.699 144.147C207.719 144.128 207.743 144.113 207.768 144.104C207.793 144.092 207.82 144.086 207.847 144.085C207.874 144.084 207.901 144.089 207.927 144.099C207.952 144.11 207.975 144.125 207.993 144.145C208.012 144.164 208.027 144.188 208.036 144.214C208.047 144.239 208.053 144.266 208.053 144.293C208.054 144.321 208.049 144.348 208.039 144.373C208.028 144.399 208.013 144.422 207.994 144.442C207.975 144.461 207.952 144.477 207.926 144.487C207.9 144.493 207.873 144.493 207.847 144.487C207.811 144.485 207.775 144.473 207.744 144.453C207.713 144.433 207.688 144.405 207.671 144.372H207.653ZM136.973 144.25C136.944 144.202 136.934 144.145 136.947 144.09C136.959 144.036 136.993 143.988 137.04 143.958C137.063 143.944 137.089 143.934 137.116 143.929C137.143 143.925 137.171 143.926 137.197 143.932C137.224 143.938 137.249 143.95 137.271 143.966C137.293 143.982 137.312 144.002 137.326 144.025C137.341 144.048 137.35 144.074 137.355 144.101C137.359 144.128 137.358 144.155 137.352 144.182C137.346 144.208 137.335 144.234 137.319 144.256C137.303 144.278 137.282 144.297 137.259 144.311C137.228 144.335 137.189 144.347 137.15 144.347C137.118 144.344 137.087 144.333 137.06 144.316C137.033 144.3 137.009 144.277 136.992 144.25H136.973ZM187.939 143.916C187.89 143.889 187.854 143.843 187.838 143.79C187.822 143.737 187.828 143.679 187.854 143.63C187.882 143.582 187.928 143.547 187.981 143.532C188.034 143.517 188.091 143.524 188.14 143.551C188.187 143.577 188.222 143.622 188.237 143.674C188.252 143.727 188.245 143.783 188.219 143.83C188.201 143.863 188.174 143.89 188.142 143.91C188.11 143.929 188.074 143.939 188.036 143.94C188.009 143.936 187.982 143.927 187.957 143.916H187.939ZM209.544 143.538C209.521 143.489 209.519 143.433 209.537 143.382C209.555 143.33 209.593 143.288 209.642 143.265C209.692 143.241 209.749 143.239 209.801 143.257C209.854 143.275 209.897 143.313 209.922 143.362C209.933 143.387 209.939 143.413 209.94 143.441C209.941 143.468 209.936 143.495 209.927 143.52C209.917 143.546 209.902 143.569 209.884 143.589C209.865 143.609 209.843 143.625 209.818 143.636H209.727C209.694 143.634 209.661 143.624 209.633 143.607C209.604 143.59 209.58 143.567 209.563 143.538H209.544ZM138.689 143.107C138.657 143.061 138.645 143.005 138.654 142.951C138.663 142.896 138.693 142.847 138.737 142.815C138.782 142.783 138.837 142.769 138.892 142.777C138.946 142.785 138.996 142.814 139.029 142.857C139.061 142.903 139.073 142.959 139.064 143.013C139.055 143.067 139.025 143.116 138.981 143.149C138.945 143.175 138.903 143.19 138.859 143.192C138.829 143.189 138.8 143.18 138.774 143.165C138.748 143.151 138.725 143.131 138.707 143.107H138.689ZM186.133 142.875C186.11 142.862 186.09 142.843 186.074 142.822C186.058 142.8 186.046 142.776 186.04 142.75C186.034 142.724 186.033 142.696 186.037 142.67C186.042 142.644 186.051 142.618 186.066 142.596C186.078 142.571 186.096 142.55 186.117 142.533C186.138 142.516 186.163 142.504 186.189 142.497C186.216 142.49 186.243 142.489 186.27 142.493C186.297 142.498 186.323 142.508 186.346 142.523C186.369 142.536 186.39 142.555 186.407 142.577C186.423 142.599 186.435 142.624 186.442 142.65C186.449 142.677 186.45 142.705 186.446 142.732C186.442 142.759 186.433 142.785 186.419 142.809C186.4 142.839 186.374 142.865 186.344 142.883C186.313 142.901 186.278 142.911 186.242 142.912C186.214 142.905 186.187 142.893 186.163 142.875H186.133ZM211.381 142.614C211.356 142.565 211.35 142.509 211.366 142.456C211.382 142.404 211.418 142.36 211.467 142.334C211.515 142.31 211.571 142.305 211.623 142.321C211.675 142.337 211.719 142.372 211.746 142.419C211.772 142.469 211.778 142.526 211.762 142.58C211.746 142.633 211.71 142.678 211.661 142.705C211.629 142.711 211.596 142.711 211.564 142.705C211.533 142.702 211.504 142.692 211.478 142.677C211.451 142.661 211.429 142.639 211.412 142.614H211.381ZM140.331 141.86C140.314 141.839 140.301 141.814 140.293 141.788C140.285 141.762 140.283 141.734 140.285 141.707C140.288 141.68 140.296 141.654 140.309 141.63C140.322 141.606 140.34 141.585 140.361 141.568C140.405 141.534 140.459 141.519 140.513 141.525C140.568 141.53 140.618 141.556 140.653 141.598C140.691 141.639 140.712 141.692 140.712 141.747C140.712 141.802 140.691 141.856 140.653 141.896C140.615 141.925 140.568 141.94 140.519 141.939C140.489 141.94 140.458 141.933 140.43 141.92C140.403 141.906 140.379 141.885 140.361 141.86H140.331ZM184.381 141.768C184.335 141.739 184.303 141.692 184.291 141.638C184.28 141.584 184.29 141.528 184.32 141.482C184.351 141.436 184.399 141.404 184.454 141.392C184.508 141.381 184.565 141.392 184.612 141.422C184.657 141.453 184.688 141.499 184.699 141.553C184.711 141.606 184.701 141.661 184.673 141.708C184.654 141.737 184.628 141.762 184.597 141.779C184.566 141.796 184.532 141.805 184.496 141.805C184.466 141.798 184.437 141.786 184.411 141.768H184.381ZM213.188 141.616C213.174 141.593 213.164 141.567 213.16 141.54C213.156 141.512 213.158 141.485 213.164 141.458C213.171 141.431 213.183 141.406 213.2 141.385C213.216 141.363 213.237 141.344 213.261 141.33C213.309 141.303 213.365 141.296 213.419 141.309C213.472 141.323 213.518 141.357 213.547 141.403C213.574 141.451 213.581 141.508 213.568 141.561C213.554 141.614 213.521 141.66 213.474 141.689C213.44 141.708 213.403 141.718 213.364 141.72C213.334 141.715 213.305 141.703 213.28 141.685C213.254 141.667 213.233 141.643 213.218 141.616H213.188ZM182.66 140.619C182.614 140.587 182.583 140.538 182.573 140.484C182.563 140.429 182.574 140.373 182.605 140.327C182.638 140.283 182.686 140.253 182.74 140.242C182.794 140.232 182.85 140.243 182.897 140.272C182.941 140.305 182.971 140.353 182.981 140.407C182.991 140.461 182.981 140.517 182.951 140.564C182.932 140.592 182.905 140.616 182.875 140.631C182.844 140.647 182.81 140.656 182.775 140.655C182.744 140.65 182.715 140.637 182.69 140.619H182.66ZM214.952 140.546C214.924 140.498 214.915 140.441 214.928 140.387C214.94 140.332 214.973 140.285 215.019 140.254C215.042 140.239 215.068 140.23 215.095 140.225C215.122 140.221 215.149 140.222 215.176 140.228C215.202 140.234 215.227 140.245 215.249 140.261C215.272 140.277 215.29 140.297 215.305 140.321C215.319 140.344 215.329 140.37 215.333 140.397C215.338 140.423 215.337 140.451 215.331 140.478C215.324 140.504 215.313 140.529 215.297 140.551C215.281 140.574 215.261 140.592 215.238 140.607C215.207 140.631 215.168 140.644 215.128 140.643C215.099 140.638 215.07 140.626 215.045 140.61C215.02 140.593 214.999 140.571 214.982 140.546H214.952ZM141.961 140.546C141.924 140.506 141.903 140.454 141.903 140.4C141.903 140.346 141.924 140.293 141.961 140.254C142.002 140.216 142.055 140.195 142.11 140.195C142.165 140.195 142.219 140.216 142.259 140.254C142.298 140.293 142.319 140.345 142.319 140.4C142.319 140.455 142.298 140.507 142.259 140.546C142.241 140.562 142.22 140.575 142.197 140.584C142.174 140.592 142.15 140.596 142.125 140.594C142.097 140.6 142.068 140.599 142.039 140.593C142.011 140.587 141.985 140.575 141.961 140.558V140.546ZM216.716 139.402C216.684 139.357 216.672 139.301 216.681 139.246C216.69 139.192 216.72 139.143 216.764 139.11C216.787 139.094 216.813 139.083 216.84 139.077C216.867 139.071 216.895 139.071 216.922 139.076C216.949 139.081 216.975 139.091 216.998 139.107C217.021 139.122 217.041 139.142 217.056 139.165C217.087 139.21 217.098 139.266 217.088 139.319C217.078 139.373 217.047 139.42 217.002 139.451C216.967 139.474 216.927 139.487 216.886 139.487C216.854 139.489 216.822 139.484 216.792 139.471C216.763 139.458 216.737 139.439 216.716 139.414V139.402ZM180.981 139.451C180.958 139.436 180.938 139.417 180.923 139.394C180.908 139.372 180.897 139.346 180.892 139.32C180.887 139.293 180.887 139.265 180.893 139.239C180.899 139.212 180.91 139.187 180.926 139.165C180.956 139.119 181.003 139.087 181.056 139.075C181.11 139.064 181.166 139.074 181.212 139.104C181.235 139.12 181.255 139.139 181.27 139.162C181.285 139.185 181.296 139.211 181.301 139.239C181.306 139.266 181.306 139.294 181.3 139.321C181.294 139.348 181.283 139.374 181.267 139.396C181.249 139.425 181.223 139.448 181.194 139.464C181.164 139.48 181.13 139.488 181.096 139.487C181.056 139.49 181.016 139.482 180.981 139.463V139.451ZM143.549 139.22C143.529 139.201 143.513 139.178 143.502 139.153C143.491 139.128 143.486 139.101 143.486 139.074C143.486 139.046 143.491 139.019 143.502 138.994C143.513 138.969 143.529 138.947 143.549 138.928C143.588 138.891 143.64 138.87 143.695 138.87C143.749 138.87 143.801 138.891 143.841 138.928C143.879 138.967 143.901 139.019 143.901 139.074C143.901 139.129 143.879 139.181 143.841 139.22C143.804 139.252 143.756 139.27 143.707 139.268C143.679 139.274 143.651 139.274 143.624 139.267C143.596 139.261 143.571 139.249 143.549 139.232V139.22ZM179.265 138.307C179.242 138.293 179.222 138.274 179.206 138.252C179.19 138.23 179.179 138.204 179.173 138.178C179.168 138.151 179.167 138.123 179.173 138.096C179.178 138.069 179.189 138.044 179.205 138.022C179.219 137.998 179.238 137.978 179.26 137.962C179.282 137.946 179.308 137.935 179.334 137.929C179.361 137.924 179.389 137.924 179.416 137.929C179.443 137.934 179.468 137.945 179.49 137.961C179.536 137.991 179.569 138.037 179.58 138.091C179.591 138.145 179.581 138.201 179.551 138.247C179.533 138.275 179.508 138.299 179.478 138.315C179.448 138.331 179.415 138.339 179.381 138.338C179.342 138.344 179.301 138.337 179.265 138.32V138.307ZM218.407 138.21C218.39 138.189 218.378 138.164 218.372 138.138C218.365 138.112 218.363 138.085 218.367 138.058C218.371 138.031 218.381 138.006 218.395 137.983C218.409 137.96 218.427 137.94 218.449 137.924C218.494 137.892 218.549 137.879 218.604 137.887C218.658 137.895 218.708 137.923 218.741 137.967C218.773 138.012 218.785 138.068 218.776 138.123C218.767 138.177 218.737 138.226 218.693 138.259C218.657 138.283 218.614 138.295 218.571 138.295C218.54 138.298 218.508 138.292 218.48 138.28C218.451 138.267 218.426 138.247 218.407 138.222V138.21ZM145.136 137.9C145.098 137.861 145.076 137.809 145.076 137.754C145.076 137.699 145.098 137.647 145.136 137.608C145.179 137.575 145.234 137.559 145.288 137.565C145.343 137.57 145.393 137.597 145.428 137.638C145.445 137.659 145.458 137.684 145.466 137.71C145.474 137.736 145.477 137.763 145.474 137.791C145.471 137.818 145.463 137.844 145.45 137.868C145.437 137.892 145.419 137.913 145.398 137.93C145.38 137.947 145.359 137.96 145.336 137.968C145.313 137.977 145.288 137.98 145.264 137.979C145.214 137.973 145.169 137.949 145.136 137.912V137.9ZM177.544 137.194C177.521 137.18 177.501 137.161 177.485 137.139C177.469 137.117 177.457 137.092 177.451 137.065C177.445 137.039 177.444 137.011 177.448 136.984C177.453 136.957 177.463 136.932 177.477 136.908C177.491 136.885 177.51 136.865 177.532 136.849C177.555 136.833 177.58 136.822 177.606 136.815C177.633 136.809 177.66 136.808 177.687 136.813C177.714 136.817 177.74 136.827 177.763 136.842C177.786 136.856 177.806 136.875 177.822 136.897C177.838 136.919 177.85 136.944 177.856 136.971C177.862 136.997 177.863 137.025 177.859 137.052C177.854 137.078 177.844 137.104 177.83 137.127C177.812 137.158 177.786 137.184 177.755 137.202C177.724 137.22 177.689 137.23 177.654 137.231C177.614 137.231 177.576 137.218 177.544 137.194ZM220.073 136.975C220.056 136.954 220.044 136.929 220.037 136.903C220.029 136.876 220.027 136.849 220.031 136.822C220.034 136.795 220.043 136.768 220.056 136.745C220.07 136.721 220.088 136.7 220.11 136.683C220.131 136.666 220.156 136.654 220.182 136.647C220.209 136.639 220.236 136.637 220.263 136.641C220.291 136.644 220.317 136.653 220.341 136.666C220.364 136.68 220.385 136.698 220.402 136.72C220.433 136.764 220.447 136.819 220.44 136.873C220.433 136.927 220.407 136.976 220.365 137.012C220.331 137.04 220.288 137.055 220.244 137.054C220.21 137.059 220.176 137.055 220.144 137.044C220.112 137.032 220.084 137.013 220.061 136.987L220.073 136.975ZM146.766 136.623C146.734 136.578 146.721 136.522 146.729 136.468C146.737 136.414 146.765 136.364 146.809 136.331C146.854 136.299 146.909 136.285 146.963 136.293C147.018 136.301 147.067 136.33 147.101 136.373C147.133 136.418 147.146 136.473 147.138 136.528C147.13 136.582 147.102 136.631 147.058 136.665C147.023 136.691 146.98 136.706 146.937 136.708C146.903 136.711 146.868 136.706 146.836 136.694C146.805 136.681 146.776 136.661 146.754 136.635L146.766 136.623ZM175.774 136.142C175.75 136.128 175.73 136.11 175.713 136.088C175.696 136.066 175.684 136.041 175.678 136.014C175.671 135.988 175.669 135.96 175.673 135.933C175.677 135.906 175.687 135.88 175.701 135.856C175.714 135.833 175.732 135.812 175.753 135.795C175.775 135.779 175.799 135.767 175.825 135.76C175.852 135.753 175.879 135.752 175.905 135.756C175.932 135.76 175.958 135.769 175.981 135.783C176.005 135.796 176.026 135.813 176.043 135.834C176.06 135.856 176.073 135.88 176.08 135.906C176.088 135.932 176.09 135.96 176.086 135.987C176.083 136.014 176.074 136.04 176.06 136.063C176.042 136.096 176.015 136.123 175.983 136.142C175.951 136.161 175.915 136.172 175.877 136.172C175.838 136.176 175.798 136.169 175.762 136.154L175.774 136.142ZM221.685 135.686C221.668 135.665 221.655 135.64 221.647 135.614C221.639 135.588 221.637 135.561 221.64 135.534C221.643 135.506 221.651 135.48 221.664 135.456C221.677 135.432 221.694 135.411 221.716 135.394C221.737 135.377 221.761 135.364 221.787 135.356C221.813 135.348 221.841 135.345 221.868 135.348C221.895 135.351 221.921 135.359 221.945 135.372C221.969 135.385 221.991 135.403 222.008 135.424C222.045 135.464 222.066 135.516 222.066 135.57C222.066 135.625 222.045 135.677 222.008 135.716C221.969 135.745 221.922 135.762 221.874 135.765C221.837 135.773 221.8 135.771 221.764 135.759C221.729 135.747 221.697 135.726 221.673 135.698L221.685 135.686ZM148.445 135.418C148.429 135.396 148.418 135.37 148.412 135.343C148.406 135.316 148.406 135.288 148.411 135.261C148.416 135.233 148.426 135.207 148.442 135.184C148.457 135.161 148.477 135.142 148.5 135.126C148.547 135.096 148.604 135.086 148.658 135.097C148.713 135.108 148.761 135.141 148.792 135.187C148.822 135.233 148.832 135.289 148.821 135.343C148.809 135.396 148.777 135.443 148.731 135.473C148.697 135.497 148.657 135.509 148.615 135.509C148.581 135.512 148.546 135.506 148.514 135.493C148.483 135.479 148.455 135.457 148.433 135.43L148.445 135.418ZM173.992 135.163C173.943 135.137 173.907 135.093 173.891 135.04C173.875 134.988 173.881 134.931 173.907 134.883C173.919 134.858 173.936 134.837 173.957 134.819C173.977 134.801 174.001 134.787 174.028 134.779C174.054 134.77 174.081 134.767 174.108 134.769C174.136 134.772 174.162 134.779 174.186 134.792C174.234 134.82 174.27 134.864 174.287 134.917C174.304 134.97 174.3 135.027 174.278 135.078C174.258 135.11 174.231 135.138 174.198 135.157C174.165 135.176 174.127 135.186 174.089 135.187C174.045 135.199 173.997 135.195 173.955 135.175L173.992 135.163ZM223.261 134.354C223.222 134.315 223.2 134.262 223.2 134.208C223.2 134.153 223.222 134.101 223.261 134.062C223.3 134.025 223.352 134.004 223.407 134.004C223.461 134.004 223.513 134.025 223.553 134.062C223.59 134.101 223.611 134.153 223.611 134.208C223.611 134.262 223.59 134.314 223.553 134.354C223.535 134.371 223.514 134.385 223.491 134.394C223.468 134.404 223.444 134.409 223.419 134.408C223.39 134.413 223.36 134.412 223.332 134.405C223.304 134.397 223.277 134.384 223.255 134.366L223.261 134.354ZM150.173 134.329C150.159 134.306 150.149 134.279 150.146 134.252C150.142 134.224 150.144 134.196 150.152 134.17C150.159 134.143 150.172 134.118 150.189 134.097C150.206 134.075 150.227 134.057 150.252 134.044C150.299 134.017 150.355 134.011 150.408 134.026C150.46 134.04 150.505 134.075 150.531 134.123C150.545 134.146 150.554 134.173 150.558 134.2C150.562 134.228 150.56 134.256 150.552 134.282C150.545 134.309 150.532 134.334 150.515 134.355C150.498 134.377 150.477 134.395 150.452 134.408C150.418 134.416 150.383 134.416 150.349 134.408C150.315 134.411 150.282 134.405 150.251 134.391C150.22 134.377 150.193 134.356 150.173 134.329ZM172.1 134.293C172.075 134.282 172.053 134.266 172.034 134.246C172.016 134.226 172.001 134.203 171.992 134.177C171.982 134.152 171.978 134.125 171.979 134.098C171.979 134.071 171.986 134.044 171.997 134.019C172.008 133.994 172.024 133.972 172.044 133.954C172.064 133.935 172.087 133.92 172.112 133.911C172.138 133.901 172.165 133.897 172.192 133.898C172.219 133.898 172.246 133.905 172.27 133.916C172.296 133.926 172.319 133.942 172.338 133.962C172.357 133.981 172.372 134.005 172.381 134.03C172.391 134.056 172.395 134.083 172.394 134.111C172.393 134.138 172.386 134.165 172.374 134.19C172.357 134.226 172.331 134.257 172.298 134.278C172.264 134.3 172.225 134.311 172.185 134.311C172.158 134.31 172.131 134.304 172.106 134.293H172.1ZM170.208 133.545C170.182 133.536 170.158 133.522 170.138 133.504C170.117 133.485 170.101 133.463 170.089 133.437C170.078 133.412 170.072 133.385 170.071 133.358C170.071 133.33 170.076 133.303 170.087 133.277C170.107 133.226 170.146 133.185 170.196 133.163C170.246 133.14 170.303 133.137 170.354 133.155C170.405 133.176 170.446 133.215 170.469 133.265C170.492 133.315 170.494 133.371 170.476 133.423C170.462 133.463 170.436 133.498 170.401 133.522C170.366 133.546 170.324 133.558 170.281 133.557C170.257 133.559 170.231 133.555 170.208 133.545ZM151.997 133.374C151.976 133.324 151.975 133.268 151.995 133.217C152.014 133.166 152.052 133.124 152.101 133.101C152.126 133.089 152.153 133.082 152.181 133.08C152.209 133.079 152.236 133.083 152.263 133.093C152.289 133.102 152.313 133.117 152.333 133.136C152.353 133.156 152.369 133.179 152.38 133.204C152.392 133.229 152.397 133.256 152.398 133.284C152.398 133.311 152.393 133.338 152.383 133.364C152.373 133.389 152.358 133.413 152.338 133.432C152.319 133.452 152.296 133.467 152.271 133.478C152.243 133.484 152.214 133.484 152.186 133.478C152.148 133.48 152.11 133.471 152.077 133.453C152.044 133.434 152.016 133.407 151.997 133.374ZM168.256 132.882C168.203 132.865 168.159 132.828 168.133 132.779C168.107 132.731 168.101 132.673 168.116 132.62C168.133 132.567 168.17 132.523 168.218 132.497C168.267 132.471 168.324 132.465 168.378 132.48C168.43 132.497 168.475 132.534 168.501 132.583C168.527 132.632 168.533 132.689 168.518 132.742C168.504 132.784 168.477 132.821 168.441 132.847C168.405 132.873 168.361 132.888 168.317 132.888H168.256V132.882ZM153.907 132.596C153.899 132.57 153.895 132.543 153.898 132.515C153.9 132.488 153.907 132.462 153.92 132.437C153.932 132.413 153.949 132.391 153.97 132.374C153.991 132.356 154.015 132.343 154.041 132.334C154.067 132.326 154.094 132.323 154.122 132.325C154.149 132.327 154.175 132.334 154.2 132.347C154.224 132.359 154.246 132.376 154.263 132.397C154.281 132.418 154.294 132.442 154.303 132.468C154.311 132.494 154.314 132.521 154.312 132.549C154.31 132.576 154.303 132.602 154.29 132.627C154.278 132.651 154.261 132.673 154.24 132.69C154.219 132.708 154.195 132.721 154.169 132.73H154.102C154.061 132.729 154.021 132.715 153.987 132.692C153.954 132.668 153.928 132.634 153.913 132.596H153.907ZM166.273 132.377C166.22 132.365 166.174 132.333 166.144 132.288C166.115 132.242 166.104 132.187 166.115 132.134C166.12 132.106 166.13 132.08 166.146 132.057C166.161 132.034 166.182 132.015 166.205 132C166.228 131.985 166.255 131.975 166.282 131.971C166.31 131.967 166.338 131.968 166.364 131.975C166.391 131.98 166.416 131.991 166.439 132.006C166.461 132.021 166.481 132.041 166.495 132.063C166.51 132.086 166.52 132.112 166.525 132.138C166.529 132.165 166.529 132.192 166.522 132.219C166.513 132.266 166.486 132.308 166.449 132.338C166.411 132.368 166.364 132.384 166.316 132.383H166.273V132.377ZM155.884 132.03C155.878 132.003 155.877 131.975 155.882 131.947C155.887 131.92 155.898 131.894 155.913 131.87C155.928 131.847 155.948 131.827 155.971 131.812C155.995 131.796 156.021 131.786 156.048 131.781C156.101 131.77 156.157 131.78 156.202 131.81C156.248 131.84 156.28 131.886 156.292 131.939C156.298 131.966 156.299 131.993 156.294 132.021C156.29 132.048 156.28 132.074 156.265 132.097C156.25 132.12 156.231 132.14 156.208 132.156C156.186 132.172 156.16 132.183 156.133 132.188H156.091C156.045 132.187 156 132.171 155.964 132.143C155.928 132.114 155.902 132.075 155.89 132.03H155.884ZM164.26 132.03C164.205 132.021 164.157 131.991 164.124 131.947C164.091 131.903 164.076 131.848 164.083 131.793C164.086 131.766 164.095 131.74 164.108 131.716C164.121 131.692 164.139 131.672 164.161 131.655C164.183 131.639 164.207 131.627 164.234 131.62C164.26 131.614 164.288 131.612 164.314 131.617C164.369 131.626 164.418 131.655 164.451 131.7C164.483 131.744 164.498 131.799 164.491 131.854C164.482 131.903 164.457 131.947 164.419 131.979C164.382 132.012 164.334 132.03 164.284 132.03H164.254H164.26ZM157.916 131.683C157.911 131.63 157.927 131.576 157.961 131.534C157.995 131.492 158.044 131.465 158.098 131.458C158.125 131.454 158.153 131.456 158.18 131.463C158.207 131.47 158.232 131.482 158.254 131.499C158.275 131.516 158.293 131.538 158.306 131.562C158.319 131.587 158.327 131.613 158.329 131.641C158.334 131.696 158.317 131.752 158.282 131.795C158.247 131.838 158.196 131.866 158.141 131.872C158.086 131.874 158.033 131.855 157.992 131.818C157.952 131.782 157.926 131.732 157.922 131.677L157.916 131.683ZM162.222 131.817C162.195 131.817 162.168 131.81 162.143 131.799C162.118 131.787 162.096 131.771 162.077 131.75C162.059 131.729 162.045 131.705 162.037 131.679C162.028 131.653 162.025 131.626 162.027 131.598C162.029 131.571 162.036 131.545 162.048 131.52C162.06 131.496 162.076 131.474 162.097 131.456C162.117 131.437 162.141 131.424 162.166 131.415C162.192 131.406 162.219 131.402 162.246 131.404C162.302 131.408 162.353 131.435 162.39 131.477C162.426 131.519 162.444 131.573 162.441 131.629C162.438 131.681 162.415 131.731 162.376 131.767C162.338 131.803 162.287 131.823 162.234 131.823L162.222 131.817ZM159.972 131.55C159.971 131.522 159.975 131.495 159.986 131.47C159.996 131.444 160.011 131.421 160.03 131.402C160.05 131.382 160.073 131.367 160.098 131.357C160.124 131.347 160.151 131.342 160.178 131.343C160.233 131.343 160.286 131.365 160.325 131.403C160.363 131.442 160.385 131.495 160.385 131.55C160.385 131.605 160.363 131.657 160.325 131.696C160.286 131.735 160.233 131.756 160.178 131.756C160.151 131.756 160.124 131.75 160.1 131.738C160.075 131.727 160.052 131.711 160.034 131.692C160.015 131.672 160.001 131.649 159.991 131.623C159.981 131.598 159.977 131.571 159.978 131.544L159.972 131.55Z" fill="white"/>
<path opacity="0.8" d="M119.304 145.71C119.278 145.715 119.251 145.715 119.224 145.71C119.199 145.699 119.176 145.683 119.158 145.661C119.137 145.644 119.122 145.621 119.115 145.594C119.109 145.568 119.109 145.541 119.115 145.515C119.117 145.461 119.139 145.409 119.176 145.369C119.194 145.35 119.217 145.335 119.243 145.327C119.267 145.315 119.294 145.309 119.322 145.309C119.349 145.309 119.376 145.315 119.401 145.327C119.427 145.333 119.451 145.348 119.468 145.369C119.487 145.388 119.503 145.411 119.513 145.436C119.524 145.461 119.529 145.488 119.529 145.515C119.535 145.541 119.535 145.568 119.529 145.594C119.52 145.621 119.503 145.644 119.48 145.661C119.462 145.683 119.439 145.699 119.413 145.71C119.378 145.722 119.339 145.722 119.304 145.71Z" fill="white"/>
</g>
<path d="M152.654 83.4312L151.237 81.8984C148.677 84.3193 145.295 85.68 141.772 85.7061C138.977 85.7501 136.255 84.8088 134.084 83.0471C131.913 81.2855 130.432 78.8159 129.899 76.0713L127.77 76.6309L125.824 77.1418C126.377 80.0153 127.723 82.6765 129.711 84.8241C135.885 91.4784 146.827 91.4784 153.956 84.8241L152.654 83.4312Z" fill="white"/>
<path d="M155.689 60.585L153.822 62.3185L152.539 63.535C153.672 64.7645 154.537 66.2154 155.082 67.7961C155.626 69.3769 155.837 71.0533 155.702 72.7197C155.425 76.2366 153.831 79.5193 151.237 81.9104L152.35 83.127L153.956 84.8544C157.377 81.6955 159.48 77.3618 159.844 72.7197C160.025 70.5199 159.75 68.3064 159.035 66.2181C158.32 64.1298 157.181 62.212 155.689 60.585Z" fill="#263238"/>
<path d="M155.689 60.5848C149.516 53.9366 138.573 53.9366 131.45 60.5848C129.196 62.6483 127.5 65.2481 126.519 68.1427C125.539 71.0374 125.306 74.1328 125.842 77.1416L128.275 76.5333L129.942 76.0954C129.729 74.9876 129.664 73.8566 129.747 72.7317C130.043 69.2231 131.632 65.9497 134.206 63.5474C136.78 61.1452 140.156 59.7857 143.676 59.7333C145.345 59.715 147 60.0441 148.535 60.6996C150.07 61.3551 151.452 62.3227 152.593 63.5409L154.236 62.0021L155.689 60.5848Z" fill="#9468B4"/>
<path d="M173.165 83.4314L174.801 81.8986C173.671 80.6688 172.809 79.2183 172.267 77.6386C171.726 76.0589 171.518 74.3842 171.656 72.7201C171.906 69.7966 173.051 67.0214 174.937 64.7734C176.822 62.5253 179.356 60.9141 182.191 60.1596L181.777 58.0672L181.406 56.1572C178.413 56.955 175.663 58.4804 173.402 60.5975C166.273 67.2457 165.494 78.1883 171.662 84.8426L173.165 83.4314Z" fill="white"/>
<path d="M195.907 84.8302L194.295 83.0905L193.188 81.874C190.63 84.2977 187.248 85.6607 183.724 85.6878C182.054 85.7062 180.398 85.3771 178.862 84.7217C177.326 84.0662 175.943 83.0985 174.801 81.8801L173.517 83.0966L171.662 84.8302C173.171 86.4325 174.995 87.7054 177.019 88.569C179.044 89.4326 181.225 89.8681 183.426 89.8483C188.07 89.8085 192.528 88.0163 195.907 84.8302Z" fill="#263238"/>
<path d="M195.907 84.8302C203.03 78.1758 203.815 67.2333 197.647 60.5851C195.598 58.441 193.003 56.895 190.142 56.1128C187.282 55.3306 184.262 55.3416 181.406 56.1448L181.869 58.5109L182.191 60.1471C183.299 59.8565 184.44 59.7093 185.585 59.7092C187.258 59.6845 188.918 60.0117 190.456 60.6697C191.994 61.3276 193.377 62.3014 194.515 63.5282C195.653 64.7549 196.52 66.2071 197.061 67.7905C197.602 69.374 197.803 71.0533 197.653 72.7198C197.375 76.2345 195.781 79.5148 193.188 81.9044L194.612 83.4433L195.907 84.8302Z" fill="#9468B4"/>
<path opacity="0.3" d="M224.635 57.0942C224.802 57.0938 224.968 57.1278 225.121 57.1942C225.275 57.2606 225.413 57.3579 225.527 57.48C225.641 57.6022 225.729 57.7466 225.785 57.9041C225.841 58.0617 225.863 58.2291 225.852 58.3958L225.097 68.8883C225.062 69.2591 224.892 69.6042 224.62 69.8585C224.348 70.1128 223.992 70.2588 223.619 70.269H213.121C212.953 70.2695 212.787 70.2353 212.633 70.1685C212.479 70.1018 212.341 70.0039 212.227 69.8811C212.113 69.7583 212.025 69.6132 211.969 69.4549C211.914 69.2966 211.892 69.1285 211.904 68.9613L212.653 58.4688C212.688 58.0986 212.858 57.7542 213.131 57.5009C213.403 57.2476 213.759 57.1029 214.131 57.0942H224.623H224.635ZM224.623 56.5528H214.143C213.635 56.5628 213.148 56.7602 212.776 57.1071C212.405 57.454 212.174 57.926 212.129 58.4323L211.381 68.9248C211.361 69.1649 211.391 69.4066 211.469 69.6345C211.548 69.8624 211.673 70.0715 211.836 70.2483C212 70.4252 212.199 70.566 212.42 70.6617C212.641 70.7574 212.88 70.806 213.121 70.8043H223.613C224.122 70.7956 224.609 70.5987 224.981 70.2515C225.353 69.9043 225.583 69.4316 225.627 68.9248L226.381 58.4323C226.401 58.1917 226.371 57.9495 226.292 57.7211C226.214 57.4928 226.088 57.2835 225.924 57.1065C225.759 56.9296 225.56 56.7889 225.338 56.6936C225.116 56.5982 224.877 56.5503 224.635 56.5528H224.623Z" fill="#9468B4"/>
<path opacity="0.3" d="M223.34 75.1528C223.507 75.1524 223.672 75.1864 223.826 75.2528C223.979 75.3192 224.117 75.4165 224.231 75.5386C224.346 75.6608 224.433 75.8051 224.489 75.9627C224.545 76.1203 224.568 76.2877 224.556 76.4544L223.808 86.9469C223.771 87.3172 223.601 87.6616 223.329 87.9156C223.057 88.1697 222.702 88.3161 222.33 88.3276H211.831C211.664 88.3281 211.498 88.2939 211.344 88.2271C211.19 88.1603 211.052 88.0625 210.937 87.9397C210.823 87.8169 210.735 87.6718 210.68 87.5135C210.625 87.3552 210.602 87.1871 210.615 87.0199L211.369 76.5274C211.405 76.1572 211.575 75.8128 211.847 75.5595C212.12 75.3062 212.475 75.1615 212.847 75.1528H223.334H223.34ZM223.334 74.6114H212.853C212.345 74.6201 211.857 74.817 211.485 75.1642C211.114 75.5114 210.884 75.9841 210.84 76.4909L210.086 86.9834C210.065 87.224 210.096 87.4663 210.174 87.6946C210.253 87.9229 210.379 88.1322 210.543 88.3092C210.707 88.4861 210.907 88.6268 211.129 88.7221C211.351 88.8175 211.59 88.8654 211.831 88.8629H222.324C222.832 88.8529 223.319 88.6555 223.69 88.3086C224.062 87.9617 224.292 87.4897 224.337 86.9834L225.085 76.4909C225.106 76.2503 225.076 76.008 224.997 75.7797C224.918 75.5514 224.793 75.3421 224.628 75.1651C224.464 74.9882 224.264 74.8475 224.042 74.7522C223.821 74.6568 223.581 74.6089 223.34 74.6114H223.334Z" fill="#9468B4"/>
<path d="M207.957 133.199C208.098 133.195 208.238 133.221 208.368 133.276C208.498 133.33 208.615 133.412 208.711 133.515C208.807 133.619 208.879 133.742 208.924 133.877C208.969 134.011 208.986 134.153 208.973 134.293C208.946 134.609 208.803 134.904 208.571 135.121C208.34 135.338 208.037 135.461 207.72 135.467C207.578 135.472 207.438 135.446 207.307 135.391C207.177 135.336 207.059 135.254 206.963 135.151C206.867 135.047 206.794 134.924 206.749 134.79C206.705 134.655 206.689 134.513 206.704 134.372C206.73 134.056 206.872 133.761 207.104 133.544C207.335 133.327 207.64 133.204 207.957 133.199ZM207.957 132.663C207.505 132.671 207.073 132.845 206.742 133.153C206.412 133.461 206.208 133.88 206.169 134.33C206.149 134.544 206.175 134.76 206.244 134.964C206.313 135.168 206.425 135.354 206.571 135.512C206.717 135.67 206.895 135.795 207.093 135.88C207.291 135.964 207.505 136.006 207.72 136.003C208.172 135.995 208.606 135.82 208.936 135.511C209.267 135.202 209.47 134.781 209.508 134.33C209.527 134.116 209.5 133.901 209.431 133.698C209.361 133.495 209.249 133.309 209.103 133.152C208.957 132.995 208.779 132.87 208.582 132.786C208.384 132.702 208.172 132.66 207.957 132.663Z" fill="#9468B4"/>
<path d="M208.115 132.669L207.847 132.651L207.89 132.115L208.152 132.133L208.115 132.669Z" fill="#9468B4"/>
<path d="M208.231 131.039H207.963L208.042 129.944H208.31L208.231 131.039ZM208.389 128.837H208.121L208.2 127.742H208.468L208.389 128.837ZM208.547 126.641H208.279L208.358 125.54H208.626L208.547 126.641ZM208.705 124.445H208.437L208.516 123.345H208.784L208.705 124.445ZM208.863 122.25H208.595L208.675 121.149H208.942L208.863 122.25ZM209.021 120.054H208.754L208.833 118.953H209.1L209.021 120.054ZM209.179 117.852H208.912L208.991 116.757H209.258L209.179 117.852ZM209.338 115.656H209.07L209.149 114.555H209.417L209.338 115.656ZM209.496 113.46H209.228L209.307 112.359H209.575L209.496 113.46ZM209.648 111.265H209.38L209.459 110.164H209.727L209.648 111.265ZM209.806 109.069H209.538L209.617 107.968H209.885L209.806 109.069Z" fill="#9468B4"/>
<path d="M209.728 106.317L209.69 106.851L209.957 106.87L209.995 106.336L209.728 106.317Z" fill="#9468B4"/>
<path d="M221.205 106.618H124.893C124.63 106.621 124.368 106.568 124.126 106.463C123.884 106.358 123.667 106.204 123.488 106.01C123.308 105.816 123.17 105.586 123.083 105.336C122.996 105.086 122.962 104.82 122.983 104.556L123.464 97.9262C123.509 97.3839 123.755 96.8779 124.153 96.5068C124.551 96.1357 125.073 95.9262 125.617 95.919H221.947C222.21 95.9173 222.47 95.9703 222.712 96.0747C222.953 96.179 223.171 96.3325 223.35 96.5252C223.529 96.718 223.666 96.9458 223.752 97.1943C223.838 97.4429 223.872 97.7066 223.851 97.9688L223.376 104.599C223.332 105.146 223.085 105.657 222.683 106.03C222.281 106.404 221.754 106.614 221.205 106.618ZM125.617 96.5029C125.219 96.5091 124.837 96.6631 124.546 96.9352C124.255 97.2072 124.075 97.5778 124.042 97.9749L123.567 104.605C123.552 104.789 123.575 104.974 123.634 105.149C123.694 105.324 123.789 105.484 123.914 105.621C124.04 105.754 124.192 105.859 124.36 105.93C124.529 106.002 124.71 106.037 124.893 106.034H221.205C221.604 106.03 221.986 105.876 222.278 105.604C222.569 105.331 222.748 104.96 222.78 104.562L223.261 97.9323C223.275 97.7507 223.252 97.5681 223.192 97.3959C223.133 97.2238 223.038 97.0657 222.915 96.9316C222.792 96.7974 222.642 96.6902 222.476 96.6164C222.309 96.5427 222.129 96.504 221.947 96.5029H125.617Z" fill="#9468B4"/>
<path opacity="0.8" fill-rule="evenodd" clip-rule="evenodd" d="M219.137 100.2H127.837C127.721 100.201 127.606 100.178 127.499 100.132C127.392 100.086 127.296 100.018 127.217 99.9331C127.138 99.8477 127.077 99.7467 127.04 99.6366C127.002 99.5265 126.988 99.4097 126.998 99.2938C127.02 99.0511 127.131 98.8252 127.31 98.6591C127.488 98.4931 127.721 98.3986 127.965 98.3936H219.27C219.386 98.3923 219.5 98.4152 219.607 98.4609C219.713 98.5066 219.808 98.574 219.887 98.6588C219.965 98.7437 220.025 98.844 220.062 98.9533C220.1 99.0627 220.114 99.1787 220.104 99.2938C220.084 99.5381 219.974 99.7663 219.795 99.9339C219.616 100.101 219.382 100.196 219.137 100.2Z" fill="white"/>
<path opacity="0.8" fill-rule="evenodd" clip-rule="evenodd" d="M203.924 104.003H127.564C127.448 104.004 127.333 103.981 127.227 103.935C127.121 103.89 127.026 103.822 126.947 103.737C126.869 103.653 126.809 103.552 126.771 103.443C126.734 103.334 126.72 103.218 126.73 103.102C126.75 102.858 126.86 102.63 127.039 102.462C127.218 102.295 127.452 102.2 127.697 102.196H204.052C204.173 102.191 204.294 102.212 204.406 102.258C204.518 102.304 204.619 102.375 204.701 102.464C204.784 102.553 204.845 102.659 204.882 102.775C204.919 102.89 204.931 103.012 204.916 103.133C204.886 103.374 204.768 103.596 204.585 103.757C204.403 103.917 204.167 104.004 203.924 104.003Z" fill="white"/>
</svg>
