<svg width="473" height="424" viewBox="0 0 473 424" fill="none" xmlns="http://www.w3.org/2000/svg">
<g opacity="0.15">
<path d="M446.36 127.251C436.041 197.741 374.089 265.634 306.758 308.008C132.637 418.568 -27.9939 209.073 15.5029 138.705C48.6073 66.7388 145.871 91.6586 188.148 64.7994C425.795 -87.3295 455.899 68.3123 446.36 127.251Z" fill="#9468B4"/>
<path opacity="0.9" d="M446.36 127.251C436.041 197.741 374.089 265.634 306.758 308.008C132.637 418.568 -27.9939 209.073 15.5029 138.705C48.6073 66.7388 145.871 91.6586 188.148 64.7994C425.795 -87.3295 455.899 68.3123 446.36 127.251Z" fill="white"/>
</g>
<path d="M236.5 423.349C367.115 423.349 473 417.167 473 409.541C473 401.915 367.115 395.733 236.5 395.733C105.885 395.733 0 401.915 0 409.541C0 417.167 105.885 423.349 236.5 423.349Z" fill="#F5F5F5"/>
<path d="M350.316 208.951H59.3415C55.4368 208.921 51.6953 207.38 48.9025 204.651C46.1096 201.921 44.4826 198.217 44.3628 194.313L40.545 29.499C40.4961 27.5923 40.8299 25.6951 41.5267 23.9195C42.2235 22.144 43.2691 20.5261 44.6018 19.1616C45.9345 17.797 47.5272 16.7135 49.2858 15.975C51.0444 15.2365 52.9332 14.858 54.8406 14.8618H345.815C349.72 14.8916 353.461 16.4327 356.254 19.1619C359.047 21.891 360.674 25.596 360.794 29.499L364.575 194.313C364.624 196.217 364.291 198.111 363.597 199.884C362.902 201.658 361.86 203.274 360.531 204.638C359.202 206.002 357.614 207.086 355.86 207.827C354.105 208.568 352.22 208.95 350.316 208.951Z" fill="#9468B4"/>
<path d="M350.316 209.561H59.3415C55.2815 209.531 51.3912 207.928 48.4886 205.089C45.586 202.251 43.8972 198.397 43.7773 194.338L39.9351 29.5117C39.8828 27.5234 40.2301 25.5449 40.9562 23.6932C41.6823 21.8415 42.7725 20.1543 44.1624 18.7315C45.5522 17.3086 47.2134 16.1791 49.0475 15.4098C50.8817 14.6405 52.8516 14.2469 54.8406 14.2525H345.815C349.881 14.2761 353.78 15.8779 356.688 18.7201C359.596 21.5622 361.287 25.4227 361.404 29.4874L365.222 194.302C365.274 196.29 364.927 198.269 364.201 200.12C363.474 201.972 362.384 203.659 360.994 205.082C359.604 206.505 357.943 207.634 356.109 208.404C354.275 209.173 352.305 209.567 350.316 209.561ZM54.8406 15.4723C53.0139 15.4667 51.2046 15.8279 49.52 16.5344C47.8355 17.2409 46.3099 18.2784 45.0336 19.5854C43.7574 20.8923 42.7564 22.4422 42.0902 24.1431C41.4239 25.844 41.1058 27.6613 41.1548 29.4874L44.9971 194.302C45.1046 198.048 46.6631 201.606 49.3438 204.226C52.0246 206.845 55.618 208.321 59.3659 208.341H350.316C352.141 208.345 353.949 207.983 355.632 207.277C357.315 206.57 358.839 205.534 360.115 204.229C361.391 202.923 362.392 201.376 363.059 199.677C363.727 197.978 364.047 196.163 364.002 194.338L360.184 29.5117C360.077 25.7653 358.518 22.2071 355.837 19.5878C353.156 16.9685 349.563 15.4929 345.815 15.4723H54.8406Z" fill="#9468B4"/>
<path d="M352.756 208.951H61.781C57.8762 208.921 54.1347 207.38 51.3419 204.651C48.5491 201.921 46.922 198.217 46.8023 194.313L42.9844 29.499C42.9355 27.5923 43.2693 25.6951 43.9661 23.9195C44.6629 22.144 45.7086 20.5261 47.0413 19.1616C48.374 17.797 49.9667 16.7135 51.7253 15.975C53.4839 15.2365 55.3727 14.858 57.2801 14.8618H348.255C352.159 14.8916 355.901 16.4327 358.694 19.1619C361.487 21.891 363.114 25.596 363.233 29.499L367.015 194.313C367.063 196.217 366.731 198.111 366.036 199.884C365.342 201.658 364.299 203.274 362.971 204.638C361.642 206.002 360.053 207.086 358.299 207.827C356.545 208.568 354.66 208.95 352.756 208.951Z" fill="#F5F5F5"/>
<path d="M352.756 209.561H61.7812C57.7212 209.531 53.8309 207.928 50.9283 205.089C48.0257 202.25 46.3369 198.396 46.217 194.338L42.3748 29.5113C42.3225 27.523 42.6698 25.5444 43.3959 23.6927C44.122 21.841 45.2122 20.1538 46.6021 18.731C47.9919 17.3082 49.6531 16.1786 51.4872 15.4093C53.3214 14.64 55.2913 14.2464 57.2803 14.252H348.255C352.321 14.2756 356.219 15.8774 359.128 18.7196C362.036 21.5617 363.727 25.4222 363.843 29.4869L367.661 194.301C367.714 196.29 367.366 198.268 366.64 200.12C365.914 201.972 364.824 203.659 363.434 205.082C362.044 206.504 360.383 207.634 358.549 208.403C356.715 209.173 354.745 209.566 352.756 209.561ZM57.2803 15.4718C55.4535 15.4662 53.6443 15.8274 51.9597 16.5339C50.2752 17.2404 48.7495 18.2779 47.4733 19.5849C46.1971 20.8918 45.1961 22.4417 44.5299 24.1426C43.8636 25.8435 43.5455 27.6608 43.5945 29.4869L47.4368 194.301C47.5443 198.048 49.1028 201.606 51.7835 204.225C54.4643 206.845 58.0577 208.32 61.8056 208.341H352.756C354.581 208.345 356.388 207.983 358.071 207.276C359.754 206.57 361.279 205.534 362.555 204.228C363.83 202.923 364.832 201.375 365.499 199.677C366.167 197.978 366.487 196.163 366.442 194.338L362.624 29.5113C362.516 25.7648 360.958 22.2066 358.277 19.5873C355.596 16.968 352.003 15.4924 348.255 15.4718H57.2803Z" fill="#9468B4"/>
<path d="M100.167 60.9811L80.4924 42.6846C89.7992 32.6338 106.339 32.6338 117.085 42.6846C120.521 45.876 123.118 49.864 124.648 54.2968L100.167 60.9811Z" fill="#E0E0E0"/>
<path opacity="0.2" d="M96.0685 61.3838L70.4535 63.6404C69.8416 59.9309 70.0582 56.132 71.0877 52.5162C72.1065 48.994 73.9315 45.7575 76.4181 43.063L96.0685 61.3838Z" fill="#9468B4"/>
<path d="M100.167 62.8354L85.9691 78.1801C84.0551 76.395 82.4443 74.3105 81.1998 72.0081C79.9772 69.7247 79.1522 67.2498 78.7603 64.6895L100.167 62.8354Z" fill="white"/>
<path opacity="0.6" d="M101.546 64.9211L126.075 58.2124C127.601 62.4358 127.953 66.9937 127.093 71.4012C126.234 75.8087 124.196 79.9008 121.196 83.2419C111.889 93.2928 95.3491 93.2928 84.603 83.2419L101.546 64.9211Z" fill="#9468B4"/>
<path opacity="0.2" d="M167.559 60.9811L147.884 42.6846C157.191 32.6338 173.731 32.6338 184.477 42.6846C187.916 45.8756 190.517 49.8634 192.052 54.2968L167.559 60.9811Z" fill="#9468B4"/>
<path d="M163.448 61.3838L137.833 63.6404C137.219 59.9304 137.44 56.1301 138.48 52.5162C139.489 48.9927 141.311 45.755 143.798 43.063L163.448 61.3838Z" fill="#E0E0E0"/>
<path opacity="0.6" d="M167.559 62.8354L153.349 78.1801C151.435 76.395 149.824 74.3105 148.58 72.0081C147.357 69.7247 146.532 67.2498 146.14 64.6895L167.559 62.8354Z" fill="#9468B4"/>
<path d="M168.925 64.9211L193.455 58.2124C194.984 62.4352 195.338 66.9941 194.479 71.4024C193.62 75.8107 191.579 79.9028 188.576 83.2419C179.269 93.2928 162.729 93.2928 151.983 83.2419L168.925 64.9211Z" fill="white"/>
<g opacity="0.3">
<path opacity="0.3" d="M61.9885 185.262H61.9275C61.768 185.241 61.6225 185.159 61.5206 185.035C61.4187 184.91 61.3679 184.752 61.3786 184.591C62.7691 170.222 71.6734 156.451 85.2006 147.766C96.9225 140.24 111.816 136.435 128.368 136.788C132.613 136.874 136.906 137.228 141.09 137.581C147.438 138.253 153.825 138.473 160.204 138.24C167.339 137.813 180.44 135.63 187.953 125.75C190.483 122.091 192.533 118.123 194.052 113.942C196.077 109.063 198.163 103.928 201.908 100C206.884 94.7676 214.532 91.7914 224.656 91.1449C229.88 90.9066 235.112 90.9554 240.33 91.2913C244.831 91.4987 249.491 91.7182 254.065 91.5353C262.14 91.2181 273.3 89.2787 280.582 81.7771C283.925 78.3618 286.242 73.9951 288.486 69.7747C289.706 67.5791 290.865 65.2981 292.219 63.1514C296.852 55.8461 303.288 49.8561 310.906 45.7575C310.975 45.7192 311.052 45.695 311.131 45.6865C311.21 45.678 311.289 45.6854 311.365 45.7081C311.442 45.7308 311.512 45.7684 311.574 45.8188C311.635 45.8692 311.686 45.9313 311.723 46.0015C311.798 46.1444 311.814 46.3108 311.769 46.4655C311.723 46.6203 311.619 46.7513 311.479 46.8309C304.011 50.8515 297.708 56.7339 293.183 63.9076C291.853 66.0178 290.645 68.2744 289.523 70.4577C287.242 74.7513 284.888 79.1913 281.412 82.7408C275.423 88.8396 265.97 92.3647 254.065 92.8282C249.454 93.0112 244.77 92.8282 240.245 92.5843C235.067 92.2547 229.876 92.2059 224.693 92.4379C214.935 93.06 207.506 95.9142 202.737 100.976C199.151 104.733 197.114 109.722 195.126 114.54C193.578 118.821 191.483 122.884 188.893 126.628C181.074 136.886 167.583 139.155 160.228 139.594C153.796 139.83 147.356 139.606 140.956 138.923C136.809 138.582 132.515 138.228 128.307 138.142C112.048 137.801 97.3372 141.546 85.8227 148.937C72.6126 157.476 63.8669 170.893 62.5618 184.859C62.5163 184.975 62.4377 185.075 62.3357 185.147C62.2338 185.219 62.113 185.258 61.9885 185.262Z" fill="#9468B4"/>
<path opacity="0.3" d="M313.455 51.7841H313.345C313.191 51.7413 313.059 51.6391 312.979 51.4998C312.899 51.3605 312.877 51.1953 312.918 51.04L314.248 45.856C314.396 45.2654 314.588 44.6864 314.821 44.124C314.833 44.1036 314.839 44.0804 314.839 44.0569C314.839 44.0333 314.833 44.0102 314.821 43.9898C310.967 44.0903 307.131 44.5641 303.368 45.4047C303.29 45.4226 303.209 45.4247 303.131 45.411C303.052 45.3972 302.977 45.3679 302.91 45.3247C302.843 45.2815 302.785 45.2253 302.74 45.1595C302.695 45.0936 302.664 45.0194 302.648 44.9412C302.63 44.8635 302.628 44.7829 302.642 44.7043C302.655 44.6257 302.685 44.5507 302.728 44.4836C302.771 44.4166 302.827 44.3588 302.893 44.3138C302.959 44.2688 303.033 44.2374 303.112 44.2215C306.92 43.3679 310.799 42.8698 314.699 42.7334C314.918 42.7274 315.135 42.7754 315.331 42.8733C315.526 42.9712 315.695 43.1159 315.821 43.2945C315.953 43.4829 316.034 43.7014 316.057 43.9298C316.081 44.1581 316.046 44.3886 315.956 44.5997C315.75 45.108 315.579 45.6296 315.443 46.161L314.102 51.345C314.064 51.4836 313.979 51.6042 313.86 51.6848C313.741 51.7654 313.598 51.8007 313.455 51.7841Z" fill="#9468B4"/>
</g>
<path d="M363.892 38.305C363.892 38.305 346.816 30.8157 341.802 51.9298C337.74 68.9333 329.202 75.3005 329.202 75.3005C329.202 75.3005 359.391 86.9614 376.224 73.2879L363.892 38.305Z" fill="#263238"/>
<path d="M344.046 109.392C343.424 111.075 342.826 112.515 342.168 114.027C341.509 115.54 340.826 116.991 340.131 118.455C338.728 121.382 337.142 124.212 335.532 126.993C332.268 132.671 328.483 138.032 324.225 143.009L323.408 143.936C323.115 144.265 322.969 144.472 322.359 145.095C321.226 146.235 319.825 147.073 318.285 147.534C316.876 147.93 315.399 148.013 313.955 147.778C312.804 147.597 311.68 147.269 310.613 146.802C308.875 146.025 307.237 145.042 305.733 143.875C304.363 142.822 303.052 141.694 301.806 140.496C297.188 135.891 293.119 130.767 289.681 125.225L294.012 121.956C298.137 126.334 302.573 130.41 307.283 134.153C309.31 135.81 311.581 137.143 314.016 138.105C314.991 138.435 315.662 138.288 315.492 138.24C315.321 138.191 315.333 138.24 315.37 138.24C315.406 138.24 315.638 137.886 315.833 137.617L316.504 136.739C320.072 131.967 323.292 126.945 326.14 121.712C327.579 119.077 328.921 116.381 330.226 113.673C330.873 112.32 331.507 110.966 332.117 109.599C332.727 108.233 333.337 106.806 333.825 105.574L344.046 109.392Z" fill="#FFC3BD"/>
<path d="M340.57 94.7196C336.008 94.5488 327.982 111.138 327.982 111.138L339.85 125.519C339.85 125.519 353.683 108.161 351.792 102.55C349.767 96.7078 347.206 94.9513 340.57 94.7196Z" fill="#263238"/>
<path opacity="0.2" d="M339.814 98.7202L333.642 118.053L339.204 124.774L339.814 98.7202Z" fill="black"/>
<path d="M293.036 127.214L280.411 124.018L288.95 117.273C288.95 117.273 295.292 119.944 295.695 124.384L293.036 127.214Z" fill="#FFC3BD"/>
<path d="M274.495 118.602L281.045 113.723L288.901 117.273L280.35 124.018L274.495 118.602Z" fill="#FFC3BD"/>
<path d="M372.784 392.452H362.075L362.599 367.642H373.309L372.784 392.452Z" fill="#FFC3BD"/>
<path d="M361.038 391.208H373.113C373.32 391.205 373.521 391.278 373.678 391.413C373.835 391.548 373.938 391.735 373.967 391.939L375.333 401.466C375.359 401.707 375.334 401.95 375.259 402.18C375.184 402.411 375.062 402.622 374.899 402.802C374.737 402.982 374.538 403.125 374.317 403.223C374.095 403.32 373.856 403.37 373.614 403.369C369.418 403.295 367.393 403.051 362.099 403.051C358.842 403.051 349.499 403.393 345.022 403.393C340.546 403.393 340.29 398.941 342.156 398.514C350.548 396.709 356.476 394.22 359.306 391.842C359.795 391.441 360.405 391.218 361.038 391.208Z" fill="#263238"/>
<g opacity="0.2">
<path opacity="0.2" d="M362.599 367.642L362.331 380.437H373.04L373.321 367.642H362.599Z" fill="black"/>
</g>
<path d="M336.264 100.026C336.033 106.807 337.204 122.628 344.327 159.452L387.824 158.159C386.604 140.485 386.226 129.568 393.605 92.9875C387.479 91.9132 381.283 91.2814 375.065 91.0969C368.472 90.8245 361.869 91.0243 355.305 91.6946C350.279 92.3045 344.851 93.3413 341.29 94.1341C339.916 94.4175 338.676 95.1507 337.766 96.2176C336.856 97.2846 336.328 98.6246 336.264 100.026Z" fill="#263238"/>
<path d="M372.443 68.9341C371.382 75.3256 370.491 87.011 375.065 91.1094C371.627 96.5223 366.215 100.382 359.977 101.868C349.95 96.7813 355.305 91.6949 355.305 91.6949C362.343 89.792 362.002 84.5349 360.623 79.6314L372.443 68.9341Z" fill="#FFC3BD"/>
<path d="M359.977 101.867L361.27 99.3301L368.234 100.904L359.977 101.867Z" fill="#E0E0E0"/>
<path d="M361.27 99.3293C363.514 98.3047 373.857 91.5716 374.26 89.4614C375.077 90.3519 379.456 90.6202 379.456 90.6202C379.456 90.6202 376.834 102.659 371.76 111.466C368.295 103.611 365.002 101.769 361.27 99.3293Z" fill="white"/>
<path d="M359.976 101.867L359.391 99.3301L355.122 99.635L359.976 101.867Z" fill="#E0E0E0"/>
<path d="M359.391 99.3298C355.939 97.0367 356.781 92.243 357.122 90.145C356.305 91.0232 351.926 91.2916 351.926 91.2916C351.926 91.2916 345.729 102.66 350.816 111.466C353.219 105.148 355.658 101.769 359.391 99.3298Z" fill="white"/>
<path opacity="0.2" d="M367.625 73.2876L360.635 79.6304C360.969 80.7712 361.206 81.9382 361.343 83.1189C364.039 82.6432 367.674 79.5572 367.869 76.7151C367.996 75.5673 367.913 74.4058 367.625 73.2876Z" fill="black"/>
<path d="M375.919 54.2963C375.785 64.9326 375.919 69.4336 370.869 75.1299C363.209 83.6682 350.133 81.2287 347.132 70.7631C344.4 61.3587 345.071 45.5506 355.244 40.8179C357.481 39.7647 359.951 39.3012 362.419 39.4714C364.886 39.6417 367.269 40.4401 369.34 41.7907C371.412 43.1414 373.104 44.9994 374.256 47.1882C375.407 49.377 375.979 51.8239 375.919 54.2963Z" fill="#FFC3BD"/>
<path d="M375.053 59.4068L361.696 58.7481C361.656 58.7465 361.617 58.7371 361.58 58.7203C361.544 58.7035 361.511 58.6797 361.484 58.6502C361.457 58.6208 361.436 58.5862 361.422 58.5486C361.408 58.511 361.402 58.471 361.404 58.431C361.405 58.3898 361.415 58.3494 361.432 58.3121C361.45 58.2749 361.475 58.2416 361.506 58.2142C361.536 58.1869 361.572 58.166 361.612 58.153C361.651 58.1399 361.692 58.1349 361.733 58.1382L375.089 58.7969C375.129 58.8 375.169 58.8109 375.204 58.8292C375.24 58.8474 375.272 58.8726 375.298 58.9032C375.324 58.9338 375.344 58.9693 375.356 59.0075C375.369 59.0458 375.373 59.0862 375.37 59.1262C375.368 59.1658 375.359 59.2046 375.342 59.2404C375.325 59.2761 375.301 59.3081 375.271 59.3343C375.242 59.3605 375.207 59.3805 375.169 59.3929C375.132 59.4054 375.092 59.4101 375.053 59.4068Z" fill="white"/>
<path d="M344.327 159.452C344.327 159.452 349.828 239.042 352.865 271.573C356.049 305.421 360.184 377.96 360.184 377.96H374.662C374.662 377.96 377.687 304.189 376.541 270.804C375.321 234.419 376.09 158.513 376.09 158.513L344.327 159.452Z" fill="#263238"/>
<path d="M376.004 378.472H359.013L357.757 373.057L376.797 372.386L376.004 378.472Z" fill="#9468B4"/>
<path opacity="0.2" d="M375.98 186.933C374.223 184.981 372.321 185.994 370.149 191.556C362.916 210.536 370.625 240.822 376.248 258.265C375.87 236.553 375.882 207.986 375.98 186.933Z" fill="black"/>
<path d="M358.476 58.8818C358.476 59.7478 358.086 60.4675 357.525 60.4919C356.964 60.5163 356.476 59.8454 356.427 58.9794C356.378 58.1134 356.805 57.3937 357.379 57.3693C357.952 57.3449 358.476 58.0158 358.476 58.8818Z" fill="#263238"/>
<path d="M348.718 59.1748C348.718 60.0409 348.328 60.7605 347.767 60.7849C347.206 60.8093 346.718 60.1384 346.669 59.2724C346.62 58.4064 347.047 57.6867 347.62 57.6623C348.194 57.6379 348.718 58.2478 348.718 59.1748Z" fill="#263238"/>
<path d="M347.852 57.6378L345.754 57.1377C345.754 57.1377 346.9 58.7112 347.852 57.6378Z" fill="#263238"/>
<path d="M352.475 59.8213C351.805 61.8282 350.861 63.7328 349.669 65.481C350.123 65.7785 350.638 65.9711 351.176 66.045C351.714 66.1188 352.262 66.072 352.78 65.9079L352.475 59.8213Z" fill="#ED847E"/>
<path d="M357.647 69.0546C357.245 69.1387 356.837 69.1917 356.427 69.2132C356.393 69.2148 356.36 69.2098 356.328 69.1985C356.296 69.1871 356.267 69.1696 356.242 69.1469C356.217 69.1242 356.197 69.0969 356.183 69.0664C356.168 69.0359 356.16 69.0029 356.159 68.9692C356.161 68.9042 356.188 68.8424 356.232 68.7953C356.277 68.7482 356.338 68.719 356.403 68.7131C357.478 68.6861 358.532 68.4044 359.478 67.8913C360.423 67.3782 361.234 66.6482 361.843 65.7613C361.86 65.7323 361.883 65.7071 361.911 65.6871C361.938 65.6672 361.969 65.6528 362.002 65.6448C362.035 65.6369 362.069 65.6356 362.102 65.6409C362.136 65.6462 362.168 65.6581 362.196 65.6759C362.225 65.6922 362.25 65.7142 362.27 65.7404C362.29 65.7666 362.304 65.7965 362.312 65.8284C362.32 65.8604 362.321 65.8935 362.316 65.926C362.311 65.9585 362.299 65.9896 362.282 66.0174C361.753 66.8095 361.071 67.4869 360.274 68.0087C359.478 68.5306 358.584 68.8864 357.647 69.0546Z" fill="#263238"/>
<path d="M379.212 63.8837C378.903 64.8529 378.405 65.7514 377.748 66.528C377.091 67.3045 376.287 67.9438 375.382 68.409C372.942 69.6288 371.21 67.5918 371.442 65.0181C371.65 62.7127 373.162 59.273 375.821 59.1144C376.402 59.0899 376.98 59.211 377.502 59.4666C378.024 59.7223 378.475 60.1045 378.812 60.5784C379.148 61.0523 379.362 61.6029 379.432 62.1802C379.502 62.7575 379.426 63.343 379.212 63.8837Z" fill="#FFC3BD"/>
<path d="M362.294 55.9058C362.19 55.9293 362.082 55.9181 361.985 55.8741C361.888 55.83 361.808 55.7555 361.757 55.6619C360.599 53.6249 357.586 53.3077 357.561 53.2955C357.496 53.2891 357.432 53.2699 357.374 53.2388C357.315 53.2078 357.264 53.1655 357.222 53.1146C357.18 53.0636 357.149 53.0049 357.129 52.9418C357.11 52.8786 357.104 52.8123 357.11 52.7467C357.116 52.681 357.136 52.6172 357.167 52.559C357.198 52.5008 357.24 52.4492 357.291 52.4073C357.342 52.3654 357.401 52.334 357.464 52.3147C357.527 52.2955 357.593 52.2889 357.659 52.2953C357.805 52.2953 361.221 52.6613 362.636 55.1618C362.67 55.2192 362.693 55.2829 362.703 55.3493C362.712 55.4157 362.709 55.4833 362.691 55.5482C362.674 55.6131 362.644 55.6738 362.603 55.7269C362.562 55.78 362.511 55.8242 362.453 55.8571L362.294 55.9058Z" fill="#263238"/>
<path d="M345.571 54.1988C345.485 54.2193 345.395 54.2153 345.311 54.1873C345.227 54.1592 345.152 54.1083 345.095 54.0402C345.047 53.9936 345.009 53.9376 344.982 53.8758C344.956 53.814 344.943 53.7475 344.943 53.6804C344.943 53.6132 344.956 53.5467 344.982 53.4849C345.009 53.4231 345.047 53.3672 345.095 53.3205C345.679 52.767 346.386 52.3609 347.159 52.136C347.931 51.9111 348.746 51.8739 349.535 52.0276C349.666 52.062 349.778 52.1467 349.846 52.2633C349.915 52.3798 349.935 52.5187 349.901 52.6497C349.864 52.7787 349.779 52.8886 349.663 52.9566C349.547 53.0247 349.41 53.0458 349.279 53.0156C348.653 52.8973 348.008 52.932 347.399 53.1168C346.789 53.3015 346.233 53.6309 345.778 54.0768C345.72 54.1333 345.649 54.1751 345.571 54.1988Z" fill="#263238"/>
<path d="M398.973 105.283C400.4 110.979 401.888 116.785 403.412 122.494C404.937 128.202 406.608 133.898 408.45 139.412C410.292 144.925 412.573 150.39 414.683 156C416.793 161.611 418.94 167.271 420.879 172.992L416 175.297C412.829 170.125 409.902 164.868 407.011 159.526C405.588 156.858 404.197 154.159 402.839 151.426C401.461 148.731 400.156 145.828 398.997 142.888C396.667 137.106 394.728 131.288 392.996 125.433C391.264 119.578 389.678 113.723 388.336 107.698L398.973 105.283Z" fill="#FFC3BD"/>
<path d="M393.605 92.9871C397.997 94.2069 403.681 109.027 403.681 109.027L387.128 121.615C387.128 121.615 380.59 109.283 382.249 103.587C383.994 97.671 388.58 91.621 393.605 92.9871Z" fill="#263238"/>
<path d="M357.012 393.086C356.097 393.166 355.181 392.933 354.414 392.427C354.247 392.275 354.117 392.085 354.036 391.873C353.956 391.661 353.927 391.433 353.951 391.207C353.961 391.067 354.007 390.933 354.084 390.815C354.161 390.698 354.266 390.602 354.39 390.536C355.695 389.817 359.964 392 360.489 392.244C360.535 392.27 360.573 392.31 360.597 392.358C360.621 392.406 360.63 392.459 360.623 392.512C360.618 392.566 360.594 392.615 360.556 392.653C360.519 392.691 360.469 392.714 360.416 392.72C359.296 392.95 358.156 393.073 357.012 393.086ZM355.097 390.866C354.938 390.856 354.779 390.886 354.634 390.951C354.583 390.978 354.54 391.018 354.509 391.068C354.479 391.117 354.463 391.174 354.463 391.232C354.439 391.382 354.454 391.535 354.505 391.678C354.556 391.821 354.642 391.948 354.756 392.049C355.402 392.634 357.195 392.732 359.537 392.342C358.153 391.598 356.651 391.099 355.097 390.866Z" fill="#9468B4"/>
<path d="M360.33 392.707H360.233C358.952 392.122 356.427 389.816 356.573 388.609C356.573 388.316 356.829 387.962 357.525 387.889C357.778 387.86 358.035 387.884 358.279 387.959C358.522 388.035 358.747 388.161 358.94 388.328C360.281 389.451 360.525 392.329 360.537 392.451C360.541 392.496 360.533 392.541 360.514 392.582C360.494 392.622 360.465 392.657 360.428 392.683C360.397 392.697 360.364 392.706 360.33 392.707ZM357.781 388.365H357.634C357.171 388.365 357.134 388.597 357.122 388.658C357.012 389.39 358.72 391.207 360.025 392C359.923 390.783 359.446 389.628 358.659 388.694C358.418 388.478 358.104 388.361 357.781 388.365Z" fill="#9468B4"/>
<path d="M435.651 392.452H424.941L418.452 367.642H429.174L435.651 392.452Z" fill="#FFC3BD"/>
<path d="M435.748 391.207H423.709C423.612 391.199 423.515 391.213 423.425 391.247C423.334 391.282 423.252 391.336 423.186 391.406C423.119 391.477 423.069 391.561 423.039 391.653C423.009 391.745 423.001 391.843 423.014 391.939L423.746 401.466C423.825 401.982 424.081 402.454 424.471 402.801C424.86 403.148 425.359 403.349 425.88 403.368C430.064 403.295 431.979 403.051 437.322 403.051C440.578 403.051 443.823 403.393 448.3 403.393C452.776 403.393 452.056 398.941 450.093 398.514C441.298 396.709 441.005 394.22 437.651 391.842C437.095 391.444 436.432 391.223 435.748 391.207Z" fill="#263238"/>
<g opacity="0.2">
<path opacity="0.2" d="M418.464 367.642L421.794 380.437H432.516L429.174 367.642H418.464Z" fill="black"/>
</g>
<path d="M387.824 158.159C400.204 174.747 407.743 235.663 413.219 268.23C418.916 302.103 432.918 378.009 432.918 378.009H418.44C418.44 378.009 398.741 300.798 388.421 268.108C377.017 232.015 359.977 158.207 359.977 158.207L387.824 158.159Z" fill="#263238"/>
<path d="M433.955 378.472H416.952L415.708 373.057L434.748 372.386L433.955 378.472Z" fill="#9468B4"/>
<path d="M437.175 391.511C438.038 391.19 438.766 390.583 439.237 389.792C439.325 389.579 439.36 389.347 439.339 389.118C439.318 388.888 439.241 388.667 439.115 388.474C439.047 388.354 438.95 388.253 438.832 388.181C438.715 388.108 438.581 388.066 438.444 388.06C436.943 387.974 434.028 391.78 433.699 392.219C433.669 392.262 433.653 392.313 433.653 392.365C433.653 392.418 433.669 392.469 433.699 392.512C433.726 392.556 433.768 392.589 433.816 392.607C433.865 392.624 433.918 392.625 433.967 392.609C435.069 392.346 436.143 391.978 437.175 391.511ZM437.944 388.682C438.087 388.607 438.245 388.566 438.407 388.56C438.464 388.562 438.52 388.58 438.568 388.612C438.615 388.645 438.652 388.69 438.675 388.743C438.761 388.866 438.815 389.008 438.832 389.157C438.849 389.306 438.829 389.457 438.773 389.596C438.431 390.401 436.882 391.255 434.577 391.926C435.508 390.663 436.647 389.566 437.944 388.682Z" fill="#9468B4"/>
<path d="M434.016 392.598C434.049 392.585 434.078 392.564 434.101 392.537C435.004 391.464 436.285 388.292 435.589 387.28C435.419 387.036 435.077 386.804 434.37 387.048C434.13 387.132 433.911 387.264 433.724 387.436C433.537 387.608 433.388 387.816 433.284 388.048C432.552 389.634 433.577 392.342 433.613 392.464C433.63 392.505 433.656 392.541 433.69 392.569C433.724 392.596 433.765 392.615 433.809 392.622C433.843 392.635 433.879 392.639 433.915 392.635C433.951 392.631 433.986 392.618 434.016 392.598ZM434.443 387.585L434.589 387.524C435.028 387.365 435.138 387.524 435.163 387.524C435.589 388.121 434.821 390.5 433.943 391.781C433.508 390.639 433.44 389.389 433.748 388.207C433.894 387.92 434.142 387.698 434.443 387.585Z" fill="#9468B4"/>
<path d="M357.61 57.4068L355.512 56.9067C355.512 56.9067 356.659 58.4802 357.61 57.4068Z" fill="#263238"/>
<path d="M388.397 155.536L389.617 159.403C389.775 159.695 389.422 160.013 388.922 160.037L344.156 161.367C343.766 161.367 343.437 161.196 343.4 160.952L342.9 157.061C342.9 156.792 343.193 156.561 343.62 156.549L387.665 155.231C387.803 155.216 387.943 155.236 388.071 155.289C388.199 155.342 388.311 155.427 388.397 155.536Z" fill="#9468B4"/>
<path d="M382.627 160.696H383.847C384.079 160.696 384.25 160.562 384.237 160.415L383.53 155.366C383.53 155.219 383.298 155.109 383.067 155.109H381.847C381.615 155.109 381.444 155.244 381.456 155.39L382.164 160.44C382.188 160.586 382.396 160.696 382.627 160.696Z" fill="#263238"/>
<path d="M347.498 161.733H348.718C348.95 161.733 349.12 161.599 349.108 161.452L348.401 156.415C348.401 156.268 348.169 156.146 347.937 156.159H346.717C346.486 156.159 346.315 156.293 346.327 156.439L347.034 161.477C347.059 161.635 347.266 161.745 347.498 161.733Z" fill="#263238"/>
<path d="M365.063 161.208H366.282C366.514 161.208 366.685 161.074 366.673 160.915L365.965 155.878C365.965 155.731 365.734 155.622 365.502 155.622H364.282C364.05 155.622 363.88 155.756 363.892 155.902L364.599 160.94C364.575 161.111 364.831 161.22 365.063 161.208Z" fill="#263238"/>
<path d="M419.647 171.064L428.186 178.883L417.379 180.273C417.379 180.273 413.329 174.723 415.256 170.71L419.647 171.064Z" fill="#FFC3BD"/>
<path d="M429.637 187.775L420.526 188.446L417.354 180.273L428.161 178.895L429.637 187.775Z" fill="#FFC3BD"/>
<path d="M365.185 39.4148C365.185 39.4148 356.195 35.292 346.278 47.7946C358.22 51.3441 366.246 48.8802 366.246 48.8802L365.185 39.4148Z" fill="#263238"/>
<path d="M363.892 38.3053C363.892 38.3053 366.063 69.7386 363.892 85.4004C376.504 81.3995 388.568 68.9214 388.568 68.9214C388.568 68.9214 386.799 34.5118 363.892 38.3053Z" fill="#263238"/>
<path d="M357.488 66.1647C354.658 66.1647 352.06 62.664 351.682 58.3582C351.522 57.2025 351.594 56.0264 351.896 54.8993C352.198 53.7722 352.722 52.7169 353.439 51.7959C353.777 51.3966 354.197 51.0746 354.67 50.8516C355.144 50.6285 355.66 50.5097 356.183 50.5029C359.013 50.5029 361.623 54.0036 362.001 58.3094C362.163 59.466 362.089 60.6432 361.786 61.7708C361.482 62.8983 360.953 63.953 360.233 64.8717C359.894 65.271 359.474 65.593 359.001 65.816C358.527 66.0391 358.011 66.158 357.488 66.1647ZM356.183 51.1128C355.746 51.1232 355.316 51.2252 354.921 51.4122C354.526 51.5992 354.175 51.867 353.89 52.1984C353.232 53.0579 352.751 54.0399 352.477 55.087C352.203 56.1342 352.14 57.2255 352.292 58.2972C352.633 62.2858 354.975 65.5426 357.488 65.5426C357.927 65.5354 358.359 65.4336 358.755 65.2441C359.15 65.0546 359.501 64.782 359.781 64.4448C360.443 63.587 360.926 62.6055 361.202 61.5581C361.479 60.5107 361.543 59.4186 361.391 58.346C361.038 54.3574 358.708 51.1128 356.183 51.1128Z" fill="white"/>
<path d="M346.864 66.1647C344.571 66.1647 342.473 62.7372 342.095 58.3582C341.839 55.4186 342.448 52.7473 343.68 51.4056C343.912 51.1307 344.199 50.9081 344.523 50.7525C344.847 50.5969 345.2 50.5118 345.559 50.5029C347.852 50.5029 349.938 53.9305 350.328 58.3094C350.572 61.249 349.962 63.9081 348.73 65.2621C348.5 65.5354 348.215 65.7571 347.894 65.9127C347.572 66.0682 347.221 66.1541 346.864 66.1647ZM345.559 51.1128C345.284 51.119 345.013 51.1855 344.767 51.3078C344.52 51.43 344.303 51.605 344.132 51.8203C343.022 53.04 342.461 55.5771 342.705 58.3094C343.034 62.237 344.949 65.5548 346.864 65.5548C347.137 65.5445 347.404 65.476 347.648 65.354C347.892 65.232 348.107 65.0592 348.279 64.8473C349.389 63.6276 349.95 61.0905 349.718 58.3582C349.377 54.4306 347.498 51.1128 345.559 51.1128Z" fill="white"/>
<path d="M351.987 58.639H351.853C351.596 58.5023 351.309 58.4308 351.017 58.4308C350.726 58.4308 350.439 58.5023 350.182 58.639C350.114 58.6801 350.032 58.6929 349.955 58.6746C349.877 58.6564 349.81 58.6086 349.767 58.5414C349.745 58.5089 349.729 58.4721 349.721 58.4333C349.713 58.3945 349.713 58.3546 349.721 58.3158C349.729 58.277 349.745 58.2403 349.767 58.2078C349.79 58.1753 349.819 58.1477 349.852 58.1267C350.201 57.945 350.588 57.8501 350.981 57.8501C351.374 57.8501 351.761 57.945 352.109 58.1267C352.182 58.1612 352.238 58.222 352.268 58.2967C352.297 58.3714 352.297 58.4545 352.268 58.5292C352.232 58.5677 352.189 58.5977 352.14 58.6167C352.091 58.6357 352.039 58.6434 351.987 58.639Z" fill="white"/>
<path d="M403.193 244.385H69.7949V255.766H403.193V244.385Z" fill="#9468B4"/>
<path opacity="0.8" d="M403.193 244.385H69.7949V255.766H403.193V244.385Z" fill="white"/>
<path opacity="0.3" d="M403.205 244.385H305.624V255.766H403.205V244.385Z" fill="#9468B4"/>
<path d="M329.409 407.627H322.908L314.26 255.766H329.409V407.627Z" fill="#9468B4"/>
<path d="M396.692 407.627H403.205L394.557 255.766H379.408L396.692 407.627Z" fill="#9468B4"/>
<path d="M76.3085 407.627H69.7949L78.443 255.766H93.5925L76.3085 407.627Z" fill="#9468B4"/>
<path d="M143.591 407.627H150.092L158.74 255.766H143.591V407.627Z" fill="#9468B4"/>
<path d="M300.477 189.862H229.34C228.51 189.889 227.714 190.197 227.083 190.735C226.451 191.274 226.021 192.011 225.864 192.826L218.082 237.384C218.004 237.744 218.009 238.118 218.097 238.476C218.184 238.834 218.351 239.167 218.586 239.451C218.821 239.735 219.117 239.962 219.452 240.116C219.787 240.269 220.153 240.344 220.521 240.336H291.646C292.474 240.31 293.268 240.004 293.9 239.468C294.531 238.932 294.962 238.197 295.122 237.384L302.904 192.826C302.983 192.466 302.98 192.093 302.894 191.734C302.809 191.375 302.643 191.041 302.409 190.756C302.175 190.47 301.88 190.242 301.545 190.087C301.211 189.932 300.845 189.855 300.477 189.862Z" fill="#9468B4"/>
<path opacity="0.2" d="M300.477 189.862H229.34C228.51 189.889 227.714 190.197 227.083 190.735C226.451 191.274 226.021 192.011 225.864 192.826L218.082 237.384C218.004 237.744 218.009 238.118 218.097 238.476C218.184 238.834 218.351 239.167 218.586 239.451C218.821 239.735 219.117 239.962 219.452 240.116C219.787 240.269 220.153 240.344 220.521 240.336H291.646C292.474 240.31 293.268 240.004 293.9 239.468C294.531 238.932 294.962 238.197 295.122 237.384L302.904 192.826C302.983 192.466 302.98 192.093 302.894 191.734C302.809 191.375 302.643 191.041 302.409 190.756C302.175 190.47 301.88 190.242 301.545 190.087C301.211 189.932 300.845 189.855 300.477 189.862Z" fill="white"/>
<path d="M299.111 189.862H227.962C227.132 189.889 226.336 190.197 225.704 190.735C225.073 191.274 224.643 192.011 224.486 192.826L216.703 237.384C216.626 237.745 216.631 238.118 216.719 238.476C216.806 238.834 216.973 239.167 217.208 239.451C217.443 239.735 217.739 239.962 218.074 240.116C218.409 240.269 218.775 240.344 219.143 240.336H290.267C291.11 240.329 291.925 240.032 292.574 239.494C293.223 238.957 293.666 238.211 293.829 237.384L301.611 192.826C301.692 192.46 301.688 192.08 301.598 191.716C301.508 191.351 301.336 191.013 301.094 190.726C300.852 190.439 300.547 190.212 300.203 190.062C299.859 189.912 299.485 189.844 299.111 189.862Z" fill="#9468B4"/>
<path opacity="0.4" d="M299.111 189.862H227.962C227.132 189.889 226.336 190.197 225.704 190.735C225.073 191.274 224.643 192.011 224.486 192.826L216.703 237.384C216.626 237.745 216.631 238.118 216.719 238.476C216.806 238.834 216.973 239.167 217.208 239.451C217.443 239.735 217.739 239.962 218.074 240.116C218.409 240.269 218.775 240.344 219.143 240.336H290.267C291.11 240.329 291.925 240.032 292.574 239.494C293.223 238.957 293.666 238.211 293.829 237.384L301.611 192.826C301.692 192.46 301.688 192.08 301.598 191.716C301.508 191.351 301.336 191.013 301.094 190.726C300.852 190.439 300.547 190.212 300.203 190.062C299.859 189.912 299.485 189.844 299.111 189.862Z" fill="white"/>
<path d="M219.18 239.116C218.993 239.125 218.806 239.092 218.634 239.02C218.461 238.948 218.306 238.84 218.18 238.702C218.062 238.545 217.979 238.365 217.937 238.173C217.895 237.982 217.894 237.783 217.936 237.592L225.718 193.034C225.825 192.503 226.107 192.023 226.518 191.669C226.928 191.316 227.445 191.109 227.986 191.082H299.111C299.299 191.076 299.485 191.112 299.658 191.185C299.831 191.259 299.985 191.37 300.111 191.509C300.23 191.665 300.313 191.846 300.355 192.037C300.397 192.229 300.397 192.427 300.355 192.619L292.609 237.165C292.502 237.696 292.22 238.176 291.81 238.529C291.399 238.883 290.882 239.089 290.341 239.116H219.18Z" fill="white"/>
<path d="M290.658 240.336H201.2C200.151 240.343 199.146 240.763 198.404 241.505C197.662 242.247 197.242 243.251 197.236 244.301H294.622C294.615 243.251 294.196 242.247 293.454 241.505C292.712 240.763 291.707 240.343 290.658 240.336Z" fill="#9468B4"/>
<path opacity="0.4" d="M290.658 240.336H201.2C200.151 240.343 199.146 240.763 198.404 241.505C197.662 242.247 197.242 243.251 197.236 244.301H294.622C294.615 243.251 294.196 242.247 293.454 241.505C292.712 240.763 291.707 240.343 290.658 240.336Z" fill="white"/>
<path opacity="0.8" d="M290.658 240.336H270.727C269.677 240.343 268.673 240.763 267.931 241.505C267.189 242.247 266.769 243.251 266.762 244.301H294.622C294.615 243.251 294.196 242.247 293.454 241.505C292.712 240.763 291.707 240.343 290.658 240.336Z" fill="#9468B4"/>
<path d="M337.509 224.479H324.445C323.644 224.479 322.994 225.129 322.994 225.931V242.935C322.994 243.736 323.644 244.386 324.445 244.386H337.509C338.31 244.386 338.96 243.736 338.96 242.935V225.931C338.96 225.129 338.31 224.479 337.509 224.479Z" fill="#9468B4"/>
<path d="M325.091 234.176L325.323 233.03H324.225V231.81H325.543L325.86 230.2H327.08L326.75 231.81H327.738L328.068 230.2H329.348L329.019 231.81H329.641V233.03H328.775L328.543 234.176H329.641V235.396H328.287L327.97 236.982H326.762L327.08 235.408H326.092L325.774 236.994H324.555L324.872 235.408H324.25V234.188L325.091 234.176ZM326.372 234.176H327.36L327.592 233.03H326.604L326.372 234.176Z" fill="white"/>
<path d="M334.569 230.188V236.897H332.715V232.493C332.445 232.707 332.155 232.895 331.849 233.054C331.505 233.213 331.15 233.347 330.788 233.457V231.957C331.315 231.801 331.811 231.553 332.252 231.225C332.595 230.944 332.87 230.59 333.057 230.188H334.569Z" fill="white"/>
<path d="M340.46 242.202C337.301 242.202 334.825 238.787 334.825 234.432C334.825 230.077 337.35 226.65 340.46 226.65C343.571 226.65 346.096 230.138 346.096 234.432C346.096 238.726 343.619 242.202 340.46 242.202ZM340.46 228.443C338.374 228.443 336.618 231.175 336.618 234.432C336.618 237.689 338.374 240.409 340.46 240.409C342.546 240.409 344.303 237.677 344.303 234.432C344.303 231.187 342.534 228.443 340.46 228.443Z" fill="#9468B4"/>
<path d="M153.007 187.386L151.873 189.142L150.653 191.07C149.86 192.363 149.092 193.68 148.323 195.009C146.811 197.669 145.347 200.364 143.993 203.097C141.271 208.477 138.991 214.07 137.175 219.82C136.735 221.234 136.345 222.649 135.955 224.064L135.455 226.199L135.247 227.26L135.138 227.797C135.138 227.968 135.064 228.199 135.064 228.15C135.064 228.102 134.967 228.15 134.845 227.833C134.714 227.551 134.512 227.307 134.259 227.126C134.052 227.004 134.015 227.126 134.125 227.236C134.378 227.465 134.661 227.658 134.967 227.809C136.008 228.321 137.111 228.698 138.248 228.931C139.628 229.253 141.025 229.501 142.432 229.675C145.335 230.053 148.531 230.236 151.531 230.395H151.836C152.824 230.446 153.764 230.838 154.496 231.505C155.227 232.171 155.705 233.069 155.849 234.048C155.993 235.027 155.793 236.026 155.284 236.874C154.775 237.722 153.987 238.368 153.056 238.701C149.688 239.909 146.206 240.772 142.663 241.275C138.703 241.921 134.656 241.818 130.734 240.97C129.467 240.659 128.239 240.205 127.075 239.616C125.603 238.87 124.274 237.871 123.147 236.664C121.831 235.234 120.855 233.524 120.293 231.663C119.816 229.984 119.646 228.232 119.793 226.492C119.793 226.028 119.793 225.857 119.866 225.626L119.951 224.955L120.11 223.589C120.244 222.698 120.366 221.796 120.513 220.905C120.818 219.124 121.159 217.356 121.586 215.624C123.256 208.769 125.601 202.097 128.587 195.705C130.063 192.558 131.637 189.46 133.357 186.447C134.211 184.934 135.113 183.446 136.04 181.97C136.504 181.226 136.979 180.494 137.479 179.75C137.98 179.006 138.443 178.335 139.077 177.457C140.391 175.69 142.336 174.499 144.507 174.133C146.678 173.766 148.906 174.252 150.727 175.489C152.548 176.726 153.821 178.619 154.28 180.772C154.739 182.925 154.348 185.172 153.19 187.044L153.007 187.386Z" fill="#9468B4"/>
<path d="M185.624 138.156C185.746 138.985 186.282 139.583 186.843 139.51C187.404 139.436 187.722 138.692 187.6 137.875C187.478 137.058 186.941 136.448 186.38 136.521C185.819 136.594 185.502 137.338 185.624 138.156Z" fill="#263238"/>
<path d="M186.209 139.595C187.565 141.964 189.239 144.135 191.186 146.048C190.684 146.533 190.082 146.902 189.423 147.129C188.763 147.357 188.062 147.437 187.368 147.365L186.209 139.595Z" fill="#A02724"/>
<path d="M182.026 134.033C182.129 134.024 182.225 133.976 182.294 133.899C182.72 133.456 183.245 133.122 183.827 132.925C184.408 132.728 185.029 132.673 185.636 132.764C185.764 132.79 185.896 132.765 186.005 132.694C186.115 132.623 186.192 132.513 186.221 132.386C186.247 132.26 186.221 132.129 186.15 132.022C186.08 131.914 185.969 131.839 185.843 131.813C185.078 131.686 184.293 131.746 183.556 131.988C182.819 132.23 182.152 132.647 181.611 133.203C181.521 133.297 181.47 133.421 181.47 133.551C181.47 133.681 181.521 133.805 181.611 133.899C181.666 133.95 181.731 133.989 181.803 134.012C181.875 134.035 181.951 134.042 182.026 134.033Z" fill="#263238"/>
<path d="M161.46 147.243C161.814 154.927 161.229 168.808 155.264 173.016C155.264 173.016 156.179 180.884 170.047 182.957C185.282 185.226 178.464 176.468 178.464 176.468C170.438 173.248 171.572 167.1 173.89 161.526L161.46 147.243Z" fill="#B55B52"/>
<path d="M152.873 176.09C152.275 172.614 151.653 168.65 154.276 168.04C157.155 167.369 172.06 169.357 176.768 172.919C181.477 176.481 179.061 182.677 179.061 182.677L152.873 176.09Z" fill="#E0E0E0"/>
<path d="M193.064 189.044C193.625 201.339 193.064 225.722 184.721 262.632H129.563C129.222 254.96 137.138 221.88 136.455 185.531C136.421 183.709 136.75 181.899 137.423 180.205C138.095 178.511 139.098 176.969 140.373 175.666C141.648 174.364 143.169 173.329 144.848 172.621C146.527 171.912 148.331 171.545 150.153 171.541C151.238 171.541 152.385 171.541 153.568 171.675C161.371 172.218 169.135 173.228 176.817 174.7C179.11 175.224 181.342 175.834 183.367 176.456C186.083 177.3 188.472 178.962 190.208 181.215C191.943 183.469 192.941 186.203 193.064 189.044Z" fill="#9468B4"/>
<path opacity="0.2" d="M184.733 211.171C183.855 217.416 181.83 228.248 189.137 240.226C189.966 235.261 190.637 230.614 191.186 226.272L184.733 211.171Z" fill="black"/>
<path d="M227.718 226.284L237 223.089L233.219 213.331C231.109 213.637 229.123 214.51 227.471 215.857C225.819 217.204 224.563 218.974 223.839 220.978L227.718 226.284Z" fill="#B55B52"/>
<path d="M241.916 220.307L242.904 212.427L233.219 213.232L237.001 223.027L241.916 220.307Z" fill="#B55B52"/>
<path d="M193.003 187.91C193.516 189.703 194.15 191.789 194.76 193.741C195.37 195.692 195.979 197.693 196.687 199.657C198.004 203.584 199.456 207.451 200.98 211.232C202.505 215.013 204.213 218.685 206.055 222.112C207.737 225.355 209.783 228.396 212.154 231.175L203.213 229.797C204.933 229.053 206.701 228.285 208.482 227.357C210.263 226.43 212.08 225.601 213.873 224.625L219.362 221.734C221.192 220.771 223.022 219.722 224.888 218.819L225.083 218.722C225.954 218.285 226.948 218.155 227.902 218.355C228.856 218.554 229.714 219.071 230.338 219.82C230.961 220.569 231.313 221.507 231.335 222.481C231.358 223.456 231.05 224.409 230.462 225.186C229.097 226.989 227.64 228.719 226.095 230.37C224.571 232.017 222.973 233.578 221.314 235.115C219.655 236.652 217.899 238.104 216.069 239.494C214.239 240.885 212.3 242.226 210.238 243.471C208.918 244.259 207.376 244.593 205.848 244.424C204.32 244.254 202.889 243.59 201.773 242.531L201.298 242.08C197.683 238.575 194.545 234.609 191.966 230.285C189.518 226.308 187.338 222.172 185.441 217.904C183.526 213.721 181.879 209.476 180.379 205.207C179.635 203.072 178.915 200.925 178.268 198.766C177.622 196.607 177.049 194.485 176.427 192.094C175.843 189.906 176.152 187.575 177.287 185.614C178.421 183.654 180.288 182.225 182.477 181.641C184.665 181.057 186.996 181.366 188.956 182.501C190.917 183.635 192.346 185.502 192.93 187.691L193.003 187.91Z" fill="#9468B4"/>
<path d="M157.923 140.522C160.057 150.524 160.789 156.489 166.668 160.917C175.512 167.577 187.295 161.088 188.197 150.634C189.002 141.23 185.392 126.446 174.902 123.897C172.59 123.325 170.171 123.354 167.874 123.98C165.577 124.606 163.478 125.81 161.777 127.476C160.075 129.141 158.828 131.214 158.154 133.498C157.479 135.781 157.4 138.199 157.923 140.522Z" fill="#B55B52"/>
<path d="M179.476 141.571C184.257 141.205 183.977 138.997 182.903 137.375C181.83 135.753 180.525 129.922 180.525 129.922C180.525 129.922 187.173 131.679 185.806 125.312C184.44 118.944 175.463 110.882 167.62 115.822C151.995 113.248 146.884 119.554 149.323 125.385C136.918 130.874 145.871 141.986 150.811 141.986C146.408 145.913 152.983 151.573 163.643 157.928C171.45 148.524 182.964 151.049 179.476 141.571Z" fill="#263238"/>
<path d="M169.816 119.018C169.653 119.016 169.493 118.981 169.345 118.916C169.196 118.851 169.062 118.757 168.95 118.64C167.132 116.812 164.866 115.492 162.379 114.814C159.892 114.135 157.27 114.121 154.776 114.773C154.462 114.846 154.132 114.793 153.858 114.624C153.584 114.454 153.388 114.184 153.312 113.87C153.239 113.557 153.293 113.227 153.462 112.952C153.631 112.678 153.902 112.482 154.215 112.407C157.125 111.664 160.178 111.692 163.074 112.488C165.97 113.283 168.608 114.819 170.731 116.944C170.958 117.173 171.085 117.482 171.085 117.804C171.085 118.126 170.958 118.436 170.731 118.664C170.611 118.783 170.468 118.876 170.31 118.937C170.153 118.998 169.984 119.025 169.816 119.018Z" fill="#263238"/>
<path d="M153.654 153.099C153.493 153.1 153.334 153.069 153.185 153.008C153.037 152.947 152.902 152.858 152.788 152.745C149.348 149.281 147.909 146.573 148.348 144.207C148.553 143.312 148.977 142.483 149.581 141.793C150.186 141.104 150.952 140.575 151.812 140.254C152.105 140.115 152.441 140.098 152.746 140.207C153.051 140.316 153.301 140.541 153.44 140.834C153.579 141.127 153.597 141.463 153.488 141.768C153.379 142.073 153.154 142.323 152.861 142.462C151.58 143.072 150.897 143.78 150.751 144.621C150.604 145.463 151.092 147.573 154.52 151.013C154.634 151.126 154.725 151.261 154.787 151.41C154.849 151.558 154.881 151.718 154.881 151.879C154.881 152.04 154.849 152.199 154.787 152.348C154.725 152.497 154.634 152.631 154.52 152.745C154.406 152.858 154.271 152.947 154.122 153.008C153.973 153.069 153.814 153.1 153.654 153.099Z" fill="#263238"/>
<path d="M173.597 140.79C174.416 143.198 176.001 145.272 178.11 146.694C180.903 148.536 182.794 146.45 182.428 143.437C182.099 140.717 180.245 136.484 177.244 135.838C174.244 135.191 172.658 137.875 173.597 140.79Z" fill="#B55B52"/>
<path d="M268.97 398.697C270.287 398.697 271.568 398.514 271.995 397.929C272.105 397.771 272.164 397.584 272.164 397.392C272.164 397.2 272.105 397.013 271.995 396.855C271.912 396.713 271.802 396.589 271.67 396.49C271.537 396.391 271.387 396.321 271.227 396.282C269.507 395.819 265.909 397.868 265.75 397.965C265.707 397.988 265.673 398.025 265.654 398.069C265.634 398.113 265.629 398.162 265.64 398.209C265.646 398.258 265.667 398.304 265.699 398.341C265.732 398.378 265.775 398.405 265.823 398.417C266.863 398.596 267.915 398.69 268.97 398.697ZM270.605 396.697C270.761 396.697 270.917 396.717 271.068 396.758C271.169 396.777 271.264 396.818 271.348 396.877C271.432 396.935 271.503 397.011 271.556 397.099C271.727 397.404 271.666 397.551 271.556 397.636C271.068 398.307 268.458 398.319 266.543 398.051C267.812 397.335 269.208 396.876 270.653 396.697H270.605Z" fill="#9468B4"/>
<path d="M265.848 398.417H265.945C267.165 397.868 269.666 395.636 269.47 394.465C269.47 394.196 269.239 393.855 268.568 393.782C268.326 393.757 268.081 393.78 267.849 393.852C267.616 393.923 267.4 394.04 267.214 394.196C265.896 395.282 265.616 398.063 265.604 398.173C265.602 398.216 265.611 398.258 265.631 398.297C265.65 398.335 265.678 398.368 265.713 398.392C265.753 398.417 265.801 398.426 265.848 398.417ZM268.373 394.233H268.519C268.958 394.233 268.982 394.452 268.995 394.501C269.104 395.209 267.433 396.941 266.153 397.721C266.27 396.545 266.747 395.433 267.519 394.538C267.758 394.338 268.061 394.23 268.373 394.233Z" fill="#9468B4"/>
<path d="M254.125 398.174H264.444L262.481 374.291H252.161L254.125 398.174Z" fill="#B55B52"/>
<path d="M264.457 396.978H253.198C253.002 396.971 252.81 397.041 252.665 397.173C252.519 397.305 252.43 397.489 252.418 397.685L251.747 406.809C251.739 407.046 251.778 407.282 251.862 407.504C251.947 407.725 252.074 407.928 252.238 408.099C252.402 408.271 252.598 408.408 252.815 408.503C253.032 408.598 253.266 408.648 253.503 408.651C257.553 408.578 263.383 408.346 268.494 408.346C274.459 408.346 275.081 408.663 282.082 408.663C286.315 408.663 286.852 404.382 285.022 404.004C276.703 402.235 274.666 402.04 267.055 397.746C266.268 397.273 265.374 397.009 264.457 396.978Z" fill="#263238"/>
<path opacity="0.2" d="M262.468 374.302L263.493 386.61H253.174L252.161 374.302H262.468Z" fill="black"/>
<path d="M204.786 398.698C205.655 398.798 206.53 398.558 207.226 398.027C207.355 397.85 207.424 397.636 207.424 397.417C207.424 397.198 207.355 396.984 207.226 396.807C207.145 396.664 207.035 396.54 206.902 396.443C206.77 396.346 206.618 396.279 206.457 396.246C204.957 395.892 202.103 397.844 201.981 397.929C201.944 397.957 201.915 397.995 201.898 398.038C201.881 398.081 201.876 398.128 201.883 398.173C201.89 398.219 201.912 398.262 201.945 398.294C201.978 398.327 202.02 398.349 202.066 398.356C202.957 398.57 203.87 398.684 204.786 398.698ZM206.079 396.734C206.18 396.721 206.283 396.721 206.384 396.734C206.478 396.753 206.568 396.792 206.646 396.849C206.723 396.906 206.788 396.979 206.835 397.063C207.055 397.466 206.921 397.636 206.835 397.685C206.396 398.271 204.286 398.271 202.749 398.015C203.726 397.35 204.838 396.913 206.006 396.734H206.079Z" fill="#9468B4"/>
<path d="M202.127 398.417H202.237C203.31 397.832 205.371 395.575 205.152 394.429C205.115 394.248 205.018 394.085 204.876 393.967C204.734 393.849 204.556 393.784 204.371 393.782C204.186 393.759 203.998 393.775 203.819 393.83C203.64 393.885 203.475 393.976 203.334 394.099C202.115 395.075 201.883 398.051 201.883 398.173C201.878 398.218 201.885 398.264 201.905 398.305C201.924 398.346 201.955 398.38 201.993 398.405C202.035 398.422 202.082 398.426 202.127 398.417ZM204.2 394.233H204.31C204.627 394.233 204.664 394.416 204.676 394.477C204.798 395.16 203.456 396.917 202.42 397.673C202.494 396.498 202.919 395.372 203.639 394.441C203.796 394.308 203.995 394.235 204.2 394.233Z" fill="#9468B4"/>
<path d="M192.686 398.174H202.993L208.177 374.291H197.87L192.686 398.174Z" fill="#B55B52"/>
<path d="M203.725 396.978H192.15C191.944 396.977 191.744 397.046 191.584 397.175C191.424 397.304 191.314 397.484 191.271 397.686L189.234 406.809C189.185 407.033 189.186 407.264 189.239 407.487C189.291 407.709 189.393 407.917 189.538 408.094C189.682 408.271 189.865 408.414 190.072 408.51C190.28 408.607 190.506 408.655 190.735 408.651C194.784 408.578 196.748 408.346 201.847 408.346C204.981 408.346 208.995 408.663 213.325 408.663C217.655 408.663 218.204 404.382 216.447 404.004C208.507 402.26 207.909 399.869 205.408 397.576C204.939 397.177 204.34 396.964 203.725 396.978Z" fill="#263238"/>
<path d="M168.193 262.633C168.193 262.633 225.4 279.991 226.815 302.971C229.413 345.297 208.653 381.365 208.653 381.365H193.186C193.186 381.365 199.066 363.483 201.176 325.146C203.823 276.966 112.719 326.268 129.563 262.633H168.193Z" fill="black"/>
<g opacity="0.2">
<path opacity="0.2" d="M197.858 374.302H208.177L205.506 386.61H195.187L197.858 374.302Z" fill="black"/>
</g>
<path d="M184.721 262.633C184.721 262.633 258.7 267.512 261.627 306.777C264.982 351.908 265.958 381.365 265.958 381.365H250.637C250.637 381.365 242.758 353.689 236 313.9C233.963 301.983 208.69 299.934 184.77 298.519C164.156 297.299 148.324 296.079 146.592 273.245L146.86 262.633H184.721Z" fill="#263238"/>
<path d="M269.702 377.266C269.788 377.266 268.714 384.584 268.714 384.584H247.478L246.905 378.107L269.702 377.266Z" fill="#9468B4"/>
<path d="M213.324 377.266C213.41 377.266 211.373 384.584 211.373 384.584H190.149L190.539 378.107L213.324 377.266Z" fill="#9468B4"/>
<path d="M181.391 295.274L171.035 224.93C170.757 223.026 169.803 221.285 168.347 220.026C166.891 218.768 165.031 218.075 163.107 218.075H102.009C100.857 218.075 99.7195 218.323 98.6726 218.802C97.6256 219.281 96.6943 219.98 95.9419 220.852C95.1895 221.724 94.6338 222.747 94.3126 223.853C93.9913 224.959 93.9122 226.12 94.0804 227.26L104.082 295.274C104.082 296.056 104.237 296.831 104.537 297.554C104.837 298.277 105.276 298.934 105.83 299.487C106.384 300.04 107.042 300.478 107.765 300.776C108.489 301.075 109.264 301.228 110.047 301.226H221.424C221.424 300.443 221.269 299.668 220.969 298.945C220.67 298.222 220.23 297.566 219.676 297.013C219.122 296.46 218.464 296.022 217.741 295.723C217.017 295.425 216.242 295.272 215.459 295.274H181.391Z" fill="#9468B4"/>
<path opacity="0.5" d="M181.391 295.274L171.035 224.93C170.757 223.026 169.803 221.285 168.347 220.026C166.891 218.768 165.031 218.075 163.107 218.075H102.009C100.857 218.075 99.7195 218.323 98.6726 218.802C97.6256 219.281 96.6943 219.98 95.9419 220.852C95.1895 221.724 94.6338 222.747 94.3126 223.853C93.9913 224.959 93.9122 226.12 94.0804 227.26L104.082 295.274C104.082 296.056 104.237 296.831 104.537 297.554C104.837 298.277 105.276 298.934 105.83 299.487C106.384 300.04 107.042 300.478 107.765 300.776C108.489 301.075 109.264 301.228 110.047 301.226H221.424C221.424 300.443 221.269 299.668 220.969 298.945C220.67 298.222 220.23 297.566 219.676 297.013C219.122 296.46 218.464 296.022 217.741 295.723C217.017 295.425 216.242 295.272 215.459 295.274H181.391Z" fill="white"/>
<path opacity="0.3" d="M163.107 218.075H102.009C100.857 218.075 99.7195 218.323 98.6726 218.802C97.6256 219.281 96.6943 219.98 95.9419 220.852C95.1895 221.724 94.6338 222.747 94.3126 223.853C93.9913 224.959 93.9122 226.12 94.0804 227.26L104.082 295.274C104.082 296.056 104.237 296.831 104.537 297.554C104.837 298.277 105.276 298.934 105.83 299.487C106.384 300.04 107.042 300.478 107.765 300.776C108.489 301.075 109.264 301.228 110.047 301.226H174.829L163.107 218.075Z" fill="#9468B4"/>
<path d="M104.863 409.541H101.411L110.047 301.226H113.511L104.863 409.541Z" fill="#9468B4"/>
<path opacity="0.6" d="M104.863 409.541H101.411L110.047 301.226H113.511L104.863 409.541Z" fill="white"/>
<path d="M163.595 409.541H160.143L168.791 301.226H172.243L163.595 409.541Z" fill="#9468B4"/>
<path opacity="0.6" d="M163.595 409.541H160.143L168.791 301.226H172.243L163.595 409.541Z" fill="white"/>
<path d="M168.913 409.541H165.449L156.813 301.226H160.265L168.913 409.541Z" fill="#9468B4"/>
<path opacity="0.7" d="M168.913 409.541H165.449L156.813 301.226H160.265L168.913 409.541Z" fill="white"/>
<path d="M227.644 409.541H224.193L215.544 301.226H218.996L227.644 409.541Z" fill="#9468B4"/>
<path opacity="0.7" d="M227.644 409.541H224.193L215.544 301.226H218.996L227.644 409.541Z" fill="white"/>
</svg>
