<svg width="240" height="217" viewBox="0 0 240 217" fill="none" xmlns="http://www.w3.org/2000/svg">
<path d="M24.0695 36.1751C49.7108 17.447 77.9144 69.8499 107.003 83.2121C136.092 96.5743 172.867 35.2654 218.406 65.2638C246.084 83.4906 249.216 178.592 132.62 185.877C16.0237 193.161 -25.3565 72.2822 24.0695 36.1751Z" fill="#9468B4"/>
<path opacity="0.9" d="M24.0695 36.1751C49.7108 17.447 77.9144 69.8499 107.003 83.2121C136.092 96.5743 172.867 35.2654 218.406 65.2638C246.084 83.4906 249.216 178.592 132.62 185.877C16.0237 193.161 -25.3565 72.2822 24.0695 36.1751Z" fill="white"/>
<path d="M120 216.419C186.274 216.419 240 213.283 240 209.413C240 205.544 186.274 202.407 120 202.407C53.7258 202.407 0 205.544 0 209.413C0 213.283 53.7258 216.419 120 216.419Z" fill="#F5F5F5"/>
<path d="M148.581 66.6066L148.773 61.8224C148.773 61.8224 150.054 60.5536 150.054 59.7305C150.054 58.9073 148.581 54.1975 147.938 53.9746C147.294 53.7518 143.834 55.3919 143.772 56.4503C143.71 57.5086 145.567 61.4015 145.889 61.6862L145.375 66.7675L148.581 66.6066Z" fill="#E4897B"/>
<path d="M200.712 60.0029L199.066 55.2682C198.364 54.7672 197.714 54.1993 197.122 53.5724C196.67 52.9535 199.189 48.4912 199.561 48.4912C200.781 48.9463 201.925 49.585 202.952 50.3851C203.324 50.8307 201.355 54.4699 201.355 54.4699L203.8 58.5547L200.712 60.0029Z" fill="#E4897B"/>
<path d="M191.137 59.2045C193.409 59.4273 204.32 71.0937 204.32 71.0937L199.61 58.01L203.323 56.7412C203.323 56.7412 212.52 71.3908 210.503 76.7691C208.485 82.1474 190.469 69.8187 190.469 69.8187L191.137 59.2045Z" fill="#9468B4"/>
<path d="M156.218 198.428L153.675 195.104L157.982 190.945L161.9 187.17L165.582 190.611L160.631 194.752L156.218 198.428Z" fill="#E4897B"/>
<path d="M153.526 194.083C153.904 193.817 157.054 198.539 157.054 198.539C157.054 198.539 156.355 203.491 157.778 206.641C159.202 209.791 156.435 209.55 154.133 206.542L148.451 199.115C146.817 196.955 149.658 196.887 153.526 194.083Z" fill="#2E353A"/>
<path d="M157.005 199.456C157.005 199.456 159.115 198.775 159.363 199.914C159.641 201.226 157.005 199.456 157.005 199.456ZM157.005 199.456C157.005 199.456 159.134 201.04 158.57 201.758C157.716 202.835 157.005 199.456 157.005 199.456Z" stroke="#9468B4" stroke-width="0.48312" stroke-linecap="round" stroke-linejoin="round"/>
<path opacity="0.2" d="M160.631 194.752L157.982 190.945L161.9 187.17L165.582 190.611L160.631 194.752Z" fill="black"/>
<path d="M181.674 203.695H177.484L176.797 197.865L176.178 192.518L181.148 191.707L181.427 198.057L181.674 203.695Z" fill="#E4897B"/>
<path d="M176.587 203.429C176.587 202.965 182.268 203.33 182.268 203.33C182.268 203.33 185.759 206.876 189.144 207.662C192.53 208.448 190.642 210.503 186.842 210.503H177.484C174.792 210.503 176.475 208.213 176.587 203.429Z" fill="#2E353A"/>
<path d="M182.968 203.924C182.968 203.924 183.71 201.832 184.762 202.327C186 202.902 182.968 203.924 182.968 203.924ZM182.968 203.924C182.968 203.924 185.524 203.193 185.747 204.072C186.087 205.409 182.968 203.924 182.968 203.924Z" stroke="#9468B4" stroke-width="0.48312" stroke-linecap="round" stroke-linejoin="round"/>
<path opacity="0.2" d="M181.427 198.186L176.797 197.982L176.178 192.573L181.148 191.737L181.427 198.186Z" fill="black"/>
<path d="M192.121 102.974C192.121 102.974 204.499 132.217 206.437 145.059C208.374 157.902 164.437 192.288 164.437 192.288L159.944 187.51C159.944 187.51 192.635 153.904 192.635 148.123C192.635 142.342 179.885 115.94 179.885 115.94C179.885 115.94 178.654 105.288 192.121 102.974Z" fill="#9468B4"/>
<path opacity="0.6" d="M183.166 176.278C178.679 180.412 174.334 184.144 170.961 186.966C167.043 190.234 164.437 192.276 164.437 192.276L159.944 187.498C159.944 187.498 164.437 182.888 170.082 176.779C174.526 171.976 179.694 166.258 183.958 161.133C188.909 155.192 192.623 150.061 192.623 148.136C192.623 145.085 189.076 136.309 185.728 128.684C182.72 121.876 179.873 115.953 179.873 115.953C179.788 114.737 179.907 113.515 180.226 112.338C181.086 109.027 183.803 104.429 192.115 102.999C192.115 102.999 204.493 132.242 206.424 145.085C207.501 152.06 194.851 165.521 183.166 176.278Z" fill="white"/>
<path opacity="0.2" d="M183.958 161.133L183.166 176.277C178.679 180.412 174.334 184.144 170.961 186.966C170.186 183.629 169.89 180.199 170.082 176.779C174.526 171.976 179.694 166.257 183.958 161.133Z" fill="black"/>
<path opacity="0.2" d="M185.74 128.659C182.733 121.851 179.886 115.928 179.886 115.928C179.8 114.712 179.92 113.49 180.238 112.313C180.665 112.024 181.141 111.814 181.643 111.694C181.643 111.694 185.301 117.469 185.74 128.659Z" fill="black"/>
<path d="M169.828 35.8598C169.828 35.8598 173.585 31.1747 179.731 32.2206C185.877 33.2666 184.812 44.6359 184.812 44.6359C185.96 45.6184 186.815 46.8987 187.282 48.3357C187.75 49.7727 187.811 51.3108 187.461 52.7807C186.26 57.9362 172.242 60.9194 166.882 57.3359C161.523 53.7524 165.644 42.3831 168.25 40.7739C170.856 39.1648 169.828 35.8598 169.828 35.8598Z" fill="#2E353A"/>
<path d="M181.761 111.725L182.51 152.895V195.03H175.497C158.75 115.191 170.231 95.1755 170.231 95.1755H170.274C170.274 95.1445 170.274 95.1074 170.311 95.0826C173.003 89.104 190.642 93.5106 190.642 93.5106C191.911 98.4619 192.691 108.532 192.691 108.532L181.761 111.725Z" fill="#9468B4"/>
<path opacity="0.6" d="M181.761 111.725L182.51 152.895V195.03H175.497C158.75 115.191 170.231 95.1755 170.231 95.1755H170.274C170.274 95.1445 170.274 95.1074 170.311 95.0826C173.003 89.104 190.642 93.5106 190.642 93.5106C191.911 98.4619 192.691 108.532 192.691 108.532L181.761 111.725Z" fill="white"/>
<path d="M170.131 92.0939V95.0894L190.555 93.5236V89.9834L170.131 92.0939Z" fill="#2E353A"/>
<path d="M176.978 90.8565L175.964 90.9082L176.227 96.0694L177.241 96.0177L176.978 90.8565Z" fill="#9468B4"/>
<path d="M185.836 90.6987L181.373 91.0986L181.677 94.4829L186.14 94.083L185.836 90.6987Z" fill="white"/>
<path d="M189.462 89.4737L188.448 89.5254L188.711 94.6866L189.725 94.6349L189.462 89.4737Z" fill="#9468B4"/>
<path opacity="0.6" d="M176.978 90.8565L175.964 90.9082L176.227 96.0694L177.241 96.0177L176.978 90.8565Z" fill="white"/>
<path opacity="0.6" d="M189.462 89.4737L188.448 89.5254L188.711 94.6866L189.725 94.6349L189.462 89.4737Z" fill="white"/>
<path d="M190.642 90.3422L170.218 92.1061C169.735 84.5121 169.253 79.6166 164.753 66.112C164.363 64.9299 163.942 63.6735 163.478 62.349C166.252 61.4636 169.085 60.7789 171.957 60.3005C174.988 59.7622 178.053 59.4396 181.13 59.335C185.103 59.335 189.67 59.7496 189.67 59.7496C189.67 59.7496 190.32 59.9044 190.729 64.1191C191.094 68.043 191.459 75.9526 190.642 90.3422Z" fill="#9468B4"/>
<path opacity="0.3" d="M190.642 90.3422L170.218 92.1061C169.735 84.5121 169.253 79.6166 164.753 66.112C164.363 64.9299 163.942 63.6735 163.478 62.349C166.252 61.4636 169.085 60.7789 171.957 60.3005C174.988 59.7622 178.053 59.4396 181.13 59.335C185.103 59.335 189.67 59.7496 189.67 59.7496C189.67 59.7496 190.32 59.9044 190.729 64.1191C191.094 68.043 191.459 75.9526 190.642 90.3422Z" fill="black"/>
<path d="M179.415 63.8213C174.377 63.2023 172.867 61.0238 172.867 61.0238C176.061 58.0097 173.406 52.7861 173.406 52.7861L179.465 53.9187C179.322 54.7637 179.244 55.6181 179.229 56.4748C179.18 60.1511 180.845 60.1883 180.845 60.1883C181.934 62.175 179.415 63.8213 179.415 63.8213Z" fill="#E4897B"/>
<path opacity="0.2" d="M179.489 53.9191C179.347 54.764 179.269 55.6185 179.254 56.4752C176.333 55.7944 173.43 52.7617 173.43 52.7617L179.489 53.9191Z" fill="black"/>
<path d="M174.086 37.1409C179.223 35.903 181.513 38.2858 183.153 43.4847C185.189 49.9832 184.837 55.0273 178.084 55.1387C168.894 55.2872 165.564 39.1647 174.086 37.1409Z" fill="#E4897B"/>
<path d="M179.768 44.0166C180.361 44.6863 181.032 45.2826 181.767 45.7929C181.666 46.0434 181.496 46.2604 181.277 46.4191C181.058 46.5778 180.799 46.6718 180.529 46.6903L179.768 44.0166Z" fill="#DE5753"/>
<path d="M176.525 44.3079C176.636 44.7287 176.525 45.1248 176.222 45.1991C175.918 45.2734 175.603 44.9948 175.516 44.5802C175.429 44.1655 175.516 43.7632 175.819 43.6889C176.123 43.6147 176.42 43.887 176.525 44.3079Z" fill="#2E353A"/>
<path d="M175.702 43.7322L176.525 43.1133C176.525 43.1133 176.277 44.0169 175.702 43.7322Z" fill="#2E353A"/>
<path d="M181.718 42.8596C181.829 43.2743 181.687 43.6766 181.408 43.7508C181.13 43.8251 180.789 43.5404 180.703 43.1319C180.616 42.7235 180.734 42.315 181.012 42.2407C181.291 42.1664 181.606 42.4388 181.718 42.8596Z" fill="#2E353A"/>
<path d="M180.901 42.2781L181.717 41.6592C181.717 41.6592 181.464 42.569 180.901 42.2781Z" fill="#2E353A"/>
<path d="M175.634 40.7734C175.216 40.8204 174.815 40.9626 174.461 41.189C174.107 41.4154 173.809 41.72 173.591 42.0793" stroke="#2E353A" stroke-width="0.72468" stroke-linecap="round" stroke-linejoin="round"/>
<path d="M179.316 39.6843C179.646 39.5133 180.011 39.419 180.383 39.4083C180.755 39.3975 181.124 39.4707 181.464 39.6224" stroke="#2E353A" stroke-width="0.72468" stroke-linecap="round" stroke-linejoin="round"/>
<path d="M180.282 48.8562C180.177 49.4929 180.117 50.136 180.102 50.781L179.768 50.8305C178.239 51.0348 177.459 50.6201 177.063 50.1064C176.875 49.848 176.75 49.5491 176.698 49.2338C176.673 49.0552 176.673 48.8739 176.698 48.6953C177.702 48.9915 178.757 49.0675 179.793 48.9181C180.077 48.8934 180.282 48.8562 180.282 48.8562Z" fill="#2E353A"/>
<path d="M179.755 48.9181L179.694 49.4875C178.252 49.6732 177.218 49.6113 176.698 49.2338C176.673 49.0552 176.673 48.8739 176.698 48.6953C177.69 48.9862 178.732 49.0621 179.755 48.9181Z" fill="white"/>
<path d="M179.768 50.8245C178.239 51.0288 177.459 50.6141 177.063 50.1004C177.643 50.0332 178.229 50.0688 178.796 50.2056C179.178 50.3037 179.518 50.5204 179.768 50.8245Z" fill="#DE5753"/>
<path d="M170.528 47.1112C170.528 47.1112 171.926 42.327 170.794 39.1582C170.794 39.1582 179.978 32.5916 182.931 42.7974C182.931 42.7974 181.755 33.39 172.88 35.2777C164.004 37.1653 167.105 50.0696 172.57 52.8361C172.57 52.8485 169.667 50.1129 170.528 47.1112Z" fill="#2E353A"/>
<path d="M171.623 48.0088C171.432 47.4281 171.019 46.9466 170.474 46.6694C169.929 46.3923 169.296 46.342 168.714 46.5296C167.161 47.0743 167.179 50.5216 171.32 50.373C171.914 50.3483 172.106 49.717 171.623 48.0088Z" fill="#E4897B"/>
<path d="M190.723 64.0879C183.048 67.8818 171.289 66.9967 164.729 66.0807C164.339 64.8986 163.918 63.6423 163.454 62.3178C166.227 61.4323 169.061 60.7477 171.933 60.2692C174.963 59.731 178.028 59.4083 181.105 59.3037C185.078 59.3037 189.646 59.7184 189.646 59.7184C189.646 59.7184 190.314 59.8731 190.723 64.0879Z" fill="#E4897B"/>
<path d="M167.761 60.251C167.761 60.251 173.263 67.2818 173.43 74.9005C173.597 82.5193 168.516 117.667 168.516 117.667L162.389 115.934C162.389 115.934 167.018 88.8878 162.389 62.7637L167.761 60.251Z" fill="#9468B4"/>
<path d="M184.812 59.4893C184.812 59.4893 187.052 66.7738 186.755 72.0098C186.458 77.2457 192.121 103.023 192.121 103.023L193.768 106.984L192.14 90.9978C192.14 90.9978 193.124 67.5351 191.137 59.4893H184.812Z" fill="#9468B4"/>
<path d="M174.086 37.1405C174.086 37.1405 175.986 43.6081 170.2 46.5355C163.206 50.0757 163.874 57.7254 170.695 58.6971C170.695 58.6971 163.806 58.0039 162.47 53.5044C161.133 49.005 164.945 42.0794 164.945 42.0794C164.945 42.0794 162.853 38.2731 168.504 35.2714C171.673 33.6004 174.086 37.1405 174.086 37.1405Z" fill="#2E353A"/>
<path d="M174.594 194.022L183.358 192.734L182.627 196.237L175.392 197.209L174.594 194.022Z" fill="#9468B4"/>
<path d="M159.944 185.883L165.824 192.276L162.884 193.96L158.348 189.144L159.944 185.883Z" fill="#9468B4"/>
<path d="M194.776 45.4772C193.718 43.5833 191.682 42.7169 190.184 43.5462C188.686 44.3755 188.371 46.5726 189.423 48.4665C190.475 50.3604 192.517 51.2206 194.015 50.3975C195.513 49.5743 195.835 47.3648 194.776 45.4772Z" fill="#9468B4"/>
<path d="M206.789 38.8427L203.15 32.1523C203.15 32.1523 200.613 37.6049 196.961 39.6473L198.818 42.9647L199.109 43.4845L200.965 46.8019C204.617 44.7595 210.589 45.4465 210.589 45.4465L206.789 38.8427Z" fill="#9468B4"/>
<path opacity="0.8" d="M194.776 45.4772C193.718 43.5833 191.682 42.7169 190.184 43.5462C188.686 44.3755 188.371 46.5726 189.423 48.4665C190.475 50.3604 192.517 51.2206 194.015 50.3975C195.513 49.5743 195.835 47.3648 194.776 45.4772Z" fill="white"/>
<path opacity="0.8" d="M206.789 38.8427L203.15 32.1523C203.15 32.1523 200.613 37.6049 196.961 39.6473L198.818 42.9647L199.109 43.4845L200.965 46.8019C204.617 44.7595 210.589 45.4465 210.589 45.4465L206.789 38.8427Z" fill="white"/>
<path d="M194.529 49.3952C194.529 49.3952 197.159 53.2015 199.616 54.594C199.701 54.6401 199.8 54.6542 199.894 54.6338C199.988 54.6133 200.072 54.5597 200.13 54.4826L202.228 51.8894C202.264 51.8403 202.289 51.7838 202.301 51.7241C202.312 51.6643 202.311 51.6027 202.296 51.5436C202.281 51.4845 202.254 51.4294 202.215 51.3822C202.177 51.335 202.128 51.2969 202.073 51.2705C201.04 50.8125 198.626 49.6365 197.234 47.9903C195.426 45.8365 194.529 49.3952 194.529 49.3952Z" fill="#9468B4"/>
<path opacity="0.3" d="M194.529 49.3952C194.529 49.3952 197.159 53.2015 199.616 54.594C199.701 54.6401 199.8 54.6542 199.894 54.6338C199.988 54.6133 200.072 54.5597 200.13 54.4826L202.228 51.8894C202.264 51.8403 202.289 51.7838 202.301 51.7241C202.312 51.6643 202.311 51.6027 202.296 51.5436C202.281 51.4845 202.254 51.4294 202.215 51.3822C202.177 51.335 202.128 51.2969 202.073 51.2705C201.04 50.8125 198.626 49.6365 197.234 47.9903C195.426 45.8365 194.529 49.3952 194.529 49.3952Z" fill="black"/>
<path d="M210.546 45.6444C209.711 46.1086 207.334 43.4535 205.242 39.7091C203.15 35.9647 202.148 32.5545 202.971 32.0842C203.794 31.6138 206.183 34.2751 208.275 38.0133C210.367 41.7515 211.388 45.1741 210.546 45.6444Z" fill="white"/>
<path opacity="0.4" d="M210.206 44.5369C209.587 44.8897 207.73 42.7978 205.979 39.7961C205.88 39.629 205.781 39.4495 205.682 39.27C205.582 39.0905 205.446 38.8492 205.335 38.6511C203.732 35.6185 202.94 33.0067 203.559 32.6601C204.178 32.3135 206.263 34.6468 208.095 37.927C209.927 41.2072 210.874 44.1656 210.206 44.5369Z" fill="black"/>
<path d="M193.65 51.0906C193.65 51.0906 192.753 50.4717 191.125 47.538C189.361 44.3816 189.411 43.5028 189.411 43.5028L197.562 38.9414C197.562 38.9414 197.661 40.0864 199.313 43.0448C200.966 46.0031 201.789 46.5292 201.789 46.5292L193.65 51.0906Z" fill="#9468B4"/>
<path d="M205.979 39.7955C205.88 39.6284 205.781 39.4489 205.682 39.2694C205.583 39.09 205.446 38.8486 205.335 38.6505L206.177 38.3844C206.266 38.3566 206.363 38.3626 206.449 38.4014C206.534 38.4402 206.603 38.509 206.641 38.5948L206.709 38.7186C206.762 38.7951 206.786 38.8886 206.774 38.9811C206.763 39.0737 206.717 39.1588 206.647 39.2199L205.979 39.7955Z" fill="white"/>
<path opacity="0.2" d="M205.979 39.7955C205.88 39.6284 205.781 39.4489 205.682 39.2694C205.583 39.09 205.446 38.8486 205.335 38.6505L206.177 38.3844C206.266 38.3566 206.363 38.3626 206.449 38.4014C206.534 38.4402 206.603 38.509 206.641 38.5948L206.709 38.7186C206.762 38.7951 206.786 38.8886 206.774 38.9811C206.763 39.0737 206.717 39.1588 206.647 39.2199L205.979 39.7955Z" fill="black"/>
<path d="M162.389 62.7568C159.548 63.9947 149.392 82.1286 149.392 82.1286L149.194 64.9849L144.608 64.366C144.608 64.366 141.816 88.6829 147.795 90.0754C153.774 91.468 164.741 74.1324 164.741 74.1324L162.389 62.7568Z" fill="#9468B4"/>
<path d="M173.43 36.373C173.43 36.373 176.061 38.2731 174.105 43.2305" stroke="#2E353A" stroke-width="0.5" stroke-linecap="round" stroke-linejoin="round"/>
<path d="M184.249 44.2334C184.249 44.2334 191.484 48.9185 186.792 54.9529" stroke="#2E353A" stroke-width="0.5" stroke-linecap="round" stroke-linejoin="round"/>
<path d="M140.987 0H37.0477C33.4929 0 30.6111 2.88178 30.6111 6.43664V203.664C30.6111 207.219 33.4929 210.101 37.0477 210.101H140.987C144.542 210.101 147.424 207.219 147.424 203.664V6.43664C147.424 2.88178 144.542 0 140.987 0Z" fill="#2E353A"/>
<path d="M143.519 7.0428V202.692C143.519 203.071 143.443 203.446 143.297 203.796C143.15 204.146 142.936 204.463 142.666 204.729C142.396 204.995 142.075 205.205 141.723 205.346C141.371 205.487 140.995 205.557 140.616 205.551H37.184C36.8397 205.555 36.498 205.49 36.1794 205.359C35.8608 205.229 35.5719 205.035 35.3298 204.79C35.0877 204.545 34.8975 204.254 34.7706 203.934C34.6436 203.614 34.5825 203.271 34.5908 202.927V6.80761C34.5784 6.50389 34.626 6.20071 34.7311 5.91546C34.8361 5.63021 34.9965 5.36852 35.2029 5.1454C35.4094 4.92228 35.6578 4.74213 35.9341 4.61529C36.2103 4.48844 36.5089 4.41741 36.8127 4.40625H62.6706C63.0324 4.4127 63.384 4.52685 63.6805 4.7341C63.9771 4.94136 64.2051 5.23231 64.3355 5.56979L65.4062 8.20634C65.5385 8.54151 65.7674 8.82984 66.0638 9.03478C66.3602 9.23972 66.7108 9.35205 67.0711 9.35751H111.094C111.453 9.35601 111.803 9.2474 112.099 9.04561C112.396 8.84382 112.626 8.55804 112.759 8.22491L113.811 5.57598C113.946 5.23728 114.177 4.94575 114.477 4.73774C114.776 4.52973 115.13 4.41444 115.494 4.40625H140.981C141.665 4.42568 142.314 4.71279 142.789 5.20585C143.263 5.69891 143.525 6.35851 143.519 7.0428Z" fill="#9468B4"/>
<path opacity="0.2" d="M143.518 17.0947H34.5907V41.5416H143.518V17.0947Z" fill="white"/>
<path opacity="0.6" d="M46.876 12.2852H48.219V10.4903H46.876V12.2852Z" fill="white"/>
<path opacity="0.6" d="M44.6852 12.292H46.0282V9.89682H44.6852V12.292Z" fill="white"/>
<path opacity="0.6" d="M42.4941 12.292H43.8372V9.30267H42.4941V12.292Z" fill="white"/>
<path opacity="0.6" d="M40.297 12.2852H41.64V8.6955H40.297V12.2852Z" fill="white"/>
<path opacity="0.6" d="M131.475 9.84082H130.676V11.6357H131.475V9.84082Z" fill="white"/>
<path opacity="0.6" d="M132.013 12.292H138.369V9.19126H132.013V12.292Z" fill="white"/>
<path opacity="0.6" d="M86.5852 6.1586C87.4123 6.1586 88.0829 5.48803 88.0829 4.66085C88.0829 3.83366 87.4123 3.16309 86.5852 3.16309C85.758 3.16309 85.0874 3.83366 85.0874 4.66085C85.0874 5.48803 85.758 6.1586 86.5852 6.1586Z" fill="white"/>
<path opacity="0.6" d="M91.1093 4.66048C91.1093 4.85021 91.053 5.03568 90.9476 5.19344C90.8422 5.3512 90.6924 5.47415 90.5171 5.54676C90.3418 5.61937 90.1489 5.63837 89.9628 5.60135C89.7767 5.56434 89.6058 5.47297 89.4716 5.33881C89.3375 5.20465 89.2461 5.03372 89.2091 4.84763C89.1721 4.66154 89.1911 4.46866 89.2637 4.29337C89.3363 4.11808 89.4593 3.96825 89.617 3.86284C89.7748 3.75743 89.9602 3.70117 90.15 3.70117C90.4044 3.70117 90.6484 3.80224 90.8283 3.98215C91.0082 4.16205 91.1093 4.40606 91.1093 4.66048Z" fill="white"/>
<path opacity="0.2" d="M143.518 168.417V202.692C143.518 203.071 143.443 203.447 143.297 203.796C143.15 204.146 142.936 204.463 142.666 204.729C142.396 204.996 142.075 205.205 141.723 205.346C141.371 205.487 140.995 205.557 140.616 205.551H37.1839C36.8396 205.556 36.4979 205.491 36.1793 205.36C35.8607 205.229 35.5718 205.035 35.3297 204.79C35.0877 204.545 34.8975 204.254 34.7705 203.934C34.6435 203.614 34.5824 203.272 34.5907 202.927V168.417H143.518Z" fill="white"/>
<path d="M46.5542 102.943L89.0174 67.2627L131.475 102.943L98.1835 147.597L68.284 146.997L46.5542 102.943Z" fill="#9468B4"/>
<path opacity="0.3" d="M46.5542 102.943L89.0174 67.2627L131.475 102.943L98.1835 147.597L68.284 146.997L46.5542 102.943Z" fill="black"/>
<path d="M117.821 55.5039H60.2074C59.4383 55.5039 58.8148 56.1274 58.8148 56.8964V142.417C58.8148 143.186 59.4383 143.81 60.2074 143.81H117.821C118.591 143.81 119.214 143.186 119.214 142.417V56.8964C119.214 56.1274 118.591 55.5039 117.821 55.5039Z" fill="white"/>
<path opacity="0.2" d="M112.344 63.4756H65.6909C65.4447 63.4756 65.2452 63.6751 65.2452 63.9212V64.8248C65.2452 65.0709 65.4447 65.2704 65.6909 65.2704H112.344C112.59 65.2704 112.79 65.0709 112.79 64.8248V63.9212C112.79 63.6751 112.59 63.4756 112.344 63.4756Z" fill="black"/>
<path opacity="0.2" d="M112.344 69.46H65.6909C65.4447 69.46 65.2452 69.6595 65.2452 69.9056V70.8092C65.2452 71.0553 65.4447 71.2548 65.6909 71.2548H112.344C112.59 71.2548 112.79 71.0553 112.79 70.8092V69.9056C112.79 69.6595 112.59 69.46 112.344 69.46Z" fill="black"/>
<path opacity="0.2" d="M112.344 75.4453H65.6909C65.4447 75.4453 65.2452 75.6448 65.2452 75.8909V76.7945C65.2452 77.0406 65.4447 77.2401 65.6909 77.2401H112.344C112.59 77.2401 112.79 77.0406 112.79 76.7945V75.8909C112.79 75.6448 112.59 75.4453 112.344 75.4453Z" fill="black"/>
<path opacity="0.2" d="M112.344 81.4297H65.6909C65.4447 81.4297 65.2452 81.6292 65.2452 81.8753V82.7789C65.2452 83.025 65.4447 83.2245 65.6909 83.2245H112.344C112.59 83.2245 112.79 83.025 112.79 82.7789V81.8753C112.79 81.6292 112.59 81.4297 112.344 81.4297Z" fill="black"/>
<path opacity="0.2" d="M112.344 87.415H65.6909C65.4447 87.415 65.2452 87.6145 65.2452 87.8607V88.7643C65.2452 89.0104 65.4447 89.2099 65.6909 89.2099H112.344C112.59 89.2099 112.79 89.0104 112.79 88.7643V87.8607C112.79 87.6145 112.59 87.415 112.344 87.415Z" fill="black"/>
<path opacity="0.2" d="M112.344 93.3994H65.6909C65.4447 93.3994 65.2452 93.5989 65.2452 93.845V94.7486C65.2452 94.9947 65.4447 95.1943 65.6909 95.1943H112.344C112.59 95.1943 112.79 94.9947 112.79 94.7486V93.845C112.79 93.5989 112.59 93.3994 112.344 93.3994Z" fill="black"/>
<path opacity="0.2" d="M112.344 99.3848H65.6909C65.4447 99.3848 65.2452 99.5843 65.2452 99.8304V100.734C65.2452 100.98 65.4447 101.18 65.6909 101.18H112.344C112.59 101.18 112.79 100.98 112.79 100.734V99.8304C112.79 99.5843 112.59 99.3848 112.344 99.3848Z" fill="black"/>
<path opacity="0.2" d="M112.344 105.363H65.6909C65.4447 105.363 65.2452 105.563 65.2452 105.809V106.713C65.2452 106.959 65.4447 107.158 65.6909 107.158H112.344C112.59 107.158 112.79 106.959 112.79 106.713V105.809C112.79 105.563 112.59 105.363 112.344 105.363Z" fill="black"/>
<path opacity="0.2" d="M112.344 111.348H65.6909C65.4447 111.348 65.2452 111.547 65.2452 111.793V112.697C65.2452 112.943 65.4447 113.142 65.6909 113.142H112.344C112.59 113.142 112.79 112.943 112.79 112.697V111.793C112.79 111.547 112.59 111.348 112.344 111.348Z" fill="black"/>
<path d="M91.2889 134.062L91.0537 133.932C90.633 133.696 90.1589 133.572 89.6766 133.572C89.1944 133.572 88.7202 133.696 88.2995 133.932L87.1546 134.582L46.35 102.943V155.167C46.3515 155.531 46.4255 155.89 46.5675 156.225C46.7095 156.56 46.9167 156.863 47.177 157.117C47.4374 157.371 47.7457 157.571 48.084 157.705C48.4223 157.839 48.7838 157.904 49.1474 157.896H128.887C130.422 157.896 131.14 156.714 131.14 155.167V102.943L91.2889 134.062Z" fill="#9468B4"/>
<path opacity="0.6" d="M91.2889 134.062L91.0537 133.932C90.633 133.696 90.1589 133.572 89.6766 133.572C89.1944 133.572 88.7202 133.696 88.2995 133.932L87.1546 134.582L46.35 102.943V155.167C46.3515 155.531 46.4255 155.89 46.5675 156.225C46.7095 156.56 46.9167 156.863 47.177 157.117C47.4374 157.371 47.7457 157.571 48.084 157.705C48.4223 157.839 48.7838 157.904 49.1474 157.896H128.887C130.422 157.896 131.14 156.714 131.14 155.167V102.943L91.2889 134.062Z" fill="white"/>
<path opacity="0.2" d="M85.3103 133.164L87.1546 134.594L58.3197 150.964L85.3103 133.164Z" fill="black"/>
<path opacity="0.2" d="M122.785 151.582L91.2455 134.092L92.6999 132.953L122.785 151.582Z" fill="black"/>
<path d="M107.312 20.9131H72.8578C72.5741 20.9131 72.3441 21.1431 72.3441 21.4268V23.6982C72.3441 23.9819 72.5741 24.2119 72.8578 24.2119H107.312C107.596 24.2119 107.826 23.9819 107.826 23.6982V21.4268C107.826 21.1431 107.596 20.9131 107.312 20.9131Z" fill="#9468B4"/>
<path d="M135.887 38.2424H120C119.453 38.2407 118.929 38.0222 118.542 37.6347C118.156 37.2472 117.939 36.7224 117.939 36.1752C117.939 35.6286 118.156 35.1044 118.543 34.7179C118.929 34.3314 119.453 34.1143 120 34.1143H135.887C136.434 34.1143 136.958 34.3314 137.345 34.7179C137.731 35.1044 137.948 35.6286 137.948 36.1752C137.948 36.7224 137.731 37.2472 137.345 37.6347C136.959 38.0222 136.434 38.2407 135.887 38.2424Z" fill="#9468B4"/>
<path d="M58.3196 173.573H42.4323V188.631H58.3196V173.573Z" fill="#9468B4"/>
<path d="M77.6419 173.573H61.7545V188.631H77.6419V173.573Z" fill="#9468B4"/>
<path d="M96.9705 173.573H81.0831V188.631H96.9705V173.573Z" fill="#9468B4"/>
<path d="M116.299 173.573H100.411V188.631H116.299V173.573Z" fill="#9468B4"/>
<path d="M135.621 173.573H119.734V188.631H135.621V173.573Z" fill="#9468B4"/>
<path d="M135.887 199.257H120C119.453 199.257 118.929 199.04 118.543 198.653C118.156 198.267 117.939 197.743 117.939 197.196C117.939 196.649 118.156 196.124 118.542 195.737C118.929 195.349 119.453 195.131 120 195.129H135.887C136.434 195.131 136.959 195.349 137.345 195.737C137.731 196.124 137.948 196.649 137.948 197.196C137.948 197.743 137.731 198.267 137.345 198.653C136.958 199.04 136.434 199.257 135.887 199.257Z" fill="#9468B4"/>
<path opacity="0.1" d="M132.353 0.0742188L30.6111 144.849V80.7117L87.2288 0.0742188H132.353Z" fill="white"/>
<path opacity="0.1" d="M73.4952 0.074363L30.8772 60.9377V6.47386C30.8437 5.64226 30.9792 4.8125 31.2757 4.03481C31.5722 3.25711 32.0234 2.54766 32.602 1.94939C33.1806 1.35112 33.8745 0.876483 34.6419 0.554192C35.4092 0.231901 36.234 0.0686642 37.0663 0.074363H73.4952Z" fill="white"/>
<path d="M172.96 10.5407C145.672 14.3841 109.324 25.215 78.1061 38.8C57.7936 47.638 22.3611 65.2336 13.3065 83.7636C10.5957 89.3338 10.5709 94.4955 13.2446 99.1311C15.9183 103.767 22.1259 106.991 30.8773 109.188V108.173C22.522 106.063 16.5681 103.012 14.0739 98.6731C11.5797 94.3346 11.5983 89.4328 14.1668 84.1721C20.6839 70.8285 44.1343 54.6007 78.5332 39.6479C109.627 26.0691 145.883 15.2939 173.09 11.4629C173.212 11.4456 173.323 11.3805 173.397 11.2819C173.471 11.1832 173.503 11.0591 173.486 10.9368C173.469 10.8145 173.404 10.7041 173.305 10.6298C173.206 10.5555 173.082 10.5235 172.96 10.5407Z" fill="white"/>
<path d="M172.96 10.5407C145.672 14.3841 109.324 25.215 78.1061 38.8C57.7936 47.638 22.3611 65.2336 13.3065 83.7636C10.5957 89.3338 10.5709 94.4955 13.2446 99.1311C15.9183 103.767 22.1259 106.991 30.8773 109.188V108.173C22.522 106.063 16.5681 103.012 14.0739 98.6731C11.5797 94.3346 11.5983 89.4328 14.1668 84.1721C20.6839 70.8285 44.1343 54.6007 78.5332 39.6479C109.627 26.0691 145.883 15.2939 173.09 11.4629C173.212 11.4456 173.323 11.3805 173.397 11.2819C173.471 11.1832 173.503 11.0591 173.486 10.9368C173.469 10.8145 173.404 10.7041 173.305 10.6298C173.206 10.5555 173.082 10.5235 172.96 10.5407Z" fill="#9468B4"/>
<path d="M13.6469 99.3663C13.5649 99.3667 13.4844 99.3451 13.4136 99.3037C13.3428 99.2623 13.2845 99.2027 13.2446 99.1311C10.5709 94.4955 10.5957 89.3214 13.3065 83.7636C22.3611 65.2336 57.7936 47.638 78.1061 38.8C109.324 25.215 145.672 14.3841 172.96 10.5407C173.082 10.5235 173.206 10.5555 173.305 10.6298C173.404 10.7041 173.469 10.8145 173.486 10.9368C173.503 11.0591 173.471 11.1832 173.397 11.2819C173.323 11.3805 173.212 11.4456 173.09 11.4629C145.858 15.2939 109.627 26.0938 78.4775 39.6479C44.1095 54.6007 20.6591 70.8285 14.1668 84.1721C11.5983 89.4328 11.5674 94.316 14.0739 98.6731C14.1305 98.7787 14.144 98.9021 14.1117 99.0174C14.0794 99.1328 14.0038 99.2312 13.9006 99.292C13.8252 99.3412 13.7369 99.367 13.6469 99.3663Z" fill="#9468B4"/>
<g opacity="0.8">
<path opacity="0.8" d="M13.6469 99.3663C13.5649 99.3667 13.4844 99.3451 13.4136 99.3037C13.3428 99.2623 13.2845 99.2027 13.2446 99.1311C10.5709 94.4955 10.5957 89.3214 13.3065 83.7636C22.3611 65.2336 57.7936 47.638 78.1061 38.8C109.324 25.215 145.672 14.3841 172.96 10.5407C173.082 10.5235 173.206 10.5555 173.305 10.6298C173.404 10.7041 173.469 10.8145 173.486 10.9368C173.503 11.0591 173.471 11.1832 173.397 11.2819C173.323 11.3805 173.212 11.4456 173.09 11.4629C145.858 15.2939 109.627 26.0938 78.4775 39.6479C44.1095 54.6007 20.6591 70.8285 14.1668 84.1721C11.5983 89.4328 11.5674 94.316 14.0739 98.6731C14.1305 98.7787 14.144 98.9021 14.1117 99.0174C14.0794 99.1328 14.0038 99.2312 13.9006 99.292C13.8252 99.3412 13.7369 99.367 13.6469 99.3663Z" fill="white"/>
</g>
<path d="M185.716 17.0944L212.007 3.16895L189.008 10.7382L185.716 17.0944Z" fill="#9468B4"/>
<path opacity="0.3" d="M185.716 17.0944L212.007 3.16895L189.008 10.7382L185.716 17.0944Z" fill="black"/>
<path d="M179.502 4.76573L184.366 8.12021L185.716 17.0944L189.008 10.7382L197.339 14.9282L212.007 3.16895L179.502 4.76573Z" fill="#9468B4"/>
<path opacity="0.6" d="M179.502 4.76573L184.366 8.12021L185.716 17.0944L189.008 10.7382L197.339 14.9282L212.007 3.16895L179.502 4.76573Z" fill="white"/>
<path opacity="0.2" d="M184.366 8.12021L212.007 3.16895L189.008 10.7382L185.716 17.0944L184.366 8.12021Z" fill="black"/>
</svg>
