<svg width="475" height="396" viewBox="0 0 475 396" fill="none" xmlns="http://www.w3.org/2000/svg">
<g opacity="0.15">
<path d="M398.506 54.9638C398.506 54.9638 345.509 -4.20228 263.433 0.237979C181.357 4.67823 112.415 64.1926 55.3505 110.859C-1.71357 157.525 -16.0169 228.644 18.8086 283.307C53.6341 337.971 106.731 313.68 175.698 348.294C244.665 382.908 258.023 403.02 333.942 392.871C409.862 382.722 466.118 292.399 455.682 197.5C445.247 102.6 398.506 54.9638 398.506 54.9638Z" fill="#9468B4"/>
<path opacity="0.7" d="M398.506 54.9638C398.506 54.9638 345.509 -4.20228 263.433 0.237979C181.357 4.67823 112.415 64.1926 55.3505 110.859C-1.71357 157.525 -16.0169 228.644 18.8086 283.307C53.6341 337.971 106.731 313.68 175.698 348.294C244.665 382.908 258.023 403.02 333.942 392.871C409.862 382.722 466.118 292.399 455.682 197.5C445.247 102.6 398.506 54.9638 398.506 54.9638Z" fill="white"/>
</g>
<path d="M364.166 70.4492H23.373V291.84H364.166V70.4492Z" fill="#9468B4"/>
<path opacity="0.4" d="M364.166 70.4492H23.373V291.84H364.166V70.4492Z" fill="white"/>
<path d="M341.641 146.879H147.862V269.577H341.641V146.879Z" fill="white" stroke="#263238" stroke-miterlimit="10"/>
<path d="M208.57 132.612L204.839 121.866H144.093V278.506H345.41V132.612H208.57ZM341.653 269.576H147.862V146.878H341.641L341.653 269.576Z" fill="#9468B4" stroke="#263238" stroke-miterlimit="10"/>
<path d="M304.813 136.68H208.545V142.575H304.813V136.68Z" fill="white" stroke="#263238" stroke-miterlimit="10"/>
<path d="M152.526 135.735L149.752 138.409L152.626 141.493" stroke="#263238" stroke-linecap="round" stroke-linejoin="round"/>
<path d="M149.752 138.409H155.922" stroke="#263238" stroke-linecap="round" stroke-linejoin="round"/>
<path d="M168.259 135.735L171.045 138.409L168.16 141.493" stroke="#263238" stroke-linecap="round" stroke-linejoin="round"/>
<path d="M171.046 138.409H164.877" stroke="#263238" stroke-linecap="round" stroke-linejoin="round"/>
<path d="M184.304 138.047C184.13 137.426 183.762 136.877 183.255 136.478C182.747 136.08 182.126 135.854 181.481 135.833C181.1 135.808 180.718 135.861 180.359 135.989C180 136.117 179.67 136.318 179.392 136.578C179.113 136.839 178.891 137.154 178.739 137.504C178.587 137.854 178.509 138.232 178.509 138.613C178.509 138.995 178.587 139.372 178.739 139.722C178.891 140.072 179.113 140.387 179.392 140.648C179.67 140.909 180 141.109 180.359 141.237C180.718 141.366 181.1 141.418 181.481 141.393C182.122 141.395 182.743 141.17 183.235 140.759" stroke="#263238" stroke-linecap="round" stroke-linejoin="round"/>
<path d="M182.438 138.359H184.59V135.796" stroke="#263238" stroke-linecap="round" stroke-linejoin="round"/>
<path d="M199.018 137.451L196.456 135.374L194.018 137.451V141.966H199.018V137.451Z" stroke="#263238" stroke-linecap="round" stroke-linejoin="round"/>
<path d="M197.438 138.669H195.486V141.804H197.438V138.669Z" fill="#263238"/>
<path d="M194.018 137.451L192.55 138.794" stroke="#263238" stroke-linecap="round" stroke-linejoin="round"/>
<path d="M199.018 137.451L200.398 138.67" stroke="#263238" stroke-linecap="round" stroke-linejoin="round"/>
<path d="M198.098 127.426L202.003 131.456" stroke="#263238" stroke-linecap="round" stroke-linejoin="round"/>
<path d="M202.065 127.488L198.035 131.394" stroke="#263238" stroke-linecap="round" stroke-linejoin="round"/>
<path d="M331.43 137.762H339.153" stroke="#263238" stroke-linecap="round" stroke-linejoin="round"/>
<path d="M331.43 139.503H339.153" stroke="#263238" stroke-linecap="round" stroke-linejoin="round"/>
<path d="M331.43 141.232H339.153" stroke="#263238" stroke-linecap="round" stroke-linejoin="round"/>
<path d="M331.43 142.973H339.153" stroke="#263238" stroke-linecap="round" stroke-linejoin="round"/>
<path d="M290.908 161.356H300.634" stroke="#263238" stroke-linecap="round" stroke-linejoin="round"/>
<path d="M278.321 161.356H286.853" stroke="#263238" stroke-linecap="round" stroke-linejoin="round"/>
<path d="M257.388 161.356H275.162" stroke="#263238" stroke-linecap="round" stroke-linejoin="round"/>
<path d="M257.388 167.302H300.634" stroke="#263238" stroke-linecap="round" stroke-linejoin="round"/>
<path d="M294.278 173.234H300.634" stroke="#263238" stroke-linecap="round" stroke-linejoin="round"/>
<path d="M264.378 173.234H290.224" stroke="#263238" stroke-linecap="round" stroke-linejoin="round"/>
<path d="M257.388 173.234H260.784" stroke="#263238" stroke-linecap="round" stroke-linejoin="round"/>
<path d="M257.388 179.167H300.634" stroke="#263238" stroke-linecap="round" stroke-linejoin="round"/>
<path d="M272.463 228.694H262.848V258.233H272.463V228.694Z" fill="#263238" stroke="#263238" stroke-linecap="round" stroke-linejoin="round"/>
<path d="M286.206 193.657H276.592V258.246H286.206V193.657Z" fill="#9468B4" stroke="#263238" stroke-miterlimit="10"/>
<path d="M299.95 212.897H290.335V258.245H299.95V212.897Z" fill="#263238" stroke="#263238" stroke-linecap="round" stroke-linejoin="round"/>
<path d="M313.681 193.657H304.067V258.246H313.681V193.657Z" fill="#9468B4" stroke="#263238" stroke-miterlimit="10"/>
<path d="M327.425 165.485H317.81V258.246H327.425V165.485Z" fill="#263238" stroke="#263238" stroke-linecap="round" stroke-linejoin="round"/>
<path d="M232.426 109.553H38.6465V232.251H232.426V109.553Z" fill="white" stroke="#263238" stroke-miterlimit="10"/>
<path d="M99.3422 95.2996L95.6109 84.541H34.8777V241.181H236.182V95.2996H99.3422ZM232.425 232.251H38.7085V109.553H232.488L232.425 232.251Z" fill="#9468B4" stroke="#263238" stroke-miterlimit="10"/>
<path d="M195.586 99.3545H99.3179V105.25H195.586V99.3545Z" fill="white" stroke="#263238" stroke-miterlimit="10"/>
<path d="M43.3107 98.4087L40.5247 101.095L43.4102 104.18" stroke="#263238" stroke-linecap="round" stroke-linejoin="round"/>
<path d="M40.5247 101.095H46.7062" stroke="#263238" stroke-linecap="round" stroke-linejoin="round"/>
<path d="M59.0446 98.4087L61.8182 101.095L58.9451 104.18" stroke="#263238" stroke-linecap="round" stroke-linejoin="round"/>
<path d="M61.8302 101.095H55.6487" stroke="#263238" stroke-linecap="round" stroke-linejoin="round"/>
<path d="M75.0889 100.734C74.9178 100.116 74.5544 99.5684 74.0513 99.1704C73.5482 98.7724 72.9315 98.5448 72.2905 98.5205C71.5548 98.5205 70.8494 98.8127 70.3292 99.3329C69.8091 99.853 69.5168 100.559 69.5168 101.294C69.5168 102.03 69.8091 102.735 70.3292 103.255C70.8494 103.776 71.5548 104.068 72.2905 104.068C72.9328 104.067 73.5558 103.848 74.0566 103.446" stroke="#263238" stroke-linecap="round" stroke-linejoin="round"/>
<path d="M73.2109 101.045H75.3751V98.4707" stroke="#263238" stroke-linecap="round" stroke-linejoin="round"/>
<path d="M89.8024 100.126L87.2403 98.061L84.8025 100.126V104.641H89.8024V100.126Z" stroke="#263238" stroke-linecap="round" stroke-linejoin="round"/>
<path d="M88.2108 101.344H86.2581V104.479H88.2108V101.344Z" fill="#263238"/>
<path d="M84.8026 100.125L83.335 101.468" stroke="#263238" stroke-linecap="round" stroke-linejoin="round"/>
<path d="M89.8025 100.125L91.1831 101.356" stroke="#263238" stroke-linecap="round" stroke-linejoin="round"/>
<path d="M88.8821 90.1128L92.7751 94.1302" stroke="#263238" stroke-linecap="round" stroke-linejoin="round"/>
<path d="M92.8375 90.1753L88.8201 94.0683" stroke="#263238" stroke-linecap="round" stroke-linejoin="round"/>
<path d="M222.214 100.436H229.938" stroke="#263238" stroke-linecap="round" stroke-linejoin="round"/>
<path d="M222.214 102.177H229.938" stroke="#263238" stroke-linecap="round" stroke-linejoin="round"/>
<path d="M222.214 103.919H229.938" stroke="#263238" stroke-linecap="round" stroke-linejoin="round"/>
<path d="M222.214 105.66H229.938" stroke="#263238" stroke-linecap="round" stroke-linejoin="round"/>
<path d="M48.6089 220.41V178.035L62.0913 206.58L73.5464 201.58L86.5065 211.816L108.583 197.463L122.066 216.293L131.506 211.592L139.591 216.293L149.702 215.112L163.172 218.358L177.326 217.177L186.331 220.41H48.6089Z" fill="#263238"/>
<path d="M190.523 146.879H205.212" stroke="#263238" stroke-linecap="round" stroke-linejoin="round"/>
<path d="M171.506 146.879H184.404" stroke="#263238" stroke-linecap="round" stroke-linejoin="round"/>
<path d="M139.889 146.879H166.755" stroke="#263238" stroke-linecap="round" stroke-linejoin="round"/>
<path d="M139.889 152.812H205.212" stroke="#263238" stroke-linecap="round" stroke-linejoin="round"/>
<path d="M195.61 158.756H205.212" stroke="#263238" stroke-linecap="round" stroke-linejoin="round"/>
<path d="M150.449 158.756H189.503" stroke="#263238" stroke-linecap="round" stroke-linejoin="round"/>
<path d="M139.889 158.756H145.014" stroke="#263238" stroke-linecap="round" stroke-linejoin="round"/>
<path d="M139.889 164.689H205.212" stroke="#263238" stroke-linecap="round" stroke-linejoin="round"/>
<path d="M205.212 174.242H190.523" stroke="#263238" stroke-linecap="round" stroke-linejoin="round"/>
<path d="M171.506 174.242H184.404" stroke="#263238" stroke-linecap="round" stroke-linejoin="round"/>
<path d="M139.889 174.242H166.755" stroke="#263238" stroke-linecap="round" stroke-linejoin="round"/>
<path d="M139.889 180.174H205.212" stroke="#263238" stroke-linecap="round" stroke-linejoin="round"/>
<path d="M205.212 186.119H195.61" stroke="#263238" stroke-linecap="round" stroke-linejoin="round"/>
<path d="M150.449 186.119H189.503" stroke="#263238" stroke-linecap="round" stroke-linejoin="round"/>
<path d="M139.889 186.119H145.014" stroke="#263238" stroke-linecap="round" stroke-linejoin="round"/>
<path d="M139.889 192.052H205.212" stroke="#263238" stroke-linecap="round" stroke-linejoin="round"/>
<path d="M65.3626 156.655L57.6388 174.068C53.0372 172.019 49.4378 168.227 47.6325 163.524C45.8271 158.822 45.9636 153.595 48.012 148.993C49.4864 145.613 51.9246 142.742 55.0216 140.74C58.1187 138.738 61.7373 137.694 65.4248 137.737L65.3626 156.655Z" fill="#9468B4"/>
<g opacity="0.47">
<path opacity="0.47" d="M65.3626 156.655L57.6388 174.068C53.0372 172.019 49.4378 168.227 47.6325 163.524C45.8271 158.822 45.9636 153.595 48.012 148.993C49.4864 145.613 51.9246 142.742 55.0216 140.74C58.1187 138.738 61.7373 137.694 65.4248 137.737L65.3626 156.655Z" fill="white"/>
</g>
<path d="M65.3627 156.654L74.2805 173.433C71.7451 174.824 68.9184 175.601 66.0279 175.701C63.1374 175.8 60.2639 175.219 57.6389 174.005L65.3627 156.654Z" fill="#263238"/>
<path d="M65.3628 156.654L80.1263 144.665C81.7009 146.607 82.8762 148.841 83.5849 151.238C84.2935 153.636 84.5215 156.15 84.2556 158.636C83.9898 161.122 83.2355 163.531 82.0359 165.724C80.8363 167.918 79.2152 169.853 77.2657 171.418C76.3234 172.189 75.3068 172.864 74.2309 173.433L65.3628 156.654Z" fill="#9468B4"/>
<path d="M65.3628 156.655V137.675C68.1989 137.604 71.0121 138.199 73.5762 139.413C76.1403 140.627 78.3838 142.426 80.1263 144.665L65.3628 156.655Z" fill="#263238"/>
<path d="M65.3628 167.027C71.0711 167.027 75.6985 162.399 75.6985 156.691C75.6985 150.983 71.0711 146.355 65.3628 146.355C59.6546 146.355 55.0271 150.983 55.0271 156.691C55.0271 162.399 59.6546 167.027 65.3628 167.027Z" fill="white"/>
<path d="M116.83 156.655L109.106 174.068C106.826 173.055 104.769 171.603 103.051 169.794C101.333 167.985 99.9888 165.855 99.0948 163.526C98.2007 161.198 97.7744 158.715 97.8404 156.222C97.9063 153.728 98.4632 151.272 99.4792 148.994C100.948 145.622 103.376 142.757 106.461 140.756C109.547 138.754 113.152 137.705 116.83 137.738V156.655Z" fill="#9468B4"/>
<g opacity="0.47">
<path opacity="0.47" d="M116.83 156.655L109.106 174.068C106.826 173.055 104.769 171.603 103.051 169.794C101.333 167.985 99.9888 165.855 99.0948 163.526C98.2007 161.198 97.7744 158.715 97.8404 156.222C97.9063 153.728 98.4632 151.272 99.4792 148.994C100.948 145.622 103.376 142.757 106.461 140.756C109.547 138.754 113.152 137.705 116.83 137.738V156.655Z" fill="white"/>
</g>
<path d="M116.83 156.654L125.772 173.433C123.237 174.824 120.41 175.601 117.52 175.701C114.629 175.8 111.756 175.219 109.131 174.005L116.83 156.654Z" fill="#263238"/>
<path d="M116.83 156.655L131.581 144.714C133.342 146.89 134.601 149.428 135.268 152.146C135.935 154.865 135.993 157.698 135.438 160.441C134.883 163.185 133.729 165.772 132.058 168.018C130.387 170.264 128.241 172.113 125.772 173.433L116.83 156.655Z" fill="#9468B4"/>
<path d="M116.83 156.655V137.675C119.664 137.604 122.475 138.199 125.037 139.413C127.599 140.627 129.841 142.426 131.581 144.665L116.83 156.655Z" fill="#263238"/>
<path d="M116.83 167.027C122.538 167.027 127.165 162.399 127.165 156.691C127.165 150.983 122.538 146.355 116.83 146.355C111.121 146.355 106.494 150.983 106.494 156.691C106.494 162.399 111.121 167.027 116.83 167.027Z" fill="white"/>
<path d="M47.9375 122.936H169.951" stroke="#263238" stroke-linecap="round" stroke-linejoin="round"/>
<path d="M47.9375 128.881H192.625" stroke="#263238" stroke-linecap="round" stroke-linejoin="round"/>
<path d="M320.92 245.41C320.92 245.41 314.888 252.4 315.522 253.669C316.156 254.938 321.243 258.109 321.554 256.156C322.149 253.111 322.564 250.034 322.798 246.94C322.835 244.751 323.146 244.167 320.92 245.41Z" fill="white" stroke="#263238" stroke-linecap="round" stroke-linejoin="round"/>
<path d="M324.104 230.485C324.104 230.485 319.975 239.378 319.651 241.294C319.328 243.209 321.243 245.734 321.243 246.692C321.243 247.649 318.756 250.498 318.756 254.95C318.756 259.403 318.432 269.564 322.251 272.102C326.069 274.639 332.412 271.791 332.412 271.791L338.445 283.544L362.586 269.564L359.091 264.166C359.091 264.166 364.178 250.485 360.335 240.025C356.492 229.565 342.922 227.948 337.462 227.587C332.002 227.227 326.019 226.642 324.104 230.485Z" fill="white"/>
<path d="M359.041 264.129C359.041 264.129 364.128 250.447 360.285 239.987C356.442 229.527 342.872 227.91 337.412 227.55C336.529 227.55 335.621 227.438 334.713 227.4L327.673 232.972C327.673 232.972 321.878 241.268 324.365 244.577C326.853 247.885 328.507 251.219 327.673 256.604C326.84 261.99 321.343 271.305 326.853 271.529C327.984 271.529 329.775 271.728 331.902 271.94L332.362 271.753L332.487 272.002C340.621 272.823 352.972 274.427 352.972 274.427L354.215 274.365L362.561 269.527L359.041 264.129Z" fill="#9468B4"/>
<path opacity="0.5" d="M359.041 264.129C359.041 264.129 364.128 250.447 360.285 239.987C356.442 229.527 342.872 227.91 337.412 227.55C336.529 227.55 335.621 227.438 334.713 227.4L327.673 232.972C327.673 232.972 321.878 241.268 324.365 244.577C326.853 247.885 328.507 251.219 327.673 256.604C326.84 261.99 321.343 271.305 326.853 271.529C327.984 271.529 329.775 271.728 331.902 271.94L332.362 271.753L332.487 272.002C340.621 272.823 352.972 274.427 352.972 274.427L354.215 274.365L362.561 269.527L359.041 264.129Z" fill="white"/>
<path d="M324.104 230.485C324.104 230.485 319.975 239.378 319.651 241.294C319.328 243.209 321.243 245.734 321.243 246.692C321.243 247.649 318.756 250.498 318.756 254.95C318.756 259.403 318.432 269.564 322.251 272.102C326.069 274.639 332.412 271.791 332.412 271.791L338.445 283.544L362.586 269.564L359.091 264.166C359.091 264.166 364.178 250.485 360.335 240.025C356.492 229.565 342.922 227.948 337.462 227.587C332.002 227.227 326.019 226.642 324.104 230.485Z" stroke="#263238" stroke-linecap="round" stroke-linejoin="round"/>
<path d="M357.114 220.61C357.114 220.61 345.36 217.115 335.198 217.426C325.037 217.737 314.863 220.61 315.186 226.008C315.51 231.406 325.024 233.309 325.024 233.309C325.024 233.309 330.435 233.632 328.843 235.212C327.251 236.791 323.121 239.988 326.355 243.794C329.589 247.6 332.698 250.784 331.753 252.052C330.808 253.321 332.064 256.182 333.333 255.236C334.601 254.291 332.698 250.46 336.193 249.192C339.688 247.923 343.183 253.321 341.915 256.816C340.646 260.311 338.42 260 339.688 262.537C340.957 265.075 348.905 269.204 354.303 269.204C359.701 269.204 361.293 262.214 367.014 251.095C372.735 239.975 368.892 223.781 357.114 220.61Z" fill="#263238" stroke="#263238" stroke-linecap="round" stroke-linejoin="round"/>
<path d="M326.965 286.368L330.136 292.401L365.086 269.528L361.591 265.398C361.591 265.398 332.363 281.592 326.965 286.368Z" fill="white" stroke="#263238" stroke-linecap="round" stroke-linejoin="round"/>
<path d="M333.631 287.313C333.631 287.313 326.641 296.84 324.104 301.604C321.567 306.368 310.758 334.328 305.995 344.178C303.213 349.839 301.004 355.764 299.403 361.865H366.031C366.031 361.865 373.656 323.843 373.656 307.325C373.656 290.808 369.85 278.42 368.569 275.249C367.287 272.077 362.536 269.527 362.536 269.527L333.631 287.313Z" fill="white"/>
<path d="M333.631 287.313C333.631 287.313 326.641 296.84 324.104 301.604C321.567 306.368 310.758 334.328 305.995 344.178C303.213 349.839 301.004 355.764 299.403 361.865H366.031C366.031 361.865 373.656 323.843 373.656 307.325C373.656 290.808 369.85 278.42 368.569 275.249C367.287 272.077 362.536 269.527 362.536 269.527L333.631 287.313Z" fill="#BDBDBD" stroke="#263238" stroke-linecap="round" stroke-linejoin="round"/>
<path d="M315.36 323.047C315.36 323.047 330.285 299.676 335.907 293.631C341.529 287.587 369.414 273.283 369.414 273.283L365.011 268.507C365.011 268.507 336.318 282.748 331.877 287.164C327.437 291.579 314.564 317.798 315.36 323.047Z" fill="#BDBDBD" stroke="#263238" stroke-linecap="round" stroke-linejoin="round"/>
<path d="M333.631 287.313C333.631 287.313 326.641 296.84 324.104 301.604C321.567 306.368 310.758 334.328 305.995 344.178C303.213 349.839 301.004 355.764 299.403 361.865H366.031C366.031 361.865 373.656 323.843 373.656 307.325C373.656 290.808 369.85 278.42 368.569 275.249C367.287 272.077 362.536 269.527 362.536 269.527L333.631 287.313Z" stroke="#263238" stroke-linecap="round" stroke-linejoin="round"/>
<path d="M352.051 287.312C352.051 287.312 334.639 298.755 332.039 303.195C329.44 307.636 331.728 314.638 331.728 315.633C331.728 316.628 329.241 319.762 329.241 320.72V323.892L315.559 360.745H346.654C346.654 360.745 359.999 328.344 362.536 321.989C365.074 315.633 366.355 304.203 365.086 297.847" stroke="#263238" stroke-linecap="round" stroke-linejoin="round"/>
<path d="M334.589 314.638C334.589 314.638 342.213 305.733 353.644 304.464" stroke="#263238" stroke-linecap="round" stroke-linejoin="round"/>
<path d="M408.605 249.526C408.605 249.526 386.665 245.136 380.521 250.397C374.377 255.658 377.884 287.71 376.131 296.043C374.377 304.377 369.986 313.158 371.74 321.926C373.494 330.695 377.449 336.851 379.203 341.242C380.956 345.632 378.755 361.864 378.755 361.864H442.834C442.834 361.864 454.239 331.59 454.239 308.767C454.239 285.944 447.212 266.205 436.69 258.743C426.167 251.28 408.605 249.526 408.605 249.526Z" fill="#9468B4"/>
<path opacity="0.26" d="M385.111 263.233C378.892 273.606 385.944 330.396 387.598 335.794C389.253 341.192 377.238 336.205 380.969 339.103C384.7 342.001 391.74 346.988 391.74 346.988C387.74 345.262 383.655 343.738 379.501 342.424C379.72 343.722 379.832 345.037 379.837 346.354C384.002 349.609 388.382 352.58 392.946 355.247L379.327 356.391C379.041 359.513 378.718 361.839 378.718 361.839H442.797C442.797 361.839 454.202 331.565 454.202 308.742C454.273 299.238 452.944 289.775 450.259 280.658L412.026 264.489C412.026 264.489 391.33 252.872 385.111 263.233Z" fill="black"/>
<path d="M408.605 249.526C408.605 249.526 386.665 245.136 380.521 250.397C374.377 255.658 377.884 287.71 376.131 296.043C374.377 304.377 369.986 313.158 371.74 321.926C373.494 330.695 377.449 336.851 379.203 341.242C380.956 345.632 378.755 361.864 378.755 361.864H442.834C442.834 361.864 454.239 331.59 454.239 308.767C454.239 285.944 447.212 266.205 436.69 258.743C426.167 251.28 408.605 249.526 408.605 249.526Z" stroke="#263238" stroke-linecap="round" stroke-linejoin="round"/>
<path d="M408.108 170.535C408.108 170.535 398.456 162.637 389.24 168.346C380.023 174.054 364.228 200.373 365.981 213.544C367.735 226.716 383.543 238.992 373.009 246.019C362.474 253.046 366.429 265.758 371.69 269.277L374.762 269.713C374.762 269.713 374.762 256.989 383.543 253.469C392.324 249.949 405.036 253.034 408.108 256.989C411.18 260.944 405.483 281.118 412.934 286.392C420.384 291.665 430.931 292.536 428.742 297.797C426.553 303.058 419.078 311.404 423.904 318.866C428.729 326.329 440.583 333.792 444.538 331.142C448.493 328.493 442.784 325.446 444.973 323.68C447.162 321.914 465.159 315.782 462.087 308.319C459.015 300.857 452.436 296.902 455.508 293.829C458.58 290.757 469.985 283.307 468.667 272.772C467.348 262.238 442.336 254.34 441.466 242.922C440.595 231.504 456.391 230.198 451.117 204.365C445.844 178.532 429.662 167.052 421.789 167.052C417.008 167.04 412.301 168.238 408.108 170.535Z" fill="#263238" stroke="#263238" stroke-linecap="round" stroke-linejoin="round"/>
<path d="M416.64 184.303C423.257 193.482 431.565 207.002 431.851 217.226C432.262 234.253 417.312 241.318 419.799 254.601C422.287 267.885 451.329 270.173 453.443 281.964C455.557 293.755 442.249 289.427 445.545 296.081C448.841 302.735 461.714 308.518 456.353 315.981" stroke="white" stroke-linecap="round" stroke-linejoin="round"/>
<path d="M408.593 174.042C408.593 174.042 409.986 175.634 412.088 178.296" stroke="white" stroke-linecap="round" stroke-linejoin="round"/>
<path d="M402.013 241.355C403.531 242.947 404.439 244.428 404.439 245.883" stroke="white" stroke-linecap="round" stroke-linejoin="round"/>
<path d="M376.616 190.684C376.616 190.684 369.974 208.955 379.937 221.417C385.248 228.059 391.852 232.922 396.864 236.902" stroke="white" stroke-linecap="round" stroke-linejoin="round"/>
<path d="M436.428 266.392C438.356 267.089 440.458 267.636 442.647 268.308" stroke="white" stroke-linecap="round" stroke-linejoin="round"/>
<path d="M438.903 186.953C438.903 186.953 453.02 204.813 448.045 220.174C443.07 235.534 426.453 243.805 426.453 253.755C426.281 256.794 427.293 259.781 429.276 262.089" stroke="white" stroke-linecap="round" stroke-linejoin="round"/>
<path d="M271.119 347.237C271.119 347.237 268.482 350.483 268.482 352.511C268.482 354.538 267.475 358.58 268.694 358.792C269.913 359.003 270.709 354.526 271.928 352.909C273.147 351.292 276.181 350.881 275.982 348.655C275.783 346.429 272.948 344.401 271.119 347.237Z" fill="white" stroke="#263238" stroke-linecap="round" stroke-linejoin="round"/>
<path d="M300.311 350.072C300.311 350.072 288.955 340.545 286.119 339.538C283.283 338.53 277.599 345.01 274.154 351.291C270.709 357.572 272.537 358.99 274.366 359.189C276.194 359.388 284.092 355.955 284.092 355.955C286.891 358.181 290.143 359.769 293.619 360.607C299.092 361.851 306.99 358.58 307.201 355.346C307.412 352.112 300.311 350.072 300.311 350.072Z" fill="white" stroke="#263238" stroke-linecap="round" stroke-linejoin="round"/>
<path d="M405.968 285.036C405.968 285.036 406.404 351.329 404.65 356.602C402.896 361.876 396.752 361.863 386.665 362.299C376.578 362.734 315.136 360.993 315.136 360.993C311.647 361.507 308.128 361.797 304.601 361.863C299.775 361.863 291.43 360.993 288.358 358.791C285.286 356.59 282.661 356.154 281.343 356.602C280.024 357.05 276.517 361.428 273.445 361.428C270.373 361.428 266.853 360.11 269.054 359.674C271.256 359.239 283.097 346.503 285.733 346.503C288.37 346.503 307.226 351.329 310.746 350.893C314.265 350.458 377.014 338.169 377.014 338.169L374.824 269.762C374.824 269.762 372.623 257.909 383.605 253.519" fill="#9468B4"/>
<path opacity="0.26" d="M388.481 260.098C387.081 260.8 385.912 261.888 385.11 263.232C378.891 273.605 385.943 330.396 387.598 335.794C389.252 341.192 377.237 336.204 380.968 339.102C384.7 342 391.739 346.988 391.739 346.988C391.739 346.988 371.429 338.281 376.814 343.667C382.2 349.052 392.983 355.271 392.983 355.271L322.088 361.179C338.481 361.627 378.63 362.647 386.628 362.299C396.715 361.863 402.859 361.863 404.612 356.602C406.366 351.341 405.931 283.755 405.931 283.755L388.481 260.098Z" fill="black"/>
<path d="M405.968 285.036C405.968 285.036 406.404 351.329 404.65 356.602C402.896 361.876 396.752 361.863 386.665 362.299C376.578 362.734 315.136 360.993 315.136 360.993C311.647 361.507 308.128 361.797 304.601 361.863C299.775 361.863 291.43 360.993 288.358 358.791C285.286 356.59 282.661 356.154 281.343 356.602C280.024 357.05 276.517 361.428 273.445 361.428C270.373 361.428 266.853 360.11 269.054 359.674C271.256 359.239 283.097 346.503 285.733 346.503C288.37 346.503 307.226 351.329 310.746 350.893C314.265 350.458 377.014 338.169 377.014 338.169L374.824 269.762C374.824 269.762 372.623 257.909 383.605 253.519" stroke="#263238" stroke-linecap="round" stroke-linejoin="round"/>
<path d="M333.408 361.478C332.054 356.518 332.356 351.252 334.266 346.479C322.276 348.792 312.102 350.72 310.746 350.894C307.226 351.329 288.358 346.503 285.734 346.503C283.11 346.503 271.294 359.227 269.055 359.675C266.816 360.123 270.373 361.429 273.445 361.429C276.518 361.429 280.025 357.038 281.343 356.603C282.662 356.167 285.286 356.603 288.358 358.792C291.43 360.981 299.776 361.864 304.602 361.864C308.128 361.798 311.647 361.507 315.137 360.993L333.408 361.478Z" fill="white" stroke="#263238" stroke-linecap="round" stroke-linejoin="round"/>
<path d="M275.783 342.573C273.862 343.711 272.258 345.315 271.119 347.237C269.875 349.874 271.119 357.971 273.146 357.971C275.174 357.971 276.592 355.744 276.592 352.908C276.592 350.073 275.783 342.573 275.783 342.573Z" fill="white" stroke="#263238" stroke-linecap="round" stroke-linejoin="round"/>
<path d="M278.619 340.956C278.619 340.956 275.373 341.155 274.154 343.593C272.935 346.031 273.147 356.354 275.174 356.764C277.201 357.175 278.01 353.717 278.01 351.491C278.01 349.264 278.619 340.956 278.619 340.956Z" fill="white" stroke="#263238" stroke-linecap="round" stroke-linejoin="round"/>
<path d="M286.119 339.538C286.119 339.538 281.256 338.717 279.229 340.147C277.201 341.577 276.741 354.127 278.209 355.135C279.676 356.142 282.064 353.518 282.064 352.1C282.064 350.682 284.9 342.983 284.9 342.983" fill="white"/>
<path d="M286.119 339.538C286.119 339.538 281.256 338.717 279.229 340.147C277.201 341.577 276.741 354.127 278.209 355.135C279.676 356.142 282.064 353.518 282.064 352.1C282.064 350.682 284.9 342.983 284.9 342.983" stroke="#263238" stroke-linecap="round" stroke-linejoin="round"/>
<path d="M164.33 298.059C164.33 298.059 158.509 306.89 160.959 311.181C163.409 315.472 172.302 324.352 190.673 323.121C209.043 321.89 198.023 290.97 200.163 271.977C202.302 252.985 194.354 250.236 187.912 255.137C181.469 260.037 173.521 283.619 170.499 287.599C168.147 290.903 166.083 294.402 164.33 298.059Z" fill="#9468B4"/>
<path opacity="0.42" d="M164.33 298.059C164.33 298.059 158.509 306.89 160.959 311.181C163.409 315.472 172.302 324.352 190.673 323.121C209.043 321.89 198.023 290.97 200.163 271.977C202.302 252.985 194.354 250.236 187.912 255.137C181.469 260.037 173.521 283.619 170.499 287.599C168.147 290.903 166.083 294.402 164.33 298.059Z" fill="black" stroke="#263238" stroke-linecap="round" stroke-linejoin="round"/>
<path d="M164.33 298.059C164.33 298.059 158.509 306.89 160.959 311.181C163.409 315.472 172.302 324.352 190.673 323.121C209.043 321.89 198.023 290.97 200.163 271.977C202.302 252.985 194.354 250.236 187.912 255.137C181.469 260.037 173.521 283.619 170.499 287.599C168.147 290.903 166.083 294.402 164.33 298.059V298.059Z" stroke="#263238" stroke-linecap="round" stroke-linejoin="round"/>
<path d="M186.718 303.22C186.718 303.22 186.718 330.471 187.028 339.053C187.339 347.635 188.558 368.456 188.558 368.456H246.132L243.073 306.268L242.152 303.208L186.718 303.22Z" fill="#263238" stroke="#263238" stroke-linecap="round" stroke-linejoin="round"/>
<path d="M220.187 310.435L243.296 311.368L243.048 306.281L242.127 303.221H219.826L220.187 310.435Z" fill="white" stroke="#263238" stroke-linecap="round" stroke-linejoin="round"/>
<path d="M192.812 303.221H186.718C186.718 303.221 186.718 305.572 186.718 309.104L192.824 309.341L192.812 303.221Z" fill="white" stroke="#263238" stroke-linecap="round" stroke-linejoin="round"/>
<path d="M194.764 303.221L195.113 309.44L216.033 310.273L215.821 303.221H194.764Z" fill="white" stroke="#263238" stroke-linecap="round" stroke-linejoin="round"/>
<path d="M187.004 256.045C187.004 256.045 186.693 291.269 187.004 296.791C187.314 302.313 184.516 304.142 189.143 305.062C193.77 305.982 231.108 306.89 234.777 306.306C238.446 305.721 238.508 303.818 239.379 302.015C240.249 300.211 252.538 221.468 249.789 219.317C247.04 217.165 229.578 210.747 228.035 210.747C226.493 210.747 203.844 211.991 199.553 212.588C195.262 213.185 190.362 211.966 190.063 214.416C189.765 216.866 187.004 256.045 187.004 256.045Z" fill="white"/>
<path d="M205.772 222.413C205.772 222.413 198.595 222.065 197.227 222.749C196.456 223.134 191.754 234.676 187.812 244.627C187.351 251.107 187.003 256.044 187.003 256.044C187.003 256.044 186.692 291.268 187.003 296.79C187.202 300.41 186.095 302.437 186.593 303.668C188.147 298.27 190.623 288.954 193.471 275.708C198.259 253.495 205.772 222.413 205.772 222.413Z" fill="#BDBDBD"/>
<path d="M187.004 256.045C187.004 256.045 186.693 291.269 187.004 296.791C187.314 302.313 184.516 304.142 189.143 305.062C193.77 305.982 231.108 306.89 234.777 306.306C238.446 305.721 238.508 303.818 239.379 302.015C240.249 300.211 252.538 221.468 249.789 219.317C247.04 217.165 229.578 210.747 228.035 210.747C226.493 210.747 203.844 211.991 199.553 212.588C195.262 213.185 190.362 211.966 190.063 214.416C189.765 216.866 187.004 256.045 187.004 256.045Z" stroke="#263238" stroke-linecap="round" stroke-linejoin="round"/>
<path d="M123.285 236.704C123.285 236.704 112.265 231.194 108.285 230.273C104.305 229.353 91.4322 226.293 90.5118 227.512C89.5914 228.731 90.8228 230 92.0541 230C93.2854 230 101.233 233.37 101.233 233.37C101.233 233.37 100.325 240.721 100.325 242.562C100.325 244.403 110.126 248.072 112.265 248.383C114.405 248.694 118.721 247.052 118.721 247.052L121.755 246.231L123.285 236.704Z" fill="white" stroke="#263238" stroke-linecap="round" stroke-linejoin="round"/>
<path d="M100.325 234.614C100.325 234.614 99.0816 242.885 100.014 243.793C100.947 244.701 107.365 249.005 108.285 246.865C109.206 244.726 108.895 236.443 108.895 235.535C108.895 234.627 100.325 234.614 100.325 234.614Z" fill="white" stroke="#263238" stroke-linecap="round" stroke-linejoin="round"/>
<path d="M119.616 237.065C119.616 237.065 109.205 233.085 106.755 233.085C104.305 233.085 100.325 236.443 98.1731 237.065C96.0214 237.687 98.7826 239.553 100.325 239.204C101.867 238.856 106.133 237.674 106.133 237.674C107.086 239.496 108.453 241.068 110.126 242.264C112.613 243.794 117.775 242.886 117.775 242.886" fill="white"/>
<path d="M119.616 237.065C119.616 237.065 109.205 233.085 106.755 233.085C104.305 233.085 100.325 236.443 98.1731 237.065C96.0214 237.687 98.7826 239.553 100.325 239.204C101.867 238.856 106.133 237.674 106.133 237.674C107.086 239.496 108.453 241.068 110.126 242.264C112.613 243.794 117.775 242.886 117.775 242.886" stroke="#263238" stroke-linecap="round" stroke-linejoin="round"/>
<path d="M212.961 210.51C212.961 210.51 194.59 208.931 190.859 209.752C187.128 210.573 178.421 231.729 177.178 234.627C175.934 237.525 162.252 250.796 162.252 250.796L122.875 235.46L118.72 247.065C118.72 247.065 150.648 267.798 156.034 270.286C161.419 272.773 168.894 272.363 171.382 272.363C173.209 272.177 174.94 271.454 176.357 270.286L164.329 298.059C164.329 298.059 183.819 274.851 189.615 263.657C195.411 252.463 208.695 219.702 209.938 218.881C211.182 218.06 212.961 210.51 212.961 210.51Z" fill="#9468B4"/>
<path opacity="0.26" d="M170.436 258.632C169.441 258.632 168.11 257.972 166.78 257.972C165.449 257.972 168.446 262.947 167.775 264.639C167.103 266.33 119.467 245.982 119.467 245.982L119.38 247.487C123.882 250.41 151.096 268.01 156.034 270.286C161.431 272.773 168.894 272.363 171.382 272.363C173.012 272.232 174.57 271.636 175.872 270.646C179.503 261.38 182.09 245.982 182.09 245.982C182.09 245.982 171.444 258.632 170.436 258.632Z" fill="black"/>
<path d="M212.961 210.51C212.961 210.51 194.59 208.931 190.859 209.752C187.128 210.573 178.421 231.729 177.178 234.627C175.934 237.525 162.252 250.796 162.252 250.796L122.875 235.46L118.72 247.065C118.72 247.065 150.648 267.798 156.034 270.286C161.419 272.773 168.894 272.363 171.382 272.363C173.209 272.177 174.94 271.454 176.357 270.286L164.329 298.059C164.329 298.059 183.819 274.851 189.615 263.657C195.411 252.463 208.695 219.702 209.938 218.881C211.182 218.06 212.961 210.51 212.961 210.51Z" stroke="#263238" stroke-linecap="round" stroke-linejoin="round"/>
<path d="M212.961 210.51L207.861 215.348L208.123 225.025L213.496 219.913L212.961 210.51Z" fill="white" stroke="#263238" stroke-linecap="round" stroke-linejoin="round"/>
<path d="M203.284 163.321C203.284 163.321 197.787 171.779 198.135 173.545C198.483 175.311 199.379 177.115 199.379 178.52C199.379 179.926 193.16 184.876 193.881 185.983C194.603 187.09 198.123 188.806 198.123 188.806C198.123 188.806 197.973 202.6 201.145 204.366C204.317 206.132 210.349 203.296 210.349 203.296L213.521 220.983L231.555 208.246V195.523C231.555 195.523 242.165 183.508 242.874 173.956C243.582 164.404 230.436 153.807 217.414 152.041C204.391 150.274 197.265 159.105 199.379 161.991C201.493 164.876 203.284 163.321 203.284 163.321Z" fill="white"/>
<path d="M224.839 212.998L231.568 208.247V195.523C231.568 195.523 242.177 183.508 242.886 173.956C243.346 167.737 237.911 161.033 230.448 156.643L211.692 164.416C211.692 164.416 202.887 172.152 204.043 173.197C205.2 174.242 208.583 178.57 207.775 180.56C207.775 180.56 204.628 181.804 204.951 183.956C205.275 186.107 212.6 200.125 212.6 200.125L210.349 203.296L224.839 212.998Z" fill="#9468B4"/>
<path opacity="0.5" d="M224.839 212.998L231.568 208.247V195.523C231.568 195.523 242.177 183.508 242.886 173.956C243.346 167.737 237.911 161.033 230.448 156.643L211.692 164.416C211.692 164.416 202.887 172.152 204.043 173.197C205.2 174.242 208.583 178.57 207.775 180.56C207.775 180.56 204.628 181.804 204.951 183.956C205.275 186.107 212.6 200.125 212.6 200.125L210.349 203.296L224.839 212.998Z" fill="white"/>
<path d="M203.284 163.321C203.284 163.321 197.787 171.779 198.135 173.545C198.483 175.311 199.379 177.115 199.379 178.52C199.379 179.926 193.16 184.876 193.881 185.983C194.603 187.09 198.123 188.806 198.123 188.806C198.123 188.806 197.973 202.6 201.145 204.366C204.317 206.132 210.349 203.296 210.349 203.296L213.521 220.983L231.555 208.246V195.523C231.555 195.523 242.165 183.508 242.874 173.956C243.582 164.404 230.436 153.807 217.414 152.041C204.391 150.274 197.265 159.105 199.379 161.991C201.493 164.876 203.284 163.321 203.284 163.321Z" stroke="#263238" stroke-linecap="round" stroke-linejoin="round"/>
<path d="M231.406 211.02C231.406 211.02 227.426 225.111 222.525 242.885C217.625 260.658 218.545 315.77 218.545 318.842C218.545 321.914 225.585 332.921 233.557 335.993C238.767 337.907 244.201 339.14 249.726 339.663C249.726 339.663 244.217 303.22 244.217 292.81C244.217 282.399 249.117 266.156 249.117 266.156C249.117 266.156 256.468 284.539 259.527 286.989C262.587 289.439 274.838 292.188 274.54 280.857C274.241 269.526 263.818 229.091 261.057 225.111C258.296 221.131 245.125 217.151 245.125 217.151L231.406 211.02Z" fill="#9468B4"/>
<g opacity="0.26">
<path opacity="0.26" d="M244.279 292.811C237.314 294.614 231.742 295.908 231.742 295.908C231.742 295.908 240.274 312.984 243.694 312.984H246.107C245.1 304.701 244.279 296.815 244.279 292.811Z" fill="black"/>
<path opacity="0.26" d="M250.871 242.226C254.602 246.318 262.475 244.278 262.475 245.646C262.475 247.015 256.331 250.087 258.744 254.863C261.157 259.639 275.149 280.149 271.045 283.905C269.863 284.987 266.07 286.392 261.318 287.959C265.771 289.925 274.888 290.658 274.627 280.858C274.316 269.527 263.905 229.092 261.144 225.112C261.119 225.112 247.102 238.122 250.871 242.226Z" fill="black"/>
<path opacity="0.26" d="M240.921 247.014C239.892 247.91 239.146 249.085 238.773 250.396C238.4 251.708 238.416 253.099 238.819 254.402C240.224 258.967 245.498 263.544 244.092 266.006C242.687 268.469 232.127 266.715 232.488 270.235C232.848 273.755 243.744 285.36 243.744 285.36L248.309 264.601L240.921 247.014Z" fill="black"/>
</g>
<path d="M231.406 211.02C231.406 211.02 227.426 225.111 222.525 242.885C217.625 260.658 218.545 315.77 218.545 318.842C218.545 321.914 225.585 332.921 233.557 335.993C238.767 337.907 244.201 339.14 249.726 339.663C249.726 339.663 244.217 303.22 244.217 292.81C244.217 282.399 249.117 266.156 249.117 266.156C249.117 266.156 256.468 284.539 259.527 286.989C262.587 289.439 274.838 292.188 274.54 280.857C274.241 269.526 263.818 229.091 261.057 225.111C258.296 221.131 245.125 217.151 245.125 217.151L231.406 211.02Z" stroke="#263238" stroke-linecap="round" stroke-linejoin="round"/>
<path d="M231.518 204.864L215.647 216.145L216.73 226.095L234.204 210.237L231.518 204.864Z" fill="white" stroke="#263238" stroke-linecap="round" stroke-linejoin="round"/>
<path d="M236.617 287.599C236.617 287.599 224.976 282.388 224.055 282.388C223.135 282.388 213.956 287.288 212.115 287.288C210.274 287.288 209.354 288.532 210.585 289.44C211.607 290.042 212.77 290.36 213.956 290.36C213.956 290.36 209.665 292.848 209.963 294.029C210.262 295.211 212.725 296.169 212.725 296.169C213.982 298.098 215.801 299.595 217.936 300.46C220.996 301.38 231.717 297.711 231.717 297.711L239.988 297.089L236.617 287.599Z" fill="white"/>
<path d="M224.03 287.698C220.299 288.532 212.724 296.168 212.724 296.168C213.982 298.098 215.801 299.595 217.936 300.459C220.995 301.38 231.717 297.711 231.717 297.711L239.988 297.089L236.617 287.599C236.617 287.599 227.762 286.865 224.03 287.698Z" fill="#9468B4"/>
<path opacity="0.5" d="M224.03 287.698C220.299 288.532 212.724 296.168 212.724 296.168C213.982 298.098 215.801 299.595 217.936 300.459C220.995 301.38 231.717 297.711 231.717 297.711L239.988 297.089L236.617 287.599C236.617 287.599 227.762 286.865 224.03 287.698Z" fill="white"/>
<path d="M236.617 287.599C236.617 287.599 224.976 282.388 224.055 282.388C223.135 282.388 213.956 287.288 212.115 287.288C210.274 287.288 209.354 288.532 210.585 289.44C211.607 290.042 212.77 290.36 213.956 290.36C213.956 290.36 209.665 292.848 209.963 294.029C210.262 295.211 212.725 296.169 212.725 296.169C213.982 298.098 215.801 299.595 217.936 300.46C220.996 301.38 231.717 297.711 231.717 297.711L239.988 297.089L236.617 287.599Z" stroke="#263238" stroke-linecap="round" stroke-linejoin="round"/>
<path d="M264.49 274.428L235.697 286.069L237.836 298.32C237.836 298.32 276.393 292.811 278.271 290.049C280.149 287.288 273.06 271.667 273.06 271.667" fill="#9468B4"/>
<path opacity="0.26" d="M237.177 294.552L237.836 298.283C237.836 298.283 276.393 292.773 278.271 290.012C280.149 287.251 273.06 271.629 273.06 271.629L268.943 272.96C271.319 277.935 272.674 282.313 271.02 283.868C267.936 286.728 247.227 292.076 237.177 294.552Z" fill="black"/>
<path d="M264.49 274.428L235.697 286.069L237.836 298.32C237.836 298.32 276.393 292.811 278.271 290.049C280.149 287.288 273.06 271.667 273.06 271.667" stroke="#263238" stroke-linecap="round" stroke-linejoin="round"/>
<path d="M176.357 270.285C176.357 270.285 182.103 248.084 183.931 235.833L176.357 270.285Z" fill="white"/>
<path d="M176.357 270.285C176.357 270.285 182.103 248.084 183.931 235.833" stroke="#263238" stroke-linecap="round" stroke-linejoin="round"/>
<path d="M201.705 334.042L209.963 340.932L211.344 368.494" stroke="white" stroke-linecap="round" stroke-linejoin="round"/>
<path d="M249.179 266.157L241.045 251.232C241.045 251.232 238.694 248.097 243.396 240.262" stroke="#263238" stroke-linecap="round" stroke-linejoin="round"/>
<path d="M217.426 152.041C204.342 150.274 197.277 159.105 199.391 161.991C199.916 162.813 200.72 163.418 201.655 163.695L203.284 163.396C203.284 163.396 215.299 163.757 214.603 167.637C213.906 171.518 206.817 171.891 209.628 175.1C210.369 175.916 211.204 176.643 212.115 177.264H211.705C212.467 177.909 213.05 178.74 213.396 179.677C213.881 181.132 211.22 193.222 210.735 194.192C210.25 195.162 207.588 193.943 204.205 191.53C202.439 190.16 200.363 189.245 198.16 188.868L197.924 191.045C197.924 191.045 201.307 192.015 201.792 193.943C202.277 195.871 199.13 196.12 199.13 197.824C199.13 199.528 198.894 202.562 201.183 204.428C203.471 206.294 210.386 203.358 210.386 203.358C210.386 203.358 215.573 199.751 216.307 195.896C216.891 192.737 217.327 187.189 217.861 184.428C218.63 183.496 219.321 182.502 219.926 181.456C219.926 181.456 225.585 180.038 223.819 185.697C222.053 191.356 218.508 191.356 218.508 191.356C222.522 193.666 226.967 195.131 231.568 195.659V195.572C231.568 195.572 242.177 183.558 242.886 174.005C243.595 164.453 230.511 153.807 217.426 152.041Z" fill="#263238" stroke="#263238" stroke-linecap="round" stroke-linejoin="round"/>
<path d="M250.821 331.006H229.876V361.951H250.821V331.006Z" fill="white" stroke="#263238" stroke-linecap="round" stroke-linejoin="round"/>
<path d="M249.888 357.748H247.662C247.203 357.748 246.764 357.566 246.44 357.241C246.115 356.917 245.933 356.477 245.933 356.019C245.933 355.56 246.115 355.121 246.44 354.796C246.764 354.472 247.203 354.29 247.662 354.29H249.851C250.719 354.29 251.551 353.945 252.164 353.332C252.778 352.718 253.122 351.886 253.122 351.019V343.556C253.122 342.688 252.778 341.854 252.165 341.239C251.552 340.623 250.72 340.276 249.851 340.273H247.04C246.802 340.293 246.561 340.264 246.335 340.186C246.108 340.109 245.9 339.985 245.724 339.823C245.548 339.661 245.407 339.465 245.311 339.245C245.214 339.026 245.165 338.79 245.165 338.55C245.165 338.311 245.214 338.074 245.311 337.855C245.407 337.636 245.548 337.439 245.724 337.277C245.9 337.115 246.108 336.991 246.335 336.914C246.561 336.837 246.802 336.807 247.04 336.828H249.851C250.735 336.828 251.61 337.002 252.426 337.34C253.242 337.678 253.984 338.174 254.609 338.798C255.234 339.423 255.729 340.165 256.068 340.981C256.406 341.798 256.58 342.673 256.58 343.556V351.019C256.577 352.796 255.872 354.5 254.619 355.76C253.365 357.02 251.665 357.735 249.888 357.748Z" fill="white" stroke="#263238" stroke-linecap="round" stroke-linejoin="round"/>
<path d="M139.803 361.541H82.8877C82.6719 361.542 82.4605 361.481 82.2793 361.364C82.0981 361.246 81.955 361.079 81.8678 360.882L66.0719 325.011C65.9971 324.842 65.9659 324.657 65.981 324.473C65.9962 324.288 66.0573 324.111 66.1587 323.956C66.2601 323.802 66.3986 323.675 66.5616 323.588C66.7246 323.5 66.9069 323.455 67.0918 323.457H124.007C124.222 323.457 124.432 323.521 124.612 323.64C124.791 323.76 124.931 323.93 125.014 324.128L140.773 360.061C140.834 360.222 140.856 360.396 140.837 360.567C140.818 360.739 140.759 360.903 140.664 361.048C140.57 361.192 140.442 361.312 140.292 361.398C140.143 361.483 139.975 361.532 139.803 361.541Z" fill="white" stroke="#263238" stroke-linecap="round" stroke-linejoin="round"/>
<path d="M134.479 358.742H85.897C85.7153 358.741 85.5377 358.688 85.3855 358.589C85.2333 358.49 85.113 358.349 85.0388 358.183L71.5937 327.499C71.5296 327.355 71.5022 327.198 71.5142 327.041C71.5262 326.884 71.5771 326.733 71.6623 326.601C71.7475 326.469 71.8644 326.36 72.0022 326.284C72.1401 326.209 72.2947 326.169 72.4519 326.168H121.021C121.206 326.171 121.385 326.226 121.54 326.327C121.694 326.429 121.816 326.572 121.892 326.74L135.337 357.399C135.404 357.543 135.433 357.702 135.423 357.86C135.412 358.019 135.362 358.172 135.276 358.306C135.19 358.44 135.073 358.55 134.933 358.626C134.794 358.703 134.638 358.742 134.479 358.742Z" fill="#263238" stroke="#263238" stroke-linecap="round" stroke-linejoin="round"/>
<path d="M82.0912 361.964H167.6V359.165H82.0912V361.964Z" fill="white" stroke="#263238" stroke-linecap="round" stroke-linejoin="round"/>
<path d="M82.0913 361.964H123.546V359.165H82.0913V361.964Z" fill="white" stroke="#263238" stroke-linecap="round" stroke-linejoin="round"/>
<path d="M4.34332 292.351C6.12312 292.823 7.96327 293.029 9.80346 292.96C9.80346 292.96 8.97013 290.473 8.89551 290.274C8.04975 288.495 5.35077 285.547 3.16173 285.846C2.79934 285.906 2.45363 286.041 2.14717 286.243C1.8407 286.446 1.58038 286.711 1.3832 287.021C1.18601 287.33 1.05639 287.678 1.0028 288.042C0.949215 288.405 0.972866 288.776 1.07221 289.129C1.35014 289.872 1.78685 290.545 2.35184 291.101C2.91684 291.658 3.59649 292.084 4.34332 292.351Z" fill="#263238"/>
<path d="M5.67422 303.582C7.50165 303.572 9.31713 303.287 11.0597 302.736C11.6213 304.718 12.3195 306.659 13.1493 308.545C13.6219 309.652 14.1443 310.746 14.6667 311.828C14.3557 311.368 14.0697 310.958 14.0199 310.908C12.7761 309.415 9.36821 307.289 7.32843 308.159C6.99221 308.312 6.69211 308.533 6.44789 308.81C6.20367 309.087 6.02088 309.412 5.91159 309.765C5.80229 310.117 5.76896 310.489 5.8138 310.856C5.85864 311.222 5.98063 311.575 6.17172 311.89C6.63502 312.535 7.23349 313.07 7.92527 313.459C8.61705 313.848 9.38542 314.081 10.1767 314.142C11.9488 314.151 13.7115 313.882 15.4005 313.346C15.6119 313.756 15.8109 314.179 16.0224 314.589C17.0298 316.592 18.0373 318.57 18.9577 320.56C19.2935 321.256 19.592 321.953 19.8905 322.649L19.3308 321.841C18.087 320.348 14.6667 318.234 12.6269 319.092C12.292 319.246 11.9933 319.468 11.7502 319.745C11.5071 320.022 11.3251 320.347 11.216 320.699C11.1069 321.051 11.0731 321.422 11.1169 321.788C11.1607 322.154 11.2811 322.507 11.4702 322.823C11.9403 323.455 12.5416 323.978 13.233 324.356C13.9243 324.734 14.6892 324.958 15.4751 325.012C17.1993 325.017 18.9144 324.761 20.5621 324.254C20.8482 324.975 21.1343 325.696 21.383 326.405C21.5447 326.903 21.7188 327.363 21.8556 327.873L22.2661 329.341C22.49 330.273 22.7263 331.256 22.9253 332.176C23.0745 332.823 23.1865 333.42 23.3233 334.054C22.9999 333.358 22.3532 332.002 22.2785 331.903C21.2338 330.224 18.2238 327.624 16.0597 328.171C15.7063 328.269 15.3775 328.44 15.0953 328.674C14.8131 328.908 14.5839 329.199 14.4227 329.529C14.2616 329.858 14.1723 330.218 14.1608 330.584C14.1492 330.95 14.2157 331.315 14.3557 331.654C14.7137 332.363 15.2236 332.985 15.8492 333.475C16.4747 333.966 17.2006 334.312 17.9751 334.49C19.7681 334.765 21.5925 334.765 23.3855 334.49C23.5845 335.522 23.7835 336.517 23.9452 337.462C24.5173 340.746 24.878 343.495 25.1019 345.422C25.1019 345.758 25.1765 346.069 25.2014 346.355H18.5845L19.393 362.077H33.9575L34.766 346.355H28.5471C28.5471 346.268 28.6342 346.169 28.6839 346.069C29.5297 344.303 30.7113 341.766 31.9799 338.607C32.3904 337.624 32.8008 336.567 33.2237 335.485C34.9919 335.894 36.8119 336.032 38.6217 335.895C39.4016 335.781 40.1472 335.498 40.8066 335.066C41.4661 334.635 42.0235 334.064 42.44 333.395C42.6042 333.066 42.6969 332.706 42.7122 332.338C42.7275 331.971 42.665 331.604 42.5288 331.263C42.3926 330.921 42.1858 330.612 41.9218 330.356C41.6579 330.099 41.3428 329.902 40.9972 329.776C38.9077 329.079 35.7112 331.455 34.5421 333.047C34.4675 333.134 33.8331 334.291 33.4476 334.938C33.6093 334.49 33.7834 334.054 33.9451 333.594C34.2809 332.686 34.5918 331.766 34.9152 330.783L35.363 329.316C35.5122 328.831 35.6117 328.296 35.7486 327.786C36.0346 326.542 36.2709 325.373 36.4699 324.129C38.1084 324.78 39.8362 325.179 41.5943 325.311C42.3883 325.304 43.1716 325.126 43.8906 324.789C44.6097 324.452 45.2476 323.964 45.7609 323.358C45.9723 323.057 46.1179 322.715 46.188 322.354C46.2582 321.993 46.2514 321.622 46.168 321.264C46.0847 320.906 45.9267 320.569 45.7043 320.276C45.482 319.984 45.2003 319.741 44.8778 319.565C42.9127 318.557 39.3928 320.423 37.9998 321.816C37.9127 321.903 37.0172 323.06 36.5446 323.632C36.6565 322.885 36.7809 322.139 36.8804 321.38C37.1416 319.191 37.353 316.965 37.5645 314.751C37.6391 314.067 37.7137 313.395 37.7759 312.711C39.4694 313.39 41.2557 313.809 43.0743 313.955C43.8691 313.952 44.6537 313.776 45.3734 313.439C46.0931 313.102 46.7304 312.612 47.241 312.002C47.4437 311.704 47.5822 311.367 47.6476 311.012C47.7129 310.658 47.7038 310.293 47.6208 309.942C47.5377 309.591 47.3825 309.262 47.1651 308.974C46.9477 308.686 46.6728 308.447 46.3579 308.271C44.4052 307.251 40.8853 309.117 39.4799 310.51C39.3804 310.622 38.0993 312.214 37.7883 312.637C37.95 311.144 38.1241 309.664 38.348 308.209C38.6339 306.239 39.0494 304.291 39.5918 302.376C41.2952 303.05 43.0891 303.47 44.9151 303.619C45.7092 303.613 46.4925 303.435 47.2115 303.098C47.9306 302.761 48.5685 302.273 49.0817 301.667C49.2913 301.365 49.4352 301.023 49.5043 300.663C49.5734 300.302 49.5661 299.931 49.4829 299.574C49.3997 299.216 49.2424 298.88 49.0212 298.587C48.7999 298.294 48.5197 298.051 48.1987 297.873C46.2335 296.866 42.7136 298.731 41.3206 300.124C41.2087 300.236 39.8281 301.953 39.6042 302.289C39.6391 302.174 39.6682 302.058 39.6913 301.94C40.3134 300.029 41.1042 298.177 42.0545 296.406C42.552 295.423 43.0868 294.503 43.634 293.632C45.2129 294.477 46.9115 295.077 48.6713 295.411C49.4608 295.494 50.2592 295.405 51.0109 295.15C51.7626 294.894 52.4497 294.478 53.0245 293.93C53.2666 293.655 53.4483 293.331 53.5576 292.981C53.667 292.631 53.7017 292.261 53.6595 291.897C53.6173 291.532 53.4992 291.181 53.3127 290.865C53.1262 290.549 52.8755 290.275 52.5767 290.062C50.736 288.819 47.0295 290.311 45.4873 291.542C45.4002 291.605 44.6291 292.376 44.0694 292.948C44.3181 292.562 44.5669 292.152 44.8156 291.779C45.736 290.386 46.6688 289.179 47.5022 288.11L48.8454 286.455C50.6313 286.481 52.4103 286.229 54.119 285.709C54.8594 285.421 55.5279 284.974 56.0779 284.4C56.6278 283.827 57.0459 283.14 57.3031 282.388C57.3901 282.032 57.4012 281.662 57.3358 281.302C57.2705 280.941 57.13 280.599 56.9236 280.296C56.7171 279.993 56.4493 279.738 56.1376 279.545C55.8258 279.353 55.4771 279.228 55.114 279.179C52.9126 278.943 50.3131 281.953 49.5046 283.744C49.4424 283.906 48.634 286.468 48.6713 286.468C48.2484 286.94 47.8131 287.45 47.3405 288.01C46.4823 289.067 45.5246 290.274 44.5669 291.642C43.5221 293.115 42.5628 294.648 41.6938 296.231C40.7014 297.999 39.8689 299.851 39.2062 301.766V301.841C39.2062 301.194 39.2062 299.353 39.2062 299.241C38.9575 297.289 37.3157 293.657 35.1515 293.259C34.7863 293.202 34.4134 293.224 34.057 293.322C33.7007 293.419 33.369 293.591 33.0837 293.826C32.7983 294.061 32.5658 294.353 32.4014 294.684C32.2369 295.015 32.1441 295.377 32.1292 295.746C32.1641 296.538 32.3701 297.312 32.733 298.017C33.0959 298.721 33.607 299.338 34.2312 299.826C35.7659 300.827 37.4432 301.59 39.2062 302.09C38.5915 304.058 38.1055 306.065 37.751 308.097C37.5396 309.279 37.3654 310.473 37.2038 311.667C37.2038 311.107 37.2038 310.609 37.2038 310.547C36.9426 308.582 35.3132 304.963 33.1366 304.552C32.7721 304.496 32.3997 304.517 32.044 304.615C31.6883 304.713 31.3574 304.885 31.073 305.12C30.7887 305.355 30.5573 305.648 30.3942 305.979C30.2311 306.309 30.1399 306.671 30.1267 307.04C30.1551 307.833 30.3568 308.61 30.7178 309.317C31.0788 310.024 31.5903 310.644 32.2162 311.132C33.695 312.109 35.3139 312.855 37.0172 313.346C37.0172 313.806 36.9053 314.266 36.8555 314.726C36.5819 316.94 36.3331 319.154 36.0097 321.318C35.8978 322.077 35.761 322.823 35.6366 323.569C35.6366 323.072 35.6366 322.662 35.6366 322.599C35.3879 320.634 33.7461 317.015 31.5819 316.604C31.2167 316.548 30.8437 316.569 30.4874 316.667C30.131 316.765 29.7993 316.937 29.514 317.172C29.2287 317.407 28.9962 317.699 28.8317 318.03C28.6673 318.361 28.5745 318.723 28.5596 319.092C28.5936 319.885 28.7991 320.662 29.1619 321.368C29.5248 322.075 30.0364 322.694 30.6615 323.184C32.0952 324.142 33.6686 324.872 35.3257 325.348C35.164 326.107 35.0023 326.878 34.8157 327.612C34.6665 328.097 34.567 328.594 34.4053 329.079C34.2436 329.564 34.0819 330.049 33.9327 330.535C33.5968 331.443 33.261 332.388 32.9128 333.271C32.6764 333.88 32.4401 334.515 32.2038 335.049C32.3282 334.291 32.5272 332.798 32.5396 332.674C32.5181 330.926 32.0469 329.212 31.1715 327.699C31.1962 327.509 31.1962 327.317 31.1715 327.127C31.1256 326.763 31.0035 326.413 30.8133 326.099C30.623 325.785 30.3688 325.515 30.0673 325.306C29.7657 325.098 29.4236 324.955 29.0631 324.887C28.7026 324.819 28.3318 324.828 27.975 324.913C25.8482 325.472 24.4924 329.229 24.3929 331.194C24.3929 331.306 24.3929 332.574 24.5173 333.37C24.4178 332.91 24.3183 332.462 24.1939 331.977C23.9701 331.045 23.7213 330.099 23.4601 329.092C23.3109 328.619 23.1616 328.134 23.0124 327.637C22.8755 327.151 22.6765 326.642 22.5024 326.144C22.0795 324.987 21.5945 323.843 21.0845 322.699C22.8297 322.346 24.5086 321.72 26.0596 320.846C26.7204 320.406 27.2774 319.828 27.692 319.151C28.1066 318.475 28.3687 317.716 28.4601 316.928C28.47 316.561 28.4026 316.196 28.2622 315.857C28.1218 315.518 27.9116 315.213 27.6452 314.961C27.3788 314.708 27.0623 314.515 26.7163 314.393C26.3702 314.271 26.0024 314.224 25.6367 314.254C23.4477 314.49 21.5447 317.985 21.1467 319.925C21.1467 320.037 20.985 321.455 20.9353 322.239C20.6119 321.555 20.3009 320.87 19.9651 320.174C18.9825 318.209 17.9253 316.231 16.8806 314.266L15.9353 312.45C17.7266 312.087 19.4509 311.45 21.0472 310.56C21.7063 310.12 22.2614 309.541 22.6738 308.864C23.0863 308.188 23.3461 307.429 23.4352 306.642C23.466 306.251 23.408 305.859 23.2657 305.493C23.1233 305.128 22.9003 304.8 22.6132 304.533C22.3261 304.267 21.9825 304.068 21.6079 303.953C21.2333 303.838 20.8376 303.809 20.4502 303.868C18.2487 304.104 16.3458 307.599 15.9477 309.54C15.9477 309.677 15.7363 311.716 15.7114 312.239C15.0149 310.908 14.3433 309.577 13.7214 308.234C12.8838 306.429 12.165 304.572 11.5697 302.674C13.3675 302.3 15.099 301.659 16.7064 300.771C17.3672 300.332 17.9243 299.754 18.3389 299.077C18.7534 298.4 19.0155 297.642 19.1069 296.853C19.1094 296.494 19.0378 296.138 18.8966 295.808C18.7553 295.478 18.5475 295.18 18.286 294.934C18.0245 294.688 17.715 294.498 17.3769 294.376C17.0388 294.255 16.6793 294.205 16.3209 294.229C14.1194 294.465 12.2164 297.96 11.8184 299.901C11.8184 300.05 11.5946 302.239 11.5821 302.649L11.4702 302.313C10.9268 300.389 10.5522 298.42 10.3508 296.43C10.2264 295.336 10.1767 294.279 10.1393 293.259C11.9244 293.089 13.6732 292.648 15.3259 291.953C16.0295 291.587 16.6454 291.073 17.1307 290.446C17.6161 289.819 17.9593 289.094 18.1368 288.321C18.1875 287.959 18.1618 287.591 18.0612 287.24C17.9607 286.889 17.7877 286.562 17.5532 286.282C17.3188 286.002 17.0282 285.774 16.7003 285.613C16.3723 285.453 16.0143 285.362 15.6492 285.348C13.4478 285.348 11.1717 288.607 10.5622 290.485C10.5622 290.585 10.301 291.667 10.1518 292.45C10.1518 291.978 10.1518 291.505 10.1518 291.057C10.1518 289.391 10.2637 287.861 10.3757 286.505C10.3757 285.734 10.5125 285.037 10.5871 284.391C12.0877 283.425 13.4301 282.234 14.5672 280.858C15.0219 280.21 15.3307 279.47 15.4725 278.691C15.6142 277.912 15.5854 277.111 15.3881 276.344C15.2654 275.998 15.0714 275.682 14.8187 275.416C14.5659 275.151 14.26 274.941 13.921 274.802C13.5819 274.662 13.2172 274.595 12.8507 274.606C12.4842 274.617 12.124 274.704 11.7936 274.863C9.82841 275.883 9.30602 279.839 9.64184 281.766C9.64184 281.941 10.4005 284.515 10.4378 284.49C10.3508 285.112 10.2637 285.734 10.1891 286.518C10.0523 287.873 9.91547 289.403 9.87816 291.082C9.81049 292.887 9.85202 294.693 10.0025 296.493C10.1593 298.513 10.4965 300.515 11.01 302.475V302.537C10.6617 301.99 9.64185 300.498 9.54235 300.398C8.29858 298.906 4.89064 296.779 2.85086 297.637C2.51465 297.789 2.21454 298.011 1.97032 298.288C1.7261 298.565 1.54331 298.89 1.43402 299.243C1.32472 299.595 1.2914 299.967 1.33624 300.333C1.38108 300.7 1.50307 301.052 1.69416 301.368C2.15854 302.003 2.75471 302.529 3.44173 302.911C4.12876 303.293 4.89036 303.522 5.67422 303.582ZM27.577 332.475C28.9052 333.621 30.3872 334.575 31.9799 335.311C31.5819 336.281 31.1839 337.226 30.7362 338.097C29.4178 341.156 28.2486 343.644 27.3158 345.385C27.1417 345.733 26.98 346.032 26.8307 346.318H26.6815C26.6815 345.978 26.6317 345.605 26.5322 345.199C26.271 343.258 25.8481 340.485 25.1889 337.189C24.9899 336.144 24.7412 335.037 24.4924 333.893C25.5475 333.481 26.5775 333.008 27.577 332.475Z" fill="#263238"/>
<path d="M43.5467 293.209C43.5467 293.209 44.2432 290.634 44.2681 290.46C44.5417 288.508 43.9199 284.577 41.9298 283.619C41.5941 283.469 41.2303 283.391 40.8623 283.391C40.4944 283.391 40.1306 283.469 39.7948 283.619C39.4589 283.769 39.1586 283.989 38.9136 284.263C38.6685 284.538 38.4842 284.861 38.3727 285.212C38.194 285.986 38.1859 286.789 38.3492 287.567C38.5124 288.344 38.843 289.077 39.3179 289.714C40.5457 291.083 41.971 292.261 43.5467 293.209Z" fill="#263238"/>
<path d="M9.2688 361.963H473.617" stroke="#263238" stroke-width="2" stroke-linecap="round" stroke-linejoin="round"/>
</svg>
