<svg width="460" height="376" viewBox="0 0 460 376" fill="none" xmlns="http://www.w3.org/2000/svg">
<g opacity="0.15">
<path d="M445.36 218.788C454.608 188.579 459.522 157.211 459.955 125.621C460.465 93.1022 456.893 57.9401 435.459 33.5664C414.413 9.73375 380.639 1.58879 348.865 0.200672C335.995 -0.35049 322.848 0.0169589 310.631 4.09965C285.961 12.3467 268.671 34.2197 246.788 48.2845C204.542 75.4344 147.466 72.2193 106.854 101.757C96.4567 109.452 87.4066 118.815 80.0714 129.469C50.4719 171.878 48.155 230.627 70.7526 277.15C93.3503 323.672 138.74 357.436 188.967 369.847C239.194 382.258 293.392 374.062 339.934 351.475C394.163 325.152 427.937 274.761 445.36 218.788Z" fill="#9468B4"/>
<path opacity="0.7" d="M445.36 218.788C454.608 188.579 459.522 157.211 459.955 125.621C460.465 93.1022 456.893 57.9401 435.459 33.5664C414.413 9.73375 380.639 1.58879 348.865 0.200672C335.995 -0.35049 322.848 0.0169589 310.631 4.09965C285.961 12.3467 268.671 34.2197 246.788 48.2845C204.542 75.4344 147.466 72.2193 106.854 101.757C96.4567 109.452 87.4066 118.815 80.0714 129.469C50.4719 171.878 48.155 230.627 70.7526 277.15C93.3503 323.672 138.74 357.436 188.967 369.847C239.194 382.258 293.392 374.062 339.934 351.475C394.163 325.152 427.937 274.761 445.36 218.788Z" fill="white"/>
</g>
<path d="M370.432 23.1351V235.904C370.433 237.41 370.138 238.901 369.562 240.292C368.987 241.683 368.143 242.948 367.078 244.012C366.013 245.077 364.749 245.921 363.358 246.497C361.967 247.072 360.476 247.368 358.97 247.366H75.2233C73.7156 247.372 72.2217 247.079 70.8275 246.505C69.4332 245.931 68.1662 245.088 67.0991 244.022C66.0321 242.957 65.186 241.692 64.6097 240.299C64.0333 238.905 63.738 237.412 63.7407 235.904V23.1351C63.7394 21.6303 64.0346 20.1401 64.6095 18.7495C65.1844 17.3589 66.0278 16.0952 67.0913 15.0307C68.1549 13.9662 69.4178 13.1218 70.8079 12.5456C72.1979 11.9695 73.6879 11.6729 75.1927 11.6729H358.939C360.448 11.6675 361.942 11.9601 363.337 12.5339C364.732 13.1076 365.999 13.9512 367.067 15.0162C368.135 16.0813 368.982 17.3468 369.559 18.74C370.137 20.1333 370.434 21.6269 370.432 23.1351Z" fill="white"/>
<path d="M370.432 29.708V235.884C370.436 237.391 370.142 238.884 369.568 240.278C368.994 241.672 368.15 242.938 367.085 244.005C366.02 245.072 364.755 245.918 363.363 246.495C361.97 247.071 360.477 247.368 358.97 247.366H75.2232C74.1457 247.369 73.0734 247.217 72.0387 246.917L370.432 29.708Z" fill="#263238"/>
<path opacity="0.9" d="M370.432 29.708V235.884C370.436 237.391 370.142 238.884 369.568 240.278C368.994 241.672 368.15 242.938 367.085 244.005C366.02 245.072 364.755 245.918 363.363 246.495C361.97 247.071 360.477 247.368 358.97 247.366H75.2232C74.1457 247.369 73.0734 247.217 72.0387 246.917L370.432 29.708Z" fill="white"/>
<path d="M291.769 144.89L307.273 137.909L303.966 119.425L286.859 118.057C284.716 112.349 281.838 106.945 278.296 101.981L283.644 92.9281L287.064 87.1204L273.795 73.9538L258.944 82.8744C250.415 76.9885 240.727 72.9935 230.529 71.1571L226.252 54.1323H207.512L203.164 71.2796C197.372 72.4455 191.73 74.2602 186.344 76.6892L172.881 65.0943L157.52 75.5562L163.909 92.1421C159.846 96.3509 156.331 101.056 153.447 106.146L135.769 104.36L129.411 122.007L143.965 131.938C143.258 136.081 142.917 140.279 142.945 144.482C142.822 146.212 142.822 147.948 142.945 149.677L127.492 158.353L132.391 176.429H149.845C151.518 180.027 153.477 183.484 155.703 186.769C156.846 188.449 158.054 190.086 159.327 191.678L151.794 207.243L166.216 219.338L180.128 208.917C185.417 211.974 191.068 214.357 196.949 216.011L199.735 232.832L218.474 234.495L224.088 218.634C230.208 218.025 236.237 216.707 242.052 214.704L253.943 226.585L270.223 217.195L265.742 200.987C270.473 197.021 274.684 192.473 278.276 187.452L294.77 190.412L302.71 173.408L289.748 162.956C291.154 157.039 291.832 150.972 291.769 144.89ZM248.952 144.89C248.951 152.256 246.398 159.394 241.727 165.089C237.057 170.784 230.556 174.684 223.334 176.126C216.111 177.569 208.611 176.463 202.111 172.998C195.612 169.533 190.514 163.923 187.685 157.123C184.856 150.322 184.471 142.751 186.595 135.699C188.72 128.647 193.223 122.548 199.338 118.442C205.452 114.336 212.801 112.476 220.133 113.178C227.465 113.88 234.327 117.101 239.551 122.293C240.123 122.864 240.684 123.456 241.195 124.079C246.164 129.798 248.917 137.11 248.952 144.686V144.89Z" fill="#9468B4" stroke="#263238" stroke-width="1.02934" stroke-miterlimit="10"/>
<path opacity="0.2" d="M289.748 162.905L302.711 173.357L294.77 190.361L278.276 187.401C274.684 192.422 270.473 196.969 265.742 200.935L270.223 217.143L253.943 226.534L242.052 214.704C236.232 216.725 230.197 218.061 224.068 218.685L218.475 234.495L199.745 232.831L196.959 216.01C191.078 214.357 185.427 211.973 180.138 208.917L166.226 219.338L151.804 207.243L159.276 191.678C158.003 190.085 156.795 188.449 155.652 186.768L189.967 161.629C193.614 167.525 199.084 172.071 205.547 174.579C212.01 177.086 219.114 177.419 225.783 175.525C232.452 173.631 238.322 169.615 242.503 164.085C246.684 158.555 248.948 151.812 248.952 144.88V144.676C248.917 137.099 246.164 129.787 241.195 124.068L283.685 92.9175L278.337 101.971C281.865 106.939 284.73 112.347 286.86 118.057L303.884 119.424L307.273 137.909L291.81 144.89C291.856 150.956 291.163 157.006 289.748 162.905Z" fill="black"/>
<path d="M356.184 95.7558L356.959 95.3986C357.394 95.2085 357.751 94.8772 357.973 94.4584C358.196 94.0397 358.27 93.5581 358.184 93.0919L358.021 92.1426C357.944 91.6756 357.711 91.2482 357.361 90.9296C357.011 90.611 356.564 90.4198 356.092 90.3871L355.153 90.3156C354.787 90.2914 354.433 90.1724 354.127 89.9701C353.821 89.7679 353.573 89.4895 353.407 89.1623C353.152 88.6213 352.887 88.1416 352.591 87.6007C352.405 87.2814 352.308 86.9187 352.308 86.5494C352.308 86.1801 352.405 85.8174 352.591 85.4981L353.07 84.6815C353.308 84.2728 353.404 83.7969 353.343 83.328C353.282 82.8591 353.068 82.4235 352.734 82.089L352.06 81.4154C351.732 81.0654 351.292 80.842 350.816 80.7841C350.34 80.7263 349.859 80.8377 349.457 81.099L348.631 81.5889C348.311 81.7744 347.949 81.8722 347.579 81.8722C347.21 81.8722 346.847 81.7744 346.528 81.5889C345.188 80.8183 343.749 80.2345 342.251 79.8538C341.884 79.7573 341.549 79.5631 341.283 79.2917C341.017 79.0204 340.83 78.682 340.741 78.3125L340.496 77.2919C340.387 76.8198 340.118 76.4 339.735 76.1041C339.352 75.8081 338.877 75.6543 338.393 75.669H337.454C336.971 75.6538 336.498 75.8061 336.115 76.1001C335.732 76.394 335.462 76.8115 335.352 77.2817L335.086 78.3023C334.995 78.6634 334.81 78.994 334.55 79.2609C334.29 79.5279 333.965 79.7218 333.606 79.8231C333.076 79.966 332.586 80.1293 332.065 80.3131C331.712 80.4423 331.331 80.4746 330.961 80.4063C330.591 80.3381 330.246 80.172 329.963 79.9252L329.115 79.2005C328.762 78.8924 328.317 78.711 327.849 78.6851C327.381 78.6592 326.918 78.7903 326.533 79.0576L325.788 79.5578C325.388 79.8267 325.092 80.2244 324.949 80.6848C324.806 81.1453 324.825 81.6408 325.002 82.089L325.38 83.1097C325.515 83.4579 325.556 83.8357 325.499 84.2049C325.441 84.574 325.288 84.9216 325.053 85.2123C324.716 85.6103 324.4 86.0288 324.104 86.4575C323.896 86.7754 323.603 87.0288 323.258 87.1893C322.914 87.3497 322.532 87.4109 322.154 87.3659L321.134 87.2638C320.661 87.2119 320.184 87.322 319.782 87.576C319.38 87.83 319.075 88.2129 318.919 88.6621L318.582 89.591C318.419 90.0278 318.405 90.5065 318.544 90.9518C318.682 91.3971 318.965 91.7837 319.347 92.0508L320.317 92.7346C320.62 92.9488 320.86 93.239 321.014 93.576C321.168 93.913 321.231 94.2847 321.195 94.6535C321.137 95.2027 321.11 95.7547 321.113 96.307C321.102 96.6654 321.003 97.0157 320.825 97.3271C320.647 97.6385 320.396 97.9015 320.093 98.0932L319.072 98.6341C318.65 98.8621 318.32 99.2272 318.134 99.669C317.948 100.111 317.919 100.603 318.051 101.063L318.296 101.982C318.416 102.444 318.69 102.851 319.072 103.136C319.454 103.422 319.922 103.569 320.399 103.554H321.419C321.788 103.548 322.152 103.639 322.475 103.818C322.797 103.997 323.067 104.258 323.257 104.574C323.542 105.075 323.849 105.595 324.165 106.034C324.375 106.339 324.501 106.694 324.529 107.063C324.558 107.433 324.489 107.803 324.328 108.137L323.9 109.025C323.688 109.451 323.627 109.936 323.727 110.402C323.827 110.867 324.083 111.285 324.451 111.586L325.176 112.199C325.538 112.509 325.994 112.688 326.471 112.704C326.948 112.721 327.416 112.575 327.799 112.291L328.544 111.77C328.845 111.554 329.198 111.421 329.568 111.385C329.937 111.349 330.309 111.412 330.646 111.566C331.177 111.821 331.718 112.056 332.279 112.26C332.626 112.389 332.932 112.606 333.167 112.891C333.401 113.176 333.557 113.519 333.616 113.883L333.77 114.791C333.845 115.261 334.079 115.69 334.431 116.01C334.784 116.329 335.234 116.518 335.709 116.547L336.668 116.639C337.139 116.68 337.609 116.563 338.005 116.306C338.401 116.049 338.699 115.667 338.853 115.22L339.149 114.393C339.275 114.04 339.492 113.726 339.779 113.484C340.066 113.242 340.412 113.08 340.782 113.015C341.377 112.925 341.967 112.799 342.547 112.638C342.906 112.536 343.287 112.534 343.647 112.633C344.006 112.732 344.332 112.928 344.589 113.199L345.211 113.832C345.539 114.169 345.971 114.387 346.437 114.45C346.904 114.513 347.378 114.417 347.783 114.179L348.62 113.699C349.04 113.472 349.369 113.108 349.555 112.669C349.74 112.229 349.771 111.739 349.641 111.28L349.406 110.453C349.296 110.088 349.288 109.699 349.381 109.329C349.475 108.959 349.667 108.621 349.937 108.351C350.376 107.924 350.791 107.475 351.182 107.004C351.421 106.705 351.74 106.48 352.101 106.354C352.461 106.228 352.851 106.205 353.224 106.289L354.061 106.442C354.525 106.545 355.011 106.481 355.434 106.263C355.858 106.045 356.191 105.686 356.377 105.248L356.776 104.38C356.985 103.95 357.04 103.461 356.932 102.995C356.824 102.529 356.56 102.114 356.184 101.819L355.551 101.308C355.26 101.079 355.036 100.777 354.9 100.433C354.763 100.089 354.72 99.7146 354.775 99.3486C354.875 98.7234 354.94 98.0929 354.969 97.4603C355.005 97.0949 355.136 96.7453 355.349 96.4462C355.562 96.1472 355.85 95.9091 356.184 95.7558ZM348.641 96.307C348.641 98.4145 348.016 100.475 346.845 102.227C345.674 103.979 344.01 105.345 342.063 106.152C340.116 106.958 337.973 107.169 335.906 106.758C333.839 106.347 331.94 105.332 330.45 103.842C328.96 102.352 327.945 100.453 327.534 98.3858C327.123 96.3188 327.334 94.1763 328.14 92.2292C328.947 90.2821 330.313 88.6179 332.065 87.447C333.817 86.2761 335.877 85.6512 337.985 85.6512C340.798 85.6484 343.497 86.7611 345.49 88.7452C347.484 90.7293 348.61 93.4229 348.62 96.2355L348.641 96.307Z" fill="#9468B4" stroke="#263238" stroke-width="1.02934" stroke-miterlimit="10"/>
<path d="M370.432 23.1351V23.7168H63.7407V23.1351C63.7394 21.6303 64.0346 20.1401 64.6095 18.7495C65.1844 17.3589 66.0278 16.0952 67.0913 15.0307C68.1549 13.9662 69.4178 13.1218 70.8078 12.5456C72.1979 11.9695 73.6879 11.6729 75.1927 11.6729H358.939C360.448 11.6675 361.942 11.9601 363.337 12.5339C364.732 13.1076 365.999 13.9512 367.067 15.0162C368.135 16.0813 368.982 17.3468 369.559 18.74C370.137 20.1333 370.434 21.6269 370.432 23.1351Z" fill="#263238"/>
<path d="M370.432 23.1351V235.904C370.433 237.41 370.138 238.901 369.562 240.292C368.987 241.683 368.143 242.948 367.078 244.012C366.013 245.077 364.749 245.921 363.358 246.497C361.967 247.072 360.476 247.368 358.97 247.366H75.2233C73.716 247.37 72.2227 247.077 70.829 246.503C69.4354 245.928 68.1689 245.084 67.1021 244.019C66.0353 242.955 65.1893 241.69 64.6124 240.297C64.0356 238.904 63.7394 237.412 63.7407 235.904V23.1351C63.7394 21.6303 64.0346 20.1401 64.6095 18.7495C65.1844 17.3589 66.0278 16.0952 67.0913 15.0307C68.1549 13.9662 69.4178 13.1218 70.8078 12.5456C72.1979 11.9695 73.6879 11.6729 75.1927 11.6729H358.939C360.448 11.6675 361.942 11.9601 363.337 12.5339C364.732 13.1076 365.999 13.9512 367.067 15.0162C368.135 16.0813 368.982 17.3468 369.559 18.74C370.137 20.1333 370.433 21.6269 370.432 23.1351V23.1351Z" stroke="#263238" stroke-width="1.02934" stroke-linecap="round" stroke-linejoin="round"/>
<path d="M63.7407 23.1353H370.432" stroke="#263238" stroke-width="1.02934" stroke-linecap="round" stroke-linejoin="round"/>
<path d="M89.3086 17.7148C89.3086 18.1751 89.1721 18.625 88.9164 19.0077C88.6607 19.3904 88.2972 19.6887 87.872 19.8648C87.4468 20.0409 86.9789 20.087 86.5274 19.9972C86.076 19.9074 85.6614 19.6858 85.3359 19.3604C85.0104 19.0349 84.7888 18.6202 84.699 18.1688C84.6092 17.7174 84.6553 17.2495 84.8314 16.8243C85.0076 16.399 85.3058 16.0356 85.6885 15.7799C86.0712 15.5242 86.5212 15.3877 86.9814 15.3877C87.5986 15.3877 88.1905 15.6329 88.627 16.0693C89.0634 16.5057 89.3086 17.0976 89.3086 17.7148Z" fill="#9468B4"/>
<path d="M100.322 17.7156C100.318 18.1767 100.177 18.6262 99.9165 19.007C99.6565 19.3878 99.2893 19.6828 98.8613 19.8545C98.4334 20.0263 97.9641 20.067 97.5129 19.9715C97.0618 19.8761 96.6492 19.6488 96.3275 19.3185C96.0058 18.9881 95.7894 18.5696 95.7059 18.1162C95.6225 17.6627 95.6756 17.1946 95.8586 16.7713C96.0415 16.3481 96.3461 15.9887 96.7337 15.7389C97.1213 15.489 97.5743 15.36 98.0353 15.368C98.649 15.3788 99.2335 15.6315 99.6617 16.0712C100.09 16.5108 100.327 17.1019 100.322 17.7156Z" fill="#9468B4"/>
<path d="M111.304 17.7148C111.304 18.1751 111.168 18.625 110.912 19.0077C110.656 19.3904 110.293 19.6887 109.867 19.8648C109.442 20.0409 108.974 20.087 108.523 19.9972C108.071 19.9074 107.657 19.6858 107.331 19.3604C107.006 19.0349 106.784 18.6202 106.694 18.1688C106.605 17.7174 106.651 17.2495 106.827 16.8243C107.003 16.399 107.301 16.0356 107.684 15.7799C108.067 15.5242 108.517 15.3877 108.977 15.3877C109.283 15.3877 109.585 15.4479 109.867 15.5648C110.15 15.6818 110.406 15.8532 110.622 16.0693C110.839 16.2854 111.01 16.5419 111.127 16.8243C111.244 17.1066 111.304 17.4092 111.304 17.7148Z" fill="#9468B4"/>
<path d="M266.069 144.891C266.069 154.526 263.211 163.945 257.858 171.957C252.505 179.968 244.897 186.212 235.995 189.899C227.093 193.587 217.298 194.551 207.848 192.672C198.398 190.792 189.717 186.152 182.904 179.339C176.091 172.526 171.451 163.845 169.571 154.395C167.692 144.945 168.656 135.15 172.344 126.248C176.031 117.346 182.275 109.738 190.286 104.385C198.298 99.0315 207.717 96.1743 217.352 96.1743V96.1743C230.22 96.1741 242.565 101.265 251.692 110.335C260.819 119.405 265.988 131.717 266.069 144.585V144.891Z" stroke="#263238" stroke-width="4.11736" stroke-miterlimit="10"/>
<path d="M446.901 35.0669H273.509C267.184 35.0669 262.057 40.1941 262.057 46.5188V85.0084C262.057 91.3331 267.184 96.4603 273.509 96.4603H446.901C453.226 96.4603 458.353 91.3331 458.353 85.0084V46.5188C458.353 40.1941 453.226 35.0669 446.901 35.0669Z" fill="white" stroke="#263238" stroke-width="1.02934" stroke-miterlimit="10"/>
<path d="M296.413 65.4927H430.192" stroke="#263238" stroke-width="1.02934" stroke-miterlimit="10"/>
<path d="M292.238 65.4927L313.366 50.6011H367.176L389.131 65.4927" stroke="#263238" stroke-width="1.02934" stroke-miterlimit="10"/>
<path d="M393.295 65.4929C393.295 66.319 393.05 67.1265 392.591 67.8132C392.132 68.4999 391.479 69.035 390.716 69.3507C389.952 69.6663 389.112 69.7484 388.302 69.5865C387.492 69.4246 386.749 69.026 386.165 68.4411C385.582 67.8563 385.185 67.1115 385.025 66.3011C384.865 65.4906 384.949 64.6509 385.267 63.8883C385.584 63.1257 386.121 62.4744 386.809 62.0169C387.497 61.5595 388.305 61.3164 389.131 61.3184C390.236 61.3211 391.295 61.7621 392.076 62.5447C392.857 63.3273 393.295 64.3875 393.295 65.4929Z" fill="#9468B4" stroke="#263238" stroke-width="1.02934" stroke-miterlimit="10"/>
<path d="M313.366 54.7759C315.672 54.7759 317.541 52.9068 317.541 50.6013C317.541 48.2958 315.672 46.4268 313.366 46.4268C311.061 46.4268 309.192 48.2958 309.192 50.6013C309.192 52.9068 311.061 54.7759 313.366 54.7759Z" fill="#9468B4" stroke="#263238" stroke-width="1.02934" stroke-miterlimit="10"/>
<path d="M371.341 50.6014C371.343 51.4279 371.099 52.2364 370.641 52.9245C370.183 53.6125 369.531 54.1492 368.768 54.4664C368.005 54.7836 367.165 54.8671 366.354 54.7064C365.543 54.5456 364.799 54.1478 364.214 53.5634C363.63 52.979 363.232 52.2342 363.071 51.4235C362.91 50.6127 362.994 49.7725 363.311 49.0093C363.628 48.2461 364.165 47.5942 364.853 47.1363C365.541 46.6784 366.35 46.435 367.176 46.437C368.28 46.4397 369.337 46.8793 370.118 47.6597C370.898 48.4401 371.338 49.4977 371.341 50.6014Z" fill="#9468B4" stroke="#263238" stroke-width="1.02934" stroke-miterlimit="10"/>
<path d="M292.238 65.4927L313.366 80.3843H412.535L430.192 65.4927" stroke="#263238" stroke-width="1.02934" stroke-miterlimit="10"/>
<path d="M349.845 80.3845C349.845 81.2102 349.6 82.0173 349.142 82.7038C348.683 83.3903 348.031 83.9253 347.268 84.2413C346.505 84.5572 345.666 84.6399 344.856 84.4788C344.046 84.3178 343.303 83.9202 342.719 83.3364C342.135 82.7525 341.737 82.0087 341.576 81.1989C341.415 80.3891 341.498 79.5498 341.814 78.787C342.13 78.0242 342.665 77.3722 343.351 76.9135C344.038 76.4548 344.845 76.21 345.671 76.21C346.778 76.21 347.84 76.6498 348.622 77.4327C349.405 78.2155 349.845 79.2773 349.845 80.3845Z" fill="#9468B4" stroke="#263238" stroke-width="1.02934" stroke-miterlimit="10"/>
<path d="M317.541 80.3845C317.541 81.2102 317.296 82.0173 316.837 82.7038C316.379 83.3903 315.727 83.9253 314.964 84.2413C314.201 84.5572 313.362 84.6399 312.552 84.4788C311.742 84.3178 310.998 83.9202 310.414 83.3364C309.831 82.7525 309.433 82.0087 309.272 81.1989C309.111 80.3891 309.194 79.5498 309.51 78.787C309.826 78.0242 310.361 77.3722 311.047 76.9135C311.734 76.4548 312.541 76.21 313.366 76.21C314.473 76.21 315.535 76.6498 316.318 77.4327C317.101 78.2155 317.541 79.2773 317.541 80.3845Z" fill="#9468B4" stroke="#263238" stroke-width="1.02934" stroke-miterlimit="10"/>
<path d="M416.709 80.3845C416.709 81.2102 416.464 82.0173 416.006 82.7038C415.547 83.3903 414.895 83.9253 414.132 84.2413C413.37 84.5572 412.53 84.6399 411.72 84.4788C410.911 84.3178 410.167 83.9202 409.583 83.3364C408.999 82.7525 408.602 82.0087 408.44 81.1989C408.279 80.3891 408.362 79.5498 408.678 78.787C408.994 78.0242 409.529 77.3722 410.216 76.9135C410.902 76.4548 411.709 76.21 412.535 76.21C413.642 76.21 414.704 76.6498 415.487 77.4327C416.27 78.2155 416.709 79.2773 416.709 80.3845Z" fill="#9468B4" stroke="#263238" stroke-width="1.02934" stroke-miterlimit="10"/>
<path d="M430.192 69.6674C432.498 69.6674 434.367 67.7984 434.367 65.4929C434.367 63.1874 432.498 61.3184 430.192 61.3184C427.887 61.3184 426.018 63.1874 426.018 65.4929C426.018 67.7984 427.887 69.6674 430.192 69.6674Z" fill="#9468B4" stroke="#263238" stroke-width="1.02934" stroke-miterlimit="10"/>
<path d="M296.413 65.4929C296.413 66.319 296.168 67.1265 295.709 67.8132C295.25 68.4999 294.597 69.035 293.834 69.3507C293.07 69.6663 292.23 69.7484 291.42 69.5865C290.61 69.4246 289.866 69.026 289.283 68.4411C288.7 67.8563 288.303 67.1115 288.143 66.3011C287.983 65.4906 288.067 64.6509 288.385 63.8883C288.702 63.1257 289.239 62.4744 289.927 62.0169C290.614 61.5595 291.423 61.3164 292.249 61.3184C293.354 61.3211 294.413 61.7621 295.194 62.5447C295.975 63.3273 296.413 64.3875 296.413 65.4929Z" fill="#9468B4" stroke="#263238" stroke-width="1.02934" stroke-miterlimit="10"/>
<path d="M170.574 164.386H70.6812C64.3564 164.386 59.2292 169.513 59.2292 175.838V275.731C59.2292 282.056 64.3564 287.183 70.6812 287.183H170.574C176.899 287.183 182.026 282.056 182.026 275.731V175.838C182.026 169.513 176.899 164.386 170.574 164.386Z" fill="white" stroke="#263238" stroke-width="1.02934" stroke-miterlimit="10"/>
<path d="M105.272 234.496L89.3696 265.412H161.449" stroke="#263238" stroke-width="1.02934" stroke-linecap="round" stroke-linejoin="round"/>
<path d="M161.45 187.79L127.808 210.153L161.45 220.278" stroke="#263238" stroke-width="1.02934" stroke-linecap="round" stroke-linejoin="round"/>
<path d="M169.401 179.839H153.499V195.741H169.401V179.839Z" fill="#9468B4" stroke="#263238" stroke-width="1.02934" stroke-miterlimit="10"/>
<path d="M169.401 212.327H153.499V228.229H169.401V212.327Z" fill="#9468B4" stroke="#263238" stroke-width="1.02934" stroke-miterlimit="10"/>
<path d="M135.759 202.202H119.857V218.104H135.759V202.202Z" fill="#9468B4" stroke="#263238" stroke-width="1.02934" stroke-miterlimit="10"/>
<path d="M113.223 226.544H97.3207V242.446H113.223V226.544Z" fill="#9468B4" stroke="#263238" stroke-width="1.02934" stroke-miterlimit="10"/>
<path d="M97.3209 257.451H81.4188V273.353H97.3209V257.451Z" fill="#9468B4" stroke="#263238" stroke-width="1.02934" stroke-miterlimit="10"/>
<path d="M169.401 257.451H153.499V273.353H169.401V257.451Z" fill="#9468B4" stroke="#263238" stroke-width="1.02934" stroke-miterlimit="10"/>
<path d="M112.345 116.261H12.4519C6.12721 116.261 1 121.388 1 127.713V227.606C1 233.931 6.12721 239.058 12.4519 239.058H112.345C118.67 239.058 123.797 233.931 123.797 227.606V127.713C123.797 121.388 118.67 116.261 112.345 116.261Z" fill="white" stroke="#263238" stroke-width="1.02934" stroke-miterlimit="10"/>
<path d="M95.6774 128.143H13.993V134.471H95.6774V128.143Z" fill="#9468B4"/>
<path d="M61.1889 138.563H13.993V144.892H61.1889V138.563Z" fill="#9468B4"/>
<path d="M41.4797 148.984H13.993V155.313H41.4797V148.984Z" fill="#9468B4"/>
<path d="M59.2292 159.395H13.993V165.723H59.2292V159.395Z" fill="#9468B4"/>
<path d="M84.5112 169.815H13.993V176.144H84.5112V169.815Z" fill="#9468B4"/>
<path d="M61.1889 180.227H13.993V186.555H61.1889V180.227Z" fill="#9468B4"/>
<path d="M46.9199 190.647H13.993V196.976H46.9199V190.647Z" fill="#9468B4"/>
<path d="M67.3027 201.068H13.993V207.397H67.3027V201.068Z" fill="#9468B4"/>
<path d="M78.622 211.479H13.993V217.808H78.622V211.479Z" fill="#9468B4"/>
<path d="M95.6774 221.9H13.993V228.229H95.6774V221.9Z" fill="#9468B4"/>
<path opacity="0.3" d="M95.6774 128.143H13.993V134.471H95.6774V128.143Z" fill="black"/>
<path opacity="0.3" d="M61.1889 138.563H13.993V144.892H61.1889V138.563Z" fill="black"/>
<path opacity="0.3" d="M41.4797 148.984H13.993V155.313H41.4797V148.984Z" fill="black"/>
<path opacity="0.3" d="M59.2292 159.395H13.993V165.723H59.2292V159.395Z" fill="black"/>
<path opacity="0.3" d="M84.5112 169.815H13.993V176.144H84.5112V169.815Z" fill="black"/>
<path opacity="0.3" d="M61.1889 180.227H13.993V186.555H61.1889V180.227Z" fill="black"/>
<path opacity="0.3" d="M46.9199 190.647H13.993V196.976H46.9199V190.647Z" fill="black"/>
<path opacity="0.3" d="M67.3027 201.068H13.993V207.397H67.3027V201.068Z" fill="black"/>
<path opacity="0.3" d="M78.622 211.479H13.993V217.808H78.622V211.479Z" fill="black"/>
<path opacity="0.3" d="M95.6774 221.9H13.993V228.229H95.6774V221.9Z" fill="black"/>
<path d="M66.5884 105.493H96.3103C97.7451 105.493 99.121 106.063 100.135 107.078C101.15 108.092 101.72 109.468 101.72 110.903V116.282H61.1788V110.903C61.1788 109.468 61.7488 108.092 62.7633 107.078C63.7777 106.063 65.1537 105.493 66.5884 105.493Z" fill="white" stroke="#263238" stroke-width="1.02934" stroke-miterlimit="10"/>
<path d="M46.4913 105.493H75.8662C77.3496 105.493 78.7723 106.082 79.8212 107.131C80.8702 108.18 81.4595 109.603 81.4595 111.086V116.292H40.8776V111.086C40.8776 110.35 41.0229 109.621 41.3053 108.941C41.5876 108.261 42.0015 107.644 42.523 107.124C43.0446 106.605 43.6636 106.193 44.3445 105.913C45.0255 105.633 45.755 105.491 46.4913 105.493Z" fill="#9468B4" stroke="#263238" stroke-width="1.02934" stroke-miterlimit="10"/>
<path d="M23.9038 105.493H53.9932C55.3801 105.488 56.7126 106.033 57.6981 107.009C58.6835 107.985 59.2416 109.312 59.2497 110.699V116.261H18.678V110.699C18.6861 109.317 19.2399 107.995 20.2187 107.02C21.1976 106.045 22.5222 105.496 23.9038 105.493Z" fill="white" stroke="#263238" stroke-width="1.02934" stroke-miterlimit="10"/>
<path d="M406.462 330.592H428.784" stroke="#263238" stroke-width="1.02934" stroke-linecap="round" stroke-linejoin="round"/>
<path d="M54.8303 330.592H394.714" stroke="#263238" stroke-width="1.02934" stroke-linecap="round" stroke-linejoin="round"/>
<path d="M400.338 317.518C400.338 317.518 404.288 314.283 406.176 317.814C407.799 320.876 403.91 324.295 399.47 324.295V326.878C399.47 326.878 408.983 327.133 409.677 319.121C410.371 311.108 400.297 313.323 400.297 313.323L400.338 317.518Z" fill="#9468B4" stroke="#263238" stroke-width="1.02934" stroke-linecap="round" stroke-linejoin="round"/>
<path d="M400.011 330.542H380.965L378.108 306.627H402.869L400.011 330.542Z" fill="#9468B4" stroke="#263238" stroke-width="1.02934" stroke-linecap="round" stroke-linejoin="round"/>
<path d="M402.828 305.483H378.148C377.427 305.483 376.842 306.068 376.842 306.79V306.912C376.842 307.634 377.427 308.219 378.148 308.219H402.828C403.55 308.219 404.135 307.634 404.135 306.912V306.79C404.135 306.068 403.55 305.483 402.828 305.483Z" fill="white" stroke="#263238" stroke-width="1.02934" stroke-linecap="round" stroke-linejoin="round"/>
<path d="M387.253 302.88C387.253 302.88 396.01 297.624 393.152 291.592C390.295 285.56 380.629 281.589 380.629 272.199C380.629 264.115 389.223 261.125 394.837 257.91" stroke="#263238" stroke-width="1.02934" stroke-linecap="round" stroke-linejoin="round"/>
<path d="M390.131 263.615C388.988 264.389 388.009 265.381 387.251 266.535C386.492 267.688 385.969 268.98 385.711 270.336C385.453 271.692 385.465 273.086 385.747 274.438C386.029 275.789 386.576 277.071 387.355 278.211" stroke="#263238" stroke-width="1.02934" stroke-linecap="round" stroke-linejoin="round"/>
<path d="M394.898 287.448C396.653 290.817 397.138 294.704 396.265 298.4" stroke="#263238" stroke-width="1.02934" stroke-linecap="round" stroke-linejoin="round"/>
<path d="M160.296 328.611C160.296 328.611 159.898 321.752 153.846 319.333C147.793 316.914 144.558 317.915 131.054 321.548C122.539 323.776 113.818 325.127 105.027 325.58V328.642L160.296 328.611Z" fill="white" stroke="#263238" stroke-width="1.02934" stroke-linecap="round" stroke-linejoin="round"/>
<path d="M160.103 328.611C160.103 328.611 160.501 321.752 166.553 319.333C172.606 316.914 175.831 317.915 189.345 321.548C197.873 323.78 206.608 325.131 215.413 325.58V328.642L160.103 328.611Z" fill="white" stroke="#263238" stroke-width="1.02934" stroke-linecap="round" stroke-linejoin="round"/>
<path d="M217.607 327.397H103.639V329.612H217.607V327.397Z" fill="#263238" stroke="#263238" stroke-width="1.02934" stroke-linecap="round" stroke-linejoin="round"/>
<path d="M163.042 328.489C163.585 326.871 164.462 325.386 165.618 324.13C166.773 322.874 168.181 321.876 169.748 321.201" stroke="#263238" stroke-width="1.02934" stroke-linecap="round" stroke-linejoin="round"/>
<path d="M166.492 327.999C167.297 326.611 168.391 325.412 169.699 324.482C171.007 323.553 172.5 322.914 174.075 322.61C177.842 321.916 181.679 323.212 185.231 324.652C188.783 326.091 194.999 327.999 198.796 327.999" stroke="#263238" stroke-width="1.02934" stroke-linecap="round" stroke-linejoin="round"/>
<path d="M127.022 327.377C130.796 326.969 134.495 326.042 138.015 324.621C140.135 323.626 142.325 322.786 144.568 322.11C146.836 321.442 149.276 321.687 151.365 322.794C152.264 323.378 153.055 324.114 153.703 324.968C154.603 326.106 155.348 327.359 155.918 328.693" stroke="#263238" stroke-width="1.02934" stroke-linecap="round" stroke-linejoin="round"/>
<path d="M147.865 324.294C149.107 324.455 150.254 325.043 151.11 325.958C151.939 326.874 152.661 327.88 153.264 328.958" stroke="#263238" stroke-width="1.02934" stroke-linecap="round" stroke-linejoin="round"/>
<path d="M246.645 327.51C242.476 329.421 237.961 330.462 233.376 330.572C226.313 330.572 211.942 315.976 211.942 315.976C211.942 315.976 211.422 314.404 212.544 308.525C213.667 302.646 224.221 248.704 224.221 248.704C224.221 248.704 225.466 236.149 232.601 228.443C239.735 220.737 253.739 217.992 253.739 217.992C253.739 217.992 284.706 204.509 302.078 208.673C319.429 215.562 338.383 222.564 344.711 227.994C351.039 233.424 366.594 276.986 371.983 299.36C371.983 299.36 360.113 324.58 349.039 331.664C337.964 338.747 311.274 336.441 311.274 336.441L246.645 327.51Z" fill="#9468B4"/>
<path opacity="0.3" d="M242.715 283.672L238.235 224.218C235.302 225.406 232.702 227.29 230.659 229.706C228.616 232.123 227.191 235 226.507 238.089C224.19 248.725 210.176 314.18 211.912 315.997C213.647 317.814 222.782 325.642 222.782 325.642C222.782 325.642 232.631 334.063 242.715 329.031C252.8 323.999 242.715 283.672 242.715 283.672Z" fill="black"/>
<path opacity="0.3" d="M287.176 229.73C286.655 231.506 284.42 232.077 282.562 232.098C277.224 232.156 272.047 230.269 267.997 226.79C267.262 226.147 254.126 234.262 252.616 235.068C250.227 236.354 247.89 237.762 245.471 238.957C243.205 240.069 241.062 240.62 239.582 242.866C238.601 244.521 237.862 246.308 237.387 248.173C234.203 258.605 230.845 269.005 227.946 279.508C225.435 288.602 222.057 298.666 222.2 308.209C222.201 308.892 222.249 309.574 222.343 310.25C224.384 322.448 246.655 327.51 246.655 327.51C246.655 327.51 238.776 332.338 233.386 330.572C227.997 328.806 215.402 321.6 211.432 314.864L222.363 257.706C222.363 257.706 222.23 230.148 242.093 221.983C261.955 213.817 269.753 212.562 269.753 212.562L287.176 229.73Z" fill="black"/>
<path opacity="0.3" d="M360.47 319.64C360.47 319.64 369.146 310.056 371.953 299.38C371.953 299.38 358.684 255.552 355.234 247.326C351.784 239.099 346.201 229.76 342.292 225.759L335.944 315.966L334.607 334.95C334.607 334.95 341.751 335.246 346.702 332.909C351.652 330.572 360.47 319.64 360.47 319.64Z" fill="black"/>
<path d="M334.606 334.981L342.292 225.769C342.292 225.769 305.078 208.418 295.341 206.764C285.604 205.111 238.316 223.748 238.316 223.748L245.196 328.489" stroke="#263238" stroke-width="1.02934" stroke-linecap="round" stroke-linejoin="round"/>
<path d="M267.528 153.464L263.711 171.785C263.711 171.785 258.811 168.325 257.77 172.234C256.729 176.144 259.914 181.523 266.068 181.819C266.068 181.819 267.742 190.117 273.213 195.751C275.788 198.499 278.514 201.102 281.378 203.549C281.378 203.549 283.532 217.46 290.564 217.991C297.597 218.522 298.965 212.194 300.383 203.396C300.383 203.396 306.456 192.862 308.232 187.167C308.232 187.167 315.683 181.972 310.712 174.388C310.712 174.388 313.172 156.251 308.896 153.189C304.619 150.127 274.989 151.688 267.528 153.464Z" fill="white"/>
<path d="M290.217 219.442C290.217 219.442 287.86 231.322 286.39 231.618C284.92 231.914 279.102 226.362 274.019 219.442C268.936 212.522 269.722 212.511 269.722 212.511C269.722 212.511 272.08 203.427 274.019 202.1C275.959 200.774 282.95 200.937 282.95 200.937L298.26 200.355C298.26 200.355 303.364 199.63 306.518 201.662C309.671 203.693 311.202 212.511 311.202 212.511C311.202 212.511 302.016 229.444 294.525 231.618C292.855 227.646 291.416 223.581 290.217 219.442Z" fill="white"/>
<path d="M240.031 308.648L242.062 280.151" stroke="#263238" stroke-width="1.02934" stroke-miterlimit="10"/>
<path d="M311.202 158.711C311.202 158.711 302.506 162.079 294.821 161.436C294.821 161.436 286.706 169.602 276.316 164.754C276.316 164.754 266.946 190.128 288.431 206.724C282.997 204.639 278.135 201.293 274.247 196.961C270.359 192.63 267.556 187.436 266.068 181.809C266.068 181.809 259.944 182.758 257.77 173.644C257.77 173.644 256.005 170.122 264.058 170.102L263.711 152.444L284.4 156.598L299.25 154.424L311.202 158.711Z" fill="#9468B4"/>
<path opacity="0.4" d="M311.203 158.711C311.203 158.711 302.506 162.079 294.821 161.436C294.821 161.436 286.706 169.602 276.316 164.753C276.316 164.753 268.743 191.924 287.543 206.264C287.543 206.264 270.488 200.354 266.058 181.768C266.058 181.768 259.995 181.125 257.76 173.603C257.76 173.603 255.994 170.081 264.048 170.061L263.7 152.403L284.389 156.557L299.24 154.383L311.203 158.711Z" fill="white"/>
<path d="M287.553 193.883C288.227 194.428 288.933 194.932 289.666 195.394C290.146 195.7 290.871 195.945 291.207 195.496C291.323 195.313 291.383 195.1 291.381 194.884C291.687 189.872 290.513 184.81 291.228 179.839" stroke="#263238" stroke-width="1.02934" stroke-linecap="round" stroke-linejoin="round"/>
<path d="M294.525 176.991C294.525 176.991 297.015 171.5 303.435 176.43" stroke="#263238" stroke-width="2.05868" stroke-linecap="round" stroke-linejoin="round"/>
<path d="M286.451 177.962C286.451 177.962 281.756 172.123 275.938 178.145" stroke="#263238" stroke-width="2.05868" stroke-linecap="round" stroke-linejoin="round"/>
<path d="M280.113 202.671C280.113 202.671 282.613 217.644 291.432 218.104C298.577 218.471 299.985 206.09 300.261 201.661" stroke="#263238" stroke-width="1.02934" stroke-linecap="round" stroke-linejoin="round"/>
<path d="M264.915 173.449C264.915 173.449 261.026 168.805 258.393 171.071C255.76 173.337 259.71 183.319 266.068 181.809" stroke="#263238" stroke-width="1.02934" stroke-linecap="round" stroke-linejoin="round"/>
<path d="M281.756 195.741C283.675 198.054 286.299 199.675 289.227 200.354" stroke="#263238" stroke-width="1.02934" stroke-linecap="round" stroke-linejoin="round"/>
<path d="M281.327 187.055C281.885 187.055 282.338 186.095 282.338 184.911C282.338 183.728 281.885 182.768 281.327 182.768C280.769 182.768 280.317 183.728 280.317 184.911C280.317 186.095 280.769 187.055 281.327 187.055Z" fill="#263238"/>
<path d="M298.72 184.912C298.72 186.096 298.26 187.055 297.699 187.055C297.138 187.055 296.678 186.096 296.678 184.912C296.678 183.728 297.127 182.758 297.699 182.758C298.271 182.758 298.72 183.728 298.72 184.912Z" fill="#263238"/>
<path d="M290.503 217.982C290.503 217.982 288.054 231.322 286.421 231.618C284.787 231.914 272.223 220.523 269.753 212.511C269.753 212.511 272.407 202.039 274.856 201.661C276.01 201.478 277.337 201.304 278.388 201.171" stroke="#263238" stroke-width="1.02934" stroke-linecap="round" stroke-linejoin="round"/>
<path d="M290.503 217.981C290.503 217.981 292.871 231.321 294.525 231.617C296.178 231.913 308.732 220.523 311.202 212.51C311.202 212.51 308.202 202.11 305.926 201.232C304.473 200.687 302.978 200.264 301.455 199.966" stroke="#263238" stroke-width="1.02934" stroke-linecap="round" stroke-linejoin="round"/>
<path d="M267.273 185.167C268.885 187.963 270.886 178.114 270.039 174.96C269.467 172.919 268.355 170.938 268.253 168.836C268.151 166.447 269.273 164.212 270.151 161.977C271.029 159.742 271.488 157.078 270.151 155.077C274.786 158.355 280.228 160.307 285.89 160.721C287.334 160.925 288.804 160.806 290.197 160.374C290.887 160.147 291.507 159.746 291.997 159.21C292.487 158.674 292.83 158.02 292.994 157.312C298.301 157.986 303.558 158.68 308.845 157.955C313.285 157.353 320.184 156.231 322.461 151.699C325.798 145.085 317.204 138.216 312.131 135.899C299.883 130.295 283.328 129.346 272.264 138.144C271.129 139.128 269.939 140.048 268.702 140.9C266.262 142.431 260.71 143.615 258.76 145.748C256.148 148.616 259.424 170.765 259.424 170.765C259.424 170.765 263.69 168.785 265.446 175.389C266.671 179.839 265.64 182.35 267.273 185.167Z" fill="#263238"/>
<path d="M307.405 156.527C307.334 156.801 307.286 157.081 307.263 157.364C307.149 159.876 307.449 162.39 308.151 164.805C308.426 165.886 308.824 166.938 308.998 168.04C309.406 170.663 309.406 173.194 311.345 175.328C311.345 175.328 315.061 162.335 313.56 153.046C313.387 152.026 313.05 149.27 311.406 149.77C310.202 150.138 309.365 152.199 308.834 153.2C308.242 154.255 307.763 155.371 307.405 156.527Z" fill="#263238"/>
<path d="M256.127 144.279C257.77 143.138 259.661 142.404 261.643 142.138C263.625 141.872 265.642 142.081 267.528 142.748C270.494 137.466 274.623 132.928 279.603 129.479" stroke="#263238" stroke-width="1.02934" stroke-linecap="round" stroke-linejoin="round"/>
<path opacity="0.47" d="M272.09 141.155C272.09 141.155 292.095 155.383 304.211 151.862C316.326 148.34 312.938 137.919 312.938 137.919" stroke="white" stroke-width="1.02934" stroke-linecap="round" stroke-linejoin="round"/>
<path opacity="0.47" d="M274.02 138.767C274.02 138.767 299.138 150.311 303.364 133.97" stroke="white" stroke-width="1.02934" stroke-linecap="round" stroke-linejoin="round"/>
<path d="M280.113 202.671C280.113 202.671 284.89 211.949 288.635 211.796C292.381 211.643 299.25 201.661 299.25 201.661C299.25 201.661 295.545 206.437 289.921 206.927C286.216 207.254 280.113 202.671 280.113 202.671Z" fill="#263238"/>
<path d="M309.018 270.413L309.794 270.056C310.228 269.864 310.585 269.53 310.805 269.109C311.026 268.689 311.098 268.206 311.009 267.739L310.855 266.8C310.78 266.332 310.548 265.904 310.198 265.585C309.847 265.266 309.399 265.076 308.926 265.045L307.987 264.963C307.617 264.937 307.259 264.812 306.953 264.603C306.646 264.393 306.401 264.105 306.242 263.769C305.987 263.238 305.721 262.748 305.425 262.217C305.24 261.898 305.142 261.535 305.142 261.166C305.142 260.797 305.24 260.434 305.425 260.115L305.905 259.298C306.14 258.887 306.235 258.41 306.174 257.94C306.113 257.47 305.9 257.033 305.568 256.695L304.895 256.032C304.567 255.682 304.127 255.459 303.651 255.401C303.175 255.343 302.694 255.454 302.292 255.716L301.465 256.206C301.146 256.391 300.783 256.489 300.414 256.489C300.045 256.489 299.682 256.391 299.363 256.206C298.023 255.432 296.584 254.845 295.086 254.46C294.72 254.365 294.386 254.172 294.12 253.902C293.854 253.633 293.666 253.297 293.575 252.929L293.33 251.909C293.229 251.434 292.962 251.01 292.576 250.715C292.191 250.419 291.713 250.271 291.228 250.296H290.289C289.805 250.27 289.328 250.417 288.943 250.711C288.558 251.004 288.29 251.425 288.186 251.898L287.921 252.919C287.836 253.282 287.653 253.615 287.392 253.881C287.131 254.147 286.802 254.337 286.441 254.43C285.91 254.583 285.42 254.736 284.89 254.93C284.538 255.056 284.159 255.087 283.791 255.018C283.423 254.95 283.08 254.786 282.797 254.542L281.95 253.817C281.603 253.497 281.157 253.307 280.686 253.279C280.215 253.251 279.75 253.387 279.368 253.664L278.623 254.174C278.212 254.434 277.907 254.831 277.763 255.295C277.619 255.759 277.645 256.259 277.837 256.706L278.214 257.726C278.351 258.074 278.392 258.452 278.335 258.822C278.278 259.191 278.123 259.539 277.888 259.829C277.549 260.23 277.232 260.649 276.938 261.084C276.725 261.396 276.431 261.644 276.088 261.802C275.744 261.961 275.365 262.023 274.989 261.983L273.968 261.891C273.494 261.827 273.012 261.932 272.607 262.188C272.202 262.443 271.9 262.833 271.753 263.289L271.417 264.208C271.253 264.644 271.24 265.123 271.379 265.568C271.517 266.014 271.8 266.4 272.182 266.667L273.203 267.351C273.505 267.568 273.744 267.861 273.898 268.199C274.052 268.537 274.115 268.91 274.081 269.28C274.018 269.826 273.99 270.375 273.999 270.924C273.99 271.282 273.891 271.633 273.713 271.945C273.535 272.257 273.283 272.519 272.978 272.71L271.958 273.261C271.538 273.489 271.209 273.852 271.023 274.292C270.838 274.731 270.807 275.221 270.937 275.68L271.182 276.599C271.3 277.061 271.574 277.469 271.956 277.755C272.338 278.041 272.807 278.188 273.284 278.17H274.305C274.674 278.166 275.037 278.258 275.359 278.437C275.681 278.616 275.951 278.876 276.142 279.191C276.428 279.701 276.724 280.212 277.051 280.651C277.261 280.956 277.386 281.311 277.415 281.68C277.444 282.049 277.374 282.419 277.214 282.753L276.785 283.651C276.574 284.078 276.513 284.563 276.613 285.029C276.713 285.494 276.968 285.912 277.337 286.213L278.061 286.826C278.422 287.134 278.877 287.31 279.352 287.327C279.826 287.344 280.292 287.199 280.674 286.918L281.429 286.387C281.722 286.177 282.065 286.049 282.424 286.015C282.783 285.981 283.144 286.042 283.471 286.193C284.012 286.448 284.553 286.673 285.114 286.887C285.459 287.015 285.764 287.231 285.999 287.514C286.234 287.797 286.39 288.137 286.451 288.5L286.604 289.418C286.683 289.886 286.918 290.314 287.27 290.632C287.621 290.951 288.07 291.141 288.544 291.174L289.503 291.255C289.974 291.301 290.446 291.185 290.843 290.927C291.239 290.67 291.537 290.285 291.687 289.837L291.983 289.02C292.108 288.666 292.326 288.352 292.613 288.11C292.9 287.867 293.246 287.706 293.616 287.642C294.211 287.547 294.8 287.421 295.382 287.265C295.741 287.169 296.118 287.17 296.477 287.266C296.835 287.363 297.162 287.553 297.423 287.816L298.046 288.449C298.374 288.786 298.806 289.003 299.272 289.066C299.738 289.129 300.212 289.034 300.618 288.796L301.455 288.326C301.876 288.098 302.207 287.733 302.393 287.291C302.579 286.849 302.608 286.357 302.476 285.897L302.241 285.08C302.131 284.715 302.123 284.326 302.216 283.956C302.309 283.586 302.501 283.248 302.772 282.978C303.21 282.548 303.626 282.094 304.017 281.62C304.261 281.327 304.579 281.106 304.939 280.98C305.298 280.855 305.685 280.829 306.058 280.906L306.905 281.069C307.371 281.159 307.853 281.089 308.273 280.87C308.694 280.652 309.028 280.297 309.222 279.865L309.62 279.007C309.829 278.577 309.885 278.088 309.777 277.622C309.669 277.156 309.405 276.74 309.028 276.445L308.396 275.925C308.102 275.701 307.875 275.401 307.738 275.057C307.601 274.714 307.561 274.34 307.62 273.975C307.72 273.35 307.785 272.72 307.814 272.087C307.854 271.728 307.986 271.386 308.197 271.092C308.408 270.799 308.691 270.565 309.018 270.413ZM296.372 270.954C296.374 272.053 296.05 273.127 295.441 274.042C294.832 274.956 293.966 275.67 292.952 276.091C291.937 276.513 290.82 276.625 289.743 276.411C288.665 276.198 287.675 275.67 286.897 274.894C286.12 274.118 285.59 273.129 285.375 272.051C285.16 270.974 285.269 269.857 285.689 268.842C286.109 267.827 286.82 266.959 287.734 266.348C288.647 265.738 289.721 265.412 290.82 265.412C292.285 265.409 293.692 265.988 294.731 267.021C295.77 268.055 296.356 269.458 296.362 270.924L296.372 270.954Z" fill="#263238"/>
<path d="M240.245 304.81C239.412 305.728 238.5 306.572 237.52 307.331C234.863 309.905 232.87 313.085 231.713 316.599C231.141 318.224 231.141 319.995 231.713 321.621C232.948 324.683 236.867 327.745 240 325.785" stroke="#263238" stroke-width="1.02934" stroke-linecap="round" stroke-linejoin="round"/>
<path d="M240 299.421C237.01 298.952 234.07 300.687 232.029 302.902C229.988 305.117 228.569 307.852 226.711 310.23" stroke="#263238" stroke-width="1.02934" stroke-linecap="round" stroke-linejoin="round"/>
<path d="M239.766 330.112C235.785 330.886 231.663 330.445 227.936 328.847C225.575 327.577 223.375 326.028 221.383 324.233L213.626 317.824C212.381 316.803 211.003 315.323 211.513 313.792C211.513 313.792 224.476 245.478 226.507 238.089C228.865 229.566 238.357 223.799 238.357 223.799" stroke="#263238" stroke-width="1.02934" stroke-linecap="round" stroke-linejoin="round"/>
<path d="M337.026 305.545C340.364 308.055 342.916 311.464 344.385 315.374C345.546 319.001 346.323 322.74 346.702 326.53C344.66 327.653 340.578 330.613 337.026 330.613" stroke="#263238" stroke-width="1.02934" stroke-linecap="round" stroke-linejoin="round"/>
<path d="M337.464 299.859C340.608 299.022 343.721 301.166 346.099 303.391C348.477 305.616 350.917 308.198 354.152 308.545" stroke="#263238" stroke-width="1.02934" stroke-linecap="round" stroke-linejoin="round"/>
<path d="M338.067 335.359C344.191 334.715 349.702 331.378 354.111 327.122C358.521 322.866 361.909 317.701 365.267 312.587C367.993 308.443 370.759 304.187 371.953 299.38C371.953 299.38 361.205 263.85 355.234 247.326C349.008 230.148 342.292 225.759 342.292 225.759" stroke="#263238" stroke-width="1.02934" stroke-linecap="round" stroke-linejoin="round"/>
<path d="M337.464 299.86C343.007 295.205 351.509 298.972 357.47 302.095" stroke="#263238" stroke-width="1.02934" stroke-linecap="round" stroke-linejoin="round"/>
<path d="M337.015 280.844H240.245V336.461H337.015V280.844Z" fill="white"/>
<path d="M337.464 336.461H239.766V339.37H337.464V336.461Z" fill="#263238"/>
<path d="M239.766 336.461L337.025 280.844L337.464 336.461H239.766Z" fill="#263238"/>
<path opacity="0.9" d="M239.766 336.461L337.025 280.844L337.464 336.461H239.766Z" fill="white"/>
<path d="M295.767 313.574C298.988 310.354 298.988 305.132 295.767 301.911C292.547 298.69 287.325 298.69 284.104 301.911C280.884 305.132 280.884 310.354 284.104 313.574C287.325 316.795 292.547 316.795 295.767 313.574Z" fill="#263238"/>
<path d="M337.015 280.844H240.245V336.461H337.015V280.844Z" stroke="#263238" stroke-width="1.02934" stroke-linecap="round" stroke-linejoin="round"/>
<path d="M264.466 167.815C264.466 167.815 266.589 187.208 269.283 190.709C271.978 194.209 280.633 206.876 290.064 206.682C299.495 206.488 305.65 194.363 307.191 189.167C309.109 182.588 310.27 175.811 310.651 168.968" stroke="#263238" stroke-width="1.02934" stroke-linecap="round" stroke-linejoin="round"/>
<path d="M308.171 187.147C308.171 187.147 315.163 183.534 310.651 174.369" stroke="#263238" stroke-width="1.02934" stroke-linecap="round" stroke-linejoin="round"/>
</svg>
