<svg width="240" height="227" viewBox="0 0 240 227" fill="none" xmlns="http://www.w3.org/2000/svg">
<path d="M214.366 80.8954C212.821 72.7388 210.846 64.6696 208.449 56.7215C201.242 33.7172 186.898 10.441 162.263 2.61484C144.076 -3.15679 124.447 0.825822 109.079 12.5903C84.9751 31.0368 67.4326 56.2095 41.0588 72.1842C19.0407 85.5291 7.51637 107.086 14.919 137.556C22.3216 168.026 47.0517 185.777 74.1146 183.622C96.6068 181.807 120.123 183.748 139.569 194.665C156.947 204.42 187.651 195.93 213.051 169.284C227.85 153.752 226.415 134.003 221.591 115.55C218.608 104.121 216.673 92.4639 214.366 80.8954Z" fill="#9468B4"/>
<path opacity="0.7" d="M214.366 80.8954C212.821 72.7388 210.846 64.6696 208.449 56.7215C201.242 33.7172 186.898 10.441 162.263 2.61484C144.076 -3.15679 124.447 0.825822 109.079 12.5903C84.9751 31.0368 67.4326 56.2095 41.0588 72.1842C19.0407 85.5291 7.51637 107.086 14.919 137.556C22.3216 168.026 47.0517 185.777 74.1146 183.622C96.6068 181.807 120.123 183.748 139.569 194.665C156.947 204.42 187.651 195.93 213.051 169.284C227.85 153.752 226.415 134.003 221.591 115.55C218.608 104.121 216.673 92.4639 214.366 80.8954Z" fill="white"/>
<path d="M240 222.486C240 224.459 186.266 226.064 120.003 226.064C53.74 226.064 0 224.459 0 222.486C0 220.514 53.7337 218.908 120.003 218.908C186.273 218.908 240 220.514 240 222.486Z" fill="#9468B4"/>
<path opacity="0.3" d="M240 222.486C240 224.459 186.266 226.064 120.003 226.064C53.74 226.064 0 224.459 0 222.486C0 220.514 53.7337 218.908 120.003 218.908C186.273 218.908 240 220.514 240 222.486Z" fill="white"/>
<path d="M217.027 153.6C217.027 153.631 218.652 151.924 218.74 151.804C219.771 150.426 220.953 147.152 219.834 145.577C219.641 145.322 219.397 145.11 219.117 144.955C218.836 144.8 218.527 144.706 218.208 144.678C217.889 144.651 217.568 144.691 217.265 144.796C216.963 144.901 216.686 145.068 216.452 145.287C215.428 146.184 215.188 147.847 215.276 149.13C215.384 150.635 217.027 153.593 217.027 153.6Z" fill="#9468B4"/>
<path d="M231.795 147.721C230.214 146.615 226.952 147.822 225.58 148.859C225.46 148.954 223.766 150.572 223.798 150.585H223.836C223.317 150.775 222.767 150.977 222.167 151.217C221.067 151.66 219.828 152.178 218.513 152.823C217.093 153.513 215.713 154.281 214.379 155.124C212.883 156.063 211.474 157.133 210.168 158.323C210.152 158.336 210.137 158.351 210.124 158.367C210.402 157.88 211.142 156.47 211.186 156.369C211.818 154.764 212.09 151.312 210.598 150.079C210.343 149.885 210.05 149.746 209.737 149.672C209.425 149.598 209.101 149.591 208.785 149.65C208.47 149.71 208.171 149.835 207.907 150.018C207.643 150.201 207.421 150.437 207.254 150.711C206.508 151.849 206.71 153.512 207.14 154.726C207.621 156.097 209.802 158.361 209.979 158.519C208.677 159.761 207.46 161.089 206.337 162.495C205.705 163.31 205.042 164.151 204.441 165.023C204.669 164.594 204.871 164.202 204.89 164.145C205.522 162.545 205.794 159.087 204.302 157.855C204.047 157.66 203.754 157.522 203.443 157.448C203.131 157.374 202.807 157.366 202.492 157.426C202.177 157.486 201.878 157.611 201.615 157.794C201.352 157.977 201.13 158.213 200.964 158.487C200.212 159.618 200.42 161.287 200.844 162.495C201.268 163.702 203.101 165.7 203.588 166.212L202.848 167.185C201.71 168.772 200.585 170.346 199.428 171.876C199.023 172.413 198.606 172.932 198.164 173.444C198.366 173.058 198.537 172.736 198.556 172.685C199.188 171.08 199.46 167.628 197.968 166.364C197.713 166.168 197.42 166.028 197.107 165.954C196.795 165.879 196.47 165.872 196.154 165.932C195.838 165.991 195.539 166.117 195.275 166.3C195.011 166.484 194.789 166.721 194.624 166.996C193.871 168.134 194.08 169.796 194.51 171.01C194.94 172.224 196.583 174.019 197.158 174.632C196.716 175.151 196.273 175.663 195.818 176.143C195.502 176.466 195.224 176.775 194.883 177.098L193.915 178.008C193.283 178.564 192.651 179.146 191.987 179.677C191.545 180.05 191.121 180.391 190.723 180.739C191.128 180.214 191.912 179.159 191.987 179.064C192.7 177.727 193.057 176.229 193.024 174.715C193.108 174.569 193.18 174.417 193.239 174.259C193.357 173.961 193.411 173.642 193.398 173.321C193.385 173.001 193.304 172.687 193.162 172.4C193.019 172.112 192.818 171.858 192.571 171.654C192.324 171.449 192.037 171.299 191.728 171.212C189.832 170.751 187.24 173.046 186.336 174.512C186.285 174.601 185.805 175.6 185.52 176.238C185.628 175.84 185.748 175.448 185.855 175.037C186.083 174.221 186.285 173.4 186.488 172.508C186.576 172.078 186.671 171.642 186.766 171.206C186.861 170.77 186.917 170.302 187 169.847C187.158 168.785 187.271 167.704 187.366 166.61C188.081 166.806 190.628 167.47 191.905 167.242C193.182 167.015 194.744 166.446 195.388 165.251C195.552 164.975 195.655 164.668 195.691 164.349C195.727 164.03 195.696 163.707 195.598 163.402C195.501 163.096 195.34 162.815 195.126 162.576C194.913 162.336 194.651 162.145 194.358 162.014C192.575 161.268 189.648 163.146 188.529 164.455C188.46 164.537 187.765 165.567 187.392 166.142C187.442 165.51 187.493 164.828 187.524 164.157C187.6 162.261 187.625 160.282 187.657 158.335C187.657 157.741 187.657 157.147 187.695 156.553C187.948 156.622 190.963 157.475 192.392 157.254C193.656 157.065 195.23 156.464 195.882 155.263C196.043 154.986 196.144 154.678 196.178 154.36C196.213 154.041 196.181 153.719 196.083 153.414C195.985 153.109 195.824 152.828 195.611 152.589C195.398 152.35 195.137 152.158 194.845 152.026C193.068 151.287 190.135 153.164 189.016 154.473C188.934 154.568 187.935 156.053 187.695 156.445C187.727 155.136 187.771 153.828 187.866 152.545C187.988 150.81 188.22 149.085 188.561 147.38C188.681 147.38 191.823 148.315 193.29 148.088C194.554 147.898 196.122 147.298 196.773 146.097C196.934 145.82 197.036 145.513 197.071 145.195C197.106 144.876 197.074 144.554 196.977 144.249C196.88 143.944 196.72 143.663 196.507 143.424C196.294 143.184 196.034 142.992 195.742 142.86C193.96 142.12 191.027 143.991 189.914 145.306C189.838 145.389 189.073 146.52 188.725 147.064L188.624 147.026C189.015 145.318 189.559 143.649 190.249 142.038C190.616 141.147 191.014 140.319 191.425 139.509C191.994 139.737 194.586 140.774 195.938 140.698C197.291 140.622 198.846 140.217 199.624 139.099C199.815 138.841 199.949 138.547 200.019 138.234C200.089 137.922 200.093 137.598 200.03 137.284C199.966 136.97 199.838 136.673 199.653 136.411C199.467 136.15 199.229 135.931 198.954 135.767C197.266 134.838 194.143 136.399 192.891 137.556C192.822 137.619 192.202 138.346 191.753 138.884C191.943 138.53 192.133 138.157 192.322 137.815C193.03 136.551 193.751 135.413 194.402 134.421C194.775 133.864 195.123 133.365 195.458 132.897C196.128 132.834 198.846 132.524 199.991 131.873C201.135 131.222 202.349 130.109 202.519 128.756C202.571 128.44 202.556 128.117 202.474 127.807C202.393 127.497 202.246 127.208 202.045 126.958C201.844 126.709 201.593 126.505 201.307 126.359C201.022 126.214 200.709 126.13 200.389 126.114C198.461 126.063 196.406 128.864 195.837 130.489C195.787 130.634 195.268 132.916 195.3 132.91H195.344C195.015 133.331 194.668 133.812 194.301 134.351C193.625 135.331 192.872 136.443 192.139 137.708C191.332 139.064 190.604 140.465 189.958 141.905C189.23 143.516 188.644 145.187 188.207 146.899C188.211 146.92 188.211 146.942 188.207 146.963C188.207 146.4 188.017 144.826 187.992 144.706C187.638 143.024 185.95 139.977 184.035 139.788C183.715 139.763 183.394 139.807 183.092 139.915C182.79 140.023 182.515 140.194 182.284 140.416C182.052 140.638 181.87 140.906 181.749 141.203C181.628 141.5 181.571 141.819 181.582 142.139C181.582 143.498 182.676 144.775 183.7 145.547C184.857 146.425 187.923 147.114 188.169 147.165C187.772 148.921 187.492 150.701 187.328 152.494C187.234 153.537 187.164 154.587 187.107 155.655C187.063 155.168 187.019 154.732 187.006 154.675C186.646 152.987 184.958 149.946 183.042 149.75C182.723 149.726 182.401 149.77 182.1 149.878C181.798 149.986 181.522 150.157 181.291 150.379C181.06 150.601 180.878 150.869 180.757 151.166C180.636 151.463 180.579 151.782 180.59 152.102C180.59 153.461 181.683 154.738 182.707 155.516C183.731 156.293 186.355 156.938 187.044 157.102C187.044 157.507 187.006 157.912 186.993 158.316C186.917 160.263 186.854 162.21 186.734 164.113C186.69 164.783 186.62 165.447 186.557 166.104C186.519 165.675 186.475 165.308 186.469 165.257C186.108 163.57 184.42 160.529 182.505 160.333C182.185 160.309 181.864 160.352 181.562 160.46C181.261 160.569 180.985 160.739 180.754 160.961C180.522 161.183 180.34 161.451 180.219 161.748C180.098 162.045 180.042 162.364 180.052 162.684C180.052 164.05 181.146 165.321 182.17 166.098C183.194 166.876 185.565 167.464 186.38 167.653C186.298 168.33 186.209 169.006 186.096 169.651C186.007 170.093 185.957 170.53 185.843 170.966L185.539 172.23C185.312 173.046 185.091 173.893 184.85 174.683C184.686 175.233 184.522 175.758 184.357 176.289C184.408 175.618 184.477 174.31 184.471 174.196C184.376 172.483 183.169 169.215 181.31 168.734C180.998 168.663 180.675 168.658 180.361 168.72C180.047 168.781 179.749 168.908 179.487 169.093C179.226 169.277 179.006 169.514 178.842 169.789C178.677 170.064 178.573 170.37 178.535 170.688C178.326 172.034 179.211 173.457 180.109 174.379C181.007 175.302 183.902 176.51 184.256 176.649C183.978 177.521 183.706 178.362 183.434 179.178C182.492 181.927 181.607 184.184 180.969 185.752C180.969 185.809 180.925 185.86 180.899 185.91L182.05 186.542C182.088 186.441 182.132 186.34 182.17 186.232C182.802 184.633 183.63 182.332 184.515 179.532C184.8 178.647 185.084 177.698 185.369 176.718C186.333 176.839 187.304 176.903 188.277 176.908C188.624 178.318 190.236 180.632 190.445 180.929C189.737 181.504 189.042 182.06 188.378 182.572C186.077 184.349 184.092 185.733 182.688 186.694L182.524 186.808L183.788 187.503C185.154 186.523 186.949 185.164 189.079 183.47C189.8 182.888 190.565 182.25 191.336 181.573C191.621 181.814 193.928 183.773 195.294 184.165C196.526 184.519 198.202 184.633 199.289 183.818C199.552 183.635 199.773 183.398 199.938 183.124C200.104 182.85 200.209 182.544 200.249 182.226C200.288 181.908 200.26 181.586 200.167 181.279C200.073 180.973 199.916 180.69 199.706 180.448C198.404 179.026 194.959 179.5 193.384 180.221C193.296 180.265 192.348 180.853 191.753 181.207C192.07 180.935 192.386 180.676 192.695 180.391C193.328 179.841 193.96 179.266 194.63 178.647L195.578 177.717C195.9 177.408 196.21 177.047 196.526 176.712C197.247 175.916 197.936 175.075 198.612 174.215C199.106 174.771 200.869 176.744 202.039 177.275C203.208 177.806 204.846 178.172 206.047 177.534C206.334 177.392 206.587 177.191 206.792 176.945C206.996 176.699 207.147 176.413 207.234 176.105C207.321 175.797 207.342 175.474 207.297 175.157C207.251 174.84 207.14 174.537 206.97 174.266C205.895 172.666 202.418 172.609 200.762 173.084C200.654 173.115 199.497 173.589 198.865 173.861C199.264 173.343 199.674 172.824 200.06 172.281C201.192 170.719 202.285 169.12 203.385 167.502L204.403 166.035C204.574 166.231 206.622 168.608 207.937 169.196C209.1 169.733 210.737 170.1 211.938 169.455C212.227 169.314 212.482 169.115 212.688 168.869C212.893 168.623 213.045 168.336 213.132 168.027C213.219 167.719 213.24 167.395 213.193 167.078C213.147 166.761 213.034 166.457 212.861 166.187C211.787 164.587 208.31 164.53 206.654 165.011C206.533 165.042 204.877 165.732 204.466 165.927C205.212 164.853 205.971 163.784 206.761 162.767C207.814 161.383 208.959 160.072 210.187 158.841C210.27 158.936 212.394 161.42 213.734 162.04C214.903 162.583 216.541 162.944 217.742 162.305C218.029 162.164 218.284 161.964 218.489 161.718C218.694 161.472 218.845 161.185 218.932 160.877C219.019 160.569 219.04 160.245 218.994 159.928C218.948 159.611 218.836 159.308 218.665 159.037C217.59 157.431 214.113 157.381 212.457 157.855C212.349 157.886 211.091 158.411 210.497 158.67L210.434 158.575C211.702 157.371 213.075 156.282 214.537 155.32C215.339 154.776 216.13 154.302 216.914 153.866C217.261 154.365 218.873 156.647 220.024 157.343C221.174 158.038 222.71 158.55 223.975 158.044C224.277 157.935 224.552 157.762 224.783 157.539C225.014 157.315 225.195 157.045 225.314 156.747C225.434 156.449 225.489 156.128 225.476 155.807C225.463 155.486 225.382 155.171 225.239 154.884C224.348 153.17 220.896 152.741 219.202 153.031C219.107 153.031 218.184 153.31 217.52 153.512L218.582 152.93C219.878 152.26 221.111 151.716 222.192 151.249C222.824 150.99 223.381 150.762 223.912 150.56C224.512 150.876 226.94 152.121 228.254 152.203C229.569 152.285 231.2 152.033 232.085 151.002C232.288 150.77 232.441 150.5 232.536 150.208C232.632 149.915 232.667 149.606 232.64 149.3C232.612 148.993 232.524 148.695 232.378 148.424C232.233 148.153 232.035 147.914 231.795 147.721Z" fill="#9468B4"/>
<path d="M187.392 136.436C188.308 137.638 191.311 139.199 191.317 139.199C191.324 139.199 191.747 136.911 191.753 136.759C191.855 135.039 191.033 131.664 189.225 130.968C188.923 130.861 188.602 130.819 188.282 130.844C187.962 130.869 187.652 130.961 187.37 131.115C187.089 131.268 186.843 131.479 186.648 131.734C186.454 131.988 186.315 132.281 186.241 132.593C185.887 133.902 186.639 135.419 187.392 136.436Z" fill="#9468B4"/>
<g opacity="0.5">
<path opacity="0.5" d="M217.027 153.601C217.027 153.632 218.652 151.925 218.74 151.805C219.771 150.427 220.953 147.153 219.834 145.578C219.641 145.323 219.397 145.111 219.117 144.956C218.836 144.801 218.527 144.707 218.208 144.679C217.889 144.652 217.568 144.692 217.265 144.797C216.963 144.901 216.686 145.069 216.452 145.288C215.428 146.185 215.188 147.848 215.276 149.131C215.384 150.636 217.027 153.594 217.027 153.601Z" fill="white"/>
<path opacity="0.5" d="M231.795 147.721C230.214 146.615 226.952 147.822 225.58 148.859C225.46 148.954 223.766 150.572 223.798 150.585H223.836C223.317 150.775 222.767 150.977 222.167 151.217C221.067 151.66 219.828 152.178 218.513 152.823C217.093 153.513 215.713 154.281 214.379 155.124C212.883 156.063 211.474 157.133 210.168 158.323C210.152 158.336 210.137 158.351 210.124 158.367C210.402 157.88 211.142 156.47 211.186 156.369C211.818 154.764 212.09 151.312 210.598 150.079C210.343 149.885 210.05 149.746 209.737 149.672C209.425 149.598 209.101 149.591 208.785 149.65C208.47 149.71 208.171 149.835 207.907 150.018C207.643 150.201 207.421 150.437 207.254 150.711C206.508 151.849 206.71 153.512 207.14 154.726C207.621 156.097 209.802 158.361 209.979 158.519C208.677 159.761 207.46 161.089 206.337 162.495C205.705 163.31 205.042 164.151 204.441 165.023C204.669 164.594 204.871 164.202 204.89 164.145C205.522 162.545 205.794 159.087 204.302 157.855C204.047 157.66 203.754 157.522 203.443 157.448C203.131 157.374 202.807 157.366 202.492 157.426C202.177 157.486 201.878 157.611 201.615 157.794C201.352 157.977 201.13 158.213 200.964 158.487C200.212 159.618 200.42 161.287 200.844 162.495C201.268 163.702 203.101 165.7 203.588 166.212L202.848 167.185C201.71 168.772 200.585 170.346 199.428 171.876C199.023 172.413 198.606 172.932 198.164 173.444C198.366 173.058 198.537 172.736 198.556 172.685C199.188 171.08 199.46 167.628 197.968 166.364C197.713 166.168 197.42 166.028 197.107 165.954C196.795 165.879 196.47 165.872 196.154 165.932C195.838 165.991 195.539 166.117 195.275 166.3C195.011 166.484 194.789 166.721 194.624 166.996C193.871 168.134 194.08 169.796 194.51 171.01C194.94 172.224 196.583 174.019 197.158 174.632C196.716 175.151 196.273 175.663 195.818 176.143C195.502 176.466 195.224 176.775 194.883 177.098L193.915 178.008C193.283 178.564 192.651 179.146 191.987 179.677C191.545 180.05 191.121 180.391 190.723 180.739C191.128 180.214 191.912 179.159 191.987 179.064C192.7 177.727 193.057 176.229 193.024 174.715C193.108 174.569 193.18 174.417 193.239 174.259C193.357 173.961 193.411 173.642 193.398 173.321C193.385 173.001 193.304 172.687 193.162 172.4C193.019 172.112 192.818 171.858 192.571 171.654C192.324 171.449 192.037 171.299 191.728 171.212C189.832 170.751 187.24 173.046 186.336 174.512C186.285 174.601 185.805 175.6 185.52 176.238C185.628 175.84 185.748 175.448 185.855 175.037C186.083 174.221 186.285 173.4 186.488 172.508C186.576 172.078 186.671 171.642 186.766 171.206C186.861 170.77 186.917 170.302 187 169.847C187.158 168.785 187.271 167.704 187.366 166.61C188.081 166.806 190.628 167.47 191.905 167.242C193.182 167.015 194.744 166.446 195.388 165.251C195.552 164.975 195.655 164.668 195.691 164.349C195.727 164.03 195.696 163.707 195.598 163.402C195.501 163.096 195.34 162.815 195.126 162.576C194.913 162.336 194.651 162.145 194.358 162.014C192.575 161.268 189.648 163.146 188.529 164.455C188.46 164.537 187.765 165.567 187.392 166.142C187.442 165.51 187.493 164.828 187.524 164.157C187.6 162.261 187.625 160.282 187.657 158.335C187.657 157.741 187.657 157.147 187.695 156.553C187.948 156.622 190.963 157.475 192.392 157.254C193.656 157.065 195.23 156.464 195.882 155.263C196.043 154.986 196.144 154.678 196.178 154.36C196.213 154.041 196.181 153.719 196.083 153.414C195.985 153.109 195.824 152.828 195.611 152.589C195.398 152.35 195.137 152.158 194.845 152.026C193.068 151.287 190.135 153.164 189.016 154.473C188.934 154.568 187.935 156.053 187.695 156.445C187.727 155.136 187.771 153.828 187.866 152.545C187.988 150.81 188.22 149.085 188.561 147.38C188.681 147.38 191.823 148.315 193.29 148.088C194.554 147.898 196.122 147.298 196.773 146.097C196.934 145.82 197.036 145.513 197.071 145.195C197.106 144.876 197.074 144.554 196.977 144.249C196.88 143.944 196.72 143.663 196.507 143.424C196.294 143.184 196.034 142.992 195.742 142.86C193.96 142.12 191.027 143.991 189.914 145.306C189.838 145.389 189.073 146.52 188.725 147.064L188.624 147.026C189.015 145.318 189.559 143.649 190.249 142.038C190.616 141.147 191.014 140.319 191.425 139.509C191.994 139.737 194.586 140.774 195.938 140.698C197.291 140.622 198.846 140.217 199.624 139.099C199.815 138.841 199.949 138.547 200.019 138.234C200.089 137.922 200.093 137.598 200.03 137.284C199.966 136.97 199.838 136.673 199.653 136.411C199.467 136.15 199.229 135.931 198.954 135.767C197.266 134.838 194.143 136.399 192.891 137.556C192.822 137.619 192.202 138.346 191.753 138.884C191.943 138.53 192.133 138.157 192.322 137.815C193.03 136.551 193.751 135.413 194.402 134.421C194.775 133.864 195.123 133.365 195.458 132.897C196.128 132.834 198.846 132.524 199.991 131.873C201.135 131.222 202.349 130.109 202.519 128.756C202.571 128.44 202.556 128.117 202.474 127.807C202.393 127.497 202.246 127.208 202.045 126.958C201.844 126.709 201.593 126.505 201.307 126.359C201.022 126.214 200.709 126.13 200.389 126.114C198.461 126.063 196.406 128.864 195.837 130.489C195.787 130.634 195.268 132.916 195.3 132.91H195.344C195.015 133.331 194.668 133.812 194.301 134.351C193.625 135.331 192.872 136.443 192.139 137.708C191.332 139.064 190.604 140.465 189.958 141.905C189.23 143.516 188.644 145.187 188.207 146.899C188.211 146.92 188.211 146.942 188.207 146.963C188.207 146.4 188.017 144.826 187.992 144.706C187.638 143.024 185.95 139.977 184.035 139.788C183.715 139.763 183.394 139.807 183.092 139.915C182.79 140.023 182.515 140.194 182.284 140.416C182.052 140.638 181.87 140.906 181.749 141.203C181.628 141.5 181.571 141.819 181.582 142.139C181.582 143.498 182.676 144.775 183.7 145.547C184.857 146.425 187.923 147.114 188.169 147.165C187.772 148.921 187.492 150.701 187.328 152.494C187.234 153.537 187.164 154.587 187.107 155.655C187.063 155.168 187.019 154.732 187.006 154.675C186.646 152.987 184.958 149.946 183.042 149.75C182.723 149.726 182.401 149.77 182.1 149.878C181.798 149.986 181.522 150.157 181.291 150.379C181.06 150.601 180.878 150.869 180.757 151.166C180.636 151.463 180.579 151.782 180.59 152.102C180.59 153.461 181.683 154.738 182.707 155.516C183.731 156.293 186.355 156.938 187.044 157.102C187.044 157.507 187.006 157.912 186.993 158.316C186.917 160.263 186.854 162.21 186.734 164.113C186.69 164.783 186.62 165.447 186.557 166.104C186.519 165.675 186.475 165.308 186.469 165.257C186.108 163.57 184.42 160.529 182.505 160.333C182.185 160.309 181.864 160.352 181.562 160.46C181.261 160.569 180.985 160.739 180.754 160.961C180.522 161.183 180.34 161.451 180.219 161.748C180.098 162.045 180.042 162.364 180.052 162.684C180.052 164.05 181.146 165.321 182.17 166.098C183.194 166.876 185.565 167.464 186.38 167.653C186.298 168.33 186.209 169.006 186.096 169.651C186.007 170.093 185.957 170.53 185.843 170.966L185.539 172.23C185.312 173.046 185.091 173.893 184.85 174.683C184.686 175.233 184.522 175.758 184.357 176.289C184.408 175.618 184.477 174.31 184.471 174.196C184.376 172.483 183.169 169.215 181.31 168.734C180.998 168.663 180.675 168.658 180.361 168.72C180.047 168.781 179.749 168.908 179.487 169.093C179.226 169.277 179.006 169.514 178.842 169.789C178.677 170.064 178.573 170.37 178.535 170.688C178.326 172.034 179.211 173.457 180.109 174.379C181.007 175.302 183.902 176.51 184.256 176.649C183.978 177.521 183.706 178.362 183.434 179.178C182.492 181.927 181.607 184.184 180.969 185.752C180.969 185.809 180.925 185.86 180.899 185.91L182.05 186.542C182.088 186.441 182.132 186.34 182.17 186.232C182.802 184.633 183.63 182.332 184.515 179.532C184.8 178.647 185.084 177.698 185.369 176.718C186.333 176.839 187.304 176.903 188.277 176.908C188.624 178.318 190.236 180.632 190.445 180.929C189.737 181.504 189.042 182.06 188.378 182.572C186.077 184.349 184.092 185.733 182.688 186.694L182.524 186.808L183.788 187.503C185.154 186.523 186.949 185.164 189.079 183.47C189.8 182.888 190.565 182.25 191.336 181.573C191.621 181.814 193.928 183.773 195.294 184.165C196.526 184.519 198.202 184.633 199.289 183.818C199.552 183.635 199.773 183.398 199.938 183.124C200.104 182.85 200.209 182.544 200.249 182.226C200.288 181.908 200.26 181.586 200.167 181.279C200.073 180.973 199.916 180.69 199.706 180.448C198.404 179.026 194.959 179.5 193.384 180.221C193.296 180.265 192.348 180.853 191.753 181.207C192.07 180.935 192.386 180.676 192.695 180.391C193.328 179.841 193.96 179.266 194.63 178.647L195.578 177.717C195.9 177.408 196.21 177.047 196.526 176.712C197.247 175.916 197.936 175.075 198.612 174.215C199.106 174.771 200.869 176.744 202.039 177.275C203.208 177.806 204.846 178.172 206.047 177.534C206.334 177.392 206.587 177.191 206.792 176.945C206.996 176.699 207.147 176.413 207.234 176.105C207.321 175.797 207.342 175.474 207.297 175.157C207.251 174.84 207.14 174.537 206.97 174.266C205.895 172.666 202.418 172.609 200.762 173.084C200.654 173.115 199.497 173.589 198.865 173.861C199.264 173.343 199.674 172.824 200.06 172.281C201.192 170.719 202.285 169.12 203.385 167.502L204.403 166.035C204.574 166.231 206.622 168.608 207.937 169.196C209.1 169.733 210.737 170.1 211.938 169.455C212.227 169.314 212.482 169.115 212.688 168.869C212.893 168.623 213.045 168.336 213.132 168.027C213.219 167.719 213.24 167.395 213.193 167.078C213.147 166.761 213.034 166.457 212.861 166.187C211.787 164.587 208.31 164.53 206.654 165.011C206.533 165.042 204.877 165.732 204.466 165.927C205.212 164.853 205.971 163.784 206.761 162.767C207.814 161.383 208.959 160.072 210.187 158.841C210.27 158.936 212.394 161.42 213.734 162.04C214.903 162.583 216.541 162.944 217.742 162.305C218.029 162.164 218.284 161.964 218.489 161.718C218.694 161.472 218.845 161.185 218.932 160.877C219.019 160.569 219.04 160.245 218.994 159.928C218.948 159.611 218.836 159.308 218.665 159.037C217.59 157.431 214.113 157.381 212.457 157.855C212.349 157.886 211.091 158.411 210.497 158.67L210.434 158.575C211.702 157.371 213.075 156.282 214.537 155.32C215.339 154.776 216.13 154.302 216.914 153.866C217.261 154.365 218.873 156.647 220.024 157.343C221.174 158.038 222.71 158.55 223.975 158.044C224.277 157.935 224.552 157.762 224.783 157.539C225.014 157.315 225.195 157.045 225.314 156.747C225.434 156.449 225.489 156.128 225.476 155.807C225.463 155.486 225.382 155.171 225.239 154.884C224.348 153.17 220.896 152.741 219.202 153.031C219.107 153.031 218.184 153.31 217.52 153.512L218.582 152.93C219.878 152.26 221.111 151.716 222.192 151.249C222.824 150.99 223.381 150.762 223.912 150.56C224.512 150.876 226.94 152.121 228.254 152.203C229.569 152.285 231.2 152.033 232.085 151.002C232.288 150.77 232.441 150.5 232.536 150.208C232.632 149.915 232.667 149.606 232.64 149.3C232.612 148.993 232.524 148.695 232.378 148.424C232.233 148.153 232.035 147.914 231.795 147.721Z" fill="white"/>
<path opacity="0.5" d="M187.392 136.436C188.308 137.638 191.311 139.199 191.317 139.199C191.324 139.199 191.747 136.911 191.753 136.759C191.855 135.039 191.033 131.664 189.225 130.968C188.923 130.861 188.602 130.819 188.282 130.844C187.962 130.869 187.652 130.961 187.37 131.115C187.089 131.268 186.843 131.479 186.648 131.734C186.454 131.988 186.315 132.281 186.241 132.593C185.887 133.902 186.639 135.419 187.392 136.436Z" fill="white"/>
</g>
<path d="M64.0001 104.475C64.0381 104.475 63.507 101.826 63.4501 101.668C62.818 99.7716 60.5422 96.4781 58.317 96.4844C57.9474 96.496 57.5844 96.5852 57.2515 96.7462C56.9187 96.9072 56.6234 97.1365 56.3849 97.4191C56.1464 97.7017 55.9701 98.0313 55.8673 98.3865C55.7645 98.7417 55.7376 99.1145 55.7883 99.4808C55.9527 101.042 57.3561 102.376 58.6268 103.141C60.106 104.045 64.0001 104.475 64.0001 104.475Z" fill="#9468B4"/>
<path d="M68.3052 86.6415C66.2064 87.3938 65.1444 91.2752 65.2329 93.2602C65.2329 93.4309 65.6312 96.105 65.6691 96.086H65.7134C65.5427 96.7182 65.372 97.3503 65.195 98.0773C64.8789 99.4112 64.5628 100.922 64.272 102.591C63.9718 104.388 63.7734 106.201 63.6778 108.021C63.5668 110.057 63.6366 112.098 63.8864 114.122C63.8895 114.147 63.8895 114.172 63.8864 114.197C63.6146 113.603 62.7928 111.979 62.7106 111.858C61.6233 110.196 58.5383 107.623 56.389 108.217C56.0358 108.327 55.7095 108.509 55.4311 108.752C55.1528 108.996 54.9286 109.295 54.7731 109.63C54.6176 109.965 54.5342 110.33 54.5283 110.7C54.5225 111.069 54.5942 111.436 54.739 111.776C55.308 113.237 57.0148 114.153 58.4435 114.558C60.0555 115.019 63.6462 114.476 63.9307 114.431C64.2343 116.486 64.6757 118.517 65.2519 120.513C65.5806 121.676 65.9473 122.839 66.3329 124.002C66.08 123.497 65.8461 123.048 65.8082 122.991C64.7145 121.328 61.6359 118.755 59.4866 119.35C59.133 119.457 58.8061 119.638 58.5273 119.881C58.2484 120.124 58.0238 120.422 57.8681 120.757C57.7124 121.093 57.6292 121.457 57.6237 121.826C57.6183 122.196 57.6909 122.563 57.8366 122.902C58.4056 124.369 60.1124 125.286 61.5411 125.69C62.9698 126.095 66.0547 125.69 66.8702 125.583C67.0219 126.025 67.1673 126.474 67.319 126.916C68.0524 129.041 68.7983 131.165 69.4621 133.238C69.696 133.978 69.8983 134.717 70.0942 135.451C69.8667 135.002 69.677 134.629 69.6391 134.578C68.5518 132.916 65.4668 130.343 63.3175 130.937C62.9639 131.045 62.637 131.226 62.3582 131.468C62.0793 131.711 61.8547 132.01 61.699 132.345C61.5433 132.68 61.4601 133.044 61.4546 133.414C61.4492 133.784 61.5217 134.15 61.6675 134.49C62.2365 135.956 63.9433 136.873 65.372 137.278C66.8007 137.682 69.5885 137.328 70.5557 137.189C70.7454 137.954 70.935 138.713 71.0804 139.459C71.1752 139.971 71.2953 140.457 71.3586 140.982C71.4218 141.507 71.4976 142 71.5735 142.499C71.6746 143.473 71.7821 144.478 71.858 145.433C71.9149 146.065 71.9528 146.697 71.997 147.329C71.7758 146.589 71.3017 145.148 71.2511 145.034C70.4639 143.472 69.2912 142.136 67.8437 141.153C67.763 140.975 67.6656 140.806 67.5529 140.647C67.3527 140.336 67.0892 140.07 66.7797 139.867C66.4701 139.664 66.1214 139.528 65.756 139.469C65.3907 139.409 65.0169 139.427 64.6589 139.521C64.3009 139.615 63.9666 139.783 63.6778 140.015C61.9963 141.475 62.4135 145.464 63.191 147.297C63.2353 147.405 63.8674 148.517 64.272 149.194C63.9686 148.821 63.6841 148.454 63.368 148.069C62.7359 147.316 62.1037 146.577 61.421 145.78L60.3779 144.649C60.0366 144.263 59.632 143.903 59.2527 143.523C58.3676 142.664 57.4194 141.836 56.4522 140.995C57.0844 140.451 59.436 138.466 60.1061 137.158C60.7762 135.849 61.244 133.952 60.5486 132.543C60.3965 132.206 60.1751 131.904 59.8987 131.659C59.6224 131.413 59.2973 131.228 58.9447 131.117C58.5922 131.005 58.22 130.969 57.8526 131.011C57.4852 131.053 57.1308 131.172 56.8125 131.361C54.916 132.543 54.739 136.551 55.2258 138.479C55.2574 138.599 55.7631 139.939 56.0539 140.672C55.466 140.192 54.8844 139.705 54.2776 139.231C52.5138 137.872 50.6932 136.551 48.8789 135.223C48.3226 134.819 47.7726 134.401 47.2226 133.997C47.4629 133.801 50.276 131.531 51.0156 130.039C51.6794 128.712 52.1598 126.834 51.4644 125.425C51.3124 125.088 51.091 124.786 50.8146 124.541C50.5382 124.295 50.2132 124.11 49.8606 123.999C49.508 123.887 49.1359 123.851 48.7685 123.893C48.4011 123.935 48.0467 124.054 47.7284 124.242C45.8319 125.425 45.6486 129.432 46.1416 131.361C46.1416 131.506 46.9066 133.44 47.1152 133.921C45.9014 133.017 44.7066 132.107 43.5561 131.158C41.9952 129.889 40.5171 128.52 39.131 127.062C39.2448 126.973 42.1906 124.615 42.924 123.086C43.5877 121.758 44.0682 119.881 43.3728 118.471C43.2207 118.134 42.9993 117.833 42.7229 117.587C42.4466 117.341 42.1215 117.156 41.7689 117.045C41.4163 116.933 41.0442 116.897 40.6768 116.939C40.3094 116.981 39.955 117.1 39.6367 117.289C37.7402 118.471 37.5569 122.479 38.05 124.407C38.05 124.533 38.6379 126.006 38.916 126.702L38.8086 126.765C37.4599 125.258 36.2497 123.633 35.1926 121.91C34.5984 120.974 34.0863 120.013 33.6059 119.122C34.1938 118.736 36.8931 116.96 37.7339 115.658C38.5747 114.355 39.2195 112.598 38.6821 111.125C38.568 110.773 38.3811 110.449 38.1335 110.174C37.886 109.899 37.5833 109.68 37.2452 109.529C36.9071 109.379 36.5412 109.302 36.1712 109.302C35.8012 109.303 35.4355 109.381 35.0978 109.532C33.0938 110.506 32.468 114.469 32.7398 116.435C32.7398 116.543 33.0243 117.617 33.2329 118.395C33.0243 117.978 32.803 117.548 32.6008 117.131C31.8674 115.613 31.2922 114.185 30.7865 112.908C30.5083 112.181 30.2744 111.523 30.0595 110.898C30.4451 110.221 31.956 107.459 32.1077 105.948C32.2594 104.437 32.0255 102.547 30.8433 101.485C30.5798 101.225 30.2646 101.024 29.9183 100.895C29.572 100.765 29.2023 100.71 28.8333 100.733C28.4643 100.756 28.1041 100.856 27.7763 101.026C27.4484 101.197 27.1602 101.435 26.9303 101.725C25.6027 103.508 26.8734 107.32 28.0239 108.938C28.1187 109.077 29.9204 111.094 29.9204 111.056V111.011C30.1164 111.643 30.3313 112.276 30.5526 112.958C31.0267 114.223 31.5767 115.696 32.2784 117.232C33.0143 118.898 33.8481 120.519 34.7754 122.087C35.808 123.847 36.9925 125.514 38.3155 127.068L38.3661 127.119C37.8098 126.777 36.2294 125.854 36.0966 125.817C34.2697 125.033 30.2807 124.59 28.8141 126.265C28.5794 126.552 28.4074 126.884 28.3093 127.241C28.2112 127.597 28.1891 127.971 28.2445 128.337C28.3 128.703 28.4316 129.053 28.631 129.365C28.8304 129.677 29.0931 129.943 29.402 130.147C30.6663 131.051 32.6134 130.874 34.0231 130.425C35.6225 129.919 38.3155 127.485 38.5304 127.264C39.9078 128.808 41.3861 130.259 42.9556 131.607C43.8722 132.397 44.8204 133.169 45.7813 133.921L44.7888 133.365C42.9619 132.581 38.9729 132.138 37.5063 133.82C37.2714 134.105 37.0991 134.436 37.0006 134.792C36.902 135.149 36.8794 135.521 36.9343 135.887C36.9891 136.252 37.1202 136.602 37.3189 136.913C37.5176 137.225 37.7796 137.491 38.0879 137.695C39.3522 138.605 41.2993 138.422 42.7153 137.973C44.1314 137.524 46.5083 135.495 47.1025 134.945L48.2151 135.811C50.0042 137.176 51.7932 138.536 53.5063 139.92C54.1069 140.407 54.6821 140.913 55.2637 141.412C54.8275 141.165 54.4609 140.957 54.3977 140.932C52.577 140.148 48.5818 139.705 47.1215 141.38C46.8865 141.666 46.7141 141.998 46.6155 142.355C46.5169 142.711 46.4943 143.085 46.5491 143.45C46.6039 143.816 46.735 144.167 46.9338 144.479C47.1325 144.791 47.3946 145.058 47.7031 145.262C48.9674 146.166 50.9145 145.989 52.3305 145.54C53.7465 145.091 55.8769 143.252 56.6039 142.607C57.1855 143.138 57.7608 143.669 58.2981 144.212C58.6584 144.585 59.0251 144.927 59.3665 145.325L60.3842 146.476C61.0164 147.234 61.6486 148.012 62.2365 148.764C62.6474 149.282 63.033 149.788 63.4186 150.294C62.8244 149.801 61.6359 148.859 61.5221 148.796C59.8343 147.74 55.9591 146.697 54.2586 148.163C53.983 148.41 53.7625 148.712 53.6115 149.05C53.4605 149.388 53.3825 149.753 53.3825 150.123C53.3825 150.493 53.4605 150.859 53.6115 151.196C53.7625 151.534 53.983 151.836 54.2586 152.083C55.3902 153.176 57.3246 153.29 58.7912 153.063C60.4032 152.81 63.3301 150.901 63.6904 150.66C64.3226 151.501 64.9548 152.323 65.5047 153.113C67.4771 155.832 69.0132 158.171 70.0626 159.82L70.1701 159.991L71.5292 159.327L71.3143 159.005C70.2143 157.361 68.615 155.029 66.5668 152.329C65.9346 151.47 65.2203 150.572 64.487 149.655C65.2396 148.823 65.9445 147.95 66.5984 147.038C68.1598 147.67 71.4218 147.67 71.839 147.67C71.9085 148.726 71.9654 149.75 72.0034 150.717C72.1424 154.068 72.1361 156.868 72.0982 158.828V159.056L73.5901 158.329C73.5901 156.382 73.5205 153.758 73.3183 150.648C73.255 149.579 73.1665 148.435 73.0591 147.266C73.4763 147.165 76.852 146.292 78.1164 145.274C79.2732 144.345 80.4933 142.841 80.4554 141.273C80.4581 140.903 80.3829 140.536 80.2345 140.197C80.0861 139.858 79.868 139.553 79.5942 139.304C79.3205 139.055 78.9973 138.866 78.6458 138.75C78.2942 138.634 77.9221 138.593 77.5537 138.63C75.3475 138.915 73.4953 142.474 73.1286 144.434C73.1286 144.547 73.0148 145.824 72.9642 146.627C72.92 146.153 72.8821 145.685 72.8315 145.192C72.7303 144.225 72.6039 143.252 72.4712 142.215L72.2246 140.691C72.1551 140.186 72.016 139.661 71.9085 139.136C71.643 137.922 71.3143 136.715 70.954 135.495C71.8011 135.413 74.8228 135.052 76.1187 134.313C77.4147 133.573 78.837 132.271 79.033 130.709C79.0921 130.344 79.0736 129.971 78.9785 129.613C78.8835 129.256 78.7141 128.922 78.4814 128.635C78.2487 128.347 77.958 128.112 77.6282 127.944C77.2984 127.777 76.937 127.681 76.5676 127.662C74.3424 127.606 71.9718 130.823 71.3206 132.72C71.2764 132.834 70.9603 134.237 70.7959 135.008C70.5747 134.281 70.3597 133.554 70.1132 132.821C69.3925 130.716 68.6023 128.611 67.8185 126.499L67.1167 124.565C67.4202 124.533 71.0235 124.192 72.4712 123.357C73.7355 122.618 75.1894 121.316 75.3854 119.76C75.4445 119.395 75.426 119.021 75.331 118.663C75.236 118.305 75.0667 117.972 74.8341 117.684C74.6015 117.396 74.3108 117.16 73.9811 116.991C73.6513 116.823 73.2897 116.726 72.92 116.707C70.6948 116.657 68.3242 119.868 67.6731 121.764C67.6225 121.91 67.1673 123.92 67.0725 124.438C66.5605 123.016 66.0611 121.594 65.6312 120.171C65.0312 118.255 64.5581 116.302 64.2151 114.324C64.3542 114.324 68.1156 113.97 69.6011 113.116C70.8655 112.377 72.3194 111.075 72.5154 109.513C72.5735 109.148 72.5542 108.775 72.4588 108.418C72.3634 108.061 72.1939 107.728 71.9614 107.44C71.7289 107.153 71.4386 106.918 71.1093 106.75C70.78 106.582 70.4191 106.485 70.05 106.466C67.8248 106.409 65.4542 109.627 64.8031 111.523C64.7588 111.65 64.4111 113.18 64.2594 113.913H64.133C63.8428 111.912 63.7307 109.89 63.7979 107.869C63.7979 106.757 63.9054 105.695 64.0065 104.664C64.7145 104.664 67.9449 104.664 69.3609 104.032C70.777 103.4 72.2942 102.306 72.6608 100.777C72.7598 100.42 72.7824 100.047 72.7271 99.6806C72.6718 99.3146 72.5399 98.9645 72.34 98.653C72.1401 98.3416 71.8767 98.0758 71.5671 97.8731C71.2574 97.6704 70.9085 97.5353 70.5431 97.4767C68.3368 97.1733 65.6249 100.138 64.7714 101.902C64.7209 102.003 64.3605 103.046 64.1013 103.798C64.1582 103.331 64.2088 102.85 64.2657 102.408C64.4933 100.739 64.803 99.2468 65.0875 97.8877C65.2582 97.1291 65.4226 96.4463 65.5869 95.8078C66.2823 95.4538 69.0765 93.9935 70.0121 92.8051C70.9476 91.6166 71.8137 89.9224 71.4344 88.3799C71.2274 87.7495 70.7902 87.2204 70.2101 86.8981C69.6301 86.5759 68.9499 86.4843 68.3052 86.6415Z" fill="#9468B4"/>
<path d="M28.0617 120.955C29.8002 120.886 33.2771 119.103 33.2834 119.103C33.2897 119.103 31.3869 117.169 31.2731 117.061C29.718 115.797 25.9882 114.343 24.136 115.569C23.8329 115.782 23.5781 116.056 23.3882 116.373C23.1984 116.691 23.0777 117.045 23.0341 117.413C22.9906 117.781 23.0251 118.153 23.1355 118.507C23.2458 118.86 23.4295 119.186 23.6745 119.463C24.6733 120.683 26.5761 121.037 28.0617 120.955Z" fill="#9468B4"/>
<g opacity="0.5">
<path opacity="0.5" d="M64.0001 104.475C64.0381 104.475 63.507 101.826 63.4501 101.668C62.818 99.7716 60.5422 96.4781 58.317 96.4844C57.9474 96.496 57.5844 96.5852 57.2515 96.7462C56.9187 96.9072 56.6234 97.1365 56.3849 97.4191C56.1464 97.7017 55.9701 98.0313 55.8673 98.3865C55.7645 98.7417 55.7376 99.1145 55.7883 99.4808C55.9527 101.042 57.3561 102.376 58.6268 103.141C60.106 104.045 64.0001 104.475 64.0001 104.475Z" fill="white"/>
<path opacity="0.5" d="M68.3052 86.6415C66.2064 87.3938 65.1444 91.2752 65.2329 93.2602C65.2329 93.4309 65.6312 96.105 65.6691 96.086H65.7134C65.5427 96.7182 65.372 97.3503 65.195 98.0773C64.8789 99.4112 64.5628 100.922 64.272 102.591C63.9718 104.388 63.7734 106.201 63.6778 108.021C63.5668 110.057 63.6366 112.098 63.8864 114.122C63.8895 114.147 63.8895 114.172 63.8864 114.197C63.6146 113.603 62.7928 111.979 62.7106 111.858C61.6233 110.196 58.5383 107.623 56.389 108.217C56.0358 108.327 55.7095 108.509 55.4311 108.752C55.1528 108.996 54.9286 109.295 54.7731 109.63C54.6176 109.965 54.5342 110.33 54.5283 110.7C54.5225 111.069 54.5942 111.436 54.739 111.776C55.308 113.237 57.0148 114.153 58.4435 114.558C60.0555 115.019 63.6462 114.476 63.9307 114.431C64.2343 116.486 64.6757 118.517 65.2519 120.513C65.5806 121.676 65.9473 122.839 66.3329 124.002C66.08 123.497 65.8461 123.048 65.8082 122.991C64.7145 121.328 61.6359 118.755 59.4866 119.35C59.133 119.457 58.8061 119.638 58.5273 119.881C58.2484 120.124 58.0238 120.422 57.8681 120.757C57.7124 121.093 57.6292 121.457 57.6237 121.826C57.6183 122.196 57.6909 122.563 57.8366 122.902C58.4056 124.369 60.1124 125.286 61.5411 125.69C62.9698 126.095 66.0547 125.69 66.8702 125.583C67.0219 126.025 67.1673 126.474 67.319 126.916C68.0524 129.041 68.7983 131.165 69.4621 133.238C69.696 133.978 69.8983 134.717 70.0942 135.451C69.8667 135.002 69.677 134.629 69.6391 134.578C68.5518 132.916 65.4668 130.343 63.3175 130.937C62.9639 131.045 62.637 131.226 62.3582 131.468C62.0793 131.711 61.8547 132.01 61.699 132.345C61.5433 132.68 61.4601 133.044 61.4546 133.414C61.4492 133.784 61.5217 134.15 61.6675 134.49C62.2365 135.956 63.9433 136.873 65.372 137.278C66.8007 137.682 69.5885 137.328 70.5557 137.189C70.7454 137.954 70.935 138.713 71.0804 139.459C71.1752 139.971 71.2953 140.457 71.3586 140.982C71.4218 141.507 71.4976 142 71.5735 142.499C71.6746 143.473 71.7821 144.478 71.858 145.433C71.9149 146.065 71.9528 146.697 71.997 147.329C71.7758 146.589 71.3017 145.148 71.2511 145.034C70.4639 143.472 69.2912 142.136 67.8437 141.153C67.763 140.975 67.6656 140.806 67.5529 140.647C67.3527 140.336 67.0892 140.07 66.7797 139.867C66.4701 139.664 66.1214 139.528 65.756 139.469C65.3907 139.409 65.0169 139.427 64.6589 139.521C64.3009 139.615 63.9666 139.783 63.6778 140.015C61.9963 141.475 62.4135 145.464 63.191 147.297C63.2353 147.405 63.8674 148.517 64.272 149.194C63.9686 148.821 63.6841 148.454 63.368 148.069C62.7359 147.316 62.1037 146.577 61.421 145.78L60.3779 144.649C60.0366 144.263 59.632 143.903 59.2527 143.523C58.3676 142.664 57.4194 141.836 56.4522 140.995C57.0844 140.451 59.436 138.466 60.1061 137.158C60.7762 135.849 61.244 133.952 60.5486 132.543C60.3965 132.206 60.1751 131.904 59.8987 131.659C59.6224 131.413 59.2973 131.228 58.9447 131.117C58.5922 131.005 58.22 130.969 57.8526 131.011C57.4852 131.053 57.1308 131.172 56.8125 131.361C54.916 132.543 54.739 136.551 55.2258 138.479C55.2574 138.599 55.7631 139.939 56.0539 140.672C55.466 140.192 54.8844 139.705 54.2776 139.231C52.5138 137.872 50.6932 136.551 48.8789 135.223C48.3226 134.819 47.7726 134.401 47.2226 133.997C47.4629 133.801 50.276 131.531 51.0156 130.039C51.6794 128.712 52.1598 126.834 51.4644 125.425C51.3124 125.088 51.091 124.786 50.8146 124.541C50.5382 124.295 50.2132 124.11 49.8606 123.999C49.508 123.887 49.1359 123.851 48.7685 123.893C48.4011 123.935 48.0467 124.054 47.7284 124.242C45.8319 125.425 45.6486 129.432 46.1416 131.361C46.1416 131.506 46.9066 133.44 47.1152 133.921C45.9014 133.017 44.7066 132.107 43.5561 131.158C41.9952 129.889 40.5171 128.52 39.131 127.062C39.2448 126.973 42.1906 124.615 42.924 123.086C43.5877 121.758 44.0682 119.881 43.3728 118.471C43.2207 118.134 42.9993 117.833 42.7229 117.587C42.4466 117.341 42.1215 117.156 41.7689 117.045C41.4163 116.933 41.0442 116.897 40.6768 116.939C40.3094 116.981 39.955 117.1 39.6367 117.289C37.7402 118.471 37.5569 122.479 38.05 124.407C38.05 124.533 38.6379 126.006 38.916 126.702L38.8086 126.765C37.4599 125.258 36.2497 123.633 35.1926 121.91C34.5984 120.974 34.0863 120.013 33.6059 119.122C34.1938 118.736 36.8931 116.96 37.7339 115.658C38.5747 114.355 39.2195 112.598 38.6821 111.125C38.568 110.773 38.3811 110.449 38.1335 110.174C37.886 109.899 37.5833 109.68 37.2452 109.529C36.9071 109.379 36.5412 109.302 36.1712 109.302C35.8012 109.303 35.4355 109.381 35.0978 109.532C33.0938 110.506 32.468 114.469 32.7398 116.435C32.7398 116.543 33.0243 117.617 33.2329 118.395C33.0243 117.978 32.803 117.548 32.6008 117.131C31.8674 115.613 31.2922 114.185 30.7865 112.908C30.5083 112.181 30.2744 111.523 30.0595 110.898C30.4451 110.221 31.956 107.459 32.1077 105.948C32.2594 104.437 32.0255 102.547 30.8433 101.485C30.5798 101.225 30.2646 101.024 29.9183 100.895C29.572 100.765 29.2023 100.71 28.8333 100.733C28.4643 100.756 28.1041 100.856 27.7763 101.026C27.4484 101.197 27.1602 101.435 26.9303 101.725C25.6027 103.508 26.8734 107.32 28.0239 108.938C28.1187 109.077 29.9204 111.094 29.9204 111.056V111.011C30.1164 111.643 30.3313 112.276 30.5526 112.958C31.0267 114.223 31.5767 115.696 32.2784 117.232C33.0143 118.898 33.8481 120.519 34.7754 122.087C35.808 123.847 36.9925 125.514 38.3155 127.068L38.3661 127.119C37.8098 126.777 36.2294 125.854 36.0966 125.817C34.2697 125.033 30.2807 124.59 28.8141 126.265C28.5794 126.552 28.4074 126.884 28.3093 127.241C28.2112 127.597 28.1891 127.971 28.2445 128.337C28.3 128.703 28.4316 129.053 28.631 129.365C28.8304 129.677 29.0931 129.943 29.402 130.147C30.6663 131.051 32.6134 130.874 34.0231 130.425C35.6225 129.919 38.3155 127.485 38.5304 127.264C39.9078 128.808 41.3861 130.259 42.9556 131.607C43.8722 132.397 44.8204 133.169 45.7813 133.921L44.7888 133.365C42.9619 132.581 38.9729 132.138 37.5063 133.82C37.2714 134.105 37.0991 134.436 37.0006 134.792C36.902 135.149 36.8794 135.521 36.9343 135.887C36.9891 136.252 37.1202 136.602 37.3189 136.913C37.5176 137.225 37.7796 137.491 38.0879 137.695C39.3522 138.605 41.2993 138.422 42.7153 137.973C44.1314 137.524 46.5083 135.495 47.1025 134.945L48.2151 135.811C50.0042 137.176 51.7932 138.536 53.5063 139.92C54.1069 140.407 54.6821 140.913 55.2637 141.412C54.8275 141.165 54.4609 140.957 54.3977 140.932C52.577 140.148 48.5818 139.705 47.1215 141.38C46.8865 141.666 46.7141 141.998 46.6155 142.355C46.5169 142.711 46.4943 143.085 46.5491 143.45C46.6039 143.816 46.735 144.167 46.9338 144.479C47.1325 144.791 47.3946 145.058 47.7031 145.262C48.9674 146.166 50.9145 145.989 52.3305 145.54C53.7465 145.091 55.8769 143.252 56.6039 142.607C57.1855 143.138 57.7608 143.669 58.2981 144.212C58.6584 144.585 59.0251 144.927 59.3665 145.325L60.3842 146.476C61.0164 147.234 61.6486 148.012 62.2365 148.764C62.6474 149.282 63.033 149.788 63.4186 150.294C62.8244 149.801 61.6359 148.859 61.5221 148.796C59.8343 147.74 55.9591 146.697 54.2586 148.163C53.983 148.41 53.7625 148.712 53.6115 149.05C53.4605 149.388 53.3825 149.753 53.3825 150.123C53.3825 150.493 53.4605 150.859 53.6115 151.196C53.7625 151.534 53.983 151.836 54.2586 152.083C55.3902 153.176 57.3246 153.29 58.7912 153.063C60.4032 152.81 63.3301 150.901 63.6904 150.66C64.3226 151.501 64.9548 152.323 65.5047 153.113C67.4771 155.832 69.0132 158.171 70.0626 159.82L70.1701 159.991L71.5292 159.327L71.3143 159.005C70.2143 157.361 68.615 155.029 66.5668 152.329C65.9346 151.47 65.2203 150.572 64.487 149.655C65.2396 148.823 65.9445 147.95 66.5984 147.038C68.1598 147.67 71.4218 147.67 71.839 147.67C71.9085 148.726 71.9654 149.75 72.0034 150.717C72.1424 154.068 72.1361 156.868 72.0982 158.828V159.056L73.5901 158.329C73.5901 156.382 73.5205 153.758 73.3183 150.648C73.255 149.579 73.1665 148.435 73.0591 147.266C73.4763 147.165 76.852 146.292 78.1164 145.274C79.2732 144.345 80.4933 142.841 80.4554 141.273C80.4581 140.903 80.3829 140.536 80.2345 140.197C80.0861 139.858 79.868 139.553 79.5942 139.304C79.3205 139.055 78.9973 138.866 78.6458 138.75C78.2942 138.634 77.9221 138.593 77.5537 138.63C75.3475 138.915 73.4953 142.474 73.1286 144.434C73.1286 144.547 73.0148 145.824 72.9642 146.627C72.92 146.153 72.8821 145.685 72.8315 145.192C72.7303 144.225 72.6039 143.252 72.4712 142.215L72.2246 140.691C72.1551 140.186 72.016 139.661 71.9085 139.136C71.643 137.922 71.3143 136.715 70.954 135.495C71.8011 135.413 74.8228 135.052 76.1187 134.313C77.4147 133.573 78.837 132.271 79.033 130.709C79.0921 130.344 79.0736 129.971 78.9785 129.613C78.8835 129.256 78.7141 128.922 78.4814 128.635C78.2487 128.347 77.958 128.112 77.6282 127.944C77.2984 127.777 76.937 127.681 76.5676 127.662C74.3424 127.606 71.9718 130.823 71.3206 132.72C71.2764 132.834 70.9603 134.237 70.7959 135.008C70.5747 134.281 70.3597 133.554 70.1132 132.821C69.3925 130.716 68.6023 128.611 67.8185 126.499L67.1167 124.565C67.4202 124.533 71.0235 124.192 72.4712 123.357C73.7355 122.618 75.1894 121.316 75.3854 119.76C75.4445 119.395 75.426 119.021 75.331 118.663C75.236 118.305 75.0667 117.972 74.8341 117.684C74.6015 117.396 74.3108 117.16 73.9811 116.991C73.6513 116.823 73.2897 116.726 72.92 116.707C70.6948 116.657 68.3242 119.868 67.6731 121.764C67.6225 121.91 67.1673 123.92 67.0725 124.438C66.5605 123.016 66.0611 121.594 65.6312 120.171C65.0312 118.255 64.5581 116.302 64.2151 114.324C64.3542 114.324 68.1156 113.97 69.6011 113.116C70.8655 112.377 72.3194 111.075 72.5154 109.513C72.5735 109.148 72.5542 108.775 72.4588 108.418C72.3634 108.061 72.1939 107.728 71.9614 107.44C71.7289 107.153 71.4386 106.918 71.1093 106.75C70.78 106.582 70.4191 106.485 70.05 106.466C67.8248 106.409 65.4542 109.627 64.8031 111.523C64.7588 111.65 64.4111 113.18 64.2594 113.913H64.133C63.8428 111.912 63.7307 109.89 63.7979 107.869C63.7979 106.757 63.9054 105.695 64.0065 104.664C64.7145 104.664 67.9449 104.664 69.3609 104.032C70.777 103.4 72.2942 102.306 72.6608 100.777C72.7598 100.42 72.7824 100.047 72.7271 99.6806C72.6718 99.3146 72.5399 98.9645 72.34 98.653C72.1401 98.3416 71.8767 98.0758 71.5671 97.8731C71.2574 97.6704 70.9085 97.5353 70.5431 97.4767C68.3368 97.1733 65.6249 100.138 64.7714 101.902C64.7209 102.003 64.3605 103.046 64.1013 103.798C64.1582 103.331 64.2088 102.85 64.2657 102.408C64.4933 100.739 64.803 99.2468 65.0875 97.8877C65.2582 97.1291 65.4226 96.4463 65.5869 95.8078C66.2823 95.4538 69.0765 93.9935 70.0121 92.8051C70.9476 91.6166 71.8137 89.9224 71.4344 88.3799C71.2274 87.7495 70.7902 87.2204 70.2101 86.8981C69.6301 86.5759 68.9499 86.4843 68.3052 86.6415Z" fill="white"/>
<path opacity="0.5" d="M28.0617 120.955C29.8002 120.886 33.2771 119.103 33.2834 119.103C33.2897 119.103 31.3869 117.169 31.2731 117.061C29.718 115.797 25.9882 114.343 24.136 115.569C23.8329 115.782 23.5781 116.056 23.3882 116.373C23.1984 116.691 23.0777 117.045 23.0341 117.413C22.9906 117.781 23.0251 118.153 23.1355 118.507C23.2458 118.86 23.4295 119.186 23.6745 119.463C24.6733 120.683 26.5761 121.037 28.0617 120.955Z" fill="white"/>
</g>
<path d="M49.3087 168.696C49.3087 168.696 59.8658 143.251 65.7765 144.357C71.6872 145.464 55.6619 184.923 55.6619 184.923C55.6619 184.923 74.2348 149.889 86.9033 149.889C99.5718 149.889 82.2569 188.609 66.219 201.517C66.219 201.517 91.5434 174.227 106.317 180.131C121.091 186.036 76.7698 213.686 76.7698 213.686C76.7698 213.686 102.518 205.576 99.5655 211.847C96.6133 218.118 88.5912 219.218 88.5912 219.218L117.715 220.697H16.3857L39.1815 218.485C39.1815 218.485 15.5386 206.682 21.8729 201.89C28.2072 197.099 42.1337 207.422 42.1337 207.422C42.1337 207.422 18.0736 180.871 22.7137 170.908C27.3537 160.945 48.0444 188.982 48.0444 188.982C48.0444 188.982 31.1593 153.208 34.5351 146.955C37.9108 140.703 49.3087 168.696 49.3087 168.696Z" fill="#9468B4"/>
<path opacity="0.5" d="M49.3087 168.696C49.3087 168.696 59.8658 143.251 65.7765 144.357C71.6872 145.464 55.6619 184.923 55.6619 184.923C55.6619 184.923 74.2348 149.889 86.9033 149.889C99.5718 149.889 82.2569 188.609 66.219 201.517C66.219 201.517 91.5434 174.227 106.317 180.131C121.091 186.036 76.7698 213.686 76.7698 213.686C76.7698 213.686 102.518 205.576 99.5655 211.847C96.6133 218.118 88.5912 219.218 88.5912 219.218L117.715 220.697H16.3857L39.1815 218.485C39.1815 218.485 15.5386 206.682 21.8729 201.89C28.2072 197.099 42.1337 207.422 42.1337 207.422C42.1337 207.422 18.0736 180.871 22.7137 170.908C27.3537 160.945 48.0444 188.982 48.0444 188.982C48.0444 188.982 31.1593 153.208 34.5351 146.955C37.9108 140.703 49.3087 168.696 49.3087 168.696Z" fill="white"/>
<path d="M45.9329 170.036C55.2194 197.478 55.2194 216.898 55.2194 216.898C55.2194 216.898 44.245 217.315 32.8472 208.876" stroke="#263238" stroke-linecap="round" stroke-linejoin="round"/>
<path d="M50.5793 184.816C52.4884 176.612 55.0245 168.566 58.1653 160.75" stroke="#263238" stroke-linecap="round" stroke-linejoin="round"/>
<path d="M78.0151 168.771L54.3786 203.812C54.3786 203.812 38.3343 190.303 32.8472 182.704" stroke="#263238" stroke-linecap="round" stroke-linejoin="round"/>
<path d="M54.8022 212.252C54.8022 212.252 79.7031 200.43 89.8366 193.679" stroke="#263238" stroke-linecap="round" stroke-linejoin="round"/>
<path d="M185.495 168.696C185.495 168.696 174.945 143.251 169.059 144.357C163.174 145.464 179.174 184.923 179.174 184.923C179.174 184.923 160.601 149.889 147.939 149.889C135.276 149.889 152.579 188.609 168.623 201.517C168.623 201.517 143.292 174.227 128.519 180.131C113.745 186.036 158.072 213.686 158.072 213.686C158.072 213.686 132.318 205.576 135.276 211.847C138.235 218.118 146.251 219.218 146.251 219.218L117.102 220.697H218.425L195.629 218.485C195.629 218.485 219.265 206.682 212.937 201.89C206.61 197.099 192.67 207.422 192.67 207.422C192.67 207.422 216.737 180.871 212.09 170.908C207.444 160.945 186.76 188.982 186.76 188.982C186.76 188.982 203.651 153.208 200.269 146.937C196.887 140.665 185.495 168.696 185.495 168.696Z" fill="#9468B4"/>
<path opacity="0.5" d="M185.495 168.696C185.495 168.696 174.945 143.251 169.059 144.357C163.174 145.464 179.174 184.923 179.174 184.923C179.174 184.923 160.601 149.889 147.939 149.889C135.276 149.889 152.579 188.609 168.623 201.517C168.623 201.517 143.292 174.227 128.519 180.131C113.745 186.036 158.072 213.686 158.072 213.686C158.072 213.686 132.318 205.576 135.276 211.847C138.235 218.118 146.251 219.218 146.251 219.218L117.102 220.697H218.425L195.629 218.485C195.629 218.485 219.265 206.682 212.937 201.89C206.61 197.099 192.67 207.422 192.67 207.422C192.67 207.422 216.737 180.871 212.09 170.908C207.444 160.945 186.76 188.982 186.76 188.982C186.76 188.982 203.651 153.208 200.269 146.937C196.887 140.665 185.495 168.696 185.495 168.696Z" fill="white"/>
<path d="M188.871 170.036C179.584 197.478 179.584 216.898 179.584 216.898C179.584 216.898 190.559 217.315 201.957 208.876" stroke="#263238" stroke-linecap="round" stroke-linejoin="round"/>
<path d="M184.231 184.816C182.322 176.612 179.786 168.566 176.645 160.75" stroke="#263238" stroke-linecap="round" stroke-linejoin="round"/>
<path d="M156.789 168.771L180.432 203.812C180.432 203.812 196.47 190.303 201.957 182.704" stroke="#263238" stroke-linecap="round" stroke-linejoin="round"/>
<path d="M180.008 212.252C180.008 212.252 155.101 200.43 144.967 193.679" stroke="#263238" stroke-linecap="round" stroke-linejoin="round"/>
<path d="M168.452 31.5869H70.8464C68.4898 31.5869 66.5793 33.4974 66.5793 35.854V218.605C66.5793 220.962 68.4898 222.873 70.8464 222.873H168.452C170.809 222.873 172.719 220.962 172.719 218.605V35.854C172.719 33.4974 170.809 31.5869 168.452 31.5869Z" fill="#263238" stroke="#263238" stroke-miterlimit="10"/>
<path d="M126.989 43.0167H113.776C113.598 43.0167 113.421 42.9815 113.256 42.9132C113.091 42.8449 112.942 42.7448 112.815 42.6186C112.689 42.4924 112.589 42.3425 112.521 42.1776C112.452 42.0128 112.417 41.836 112.417 41.6575C112.417 41.4793 112.452 41.3029 112.521 41.1384C112.589 40.9738 112.689 40.8244 112.816 40.6987C112.942 40.573 113.092 40.4735 113.257 40.4059C113.422 40.3382 113.598 40.3039 113.776 40.3047H126.989C127.347 40.3047 127.691 40.4472 127.945 40.7009C128.199 40.9546 128.341 41.2987 128.341 41.6575C128.342 41.8357 128.308 42.0123 128.24 42.1772C128.173 42.342 128.073 42.4919 127.947 42.6182C127.822 42.7445 127.672 42.8447 127.508 42.9131C127.343 42.9815 127.167 43.0167 126.989 43.0167Z" fill="#9468B4"/>
<path d="M166.012 205.779H73.2866V43.1748H95.2669L97.7386 45.223C98.6002 45.9433 99.6879 46.3372 100.811 46.3356H139.588C140.752 46.3292 141.874 45.9027 142.748 45.1345L144.98 43.1748H165.993L166.012 205.779Z" fill="white" stroke="#263238" stroke-width="0.938618" stroke-linecap="round" stroke-linejoin="round"/>
<path d="M110.318 55.1602L109.054 50.9121H77.4966V55.1602V197.144V201.398H162.086V55.1602H110.318Z" fill="#9468B4"/>
<path d="M159.109 62.8154H80.4678V196.72H159.109V62.8154Z" fill="white"/>
<path d="M122.614 210.804C122.615 210.386 122.492 209.978 122.261 209.63C122.03 209.281 121.701 209.01 121.315 208.849C120.929 208.688 120.504 208.646 120.094 208.726C119.684 208.807 119.308 209.008 119.012 209.303C118.716 209.598 118.514 209.974 118.432 210.384C118.35 210.793 118.392 211.218 118.551 211.604C118.711 211.991 118.981 212.321 119.329 212.553C119.676 212.785 120.085 212.909 120.503 212.909C121.061 212.908 121.596 212.686 121.991 212.291C122.387 211.897 122.611 211.363 122.614 210.804Z" fill="#9468B4"/>
<path d="M113.884 190.872C128.184 190.872 139.777 174.377 139.777 154.03C139.777 133.682 128.184 117.188 113.884 117.188C99.5833 117.188 87.9905 133.682 87.9905 154.03C87.9905 174.377 99.5833 190.872 113.884 190.872Z" fill="#9468B4"/>
<path opacity="0.5" d="M113.884 190.872C128.184 190.872 139.777 174.377 139.777 154.03C139.777 133.682 128.184 117.188 113.884 117.188C99.5833 117.188 87.9905 133.682 87.9905 154.03C87.9905 174.377 99.5833 190.872 113.884 190.872Z" fill="white"/>
<path d="M117.557 112.908C117.557 112.908 115.938 110.202 114.453 110.07C112.967 109.937 95.2792 121.038 92.5736 126.816C89.8679 132.593 87.3076 144.187 94.47 155.345C101.455 166.199 112.404 165.839 118.081 165.295C123.758 164.751 127.564 162.906 133.316 158.291C139.069 153.676 144.348 146.88 145.112 142.266C145.877 137.651 143.064 135.084 141.269 134.446C139.474 133.807 129.087 133.934 121.52 126.228C113.953 118.522 117.557 112.908 117.557 112.908Z" fill="#263238" stroke="#263238" stroke-linecap="round" stroke-linejoin="round"/>
<path d="M119.852 109.394C119.852 109.394 115.262 111.151 112.424 114.255C109.585 117.359 107.834 122.226 107.701 129.382C107.569 136.539 109.863 144.637 118.771 148.151C127.678 151.666 135.649 148.961 138.216 146.527C140.782 144.093 143.905 137.215 143.905 137.215C143.905 137.215 129.732 141.008 122.981 133.024C116.229 125.04 119.852 109.394 119.852 109.394Z" fill="white" stroke="#263238" stroke-linecap="round" stroke-linejoin="round"/>
<path d="M199.175 114.381C195.711 109.185 187.442 107.649 180.906 105.531C174.369 103.413 170.519 99.2093 172.251 88.804C173.983 78.3986 182.998 61.4946 182.827 58.416C182.657 55.3374 151.674 55.5333 148.786 56.5195C145.897 57.5057 145.328 57.2844 142.635 60.7487C141.142 62.6195 139.792 64.5995 138.595 66.672L141.933 59.655H142.179C142.542 58.7328 143.057 57.878 143.703 57.1264C146.64 53.7188 148.305 49.3979 148.413 44.9004C148.539 38.2817 143.829 38.9201 142.938 40.9557C142.047 42.9913 136.831 49.9956 135.302 51.9047C133.772 53.8139 130.592 59.0355 130.592 59.0355L127.058 71.2868C127.058 71.2868 126.287 74.9407 121.862 88.7913C117.437 102.642 119.365 109.027 119.365 109.027C119.365 109.027 118.208 108.452 115.515 116.72C112.822 124.989 113.979 135.565 118.783 140.565C123.588 145.566 129.941 145.376 137.059 142.493C141.438 140.617 145.084 137.363 147.445 133.226C147.445 133.226 154.949 131.329 160.525 127.075C166.1 122.821 170.33 118.421 178.421 118.806C186.513 119.192 195.73 123.807 198.808 123.611C201.887 123.415 202.639 119.571 199.175 114.381Z" fill="white"/>
<path d="M149.569 96.3836C128.171 99.576 121.445 104.684 123.581 111.713C124.025 113.107 124.745 114.398 125.699 115.506C125.699 115.639 125.699 115.785 125.737 115.936C125.737 115.936 126.116 116.164 126.685 116.568C127.434 117.292 128.244 117.95 129.106 118.535C130.51 119.868 131.768 121.537 131.509 123.086C130.959 126.386 123.29 132.151 119.415 132.429C115.54 132.708 114.194 128.858 113.644 132.979C113.094 137.101 121.615 147.266 129.859 146.166C138.102 145.066 144.974 133.523 144.974 133.523C144.974 133.523 143.874 131.627 149.399 125.83C153.027 122.037 158.217 120.361 162.194 118.806C165.948 117.702 169.607 116.299 173.136 114.609C182.916 109.817 194.535 113.016 194.535 113.016C194.535 113.016 170.968 93.1532 149.569 96.3836Z" fill="#9468B4"/>
<path opacity="0.5" d="M149.569 96.3836C128.171 99.576 121.445 104.684 123.581 111.713C124.025 113.107 124.745 114.398 125.699 115.506C125.699 115.639 125.699 115.785 125.737 115.936C125.737 115.936 126.116 116.164 126.685 116.568C127.434 117.292 128.244 117.95 129.106 118.535C130.51 119.868 131.768 121.537 131.509 123.086C130.959 126.386 123.29 132.151 119.415 132.429C115.54 132.708 114.194 128.858 113.644 132.979C113.094 137.101 121.615 147.266 129.859 146.166C138.102 145.066 144.974 133.523 144.974 133.523C144.974 133.523 143.874 131.627 149.399 125.83C153.027 122.037 158.217 120.361 162.194 118.806C165.948 117.702 169.607 116.299 173.136 114.609C182.916 109.817 194.535 113.016 194.535 113.016C194.535 113.016 170.968 93.1532 149.569 96.3836Z" fill="white"/>
<path d="M199.175 114.381C195.711 109.185 187.442 107.649 180.906 105.531C174.369 103.413 170.519 99.2093 172.251 88.804C173.983 78.3986 182.998 61.4946 182.827 58.416C182.657 55.3374 151.674 55.5333 148.786 56.5195C145.897 57.5057 145.328 57.2844 142.635 60.7487C141.142 62.6195 139.792 64.5995 138.595 66.672L141.933 59.655H142.179C142.542 58.7328 143.057 57.878 143.703 57.1264C146.64 53.7188 148.305 49.3979 148.413 44.9004C148.539 38.2817 143.829 38.9201 142.938 40.9557C142.047 42.9913 136.831 49.9956 135.302 51.9047C133.772 53.8139 130.592 59.0355 130.592 59.0355L127.058 71.2868C127.058 71.2868 126.287 74.9407 121.862 88.7913C117.437 102.642 119.365 109.027 119.365 109.027C119.365 109.027 118.208 108.452 115.515 116.72C112.822 124.989 113.979 135.565 118.783 140.565C123.588 145.566 129.941 145.376 137.059 142.493C141.438 140.617 145.084 137.363 147.445 133.226C147.445 133.226 154.949 131.329 160.525 127.075C166.1 122.821 170.33 118.421 178.421 118.806C186.513 119.192 195.73 123.807 198.808 123.611C201.887 123.415 202.639 119.571 199.175 114.381Z" stroke="#263238" stroke-linecap="round" stroke-linejoin="round"/>
<path d="M199.282 123.567C199.282 123.567 199.687 121.948 195.098 119.774C190.508 117.599 188.618 119.097 188.618 120.178C188.618 121.259 198.574 123.567 199.282 123.567Z" fill="white" stroke="#263238" stroke-linecap="round" stroke-linejoin="round"/>
<path d="M155.796 49.4965L144.215 58.4099H159.747C159.747 58.4099 159.747 47.4609 155.796 49.4965Z" fill="white" stroke="#263238" stroke-linecap="round" stroke-linejoin="round"/>
<path d="M141.269 113.787C142.914 111.928 144.964 110.472 147.262 109.532" stroke="#263238" stroke-linecap="round" stroke-linejoin="round"/>
<path d="M139.164 117.245C139.341 116.732 139.572 116.238 139.853 115.772" stroke="#263238" stroke-linecap="round" stroke-linejoin="round"/>
<path d="M134.549 129.256C133.93 128.711 133.351 128.121 132.817 127.492" stroke="#263238" stroke-linecap="round" stroke-linejoin="round"/>
<path d="M147.445 133.226C143.874 133.632 140.265 132.893 137.141 131.114" stroke="#263238" stroke-linecap="round" stroke-linejoin="round"/>
<path d="M190.748 57.6445H132.387C124.327 57.6445 117.797 63.884 117.797 71.5521V99.0511C117.797 105.739 122.734 111.328 129.321 112.674L126.243 121.784L140.491 113.009H190.748C198.802 113.009 205.339 106.77 205.339 99.1017V71.6027C205.339 63.884 198.802 57.6445 190.748 57.6445Z" fill="#9468B4" stroke="#263238" stroke-width="2" stroke-miterlimit="10"/>
<path d="M127.298 76.1611H192.904" stroke="#263238" stroke-width="2.06409" stroke-miterlimit="10" stroke-linecap="round"/>
<path d="M127.298 82.918H192.904" stroke="#263238" stroke-width="2.06409" stroke-miterlimit="10" stroke-linecap="round"/>
<path d="M127.298 89.6699H192.904" stroke="#263238" stroke-width="2.06409" stroke-miterlimit="10" stroke-linecap="round"/>
<path d="M127.298 96.4219H192.904" stroke="#263238" stroke-width="2.06409" stroke-miterlimit="10" stroke-linecap="round"/>
<path d="M204.808 81.7495C209.301 81.7495 212.943 78.271 212.943 73.9802C212.943 69.6893 209.301 66.2109 204.808 66.2109C200.314 66.2109 196.672 69.6893 196.672 73.9802C196.672 78.271 200.314 81.7495 204.808 81.7495Z" fill="#263238"/>
<path d="M204.175 79.4672C203.908 78.9331 203.788 78.3374 203.828 77.7414V71.4198L202.399 72.2163C202.245 72.3053 202.071 72.3532 201.893 72.3554C201.76 72.3568 201.628 72.3299 201.506 72.2765C201.384 72.2231 201.275 72.1444 201.185 72.0457C200.999 71.8523 200.897 71.5933 200.901 71.325C200.897 71.1426 200.95 70.9636 201.053 70.8129C201.2 70.6365 201.375 70.4849 201.571 70.3641L204.34 68.9481C204.649 68.7263 205.011 68.589 205.389 68.5498C206.331 68.5498 206.799 69.2578 206.799 70.6739V77.9627C206.799 79.3471 206.306 80.0362 205.313 80.0362C205.09 80.0559 204.865 80.0132 204.664 79.9127C204.463 79.8123 204.294 79.6581 204.175 79.4672Z" fill="white"/>
<path d="M173.591 53.5739C173.591 53.5739 173.851 58.6628 178.434 61.084C183.017 63.5052 188.871 62.9805 188.997 59.9398C189.124 56.8991 185.558 53.7003 183.143 49.6229C180.729 45.5455 175.374 47.8465 173.086 50.647" fill="white"/>
<path d="M173.591 53.5739C173.591 53.5739 173.851 58.6628 178.434 61.084C183.017 63.5052 188.871 62.9805 188.997 59.9398C189.124 56.8991 185.558 53.7003 183.143 49.6229C180.729 45.5455 175.374 47.8465 173.086 50.647" stroke="#263238" stroke-linecap="round" stroke-linejoin="round"/>
<path d="M181.487 57.6445C181.101 59.6801 182.505 60.8053 183.776 61.4375C185.046 62.0696 187.568 61.6967 188.997 59.914C189.06 58.4221 188.245 56.9049 187.101 55.2676C185.508 55.4699 181.784 56.0515 181.487 57.6445Z" fill="white" stroke="#263238" stroke-linecap="round" stroke-linejoin="round"/>
<path d="M164.046 53.5739C164.046 53.5739 164.299 58.6628 168.882 61.084C173.465 63.5052 179.325 62.9805 179.452 59.9398C179.578 56.8991 176.013 53.7003 173.591 49.6229C171.17 45.5455 165.828 47.8465 163.534 50.647" fill="white"/>
<path d="M164.046 53.5739C164.046 53.5739 164.299 58.6628 168.882 61.084C173.465 63.5052 179.325 62.9805 179.452 59.9398C179.578 56.8991 176.013 53.7003 173.591 49.6229C171.17 45.5455 165.828 47.8465 163.534 50.647" stroke="#263238" stroke-linecap="round" stroke-linejoin="round"/>
<path d="M171.941 57.6445C171.556 59.6801 172.959 60.8053 174.23 61.4375C175.501 62.0696 178.023 61.6967 179.452 59.914C179.508 58.4221 178.693 56.9049 177.555 55.2676C175.962 55.4699 172.239 56.0515 171.941 57.6445Z" fill="white" stroke="#263238" stroke-linecap="round" stroke-linejoin="round"/>
<path d="M155.164 53.5739C155.164 53.5739 155.417 58.6628 160 61.084C164.583 63.5052 170.437 62.9805 170.563 59.9398C170.69 56.8991 167.131 53.7003 164.71 49.6229C162.288 45.5455 156.94 47.8465 154.652 50.647" fill="white"/>
<path d="M155.164 53.5739C155.164 53.5739 155.417 58.6628 160 61.084C164.583 63.5052 170.437 62.9805 170.563 59.9398C170.69 56.8991 167.131 53.7003 164.71 49.6229C162.288 45.5455 156.94 47.8465 154.652 50.647" stroke="#263238" stroke-linecap="round" stroke-linejoin="round"/>
<path d="M163.053 57.6445C162.674 59.6801 164.071 60.8053 165.348 61.4375C166.625 62.0696 169.141 61.6967 170.563 59.914C170.627 58.4221 169.811 56.9049 168.667 55.2676C167.074 55.4699 163.35 56.0515 163.053 57.6445Z" fill="white" stroke="#263238" stroke-linecap="round" stroke-linejoin="round"/>
<path d="M119.365 109.027C119.365 109.027 119.719 116.853 124.036 122.119" stroke="#263238" stroke-linecap="round" stroke-linejoin="round"/>
<path d="M106.797 141.69C106.797 143.283 105.735 144.573 104.427 144.573C103.118 144.573 102.056 143.309 102.056 141.69C102.056 140.072 103.118 138.808 104.427 138.808C105.735 138.808 106.797 140.097 106.797 141.69Z" fill="white"/>
<path d="M100.899 145.282C100.899 146.875 99.8371 148.164 98.5286 148.164C97.22 148.164 96.158 146.9 96.158 145.282C96.158 143.663 97.22 142.393 98.5286 142.393C99.8371 142.393 100.899 143.689 100.899 145.282Z" stroke="#263238" stroke-linecap="round" stroke-linejoin="round"/>
</svg>
