<svg width="628" height="454" viewBox="0 0 628 454" fill="none" xmlns="http://www.w3.org/2000/svg">
<path d="M529.059 414.85C529.059 414.85 582.742 326.646 563.581 259.254C562.755 256.281 561.764 253.473 560.608 250.5C558.461 246.205 557.47 241.91 557.305 237.781C557.139 233.652 557.635 229.522 558.791 225.558C562.425 215.813 567.38 205.902 573.822 197.148C575.97 194.175 578.282 191.367 580.76 188.724C606.197 159.653 607.683 113.569 572.336 89.7832C554.662 78.7163 534.015 84.3323 517.002 92.426C513.533 94.0777 510.395 95.7295 507.256 97.5464C494.868 102.337 481.489 106.466 467.614 109.274C462.989 110.265 458.364 110.926 453.739 111.586C409.472 116.046 369.83 93.7474 336.96 69.1361C333.986 67.6495 331.013 66.163 327.875 65.0067C312.018 59.0604 292.858 58.2345 266.925 68.1451C183.841 99.6937 208.948 178.813 110.668 171.876C12.3883 164.938 11.7276 257.767 37.4951 301.209C63.4278 344.485 91.3425 388.587 73.008 408.573C54.5082 428.56 217.372 414.52 229.925 415.841C242.314 417.328 529.059 414.85 529.059 414.85Z" fill="url(#paint0_linear)" fill-opacity="0.1"/>
<path opacity="0.3" d="M377.758 67.8153C380.401 76.0741 390.807 82.1856 397.744 86.1499C411.289 93.748 427.971 98.0426 443.333 94.9042C452.583 93.0873 461.667 89.4534 470.257 85.6543C483.14 79.8732 502.631 76.2393 509.238 61.7038C514.854 49.4808 496.189 47.3335 488.756 46.1772C460.841 41.3871 429.128 37.2577 401.048 43.6996C392.624 45.6817 382.383 49.4808 378.584 57.9047C376.932 61.7038 376.932 64.8421 377.758 67.8153Z" fill="url(#paint1_linear)"/>
<path d="M116.615 407.086C118.101 416.997 115.954 429.715 115.293 433.514C115.128 434.175 115.128 434.671 115.128 434.671L107.53 422.117C105.217 416.832 96.1328 396.845 93.8203 384.127C91.5078 371.408 84.7356 361.167 84.4053 354.725C84.2401 348.283 94.6462 344.65 97.289 331.601C100.097 318.552 105.548 297.244 108.851 297.905C109.017 297.905 109.347 298.07 109.512 298.235C112.485 301.373 114.798 322.186 117.771 327.636C120.909 333.418 129.664 340.52 122.891 348.779C116.119 357.038 119.753 366.948 125.864 375.703C132.306 384.622 114.798 395.359 116.615 407.086Z" fill="url(#paint2_linear)"/>
<path opacity="0.3" d="M116.614 407.086C118.101 416.996 115.954 429.715 115.293 433.514C99.9317 368.765 109.016 297.904 109.016 297.904L109.677 298.235C112.65 301.373 114.963 322.185 117.936 327.636C121.074 333.417 129.829 340.52 123.056 348.779C116.284 357.037 119.918 366.948 126.03 375.702C132.306 384.622 114.798 395.358 116.614 407.086Z" fill="url(#paint3_linear)"/>
<path d="M100.427 420.135C97.7844 420.795 94.3157 420.3 90.0212 418.318C87.5435 417.161 86.7176 403.452 82.0927 401.304C77.4678 399.322 74.1642 392.88 72.6777 386.108C71.1911 379.501 57.4815 376.693 55.0038 369.425C52.361 362.158 60.1243 357.037 59.6287 350.43C59.1332 343.823 53.5172 334.243 57.6466 329.948C61.776 325.654 68.8786 340.685 72.8428 343.823C76.6419 346.961 84.0748 350.265 82.0927 355.881C80.1106 361.497 82.9186 370.747 96.1327 375.867C107.199 380.327 115.293 416.666 100.427 420.135Z" fill="url(#paint4_linear)"/>
<path d="M156.752 368.104C151.962 374.546 142.713 368.434 138.583 374.876C134.454 381.318 138.253 390.898 134.454 397.175C130.655 403.286 125.865 404.773 121.074 406.755C116.284 408.737 115.624 417.491 114.963 419.639C114.963 419.639 114.963 419.639 114.963 419.804C114.963 419.804 109.512 408.572 111.825 401.304C114.302 394.201 112.155 384.126 113.476 377.684C114.798 371.242 120.249 367.773 122.065 361.331C123.717 354.89 131.315 350.099 135.114 341.841C138.913 333.582 153.284 324.332 158.404 326.149C158.404 326.149 158.569 326.149 158.569 326.314C163.36 328.296 158.239 341.015 154.605 345.805C150.971 350.43 161.543 361.662 156.752 368.104Z" fill="url(#paint5_linear)"/>
<path opacity="0.3" d="M156.752 368.104C151.962 374.546 142.712 368.435 138.583 374.877C134.454 381.318 138.253 390.899 134.454 397.175C130.655 403.287 125.864 404.773 121.074 406.756C116.284 408.738 115.623 417.492 114.963 419.639C112.815 404.608 123.882 382.475 133.132 362.653C142.547 342.667 155.431 329.123 158.569 325.984C163.359 327.966 158.239 340.685 154.605 345.475C150.971 350.43 161.542 361.662 156.752 368.104Z" fill="url(#paint6_linear)"/>
<path opacity="0.3" d="M100.427 420.135C94.9764 397.671 86.3873 386.935 80.7713 378.511C74.4946 369.261 57.4814 330.114 57.4814 330.114C61.6109 325.82 68.7134 340.851 72.6777 343.989C76.4767 347.127 83.9096 350.431 81.9275 356.047C79.9454 361.663 82.7534 370.913 95.9675 376.033C107.199 380.328 115.293 416.667 100.427 420.135Z" fill="url(#paint7_linear)"/>
<path d="M546.403 399.324C546.238 399.655 546.072 399.82 545.742 399.82H545.577C539.465 399.655 528.729 368.271 513.368 370.088C513.202 370.088 513.037 370.088 512.872 370.088C512.872 370.088 527.573 363.151 535.006 366.95C546.568 373.061 548.22 395.525 546.403 399.324Z" fill="url(#paint8_linear)"/>
<path opacity="0.3" d="M546.403 399.324C546.238 399.655 546.073 399.82 545.742 399.82H545.577C539.466 399.655 528.729 368.271 513.368 370.088C513.368 370.088 530.381 363.316 538.309 377.191C543.595 386.11 545.577 394.369 546.403 399.324Z" fill="url(#paint9_linear)"/>
<path d="M546.898 418.815C546.898 418.815 546.733 418.815 546.898 418.815C546.733 418.815 546.568 418.65 546.568 418.485C546.568 417.989 549.376 372.731 524.93 369.262C524.765 369.262 524.6 369.097 524.6 368.767C524.6 368.602 524.765 368.437 525.095 368.437C550.367 371.905 547.394 417.824 547.394 418.32C547.229 418.65 547.064 418.815 546.898 418.815Z" fill="#627AF4"/>
<path d="M586.871 380.989C571.179 378.677 560.442 410.225 554.331 410.556C554.166 410.556 554.166 410.556 554.001 410.556C553.835 410.556 553.835 410.556 553.67 410.391C551.523 408.078 552.844 383.962 564.902 377.851C572.005 374.217 586.045 380.659 586.871 380.989Z" fill="url(#paint10_linear)"/>
<path opacity="0.3" d="M586.706 380.989C571.179 378.677 560.278 410.226 554.166 410.556C554.001 410.556 554.001 410.556 553.836 410.556C553.671 410.556 553.671 410.556 553.506 410.391C554.497 404.94 556.479 393.873 562.921 385.945C571.675 375.373 585.715 380.659 586.706 380.989Z" fill="url(#paint11_linear)"/>
<path d="M553.01 429.55C552.845 429.55 552.68 429.385 552.68 429.22C552.68 428.725 549.706 382.806 574.978 379.337C575.144 379.337 575.309 379.502 575.474 379.667C575.474 379.832 575.309 379.998 575.144 380.163C550.532 383.466 553.34 428.89 553.506 429.385C553.34 429.385 553.175 429.55 553.01 429.55Z" fill="#627AF4"/>
<path d="M547.889 378.842C547.889 379.007 547.889 379.007 547.889 379.007C547.889 379.007 547.889 379.007 547.724 378.842C546.403 377.686 539.3 370.914 535.997 355.057C531.207 333.088 522.783 328.133 522.287 327.803L521.792 327.472C521.957 327.472 522.122 327.472 522.287 327.307C534.18 325.16 543.099 330.941 546.568 344.651C550.037 360.012 548.055 376.86 547.889 378.842Z" fill="url(#paint12_linear)"/>
<path opacity="0.3" d="M547.559 378.842C546.238 377.686 539.135 370.914 535.832 355.057C531.042 333.088 522.618 328.133 522.122 327.803C522.948 327.968 538.64 331.106 542.934 349.276C546.073 362.82 547.229 373.887 547.559 378.842Z" fill="url(#paint13_linear)"/>
<path d="M549.376 427.403C549.211 427.403 549.046 427.238 549.046 427.073V426.743C549.376 417.658 551.193 341.016 529.72 331.766C529.555 331.601 529.39 331.436 529.555 331.271C529.72 331.106 529.885 330.94 530.05 331.106C551.523 340.521 550.202 411.877 549.706 426.908V427.073C549.872 427.238 549.706 427.403 549.376 427.403Z" fill="#627AF4"/>
<path d="M578.612 337.879L578.117 338.209C578.117 338.209 569.197 342.834 564.407 365.463C560.773 382.476 552.845 389.083 552.349 389.414C552.349 389.414 552.349 389.249 552.349 388.918C552.019 385.78 550.367 369.758 554.001 355.222C557.304 341.182 566.554 335.401 578.612 337.879Z" fill="url(#paint14_linear)"/>
<path opacity="0.3" d="M578.612 337.879L578.117 338.209C578.117 338.209 569.197 342.834 564.407 365.463C560.773 382.476 552.845 389.084 552.349 389.414C552.349 389.414 552.349 389.249 552.349 388.918C554.827 366.785 558.791 355.883 562.26 349.111C566.72 340.522 578.612 337.879 578.612 337.879Z" fill="url(#paint15_linear)"/>
<path d="M550.532 428.23C550.367 428.23 550.202 428.065 550.202 427.9C550.037 403.454 551.689 349.441 570.023 341.348C570.188 341.348 570.354 341.348 570.519 341.513C570.684 341.678 570.519 341.843 570.354 342.008C552.349 349.937 550.698 403.619 550.863 427.9C550.863 428.065 550.698 428.23 550.532 428.23Z" fill="#627AF4"/>
<path d="M356.615 386.439H276.505V408.903H356.615V386.439Z" fill="url(#paint16_linear)"/>
<path d="M511.055 151.889V378.346C511.055 383.796 506.595 388.256 501.145 388.256H131.976C126.525 388.256 122.065 383.796 122.065 378.346V151.889C122.065 146.438 126.525 141.979 131.976 141.979H500.979C506.595 141.979 511.055 146.438 511.055 151.889Z" fill="url(#paint17_linear)"/>
<path d="M511.055 151.889V365.792H122.065V151.889C122.065 146.438 126.525 141.979 131.976 141.979H500.979C506.595 141.979 511.055 146.438 511.055 151.889Z" fill="url(#paint18_linear)"/>
<path d="M501.475 151.889H131.646V355.386H501.475V151.889Z" fill="white"/>
<path d="M381.887 413.858H251.398V413.198C251.398 409.729 254.206 406.756 257.84 406.756H375.61C379.079 406.756 382.052 409.564 382.052 413.198V413.858H381.887Z" fill="url(#paint19_linear)"/>
<path d="M500.979 171.875H131.976V335.399H500.979V171.875Z" fill="#DAE3EF"/>
<path d="M240.662 219.611C257.344 219.611 269.898 229.026 274.027 244.223H255.197C252.224 238.276 246.938 235.138 240.497 235.138C229.925 235.138 222.823 242.901 222.823 255.289C222.823 267.678 230.09 275.441 240.497 275.441C246.938 275.441 252.224 272.468 255.197 266.356H274.027C270.063 281.552 257.344 290.802 240.662 290.802C220.015 290.802 205.314 276.102 205.314 255.124C205.314 234.477 219.849 219.611 240.662 219.611Z" fill="url(#paint20_linear)"/>
<path d="M313.174 220.437C330.352 220.437 338.942 230.347 338.942 242.57C338.942 251.324 334.151 259.748 323.415 262.887L339.602 290.636H320.277L305.741 264.043H301.612V290.636H284.433V220.437H313.174ZM312.183 234.642H301.612V251.985H312.183C318.625 251.985 321.598 248.682 321.598 243.231C321.598 238.11 318.46 234.642 312.183 234.642Z" fill="url(#paint21_linear)"/>
<path d="M349.678 220.437H369.829L389.485 268.998L408.976 220.437H429.128V290.636H411.949V248.516L396.258 290.636H382.383L366.526 248.351V290.636H349.348V220.437H349.678Z" fill="url(#paint22_linear)"/>
<path d="M237.854 216.803C254.536 216.803 267.09 226.218 271.219 241.414H252.389C249.416 235.468 244.13 232.329 237.688 232.329C227.117 232.329 220.015 240.093 220.015 252.481C220.015 264.869 227.282 272.632 237.688 272.632C244.13 272.632 249.416 269.659 252.389 263.548H271.219C267.255 278.744 254.536 287.994 237.854 287.994C217.207 287.994 202.506 273.293 202.506 252.316C202.506 231.669 217.041 216.803 237.854 216.803Z" fill="url(#paint23_linear)"/>
<path d="M310.366 217.629C327.544 217.629 336.133 227.539 336.133 239.763C336.133 248.517 331.343 256.941 320.607 260.079L336.794 287.829H317.468L302.933 261.235H298.804V287.829H281.625V217.629H310.366ZM309.375 231.834H298.804V249.178H309.375C315.817 249.178 318.79 245.874 318.79 240.423C318.79 235.303 315.652 231.834 309.375 231.834Z" fill="url(#paint24_linear)"/>
<path d="M346.87 217.629H367.021L386.677 266.191L406.168 217.629H426.32V287.829H409.141V245.709L393.45 287.829H379.575L363.718 245.544V287.829H346.87V217.629Z" fill="url(#paint25_linear)"/>
<path d="M179.877 130.416H24.2808C22.4639 130.416 20.9773 128.93 20.9773 127.113V60.2166C20.9773 58.3997 22.4639 56.9131 24.2808 56.9131H179.877C181.694 56.9131 183.18 58.3997 183.18 60.2166V127.113C183.18 128.93 181.694 130.416 179.877 130.416Z" fill="url(#paint26_linear)"/>
<path d="M46.2494 104.484H36.3389V121.498H46.2494V104.484Z" fill="#FFD53C"/>
<path d="M66.5663 86.4805H56.6558V121.498H66.5663V86.4805Z" fill="#F4F4F4"/>
<path d="M86.7177 96.2256H76.8071V121.498H86.7177V96.2256Z" fill="#FFD53C"/>
<path d="M107.034 81.8555H97.1238V121.498H107.034V81.8555Z" fill="#F4F4F4"/>
<path d="M127.351 71.6143H117.44V121.497H127.351V71.6143Z" fill="#FFD53C"/>
<path d="M147.502 77.5605H137.592V121.497H147.502V77.5605Z" fill="#F4F4F4"/>
<path d="M167.819 90.2783H157.908V121.331H167.819V90.2783Z" fill="#FFD53C"/>
<g opacity="0.5">
<path d="M81.5969 171.71C81.5969 171.215 81.5969 170.719 81.5969 170.224C81.5969 161.139 74.1639 153.706 65.0792 153.706C57.6463 153.706 51.3696 158.496 49.3875 165.268C49.0571 165.268 48.5616 165.268 48.2313 165.268C45.2581 165.268 42.6153 166.259 40.468 168.076C37.9903 166.755 35.3475 165.929 32.3743 165.929C24.4459 165.929 17.8388 171.545 16.1871 178.813C15.196 178.482 14.0398 178.317 13.0487 178.317C6.2765 178.317 0.825684 183.768 0.825684 190.54C0.825684 194.67 2.8078 198.138 5.78097 200.451H10.4059H20.1513H20.812H42.2849H53.3517H62.7668H70.0345H84.2397H92.4985C95.802 197.478 97.7841 193.183 97.7841 188.228C97.7841 179.308 90.6815 171.875 81.5969 171.71Z" fill="url(#paint27_linear)"/>
<path d="M53.1865 186.907V195.661H45.5884V186.907H39.9724L49.3875 174.684L58.6373 186.907H53.1865Z" fill="white"/>
</g>
<g opacity="0.5">
<path d="M570.684 140.658L573.492 124.636C573.657 123.645 572.831 122.984 571.84 123.149L539.466 129.922C538.475 130.087 538.144 131.243 538.64 131.904L547.724 145.448C548.055 145.944 548.55 146.109 549.046 145.944L569.528 141.649C570.188 141.484 570.519 141.154 570.684 140.658ZM551.689 154.037C549.376 154.533 547.724 156.845 548.22 159.323C548.715 161.635 551.028 163.287 553.506 162.792C555.818 162.296 557.47 159.984 556.974 157.506C556.479 155.194 554.001 153.542 551.689 154.037ZM568.206 150.569C565.894 151.064 564.242 153.377 564.738 155.854C565.233 158.167 567.546 159.818 570.023 159.323C572.336 158.827 573.987 156.515 573.492 154.037C572.996 151.56 570.684 150.073 568.206 150.569ZM572.005 143.962L547.724 149.082C547.229 149.247 546.733 148.917 546.403 148.586L529.72 125.957C529.39 125.462 528.894 125.297 528.399 125.462L516.341 127.939C515.515 128.105 515.02 128.93 515.185 129.756C515.35 130.582 516.176 131.078 517.002 130.913L527.243 128.765C527.738 128.6 528.234 128.93 528.564 129.261L545.082 152.055C545.412 152.551 545.907 152.716 546.403 152.551L572.501 147.1C573.327 146.935 573.822 146.109 573.657 145.283C573.657 144.457 572.831 143.796 572.005 143.962Z" fill="white"/>
</g>
<g opacity="0.5">
<path d="M572.335 223.741V231.504C572.335 232.33 572.996 233.156 573.987 233.156H576.96C577.291 233.156 577.621 233.486 577.786 233.816C578.447 235.964 579.273 237.946 580.429 239.763L577.951 242.24C577.291 242.901 577.291 243.892 577.951 244.553L583.402 250.004C584.063 250.664 585.054 250.664 585.715 250.004L588.192 247.526C590.174 248.682 592.487 249.673 594.799 250.169V253.638C594.799 254.464 595.46 255.289 596.451 255.289H604.214C605.04 255.289 605.866 254.629 605.866 253.638V249.839C608.179 249.178 610.491 248.352 612.473 247.031L614.951 249.508C615.612 250.169 616.603 250.169 617.263 249.508L622.714 244.057C623.375 243.397 623.375 242.406 622.714 241.745L620.732 239.763C620.402 239.432 620.402 239.102 620.567 238.772C621.558 237.12 622.219 235.303 622.714 233.321C622.879 232.991 623.21 232.66 623.54 232.66H626.348C627.174 232.66 628 232 628 231.008V223.245C628 222.419 627.339 221.593 626.348 221.593H623.375C623.045 221.593 622.714 221.263 622.549 220.933C622.053 219.116 621.228 217.299 620.237 215.647C620.071 215.317 620.071 214.821 620.402 214.656L622.384 212.674C623.045 212.013 623.045 211.022 622.384 210.361L616.933 204.911C616.272 204.25 615.281 204.25 614.621 204.911L612.143 207.388C610.326 206.232 608.344 205.406 606.197 204.911C605.866 204.745 605.536 204.415 605.536 204.085V201.277C605.536 200.451 604.875 199.625 603.884 199.625H596.121C595.295 199.625 594.469 200.286 594.469 201.277V204.25C594.469 204.58 594.139 204.911 593.808 205.076C591.991 205.571 590.174 206.397 588.523 207.388C588.192 207.553 587.697 207.553 587.532 207.223L585.55 205.241C584.889 204.58 583.898 204.58 583.237 205.241L577.786 210.692C577.126 211.353 577.126 212.344 577.786 213.004L579.768 214.986C580.099 215.317 580.099 215.647 579.934 215.977C578.943 217.629 578.282 219.446 577.786 221.428C577.621 221.759 577.291 222.089 576.96 222.089H574.152C572.996 222.089 572.335 222.915 572.335 223.741ZM588.853 220.602C589.844 218.785 591.331 217.299 592.982 216.308C605.206 209.701 617.429 222.089 610.987 234.147C609.996 235.964 608.509 237.45 606.692 238.441C594.634 244.883 582.411 232.66 588.853 220.602Z" fill="url(#paint28_linear)"/>
<path d="M599.92 219.28C604.38 219.28 608.014 222.914 608.014 227.374C608.014 231.834 604.38 235.468 599.92 235.468C595.46 235.468 591.826 231.834 591.826 227.374C591.826 222.914 595.46 219.28 599.92 219.28Z" fill="url(#paint29_linear)"/>
</g>
<g opacity="0.5">
<path d="M344.558 91.7657C343.897 91.4353 343.236 91.2702 342.741 91.2702C332.004 90.6095 326.553 100.355 329.857 107.953L319.286 114.23L320.772 116.707L331.344 110.431C334.977 115.056 341.419 116.377 346.705 113.404C354.468 108.779 354.964 96.721 344.558 91.7657ZM349.348 105.971C344.723 116.377 330.848 112.743 331.674 101.511C331.674 101.181 331.839 100.85 331.839 100.52C336.464 90.1139 350.339 93.7478 349.513 104.98C349.513 105.31 349.513 105.64 349.348 105.971Z" fill="white"/>
</g>
<path d="M108.851 274.616H2.47764C1.15623 274.616 0 273.46 0 272.138V240.755C0 239.434 1.15623 238.277 2.47764 238.277H108.851C110.173 238.277 111.329 239.434 111.329 240.755V272.138C111.329 273.46 110.173 274.616 108.851 274.616Z" fill="url(#paint30_linear)"/>
<path d="M20.9774 249.178L22.9595 253.142C22.9595 253.307 23.1247 253.307 23.2899 253.473L27.5844 254.133C27.9148 254.133 28.08 254.629 27.9148 254.959L24.7764 257.932C24.6113 258.098 24.6113 258.263 24.6113 258.263L25.272 262.557C25.272 262.888 24.9416 263.218 24.6113 263.053L20.8122 261.071C20.647 261.071 20.4819 261.071 20.3167 261.071L16.5176 263.053C16.1873 263.218 15.8569 262.888 15.8569 262.557L16.5176 258.098C16.5176 257.932 16.5176 257.767 16.3525 257.767L13.2141 254.629C12.8838 254.298 13.0489 253.968 13.5445 253.803L17.839 253.142C18.0042 253.142 18.1694 252.977 18.1694 252.812L20.1515 248.848C20.3167 248.848 20.8122 248.848 20.9774 249.178Z" fill="#FFD53C"/>
<path d="M38.4859 249.177L40.468 253.142C40.468 253.307 40.6332 253.307 40.7984 253.472L45.093 254.133C45.4233 254.133 45.5885 254.628 45.4233 254.959L42.285 257.932C42.1198 258.097 42.1198 258.262 42.1198 258.262L42.7805 262.557C42.7805 262.887 42.4502 263.217 42.1198 263.052L38.3208 261.07C38.1556 261.07 37.9904 261.07 37.8252 261.07L34.0262 263.052C33.6958 263.217 33.3655 262.887 33.3655 262.557L34.0262 258.262C34.0262 258.097 34.0262 257.932 33.861 257.932L30.7227 254.959C30.3923 254.628 30.5575 254.298 31.053 254.133L35.3476 253.472C35.5128 253.472 35.6779 253.307 35.6779 253.142L37.66 249.177C37.8252 248.847 38.3208 248.847 38.4859 249.177Z" fill="#FFD53C"/>
<path d="M55.9947 249.177L57.9768 253.142C57.9768 253.307 58.142 253.307 58.3072 253.472L62.6018 254.133C62.9321 254.133 63.0973 254.628 62.9321 254.959L59.7938 257.932C59.6286 258.097 59.6286 258.262 59.6286 258.262L60.2893 262.557C60.2893 262.887 59.9589 263.217 59.6286 263.052L55.8295 261.07C55.6644 261.07 55.4992 261.07 55.334 261.07L51.535 263.052C51.2046 263.217 50.8743 262.887 50.8743 262.557L51.535 258.262C51.535 258.097 51.535 257.932 51.3698 257.932L48.2314 254.959C47.9011 254.628 48.0663 254.298 48.5618 254.133L52.8564 253.472C53.0215 253.472 53.1867 253.307 53.1867 253.142L55.1688 249.177C55.334 248.847 55.8295 248.847 55.9947 249.177Z" fill="#FFD53C"/>
<path d="M73.6685 249.177L75.6507 253.142C75.6507 253.307 75.8158 253.307 75.981 253.472L80.2756 254.133C80.6059 254.133 80.7711 254.628 80.6059 254.959L77.4676 257.932C77.3024 258.097 77.3024 258.262 77.3024 258.262L77.9631 262.557C77.9631 262.887 77.6328 263.217 77.3024 263.052L73.5034 261.07C73.3382 261.07 73.173 261.07 73.0078 261.07L69.2088 263.052C68.8784 263.217 68.5481 262.887 68.5481 262.557L69.2088 258.262C69.2088 258.097 69.2088 257.932 69.0436 257.932L65.9053 254.959C65.5749 254.628 65.7401 254.298 66.2356 254.133L70.5302 253.472C70.6954 253.472 70.8606 253.307 70.8606 253.142L72.8427 249.177C73.0078 248.847 73.5034 248.847 73.6685 249.177Z" fill="#FFD53C"/>
<path d="M91.1773 249.177L93.1595 253.142C93.1595 253.307 93.3246 253.307 93.4898 253.472L97.7844 254.133C98.1147 254.133 98.2799 254.628 98.1147 254.959L94.9764 257.932C94.8112 258.097 94.8112 258.262 94.8112 258.262L95.4719 262.557C95.4719 262.887 95.1416 263.217 94.8112 263.052L91.0122 261.07C90.847 261.07 90.6818 261.07 90.5166 261.07L86.7176 263.052C86.3872 263.217 86.0569 262.887 86.0569 262.557L86.7176 258.262C86.7176 258.097 86.7176 257.932 86.5524 257.932L83.4141 254.959C83.0837 254.628 83.2489 254.298 83.7444 254.133L88.039 253.472C88.2042 253.472 88.3693 253.307 88.3693 253.142L90.3515 249.177C90.5166 248.847 91.0122 248.847 91.1773 249.177Z" fill="#FFD53C"/>
<path d="M585.88 413.364H25.7676V440.618H585.88V413.364Z" fill="white" fill-opacity="0.1"/>
<path d="M585.88 413.364H25.7676V415.346H585.88V413.364Z" fill="url(#paint31_linear)"/>
<path d="M225.796 437.974L228.934 440.947L225.301 446.563L220.51 442.599L225.796 437.974Z" fill="#F2BC97"/>
<path d="M138.748 393.872C142.217 400.479 154.11 403.452 164.186 404.939C172.61 406.095 180.042 406.26 180.703 406.26C182.355 406.591 189.623 418.649 195.239 424.43C200.689 430.211 220.345 443.425 220.345 443.425L226.457 437.974C226.457 437.974 202.176 408.242 194.578 400.809C187.145 393.377 166.828 387.926 166.828 387.926C166.828 387.926 132.307 381.649 138.748 393.872Z" fill="url(#paint32_linear)"/>
<path opacity="0.3" d="M154.44 392.715L164.185 404.938C172.609 406.094 180.042 406.259 180.703 406.259C182.355 406.59 189.622 418.648 195.238 424.429C200.689 430.21 220.345 443.424 220.345 443.424L226.457 437.973C216.051 439.955 214.729 437.147 206.47 430.21C198.377 423.273 192.596 407.911 188.136 404.443C183.841 400.974 173.27 399.157 172.774 397.175C172.279 395.193 177.399 393.706 177.399 393.706L169.801 392.55L154.44 392.715Z" fill="#7B8BFF"/>
<path d="M229.761 429.386L234.386 430.046L233.56 437.149L227.448 436.158L229.761 429.386Z" fill="#F2BC97"/>
<path d="M234.22 429.881C234.22 429.881 236.533 430.046 237.028 429.881C237.359 429.716 245.617 424.761 246.609 424.761C246.774 424.761 247.6 424.761 247.6 424.926C247.765 426.908 245.122 438.14 244.296 438.47C243.47 438.801 233.229 437.149 233.229 437.149L234.22 429.881Z" fill="url(#paint33_linear)"/>
<path d="M228.604 440.122C228.604 440.122 230.421 441.774 230.752 441.774C231.082 441.939 240.662 442.93 241.488 443.426C241.488 443.426 242.314 444.086 242.149 444.251C241.158 445.903 232.238 453.171 231.247 453.006C230.256 452.841 223.319 445.242 223.319 445.242L228.604 440.122Z" fill="url(#paint34_linear)"/>
<path d="M131.315 405.6C135.445 419.64 178.721 418.979 178.721 418.979C178.721 418.979 187.475 425.256 196.725 429.716C206.14 434.01 229.265 436.818 229.265 436.818L230.917 428.559C215.555 424.595 188.797 406.095 185.493 404.444C183.511 403.453 171.618 398.332 162.038 394.203C156.422 391.725 151.632 389.743 150.146 389.082C149.815 388.917 149.65 388.917 149.65 388.917C149.65 388.917 149.32 388.917 148.659 389.082C144.53 389.743 127.516 393.212 131.315 405.6Z" fill="url(#paint35_linear)"/>
<path opacity="0.3" d="M131.315 405.6C135.445 419.64 178.721 418.979 178.721 418.979C178.721 418.979 187.475 425.256 196.725 429.716C206.14 434.01 229.265 436.818 229.265 436.818L230.917 428.559C224.475 436.488 218.694 433.184 206.14 429.881C193.587 426.577 181.694 414.85 179.382 414.189C177.069 413.528 173.766 413.198 161.047 412.702C148.329 412.372 138.583 408.077 138.583 404.444C138.418 400.975 145.025 399.323 148.329 397.671C151.797 396.02 162.699 394.698 162.699 394.698L162.203 393.872L158.9 389.247L150.311 388.917H148.989C144.529 389.743 127.516 393.212 131.315 405.6Z" fill="#7B8BFF"/>
<path d="M161.708 342.338C163.359 342.503 164.516 343.659 165.176 345.146C167.654 351.753 175.417 374.217 170.627 376.364C165.011 378.842 159.23 358.525 158.404 352.414C157.578 347.293 157.908 342.008 161.708 342.338Z" fill="#F2BC97"/>
<path d="M164.681 342.668C164.681 342.668 167.819 344.32 169.141 350.762C170.462 357.203 176.904 391.56 176.904 391.56C176.904 391.56 164.02 394.038 163.69 391.725C163.525 389.578 164.681 342.668 164.681 342.668Z" fill="#FFD53C"/>
<path opacity="0.5" d="M167.654 359.682L172.279 392.882L163.029 390.57L167.654 359.682Z" fill="#FFD53C"/>
<path d="M134.453 343.493C132.802 343.328 131.315 344.154 130.489 345.641C126.69 351.587 114.467 371.904 118.762 375.042C123.717 378.511 133.628 359.846 135.775 354.23C137.592 349.275 138.253 343.989 134.453 343.493Z" fill="#F2BC97"/>
<path d="M144.364 358.856C145.355 358.691 146.511 359.517 146.677 360.673C146.842 361.664 147.007 363.976 147.007 365.628C147.007 369.592 147.172 373.392 145.851 374.052C144.529 374.713 143.208 372.235 142.712 368.271C142.382 364.637 141.061 360.177 141.886 359.517C142.382 359.186 143.538 359.021 144.364 358.856Z" fill="#F2BC97"/>
<path d="M169.801 393.376L161.542 392.55L149.319 392.055L147.833 392.22L144.034 390.733L135.114 389.742L132.636 389.412V388.751C132.636 388.751 132.636 387.595 132.471 385.778C132.471 384.457 132.306 382.805 132.306 380.988C132.141 376.528 131.811 370.747 131.811 365.131C131.645 356.707 131.645 348.613 132.306 345.64C133.793 338.703 144.859 340.189 144.859 340.189L158.074 341.181C158.074 341.181 165.176 341.015 166.332 344.154C167.489 347.953 169.801 393.376 169.801 393.376Z" fill="white"/>
<path d="M130.985 400.151L132.967 399.49L150.145 394.369C150.31 388.753 150.641 372.071 150.806 365.133C150.806 364.638 150.806 364.307 150.806 363.812C150.145 347.79 144.529 340.026 144.529 340.026C144.529 340.026 133.628 338.54 131.976 345.477C131.315 348.45 131.315 356.544 131.48 364.968C131.646 370.584 131.811 376.365 131.976 380.825C132.141 382.642 132.141 384.294 132.141 385.615C132.306 387.432 132.306 388.588 132.306 388.588L130.985 400.151Z" fill="#FFD53C"/>
<path opacity="0.5" d="M130.985 400.149L132.967 399.489C135.775 387.761 133.958 380.658 133.628 375.208C132.967 366.288 135.775 359.516 135.94 359.186L131.646 364.802C131.646 364.802 131.646 364.967 131.646 365.132C131.811 370.748 131.976 376.529 132.141 380.989C132.306 382.806 132.306 384.458 132.306 385.779C132.471 387.596 132.471 388.752 132.471 388.752L130.985 400.149Z" fill="#FFD53C"/>
<path opacity="0.5" d="M148.163 389.743V391.065C148.163 391.726 148.163 392.386 148.163 392.386L144.034 390.735L132.306 385.944C132.306 384.623 132.141 382.971 132.141 381.154C137.262 383.797 148.163 389.413 148.163 389.743Z" fill="#FFD53C"/>
<path d="M119.092 373.887C119.092 375.208 120.083 376.364 121.239 377.19C127.021 380.659 147.998 393.047 150.31 391.395C153.118 389.413 123.717 370.088 122.065 370.913C120.744 371.409 118.927 371.739 119.092 373.887Z" fill="#F2BC97"/>
<path d="M147.998 388.257C147.998 388.257 150.476 387.431 153.118 387.762C154.935 388.092 157.578 390.735 157.248 391.891C157.083 393.047 155.926 392.717 153.779 391.561C151.632 390.404 151.797 392.552 149.815 392.056C147.668 391.561 147.337 390.404 147.337 390.404" fill="#F2BC97"/>
<path d="M144.364 340.356C149.485 344.98 156.918 341.677 157.578 341.347C154.936 340.521 154.936 337.052 154.936 337.052C159.23 338.043 162.699 329.124 163.36 327.141C164.02 325.159 166.333 317.726 156.752 316.57C147.337 315.414 147.172 326.811 147.007 331.271C147.007 335.731 144.034 339.86 144.364 340.356Z" fill="#F2BC97"/>
<path d="M147.172 332.593C147.172 332.593 143.869 316.075 151.632 313.762C158.735 311.615 160.882 315.084 164.516 319.709C168.15 324.334 172.775 324.994 172.775 324.994C172.775 324.994 165.672 329.95 161.212 326.811C157.413 324.169 153.119 323.012 152.458 325.325C151.797 327.472 152.458 329.785 151.632 329.785C150.806 329.785 150.311 325.82 149.319 326.646C147.998 327.307 150.311 331.767 147.172 332.593Z" fill="url(#paint36_linear)"/>
<path d="M151.467 336.062C151.467 336.062 152.623 340.852 157.578 341.347C154.936 340.521 154.936 337.053 154.936 337.053C154.936 337.053 152.953 336.887 151.467 336.062Z" fill="#E5AD88"/>
<path d="M135.279 341.678C135.279 341.678 130.82 342.504 126.69 350.432C122.561 358.361 115.128 370.418 118.101 375.374C121.074 380.329 139.904 387.762 139.904 387.762L143.043 383.632C143.043 383.632 127.021 372.4 127.021 371.905C127.021 371.575 134.784 359.847 134.784 359.847L135.279 341.678Z" fill="#FFD53C"/>
<path d="M162.203 364.967C161.873 353.239 158.074 342.503 157.743 341.181V341.016H157.909C158.239 341.016 165.176 340.851 166.333 343.989C167.819 347.623 169.966 391.23 169.966 393.047V393.212L161.542 392.386H161.377V392.221C161.873 386.274 162.368 372.73 162.203 365.132C162.203 365.297 162.203 365.132 162.203 364.967Z" fill="#FFD53C"/>
<path d="M157.909 341.182L164.185 355.056L163.525 357.039L164.516 359.021L162.203 365.958V364.967C161.873 353.239 158.074 342.503 157.743 341.182H157.909Z" fill="#FFD53C"/>
<path d="M163.524 395.525C163.689 395.359 185.327 393.708 185.327 393.708L193.256 372.896C193.586 372.896 171.948 373.391 171.948 373.391L163.524 395.359V395.525Z" fill="#C7D4F9"/>
<path d="M163.524 395.525C163.689 395.359 185.327 393.708 185.327 393.708L193.256 372.896C192.595 374.217 182.685 394.534 164.185 395.194C164.02 395.194 163.855 395.194 163.524 395.194V395.525Z" fill="#C7D4F9"/>
<path d="M147.502 394.699L163.524 395.525L164.02 394.203L164.681 392.717L147.667 391.726V393.212L147.502 394.699Z" fill="#B9C8FC"/>
<path d="M171.948 373.391H171.288L162.864 395.524H163.524L171.948 373.391Z" fill="#B9C8FC"/>
<path d="M147.502 394.698L163.359 395.524L163.855 394.203C159.725 394.038 150.475 393.377 147.502 393.212V394.698Z" fill="#B9C8FC"/>
<path d="M187.475 388.092C187.475 388.092 184.172 387.101 183.676 389.413C183.181 391.726 185.658 392.717 185.658 392.717C185.658 392.717 187.806 389.744 187.475 388.092Z" fill="#F2BC97"/>
<path d="M180.538 384.127C180.207 384.953 179.381 385.613 178.555 385.283C177.895 384.953 177.564 384.127 177.895 383.136C178.225 382.31 179.051 381.649 179.877 381.979C180.703 382.31 180.868 383.301 180.538 384.127Z" fill="white"/>
<path d="M467.119 253.307C465.632 253.637 464.476 254.793 464.146 256.28C462.329 262.722 456.713 284.36 461.338 286.011C466.789 287.828 470.753 268.338 471.083 262.556C471.579 257.601 470.753 252.646 467.119 253.307Z" fill="#F2BC97"/>
<path d="M466.954 252.481C466.954 252.481 463.981 254.133 462.659 260.08C461.338 266.191 455.391 298.566 455.391 298.566C455.391 298.566 467.449 300.878 467.78 298.731C468.11 296.583 466.954 252.481 466.954 252.481Z" fill="#FFD53C"/>
<path opacity="0.5" d="M464.146 268.503L459.851 299.721L468.605 297.574L464.146 268.503Z" fill="#FFD53C"/>
<path d="M495.529 252.15C497.016 252.481 498.007 253.637 498.502 255.124C500.154 261.565 505.109 283.534 500.484 284.855C494.868 286.507 491.565 266.851 491.4 261.07C491.069 256.28 492.06 251.324 495.529 252.15Z" fill="#F2BC97"/>
<path d="M486.114 267.677C485.123 267.512 484.132 268.338 483.967 269.494C483.802 270.32 483.636 272.633 483.636 274.119C483.636 277.918 483.471 281.552 484.793 282.048C486.114 282.708 487.27 280.396 487.766 276.597C488.096 273.128 489.253 268.999 488.427 268.338C487.931 268.008 487.105 267.842 486.114 267.677Z" fill="#F2BC97"/>
<path d="M462.164 300.217L468.936 301.869H481.159L482.976 299.226L486.61 297.739L495.034 296.913L497.346 296.748V296.253C497.346 296.253 497.346 295.262 497.511 293.445C497.511 292.288 497.676 290.637 497.676 288.82C497.842 284.69 498.007 279.239 498.172 273.789C498.337 265.86 498.337 258.262 497.676 255.454C496.19 248.847 485.949 250.334 485.949 250.334L473.396 251.159C473.396 251.159 466.623 250.994 465.467 253.967C464.311 257.271 462.164 300.217 462.164 300.217Z" fill="white"/>
<path d="M476.699 304.677C480.333 305.337 482.81 309.467 481.984 313.431C481.324 316.735 479.176 324.333 477.029 329.618C471.744 342.502 467.449 354.725 462.163 355.221C456.878 355.716 455.391 346.136 459.19 332.922C462.659 321.029 463.98 305.337 467.779 304.181C469.761 303.52 473.56 304.016 476.699 304.677Z" fill="#F2BC97"/>
<path d="M486.444 303.356C489.913 302.86 493.547 305.833 494.208 309.798C494.868 312.936 495.529 320.864 495.529 326.48C495.364 340.19 496.024 352.909 491.399 355.056C486.94 357.203 482.15 348.779 480.828 335.235C479.672 323.012 475.377 307.981 478.351 305.668C480.002 304.677 483.471 303.851 486.444 303.356Z" fill="#F2BC97"/>
<path d="M459.686 348.944C469.596 346.962 458.364 392.716 453.905 401.801C449.445 410.885 449.445 404.444 450.932 387.926C452.583 371.243 455.887 349.605 459.686 348.944Z" fill="#F2BC97"/>
<path d="M448.95 395.194L447.958 407.747H453.079L456.713 394.698L448.95 395.194Z" fill="#F2BC97"/>
<path d="M447.793 403.949C447.793 403.949 445.811 406.426 441.186 409.73C436.561 412.868 435.405 412.207 435.405 413.364C435.24 414.685 453.739 414.19 453.739 414.19L454.235 403.783C454.4 403.783 447.958 403.618 447.793 403.949Z" fill="#234F70"/>
<path d="M488.757 349.936C496.685 343.494 505.605 389.909 505.605 400.149C505.605 410.39 500.485 393.047 494.703 377.355C488.922 361.829 485.619 352.579 488.757 349.936Z" fill="#F2BC97"/>
<path d="M499.493 394.864L504.449 406.261L509.074 404.114L506.1 390.734L499.493 394.864Z" fill="#F2BC97"/>
<path d="M502.632 402.958C502.632 402.958 501.476 405.931 498.337 410.556C495.034 415.181 493.712 414.685 494.043 416.007C494.373 417.163 511.716 410.721 511.716 410.721L508.743 400.811C508.743 400.811 502.632 402.793 502.632 402.958Z" fill="#234F70"/>
<path d="M508.082 396.349L504.118 398.001L500.484 399.488C500.484 399.488 485.288 361.497 483.306 355.881C481.489 350.265 478.02 330.279 478.02 330.279L465.797 357.203C463.32 377.354 456.547 398.332 456.217 398.992C456.217 398.992 452.748 398.662 450.436 398.331C449.28 398.166 448.289 398.001 448.289 398.001C448.289 398.001 452.418 359.845 453.739 349.935C455.061 340.024 464.311 302.529 464.311 302.529L492.225 303.355H494.208C498.502 315.248 495.694 352.247 495.694 352.247C501.806 363.314 508.082 396.349 508.082 396.349Z" fill="url(#paint37_linear)"/>
<path d="M504.283 397.836C506.761 390.073 503.458 385.118 502.301 381.649C501.145 377.85 500.319 372.564 499.163 366.123C498.007 359.681 493.547 356.542 493.051 352.248C492.391 347.953 493.877 335.235 494.042 329.949C494.208 324.829 493.877 318.717 493.382 312.44C492.721 306.164 488.757 304.181 488.757 304.181L492.06 303.19H494.042C498.337 315.083 495.529 352.083 495.529 352.083C501.971 362.984 508.248 396.019 508.248 396.019L504.283 397.836Z" fill="#E8E9EA"/>
<path d="M494.538 304.511H463.98C463.815 304.511 463.65 304.346 463.65 304.181V301.868C463.65 301.703 463.815 301.538 463.98 301.538H494.538C494.703 301.538 494.868 301.703 494.868 301.868V304.181C494.868 304.346 494.703 304.511 494.538 304.511Z" fill="#214F95"/>
<path d="M479.177 304.677H478.846C478.681 304.677 478.516 304.512 478.516 304.346V301.373C478.516 301.208 478.681 301.043 478.846 301.043H479.177C479.342 301.043 479.507 301.208 479.507 301.373V304.346C479.507 304.512 479.342 304.677 479.177 304.677Z" fill="url(#paint38_linear)"/>
<path d="M465.632 304.677H465.137C464.971 304.677 464.971 304.511 464.971 304.511V301.538C464.971 301.373 465.137 301.373 465.137 301.373H465.632C465.797 301.373 465.797 301.538 465.797 301.538V304.511C465.962 304.511 465.797 304.677 465.632 304.677Z" fill="url(#paint39_linear)"/>
<path d="M491.565 304.677H491.234C491.069 304.677 490.904 304.512 490.904 304.346V301.373C490.904 301.208 491.069 301.043 491.234 301.043H491.565C491.73 301.043 491.895 301.208 491.895 301.373V304.346C491.73 304.512 491.73 304.677 491.565 304.677Z" fill="url(#paint40_linear)"/>
<path d="M478.351 330.114L465.797 357.203C463.32 377.355 456.548 398.332 456.217 398.993C456.217 398.993 452.749 398.662 450.436 398.332C458.034 394.698 457.208 390.073 459.025 382.971C461.172 374.547 463.155 360.672 463.65 356.212C464.146 351.752 476.864 324.333 476.864 324.333L478.351 330.114Z" fill="#E8E9EA"/>
<path d="M498.337 273.624V273.789C498.337 276.597 498.172 279.405 498.172 282.048C498.172 284.36 498.007 286.673 497.842 288.489C497.842 288.655 497.842 288.655 497.842 288.82C497.842 290.472 497.842 291.628 497.676 292.784C497.676 293.445 497.676 293.94 497.511 294.436C497.511 295.427 497.511 296.418 497.511 297.244C497.676 299.887 497.676 305.998 495.364 308.311C494.703 308.971 489.583 307.65 485.619 306.659C484.132 306.163 482.811 305.833 481.819 305.503C480.994 305.172 480.498 304.512 480.498 303.52C480.498 300.878 480.828 296.418 480.828 293.94C480.828 293.114 480.828 292.123 480.994 291.132C481.159 285.186 481.654 278.083 481.985 272.798C483.306 255.454 486.114 250.169 486.114 250.169C486.114 250.169 496.52 248.682 497.842 255.289C498.502 258.097 498.502 265.695 498.337 273.624Z" fill="#FFD53C"/>
<path opacity="0.5" d="M496.024 291.628C496.024 291.628 497.016 292.619 494.208 293.61C491.565 294.601 483.967 297.244 484.132 297.244C484.132 297.079 496.024 291.628 496.024 291.628Z" fill="#FFD53C"/>
<path opacity="0.5" d="M497.511 294.436C497.511 295.427 497.511 296.418 497.511 297.244C497.676 299.887 497.676 305.998 495.364 308.311C494.703 308.972 489.583 307.65 485.618 306.659C487.766 306.99 491.234 307.485 493.217 306.99C496.355 306.164 496.355 299.722 496.19 296.749C496.024 293.775 496.024 290.802 496.024 290.802C496.024 290.802 496.85 289.976 497.676 288.985C497.676 290.637 497.676 291.793 497.511 292.95C497.676 293.445 497.676 294.106 497.511 294.436Z" fill="#FFD53C"/>
<path d="M473.726 251.16C473.396 250.995 466.789 250.995 465.632 253.803C464.476 256.941 462.659 288.985 462.329 297.905C462.329 299.391 462.329 301.208 462.164 303.025C462.164 303.025 462.164 303.025 462.164 303.19C462.164 303.686 462.329 307.65 462.824 307.98C463.65 308.641 468.11 305.998 469.762 305.007C470.092 304.842 470.422 304.346 470.422 303.851L470.257 299.391V299.226C469.927 293.61 470.422 281.222 470.918 274.119C471.248 268.338 473.396 251.655 473.726 251.16Z" fill="#FFD53C"/>
<path opacity="0.5" d="M500.815 279.075C500.815 279.075 499.493 280.562 498.007 282.213C496.19 284.196 494.042 286.673 493.877 286.673C493.712 286.838 480.828 294.271 480.828 294.271L480.663 294.106C480.663 293.28 480.663 292.289 480.828 291.298C483.636 289.316 491.73 283.37 493.547 281.553C495.859 279.405 495.033 267.513 495.033 267.513L498.172 273.955L500.815 279.075Z" fill="#FFD53C"/>
<path d="M486.114 250.169C486.444 249.838 483.636 245.874 483.471 241.745C483.306 237.45 483.306 226.714 474.221 227.87C465.302 229.026 467.449 235.963 468.11 237.78C468.771 239.597 472.074 248.021 476.203 247.195C476.203 247.195 476.038 250.334 473.726 251.16C473.726 250.994 480.994 254.793 486.114 250.169Z" fill="#F2BC97"/>
<path d="M503.622 283.699C503.622 285.021 502.797 286.177 501.64 286.838C496.19 290.141 476.368 301.869 474.056 300.217C471.413 298.4 499.163 280.065 500.815 280.891C501.971 281.222 503.622 281.552 503.622 283.699Z" fill="#F2BC97"/>
<path d="M476.369 297.245C476.369 297.245 474.056 296.419 471.579 296.914C469.762 297.245 467.449 299.722 467.614 300.713C467.78 301.704 468.936 301.539 470.918 300.383C473.065 299.227 472.735 301.209 474.717 300.878C476.699 300.383 477.029 299.392 477.029 299.392" fill="#F2BC97"/>
<path d="M494.703 251.49C494.703 251.49 499.658 253.142 501.641 259.749C504.118 267.843 506.761 281.883 505.274 285.021C502.962 289.976 484.297 296.914 484.297 296.914L481.489 291.958C481.489 291.958 496.52 281.387 496.52 281.057C496.52 280.726 495.199 268.669 495.199 268.669L494.703 251.49Z" fill="#FFD53C"/>
<path d="M481.985 291.298C482.15 291.298 485.288 296.584 485.288 296.584L484.132 297.244H483.967L480.828 292.289V292.124C480.994 291.959 481.654 291.133 481.985 291.298Z" fill="white"/>
<path d="M482.48 231.173C482.315 230.678 481.985 230.017 481.82 229.522C480.829 227.54 479.507 225.557 477.36 225.392C475.708 225.227 474.056 226.218 472.57 226.879C470.092 228.035 467.119 228.2 464.476 227.54C463.32 227.209 462.164 226.714 461.007 227.044C459.521 227.374 458.365 228.861 458.034 230.348C457.373 232.66 458.365 235.468 460.347 236.955C462.329 238.441 465.137 238.772 467.284 237.615C468.771 236.789 470.422 236.129 472.074 235.798C472.9 235.633 473.891 235.633 474.717 236.129C475.378 236.624 475.873 237.45 476.204 238.111C476.534 238.772 476.864 239.928 477.69 240.258C478.516 240.589 478.351 239.432 478.351 238.937C478.186 238.111 478.186 237.285 478.02 236.459C478.02 235.964 477.69 234.973 478.186 234.642H478.351C479.177 234.477 479.837 234.973 480.333 235.468C481.489 236.789 480.994 238.772 481.324 240.423C481.654 241.58 482.315 243.727 483.802 243.397C484.462 243.231 484.462 242.24 484.462 241.58C484.462 240.589 484.628 239.597 484.462 238.606C484.462 237.615 484.132 236.624 483.967 235.633C483.636 234.147 483.141 232.66 482.48 231.173Z" fill="#214F95"/>
<path d="M440.36 280.892L447.958 300.548C447.958 300.548 468.44 302.199 468.605 302.365L460.512 281.387C460.346 281.387 440.03 280.892 440.36 280.892Z" fill="#C7D4F9"/>
<path d="M483.471 301.372L468.44 302.198L467.944 301.042L467.449 299.555L483.306 298.729V300.051L483.471 301.372Z" fill="#B9C8FC"/>
<path d="M460.346 281.387H461.172L469.101 302.199H468.44L460.346 281.387Z" fill="#B9C8FC"/>
<path d="M483.471 301.373L468.44 302.199L467.944 300.878C471.743 300.713 480.663 300.052 483.471 299.887V301.373Z" fill="#B9C8FC"/>
<path d="M452.253 291.462C452.583 292.288 453.409 292.783 454.07 292.618C454.73 292.288 455.061 291.462 454.73 290.636C454.4 289.81 453.574 289.315 452.913 289.48C452.253 289.81 451.922 290.636 452.253 291.462Z" fill="white"/>
<path d="M244.13 146.275C257.509 148.422 268.907 147.761 269.402 144.788C269.898 141.815 259.326 137.52 245.947 135.373C232.568 133.226 221.171 133.886 220.675 136.86C220.18 139.833 230.751 144.127 244.13 146.275Z" fill="#F2BC97"/>
<path d="M266.924 144.127C276.339 139.668 279.808 181.127 277.826 190.046C275.679 198.966 270.228 183.605 267.42 169.069C264.612 154.368 263.125 145.779 266.924 144.127Z" fill="#F2BC97"/>
<path d="M277.661 190.707C277.661 190.707 278.982 192.359 281.79 194.506C284.598 196.654 285.259 196.158 285.424 196.984C285.424 197.81 273.697 196.984 273.697 196.984L273.862 190.377C273.862 190.377 277.661 190.542 277.661 190.707Z" fill="url(#paint41_linear)"/>
<path d="M256.023 141.814C269.237 145.944 280.634 146.935 281.46 144.127C282.451 141.154 272.54 135.538 259.326 131.243C246.112 127.114 234.715 126.123 233.889 128.931C233.063 131.904 242.974 137.685 256.023 141.814Z" fill="#F2BC97"/>
<path d="M278.322 142.641C289.388 145.779 261.143 180.136 252.884 185.917C244.626 191.863 252.224 177.658 260.648 163.618C268.907 149.578 274.027 141.319 278.322 142.641Z" fill="#F2BC97"/>
<path d="M252.224 186.248C252.224 186.248 252.059 188.56 252.884 192.359C253.545 196.158 254.536 196.323 254.041 196.984C253.545 197.645 244.46 188.56 244.46 188.56L249.416 183.274C249.251 183.44 252.389 186.082 252.224 186.248Z" fill="url(#paint42_linear)"/>
<path d="M276.339 157.837C275.348 159.324 274.357 160.975 273.201 162.627C265.603 173.529 255.858 184.265 255.858 184.265L249.911 178.814C249.911 178.814 265.603 149.248 265.107 148.092C264.447 146.935 229.76 141.154 228.108 129.592C226.456 118.03 245.782 126.784 245.782 126.784C245.782 126.784 281.13 134.547 281.955 144.127C282.286 147.266 279.973 152.386 276.339 157.837Z" fill="url(#paint43_linear)"/>
<path opacity="0.3" d="M276.339 157.837C275.348 159.323 274.357 160.975 273.201 162.627L265.108 148.091L258.831 136.694C259.822 137.025 271.88 137.19 274.523 145.118C275.679 148.422 276.174 153.377 276.339 157.837Z" fill="url(#paint44_linear)"/>
<path d="M279.808 188.065H272.21C272.21 188.065 271.714 186.413 271.054 183.77C268.411 174.19 262.134 151.891 261.308 150.9C260.317 149.744 231.742 150.239 223.318 147.431C214.729 144.623 218.197 128.932 218.197 128.932L229.099 129.427L235.541 129.758C235.541 129.758 267.09 135.374 272.375 144.128C277.661 152.882 279.643 188.065 279.808 188.065Z" fill="url(#paint45_linear)"/>
<path opacity="0.3" d="M270.889 183.605C268.246 174.025 261.969 151.726 261.143 150.735C260.152 149.579 231.577 150.074 223.153 147.266C214.564 144.458 218.032 128.767 218.032 128.767L228.934 129.262C226.456 131.575 222.657 136.86 225.961 141.65C230.09 147.597 260.317 141.65 263.951 149.579C266.759 155.525 269.567 174.19 270.889 183.605Z" fill="url(#paint46_linear)"/>
<path d="M236.202 84.8297C237.688 84.9948 240.001 84.169 240.496 85.6555C242.644 92.2626 250.077 111.258 245.121 112.91C241.322 114.066 237.523 98.7045 235.706 90.9412C234.385 85.9859 232.403 84.4993 236.202 84.8297Z" fill="#F2BC97"/>
<path d="M242.313 108.78C243.304 107.954 244.791 107.789 246.112 108.285C252.059 110.432 273.036 118.195 273.201 121.003C273.366 124.142 242.479 114.231 241.983 112.579C241.487 111.423 240.827 109.936 242.313 108.78Z" fill="#F2BC97"/>
<path d="M269.237 119.682C269.898 117.7 273.367 119.352 274.523 119.847C276.34 120.838 277.826 123.316 277.331 124.142C277 124.802 272.871 122.325 272.706 122.49C272.541 122.655 274.358 123.976 273.862 124.637C273.367 125.298 270.724 123.811 269.898 122.655C269.072 121.664 268.742 120.838 269.237 119.682Z" fill="#F2BC97"/>
<path d="M237.028 103.164C237.028 103.164 233.724 85.655 239.34 84.8291C245.452 84.0032 246.443 102.173 246.443 102.173L237.028 103.164Z" fill="#FFD53C"/>
<path d="M245.947 126.619C245.782 126.784 245.617 126.784 245.617 126.784C244.791 127.279 243.965 127.61 243.139 127.94C233.889 131.244 218.198 128.766 218.198 128.766C218.363 126.949 218.528 123.646 218.693 120.012C218.858 116.213 218.858 111.753 219.023 107.293C219.354 100.025 219.849 92.5925 220.84 87.6372C221.171 85.8203 221.501 84.664 224.639 83.3426C228.273 81.856 236.367 82.1864 240.331 84.4989C242.644 85.8203 244.791 90.9407 244.461 95.896C244.295 100.851 241.983 102.008 241.818 109.606C241.653 114.726 243.469 120.507 244.791 123.646C245.121 124.637 245.452 125.297 245.617 125.793C245.782 126.454 245.947 126.619 245.947 126.619Z" fill="#FFD53C"/>
<path opacity="0.3" d="M245.947 124.637L245.617 126.124L245.452 126.95L245.121 128.436C245.121 128.436 244.295 128.271 242.974 127.941C237.193 126.785 221.171 123.151 218.693 120.343C218.528 120.177 218.528 120.177 218.363 120.012C218.528 116.213 218.528 111.753 218.693 107.294L223.648 101.678L227.117 103.329L225.465 115.222L244.626 123.977L245.947 124.637Z" fill="url(#paint47_linear)"/>
<path d="M227.943 75.9097C227.943 75.9097 227.943 83.3426 227.943 83.673C227.943 83.673 229.099 86.481 232.403 86.481C235.541 86.481 236.367 83.8382 236.367 83.5078C236.367 83.1775 236.367 79.0481 236.367 79.0481C236.367 79.0481 240.497 80.6998 242.148 79.2132C243.8 77.8918 244.791 76.4052 244.956 71.1196C245.121 65.6688 244.956 62.0349 241.488 60.7135C238.019 59.3921 226.787 56.7493 224.474 62.6956C222.327 68.642 227.943 75.9097 227.943 75.9097Z" fill="#F2BC97"/>
<path d="M236.367 79.0473L232.072 77.3955L236.367 81.3597V79.0473Z" fill="#F2BC97"/>
<path d="M250.737 135.042L253.876 134.877L274.358 134.051L282.947 113.734H282.781L259.657 112.578L253.38 128.435L250.737 135.042ZM269.567 124.471C269.072 125.462 268.081 126.123 267.42 125.792C266.759 125.462 266.429 124.306 266.925 123.315C267.42 122.324 268.411 121.663 269.072 121.993C269.898 122.324 270.063 123.48 269.567 124.471Z" fill="#C7D4F9"/>
<path d="M269.072 121.993C269.732 122.324 270.063 123.48 269.567 124.471C269.072 125.462 268.081 126.123 267.42 125.792C266.759 125.462 266.429 124.306 266.924 123.315C267.42 122.324 268.411 121.663 269.072 121.993Z" fill="white"/>
<path d="M253.38 128.601L250.737 135.043L238.514 128.271L253.38 128.601Z" fill="#A9BDEA"/>
<path d="M250.737 135.042L274.357 134.051L274.192 135.207L250.572 136.033C250.737 136.033 250.902 135.042 250.737 135.042L250.572 136.033L238.184 129.261L238.349 128.27" fill="#C7D4F9"/>
<path d="M225.465 85.3248C226.786 85.9855 227.612 87.4721 227.612 88.9587C227.447 95.8961 226.29 119.681 221.17 119.516C217.206 119.351 219.023 103.659 219.849 95.5657C220.179 90.7756 221.996 83.8382 225.465 85.3248Z" fill="#F2BC97"/>
<path d="M219.684 115.882C220.675 115.056 221.997 114.891 223.318 115.386C228.934 117.368 248.92 124.471 249.086 127.114C249.251 130.087 219.849 121.167 219.519 119.516C219.023 118.359 218.363 117.038 219.684 115.882Z" fill="#F2BC97"/>
<path d="M218.528 113.074C218.528 113.074 218.363 118.195 219.189 119.516C220.014 121.003 227.943 122.82 227.943 122.82C227.943 122.82 221.006 114.891 221.006 114.726C221.006 114.891 218.528 113.074 218.528 113.074Z" fill="#F2BC97"/>
<path d="M245.287 125.627C245.947 123.645 249.251 125.131 250.242 125.792C252.059 126.783 253.38 129.096 253.05 129.756C252.72 130.417 248.755 128.105 248.59 128.27C248.425 128.435 250.077 129.591 249.746 130.252C249.416 130.913 246.773 129.426 245.947 128.435C245.287 127.609 244.956 126.948 245.287 125.627Z" fill="#F2BC97"/>
<path d="M218.198 102.503C218.198 102.503 218.693 83.6733 224.309 84.1688C231.742 84.6643 227.282 103.494 227.282 103.494L218.198 102.503Z" fill="#FFD53C"/>
<path d="M227.943 76.735C227.943 76.735 234.22 75.4136 233.064 71.9449C232.568 70.4583 230.586 66.8244 233.394 66.1637C236.037 65.3378 236.202 73.4315 236.202 73.4315C236.202 73.4315 237.523 66.8244 237.854 66.4941C238.019 66.1637 240.166 62.5298 244.956 65.6682C245.617 66.1637 245.287 55.9228 235.046 55.7576C227.613 55.5924 222.823 59.0611 223.318 65.0075C223.483 70.7886 224.475 73.5966 227.943 76.735Z" fill="url(#paint48_linear)"/>
<path d="M224.144 62.0339C224.144 62.0339 215.555 57.9045 212.251 62.8598C208.948 67.8151 215.555 81.8551 206.801 83.3417C206.801 83.3417 215.72 88.4621 220.18 82.1854C224.64 76.0739 221.997 69.9624 224.64 70.1276" fill="url(#paint49_linear)"/>
<path d="M223.153 61.7051C223.153 61.7051 222.657 66.9907 223.814 70.4594C223.814 70.4594 224.144 71.2853 223.318 71.1201C222.492 71.1201 221.336 63.3568 222.162 61.3747C222.327 61.0444 223.153 61.7051 223.153 61.7051Z" fill="url(#paint50_linear)"/>
<path d="M455.556 129.095C478.362 129.095 496.85 110.607 496.85 87.8009C496.85 64.9948 478.362 46.5068 455.556 46.5068C432.75 46.5068 414.262 64.9948 414.262 87.8009C414.262 110.607 432.75 129.095 455.556 129.095Z" fill="url(#paint51_linear)"/>
<path d="M455.556 120.836C473.801 120.836 488.591 106.046 488.591 87.8009C488.591 69.556 473.801 54.7656 455.556 54.7656C437.311 54.7656 422.521 69.556 422.521 87.8009C422.521 106.046 437.311 120.836 455.556 120.836Z" fill="white"/>
<path d="M455.556 111.586C468.692 111.586 479.342 100.937 479.342 87.801C479.342 74.6647 468.692 64.0156 455.556 64.0156C442.42 64.0156 431.771 74.6647 431.771 87.801C431.771 100.937 442.42 111.586 455.556 111.586Z" fill="url(#paint52_linear)"/>
<path d="M459.141 103.054C467.575 101.062 472.797 92.6105 470.806 84.1765C468.814 75.7424 460.363 70.5197 451.929 72.5112C443.495 74.5027 438.272 82.9543 440.263 91.3884C442.255 99.8224 450.707 105.045 459.141 103.054Z" fill="white"/>
<path d="M448.619 87.8007C448.619 91.5997 451.757 94.7381 455.556 94.7381C459.355 94.7381 462.494 91.5997 462.494 87.8007C462.494 84.0016 459.355 80.8633 455.556 80.8633C451.757 80.8633 448.619 84.0016 448.619 87.8007Z" fill="#FFD53C"/>
<path d="M413.145 43.5498L411.977 44.7178L452.972 85.7132L454.14 84.5452L413.145 43.5498Z" fill="#453BDA"/>
<path d="M456.547 88.1313L455.556 82.8457L451.262 86.9751L456.547 88.1313Z" fill="#453BDA"/>
<path d="M413.436 46.0115L407.82 44.1945L411.289 42.8731L412.776 39.2393L414.593 45.0204L413.436 46.0115Z" fill="#453BDA"/>
<g opacity="0.5">
<path d="M277.992 49.4805V49.8108C277.992 50.6367 277.331 51.4626 276.34 51.4626C275.514 51.4626 274.688 50.8019 274.688 49.8108V49.4805H277.992Z" fill="url(#paint53_linear)"/>
<path d="M270.889 28.0069C269.898 28.0069 269.072 27.181 269.072 26.19C269.072 25.1989 269.898 24.373 270.889 24.373C271.88 24.373 272.706 25.0338 272.706 26.0248C272.706 26.0248 272.706 26.0248 272.706 26.19L272.871 28.0069H270.889Z" fill="url(#paint54_linear)"/>
<path d="M279.148 28.833L277.661 42.0471H275.349L273.862 28.833H279.148Z" fill="url(#paint55_linear)"/>
<path d="M281.956 28.0069H279.974L280.139 26.19V26.0248C280.139 25.0338 280.965 24.373 281.956 24.373C282.947 24.373 283.773 25.1989 283.773 26.19C283.773 27.181 282.947 28.0069 281.956 28.0069Z" fill="url(#paint56_linear)"/>
<path d="M276.67 11.6553H276.34C269.237 11.6553 263.456 17.4364 263.456 24.3738C263.456 31.1461 268.907 35.9362 271.219 41.2218C271.384 41.7173 271.88 41.8825 272.375 41.8825H274.523L273.036 28.6684H270.889C269.567 28.6684 268.411 27.5122 268.411 26.0256C268.411 24.539 269.567 23.3828 271.054 23.3828C272.375 23.3828 273.532 24.3738 273.532 25.6953L273.697 27.6774H279.148L279.313 25.6953C279.478 24.3738 280.469 23.3828 281.79 23.3828C283.277 23.3828 284.433 24.539 284.433 26.0256C284.433 27.347 283.277 28.5032 281.956 28.6684H279.808L278.322 41.8825H280.469C280.964 41.8825 281.295 41.5522 281.625 41.2218C283.938 35.9362 289.388 31.1461 289.388 24.3738C289.388 17.2713 283.607 11.6553 276.67 11.6553ZM287.572 25.3649C287.241 25.3649 287.076 25.1997 287.076 25.0345C286.085 16.9409 278.322 14.1329 278.322 14.1329C278.156 14.1329 277.991 13.8026 277.991 13.6374C277.991 13.4722 278.322 13.307 278.487 13.307C278.487 13.307 286.746 16.2802 287.902 24.8694C287.902 25.0345 287.737 25.1997 287.572 25.3649Z" fill="url(#paint57_linear)"/>
<path d="M280.8 45.1855H272.21C271.715 45.1855 271.385 44.8552 271.385 44.3596V43.6989C271.385 43.2034 271.715 42.873 272.21 42.873H280.8C281.295 42.873 281.625 43.2034 281.625 43.6989V44.3596C281.625 44.8552 281.295 45.1855 280.8 45.1855Z" fill="url(#paint58_linear)"/>
<path d="M280.634 46.0107H272.21C271.88 46.0107 271.55 46.3411 271.55 46.6714V47.6625C271.55 48.6536 272.375 49.4794 273.367 49.4794H279.313C280.304 49.4794 281.13 48.6536 281.13 47.6625V46.6714C281.295 46.1759 280.965 46.0107 280.634 46.0107Z" fill="url(#paint59_linear)"/>
<path d="M286.415 9.67279C286.25 9.67279 286.25 9.67279 286.085 9.67279C285.755 9.50762 285.59 9.01209 285.755 8.68173L289.884 1.08363C290.049 0.753276 290.545 0.5881 290.71 0.753276C291.04 0.918452 291.206 1.41398 291.04 1.57916L286.911 9.17726C286.911 9.67279 286.581 9.67279 286.415 9.67279Z" fill="url(#paint60_linear)"/>
<path d="M293.188 16.6105C293.023 16.6105 292.692 16.4453 292.527 16.2802C292.362 15.9498 292.527 15.6195 292.858 15.4543L296.657 13.307C296.987 13.1418 297.317 13.307 297.482 13.6373C297.648 13.9677 297.482 14.298 297.152 14.4632L293.353 16.6105H293.188Z" fill="url(#paint61_linear)"/>
<path d="M304.42 26.0245H295.665C295.335 26.0245 295.005 25.6942 295.005 25.3638C295.005 25.0335 295.335 24.7031 295.665 24.7031H304.585C304.915 24.7031 305.246 25.0335 305.246 25.3638C305.246 25.6942 304.915 26.0245 304.42 26.0245Z" fill="url(#paint62_linear)"/>
<path d="M296.491 37.4218C296.326 37.4218 296.326 37.4218 296.161 37.2566L292.857 35.2745C292.527 35.1093 292.527 34.6138 292.692 34.2834C292.857 33.9531 293.353 33.9531 293.683 34.1183L296.987 36.1004C297.317 36.2656 297.317 36.7611 297.152 37.0914C296.987 37.2566 296.656 37.4218 296.491 37.4218Z" fill="url(#paint63_linear)"/>
<path d="M276.835 7.19593C276.505 7.19593 276.174 6.86558 276.174 6.53523V2.40582C276.174 2.07547 276.505 1.74512 276.835 1.74512C277.165 1.74512 277.496 2.07547 277.496 2.40582V6.37005C277.496 6.86558 277.331 7.19593 276.835 7.19593Z" fill="url(#paint64_linear)"/>
<path d="M267.585 9.67282C267.42 9.67282 267.09 9.50764 267.09 9.34247L262.3 1.41401C262.134 1.08365 262.134 0.753302 262.465 0.42295C262.795 0.257774 263.126 0.257774 263.456 0.588126L268.246 8.51658C268.411 8.84694 268.411 9.17729 268.081 9.50764C267.916 9.67282 267.75 9.67282 267.585 9.67282Z" fill="url(#paint65_linear)"/>
<path d="M260.648 16.2798C260.483 16.2798 260.483 16.2798 260.318 16.1146L256.353 13.8021C256.023 13.6369 255.858 13.1414 256.188 12.8111C256.353 12.4807 256.849 12.3155 257.179 12.6459L261.143 14.9584C261.474 15.1235 261.639 15.6191 261.309 15.9494C260.978 16.2798 260.813 16.2798 260.648 16.2798Z" fill="url(#paint66_linear)"/>
<path d="M258.17 25.8596C258.17 25.8596 258.005 25.6944 258.17 25.8596L249.912 24.5382C249.581 24.5382 249.251 24.2078 249.416 23.7123C249.416 23.382 249.746 23.0516 250.242 23.2168L258.336 24.5382C258.666 24.5382 258.996 24.8685 258.831 25.3641C258.666 25.5293 258.501 25.8596 258.17 25.8596Z" fill="url(#paint67_linear)"/>
<path d="M256.849 37.0917C256.518 37.0917 256.353 36.9265 256.188 36.7613C256.023 36.431 256.188 36.1006 256.518 35.9354L260.317 34.1185C260.648 33.9533 260.978 34.1185 261.143 34.4489C261.309 34.7792 261.143 35.1096 260.813 35.2747L257.014 37.0917C257.179 37.0917 257.014 37.0917 256.849 37.0917Z" fill="url(#paint68_linear)"/>
<path d="M277.661 42.0479H278.487H277.661ZM274.523 42.0479L275.349 42.213V42.0479H274.523Z" fill="url(#paint69_linear)"/>
<path d="M287.902 24.87C287.902 25.0351 287.737 25.3655 287.572 25.3655C287.406 25.3655 287.241 25.2003 287.241 25.0351C286.25 16.9415 278.487 14.1335 278.487 14.1335C278.322 14.1335 278.156 13.8031 278.156 13.638C278.156 13.4728 278.487 13.3076 278.652 13.3076C278.652 13.3076 286.911 16.2808 287.902 24.87Z" fill="white"/>
</g>
<path d="M127.846 35.7702L156.587 13.8018L177.73 30.1543L204.984 7.85547" stroke="#DAE3EF" stroke-width="0.5" stroke-miterlimit="10"/>
<path d="M131.15 35.7703C131.15 37.5873 129.663 39.0738 127.846 39.0738C126.029 39.0738 124.543 37.5873 124.543 35.7703C124.543 33.9534 126.029 32.4668 127.846 32.4668C129.663 32.4668 131.15 34.1186 131.15 35.7703Z" fill="#214F95"/>
<path d="M159.56 14.9588C159.56 16.7757 158.073 18.2623 156.256 18.2623C154.439 18.2623 152.953 16.7757 152.953 14.9588C152.953 13.1419 154.439 11.6553 156.256 11.6553C158.073 11.6553 159.56 13.1419 159.56 14.9588Z" fill="#214F95"/>
<path d="M181.033 30.1551C181.033 31.972 179.546 33.4586 177.73 33.4586C175.913 33.4586 174.426 31.972 174.426 30.1551C174.426 28.3381 175.913 26.8516 177.73 26.8516C179.546 26.8516 181.033 28.3381 181.033 30.1551Z" fill="#214F95"/>
<path d="M208.287 7.85626C208.287 9.6732 206.801 11.1598 204.984 11.1598C203.167 11.1598 201.68 9.6732 201.68 7.85626C201.68 6.03932 203.167 4.55273 204.984 4.55273C206.801 4.55273 208.287 6.03932 208.287 7.85626Z" fill="#214F95"/>
<defs>
<linearGradient id="paint0_linear" x1="311.12" y1="113.609" x2="311.12" y2="417.031" gradientUnits="userSpaceOnUse">
<stop stop-color="#E9EEF4"/>
<stop offset="1" stop-color="#C2CAF7"/>
</linearGradient>
<linearGradient id="paint1_linear" x1="352.313" y1="92.551" x2="244.389" y2="127.928" gradientUnits="userSpaceOnUse">
<stop stop-color="#E9EEF4"/>
<stop offset="1" stop-color="#C2CAF7"/>
</linearGradient>
<linearGradient id="paint2_linear" x1="1726.82" y1="11800.3" x2="1965.3" y2="11800.3" gradientUnits="userSpaceOnUse">
<stop stop-color="#A26ACA"/>
<stop offset="1" stop-color="#9468B4"/>
</linearGradient>
<linearGradient id="paint3_linear" x1="912.233" y1="11701.9" x2="1029.25" y2="11701.9" gradientUnits="userSpaceOnUse">
<stop stop-color="#A26ACA"/>
<stop offset="1" stop-color="#9468B4"/>
</linearGradient>
<linearGradient id="paint4_linear" x1="2125.13" y1="8000.89" x2="2425.8" y2="8000.89" gradientUnits="userSpaceOnUse">
<stop stop-color="#A26ACA"/>
<stop offset="1" stop-color="#9468B4"/>
</linearGradient>
<linearGradient id="paint5_linear" x1="1997.58" y1="8221.15" x2="2271.47" y2="8221.15" gradientUnits="userSpaceOnUse">
<stop stop-color="#A26ACA"/>
<stop offset="1" stop-color="#9468B4"/>
</linearGradient>
<linearGradient id="paint6_linear" x1="1869.31" y1="8201.8" x2="2124.08" y2="8201.8" gradientUnits="userSpaceOnUse">
<stop stop-color="#A26ACA"/>
<stop offset="1" stop-color="#9468B4"/>
</linearGradient>
<linearGradient id="paint7_linear" x1="2011.85" y1="7963.97" x2="2295.62" y2="7963.97" gradientUnits="userSpaceOnUse">
<stop stop-color="#A26ACA"/>
<stop offset="1" stop-color="#9468B4"/>
</linearGradient>
<linearGradient id="paint8_linear" x1="1820.85" y1="3225.62" x2="2010.76" y2="3225.62" gradientUnits="userSpaceOnUse">
<stop stop-color="#A26ACA"/>
<stop offset="1" stop-color="#9468B4"/>
</linearGradient>
<linearGradient id="paint9_linear" x1="1778.36" y1="3007.66" x2="1962.03" y2="3007.66" gradientUnits="userSpaceOnUse">
<stop stop-color="#A26ACA"/>
<stop offset="1" stop-color="#9468B4"/>
</linearGradient>
<linearGradient id="paint10_linear" x1="1856.56" y1="3220.18" x2="2045.86" y2="3220.18" gradientUnits="userSpaceOnUse">
<stop stop-color="#A26ACA"/>
<stop offset="1" stop-color="#9468B4"/>
</linearGradient>
<linearGradient id="paint11_linear" x1="1824.82" y1="3001.26" x2="2009.42" y2="3001.26" gradientUnits="userSpaceOnUse">
<stop stop-color="#A26ACA"/>
<stop offset="1" stop-color="#9468B4"/>
</linearGradient>
<linearGradient id="paint12_linear" x1="1548.42" y1="4711.22" x2="1697.49" y2="4711.22" gradientUnits="userSpaceOnUse">
<stop stop-color="#A26ACA"/>
<stop offset="1" stop-color="#9468B4"/>
</linearGradient>
<linearGradient id="paint13_linear" x1="1496.16" y1="4619.92" x2="1637.59" y2="4619.92" gradientUnits="userSpaceOnUse">
<stop stop-color="#A26ACA"/>
<stop offset="1" stop-color="#9468B4"/>
</linearGradient>
<linearGradient id="paint14_linear" x1="1582.66" y1="4717.98" x2="1732.35" y2="4717.98" gradientUnits="userSpaceOnUse">
<stop stop-color="#A26ACA"/>
<stop offset="1" stop-color="#9468B4"/>
</linearGradient>
<linearGradient id="paint15_linear" x1="1558.02" y1="4671.66" x2="1704.04" y2="4671.66" gradientUnits="userSpaceOnUse">
<stop stop-color="#A26ACA"/>
<stop offset="1" stop-color="#9468B4"/>
</linearGradient>
<linearGradient id="paint16_linear" x1="316.557" y1="408.509" x2="316.557" y2="388.739" gradientUnits="userSpaceOnUse">
<stop offset="0.0326633" stop-color="#214F95"/>
<stop offset="1" stop-color="#0E408C"/>
</linearGradient>
<linearGradient id="paint17_linear" x1="15017.3" y1="20852.5" x2="17180.1" y2="20852.5" gradientUnits="userSpaceOnUse">
<stop stop-color="#A26ACA"/>
<stop offset="1" stop-color="#9468B4"/>
</linearGradient>
<linearGradient id="paint18_linear" x1="122.121" y1="253.878" x2="510.99" y2="253.878" gradientUnits="userSpaceOnUse">
<stop offset="0.0326633" stop-color="#214F95"/>
<stop offset="1" stop-color="#0E408C"/>
</linearGradient>
<linearGradient id="paint19_linear" x1="251.272" y1="410.337" x2="381.842" y2="410.337" gradientUnits="userSpaceOnUse">
<stop offset="0.0326633" stop-color="#214F95"/>
<stop offset="1" stop-color="#0E408C"/>
</linearGradient>
<linearGradient id="paint20_linear" x1="205.278" y1="255.424" x2="273.914" y2="255.424" gradientUnits="userSpaceOnUse">
<stop stop-color="#E9EEF4"/>
<stop offset="1" stop-color="#C2CAF7"/>
</linearGradient>
<linearGradient id="paint21_linear" x1="284.42" y1="255.573" x2="339.548" y2="255.573" gradientUnits="userSpaceOnUse">
<stop stop-color="#E9EEF4"/>
<stop offset="1" stop-color="#C2CAF7"/>
</linearGradient>
<linearGradient id="paint22_linear" x1="349.656" y1="255.573" x2="429.197" y2="255.573" gradientUnits="userSpaceOnUse">
<stop stop-color="#E9EEF4"/>
<stop offset="1" stop-color="#C2CAF7"/>
</linearGradient>
<linearGradient id="paint23_linear" x1="425.865" y1="252.604" x2="223.97" y2="252.604" gradientUnits="userSpaceOnUse">
<stop offset="0.0326633" stop-color="#214F95"/>
<stop offset="1" stop-color="#0E408C"/>
</linearGradient>
<linearGradient id="paint24_linear" x1="425.864" y1="252.755" x2="223.971" y2="252.755" gradientUnits="userSpaceOnUse">
<stop offset="0.0326633" stop-color="#214F95"/>
<stop offset="1" stop-color="#0E408C"/>
</linearGradient>
<linearGradient id="paint25_linear" x1="425.864" y1="252.755" x2="223.971" y2="252.755" gradientUnits="userSpaceOnUse">
<stop offset="0.0326633" stop-color="#214F95"/>
<stop offset="1" stop-color="#0E408C"/>
</linearGradient>
<linearGradient id="paint26_linear" x1="6232.08" y1="6238.11" x2="7133.93" y2="6238.11" gradientUnits="userSpaceOnUse">
<stop stop-color="#A26ACA"/>
<stop offset="1" stop-color="#9468B4"/>
</linearGradient>
<linearGradient id="paint27_linear" x1="0.774314" y1="177.031" x2="97.8591" y2="177.031" gradientUnits="userSpaceOnUse">
<stop stop-color="#E9EEF4"/>
<stop offset="1" stop-color="#C2CAF7"/>
</linearGradient>
<linearGradient id="paint28_linear" x1="572.254" y1="227.384" x2="627.541" y2="227.384" gradientUnits="userSpaceOnUse">
<stop stop-color="#E9EEF4"/>
<stop offset="1" stop-color="#C2CAF7"/>
</linearGradient>
<linearGradient id="paint29_linear" x1="591.766" y1="227.383" x2="608.029" y2="227.383" gradientUnits="userSpaceOnUse">
<stop stop-color="#E9EEF4"/>
<stop offset="1" stop-color="#C2CAF7"/>
</linearGradient>
<linearGradient id="paint30_linear" x1="4263.02" y1="3294.15" x2="4882.01" y2="3294.15" gradientUnits="userSpaceOnUse">
<stop stop-color="#A26ACA"/>
<stop offset="1" stop-color="#9468B4"/>
</linearGradient>
<linearGradient id="paint31_linear" x1="25.8351" y1="414.436" x2="585.977" y2="414.436" gradientUnits="userSpaceOnUse">
<stop offset="0.0326633" stop-color="#214F95"/>
<stop offset="1" stop-color="#0E408C"/>
</linearGradient>
<linearGradient id="paint32_linear" x1="226.734" y1="414.889" x2="138.01" y2="414.889" gradientUnits="userSpaceOnUse">
<stop offset="0.0326633" stop-color="#214F95"/>
<stop offset="1" stop-color="#0E408C"/>
</linearGradient>
<linearGradient id="paint33_linear" x1="247.642" y1="431.713" x2="233.304" y2="431.713" gradientUnits="userSpaceOnUse">
<stop offset="0.0326633" stop-color="#214F95"/>
<stop offset="1" stop-color="#0E408C"/>
</linearGradient>
<linearGradient id="paint34_linear" x1="242.263" y1="446.694" x2="223.49" y2="446.694" gradientUnits="userSpaceOnUse">
<stop offset="0.0326633" stop-color="#214F95"/>
<stop offset="1" stop-color="#0E408C"/>
</linearGradient>
<linearGradient id="paint35_linear" x1="230.933" y1="412.867" x2="130.749" y2="412.867" gradientUnits="userSpaceOnUse">
<stop offset="0.0326633" stop-color="#214F95"/>
<stop offset="1" stop-color="#0E408C"/>
</linearGradient>
<linearGradient id="paint36_linear" x1="172.648" y1="322.808" x2="146.407" y2="322.808" gradientUnits="userSpaceOnUse">
<stop offset="0.0326633" stop-color="#214F95"/>
<stop offset="1" stop-color="#0E408C"/>
</linearGradient>
<linearGradient id="paint37_linear" x1="448.258" y1="350.981" x2="508.158" y2="350.981" gradientUnits="userSpaceOnUse">
<stop offset="0.0326633" stop-color="#214F95"/>
<stop offset="1" stop-color="#0E408C"/>
</linearGradient>
<linearGradient id="paint38_linear" x1="516.464" y1="606.63" x2="521.974" y2="606.63" gradientUnits="userSpaceOnUse">
<stop stop-color="#A26ACA"/>
<stop offset="1" stop-color="#9468B4"/>
</linearGradient>
<linearGradient id="paint39_linear" x1="499.216" y1="579.18" x2="504.188" y2="579.18" gradientUnits="userSpaceOnUse">
<stop stop-color="#A26ACA"/>
<stop offset="1" stop-color="#9468B4"/>
</linearGradient>
<linearGradient id="paint40_linear" x1="528.852" y1="606.63" x2="534.362" y2="606.63" gradientUnits="userSpaceOnUse">
<stop stop-color="#A26ACA"/>
<stop offset="1" stop-color="#9468B4"/>
</linearGradient>
<linearGradient id="paint41_linear" x1="273.624" y1="193.85" x2="285.271" y2="193.85" gradientUnits="userSpaceOnUse">
<stop offset="0.0326633" stop-color="#214F95"/>
<stop offset="1" stop-color="#0E408C"/>
</linearGradient>
<linearGradient id="paint42_linear" x1="244.39" y1="190.232" x2="254.172" y2="190.232" gradientUnits="userSpaceOnUse">
<stop offset="0.0326633" stop-color="#214F95"/>
<stop offset="1" stop-color="#0E408C"/>
</linearGradient>
<linearGradient id="paint43_linear" x1="2294.98" y1="5224.48" x2="2595.1" y2="5224.48" gradientUnits="userSpaceOnUse">
<stop stop-color="#A26ACA"/>
<stop offset="1" stop-color="#9468B4"/>
</linearGradient>
<linearGradient id="paint44_linear" x1="929.276" y1="2317.48" x2="1026.62" y2="2317.48" gradientUnits="userSpaceOnUse">
<stop stop-color="#A26ACA"/>
<stop offset="1" stop-color="#9468B4"/>
</linearGradient>
<linearGradient id="paint45_linear" x1="2603.23" y1="5101.67" x2="2949.63" y2="5101.67" gradientUnits="userSpaceOnUse">
<stop stop-color="#A26ACA"/>
<stop offset="1" stop-color="#9468B4"/>
</linearGradient>
<linearGradient id="paint46_linear" x1="2267.84" y1="4740.36" x2="2565.57" y2="4740.36" gradientUnits="userSpaceOnUse">
<stop stop-color="#A26ACA"/>
<stop offset="1" stop-color="#9468B4"/>
</linearGradient>
<linearGradient id="paint47_linear" x1="218.524" y1="115.108" x2="246.01" y2="115.108" gradientUnits="userSpaceOnUse">
<stop stop-color="#FFC13C"/>
<stop offset="0.9472" stop-color="#FFA93C"/>
</linearGradient>
<linearGradient id="paint48_linear" x1="222.909" y1="66.0976" x2="244.834" y2="66.0976" gradientUnits="userSpaceOnUse">
<stop offset="0.0326633" stop-color="#214F95"/>
<stop offset="1" stop-color="#0E408C"/>
</linearGradient>
<linearGradient id="paint49_linear" x1="206.772" y1="72.8726" x2="224.559" y2="72.8726" gradientUnits="userSpaceOnUse">
<stop offset="0.0326633" stop-color="#214F95"/>
<stop offset="1" stop-color="#0E408C"/>
</linearGradient>
<linearGradient id="paint50_linear" x1="221.865" y1="66.1964" x2="223.864" y2="66.1964" gradientUnits="userSpaceOnUse">
<stop offset="0.0376884" stop-color="#FFCE3C"/>
<stop offset="1" stop-color="#FFBD3C"/>
</linearGradient>
<linearGradient id="paint51_linear" x1="3576.74" y1="6991.67" x2="4035.93" y2="6991.67" gradientUnits="userSpaceOnUse">
<stop stop-color="#A26ACA"/>
<stop offset="1" stop-color="#9468B4"/>
</linearGradient>
<linearGradient id="paint52_linear" x1="2253.36" y1="4064.43" x2="2517.85" y2="4064.43" gradientUnits="userSpaceOnUse">
<stop stop-color="#A26ACA"/>
<stop offset="1" stop-color="#9468B4"/>
</linearGradient>
<linearGradient id="paint53_linear" x1="276.446" y1="4.31308" x2="276.446" y2="47.4721" gradientUnits="userSpaceOnUse">
<stop stop-color="#E9EEF4"/>
<stop offset="1" stop-color="#C2CAF7"/>
</linearGradient>
<linearGradient id="paint54_linear" x1="271.032" y1="4.31255" x2="271.032" y2="47.4723" gradientUnits="userSpaceOnUse">
<stop stop-color="#E9EEF4"/>
<stop offset="1" stop-color="#C2CAF7"/>
</linearGradient>
<linearGradient id="paint55_linear" x1="276.45" y1="4.31326" x2="276.45" y2="47.4717" gradientUnits="userSpaceOnUse">
<stop stop-color="#E9EEF4"/>
<stop offset="1" stop-color="#C2CAF7"/>
</linearGradient>
<linearGradient id="paint56_linear" x1="281.86" y1="4.31255" x2="281.86" y2="47.4723" gradientUnits="userSpaceOnUse">
<stop stop-color="#E9EEF4"/>
<stop offset="1" stop-color="#C2CAF7"/>
</linearGradient>
<linearGradient id="paint57_linear" x1="276.442" y1="4.31402" x2="276.442" y2="47.4724" gradientUnits="userSpaceOnUse">
<stop stop-color="#E9EEF4"/>
<stop offset="1" stop-color="#C2CAF7"/>
</linearGradient>
<linearGradient id="paint58_linear" x1="276.446" y1="4.31415" x2="276.446" y2="47.4717" gradientUnits="userSpaceOnUse">
<stop stop-color="#E9EEF4"/>
<stop offset="1" stop-color="#C2CAF7"/>
</linearGradient>
<linearGradient id="paint59_linear" x1="276.446" y1="4.31266" x2="276.446" y2="47.4709" gradientUnits="userSpaceOnUse">
<stop stop-color="#E9EEF4"/>
<stop offset="1" stop-color="#C2CAF7"/>
</linearGradient>
<linearGradient id="paint60_linear" x1="288.475" y1="4.31365" x2="288.475" y2="47.472" gradientUnits="userSpaceOnUse">
<stop stop-color="#E9EEF4"/>
<stop offset="1" stop-color="#C2CAF7"/>
</linearGradient>
<linearGradient id="paint61_linear" x1="295.02" y1="4.31397" x2="295.02" y2="47.4725" gradientUnits="userSpaceOnUse">
<stop stop-color="#E9EEF4"/>
<stop offset="1" stop-color="#C2CAF7"/>
</linearGradient>
<linearGradient id="paint62_linear" x1="300.047" y1="4.31327" x2="300.047" y2="47.4709" gradientUnits="userSpaceOnUse">
<stop stop-color="#E9EEF4"/>
<stop offset="1" stop-color="#C2CAF7"/>
</linearGradient>
<linearGradient id="paint63_linear" x1="294.893" y1="4.3137" x2="294.893" y2="47.4711" gradientUnits="userSpaceOnUse">
<stop stop-color="#E9EEF4"/>
<stop offset="1" stop-color="#C2CAF7"/>
</linearGradient>
<linearGradient id="paint64_linear" x1="276.904" y1="4.31443" x2="276.904" y2="47.4725" gradientUnits="userSpaceOnUse">
<stop stop-color="#E9EEF4"/>
<stop offset="1" stop-color="#C2CAF7"/>
</linearGradient>
<linearGradient id="paint65_linear" x1="265.238" y1="4.31368" x2="265.238" y2="47.4717" gradientUnits="userSpaceOnUse">
<stop stop-color="#E9EEF4"/>
<stop offset="1" stop-color="#C2CAF7"/>
</linearGradient>
<linearGradient id="paint66_linear" x1="258.63" y1="4.31358" x2="258.63" y2="47.4718" gradientUnits="userSpaceOnUse">
<stop stop-color="#E9EEF4"/>
<stop offset="1" stop-color="#C2CAF7"/>
</linearGradient>
<linearGradient id="paint67_linear" x1="254.046" y1="4.31237" x2="254.046" y2="47.4724" gradientUnits="userSpaceOnUse">
<stop stop-color="#E9EEF4"/>
<stop offset="1" stop-color="#C2CAF7"/>
</linearGradient>
<linearGradient id="paint68_linear" x1="258.852" y1="4.31245" x2="258.852" y2="47.4719" gradientUnits="userSpaceOnUse">
<stop stop-color="#E9EEF4"/>
<stop offset="1" stop-color="#C2CAF7"/>
</linearGradient>
<linearGradient id="paint69_linear" x1="276.442" y1="4.30764" x2="276.442" y2="47.4735" gradientUnits="userSpaceOnUse">
<stop stop-color="#E9EEF4"/>
<stop offset="1" stop-color="#C2CAF7"/>
</linearGradient>
</defs>
</svg>
