<svg width="704" height="688" viewBox="0 0 704 688" fill="none" xmlns="http://www.w3.org/2000/svg">
<path d="M587.059 537.85C587.059 537.85 640.742 449.646 621.581 382.254C620.755 379.281 619.764 376.473 618.608 373.5C616.461 369.205 615.47 364.91 615.305 360.781C615.139 356.652 615.635 352.522 616.791 348.558C620.425 338.813 625.38 328.902 631.822 320.148C633.97 317.175 636.282 314.367 638.76 311.724C664.197 282.653 665.683 236.569 630.336 212.783C612.662 201.716 592.015 207.332 575.002 215.426C571.533 217.078 568.395 218.729 565.256 220.546C552.868 225.337 539.489 229.466 525.614 232.274C520.989 233.265 516.364 233.926 511.739 234.586C467.472 239.046 427.83 216.747 394.96 192.136C391.986 190.65 389.013 189.163 385.875 188.007C370.018 182.06 350.858 181.234 324.925 191.145C241.841 222.694 266.948 301.813 168.668 294.876C70.3883 287.938 69.7276 380.767 95.4951 424.209C121.428 467.485 149.343 511.587 131.008 531.573C112.508 551.56 275.372 537.52 287.925 538.841C300.314 540.328 587.059 537.85 587.059 537.85Z" fill="url(#paint0_linear)" fill-opacity="0.1"/>
<path opacity="0.3" d="M435.758 190.815C438.401 199.074 448.807 205.186 455.744 209.15C469.289 216.748 485.971 221.043 501.333 217.904C510.583 216.087 519.667 212.453 528.257 208.654C541.14 202.873 560.631 199.239 567.238 184.704C572.854 172.481 554.189 170.333 546.756 169.177C518.841 164.387 487.128 160.258 459.048 166.7C450.624 168.682 440.383 172.481 436.584 180.905C434.932 184.704 434.932 187.842 435.758 190.815Z" fill="url(#paint1_linear)"/>
<path d="M174.615 530.086C176.101 539.997 173.954 552.715 173.293 556.514C173.128 557.175 173.128 557.671 173.128 557.671L165.53 545.117C163.217 539.832 154.133 519.845 151.82 507.127C149.508 494.408 142.736 484.167 142.405 477.725C142.24 471.283 152.646 467.65 155.289 454.601C158.097 441.552 163.548 420.244 166.851 420.905C167.017 420.905 167.347 421.07 167.512 421.235C170.485 424.373 172.798 445.186 175.771 450.636C178.909 456.418 187.664 463.52 180.891 471.779C174.119 480.038 177.753 489.948 183.864 498.703C190.306 507.622 172.798 518.359 174.615 530.086Z" fill="url(#paint2_linear)"/>
<path opacity="0.3" d="M174.614 530.086C176.101 539.996 173.954 552.715 173.293 556.514C157.932 491.765 167.016 420.904 167.016 420.904L167.677 421.235C170.65 424.373 172.963 445.185 175.936 450.636C179.074 456.417 187.829 463.52 181.056 471.779C174.284 480.037 177.918 489.948 184.03 498.702C190.306 507.622 172.798 518.358 174.614 530.086Z" fill="url(#paint3_linear)"/>
<path d="M158.427 543.135C155.784 543.795 152.316 543.3 148.021 541.318C145.544 540.161 144.718 526.452 140.093 524.304C135.468 522.322 132.164 515.88 130.678 509.108C129.191 502.501 115.481 499.693 113.004 492.425C110.361 485.158 118.124 480.037 117.629 473.43C117.133 466.823 111.517 457.243 115.647 452.948C119.776 448.654 126.879 463.685 130.843 466.823C134.642 469.961 142.075 473.265 140.093 478.881C138.111 484.497 140.919 493.747 154.133 498.867C165.199 503.327 173.293 539.666 158.427 543.135Z" fill="url(#paint4_linear)"/>
<path d="M214.752 491.104C209.962 497.546 200.713 491.434 196.583 497.876C192.454 504.318 196.253 513.898 192.454 520.175C188.655 526.286 183.865 527.773 179.074 529.755C174.284 531.737 173.624 540.491 172.963 542.639C172.963 542.639 172.963 542.639 172.963 542.804C172.963 542.804 167.512 531.572 169.825 524.304C172.302 517.201 170.155 507.126 171.476 500.684C172.798 494.242 178.249 490.773 180.065 484.331C181.717 477.89 189.315 473.099 193.114 464.841C196.913 456.582 211.284 447.332 216.404 449.149C216.404 449.149 216.569 449.149 216.569 449.314C221.36 451.296 216.239 464.015 212.605 468.805C208.971 473.43 219.543 484.662 214.752 491.104Z" fill="url(#paint5_linear)"/>
<path opacity="0.3" d="M214.752 491.104C209.962 497.546 200.712 491.435 196.583 497.877C192.454 504.318 196.253 513.899 192.454 520.175C188.655 526.287 183.864 527.773 179.074 529.756C174.284 531.738 173.623 540.492 172.963 542.639C170.815 527.608 181.882 505.475 191.132 485.653C200.547 465.667 213.431 452.123 216.569 448.984C221.359 450.966 216.239 463.685 212.605 468.475C208.971 473.43 219.542 484.662 214.752 491.104Z" fill="url(#paint6_linear)"/>
<path opacity="0.3" d="M158.427 543.135C152.976 520.671 144.387 509.935 138.771 501.511C132.495 492.261 115.481 453.114 115.481 453.114C119.611 448.82 126.713 463.851 130.678 466.989C134.477 470.127 141.91 473.431 139.928 479.047C137.945 484.663 140.753 493.913 153.968 499.033C165.199 503.328 173.293 539.667 158.427 543.135Z" fill="url(#paint7_linear)"/>
<path d="M604.403 522.324C604.238 522.655 604.072 522.82 603.742 522.82H603.577C597.465 522.655 586.729 491.271 571.368 493.088C571.202 493.088 571.037 493.088 570.872 493.088C570.872 493.088 585.573 486.151 593.006 489.95C604.568 496.061 606.22 518.525 604.403 522.324Z" fill="url(#paint8_linear)"/>
<path opacity="0.3" d="M604.403 522.324C604.238 522.655 604.073 522.82 603.742 522.82H603.577C597.466 522.655 586.729 491.271 571.368 493.088C571.368 493.088 588.381 486.316 596.309 500.191C601.595 509.11 603.577 517.369 604.403 522.324Z" fill="url(#paint9_linear)"/>
<path d="M604.898 541.815C604.898 541.815 604.733 541.815 604.898 541.815C604.733 541.815 604.568 541.65 604.568 541.485C604.568 540.989 607.376 495.731 582.93 492.262C582.765 492.262 582.6 492.097 582.6 491.767C582.6 491.602 582.765 491.437 583.095 491.437C608.367 494.905 605.394 540.824 605.394 541.32C605.229 541.65 605.064 541.815 604.898 541.815Z" fill="#627AF4"/>
<path d="M644.871 503.989C629.179 501.677 618.442 533.225 612.331 533.556C612.166 533.556 612.166 533.556 612.001 533.556C611.835 533.556 611.835 533.556 611.67 533.391C609.523 531.078 610.844 506.962 622.902 500.851C630.005 497.217 644.045 503.659 644.871 503.989Z" fill="url(#paint10_linear)"/>
<path opacity="0.3" d="M644.706 503.989C629.179 501.677 618.278 533.226 612.166 533.556C612.001 533.556 612.001 533.556 611.836 533.556C611.671 533.556 611.671 533.556 611.506 533.391C612.497 527.94 614.479 516.873 620.921 508.945C629.675 498.373 643.715 503.659 644.706 503.989Z" fill="url(#paint11_linear)"/>
<path d="M611.01 552.55C610.845 552.55 610.68 552.385 610.68 552.22C610.68 551.725 607.706 505.806 632.978 502.337C633.144 502.337 633.309 502.502 633.474 502.667C633.474 502.832 633.309 502.998 633.144 503.163C608.532 506.466 611.34 551.89 611.506 552.385C611.34 552.385 611.175 552.55 611.01 552.55Z" fill="#627AF4"/>
<path d="M605.889 501.842C605.889 502.007 605.889 502.007 605.889 502.007C605.889 502.007 605.889 502.007 605.724 501.842C604.403 500.686 597.3 493.914 593.997 478.057C589.207 456.088 580.783 451.133 580.287 450.803L579.792 450.472C579.957 450.472 580.122 450.472 580.287 450.307C592.18 448.16 601.099 453.941 604.568 467.651C608.037 483.012 606.055 499.86 605.889 501.842Z" fill="url(#paint12_linear)"/>
<path opacity="0.3" d="M605.559 501.842C604.238 500.686 597.135 493.914 593.832 478.057C589.042 456.088 580.618 451.133 580.122 450.803C580.948 450.968 596.64 454.106 600.934 472.276C604.073 485.82 605.229 496.887 605.559 501.842Z" fill="url(#paint13_linear)"/>
<path d="M607.376 550.403C607.211 550.403 607.046 550.238 607.046 550.073V549.743C607.376 540.658 609.193 464.016 587.72 454.766C587.555 454.601 587.39 454.436 587.555 454.271C587.72 454.106 587.885 453.94 588.05 454.106C609.523 463.521 608.202 534.877 607.706 549.908V550.073C607.872 550.238 607.706 550.403 607.376 550.403Z" fill="#627AF4"/>
<path d="M636.612 460.879L636.117 461.209C636.117 461.209 627.197 465.834 622.407 488.463C618.773 505.476 610.845 512.083 610.349 512.414C610.349 512.414 610.349 512.249 610.349 511.918C610.019 508.78 608.367 492.758 612.001 478.222C615.304 464.182 624.554 458.401 636.612 460.879Z" fill="url(#paint14_linear)"/>
<path opacity="0.3" d="M636.612 460.879L636.117 461.209C636.117 461.209 627.197 465.834 622.407 488.463C618.773 505.476 610.845 512.084 610.349 512.414C610.349 512.414 610.349 512.249 610.349 511.918C612.827 489.785 616.791 478.883 620.26 472.111C624.72 463.522 636.612 460.879 636.612 460.879Z" fill="url(#paint15_linear)"/>
<path d="M608.532 551.23C608.367 551.23 608.202 551.065 608.202 550.9C608.037 526.454 609.689 472.441 628.023 464.348C628.188 464.348 628.354 464.348 628.519 464.513C628.684 464.678 628.519 464.843 628.354 465.008C610.349 472.937 608.698 526.619 608.863 550.9C608.863 551.065 608.698 551.23 608.532 551.23Z" fill="#627AF4"/>
<path d="M414.615 509.439H334.505V531.903H414.615V509.439Z" fill="url(#paint16_linear)"/>
<path d="M569.055 274.889V501.346C569.055 506.796 564.595 511.256 559.145 511.256H189.976C184.525 511.256 180.065 506.796 180.065 501.346V274.889C180.065 269.438 184.525 264.979 189.976 264.979H558.979C564.595 264.979 569.055 269.438 569.055 274.889Z" fill="url(#paint17_linear)"/>
<path d="M569.055 274.889V488.792H180.065V274.889C180.065 269.438 184.525 264.979 189.976 264.979H558.979C564.595 264.979 569.055 269.438 569.055 274.889Z" fill="url(#paint18_linear)"/>
<path d="M559.475 274.889H189.646V478.386H559.475V274.889Z" fill="white"/>
<path d="M439.887 536.858H309.398V536.198C309.398 532.729 312.206 529.756 315.84 529.756H433.61C437.079 529.756 440.052 532.564 440.052 536.198V536.858H439.887Z" fill="url(#paint19_linear)"/>
<path d="M558.979 294.875H189.976V458.399H558.979V294.875Z" fill="#DAE3EF"/>
<path d="M298.662 342.611C315.344 342.611 327.898 352.026 332.027 367.223H313.197C310.224 361.276 304.938 358.138 298.497 358.138C287.925 358.138 280.823 365.901 280.823 378.289C280.823 390.678 288.09 398.441 298.497 398.441C304.938 398.441 310.224 395.468 313.197 389.356H332.027C328.063 404.552 315.344 413.802 298.662 413.802C278.015 413.802 263.314 399.102 263.314 378.124C263.314 357.477 277.849 342.611 298.662 342.611Z" fill="url(#paint20_linear)"/>
<path d="M371.174 343.437C388.352 343.437 396.942 353.347 396.942 365.57C396.942 374.324 392.151 382.748 381.415 385.887L397.602 413.636H378.277L363.741 387.043H359.612V413.636H342.433V343.437H371.174ZM370.183 357.642H359.612V374.985H370.183C376.625 374.985 379.598 371.682 379.598 366.231C379.598 361.11 376.46 357.642 370.183 357.642Z" fill="url(#paint21_linear)"/>
<path d="M407.678 343.437H427.829L447.485 391.998L466.976 343.437H487.128V413.636H469.949V371.516L454.258 413.636H440.383L424.526 371.351V413.636H407.348V343.437H407.678Z" fill="url(#paint22_linear)"/>
<path d="M295.854 339.803C312.536 339.803 325.09 349.218 329.219 364.414H310.389C307.416 358.468 302.13 355.329 295.688 355.329C285.117 355.329 278.015 363.093 278.015 375.481C278.015 387.869 285.282 395.632 295.688 395.632C302.13 395.632 307.416 392.659 310.389 386.548H329.219C325.255 401.744 312.536 410.994 295.854 410.994C275.207 410.994 260.506 396.293 260.506 375.316C260.506 354.669 275.041 339.803 295.854 339.803Z" fill="url(#paint23_linear)"/>
<path d="M368.366 340.629C385.544 340.629 394.133 350.539 394.133 362.763C394.133 371.517 389.343 379.941 378.607 383.079L394.794 410.829H375.468L360.933 384.235H356.804V410.829H339.625V340.629H368.366ZM367.375 354.834H356.804V372.178H367.375C373.817 372.178 376.79 368.874 376.79 363.423C376.79 358.303 373.652 354.834 367.375 354.834Z" fill="url(#paint24_linear)"/>
<path d="M404.87 340.629H425.021L444.677 389.191L464.168 340.629H484.32V410.829H467.141V368.709L451.45 410.829H437.575L421.718 368.544V410.829H404.87V340.629Z" fill="url(#paint25_linear)"/>
<path d="M237.877 253.416H82.2808C80.4639 253.416 78.9773 251.93 78.9773 250.113V183.217C78.9773 181.4 80.4639 179.913 82.2808 179.913H237.877C239.694 179.913 241.18 181.4 241.18 183.217V250.113C241.18 251.93 239.694 253.416 237.877 253.416Z" fill="url(#paint26_linear)"/>
<path d="M104.249 227.484H94.3389V244.498H104.249V227.484Z" fill="#FFD53C"/>
<path d="M124.566 209.48H114.656V244.498H124.566V209.48Z" fill="#F4F4F4"/>
<path d="M144.718 219.226H134.807V244.498H144.718V219.226Z" fill="#FFD53C"/>
<path d="M165.034 204.855H155.124V244.498H165.034V204.855Z" fill="#F4F4F4"/>
<path d="M185.351 194.614H175.44V244.497H185.351V194.614Z" fill="#FFD53C"/>
<path d="M205.502 200.561H195.592V244.497H205.502V200.561Z" fill="#F4F4F4"/>
<path d="M225.819 213.278H215.908V244.331H225.819V213.278Z" fill="#FFD53C"/>
<g opacity="0.5">
<path d="M139.597 294.71C139.597 294.215 139.597 293.719 139.597 293.224C139.597 284.139 132.164 276.706 123.079 276.706C115.646 276.706 109.37 281.496 107.387 288.268C107.057 288.268 106.562 288.268 106.231 288.268C103.258 288.268 100.615 289.259 98.468 291.076C95.9903 289.755 93.3475 288.929 90.3743 288.929C82.4459 288.929 75.8388 294.545 74.1871 301.813C73.196 301.482 72.0398 301.317 71.0487 301.317C64.2765 301.317 58.8257 306.768 58.8257 313.54C58.8257 317.67 60.8078 321.138 63.781 323.451H68.4059H78.1513H78.812H100.285H111.352H120.767H128.035H142.24H150.498C153.802 320.478 155.784 316.183 155.784 311.228C155.784 302.308 148.682 294.875 139.597 294.71Z" fill="url(#paint27_linear)"/>
<path d="M111.187 309.907V318.661H103.588V309.907H97.9724L107.387 297.684L116.637 309.907H111.187Z" fill="white"/>
</g>
<g opacity="0.5">
<path d="M628.684 263.658L631.492 247.636C631.657 246.645 630.831 245.984 629.84 246.149L597.466 252.922C596.475 253.087 596.144 254.243 596.64 254.904L605.724 268.448C606.055 268.944 606.55 269.109 607.046 268.944L627.528 264.649C628.188 264.484 628.519 264.154 628.684 263.658ZM609.689 277.037C607.376 277.533 605.724 279.845 606.22 282.323C606.715 284.635 609.028 286.287 611.506 285.792C613.818 285.296 615.47 282.984 614.974 280.506C614.479 278.194 612.001 276.542 609.689 277.037ZM626.206 273.569C623.894 274.064 622.242 276.377 622.738 278.854C623.233 281.167 625.546 282.818 628.023 282.323C630.336 281.827 631.987 279.515 631.492 277.037C630.996 274.56 628.684 273.073 626.206 273.569ZM630.005 266.962L605.724 272.082C605.229 272.247 604.733 271.917 604.403 271.586L587.72 248.957C587.39 248.462 586.894 248.297 586.399 248.462L574.341 250.939C573.515 251.105 573.02 251.93 573.185 252.756C573.35 253.582 574.176 254.078 575.002 253.913L585.243 251.765C585.738 251.6 586.234 251.93 586.564 252.261L603.082 275.055C603.412 275.551 603.907 275.716 604.403 275.551L630.501 270.1C631.327 269.935 631.822 269.109 631.657 268.283C631.657 267.457 630.831 266.796 630.005 266.962Z" fill="white"/>
</g>
<g opacity="0.5">
<path d="M630.335 346.741V354.504C630.335 355.33 630.996 356.156 631.987 356.156H634.96C635.291 356.156 635.621 356.486 635.786 356.816C636.447 358.964 637.273 360.946 638.429 362.763L635.951 365.24C635.291 365.901 635.291 366.892 635.951 367.553L641.402 373.004C642.063 373.664 643.054 373.664 643.715 373.004L646.192 370.526C648.174 371.682 650.487 372.673 652.799 373.169V376.638C652.799 377.464 653.46 378.289 654.451 378.289H662.214C663.04 378.289 663.866 377.629 663.866 376.638V372.839C666.179 372.178 668.491 371.352 670.473 370.031L672.951 372.508C673.612 373.169 674.603 373.169 675.263 372.508L680.714 367.057C681.375 366.397 681.375 365.406 680.714 364.745L678.732 362.763C678.402 362.432 678.402 362.102 678.567 361.772C679.558 360.12 680.219 358.303 680.714 356.321C680.879 355.991 681.21 355.66 681.54 355.66H684.348C685.174 355.66 686 355 686 354.008V346.245C686 345.419 685.339 344.593 684.348 344.593H681.375C681.045 344.593 680.714 344.263 680.549 343.933C680.053 342.116 679.228 340.299 678.237 338.647C678.071 338.317 678.071 337.821 678.402 337.656L680.384 335.674C681.045 335.013 681.045 334.022 680.384 333.361L674.933 327.911C674.272 327.25 673.281 327.25 672.621 327.911L670.143 330.388C668.326 329.232 666.344 328.406 664.197 327.911C663.866 327.745 663.536 327.415 663.536 327.085V324.277C663.536 323.451 662.875 322.625 661.884 322.625H654.121C653.295 322.625 652.469 323.286 652.469 324.277V327.25C652.469 327.58 652.139 327.911 651.808 328.076C649.991 328.571 648.174 329.397 646.523 330.388C646.192 330.553 645.697 330.553 645.532 330.223L643.55 328.241C642.889 327.58 641.898 327.58 641.237 328.241L635.786 333.692C635.126 334.353 635.126 335.344 635.786 336.004L637.768 337.986C638.099 338.317 638.099 338.647 637.934 338.977C636.943 340.629 636.282 342.446 635.786 344.428C635.621 344.759 635.291 345.089 634.96 345.089H632.152C630.996 345.089 630.335 345.915 630.335 346.741ZM646.853 343.602C647.844 341.785 649.331 340.299 650.982 339.308C663.206 332.701 675.429 345.089 668.987 357.147C667.996 358.964 666.509 360.45 664.692 361.441C652.634 367.883 640.411 355.66 646.853 343.602Z" fill="url(#paint28_linear)"/>
<path d="M657.92 342.28C662.38 342.28 666.014 345.914 666.014 350.374C666.014 354.834 662.38 358.468 657.92 358.468C653.46 358.468 649.826 354.834 649.826 350.374C649.826 345.914 653.46 342.28 657.92 342.28Z" fill="url(#paint29_linear)"/>
</g>
<g opacity="0.5">
<path d="M402.558 214.766C401.897 214.435 401.236 214.27 400.741 214.27C390.004 213.609 384.553 223.355 387.857 230.953L377.286 237.23L378.772 239.707L389.344 233.431C392.977 238.056 399.419 239.377 404.705 236.404C412.468 231.779 412.964 219.721 402.558 214.766ZM407.348 228.971C402.723 239.377 388.848 235.743 389.674 224.511C389.674 224.181 389.839 223.85 389.839 223.52C394.464 213.114 408.339 216.748 407.513 227.98C407.513 228.31 407.513 228.64 407.348 228.971Z" fill="white"/>
</g>
<path d="M166.851 397.616H60.4776C59.1562 397.616 58 396.46 58 395.138V363.755C58 362.434 59.1562 361.277 60.4776 361.277H166.851C168.173 361.277 169.329 362.434 169.329 363.755V395.138C169.329 396.46 168.173 397.616 166.851 397.616Z" fill="url(#paint30_linear)"/>
<path d="M78.9774 372.178L80.9595 376.142C80.9595 376.307 81.1247 376.307 81.2899 376.473L85.5844 377.133C85.9148 377.133 86.08 377.629 85.9148 377.959L82.7764 380.932C82.6113 381.098 82.6113 381.263 82.6113 381.263L83.272 385.557C83.272 385.888 82.9416 386.218 82.6113 386.053L78.8122 384.071C78.647 384.071 78.4819 384.071 78.3167 384.071L74.5176 386.053C74.1873 386.218 73.8569 385.888 73.8569 385.557L74.5176 381.098C74.5176 380.932 74.5176 380.767 74.3525 380.767L71.2141 377.629C70.8838 377.298 71.0489 376.968 71.5445 376.803L75.839 376.142C76.0042 376.142 76.1694 375.977 76.1694 375.812L78.1515 371.848C78.3167 371.848 78.8122 371.848 78.9774 372.178Z" fill="#FFD53C"/>
<path d="M96.4859 372.177L98.468 376.142C98.468 376.307 98.6332 376.307 98.7984 376.472L103.093 377.133C103.423 377.133 103.589 377.628 103.423 377.959L100.285 380.932C100.12 381.097 100.12 381.262 100.12 381.262L100.781 385.557C100.781 385.887 100.45 386.217 100.12 386.052L96.3208 384.07C96.1556 384.07 95.9904 384.07 95.8252 384.07L92.0262 386.052C91.6958 386.217 91.3655 385.887 91.3655 385.557L92.0262 381.262C92.0262 381.097 92.0262 380.932 91.861 380.932L88.7227 377.959C88.3923 377.628 88.5575 377.298 89.053 377.133L93.3476 376.472C93.5128 376.472 93.6779 376.307 93.6779 376.142L95.66 372.177C95.8252 371.847 96.3208 371.847 96.4859 372.177Z" fill="#FFD53C"/>
<path d="M113.995 372.177L115.977 376.142C115.977 376.307 116.142 376.307 116.307 376.472L120.602 377.133C120.932 377.133 121.097 377.628 120.932 377.959L117.794 380.932C117.629 381.097 117.629 381.262 117.629 381.262L118.289 385.557C118.289 385.887 117.959 386.217 117.629 386.052L113.83 384.07C113.664 384.07 113.499 384.07 113.334 384.07L109.535 386.052C109.205 386.217 108.874 385.887 108.874 385.557L109.535 381.262C109.535 381.097 109.535 380.932 109.37 380.932L106.231 377.959C105.901 377.628 106.066 377.298 106.562 377.133L110.856 376.472C111.022 376.472 111.187 376.307 111.187 376.142L113.169 372.177C113.334 371.847 113.83 371.847 113.995 372.177Z" fill="#FFD53C"/>
<path d="M131.669 372.177L133.651 376.142C133.651 376.307 133.816 376.307 133.981 376.472L138.276 377.133C138.606 377.133 138.771 377.628 138.606 377.959L135.468 380.932C135.302 381.097 135.302 381.262 135.302 381.262L135.963 385.557C135.963 385.887 135.633 386.217 135.302 386.052L131.503 384.07C131.338 384.07 131.173 384.07 131.008 384.07L127.209 386.052C126.878 386.217 126.548 385.887 126.548 385.557L127.209 381.262C127.209 381.097 127.209 380.932 127.044 380.932L123.905 377.959C123.575 377.628 123.74 377.298 124.236 377.133L128.53 376.472C128.695 376.472 128.861 376.307 128.861 376.142L130.843 372.177C131.008 371.847 131.503 371.847 131.669 372.177Z" fill="#FFD53C"/>
<path d="M149.177 372.177L151.159 376.142C151.159 376.307 151.325 376.307 151.49 376.472L155.784 377.133C156.115 377.133 156.28 377.628 156.115 377.959L152.976 380.932C152.811 381.097 152.811 381.262 152.811 381.262L153.472 385.557C153.472 385.887 153.142 386.217 152.811 386.052L149.012 384.07C148.847 384.07 148.682 384.07 148.517 384.07L144.718 386.052C144.387 386.217 144.057 385.887 144.057 385.557L144.718 381.262C144.718 381.097 144.718 380.932 144.552 380.932L141.414 377.959C141.084 377.628 141.249 377.298 141.744 377.133L146.039 376.472C146.204 376.472 146.369 376.307 146.369 376.142L148.351 372.177C148.517 371.847 149.012 371.847 149.177 372.177Z" fill="#FFD53C"/>
<path d="M643.88 536.364H83.7676V563.618H643.88V536.364Z" fill="white" fill-opacity="0.1"/>
<path d="M643.88 536.364H83.7676V538.346H643.88V536.364Z" fill="url(#paint31_linear)"/>
<path d="M283.796 560.974L286.934 563.947L283.301 569.563L278.51 565.599L283.796 560.974Z" fill="#F2BC97"/>
<path d="M196.748 516.872C200.217 523.479 212.11 526.452 222.186 527.939C230.61 529.095 238.042 529.26 238.703 529.26C240.355 529.591 247.623 541.649 253.239 547.43C258.689 553.211 278.345 566.425 278.345 566.425L284.457 560.974C284.457 560.974 260.176 531.242 252.578 523.809C245.145 516.377 224.828 510.926 224.828 510.926C224.828 510.926 190.307 504.649 196.748 516.872Z" fill="url(#paint32_linear)"/>
<path opacity="0.3" d="M212.44 515.715L222.185 527.938C230.609 529.094 238.042 529.259 238.703 529.259C240.355 529.59 247.622 541.648 253.238 547.429C258.689 553.21 278.345 566.424 278.345 566.424L284.457 560.973C274.051 562.955 272.729 560.147 264.47 553.21C256.377 546.273 250.596 530.911 246.136 527.443C241.841 523.974 231.27 522.157 230.774 520.175C230.279 518.193 235.399 516.706 235.399 516.706L227.801 515.55L212.44 515.715Z" fill="#7B8BFF"/>
<path d="M287.761 552.386L292.386 553.046L291.56 560.149L285.448 559.158L287.761 552.386Z" fill="#F2BC97"/>
<path d="M292.22 552.881C292.22 552.881 294.533 553.046 295.028 552.881C295.359 552.716 303.617 547.761 304.609 547.761C304.774 547.761 305.6 547.761 305.6 547.926C305.765 549.908 303.122 561.14 302.296 561.47C301.47 561.801 291.229 560.149 291.229 560.149L292.22 552.881Z" fill="url(#paint33_linear)"/>
<path d="M286.604 563.122C286.604 563.122 288.421 564.774 288.752 564.774C289.082 564.939 298.662 565.93 299.488 566.426C299.488 566.426 300.314 567.086 300.149 567.251C299.158 568.903 290.238 576.171 289.247 576.006C288.256 575.841 281.319 568.242 281.319 568.242L286.604 563.122Z" fill="url(#paint34_linear)"/>
<path d="M189.315 528.6C193.445 542.64 236.721 541.979 236.721 541.979C236.721 541.979 245.475 548.256 254.725 552.716C264.14 557.01 287.265 559.818 287.265 559.818L288.917 551.559C273.555 547.595 246.797 529.095 243.493 527.444C241.511 526.453 229.618 521.332 220.038 517.203C214.422 514.725 209.632 512.743 208.146 512.082C207.815 511.917 207.65 511.917 207.65 511.917C207.65 511.917 207.32 511.917 206.659 512.082C202.53 512.743 185.516 516.212 189.315 528.6Z" fill="url(#paint35_linear)"/>
<path opacity="0.3" d="M189.315 528.6C193.445 542.64 236.721 541.979 236.721 541.979C236.721 541.979 245.475 548.256 254.725 552.716C264.14 557.01 287.265 559.818 287.265 559.818L288.917 551.559C282.475 559.488 276.694 556.184 264.14 552.881C251.587 549.577 239.694 537.85 237.382 537.189C235.069 536.528 231.766 536.198 219.047 535.702C206.329 535.372 196.583 531.077 196.583 527.444C196.418 523.975 203.025 522.323 206.329 520.671C209.797 519.02 220.699 517.698 220.699 517.698L220.203 516.872L216.9 512.247L208.311 511.917H206.989C202.529 512.743 185.516 516.212 189.315 528.6Z" fill="#7B8BFF"/>
<path d="M219.708 465.338C221.359 465.503 222.516 466.659 223.176 468.146C225.654 474.753 233.417 497.217 228.627 499.364C223.011 501.842 217.23 481.525 216.404 475.414C215.578 470.293 215.908 465.008 219.708 465.338Z" fill="#F2BC97"/>
<path d="M222.681 465.668C222.681 465.668 225.819 467.32 227.141 473.762C228.462 480.203 234.904 514.56 234.904 514.56C234.904 514.56 222.02 517.038 221.69 514.725C221.525 512.578 222.681 465.668 222.681 465.668Z" fill="#FFD53C"/>
<path opacity="0.5" d="M225.654 482.682L230.279 515.882L221.029 513.57L225.654 482.682Z" fill="#FFD53C"/>
<path d="M192.453 466.493C190.802 466.328 189.315 467.154 188.489 468.641C184.69 474.587 172.467 494.904 176.762 498.042C181.717 501.511 191.628 482.846 193.775 477.23C195.592 472.275 196.253 466.989 192.453 466.493Z" fill="#F2BC97"/>
<path d="M202.364 481.856C203.355 481.691 204.511 482.517 204.677 483.673C204.842 484.664 205.007 486.976 205.007 488.628C205.007 492.592 205.172 496.392 203.851 497.052C202.529 497.713 201.208 495.235 200.712 491.271C200.382 487.637 199.061 483.177 199.886 482.517C200.382 482.186 201.538 482.021 202.364 481.856Z" fill="#F2BC97"/>
<path d="M227.801 516.376L219.542 515.55L207.319 515.055L205.833 515.22L202.034 513.733L193.114 512.742L190.636 512.412V511.751C190.636 511.751 190.636 510.595 190.471 508.778C190.471 507.457 190.306 505.805 190.306 503.988C190.141 499.528 189.811 493.747 189.811 488.131C189.645 479.707 189.645 471.613 190.306 468.64C191.793 461.703 202.859 463.189 202.859 463.189L216.074 464.181C216.074 464.181 223.176 464.015 224.332 467.154C225.489 470.953 227.801 516.376 227.801 516.376Z" fill="white"/>
<path d="M188.985 523.151L190.967 522.49L208.145 517.369C208.31 511.753 208.641 495.071 208.806 488.133C208.806 487.638 208.806 487.307 208.806 486.812C208.145 470.79 202.529 463.026 202.529 463.026C202.529 463.026 191.628 461.54 189.976 468.477C189.315 471.45 189.315 479.544 189.48 487.968C189.646 493.584 189.811 499.365 189.976 503.825C190.141 505.642 190.141 507.294 190.141 508.615C190.306 510.432 190.306 511.588 190.306 511.588L188.985 523.151Z" fill="#FFD53C"/>
<path opacity="0.5" d="M188.985 523.149L190.967 522.489C193.775 510.761 191.958 503.658 191.628 498.208C190.967 489.288 193.775 482.516 193.94 482.186L189.646 487.802C189.646 487.802 189.646 487.967 189.646 488.132C189.811 493.748 189.976 499.529 190.141 503.989C190.306 505.806 190.306 507.458 190.306 508.779C190.471 510.596 190.471 511.752 190.471 511.752L188.985 523.149Z" fill="#FFD53C"/>
<path opacity="0.5" d="M206.163 512.743V514.065C206.163 514.726 206.163 515.386 206.163 515.386L202.034 513.735L190.306 508.944C190.306 507.623 190.141 505.971 190.141 504.154C195.262 506.797 206.163 512.413 206.163 512.743Z" fill="#FFD53C"/>
<path d="M177.092 496.887C177.092 498.208 178.083 499.364 179.239 500.19C185.021 503.659 205.998 516.047 208.31 514.395C211.118 512.413 181.717 493.088 180.065 493.913C178.744 494.409 176.927 494.739 177.092 496.887Z" fill="#F2BC97"/>
<path d="M205.998 511.257C205.998 511.257 208.476 510.431 211.118 510.762C212.935 511.092 215.578 513.735 215.248 514.891C215.083 516.047 213.926 515.717 211.779 514.561C209.632 513.404 209.797 515.552 207.815 515.056C205.668 514.561 205.337 513.404 205.337 513.404" fill="#F2BC97"/>
<path d="M202.364 463.356C207.485 467.98 214.918 464.677 215.578 464.347C212.936 463.521 212.936 460.052 212.936 460.052C217.23 461.043 220.699 452.124 221.36 450.141C222.02 448.159 224.333 440.726 214.752 439.57C205.337 438.414 205.172 449.811 205.007 454.271C205.007 458.731 202.034 462.86 202.364 463.356Z" fill="#F2BC97"/>
<path d="M205.172 455.593C205.172 455.593 201.869 439.075 209.632 436.762C216.735 434.615 218.882 438.084 222.516 442.709C226.15 447.334 230.775 447.994 230.775 447.994C230.775 447.994 223.672 452.95 219.212 449.811C215.413 447.169 211.119 446.012 210.458 448.325C209.797 450.472 210.458 452.785 209.632 452.785C208.806 452.785 208.311 448.82 207.319 449.646C205.998 450.307 208.311 454.767 205.172 455.593Z" fill="url(#paint36_linear)"/>
<path d="M209.467 459.062C209.467 459.062 210.623 463.852 215.578 464.347C212.936 463.521 212.936 460.053 212.936 460.053C212.936 460.053 210.953 459.887 209.467 459.062Z" fill="#E5AD88"/>
<path d="M193.279 464.678C193.279 464.678 188.82 465.504 184.69 473.432C180.561 481.361 173.128 493.418 176.101 498.374C179.074 503.329 197.904 510.762 197.904 510.762L201.043 506.632C201.043 506.632 185.021 495.4 185.021 494.905C185.021 494.575 192.784 482.847 192.784 482.847L193.279 464.678Z" fill="#FFD53C"/>
<path d="M220.203 487.967C219.873 476.239 216.074 465.503 215.743 464.181V464.016H215.909C216.239 464.016 223.176 463.851 224.333 466.989C225.819 470.623 227.966 514.23 227.966 516.047V516.212L219.542 515.386H219.377V515.221C219.873 509.274 220.368 495.73 220.203 488.132C220.203 488.297 220.203 488.132 220.203 487.967Z" fill="#FFD53C"/>
<path d="M215.909 464.182L222.185 478.056L221.525 480.039L222.516 482.021L220.203 488.958V487.967C219.873 476.239 216.074 465.503 215.743 464.182H215.909Z" fill="#FFD53C"/>
<path d="M221.524 518.525C221.689 518.359 243.327 516.708 243.327 516.708L251.256 495.896C251.586 495.896 229.948 496.391 229.948 496.391L221.524 518.359V518.525Z" fill="#C7D4F9"/>
<path d="M221.524 518.525C221.689 518.359 243.327 516.708 243.327 516.708L251.256 495.896C250.595 497.217 240.685 517.534 222.185 518.194C222.02 518.194 221.855 518.194 221.524 518.194V518.525Z" fill="#C7D4F9"/>
<path d="M205.502 517.699L221.524 518.525L222.02 517.203L222.681 515.717L205.667 514.726V516.212L205.502 517.699Z" fill="#B9C8FC"/>
<path d="M229.948 496.391H229.288L220.864 518.524H221.524L229.948 496.391Z" fill="#B9C8FC"/>
<path d="M205.502 517.698L221.359 518.524L221.855 517.203C217.725 517.038 208.475 516.377 205.502 516.212V517.698Z" fill="#B9C8FC"/>
<path d="M245.475 511.092C245.475 511.092 242.172 510.101 241.676 512.413C241.181 514.726 243.658 515.717 243.658 515.717C243.658 515.717 245.806 512.744 245.475 511.092Z" fill="#F2BC97"/>
<path d="M238.538 507.127C238.207 507.953 237.381 508.613 236.555 508.283C235.895 507.953 235.564 507.127 235.895 506.136C236.225 505.31 237.051 504.649 237.877 504.979C238.703 505.31 238.868 506.301 238.538 507.127Z" fill="white"/>
<path d="M525.119 376.307C523.632 376.637 522.476 377.793 522.146 379.28C520.329 385.722 514.713 407.36 519.338 409.011C524.789 410.828 528.753 391.338 529.083 385.556C529.579 380.601 528.753 375.646 525.119 376.307Z" fill="#F2BC97"/>
<path d="M524.954 375.481C524.954 375.481 521.981 377.133 520.659 383.08C519.338 389.191 513.391 421.566 513.391 421.566C513.391 421.566 525.449 423.878 525.78 421.731C526.11 419.583 524.954 375.481 524.954 375.481Z" fill="#FFD53C"/>
<path opacity="0.5" d="M522.146 391.503L517.851 422.721L526.605 420.574L522.146 391.503Z" fill="#FFD53C"/>
<path d="M553.529 375.15C555.016 375.481 556.007 376.637 556.502 378.124C558.154 384.565 563.109 406.534 558.484 407.855C552.868 409.507 549.565 389.851 549.4 384.07C549.069 379.28 550.06 374.324 553.529 375.15Z" fill="#F2BC97"/>
<path d="M544.114 390.677C543.123 390.512 542.132 391.338 541.967 392.494C541.802 393.32 541.636 395.633 541.636 397.119C541.636 400.918 541.471 404.552 542.793 405.048C544.114 405.708 545.27 403.396 545.766 399.597C546.096 396.128 547.253 391.999 546.427 391.338C545.931 391.008 545.105 390.842 544.114 390.677Z" fill="#F2BC97"/>
<path d="M520.164 423.217L526.936 424.869H539.159L540.976 422.226L544.61 420.739L553.034 419.913L555.346 419.748V419.253C555.346 419.253 555.346 418.262 555.511 416.445C555.511 415.288 555.676 413.637 555.676 411.82C555.842 407.69 556.007 402.239 556.172 396.789C556.337 388.86 556.337 381.262 555.676 378.454C554.19 371.847 543.949 373.334 543.949 373.334L531.396 374.159C531.396 374.159 524.623 373.994 523.467 376.967C522.311 380.271 520.164 423.217 520.164 423.217Z" fill="white"/>
<path d="M534.699 427.677C538.333 428.337 540.81 432.467 539.984 436.431C539.324 439.735 537.176 447.333 535.029 452.618C529.744 465.502 525.449 477.725 520.163 478.221C514.878 478.716 513.391 469.136 517.19 455.922C520.659 444.029 521.98 428.337 525.779 427.181C527.761 426.52 531.56 427.016 534.699 427.677Z" fill="#F2BC97"/>
<path d="M544.444 426.356C547.913 425.86 551.547 428.833 552.208 432.798C552.868 435.936 553.529 443.864 553.529 449.48C553.364 463.19 554.024 475.909 549.399 478.056C544.94 480.203 540.15 471.779 538.828 458.235C537.672 446.012 533.377 430.981 536.351 428.668C538.002 427.677 541.471 426.851 544.444 426.356Z" fill="#F2BC97"/>
<path d="M517.686 471.944C527.596 469.962 516.364 515.716 511.905 524.801C507.445 533.885 507.445 527.444 508.932 510.926C510.583 494.243 513.887 472.605 517.686 471.944Z" fill="#F2BC97"/>
<path d="M506.95 518.194L505.958 530.747H511.079L514.713 517.698L506.95 518.194Z" fill="#F2BC97"/>
<path d="M505.793 526.949C505.793 526.949 503.811 529.426 499.186 532.73C494.561 535.868 493.405 535.207 493.405 536.364C493.24 537.685 511.739 537.19 511.739 537.19L512.235 526.783C512.4 526.783 505.958 526.618 505.793 526.949Z" fill="#234F70"/>
<path d="M546.757 472.936C554.685 466.494 563.605 512.909 563.605 523.149C563.605 533.39 558.485 516.047 552.703 500.355C546.922 484.829 543.619 475.579 546.757 472.936Z" fill="#F2BC97"/>
<path d="M557.493 517.864L562.449 529.261L567.074 527.114L564.1 513.734L557.493 517.864Z" fill="#F2BC97"/>
<path d="M560.632 525.958C560.632 525.958 559.476 528.931 556.337 533.556C553.034 538.181 551.712 537.685 552.043 539.007C552.373 540.163 569.716 533.721 569.716 533.721L566.743 523.811C566.743 523.811 560.632 525.793 560.632 525.958Z" fill="#234F70"/>
<path d="M566.082 519.349L562.118 521.001L558.484 522.488C558.484 522.488 543.288 484.497 541.306 478.881C539.489 473.265 536.02 453.279 536.02 453.279L523.797 480.203C521.32 500.354 514.547 521.332 514.217 521.992C514.217 521.992 510.748 521.662 508.436 521.331C507.28 521.166 506.289 521.001 506.289 521.001C506.289 521.001 510.418 482.845 511.739 472.935C513.061 463.024 522.311 425.529 522.311 425.529L550.225 426.355H552.208C556.502 438.248 553.694 475.247 553.694 475.247C559.806 486.314 566.082 519.349 566.082 519.349Z" fill="url(#paint37_linear)"/>
<path d="M562.283 520.836C564.761 513.073 561.458 508.118 560.301 504.649C559.145 500.85 558.319 495.564 557.163 489.123C556.007 482.681 551.547 479.542 551.051 475.248C550.391 470.953 551.877 458.235 552.042 452.949C552.208 447.829 551.877 441.717 551.382 435.44C550.721 429.164 546.757 427.181 546.757 427.181L550.06 426.19H552.042C556.337 438.083 553.529 475.083 553.529 475.083C559.971 485.984 566.248 519.019 566.248 519.019L562.283 520.836Z" fill="#E8E9EA"/>
<path d="M552.538 427.511H521.98C521.815 427.511 521.65 427.346 521.65 427.181V424.868C521.65 424.703 521.815 424.538 521.98 424.538H552.538C552.703 424.538 552.868 424.703 552.868 424.868V427.181C552.868 427.346 552.703 427.511 552.538 427.511Z" fill="#214F95"/>
<path d="M537.177 427.677H536.846C536.681 427.677 536.516 427.512 536.516 427.346V424.373C536.516 424.208 536.681 424.043 536.846 424.043H537.177C537.342 424.043 537.507 424.208 537.507 424.373V427.346C537.507 427.512 537.342 427.677 537.177 427.677Z" fill="url(#paint38_linear)"/>
<path d="M523.632 427.677H523.137C522.971 427.677 522.971 427.511 522.971 427.511V424.538C522.971 424.373 523.137 424.373 523.137 424.373H523.632C523.797 424.373 523.797 424.538 523.797 424.538V427.511C523.962 427.511 523.797 427.677 523.632 427.677Z" fill="url(#paint39_linear)"/>
<path d="M549.565 427.677H549.234C549.069 427.677 548.904 427.512 548.904 427.346V424.373C548.904 424.208 549.069 424.043 549.234 424.043H549.565C549.73 424.043 549.895 424.208 549.895 424.373V427.346C549.73 427.512 549.73 427.677 549.565 427.677Z" fill="url(#paint40_linear)"/>
<path d="M536.351 453.114L523.797 480.203C521.32 500.355 514.548 521.332 514.217 521.993C514.217 521.993 510.749 521.662 508.436 521.332C516.034 517.698 515.208 513.073 517.025 505.971C519.172 497.547 521.155 483.672 521.65 479.212C522.146 474.752 534.864 447.333 534.864 447.333L536.351 453.114Z" fill="#E8E9EA"/>
<path d="M556.337 396.624V396.789C556.337 399.597 556.172 402.405 556.172 405.048C556.172 407.36 556.007 409.673 555.842 411.489C555.842 411.655 555.842 411.655 555.842 411.82C555.842 413.472 555.842 414.628 555.676 415.784C555.676 416.445 555.676 416.94 555.511 417.436C555.511 418.427 555.511 419.418 555.511 420.244C555.676 422.887 555.676 428.998 553.364 431.311C552.703 431.971 547.583 430.65 543.619 429.659C542.132 429.163 540.811 428.833 539.819 428.503C538.994 428.172 538.498 427.512 538.498 426.52C538.498 423.878 538.828 419.418 538.828 416.94C538.828 416.114 538.828 415.123 538.994 414.132C539.159 408.186 539.654 401.083 539.985 395.798C541.306 378.454 544.114 373.169 544.114 373.169C544.114 373.169 554.52 371.682 555.842 378.289C556.502 381.097 556.502 388.695 556.337 396.624Z" fill="#FFD53C"/>
<path opacity="0.5" d="M554.024 414.628C554.024 414.628 555.016 415.619 552.208 416.61C549.565 417.601 541.967 420.244 542.132 420.244C542.132 420.079 554.024 414.628 554.024 414.628Z" fill="#FFD53C"/>
<path opacity="0.5" d="M555.511 417.436C555.511 418.427 555.511 419.418 555.511 420.244C555.676 422.887 555.676 428.998 553.364 431.311C552.703 431.972 547.583 430.65 543.618 429.659C545.766 429.99 549.234 430.485 551.217 429.99C554.355 429.164 554.355 422.722 554.19 419.749C554.024 416.775 554.024 413.802 554.024 413.802C554.024 413.802 554.85 412.976 555.676 411.985C555.676 413.637 555.676 414.793 555.511 415.95C555.676 416.445 555.676 417.106 555.511 417.436Z" fill="#FFD53C"/>
<path d="M531.726 374.16C531.396 373.995 524.789 373.995 523.632 376.803C522.476 379.941 520.659 411.985 520.329 420.905C520.329 422.391 520.329 424.208 520.164 426.025C520.164 426.025 520.164 426.025 520.164 426.19C520.164 426.686 520.329 430.65 520.824 430.98C521.65 431.641 526.11 428.998 527.762 428.007C528.092 427.842 528.422 427.346 528.422 426.851L528.257 422.391V422.226C527.927 416.61 528.422 404.222 528.918 397.119C529.248 391.338 531.396 374.655 531.726 374.16Z" fill="#FFD53C"/>
<path opacity="0.5" d="M558.815 402.075C558.815 402.075 557.493 403.562 556.007 405.213C554.19 407.196 552.042 409.673 551.877 409.673C551.712 409.838 538.828 417.271 538.828 417.271L538.663 417.106C538.663 416.28 538.663 415.289 538.828 414.298C541.636 412.316 549.73 406.37 551.547 404.553C553.859 402.405 553.033 390.513 553.033 390.513L556.172 396.955L558.815 402.075Z" fill="#FFD53C"/>
<path d="M544.114 373.169C544.444 372.838 541.636 368.874 541.471 364.745C541.306 360.45 541.306 349.714 532.221 350.87C523.302 352.026 525.449 358.963 526.11 360.78C526.771 362.597 530.074 371.021 534.203 370.195C534.203 370.195 534.038 373.334 531.726 374.16C531.726 373.994 538.994 377.793 544.114 373.169Z" fill="#F2BC97"/>
<path d="M561.622 406.699C561.622 408.021 560.797 409.177 559.64 409.838C554.19 413.141 534.368 424.869 532.056 423.217C529.413 421.4 557.163 403.065 558.815 403.891C559.971 404.222 561.622 404.552 561.622 406.699Z" fill="#F2BC97"/>
<path d="M534.369 420.245C534.369 420.245 532.056 419.419 529.579 419.914C527.762 420.245 525.449 422.722 525.614 423.713C525.78 424.704 526.936 424.539 528.918 423.383C531.065 422.227 530.735 424.209 532.717 423.878C534.699 423.383 535.029 422.392 535.029 422.392" fill="#F2BC97"/>
<path d="M552.703 374.49C552.703 374.49 557.658 376.142 559.641 382.749C562.118 390.843 564.761 404.883 563.274 408.021C560.962 412.976 542.297 419.914 542.297 419.914L539.489 414.958C539.489 414.958 554.52 404.387 554.52 404.057C554.52 403.726 553.199 391.669 553.199 391.669L552.703 374.49Z" fill="#FFD53C"/>
<path d="M539.985 414.298C540.15 414.298 543.288 419.584 543.288 419.584L542.132 420.244H541.967L538.828 415.289V415.124C538.994 414.959 539.654 414.133 539.985 414.298Z" fill="white"/>
<path d="M540.48 354.173C540.315 353.678 539.985 353.017 539.82 352.522C538.829 350.54 537.507 348.557 535.36 348.392C533.708 348.227 532.056 349.218 530.57 349.879C528.092 351.035 525.119 351.2 522.476 350.54C521.32 350.209 520.164 349.714 519.007 350.044C517.521 350.374 516.365 351.861 516.034 353.348C515.373 355.66 516.365 358.468 518.347 359.955C520.329 361.441 523.137 361.772 525.284 360.615C526.771 359.789 528.422 359.129 530.074 358.798C530.9 358.633 531.891 358.633 532.717 359.129C533.378 359.624 533.873 360.45 534.204 361.111C534.534 361.772 534.864 362.928 535.69 363.258C536.516 363.589 536.351 362.432 536.351 361.937C536.186 361.111 536.186 360.285 536.02 359.459C536.02 358.964 535.69 357.973 536.186 357.642H536.351C537.177 357.477 537.837 357.973 538.333 358.468C539.489 359.789 538.994 361.772 539.324 363.423C539.654 364.58 540.315 366.727 541.802 366.397C542.462 366.231 542.462 365.24 542.462 364.58C542.462 363.589 542.628 362.597 542.462 361.606C542.462 360.615 542.132 359.624 541.967 358.633C541.636 357.147 541.141 355.66 540.48 354.173Z" fill="#214F95"/>
<path d="M498.36 403.892L505.958 423.548C505.958 423.548 526.44 425.199 526.605 425.365L518.512 404.387C518.346 404.387 498.03 403.892 498.36 403.892Z" fill="#C7D4F9"/>
<path d="M541.471 424.372L526.44 425.198L525.944 424.042L525.449 422.555L541.306 421.729V423.051L541.471 424.372Z" fill="#B9C8FC"/>
<path d="M518.346 404.387H519.172L527.101 425.199H526.44L518.346 404.387Z" fill="#B9C8FC"/>
<path d="M541.471 424.373L526.44 425.199L525.944 423.878C529.743 423.713 538.663 423.052 541.471 422.887V424.373Z" fill="#B9C8FC"/>
<path d="M510.253 414.462C510.583 415.288 511.409 415.783 512.07 415.618C512.73 415.288 513.061 414.462 512.73 413.636C512.4 412.81 511.574 412.315 510.913 412.48C510.253 412.81 509.922 413.636 510.253 414.462Z" fill="white"/>
<path d="M302.13 269.275C315.509 271.422 326.907 270.761 327.402 267.788C327.898 264.815 317.326 260.52 303.947 258.373C290.568 256.226 279.171 256.886 278.675 259.86C278.18 262.833 288.751 267.127 302.13 269.275Z" fill="#F2BC97"/>
<path d="M324.924 267.127C334.339 262.668 337.808 304.127 335.826 313.046C333.679 321.966 328.228 306.605 325.42 292.069C322.612 277.368 321.125 268.779 324.924 267.127Z" fill="#F2BC97"/>
<path d="M335.661 313.707C335.661 313.707 336.982 315.359 339.79 317.506C342.598 319.654 343.259 319.158 343.424 319.984C343.424 320.81 331.697 319.984 331.697 319.984L331.862 313.377C331.862 313.377 335.661 313.542 335.661 313.707Z" fill="url(#paint41_linear)"/>
<path d="M314.023 264.814C327.237 268.944 338.634 269.935 339.46 267.127C340.451 264.154 330.54 258.538 317.326 254.243C304.112 250.114 292.715 249.123 291.889 251.931C291.063 254.904 300.974 260.685 314.023 264.814Z" fill="#F2BC97"/>
<path d="M336.322 265.641C347.388 268.779 319.143 303.136 310.884 308.917C302.626 314.863 310.224 300.658 318.648 286.618C326.907 272.578 332.027 264.319 336.322 265.641Z" fill="#F2BC97"/>
<path d="M310.224 309.248C310.224 309.248 310.059 311.56 310.884 315.359C311.545 319.158 312.536 319.323 312.041 319.984C311.545 320.645 302.46 311.56 302.46 311.56L307.416 306.274C307.251 306.44 310.389 309.082 310.224 309.248Z" fill="url(#paint42_linear)"/>
<path d="M334.339 280.837C333.348 282.324 332.357 283.975 331.201 285.627C323.603 296.529 313.858 307.265 313.858 307.265L307.911 301.814C307.911 301.814 323.603 272.248 323.107 271.092C322.447 269.935 287.76 264.154 286.108 252.592C284.456 241.03 303.782 249.784 303.782 249.784C303.782 249.784 339.13 257.547 339.955 267.127C340.286 270.266 337.973 275.386 334.339 280.837Z" fill="url(#paint43_linear)"/>
<path opacity="0.3" d="M334.339 280.837C333.348 282.323 332.357 283.975 331.201 285.627L323.108 271.091L316.831 259.694C317.822 260.025 329.88 260.19 332.523 268.118C333.679 271.422 334.174 276.377 334.339 280.837Z" fill="url(#paint44_linear)"/>
<path d="M337.808 311.065H330.21C330.21 311.065 329.714 309.413 329.054 306.77C326.411 297.19 320.134 274.891 319.308 273.9C318.317 272.744 289.742 273.239 281.318 270.431C272.729 267.623 276.197 251.932 276.197 251.932L287.099 252.427L293.541 252.758C293.541 252.758 325.09 258.374 330.375 267.128C335.661 275.882 337.643 311.065 337.808 311.065Z" fill="url(#paint45_linear)"/>
<path opacity="0.3" d="M328.889 306.605C326.246 297.025 319.969 274.726 319.143 273.735C318.152 272.579 289.577 273.074 281.153 270.266C272.564 267.458 276.032 251.767 276.032 251.767L286.934 252.262C284.456 254.575 280.657 259.86 283.961 264.65C288.09 270.597 318.317 264.65 321.951 272.579C324.759 278.525 327.567 297.19 328.889 306.605Z" fill="url(#paint46_linear)"/>
<path d="M294.202 207.83C295.688 207.995 298.001 207.169 298.496 208.656C300.644 215.263 308.077 234.258 303.121 235.91C299.322 237.066 295.523 221.704 293.706 213.941C292.385 208.986 290.403 207.499 294.202 207.83Z" fill="#F2BC97"/>
<path d="M300.313 231.78C301.304 230.954 302.791 230.789 304.112 231.285C310.059 233.432 331.036 241.195 331.201 244.003C331.366 247.142 300.479 237.231 299.983 235.579C299.487 234.423 298.827 232.936 300.313 231.78Z" fill="#F2BC97"/>
<path d="M327.237 242.682C327.898 240.7 331.367 242.352 332.523 242.847C334.34 243.838 335.826 246.316 335.331 247.142C335 247.802 330.871 245.325 330.706 245.49C330.541 245.655 332.358 246.976 331.862 247.637C331.367 248.298 328.724 246.811 327.898 245.655C327.072 244.664 326.742 243.838 327.237 242.682Z" fill="#F2BC97"/>
<path d="M295.028 226.164C295.028 226.164 291.724 208.655 297.34 207.829C303.452 207.003 304.443 225.173 304.443 225.173L295.028 226.164Z" fill="#FFD53C"/>
<path d="M303.947 249.619C303.782 249.784 303.617 249.784 303.617 249.784C302.791 250.279 301.965 250.61 301.139 250.94C291.889 254.244 276.198 251.766 276.198 251.766C276.363 249.949 276.528 246.646 276.693 243.012C276.858 239.213 276.858 234.753 277.023 230.293C277.354 223.025 277.849 215.592 278.84 210.637C279.171 208.82 279.501 207.664 282.639 206.343C286.273 204.856 294.367 205.186 298.331 207.499C300.644 208.82 302.791 213.941 302.461 218.896C302.295 223.851 299.983 225.008 299.818 232.606C299.653 237.726 301.469 243.507 302.791 246.646C303.121 247.637 303.452 248.297 303.617 248.793C303.782 249.454 303.947 249.619 303.947 249.619Z" fill="#FFD53C"/>
<path opacity="0.3" d="M303.947 247.637L303.617 249.124L303.452 249.95L303.121 251.436C303.121 251.436 302.295 251.271 300.974 250.941C295.193 249.785 279.171 246.151 276.693 243.343C276.528 243.177 276.528 243.177 276.363 243.012C276.528 239.213 276.528 234.753 276.693 230.294L281.648 224.678L285.117 226.329L283.465 238.222L302.626 246.977L303.947 247.637Z" fill="url(#paint47_linear)"/>
<path d="M285.943 198.91C285.943 198.91 285.943 206.343 285.943 206.673C285.943 206.673 287.099 209.481 290.403 209.481C293.541 209.481 294.367 206.838 294.367 206.508C294.367 206.177 294.367 202.048 294.367 202.048C294.367 202.048 298.497 203.7 300.148 202.213C301.8 200.892 302.791 199.405 302.956 194.12C303.121 188.669 302.956 185.035 299.488 183.714C296.019 182.392 284.787 179.749 282.474 185.696C280.327 191.642 285.943 198.91 285.943 198.91Z" fill="#F2BC97"/>
<path d="M294.367 202.047L290.072 200.396L294.367 204.36V202.047Z" fill="#F2BC97"/>
<path d="M308.737 258.042L311.876 257.877L332.358 257.051L340.947 236.734H340.781L317.657 235.578L311.38 251.435L308.737 258.042ZM327.567 247.471C327.072 248.462 326.081 249.123 325.42 248.792C324.759 248.462 324.429 247.306 324.925 246.315C325.42 245.324 326.411 244.663 327.072 244.993C327.898 245.324 328.063 246.48 327.567 247.471Z" fill="#C7D4F9"/>
<path d="M327.072 244.993C327.732 245.324 328.063 246.48 327.567 247.471C327.072 248.462 326.081 249.123 325.42 248.792C324.759 248.462 324.429 247.306 324.924 246.315C325.42 245.324 326.411 244.663 327.072 244.993Z" fill="white"/>
<path d="M311.38 251.601L308.737 258.043L296.514 251.271L311.38 251.601Z" fill="#A9BDEA"/>
<path d="M308.737 258.042L332.357 257.051L332.192 258.207L308.572 259.033C308.737 259.033 308.902 258.042 308.737 258.042L308.572 259.033L296.184 252.261L296.349 251.27" fill="#C7D4F9"/>
<path d="M283.465 208.325C284.786 208.986 285.612 210.472 285.612 211.959C285.447 218.896 284.29 242.681 279.17 242.516C275.206 242.351 277.023 226.659 277.849 218.566C278.179 213.776 279.996 206.838 283.465 208.325Z" fill="#F2BC97"/>
<path d="M277.684 238.882C278.675 238.056 279.997 237.891 281.318 238.386C286.934 240.368 306.92 247.471 307.086 250.114C307.251 253.087 277.849 244.167 277.519 242.516C277.023 241.359 276.363 240.038 277.684 238.882Z" fill="#F2BC97"/>
<path d="M276.528 236.074C276.528 236.074 276.363 241.195 277.189 242.516C278.014 244.003 285.943 245.82 285.943 245.82C285.943 245.82 279.006 237.891 279.006 237.726C279.006 237.891 276.528 236.074 276.528 236.074Z" fill="#F2BC97"/>
<path d="M303.287 248.627C303.947 246.645 307.251 248.131 308.242 248.792C310.059 249.783 311.38 252.096 311.05 252.756C310.72 253.417 306.755 251.105 306.59 251.27C306.425 251.435 308.077 252.591 307.746 253.252C307.416 253.913 304.773 252.426 303.947 251.435C303.287 250.609 302.956 249.948 303.287 248.627Z" fill="#F2BC97"/>
<path d="M276.198 225.503C276.198 225.503 276.693 206.673 282.309 207.169C289.742 207.664 285.282 226.494 285.282 226.494L276.198 225.503Z" fill="#FFD53C"/>
<path d="M285.943 199.735C285.943 199.735 292.22 198.414 291.064 194.945C290.568 193.458 288.586 189.824 291.394 189.164C294.037 188.338 294.202 196.431 294.202 196.431C294.202 196.431 295.523 189.824 295.854 189.494C296.019 189.164 298.166 185.53 302.956 188.668C303.617 189.164 303.287 178.923 293.046 178.758C285.613 178.592 280.823 182.061 281.318 188.007C281.483 193.789 282.475 196.597 285.943 199.735Z" fill="url(#paint48_linear)"/>
<path d="M282.144 185.034C282.144 185.034 273.555 180.905 270.251 185.86C266.948 190.815 273.555 204.855 264.801 206.342C264.801 206.342 273.72 211.462 278.18 205.185C282.64 199.074 279.997 192.962 282.64 193.128" fill="url(#paint49_linear)"/>
<path d="M281.153 184.705C281.153 184.705 280.657 189.991 281.814 193.459C281.814 193.459 282.144 194.285 281.318 194.12C280.492 194.12 279.336 186.357 280.162 184.375C280.327 184.044 281.153 184.705 281.153 184.705Z" fill="url(#paint50_linear)"/>
<path d="M513.556 252.095C536.362 252.095 554.85 233.607 554.85 210.801C554.85 187.995 536.362 169.507 513.556 169.507C490.75 169.507 472.262 187.995 472.262 210.801C472.262 233.607 490.75 252.095 513.556 252.095Z" fill="url(#paint51_linear)"/>
<path d="M513.556 243.836C531.801 243.836 546.591 229.046 546.591 210.801C546.591 192.556 531.801 177.766 513.556 177.766C495.311 177.766 480.521 192.556 480.521 210.801C480.521 229.046 495.311 243.836 513.556 243.836Z" fill="white"/>
<path d="M513.556 234.586C526.692 234.586 537.342 223.937 537.342 210.801C537.342 197.665 526.692 187.016 513.556 187.016C500.42 187.016 489.771 197.665 489.771 210.801C489.771 223.937 500.42 234.586 513.556 234.586Z" fill="url(#paint52_linear)"/>
<path d="M517.141 226.054C525.575 224.062 530.797 215.611 528.806 207.176C526.814 198.742 518.363 193.52 509.929 195.511C501.495 197.503 496.272 205.954 498.263 214.388C500.255 222.822 508.707 228.045 517.141 226.054Z" fill="white"/>
<path d="M506.619 210.801C506.619 214.6 509.757 217.738 513.556 217.738C517.355 217.738 520.494 214.6 520.494 210.801C520.494 207.002 517.355 203.863 513.556 203.863C509.757 203.863 506.619 207.002 506.619 210.801Z" fill="#FFD53C"/>
<path d="M471.145 166.55L469.977 167.718L510.972 208.713L512.14 207.545L471.145 166.55Z" fill="#453BDA"/>
<path d="M514.547 211.131L513.556 205.846L509.262 209.975L514.547 211.131Z" fill="#453BDA"/>
<path d="M471.436 169.011L465.82 167.195L469.289 165.873L470.776 162.239L472.593 168.02L471.436 169.011Z" fill="#453BDA"/>
<g opacity="0.5">
<path d="M335.992 172.48V172.811C335.992 173.637 335.331 174.463 334.34 174.463C333.514 174.463 332.688 173.802 332.688 172.811V172.48H335.992Z" fill="url(#paint53_linear)"/>
<path d="M328.889 151.007C327.898 151.007 327.072 150.181 327.072 149.19C327.072 148.199 327.898 147.373 328.889 147.373C329.88 147.373 330.706 148.034 330.706 149.025C330.706 149.025 330.706 149.025 330.706 149.19L330.871 151.007H328.889Z" fill="url(#paint54_linear)"/>
<path d="M337.148 151.833L335.661 165.047H333.349L331.862 151.833H337.148Z" fill="url(#paint55_linear)"/>
<path d="M339.956 151.007H337.974L338.139 149.19V149.025C338.139 148.034 338.965 147.373 339.956 147.373C340.947 147.373 341.773 148.199 341.773 149.19C341.773 150.181 340.947 151.007 339.956 151.007Z" fill="url(#paint56_linear)"/>
<path d="M334.67 134.655H334.34C327.237 134.655 321.456 140.436 321.456 147.374C321.456 154.146 326.907 158.936 329.219 164.222C329.384 164.717 329.88 164.883 330.375 164.883H332.523L331.036 151.668H328.889C327.567 151.668 326.411 150.512 326.411 149.026C326.411 147.539 327.567 146.383 329.054 146.383C330.375 146.383 331.532 147.374 331.532 148.695L331.697 150.677H337.148L337.313 148.695C337.478 147.374 338.469 146.383 339.79 146.383C341.277 146.383 342.433 147.539 342.433 149.026C342.433 150.347 341.277 151.503 339.956 151.668H337.808L336.322 164.883H338.469C338.964 164.883 339.295 164.552 339.625 164.222C341.938 158.936 347.388 154.146 347.388 147.374C347.388 140.271 341.607 134.655 334.67 134.655ZM345.572 148.365C345.241 148.365 345.076 148.2 345.076 148.035C344.085 139.941 336.322 137.133 336.322 137.133C336.156 137.133 335.991 136.803 335.991 136.637C335.991 136.472 336.322 136.307 336.487 136.307C336.487 136.307 344.746 139.28 345.902 147.869C345.902 148.035 345.737 148.2 345.572 148.365Z" fill="url(#paint57_linear)"/>
<path d="M338.8 168.186H330.21C329.715 168.186 329.385 167.855 329.385 167.36V166.699C329.385 166.203 329.715 165.873 330.21 165.873H338.8C339.295 165.873 339.625 166.203 339.625 166.699V167.36C339.625 167.855 339.295 168.186 338.8 168.186Z" fill="url(#paint58_linear)"/>
<path d="M338.634 169.011H330.21C329.88 169.011 329.55 169.341 329.55 169.671V170.663C329.55 171.654 330.375 172.479 331.367 172.479H337.313C338.304 172.479 339.13 171.654 339.13 170.663V169.671C339.295 169.176 338.965 169.011 338.634 169.011Z" fill="url(#paint59_linear)"/>
<path d="M344.415 132.673C344.25 132.673 344.25 132.673 344.085 132.673C343.755 132.508 343.59 132.012 343.755 131.682L347.884 124.084C348.049 123.753 348.545 123.588 348.71 123.753C349.04 123.918 349.206 124.414 349.04 124.579L344.911 132.177C344.911 132.673 344.581 132.673 344.415 132.673Z" fill="url(#paint60_linear)"/>
<path d="M351.188 139.611C351.023 139.611 350.692 139.445 350.527 139.28C350.362 138.95 350.527 138.619 350.858 138.454L354.657 136.307C354.987 136.142 355.317 136.307 355.482 136.637C355.648 136.968 355.482 137.298 355.152 137.463L351.353 139.611H351.188Z" fill="url(#paint61_linear)"/>
<path d="M362.42 149.025H353.665C353.335 149.025 353.005 148.694 353.005 148.364C353.005 148.033 353.335 147.703 353.665 147.703H362.585C362.915 147.703 363.246 148.033 363.246 148.364C363.246 148.694 362.915 149.025 362.42 149.025Z" fill="url(#paint62_linear)"/>
<path d="M354.491 160.422C354.326 160.422 354.326 160.422 354.161 160.257L350.857 158.274C350.527 158.109 350.527 157.614 350.692 157.283C350.857 156.953 351.353 156.953 351.683 157.118L354.987 159.1C355.317 159.266 355.317 159.761 355.152 160.091C354.987 160.257 354.656 160.422 354.491 160.422Z" fill="url(#paint63_linear)"/>
<path d="M334.835 130.196C334.505 130.196 334.174 129.866 334.174 129.535V125.406C334.174 125.075 334.505 124.745 334.835 124.745C335.165 124.745 335.496 125.075 335.496 125.406V129.37C335.496 129.866 335.331 130.196 334.835 130.196Z" fill="url(#paint64_linear)"/>
<path d="M325.585 132.673C325.42 132.673 325.09 132.508 325.09 132.342L320.3 124.414C320.134 124.084 320.134 123.753 320.465 123.423C320.795 123.258 321.126 123.258 321.456 123.588L326.246 131.517C326.411 131.847 326.411 132.177 326.081 132.508C325.916 132.673 325.75 132.673 325.585 132.673Z" fill="url(#paint65_linear)"/>
<path d="M318.648 139.28C318.483 139.28 318.483 139.28 318.318 139.115L314.353 136.802C314.023 136.637 313.858 136.141 314.188 135.811C314.353 135.481 314.849 135.316 315.179 135.646L319.143 137.958C319.474 138.124 319.639 138.619 319.309 138.949C318.978 139.28 318.813 139.28 318.648 139.28Z" fill="url(#paint66_linear)"/>
<path d="M316.17 148.86C316.17 148.86 316.005 148.694 316.17 148.86L307.912 147.538C307.581 147.538 307.251 147.208 307.416 146.712C307.416 146.382 307.746 146.052 308.242 146.217L316.336 147.538C316.666 147.538 316.996 147.869 316.831 148.364C316.666 148.529 316.501 148.86 316.17 148.86Z" fill="url(#paint67_linear)"/>
<path d="M314.849 160.092C314.518 160.092 314.353 159.927 314.188 159.761C314.023 159.431 314.188 159.101 314.518 158.935L318.317 157.119C318.648 156.953 318.978 157.119 319.143 157.449C319.309 157.779 319.143 158.11 318.813 158.275L315.014 160.092C315.179 160.092 315.014 160.092 314.849 160.092Z" fill="url(#paint68_linear)"/>
<path d="M335.661 165.048H336.487H335.661ZM332.523 165.048L333.349 165.213V165.048H332.523Z" fill="url(#paint69_linear)"/>
<path d="M345.902 147.87C345.902 148.035 345.737 148.365 345.572 148.365C345.406 148.365 345.241 148.2 345.241 148.035C344.25 139.941 336.487 137.133 336.487 137.133C336.322 137.133 336.156 136.803 336.156 136.638C336.156 136.473 336.487 136.308 336.652 136.308C336.652 136.308 344.911 139.281 345.902 147.87Z" fill="white"/>
</g>
<path d="M185.846 158.77L214.587 136.802L235.73 153.154L262.984 130.855" stroke="#DAE3EF" stroke-width="0.5" stroke-miterlimit="10"/>
<path d="M189.15 158.77C189.15 160.587 187.663 162.074 185.846 162.074C184.029 162.074 182.543 160.587 182.543 158.77C182.543 156.953 184.029 155.467 185.846 155.467C187.663 155.467 189.15 157.119 189.15 158.77Z" fill="#214F95"/>
<path d="M217.56 137.959C217.56 139.776 216.073 141.262 214.256 141.262C212.439 141.262 210.953 139.776 210.953 137.959C210.953 136.142 212.439 134.655 214.256 134.655C216.073 134.655 217.56 136.142 217.56 137.959Z" fill="#214F95"/>
<path d="M239.033 153.155C239.033 154.972 237.546 156.459 235.73 156.459C233.913 156.459 232.426 154.972 232.426 153.155C232.426 151.338 233.913 149.852 235.73 149.852C237.546 149.852 239.033 151.338 239.033 153.155Z" fill="#214F95"/>
<path d="M266.287 130.856C266.287 132.673 264.801 134.16 262.984 134.16C261.167 134.16 259.68 132.673 259.68 130.856C259.68 129.039 261.167 127.553 262.984 127.553C264.801 127.553 266.287 129.039 266.287 130.856Z" fill="#214F95"/>
<circle cx="547" cy="157" r="157" fill="#9468B4" fill-opacity="0.15"/>
<circle cx="93" cy="490" r="93" fill="#9468B4" fill-opacity="0.15"/>
<circle cx="334.5" cy="46.5" r="46.5" fill="#9468B4" fill-opacity="0.1"/>
<circle cx="218.5" cy="641.5" r="46.5" fill="#9468B4" fill-opacity="0.1"/>
<defs>
<linearGradient id="paint0_linear" x1="369.12" y1="236.609" x2="369.12" y2="540.031" gradientUnits="userSpaceOnUse">
<stop stop-color="#E9EEF4"/>
<stop offset="1" stop-color="#C2CAF7"/>
</linearGradient>
<linearGradient id="paint1_linear" x1="410.313" y1="215.551" x2="302.389" y2="250.928" gradientUnits="userSpaceOnUse">
<stop stop-color="#E9EEF4"/>
<stop offset="1" stop-color="#C2CAF7"/>
</linearGradient>
<linearGradient id="paint2_linear" x1="1784.82" y1="11923.3" x2="2023.3" y2="11923.3" gradientUnits="userSpaceOnUse">
<stop stop-color="#A26ACA"/>
<stop offset="1" stop-color="#9468B4"/>
</linearGradient>
<linearGradient id="paint3_linear" x1="970.233" y1="11824.9" x2="1087.25" y2="11824.9" gradientUnits="userSpaceOnUse">
<stop stop-color="#A26ACA"/>
<stop offset="1" stop-color="#9468B4"/>
</linearGradient>
<linearGradient id="paint4_linear" x1="2183.13" y1="8123.89" x2="2483.8" y2="8123.89" gradientUnits="userSpaceOnUse">
<stop stop-color="#A26ACA"/>
<stop offset="1" stop-color="#9468B4"/>
</linearGradient>
<linearGradient id="paint5_linear" x1="2055.58" y1="8344.15" x2="2329.47" y2="8344.15" gradientUnits="userSpaceOnUse">
<stop stop-color="#A26ACA"/>
<stop offset="1" stop-color="#9468B4"/>
</linearGradient>
<linearGradient id="paint6_linear" x1="1927.31" y1="8324.8" x2="2182.08" y2="8324.8" gradientUnits="userSpaceOnUse">
<stop stop-color="#A26ACA"/>
<stop offset="1" stop-color="#9468B4"/>
</linearGradient>
<linearGradient id="paint7_linear" x1="2069.85" y1="8086.97" x2="2353.62" y2="8086.97" gradientUnits="userSpaceOnUse">
<stop stop-color="#A26ACA"/>
<stop offset="1" stop-color="#9468B4"/>
</linearGradient>
<linearGradient id="paint8_linear" x1="1878.85" y1="3348.62" x2="2068.76" y2="3348.62" gradientUnits="userSpaceOnUse">
<stop stop-color="#A26ACA"/>
<stop offset="1" stop-color="#9468B4"/>
</linearGradient>
<linearGradient id="paint9_linear" x1="1836.36" y1="3130.66" x2="2020.03" y2="3130.66" gradientUnits="userSpaceOnUse">
<stop stop-color="#A26ACA"/>
<stop offset="1" stop-color="#9468B4"/>
</linearGradient>
<linearGradient id="paint10_linear" x1="1914.56" y1="3343.18" x2="2103.86" y2="3343.18" gradientUnits="userSpaceOnUse">
<stop stop-color="#A26ACA"/>
<stop offset="1" stop-color="#9468B4"/>
</linearGradient>
<linearGradient id="paint11_linear" x1="1882.82" y1="3124.26" x2="2067.42" y2="3124.26" gradientUnits="userSpaceOnUse">
<stop stop-color="#A26ACA"/>
<stop offset="1" stop-color="#9468B4"/>
</linearGradient>
<linearGradient id="paint12_linear" x1="1606.42" y1="4834.22" x2="1755.49" y2="4834.22" gradientUnits="userSpaceOnUse">
<stop stop-color="#A26ACA"/>
<stop offset="1" stop-color="#9468B4"/>
</linearGradient>
<linearGradient id="paint13_linear" x1="1554.16" y1="4742.92" x2="1695.59" y2="4742.92" gradientUnits="userSpaceOnUse">
<stop stop-color="#A26ACA"/>
<stop offset="1" stop-color="#9468B4"/>
</linearGradient>
<linearGradient id="paint14_linear" x1="1640.66" y1="4840.98" x2="1790.35" y2="4840.98" gradientUnits="userSpaceOnUse">
<stop stop-color="#A26ACA"/>
<stop offset="1" stop-color="#9468B4"/>
</linearGradient>
<linearGradient id="paint15_linear" x1="1616.02" y1="4794.66" x2="1762.04" y2="4794.66" gradientUnits="userSpaceOnUse">
<stop stop-color="#A26ACA"/>
<stop offset="1" stop-color="#9468B4"/>
</linearGradient>
<linearGradient id="paint16_linear" x1="374.557" y1="531.509" x2="374.557" y2="511.739" gradientUnits="userSpaceOnUse">
<stop offset="0.0326633" stop-color="#214F95"/>
<stop offset="1" stop-color="#0E408C"/>
</linearGradient>
<linearGradient id="paint17_linear" x1="15075.3" y1="20975.5" x2="17238.1" y2="20975.5" gradientUnits="userSpaceOnUse">
<stop stop-color="#A26ACA"/>
<stop offset="1" stop-color="#9468B4"/>
</linearGradient>
<linearGradient id="paint18_linear" x1="180.121" y1="376.878" x2="568.99" y2="376.878" gradientUnits="userSpaceOnUse">
<stop offset="0.0326633" stop-color="#214F95"/>
<stop offset="1" stop-color="#0E408C"/>
</linearGradient>
<linearGradient id="paint19_linear" x1="309.272" y1="533.337" x2="439.842" y2="533.337" gradientUnits="userSpaceOnUse">
<stop offset="0.0326633" stop-color="#214F95"/>
<stop offset="1" stop-color="#0E408C"/>
</linearGradient>
<linearGradient id="paint20_linear" x1="263.278" y1="378.424" x2="331.914" y2="378.424" gradientUnits="userSpaceOnUse">
<stop stop-color="#E9EEF4"/>
<stop offset="1" stop-color="#C2CAF7"/>
</linearGradient>
<linearGradient id="paint21_linear" x1="342.42" y1="378.573" x2="397.548" y2="378.573" gradientUnits="userSpaceOnUse">
<stop stop-color="#E9EEF4"/>
<stop offset="1" stop-color="#C2CAF7"/>
</linearGradient>
<linearGradient id="paint22_linear" x1="407.656" y1="378.573" x2="487.197" y2="378.573" gradientUnits="userSpaceOnUse">
<stop stop-color="#E9EEF4"/>
<stop offset="1" stop-color="#C2CAF7"/>
</linearGradient>
<linearGradient id="paint23_linear" x1="483.865" y1="375.604" x2="281.97" y2="375.604" gradientUnits="userSpaceOnUse">
<stop offset="0.0326633" stop-color="#214F95"/>
<stop offset="1" stop-color="#0E408C"/>
</linearGradient>
<linearGradient id="paint24_linear" x1="483.864" y1="375.755" x2="281.971" y2="375.755" gradientUnits="userSpaceOnUse">
<stop offset="0.0326633" stop-color="#214F95"/>
<stop offset="1" stop-color="#0E408C"/>
</linearGradient>
<linearGradient id="paint25_linear" x1="483.864" y1="375.755" x2="281.971" y2="375.755" gradientUnits="userSpaceOnUse">
<stop offset="0.0326633" stop-color="#214F95"/>
<stop offset="1" stop-color="#0E408C"/>
</linearGradient>
<linearGradient id="paint26_linear" x1="6290.08" y1="6361.11" x2="7191.93" y2="6361.11" gradientUnits="userSpaceOnUse">
<stop stop-color="#A26ACA"/>
<stop offset="1" stop-color="#9468B4"/>
</linearGradient>
<linearGradient id="paint27_linear" x1="58.7743" y1="300.031" x2="155.859" y2="300.031" gradientUnits="userSpaceOnUse">
<stop stop-color="#E9EEF4"/>
<stop offset="1" stop-color="#C2CAF7"/>
</linearGradient>
<linearGradient id="paint28_linear" x1="630.254" y1="350.384" x2="685.541" y2="350.384" gradientUnits="userSpaceOnUse">
<stop stop-color="#E9EEF4"/>
<stop offset="1" stop-color="#C2CAF7"/>
</linearGradient>
<linearGradient id="paint29_linear" x1="649.766" y1="350.383" x2="666.029" y2="350.383" gradientUnits="userSpaceOnUse">
<stop stop-color="#E9EEF4"/>
<stop offset="1" stop-color="#C2CAF7"/>
</linearGradient>
<linearGradient id="paint30_linear" x1="4321.02" y1="3417.15" x2="4940.01" y2="3417.15" gradientUnits="userSpaceOnUse">
<stop stop-color="#A26ACA"/>
<stop offset="1" stop-color="#9468B4"/>
</linearGradient>
<linearGradient id="paint31_linear" x1="83.8351" y1="537.436" x2="643.977" y2="537.436" gradientUnits="userSpaceOnUse">
<stop offset="0.0326633" stop-color="#214F95"/>
<stop offset="1" stop-color="#0E408C"/>
</linearGradient>
<linearGradient id="paint32_linear" x1="284.734" y1="537.889" x2="196.01" y2="537.889" gradientUnits="userSpaceOnUse">
<stop offset="0.0326633" stop-color="#214F95"/>
<stop offset="1" stop-color="#0E408C"/>
</linearGradient>
<linearGradient id="paint33_linear" x1="305.642" y1="554.713" x2="291.304" y2="554.713" gradientUnits="userSpaceOnUse">
<stop offset="0.0326633" stop-color="#214F95"/>
<stop offset="1" stop-color="#0E408C"/>
</linearGradient>
<linearGradient id="paint34_linear" x1="300.263" y1="569.694" x2="281.49" y2="569.694" gradientUnits="userSpaceOnUse">
<stop offset="0.0326633" stop-color="#214F95"/>
<stop offset="1" stop-color="#0E408C"/>
</linearGradient>
<linearGradient id="paint35_linear" x1="288.933" y1="535.867" x2="188.749" y2="535.867" gradientUnits="userSpaceOnUse">
<stop offset="0.0326633" stop-color="#214F95"/>
<stop offset="1" stop-color="#0E408C"/>
</linearGradient>
<linearGradient id="paint36_linear" x1="230.648" y1="445.808" x2="204.407" y2="445.808" gradientUnits="userSpaceOnUse">
<stop offset="0.0326633" stop-color="#214F95"/>
<stop offset="1" stop-color="#0E408C"/>
</linearGradient>
<linearGradient id="paint37_linear" x1="506.258" y1="473.981" x2="566.158" y2="473.981" gradientUnits="userSpaceOnUse">
<stop offset="0.0326633" stop-color="#214F95"/>
<stop offset="1" stop-color="#0E408C"/>
</linearGradient>
<linearGradient id="paint38_linear" x1="574.464" y1="729.63" x2="579.974" y2="729.63" gradientUnits="userSpaceOnUse">
<stop stop-color="#A26ACA"/>
<stop offset="1" stop-color="#9468B4"/>
</linearGradient>
<linearGradient id="paint39_linear" x1="557.216" y1="702.18" x2="562.188" y2="702.18" gradientUnits="userSpaceOnUse">
<stop stop-color="#A26ACA"/>
<stop offset="1" stop-color="#9468B4"/>
</linearGradient>
<linearGradient id="paint40_linear" x1="586.852" y1="729.63" x2="592.362" y2="729.63" gradientUnits="userSpaceOnUse">
<stop stop-color="#A26ACA"/>
<stop offset="1" stop-color="#9468B4"/>
</linearGradient>
<linearGradient id="paint41_linear" x1="331.624" y1="316.85" x2="343.271" y2="316.85" gradientUnits="userSpaceOnUse">
<stop offset="0.0326633" stop-color="#214F95"/>
<stop offset="1" stop-color="#0E408C"/>
</linearGradient>
<linearGradient id="paint42_linear" x1="302.39" y1="313.232" x2="312.172" y2="313.232" gradientUnits="userSpaceOnUse">
<stop offset="0.0326633" stop-color="#214F95"/>
<stop offset="1" stop-color="#0E408C"/>
</linearGradient>
<linearGradient id="paint43_linear" x1="2352.98" y1="5347.48" x2="2653.1" y2="5347.48" gradientUnits="userSpaceOnUse">
<stop stop-color="#A26ACA"/>
<stop offset="1" stop-color="#9468B4"/>
</linearGradient>
<linearGradient id="paint44_linear" x1="987.276" y1="2440.48" x2="1084.62" y2="2440.48" gradientUnits="userSpaceOnUse">
<stop stop-color="#A26ACA"/>
<stop offset="1" stop-color="#9468B4"/>
</linearGradient>
<linearGradient id="paint45_linear" x1="2661.23" y1="5224.67" x2="3007.63" y2="5224.67" gradientUnits="userSpaceOnUse">
<stop stop-color="#A26ACA"/>
<stop offset="1" stop-color="#9468B4"/>
</linearGradient>
<linearGradient id="paint46_linear" x1="2325.84" y1="4863.36" x2="2623.57" y2="4863.36" gradientUnits="userSpaceOnUse">
<stop stop-color="#A26ACA"/>
<stop offset="1" stop-color="#9468B4"/>
</linearGradient>
<linearGradient id="paint47_linear" x1="276.524" y1="238.108" x2="304.01" y2="238.108" gradientUnits="userSpaceOnUse">
<stop stop-color="#FFC13C"/>
<stop offset="0.9472" stop-color="#FFA93C"/>
</linearGradient>
<linearGradient id="paint48_linear" x1="280.909" y1="189.098" x2="302.834" y2="189.098" gradientUnits="userSpaceOnUse">
<stop offset="0.0326633" stop-color="#214F95"/>
<stop offset="1" stop-color="#0E408C"/>
</linearGradient>
<linearGradient id="paint49_linear" x1="264.772" y1="195.873" x2="282.559" y2="195.873" gradientUnits="userSpaceOnUse">
<stop offset="0.0326633" stop-color="#214F95"/>
<stop offset="1" stop-color="#0E408C"/>
</linearGradient>
<linearGradient id="paint50_linear" x1="279.865" y1="189.196" x2="281.864" y2="189.196" gradientUnits="userSpaceOnUse">
<stop offset="0.0376884" stop-color="#FFCE3C"/>
<stop offset="1" stop-color="#FFBD3C"/>
</linearGradient>
<linearGradient id="paint51_linear" x1="3634.74" y1="7114.67" x2="4093.93" y2="7114.67" gradientUnits="userSpaceOnUse">
<stop stop-color="#A26ACA"/>
<stop offset="1" stop-color="#9468B4"/>
</linearGradient>
<linearGradient id="paint52_linear" x1="2311.36" y1="4187.43" x2="2575.85" y2="4187.43" gradientUnits="userSpaceOnUse">
<stop stop-color="#A26ACA"/>
<stop offset="1" stop-color="#9468B4"/>
</linearGradient>
<linearGradient id="paint53_linear" x1="334.446" y1="127.313" x2="334.446" y2="170.472" gradientUnits="userSpaceOnUse">
<stop stop-color="#E9EEF4"/>
<stop offset="1" stop-color="#C2CAF7"/>
</linearGradient>
<linearGradient id="paint54_linear" x1="329.032" y1="127.313" x2="329.032" y2="170.472" gradientUnits="userSpaceOnUse">
<stop stop-color="#E9EEF4"/>
<stop offset="1" stop-color="#C2CAF7"/>
</linearGradient>
<linearGradient id="paint55_linear" x1="334.45" y1="127.313" x2="334.45" y2="170.472" gradientUnits="userSpaceOnUse">
<stop stop-color="#E9EEF4"/>
<stop offset="1" stop-color="#C2CAF7"/>
</linearGradient>
<linearGradient id="paint56_linear" x1="339.86" y1="127.313" x2="339.86" y2="170.472" gradientUnits="userSpaceOnUse">
<stop stop-color="#E9EEF4"/>
<stop offset="1" stop-color="#C2CAF7"/>
</linearGradient>
<linearGradient id="paint57_linear" x1="334.442" y1="127.314" x2="334.442" y2="170.472" gradientUnits="userSpaceOnUse">
<stop stop-color="#E9EEF4"/>
<stop offset="1" stop-color="#C2CAF7"/>
</linearGradient>
<linearGradient id="paint58_linear" x1="334.446" y1="127.314" x2="334.446" y2="170.472" gradientUnits="userSpaceOnUse">
<stop stop-color="#E9EEF4"/>
<stop offset="1" stop-color="#C2CAF7"/>
</linearGradient>
<linearGradient id="paint59_linear" x1="334.446" y1="127.313" x2="334.446" y2="170.471" gradientUnits="userSpaceOnUse">
<stop stop-color="#E9EEF4"/>
<stop offset="1" stop-color="#C2CAF7"/>
</linearGradient>
<linearGradient id="paint60_linear" x1="346.475" y1="127.314" x2="346.475" y2="170.472" gradientUnits="userSpaceOnUse">
<stop stop-color="#E9EEF4"/>
<stop offset="1" stop-color="#C2CAF7"/>
</linearGradient>
<linearGradient id="paint61_linear" x1="353.02" y1="127.314" x2="353.02" y2="170.473" gradientUnits="userSpaceOnUse">
<stop stop-color="#E9EEF4"/>
<stop offset="1" stop-color="#C2CAF7"/>
</linearGradient>
<linearGradient id="paint62_linear" x1="358.047" y1="127.313" x2="358.047" y2="170.471" gradientUnits="userSpaceOnUse">
<stop stop-color="#E9EEF4"/>
<stop offset="1" stop-color="#C2CAF7"/>
</linearGradient>
<linearGradient id="paint63_linear" x1="352.893" y1="127.314" x2="352.893" y2="170.471" gradientUnits="userSpaceOnUse">
<stop stop-color="#E9EEF4"/>
<stop offset="1" stop-color="#C2CAF7"/>
</linearGradient>
<linearGradient id="paint64_linear" x1="334.904" y1="127.314" x2="334.904" y2="170.472" gradientUnits="userSpaceOnUse">
<stop stop-color="#E9EEF4"/>
<stop offset="1" stop-color="#C2CAF7"/>
</linearGradient>
<linearGradient id="paint65_linear" x1="323.238" y1="127.314" x2="323.238" y2="170.472" gradientUnits="userSpaceOnUse">
<stop stop-color="#E9EEF4"/>
<stop offset="1" stop-color="#C2CAF7"/>
</linearGradient>
<linearGradient id="paint66_linear" x1="316.63" y1="127.314" x2="316.63" y2="170.472" gradientUnits="userSpaceOnUse">
<stop stop-color="#E9EEF4"/>
<stop offset="1" stop-color="#C2CAF7"/>
</linearGradient>
<linearGradient id="paint67_linear" x1="312.046" y1="127.312" x2="312.046" y2="170.472" gradientUnits="userSpaceOnUse">
<stop stop-color="#E9EEF4"/>
<stop offset="1" stop-color="#C2CAF7"/>
</linearGradient>
<linearGradient id="paint68_linear" x1="316.852" y1="127.312" x2="316.852" y2="170.472" gradientUnits="userSpaceOnUse">
<stop stop-color="#E9EEF4"/>
<stop offset="1" stop-color="#C2CAF7"/>
</linearGradient>
<linearGradient id="paint69_linear" x1="334.442" y1="127.308" x2="334.442" y2="170.473" gradientUnits="userSpaceOnUse">
<stop stop-color="#E9EEF4"/>
<stop offset="1" stop-color="#C2CAF7"/>
</linearGradient>
</defs>
</svg>
