<svg width="84" height="83" viewBox="0 0 84 83" fill="none" xmlns="http://www.w3.org/2000/svg">
<g clip-path="url(#clip0)">
<path d="M35.0547 34.6181C38.5037 36.8574 42.7898 36.3994 44.6092 33.5971C44.7438 33.3897 44.7906 33.1374 44.7392 32.8955C44.6877 32.6537 44.5423 32.4422 44.335 32.3076C44.1276 32.1729 43.8753 32.1262 43.6334 32.1776C43.3916 32.2291 43.1801 32.3744 43.0455 32.5818C41.9156 34.322 39.2817 34.6708 36.8842 33.5122L38.4953 31.0307C38.6048 31.0432 38.7151 31.047 38.8252 31.0422L40.7669 30.9568C41.1251 30.9382 41.4738 30.8345 41.7839 30.6542C42.0941 30.474 42.3568 30.2225 42.5504 29.9205C43.2206 28.8882 42.9582 27.524 41.9654 26.8794L39.3114 25.1563C38.3187 24.5118 36.9657 24.8272 36.2955 25.8595C36.0984 26.1592 35.9756 26.5015 35.9371 26.8582C35.8987 27.2148 35.9459 27.5755 36.0746 27.9103L36.7867 29.7188C36.8271 29.8213 36.8756 29.9205 36.9316 30.0155L35.3205 32.4969C33.2865 30.7784 32.5333 28.2304 33.6631 26.4902C33.7977 26.2828 33.8445 26.0305 33.7931 25.7887C33.7416 25.5468 33.5962 25.3353 33.3889 25.2007C33.1815 25.0661 32.9292 25.0193 32.6873 25.0708C32.4455 25.1222 32.234 25.2676 32.0994 25.4749C30.28 28.2772 31.6057 32.3788 35.0547 34.6181ZM37.8097 27.2271C37.79 27.1685 37.7843 27.1061 37.7929 27.0449C37.8016 26.9837 37.8245 26.9254 37.8597 26.8746C37.9682 26.7074 38.1683 26.6366 38.2966 26.7199L40.9506 28.4431C41.0789 28.5264 41.0956 28.738 40.9871 28.9051C40.955 28.9579 40.911 29.0025 40.8586 29.0353C40.8062 29.0681 40.7469 29.0883 40.6853 29.0941L38.7436 29.1794C38.696 29.1833 38.6484 29.1712 38.6082 29.1452C38.5681 29.1192 38.5378 29.0806 38.5219 29.0355L37.8097 27.2271Z" fill="white" fill-opacity="0.3"/>
<path d="M45.3298 29.0634C45.7616 29.3438 46.339 29.221 46.6193 28.7892C46.8997 28.3574 46.7769 27.7801 46.3451 27.4997C45.9133 27.2193 45.336 27.3421 45.0556 27.7739C44.7752 28.2057 44.898 28.7831 45.3298 29.0634Z" fill="white" fill-opacity="0.3"/>
<path d="M35.9475 22.9719C36.3793 23.2522 36.9566 23.1295 37.237 22.6976C37.5174 22.2658 37.3946 21.6885 36.9628 21.4081C36.531 21.1278 35.9536 21.2506 35.6733 21.6824C35.3929 22.1142 35.5157 22.6915 35.9475 22.9719Z" fill="white" fill-opacity="0.3"/>
<path d="M50.8235 54.8591C51.442 55.2607 52.1658 55.4699 52.9032 55.4602C53.6406 55.4504 54.3586 55.2222 54.9663 54.8045C55.5741 54.3867 56.0443 53.7981 56.3175 53.113C56.5907 52.428 56.6547 51.6774 56.5013 50.956C56.3478 50.2347 55.984 49.575 55.4557 49.0604C54.9273 48.5459 54.2583 48.1995 53.5331 48.0652C52.808 47.9309 52.0593 48.0146 51.3817 48.3058C50.7042 48.597 50.1281 49.0826 49.7265 49.7011C49.1891 50.5309 49.0028 51.54 49.2085 52.5069C49.4141 53.4739 49.9949 54.3198 50.8235 54.8591ZM53.8693 50.1679C54.1785 50.3687 54.4213 50.6567 54.5669 50.9955C54.7125 51.3343 54.7544 51.7087 54.6872 52.0712C54.6201 52.4338 54.4469 52.7683 54.1896 53.0325C53.9323 53.2967 53.6025 53.4786 53.2418 53.5553C52.8811 53.632 52.5058 53.6 52.1633 53.4634C51.8208 53.3268 51.5265 53.0917 51.3176 52.7878C51.1087 52.484 50.9946 52.125 50.9898 51.7563C50.9849 51.3876 51.0895 51.0257 51.2903 50.7164C51.5599 50.3021 51.9829 50.0118 52.4664 49.9089C52.9499 49.8061 53.4544 49.8993 53.8693 50.1679Z" fill="white" fill-opacity="0.3"/>
<path d="M60.7541 63.5297L56.0629 60.4839L62.6622 50.3196C62.7664 50.1593 62.8185 49.9706 62.8114 49.7795L62.4147 38.4074C62.4094 38.2576 62.3682 38.1113 62.2944 37.9809C62.2206 37.8504 62.1164 37.7397 61.9907 37.6581C61.8649 37.5764 61.7214 37.5263 61.5722 37.512C61.423 37.4977 61.2725 37.5195 61.1336 37.5757L50.5842 41.8409C50.4069 41.9124 50.2561 42.037 50.1523 42.1975L46.9756 47.0903C46.8395 44.9558 46.1865 42.834 45.0208 40.7676C48.0912 39.8513 50.767 37.8078 52.6409 34.9216C53.473 33.649 54.1029 32.2552 54.5084 30.7897C55.5309 30.8822 56.5609 30.7321 57.5145 30.3516C58.468 29.9711 59.3184 29.3709 59.9964 28.5999C60.6744 27.8289 61.1608 26.9088 61.4163 25.9144C61.6718 24.92 61.689 23.8794 61.4665 22.877C61.2441 21.8747 60.7883 20.9391 60.1361 20.1461C59.484 19.3531 58.654 18.7251 57.7135 18.3133C56.773 17.9015 55.7486 17.7174 54.7236 17.776C53.6985 17.8347 52.7018 18.1343 51.8144 18.6506C50.6494 17.2563 49.2771 16.0492 47.7455 15.0715C46.2293 14.0704 44.5683 13.3082 42.8206 12.8115C42.9312 11.7908 42.7993 10.7584 42.4358 9.79819C42.0722 8.83802 41.4872 7.97718 40.7284 7.28565C39.9695 6.59412 39.0581 6.09141 38.0684 5.8184C37.0787 5.54538 36.0385 5.50975 35.0324 5.71441C34.0263 5.91907 33.0827 6.35825 32.2783 6.99624C31.4739 7.63422 30.8313 8.45302 30.4029 9.38607C29.9745 10.3191 29.7724 11.3401 29.8128 12.366C29.8533 13.3919 30.1352 14.3938 30.6358 15.2902C29.4621 16.2568 28.4452 17.3995 27.6212 18.6774C25.7473 21.5635 24.9698 24.8397 25.382 28.017C20.2847 27.5337 15.9234 29.3372 12.7069 33.2832C12.6996 33.2923 12.6922 33.3014 12.6852 33.3108L11.9132 34.3353C11.8878 34.3689 11.8648 34.4043 11.8444 34.4412C11.3127 35.397 11.0723 36.4875 11.1528 37.5782C11.2332 38.669 11.631 39.7123 12.2972 40.5798C11.0949 41.3021 10.0745 42.2906 9.31439 43.4693C6.79526 47.3493 7.55161 52.3279 11.0006 54.5672C12.8575 55.7728 15.1218 55.9408 17.2101 55.2349C17.833 56.388 18.7354 57.3661 19.8345 58.0798C20.9337 58.7934 22.1944 59.2197 23.5011 59.3195C23.7061 61.5143 24.781 63.5142 26.6379 64.7198C29.0887 66.311 32.2488 66.096 34.777 64.447L52.632 76.0395C52.8394 76.1741 53.0917 76.2209 53.3335 76.1695C53.5754 76.118 53.7869 75.9726 53.9215 75.7653L61.0284 64.8192C61.163 64.6118 61.2097 64.3595 61.1583 64.1176C61.1069 63.8758 60.9615 63.6643 60.7541 63.5297ZM60.5984 39.8033L60.8863 48.0552L52.9435 42.8983L60.5984 39.8033ZM51.2084 43.9946L60.5908 50.0862L54.4992 59.4686L45.7113 53.763C46.1069 52.884 46.4177 51.9694 46.6397 51.0314L51.2084 43.9946ZM38.8882 57.8364C39.7966 58.0503 40.744 58.0349 41.645 57.7916L42.8529 58.5758L40.8224 61.7033L38.3191 60.078C38.6045 59.3584 38.7958 58.605 38.8882 57.8364ZM43.7117 53.6325L43.1314 54.6803C42.6455 55.3056 41.9734 55.7603 41.2123 55.9788C40.4511 56.1973 39.6402 56.1683 38.8966 55.896C38.6915 54.0658 37.876 52.3837 36.505 51.1981C38.4273 47.9255 39.2605 44.2952 38.843 41.1038C40.2501 41.3542 41.6878 41.3817 43.1035 41.1852C45.571 45.2261 45.7851 49.5168 43.712 53.632L43.7117 53.6325ZM57.6355 20.3813C58.4948 20.9387 59.1465 21.7637 59.4899 22.7287C59.8333 23.6937 59.8493 24.7449 59.5354 25.7198C59.2215 26.6948 58.5952 27.5392 57.7533 28.1226C56.9114 28.7059 55.9008 28.9957 54.8777 28.9472C55.0744 27.4491 55.0088 25.9282 54.6837 24.4527C54.3454 22.9344 53.747 21.4861 52.9149 20.1719C53.6493 19.784 54.4739 19.5989 55.3036 19.6357C56.1334 19.6725 56.9383 19.9298 57.6355 20.3813ZM32.4233 9.56923C32.9854 8.70298 33.8192 8.04791 34.7939 7.70686C35.7686 7.36582 36.829 7.3581 37.8085 7.68493C38.7881 8.01175 39.6313 8.65461 40.206 9.51259C40.7806 10.3706 41.0541 11.3951 40.9834 12.4253C39.4443 12.1999 37.8778 12.2426 36.3533 12.5515C34.8731 12.8549 33.4572 13.4138 32.1689 14.2031C31.8039 13.4755 31.6353 12.6652 31.68 11.8523C31.7246 11.0395 31.9808 10.2525 32.4233 9.56923ZM36.7259 14.3783C39.9759 13.7156 43.4357 14.4962 46.7303 16.6353C50.0249 18.7743 52.1458 21.6171 52.863 24.8556C53.5339 27.8851 52.8997 31.0993 51.0771 33.9064C49.2546 36.7134 46.5766 38.6007 43.5364 39.2206C40.2862 39.8834 36.8267 39.103 33.5318 36.9637C30.2369 34.8245 28.1163 31.9819 27.3991 28.7435C26.7282 25.7139 27.3624 22.4997 29.1849 19.6926C31.0075 16.8855 33.6855 14.9983 36.7259 14.3783ZM13.4423 35.4041L14.1631 34.4475C17.079 30.8789 21.0851 29.3283 25.7808 29.9379C26.1792 31.317 26.793 32.6245 27.5994 33.812C24.519 34.7332 21.5352 36.9794 19.3372 40.0513C17.6949 39.2806 15.8239 39.2209 14.0677 39.7798C13.5115 39.2118 13.151 38.4813 13.0385 37.6943C12.926 36.9074 13.0675 36.1051 13.4423 35.4041ZM12.0159 53.0035C9.42908 51.324 8.91872 47.5025 10.8781 44.4846C12.8375 41.4667 16.5359 40.3778 19.1227 42.0574C21.7095 43.7369 22.2199 47.5583 20.2605 50.5762C18.3011 53.5941 14.6027 54.683 12.0159 53.0035ZM20.8498 56.5161C20.0457 55.9902 19.379 55.2796 18.9054 54.4437C20.0801 53.7241 21.0778 52.7493 21.8242 51.5915C24.1452 48.0166 23.6838 43.5111 20.8995 41.0728C23.0296 38.1211 25.9348 36.045 28.846 35.4127C29.925 36.6102 31.1595 37.6577 32.5165 38.5275C33.8677 39.4163 35.3322 40.1195 36.8708 40.6181C37.4837 43.5378 36.7766 47.0254 34.9365 50.1867C31.5764 48.6352 27.2728 50.0469 24.9517 53.622C24.1978 54.775 23.7133 56.083 23.534 57.4489C22.5777 57.3564 21.6574 57.0366 20.8498 56.5161ZM27.6532 63.1561C25.0664 61.4766 24.556 57.6552 26.5154 54.6373C28.4748 51.6194 32.1732 50.5305 34.76 52.21C37.3468 53.8895 37.8572 57.711 35.8978 60.7289C33.9384 63.7468 30.24 64.8356 27.6532 63.1561ZM37.4615 61.7441L40.589 63.7747C40.7963 63.9093 41.0487 63.956 41.2905 63.9046C41.5323 63.8532 41.7438 63.7078 41.8785 63.5004L44.9243 58.8092C45.0589 58.6019 45.1056 58.3495 45.0542 58.1077C45.0028 57.8659 44.8574 57.6544 44.65 57.5197L43.5903 56.8317C43.9955 56.5215 44.356 56.1568 44.6615 55.748C44.6868 55.7143 44.7098 55.6789 44.7303 55.6421L44.8497 55.4265L48.0109 57.4789L41.9193 66.8613L36.2886 63.2055C36.7274 62.7588 37.1203 62.2692 37.4615 61.7441ZM52.8654 73.9681L43.483 67.8765L49.5746 58.4942L58.957 64.5858L52.8654 73.9681Z" fill="white" fill-opacity="0.3"/>
<path d="M46.8439 67.8357L51.535 70.8815C51.6683 70.968 51.8215 71.0191 51.98 71.0297C52.1386 71.0404 52.2972 71.0104 52.4409 70.9425C52.5846 70.8746 52.7085 70.7711 52.8009 70.6419C52.8934 70.5126 52.9512 70.3619 52.969 70.204L53.6692 63.9899C53.6886 63.8179 53.6596 63.6439 53.5857 63.4874C53.5117 63.3308 53.3957 63.198 53.2505 63.1038C53.1053 63.0095 52.9367 62.9575 52.7637 62.9537C52.5906 62.9498 52.4199 62.9942 52.2706 63.0819L46.8793 66.2502C46.7423 66.3307 46.6281 66.4448 46.5476 66.5819C46.4672 66.7189 46.4231 66.8742 46.4195 67.0331C46.416 67.1919 46.4531 67.3491 46.5274 67.4895C46.6016 67.63 46.7106 67.7492 46.8439 67.8357ZM51.6078 65.6339L51.2853 68.4964L49.1242 67.0933L51.6078 65.6339Z" fill="white" fill-opacity="0.3"/>
</g>
<defs>
<clipPath id="clip0">
<rect width="59.661" height="59.661" fill="white" transform="translate(33.0916) rotate(32.994)"/>
</clipPath>
</defs>
</svg>
