<svg width="73" height="73" viewBox="0 0 73 73" fill="none" xmlns="http://www.w3.org/2000/svg">
<g clip-path="url(#clip0)">
<path d="M50.8185 50.9593C52.1022 49.6756 52.1022 47.5943 50.8185 46.3106C49.5348 45.0269 47.4535 45.0269 46.1698 46.3106C44.8861 47.5943 44.8861 49.6756 46.1698 50.9593C47.4535 52.243 49.5348 52.243 50.8185 50.9593Z" fill="white" fill-opacity="0.3"/>
<path d="M46.592 11.2859C36.9951 10.9483 27.9903 14.4818 21.2357 21.2363C14.4819 27.9903 10.9484 36.9951 11.2859 46.5921C11.3246 47.6915 12.2474 48.5516 13.3469 48.5129C14.4465 48.4741 15.3066 47.5515 15.2678 46.4519C14.9695 37.9719 18.0895 30.0174 24.0536 24.0531C30.0173 18.0895 37.9718 14.9695 46.4519 15.2679C47.0269 15.2881 47.5537 15.0625 47.9309 14.6853C48.2748 14.3414 48.4944 13.8714 48.5129 13.347C48.5515 12.2474 47.6916 11.3246 46.592 11.2859Z" fill="white" fill-opacity="0.3"/>
<path d="M47.2369 22.276C40.3667 22.2501 34.0355 24.7836 29.4095 29.4099C24.7824 34.0371 22.2489 40.3685 22.2756 47.2375C22.2799 48.3378 23.1753 49.2262 24.2755 49.2219C25.3758 49.2176 26.2643 48.3223 26.26 47.222C26.2374 41.4231 28.3564 36.0978 32.2269 32.2273C36.0963 28.3576 41.4216 26.2386 47.2219 26.2604C47.7747 26.2625 48.2758 26.0392 48.6381 25.6769C48.9967 25.3182 49.2194 24.8231 49.2216 24.2756C49.2257 23.1754 48.3372 22.2801 47.2369 22.276Z" fill="white" fill-opacity="0.3"/>
<path d="M47.4335 33.7481C43.7851 33.7651 40.0302 35.2642 37.6339 37.6605C37.6336 37.6608 37.6331 37.6613 37.6328 37.6616L37.5313 37.7631C37.5309 37.7635 37.5307 37.7637 37.5303 37.7641C35.1339 40.1605 33.6346 43.9156 33.6177 47.5639C33.6126 48.6641 34.5003 49.5602 35.6006 49.5653C36.1541 49.5679 36.6559 49.3445 37.0186 48.9818C37.3769 48.6235 37.5995 48.1292 37.602 47.5825C37.614 44.9853 38.6917 42.2374 40.3478 40.5814C40.348 40.5811 40.3483 40.5809 40.3485 40.5806L40.4504 40.4787C40.4507 40.4784 40.4508 40.4784 40.4511 40.4781C42.1069 38.8223 44.855 37.7445 47.452 37.7325C48.5521 37.7274 49.4402 36.8314 49.4349 35.731C49.4299 34.6308 48.5337 33.743 47.4335 33.7481Z" fill="white" fill-opacity="0.3"/>
</g>
<defs>
<clipPath id="clip0">
<rect width="51" height="51" fill="white" transform="translate(0 36.0625) rotate(-45)"/>
</clipPath>
</defs>
</svg>
