<svg width="29" height="30" viewBox="0 0 29 30" fill="none" xmlns="http://www.w3.org/2000/svg">
<path d="M28.239 22.9995L22.3693 19.0486C21.6244 18.5513 20.626 18.7149 20.0753 19.4247L18.3655 21.6435C18.1457 21.9359 17.7463 22.0208 17.4284 21.8425L17.1032 21.6616C16.025 21.0684 14.6835 20.33 11.9806 17.601C9.27776 14.8719 8.54466 13.5169 7.95698 12.4307L7.77865 12.1024C7.59963 11.7817 7.68209 11.3768 7.97193 11.1533L10.1688 9.42806C10.8717 8.87219 11.0341 7.86469 10.5419 7.11265L6.62748 1.18829C6.12306 0.422464 5.11104 0.192568 4.33014 0.666363L1.87564 2.15451C1.10442 2.61213 0.538611 3.35326 0.296848 4.2226C-0.587011 7.47304 0.0779074 13.0828 8.26534 21.3474C14.7783 27.9205 19.6269 29.6882 22.9594 29.6882C23.7264 29.6915 24.4904 29.5907 25.2308 29.3887C26.0923 29.145 26.8267 28.5738 27.2798 27.7952L28.7557 25.3193C29.2258 24.531 28.9981 23.5089 28.239 22.9995ZM27.923 24.8188L26.4505 27.2962C26.1251 27.8582 25.5969 28.2714 24.9765 28.4493C22.0035 29.2731 16.8094 28.5907 8.94912 20.6573C1.08885 12.7238 0.412831 7.48184 1.22907 4.48068C1.40554 3.85375 1.81544 3.31994 2.37293 2.99104L4.82743 1.50484C5.16626 1.29906 5.6055 1.39881 5.82438 1.73113L7.95075 4.95327L9.73546 7.65497C9.94919 7.98118 9.87897 8.4184 9.57406 8.65978L7.37667 10.385C6.70796 10.9011 6.51699 11.8349 6.92871 12.576L7.10319 12.896C7.72083 14.0393 8.4887 15.4616 11.2921 18.2907C14.0955 21.1196 15.5042 21.8947 16.6365 22.5181L16.954 22.6946C17.6882 23.1101 18.6135 22.9174 19.1248 22.2425L20.8341 20.0246C21.0733 19.7171 21.5063 19.6462 21.8296 19.8617L27.6988 23.8126C28.0283 24.0334 28.1271 24.4769 27.923 24.8188Z" fill="white"/>
<path d="M16.4324 5.30043C20.9676 5.30552 24.6428 9.01497 24.6479 13.5923C24.6479 13.8617 24.8642 14.0801 25.1311 14.0801C25.398 14.0801 25.6144 13.8617 25.6144 13.5923C25.6088 8.47642 21.5012 4.33055 16.4324 4.32495C16.1655 4.32495 15.9492 4.5433 15.9492 4.81269C15.9492 5.08208 16.1655 5.30043 16.4324 5.30043Z" fill="white"/>
<path d="M16.4324 8.22609C19.3669 8.22958 21.7448 10.6297 21.7483 13.5915C21.7483 13.8609 21.9647 14.0792 22.2315 14.0792C22.4984 14.0792 22.7148 13.8609 22.7148 13.5915C22.7108 10.0912 19.9004 7.25461 16.4324 7.25061C16.1655 7.25061 15.9492 7.46896 15.9492 7.73835C15.9492 8.00774 16.1655 8.22609 16.4324 8.22609Z" fill="white"/>
<path d="M16.4324 11.1534C17.7662 11.155 18.8471 12.2459 18.8488 13.5922C18.8488 13.8616 19.0651 14.08 19.332 14.08C19.5989 14.08 19.8152 13.8616 19.8152 13.5922C19.8131 11.7074 18.2998 10.18 16.4324 10.1779C16.1655 10.1779 15.9492 10.3962 15.9492 10.6656C15.9492 10.935 16.1655 11.1534 16.4324 11.1534Z" fill="white"/>
</svg>
