<svg width="126" height="114" viewBox="0 0 126 114" fill="none" xmlns="http://www.w3.org/2000/svg">
<path d="M73.3483 54.7493C73.5827 54.0335 73.1406 53.3152 72.3608 53.1448C71.581 52.9745 70.7588 53.4166 70.5243 54.1324C70.2899 54.8482 70.732 55.5666 71.5118 55.7369C72.2916 55.9072 73.1138 55.4651 73.3483 54.7493Z" fill="#ECECEC" fill-opacity="0.3"/>
<path d="M71.153 61.9074C71.3874 61.1916 70.9453 60.4732 70.1655 60.3029C69.3857 60.1326 68.5635 60.5747 68.329 61.2905C68.0946 62.0063 68.5367 62.7246 69.3165 62.895C70.0963 63.0653 70.9185 62.6231 71.153 61.9074Z" fill="#ECECEC" fill-opacity="0.3"/>
<path d="M29.8707 2.77828C29.1536 3.16419 28.8848 3.98469 29.2703 4.61124L31.4157 8.09703C27.3566 11.0151 26.0035 16.1526 28.4612 20.1466C29.767 22.2679 31.94 23.7538 34.5801 24.3305C36.7434 24.8031 39.0077 24.6177 41.0909 23.8175L42.5371 26.1673L30.8498 32.4524C30.1329 32.8383 29.8638 33.6587 30.2495 34.2854L35.8355 43.3617C36.0208 43.6626 36.3351 43.8775 36.7098 43.9594C37.0844 44.0412 37.488 43.9831 37.8326 43.798L49.5202 37.5129L50.9166 39.7819L44.4237 43.2736C40.8433 45.1994 39.4969 49.3102 41.4221 52.4383C43.3472 55.5661 47.8261 56.5445 51.4065 54.6192L57.8994 51.1275L59.2959 53.3964L52.803 56.8881C51.0688 57.8209 49.8013 59.2878 49.2343 61.0188C48.6674 62.7498 48.8688 64.5375 49.8013 66.0526C50.2829 66.8352 50.9451 67.5087 51.7402 68.0301C51.8227 68.9349 52.1126 69.8085 52.5943 70.5909C54.5195 73.719 58.9984 74.6973 62.5788 72.7718L69.0718 69.2801L70.4682 71.5491L58.7807 77.8343C58.4364 78.0195 58.1797 78.3167 58.0671 78.6604C57.9545 79.0041 57.9952 79.3663 58.1804 79.6671L63.7666 88.7435C63.9518 89.0445 64.2662 89.2595 64.6408 89.3413C65.0155 89.4232 65.419 89.365 65.7637 89.1798L70.9581 86.3864C71.6752 86.0007 71.944 85.18 71.5584 84.5536C71.1726 83.927 70.2787 83.7317 69.5615 84.1174L65.6658 86.2125L61.4762 79.4052L73.6069 72.8817C73.4282 73.2772 73.2706 73.6826 73.1352 74.0959C72.1147 77.2116 72.4771 80.4296 74.1558 83.1568C74.5416 83.7835 75.4355 83.9787 76.1527 83.593L77.4512 82.8947L78.8721 85.2032C74.5563 87.8801 71.4044 91.7688 69.9258 96.2832C69.5856 97.3218 69.7065 98.3944 70.2659 99.3036C70.8255 100.213 71.7568 100.85 72.8883 101.097C75.2239 101.607 77.6956 100.278 78.3978 98.1338C79.1963 95.6964 80.8374 93.5749 83.0791 92.0388L85.1728 95.4409C85.9345 96.6784 87.1069 97.6136 88.5631 98.1451L93.9206 100.101C94.7934 100.42 95.4961 100.981 95.9531 101.723C96.5127 102.633 96.6337 103.705 96.2935 104.744C95.9533 105.782 95.1928 106.663 94.1521 107.222C92.0041 108.377 89.3168 107.79 88.1616 105.914C87.776 105.287 86.8819 105.092 86.1649 105.478C85.4478 105.863 85.1788 106.684 85.5647 107.31C87.4898 110.438 91.9687 111.417 95.549 109.491C97.3392 108.528 98.5708 107.019 99.1144 105.36C99.6579 103.7 99.5133 101.891 98.5507 100.327C97.7892 99.0892 96.6168 98.1539 95.1604 97.6223L89.8028 95.6658C88.93 95.3472 88.2272 94.7863 87.7702 94.0437L85.6763 90.6416C88.2238 89.6023 91.0107 89.3426 93.6661 89.9224C96.0017 90.4326 98.4734 89.1035 99.1755 86.9597C99.5158 85.9208 99.3951 84.8482 98.8354 83.9392C98.276 83.03 97.3446 82.3932 96.2131 82.1461C91.295 81.0718 86.1143 81.6639 81.4694 83.8059L80.0485 81.4974L91.7361 75.2122C92.0946 75.0194 92.3411 74.7177 92.4497 74.3861C92.5583 74.0545 92.5292 73.6926 92.3364 73.3794L86.7504 64.303C86.5651 64.002 86.2508 63.787 85.8761 63.7052C85.5015 63.6234 85.0979 63.6815 84.7532 63.8667L79.5696 66.6543C79.566 66.6561 79.5623 66.6581 79.5586 66.6601C79.5479 66.6659 79.537 66.6719 79.5261 66.6776L73.0657 70.1518L71.6693 67.8827L78.1622 64.391C79.9525 63.4282 81.1841 61.9191 81.7277 60.2596C82.2712 58.6001 82.1266 56.7905 81.164 55.2263C80.6823 54.4439 80.0201 53.7704 79.225 53.249C79.1425 52.3442 78.8526 51.4708 78.3709 50.6882C76.4457 47.5603 71.9668 46.582 68.3864 48.5073L61.8934 51.999L60.497 49.73L66.9899 46.2383C68.7802 45.2754 70.0118 43.7664 70.5553 42.107C71.0989 40.4473 70.9543 38.6377 69.9917 37.0735C68.0664 33.9456 63.5875 32.9672 60.0071 34.8925L53.5142 38.3842L52.1177 36.1162L63.805 29.8311C64.1493 29.6458 64.406 29.3487 64.5186 29.0048C64.6313 28.6609 64.5904 28.2991 64.4054 27.998L58.8192 18.9215C58.4333 18.2949 57.5394 18.0996 56.8222 18.4853L45.1349 24.7704L43.6887 22.4206C45.476 21.1395 46.7857 19.4028 47.436 17.4172C48.2297 14.9939 47.9478 12.4911 46.6423 10.3696C44.1841 6.37588 38.7528 4.88711 34.0134 6.70035L31.8679 3.21436C31.482 2.58788 30.5881 2.39262 29.8707 2.77828ZM95.3638 84.7385C95.7411 84.8209 96.0516 85.0332 96.2381 85.3361C96.4245 85.639 96.4648 85.9965 96.3514 86.3426C96.1172 87.0575 95.2935 87.5005 94.5148 87.3304C90.6307 86.482 86.5192 87.0755 82.938 89.0013C79.357 90.9272 76.7415 93.9512 75.5735 97.5165C75.3394 98.2312 74.5157 98.6742 73.737 98.5041C73.3597 98.4217 73.0494 98.2095 72.8629 97.9066C72.6764 97.6034 72.6361 97.246 72.7495 96.8997C74.1434 92.6441 77.2662 89.0338 81.5427 86.7341C85.8191 84.4346 90.7277 83.7256 95.3638 84.7385ZM80.9235 68.9466L84.851 66.8345L89.0404 73.6417L76.1457 80.576C75.3803 78.7371 75.3085 76.6981 75.9589 74.7123C76.7492 72.2996 78.5117 70.2531 80.9235 68.9466ZM69.7829 50.7772C71.931 49.6219 74.6185 50.2089 75.7734 52.0857C76.1409 52.6826 76.3226 53.3679 76.2982 54.0674C76.2817 54.5441 76.5486 54.9776 76.9978 55.2038C77.6567 55.5359 78.1992 56.0267 78.5665 56.6238C79.7218 58.5005 78.9135 60.9672 76.7654 62.1225L61.182 70.5028C59.034 71.6581 56.3464 71.0711 55.1915 69.1943C54.824 68.5972 54.6424 67.912 54.6667 67.2126C54.6832 66.7359 54.4163 66.3024 53.9671 66.0761C53.3084 65.7441 52.766 65.2531 52.3983 64.656C51.8389 63.7468 51.718 62.6742 52.0582 61.6356C52.3983 60.597 53.1589 59.7169 54.1996 59.1573L69.7829 50.7772ZM52.6878 50.9099L50.0099 52.35C47.8617 53.5051 45.1742 52.9181 44.0192 51.0415C43.4596 50.1324 43.3387 49.0598 43.6789 48.0211C44.0191 46.9825 44.7796 46.1024 45.8202 45.5429L48.4981 44.1028C48.7665 45.319 49.3723 46.6341 50.0792 47.7826C50.7862 48.931 51.698 50.0817 52.6878 50.9099ZM55.4884 49.4039C55.0141 49.1844 53.8577 48.3046 52.6768 46.3857C51.4952 44.466 51.2631 43.0895 51.2989 42.5966L55.9257 40.1085C56.4 40.3282 57.5563 41.2081 58.737 43.1266C59.9189 45.0467 60.1507 46.423 60.1149 46.9159L55.4884 49.4039ZM58.7258 38.6027L61.4036 37.1626C62.4441 36.6029 63.6404 36.4307 64.7718 36.6779C65.9035 36.9251 66.8347 37.562 67.3941 38.4711C67.9538 39.3802 68.0747 40.4528 67.7345 41.4915C67.3943 42.5301 66.6338 43.4102 65.5931 43.9697L62.9131 45.4109C62.6448 44.1943 62.0413 42.879 61.3342 41.7298C60.6273 40.5816 59.7155 39.4311 58.7258 38.6027ZM50.6283 33.897L37.7345 40.8307L33.5451 34.0234L37.4409 31.9284C39.8692 30.6226 42.6603 30.2211 45.3005 30.7978C47.464 31.2702 49.3125 32.3541 50.6283 33.897ZM56.92 21.4529L61.1097 28.2602L53.2445 32.4897C51.5411 30.3468 49.0686 28.8429 46.1495 28.2053C45.6982 28.1067 45.2433 28.032 44.7869 27.9777L56.92 21.4529ZM44.0447 11.7665C44.9775 13.2818 45.1787 15.0695 44.6118 16.8005C44.0448 18.5315 42.7775 19.9984 41.0429 20.9311C39.3087 21.8639 37.3151 22.1505 35.4292 21.7386C33.5433 21.3267 31.9911 20.2655 31.0586 18.75C30.0958 17.1859 29.9513 15.3765 30.4949 13.7169C31.0382 12.0581 32.2696 10.5491 34.0586 9.58647C37.642 7.66072 42.1201 8.63906 44.0447 11.7665Z" fill="#ECECEC" fill-opacity="0.3"/>
</svg>
