<svg width="74" height="76" viewBox="0 0 74 76" fill="none" xmlns="http://www.w3.org/2000/svg">
<path d="M69.8116 8.93549C65.7238 2.01947 58.3315 0.709258 52.5462 3.67124C47.9346 -0.475272 38.9555 -1.17072 34.5628 3.37767C25.6618 -2.29615 15.1797 3.81524 15.5982 14.429C9.49535 15.9993 5.60892 24.1836 6.85782 30.291C4.33617 31.822 2.33298 34.4899 1.41882 37.5738C-2.22172 53.4413 17.929 62.753 42.8661 70.6163C45.0905 76.4872 53.3229 77.1236 56.4028 71.6518C56.4033 71.6508 56.4039 71.65 56.4044 71.649C57.7296 69.275 60.5585 67.6267 63.2601 67.6559C64.622 67.6537 65.8998 67.2852 67.0021 66.6429C70.8911 64.4919 72.0484 58.8499 69.1398 55.3057C74.6034 31.0957 74.795 17.6474 69.8116 8.93549ZM67.1917 10.4622C71.6589 18.2715 71.4758 30.7153 66.5116 53.1812C65.6385 52.755 64.6872 52.5029 63.7002 52.4425C64.3613 30.4152 61.2062 14.0657 54.7604 5.9837C59.1167 4.3208 64.1845 5.37879 67.1917 10.4622ZM41.8002 3.35252C58.3057 2.169 61.1456 29.0295 60.6688 52.5702C60.0105 52.6433 59.3573 52.7446 58.7108 52.8733C50.9826 27.4664 44.2921 12.3892 36.9775 5.26778C38.0783 4.2583 39.8209 3.55208 41.8002 3.35252ZM23.0781 5.40251C32.7325 0.248121 40.2726 12.8055 45.377 24.4882C48.708 31.9925 52.2076 41.802 55.7855 53.66C52.9728 54.617 50.3589 56.1404 48.1311 58.1204C39.7455 49.0642 33.0786 41.1003 28.3048 34.4366C20.8264 24.0924 13.8211 11.3134 23.0781 5.40251ZM11.9718 20.7221C13.1305 19.1021 14.602 17.9403 16.0129 17.4848C18.4641 27.4356 28.0596 40.8289 45.9933 60.2841C45.5596 60.7848 45.1462 61.3053 44.7543 61.844C24.338 50.5021 2.66039 34.568 11.9718 20.7221ZM4.31798 38.4532C4.92246 36.4145 6.18173 34.5733 7.7342 33.3827C11.4441 43.0587 23.8956 53.9929 43.1291 64.4302C42.6876 65.3233 42.4282 66.2808 42.3574 67.2568C20.1398 60.1845 1.337 51.5105 4.31798 38.4532ZM67.7536 60.0354C67.8108 62.4834 65.6777 64.6466 63.2553 64.5997C61.3726 64.5988 59.4869 65.1173 57.8021 66.0991C57.7999 66.1002 57.7983 66.1011 57.7967 66.1023C56.1123 67.0838 54.7248 68.4722 53.7844 70.1169C52.537 72.2904 49.7703 73.0314 47.6171 71.7694C45.4929 70.5818 44.7148 67.6324 45.9753 65.5379C47.7427 62.4516 50.2592 59.8982 53.2529 58.1536C56.2466 56.4091 59.6959 55.486 63.2292 55.4845C65.6543 55.4302 67.7983 57.5853 67.7536 60.0354Z" fill="white" fill-opacity="0.3"/>
</svg>
