<svg width="111" height="111" viewBox="0 0 111 111" fill="none" xmlns="http://www.w3.org/2000/svg">
<g clip-path="url(#clip0)">
<path d="M60.1288 44.2231C57.8327 45.5487 55.8596 47.2816 54.2646 49.3731C53.7365 50.0656 53.8699 51.0551 54.5623 51.5832C55.2549 52.1114 56.2441 51.9776 56.7724 51.2855C58.113 49.5273 59.7728 48.0702 61.7056 46.9543C69.6874 42.346 79.93 45.0906 84.5382 53.0722C89.1464 61.0538 86.402 71.2966 78.4202 75.9048C70.4385 80.5131 60.1958 77.7685 55.5876 69.7868C54.4734 67.857 53.765 65.7683 53.4822 63.579C53.3706 62.7152 52.58 62.1056 51.7164 62.2172C50.8533 62.3289 50.2429 63.1194 50.3545 63.983C50.691 66.5878 51.5328 69.071 52.8565 71.3637C58.3342 80.8514 70.5094 84.1137 79.9971 78.636C89.4848 73.1583 92.7471 60.9831 87.2694 51.4954C81.7917 42.0076 69.6165 38.7453 60.1288 44.2231Z" fill="white"/>
<path d="M76.528 72.6279C82.7025 69.063 84.8256 61.1395 81.2608 54.965C77.6959 48.7904 69.7724 46.6673 63.5978 50.2322C57.4233 53.797 55.3002 61.7206 58.8651 67.8951C62.4299 74.0697 70.3536 76.1927 76.528 72.6279ZM65.1747 52.9634C69.8432 50.268 75.8343 51.8734 78.5296 56.5418C81.2249 61.2102 79.6197 67.2013 74.9511 69.8967C70.2826 72.5921 64.2916 70.9868 61.5962 66.3183C58.9008 61.6497 60.5061 55.6588 65.1747 52.9634Z" fill="white"/>
<path d="M75.9103 26.3725L71.7561 28.7709L62.3296 23.4548C61.8438 23.1808 61.2495 23.1838 60.7666 23.4626L41.8303 34.3955C41.3473 34.6743 41.0476 35.1875 41.042 35.7451L40.9327 46.5668L33.1284 51.0726L32.1823 49.4339C30.6172 46.723 27.1387 45.7909 24.4279 47.3561C21.717 48.9212 20.7849 52.3997 22.35 55.1105L23.2962 56.7492L19.8434 58.7427C16.0245 60.9475 14.7114 65.8481 16.9163 69.6671L36.3562 103.338C38.5611 107.157 43.4617 108.47 47.2806 106.265L103.347 73.8952C107.166 71.6903 108.479 66.7897 106.274 62.9707L86.8345 29.2998C84.6297 25.4807 79.729 24.1677 75.9103 26.3725ZM44.1864 36.6768L61.5641 26.6437L68.5837 30.6024L44.1049 44.7353L44.1864 36.6768ZM25.0812 53.5337C24.3857 52.3289 24.8 50.7828 26.0047 50.0872C27.2094 49.3917 28.7556 49.806 29.4511 51.0107L30.3972 52.6494L26.0273 55.1724L25.0812 53.5337ZM103.543 64.5475C104.879 66.8605 104.084 69.8285 101.771 71.1639L45.7037 103.534C43.3908 104.869 40.4227 104.074 39.0874 101.761L19.6475 68.0903C18.3121 65.7772 19.1073 62.8092 21.4202 61.4739L77.487 29.1037C79.7999 27.7684 82.7679 28.5637 84.1033 30.8767L103.543 64.5476L103.543 64.5475Z" fill="white"/>
<path d="M68.5255 58.767C69.9939 57.9192 71.8781 58.4242 72.7258 59.8925C73.1613 60.6467 74.1256 60.9051 74.8798 60.4696C75.634 60.0342 75.8924 59.0698 75.457 58.3156C73.7398 55.3413 69.9229 54.3186 66.9486 56.0358C66.1944 56.4712 65.9361 57.4357 66.3715 58.1898C66.8068 58.9439 67.7713 59.2024 68.5255 58.767Z" fill="white"/>
<path d="M49.2241 25.3363C49.9783 24.9009 50.2366 23.9364 49.8013 23.1823L45.5932 15.8937C45.1579 15.1396 44.1934 14.8811 43.4392 15.3166C42.685 15.752 42.4266 16.7164 42.862 17.4706L47.0701 24.7591C47.5055 25.5134 48.4699 25.7718 49.2241 25.3363Z" fill="white"/>
<path d="M55.7223 21.5846C56.0718 21.3829 56.3443 21.0476 56.457 20.6271L58.5747 12.7238C58.8001 11.8827 58.3008 11.018 57.4595 10.7926C56.6184 10.5673 55.7537 11.0665 55.5282 11.9075L53.4108 19.8109C53.1854 20.6521 53.6846 21.5168 54.5258 21.7423C54.9464 21.8549 55.3729 21.7864 55.7223 21.5846Z" fill="white"/>
<path d="M41.5295 29.2453C41.9501 29.3579 42.3766 29.2896 42.726 29.0878C43.0755 28.886 43.348 28.5508 43.4607 28.1303C43.6861 27.2892 43.187 26.4244 42.3458 26.1989L34.4425 24.0812C33.6015 23.8561 32.7367 24.3552 32.5112 25.1962C32.2859 26.0373 32.7849 26.9021 33.6262 27.1276L41.5295 29.2453Z" fill="white"/>
<path d="M38.2279 63.0585L31.1268 67.1584C30.3726 67.5938 30.1143 68.5583 30.5497 69.3124C30.9851 70.0666 31.9495 70.325 32.7037 69.8895L39.8048 65.7897C40.559 65.3543 40.8174 64.3899 40.3819 63.6357C39.9465 62.8815 38.9821 62.6231 38.2279 63.0585Z" fill="white"/>
<path d="M53.182 58.0663C53.5412 57.8589 53.8092 57.5094 53.9165 57.1088C54.0239 56.7081 53.9673 56.2727 53.7592 55.9123C53.5518 55.5531 53.2023 55.2852 52.8017 55.1778C52.4011 55.0706 51.9643 55.1278 51.6052 55.3351C51.246 55.5425 50.9781 55.892 50.8707 56.2926C50.762 56.6941 50.8207 57.1301 51.028 57.4891C51.2354 57.8483 51.5835 58.117 51.9856 58.2236C52.3862 58.331 52.8215 58.2744 53.182 58.0663Z" fill="white"/>
</g>
<defs>
<clipPath id="clip0">
<rect width="80.7347" height="80.7347" fill="white" transform="translate(0 40.3672) rotate(-30)"/>
</clipPath>
</defs>
</svg>
