<svg width="149" height="149" viewBox="0 0 149 149" fill="none" xmlns="http://www.w3.org/2000/svg">
<g clip-path="url(#clip0)">
<path d="M76.1969 68.2462C77.3772 65.969 78.1939 63.5961 78.7304 61.2056C83.7754 55.8362 88.2088 49.886 91.9075 43.5138C91.9097 43.5102 91.9118 43.5065 91.914 43.5029C97.0648 34.6263 94.3954 23.2368 85.8366 17.5734C73.5122 9.41833 56.8509 12.8103 48.6955 25.1352C45.842 29.4476 43.2959 34.0118 41.1196 38.7045C39.5455 39.8768 38.0903 41.2267 36.8126 42.7843C32.756 47.7285 31.0499 53.904 31.7091 61.197C30.602 63.5773 29.3779 65.9336 28.066 68.2045C27.6476 68.9287 27.8706 69.8476 28.5589 70.3031C28.5857 70.3208 28.6132 70.3377 28.6414 70.3541C29.3939 70.7889 30.3565 70.5312 30.791 69.7787C31.4043 68.7168 31.9968 67.6356 32.5704 66.5437C32.6303 66.8077 32.6916 67.0725 32.7573 67.3391C33.4056 69.9807 36.0842 71.6034 38.7298 70.9562C41.3727 70.3072 42.9953 67.6281 42.3467 64.9837C40.6688 58.1517 41.3754 52.7899 44.4465 49.0471C49.9536 42.3338 61.9195 41.2111 67.9048 41.0907C71.5234 53.6467 68.8023 61.0542 67.4299 63.702C65.0342 68.3232 60.5732 71.5263 54.171 73.2225C52.8961 73.5603 51.8291 74.3743 51.1666 75.5146C50.5042 76.6549 50.3253 77.9849 50.6631 79.2598C50.9734 80.4307 51.7006 81.4437 52.7105 82.112C53.3688 82.5476 54.115 82.8139 54.8833 82.9007C54.4042 83.5826 53.9333 84.2698 53.4761 84.9608L44.2852 98.8506C40.1582 105.088 31.7266 106.804 25.4898 102.677C19.253 98.5502 17.5364 90.1185 21.6633 83.8817L27.1734 75.5545C27.653 74.8298 27.4542 73.8535 26.7295 73.3739C26.0047 72.8944 25.0284 73.0931 24.5489 73.8179L19.0388 82.145C13.9541 89.8292 16.0691 100.217 23.7531 105.302C31.4371 110.386 41.8252 108.271 46.9097 100.587L56.1007 86.6975C57.1735 85.0762 58.3143 83.4718 59.4919 81.9234C67.2423 79.283 72.8554 74.6926 76.1969 68.2462ZM84.0999 20.1979C91.2679 24.941 93.5058 34.4779 89.1973 41.9139C89.1953 41.9173 89.1934 41.9206 89.1913 41.924C86.3842 46.7613 83.1379 51.3453 79.5131 55.6058C80.0907 46.2939 77.3127 37.6612 76.1286 34.4708C75.4331 32.6053 73.7014 31.3447 71.7185 31.2591C67.485 31.0714 55.8097 31.0634 46.1059 35.7157C47.6943 32.6803 49.4365 29.7185 51.3204 26.8714C58.5179 15.9942 73.2227 13.0005 84.0999 20.1979ZM55.8943 79.7258C55.4007 79.8565 54.8735 79.7698 54.4472 79.4877C54.0814 79.2456 53.8179 78.8786 53.7054 78.4539C53.5829 77.9915 53.6478 77.5094 53.8881 77.0958C54.1282 76.6823 54.515 76.3871 54.9773 76.2648C62.2731 74.3319 67.4029 70.5925 70.2242 65.1505C72.2942 61.157 73.1522 56.238 72.7751 50.53C72.469 45.8953 71.4099 41.7224 70.5753 39.038C70.4647 38.6823 70.2362 38.3882 69.9408 38.1928C69.6892 38.0263 69.3891 37.9316 69.0719 37.9315C63.1836 37.9342 48.7594 38.8283 42.014 47.051C38.28 51.6016 37.364 57.8875 39.2907 65.734C39.5259 66.6929 38.9377 67.6647 37.981 67.8996C37.021 68.1346 36.049 67.5466 35.8138 66.5889C33.6033 57.5876 34.7578 50.2501 39.2456 44.7804C42.9176 40.3043 48.7216 37.2083 56.4963 35.5782C62.8107 34.2544 68.6567 34.2738 71.5815 34.4035C72.2997 34.4344 72.9272 34.8924 73.1791 35.5683C74.7856 39.8966 79.5492 54.9404 73.403 66.7982C70.0979 73.1736 64.2073 77.5233 55.8943 79.7258Z" fill="white" fill-opacity="0.3"/>
<path d="M114.807 96.6838C115.741 94.8988 116.415 93.0316 116.878 91.1245C120.347 87.2865 123.552 83.1586 126.406 78.8458C134.561 66.5213 131.169 49.8599 118.845 41.7049C110.286 36.0415 98.7592 38.0375 92.6031 46.249C92.6006 46.2524 92.5983 46.2556 92.5958 46.259C88.1766 52.155 84.4337 58.5613 81.4639 65.3044C79.4736 66.7329 77.6086 68.4122 75.9741 70.3888C71.3473 75.9847 69.3165 82.9458 69.9163 91.1118C68.9515 92.801 67.9209 94.4783 66.8481 96.0996L57.6572 109.989C52.5726 117.674 54.6876 128.062 62.3716 133.146C70.0555 138.231 80.4437 136.116 85.5282 128.432L91.7027 119.1C94.1465 115.407 96.8902 111.87 99.8575 108.579C106.827 106.334 111.843 102.35 114.807 96.6838ZM95.1205 48.1374C95.1227 48.1343 95.1251 48.1311 95.1274 48.1281C100.287 41.2554 109.94 39.5864 117.108 44.3295C127.985 51.527 130.979 66.2318 123.781 77.1095C121.897 79.957 119.853 82.7204 117.679 85.3695C118.169 74.6181 113.596 63.8737 111.769 60.0513C110.914 58.2582 109.076 57.1572 107.085 57.2465C103.687 57.4038 94.6549 58.2221 86.3097 62.3952C88.8144 57.393 91.7655 52.6127 95.1205 48.1374ZM93.2882 106.91C92.3151 107.068 91.394 106.403 91.2351 105.429C91.0771 104.455 91.7414 103.534 92.7157 103.375C100.691 102.081 106.119 98.7801 108.847 93.5646C111.194 89.079 111.635 83.1972 110.157 76.0824C109.981 75.2317 109.148 74.685 108.297 74.8618C107.446 75.0385 106.9 75.8716 107.076 76.7225C108.402 83.1062 108.06 88.2818 106.059 92.1059C103.815 96.3958 99.1556 99.1423 92.211 100.269C89.5241 100.706 87.6926 103.247 88.1285 105.935C88.5671 108.621 91.108 110.453 93.7923 110.016C94.0655 109.972 94.3355 109.925 94.6042 109.876C92.6373 112.28 90.7857 114.784 89.0785 117.364L82.9039 126.695L82.9036 126.695C78.7765 132.932 70.345 134.648 64.1082 130.521C57.8714 126.394 56.1548 117.963 60.2817 111.726L69.4726 97.836C69.9299 97.1448 70.3775 96.4422 70.8183 95.7346C71.1985 96.4081 71.7354 96.991 72.394 97.4268C73.4039 98.0951 74.6206 98.3684 75.8197 98.196C77.1252 98.0085 78.2794 97.3239 79.0699 96.2683C79.8605 95.2127 80.1926 93.9124 80.0051 92.6069C79.0631 86.0511 80.2674 80.6931 83.584 76.6812C85.4845 74.3827 91.2389 68.982 104.21 67.4036C104.611 68.4003 104.987 69.4142 105.334 70.4299C105.615 71.2525 106.509 71.6913 107.332 71.4104C108.154 71.1296 108.593 70.2353 108.312 69.4128C107.815 67.9563 107.26 66.5034 106.662 65.0943C106.392 64.4597 105.741 64.0743 105.056 64.1432C102.259 64.4247 98.004 65.0813 93.6183 66.6114C88.2172 68.496 84.0252 71.2089 81.1588 74.6754C77.2528 79.3998 75.8168 85.5834 76.8902 93.0541C76.9583 93.5273 76.8377 93.9988 76.5512 94.3816C76.2646 94.7642 75.8459 95.0125 75.3727 95.0805C74.9379 95.143 74.497 95.044 74.1312 94.8019C73.7049 94.5198 73.4188 94.0683 73.3463 93.563C72.1234 85.0507 73.8239 77.9283 78.4 72.3938C86.9109 62.1007 102.62 60.6036 107.229 60.3902C107.952 60.3578 108.619 60.7563 108.929 61.4068C110.191 64.0464 112.495 69.4196 113.745 75.749C115.284 83.5421 114.704 90.0948 112.02 95.2245C108.74 101.494 102.438 105.425 93.2882 106.91Z" fill="white" fill-opacity="0.3"/>
</g>
<defs>
<clipPath id="clip0">
<rect width="107.422" height="107.422" fill="white" transform="translate(59.2786) rotate(33.4926)"/>
</clipPath>
</defs>
</svg>
