<svg width="22" height="25" viewBox="0 0 22 25" fill="none" xmlns="http://www.w3.org/2000/svg">
<path d="M13.4912 18.2844C15.5078 14.869 18.0566 10.0676 18.0566 7.59951C18.0566 3.43624 14.7412 0.0507812 10.6641 0.0507812C6.58691 0.0507812 3.27148 3.43624 3.27148 7.59951C3.27148 10.0676 5.82031 14.869 7.83691 18.2844C5.44434 18.4689 0 19.132 0 21.3308C0 23.4947 5.52734 24.4819 10.6689 24.4819C15.8057 24.4819 21.3379 23.4947 21.3379 21.3308C21.333 19.132 15.8838 18.4689 13.4912 18.2844ZM4.29199 7.59951C4.29199 4.00962 7.15332 1.08786 10.6641 1.08786C14.1797 1.08786 17.041 4.00962 17.041 7.59951C17.041 10.7357 12.1484 18.6035 10.6641 20.917C9.17969 18.6035 4.29199 10.7357 4.29199 7.59951ZM10.6641 23.4399C4.41894 23.4399 1.01563 22.0438 1.01563 21.3258C1.01563 20.7724 3.26172 19.5807 8.4375 19.2766C9.40918 20.8771 10.1465 22.0089 10.2441 22.1435C10.376 22.323 10.7617 22.5374 11.0889 22.1435C11.1914 22.0189 11.9238 20.8771 12.8955 19.2766C18.0713 19.5807 20.3174 20.7674 20.3174 21.3258C20.3125 22.0488 16.9092 23.4399 10.6641 23.4399Z" fill="white"/>
<path d="M13.8818 7.59961C13.8818 5.78478 12.4414 4.31396 10.6641 4.31396C8.88672 4.31396 7.44629 5.78478 7.44629 7.59961C7.44629 9.41444 8.88672 10.8853 10.6641 10.8853C12.4414 10.8853 13.8818 9.41444 13.8818 7.59961ZM8.46191 7.59961C8.46191 6.35814 9.44824 5.35101 10.6641 5.35101C11.8799 5.35101 12.8662 6.35814 12.8662 7.59961C12.8662 8.84107 11.8799 9.84821 10.6641 9.84821C9.44824 9.84821 8.46191 8.84107 8.46191 7.59961Z" fill="white"/>
</svg>
