<svg width="118" height="121" viewBox="0 0 118 121" fill="none" xmlns="http://www.w3.org/2000/svg">
<path d="M71.055 103.542C70.8489 100.722 71.732 97.9876 73.5414 95.8427L73.5865 95.7892C73.5871 95.7885 73.5877 95.7875 73.5883 95.7866L75.4824 93.5411C75.4826 93.5408 75.4828 93.5408 75.483 93.5406L75.6444 93.3492L85.0117 68.0566C85.0509 67.9504 85.1083 67.852 85.1811 67.7658C87.1716 65.406 90.6713 65.1352 92.9826 67.162C94.1022 68.1439 94.7794 69.5121 94.8892 71.0148C94.9155 71.3758 94.9075 71.7338 94.8683 72.0859C96.5792 71.6143 98.4813 71.9844 99.9217 73.2477C101.041 74.2297 101.719 75.598 101.828 77.1007C101.855 77.4616 101.847 77.8197 101.807 78.1717C103.518 77.7002 105.421 78.0702 106.861 79.3338C107.98 80.3159 108.658 81.6841 108.767 83.1868C108.767 83.1871 108.767 83.1868 108.767 83.1871C108.794 83.5466 108.786 83.9036 108.747 84.2542C109.081 84.1622 109.426 84.1009 109.779 84.0736C111.252 83.9596 112.68 84.4377 113.799 85.4195C114.955 86.4332 115.598 87.832 115.703 89.273C115.809 90.7135 115.376 92.1955 114.381 93.3754C114.313 93.4571 114.231 93.5265 114.14 93.581L91.3406 107.185L89.271 109.638C87.4618 111.783 84.9428 113.083 82.178 113.297C79.4131 113.511 76.7337 112.614 74.6331 110.771C72.5314 108.929 71.261 106.361 71.055 103.542ZM89.1458 106.808L76.3044 95.5449L75.6539 96.3162L88.4955 107.579L89.1458 106.808ZM92.9886 71.1619C92.9166 70.177 92.4727 69.28 91.739 68.6363C90.2643 67.3428 88.0516 67.4765 86.7314 68.9113L79.2515 89.1078L92.1201 73.8513C92.752 73.1021 93.0606 72.1471 92.9886 71.1619ZM99.9276 77.2478C99.8556 76.2629 99.4117 75.3659 98.678 74.7222C97.1629 73.3933 94.8689 73.5709 93.5639 75.118L77.7972 93.8104L79.9525 95.7008L83.2919 98.6298L99.0588 79.9374C99.691 79.188 99.9996 78.2328 99.9276 77.2478ZM106.866 83.3338C106.794 82.3486 106.35 81.4516 105.617 80.8079C104.102 79.479 101.808 79.6566 100.503 81.2037L84.7359 99.8961L90.2309 104.716L105.858 86.1894L105.998 86.0231C106.63 85.2737 106.938 84.3187 106.866 83.3338ZM113.032 91.9906C114.232 90.4448 114.032 88.1889 112.555 86.8936C111.821 86.2499 110.885 85.9367 109.92 86.0114C108.954 86.0862 108.074 86.54 107.441 87.2894L106.644 88.2353L93.7928 103.471L113.032 91.9906ZM87.2174 109.022L74.445 97.8208C73.335 99.4461 72.8089 101.394 72.9551 103.394C73.1233 105.696 74.1605 107.792 75.8755 109.297C77.5905 110.801 79.7781 111.533 82.0354 111.358C83.9975 111.206 85.8074 110.384 87.2174 109.022Z" fill="white" fill-opacity="0.1"/>
<path d="M92.7557 14.9506L96.7731 10.1876C97.1163 9.78038 97.7182 9.73379 98.1168 10.0836C98.3161 10.2585 98.427 10.4991 98.4452 10.7472C98.4633 10.9953 98.3886 11.2503 98.2169 11.4539L94.1995 16.2169C93.8563 16.6241 93.2544 16.6707 92.8559 16.3209C92.4571 15.9711 92.4123 15.3578 92.7557 14.9506Z" fill="white" fill-opacity="0.1"/>
<path d="M81.4935 28.3157L91.1073 16.9183C91.4506 16.5111 92.0524 16.4645 92.451 16.8143C92.6504 16.9892 92.7613 17.2301 92.7794 17.4779C92.7975 17.7257 92.7228 17.9809 92.5511 18.1845L82.9373 29.5819C82.594 29.9891 81.9922 30.0357 81.5936 29.6859C81.1949 29.3364 81.1498 28.7231 81.4935 28.3157Z" fill="white" fill-opacity="0.1"/>
<path d="M14.5454 113.46C9.75578 109.259 6.94908 103.279 6.42932 96.1653C5.72113 86.4729 9.389 76.0842 16.4926 67.6626C28.9293 52.9183 48.1653 48.8242 59.8751 58.2376L78.0922 36.6402C78.1675 36.5509 78.2569 36.482 78.3523 36.4277L75.9841 34.3504C75.704 34.105 75.5891 33.7165 75.688 33.3535L76.8672 29.0388C76.8691 29.0315 76.8722 29.0246 76.8744 29.0173C76.8786 29.0042 76.8833 28.9914 76.8877 28.9785C76.9035 28.9325 76.9223 28.8882 76.9444 28.8457C76.9485 28.8373 76.9519 28.8291 76.9563 28.8209C76.9843 28.7711 77.0169 28.7245 77.0528 28.6805C77.0567 28.6756 77.059 28.6701 77.0632 28.6652L99.8206 1.68519C99.9856 1.48968 100.22 1.36884 100.472 1.34933C100.724 1.32983 100.973 1.41327 101.164 1.58119L110.073 9.39454C110.272 9.56941 110.383 9.81007 110.401 10.0581C110.419 10.306 110.345 10.5612 110.173 10.7648L87.4157 37.745C87.4116 37.75 87.4067 37.7533 87.4023 37.758C87.3656 37.7998 87.3264 37.8393 87.2829 37.8743C87.2784 37.8781 87.2732 37.8808 87.2686 37.8846C87.2288 37.9154 87.1864 37.9423 87.1419 37.9666C87.1306 37.9728 87.1194 37.9791 87.1082 37.9848C87.0997 37.9892 87.0918 37.9944 87.0831 37.9982L83.0752 39.8327C82.738 39.987 82.3441 39.9287 82.0645 39.6833L79.7035 37.6124C79.6653 37.7167 79.6117 37.8171 79.5364 37.9064L61.3199 59.5031C65.6754 63.6604 68.2307 69.3911 68.7241 76.1441C69.4323 85.8365 65.7647 96.2252 58.6611 104.647C52.537 111.907 44.6007 116.835 36.3144 118.522C27.9419 120.227 20.2112 118.429 14.5454 113.46ZM108.107 10.2357L100.643 3.68858L79.1289 29.1946L86.5935 35.7414L108.107 10.2357ZM84.9351 36.8521L78.3 31.0327L77.6862 33.2784L82.8492 37.8068L84.9351 36.8521ZM35.9436 116.616C43.8143 115.014 51.3694 110.313 57.2173 103.38C63.9931 95.347 67.4945 85.4735 66.8236 76.2912C66.3422 69.7028 63.763 64.1815 59.365 60.3241C48.5351 50.8259 29.9503 54.686 17.9364 68.9288C11.1603 76.9624 7.65872 86.8359 8.32963 96.018C8.81101 102.606 11.3906 108.128 15.7887 111.985C21.0011 116.557 28.1588 118.201 35.9436 116.616Z" fill="white" fill-opacity="0.1"/>
<path d="M31.2658 115.436C26.0139 115.459 21.0651 113.831 17.1546 110.401C12.8937 106.664 10.3973 101.345 9.93517 95.0202C9.30636 86.4143 12.5616 77.1915 18.8661 69.7173C24.6832 62.8209 32.4392 58.5071 39.7511 57.2316C41.0591 57.0159 42.6112 56.8935 43.8955 56.8725C49.1662 56.8383 54.134 58.4656 58.0571 61.9055C58.0576 61.9059 58.0583 61.9061 58.0588 61.9065C58.0593 61.9071 58.0597 61.9076 58.0602 61.908C61.896 65.2728 64.3264 70.1471 65.1049 75.656C65.1762 76.1927 65.2376 76.7346 65.278 77.2868C65.9068 85.893 62.6513 95.1157 56.3468 102.59C54.6504 104.601 52.8102 106.388 50.8746 107.943C50.8549 107.96 50.8352 107.977 50.8145 107.992C46.1446 111.729 40.9175 114.116 35.7775 115.023C34.5009 115.232 32.52 115.413 31.2658 115.436ZM48.7476 107.159L43.0694 102.178L34.6641 112.143L35.7264 113.074C40.147 112.246 44.6449 110.241 48.7476 107.159ZM63.435 80.2373L62.3669 79.3003L53.9617 89.2649L59.6476 94.2515C61.9864 89.7423 63.2969 84.9318 63.435 80.2373ZM57.5208 64.0337L53.4234 68.8914L62.1667 76.5598L63.1458 75.399C62.4413 70.8433 60.5224 66.9584 57.5208 64.0337ZM44.2105 58.8021L43.2366 59.9567L51.9796 67.6249L56.0754 62.7694C52.7105 60.1225 48.5897 58.8346 44.2105 58.8021ZM26.4656 65.1492L32.144 70.1295L40.5493 60.1647L39.4873 59.2335C35.0664 60.0615 30.5686 62.0666 26.4656 65.1492ZM11.7782 92.0709L12.8461 93.0077L21.2513 83.0431L15.5654 78.0562C13.2268 82.5657 11.9161 87.3762 11.7782 92.0709ZM17.6924 108.274L21.7898 103.417L13.0465 95.7482L12.0679 96.9089C12.7722 101.464 14.6908 105.349 17.6924 108.274ZM31.0025 113.506L31.9769 112.351L23.2336 104.683L19.138 109.538C22.5029 112.185 26.6238 113.473 31.0025 113.506ZM14.29 94.2739L23.0331 101.942L31.4384 91.9775L22.6951 84.3091L14.29 94.2739ZM32.6821 90.5032L41.0874 80.5384L32.3441 72.87L23.9388 82.8349L32.6821 90.5032ZM42.3309 79.064L50.7361 69.0994L41.9931 61.431L33.588 71.3958L42.3309 79.064ZM60.923 78.034L52.1797 70.3657L43.7746 80.3305L52.5179 87.9988L60.923 78.034ZM42.5311 81.8047L34.1259 91.7695L42.8694 99.4379L51.2746 89.4731L42.5311 81.8047ZM32.8823 93.2438L24.4773 103.209L33.2206 110.877L41.6256 100.912L32.8823 93.2438ZM20.3099 70.9838C18.8769 72.6827 17.6119 74.4753 16.5221 76.3299L22.4948 81.5686L30.9001 71.6038L24.9304 66.3681C23.3046 67.733 21.7533 69.2728 20.3099 70.9838ZM54.9031 101.324C56.3361 99.625 57.6009 97.8325 58.6909 95.978L52.7182 90.7393L44.3129 100.704L50.2825 105.94C51.9084 104.575 53.4599 103.035 54.9031 101.324Z" fill="white" fill-opacity="0.1"/>
</svg>
