<svg width="18" height="19" viewBox="0 0 18 19" fill="none" xmlns="http://www.w3.org/2000/svg">
<path d="M16.7829 14.3815L13.2944 12.006C12.8517 11.7069 12.2583 11.8053 11.931 12.2321L10.9149 13.5662C10.7843 13.742 10.5469 13.793 10.358 13.6859L10.1647 13.5771C9.52391 13.2204 8.72663 12.7764 7.12027 11.1355C5.5139 9.49462 5.07821 8.67988 4.72895 8.02677L4.62296 7.82939C4.51657 7.63651 4.56557 7.39308 4.73783 7.25866L6.04347 6.22134C6.46122 5.88711 6.55772 5.28133 6.2652 4.82914L3.93881 1.26696C3.63902 0.806484 3.03756 0.668253 2.57346 0.953135L1.11472 1.84792C0.656375 2.12308 0.320104 2.56871 0.176421 3.09142C-0.348869 5.04583 0.0463014 8.41885 4.91221 13.3882C8.78294 17.3404 11.6645 18.4033 13.6451 18.4033C14.1009 18.4053 14.555 18.3447 14.995 18.2232C15.507 18.0767 15.9435 17.7333 16.2128 17.2651L17.0899 15.7764C17.3693 15.3024 17.234 14.6878 16.7829 14.3815ZM16.595 15.4755L15.7199 16.965C15.5265 17.303 15.2126 17.5514 14.8439 17.6584C13.077 18.1537 9.99006 17.7434 5.31859 12.9732C0.647119 8.20301 0.245351 5.05112 0.730454 3.24659C0.835331 2.86964 1.07894 2.54867 1.41027 2.35091L2.86901 1.45729C3.07038 1.33356 3.33143 1.39354 3.46151 1.59336L4.72524 3.53075L5.78592 5.15523C5.91294 5.35137 5.87121 5.61426 5.69 5.7594L4.38406 6.79671C3.98663 7.10703 3.87314 7.66851 4.11783 8.11413L4.22153 8.30653C4.5886 8.99397 5.04495 9.84917 6.71106 11.5502C8.37717 13.2512 9.21439 13.7173 9.8873 14.0921L10.076 14.1982C10.5124 14.448 11.0622 14.3322 11.3661 13.9264L12.382 12.5928C12.5242 12.4079 12.7815 12.3653 12.9736 12.4949L16.4618 14.8704C16.6576 15.0032 16.7163 15.2699 16.595 15.4755Z" fill="white"/>
<path d="M9.76602 3.7388C12.4614 3.74186 14.6456 5.97197 14.6486 8.72386C14.6486 8.88582 14.7772 9.01709 14.9358 9.01709C15.0944 9.01709 15.223 8.88582 15.223 8.72386C15.2197 5.64819 12.7785 3.15571 9.76602 3.15234C9.60739 3.15234 9.47882 3.28361 9.47882 3.44557C9.47882 3.60753 9.60739 3.7388 9.76602 3.7388Z" fill="white"/>
<path d="M9.76602 5.49859C11.51 5.50068 12.9233 6.94367 12.9254 8.72434C12.9254 8.8863 13.054 9.01758 13.2126 9.01758C13.3712 9.01758 13.4998 8.8863 13.4998 8.72434C13.4974 6.61989 11.8271 4.91451 9.76602 4.91211C9.60739 4.91211 9.47882 5.04338 9.47882 5.20535C9.47882 5.36731 9.60739 5.49859 9.76602 5.49859Z" fill="white"/>
<path d="M9.76602 7.25816C10.5587 7.25912 11.2011 7.91481 11.2021 8.72395C11.2021 8.88586 11.3307 9.01709 11.4893 9.01709C11.6479 9.01709 11.7765 8.88586 11.7765 8.72395C11.7752 7.59116 10.8758 6.67315 9.76602 6.67188C9.60739 6.67188 9.47882 6.80311 9.47882 6.96502C9.47882 7.12693 9.60739 7.25816 9.76602 7.25816Z" fill="white"/>
</svg>
