<svg width="19" height="14" viewBox="0 0 19 14" fill="none" xmlns="http://www.w3.org/2000/svg">
<path d="M17.6077 0.480957H0.951792C0.428283 0.480957 0 0.918265 0 1.45277V12.1429C0 12.6774 0.428283 13.1147 0.951792 13.1147H17.6078C18.1312 13.1147 18.5596 12.6774 18.5596 12.1429V1.45277C18.5595 0.918265 18.1313 0.480957 17.6077 0.480957ZM17.2506 1.20978L9.82727 6.89505C9.6938 6.99876 9.48892 7.06364 9.27973 7.06268C9.07057 7.06364 8.86573 6.99876 8.73222 6.89505L1.30892 1.20978H17.2506ZM13.2853 7.27017L17.3303 12.3723C17.3344 12.3774 17.3394 12.3813 17.3437 12.3859H1.21587C1.22014 12.3811 1.22515 12.3774 1.22921 12.3723L5.27424 7.27017C5.39818 7.11372 5.37469 6.88435 5.22117 6.75751C5.06795 6.63096 4.84331 6.65494 4.71934 6.81144L0.713817 11.8637V1.66534L8.30416 7.47808C8.58948 7.69505 8.9366 7.79054 9.27969 7.7915C9.62232 7.79076 9.96973 7.69527 10.2552 7.47808L17.8456 1.66534V11.8637L13.8402 6.81144C13.7162 6.65498 13.4913 6.63092 13.3383 6.75751C13.1848 6.88406 13.1613 7.11372 13.2853 7.27017Z" fill="white"/>
</svg>
