<svg width="115" height="146" viewBox="0 0 115 146" fill="none" xmlns="http://www.w3.org/2000/svg">
<path d="M52.3534 108.046C53.0771 104.778 53.455 101.426 53.4176 98.6055L49.6771 98.6399C49.7107 101.169 49.3651 104.206 48.7042 107.19L52.3534 108.046Z" fill="white" fill-opacity="0.1"/>
<path d="M46.4633 114.108L49.8646 115.705C50.3853 114.543 50.8651 113.276 51.2907 111.939L47.7343 110.747C47.3527 111.947 46.925 113.078 46.4633 114.108Z" fill="white" fill-opacity="0.1"/>
<path d="M85.1624 60.3161L90.3501 62.78C93.4041 64.2304 97.0948 63.1841 98.9346 60.3462C101.952 55.6922 103.974 50.9632 104.944 46.2912L101.283 45.4855C101.044 46.6345 100.731 47.79 100.348 48.9494L91.6412 46.0904C92.0648 43.8514 92.2357 41.5843 92.1344 39.3338L101.837 38.4155C101.896 39.5081 101.892 40.6622 101.798 41.8771L105.529 42.1946C105.998 36.14 104.574 31.3215 103.296 28.3453C102.563 26.6369 101.223 25.3193 99.5134 24.6358C97.7988 23.949 95.9275 23.984 94.2448 24.7351L88.371 27.3563C86.5641 24.7155 84.1602 22.6133 81.2625 21.2122C81.3251 17.6861 80.3823 14.5219 80.3373 14.3722L79.6869 12.2228L77.7145 13.2162C77.2667 13.4417 66.7377 18.745 66.0563 19.108C64.6603 19.851 62.9245 19.8658 61.4122 19.1476L50.1127 13.7811L47.0325 20.5705C45.5899 23.7505 46.9598 27.5456 50.0865 29.0305L51.0052 29.4669C55.8306 31.7586 60.4077 34.1386 63.3763 38.0379C65.0384 40.2209 66.8836 41.6187 68.8802 42.2118C64.2067 45.469 57.2702 49.0901 48.8056 49.871L48.672 49.8882C41.0499 51.1608 35.6002 53.2481 31.5208 56.4576L33.8157 59.4805C34.7943 58.7107 35.8784 58.015 37.0741 57.3832L44.0702 67.1644C42.7981 68.6369 41.6597 70.3009 40.6197 72.1782L27.5983 67.328C28.7239 65.1583 29.9415 63.3483 31.2953 61.8426L28.5313 59.2585C26.5429 61.4698 24.8297 64.1909 23.2932 67.5776C20.4534 73.8371 19.7676 80.9864 21.3616 87.7085C22.9473 94.3948 26.7339 100.426 32.0288 104.702C38.4597 111.198 39.0831 116.236 37.9587 117.891C37.1577 119.07 35.1133 119.068 32.6237 117.885C30.0773 116.676 28.0272 114.847 26.5303 112.448C25.4922 110.785 23.5701 110.1 21.7476 110.743C19.9405 111.38 18.8636 113.112 19.0674 115.052C19.7533 121.583 23.8358 127.377 29.7216 130.172L29.7225 130.173C36.8996 133.581 43.2447 133.531 48.5815 130.023C52.8915 127.19 56.398 122.057 58.7209 115.18C60.503 109.903 61.5261 103.673 61.4573 98.5122C61.4126 95.143 61.9309 91.6245 62.9678 88.175L67.1815 94.2758C68.1569 95.6881 69.4388 96.7716 70.8974 97.4643C72.3559 98.157 73.9921 98.4594 75.676 98.3102C79.0438 98.0116 81.9007 95.9687 83.3176 92.8453L87.8613 82.83C89.2783 79.7067 88.9593 76.1554 87.0084 73.3309C85.0575 70.5063 81.8817 68.998 78.5139 69.2965L75.0586 69.6028C75.9913 68.7918 76.9587 68.0205 77.9608 67.298C80.7172 65.312 83.1358 62.9419 85.1624 60.3161ZM98.9629 52.4963C98.0991 54.4082 97.0476 56.3243 95.8098 58.2334C94.9791 59.5146 93.3058 59.9834 91.9177 59.3241L87.3402 57.1501C88.7633 54.8154 89.8951 52.3365 90.7048 49.7847L98.9629 52.4963ZM95.759 28.2298C96.5254 27.8878 97.3774 27.8716 98.1584 28.1846C98.9307 28.4945 99.5381 29.0893 99.8691 29.8604C100.4 31.0981 100.959 32.7088 101.352 34.6291L91.6949 35.5433C91.3658 33.8272 90.8704 32.2064 90.2164 30.7034L95.759 28.2298ZM66.6765 48.1138C67.8291 49.9888 67.9383 51.8687 67.0137 53.8252C66.0259 55.9163 64.0267 57.4604 61.6654 57.9558C60.8779 58.1211 60.1165 58.298 59.3768 58.4852L56.9166 52.2038C60.592 51.1477 63.8638 49.6818 66.6765 48.1138ZM40.5888 55.8372C43.0525 54.9377 45.903 54.2215 49.2281 53.6633C50.6056 53.534 51.9434 53.338 53.2394 53.0871L55.7721 59.5536C52.2097 60.7837 49.2676 62.3869 46.7764 64.4881L40.5888 55.8372ZM36.7747 83.0554L24.2776 81.3701C24.1647 77.7713 24.7588 74.1665 26.0305 70.7991L38.9366 75.6064C37.9075 77.984 37.1838 80.48 36.7747 83.0554ZM24.9988 86.8289C24.8762 86.312 24.7745 85.7913 24.6827 85.2697L36.2045 86.8237C35.2292 90.695 32.4111 93.9272 28.6805 95.4121C26.9846 92.7991 25.7257 89.8941 24.9988 86.8289ZM78.8552 73.097C80.8759 72.9178 82.7815 73.8226 83.9519 75.5176C84.7309 76.6456 85.0736 77.9665 84.9669 79.2765L75.0349 76.5572L74.0798 80.2404L83.7106 82.8771L80.8254 89.2367L72.6954 83.5463L70.5865 86.6872L79.0444 92.6072C78.1133 93.6933 76.8065 94.3807 75.3354 94.5111C73.3147 94.6903 71.4092 93.7853 70.2387 92.0905L62.8112 81.3364C63.8055 80.4642 64.6058 79.3834 65.1699 78.14C65.734 76.8966 66.0242 75.5736 66.0336 74.2336L78.8552 73.097ZM61.6984 70.788L62.1564 72.9033C62.4223 74.1323 62.2893 75.385 61.7715 76.5263C61.2538 77.6676 60.4044 78.5803 59.3154 79.1656L57.4407 80.173L60.3094 84.3264C58.5491 88.9948 57.6539 93.8896 57.7157 98.5472C57.7789 103.292 56.8317 109.041 55.1823 113.924C53.7535 118.154 51.0949 123.824 46.5432 126.816C42.3552 129.569 37.2232 129.536 31.2896 126.717C26.5926 124.486 23.3349 119.867 22.7883 114.663C22.7784 114.569 22.7636 114.427 22.9862 114.349C23.2347 114.261 23.3299 114.413 23.3757 114.486C25.2645 117.512 27.8482 119.818 31.0558 121.342C34.3892 122.925 38.7621 123.423 41.0383 120.073C43.2101 116.876 42.821 110.204 34.5769 101.919L34.4189 101.777C33.1966 100.797 32.0677 99.7085 31.0384 98.5333C36.112 96.1046 39.6959 91.1088 40.2447 85.3889C40.5347 82.3669 41.3093 79.4512 42.5473 76.7225C46.516 67.9746 51.9062 63.9008 62.4361 61.6917C65.9269 60.9593 68.8994 58.6417 70.3867 55.4924C71.4681 53.2035 72.1368 49.8524 69.8864 46.1629C75.0353 42.7667 78.0065 39.4717 78.242 39.2061L75.4695 36.6317C75.4498 36.6538 73.4184 38.832 70.9282 38.7212C69.3441 38.6507 67.7969 37.6367 66.3284 35.708C62.8462 31.1347 57.6235 28.4098 52.5728 26.011L51.654 25.5746C50.4009 24.9795 49.8519 23.4586 50.4301 22.1841L51.9425 18.8505L59.8442 22.6033C62.4066 23.8202 65.3808 23.7781 67.8006 22.4899C68.2363 22.2578 73.623 19.5402 77.252 17.7113C77.4587 18.964 77.6191 20.5932 77.4604 22.1932L77.3258 23.5502L79.5843 24.6147C84.5528 26.9744 87.7383 31.9971 88.3247 38.395C89.1994 47.9401 84.2798 58.0619 75.7909 64.1818C73.3635 65.9316 71.1134 67.9335 69.0885 70.133L61.6984 70.788Z" fill="white" fill-opacity="0.1"/>
<path d="M69.076 25.4438L72.5551 27.0963L70.989 30.5486L67.51 28.8961L69.076 25.4438Z" fill="white" fill-opacity="0.1"/>
</svg>
