<svg width="188" height="188" viewBox="0 0 188 188" fill="none" xmlns="http://www.w3.org/2000/svg">
<path d="M90.4587 136.168L84.0557 137.281C83.4839 137.381 82.8961 137.249 82.4215 136.915C81.9469 136.581 81.6244 136.072 81.525 135.5C81.4256 134.928 81.5574 134.34 81.8914 133.866C82.2254 133.391 82.7343 133.069 83.3061 132.969L89.7091 131.856C90.2809 131.757 90.8687 131.888 91.3433 132.222C91.8179 132.556 92.1404 133.065 92.2398 133.637C92.3392 134.209 92.2074 134.797 91.8734 135.271C91.5394 135.746 91.0305 136.068 90.4587 136.168Z" fill="#ECECEC" fill-opacity="0.7"/>
<path d="M144.119 126.839L105.55 133.544C104.978 133.644 104.39 133.512 103.916 133.178C103.441 132.844 103.119 132.335 103.019 131.763C102.92 131.191 103.051 130.604 103.386 130.129C103.72 129.654 104.228 129.332 104.8 129.232L141.744 122.81C143.358 112.932 154.477 98.1363 154.977 97.4741C163.898 86.0637 162.814 71.0133 161.99 65.2886C152.429 68.3723 142.702 71.8047 133.046 75.5046C100.828 87.8731 69.5632 102.596 39.5061 119.555C32.8597 123.318 28.2728 126.101 26.2041 127.361L28.8259 142.441L46.8709 139.304C47.4427 139.205 48.0305 139.336 48.5051 139.67C48.9797 140.004 49.3022 140.513 49.4016 141.085C49.501 141.657 49.3692 142.245 49.0352 142.719C48.7012 143.194 48.1923 143.516 47.6205 143.616L27.4197 147.128C26.8479 147.227 26.26 147.095 25.7854 146.761C25.3108 146.427 24.9883 145.918 24.8889 145.347L21.6392 126.655C21.5653 126.228 21.6197 125.789 21.7956 125.393C21.9715 124.997 22.261 124.662 22.6274 124.431C22.6811 124.395 28.0327 121.028 37.3322 115.751C67.5853 98.6824 99.0539 83.8643 131.483 71.4165C142.02 67.3791 152.64 63.658 163.045 60.3565C163.332 60.2653 163.635 60.2345 163.935 60.2659C164.235 60.2974 164.525 60.3904 164.787 60.5392C165.049 60.6879 165.278 60.8893 165.458 61.1305C165.639 61.3718 165.768 61.6477 165.837 61.9411C166.049 62.8437 170.889 84.2286 158.447 100.14C155.073 104.609 146.192 117.801 145.931 124.767C145.912 125.267 145.721 125.746 145.392 126.123C145.062 126.5 144.613 126.753 144.119 126.839Z" fill="#ECECEC" fill-opacity="0.7"/>
<path d="M68.9643 139.905L62.7122 140.992C62.1404 141.091 61.5526 140.959 61.0779 140.625C60.6033 140.291 60.2809 139.783 60.1815 139.211C60.0821 138.639 60.2139 138.051 60.5479 137.576C60.8819 137.102 61.3908 136.779 61.9625 136.68L68.2146 135.593C68.7864 135.494 69.3743 135.625 69.8489 135.959C70.3235 136.293 70.646 136.802 70.7454 137.374C70.8448 137.946 70.713 138.534 70.379 139.008C70.0449 139.483 69.5361 139.805 68.9643 139.905Z" fill="#ECECEC" fill-opacity="0.7"/>
<path d="M38.7914 119.797C38.2197 119.896 37.6318 119.765 37.1572 119.431C36.6826 119.097 36.3601 118.588 36.2607 118.016L30.7988 86.6001C30.7157 86.1228 30.7933 85.6314 31.0195 85.203C31.2457 84.7746 31.6076 84.4333 32.0486 84.2328C54.7881 73.8982 103.404 62.1765 105.463 61.6786C105.882 61.5765 106.322 61.6021 106.726 61.7522L133.017 71.3963C133.288 71.4938 133.538 71.6441 133.751 71.8386C133.965 72.033 134.137 72.2677 134.26 72.5291C134.382 72.7905 134.451 73.0736 134.463 73.3619C134.476 73.6502 134.431 73.9381 134.332 74.2091C134.232 74.48 134.08 74.7286 133.884 74.9406C133.689 75.1526 133.453 75.3237 133.191 75.4442C132.928 75.5646 132.645 75.632 132.356 75.6425C132.068 75.653 131.78 75.6063 131.51 75.5051L105.844 66.0902C100.069 67.4983 56.966 78.1594 35.4026 87.5299L40.5725 117.266C40.6719 117.838 40.5401 118.426 40.2061 118.901C39.8721 119.375 39.3632 119.698 38.7914 119.797Z" fill="#ECECEC" fill-opacity="0.7"/>
<path d="M35.969 103.563C35.4611 103.653 34.9376 103.561 34.4911 103.303C34.0445 103.045 33.7035 102.637 33.5283 102.152C33.353 101.667 33.3549 101.135 33.5334 100.651C33.712 100.167 34.0558 99.7618 34.5042 99.5067C60.7127 84.4822 116.211 66.1268 116.774 65.9423C117.326 65.7607 117.927 65.8056 118.445 66.0671C118.963 66.3285 119.356 66.7851 119.538 67.3364C119.719 67.8878 119.674 68.4886 119.413 69.0068C119.151 69.5251 118.695 69.9182 118.143 70.0998C117.591 70.2824 62.504 88.4997 36.6813 103.304C36.4608 103.431 36.2197 103.519 35.969 103.563Z" fill="#ECECEC" fill-opacity="0.7"/>
<path d="M67.7967 76.3409C67.3279 76.4225 66.8452 76.3491 66.4218 76.1317C65.9984 75.9144 65.6575 75.5649 65.4506 75.1363L58.4382 60.608C58.291 60.3031 58.2166 59.9681 58.2208 59.6295C58.225 59.291 58.3078 58.958 58.4625 58.6568C58.6173 58.3556 58.8398 58.0945 59.1126 57.8939C59.3854 57.6933 59.701 57.5587 60.0347 57.5008L75.471 54.8171C75.9298 54.7373 76.4021 54.806 76.8192 55.0131C77.2362 55.2202 77.5764 55.5549 77.7901 55.9687L84.4314 68.8734C84.5344 69.0709 84.6058 69.2834 84.6431 69.503C84.7415 70.034 84.6399 70.5828 84.3581 71.0435C84.0762 71.5043 83.6339 71.8445 83.1162 71.9988C82.5986 72.153 82.0422 72.1103 81.5541 71.879C81.066 71.6476 80.6808 71.2439 80.4725 70.7455L74.636 59.4044L63.6409 61.316L69.3932 73.2337C69.5404 73.5386 69.6148 73.8736 69.6106 74.2122C69.6064 74.5508 69.5236 74.8837 69.3689 75.1849C69.2141 75.4861 68.9916 75.7473 68.7188 75.9479C68.446 76.1484 68.1303 76.283 67.7967 76.3409Z" fill="#ECECEC" fill-opacity="0.7"/>
<path d="M43.7923 84.159C43.3147 84.2414 42.8233 84.163 42.3951 83.9359C41.9669 83.7089 41.6262 83.3461 41.4265 82.9045L33.2819 64.9305C33.144 64.6264 33.0775 64.2947 33.0875 63.9609C33.0975 63.627 33.1838 63.3 33.3398 63.0046C33.4958 62.7093 33.7173 62.4536 33.9873 62.2571C34.2574 62.0606 34.5688 61.9286 34.8978 61.871L50.3341 59.1873C50.7967 59.1069 51.2729 59.1774 51.6924 59.3885C52.1118 59.5995 52.4523 59.9399 52.6634 60.3593L60.4956 75.8978C60.6249 76.1545 60.7024 76.4341 60.7237 76.7207C60.745 77.0073 60.7097 77.2953 60.6196 77.5682C60.5296 77.8412 60.3867 78.0937 60.1991 78.3114C60.0115 78.5291 59.7829 78.7078 59.5262 78.8371C59.2696 78.9665 58.99 79.044 58.7034 79.0653C58.4168 79.0866 58.1288 79.0512 57.8558 78.9612C57.5829 78.8712 57.3303 78.7283 57.1126 78.5407C56.8949 78.3531 56.7163 78.1244 56.5869 77.8678L49.4733 63.7791L38.4329 65.6986L45.4104 81.0991C45.5294 81.3611 45.5956 81.6439 45.6052 81.9315C45.6148 82.2191 45.5676 82.5057 45.4663 82.775C45.365 83.0443 45.2116 83.291 45.0149 83.5009C44.8181 83.7109 44.5819 83.8799 44.3197 83.9985C44.1515 84.0742 43.9743 84.1282 43.7923 84.159Z" fill="#ECECEC" fill-opacity="0.7"/>
<path d="M126.256 95.1201C126.828 95.0207 127.337 94.6982 127.671 94.2236C128.005 93.749 128.137 93.1611 128.037 92.5893C127.938 92.0175 127.616 91.5086 127.141 91.1746C126.666 90.8406 126.078 90.7088 125.507 90.8082C124.935 90.9076 124.426 91.2301 124.092 91.7047C123.758 92.1793 123.626 92.7672 123.726 93.3389C123.825 93.9107 124.147 94.4196 124.622 94.7536C125.097 95.0877 125.685 95.2195 126.256 95.1201Z" fill="#ECECEC" fill-opacity="0.7"/>
<path d="M114.12 100.246C114.692 100.147 115.201 99.8243 115.535 99.3497C115.869 98.8751 116.001 98.2872 115.902 97.7154C115.802 97.1436 115.48 96.6348 115.005 96.3007C114.53 95.9667 113.943 95.8349 113.371 95.9343C112.799 96.0337 112.29 96.3562 111.956 96.8308C111.622 97.3054 111.49 97.8933 111.59 98.4651C111.689 99.0369 112.012 99.5458 112.486 99.8798C112.961 100.214 113.549 100.346 114.12 100.246Z" fill="#ECECEC" fill-opacity="0.7"/>
<path d="M101.985 105.372C102.557 105.273 103.066 104.95 103.4 104.476C103.734 104.001 103.866 103.413 103.767 102.841C103.667 102.27 103.345 101.761 102.87 101.427C102.395 101.093 101.808 100.961 101.236 101.06C100.664 101.16 100.155 101.482 99.8211 101.957C99.487 102.431 99.3552 103.019 99.4547 103.591C99.5541 104.163 99.8765 104.672 100.351 105.006C100.826 105.34 101.414 105.472 101.985 105.372Z" fill="#ECECEC" fill-opacity="0.7"/>
</svg>
