<svg width="117" height="149" viewBox="0 0 117 149" fill="none" xmlns="http://www.w3.org/2000/svg">
<path d="M107.019 75.6311C108.684 70.6658 107.109 65.561 102.692 61.3035C105.86 59.853 109.541 56.8386 111.371 51.9115C114.461 43.5949 107.689 38.7441 103.993 36.1255C107.739 34.3086 112.719 30.7868 115.049 25.4521C116.652 21.7831 117.312 15.9753 111.349 9.14643C107.789 5.06996 103.084 2.03268 100.595 0.584957C99.3777 -0.122091 97.8092 0.0896541 96.8641 1.08722C95.9083 2.09692 95.8335 3.58248 96.6837 4.70117C97.978 6.40054 99.2735 9.00215 98.0919 11.731C96.6547 15.049 92.6795 18.3734 74.5346 14.5959C68.3928 13.3169 63.4537 14.112 59.8576 16.9592C55.6227 20.3106 54.3684 25.6372 54.0787 29.6266C52.311 28.9963 50.1304 28.5022 47.8635 28.4732C43.3912 28.417 39.7066 30.1312 37.2084 33.4321C34.0991 37.5409 33.4664 41.2849 33.8008 44.2741C33.1574 44.5869 32.58 45.0453 32.131 45.6455L30.1282 48.3229C26.4654 53.2192 26.8294 59.7576 30.5936 64.2512L25.4419 77.352C25.4411 77.3531 25.4422 77.3539 25.4414 77.3549L8.59461 120.192C8.59492 120.194 8.59412 120.195 8.59251 120.197L1.00065 139.503C-0.0978448 142.298 0.855421 145.355 3.37244 147.107C5.89057 148.86 9.19824 148.77 11.6013 146.882L76.3065 96.0763C81.9144 98.1074 88.4613 96.3804 92.1241 91.484L94.1269 88.8067C94.5606 88.2269 94.8241 87.5794 94.9365 86.9182C99.1706 86.2343 104.336 83.6373 107.019 75.6311ZM8.25749 142.928C7.46685 143.549 6.74017 143.169 6.46422 142.977C6.18828 142.784 5.5844 142.238 5.94603 141.319L11.5953 126.953C13.4672 129.908 15.4266 132.833 17.4639 135.699L8.25749 142.928ZM34.8995 122.008C34.4336 121.338 33.9705 120.667 33.519 120.001C32.7187 118.822 31.0808 118.489 29.8586 119.257C28.6363 120.026 28.2931 121.604 29.0937 122.785C29.6462 123.6 30.2134 124.42 30.7881 125.237L21.5765 132.47C18.8989 128.684 16.3551 124.796 13.9877 120.873L19.4907 106.88C20.4685 108.714 21.4816 110.535 22.5202 112.326C22.7158 112.662 22.9775 112.939 23.2803 113.149C24.0891 113.713 25.194 113.809 26.1196 113.31C27.3942 112.624 27.8491 111.071 27.1341 109.842C25.3399 106.751 23.6353 103.572 22.0463 100.381L27.9123 85.4648C32.1443 95.6743 37.5328 105.532 43.9956 114.867L34.8995 122.008ZM48.1087 111.636C40.8673 101.104 35.0351 89.8952 30.7408 78.2699L34.86 67.794L40.3342 71.6051C44.3107 83.0714 49.9258 94.162 57.0497 104.616L48.1087 111.636ZM61.1691 101.381C55.8766 93.5544 51.4614 85.3636 47.9802 76.9282L71.4779 93.2872L61.1691 101.381ZM92.3449 82.0336L56.176 56.8531C54.9907 56.0279 53.3387 56.283 52.485 57.4242C51.6313 58.5655 51.9 60.1595 53.0854 60.9847L89.4665 86.313L87.833 88.4966C85.37 91.7892 80.7744 92.7383 77.1553 90.8648C77.1533 90.8651 77.153 90.8632 77.1511 90.8635C76.9866 90.7768 76.8256 90.6877 76.672 90.5955C76.6676 90.5923 76.6612 90.5895 76.6567 90.5864C76.5009 90.4927 76.3524 90.3959 76.2117 90.2979L36.3103 62.5188C36.1684 62.42 36.0264 62.3146 35.8851 62.2015C35.8806 62.1984 35.8769 62.1942 35.8714 62.1903C35.7322 62.0787 35.5941 61.9613 35.4578 61.8369C35.4564 61.8343 35.4544 61.8346 35.4541 61.8327C32.4707 59.1095 31.9563 54.6029 34.4193 51.3103L36.0528 49.1267L43.0329 53.9862C44.2183 54.8115 45.871 54.5553 46.7248 53.414C47.5785 52.2727 47.3089 50.6799 46.1236 49.8546L39.3345 45.1281C38.5212 42.3224 39.2418 39.4035 41.4827 36.4421C45.033 31.7504 51.7882 33.9718 53.8729 35.1188C53.9698 35.1732 54.0695 35.2148 54.1706 35.259C54.2709 36.8829 54.4297 38.667 54.6771 39.8943C54.8116 40.5572 55.2005 41.1093 55.7278 41.4765C56.2998 41.8747 57.0329 42.053 57.7787 41.9146C59.2126 41.6467 60.1489 40.311 59.8684 38.928C59.4914 37.0608 59.3279 32.8459 59.2965 31.3207C59.3462 28.5743 59.916 23.5155 63.2183 20.902C65.5069 19.0895 68.9421 18.6445 73.4284 19.5791C84.9596 21.9797 98.7382 23.4814 102.974 13.7016C103.671 12.0882 103.905 10.5351 103.844 9.09248C108.218 12.7081 112.572 17.9793 110.176 23.4659C108.233 27.9112 103.685 30.676 100.949 31.876C99.1306 32.6209 93.7151 34.3618 90.0285 33.6732C88.5941 33.4058 87.2082 34.3091 86.9335 35.6915C86.7333 36.6973 87.1772 37.6802 87.986 38.2433C88.2888 38.4541 88.6418 38.6067 89.0327 38.6792C92.0392 39.2412 95.4305 38.7574 98.1282 38.1082C98.1794 38.1601 98.2262 38.2157 98.2817 38.2641C98.9888 38.9019 99.8743 39.5283 100.812 40.1923C105.119 43.2448 108.041 45.7473 106.393 50.1849C105.01 53.9054 102.085 55.9992 100.1 56.8337C99.2209 57.1021 94.424 58.5065 89.3492 58.8062C87.8915 58.8924 86.785 60.1014 86.877 61.5069C86.9279 62.2997 87.3503 62.9864 87.9704 63.418C88.4496 63.7517 89.0462 63.9331 89.6808 63.8956C92.2211 63.7453 94.6636 63.3601 96.6895 62.9481C96.8444 63.1181 97.015 63.2761 97.2037 63.419C100.246 65.7071 103.545 69.4093 101.988 74.0554C100.193 79.4079 97.0339 82.0248 92.3449 82.0336Z" fill="white" fill-opacity="0.3"/>
</svg>
