<svg width="89" height="84" viewBox="0 0 89 84" fill="none" xmlns="http://www.w3.org/2000/svg">
<path d="M57.1567 54.8393C56.2793 55.1615 55.267 54.4615 55.3531 53.5915C55.4113 52.4792 56.9431 51.9669 57.7285 52.797C58.3742 53.4223 58.0534 54.5683 57.1567 54.8393Z" fill="#ECECEC" fill-opacity="0.3"/>
<path d="M41.2876 68.5944C40.9583 68.7046 40.5855 68.6986 40.2473 68.5502L31.2846 64.6187C30.6082 64.322 30.3262 63.5684 30.6546 62.9353C30.9831 62.3024 31.7978 62.0299 32.4743 62.3265L41.437 66.258C42.1134 66.5546 42.3955 67.3083 42.067 67.9413C41.9028 68.2579 41.6169 68.4842 41.2876 68.5944Z" fill="#ECECEC" fill-opacity="0.3"/>
<path d="M41.0668 62.7365C40.7374 62.8467 40.3649 62.8406 40.0267 62.6923L36.5053 61.1477C35.829 60.851 35.547 60.0975 35.8756 59.4646C36.2041 58.832 37.0186 58.5593 37.6949 58.8559L41.2162 60.4005C41.8925 60.6972 42.1745 61.4507 41.846 62.0836C41.6818 62.3999 41.396 62.6263 41.0668 62.7365Z" fill="#ECECEC" fill-opacity="0.3"/>
<path d="M70.0355 11.2826C69.9173 10.9669 69.6684 10.7095 69.3435 10.5671L62.6213 7.61938C61.9449 7.32281 61.1304 7.59535 60.8018 8.22829L59.6009 10.542L58.8852 10.2281C58.2088 9.93141 57.3941 10.204 57.0655 10.8369C56.7369 11.4699 57.019 12.2235 57.6955 12.5203L58.4113 12.8343L57.7704 14.0691L57.0546 13.7551C56.3782 13.4584 55.5635 13.731 55.2349 14.3639C54.9064 14.9968 55.1884 15.7505 55.8649 16.0473L56.5807 16.3613L49.7942 29.4367C43.6763 28.2373 38.6363 29.9892 36.4857 34.1329C35.875 35.308 35.4925 36.3892 35.3164 37.4378C34.671 41.2765 31.623 45.554 28.226 47.3875C25.6974 48.7529 23.6769 50.7045 22.3829 53.0317C20.7161 56.0309 20.4295 59.3116 21.5541 62.519C23.0628 66.8222 27.0362 70.6953 32.4557 73.1447C37.9251 75.6165 43.73 76.1575 48.3818 74.6289C48.4086 74.6201 48.4352 74.6114 48.4619 74.6024C51.8829 73.4578 54.52 71.2549 56.0915 68.2274C57.3767 65.7505 57.8141 62.9631 57.3568 60.1665C57.2952 59.7898 57.2585 59.3916 57.2476 58.9829C57.2291 58.2844 56.6046 57.7398 55.8529 57.7668C55.1011 57.7936 54.5066 58.3815 54.5253 59.0801C54.5389 59.5947 54.5858 60.0995 54.6644 60.5806C55.0388 62.8695 54.6851 65.1423 53.6418 67.1532C52.3928 69.5591 50.2944 71.3106 47.5698 72.2222C47.5487 72.2292 47.5271 72.2365 47.5058 72.2435C43.5383 73.5471 38.4965 73.0447 33.6735 70.865C28.9027 68.7086 25.4295 65.3698 24.1444 61.7047C23.2503 59.1543 23.4766 56.5485 24.7987 54.1693C25.8495 52.2796 27.4992 50.6898 29.5695 49.5719C33.6847 47.3507 37.2332 42.3976 38.007 37.7948C38.1408 36.9986 38.4444 36.1526 38.9354 35.2077C40.9623 31.3024 45.7488 31.3746 48.5633 31.8088L41.6748 45.0813C39.6919 45.6472 37.9515 46.9541 36.9799 48.826C36.0943 50.5323 35.9718 52.4479 36.635 54.2199C37.2981 55.9918 38.6676 57.4082 40.491 58.2081C42.3143 59.0081 44.3735 59.0957 46.2892 58.4547C48.2048 57.8138 49.7474 56.5212 50.6333 54.8148C51.6045 52.9431 51.6146 50.8774 50.846 49.1047L57.7278 35.8452C59.8579 37.6042 62.8995 41.042 60.7698 45.1455C60.4089 45.8415 59.9425 46.4885 59.3836 47.0682C59.1016 47.3604 58.8231 47.6747 58.5559 48.0027C58.0986 48.5633 58.2119 49.3563 58.8088 49.7737C59.1859 50.0374 59.6657 50.0881 60.0835 49.9483C60.327 49.8669 60.5492 49.7206 60.7177 49.5141C60.9391 49.2425 61.1686 48.9834 61.4 48.7435C62.1335 47.9828 62.7458 47.1334 63.2197 46.2194C64.4822 43.7869 64.5431 41.1778 63.3956 38.6742C62.5332 36.7927 61.0104 35.0087 58.9612 33.469L65.7526 20.3842L66.7687 20.8299C67.1069 20.9783 67.4797 20.9843 67.8089 20.8741C68.1382 20.764 68.4241 20.5376 68.5882 20.2211C68.9167 19.5882 68.6347 18.8346 67.9582 18.5378L66.9422 18.0921L67.5831 16.8573L68.5993 17.303C68.9376 17.4514 69.3103 17.4574 69.6396 17.3472C69.9688 17.2371 70.2547 17.0107 70.4189 16.6942C70.7474 16.0613 70.4653 15.3077 69.7889 15.0109L68.7727 14.5651L69.9738 12.2506C70.1314 11.9464 70.1536 11.5982 70.0355 11.2826ZM48.1834 53.7403C47.6155 54.8343 46.6264 55.6632 45.3981 56.0742C44.1699 56.4851 42.8497 56.429 41.6806 55.916C39.267 54.8574 38.257 52.1587 39.4293 49.9005C40.0153 48.7715 41.0375 47.963 42.2151 47.569C43.3925 47.1751 44.7254 47.1956 45.932 47.7247C48.3451 48.7835 49.3551 51.4823 48.1834 53.7403ZM49.0917 46.6903C48.5272 46.1876 47.8676 45.7599 47.1219 45.4327C47.1219 45.4327 47.1217 45.4327 47.1217 45.4326C46.376 45.1056 45.5994 44.9032 44.8196 44.8162L57.1997 20.9629L61.4722 22.8365L49.0917 46.6903ZM62.662 20.5445L58.3897 18.6706L59.0306 17.4358L63.3029 19.3097L62.662 20.5445ZM64.4924 17.0174L60.2202 15.1435L60.8611 13.9087L65.1333 15.7826L64.4924 17.0174ZM62.0507 11.6164L62.6568 10.4485L66.9293 12.3221L66.323 13.4904L62.0507 11.6164Z" fill="#ECECEC" fill-opacity="0.3"/>
<path d="M22.2983 25.8709C22.1564 25.4891 21.8229 25.1982 21.4024 25.0896C20.9818 24.9808 20.5259 25.0676 20.1776 25.3227L11.2369 31.8703C10.7736 32.2096 10.5888 32.7797 10.7775 33.2876L14.1057 42.2422C13.4757 42.2002 12.8235 42.2783 12.1868 42.4928C9.77822 43.3041 8.48736 45.7636 9.30944 47.9754C10.1315 50.1871 12.7598 51.3266 15.1685 50.5153C17.5772 49.7039 18.8679 47.2445 18.0458 45.0326C18.0202 44.9638 13.6733 33.2681 13.6733 33.2681L20.3321 28.3916L23.0463 35.6945C22.4163 35.6525 21.7642 35.7306 21.1274 35.9451C18.7187 36.7564 17.428 39.2159 18.2501 41.4277C19.0722 43.6396 21.7004 44.7789 24.1091 43.9675C26.5178 43.1562 27.8085 40.6968 26.9865 38.4849C26.961 38.4161 22.2983 25.8709 22.2983 25.8709ZM14.2879 48.1461C13.3019 48.4782 12.226 48.0119 11.8894 47.1064C11.5529 46.2009 12.0814 45.1941 13.0673 44.862C14.0533 44.5299 15.1293 44.9963 15.4658 45.9017C15.8025 46.807 15.274 47.8139 14.2879 48.1461ZM23.2287 41.5983C22.2426 41.9305 21.1667 41.464 20.8302 40.5586C20.4937 39.6531 21.0221 38.6463 22.0081 38.3142C22.9942 37.9821 24.0701 38.4486 24.4066 39.3539C24.7431 40.2594 24.2147 41.2662 23.2287 41.5983Z" fill="#ECECEC" fill-opacity="0.3"/>
<path d="M75.7135 43.704L70.8595 43.817C70.4206 43.8272 70.0095 44.0325 69.7546 44.3685C69.4998 44.7044 69.4327 45.1298 69.5744 45.5112L72.8985 54.4571C72.2693 54.4152 71.6179 54.4932 70.9819 54.7075C68.5762 55.5181 67.287 57.9751 68.1081 60.1849C68.9292 62.3946 71.5543 63.5328 73.96 62.7223C76.3658 61.9117 77.655 59.4547 76.8339 57.2449C76.8084 57.1762 76.7305 56.9666 76.7166 56.9293L72.7644 46.2931L75.7203 46.2243C76.4722 46.207 77.0802 45.6284 77.0782 44.9325C77.0765 44.2364 76.4654 43.6865 75.7135 43.704ZM73.0806 60.3554C72.0957 60.6872 71.021 60.2212 70.685 59.3166C70.3488 58.412 70.8767 57.4062 71.8614 57.0744C72.8463 56.7426 73.9209 57.2086 74.257 58.1131C74.5932 59.0178 74.0654 60.0236 73.0806 60.3554Z" fill="#ECECEC" fill-opacity="0.3"/>
<path d="M40.2838 23.5969C40.0301 23.6819 39.7506 23.6976 39.4801 23.6326C38.3563 23.3632 32.6673 21.9595 31.0275 20.7837C30.3133 20.2716 29.3117 19.4147 28.858 17.8918C28.1056 15.3643 29.5749 12.7184 32.2001 11.8695C33.6757 11.3923 35.1152 11.7239 36.1421 12.1408C36.6915 11.2249 37.6068 10.1365 39.0092 9.6672C39.0234 9.66246 39.0374 9.65776 39.0516 9.65314C41.6781 8.80352 44.5497 10.045 45.589 12.4795C46.214 13.9431 45.9768 15.2021 45.744 16.0217C45.2054 17.9163 41.6264 22.3074 40.9144 23.1685C40.7489 23.369 40.5282 23.5151 40.2838 23.5969ZM33.0408 14.2707C31.8246 14.6778 31.1283 15.9792 31.4869 17.1843C31.6769 17.8217 32.0316 18.2807 32.7116 18.7682C33.5036 19.3363 36.7891 20.3165 39.3155 20.9595C40.8915 18.9939 42.8479 16.3216 43.108 15.4063C43.3301 14.6246 43.314 14.0557 43.0525 13.4432C42.5538 12.275 41.1466 11.6486 39.9159 12.0468C38.886 12.3822 38.204 13.8974 38.0798 14.285C37.9507 14.6876 37.6188 15.0061 37.188 15.1406C36.7589 15.2735 36.29 15.2016 35.935 14.9487C35.4989 14.6446 34.1223 13.9209 33.0643 14.263C33.0565 14.2655 33.0487 14.2681 33.0408 14.2707Z" fill="#ECECEC" fill-opacity="0.3"/>
</svg>
