<svg width="38" height="39" viewBox="0 0 38 39" fill="none" xmlns="http://www.w3.org/2000/svg">
<path d="M34.2886 7.29C34.1001 7.04069 33.7505 6.99529 33.5076 7.18869C33.2647 7.38209 33.2205 7.74093 33.4089 7.99024C35.1191 10.2531 36.1031 13.0252 36.2172 15.8668L28.7427 13.8113C29.0548 11.7784 29.1777 9.71347 29.1072 7.66507C29.0665 6.47938 28.9597 5.28745 28.7903 4.10846C29.8405 4.64296 30.8238 5.32028 31.7037 6.12099C31.9338 6.33031 32.2855 6.30853 32.4894 6.07255C32.6934 5.83642 32.6722 5.47536 32.4422 5.26612C30.9881 3.94302 29.2865 2.94586 27.4513 2.31021L27.9892 0.763542C28.0926 0.466397 27.9416 0.139544 27.6521 0.0335135C27.3626 -0.0725174 27.0441 0.0823394 26.9408 0.379485L26.3807 1.98998C20.0797 0.38535 13.4765 3.32572 10.2859 9.17151C10.2429 9.2534 10.2027 9.35798 10.2113 9.49814L10.4086 12.4762C10.4463 13.0448 10.8319 13.5259 11.3683 13.6734L16.8652 15.185C17.393 15.3304 17.9686 15.1169 18.2795 14.6407L18.9941 13.5489L19.081 14.8611C19.1187 15.4297 19.5043 15.9108 20.0407 16.0583L22.2513 16.6663L19.1384 28.5892L13.9316 28.5737H13.9299C13.6233 28.5737 13.3743 28.8284 13.3733 29.1434C13.3724 29.4589 13.6209 29.7154 13.9284 29.7163L24.8295 29.7487H24.8349C25.38 29.7487 25.9111 29.5198 26.2927 29.1201L30.216 25.0115C31.0256 24.1636 32.2575 23.8582 33.3548 24.2338L34.548 24.6419L27.1085 32.3299C26.7973 32.6516 26.3655 32.836 25.9237 32.836H4.37623C4.3199 31.9678 4.55421 31.1228 5.16302 30.5001C5.66823 29.9833 6.3385 29.6991 7.05122 29.6991H7.06042L11.3302 29.7151H11.3323C11.6387 29.7151 11.8877 29.4606 11.8889 29.1458C11.89 28.8303 11.6417 28.5736 11.3343 28.5725L7.06428 28.5565C6.04771 28.5525 5.09563 28.9558 4.37713 29.6908C3.47203 30.6168 3.26296 31.8868 3.26296 33.1788C3.26296 33.6198 3.61253 33.9786 4.04225 33.9786H5.38093L4.22943 36.5758C4.04322 36.9959 4.03691 37.4534 4.17636 37.8574H1.21505C0.907635 37.8574 0.658409 38.1131 0.658409 38.4287C0.658409 38.7443 0.907635 39 1.21505 39H35.4686C35.776 39 36.0252 38.7443 36.0252 38.4287C36.0252 38.1131 35.776 37.8574 35.4686 37.8574H30.2429C30.3823 37.4534 30.376 36.9958 30.1898 36.5758L28.4238 32.5922L35.7173 25.0548C36.121 24.644 35.9452 23.9104 35.4107 23.7325L33.7069 23.1497C32.2085 22.6372 30.5262 23.0539 29.4208 24.2116L25.4975 28.3202C25.3241 28.5019 25.0827 28.6059 24.835 28.6059H24.8326L20.29 28.5924L23.3265 16.9618L25.5375 17.5698C26.0652 17.7153 26.641 17.5016 26.9519 17.0255L27.6664 15.9337L27.7533 17.2459C27.791 17.8145 28.1767 18.2956 28.7131 18.4431L34.2099 19.9547C34.7377 20.1001 35.3134 19.8866 35.6243 19.4104L37.246 16.9326C37.2938 16.8531 37.3406 16.7517 37.3405 16.6116C37.3824 13.2599 36.2989 9.94983 34.2886 7.29ZM5.7492 37.8574C5.66949 37.8574 5.59201 37.8401 5.51883 37.8059C5.23947 37.6754 5.1156 37.3359 5.24281 37.0489L6.60412 33.9785H7.82799L6.25641 37.5226C6.16623 37.726 5.96718 37.8574 5.7492 37.8574ZM16.7191 37.8574H7.33102L9.05103 33.9786H17.7316L16.7191 37.8574ZM17.8716 37.8574L18.8841 33.9786H25.3683L27.0883 37.8574H17.8716ZM29.1765 37.0489C29.3036 37.3359 29.1798 37.6755 28.8993 37.8064C28.8273 37.8402 28.7505 37.8574 28.6708 37.8574C28.4528 37.8574 28.2533 37.7257 28.1629 37.5226L26.5573 33.9018C26.9214 33.8135 27.2671 33.6511 27.5696 33.4244L29.1765 37.0489ZM17.3553 14.0035C17.3111 14.071 17.2298 14.1023 17.1532 14.0812L11.6563 12.5696C11.5797 12.5486 11.5247 12.4798 11.5192 12.3986L11.3748 10.218L18.5427 12.1891L17.3553 14.0035ZM19.0894 11.1565L11.6207 9.10265C14.3166 4.72195 19.166 2.29969 24.0976 2.75116C23.232 3.72029 22.4372 4.75745 21.7287 5.84738C20.6529 7.50221 19.7667 9.28615 19.0894 11.1565ZM26.0277 16.3884C25.9835 16.456 25.9023 16.4873 25.8256 16.4662L20.3287 14.9545C20.2522 14.9335 20.1971 14.8647 20.1917 14.7835L20.0472 12.6029L27.2151 14.5741L26.0277 16.3884ZM27.661 13.5137L20.1698 11.4537C20.8123 9.70311 21.6463 8.0329 22.6548 6.48159C23.4743 5.22103 24.4146 4.03435 25.45 2.94784C26.1732 3.09195 26.8882 3.30066 27.5788 3.56833C27.8067 4.93439 27.9473 6.32429 27.9948 7.70544C28.0613 9.64073 27.9487 11.5916 27.661 13.5137ZM34.7 18.7733C34.6558 18.8409 34.5746 18.8722 34.4979 18.8511L29.0011 17.3395C28.9245 17.3184 28.8694 17.2497 28.864 17.1685L28.7196 14.9879L35.8875 16.9591L34.7 18.7733Z" fill="white"/>
</svg>
