<svg width="39" height="39" viewBox="0 0 39 39" fill="none" xmlns="http://www.w3.org/2000/svg">
<g clip-path="url(#clip0)">
<path d="M38.4842 18.8529C38.1537 18.0729 37.6814 17.3729 37.0789 16.7711C36.4772 16.1686 35.7771 15.6964 34.9972 15.3658C34.1897 15.0238 33.3327 14.8501 32.4492 14.8501H32.4476C31.6586 14.8501 30.8853 14.9902 30.1503 15.2675C29.5684 15.4863 29.0248 15.7867 28.5279 16.1598L5.36646 2.78546C4.96998 2.55648 4.50807 2.49562 4.0659 2.61422C3.62372 2.73275 3.25413 3.01626 3.02524 3.41266L2.16815 4.89687C1.93925 5.29334 1.87839 5.75525 1.99684 6.19735C2.11529 6.6396 2.39887 7.00911 2.79527 7.23808L31.1444 23.6076C31.422 23.7685 31.7703 23.6666 31.9243 23.399C32.0821 23.126 31.9891 22.7767 31.7164 22.619L31.7157 22.6183L28.1783 20.576C29.5288 20.2142 31.3737 19.7198 32.0798 19.5302L33.144 20.1449C33.5835 20.3985 33.8577 20.8732 33.8585 21.3834C33.857 21.8649 33.6172 22.2908 33.259 22.5443C32.9978 22.7317 32.944 23.0867 33.1249 23.341C33.3046 23.5953 33.6607 23.6606 33.9201 23.4766C33.9209 23.4766 33.9209 23.4759 33.9217 23.4759C34.6067 22.9885 35.0011 22.2013 35.0011 21.3834C35.0011 20.4711 34.519 19.6204 33.7153 19.1553L29.6259 16.7938C30.4719 16.2742 31.4492 15.9933 32.4493 15.9927C33.8905 15.9927 35.2478 16.5563 36.2716 17.5786C37.2938 18.6022 37.8575 19.9597 37.8575 21.4009V35.3022H27.041V22.4406C27.041 22.1252 26.7843 21.8693 26.4697 21.8693C26.1543 21.8693 25.8984 22.1252 25.8984 22.4406V35.8735C25.8984 36.0243 25.9594 36.1714 26.066 36.2772C26.1719 36.3839 26.3188 36.4448 26.4697 36.4448H38.4287C38.5788 36.4448 38.7265 36.3839 38.8324 36.2772C38.9391 36.1714 39 36.0236 39 35.8735V21.4009C39 20.5173 38.8263 19.6603 38.4842 18.8529ZM3.36671 6.24861C3.23456 6.17229 3.14003 6.04912 3.10049 5.90172C3.06104 5.75426 3.0813 5.60039 3.15762 5.46831L4.01463 3.9841C4.09096 3.85194 4.21413 3.75733 4.36152 3.71788C4.50906 3.67827 4.66286 3.69876 4.79501 3.77501L8.4163 5.86615L4.5144 6.91138L3.36671 6.24861ZM5.91367 7.71934L9.81566 6.67411L12.8692 8.43726L8.9671 9.48256L5.91367 7.71934ZM10.3665 10.2906L14.2686 9.24537L17.3222 11.0087L13.4202 12.0539L10.3665 10.2906ZM14.8194 12.8619L18.7214 11.8166L21.775 13.5798L17.873 14.625L14.8194 12.8619ZM19.2722 15.4331L23.1742 14.3878L26.2278 16.1511L22.3257 17.1963L19.2722 15.4331ZM30.6807 18.7224L26.7786 19.7677L23.725 18.0044L27.6272 16.9591L28.2815 17.337C28.2845 17.3388 28.2876 17.3405 28.2906 17.3422L30.6807 18.7224Z" fill="white"/>
<path d="M4.91278 20.8297H2.85645C1.28136 20.8297 0 22.1111 0 23.6862V35.8737C0 36.1893 0.255785 36.445 0.571289 36.445H7.19794C7.51344 36.445 7.76923 36.1893 7.76923 35.8737V23.6862C7.76923 22.1111 6.48779 20.8297 4.91278 20.8297ZM6.62665 35.3024H1.14258V23.6862C1.14258 22.7412 1.91138 21.9723 2.85645 21.9723H4.91278C5.85785 21.9723 6.62665 22.7412 6.62665 23.6862V35.3024Z" fill="white"/>
<path d="M4.91278 23.1892H2.85645C2.54094 23.1892 2.28516 23.4449 2.28516 23.7605V25.8167C2.28516 26.1323 2.54094 26.388 2.85645 26.388C3.17195 26.388 3.42773 26.1323 3.42773 25.8167V24.3317H4.34149V25.8167C4.34149 26.1323 4.59728 26.388 4.91278 26.388C5.22829 26.388 5.48407 26.1323 5.48407 25.8167V23.7605C5.48407 23.4449 5.22829 23.1892 4.91278 23.1892Z" fill="white"/>
<path d="M32.4492 24.7262C31.0841 24.7262 29.9736 25.8367 29.9736 27.2018C29.9736 28.5669 31.0841 29.6774 32.4492 29.6774C33.8143 29.6774 34.9248 28.5669 34.9248 27.2018C34.9248 25.8367 33.8143 24.7262 32.4492 24.7262ZM32.4492 28.5348C31.7142 28.5348 31.1162 27.9369 31.1162 27.2018C31.1162 26.4668 31.7142 25.8688 32.4492 25.8688C33.1842 25.8688 33.7822 26.4668 33.7822 27.2018C33.7822 27.9368 33.1842 28.5348 32.4492 28.5348Z" fill="white"/>
</g>
<defs>
<clipPath id="clip0">
<rect width="39" height="39" fill="white"/>
</clipPath>
</defs>
</svg>
