<svg width="90" height="89" viewBox="0 0 90 89" fill="none" xmlns="http://www.w3.org/2000/svg">
<g clip-path="url(#clip0)">
<path d="M46.7964 6.56724C46.2874 6.39708 45.7234 6.4832 45.2882 6.79755L44.9791 7.02025C41.0212 9.86944 36.861 13.1239 36.0139 15.6584C35.5899 16.9272 35.515 18.2747 35.7871 19.5963L15.9768 31.6034C15.2111 32.0675 14.683 32.8048 14.4898 33.679C14.2967 34.5533 14.4653 35.4444 14.9655 36.1896L43.9906 79.2281C44.9592 80.6707 46.8817 81.0953 48.3676 80.1947L66.7114 69.0764C68.1973 68.1758 68.7104 66.275 67.8806 64.7506L50.4865 32.6409C50.6671 32.5383 50.849 32.4314 51.0317 32.3207C53.4748 30.8399 56.0642 28.6967 57.5458 27.4705L57.8395 27.2275C58.2536 26.8857 58.4793 26.3619 58.4433 25.8266C58.4073 25.2914 58.1136 24.8024 57.6575 24.5191L57.3338 24.3175C54.8684 22.7814 52.2426 21.2336 49.9588 20.2709C50.3752 18.9746 50.2704 16.9364 49.637 14.0403C49.1355 11.7473 48.4095 9.41501 47.9758 8.02144L47.8628 7.65795C47.7039 7.14512 47.3053 6.73735 46.7964 6.56724ZM50.8008 37.205C50.6629 37.1048 50.4999 37.0418 50.327 37.0268L46.3524 36.6786C46.3522 36.6785 46.3522 36.6785 46.352 36.6785L40.4404 36.1605L30.5536 35.2942C30.2969 35.2718 30.0422 35.3545 29.848 35.5237C29.6537 35.6927 29.5365 35.9335 29.5232 36.1907C29.3782 39.0117 30.3194 41.7419 32.1734 43.8786C34.0325 46.0209 36.6129 47.3371 39.4394 47.5847C40.095 47.6422 40.7471 47.6386 41.3902 47.5802C41.3483 48.0833 41.4625 48.5853 41.7292 49.0254C42.0631 49.5763 42.5915 49.9641 43.217 50.1175L47.1818 51.0899C47.8073 51.2433 48.4552 51.1439 49.0061 50.81C49.557 50.4761 49.9449 49.9477 50.0983 49.3222L51.0705 45.3574C51.224 44.7319 51.1247 44.084 50.7908 43.5331C50.5118 43.0728 50.0958 42.7287 49.602 42.5376C50.4421 41.2035 50.987 39.692 51.186 38.0888C51.1927 38.0341 51.1937 37.9794 51.191 37.9251L63.7917 61.186L48.0572 70.7227C47.609 70.9943 47.4661 71.5777 47.7376 72.0258C48.0092 72.4739 48.5926 72.6171 49.0408 72.3454L64.6964 62.8564L66.2133 65.6566C66.5584 66.2904 66.3454 67.0799 65.7281 67.454L47.3842 78.5723C46.767 78.9464 45.9685 78.7701 45.5651 78.1692L43.7856 75.5306L45.7953 74.3125C46.2435 74.0408 46.3865 73.4574 46.1149 73.0093C45.8433 72.5613 45.26 72.4181 44.8118 72.6898L42.7235 73.9555L20.2626 40.6504L33.5349 32.6061C33.9831 32.3344 34.126 31.751 33.8545 31.3029C33.5829 30.8548 32.9995 30.7117 32.5513 30.9833L19.2004 39.0754L16.5401 35.1306C16.3327 34.8219 16.2628 34.4517 16.3431 34.0884C16.4233 33.7253 16.6426 33.419 16.9606 33.2263L39.6039 19.5021C39.9218 19.3094 40.2948 19.2565 40.6539 19.3535C41.013 19.4505 41.3087 19.6837 41.4856 20.0087L43.7529 24.194L35.7969 29.0162C35.3487 29.2878 35.2057 29.8712 35.4773 30.3193C35.7489 30.7674 36.3322 30.9106 36.7804 30.6389L44.6577 25.8644L50.8008 37.205ZM48.5356 44.2064L48.8509 44.2838C48.9842 44.3165 49.0967 44.3991 49.1679 44.5165C49.239 44.6339 49.2601 44.772 49.2275 44.9053L48.2551 48.8702C48.2224 49.0034 48.1398 49.116 48.0224 49.1871C47.905 49.2582 47.7669 49.2794 47.6337 49.2467L43.6689 48.2743C43.5356 48.2416 43.4231 48.159 43.3519 48.0416C43.2808 47.9242 43.2597 47.7861 43.2923 47.6527L43.4026 47.2029C44.3151 46.94 45.1928 46.5584 46.0137 46.0608C46.4381 45.8036 46.8476 45.5158 47.2389 45.1984C47.6416 44.8719 48.017 44.5199 48.3647 44.1464C48.4187 44.1713 48.4757 44.1918 48.5356 44.2064ZM46.044 43.7245C44.2249 45.1991 41.9385 45.8987 39.6049 45.6943C37.2714 45.49 35.1412 44.4034 33.6065 42.6349C32.2932 41.1214 31.5345 39.2474 31.4212 37.2751L33.5332 37.4601C33.8682 40.6954 36.4647 43.3214 39.7873 43.6126C41.2975 43.7448 42.7439 43.3764 43.9565 42.6414C45.4121 41.7592 46.5288 40.3476 47.0157 38.6415L49.1283 38.8267C48.6734 40.7491 47.6006 42.4624 46.044 43.7245ZM45.0787 38.4716C44.3165 40.5445 42.2348 41.9221 39.9528 41.7221C37.6709 41.5221 35.8608 39.8037 35.4704 37.6297L45.0787 38.4716ZM56.3893 25.9647L56.3361 26.0088C54.7958 27.2836 52.0192 29.581 49.5827 30.9723L48.8461 29.6124C49.1597 29.8429 49.5754 29.8568 49.8971 29.6618C49.9784 29.6125 50.0538 29.5499 50.1197 29.4745C50.4645 29.08 50.4243 28.4806 50.0297 28.1358L49.1876 27.3998L51.5045 27.2441C51.6613 27.2335 51.8064 27.1855 51.9321 27.1093C52.2256 26.9314 52.4121 26.5999 52.3875 26.2338C52.3523 25.711 51.9001 25.3156 51.3773 25.3507L49.0603 25.5064L49.3856 25.1343C49.7304 24.7398 49.6902 24.1404 49.2957 23.7955C48.901 23.4507 48.3015 23.491 47.9569 23.8855L46.5905 25.4488L44.476 21.5455C44.9885 21.353 45.5202 21.2358 46.0655 21.1992C48.4801 21.037 54.1834 24.5905 56.3306 25.9283L56.3893 25.9647ZM46.164 8.58553C46.9068 10.9712 48.8642 17.2592 48.1732 19.6255C47.3386 19.3831 46.5819 19.2624 45.9381 19.3056C45.119 19.3607 44.3238 19.548 43.5649 19.8633L43.4339 19.6216L43.8958 18.2394C43.9635 18.223 44.0304 18.1994 44.0954 18.167L46.0251 17.204C46.0488 17.1922 46.0718 17.1796 46.0942 17.166C46.5121 16.9127 46.6725 16.3766 46.4504 15.9315C46.2165 15.4626 45.6468 15.2722 45.1779 15.5062L44.7356 15.7269L45.4718 13.5245C45.6378 13.0275 45.3697 12.4899 44.8726 12.3239C44.3758 12.1578 43.8383 12.426 43.6722 12.923L42.936 15.1256L42.7152 14.6833C42.4813 14.2144 41.9115 14.024 41.4427 14.258C40.9763 14.4908 40.7834 15.0616 41.0175 15.5306L41.9806 17.4603C42.013 17.5252 42.0524 17.5842 42.0965 17.6381L42.011 17.8939C41.7469 17.7312 41.4577 17.605 41.1485 17.5215C40.284 17.2882 39.3861 17.4154 38.6204 17.8795L37.5495 18.5285C37.4859 17.7568 37.5735 16.9797 37.814 16.26C38.5812 13.9645 44.035 10.0384 46.088 8.56044L46.144 8.52019L46.164 8.58553Z" fill="#ECECEC"/>
<path d="M33.1365 56.8047L36.383 60.5808C36.8029 61.0692 37.3878 61.3649 38.0302 61.4134C38.5369 61.4516 39.0315 61.3323 39.4574 61.0742C39.5714 61.005 39.6805 60.9261 39.7836 60.8373L43.5598 57.5909C44.568 56.7241 44.6831 55.1986 43.8162 54.1904L40.5697 50.4141C39.7028 49.4059 38.1763 49.2915 37.1691 50.1577L33.393 53.4042C32.3848 54.2709 32.2697 55.7964 33.1365 56.8047ZM34.63 54.843L38.4061 51.5965C38.428 51.5776 38.451 51.561 38.4749 51.5465C38.6857 51.4187 38.965 51.4582 39.1309 51.6511L42.3773 55.4273C42.5621 55.6421 42.5376 55.9673 42.3227 56.1519L38.5465 59.3983C38.4423 59.4882 38.3098 59.5315 38.1729 59.5211C38.0361 59.5109 37.9113 59.4479 37.8219 59.3438L34.5754 55.5676C34.3906 55.3529 34.4151 55.0277 34.63 54.843Z" fill="#ECECEC"/>
<path d="M49.0931 62.432L52.69 63.314C53.3357 63.4723 53.9856 63.3533 54.5137 63.0332C55.0417 62.7132 55.448 62.192 55.6064 61.5464L56.4884 57.9496L56.4883 57.9497C56.6418 57.3241 56.5424 56.6763 56.2086 56.1254C55.8747 55.5745 55.3463 55.1867 54.7208 55.0333L51.124 54.1512C49.8327 53.8345 48.5245 54.6274 48.2076 55.9188L47.3255 59.5156C47.0089 60.8069 47.8018 62.1151 49.0931 62.432ZM49.1684 59.9675L50.0504 56.3707C50.0843 56.2331 50.1708 56.122 50.2833 56.0538C50.3958 55.9856 50.5344 55.9602 50.6719 55.994L54.2687 56.8762C54.402 56.9088 54.5145 56.9915 54.5857 57.1089C54.6568 57.2263 54.6779 57.3643 54.6454 57.4975L54.6453 57.4976L53.7633 61.0942C53.6956 61.3695 53.4168 61.5385 53.1418 61.4709L49.545 60.5889C49.2699 60.5215 49.1009 60.2427 49.1684 59.9675Z" fill="#ECECEC"/>
</g>
<defs>
<clipPath id="clip0">
<rect width="64.3695" height="64.3695" fill="white" transform="translate(0.929749 33.6772) rotate(-31.2202)"/>
</clipPath>
</defs>
</svg>
