<svg width="36" height="36" viewBox="0 0 36 36" fill="none" xmlns="http://www.w3.org/2000/svg">
<g clip-path="url(#clip0)">
<path d="M36 19.4954C36 17.5978 35.2197 15.78 33.8441 14.4381C34.0195 13.911 34.1082 13.3619 34.1082 12.8C34.1082 9.84175 31.6134 7.43496 28.5469 7.43496C27.8366 7.43496 27.1392 7.56526 26.4883 7.81549C25.6912 4.67307 22.7478 2.33405 19.2483 2.33405C17.0491 2.33405 15.0696 3.25798 13.7042 4.72428C12.4996 3.23037 10.6381 2.33405 8.63958 2.33405C5.10223 2.33405 2.22441 5.11031 2.22441 8.52283C2.22441 9.19552 2.33452 9.8524 2.55227 10.4814C0.924609 12.0416 0 14.1711 0 16.395C0 17.5589 0.244125 18.6853 0.725414 19.7428C0.841148 19.9971 1.09898 20.1486 1.36955 20.1486C1.46398 20.1486 1.55995 20.1301 1.65192 20.0912C2.00749 19.9405 2.16914 19.5404 2.01305 19.1974C1.61037 18.3129 1.40625 17.37 1.40625 16.395C1.40625 14.4011 2.29409 12.4979 3.84216 11.1732C4.06779 10.9802 4.14063 10.6698 4.02328 10.4018C3.76277 9.80695 3.63066 9.17483 3.63066 8.52283C3.63066 5.85842 5.87763 3.69067 8.63958 3.69067C10.3366 3.69067 11.9072 4.51855 12.8293 5.87436C12.1728 6.94494 11.7952 8.1927 11.7952 9.52416V14.7339L9.3427 17.0999V11.3577C9.3427 10.9831 9.02784 10.6794 8.63958 10.6794C8.25131 10.6794 7.93645 10.9831 7.93645 11.3577V14.6492L6.57984 13.3405C6.3052 13.0756 5.86012 13.0756 5.58541 13.3405C5.31084 13.6054 5.31084 14.0349 5.58541 14.2998L7.93645 16.5678V23.3396C7.31588 23.282 6.70873 23.1489 6.12443 22.9398C5.76035 22.8095 5.35563 22.9887 5.22063 23.34C5.08556 23.6912 5.27133 24.0816 5.63534 24.2118C6.37671 24.477 7.14804 24.6409 7.93645 24.7021V28.83C7.42472 28.605 6.8644 28.4867 6.28474 28.4867C4.086 28.4867 2.29718 30.2124 2.29718 32.3335C2.29718 32.9 2.42283 33.447 2.67061 33.959C2.7862 34.1977 3.03462 34.3503 3.30778 34.3503H32.4465C32.8348 34.3503 33.1497 34.0467 33.1497 33.672C33.1497 33.2974 32.8348 32.9937 32.4465 32.9937H29.25V26.6531C33.0311 26.3102 36 23.2312 36 19.4954ZM28.5469 8.79158C30.8379 8.79158 32.7019 10.5897 32.7019 12.8C32.7019 13.3408 32.5924 13.8652 32.3763 14.3586C32.259 14.6266 32.3318 14.9369 32.5574 15.13C33.8515 16.2374 34.5938 17.8285 34.5938 19.4954C34.5938 22.4824 32.254 24.9508 29.25 25.2881V22.89L31.6972 20.5291C31.9718 20.2642 31.9718 19.8347 31.6972 19.5698C31.4226 19.305 30.9775 19.305 30.7028 19.5698L29.25 20.9714V16.3324C29.25 15.9578 28.9351 15.6541 28.5469 15.6541C28.1586 15.6541 27.8438 15.9578 27.8438 16.3324V18.887L26.7015 17.785V9.52416C26.7015 9.41936 26.6986 9.31524 26.694 9.21159C27.2666 8.93606 27.8995 8.79158 28.5469 8.79158ZM26.6541 19.6579L27.8438 20.8056V25.2886C26.6307 25.1508 25.4847 24.66 24.5645 23.8841C25.7012 22.7671 26.4636 21.2949 26.6541 19.6579ZM19.2483 3.69067C22.5826 3.69067 25.2952 6.3076 25.2952 9.52416V18.8501C25.2952 21.8372 22.9555 24.3056 19.9515 24.6429V22.2448L22.3988 19.8839C22.6733 19.619 22.6733 19.1895 22.3988 18.9246C22.1242 18.6597 21.6791 18.6597 21.4043 18.9246L19.9515 20.3262V15.6873C19.9515 15.3127 19.6366 15.009 19.2483 15.009C18.8601 15.009 18.5452 15.3127 18.5452 15.6873V18.2419L17.5709 17.302C17.2962 17.0371 16.8512 17.0371 16.5765 17.302C16.3019 17.5668 16.3019 17.9964 16.5765 18.2613L18.5452 20.1606V24.6431C15.5412 24.3057 13.2015 21.8374 13.2015 18.8503V9.52416C13.2015 6.3076 15.914 3.69067 19.2483 3.69067ZM17.3874 28.4867C16.9642 28.4867 16.5437 28.5521 16.1439 28.6784C15.3458 27.3837 13.9048 26.5781 12.3033 26.5781C11.1871 26.5781 10.1418 26.9872 9.3427 27.6682V24.7024C10.8131 24.59 12.2036 24.1247 13.4272 23.3348C14.6563 24.8167 16.4794 25.8207 18.5452 26.0081V28.6526C18.1786 28.5451 17.79 28.4867 17.3874 28.4867ZM11.7952 16.6525V18.8501C11.7952 20.0592 12.1066 21.1991 12.6553 22.2002C11.6612 22.8438 10.5346 23.2305 9.3427 23.3398V19.0185L11.7952 16.6525ZM3.70343 32.3336C3.70343 30.9605 4.86141 29.8434 6.28474 29.8434C6.98006 29.8434 7.63228 30.1065 8.1213 30.5843C8.30229 30.7612 8.56898 30.8284 8.81662 30.7596C9.0642 30.6906 9.25284 30.4966 9.30832 30.2539C9.61545 28.9101 10.875 27.9348 12.3034 27.9348C13.5691 27.9348 14.6887 28.6687 15.1556 29.8046C15.23 29.9855 15.3813 30.1269 15.5711 30.1928C15.7606 30.2588 15.9708 30.2429 16.1476 30.1492C16.5252 29.9492 16.954 29.8434 17.3874 29.8434C18.8108 29.8434 19.9688 30.9605 19.9688 32.3336C19.9688 32.5594 19.938 32.7802 19.8769 32.9938H3.79526C3.73416 32.7802 3.70343 32.5593 3.70343 32.3336ZM21.3158 32.9938C21.3547 32.7773 21.375 32.5571 21.375 32.3336C21.375 31.1537 20.8211 30.0967 19.9515 29.3905V26.0081C21.2529 25.8901 22.4578 25.4479 23.4788 24.7663C24.6789 25.8389 26.2169 26.5031 27.8438 26.6526V32.9938H21.3158Z" fill="white"/>
<path d="M3.69071 22.4433C3.82142 22.3171 3.89672 22.1421 3.89672 21.9637C3.89672 21.7853 3.82149 21.6103 3.69071 21.4842C3.55992 21.358 3.37852 21.2854 3.1936 21.2854C3.0079 21.2854 2.82727 21.358 2.69649 21.4842C2.565 21.6103 2.49047 21.7853 2.49047 21.9637C2.49047 22.1421 2.565 22.3171 2.69649 22.4433C2.82727 22.5695 3.00797 22.6421 3.1936 22.6421C3.37852 22.6421 3.55992 22.5695 3.69071 22.4433Z" fill="white"/>
</g>
<defs>
<clipPath id="clip0">
<rect width="36" height="34.7296" fill="white" transform="translate(0 0.977417)"/>
</clipPath>
</defs>
</svg>
