<svg width="515" height="436" viewBox="0 0 515 436" fill="none" xmlns="http://www.w3.org/2000/svg">
<path d="M95.5 434.5L139.578 424.328C172.856 416.649 199.913 392.517 211.334 360.33L223.437 326.222C225.143 321.414 227.215 316.744 229.633 312.253L257.448 260.596C259.813 256.205 262.503 251.997 265.495 248.006L276.679 233.095C289.858 215.522 308.458 202.777 329.604 196.83L369.52 185.604C387.41 180.572 406.411 181.143 423.967 187.238L454.212 197.74C468.752 202.789 484.899 199.055 495.746 188.135V188.135C507.358 176.443 510.621 158.83 503.966 143.755L491.024 114.441C485.721 102.429 472.759 95.5958 459.819 97.8304V97.8304C426.874 103.52 427.496 151.841 460.832 154.385V154.385C473.383 155.342 485.065 147.92 489.529 136.151L496.22 118.512C506.629 91.07 493.034 60.36 465.721 49.617L401.43 24.3293C378.009 15.1168 351.975 15.0748 328.524 24.2116L288 40L216.326 60.2374C207.484 62.7339 198.341 64 189.153 64H139L67 51" stroke="#ECECEC" stroke-width="3" stroke-dasharray="10 10"/>
<g clip-path="url(#clip0)">
<path d="M37.4424 15.8899L34.79 15.2587C33.12 14.8619 31.4382 15.8974 31.0407 17.5672C30.8487 18.3762 30.9826 19.2116 31.4188 19.92C31.7461 20.4516 32.2142 20.8638 32.7695 21.1173L31.8213 22.1781L28.9494 21.4954C27.2791 21.0982 25.5973 22.1337 25.2005 23.8037C24.8345 25.3412 25.685 26.8863 27.1255 27.4322L21.3519 33.8915C20.024 33.5492 18.7399 33.2288 17.5132 32.937C13.9777 32.0965 10.5666 31.7434 7.90711 31.9432C3.41262 32.2813 2.04386 34.1409 1.68699 35.6414C1.32985 37.1414 1.71525 39.4179 5.57653 41.7437C7.8606 43.1192 11.0657 44.3401 14.6012 45.1806C15.8279 45.4724 17.1186 45.7651 18.4582 46.0568L20.7057 54.4243C19.1741 54.263 17.719 55.2597 17.353 56.7972C16.9562 58.4672 17.9912 60.1492 19.6612 60.546L22.5334 61.2292L22.9027 62.6037C22.2923 62.5804 21.6887 62.7377 21.1572 63.065C20.4492 63.5009 19.9531 64.1868 19.7608 64.9954C19.3632 66.6652 20.399 68.3474 22.069 68.7442L24.7211 69.375L27.3805 79.2763C27.4757 79.6289 27.7555 79.901 28.1104 79.9851L31.5902 80.8127C32.1741 80.952 32.7626 80.5238 32.8103 79.9256L35.2643 49.3013C43.5617 50.7568 51.758 52.0335 57.5901 52.9068L59.025 60.5869C59.0972 60.9729 59.3897 61.2802 59.7717 61.371L63.896 62.352C64.4299 62.4786 64.9653 62.1488 65.0922 61.6154L69.9967 40.9945C70.1223 40.4679 69.787 39.9232 69.2599 39.7978L65.1363 38.8171C64.7543 38.7262 64.3541 38.8687 64.1161 39.1814L59.3773 45.3924C53.7766 43.5464 45.8834 40.9968 37.8185 38.5606L39.0776 35.4727C39.3011 34.9245 38.9819 34.2883 38.4103 34.1367C37.9339 34.0103 37.4233 34.2667 37.2376 34.7222L35.907 37.9864C31.6741 36.7222 27.4403 35.5067 23.5107 34.4584L45.3617 10.0115L47.1376 10.4343L38.9157 30.6052C38.7086 31.1132 38.9526 31.693 39.4606 31.9001C39.9692 32.1074 40.549 31.8634 40.7559 31.355L49.4151 10.1104C49.6418 9.55481 49.3092 8.90763 48.7251 8.76908L45.2452 7.94143C44.8905 7.8567 44.5177 7.97395 44.2744 8.24571L37.4424 15.8899ZM20.121 58.6126C19.524 58.4706 19.1441 57.8537 19.2861 57.2566C19.4298 56.6525 20.038 56.278 20.6421 56.4217L21.2831 56.5741L21.9472 59.0473L20.121 58.6126ZM22.5288 66.8108C21.9249 66.6675 21.5502 66.0589 21.6939 65.4548C21.8376 64.8506 22.4458 64.4762 23.0499 64.6199L23.4711 64.7204L24.1354 67.1929L22.5288 66.8108ZM30.9223 78.6118L29.1463 78.189L20.6409 46.5226C24.6222 47.3555 28.9498 48.1762 33.299 48.9535L30.9223 78.6118ZM60.8597 59.587L59.6693 53.2159C62.0034 53.5606 63.804 53.8185 64.8684 53.9692L63.3891 60.189L60.8597 59.587ZM65.3302 52.0273C59.9559 51.2689 31.6555 47.1944 15.0606 43.2475C11.7677 42.4647 8.6845 41.2956 6.60184 40.0412C5.03787 39.0997 3.25132 37.6515 3.62014 36.1008C3.98895 34.5501 6.23646 34.0618 8.05658 33.9247C10.481 33.7423 13.7602 34.0872 17.0533 34.8705C33.6469 38.8171 60.752 47.9202 65.8927 49.6624L65.3302 52.0273ZM65.3044 40.8995L67.8334 41.501L66.3541 47.7207C65.3366 47.3763 63.6124 46.7954 61.373 46.0524L65.3044 40.8995ZM33.809 19.383C33.2049 19.2393 32.8304 18.6312 32.9741 18.027C33.1178 17.4229 33.726 17.0484 34.3301 17.1921L35.9367 17.5742L34.2307 19.4833L33.809 19.383ZM27.9682 25.6193C27.3643 25.4761 26.99 24.8672 27.1332 24.2633C27.2752 23.6663 27.8922 23.2864 28.4892 23.4284L30.3158 23.8629L28.6094 25.7722L27.9682 25.6193Z" fill="#ECECEC"/>
<path d="M52.9033 11.8695L64.5682 14.6439C65.0659 14.7619 65.5874 14.4693 65.744 13.9822C65.9186 13.4381 65.5841 12.8428 65.028 12.7105L53.3631 9.93612C52.829 9.80909 52.2935 10.1388 52.1665 10.6729C52.0397 11.2063 52.3696 11.7422 52.9033 11.8695Z" fill="#ECECEC"/>
<path d="M51.9758 15.7689C51.4422 15.6416 50.9062 15.9716 50.7796 16.5054C50.6523 17.0391 50.9823 17.575 51.5161 17.7016L58.8065 19.4359C59.3043 19.5539 59.8258 19.2612 59.9823 18.7741C60.157 18.23 59.8224 17.6347 59.2664 17.5025L51.9758 15.7689Z" fill="#ECECEC"/>
<path d="M49.1307 21.2542C48.5966 21.1272 48.0607 21.4571 47.9341 21.991C47.8071 22.5251 48.1368 23.0606 48.6709 23.1876L53.7743 24.4014C54.2717 24.5197 54.7936 24.2267 54.9499 23.7392C55.1248 23.1955 54.7902 22.6002 54.2342 22.468L49.1307 21.2542Z" fill="#ECECEC"/>
<path d="M35.9712 80.3844C35.8446 80.9183 36.1746 81.4542 36.708 81.5811L48.3733 84.3552C48.907 84.4825 49.4429 84.1525 49.5695 83.6187C49.6947 83.0923 49.3593 82.5477 48.8327 82.422L37.1679 79.6477C36.634 79.5211 36.0985 79.8508 35.9712 80.3844Z" fill="#ECECEC"/>
<path d="M37.3588 74.5521C37.2318 75.0862 37.5615 75.6217 38.0953 75.7483L45.3861 77.4823C45.8837 77.6011 46.4049 77.3079 46.5615 76.8208C46.7361 76.2767 46.4018 75.6819 45.8458 75.5496L38.5554 73.8153C38.0213 73.6883 37.4854 74.0183 37.3588 74.5521Z" fill="#ECECEC"/>
<path d="M44.3244 70.0464C44.4494 69.5197 44.1143 68.9754 43.5877 68.8498L38.4842 67.636C37.9504 67.5094 37.4149 67.8391 37.2876 68.3728C37.161 68.9066 37.4907 69.4421 38.0244 69.5694L43.1278 70.7832C43.6617 70.9098 44.1971 70.5801 44.3244 70.0464Z" fill="#ECECEC"/>
</g>
<defs>
<clipPath id="clip0">
<rect width="67.3952" height="67.3952" fill="white" transform="translate(35.3354 92.7246) rotate(-121.621)"/>
</clipPath>
</defs>
</svg>
