<svg width="39" height="39" viewBox="0 0 39 39" fill="none" xmlns="http://www.w3.org/2000/svg">
<g clip-path="url(#clip0)">
<path d="M38.3072 35.7155L33.52 18.1657C33.2102 17.0355 32.1835 16.2515 31.0116 16.2501H29.7285C30.2508 14.5652 30.5276 12.814 30.5508 11.0502C30.5254 5.03096 25.7067 0.128963 19.6887 0.000309919H19.5009C13.8446 -0.0428791 9.08258 4.22103 8.503 9.84772C8.35484 12.0111 8.61504 14.183 9.26996 16.2501H7.99014C6.81847 16.2517 5.79222 17.0357 5.48243 18.1657L3.38948 25.8357V25.8402L0.695227 35.7155C0.481872 36.4975 0.645335 37.3342 1.1374 37.9783C1.62947 38.6224 2.39369 39.0002 3.20423 38.9999H35.7975C36.6085 39.0029 37.3738 38.6245 37.8638 37.9782C37.9358 37.8753 38.0003 37.7673 38.0569 37.6551C38.0777 37.6261 38.0962 37.5954 38.1121 37.5635C38.405 36.9933 38.4746 36.3343 38.3072 35.7155ZM31.0116 17.5501C31.5978 17.5503 32.1113 17.9427 32.2655 18.5082L33 21.2025L23.9722 32.0353L21.0616 31.0603C23.1883 28.5572 27.2514 23.2974 29.3015 17.5502H31.0116V17.5501ZM9.79775 9.96213C10.3156 5.00521 14.5172 1.25454 19.5009 1.30032H19.6686C24.9778 1.41481 29.2285 5.73981 29.2508 11.0502C29.2177 12.9496 28.8808 14.8316 28.253 16.6246C28.2417 16.6529 28.2323 16.682 28.2251 16.7117C26.2868 22.4661 22.0904 27.8532 19.9923 30.3141C19.8711 30.458 19.6922 30.5406 19.5041 30.5396C19.4989 30.5396 19.4943 30.5363 19.4885 30.5363L19.1596 30.4265C19.1018 30.3947 19.0493 30.3544 19.0036 30.3069C16.665 27.5633 9.08799 17.987 9.79775 9.96213ZM6.73628 18.5076C6.89068 17.9423 7.40415 17.5503 7.99014 17.5501H9.69568C11.4039 22.3419 14.516 26.7989 16.7598 29.6244L4.79544 25.6244L6.73628 18.5076ZM3.20682 37.7C2.80029 37.7021 2.41654 37.5129 2.17074 37.1891C1.92387 36.8676 1.84252 36.4487 1.95106 36.0581L3.51622 30.3187L10.3268 32.5937L6.06681 37.7001H3.20682V37.7ZM12.3347 37.7L15.2246 34.2323L25.6049 37.7H12.3347ZM35.8007 37.7H29.7058L15.2109 32.8582H15.2019C15.1516 32.8461 15.1002 32.8398 15.0485 32.8394C15.0162 32.8335 14.9836 32.8298 14.951 32.8283C14.9112 32.8353 14.8723 32.8462 14.8346 32.8608C14.7931 32.8688 14.7525 32.8805 14.7131 32.896C14.6881 32.9129 14.6642 32.9313 14.6415 32.9512C14.5942 32.9797 14.5504 33.014 14.5115 33.0533L14.5044 33.0591L10.6421 37.7001H7.75941L11.9331 32.6951C11.9355 32.6911 11.9376 32.687 11.9395 32.6828C11.988 32.625 12.0256 32.5589 12.0507 32.4878V32.48C12.0658 32.4226 12.0731 32.3633 12.0721 32.3038C12.0721 32.2778 12.0819 32.2525 12.0799 32.2278C12.0725 32.1834 12.0604 32.1398 12.0442 32.0978C12.037 32.0604 12.0263 32.0239 12.0124 31.9885C11.9971 31.9628 11.9799 31.9383 11.961 31.9151C11.9321 31.8674 11.8972 31.8238 11.857 31.7851L11.8512 31.7779C11.8199 31.7568 11.7865 31.7387 11.7517 31.724C11.7172 31.6986 11.6802 31.6768 11.6412 31.659L3.85816 29.0589L4.45359 26.8769L18.6059 31.6082C18.7864 31.7035 18.9811 31.7694 19.1824 31.8032L23.9696 33.4035L23.9807 33.4068C24.0469 33.4295 24.1166 33.4412 24.1867 33.4412C24.2702 33.4394 24.3526 33.4212 24.4292 33.3879C24.4494 33.3791 24.4692 33.3691 24.4883 33.3579C24.5521 33.325 24.6095 33.2809 24.658 33.2279C24.6664 33.2195 24.6782 33.2162 24.6865 33.2064L33.4179 22.7331L34.1289 25.3402L27.2689 33.5724C27.2458 33.6068 27.226 33.6434 27.2097 33.6816C27.1871 33.7136 27.1677 33.7478 27.1519 33.7837V33.7914C27.1372 33.8474 27.1302 33.9052 27.1311 33.963C27.1267 33.9897 27.1239 34.0166 27.1226 34.0436C27.13 34.0881 27.1419 34.1317 27.1584 34.1737C27.1659 34.2118 27.1768 34.2492 27.1909 34.2855C27.2073 34.3102 27.2253 34.3339 27.2448 34.3563C27.2735 34.4039 27.3083 34.4476 27.3482 34.4863L27.3534 34.4928C27.4147 34.5435 27.4847 34.5825 27.5601 34.6078H27.5647L30.9843 35.7453C30.9992 35.7505 31.0142 35.7544 31.0298 35.7583L36.4007 37.551C36.2158 37.6487 36.0098 37.6999 35.8007 37.7ZM31.4009 34.5098C31.3853 34.5046 31.3697 34.5001 31.3529 34.4962L28.8784 33.67L34.5464 26.8679L37.0508 36.0581C37.0812 36.1739 37.0954 36.2934 37.0931 36.413L31.4009 34.5098Z" fill="white"/>
</g>
<defs>
<clipPath id="clip0">
<rect width="39" height="39" fill="white"/>
</clipPath>
</defs>
</svg>
