<svg width="70" height="70" viewBox="0 0 70 70" fill="none" xmlns="http://www.w3.org/2000/svg">
<g clip-path="url(#clip0)">
<path d="M40.5137 69.118C39.6171 69.118 38.7964 68.5297 38.5341 67.6348L37.5518 64.2809L29.7272 52.9624L27.9164 53.7825L27.0299 55.545C26.4555 56.6872 25.4144 57.5186 24.1732 57.8258C22.932 58.1329 21.6232 57.8835 20.5822 57.1413L14.6197 52.8896L9.54872 55.5637C8.80571 55.9556 7.90922 55.8609 7.26491 55.3228C6.6202 54.7843 6.36722 53.9187 6.62047 53.1173C7.13367 51.494 9.93964 45.6567 11.9847 43.8849C12.8127 43.167 14.0581 43.2193 14.8197 44.0047L17.236 46.4953L20.9177 48.1971L21.0618 46.5975C19.6394 43.71 19.561 40.3197 20.9368 37.2996L22.1634 34.6072L23.7801 27.2685H19.6051L19.0269 30.3083C19.5428 30.9762 20.4239 32.3456 20.2634 33.7381C19.9756 36.239 17.8982 37.4384 15.997 37.3277C14.0948 37.2187 12.1691 35.791 12.1691 33.2738V32.3454C12.1691 31.7906 12.6188 31.341 13.1735 31.341C13.7282 31.341 14.1779 31.7906 14.1779 32.3454V33.2738C14.1779 34.7037 15.2199 35.2709 16.1121 35.322C17.004 35.374 18.1042 34.9288 18.2678 33.5084C18.3517 32.7798 17.5925 31.682 17.2114 31.2647C16.9982 31.031 16.9058 30.7088 16.9649 30.3979L17.787 26.0762C17.8772 25.6024 18.2914 25.2594 18.7738 25.2594H20.3962V21.4771C18.3302 21.7168 16.6136 21.9942 15.5959 22.2235C14.761 22.4116 14.1779 23.1403 14.1779 23.9954V28.3276C14.1779 28.8824 13.7282 29.332 13.1735 29.332C12.6188 29.332 12.1691 28.8824 12.1691 28.3276V23.9954C12.1691 22.1943 13.3968 20.6598 15.1544 20.2638C17.4784 19.7401 23.2917 18.9749 28.7246 18.9168L28.9771 18.3586C27.7427 17.2307 25.1514 14.3674 25.1514 10.2086C25.1514 6.63647 26.708 3.75269 29.5343 2.08828C30.0126 1.80704 30.6281 1.96641 30.9096 2.44412C31.1911 2.92209 31.0317 3.53788 30.5538 3.81938C28.3654 5.10787 27.1604 7.37694 27.1604 10.2086C27.1604 14.5463 30.7636 17.2445 30.8 17.2711C31.1823 17.5521 31.3159 18.0621 31.1205 18.4944L30.6275 19.5845L35.315 22.9755L36.1605 21.7296C36.1186 21.6191 36.0958 21.4992 36.0958 21.3741C36.0958 20.8193 36.5455 20.3697 37.1002 20.3697C40.346 20.3697 42.732 20.1625 43.6616 17.9348C41.8121 17.6695 40.6886 16.917 40.6334 16.8795C40.1751 16.5671 40.0567 15.9422 40.3692 15.4838C40.6804 15.0273 41.3014 14.9083 41.7593 15.2158C41.7864 15.2335 42.6492 15.7851 44.0706 15.9629C44.0827 15.7607 44.0889 15.5495 44.0889 15.3285C44.0889 14.992 44.2575 14.6778 44.538 14.4916C45.2577 14.0141 45.4308 13.6399 45.4219 13.5088C45.4129 13.3779 45.1993 13.0611 44.4555 12.703C44.1078 12.5356 43.8868 12.1837 43.8868 11.7979C43.8868 8.68243 43.3957 6.55063 42.3412 5.08898C41.1118 3.38587 39.0159 2.55769 35.9331 2.55769C35.1988 2.55769 34.4942 2.60831 33.8389 2.70822C33.2908 2.79138 32.7782 2.41519 32.6945 1.86677C32.611 1.31822 32.9877 0.805962 33.5361 0.722394C34.2914 0.607219 35.0978 0.548828 35.9331 0.548828C44.4986 0.548828 45.7979 6.45608 45.8896 11.2001C47.0706 11.931 47.384 12.7656 47.4256 13.3712C47.4691 14.0038 47.2569 14.9198 46.0869 15.8482C45.9032 20.2607 43.3624 21.6919 40.7215 22.156C43.4025 23.8653 45.613 25.7948 46.6323 26.7331L49.1553 25.0285C49.2632 24.1908 49.6087 22.6015 50.706 21.7308C52.6779 20.1657 54.993 20.7871 56.261 22.2094C57.529 23.6317 57.8812 26.0027 56.1012 27.7828L49.5945 34.2895C48.3205 35.5634 46.3671 35.7809 44.8442 34.8181L38.493 30.8028L37.7348 32.6472C37.5238 33.1602 36.9368 33.4055 36.4239 33.1943C35.9108 32.9833 35.6659 32.3965 35.8768 31.8834L37.0898 28.9328C37.2025 28.6583 37.431 28.4479 37.7137 28.3577C37.9967 28.2676 38.3047 28.3071 38.5554 28.4657L40.4905 29.6891L42.7187 26.0497C41.3587 24.9804 39.6625 23.7744 37.8617 22.7998L36.3956 24.9601C36.2431 25.1848 36.0061 25.3381 35.7385 25.3853C35.471 25.4324 35.1958 25.3691 34.9758 25.2098L29.0502 20.9231C26.8143 20.9354 24.5049 21.0736 22.4047 21.2679V25.2594H25.0298C25.3341 25.2594 25.622 25.3973 25.8127 25.6347C26.0033 25.8718 26.0761 26.1828 26.0106 26.48L24.1022 35.1428C24.0871 35.2118 24.0646 35.2791 24.0354 35.3432L22.7647 38.1323C22.4805 38.7561 22.2724 39.3992 22.139 40.0502H32.5195L34.3971 35.4829C34.6079 34.97 35.195 34.7249 35.7079 34.9358C36.221 35.1466 36.466 35.7336 36.255 36.2467L34.2871 41.0339L38.2849 49.7944C38.5151 50.299 38.2928 50.8948 37.7882 51.1252C37.2836 51.3557 36.6877 51.1332 36.4574 50.6283L36.1873 50.0365L31.587 52.1201L35.2526 57.4226L38.6533 55.4408L38.1629 54.366C37.9326 53.8614 38.155 53.2656 38.6596 53.0352C39.1644 52.8053 39.7601 53.0272 39.9904 53.5321L42.8821 59.8688H50.0766C50.9165 59.8688 51.6651 60.3705 51.984 61.1469C52.3033 61.9244 52.1229 62.8086 51.5244 63.3997C49.5842 65.3164 46.1801 67.8548 40.982 69.064C40.8255 69.1005 40.6684 69.118 40.5137 69.118ZM39.79 64.7755L40.4621 67.07C40.47 67.0971 40.4993 67.1141 40.5269 67.1074C45.5183 65.9463 48.6751 63.3906 50.1128 61.9705C50.129 61.9546 50.1397 61.944 50.1258 61.91C50.1125 61.8777 50.0998 61.8777 50.0768 61.8777H43.0361C42.7675 62.6812 42.2712 63.3901 41.5904 63.927C41.0535 64.35 40.4395 64.637 39.79 64.7755ZM36.3983 59.0797L39.0106 62.8585C39.4946 62.8307 39.9579 62.6559 40.3465 62.3495C40.779 62.0085 41.0744 61.5397 41.1951 61.0104L39.4916 57.2773L36.3983 59.0797ZM19.9044 54.1907L21.7485 55.5057C22.3114 55.907 23.0192 56.0422 23.6904 55.8759C24.3615 55.7098 24.9247 55.2601 25.2352 54.6424L25.9907 53.1403L22.8416 49.2296L22.7904 49.7969C22.7611 50.1224 22.5755 50.4131 22.2927 50.5765C22.0124 50.7383 21.6712 50.7554 21.3765 50.622L19.9044 54.1907ZM13.3401 45.3879C13.3262 45.3879 13.312 45.3928 13.3003 45.403C11.6961 46.793 9.03606 52.1413 8.53612 53.7228C8.52915 53.7446 8.525 53.7579 8.55273 53.781C8.57964 53.8034 8.59103 53.7976 8.61165 53.7869L13.5238 51.1966C13.2745 49.6593 13.8678 48.1059 15.044 47.1207L13.378 45.4034C13.3678 45.393 13.3542 45.3879 13.3401 45.3879ZM15.5513 51.0868L18.2251 52.9933L19.5512 49.7785L16.6502 48.4375C15.742 48.973 15.2864 50.0572 15.5513 51.0868ZM21.9623 42.0591C22.0134 43.9597 22.6806 45.8266 23.9287 47.3764L27.473 51.7781L35.3535 48.209L32.5471 42.0591H21.9623ZM42.1888 30.7626L45.9178 33.1201C46.6411 33.5778 47.5691 33.4744 48.1741 32.869L54.6808 26.3623C55.6919 25.3511 55.3562 24.2133 54.7616 23.5462C54.167 22.8792 53.0749 22.4154 51.9548 23.3044C51.3733 23.7659 51.138 25.0742 51.1152 25.6355C51.1022 25.9545 50.9384 26.2482 50.674 26.4269L47.0899 28.8483C46.6932 29.116 46.1627 29.067 45.8222 28.7311C45.807 28.7162 45.2334 28.1546 44.2851 27.3386L42.1888 30.7626ZM55.5737 58.8063C51.3997 58.8063 48.0038 55.4105 48.0038 51.2365C48.0038 47.0623 51.3995 43.6666 55.5737 43.6666C56.5625 43.6666 57.5246 43.8546 58.4331 44.2256C58.9467 44.4352 59.1931 45.0215 58.9834 45.5351C58.7738 46.0485 58.1872 46.2948 57.6739 46.0852C57.0075 45.8134 56.3009 45.6753 55.5737 45.6753C52.5074 45.6753 50.0126 48.17 50.0126 51.2364C50.0126 54.3027 52.5072 56.7973 55.5737 56.7973C58.6401 56.7973 61.1348 54.3027 61.1348 51.2364C61.1348 50.1097 60.7999 49.0249 60.1663 48.0995C59.853 47.6417 59.97 47.0165 60.4278 46.7032C60.8855 46.3896 61.5105 46.507 61.8239 46.9644C62.6873 48.2256 63.1436 49.7027 63.1436 51.2362C63.1436 55.4104 59.7478 58.8063 55.5737 58.8063ZM34.8303 16.7721C34.1305 16.7721 33.4537 16.5278 32.8776 16.0586C31.9853 15.3318 31.431 14.1256 31.431 12.9107C31.431 11.1519 32.7327 9.8256 34.4588 9.8256C35.1321 9.8256 35.5738 9.99314 35.9508 10.1741C36.4508 10.4142 36.6616 11.0142 36.4215 11.5144C36.1814 12.0146 35.5815 12.2257 35.0813 11.9851C34.8498 11.8741 34.7211 11.8346 34.4588 11.8346C33.7075 11.8346 33.4398 12.3905 33.4398 12.9108C33.4398 13.5274 33.717 14.1516 34.1461 14.501C34.4229 14.7264 34.7264 14.8069 35.048 14.7405C35.5916 14.6285 36.1226 14.9777 36.2349 15.5207C36.3472 16.064 35.9979 16.5953 35.4547 16.7077C35.246 16.7508 35.0371 16.7721 34.8303 16.7721ZM40.6602 12.8026C40.1055 12.8026 39.6558 12.353 39.6558 11.7982V10.7147C39.6558 10.1599 40.1055 9.71029 40.6602 9.71029C41.2149 9.71029 41.6646 10.1599 41.6646 10.7147V11.7982C41.6646 12.353 41.2149 12.8026 40.6602 12.8026Z" fill="white" fill-opacity="0.3"/>
</g>
<defs>
<clipPath id="clip0">
<rect width="68.5692" height="68.5692" fill="white" transform="translate(0.549011 0.548828)"/>
</clipPath>
</defs>
</svg>
