<svg width="163" height="163" viewBox="0 0 163 163" fill="none" xmlns="http://www.w3.org/2000/svg">
<g clip-path="url(#clip0)">
<path d="M124.769 38.7327C121.729 35.9632 117.246 35.4823 113.688 37.5441L113.681 37.5479L90.115 51.1771L90.1116 51.179C87.9651 52.3859 85.2816 52.0434 83.5069 50.3365L62.8368 31.1666C59.07 27.5481 53.0832 27.6685 49.4648 31.4351C47.2179 33.7741 46.3264 37.1016 47.1027 40.2507L53.3679 67.7376C53.9589 70.1281 52.9135 72.6235 50.7951 73.879L50.7917 73.881L27.2055 87.4749L27.1988 87.4787C23.6342 89.5293 21.8088 93.6527 22.6872 97.6702C23.4627 101.864 26.8681 105.071 31.101 105.594L58.8292 109.14C61.2963 109.483 63.2894 111.326 63.8243 113.759L70.1306 141.604C71.0145 145.835 74.5823 148.978 78.8916 149.32C82.9623 149.716 86.8067 147.381 88.3319 143.586L98.8669 118.309C99.7884 116.043 102.13 114.691 104.553 115.026L131.711 118.54C135.76 119.119 139.705 116.957 141.397 113.233C143.256 109.33 142.318 104.669 139.095 101.787L118.134 82.4029C116.295 80.7229 115.696 78.0758 116.632 75.7675L127.424 49.981C129.088 46.054 128.014 41.5013 124.769 38.7327ZM123.77 48.4506L112.977 74.2372C111.401 78.0814 112.385 82.5005 115.443 85.3128L136.405 104.697C138.34 106.419 138.911 109.208 137.809 111.552C136.845 113.712 134.559 114.962 132.221 114.609L105.063 111.094C100.864 110.517 96.8072 112.859 95.2068 116.784L84.6724 142.062C83.8091 144.263 81.583 145.617 79.2314 145.372C76.6504 145.155 74.5201 143.265 73.9962 140.728L67.6896 112.883C66.7833 108.828 63.4481 105.767 59.3309 105.21L31.6027 101.663C29.0684 101.332 27.037 99.4041 26.5744 96.8904C26.0309 94.5408 27.0893 92.1124 29.1803 90.9108L29.1835 90.909L52.7697 77.3148L52.7763 77.311C56.4057 75.1914 58.2158 70.9427 57.2301 66.8568L50.9651 39.3698C50.2028 36.4309 51.9675 33.4304 54.9067 32.668C56.7774 32.1827 58.7653 32.7155 60.1429 34.071L80.8132 53.2416C83.858 56.1378 88.4418 56.6951 92.0919 54.6127L92.1003 54.6078L115.666 40.9786L115.67 40.9767C117.756 39.7665 120.388 40.0642 122.151 41.7096C124.097 43.3669 124.751 46.0902 123.77 48.4506Z" fill="white"/>
<path d="M56.8272 38.8715C55.8794 39.4187 55.5546 40.6306 56.1019 41.5784L57.1257 43.3517C57.6726 44.2995 58.884 44.6244 59.8318 44.0775C59.8322 44.0773 59.8324 44.0771 59.8326 44.077C60.7804 43.5301 61.1054 42.3187 60.5584 41.3709C60.5582 41.3705 60.5581 41.3703 60.558 41.3701L59.5342 39.5968C58.9872 38.649 57.7751 38.3242 56.8272 38.8715Z" fill="white"/>
<path d="M61.947 47.7397C60.9991 48.2869 60.6744 49.4987 61.2216 50.4466L62.2454 52.2199C62.7924 53.1676 64.0038 53.4926 64.9516 52.9457C64.952 52.9454 64.9522 52.9453 64.9524 52.9452C65.9002 52.3983 66.2251 51.1868 65.6782 50.239C65.6781 50.2388 65.6778 50.2384 65.6777 50.2382L64.6539 48.465C64.1069 47.517 62.8948 47.1924 61.947 47.7397Z" fill="white"/>
<path d="M67.0667 56.6068C66.1189 57.1541 65.7943 58.3661 66.3414 59.3138L67.3652 61.087C67.9121 62.0348 69.1235 62.3598 70.0713 61.8128C70.0717 61.8126 70.0719 61.8125 70.0721 61.8124C71.0199 61.2654 71.3449 60.054 70.7979 59.1062C70.7978 59.106 70.7976 59.1056 70.7975 59.1054L69.7737 57.3322C69.2267 56.3844 68.0146 56.0596 67.0667 56.6068Z" fill="white"/>
<path d="M72.1864 65.4745C71.2385 66.0218 70.9139 67.2338 71.461 68.1815L72.4848 69.9547C73.0317 70.9025 74.2432 71.2274 75.191 70.6805C75.1914 70.6803 75.1916 70.6802 75.1918 70.68C76.1395 70.1331 76.4645 68.9217 75.9176 67.9739C75.9174 67.9737 75.9172 67.9733 75.9171 67.9731L74.8933 66.1998C74.3464 65.2521 73.1342 64.9273 72.1864 65.4745Z" fill="white"/>
<path d="M77.3062 74.3422C76.3584 74.8894 76.0336 76.1013 76.5809 77.0491L77.6047 78.8224C78.1516 79.7702 79.3631 80.0951 80.3108 79.5482C80.3112 79.548 80.3114 79.5478 80.3116 79.5477C81.2594 79.0008 81.5844 77.7894 81.0374 76.8416C81.0372 76.8412 81.0371 76.841 81.037 76.8408L80.0132 75.0675C79.4661 74.1195 78.2541 73.7949 77.3062 74.3422Z" fill="white"/>
<path d="M35.8758 92.3939L33.888 92.5426C32.7968 92.6246 31.9788 93.5757 32.0607 94.6668C32.1428 95.758 33.0938 96.576 34.185 96.4941L36.1728 96.3453C37.264 96.2632 38.082 95.3122 38.0001 94.2209C37.9181 93.13 36.9669 92.312 35.8758 92.3939Z" fill="white"/>
<path d="M45.8158 91.6516L43.8281 91.8004C42.7369 91.8825 41.9189 92.8334 42.0007 93.9245C42.0828 95.0157 43.0338 95.8337 44.1249 95.7519L46.1126 95.6032C47.2038 95.521 48.0218 94.5701 47.9399 93.4788C47.8581 92.3877 46.907 91.5695 45.8158 91.6516Z" fill="white"/>
<path d="M55.76 90.9079L53.7717 91.0559C52.6802 91.1393 51.863 92.0917 51.9462 93.1833C52.0293 94.2715 52.9766 95.0879 54.0653 95.0093L56.0536 94.8614C57.1452 94.7781 57.9624 93.8258 57.8792 92.7342C57.7962 91.6456 56.8487 90.8294 55.76 90.9079Z" fill="white"/>
<path d="M65.7002 90.1663L63.712 90.3143C62.6203 90.3975 61.8031 91.3498 61.8863 92.4415C61.9694 93.53 62.9169 94.3462 64.0055 94.2677L65.9938 94.1197C67.0854 94.0365 67.9026 93.0841 67.8194 91.9925C67.7364 90.904 66.789 90.0874 65.7002 90.1663Z" fill="white"/>
<path d="M75.6387 89.4245L73.6509 89.5733C72.5598 89.6554 71.7417 90.6064 71.8236 91.6975C71.9057 92.7887 72.8566 93.6067 73.9477 93.5249L75.9355 93.3761C77.0267 93.294 77.8447 92.343 77.7628 91.2517C77.6809 90.1606 76.7297 89.3425 75.6387 89.4245Z" fill="white"/>
<path d="M117.531 45.3208C116.627 44.7041 115.394 44.9372 114.777 45.8413L113.655 47.4884C113.037 48.3918 113.269 49.6246 114.173 50.2418C114.803 50.6722 115.624 50.7025 116.284 50.3201C116.541 50.1715 116.762 49.9669 116.928 49.7212L118.051 48.0741C118.668 47.1701 118.435 45.9376 117.531 45.3208Z" fill="white"/>
<path d="M111.918 53.5582C111.014 52.9414 109.781 53.1745 109.165 54.0786L108.042 55.7257C107.425 56.6291 107.657 57.862 108.56 58.4791C109.19 58.9095 110.011 58.9398 110.671 58.5574C110.928 58.4089 111.149 58.2042 111.316 57.9585L112.438 56.3114C113.055 55.4074 112.822 54.1748 111.918 53.5582Z" fill="white"/>
<path d="M106.297 61.7957C105.393 61.1831 104.164 61.4165 103.548 62.3176L102.426 63.9655C101.81 64.8707 102.045 66.1036 102.95 66.7191C103.579 67.1472 104.398 67.1772 105.057 66.7963C105.315 66.6473 105.535 66.4423 105.703 66.1965L106.825 64.5486C107.44 63.6425 107.203 62.41 106.297 61.7957Z" fill="white"/>
<path d="M100.684 70.033C99.7803 69.4204 98.5517 69.6538 97.9355 70.555L96.8133 72.2028C96.1976 73.108 96.4323 74.3409 97.3374 74.9564C97.9667 75.3845 98.7855 75.4145 99.4444 75.0336C99.7019 74.8846 99.9227 74.6796 100.09 74.4338L101.213 72.7859C101.827 71.8798 101.59 70.6472 100.684 70.033Z" fill="white"/>
<path d="M95.0777 78.2715C94.1738 77.6548 92.941 77.8879 92.3244 78.792L91.2017 80.4391C90.5845 81.3425 90.8165 82.5753 91.7201 83.1925C92.3499 83.6229 93.1711 83.6532 93.8312 83.2707C94.0884 83.1222 94.3087 82.9176 94.4755 82.6719L95.5982 81.0248C96.2147 80.121 95.9816 78.8883 95.0777 78.2715Z" fill="white"/>
<path d="M83.3993 94.3864C82.3076 94.3083 81.3594 95.13 81.2812 96.2216L81.1362 98.2427C81.0585 99.3342 81.8799 100.282 82.9714 100.361C84.0631 100.439 85.0112 99.6172 85.0895 98.5257L85.2344 96.5046C85.3127 95.4131 84.4911 94.4646 83.3993 94.3864Z" fill="white"/>
<path d="M82.6659 104.498C81.5783 104.423 80.6341 105.24 80.5527 106.327L80.4073 108.347C80.3289 109.439 81.1507 110.388 82.2425 110.466C82.637 110.495 83.0308 110.404 83.3735 110.207L83.3736 110.207C83.944 109.879 84.3142 109.289 84.3616 108.632L84.507 106.612C84.5824 105.52 83.758 104.573 82.6659 104.498Z" fill="white"/>
<path d="M81.9563 114.59C80.8652 114.506 79.9126 115.322 79.8281 116.413C79.8277 116.418 79.8273 116.424 79.8268 116.43L79.6803 118.452C79.596 119.543 80.4118 120.496 81.5029 120.58C82.594 120.665 83.5465 119.849 83.631 118.757C83.6313 118.752 83.6317 118.746 83.6322 118.74L83.7787 116.718C83.8631 115.627 83.0471 114.675 81.9563 114.59Z" fill="white"/>
<path d="M81.2156 124.703C80.1239 124.625 79.1757 125.447 79.0975 126.538L78.9525 128.56C78.8748 129.651 79.6962 130.599 80.7876 130.678C81.8794 130.756 82.8275 129.934 82.9058 128.843L83.0507 126.821C83.1289 125.73 82.3072 124.781 81.2156 124.703Z" fill="white"/>
<path d="M80.4818 134.815C79.3943 134.74 78.4505 135.557 78.3688 136.644L78.2234 138.665C78.148 139.757 78.9724 140.703 80.0644 140.779C81.152 140.854 82.0961 140.036 82.1776 138.949L82.323 136.929C82.3984 135.837 81.574 134.89 80.4818 134.815Z" fill="white"/>
<path d="M96.0894 89.6098L94.2666 88.7247C93.2796 88.252 92.0962 88.669 91.6234 89.656C91.1544 90.6355 91.5609 91.81 92.5351 92.2899L94.3577 93.175C95.3423 93.6532 96.5279 93.2428 97.006 92.2582C97.4844 91.2735 97.074 90.0879 96.0894 89.6098Z" fill="white"/>
<path d="M105.205 94.0304L103.383 93.1461C102.398 92.6701 101.214 93.0806 100.735 94.0637C100.256 95.0482 100.667 96.2341 101.651 96.7124C101.651 96.7125 101.652 96.7128 101.652 96.7129L103.474 97.5971C104.461 98.0721 105.645 97.6576 106.12 96.6712C106.594 95.689 106.185 94.5093 105.205 94.0304Z" fill="white"/>
<path d="M114.335 98.461C114.33 98.4584 114.325 98.4558 114.32 98.4534L112.495 97.5693C111.512 97.0882 110.326 97.495 109.845 98.4777C109.364 99.4605 109.77 100.647 110.753 101.128C110.758 101.131 110.764 101.133 110.769 101.136L112.593 102.02C113.576 102.501 114.763 102.094 115.244 101.112C115.725 100.129 115.318 98.9421 114.335 98.461Z" fill="white"/>
<path d="M123.436 102.877L121.614 101.992C120.629 101.513 119.444 101.924 118.965 102.909C118.487 103.893 118.898 105.079 119.882 105.557L121.705 106.442C122.689 106.92 123.875 106.51 124.353 105.525C124.831 104.541 124.421 103.355 123.436 102.877Z" fill="white"/>
<path d="M132.552 107.298L130.73 106.413C129.743 105.938 128.559 106.353 128.084 107.339C127.611 108.321 128.02 109.501 128.999 109.98L130.821 110.864C131.808 111.339 132.992 110.925 133.467 109.938C133.94 108.956 133.532 107.776 132.552 107.298Z" fill="white"/>
</g>
<defs>
<clipPath id="clip0">
<rect width="119" height="119" fill="white" transform="translate(0 59.5) rotate(-30)"/>
</clipPath>
</defs>
</svg>
