<svg width="192" height="192" viewBox="0 0 192 192" fill="none" xmlns="http://www.w3.org/2000/svg">
<g clip-path="url(#clip0)">
<path d="M122.572 34.2627L116.9 37.5064C115.912 38.0715 115.57 39.3299 116.135 40.3179C116.7 41.306 117.958 41.6487 118.946 41.0837L124.618 37.8399C125.606 37.2749 125.949 36.0164 125.384 35.0284C124.819 34.0404 123.56 33.6978 122.572 34.2627Z" fill="white" fill-opacity="0.3"/>
<path d="M95.6806 61.0921C85.6791 66.8118 82.1975 79.6052 87.9193 89.6106C93.6391 99.6123 106.429 103.096 116.431 97.3764C126.436 91.6546 129.923 78.8625 124.203 68.8607C118.481 58.8554 105.686 55.3703 95.6806 61.0921ZM114.385 93.7994C106.356 98.3911 96.0885 95.5943 91.4967 87.5651C86.9029 79.5322 89.6974 69.261 97.7264 64.6694C105.759 60.0757 116.032 62.8736 120.626 70.9067C125.217 78.9357 122.418 89.2056 114.385 93.7994Z" fill="white" fill-opacity="0.3"/>
<path d="M124.825 20.3007L103.095 32.7275L97.6675 28.1171C96.793 27.3747 94.1316 25.1161 91.2156 26.7837L63.3908 42.6961C60.4746 44.3638 61.0717 47.803 61.2682 48.9341L62.4891 55.9494L44.7965 66.0675L42.3237 61.7436C40.977 59.3888 37.9657 58.5686 35.6109 59.9153L27.6423 64.4724C25.2913 65.8169 24.4742 68.8264 25.8209 71.1812L28.3378 75.5824C25.408 77.9118 24.5325 82.107 26.4486 85.4575L47.3711 122.043L40.1664 128.249C37.1393 130.861 36.8007 135.447 39.4097 138.471L71.1366 175.313C73.4371 177.975 77.2773 178.553 80.2309 176.864C80.6239 176.639 81.0015 176.374 81.3574 176.069L96.8893 162.688C97.7515 161.946 97.8482 160.644 97.1055 159.782C96.3628 158.92 95.0609 158.823 94.1997 159.566L78.6705 172.944C77.361 174.07 75.3805 173.922 74.2569 172.621L42.5306 135.78C41.4047 134.475 41.552 132.497 42.8569 131.37L81.5849 98.0091C82.2139 97.4699 83.0207 97.2066 83.8581 97.2692C84.6953 97.3319 85.4536 97.7126 85.9955 98.3442L117.724 135.174C118.85 136.479 118.703 138.458 117.398 139.584L101.859 152.969C100.997 153.712 100.9 155.013 101.643 155.875C102.385 156.737 103.686 156.833 104.549 156.092L120.089 142.705C123.116 140.093 123.454 135.507 120.845 132.484L112.265 122.525L132.23 111.107C133.218 110.542 133.561 109.284 132.996 108.296C132.431 107.308 131.172 106.965 130.184 107.53L109.525 119.344L102.085 110.708C108.855 111.562 115.785 110.219 121.806 106.776C133.742 99.9502 139.564 86.4946 137.295 73.6753L154.02 64.1107L165.068 83.43C166.055 85.1545 165.457 87.3579 163.737 88.3419L138.944 102.52C137.956 103.085 137.613 104.344 138.178 105.332C138.743 106.32 140.002 106.663 140.99 106.098L165.782 91.9192C169.475 89.8073 170.76 85.0812 168.646 81.3842L135.357 23.175C133.243 19.478 128.518 18.1888 124.825 20.3007ZM65.3283 48.2285C65.1297 47.086 65.1662 46.4283 65.4367 46.2736L93.2615 30.3611C93.598 30.1687 94.3934 30.7433 95.0005 31.2586L99.2914 34.9029L66.2931 53.774L65.3283 48.2285ZM78.5211 94.9855C78.5498 95.0356 78.5807 95.0841 78.6094 95.1338L67.0925 105.055L62.3147 96.7002L75.8587 88.9547C76.5219 91.0136 77.4054 93.0345 78.5211 94.9855ZM29.3979 69.1356C29.1829 68.7597 29.3157 68.2625 29.6878 68.0498L37.6565 63.4926C38.0388 63.274 38.5276 63.4072 38.7462 63.7895L41.219 68.1134L31.8707 73.4595L29.3979 69.1356ZM30.0258 83.4117C29.0398 81.6875 29.6373 79.4839 31.3577 78.5L32.1278 78.0596L43.2647 71.6906L63.9118 107.794L58.5284 112.432L46.9919 92.2589C46.0094 90.5409 43.8127 89.9426 42.0947 90.9251L36.238 94.2744L30.0258 83.4117ZM38.2837 97.8517L43.6787 94.7664L55.348 115.171L50.5515 119.303L38.2837 97.8517ZM119.76 103.198C113.026 107.05 104.984 107.882 97.61 105.512L89.1202 95.6572C87.8626 94.1918 86.103 93.3048 84.166 93.1596C83.5293 93.112 82.8998 93.1479 82.2888 93.2606C82.2256 93.1534 82.1597 93.048 82.0979 92.94C74.5402 79.7244 79.14 62.8261 92.3513 55.2708C105.567 47.7132 122.467 52.3165 130.024 65.5318C137.58 78.7435 132.976 95.6406 119.76 103.198ZM151.974 60.533L136.264 69.5174C135.601 67.4584 134.717 65.4371 133.602 63.4861C132.486 61.5351 131.192 59.7489 129.754 58.1333L145.464 49.1489L151.974 60.533ZM143.418 45.5717L126.695 55.1355C116.794 46.6752 102.243 44.8668 90.3058 51.6934C78.3718 58.5182 72.5538 71.9759 74.826 84.7981L60.2687 93.1231L46.842 69.6449L65.7895 58.8092L103.886 37.0225L126.871 23.8781C128.591 22.8941 130.793 23.4966 131.779 25.2208L143.418 45.5718L143.418 45.5717Z" fill="white" fill-opacity="0.3"/>
<path d="M109.908 136.282C109.969 135.415 109.702 134.593 109.159 133.973L85.6109 106.902C84.3741 105.49 82.1484 105.467 80.5388 106.848L51.0395 132.258C49.4248 133.647 49.1213 135.858 50.3605 137.305L73.899 164.352C74.4379 164.981 75.2107 165.364 76.0757 165.43C76.8326 165.488 77.6143 165.299 78.3088 164.902C78.5461 164.766 78.7733 164.606 78.9858 164.423L108.478 139.017C109.315 138.298 109.836 137.301 109.908 136.282ZM67.1111 150.244L53.9695 135.173L82.9938 110.172L90.6663 118.993L86.9456 122.199C79.8478 128.313 78.5648 132.219 77.3238 135.996C76.122 139.655 74.8793 143.432 67.1111 150.244ZM76.5337 161.096L73.2422 157.275L69.8188 153.349C78.4446 145.779 79.9266 141.278 81.239 137.283C82.4016 133.744 83.4054 130.687 89.6356 125.321L93.3708 122.102L105.549 136.102L76.5337 161.096Z" fill="white" fill-opacity="0.3"/>
</g>
<defs>
<clipPath id="clip0">
<rect width="140.66" height="140.66" fill="white" transform="translate(0 69.8286) rotate(-29.7644)"/>
</clipPath>
</defs>
</svg>
