<svg width="148" height="143" viewBox="0 0 148 143" fill="none" xmlns="http://www.w3.org/2000/svg">
<path d="M143.657 100.567C143.321 99.3719 142.241 98.5298 140.965 98.4657C139.592 98.3968 138.257 98.0846 136.997 97.5376C133.803 96.151 131.526 93.4427 130.752 90.1073C130.731 90.0185 130.706 89.9308 130.677 89.8442C128.858 83.4516 124.262 78.2461 118.052 75.5505C115.841 74.5906 113.533 73.9842 111.159 73.7357C111.355 71.5307 111.339 69.3323 111.126 67.1657C113.115 64.6956 115.743 62.8033 118.772 61.6722C121.467 60.6654 124.373 60.3128 127.177 60.6526C130.063 61.0412 133.055 60.699 135.829 59.6629C141.615 57.5017 145.898 52.484 147.006 46.5681C147.236 45.3376 146.647 44.1169 145.535 43.5217C144.423 42.9259 143.031 43.0871 142.061 43.9216C141.019 44.8186 139.827 45.5207 138.519 46.0094C135.202 47.2485 131.588 46.9422 128.602 45.1689C128.523 45.1215 128.441 45.0782 128.357 45.0386C122.394 41.8703 115.287 41.4327 108.839 43.8412C106.541 44.6996 104.435 45.8759 102.538 47.3388C101.097 45.6949 99.4946 44.1689 97.7346 42.7892C97.3809 39.7192 97.905 36.6099 99.2685 33.7505C100.485 31.199 102.33 28.9556 104.603 27.2621C106.972 25.5446 108.885 23.2501 110.137 20.625C112.747 15.1499 112.195 8.73394 108.694 3.88142C107.966 2.87229 106.652 2.43375 105.416 2.78676C104.18 3.14042 103.29 4.20891 103.196 5.45331C103.094 6.79043 102.744 8.09626 102.153 9.33434C100.657 12.4731 97.8213 14.7478 94.3744 15.5758C94.2827 15.5979 94.1919 15.6241 94.1023 15.6542C87.4887 17.5658 82.0342 22.1532 79.1247 28.2549C78.0887 30.4276 77.414 32.6867 77.1058 35.0018C74.8428 34.8604 72.5819 34.9246 70.3494 35.1798C67.8535 33.2993 65.9661 30.7841 64.8702 27.8628C63.8947 25.2623 63.5965 22.4427 64.0081 19.7072C64.4717 16.8903 64.1861 13.9869 63.1823 11.3102C61.0882 5.72863 56.0241 1.67289 49.9652 0.725912C48.7051 0.528955 47.4368 1.12949 46.8001 2.22449C46.1637 3.31961 46.2977 4.67065 47.1343 5.59577C48.0335 6.58988 48.7291 7.73405 49.2026 8.99629C50.4031 12.196 50.0076 15.7196 48.1185 18.6637C48.0679 18.742 48.0215 18.8227 47.979 18.9049C44.5888 24.7768 43.9814 31.7016 46.315 37.9225C47.1467 40.139 48.3095 42.1625 49.7717 43.9762C48.0494 45.4139 46.4448 47.0072 44.987 48.7503C41.8225 49.1626 38.6369 48.7215 35.7269 47.4583C33.1303 46.3311 30.8644 44.586 29.1734 42.4115C27.46 40.1448 25.143 38.3344 22.4715 37.1746C16.8995 34.7558 10.29 35.436 5.22272 38.9496C4.16866 39.6804 3.68859 40.9683 4.02444 42.1634C4.36056 43.3585 5.44017 44.1999 6.71712 44.2647C8.08978 44.3337 9.42473 44.6458 10.6847 45.1928C13.879 46.5794 16.1551 49.2877 16.9301 52.6231C16.9508 52.7119 16.9756 52.7996 17.0047 52.8862C18.8236 59.2788 23.4198 64.4843 29.6294 67.1799C31.8405 68.1398 34.1485 68.7462 36.5221 68.9947C36.3266 71.1997 36.3424 73.3981 36.5554 75.5647C34.5664 78.0348 31.9382 79.9271 28.9101 81.0582C26.2145 82.065 23.3086 82.4176 20.505 82.0778C17.6187 81.6892 14.6269 82.0314 11.8523 83.0675C6.06629 85.2287 1.78378 90.2464 0.675834 96.1623C0.445367 97.3928 1.03475 98.6135 2.14657 99.2087C2.21898 99.2473 2.29225 99.2827 2.36666 99.315C3.43761 99.7799 4.71354 99.5892 5.62067 98.8085C6.66281 97.9116 7.85474 97.2094 9.16315 96.7207C12.48 95.4821 16.0945 95.7894 19.0797 97.5612C19.1591 97.6086 19.2408 97.6519 19.3246 97.6915C19.866 97.9791 20.4153 98.2438 20.9739 98.4863C26.5706 100.916 32.9794 101.079 38.8427 98.8892C41.1402 98.0308 43.2467 96.8545 45.1441 95.3916C46.5843 97.0355 48.187 98.5615 49.947 99.9413C50.3007 103.011 49.7766 106.12 48.4132 108.98C47.1966 111.531 45.3519 113.775 43.0784 115.468C40.7096 117.186 38.7967 119.48 37.545 122.105C34.9343 127.581 35.4871 133.996 38.9876 138.849C39.2989 139.281 39.7174 139.608 40.1909 139.813C40.825 140.088 41.5582 140.146 42.2658 139.943C43.5019 139.59 44.3917 138.521 44.4862 137.277C44.5876 135.94 44.9382 134.634 45.5285 133.396C47.0252 130.257 49.8604 127.982 53.3073 127.154C53.3991 127.132 53.4898 127.106 53.5795 127.076C60.1931 125.164 65.6476 120.577 68.5571 114.475C69.5931 112.303 70.2678 110.043 70.576 107.728C72.8389 107.87 75.0999 107.806 77.3324 107.55C79.8282 109.431 81.7157 111.946 82.8116 114.867C83.7871 117.468 84.0852 120.287 83.6737 123.023C83.21 125.84 83.4956 128.743 84.4995 131.42C86.083 135.641 89.3648 138.989 93.4912 140.78C94.8212 141.358 96.2396 141.773 97.7165 142.004C98.9767 142.201 100.245 141.601 100.882 140.506C101.518 139.411 101.384 138.059 100.547 137.134C99.6482 136.14 98.9527 134.996 98.4792 133.734C97.2786 130.534 97.6741 127.011 99.5633 124.066C99.6138 123.988 99.6602 123.907 99.7027 123.825C103.093 117.953 103.7 111.029 101.367 104.808C100.535 102.591 99.3722 100.568 97.91 98.7539C99.6322 97.3165 101.237 95.7231 102.694 93.98C104.787 93.7063 106.879 93.8028 108.922 94.2733C110.537 94.6452 112.185 93.6658 112.604 92.0859C113.022 90.5061 112.052 88.9238 110.436 88.5524C109.226 88.274 108.003 88.0949 106.774 88.0091C107.119 87.3819 107.45 86.7428 107.761 86.0899C108.783 83.9478 109.572 81.7623 110.146 79.5602C111.986 79.7285 113.776 80.1828 115.489 80.9264C120.119 82.9365 123.54 86.8295 124.874 91.6074C124.879 91.6264 124.885 91.6458 124.891 91.6645C125.869 95.7179 128.301 99.1574 131.735 101.446C130.717 101.971 130.038 103.03 130.084 104.211C130.127 105.348 130.831 106.295 131.823 106.726C132.245 106.909 132.718 106.998 133.216 106.97C136.531 106.778 139.728 105.675 142.459 103.78C143.513 103.05 143.993 101.762 143.657 100.567ZM61.6847 99.7992C54.2394 96.2032 48.5685 90.0351 45.7114 82.418C40.8247 69.3914 47.8347 54.6901 61.3376 49.6468C71.8267 45.7288 83.4488 50.774 87.2446 60.8931C90.1682 68.686 85.9745 77.481 77.8962 80.4983C71.7469 82.7954 64.9336 79.8377 62.7084 73.9053C61.9007 71.7527 62.0107 69.4045 63.0175 67.2931C64.0242 65.1817 65.8076 63.5599 68.0387 62.7265C69.6075 62.1406 70.419 60.4386 69.8513 58.9252C69.2835 57.4121 67.5514 56.6602 65.9825 57.2457C58.2437 60.1363 54.2262 68.5617 57.0268 76.0274C60.386 84.9814 70.6702 89.4457 79.9521 85.9793C91.1629 81.7919 96.9828 69.5866 92.9258 58.7711C88.3396 46.5462 74.9589 40.0297 62.1486 43.2756C69.9508 40.0664 78.9769 39.8536 87.1703 43.4104C102.857 50.2202 109.64 68.3007 102.29 83.7152C95.1223 98.7471 77.1214 105.775 61.6847 99.7992ZM110.895 49.3219C115.703 47.5257 121.005 47.8648 125.445 50.25C125.462 50.2596 125.48 50.269 125.498 50.2782C128.952 52.2906 132.945 53.0308 136.872 52.4478C135.947 53.1703 134.904 53.7599 133.774 54.1822C131.957 54.8607 130.002 55.0843 128.121 54.8289C128.107 54.8271 128.094 54.8253 128.08 54.8235C124.285 54.3591 120.355 54.8321 116.716 56.1914C114.148 57.1506 111.795 58.5183 109.732 60.229C108.851 57.3671 107.609 54.6215 106.029 52.0622C107.484 50.9083 109.112 49.9878 110.895 49.3219ZM84.5956 30.6302C86.7651 26.0802 90.844 22.6654 95.7865 21.2616C95.8062 21.2562 95.8262 21.2503 95.8456 21.2442C99.8048 20.2593 103.229 18.0242 105.644 14.9193C105.5 16.0555 105.175 17.1801 104.665 18.2499C103.846 19.9691 102.595 21.4687 101.05 22.5864C101.039 22.5945 101.027 22.6027 101.017 22.6107C97.936 24.9009 95.4393 27.9315 93.7972 31.3754C92.6414 33.7991 91.9356 36.3575 91.6867 38.9526C91.0488 38.6306 90.3987 38.3231 89.7337 38.0344C87.5538 37.0881 85.324 36.3683 83.0723 35.8591C83.2863 34.065 83.7931 32.3131 84.5956 30.6302ZM51.9959 35.8004C50.2557 31.1615 50.7214 25.9942 53.2729 21.6231C53.2831 21.6058 53.2932 21.5881 53.303 21.5703C55.449 18.1651 56.2984 14.2643 55.7862 10.456C56.5085 11.3398 57.0919 12.3412 57.501 13.4318C58.1584 15.1849 58.345 17.0821 58.0406 18.9177C58.0385 18.9311 58.0363 18.944 58.0342 18.9574C57.4725 22.6607 57.8718 26.4738 59.1888 29.9846C60.1182 32.4615 61.4723 34.7208 63.1856 36.69C60.2233 37.6109 57.3725 38.8803 54.7059 40.4746C53.5516 39.0842 52.6411 37.5203 51.9959 35.8004ZM32.1928 61.804C27.5624 59.7939 24.1415 55.9009 22.8076 51.123C22.8025 51.104 22.7969 51.0846 22.791 51.0659C21.8661 47.2354 19.6437 43.9532 16.5046 41.6727C17.6698 41.7869 18.8189 42.0781 19.9077 42.5507C21.6573 43.3103 23.1715 44.4935 24.2865 45.9726C24.2947 45.9832 24.3028 45.9939 24.3108 46.0042C26.5974 48.9509 29.6583 51.313 33.1631 52.8344C35.6297 53.9051 38.2447 54.5352 40.9077 54.7198C40.5624 55.3476 40.2318 55.987 39.9202 56.6404C38.8988 58.7824 38.1093 60.968 37.5357 63.1701C35.6959 63.0019 33.9055 62.5475 32.1928 61.804ZM36.7863 93.4087C31.9777 95.2047 26.6752 94.8651 22.2366 92.4805C22.219 92.471 22.2011 92.4615 22.183 92.4524C18.7288 90.4393 14.7367 89.6998 10.8092 90.2828C11.7345 89.5603 12.7767 88.9706 13.9072 88.5484C15.7245 87.8698 17.6794 87.6462 19.5601 87.9017C19.5738 87.9034 19.5871 87.9053 19.6008 87.907C23.3963 88.3714 27.326 87.8984 30.9652 86.5392C33.5328 85.5799 35.8859 84.2123 37.9487 82.5016C38.83 85.3634 40.072 88.1091 41.6522 90.6684C40.1976 91.8223 38.5691 92.7427 36.7863 93.4087ZM63.0856 112.1C60.9161 116.65 56.8372 120.065 51.8948 121.469C51.875 121.474 51.855 121.48 51.8356 121.486C47.8764 122.471 44.4522 124.706 42.0376 127.811C42.1809 126.675 42.5058 125.55 43.0159 124.481C43.8357 122.761 45.0859 121.262 46.6315 120.144C46.6427 120.136 46.6538 120.128 46.6645 120.12C49.7452 117.83 52.2419 114.799 53.8841 111.355C55.0398 108.931 55.7456 106.373 55.9945 103.778C56.6324 104.1 57.2825 104.407 57.9475 104.696C60.1274 105.642 62.3572 106.362 64.6089 106.871C64.3951 108.665 63.8881 110.417 63.0856 112.1ZM95.6855 106.93C97.4257 111.569 96.96 116.736 94.4085 121.107C94.3983 121.125 94.3882 121.142 94.3784 121.16C92.2323 124.565 91.383 128.466 91.8951 132.274C91.1728 131.39 90.5895 130.389 90.1804 129.299C89.523 127.545 89.3364 125.648 89.6408 123.813C89.6428 123.799 89.6451 123.786 89.6471 123.773C90.2088 120.07 89.8096 116.256 88.4926 112.746C87.5632 110.269 86.2091 108.009 84.4957 106.04C87.458 105.119 90.3089 103.85 92.9755 102.256C94.1298 103.646 95.0401 105.21 95.6855 106.93Z" fill="white"/>
</svg>
