<svg width="26" height="26" viewBox="0 0 26 26" fill="none" xmlns="http://www.w3.org/2000/svg">
<path d="M3.00876 22.95H22.7807V3.87573H3.00876V22.95Z" fill="#122856"/>
<path d="M3.43859 3.04688C3.67586 3.04688 3.86842 2.86157 3.86842 2.63232V1.38867C3.86842 1.15943 3.67586 0.974121 3.43859 0.974121C3.20133 0.974121 3.00877 1.15943 3.00877 1.38867V2.63232C3.00877 2.86157 3.20133 3.04688 3.43859 3.04688Z" fill="#122856"/>
<path d="M3.43858 23.7803C3.20132 23.7803 3.00876 23.9656 3.00876 24.1948V25.4383C3.00876 25.6675 3.20132 25.8528 3.43858 25.8528C3.67585 25.8528 3.86841 25.6675 3.86841 25.4383V24.1948C3.86841 23.9656 3.67585 23.7803 3.43858 23.7803Z" fill="#122856"/>
<path d="M22.3509 0.974121C22.1136 0.974121 21.921 1.15943 21.921 1.38867V2.63232C21.921 2.86157 22.1136 3.04688 22.3509 3.04688C22.5881 3.04688 22.7807 2.86157 22.7807 2.63232V1.38867C22.7807 1.15943 22.5881 0.974121 22.3509 0.974121Z" fill="#122856"/>
<path d="M22.3508 23.7803C22.1136 23.7803 21.921 23.9656 21.921 24.1948V25.4383C21.921 25.6675 22.1136 25.8528 22.3508 25.8528C22.5881 25.8528 22.7807 25.6675 22.7807 25.4383V24.1948C22.7807 23.9656 22.5881 23.7803 22.3508 23.7803Z" fill="#122856"/>
<path d="M24.0701 4.70459H25.3596C25.5969 4.70459 25.7895 4.51934 25.7895 4.29016C25.7895 4.06098 25.5969 3.87573 25.3596 3.87573H24.0701C23.8329 3.87573 23.6403 4.06098 23.6403 4.29016C23.6403 4.51934 23.8329 4.70459 24.0701 4.70459Z" fill="#122856"/>
<path d="M1.71929 3.87573H0.429822C0.19256 3.87573 0 4.06098 0 4.29016C0 4.51934 0.19256 4.70459 0.429822 4.70459H1.71929C1.95655 4.70459 2.14911 4.51934 2.14911 4.29016C2.14911 4.06098 1.95655 3.87573 1.71929 3.87573Z" fill="#122856"/>
<path d="M25.3596 22.1216H24.0701C23.8329 22.1216 23.6403 22.3069 23.6403 22.5363C23.6403 22.7656 23.8329 22.9509 24.0701 22.9509H25.3596C25.5969 22.9509 25.7895 22.7656 25.7895 22.5363C25.7895 22.3069 25.5969 22.1216 25.3596 22.1216Z" fill="#122856"/>
<path d="M1.71929 22.1216H0.429822C0.19256 22.1216 0 22.3069 0 22.5363C0 22.7656 0.19256 22.9509 0.429822 22.9509H1.71929C1.95655 22.9509 2.14911 22.7656 2.14911 22.5363C2.14911 22.3069 1.95655 22.1216 1.71929 22.1216Z" fill="#122856"/>
<path d="M6.22822 9.76649L8.80422 8.85649H10.4842V18.6565H8.55222V10.9005L6.70422 11.4185L6.22822 9.76649ZM18.4183 18.6565H11.8663V17.2145L15.2123 13.7705C15.9589 12.9772 16.3323 12.3238 16.3323 11.8105C16.3323 11.4278 16.2109 11.1198 15.9683 10.8865C15.7349 10.6532 15.4316 10.5365 15.0583 10.5365C14.3116 10.5365 13.7656 10.9192 13.4203 11.6845L11.7963 10.7325C12.0949 10.0698 12.5289 9.56116 13.0983 9.20649C13.6769 8.84249 14.3209 8.66049 15.0303 8.66049C15.9169 8.66049 16.6776 8.94049 17.3123 9.50049C17.9469 10.0512 18.2643 10.7978 18.2643 11.7405C18.2643 12.7578 17.7276 13.8032 16.6543 14.8765L14.7363 16.7945H18.4183V18.6565Z" fill="white"/>
</svg>
