<svg width="101" height="142" viewBox="0 0 101 142" fill="none" xmlns="http://www.w3.org/2000/svg">
<path d="M100.197 22.6692C99.6442 22.2397 86.4812 12.1949 71.1837 15.966C69.2998 16.4306 67.516 17.1244 65.8465 18.0234C65.634 17.3743 65.3767 16.6994 65.0464 16.0159C58.3594 2.1734 42.8552 0.0987785 42.1983 0.0173229C41.3514 -0.0887911 40.5229 0.299093 40.0814 1.00282C39.6397 1.70656 39.6705 2.59592 40.159 3.27001C40.1845 3.30519 41.8118 5.57348 43.8939 9.55345C29.5598 0.595546 11.941 7.14912 11.1951 7.43366C10.3821 7.74369 9.84472 8.49702 9.8338 9.34039C9.82289 10.1835 10.3419 10.9496 11.1463 11.2793C11.3209 11.3507 23.5152 16.4279 36.6377 26.7788C33.1908 26.3339 29.4828 26.4599 25.6579 27.1794C8.49174 30.4094 0.520082 47.156 0.188946 47.8672C-0.179237 48.6585 0.000833585 49.5872 0.640416 50.1965C1.05254 50.5891 1.59936 50.7963 2.15451 50.796C2.46094 50.796 2.77025 50.7329 3.06003 50.6032C3.24728 50.5192 18.5186 43.8133 39.341 43.3024C39.908 46.6066 41.6418 49.5135 44.1142 51.6316C38.493 65.1627 35.1664 83.9662 34.2255 107.555C33.6735 121.394 34.1494 133.01 34.4033 137.699H32.0825C30.8929 137.699 29.9285 138.63 29.9285 139.777C29.9285 140.925 30.8929 141.855 32.0825 141.855H55.1043C56.2939 141.855 57.2583 140.925 57.2583 139.777C57.2583 138.63 56.2939 137.699 55.1043 137.699H52.3871C51.1666 128.366 46.1806 84.3871 56.1348 55.0785C59.9823 54.5194 63.4898 52.5041 65.8307 49.4864C81.1095 58.5867 89.1107 71.0585 89.2066 71.2106C89.6021 71.8398 90.3055 72.2116 91.0484 72.2116C91.1886 72.2116 91.3302 72.1983 91.4712 72.1712C92.3603 71.9997 93.043 71.3093 93.1785 70.4443C93.2084 70.2553 93.8965 65.7498 93.2417 60.0108C92.358 52.2647 89.4128 45.9569 84.7255 41.7697C79.7292 37.3065 74.6312 35.7154 70.1998 35.4727C85.976 28.2065 98.977 26.3685 99.143 26.3458C99.994 26.2313 100.693 25.6404 100.922 24.8416C101.151 24.0429 100.866 23.189 100.197 22.6692ZM18.0418 9.88343C23.8908 8.71285 33.5819 7.9767 41.7038 13.1347C45.1556 15.3271 48.4738 18.6216 50.5807 21.9474C51.201 22.9266 52.5267 23.2358 53.5417 22.637C54.5569 22.0386 54.8768 20.7597 54.2565 19.7806C53.5055 18.595 52.6209 17.4136 51.6402 16.2724C49.8613 11.7051 47.9873 8.01577 46.5048 5.39672C51.0376 6.99286 57.6158 10.4727 61.1417 17.7716C61.5883 18.6959 61.8715 19.6415 62.1084 20.5488C60.4096 21.9619 58.8861 23.6364 57.573 25.5592C55.4058 28.7326 53.9035 32.489 53.1718 36.4593C40.7006 22.4564 25.7857 13.7891 18.0418 9.88343ZM17.1748 41.8861C13.136 42.7948 9.73989 43.7861 7.13417 44.6417C10.5748 39.8516 16.9832 33.0456 26.4822 31.2586C33.5271 29.9329 40.0211 30.8815 44.767 33.9292C44.8339 33.9721 44.9029 34.0104 44.9726 34.0453C46.7349 35.7497 48.4712 37.552 50.1542 39.4524C36.8505 38.3763 25.0718 40.109 17.1748 41.8861ZM45.8426 109.225C46.2217 122.279 47.452 133.099 48.0442 137.699H38.719C38.1816 127.806 36.4369 82.2276 47.7981 53.9492C48.996 54.4773 50.2791 54.8541 51.6203 55.0586C47.1456 68.9462 45.2015 87.1493 45.8426 109.225ZM53.9535 51.0822C49.0049 51.0822 44.8279 47.7797 43.7297 43.2905C47.2432 43.3567 50.886 43.6105 54.6187 44.1089C57.2422 45.08 59.7212 46.1891 62.055 47.3915C60.0745 49.6964 57.0983 51.0822 53.9535 51.0822ZM81.7987 44.819C87.7523 50.1375 89.0582 58.4903 89.1923 64.06C84.2841 58.0727 74.5109 48.0806 59.8723 41.7184C61.1509 41.1233 62.7359 40.5185 64.5383 40.1043C70.8621 38.6508 76.6694 40.2373 81.7987 44.819ZM57.3257 37.4977C58.9292 27.5867 65.6521 21.6189 72.2498 19.9925C74.249 19.4996 76.2197 19.2904 78.1252 19.2904C84.1876 19.2904 89.5903 21.4077 93.1392 23.2469C85.779 24.8823 71.8851 28.8318 57.3257 37.4977Z" fill="white"/>
</svg>
