<svg width="24" height="27" viewBox="0 0 24 27" fill="none" xmlns="http://www.w3.org/2000/svg">
<g clip-path="url(#clip0)">
<path d="M20.4655 14.4122V22.8957C20.4655 23.652 19.9199 24.2658 19.2476 24.2658H4.75289C4.08064 24.2658 3.53505 23.652 3.53505 22.8957V14.4122C3.53505 13.9396 3.75122 13.4998 4.10743 13.2504L11.3542 8.15855C11.7488 7.88111 12.2505 7.88111 12.6445 8.15855L19.8913 13.2504C20.2487 13.4998 20.4655 13.9389 20.4655 14.4122ZM23.4285 10.6254L12.6463 3.05024C12.2517 2.7728 11.7506 2.7728 11.356 3.05024L0.57265 10.6254C0.0020918 11.0261 -0.170842 11.8714 0.184768 12.5133C0.540378 13.1559 1.29057 13.3518 1.86295 12.9504L12.0003 5.82738L22.1364 12.949C22.3373 13.0901 22.5596 13.1573 22.7812 13.1573C23.1874 13.1573 23.5838 12.9291 23.8145 12.5126C24.1714 11.8701 23.9978 11.0261 23.4285 10.6254Z" fill="#122856"/>
</g>
<path d="M9.44697 12.6633L12.023 11.7533H13.703V21.5533H11.771V13.7973L9.92297 14.3153L9.44697 12.6633Z" fill="white"/>
<defs>
<clipPath id="clip0">
<rect width="24" height="27" fill="white"/>
</clipPath>
</defs>
</svg>
