<svg width="24" height="28" viewBox="0 0 24 28" fill="none" xmlns="http://www.w3.org/2000/svg">
<path d="M7.92881 22.6859C8.07386 23.6342 9.01972 24.377 10.082 24.377H12.8699C13.9322 24.377 14.8779 23.6342 15.0217 22.6945L16.0509 16.5308L18.1658 15.4117C18.4583 15.2571 18.6157 14.9696 18.5672 14.679L17.7787 9.96627C17.4641 8.20087 15.6196 6.76453 13.6669 6.76453H13.5947C12.9557 7.0361 12.2365 7.18971 11.476 7.18971C10.7154 7.18971 9.99622 7.03619 9.35721 6.76453H9.28506C7.33228 6.76453 5.48773 8.20087 5.1718 9.97309L4.38475 14.6791C4.33619 14.9696 4.49341 15.2571 4.78585 15.4118L6.90087 16.5309L7.92881 22.6859Z" fill="#122856"/>
<path d="M11.476 5.91577C13.2906 5.91577 14.7616 4.65409 14.7616 3.09772C14.7616 1.54135 13.2906 0.279663 11.476 0.279663C9.66136 0.279663 8.19032 1.54135 8.19032 3.09772C8.19032 4.65409 9.66136 5.91577 11.476 5.91577Z" fill="#122856"/>
<path d="M17.0044 19.8624L16.5025 22.868C16.3857 23.616 15.9595 24.3111 15.3016 24.8262C14.6223 25.358 13.7588 25.6507 12.8699 25.6507H10.0821C9.19191 25.6507 8.32759 25.3571 7.64845 24.8237C6.9914 24.3076 6.56522 23.6104 6.44803 22.8592L5.95621 19.9137C2.592 20.4853 0 21.6179 0 23.3796C0 26.0676 6.03241 27.2917 11.6374 27.2917C17.2423 27.2917 23.2747 26.0676 23.2747 23.3797C23.2747 21.5636 20.5202 20.4159 17.0044 19.8624Z" fill="#122856"/>
<path d="M14.7113 18.9269H8.15925V17.4849L11.5053 14.0409C12.2519 13.2475 12.6253 12.5942 12.6253 12.0809C12.6253 11.6982 12.5039 11.3902 12.2613 11.1569C12.0279 10.9235 11.7246 10.8069 11.3513 10.8069C10.6046 10.8069 10.0586 11.1895 9.71325 11.9549L8.08925 11.0029C8.38792 10.3402 8.82192 9.83155 9.39125 9.47688C9.96992 9.11288 10.6139 8.93088 11.3233 8.93088C12.2099 8.93088 12.9706 9.21088 13.6053 9.77088C14.2399 10.3215 14.5573 11.0682 14.5573 12.0109C14.5573 13.0282 14.0206 14.0735 12.9473 15.1469L11.0293 17.0649H14.7113V18.9269Z" fill="white"/>
</svg>
