<svg width="105" height="105" viewBox="0 0 105 105" fill="none" xmlns="http://www.w3.org/2000/svg">
<g clip-path="url(#clip0)">
<path d="M74.6325 13.6641L67.7081 15.5195L65.8527 8.59524C65.2697 6.41881 63.0119 5.11551 60.8366 5.69837L10.3866 19.2164C8.21035 19.7995 6.90696 22.0571 7.49012 24.2335L24.4536 87.5422C25.0368 89.7184 27.2943 91.022 29.4707 90.4388L36.3952 88.5834L38.2506 95.5078C38.8337 97.6841 41.0904 98.9878 43.2676 98.4044L76.8994 89.3928C79.0747 88.81 81.826 86.7645 83.0103 84.8494L91.2758 71.4833C92.462 69.5677 92.9537 66.2193 92.3706 64.043L79.6498 16.561C79.0665 14.3845 76.8088 13.081 74.6325 13.6641ZM21.2867 32.1992L35.5997 85.6159L28.6754 87.4712C28.1393 87.6149 27.5649 87.2833 27.4213 86.7472L10.4577 23.4383C10.3141 22.9022 10.6457 22.3278 11.1818 22.1842L61.632 8.66608C62.1671 8.5227 62.7425 8.85407 62.8861 9.39015L64.7415 16.3146L24.1833 27.1821C22.0061 27.7655 20.7036 30.0228 21.2867 32.1992ZM88.6629 69.8676L80.3972 83.233C80.2278 83.5064 79.9888 83.7941 79.7165 84.08L77.2777 74.9783C77.0956 74.2987 77.2058 73.6139 77.536 73.0378C77.8709 72.4636 78.4085 72.0249 79.0881 71.8428L88.9851 69.1909C88.8875 69.4405 88.7818 69.6746 88.6629 69.8676ZM89.4026 64.838C89.4813 65.1317 89.5189 65.4864 89.533 65.8631L78.2927 68.8749C75.2922 69.6853 73.5115 72.7695 74.3099 75.7734L77.0609 86.0402C76.7269 86.2062 76.3995 86.3456 76.1038 86.4248L42.472 95.4365L42.4721 95.4366C41.9349 95.5806 41.3616 95.2486 41.2179 94.7126L24.2544 31.4038C24.1108 30.8677 24.4414 30.2936 24.9785 30.1497L75.4276 16.6319C75.9636 16.4883 76.5381 16.8199 76.6817 17.356L89.4026 64.838Z" fill="white"/>
<path d="M67.463 30.4282L38.7763 38.1147C37.9562 38.3345 37.4703 39.1761 37.6901 39.9961C37.9098 40.8162 38.7516 41.302 39.5715 41.0824L68.2581 33.3958C69.0773 33.1763 69.5641 32.3345 69.3444 31.5144C69.1246 30.6943 68.2821 30.2087 67.463 30.4282Z" fill="white"/>
<path d="M72.7641 50.2122L44.0774 57.8988C43.2574 58.1185 42.7715 58.9601 42.9912 59.7802C43.211 60.6002 44.0527 61.0861 44.8726 60.8664L73.5593 53.1798C74.3784 52.9603 74.8652 52.1185 74.6455 51.2984C74.4257 50.4782 73.5832 49.9928 72.7641 50.2122Z" fill="white"/>
<path d="M62.5552 63.55L46.7281 67.7909C45.9081 68.0106 45.4222 68.8522 45.6419 69.6723C45.8617 70.4923 46.7032 70.9782 47.5233 70.7585L63.3504 66.5176C64.1695 66.2982 64.6553 65.4566 64.4356 64.6365C64.2159 63.8164 63.3743 63.3306 62.5552 63.55Z" fill="white"/>
<path d="M70.1136 40.3204L41.4269 48.007C40.6068 48.2267 40.1209 49.0683 40.3407 49.8883C40.5604 50.7084 41.4021 51.1942 42.222 50.9745L70.9087 43.288C71.7278 43.0685 72.2147 42.2267 71.9949 41.4066C71.7752 40.5865 70.9327 40.1009 70.1136 40.3204Z" fill="white"/>
</g>
<defs>
<clipPath id="clip0">
<rect width="85" height="85" fill="white" transform="translate(0 21.9995) rotate(-15)"/>
</clipPath>
</defs>
</svg>
