<svg width="118" height="49" viewBox="0 0 118 49" fill="none" xmlns="http://www.w3.org/2000/svg">
<path d="M1.59971 9.25534L8.90539 4.74476C13.3588 1.99516 19.0048 2.0866 23.3669 4.97895V4.97895C27.729 7.87131 33.3749 7.96274 37.8283 5.21314V5.21314C42.2818 2.46354 47.9277 2.55497 52.2898 5.44733V5.44733C56.6519 8.33969 62.2978 8.43112 66.7513 5.68152V5.68152C71.2047 2.93192 76.8506 3.02335 81.2127 5.91571V5.91571C85.5748 8.80807 91.2208 8.8995 95.6742 6.1499V6.1499C100.128 3.4003 105.774 3.49173 110.136 6.38409L117.291 11.1289" stroke="#122856" stroke-width="2"/>
<path d="M1.30004 27.7661L8.60572 23.2555C13.0592 20.5059 18.7051 20.5973 23.0672 23.4897V23.4897C27.4293 26.3821 33.0752 26.4735 37.5287 23.7239V23.7239C41.9821 20.9743 47.628 21.0657 51.9901 23.9581V23.9581C56.3522 26.8504 61.9981 26.9419 66.4516 24.1923V24.1923C70.9051 21.4427 76.551 21.5341 80.9131 24.4265V24.4265C85.2752 27.3188 90.9211 27.4102 95.3745 24.6606V24.6606C99.828 21.911 105.474 22.0025 109.836 24.8948L116.992 29.6396" stroke="#122856" stroke-width="2"/>
<path d="M1.00001 46.2768L8.30569 41.7662C12.7591 39.0166 18.4051 39.1081 22.7672 42.0004V42.0004C27.1293 44.8928 32.7752 44.9842 37.2286 42.2346V42.2346C41.6821 39.485 47.328 39.5765 51.6901 42.4688V42.4688C56.0522 45.3612 61.6981 45.4526 66.1516 42.703V42.703C70.605 39.9534 76.2509 40.0448 80.613 42.9372V42.9372C84.9751 45.8296 90.6211 45.921 95.0745 43.1714V43.1714C99.528 40.4218 105.174 40.5132 109.536 43.4056L116.692 48.1503" stroke="#122856" stroke-width="2"/>
</svg>
