<svg width="81" height="81" viewBox="0 0 81 81" fill="none" xmlns="http://www.w3.org/2000/svg">
<path d="M80.3049 0.695067C79.3783 -0.231689 77.8755 -0.231689 76.9488 0.695067L70.0368 7.60698C69.6119 7.40448 69.1636 7.24137 68.6954 7.12446L47.216 1.81784C44.804 1.21492 42.2133 1.93238 40.4551 3.69049L2.08176 42.0008C-0.69392 44.7766 -0.69392 49.2933 2.08176 52.0693L28.931 78.9184C31.7068 81.6942 36.2235 81.6944 38.9995 78.9184L77.3098 40.5448C79.0679 38.7867 79.7855 36.1959 79.1823 33.7838L73.8758 12.3045C73.7587 11.8366 73.5958 11.388 73.3933 10.9631L80.3052 4.0512C81.2317 3.12444 81.2316 1.62182 80.3049 0.695067ZM74.5775 34.9352C74.7785 35.7392 74.5393 36.6027 73.9533 37.1888L35.6431 75.5622C34.7177 76.4876 33.2121 76.4876 32.2868 75.5622L5.43773 48.713C4.5124 47.7877 4.5124 46.2821 5.43773 45.3567L43.8113 7.04662C44.2601 6.5978 44.8717 6.35243 45.4947 6.35243C45.6852 6.35243 45.8768 6.37537 46.0649 6.42235L66.2406 11.4031L60.5255 17.1182C57.8795 15.8579 54.6112 16.3202 52.4239 18.5075C49.6479 21.2835 49.6479 25.8001 52.4239 28.5761C53.8116 29.964 55.6349 30.658 57.4581 30.658C59.2811 30.658 61.1044 29.9642 62.4921 28.5761C64.6799 26.3884 65.142 23.1203 63.8815 20.4743L69.5966 14.7592L74.5775 34.9352ZM59.1361 25.2201C58.211 26.1453 56.7053 26.1454 55.78 25.2201C54.8548 24.2949 54.8548 22.7891 55.78 21.864C56.2428 21.4012 56.8503 21.1701 57.4581 21.1701C58.0656 21.1701 58.6734 21.4014 59.1358 21.8638L59.136 21.864L59.1361 21.8641C60.0615 22.7893 60.0613 24.2949 59.1361 25.2201Z" fill="#50AF00"/>
<path d="M38.9989 28.5763C36.2231 25.8004 31.7064 25.8004 28.9304 28.5763C26.1547 31.3521 26.1547 35.8688 28.9304 38.6448C31.7062 41.4207 36.2231 41.4207 38.9989 38.6448C41.7749 35.8688 41.7749 31.3523 38.9989 28.5763ZM35.643 35.2885C34.7176 36.2139 33.212 36.2139 32.2868 35.2885C31.3617 34.3632 31.3613 32.8576 32.2867 31.9324C33.212 31.0072 34.7175 31.0071 35.643 31.9324C36.5681 32.8576 36.5681 34.3632 35.643 35.2885Z" fill="#50AF00"/>
<path d="M42.3555 52.0692C39.5731 49.2868 35.0699 49.2865 32.2871 52.0692C29.5111 54.8452 29.5111 59.3617 32.2871 62.1377C35.0696 64.92 39.5728 64.9205 42.3555 62.1377C45.1315 59.3617 45.1315 54.8452 42.3555 52.0692ZM38.9993 58.7816C38.0721 59.709 36.5706 59.7091 35.6432 58.7816C34.718 57.8564 34.718 56.3506 35.6432 55.4255C36.5706 54.4981 38.072 54.4979 38.9993 55.4255C39.9245 56.3506 39.9245 57.8561 38.9993 58.7816Z" fill="#50AF00"/>
<path d="M53.1044 43.4168C52.9596 42.1142 51.7861 41.1754 50.4836 41.3201L20.2784 44.6763C18.9757 44.821 18.037 45.9943 18.1817 47.2971C18.3167 48.5107 19.344 49.4085 20.5375 49.4085C20.625 49.4085 20.7136 49.4036 20.8025 49.3938L51.0079 46.0376C52.3105 45.8927 53.2493 44.7195 53.1044 43.4168Z" fill="#50AF00"/>
</svg>
