<svg width="48" height="63" viewBox="0 0 48 63" fill="none" xmlns="http://www.w3.org/2000/svg">
<path d="M23.7647 0C23.7647 0 16.5629 8.57293 0 8.57293V29.0247C0 39.7045 4.67516 50.0038 13.1397 56.6028C16.1351 58.9389 19.6685 60.9482 23.7647 62.1538C27.8608 60.9482 31.3931 58.9389 34.3896 56.6028C42.8542 50.0038 47.5294 39.7045 47.5294 29.0247V8.57293C30.9665 8.57293 23.7647 0 23.7647 0Z" fill="#50AF00"/>
<path d="M23.7644 58.0406C21.2782 57.0505 18.8716 55.6336 16.5879 53.8115C9.3482 48.037 5.02686 38.6978 5.02686 28.8285V12.8329C13.6824 11.712 19.8283 8.65603 23.7644 5.94116C27.7004 8.65603 33.8464 11.712 42.5019 12.8329V28.8285C42.5019 38.6978 38.1806 48.037 30.942 53.8115C28.6572 55.6336 26.2506 57.0505 23.7644 58.0406Z" fill="white"/>
<path d="M39.7822 19.9657C39.2515 19.5036 38.4464 19.5581 37.982 20.085L21.0174 39.3754L11.7753 30.179C11.2765 29.6826 10.4702 29.6826 9.9713 30.179C9.47246 30.6754 9.47246 31.4777 9.9713 31.9741L20.1779 42.1303C20.4178 42.369 20.7418 42.5023 21.0799 42.5023C21.0939 42.5023 21.108 42.5023 21.122 42.5023C21.4754 42.4908 21.8071 42.3334 22.0393 42.0694L39.9009 21.757C40.3653 21.2288 40.3117 20.4265 39.7822 19.9657Z" fill="#50AF00"/>
</svg>
