<svg width="65" height="49" viewBox="0 0 65 49" fill="none" xmlns="http://www.w3.org/2000/svg">
<path fill-rule="evenodd" clip-rule="evenodd" d="M41.1175 3.76513H3.41188V37.6513H41.1175V3.76513ZM0 0V41.4164H44.5294V0H0Z" fill="#50AF00"/>
<path fill-rule="evenodd" clip-rule="evenodd" d="M40.7124 9.66382H54.6568L64.8855 25.8993V41.4164H40.7124V9.66382ZM44.1747 13.3994V37.6808H61.4232V27.0487L52.8239 13.3994H44.1747Z" fill="#50AF00"/>
<path d="M25.4456 39.3456C25.4456 44.3016 21.4583 48.3192 16.5397 48.3192C11.6211 48.3192 7.63379 44.3016 7.63379 39.3456C7.63379 34.3897 11.6211 30.3721 16.5397 30.3721C21.4583 30.3721 25.4456 34.3897 25.4456 39.3456Z" fill="white"/>
<path fill-rule="evenodd" clip-rule="evenodd" d="M16.5397 44.7298C19.9137 44.7298 22.1701 42.0414 22.1701 39.3456C22.1701 36.6499 19.9137 33.9615 16.5397 33.9615C13.1657 33.9615 10.9092 36.6499 10.9092 39.3456C10.9092 42.0414 13.1657 44.7298 16.5397 44.7298ZM16.5397 48.3192C21.4583 48.3192 25.4456 44.3016 25.4456 39.3456C25.4456 34.3897 21.4583 30.3721 16.5397 30.3721C11.6211 30.3721 7.63379 34.3897 7.63379 39.3456C7.63379 44.3016 11.6211 48.3192 16.5397 48.3192Z" fill="#50AF00"/>
<path d="M59.7964 39.3456C59.7964 44.3016 55.5243 48.3192 50.2544 48.3192C44.9845 48.3192 40.7124 44.3016 40.7124 39.3456C40.7124 34.3897 44.9845 30.3721 50.2544 30.3721C55.5243 30.3721 59.7964 34.3897 59.7964 39.3456Z" fill="white"/>
<path fill-rule="evenodd" clip-rule="evenodd" d="M50.2544 44.7298C53.8694 44.7298 56.2871 42.0414 56.2871 39.3456C56.2871 36.6499 53.8694 33.9615 50.2544 33.9615C46.6394 33.9615 44.2218 36.6499 44.2218 39.3456C44.2218 42.0414 46.6394 44.7298 50.2544 44.7298ZM50.2544 48.3192C55.5243 48.3192 59.7964 44.3016 59.7964 39.3456C59.7964 34.3897 55.5243 30.3721 50.2544 30.3721C44.9845 30.3721 40.7124 34.3897 40.7124 39.3456C40.7124 44.3016 44.9845 48.3192 50.2544 48.3192Z" fill="#50AF00"/>
</svg>
