<svg width="26" height="26" viewBox="0 0 26 26" fill="none" xmlns="http://www.w3.org/2000/svg">
<path fill-rule="evenodd" clip-rule="evenodd" d="M13 0C5.8203 0 0 5.8203 0 13C0 20.1797 5.8203 26 13 26C20.1797 26 26 20.1797 26 13C26 5.8203 20.1797 0 13 0ZM10.1418 6.10858C10.8813 6.07492 11.1176 6.06669 13.0006 6.06669H12.9985C14.8821 6.06669 15.1175 6.07492 15.8571 6.10858C16.5952 6.14238 17.0993 6.25924 17.5413 6.43069C17.9978 6.60764 18.3834 6.84453 18.7691 7.2302C19.1548 7.61558 19.3917 8.00241 19.5693 8.45843C19.7398 8.89927 19.8568 9.4031 19.8914 10.1412C19.9247 10.8808 19.9333 11.1171 19.9333 13.0001C19.9333 14.8831 19.9247 15.1188 19.8914 15.8584C19.8568 16.5962 19.7398 17.1002 19.5693 17.5412C19.3917 17.9971 19.1548 18.3839 18.7691 18.7693C18.3839 19.1549 17.9976 19.3924 17.5417 19.5695C17.1006 19.741 16.5962 19.8578 15.8581 19.8916C15.1185 19.9253 14.8829 19.9335 12.9998 19.9335C11.1169 19.9335 10.8808 19.9253 10.1412 19.8916C9.40322 19.8578 8.89924 19.741 8.45811 19.5695C8.00238 19.3924 7.61555 19.1549 7.23032 18.7693C6.84479 18.3839 6.6079 17.9971 6.43066 17.541C6.25935 17.1002 6.14249 16.5964 6.10855 15.8582C6.07504 15.1187 6.06666 14.8831 6.06666 13.0001C6.06666 11.1171 6.07533 10.8806 6.1084 10.1411C6.14163 9.40325 6.25863 8.89927 6.43052 8.45828C6.60819 8.00241 6.84508 7.61558 7.23075 7.2302C7.61613 6.84468 8.00296 6.60778 8.45897 6.43069C8.89982 6.25924 9.40365 6.14238 10.1418 6.10858Z" fill="#253238"/>
<path fill-rule="evenodd" clip-rule="evenodd" d="M12.3786 7.31619C12.4994 7.316 12.6293 7.31606 12.7695 7.31612L13.0006 7.31619C14.8518 7.31619 15.0712 7.32283 15.8023 7.35605C16.4783 7.38697 16.8452 7.49992 17.0896 7.59482C17.4131 7.72049 17.6438 7.87071 17.8863 8.11338C18.129 8.35605 18.2792 8.58717 18.4052 8.91073C18.5001 9.15484 18.6132 9.52173 18.644 10.1977C18.6772 10.9286 18.6844 11.1482 18.6844 12.9985C18.6844 14.8489 18.6772 15.0685 18.644 15.7994C18.613 16.4754 18.5001 16.8423 18.4052 17.0864C18.2795 17.4099 18.129 17.6403 17.8863 17.8828C17.6437 18.1255 17.4133 18.2757 17.0896 18.4014C16.8455 18.4967 16.4783 18.6094 15.8023 18.6403C15.0714 18.6735 14.8518 18.6808 13.0006 18.6808C11.1492 18.6808 10.9298 18.6735 10.1989 18.6403C9.52292 18.6091 9.15602 18.4962 8.91148 18.4013C8.58792 18.2756 8.35681 18.1254 8.11414 17.8827C7.87147 17.64 7.72124 17.4095 7.59529 17.0858C7.50039 16.8417 7.38728 16.4748 7.35652 15.7988C7.32329 15.0679 7.31665 14.8483 7.31665 12.9968C7.31665 11.1453 7.32329 10.9269 7.35652 10.196C7.38743 9.52 7.50039 9.15311 7.59529 8.9087C7.72095 8.58514 7.87147 8.35403 8.11414 8.11136C8.35681 7.86869 8.58792 7.71847 8.91148 7.59251C9.15588 7.49718 9.52292 7.38451 10.1989 7.35345C10.8385 7.32456 11.0864 7.3159 12.3786 7.31445V7.31619ZM16.7016 8.46742C16.2422 8.46742 15.8695 8.83965 15.8695 9.29914C15.8695 9.75847 16.2422 10.1311 16.7016 10.1311C17.1609 10.1311 17.5336 9.75847 17.5336 9.29914C17.5336 8.8398 17.1609 8.46713 16.7016 8.46713V8.46742ZM9.44002 13.0001C9.44002 11.0338 11.0342 9.43962 13.0005 9.43955C14.9668 9.43955 16.5606 11.0338 16.5606 13.0001C16.5606 14.9665 14.967 16.56 13.0006 16.56C11.0343 16.56 9.44002 14.9665 9.44002 13.0001Z" fill="#253238"/>
<path d="M13.0007 10.689C14.277 10.689 15.3118 11.7236 15.3118 13.0001C15.3118 14.2764 14.277 15.3112 13.0007 15.3112C11.7242 15.3112 10.6896 14.2764 10.6896 13.0001C10.6896 11.7236 11.7242 10.689 13.0007 10.689Z" fill="#253238"/>
</svg>
