<svg width="140" height="55" viewBox="0 0 140 55" fill="none" xmlns="http://www.w3.org/2000/svg">
<path fill-rule="evenodd" clip-rule="evenodd" d="M24.3249 0.128097C19.8816 0.640909 15.5993 2.23852 11.947 4.74575C10.8543 5.49593 10.5452 5.77972 10.5452 6.03266C10.5452 6.14041 10.7178 6.45919 10.9288 6.74091C11.6842 7.74994 12.0405 8.75615 12.0405 9.88118C12.0405 12.0539 10.5373 14.0546 8.40924 14.7144C7.2086 15.0868 5.60956 14.8879 4.53921 14.2331C4.05828 13.939 3.75445 13.8932 3.51016 14.078C3.30988 14.2296 2.15756 16.6466 1.71822 17.8366C-0.537353 23.9468 -0.573427 30.7495 1.61729 36.894C2.71596 39.9756 4.92481 43.6867 6.93225 45.824C7.30692 46.2227 7.45281 46.3163 7.70009 46.3163C7.96925 46.3163 8.057 46.2438 8.43989 45.7054C9.23839 44.5825 10.7206 43.5974 12.0217 43.3251C12.7291 43.1771 14.0568 43.1972 14.7077 43.3658C16.9124 43.9369 18.7014 45.7882 19.1452 47.9576C19.4566 49.4806 19.0989 51.326 18.2588 52.5296C18.0856 52.7777 18.0702 53.2904 18.232 53.4228C18.6194 53.7398 21.6319 54.4995 23.7693 54.8191C25.5141 55.08 29.6542 55.0541 31.4694 54.771C37.5808 53.8178 42.8567 51.0935 47.1365 46.6812C51.8018 41.8715 54.4554 35.7892 54.8399 29.0242C54.9684 26.7636 54.7267 23.2211 54.4088 22.7062C54.2428 22.4372 53.9215 22.4339 53.1994 22.6938C52.8142 22.8324 52.3368 22.906 51.6193 22.9375C50.129 23.0028 49.4212 22.8082 47.6474 21.8452C46.1402 21.027 44.217 21.3302 42.9686 22.5829C41.9632 23.5919 41.696 24.5065 41.8682 26.3503C42.1029 28.8655 41.5711 31.5949 40.3809 33.9837C37.9394 38.8837 32.9318 42.0023 27.505 42.0023C24.9476 42.0023 22.9136 41.4997 20.6505 40.3084C17.4541 38.6259 14.8133 35.4778 13.6928 32.0143C12.7336 29.049 12.7462 25.7531 13.7278 22.8996C14.1342 21.7183 14.9365 20.1522 15.6648 19.1189C16.447 18.0093 18.0019 16.4424 19.0786 15.6791C23.9431 12.2304 30.3155 12.0911 35.2876 15.3247C36.2889 15.9759 37.0057 16.5736 37.9432 17.5389C39.1345 18.7656 40.4153 19.2212 41.8718 18.9362C43.5071 18.6162 44.7272 17.3644 45.0858 15.6386C45.476 13.7608 46.3775 12.3728 47.8158 11.4359C49.1166 10.5886 49.1253 10.5483 48.2341 9.49695C44.9133 5.57874 40.0794 2.47289 35.0308 1.01342C33.6996 0.628623 32.0613 0.306849 30.5449 0.132317C29.0271 -0.0423091 25.8203 -0.0444662 24.3249 0.128097ZM46.4325 37.1934C47.3143 37.505 48.0083 38.1595 48.4165 39.064C48.7246 39.747 48.7068 40.8374 48.3756 41.5538C47.3397 43.7954 44.5557 44.2669 42.9416 42.4741C42.1848 41.6334 41.9106 40.5912 42.1744 39.5577C42.6732 37.6042 44.5875 36.5412 46.4325 37.1934Z" fill="#253238"/>
<path d="M3.97107 11.5569C3.02903 9.6367 3.99462 7.29932 5.99618 6.65483C8.44175 5.86733 10.8083 7.74948 10.5943 10.3118C10.4901 11.559 9.79014 12.594 8.68006 13.1424C8.10054 13.4287 7.98951 13.4506 7.11962 13.4506C6.30085 13.4506 6.11646 13.4193 5.65273 13.2012C4.91638 12.8547 4.32321 12.2749 3.97107 11.5569Z" fill="url(#paint0_linear)"/>
<path d="M9.50869 47.0217C10.0645 45.8471 11.0674 45.0013 12.2978 44.6693C13.3672 44.3806 14.6649 44.5433 15.607 45.0843C16.182 45.4144 17.0484 46.3023 17.3234 46.8433C18.4517 49.0628 17.5388 51.7808 15.308 52.844C14.6697 53.1482 14.4806 53.1935 13.7078 53.2274C12.6267 53.2748 11.8559 53.0872 11.0937 52.591C9.7042 51.6864 9.05645 50.3914 9.12589 48.6568C9.15823 47.8498 9.19869 47.6766 9.50869 47.0217Z" fill="#253238"/>
<path d="M9.50869 47.0217C10.0645 45.8471 11.0674 45.0013 12.2978 44.6693C13.3672 44.3806 14.6649 44.5433 15.607 45.0843C16.182 45.4144 17.0484 46.3023 17.3234 46.8433C18.4517 49.0628 17.5388 51.7808 15.308 52.844C14.6697 53.1482 14.4806 53.1935 13.7078 53.2274C12.6267 53.2748 11.8559 53.0872 11.0937 52.591C9.7042 51.6864 9.05645 50.3914 9.12589 48.6568C9.15823 47.8498 9.19869 47.6766 9.50869 47.0217Z" fill="url(#paint1_linear)"/>
<path d="M43.6543 41.2215C43.0843 40.0737 43.574 38.782 44.7399 38.3577C45.432 38.1058 46.2258 38.2629 46.7747 38.7605C47.7951 39.6856 47.5986 41.4118 46.3997 42.0541C46.0454 42.2439 45.8749 42.2744 45.3166 42.2478C44.4586 42.2069 44.0043 41.9264 43.6543 41.2215Z" fill="#253238"/>
<path d="M43.6543 41.2215C43.0843 40.0737 43.574 38.782 44.7399 38.3577C45.432 38.1058 46.2258 38.2629 46.7747 38.7605C47.7951 39.6856 47.5986 41.4118 46.3997 42.0541C46.0454 42.2439 45.8749 42.2744 45.3166 42.2478C44.4586 42.2069 44.0043 41.9264 43.6543 41.2215Z" fill="url(#paint2_linear)"/>
<path d="M47.0586 13.8116C47.6526 13.2283 48.5041 12.7665 49.2477 12.6241C51.7735 12.1408 54.1226 13.7891 54.5373 16.3356C54.9683 18.9833 52.8788 21.4304 50.1949 21.4212C48.8721 21.4166 47.9634 21.0407 47.0435 20.1176C46.1254 19.1962 45.749 18.2821 45.7444 16.9623C45.7403 15.7557 46.1992 14.6555 47.0586 13.8116Z" fill="#253238"/>
<path d="M47.0586 13.8116C47.6526 13.2283 48.5041 12.7665 49.2477 12.6241C51.7735 12.1408 54.1226 13.7891 54.5373 16.3356C54.9683 18.9833 52.8788 21.4304 50.1949 21.4212C48.8721 21.4166 47.9634 21.0407 47.0435 20.1176C46.1254 19.1962 45.749 18.2821 45.7444 16.9623C45.7403 15.7557 46.1992 14.6555 47.0586 13.8116Z" fill="url(#paint3_linear)"/>
<path d="M17.4317 24.3891C18.6221 20.2671 22.3026 17.1736 26.6003 16.683C27.4904 16.5813 28.9439 16.6453 29.9058 16.8285C34.1791 17.6419 37.5253 20.96 38.4579 25.3087C38.6843 26.3645 38.6867 28.705 38.4623 29.7014C37.9801 31.8436 37.0894 33.533 35.639 35.0564C34.0631 36.7116 31.8457 37.8813 29.5858 38.2494C28.7085 38.3924 26.6616 38.3653 25.7895 38.1993C24.2442 37.9051 22.6253 37.1987 21.3927 36.2806C19.9621 35.2151 18.5598 33.455 17.8712 31.8604C16.8911 29.5907 16.7284 26.8246 17.4317 24.3891Z" fill="#253238"/>
<path d="M17.4317 24.3891C18.6221 20.2671 22.3026 17.1736 26.6003 16.683C27.4904 16.5813 28.9439 16.6453 29.9058 16.8285C34.1791 17.6419 37.5253 20.96 38.4579 25.3087C38.6843 26.3645 38.6867 28.705 38.4623 29.7014C37.9801 31.8436 37.0894 33.533 35.639 35.0564C34.0631 36.7116 31.8457 37.8813 29.5858 38.2494C28.7085 38.3924 26.6616 38.3653 25.7895 38.1993C24.2442 37.9051 22.6253 37.1987 21.3927 36.2806C19.9621 35.2151 18.5598 33.455 17.8712 31.8604C16.8911 29.5907 16.7284 26.8246 17.4317 24.3891Z" fill="url(#paint4_linear)"/>
<path fill-rule="evenodd" clip-rule="evenodd" d="M100.052 6.52806L98.8596 6.55742L98.9858 12.7702L98.5033 12.3876C97.0478 11.233 94.5328 11.1118 92.6656 12.1062C91.3931 12.7839 90.2643 14.2168 89.6767 15.9002C89.4254 16.6202 89.383 16.8854 89.3489 17.9466C89.2995 19.4879 89.5002 20.4258 90.1788 21.8245C91.0542 23.6286 92.4071 24.703 94.279 25.0805C95.8822 25.4038 97.44 25.1083 98.5412 24.2719L99.1323 23.8229L99.1887 24.699L103.534 24.7494L103.532 23.1767C103.531 22.3119 103.469 18.3545 103.394 14.3828C103.319 10.411 103.257 7.00318 103.256 6.8097L103.254 6.45801L102.249 6.47836C101.697 6.48961 100.708 6.51193 100.052 6.52806ZM136.945 7.4524C136.894 7.46656 135.916 7.77783 134.772 8.14434L132.693 8.81068V11.1472H130.82L130.87 15.3206L132.758 15.3738L132.819 16.4257C132.852 17.0042 132.879 18.0263 132.88 18.6968C132.882 21.2848 133.382 22.6829 134.597 23.5024C135.501 24.1119 137.05 24.3674 138.819 24.1986C139.426 24.1406 139.947 24.0607 139.976 24.021C140.005 23.9813 140.008 23.0878 139.982 22.0355L139.936 20.1223L139.001 20.1124C137.975 20.1017 137.576 19.9657 137.394 19.5649C137.337 19.4414 137.261 18.4253 137.223 17.3071L137.154 15.2737H138.469C139.323 15.2737 139.807 15.2376 139.848 15.1708C139.883 15.1143 139.881 14.1658 139.843 13.0632L139.775 11.0585L137.132 11.0065L137.085 9.21667C137.056 8.09117 137.004 7.43636 136.945 7.4524ZM128.03 11.1081C127.01 11.3834 126.045 12.1244 125.599 12.9746L125.403 13.3483V12.3471C125.403 11.7964 125.372 11.3269 125.333 11.3038C125.295 11.2807 124.3 11.2844 123.123 11.3122L120.983 11.3625L121.044 15.0766C121.078 17.1193 121.133 20.047 121.166 21.5824L121.226 24.3742L125.543 24.3239V21.1352C125.543 17.9868 125.546 17.941 125.761 17.5084C126.206 16.6086 127.01 16.0371 128.113 15.8365C128.44 15.777 128.855 15.7558 129.033 15.7893L129.359 15.8506L129.297 13.9997C129.263 12.9816 129.235 11.8812 129.235 11.5541V10.9596L128.884 10.9658C128.692 10.9692 128.307 11.0333 128.03 11.1081ZM109.796 11.2868C108.951 11.4775 108.493 11.664 107.863 12.0752C106.448 12.9984 105.441 14.5672 105.063 16.4379C104.86 17.4407 104.933 19.2469 105.216 20.2418C105.881 22.5785 107.645 24.3438 109.767 24.7948C111.46 25.1548 113.052 24.828 114.313 23.8617L114.749 23.528V23.9884C114.749 24.2417 114.791 24.463 114.842 24.4802C114.893 24.4974 115.887 24.4994 117.052 24.4845L119.17 24.4575L119.109 21.4835C119.076 19.8477 119.021 16.9161 118.987 14.9689L118.926 11.4286H114.562V12.4759L114.305 12.2769C113.754 11.8498 113.299 11.5892 112.797 11.4115C112.095 11.1635 110.615 11.102 109.796 11.2868ZM79.6436 11.8442C75.1892 12.8609 72.976 17.7602 75.1075 21.8855C75.6081 22.8546 76.8907 24.1185 77.9005 24.6382C79.015 25.2117 79.8954 25.4227 81.1983 25.4286C82.5277 25.4345 83.2736 25.2646 84.4647 24.6846C85.2062 24.3235 85.4768 24.1245 86.1504 23.4451C87.0654 22.5221 87.5945 21.6149 87.9382 20.3796C88.2175 19.3755 88.2203 17.7941 87.9444 16.7608C87.3435 14.5101 85.7293 12.7969 83.488 12.0309C82.8497 11.8127 82.5559 11.7708 81.4787 11.7443C80.6307 11.7235 80.029 11.7563 79.6436 11.8442ZM67.043 11.9954C65.2111 12.2844 63.4562 13.3921 62.4744 14.8795C61.0763 16.9973 60.9207 19.6604 62.0567 22.0262C62.7505 23.4709 64.2811 24.7659 66.0116 25.3721C66.6961 25.6119 66.8739 25.6342 68.1144 25.6355C69.273 25.6367 69.5712 25.6052 70.1704 25.4185C71.362 25.0471 72.1785 24.6004 72.8805 23.9359C73.5794 23.2744 74.2339 22.3725 74.1585 22.1752C74.1326 22.1077 73.3039 21.6066 72.3169 21.0616L70.5224 20.0708L70.0427 20.5632C69.4302 21.192 68.9006 21.406 68.0857 21.3538C66.6332 21.2611 65.7468 20.2515 65.7527 18.6968C65.758 17.3423 66.6952 16.3454 68.0672 16.2348C68.5643 16.1948 68.735 16.2254 69.1947 16.4366C69.4926 16.5734 69.8955 16.8583 70.09 17.0698L70.4436 17.4542L72.1996 16.3963C73.1653 15.8145 73.9929 15.3053 74.0388 15.2647C74.1763 15.1429 73.5566 14.2787 72.8968 13.672C72.2138 13.0439 70.9612 12.3695 70.0303 12.1287C69.3319 11.9479 67.7823 11.8788 67.043 11.9954ZM113.008 15.4648C113.342 15.5901 113.647 15.7976 113.895 16.068C114.457 16.6795 114.592 17.0557 114.601 18.0404C114.61 18.9796 114.445 19.4333 113.875 20.0415C113.365 20.5847 112.932 20.7581 112.085 20.7579C110.895 20.7577 110.125 20.2993 109.584 19.2704C109.285 18.701 109.289 17.3747 109.592 16.7568C109.844 16.2414 110.407 15.7021 110.951 15.454C111.477 15.2146 112.354 15.2192 113.008 15.4648ZM97.1959 15.652C97.7842 15.8159 98.4006 16.3077 98.7064 16.8574C99.0673 17.506 99.1572 18.5546 98.9146 19.2874C98.7264 19.8563 98.1406 20.5511 97.6119 20.8328C97.0678 21.1226 96.0162 21.1138 95.3358 20.8136C94.7875 20.5719 94.1817 19.9682 93.947 19.43C93.7007 18.8654 93.7244 17.6916 93.9943 17.0798C94.2386 16.5259 94.7694 15.9973 95.3442 15.7353C95.7768 15.5383 96.6474 15.499 97.1959 15.652ZM82.3785 16.1936C84.3384 17.1979 84.1783 20.3172 82.1296 21.0426C80.7005 21.5486 79.2275 20.7907 78.8049 19.3318C78.4044 17.9494 79.1752 16.4325 80.4841 16.0269C80.9504 15.8825 81.9415 15.9697 82.3785 16.1936ZM100.404 27.3752C98.196 27.7153 96.2596 29.1156 95.279 31.0811C94.7084 32.2249 94.6087 32.6959 94.6149 34.2181C94.62 35.4319 94.6474 35.6587 94.8696 36.3283C95.23 37.4143 95.7198 38.1961 96.574 39.048C97.4523 39.9241 98.0812 40.3214 99.211 40.7141C100.286 41.0879 101.892 41.1773 103.031 40.9266C105.599 40.3617 107.566 38.4685 108.21 35.9424C108.462 34.9553 108.462 33.3876 108.21 32.4009C107.619 30.0826 105.697 28.1506 103.394 27.5593C102.534 27.3387 101.181 27.2554 100.404 27.3752ZM92.1756 27.6903C91.1279 27.9457 90.3511 28.4914 89.7858 29.369L89.429 29.923L89.3758 27.8949L87.273 27.9221C86.1165 27.9371 85.1404 27.978 85.104 28.0131C85.0676 28.0482 85.0886 30.9674 85.1508 34.5002L85.2637 40.9237L89.6187 40.9741L89.605 37.8541C89.5932 35.1904 89.6133 34.6732 89.7423 34.3184C90.1738 33.1316 91.2861 32.4271 92.7415 32.4187L93.3477 32.4151V30.2804C93.3477 29.1062 93.3214 28.0137 93.2892 27.8525C93.2383 27.5969 93.1935 27.5605 92.9388 27.5674C92.7781 27.5718 92.4347 27.6271 92.1756 27.6903ZM75.7554 27.887C75.0808 28.0588 74.6325 28.2874 74.0238 28.7703L73.5445 29.1505L73.4881 28.1691L71.3386 28.2022C70.1564 28.2203 69.1744 28.2492 69.1564 28.2663C69.0963 28.3231 69.4391 46.3622 69.5015 46.426C69.5353 46.4606 70.5257 46.4647 71.7023 46.4351L73.8416 46.3813L73.7052 40.1835L74.0173 40.4372C74.8187 41.0889 76.1388 41.5333 77.2731 41.5333C78.0372 41.5333 79.1222 41.2746 79.8736 40.9134C81.2645 40.2445 82.6032 38.5611 83.1052 36.8496C83.9588 33.9395 82.8251 30.2923 80.5925 28.7662C79.6317 28.1095 78.6984 27.8253 77.3666 27.7839C76.6329 27.7611 76.1217 27.7938 75.7554 27.887ZM102.683 31.8212C103.5 32.2455 103.934 33.0001 103.984 34.086C104.014 34.7155 103.984 34.9279 103.811 35.3322C103.262 36.6119 101.617 37.2076 100.38 36.5744C98.567 35.6464 98.4749 32.9399 100.221 31.9129C100.919 31.5024 101.992 31.4625 102.683 31.8212ZM77.1988 32.0193C77.7704 32.2147 78.3469 32.7273 78.6552 33.3142C78.8776 33.7377 78.9077 33.8984 78.9036 34.6402C78.8997 35.3251 78.858 35.5686 78.6823 35.9316C78.3978 36.5192 77.7427 37.0896 77.149 37.2666C75.3613 37.7994 73.802 36.709 73.6509 34.8204C73.4917 32.8299 75.3285 31.3798 77.1988 32.0193ZM63.4883 36.3901C62.6854 36.6905 61.9693 37.4703 61.7502 38.283C61.5065 39.1866 61.8636 40.4597 62.5149 41.0098C63.1477 41.5442 63.5175 41.6727 64.4229 41.6727C65.1067 41.6727 65.3339 41.6348 65.6378 41.4703C67.2182 40.6146 67.6201 38.5128 66.4526 37.2096C65.86 36.5483 65.4295 36.3492 64.5163 36.3139C64.1051 36.2981 63.6425 36.3323 63.4883 36.3901Z" fill="#253238"/>
<defs>
<linearGradient id="paint0_linear" x1="8.59715" y1="13.4506" x2="5.10562" y2="6.87135" gradientUnits="userSpaceOnUse">
<stop stop-color="#723E8F"/>
<stop offset="1" stop-color="#D4B6FD"/>
</linearGradient>
<linearGradient id="paint1_linear" x1="15.3125" y1="53.2345" x2="10.9422" y2="45.0446" gradientUnits="userSpaceOnUse">
<stop stop-color="#723E8F"/>
<stop offset="1" stop-color="#D4B6FD"/>
</linearGradient>
<linearGradient id="paint2_linear" x1="46.2794" y1="42.2561" x2="44.2655" y2="38.4737" gradientUnits="userSpaceOnUse">
<stop stop-color="#723E8F"/>
<stop offset="1" stop-color="#D4B6FD"/>
</linearGradient>
<linearGradient id="paint3_linear" x1="52.0519" y1="21.4212" x2="47.5904" y2="13.0717" gradientUnits="userSpaceOnUse">
<stop stop-color="#723E8F"/>
<stop offset="1" stop-color="#D4B6FD"/>
</linearGradient>
<linearGradient id="paint4_linear" x1="32.4164" y1="38.342" x2="21.5115" y2="17.9345" gradientUnits="userSpaceOnUse">
<stop stop-color="#723E8F"/>
<stop offset="1" stop-color="#D4B6FD"/>
</linearGradient>
</defs>
</svg>
