<svg width="26" height="26" viewBox="0 0 26 26" fill="none" xmlns="http://www.w3.org/2000/svg">
<path fill-rule="evenodd" clip-rule="evenodd" d="M13 0C20.1797 0 26 5.8203 26 13C26 20.1797 20.1797 26 13 26C5.8203 26 0 20.1797 0 13C0 5.8203 5.8203 0 13 0ZM16.4635 11.3525C16.4003 10.8388 16.2424 10.4355 15.962 10.0782C15.5979 9.6182 15.1327 9.34273 14.4438 9.17932C13.9949 9.0704 13.8136 9.0829 13.6512 9.23121C13.5 9.37015 13.4704 9.6487 13.586 9.82908C13.6673 9.96 13.761 10.0069 14.0218 10.0581C14.3691 10.122 14.6091 10.2049 14.8274 10.3297C15.2907 10.5973 15.5065 11.016 15.5296 11.6938C15.5404 12.012 15.5679 12.1099 15.6791 12.2227C15.8851 12.4291 16.2518 12.3889 16.4073 12.142C16.4644 12.049 16.4731 12.0085 16.4791 11.7923C16.4831 11.6586 16.4773 11.4594 16.4635 11.3525ZM16.4696 8.20094C17.5713 9.09178 18.1868 10.3579 18.2783 11.9317C18.3168 12.5515 18.2657 12.7534 18.047 12.8684C17.8497 12.9749 17.6261 12.9399 17.4727 12.7794C17.3711 12.6751 17.3321 12.5324 17.3335 12.2797C17.338 11.5811 17.1771 10.801 16.9154 10.2596C16.6125 9.62951 16.1443 9.09332 15.5553 8.7013C15.0394 8.35699 14.3567 8.12442 13.6947 8.0665C13.2653 8.02893 13.112 7.95621 13.0295 7.75036C12.9785 7.62722 12.992 7.41435 13.0518 7.319C13.1084 7.23108 13.2354 7.13385 13.3252 7.10815C13.4204 7.08039 13.975 7.12892 14.2763 7.18879C15.0987 7.35618 15.8489 7.70038 16.4696 8.20094ZM20.2866 17.9922C20.2558 17.9022 20.184 17.7635 20.1327 17.6838C19.8094 17.1956 18.0724 15.8363 17.2052 15.3917C16.7101 15.1373 16.3432 15.0526 16.0712 15.1322C15.7787 15.2145 15.6247 15.3506 15.1347 15.9596C14.9372 16.2037 14.7345 16.4324 14.6806 16.4684C14.5471 16.5609 14.2855 16.6354 14.1007 16.6354C13.6722 16.6328 12.8948 16.3553 12.297 15.9904C11.8326 15.7078 11.2374 15.2016 10.7807 14.7005C10.2419 14.1121 9.87503 13.593 9.58507 13.0072C9.2105 12.2543 9.11557 11.7943 9.27205 11.4577C9.31055 11.3729 9.36187 11.283 9.38493 11.2547C9.40804 11.229 9.64923 11.0311 9.91603 10.8153C10.4395 10.399 10.5241 10.304 10.6216 10.0187C10.7448 9.65639 10.7114 9.28637 10.5216 8.9138C10.3753 8.63113 9.99302 8.01443 9.71594 7.61616C9.34904 7.09198 8.43564 5.97164 8.25345 5.81999C7.92505 5.55278 7.50431 5.5065 7.03987 5.6864C6.54987 5.87656 5.63132 6.61659 5.23875 7.13309C4.88468 7.60074 4.74875 7.9322 4.7282 8.36904C4.71025 8.72877 4.74103 8.87781 4.9309 9.33778C6.41644 12.9455 8.63318 15.826 11.6787 18.1129C13.2694 19.3078 14.9192 20.2174 16.6305 20.8393C17.6285 21.2016 18.0622 21.2196 18.5727 20.9215C18.7882 20.793 19.3219 20.2457 19.6195 19.8474C20.1122 19.1844 20.2943 18.8787 20.3456 18.6346C20.3816 18.4675 20.3533 18.1772 20.2866 17.9922ZM19.6306 9.85862C19.9432 10.6727 20.093 11.4029 20.1259 12.2931C20.1311 12.4689 20.1287 12.7911 20.1173 13.0094C20.0936 13.4278 20.0709 13.5109 19.9504 13.6216C19.7568 13.8033 19.3794 13.76 19.2363 13.541C19.1616 13.4236 19.1511 13.3376 19.1656 12.8487C19.2071 11.4028 18.9146 10.2706 18.2101 9.13853C17.3683 7.78032 16.1091 6.86537 14.4716 6.41775C14.054 6.30381 13.7021 6.23437 13.1548 6.16069C12.7983 6.11403 12.7202 6.0943 12.6322 6.04014C12.3664 5.86989 12.3629 5.4388 12.6279 5.26596C12.7646 5.17472 12.8654 5.17064 13.3111 5.22772C14.6181 5.39105 15.7843 5.77939 16.7426 6.36623C17.4294 6.78742 17.8625 7.1658 18.4201 7.82849C19.0098 8.53527 19.3221 9.05783 19.6306 9.85862Z" fill="#253238"/>
</svg>
