<svg width="26" height="26" viewBox="0 0 26 26" fill="none" xmlns="http://www.w3.org/2000/svg">
<path fill-rule="evenodd" clip-rule="evenodd" d="M26 13C26 20.1797 20.1797 26 13 26C5.8203 26 0 20.1797 0 13C0 5.8203 5.8203 0 13 0C20.1797 0 26 5.8203 26 13ZM8.70543 11.8092C7.40316 12.3778 6.0651 12.962 4.84157 13.6359L4.84148 13.636C4.20259 14.1038 5.05181 14.4346 5.84842 14.745C5.97507 14.7943 6.10039 14.8431 6.21818 14.8919C6.31621 14.922 6.41589 14.9538 6.51691 14.986C7.40289 15.2683 8.39083 15.583 9.25097 15.1095C10.6639 14.2979 11.9974 13.3595 13.3298 12.4218C13.7663 12.1146 14.2028 11.8074 14.6419 11.5048C14.6624 11.4917 14.6856 11.4766 14.711 11.4602C15.0851 11.2177 15.9263 10.6724 15.6151 11.4238C14.8793 12.2285 14.0912 12.9408 13.2987 13.657C12.7647 14.1397 12.2287 14.6242 11.7054 15.1398C11.2496 15.5101 10.7764 16.2548 11.2867 16.7733C12.4621 17.5961 13.6559 18.399 14.8489 19.2015C15.2372 19.4626 15.6253 19.7236 16.0127 19.9853C16.6693 20.5095 17.6955 20.0855 17.8398 19.2663C17.904 18.8894 17.9685 18.5126 18.0329 18.1358C18.3891 16.0532 18.7454 13.97 19.0602 11.8806C19.103 11.5529 19.1515 11.2252 19.2 10.8973C19.3176 10.1026 19.4353 9.30698 19.4721 8.50802C19.3773 7.71071 18.4106 7.88602 17.8726 8.0653C15.1072 9.11754 12.3695 10.2478 9.64268 11.398C9.33379 11.5348 9.02066 11.6715 8.70543 11.8092Z" fill="#253238"/>
</svg>
