<svg width="26" height="26" viewBox="0 0 26 26" fill="none" xmlns="http://www.w3.org/2000/svg">
<path fill-rule="evenodd" clip-rule="evenodd" d="M0 13C0 20.1797 5.8203 26 13 26C20.1797 26 26 20.1797 26 13C26 5.8203 20.1797 0 13 0C5.8203 0 0 5.8203 0 13ZM21.1587 12.5025C21.157 16.7636 17.6906 20.2309 13.4285 20.2326H13.4253C12.1316 20.2322 10.8603 19.9076 9.73127 19.2917L5.63337 20.3667L6.73003 16.361C6.05356 15.1886 5.6976 13.8588 5.69818 12.4964C5.69987 8.23424 9.16764 4.76666 13.4285 4.76666C15.4964 4.76755 17.4373 5.57259 18.8967 7.03376C20.3562 8.49485 21.1595 10.437 21.1587 12.5025Z" fill="#253238"/>
<path fill-rule="evenodd" clip-rule="evenodd" d="M7.48934 18.5301L9.92109 17.8922L10.1557 18.0315C11.1422 18.6169 12.273 18.9266 13.4259 18.927H13.4285C16.9698 18.927 19.852 16.0447 19.8534 12.502C19.8541 10.7852 19.1865 9.17095 17.9734 7.95648C16.7603 6.74201 15.1471 6.07286 13.431 6.07227C9.88699 6.07227 7.0047 8.9543 7.0033 12.4968C7.0028 13.7108 7.34248 14.8931 7.98564 15.9161L8.13841 16.1592L7.48934 18.5301ZM17.0583 14.1667C17.1931 14.2318 17.284 14.2758 17.3229 14.3406C17.3711 14.4212 17.3711 14.8079 17.2103 15.2591C17.0492 15.7103 16.2776 16.1221 15.9065 16.1775C15.5737 16.2273 15.1526 16.248 14.6899 16.101C14.4094 16.012 14.0496 15.8931 13.5888 15.6941C11.778 14.9122 10.5543 13.1572 10.3231 12.8255C10.3069 12.8023 10.2955 12.786 10.2892 12.7776L10.2877 12.7755C10.1854 12.6391 9.50053 11.7253 9.50053 10.7795C9.50053 9.88981 9.93756 9.42347 10.1387 9.20882C10.1525 9.19411 10.1652 9.18058 10.1765 9.16818C10.3536 8.97481 10.5629 8.92647 10.6916 8.92647C10.8204 8.92647 10.9493 8.92766 11.0618 8.93331C11.0757 8.93401 11.0901 8.93392 11.1051 8.93383C11.2176 8.93317 11.358 8.93235 11.4964 9.26487C11.5496 9.39284 11.6276 9.58257 11.7098 9.78266C11.876 10.1873 12.0596 10.6344 12.0919 10.699C12.1402 10.7957 12.1724 10.9085 12.108 11.0375C12.0983 11.0568 12.0894 11.075 12.0809 11.0925C12.0325 11.1912 11.9969 11.2638 11.9149 11.3596C11.8826 11.3973 11.8492 11.4379 11.8159 11.4786C11.7494 11.5595 11.683 11.6404 11.6251 11.698C11.5284 11.7944 11.4278 11.8989 11.5404 12.0922C11.6531 12.2856 12.0408 12.9181 12.615 13.4303C13.2322 13.9808 13.7687 14.2135 14.0406 14.3315C14.0937 14.3545 14.1367 14.3732 14.1683 14.389C14.3613 14.4857 14.474 14.4695 14.5867 14.3406C14.6994 14.2117 15.0695 13.7766 15.1983 13.5833C15.327 13.39 15.4558 13.4222 15.6329 13.4866C15.8099 13.5511 16.7596 14.0183 16.9527 14.115C16.9904 14.1339 17.0257 14.1509 17.0583 14.1667Z" fill="#253238"/>
</svg>
