<svg width="150" height="74" viewBox="0 0 150 74" fill="none" xmlns="http://www.w3.org/2000/svg">
<path opacity="0.6" d="M0.0597885 0.141696C0.00664331 0.230255 -0.0110719 12.8235 0.00664311 28.1443L0.0420734 55.9875L6.95094 56.0583C25.9946 56.2886 36.3402 56.324 90.9734 56.448L150 56.5543V0H75.083C33.8601 0 0.112934 0.0708477 0.0597885 0.141696ZM140.08 1.7712C140.292 1.98374 140.717 2.55052 141.072 3.06417C141.408 3.57781 141.94 4.32172 142.259 4.71138C142.56 5.11875 143.18 5.98664 143.623 6.64198C144.065 7.27961 144.916 8.50174 145.536 9.3342C146.156 10.1844 146.634 10.9991 146.599 11.1762C146.563 11.4242 133.472 21.4138 130.691 23.3089C130.354 23.5392 129.716 24.0174 129.273 24.3539C128.831 24.6905 127.962 25.3281 127.325 25.7886C125.553 27.0639 124.154 28.2151 124.242 28.3568C124.278 28.4277 125.252 29.1893 126.386 30.0395C127.537 30.9074 128.565 31.7044 128.653 31.8107C128.813 31.9878 132.232 34.6446 133.986 35.9553C135.013 36.7169 138.627 39.4977 139.371 40.0822C139.743 40.401 140.788 41.198 141.674 41.8888C143.534 43.3234 145.554 44.8998 145.89 45.1655C146.298 45.5197 146.103 46.2105 145.306 47.1846C144.863 47.7337 144.508 48.2119 144.508 48.2651C144.508 48.3182 144.136 48.885 143.676 49.5049C143.197 50.1425 142.471 51.1698 142.028 51.8075C140.452 54.11 139.53 55.2613 139.265 55.2613C139.034 55.2613 133.49 51.1876 132.834 50.5145C132.692 50.3905 132.374 50.1425 132.126 49.9831C131.594 49.6466 128.884 47.6274 128.742 47.468C128.653 47.3618 126.085 45.4312 125.447 44.9884C124.579 44.3862 122.081 42.4378 121.904 42.2253C121.798 42.0836 121.656 41.9773 121.585 41.9773C121.408 41.9773 118.077 39.4445 117.776 39.0903C117.369 38.5766 117.192 38.7538 117.245 39.6216C117.263 40.0999 117.28 43.164 117.263 46.4408C117.227 51.5949 117.192 52.4451 116.944 52.6754C116.713 52.9233 115.881 52.9587 110.566 52.9587H104.472L104.277 52.4628C104.136 52.1263 104.1 44.8821 104.171 27.8078C104.26 4.67596 104.277 3.63095 104.596 3.4007C104.844 3.22358 106.12 3.18815 110.885 3.22358C114.712 3.259 116.926 3.34756 117.032 3.45383C117.156 3.57782 117.245 6.16376 117.263 10.8574C117.298 16.2064 117.369 18.0662 117.528 18.0662C117.635 18.0662 117.759 18.0131 117.794 17.9245C117.829 17.8537 119.158 16.8086 120.77 15.6042C122.382 14.3998 123.782 13.3017 123.888 13.1777C123.994 13.036 124.154 12.9297 124.225 12.9297C124.313 12.9297 125.022 12.4338 125.801 11.8316C126.598 11.2117 127.325 10.6626 127.413 10.5918C128.016 10.149 130.071 8.55487 131.045 7.79326C132.444 6.69512 137.174 3.1173 137.759 2.69222C137.989 2.53281 138.432 2.17857 138.733 1.91289C139.389 1.3284 139.619 1.31068 140.08 1.7712ZM46.5087 3.17044C47.1995 3.18815 47.5184 3.27671 47.8019 3.5601L48.1739 3.93205L48.103 27.8963C48.0499 49.806 48.0322 51.9137 47.7664 52.1794C47.4121 52.5337 47.0933 52.392 45.6583 51.2407C45.1269 50.8156 41.3004 47.9463 37.1551 44.8644C33.0098 41.8002 29.5376 39.1611 29.4313 39.0371C29.3251 38.8955 29.1479 38.7892 29.0593 38.7892C28.9708 38.7892 28.3684 38.3995 27.7484 37.9036C27.1284 37.4254 26.3312 36.8232 25.9946 36.5752C25.658 36.3272 24.7723 35.6896 24.046 35.1405C23.3197 34.6092 21.6544 33.387 20.3612 32.4129C19.068 31.4387 17.9874 30.6417 17.9343 30.6417C17.8988 30.6417 17.8634 35.4062 17.8457 41.2157C17.8457 50.302 17.7926 51.8429 17.58 52.1971L17.3143 52.6045H4.02796L3.93939 52.1971C3.88624 51.9846 3.86853 40.9323 3.88624 27.6306L3.93939 3.45383L4.45312 3.4007C4.73656 3.36527 5.02 3.41841 5.09086 3.54239C5.16172 3.64866 5.46288 3.86121 5.76404 4.03833C6.06519 4.19773 6.61436 4.5874 6.98637 4.90621C8.315 6.00435 9.69678 7.08478 9.78535 7.08478C9.94479 7.08478 13.4701 9.74158 13.7004 10.025C13.8067 10.1667 13.9661 10.2729 14.037 10.2729C14.1255 10.2729 14.3558 10.4323 14.5507 10.6095C14.7633 10.8043 15.525 11.3711 16.2691 11.9024C17.5623 12.8057 23.3551 17.1275 23.8511 17.5525C23.9751 17.6765 24.4888 18.0308 24.9849 18.3673C25.4809 18.7038 26.1363 19.182 26.4552 19.4477C26.7564 19.7134 27.589 20.3156 28.2799 20.7938C28.9708 21.2721 29.8742 21.9628 30.2994 22.3348C30.7068 22.7244 31.1143 23.0255 31.1851 23.0255C31.256 23.0255 31.8583 23.4329 32.4961 23.9111C33.1515 24.4071 33.7538 24.779 33.8601 24.7436C34.0018 24.6905 34.0727 21.396 34.1081 14.0633C34.1436 8.23606 34.2144 3.41841 34.2498 3.36527C34.4801 3.15273 38.838 3.08188 46.5087 3.17044ZM80.7696 3.61324C81.1416 3.77265 81.6908 3.89663 82.0096 3.89663C82.3285 3.89663 83.1434 4.1446 83.8343 4.42799C84.5074 4.72909 85.1629 4.95935 85.2869 4.95935C85.4109 4.95935 85.5172 5.0302 85.5172 5.10104C85.5172 5.1896 85.8361 5.38443 86.2258 5.56155C88.2099 6.42944 90.7609 8.37775 93.3295 10.9991C96.0222 13.7268 96.4651 14.3998 95.8451 14.8426C95.2782 15.25 93.5953 16.3127 93.2233 16.4898C93.0284 16.5961 92.7095 16.7555 92.5146 16.8795C91.0443 17.7828 90.69 17.9953 90.3888 18.2079C90.194 18.3142 89.8751 18.4913 89.6625 18.5798C89.2728 18.757 87.7139 19.7134 86.5447 20.4927C85.5526 21.1658 85.1275 21.0949 84.2063 20.0676C83.6217 19.4123 82.9662 18.9695 81.7616 18.3673C79.2284 17.1275 78.6969 17.0035 75.9511 17.0035C73.8253 17.0035 73.4178 17.0566 72.4435 17.4286C71.3097 17.8714 69.7331 18.6153 69.5737 18.7747C69.5205 18.8278 69.1485 19.1289 68.7233 19.4654C67.2707 20.599 65.8358 22.9016 65.1095 25.2395C64.6843 26.6388 64.6666 29.4373 65.0918 30.7125C65.8712 33.1214 66.4735 34.2549 67.8907 35.9198C68.4045 36.5221 70.0874 37.7796 70.9023 38.1516C71.292 38.3464 71.8058 38.5943 72.0538 38.7006C73.1344 39.2497 76.1814 39.5685 77.5986 39.3028C78.0592 39.2143 78.7678 39.0726 79.1929 39.0017C79.6004 38.9132 80.0964 38.7715 80.2913 38.6652C82.1691 37.691 82.2753 37.6202 83.9937 35.8667L85.2338 34.6269L80.7873 34.5383C78.3426 34.4852 76.2699 34.3789 76.1814 34.3081C76.1105 34.2195 76.0396 31.421 76.0396 28.0735C76.0396 23.3089 76.0928 21.9274 76.2699 21.7503C76.4471 21.5732 78.7855 21.52 87.9264 21.52H99.3704L99.6892 21.9097C99.8664 22.1399 100.114 22.8838 100.221 23.5923C100.54 25.4344 100.504 29.8801 100.168 31.7044C100.008 32.5369 99.8487 33.4402 99.8133 33.7413C99.583 35.2645 97.7229 39.5508 96.4297 41.4814C94.729 44.0319 94.3924 44.4393 92.7804 46.0157C90.7077 48.0348 88.5996 49.5403 86.2258 50.6562C85.7829 50.851 85.216 51.1344 84.9503 51.2761C84.7023 51.4178 84.3303 51.5418 84.1531 51.5418C83.976 51.5418 83.7457 51.6126 83.6571 51.7012C83.3737 51.9492 81.6908 52.4274 80.061 52.7108C77.2266 53.2244 72.7978 52.9765 70.0165 52.1794C68.4222 51.7012 67.501 51.4001 67.1644 51.2053C66.9695 51.1167 66.3849 50.8333 65.8535 50.5853C64.0997 49.7706 61.9208 48.4599 61.2476 47.8223C61.0881 47.6806 60.5035 47.1492 59.9367 46.671C58.6612 45.5906 56.872 43.5183 55.8445 41.9773C54.4273 39.8165 53.1341 36.9117 52.5141 34.4498C52.3723 33.8653 52.142 32.9797 52.018 32.5014C51.646 30.9782 51.5929 25.8595 51.9295 24.106C52.3192 22.1399 52.7089 20.599 53.0278 19.8728C53.1695 19.554 53.2758 19.2175 53.2758 19.1112C53.2758 18.5267 55.3485 14.5061 56.0571 13.7268C56.2342 13.5319 56.6062 13.036 56.872 12.6463C57.7577 11.3357 61.2122 7.97038 62.0448 7.59843C62.2396 7.50987 62.6116 7.29733 62.8596 7.12021C64.3831 6.12834 65.4815 5.49071 65.6941 5.49071C65.8181 5.49071 66.0484 5.38443 66.1901 5.24274C66.5975 4.90621 69.6622 3.89663 70.3 3.89663C70.6011 3.89663 71.0086 3.80807 71.2212 3.68409C71.8943 3.32985 73.6127 3.20586 76.9254 3.27671C79.2992 3.32985 80.2736 3.41841 80.7696 3.61324ZM6.95094 59.3528C4.896 59.9195 3.86853 61.0708 3.70909 63.0014C3.6028 64.259 4.06339 65.3217 4.98457 65.9947C5.78175 66.5615 6.95094 67.1283 7.32296 67.1283C7.44697 67.1283 7.90756 67.2346 8.315 67.3763C8.74016 67.518 9.28933 67.6774 9.53734 67.7305C9.80307 67.7837 10.2637 68.067 10.5648 68.3504C11.734 69.4486 10.9368 70.6707 9.04132 70.6707C8.06699 70.6707 7.30524 70.2279 7.03952 69.5017C6.88008 69.112 6.80922 69.0943 5.23258 69.1298L3.58508 69.1652L3.63823 69.7851C3.65594 70.1216 3.79766 70.5113 3.93939 70.6707C4.08111 70.8301 4.20511 71.0427 4.20511 71.1489C4.20511 71.4146 5.3743 72.3179 6.24234 72.7253C6.82694 73.0087 7.34067 73.0618 9.16533 73.0441C11.3266 73.0264 11.3974 73.0087 12.3718 72.4419C13.0272 72.0699 13.5587 71.574 13.913 71.0072C14.409 70.2633 14.4798 70.0154 14.4798 68.8995C14.4798 66.4375 13.5587 65.5874 9.69678 64.5601C7.00409 63.8339 6.15377 62.2752 8.06699 61.6376C8.95275 61.3542 9.51963 61.4959 10.2637 62.1512C10.7951 62.6118 10.99 62.6649 12.4426 62.718L14.037 62.7889L13.9838 62.2752C13.8244 60.9823 12.3895 59.7247 10.5471 59.2642C9.07675 58.91 8.52758 58.9277 6.95094 59.3528ZM123.959 59.4945C122.276 59.8664 120.841 61.0531 120.079 62.718C118.946 65.1623 118.963 68.1379 120.079 70.4227C120.752 71.7688 121.248 72.2648 122.666 72.9555C123.64 73.4338 123.941 73.5046 125.287 73.5046C126.882 73.5046 127.378 73.3452 128.494 72.5127C129.22 71.9637 129.433 71.9814 129.575 72.619C129.628 72.9378 129.787 73.1504 129.964 73.1681C130.124 73.1858 130.478 73.2212 130.761 73.2566C131.824 73.3806 131.842 73.3452 131.842 69.5726V66.1542L129.22 66.101L126.598 66.0479L126.652 67.2523L126.705 68.4567L127.378 68.563C128.281 68.7047 128.512 68.9526 128.228 69.4663C127.892 70.1039 126.758 70.6707 125.801 70.6707C124.685 70.6707 123.888 70.1571 123.339 69.0589C122.435 67.2877 122.914 63.5859 124.171 62.6472C125.287 61.8147 127.201 62.169 127.874 63.3202L128.246 63.9579L129.876 63.9047L131.488 63.8516L131.435 63.2671C131.346 62.1335 129.964 60.4686 128.582 59.8487C127.697 59.4413 125.093 59.2465 123.959 59.4945ZM139.194 59.4945C137.918 59.7424 136.873 60.4155 136.271 61.3719C135.987 61.797 135.917 62.2398 135.917 63.4974C135.917 64.8966 135.97 65.1623 136.342 65.6759C136.855 66.4021 137.741 66.9512 139.017 67.3409C141.833 68.2087 142.383 68.4213 142.808 68.8109C143.516 69.4663 143.357 70.2633 142.383 70.7593C141.39 71.2729 140.168 71.0072 139.371 70.1216C138.946 69.6434 138.84 69.6257 137.281 69.5903C136.377 69.5726 135.58 69.608 135.527 69.6788C135.456 69.7497 135.669 70.2988 135.987 70.901C136.537 71.946 137.599 72.9733 138.166 72.9733C138.29 72.9733 138.556 73.0972 138.733 73.2389C139.247 73.6286 142.666 73.6109 143.569 73.2212C145.376 72.4419 145.713 72.1762 146.244 70.9895C147.024 69.3069 146.935 68.191 145.926 66.7918C145.359 66.0302 144.615 65.6228 142.737 65.1091C139.991 64.3475 139.371 63.9756 139.371 63.09C139.371 61.8147 141.107 61.4782 142.347 62.4701C143.038 63.0191 143.144 63.0546 144.579 63.0546C145.412 63.0546 146.12 62.9837 146.174 62.8952C146.333 62.6472 145.624 61.2125 145.093 60.6812C144.172 59.7601 143.339 59.459 141.497 59.4059C140.576 59.3882 139.53 59.4236 139.194 59.4945ZM17.4914 66.1542V72.7961L18.9086 72.8316C19.6881 72.8493 20.4675 72.867 20.6447 72.867C20.9104 72.8847 20.9458 72.7076 20.9813 71.5563C20.9813 70.8301 21.0167 69.9268 21.0167 69.5726C21.0344 68.7047 21.4064 68.5098 23.1425 68.4567C26.0832 68.3504 27.4295 67.7659 28.1381 66.3136C28.9885 64.5247 28.6696 61.9387 27.4295 60.752C26.2781 59.6716 25.534 59.5122 21.2647 59.5122H17.4914V66.1542ZM23.6562 62.1867C25.3392 62.5941 25.8352 64.135 24.6837 65.2863C24.0991 65.8708 24.0283 65.8885 22.7528 65.8885C21.8847 65.8885 21.371 65.8176 21.247 65.6582C21.1407 65.5342 21.0167 64.808 20.999 64.0464C20.9458 62.7889 20.9813 62.6472 21.371 62.3284C21.8493 61.9387 22.4693 61.9033 23.6562 62.1867ZM33.4881 59.8133C33.4349 59.9904 33.2755 60.3978 33.1515 60.7343C33.0098 61.0531 32.9035 61.4428 32.9035 61.5845C32.9035 61.7262 32.7972 62.0981 32.6732 62.3992C32.5315 62.718 32.2303 63.5505 32 64.259C31.7697 64.9852 31.5217 65.6051 31.4509 65.6582C31.3623 65.6936 31.3091 65.9416 31.3091 66.2073C31.3091 66.473 31.1851 66.9158 31.0434 67.1992C30.9017 67.4648 30.7777 67.8014 30.7777 67.9431C30.7777 68.067 30.6714 68.439 30.5297 68.7578C30.1754 69.6434 29.8742 70.5113 29.6971 71.2906C29.5908 71.6803 29.4491 72.0699 29.3428 72.1585C29.2542 72.2648 29.1833 72.4596 29.1833 72.619C29.1833 72.8493 29.4668 72.8847 30.8486 72.9024H32.5138L32.6201 72.4065C32.6732 72.1408 32.8326 71.7157 32.9921 71.5032C33.2401 71.1135 33.435 71.0604 35.1356 70.9718C37.35 70.8301 37.9346 71.0249 38.1294 71.946C38.2003 72.2648 38.3243 72.619 38.4129 72.7253C38.5546 72.8847 41.9382 73.0795 41.9382 72.9378C41.9382 72.9024 41.7787 72.4419 41.5662 71.9105C41.3713 71.3792 41.141 70.6884 41.0701 70.405C40.9993 70.1039 40.8398 69.6965 40.7336 69.484C40.6095 69.2715 40.521 68.9172 40.521 68.687C40.521 68.4567 40.4501 68.191 40.3615 68.0848C40.149 67.8545 38.9266 64.2235 38.9266 63.8162C38.9266 63.6391 38.8558 63.4088 38.7495 63.3025C38.6609 63.214 38.3774 62.4878 38.1472 61.6907C37.4563 59.3882 37.6157 59.5122 35.4545 59.5122C33.8424 59.5122 33.5944 59.5476 33.4881 59.8133ZM36.0036 63.9756C36.2516 64.932 36.6945 66.3844 36.9071 67.0043C37.474 68.5807 37.1728 68.9349 35.3482 68.8641L34.055 68.8109L34.1081 67.6597C34.1436 67.022 34.2853 66.2427 34.427 65.9062C34.5687 65.5874 34.675 65.1091 34.675 64.8435C34.675 63.8162 35.7733 63.1077 36.0036 63.9756ZM44.2234 59.6362C44.2234 59.7247 44.2234 62.718 44.2411 66.3313V72.8847H47.6956L47.7487 70.6884C47.7664 69.3423 47.8727 68.4036 47.9967 68.2442C48.1562 68.0493 48.5105 68.0139 49.6265 68.1202C50.8843 68.2265 51.1146 68.2973 51.522 68.7224C51.9295 69.1652 52.0003 69.4132 52.0889 70.9187C52.142 71.8397 52.2306 72.6899 52.3015 72.7961C52.3546 72.9024 53.1164 72.9733 54.1084 72.9733C55.6496 72.9733 55.7736 72.9378 55.6673 72.6544C55.5965 72.495 55.4902 71.5209 55.4548 70.4936C55.3662 68.4567 55.0827 67.7128 54.2501 67.3409C53.6124 67.0575 53.6478 66.349 54.321 65.9593C55.0827 65.5165 55.4016 64.6664 55.4016 63.1431C55.4016 61.124 54.9056 60.5218 52.6735 59.7956C51.9826 59.5653 50.9728 59.5122 48.0144 59.5122C45.9418 59.5122 44.2411 59.5653 44.2234 59.6362ZM51.646 62.5763C52.0535 62.9483 52.2838 63.887 52.1066 64.5601C51.9472 65.2331 50.7426 65.7114 49.2899 65.7114C47.9081 65.7114 47.7841 65.5519 47.7841 63.7808C47.7841 62.2398 47.9081 62.1513 49.8391 62.2044C50.9374 62.2398 51.3803 62.3284 51.646 62.5763ZM57.9703 59.7247C57.9171 59.8487 57.8994 62.8597 57.9349 66.4198L57.9703 72.8847L59.7064 72.9378L61.4247 72.991V71.1135C61.4247 69.1475 61.5842 68.5807 62.2928 67.9431C62.7711 67.5003 63.462 67.6774 63.71 68.315C63.8163 68.5984 64.1706 69.2892 64.5249 69.8737C64.8615 70.4582 65.2335 71.0958 65.322 71.2906C66.2255 73.0087 66.1546 72.9733 68.4399 72.9733C69.5559 72.9733 70.4594 72.9201 70.4594 72.8316C70.4594 72.7607 70.176 72.2825 69.8394 71.7511C69.5028 71.2375 69.2194 70.7947 69.2194 70.7415C69.2194 70.7061 68.8651 70.0862 68.4222 69.3777C67.9793 68.6515 67.625 68.0139 67.625 67.9608C67.625 67.9076 67.2884 67.3586 66.8633 66.7386C65.6586 64.932 65.5523 64.7018 65.8712 64.2058C65.9952 63.9756 66.6861 63.1785 67.3593 62.4346C69.5382 60.0258 69.7508 59.7779 69.7508 59.6362C69.7508 59.5653 68.8828 59.5122 67.8376 59.5122H65.9066L65.1272 60.4332C64.702 60.9291 64.0466 61.7085 63.6745 62.1335C63.3025 62.5763 62.8774 63.1254 62.7179 63.3557C62.5231 63.6568 62.3105 63.763 61.9739 63.7276L61.5133 63.6745L61.4602 61.5845L61.407 59.5122H59.7241C58.5372 59.5122 58.0234 59.583 57.9703 59.7247ZM78.5198 59.6893C78.4489 59.8133 78.3958 62.8243 78.3958 66.4021V72.8847L80.185 72.9378L81.9565 72.991L82.0096 70.901L82.0628 68.8109L84.0114 68.7224C87.9619 68.5276 89.4145 67.2877 89.4145 64.1173C89.4145 61.7262 88.5819 60.504 86.5447 59.9195C85.2692 59.5653 78.7146 59.3705 78.5198 59.6893ZM85.3046 62.6295C85.5349 62.7889 85.8361 63.1785 85.9778 63.5328C86.2967 64.2944 86.0664 65.2331 85.4286 65.6405C84.8795 65.9947 82.8599 66.1719 82.3462 65.9062C81.9919 65.7114 81.9565 65.5874 82.0096 64.0641C82.0628 62.5055 82.0805 62.4524 82.5056 62.3107C83.1434 62.1335 84.8263 62.3107 85.3046 62.6295ZM92.3729 59.6184C92.2135 59.7956 92.2135 72.9733 92.3906 72.9733C92.4615 72.9733 94.5873 72.991 97.1029 72.991L101.709 73.0087L101.744 71.8397C101.762 71.2021 101.726 70.6707 101.673 70.653C101.602 70.653 100.362 70.6176 98.9275 70.5821C97.2091 70.5644 96.2348 70.4759 96.0931 70.3342C95.9514 70.1925 95.8628 68.563 95.7919 64.8612L95.7034 59.6007L94.109 59.5476C93.2233 59.5299 92.4438 59.5476 92.3729 59.6184ZM104.153 59.6716C103.959 59.7956 103.923 60.7697 103.976 64.8435L104.029 69.8737L104.579 70.9364C105.517 72.7961 107.023 73.5046 110.017 73.5046C111.895 73.4869 112.072 73.4515 113.135 72.9201C114.588 72.1939 115.296 71.2375 115.597 69.608C115.81 68.439 115.969 59.9727 115.775 59.7778C115.633 59.6184 112.728 59.6007 112.48 59.7601C112.32 59.8487 112.267 61.0708 112.267 64.1704C112.267 66.5438 112.178 68.7401 112.09 69.1121C111.806 70.1216 111.027 70.6707 109.893 70.6707C108.901 70.6707 108.228 70.3165 107.785 69.5548C107.643 69.2892 107.537 67.7305 107.484 64.383L107.395 59.6007L105.89 59.5653C105.057 59.5299 104.277 59.583 104.153 59.6716Z" fill="white"/>
</svg>
