<svg width="180" height="62" fill="none" xmlns="http://www.w3.org/2000/svg"><path opacity=".6" fill-rule="evenodd" clip-rule="evenodd" d="M51.5 0h4.618c2.811 0 5.622.602 5.622 3.913 0 2.307-1.607 3.411-2.91 3.813 1.706.401 3.713 1.305 3.713 4.315 0 4.214-3.815 4.514-6.425 4.514H51.5V0zm3.112 6.822h.703c1.707 0 3.313-.3 3.313-2.508 0-2.207-1.306-2.609-3.313-2.609h-.703v5.117zm0 7.727h.703c2.108 0 4.116-.2 4.116-2.91 0-2.207-1.405-3.01-4.116-3.01h-.703v5.92zm12.55-9.432h2.91v2.91h.1c.804-1.506 1.707-3.01 3.816-3.21v3.009c-2.912 0-3.916 1.103-3.916 3.611v5.118h-2.91V5.117zm10.64 0h2.911v11.438h-2.91V5.117zm0-5.117h2.911v2.609h-2.91V0zm7.23 10.837c0-4.316 2.107-6.02 5.32-6.02 3.312 0 5.32 1.704 5.32 6.02 0 4.414-2.008 6.02-5.32 6.02-3.213-.001-5.32-1.606-5.32-6.02zm5.32 4.916c2.007 0 2.107-2.408 2.107-4.916 0-2.51-.1-4.816-2.108-4.816-1.908 0-2.108 2.308-2.108 4.816s.201 4.916 2.108 4.916zM53.808 25.986h-4.015V24.08h11.144v1.906H56.92v14.65h-3.11v-14.65zm17.066 14.15c-1.305.5-2.007.802-3.714.802-3.011 0-5.823-1.707-5.823-6.522 0-3.212 1.405-5.52 5.12-5.52 3.213 0 4.719 1.706 4.719 4.315v.5h-6.928c0 1.908 1.206 5.72 4.418 5.72.803 0 1.506-.2 2.208-.5v1.204zm-2.51-7.626c0-.905-.401-2.41-2.008-2.41s-2.008 1.807-2.108 2.41h4.117zm15.862 7.725c-1.205.402-2.108.703-3.614.703-3.313 0-5.923-1.908-5.923-6.423 0-3.31 1.606-5.618 5.12-5.618 3.414 0 4.517 1.606 4.517 4.214h-3.111c0-2.005-.202-3.01-1.506-3.01-1.305 0-1.908 1.706-1.908 3.411 0 2.911 1.506 5.92 4.116 5.92.903 0 1.607-.2 2.31-.402v1.205zm4.016-16.155h2.91v7.726h.102c.402-.903 1.406-2.91 3.712-2.91 2.21 0 2.913 1.406 2.913 3.914v7.826h-2.913V33.51c0-1.403-.1-2.508-1.203-2.508-2.108 0-2.61 3.31-2.61 5.117v4.516h-2.911V24.08zm15.359 5.118h2.912v2.608h.1c.503-1.004 1.406-2.91 3.714-2.91 2.209 0 2.911 1.406 2.911 3.914v7.826h-2.911V33.51c0-1.403-.1-2.508-1.205-2.508-2.108 0-2.609 3.31-2.609 5.117v4.516h-2.912V29.198zm14.758 5.718c0-4.314 2.009-6.02 5.321-6.02 3.211 0 5.22 1.706 5.22 6.02 0 4.416-2.009 6.022-5.22 6.022-3.312 0-5.321-1.606-5.321-6.022zm5.321 4.917c1.907 0 2.108-2.407 2.108-4.917 0-2.508-.201-4.816-2.108-4.816-2.008 0-2.209 2.308-2.209 4.816 0 2.51.201 4.917 2.209 4.917zm9.537-15.753h2.912v16.556h-2.912V24.08zm7.228 10.836c0-4.314 2.108-6.02 5.322-6.02s5.321 1.706 5.321 6.02c0 4.416-2.107 6.022-5.321 6.022-3.214 0-5.322-1.606-5.322-6.022zm5.321 4.917c2.008 0 2.107-2.407 2.107-4.917 0-2.508-.1-4.816-2.107-4.816-2.008 0-2.108 2.308-2.108 4.816 0 2.51.1 4.917 2.108 4.917zm19.577 1.205c0 2.81-1.206 5.016-5.723 5.016a11.678 11.678 0 01-3.413-.5v-2.709c.601.5 2.108 1.606 3.712 1.606 2.209 0 2.512-1.606 2.512-3.712V39.03h-.102c-.402.703-.903 1.606-2.71 1.606-3.112 0-4.216-2.409-4.216-5.92 0-2.91 1.002-5.82 3.916-5.82 1.805 0 2.509 1.305 3.01 2.209h.102v-1.907h2.911v11.839h.001zm-4.819-2.008c1.706 0 1.706-2.607 1.706-4.012 0-1.806-.102-4.314-1.807-4.314-1.705 0-1.907 2.508-1.907 4.213 0 1.605.201 4.113 2.008 4.113zm13.15 1.807l-4.317-11.64h3.012l2.51 7.827h.102l2.71-7.826H180l-5.723 16.655h-2.41l1.808-5.016zM40.558.2H0v60.101c2.008.703 4.116 1.003 6.324 1.003 9.61 0 17.594-6.847 19.344-15.93.378-1.97.447-3.756.27-5.728-.652-7.188-5.24-13.189-11.481-16.068 1.908-1.004 3.614-1.907 6.024-3.111 0 0 5.019-14.249-10.14-14.249l10.14-6.02c3.011.1 4.92.903 7.028 3.01 2.108 2.108 2.91 4.113 3.011 7.124L20.48 20.466c10.24 3.412 15.36 11.84 14.859 20.168h5.22V.2h-.001z" fill="#fff"/></svg>