<svg width="346" height="40" fill="none" xmlns="http://www.w3.org/2000/svg"><g opacity=".6"><path d="M246.506 1.723l3.315-.132 1.956 10.074-4.111.796c-1.426-5.568-6.133-7.855-10.443-8.12-2.321-.165-5.471 2.224-5.371 4.574.132 3.144 5.669 6.097 9.146 8.251 5.57 3.38 7.792 7.022 7.327 11.5-.53 5.298-6.663 11.267-17.505 11.234-6.929-.033-17.438-3.38-16.245-10.87.895-5.7 5.305-7.721 9.946-7.986 2.553-.133 6.73 1.557 6.067 4.772-.431 2.154-1.823 2.85-3.315 2.982-1.724.133-2.984-1.391-4.476-1.027-1.658.394-2.917 1.856-2.619 3.181.995 4.309 6.229 5.601 10.075 5.634 5.507.03 9.353-3.413 9.39-7.092.033-4.904-6.432-7.49-10.311-10.505-3.415-2.655-5.702-5.833-5.039-9.283C225.32 4.404 229.896.361 237.455.66c2.652.133 5.636.961 7.559 2.287l1.492-1.223zm42.668 31.88l-.398 2.353-13.228-.099c-4.509 1.989-7.824.862-9.349-.961-2.851 1.027-5.835 1.79-8.819 1.76-4.973-.07-8.322-4.076-7.526-7.622 1.326-5.567 6.067-9.014 18.5-10.306l1.094-4.11c.597-2.253-1.459-2.916-2.818-2.95-1.621-.032-3.813 1.227-3.912 2.818-.199 2.386-2.851 3.778-4.808 3.48-1.724-.233-3.083-2.254-2.486-3.911 1.823-5.137 7.596-5.299 12.167-5.299 6.167-.033 10.046 3.646 8.62 9.114l-2.95 11.16c-.796 2.983.331 4.375 1.724 4.507 1.392.133 3.083-.96 3.514-2.88l2.851-13.321c.298-1.359-.265-3.285-3.382-2.523l.63-2.548 8.786-3.512h3.614l-.63 2.816c2.453-1.657 5.139-2.916 7.924-2.816 3.116.132 5.072 1.557 6.033 3.413 2.686-1.922 6.167-3.513 9.217-3.413 5.736.228 7.46 4.871 6.565 8.284l-2.951 12.991c-.398 1.525-.431 3.38 2.453 3.712l-.431 2.084h-13.891l.431-2.32c2.022-.199 2.851-1.458 3.183-2.846l3.481-15.219c.298-1.226.265-3.28-2.122-3.177-3.183.095-4.708 2.084-5.404 4.772l-3.382 12.858c-.394 1.558-.53 3.609 2.851 3.844l-.397 2.084h-13.892l.431-2.32c1.989-.198 2.851-1.458 3.183-2.846l3.481-15.215c.265-1.226.232-3.28-2.122-3.177-2.354.066-3.945 1.487-5.603 3.711l-3.182 14.45c-.299 1.42-.365 3.313 2.95 3.18zM205.226 18.79c-1.857-.066-3.68-.928-3.713-4.142 0-1.322-.862-2.917-2.819-2.817-4.409.228-5.835 5.468-6.862 10.14-.895 4.11-2.454 11.467 3.249 11.6 3.717.066 7.526-3.38 8.656-7.06l3.714 1.426c-1.559 4.834-7.228 9.047-14.223 8.977-5.669-.066-11.571-4.308-9.781-13.886 1.327-7.025 6.996-14.35 15.782-14.449 5.404-.07 10.078 2.652 9.979 6.43-.066 1.826-2.155 3.88-3.982 3.781zM180.198 7.287c1.923 0 3.813-1.657 4.211-3.645.394-1.985-.862-3.642-2.785-3.642s-3.813 1.657-4.21 3.645c-.398 1.989.862 3.642 2.784 3.642zm1.161 26.515l-.299 2.088h-13.791l.331-2.386c2.188-.033 3.415-.994 3.945-3.214l2.918-12.229c.265-1.226-.663-2.717-3.017-2.386l.497-2.386 9.946-4.44 2.089-.13-5.205 21.968c-.299 1.322.062 2.917 2.586 3.115z" fill="#fff"/><path d="M321.035 35.857l-1.658-8.716 3.113-.63c2.287 5.27 5.636 6.794 9.548 7.258 2.321.265 5.636-1.723 5.702-4.043.034-2.585-3.547-2.916-6.431-3.943-3.78-1.326-9.217-2.884-8.62-8.219.563-5.137 5.437-8.915 12.731-8.616 1.989.066 4.144.928 5.802 1.557l.534-.828h3.415l.828 7.158-3.58.828c-.431-3.048-4.045-5.401-7.062-5.5-2.752-.1-5.636 1.027-5.437 3.114.232 2.287 3.912 3.45 6.332 4.01 5.238 1.226 9.283 2.95 8.72 8.418-.535 5.236-7.095 9.548-12.831 9.25-2.718-.133-5.47-.833-7.791-2.453l-.464 1.359h-2.851v-.004zm-192.059 0l-1.658-8.716 3.117-.63c2.254 5.27 5.636 6.794 9.515 7.258 2.321.265 5.669-1.723 5.702-4.043.033-2.585-3.547-2.916-6.432-3.943-3.746-1.326-9.183-2.884-8.619-8.219.563-5.137 5.47-8.915 12.764-8.616 1.989.066 4.111.928 5.768 1.557l.564-.828h3.382l.829 7.158-3.581.828c-.431-3.048-4.045-5.401-7.062-5.5-2.718-.1-5.603 1.027-5.404 3.114.232 2.287 3.879 3.45 6.333 4.01 5.205 1.226 9.249 2.95 8.719 8.418-.531 5.236-7.095 9.548-12.864 9.25-2.718-.133-5.47-.833-7.791-2.453l-.464 1.359h-2.818v-.004z" fill="#fff"/><path d="M127.518 33.504l.53 2.916c-4.741.796-7.89.299-9.448-1.524-2.818 1.027-5.835 1.79-8.819 1.76-4.94-.07-8.322-4.076-7.493-7.622 1.293-5.567 6.034-9.014 18.5-10.306l1.061-4.11c.596-2.253-1.426-2.916-2.818-2.95-1.592-.032-3.78 1.227-3.912 2.818-.199 2.386-2.852 3.778-4.775 3.48-1.757-.233-3.083-2.254-2.519-3.911 1.823-5.137 7.592-5.299 12.2-5.299 6.167-.033 10.013 3.646 8.587 9.114l-2.951 11.168c-.401 1.55-1.027 4.4 1.857 4.466zm37.928-.663l-.431 3.05c-1.621.629-3.448.993-5.239.857-5.569-.394-6.899-4.006-6.199-7.059l4.044-17.166h-3.381l.563-2.916c4.377-.994 7.195-4.507 9.549-8.712h3.282l-1.757 8.483h5.768l-.762 3.145h-5.769l-3.813 16.176c-.596 2.548-.066 5.17 4.145 4.142z" fill="#fff"/><path d="M102.189 32.841l-.465 3.05c-1.624.629-3.448.993-5.205.857-5.603-.394-6.929-4.01-6.2-7.059l4.012-17.166h-3.348l.53-2.916c4.41-.994 7.194-4.507 9.582-8.712h3.249l-1.724 8.483h5.765l-.763 3.145h-5.765l-3.813 16.176c-.596 2.548-.066 5.17 4.145 4.142zm-28.185.527l-.663 2.618-11.206-.096c-1.989.394-3.978.895-6 .858-1.99 0-3.78-.762-4.874-2.286-2.586 1.325-5.835 2.452-8.918 2.286-3.25-.166-7.294-3.012-6.333-7.39 1.658-7.191 9.35-10.472 17.306-10.505l.995-4.474c.696-3.148-2.785-3.679-4.907-1.525-.829.858-1.226 2.155-1.856 3.145-.928 1.524-2.321 2.187-4.111 1.955-2.155-.232-2.95-2.717-2.288-4.212 1.761-4.238 7.526-5.667 11.969-5.332 6.498.464 8.951 4.209 8.155 7.917L58.558 28.83c-.331 1.525-.497 4.404 1.625 4.441 2.486.066 3.05-2.452 3.481-4.242l2.719-11.367c.364-1.59-.398-3.512-3.713-3.181l.464-2.382 9.017-3.583h3.946l-.564 2.386c2.188-1.425 4.807-2.684 7.725-2.386 6.398.63 7.393 4.975 6.398 9.014l-3.05 12.36c-.364 1.525-.63 3.477 2.951 3.61l-.43 2.386H75.3l.53-2.387c2.454-.132 2.72-1.557 3.05-2.949l3.482-14.416c.663-2.717-.534-4.11-2.056-4.142-2.122-.033-3.846 1.193-5.603 2.684L71.29 29.69c-.368 1.495-.696 3.65 2.715 3.679z" fill="#fff"/><path d="M43.208 1.558l2.288 6.727-2.818 2.084c-2.222-4.238-5.769-4.905-9.25-4.905h-4.675L26.4 15.808h5.272c1.591 0 3.05-1.326 3.912-2.618H38.3l-2.287 10.534h-3.017c.066-2.75-1.558-3.343-3.05-3.343h-4.575l-1.956 8.65c-.398 1.789-.664 4.308 3.248 4.34l-.43 2.718H9.159l.664-2.717c2.453.07 3.978-2.154 4.442-4.11l5.57-23.695h-4.708c-4.608 0-9.548 1.06-10.443 6.33-.266 1.76.795 3.977 2.42 4.772 1.459.73 2.652-.795 2.288-1.856-.63-1.657 1.69-4.043 3.68-3.91a3.468 3.468 0 013.164 2.938 3.457 3.457 0 01-.114 1.536c-.73 2.783-4.148 5.07-6.963 5.103-4.177.067-9.349-2.485-9.154-8.587.27-7.585 8.723-10.335 14.691-10.335h28.512z" fill="#fff"/><path d="M267.389 22.332l-1.856 7.788c-.464 1.922-3.415 2.585-5.338 2.486-2.122-.067-3.614-2.585-2.917-4.21 2.026-4.867 6.667-5.96 10.111-6.064zm-147.596 0l-1.856 7.788c-.431 1.922-3.415 2.585-5.305 2.486-2.122-.067-3.647-2.585-2.951-4.21 2.056-4.867 6.664-5.96 10.112-6.064zm-67.335-.228l-1.956 8.881c-1.392 1.094-3.116 1.856-4.807 1.62-2.089-.26-3.382-2.982-2.254-4.97 1.687-3.112 5.205-5.1 9.017-5.53z" fill="#333646"/></g></svg>