<svg width="224" height="50" fill="none" xmlns="http://www.w3.org/2000/svg"><path opacity=".6" d="M87.78 9.827h-1.468c-6.982-.275-9.664 3.583-9.688 11.85-.04 9.874 5.534 18.164 12.33 18.207h4.11l1.762-8.092h-2.642a8.175 8.175 0 01-4.11-.578c3.674-2.731 7.706-6.83 7.632-13.295.074-1.537.397-8.218-7.926-8.092zm-3.817 15.606a15.703 15.703 0 01-.587-3.468c.093-2.851 1.258-4.316 3.523-4.335.675.02 1.948.02 2.055 1.445-.107 2.625-3.577 5.453-4.99 6.358zm96.587-15.028h-10.275V50h6.753v-9.538c8.367-2.374 12.403-10.472 12.33-18.786.068-5.78-2.016-11.29-8.808-11.271zm-3.522 21.387V18.208h2.055c1.115.13 3.376.13 3.522 4.046-.112 4.519-2.304 9.056-5.577 9.538zM7.927 16.474c-.04-7.505 4.066-7.505 5.578-7.514h5.871L17.615 0h-5.872C3.073-.005.137 7.558 0 15.607c.137 12.828 6.933 24.239 16.734 24.277h1.174l1.762-8.96c-7.433.53-11.783-6.396-11.743-14.45zm20.256-4.046v-1.734h-6.458v29.48h6.752V21.675c.944-2.273 2.642-3.102 4.404-3.179v-8.381c-1.796-.024-3.357.558-4.698 2.312zm7.927-2.023h7.046v29.48H36.11v-29.48zM36.11 0h7.046v7.803H36.11V0zm31.12 10.405H46.971v29.48h6.46V18.207h4.11v21.676h6.752V18.208h.88c2.95.227 2.985 1.055 2.936 4.913v16.763h6.752V21.676c-.014-7.78-1.854-11.29-7.633-11.271zm39.339 10.404c-.152-.52-.504-1.06-.587-1.734.083-.79.577-.982 2.055-.867h2.935l-1.761-7.803h-5.578c-4.575-.02-5.71 4.71-5.578 6.647-.132 2.746.822 4.745 2.055 6.647l2.642 5.203c.406.554 1.082 1.575 1.175 2.312-.093 1.214-1.933.68-2.349.578h-3.817l1.762 8.092h6.752c3.367-.038 5.412-3.502 5.285-7.225.127-2.616-.793-4.812-2.055-6.647l-2.936-5.203zm14.385 8.382V18.208h3.523v-7.803h-3.523v-8.67l-6.752 2.89v5.78h-1.468v7.803h1.468v12.717c-.02 7.018 2.706 8.92 6.459 8.96h2.935l1.762-8.093h-2.642c-1.419.005-1.737-1.118-1.762-2.601zm17.028-19.364h-3.23c-8.685-.126-8.616 9.484-8.513 10.982-.103 9.33 3.723 19.913 9.981 19.942 6.547-.029 10.368-10.611 10.275-19.942.093-1.498.167-11.108-8.513-10.982zm-1.762 21.965c-1.096.101-3.146-3.945-3.229-10.116.083-2.851 1.287-4.022 3.229-4.046 2.231.02 3.435 1.195 3.523 4.046-.088 6.17-2.143 10.222-3.523 10.116zm23.486-21.387h-10.275V50h6.752v-9.538c8.343-2.374 12.375-10.472 12.331-18.786.044-5.78-2.046-11.29-8.808-11.271zm-3.523 21.387V18.208h2.056c1.086.13 3.351.13 3.522 4.046-.137 4.519-2.333 9.056-5.578 9.538zm62.826-19.653v-1.734h-6.459v29.48h6.753V21.386c1.057-2.322 2.759-3.15 4.697-3.179v-8.38c-1.977-.077-3.533.51-4.991 2.312zm-17.027-2.312h-1.468c-6.963-.275-9.644 3.583-9.688 11.85-.025 9.874 5.553 18.164 12.33 18.207h4.11l1.762-8.092h-2.643a8.23 8.23 0 01-4.11-.578c3.694-2.731 7.726-6.83 7.633-13.295.093-1.537.411-8.218-7.926-8.092zm-3.817 15.606a17.662 17.662 0 01-.587-3.468c.108-2.851 1.277-4.316 3.523-4.335.695.02 1.967.02 2.055 1.445-.093 2.625-3.557 5.453-4.991 6.358z" fill="#fff"/></svg>