<svg width="172" height="57" fill="none" xmlns="http://www.w3.org/2000/svg"><g filter="url(#filter0_d)" fill-rule="evenodd" clip-rule="evenodd" fill="#fff"><path d="M50.84 50.732h20.104l12.912-33.195-11.348 10.766H59.864L50.84 50.732z"/><path d="M60.668 26.427h11.348l16.352-15.592-8.847 23.232 7.909-7.505h24.17s7.46-13.36.625-20.373c0 0-1.116-2.189-14.788-2.189H69.514l-8.846 22.427z"/><path d="M79.521 37.016l8.534-8.578h22.74s-2.145 5.762-6.7 7.953c-4.514 2.188-22.876 1.741-24.574.625zM18.895 14.9l42.086.312 2.055-5.137-42.264.313-1.877 4.512zm2.323-6.255l41.907.67L65.315 4H23.273l-2.056 4.646zm-6.835 17.78h39.584l2.01-4.824-39.897.403-1.697 4.422zm2.234-5.941l22.07.626 2.01-5.272-22.249.312-1.831 4.334zM9.111 39.83l42.31-.313-1.922 5.139-42.042-.314 1.654-4.512zM6.61 46.04l42.399-.669-1.967 5.36H5l1.609-4.69zm6.925-17.737h39.583l-1.742 4.825-39.539-.4 1.698-4.425zM11.166 34.2l22.562-.623-2.1 5.315-22.026-.313 1.564-4.379zM120.58 14.9l42.042.313 2.099-5.137-42.309.313-1.832 4.512zm2.324-6.254l41.907.67L167 4h-42.086l-2.011 4.646zm-6.835 17.78h39.538l2.057-4.824-39.898.403-1.697 4.422zm2.234-5.941l22.026.626 2.054-5.272-22.293.312-1.787 4.334zm-7.55 19.345l42.309-.313-1.922 5.139-41.996-.314 1.609-4.512zm-2.504 6.21l42.444-.669-2.009 5.36h-42.042l1.607-4.69zm6.97-17.737h39.541l-1.698 4.825-39.585-.4 1.742-4.425zm-2.367 5.897l22.562-.623-2.1 5.315-22.025-.313 1.563-4.379z"/></g><defs><filter id="filter0_d" x="0" y="0" width="172" height="56.732" filterUnits="userSpaceOnUse" color-interpolation-filters="sRGB"><feFlood flood-opacity="0" result="BackgroundImageFix"/><feColorMatrix in="SourceAlpha" values="0 0 0 0 0 0 0 0 0 0 0 0 0 0 0 0 0 0 127 0"/><feOffset dy="1"/><feGaussianBlur stdDeviation="2.5"/><feColorMatrix values="0 0 0 0 0 0 0 0 0 0 0 0 0 0 0 0 0 0 0.05 0"/><feBlend in2="BackgroundImageFix" result="effect1_dropShadow"/><feBlend in="SourceGraphic" in2="effect1_dropShadow" result="shape"/></filter></defs></svg>