<svg width="184" height="41" fill="none" xmlns="http://www.w3.org/2000/svg"><g opacity=".6" fill="#fff"><path d="M90.957 29.775a11.974 11.974 0 008.257-3.502 11.959 11.959 0 003.504-8.251c-.087-6.49-5.332-11.732-11.761-11.754-6.495.022-11.788 5.311-11.762 11.754-.021 6.469 5.271 11.662 11.762 11.753zm0-16.981c2.73-.096 5.118 2.29 5.227 5.223-.11 2.917-2.448 5.35-5.227 5.224-2.888.122-5.228-2.307-5.228-5.224 0-2.93 2.34-5.319 5.228-5.223z"/><path d="M171.716 15.671h-5.488v5.224h5.488c3.977-.07 7.209 3.169 7.318 7.052-.104 4.092-3.341 7.33-7.318 7.313H12.286a7.22 7.22 0 01-6.788-4.499 7.209 7.209 0 01-.53-2.814c-.026-3.887 3.21-7.122 7.319-7.052h5.227V15.67h-5.227C5.394 15.784-.102 21.278.002 27.947a12.02 12.02 0 007.543 11.41c1.506.605 3.118.9 4.74.866h159.43c6.765.091 12.258-5.398 12.284-12.276-.026-6.669-5.519-12.163-12.284-12.276z"/><path d="M34.502 29.775c1.991-.091 3.49-.461 5.746-1.567l-2.87-5.746c-1.164.718-1.726.905-2.876.784-2.831.121-5.131-2.216-5.227-5.224.096-3.026 2.396-5.324 5.227-5.224 1.055-.096 1.616.044 2.875.522l2.875-5.484c-2.025-1.128-3.615-1.55-5.75-1.572a11.835 11.835 0 00-8.296 3.463 11.819 11.819 0 00-3.465 8.29c.079 6.334 5.415 11.667 11.761 11.758zm39.204-12.537c.07-2.76 1.377-4.444 3.66-4.444.2-.005.483.043.784 0v-6.53c-.536.07-.82.022-1.307 0a10.232 10.232 0 00-6.534 2.35c-2.34 2.26-3.089 4.267-3.137 8.62v12.014h6.534v-12.01zm37.898-.522c-.035-2.473 1.276-4.018 3.397-3.918 2.187-.096 3.503 1.45 3.398 3.918v12.537h6.534V17.5c.122-2.878-.296-4.52-1.307-6.265a10.098 10.098 0 00-8.625-4.967c-6.007.022-9.984 4.467-9.931 11.232v11.753h6.534V16.716zm48.351 13.06c.762-.092 1.181-.136 2.087-.262v-6.53c-.392.34-.671.383-1.307.262-2.082.121-2.879-1.045-2.875-3.918v-6.269h4.182V6.791h-4.182V0h-6.534v19.323c-.026 3.997.632 6.195 2.352 7.836 1.42 1.685 3.62 2.525 6.277 2.616zm-106.896 0c6.482-.092 11.73-5.333 11.761-11.754a11.793 11.793 0 00-3.457-8.298 11.809 11.809 0 00-8.304-3.456 11.87 11.87 0 00-8.286 3.473 11.854 11.854 0 00-3.475 8.28c.03 6.47 5.323 11.663 11.761 11.754zm0-16.982c2.788-.096 5.175 2.29 5.227 5.223-.056 2.917-2.396 5.35-5.227 5.224-2.831.122-5.175-2.307-5.227-5.224.056-2.93 2.396-5.319 5.227-5.223zm86.771 16.981c2.858-.091 5.11-.557 8.364-2.09l-1.83-6.529c-2.456 1.467-4.891 2.216-7.056 2.09-.314.121-.549.078-1.046 0l11.239-10.71c-1.473-2.267-2.222-3.112-3.659-4.178a12.481 12.481 0 00-6.796-2.09 11.566 11.566 0 00-10.687 7.284 11.548 11.548 0 00-.817 4.47c-.069 6.56 5.362 11.662 12.288 11.753zm-5.749-11.753c-.053-2.934 2.243-5.324 4.97-5.224.88-.096 1.35.044 2.352.522l-7.061 6.791c-.218-1.097-.314-1.519-.261-2.09z"/></g></svg>