<svg width="259" height="33" fill="none" xmlns="http://www.w3.org/2000/svg"><path d="M0 31.637v-1.183c3.273-.136 4.091-.501 4.091-3.636V6.001c0-3.182-.818-3.544-4.091-3.681V1.182h13.41c7.363 0 12 2.59 12 7.5 0 3.864-3.045 6.363-6.728 7v.091c3.91.774 8.363 2.772 8.363 7.455 0 4.91-3.864 8.41-11.909 8.41H0zm10.182-3.727c0 1.226.636 1.954 3.181 1.954 4.774 0 7.365-3.273 7.41-6.637.046-4.27-3.635-6.318-10.591-6.182V27.91zm0-12.682c6.546 0 9.137-2.046 9.137-6.455 0-3.319-2.227-5.818-6.682-5.818-1.592 0-2.455.59-2.455 2.09v10.183zm19 16.41v-1.184c3.273-.136 4.137-.501 4.137-3.636V6.001c0-3.182-.864-3.544-4.137-3.681V1.182h13.455c7.318 0 12 2.59 12 7.5 0 3.864-3.046 6.363-6.773 7v.091c3.956.774 8.364 2.772 8.364 7.455 0 4.91-3.819 8.41-11.91 8.41H29.183zM39.41 27.91c0 1.226.636 1.954 3.181 1.954 4.728 0 7.319-3.273 7.364-6.637.046-4.27-3.591-6.318-10.545-6.182V27.91zm0-12.682c6.544 0 9.137-2.046 9.137-6.455 0-3.319-2.229-5.818-6.728-5.818-1.546 0-2.41.59-2.41 2.09v10.183zm87.045 16.137V.637l11.454.091c10.045 0 16.637 6.455 16.637 15.5 0 9.047-7.227 15.546-16.637 15.546l-11.454-.41zm11.454-4.228c6.411 0 10.636-4.772 10.636-10.909 0-6.544-4.225-10.864-10.636-10.864l-5.59-.091v21.774l5.59.09zm26.636-21.591h-8.68l.045-4.91h23l-.045 4.91h-8.592l-.227 26.091h-5.728l.227-26.091zm18.318-4.91h16.594v4.91h-10.866l-.09 8h10.771v4.637h-10.817l-.045 8.544h11.047v4.91h-16.911l.317-31zm-77.726 0h16.591v4.91h-10.864l-.092 8h10.773v4.637h-10.818l-.045 8.544h11.046v4.91h-16.909l.318-31zm124.909 28.64c-2.863 1.996-6.363 2.998-9.863 2.998-9.229 0-16.093-6.773-16.093-16.047C204.09 6.682 210.727 0 219.956 0c3.681 0 7.317 1.228 10.134 3.591l-2.497 4c-1.912-1.636-5.001-2.636-7.456-2.636-6.045 0-10.045 4.819-10.045 10.998 0 5.91 4.09 11.364 9.864 11.364 3.955 0 5.909-.907 7.818-1.997l2.272 3.955zm3.726-28.64h5.774l-.09 12.638h13.634l.093-12.637H259l-.274 31h-5.817l.181-13.454h-13.634l-.184 13.454h-5.771l.271-31zM60.092 30.592L66.227.183h7.046l6.454 24.409L88.41.182h7.09l3.182 30.365-5.591 1.045L91.455 9.41l-8.228 22.182h-7.726L69.818 9.637 66 31.592l-5.908-1z" opacity=".6" fill-rule="evenodd" clip-rule="evenodd" fill="#fff"/></svg>