<svg width="209" height="61" fill="none" xmlns="http://www.w3.org/2000/svg"><g opacity=".6" fill-rule="evenodd" clip-rule="evenodd" fill="#fff"><path d="M74.888 27.963c5.277 0 7.035-3.518 7.035-8.355 0-9.343-6.925-8.573-7.474-8.573h-2.53v16.928h2.969zm.33-2.968V14.112c2.749 0 3.409 3.409 3.409 5.496 0 2.088-.77 5.497-3.408 5.387zm16.6-13.96v16.928h6.815v-3.077h-3.408v-3.849h2.968V17.85h-2.968v-3.627h3.408v-3.187h-6.815zm23.853.659c-.879-.55-1.868-.88-2.859-.88-2.967 0-4.505 2.309-4.505 4.946 0 2.53 1.209 3.738 3.188 5.057.879.66 1.978 1.1 1.978 2.419 0 1.099-.879 1.869-1.978 1.869-.991 0-1.758-.33-2.529-.88v3.189c.77.55 1.978.768 2.859.768 3.188 0 4.837-2.198 4.837-5.166 0-4.617-5.057-4.727-5.057-7.585 0-.99.661-1.65 1.65-1.65.988 0 1.758.55 2.417 1.1v-3.187h-.001zm11.103 16.27h3.299v-16.93h-3.299v16.93zm19.237-9.345v3.077h2.088c0 1.21-.218 3.409-1.977 3.409-2.42 0-2.529-3.848-2.529-5.607 0-1.538.217-5.716 2.529-5.606 1.208 0 1.538 1.32 1.647 2.199l3.299-1.32c-.77-2.308-2.42-3.957-5.057-3.957-4.725 0-5.936 4.946-5.936 8.794 0 3.738 1.429 8.574 5.936 8.574 4.617 0 5.496-4.726 5.496-8.244v-1.32h-5.496zm15.39-7.584v16.928h3.297v-8.465l-.218-1.649.109-.11 4.068 10.224h3.188V11.035h-3.297v7.694c0 .77 0 1.65.218 2.53l-4.175-10.223h-3.19v-.001zm20.888 0v16.928h6.813v-3.077h-3.517v-3.849h3.079V17.85h-3.079v-3.627h3.408v-3.187h-6.704zm20.225 16.928v-7.805h.109l2.859 7.805H209l-2.858-7.696c1.648-.879 2.308-2.527 2.308-4.397 0-4.507-3.738-4.836-5.936-4.836h-3.297v16.928h3.297v.001zm0-14.07h.441c1.758-.111 2.308.878 2.308 2.088 0 1.318-.662 2.419-2.09 2.419l-.659-.11v-4.398zM72.14 38.515v1.32h1.869v10.442h1.54V39.836h1.757v-1.32H72.14zm13.961 0v11.762h4.288v-1.32H87.64v-4.066h2.417v-1.319H87.64v-3.737h2.748v-1.32H86.1zm17.919.22c-.441-.33-.77-.33-1.32-.33-3.188 0-3.517 3.847-3.517 6.156 0 2.53.44 5.936 3.628 5.936.44 0 .879-.111 1.21-.33V48.74c-.22.218-.55.218-.879.218-2.199 0-2.31-2.967-2.31-4.505 0-1.43 0-4.617 2.199-4.617.329 0 .659.11.99.33v-1.43h-.001zm9.124-.22v11.762h1.648v-5.825h2.308v5.825h1.54V38.516h-1.54v4.617h-2.308v-4.617h-1.648zm16.598 2.75l2.749 9.012h1.429V38.516h-1.539v4.178l.439 4.726h-.109l-2.749-8.904h-1.429v11.762h1.54v-4.287l-.221-3.958-.11-.767zm16.819-2.86c-3.079 0-3.079 3.847-3.079 6.047 0 2.087 0 6.045 3.079 6.045 3.078 0 3.078-3.957 3.078-6.045 0-2.2 0-6.046-3.078-6.046zm0 1.43c1.208 0 1.428 2.087 1.428 4.617 0 2.417-.22 4.505-1.428 4.505-1.209 0-1.429-2.088-1.429-4.505 0-2.528.22-4.617 1.429-4.617zm12.532-1.32v11.762h4.288v-1.32h-2.638V38.516h-1.65zm15.939-.11c-3.077 0-3.077 3.847-3.077 6.047 0 2.087 0 6.045 3.077 6.045 2.969 0 3.079-3.957 3.079-6.045 0-2.2-.11-6.046-3.079-6.046zm0 1.43c1.211 0 1.429 2.087 1.429 4.617 0 2.417-.218 4.505-1.429 4.505-1.209 0-1.429-2.088-1.429-4.505-.001-2.528.22-4.617 1.429-4.617zm15.39 4.287v1.318h1.209v.66c0 2.748-.659 2.858-1.318 2.858-.662 0-1.321-.439-1.321-4.505 0-2.859.11-4.617 1.321-4.617.988 0 1.208.768 1.318 1.538l1.54-.659c-.441-1.54-1.211-2.308-2.858-2.308-2.75 0-2.97 2.747-2.97 6.046 0 3.296.33 6.045 3.079 6.045 3.188 0 2.859-3.957 2.859-6.265v-.11h-2.859zm11.322-5.607l2.419 6.705v5.057h1.539V45.22l2.199-6.705h-1.65l-1.099 3.958-.219 1.539-1.429-5.497h-1.76zM14.318 48.958c-.44-.33-3.629-4.835-4.288-8.575 25.283 23.636 55.074 3.079 46.39-14.62-.11-.329-.33-.658-.66-1.099 0-.659-.22-2.637-.33-3.297l.77.768c11.871 14.071 1.758 30.01-13.411 34.188-12.972 2.968-21.986-1.648-28.471-7.365z"/><path d="M12.888 22.357C10.36 25.215 9.7 28.733 9.7 28.733c2.199 11.213 11.983 13.63 11.983 13.63-10.443-7.914-8.795-20.006-8.795-20.006zM10.69 10.375c-5.606 3.408-7.585 9.123-6.706 12.86-1.538 2.86-1.869 3.629-3.077 7.806-3.627-12.972 5.716-20.006 9.783-20.666zm40.674 31.988c-1.978 1.76-3.188 2.749-5.716 4.507 16.928-32.758-17.15-52.985-30.23-34.846-.44.22-4.068 1.978-5.057 2.748 9.124-25.065 42.652-15.281 45.84 7.365.66 6.376.33 12.092-4.837 20.226z"/><path d="M37.293 10.045c1.649.66 2.968 1.869 4.287 3.188C17.616 7.847 7.282 22.027 7.173 33.57c-.11 13.3 11.652 27.59 27.81 23.525.11 0 .88-.22 1.32-.441 1.758-.22 3.188-.33 4.397-.55-.22.112-.44.33-.44.33C19.375 68.743-.853 51.266.028 32.47 2.006 16.53 17.835 3.889 37.293 10.045z"/><path d="M14.318 48.958c-.44-.33-3.629-4.835-4.288-8.575 11.103 10.333 23.085 12.203 32.21 9.565.66 2.307 1.319 3.846.549 6.375-12.972 2.968-21.986-1.648-28.471-7.365z"/></g></svg>