<svg width="150" height="74" fill="none" xmlns="http://www.w3.org/2000/svg"><path opacity=".6" d="M.06.142C.007.23-.011 12.823.007 28.144l.035 27.843 6.909.071c19.044.23 29.39.266 84.022.39l59.027.106V0H75.083C33.86 0 .113.07.06.142zm140.02 1.63c.212.212.637.779.992 1.292.336.514.868 1.258 1.187 1.647.301.408.921 1.276 1.364 1.931.442.638 1.293 1.86 1.913 2.692.62.85 1.098 1.665 1.063 1.842-.036.248-13.127 10.238-15.908 12.133-.337.23-.975.708-1.418 1.045-.442.337-1.311.974-1.948 1.435-1.772 1.275-3.171 2.426-3.083 2.568.036.07 1.01.832 2.144 1.683 1.151.867 2.179 1.664 2.267 1.77.16.178 3.579 2.835 5.333 4.145 1.027.762 4.641 3.543 5.385 4.127.372.319 1.417 1.116 2.303 1.807a717.19 717.19 0 014.216 3.276c.408.355.213 1.046-.584 2.02-.443.549-.798 1.027-.798 1.08 0 .053-.372.62-.832 1.24a91.116 91.116 0 00-1.648 2.302c-1.576 2.303-2.498 3.454-2.763 3.454-.231 0-5.775-4.073-6.431-4.747a7.343 7.343 0 00-.708-.53c-.532-.337-3.242-2.357-3.384-2.516-.089-.106-2.657-2.037-3.295-2.48-.868-.602-3.366-2.55-3.543-2.763-.106-.141-.248-.248-.319-.248-.177 0-3.508-2.532-3.809-2.887-.407-.513-.584-.336-.531.532.018.478.035 3.542.018 6.819-.036 5.154-.071 6.004-.319 6.234-.231.248-1.063.284-6.378.284h-6.094l-.195-.496c-.141-.337-.177-7.58-.106-24.655.089-23.132.106-24.177.425-24.407.248-.177 1.524-.213 6.289-.177 3.827.035 6.041.124 6.147.23.124.124.213 2.71.231 7.403.035 5.35.106 7.21.265 7.21.107 0 .231-.054.266-.143.035-.07 1.364-1.115 2.976-2.32 1.612-1.204 3.012-2.302 3.118-2.426.106-.142.266-.248.337-.248.088 0 .797-.496 1.576-1.098.797-.62 1.524-1.17 1.612-1.24.603-.443 2.658-2.037 3.632-2.799a540.19 540.19 0 016.714-5.1c.23-.16.673-.514.974-.78.656-.585.886-.602 1.347-.142zM46.509 3.17c.69.018 1.01.107 1.293.39l.372.372-.071 23.964c-.053 21.91-.07 24.018-.337 24.283-.354.355-.673.213-2.108-.938-.531-.425-4.358-3.295-8.503-6.377-4.145-3.064-7.617-5.703-7.724-5.827-.106-.142-.283-.248-.372-.248-.088 0-.69-.39-1.31-.885-.62-.479-1.418-1.08-1.754-1.329-.337-.248-1.223-.885-1.949-1.434a371.095 371.095 0 01-3.685-2.728c-1.293-.974-2.374-1.771-2.427-1.771-.035 0-.07 4.764-.088 10.574 0 9.086-.053 10.627-.266 10.981l-.266.407H4.028l-.089-.407c-.053-.212-.07-11.265-.053-24.566L3.94 3.454l.514-.053c.284-.036.567.017.638.141.07.107.372.32.673.496.301.16.85.55 1.222.868 1.329 1.098 2.71 2.179 2.8 2.179.159 0 3.684 2.657 3.914 2.94.107.142.266.248.337.248.088 0 .319.16.514.337.212.194.974.761 1.718 1.292 1.293.904 7.086 5.226 7.582 5.65.124.125.638.479 1.134.815.496.337 1.151.815 1.47 1.08.301.266 1.134.869 1.825 1.347.69.478 1.594 1.169 2.02 1.54.407.39.814.692.885.692.071 0 .673.407 1.311.885.655.496 1.258.868 1.364.833.142-.053.213-3.348.248-10.68.036-5.828.106-10.646.142-10.699.23-.212 4.588-.283 12.259-.195zm34.26.443c.373.16.922.284 1.24.284.32 0 1.134.248 1.825.531.673.301 1.329.531 1.453.531.124 0 .23.071.23.142 0 .089.32.283.709.46C88.21 6.43 90.76 8.379 93.329 11c2.693 2.728 3.136 3.4 2.516 3.844-.567.407-2.25 1.47-2.622 1.647-.195.106-.513.266-.708.39-1.47.903-1.825 1.115-2.126 1.328-.195.106-.514.283-.727.372-.39.177-1.948 1.133-3.117 1.913-.992.673-1.418.602-2.339-.425-.584-.656-1.24-1.099-2.444-1.7-2.534-1.24-3.065-1.364-5.81-1.364-2.127 0-2.534.053-3.508.425-1.134.442-2.71 1.186-2.87 1.346a24.69 24.69 0 01-.85.69c-1.453 1.134-2.888 3.437-3.615 5.774-.425 1.4-.442 4.198-.017 5.473.78 2.41 1.382 3.543 2.799 5.208.513.602 2.196 1.86 3.011 2.232.39.194.904.442 1.152.549 1.08.549 4.127.867 5.545.602.46-.089 1.169-.23 1.594-.301.407-.089.903-.23 1.098-.337 1.878-.974 1.984-1.045 3.703-2.798l1.24-1.24-4.447-.089c-2.444-.053-4.517-.16-4.606-.23-.07-.089-.141-2.887-.141-6.235 0-4.764.053-6.146.23-6.323.177-.177 2.516-.23 11.656-.23H99.37l.32.39c.176.23.424.974.531 1.682.319 1.842.283 6.288-.053 8.112-.16.833-.32 1.736-.355 2.037-.23 1.523-2.09 5.81-3.383 7.74-1.701 2.55-2.038 2.958-3.65 4.535-2.072 2.019-4.18 3.524-6.554 4.64-.443.195-1.01.478-1.276.62-.248.142-.62.266-.797.266-.177 0-.407.07-.496.16-.283.247-1.966.725-3.596 1.009-2.834.513-7.263.266-10.045-.532-1.594-.478-2.515-.779-2.852-.974-.195-.088-.78-.372-1.31-.62-1.754-.814-3.933-2.125-4.606-2.763-.16-.141-.744-.673-1.311-1.151-1.276-1.08-3.065-3.153-4.093-4.694-1.417-2.16-2.71-5.065-3.33-7.527-.142-.585-.372-1.47-.496-1.949-.372-1.523-.425-6.641-.089-8.395.39-1.966.78-3.507 1.099-4.233.142-.319.248-.655.248-.762 0-.584 2.072-4.605 2.781-5.384.177-.195.55-.691.815-1.08.886-1.311 4.34-4.677 5.173-5.049.195-.088.567-.3.815-.478 1.523-.992 2.621-1.63 2.834-1.63.124 0 .354-.106.496-.247.407-.337 3.472-1.346 4.11-1.346.301 0 .709-.089.921-.213.673-.354 2.392-.478 5.704-.407 2.374.053 3.349.141 3.845.336zM6.952 59.353C4.896 59.919 3.869 61.07 3.709 63c-.106 1.258.354 2.32 1.276 2.994.797.566 1.966 1.133 2.338 1.133.124 0 .585.107.992.248.425.142.974.301 1.222.355.266.053.727.336 1.028.62 1.169 1.098.372 2.32-1.524 2.32-.974 0-1.736-.443-2.001-1.17-.16-.389-.23-.407-1.807-.371l-1.648.035.053.62c.018.337.16.726.301.886.142.16.266.372.266.478 0 .266 1.17 1.169 2.037 1.576.585.284 1.099.337 2.923.32 2.162-.019 2.232-.036 3.207-.603.655-.372 1.187-.868 1.541-1.435.496-.744.567-.992.567-2.108 0-2.462-.921-3.312-4.783-4.339-2.693-.726-3.543-2.285-1.63-2.922.886-.284 1.453-.142 2.197.513.531.46.726.514 2.179.567l1.594.07-.053-.513c-.16-1.293-1.595-2.55-3.437-3.01-1.47-.355-2.02-.337-3.596.088zm117.008.142c-1.683.371-3.118 1.558-3.88 3.223-1.133 2.444-1.116 5.42 0 7.705.673 1.346 1.169 1.842 2.587 2.532.974.479 1.275.55 2.621.55 1.595 0 2.091-.16 3.207-.992.726-.55.939-.532 1.081.106.053.319.212.531.389.55.16.017.514.052.797.088 1.063.124 1.081.088 1.081-3.684v-3.419l-2.622-.053-2.622-.053.054 1.204.053 1.205.673.106c.903.142 1.134.39.85.903-.336.638-1.47 1.205-2.427 1.205-1.116 0-1.913-.514-2.462-1.612-.904-1.771-.425-5.473.832-6.412 1.116-.832 3.03-.478 3.703.673l.372.638 1.63-.053 1.612-.053-.053-.585c-.089-1.134-1.471-2.798-2.853-3.418-.885-.408-3.489-.602-4.623-.354zm15.235 0c-1.276.247-2.321.92-2.923 1.877-.284.425-.354.868-.354 2.125 0 1.4.053 1.665.425 2.179.513.726 1.399 1.275 2.675 1.665 2.816.868 3.366 1.08 3.791 1.47.708.655.549 1.452-.425 1.948-.993.514-2.215.248-3.012-.637-.425-.479-.531-.496-2.09-.532-.904-.017-1.701.018-1.754.089-.071.07.142.62.46 1.222.55 1.045 1.612 2.072 2.179 2.072.124 0 .39.124.567.266.514.39 3.933.372 4.836-.018 1.807-.78 2.144-1.045 2.675-2.231.78-1.683.691-2.799-.318-4.198-.567-.762-1.311-1.17-3.189-1.683-2.746-.761-3.366-1.133-3.366-2.019 0-1.275 1.736-1.612 2.976-.62.691.55.797.585 2.232.585.833 0 1.541-.071 1.595-.16.159-.248-.55-1.683-1.081-2.214-.921-.92-1.754-1.222-3.596-1.275-.921-.018-1.967.018-2.303.089zm-121.703 6.66v6.641l1.418.036c.78.017 1.559.035 1.736.035.265.018.3-.16.336-1.31 0-.727.036-1.63.036-1.984.017-.868.39-1.063 2.125-1.116 2.941-.107 4.288-.691 4.996-2.143.85-1.79.532-4.375-.709-5.562-1.15-1.08-1.895-1.24-6.164-1.24H17.49v6.642zm6.165-3.968c1.683.407 2.18 1.948 1.028 3.1-.585.584-.656.601-1.931.601-.868 0-1.382-.07-1.506-.23-.106-.124-.23-.85-.248-1.612-.053-1.257-.018-1.399.372-1.718.478-.39 1.098-.425 2.285-.141zm9.832-2.374c-.053.177-.212.585-.337.921-.141.32-.248.709-.248.85 0 .142-.106.514-.23.815-.142.319-.443 1.151-.673 1.86-.23.726-.478 1.346-.55 1.4-.088.035-.14.283-.14.548 0 .266-.125.709-.267.992-.141.266-.265.602-.265.744 0 .124-.107.496-.248.815-.355.885-.656 1.753-.833 2.533-.106.39-.248.779-.354.868a.801.801 0 00-.16.46c0 .23.284.266 1.666.283h1.665l.106-.496c.053-.265.213-.69.372-.903.248-.39.443-.443 2.144-.531 2.214-.142 2.799.053 2.993.974.071.319.195.673.284.78.142.159 3.525.353 3.525.212 0-.036-.16-.496-.372-1.028a20.5 20.5 0 01-.496-1.505 5.032 5.032 0 00-.336-.921 1.845 1.845 0 01-.213-.797c0-.23-.07-.496-.16-.602-.212-.23-1.434-3.861-1.434-4.269 0-.177-.071-.407-.178-.514-.088-.088-.372-.814-.602-1.611-.69-2.303-.531-2.179-2.692-2.179-1.613 0-1.86.036-1.967.301zm2.516 4.163c.248.956.69 2.408.903 3.028.567 1.577.266 1.93-1.559 1.86l-1.293-.053.053-1.151c.036-.638.177-1.417.319-1.754.142-.319.248-.797.248-1.063 0-1.027 1.098-1.735 1.329-.867zm8.22-4.34c0 .089 0 3.082.017 6.695v6.554h3.455l.053-2.197c.017-1.346.124-2.284.248-2.444.16-.195.514-.23 1.63-.124 1.257.106 1.488.177 1.895.602.407.443.478.691.567 2.197.053.92.142 1.77.212 1.877.054.106.815.177 1.807.177 1.542 0 1.666-.035 1.56-.319-.072-.159-.178-1.133-.213-2.16-.089-2.037-.372-2.781-1.205-3.153-.638-.283-.602-.992.071-1.382.762-.443 1.08-1.293 1.08-2.816 0-2.019-.495-2.621-2.728-3.347-.69-.23-1.7-.284-4.659-.284-2.072 0-3.773.053-3.79.124zm7.422 2.94c.407.372.638 1.311.46 1.984-.159.673-1.363 1.151-2.816 1.151-1.382 0-1.506-.16-1.506-1.93 0-1.541.124-1.63 2.055-1.577 1.098.036 1.541.124 1.807.372zm6.324-2.851c-.053.124-.07 3.135-.035 6.695l.035 6.465 1.736.053 1.719.053v-1.877c0-1.967.16-2.533.868-3.17.478-.444 1.169-.267 1.417.371.106.283.46.974.815 1.559.337.584.709 1.222.797 1.417.903 1.718.833 1.682 3.118 1.682 1.116 0 2.02-.053 2.02-.141 0-.071-.284-.55-.62-1.08-.337-.514-.62-.957-.62-1.01 0-.036-.355-.656-.798-1.364-.443-.727-.797-1.364-.797-1.417 0-.053-.337-.602-.762-1.222-1.204-1.807-1.31-2.037-.992-2.533.124-.23.815-1.028 1.488-1.771 2.18-2.41 2.392-2.657 2.392-2.799 0-.07-.868-.124-1.913-.124h-1.931l-.78.921c-.425.496-1.08 1.276-1.452 1.7-.372.443-.798.992-.957 1.223-.195.3-.408.407-.744.372l-.46-.053-.054-2.09-.053-2.073h-1.683c-1.187 0-1.7.071-1.754.213zm20.55-.036c-.071.124-.124 3.135-.124 6.713v6.483l1.789.053 1.772.053.053-2.09.053-2.09 1.948-.089c3.95-.194 5.404-1.434 5.404-4.605 0-2.39-.833-3.613-2.87-4.198-1.276-.354-7.83-.548-8.025-.23zm6.785 2.94c.23.16.531.55.673.904.319.761.088 1.7-.55 2.108-.549.354-2.568.53-3.082.265-.354-.195-.39-.319-.336-1.842.053-1.558.07-1.612.496-1.753.637-.178 2.32 0 2.799.319zm7.068-3.01c-.16.177-.16 13.354.018 13.354.07 0 2.196.018 4.712.018l4.606.018.035-1.17c.018-.637-.018-1.168-.071-1.186-.071 0-1.311-.035-2.746-.07-1.718-.019-2.692-.107-2.834-.249-.142-.142-.23-1.771-.301-5.473l-.089-5.26-1.594-.053c-.886-.018-1.665 0-1.736.07zm11.78.053c-.194.124-.23 1.098-.177 5.172l.053 5.03.55 1.062c.938 1.86 2.444 2.569 5.438 2.569 1.878-.018 2.055-.053 3.118-.585 1.453-.726 2.161-1.683 2.462-3.312.213-1.169.372-9.635.178-9.83-.142-.16-3.047-.177-3.295-.018-.16.089-.213 1.31-.213 4.41 0 2.374-.089 4.57-.177 4.942-.284 1.01-1.063 1.559-2.197 1.559-.992 0-1.665-.355-2.108-1.116-.142-.266-.248-1.825-.301-5.172l-.089-4.782-1.505-.036c-.833-.035-1.613.018-1.737.107z" fill="#fff"/></svg>