<svg width="159" height="31" fill="none" xmlns="http://www.w3.org/2000/svg"><path opacity=".6" fill-rule="evenodd" clip-rule="evenodd" d="M4.883.851h8.56l.194 20.735s.06 5.01-2.998 7.464c-2.369 1.9-5.051 2.04-7.254 1.664C1.199 30.344 0 29.478 0 29.478v-7.133s.773.619 1.837.952c1.064.332 1.763.596 2.708-.333.484-.474.436-1.995.436-1.995L4.883.85zm9.114 20.022S12.805 31 24.542 31c10.838 0 10.25-9.574 10.25-10.509 0-.933-.096-19.684-.096-19.684h-8.56l.049 19.257s.24 2.996-1.839 2.996c-2.079 0-1.788-2.805-1.788-2.805l-.145-19.4h-8.56l.144 20.018zM51.244 9.606l-.054-7.562S47.586.233 43.765.233c-5.203 0-7.398 3.781-7.398 3.781s-1.993 2.729-1.304 6.343c.457 2.39 1.368 3.689 3.344 5.602.9.873 2.62 2.24 3.077 2.69.456.448 2.037 1.415 1.785 3.025-.163 1.05-.758 1.777-2.773 1.718-2.545-.075-5.509-2.503-5.509-2.503l.039 7.732s3.381 2.42 6.99 2.352c4.027-.075 5.964-1.382 7.294-2.428 1.99-1.563 3.533-4.929 3.002-8.627-.532-3.697-3.913-6.124-4.863-6.91-.95-.784-3.077-2.314-3.457-3.174-.38-.859.342-2.24 1.14-2.353.798-.111 2.123-.75 6.112 2.125zm.329-1.325h5.036v22.043h8.517V8.281h4.79V.839H51.573v7.442zm83.582 0h5.036v22.043h8.517V8.281h4.791V.839h-18.344v7.442zM75.772 30.378h9.345c1.939 0 11.968-.447 11.968-15.286C97.085.589 86.03.87 86.03.87H75.829l-.057 29.508zm8.662-21.67s1.198-.113 1.71.168c.514.28 2.11 1.175 2.11 7.055s-1.312 6.61-2.167 7.057c-.855.447-1.71.224-1.71.224l.057-14.505zm24.392-8.68S97.371-.364 97.371 15.204c0 16.855 11.455 15.733 11.455 15.733s11.853 1.513 11.853-15.397c0-16.911-11.853-15.512-11.853-15.512zm.056 7.28c.798 0 2.736-.56 2.736 8.232 0 8.623-2.279 7.838-2.679 7.838-.398 0-2.792.561-2.792-7.782-.001-8.568 1.937-8.288 2.735-8.288zm17.097 23.014h8.605V.87h-8.72l.115 29.453zm23.427-4.085c0 2.33 1.95 4.725 4.763 4.725 2.462 0 4.831-1.72 4.831-4.747 0-2.178-1.86-4.683-4.831-4.683-2.215 0-4.763 1.764-4.763 4.705z" fill="#fff"/></svg>