<svg width="39" height="38" viewBox="0 0 39 38" fill="none" xmlns="http://www.w3.org/2000/svg">
<path fill-rule="evenodd" clip-rule="evenodd" d="M30.3451 37.9995C30.037 37.9995 29.7269 37.9253 29.4422 37.773L19.499 32.4323L9.55781 37.773C8.8987 38.1238 8.10309 38.0637 7.50638 37.6146C6.90577 37.1655 6.60742 36.4057 6.73417 35.654L8.62764 24.3712L0.593546 16.3823C0.0592395 15.8511 -0.133813 15.0532 0.0943399 14.3234C0.322493 13.5977 0.93285 13.0665 1.66996 12.9582L12.7851 11.2983L17.7538 1.02193C18.4129 -0.341295 20.5871 -0.341295 21.2462 1.02193L26.2149 11.2983L37.33 12.9582C38.0672 13.0665 38.6775 13.5977 38.9057 14.3234C39.1338 15.0532 38.9408 15.8511 38.4065 16.3823L30.3724 24.3712L32.2658 35.654C32.3926 36.4057 32.0923 37.1655 31.4936 37.6146C31.1543 37.8712 30.7507 37.9995 30.3451 37.9995Z" fill="white"/>
</svg>
