<svg width="529" height="369" fill="none" xmlns="http://www.w3.org/2000/svg"><path d="M446.319 278.365l-5.648 85.295a1.727 1.727 0 01-1.713 1.601 1.707 1.707 0 01-1.224-.52 1.713 1.713 0 01-.476-1.243l2.321-85.133h6.74zm14.449 0l5.647 85.295a1.71 1.71 0 003.413-.162l-2.346-85.083-6.714-.05zm-56.623 0l5.647 85.295a1.71 1.71 0 003.413-.162l-2.358-85.083-6.702-.05zm-23.074 0l-5.648 85.295a1.727 1.727 0 01-1.713 1.601 1.734 1.734 0 01-1.225-.523 1.734 1.734 0 01-.488-1.24l2.359-85.083 6.715-.05z" fill="#263238" stroke="#263238" stroke-linecap="round" stroke-linejoin="round"/><path d="M479.46 192.376s-56.35-2.11-61.116-2.11c-4.767 0-5.871 2.11-5.871 2.11l-8.043 56.709s-25.01-7.136-29.913-6.206c-4.902.931 2.421 36.516 2.421 36.516h28.299l.509-2.135h63.896l16.967-80.826c-1.03-3.698-7.149-4.058-7.149-4.058z" fill="#fff" stroke="#263238" stroke-linecap="round" stroke-linejoin="round"/><path d="M458.011 227.849s5.734 37.236-.844 41.58c-1.018.67-6.541 3.848-11.704 3.327-4.146-.423-33.438 0-33.438 0s-4.071-7.745-4.89-13.455c-.819-5.709 5.585-30.21 5.585-30.21l45.291-1.242z" fill="#fff" stroke="#263238" stroke-linecap="round" stroke-linejoin="round"/><path d="M410.04 247.795s-42.399 4.406-44.398 5.597c-1.998 1.192-11.17 9.198-9.594 14.398 1.576 5.201-2.396 5.598 1.241 6.405 3.637.806 55.183.794 55.183.794" fill="#9468B4"/><path d="M410.04 247.795s-42.399 4.406-44.398 5.597c-1.998 1.192-11.17 9.198-9.594 14.398 1.576 5.201-2.396 5.598 1.241 6.405 3.637.806 55.183.794 55.183.794" stroke="#263238" stroke-linecap="round" stroke-linejoin="round"/><path d="M371.476 279.334h100.747v-7.522H371.476v7.522z" fill="#fff" stroke="#263238" stroke-linecap="round" stroke-linejoin="round"/><path d="M448.428 249.396h-60.694s-3.189 3.599-3.599 11.17c-.41 7.572.41 9.198 6.007 11.171 5.598 1.974 55.32.968 55.32.968" fill="#9468B4"/><path d="M448.428 249.396h-60.694s-3.189 3.599-3.599 11.17c-.41 7.572.41 9.198 6.007 11.171 5.598 1.974 55.32.968 55.32.968" stroke="#263238" stroke-linecap="round" stroke-linejoin="round"/><path d="M400.607 345.712l-6.355-15.055-10.413 1.973 7.968 13.43-4.592 9.197-9.93 6.491s-1.154 1.142 3.811.758c4.964-.385 15.266 0 15.266 0l6.492-7.634s2.358-3.885-2.247-9.16z" fill="#fff" stroke="#263238" stroke-linecap="round" stroke-linejoin="round"/><path d="M403.387 352.29l.261 9.843h-1.552l-2.073-4.915 3.364-4.928z" fill="#263238" stroke="#263238" stroke-linecap="round" stroke-linejoin="round"/><path d="M396.374 362.555l6.491-7.633s1.676-2.842-.633-6.938c-4.617 7.894-10.761 10.264-10.761 10.264l-6.404-1.539-7.77 5.089s-1.154 1.142 3.81.757c4.965-.385 15.267 0 15.267 0z" fill="#263238" stroke="#263238" stroke-linecap="round" stroke-linejoin="round"/><path d="M375.646 268.994l21.286 64.356-15.105 2.681-29.789-67.025s-2.395-10.003 3.997-13.193c6.392-3.19 25.196-4.804 25.196-4.804" fill="#9468B4"/><path d="M375.646 268.994l21.286 64.356-15.105 2.681-29.789-67.025s-2.395-10.003 3.997-13.193c6.392-3.19 25.196-4.804 25.196-4.804" stroke="#263238" stroke-linecap="round" stroke-linejoin="round"/><path d="M443.924 279.321s-7.335-35.635-2.42-36.516c4.915-.881 29.913 6.206 29.913 6.206l8.042-56.635s8.49-1.341 9.384 6.206c.893 7.546-16.62 80.739-16.62 80.739h-28.299z" fill="#263238" stroke="#263238" stroke-linecap="round" stroke-linejoin="round"/><path d="M357.55 174.403l-3.786-6.205a4.002 4.002 0 00-3.488-1.912l-3.562.062-6.094-1.824a2.033 2.033 0 00-2.16.682l-.223.286 5.61 2.482-5.598 2.06-5.945-3.016a1.118 1.118 0 00-1.403.323 1.12 1.12 0 00.199 1.564l8.316 6.417a2.318 2.318 0 001.862.447l9.197-1.85 2.569 2.805 4.506-2.321z" fill="#fff" stroke="#263238" stroke-linecap="round" stroke-linejoin="round"/><path d="M421.669 161.669l-34.095 35.659-32.544-26.301-4.493 3.265 35.808 40.574 31.042-16.719 4.282-36.478zm51.014 9.111l17.873 54.922-15.416.447-15.328-25.78s8.613-26.002 12.871-29.589z" fill="#fff" stroke="#263238" stroke-linecap="round" stroke-linejoin="round"/><path d="M453.232 161.346l19.449 9.496-16.284 45.539 1.924 12.697-45.601.074 5.436-20.454-3.723-13.107a10.04 10.04 0 01-.075-5.213l7.298-28.647 19.164-3.078 12.412 2.693z" fill="#fff" stroke="#263238" stroke-linecap="round" stroke-linejoin="round"/><path d="M452.303 158.678s3.823 2.582 3.947 4.878c.062 1.353 0 3.724-.124 5.536a11.759 11.759 0 01-.956 4.108l-6.889 8.316-7.968-6.293-6.616 3.376s-1.241-10.14 1.651-17.215c2.892-7.075 15.478-4.481 16.955-2.706z" fill="#fff" stroke="#263238" stroke-linecap="round" stroke-linejoin="round"/><path d="M457.776 139.005s-1.564 5.623-2.296 9.346c-.732 3.724-2.209 11.171-2.073 13.963.137 2.793-11.617 14.684-13.094 12.909-1.477-1.775-3.029-12.089-3.029-12.089l1.465-16.682s15.316-16.967 19.027-7.447z" fill="#fff" stroke="#263238" stroke-linecap="round" stroke-linejoin="round"/><path d="M433.213 130.317s-2.098 3.463-2.098 4.965c0 1.502.732 4.443.608 5.3-.124.856-2.209 3.723-2.482 4.691a1.713 1.713 0 00.856 2.098c.507.26 1 .545 1.477.856 0 0 .621 7.646 1.614 9.62.993 1.973 1.849 2.842 4.803 3.09 2.954.248 9.992-2.842 10.972-5.312.981-2.47 1.117-5.424 1.241-8.999.124-3.574-2.345-8.688-4.195-13.566-1.849-4.878-9.594-7.559-12.796-2.743z" fill="#fff" stroke="#263238" stroke-linecap="round" stroke-linejoin="round"/><path d="M465.048 155.563a9.47 9.47 0 009.471-9.471c0-5.23-4.24-9.47-9.471-9.47a9.47 9.47 0 00-9.47 9.47c0 5.231 4.24 9.471 9.47 9.471z" fill="#263238" stroke="#263238" stroke-linecap="round" stroke-linejoin="round"/><path d="M433.162 129.783s3.811-3.289 10.662 3.252c6.851 6.541 4.245 15.999 8.825 17.96 4.58 1.961 13.057-7.844 14.038-12.735.98-4.89-1.961-15.03-11.109-16.991-9.148-1.962-20.356-.621-22.416 8.514z" fill="#263238" stroke="#263238" stroke-linecap="round" stroke-linejoin="round"/><path d="M433.163 129.783a5.087 5.087 0 015.771-5.573c6.206.335 6.852 10.128 10.116 14.05 3.264 3.922 4.903 3.264 4.903 3.264s-5.548 1.626-9.148-.335c-3.599-1.961-5.337-13.02-11.642-11.406z" fill="#263238" stroke="#263238" stroke-linecap="round" stroke-linejoin="round"/><path d="M443.303 123.068a19.365 19.365 0 017.447 8.452c2.818 5.97 2.818 10.898 9.508 10.55 0 0-3.165.708-8.093-1.762-4.927-2.47-5.982-9.495-9.147-12.313a10.416 10.416 0 00-6.33-2.817m30 13.082s-.285 8.962-7.162 10.848" stroke="#fff" stroke-width=".5" stroke-linecap="round" stroke-linejoin="round"/><path d="M447.498 147.408s6.554-8.577 8.093-2.172c1.539 6.404-3.724 7.968-6.206 7.236-2.483-.733-2.135-2.061-2.135-2.061" fill="#fff"/><path d="M447.498 147.408s6.554-8.577 8.093-2.172c1.539 6.404-3.724 7.968-6.206 7.236-2.483-.733-2.135-2.061-2.135-2.061" stroke="#263238" stroke-linecap="round" stroke-linejoin="round"/><path d="M432.915 220.799s-12.511 1.738-14.596 1.738c-2.086 0-7.298 6.603-7.298 6.603h22.937l-1.043-8.341z" fill="#fff" stroke="#263238" stroke-linecap="round" stroke-linejoin="round"/><path d="M486.062 212.384l4.493 10.128a3.995 3.995 0 01-3.723 5.275l-54.24.31.347-7.298 42.052-6.653" fill="#fff"/><path d="M486.062 212.384l4.493 10.128a3.995 3.995 0 01-3.723 5.275l-54.24.31.347-7.298 42.052-6.653" stroke="#263238" stroke-linecap="round" stroke-linejoin="round"/><path d="M413.465 352.29l.261 9.843h-1.552l-2.072-4.915 3.363-4.928z" fill="#263238" stroke="#263238" stroke-linecap="round" stroke-linejoin="round"/><path d="M410.684 345.712l-1.998-14.323-10.401.67 3.599 14.1-4.592 9.197-9.93 6.492s-1.141 1.142 3.823.757c4.965-.385 15.267 0 15.267 0l6.491-7.633s2.346-3.985-2.259-9.26z" fill="#fff" stroke="#263238" stroke-linecap="round" stroke-linejoin="round"/><path d="M406.452 362.555l6.491-7.633s1.676-2.842-.645-6.938c-4.617 7.894-10.761 10.264-10.761 10.264l-6.392-1.539-7.783 5.089s-1.141 1.142 3.823.757c4.965-.385 15.267 0 15.267 0z" fill="#263238" stroke="#263238" stroke-linecap="round" stroke-linejoin="round"/><path d="M405.918 257.911l4.456 76.109-14.112.335-13.778-69.146s.261-13.169 4.469-14.683c4.207-1.515 15.378.111 15.378.111" fill="#9468B4"/><path d="M405.918 257.911l4.456 76.109-14.112.335-13.778-69.146s.261-13.169 4.469-14.683c4.207-1.515 15.378.111 15.378.111" stroke="#263238" stroke-linecap="round" stroke-linejoin="round"/><path d="M344.232 94.087l17.513 49.089s-2.308 11.108-9.259 10.649c-6.951-.459-8.8-10.19-10.649-11.58-1.85-1.39-4.63-12.04-4.63-12.04l7.025-36.118z" fill="#fff" stroke="#263238" stroke-linecap="round" stroke-linejoin="round"/><path d="M298.93 84.244L270.457 94.52l10.922 78.951h51.373l11.481-79.386-30.732-9.619-14.571-.223z" fill="#fff" stroke="#263238" stroke-linecap="round" stroke-linejoin="round"/><path d="M301.672 97.772l4.108 6.194-3.562 52.527 5.238 13.678 5.374-13.306-4.605-52.117 3.699-8.949-5.126-6.74-5.126 8.713z" fill="#9468B4" stroke="#263238" stroke-linecap="round" stroke-linejoin="round"/><path d="M307.357 95.216l-7.335 5.499-4.829-14.336 3.364-7.26 15.006-.36 3.661 3.288-.732 18.296-9.135-5.127z" fill="#fff" stroke="#263238" stroke-linecap="round" stroke-linejoin="round"/><path d="M315.115 75.394l-1.142 9.222-8.217 10.6-6.144-10.749v-17.29s10.761 2.694 15.503 8.217z" fill="#fff" stroke="#263238" stroke-linecap="round" stroke-linejoin="round"/><path d="M295.392 56.23c0-8.378 6.106-15.167 13.653-15.167 7.546 0 11.729 7.162 11.729 15.54 0 2.705-.559 7.347-.782 9.817-.385 4.22-1.663 6.008-4.158 9.793-8.179 12.412-14.894-5.796-18.332-11.915a16.279 16.279 0 01-2.11-8.068z" fill="#fff" stroke="#263238" stroke-linecap="round" stroke-linejoin="round"/><path d="M314.978 58.862l1.154 8.65-4.059-.11" fill="#fff"/><path d="M314.978 58.862l1.154 8.65-4.059-.11" stroke="#263238" stroke-linecap="round" stroke-linejoin="round"/><path d="M324.039 57.36l-19.511.087a4.562 4.562 0 00.968 4.43c1.241 1.242 6.293.807 7.1.485.806-.323 1.241-3.873 1.241-3.873h1.452s.161 3.724 2.247 4.034c2.085.31 4.803.211 5.324-.161 2.309-1.552 1.179-5.002 1.179-5.002z" fill="#fff" stroke="#263238" stroke-linecap="round" stroke-linejoin="round"/><path d="M297.8 65.7s4.394 9 5.437 12.114c1.042 3.116 6.206 5.549 11.431 3.811 5.225-1.738 3.81-9.47 3.81-9.47s-5.548-4.742-6.578-3.724c-1.03 1.018-6.591 5.548-6.938 4.506-.348-1.043-2.768-7.274-2.768-7.274l-1.129-4.418 2.321-1.49a1.735 1.735 0 00.31-2.333l-1.092-1.576a1.759 1.759 0 01-.286-1.34c.286-1.354 1.068-4.159 2.88-4.966 2.482-1.03 5.498.472 8.278 1.167 2.781.695 5.797-1.812 5.797-1.812l1.241 4.12a19.774 19.774 0 005.635-9.556c1.39-5.896-12.822-8.316-17.377-8.316s-11.778 2.482-13.864 9.01c-2.085 6.53 1.663 20.38 2.892 21.548z" fill="#263238" stroke="#263238" stroke-linecap="round" stroke-linejoin="round"/><path d="M309.045 43.496s2.582 3.873-.806 4.68c-3.389.806-9.992-2.098-12.896-.969m7.893 4.828s-5.312-.645-7.447 1.614m20.231 17.96s-3.91 2.035-5.846-.385" stroke="#fff" stroke-width=".5" stroke-linecap="round" stroke-linejoin="round"/><path d="M298.457 62.958s-3.835-4.22-3.835.385c0 4.605 1.154 4.605 3.451 6.206 2.296 1.6 3.078-.385 3.078-.385" fill="#fff"/><path d="M298.457 62.958s-3.835-4.22-3.835.385c0 4.605 1.154 4.605 3.451 6.206 2.296 1.6 3.078-.385 3.078-.385" stroke="#263238" stroke-linecap="round" stroke-linejoin="round"/><path d="M349.669 349.063h.174l-.335-1.688-16.756-173.89h-51.373l-16.893 175.566h.187l10.897.931s12.089-40.587 12.089-43.616c0-3.028 3.451-31.029 3.451-31.029l17.141-60.26 15.154 60.26s3.451 28.063 3.451 31.029c0 2.967 12.101 43.641 12.101 43.641l10.253-.882h.459v-.062z" fill="#263238" stroke="#263238" stroke-linecap="round" stroke-linejoin="round"/><path d="M328.916 183.713l-11.432 16.321m5.313-12.647l-6.939 11.431m-25.703-12.238l10.19 11.009m-11.011-6.939l14.683 14.696m-19.584-30.197h45.303" stroke="#fff" stroke-width=".5" stroke-linecap="round" stroke-linejoin="round"/><path d="M264.673 349.051s-6.541 5.151-10.315 6.566c-3.773 1.415-10.823 5.175-10.823 5.175s0 2.359 6.119 2.359h24.017l-.409-14.1h-8.589z" fill="#263238" stroke="#263238" stroke-linecap="round" stroke-linejoin="round"/><path d="M273.584 360.582c-9.59.438-19.199.285-28.771-.459l-1.241.67s0 2.358 6.119 2.358h24.017l-.124-2.569z" fill="#fff" stroke="#263238" stroke-linecap="round" stroke-linejoin="round"/><path d="M348.677 349.051s6.553 5.151 10.314 6.566 10.835 5.176 10.835 5.176 0 2.358-6.131 2.358H339.69l.435-14.1h8.552z" fill="#263238" stroke="#263238" stroke-linecap="round" stroke-linejoin="round"/><path d="M339.765 360.582c9.59.438 19.199.285 28.771-.459l1.241.67s0 2.358-6.132 2.358H339.69l.075-2.569zM270.457 94.521l-18.916 50.504h18.146l6.777-13.777-6.007-36.727z" fill="#fff" stroke="#263238" stroke-linecap="round" stroke-linejoin="round"/><path d="M353.207 137.205c-7.571-3.128-31.861-4.679-33.127-4.679-1.266 0-40.748-3.252-43.988-3.724-3.239-.472-6.95 6.951-6.95 6.951l17.128-.472 20.839 4.17s42.201 15.279 45.378 14.361a2.823 2.823 0 001.142-.72" fill="#fff"/><path d="M353.207 137.205c-7.571-3.128-31.861-4.679-33.127-4.679-1.266 0-40.748-3.252-43.988-3.724-3.239-.472-6.95 6.951-6.95 6.951l17.128-.472 20.839 4.17s42.201 15.279 45.378 14.361a2.823 2.823 0 001.142-.72" stroke="#263238" stroke-linecap="round" stroke-linejoin="round"/><path d="M264.972 134.835l65.286-6.479.472 5.548-56.499 17.141s-10.178 2.308-18.059.918c-7.882-1.39-4.158-9.259-2.309-13.889" fill="#fff"/><path d="M264.972 134.835l65.286-6.479.472 5.548-56.499 17.141s-10.178 2.308-18.059.918c-7.882-1.39-4.158-9.259-2.309-13.889" stroke="#263238" stroke-linecap="round" stroke-linejoin="round"/><path d="M330.269 128.355l12.498-.471 3.699 7.41-15.738-1.378-.459-5.561z" fill="#fff" stroke="#263238" stroke-linecap="round" stroke-linejoin="round"/><path d="M413.515 237.257l10.661 126.936a1.417 1.417 0 00.586.946 1.408 1.408 0 001.09.221 1.362 1.362 0 001.03-1.464l-7.261-126.601-6.106-.038zm71.653 0l10.699 127.358a1.387 1.387 0 001.106 1.173c.189.037.382.035.57-.006a1.364 1.364 0 001.03-1.464l-7.286-127.061h-6.119zm-295.699 0l-5.573 125.832a1.39 1.39 0 001.042 1.477 1.342 1.342 0 001.086-.194 1.336 1.336 0 00.565-.948l9.023-126.167h-6.143zm-66.044 0l-5.611 125.36a1.407 1.407 0 001.055 1.477 1.347 1.347 0 001.468-.61c.098-.162.161-.344.183-.532l8.986-125.744-6.081.049z" fill="#263238" stroke="#263238" stroke-linecap="round" stroke-linejoin="round"/><path d="M499.119 230.22H119.452v10.898h379.667V230.22z" fill="#9468B4" stroke="#263238" stroke-linecap="round" stroke-linejoin="round"/><path d="M499.119 230.22H119.452v3.736h379.667v-3.736z" fill="#263238" stroke="#263238" stroke-linecap="round" stroke-linejoin="round"/><path d="M499.107 230.22h-95.001v10.898h95.001V230.22z" fill="#263238" stroke="#263238" stroke-linecap="round" stroke-linejoin="round"/><path d="M502.495 226.596H116.064v4.158h386.431v-4.158z" fill="#9468B4" stroke="#263238" stroke-linecap="round" stroke-linejoin="round"/><path d="M502.483 226.596h-94.417v4.158h94.417v-4.158z" fill="#263238" stroke="#263238" stroke-linecap="round" stroke-linejoin="round"/><path d="M202.141 226.223h51.857a1.002 1.002 0 00.931-.608l14.36-32.742a1.01 1.01 0 00-.086-.954 1 1 0 00-.845-.449h-51.856a1.004 1.004 0 00-.919.596l-14.311 32.742a1 1 0 00.061.937 1 1 0 00.808.478z" fill="#fff" stroke="#263238" stroke-linecap="round" stroke-linejoin="round"/><path d="M207.006 223.666h44.249a.858.858 0 00.782-.509l12.25-27.939a.862.862 0 00-.359-1.139.85.85 0 00-.423-.102h-44.248a.855.855 0 00-.794.521l-12.226 27.964a.852.852 0 00.769 1.204z" fill="#9468B4" stroke="#263238" stroke-linecap="round" stroke-linejoin="round"/><path d="M254.718 224.051h-77.909v2.544h77.909v-2.544z" fill="#fff" stroke="#263238" stroke-linecap="round" stroke-linejoin="round"/><path d="M254.73 224.051h-37.769v2.544h37.769v-2.544zm25.022-17.712h-13.74v20.306h13.74v-20.306z" fill="#fff" stroke="#263238" stroke-linecap="round" stroke-linejoin="round"/><path d="M279.145 223.878h-1.44a1.131 1.131 0 01-.799-1.929c.212-.211.5-.33.799-.33h1.44a2.158 2.158 0 002.147-2.148v-4.964a2.158 2.158 0 00-2.147-2.148h-1.85a1.125 1.125 0 01-1.043-.697 1.125 1.125 0 01.245-1.231 1.132 1.132 0 01.798-.331h1.85a4.4 4.4 0 013.116 1.291 4.418 4.418 0 011.29 3.116v4.964a4.41 4.41 0 01-2.72 4.071 4.4 4.4 0 01-1.686.336zm107.957 2.345h-51.856a1.005 1.005 0 01-.919-.608l-14.36-32.742a.996.996 0 01-.078-.485.996.996 0 01.521-.796 1.01 1.01 0 01.475-.122h51.857a1.021 1.021 0 01.931.596l14.36 32.742a1.015 1.015 0 01-.451 1.292c-.147.08-.312.122-.48.123z" fill="#fff" stroke="#263238" stroke-linecap="round" stroke-linejoin="round"/><path d="M334.526 226.596h77.91v-2.545h-77.91v2.545z" fill="#fff" stroke="#263238" stroke-linecap="round" stroke-linejoin="round"/><path d="M334.527 226.596h53.718v-2.545h-53.718v2.545zm20.33-21.535a3.053 3.053 0 11-4.183-1.241 3.093 3.093 0 014.183 1.241zm-242.491-96.378l3.822 37.769 17.377 50.305-5.945 3.401-20.405-46.048-10.19-39.532s-.857-11.89 3.4-13.653c4.258-1.762 10.24.112 11.941 7.758zm21.249 88.123s3.823 8.081 4.257 10.203c.435 2.122.869 6.454-.806 8.39-2.023 2.334-3.873.534-3.873.534s-5.101-1.241-5.101-5.523-.422-10.203-.422-10.203l5.945-3.401z" fill="#fff" stroke="#263238" stroke-linecap="round" stroke-linejoin="round"/><path d="M129.443 209.479l7.162 1.862" stroke="#263238" stroke-linecap="round" stroke-linejoin="round"/><path d="M131.157 204.651l2.036 3.202s-4.742 8.105-2.197 5.983c2.544-2.123 7.298-4.704 6.876-6.827a33.758 33.758 0 00-2.83-6.404" fill="#fff"/><path d="M131.157 204.651l2.036 3.202s-4.742 8.105-2.197 5.983c2.544-2.123 7.298-4.704 6.876-6.827a33.758 33.758 0 00-2.83-6.404" stroke="#263238" stroke-linecap="round" stroke-linejoin="round"/><path d="M92.048 63.292s-4.369-4.716-14.447-1.688c-10.079 3.029-12.412 19.164-12.102 27.22.31 8.055 8.068 17.14 5.722 21.174-2.346 4.034-11.096 13.442-10.426 23.583.67 10.14 9.073 18.146 21.175 14.447 12.102-3.699 10.078-18.506 7.67-23.917-2.407-5.412 2.694-7.733 4.37-19.5 1.675-11.766-9.074-21.51-9.074-29.912 0-8.403 8.689-7.05 8.689-7.05l-1.577-4.357z" fill="#263238" stroke="#263238" stroke-linecap="round" stroke-linejoin="round"/><path d="M76.904 95.19c1.59 3.278 3.438 6.778 5.275 10.551 6.132 12.511 1.34 17.029-7.98 23.955-9.322 6.926-7.187 15.44-4.791 16.756m19.437-79.846s-12.511 1.067-15.714 9.048c-1.936 4.853-.447 10.29 2.408 16.62m4.159 51.062c.963.362 1.99.522 3.016.472" stroke="#fff" stroke-width=".5" stroke-linecap="round" stroke-linejoin="round"/><path d="M92.048 65.775s-11.716 2.122-14.373 10.637c-2.656 8.514 13.045 21.1 13.84 30.359.794 9.259-10.39 14.671-14.361 21.857-2.793 5.04-2.482 10.588.46 13.38" stroke="#fff" stroke-width=".5" stroke-linecap="round" stroke-linejoin="round"/><path d="M122.109 237.145s-2.892 24.972-5.797 32.941c-2.904 7.968-9.408 70.586-9.768 74.21-.36 3.624 9.408 11.94 13.393 14.485 3.984 2.544 2.172 3.252-2.173 3.612-4.344.36-9.408-.36-11.58-4.345-2.172-3.984-7.248-5.064-7.248-5.064l-.72 8.689h-1.452l-1.08-10.861a12.512 12.512 0 011.08-7.236c1.812-3.984 2.482-12.312 2.482-23.582 0-11.27-2.172-29.33-1.092-38.018 1.08-8.688 5.436-15.204 5.436-22.441 0-7.236.36-18.096.36-18.096l18.159-4.294z" fill="#fff" stroke="#263238" stroke-linecap="round" stroke-linejoin="round"/><path d="M95.684 350.812a11.986 11.986 0 01.46-5.572c2.246 3.798 8.688 8.948 13.653 10.996a18.095 18.095 0 008.551 1.44c.584.435 1.13.807 1.589 1.105 3.984 2.482 2.172 3.252-2.172 3.612-4.344.36-9.408-.36-11.58-4.344-2.172-3.985-7.249-5.065-7.249-5.065l-.72 8.689h-1.452l-1.08-10.861z" fill="#263238" stroke="#263238" stroke-linecap="round" stroke-linejoin="round"/><path d="M101.108 241.129s-6.206 18.456-11.94 34.381c-5.734 15.924-19.549 52.49-21 59.006-1.453 6.516-2.173 18.469-6.207 24.625-4.034 6.156-7.968 9.048-7.248-1.812.72-10.861 7.248-18.829 8.688-27.157 1.44-8.329 2.172-38.365 7.236-51.758 5.064-13.392 10.5-24.253 11.17-28.237.496-3.965.736-7.957.72-11.952l18.581 2.904z" fill="#fff" stroke="#263238" stroke-linecap="round" stroke-linejoin="round"/><path d="M55.458 352.675a10.75 10.75 0 001.837 5.734c2.085 2.333 5.448-2.197 7.198-4.965a23.504 23.504 0 01-2.482 5.685c-3.984 6.144-7.968 9.048-7.248-1.812.12-1.562.352-3.114.695-4.642z" fill="#263238" stroke="#263238" stroke-linecap="round" stroke-linejoin="round"/><path d="M98.253 95.439s-2.172 1.812-3.624 14.124c-1.453 12.313 7.608 50.678 7.608 50.678s-15.564 25.494-19.189 38.166c-3.624 12.673-5.796 60.148-5.796 60.148s7.608 2.905 23.173 3.984c15.564 1.08 23.893-2.892 23.893-2.892s.72-67.756.72-78.194c0-10.439.732-34.183 1.812-37.075 1.08-2.892 4.344-10.5 4.344-13.392 0-2.892-21.771-33.735-21.771-33.735l-11.17-1.813z" fill="#fff" stroke="#263238" stroke-linecap="round" stroke-linejoin="round"/><path d="M83.011 198.408c2.855-9.93 14.671-36.342 18.891-40.885 6.417 2.135 18.121 4.245 23.347 2.681-.162 3.723-.248 17.625-.248 21.187 0 10.5-.72 78.195-.72 78.195s-8.329 3.984-23.893 2.892c-15.565-1.093-23.173-3.985-23.173-3.985s2.172-47.413 5.796-60.085zm23.273-145.641s3.885-8.465 11.568-8.465 11.096 6.826 9.396 12.796c-1.701 5.97 5.113 4.27 5.97 8.118.856 3.847-5.548 6.392-8.961 6.392-3.414 0-17.973-18.841-17.973-18.841z" fill="#263238" stroke="#263238" stroke-linecap="round" stroke-linejoin="round"/><path d="M117.503 51.898c2.284-1.241 4.965-2.135 6.206-.199 2.395 3.724-5.052 6.653-2.656 10.65 2.395 3.997 8.254 2.93 7.981 4.257-.274 1.328-3.985 2.123-3.985 2.123m-11.454-14.126s.732-.633 1.824-1.402" stroke="#fff" stroke-width=".5" stroke-linecap="round" stroke-linejoin="round"/><path d="M125.982 72.465a3.876 3.876 0 01-1.241-1.564c-.62-4.58-1.961-9.086-4.493-11.618a24.61 24.61 0 00-13.938-6.516 9.818 9.818 0 00-4.605.422c-6.59 2.309-12.25 6.864-11.034 17.848 1.34 12.102 10.761 15.13 10.761 15.13l.67 7.448 9.408 4.368.335-8.067s6.38 2.68 8.689 2.346c2.308-.335 3.028-3.364 4.033-7.733a32.77 32.77 0 00.547-6.045l2.817-2.805c1.601-1.626.025-2.023-1.949-3.214z" fill="#fff" stroke="#263238" stroke-linecap="round" stroke-linejoin="round"/><path d="M90.645 71.037c-1.241-10.984 4.444-15.54 11.034-17.848a9.82 9.82 0 014.605-.422 26.665 26.665 0 0110.078 3.5c-1.886-.385 1.329 5.163-1.626 8.688a27.454 27.454 0 01-9.644 7.72s-3.351-2.693-4.369 1.006c-1.017 3.699-.67 6.38 2.024 7.062 2.693.683 3.723 0 3.723 0s-1.787 4.233-4.965 5.983v-.608s-9.457-2.967-10.86-15.08z" fill="#263238" stroke="#263238" stroke-linecap="round" stroke-linejoin="round"/><path d="M116.313 95.799l-1.8 9.78-19.189-10.14 1.812-9.048 19.177 9.408zm-9.271 82.464c1.987.425 4.003.699 6.032.819 1.576-.099 3.723-1.874 5.312-1.117 1.589.757 3.811 5.536 3.811 5.536s2.11 1.067 1.501 2.197c-.608 1.129-3.214 2.172-3.214 2.172s-2.483 2.346-3.922 2.581c-1.44.236-10.215-6.206-10.215-6.206l.695-5.982z" fill="#fff" stroke="#263238" stroke-linecap="round" stroke-linejoin="round"/><path d="M107.971 182.904a3.027 3.027 0 00.645-2.543 3.034 3.034 0 00-1.575-2.099l-24.117-22.589 26.264-40.835a9.445 9.445 0 00-16.322-9.495l-22.763 45.241a6.281 6.281 0 00-.199 8.812l.087.087c2.284 3.525 27.406 21.957 34.753 24.365a3.017 3.017 0 003.227-.944zm95.422-62.517s3.115 9.644 3.115 11.518a34.012 34.012 0 01-.31 4.046l2.743 4.258a1.238 1.238 0 01-.385 1.663l-4.232 2.482s-.621 9.93-1.241 11.171c-.621 1.241-11.171.943-11.171.943l-3.426 6.529-17.749-6.839 4.667-12.772-.968-19.275s10.898-9.632 28.957-3.724z" fill="#fff" stroke="#263238" stroke-linecap="round" stroke-linejoin="round"/><path d="M191.241 143.846s-3.09 2.904-5.412 3.103c-2.321.198-9.867-1.552-10.45-2.321-.584-.77-5.797-11.605-5.61-16.831.186-5.225.397-12.958 5.994-15.465 5.598-2.507 14.51-1.75 19.152-4.642 4.642-2.892 11.99-5.225 15.862-.199 3.873 5.027.968 11.99-2.122 14.895-3.091 2.904-6.963 3.723-6.578 4.964.384 1.241 2.705 2.706 1.353 4.642-1.353 1.937-6.206 3.724-6.206 4.444 0 .72 1.166 3.488-.187 3.872-1.352.385-2.718-2.706-4.071-2.706-1.353 0-4.232 3.736-1.725 6.244z" fill="#263238" stroke="#263238" stroke-linecap="round" stroke-linejoin="round"/><path d="M183.163 134.971a9.794 9.794 0 00-1.415 2.061m26.834-22.106a12.815 12.815 0 01-7.075 10.029c-4.964 2.569-11.58 4.667-15.974 7.894m16.545-5.436s-4.407 3.723-9.123 7.558a40.17 40.17 0 01-10.612 5.896" stroke="#fff" stroke-width=".5" stroke-linecap="round" stroke-linejoin="round"/><path d="M190.933 144.366l2.482.621a8.569 8.569 0 001.874 6.541" fill="#fff"/><path d="M190.933 144.366l2.482.621a8.569 8.569 0 001.874 6.541m-1.477-13.826l17.525-4.345m-4.506-.347l3.997.174s1.377 4.517-2.781 5.039" stroke="#263238" stroke-linecap="round" stroke-linejoin="round"/><path d="M189.157 347.598s16.135 10.19 18.978 10.19c2.842 0 4.257 2.557 2.842 2.843-1.415.285-10.203.558-16.136.844-5.932.285-9.929-.286-13.318-.286-3.388 0-7.372.286-9.073-.558-1.7-.844 1.142-10.488 1.142-12.189 0-1.7 13.579-1.986 15.565-.844z" fill="#263238" stroke="#263238" stroke-linecap="round" stroke-linejoin="round"/><path d="M209.958 358.211c-6.268 2.06-16.433.707-22.54.149-4.828-.435-12.411-.534-15.502-.559-.124 1.452 0 2.557.484 2.83 1.701.844 5.672.558 9.073.558 3.401 0 7.36.571 13.318.286 5.958-.286 14.733-.571 16.135-.844 1.105-.223.584-1.688-.968-2.42z" fill="#fff" stroke="#263238" stroke-linecap="round" stroke-linejoin="round"/><path d="M201.903 277.596l-12.735 63.859 2.656 6.628a13.342 13.342 0 01-8.055 5.436 60.977 60.977 0 01-11.046 1.142s-1.415-7.087-.559-7.944c.856-.856 1.129-4.245 1.129-4.245l7.361-64.318 21.249-.558z" fill="#9468B4" stroke="#263238" stroke-linecap="round" stroke-linejoin="round"/><path d="M240.715 345.439s9.93 8.217 14.46 9.632c4.531 1.415 9.346 2.83 9.346 4.245s-10.761 2.83-18.977 1.986c-8.217-.844-20.691-4.531-23.521-4.531-2.83 0-2.271-7.372-2.271-8.502 0-1.129 13.889-10.202 20.963-2.83z" fill="#263238" stroke="#263238" stroke-linecap="round" stroke-linejoin="round"/><path d="M264.572 359.315c0-.509-.633-1.018-1.639-1.526a87.466 87.466 0 01-24.426-.174 189.975 189.975 0 01-18.469-3.6c.298 1.527.881 2.756 2.036 2.756 2.83 0 15.303 3.723 23.52 4.53 8.217.807 18.978-.571 18.978-1.986z" fill="#fff" stroke="#263238" stroke-linecap="round" stroke-linejoin="round"/><path d="M191.429 248.974a129.23 129.23 0 0125.494.571c14.447 1.7 46.73 3.723 47.289 7.372.558 3.649-25.047 80.342-25.047 82.316 0 1.973 2.259 3.972 2.829 5.101a6.54 6.54 0 01.571 2.557s-6.938 7.447-12.325 9.47c-5.386 2.023-9.929.124-11.046.124-1.117 0-1.13-7.645-.273-11.332.856-3.686 2.259-13.032 2.544-13.876.286-.844 15.801-55.382 15.801-55.382s-42.201 6.802-67.409 3.959c-25.209-2.842-27.766-6.789-29.181-12.747-1.414-5.957 1.415-17.848 1.415-17.848l49.338-.285z" fill="#9468B4" stroke="#263238" stroke-linecap="round" stroke-linejoin="round"/><path d="M188.238 267.332a18.579 18.579 0 01-1.912 2.333m9.633-17.576a107.087 107.087 0 01-5.622 11.903m2.246-9.06a30.095 30.095 0 01-14.732 12.412" stroke="#263238" stroke-linecap="round" stroke-linejoin="round"/><path d="M256.901 270.571a54.809 54.809 0 002.781-1.154l-2.781 1.154z" fill="#fff"/><path d="M256.901 270.571a54.809 54.809 0 002.781-1.154" stroke="#263238" stroke-linecap="round" stroke-linejoin="round"/><path d="M237.267 275.895a145.93 145.93 0 0016.135-4.083l-16.135 4.083z" fill="#fff"/><path d="M237.267 275.895a145.93 145.93 0 0016.135-4.083" stroke="#263238" stroke-linecap="round" stroke-linejoin="round"/><path d="M270.021 181.801c.596-2.371 1.589-2.185.794-2.967-1.092-1.092-1.973.199-5.138 1.974s-6.318 3.947-6.318 3.947a3.177 3.177 0 01.782-1.775 8.456 8.456 0 001.241-4.344c0-1.241-.993-.993-1.39.198-.397 1.192-3.947 3.352-4.145 4.345-.199.992-.907 4.89-.907 4.89-1.129 1.7-1.129 9.631-1.129 9.631l-22.999 17.278-11.618 13.653s5.102 8.216 7.932 7.087c2.829-1.13 4.244-2.271 11.046-7.944 5.759-4.803 20.194-26.958 20.194-26.958a53.572 53.572 0 007.112-5.337 17.244 17.244 0 004.295-10.426c-.054-1.09.03-2.183.248-3.252zm-106.42-26.214s2.184-8.192 11.468-6.553c9.284 1.638 16.384 9.284 18.022 12.014 1.639 2.731-30.036-1.092-30.036-1.092l.546-4.369z" fill="#fff" stroke="#263238" stroke-linecap="round" stroke-linejoin="round"/><path d="M217.12 227.129s-2.16 2.334 0 6.008c1.477 2.544 4.084 4.493 9.073 3.636 4.667-.819 11.68-12.411 11.68-20.566s-6.008-8.688-8.192-7.1c-2.185 1.589-12.561 18.022-12.561 18.022z" fill="#fff" stroke="#263238" stroke-linecap="round" stroke-linejoin="round"/><path d="M167.623 154.632s-22.093 10.488-25.208 12.411c-3.116 1.924-5.102 26.624-5.102 30.881 0 4.257 3.116 45.924 3.96 52.974.844 7.05 28.051 11.903 37.124 9.346 9.073-2.557 17.91-8.998 17.91-11.27 0-2.271-.856-21.522-.285-25.208.571-3.687 5.659-19.264 5.659-19.264l15.466 24.675s1.625 3.029 7.372.646c8.217-3.401 8.899-16.545 8.899-16.545s-9.06-15.863-11.617-23.794c-2.557-7.931-3.724-13.889-4.816-15.304-1.092-1.415-26.636-13.318-31.166-16.433a20.146 20.146 0 00-18.196-3.115z" fill="#fff" stroke="#263238" stroke-linecap="round" stroke-linejoin="round"/><path d="M201.618 204.503l-7.36-10.774m6.168 9.235l-12.97-6.392" stroke="#263238" stroke-linecap="round" stroke-linejoin="round"/><path d="M161.987 284.224l11.32 80.454a1.355 1.355 0 001.651 1.129 1.38 1.38 0 001.042-1.452l-7.981-81.459-6.032 1.328zm-32.519.632l-18.915 79.014a1.368 1.368 0 00-.014.559 1.364 1.364 0 00.618.902c.16.099.339.164.525.19a1.337 1.337 0 001.49-.968l21.969-76.68-5.673-3.017z" fill="#263238" stroke="#263238" stroke-linecap="round" stroke-linejoin="round"/><path d="M163.825 283.876l-12.039 80.342a1.37 1.37 0 00.707 1.408c.166.088.347.141.534.156a1.35 1.35 0 001.402-1.092l15.279-78.294-5.883-2.52zm42.622.347l11.32 80.454a1.354 1.354 0 001.651 1.13 1.379 1.379 0 001.042-1.453l-8.018-81.483-5.995 1.352z" fill="#263238" stroke="#263238" stroke-linecap="round" stroke-linejoin="round"/><path d="M111.558 200.729l13.777 89.576h97.979s1.452-25.817-2.867-34.939c-4.319-9.123-57.653 10.438-59.577 9.929-1.427-.36.683-46.606 3.302-64.678a8.966 8.966 0 00-2.098-7.148 8.961 8.961 0 00-6.777-3.092H120.42a8.967 8.967 0 00-6.817 3.134 8.954 8.954 0 00-2.045 7.218z" fill="#9468B4" stroke="#263238" stroke-linecap="round" stroke-linejoin="round"/><path d="M220.448 255.366c-4.32-9.123-57.653 10.439-59.577 9.93-1.428-.36.682-46.607 3.301-64.679a8.683 8.683 0 00-4.894-9.44 8.693 8.693 0 00-7.386.037 8.696 8.696 0 00-4.688 5.708 8.668 8.668 0 00-.11 3.782l13.777 89.577h62.444s1.452-25.792-2.867-34.915z" fill="#263238" stroke="#263238" stroke-linecap="round" stroke-linejoin="round"/><path d="M270.019 181.802s-1.576 1.576-3.947 4.344l3.947-4.344z" fill="#fff"/><path d="M270.019 181.802s-1.576 1.576-3.947 4.344" stroke="#263238" stroke-linecap="round" stroke-linejoin="round"/><path d="M269.773 185.003s-1.924 3.91-3.103 5.685l3.103-5.685z" fill="#fff"/><path d="M269.773 185.003s-1.924 3.91-3.103 5.685" stroke="#263238" stroke-linecap="round" stroke-linejoin="round"/><path d="M4.37 230.282c2.06.894 7.087.782 7.1.782.012 0-1.08-3.289-1.18-3.488-1.104-2.321-4.604-6.131-7.446-5.746a3.38 3.38 0 00-2.312 1.521 3.383 3.383 0 00-.407 2.736c.472 1.961 2.483 3.426 4.245 4.195z" fill="#263238"/><path d="M70.34 213.141c-2.855-.31-6.206 3.6-7.286 5.945-.087.199-1.13 3.525-1.08 3.525-.546.609-1.117 1.242-1.725 2.011-1.117 1.365-2.358 2.929-3.612 4.717a63.372 63.372 0 00-3.724 5.957 45.437 45.437 0 00-3.202 7.199.24.24 0 010 .087v-3.364c-.335-2.544-2.482-7.26-5.287-7.782a3.389 3.389 0 00-3.922 3.14c-.174 2.024 1.24 4.047 2.718 5.313 1.613 1.439 6.081 2.83 6.441 2.941a58.086 58.086 0 00-1.886 7.882 95.47 95.47 0 00-.72 4.654v-1.464c-.323-2.545-2.483-7.261-5.275-7.783a3.408 3.408 0 00-3.56 1.823 3.409 3.409 0 00-.362 1.367c-.162 2.023 1.24 4.047 2.73 5.325 1.49 1.278 5.226 2.557 6.206 2.867-.074.608-.161 1.241-.236 1.8-.335 2.879-.67 5.759-1.08 8.564a98.687 98.687 0 01-.496 2.929v-1.241c-.335-2.544-2.482-7.261-5.287-7.782a3.397 3.397 0 00-3.551 1.834 3.404 3.404 0 00-.36 1.368c-.16 2.011 1.242 4.034 2.732 5.312a21.711 21.711 0 006.02 2.768 67.271 67.271 0 01-.67 2.929c-.187.646-.311 1.242-.535 1.912a81.17 81.17 0 00-.608 1.886c-.434 1.18-.869 2.408-1.316 3.55-.31.807-.62 1.564-.918 2.321.149-.98.41-2.917.422-3.078a13.232 13.232 0 00-1.775-6.417c.03-.247.03-.497 0-.745a3.39 3.39 0 00-4.183-2.892c-2.78.733-4.53 5.598-4.667 8.155 0 .149.1 1.8.174 2.842-.136-.608-.273-1.241-.422-1.812a99.708 99.708 0 00-.956-3.723c-.198-.633-.384-1.241-.583-1.899-.198-.658-.447-1.242-.67-1.937a65.485 65.485 0 00-1.837-4.48c1.067-.261 4.865-1.241 6.392-2.396 1.527-1.154 3.128-3.078 3.115-5.101a3.386 3.386 0 00-3.723-3.475c-2.855.31-5.337 4.853-5.846 7.36 0 .161-.211 1.998-.285 3.016a86.19 86.19 0 00-1.242-2.681c-1.24-2.557-2.656-5.126-4.009-7.683l-1.24-2.358c.384-.087 4.964-1.13 6.627-2.483 1.663-1.352 3.128-3.065 3.115-5.101a3.401 3.401 0 00-3.723-3.475c-2.855.31-5.325 4.853-5.846 7.36 0 .199-.286 2.842-.31 3.525-.894-1.725-1.775-3.463-2.57-5.201a59.744 59.744 0 01-2.805-7.236c.174 0 4.965-1.117 6.678-2.482 1.514-1.167 3.128-3.078 3.103-5.101a3.39 3.39 0 00-3.724-3.476c-2.855.311-5.325 4.853-5.846 7.361 0 .198-.298 3.053-.31 3.574 0-.149-.1-.285-.149-.434a44.551 44.551 0 01-1.452-7.633 61.292 61.292 0 01-.273-4.134c.906-.111 4.964-.657 6.74-1.688 1.774-1.03 3.45-2.718 3.723-4.729a3.399 3.399 0 00-3.264-3.86c-2.88 0-5.834 4.245-6.628 6.678 0 .136-.323 1.527-.522 2.544v-1.799c0-2.172.137-4.158.273-5.908.087-1.006.187-1.912.286-2.756.832-.571 4.145-2.904 5.163-4.58 1.018-1.675 1.812-3.996 1.068-5.883a3.387 3.387 0 00-4.667-1.911c-2.557 1.315-3.227 6.441-2.805 8.973 0 .211 1.005 3.563 1.042 3.538a76.49 76.49 0 00-.322 2.631c-.174 1.763-.348 3.724-.41 5.933a62.055 62.055 0 00.174 7.025 44.364 44.364 0 001.24 7.77.236.236 0 010 .087c-.446-.708-1.774-2.644-1.898-2.781-1.676-1.936-6.057-4.704-8.688-3.574A3.4 3.4 0 00.34 239.19a3.392 3.392 0 00.318 2.747c.98 1.775 3.314 2.656 5.213 2.929 2.135.31 6.628-.993 6.988-1.092a60.625 60.625 0 002.718 7.546c.621 1.427 1.242 2.855 1.974 4.27-.41-.608-.782-1.142-.832-1.242-1.675-1.936-6.057-4.704-8.688-3.574a3.383 3.383 0 00-1.803 3.583c.08.472.259.922.525 1.32.968 1.774 3.314 2.656 5.2 2.929 1.887.273 5.772-.745 6.79-1.043.273.546.533 1.092.806 1.626 1.241 2.594 2.62 5.176 3.823 7.745.422.906.807 1.812 1.241 2.718l-.732-1.042c-1.676-1.936-6.057-4.692-8.688-3.575a3.389 3.389 0 00-1.827 2.08 3.4 3.4 0 00.325 2.748c.98 1.775 3.314 2.656 5.2 2.93a21.95 21.95 0 006.616-.993c.372.943.745 1.886 1.055 2.805.21.645.447 1.241.608 1.899.162.657.36 1.241.534 1.911.298 1.241.608 2.482.869 3.724.186.831.347 1.638.508 2.482-.422-.906-1.24-2.669-1.352-2.805-1.366-2.172-5.275-5.561-8.056-4.853a3.408 3.408 0 00-2.115 1.78 3.398 3.398 0 00-.094 2.763c.695 1.899 2.867 3.127 4.692 3.723 2.023.608 6.479 0 7.037 0 .273 1.328.51 2.632.733 3.86.744 4.258 1.24 7.845 1.501 10.339 0 .447.1.844.137 1.242h-8.688l3.152 61.525h14.72l3.153-61.525h-8.055l.186-.36a178.683 178.683 0 004.282-9.657c.534-1.241 1.068-2.644 1.601-4.058.547.111 4.965 1.005 7.013.533 1.874-.422 4.133-1.477 4.965-3.314a3.387 3.387 0 00-1.874-4.691c-2.719-.919-6.864 2.172-8.39 4.232-.088.124-.92 1.551-1.428 2.482l.658-1.737a89.638 89.638 0 001.24-3.662l.56-1.899c.21-.633.347-1.315.52-1.986.36-1.551.659-3.14.932-4.753 1.03.372 4.74 1.663 6.652 1.526 1.912-.136 4.307-.831 5.412-2.482a3.402 3.402 0 00-1.142-4.965c-2.482-1.241-7.124 1.117-8.937 2.917-.111.124-1.24 1.564-1.886 2.371.149-.969.298-1.937.422-2.93.36-2.842.62-5.734.906-8.613.087-.882.186-1.763.273-2.644.372.136 4.741 1.762 6.889 1.613 1.899-.136 4.294-.831 5.399-2.482a3.405 3.405 0 00-.059-4.034 3.406 3.406 0 00-1.083-.931c-2.483-1.303-7.112 1.117-8.937 2.917-.136.137-1.8 2.222-2.197 2.768.212-1.936.435-3.86.733-5.759a58.421 58.421 0 011.65-7.571c.174 0 4.717 1.774 6.926 1.625 1.9-.136 4.295-.844 5.4-2.482a3.385 3.385 0 00-.055-4.036 3.399 3.399 0 00-1.087-.929c-2.483-1.315-7.112 1.105-8.937 2.917-.136.137-1.924 2.383-2.222 2.805l.112-.434a44.102 44.102 0 013.004-7.174 61.06 61.06 0 012.048-3.6c.819.41 4.567 2.234 6.553 2.309 1.986.074 4.37-.36 5.66-1.924a3.383 3.383 0 00.796-2.613 3.394 3.394 0 00-1.392-2.352c-2.395-1.588-7.199.311-9.197 1.912-.112.087-1.13 1.092-1.85 1.837.323-.509.646-1.043.969-1.514a95.768 95.768 0 013.5-4.791c.62-.782 1.241-1.477 1.75-2.123 1.005 0 5.064-.149 6.839-.98 1.775-.832 3.724-2.334 4.133-4.307a3.391 3.391 0 00-1.388-4.007 3.397 3.397 0 00-1.43-.499zm-31.59 76.643a183.83 183.83 0 01-4.443 9.458l-.633 1.241h-.186c0-.434-.124-.918-.199-1.452a179.548 179.548 0 00-1.75-10.413 130.6 130.6 0 00-.906-4.27 38.073 38.073 0 003.922-1.849 24.856 24.856 0 005.722 3.723c-.509 1.204-1.03 2.42-1.527 3.562z" fill="#263238"/><path d="M55.309 231.386s.918-3.339.943-3.562c.36-2.544-.447-7.646-3.041-8.899a3.405 3.405 0 00-2.743-.016 3.397 3.397 0 00-1.862 2.014c-.695 1.899.186 4.232 1.241 5.846 1.241 1.936 5.462 4.617 5.462 4.617zm467.343 130.511H17.8v6.181h504.852v-6.181z" fill="#263238"/></svg>