<svg width="521" height="488" fill="none" xmlns="http://www.w3.org/2000/svg"><path d="M453.975 1H58.133v240.044h395.842V1z" fill="#fff" stroke="#263238" stroke-linecap="round" stroke-linejoin="round"/><path d="M286.256 32.54H71.602v18.754h214.654V32.541zm0 29.383H71.602v108.343h214.654V61.923zm157.54 78.326H298.419v86.3h145.377v-86.3zm-145.377 86.3l145.377-86.3m0 86.3l-145.377-86.3m-49.785 46.474h35.175m-97.576 0h55.095m-140.067 0h74.344m-102.885 0h19.908m31.863 9.947h159.318m-211.089 0h43.809m92.267 9.96h75.014m-149.359 0h63.727m-125.458 0h54.426m69.705 9.959h86.958m-157.991 0h62.4m-115.498 0h45.805m126.785 9.96h38.499m-129.439 0h83.635m-121.476 0h30.537m-60.405 0h17.923m-31.864 0h13.942" stroke="#263238" stroke-linecap="round" stroke-linejoin="round"/><path d="M453.975 1H58.133v17.31h395.842V1z" fill="#9468B4" stroke="#263238" stroke-linecap="round" stroke-linejoin="round"/><path d="M445.054 6.193H114.993v6.982h330.061V6.193zm-336.939 0H64.227v6.982h43.888V6.193zM476.71 42.5H326.683v85.4H476.71V42.5z" fill="#fff" stroke="#263238" stroke-linecap="round" stroke-linejoin="round"/><path d="M476.71 111.743H326.683V127.9H476.71v-16.157z" fill="#fff" stroke="#263238" stroke-linecap="round" stroke-linejoin="round"/><path d="M421.442 78.622l-39.48-22.793v45.585l39.48-22.792z" fill="#9468B4" stroke="#263238" stroke-linecap="round" stroke-linejoin="round"/><path d="M331.61 38.022h-8.632v8.632h8.632v-8.632zm149.024 0h-8.632v8.632h8.632v-8.632zM331.61 121.991h-8.632v8.633h8.632v-8.633zm149.024 0h-8.632v8.633h8.632v-8.633z" fill="#fff" stroke="#263238" stroke-linecap="round" stroke-linejoin="round"/><path d="M147.388 112.759v15.003h-3.728V94.386h3.728v15.003h8.205V94.386h3.716v33.399h-3.716v-15.003l-8.205-.023zm20.553 15.026V97.779h-6.151v-3.393h15.984v3.393h-6.151v30.006h-3.682zm24.663-.047h-3.577l-5.528-26.543v26.624h-3.243V94.386h5.193l5.493 26.636 5.298-26.67h5.193v33.398h-3.532v-26.82l-5.297 26.808zm12.649.047V94.386h3.716v30.006h9.579v3.393h-13.295zm251.261-3.878l7.975 35.775a1.251 1.251 0 001.081.876 1.254 1.254 0 001.227-.656l5.17-10.883a1.239 1.239 0 011.154-.716l12.025.658a1.256 1.256 0 001.292-1.5 1.26 1.26 0 00-.357-.658l-27.49-24.131a1.258 1.258 0 00-2.077 1.235z" fill="#263238"/><path d="M489.359 155.644h-10.767v10.767h10.767v-10.767z" fill="#fff" stroke="#263238" stroke-width=".75" stroke-linecap="round" stroke-linejoin="round"/><path d="M479.34 154.789h-1.615v1.616h1.615v-1.616zm5.471 0h-1.616v1.616h1.616v-1.616zm5.24 0h-1.615v1.616h1.615v-1.616zm-10.711 5.448h-1.615v1.616h1.615v-1.616zm5.471 0h-1.616v1.616h1.616v-1.616zm5.24 0h-1.615v1.616h1.615v-1.616zm-10.711 5.239h-1.615v1.616h1.615v-1.616zm5.471 0h-1.616v1.616h1.616v-1.616zm5.24 0h-1.615v1.616h1.615v-1.616z" fill="#263238"/><path d="M196.008 321.643l-3.416.669-9.89-48.898 3.416-.669 9.89 48.898z" fill="#fff" stroke="#263238" stroke-linecap="round" stroke-linejoin="round"/><path d="M257.358 320.673h-64.973v2.32h64.973v-2.32zm118.371 121.812H275.338v4.905h100.391v-4.905z" fill="#fff" stroke="#263238" stroke-linecap="round" stroke-linejoin="round"/><path d="M390.883 291.349s-9.51 75.383-12.141 98.741c-2.631 23.358 7.709 96.687 7.709 96.687h-6.036l-11.852-83.092h-88.562l-5.667 81.603h-4.523l7.593-94.817v-10.306a4.014 4.014 0 014.016-4.016h84.847l13.283-93.086s1.5-8.667 9.036-6.025c7.536 2.643 2.297 14.311 2.297 14.311z" fill="#263238" stroke="#263238" stroke-linecap="round" stroke-linejoin="round"/><path d="M388.621 277.038a6.292 6.292 0 00-.601-.196c.577 1.154.924 3.162.231 6.925-1.512 8.297-17.426 107.039-17.426 107.039h-93.479l-7.49 95.579h4.524l9.856-82.769h84.339l11.852 83.092h6.035s-10.386-73.318-7.709-96.687c2.678-23.37 13.918-97.022 13.918-97.022s3.497-13.329-4.05-15.961zm-90.329 20.889l-47.166 2.678-21.039 12.163-4.154 7.121 3.254.589 7.421-3.266s8.309-1.478 10.686-2.366c2.378-.889 8.875-8.021 8.875-8.021l43.854 7.121-1.731-16.019zm-68.031 145.769s-8.309 14.541-9.498 14.541c-1.188 0-10.813 2.135-18.465-1.719-7.651-3.855-13.352-6.821-15.73-3.266a26.873 26.873 0 00-2.965 5.343s7.12 10.087 13.652 13.641c6.532 3.555 9.325 1.72 16.157 5.574 6.832 3.855 7.42 6.821 13.052 5.644 5.632-1.178 8.91-19.285 10.387-21.362 1.477-2.077 7.086-13.653 7.086-13.653l-13.676-4.743z" fill="#fff" stroke="#263238" stroke-linecap="round" stroke-linejoin="round"/><path d="M222.194 456.737c-.681.923-1.154 1.5-1.431 1.5-1.154 0-10.813 2.135-18.465-1.719-7.651-3.855-13.352-6.821-15.73-3.266a26.873 26.873 0 00-2.965 5.343s7.12 10.087 13.652 13.641c6.532 3.555 9.325 1.72 16.157 5.574 6.832 3.855 7.42 6.821 13.052 5.643 4.997-1.061 8.079-15.36 9.81-20.069-5.124-1.315-10.618-4.443-14.08-6.647z" fill="#263238" stroke="#263238" stroke-linecap="round" stroke-linejoin="round"/><path d="M226.395 483.453c.169-.042.335-.096.496-.162a.962.962 0 00.162-.069l.323-.161.185-.116.288-.196.185-.15.277-.242.173-.173c.102-.095.198-.195.288-.301l.162-.184c.092-.116.196-.231.289-.358l.138-.173.335-.485.08-.115c.231-.346.451-.727.67-1.154-5.77 0-9.694-3.636-15.915-5.771-7.709-2.665-8.147-.519-13.779-4.385-5.632-3.866-6.232-6.22-6.232-6.22l4.997-7.894c-6.313-3.116-10.917-5.032-13.006-1.904a26.827 26.827 0 00-2.966 5.343s7.12 10.087 13.652 13.641c6.532 3.555 9.325 1.72 16.157 5.574 6.832 3.855 7.409 6.832 13.041 5.655z" fill="#fff" stroke="#263238" stroke-linecap="round" stroke-linejoin="round"/><path d="M239.158 369.525l-26.382 65.862 31.448 17.807s33.468-75.948 33.814-77.437c.347-1.489 6.232-2.966 6.232-2.966l24.005 3.277s-36.192-16.018-46.867-18.395c-10.675-2.378-17.807-.6-22.25 11.852z" fill="#9468B4" stroke="#263238" stroke-linecap="round" stroke-linejoin="round"/><path d="M266.544 420.753l14.841 13.941s-5.043 12.464-10.975 20.473c-5.932 8.009-6.532 12.695-3.866 14.53 2.666 1.835 8.009 1.489 11.54-.889 3.532-2.377 23.728-22.25 26.105-25.804a5.967 5.967 0 00-1.154-7.71c-.889-.6-20.461-24.039-20.461-24.039l-16.03 9.498z" fill="#fff" stroke="#263238" stroke-linecap="round" stroke-linejoin="round"/><path d="M304.224 443.004a5.966 5.966 0 00-1.154-7.709c-.415-.289-5.02-5.678-9.763-11.287-4.339 5.251-12.176 8.183-13.907 8.794l2.02 1.893s-5.043 12.464-10.975 20.473c-5.932 8.009-6.532 12.694-3.866 14.529 2.666 1.835 8.009 1.489 11.54-.888 3.532-2.378 23.728-22.25 26.105-25.805z" fill="#263238" stroke="#263238" stroke-linecap="round" stroke-linejoin="round"/><path d="M303.417 435.618a10.388 10.388 0 01-2.158 5.608c-3.554 4.444-23.439 22.839-23.439 22.839l-9.232-6.37c-4.247 6.486-4.466 10.386-2.101 12.002 2.678 1.789 8.01 1.489 11.541-.889 3.531-2.377 23.727-22.25 26.105-25.804a5.98 5.98 0 00-.716-7.386z" fill="#fff" stroke="#263238" stroke-linecap="round" stroke-linejoin="round"/><path d="M295.027 434.106a3.113 3.113 0 01-1.816 2.983 3.113 3.113 0 01-4.34-2.168 3.112 3.112 0 011.294-3.244 3.126 3.126 0 011.746-.537 3.045 3.045 0 013.116 2.966z" fill="#fff"/><path d="M304.525 327.009l-1.489 5.043s-44.789.589-64.373 5.932c-19.585 5.344-24.916 8.31-23.439 19.285 1.477 10.975 31.748 74.194 31.748 74.194a122.39 122.39 0 0017.796-6.52 112.521 112.521 0 0019.284-11.945l-22.55-43.023s25.816 5.343 54.586 8.009c28.771 2.666 40.946-.3 45.69-8.898 4.743-8.598-3.266-43.012-3.266-43.012l-53.687-1.788-.3 2.723z" fill="#9468B4" stroke="#263238" stroke-linecap="round" stroke-linejoin="round"/><path d="M241.629 355.815a17.596 17.596 0 01-2.643-3.301m22.516 17.507a131.766 131.766 0 01-17.104-11.621m20.427 36.399l2.378 1.154m-43.913-36.134a125.34 125.34 0 0037.415 32.717m86.877-45.861a33.497 33.497 0 013.22 2.85m-44.8-16.883s21.742 1.685 37.091 10.94m-7.421-5.898s14.241.3 19.873 6.232" stroke="#263238" stroke-linecap="round" stroke-linejoin="round"/><path d="M308.679 238.008s-10.087 30.006-11.541 39.157c-1.454 9.152-.588 49.244-.588 49.244s23.727 7.12 37.079 5.643c13.353-1.477 30.006-4.154 30.006-4.154s-2.966-53.087-5.632-71.494c-2.666-18.407-8.898-29.083-14.829-33.526a92.752 92.752 0 00-12.464-7.72l-22.031 22.85z" fill="#263238" stroke="#263238" stroke-linecap="round" stroke-linejoin="round"/><path d="M256.459 191.731a32.101 32.101 0 003.866 10.675c2.966 4.743 7.12 6.82 5.932 11.54-1.189 4.72-1.154 8.01 2.308 8.298l3.566.3s7.12 12.164 12.464 12.164c5.343 0 20.507-13.606 20.507-13.606s-8.009-37.68-8.009-38.869-42.423 4.455-42.423 4.455l1.789 5.043z" fill="#fff" stroke="#263238" stroke-linecap="round" stroke-linejoin="round"/><path d="M274.115 206.976c.565 1.154.369 2.458-.45 2.85-.82.392-1.928-.254-2.493-1.442-.566-1.189-.369-2.459.45-2.839.819-.381 1.927.253 2.493 1.431z" fill="#263238"/><path d="M266.844 203.594s-.3-4.154 5.932-3.266m2.736 23.197c.184.658 7.247.266 6.162-5.989" stroke="#263238" stroke-linecap="round" stroke-linejoin="round"/><path d="M316.642 177.778c-.981-12.013-15.937-7.409-22.943-3.773l-.196-.37-28.182 8.01a5.587 5.587 0 002.666 5.931 41.108 41.108 0 0020.185 7.906c2.1 12.556 5.031 31.321 5.031 38.372 0 10.975-4.154 15.13-4.154 15.13s18.984-5.932 30.005-16.319a99.4 99.4 0 0016.619-20.173s-17.796-20.172-19.031-34.714z" fill="#9468B4" stroke="#263238" stroke-linecap="round" stroke-linejoin="round"/><path d="M288.217 195.481l-.842-3.923m14.923 31.229c.242 1.35.438 2.608.577 3.704m-7.917-34.933s4.189 15.476 6.555 27.097m7.455-23.208l5.759 15.222m-8.23-21.754l1.489 3.935m5.759-3.6l2.631 6.589" stroke="#263238" stroke-linecap="round" stroke-linejoin="round"/><path d="M253.55 191.269s-19.85 10.537-13.237 10.537c6.613 0 39.711-13.676 41.027-13.676 1.315 0-22.055 2.251-27.79 3.139z" fill="#757575" stroke="#263238" stroke-linecap="round" stroke-linejoin="round"/><path d="M253.549 191.269s-11.875 3.762-6.578-9.036c5.297-12.799 41.362-31.448 56.364-31.448 15.003 0 26.094 22.388 23.889 29.451-2.204 7.063-7.062 7.94-9.232 7.94-2.17 0-64.443 3.093-64.443 3.093z" fill="#757575" stroke="#263238" stroke-linecap="round" stroke-linejoin="round"/><path d="M259.285 187.299s21.616.438 40.15-2.204c18.534-2.643 26.024-5.298 26.024-5.298m-2.643 5.736l-29.117.439" stroke="#263238" stroke-linecap="round" stroke-linejoin="round"/><path d="M304.524 302.082l-3.854 3.589s-48.067-6.232-51.333-5.344c-3.266.889-14.829 4.155-14.829 4.155l-9.233.589-7.409 12.463h2.366l5.343-7.42h3.359l-5.644 6.532-2.435 3.531 8.298.3 1.212-1.027 4.731-4.016-1.488 4.455h1.777l4.154-7.121 5.644-2.966 5.932-4.154s60.518 21.061 61.996 21.927c1.477.865 4.754 3.266 7.42.888 2.666-2.377 9.787-22.25 9.787-22.25l-25.794-4.131z" fill="#fff" stroke="#263238" stroke-linecap="round" stroke-linejoin="round"/><path d="M224.571 319.773a41.426 41.426 0 008.079-8.436s.404-3.127 3.127-3.624m-.67 7.721l1.339-5.158 1.477-1.189m-8.989 1.004a16.455 16.455 0 012.815-3.393c1.005-.6 1.616-.9 1.616-.9" stroke="#263238" stroke-linecap="round" stroke-linejoin="round"/><path d="M279.135 315.434c16.064 5.632 33.214 11.702 34.044 12.164 1.489.888 4.755 3.266 7.421.888 2.666-2.377 9.786-22.25 9.786-22.25l-25.804-4.154-3.913 3.589s-8.84-1.154-19.18-2.389l-2.354 12.152z" fill="#757575" stroke="#263238" stroke-linecap="round" stroke-linejoin="round"/><path d="M313.18 256.993l-12.81 43.011s1.154 5.944 13.053 9.233a73.858 73.858 0 0020.172 2.966l9.498-53.398" fill="#263238"/><path d="M313.18 256.993l-12.81 43.011s1.154 5.944 13.053 9.233a73.858 73.858 0 0020.172 2.966l9.498-53.398" stroke="#263238" stroke-linecap="round" stroke-linejoin="round"/><path d="M312.326 260.87l-11.575 35.88m39.838-24.385l-5.69 36.537m6.936-44.569l-.623 4.016" stroke="#707070" stroke-linecap="round" stroke-linejoin="round"/><path d="M206.431 325.868h-10.386v154.413h10.386V325.868z" fill="#263238" stroke="#263238" stroke-linecap="round" stroke-linejoin="round"/><path d="M277.232 323.144H122.635v6.382h154.597v-6.382zm-20.333 163.449H145.602a6.394 6.394 0 016.382-6.382h98.533a6.393 6.393 0 016.382 6.382z" fill="#757575" stroke="#263238" stroke-linecap="round" stroke-linejoin="round"/><path d="M167.319 324.275h-20.311l-3.047-37.991h26.405l-3.047 37.991z" fill="#9468B4" stroke="#263238" stroke-linecap="round" stroke-linejoin="round"/><path d="M171.45 282.533h-29.336v8.655h29.336v-8.655zm-3.288 31.205l1.119-13.906h-24.235l1.119 13.906h21.997z" fill="#fff" stroke="#263238" stroke-linecap="round" stroke-linejoin="round"/><path d="M497.056 486.778h13.848m-36.928 0h14.622m-366.218 0h343.136m-437.999 0H111.6" stroke="#263238" stroke-linecap="round" stroke-linejoin="round"/></svg>