<svg width="551" height="410" viewBox="0 0 551 410" fill="none" xmlns="http://www.w3.org/2000/svg">
<path d="M550.999 360.248H0.834961V360.523H550.999V360.248Z" fill="#EBEBEB"/>
<path d="M495.874 377.952H459.431V378.227H495.874V377.952Z" fill="#EBEBEB"/>
<path d="M365.286 380.944H355.725V381.219H365.286V380.944Z" fill="#EBEBEB"/>
<path d="M458.329 367.741H437.214V368.016H458.329V367.741Z" fill="#EBEBEB"/>
<path d="M106.082 369.589H58.5586V369.864H106.082V369.589Z" fill="#EBEBEB"/>
<path d="M122.85 369.589H115.885V369.864H122.85V369.589Z" fill="#EBEBEB"/>
<path d="M248.574 374.233H145.495V374.508H248.574V374.233Z" fill="#EBEBEB"/>
<path d="M261.613 311.173H49.1508C47.4864 311.17 45.8911 310.507 44.7152 309.329C43.5393 308.151 42.8789 306.555 42.8789 304.89V6.22786C42.8934 4.57299 43.5602 2.99067 44.7345 1.82459C45.9089 0.658501 47.4959 0.00283487 49.1508 0H261.613C263.28 0 264.878 0.661944 266.056 1.84021C267.234 3.01848 267.896 4.61655 267.896 6.28288V304.89C267.896 306.556 267.234 308.155 266.056 309.333C264.878 310.511 263.28 311.173 261.613 311.173ZM49.1508 0.220067C47.5593 0.222981 46.034 0.857228 44.9097 1.98359C43.7854 3.10996 43.154 4.6364 43.154 6.22786V304.89C43.154 306.482 43.7854 308.008 44.9097 309.134C46.034 310.261 47.5593 310.895 49.1508 310.898H261.613C263.206 310.895 264.732 310.261 265.858 309.135C266.984 308.009 267.618 306.483 267.621 304.89V6.22786C267.618 4.63539 266.984 3.10897 265.858 1.98292C264.732 0.85687 263.206 0.222975 261.613 0.220067H49.1508Z" fill="#EBEBEB"/>
<path d="M499.625 311.173H287.151C285.486 311.17 283.889 310.507 282.712 309.33C281.534 308.152 280.871 306.556 280.868 304.89V6.22786C280.886 4.57199 281.555 2.98968 282.731 1.8239C283.907 0.658116 285.495 0.00280396 287.151 0H499.625C501.278 0.00572666 502.862 0.662672 504.034 1.82845C505.206 2.99422 505.871 4.57489 505.885 6.22786V304.89C505.885 306.553 505.227 308.147 504.053 309.325C502.879 310.503 501.287 311.167 499.625 311.173ZM287.151 0.220067C285.559 0.222975 284.032 0.85687 282.906 1.98292C281.78 3.10897 281.146 4.63539 281.143 6.22786V304.89C281.146 306.483 281.78 308.009 282.906 309.135C284.032 310.261 285.559 310.895 287.151 310.898H499.625C501.217 310.895 502.743 310.261 503.869 309.135C504.996 308.009 505.629 306.483 505.632 304.89V6.22786C505.629 4.63539 504.996 3.10897 503.869 1.98292C502.743 0.85687 501.217 0.222975 499.625 0.220067H287.151Z" fill="#EBEBEB"/>
<path d="M390.275 47.4677C390.277 46.757 390.137 46.053 389.864 45.3967C389.592 44.7403 389.191 44.1446 388.687 43.6441C388.182 43.1436 387.583 42.7483 386.925 42.481C386.266 42.2137 385.561 42.0798 384.85 42.0871C384.325 42.087 383.803 42.161 383.299 42.3072C383.378 41.7606 383.419 41.209 383.42 40.6567C383.42 37.6439 382.226 34.7539 380.1 32.6194C377.974 30.4849 375.088 29.2799 372.076 29.2683C371.371 29.269 370.668 29.3316 369.974 29.4553C368.851 27.6096 367.158 26.1794 365.15 25.3803C363.143 24.5813 360.93 24.4568 358.845 25.0257C356.761 25.5946 354.918 26.8261 353.595 28.5342C352.272 30.2423 351.54 32.3344 351.51 34.4948H351.345C348.965 34.5773 346.71 35.5808 345.055 37.2938C343.4 39.0068 342.476 41.2954 342.476 43.6771C342.476 46.0588 343.4 48.3474 345.055 50.0604C346.71 51.7734 348.965 52.7769 351.345 52.8593H385.038C386.441 52.8192 387.773 52.2335 388.751 51.2267C389.729 50.2199 390.276 48.8714 390.275 47.4677Z" fill="#F0F0F0"/>
<path d="M370.491 55.512V45.0259H361.942V55.512H354.977L366.222 65.0189L377.467 55.512H370.491Z" fill="#E0E0E0"/>
<path d="M221.649 63.3345C221.649 60.3043 220.446 57.3981 218.304 55.2545C216.163 53.1108 213.258 51.905 210.227 51.9021C209.109 51.9037 207.998 52.0668 206.926 52.3862C207.104 51.2247 207.192 50.0512 207.19 48.8762C207.19 42.456 204.64 36.2988 200.1 31.7591C195.561 27.2193 189.403 24.669 182.983 24.669C181.488 24.6686 179.996 24.8086 178.527 25.0871C176.142 21.166 172.547 18.127 168.284 16.4287C164.02 14.7304 159.32 14.465 154.893 15.6724C150.465 16.8799 146.551 19.4948 143.74 23.1224C140.929 26.7501 139.375 31.1936 139.311 35.7823H138.959C136.36 35.7205 133.775 36.179 131.357 37.1309C128.938 38.0827 126.733 39.5086 124.874 41.3248C123.014 43.1409 121.536 45.3106 120.527 47.7063C119.518 50.1019 118.998 52.6751 118.998 55.2746C118.998 57.8741 119.518 60.4473 120.527 62.8429C121.536 65.2386 123.014 67.4083 124.874 69.2244C126.733 71.0406 128.938 72.4665 131.357 73.4183C133.775 74.3702 136.36 74.8287 138.959 74.7669H210.535C213.513 74.6866 216.341 73.4464 218.417 71.3107C220.493 69.1751 221.653 66.3129 221.649 63.3345Z" fill="#F0F0F0"/>
<path d="M161.483 64.2152V86.4969H179.649V64.2152H194.449L170.561 44.0352L146.684 64.2152H161.483Z" fill="#E0E0E0"/>
<path d="M230.771 118.979V89.0166H322.517V118.681" stroke="#E6E6E6" stroke-miterlimit="10"/>
<path d="M277.997 60.7822V118.902" stroke="#E6E6E6" stroke-miterlimit="10"/>
<path d="M293.61 49.3716H262.405C261.682 49.3716 261.096 49.9578 261.096 50.681V69.2435C261.096 69.9667 261.682 70.5529 262.405 70.5529H293.61C294.334 70.5529 294.92 69.9667 294.92 69.2435V50.681C294.92 49.9578 294.334 49.3716 293.61 49.3716Z" fill="#F0F0F0"/>
<path d="M293.28 51.8584H262.724C262.469 51.8584 262.262 52.0653 262.262 52.3205V69.2436C262.262 69.4988 262.469 69.7057 262.724 69.7057H293.28C293.535 69.7057 293.742 69.4988 293.742 69.2436V52.3205C293.742 52.0653 293.535 51.8584 293.28 51.8584Z" fill="#E0E0E0"/>
<path d="M246.374 116.261H215.169C214.446 116.261 213.859 116.847 213.859 117.57V136.133C213.859 136.856 214.446 137.442 215.169 137.442H246.374C247.097 137.442 247.683 136.856 247.683 136.133V117.57C247.683 116.847 247.097 116.261 246.374 116.261Z" fill="#F0F0F0"/>
<path d="M246.043 118.748H215.487C215.231 118.748 215.024 118.954 215.024 119.21V136.133C215.024 136.388 215.231 136.595 215.487 136.595H246.043C246.298 136.595 246.505 136.388 246.505 136.133V119.21C246.505 118.954 246.298 118.748 246.043 118.748Z" fill="#E0E0E0"/>
<path d="M293.61 116.261H262.405C261.682 116.261 261.096 116.847 261.096 117.57V136.133C261.096 136.856 261.682 137.442 262.405 137.442H293.61C294.334 137.442 294.92 136.856 294.92 136.133V117.57C294.92 116.847 294.334 116.261 293.61 116.261Z" fill="#F0F0F0"/>
<path d="M293.28 118.748H262.724C262.469 118.748 262.262 118.954 262.262 119.21V136.133C262.262 136.388 262.469 136.595 262.724 136.595H293.28C293.535 136.595 293.742 136.388 293.742 136.133V119.21C293.742 118.954 293.535 118.748 293.28 118.748Z" fill="#E0E0E0"/>
<path d="M338.196 116.261H306.991C306.268 116.261 305.682 116.847 305.682 117.57V136.133C305.682 136.856 306.268 137.442 306.991 137.442H338.196C338.92 137.442 339.506 136.856 339.506 136.133V117.57C339.506 116.847 338.92 116.261 338.196 116.261Z" fill="#F0F0F0"/>
<path d="M337.866 118.748H307.31C307.055 118.748 306.848 118.954 306.848 119.21V136.133C306.848 136.388 307.055 136.595 307.31 136.595H337.866C338.121 136.595 338.328 136.388 338.328 136.133V119.21C338.328 118.954 338.121 118.748 337.866 118.748Z" fill="#E0E0E0"/>
<path d="M277.365 79.9397L268.915 88.3893C268.567 88.7374 268.567 89.3017 268.915 89.6497L277.365 98.0994C277.713 98.4474 278.277 98.4474 278.625 98.0994L287.075 89.6497C287.423 89.3017 287.423 88.7374 287.075 88.3893L278.625 79.9397C278.277 79.5916 277.713 79.5916 277.365 79.9397Z" fill="#E0E0E0"/>
<path opacity="0.8" d="M98.8626 74.437H76.845C76.3163 74.437 75.8877 74.8656 75.8877 75.3943V87.817C75.8877 88.3457 76.3163 88.7743 76.845 88.7743H98.8626C99.3913 88.7743 99.8199 88.3457 99.8199 87.817V75.3943C99.8199 74.8656 99.3913 74.437 98.8626 74.437Z" fill="#E0E0E0"/>
<path d="M82.0606 105.279H64.6204C64.0917 105.279 63.6631 105.708 63.6631 106.237V115.27C63.6631 115.799 64.0917 116.228 64.6204 116.228H82.0606C82.5893 116.228 83.0179 115.799 83.0179 115.27V106.237C83.0179 105.708 82.5893 105.279 82.0606 105.279Z" fill="#E0E0E0"/>
<path d="M111.429 105.279H93.9885C93.4598 105.279 93.0312 105.708 93.0312 106.237V115.27C93.0312 115.799 93.4598 116.228 93.9885 116.228H111.429C111.957 116.228 112.386 115.799 112.386 115.27V106.237C112.386 105.708 111.957 105.279 111.429 105.279Z" fill="#E0E0E0"/>
<path d="M93.3726 128.453H85.1311C84.6024 128.453 84.1738 128.881 84.1738 129.41V136.848C84.1738 137.377 84.6024 137.805 85.1311 137.805H93.3726C93.9013 137.805 94.3299 137.377 94.3299 136.848V129.41C94.3299 128.881 93.9013 128.453 93.3726 128.453Z" fill="#E0E0E0"/>
<path d="M106.268 128.453H98.0266C97.4979 128.453 97.0693 128.881 97.0693 129.41V136.848C97.0693 137.377 97.4979 137.805 98.0266 137.805H106.268C106.797 137.805 107.225 137.377 107.225 136.848V129.41C107.225 128.881 106.797 128.453 106.268 128.453Z" fill="#E0E0E0"/>
<path d="M119.175 128.453H110.934C110.405 128.453 109.977 128.881 109.977 129.41V136.848C109.977 137.377 110.405 137.805 110.934 137.805H119.175C119.704 137.805 120.133 137.377 120.133 136.848V129.41C120.133 128.881 119.704 128.453 119.175 128.453Z" fill="#E0E0E0"/>
<path d="M63.52 128.453H55.2786C54.7499 128.453 54.3213 128.881 54.3213 129.41V136.848C54.3213 137.377 54.7499 137.805 55.2786 137.805H63.52C64.0487 137.805 64.4773 137.377 64.4773 136.848V129.41C64.4773 128.881 64.0487 128.453 63.52 128.453Z" fill="#E0E0E0"/>
<path d="M77.5161 128.453H69.2747C68.746 128.453 68.3174 128.881 68.3174 129.41V136.848C68.3174 137.377 68.746 137.805 69.2747 137.805H77.5161C78.0448 137.805 78.4734 137.377 78.4734 136.848V129.41C78.4734 128.881 78.0448 128.453 77.5161 128.453Z" fill="#E0E0E0"/>
<path d="M101.604 105.279H102.704V97.577H88.3997V88.7744H87.2994V97.577H72.9951V105.279H74.0954V98.6774H101.604V105.279Z" fill="#E0E0E0"/>
<path d="M72.9947 122.885H58.6904V128.386H59.7908V123.985H72.9947V128.386H74.095V116.283H72.9947V122.885Z" fill="#E0E0E0"/>
<path d="M102.703 123.985V116.283H101.602V123.985H88.3984V128.386H89.4988V125.085H101.602V128.386H102.703V125.085H114.806V128.386H115.907V123.985H102.703Z" fill="#E0E0E0"/>
<path d="M420.061 77.8811V85.8254L424.132 86.2106C424.678 88.8145 425.708 91.2928 427.169 93.5167L424.55 96.6747L430.14 102.264L433.298 99.6456C435.519 101.111 437.998 102.141 440.604 102.682L440.967 106.732H448.867L449.252 102.66C451.858 102.119 454.337 101.089 456.558 99.6235L459.716 102.242L465.306 96.6527L462.698 93.5277C464.159 91.3038 465.189 88.8255 465.735 86.2215L469.806 85.8364V77.9361L465.735 77.551C465.191 74.9498 464.161 72.4747 462.698 70.2558L465.317 67.0978L459.727 61.5082L456.569 64.1159C454.346 62.6553 451.867 61.6252 449.263 61.079L448.878 57.0078H440.967L440.582 61.079C437.978 61.6252 435.499 62.6553 433.276 64.1159L430.118 61.5082L424.528 67.0978L427.147 70.2558C425.684 72.4747 424.654 74.9498 424.11 77.551L420.061 77.8811ZM444.939 71.136C447.057 71.136 449.127 71.7642 450.888 72.9411C452.649 74.118 454.021 75.7908 454.831 77.7477C455.641 79.7046 455.853 81.8579 455.439 83.935C455.025 86.0121 454.004 87.9197 452.506 89.4166C451.007 90.9134 449.098 91.9322 447.021 92.3441C444.943 92.7559 442.79 92.5423 440.834 91.7303C438.878 90.9183 437.207 89.5444 436.032 87.7823C434.857 86.0202 434.231 83.9492 434.233 81.8312C434.236 78.9956 435.363 76.2769 437.369 74.2718C439.374 72.2667 442.092 71.139 444.928 71.136H444.939Z" fill="#F5F5F5"/>
<path d="M425.154 135.561C427.195 135.132 429.136 134.321 430.876 133.173L433.352 135.231L437.753 130.829L435.706 128.353C436.85 126.612 437.656 124.671 438.083 122.632L441.274 122.324V116.129L438.083 115.832C437.658 113.792 436.852 111.851 435.706 110.11L437.753 107.634L433.352 103.233L430.876 105.28C429.135 104.134 427.194 103.328 425.154 102.903L424.857 99.7119H418.662L418.365 102.903C416.325 103.328 414.384 104.134 412.644 105.28L410.157 103.277L405.755 107.678L407.802 110.154C406.657 111.895 405.851 113.836 405.425 115.876L402.234 116.173V122.368L405.425 122.676C405.853 124.715 406.659 126.656 407.802 128.397L405.755 130.851L410.157 135.253L412.632 133.195C414.373 134.343 416.314 135.154 418.354 135.583L418.651 138.763H424.846L425.154 135.561ZM413.37 119.254C413.368 117.593 413.858 115.969 414.779 114.586C415.7 113.204 417.011 112.127 418.545 111.489C420.079 110.852 421.767 110.685 423.396 111.007C425.026 111.33 426.523 112.129 427.698 113.302C428.873 114.476 429.674 115.972 429.999 117.601C430.323 119.23 430.158 120.918 429.523 122.453C428.888 123.988 427.812 125.3 426.431 126.223C425.05 127.146 423.426 127.638 421.765 127.638C419.54 127.638 417.407 126.755 415.833 125.183C414.258 123.611 413.373 121.478 413.37 119.254Z" fill="#F5F5F5"/>
<path d="M411.335 102.034L413.414 103.75L417.101 100.075L415.373 97.9955C416.338 96.5334 417.017 94.9019 417.376 93.1871L420.049 92.934V87.7405L417.376 87.4874C417.017 85.7726 416.338 84.1411 415.373 82.679L417.101 80.5993L413.458 76.9242L411.379 78.6408C409.92 77.6781 408.292 76.9987 406.581 76.6382L406.328 73.9644H401.124L400.871 76.6382C399.156 76.9964 397.524 77.6759 396.062 78.6408L393.983 76.9242L390.308 80.5993L392.024 82.679C391.063 84.1418 390.387 85.7733 390.032 87.4874L387.348 87.7405V92.934L390.032 93.1871C390.387 94.9012 391.063 96.5327 392.024 97.9955L390.264 100.13L393.939 103.805L396.018 102.089C397.479 103.055 399.111 103.731 400.827 104.08L401.08 106.765H406.284L406.537 104.08C408.253 103.712 409.882 103.017 411.335 102.034ZM396.634 90.3373C396.634 88.9445 397.047 87.5829 397.821 86.4249C398.595 85.2668 399.695 84.3642 400.982 83.8312C402.268 83.2982 403.684 83.1587 405.05 83.4304C406.416 83.7022 407.671 84.3729 408.656 85.3577C409.641 86.3426 410.312 87.5974 410.583 88.9634C410.855 90.3294 410.716 91.7454 410.183 93.0322C409.65 94.3189 408.747 95.4187 407.589 96.1925C406.431 96.9663 405.069 97.3794 403.677 97.3794C401.809 97.3794 400.018 96.6374 398.697 95.3168C397.376 93.9961 396.634 92.2049 396.634 90.3373Z" fill="#F5F5F5"/>
<path d="M484.309 296.021H410.422V344.073H484.309V296.021Z" fill="#F5F5F5"/>
<path d="M481.591 305.033H413.117V341.674H481.591V305.033Z" fill="#E0E0E0"/>
<path d="M469.354 310.513H418.695V312.087H469.354V310.513Z" fill="#F5F5F5"/>
<path d="M443.002 315.332H418.695V316.906H443.002V315.332Z" fill="#F5F5F5"/>
<path d="M449.306 320.163H418.695V321.736H449.306V320.163Z" fill="#F5F5F5"/>
<path d="M429.479 324.993H418.695V326.567H429.479V324.993Z" fill="#F5F5F5"/>
<path d="M425.682 329.824H418.695V331.397H425.682V329.824Z" fill="#F5F5F5"/>
<path d="M106.014 295.75L53.4404 295.988L53.5876 328.415L106.161 328.176L106.014 295.75Z" fill="#EBEBEB"/>
<path d="M73.61 320.262C73.377 320.263 73.1496 320.19 72.9608 320.053L63.377 313.044C63.2383 312.943 63.1253 312.81 63.0469 312.657C62.9686 312.504 62.9271 312.335 62.9258 312.164C62.9241 311.991 62.9631 311.82 63.0395 311.665C63.116 311.511 63.2278 311.376 63.366 311.272L72.8948 304.175C73.1297 304.002 73.424 303.928 73.7129 303.972C74.0018 304.015 74.2616 304.171 74.4353 304.406C74.6089 304.641 74.6821 304.935 74.6388 305.224C74.5954 305.513 74.4391 305.773 74.2042 305.947L65.8747 312.153L74.2592 318.27C74.4478 318.407 74.5883 318.6 74.6603 318.821C74.7324 319.043 74.7323 319.281 74.6601 319.503C74.588 319.724 74.4474 319.917 74.2587 320.053C74.07 320.19 73.8429 320.263 73.61 320.262Z" fill="#FAFAFA"/>
<path d="M86.0663 320.196C85.8936 320.198 85.7229 320.159 85.5681 320.082C85.4133 320.006 85.2786 319.894 85.175 319.756C85.0889 319.639 85.0265 319.507 84.9915 319.367C84.9565 319.227 84.9496 319.081 84.971 318.938C84.9925 318.794 85.042 318.657 85.1166 318.533C85.1913 318.409 85.2896 318.301 85.4061 318.215L93.7356 312.009L85.3511 305.892C85.1161 305.718 84.9598 305.458 84.9165 305.169C84.8732 304.88 84.9464 304.586 85.12 304.351C85.2936 304.116 85.5535 303.96 85.8424 303.916C86.1313 303.873 86.4255 303.946 86.6605 304.12L96.2443 311.118C96.3845 311.221 96.4984 311.355 96.5769 311.51C96.6553 311.664 96.6959 311.836 96.6955 312.009C96.6955 312.18 96.6557 312.349 96.5793 312.501C96.5029 312.654 96.392 312.787 96.2553 312.89L86.7265 319.987C86.5346 320.126 86.3031 320.199 86.0663 320.196Z" fill="#FAFAFA"/>
<path d="M77.3294 320.25C77.2056 320.249 77.0828 320.227 76.9663 320.184C76.6927 320.087 76.4686 319.886 76.3429 319.624C76.2171 319.362 76.2 319.061 76.2951 318.787L81.2356 304.659C81.2833 304.522 81.3574 304.396 81.4537 304.288C81.55 304.18 81.6667 304.093 81.7969 304.03C81.9272 303.967 82.0686 303.93 82.213 303.922C82.3574 303.914 82.502 303.934 82.6385 303.982C82.7751 304.03 82.9009 304.104 83.0088 304.2C83.1167 304.296 83.2046 304.413 83.2674 304.543C83.3303 304.674 83.3668 304.815 83.375 304.959C83.3832 305.104 83.3629 305.248 83.3152 305.385L78.3748 319.513C78.2991 319.73 78.1576 319.917 77.9702 320.049C77.7828 320.181 77.5588 320.252 77.3294 320.25Z" fill="#FAFAFA"/>
<path d="M275.918 409.939C393.744 409.939 489.261 404.362 489.261 397.483C489.261 390.604 393.744 385.027 275.918 385.027C158.092 385.027 62.5752 390.604 62.5752 397.483C62.5752 404.362 158.092 409.939 275.918 409.939Z" fill="#F5F5F5"/>
<path d="M368.764 397.483H376.851L387.854 336.701H379.767L368.764 397.483Z" fill="#263238"/>
<path opacity="0.2" d="M368.764 397.483H376.851L387.854 336.701H379.767L368.764 397.483Z" fill="white"/>
<path opacity="0.2" d="M368.764 397.483H374.65L385.654 336.701H379.767L368.764 397.483Z" fill="white"/>
<path d="M345.998 354.779H378.337C378.572 354.78 378.804 354.735 379.021 354.646C379.238 354.557 379.435 354.426 379.601 354.26C379.767 354.094 379.898 353.897 379.987 353.68C380.076 353.463 380.121 353.231 380.12 352.996C380.121 352.762 380.076 352.529 379.987 352.313C379.898 352.096 379.767 351.899 379.601 351.733C379.435 351.567 379.238 351.436 379.021 351.347C378.804 351.258 378.572 351.212 378.337 351.214H345.998C345.764 351.212 345.531 351.258 345.315 351.347C345.098 351.436 344.901 351.567 344.735 351.733C344.569 351.899 344.438 352.096 344.349 352.313C344.259 352.529 344.214 352.762 344.216 352.996C344.214 353.231 344.259 353.463 344.349 353.68C344.438 353.897 344.569 354.094 344.735 354.26C344.901 354.426 345.098 354.557 345.315 354.646C345.531 354.735 345.764 354.78 345.998 354.779Z" fill="#263238"/>
<path d="M342.401 375.135H374.75C375.224 375.132 375.678 374.942 376.011 374.606C376.345 374.27 376.533 373.815 376.533 373.342C376.53 372.87 376.341 372.418 376.008 372.084C375.674 371.751 375.222 371.562 374.75 371.559H342.401C341.929 371.562 341.477 371.751 341.143 372.084C340.81 372.418 340.621 372.87 340.618 373.342C340.618 373.815 340.806 374.27 341.14 374.606C341.474 374.942 341.927 375.132 342.401 375.135Z" fill="#263238"/>
<path d="M335.754 397.483H343.841L354.845 336.701H346.757L335.754 397.483Z" fill="#263238"/>
<path opacity="0.2" d="M335.754 397.483H343.841L354.845 336.701H346.757L335.754 397.483Z" fill="white"/>
<path opacity="0.2" d="M335.754 397.483H341.641L352.644 336.701H346.757L335.754 397.483Z" fill="white"/>
<path d="M410.962 397.483H402.874L391.871 336.701H399.959L410.962 397.483Z" fill="#263238"/>
<path opacity="0.4" d="M410.962 397.483H402.874L391.871 336.701H399.959L410.962 397.483Z" fill="white"/>
<path opacity="0.2" d="M408.761 397.483H402.874L391.871 336.701H397.758L408.761 397.483Z" fill="white"/>
<path d="M396.756 354.779H364.407C363.934 354.779 363.48 354.591 363.146 354.257C362.812 353.923 362.624 353.469 362.624 352.996C362.624 352.524 362.812 352.07 363.146 351.736C363.48 351.402 363.934 351.214 364.407 351.214H396.756C397.229 351.214 397.682 351.402 398.017 351.736C398.351 352.07 398.539 352.524 398.539 352.996C398.539 353.469 398.351 353.923 398.017 354.257C397.682 354.591 397.229 354.779 396.756 354.779Z" fill="#263238"/>
<path d="M400.344 375.135H368.005C367.77 375.135 367.538 375.089 367.321 374.998C367.104 374.908 366.907 374.776 366.741 374.609C366.575 374.443 366.444 374.245 366.355 374.027C366.266 373.81 366.221 373.577 366.223 373.342C366.223 372.869 366.41 372.415 366.745 372.081C367.079 371.747 367.532 371.559 368.005 371.559H400.344C400.817 371.559 401.27 371.747 401.604 372.081C401.939 372.415 402.126 372.869 402.126 373.342C402.128 373.577 402.083 373.81 401.994 374.027C401.905 374.245 401.774 374.443 401.608 374.609C401.443 374.776 401.246 374.908 401.029 374.998C400.812 375.089 400.579 375.135 400.344 375.135Z" fill="#263238"/>
<path opacity="0.2" d="M396.756 354.779H364.407C363.934 354.779 363.48 354.591 363.146 354.257C362.812 353.923 362.624 353.469 362.624 352.996C362.624 352.524 362.812 352.07 363.146 351.736C363.48 351.402 363.934 351.214 364.407 351.214H396.756C397.229 351.214 397.682 351.402 398.017 351.736C398.351 352.07 398.539 352.524 398.539 352.996C398.539 353.469 398.351 353.923 398.017 354.257C397.682 354.591 397.229 354.779 396.756 354.779Z" fill="white"/>
<path opacity="0.2" d="M400.344 375.135H368.005C367.77 375.135 367.538 375.089 367.321 374.998C367.104 374.908 366.907 374.776 366.741 374.609C366.575 374.443 366.444 374.245 366.355 374.027C366.266 373.81 366.221 373.577 366.223 373.342C366.223 372.869 366.41 372.415 366.745 372.081C367.079 371.747 367.532 371.559 368.005 371.559H400.344C400.817 371.559 401.27 371.747 401.604 372.081C401.939 372.415 402.126 372.869 402.126 373.342C402.128 373.577 402.083 373.81 401.994 374.027C401.905 374.245 401.774 374.443 401.608 374.609C401.443 374.776 401.246 374.908 401.029 374.998C400.812 375.089 400.579 375.135 400.344 375.135Z" fill="white"/>
<path d="M377.951 397.483H369.864L358.86 336.701H366.948L377.951 397.483Z" fill="#263238"/>
<path opacity="0.4" d="M377.951 397.483H369.864L358.86 336.701H366.948L377.951 397.483Z" fill="white"/>
<path opacity="0.2" d="M375.75 397.483H369.864L358.86 336.701H364.747L375.75 397.483Z" fill="white"/>
<path d="M403.105 333.796H344.688C343.965 333.796 343.379 334.382 343.379 335.105V338.285C343.379 339.008 343.965 339.595 344.688 339.595H403.105C403.828 339.595 404.414 339.008 404.414 338.285V335.105C404.414 334.382 403.828 333.796 403.105 333.796Z" fill="#263238"/>
<path opacity="0.2" d="M366.893 333.796H344.688C343.965 333.796 343.379 334.382 343.379 335.105V338.285C343.379 339.008 343.965 339.595 344.688 339.595H366.893C367.616 339.595 368.202 339.008 368.202 338.285V335.105C368.202 334.382 367.616 333.796 366.893 333.796Z" fill="white"/>
<path d="M214.685 348.64H140.798V396.691H214.685V348.64Z" fill="#9468B4"/>
<path opacity="0.6" d="M214.685 348.64H140.798V396.691H214.685V348.64Z" fill="white"/>
<path d="M211.989 357.651H143.505V394.292H211.989V357.651Z" fill="#9468B4"/>
<path d="M199.743 363.12H149.084V364.694H199.743V363.12Z" fill="white"/>
<path d="M173.39 367.951H149.084V369.524H173.39V367.951Z" fill="white"/>
<path d="M179.695 372.781H149.084V374.355H179.695V372.781Z" fill="white"/>
<path d="M159.867 377.6H149.084V379.174H159.867V377.6Z" fill="white"/>
<path d="M156.071 382.431H149.084V384.004H156.071V382.431Z" fill="white"/>
<path d="M305.989 397.483H245.845L256.023 317.522H295.811L305.989 397.483Z" fill="#9468B4"/>
<path opacity="0.6" d="M305.989 397.483H245.845L252.81 342.775L256.034 317.522H295.8L300.553 354.78L305.989 397.483Z" fill="white"/>
<path opacity="0.1" d="M300.554 354.78L252.811 342.775L256.035 317.522H295.8L300.554 354.78Z" fill="black"/>
<path d="M417.717 120.354H134.118C133.165 120.354 132.221 120.542 131.341 120.907C130.46 121.272 129.661 121.807 128.987 122.482C128.314 123.156 127.78 123.957 127.416 124.838C127.052 125.719 126.866 126.663 126.867 127.616V319.602C126.867 321.525 127.631 323.369 128.991 324.729C130.351 326.089 132.195 326.853 134.118 326.853H417.717C419.64 326.853 421.485 326.089 422.844 324.729C424.204 323.369 424.968 321.525 424.968 319.602V127.638C424.973 126.683 424.788 125.737 424.426 124.853C424.063 123.97 423.53 123.166 422.856 122.489C422.182 121.813 421.382 121.276 420.5 120.909C419.618 120.543 418.672 120.354 417.717 120.354Z" fill="#9468B4"/>
<path opacity="0.7" d="M417.717 120.354H134.118C133.165 120.354 132.221 120.542 131.341 120.907C130.46 121.272 129.661 121.807 128.987 122.482C128.314 123.156 127.78 123.957 127.416 124.838C127.052 125.719 126.866 126.663 126.867 127.616V319.602C126.867 321.525 127.631 323.369 128.991 324.729C130.351 326.089 132.195 326.853 134.118 326.853H417.717C419.64 326.853 421.485 326.089 422.844 324.729C424.204 323.369 424.968 321.525 424.968 319.602V127.638C424.973 126.683 424.788 125.737 424.426 124.853C424.063 123.97 423.53 123.166 422.856 122.489C422.182 121.813 421.382 121.276 420.5 120.909C419.618 120.543 418.672 120.354 417.717 120.354Z" fill="white"/>
<path d="M415.428 127.462H136.418V312.593H415.428V127.462Z" fill="#9468B4"/>
<path d="M326.422 391.475H225.401C224.769 391.475 224.257 391.987 224.257 392.619V396.24C224.257 396.872 224.769 397.384 225.401 397.384H326.422C327.054 397.384 327.567 396.872 327.567 396.24V392.619C327.567 391.987 327.054 391.475 326.422 391.475Z" fill="#9468B4"/>
<path opacity="0.7" d="M326.422 391.475H225.401C224.769 391.475 224.257 391.987 224.257 392.619V396.24C224.257 396.872 224.769 397.384 225.401 397.384H326.422C327.054 397.384 327.567 396.872 327.567 396.24V392.619C327.567 391.987 327.054 391.475 326.422 391.475Z" fill="white"/>
<path opacity="0.2" d="M415.428 127.638H136.418V155.234H415.428V127.638Z" fill="black"/>
<path opacity="0.4" d="M255.98 155.564H136.418V312.592H255.98V155.564Z" fill="white"/>
<path d="M372.482 195.617V198.368H369.731" stroke="white" stroke-miterlimit="10"/>
<path d="M363.923 198.368H273.806" stroke="white" stroke-miterlimit="10" stroke-dasharray="5.28 5.28"/>
<path d="M270.899 198.368H268.148V195.617" stroke="white" stroke-miterlimit="10"/>
<path d="M268.148 190.632V143.285" stroke="white" stroke-miterlimit="10" stroke-dasharray="4.53 4.53"/>
<path d="M268.148 140.798V138.047H270.899" stroke="white" stroke-miterlimit="10"/>
<path d="M276.71 138.047H366.827" stroke="white" stroke-miterlimit="10" stroke-dasharray="5.28 5.28"/>
<path d="M369.731 138.047H372.482V140.798" stroke="white" stroke-miterlimit="10"/>
<path d="M372.482 145.783V193.13" stroke="white" stroke-miterlimit="10" stroke-dasharray="4.53 4.53"/>
<path d="M374.232 136.298H370.744V139.786H374.232V136.298Z" fill="#9468B4" stroke="white" stroke-miterlimit="10"/>
<path d="M374.232 196.629H370.744V200.117H374.232V196.629Z" fill="#9468B4" stroke="white" stroke-miterlimit="10"/>
<path d="M269.887 136.298H266.399V139.786H269.887V136.298Z" fill="#9468B4" stroke="white" stroke-miterlimit="10"/>
<path d="M269.887 196.629H266.399V200.117H269.887V196.629Z" fill="#9468B4" stroke="white" stroke-miterlimit="10"/>
<path d="M322.066 136.298H318.578V139.786H322.066V136.298Z" fill="#9468B4" stroke="white" stroke-miterlimit="10"/>
<path d="M322.066 196.629H318.578V200.117H322.066V196.629Z" fill="#9468B4" stroke="white" stroke-miterlimit="10"/>
<path d="M374.232 166.458H370.744V169.946H374.232V166.458Z" fill="#9468B4" stroke="white" stroke-miterlimit="10"/>
<path d="M269.887 166.458H266.399V169.946H269.887V166.458Z" fill="#9468B4" stroke="white" stroke-miterlimit="10"/>
<path opacity="0.7" d="M363.009 158.304H337.47C336.322 158.304 335.391 159.235 335.391 160.384V167.217C335.391 168.365 336.322 169.296 337.47 169.296H363.009C364.157 169.296 365.089 168.365 365.089 167.217V160.384C365.089 159.235 364.157 158.304 363.009 158.304Z" fill="white"/>
<path opacity="0.7" d="M318.996 158.304H293.458C292.309 158.304 291.378 159.235 291.378 160.384V167.217C291.378 168.365 292.309 169.296 293.458 169.296H318.996C320.145 169.296 321.076 168.365 321.076 167.217V160.384C321.076 159.235 320.145 158.304 318.996 158.304Z" fill="white"/>
<path opacity="0.7" d="M262.34 292.094H236.801C235.653 292.094 234.722 293.025 234.722 294.173V301.006C234.722 302.155 235.653 303.086 236.801 303.086H262.34C263.488 303.086 264.42 302.155 264.42 301.006V294.173C264.42 293.025 263.488 292.094 262.34 292.094Z" fill="white"/>
<path d="M397.009 137.453H406.296" stroke="white" stroke-width="1.5" stroke-linecap="round" stroke-linejoin="round"/>
<path d="M397.009 141.854H406.296" stroke="white" stroke-width="1.5" stroke-linecap="round" stroke-linejoin="round"/>
<path d="M397.009 146.256H406.296" stroke="white" stroke-width="1.5" stroke-linecap="round" stroke-linejoin="round"/>
<path opacity="0.5" d="M248.915 179.904H155.332V273.487H248.915V179.904Z" fill="white"/>
<path d="M194.505 187.551V268.282" stroke="#9468B4" stroke-miterlimit="10"/>
<path d="M234.865 268.282C224.158 268.282 213.89 264.029 206.319 256.458C198.748 248.887 194.494 238.618 194.494 227.911V227.911C194.494 217.207 198.746 206.941 206.315 199.372C213.884 191.803 224.15 187.551 234.854 187.551V187.551" stroke="#9468B4" stroke-miterlimit="10"/>
<path d="M236.614 185.812H233.126V189.301H236.614V185.812Z" fill="white" stroke="#9468B4" stroke-miterlimit="10"/>
<path d="M236.614 266.533H233.126V270.021H236.614V266.533Z" fill="white" stroke="#9468B4" stroke-miterlimit="10"/>
<path d="M196.255 226.172H192.767V229.66H196.255V226.172Z" fill="white" stroke="#9468B4" stroke-miterlimit="10"/>
<path d="M195.406 187.552C195.406 187.73 195.353 187.905 195.254 188.053C195.155 188.201 195.014 188.317 194.849 188.385C194.684 188.454 194.503 188.471 194.328 188.437C194.153 188.402 193.992 188.316 193.866 188.19C193.74 188.063 193.654 187.903 193.619 187.728C193.584 187.553 193.602 187.371 193.67 187.206C193.739 187.042 193.854 186.901 194.003 186.801C194.151 186.702 194.325 186.649 194.504 186.649C194.742 186.652 194.97 186.748 195.139 186.917C195.307 187.085 195.403 187.313 195.406 187.552Z" fill="white" stroke="#9468B4" stroke-miterlimit="10"/>
<path d="M195.406 268.282C195.406 268.46 195.353 268.634 195.255 268.782C195.156 268.93 195.016 269.046 194.852 269.115C194.687 269.183 194.507 269.202 194.332 269.168C194.157 269.134 193.996 269.049 193.87 268.924C193.743 268.799 193.656 268.639 193.62 268.465C193.584 268.291 193.601 268.11 193.667 267.944C193.734 267.779 193.848 267.638 193.995 267.537C194.142 267.437 194.315 267.382 194.493 267.38C194.612 267.378 194.731 267.401 194.841 267.445C194.952 267.49 195.053 267.556 195.138 267.64C195.223 267.724 195.29 267.824 195.336 267.934C195.382 268.045 195.406 268.163 195.406 268.282Z" fill="white" stroke="#9468B4" stroke-miterlimit="10"/>
<path opacity="0.7" d="M349.563 293.425H321.229C319.058 293.425 316.976 292.562 315.441 291.027C313.905 289.492 313.043 287.409 313.043 285.238C313.043 283.067 313.905 280.985 315.441 279.449C316.976 277.914 319.058 277.052 321.229 277.052H349.563C351.734 277.052 353.816 277.914 355.352 279.449C356.887 280.985 357.749 283.067 357.749 285.238C357.749 287.409 356.887 289.492 355.352 291.027C353.816 292.562 351.734 293.425 349.563 293.425Z" fill="white"/>
<path opacity="0.7" d="M374.453 223.609H286.921C286.446 223.609 285.99 223.42 285.653 223.084C285.317 222.747 285.128 222.291 285.128 221.815C285.137 221.347 285.33 220.9 285.665 220.572C286.001 220.245 286.452 220.063 286.921 220.066H374.442C374.677 220.065 374.91 220.11 375.127 220.198C375.345 220.287 375.543 220.418 375.709 220.584C375.876 220.75 376.008 220.947 376.098 221.164C376.189 221.381 376.235 221.613 376.235 221.848C376.227 222.317 376.035 222.763 375.702 223.092C375.369 223.421 374.921 223.606 374.453 223.609Z" fill="white"/>
<path opacity="0.7" d="M374.453 236.67H286.921C286.686 236.671 286.453 236.626 286.236 236.537C286.018 236.448 285.821 236.317 285.654 236.152C285.487 235.986 285.355 235.789 285.265 235.572C285.174 235.355 285.128 235.122 285.128 234.887C285.128 234.412 285.317 233.955 285.653 233.619C285.99 233.283 286.446 233.094 286.921 233.094H374.442C374.917 233.094 375.374 233.283 375.71 233.619C376.046 233.955 376.235 234.412 376.235 234.887C376.235 235.36 376.047 235.813 375.713 236.148C375.379 236.482 374.925 236.67 374.453 236.67Z" fill="white"/>
<path opacity="0.7" d="M374.452 249.775H319.93C319.456 249.775 319.002 249.587 318.666 249.253C318.33 248.919 318.14 248.466 318.137 247.992C318.137 247.517 318.326 247.06 318.662 246.724C318.998 246.388 319.455 246.199 319.93 246.199H374.441C374.916 246.199 375.372 246.388 375.709 246.724C376.045 247.06 376.234 247.517 376.234 247.992C376.231 248.464 376.042 248.916 375.709 249.25C375.375 249.583 374.923 249.772 374.452 249.775Z" fill="white"/>
<path opacity="0.4" d="M151.415 135.286H145.231V141.47H151.415V135.286Z" fill="black"/>
<path opacity="0.4" d="M161.846 135.286H158.832C157.956 135.286 157.247 135.995 157.247 136.87V139.885C157.247 140.76 157.956 141.47 158.832 141.47H161.846C162.722 141.47 163.431 140.76 163.431 139.885V136.87C163.431 135.995 162.722 135.286 161.846 135.286Z" fill="black"/>
<path opacity="0.4" d="M172.63 135.286H172.102C170.54 135.286 169.274 136.552 169.274 138.113V138.642C169.274 140.203 170.54 141.47 172.102 141.47H172.63C174.192 141.47 175.458 140.203 175.458 138.642V138.113C175.458 136.552 174.192 135.286 172.63 135.286Z" fill="black"/>
<path opacity="0.9" d="M164.179 287.736V285.327L162.946 285.217C162.771 284.434 162.458 283.689 162.022 283.016L162.814 282.059L161.109 280.353L160.152 281.145C159.478 280.71 158.733 280.397 157.951 280.221L157.841 278.989H155.431L155.31 280.221C154.528 280.398 153.783 280.711 153.109 281.145L152.152 280.353L150.447 282.059L151.239 283.016C150.795 283.685 150.481 284.431 150.315 285.217L149.071 285.327V287.736L150.315 287.857C150.482 288.642 150.795 289.389 151.239 290.058L150.447 291.026L152.152 292.721L153.109 291.929C153.779 292.372 154.525 292.686 155.31 292.853L155.431 294.096H157.841L157.951 292.853C158.736 292.686 159.483 292.373 160.152 291.929L161.109 292.721L162.814 291.026L162.022 290.058C162.461 289.387 162.775 288.641 162.946 287.857L164.179 287.736ZM156.598 289.794C155.945 289.794 155.306 289.6 154.764 289.238C154.221 288.875 153.798 288.359 153.548 287.756C153.298 287.153 153.233 286.489 153.36 285.849C153.487 285.209 153.802 284.621 154.263 284.159C154.725 283.697 155.313 283.383 155.954 283.255C156.594 283.128 157.258 283.193 157.861 283.443C158.464 283.693 158.979 284.116 159.342 284.659C159.705 285.202 159.899 285.84 159.899 286.493C159.899 287.368 159.551 288.208 158.932 288.827C158.313 289.446 157.473 289.794 156.598 289.794Z" fill="white"/>
<path opacity="0.6" d="M173.95 294.536V292.688L172.982 292.589C172.85 291.969 172.604 291.379 172.255 290.85L172.872 290.091L171.54 288.759L170.792 289.387C170.259 289.038 169.666 288.792 169.042 288.66L168.954 287.681H167.062L166.974 288.66C166.351 288.792 165.757 289.038 165.224 289.387L164.476 288.759L163.134 290.091L163.761 290.85C163.412 291.379 163.166 291.969 163.035 292.589L162.066 292.688V294.569L163.035 294.668C163.166 295.288 163.412 295.878 163.761 296.407L163.134 297.166L164.476 298.497L165.224 297.87C165.757 298.219 166.351 298.465 166.974 298.596L167.062 299.565H168.954L169.042 298.596C169.666 298.465 170.259 298.219 170.792 297.87L171.54 298.497L172.872 297.166L172.255 296.407C172.604 295.878 172.85 295.288 172.982 294.668L173.95 294.536ZM168.008 296.154C167.501 296.156 167.004 296.007 166.581 295.727C166.158 295.447 165.827 295.047 165.632 294.579C165.436 294.11 165.384 293.595 165.481 293.097C165.579 292.598 165.822 292.141 166.18 291.781C166.539 291.421 166.995 291.176 167.493 291.076C167.991 290.976 168.507 291.027 168.976 291.22C169.445 291.414 169.846 291.743 170.128 292.164C170.41 292.586 170.561 293.082 170.561 293.59C170.562 293.926 170.497 294.259 170.37 294.57C170.242 294.881 170.054 295.164 169.817 295.402C169.58 295.64 169.298 295.829 168.988 295.958C168.677 296.087 168.344 296.154 168.008 296.154Z" fill="white"/>
<path opacity="0.4" d="M164.18 299.895V298.31L163.365 298.233C163.256 297.712 163.051 297.216 162.76 296.77L163.288 296.143L162.188 295.042L161.55 295.56C161.104 295.269 160.608 295.064 160.086 294.954L160.009 294.14H158.403L158.326 294.954C157.805 295.064 157.309 295.269 156.862 295.56L156.224 295.042L155.124 296.143L155.652 296.77C155.361 297.216 155.156 297.712 155.047 298.233L154.222 298.31V299.895L155.047 299.972C155.154 300.497 155.359 300.997 155.652 301.446L155.124 302.073L156.224 303.174L156.862 302.646C157.306 302.944 157.803 303.154 158.326 303.262L158.403 304.076H159.987L160.064 303.262C160.588 303.154 161.085 302.944 161.528 302.646L162.166 303.174L163.266 302.073L162.738 301.446C163.031 300.997 163.236 300.497 163.343 299.972L164.18 299.895ZM159.195 301.248C158.773 301.237 158.364 301.102 158.018 300.86C157.673 300.618 157.407 300.279 157.253 299.886C157.099 299.493 157.064 299.064 157.153 298.651C157.242 298.239 157.45 297.862 157.752 297.567C158.054 297.272 158.437 297.073 158.851 296.995C159.266 296.917 159.695 296.962 160.083 297.126C160.472 297.29 160.804 297.565 161.038 297.916C161.271 298.268 161.396 298.681 161.396 299.103C161.396 299.389 161.339 299.673 161.227 299.937C161.116 300.201 160.953 300.44 160.748 300.64C160.543 300.84 160.3 300.996 160.033 301.101C159.766 301.206 159.482 301.256 159.195 301.248Z" fill="white"/>
<path d="M371.844 137.42L376.509 149.898L384.31 142.085L371.844 137.42Z" fill="#9468B4"/>
<path d="M379.359 143.19L377.616 144.933L381.483 148.8L383.226 147.057L379.359 143.19Z" fill="#9468B4"/>
<path opacity="0.4" d="M384.31 142.085L371.844 137.42L376.509 149.898L379.546 146.861L381.472 148.797L383.21 147.059L381.285 145.122L384.31 142.085Z" fill="white"/>
<path d="M180.696 182.017L192.436 186.418L186.285 180.267C186.058 180.398 185.793 180.451 185.533 180.417C185.273 180.383 185.03 180.265 184.844 180.08C184.616 179.852 184.488 179.544 184.488 179.222C184.488 178.9 184.616 178.591 184.844 178.364C185.071 178.136 185.38 178.008 185.702 178.008C186.024 178.008 186.333 178.136 186.56 178.364C186.745 178.55 186.863 178.792 186.897 179.053C186.931 179.313 186.878 179.577 186.747 179.805L192.898 185.956L188.497 174.215L184.602 175.074L184.459 173.676L183.722 172.939L179.408 177.252L180.145 177.989L181.554 178.133L180.696 182.017Z" fill="#263238"/>
<path opacity="0.2" d="M180.696 182.017L192.436 186.418L186.285 180.267C186.058 180.398 185.793 180.451 185.533 180.417C185.273 180.383 185.03 180.265 184.844 180.08C184.616 179.852 184.488 179.544 184.488 179.222C184.488 178.9 184.616 178.591 184.844 178.364C185.071 178.136 185.38 178.008 185.702 178.008C186.024 178.008 186.333 178.136 186.56 178.364C186.745 178.55 186.863 178.792 186.897 179.053C186.931 179.313 186.878 179.577 186.747 179.805L192.898 185.956L188.497 174.215L184.602 175.074L184.459 173.676L183.722 172.939L179.408 177.252L180.145 177.989L181.554 178.133L180.696 182.017Z" fill="white"/>
<g opacity="0.1">
<path opacity="0.1" d="M177.218 127.462L135.867 281.97V127.462H177.218Z" fill="white"/>
<path opacity="0.1" d="M223.882 127.462L174.334 312.592H140.202L189.739 127.462H223.882Z" fill="white"/>
<path opacity="0.1" d="M273.508 127.462L223.96 312.592H208.522L258.07 127.462H273.508Z" fill="white"/>
<path opacity="0.1" d="M319.204 127.462L269.656 312.592H264.133L313.681 127.462H319.204Z" fill="white"/>
</g>
<path d="M487.07 168.35C490.976 172.85 510.848 211.131 507.008 220.066C503.168 229 471.324 218.701 471.324 218.701L473.228 206.08C473.228 206.08 485.596 206.521 486.784 205.343C487.972 204.166 470.048 186.274 470.048 186.274L487.07 168.35Z" fill="#263238"/>
<g opacity="0.2">
<path opacity="0.2" d="M506.986 220.066C506.514 221.1 505.692 221.934 504.665 222.42L504.027 222.706H503.939C503.742 222.789 503.539 222.859 503.333 222.915C502.439 223.202 501.517 223.394 500.582 223.488L499.779 223.565C499.383 223.565 498.987 223.62 498.58 223.631H497.48C486.806 223.631 471.281 218.624 471.281 218.624L473.184 206.003C473.184 206.003 485.552 206.443 486.74 205.266C487.026 204.98 486.179 203.704 484.738 201.965C481.239 197.663 474.23 190.5 471.336 187.573L470.026 186.252L487.07 168.35C490.977 172.806 510.849 211.087 506.986 220.066Z" fill="white"/>
</g>
<path opacity="0.2" d="M504.686 222.387L504.048 222.673H503.96C503.763 222.756 503.56 222.826 503.354 222.882C502.46 223.169 501.538 223.361 500.604 223.454L499.8 223.531C499.404 223.531 499.008 223.586 498.601 223.597H497.501C486.827 223.597 471.302 218.591 471.302 218.591L473.205 205.97C473.205 205.97 487.135 207.148 488.324 205.97C488.544 205.508 487.003 203.946 484.726 201.954C481.227 197.652 474.218 190.489 471.324 187.562L479.378 178.957L485.507 178.297C485.507 178.297 499.074 200.259 504.686 222.387Z" fill="black"/>
<path d="M446.92 167.052C444.719 168.648 443.619 170.914 444.499 172.114L502.641 252.273C503.51 253.472 506.008 253.142 508.208 251.546C510.409 249.951 511.509 247.673 510.629 246.485L452.488 166.315C451.618 165.126 449.132 165.446 446.92 167.052Z" fill="#263238"/>
<path opacity="0.7" d="M452.486 166.315L510.627 246.474C511.497 247.662 510.407 249.929 508.207 251.535C506.006 253.142 503.508 253.45 502.65 252.261L444.509 172.092C444.287 171.674 444.188 171.201 444.225 170.73C444.262 170.258 444.433 169.807 444.718 169.429C445.015 168.899 445.385 168.413 445.818 167.987C446.155 167.639 446.524 167.322 446.918 167.041C449.13 165.457 451.617 165.126 452.486 166.315Z" fill="white"/>
<path opacity="0.3" d="M510.627 246.473C511.497 247.662 510.407 249.928 508.207 251.535C506.006 253.141 503.508 253.449 502.65 252.261C502.166 251.601 503.365 250.599 504.07 249.158L444.718 169.45C445.015 168.92 445.385 168.435 445.818 168.009L503.97 248.179C504.312 247.832 504.68 247.512 505.071 247.221C507.271 245.615 509.758 245.285 510.627 246.473Z" fill="black"/>
<path d="M439.723 164.829C437.864 166.81 437.226 169.23 438.304 170.254L510.595 237.935C511.696 238.947 514.062 238.155 515.921 236.163C517.781 234.172 518.419 231.762 517.34 230.728L445.049 163.046C443.971 162.045 441.583 162.848 439.723 164.829Z" fill="#9468B4"/>
<path opacity="0.7" d="M445.048 163.058L517.34 230.739C518.44 231.74 517.78 234.172 515.92 236.163C514.061 238.155 511.673 238.936 510.595 237.935L438.303 170.254C438.008 169.883 437.824 169.436 437.771 168.965C437.719 168.494 437.8 168.018 438.006 167.591C438.204 167.014 438.477 166.466 438.82 165.962C439.092 165.573 439.394 165.205 439.723 164.862C441.582 162.849 443.97 162.045 445.048 163.058Z" fill="white"/>
<path opacity="0.3" d="M517.341 230.739C518.441 231.74 517.781 234.172 515.921 236.163C514.062 238.155 511.674 238.936 510.596 237.935C510.001 237.374 510.992 236.174 511.41 234.634L438.007 167.613C438.204 167.036 438.478 166.488 438.821 165.984L511.124 233.677C511.39 233.286 511.688 232.917 512.015 232.576C513.875 230.519 516.262 229.726 517.341 230.739Z" fill="black"/>
<path d="M457.096 380.824L451.595 380.912C445.994 354.603 442.033 322.044 439.568 297.485C439.183 293.634 438.831 289.992 438.468 286.592C438.325 284.974 438.182 283.423 438.05 281.926C437.39 274.543 436.949 268.722 436.663 265.069C436.465 262.429 436.366 260.976 436.366 260.976H456.37L456.183 266.049L455.523 282.785L455.457 284.699L455.039 295.757L454.346 314.584C461.179 341.102 457.096 380.824 457.096 380.824Z" fill="white"/>
<path d="M501.77 379.415L496.346 380.439C485.485 353.293 475.285 318.534 468.65 294.25C467.627 290.487 466.681 286.966 465.834 283.775C465.834 283.61 465.757 283.456 465.713 283.302C464.04 276.964 462.753 271.913 461.949 268.711L460.992 264.827L480.578 261.438L481.678 269.69L483.318 281.794L483.637 284.171L484.737 292.434L487.719 314.595C499.031 339.572 501.77 379.415 501.77 379.415Z" fill="white"/>
<path opacity="0.2" d="M483.373 281.816L465.833 283.774C465.833 283.609 465.756 283.455 465.712 283.301C464.04 276.963 462.752 271.913 461.949 268.711L481.755 269.69L483.373 281.816Z" fill="black"/>
<path opacity="0.2" d="M456.14 266.049L455.524 282.785L455.458 284.699L438.513 286.581C438.369 284.964 438.226 283.412 438.094 281.916C437.434 274.532 436.994 268.712 436.708 265.059L456.14 266.049Z" fill="black"/>
<path d="M440.823 399.112C441.848 398.279 443.014 397.638 444.267 397.219C444.267 397.219 448.019 393.5 449.834 382.299L454.742 381.011C455.576 380.812 456.451 380.873 457.25 381.186C458.048 381.499 458.732 382.048 459.209 382.761C459.345 382.96 459.448 383.179 459.517 383.41C459.771 384.611 459.947 385.828 460.045 387.052C460.32 391.147 460.346 395.255 460.122 399.354H459.231L458.879 391.651C458.747 389.022 456.733 392.102 456.161 394.952C455.589 397.802 454.368 400.773 448.624 400.916C441.912 401.015 439.128 400.751 440.823 399.112Z" fill="#263238"/>
<path d="M459.385 382.914C459.704 380.296 459.803 375.74 459.803 375.74L448.888 376.951C448.888 376.951 450.208 382.133 449.119 386.028C454.62 384.521 459.385 382.914 459.385 382.914Z" fill="#263238"/>
<path d="M485.232 399.111C486.258 398.283 487.425 397.645 488.676 397.23C488.676 397.23 492.429 393.511 494.233 382.309L499.152 381.022C499.986 380.823 500.861 380.884 501.659 381.197C502.458 381.509 503.142 382.059 503.619 382.771C503.754 382.971 503.858 383.19 503.927 383.421C504.181 384.622 504.357 385.839 504.455 387.063C504.728 391.158 504.75 395.266 504.521 399.364H503.685L503.333 391.662C503.201 389.032 501.187 392.113 500.615 394.963C500.043 397.813 498.822 400.784 493.067 400.927C486.322 401.015 483.538 400.751 485.232 399.111Z" fill="#263238"/>
<path d="M503.784 382.914C504.114 380.296 504.213 375.74 504.213 375.74L493.298 376.951C493.298 376.951 494.618 382.133 493.529 386.028C499.031 384.521 503.784 382.914 503.784 382.914Z" fill="#263238"/>
<path d="M485.266 276.414L464.502 279.066L463.699 279.165L459.43 263.518L458.33 280.287L436.081 279.121C426.178 220.946 443.112 207.203 443.112 207.203L473.294 213.277C486.96 236.516 483.714 263.518 483.714 263.518L485.266 276.414Z" fill="#9468B4"/>
<path d="M456.678 134.724C456.678 137.013 455.666 138.861 454.478 138.861C453.289 138.861 452.211 137.013 452.211 134.724C452.211 132.435 453.223 130.587 454.478 130.587C455.732 130.587 456.678 132.435 456.678 134.724Z" stroke="#263238" stroke-width="0.5" stroke-linecap="round" stroke-linejoin="round"/>
<path d="M471.588 148.544C471.508 148.619 471.419 148.686 471.324 148.742C470.069 149.699 468.637 150.399 467.11 150.8C462.654 151.834 459.606 151.218 457.614 149.204C454.83 146.178 454.137 140.82 454.533 134.35C454.603 131.775 455.078 129.228 455.942 126.801C455.942 126.801 455.942 126.702 455.942 126.68C455.942 126.658 456.008 126.493 456.052 126.405C456.597 125.037 457.477 123.827 458.612 122.887C459.746 121.947 461.098 121.307 462.544 121.025C463.797 120.744 465.077 120.601 466.362 120.596C478.983 120.497 481.249 141.381 471.588 148.544Z" fill="white"/>
<path opacity="0.2" d="M471.324 148.775C470.059 149.677 468.626 150.316 467.11 150.657C462.654 151.691 459.606 150.932 457.614 148.885C460.281 149.545 463.091 149.313 465.614 148.225C466.546 147.881 467.543 147.752 468.532 147.847C469.521 147.943 470.475 148.26 471.324 148.775Z" fill="black"/>
<path d="M472.601 160.164C473.382 163.751 468.728 165.214 468.728 165.214C461.124 161.913 459.716 157.919 459.716 157.919C466.065 154.618 464.227 145.254 464.227 145.254L465.515 145.893L474.57 147.664C474.57 147.664 472.061 152.484 471.731 153.584C470.015 159.361 472.601 160.164 472.601 160.164Z" fill="white"/>
<path d="M455.93 126.747C455.93 126.747 455.237 135.55 463.632 139.39C463.632 139.39 467.23 148.578 472.523 148.699C479.752 148.875 486.112 138.609 483.614 128.145C480.346 114.567 459.781 113.466 455.93 126.747Z" fill="#263238"/>
<path d="M459.364 136.848C459.364 135.473 460.465 133.151 462.665 133.47C464.866 133.789 466.12 139.269 460.663 140.49C459.837 140.666 459.364 139.742 459.364 136.848Z" fill="white"/>
<path d="M471.324 117.35C471.324 117.35 462.896 115.215 458.23 118.615C452.784 122.577 450.715 126.67 457.13 133.03C457.13 133.03 471.291 128.441 476.001 129.41C478.753 129.965 481.455 130.749 484.077 131.753C485.1 122.4 476.034 115.435 471.324 117.35Z" fill="#263238"/>
<path d="M459.364 134.724C459.364 134.724 461.564 144.913 458.109 153.606C458.109 153.606 478.135 160.549 485.1 156.775C492.066 153.001 485.684 140.336 485.387 133.03C485.089 125.724 481.921 114.929 471.324 117.35C460.728 119.771 459.364 134.724 459.364 134.724Z" fill="#263238"/>
<path d="M452.156 134.075H460.618" stroke="#263238" stroke-width="0.5" stroke-linecap="round" stroke-linejoin="round"/>
<path opacity="0.2" d="M464.502 279.065L463.699 279.164L459.43 263.517C459.43 263.517 468.584 247.882 465.724 239.739C466.131 240.311 475.99 254.935 464.502 279.065Z" fill="black"/>
<path d="M447.359 159.371C447.359 159.371 457.427 155.784 472.601 160.164C487.774 164.543 488.346 171.002 488.346 171.002C488.346 171.002 478.729 192.799 477.211 217.48L437.665 216.005C437.665 216.005 432.945 181.169 447.359 159.371Z" fill="#263238"/>
<path opacity="0.2" d="M488.345 171.002C488.345 171.002 478.728 192.8 477.21 217.48L437.664 216.006C437.192 211.988 436.949 207.947 436.938 203.902C436.86 197.982 437.228 192.063 438.038 186.198C439.359 177.065 442.077 167.316 447.358 159.328C447.358 159.328 457.426 155.741 472.6 160.12C487.773 164.499 488.345 171.002 488.345 171.002Z" fill="white"/>
<path opacity="0.2" d="M446.809 187.727C446.809 187.727 445.169 197.762 436.906 203.946C436.828 198.025 437.196 192.107 438.006 186.242L446.809 187.727Z" fill="black"/>
<path d="M403.115 158.679L398.13 151.284C398.13 151.284 397.371 148.071 396.403 147.345C395.435 146.619 385.862 142.537 384.706 142.559C383.551 142.581 383.606 150.019 384.706 151.284C385.807 152.55 391.903 155.256 393.509 155.532C395.115 155.807 394.323 155.532 394.323 155.532L398.725 164.334L403.115 158.679Z" fill="white"/>
<path d="M447.36 159.372C436.681 163.844 426.379 169.164 416.55 175.282L400.453 153.276C400.453 153.276 396.117 154.618 394.511 162.167C394.511 162.167 402.774 193.647 413.513 196.772C424.253 199.897 446.831 187.672 446.831 187.672C446.831 187.672 453.367 171.321 447.36 159.372Z" fill="#263238"/>
<path opacity="0.2" d="M447.36 159.372C436.681 163.844 426.379 169.164 416.55 175.282L400.453 153.276C400.453 153.276 396.117 154.618 394.511 162.167C394.511 162.167 402.774 193.647 413.513 196.772C424.253 199.897 446.831 187.672 446.831 187.672C446.831 187.672 453.367 171.321 447.36 159.372Z" fill="white"/>
<path d="M457.537 157.985C457.537 157.985 461.047 183.117 472.171 184.129C483.296 185.141 488.28 166.524 486.399 164.323C484.517 162.122 470.18 157.82 457.537 157.985Z" fill="#263238"/>
<path opacity="0.3" d="M457.537 157.985C457.537 157.985 461.047 183.117 472.171 184.129C483.296 185.141 488.28 166.524 486.399 164.323C484.517 162.122 470.18 157.82 457.537 157.985Z" fill="white"/>
<path d="M61.75 389.154H69.9034L70.5746 370.272H62.4212L61.75 389.154Z" fill="white"/>
<path d="M71.0254 388.207H61.1224C60.9593 388.204 60.8004 388.259 60.6736 388.362C60.5468 388.464 60.4603 388.608 60.4292 388.768L58.8227 396.02C58.7888 396.174 58.7859 396.334 58.8141 396.49C58.8422 396.646 58.901 396.794 58.9869 396.927C59.0728 397.06 59.1842 397.175 59.3147 397.265C59.4452 397.354 59.5921 397.417 59.747 397.45H60.0111C63.2131 397.395 65.5127 397.197 69.562 397.197C72.0487 397.197 79.4649 397.461 82.942 397.461C86.419 397.461 86.8041 394.083 85.4067 393.775C79.1238 392.4 74.4034 390.474 72.3898 388.702C72.014 388.371 71.5265 388.194 71.0254 388.207Z" fill="#263238"/>
<path d="M71.5866 389.341C71.5492 389.33 71.5157 389.309 71.4902 389.28C71.4648 389.25 71.4486 389.214 71.4435 389.176C71.4366 389.139 71.4414 389.101 71.4572 389.068C71.473 389.034 71.499 389.006 71.5315 388.989C71.8286 388.802 74.4584 387.184 75.3607 387.646C75.4626 387.694 75.5483 387.77 75.607 387.866C75.6657 387.962 75.6948 388.073 75.6908 388.185C75.7209 388.378 75.699 388.576 75.6274 388.758C75.5559 388.939 75.4372 389.099 75.2837 389.22C74.8282 389.538 74.275 389.686 73.7212 389.638C73.0011 389.615 72.2855 389.516 71.5866 389.341ZM72.1477 389.066C73.0991 389.388 74.1375 389.337 75.0526 388.923C75.1479 388.836 75.2207 388.728 75.2648 388.607C75.3089 388.486 75.3229 388.357 75.3057 388.229C75.3057 388.075 75.2397 387.998 75.1846 387.998C75.1065 387.958 75.0193 387.939 74.9316 387.943C73.941 388.138 72.9963 388.519 72.1477 389.066Z" fill="#9468B4"/>
<path d="M71.5327 389.374C71.5039 389.355 71.4807 389.329 71.4653 389.298C71.4498 389.267 71.4427 389.232 71.4447 389.198C71.4447 389.088 71.6537 386.744 72.545 385.974C72.6542 385.876 72.784 385.803 72.9248 385.761C73.0657 385.719 73.214 385.709 73.3592 385.732C73.5055 385.733 73.647 385.784 73.7609 385.876C73.8747 385.968 73.9542 386.095 73.9864 386.238C74.1515 387.096 72.523 388.89 71.6757 389.352H71.5877L71.5327 389.374ZM72.8421 386.216C72.2711 386.95 71.9372 387.84 71.8848 388.769C72.721 388.131 73.7553 386.777 73.6563 386.249C73.6563 386.249 73.6563 386.051 73.3702 386.051H73.2822C73.12 386.049 72.963 386.108 72.8421 386.216Z" fill="#9468B4"/>
<path opacity="0.2" d="M62.4205 370.283H70.5739L70.2218 380.021H62.0684L62.4205 370.283Z" fill="black"/>
<path d="M103.705 389.759L112.123 390.65L113.696 372.517L105.29 371.625L103.705 389.759Z" fill="white"/>
<path d="M113.004 387.943H103.167C103.005 387.945 102.848 388.001 102.722 388.103C102.596 388.205 102.508 388.346 102.474 388.505L100.867 395.767C100.828 395.919 100.819 396.078 100.841 396.234C100.864 396.39 100.917 396.54 100.998 396.675C101.079 396.81 101.186 396.928 101.312 397.021C101.439 397.115 101.583 397.182 101.736 397.219H102C105.202 397.164 107.502 396.966 111.562 396.966C114.038 396.966 121.465 397.219 124.931 397.219C128.397 397.219 128.793 393.841 127.396 393.533C121.113 392.169 116.393 390.232 114.379 388.461C114.001 388.123 113.511 387.939 113.004 387.943Z" fill="#263238"/>
<path d="M113.564 389.077C113.526 389.066 113.493 389.045 113.467 389.016C113.442 388.987 113.426 388.95 113.421 388.912C113.413 388.874 113.418 388.835 113.436 388.8C113.454 388.766 113.484 388.739 113.52 388.725C113.806 388.538 116.435 386.92 117.338 387.393C117.44 387.438 117.526 387.512 117.585 387.606C117.644 387.701 117.673 387.811 117.668 387.922C117.695 388.115 117.672 388.312 117.603 388.495C117.534 388.677 117.42 388.84 117.272 388.967C116.808 389.276 116.254 389.419 115.698 389.374C114.978 389.352 114.263 389.252 113.564 389.077ZM114.125 388.813C115.078 389.132 116.116 389.077 117.03 388.659C117.126 388.573 117.199 388.465 117.243 388.344C117.287 388.223 117.301 388.093 117.283 387.966C117.283 387.812 117.217 387.746 117.162 387.746C117.089 387.702 117.004 387.682 116.92 387.691C115.939 387.883 115.004 388.264 114.169 388.813H114.125Z" fill="#9468B4"/>
<path d="M113.52 389.121C113.49 389.103 113.465 389.077 113.448 389.046C113.43 389.015 113.421 388.98 113.421 388.945C113.421 388.824 113.63 386.491 114.576 385.721C114.688 385.627 114.818 385.556 114.958 385.512C115.098 385.469 115.245 385.454 115.39 385.468C115.537 385.467 115.68 385.517 115.794 385.61C115.908 385.702 115.987 385.831 116.018 385.974C116.183 386.843 114.554 388.637 113.707 389.088H113.619L113.52 389.121ZM114.818 385.952C114.248 386.682 113.914 387.569 113.861 388.494C114.697 387.867 115.732 386.502 115.633 385.974C115.633 385.974 115.633 385.776 115.346 385.776H115.269C115.103 385.781 114.944 385.843 114.818 385.952Z" fill="#9468B4"/>
<path opacity="0.2" d="M105.29 371.625L113.697 372.517L112.871 381.87L104.465 380.978L105.29 371.625Z" fill="black"/>
<path d="M65.7557 204.716H109.032C113.136 227.174 126.01 306.629 116.734 377.468L102.089 375.652C102.089 375.652 103.442 281.673 90.5241 246.914C89.0387 265.509 87.2231 285.293 85.7377 295.824C81.9745 321.736 73.9201 378.348 73.9201 378.348H59.0547C59.0547 378.348 62.1026 324.146 63.511 298.684C65.0515 271.011 65.7557 210.394 65.7557 204.716Z" fill="#263238"/>
<path d="M118.45 380.835L100.327 378.14L100.888 373.122L119.737 375.598L118.45 380.835Z" fill="#9468B4"/>
<path d="M75.7571 378.448H58.1738V373.199L76.4173 372.858L75.7571 378.448Z" fill="#9468B4"/>
<path opacity="0.2" d="M90.5674 246.881C92.6909 252.972 94.3065 259.229 95.3978 265.587C96.6082 249.082 91.7667 231.477 91.7667 231.477L90.5674 246.881Z" fill="black"/>
<path d="M64.5557 212.243L63.5654 217.469C63.5654 217.469 93.8355 221.386 112.662 221.276L112.002 217.689L64.5557 212.243Z" fill="#9468B4"/>
<path d="M125.987 166.987C125.987 166.987 136.451 199.996 143.593 202.197C150.734 204.398 168.9 177.121 168.9 177.121C168.9 177.121 185.218 176.966 185.944 175.855C186.67 174.744 181.708 163.245 180.52 163.234C179.331 163.223 165.115 168.571 164.576 169.473C164.037 170.376 147.719 185.978 146.971 185.516C146.222 185.054 140.016 165.435 140.016 165.435L125.987 166.987Z" fill="white"/>
<path d="M171.056 175.338C171.186 175.311 171.314 175.278 171.441 175.239L171.254 175.118C171.194 175.196 171.127 175.27 171.056 175.338Z" fill="white"/>
<path d="M120.045 163.179L121.321 165.523L127.274 176.526L128.517 178.804L145.231 172.994C145.231 172.994 138.277 147.048 135.868 144.385L120.045 163.179Z" fill="#9468B4"/>
<path opacity="0.4" d="M120.045 163.179L121.321 165.523L127.274 176.526L128.517 178.804L145.231 172.994C145.231 172.994 138.277 147.048 135.868 144.385L120.045 163.179Z" fill="white"/>
<path opacity="0.2" d="M121.322 165.523L127.275 176.526C130.961 169.297 129.894 159.394 129.894 159.394L121.322 165.523Z" fill="black"/>
<path d="M135.867 144.396C132.718 140.76 128.863 137.802 124.535 135.703C120.207 133.603 115.497 132.405 110.692 132.183C94.3189 131.413 89.1694 133.041 83.1836 138.389C74.436 146.201 63.5537 213.464 63.5537 213.464C79.5187 217.909 96.1033 219.712 112.65 218.801C112.65 218.801 112.848 200.095 118.757 187.54C125.412 173.555 131.128 159.142 135.867 144.396Z" fill="#9468B4"/>
<path opacity="0.4" d="M63.5537 213.464C79.5187 217.909 96.1028 219.716 112.65 218.812C112.65 218.812 112.65 216.501 112.969 212.969C113.102 211.296 113.3 209.338 113.575 207.225C113.85 205.112 114.246 202.703 114.675 200.304C114.939 199.017 115.247 197.718 115.577 196.431C116.345 193.374 117.391 190.395 118.702 187.529C119.428 185.989 120.133 184.459 120.815 182.963C121.992 180.344 123.115 177.802 124.116 175.371C126.316 170.254 128.187 165.578 129.75 161.484C130.85 158.547 131.84 155.917 132.643 153.661C133.535 151.141 134.239 149.073 134.756 147.532C135.427 145.497 135.757 144.385 135.757 144.385C135.211 143.701 134.623 143.051 133.997 142.438C127.856 136.385 119.737 132.751 111.132 132.205H110.582C98.104 131.621 92.1513 132.425 87.3758 135.209C85.836 136.13 84.3944 137.207 83.0735 138.422C81.8314 139.768 80.8535 141.335 80.1907 143.043C78.1569 147.772 76.4869 152.65 75.1952 157.633L74.469 160.307C73.3686 164.389 72.3343 168.736 71.344 173.137C71.058 174.391 70.7829 175.646 70.5078 176.889C70.1007 178.804 69.6935 180.707 69.3084 182.589C68.3181 187.331 67.4269 191.931 66.6456 196.068C65.5453 202.01 64.654 206.983 64.1259 210.075C63.7628 212.254 63.5537 213.464 63.5537 213.464ZM111.638 132.81C112.742 132.838 113.844 132.922 114.939 133.063C119.34 133.657 126.107 137.189 125.942 138.862C125.777 140.534 123.203 144.803 116.623 143.769C114.33 143.346 112.154 142.438 110.241 141.106C106.61 138.708 103.969 135.462 103.705 134.405C103.375 133.14 107.644 132.711 111.649 132.832L111.638 132.81Z" fill="white"/>
<path d="M97.5322 155.235C97.5322 155.235 88.8616 176.218 87.0791 193.658L110.527 196.651C110.527 196.651 121.046 168.296 123.225 159.427C123.225 159.405 104.497 157.535 97.5322 155.235Z" fill="#9468B4"/>
<path opacity="0.4" d="M118.648 160.23L121.905 160.55L119.518 162.398L118.648 160.23Z" fill="white"/>
<path d="M105.885 134.461C107.656 139.522 114.247 141.833 117.702 142.163C118.975 142.363 120.278 142.14 121.411 141.528C122.544 140.916 123.445 139.948 123.974 138.774C123.974 138.774 120.024 136.804 120.42 134.593C120.7 133.24 121.254 131.959 122.049 130.829C122.46 130.184 122.908 129.563 123.391 128.97L117.064 115.403C115.656 121.279 111.331 132.568 105.885 134.461Z" fill="white"/>
<path opacity="0.2" d="M116.811 121.664C113.796 128.266 118.054 132.81 120.42 134.548C120.699 133.196 121.254 131.915 122.048 130.785L116.811 121.664Z" fill="black"/>
<path d="M138.024 104.048C138.024 104.048 140.049 115.227 134.217 119.705C128.385 124.184 127.791 103.299 127.791 103.299L138.024 104.048Z" fill="white"/>
<path opacity="0.4" d="M138.024 104.048C138.024 104.048 140.049 115.227 134.217 119.705C128.385 124.184 127.791 103.299 127.791 103.299L138.024 104.048Z" fill="black"/>
<path d="M117.173 129.113C118.473 130.926 120.333 132.262 122.465 132.916C124.598 133.57 126.887 133.506 128.98 132.733C131.713 131.774 133.977 129.806 135.307 127.232C135.494 126.891 135.659 126.517 135.824 126.131C138.552 119.188 139.125 102.243 131.774 102.87C125.701 103.388 119.759 101.517 116.656 106.766C115.77 108.259 115.249 109.94 115.137 111.673C114.477 119.772 113.707 124.47 117.173 129.113Z" fill="white"/>
<path d="M126.944 115.678C126.812 116.316 127.12 116.899 127.549 116.965C127.978 117.031 128.396 116.536 128.495 115.865C128.594 115.194 128.308 114.644 127.89 114.589C127.472 114.534 127.043 115.018 126.944 115.678Z" fill="#263238"/>
<path d="M134.306 116.723C134.174 117.362 134.493 117.945 134.911 118.011C135.329 118.077 135.758 117.582 135.846 116.91C135.934 116.239 135.67 115.689 135.241 115.623C134.812 115.557 134.394 116.107 134.306 116.723Z" fill="#263238"/>
<path d="M131.918 116.712C132.413 118.812 133.195 120.833 134.239 122.72C133.746 122.976 133.204 123.122 132.649 123.147C132.094 123.171 131.54 123.075 131.026 122.863L131.918 116.712Z" fill="#A24E3F"/>
<path d="M125.008 112.971C125.075 112.991 125.146 112.993 125.214 112.975C125.282 112.958 125.344 112.922 125.393 112.872C125.73 112.525 126.142 112.261 126.599 112.1C127.055 111.94 127.542 111.888 128.022 111.948C128.123 111.968 128.227 111.948 128.313 111.892C128.4 111.837 128.461 111.75 128.485 111.651C128.496 111.601 128.497 111.551 128.488 111.501C128.479 111.451 128.46 111.404 128.432 111.362C128.405 111.32 128.369 111.283 128.326 111.256C128.284 111.228 128.237 111.209 128.187 111.2C127.59 111.112 126.979 111.166 126.406 111.357C125.833 111.548 125.312 111.871 124.886 112.3C124.815 112.374 124.775 112.472 124.775 112.575C124.775 112.678 124.815 112.776 124.886 112.85C124.921 112.895 124.962 112.936 125.008 112.971Z" fill="#263238"/>
<path d="M137.827 114.632C137.898 114.66 137.976 114.66 138.047 114.632C138.096 114.62 138.142 114.598 138.182 114.566C138.221 114.535 138.254 114.496 138.278 114.452C138.302 114.407 138.316 114.358 138.32 114.308C138.324 114.258 138.317 114.207 138.3 114.159C138.126 113.573 137.813 113.036 137.387 112.596C136.962 112.156 136.438 111.824 135.857 111.629C135.809 111.614 135.758 111.609 135.708 111.614C135.657 111.619 135.608 111.635 135.564 111.659C135.52 111.684 135.481 111.717 135.45 111.757C135.419 111.798 135.397 111.844 135.384 111.893C135.357 111.99 135.37 112.095 135.419 112.184C135.468 112.272 135.551 112.338 135.648 112.366C136.103 112.533 136.513 112.804 136.846 113.158C137.178 113.511 137.424 113.937 137.563 114.401C137.585 114.459 137.62 114.51 137.666 114.55C137.712 114.59 137.767 114.619 137.827 114.632Z" fill="#263238"/>
<path d="M125.921 123.149C125.921 123.149 127.274 126.054 130.036 125.944" stroke="#263238" stroke-width="0.5" stroke-linecap="round" stroke-linejoin="round"/>
<path d="M122.411 102.584L122.521 106.171C121.893 106.399 121.376 106.856 121.071 107.45C120.767 108.044 120.699 108.731 120.881 109.373C121.739 112.454 119.616 116.921 117.162 118.55C117.162 118.55 117.162 117.251 116.062 117.449C114.961 117.647 114.62 124.404 116.436 127.804C116.436 127.804 112.552 124.227 111.396 116.998C110.296 110.319 110.505 106.083 111.396 102.881L122.411 102.584Z" fill="white"/>
<path opacity="0.4" d="M122.411 102.584L122.521 106.171C121.893 106.399 121.376 106.856 121.071 107.45C120.767 108.044 120.699 108.731 120.881 109.373C121.739 112.454 119.616 116.921 117.162 118.55C117.162 118.55 117.162 117.251 116.062 117.449C114.961 117.647 114.62 124.404 116.436 127.804C116.436 127.804 112.552 124.227 111.396 116.998C110.296 110.319 110.505 106.083 111.396 102.881L122.411 102.584Z" fill="black"/>
<path d="M110.781 106.886C114.708 107.271 118.671 107.029 122.522 106.171C133.602 103.97 138.323 108.042 138.323 108.042C139.089 107.352 139.693 106.501 140.091 105.549C140.489 104.598 140.67 103.57 140.622 102.54C140.303 99.3491 135.869 98.8099 135.869 98.8099C135.869 98.8099 134.537 95.2118 131.6 94.1225C128.662 93.0332 125.713 95.762 125.713 95.762C125.713 95.762 122.049 92.2189 117.779 93.2312C116.342 93.5261 115.05 94.3056 114.118 95.4392C113.187 96.5729 112.673 97.992 112.663 99.4591C112.663 99.4591 107.656 99.9652 107.766 102.54C107.876 105.115 110.781 106.886 110.781 106.886Z" fill="#263238"/>
<path d="M127.802 120.365C129.789 120.365 131.4 118.508 131.4 116.217C131.4 113.926 129.789 112.069 127.802 112.069C125.815 112.069 124.204 113.926 124.204 116.217C124.204 118.508 125.815 120.365 127.802 120.365Z" stroke="#263238" stroke-width="0.5" stroke-linecap="round" stroke-linejoin="round"/>
<path d="M140.445 116.833C140.346 117.522 140.051 118.168 139.595 118.694C139.139 119.22 138.542 119.604 137.874 119.8C137.207 119.996 136.497 119.996 135.829 119.8C135.161 119.605 134.564 119.221 134.108 118.695C133.652 118.17 133.357 117.524 133.257 116.835C133.158 116.146 133.258 115.444 133.547 114.81C133.835 114.177 134.3 113.64 134.885 113.263C135.47 112.887 136.151 112.686 136.847 112.685C137.872 112.764 138.824 113.244 139.498 114.02C140.171 114.797 140.512 115.808 140.445 116.833Z" stroke="#263238" stroke-width="0.5" stroke-linecap="round" stroke-linejoin="round"/>
<path d="M131.39 116.712C131.39 116.712 132.556 115.986 133.249 116.833" stroke="#263238" stroke-width="0.5" stroke-linecap="round" stroke-linejoin="round"/>
<path d="M124.205 116.217L117.9 115.37C117.074 115.264 116.239 115.489 115.579 115.997L115.304 116.217" stroke="#263238" stroke-width="0.5" stroke-linecap="round" stroke-linejoin="round"/>
<path d="M110.715 117.735C111.347 119.67 112.72 121.277 114.533 122.203C116.943 123.402 118.659 121.377 118.417 118.836C118.197 116.569 116.689 113.158 114.016 113.026C113.445 113.007 112.878 113.13 112.368 113.385C111.857 113.64 111.417 114.019 111.09 114.486C110.762 114.954 110.556 115.496 110.49 116.063C110.425 116.631 110.502 117.205 110.715 117.735Z" fill="white"/>
<path opacity="0.2" d="M70.5078 176.923C80.8949 172.609 89.1034 154.795 89.1034 154.795L83.2056 151.23L75.1952 157.667L74.469 160.341C73.3687 164.423 72.3344 168.769 71.3441 173.171C71.058 174.425 70.7829 175.679 70.5078 176.923Z" fill="black"/>
<path d="M127.715 178.814L145.628 172.234L146.145 173.753L128.221 180.135L127.715 178.814Z" fill="#9468B4"/>
<path d="M81.301 224.095L29.376 215.862L24.2977 247.888L76.2227 256.122L81.301 224.095Z" fill="#9468B4"/>
<path d="M47.7426 228.055L37.1904 233.523L45.5309 241.985" stroke="white" stroke-width="2" stroke-linecap="round" stroke-linejoin="round"/>
<path d="M57.8223 243.933L68.3634 238.464L60.0339 230.002" stroke="white" stroke-width="2" stroke-linecap="round" stroke-linejoin="round"/>
<path d="M49.2051 242.568L56.3572 229.419" stroke="white" stroke-width="2" stroke-linecap="round" stroke-linejoin="round"/>
<path d="M76.9891 141.261C76.9891 141.261 57.4142 160.902 54.7514 164.72C52.0886 168.538 46.9831 210.868 46.9831 210.868C46.9831 210.868 45.8828 211.242 45.8167 212.155C45.7507 213.068 45.6407 224.952 45.8167 225.502C45.9928 226.052 54.9935 231.609 56.3249 230.288C57.6563 228.968 59.5048 215.511 59.5048 215.511L54.7514 210.868C54.7514 210.868 60.2531 179.695 63.7411 174.645C67.2291 169.594 81.4454 158.789 81.4454 158.789L76.9891 141.261Z" fill="white"/>
<path d="M92.0314 133.349C94.8813 139.39 92.7136 152.11 87.454 156.599C81.889 161.214 76.0061 165.431 69.8488 169.22L60.2539 156.643C60.2539 156.643 70.465 146.674 76.6488 140.93C80.8547 136.853 86.2359 134.201 92.0314 133.349Z" fill="#9468B4"/>
<path opacity="0.4" d="M92.0314 133.349C94.8813 139.39 92.7136 152.11 87.454 156.599C81.889 161.214 76.0061 165.431 69.8488 169.22L60.2539 156.643C60.2539 156.643 70.465 146.674 76.6488 140.93C80.8547 136.853 86.2359 134.201 92.0314 133.349Z" fill="white"/>
<path d="M60.2538 155.84L59.0654 157.457L69.0894 170.562L70.5089 169.55L60.2538 155.84Z" fill="#9468B4"/>
</svg>
