<svg width="676" height="762" viewBox="0 0 676 762" fill="none" xmlns="http://www.w3.org/2000/svg">
<path d="M1 712.679H675.124" stroke="#263238" stroke-linecap="round" stroke-linejoin="round"/>
<path d="M410.256 364.127V111.026H425.926" stroke="#263238" stroke-linecap="round" stroke-linejoin="round"/>
<path d="M410.257 394.247V387.538" stroke="#263238" stroke-linecap="round" stroke-linejoin="round"/>
<path d="M466.229 111.026H627.94V417.847H410.256" stroke="#263238" stroke-linecap="round" stroke-linejoin="round"/>
<path d="M446.414 111.026H460.622" stroke="#263238" stroke-linecap="round" stroke-linejoin="round"/>
<path d="M619.754 119.197H418.445V409.677H619.754V119.197Z" stroke="#263238" stroke-linecap="round" stroke-linejoin="round"/>
<path d="M610.394 134.746V255.38H427.801V247.501" stroke="#263238" stroke-linecap="round" stroke-linejoin="round"/>
<path d="M427.801 229.062V127.763H610.394" stroke="#263238" stroke-linecap="round" stroke-linejoin="round"/>
<path d="M427.801 241.464V233.809" stroke="#263238" stroke-linecap="round" stroke-linejoin="round"/>
<path d="M579.553 264.428H619.752" stroke="#263238" stroke-linecap="round" stroke-linejoin="round"/>
<path d="M565.259 264.428H570.953" stroke="#263238" stroke-linecap="round" stroke-linejoin="round"/>
<path d="M418.445 264.428H558.482" stroke="#263238" stroke-linecap="round" stroke-linejoin="round"/>
<path d="M508.976 255.38V251.217H525.816V253.574H519.107V255.38" stroke="#263238" stroke-linecap="round" stroke-linejoin="round"/>
<path d="M418.787 373.072C418.787 373.072 421.591 375.188 423.552 387.986C423.552 387.986 426.992 367.551 431.017 367.241C435.042 366.931 434.286 380.521 434.286 380.521C434.286 380.521 434.974 373.829 438.173 374.139C441.373 374.448 438.173 387.9 438.173 387.9C438.173 387.9 442.026 377.338 445.673 377.579C449.32 377.82 443.265 396.707 443.265 396.707C443.265 396.707 452.622 389.93 456.407 393.267C460.191 396.604 454.308 404.929 454.308 404.929C454.308 404.929 467.725 402.022 469.789 409.901" stroke="#263238" stroke-linecap="round" stroke-linejoin="round"/>
<path d="M469.807 402.314C469.807 402.314 475.655 398.478 480.265 400.267C480.265 400.267 477.341 395.812 480.265 393.094C483.189 390.377 486.939 400.267 486.939 400.267C486.939 400.267 487.369 383.668 493.218 384.511C499.066 385.354 493.218 400.267 493.218 400.267C493.218 400.267 503.659 391.013 506.17 394.23C508.682 397.446 504.45 402.314 504.45 402.314C506.338 401.778 508.333 401.742 510.239 402.21C512.145 402.677 513.896 403.632 515.322 404.981C515.322 404.981 522.323 397.842 530.098 396.81C530.098 396.81 524.937 381.793 527.431 378.766C529.926 375.738 534.501 391.873 534.501 391.873C534.501 391.873 536.497 381.38 543.102 380.555C543.102 380.555 537.649 377.596 539.266 373.106C540.883 368.617 548.4 374.173 548.4 374.173C548.4 374.173 545.304 366.277 550.206 364.11C555.108 361.943 557.087 370.715 557.087 370.715C557.087 370.715 558.463 361.53 564.208 362.115C569.953 362.7 568.096 373.192 568.096 373.192C568.096 373.192 573.514 364.798 576.421 365.641C582.218 367.361 580.463 380.641 580.463 380.641C580.463 380.641 588.548 375.016 590.647 377.613C592.745 380.211 582.218 387.607 582.218 387.607C582.218 387.607 590.251 388.484 595.257 393.18" stroke="#263238" stroke-linecap="round" stroke-linejoin="round"/>
<path d="M619.754 376.168C619.754 376.168 618.825 367.74 610.396 367.292C601.967 366.845 612.718 385.784 612.718 385.784C612.718 385.784 605.752 380.022 603.257 381.793C600.763 383.565 610.396 393.335 610.396 393.335C610.396 393.335 605.769 389.052 600.901 390.377C596.033 391.701 603.67 405.273 603.67 405.273C596.468 403.831 588.994 404.71 582.323 407.785" stroke="#263238" stroke-linecap="round" stroke-linejoin="round"/>
<path d="M332.368 637.372V712.232" stroke="#263238" stroke-linecap="round" stroke-linejoin="round"/>
<path d="M332.368 612.877V628.909" stroke="#263238" stroke-linecap="round" stroke-linejoin="round"/>
<path d="M17.2383 712.68V573.176H332.368V603.795" stroke="#263238" stroke-linecap="round" stroke-linejoin="round"/>
<path d="M63.1491 588.434H35.7988V699.882" stroke="#263238" stroke-linecap="round" stroke-linejoin="round"/>
<path d="M313.807 712.232V588.434H79.0244" stroke="#263238" stroke-linecap="round" stroke-linejoin="round"/>
<path d="M300.7 558.727H292.014" stroke="#263238" stroke-linecap="round" stroke-linejoin="round"/>
<path d="M279.542 558.727H9.41113V573.073H340.194V558.727H306.239" stroke="#263238" stroke-linecap="round" stroke-linejoin="round"/>
<path d="M28.04 466.803C28.04 466.803 53.8422 468.85 55.0119 487.944C55.0119 487.944 28.7797 500.019 28.04 466.803Z" stroke="#263238" stroke-linecap="round" stroke-linejoin="round"/>
<path d="M79.249 471.55C79.249 471.55 93.7154 451.992 117.092 462.021C117.092 462.021 102.815 485.655 79.249 471.55Z" stroke="#263238" stroke-linecap="round" stroke-linejoin="round"/>
<path d="M115.113 409.797C115.113 409.797 119.275 447.417 85.0273 437.061C85.0273 437.061 95.8986 409.402 115.113 409.797Z" stroke="#263238" stroke-linecap="round" stroke-linejoin="round"/>
<path d="M73.0554 388.846C73.0554 388.846 100.148 403.467 80.2284 425.623C80.2284 425.623 61.238 409.797 73.0554 388.846Z" stroke="#263238" stroke-linecap="round" stroke-linejoin="round"/>
<path d="M39.7363 422.475C39.7363 422.475 69.1852 419.516 69.1852 446.763C69.1852 446.763 39.7363 447.933 39.7363 422.475Z" stroke="#263238" stroke-linecap="round" stroke-linejoin="round"/>
<path d="M61.8061 503.339C61.3761 494.188 61.3761 482.422 66.9665 469.985C79.8504 441.293 84.168 417.125 77.4766 400.096" stroke="#263238" stroke-linecap="round" stroke-linejoin="round"/>
<path d="M49.4043 429.837C49.4043 429.837 67.053 436.855 73.0562 455.037" stroke="#263238" stroke-linecap="round" stroke-linejoin="round"/>
<path d="M105.843 424.849C105.843 424.849 95.6421 438.747 78.3203 437.251" stroke="#263238" stroke-linecap="round" stroke-linejoin="round"/>
<path d="M105.843 465.96C105.843 465.96 77.5806 474.096 66.2793 471.43" stroke="#263238" stroke-linecap="round" stroke-linejoin="round"/>
<path d="M36.4688 475.404C36.4688 475.404 49.1118 489.268 61.8064 489.044" stroke="#263238" stroke-linecap="round" stroke-linejoin="round"/>
<path d="M95.4001 503.338H34.0082C33.6113 503.338 33.2307 503.496 32.95 503.777C32.6694 504.057 32.5117 504.438 32.5117 504.835V509.496C32.5117 509.692 32.5505 509.886 32.6259 510.067C32.7014 510.247 32.8119 510.411 32.9511 510.549C33.0903 510.686 33.2554 510.795 33.4368 510.868C33.6183 510.941 33.8125 510.978 34.0082 510.976H35.7284L41.1984 558.727H88.1239L93.5939 510.976H95.4001C95.595 510.978 95.7884 510.941 95.9689 510.868C96.1495 510.794 96.3134 510.685 96.4513 510.548C96.5891 510.41 96.698 510.246 96.7715 510.065C96.845 509.885 96.8817 509.691 96.8794 509.496V504.835C96.8817 504.639 96.8451 504.445 96.7718 504.263C96.6985 504.082 96.5899 503.917 96.4523 503.778C96.3147 503.639 96.1508 503.528 95.9702 503.453C95.7896 503.377 95.5958 503.338 95.4001 503.338V503.338Z" stroke="#263238" stroke-miterlimit="10"/>
<path d="M39.7363 510.976H75.4465" stroke="#263238" stroke-linecap="round" stroke-linejoin="round"/>
<path d="M82.1719 510.976H87.5387" stroke="#263238" stroke-linecap="round" stroke-linejoin="round"/>
<path d="M473.454 313.022L466.574 350.418L410.463 384.511L418.221 398.754C418.221 398.754 483.087 378.972 484.67 374.345C486.252 369.718 501.2 320.711 501.2 320.711L473.454 313.022Z" fill="#263238"/>
<path d="M498.036 249.789L494.286 295.132L492.308 318.922C481.488 324.185 470.91 316.273 470.256 315.757C473.197 307.122 476.62 258.39 498.036 249.789Z" fill="#999999" stroke="#263238" stroke-linecap="round" stroke-linejoin="round"/>
<path d="M494.216 295.132L492.238 318.922C481.418 324.186 470.839 316.273 470.186 315.757C470.65 315.963 476.344 318.371 480.042 315.757C478.748 314.36 477.596 312.839 476.602 311.216C476.378 310.321 480.042 310.08 480.042 310.08C480.042 310.08 477.634 290.798 484.05 282.558C486.561 279.427 490.483 285.964 494.216 295.132Z" fill="#263238"/>
<path d="M536.894 669.693L538.614 674.751C536.007 679.054 533.087 683.159 529.876 687.032C529.876 687.032 528.156 686.482 525.335 688.976C523.597 690.709 522.525 692.999 522.307 695.444C522.307 695.444 509.165 711.2 492.497 711.424C475.829 711.648 480.852 703.253 480.852 703.253L536.894 669.693Z" fill="#9468B4" stroke="#263238" stroke-linecap="round" stroke-linejoin="round"/>
<path d="M521.223 629.596C521.223 629.596 498.861 621.357 494.492 637.836C494.492 637.836 498.483 655.983 496.092 665.909C493.701 675.834 481.66 694.79 480.92 698.385C479.458 705.438 480.559 705.919 480.559 705.919C480.559 705.919 489.314 710.976 501.08 705.558C512.846 700.14 533.212 676.814 536.395 672.015C539.577 667.216 526.418 648.294 526.418 648.294L521.223 629.596Z" fill="white"/>
<path opacity="0.4" d="M521.223 629.596C521.223 629.596 498.861 621.357 494.492 637.836C494.492 637.836 498.483 655.983 496.092 665.909C493.701 675.834 481.66 694.79 480.92 698.385C479.458 705.438 480.559 705.919 480.559 705.919C480.559 705.919 489.314 710.976 501.08 705.558C512.846 700.14 533.212 676.814 536.395 672.015C539.577 667.216 526.418 648.294 526.418 648.294L521.223 629.596Z" fill="#9468B4"/>
<path d="M521.223 629.596C521.223 629.596 498.861 621.357 494.492 637.836C494.492 637.836 498.483 655.983 496.092 665.909C493.701 675.834 481.66 694.79 480.92 698.385C479.458 705.438 480.559 705.919 480.559 705.919C480.559 705.919 489.314 710.976 501.08 705.558C512.846 700.14 533.212 676.814 536.395 672.015C539.577 667.216 526.418 648.294 526.418 648.294L521.223 629.596Z" stroke="#263238" stroke-linecap="round" stroke-linejoin="round"/>
<path d="M509.784 652.905C511.73 664.006 509.753 675.439 504.193 685.243" stroke="#263238" stroke-linecap="round" stroke-linejoin="round"/>
<path d="M504.193 689.578C503.361 691.672 502.07 693.554 500.415 695.084C498.76 696.614 496.783 697.754 494.629 698.419C490.122 699.626 485.376 699.626 480.868 698.419L486.235 687.548C491.932 689.818 498.133 690.519 504.193 689.578Z" fill="#9468B4" stroke="#263238" stroke-linecap="round" stroke-linejoin="round"/>
<path d="M507.357 682.99C507.357 682.99 495.66 683.695 489.554 681.27" stroke="#263238" stroke-linecap="round" stroke-linejoin="round"/>
<path d="M509.526 676.54C509.526 676.54 498.586 678.26 492.479 674.82" stroke="#263238" stroke-linecap="round" stroke-linejoin="round"/>
<path d="M511.383 669.366C511.383 669.366 501.801 670.76 495.54 667.801" stroke="#263238" stroke-linecap="round" stroke-linejoin="round"/>
<path d="M512.449 661.247C512.449 661.247 501.784 664.584 496.744 661.247" stroke="#263238" stroke-linecap="round" stroke-linejoin="round"/>
<path d="M514.05 641.191L515.908 652.905C515.908 652.905 501.803 662.193 492.479 650.582V638.352C492.479 638.352 495.989 646.575 514.05 641.191Z" fill="#9468B4" stroke="#263238" stroke-linecap="round" stroke-linejoin="round"/>
<path d="M501.803 378.233C487.509 423.524 443.146 496.166 447.636 514.76C450.096 524.909 464.734 582.414 476.19 607.648C480.542 617.298 489.951 623.749 489.951 623.749L496.746 638.318C513.311 645.526 519.245 630.87 519.245 630.87L515.908 614.357C524.784 598.222 521.069 598.222 509.527 514.588C508.168 504.732 531.028 474.268 531.028 474.268L542.76 550.918L544.669 613.703L550.758 633.106C550.758 633.106 552.272 651.322 552.135 652.423H579.364L582.323 632.401C582.323 632.401 594.966 620.48 594.966 606.719C594.966 592.958 592.248 522.862 594.966 502.444C597.684 482.026 588.602 386.833 588.602 386.833L501.803 378.233Z" fill="#263238"/>
<path d="M316.692 337.876L354.535 341.282C355.393 341.359 356.185 341.774 356.736 342.435C357.288 343.096 357.555 343.949 357.478 344.807L355.047 371.813L310.736 367.825L313.167 340.819C313.244 339.961 313.659 339.169 314.32 338.618C314.981 338.066 315.834 337.799 316.692 337.876Z" fill="#9468B4"/>
<path opacity="0.3" d="M316.689 337.876L354.532 341.282C355.39 341.36 356.182 341.774 356.733 342.435C357.285 343.096 357.552 343.95 357.475 344.807L355.044 371.814L310.733 367.826L313.164 340.819C313.241 339.962 313.656 339.17 314.317 338.618C314.978 338.066 315.831 337.799 316.689 337.876Z" fill="black" fill-opacity="0.7"/>
<path opacity="0.3" d="M355.128 340.814L344.279 339.882L342.415 361.579L353.264 362.511L355.128 340.814Z" fill="white" fill-opacity="0.7"/>
<path d="M316.692 337.876L354.535 341.282C355.393 341.359 356.185 341.774 356.736 342.435C357.288 343.096 357.555 343.949 357.478 344.807L355.047 371.813L310.736 367.825L313.167 340.819C313.244 339.961 313.659 339.169 314.32 338.618C314.981 338.066 315.834 337.799 316.692 337.876V337.876Z" stroke="#263238" stroke-width="1.00404" stroke-linecap="round" stroke-linejoin="round"/>
<path d="M382.011 340.267L419.715 343.506C420.57 343.58 421.36 343.99 421.913 344.646C422.465 345.302 422.734 346.151 422.661 347.005L420.349 373.912L376.201 370.12L378.512 343.212C378.586 342.358 378.996 341.568 379.652 341.015C380.308 340.463 381.157 340.194 382.011 340.267Z" fill="#9468B4"/>
<path opacity="0.3" d="M382.008 340.267L419.712 343.506C420.567 343.58 421.357 343.99 421.91 344.646C422.462 345.302 422.731 346.151 422.658 347.005L420.346 373.912L376.198 370.12L378.509 343.212C378.583 342.358 378.993 341.568 379.649 341.015C380.305 340.463 381.154 340.194 382.008 340.267Z" fill="black" fill-opacity="0.7"/>
<path opacity="0.3" d="M419.508 346.355L412.961 345.793L411.097 367.49L417.644 368.052L419.508 346.355Z" fill="white" fill-opacity="0.7"/>
<path d="M382.011 340.267L419.715 343.506C420.57 343.58 421.36 343.99 421.913 344.646C422.465 345.302 422.734 346.151 422.661 347.005L420.349 373.912L376.201 370.12L378.512 343.212C378.586 342.358 378.996 341.568 379.652 341.015C380.308 340.463 381.157 340.194 382.011 340.267Z" stroke="#263238" stroke-linecap="round" stroke-linejoin="round"/>
<path d="M368.314 339.081L406.018 342.32C406.873 342.394 407.663 342.804 408.215 343.46C408.768 344.116 409.037 344.965 408.963 345.819L406.652 372.726L362.504 368.934L364.815 342.026C364.888 341.172 365.298 340.382 365.954 339.829C366.611 339.277 367.459 339.008 368.314 339.081Z" fill="#9468B4" stroke="#263238" stroke-linecap="round" stroke-linejoin="round"/>
<path d="M433.425 344.686L471.129 347.925C471.984 347.998 472.774 348.408 473.327 349.064C473.879 349.72 474.148 350.569 474.075 351.424L471.765 378.314L427.616 374.521L429.928 347.614C430.005 346.763 430.417 345.977 431.072 345.428C431.728 344.879 432.574 344.613 433.425 344.686Z" fill="#9468B4" stroke="#263238" stroke-linecap="round" stroke-linejoin="round"/>
<path opacity="0.3" d="M406.545 345.232L395.696 344.3L393.832 365.997L404.681 366.929L406.545 345.232Z" fill="white" fill-opacity="0.7"/>
<path opacity="0.3" d="M470.942 350.759L460.094 349.827L458.23 371.524L469.078 372.456L470.942 350.759Z" fill="white" fill-opacity="0.7"/>
<path d="M491.481 373.743L480.834 497.472L281.486 480.271L292.134 356.558C292.221 355.535 292.508 354.538 292.981 353.625C293.453 352.713 294.101 351.903 294.888 351.241C295.674 350.58 296.583 350.08 297.563 349.77C298.542 349.461 299.574 349.347 300.597 349.437L484.343 365.228C485.373 365.312 486.376 365.6 487.294 366.075C488.212 366.55 489.027 367.202 489.691 367.994C490.355 368.786 490.855 369.702 491.162 370.689C491.47 371.676 491.578 372.714 491.481 373.743Z" fill="#9468B4"/>
<path opacity="0.3" d="M491.481 373.743L480.834 497.472L281.486 480.271L292.134 356.558C292.221 355.535 292.508 354.538 292.981 353.625C293.453 352.713 294.101 351.903 294.888 351.241C295.674 350.58 296.583 350.08 297.563 349.77C298.542 349.461 299.574 349.347 300.597 349.437L484.343 365.228C485.373 365.312 486.376 365.6 487.294 366.075C488.212 366.55 489.027 367.202 489.691 367.994C490.355 368.786 490.855 369.702 491.162 370.689C491.47 371.676 491.578 372.714 491.481 373.743Z" fill="black" fill-opacity="0.7"/>
<path d="M491.481 373.743L480.834 497.472L281.486 480.271L292.134 356.558C292.221 355.535 292.508 354.538 292.981 353.625C293.453 352.713 294.101 351.903 294.888 351.241C295.674 350.58 296.583 350.08 297.563 349.77C298.542 349.461 299.574 349.347 300.597 349.437L484.343 365.228C485.373 365.312 486.376 365.6 487.294 366.075C488.212 366.55 489.027 367.202 489.691 367.994C490.355 368.786 490.855 369.702 491.162 370.689C491.47 371.676 491.578 372.714 491.481 373.743V373.743Z" stroke="#263238" stroke-linecap="round" stroke-linejoin="round"/>
<path d="M491.48 373.742L480.833 497.472L332.9 484.743L343.565 361.031C343.652 360.007 343.94 359.01 344.412 358.098C344.885 357.185 345.533 356.375 346.319 355.713C347.105 355.052 348.014 354.552 348.994 354.242C349.974 353.933 351.005 353.82 352.028 353.909L484.359 365.279C485.383 365.366 486.379 365.654 487.292 366.126C488.204 366.599 489.014 367.247 489.676 368.033C490.338 368.819 490.837 369.728 491.147 370.708C491.457 371.688 491.57 372.719 491.48 373.742Z" fill="#9468B4" stroke="#263238" stroke-linecap="round" stroke-linejoin="round"/>
<path opacity="0.3" d="M481.091 377.287L354.643 366.415C353.8 366.341 353.02 365.939 352.47 365.296C351.92 364.652 351.644 363.819 351.702 362.975C351.776 362.132 352.178 361.352 352.822 360.802C353.465 360.252 354.298 359.976 355.142 360.034L481.59 370.905C482.433 370.979 483.213 371.381 483.763 372.025C484.313 372.668 484.588 373.501 484.531 374.345C484.457 375.188 484.055 375.968 483.411 376.518C482.768 377.068 481.935 377.344 481.091 377.287Z" fill="white" fill-opacity="0.7"/>
<path d="M580.258 653.128C580.258 653.128 570.729 646.334 551.016 647.693C551.016 647.693 549.571 671.345 546.887 678.225C544.204 685.106 530.064 697.026 527.433 699.073C524.801 701.12 524.801 708.259 524.801 708.259H584.696C583.928 698.021 582.334 687.862 579.931 677.881L580.258 653.128Z" fill="white"/>
<path opacity="0.4" d="M580.258 653.128C580.258 653.128 570.729 646.334 551.016 647.693C551.016 647.693 549.571 671.345 546.887 678.225C544.204 685.106 530.064 697.026 527.433 699.073C524.801 701.12 524.801 708.259 524.801 708.259H584.696C583.928 698.021 582.334 687.862 579.931 677.881L580.258 653.128Z" fill="#9468B4"/>
<path d="M580.258 653.128C580.258 653.128 570.729 646.334 551.016 647.693C551.016 647.693 549.571 671.345 546.887 678.225C544.204 685.106 530.064 697.026 527.433 699.073C524.801 701.12 524.801 708.259 524.801 708.259H584.696C583.928 698.021 582.334 687.862 579.931 677.881L580.258 653.128Z" stroke="#263238" stroke-linecap="round" stroke-linejoin="round"/>
<path d="M567.891 656.19C567.891 656.19 566.481 677.967 563.092 683.712C561.282 686.87 559.048 689.763 556.452 692.313" stroke="#263238" stroke-linecap="round" stroke-linejoin="round"/>
<path d="M554.799 695.323C554.799 695.323 551.789 699.073 548.452 699.572C545.115 700.071 527.483 699.073 527.483 699.073L534.674 692.846C534.674 692.846 549.295 690.386 554.799 695.323Z" fill="#9468B4" stroke="#263238" stroke-linecap="round" stroke-linejoin="round"/>
<path d="M561.028 690.215C561.028 690.215 548.265 682.887 539.165 688.495" stroke="#263238" stroke-linecap="round" stroke-linejoin="round"/>
<path d="M564.106 685.243C564.106 685.243 555.196 678.276 544.686 682.095" stroke="#263238" stroke-linecap="round" stroke-linejoin="round"/>
<path d="M567.891 677.657C567.891 677.657 558.292 670.192 548.178 674.939" stroke="#263238" stroke-linecap="round" stroke-linejoin="round"/>
<path d="M569.198 668.179C569.198 668.179 557.553 661.918 549.09 666.666" stroke="#263238" stroke-linecap="round" stroke-linejoin="round"/>
<path d="M584.679 708.258V712.679H577.799C577.799 712.679 571.899 709.239 566.291 712.679H533.987C530.573 712.668 527.204 711.91 524.113 710.46L524.784 708.258H584.679Z" fill="#9468B4" stroke="#263238" stroke-linecap="round" stroke-linejoin="round"/>
<path d="M576.096 651.735L574.565 661.385C574.565 661.385 556.589 655.553 546.664 659.338V647.469C546.664 647.469 565.121 641.001 576.096 651.735Z" fill="#9468B4" stroke="#263238" stroke-linecap="round" stroke-linejoin="round"/>
<path d="M595.531 411.31C595.531 411.31 557.327 418.793 519.845 406.649C511.311 403.929 503.147 400.162 495.539 395.433C495.539 395.433 495.643 393.025 495.711 389.086C496.021 373.708 495.935 335.022 487.833 325.441C482.673 319.403 478.63 282.076 488.59 263.206L519.054 238.711C561.232 246.951 570.142 258.114 577.108 282.196C578.399 286.6 579.603 291.434 580.944 296.766C582.407 302.58 583.783 309.684 585.09 317.408C591.42 355.87 595.531 411.31 595.531 411.31Z" fill="#999999"/>
<path opacity="0.2" d="M585.091 317.408L567.889 394.247C567.889 394.247 543.033 401.127 519.863 406.649C511.323 403.931 503.153 400.164 495.54 395.434C495.54 395.434 495.643 393.026 495.712 389.086C516.526 378.439 546.903 362.786 546.663 362.046C546.267 360.893 546.663 320.762 546.663 320.762C546.663 320.762 574.185 314.381 577.109 282.145C578.399 286.549 579.603 291.382 580.945 296.715C582.407 302.546 583.783 309.599 585.091 317.408Z" fill="black"/>
<path d="M595.531 411.31C595.531 411.31 557.327 418.793 519.845 406.649C511.311 403.929 503.147 400.162 495.539 395.433C495.539 395.433 495.643 393.025 495.711 389.086C496.021 373.708 495.935 335.022 487.833 325.441C482.673 319.403 478.63 282.076 488.59 263.206L519.054 238.711C561.232 246.951 570.142 258.114 577.109 282.196C578.399 286.6 579.603 291.434 580.944 296.766C582.407 302.58 583.783 309.684 585.09 317.408C591.42 355.87 595.531 411.31 595.531 411.31Z" stroke="#263238" stroke-linecap="round" stroke-linejoin="round"/>
<path d="M520.397 206.562C520.397 206.562 506.945 225.828 524.835 240.862C524.835 240.862 503.127 265.219 495.988 261.865C492.978 260.454 495.988 251.664 495.988 251.664L483.396 228.373L520.397 206.562Z" fill="white" stroke="#263238" stroke-linecap="round" stroke-linejoin="round"/>
<path d="M516.01 216.539C520.207 198.185 518.194 170.852 492.478 173.277C474.451 174.997 461.602 184.974 466.676 209.159C468.792 219.36 470.529 233.809 479.887 246.848C482.484 250.46 509.663 237.679 508.011 227.341" fill="white"/>
<path d="M516.01 216.539C520.207 198.185 518.194 170.852 492.478 173.277C474.451 174.997 461.602 184.974 466.676 209.159C468.792 219.36 470.529 233.809 479.887 246.848C482.484 250.46 509.663 237.679 508.011 227.341" stroke="#263238" stroke-linecap="round" stroke-linejoin="round"/>
<path d="M479.217 205.066C481.03 204.364 482.983 204.096 484.919 204.284C486.854 204.472 488.719 205.111 490.363 206.149" stroke="#263238" stroke-linecap="round" stroke-linejoin="round"/>
<path d="M466.281 207.319C466.612 206.615 467.185 206.053 467.896 205.737C468.606 205.421 469.407 205.372 470.152 205.599" stroke="#263238" stroke-linecap="round" stroke-linejoin="round"/>
<path d="M472.714 211.137C472.714 211.137 467.416 220.787 467.398 222.164C467.381 223.54 473.918 224.004 473.918 224.004" fill="white"/>
<path d="M472.714 211.137C472.714 211.137 467.416 220.787 467.398 222.164C467.381 223.54 473.918 224.004 473.918 224.004" stroke="#263238" stroke-linecap="round" stroke-linejoin="round"/>
<path d="M484.1 213.098C484.1 214.148 483.636 215.008 482.982 215.042C482.329 215.077 481.778 214.217 481.744 213.167C481.709 212.118 482.208 211.258 482.862 211.241C483.516 211.224 484.066 212.084 484.1 213.098Z" fill="#263238"/>
<path d="M476.619 231.023C476.619 231.023 486.785 229.113 488.66 225.535" stroke="#263238" stroke-linecap="round" stroke-linejoin="round"/>
<path d="M466.211 192.457L474.124 190.152C474.124 190.152 485.219 184.992 487.575 185.714C489.932 186.436 494.714 193.781 494.559 197.979C494.559 197.979 502.024 204.55 502.97 214.079L505.241 213.047C505.241 213.047 505.121 204.446 510.006 204.67C514.891 204.894 517.093 210.742 516.766 212.583C516.439 214.423 511.09 222.061 511.09 222.061C511.09 222.061 523.337 220.237 523.733 196.259C524.128 172.28 497.844 168.375 485.064 169.355C478.593 169.975 472.091 170.217 465.592 170.078L466.314 176.959L461.154 178.317L465.041 183.082L460.775 185.026L466.211 192.457Z" fill="#263238"/>
<path d="M510.523 453.919C510.523 453.919 541.658 462.158 550.087 485.346" stroke="white" stroke-linecap="round" stroke-linejoin="round"/>
<path d="M524.783 466.389C524.783 466.389 507.96 494.411 482.21 508.963" stroke="white" stroke-linecap="round" stroke-linejoin="round"/>
<path d="M501.131 623.972C501.131 623.972 510.695 621.821 513.309 618.106" stroke="white" stroke-linecap="round" stroke-linejoin="round"/>
<path d="M554.386 627.532C554.386 627.532 563.743 622.681 573.066 627.532" stroke="white" stroke-linecap="round" stroke-linejoin="round"/>
<path d="M584.678 497.077C584.678 497.077 568.973 537.758 561.026 541.525" stroke="white" stroke-linecap="round" stroke-linejoin="round"/>
<path d="M515.907 433.363C516.337 437.784 534.829 458.27 550.086 466.39" stroke="white" stroke-linecap="round" stroke-linejoin="round"/>
<path d="M531.681 416.076C533.907 421.561 534.37 427.603 533.005 433.363C531.521 438.335 531.521 443.632 533.005 448.604" stroke="white" stroke-linecap="round" stroke-linejoin="round"/>
<path d="M498.035 331.479C498.035 331.479 526.985 368.943 558.103 381.242" stroke="#263238" stroke-linecap="round" stroke-linejoin="round"/>
<path d="M528.001 270.912C528.001 270.912 527.898 296.388 546.269 307.878" stroke="#263238" stroke-linecap="round" stroke-linejoin="round"/>
<path d="M538.339 308.085C534.452 311.904 538.683 359.827 538.683 359.827C538.683 359.827 516.098 368.668 509.028 374.362C501.958 380.056 468.467 393.129 468.467 393.129C468.467 393.129 463.307 410.709 469.74 411.311C476.173 411.913 542.794 389.207 558.035 381.243C558.035 381.243 567.96 322.758 567.891 307.879" fill="white"/>
<path d="M538.339 308.085C534.452 311.904 538.683 359.827 538.683 359.827C538.683 359.827 516.098 368.668 509.028 374.362C501.958 380.056 468.467 393.129 468.467 393.129C468.467 393.129 463.307 410.709 469.74 411.311C476.173 411.913 542.794 389.207 558.035 381.243C558.035 381.243 567.96 322.758 567.891 307.879" stroke="#263238" stroke-linecap="round" stroke-linejoin="round"/>
<path d="M471.116 392.079C468.02 391.494 462.515 389.465 459.625 390.136C456.735 390.806 451.455 393.989 446.019 395.296C440.583 396.603 442.837 398.736 446.019 399.373C448.348 399.761 450.725 399.761 453.054 399.373L448.634 403.69C446.102 405.061 443.488 406.273 440.807 407.32C439.207 407.32 433.548 408.851 433.926 411.259C434.305 413.667 437.556 413.392 441.185 413.529C441.185 413.529 435.406 414.682 436.025 417.967C436.403 420.221 442.905 418.191 446.225 418.191C446.225 418.191 443.508 421.15 445.537 422.061C447.567 422.973 452.074 420.702 452.074 420.702C452.074 420.702 451.902 423.145 453.932 423.386C455.961 423.627 461.07 421.666 464.545 419.567C467.967 417.362 471.242 414.937 474.35 412.308C475.665 411.106 477.17 410.129 478.805 409.418" fill="white"/>
<path d="M471.116 392.079C468.02 391.494 462.515 389.465 459.625 390.136C456.735 390.806 451.455 393.989 446.019 395.296C440.583 396.603 442.837 398.736 446.019 399.373C448.348 399.761 450.725 399.761 453.054 399.373L448.634 403.69C446.102 405.061 443.488 406.273 440.807 407.32C439.207 407.32 433.548 408.851 433.926 411.259C434.305 413.667 437.556 413.392 441.185 413.529C441.185 413.529 435.406 414.682 436.025 417.967C436.403 420.221 442.905 418.191 446.225 418.191C446.225 418.191 443.508 421.15 445.537 422.061C447.567 422.973 452.074 420.702 452.074 420.702C452.074 420.702 451.902 423.145 453.932 423.386C455.961 423.627 461.07 421.666 464.545 419.567C467.967 417.362 471.242 414.937 474.35 412.308C475.665 411.106 477.17 410.129 478.805 409.418" stroke="#263238" stroke-linecap="round" stroke-linejoin="round"/>
<path d="M441.27 413.598C442.868 413.512 444.459 413.328 446.034 413.048C447.393 412.704 448.752 412.257 448.752 412.257" stroke="#263238" stroke-linecap="round" stroke-linejoin="round"/>
<path d="M446.241 418.26C448.32 417.968 450.323 417.279 452.141 416.23" stroke="#263238" stroke-linecap="round" stroke-linejoin="round"/>
<path d="M452.09 420.771C453.628 420.577 455.1 420.03 456.39 419.171" stroke="#263238" stroke-linecap="round" stroke-linejoin="round"/>
<path d="M449.182 404.998C449.182 404.998 447.944 407.836 449.182 409.418C450.421 411.001 451.917 411.138 452.141 412.859C452.365 414.579 455.323 414.579 456.39 415.697C457.456 416.815 458.265 418.965 461.67 419.137" stroke="#263238" stroke-linecap="round" stroke-linejoin="round"/>
<path d="M536.894 258.39C525.18 284.897 536.894 321.674 536.894 321.674C536.894 321.674 565.242 331.307 567.856 327.161C570.471 323.016 575.253 302.684 576.061 293.292" fill="#999999"/>
<path d="M536.894 258.39C525.18 284.897 536.894 321.674 536.894 321.674C536.894 321.674 565.242 331.307 567.856 327.161C570.471 323.016 575.253 302.684 576.061 293.292" stroke="#263238" stroke-linecap="round" stroke-linejoin="round"/>
<path d="M567.889 296.233C567.889 296.233 555.848 312.798 546.267 313.021" stroke="#263238" stroke-linecap="round" stroke-linejoin="round"/>
<path d="M137.511 712.68C137.511 712.68 134.57 701.447 138.01 697.284C144.168 689.819 137.253 683.523 143.445 680.96L146.043 683.97C146.542 680.926 145.097 671.62 156.587 670.416C170.486 668.954 170.744 679.016 171.501 682.457L171.26 677.795C177.195 677.795 174.116 683.712 183.095 693.38C185.449 695.99 187.241 699.056 188.359 702.388C189.478 705.72 189.899 709.247 189.597 712.748L137.511 712.68Z" fill="#263238"/>
<path d="M243.453 712.679C237.862 710.185 242.988 689.096 242.988 689.096C242.988 689.096 235.471 684.056 242.988 678.775C245.896 681.239 249.421 682.861 253.183 683.468C256.945 684.074 260.801 683.641 264.335 682.216C264.335 682.216 265.797 668.11 274.656 669.917C274.656 669.917 276.927 678.861 282.104 683.97C296.124 697.731 314.237 699.451 317.264 706.057C318.176 708.052 317.075 712.611 317.075 712.611L243.453 712.679Z" fill="#263238"/>
<path d="M219.561 376.358L226.441 390.944C226.441 390.944 254.892 449.739 272.317 517.065C272.73 518.665 281.744 550.556 274.519 629.975L278.648 643.909L274.141 666.924C274.141 666.924 280.918 676.712 280.677 679.911C280.677 679.911 263.958 683.025 258.315 686.018C253.981 688.357 240.959 701.206 240.959 701.206C237.261 700.45 236.934 685.519 236.934 685.519C236.934 685.519 229.211 552.947 226.992 547.236C224.773 541.526 211.218 516.893 190.06 460.524C190.06 460.524 189.579 539.255 183.937 559.174C178.896 576.892 184.865 626.483 184.865 626.483L181.425 681.683C181.425 681.683 193.328 694.051 183.678 697.37C183.678 697.37 177.228 684.968 158.857 682.147C149.516 680.702 137.888 697.285 137.888 697.285C133.794 695.977 139.608 675.146 139.608 675.146C126.587 576.892 136.168 594.678 133.588 546.652C131.868 515.827 123.181 383.961 133.433 373.244L219.561 376.358Z" fill="#BFBFBF"/>
<path opacity="0.2" d="M128.651 421.769C174.647 425.382 214.468 410.33 231.756 402.469C228.47 395.107 226.458 390.944 226.458 390.944L219.577 376.375L133.57 373.244C129.923 377.114 128.633 396.776 128.651 421.769Z" fill="black"/>
<path opacity="0.2" d="M190.524 461.539C211.459 517.186 224.927 541.543 227.095 547.219C228.35 550.522 231.429 595.538 233.838 633.312C236.59 598.91 239.428 562.666 239.669 555.562C240.185 541.388 229.95 521.968 228.419 516.945C226.888 511.922 230.346 506.486 230.346 506.486L211.94 483.264C212.559 475.386 202.806 441 202.806 441C197.009 446.488 191.849 458.168 190.524 461.539Z" fill="black"/>
<path d="M219.561 376.358L226.441 390.944C226.441 390.944 254.892 449.739 272.317 517.065C272.73 518.665 281.744 550.556 274.519 629.975L278.648 643.908L274.141 666.924C274.141 666.924 280.918 676.712 280.677 679.911C280.677 679.911 263.958 683.024 258.315 686.018C253.981 688.357 240.959 701.206 240.959 701.206C237.261 700.45 236.934 685.519 236.934 685.519C236.934 685.519 229.211 552.947 226.992 547.236C224.773 541.526 211.218 516.893 190.06 460.524C190.06 460.524 189.579 539.255 183.936 559.174C178.896 576.892 184.865 626.483 184.865 626.483L181.425 681.683C181.425 681.683 193.328 694.051 183.678 697.37C183.678 697.37 177.228 684.968 158.857 682.147C149.516 680.702 137.888 697.285 137.888 697.285C133.794 695.977 139.608 675.146 139.608 675.146C126.587 576.892 136.168 594.678 133.588 546.652C131.868 515.827 123.181 383.961 133.433 373.244L219.561 376.358Z" stroke="#263238" stroke-linecap="round" stroke-linejoin="round"/>
<path d="M190.13 460.524C190.13 460.524 200.64 440.243 209.602 434.584" stroke="#263238" stroke-linecap="round" stroke-linejoin="round"/>
<path d="M213.557 428.014C213.557 428.014 181.631 437.732 170.554 439.607" stroke="#263238" stroke-linecap="round" stroke-linejoin="round"/>
<path d="M197.217 395.434C198.593 422.01 207.968 426.534 198.937 432.331C198.937 432.331 199.195 444.768 194.688 452.646" stroke="#263238" stroke-linecap="round" stroke-linejoin="round"/>
<path d="M141.277 385.268C141.277 385.268 145.044 426.121 132.47 433.81" stroke="#263238" stroke-linecap="round" stroke-linejoin="round"/>
<path d="M132.47 398.444C132.47 398.444 131.524 425.64 132.47 447.554C132.47 447.554 135.618 540.184 138.766 551.812C141.914 563.44 133.915 581.055 134.603 631.317" stroke="#263238" stroke-linecap="round" stroke-linejoin="round"/>
<path d="M162.606 670.657C159.63 670.009 156.52 670.423 153.816 671.826" stroke="#263238" stroke-linecap="round" stroke-linejoin="round"/>
<path d="M181.529 681.683C177.584 677.844 173.011 674.708 168.009 672.411" stroke="#263238" stroke-linecap="round" stroke-linejoin="round"/>
<path d="M176.369 466.94C169.317 474.853 158.136 489.766 146.68 491.022" stroke="#263238" stroke-linecap="round" stroke-linejoin="round"/>
<path d="M187.154 454.073C184.986 456.809 182.75 459.492 180.479 462.158" stroke="#263238" stroke-linecap="round" stroke-linejoin="round"/>
<path d="M177.107 546.652C177.107 546.652 161.075 568.48 152.285 569.736" stroke="#263238" stroke-linecap="round" stroke-linejoin="round"/>
<path d="M195.96 456.585C195.96 456.585 224.514 536.107 234.44 543.951C234.44 543.951 235.558 602.436 235.884 622.854C236.211 643.272 240.907 670.416 240.907 670.416" stroke="#263238" stroke-linecap="round" stroke-linejoin="round"/>
<path d="M271.39 669.831C271.39 669.831 260.398 673.633 255.049 676.058C251.764 677.662 249.19 680.426 247.824 683.816" stroke="#263238" stroke-linecap="round" stroke-linejoin="round"/>
<path d="M243.574 515.276C228.248 505.661 208.036 493.637 199.883 476.694" stroke="#263238" stroke-linecap="round" stroke-linejoin="round"/>
<path d="M256.94 523.206C254.033 521.606 251.177 519.938 248.339 518.218" stroke="#263238" stroke-linecap="round" stroke-linejoin="round"/>
<path d="M208.637 406.185C200.397 406.064 191.435 404.981 184.331 400.319" stroke="#263238" stroke-linecap="round" stroke-linejoin="round"/>
<path d="M221.728 405.411C219.372 405.738 216.998 405.944 214.624 406.065" stroke="#263238" stroke-linecap="round" stroke-linejoin="round"/>
<path d="M237.021 222.8C230.725 213.271 198.644 210.846 178.054 210.846C157.464 210.846 132.47 207.405 121.186 230.627C112.585 248.362 132.402 342.144 132.402 342.144L127.551 382.636C164.843 394.333 228.729 391.753 228.729 391.753L220.129 355.148C220.129 355.148 243.316 232.313 237.021 222.8Z" fill="#263238"/>
<path d="M165.824 187.297C165.824 187.297 168.594 209.366 160.199 214.131C160.199 214.131 164.396 230.318 179.121 231.333C193.845 232.347 200.347 216.539 200.347 216.539L165.824 187.297Z" fill="white" stroke="#263238" stroke-linecap="round" stroke-linejoin="round"/>
<path d="M243.856 130.632L281.539 127.156C282.393 127.077 283.243 127.341 283.903 127.889C284.563 128.437 284.977 129.225 285.056 130.079L287.537 156.971L243.482 161.035L241.001 134.143C240.923 133.301 241.178 132.461 241.712 131.805C242.246 131.149 243.015 130.727 243.856 130.632Z" fill="#9468B4"/>
<path opacity="0.3" d="M243.856 130.632L281.539 127.156C282.393 127.077 283.243 127.341 283.903 127.889C284.563 128.437 284.977 129.225 285.056 130.079L287.537 156.971L243.482 161.035L241.001 134.143C240.923 133.3 241.178 132.461 241.712 131.805C242.246 131.148 243.015 130.727 243.856 130.632Z" fill="black" fill-opacity="0.7"/>
<path opacity="0.3" d="M282.636 129.876L271.794 130.876L273.794 152.561L284.637 151.561L282.636 129.876Z" fill="white" fill-opacity="0.7"/>
<path d="M243.856 130.632L281.539 127.156C282.393 127.077 283.243 127.341 283.903 127.889C284.563 128.437 284.977 129.225 285.056 130.079L287.537 156.971L243.482 161.035L241.001 134.143C240.923 133.301 241.178 132.461 241.712 131.805C242.246 131.149 243.015 130.727 243.856 130.632V130.632Z" stroke="#263238" stroke-linecap="round" stroke-linejoin="round"/>
<path d="M309.011 124.586L346.694 121.11C347.548 121.032 348.399 121.295 349.058 121.844C349.718 122.392 350.133 123.18 350.212 124.034L352.692 150.926L308.569 154.996L306.088 128.104C306.009 127.249 306.273 126.399 306.821 125.739C307.369 125.08 308.157 124.665 309.011 124.586Z" fill="#9468B4"/>
<path opacity="0.3" d="M309.011 124.586L346.694 121.11C347.548 121.032 348.399 121.295 349.058 121.844C349.718 122.392 350.133 123.18 350.212 124.034L352.692 150.926L308.569 154.996L306.088 128.104C306.009 127.249 306.273 126.399 306.821 125.739C307.369 125.08 308.157 124.665 309.011 124.586Z" fill="black" fill-opacity="0.7"/>
<path opacity="0.3" d="M347.014 123.955L340.471 124.559L342.471 146.244L349.014 145.64L347.014 123.955Z" fill="white" fill-opacity="0.7"/>
<path d="M309.011 124.586L346.694 121.11C347.548 121.032 348.399 121.295 349.058 121.844C349.718 122.392 350.133 123.18 350.212 124.034L352.692 150.926L308.569 154.996L306.088 128.104C306.009 127.249 306.273 126.399 306.821 125.739C307.369 125.08 308.157 124.665 309.011 124.586V124.586Z" stroke="#263238" stroke-linecap="round" stroke-linejoin="round"/>
<path d="M295.32 125.838L333.003 122.363C333.857 122.284 334.708 122.548 335.367 123.096C336.027 123.644 336.442 124.432 336.52 125.286L339.001 152.178L294.809 156.254L292.328 129.362C292.289 128.933 292.335 128.501 292.465 128.09C292.594 127.68 292.805 127.299 293.083 126.971C293.362 126.643 293.703 126.374 294.087 126.179C294.472 125.985 294.891 125.869 295.32 125.838Z" fill="#9468B4" stroke="#263238" stroke-linecap="round" stroke-linejoin="round"/>
<path d="M360.408 119.834L398.091 116.358C398.945 116.279 399.795 116.543 400.455 117.091C401.114 117.64 401.529 118.427 401.608 119.281L404.089 146.173L359.965 150.243L357.485 123.351C357.406 122.497 357.669 121.647 358.218 120.987C358.766 120.328 359.554 119.913 360.408 119.834Z" fill="#9468B4" stroke="#263238" stroke-linecap="round" stroke-linejoin="round"/>
<path opacity="0.3" d="M334.038 125.141L323.195 126.141L325.196 147.826L336.038 146.826L334.038 125.141Z" fill="white" fill-opacity="0.7"/>
<path opacity="0.3" d="M398.413 119.185L387.57 120.185L389.571 141.87L400.413 140.87L398.413 119.185Z" fill="white" fill-opacity="0.7"/>
<path d="M422.711 138.135L434.133 261.779L234.854 280.184L223.501 156.506C223.31 154.44 223.947 152.382 225.273 150.785C226.599 149.188 228.504 148.183 230.571 147.991L414.213 131.048C415.237 130.953 416.269 131.062 417.251 131.367C418.233 131.672 419.144 132.169 419.934 132.827C420.723 133.485 421.375 134.293 421.851 135.204C422.328 136.115 422.62 137.111 422.711 138.135Z" fill="#9468B4"/>
<path opacity="0.3" d="M422.711 138.135L434.133 261.779L234.854 280.184L223.501 156.506C223.31 154.44 223.947 152.382 225.273 150.785C226.599 149.188 228.504 148.183 230.571 147.991L414.213 131.048C415.237 130.953 416.269 131.062 417.251 131.367C418.233 131.672 419.144 132.169 419.934 132.827C420.723 133.485 421.375 134.293 421.851 135.204C422.328 136.115 422.62 137.111 422.711 138.135Z" fill="black" fill-opacity="0.7"/>
<path d="M422.711 138.135L434.133 261.779L234.854 280.184L223.501 156.506C223.31 154.44 223.947 152.382 225.273 150.785C226.599 149.188 228.504 148.183 230.571 147.991L414.213 131.048C415.237 130.953 416.269 131.062 417.251 131.367C418.233 131.672 419.144 132.169 419.934 132.827C420.723 133.485 421.375 134.293 421.851 135.204C422.328 136.115 422.62 137.111 422.711 138.135V138.135Z" stroke="#263238" stroke-linecap="round" stroke-linejoin="round"/>
<path d="M422.71 138.135L434.132 261.779L286.2 275.42L274.795 151.776C274.604 149.709 275.241 147.651 276.567 146.055C277.893 144.458 279.798 143.453 281.865 143.261L414.127 131.048C415.157 130.942 416.198 131.041 417.19 131.341C418.182 131.641 419.104 132.135 419.903 132.794C420.701 133.454 421.361 134.266 421.843 135.183C422.325 136.1 422.62 137.103 422.71 138.135Z" fill="#9468B4" stroke="#263238" stroke-linecap="round" stroke-linejoin="round"/>
<path opacity="0.3" d="M413.129 143.45L286.75 155.113C285.908 155.17 285.078 154.896 284.435 154.35C283.792 153.804 283.388 153.028 283.31 152.188C283.247 151.348 283.517 150.518 284.06 149.874C284.604 149.231 285.378 148.827 286.217 148.748L412.595 137.085C413.437 137.028 414.268 137.301 414.91 137.848C415.553 138.394 415.957 139.17 416.036 140.01C416.089 140.848 415.816 141.674 415.275 142.315C414.733 142.956 413.964 143.363 413.129 143.45Z" fill="white" fill-opacity="0.7"/>
<path d="M191.057 143.536C191.057 143.536 161.901 137.688 158.632 156.454C155.364 175.221 166.046 183.203 166.046 183.203L191.057 143.536Z" fill="#263238"/>
<path d="M166.048 193.507C162.716 184.177 162.196 174.075 164.551 164.453C167.406 152.412 181.752 135.847 203.512 150.899C214.71 158.656 215.398 175.497 211.907 190.909C211.081 194.59 211.7 198.185 210.479 201.574C206.178 213.443 198.317 222.577 194.017 222.783C186.844 223.145 172.498 214.458 173.083 206.889" fill="white"/>
<path d="M166.048 193.507C162.716 184.177 162.196 174.075 164.551 164.453C167.406 152.412 181.752 135.847 203.512 150.899C214.71 158.656 215.398 175.497 211.907 190.909C211.081 194.59 211.7 198.185 210.479 201.574C206.178 213.443 198.317 222.577 194.017 222.783C186.844 223.145 172.498 214.458 173.083 206.889" stroke="#263238" stroke-linecap="round" stroke-linejoin="round"/>
<path d="M195.1 188.053C195.1 188.053 189.303 183.856 183.729 187.296" stroke="#263238" stroke-linecap="round" stroke-linejoin="round"/>
<path d="M206.04 187.297C206.04 187.297 210.426 183.272 213.282 183.856" stroke="#263238" stroke-linecap="round" stroke-linejoin="round"/>
<path d="M186.912 194.487C186.912 195.554 187.445 196.431 188.116 196.431C188.787 196.431 189.337 195.554 189.337 194.487C189.337 193.421 188.787 192.561 188.116 192.561C187.445 192.561 186.912 193.421 186.912 194.487Z" fill="#263238"/>
<path d="M206.04 195.347C206.714 195.347 207.261 194.484 207.261 193.42C207.261 192.356 206.714 191.494 206.04 191.494C205.365 191.494 204.818 192.356 204.818 193.42C204.818 194.484 205.365 195.347 206.04 195.347Z" fill="#263238"/>
<path d="M203.581 191.356C201.448 194.143 204.441 204.756 203.581 205.513C202.721 206.27 197.251 204.12 197.251 204.12C197.251 204.12 195.978 202.503 198.644 201.643" stroke="#263238" stroke-linecap="round" stroke-linejoin="round"/>
<path d="M198.731 210.846C198.731 210.846 191.386 210.846 189.425 208.162" stroke="#263238" stroke-linecap="round" stroke-linejoin="round"/>
<path d="M181.149 171.093L180.582 179.969C180.582 179.969 174.286 183.22 172.704 186.522C171.762 188.685 171.417 191.061 171.706 193.403C171.706 193.403 167.887 186.729 165.823 187.279C165.083 187.468 165.083 190.272 165.083 190.272C165.083 190.272 156.483 171.075 164.258 160.927C172.033 150.778 181.149 171.093 181.149 171.093Z" fill="#757575" stroke="#263238" stroke-linecap="round" stroke-linejoin="round"/>
<path d="M169.024 191.494C169.024 191.494 167.304 185.044 161.507 183.341C155.71 181.638 159.683 197.102 164.62 199.114C169.557 201.127 170.795 202.555 171.088 200.714" fill="white"/>
<path d="M169.024 191.494C169.024 191.494 167.304 185.044 161.507 183.341C155.71 181.638 159.683 197.102 164.62 199.114C169.557 201.127 170.795 202.555 171.088 200.714" stroke="#263238" stroke-linecap="round" stroke-linejoin="round"/>
<path d="M161.127 169.975C160.645 169.321 158.512 152.774 169.435 145.343C180.358 137.912 198.815 138.703 210.564 148.989C222.312 159.276 218.975 177.114 210.564 183.203V175.755C210.564 175.755 206.693 183.22 195.082 183.839L198.626 178.369C198.626 178.369 192.915 181.81 182.852 181.517C182.852 181.517 187.582 177.75 186.894 174.396C186.912 174.396 170.931 183.392 161.127 169.975Z" fill="#263238"/>
<path d="M163.174 229.63C155.124 230.593 143.668 241.103 151.133 259.766C155.898 271.601 195.048 264.566 195.048 264.566C209.566 258.58 230.776 237.043 246.343 227.049C246.343 227.049 243.057 206.408 239.273 209.332C221.676 222.801 207.21 223.729 182.663 235.53C182.715 235.461 168.231 229.027 163.174 229.63Z" fill="white" stroke="#263238" stroke-linecap="round" stroke-linejoin="round"/>
<path d="M181.15 252.542C180.909 260.248 184.074 261.607 189.406 263.43L181.15 252.542Z" fill="white"/>
<path d="M181.15 252.542C180.909 260.248 184.074 261.607 189.406 263.43" stroke="#263238" stroke-linecap="round" stroke-linejoin="round"/>
<path d="M238.104 210.846C238.465 209.728 244.984 198.271 246.825 195.364C248.665 192.457 256.887 189.825 260.07 188.071C263.252 186.316 263.51 183.65 265.23 185.56C266.95 187.469 265.23 191.821 255.701 196.448C259.087 196.635 262.481 196.635 265.867 196.448C268.412 196.07 270.683 193.765 271.818 195.364C272.954 196.964 273.177 199.837 267.501 201.591C264.801 202.57 261.973 203.149 259.106 203.311C261.884 203.905 264.614 204.698 267.277 205.685C268.189 206.356 269.548 207.921 270.907 208.162C272.266 208.403 273.745 209.882 271.251 211.602C270.366 212.091 269.375 212.356 268.365 212.374C267.355 212.392 266.355 212.163 265.454 211.706C265.454 211.706 272.042 214.888 269.995 216.866C267.948 218.844 261.394 218.449 261.394 218.449C261.394 218.449 251.675 230.3 243.453 227.823" fill="white"/>
<path d="M238.104 210.846C238.465 209.728 244.984 198.271 246.825 195.364C248.665 192.457 256.887 189.825 260.07 188.071C263.252 186.316 263.51 183.65 265.23 185.56C266.95 187.469 265.23 191.821 255.701 196.448C259.087 196.635 262.481 196.635 265.867 196.448C268.412 196.07 270.683 193.765 271.818 195.364C272.954 196.964 273.177 199.837 267.501 201.591C264.801 202.57 261.973 203.149 259.106 203.311C261.884 203.905 264.614 204.698 267.277 205.685C268.189 206.356 269.548 207.921 270.907 208.162C272.266 208.403 273.745 209.882 271.251 211.602C270.366 212.091 269.375 212.356 268.365 212.374C267.355 212.392 266.355 212.163 265.454 211.706C265.454 211.706 272.042 214.888 269.995 216.866C267.948 218.844 261.394 218.449 261.394 218.449C261.394 218.449 251.675 230.3 243.453 227.823" stroke="#263238" stroke-linecap="round" stroke-linejoin="round"/>
<path d="M249.75 195.347C250.306 195.476 250.816 195.757 251.223 196.157C251.629 196.558 251.918 197.064 252.055 197.618C252.623 199.648 254.291 199.768 255.306 202.039C256.321 204.309 256.029 207.818 257.026 209.022C258.024 210.226 257.026 215.301 257.026 215.301" stroke="#263238" stroke-linecap="round" stroke-linejoin="round"/>
<path d="M164.862 228.167C160.647 222.8 151.187 225.226 151.187 225.226" stroke="white" stroke-linecap="round" stroke-linejoin="round"/>
<path d="M146.024 215.335C146.024 215.335 155.76 216.762 158.633 224.864" stroke="white" stroke-linecap="round" stroke-linejoin="round"/>
<path d="M163.174 266.63C163.174 266.63 153.679 273.975 139.229 263.43" stroke="white" stroke-linecap="round" stroke-linejoin="round"/>
<path d="M151.186 268.849C151.186 268.849 146.37 275.506 134.639 275.42" stroke="white" stroke-linecap="round" stroke-linejoin="round"/>
<path d="M211.529 352.602C211.529 352.602 186.691 372.401 161.456 369.803" stroke="white" stroke-linecap="round" stroke-linejoin="round"/>
<path d="M144.391 309.1C144.391 309.1 182.939 337.379 211.476 339.185" stroke="white" stroke-linecap="round" stroke-linejoin="round"/>
<path d="M145.408 518.442C152.039 514.763 159.836 513.789 167.168 515.724C179.742 518.889 212.408 565.608 216.949 570.166C221.49 574.725 229.988 577.047 237.814 585.286C250.199 598.204 268.209 609.626 270.032 609.626C271.856 609.626 273.318 608.491 275.589 608.044C277.859 607.596 295.439 605.997 295.439 605.997C295.439 605.997 301.339 607.304 295.439 609.833C289.539 612.361 289.986 614.615 289.986 614.615C289.986 614.615 288.799 616.524 291.173 618.347C293.547 620.171 294.94 619.173 298.329 623.972C301.717 628.771 293.547 626.054 293.547 626.054C293.547 626.054 295.353 631.214 291.723 630.698C288.094 630.182 291.276 635.738 285.376 634.981C279.476 634.224 266.85 626.26 263.685 617.917C263.685 617.917 212.184 593.302 204.478 586.955C196.772 580.607 164.33 546.566 162.111 546.119" fill="#263238"/>
<path d="M280.147 564.541H317.99C318.848 564.541 319.67 564.882 320.277 565.488C320.883 566.095 321.224 566.917 321.224 567.775V594.781H276.913V567.775C276.913 566.917 277.254 566.095 277.86 565.488C278.467 564.882 279.289 564.541 280.147 564.541Z" fill="#9468B4"/>
<path opacity="0.3" d="M280.147 564.541H317.99C318.848 564.541 319.67 564.882 320.277 565.488C320.883 566.095 321.224 566.917 321.224 567.775V594.781H276.913V567.775C276.913 566.917 277.254 566.095 277.86 565.488C278.467 564.882 279.289 564.541 280.147 564.541Z" fill="black" fill-opacity="0.7"/>
<path opacity="0.3" d="M318.764 567.396H307.875V589.173H318.764V567.396Z" fill="white" fill-opacity="0.7"/>
<path d="M280.147 564.541H317.99C318.848 564.541 319.67 564.882 320.277 565.488C320.883 566.095 321.224 566.917 321.224 567.775V594.781H276.913V567.775C276.913 566.917 277.254 566.095 277.86 565.488C278.467 564.882 279.289 564.541 280.147 564.541V564.541Z" stroke="#263238" stroke-linecap="round" stroke-linejoin="round"/>
<path d="M345.51 564.541H383.353C384.211 564.541 385.034 564.882 385.64 565.488C386.247 566.095 386.587 566.917 386.587 567.775V594.781H342.276V567.775C342.276 567.35 342.36 566.93 342.523 566.537C342.685 566.145 342.923 565.788 343.224 565.488C343.524 565.188 343.88 564.95 344.273 564.787C344.665 564.625 345.086 564.541 345.51 564.541Z" fill="#9468B4"/>
<path opacity="0.3" d="M345.51 564.541H383.353C384.211 564.541 385.034 564.882 385.64 565.488C386.247 566.095 386.587 566.917 386.587 567.775V594.781H342.276V567.775C342.276 567.35 342.36 566.93 342.523 566.537C342.685 566.145 342.923 565.788 343.224 565.488C343.524 565.188 343.88 564.95 344.273 564.787C344.665 564.625 345.086 564.541 345.51 564.541Z" fill="black" fill-opacity="0.7"/>
<path opacity="0.3" d="M383.404 567.396H376.833V589.173H383.404V567.396Z" fill="white" fill-opacity="0.7"/>
<path d="M345.51 564.541H383.353C384.211 564.541 385.034 564.882 385.64 565.488C386.247 566.095 386.587 566.917 386.587 567.775V594.781H342.276V567.775C342.276 567.35 342.36 566.93 342.523 566.537C342.685 566.145 342.923 565.788 343.224 565.488C343.524 565.188 343.88 564.95 344.273 564.787C344.665 564.625 345.086 564.541 345.51 564.541V564.541Z" stroke="#263238" stroke-linecap="round" stroke-linejoin="round"/>
<path d="M331.75 564.541H369.594C370.451 564.541 371.274 564.882 371.88 565.488C372.487 566.095 372.827 566.917 372.827 567.775V594.781H328.517V567.775C328.517 567.35 328.6 566.93 328.763 566.537C328.925 566.145 329.163 565.788 329.464 565.488C329.764 565.188 330.121 564.95 330.513 564.787C330.905 564.625 331.326 564.541 331.75 564.541Z" fill="#9468B4" stroke="#263238" stroke-linecap="round" stroke-linejoin="round"/>
<path d="M397.115 564.541H434.958C435.815 564.541 436.638 564.882 437.245 565.488C437.851 566.095 438.192 566.917 438.192 567.775V594.781H393.881V567.775C393.881 566.917 394.222 566.095 394.828 565.488C395.434 564.882 396.257 564.541 397.115 564.541Z" fill="#9468B4" stroke="#263238" stroke-linecap="round" stroke-linejoin="round"/>
<path opacity="0.3" d="M370.367 567.396H359.479V589.173H370.367V567.396Z" fill="white" fill-opacity="0.7"/>
<path opacity="0.3" d="M435.01 567.396H424.121V589.173H435.01V567.396Z" fill="white" fill-opacity="0.7"/>
<path d="M457.474 588.486V712.663H257.404V588.486C257.404 586.41 258.229 584.419 259.697 582.951C261.164 581.484 263.155 580.659 265.231 580.659H449.647C451.723 580.659 453.714 581.484 455.182 582.951C456.649 584.419 457.474 586.41 457.474 588.486Z" fill="#9468B4"/>
<path opacity="0.3" d="M457.474 588.486V712.663H257.404V588.486C257.404 586.41 258.229 584.419 259.697 582.951C261.164 581.484 263.155 580.659 265.231 580.659H449.647C451.723 580.659 453.714 581.484 455.182 582.951C456.649 584.419 457.474 586.41 457.474 588.486Z" fill="black" fill-opacity="0.7"/>
<path d="M457.474 588.486V712.663H257.404V588.486C257.404 586.41 258.229 584.419 259.697 582.951C261.164 581.484 263.155 580.659 265.231 580.659H449.647C451.723 580.659 453.714 581.484 455.182 582.951C456.649 584.419 457.474 586.41 457.474 588.486V588.486Z" stroke="#263238" stroke-linecap="round" stroke-linejoin="round"/>
<path d="M457.474 588.486V712.663H309.009V588.486C309.009 586.41 309.833 584.419 311.301 582.951C312.769 581.484 314.76 580.659 316.835 580.659H449.648C451.723 580.659 453.714 581.484 455.182 582.951C456.65 584.419 457.474 586.41 457.474 588.486Z" fill="#9468B4" stroke="#263238" stroke-linecap="round" stroke-linejoin="round"/>
<path opacity="0.3" d="M447.429 592.906H320.517C319.659 592.906 318.837 592.565 318.23 591.959C317.624 591.353 317.283 590.53 317.283 589.672C317.274 589.242 317.351 588.814 317.509 588.414C317.668 588.013 317.904 587.649 318.205 587.341C318.507 587.033 318.866 586.789 319.263 586.622C319.66 586.455 320.086 586.37 320.517 586.37H447.429C448.287 586.37 449.109 586.71 449.716 587.317C450.322 587.923 450.663 588.746 450.663 589.604C450.672 590.034 450.595 590.462 450.437 590.862C450.278 591.262 450.041 591.627 449.74 591.935C449.439 592.242 449.079 592.487 448.683 592.654C448.286 592.82 447.859 592.906 447.429 592.906Z" fill="white" fill-opacity="0.7"/>
<path d="M212.493 712.663C202.172 712.663 187.671 706.023 170.969 699.005C153.647 691.712 133.917 684.005 113.894 682.853C106.429 682.423 110.953 712.663 110.953 712.663H94.6115C94.6115 712.663 78.4765 691.127 76.6016 671.844C76.6016 671.844 89.7779 663.708 92.9429 663.243C94.0342 663.129 95.1312 663.077 96.2284 663.088C99.7719 663.088 104.502 663.243 104.502 663.243C103.745 662.796 91.6872 655.537 85.0303 648.158C79.543 642.068 77.0316 632.453 76.8424 626.707C77.0551 622.903 77.4742 619.113 78.0981 615.354L163.968 616.782C163.968 616.782 164.896 617.436 166.548 618.657C176.507 625.916 212.906 652.957 231.105 673.34C236.988 679.929 240.961 685.811 241.546 690.112C244.281 709.945 228.06 712.663 212.493 712.663Z" fill="#757575" stroke="#263238" stroke-linecap="round" stroke-linejoin="round"/>
<path d="M231.122 673.306L189.357 682.852C182.196 686.948 175.932 692.441 170.934 699.004C153.612 691.711 133.882 684.005 113.86 682.852C106.394 682.422 110.918 712.662 110.918 712.662H94.577C94.577 712.662 78.4765 691.126 76.6016 671.843C76.6016 671.843 91.8076 693.517 95.5231 704.526C95.5231 704.526 101.423 684.16 111.004 675.989C106.677 671.115 101.76 666.799 96.366 663.139C99.9095 663.139 104.64 663.294 104.64 663.294C103.883 662.847 91.8248 655.588 85.1679 648.209C79.6806 642.119 77.4616 632.487 76.98 626.758C76.7392 623.937 77.0832 615.406 77.0832 615.406C77.0832 615.406 141.124 624.539 166.685 618.708C176.525 625.933 212.923 652.922 231.122 673.306Z" fill="#263238"/>
<path d="M163.984 671.844C163.984 671.844 198.009 688.89 207.091 695.565C216.173 702.239 218.874 700.433 218.874 700.433" stroke="#263238" stroke-linecap="round" stroke-linejoin="round"/>
<path d="M85.0479 670.038C85.0479 670.038 93.2185 682.509 93.6486 686.241" stroke="#263238" stroke-linecap="round" stroke-linejoin="round"/>
<path d="M221.901 430.663C221.901 430.663 240.014 422.784 238.294 456.293C236.574 489.801 242.715 491.521 242.715 491.521C242.715 491.521 197.131 510.236 185.555 494.239C173.978 478.242 184.97 434.464 221.901 430.663Z" fill="#263238"/>
<path d="M219.373 491.521C219.373 491.521 200.623 500.362 198.92 508.533C197.217 516.704 173.737 504.405 173.737 504.405L190.75 479.944L219.373 491.521Z" fill="white" stroke="#263238" stroke-linecap="round" stroke-linejoin="round"/>
<path d="M96.4345 581.209C53.431 635.979 88.3327 662.4 137.081 658.031L127.311 673.512L151.84 677.761C151.84 677.761 170.641 665.479 196.272 652.354C239.894 629.993 257.526 631.334 253.036 608.955C248.547 586.576 195.085 572.058 141.485 595.641C141.433 595.624 112.329 561.049 96.4345 581.209Z" fill="#757575" stroke="#263238" stroke-linecap="round" stroke-linejoin="round"/>
<path d="M111.436 700.432C111.436 700.432 122.634 669.47 127.313 667.75C131.992 666.029 149.675 672.738 151.842 677.726C151.842 677.726 157.811 668.575 160.254 672.463C162.696 676.35 159.17 682.784 160.254 687.703C161.337 692.623 173.43 699.503 178.263 700.415C183.097 701.327 185.849 704.045 185.849 706.762V712.663H111.436C110.61 710.73 110.185 708.649 110.185 706.547C110.185 704.445 110.61 702.365 111.436 700.432Z" fill="white" stroke="#263238" stroke-linecap="round" stroke-linejoin="round"/>
<path d="M160.251 682.852C160.251 682.852 150.394 687.72 146.799 686.293C143.204 684.865 148.64 694.463 149.998 695.375C151.357 696.287 160.319 692.193 160.319 692.193" stroke="#263238" stroke-linecap="round" stroke-linejoin="round"/>
<path d="M120.741 677.744C120.741 677.744 134.124 678.002 138.201 682.904" stroke="#263238" stroke-linecap="round" stroke-linejoin="round"/>
<path d="M111.436 700.432C111.436 700.432 132.765 705.421 134.571 705.421C137.505 704.839 140.382 704.004 143.172 702.927C143.172 702.927 149.021 705.868 152.908 707.691C156.796 709.515 182.151 707.691 182.151 707.691" stroke="#263238" stroke-linecap="round" stroke-linejoin="round"/>
<path d="M137.082 658.065C157.449 655.864 197.012 630.767 210.773 622.046C224.534 613.324 227.974 615.612 227.974 615.612" stroke="#263238" stroke-linecap="round" stroke-linejoin="round"/>
<path d="M76.9639 615.32L80.2149 590.636L88.0588 584.718C100.771 553.876 158.361 496.269 174.066 496.458C197.649 496.733 201.812 521.486 204.719 548.578C207.626 575.67 170.884 571.594 170.884 571.594V578.388L149.984 589.208L162.644 588.812C162.644 588.812 126.229 624.213 76.9639 615.32Z" fill="#9468B4" stroke="#263238" stroke-linecap="round" stroke-linejoin="round"/>
<path d="M179.037 448.759C183.973 433.277 206.559 429.149 214.678 431.678C221.343 434.28 226.804 439.263 230.004 445.662C232.069 450.118 227.751 457.996 230.83 462.589C235.234 469.177 234.855 483.075 233.273 491.831C232.413 496.475 213.095 499.228 197.304 488.391C180.344 476.659 174.255 463.655 179.037 448.759Z" fill="white" stroke="#263238" stroke-linecap="round" stroke-linejoin="round"/>
<path d="M201.863 427.05C201.863 427.05 221.748 423.816 221.885 428.925C222.763 462.864 202.413 469.985 202.413 469.985C202.413 469.985 194.105 463.362 192.247 467.904C190.39 472.445 195.172 485.002 201.055 485.26C199.699 487.366 198.958 489.808 198.915 492.312C198.873 494.817 199.53 497.283 200.814 499.434C200.814 499.434 167.133 505.059 164.347 489.457C165.649 484.034 166.58 478.528 167.133 472.978C169.318 451.115 164.209 436.408 201.863 427.05Z" fill="#263238"/>
<path d="M228.421 461.642C232.566 465.375 235.542 465.375 235.491 466.717C235.336 470.897 230.33 472.978 230.33 472.978" fill="white"/>
<path d="M228.421 461.642C232.566 465.375 235.542 465.375 235.491 466.717C235.336 470.897 230.33 472.978 230.33 472.978" stroke="#263238" stroke-linecap="round" stroke-linejoin="round"/>
<path d="M230.226 479.944C227.297 480.936 224.136 481.014 221.161 480.168" stroke="#263238" stroke-linecap="round" stroke-linejoin="round"/>
<path d="M219.202 440.812C219.202 440.812 232.43 436.976 230.005 458.443C230.005 458.443 235.509 450.96 235.492 442.549C235.492 427.979 216.003 430.903 216.003 430.903L218.549 441.224" fill="#263238"/>
<path d="M231.224 451.321C230.724 450.989 230.161 450.761 229.569 450.651C228.978 450.542 228.371 450.553 227.784 450.685" stroke="#263238" stroke-linecap="round" stroke-linejoin="round"/>
<path d="M222.314 451.081C222.314 451.081 215.21 451.494 212.131 456.241" stroke="#263238" stroke-linecap="round" stroke-linejoin="round"/>
<path d="M220.612 462.382C220.715 463.517 220.234 464.498 219.529 464.567C218.823 464.635 218.17 463.758 218.049 462.623C217.929 461.488 218.428 460.507 219.133 460.438C219.838 460.37 220.509 461.247 220.612 462.382Z" fill="#263238"/>
<path d="M138.201 663.226C138.201 663.226 154.026 664.946 157.467 671.826" stroke="#263238" stroke-linecap="round" stroke-linejoin="round"/>
<path d="M178.261 508.069C184.892 504.39 192.688 503.416 200.021 505.351C212.612 508.533 245.26 555.235 249.801 559.793C254.343 564.352 262.84 566.674 270.667 574.913C283.052 587.832 301.062 599.253 302.885 599.253C304.708 599.253 306.17 598.118 308.441 597.671C310.712 597.224 328.292 595.624 328.292 595.624C328.292 595.624 334.192 596.948 328.292 599.46C322.391 601.971 322.839 604.259 322.839 604.259C322.839 604.259 321.669 606.151 324.026 607.975C326.382 609.798 327.793 608.8 331.181 613.599C334.57 618.399 326.399 615.681 326.399 615.681C326.399 615.681 328.206 620.841 324.576 620.325C320.947 619.809 324.129 625.365 318.229 624.608C312.329 623.852 299.703 615.887 296.538 607.545C296.538 607.545 245.037 582.929 237.33 576.582C229.624 570.235 197.217 536.193 194.929 535.746" fill="white"/>
<path d="M178.261 508.069C184.892 504.39 192.688 503.416 200.021 505.351C212.612 508.533 245.26 555.235 249.801 559.793C254.343 564.352 262.84 566.674 270.667 574.913C283.052 587.832 301.062 599.253 302.885 599.253C304.708 599.253 306.17 598.118 308.441 597.671C310.712 597.224 328.292 595.624 328.292 595.624C328.292 595.624 334.192 596.948 328.292 599.46C322.391 601.971 322.839 604.259 322.839 604.259C322.839 604.259 321.669 606.151 324.026 607.975C326.382 609.798 327.793 608.8 331.181 613.599C334.57 618.399 326.399 615.681 326.399 615.681C326.399 615.681 328.206 620.841 324.576 620.325C320.947 619.809 324.129 625.365 318.229 624.608C312.329 623.852 299.703 615.887 296.538 607.545C296.538 607.545 245.037 582.929 237.33 576.582C229.624 570.235 197.217 536.193 194.929 535.746" stroke="#263238" stroke-linecap="round" stroke-linejoin="round"/>
<path d="M170.866 503.08C170.866 503.08 196.256 496.286 205.114 501.274C213.973 506.263 230.762 529.399 230.762 529.399C230.762 529.399 210.292 547.718 203.962 546.05C197.632 544.381 178.263 541.646 178.263 541.646" fill="#9468B4"/>
<path d="M170.866 503.08C170.866 503.08 196.256 496.286 205.114 501.274C213.973 506.263 230.762 529.399 230.762 529.399C230.762 529.399 210.292 547.718 203.962 546.05C197.632 544.381 178.263 541.646 178.263 541.646" stroke="#263238" stroke-linecap="round" stroke-linejoin="round"/>
<path d="M192.883 543.883C192.883 543.883 183.681 548.94 180.292 548.94" stroke="#263238" stroke-linecap="round" stroke-linejoin="round"/>
<path d="M178.261 518.51C179.035 519.869 178.777 534.748 194.929 539.376" stroke="#263238" stroke-linecap="round" stroke-linejoin="round"/>
<path d="M91.9277 585.2C91.9277 585.2 126.331 591.1 138.2 580.659" stroke="#263238" stroke-linecap="round" stroke-linejoin="round"/>
<path d="M149.965 589.208C149.965 589.208 141.365 587.694 138.2 592.115C135.035 596.536 117.799 600.716 117.799 600.716" stroke="#263238" stroke-linecap="round" stroke-linejoin="round"/>
<path d="M80.815 622.046C80.815 622.046 75.8438 643.479 97.0531 653.008" stroke="#263238" stroke-linecap="round" stroke-linejoin="round"/>
<path d="M91.9277 623.525C91.9277 623.525 92.0481 634.087 95.368 639.866L105.912 643.307L117.713 636.736C117.713 636.736 115.201 623.233 114.978 620.498" stroke="#263238" stroke-linecap="round" stroke-linejoin="round"/>
</svg>
