<svg width="521" height="488" viewBox="0 0 521 488" fill="none" xmlns="http://www.w3.org/2000/svg">
<path d="M453.975 1H58.1328V241.044H453.975V1Z" fill="white" stroke="#263238" stroke-linecap="round" stroke-linejoin="round"/>
<path d="M286.256 32.5405H71.6016V51.294H286.256V32.5405Z" stroke="#263238" stroke-linecap="round" stroke-linejoin="round"/>
<path d="M286.256 61.9229H71.6016V170.266H286.256V61.9229Z" stroke="#263238" stroke-linecap="round" stroke-linejoin="round"/>
<path d="M443.796 140.249H298.419V226.549H443.796V140.249Z" stroke="#263238" stroke-linecap="round" stroke-linejoin="round"/>
<path d="M298.419 226.549L443.796 140.249" stroke="#263238" stroke-linecap="round" stroke-linejoin="round"/>
<path d="M443.796 226.549L298.419 140.249" stroke="#263238" stroke-linecap="round" stroke-linejoin="round"/>
<path d="M248.634 186.723H283.809" stroke="#263238" stroke-linecap="round" stroke-linejoin="round"/>
<path d="M186.233 186.723H241.328" stroke="#263238" stroke-linecap="round" stroke-linejoin="round"/>
<path d="M101.261 186.723H175.605" stroke="#263238" stroke-linecap="round" stroke-linejoin="round"/>
<path d="M72.7207 186.723H92.6282" stroke="#263238" stroke-linecap="round" stroke-linejoin="round"/>
<path d="M124.491 196.67H283.809" stroke="#263238" stroke-linecap="round" stroke-linejoin="round"/>
<path d="M72.7207 196.67H116.529" stroke="#263238" stroke-linecap="round" stroke-linejoin="round"/>
<path d="M208.796 206.63H283.81" stroke="#263238" stroke-linecap="round" stroke-linejoin="round"/>
<path d="M134.451 206.63H198.178" stroke="#263238" stroke-linecap="round" stroke-linejoin="round"/>
<path d="M72.7207 206.63H127.146" stroke="#263238" stroke-linecap="round" stroke-linejoin="round"/>
<path d="M196.851 216.589H283.809" stroke="#263238" stroke-linecap="round" stroke-linejoin="round"/>
<path d="M125.818 216.589H188.218" stroke="#263238" stroke-linecap="round" stroke-linejoin="round"/>
<path d="M72.7207 216.589H118.525" stroke="#263238" stroke-linecap="round" stroke-linejoin="round"/>
<path d="M245.31 226.549H283.809" stroke="#263238" stroke-linecap="round" stroke-linejoin="round"/>
<path d="M154.37 226.549H238.005" stroke="#263238" stroke-linecap="round" stroke-linejoin="round"/>
<path d="M116.529 226.549H147.066" stroke="#263238" stroke-linecap="round" stroke-linejoin="round"/>
<path d="M86.6611 226.549H104.584" stroke="#263238" stroke-linecap="round" stroke-linejoin="round"/>
<path d="M72.7207 226.549H86.6617" stroke="#263238" stroke-linecap="round" stroke-linejoin="round"/>
<path d="M453.975 1H58.1328V18.3109H453.975V1Z" fill="#9468B4" stroke="#263238" stroke-linecap="round" stroke-linejoin="round"/>
<path d="M445.054 6.19287H114.993V13.1749H445.054V6.19287Z" fill="white" stroke="#263238" stroke-linecap="round" stroke-linejoin="round"/>
<path d="M108.115 6.19287H64.2266V13.1749H108.115V6.19287Z" fill="white" stroke="#263238" stroke-linecap="round" stroke-linejoin="round"/>
<path d="M476.71 42.4995H326.683V127.9H476.71V42.4995Z" fill="white" stroke="#263238" stroke-linecap="round" stroke-linejoin="round"/>
<path d="M476.71 111.743H326.683V127.9H476.71V111.743Z" fill="white" stroke="#263238" stroke-linecap="round" stroke-linejoin="round"/>
<path d="M421.442 78.6217L381.962 55.8291V101.414L421.442 78.6217Z" fill="#9468B4" stroke="#263238" stroke-linecap="round" stroke-linejoin="round"/>
<path d="M331.61 38.022H322.978V46.6543H331.61V38.022Z" fill="white" stroke="#263238" stroke-linecap="round" stroke-linejoin="round"/>
<path d="M480.634 38.022H472.002V46.6543H480.634V38.022Z" fill="white" stroke="#263238" stroke-linecap="round" stroke-linejoin="round"/>
<path d="M331.61 121.991H322.978V130.624H331.61V121.991Z" fill="white" stroke="#263238" stroke-linecap="round" stroke-linejoin="round"/>
<path d="M480.634 121.991H472.002V130.624H480.634V121.991Z" fill="white" stroke="#263238" stroke-linecap="round" stroke-linejoin="round"/>
<path d="M147.388 112.759V127.762H143.66V94.3862H147.388V109.389H155.593V94.3862H159.309V127.785H155.593V112.782L147.388 112.759Z" fill="#263238"/>
<path d="M167.941 127.785V97.7792H161.79V94.3862H177.774V97.7792H171.623V127.785H167.941Z" fill="#263238"/>
<path d="M192.604 127.738H189.027L183.499 101.195V127.819H180.256V94.3862H185.449L190.942 121.022L196.24 94.3516H201.433V127.75H197.901V100.93L192.604 127.738Z" fill="#263238"/>
<path d="M205.253 127.785V94.3862H208.969V124.392H218.548V127.785H205.253Z" fill="#263238"/>
<path d="M456.514 123.907L464.489 159.682C464.563 159.919 464.705 160.128 464.897 160.283C465.09 160.439 465.324 160.535 465.57 160.558C465.816 160.582 466.064 160.532 466.282 160.415C466.501 160.298 466.68 160.12 466.797 159.902L471.967 149.019C472.068 148.8 472.232 148.616 472.437 148.488C472.642 148.361 472.88 148.297 473.121 148.303L485.146 148.961C485.401 148.973 485.654 148.907 485.87 148.772C486.086 148.637 486.257 148.439 486.358 148.205C486.459 147.971 486.487 147.711 486.438 147.461C486.388 147.21 486.264 146.981 486.081 146.803L458.591 122.672C458.392 122.485 458.138 122.369 457.867 122.339C457.596 122.31 457.323 122.369 457.089 122.509C456.854 122.648 456.672 122.86 456.568 123.112C456.464 123.364 456.446 123.643 456.514 123.907Z" fill="#263238"/>
<path d="M489.359 155.644H478.592V166.411H489.359V155.644Z" fill="white" stroke="#263238" stroke-width="0.75" stroke-linecap="round" stroke-linejoin="round"/>
<path d="M479.34 154.789H477.725V156.405H479.34V154.789Z" fill="#263238"/>
<path d="M484.811 154.789H483.195V156.405H484.811V154.789Z" fill="#263238"/>
<path d="M490.051 154.789H488.436V156.405H490.051V154.789Z" fill="#263238"/>
<path d="M479.34 160.237H477.725V161.853H479.34V160.237Z" fill="#263238"/>
<path d="M484.811 160.237H483.195V161.853H484.811V160.237Z" fill="#263238"/>
<path d="M490.051 160.237H488.436V161.853H490.051V160.237Z" fill="#263238"/>
<path d="M479.34 165.476H477.725V167.092H479.34V165.476Z" fill="#263238"/>
<path d="M484.811 165.476H483.195V167.092H484.811V165.476Z" fill="#263238"/>
<path d="M490.051 165.476H488.436V167.092H490.051V165.476Z" fill="#263238"/>
<path d="M196.008 321.643L192.592 322.312L182.702 273.414L186.118 272.745L196.008 321.643Z" fill="white" stroke="#263238" stroke-linecap="round" stroke-linejoin="round"/>
<path d="M257.358 320.673H192.385V322.993H257.358V320.673Z" fill="white" stroke="#263238" stroke-linecap="round" stroke-linejoin="round"/>
<path d="M375.729 442.485H275.338V447.39H375.729V442.485Z" fill="white" stroke="#263238" stroke-linecap="round" stroke-linejoin="round"/>
<path d="M390.883 291.349C390.883 291.349 381.373 366.732 378.742 390.09C376.111 413.448 386.451 486.777 386.451 486.777H380.415L368.563 403.685H280.001L274.334 485.288H269.811L277.404 390.471V380.165C277.404 379.638 277.508 379.115 277.71 378.628C277.912 378.141 278.208 377.698 278.581 377.325C278.953 376.952 279.396 376.656 279.883 376.455C280.371 376.253 280.893 376.149 281.42 376.149H366.267L379.55 283.063C379.55 283.063 381.05 274.396 388.586 277.038C396.122 279.681 390.883 291.349 390.883 291.349Z" fill="#263238" stroke="#263238" stroke-linecap="round" stroke-linejoin="round"/>
<path d="M388.621 277.038C388.424 276.963 388.224 276.897 388.02 276.842C388.597 277.996 388.944 280.004 388.251 283.767C386.739 292.064 370.825 390.806 370.825 390.806H277.346L269.856 486.385H274.38L284.236 403.616H368.575L380.427 486.708H386.462C386.462 486.708 376.076 413.39 378.753 390.021C381.431 366.651 392.671 292.999 392.671 292.999C392.671 292.999 396.168 279.67 388.621 277.038Z" fill="white" stroke="#263238" stroke-linecap="round" stroke-linejoin="round"/>
<path d="M298.292 297.927L251.126 300.605L230.087 312.768L225.933 319.889L229.187 320.478L236.608 317.212C236.608 317.212 244.917 315.734 247.294 314.846C249.672 313.957 256.169 306.825 256.169 306.825L300.023 313.946L298.292 297.927Z" fill="white" stroke="#263238" stroke-linecap="round" stroke-linejoin="round"/>
<path d="M230.261 443.696C230.261 443.696 221.952 458.237 220.763 458.237C219.575 458.237 209.95 460.372 202.298 456.518C194.647 452.663 188.946 449.697 186.568 453.252C185.38 454.914 184.385 456.707 183.603 458.595C183.603 458.595 190.723 468.682 197.255 472.236C203.787 475.791 206.58 473.956 213.412 477.81C220.244 481.665 220.832 484.631 226.464 483.454C232.096 482.276 235.374 464.169 236.851 462.092C238.328 460.015 243.937 448.439 243.937 448.439L230.261 443.696Z" fill="white" stroke="#263238" stroke-linecap="round" stroke-linejoin="round"/>
<path d="M222.194 456.737C221.513 457.66 221.04 458.237 220.763 458.237C219.609 458.237 209.95 460.372 202.298 456.518C194.647 452.663 188.946 449.697 186.568 453.252C185.38 454.914 184.385 456.707 183.603 458.595C183.603 458.595 190.723 468.682 197.255 472.236C203.787 475.791 206.58 473.956 213.412 477.81C220.244 481.665 220.832 484.631 226.464 483.453C231.461 482.392 234.543 468.093 236.274 463.384C231.15 462.069 225.656 458.941 222.194 456.737Z" fill="#263238" stroke="#263238" stroke-linecap="round" stroke-linejoin="round"/>
<path d="M226.395 483.453C226.564 483.411 226.73 483.357 226.891 483.291C226.947 483.273 227.001 483.25 227.053 483.222L227.376 483.061L227.561 482.945L227.849 482.749L228.034 482.599L228.311 482.357L228.484 482.184C228.586 482.089 228.682 481.989 228.772 481.883L228.934 481.699C229.026 481.583 229.13 481.468 229.223 481.341L229.361 481.168L229.696 480.683L229.776 480.568C230.007 480.222 230.227 479.841 230.446 479.414C224.676 479.414 220.752 475.778 214.531 473.643C206.822 470.978 206.384 473.124 200.752 469.258C195.12 465.392 194.52 463.038 194.52 463.038L199.517 455.144C193.204 452.028 188.6 450.112 186.511 453.24C185.322 454.902 184.327 456.695 183.545 458.583C183.545 458.583 190.665 468.67 197.197 472.224C203.729 475.779 206.522 473.944 213.354 477.798C220.186 481.653 220.763 484.63 226.395 483.453Z" fill="white" stroke="#263238" stroke-linecap="round" stroke-linejoin="round"/>
<path d="M239.158 369.525L212.776 435.387L244.224 453.194C244.224 453.194 277.692 377.246 278.038 375.757C278.385 374.268 284.27 372.791 284.27 372.791L308.275 376.068C308.275 376.068 272.083 360.05 261.408 357.673C250.733 355.295 243.601 357.073 239.158 369.525Z" fill="#9468B4" stroke="#263238" stroke-linecap="round" stroke-linejoin="round"/>
<path d="M266.544 420.753L281.385 434.694C281.385 434.694 276.342 447.158 270.41 455.167C264.478 463.176 263.878 467.862 266.544 469.697C269.21 471.532 274.553 471.186 278.084 468.808C281.616 466.431 301.812 446.558 304.189 443.004C304.953 441.794 305.257 440.35 305.045 438.934C304.833 437.519 304.12 436.227 303.035 435.294C302.146 434.694 282.574 411.255 282.574 411.255L266.544 420.753Z" fill="white" stroke="#263238" stroke-linecap="round" stroke-linejoin="round"/>
<path d="M304.224 443.004C304.988 441.794 305.292 440.35 305.08 438.935C304.868 437.52 304.155 436.228 303.07 435.295C302.655 435.006 298.05 429.617 293.307 424.008C288.968 429.259 281.131 432.191 279.4 432.802L281.42 434.695C281.42 434.695 276.377 447.159 270.445 455.168C264.513 463.177 263.913 467.862 266.579 469.697C269.245 471.532 274.588 471.186 278.119 468.809C281.651 466.431 301.847 446.559 304.224 443.004Z" fill="#263238" stroke="#263238" stroke-linecap="round" stroke-linejoin="round"/>
<path d="M303.417 435.618C303.266 437.659 302.515 439.61 301.259 441.226C297.705 445.67 277.82 464.065 277.82 464.065L268.588 457.695C264.341 464.181 264.122 468.081 266.487 469.697C269.165 471.486 274.497 471.186 278.028 468.808C281.559 466.431 301.755 446.558 304.133 443.004C304.863 441.872 305.19 440.527 305.06 439.186C304.93 437.846 304.351 436.588 303.417 435.618Z" fill="white" stroke="#263238" stroke-linecap="round" stroke-linejoin="round"/>
<path d="M295.027 434.106C295.057 434.728 294.9 435.344 294.576 435.876C294.253 436.408 293.777 436.83 293.211 437.089C292.645 437.348 292.014 437.432 291.401 437.329C290.787 437.226 290.217 436.942 289.766 436.513C289.316 436.084 289.004 435.529 288.871 434.921C288.738 434.313 288.79 433.679 289.021 433.101C289.252 432.523 289.65 432.027 290.165 431.677C290.681 431.328 291.289 431.141 291.911 431.14C292.717 431.121 293.498 431.423 294.082 431.979C294.666 432.535 295.006 433.3 295.027 434.106Z" fill="white"/>
<path d="M304.525 327.009L303.036 332.052C303.036 332.052 258.247 332.641 238.663 337.984C219.078 343.328 213.747 346.294 215.224 357.269C216.701 368.244 246.972 431.463 246.972 431.463C253.064 429.753 259.013 427.573 264.768 424.943C271.582 421.621 278.043 417.619 284.052 412.998L261.502 369.975C261.502 369.975 287.318 375.318 316.088 377.984C344.859 380.65 357.034 377.684 361.778 369.086C366.521 360.488 358.512 326.074 358.512 326.074L304.825 324.286L304.525 327.009Z" fill="#9468B4" stroke="#263238" stroke-linecap="round" stroke-linejoin="round"/>
<path d="M241.629 355.815C240.619 354.825 239.731 353.717 238.986 352.514" stroke="#263238" stroke-linecap="round" stroke-linejoin="round"/>
<path d="M261.502 370.021C255.505 366.601 249.786 362.716 244.398 358.4" stroke="#263238" stroke-linecap="round" stroke-linejoin="round"/>
<path d="M264.825 394.799L267.203 395.953" stroke="#263238" stroke-linecap="round" stroke-linejoin="round"/>
<path d="M223.29 359.819C233.453 373.113 246.174 384.237 260.705 392.536" stroke="#263238" stroke-linecap="round" stroke-linejoin="round"/>
<path d="M347.582 346.675C348.715 347.555 349.791 348.507 350.802 349.525" stroke="#263238" stroke-linecap="round" stroke-linejoin="round"/>
<path d="M306.002 332.642C306.002 332.642 327.744 334.327 343.093 343.582" stroke="#263238" stroke-linecap="round" stroke-linejoin="round"/>
<path d="M335.672 337.684C335.672 337.684 349.913 337.984 355.545 343.916" stroke="#263238" stroke-linecap="round" stroke-linejoin="round"/>
<path d="M308.679 238.008C308.679 238.008 298.592 268.014 297.138 277.165C295.684 286.317 296.55 326.409 296.55 326.409C296.55 326.409 320.277 333.529 333.629 332.052C346.982 330.575 363.635 327.898 363.635 327.898C363.635 327.898 360.669 274.811 358.003 256.404C355.337 237.997 349.105 227.321 343.174 222.878C339.229 219.98 335.062 217.398 330.71 215.158L308.679 238.008Z" fill="#263238" stroke="#263238" stroke-linecap="round" stroke-linejoin="round"/>
<path d="M256.459 191.731C257.103 195.49 258.412 199.105 260.325 202.406C263.291 207.149 267.445 209.226 266.257 213.946C265.068 218.666 265.103 221.956 268.565 222.244L272.131 222.544C272.131 222.544 279.251 234.708 284.595 234.708C289.938 234.708 305.102 221.102 305.102 221.102C305.102 221.102 297.093 183.422 297.093 182.233C297.093 181.044 254.67 186.688 254.67 186.688L256.459 191.731Z" fill="white" stroke="#263238" stroke-linecap="round" stroke-linejoin="round"/>
<path d="M274.115 206.976C274.68 208.13 274.484 209.434 273.665 209.826C272.845 210.218 271.737 209.572 271.172 208.384C270.606 207.195 270.803 205.925 271.622 205.545C272.441 205.164 273.549 205.798 274.115 206.976Z" fill="#263238"/>
<path d="M266.844 203.594C266.844 203.594 266.544 199.44 272.776 200.328" stroke="#263238" stroke-linecap="round" stroke-linejoin="round"/>
<path d="M275.512 223.525C275.696 224.183 282.759 223.791 281.674 217.536" stroke="#263238" stroke-linecap="round" stroke-linejoin="round"/>
<path d="M316.642 177.778C315.661 165.765 300.705 170.369 293.699 174.005L293.503 173.635L265.321 181.645C265.091 182.788 265.224 183.975 265.702 185.038C266.18 186.102 266.979 186.99 267.987 187.576C273.887 191.97 280.857 194.7 288.172 195.482C290.272 208.038 293.203 226.803 293.203 233.854C293.203 244.829 289.049 248.984 289.049 248.984C289.049 248.984 308.033 243.052 319.054 232.665C325.457 226.702 331.045 219.919 335.673 212.492C335.673 212.492 317.877 192.32 316.642 177.778Z" fill="#9468B4" stroke="#263238" stroke-linecap="round" stroke-linejoin="round"/>
<path d="M288.217 195.481L287.375 191.558" stroke="#263238" stroke-linecap="round" stroke-linejoin="round"/>
<path d="M302.298 222.787C302.54 224.137 302.736 225.395 302.875 226.491" stroke="#263238" stroke-linecap="round" stroke-linejoin="round"/>
<path d="M294.958 191.558C294.958 191.558 299.147 207.034 301.513 218.655" stroke="#263238" stroke-linecap="round" stroke-linejoin="round"/>
<path d="M308.968 195.447L314.727 210.669" stroke="#263238" stroke-linecap="round" stroke-linejoin="round"/>
<path d="M306.497 188.915L307.986 192.85" stroke="#263238" stroke-linecap="round" stroke-linejoin="round"/>
<path d="M313.745 189.25L316.376 195.839" stroke="#263238" stroke-linecap="round" stroke-linejoin="round"/>
<path d="M253.55 191.269C253.55 191.269 233.7 201.806 240.313 201.806C246.926 201.806 280.024 188.13 281.34 188.13C282.655 188.13 259.285 190.381 253.55 191.269Z" fill="#757575" stroke="#263238" stroke-linecap="round" stroke-linejoin="round"/>
<path d="M253.549 191.269C253.549 191.269 241.674 195.031 246.971 182.233C252.268 169.434 288.333 150.785 303.335 150.785C318.338 150.785 329.429 173.173 327.224 180.236C325.02 187.299 320.162 188.176 317.992 188.176C315.822 188.176 253.549 191.269 253.549 191.269Z" fill="#757575" stroke="#263238" stroke-linecap="round" stroke-linejoin="round"/>
<path d="M259.285 187.299C259.285 187.299 280.901 187.737 299.435 185.095C317.969 182.452 325.459 179.797 325.459 179.797" stroke="#263238" stroke-linecap="round" stroke-linejoin="round"/>
<path d="M322.816 185.533L293.699 185.972" stroke="#263238" stroke-linecap="round" stroke-linejoin="round"/>
<path d="M304.524 302.082L300.67 305.671C300.67 305.671 252.603 299.439 249.337 300.327C246.071 301.216 234.508 304.482 234.508 304.482L225.275 305.071L217.866 317.534H220.232L225.575 310.114H228.934L223.29 316.646L220.855 320.177L229.153 320.477L230.365 319.45L235.096 315.434L233.608 319.889H235.385L239.539 312.768L245.183 309.802L251.115 305.648C251.115 305.648 311.633 326.709 313.111 327.575C314.588 328.44 317.865 330.841 320.531 328.463C323.197 326.086 330.318 306.213 330.318 306.213L304.524 302.082Z" fill="white" stroke="#263238" stroke-linecap="round" stroke-linejoin="round"/>
<path d="M224.571 319.773C227.649 317.357 230.369 314.516 232.65 311.337C232.65 311.337 233.054 308.21 235.777 307.713" stroke="#263238" stroke-linecap="round" stroke-linejoin="round"/>
<path d="M235.107 315.434L236.446 310.276L237.923 309.087" stroke="#263238" stroke-linecap="round" stroke-linejoin="round"/>
<path d="M228.934 310.091C229.716 308.839 230.663 307.697 231.749 306.698C232.754 306.098 233.365 305.798 233.365 305.798" stroke="#263238" stroke-linecap="round" stroke-linejoin="round"/>
<path d="M279.135 315.434C295.199 321.066 312.349 327.136 313.179 327.598C314.668 328.486 317.934 330.864 320.6 328.486C323.266 326.109 330.386 306.236 330.386 306.236L304.582 302.082L300.669 305.671C300.669 305.671 291.829 304.517 281.489 303.282L279.135 315.434Z" fill="#757575" stroke="#263238" stroke-linecap="round" stroke-linejoin="round"/>
<path d="M313.18 256.993L300.37 300.004C300.37 300.004 301.524 305.948 313.423 309.237C319.977 311.153 326.766 312.152 333.595 312.203L343.093 258.805" fill="#263238"/>
<path d="M313.18 256.993L300.37 300.004C300.37 300.004 301.524 305.948 313.423 309.237C319.977 311.153 326.766 312.152 333.595 312.203L343.093 258.805" stroke="#263238" stroke-linecap="round" stroke-linejoin="round"/>
<path d="M312.326 260.87L300.751 296.75" stroke="#707070" stroke-linecap="round" stroke-linejoin="round"/>
<path d="M340.589 272.365L334.899 308.902" stroke="#707070" stroke-linecap="round" stroke-linejoin="round"/>
<path d="M341.835 264.333L341.212 268.349" stroke="#707070" stroke-linecap="round" stroke-linejoin="round"/>
<path d="M206.431 325.868H196.045V480.281H206.431V325.868Z" fill="#263238" stroke="#263238" stroke-linecap="round" stroke-linejoin="round"/>
<path d="M277.232 323.144H122.635V329.526H277.232V323.144Z" fill="#757575" stroke="#263238" stroke-linecap="round" stroke-linejoin="round"/>
<path d="M256.899 486.593H145.602C145.605 484.902 146.278 483.28 147.474 482.084C148.67 480.888 150.292 480.214 151.984 480.211H250.517C252.209 480.214 253.83 480.888 255.026 482.084C256.223 483.28 256.896 484.902 256.899 486.593Z" fill="#757575" stroke="#263238" stroke-linecap="round" stroke-linejoin="round"/>
<path d="M167.319 324.275H147.008L143.961 286.284H170.366L167.319 324.275Z" fill="#9468B4" stroke="#263238" stroke-linecap="round" stroke-linejoin="round"/>
<path d="M171.45 282.533H142.114V291.188H171.45V282.533Z" fill="white" stroke="#263238" stroke-linecap="round" stroke-linejoin="round"/>
<path d="M168.162 313.738L169.281 299.832H145.046L146.165 313.738H168.162Z" fill="white" stroke="#263238" stroke-linecap="round" stroke-linejoin="round"/>
<path d="M497.056 486.778H510.904" stroke="#263238" stroke-linecap="round" stroke-linejoin="round"/>
<path d="M473.976 486.778H488.598" stroke="#263238" stroke-linecap="round" stroke-linejoin="round"/>
<path d="M122.38 486.778H465.516" stroke="#263238" stroke-linecap="round" stroke-linejoin="round"/>
<path d="M27.5166 486.778H111.601" stroke="#263238" stroke-linecap="round" stroke-linejoin="round"/>
</svg>
