<svg width="676" height="762" fill="none" xmlns="http://www.w3.org/2000/svg"><path d="M1 712.679h674.124M410.256 364.127V111.026h15.67m-15.669 283.221v-6.709m55.972-276.512H627.94v306.821H410.256m36.158-306.821h14.208" stroke="#263238" stroke-linecap="round" stroke-linejoin="round"/><path d="M619.754 119.197H418.445v290.48h201.309v-290.48z" stroke="#263238" stroke-linecap="round" stroke-linejoin="round"/><path d="M610.394 134.746V255.38H427.801v-7.879m0-18.439V127.763h182.593M427.801 241.464v-7.655m151.752 30.619h40.199m-54.493 0h5.694m-152.508 0h140.037" stroke="#263238" stroke-linecap="round" stroke-linejoin="round"/><path d="M508.976 255.38v-4.163h16.84v2.357h-6.709v1.806m-100.32 117.692s2.804 2.116 4.765 14.914c0 0 3.44-20.435 7.465-20.745 4.025-.31 3.269 13.28 3.269 13.28s.688-6.692 3.887-6.382c3.2.309 0 13.761 0 13.761s3.853-10.562 7.5-10.321c3.647.241-2.408 19.128-2.408 19.128s9.357-6.777 13.142-3.44c3.784 3.337-2.099 11.662-2.099 11.662s13.417-2.907 15.481 4.972m.018-7.587s5.848-3.836 10.458-2.047c0 0-2.924-4.455 0-7.173 2.924-2.717 6.674 7.173 6.674 7.173s.43-16.599 6.279-15.756c5.848.843 0 15.756 0 15.756s10.441-9.254 12.952-6.037c2.512 3.216-1.72 8.084-1.72 8.084a11.316 11.316 0 0110.872 2.667s7.001-7.139 14.776-8.171c0 0-5.161-15.017-2.667-18.044 2.495-3.028 7.07 13.107 7.07 13.107s1.996-10.493 8.601-11.318c0 0-5.453-2.959-3.836-7.449 1.617-4.489 9.134 1.067 9.134 1.067s-3.096-7.896 1.806-10.063c4.902-2.167 6.881 6.605 6.881 6.605s1.376-9.185 7.121-8.6c5.745.585 3.888 11.077 3.888 11.077s5.418-8.394 8.325-7.551c5.797 1.72 4.042 15 4.042 15s8.085-5.625 10.184-3.028c2.098 2.598-8.429 9.994-8.429 9.994s8.033.877 13.039 5.573" stroke="#263238" stroke-linecap="round" stroke-linejoin="round"/><path d="M619.754 376.168s-.929-8.428-9.358-8.876c-8.429-.447 2.322 18.492 2.322 18.492s-6.966-5.762-9.461-3.991c-2.494 1.772 7.139 11.542 7.139 11.542s-4.627-4.283-9.495-2.958c-4.868 1.324 2.769 14.896 2.769 14.896a34.713 34.713 0 00-21.347 2.512M332.368 637.372v74.86m0-99.355v16.032M17.238 712.68V573.176h315.13v30.619" stroke="#263238" stroke-linecap="round" stroke-linejoin="round"/><path d="M63.15 588.434H35.798v111.448m278.009 12.35V588.434H79.024M300.7 558.727h-8.686m-12.472 0H9.412v14.346h330.782v-14.346h-33.955M28.04 466.803s25.802 2.047 26.972 21.141c0 0-26.232 12.075-26.972-21.141zm51.209 4.747s14.466-19.558 37.843-9.529c0 0-14.277 23.634-37.843 9.529zm35.864-61.753s4.162 37.62-30.086 27.264c0 0 10.872-27.659 30.086-27.264zm-42.058-20.951s27.093 14.621 7.173 36.777c0 0-18.99-15.826-7.173-36.777zm-33.319 33.629s29.45-2.959 29.45 24.288c0 0-29.45 1.17-29.45-24.288z" stroke="#263238" stroke-linecap="round" stroke-linejoin="round"/><path d="M61.806 503.339c-.43-9.151-.43-20.917 5.16-33.354 12.884-28.692 17.202-52.86 10.51-69.889m-28.072 29.741s17.649 7.018 23.652 25.2m32.787-30.188s-10.2 13.898-27.523 12.402m27.523 28.709s-28.262 8.136-39.564 5.47m-29.81 3.974s12.643 13.864 25.337 13.64" stroke="#263238" stroke-linecap="round" stroke-linejoin="round"/><path d="M95.4 503.338H34.008a1.496 1.496 0 00-1.496 1.497v4.661a1.485 1.485 0 00.44 1.053 1.483 1.483 0 001.056.427h1.72l5.47 47.751h46.926l5.47-47.751H95.4a1.477 1.477 0 001.051-.428 1.462 1.462 0 00.428-1.052v-4.661a1.483 1.483 0 00-.427-1.057 1.476 1.476 0 00-1.052-.44v0z" stroke="#263238" stroke-miterlimit="10"/><path d="M39.736 510.976h35.71m6.726 0h5.367" stroke="#263238" stroke-linecap="round" stroke-linejoin="round"/><path d="M473.454 313.022l-6.88 37.396-56.111 34.093 7.758 14.243s64.866-19.782 66.449-24.409c1.582-4.627 16.53-53.634 16.53-53.634l-27.746-7.689z" fill="#263238"/><path d="M498.036 249.789l-3.75 45.343-1.978 23.79c-10.82 5.263-21.398-2.649-22.052-3.165 2.941-8.635 6.364-57.367 27.78-65.968z" fill="#999" stroke="#263238" stroke-linecap="round" stroke-linejoin="round"/><path d="M494.216 295.132l-1.978 23.79c-10.82 5.264-21.399-2.649-22.052-3.165.464.206 6.158 2.614 9.856 0a28.873 28.873 0 01-3.44-4.541c-.224-.895 3.44-1.136 3.44-1.136s-2.408-19.282 4.008-27.522c2.511-3.131 6.433 3.406 10.166 12.574z" fill="#263238"/><path d="M536.894 669.693l1.72 5.058a102.273 102.273 0 01-8.738 12.281s-1.72-.55-4.541 1.944a10.444 10.444 0 00-3.028 6.468s-13.142 15.756-29.81 15.98c-16.668.224-11.645-8.171-11.645-8.171l56.042-33.56z" fill="#9468B4" stroke="#263238" stroke-linecap="round" stroke-linejoin="round"/><path d="M521.223 629.596s-22.362-8.239-26.731 8.24c0 0 3.991 18.147 1.6 28.073-2.391 9.925-14.432 28.881-15.172 32.476-1.462 7.053-.361 7.534-.361 7.534s8.755 5.057 20.521-.361 32.132-28.744 35.315-33.543c3.182-4.799-9.977-23.721-9.977-23.721l-5.195-18.698z" fill="#fff"/><path opacity=".4" d="M521.223 629.596s-22.362-8.239-26.731 8.24c0 0 3.991 18.147 1.6 28.073-2.391 9.925-14.432 28.881-15.172 32.476-1.462 7.053-.361 7.534-.361 7.534s8.755 5.057 20.521-.361 32.132-28.744 35.315-33.543c3.182-4.799-9.977-23.721-9.977-23.721l-5.195-18.698z" fill="#9468B4"/><path d="M521.223 629.596s-22.362-8.239-26.731 8.24c0 0 3.991 18.147 1.6 28.073-2.391 9.925-14.432 28.881-15.172 32.476-1.462 7.053-.361 7.534-.361 7.534s8.755 5.057 20.521-.361 32.132-28.744 35.315-33.543c3.182-4.799-9.977-23.721-9.977-23.721l-5.195-18.698zm-11.439 23.309a48.558 48.558 0 01-5.591 32.338" stroke="#263238" stroke-linecap="round" stroke-linejoin="round"/><path d="M504.193 689.578a15.084 15.084 0 01-9.564 8.841 26.6 26.6 0 01-13.761 0l5.367-10.871a34.297 34.297 0 0017.958 2.03z" fill="#9468B4" stroke="#263238" stroke-linecap="round" stroke-linejoin="round"/><path d="M507.357 682.99s-11.697.705-17.803-1.72m19.972-4.73s-10.94 1.72-17.047-1.72m18.904-5.454s-9.582 1.394-15.843-1.565m16.909-6.554s-10.665 3.337-15.705 0" stroke="#263238" stroke-linecap="round" stroke-linejoin="round"/><path d="M514.05 641.191l1.858 11.714s-14.105 9.288-23.429-2.323v-12.23s3.51 8.223 21.571 2.839z" fill="#9468B4" stroke="#263238" stroke-linecap="round" stroke-linejoin="round"/><path d="M501.803 378.233c-14.294 45.291-58.657 117.933-54.167 136.527 2.46 10.149 17.098 67.654 28.554 92.888 4.352 9.65 13.761 16.101 13.761 16.101l6.795 14.569c16.565 7.208 22.499-7.448 22.499-7.448l-3.337-16.513c8.876-16.135 5.161-16.135-6.381-99.769-1.359-9.856 21.501-40.32 21.501-40.32l11.732 76.65 1.909 62.785 6.089 19.403s1.514 18.216 1.377 19.317h27.229l2.959-20.022s12.643-11.921 12.643-25.682-2.718-83.857 0-104.275c2.718-20.418-6.364-115.611-6.364-115.611l-86.799-8.6z" fill="#263238"/><path d="M316.692 337.876l37.843 3.406a3.247 3.247 0 012.943 3.525l-2.431 27.006-44.311-3.988 2.431-27.006a3.247 3.247 0 013.525-2.943z" fill="#9468B4"/><path opacity=".3" d="M316.689 337.876l37.843 3.406a3.247 3.247 0 012.943 3.525l-2.431 27.007-44.311-3.988 2.431-27.007a3.247 3.247 0 013.525-2.943z" fill="#000" fill-opacity=".7"/><path opacity=".3" d="M355.128 340.814l-10.849-.932-1.864 21.697 10.849.932 1.864-21.697z" fill="#fff" fill-opacity=".7"/><path d="M316.692 337.876l37.843 3.406a3.247 3.247 0 012.943 3.525l-2.431 27.006-44.311-3.988 2.431-27.006a3.247 3.247 0 013.525-2.943v0z" stroke="#263238" stroke-width="1.004" stroke-linecap="round" stroke-linejoin="round"/><path d="M382.011 340.267l37.704 3.239a3.237 3.237 0 012.946 3.499l-2.312 26.907-44.148-3.792 2.311-26.908a3.237 3.237 0 013.499-2.945z" fill="#9468B4"/><path opacity=".3" d="M382.008 340.267l37.704 3.239a3.237 3.237 0 012.946 3.499l-2.312 26.907-44.148-3.792 2.311-26.908a3.237 3.237 0 013.499-2.945z" fill="#000" fill-opacity=".7"/><path opacity=".3" d="M419.508 346.355l-6.547-.562-1.864 21.697 6.547.562 1.864-21.697z" fill="#fff" fill-opacity=".7"/><path d="M382.011 340.267l37.704 3.239a3.237 3.237 0 012.946 3.499l-2.312 26.907-44.148-3.792 2.311-26.908a3.237 3.237 0 013.499-2.945z" stroke="#263238" stroke-linecap="round" stroke-linejoin="round"/><path d="M368.314 339.081l37.704 3.239a3.235 3.235 0 012.945 3.499l-2.311 26.907-44.148-3.792 2.311-26.908a3.234 3.234 0 013.499-2.945zm65.111 5.605l37.704 3.239a3.234 3.234 0 012.946 3.499l-2.31 26.89-44.149-3.793 2.312-26.907a3.234 3.234 0 013.497-2.928z" fill="#9468B4" stroke="#263238" stroke-linecap="round" stroke-linejoin="round"/><path opacity=".3" d="M406.545 345.232l-10.849-.932-1.864 21.697 10.849.932 1.864-21.697zm64.397 5.527l-10.848-.932-1.864 21.697 10.848.932 1.864-21.697z" fill="#fff" fill-opacity=".7"/><path d="M491.481 373.743l-10.647 123.729-199.348-17.201 10.648-123.713a7.815 7.815 0 012.754-5.317 7.821 7.821 0 015.709-1.804l183.746 15.791a7.801 7.801 0 015.348 2.766 7.801 7.801 0 011.79 5.749z" fill="#9468B4"/><path opacity=".3" d="M491.481 373.743l-10.647 123.729-199.348-17.201 10.648-123.713a7.815 7.815 0 012.754-5.317 7.821 7.821 0 015.709-1.804l183.746 15.791a7.801 7.801 0 015.348 2.766 7.801 7.801 0 011.79 5.749z" fill="#000" fill-opacity=".7"/><path d="M491.481 373.743l-10.647 123.729-199.348-17.201 10.648-123.713a7.815 7.815 0 012.754-5.317 7.821 7.821 0 015.709-1.804l183.746 15.791a7.801 7.801 0 015.348 2.766 7.801 7.801 0 011.79 5.749v0z" stroke="#263238" stroke-linecap="round" stroke-linejoin="round"/><path d="M491.48 373.742l-10.647 123.73L332.9 484.743l10.665-123.712a7.823 7.823 0 012.754-5.318 7.821 7.821 0 015.709-1.804l132.331 11.37a7.828 7.828 0 012.933.847 7.804 7.804 0 014.188 7.616z" fill="#9468B4" stroke="#263238" stroke-linecap="round" stroke-linejoin="round"/><path opacity=".3" d="M481.091 377.287l-126.448-10.872a3.231 3.231 0 01-2.941-3.44 3.228 3.228 0 011.12-2.173 3.229 3.229 0 012.32-.768l126.448 10.871a3.233 3.233 0 012.941 3.44 3.234 3.234 0 01-3.44 2.942z" fill="#fff" fill-opacity=".7"/><path d="M580.258 653.128s-9.529-6.794-29.242-5.435c0 0-1.445 23.652-4.129 30.532-2.683 6.881-16.823 18.801-19.454 20.848-2.632 2.047-2.632 9.186-2.632 9.186h59.895a190.74 190.74 0 00-4.765-30.378l.327-24.753z" fill="#fff"/><path opacity=".4" d="M580.258 653.128s-9.529-6.794-29.242-5.435c0 0-1.445 23.652-4.129 30.532-2.683 6.881-16.823 18.801-19.454 20.848-2.632 2.047-2.632 9.186-2.632 9.186h59.895a190.74 190.74 0 00-4.765-30.378l.327-24.753z" fill="#9468B4"/><path d="M580.258 653.128s-9.529-6.794-29.242-5.435c0 0-1.445 23.652-4.129 30.532-2.683 6.881-16.823 18.801-19.454 20.848-2.632 2.047-2.632 9.186-2.632 9.186h59.895a190.74 190.74 0 00-4.765-30.378l.327-24.753z" stroke="#263238" stroke-linecap="round" stroke-linejoin="round"/><path d="M567.891 656.19s-1.41 21.777-4.799 27.522a39.791 39.791 0 01-6.64 8.601" stroke="#263238" stroke-linecap="round" stroke-linejoin="round"/><path d="M554.799 695.323s-3.01 3.75-6.347 4.249c-3.337.499-20.969-.499-20.969-.499l7.191-6.227s14.621-2.46 20.125 2.477z" fill="#9468B4" stroke="#263238" stroke-linecap="round" stroke-linejoin="round"/><path d="M561.028 690.215s-12.763-7.328-21.863-1.72m24.941-3.252s-8.91-6.967-19.42-3.148m23.205-4.438s-9.599-7.465-19.713-2.718m21.02-6.76s-11.645-6.261-20.108-1.513" stroke="#263238" stroke-linecap="round" stroke-linejoin="round"/><path d="M584.679 708.258v4.421h-6.88s-5.9-3.44-11.508 0h-32.304a23.425 23.425 0 01-9.874-2.219l.671-2.202h59.895zm-8.583-56.523l-1.531 9.65s-17.976-5.832-27.901-2.047v-11.869s18.457-6.468 29.432 4.266z" fill="#9468B4" stroke="#263238" stroke-linecap="round" stroke-linejoin="round"/><path d="M595.531 411.31s-38.204 7.483-75.686-4.661a108.392 108.392 0 01-24.306-11.216s.104-2.408.172-6.347c.31-15.378.224-54.064-7.878-63.645-5.16-6.038-9.203-43.365.757-62.235l30.464-24.495c42.178 8.24 51.088 19.403 58.054 43.485 1.291 4.404 2.495 9.238 3.836 14.57 1.463 5.814 2.839 12.918 4.146 20.642 6.33 38.462 10.441 93.902 10.441 93.902z" fill="#999"/><path opacity=".2" d="M585.091 317.408l-17.202 76.839s-24.856 6.88-48.026 12.402a108.36 108.36 0 01-24.323-11.215s.103-2.408.172-6.348c20.814-10.647 51.191-26.3 50.951-27.04-.396-1.153 0-41.284 0-41.284s27.522-6.381 30.446-38.617c1.29 4.404 2.494 9.237 3.836 14.57 1.462 5.831 2.838 12.884 4.146 20.693z" fill="#000"/><path d="M595.531 411.31s-38.204 7.483-75.686-4.661a108.392 108.392 0 01-24.306-11.216s.104-2.408.172-6.347c.31-15.378.224-54.064-7.878-63.645-5.16-6.038-9.203-43.365.757-62.235l30.464-24.495c42.178 8.24 51.088 19.403 58.055 43.485 1.29 4.404 2.494 9.238 3.835 14.57 1.463 5.814 2.839 12.918 4.146 20.642 6.33 38.462 10.441 93.902 10.441 93.902z" stroke="#263238" stroke-linecap="round" stroke-linejoin="round"/><path d="M520.397 206.562s-13.452 19.266 4.438 34.3c0 0-21.708 24.357-28.847 21.003-3.01-1.411 0-10.201 0-10.201l-12.592-23.291 37.001-21.811z" fill="#fff" stroke="#263238" stroke-linecap="round" stroke-linejoin="round"/><path d="M516.01 216.539c4.197-18.354 2.184-45.687-23.532-43.262-18.027 1.72-30.876 11.697-25.802 35.882 2.116 10.201 3.853 24.65 13.211 37.689 2.597 3.612 29.776-9.169 28.124-19.507" fill="#fff"/><path d="M516.01 216.539c4.197-18.354 2.184-45.687-23.532-43.262-18.027 1.72-30.876 11.697-25.802 35.882 2.116 10.201 3.853 24.65 13.211 37.689 2.597 3.612 29.776-9.169 28.124-19.507m-28.794-22.275a12.458 12.458 0 0111.146 1.083m-24.082 1.17a3.239 3.239 0 013.871-1.72" stroke="#263238" stroke-linecap="round" stroke-linejoin="round"/><path d="M472.714 211.137s-5.298 9.65-5.316 11.027c-.017 1.376 6.52 1.84 6.52 1.84" fill="#fff"/><path d="M472.714 211.137s-5.298 9.65-5.316 11.027c-.017 1.376 6.52 1.84 6.52 1.84" stroke="#263238" stroke-linecap="round" stroke-linejoin="round"/><path d="M484.1 213.098c0 1.05-.464 1.91-1.118 1.944-.653.035-1.204-.825-1.238-1.875-.035-1.049.464-1.909 1.118-1.926.654-.017 1.204.843 1.238 1.857z" fill="#263238"/><path d="M476.619 231.023s10.166-1.91 12.041-5.488" stroke="#263238" stroke-linecap="round" stroke-linejoin="round"/><path d="M466.211 192.457l7.913-2.305s11.095-5.16 13.451-4.438c2.357.722 7.139 8.067 6.984 12.265 0 0 7.465 6.571 8.411 16.1l2.271-1.032s-.12-8.601 4.765-8.377c4.885.224 7.087 6.072 6.76 7.913-.327 1.84-5.676 9.478-5.676 9.478s12.247-1.824 12.643-25.802c.395-23.979-25.889-27.884-38.669-26.904-6.471.62-12.973.862-19.472.723l.722 6.881-5.16 1.358 3.887 4.765-4.266 1.944 5.436 7.431z" fill="#263238"/><path d="M510.523 453.919s31.135 8.239 39.564 31.427m-25.304-18.957s-16.823 28.022-42.573 42.574m18.921 115.009s9.564-2.151 12.178-5.866m41.077 9.426s9.357-4.851 18.68 0m11.612-130.455s-15.705 40.681-23.652 44.448m-45.119-108.162c.43 4.421 18.922 24.907 34.179 33.027m-18.405-50.314a28.496 28.496 0 011.324 17.287 26.645 26.645 0 000 15.241" stroke="#fff" stroke-linecap="round" stroke-linejoin="round"/><path d="M498.035 331.479s28.95 37.464 60.068 49.763m-30.102-110.33s-.103 25.476 18.268 36.966" stroke="#263238" stroke-linecap="round" stroke-linejoin="round"/><path d="M538.339 308.085c-3.887 3.819.344 51.742.344 51.742s-22.585 8.841-29.655 14.535c-7.07 5.694-40.561 18.767-40.561 18.767s-5.16 17.58 1.273 18.182c6.433.602 73.054-22.104 88.295-30.068 0 0 9.925-58.485 9.856-73.364" fill="#fff"/><path d="M538.339 308.085c-3.887 3.819.344 51.742.344 51.742s-22.585 8.841-29.655 14.535c-7.07 5.694-40.561 18.767-40.561 18.767s-5.16 17.58 1.273 18.182c6.433.602 73.054-22.104 88.295-30.068 0 0 9.925-58.485 9.856-73.364" stroke="#263238" stroke-linecap="round" stroke-linejoin="round"/><path d="M471.116 392.079c-3.096-.585-8.601-2.614-11.491-1.943-2.89.67-8.17 3.853-13.606 5.16s-3.182 3.44 0 4.077c2.329.388 4.706.388 7.035 0l-4.42 4.317a69.646 69.646 0 01-7.827 3.63c-1.6 0-7.259 1.531-6.881 3.939.379 2.408 3.63 2.133 7.259 2.27 0 0-5.779 1.153-5.16 4.438.378 2.254 6.88.224 10.2.224 0 0-2.717 2.959-.688 3.87 2.03.912 6.537-1.359 6.537-1.359s-.172 2.443 1.858 2.684c2.029.241 7.138-1.72 10.613-3.819a94.127 94.127 0 009.805-7.259 16.148 16.148 0 014.455-2.89" fill="#fff"/><path d="M471.116 392.079c-3.096-.585-8.601-2.614-11.491-1.943-2.89.67-8.17 3.853-13.606 5.16s-3.182 3.44 0 4.077c2.329.388 4.706.388 7.035 0l-4.42 4.317a69.646 69.646 0 01-7.827 3.63c-1.6 0-7.259 1.531-6.881 3.939.379 2.408 3.63 2.133 7.259 2.27 0 0-5.779 1.153-5.16 4.438.378 2.254 6.88.224 10.2.224 0 0-2.717 2.959-.688 3.87 2.03.912 6.537-1.359 6.537-1.359s-.172 2.443 1.858 2.684c2.029.241 7.138-1.72 10.613-3.819a94.127 94.127 0 009.805-7.259 16.148 16.148 0 014.455-2.89" stroke="#263238" stroke-linecap="round" stroke-linejoin="round"/><path d="M441.27 413.598a39.278 39.278 0 004.764-.55c1.359-.344 2.718-.791 2.718-.791m-2.511 6.003a16.357 16.357 0 005.9-2.03m-.051 4.541a10.02 10.02 0 004.3-1.6m-7.208-14.173s-1.238 2.838 0 4.42c1.239 1.583 2.735 1.72 2.959 3.441.224 1.72 3.182 1.72 4.249 2.838 1.066 1.118 1.875 3.268 5.28 3.44" stroke="#263238" stroke-linecap="round" stroke-linejoin="round"/><path d="M536.894 258.39c-11.714 26.507 0 63.284 0 63.284s28.348 9.633 30.962 5.487c2.615-4.145 7.397-24.477 8.205-33.869" fill="#999"/><path d="M536.894 258.39c-11.714 26.507 0 63.284 0 63.284s28.348 9.633 30.962 5.487c2.615-4.145 7.397-24.477 8.205-33.869m-8.172 2.941s-12.041 16.565-21.622 16.788" stroke="#263238" stroke-linecap="round" stroke-linejoin="round"/><path d="M137.511 712.68s-2.941-11.233.499-15.396c6.158-7.465-.757-13.761 5.435-16.324l2.598 3.01c.499-3.044-.946-12.35 10.544-13.554 13.899-1.462 14.157 8.6 14.914 12.041l-.241-4.662c5.935 0 2.856 5.917 11.835 15.585a25.626 25.626 0 016.502 19.368l-52.086-.068zm105.942-.001c-5.591-2.494-.465-23.583-.465-23.583s-7.517-5.04 0-10.321a20.923 20.923 0 0021.347 3.441s1.462-14.106 10.321-12.299c0 0 2.271 8.944 7.448 14.053 14.02 13.761 32.133 15.481 35.16 22.087.912 1.995-.189 6.554-.189 6.554l-73.622.068z" fill="#263238"/><path d="M219.561 376.358l6.88 14.586s28.451 58.795 45.876 126.121c.413 1.6 9.427 33.491 2.202 112.91l4.129 13.934-4.507 23.015s6.777 9.788 6.536 12.987c0 0-16.719 3.114-22.362 6.107-4.334 2.339-17.356 15.188-17.356 15.188-3.698-.756-4.025-15.687-4.025-15.687s-7.723-132.572-9.942-138.283c-2.219-5.71-15.774-30.343-36.932-86.712 0 0-.481 78.731-6.123 98.65-5.041 17.718.928 67.309.928 67.309l-3.44 55.2s11.903 12.368 2.253 15.687c0 0-6.45-12.402-24.821-15.223-9.341-1.445-20.969 15.138-20.969 15.138-4.094-1.308 1.72-22.139 1.72-22.139-13.021-98.254-3.44-80.468-6.02-128.494-1.72-30.825-10.407-162.691-.155-173.408l86.128 3.114z" fill="#BFBFBF"/><path opacity=".2" d="M128.651 421.769c45.996 3.613 85.817-11.439 103.105-19.3-3.286-7.362-5.298-11.525-5.298-11.525l-6.881-14.569-86.007-3.131c-3.647 3.87-4.937 23.532-4.919 48.525zm61.873 39.77c20.935 55.647 34.403 80.004 36.571 85.68 1.255 3.303 4.334 48.319 6.743 86.093 2.752-34.402 5.59-70.646 5.831-77.75.516-14.174-9.719-33.594-11.25-38.617-1.531-5.023 1.927-10.459 1.927-10.459l-18.406-23.222c.619-7.878-9.134-42.264-9.134-42.264-5.797 5.488-10.957 17.168-12.282 20.539z" fill="#000"/><path d="M219.561 376.358l6.88 14.586s28.451 58.795 45.876 126.121c.413 1.6 9.427 33.491 2.202 112.91l4.129 13.933-4.507 23.016s6.777 9.788 6.536 12.987c0 0-16.719 3.113-22.362 6.107-4.334 2.339-17.356 15.188-17.356 15.188-3.698-.756-4.025-15.687-4.025-15.687s-7.723-132.572-9.942-138.283c-2.219-5.71-15.774-30.343-36.932-86.712 0 0-.481 78.731-6.124 98.65-5.04 17.718.929 67.309.929 67.309l-3.44 55.2s11.903 12.368 2.253 15.687c0 0-6.45-12.402-24.821-15.223-9.341-1.445-20.969 15.138-20.969 15.138-4.094-1.308 1.72-22.139 1.72-22.139-13.021-98.254-3.44-80.468-6.02-128.494-1.72-30.825-10.407-162.691-.155-173.408l86.128 3.114zm-29.431 84.166s10.51-20.281 19.472-25.94m3.955-6.57s-31.926 9.718-43.003 11.593" stroke="#263238" stroke-linecap="round" stroke-linejoin="round"/><path d="M197.217 395.434c1.376 26.576 10.751 31.1 1.72 36.897 0 0 .258 12.437-4.249 20.315m-53.411-67.378s3.767 40.853-8.807 48.542" stroke="#263238" stroke-linecap="round" stroke-linejoin="round"/><path d="M132.47 398.444s-.946 27.196 0 49.11c0 0 3.148 92.63 6.296 104.258s-4.851 29.243-4.163 79.505m28.003 39.34a13.056 13.056 0 00-8.79 1.169m27.713 9.857a48.27 48.27 0 00-13.52-9.272m8.36-205.471c-7.052 7.913-18.233 22.826-29.689 24.082m40.474-36.949a295.529 295.529 0 01-6.675 8.085m-3.372 84.494s-16.032 21.828-24.822 23.084m43.675-113.151s28.554 79.522 38.48 87.366c0 0 1.118 58.485 1.444 78.903.327 20.418 5.023 47.562 5.023 47.562m30.483-.585s-10.992 3.802-16.341 6.227a14.782 14.782 0 00-7.225 7.758m-4.25-168.54c-15.326-9.615-35.538-21.639-43.691-38.582m57.057 46.512a238.083 238.083 0 01-8.601-4.988m-39.702-112.033c-8.24-.121-17.202-1.204-24.306-5.866m37.397 5.092a82.08 82.08 0 01-7.104.654" stroke="#263238" stroke-linecap="round" stroke-linejoin="round"/><path d="M237.021 222.8c-6.296-9.529-38.377-11.954-58.967-11.954-20.59 0-45.584-3.441-56.868 19.781-8.601 17.735 11.216 111.517 11.216 111.517l-4.851 40.492c37.292 11.697 101.178 9.117 101.178 9.117l-8.6-36.605s23.187-122.835 16.892-132.348z" fill="#263238"/><path d="M165.824 187.297s2.77 22.069-5.625 26.834c0 0 4.197 16.187 18.922 17.202 14.724 1.014 21.226-14.794 21.226-14.794l-34.523-29.242z" fill="#fff" stroke="#263238" stroke-linecap="round" stroke-linejoin="round"/><path d="M243.856 130.632l37.683-3.476a3.234 3.234 0 013.517 2.923l2.481 26.892-44.055 4.064-2.481-26.892a3.232 3.232 0 012.855-3.511z" fill="#9468B4"/><path opacity=".3" d="M243.856 130.632l37.683-3.476a3.234 3.234 0 013.517 2.923l2.481 26.892-44.055 4.064-2.481-26.892a3.23 3.23 0 012.855-3.511z" fill="#000" fill-opacity=".7"/><path opacity=".3" d="M282.636 129.876l-10.842 1 2 21.685 10.843-1-2.001-21.685z" fill="#fff" fill-opacity=".7"/><path d="M243.856 130.632l37.683-3.476a3.234 3.234 0 013.517 2.923l2.481 26.892-44.055 4.064-2.481-26.892a3.232 3.232 0 012.855-3.511v0z" stroke="#263238" stroke-linecap="round" stroke-linejoin="round"/><path d="M309.011 124.586l37.683-3.476a3.234 3.234 0 013.518 2.924l2.48 26.892-44.123 4.07-2.481-26.892a3.235 3.235 0 012.923-3.518z" fill="#9468B4"/><path opacity=".3" d="M309.011 124.586l37.683-3.476a3.234 3.234 0 013.518 2.924l2.48 26.892-44.123 4.07-2.481-26.892a3.235 3.235 0 012.923-3.518z" fill="#000" fill-opacity=".7"/><path opacity=".3" d="M347.014 123.955l-6.543.604 2 21.685 6.543-.604-2-21.685z" fill="#fff" fill-opacity=".7"/><path d="M309.011 124.586l37.683-3.476a3.234 3.234 0 013.518 2.924l2.48 26.892-44.123 4.07-2.481-26.892a3.235 3.235 0 012.923-3.518v0z" stroke="#263238" stroke-linecap="round" stroke-linejoin="round"/><path d="M295.32 125.838l37.683-3.475a3.233 3.233 0 013.517 2.923l2.481 26.892-44.192 4.076-2.481-26.892a3.242 3.242 0 011.759-3.183c.385-.194.804-.31 1.233-.341zm65.088-6.004l37.683-3.476a3.234 3.234 0 013.517 2.923l2.481 26.892-44.124 4.07-2.48-26.892a3.23 3.23 0 012.923-3.517z" fill="#9468B4" stroke="#263238" stroke-linecap="round" stroke-linejoin="round"/><path opacity=".3" d="M334.038 125.141l-10.843 1 2.001 21.685 10.842-1-2-21.685zm64.375-5.956l-10.843 1 2.001 21.685 10.842-1-2-21.685z" fill="#fff" fill-opacity=".7"/><path d="M422.711 138.135l11.422 123.644-199.279 18.405-11.353-123.678a7.828 7.828 0 017.07-8.515l183.642-16.943a7.809 7.809 0 018.498 7.087z" fill="#9468B4"/><path opacity=".3" d="M422.711 138.135l11.422 123.644-199.279 18.405-11.353-123.678a7.828 7.828 0 017.07-8.515l183.642-16.943a7.809 7.809 0 018.498 7.087z" fill="#000" fill-opacity=".7"/><path d="M422.711 138.135l11.422 123.644-199.279 18.405-11.353-123.678a7.828 7.828 0 017.07-8.515l183.642-16.943a7.809 7.809 0 018.498 7.087v0z" stroke="#263238" stroke-linecap="round" stroke-linejoin="round"/><path d="M422.71 138.135l11.422 123.644L286.2 275.42l-11.405-123.644a7.825 7.825 0 017.07-8.515l132.262-12.213a7.816 7.816 0 017.716 4.135 7.8 7.8 0 01.867 2.952z" fill="#9468B4" stroke="#263238" stroke-linecap="round" stroke-linejoin="round"/><path opacity=".3" d="M413.129 143.45L286.75 155.113a3.238 3.238 0 01-3.44-2.925 3.216 3.216 0 012.907-3.44l126.378-11.663a3.232 3.232 0 013.441 2.925 3.252 3.252 0 01-2.907 3.44z" fill="#fff" fill-opacity=".7"/><path d="M191.057 143.536s-29.156-5.848-32.425 12.918c-3.268 18.767 7.414 26.749 7.414 26.749l25.011-39.667z" fill="#263238"/><path d="M166.048 193.507a50.611 50.611 0 01-1.497-29.054c2.855-12.041 17.201-28.606 38.961-13.554 11.198 7.757 11.886 24.598 8.395 40.01-.826 3.681-.207 7.276-1.428 10.665-4.301 11.869-12.162 21.003-16.462 21.209-7.173.362-21.519-8.325-20.934-15.894" fill="#fff"/><path d="M166.048 193.507a50.611 50.611 0 01-1.497-29.054c2.855-12.041 17.201-28.606 38.961-13.554 11.198 7.757 11.886 24.598 8.395 40.01-.826 3.681-.207 7.276-1.428 10.665-4.301 11.869-12.162 21.003-16.462 21.209-7.173.362-21.519-8.325-20.934-15.894m22.017-18.836s-5.797-4.197-11.371-.757m22.311.001s4.386-4.025 7.242-3.441" stroke="#263238" stroke-linecap="round" stroke-linejoin="round"/><path d="M186.912 194.487c0 1.067.533 1.944 1.204 1.944.671 0 1.221-.877 1.221-1.944 0-1.066-.55-1.926-1.221-1.926s-1.204.86-1.204 1.926zm19.128.86c.674 0 1.221-.863 1.221-1.927s-.547-1.926-1.221-1.926c-.675 0-1.222.862-1.222 1.926s.547 1.927 1.222 1.927z" fill="#263238"/><path d="M203.581 191.356c-2.133 2.787.86 13.4 0 14.157-.86.757-6.33-1.393-6.33-1.393s-1.273-1.617 1.393-2.477m.087 9.203s-7.345 0-9.306-2.684" stroke="#263238" stroke-linecap="round" stroke-linejoin="round"/><path d="M181.149 171.093l-.567 8.876s-6.296 3.251-7.878 6.553a13.188 13.188 0 00-.998 6.881s-3.819-6.674-5.883-6.124c-.74.189-.74 2.993-.74 2.993s-8.6-19.197-.825-29.345c7.775-10.149 16.891 10.166 16.891 10.166z" fill="#757575" stroke="#263238" stroke-linecap="round" stroke-linejoin="round"/><path d="M169.024 191.494s-1.72-6.45-7.517-8.153c-5.797-1.703-1.824 13.761 3.113 15.773 4.937 2.013 6.175 3.441 6.468 1.6" fill="#fff"/><path d="M169.024 191.494s-1.72-6.45-7.517-8.153c-5.797-1.703-1.824 13.761 3.113 15.773 4.937 2.013 6.175 3.441 6.468 1.6" stroke="#263238" stroke-linecap="round" stroke-linejoin="round"/><path d="M161.127 169.975c-.482-.654-2.615-17.201 8.308-24.632 10.923-7.431 29.38-6.64 41.129 3.646 11.748 10.287 8.411 28.125 0 34.214v-7.448s-3.871 7.465-15.482 8.084l3.544-5.47s-5.711 3.441-15.774 3.148c0 0 4.73-3.767 4.042-7.121.018 0-15.963 8.996-25.767-4.421z" fill="#263238"/><path d="M163.174 229.63c-8.05.963-19.506 11.473-12.041 30.136 4.765 11.835 43.915 4.8 43.915 4.8 14.518-5.986 35.728-27.523 51.295-37.517 0 0-3.286-20.641-7.07-17.717-17.597 13.469-32.063 14.397-56.61 26.198.052-.069-14.432-6.503-19.489-5.9z" fill="#fff" stroke="#263238" stroke-linecap="round" stroke-linejoin="round"/><path d="M181.15 252.542c-.241 7.706 2.924 9.065 8.256 10.888l-8.256-10.888z" fill="#fff"/><path d="M181.15 252.542c-.241 7.706 2.924 9.065 8.256 10.888" stroke="#263238" stroke-linecap="round" stroke-linejoin="round"/><path d="M238.104 210.846c.361-1.118 6.88-12.575 8.721-15.482 1.84-2.907 10.062-5.539 13.245-7.293 3.182-1.755 3.44-4.421 5.16-2.511 1.72 1.909 0 6.261-9.529 10.888a92.18 92.18 0 0010.166 0c2.545-.378 4.816-2.683 5.951-1.084 1.136 1.6 1.359 4.473-4.317 6.227a29.51 29.51 0 01-8.395 1.72 59.014 59.014 0 018.171 2.374c.912.671 2.271 2.236 3.63 2.477 1.359.241 2.838 1.72.344 3.44a6.196 6.196 0 01-5.797.104s6.588 3.182 4.541 5.16c-2.047 1.978-8.601 1.583-8.601 1.583s-9.719 11.851-17.941 9.374" fill="#fff"/><path d="M238.104 210.846c.361-1.118 6.88-12.575 8.721-15.482 1.84-2.907 10.062-5.539 13.245-7.293 3.182-1.755 3.44-4.421 5.16-2.511 1.72 1.909 0 6.261-9.529 10.888a92.18 92.18 0 0010.166 0c2.545-.378 4.816-2.683 5.951-1.084 1.136 1.6 1.359 4.473-4.317 6.227a29.51 29.51 0 01-8.395 1.72 59.014 59.014 0 018.171 2.374c.912.671 2.271 2.236 3.63 2.477 1.359.241 2.838 1.72.344 3.44a6.196 6.196 0 01-5.797.104s6.588 3.182 4.541 5.16c-2.047 1.978-8.601 1.583-8.601 1.583s-9.719 11.851-17.941 9.374" stroke="#263238" stroke-linecap="round" stroke-linejoin="round"/><path d="M249.75 195.347c.556.129 1.066.41 1.473.81.406.401.695.907.832 1.461.568 2.03 2.236 2.15 3.251 4.421 1.015 2.27.723 5.779 1.72 6.983.998 1.204 0 6.279 0 6.279" stroke="#263238" stroke-linecap="round" stroke-linejoin="round"/><path d="M164.862 228.167c-4.215-5.367-13.675-2.941-13.675-2.941m-5.163-9.891s9.736 1.427 12.609 9.529m4.541 41.766s-9.495 7.345-23.945-3.2m11.957 5.419s-4.816 6.657-16.547 6.571m76.89 77.182s-24.838 19.799-50.073 17.201M144.391 309.1s38.548 28.279 67.085 30.085" stroke="#fff" stroke-linecap="round" stroke-linejoin="round"/><path d="M145.408 518.442a29.394 29.394 0 0121.76-2.718c12.574 3.165 45.24 49.884 49.781 54.442 4.541 4.559 13.039 6.881 20.865 15.12 12.385 12.918 30.395 24.34 32.218 24.34 1.824 0 3.286-1.135 5.557-1.582 2.27-.448 19.85-2.047 19.85-2.047s5.9 1.307 0 3.836c-5.9 2.528-5.453 4.782-5.453 4.782s-1.187 1.909 1.187 3.732c2.374 1.824 3.767.826 7.156 5.625 3.388 4.799-4.782 2.082-4.782 2.082s1.806 5.16-1.824 4.644c-3.629-.516-.447 5.04-6.347 4.283-5.9-.757-18.526-8.721-21.691-17.064 0 0-51.501-24.615-59.207-30.962-7.706-6.348-40.148-40.389-42.367-40.836" fill="#263238"/><path d="M280.147 564.541h37.843a3.237 3.237 0 013.234 3.234v27.006h-44.311v-27.006a3.237 3.237 0 013.234-3.234z" fill="#9468B4"/><path opacity=".3" d="M280.147 564.541h37.843a3.237 3.237 0 013.234 3.234v27.006h-44.311v-27.006a3.237 3.237 0 013.234-3.234z" fill="#000" fill-opacity=".7"/><path opacity=".3" d="M318.764 567.396h-10.889v21.777h10.889v-21.777z" fill="#fff" fill-opacity=".7"/><path d="M280.147 564.541h37.843a3.237 3.237 0 013.234 3.234v27.006h-44.311v-27.006a3.237 3.237 0 013.234-3.234v0z" stroke="#263238" stroke-linecap="round" stroke-linejoin="round"/><path d="M345.51 564.541h37.843a3.235 3.235 0 013.234 3.234v27.006h-44.311v-27.006a3.23 3.23 0 01.948-2.287 3.236 3.236 0 012.286-.947z" fill="#9468B4"/><path opacity=".3" d="M345.51 564.541h37.843a3.235 3.235 0 013.234 3.234v27.006h-44.311v-27.006a3.23 3.23 0 01.948-2.287 3.236 3.236 0 012.286-.947z" fill="#000" fill-opacity=".7"/><path opacity=".3" d="M383.404 567.396h-6.571v21.777h6.571v-21.777z" fill="#fff" fill-opacity=".7"/><path d="M345.51 564.541h37.843a3.235 3.235 0 013.234 3.234v27.006h-44.311v-27.006a3.23 3.23 0 01.948-2.287 3.236 3.236 0 012.286-.947v0z" stroke="#263238" stroke-linecap="round" stroke-linejoin="round"/><path d="M331.75 564.541h37.844a3.234 3.234 0 013.233 3.234v27.006h-44.31v-27.006a3.228 3.228 0 011.996-2.988 3.242 3.242 0 011.237-.246zm65.365 0h37.843a3.237 3.237 0 013.234 3.234v27.006h-44.311v-27.006a3.237 3.237 0 013.234-3.234z" fill="#9468B4" stroke="#263238" stroke-linecap="round" stroke-linejoin="round"/><path opacity=".3" d="M370.367 567.396h-10.888v21.777h10.888v-21.777zm64.643 0h-10.889v21.777h10.889v-21.777z" fill="#fff" fill-opacity=".7"/><path d="M457.474 588.486v124.177h-200.07V588.486a7.828 7.828 0 017.827-7.827h184.416c2.076 0 4.067.825 5.535 2.292a7.831 7.831 0 012.292 5.535z" fill="#9468B4"/><path opacity=".3" d="M457.474 588.486v124.177h-200.07V588.486a7.828 7.828 0 017.827-7.827h184.416c2.076 0 4.067.825 5.535 2.292a7.831 7.831 0 012.292 5.535z" fill="#000" fill-opacity=".7"/><path d="M457.474 588.486v124.177h-200.07V588.486a7.828 7.828 0 017.827-7.827h184.416c2.076 0 4.067.825 5.535 2.292a7.831 7.831 0 012.292 5.535v0z" stroke="#263238" stroke-linecap="round" stroke-linejoin="round"/><path d="M457.474 588.486v124.177H309.009V588.486a7.827 7.827 0 017.826-7.827h132.813a7.827 7.827 0 017.826 7.827z" fill="#9468B4" stroke="#263238" stroke-linecap="round" stroke-linejoin="round"/><path opacity=".3" d="M447.429 592.906H320.517a3.237 3.237 0 01-3.234-3.234 3.241 3.241 0 01.922-2.331 3.24 3.24 0 012.312-.971h126.912a3.233 3.233 0 013.234 3.234 3.241 3.241 0 01-.923 2.331 3.251 3.251 0 01-1.057.719 3.254 3.254 0 01-1.254.252z" fill="#fff" fill-opacity=".7"/><path d="M212.493 712.663c-10.321 0-24.822-6.64-41.524-13.658-17.322-7.293-37.052-15-57.075-16.152-7.465-.43-2.941 29.81-2.941 29.81H94.612s-16.135-21.536-18.01-40.819c0 0 13.176-8.136 16.34-8.601a28.84 28.84 0 013.286-.155c3.544 0 8.274.155 8.274.155-.757-.447-12.815-7.706-19.472-15.085-5.487-6.09-7.998-15.705-8.188-21.451.213-3.804.632-7.594 1.256-11.353l85.87 1.428s.928.654 2.58 1.875c9.959 7.259 46.358 34.3 64.557 54.683 5.883 6.589 9.856 12.471 10.441 16.772 2.735 19.833-13.486 22.551-29.053 22.551z" fill="#757575" stroke="#263238" stroke-linecap="round" stroke-linejoin="round"/><path d="M231.122 673.306l-41.765 9.546a61.603 61.603 0 00-18.423 16.152c-17.322-7.293-37.052-14.999-57.074-16.152-7.466-.43-2.942 29.81-2.942 29.81H94.577s-16.1-21.536-17.975-40.819c0 0 15.206 21.674 18.921 32.683 0 0 5.9-20.366 15.481-28.537a78.548 78.548 0 00-14.638-12.85c3.543 0 8.274.155 8.274.155-.757-.447-12.815-7.706-19.472-15.085-5.487-6.09-7.706-15.722-8.188-21.451-.24-2.821.103-11.352.103-11.352s64.041 9.133 89.602 3.302c9.84 7.225 46.238 34.214 64.437 54.598z" fill="#263238"/><path d="M163.984 671.844s34.025 17.046 43.107 23.721c9.082 6.674 11.783 4.868 11.783 4.868M85.048 670.038s8.17 12.471 8.6 16.203" stroke="#263238" stroke-linecap="round" stroke-linejoin="round"/><path d="M221.901 430.663s18.113-7.879 16.393 25.63c-1.72 33.508 4.421 35.228 4.421 35.228s-45.584 18.715-57.16 2.718c-11.577-15.997-.585-59.775 36.346-63.576z" fill="#263238"/><path d="M219.373 491.521s-18.75 8.841-20.453 17.012c-1.703 8.171-25.183-4.128-25.183-4.128l17.013-24.461 28.623 11.577z" fill="#fff" stroke="#263238" stroke-linecap="round" stroke-linejoin="round"/><path d="M96.434 581.209c-43.003 54.77-8.101 81.191 40.647 76.822l-9.77 15.481 24.529 4.249s18.801-12.282 44.432-25.407c43.622-22.361 61.254-21.02 56.764-43.399-4.489-22.379-57.951-36.897-111.551-13.314-.052-.017-29.156-34.592-45.05-14.432z" fill="#757575" stroke="#263238" stroke-linecap="round" stroke-linejoin="round"/><path d="M111.436 700.432s11.198-30.962 15.877-32.682c4.679-1.721 22.362 4.988 24.529 9.976 0 0 5.969-9.151 8.412-5.263 2.442 3.887-1.084 10.321 0 15.24 1.083 4.92 13.176 11.8 18.009 12.712 4.834.912 7.586 3.63 7.586 6.347v5.901h-74.413a15.565 15.565 0 010-12.231z" fill="#fff" stroke="#263238" stroke-linecap="round" stroke-linejoin="round"/><path d="M160.251 682.852s-9.857 4.868-13.452 3.441c-3.595-1.428 1.841 8.17 3.199 9.082 1.359.912 10.321-3.182 10.321-3.182m-39.578-14.449s13.383.258 17.46 5.16m-26.765 17.528s21.329 4.989 23.135 4.989a51.952 51.952 0 008.601-2.494s5.849 2.941 9.736 4.764c3.888 1.824 29.243 0 29.243 0m-45.069-49.626c20.367-2.201 59.93-27.298 73.691-36.019 13.761-8.722 17.201-6.434 17.201-6.434" stroke="#263238" stroke-linecap="round" stroke-linejoin="round"/><path d="M76.964 615.32l3.25-24.684 7.845-5.918c12.712-30.842 70.302-88.449 86.007-88.26 23.583.275 27.746 25.028 30.653 52.12s-33.835 23.016-33.835 23.016v6.794l-20.9 10.82 12.66-.396s-36.415 35.401-85.68 26.508z" fill="#9468B4" stroke="#263238" stroke-linecap="round" stroke-linejoin="round"/><path d="M179.037 448.759c4.936-15.482 27.522-19.61 35.641-17.081a28.876 28.876 0 0115.326 13.984c2.065 4.456-2.253 12.334.826 16.927 4.404 6.588 4.025 20.486 2.443 29.242-.86 4.644-20.178 7.397-35.969-3.44-16.96-11.732-23.049-24.736-18.267-39.632z" fill="#fff" stroke="#263238" stroke-linecap="round" stroke-linejoin="round"/><path d="M201.863 427.05s19.885-3.234 20.022 1.875c.878 33.939-19.472 41.06-19.472 41.06s-8.308-6.623-10.166-2.081c-1.857 4.541 2.925 17.098 8.808 17.356a13.452 13.452 0 00-.241 14.174s-33.681 5.625-36.467-9.977a122.7 122.7 0 002.786-16.479c2.185-21.863-2.924-36.57 34.73-45.928z" fill="#263238"/><path d="M228.421 461.642c4.145 3.733 7.121 3.733 7.07 5.075-.155 4.18-5.161 6.261-5.161 6.261" fill="#fff"/><path d="M228.421 461.642c4.145 3.733 7.121 3.733 7.07 5.075-.155 4.18-5.161 6.261-5.161 6.261m-.104 6.966a15.252 15.252 0 01-9.065.224" stroke="#263238" stroke-linecap="round" stroke-linejoin="round"/><path d="M219.202 440.812s13.228-3.836 10.803 17.631c0 0 5.504-7.483 5.487-15.894 0-14.57-19.489-11.646-19.489-11.646l2.546 10.321" fill="#263238"/><path d="M231.224 451.321a4.467 4.467 0 00-3.44-.636m-5.47.396s-7.104.413-10.183 5.16" stroke="#263238" stroke-linecap="round" stroke-linejoin="round"/><path d="M220.612 462.382c.103 1.135-.378 2.116-1.083 2.185-.706.068-1.359-.809-1.48-1.944-.12-1.135.379-2.116 1.084-2.185.705-.068 1.376.809 1.479 1.944z" fill="#263238"/><path d="M138.201 663.226s15.825 1.72 19.266 8.6" stroke="#263238" stroke-linecap="round" stroke-linejoin="round"/><path d="M178.261 508.069a29.393 29.393 0 0121.76-2.718c12.591 3.182 45.239 49.884 49.78 54.442 4.542 4.559 13.039 6.881 20.866 15.12 12.385 12.919 30.395 24.34 32.218 24.34 1.823 0 3.285-1.135 5.556-1.582 2.271-.447 19.851-2.047 19.851-2.047s5.9 1.324 0 3.836c-5.901 2.511-5.453 4.799-5.453 4.799s-1.17 1.892 1.187 3.716c2.356 1.823 3.767.825 7.155 5.624 3.389 4.8-4.782 2.082-4.782 2.082s1.807 5.16-1.823 4.644c-3.629-.516-.447 5.04-6.347 4.283-5.9-.756-18.526-8.721-21.691-17.063 0 0-51.501-24.616-59.208-30.963-7.706-6.347-40.113-40.389-42.401-40.836" fill="#fff"/><path d="M178.261 508.069a29.393 29.393 0 0121.76-2.718c12.591 3.182 45.239 49.884 49.78 54.442 4.542 4.559 13.039 6.881 20.866 15.12 12.385 12.919 30.395 24.34 32.218 24.34 1.823 0 3.285-1.135 5.556-1.582 2.271-.447 19.851-2.047 19.851-2.047s5.9 1.324 0 3.836c-5.901 2.511-5.453 4.799-5.453 4.799s-1.17 1.892 1.187 3.716c2.356 1.823 3.767.825 7.155 5.624 3.389 4.8-4.782 2.082-4.782 2.082s1.807 5.16-1.823 4.644c-3.629-.516-.447 5.04-6.347 4.283-5.9-.756-18.526-8.721-21.691-17.063 0 0-51.501-24.616-59.208-30.963-7.706-6.347-40.113-40.389-42.401-40.836" stroke="#263238" stroke-linecap="round" stroke-linejoin="round"/><path d="M170.866 503.08s25.39-6.794 34.248-1.806c8.859 4.989 25.648 28.125 25.648 28.125s-20.47 18.319-26.8 16.651c-6.33-1.669-25.699-4.404-25.699-4.404" fill="#9468B4"/><path d="M170.866 503.08s25.39-6.794 34.248-1.806c8.859 4.989 25.648 28.125 25.648 28.125s-20.47 18.319-26.8 16.651c-6.33-1.669-25.699-4.404-25.699-4.404m14.62 2.237s-9.202 5.057-12.591 5.057m-2.031-30.43c.774 1.359.516 16.238 16.668 20.866M91.928 585.2s34.403 5.9 46.272-4.541m11.765 8.549s-8.6-1.514-11.765 2.907c-3.165 4.421-20.401 8.601-20.401 8.601m-36.984 21.33s-4.971 21.433 16.238 30.962m-5.125-29.483s.12 10.562 3.44 16.341l10.544 3.441 11.801-6.571s-2.512-13.503-2.735-16.238" stroke="#263238" stroke-linecap="round" stroke-linejoin="round"/></svg>