<svg width="547" height="363" fill="none" xmlns="http://www.w3.org/2000/svg"><path d="M93.83 47.882c2.463-15.168-7.837-29.46-23.005-31.923-15.168-2.462-29.46 7.838-31.923 23.006-2.462 15.169 7.838 29.46 23.006 31.923 15.168 2.462 29.46-7.838 31.923-23.006z" fill="#EBEBEB"/><path d="M67.642 70.597c14.665 0 26.553-11.888 26.553-26.554 0-14.665-11.888-26.553-26.553-26.553-14.666 0-26.554 11.888-26.554 26.553 0 14.666 11.888 26.554 26.554 26.554z" fill="#DBDBDB"/><path d="M67.642 68.915c13.736 0 24.872-11.135 24.872-24.872 0-13.736-11.136-24.872-24.872-24.872-13.737 0-24.872 11.136-24.872 24.872 0 13.737 11.135 24.872 24.872 24.872z" fill="#fff"/><path opacity=".5" d="M91.943 38.762C80.62 45.628 62 56.882 51.561 63.1a24.96 24.96 0 01-6.796-9.143L79.183 22.07a24.9 24.9 0 0112.76 16.692zm.555 6.148c-.094 2.768-.65 5.5-1.647 8.084l-31.02 14.669a24.719 24.719 0 01-3.924-1.681c9.371-5.413 26.501-15.265 36.59-21.072z" fill="#EBEBEB"/><path d="M67.877 20.975h-.481v3.765h.481v-3.765zM56.312 23.94l-.417.24 1.887 3.27.417-.242-1.887-3.268zm-8.542 8.354l-.242.418 3.27 1.887.24-.417-3.269-1.888zm.569 11.504h-3.766v.482h3.766v-.482zm2.476 9.697l-3.27 1.887.242.417 3.269-1.887-.241-.417zm6.961 7.148l-1.882 3.262.418.24 1.88-3.261-.416-.24zm10.101 2.693h-.481v3.775h.481v-3.775zm9.623-2.707l-.417.24 1.883 3.262.417-.241-1.883-3.261zm6.963-7.159l-.24.416 3.268 1.888.241-.417-3.269-1.888zm6.238-9.672h-3.765v.482H90.7v-.482zm-3.206-11.493l-3.268 1.888.24.417 3.27-1.888-.242-.417zm-8.524-8.365l-1.885 3.269.417.24 1.886-3.27-.418-.24z" fill="#C7C7C7"/><path d="M68 22.683l.815 23.042-2.356-.035.902-23.016.64.009z" fill="#C7C7C7"/><path d="M82.354 36.003l-15.5 9.896-1.13-2.075 16.323-8.381.307.56z" fill="#A6A6A6"/><path d="M68.446 44.043a.805.805 0 11-1.61 0 .805.805 0 011.61 0z" fill="#C7C7C7"/><path d="M62.334 135.098a2.625 2.625 0 010-2.706c.14-.227.271-.455.394-.692.122-.236.254-.481.368-.718a2.628 2.628 0 012.233-1.506l3.328-.105-.342-10.825-3.345.097a2.529 2.529 0 01-2.312-1.367c-.254-.455-.535-.875-.832-1.34a2.624 2.624 0 01-.193-2.715l1.568-2.925-9.529-5.158-1.567 2.925a2.633 2.633 0 01-2.365 1.349 13.75 13.75 0 00-1.585.052 2.633 2.633 0 01-2.418-1.173l-1.751-2.847-9.204 5.711 1.751 2.837a2.54 2.54 0 010 2.627c-.14.246-.28.482-.412.736-.13.254-.262.499-.385.753a2.549 2.549 0 01-2.216 1.472l-3.328.096.35 10.86 3.32-.105a2.522 2.522 0 012.312 1.313c.267.502.56.99.876 1.463a2.523 2.523 0 01.149 2.627l-1.568 2.925 9.555 5.124 1.567-2.926a2.63 2.63 0 012.365-1.339c.526.008 1.052-.009 1.576-.053a2.57 2.57 0 012.426 1.182l1.752 2.838 9.204-5.719-1.742-2.768zm-16.027-2.233a8.881 8.881 0 116.28-16.616 8.881 8.881 0 01-6.28 16.616zm477.687 97.186a1.792 1.792 0 01-.876-1.673v-1.121a1.808 1.808 0 01.876-1.673l2.023-1.165-3.792-6.568-2.032 1.139a1.79 1.79 0 01-1.891-.062 10.085 10.085 0 00-.981-.569 1.746 1.746 0 01-.99-1.603v-2.32h-7.61v2.32a1.754 1.754 0 01-.99 1.603 9.968 9.968 0 00-.981.569 1.795 1.795 0 01-1.892.062l-2.023-1.156-3.748 6.585 2.032 1.174a1.804 1.804 0 01.876 1.664v1.121a1.801 1.801 0 01-.876 1.673l-2.032 1.2 3.792 6.577 2.014-1.165a1.799 1.799 0 011.892.07c.317.204.644.391.981.561a1.815 1.815 0 01.955 1.576v2.321h7.601v-2.321a1.821 1.821 0 01.999-1.612c.336-.169.664-.356.981-.56a1.795 1.795 0 011.891-.07l2.015 1.165 3.792-6.577-2.006-1.165zm-11.464 3.993a6.215 6.215 0 01-5.744-3.836 6.22 6.22 0 014.526-8.479 6.22 6.22 0 016.384 2.636 6.217 6.217 0 011.052 3.453 6.228 6.228 0 01-6.218 6.226zM68.323 90.118l3.801 6.577 2.006-1.165a1.812 1.812 0 011.891.062c.318.21.649.4.99.569a1.822 1.822 0 01.998 1.602v2.33h7.593v-2.33a1.805 1.805 0 01.999-1.602c.338-.17.666-.36.98-.57a1.813 1.813 0 011.892-.06l2.015 1.164 3.792-6.577-2.023-1.165a1.812 1.812 0 01-.876-1.673v-1.12a1.752 1.752 0 01.876-1.665l2.023-1.173-3.792-6.577-2.023 1.164a1.813 1.813 0 01-1.892-.06 10.821 10.821 0 00-.972-.57 1.752 1.752 0 01-.999-1.603v-2.33H78.01v2.33a1.803 1.803 0 01-.998 1.603c-.338.17-.665.36-.98.57a1.812 1.812 0 01-1.893.06l-2.014-1.164-3.8 6.577 2.022 1.165a1.805 1.805 0 01.876 1.672v1.121a1.804 1.804 0 01-.876 1.673l-2.023 1.165zm7.26-3.398a6.218 6.218 0 110 .026v-.026z" fill="#EBEBEB"/><path d="M52.97 260.152s13.716-3.11 21.23-10.028c7.514-6.919 11.709-19.329 11.709-19.329-5.208 1-10.343 2.349-15.37 4.038a26.152 26.152 0 00-4.66 6.577 31.96 31.96 0 010-4.703 21.185 21.185 0 00-4.877 2.96c-6.271 5.43-8.031 20.485-8.031 20.485z" fill="#DBDBDB"/><path d="M77.354 236.794c1.865-1.296 3.774-2.539 5.631-3.844a.126.126 0 00.03-.029.107.107 0 00-.025-.151.132.132 0 00-.037-.018.111.111 0 00-.082.014 192.205 192.205 0 00-10.387 6.726c-1.173.823-2.33 1.681-3.503 2.557l.237-.403c.411-.692.876-1.366 1.278-2.04a29.444 29.444 0 012.96-3.889.042.042 0 00.01-.016.046.046 0 00-.003-.035.043.043 0 00-.01-.015.047.047 0 00-.017-.009c-.005-.002-.012-.002-.018-.002a.037.037 0 00-.017.005.035.035 0 00-.015.011c-1.068 1.226-2.128 2.452-3.109 3.757-.464.622-.875 1.261-1.305 1.918-.21.341-.411.683-.613 1.033-.06.123-.14.237-.201.359-1.752 1.393-3.503 2.838-5.15 4.379a58.297 58.297 0 00-2.942 2.943c.525-1.664.99-3.337 1.602-4.975 0-.052-.07-.078-.087 0-.596 1.752-1.253 3.442-1.752 5.203a59.103 59.103 0 00-3.004 3.503l.053-.219c.149-.648.315-1.296.49-1.936a54.29 54.29 0 011.113-3.687 21.34 21.34 0 013.687-6.953c0-.044 0-.114-.07-.071a26.834 26.834 0 00-5.255 10.965c-.149.587-.28 1.174-.42 1.752-.07.315-.15.63-.202.946-.411.56-.823 1.129-1.208 1.707a59.506 59.506 0 00-5.807 11.386 131.777 131.777 0 00-4.379 13.697c0 .088.105.123.14 0 2.68-8.022 5.421-16.158 10.01-23.331a52.974 52.974 0 013.127-4.379c2.273-.152 4.516-.6 6.674-1.331a29.549 29.549 0 006.673-3.223 41.156 41.156 0 003.433-2.627.047.047 0 00-.028-.082.047.047 0 00-.033.012 27.372 27.372 0 01-6.288 3.801 33.805 33.805 0 01-6.91 2.32 40.13 40.13 0 01-3.074.526 59.2 59.2 0 014.046-4.484c.464-.456.946-.876 1.419-1.349a32.337 32.337 0 015.062-2.829c2.242-1.086 4.457-2.242 6.682-3.371 1.252-.64 2.496-1.288 3.766-1.91.052 0 0-.105-.053-.078-2.25 1.094-4.545 2.11-6.814 3.152-2.268 1.043-4.308 1.962-6.366 3.118l-.254.158a105.016 105.016 0 015.745-4.651 217.777 217.777 0 015.57-4.011z" fill="#A6A6A6"/><path d="M76.573 243.862c-1.112.49-2.25.928-3.354 1.436-1.103.508-2.215 1.156-3.293 1.752-.043 0 0 .096.044.07 1.095-.526 2.207-1.016 3.284-1.559 1.077-.543 2.207-1.156 3.346-1.647.052.018.026-.07-.027-.052z" fill="#A6A6A6"/><path d="M8.438 191.034a19.62 19.62 0 014.1 11.386c0 1.226-.15 2.942-.299 4.957a32.581 32.581 0 018.95 7.645 16.274 16.274 0 00-9.037-2.163c.068 1.377.24 2.748.517 4.099 1.995.004 3.97.397 5.815 1.156a13.117 13.117 0 00-5.255 1.042c2.443 7.777 9.704 15.764 29.777 19.162a42.09 42.09 0 00-3.556-28.235c-6-11.832-31.012-19.049-31.012-19.049z" fill="#DBDBDB"/><path d="M49.96 271.537a195.66 195.66 0 00-1.306-9.932 197.099 197.099 0 00-4.046-19.635 80.717 80.717 0 00-2.89-8.95c.054-.533.077-1.068.07-1.603v-1.927c0-1.287-.07-2.566-.184-3.853a45.654 45.654 0 00-1.226-7.523c-.368-1.428-.797-2.829-1.217-4.248 0-.052-.105 0-.088 0a54.653 54.653 0 011.48 7.506c.36 2.496.586 5.011.675 7.531v2.943a64.211 64.211 0 00-3.38-7.006 84.193 84.193 0 00-6.867-10.273 4.382 4.382 0 00-.166-1.121l-.29-1.349a77.307 77.307 0 00-.682-2.732c-.5-1.813-1.165-3.574-1.752-5.369 0-.052-.105 0-.088 0 .535 1.752.876 3.617 1.288 5.43.201.876.403 1.752.595 2.68l.29 1.349v.096a117.27 117.27 0 00-2.488-3.022c-3.827-4.492-8.03-8.635-12.26-12.751-.526-.508-1.052-.998-1.586-1.498-.044-.043-.105 0-.061.071 4.037 4.212 8.022 8.477 11.788 12.935.876 1.06 1.751 2.137 2.627 3.223l-1.366-.876a57.275 57.275 0 00-3.565-2.181 52.164 52.164 0 00-3.617-1.848c-1.26-.578-2.627-1.156-3.906-1.883-.052 0-.096.062 0 .088a28.206 28.206 0 013.661 2.023c1.226.727 2.444 1.454 3.644 2.216 1.2.762 2.364 1.489 3.503 2.242.98.639 1.944 1.331 2.951 1.918a93.583 93.583 0 016.428 9.353 70.861 70.861 0 013.32 6.297l-.719-.307-1.839-.823-3.503-1.541c-2.25-.981-4.537-1.883-6.744-2.952a31.349 31.349 0 01-3.599-2.005c-.052 0-.096.052 0 .087 4.116 2.829 8.758 4.826 13.277 6.84l1.97.876c.543.245 1.086.508 1.647.718a70.171 70.171 0 013.284 9.257 187.858 187.858 0 014.379 19.408c1.147 6.551 1.927 13.136 2.531 19.766.07.832.149 1.655.245 2.479a.263.263 0 00.517 0c-.009-3.372-.385-6.744-.736-10.124z" fill="#A6A6A6"/><path d="M37.752 216.178c-.368-2.04-.876-4.037-1.462-6.034 0-.052-.105 0-.088 0 .508 1.962.876 3.959 1.244 5.946.367 1.988.7 4.064.99 6.131h.052a53.68 53.68 0 00-.736-6.043zm-8.646 5.526a36.117 36.117 0 00-4.379-2.452 108.3 108.3 0 00-2.215-1.094c-.745-.359-1.56-.683-2.312-1.06-.053 0-.097.053 0 .079.726.368 1.427.814 2.145 1.208l2.233 1.218a49.838 49.838 0 004.449 2.303.116.116 0 00.112-.072.114.114 0 00-.033-.13z" fill="#A6A6A6"/><path opacity=".1" d="M53.226 236.374s12.68-3.03 18.514-11.534c5.56-8.128 7.356-21.991 7.496-23.209-.227 1.121-2.846 13.234-11.481 18.874-6.612 4.317-13.006 7.873-14.53 15.869z" fill="#A6A6A6"/><path d="M64.935 214.453a16.251 16.251 0 00-4.676 7.706s0 .044 0 0a19.008 19.008 0 014.703-7.654s.017-.087-.027-.052z" fill="#A6A6A6"/><path d="M53.225 236.374s12.681-3.03 18.514-11.534c5.561-8.128 7.357-21.991 7.497-23.209a.275.275 0 000-.078s-6.078 8.644-12.48 10.851c-6.402 2.207-15.361 9.835-13.53 23.97z" fill="#DBDBDB"/><path d="M77.002 206.317a51.776 51.776 0 01-3.914 6.708 26.832 26.832 0 01-5.255 5.369c-1.752 1.375-3.547 2.627-5.255 3.95a.401.401 0 000-.062c.333-.481.683-.954 1.042-1.418.727-.929 1.515-1.804 2.321-2.671 1.577-1.708 3.18-3.39 4.598-5.255a19.43 19.43 0 002.032-3.276c0-.061-.061-.087-.088 0-2.058 4.292-6.13 7.007-9.099 10.659a16.42 16.42 0 00-1.174 1.602 5.98 5.98 0 00-.727 1.288 26.552 26.552 0 00-4.378 4.379c.137-.836.333-1.662.586-2.47a12.965 12.965 0 011.35-3.214c0-.044 0-.096-.08-.053a15.565 15.565 0 00-1.48 3.197 11.299 11.299 0 00-.464 2.741 23.808 23.808 0 00-1.752 2.627l.158-.814a55.9 55.9 0 01.876-3.766 22.676 22.676 0 013.048-7.146c0-.053 0-.105-.07-.053a26.998 26.998 0 00-3.381 7.006 37.876 37.876 0 00-1.016 3.793 62.11 62.11 0 00-.385 1.874c-.061.324-.132.657-.184.989a45.697 45.697 0 00-2.925 8.601 125.974 125.974 0 00-2.706 16.044 131.811 131.811 0 00-.876 17.034c0 .709.052 1.427.096 2.137 0 .184.28.21.29 0 .122-2.811.2-5.631.367-8.443.166-2.811.412-5.622.71-8.433a150.882 150.882 0 012.627-16.404c1.024-4.633 2.364-9.301 4.895-13.364a25.057 25.057 0 014.58-5.448c1.752-1.594 3.723-2.995 5.597-4.475a30.864 30.864 0 005.176-4.939 40.865 40.865 0 004.037-6.542l.876-1.752c.052 0-.018-.053-.053 0z" fill="#A6A6A6"/><path d="M6.67 230.769s-.202 17.997 10.579 23.252c10.78 5.254 16.56.875 23.882 2.627-.289-.429-5.517-7.943-13.828-10.01-8.566-2.181-18.041-8.381-20.634-15.869z" fill="#DBDBDB"/><path opacity=".1" d="M6.67 230.769s-.202 17.997 10.579 23.252c10.78 5.254 16.56.875 23.882 2.627a40.973 40.973 0 00-12.26-3.617c-6.805-.858-19.793-5.29-22.202-22.262z" fill="#A6A6A6"/><path d="M41.84 256.938a18.202 18.202 0 00-4.29-2.917l-.71-.298a5.6 5.6 0 00-.359-.411c-.321-.339-.66-.661-1.016-.964a14.716 14.716 0 00-2.172-1.567c-1.751-1.051-3.74-1.752-5.57-2.759-.052 0-.096.053-.044.079.876.473 1.752.99 2.628 1.498.876.507 1.751.972 2.566 1.515.746.48 1.457 1.013 2.128 1.594.193.166.377.35.552.534a28.488 28.488 0 00-3.608-.972c-1.971-.394-3.968-.683-5.938-1.095a26.857 26.857 0 01-2.855-.78 84.422 84.422 0 01-2.628-2.215 21.188 21.188 0 01-2.785-3.092c0-.044-.122 0-.079.053a32.832 32.832 0 004.38 4.878c-.465-.175-.876-.368-1.376-.569a22.225 22.225 0 01-9.187-7.646.047.047 0 00-.03-.02.045.045 0 00-.035.007.048.048 0 00-.02.03.05.05 0 00.007.036 25.172 25.172 0 007.426 7.128 22.401 22.401 0 004.712 2.234 44.16 44.16 0 005.833 1.375 42.27 42.27 0 015.71 1.366 17.044 17.044 0 014.79 2.513 22.477 22.477 0 016.464 8.014 40.234 40.234 0 013.573 13.18c0 .193.324.193.306 0-.508-7.584-2.53-15.466-8.372-20.729z" fill="#A6A6A6"/><path d="M29.333 251.052a6.24 6.24 0 00-2.215-2.005 8.063 8.063 0 01-2.627-2.181c0-.053-.123 0-.08.053a9.097 9.097 0 002.322 2.084 8.05 8.05 0 012.54 2.093s.087 0 .06-.044z" fill="#A6A6A6"/><path d="M35.054 270.241l.49 9.914 1.498 30.293h22.621l1.498-30.293.49-9.914H35.054z" fill="#EBEBEB"/><path d="M35.054 270.241l.49 9.914h25.617l.49-9.914H35.054z" fill="#DBDBDB"/><path d="M33.459 275.556h29.776v-9.458H33.46v9.458zm489.878-83.716H408.005V.683h115.332V191.84zm-111.829-3.503h108.326V4.187H411.508v184.15z" fill="#EBEBEB"/><path d="M466.062 5.106h-3.503V190.08h3.503V5.106z" fill="#EBEBEB"/><path d="M526.516 7.769h-121.69v4.878h121.69V7.769zm0 5.481h-121.69v4.879h121.69V13.25zm0 5.492h-121.69v4.878h121.69v-4.878zm0 5.491h-121.69v4.878h121.69v-4.878zm0 5.482h-121.69v4.878h121.69v-4.878zm0 5.491h-121.69v4.878h121.69v-4.878zm0 5.484h-121.69v4.877h121.69V40.69zm0 5.49h-121.69v4.879h121.69V46.18zm0 5.492h-121.69v4.878h121.69v-4.878z" fill="#EBEBEB"/><path d="M516.113 6.779h-.876v94.926h.876V6.779z" fill="#263238"/><path d="M517.225 105.777h-3.109l.78-4.466h1.55l.779 4.466zm2.041-98.998h-.875v145.143h.875V6.779z" fill="#263238"/><path d="M520.386 155.206h-3.109l.78-4.467h1.55l.779 4.467z" fill="#263238"/><path d="M531.947 0H399.389v10.203h132.558V0z" fill="#DBDBDB"/><path d="M5.436 310.447l66.042-.21 66.052-.079 132.103-.148 132.103.148 66.052.07 66.043.219-66.043.211-66.052.078-132.103.149-132.103-.149-66.052-.078-66.042-.211z" fill="#263238"/><path d="M269.633 362.023c148.369 0 268.646-11.312 268.646-25.267 0-13.954-120.277-25.266-268.646-25.266-148.37 0-268.647 11.312-268.647 25.266 0 13.955 120.277 25.267 268.647 25.267z" fill="#EBEBEB"/><path d="M295.671 236.496l-2.076 12.462-14.083 76.036h-2.268l10.238-76.036 1.515-12.462h6.674z" fill="#DBDBDB"/><path d="M288.995 236.496h6.674l-2.076 12.462h-6.113l1.515-12.462z" fill="#A6A6A6"/><path d="M339.879 324.994h-2.269l-14.074-76.036-2.084-12.462h6.682l1.507 12.462 10.238 76.036z" fill="#DBDBDB"/><path d="M328.134 236.496l1.506 12.462h-6.104l-2.084-12.462h6.682z" fill="#A6A6A6"/><path d="M382.109 324.994h-2.268l-14.074-76.036-2.084-12.462h6.682l1.506 12.462 10.238 76.036z" fill="#DBDBDB"/><path d="M371.871 248.958h-6.104l-2.084-12.462h6.681l1.507 12.462z" fill="#A6A6A6"/><path d="M378.512 242.346H275.345v-10.868h38.622l12.979-75.519h47.634l3.932 86.387z" fill="#DBDBDB"/><path d="M378.51 242.346h-5.623l-3.66-86.387h5.351l3.932 86.387z" fill="#A6A6A6"/><path d="M333.189 97.02c13.294 6.278 21.605 32.044 14.888 52.993-7.243 22.63-30.416 26.948-43.737 22.113-14.135-5.132-18.391-20.756-11.989-30.1 6.2-9.03 16.412-11.71 19.179-19.96 1.323-3.949 1.148-11.245 2.847-17.165 1.926-6.603 10.772-11.674 18.812-7.882z" fill="#263238"/><path d="M338.32 100.61a56.573 56.573 0 0111.885 19.416 45.288 45.288 0 012.496 11.183c.168 1.914.208 3.836.122 5.754a51.825 51.825 0 01-.622 5.71c-1.278 7.532-4.378 14.889-9.633 20.538a32.5 32.5 0 01-9.196 6.813 33.044 33.044 0 01-10.938 3.162 33.277 33.277 0 0019.678-10.396c5.106-5.578 8.119-12.821 9.319-20.248.317-1.861.533-3.738.648-5.622.098-1.88.068-3.765-.088-5.64a47.807 47.807 0 00-2.347-11.053 57.01 57.01 0 00-4.712-10.317 59.01 59.01 0 00-6.612-9.3zm-25.292 11.832a34.626 34.626 0 01-.876 6.27 20.045 20.045 0 01-2.487 5.868 17.043 17.043 0 01-4.423 4.642c-1.751 1.217-3.441 2.426-5.079 3.722a31.401 31.401 0 00-8.355 9.178 18.831 18.831 0 00-2.198 12.086 18.391 18.391 0 01-.298-6.315c.137-1.057.378-2.098.718-3.109a19.01 19.01 0 011.244-2.951c1.979-3.818 5.097-6.875 8.39-9.52 1.664-1.322 3.424-2.504 5.149-3.696a17.408 17.408 0 004.318-4.378c2.364-3.433 3.319-7.646 3.897-11.797z" fill="#263238"/><path d="M285.301 334.4c1.997-.271 52.241-25.345 53.519-27.455.158-.246-2.005-4.835-5.088-11.07-6.945-14.127-20.844-38.018-20.844-38.018l-30.249 16.999 16.64 31.528s-5.588 6.761-10.124 12.506a79.326 79.326 0 00-5.632 7.62c-1.138 2.496-.21 8.171 1.778 7.89z" fill="#fff"/><path d="M338.821 306.944c-1.279 2.111-51.523 27.15-53.52 27.456-1.996.307-2.916-5.395-1.751-7.882a79.472 79.472 0 015.631-7.619c2.4-3.03 5.088-6.35 7.085-8.81-1.471 2.198-3.906 6.209-2.478 7.006 2.627 1.436 25.152-10.256 39.962-21.203 3.065 6.218 5.228 10.807 5.071 11.052z" fill="#263238"/><path d="M293.28 303.599l35.031-18.496s-26.738-52.39-26.037-53.309c2.452-3.162 32.063-1.752 44.849-14.433 13.54-13.452 3.197-32.614 3.197-32.614h-35.321s.324 9.633-1.2 10.859c-.998.832-53.011 5.851-55.051 19.574-3.521 23.76 34.532 88.419 34.532 88.419z" fill="#37474F"/><path d="M291.132 297.074c4.213-2.548 8.53-4.895 12.865-7.234 4.336-2.338 8.697-4.615 13.137-6.796 2.487-1.235 5.027-2.347 7.514-3.573a.07.07 0 01.047.004.075.075 0 01.034.032.07.07 0 01.005.047.072.072 0 01-.024.04c-2.181 1.173-4.3 2.46-6.481 3.643-2.181 1.182-4.291 2.321-6.446 3.503-4.379 2.303-8.758 4.554-13.084 6.84a236.423 236.423 0 01-7.453 3.687.111.111 0 01-.153-.04.112.112 0 01.039-.153zm-2.732-71.078c.875-1.796 3.17-2.059 4.895-2.488l14.109-3.503c8.338-2.058 16.92-4.011 24.391-8.425 3.564-2.111 7.006-4.773 8.81-8.626 1.804-3.854 1.752-7.944 1.813-12.016 0-.998-.053-2.006-.123-3.004 0-.088.132-.088.14 0 .254 4.002.666 8.005-.227 11.972a16.146 16.146 0 01-2.242 5.395 18.513 18.513 0 01-4.073 4.274c-6.603 5.184-14.888 7.663-22.893 9.703-4.527 1.156-9.073 2.26-13.618 3.372l-7.006 1.752a6.415 6.415 0 00-2.882 1.138 3.018 3.018 0 00-.875 2.54c.095.958.335 1.897.709 2.785.42 1.095.876 2.189 1.305 3.275.87 2.126 1.746 4.245 2.627 6.358a385.597 385.597 0 005.71 12.664c3.933 8.347 8.136 16.57 12.419 24.741.534 1.025 1.051 2.05 1.576 3.074 0 .061-.061.114-.096.053-4.589-8.084-8.88-16.351-12.962-24.697-4.081-8.347-7.882-16.702-11.183-25.328-.526-1.594-1.086-3.468-.324-5.009z" fill="#263238"/><path d="M189.726 336.265c1.918.631 58.065 0 60.132-1.314.254-.148.271-12.182.271-12.182 9.213-20.931 17.516-41.162 17.516-41.162l-39.174-.061-13.89 35.645s-7.987 3.643-14.582 6.831a78.418 78.418 0 00-8.39 4.379c-2.145 1.734-3.792 7.242-1.883 7.864z" fill="#fff"/><path d="M250.365 322.332c-.061.149-.131.289-.193.438 0 0 0 12.033-.271 12.182-2.067 1.349-58.213 1.944-60.131 1.314-1.918-.631-.263-6.131 1.839-7.883a78.41 78.41 0 018.39-4.378 464.242 464.242 0 016.463-3.066c-2.181 1.428-4.764 3.451-3.95 4.537 1.857 2.54 29.733 1.068 47.853-3.144z" fill="#263238"/><path d="M217.443 309.66l42.388-.307s21.317-54.912 24.759-58.59c1.751-1.865 13.408-3.941 27.342-7.006h.07c5.149-1.13 10.605-2.391 15.974-3.845 14.012-3.731 27.438-8.635 33.56-15.414 12.813-14.161 0-39.751 0-39.751h-36.091s-.876 11.14 1.865 17.962c0 0-26.553 3.897-48.912 11.157-12.673 4.108-23.997 9.301-28.384 15.484-8.557 12.069-32.571 80.31-32.571 80.31z" fill="#37474F"/><path d="M222.228 303.301c4.913-.359 9.826-.49 14.748-.604 4.922-.114 9.844-.166 14.766-.114 2.767 0 5.543.184 8.311.228.087 0 .096.131 0 .131-2.479.061-4.948.245-7.427.307-2.478.061-4.878.131-7.321.166-4.922.088-9.844.105-14.766.166-2.768 0-5.544 0-8.311-.096a.091.091 0 01-.049-.035.095.095 0 010-.114.097.097 0 01.049-.035zm120.97-113.291c.047.168.115.33.202.481a.063.063 0 010 .079c.481 1.48.674 3.048 1.13 4.528a7.098 7.098 0 002.741 3.914c2.802 1.944 6.13 2.829 9.423 3.634.105 0 .07.176 0 .184a17.88 17.88 0 01-5.561-.875 14.574 14.574 0 01-4.686-2.242 7.316 7.316 0 01-2.679-4.046 23.663 23.663 0 01-.473-2.627 19.737 19.737 0 01-.324-3.048.129.129 0 01.053-.039.132.132 0 01.065-.011.143.143 0 01.109.068zm-22.481 10.211a41.113 41.113 0 016.48 2.478l.105.044a1.534 1.534 0 01-.096-.394l-.079-.464c0-.167 0-.333-.052-.491v-.254a1.9 1.9 0 01-1.393-.718 5.16 5.16 0 01-.875-2.04 70.21 70.21 0 01-.675-2.785 54.87 54.87 0 01-.578-3.126 21.816 21.816 0 01-.359-3.109.148.148 0 01.149-.149c.04 0 .077.015.105.043a.15.15 0 01.044.106c.236.954.35 1.944.525 2.916.176.972.394 1.935.613 2.907.219.972.465 1.918.727 2.873.263.954.482 2.084 1.463 2.364 2.023.569 1.112-3.976 1.024-4.86-.201-2.067-.332-4.169-.691-6.2 0-.088.113-.123.131 0 .438 1.874.946 3.713 1.278 5.613a43.7 43.7 0 01.386 2.811 4.378 4.378 0 01-.193 2.417 1.76 1.76 0 01-.545.665 1.762 1.762 0 01-.795.325l.07.219c0 .149.097.298.132.446l.105.465c.07.177.094.37.07.56a.243.243 0 01-.105.123c.875.376 1.751.753 2.627 1.147a21.26 21.26 0 013.109 1.515c.122.052 0 .21-.088.193a24.193 24.193 0 01-3.258-1.183c-1.085-.42-2.154-.875-3.222-1.305a39.915 39.915 0 01-6.13-2.872c-.202-.158-.123-.306-.009-.28z" fill="#263238"/><path d="M263.02 282.799a392.594 392.594 0 017.102-16.43 367.135 367.135 0 017.882-16.097c1.2-2.303 2.295-4.633 4.712-5.876a17.34 17.34 0 013.503-1.235c1.41-.377 2.82-.736 4.23-1.095 11.499-2.907 23.121-5.298 34.532-8.504 5.71-1.602 11.386-3.406 16.894-5.561 4.484-1.751 8.96-3.792 12.69-6.884a20.563 20.563 0 004.554-5.184c1.419-2.374 4.721-8.819-.175-28.332 0-.087.097-.149.114-.061 3.915 13.899 3.083 21.465 2.373 24.224a17.792 17.792 0 01-3.205 6.472c-2.89 3.687-7.006 6.253-11.149 8.25a115.766 115.766 0 01-15.475 5.798c-11.385 3.564-23.05 6.06-34.646 8.81a560.508 560.508 0 00-8.609 2.111c-2.566.657-5.552 1.173-7.391 3.258a17.027 17.027 0 00-2.137 3.503 190.634 190.634 0 00-2.041 3.993 421.06 421.06 0 00-4.055 8.233 428.781 428.781 0 00-14.231 33.323c-.534 1.393-1.051 2.794-1.594 4.195a.083.083 0 01-.044.046.089.089 0 01-.113-.035.087.087 0 01-.009-.063c1.847-5.675 4.046-11.289 6.288-16.859z" fill="#263238"/><path d="M275.58 270.117a161.637 161.637 0 016.016-15.124c1.121-2.216 2.391-4.852 4.843-5.798a34.29 34.29 0 014.02-1.104c1.428-.359 2.846-.709 4.274-1.05a285.202 285.202 0 018.591-1.918 97.538 97.538 0 019.634-1.647c.079 0 .079.114 0 .131-2.741.797-5.544 1.402-8.32 2.076-2.776.674-5.43 1.279-8.136 1.944a559.332 559.332 0 00-8.329 2.102 6.82 6.82 0 00-3.249 1.752c-1.243 1.217-8.469 17.778-9.161 19.118-.157.368-.297-.079-.183-.482zm-16.902-48.334a87.02 87.02 0 0115.387-7.356c4.037-1.437 8.189-2.54 12.322-3.661a283.013 283.013 0 0125.775-5.807c2.469-.438 4.945-.855 7.426-1.252a65.745 65.745 0 017.296-.876.09.09 0 01.038.029.081.081 0 01.015.046.08.08 0 01-.053.074c-2.146.534-4.379.876-6.534 1.235-2.154.359-4.3.753-6.445 1.165a393.44 393.44 0 00-12.822 2.68c-8.434 1.918-16.833 4.177-25.126 6.621-6.901 2.031-13.417 5.788-17.122 7.444a.189.189 0 01-.157-.342z" fill="#263238"/><path d="M329.991 142.061c-4.379 17.323-8.005 30.757-12.865 34.155-3.932 2.698-28.901 8.627-33.788 9.143-1.927.202-3.503.333-4.668.438-2.82.245-7.882-18.277-5.894-20.598.447-.526 2.295-.972 4.896-1.358 8.758-1.287 27.053-1.891 28.069-2.899 1.016-1.007 6.454-8.547 13.793-18.391 5.071-6.814 8.276-8.907 10.063-7.085 1.007.981 1.235 3.249.394 6.595z" fill="#fff"/><path d="M283.338 185.315a73.328 73.328 0 01-8.994 3.503c-2.444.675-9.555 2.418-10.562-.21-.683-1.751 3.372-3.301 6.218-4.44 1.498-.596 3.363-2.128 2.934-3.092-.745-1.69-4.598-.07-7.147 1.358-4.921 2.767-11.49 7.768-14.432 5.255-1.113-.955.219-2.628 2.154-4.274-3.127 1.9-6.463 3.442-7.742 2.434a1.628 1.628 0 01-.324-2.224 2.175 2.175 0 01-2.391-.412c-.998-1.068-.482-2.627.648-4.203a1.233 1.233 0 01-.876-.613c-2.084-3.293 8.758-12.48 12.463-13.304 10.921-2.425 22.481-1.304 22.481-1.304 4.186 3.529 5.579 21.517 5.57 21.526z" fill="#fff"/><path d="M267.486 174.929a17.713 17.713 0 00-7.295 2.68c-2.575 1.707-4.624 4.063-7.006 5.998-.07.053 0 .149.079.097 1.121-1.007 2.347-1.901 3.503-2.855 1.156-.955 2.242-1.918 3.433-2.768a17.519 17.519 0 017.277-3.108s.035-.053.009-.044zm-1.962-4.651a43.985 43.985 0 00-8.486 2.803c-2.925 1.436-5.255 3.809-7.506 6.13a117.597 117.597 0 00-3.993 4.213c-.062.052 0 .157.078.096a155.938 155.938 0 017.129-6.884 23.123 23.123 0 017.769-4.738c1.646-.604 3.336-1.068 5.027-1.541.026-.035.017-.088-.018-.079zm-2.985-4.081c-2.793.525-5.254.981-7.706 2.426a40.112 40.112 0 00-7.601 6.358c-1.235 1.287-2.435 2.627-3.609 3.949-.043.053.053.14.097.088a91.309 91.309 0 018.608-8.267 18.156 18.156 0 014.782-3.013 33.3 33.3 0 015.429-1.523s.009-.018 0-.018z" fill="#263238"/><path d="M282.884 163.079l3.634 22.552s25.95-3.731 32.15-9.152c6.201-5.421 10.553-27.334 12.261-35.627 1.708-8.294-2.855-9.546-9.537-1.673-6.682 7.873-15.519 20.949-16.185 21.439-.665.491-22.323 2.461-22.323 2.461z" fill="#9468B4"/><path opacity=".1" d="M331.077 135.913h-6.445l.376-.298h5.982c.035.097.065.197.087.298zm.166 2.75a1.55 1.55 0 010 .289h-9.633l.254-.289h9.379zm-.49 3.039c0 .096 0 .201-.062.297h-11.612c.073-.103.152-.203.237-.297h11.437zm-.632 3.047c0 .097-.043.193-.061.289h-13.364l.228-.289h13.197zm-.647 3.039c0 .097-.053.202-.07.298h-15.002c.07-.096.149-.192.219-.298h14.853zm-.692 3.048c0 .097-.053.193-.07.289H312.16l.21-.289h16.412zm-.737 3.039c0 .096-.053.201-.07.298h-18.058l.228-.298h17.9zm-.786 3.048c0 .096-.053.192-.07.289h-19.424l.21-.289h19.284zm-.841 3.039c0 .096-.062.201-.088.298h-20.791l.237-.298h20.642zm-.937 3.048c0 .096-.061.192-.088.289h-42.475v-.219l.718-.07h41.845zm-1.034 3.038l-.105.298h-40.934l-.044-.298h41.083zm-1.2 3.022c0 .096-.079.192-.122.289h-39.227l-.044-.289h39.393zm-1.427 3.065c-.05.102-.105.202-.166.298H284.39l-.044-.298h37.474zm-1.934 3.065l-.245.289h-34.76l-.044-.289h35.049zm-3.952 3.022l-.622.298h-29.917l-.043-.298h30.582zm-8.381 3.048l-1.042.289H285.86v-.289h21.693zm-13.25 3.038l-1.629.298h-6.322v-.298h7.951z" fill="#000"/><path d="M284.135 187.856l6.324-1.139-4.388-25.748-6.131.709 4.195 26.178z" fill="#9468B4"/><path d="M288.568 173.799c-.35-1.752-.701-3.547-1.068-5.316-.368-1.769-.666-3.564-1.165-5.255 0-.079-.158-.07-.149 0 .158 1.752.508 3.503.797 5.185.289 1.681.622 3.643.946 5.465.63 3.59 1.418 7.146 2.259 10.702 0 .087.14.052.132 0-.5-3.643-1.06-7.217-1.752-10.781z" fill="#263238"/><path d="M314.296 173.65l-2.233 22.158s44 4.011 55.008 2.75c0 0-11.262-50.656-23.707-63.057-6.227-6.183-13.181-5.395-17.428-.692-1.078 1.191-13.715 19.521-14.836 26.361-.964 6.061 3.196 12.48 3.196 12.48z" fill="#9468B4"/><path d="M320.245 143.365l-.07-.043c-.876 1.322-1.751 2.679-2.531 4.046.254-.657.508-1.305.797-1.945 0-.078-.088-.148-.123-.07-.446.99-.875 1.953-1.331 2.952-.07.166-.131.333-.192.499l-.491.823a68.944 68.944 0 00-3.433 6.332c-2.259 4.913-2.627 7.252-1.41 11.595a17.965 17.965 0 002.794 6.078 38.502 38.502 0 00-.578 5.343c0 .061.192 0 .21-.044.37-1.734.63-3.489.779-5.255 0-.07-3.406-7.199-3.109-11.078.307-4.038 2.566-7.751 4.379-11.281a.04.04 0 00.016.013.045.045 0 00.019.005.046.046 0 00.02-.005.037.037 0 00.015-.013c.079-.201.167-.394.246-.586l.21-.403c1.226-2.339 2.548-4.633 3.783-6.963z" fill="#263238"/><path opacity=".1" d="M339.974 132.865h-11.77l.455-.289h10.807l.508.289zm3.764 3.048H325.12l.219-.298h18.11l.289.298zm2.42 3.038h-23.103l.201-.289h22.77l.132.289zm1.918 3.048h-27.079l.193-.298h26.711c.064.096.122.196.175.298zm1.646 3.039h-30.653l.184-.289h30.329l.14.289zm1.47 3.012h-33.98c.061-.096.114-.201.184-.298h33.682l.114.298zm1.358 3.074h-37.089l.158-.289h36.782c.062.096.106.193.149.289zm1.254 3.057h-39.971c.053-.096.096-.192.158-.297h39.716c0 .087.062.192.097.297zm1.172 3.031h-42.58l.131-.289h42.344l.105.289zm1.122 3.047h-44.787c.018-.102.047-.202.087-.297h44.595l.105.297zm1.112 3.039h-46.259v-.289h46.119a.721.721 0 00.14.289zm.981 3.048h-46.872c0-.096-.044-.201-.061-.297h46.828l.105.297zm.973 3.039h-46.942l-.105-.289h46.96c.026.097.061.193.087.289zm.945 3.048h-46.513l-.149-.298h46.574l.088.298zm.919 3.039h-46.916v-.289h46.802c.053.096.079.193.114.289zm.878 3.048h-48.098v-.298h47.984c.061.096.087.201.114.298zm.857 3.038H313.5v-.289h49.158l.105.289zm.832 3.048h-50.402v-.298h50.323l.079.298zm.804 3.039h-51.513v-.289h51.408l.105.289zm.781 3.048h-52.635v-.298h52.547l.088.298zm.789 3.039h-53.695v-.289h53.563c.044.096.07.192.132.289zm.691 3.047h-43.036l-3.687-.297h46.652c.027.105.053.201.071.297z" fill="#000"/><path d="M332.689 131.315c-4.887 1.603-10.264 9.37-9.423 10.509.841 1.138 4.703-1.463 4.703-1.463s0 3.407 2.093 3.696c2.093.289 5.832-3.862 6.883-7.006 1.559-4.72-.105-7.102-4.256-5.736z" fill="#fff"/><path d="M336.771 133.399c-.236.876-4.615 6.402-8.609 6.069-1.296-.114-1.016-7.234-1.016-7.234l-.096-.534-1.366-7.427 8.854-5.254 1.278-.692s.246 2.058.526 4.624v.368c.026.136.043.273.052.411.053.386.097.78.132 1.165s.061.587.079.876c.017.289.052.622.078.928.185 2.229.214 4.467.088 6.7z" fill="#fff"/><path d="M336.324 122.959a15.146 15.146 0 01-9.274 8.758l-1.366-7.444 8.853-5.254 1.279-.692s.228 2.066.508 4.632z" fill="#263238"/><path d="M315.104 114.123c.184 13.259 8.145 14.652 11.009 14.608 2.627 0 11.429-.499 12.62-13.706 1.191-13.207-5.036-17.323-10.974-17.516-5.938-.192-12.839 3.355-12.655 16.614z" fill="#fff"/><path d="M317.012 110.392c.296-.046.588-.11.876-.192.325-.032.632-.167.875-.386a.472.472 0 000-.569 1.174 1.174 0 00-1.156-.263c-.423.069-.806.29-1.077.622a.502.502 0 00.194.749.5.5 0 00.288.039zm8.714 0a7.713 7.713 0 01-.876-.175 1.546 1.546 0 01-.875-.35.472.472 0 010-.578 1.167 1.167 0 011.147-.289c.425.052.813.265 1.086.595a.508.508 0 01.032.564.494.494 0 01-.514.233zm-1.725 3.346s.07.044.07.079c-.043.876.071 1.944.876 2.25v.053c-1.016-.149-1.13-1.532-.946-2.382z" fill="#263238"/><path d="M324.807 112.8c1.454-.096 1.541 2.82.193 2.908-1.349.087-1.401-2.829-.193-2.908z" fill="#263238"/><path d="M325.393 112.941c.263.157.517.437.823.464.307.026.613-.289.876-.587h.052c0 .56-.175 1.138-.77 1.244-.596.105-.955-.395-1.104-.955-.07-.088.018-.228.123-.166zm-6.586.771s-.07.052-.07.087c.062.876 0 1.944-.823 2.268v.053c.998-.175 1.095-1.559.893-2.408z" fill="#263238"/><path d="M317.967 112.8c-1.462-.052-1.462 2.855-.114 2.908 1.349.052 1.331-2.855.114-2.908z" fill="#263238"/><path d="M317.355 113.02c-.228.149-.456.429-.736.446-.28.018-.552-.289-.753-.595h-.044c0 .552.167 1.138.701 1.244.534.105.876-.377.981-.938.026-.087-.053-.245-.149-.157zm6.926 7.882c-.193.227-.394.534-.718.586a2.36 2.36 0 01-.981-.149s-.061 0 0 0a1.19 1.19 0 001.173.403.971.971 0 00.657-.875c-.026.035-.096.035-.131.035zm-3.853-3.18c-.084.66-.134 1.323-.149 1.988 0 .061.149.088.368.096a3.014 3.014 0 002.916-1.182c.044-.061 0-.122-.096-.087a4.57 4.57 0 01-2.75.875c-.044-.175.359-2.303.263-2.312a5.663 5.663 0 00-1.445.351c.263-2.82.972-5.587 1.191-8.399a.091.091 0 00-.023-.052.093.093 0 00-.05-.03.092.092 0 00-.102.039 46.04 46.04 0 00-1.655 9.002c.008.324 1.304-.175 1.532-.289z" fill="#263238"/><path d="M320.673 119.378c.341.531.811.968 1.366 1.269.31.151.658.203.998.149.745-.122.824-.788.745-1.366-.05-.3-.133-.593-.245-.876a4.832 4.832 0 01-2.864.824z" fill="#263238"/><path d="M322.04 120.647c.31.151.658.203.998.149.745-.122.824-.788.745-1.366a1.752 1.752 0 00-1.743 1.217z" fill="#FF9BBC"/><path d="M338.119 115.647c-3.415.14-5.202-10.247-5.412-11.526.088.815.543 5.115.219 5.308a3.238 3.238 0 01-1.077-.123 11.511 11.511 0 00-.245-1.533 6.16 6.16 0 00-.105 1.472l-.649-.132a12.297 12.297 0 00-.569-3.249c-.131-.394-.105 1.445-.368 3.074a41.077 41.077 0 00-9.038-.876c-.876 0-1.585.097-2.224.176-.105-1.27-.062-2.628-.132-2.339a12.314 12.314 0 00-.35 2.409c-.35.043-.674.096-.963.149-.228-1.796.411-4.73.157-4.266a12.742 12.742 0 00-1.401 4.555c-1.208.332-1.524.595-1.585.28a15.044 15.044 0 013.845-9.634c3.949-4.326 12.366-5.99 17.62-.175 0 0 4.143 2.268 5.08 6.367.937 4.099-.832 10.063-2.803 10.063z" fill="#263238"/><path d="M336.639 116.067s2.461-4.379 4.432-3.564c1.97.814.411 7.006-1.699 8.065a2.243 2.243 0 01-3.109-.875l.376-3.626z" fill="#fff"/><path d="M340.571 114.263s.053.044 0 .061c-1.471.78-2.137 2.286-2.557 3.818a1.235 1.235 0 011.804-.525c.044 0 0 .096 0 .088a1.378 1.378 0 00-1.463.63 6.73 6.73 0 00-.604 1.296c-.061.149-.315.097-.28-.061-.228-1.997 1.025-4.895 3.1-5.307z" fill="#263238"/><path d="M344.128 149.496c-6.594 14.696-18.934 31.09-23.383 31.108-9.634 0-33.087-11.771-39.647-17.516-2.172-1.909 8.53-18.698 11.587-19.127 3.056-.429 25.047 13.277 26.816 12.603 1.55-.605 12.139-9.266 17.306-13.698 10.281-8.828 9.257 2.33 7.321 6.63z" fill="#fff"/><path d="M285.643 166.223c-7.251-5.088-16.587-10.982-20.73-20.081a4.992 4.992 0 01-.385-3.214c-1.927-4.047-.596-6.175-.596-6.175-.639-4.317 1.025-6.297 1.025-6.297s-2.216-4.781.447-6.594c2.977-2.041 5.5 5.062 9.283 8.118 8.653 7.007 22.911 14.547 25.608 16.316l-14.652 17.927z" fill="#fff"/><path d="M278.592 145.694a71.36 71.36 0 01-7.225-6.559 71.563 71.563 0 01-6.296-8.652.087.087 0 00-.104-.017.089.089 0 00-.039.04.087.087 0 00-.006.055 37.817 37.817 0 0013.574 15.247c.131.088.219-.009.096-.114zm-3.468 5.859c-2.33-2.198-6.385-6.068-11.096-14.835h-.053a33.835 33.835 0 0011.044 14.888c.148.158.253.07.105-.053zm-1.927 3.083c-3.809-3.879-5.718-6.804-8.635-11.7h-.052c2.723 5.912 4.378 7.751 8.573 11.823.14.166.263.026.114-.123z" fill="#263238"/><path d="M285.641 139.766c1.489.464 1.752-.315.175-2.627-1.576-2.313-9.712-10.011-6.778-12.62 2.934-2.61 14.266 8.442 16.587 12.453 2.321 4.011 4.668 11.298 4.668 11.298-2.636-1.682-9.432-5.22-14.652-8.504z" fill="#fff"/><path d="M302.422 148.051l-10.965 22.035s23.016 13.784 30.486 11.061c7.47-2.724 20.721-25.915 22.77-32.448 2.05-6.533 1.533-13.268-7.479-6.647s-17.016 13.881-17.796 13.969c-.779.087-17.016-7.97-17.016-7.97z" fill="#9468B4"/><path d="M302.422 148.051l-10.965 22.035s23.016 13.784 30.486 11.061c7.47-2.724 20.721-25.915 22.77-32.448 2.05-6.533 1.533-13.268-7.479-6.647s-17.016 13.881-17.796 13.969c-.779.087-17.016-7.97-17.016-7.97z" fill="#9468B4"/><path opacity=".1" d="M345.613 141.999h-8.302l.402-.297h7.882l.018.297zm-.026 2.751c-.006.097-.02.194-.043.289h-12.261l.368-.289h11.936zm-.638 3.038c0 .097-.053.202-.088.298h-15.43l.367-.298h15.151zm-36.853 3.048l.587.289h-7.786l.141-.289h7.058zm35.81 0l-.132.289h-18.092l.35-.289h17.874zm-29.47 3.039l.648.297h-15.676l.149-.297h14.879zm28.061 0l-.175.307h-20.336l.368-.298 20.143-.009zm-1.568 3.047l-.148.289h-42.914l.14-.289h42.922zm-1.674 3.039l-.175.297h-42.729l.148-.297h42.756zm-1.803 3.048l-.167.289h-42.449l.149-.289h42.467zm-1.893 3.04a3.42 3.42 0 01-.192.297h-42.038l.149-.297h42.081zm-1.995 3.021l-.201.289h-41.556l.149-.289h41.608zm-2.208 3.065l-.228.298H295.58l-.534-.298h36.31zm-2.417 3.066l-.245.289h-27.246l-.595-.289h28.086zm-2.811 3.021l-.316.298h-17.646l-.727-.298h18.689zm-4.563 3.047a10.693 10.693 0 01-4.554 0h4.554z" fill="#000"/><path d="M287.666 169.411l5.771 2.829 11.552-23.944-5.185-2.452-12.138 23.567z" fill="#9468B4"/><path d="M299.804 160.189a781.218 781.218 0 002.312-4.896c.762-1.629 1.594-3.257 2.233-4.939 0-.07-.087-.149-.131-.07-.876 1.48-1.664 3.083-2.461 4.633a627.792 627.792 0 00-2.505 4.939c-1.638 3.267-3.144 6.577-4.589 9.932 0 .078.088.122.123.052 1.751-3.179 3.442-6.375 5.018-9.651zm32.718-14.503c-.981.64-12.261 9.844-12.769 10.116-.508.271-1.156-.132-1.681-.386a412.693 412.693 0 01-6.35-3.083c-2.373-1.164-4.633-2.128-7.006-3.293-.079 0-.149.079-.07.123 2.163 1.165 4.107 2.33 6.288 3.459a243.27 243.27 0 006.603 3.302c.824.394 1.673.981 2.531.394 1.008-.692 11.605-9.449 12.568-10.509a.094.094 0 00.002-.05.107.107 0 00-.023-.045.106.106 0 00-.043-.026.094.094 0 00-.05-.002z" fill="#263238"/><path d="M342.428 155.197c-1.515 2.295-2.951 4.651-4.484 6.928a192.259 192.259 0 01-4.826 6.866c-1.664 2.251-3.214 4.282-4.93 6.323a37.894 37.894 0 01-2.803 3.004 10.49 10.49 0 01-3.249 2.303 9.109 9.109 0 01-4.169.482 27.045 27.045 0 01-2.067-.272c-1.418-.332-2.82-.753-4.203-1.199a72.367 72.367 0 01-11.385-4.949c-1.034-.543-2.059-1.103-3.083-1.646-1.025-.543-2.277-1.2-3.363-1.673a7.197 7.197 0 00-.403.736c-.438-.289-5.526-2.68-5.631-2.715.221-.43.411-.875.569-1.331 0-.079 0-.132-.088-.062a8.926 8.926 0 00-.875 1.621s5.981 2.855 6.042 2.82c.062-.035.447-.876.447-.876a70.796 70.796 0 012.838 1.673c.928.578 1.891 1.121 2.846 1.664 1.918 1.068 3.853 2.102 5.85 3.021 3.792 1.752 7.882 3.433 12.086 3.915 1.17.134 2.354.071 3.503-.184 2.689-.473 4.545-2.627 6.279-4.545a120.51 120.51 0 0010.16-13.54c.332-.49.656-.99.98-1.489a37.092 37.092 0 013.425-3.687c.07-.052 0-.149-.097-.087-.797.726-1.602 1.471-2.355 2.259 1.094-1.751 2.145-3.459 3.091-5.255.079-.113-.053-.184-.105-.105z" fill="#263238"/><path d="M131.908 236.654l2.076 12.445 14.082 75.922h2.269l-10.238-75.922-1.515-12.445h-6.674z" fill="#DBDBDB"/><path d="M138.581 236.654h-6.673l2.076 12.444h6.112l-1.515-12.444z" fill="#A6A6A6"/><path d="M87.69 325.021h2.268l14.082-75.922 2.076-12.445h-6.674l-1.515 12.445-10.238 75.922z" fill="#DBDBDB"/><path d="M99.443 236.654l-1.515 12.444h6.112l2.076-12.444h-6.673z" fill="#A6A6A6"/><path d="M45.459 325.021h2.268l14.083-75.922 2.075-12.445h-6.673l-1.515 12.445-10.238 75.922z" fill="#DBDBDB"/><path d="M55.697 249.098h6.113l2.075-12.444h-6.673l-1.515 12.444z" fill="#A6A6A6"/><path d="M49.059 242.496h103.167v-10.851h-38.622l-12.979-75.414H52.991l-3.932 86.265z" fill="#DBDBDB"/><path d="M49.059 242.496h5.622l3.67-86.265h-5.36l-3.932 86.265z" fill="#A6A6A6"/><path d="M145.026 334.146c-1.953.246-55.07-12.147-56.795-13.82-.21-.183 1.664-10.456 1.664-10.456.832-4.204 15.309-38.386 15.309-38.386l34.725 8.565-14.713 31.774s6.621 4.484 12.304 8.757a75.628 75.628 0 017.191 5.754c1.707 2.023 2.25 7.585.315 7.812z" fill="#fff"/><path d="M145.175 334.295c-2.014.21-55.56-11.788-57.303-13.539-.674-.657.622-8.548 2.461-18.041 0-.097 0-.193.062-.298l34.628 7.356-.14.587s18.435 13.75 20.143 15.878c1.708 2.128 2.163 7.856.149 8.057z" fill="#9468B4"/><path d="M145.035 332.089c-8.977-2.242-45.392-10.449-54.439-11.99-.07 0-.087 0 0 .061 8.846 2.418 45.331 10.326 54.413 12.077.184.035.263-.096.026-.148zm-16.184-21.353c-3.407-1.453-7.882-1.882-11.157 0-.123.071 0 .254.105.246a50.763 50.763 0 0110.938.166.239.239 0 00.187-.17.239.239 0 00-.073-.242zm2.215 2.12c-3.407-1.463-7.882-1.892-11.148 0-.132.07 0 .245.096.236a51.346 51.346 0 0110.938.175.23.23 0 00.118-.058.233.233 0 00.067-.243.231.231 0 00-.071-.11zm2.215 2.119c-3.406-1.462-7.881-1.891-11.148 0-.131.079 0 .254.105.246a51.207 51.207 0 0110.93.175.24.24 0 00.196-.173.233.233 0 00-.083-.248z" fill="#263238"/><path d="M135.209 304.037c-.964-2.233-3.757-1.953-5.526-1.042a19.505 19.505 0 00-7.295 6.901.106.106 0 00-.012.043.097.097 0 00.008.045.122.122 0 00.026.038c.011.01.025.018.039.022a.456.456 0 00.081.403.44.44 0 00.375.167c3.179-.429 6.62-.491 9.571-1.883 1.726-.806 3.644-2.584 2.733-4.694zm-7.619 4.939c-1.559.254-3.118.42-4.668.727a56.255 56.255 0 014.379-3.932 19.408 19.408 0 012.338-1.612c1.27-.726 5.911-1.83 4.379 1.918-.823 2.067-4.572 2.61-6.428 2.899z" fill="#263238"/><path d="M113.568 306.944c2.627 1.901 6.025 2.627 9.073 3.591a.452.452 0 00.397-.095.443.443 0 00.154-.378.1.1 0 00.045-.012.09.09 0 00.033-.031.098.098 0 00.016-.043.087.087 0 00-.006-.045 19.467 19.467 0 00-5.92-8.119c-1.559-1.217-4.256-1.996-5.614 0-1.357 1.997.246 4.02 1.822 5.132zm-1.033-2.89c-.789-3.958 3.573-2.023 4.694-1.086a21.79 21.79 0 012.005 2.015c1.314 1.462 2.4 3.082 3.556 4.659-1.463-.578-2.969-1.034-4.458-1.559-1.769-.64-5.36-1.839-5.797-4.029z" fill="#263238"/><path d="M126.591 312.698l-36.862-8.757s31.704-72.533 28.997-76.115c-1.348-1.795-35.67-2.321-46.582-11.569-14.18-12.016-4.668-30.363-4.668-30.363l38.333-1.139s-.465 8.005 1.024 9.213c.99.806 46.662 4.642 51.671 20.03 6.157 18.899-31.913 98.7-31.913 98.7z" fill="#37474F"/><path d="M126.583 306.953c-.963-.455-10.509-3.249-12.655-3.801-4.308-1.103-8.635-2.18-12.979-3.17-2.26-.517-7.111-1.647-7.409-1.594-.14 0-.166.263-.044.307 4.213 1.392 8.478 2.566 12.743 3.748 4.265 1.182 18.952 4.72 20.239 4.808.123.009.237-.228.105-.298zm-1.296-82.279a5.803 5.803 0 00-2.89-.876l-16.596-2.785c-5.185-.876-10.387-1.638-15.537-2.628-4.273-.823-8.608-1.926-12.304-4.238a17.834 17.834 0 01-7.532-9.862 31.85 31.85 0 01-.98-12.628c.104-1.034.288-2.059.48-3.074a.062.062 0 00-.017-.044.064.064 0 00-.043-.018.064.064 0 00-.044.018.063.063 0 00-.018.044c-1.401 7.882-1.524 16.963 4.38 23.217 2.872 3.047 6.813 4.843 10.832 5.999a120.995 120.995 0 0013.943 2.706l16.64 2.776c2.627.438 5.368.788 8.005 1.34a2.774 2.774 0 011.445.631 2.07 2.07 0 01.236 1.918 45.684 45.684 0 01-.998 3.871c-3.022 10.308-26.274 64.904-26.852 66.042-.061.114.132.211.193.088 5.079-9.038 22.7-52.442 26.046-62.181a61.993 61.993 0 002.18-7.584c.149-.99.237-2.041-.569-2.732z" fill="#263238"/><path d="M199.851 336.468c-1.857.63-55.026-.123-57.049-1.419-2.216-2.111-3.153-52.267-3.153-52.267l34.156-.28 2.137 36.012s7.383 3.074 13.802 6.13a75.12 75.12 0 018.206 4.213c2.111 1.655 3.757 6.997 1.901 7.611z" fill="#fff"/><path d="M200.936 336.502c-1.918.64-56.794.377-58.879-.963-.797-.49-1.226-8.477-1.462-18.146v-.298l35.408-.228v.596s20.966 9.485 23.094 11.201c2.128 1.717 3.766 7.217 1.839 7.838z" fill="#9468B4"/><path d="M200.331 334.374c-9.257-.263-46.583-.49-55.752-.053-.07 0-.07.053 0 .053 9.161.473 46.495.394 55.752.158.193-.009.193-.149 0-.158zm-20.397-17.384c-3.635-.701-8.092-.167-10.886 2.417-.105.096 0 .245.158.21a51.21 51.21 0 0110.71-2.172.232.232 0 00.164-.06.229.229 0 00-.146-.395zm2.621 1.594c-3.635-.701-8.092-.167-10.886 2.417-.105.096 0 .245.158.21a51.338 51.338 0 0110.71-2.172.226.226 0 00.237-.219.229.229 0 00-.219-.236zm2.617 1.594c-3.634-.701-8.092-.166-10.886 2.417-.105.096 0 .245.158.21a51.292 51.292 0 0110.719-2.172.22.22 0 00.162-.063.23.23 0 00.055-.247.235.235 0 00-.121-.126.239.239 0 00-.087-.019z" fill="#263238"/><path d="M184.682 309.081c-1.419-1.979-4.09-1.103-5.614.167a19.359 19.359 0 00-5.648 8.302c0 .07 0 .114.087.131a.452.452 0 00.171.37.46.46 0 00.399.085c3.012-1.103 6.366-1.9 8.95-3.888 1.532-1.156 3.021-3.301 1.655-5.167zm-6.384 6.455c-1.463.578-2.951 1.077-4.379 1.707 1.104-1.611 2.137-3.266 3.398-4.773.6-.735 1.249-1.428 1.944-2.075 1.086-.981 5.386-3.048 4.72.937-.35 2.242-3.905 3.52-5.657 4.204h-.026z" fill="#263238"/><path d="M164.197 316.551c2.995 1.296 6.446 1.244 9.633 1.568a.44.44 0 00.367-.177.437.437 0 00.071-.401.098.098 0 00.04-.022.1.1 0 00.025-.039c.005-.014.007-.03.005-.045a.095.095 0 00-.017-.043 19.416 19.416 0 00-7.514-6.664c-1.752-.876-4.598-1.042-5.482 1.217-.885 2.259 1.129 3.853 2.872 4.606zm-1.629-2.627c-1.62-3.695 3.057-2.741 4.379-2.058.831.456 1.63.968 2.391 1.533a57.343 57.343 0 014.475 3.792c-1.559-.263-3.127-.377-4.685-.578-1.892-.21-5.666-.622-6.56-2.663v-.026z" fill="#263238"/><path d="M177.888 319.031h-38.579s.491-71.35-2.531-75.213c-4.028-5.149-60.429-5.027-72.523-21.815-10.86-15.081-1.69-36.416-1.69-36.416l42.703-1.269a87.62 87.62 0 01-3.959 13.434s51.452 9.485 65.859 25.24c9.73 10.659 10.72 96.039 10.72 96.039z" fill="#37474F"/><path d="M108.821 194.844c-1.239.274-2.45.664-3.617 1.165a45.144 45.144 0 00-3.616 1.568 69.875 69.875 0 00-6.752 3.818.06.06 0 00-.016.079c.007.013.02.023.034.028.014.004.03.004.043-.002 2.312-1.2 4.703-2.277 7.085-3.31l3.45-1.48a37.891 37.891 0 003.503-1.542c.131-.087.053-.35-.114-.324z" fill="#263238"/><path d="M106.264 184.317c-.491 1.953-.92 3.915-1.48 5.841-.254.876-.508 1.752-.876 2.627-.28.727-.709 1.55-1.55 1.752-.841.201-1.244-.648-1.165-1.445.079-.797.315-1.752.49-2.627.176-.876.403-2.015.587-3.03.097-.508.193-1.016.28-1.524 0-.132.114-1.104.184-1.375 0 0 0 .044.053 0a.098.098 0 00.061-.053c0-.078 0-.087-.052-.149a.087.087 0 00-.044-.013.084.084 0 00-.044.013c-.184.097-.201.351-.254.535-.157.499-.324.989-.464 1.488a80.237 80.237 0 00-.771 2.794c-.236.937-.464 1.883-.7 2.82a4.428 4.428 0 00-.184 2.163 1.649 1.649 0 001.532 1.244c-.04.061-.075.125-.105.192-.087.184-.149.394-.219.587-.07.193-.14.403-.201.613a1.661 1.661 0 00-.053.298v.333c0 .113.219.28.307.113.087-.166.123-.175.175-.271.059-.105.106-.217.14-.333.07-.193.123-.385.175-.587.053-.201.114-.394.149-.595.035-.202 0-.237 0-.359a2.233 2.233 0 001.121-.421 3.676 3.676 0 001.165-1.751c.298-.814.525-1.655.753-2.487a37.188 37.188 0 001.244-6.27c.113-.272-.202-.351-.254-.123zm-25.406 4.764c-.176.973-.29 1.945-.508 2.899a29.171 29.171 0 01-.78 2.794c-.28.885-.68 1.728-1.19 2.504a9.401 9.401 0 01-1.892 1.927 16.305 16.305 0 01-4.58 2.548c-.831.3-1.68.549-2.54.745-.456.096-.876.175-1.366.236-.379.01-.751.096-1.095.254a.218.218 0 00-.078.297c.018.033.045.06.078.08.657.2 1.355.221 2.023.061.73-.069 1.453-.195 2.163-.377a15.835 15.835 0 004.09-1.751 12.937 12.937 0 003.415-2.785 9.698 9.698 0 001.83-4.002c.451-1.776.652-3.607.596-5.438a.102.102 0 00-.037-.034.102.102 0 00-.049-.01.09.09 0 00-.047.016.093.093 0 00-.034.036z" fill="#263238"/><path d="M144.86 269.006a447.886 447.886 0 00-1.507-18.138c-.157-1.488-.306-2.977-.49-4.466a14.052 14.052 0 00-.753-3.389c-.876-2.269-2.776-3.416-5.062-3.994-2.698-.683-5.491-1.086-8.241-1.533a308.59 308.59 0 00-8.434-1.252c-5.701-.797-11.385-1.533-17.095-2.487a135.659 135.659 0 01-16.772-3.766c-5.044-1.524-10.211-3.407-14.257-6.901-8.688-7.523-9.003-20.143-7.944-30.653.15-1.497.333-2.977.517-4.466 0-.079-.114-.105-.123 0-.692 5.938-1.488 11.919-.875 17.901a29.153 29.153 0 004.746 13.872c2.943 4.213 7.304 6.937 12.007 8.837a94.753 94.753 0 0016 4.607c11.272 2.355 22.771 3.354 34.156 5.254 1.402.246 2.794.499 4.187.771 1.293.189 2.559.527 3.774 1.007 2.628 1.147 3.293 3.652 3.609 6.244.744 6.008 1.243 12.06 1.681 18.094.876 12.165 1.34 24.399 1.314 36.599v9.835c0 .132.21.123.21 0 .28-12.252.123-29.811-.648-41.976zm31.222 44.314a23.123 23.123 0 00-3.196-.271c-1.121-.061-2.251-.123-3.372-.167a188.023 188.023 0 00-6.63-.157c-4.457 0-8.906 0-13.364.096-2.321.053-7.295.149-7.576.272-.131.061-.096.297 0 .306 4.379.315 8.846.412 13.268.517 4.423.105 8.846.201 13.269.087 1.217 0 2.443-.087 3.669-.14 1.294.016 2.588-.06 3.871-.227.158-.062.21-.289.061-.316zM101.58 197.875a143.856 143.856 0 0123.295 4.781 162.326 162.326 0 0122.482 8.128c4.09 1.83 8.039 3.879 11.963 6.042.079 0 0 .149-.07.114a182.635 182.635 0 00-21.895-9.537 177.452 177.452 0 00-22.77-6.603c-4.379-.946-8.758-1.682-13.137-2.409-.245-.044-.166-.543.132-.516z" fill="#263238"/><path d="M139.142 259.398c-.28-4.195-.709-8.381-1.392-12.523-.281-1.682-.36-3.845-2.111-4.677-.823-.385-17.165-3.223-19.504-3.179-.105 0-.157.157-.052.201.105.044 15.764 3.03 17.717 3.503a3.036 3.036 0 012.18 1.13c.38.85.606 1.76.666 2.689a171.664 171.664 0 012.163 24.609c.059 2.277.1 4.557.123 6.84 0 2.339-.079 4.712.096 7.05 0 .051.02.1.057.136a.189.189 0 00.136.057.193.193 0 00.193-.193c.175-2.128.113-4.282.122-6.419.009-2.137 0-4.274 0-6.411-.009-4.283-.105-8.556-.394-12.813z" fill="#263238"/><path d="M104.583 143.97c3.634 16.946 4.431 29.181 9.169 32.404 3.819 2.627 9.222 4.493 14.783 5.85a138.865 138.865 0 0018.059 2.925c1.866.193 3.424.324 4.537.421 2.732.227 7.566-17.752 5.666-19.994-.438-.508-2.233-.937-4.764-1.305-8.504-1.226-25.284-1.752-26.274-2.768-.989-1.016-7.785-12.637-13.706-23.532-5.666-10.404-9.774-4.764-7.47 5.999z" fill="#fff"/><path d="M145.666 183.661a65.69 65.69 0 008.092 3.152c2.207.596 8.6 2.137 9.494-.219.613-1.611-3.039-2.96-5.596-3.967-1.349-.534-3.031-1.909-2.628-2.776.666-1.515 4.134-.07 6.428 1.209 4.432 2.469 10.352 6.944 12.988 4.676.999-.876-.201-2.364-1.953-3.836 2.829 1.699 5.833 3.074 7.007 2.172a1.482 1.482 0 00.289-2.005 1.973 1.973 0 002.154-.368c.876-.964.42-2.356-.596-3.775.17-.024.332-.087.473-.185.142-.097.259-.225.342-.375 1.865-2.952-7.882-11.184-11.236-11.911a74.381 74.381 0 00-20.222-1.121c-3.836 3.135-5.045 19.32-5.036 19.329z" fill="#fff"/><path d="M159.89 174.324c2.342.3 4.588 1.117 6.576 2.391 2.312 1.524 4.16 3.634 6.297 5.368.061 0 0 .132-.07.088-1.007-.876-2.119-1.699-3.162-2.557-1.042-.859-2.014-1.752-3.091-2.479a15.907 15.907 0 00-6.55-2.776s-.027-.035 0-.035zm1.751-4.203a39.557 39.557 0 017.636 2.487c2.627 1.288 4.721 3.416 6.77 5.465a113.286 113.286 0 013.599 3.774c.053.053 0 .14-.07.088a134.79 134.79 0 00-6.419-6.13 21.007 21.007 0 00-7.006-4.23c-1.48-.534-3.004-.955-4.519-1.375-.026-.044-.017-.088.009-.079zm2.679-3.678c2.514.473 4.703.875 6.936 2.163a35.689 35.689 0 016.848 5.692 120.894 120.894 0 013.258 3.503c0 .044 0 .123-.087.07a83.819 83.819 0 00-7.759-7.4 16.415 16.415 0 00-4.309-2.688 30.418 30.418 0 00-4.887-1.358s-.008.018 0 .018z" fill="#263238"/><path d="M142.137 185.78l8.337-22.166s-22.849-1.392-24.303-2.365c-1.454-.972-8.758-14.984-14.293-24.408-4.379-7.4-9.949-7.006-7.68 7.795 2.391 15.58 4.379 27.841 8.232 31.528 6.454 6.104 29.707 9.616 29.707 9.616z" fill="#9468B4"/><path opacity=".1" d="M142.137 185.78l8.337-22.166s-22.849-1.392-24.303-2.365c-1.454-.972-8.758-14.984-14.293-24.408-4.379-7.4-9.949-7.006-7.68 7.795 2.391 15.58 4.379 27.841 8.232 31.528 6.454 6.104 29.707 9.616 29.707 9.616z" fill="#000"/><path d="M141.917 174.132a271.745 271.745 0 001.936-5.255c.648-1.813 1.147-3.678 1.848-5.465 0-.078-.096-.105-.123 0-.665 1.752-1.532 3.503-2.251 5.255a247.576 247.576 0 00-2.049 5.176c-1.331 3.503-2.689 7.006-3.774 10.597a.093.093 0 00.002.075c.01.024.03.043.054.052a.105.105 0 00.076-.002.098.098 0 00.051-.055c1.568-3.363 2.899-6.892 4.23-10.378zm-17.927 7.532c-4.782-1.471-9.249-3.346-11.561-5.544-3.827-3.643-5.841-15.904-8.232-31.528-1.822-11.823 1.401-14.451 5.001-11.236l14.792 48.308z" fill="#263238"/><path d="M112.299 191.534c-1.323 1.042-53.344 1.103-53.563.727-.587-.999 14.012-48.3 36.327-62.82 3.933-2.558 9.87-.71 12.428 1.34 1.278 1.024 4.957 8.758 5.412 15.028.455 6.271.228 45.059-.604 45.725z" fill="#9468B4"/><path d="M181.46 121.042s4.011-3.065 5.876-.167c1.865 2.899-2.575 5.255-2.575 5.255l-3.301-5.088z" fill="#455A64"/><path d="M155.116 145.258l-4.913.446-1.629.158.806-1.419 2.435-4.291 29.776-19.206 3.293 5.106-29.776 19.214.008-.008z" fill="#455A64"/><path d="M150.185 145.713l-1.621.149.806-1.419.815 1.27zm33.997-18.576l-3.853-5.964 1.182-.771 3.854 5.973-1.183.762zm-1.312.841l-3.853-5.964 1.182-.762 3.862 5.964-1.191.762zm-3.856-5.964l1.244 1.927-11.472 5.885-.421-.736 10.649-7.076z" fill="#37474F"/><path d="M92.208 141.273c4.379 14.065 13.811 28.576 22.096 30.293 8.285 1.716 30.118-6.647 36.783-9.485 2.575-1.095-5.001-23.147-7.751-21.956-4.668 2.023-24.977 12.559-26.553 12.06-.999-.315-9.468-7.304-16.544-14.538-9.16-9.397-9.388-.736-8.03 3.626z" fill="#fff"/><path d="M176.731 133.163c.665 2.715-6.175 3.783-6.175 3.783a5.203 5.203 0 012.742 2.26c.981 1.874-1.542 4.247-1.542 4.247a6.337 6.337 0 012.417 2.846c.762 1.901-1.436 4.651-1.436 4.651a5.572 5.572 0 01.604 3.844c-.875 3.504-6.051 5.194-9.344 6.315-3.293 1.121-13.697 1.226-15.677 1.445l-7.4-21.019s13.347-9.231 17.41-10.001c3.434-.718 17.385-2.514 18.401 1.629z" fill="#fff"/><path d="M170.485 136.894a47.085 47.085 0 00-11.385 1.287c-.01-.004-.022-.005-.033-.004a.084.084 0 00-.031.012.075.075 0 00-.022.025.076.076 0 00-.008.033c0 .011.003.022.008.032.005.01.013.019.022.025a.06.06 0 00.031.012c.011.002.023 0 .033-.003 3.67-.78 7.637-.605 11.324-1.235a.096.096 0 00.074-.006.092.092 0 00.048-.056.1.1 0 00-.005-.074.098.098 0 00-.056-.048zm1.06 6.305c-.869.045-1.728.201-2.557.465-.876.227-1.751.472-2.627.726a114.247 114.247 0 00-5.255 1.664c-.078 0-.052.149 0 .123 1.752-.499 3.503-.981 5.325-1.41.893-.216 1.786-.426 2.68-.631a11.436 11.436 0 002.504-.683.128.128 0 00.08-.062.134.134 0 00.012-.1.134.134 0 00-.162-.092zm1.128 7.743a7.02 7.02 0 00-2.277.542l-2.408.736c-1.603.482-3.214.963-4.834 1.384a.075.075 0 00-.033-.004.06.06 0 00-.031.012.059.059 0 00-.022.025.06.06 0 00-.008.032c0 .012.002.023.008.033.005.01.012.019.022.025a.07.07 0 00.064.008c1.646-.429 3.31-.823 4.957-1.261l2.425-.665a6.485 6.485 0 002.146-.789s.035-.078-.009-.078z" fill="#263238"/><path d="M136.883 142.096l8.845 24.075s-25.056 8.609-32.588 6.034c-7.531-2.575-17.384-18.347-20.414-27.657-3.03-9.31-1.822-16.946 9.397-6.183 11.219 10.763 14.319 13.137 15.063 12.997.745-.141 19.697-9.266 19.697-9.266z" fill="#9468B4"/><path opacity=".1" d="M136.883 142.096l8.845 24.075s-25.056 8.609-32.588 6.034c-7.531-2.575-17.384-18.347-20.414-27.657-3.03-9.31-1.822-16.946 9.397-6.183 11.219 10.763 14.319 13.137 15.063 12.997.745-.141 19.697-9.266 19.697-9.266z" fill="#000"/><path d="M145.464 166.154c-3.783 1.208-7.558 2.382-11.385 3.336-3.827.955-13.697 2.987-17.708 2.969a10.093 10.093 0 01-5.255-1.751 21.343 21.343 0 01-4.195-3.696c-1.305-1.419-2.54-2.908-3.748-4.379a163.529 163.529 0 01-4.047-5.185c-1.322-1.751-2.802-3.669-4.072-5.596 0-.061-.157 0-.114.061 1.112 1.752 2.163 3.451 3.302 5.141.473.692.955 1.375 1.445 2.058-.271-.219-.525-.437-.797-.639-1.016-.762-2.058-1.489-3.03-2.312a.068.068 0 00-.046-.014.063.063 0 00-.055.068.06.06 0 00.022.042c.99.771 1.9 1.629 2.829 2.479.447.411.876.814 1.375 1.2.219.184.438.367.665.543l.088.078 1.016 1.367a139.877 139.877 0 003.748 4.746 25.924 25.924 0 004.029 3.994 11.383 11.383 0 004.966 2.4c3.722.586 13.907-1.48 17.883-2.435a101.96 101.96 0 0013.198-4.037c.254-.149.166-.526-.114-.438zm-24.716-16.351c-.56.227-2.557 1.34-3.222 1.366a2.468 2.468 0 01-1.69-.771c-.517-.429-1.025-.876-1.55-1.322l-1.945-1.603c0-.052-.061-.096-.087-.14l-.289-.438c-.202-.289-.403-.569-.613-.876-.412-.542-.876-1.077-1.261-1.611-.053-.061-.14 0-.088.088.421.551.806 1.138 1.191 1.751l.368.578-.315-.263c-.508-.411-2.128-1.699-3.127-2.565-.061-.062-.149 0-.078.096a191.79 191.79 0 013.502 3.179c1.081.998 2.175 1.985 3.285 2.96.875.727 1.751 1.681 2.959 1.427a15.12 15.12 0 003.109-1.751c.035-.053-.087-.175-.149-.105z" fill="#263238"/><path d="M137.46 155.706a316.748 316.748 0 00-1.909-5.255c-.657-1.751-1.498-3.547-2.119-5.36 0-.078-.141 0-.114.053.648 1.795 1.094 3.67 1.69 5.482.596 1.813 1.165 3.504 1.752 5.255 1.243 3.503 2.478 7.094 3.958 10.51 0 .105.219.052.184-.062-.955-3.555-2.216-7.102-3.442-10.623z" fill="#263238"/><path d="M106.642 138.417c-2.987.622-7.961-4.055-9.87-7.785-.132-.263 1.2-10.308 1.252-12.323 0-.42 12.594 3.425 12.594 3.425a32.16 32.16 0 00-1.445 7.715c0 .281.359 8.347-2.531 8.968z" fill="#fff"/><path d="M109.241 130.264v.131h-.061c-.414.031-.83.031-1.244 0-6.892-.35-8.976-8.88-9.528-12.147 2.137.351 12.199 3.425 12.199 3.425a32.16 32.16 0 00-1.445 7.715v.28c.01.2.037.4.079.596z" fill="#263238"/><path d="M98.163 103.176c-1.795 4.379-.683 17.516 2.225 20.66 4.212 4.615 11.727 5.745 15.808.552 3.967-5.045 2.207-22.14-1.095-25.1-4.861-4.353-14.284-2.522-16.938 3.888z" fill="#fff"/><path d="M110.239 112.232s-.07.043-.061.079c.096.875.061 1.917-.718 2.268v.052c.99-.219 1.025-1.611.779-2.399z" fill="#263238"/><path d="M109.364 111.365c-1.436 0-1.322 2.872 0 2.872s1.217-2.872 0-2.872zm5.798.779s.07 0 .07.079c0 .876.166 1.9.981 2.163v.053c-.99-.079-1.191-1.419-1.051-2.295z" fill="#263238"/><path d="M115.917 111.207c1.427-.166 1.655 2.689.332 2.846-1.322.158-1.523-2.706-.332-2.846zm-7.725-1.103a9.31 9.31 0 001.094-.438 1.864 1.864 0 001.034-.657.602.602 0 00-.123-.727 1.52 1.52 0 00-1.524-.096 2.17 2.17 0 00-1.234 1.007.644.644 0 00.386.904c.119.037.246.04.367.007zm8.775-.386c-.39-.063-.775-.147-1.156-.254a1.87 1.87 0 01-1.121-.473.616.616 0 010-.744 1.527 1.527 0 011.489-.342 2.235 2.235 0 011.384.789.647.647 0 01-.596 1.024z" fill="#263238"/><path d="M110.345 117.801a3.03 3.03 0 002.076 1.261c.363.053.731.053 1.094 0h.395a.23.23 0 00.175-.21.385.385 0 000-.096v-.079c0-.683-.123-1.751-.123-1.751.263.114 1.559.639 1.524.28a45.563 45.563 0 00-1.55-9.099.079.079 0 00-.079-.079.079.079 0 00-.079.079c.175 2.846.876 5.64 1.069 8.495a5.161 5.161 0 00-1.454-.377c-.097 0 .254 1.997.228 2.303a4.22 4.22 0 01-3.171-.875c-.087.017-.157.078-.105.148z" fill="#263238"/><path d="M113.094 118.739a3.59 3.59 0 01-1.392 1.174 1.618 1.618 0 01-.981.096c-.718-.158-.762-.806-.648-1.366.059-.302.153-.596.28-.876a4.66 4.66 0 002.741.972z" fill="#263238"/><path d="M111.702 119.912a1.611 1.611 0 01-.981.096c-.718-.157-.762-.805-.648-1.366a1.668 1.668 0 011.629 1.27z" fill="#FF99BA"/><path d="M116.925 104.56c-4.528 3.091-10.72-1.594-10.72-1.594a4.923 4.923 0 01-4.992 3.109s-.876 7.645-2.908 7.628c-3.082 0-4.028-10.448-3.056-12.497.972-2.05 3.582-2.575 3.582-2.575a5.027 5.027 0 012.093-3.04c2.102-1.602 9.353.561 9.353.561a6.694 6.694 0 011.857-2.496 1.894 1.894 0 011.423-.464 1.905 1.905 0 011.318.71 4.532 4.532 0 00-.735 1.891c-.368 2.233 1.462 2.233 1.445.202a3.137 3.137 0 00-.71-2.094c.876-1.322 2.382-1.751 3.276-1.042 1.629 1.288 2.531 9.126-1.226 11.701z" fill="#263238"/><path d="M99.907 113.965s-2.627-4.378-4.589-3.503c-1.961.876-.236 7.129 1.927 8.127.269.148.565.24.87.27a2.261 2.261 0 001.704-.533c.233-.199.424-.443.561-.718l-.473-3.643z" fill="#fff"/><path d="M95.861 112.232s-.044.043 0 .061c1.524.744 2.233 2.259 2.697 3.801a1.262 1.262 0 00-1.847-.482c-.044 0 0 .096 0 .088a1.409 1.409 0 011.497.604c.262.406.476.841.64 1.296.06.149.323.088.28-.079.201-2.023-1.147-4.93-3.267-5.289z" fill="#263238"/><path d="M120.512 197.681L98.845 339.856H94.58l13.365-142.175h12.567z" fill="#455A64"/><path d="M120.504 197.682l-2.067 13.583h-11.77l1.279-13.583h12.558z" fill="#263238"/><path d="M418.753 197.682l21.667 142.175h4.265L431.32 197.682h-12.567z" fill="#455A64"/><path d="M418.761 197.682l2.066 13.583h11.77l-1.278-13.583h-12.558z" fill="#263238"/><path d="M452.741 187.575H86.523v7.146h366.218v-7.146z" fill="#455A64"/><path d="M448.696 194.73H90.561v2.951h358.135v-2.951z" fill="#263238"/><path d="M410.88 251.953l-2.076 12.471-14.083 76.027h-2.268l10.238-76.027 1.515-12.471h6.674z" fill="#DBDBDB"/><path d="M404.205 251.953h6.674l-2.076 12.471h-6.113l1.515-12.471z" fill="#A6A6A6"/><path d="M455.099 340.451h-2.268l-14.083-76.027-2.075-12.471h6.673l1.515 12.471 10.238 76.027z" fill="#DBDBDB"/><path d="M443.346 251.953l1.515 12.471h-6.113l-2.075-12.471h6.673z" fill="#A6A6A6"/><path d="M497.327 340.451h-2.268l-14.083-76.027-2.076-12.471h6.674l1.515 12.471 10.238 76.027z" fill="#DBDBDB"/><path d="M487.089 264.424h-6.113l-2.076-12.471h6.674l1.515 12.471z" fill="#A6A6A6"/><path d="M493.73 257.813H390.562v-10.869h38.623l12.979-75.518h47.634l3.932 86.387z" fill="#DBDBDB"/><path d="M493.731 257.813h-5.623l-3.67-86.387h5.36l3.933 86.387z" fill="#A6A6A6"/><path d="M384.72 357.704c1.996.193 56.365-12.821 58.082-14.582.21-.201-.876-5.14-2.444-11.875v-.14c-.981-4.265-16.859-38.815-16.859-38.815l-35.276 9.896 16.044 32.054s-6.63 4.799-12.305 9.353a76.283 76.283 0 00-7.172 6.131c-1.682 2.093-2.067 7.812-.07 7.978z" fill="#fff"/><path d="M384.721 357.704c1.997.193 56.365-12.821 58.082-14.582.21-.201-.876-5.14-2.444-11.884v-.123c-.359-1.593-2.802-7.4-5.719-14.012-5.797 1.568-26.588 7.208-34.155 9.555l3.801 7.593s-6.63 4.799-12.314 9.353a76.283 76.283 0 00-7.172 6.131c-1.691 2.093-2.076 7.803-.079 7.969z" fill="#fff"/><path d="M384.537 357.967c2.058.175 56.47-12.988 58.231-14.8.665-.684-.543-9.266-3.503-18.392l-35.032 8.53s-17.901 14.197-19.617 16.395c-1.717 2.198-2.128 8.092-.079 8.267z" fill="#9468B4"/><path d="M384.79 355.611c9.073-2.434 45.864-11.385 55.016-13.084.07 0 .088 0 0 .053-8.941 2.627-45.812 11.253-54.99 13.18-.184.035-.21-.105-.026-.149zm2.786-8.687a7.554 7.554 0 015.999.875 7.322 7.322 0 013.214 4.379c0 .053-.087.079-.114 0a8.704 8.704 0 00-9.072-5.193c-.07.061-.097-.044-.027-.061zm13.95-11.99c3.634-.928 8.179-.666 11.166 1.751.122.097 0 .254-.14.228a52.185 52.185 0 00-10.982-1.532.236.236 0 01-.044-.447zm-2.557 1.778c3.643-.928 8.189-.666 11.175 1.751.114.097 0 .263-.14.228a52.17 52.17 0 00-10.991-1.471.257.257 0 01-.276-.232.255.255 0 01.232-.276zm-2.547 1.787c3.634-.937 8.179-.675 11.174 1.751.114.088 0 .254-.149.228a51.453 51.453 0 00-10.982-1.506.241.241 0 01-.173-.054.236.236 0 01-.031-.335.239.239 0 01.161-.084zm-2.558 1.777c3.643-.937 8.188-.665 11.174 1.752.114.096.001.254-.14.228a52.112 52.112 0 00-10.981-1.533.244.244 0 01-.128-.071.24.24 0 01-.061-.133.23.23 0 01.029-.143.235.235 0 01.107-.1zm41.521-5.868c4.099-.972 5.631 5.395 1.524 6.376-4.107.98-5.622-5.395-1.524-6.376z" fill="#263238"/><path d="M396.806 331.431c2.583 2.066 5.972 2.933 9.011 4.107.315.122.569-.175.587-.456a.102.102 0 00.041-.015.095.095 0 00.032-.031.098.098 0 00.016-.041.093.093 0 00-.002-.044 19.731 19.731 0 00-5.578-8.53c-1.524-1.322-4.212-2.25-5.692-.271-1.48 1.979.078 4.063 1.585 5.281zm-.876-2.987c-.596-4.054 3.73-1.874 4.808-.875a21.286 21.286 0 011.935 2.136c1.252 1.55 2.268 3.249 3.363 4.913-1.454-.665-2.951-1.2-4.431-1.813-1.787-.709-5.369-2.119-5.701-4.343l.026-.018z" fill="#263238"/><path d="M418.892 329.487c-.875-2.312-3.713-2.172-5.543-1.34a19.71 19.71 0 00-7.742 6.629.106.106 0 00-.026.033.099.099 0 000 .083.106.106 0 00.026.033.47.47 0 00.23.552.445.445 0 00.208.052c3.241-.271 6.735-.157 9.8-1.418 1.795-.736 3.862-2.435 3.047-4.624zm-7.978 4.624c-1.585.175-3.179.262-4.764.499 1.515-1.288 2.969-2.628 4.616-3.775a19.996 19.996 0 012.495-1.497c1.323-.675 6.087-1.559 4.379 2.172-.998 2.049-4.825 2.399-6.726 2.601zm-10.63-2.838l37.755-11.324s-31.117-64.808-30.136-68.153c.648-2.198 47.292-2.356 60.99-14.634 14.152-12.708 3.126-37.659 3.126-37.659l-39.226-.202s.674 8.18-.824 9.459c-.989.876-54.622 5.57-64.895 25.292-9.318 17.884 33.21 97.221 33.21 97.221z" fill="#263238"/><path d="M407.894 251.796c-.166.561.587 2.89 1.971 6.376l-28.192 34.637c-10.054-22.919-19.512-49.35-14.599-58.765 10.273-19.723 63.932-24.443 64.896-25.293 1.488-1.27.823-9.467.823-9.467l24.898.131-41.38 50.796c-4.984.587-8.242 1.016-8.417 1.585z" fill="#263238"/><path d="M399.345 323.286a24.065 24.065 0 013.074-1.138c1.095-.377 2.181-.745 3.276-1.095 2.154-.701 4.32-1.36 6.498-1.979 4.379-1.235 8.758-2.452 13.19-3.573 2.303-.587 7.234-1.866 7.54-1.813a.17.17 0 01.085.051.17.17 0 01.043.089.168.168 0 01-.012.099.173.173 0 01-.063.076c-4.274 1.524-8.609 2.829-12.936 4.151-4.326 1.323-8.661 2.628-13.049 3.731-1.217.307-2.435.578-3.652.876a28.203 28.203 0 01-3.88.832c-.131.009-.21-.237-.114-.307zm70.571-116.322a187.582 187.582 0 00-.42-3.923c0-.149-.254-.149-.237 0 .526 5.307 1.06 10.737.088 16.027a22.854 22.854 0 01-7.007 12.699c-7.777 7.251-18.662 9.388-28.804 11.113a249.923 249.923 0 01-17.516 2.33c-2.872.28-5.751.511-8.635.692-2.846.175-5.71.201-8.565.359-.876.052-1.752.464-1.568 1.497.152.612.385 1.201.692 1.752.298.701.613 1.393.876 2.084a857.946 857.946 0 013.45 7.76 1423.6 1423.6 0 007.269 15.939 989.588 989.588 0 0015.169 31.283l1.953 3.854c0 .078.166 0 .131-.079a2787.267 2787.267 0 01-14.835-31.528c-2.418-5.255-4.843-10.449-7.234-15.695a948.733 948.733 0 01-3.574-7.882l-1.751-3.941-.876-1.97c-.245-.552-1.13-1.857-.517-2.373.403-.333 1.253-.219 1.752-.237l2.277-.07c1.445-.053 2.881-.105 4.326-.184 2.92-.14 5.839-.339 8.758-.595a232.12 232.12 0 0017.034-2.129c10.08-1.62 21.019-3.45 29.102-10.211a24.26 24.26 0 007.734-11.28c1.541-4.878 1.401-10.177.928-15.292z" fill="#455A64"/><path d="M301.767 307.995c1.419 1.419 51.592 26.081 54.036 25.809.289 0 2.627-4.51 5.692-10.711l.062-.114c1.97-3.923 19.819-36.888 19.819-36.888l-31.222-15.807-18.339 32.08s-8.171-.535-15.449-.649a76.51 76.51 0 00-9.432.141c-2.662.578-6.595 4.711-5.167 6.139z" fill="#fff"/><path d="M301.766 307.995c1.419 1.418 51.593 26.08 54.045 25.809.28 0 2.627-4.51 5.684-10.702l.061-.123c.14-.271.28-.551.429-.823.149-.271.202-.403.307-.595.105-.193.315-.596.473-.876 1.357-2.584 3.59-6.753 6.051-11.315l-31.834-16.053-5.168 9.046s-8.162-.525-15.44-.648a79.217 79.217 0 00-9.423.132c-2.671.595-6.621 4.72-5.185 6.148z" fill="#fff"/><path d="M301.46 308.083c1.471 1.445 51.776 26.01 54.298 25.739.955-.105 5.5-7.488 8.995-16.403l-32.404-15.765s-22.841-.473-25.564.123c-2.724.596-6.797 4.861-5.325 6.306z" fill="#9468B4"/><path d="M303.168 306.427c8.53 3.906 42.581 20.485 50.717 25.004.07 0 .043.079 0 .052-8.539-3.695-42.458-20.545-50.796-24.924-.175-.088-.105-.219.079-.132zm7.672-4.913a7.528 7.528 0 014.046 4.519 7.35 7.35 0 01-.315 5.421c0 .052-.123 0-.105-.053a8.712 8.712 0 00-.204-5.503 8.71 8.71 0 00-3.466-4.279c-.07-.044 0-.14.044-.105zm18.391-.342c3.398 1.603 6.726 4.703 7.479 8.486 0 .149-.184.193-.254.088a52.193 52.193 0 00-7.488-8.188.24.24 0 01-.071-.146.236.236 0 01.334-.24zm-3.101-.254c3.398 1.603 6.726 4.703 7.479 8.486 0 .149-.184.184-.254.088a52.28 52.28 0 00-7.487-8.188.237.237 0 01.262-.386zm-3.074-.254c3.398 1.594 6.726 4.703 7.479 8.486 0 .149-.184.184-.254.079a52.086 52.086 0 00-7.488-8.179.24.24 0 01-.071-.146.236.236 0 01.334-.24zm-3.125-.227c3.398 1.603 6.725 4.703 7.47 8.486a.14.14 0 01-.254.088 51.349 51.349 0 00-7.479-8.18.237.237 0 01-.066-.328.237.237 0 01.329-.066zm35.714 21.894c3.784 1.866.876 7.742-2.89 5.876-3.765-1.865-.893-7.706 2.89-5.876z" fill="#263238"/><path d="M327.838 295.462c.665 3.24 2.723 6.078 4.317 8.915a.465.465 0 00.161.138.463.463 0 00.413 0 .468.468 0 00.162-.138.075.075 0 00.031.03.082.082 0 00.086 0 .075.075 0 00.031-.03 19.737 19.737 0 001.156-10.123c-.341-1.988-1.812-4.423-4.212-3.836-2.399.587-2.548 3.152-2.145 5.044zm1.208-2.872c2.128-3.503 4.063.937 4.247 2.408.107.956.148 1.919.123 2.881a58.302 58.302 0 01-.543 5.929c-.692-1.445-1.506-2.811-2.259-4.23-.885-1.681-2.741-5.053-1.568-7.023v.035z" fill="#263238"/><path d="M346.081 308.056c.814-2.338-1.472-4.037-3.416-4.563a19.794 19.794 0 00-10.185.158.096.096 0 00-.07.058.095.095 0 00.009.091.467.467 0 00-.052.744c2.671 1.857 5.254 4.169 8.45 5.158 1.848.57 4.493.561 5.264-1.646zm-9.091-1.489c-1.331-.875-2.627-1.821-3.984-2.627a56.328 56.328 0 015.955 0c.959.066 1.913.198 2.855.394 1.445.333 5.675 2.689 1.979 4.466-2.04.955-5.211-1.217-6.805-2.233zm-5.025-9.388l37.659 18.803s29.382-59.737 32.605-63.582c4.291-5.132 60.263 2.111 73.469-14.459 13.654-17.139 1.953-38.42 1.953-38.42h-42.606c.123 3.964.907 7.88 2.32 11.586 0 0-48.719-2.899-62.504 10.51-10.58 10.299-42.896 75.562-42.896 75.562z" fill="#263238"/><path d="M445.131 215.434a73.294 73.294 0 00-6.779-4.143 27.738 27.738 0 00-5.132-2.075c-1.243-.298-1.751-.394-.621.157l3.135 1.489h-.666a115.01 115.01 0 00-2.513-.096h-4.913c-3.328 0-6.613.289-9.932.455-.087 0-.087.14 0 .14 3.311-.105 6.639.07 9.949.053 1.638 0 3.276.044 4.913.07l2.409.044c.676.035 1.355.035 2.031 0l.876.438c2.409 1.138 4.817 2.32 7.138 3.625.096-.017.175-.105.105-.157z" fill="#455A64"/><path d="M434.027 197.9c.438 2.015.806 4.037 1.314 6.025.228.92.455 1.848.771 2.741.262.754.674 1.612 1.523 1.804.85.193 1.296-.613 1.244-1.427-.053-.814-.263-1.839-.412-2.741-.175-1.042-.35-2.084-.499-3.135a82.036 82.036 0 01-.228-1.568c0-.131-.087-1.129-.148-1.418 0 0 0 .052-.053.043a.068.068 0 01-.041-.014.064.064 0 01-.02-.038c0-.079 0-.097.052-.149a.091.091 0 01.048-.013c.017 0 .034.004.049.013.183.114.192.368.245.56.14.517.289 1.025.42 1.533.245.963.482 1.927.692 2.899.21.972.412 1.935.613 2.907.228.716.27 1.479.123 2.216a1.749 1.749 0 01-1.612 1.226c.038.061.07.126.097.192.078.202.14.412.21.613.07.202.122.421.175.631.026.103.043.209.052.315v.342a.162.162 0 01-.013.122.168.168 0 01-.094.08.168.168 0 01-.208-.097 3.126 3.126 0 00-.175-.289 2.212 2.212 0 01-.131-.342 5.921 5.921 0 01-.158-.604c0-.201-.096-.412-.123-.613a1.885 1.885 0 010-.368 2.277 2.277 0 01-1.138-.481 3.849 3.849 0 01-1.13-1.857c-.271-.876-.473-1.708-.683-2.566a36.908 36.908 0 01-1.051-6.463.185.185 0 01.289-.079zm20.546 5.728c.149.99.228 1.997.421 2.986.192.99.42 1.936.7 2.873.257.922.637 1.806 1.13 2.627a9.611 9.611 0 001.874 2.04 16.561 16.561 0 004.589 2.768c.84.343 1.7.635 2.575.875.455.114.919.211 1.383.289.387.024.765.125 1.112.298a.218.218 0 01.115.193.218.218 0 01-.115.193 4.041 4.041 0 01-2.066 0 13.747 13.747 0 01-2.207-.465 15.932 15.932 0 01-4.116-1.9 13.003 13.003 0 01-3.398-2.977 9.843 9.843 0 01-1.751-4.16 20.222 20.222 0 01-.421-5.579.099.099 0 01.064-.097.101.101 0 01.062-.001.1.1 0 01.049.037zM339.609 290.33a22.4 22.4 0 013.022 1.279c1.042.473 2.093.955 3.135 1.445 2.041.981 4.064 1.979 6.069 3.03 4.046 2.111 8.075 4.239 12.051 6.455 2.076 1.156 6.542 3.617 6.726 3.862.096.114-.053.315-.175.263-4.151-1.822-8.206-3.845-12.261-5.859s-8.092-4.038-12.042-6.244c-1.095-.614-2.172-1.253-3.258-1.883a25.657 25.657 0 01-3.389-2.059c-.105-.078-.027-.332.122-.289z" fill="#455A64"/><path d="M477.615 209.426a.151.151 0 00-.053-.082.15.15 0 00-.183 0 .151.151 0 00-.053.082c.088 9.248-1.349 19.591-8.469 26.273-7.803 7.278-19.066 8.145-29.207 8.057-5.815-.043-11.622-.192-17.446 0-5.824.193-11.744.473-17.516 1.209a9.632 9.632 0 00-5.955 2.855 30.736 30.736 0 00-3.95 5.675 481.985 481.985 0 00-8.503 14.713 394.744 394.744 0 00-15.169 30.127 834.49 834.49 0 00-1.752 3.827c0 .088.088.158.132.071a479.08 479.08 0 0115.212-30.364c2.703-4.974 5.5-9.899 8.39-14.774 1.358-2.286 2.627-4.633 4.186-6.823 1.34-1.935 3.013-3.757 5.334-4.457a21.798 21.798 0 014.379-.631c1.489-.14 2.969-.263 4.458-.368a244.53 244.53 0 018.757-.473c5.868-.219 11.718-.14 17.586 0 10.185.184 21.317-.166 29.777-6.656a23.963 23.963 0 007.882-10.956 43.252 43.252 0 002.268-13.776 362.578 362.578 0 01-.105-3.529z" fill="#455A64"/><path d="M416.635 249.948c-2.075 0-4.151.122-6.227.193a24.81 24.81 0 00-5.158.464c-1.568.385-2.82.578-4.107 2.338-1.603 2.189-10.352 19.092-14.013 26.571a340.873 340.873 0 00-3.013 6.245c-.98 2.093-1.926 4.379-2.942 6.524 0 .079.087.149.122.07.876-1.804 1.901-3.564 2.829-5.351a338.086 338.086 0 002.741-5.412c1.834-3.643 3.655-7.287 5.465-10.93 1.813-3.608 4.029-7.129 5.868-10.719 1.55-3.022 3.67-7.147 5.141-7.76a24.5 24.5 0 016.419-1.576c2.286-.158 4.581-.298 6.867-.491a.087.087 0 00.064-.08.087.087 0 00-.014-.052.078.078 0 00-.042-.034z" fill="#455A64"/><path d="M449.301 153.305c-4.239 7.225-30.582 36.512-48.947 34.156-6.236-.797-4.152-25.818 9.633-49.753.403-.71 18.935 3.503 18.488 7.96-.044.482-4.02 12.156-4.449 11.815-.429-.342 7.208-3.6 19.915-8.846 5.999-2.496 7.856.289 5.36 4.668z" fill="#fff"/><path d="M424.141 156.458a411.437 411.437 0 01-6.507 17.796 472.187 472.187 0 00-1.909 4.922c0 .053.07.088.096 0a91.652 91.652 0 003.923-8.617c1.157-2.917 2.26-5.877 3.118-8.89.499-1.751.964-3.503 1.393-5.254.017 0-.088-.027-.114.043z" fill="#263238"/><path d="M407.842 142.156s2.942-7.575 7.47-11.718c3.136-2.855 7.541-7.47 19.644-3.766 2.873.876 7.549 5.754 5.736 7.436-1.812 1.681-5.535-3.433-9.765-3.915 0 0 3.924 4.467 2.934 7.313a56.332 56.332 0 01-3.126 7.243c-.479-.128-.95-.283-1.41-.465 0 0-1.016 2.628-4.957 4.379l-16.526-6.507z" fill="#fff"/><path d="M418.735 128.188c2.225-.053 6.937-.079 10.799 1.243 4.291 1.463 12.164 5.439 11.043 8.592-.814 2.321-3.949 1.059-3.949 1.059s2.907 2.33 1.751 4.265c-1.086 1.752-3.503.64-3.503.64s1.524 1.751.149 3.205c-1.655 1.752-5.623-2.934-8.872-2.566-.727.088-7.418-16.438-7.418-16.438z" fill="#fff"/><path d="M427.275 133.705a18.064 18.064 0 019.38 5.255c.061.07.043.149 0 .096a44.731 44.731 0 00-9.371-5.342l-.009-.009zm2.023-4.703a18.061 18.061 0 019.379 5.255c.061.07.044.149 0 .096a44.881 44.881 0 00-9.362-5.351s-.035-.008-.017 0zm-3.416 9.073a20.404 20.404 0 019.047 5.842c.052.07 0 .157 0 .096a47.823 47.823 0 00-9.029-5.894s-.044-.044-.018-.044zm3.144 7.129a8.591 8.591 0 00-5.096-1.418.054.054 0 00-.038.015.056.056 0 00-.015.037c0 .014.006.028.015.037.01.01.024.016.038.016 1.462.324 2.627.657 2.671.665-1.857 2.242-5.15 3.162-6.551 3.425-.096 0-.061.148 0 .148 2.627 0 5.456-1.173 6.717-3.503.727.257 1.466.477 2.216.657 0 0 .043-.052.043-.079z" fill="#263238"/><path d="M424.156 156.222l16.185 9.248c3.354-3.514 6.523-7.2 9.493-11.044 4.029-5.64 2.882-8.46-5.386-6.507-5.526 1.305-20.292 8.303-20.292 8.303z" fill="#9468B4"/><path d="M438.265 156.414a5.922 5.922 0 01-.779-1.322 5.84 5.84 0 01-.429-1.463c.316.401.575.843.77 1.314.209.469.356.964.438 1.471zm7.691-1.926c.406-.313.85-.572 1.322-.771.465-.213.958-.36 1.463-.438a6.13 6.13 0 01-2.785 1.209zm-3.154 8.329l-.263.28a5.222 5.222 0 01-1.086-.622c.463.054.916.169 1.349.342zm1.183-12.139a6.403 6.403 0 01-2.829-1.112c.509.06 1.007.189 1.48.385.479.183.933.427 1.349.727zm-14.083 4.624a5.568 5.568 0 01-.385 1.48c-.183.48-.427.933-.727 1.349.06-.509.19-1.007.385-1.48.183-.479.427-.933.727-1.349z" fill="#fff"/><path d="M438.362 164.349c.193.07 1.883.963 1.988 1.06.736-.815 1.463-1.647 2.216-2.452.376-.403.753-.806 1.138-1.2.386-.394.876-.946 1.27-1.323.061-.061.14 0 .088.071-.438.551-.789.937-1.174 1.409-.385.473-.692.832-1.06 1.235-.761.876-1.541 1.804-2.347 2.627a18.587 18.587 0 01-2.154-1.366s0-.07.035-.061z" fill="#263238"/><path d="M426.671 155.626c2.452 1.183 4.878 2.4 7.251 3.722 1.182.666 2.356 1.34 3.503 2.041 1.147.7 2.259 1.506 3.433 2.189.061 0 0 .14-.07.096-1.13-.735-2.374-1.331-3.547-2.005l-3.503-2.014a755.162 755.162 0 00-7.12-3.932c-.07-.035-.009-.123.053-.097z" fill="#263238"/><path d="M431.356 201.473s16.982 4.029 49.149 1.244c0 0-12.576-40.155-22.709-50.979-4.606-4.922-9.117-4.169-12.935-1.008-.955.797-12.769 15.764-13.767 21.019-.876 4.624 2.872 9.748 2.872 9.748l-2.61 19.976z" fill="#9468B4"/><path d="M464.355 185.552a6.357 6.357 0 01-1.209-2.785c.317.403.576.848.771 1.322.213.465.36.957.438 1.463zm-13.847-17.21a5.999 5.999 0 01-.779-1.322 5.87 5.87 0 01-.429-1.463 6.344 6.344 0 011.208 2.785zm24.785 32.79a5.628 5.628 0 01-.77-1.322 5.548 5.548 0 01-.438-1.463c.317.401.58.843.779 1.314.206.469.351.964.429 1.471zm-30.766-11.499a5.898 5.898 0 01-.771-1.314 5.596 5.596 0 01-.429-1.471c.313.405.572.85.771 1.322.21.465.354.958.429 1.463zM454.583 152a5.557 5.557 0 01-.771-1.322 5.537 5.537 0 01-.438-1.463 6.134 6.134 0 011.209 2.785zm-2.568 31.274c.405-.315.85-.577 1.322-.779.467-.206.958-.35 1.462-.429-.4.316-.842.575-1.313.771-.47.208-.964.356-1.471.437zm-16.166-8.074a5.9 5.9 0 011.322-.779 5.833 5.833 0 011.462-.429c-.4.316-.842.575-1.313.77-.47.209-.964.356-1.471.438zm10.107-20.712c.406-.313.85-.572 1.322-.771.465-.213.958-.36 1.463-.438a6.13 6.13 0 01-2.785 1.209zm-.771 45.234a6.463 6.463 0 012.784-1.209c-.4.319-.842.581-1.313.779-.47.206-.965.351-1.471.43zm17.594-35.032a6.133 6.133 0 012.785-1.208 5.588 5.588 0 01-1.322.77 5.89 5.89 0 01-1.463.438zm2.847 30.653a5.453 5.453 0 011.322-.771c.465-.212.957-.36 1.463-.438a6.472 6.472 0 01-2.785 1.209zm-7.961-3.766a5.954 5.954 0 01-1.48-.385 5.55 5.55 0 01-1.34-.736 5.965 5.965 0 011.48.385c.478.183.929.43 1.34.736zm-20.379-6.91a5.584 5.584 0 01-1.48-.394 5.281 5.281 0 01-1.349-.727 5.924 5.924 0 011.48.386c.481.182.935.429 1.349.735zm22.481-12.603a6.317 6.317 0 01-2.82-1.112 5.57 5.57 0 011.48.386c.477.183.927.427 1.34.726zm-15.485-8.468a5.954 5.954 0 01-1.48-.385 5.646 5.646 0 01-1.349-.736 5.965 5.965 0 011.48.385c.481.183.935.43 1.349.736zm30.417 24.548a6.145 6.145 0 01-1.48-.385 5.751 5.751 0 01-1.34-.736 5.965 5.965 0 011.48.385c.478.183.929.43 1.34.736zm-5.535-14.494a6.403 6.403 0 01-1.112 2.828c.06-.509.189-1.007.385-1.48.183-.479.427-.932.727-1.348zm-22.823 2.11a5.57 5.57 0 01-.386 1.48 5.869 5.869 0 01-.726 1.34c.06-.508.19-1.006.385-1.48.185-.476.429-.926.727-1.34zm-8.557 19.802a5.965 5.965 0 01-.385 1.48c-.183.478-.43.929-.736 1.34a5.954 5.954 0 01.385-1.48c.189-.476.436-.926.736-1.34zm21.974 3.214a5.57 5.57 0 01-.386 1.48 5.869 5.869 0 01-.726 1.34 5.53 5.53 0 01.385-1.48c.185-.475.429-.926.727-1.34zm-3.03-39.935a5.933 5.933 0 01-.385 1.48 5.848 5.848 0 01-.727 1.339 5.273 5.273 0 01.386-1.48c.181-.477.425-.927.726-1.339zm-21.124 6.288a5.933 5.933 0 01-.385 1.48c-.182.481-.43.934-.736 1.348a5.967 5.967 0 01.386-1.48c.182-.481.43-.935.735-1.348z" fill="#fff"/><path d="M438.661 158.682c-1.48 2.365-3.091 4.642-4.58 7.006a32.686 32.686 0 00-2.076 3.591 9.21 9.21 0 00-1.016 3.976 7.09 7.09 0 01.079-2.102 9.65 9.65 0 01.631-2.014 27.203 27.203 0 012.014-3.687 87.315 87.315 0 012.189-3.17c.123-.368.272-.727.412-1.086.222-.525.479-1.034.771-1.524a13.053 13.053 0 01-.57 1.603c-.07.148-.131.289-.192.437a49.954 49.954 0 012.338-3.03zm9.441-37.93c1.375 2.024 11.744 6.928 17.157-1.926 5.333-8.714-5.789-19.986-14.53-13.759-5.867 4.178-5.526 11.394-2.627 15.685z" fill="#263238"/><path d="M452.26 149.802c0 .876-3.082 7.173-7.006 7.707-1.278.176-2.54-6.769-2.54-6.769l-.21-.491-2.925-6.875 7.427-7.006 1.086-.946s.674 1.936 1.497 4.379c0 .114.079.228.114.35.035.123.097.263.14.386.132.359.254.727.377 1.094.123.368.184.552.271.876.088.324.176.587.272.876a47.436 47.436 0 011.497 6.419z" fill="#fff"/><path d="M449.589 139.774a14.95 14.95 0 01-7.085 10.43l-2.925-6.874 7.426-7.006 1.086-.946 1.498 4.396z" fill="#263238"/><path d="M428.36 130.885c-2.338 12.909 5.123 15.764 7.882 16.272 2.531.456 11.193 1.69 14.889-10.912 3.695-12.603-1.603-17.761-7.322-19.11-5.719-1.348-13.11.841-15.449 13.75z" fill="#fff"/><path d="M435.157 146.807a10.252 10.252 0 01-4.274-2.872 11.82 11.82 0 01-2.128-4.099c-.99-3.188-.613-6.56.078-9.765.43-1.953 1.008-3.862 1.533-5.789 0-.14-.166-.175-.219-.052-1.331 3.503-2.513 7.093-2.627 10.842a14.47 14.47 0 002.723 9.055 8.764 8.764 0 004.843 2.812.075.075 0 00.107-.088.075.075 0 00-.036-.044z" fill="#263238"/><path d="M430.585 128.993c.292-.001.585-.018.875-.052a1.46 1.46 0 00.92-.219.482.482 0 00.088-.561 1.164 1.164 0 00-1.086-.446 1.676 1.676 0 00-1.148.429.491.491 0 00-.105.54.497.497 0 00.456.309zm8.89 1.376a7.795 7.795 0 01-.876-.324 1.413 1.413 0 01-.797-.491.464.464 0 01.088-.56 1.153 1.153 0 011.174-.088c.403.123.745.396.954.762a.489.489 0 01-.543.701zm-2.566 2.855s.061.061.052.096c-.192.876-.254 1.9.482 2.338v.053c-.955-.316-.849-1.673-.534-2.487z" fill="#263238"/><path d="M437.87 132.453c1.428.149 1.025 3.004-.306 2.864-1.331-.141-.902-2.987.306-2.864z" fill="#263238"/><path d="M438.405 132.681c.228.201.429.516.727.595.298.079.648-.184.919-.438v.044c-.07.543-.359 1.077-.963 1.077s-.876-.543-.876-1.112c-.008-.105.106-.245.193-.166zm-6.373-.342s-.079 0-.079.07c-.097.876-.351 1.892-1.191 2.076v.052c.998-.009 1.322-1.375 1.27-2.198z" fill="#263238"/><path d="M431.365 131.305c-1.41-.297-1.909 2.54-.604 2.82 1.305.281 1.769-2.566.604-2.82z" fill="#263238"/><path d="M430.778 131.411c-.245.113-.517.341-.788.315-.272-.026-.491-.385-.64-.71h-.052c-.105.535 0 1.13.482 1.332.481.201.875-.228 1.112-.745-.009-.087-.053-.254-.114-.192zm2.015 7.12a3.61 3.61 0 001.182 1.419c.282.187.616.282.955.271.744 0 .876-.674.876-1.252a3.613 3.613 0 00-.132-.876 4.682 4.682 0 01-2.881.438z" fill="#263238"/><path d="M433.975 139.95c.282.187.615.282.954.271.745 0 .876-.674.876-1.252a1.682 1.682 0 00-1.83.981z" fill="#FF9CBD"/><path d="M432.783 136.735s-.386 1.296-.482 1.918c0 .052.14.105.35.149a3.005 3.005 0 003.048-.666c.052-.052 0-.123-.079-.096a4.56 4.56 0 01-2.82.359c0-.184.736-2.19.639-2.216a5.355 5.355 0 00-1.462.105c.727-2.714 1.883-5.254 2.557-7.995 0-.097-.114-.149-.149-.062a44.948 44.948 0 00-3.126 8.486c-.097.359 1.27.088 1.524.018zm17.2.333c-1.375-.385-4.168-5.009-2.802-11.761 0 0-.806 6.13-.543 7.128.262.999-1.559-2.627-.534-8.065a22.43 22.43 0 01-6.201 1.672c-2.724.158-4.283-.21-4.379-.438-.096-.227 3.889-.586 5.167-1.541 0 0-7.514 1.681-10.711 1.235-.367-.053.876-7.628 6.385-9.739 5.509-2.111 12.497 3.004 14.135 5.456 0 0 2.347.876 4.204 5.054 1.856 4.177-3.241 11.42-4.721 10.999z" fill="#263238"/><path d="M437.705 137.76a4.138 4.138 0 01-2.741-5.141 4.115 4.115 0 015.533-2.599 4.12 4.12 0 012.016 5.772 4.117 4.117 0 01-3.801 2.134 4.1 4.1 0 01-1.007-.166zm-2.215-4.983a3.565 3.565 0 001.147 3.79 3.564 3.564 0 103.301-6.164 3.581 3.581 0 00-4.448 2.374zm-6.359 3.547c-1.672-.281-2.723-2.321-2.355-4.563a4.94 4.94 0 011.322-2.697 2.567 2.567 0 014.335.709c.441.93.575 1.975.385 2.986-.341 2.12-1.848 3.661-3.415 3.591l-.272-.026zm-.648-6.866a4.377 4.377 0 00-1.165 2.39c-.324 1.945.535 3.705 1.901 3.933 1.366.227 2.741-1.174 3.065-3.118a4.43 4.43 0 00-.342-2.627 2.212 2.212 0 00-1.567-1.279h-.21a2.275 2.275 0 00-1.682.701z" fill="#9468B4"/><path d="M435.026 133.11l.411-.359c-.525-.613-1.839-1.55-3.003-.648l.332.437c1.051-.805 2.207.517 2.26.57zm17.925 4.02l.525-.167c-.078-.245-.814-2.399-1.987-2.793-1.174-.394-8.504-.876-8.81-.876l-.044.552c2.119.14 7.82.586 8.678.875.859.289 1.445 1.822 1.638 2.409z" fill="#9468B4"/><path d="M450.282 141.044c-.202.06-.411.092-.622.096-.203.036-.41.036-.613 0a1.905 1.905 0 01-.727-.315 2.174 2.174 0 01-.464-.429 2.661 2.661 0 01-.429-.779l1.051-3.425s3.231-3.809 4.983-2.627c1.751 1.182-.929 6.84-3.179 7.479z" fill="#fff"/><path d="M450.15 140.44a.61.61 0 01-.291.363.602.602 0 01-.462.049.61.61 0 01-.363-.86.602.602 0 011.111.098.605.605 0 01.005.35zm1.332-.797a.423.423 0 01-.138.207.424.424 0 01-.474.049.426.426 0 01-.132-.649.426.426 0 01.603-.063.427.427 0 01.141.456zm8.942 16.29c6.235 15.256 13.531 40.19 6.428 43.377-11.692 5.255-40.838 2.164-47.459 1.192-2.855-.421-3.503-19.995-.989-21.834 2.513-1.839 32.404 4.546 33.139 2.794.403-.998.403-10.466.5-22.21.113-13.592 6.594-7.698 8.381-3.319z" fill="#fff"/><path d="M423.641 178.458s-8.452-2.374-14.057-3.661c-3.117-.718-8.591-1.471-11.122-.955-3.801.78-19.171 6.472-17.875 10.23 1.174 3.398 13.767-3.162 13.767-3.162s-13.285 5.5-11.122 9.336c2.163 3.836 15.405-5.474 15.405-5.474s-13.522 5.955-10.667 9.555c2.163 2.724 14.626-5.036 14.626-5.036s-11.587 5.176-9.476 8.101c2.329 3.197 14.275-3.24 14.275-3.24 6.586 6.454 12.366 6.84 16.508 6.621.99-.053-.262-22.315-.262-22.315z" fill="#fff"/><path d="M398.821 178.703c-1.577.587-3.188 1.174-4.712 1.901a54.64 54.64 0 00-4.484 2.382 29.318 29.318 0 00-5.324 3.905c3.074-2.452 8.494-5.149 10.018-5.876 1.524-.727 3.013-1.524 4.537-2.259.035-.009.008-.053-.035-.053zm2.731 5.474c-1.988.875-3.993 1.602-5.946 2.531-1.953.928-3.713 1.97-5.587 3.021-.14.079-.053.131.096.061 1.918-.981 3.766-1.751 5.692-2.697 1.927-.946 3.819-1.988 5.772-2.873l-.027-.043zm3.188 4.265a48.502 48.502 0 00-8.757 4.562c-.14.088 0 .141.131.062 2.899-1.577 5.159-2.829 8.758-4.519-.035-.026-.061-.131-.132-.105zm20.328-9.739c-3.678-1.016-7.368-2-11.07-2.951-3.503-.876-7.163-1.962-10.824-2.172a19.27 19.27 0 00-6.008.56c-.088 0 0 .14 0 .132a30.778 30.778 0 0110.991.613c3.556.735 7.085 1.672 10.614 2.548 2.067.508 4.143.964 6.219 1.428.02.01.045.012.067.004a.088.088 0 00.056-.111.094.094 0 00-.045-.051z" fill="#263238"/><path d="M468.436 175.261l-17.962-4.983c.131-4.857.517-9.704 1.156-14.521 1.173-6.831 3.976-7.995 8.416-.753 2.943 4.852 8.39 20.257 8.39 20.257z" fill="#9468B4"/><path d="M454.582 152.001a5.614 5.614 0 01-.77-1.323.224.224 0 01-.02-.272.233.233 0 01.112-.091.229.229 0 01.144-.004l.105.218c.206.47.351.965.429 1.472zm9.686 12.243a5.882 5.882 0 01-1.462.438 5.882 5.882 0 011.313-.78c.053.105.097.228.149.342zm-4.501 7.82a6.317 6.317 0 01-2.82-1.112 5.57 5.57 0 011.48.386c.477.183.927.427 1.34.726zm8.669 3.197h-.07a.254.254 0 010-.087l.07.087zm-11.708-16.42a5.933 5.933 0 01-.385 1.48 5.848 5.848 0 01-.727 1.339 5.273 5.273 0 01.386-1.48c.181-.477.425-.927.726-1.339z" fill="#fff"/><path d="M452.673 170.891c-.184-.088-2.005-.657-2.154-.666.061-1.095.14-2.198.184-3.301v-1.647c0-.552.044-1.296.053-1.839a.07.07 0 00.004-.029.069.069 0 00-.011-.028.06.06 0 00-.079-.02.06.06 0 00-.032.048c-.001.01 0 .02.004.029-.079.701-.114 1.217-.176 1.822a29.704 29.704 0 00-.131 1.628c-.07 1.148-.192 2.365-.21 3.503a19.22 19.22 0 002.487.57s.061-.053.061-.07z" fill="#263238"/><path d="M467.07 173.054c-2.566-.876-5.132-1.751-7.751-2.522a169.238 169.238 0 00-3.923-1.077c-1.296-.342-2.627-.534-3.967-.876-.07 0-.096.096 0 .114 1.322.28 2.627.744 3.923 1.103l3.915 1.095c2.627.744 5.254 1.48 7.803 2.286.043.008.07-.097 0-.123z" fill="#263238"/><path d="M390.313 38.245h-74.538v51.97h74.538v-51.97z" fill="#EBEBEB"/><path d="M320.05 43.412l32.999-.07 32.991.07-32.991.07-32.999-.07zm0 2.688l32.999-.07 32.991.07-32.991.07-32.999-.07zm0 2.698l32.999-.079 32.991.08-32.991.07-32.999-.07zm0 2.689l32.999-.07 32.991.07-32.991.07-32.999-.07zm0 2.688l32.999-.07 32.991.07-32.991.07-32.999-.07zm0 2.689l32.999-.07 32.991.07-32.991.08-32.999-.08zm0 2.698l32.999-.07 32.991.07-32.991.07-32.999-.07zm0 2.688l32.999-.07 32.991.07-32.991.07-32.999-.07zm0 2.689l32.999-.07 32.991.07-32.991.07-32.999-.07zm0 2.688l32.999-.07 32.991.07-32.991.08-32.999-.08zm0 2.698l32.999-.07 32.991.07-32.991.07-32.999-.07zm0 2.689l32.999-.07 32.991.07-32.991.07-32.999-.07zm0 2.689l32.999-.07 32.991.07-32.991.07-32.999-.07zm0 2.697l32.999-.08 32.991.08-32.991.07-32.999-.07zm0 2.689l32.999-.07 32.991.07-32.991.07-32.999-.07z" fill="#C7C7C7"/><path d="M332.031 62.25h-5.001v21.974h5.001V62.25z" fill="#9468B4"/><path d="M341.315 52.958h-5.001v31.266h5.001V52.958z" fill="#fff"/><path d="M350.597 52.336h-5v31.888h5V52.336z" fill="#9468B4"/><path d="M359.881 50.55h-5.001v33.674h5.001V50.55z" fill="#fff"/><path d="M369.166 51.417h-5.001v32.807h5.001V51.417z" fill="#9468B4"/><path d="M378.448 47.712h-5.001v36.512h5.001V47.712z" fill="#fff"/><path d="M332.031 86.483h-5.001v.455h5.001v-.455zm9.284 0h-5.001v.455h5.001v-.455zm9.282 0h-5v.455h5v-.455zm9.283 0h-5v.455h5v-.455zm9.285 0h-5v.455h5v-.455zm9.283 0h-5.001v.455h5.001v-.455z" fill="#C7C7C7"/><path d="M321.583 81.947a31.7 31.7 0 015.255-7.05 13.66 13.66 0 011.751-1.41c.648-.412 1.305-.71 1.918-1.086a22.225 22.225 0 003.442-2.628 76.15 76.15 0 005.999-6.358A51.316 51.316 0 01346 56.97a16.359 16.359 0 013.809-2.4 13.95 13.95 0 014.379-1.033 30.36 30.36 0 018.828.815c1.407.322 2.849.47 4.292.438a12.385 12.385 0 004.16-1.043 35.65 35.65 0 007.461-4.545 33.563 33.563 0 01-7.286 4.94 12.943 12.943 0 01-4.3 1.2 18.298 18.298 0 01-4.441-.325 31.734 31.734 0 00-8.635-.683 12.934 12.934 0 00-4.133 1.007 15.69 15.69 0 00-3.582 2.304 49.528 49.528 0 00-5.982 6.332 65.589 65.589 0 01-6.13 6.332 23.046 23.046 0 01-3.609 2.627c-.657.376-1.34.674-1.935 1.033-.622.383-1.208.82-1.752 1.305a33.785 33.785 0 00-5.561 6.674z" fill="#263238"/><path d="M321.838 41.52l.114 10.676.079 10.676c.052 7.12.061 14.232.078 21.352l-.271-.263h32.106l16.044.088 16.054.157-16.054.158-16.044.087h-32.369v-.262c0-7.117.026-14.235.079-21.352l.079-10.676.105-10.64z" fill="#C7C7C7"/><path d="M221.972 73.022H136.53v45.033h85.442V73.022z" fill="#DBDBDB"/><path d="M216.498 78.697h-74.503v3.889h74.503v-3.889z" fill="#fff"/><path d="M171.527 78.697h-29.532v3.889h29.532v-3.889z" fill="#9468B4"/><path d="M216.498 86.142h-74.503v3.888h74.503v-3.888z" fill="#fff"/><path d="M208.887 86.142h-66.892v3.888h66.892v-3.888z" fill="#9468B4"/><path d="M216.498 93.586h-74.503v3.888h74.503v-3.888z" fill="#fff"/><path d="M169.223 93.586h-27.228v3.888h27.228v-3.888z" fill="#9468B4"/><path d="M216.498 101.03h-74.503v3.889h74.503v-3.889z" fill="#fff"/><path d="M196.793 101.03h-54.798v3.889h54.798v-3.889z" fill="#9468B4"/><path d="M216.498 108.474h-74.503v3.888h74.503v-3.888z" fill="#fff"/><path d="M177.648 108.474h-35.653v3.888h35.653v-3.888zM294.511 44.27c-1.953 16.342-12.453 19.32-14.222 23.646a75.75 75.75 0 00-2.207 8.356h-17.078a73.27 73.27 0 00-2.163-8.364c-1.752-4.38-12.261-7.392-14.1-23.734-1.226-10.746 6.883-27.675 24.951-27.63 18.067.043 26.089 16.998 24.819 27.726z" fill="#9468B4"/><path d="M260.778 50.136l-.861.159 5.002 27.174.861-.158-5.002-27.175zm17.65.027l-5.125 27.152.86.162 5.126-27.151-.861-.163z" fill="#fff"/><path d="M269.63 59.264c-1.331 0-2.679-1.069-3.791-3.004-.053-.088-.106-.175-.149-.263a2.065 2.065 0 01-1.463.797c-2.557 0-3.573-5.255-3.608-5.508l.429-.08c0 .053.981 5.141 3.179 5.15a1.754 1.754 0 001.244-.788c-1.077-2.216-1.673-5.123-.876-6.446a1.305 1.305 0 011.182-.691 1.54 1.54 0 011.41.805c.771 1.34.202 4.099-.814 5.85a5.163 5.163 0 01-.351.534c.071.15.149.28.228.42.596 1.043 1.83 2.786 3.416 2.786 1.059 0 2.119-.876 3.003-2.347l.21-.377a5.18 5.18 0 01-.604-.876c-1.051-1.839-1.27-4.562-.464-5.946a1.572 1.572 0 011.384-.876 1.197 1.197 0 011.077.666c.753 1.313.333 4.44-.876 6.9a2.453 2.453 0 001.752.719c1.558 0 2.951-3.73 3.354-5.167l.42.123c-.061.218-1.559 5.482-3.774 5.482a2.854 2.854 0 01-1.918-.745l-.158.28c-.814 1.183-1.909 2.602-3.442 2.602zm3.503-10.378a1.137 1.137 0 00-1.007.648c-.718 1.244-.499 3.818.464 5.508.131.221.277.432.438.63 1.069-2.293 1.472-5.183.806-6.34a.781.781 0 00-.701-.446zm-7.426 0a.876.876 0 00-.805.473c-.605 1.05-.211 3.608.875 5.832l.193-.306c.928-1.612 1.497-4.23.814-5.412a1.096 1.096 0 00-1.033-.587h-.044z" fill="#fff"/><path d="M280.077 75.602l-21.062-.051-.01 4.116 21.062.051.01-4.116zm-.019 4.782l-21.063-.052-.01 4.117 21.063.051.01-4.116zm.009 4.722l-21.062-.047-.009 4.116 21.062.048.009-4.117z" fill="#455A64"/><path d="M270.506 3.118c.55 2.24.513 4.583-.105 6.804a11.65 11.65 0 01-.385-3.406c-.001-1.15.164-2.295.49-3.398zm-19.137 4.668a11.84 11.84 0 012.041 2.767c.577.996 1.007 2.07 1.278 3.188a11.834 11.834 0 01-2.04-2.759 12.088 12.088 0 01-1.279-3.196zm-14.195 13.591a13.34 13.34 0 015.841 3.503 13.557 13.557 0 01-5.841-3.503zm-5.508 18.865a13.448 13.448 0 016.805.106 11.646 11.646 0 01-3.407.385 11.948 11.948 0 01-3.398-.49zm4.686 19.092a13.569 13.569 0 015.946-3.31 13.35 13.35 0 01-5.946 3.31zm65.736 1.454a13.338 13.338 0 01-5.841-3.503 13.551 13.551 0 015.841 3.503zm5.508-18.864a13.44 13.44 0 01-6.804-.105 11.635 11.635 0 013.407-.386c1.15 0 2.294.165 3.397.49zm-4.686-19.11a11.84 11.84 0 01-2.758 2.04 11.987 11.987 0 01-3.188 1.28 11.84 11.84 0 012.758-2.041 12.098 12.098 0 013.188-1.279zM289.336 8.627a13.329 13.329 0 01-3.503 5.84 13.558 13.558 0 013.503-5.84z" fill="#263238"/><path d="M299.026 185.211h-52.749v2.365h52.749v-2.365z" fill="#C7C7C7"/><path d="M272.822 185.211h-26.545v2.365h26.545v-2.365z" fill="#A6A6A6"/><path d="M269.967 187.575h-51.409l-6.717-34.917h51.408l6.718 34.917z" fill="#C7C7C7"/><path d="M244.034 170.121a2.819 2.819 0 01-2.855 3.126 3.502 3.502 0 01-3.406-3.126 2.819 2.819 0 012.855-3.127 3.503 3.503 0 013.406 3.127z" fill="#A6A6A6"/><path d="M189.997 182.189l-1.576-.201 8.118-61.726 29.453-16.167.762 1.393-28.743 15.781-8.014 60.92z" fill="#263238"/><path d="M195.033 120.761a2.242 2.242 0 101.383-2.074 2.224 2.224 0 00-1.214 1.214c-.113.273-.17.565-.169.86zm28.788-15.965a2.242 2.242 0 104.485-.002 2.242 2.242 0 00-4.485.002z" fill="#9468B4"/><path d="M241.124 106.845l-10.535 11.762-4.86-6.008-2.96-3.661 7.899-8.81 3.958 2.549 6.498 4.168z" fill="#9468B4"/><path opacity=".1" d="M241.126 106.845l-10.535 11.761-4.861-6.007 8.898-9.922 6.498 4.168z" fill="#000"/><path d="M256.4 112.652l-18.365 20.502-12.209-15.563 13.767-15.37 16.807 10.431zm-52.765 74.923h-27.176l1.664-8.539h23.848l1.664 8.539zm98.586-75.562a10.269 10.269 0 001.751-5.667c0-7.172-7.882-12.988-17.585-12.988-9.704 0-17.577 5.816-17.577 12.988 0 7.173 7.882 12.988 17.577 12.988a21.141 21.141 0 0012.129-3.591l6.061 1.542-2.356-5.272z" fill="#9468B4"/><path d="M280.063 106.345a1.82 1.82 0 01-2.177 1.787 1.822 1.822 0 112.177-1.787zm6.325 1.822a1.82 1.82 0 100-3.641 1.82 1.82 0 000 3.641zm8.151 0a1.822 1.822 0 100-3.645 1.822 1.822 0 000 3.645z" fill="#263238"/></svg>