<svg width="551" height="410" fill="none" xmlns="http://www.w3.org/2000/svg"><path d="M550.999 360.248H.835v.275h550.164v-.275zm-55.125 17.704h-36.443v.275h36.443v-.275zm-130.588 2.992h-9.561v.275h9.561v-.275zm93.043-13.203h-21.115v.275h21.115v-.275zm-352.247 1.848H58.559v.275h47.523v-.275zm16.768 0h-6.965v.275h6.965v-.275zm125.724 4.644H145.495v.275h103.079v-.275zm13.039-63.06H49.151a6.283 6.283 0 01-6.272-6.283V6.228A6.283 6.283 0 0149.15 0h212.462a6.282 6.282 0 016.283 6.283V304.89a6.285 6.285 0 01-6.283 6.283zM49.151.22a6.008 6.008 0 00-5.997 6.008V304.89a6.006 6.006 0 005.997 6.008h212.462a6.019 6.019 0 006.008-6.008V6.228A6.02 6.02 0 00261.613.22H49.151zm450.474 310.953H287.151a6.295 6.295 0 01-6.283-6.283V6.228A6.297 6.297 0 01287.151 0h212.474a6.283 6.283 0 016.26 6.228V304.89a6.28 6.28 0 01-6.26 6.283zM287.151.22a6.02 6.02 0 00-6.008 6.008V304.89a6.019 6.019 0 006.008 6.008h212.474a6.018 6.018 0 006.007-6.008V6.228A6.015 6.015 0 00499.625.22H287.151z" fill="#EBEBEB"/><path d="M390.275 47.468a5.367 5.367 0 00-5.425-5.38 5.5 5.5 0 00-1.551.22 11.39 11.39 0 00-11.223-13.039c-.705 0-1.408.063-2.102.186a9.955 9.955 0 00-11.129-4.43 9.958 9.958 0 00-7.335 9.47h-.165a9.189 9.189 0 000 18.364h33.693a5.391 5.391 0 005.237-5.391z" fill="#F0F0F0"/><path d="M370.491 55.512V45.026h-8.549v10.486h-6.965l11.245 9.507 11.245-9.507h-6.976z" fill="#E0E0E0"/><path d="M221.649 63.334a11.43 11.43 0 00-14.723-10.948c.178-1.161.266-2.335.264-3.51a24.206 24.206 0 00-24.207-24.207c-1.495 0-2.987.14-4.456.418a21.152 21.152 0 00-23.634-9.415 21.148 21.148 0 00-15.582 20.11h-.352a19.49 19.49 0 00-14.085 5.543 19.494 19.494 0 000 27.9 19.488 19.488 0 0014.085 5.542h71.576a11.42 11.42 0 0011.114-11.432z" fill="#F0F0F0"/><path d="M161.483 64.215v22.282h18.166V64.215h14.8l-23.888-20.18-23.877 20.18h14.799z" fill="#E0E0E0"/><path d="M230.771 118.979V89.017h91.746v29.664m-44.52-57.899v58.12" stroke="#E6E6E6" stroke-miterlimit="10"/><path d="M293.61 49.372h-31.205a1.31 1.31 0 00-1.309 1.309v18.563c0 .723.586 1.309 1.309 1.309h31.205a1.31 1.31 0 001.31-1.31V50.681a1.31 1.31 0 00-1.31-1.31z" fill="#F0F0F0"/><path d="M293.28 51.858h-30.556a.462.462 0 00-.462.463v16.923c0 .255.207.462.462.462h30.556a.462.462 0 00.462-.462V52.32a.462.462 0 00-.462-.463z" fill="#E0E0E0"/><path d="M246.374 116.261h-31.205a1.31 1.31 0 00-1.31 1.309v18.563a1.31 1.31 0 001.31 1.309h31.205c.723 0 1.309-.586 1.309-1.309V117.57c0-.723-.586-1.309-1.309-1.309z" fill="#F0F0F0"/><path d="M246.043 118.748h-30.556a.462.462 0 00-.463.462v16.923c0 .255.207.462.463.462h30.556a.462.462 0 00.462-.462V119.21a.462.462 0 00-.462-.462z" fill="#E0E0E0"/><path d="M293.61 116.261h-31.205c-.723 0-1.309.586-1.309 1.309v18.563c0 .723.586 1.309 1.309 1.309h31.205a1.31 1.31 0 001.31-1.309V117.57a1.31 1.31 0 00-1.31-1.309z" fill="#F0F0F0"/><path d="M293.28 118.748h-30.556a.462.462 0 00-.462.462v16.923c0 .255.207.462.462.462h30.556a.462.462 0 00.462-.462V119.21a.462.462 0 00-.462-.462z" fill="#E0E0E0"/><path d="M338.196 116.261h-31.205c-.723 0-1.309.586-1.309 1.309v18.563c0 .723.586 1.309 1.309 1.309h31.205a1.31 1.31 0 001.31-1.309V117.57a1.31 1.31 0 00-1.31-1.309z" fill="#F0F0F0"/><path d="M337.866 118.748H307.31a.462.462 0 00-.462.462v16.923c0 .255.207.462.462.462h30.556a.462.462 0 00.462-.462V119.21a.462.462 0 00-.462-.462zM277.365 79.94l-8.45 8.45a.891.891 0 000 1.26l8.45 8.45a.89.89 0 001.26 0l8.45-8.45a.891.891 0 000-1.26l-8.45-8.45a.89.89 0 00-1.26 0z" fill="#E0E0E0"/><path opacity=".8" d="M98.863 74.437H76.845a.957.957 0 00-.957.957v12.423c0 .529.428.957.957.957h22.018a.957.957 0 00.957-.957V75.394a.957.957 0 00-.957-.957z" fill="#E0E0E0"/><path d="M82.06 105.279H64.62a.958.958 0 00-.957.958v9.033c0 .529.429.958.957.958h17.44a.958.958 0 00.958-.958v-9.033a.958.958 0 00-.957-.958zm29.369 0h-17.44a.958.958 0 00-.958.958v9.033c0 .529.429.958.957.958h17.441a.958.958 0 00.957-.958v-9.033a.958.958 0 00-.957-.958zm-18.056 23.174H85.13a.957.957 0 00-.957.957v7.438c0 .529.428.957.957.957h8.242a.957.957 0 00.957-.957v-7.438a.957.957 0 00-.957-.957zm12.895 0h-8.241a.957.957 0 00-.958.957v7.438c0 .529.429.957.958.957h8.241a.956.956 0 00.957-.957v-7.438a.956.956 0 00-.957-.957zm12.907 0h-8.241a.956.956 0 00-.957.957v7.438c0 .529.428.957.957.957h8.241a.957.957 0 00.958-.957v-7.438a.957.957 0 00-.958-.957zm-55.655 0h-8.241a.957.957 0 00-.958.957v7.438c0 .529.429.957.958.957h8.241a.957.957 0 00.957-.957v-7.438a.957.957 0 00-.957-.957zm13.996 0h-8.241a.957.957 0 00-.958.957v7.438c0 .529.429.957.958.957h8.241a.957.957 0 00.957-.957v-7.438a.957.957 0 00-.957-.957zm24.088-23.174h1.1v-7.702H88.4v-8.803h-1.1v8.803H72.994v7.702h1.1v-6.602h27.509v6.602zm-28.609 17.606H58.69v5.501h1.1v-4.401h13.205v4.401h1.1v-12.103h-1.1v6.602zm29.708 1.1v-7.702h-1.101v7.702H88.398v4.401h1.1v-3.301h12.104v3.301h1.101v-3.301h12.103v3.301h1.101v-4.401h-13.204z" fill="#E0E0E0"/><path d="M420.061 77.881v7.944l4.071.386a21.248 21.248 0 003.037 7.306l-2.619 3.158 5.59 5.589 3.158-2.618a21.025 21.025 0 007.306 3.036l.363 4.05h7.9l.385-4.072a21.023 21.023 0 007.306-3.036l3.158 2.618 5.59-5.59-2.608-3.124a21.247 21.247 0 003.037-7.306l4.071-.386v-7.9l-4.071-.385a21.098 21.098 0 00-3.037-7.295l2.619-3.158-5.59-5.59-3.158 2.608a21.25 21.25 0 00-7.306-3.037l-.385-4.071h-7.911l-.385 4.071a21.25 21.25 0 00-7.306 3.037l-3.158-2.608-5.59 5.59 2.619 3.158a21.098 21.098 0 00-3.037 7.295l-4.049.33zm24.878-6.745a10.706 10.706 0 11-.011 0h.011z" fill="#F5F5F5"/><path d="M425.154 135.561a16.586 16.586 0 005.722-2.388l2.476 2.058 4.401-4.402-2.047-2.476a16.622 16.622 0 002.377-5.721l3.191-.308v-6.195l-3.191-.297a16.542 16.542 0 00-2.377-5.722l2.047-2.476-4.401-4.401-2.476 2.047a16.542 16.542 0 00-5.722-2.377l-.297-3.191h-6.195l-.297 3.191a16.529 16.529 0 00-5.721 2.377l-2.487-2.003-4.402 4.401 2.047 2.476a16.58 16.58 0 00-2.377 5.722l-3.191.297v6.195l3.191.308a16.661 16.661 0 002.377 5.721l-2.047 2.454 4.402 4.402 2.475-2.058a16.603 16.603 0 005.722 2.388l.297 3.18h6.195l.308-3.202zm-11.784-16.307a8.402 8.402 0 011.409-4.668 8.401 8.401 0 018.617-3.579 8.4 8.4 0 016.603 6.594 8.403 8.403 0 01-3.568 8.622 8.397 8.397 0 01-13.061-6.969z" fill="#F5F5F5"/><path d="M411.335 102.034l2.079 1.716 3.687-3.675-1.728-2.08a13.898 13.898 0 002.003-4.808l2.673-.253V87.74l-2.673-.253a13.898 13.898 0 00-2.003-4.808l1.728-2.08-3.643-3.675-2.079 1.717a13.925 13.925 0 00-4.798-2.003l-.253-2.674h-5.204l-.253 2.674a13.884 13.884 0 00-4.809 2.003l-2.079-1.717-3.675 3.675 1.716 2.08a13.887 13.887 0 00-1.992 4.808l-2.684.254v5.193l2.684.253a13.887 13.887 0 001.992 4.809l-1.76 2.134 3.675 3.675 2.079-1.716a13.651 13.651 0 004.809 1.991l.253 2.685h5.204l.253-2.685a13.684 13.684 0 004.798-2.046zm-14.701-11.697a7.04 7.04 0 018.416-6.907 7.045 7.045 0 015.133 9.602 7.043 7.043 0 01-13.549-2.695zm87.675 205.684h-73.887v48.052h73.887v-48.052z" fill="#F5F5F5"/><path d="M481.591 305.033h-68.474v36.641h68.474v-36.641z" fill="#E0E0E0"/><path d="M469.354 310.513h-50.659v1.574h50.659v-1.574zm-26.352 4.819h-24.307v1.574h24.307v-1.574zm6.304 4.831h-30.611v1.573h30.611v-1.573zm-19.827 4.83h-10.784v1.574h10.784v-1.574zm-3.797 4.831h-6.987v1.573h6.987v-1.573z" fill="#F5F5F5"/><path d="M106.014 295.75l-52.574.238.148 32.427 52.573-.239-.147-32.426z" fill="#EBEBEB"/><path d="M73.61 320.262a1.097 1.097 0 01-.65-.209l-9.583-7.009a1.098 1.098 0 01-.451-.88 1.104 1.104 0 01.44-.892l9.529-7.097a1.101 1.101 0 011.31 1.772l-8.33 6.206 8.384 6.117a1.104 1.104 0 01.401 1.233 1.098 1.098 0 01-1.05.759zm12.456-.066a1.096 1.096 0 01-1.075-.829 1.1 1.1 0 01.415-1.152l8.33-6.206-8.385-6.117a1.103 1.103 0 01.491-1.976c.29-.043.584.03.819.204l9.583 6.998a1.107 1.107 0 01.335 1.383 1.105 1.105 0 01-.324.389l-9.528 7.097a1.101 1.101 0 01-.66.209zm-8.736.054a1.073 1.073 0 01-.364-.066 1.098 1.098 0 01-.67-1.397l4.94-14.128a1.101 1.101 0 112.08.726l-4.941 14.128a1.097 1.097 0 01-1.046.737z" fill="#FAFAFA"/><path d="M275.918 409.939c117.826 0 213.343-5.577 213.343-12.456s-95.517-12.456-213.343-12.456-213.343 5.577-213.343 12.456 95.517 12.456 213.343 12.456z" fill="#F5F5F5"/><path d="M368.764 397.483h8.087l11.003-60.782h-8.087l-11.003 60.782z" fill="#263238"/><path opacity=".2" d="M368.764 397.483h8.087l11.003-60.782h-8.087l-11.003 60.782z" fill="#fff"/><path opacity=".2" d="M368.764 397.483h5.886l11.004-60.782h-5.887l-11.003 60.782z" fill="#fff"/><path d="M345.998 354.779h32.339a1.78 1.78 0 001.264-.519 1.77 1.77 0 00.519-1.264 1.776 1.776 0 00-1.783-1.782h-32.339a1.77 1.77 0 00-1.782 1.782 1.77 1.77 0 001.782 1.783zm-3.597 20.356h32.349a1.791 1.791 0 001.783-1.793 1.799 1.799 0 00-.525-1.258 1.799 1.799 0 00-1.258-.525h-32.349a1.799 1.799 0 00-1.258.525 1.799 1.799 0 00-.525 1.258 1.795 1.795 0 001.783 1.793z" fill="#263238"/><path d="M335.754 397.483h8.087l11.004-60.782h-8.088l-11.003 60.782z" fill="#263238"/><path opacity=".2" d="M335.754 397.483h8.087l11.004-60.782h-8.088l-11.003 60.782z" fill="#fff"/><path opacity=".2" d="M335.754 397.483h5.887l11.003-60.782h-5.887l-11.003 60.782z" fill="#fff"/><path d="M410.962 397.483h-8.088l-11.003-60.782h8.088l11.003 60.782z" fill="#263238"/><path opacity=".4" d="M410.962 397.483h-8.088l-11.003-60.782h8.088l11.003 60.782z" fill="#fff"/><path opacity=".2" d="M408.761 397.483h-5.887l-11.003-60.782h5.887l11.003 60.782z" fill="#fff"/><path d="M396.756 354.779h-32.349a1.784 1.784 0 01-1.261-3.043 1.784 1.784 0 011.261-.522h32.349a1.786 1.786 0 011.783 1.782 1.784 1.784 0 01-1.783 1.783zm3.588 20.356h-32.339a1.778 1.778 0 01-1.782-1.793 1.78 1.78 0 011.782-1.783h32.339a1.782 1.782 0 011.782 1.783 1.766 1.766 0 01-.518 1.267 1.77 1.77 0 01-1.264.526z" fill="#263238"/><path opacity=".2" d="M396.756 354.779h-32.349a1.784 1.784 0 01-1.261-3.043 1.784 1.784 0 011.261-.522h32.349a1.786 1.786 0 011.783 1.782 1.784 1.784 0 01-1.783 1.783zm3.588 20.356h-32.339a1.778 1.778 0 01-1.782-1.793 1.78 1.78 0 011.782-1.783h32.339a1.782 1.782 0 011.782 1.783 1.766 1.766 0 01-.518 1.267 1.77 1.77 0 01-1.264.526z" fill="#fff"/><path d="M377.951 397.483h-8.087l-11.004-60.782h8.088l11.003 60.782z" fill="#263238"/><path opacity=".4" d="M377.951 397.483h-8.087l-11.004-60.782h8.088l11.003 60.782z" fill="#fff"/><path opacity=".2" d="M375.75 397.483h-5.886l-11.004-60.782h5.887l11.003 60.782z" fill="#fff"/><path d="M403.105 333.796h-58.417c-.723 0-1.309.586-1.309 1.309v3.18c0 .723.586 1.31 1.309 1.31h58.417a1.31 1.31 0 001.309-1.31v-3.18c0-.723-.586-1.309-1.309-1.309z" fill="#263238"/><path opacity=".2" d="M366.893 333.796h-22.205c-.723 0-1.309.586-1.309 1.309v3.18c0 .723.586 1.31 1.309 1.31h22.205a1.31 1.31 0 001.309-1.31v-3.18c0-.723-.586-1.309-1.309-1.309z" fill="#fff"/><path d="M214.685 348.64h-73.887v48.051h73.887V348.64z" fill="#9468B4"/><path opacity=".6" d="M214.685 348.64h-73.887v48.051h73.887V348.64z" fill="#fff"/><path d="M211.989 357.651h-68.484v36.641h68.484v-36.641z" fill="#9468B4"/><path d="M199.743 363.12h-50.659v1.574h50.659v-1.574zm-26.353 4.831h-24.306v1.573h24.306v-1.573zm6.305 4.83h-30.611v1.574h30.611v-1.574zm-19.828 4.819h-10.783v1.574h10.783V377.6zm-3.796 4.831h-6.987v1.573h6.987v-1.573z" fill="#fff"/><path d="M305.989 397.483h-60.144l10.178-79.961h39.788l10.178 79.961z" fill="#9468B4"/><path opacity=".6" d="M305.989 397.483h-60.144l6.965-54.708 3.224-25.253H295.8l4.753 37.258 5.436 42.703z" fill="#fff"/><path opacity=".1" d="M300.554 354.78l-47.743-12.005 3.224-25.253H295.8l4.754 37.258z" fill="#000"/><path d="M417.717 120.354H134.118a7.25 7.25 0 00-7.251 7.262v191.986a7.25 7.25 0 007.251 7.251h283.599a7.249 7.249 0 007.251-7.251V127.638a7.249 7.249 0 00-7.251-7.284z" fill="#9468B4"/><path opacity=".7" d="M417.717 120.354H134.118a7.25 7.25 0 00-7.251 7.262v191.986a7.25 7.25 0 007.251 7.251h283.599a7.249 7.249 0 007.251-7.251V127.638a7.249 7.249 0 00-7.251-7.284z" fill="#fff"/><path d="M415.428 127.462h-279.01v185.131h279.01V127.462zm-89.006 264.013H225.401c-.632 0-1.144.512-1.144 1.144v3.621c0 .632.512 1.144 1.144 1.144h101.021c.632 0 1.145-.512 1.145-1.144v-3.621c0-.632-.513-1.144-1.145-1.144z" fill="#9468B4"/><path opacity=".7" d="M326.422 391.475H225.401c-.632 0-1.144.512-1.144 1.144v3.621c0 .632.512 1.144 1.144 1.144h101.021c.632 0 1.145-.512 1.145-1.144v-3.621c0-.632-.513-1.144-1.145-1.144z" fill="#fff"/><path opacity=".2" d="M415.428 127.638h-279.01v27.596h279.01v-27.596z" fill="#000"/><path opacity=".4" d="M255.98 155.564H136.418v157.028H255.98V155.564z" fill="#fff"/><path d="M372.482 195.617v2.751h-2.751" stroke="#fff" stroke-miterlimit="10"/><path d="M363.923 198.368h-90.117" stroke="#fff" stroke-miterlimit="10" stroke-dasharray="5.28 5.28"/><path d="M270.899 198.368h-2.751v-2.751" stroke="#fff" stroke-miterlimit="10"/><path d="M268.148 190.632v-47.347" stroke="#fff" stroke-miterlimit="10" stroke-dasharray="4.53 4.53"/><path d="M268.148 140.798v-2.751h2.751" stroke="#fff" stroke-miterlimit="10"/><path d="M276.71 138.047h90.117" stroke="#fff" stroke-miterlimit="10" stroke-dasharray="5.28 5.28"/><path d="M369.731 138.047h2.751v2.751" stroke="#fff" stroke-miterlimit="10"/><path d="M372.482 145.783v47.347" stroke="#fff" stroke-miterlimit="10" stroke-dasharray="4.53 4.53"/><path d="M374.232 136.298h-3.488v3.488h3.488v-3.488zm0 60.331h-3.488v3.488h3.488v-3.488zm-104.345-60.331h-3.488v3.488h3.488v-3.488zm0 60.331h-3.488v3.488h3.488v-3.488zm52.179-60.331h-3.488v3.488h3.488v-3.488zm0 60.331h-3.488v3.488h3.488v-3.488zm52.166-30.171h-3.488v3.488h3.488v-3.488zm-104.345 0h-3.488v3.488h3.488v-3.488z" fill="#9468B4" stroke="#fff" stroke-miterlimit="10"/><path opacity=".7" d="M363.009 158.304H337.47a2.08 2.08 0 00-2.079 2.08v6.833a2.08 2.08 0 002.079 2.079h25.539a2.08 2.08 0 002.08-2.079v-6.833a2.08 2.08 0 00-2.08-2.08zm-44.013 0h-25.538a2.08 2.08 0 00-2.08 2.08v6.833a2.08 2.08 0 002.08 2.079h25.538a2.08 2.08 0 002.08-2.079v-6.833a2.08 2.08 0 00-2.08-2.08zm-56.656 133.79h-25.539a2.08 2.08 0 00-2.079 2.079v6.833a2.08 2.08 0 002.079 2.08h25.539a2.08 2.08 0 002.08-2.08v-6.833a2.08 2.08 0 00-2.08-2.079z" fill="#fff"/><path d="M397.009 137.453h9.287m-9.287 4.401h9.287m-9.287 4.402h9.287" stroke="#fff" stroke-width="1.5" stroke-linecap="round" stroke-linejoin="round"/><path opacity=".5" d="M248.915 179.904h-93.583v93.583h93.583v-93.583z" fill="#fff"/><path d="M194.505 187.551v80.731m40.36 0a40.37 40.37 0 01-40.371-40.371v0a40.36 40.36 0 0140.36-40.36v0" stroke="#9468B4" stroke-miterlimit="10"/><path d="M236.614 185.812h-3.488v3.489h3.488v-3.489zm0 80.721h-3.488v3.488h3.488v-3.488zm-40.359-40.361h-3.488v3.488h3.488v-3.488zm-.849-38.62a.903.903 0 11-.902-.903.915.915 0 01.902.903zm0 80.73a.906.906 0 01-.554.833.908.908 0 01-.982-.191.9.9 0 01.623-1.544.9.9 0 01.913.902z" fill="#fff" stroke="#9468B4" stroke-miterlimit="10"/><path opacity=".7" d="M349.563 293.425h-28.334a8.186 8.186 0 010-16.373h28.334a8.19 8.19 0 015.789 2.397 8.19 8.19 0 01-5.789 13.976zm24.89-69.816h-87.532a1.797 1.797 0 01-1.793-1.794 1.785 1.785 0 011.793-1.749h87.521a1.767 1.767 0 011.656 1.098c.091.217.137.449.137.684a1.792 1.792 0 01-1.782 1.761zm0 13.061h-87.532a1.786 1.786 0 01-1.268-3.051 1.797 1.797 0 011.268-.525h87.521a1.795 1.795 0 011.793 1.793 1.786 1.786 0 01-1.782 1.783zm-.001 13.105H319.93a1.793 1.793 0 01-1.793-1.783 1.795 1.795 0 011.793-1.793h54.511a1.797 1.797 0 011.793 1.793 1.799 1.799 0 01-.525 1.258 1.798 1.798 0 01-1.257.525z" fill="#fff"/><path opacity=".4" d="M151.415 135.286h-6.184v6.184h6.184v-6.184zm10.431 0h-3.014c-.876 0-1.585.709-1.585 1.584v3.015c0 .875.709 1.585 1.585 1.585h3.014c.876 0 1.585-.71 1.585-1.585v-3.015c0-.875-.709-1.584-1.585-1.584zm10.784 0h-.528a2.828 2.828 0 00-2.828 2.827v.529a2.828 2.828 0 002.828 2.828h.528a2.828 2.828 0 002.828-2.828v-.529a2.828 2.828 0 00-2.828-2.827z" fill="#000"/><path opacity=".9" d="M164.179 287.736v-2.409l-1.233-.11a6.76 6.76 0 00-.924-2.201l.792-.957-1.705-1.706-.957.792a6.821 6.821 0 00-2.201-.924l-.11-1.232h-2.41l-.121 1.232a6.866 6.866 0 00-2.201.924l-.957-.792-1.705 1.706.792.957a6.354 6.354 0 00-.924 2.201l-1.244.11v2.409l1.244.121c.167.785.48 1.532.924 2.201l-.792.968 1.705 1.695.957-.792c.67.443 1.416.757 2.201.924l.121 1.243h2.41l.11-1.243a6.381 6.381 0 002.201-.924l.957.792 1.705-1.695-.792-.968a6.585 6.585 0 00.924-2.201l1.233-.121zm-7.581 2.058a3.304 3.304 0 01-3.05-2.038 3.302 3.302 0 014.313-4.313 3.303 3.303 0 011.071 5.384 3.302 3.302 0 01-2.334.967z" fill="#fff"/><path opacity=".6" d="M173.95 294.536v-1.848l-.968-.099a5.077 5.077 0 00-.727-1.739l.617-.759-1.332-1.332-.748.628a5.131 5.131 0 00-1.75-.727l-.088-.979h-1.892l-.088.979a5.14 5.14 0 00-1.75.727l-.748-.628-1.342 1.332.627.759a5.055 5.055 0 00-.726 1.739l-.969.099v1.881l.969.099c.131.62.377 1.21.726 1.739l-.627.759 1.342 1.331.748-.627a5.118 5.118 0 001.75.726l.088.969h1.892l.088-.969a5.11 5.11 0 001.75-.726l.748.627 1.332-1.331-.617-.759a5.077 5.077 0 00.727-1.739l.968-.132zm-5.942 1.618a2.569 2.569 0 01-2.376-1.575 2.568 2.568 0 01.548-2.798 2.566 2.566 0 013.948.383c.282.422.433.918.433 1.426a2.56 2.56 0 01-2.553 2.564z" fill="#fff"/><path opacity=".4" d="M164.18 299.895v-1.585l-.815-.077a4.281 4.281 0 00-.605-1.463l.528-.627-1.1-1.101-.638.518a4.3 4.3 0 00-1.464-.606l-.077-.814h-1.606l-.077.814a4.316 4.316 0 00-1.464.606l-.638-.518-1.1 1.101.528.627a4.281 4.281 0 00-.605 1.463l-.825.077v1.585l.825.077a4.25 4.25 0 00.605 1.474l-.528.627 1.1 1.101.638-.528c.444.298.941.508 1.464.616l.077.814h1.584l.077-.814a4.11 4.11 0 001.464-.616l.638.528 1.1-1.101-.528-.627a4.25 4.25 0 00.605-1.474l.837-.077zm-4.985 1.353a2.146 2.146 0 11.112-4.288 2.146 2.146 0 01-.112 4.288z" fill="#fff"/><path d="M371.844 137.42l4.665 12.478 7.801-7.813-12.466-4.665z" fill="#9468B4"/><path d="M379.359 143.19l-1.743 1.743 3.867 3.867 1.743-1.743-3.867-3.867z" fill="#9468B4"/><path opacity=".4" d="M384.31 142.085l-12.466-4.665 4.665 12.478 3.037-3.037 1.926 1.936 1.738-1.738-1.925-1.937 3.025-3.037z" fill="#fff"/><path d="M180.696 182.017l11.74 4.401-6.151-6.151a1.196 1.196 0 01-1.441-.187 1.213 1.213 0 111.716-1.716 1.195 1.195 0 01.187 1.441l6.151 6.151-4.401-11.741-3.895.859-.143-1.398-.737-.737-4.314 4.313.737.737 1.409.144-.858 3.884z" fill="#263238"/><path opacity=".2" d="M180.696 182.017l11.74 4.401-6.151-6.151a1.196 1.196 0 01-1.441-.187 1.213 1.213 0 111.716-1.716 1.195 1.195 0 01.187 1.441l6.151 6.151-4.401-11.741-3.895.859-.143-1.398-.737-.737-4.314 4.313.737.737 1.409.144-.858 3.884z" fill="#fff"/><path opacity=".1" d="M177.218 127.462L135.867 281.97V127.462h41.351zm46.664 0l-49.548 185.13h-34.132l49.537-185.13h34.143zm49.626 0l-49.548 185.13h-15.438l49.548-185.13h15.438zm45.696 0l-49.548 185.13h-5.523l49.548-185.13h5.523z" fill="#fff"/><path d="M487.07 168.35c3.906 4.5 23.778 42.781 19.938 51.716-3.84 8.934-35.684-1.365-35.684-1.365l1.904-12.621s12.368.441 13.556-.737c1.188-1.177-16.736-19.069-16.736-19.069l17.022-17.924z" fill="#263238"/><path opacity=".2" d="M506.986 220.066a4.817 4.817 0 01-2.321 2.354l-.638.286h-.088c-.197.083-.4.153-.606.209-.894.287-1.816.479-2.751.573l-.803.077c-.396 0-.792.055-1.199.066h-1.1c-10.674 0-26.199-5.007-26.199-5.007l1.903-12.621s12.368.44 13.556-.737c.286-.286-.561-1.562-2.002-3.301-3.499-4.302-10.508-11.465-13.402-14.392l-1.31-1.321 17.044-17.902c3.907 4.456 23.779 42.737 19.916 51.716z" fill="#fff"/><path opacity=".2" d="M504.686 222.387l-.638.286h-.088c-.197.083-.4.153-.606.209-.894.287-1.816.479-2.75.572l-.804.077c-.396 0-.792.055-1.199.066h-1.1c-10.674 0-26.199-5.006-26.199-5.006l1.903-12.621s13.93 1.178 15.119 0c.22-.462-1.321-2.024-3.598-4.016-3.499-4.302-10.508-11.465-13.402-14.392l8.054-8.605 6.129-.66s13.567 21.962 19.179 44.09z" fill="#000"/><path d="M446.92 167.052c-2.201 1.596-3.301 3.862-2.421 5.062l58.142 80.159c.869 1.199 3.367.869 5.567-.727 2.201-1.595 3.301-3.873 2.421-5.061l-58.141-80.17c-.87-1.189-3.356-.869-5.568.737z" fill="#263238"/><path opacity=".7" d="M452.486 166.315l58.141 80.159c.87 1.188-.22 3.455-2.42 5.061-2.201 1.607-4.699 1.915-5.557.726l-58.141-80.169a2.49 2.49 0 01.209-2.663 6.436 6.436 0 011.1-1.442 7.993 7.993 0 011.1-.946c2.212-1.584 4.699-1.915 5.568-.726z" fill="#fff"/><path opacity=".3" d="M510.627 246.473c.87 1.189-.22 3.455-2.42 5.062-2.201 1.606-4.699 1.914-5.557.726-.484-.66.715-1.662 1.42-3.103l-59.352-79.708a6.43 6.43 0 011.1-1.441l58.152 80.17c.342-.347.71-.667 1.101-.958 2.2-1.606 4.687-1.936 5.556-.748z" fill="#000"/><path d="M439.723 164.829c-1.859 1.981-2.497 4.401-1.419 5.425l72.291 67.681c1.101 1.012 3.467.22 5.326-1.772 1.86-1.991 2.498-4.401 1.419-5.435l-72.291-67.682c-1.078-1.001-3.466-.198-5.326 1.783z" fill="#9468B4"/><path opacity=".7" d="M445.048 163.058l72.292 67.681c1.1 1.001.44 3.433-1.42 5.424-1.859 1.992-4.247 2.773-5.325 1.772l-72.292-67.681a2.525 2.525 0 01-.297-2.663 6.84 6.84 0 01.814-1.629c.272-.389.574-.757.903-1.1 1.859-2.013 4.247-2.817 5.325-1.804z" fill="#fff"/><path opacity=".3" d="M517.341 230.739c1.1 1.001.44 3.433-1.42 5.424-1.859 1.992-4.247 2.773-5.325 1.772-.595-.561.396-1.761.814-3.301l-73.403-67.021a6.803 6.803 0 01.814-1.629l72.303 67.693c.266-.391.564-.76.891-1.101 1.86-2.057 4.247-2.85 5.326-1.837z" fill="#000"/><path d="M457.096 380.824l-5.501.088c-5.601-26.309-9.562-58.868-12.027-83.427-.385-3.851-.737-7.493-1.1-10.893-.143-1.618-.286-3.169-.418-4.666-.66-7.383-1.101-13.204-1.387-16.857-.198-2.64-.297-4.093-.297-4.093h20.004l-.187 5.073-.66 16.736-.066 1.914-.418 11.058-.693 18.827c6.833 26.518 2.75 66.24 2.75 66.24zm44.674-1.409l-5.424 1.024c-10.861-27.146-21.061-61.905-27.696-86.189a1823.82 1823.82 0 01-2.816-10.475c0-.165-.077-.319-.121-.473a1268.305 1268.305 0 01-3.764-14.591l-.957-3.884 19.586-3.389 1.1 8.252 1.64 12.104.319 2.377 1.1 8.263 2.982 22.161c11.312 24.977 14.051 64.82 14.051 64.82z" fill="#fff"/><path opacity=".2" d="M483.373 281.816l-17.54 1.958c0-.165-.077-.319-.121-.473a1264.717 1264.717 0 01-3.763-14.59l19.806.979 1.618 12.126zm-27.233-15.767l-.616 16.736-.066 1.914-16.945 1.882c-.144-1.617-.287-3.169-.419-4.665-.66-7.384-1.1-13.204-1.386-16.857l19.432.99z" fill="#000"/><path d="M440.823 399.112a10.981 10.981 0 013.444-1.893s3.752-3.719 5.567-14.92l4.908-1.288a4.202 4.202 0 014.467 1.75c.136.199.239.418.308.649.254 1.201.43 2.418.528 3.642.275 4.095.301 8.203.077 12.302h-.891l-.352-7.703c-.132-2.629-2.146.451-2.718 3.301-.572 2.85-1.793 5.821-7.537 5.964-6.712.099-9.496-.165-7.801-1.804z" fill="#263238"/><path d="M459.385 382.914c.319-2.618.418-7.174.418-7.174l-10.915 1.211s1.32 5.182.231 9.077a208.664 208.664 0 0010.266-3.114zm25.847 16.197a11.002 11.002 0 013.444-1.881s3.753-3.719 5.557-14.921l4.919-1.287a4.198 4.198 0 012.507.175 4.198 4.198 0 011.96 1.574c.135.2.239.419.308.65.254 1.201.43 2.418.528 3.642.273 4.095.295 8.203.066 12.301h-.836l-.352-7.702c-.132-2.63-2.146.451-2.718 3.301-.572 2.85-1.793 5.821-7.548 5.964-6.745.088-9.529-.176-7.835-1.816z" fill="#263238"/><path d="M503.784 382.914c.33-2.618.429-7.174.429-7.174l-10.915 1.211s1.32 5.182.231 9.077a205.523 205.523 0 0010.255-3.114z" fill="#263238"/><path d="M485.266 276.414l-20.764 2.652-.803.099-4.269-15.647-1.1 16.769-22.249-1.166c-9.903-58.175 7.031-71.918 7.031-71.918l30.182 6.074c13.666 23.239 10.42 50.241 10.42 50.241l1.552 12.896z" fill="#9468B4"/><path d="M456.678 134.724c0 2.289-1.012 4.137-2.2 4.137-1.189 0-2.267-1.848-2.267-4.137 0-2.289 1.012-4.137 2.267-4.137 1.254 0 2.2 1.848 2.2 4.137z" stroke="#263238" stroke-width=".5" stroke-linecap="round" stroke-linejoin="round"/><path d="M471.588 148.544c-.08.075-.169.142-.264.198a11.96 11.96 0 01-4.214 2.058c-4.456 1.034-7.504.418-9.496-1.596-2.784-3.026-3.477-8.384-3.081-14.854a24.49 24.49 0 011.409-7.549v-.121c0-.022.066-.187.11-.275a8.794 8.794 0 016.492-5.38 17.761 17.761 0 013.818-.429c12.621-.099 14.887 20.785 5.226 27.948z" fill="#fff"/><path opacity=".2" d="M471.324 148.775a11.667 11.667 0 01-4.214 1.882c-4.456 1.034-7.504.275-9.496-1.772 2.667.66 5.477.428 8-.66a6.602 6.602 0 015.71.55z" fill="#000"/><path d="M472.601 160.164c.781 3.587-3.873 5.05-3.873 5.05-7.604-3.301-9.012-7.295-9.012-7.295 6.349-3.301 4.511-12.665 4.511-12.665l1.288.639 9.055 1.771s-2.509 4.82-2.839 5.92c-1.716 5.777.87 6.58.87 6.58z" fill="#fff"/><path d="M455.93 126.747s-.693 8.803 7.702 12.643c0 0 3.598 9.188 8.891 9.309 7.229.176 13.589-10.09 11.091-20.554-3.268-13.578-23.833-14.679-27.684-1.398z" fill="#263238"/><path d="M459.364 136.848c0-1.375 1.101-3.697 3.301-3.378 2.201.319 3.455 5.799-2.002 7.02-.826.176-1.299-.748-1.299-3.642z" fill="#fff"/><path d="M471.324 117.35s-8.428-2.135-13.094 1.265c-5.446 3.962-7.515 8.055-1.1 14.415 0 0 14.161-4.589 18.871-3.62a50.512 50.512 0 018.076 2.343c1.023-9.353-8.043-16.318-12.753-14.403z" fill="#263238"/><path d="M459.364 134.724s2.2 10.189-1.255 18.882c0 0 20.026 6.943 26.991 3.169 6.966-3.774.584-16.439.287-23.745-.298-7.306-3.466-18.101-14.063-15.68-10.596 2.421-11.96 17.374-11.96 17.374z" fill="#263238"/><path d="M452.156 134.075h8.462" stroke="#263238" stroke-width=".5" stroke-linecap="round" stroke-linejoin="round"/><path opacity=".2" d="M464.502 279.065l-.803.099-4.269-15.647s9.154-15.635 6.294-23.778c.407.572 10.266 15.196-1.222 39.326z" fill="#000"/><path d="M447.359 159.371s10.068-3.587 25.242.793c15.173 4.379 15.745 10.838 15.745 10.838s-9.617 21.797-11.135 46.478l-39.546-1.475s-4.72-34.836 9.694-56.634z" fill="#263238"/><path opacity=".2" d="M488.345 171.002s-9.617 21.798-11.135 46.478l-39.546-1.474a106.22 106.22 0 01-.726-12.104 118.05 118.05 0 011.1-17.704c1.321-9.133 4.039-18.882 9.32-26.87 0 0 10.068-3.587 25.242.792 15.173 4.379 15.745 10.882 15.745 10.882z" fill="#fff"/><path opacity=".2" d="M446.809 187.727s-1.64 10.035-9.903 16.219c-.078-5.921.29-11.839 1.1-17.704l8.803 1.485z" fill="#000"/><path d="M403.115 158.679l-4.985-7.395s-.759-3.213-1.727-3.939c-.968-.726-10.541-4.808-11.697-4.786-1.155.022-1.1 7.46 0 8.725 1.101 1.266 7.197 3.972 8.803 4.248 1.606.275.814 0 .814 0l4.402 8.802 4.39-5.655z" fill="#fff"/><path d="M447.36 159.372a216.699 216.699 0 00-30.81 15.91l-16.097-22.006s-4.336 1.342-5.942 8.891c0 0 8.263 31.48 19.002 34.605 10.74 3.125 33.318-9.1 33.318-9.1s6.536-16.351.529-28.3z" fill="#263238"/><path opacity=".2" d="M447.36 159.372a216.699 216.699 0 00-30.81 15.91l-16.097-22.006s-4.336 1.342-5.942 8.891c0 0 8.263 31.48 19.002 34.605 10.74 3.125 33.318-9.1 33.318-9.1s6.536-16.351.529-28.3z" fill="#fff"/><path d="M457.537 157.985s3.51 25.132 14.634 26.144c11.125 1.012 16.109-17.605 14.228-19.806-1.882-2.201-16.219-6.503-28.862-6.338z" fill="#263238"/><path opacity=".3" d="M457.537 157.985s3.51 25.132 14.634 26.144c11.125 1.012 16.109-17.605 14.228-19.806-1.882-2.201-16.219-6.503-28.862-6.338z" fill="#fff"/><path d="M61.75 389.154h8.153l.672-18.882H62.42l-.671 18.882z" fill="#fff"/><path d="M71.025 388.207h-9.903a.692.692 0 00-.693.561l-1.606 7.252a1.197 1.197 0 00.924 1.43h.264c3.202-.055 5.502-.253 9.551-.253 2.487 0 9.903.264 13.38.264 3.477 0 3.862-3.378 2.465-3.686-6.283-1.375-11.004-3.301-13.017-5.073a1.987 1.987 0 00-1.365-.495z" fill="#263238"/><path d="M71.587 389.341a.205.205 0 01-.097-.061.203.203 0 01-.046-.104.176.176 0 01.087-.187c.298-.187 2.927-1.805 3.83-1.343a.575.575 0 01.33.539 1.102 1.102 0 01-.407 1.035 2.372 2.372 0 01-1.563.418 10.117 10.117 0 01-2.134-.297zm.56-.275c.952.322 1.99.271 2.906-.143a.797.797 0 00.253-.694c0-.154-.066-.231-.121-.231a.505.505 0 00-.253-.055 7.985 7.985 0 00-2.784 1.123z" fill="#9468B4"/><path d="M71.533 389.374a.195.195 0 01-.088-.176c0-.11.209-2.454 1.1-3.224a.995.995 0 01.814-.242.647.647 0 01.627.506c.165.858-1.463 2.652-2.31 3.114h-.088l-.055.022zm1.31-3.158a4.577 4.577 0 00-.958 2.553c.836-.638 1.87-1.992 1.771-2.52 0 0 0-.198-.286-.198h-.088a.649.649 0 00-.44.165z" fill="#9468B4"/><path opacity=".2" d="M62.42 370.283h8.154l-.352 9.738h-8.154l.352-9.738z" fill="#000"/><path d="M103.705 389.759l8.418.891 1.573-18.133-8.406-.892-1.585 18.134z" fill="#fff"/><path d="M113.004 387.943h-9.837a.721.721 0 00-.693.562l-1.607 7.262a1.196 1.196 0 00.445 1.254c.127.094.271.161.424.198H102c3.202-.055 5.502-.253 9.562-.253 2.476 0 9.903.253 13.369.253 3.466 0 3.862-3.378 2.465-3.686-6.283-1.364-11.003-3.301-13.017-5.072a2.037 2.037 0 00-1.375-.518z" fill="#263238"/><path d="M113.564 389.077a.206.206 0 01-.097-.061.2.2 0 01-.046-.104.162.162 0 01.099-.187c.286-.187 2.915-1.805 3.818-1.332a.556.556 0 01.33.529 1.167 1.167 0 01-.396 1.045 2.477 2.477 0 01-1.574.407 10.049 10.049 0 01-2.134-.297zm.561-.264a3.96 3.96 0 002.905-.154.78.78 0 00.253-.693c0-.154-.066-.22-.121-.22a.39.39 0 00-.242-.055 7.7 7.7 0 00-2.751 1.122h-.044z" fill="#9468B4"/><path d="M113.52 389.121a.2.2 0 01-.072-.075.201.201 0 01-.027-.101c0-.121.209-2.454 1.155-3.224a1.11 1.11 0 01.814-.253.643.643 0 01.628.506c.165.869-1.464 2.663-2.311 3.114h-.088l-.099.033zm1.298-3.169a4.554 4.554 0 00-.957 2.542c.836-.627 1.871-1.992 1.772-2.52 0 0 0-.198-.287-.198h-.077a.722.722 0 00-.451.176z" fill="#9468B4"/><path opacity=".2" d="M105.29 371.625l8.407.892-.826 9.353-8.406-.892.825-9.353z" fill="#000"/><path d="M65.756 204.716h43.276c4.104 22.458 16.978 101.913 7.702 172.752l-14.645-1.816s1.353-93.979-11.565-128.738c-1.485 18.595-3.3 38.379-4.786 48.91-3.763 25.912-11.818 82.524-11.818 82.524H59.055s3.048-54.202 4.456-79.664c1.54-27.673 2.245-88.29 2.245-93.968z" fill="#263238"/><path d="M118.45 380.835l-18.123-2.695.561-5.018 18.849 2.476-1.287 5.237zm-42.693-2.387H58.174v-5.249l18.243-.341-.66 5.59z" fill="#9468B4"/><path opacity=".2" d="M90.567 246.881a116.894 116.894 0 014.83 18.706c1.211-16.505-3.63-34.11-3.63-34.11l-1.2 15.404z" fill="#000"/><path d="M64.556 212.243l-.99 5.226s30.27 3.917 49.096 3.807l-.66-3.587-47.446-5.446z" fill="#9468B4"/><path d="M125.987 166.987s10.464 33.009 17.606 35.21c7.141 2.201 25.307-25.076 25.307-25.076s16.318-.155 17.044-1.266c.726-1.111-4.236-12.61-5.424-12.621-1.189-.011-15.405 5.337-15.944 6.239-.539.903-16.857 16.505-17.605 16.043-.749-.462-6.955-20.081-6.955-20.081l-14.029 1.552z" fill="#fff"/><path d="M171.056 175.338c.13-.027.258-.06.385-.099l-.187-.121c-.06.078-.127.152-.198.22z" fill="#fff"/><path d="M120.045 163.179l1.276 2.344 5.953 11.003 1.243 2.278 16.714-5.81s-6.954-25.946-9.363-28.609l-15.823 18.794z" fill="#9468B4"/><path opacity=".4" d="M120.045 163.179l1.276 2.344 5.953 11.003 1.243 2.278 16.714-5.81s-6.954-25.946-9.363-28.609l-15.823 18.794z" fill="#fff"/><path opacity=".2" d="M121.322 165.523l5.953 11.003c3.686-7.229 2.619-17.132 2.619-17.132l-8.572 6.129z" fill="#000"/><path d="M135.867 144.396a35.464 35.464 0 00-25.175-12.213c-16.373-.77-21.523.858-27.508 6.206-8.748 7.812-19.63 75.075-19.63 75.075a151.91 151.91 0 0049.096 5.337s.198-18.706 6.107-31.261a348.686 348.686 0 0017.11-43.144z" fill="#9468B4"/><path opacity=".4" d="M63.554 213.464a152.11 152.11 0 0049.096 5.348s0-2.311.319-5.843c.133-1.673.331-3.631.606-5.744.275-2.113.671-4.522 1.1-6.921.264-1.287.572-2.586.902-3.873a51.654 51.654 0 013.125-8.902c.726-1.54 1.431-3.07 2.113-4.566 1.177-2.619 2.3-5.161 3.301-7.592a362.73 362.73 0 005.634-13.887c1.1-2.937 2.09-5.567 2.893-7.823.892-2.52 1.596-4.588 2.113-6.129.671-2.035 1.001-3.147 1.001-3.147a21.488 21.488 0 00-1.76-1.947 35.802 35.802 0 00-22.865-10.233h-.55c-12.478-.584-18.43.22-23.206 3.004a26.29 26.29 0 00-4.303 3.213 14.603 14.603 0 00-2.882 4.621 101.215 101.215 0 00-4.996 14.59l-.726 2.674c-1.1 4.082-2.135 8.429-3.125 12.83-.286 1.254-.561 2.509-.836 3.752-.407 1.915-.814 3.818-1.2 5.7a715.965 715.965 0 00-2.662 13.479c-1.1 5.942-1.992 10.915-2.52 14.007a638.203 638.203 0 01-.572 3.389zm48.084-80.654c1.104.028 2.206.112 3.301.253 4.401.594 11.168 4.126 11.003 5.799-.165 1.672-2.739 5.941-9.319 4.907a16.364 16.364 0 01-6.382-2.663c-3.631-2.398-6.272-5.644-6.536-6.701-.33-1.265 3.939-1.694 7.944-1.573l-.011-.022z" fill="#fff"/><path d="M97.532 155.235s-8.67 20.983-10.453 38.423l23.448 2.993s10.519-28.355 12.698-37.224c0-.022-18.728-1.892-25.693-4.192z" fill="#9468B4"/><path opacity=".4" d="M118.648 160.23l3.257.32-2.387 1.848-.87-2.168z" fill="#fff"/><path d="M105.885 134.461c1.771 5.061 8.362 7.372 11.817 7.702a5.873 5.873 0 006.272-3.389s-3.95-1.97-3.554-4.181c.28-1.353.834-2.634 1.629-3.764.411-.645.859-1.266 1.342-1.859l-6.327-13.567c-1.408 5.876-5.733 17.165-11.179 19.058z" fill="#fff"/><path opacity=".2" d="M116.811 121.664c-3.015 6.602 1.243 11.146 3.609 12.884a10.097 10.097 0 011.628-3.763l-5.237-9.121z" fill="#000"/><path d="M138.024 104.048s2.025 11.179-3.807 15.657c-5.832 4.479-6.426-16.406-6.426-16.406l10.233.749z" fill="#fff"/><path opacity=".4" d="M138.024 104.048s2.025 11.179-3.807 15.657c-5.832 4.479-6.426-16.406-6.426-16.406l10.233.749z" fill="#000"/><path d="M117.173 129.113a10.19 10.19 0 0011.807 3.62 11.354 11.354 0 006.327-5.501c.187-.341.352-.715.517-1.101 2.728-6.943 3.301-23.888-4.05-23.261-6.073.518-12.015-1.353-15.118 3.896a11.006 11.006 0 00-1.519 4.907c-.66 8.099-1.43 12.797 2.036 17.44z" fill="#fff"/><path d="M126.944 115.678c-.132.638.176 1.221.605 1.287.429.066.847-.429.946-1.1.099-.671-.187-1.221-.605-1.276-.418-.055-.847.429-.946 1.089zm7.362 1.045c-.132.639.187 1.222.605 1.288.418.066.847-.429.935-1.101.088-.671-.176-1.221-.605-1.287-.429-.066-.847.484-.935 1.1z" fill="#263238"/><path d="M131.918 116.712a23.592 23.592 0 002.321 6.008 3.822 3.822 0 01-3.213.143l.892-6.151z" fill="#A24E3F"/><path d="M125.008 112.971a.38.38 0 00.385-.099 3.13 3.13 0 012.629-.924c.101.02.205 0 .291-.056a.379.379 0 00.119-.53.367.367 0 00-.245-.162 3.858 3.858 0 00-3.301 1.1.397.397 0 000 .55.666.666 0 00.122.121zm12.819 1.661a.299.299 0 00.22 0 .347.347 0 00.135-.066.368.368 0 00.118-.407 3.814 3.814 0 00-2.443-2.53.376.376 0 00-.473.264.386.386 0 00.264.473 3.121 3.121 0 011.915 2.035.37.37 0 00.264.231z" fill="#263238"/><path d="M125.921 123.149s1.353 2.905 4.115 2.795" stroke="#263238" stroke-width=".5" stroke-linecap="round" stroke-linejoin="round"/><path d="M122.411 102.584l.11 3.587a2.644 2.644 0 00-1.64 3.202c.858 3.081-1.265 7.548-3.719 9.177 0 0 0-1.299-1.1-1.101-1.101.198-1.442 6.955.374 10.355 0 0-3.884-3.577-5.04-10.806-1.1-6.679-.891-10.915 0-14.117l11.015-.297z" fill="#fff"/><path opacity=".4" d="M122.411 102.584l.11 3.587a2.644 2.644 0 00-1.64 3.202c.858 3.081-1.265 7.548-3.719 9.177 0 0 0-1.299-1.1-1.101-1.101.198-1.442 6.955.374 10.355 0 0-3.884-3.577-5.04-10.806-1.1-6.679-.891-10.915 0-14.117l11.015-.297z" fill="#000"/><path d="M110.781 106.886c3.927.385 7.89.143 11.741-.715 11.08-2.201 15.801 1.871 15.801 1.871a6.977 6.977 0 002.299-5.502c-.319-3.19-4.753-3.73-4.753-3.73s-1.332-3.598-4.269-4.688c-2.938-1.089-5.887 1.64-5.887 1.64s-3.664-3.543-7.934-2.53a6.407 6.407 0 00-5.116 6.227s-5.007.506-4.897 3.081c.11 2.575 3.015 4.346 3.015 4.346z" fill="#263238"/><path d="M127.802 120.365c1.987 0 3.598-1.857 3.598-4.148 0-2.291-1.611-4.148-3.598-4.148-1.987 0-3.598 1.857-3.598 4.148 0 2.291 1.611 4.148 3.598 4.148zm12.643-3.532a3.629 3.629 0 01-4.616 2.967 3.632 3.632 0 011.018-7.115 3.91 3.91 0 013.598 4.148zm-9.055-.121s1.166-.726 1.859.121" stroke="#263238" stroke-width=".5" stroke-linecap="round" stroke-linejoin="round"/><path d="M124.205 116.217l-6.305-.847a3.148 3.148 0 00-2.321.627l-.275.22" stroke="#263238" stroke-width=".5" stroke-linecap="round" stroke-linejoin="round"/><path d="M110.715 117.735a7.703 7.703 0 003.818 4.468c2.41 1.199 4.126-.826 3.884-3.367-.22-2.267-1.728-5.678-4.401-5.81a3.43 3.43 0 00-3.301 4.709z" fill="#fff"/><path opacity=".2" d="M70.508 176.923c10.387-4.314 18.595-22.128 18.595-22.128l-5.897-3.565-8.01 6.437-.727 2.674c-1.1 4.082-2.135 8.428-3.125 12.83-.286 1.254-.561 2.508-.836 3.752z" fill="#000"/><path d="M127.715 178.814l17.913-6.58.517 1.519-17.924 6.382-.506-1.321zm-46.414 45.281l-51.925-8.233-5.078 32.026 51.925 8.234 5.078-32.027z" fill="#9468B4"/><path d="M47.743 228.055l-10.553 5.468 8.34 8.462m12.292 1.948l10.541-5.469-8.33-8.462m-10.828 12.566l7.152-13.149" stroke="#fff" stroke-width="2" stroke-linecap="round" stroke-linejoin="round"/><path d="M76.99 141.261s-19.577 19.641-22.24 23.459c-2.662 3.818-7.768 46.148-7.768 46.148s-1.1.374-1.166 1.287c-.066.913-.176 12.797 0 13.347.176.55 9.176 6.107 10.508 4.786 1.331-1.32 3.18-14.777 3.18-14.777l-4.754-4.643s5.502-31.173 8.99-36.223c3.488-5.051 17.704-15.856 17.704-15.856l-4.456-17.528z" fill="#fff"/><path d="M92.031 133.349c2.85 6.041.683 18.761-4.577 23.25a154.076 154.076 0 01-17.605 12.621l-9.595-12.577s10.211-9.969 16.395-15.713a27.94 27.94 0 0115.382-7.581z" fill="#9468B4"/><path opacity=".4" d="M92.031 133.349c2.85 6.041.683 18.761-4.577 23.25a154.076 154.076 0 01-17.605 12.621l-9.595-12.577s10.211-9.969 16.395-15.713a27.94 27.94 0 0115.382-7.581z" fill="#fff"/><path d="M60.254 155.84l-1.189 1.617 10.024 13.105 1.42-1.012-10.255-13.71z" fill="#9468B4"/></svg>