<svg width="529" height="369" viewBox="0 0 529 369" fill="none" xmlns="http://www.w3.org/2000/svg">
<path d="M446.319 278.365L440.671 363.66C440.64 364.093 440.446 364.499 440.129 364.796C439.811 365.093 439.393 365.259 438.958 365.261C438.73 365.261 438.503 365.215 438.293 365.126C438.083 365.036 437.892 364.905 437.734 364.741C437.575 364.576 437.451 364.381 437.369 364.168C437.287 363.954 437.25 363.727 437.258 363.498L439.579 278.365H446.319Z" fill="#263238" stroke="#263238" stroke-linecap="round" stroke-linejoin="round"/>
<path d="M460.768 278.365L466.415 363.66C466.443 364.092 466.634 364.498 466.95 364.795C467.266 365.092 467.682 365.258 468.115 365.261C468.345 365.261 468.571 365.215 468.783 365.126C468.994 365.037 469.185 364.906 469.344 364.742C469.504 364.577 469.629 364.382 469.712 364.169C469.795 363.955 469.835 363.727 469.828 363.498L467.482 278.415L460.768 278.365Z" fill="#263238" stroke="#263238" stroke-linecap="round" stroke-linejoin="round"/>
<path d="M404.145 278.365L409.792 363.66C409.82 364.092 410.011 364.498 410.327 364.795C410.642 365.092 411.059 365.258 411.492 365.261C411.722 365.261 411.948 365.215 412.159 365.126C412.371 365.037 412.562 364.906 412.721 364.742C412.881 364.577 413.006 364.382 413.089 364.169C413.172 363.955 413.212 363.727 413.205 363.498L410.847 278.415L404.145 278.365Z" fill="#263238" stroke="#263238" stroke-linecap="round" stroke-linejoin="round"/>
<path d="M381.071 278.365L375.423 363.66C375.392 364.093 375.198 364.499 374.881 364.796C374.563 365.093 374.145 365.259 373.71 365.261C373.482 365.259 373.256 365.212 373.045 365.122C372.835 365.033 372.644 364.902 372.485 364.738C372.326 364.574 372.201 364.38 372.117 364.167C372.033 363.954 371.993 363.727 371.997 363.498L374.356 278.415L381.071 278.365Z" fill="#263238" stroke="#263238" stroke-linecap="round" stroke-linejoin="round"/>
<path d="M479.46 192.376C479.46 192.376 423.11 190.266 418.344 190.266C413.577 190.266 412.473 192.376 412.473 192.376L404.43 249.085C404.43 249.085 379.42 241.949 374.517 242.879C369.615 243.81 376.938 279.395 376.938 279.395H405.237L405.746 277.26H469.642L486.609 196.434C485.579 192.736 479.46 192.376 479.46 192.376Z" fill="white" stroke="#263238" stroke-linecap="round" stroke-linejoin="round"/>
<path d="M458.011 227.849C458.011 227.849 463.745 265.085 457.167 269.429C456.149 270.099 450.626 273.277 445.463 272.756C441.317 272.333 412.025 272.756 412.025 272.756C412.025 272.756 407.954 265.011 407.135 259.301C406.316 253.592 412.72 229.091 412.72 229.091L458.011 227.849Z" fill="white" stroke="#263238" stroke-linecap="round" stroke-linejoin="round"/>
<path d="M410.04 247.795C410.04 247.795 367.641 252.201 365.642 253.392C363.644 254.584 354.472 262.59 356.048 267.79C357.624 272.991 353.652 273.388 357.289 274.195C360.926 275.001 412.472 274.989 412.472 274.989" fill="#9468B4"/>
<path d="M410.04 247.795C410.04 247.795 367.641 252.201 365.642 253.392C363.644 254.584 354.472 262.59 356.048 267.79C357.624 272.991 353.652 273.388 357.289 274.195C360.926 275.001 412.472 274.989 412.472 274.989" stroke="#263238" stroke-linecap="round" stroke-linejoin="round"/>
<path d="M371.476 279.334H472.223V271.812H371.476V279.334Z" fill="white" stroke="#263238" stroke-linecap="round" stroke-linejoin="round"/>
<path d="M448.428 249.396H387.734C387.734 249.396 384.545 252.995 384.135 260.566C383.725 268.138 384.545 269.764 390.142 271.737C395.74 273.711 445.462 272.705 445.462 272.705" fill="#9468B4"/>
<path d="M448.428 249.396H387.734C387.734 249.396 384.545 252.995 384.135 260.566C383.725 268.138 384.545 269.764 390.142 271.737C395.74 273.711 445.462 272.705 445.462 272.705" stroke="#263238" stroke-linecap="round" stroke-linejoin="round"/>
<path d="M400.607 345.712L394.252 330.657L383.839 332.63L391.807 346.06L387.215 355.257L377.285 361.748C377.285 361.748 376.131 362.89 381.096 362.506C386.06 362.121 396.362 362.506 396.362 362.506L402.854 354.872C402.854 354.872 405.212 350.987 400.607 345.712Z" fill="white" stroke="#263238" stroke-linecap="round" stroke-linejoin="round"/>
<path d="M403.387 352.29L403.648 362.133H402.096L400.023 357.218L403.387 352.29Z" fill="#263238" stroke="#263238" stroke-linecap="round" stroke-linejoin="round"/>
<path d="M396.374 362.555L402.865 354.922C402.865 354.922 404.541 352.08 402.232 347.984C397.615 355.878 391.471 358.248 391.471 358.248L385.067 356.709L377.297 361.798C377.297 361.798 376.143 362.94 381.107 362.555C386.072 362.17 396.374 362.555 396.374 362.555Z" fill="#263238" stroke="#263238" stroke-linecap="round" stroke-linejoin="round"/>
<path d="M375.646 268.994L396.932 333.35L381.827 336.031L352.038 269.006C352.038 269.006 349.643 259.003 356.035 255.813C362.427 252.623 381.231 251.009 381.231 251.009" fill="#9468B4"/>
<path d="M375.646 268.994L396.932 333.35L381.827 336.031L352.038 269.006C352.038 269.006 349.643 259.003 356.035 255.813C362.427 252.623 381.231 251.009 381.231 251.009" stroke="#263238" stroke-linecap="round" stroke-linejoin="round"/>
<path d="M443.924 279.321C443.924 279.321 436.589 243.686 441.504 242.805C446.419 241.924 471.417 249.011 471.417 249.011L479.459 192.376C479.459 192.376 487.949 191.035 488.843 198.582C489.736 206.128 472.223 279.321 472.223 279.321H443.924Z" fill="#263238" stroke="#263238" stroke-linecap="round" stroke-linejoin="round"/>
<path d="M357.55 174.403L353.764 168.198C353.399 167.603 352.886 167.114 352.274 166.779C351.662 166.444 350.974 166.274 350.276 166.286L346.714 166.348L340.62 164.524C340.233 164.411 339.821 164.415 339.436 164.537C339.052 164.658 338.712 164.891 338.46 165.206L338.237 165.492L343.847 167.974L338.249 170.034L332.304 167.018C332.07 166.898 331.8 166.865 331.544 166.924C331.287 166.983 331.06 167.131 330.901 167.341C330.721 167.575 330.641 167.871 330.678 168.164C330.715 168.457 330.867 168.724 331.1 168.905L339.416 175.322C339.677 175.525 339.978 175.669 340.299 175.746C340.62 175.823 340.954 175.831 341.278 175.769L350.475 173.919L353.044 176.724L357.55 174.403Z" fill="white" stroke="#263238" stroke-linecap="round" stroke-linejoin="round"/>
<path d="M421.669 161.669L387.574 197.328L355.03 171.027L350.537 174.292L386.345 214.866L417.387 198.147L421.669 161.669Z" fill="white" stroke="#263238" stroke-linecap="round" stroke-linejoin="round"/>
<path d="M472.683 170.78L490.556 225.702L475.14 226.149L459.812 200.369C459.812 200.369 468.425 174.367 472.683 170.78Z" fill="white" stroke="#263238" stroke-linecap="round" stroke-linejoin="round"/>
<path d="M453.232 161.346L472.681 170.842L456.397 216.381L458.321 229.078L412.72 229.152L418.156 208.698L414.433 195.591C413.949 193.89 413.924 192.092 414.358 190.378L421.656 161.731L440.82 158.653L453.232 161.346Z" fill="white" stroke="#263238" stroke-linecap="round" stroke-linejoin="round"/>
<path d="M452.303 158.678C452.303 158.678 456.126 161.26 456.25 163.556C456.312 164.909 456.25 167.28 456.126 169.092C456.057 170.508 455.734 171.9 455.17 173.2L448.281 181.516L440.313 175.223L433.697 178.599C433.697 178.599 432.456 168.459 435.348 161.384C438.24 154.309 450.826 156.903 452.303 158.678Z" fill="white" stroke="#263238" stroke-linecap="round" stroke-linejoin="round"/>
<path d="M457.776 139.005C457.776 139.005 456.212 144.628 455.48 148.351C454.748 152.075 453.271 159.522 453.407 162.314C453.544 165.107 441.79 176.998 440.313 175.223C438.836 173.448 437.284 163.134 437.284 163.134L438.749 146.452C438.749 146.452 454.065 129.485 457.776 139.005Z" fill="white" stroke="#263238" stroke-linecap="round" stroke-linejoin="round"/>
<path d="M433.213 130.317C433.213 130.317 431.115 133.78 431.115 135.282C431.115 136.784 431.847 139.725 431.723 140.582C431.599 141.438 429.514 144.305 429.241 145.273C429.104 145.667 429.115 146.098 429.273 146.484C429.43 146.87 429.723 147.186 430.097 147.371C430.604 147.631 431.097 147.916 431.574 148.227C431.574 148.227 432.195 155.873 433.188 157.847C434.181 159.82 435.037 160.689 437.991 160.937C440.945 161.185 447.983 158.095 448.963 155.625C449.944 153.155 450.08 150.201 450.204 146.626C450.328 143.052 447.859 137.938 446.009 133.06C444.16 128.182 436.415 125.501 433.213 130.317Z" fill="white" stroke="#263238" stroke-linecap="round" stroke-linejoin="round"/>
<path d="M465.048 155.563C470.279 155.563 474.519 151.323 474.519 146.092C474.519 140.862 470.279 136.622 465.048 136.622C459.818 136.622 455.578 140.862 455.578 146.092C455.578 151.323 459.818 155.563 465.048 155.563Z" fill="#263238" stroke="#263238" stroke-linecap="round" stroke-linejoin="round"/>
<path d="M433.162 129.783C433.162 129.783 436.973 126.494 443.824 133.035C450.675 139.576 448.069 149.034 452.649 150.995C457.229 152.956 465.706 143.151 466.687 138.26C467.667 133.37 464.726 123.23 455.578 121.269C446.43 119.307 435.222 120.648 433.162 129.783Z" fill="#263238" stroke="#263238" stroke-linecap="round" stroke-linejoin="round"/>
<path d="M433.163 129.783C433.082 129.014 433.177 128.236 433.441 127.509C433.706 126.782 434.132 126.125 434.689 125.588C435.245 125.051 435.917 124.647 436.652 124.409C437.388 124.17 438.169 124.102 438.934 124.21C445.14 124.545 445.786 134.338 449.05 138.26C452.314 142.182 453.953 141.524 453.953 141.524C453.953 141.524 448.405 143.15 444.805 141.189C441.206 139.228 439.468 128.169 433.163 129.783Z" fill="#263238" stroke="#263238" stroke-linecap="round" stroke-linejoin="round"/>
<path d="M443.303 123.068C446.568 125.085 449.16 128.027 450.75 131.52C453.568 137.49 453.568 142.418 460.258 142.07C460.258 142.07 457.093 142.778 452.165 140.308C447.238 137.838 446.183 130.813 443.018 127.995C441.291 126.361 439.057 125.367 436.688 125.178" stroke="white" stroke-width="0.5" stroke-linecap="round" stroke-linejoin="round"/>
<path d="M466.688 138.26C466.688 138.26 466.403 147.222 459.526 149.108" stroke="white" stroke-width="0.5" stroke-linecap="round" stroke-linejoin="round"/>
<path d="M447.498 147.408C447.498 147.408 454.052 138.831 455.591 145.236C457.13 151.64 451.867 153.204 449.385 152.472C446.902 151.739 447.25 150.411 447.25 150.411" fill="white"/>
<path d="M447.498 147.408C447.498 147.408 454.052 138.831 455.591 145.236C457.13 151.64 451.867 153.204 449.385 152.472C446.902 151.739 447.25 150.411 447.25 150.411" stroke="#263238" stroke-linecap="round" stroke-linejoin="round"/>
<path d="M432.915 220.799C432.915 220.799 420.404 222.537 418.319 222.537C416.233 222.537 411.021 229.14 411.021 229.14H433.958L432.915 220.799Z" fill="white" stroke="#263238" stroke-linecap="round" stroke-linejoin="round"/>
<path d="M486.062 212.384L490.555 222.512C490.757 223.108 490.814 223.743 490.724 224.366C490.633 224.989 490.397 225.581 490.034 226.096C489.671 226.61 489.192 227.031 488.635 227.325C488.079 227.619 487.461 227.777 486.832 227.787L432.592 228.097L432.939 220.799L474.991 214.146" fill="white"/>
<path d="M486.062 212.384L490.555 222.512C490.757 223.108 490.814 223.743 490.724 224.366C490.633 224.989 490.397 225.581 490.034 226.096C489.671 226.61 489.192 227.031 488.635 227.325C488.079 227.619 487.461 227.777 486.832 227.787L432.592 228.097L432.939 220.799L474.991 214.146" stroke="#263238" stroke-linecap="round" stroke-linejoin="round"/>
<path d="M413.465 352.29L413.726 362.133H412.174L410.102 357.218L413.465 352.29Z" fill="#263238" stroke="#263238" stroke-linecap="round" stroke-linejoin="round"/>
<path d="M410.684 345.712L408.686 331.389L398.285 332.059L401.884 346.159L397.292 355.356L387.362 361.848C387.362 361.848 386.221 362.99 391.185 362.605C396.15 362.22 406.452 362.605 406.452 362.605L412.943 354.972C412.943 354.972 415.289 350.987 410.684 345.712Z" fill="white" stroke="#263238" stroke-linecap="round" stroke-linejoin="round"/>
<path d="M406.452 362.555L412.943 354.922C412.943 354.922 414.619 352.08 412.298 347.984C407.681 355.878 401.537 358.248 401.537 358.248L395.145 356.709L387.362 361.798C387.362 361.798 386.221 362.94 391.185 362.555C396.15 362.17 406.452 362.555 406.452 362.555Z" fill="#263238" stroke="#263238" stroke-linecap="round" stroke-linejoin="round"/>
<path d="M405.918 257.911L410.374 334.02L396.262 334.355L382.484 265.209C382.484 265.209 382.745 252.04 386.953 250.526C391.16 249.011 402.331 250.637 402.331 250.637" fill="#9468B4"/>
<path d="M405.918 257.911L410.374 334.02L396.262 334.355L382.484 265.209C382.484 265.209 382.745 252.04 386.953 250.526C391.16 249.011 402.331 250.637 402.331 250.637" stroke="#263238" stroke-linecap="round" stroke-linejoin="round"/>
<path d="M344.232 94.0867L361.745 143.176C361.745 143.176 359.437 154.284 352.486 153.825C345.535 153.366 343.686 143.635 341.837 142.245C339.987 140.855 337.207 130.205 337.207 130.205L344.232 94.0867Z" fill="white" stroke="#263238" stroke-linecap="round" stroke-linejoin="round"/>
<path d="M298.93 84.2437L270.457 94.5207L281.379 173.472H332.752L344.233 94.0862L313.501 84.4671L298.93 84.2437Z" fill="white" stroke="#263238" stroke-linecap="round" stroke-linejoin="round"/>
<path d="M301.672 97.7725L305.78 103.966L302.218 156.493L307.456 170.171L312.83 156.865L308.225 104.748L311.924 95.799L306.798 89.0593L301.672 97.7725Z" fill="#9468B4" stroke="#263238" stroke-linecap="round" stroke-linejoin="round"/>
<path d="M307.357 95.2164L300.022 100.715L295.193 86.3792L298.557 79.1182L313.563 78.7583L317.224 82.0474L316.492 100.343L307.357 95.2164Z" fill="white" stroke="#263238" stroke-linecap="round" stroke-linejoin="round"/>
<path d="M315.115 75.3939L313.973 84.6159L305.756 95.2156L299.612 84.467V67.1772C299.612 67.1772 310.373 69.8706 315.115 75.3939Z" fill="white" stroke="#263238" stroke-linecap="round" stroke-linejoin="round"/>
<path d="M295.392 56.2303C295.392 47.8523 301.498 41.063 309.045 41.063C316.591 41.063 320.774 48.2246 320.774 56.6026C320.774 59.3084 320.215 63.9505 319.992 66.4204C319.607 70.6405 318.329 72.4278 315.834 76.2134C307.655 88.6252 300.94 70.417 297.502 64.298C296.11 61.8375 295.383 59.0571 295.392 56.2303Z" fill="white" stroke="#263238" stroke-linecap="round" stroke-linejoin="round"/>
<path d="M314.978 58.8618L316.132 67.5129L312.073 67.4012" fill="white"/>
<path d="M314.978 58.8618L316.132 67.5129L312.073 67.4012" stroke="#263238" stroke-linecap="round" stroke-linejoin="round"/>
<path d="M324.039 57.3596L304.528 57.4465C304.288 58.2053 304.252 59.0137 304.421 59.7911C304.591 60.5685 304.962 61.2879 305.496 61.8775C306.737 63.1187 311.789 62.6843 312.596 62.3616C313.402 62.0389 313.837 58.4891 313.837 58.4891H315.289C315.289 58.4891 315.45 62.2127 317.536 62.523C319.621 62.8333 322.339 62.734 322.86 62.3616C325.169 60.8101 324.039 57.3596 324.039 57.3596Z" fill="white" stroke="#263238" stroke-linecap="round" stroke-linejoin="round"/>
<path d="M297.8 65.7006C297.8 65.7006 302.194 74.6992 303.237 77.8145C304.279 80.9299 309.443 83.3627 314.668 81.625C319.893 79.8873 318.478 72.1547 318.478 72.1547C318.478 72.1547 312.93 67.4134 311.9 68.4312C310.87 69.449 305.309 73.9793 304.962 72.9367C304.614 71.8941 302.194 65.6633 302.194 65.6633L301.065 61.2447L303.386 59.7553C303.721 59.4762 303.939 59.0814 303.996 58.6491C304.054 58.2169 303.946 57.7788 303.696 57.4219L302.604 55.8456C302.469 55.6525 302.374 55.4344 302.325 55.2042C302.276 54.974 302.274 54.7363 302.318 54.5051C302.604 53.1522 303.386 50.3471 305.198 49.5403C307.68 48.5101 310.696 50.012 313.476 50.7071C316.257 51.4021 319.273 48.8949 319.273 48.8949L320.514 53.0157C323.266 50.433 325.221 47.1167 326.149 43.4585C327.539 37.5629 313.327 35.1426 308.772 35.1426C304.217 35.1426 296.994 37.625 294.908 44.1536C292.823 50.6822 296.571 64.5339 297.8 65.7006Z" fill="#263238" stroke="#263238" stroke-linecap="round" stroke-linejoin="round"/>
<path d="M309.045 43.4961C309.045 43.4961 311.627 47.3686 308.239 48.1754C304.85 48.9821 298.247 46.0777 295.343 47.2072" stroke="white" stroke-width="0.5" stroke-linecap="round" stroke-linejoin="round"/>
<path d="M303.236 52.0351C303.236 52.0351 297.924 51.3896 295.789 53.6486" stroke="white" stroke-width="0.5" stroke-linecap="round" stroke-linejoin="round"/>
<path d="M316.02 71.6089C316.02 71.6089 312.11 73.6444 310.174 71.2241" stroke="white" stroke-width="0.5" stroke-linecap="round" stroke-linejoin="round"/>
<path d="M298.457 62.958C298.457 62.958 294.622 58.7379 294.622 63.3427C294.622 67.9475 295.776 67.9475 298.073 69.5487C300.369 71.1498 301.151 69.1639 301.151 69.1639" fill="white"/>
<path d="M298.457 62.958C298.457 62.958 294.622 58.7379 294.622 63.3427C294.622 67.9475 295.776 67.9475 298.073 69.5487C300.369 71.1498 301.151 69.1639 301.151 69.1639" stroke="#263238" stroke-linecap="round" stroke-linejoin="round"/>
<path d="M349.669 349.063H349.843L349.508 347.375L332.752 173.485H281.379L264.486 349.051H264.673L275.57 349.982C275.57 349.982 287.659 309.395 287.659 306.366C287.659 303.338 291.11 275.337 291.11 275.337L308.251 215.077L323.405 275.337C323.405 275.337 326.856 303.4 326.856 306.366C326.856 309.333 338.957 350.007 338.957 350.007L349.21 349.125H349.669V349.063Z" fill="#263238" stroke="#263238" stroke-linecap="round" stroke-linejoin="round"/>
<path d="M328.916 183.713L317.484 200.034" stroke="white" stroke-width="0.5" stroke-linecap="round" stroke-linejoin="round"/>
<path d="M322.797 187.387L315.858 198.818" stroke="white" stroke-width="0.5" stroke-linecap="round" stroke-linejoin="round"/>
<path d="M290.155 186.58L300.345 197.589" stroke="white" stroke-width="0.5" stroke-linecap="round" stroke-linejoin="round"/>
<path d="M289.334 190.65L304.017 205.346" stroke="white" stroke-width="0.5" stroke-linecap="round" stroke-linejoin="round"/>
<path d="M284.433 175.149H329.736" stroke="white" stroke-width="0.5" stroke-linecap="round" stroke-linejoin="round"/>
<path d="M264.673 349.051C264.673 349.051 258.132 354.202 254.358 355.617C250.585 357.032 243.535 360.792 243.535 360.792C243.535 360.792 243.535 363.151 249.654 363.151H273.671L273.262 349.051H264.673Z" fill="#263238" stroke="#263238" stroke-linecap="round" stroke-linejoin="round"/>
<path d="M273.584 360.582C263.994 361.02 254.385 360.867 244.813 360.123L243.572 360.793C243.572 360.793 243.572 363.151 249.691 363.151H273.708L273.584 360.582Z" fill="white" stroke="#263238" stroke-linecap="round" stroke-linejoin="round"/>
<path d="M348.677 349.051C348.677 349.051 355.23 354.202 358.991 355.617C362.752 357.032 369.826 360.793 369.826 360.793C369.826 360.793 369.826 363.151 363.695 363.151H339.69L340.125 349.051H348.677Z" fill="#263238" stroke="#263238" stroke-linecap="round" stroke-linejoin="round"/>
<path d="M339.765 360.582C349.355 361.02 358.964 360.867 368.536 360.123L369.777 360.793C369.777 360.793 369.777 363.151 363.645 363.151H339.69L339.765 360.582Z" fill="white" stroke="#263238" stroke-linecap="round" stroke-linejoin="round"/>
<path d="M270.457 94.5212L251.541 145.025H269.687L276.464 131.248L270.457 94.5212Z" fill="white" stroke="#263238" stroke-linecap="round" stroke-linejoin="round"/>
<path d="M353.207 137.205C345.636 134.077 321.346 132.526 320.08 132.526C318.814 132.526 279.332 129.274 276.092 128.802C272.853 128.33 269.142 135.753 269.142 135.753L286.27 135.281L307.109 139.451C307.109 139.451 349.31 154.73 352.487 153.812C352.92 153.668 353.312 153.421 353.629 153.092" fill="white"/>
<path d="M353.207 137.205C345.636 134.077 321.346 132.526 320.08 132.526C318.814 132.526 279.332 129.274 276.092 128.802C272.853 128.33 269.142 135.753 269.142 135.753L286.27 135.281L307.109 139.451C307.109 139.451 349.31 154.73 352.487 153.812C352.92 153.668 353.312 153.421 353.629 153.092" stroke="#263238" stroke-linecap="round" stroke-linejoin="round"/>
<path d="M264.972 134.835L330.258 128.356L330.73 133.904L274.231 151.045C274.231 151.045 264.053 153.353 256.172 151.963C248.29 150.573 252.014 142.704 253.863 138.074" fill="white"/>
<path d="M264.972 134.835L330.258 128.356L330.73 133.904L274.231 151.045C274.231 151.045 264.053 153.353 256.172 151.963C248.29 150.573 252.014 142.704 253.863 138.074" stroke="#263238" stroke-linecap="round" stroke-linejoin="round"/>
<path d="M330.269 128.355L342.767 127.884L346.466 135.294L330.728 133.916L330.269 128.355Z" fill="white" stroke="#263238" stroke-linecap="round" stroke-linejoin="round"/>
<path d="M413.515 237.257L424.176 364.193C424.205 364.383 424.271 364.564 424.372 364.727C424.472 364.889 424.605 365.029 424.762 365.139C424.919 365.248 425.097 365.324 425.284 365.362C425.472 365.4 425.665 365.399 425.852 365.36C426.171 365.281 426.451 365.089 426.641 364.82C426.83 364.551 426.916 364.223 426.882 363.896L419.621 237.295L413.515 237.257Z" fill="#263238" stroke="#263238" stroke-linecap="round" stroke-linejoin="round"/>
<path d="M485.168 237.257L495.867 364.615C495.893 364.805 495.959 364.988 496.059 365.151C496.159 365.315 496.292 365.456 496.45 365.565C496.607 365.675 496.785 365.751 496.973 365.788C497.162 365.825 497.355 365.823 497.543 365.782C497.862 365.703 498.142 365.511 498.331 365.242C498.521 364.973 498.606 364.645 498.573 364.318L491.287 237.257H485.168Z" fill="#263238" stroke="#263238" stroke-linecap="round" stroke-linejoin="round"/>
<path d="M189.469 237.257L183.896 363.089C183.865 363.419 183.953 363.749 184.144 364.02C184.335 364.291 184.617 364.484 184.938 364.566C185.123 364.613 185.315 364.62 185.502 364.587C185.69 364.553 185.868 364.48 186.024 364.372C186.181 364.263 186.312 364.123 186.41 363.959C186.507 363.796 186.568 363.613 186.589 363.424L195.612 237.257H189.469Z" fill="#263238" stroke="#263238" stroke-linecap="round" stroke-linejoin="round"/>
<path d="M123.425 237.257L117.814 362.617C117.787 362.948 117.878 363.279 118.071 363.549C118.264 363.82 118.547 364.013 118.869 364.094C119.054 364.139 119.245 364.145 119.432 364.111C119.619 364.076 119.796 364.003 119.952 363.895C120.108 363.787 120.239 363.647 120.337 363.484C120.435 363.322 120.498 363.14 120.52 362.952L129.506 237.208L123.425 237.257Z" fill="#263238" stroke="#263238" stroke-linecap="round" stroke-linejoin="round"/>
<path d="M499.119 230.22H119.452V241.118H499.119V230.22Z" fill="#9468B4" stroke="#263238" stroke-linecap="round" stroke-linejoin="round"/>
<path d="M499.119 230.22H119.452V233.956H499.119V230.22Z" fill="#263238" stroke="#263238" stroke-linecap="round" stroke-linejoin="round"/>
<path d="M499.107 230.22H404.106V241.118H499.107V230.22Z" fill="#263238" stroke="#263238" stroke-linecap="round" stroke-linejoin="round"/>
<path d="M502.495 226.596H116.064V230.754H502.495V226.596Z" fill="#9468B4" stroke="#263238" stroke-linecap="round" stroke-linejoin="round"/>
<path d="M502.483 226.596H408.066V230.754H502.483V226.596Z" fill="#263238" stroke="#263238" stroke-linecap="round" stroke-linejoin="round"/>
<path d="M202.141 226.223H253.998C254.196 226.225 254.389 226.168 254.555 226.06C254.721 225.951 254.851 225.797 254.929 225.615L269.289 192.873C269.355 192.719 269.382 192.551 269.367 192.385C269.352 192.219 269.296 192.059 269.203 191.919C269.111 191.78 268.985 191.666 268.838 191.588C268.69 191.509 268.526 191.469 268.358 191.47H216.502C216.307 191.47 216.117 191.526 215.954 191.632C215.791 191.738 215.662 191.888 215.583 192.066L201.272 224.808C201.205 224.958 201.176 225.121 201.187 225.284C201.197 225.447 201.248 225.606 201.333 225.745C201.419 225.885 201.537 226.001 201.678 226.084C201.819 226.168 201.978 226.215 202.141 226.223Z" fill="white" stroke="#263238" stroke-linecap="round" stroke-linejoin="round"/>
<path d="M207.006 223.666H251.255C251.42 223.666 251.582 223.618 251.721 223.528C251.86 223.437 251.969 223.309 252.037 223.157L264.287 195.218C264.353 195.086 264.385 194.94 264.377 194.792C264.37 194.645 264.325 194.502 264.247 194.377C264.168 194.252 264.058 194.149 263.928 194.079C263.799 194.009 263.653 193.974 263.505 193.977H219.257C219.088 193.976 218.922 194.025 218.781 194.117C218.639 194.21 218.529 194.343 218.463 194.498L206.237 222.462C206.179 222.592 206.155 222.733 206.166 222.874C206.176 223.015 206.222 223.152 206.298 223.271C206.374 223.39 206.479 223.489 206.602 223.558C206.726 223.627 206.865 223.664 207.006 223.666Z" fill="#9468B4" stroke="#263238" stroke-linecap="round" stroke-linejoin="round"/>
<path d="M254.718 224.051H176.809V226.595H254.718V224.051Z" fill="white" stroke="#263238" stroke-linecap="round" stroke-linejoin="round"/>
<path d="M254.73 224.051H216.961V226.595H254.73V224.051Z" fill="white" stroke="#263238" stroke-linecap="round" stroke-linejoin="round"/>
<path d="M279.752 206.339H266.012V226.645H279.752V206.339Z" fill="white" stroke="#263238" stroke-linecap="round" stroke-linejoin="round"/>
<path d="M279.145 223.878H277.705C277.406 223.878 277.118 223.759 276.906 223.547C276.695 223.335 276.576 223.048 276.576 222.748C276.576 222.448 276.695 222.161 276.906 221.949C277.118 221.738 277.406 221.619 277.705 221.619H279.145C279.713 221.615 280.258 221.388 280.66 220.986C281.062 220.584 281.289 220.04 281.292 219.471V214.507C281.289 213.938 281.062 213.394 280.66 212.992C280.258 212.59 279.713 212.363 279.145 212.359H277.295C277.147 212.359 277 212.33 276.863 212.273C276.726 212.217 276.602 212.133 276.497 212.028C276.392 211.924 276.309 211.799 276.252 211.662C276.195 211.525 276.166 211.378 276.166 211.23C276.166 211.082 276.195 210.935 276.252 210.798C276.309 210.661 276.392 210.536 276.497 210.431C276.602 210.326 276.726 210.243 276.863 210.186C277 210.13 277.147 210.1 277.295 210.1H279.145C279.723 210.1 280.296 210.214 280.831 210.436C281.366 210.657 281.851 210.982 282.261 211.391C282.67 211.8 282.994 212.286 283.216 212.82C283.437 213.355 283.551 213.928 283.551 214.507V219.471C283.551 220.05 283.437 220.623 283.216 221.157C282.994 221.692 282.67 222.178 282.261 222.587C281.851 222.996 281.366 223.321 280.831 223.542C280.296 223.764 279.723 223.878 279.145 223.878Z" fill="white" stroke="#263238" stroke-linecap="round" stroke-linejoin="round"/>
<path d="M387.102 226.223H335.246C335.05 226.222 334.859 226.164 334.696 226.056C334.532 225.948 334.404 225.795 334.327 225.615L319.967 192.873C319.901 192.72 319.874 192.554 319.889 192.388C319.903 192.223 319.958 192.063 320.049 191.925C320.14 191.786 320.264 191.671 320.41 191.592C320.556 191.513 320.719 191.471 320.885 191.47H372.742C372.938 191.469 373.13 191.525 373.295 191.63C373.46 191.736 373.591 191.887 373.673 192.066L388.033 224.808C388.099 224.963 388.125 225.131 388.11 225.297C388.095 225.464 388.038 225.625 387.946 225.765C387.854 225.905 387.729 226.02 387.582 226.1C387.435 226.18 387.27 226.222 387.102 226.223Z" fill="white" stroke="#263238" stroke-linecap="round" stroke-linejoin="round"/>
<path d="M334.526 226.596H412.436V224.051H334.526V226.596Z" fill="white" stroke="#263238" stroke-linecap="round" stroke-linejoin="round"/>
<path d="M334.527 226.596H388.245V224.051H334.527V226.596Z" fill="white" stroke="#263238" stroke-linecap="round" stroke-linejoin="round"/>
<path d="M354.857 205.061C355.138 205.592 355.256 206.195 355.196 206.793C355.136 207.391 354.901 207.958 354.52 208.423C354.139 208.888 353.629 209.231 353.054 209.407C352.48 209.584 351.866 209.587 351.289 209.415C350.713 209.244 350.2 208.907 349.815 208.446C349.429 207.984 349.188 207.42 349.123 206.822C349.057 206.224 349.169 205.621 349.445 205.087C349.721 204.553 350.149 204.112 350.674 203.82C351.394 203.431 352.238 203.344 353.022 203.576C353.806 203.809 354.466 204.343 354.857 205.061Z" fill="white" stroke="#263238" stroke-linecap="round" stroke-linejoin="round"/>
<path d="M112.366 108.683L116.188 146.452L133.565 196.757L127.62 200.158L107.215 154.11L97.0246 114.578C97.0246 114.578 96.1682 102.688 100.425 100.925C104.683 99.1626 110.665 101.037 112.366 108.683Z" fill="white" stroke="#263238" stroke-linecap="round" stroke-linejoin="round"/>
<path d="M133.615 196.806C133.615 196.806 137.438 204.887 137.872 207.009C138.307 209.131 138.741 213.463 137.066 215.399C135.043 217.733 133.193 215.933 133.193 215.933C133.193 215.933 128.092 214.692 128.092 210.41C128.092 206.128 127.67 200.207 127.67 200.207L133.615 196.806Z" fill="white" stroke="#263238" stroke-linecap="round" stroke-linejoin="round"/>
<path d="M129.443 209.479L136.605 211.341" stroke="#263238" stroke-linecap="round" stroke-linejoin="round"/>
<path d="M131.157 204.651L133.193 207.853C133.193 207.853 128.451 215.958 130.996 213.836C133.54 211.713 138.294 209.132 137.872 207.009C137.153 204.782 136.205 202.636 135.042 200.605" fill="white"/>
<path d="M131.157 204.651L133.193 207.853C133.193 207.853 128.451 215.958 130.996 213.836C133.54 211.713 138.294 209.132 137.872 207.009C137.153 204.782 136.205 202.636 135.042 200.605" stroke="#263238" stroke-linecap="round" stroke-linejoin="round"/>
<path d="M92.0484 63.2924C92.0484 63.2924 87.6794 58.5759 77.601 61.6044C67.5225 64.6329 65.1891 80.7683 65.4994 88.8236C65.8097 96.8789 73.5671 105.964 71.2213 109.998C68.8754 114.032 60.1251 123.44 60.7953 133.581C61.4655 143.721 69.8684 151.727 81.9699 148.028C94.0715 144.329 92.0484 129.522 89.6405 124.111C87.2326 118.699 92.3338 116.378 94.0094 104.611C95.685 92.8451 84.9364 83.1018 84.9364 74.6989C84.9364 66.2961 93.6247 67.649 93.6247 67.649L92.0484 63.2924Z" fill="#263238" stroke="#263238" stroke-linecap="round" stroke-linejoin="round"/>
<path d="M76.9043 95.1909C78.4931 98.4676 80.3424 101.968 82.1794 105.741C88.3108 118.252 83.5199 122.77 74.1985 129.696C64.8772 136.622 67.0121 145.136 69.4076 146.452" stroke="white" stroke-width="0.5" stroke-linecap="round" stroke-linejoin="round"/>
<path d="M88.8447 66.606C88.8447 66.606 76.3336 67.6734 73.1313 75.6542C71.1951 80.5072 72.6845 85.9436 75.5392 92.2737" stroke="white" stroke-width="0.5" stroke-linecap="round" stroke-linejoin="round"/>
<path d="M79.6982 143.336C80.6608 143.698 81.6873 143.858 82.7143 143.808" stroke="white" stroke-width="0.5" stroke-linecap="round" stroke-linejoin="round"/>
<path d="M92.0483 65.7747C92.0483 65.7747 80.3315 67.8971 77.6753 76.4116C75.0192 84.9262 90.7202 97.5118 91.5146 106.771C92.3089 116.03 81.1258 121.442 77.154 128.628C74.3614 133.668 74.6717 139.216 77.6133 142.008" stroke="white" stroke-width="0.5" stroke-linecap="round" stroke-linejoin="round"/>
<path d="M122.109 237.145C122.109 237.145 119.217 262.117 116.312 270.086C113.408 278.054 106.904 340.672 106.544 344.296C106.184 347.92 115.952 356.236 119.937 358.781C123.921 361.325 122.109 362.033 117.764 362.393C113.42 362.753 108.356 362.033 106.184 358.048C104.012 354.064 98.9357 352.984 98.9357 352.984L98.2158 361.673H96.7636L95.6838 350.812C95.3147 348.347 95.6907 345.827 96.7636 343.576C98.5757 339.592 99.246 331.264 99.246 319.994C99.246 308.724 97.0739 290.664 98.1537 281.976C99.2336 273.288 103.59 266.772 103.59 259.535C103.59 252.299 103.95 241.439 103.95 241.439L122.109 237.145Z" fill="white" stroke="#263238" stroke-linecap="round" stroke-linejoin="round"/>
<path d="M95.6843 350.812C95.396 348.945 95.5533 347.035 96.1435 345.24C98.39 349.038 104.832 354.188 109.797 356.236C112.488 357.402 115.423 357.896 118.348 357.676C118.932 358.111 119.478 358.483 119.937 358.781C123.921 361.263 122.109 362.033 117.765 362.393C113.421 362.753 108.357 362.033 106.185 358.049C104.013 354.064 98.9362 352.984 98.9362 352.984L98.2163 361.673H96.7641L95.6843 350.812Z" fill="#263238" stroke="#263238" stroke-linecap="round" stroke-linejoin="round"/>
<path d="M101.108 241.129C101.108 241.129 94.9023 259.585 89.168 275.51C83.4337 291.434 69.6193 328 68.1672 334.516C66.715 341.032 65.9951 352.985 61.9612 359.141C57.9274 365.297 53.9928 368.189 54.7127 357.329C55.4326 346.468 61.9612 338.5 63.401 330.172C64.8408 321.843 65.5731 291.807 70.6371 278.414C75.7012 265.022 81.1376 254.161 81.8078 250.177C82.3028 246.212 82.5432 242.22 82.5277 238.225L101.108 241.129Z" fill="white" stroke="#263238" stroke-linecap="round" stroke-linejoin="round"/>
<path d="M55.4577 352.675C55.5112 354.722 56.1485 356.711 57.2946 358.409C59.3798 360.742 62.7434 356.212 64.4935 353.444C63.9209 355.44 63.0862 357.352 62.0111 359.129C58.0269 365.273 54.0427 368.177 54.7626 357.317C54.8823 355.755 55.1146 354.203 55.4577 352.675Z" fill="#263238" stroke="#263238" stroke-linecap="round" stroke-linejoin="round"/>
<path d="M98.2528 95.4385C98.2528 95.4385 96.0807 97.2506 94.6286 109.563C93.1764 121.876 102.237 160.241 102.237 160.241C102.237 160.241 86.6726 185.735 83.0483 198.407C79.424 211.08 77.252 258.555 77.252 258.555C77.252 258.555 84.8604 261.46 100.425 262.539C115.989 263.619 124.318 259.647 124.318 259.647C124.318 259.647 125.038 191.891 125.038 181.453C125.038 171.014 125.77 147.27 126.85 144.378C127.93 141.486 131.194 133.878 131.194 130.986C131.194 128.094 109.423 97.2506 109.423 97.2506L98.2528 95.4385Z" fill="white" stroke="#263238" stroke-linecap="round" stroke-linejoin="round"/>
<path d="M83.0112 198.408C85.8659 188.478 97.682 162.066 101.902 157.523C108.319 159.658 120.023 161.768 125.249 160.204C125.087 163.927 125.001 177.829 125.001 181.391C125.001 191.891 124.281 259.586 124.281 259.586C124.281 259.586 115.952 263.57 100.388 262.478C84.8233 261.385 77.2148 258.493 77.2148 258.493C77.2148 258.493 79.3869 211.08 83.0112 198.408Z" fill="#263238" stroke="#263238" stroke-linecap="round" stroke-linejoin="round"/>
<path d="M106.284 52.7667C106.284 52.7667 110.169 44.3018 117.852 44.3018C125.535 44.3018 128.948 51.1283 127.248 57.0984C125.547 63.0685 132.361 61.3681 133.218 65.2157C134.074 69.0634 127.67 71.6078 124.257 71.6078C120.843 71.6078 106.284 52.7667 106.284 52.7667Z" fill="#263238" stroke="#263238" stroke-linecap="round" stroke-linejoin="round"/>
<path d="M117.503 51.8981C119.787 50.6569 122.468 49.7632 123.709 51.6995C126.104 55.423 118.657 58.3523 121.053 62.3489C123.448 66.3455 129.307 65.2781 129.034 66.6061C128.76 67.9342 125.049 68.7286 125.049 68.7286" stroke="white" stroke-width="0.5" stroke-linecap="round" stroke-linejoin="round"/>
<path d="M113.595 54.6032C113.595 54.6032 114.327 53.9702 115.419 53.2007" stroke="white" stroke-width="0.5" stroke-linecap="round" stroke-linejoin="round"/>
<path d="M125.982 72.4647C125.439 72.0608 125.011 71.5216 124.741 70.9008C124.121 66.3208 122.78 61.8153 120.248 59.2833C116.418 55.6774 111.533 53.3937 106.31 52.7671C104.763 52.5391 103.184 52.6838 101.705 53.189C95.1141 55.4977 89.4543 60.0528 90.6706 71.0373C92.0111 83.1389 101.432 86.1673 101.432 86.1673L102.102 93.6145L111.51 97.9834L111.845 89.9157C111.845 89.9157 118.225 92.5967 120.534 92.2616C122.842 91.9265 123.562 88.898 124.567 84.529C124.936 82.5354 125.119 80.5119 125.114 78.4844L127.931 75.6793C129.532 74.0534 127.956 73.6562 125.982 72.4647Z" fill="white" stroke="#263238" stroke-linecap="round" stroke-linejoin="round"/>
<path d="M90.6451 71.0373C89.4039 60.0528 95.0885 55.4977 101.679 53.189C103.159 52.6838 104.737 52.5391 106.284 52.7671C109.845 53.2431 113.273 54.4336 116.362 56.2672C114.476 55.8824 117.691 61.4305 114.736 64.9555C112.15 68.2278 108.852 70.8679 105.092 72.6757C105.092 72.6757 101.741 69.9823 100.723 73.681C99.7057 77.3798 100.053 80.0607 102.747 80.7434C105.44 81.426 106.47 80.7434 106.47 80.7434C106.47 80.7434 104.683 84.9758 101.505 86.7259V86.1177C101.505 86.1177 92.0476 83.1513 90.6451 71.0373Z" fill="#263238" stroke="#263238" stroke-linecap="round" stroke-linejoin="round"/>
<path d="M116.313 95.7988L114.513 105.579L95.3242 95.4389L97.1363 86.3906L116.313 95.7988Z" fill="white" stroke="#263238" stroke-linecap="round" stroke-linejoin="round"/>
<path d="M107.042 178.263C109.029 178.688 111.045 178.962 113.074 179.082C114.65 178.983 116.797 177.208 118.386 177.965C119.975 178.722 122.197 183.501 122.197 183.501C122.197 183.501 124.307 184.568 123.698 185.698C123.09 186.827 120.484 187.87 120.484 187.87C120.484 187.87 118.001 190.216 116.562 190.451C115.122 190.687 106.347 184.245 106.347 184.245L107.042 178.263Z" fill="white" stroke="#263238" stroke-linecap="round" stroke-linejoin="round"/>
<path d="M107.971 182.904C108.262 182.555 108.471 182.146 108.582 181.706C108.694 181.266 108.705 180.806 108.616 180.361C108.527 179.916 108.339 179.496 108.066 179.133C107.794 178.77 107.443 178.472 107.041 178.262L82.9243 155.673L109.188 114.838C110.36 112.679 110.644 110.148 109.981 107.783C109.318 105.417 107.759 103.403 105.636 102.168C103.512 100.932 100.991 100.573 98.6073 101.166C96.2232 101.759 94.1639 103.257 92.8662 105.343L70.1029 150.584C68.9193 151.733 68.235 153.301 68.1979 154.949C68.1607 156.598 68.7737 158.196 69.9043 159.396L69.9912 159.483C72.275 163.008 97.3966 181.44 104.744 183.848C105.315 184.029 105.927 184.035 106.502 183.867C107.076 183.699 107.588 183.364 107.971 182.904Z" fill="white" stroke="#263238" stroke-linecap="round" stroke-linejoin="round"/>
<path d="M203.393 120.387C203.393 120.387 206.508 130.031 206.508 131.905C206.485 133.259 206.382 134.61 206.198 135.951L208.941 140.209C209.102 140.483 209.152 140.808 209.08 141.117C209.008 141.426 208.821 141.697 208.556 141.872L204.324 144.354C204.324 144.354 203.703 154.284 203.083 155.525C202.462 156.766 191.912 156.468 191.912 156.468L188.486 162.997L170.737 156.158L175.404 143.386L174.436 124.111C174.436 124.111 185.334 114.479 203.393 120.387Z" fill="white" stroke="#263238" stroke-linecap="round" stroke-linejoin="round"/>
<path d="M191.241 143.846C191.241 143.846 188.151 146.75 185.829 146.949C183.508 147.147 175.962 145.397 175.379 144.628C174.795 143.858 169.582 133.023 169.769 127.797C169.955 122.572 170.166 114.839 175.763 112.332C181.361 109.825 190.273 110.582 194.915 107.69C199.557 104.798 206.905 102.465 210.777 107.491C214.65 112.518 211.745 119.481 208.655 122.386C205.564 125.29 201.692 126.109 202.077 127.35C202.461 128.591 204.782 130.056 203.43 131.992C202.077 133.929 197.224 135.716 197.224 136.436C197.224 137.156 198.39 139.924 197.037 140.308C195.685 140.693 194.319 137.602 192.966 137.602C191.613 137.602 188.734 141.338 191.241 143.846Z" fill="#263238" stroke="#263238" stroke-linecap="round" stroke-linejoin="round"/>
<path d="M183.163 134.971C182.605 135.595 182.13 136.287 181.748 137.032" stroke="white" stroke-width="0.5" stroke-linecap="round" stroke-linejoin="round"/>
<path d="M208.582 114.926C208.336 117.056 207.56 119.091 206.324 120.843C205.088 122.595 203.432 124.009 201.507 124.955C196.543 127.524 189.927 129.622 185.533 132.849" stroke="white" stroke-width="0.5" stroke-linecap="round" stroke-linejoin="round"/>
<path d="M202.078 127.413C202.078 127.413 197.671 131.136 192.955 134.971C189.736 137.463 186.158 139.451 182.343 140.867" stroke="white" stroke-width="0.5" stroke-linecap="round" stroke-linejoin="round"/>
<path d="M190.933 144.366L193.415 144.987C193.265 146.148 193.353 147.326 193.676 148.451C193.998 149.576 194.547 150.623 195.289 151.528" fill="white"/>
<path d="M190.933 144.366L193.415 144.987C193.265 146.148 193.353 147.326 193.676 148.451C193.998 149.576 194.547 150.623 195.289 151.528" stroke="#263238" stroke-linecap="round" stroke-linejoin="round"/>
<path d="M193.812 137.702L211.337 133.357" stroke="#263238" stroke-linecap="round" stroke-linejoin="round"/>
<path d="M206.831 133.01L210.828 133.184C210.828 133.184 212.205 137.701 208.047 138.223" stroke="#263238" stroke-linecap="round" stroke-linejoin="round"/>
<path d="M189.157 347.598C189.157 347.598 205.292 357.788 208.135 357.788C210.977 357.788 212.392 360.345 210.977 360.631C209.562 360.916 200.774 361.189 194.841 361.475C188.909 361.76 184.912 361.189 181.523 361.189C178.135 361.189 174.151 361.475 172.45 360.631C170.75 359.787 173.592 350.143 173.592 348.442C173.592 346.742 187.171 346.456 189.157 347.598Z" fill="#263238" stroke="#263238" stroke-linecap="round" stroke-linejoin="round"/>
<path d="M209.958 358.211C203.69 360.271 193.525 358.918 187.418 358.36C182.59 357.925 175.007 357.826 171.916 357.801C171.792 359.253 171.916 360.358 172.4 360.631C174.101 361.475 178.072 361.189 181.473 361.189C184.874 361.189 188.833 361.76 194.791 361.475C200.749 361.189 209.524 360.904 210.926 360.631C212.031 360.408 211.51 358.943 209.958 358.211Z" fill="white" stroke="#263238" stroke-linecap="round" stroke-linejoin="round"/>
<path d="M201.903 277.596L189.168 341.455L191.824 348.083C189.918 350.843 187.042 352.784 183.769 353.519C180.129 354.235 176.432 354.617 172.723 354.661C172.723 354.661 171.308 347.574 172.164 346.717C173.02 345.861 173.293 342.472 173.293 342.472L180.654 278.154L201.903 277.596Z" fill="#9468B4" stroke="#263238" stroke-linecap="round" stroke-linejoin="round"/>
<path d="M240.715 345.439C240.715 345.439 250.645 353.656 255.175 355.071C259.706 356.486 264.521 357.901 264.521 359.316C264.521 360.731 253.76 362.146 245.544 361.302C237.327 360.458 224.853 356.771 222.023 356.771C219.193 356.771 219.752 349.399 219.752 348.269C219.752 347.14 233.641 338.067 240.715 345.439Z" fill="#263238" stroke="#263238" stroke-linecap="round" stroke-linejoin="round"/>
<path d="M264.572 359.315C264.572 358.806 263.939 358.297 262.933 357.789C254.823 358.874 246.601 358.815 238.507 357.615C230.352 356.448 223.526 354.884 220.038 354.015C220.336 355.542 220.919 356.771 222.074 356.771C224.904 356.771 237.377 360.494 245.594 361.301C253.811 362.108 264.572 360.73 264.572 359.315Z" fill="white" stroke="#263238" stroke-linecap="round" stroke-linejoin="round"/>
<path d="M191.429 248.974C199.925 248.323 208.464 248.515 216.923 249.545C231.37 251.245 263.653 253.268 264.212 256.917C264.77 260.566 239.165 337.259 239.165 339.233C239.165 341.206 241.424 343.205 241.994 344.334C242.355 345.139 242.549 346.009 242.565 346.891C242.565 346.891 235.627 354.338 230.24 356.361C224.854 358.384 220.311 356.485 219.194 356.485C218.077 356.485 218.064 348.84 218.921 345.153C219.777 341.467 221.18 332.121 221.465 331.277C221.751 330.433 237.266 275.895 237.266 275.895C237.266 275.895 195.065 282.697 169.857 279.854C144.648 277.012 142.091 273.065 140.676 267.107C139.262 261.15 142.091 249.259 142.091 249.259L191.429 248.974Z" fill="#9468B4" stroke="#263238" stroke-linecap="round" stroke-linejoin="round"/>
<path d="M188.238 267.332C187.665 268.16 187.026 268.94 186.326 269.665" stroke="#263238" stroke-linecap="round" stroke-linejoin="round"/>
<path d="M195.959 252.089C194.331 256.168 192.453 260.144 190.337 263.992" stroke="#263238" stroke-linecap="round" stroke-linejoin="round"/>
<path d="M192.583 254.932C189.165 260.572 183.989 264.932 177.851 267.344" stroke="#263238" stroke-linecap="round" stroke-linejoin="round"/>
<path d="M256.901 270.571C257.869 270.198 258.8 269.814 259.682 269.417L256.901 270.571Z" fill="white"/>
<path d="M256.901 270.571C257.869 270.198 258.8 269.814 259.682 269.417" stroke="#263238" stroke-linecap="round" stroke-linejoin="round"/>
<path d="M237.267 275.895C242.718 274.842 248.106 273.479 253.402 271.812L237.267 275.895Z" fill="white"/>
<path d="M237.267 275.895C242.718 274.842 248.106 273.479 253.402 271.812" stroke="#263238" stroke-linecap="round" stroke-linejoin="round"/>
<path d="M270.021 181.801C270.617 179.43 271.61 179.616 270.815 178.834C269.723 177.742 268.842 179.033 265.677 180.808C262.512 182.583 259.359 184.755 259.359 184.755C259.428 184.096 259.702 183.476 260.141 182.98C260.941 181.671 261.37 180.17 261.382 178.636C261.382 177.395 260.389 177.643 259.992 178.834C259.595 180.026 256.045 182.186 255.847 183.179C255.648 184.171 254.94 188.069 254.94 188.069C253.811 189.769 253.811 197.7 253.811 197.7L230.812 214.978L219.194 228.631C219.194 228.631 224.296 236.847 227.126 235.718C229.955 234.588 231.37 233.447 238.172 227.774C243.931 222.971 258.366 200.816 258.366 200.816C260.881 199.237 263.259 197.452 265.478 195.479C268.038 192.583 269.55 188.911 269.773 185.053C269.719 183.963 269.803 182.87 270.021 181.801Z" fill="white" stroke="#263238" stroke-linecap="round" stroke-linejoin="round"/>
<path d="M163.601 155.587C163.601 155.587 165.785 147.395 175.069 149.034C184.353 150.672 191.453 158.318 193.091 161.048C194.73 163.779 163.055 159.956 163.055 159.956L163.601 155.587Z" fill="white" stroke="#263238" stroke-linecap="round" stroke-linejoin="round"/>
<path d="M217.12 227.129C217.12 227.129 214.96 229.463 217.12 233.137C218.597 235.681 221.204 237.63 226.193 236.773C230.86 235.954 237.873 224.362 237.873 216.207C237.873 208.052 231.865 207.519 229.681 209.107C227.496 210.696 217.12 227.129 217.12 227.129Z" fill="white" stroke="#263238" stroke-linecap="round" stroke-linejoin="round"/>
<path d="M167.623 154.632C167.623 154.632 145.53 165.12 142.415 167.043C139.299 168.967 137.313 193.667 137.313 197.924C137.313 202.181 140.429 243.848 141.273 250.898C142.117 257.948 169.324 262.801 178.397 260.244C187.47 257.687 196.307 251.246 196.307 248.974C196.307 246.703 195.451 227.452 196.022 223.766C196.593 220.079 201.681 204.502 201.681 204.502L217.147 229.177C217.147 229.177 218.772 232.206 224.519 229.823C232.736 226.422 233.418 213.278 233.418 213.278C233.418 213.278 224.358 197.415 221.801 189.484C219.244 181.553 218.077 175.595 216.985 174.18C215.893 172.765 190.349 160.862 185.819 157.747C183.254 155.815 180.264 154.524 177.099 153.982C173.934 153.44 170.685 153.663 167.623 154.632Z" fill="white" stroke="#263238" stroke-linecap="round" stroke-linejoin="round"/>
<path d="M201.618 204.503L194.258 193.729" stroke="#263238" stroke-linecap="round" stroke-linejoin="round"/>
<path d="M200.426 202.964L187.456 196.572" stroke="#263238" stroke-linecap="round" stroke-linejoin="round"/>
<path d="M161.987 284.224L173.307 364.678C173.333 364.864 173.398 365.043 173.497 365.203C173.596 365.363 173.727 365.501 173.883 365.607C174.038 365.713 174.214 365.786 174.399 365.821C174.584 365.855 174.774 365.851 174.958 365.807C175.276 365.729 175.555 365.539 175.747 365.273C175.938 365.007 176.028 364.682 176 364.355L168.019 282.896L161.987 284.224Z" fill="#263238" stroke="#263238" stroke-linecap="round" stroke-linejoin="round"/>
<path d="M129.468 284.856L110.553 363.87C110.51 364.054 110.505 364.244 110.539 364.429C110.574 364.614 110.647 364.79 110.753 364.945C110.859 365.101 110.997 365.232 111.157 365.331C111.317 365.43 111.496 365.495 111.682 365.521C112.006 365.569 112.336 365.498 112.61 365.319C112.885 365.141 113.084 364.868 113.172 364.553L135.141 287.873L129.468 284.856Z" fill="#263238" stroke="#263238" stroke-linecap="round" stroke-linejoin="round"/>
<path d="M163.825 283.876L151.786 364.218C151.758 364.403 151.768 364.592 151.817 364.773C151.865 364.954 151.95 365.123 152.066 365.27C152.183 365.417 152.328 365.538 152.493 365.626C152.659 365.714 152.84 365.767 153.027 365.782C153.353 365.8 153.675 365.699 153.933 365.499C154.191 365.298 154.367 365.011 154.429 364.69L169.708 286.396L163.825 283.876Z" fill="#263238" stroke="#263238" stroke-linecap="round" stroke-linejoin="round"/>
<path d="M206.447 284.223L217.767 364.677C217.793 364.864 217.858 365.043 217.957 365.203C218.056 365.363 218.187 365.5 218.343 365.606C218.498 365.713 218.674 365.786 218.859 365.82C219.044 365.854 219.234 365.85 219.418 365.807C219.736 365.728 220.015 365.539 220.206 365.273C220.398 365.006 220.488 364.681 220.46 364.354L212.442 282.871L206.447 284.223Z" fill="#263238" stroke="#263238" stroke-linecap="round" stroke-linejoin="round"/>
<path d="M111.558 200.729L125.335 290.305H223.314C223.314 290.305 224.766 264.488 220.447 255.366C216.128 246.243 162.794 265.804 160.87 265.295C159.443 264.935 161.553 218.689 164.172 200.617C164.355 199.345 164.263 198.048 163.901 196.815C163.539 195.582 162.916 194.441 162.074 193.469C161.232 192.498 160.191 191.719 159.022 191.186C157.853 190.652 156.582 190.377 155.297 190.377H120.42C119.125 190.376 117.845 190.655 116.668 191.196C115.491 191.737 114.445 192.527 113.603 193.511C112.761 194.494 112.142 195.649 111.789 196.895C111.436 198.141 111.357 199.449 111.558 200.729Z" fill="#9468B4" stroke="#263238" stroke-linecap="round" stroke-linejoin="round"/>
<path d="M220.448 255.366C216.128 246.243 162.795 265.805 160.871 265.296C159.443 264.936 161.553 218.689 164.172 200.617C164.401 199.362 164.351 198.071 164.024 196.836C163.697 195.602 163.103 194.455 162.282 193.477C161.462 192.499 160.436 191.713 159.278 191.177C158.12 190.64 156.857 190.365 155.581 190.371C154.304 190.378 153.045 190.666 151.892 191.214C150.739 191.763 149.721 192.559 148.911 193.545C148.101 194.532 147.518 195.685 147.204 196.922C146.889 198.159 146.852 199.451 147.094 200.704L160.871 290.281H223.315C223.315 290.281 224.767 264.489 220.448 255.366Z" fill="#263238" stroke="#263238" stroke-linecap="round" stroke-linejoin="round"/>
<path d="M270.019 181.802C270.019 181.802 268.443 183.378 266.072 186.146L270.019 181.802Z" fill="white"/>
<path d="M270.019 181.802C270.019 181.802 268.443 183.378 266.072 186.146" stroke="#263238" stroke-linecap="round" stroke-linejoin="round"/>
<path d="M269.773 185.003C269.773 185.003 267.849 188.913 266.67 190.688L269.773 185.003Z" fill="white"/>
<path d="M269.773 185.003C269.773 185.003 267.849 188.913 266.67 190.688" stroke="#263238" stroke-linecap="round" stroke-linejoin="round"/>
<path d="M4.37016 230.282C6.43053 231.176 11.4573 231.064 11.4697 231.064C11.4822 231.064 10.3899 227.775 10.2906 227.576C9.18596 225.255 5.68582 221.445 2.8435 221.83C2.37298 221.906 1.92394 222.082 1.52571 222.344C1.12748 222.606 0.789036 222.949 0.532489 223.351C0.275942 223.752 0.107069 224.204 0.036903 224.675C-0.0332625 225.147 -0.00314134 225.628 0.125301 226.087C0.596952 228.048 2.60768 229.513 4.37016 230.282Z" fill="#263238"/>
<path d="M70.3396 213.141C67.4848 212.831 64.1336 216.741 63.0538 219.086C62.9669 219.285 61.9243 222.611 61.974 222.611C61.4278 223.22 60.8569 223.853 60.2487 224.622C59.1317 225.987 57.8905 227.551 56.6369 229.339C55.2866 231.254 54.0435 233.243 52.9133 235.296C51.6394 237.599 50.5679 240.007 49.7111 242.495C49.7164 242.524 49.7164 242.553 49.7111 242.582C49.7111 241.75 49.7111 239.392 49.7111 239.218C49.3759 236.674 47.2287 231.958 44.4236 231.436C43.9563 231.361 43.4784 231.384 43.0206 231.505C42.5629 231.625 42.1354 231.84 41.7659 232.136C41.3964 232.432 41.093 232.802 40.8752 233.222C40.6574 233.643 40.5301 234.104 40.5015 234.576C40.3277 236.6 41.7426 238.623 43.2197 239.889C44.8332 241.328 49.3015 242.719 49.6614 242.83C48.8498 245.41 48.2194 248.044 47.7748 250.712C47.4893 252.251 47.2659 253.802 47.0549 255.366C47.0549 254.634 47.0549 253.989 47.0549 253.902C46.7322 251.357 44.5725 246.641 41.7799 246.119C41.3089 246.046 40.8277 246.072 40.3675 246.196C39.9073 246.321 39.4783 246.54 39.1085 246.841C38.7387 247.142 38.4362 247.517 38.2207 247.942C38.0053 248.367 37.8816 248.833 37.8577 249.309C37.6964 251.332 39.0989 253.356 40.5883 254.634C42.0778 255.912 45.8137 257.191 46.7943 257.501C46.7198 258.109 46.6329 258.742 46.5584 259.301C46.2233 262.18 45.8882 265.06 45.4786 267.865C45.3297 268.858 45.1559 269.826 44.9821 270.794C44.9821 270.149 44.9821 269.615 44.9821 269.553C44.647 267.009 42.4998 262.292 39.6947 261.771C39.2236 261.699 38.7428 261.727 38.2832 261.853C37.8237 261.979 37.3958 262.2 37.0271 262.502C36.6585 262.804 36.3574 263.18 36.1435 263.605C35.9295 264.031 35.8073 264.497 35.7849 264.973C35.6236 266.984 37.0261 269.007 38.5156 270.285C40.3688 271.51 42.399 272.444 44.5353 273.053C44.3243 274.046 44.1133 275.027 43.8651 275.982C43.6789 276.628 43.5548 277.224 43.3314 277.894C43.1079 278.564 42.9218 279.135 42.7232 279.78C42.2888 280.96 41.8543 282.188 41.4075 283.33C41.0972 284.137 40.7869 284.894 40.489 285.651C40.638 284.671 40.8986 282.734 40.911 282.573C40.8761 280.318 40.2651 278.109 39.1362 276.156C39.1669 275.909 39.1669 275.659 39.1362 275.411C39.0799 274.934 38.9225 274.473 38.6745 274.061C38.4266 273.649 38.0937 273.294 37.698 273.021C37.3023 272.747 36.8529 272.561 36.3796 272.474C35.9064 272.388 35.4202 272.403 34.9534 272.519C32.1731 273.252 30.423 278.117 30.2865 280.674C30.2865 280.823 30.3858 282.474 30.4603 283.516C30.3237 282.908 30.1872 282.275 30.0383 281.704C29.7528 280.463 29.4177 279.222 29.0825 277.981C28.884 277.348 28.6978 276.74 28.4992 276.082C28.3006 275.424 28.0524 274.84 27.8289 274.145C27.2828 272.644 26.6622 271.154 25.992 269.665C27.0594 269.404 30.8574 268.424 32.3841 267.269C33.9108 266.115 35.5119 264.191 35.4995 262.168C35.5142 261.686 35.426 261.207 35.2406 260.762C35.0553 260.317 34.7771 259.916 34.4246 259.587C34.0722 259.258 33.6536 259.008 33.1968 258.854C32.7401 258.7 32.2556 258.645 31.7759 258.693C28.9212 259.003 26.4388 263.546 25.9299 266.053C25.9299 266.214 25.7189 268.051 25.6445 269.069C25.2473 268.175 24.8377 267.282 24.4033 266.388C23.1621 263.831 21.7471 261.262 20.3942 258.705L19.1531 256.347C19.5378 256.26 24.1178 255.217 25.781 253.864C27.4442 252.512 28.9088 250.799 28.8964 248.763C28.9091 248.282 28.8195 247.803 28.6334 247.359C28.4474 246.915 28.1692 246.516 27.8172 246.187C27.4652 245.859 27.0474 245.608 26.5916 245.453C26.1357 245.298 25.6521 245.242 25.1728 245.288C22.3181 245.598 19.8481 250.141 19.3268 252.648C19.3268 252.847 19.0413 255.49 19.0165 256.173C18.1229 254.448 17.2416 252.71 16.4473 250.972C15.3567 248.624 14.4197 246.207 13.6422 243.736C13.816 243.736 18.6069 242.619 20.3198 241.254C21.834 240.087 23.4476 238.176 23.4227 236.153C23.4375 235.671 23.3492 235.191 23.1639 234.746C22.9785 234.301 22.7003 233.901 22.3479 233.572C21.9954 233.243 21.5768 232.993 21.1201 232.839C20.6633 232.685 20.1789 232.63 19.6992 232.677C16.8444 232.988 14.3745 237.53 13.8532 240.038C13.8532 240.236 13.5553 243.091 13.5429 243.612C13.5429 243.463 13.4436 243.327 13.394 243.178C12.6885 240.681 12.2026 238.126 11.9418 235.545C11.7928 234.117 11.7184 232.752 11.6687 231.411C12.5748 231.3 16.6334 230.754 18.4083 229.723C20.1832 228.693 21.8588 227.005 22.1319 224.994C22.1965 224.522 22.1611 224.042 22.028 223.584C21.8949 223.126 21.667 222.702 21.3592 222.338C21.0514 221.974 20.6705 221.678 20.2413 221.471C19.8121 221.264 19.344 221.149 18.8676 221.134C15.988 221.134 13.034 225.379 12.2396 227.812C12.2396 227.948 11.9169 229.339 11.7183 230.356C11.7183 229.761 11.7183 229.115 11.7183 228.557C11.7183 226.385 11.8549 224.399 11.9914 222.649C12.0783 221.643 12.1776 220.737 12.2769 219.893C13.1085 219.322 16.4224 216.989 17.4402 215.313C18.458 213.638 19.2523 211.317 18.5076 209.43C18.3477 208.982 18.0953 208.573 17.7667 208.229C17.4382 207.885 17.0408 207.614 16.6006 207.433C16.1604 207.253 15.6871 207.167 15.2116 207.182C14.7361 207.197 14.269 207.311 13.8408 207.519C11.2839 208.834 10.6137 213.96 11.0357 216.492C11.0357 216.703 12.0411 220.055 12.0783 220.03C11.9666 220.836 11.8549 221.705 11.7556 222.661C11.5818 224.424 11.4081 226.385 11.346 228.594C11.2712 230.937 11.3292 233.282 11.5198 235.619C11.7026 238.241 12.1179 240.841 12.7609 243.389C12.7663 243.418 12.7663 243.447 12.7609 243.476C12.3141 242.768 10.9861 240.832 10.8619 240.695C9.18633 238.759 4.80495 235.991 2.17363 237.121C1.73978 237.318 1.35229 237.604 1.03644 237.96C0.720592 238.317 0.483487 238.736 0.340597 239.19C0.197707 239.645 0.152242 240.124 0.207172 240.598C0.262102 241.071 0.416191 241.527 0.659383 241.937C1.63992 243.712 3.97335 244.593 5.87236 244.866C8.00721 245.176 12.5003 243.873 12.8602 243.774C13.5985 246.346 14.5066 248.867 15.5784 251.32C16.199 252.747 16.8196 254.175 17.5519 255.59C17.1423 254.982 16.77 254.448 16.7203 254.348C15.0447 252.412 10.6633 249.644 8.03203 250.774C7.6055 250.991 7.22986 251.296 6.92986 251.669C6.62985 252.042 6.41229 252.475 6.2915 252.938C6.17072 253.401 6.14945 253.885 6.2291 254.357C6.30875 254.829 6.48751 255.279 6.75361 255.677C7.72173 257.451 10.0676 258.333 11.9542 258.606C13.8408 258.879 17.7257 257.861 18.7435 257.563C19.0165 258.109 19.2772 258.655 19.5502 259.189C20.7914 261.783 22.1691 264.365 23.3731 266.934C23.7951 267.84 24.1799 268.746 24.6143 269.652L23.882 268.61C22.2064 266.674 17.825 263.918 15.1937 265.035C14.7605 265.234 14.374 265.522 14.0594 265.881C13.7448 266.239 13.509 266.659 13.3674 267.115C13.2257 267.57 13.1814 268.05 13.2373 268.524C13.2932 268.997 13.4481 269.454 13.6918 269.863C14.6724 271.638 17.0058 272.519 18.8924 272.793C21.1354 272.802 23.3665 272.467 25.5079 271.8C25.8803 272.743 26.2526 273.686 26.5629 274.605C26.7739 275.25 27.0098 275.846 27.1711 276.504C27.3325 277.161 27.5311 277.745 27.7048 278.415C28.0027 279.656 28.313 280.897 28.5737 282.139C28.7598 282.97 28.9212 283.777 29.0825 284.621C28.6605 283.715 27.8414 281.952 27.7296 281.816C26.3643 279.644 22.4546 276.255 19.6744 276.963C19.2168 277.095 18.7922 277.322 18.4278 277.628C18.0635 277.935 17.7676 278.315 17.5594 278.743C17.3511 279.171 17.2351 279.638 17.2188 280.114C17.2026 280.59 17.2865 281.064 17.465 281.506C18.1601 283.405 20.3322 284.633 22.1567 285.229C24.1799 285.837 28.6357 285.229 29.1942 285.229C29.4673 286.557 29.7031 287.861 29.9265 289.089C30.6713 293.347 31.1677 296.934 31.4284 299.428C31.4284 299.875 31.5277 300.272 31.5649 300.67H22.8766L26.0292 362.195H40.7497L43.9023 300.67H35.847L36.0332 300.31C37.1378 298.001 38.6645 294.699 40.3153 290.653C40.849 289.412 41.3827 288.009 41.9164 286.595C42.4625 286.706 46.8812 287.6 48.9291 287.128C50.8033 286.706 53.0623 285.651 53.8939 283.814C54.1061 283.387 54.2258 282.92 54.2451 282.444C54.2645 281.967 54.1831 281.492 54.0062 281.049C53.8293 280.606 53.5609 280.206 53.2186 279.874C52.8762 279.542 52.4677 279.286 52.0197 279.123C49.3015 278.204 45.1559 281.295 43.6292 283.355C43.5424 283.479 42.7108 284.906 42.2019 285.837L42.8597 284.1C43.2941 282.921 43.6913 281.717 44.1009 280.438L44.6594 278.539C44.8704 277.906 45.007 277.224 45.1807 276.553C45.5407 275.002 45.8386 273.413 46.1116 271.8C47.1418 272.172 50.8529 273.463 52.7644 273.326C54.6758 273.19 57.0713 272.495 58.1759 270.844C58.456 270.452 58.6496 270.005 58.7439 269.533C58.8383 269.061 58.8312 268.574 58.7233 268.104C58.6153 267.635 58.4089 267.194 58.1177 266.81C57.8265 266.427 57.4571 266.109 57.034 265.879C54.5517 264.638 49.9096 266.996 48.0975 268.796C47.9858 268.92 46.8563 270.36 46.2109 271.167C46.3599 270.198 46.5088 269.23 46.6329 268.237C46.9929 265.395 47.2535 262.503 47.539 259.624C47.6259 258.742 47.7252 257.861 47.812 256.98C48.1844 257.116 52.5534 258.742 54.7006 258.593C56.5996 258.457 58.9951 257.762 60.0998 256.111C60.3798 255.719 60.5734 255.272 60.6678 254.8C60.7621 254.328 60.7551 253.841 60.6471 253.371C60.5392 252.902 60.3328 252.461 60.0415 252.077C59.7503 251.694 59.381 251.376 58.9579 251.146C56.4755 249.843 51.8459 252.263 50.0214 254.063C49.8848 254.2 48.2216 256.285 47.8245 256.831C48.0355 254.895 48.2589 252.971 48.5567 251.072C48.9389 248.514 49.4904 245.985 50.2075 243.501C50.3813 243.501 54.924 245.275 57.1333 245.126C59.0324 244.99 61.4278 244.282 62.5325 242.644C62.8145 242.253 63.0098 241.806 63.1052 241.333C63.2007 240.861 63.1941 240.373 63.0861 239.903C62.978 239.433 62.7708 238.992 62.4784 238.608C62.186 238.225 61.8152 237.908 61.3906 237.679C58.9082 236.364 54.2786 238.784 52.4541 240.596C52.3175 240.733 50.5302 242.979 50.2323 243.401L50.3441 242.967C51.1321 240.492 52.1372 238.091 53.3477 235.793C54.0056 234.552 54.7006 233.31 55.3957 232.193C56.2149 232.603 59.9632 234.427 61.9491 234.502C63.935 234.576 66.3181 234.142 67.6089 232.578C67.9157 232.222 68.1449 231.805 68.2819 231.355C68.4188 230.905 68.4606 230.432 68.4046 229.965C68.3486 229.498 68.1959 229.047 67.9564 228.642C67.7168 228.238 67.3956 227.887 67.0132 227.613C64.6177 226.025 59.8143 227.924 57.816 229.525C57.7043 229.612 56.6865 230.617 55.9666 231.362C56.2893 230.853 56.612 230.319 56.9348 229.848C58.1759 228.035 59.3427 226.459 60.4349 225.057C61.0555 224.275 61.6761 223.58 62.185 222.934C63.1903 222.934 67.249 222.785 69.0239 221.954C70.7988 221.122 72.7475 219.62 73.1571 217.647C73.3287 217.165 73.3892 216.651 73.334 216.143C73.2788 215.635 73.1093 215.146 72.8383 214.712C72.5673 214.279 72.2017 213.912 71.769 213.64C71.3363 213.368 70.8476 213.198 70.3396 213.141ZM38.7514 289.784C37.0261 293.756 35.4374 296.996 34.3079 299.242L33.6749 300.483H33.4888C33.4888 300.049 33.3646 299.565 33.2902 299.031C32.9426 296.549 32.3965 292.9 31.5401 288.618C31.2794 287.265 30.9691 285.825 30.634 284.348C31.9755 283.807 33.285 283.189 34.5562 282.499C36.2829 283.997 38.2084 285.25 40.278 286.222C39.7692 287.426 39.2479 288.642 38.7514 289.784Z" fill="#263238"/>
<path d="M55.3085 231.386C55.3085 231.386 56.227 228.047 56.2518 227.824C56.6117 225.28 55.8049 220.178 53.2109 218.925C52.7798 218.732 52.3134 218.631 51.8412 218.628C51.369 218.626 50.9014 218.721 50.4682 218.909C50.035 219.097 49.6457 219.373 49.3251 219.72C49.0045 220.067 48.7596 220.476 48.6061 220.923C47.911 222.822 48.7922 225.155 49.8473 226.769C51.0884 228.705 55.3085 231.386 55.3085 231.386Z" fill="#263238"/>
<path d="M522.652 361.897H17.7998V368.078H522.652V361.897Z" fill="#263238"/>
</svg>
