<svg width="576" height="365" fill="none" xmlns="http://www.w3.org/2000/svg"><path d="M150.727 49.24h-37.604V11.634h37.604v37.604zm-36.788-.817h35.972V12.45h-35.972v35.972z" fill="#E0E0E0"/><path d="M150.318 12.043c.09.081-8.081 8.382-18.243 18.545C121.913 40.75 113.612 48.92 113.53 48.83c-.082-.09 8.081-8.383 18.243-18.545 10.162-10.163 18.463-18.325 18.545-18.243z" fill="#E0E0E0"/><path d="M148.416 49.068a1.905 1.905 0 01-.335-.384l-.873-1.151a174.576 174.576 0 00-3.265-4.22 214.365 214.365 0 00-11.329-13.378 206.882 206.882 0 00-12.432-12.366 179.916 179.916 0 00-3.95-3.551l-1.078-.971c-.237-.22-.367-.343-.351-.36.145.085.282.184.408.294l1.127.906c.979.817 2.367 1.967 4.081 3.461 3.371 2.98 7.877 7.257 12.537 12.301a178.966 178.966 0 0111.256 13.476c1.355 1.804 2.449 3.265 3.127 4.31l.816 1.2c.099.137.186.281.261.433zm412.271 101.573h-37.613v-37.629h37.613v37.629zm-36.797-.816h35.981v-35.997H523.89v35.997z" fill="#E0E0E0"/><path d="M560.278 113.445c.081.081-8.089 8.383-18.244 18.545-10.154 10.162-18.463 18.325-18.553 18.243-.09-.082 8.089-8.383 18.251-18.545 10.163-10.162 18.464-18.333 18.546-18.243z" fill="#E0E0E0"/><path d="M558.368 150.47a2.597 2.597 0 01-.326-.384l-.882-1.159a164.585 164.585 0 00-3.265-4.228 214.482 214.482 0 00-11.337-13.37c-4.645-5.037-9.069-9.338-12.383-12.358-1.632-1.518-3.012-2.727-3.95-3.559l-1.078-.963a2.899 2.899 0 01-.359-.359c.151.079.291.178.416.293l1.127.906c.979.817 2.359 1.968 4.081 3.461 3.371 2.971 7.885 7.257 12.546 12.301a178.348 178.348 0 0111.256 13.476c1.347 1.796 2.448 3.265 3.126 4.31l.816 1.2c.09.134.161.28.212.433zm-511.37 57.904H9.386v-37.612h37.612v37.612zm-36.796-.816h35.98v-35.98h-35.98v35.98z" fill="#E0E0E0"/><path d="M46.589 171.17c.082.09-8.089 8.391-18.251 18.553-10.163 10.162-18.464 18.325-18.545 18.243-.082-.081 8.08-8.383 18.243-18.545 10.162-10.162 18.463-18.333 18.553-18.251z" fill="#E0E0E0"/><path d="M44.679 208.203a1.862 1.862 0 01-.335-.384l-.873-1.151a172.81 172.81 0 00-3.265-4.228 214.513 214.513 0 00-11.33-13.37 216.432 216.432 0 00-12.398-12.39 179.712 179.712 0 00-3.95-3.559l-1.078-.963a2.362 2.362 0 01-.351-.36c.147.081.284.18.408.294l1.126.906c.98.817 2.367 1.967 4.081 3.461 3.372 2.971 7.877 7.257 12.538 12.301a175.973 175.973 0 0111.256 13.476c1.355 1.796 2.449 3.265 3.126 4.31l.816 1.2c.09.146.166.298.229.457zm456.478 74.05a27.829 27.829 0 00-11.958-4.081c-1.959-.196-4.082-.139-5.657 1.044a1.148 1.148 0 00-.588 1.029c.093.296.291.548.555.71 4.898 3.714 12.244 4.179 17.648 1.339m-.31-.384a58.23 58.23 0 01-7.722-6.799 19.53 19.53 0 01-4.84-8.979 3.598 3.598 0 01.375-2.996c6.163 4.808 11.003 11.028 12.187 18.774z" fill="#E0E0E0"/><path d="M501.092 282.204a27.885 27.885 0 01.147-10.146 13.661 13.661 0 015.404-8.367c1.061 2.449.604 5.355-.147 7.951a38.65 38.65 0 01-5.355 11.28m5.99 10.097c-3.665.449-6.857 2.375-9.591 4.897a18.094 18.094 0 00-5.485 9.363c3.599-.229 6.644-2.759 8.856-5.6 2.212-2.84 3.747-5.967 6.179-8.619m1.349 1.689a23.668 23.668 0 012.735-22.381c2.089 7.428 1.322 15.819-2.735 22.381zm7.974 9.494a17.137 17.137 0 00-16.325 9.419c-.204.408-.383.922-.114 1.282a1.22 1.22 0 001.086.318c3.265-.204 6.081-2.147 8.44-4.359 2.359-2.212 4.407-4.759 7.011-6.669m-.352-.506a30.474 30.474 0 01-.302-17.019c.604-2.187 1.632-4.497 3.632-5.517a.693.693 0 01.555-.098.737.737 0 01.351.4c.667 1.541.947 3.222.817 4.897a30.738 30.738 0 01-.768 4.938c-.636 3.02-.979 6.269-2.628 8.873a18.024 18.024 0 00-1.061 1.951c-.31.661-.31.889-.596 1.42m21.118 3.306c-1.567-5.951.098-13.166 3.844-18.047.278-.359.645-.743 1.094-.702.686.065.865.987.816 1.681a32.643 32.643 0 01-5.779 17.068m1.926 1.298a26.253 26.253 0 0021.532-4.383 17.442 17.442 0 00-11.656-1.413c-3.893.89-7.452 2.637-9.876 5.812m1.608-3.975c4.081-6.603 11.811-10.913 19.541-11.305-.89 3.143-3.477 5.591-6.391 7.069-2.914 1.477-6.171 2.122-9.379 2.742-1.249.245-2.963.506-3.771 1.494zm-3.111-19.231a56.34 56.34 0 002.498-11.427c.302-3.902-.253-7.975-2.277-11.322-3.78 7.346-4.163 15.868-.335 23.165m12.848-6.848c4.424-8.007 13.476-14.456 22.578-15.353-3.527 8.766-13.134 15.508-22.578 15.353zm-2.784 1.576c6.595 1.004 12.244 5.215 18.382 7.77a8.27 8.27 0 004.155.816 3.263 3.263 0 002.032-5.754 8.869 8.869 0 00-3.02-1.837c-6.71-2.791-13.876-2.865-20.978-1.167" fill="#E0E0E0"/><path d="M543.812 284.759c1.486.424 2 1.199 3.184 2.203a34.283 34.283 0 0013.933 7.159c.531.139 1.233.188 1.494-.294.261-.482-.057-.93-.359-1.306a19.135 19.135 0 00-8.416-5.714c-3.216-1.199-5.999-2.644-9.836-2.334m-4.309-27.654a26.391 26.391 0 0020.218 6.881c.338.003.666-.116.923-.335.506-.555-.106-1.404-.694-1.869-5.951-4.636-13.15-6.53-20.406-4.677" fill="#E0E0E0"/><path d="M544.606 254.95a28.198 28.198 0 0125.239-4.163 20.067 20.067 0 01-12.024 5.281c-4.436.4-8.908.022-13.215-1.118zm-2.023-12.84c-.588-5.934-.204-10.611-.62-16.578 0-.481-.131-1.053-.58-1.224-.62-.237-1.134.522-1.338 1.159a18.981 18.981 0 002.53 16.512" fill="#E0E0E0"/><path d="M542.157 242.796a34.895 34.895 0 009.795-9.551c1.942-2.652 3.575-5.836 3.134-9.101a9.429 9.429 0 00-7.093 3.526 19.726 19.726 0 00-3.608 7.265c-.816 2.612-1.339 5.297-2.261 7.861m9.69-2.711A79.194 79.194 0 00576 225.817c-2.89-1.159-6.196-.465-9.085.702a28.632 28.632 0 00-15.231 13.501m-6.818 5.992c4.465.489 8.978.816 13.435.065 4.457-.751 8.465-2.449 12.538-4.163.341-.113.631-.345.816-.653a.972.972 0 00-.302-1.069 2.526 2.526 0 00-1.069-.498c-4.424-1.241-9.2-.661-13.55.816a62.923 62.923 0 00-11.901 5.51m-25.466 11.003c-3.044-6.155-2.848-13.33-.212-19.664 1.853 2.816 2.073 6.416 1.739 9.795-.335 3.38-1.363 6.824-1.429 10.195m-12.268-6.464a27.427 27.427 0 00-20.406 8.676c3.854.463 7.758-.26 11.191-2.073a57.087 57.087 0 009.582-6.391m-8.547-2.955c-3.722-.302-7.306-.759-10.881.335a13.058 13.058 0 00-8.325 7.036 19.69 19.69 0 0010.203-1.927 58.95 58.95 0 008.978-5.444m12.139.13c-3.347-2.195-6.783-4.432-10.685-5.338-3.902-.906-8.415-.237-11.134 2.702 3.159 1.853 6.988 2.073 10.612 2.065 3.624-.008 8.162-.041 11.59 1.175" fill="#E0E0E0"/><path d="M511.157 248.444c-5.714-5.616-7.893-15.713-5.591-23.394a35.651 35.651 0 015.591 23.394zm15.729-15.917c1.085-2.514 1.844-5.142 2.808-7.697a22.131 22.131 0 014.007-7.102 10.568 10.568 0 017.085-3.673 28.566 28.566 0 01-13.753 18.513m-2.988 3.273c-1.788-2.449-3.853-5.795-6.277-7.632-2.424-1.836-5.575-2.946-8.53-2.236a19.878 19.878 0 0014.807 9.868zm.562-3.11a42.807 42.807 0 01-2.824-9.142 14.27 14.27 0 011.437-9.297c3.142 5.934 4.155 12.309 1.551 18.505m2.146-18.505c1.779-5.893 7.167-10.228 12.986-12.244a4.784 4.784 0 012.278-.342 1.974 1.974 0 011.681 1.404c.212.995-.612 1.893-1.396 2.563a44.268 44.268 0 01-15.508 8.586m.024-4.783c.229-3.795.465-7.648 1.698-11.248 1.232-3.599 3.616-6.97 7.077-8.537.587 3.828-1.102 7.648-3.143 10.945-2.041 3.298-4.497 6.408-5.714 10.089m-.013 1.363c-1.47-4.293-1.633-9.738-4.188-13.476-1.795-2.612-4.669-4.391-6.22-7.159a10.909 10.909 0 00.36 8.122 23.555 23.555 0 004.758 6.808c1.902 2.032 3.527 3.558 5.29 5.713" fill="#E0E0E0"/><path d="M526.916 338.435c-.114 0-.212-28.626-.22-63.92-.008-35.295.073-63.92.188-63.92.114 0 .22 28.609.228 63.92.008 35.311-.081 63.92-.196 63.92z" fill="#E0E0E0"/><path d="M551.926 252.705a7.105 7.105 0 01-1.077.4l-2.955 1.004c-2.498.816-5.934 2.081-9.656 3.607-3.722 1.527-7.159 2.865-9.142 4.58a6.693 6.693 0 00-1.837 2.448c-.285.678-.334 1.086-.375 1.078a.966.966 0 010-.294 4.49 4.49 0 01.212-.816 6.442 6.442 0 011.788-2.588 16.2 16.2 0 013.967-2.449 149.95 149.95 0 015.215-2.277 120.667 120.667 0 019.714-3.51 88.691 88.691 0 013.012-.873c.365-.146.746-.25 1.134-.31z" fill="#E0E0E0"/><path d="M560.13 232.568a2.52 2.52 0 01-.302.318l-.922.865-3.428 3.11-11.428 10.162c-4.456 3.967-8.301 7.755-10.97 10.612a116.467 116.467 0 00-3.11 3.428 40.31 40.31 0 00-.816.947 2.065 2.065 0 01-.31.31s.073-.131.245-.367c.171-.237.424-.572.767-.996a82.777 82.777 0 013.012-3.526 145.793 145.793 0 0110.913-10.718 1807.39 1807.39 0 0111.493-10.072l3.518-3.012.971-.816c.229-.172.351-.262.367-.245z" fill="#E0E0E0"/><path d="M539.26 251.056c-.115-.049.816-2.204 1.738-4.898.923-2.693 1.38-5.011 1.494-4.995a16.572 16.572 0 01-1.102 5.126 32.419 32.419 0 01-1.388 3.436 5.298 5.298 0 01-.742 1.331zm-12.318 17.321a5.053 5.053 0 01-.686-.817l-1.755-2.261c-1.477-1.901-3.518-4.538-5.812-7.427-2.293-2.89-4.391-5.469-5.917-7.347l-1.796-2.228a5.471 5.471 0 01-.621-.816c.274.22.523.469.743.742.457.498 1.11 1.233 1.902 2.147a229.677 229.677 0 016.016 7.273 213.003 213.003 0 015.714 7.509 59.9 59.9 0 011.632 2.335c.227.273.421.572.58.89z" fill="#E0E0E0"/><path d="M521.44 261.341a10.136 10.136 0 01-2.293-4.302 12.464 12.464 0 01-.523-4.334h.18c-.082.334-.139.506-.172.506-.032 0 0-.188 0-.531h.188c.089 1.426.332 2.839.727 4.212a32.977 32.977 0 001.893 4.449zm-7.06-8.906a7.292 7.292 0 00-1.633-.93 10.737 10.737 0 00-4.448-.36 27.705 27.705 0 00-4.489.727c-.604.189-1.221.337-1.845.441a6.614 6.614 0 011.771-.727 20.626 20.626 0 014.53-.816 9.786 9.786 0 014.596.49 2.845 2.845 0 011.518 1.175zm-1.681-2.163c0 .066-.931-.375-2.449-.889a25.084 25.084 0 00-6.13-1.265 25.538 25.538 0 00-6.253.318c-1.583.286-2.538.579-2.563.514-.024-.065.221-.131.653-.277a14.41 14.41 0 011.853-.523 21.946 21.946 0 0112.546.955 15.52 15.52 0 011.755.816c.392.221.604.327.588.351zm14.186-9.109a52.563 52.563 0 01-1.787-6.228 51.394 51.394 0 01-1.396-6.326 50.45 50.45 0 011.796 6.228 49.344 49.344 0 011.387 6.326z" fill="#E0E0E0"/><path d="M526.998 241.163a29.55 29.55 0 00-1.983-3.722 16.587 16.587 0 00-2.922-3.021c.416.101.802.3 1.126.58a9.33 9.33 0 012.139 2.196 8.16 8.16 0 011.64 3.967zm-.081 82.016c-.041 0-.131-.694-.449-1.91a27.162 27.162 0 00-1.918-4.955c-1.975-4.04-5.575-9.158-10.146-14.292-2.261-2.588-4.465-5.028-6.326-7.346a52.384 52.384 0 01-4.53-6.53 32.502 32.502 0 01-2.286-4.849 27.372 27.372 0 01-.449-1.387 2.065 2.065 0 01-.114-.49s.245.653.718 1.82a36.457 36.457 0 002.384 4.759 55.192 55.192 0 004.571 6.432c1.877 2.31 4.081 4.742 6.342 7.346 4.587 5.142 8.163 10.334 10.105 14.439a25.177 25.177 0 011.804 5.045c.131.62.221 1.102.253 1.436.032.159.046.32.041.482zm22.602-25.532a9.161 9.161 0 01-1.143.653 26.186 26.186 0 00-3.077 2.033 34.812 34.812 0 00-4.032 3.673c-1.412 1.502-2.873 3.265-4.367 5.101-2.971 3.731-5.714 7.036-7.428 9.673a62.607 62.607 0 00-1.861 3.191c-.193.411-.411.809-.653 1.192 0 0 0-.122.106-.334.106-.213.212-.539.4-.931a29.339 29.339 0 011.763-3.265c1.633-2.702 4.383-6.048 7.346-9.795 1.494-1.869 2.972-3.608 4.408-5.101a32.092 32.092 0 014.138-3.649 21.856 21.856 0 013.176-1.943c.391-.196.71-.318.922-.408.096-.043.198-.073.302-.09z" fill="#E0E0E0"/><path d="M549.962 305.932c-.826.178-1.664.298-2.506.359-2.01.209-3.997.603-5.934 1.176a17.667 17.667 0 00-5.314 2.783c-1.233.947-1.804 1.731-1.861 1.69-.057-.041.098-.229.367-.58.391-.485.829-.93 1.306-1.33a16.16 16.16 0 015.371-2.963 26.758 26.758 0 016.04-1.061c.839-.105 1.687-.13 2.531-.074z" fill="#E0E0E0"/><path d="M535.072 311.025c-.131-.073.996-1.795 1.877-4.081.882-2.285 1.012-4.391 1.159-4.367.072.446.072.901 0 1.347a14.094 14.094 0 01-.734 3.159 15.002 15.002 0 01-1.453 2.906c-.482.669-.8 1.069-.849 1.036zm21.769-35.58a2.108 2.108 0 01-.4.221l-1.184.53c-.514.221-1.135.498-1.845.874-.71.375-1.534.742-2.391 1.257l-1.363.775c-.474.269-.947.596-1.445.906-1.004.612-2.016 1.363-3.086 2.131a53.13 53.13 0 00-11.909 12.325c-.734 1.102-1.453 2.138-2.024 3.167-.302.506-.604.988-.865 1.469-.261.482-.49.947-.727 1.388-.489.881-.816 1.714-1.175 2.448-.359.735-.604 1.347-.816 1.87l-.49 1.191a1.647 1.647 0 01-.204.409c.024-.149.065-.294.122-.433l.425-1.224c.179-.531.416-1.176.743-1.91.326-.735.653-1.584 1.126-2.449l.71-1.412c.253-.49.555-.972.816-1.494.572-1.037 1.282-2.09 2.008-3.2a51.002 51.002 0 0111.999-12.415c1.086-.767 2.114-1.51 3.135-2.114.506-.31.979-.628 1.461-.898l1.387-.751c.874-.506 1.714-.865 2.449-1.216a20.163 20.163 0 011.886-.816l1.208-.465c.144-.067.295-.122.449-.164z" fill="#E0E0E0"/><path d="M538.949 287.403c.169-.58.514-1.094.988-1.469a6.21 6.21 0 013.959-1.518c1.43-.008 2.848.27 4.171.816.562.171 1.094.43 1.575.767a9.886 9.886 0 01-1.632-.49 12.277 12.277 0 00-4.082-.677 6.466 6.466 0 00-3.787 1.322c-.427.387-.825.805-1.192 1.249zm-2.669 2.735a10.615 10.615 0 00.874-7.485 2.5 2.5 0 01.465 1.061 7.594 7.594 0 01-.645 5.493c-.351.653-.653.98-.694.931zm-29.132 37.139c.621 10.938 3.918 22.039 8.979 33.311h22.039c4.832-11.134 7.901-22.243 8.448-33.311h-39.466z" fill="#E0E0E0"/><path d="M543.055 344.973c0 .114-7.256.212-16.211.212-8.954 0-16.21-.098-16.21-.212 0-.114 7.256-.204 16.21-.204 8.955 0 16.211.057 16.211.204zm-.489 3.934c0 .115-6.808.204-15.199.204s-15.198-.089-15.198-.204c0-.114 6.799-.204 15.198-.204 8.4 0 15.199.123 15.199.204zm-26.081-14.447a60.827 60.827 0 010 10.154 63.278 63.278 0 010-10.154z" fill="#FAFAFA"/><path d="M528.296 334.46a65.196 65.196 0 010 10.513 67.825 67.825 0 010-10.513zm11.101-.09c.273 3.57.273 7.156 0 10.726a70.597 70.597 0 010-10.726z" fill="#FAFAFA"/><path d="M545.929 334.46c0 .114-8.513.204-19.01.204-10.497 0-19.019-.09-19.019-.204 0-.114 8.514-.204 19.019-.204 10.505 0 19.01.09 19.01.204z" fill="#FAFAFA"/><path d="M531.35 71.008h-6.016v-1.2h6.016v1.2zm-12.04 0h-6.032v-1.2h6.016l.016 1.2zm-12.039 0h-6.016v-1.2h6.016v1.2zm-12.04 0h-6.016v-1.2h6.016v1.2zm36.731-1.322h-1.216V63.67h1.208l.008 6.016zm-46.836-.604h-1.232v-6.016h1.208l.024 6.016zm46.836-11.427h-1.216v-6.032h1.208l.008 6.032zm-46.836-.604h-1.232v-6.024h1.208l.024 6.024zm46.836-11.428h-1.216V39.55h1.208l.008 6.073zm-46.836-.604h-1.232v-6.032h1.208l.024 6.032zm46.836-11.427h-1.216v-6.049h1.208l.008 6.049zm-46.836-.604h-1.232v-6.04h1.208l.024 6.04zm44.183-8.791h-6.015v-1.225h6.015v1.225zm-12.039 0h-6.016v-1.225h6.016v1.225zm-12.04 0h-6.015v-1.225h6.015v1.225zm-12.039 0h-6.032v-1.225h6.015l.017 1.225z" fill="#E0E0E0"/><path d="M484.923 28.596a4.434 4.434 0 01-4.356-5.294 4.43 4.43 0 016.048-3.231 4.43 4.43 0 012.732 4.101 4.432 4.432 0 01-4.424 4.424zm0-7.648a3.223 3.223 0 103.265 3.224 3.267 3.267 0 00-3.265-3.224zm46.191 7.648a4.431 4.431 0 11-.016-8.862 4.431 4.431 0 01.016 8.862zm0-7.648a3.224 3.224 0 103.224 3.224 3.263 3.263 0 00-3.224-3.224zm-46.191 55.154a4.434 4.434 0 01-4.356-5.292 4.428 4.428 0 013.48-3.487 4.432 4.432 0 015.3 4.347 4.44 4.44 0 01-4.424 4.432zm0-7.657a3.223 3.223 0 103.265 3.225 3.267 3.267 0 00-3.265-3.225zm46.191 7.657a4.428 4.428 0 01-4.1-2.73 4.43 4.43 0 015.786-5.798 4.434 4.434 0 012.738 4.096 4.439 4.439 0 01-4.424 4.432zm0-7.657a3.225 3.225 0 103.224 3.225 3.264 3.264 0 00-3.224-3.224zM506.96 38.44h-8.669v-4.08h22.186v4.081h-8.661V60.48h-4.897l.041-22.039zM25.849 86.403H13.262l-1.493 3.469a7.681 7.681 0 00-.735 2.865 2.375 2.375 0 001.208 2.204c1.119.412 2.301.625 3.494.628v.972H3.884v-.972a5.24 5.24 0 003.15-1.583 21.174 21.174 0 003.053-5.38l12.742-28.43h.498l12.848 29.222c1.224 2.768 2.236 4.506 3.02 5.225a4.08 4.08 0 002.522.946v.972H24.486v-.972h.677a5.338 5.338 0 002.914-.58 1.396 1.396 0 00.58-1.207 3.486 3.486 0 00-.155-.972c-.041-.155-.302-.816-.816-1.967l-1.837-4.44zm-.89-1.96L19.654 72.2l-5.47 12.244H24.96z" fill="#E0E0E0"/><path d="M48.924 298.602c3.388-1.746 7.347-1.975 11.142-1.355 2.024.335 4.13.939 5.502 2.449 1.371 1.51 1.632 4.187.057 5.493a5.31 5.31 0 01-3.47.882c-2.946 0-6.21-.555-8.562 1.216-1.347 1.012-2.236 2.694-3.844 3.192a3.8 3.8 0 01-4.18-1.853 6.456 6.456 0 01-.473-4.783 7.288 7.288 0 013.828-5.241zm-7.763-14.994c2.074 2.954 6.098 1.975 7.967.171 1.87-1.804 2.66-4.424 3.38-6.922 1.632-5.714 3.264-11.688 2.072-17.492a9.715 9.715 0 00-2.236-4.759 5.056 5.056 0 00-4.808-1.632c-2.032.53-3.265 2.522-4.212 4.416a41.625 41.625 0 00-4.08 17.9c0 2.881.326 5.901 1.95 8.285m-5.722 4.285c2.253-2.669 2.677-6.53 1.673-9.909a19.017 19.017 0 00-5.869-8.513 31.596 31.596 0 00-10.505-6.236 11.225 11.225 0 00-4.726-.817 4.962 4.962 0 00-3.942 2.449c-1.11 2.106-.05 4.669 1.102 6.759a79.057 79.057 0 006.905 10.505c2.065 2.669 4.432 5.305 7.591 6.53 3.16 1.224 6.44 1.044 8.073-1.143" fill="#EBEBEB"/><path d="M41.023 328.256c.108-.441.17-.892.188-1.346.098-.98.212-2.212.359-3.674.178-1.806.45-3.601.816-5.379a40.256 40.256 0 011.96-6.35c.811-2.062 1.91-4 3.264-5.755a12.077 12.077 0 014.081-3.403 11.559 11.559 0 013.461-1.078 6.247 6.247 0 001.339-.196 6.338 6.338 0 00-1.363 0c-1.248.095-2.47.41-3.608.931a12.24 12.24 0 00-4.326 3.444 22.876 22.876 0 00-3.363 5.861 38.904 38.904 0 00-1.934 6.457 45.548 45.548 0 00-.719 5.452 69.078 69.078 0 00-.18 3.69 6 6 0 00.025 1.346z" fill="#E0E0E0"/><path d="M41.276 325.432c.024-.209.024-.42 0-.629v-1.779c0-1.551 0-3.795.081-6.53.13-5.534.612-11.484 1.526-19.884.874-7.893 2.05-17.084 3.265-23.059a53.79 53.79 0 01.817-3.648c.285-1.069.44-2 .636-2.751.196-.751.31-1.273.417-1.73.06-.203.097-.411.114-.621-.1.185-.175.383-.22.588-.14.449-.31 1.012-.515 1.706a61.656 61.656 0 00-.734 2.734c-.27 1.102-.58 2.286-.865 3.641a201.934 201.934 0 00-3.445 21.394c-.922 8.415-1.339 16.08-1.371 21.63-.041 2.767 0 5.012.09 6.53.048.727.081 1.314.114 1.788.009.209.039.417.09.62z" fill="#E0E0E0"/><path d="M41.316 310.65a14.06 14.06 0 000-1.861c-.065-1.2-.237-2.931-.571-5.053a67.088 67.088 0 00-1.633-7.346 60.78 60.78 0 00-3.102-8.701 46.375 46.375 0 00-9.035-14.072 22.728 22.728 0 00-2.123-1.976c-.326-.277-.62-.546-.914-.767l-.816-.571a11.33 11.33 0 00-1.567-1.004 55.955 55.955 0 015.142 4.587 48.735 48.735 0 018.807 14.023 69.074 69.074 0 013.102 8.62c.816 2.702 1.339 5.191 1.747 7.289.408 2.098.604 3.812.743 4.995.02.618.094 1.232.22 1.837zm-14.283 26.071l1.478 20.284h26.062l1.478-20.284H27.033zm32.127-8H24.51v8h34.65v-8z" fill="#E0E0E0"/><path d="M24.51 356.229v2.212h34.078v-2.212H24.51z" fill="#EBEBEB"/><path d="M27.734 362.343l-1.591-3.902h31.205l-1.861 3.902H27.734z" fill="#E0E0E0"/><path d="M55.57 343.349s0 .065-.123.188l-.392.514c-.367.473-.873 1.126-1.518 1.943l-.066.089-.065-.089-3.755-5.159h.213c-1.102 1.567-2.343 3.314-3.665 5.199l-.123.164-.122-.155-4.359-5.184h.253l-.237.302a679.448 679.448 0 00-3.893 4.898l-.13.163-.123-.171-3.673-5.2h.212l-4.522 5.159-.082.09-.065-.106-1.412-2.376-.367-.636c-.082-.147-.115-.221-.107-.229.057.062.106.131.147.204l.409.612 1.485 2.335h-.147l4.457-5.224.114-.131.098.147c1.127 1.567 2.375 3.306 3.706 5.175h-.245l3.877-4.897.245-.302.122-.155.131.155 4.343 5.191h-.245l3.705-5.183.106-.155.107.155 3.656 5.216h-.114c.67-.817 1.2-1.429 1.584-1.894l.424-.49c.098-.114.147-.171.155-.163zm.846-6.767c0 .09-6.53.163-14.586.163-8.057 0-14.587-.073-14.587-.163 0-.09 6.53-.163 14.587-.163 8.056 0 14.586.073 14.586.163zm1.316 22.12c0 .09-7.093.163-15.851.163-8.758 0-15.852-.073-15.852-.163 0-.09 7.102-.163 15.852-.163s15.851.032 15.851.163z" fill="#F5F5F5"/><path d="M564.868 362.278c0 .122-124.339.212-277.671.212-153.331 0-277.703-.09-277.703-.212 0-.123 124.306-.213 277.703-.213s277.671.098 277.671.213z" fill="#263238"/><path d="M423.78 11.414H175.683v231.52h110.462v20.455l18.088-20.455H423.78V11.414z" fill="#fff"/><path d="M424.164 11.414H175.282v16.782h248.882V11.414z" fill="#E0E0E0"/><path d="M188.677 20.36a3.646 3.646 0 01-2.264 3.36 3.647 3.647 0 01-4.754-4.776 3.65 3.65 0 017.018 1.416zm10.505 0a3.646 3.646 0 01-2.264 3.36 3.647 3.647 0 01-4.754-4.776 3.65 3.65 0 017.018 1.416zm10.505 0a3.661 3.661 0 01-2.265 3.373 3.66 3.66 0 01-4.98-2.676 3.656 3.656 0 014.996-4.083 3.648 3.648 0 012.249 3.386z" fill="#fff"/><path d="M423.781 243.13c0-1.51-.074-92.105-.188-231.716l.188.18H175.642l.212-.212V243.13l-.187-.188h110.617v20.415l-.261-.106 18.088-19.917.041-.041h.065l119.556-.196-119.548.515.098-.049-18.072 19.932-.261.294v-20.643l.164.156H175.495V11.218h248.531v.18c-.18 139.627-.245 230.222-.245 231.732z" fill="#263238"/><path d="M227.293 61.744h-38.127v5.355h38.127v-5.355z" fill="#E0E0E0"/><path d="M265.282 80.746c0 .114-17.011.212-37.988.212-20.978 0-37.988-.098-37.988-.212 0-.114 17.002-.212 37.988-.212 20.985 0 37.988.09 37.988.212zm-22.749 22.471c0 .123-11.917.221-26.618.221-14.7 0-26.609-.098-26.609-.221 0-.122 11.909-.212 26.609-.212 14.701 0 26.618.131 26.618.212zm22.749-12.121c0 .123-17.011.212-37.988.212-20.978 0-37.988-.09-37.988-.212s17.002-.212 37.988-.212c20.985 0 37.988.09 37.988.212z" fill="#263238"/><path d="M293.247 212.072h-30.65v-30.65h30.65v30.65zm-29.834-.816h29.017v-29.018h-29.017v29.018zm-27.811.816h-30.65v-30.65h30.65v30.65zm-29.834-.816h29.018v-29.018h-29.018v29.018z" fill="#9468B4"/><path d="M236.867 218.855c0 .123-7.428.212-16.594.212s-16.594-.089-16.594-.212c0-.122 7.428-.212 16.594-.212s16.594.098 16.594.212zm-2.856 6.799c0 .123-6.449.212-14.391.212s-14.398-.089-14.398-.212c0-.122 6.448-.212 14.398-.212 7.95 0 14.391.098 14.391.212zm61.331-6.799c0 .123-7.436.212-16.602.212-9.167 0-16.594-.089-16.594-.212 0-.122 7.427-.212 16.594-.212 9.166 0 16.602.098 16.602.212zm-2.855 6.799c0 .123-6.44.212-14.391.212-7.95 0-14.39-.089-14.39-.212 0-.122 6.44-.212 14.39-.212 7.951 0 14.391.098 14.391.212z" fill="#263238"/><path d="M292.837 181.83c.082.082-6.53 6.832-14.765 15.068-8.236 8.236-14.987 14.88-15.068 14.766-.082-.114 6.53-6.832 14.766-15.068 8.235-8.236 14.986-14.847 15.067-14.766z" fill="#9468B4"/><path d="M291.262 211.851a1.612 1.612 0 01-.269-.302l-.718-.93c-.613-.816-1.51-1.984-2.629-3.42a177.214 177.214 0 00-9.199-10.832c-3.763-4.081-7.346-7.574-10.064-10.031-1.339-1.233-2.449-2.221-3.192-2.898l-.873-.816c-.188-.188-.286-.286-.277-.302.119.067.231.146.334.236l.923.727c.816.637 1.918 1.592 3.265 2.791 2.734 2.408 6.399 5.886 10.178 9.975 3.222 3.49 6.265 7.14 9.118 10.938 1.093 1.461 1.95 2.652 2.522 3.501l.653.972c.228.261.269.383.228.391zm-56.703-28.209c.081.082-6.465 6.391-14.611 14.089-8.146 7.697-14.831 13.876-14.913 13.778-.082-.098 6.465-6.391 14.619-14.089 8.154-7.697 14.823-13.859 14.905-13.778z" fill="#9468B4"/><path d="M234.231 211.525s-.114-.098-.286-.302l-.759-.922c-.636-.816-1.575-1.951-2.75-3.363a168.097 168.097 0 00-9.632-10.611c-3.918-3.959-7.714-7.347-10.505-9.795a258.445 258.445 0 00-3.331-2.8l-.906-.767a1.687 1.687 0 01-.293-.286s.13.065.351.22l.955.702c.816.613 1.991 1.535 3.42 2.702a139.319 139.319 0 0110.611 9.714 141.496 141.496 0 019.558 10.741 103.787 103.787 0 012.661 3.461l.686.963c.085.106.159.221.22.343zm166.891.09h-30.683v-30.65h30.65l.033 30.65zm-29.834-.817h29.018v-29.017h-29.05l.032 29.017zm-23.704.817h-30.666v-30.65h30.666v30.65zm-29.825-.817h29.009v-29.017h-29.034l.025 29.017z" fill="#9468B4"/><path d="M348.832 218.398c0 .122-7.428.212-16.594.212-9.167 0-16.594-.09-16.594-.212 0-.123 7.427-.212 16.594-.212 9.166 0 16.594.122 16.594.212zm-2.881 6.799c0 .123-6.448.212-14.39.212s-14.399-.089-14.399-.212c0-.122 6.448-.212 14.399-.212 7.95 0 14.39.098 14.39.212zm57.276-6.799c0 .122-7.436.212-16.602.212-9.167 0-16.595-.09-16.595-.212 0-.123 7.428-.212 16.595-.212 9.166 0 16.602.122 16.602.212zm-2.865 6.799c0 .123-6.44.212-14.39.212s-14.399-.089-14.399-.212c0-.122 6.449-.212 14.399-.212 7.95 0 14.39.098 14.39.212z" fill="#263238"/><path d="M400.712 181.373c.082.081-6.53 6.832-14.765 15.068-8.236 8.236-14.987 14.847-15.068 14.766-.082-.082 6.53-6.832 14.766-15.068 8.235-8.236 14.994-14.848 15.067-14.766z" fill="#9468B4"/><path d="M399.161 211.394a1.612 1.612 0 01-.269-.302l-.702-.946c-.612-.817-1.51-1.984-2.628-3.421a180.224 180.224 0 00-9.199-10.831 173.458 173.458 0 00-10.065-10.032c-1.338-1.232-2.448-2.22-3.191-2.897l-.874-.817c-.195-.187-.293-.285-.285-.302.124.063.24.143.343.237l.922.726c.816.637 1.918 1.633 3.265 2.792 2.734 2.449 6.391 5.885 10.17 9.975a139.138 139.138 0 019.126 10.937 98.042 98.042 0 012.522 3.502c.261.392.482.71.653.979.172.27.229.392.212.4zm-52.639-28.184c.082.089-6.464 6.391-14.61 14.088-8.147 7.697-14.832 13.876-14.913 13.778-.082-.098 6.464-6.391 14.619-14.088 8.154-7.697 14.823-13.885 14.904-13.778z" fill="#9468B4"/><path d="M346.188 211.068a2.096 2.096 0 01-.286-.302 31.654 31.654 0 00-.751-.914 151.846 151.846 0 00-2.751-3.371 172.583 172.583 0 00-9.631-10.611 183.291 183.291 0 00-10.505-9.795 258.445 258.445 0 00-3.331-2.8l-.906-.767a1.693 1.693 0 01-.294-.286s.131.065.351.22l.955.702a109.43 109.43 0 013.42 2.702 140.105 140.105 0 0120.17 20.463c1.151 1.437 2.057 2.62 2.653 3.453l.694.963c.155.237.228.335.212.343zm53.358-63.512H295.671V43.68h103.875v103.876zm-103.059-.816H398.73V44.497H296.487V146.74z" fill="#9468B4"/><path d="M394.737 142.748H300.24V48.251h94.497v94.497zm-93.681-.816h92.865V49.068h-92.865v92.864z" fill="#9468B4"/><path d="M302.364 141.467l-.653-.49 27.793-36.976 19.264 10.693 24.34-36.935.686.449-24.765 37.572-19.296-10.718-27.369 36.405zm41.954-53.122a12.457 12.457 0 1112.456-12.447 12.463 12.463 0 01-12.456 12.447zm0-24.087a11.638 11.638 0 00-8.23 19.87 11.642 11.642 0 0012.685 2.523 11.642 11.642 0 007.185-10.753 11.654 11.654 0 00-11.64-11.64z" fill="#9468B4"/><path d="M330.386 103.764h-1.534v1.535h1.534v-1.535zm19.181 10.611h-1.535v1.535h1.535v-1.535zm24.652-36.943h-1.534v1.535h1.534v-1.535zm-29.134 9.738h-1.534v1.535h1.534V87.17zm0-24.177h-1.534v1.535h1.534v-1.535zm10.554 12.137v1.535h1.534V75.13h-1.534zm-24.175 0v1.535h1.534V75.13h-1.534zm-28.669 65.325h-1.534v1.534h1.534v-1.534z" fill="#9468B4"/><path d="M373.45 94.728c-.115 0-.213-7.052-.213-15.753s.098-15.762.213-15.762c.114 0 .212 7.053.212 15.762 0 8.71-.098 15.754-.212 15.754z" fill="#9468B4"/><path d="M374.022 63.221a.573.573 0 01-1.143 0 .571.571 0 111.143 0zm-.572 32.414a.572.572 0 100-1.144.572.572 0 000 1.144z" fill="#9468B4"/><path d="M413.463 166.313c0 .115-42.445.213-94.758.213-52.313 0-94.758-.098-94.758-.213 0-.114 42.445-.22 94.758-.22 52.313 0 94.758.098 94.758.22z" fill="#E0E0E0"/><path d="M442.626 288.734l1.355 61.79-67.161.947-1.346-61.79 67.152-.947z" fill="#FAFAFA"/><path d="M442.625 288.735h-1.265l-3.649.073-13.745.245-48.493.816.171-.204c.408 18.398.874 39.482 1.371 61.79l-.195-.221 67.152-.906-.155.188c-.375-18.61-.686-34.037-.898-44.82-.098-5.395-.179-9.632-.228-12.529 0-1.437 0-2.547-.058-3.306-.057-.759 0-1.143 0-1.143v1.102c0 .735.058 1.845.09 3.265.074 2.89.18 7.101.319 12.48.253 10.816.62 26.284 1.061 44.935v.188h-.164l-67.152.987h-.196v-.228c-.441-22.292-.898-43.351-1.257-61.766v-.204h.171l48.608-.587 13.713-.139h4.84l-.041-.016z" fill="#263238"/><path d="M379.049 348.394l62.443-.873-1.183-54.02-62.435.882 1.175 54.011z" fill="#9468B4"/><path opacity=".3" d="M379.049 348.394l21.075-33.883 13.974 20.815 8.914-11.354 18.48 23.548-62.443.874zm40.233-37.849c.065 3.126-2.082 5.713-4.791 5.713-2.71 0-4.971-2.448-5.045-5.591-.073-3.143 2.082-5.714 4.792-5.714 2.709 0 4.97 2.425 5.044 5.592z" fill="#000"/><path d="M425.826 282.98l1.355 61.79-67.16.947-1.347-61.798 67.152-.939z" fill="#FAFAFA"/><path d="M425.827 282.98h-1.265l-3.649.074-13.745.244-48.485.817.163-.204c.408 18.39.882 39.473 1.371 61.789l-.196-.22 67.153-.914-.155.196c-.376-18.611-.678-34.038-.898-44.82-.098-5.396-.179-9.632-.228-12.53 0-1.436-.041-2.546-.058-3.306-.016-.759 0-1.142 0-1.142s0 .367.049 1.102c.049.734.049 1.844.09 3.265.065 2.889.172 7.101.31 12.48.253 10.815.621 26.275 1.07 44.934v.188h-.164l-67.152.98h-.212v-.229c-.482-22.316-.939-43.4-1.331-61.79v-.204h.18l48.599-.587 13.713-.139h4.84v.016z" fill="#263238"/><path d="M362.258 341.791l62.434-.874-1.183-54.019-62.435.882 1.184 54.011z" fill="#455A64"/><path d="M362.257 341.791l21.075-33.883 13.966 20.823 8.914-11.363 18.479 23.549-62.434.874zm40.225-38.266c.065 3.126-2.073 5.713-4.791 5.713-2.718 0-4.971-2.448-5.045-5.591-.073-3.142 2.082-5.714 4.8-5.714s4.971 2.474 5.036 5.592z" fill="#455A64"/><path opacity=".3" d="M362.257 341.791l21.075-33.883 13.966 20.823 8.914-11.363 18.479 23.549-62.434.874zm40.225-38.266c.065 3.126-2.073 5.713-4.791 5.713-2.718 0-4.971-2.448-5.045-5.591-.073-3.142 2.082-5.714 4.8-5.714s4.971 2.474 5.036 5.592z" fill="#000"/><path d="M418.546 275.128l1.347 61.79-67.153.947-1.346-61.798 67.152-.939z" fill="#FAFAFA"/><path d="M418.545 275.128h-1.265l-3.648.073-13.746.245-48.493.816.171-.204c.408 18.39.874 39.474 1.372 61.79l-.204-.229 67.16-.906-.155.188c-.375-18.602-.686-34.029-.898-44.812-.098-5.395-.179-9.631-.236-12.529 0-1.437 0-2.547-.049-3.306-.049-.759 0-1.143 0-1.143v1.102c0 .735.049 1.845.089 3.265.074 2.882.18 7.102.319 12.481.253 10.815.62 26.275 1.061 44.934v.188h-.163l-67.153.979h-.196v-.228c-.481-22.308-.93-43.392-1.33-61.782v-.204h.171l48.607-.588 13.713-.139h4.841l.032.009z" fill="#263238"/><path d="M354.968 334.787l62.443-.882-1.183-54.01-62.435.873 1.175 54.019z" fill="#9468B4"/><path opacity=".3" d="M354.968 334.787l21.075-33.882 13.966 20.814 8.922-11.362 18.48 23.549-62.443.881zm40.232-37.89c.066 3.126-2.081 5.714-4.799 5.714-2.718 0-4.971-2.449-5.036-5.592-.066-3.142 2.081-5.713 4.791-5.713 2.71 0 4.971 2.465 5.044 5.591z" fill="#000"/><path d="M410.735 283.086l1.461 61.798-72.588.947-1.462-61.798 72.589-.947z" fill="#FAFAFA"/><path d="M410.735 283.086h-1.371l-3.942.074-14.856.253-52.411.775.179-.196c.441 18.39.947 39.474 1.486 61.782l-.22-.221 72.588-.906-.171.188c-.4-18.61-.735-34.029-.963-44.82-.115-5.395-.196-9.624-.253-12.529 0-1.437-.049-2.539-.057-3.265-.009-.727 0-1.151 0-1.151v1.11c0 .743.057 1.845.097 3.265.082 2.889.196 7.109.343 12.48.278 10.815.67 26.283 1.151 44.935v.187h-.179l-72.581.98h-.155v-.221c-.514-22.308-1.012-43.399-1.437-61.789v-.196h.188l52.534-.58 14.815-.139h5.24l-.025-.016z" fill="#263238"/><path d="M342.016 341.905l67.487-.882-1.274-54.011-67.487.874 1.274 54.019z" fill="#9468B4"/><path opacity=".3" d="M342.016 341.905l22.781-33.882 15.092 20.814 9.64-11.354 19.974 23.54-67.487.882zm43.48-38.266a5.432 5.432 0 01-5.175 5.714 5.576 5.576 0 01-5.453-5.591 5.44 5.44 0 011.4-3.938 5.442 5.442 0 013.783-1.776 5.564 5.564 0 015.445 5.591z" fill="#000"/><path d="M445.002 320.103h-68.377v41.914h68.377v-41.914z" fill="#263238"/><path d="M409.812 320.103h-74.956v41.914h74.956v-41.914z" fill="#455A64"/><path d="M464.617 182.483l-.946-.286c-4.433 1.828-7.347 6.195-8.889 10.742-1.543 4.546-1.902 9.378-2.792 14.088-.89 4.71-2.449 9.509-5.714 12.954a53.355 53.355 0 006.889 5.02 5.392 5.392 0 002.564.996c1.477.057 2.742-.996 3.754-2.074 4.979-5.322 5.592-14.912 6.114-22.185.522-7.273 1.053-12.26-.98-19.255z" fill="#9468B4"/><path opacity=".2" d="M461.04 185.225s-10.832 37.882-10.138 38.364c.694.481 2.849 1.804 2.849 1.804l9.876-39.629-2.587-.539z" fill="#000"/><path d="M468.158 175.936a3.263 3.263 0 00-2.922-2.889 4.671 4.671 0 00-3.926 1.738 8.404 8.404 0 00-1.706 4.082c-.343 2.065-.065 4.505 1.633 5.713a4.139 4.139 0 004.522-.057 6.154 6.154 0 002.514-3.934 12.036 12.036 0 00-.155-4.767" fill="#9468B4"/><path d="M464.559 182.205a3.193 3.193 0 01-.53-1.314 8.169 8.169 0 011.289-6.579c.523-.718.955-1.053.988-1.02.033.032-.294.457-.735 1.183a9.667 9.667 0 00-1.191 3.069 9.523 9.523 0 00-.057 3.265c.113.459.192.926.236 1.396zm-1.584 3.502c0 .049-.212.171-.604.187a2.213 2.213 0 01-1.453-.506 2.19 2.19 0 01-.767-1.322c-.057-.392 0-.628.074-.628.073 0 .155.955.963 1.632.808.677 1.779.514 1.787.637z" fill="#263238"/><path d="M519.82 133.5l8.121 17.549-18.08-10.407 9.959-7.142z" fill="#fff"/><path d="M373.156 77.742l24.471 32.201 10.554-2.8 5.314 3.02 9.183-16.896-5.526-2.898-4.09-10.366-39.906-2.261z" fill="#FAFAFA"/><path d="M373.156 77.742l39.914 2.139h.082v.073l4.081 10.366-.057-.073 5.526 2.898.123.065-.066.122c-1.502 2.767-3.085 5.714-4.693 8.62l-4.498 8.277-.065.122-.122-.073-5.306-3.012h.098l-10.554 2.791h-.082l-.049-.065-24.373-32.283 24.577 32.128-.138-.041 10.554-2.808h.098l5.313 3.012-.187.057 4.497-8.268 4.685-8.628.058.188-5.526-2.906v-.041l-4.082-10.366.106.073-39.914-2.367z" fill="#263238"/><path d="M402.525 87.112a5.756 5.756 0 012.845 3.449 5.77 5.77 0 01-.477 4.444 5.977 5.977 0 01-7.992 2.45 5.76 5.76 0 01-2.84-3.45 5.766 5.766 0 01.473-4.444 5.983 5.983 0 017.991-2.449z" fill="#263238"/><path d="M373.156 77.742c.041-.065 6.032 2.881 13.387 6.579 7.354 3.698 13.28 6.758 13.28 6.824 0 .065-6.024-2.882-13.386-6.58-7.363-3.697-13.313-6.758-13.281-6.823z" fill="#263238"/><path d="M564.394 176.361a9.52 9.52 0 01-12.693 3.934l-133.105-67.952 8.978-16.472 132.991 67.911a9.173 9.173 0 014.569 5.482 9.172 9.172 0 01-.74 7.097z" fill="#9468B4"/><path d="M429.199 94.948l-10.546 19.386-6.742-3.534 10.538-19.394 6.75 3.542z" fill="#9468B4"/><path opacity=".3" d="M419.372 113.02l8.962-16.488 2.514 1.306-10.578 15.647-.898-.465z" fill="#000"/><path opacity=".5" d="M414.801 105.486l9.746-2.416 1.575-2.465-10.023 2.482-1.298 2.399z" fill="#fff"/><path opacity=".2" d="M510.546 138.83a19.774 19.774 0 01.498 20.92l-.498-20.92z" fill="#000"/><path d="M485.922 346.85c.081.163.873-.098 1.869-.049s1.771.343 1.861.188c.09-.155-.669-.759-1.837-.816-1.167-.058-1.983.546-1.893.677zm-2.188-13.542c.139.098.71-.522 1.632-.971.923-.449 1.706-.588 1.706-.759 0-.171-.955-.335-1.991.22-1.037.555-1.494 1.437-1.347 1.51z" fill="#263238"/><path d="M485.226 332.794l1.053 18.464s-18.415 7.272-18.553 10.701l35.874-.751-.457-28.838-17.917.424z" fill="#9468B4"/><path d="M497.339 349.47a1.468 1.468 0 011.053 1.633 1.415 1.415 0 01-1.633 1.053 1.552 1.552 0 01-1.102-1.755 1.474 1.474 0 011.821-.906" fill="#E0E0E0"/><path d="M503.65 362.13v-3.844l-34.543 1.82s-1.584.734-1.38 1.853l35.923.171zm-17.957-11.044c0 .18.889.237 1.763.816.873.58 1.346 1.274 1.51 1.2.163-.073-.123-1.077-1.192-1.722s-2.122-.449-2.081-.294zm-3.731 1.633c0 .171.735.457 1.347 1.183.612.727.816 1.51.971 1.502.155-.008.261-1.004-.514-1.902-.776-.897-1.796-.946-1.804-.783zm-2.041 4.554c.163 0 .384-.816-.082-1.795-.465-.98-1.298-1.315-1.371-1.168-.074.147.449.645.816 1.437.367.792.465 1.51.637 1.526zm29.916-187.94s8.162 14.08 9.313 26.683c1.02 11.427-6.187 24.487-6.187 24.487l-12.456 46.902 3.673 80.204-19.925 1.02-11.492-91.958 3.477-85.583 33.597-1.755z" fill="#263238"/><path d="M476.141 321.448l10.089 15.509s-12.375 15.452-10.783 18.48l30.756-18.472-14.692-24.797-15.37 9.28z" fill="#9468B4"/><path d="M494.94 329.905a1.459 1.459 0 011.731.914 1.413 1.413 0 01-.89 1.722 1.548 1.548 0 01-1.829-.971 1.463 1.463 0 011.127-1.69" fill="#E0E0E0"/><path d="M506.204 336.982l-1.584-2.449-28.887 18.635s-1.012 1.42-.277 2.285l30.748-18.471zm-20.57.114c.098.147.89-.237 1.919-.196 1.028.041 1.804.433 1.902.294.097-.139-.637-.882-1.886-.906-1.249-.025-2.041.694-1.935.808zm-2.424 3.273c.057.163.857 0 1.747.359.889.359 1.444.914 1.632.816.188-.098-.269-1.004-1.387-1.387-1.119-.384-2.074.065-1.992.212zm.491 4.963c.155-.049-.089-.931-.963-1.519-.873-.587-1.779-.497-1.771-.334.008.163.71.343 1.428.816.719.473 1.143 1.11 1.306 1.037zm-17.174-170.359s-24.259 87.2-19.035 96.962 31.948 64.108 31.948 64.108l22.463-12.366-25.663-59.953 19.508-42.91s9.346-8.163 12.962-19.533c3.616-11.37-2.628-30.201-2.628-30.201h-39.008l-.547 3.893z" fill="#263238"/><path d="M509.838 189.217s.065.22.147.669c.081.449.212 1.118.326 1.992.373 2.534.548 5.094.523 7.656a30.734 30.734 0 01-.604 5.477 17.38 17.38 0 01-.914 3.012 19.618 19.618 0 01-1.568 3.004 25.032 25.032 0 01-11.933 9.974l.114-.106-19.467 42.927v-.188l1.118 2.604a42398.822 42398.822 0 0124.479 57.366l.057.138-.13.074-16.472 8.978-4.49 2.449-1.208.604a4.024 4.024 0 01-.408.196l.408-.196 1.151-.661 4.449-2.498 16.439-9.158-.073.212c-6.294-14.651-14.995-34.911-24.61-57.316l-1.119-2.604-.04-.098.04-.098 19.517-42.869v-.074h.082a24.82 24.82 0 0011.753-9.746 19.662 19.662 0 001.568-2.938c.391-.959.697-1.951.914-2.963.375-1.787.59-3.604.645-5.428a53.38 53.38 0 00-.368-7.657c-.098-.873-.204-1.542-.269-1.991-.065-.449-.057-.743-.057-.743z" fill="#455A64"/><path d="M476.24 190.661c.151-.029.304-.048.457-.057l1.363-.098 5.224-.351 18.66-1.151h.228v18.545l-.082.074c-.897.759-1.844 1.575-2.807 2.4l-9.567 8.162-.106.123-.13-.066-12.44-6.211-.106-.057v-.115c-.221-6.383-.416-11.688-.547-15.435-.057-1.804-.098-3.265-.131-4.261v-1.11a.253.253 0 11.049.041c0 .294.041.669.074 1.143.057 1.036.13 2.448.228 4.301.188 3.722.441 8.979.751 15.305l-.106-.171 12.464 6.154h-.253l9.558-8.162 2.808-2.4-.09.179v-18.202l.229.212-18.537.931-5.281.245-1.404.049c-.326-.017-.498-.008-.506-.017z" fill="#455A64"/><path d="M501.855 192.629c-.322.11-.657.179-.996.204-.645.106-1.576.236-2.735.375-2.31.278-5.518.596-9.068.816-3.551.221-6.775.302-9.101.31h-2.759a4.347 4.347 0 01-1.012-.081 3.853 3.853 0 011.004-.106l2.758-.123c2.327-.089 5.535-.228 9.077-.449 3.543-.22 6.751-.481 9.069-.669l2.75-.229a4.191 4.191 0 011.013-.048zm-34.733-62.043a32.389 32.389 0 00-2.539 15.59c.368 3.42 2.376 12.129 2.376 12.129l-.27 16.668s44.208-3.314 44.167-3.404c-.04-.089.482-20.985.082-35.678-.4-14.692-6.857-29.817-6.857-29.817s-5.885-3.396-10.292-3.02c-4.408.375-22.912 2.449-22.912 2.449l-3.755 25.083z" fill="#455A64"/><path d="M470.16 106.049s-7.346 1.07-14.227 11.82c-7.077 11.109-10.318 15.704-10.318 15.704l20.153 13.166s11.118-16.749 12.505-20.341c1.388-3.591 2.939-20.683-8.113-20.349zm29.554-1.126s6.375 2.522 8.979 6.587c1.714 2.636 12.244 21.173 12.244 21.173l-12.13 8.44-9.15-25.72.057-10.48z" fill="#455A64"/><path opacity=".2" d="M464.208 149.09l2.334 1.053s11.019-14.611 11.427-22.855l-12.105 18.774-2.032-1.078.376 4.106z" fill="#000"/><path d="M509.266 117.909c.052.134.085.274.098.417l.179 1.191c.147 1.037.343 2.539.547 4.4.416 3.722.816 8.873 1.151 14.578.335 5.706.392 10.881.424 14.619v5.64c.009.143-.004.286-.04.425a2.513 2.513 0 010-.425c0-.326 0-.718-.049-1.2 0-1.11-.074-2.612-.123-4.432-.106-3.738-.245-8.905-.547-14.602a413.958 413.958 0 00-1.028-14.579c-.172-1.812-.31-3.264-.408-4.407-.041-.482-.074-.874-.106-1.2a2.28 2.28 0 01-.098-.425zm-3.218-33.466c-.922-4.71-2.865-9.142-4.342-13.704-1.723-5.314-3.061-11.208-7.346-14.783-2.825-2.367-6.53-3.338-10.155-4.08-3.265-.67-6.66-1.184-9.933-.507-1.633.343-3.192.971-4.808 1.363-1.885.457-3.869.596-5.624 1.404-3.632 1.633-5.485 5.82-6.032 9.795-.547 3.975-.098 8.016-.661 11.974-.278 1.894-.816 3.755-1.241 5.616-1.673 3.616-3.51 7.232-3.265 11.101.188 2.8 1.478 5.404 2.09 8.163.612 2.758.367 6.032-1.845 7.754a4.03 4.03 0 005.996-.569c.45-.613.717-1.341.771-2.1.286.396.668.713 1.11.922a7.005 7.005 0 003.608.278c3.518-.335 7.174-.743 10.235-2.449l17.231-1.469c4.449 1.804 9.795-.694 12.375-4.75 2.579-4.058 2.767-9.265 1.836-13.959z" fill="#263238"/><path d="M471.106 55.059c-1.632.334-3.428.09-5.061.546-2.375.67-4.138 2.76-5.044 5.053a24.117 24.117 0 00-1.257 7.256l-.465 6.604a20.857 20.857 0 01-.588 4.212c-.433 1.526-1.633 5.575-1.698 7.55a21.336 21.336 0 004.898 14.937c1.518 1.722 8.595 1.763 10.847 2.22.988-.865 3.47-.857 4.465-1.73.164-.147-7.207-5.78-7.117-5.983a1.527 1.527 0 00-.098-1.07 52.676 52.676 0 012.22-39.236" fill="#263238"/><path d="M491.046 105.486l2.579-40.502a3.387 3.387 0 00-3.028-3.444l-17.957-4.588c-5.763-.62-9.616 6.465-9.991 12.244-.416 6.424-.678 14.284.073 19.084 1.51 9.64 8.897 10.88 8.897 10.88l.613 6.473s4.677-.816 8.162-1.192c7.583-.816 10.652 1.045 10.652 1.045z" fill="#fff"/><path d="M464.861 76.403a1.235 1.235 0 001.184 1.25 1.184 1.184 0 001.282-1.11 1.252 1.252 0 00-1.192-1.258 1.195 1.195 0 00-1.155.666 1.208 1.208 0 00-.119.452zm.017-2.833c.155.164 1.094-.53 2.449-.521 1.355.008 2.302.677 2.449.514.146-.163-.09-.368-.515-.678a3.32 3.32 0 00-1.959-.604 3.265 3.265 0 00-1.926.612c-.433.319-.571.604-.498.678zm12.202 2.997a1.236 1.236 0 001.184 1.249 1.184 1.184 0 001.281-1.11 1.237 1.237 0 00-1.191-1.258 1.19 1.19 0 00-1.274 1.119zm.873-2.997c.155.164 1.094-.53 2.449-.521 1.355.008 2.302.677 2.449.514.147-.163-.082-.368-.514-.678a3.322 3.322 0 00-1.959-.604 3.266 3.266 0 00-1.927.612c-.432.319-.571.604-.498.678zm-4.847 9.861a9.11 9.11 0 00-2.163-.4c-.335 0-.661-.098-.718-.335-.028-.35.051-.7.228-1.004.327-.816.661-1.68 1.012-2.587 1.404-3.681 2.449-6.701 2.269-6.758-.179-.058-1.404 2.88-2.808 6.53-.334.906-.661 1.77-.971 2.603-.211.41-.275.88-.179 1.33a.865.865 0 00.563.499c.186.052.378.079.571.081a8.98 8.98 0 002.196.041z" fill="#263238"/><path d="M471.596 99.136c4.718.11 9.378-1.07 13.476-3.412 0 0-3.543 7.346-13.191 6.408l-.285-2.996zm5.991-12.897a2.496 2.496 0 00-1.739-.939 2.785 2.785 0 00-2.449 1.02l-.065.05a.526.526 0 000 .57c.114.182.264.337.441.458a5.71 5.71 0 001.959 1.175 1.861 1.861 0 002.016-.498 1.631 1.631 0 00-.163-1.837z" fill="#fff"/><path d="M477.015 84.362c-.212 0-.22 1.428-1.461 2.449-1.241 1.02-2.775.865-2.783 1.06-.009.197.342.286.987.303a3.602 3.602 0 002.327-.817 3.125 3.125 0 001.134-2.065c.057-.58-.106-.938-.204-.93zm.122-15.542c.131.36 1.461.188 3.02.384 1.56.196 2.825.62 3.037.294.09-.155-.131-.498-.637-.816a5.052 5.052 0 00-2.244-.816 5.18 5.18 0 00-2.368.277c-.579.22-.857.506-.808.678zm-12.284.523c.236.302 1.15 0 2.252 0 1.102 0 2.041.204 2.253-.106.098-.155-.049-.457-.457-.743a3.264 3.264 0 00-3.632.106c-.384.278-.514.596-.416.743z" fill="#263238"/><path d="M456.717 107.584a2.684 2.684 0 01-.196-.563 31.32 31.32 0 01-.408-1.633 30.871 30.871 0 01-.645-6.293 33.346 33.346 0 011.355-9.29c.914-3.403 2.302-7.043 2.93-11.035.629-3.991.433-7.901.931-11.427.498-3.526 1.567-6.644 3.265-8.759a10.226 10.226 0 015.183-3.567 5.795 5.795 0 012.31-.236c-.766.062-1.524.201-2.261.416a10.353 10.353 0 00-4.971 3.592 17.588 17.588 0 00-3.102 8.61c-.473 3.47-.294 7.347-.898 11.428-.604 4.082-2.049 7.706-2.979 11.085a33.83 33.83 0 00-1.437 9.166 33.505 33.505 0 00.49 6.261c.122.735.237 1.298.318 1.682.059.183.097.371.115.563z" fill="#455A64"/><path d="M469.906 56.307a2.322 2.322 0 01.988-1.347 13.682 13.682 0 0110.464-2.35 24.415 24.415 0 0110.048 4.358c2.628 1.82 5.118 4.082 6.457 6.963a23.146 23.146 0 011.559 6.579c.759 5.558 2.253 11.125 2.195 16.733 0 2.188.376 5.86 0 8.554-.391 2.873-3.183 6.383-6.015 7.028l-6.392.637s3.461-11.926 3.192-16.22c-.229-3.762-.196-7.892-.62-11.639a1.962 1.962 0 00-.229-.816 2.064 2.064 0 00-.873-.677l-3.992-2.041a39.898 39.898 0 01-3.746-2.09 33.561 33.561 0 01-3.771-2.603c-1.723-1.47-3.306-2.653-5.028-4.123A20.302 20.302 0 01471 59.508a5.17 5.17 0 01-.857-4.081" fill="#263238"/><path d="M491.323 78.19c.019-.47.155-.929.397-1.333a2.819 2.819 0 012.327-1.363c.471-.014.938.091 1.357.305.98.563 1.723 1.698 1.633 3.877-.237 5.804-6.016 4.367-6.024 4.204-.008-.163.228-3.29.31-5.69z" fill="#fff"/><path d="M492.915 81.75s.098.073.261.163c.238.11.509.128.759.049a2.524 2.524 0 001.249-2.204 3.269 3.269 0 00-.22-1.461 1.206 1.206 0 00-.727-.816.522.522 0 00-.612.253c-.082.163-.049.277-.082.285-.032.008-.122-.098-.065-.335a.612.612 0 01.245-.359.759.759 0 01.563-.122 1.405 1.405 0 011.02.939c.226.513.324 1.073.286 1.632-.09 1.167-.734 2.237-1.583 2.449a1.07 1.07 0 01-.915-.188c-.179-.147-.22-.277-.179-.286z" fill="#fff"/><path d="M500.956 69.049a20.283 20.283 0 00-4.024-2.449 30.21 30.21 0 00-4.898-1.632c-1.877-.506-3.975-.955-6.13-1.633a31.177 31.177 0 01-10.17-5.363c-.92-.72-1.793-1.5-2.612-2.334a5.674 5.674 0 01-.816-.963c.347.243.672.516.971.816a38.09 38.09 0 002.685 2.196 33.474 33.474 0 0010.13 5.175c2.13.66 4.228 1.126 6.106 1.632a28.883 28.883 0 014.897 1.747 13.937 13.937 0 012.963 1.87c.247.202.482.42.702.652.139.172.212.278.196.286z" fill="#455A64"/><path d="M498.482 61.54c2.22 7.182 5.844 13.745 8.073 18.928 1.036 2.4 2.522 5.232 2.995 7.804.523 2.824-.685 5.632-1.355 8.423-.669 2.792-.571 6.236 1.747 7.926a18.526 18.526 0 01-10.962 3.951 3.384 3.384 0 01-2.139-.466 1.348 1.348 0 01-.326-1.934 9.519 9.519 0 01-12.073 1.249c-.261-3.094-.465-6.457 1.241-9.06 1.396-2.123 3.918-3.462 4.832-5.829.547-1.412-.171-3.183.066-4.685.236-1.502 1.232-3.485 1.681-3.69a7.346 7.346 0 007.844-5.427l.123-.457-1.747-16.733z" fill="#263238"/><path d="M497.07 103.119a3.17 3.17 0 01.302-.588l.914-1.632a41.725 41.725 0 002.808-6.31 25.649 25.649 0 001.461-10.04 17.858 17.858 0 00-4.693-11.248c-3.078-3.207-6.995-5.085-10.481-6.7a77.857 77.857 0 01-9.199-4.596 21.592 21.592 0 01-5.33-4.465c-.411-.48-.785-.99-1.118-1.527a3.157 3.157 0 01-.327-.571c.049 0 .506.76 1.584 1.975a22.78 22.78 0 005.371 4.302 83.58 83.58 0 009.24 4.465c3.501 1.632 7.476 3.477 10.611 6.775a18.182 18.182 0 014.783 11.55 25.639 25.639 0 01-1.575 10.178 37.617 37.617 0 01-2.972 6.285c-.416.71-.759 1.249-.995 1.633a4.19 4.19 0 01-.384.514z" fill="#455A64"/><path d="M479.137 125.255c-.074-.04.489-1.036.914-2.807a13.16 13.16 0 00-3.91-12.889c-1.339-1.233-2.367-1.747-2.326-1.82.258.079.505.191.734.334.635.365 1.233.788 1.788 1.266a12.738 12.738 0 014.008 13.182c-.199.71-.473 1.397-.817 2.049a3.12 3.12 0 01-.391.685z" fill="#263238"/><path d="M463.719 182.123l18.969.417a1.631 1.631 0 011.576 1.632c-.384 9.403-2.114 56.076 1.755 56.803 4.309.816 8.872-7.404 15.206-4.547s13.836 6.073 17.37 2.498c3.534-3.575 6.367-44.959-7.738-67.602l-44.894 2.572-2.244 8.227z" fill="#9468B4"/><path d="M487.089 176.973a4.39 4.39 0 01-.931 0l-2.53-.049c-2.139 0-5.085 0-8.342.212a91.814 91.814 0 00-8.285.947l-2.498.4a3.491 3.491 0 01-.922.106c.286-.122.584-.213.89-.269a52.35 52.35 0 012.449-.539 71.499 71.499 0 0116.716-1.102c1.069.057 1.935.123 2.531.188.31-.004.62.032.922.106zm9.548 5.265a9.23 9.23 0 01-1.314-.204c-.816-.164-2.057-.392-3.559-.645a130.197 130.197 0 00-11.827-1.494c-4.645-.367-8.857-.408-11.909-.367-1.527 0-2.768.057-3.616.09-.443.04-.888.04-1.331 0a8.897 8.897 0 011.322-.156c.817-.081 2.09-.163 3.616-.22 3.985-.152 7.975-.073 11.95.237 3.979.318 7.936.863 11.852 1.632 1.502.302 2.71.572 3.534.816.437.062.866.166 1.282.311zm7.46 16.651c.04.405.04.812 0 1.217 0 .857-.081 1.967-.138 3.264a161.631 161.631 0 00-.041 10.897c.13 4.253.457 8.098.743 10.873.138 1.33.253 2.448.351 3.265.067.399.094.803.081 1.208a7.024 7.024 0 01-.245-1.192 70.913 70.913 0 01-.489-3.265c-.36-2.767-.727-6.62-.866-10.889-.138-4.269 0-8.162.164-10.921.089-1.396.187-2.53.277-3.306.023-.387.078-.772.163-1.151zm6.147 28.65c-.122 0-.898-8.358-1.747-18.692-.848-10.333-1.444-18.708-1.322-18.716.123-.008.898 8.35 1.747 18.684.849 10.333 1.436 18.716 1.322 18.724z" fill="#263238"/><path d="M447.841 134.985l-1.632 2.18-.596-11.093-11.174-3.755s-2.629 27.851-2.229 32.177c.441 4.718.531 4.954 1.731 7.101 1.534 2.759 6.864 4.677 9.909 3.869 3.045-.808 6.318-4.955 8.75-7.436 4.432-4.497 11.264-13.06 11.264-13.06l-16.023-9.983z" fill="#fff"/><path d="M447.843 134.985a13.217 13.217 0 01-1.224 1.861c-.817 1.127-1.845 2.694-2.939 4.473a109.895 109.895 0 00-2.694 4.629c-.317.67-.691 1.311-1.118 1.918.199-.713.472-1.402.816-2.057a52.735 52.735 0 015.665-9.126 9.894 9.894 0 011.494-1.698zm-13.469-11.239l-4.359-2.449c-1.747-1.388-3.355-2.751-3.771-4.947 0 0 12.693 5.673 13.705 6.196 1.012.522 5.803 2.448 5.657 4.432l-11.232-3.232z" fill="#fff"/><path opacity=".2" d="M479.855 176.1c4.693-.106 9.395-.082 14.08.22.947.057 2.187.433 2.155 1.379a1.278 1.278 0 01-.939 1.062 3.588 3.588 0 01-1.502.049l-12.513-1.315a37.57 37.57 0 00-16.831 1.257l-.171-1.028s13.076-1.559 15.721-1.624z" fill="#000"/><path d="M100.678 100.695h34.119l-.58 21.647-27.417 6.244-6.122-27.891z" fill="#455A64"/><path d="M94.393 332.941l-6.375 15.444s13.558 11.656 12.652 14.627L70.29 351.74l8.937-24.488 15.166 5.689z" fill="#9468B4"/><path opacity=".3" d="M94.393 332.941l-6.375 15.444s13.558 11.656 12.652 14.627L70.29 351.74l8.937-24.488 15.166 5.689z" fill="#000"/><path d="M79.111 343.577a1.327 1.327 0 00-1.38 1.102 1.28 1.28 0 001.078 1.38 1.398 1.398 0 001.453-1.176c0-.645-.629-1.396-1.273-1.306" fill="#E0E0E0"/><path d="M70.297 351.74l.996-2.449 28.756 11.713s1.135 1.094.629 1.992L70.297 351.74zm18.276-3.331c-.057.147-.816-.065-1.73.147-.915.213-1.535.686-1.633.572-.098-.115.424-.882 1.526-1.11 1.102-.229 1.918.269 1.837.391zm2.709 2.498c0 .163-.76.172-1.494.612-.734.441-1.134 1.053-1.273.988-.139-.065.065-.931.996-1.461.93-.531 1.812-.278 1.771-.139zm.384 4.531c-.147 0-.081-.817.604-1.51.686-.694 1.494-.735 1.51-.588.016.147-.571.424-1.126.979-.555.555-.833 1.119-.988 1.119zm-2.018-10.71c-.114.115-.718-.343-1.575-.596-.857-.253-1.633-.236-1.633-.391 0-.155.817-.449 1.804-.139.988.31 1.502 1.037 1.404 1.126z" fill="#263238"/><path d="M78.99 335.57l-.505 17.598s17.72 6.424 17.957 9.689l-34.16.245-.384-27.45 17.093-.082z" fill="#9468B4"/><path d="M67.912 351.764a1.404 1.404 0 00-.955 1.633 1.337 1.337 0 001.576.963 1.48 1.48 0 001.004-1.698 1.397 1.397 0 00-1.755-.816" fill="#E0E0E0"/><path d="M62.247 363.828v-2.661h32.854s1.526.645 1.363 1.723l-34.217.938zm16.791-10.839c0 .163-.816.245-1.632.816-.817.571-1.25 1.249-1.404 1.183-.155-.065.09-1.028 1.094-1.632 1.004-.604 1.942-.514 1.942-.367zm3.592 1.461c0 .163-.678.449-1.242 1.159-.563.71-.718 1.461-.881 1.461-.163 0-.286-.947.433-1.82.718-.874 1.69-.964 1.69-.8zm2.063 4.252c-.147.041-.383-.816 0-1.706.384-.889 1.2-1.289 1.274-1.151.073.139-.408.629-.743 1.388-.335.759-.36 1.469-.53 1.469zm-5.99-9.729c-.065.147-.816-.074-1.771 0-.955.073-1.682.375-1.763.236-.082-.138.612-.742 1.722-.816 1.11-.073 1.894.441 1.812.58zm31.712-169.388s13.933 56.264 16.227 74.32c1.633 12.57-1.551 20.847-1.926 23.361a7.221 7.221 0 01-.816 2.408l-30.104 58.394-20.806-7.216s15.59-47.089 19.003-54.688l3.836-6.816-30.356-76.874 44.942-12.889z" fill="#263238"/><path d="M95.633 191.723c.384 1.543-17.9 92.015-17.9 92.015l2.35 64.81-19.23.523s-9.844-35.311-10.228-56.15c-.383-20.839 1.968-24.389.261-37.4-1.795-13.713-12.798-41.963-7.811-61.129 4.171-16.023 14.93-23.736 14.93-23.736l37.628 21.067z" fill="#263238"/><path d="M80.1 349.095a2.105 2.105 0 000-.335v-.979c0-.882-.049-2.147-.09-3.763-.09-3.265-.236-8.04-.407-13.917-.392-11.836-.94-28.234-1.551-46.673v.057c.44-2.212.914-4.563 1.387-6.938 3.87-19.712 7.346-37.547 9.918-50.501 1.24-6.448 2.252-11.672 2.954-15.321.335-1.787.588-3.183.776-4.163.081-.457.139-.816.188-1.085.026-.124.043-.249.049-.376a2.353 2.353 0 00-.098.359c-.066.27-.14.629-.245 1.078-.204.979-.498 2.375-.865 4.154-.743 3.633-1.804 8.849-3.11 15.281-2.588 12.937-6.138 30.772-10.073 50.468l-1.38 6.946v.057c.678 18.439 1.282 34.838 1.723 46.665.237 5.877.433 10.611.563 13.876.082 1.633.139 2.874.18 3.763 0 .408 0 .727.057.972a1.56 1.56 0 00.024.375zm15.548-80.996c-.114.057.816 1.82 2.718 3.265a7.62 7.62 0 003.869 1.747c.049-.147-1.738-.759-3.559-2.155-1.82-1.396-2.897-2.922-3.028-2.857z" fill="#455A64"/><path d="M57.668 47.917a7.657 7.657 0 00-8.342-.653 11.044 11.044 0 00-5.191 6.905 9.142 9.142 0 00-.212 4.547 5.387 5.387 0 002.652 3.575 3.95 3.95 0 011.682 1.086c.702 1.093-.416 2.563-.065 3.82a2.26 2.26 0 002.62 1.346 5.42 5.42 0 002.694-1.697 20.79 20.79 0 005.828-12.244 6.082 6.082 0 00-1.666-6.685z" fill="#263238"/><path d="M184.22 333.162l-57.366-2.089a11.577 11.577 0 01-8.141-3.634 11.587 11.587 0 01-3.148-8.341l9.232-217.586a11.762 11.762 0 0112.244-11.11l57.366 2.09a11.59 11.59 0 0111.296 11.966l-9.207 217.587a11.763 11.763 0 01-12.276 11.117z" fill="#FAFAFA"/><path d="M184.22 333.162h.417a11.87 11.87 0 0010.815-7.11c.625-1.494.95-3.097.955-4.717.065-1.736.139-3.587.22-5.551.637-15.705 1.568-38.404 2.71-66.451 1.143-28.046 2.563-61.455 4.081-98.537.381-9.25.779-18.746 1.192-28.487.207-4.848.414-9.746.621-14.692.073-2.449.424-4.979-.482-7.273a11.37 11.37 0 00-7.901-7.166 17.486 17.486 0 00-3.788-.409l-7.819-.285-15.844-.572-32.356-1.175a11.775 11.775 0 00-7.427 2.318 11.377 11.377 0 00-4.204 6.375 18.896 18.896 0 00-.376 3.869c-.057 1.322-.114 2.636-.163 3.942-.114 2.629-.228 5.241-.335 7.853-.451 10.42-.889 20.681-1.314 30.78-.865 20.186-1.697 39.654-2.448 58.207-1.633 37.09-3.045 70.491-4.261 98.545-.155 3.502-.302 6.93-.449 10.26-.074 1.674-.147 3.314-.212 4.939a13.29 13.29 0 00.326 4.709 11.431 11.431 0 005.534 6.922 11.7 11.7 0 004.155 1.331c1.428.155 2.906.138 4.318.212l29.181 1.126 18.439.735 4.791.204a41.54 41.54 0 011.633.098h-1.633l-4.791-.171-18.439-.605-29.189-1.012c-1.429-.065-2.857 0-4.351-.196a12.03 12.03 0 01-4.342-1.371 11.816 11.816 0 01-5.755-7.158 13.8 13.8 0 01-.351-4.841c.066-1.632.131-3.265.204-4.897.139-3.33.278-6.759.425-10.26 1.167-28.055 2.563-61.464 4.081-98.554a16643.65 16643.65 0 002.449-58.206c.424-10.089.857-20.349 1.298-30.781.114-2.612.22-5.224.334-7.852.057-1.306.106-2.62.163-3.943a19.89 19.89 0 01.392-4 12.049 12.049 0 014.457-6.758 12.495 12.495 0 017.869-2.449l32.364 1.176 15.835.58 7.828.285c1.32-.004 2.637.139 3.926.424 1.286.343 2.508.894 3.616 1.633a11.76 11.76 0 014.742 5.999c.44 1.212.661 2.491.653 3.78 0 1.273-.09 2.448-.13 3.738l-.629 14.692c-.414 9.708-.822 19.201-1.224 28.479-1.633 37.09-3.045 70.491-4.253 98.546-1.208 28.054-2.245 50.737-2.93 66.434-.09 1.959-.18 3.812-.253 5.55a12.475 12.475 0 01-1.004 4.792 11.687 11.687 0 01-5.2 5.599 11.373 11.373 0 01-4.579 1.38 8.63 8.63 0 01-1.224.04l-.368-.073z" fill="#263238"/><path d="M200.732 145.679l-74.442-2.71 1.592-37.36 74.433 2.71-1.583 37.36zm-2.253 52.909l-74.433-2.71 1.592-37.36 74.433 2.71-1.592 37.36zm-2.245 52.909l-74.433-2.71 1.583-37.36 74.434 2.71-1.584 37.36zm-2.244 52.909l-74.433-2.71 1.583-37.36 74.434 2.71-1.584 37.36z" fill="#9468B4"/><path opacity=".1" d="M200.732 145.679l-74.442-2.71 1.592-37.36 74.433 2.71-1.583 37.36z" fill="#000"/><path opacity=".2" d="M198.479 198.588l-74.433-2.71 1.592-37.36 74.433 2.71-1.592 37.36z" fill="#000"/><path opacity=".3" d="M196.234 251.497l-74.433-2.71 1.583-37.36 74.434 2.71-1.584 37.36z" fill="#000"/><path opacity=".4" d="M193.99 304.406l-74.433-2.71 1.583-37.36 74.434 2.71-1.584 37.36z" fill="#000"/><path d="M183.125 333.799l-55.652.579c-5.959.058-10.84-4.995-10.897-11.288l-2.106-224.9c-.057-6.294 4.726-11.428 10.693-11.51l55.652-.579c5.966-.065 10.839 4.987 10.905 11.289l2.097 224.892c.058 6.293-4.726 11.452-10.692 11.517z" fill="#FAFAFA"/><path d="M183.127 333.799s.539 0 1.551-.188a10.257 10.257 0 004.212-1.739 11.26 11.26 0 004.35-6.13c.426-1.609.578-3.278.449-4.938 0-1.796-.022-3.7-.065-5.714-.18-16.186-.433-39.571-.743-68.475-.31-28.903-.637-63.324-1.02-101.541l-.286-29.384-.147-15.158c0-1.273 0-2.58-.065-3.82a11.732 11.732 0 00-.817-3.624 11.09 11.09 0 00-4.758-5.412 9.994 9.994 0 00-3.404-1.143 24.725 24.725 0 00-3.665-.098l-7.477.082-15.141.155-30.919.327a10.23 10.23 0 00-6.898 2.84 11.158 11.158 0 00-3.395 6.897c-.139 1.298-.057 2.678-.066 4.025v4.081c0 2.721.025 5.417.074 8.089.098 10.742.196 21.317.294 31.727l.538 59.978c.335 38.225.629 72.646.882 101.557 0 3.619.027 7.156.082 10.611v5.086a13.752 13.752 0 00.612 4.807 11.024 11.024 0 005.844 6.604c2.645 1.289 5.542.816 8.244.865l27.883-.237 17.623-.114h6.146l-1.559.049-4.579.082-17.623.244-27.891.351-4.146.041a10.202 10.202 0 01-4.245-.906 11.42 11.42 0 01-6.089-6.84 14.026 14.026 0 01-.645-4.946c0-1.676-.019-3.374-.057-5.094-.033-3.433-.068-6.97-.106-10.611-.294-28.903-.637-63.332-1.02-101.549-.18-19.117-.376-39.18-.58-59.978l-.302-31.727a447.4 447.4 0 00-.073-8.089l-.041-4.081c0-1.355-.074-2.702.065-4.082a11.848 11.848 0 013.608-7.346 10.896 10.896 0 017.346-3.02l30.928-.318 15.133-.156 7.477-.073a25.369 25.369 0 013.763.098c1.265.187 2.487.599 3.607 1.216a11.805 11.805 0 015.053 5.755c.487 1.225.779 2.52.865 3.836.074 1.322.041 2.571.065 3.861.049 5.104.096 10.157.139 15.158.093 10.001.18 19.796.261 29.384.335 38.217.629 72.646.882 101.55.253 28.903.408 52.288.53 68.466 0 2.025 0 3.935.041 5.714 0 .898 0 1.763-.041 2.612-.057.416-.114.816-.163 1.233-.049.416-.179.816-.285 1.159a11.334 11.334 0 01-4.465 6.187 10.18 10.18 0 01-5.437 1.804h-.334z" fill="#263238"/><path d="M189.018 140.438l-71.037.735-.368-38.437 71.046-.743.359 38.445zm.506 54.452l-71.038.743-.359-38.445 71.038-.743.359 38.445zm.515 54.452l-71.046.743-.359-38.446 71.038-.734.367 38.437zm.508 54.46l-71.046.734-.359-38.437 71.046-.742.359 38.445z" fill="#9468B4"/><path opacity=".2" d="M189.524 194.89l-71.038.743-.359-38.445 71.038-.743.359 38.445z" fill="#fff"/><path opacity=".3" d="M190.039 249.342l-71.046.743-.359-38.446 71.038-.734.367 38.437z" fill="#fff"/><path opacity=".4" d="M190.547 303.802l-71.046.734-.359-38.437 71.046-.742.359 38.445z" fill="#fff"/><path d="M184.874 322.787a9.03 9.03 0 01-12.453 6.3 9.028 9.028 0 118.823-15.656 9.014 9.014 0 013.712 5.833 9.006 9.006 0 01-.082 3.523z" fill="#455A64"/><path d="M184.873 322.788c-.074 0 .139-.817.073-2.212a9.053 9.053 0 00-2.187-5.412 8.786 8.786 0 00-7.828-2.963 8.616 8.616 0 00-4.587 2.098 8.678 8.678 0 00-2.229 10.031 8.643 8.643 0 003.265 3.845 8.78 8.78 0 008.342.62 8.975 8.975 0 004.261-3.975c.661-1.257.816-2.057.873-2.032a1.63 1.63 0 01-.081.571 6.871 6.871 0 01-.547 1.575 8.98 8.98 0 01-4.302 4.31 9.11 9.11 0 01-4.187.89 9.318 9.318 0 01-4.702-1.42 9.193 9.193 0 01-3.558-4.082 9.293 9.293 0 012.416-10.823 9.135 9.135 0 014.954-2.22 9.19 9.19 0 018.285 3.265 9.055 9.055 0 012.082 5.713 7.348 7.348 0 01-.172 1.633 1.92 1.92 0 01-.171.588z" fill="#263238"/><path d="M133.906 144.969l-.816.693a.48.48 0 01-.31.147c-.147 0-.254-.138-.319-.269a1.91 1.91 0 01-.049-1.51c.195-.48.503-.906.898-1.241a.935.935 0 01.637-.294.956.956 0 01.587.36c.226.23.438.473.637.726a.497.497 0 01.155.416.548.548 0 01-.212.278c-.351.285-.857.408-1.216.694" fill="#F1F1F1"/><path d="M127.941 131.28c1.159-.049 6.366-.588 6.366-.588l8.718 2.098a3.029 3.029 0 01-2.498 1.551c-2.326-.049-5.575-.294-5.575-.294l-1.028.612s3.95 2.661 3.991 3.192c.001.384-.094.763-.277 1.102a4.13 4.13 0 01.106 2.889l-.131 3.714-3.747 2.555a2.975 2.975 0 01-.302-2.008c.262-1.045 1.698-1.633 1.698-1.633l-.865-1.551-1.314-.473s-8.611 2.449-10.611 2.261l-6.873 3.404-.963-10.064s12.154-6.726 13.305-6.767z" fill="#B2655F"/><path d="M133.14 139.132c-.041.106 1.053.555 2.285 1.314 1.233.76 2.131 1.527 2.204 1.445a5.665 5.665 0 00-2.008-1.755 5.888 5.888 0 00-2.481-1.004zm-.679-2.946a24.76 24.76 0 002.489 1.42c.786.53 1.604 1.01 2.449 1.437a7.462 7.462 0 00-2.293-1.755 7.337 7.337 0 00-2.645-1.102zm-2.676-4.22a15.47 15.47 0 002.049 1.543 6.878 6.878 0 002.236 1.281 13.594 13.594 0 00-2.024-1.575 6.468 6.468 0 00-2.261-1.249z" fill="#F1F1F1"/><path d="M157.634 86.395a11.328 11.328 0 00-1.681-2.67 2.213 2.213 0 00-2.22-.416l-.531.31s-2.13-1.518-3.42-.93c0 0-2.016-1.494-3.322-.506 0 0-1.494-1.453-2.449-.629a4.081 4.081 0 00-.987 3.412c.179.914.269 3.934.767 4.081 0 0 1.338.417 1.632-.285.294-.702.547-1.053.547-1.053s0 2.726.612 2.98c.613.252 1.821.424 2.09-.72 0 0 .408.989 1.028.817.621-.171 1.413-.416 1.494-1.143.082-.726.204-1.436.204-1.436s.106 1.102.67.98c.563-.123 1.077 0 1.542-.817.466-.816 1.551-2.4 1.551-2.4l2.473.425z" fill="#B2655F"/><path d="M151.456 88.207s-.049-.302-.073-.817a4.29 4.29 0 01.285-1.828 4.207 4.207 0 011.045-1.518c.359-.335.621-.49.596-.523a1.685 1.685 0 00-.702.392 3.833 3.833 0 00-1.159 1.567 3.738 3.738 0 00-.228 1.927c.008.282.089.558.236.8zm-1.821-5.535a3.754 3.754 0 00-.506.972 10.502 10.502 0 00-.677 5.207c.026.365.108.723.244 1.062a18.867 18.867 0 010-3.682c.199-1.213.513-2.405.939-3.558zm-3.231-.465a8.422 8.422 0 00-.588 2.768 8.648 8.648 0 00.123 2.816c.073 0 0-1.257.106-2.8s.424-2.767.359-2.784z" fill="#F1F1F1"/><path d="M107.795 121.836l-.073-.547c.016.122.057.384.073.547z" fill="#455A64"/><path d="M107.909 156.012a109.455 109.455 0 0011.737-6.881l-3.746-12.537-5.306.816c-.473-5.453-2.155-10.734-2.783-15.509l-6.424-21.271-14.015-1.273-17.035-1.25-10.848 1.568c-5.959.816-12.897 4.13-15.762 9.428-1.02 1.893-1.698 6.121-1.934 8.546-.898 9.068 2.448 36.731 11.933 46.567l-4.791 14.341c-6.849 21.345 63.561 12.366 62.949 4.081-.817-3.918-4.628-20.651-4.628-20.651l.653-5.975z" fill="#455A64"/><path d="M71.79 143.638c.09.122-1.934 1.298-3.525 3.591-1.592 2.294-2.04 4.58-2.188 4.539-.147-.041.098-2.449 1.796-4.808a8.663 8.663 0 013.918-3.322z" fill="#263238"/><path opacity=".3" d="M54.02 164.33c1.395 2.963 4.4 4.897 7.574 5.763 3.222.688 6.543.774 9.795.253 13.06-1.527 35.009-14.423 34.642-14.178-16.505 9.288-45.53 12.888-52.012 8.162z" fill="#000"/><path d="M119.646 149.131s-.041.041-.147.114l-.465.294c-.408.253-1.012.629-1.796 1.094a153.063 153.063 0 01-6.783 3.763 128.911 128.911 0 01-23.712 9.591 54.505 54.505 0 01-7.174 1.388c-2.343.326-4.604.546-6.767.726-2.163.18-4.212.31-6.138.392-1.791.081-3.586.04-5.371-.123a16.86 16.86 0 01-7.42-2.187 9.095 9.095 0 01-1.632-1.347l-.36-.424a.623.623 0 01-.106-.147 12.44 12.44 0 002.188 1.771 17.14 17.14 0 007.346 2.04c1.771.13 3.548.152 5.322.066a192.73 192.73 0 006.122-.433 119.43 119.43 0 006.742-.743c2.4-.311 4.777-.774 7.118-1.387a136.262 136.262 0 0023.671-9.444 201.913 201.913 0 006.832-3.649l1.845-1.02.481-.261.204-.074zm-3.745-12.537a.642.642 0 01-.188.048l-.555.115-2.147.383-7.901 1.331-26.12 4.228-7.191 1.143h-.155l-.066-.147-8.235-19.827c-1.004-2.448-1.813-4.448-2.392-5.852l-.629-1.584a2.696 2.696 0 01-.187-.555c.1.168.187.342.261.523l.694 1.559c.596 1.395 1.453 3.363 2.506 5.811l8.39 19.786-.228-.122 7.191-1.151 26.12-4.081 7.926-1.192 2.155-.302.563-.074a.863.863 0 01.188-.04zm-12.196-26.03c.254.89.574 1.76.955 2.604.62 1.632 1.437 3.803 2.196 6.301a92.576 92.576 0 011.698 6.449c.149.913.367 1.813.653 2.693a12.034 12.034 0 00-.311-2.759 53.038 53.038 0 00-1.559-6.53 55.266 55.266 0 00-2.342-6.309 12.45 12.45 0 00-1.29-2.449zm-1.812-15.419a2.74 2.74 0 01-1.045 1.485 2.374 2.374 0 01-2.024.392 2.499 2.499 0 01-1.714-2.016 2.35 2.35 0 01.326-1.543 4.9 4.9 0 011.216-1.298c.972-.767 2.319-1.395 3.094-2.726a5.578 5.578 0 00.522-4.514 6.398 6.398 0 00-1.142-2.17 9.851 9.851 0 00-1.845-1.699 12.362 12.362 0 01-1.837-1.567 3.199 3.199 0 01-.89-2.016 3.934 3.934 0 01.605-2.081 7.942 7.942 0 011.363-1.633 16.239 16.239 0 002.816-3.012 6.069 6.069 0 00.881-3.485 7.95 7.95 0 00-.816-2.865 16.322 16.322 0 01-.816-2.057 4.632 4.632 0 01-.106-1.853l-.049.114a1.833 1.833 0 00-.074.36c-.068.47-.041.951.082 1.412.188.722.431 1.428.727 2.114.406.876.647 1.82.71 2.783a5.938 5.938 0 01-.882 3.265 16.842 16.842 0 01-2.791 2.914 8.367 8.367 0 00-1.437 1.739 4.383 4.383 0 00-.67 2.293c.053.85.403 1.653.988 2.27.58.6 1.215 1.146 1.894 1.632a9.163 9.163 0 011.779 1.632 6.264 6.264 0 011.078 2.033 5.27 5.27 0 01-.465 4.203c-.694 1.233-1.968 1.853-2.98 2.653a5.12 5.12 0 00-1.281 1.412 2.604 2.604 0 00-.343 1.739 2.76 2.76 0 001.934 2.196 2.572 2.572 0 002.18-.482 2.61 2.61 0 00.857-1.135c.08-.152.133-.318.155-.49z" fill="#263238"/><path d="M60.745 53.802a2.53 2.53 0 01.53 1.82 11.427 11.427 0 01-.252 2.277c-.14.754-.353 1.492-.637 2.204a2.555 2.555 0 01-1.192 1.486c-.555.228-1.29 0-1.877-.865a4.138 4.138 0 01-.645-1.633 5.582 5.582 0 010-2.081c.15-.69.427-1.346.816-1.935a4.211 4.211 0 011.208-1.224 1.632 1.632 0 012.05-.05z" fill="#9468B4"/><path d="M54.094 76.126c-.816-2.22-.065-4.693.996-6.79 1.061-2.099 2.45-4.082 3.192-6.286.816-2.449.735-5.077 1.706-7.436a9.306 9.306 0 015.607-5.232c1.51-.498 3.192-.629 4.506-1.543 1.314-.914 2.049-2.547 3.07-3.836 1.632-2.098 3.264-3.902 5.713-4.898 2.816-1.175 6.938-1.632 9.795-.457a8.163 8.163 0 014.016 3.918 17.06 17.06 0 011.534 5.494c2.89.555 4.563 3.518 5.845 6.162a11.945 11.945 0 011.518 4.694c.057 1.844-1.527 8.162-2.449 9.795-4.612 8.342-11.476 10.097-19.818 14.692-3.216 1.78-5.208 5.877-8.89 5.714-4.285-.172-8.447-.335-10.937-3.828-2.49-3.494-5.281-6.792-5.648-11.06" fill="#263238"/><path d="M98.204 62.936c-.236-5.975-4.015-13.379-9.974-12.897l-18.668 4.253a3.502 3.502 0 00-3.207 3.469l.922 44.795h-.13s3.9 12.726 16.259 9.191c2.449-.702 3.632-3.33 4.187-6.056h.123c0-.319 0-.621.04-.931a29.52 29.52 0 00.229-6.146c.13-3.608.163-5.094.163-5.06 0 .032 7.657-1.078 9.469-10.988.898-4.88.849-12.994.587-19.63z" fill="#B2655F"/><path d="M83.055 70.412a1.281 1.281 0 01-1.266 1.257 1.216 1.216 0 01-1.281-1.183 1.265 1.265 0 011.257-1.257 1.215 1.215 0 011.29 1.183zm13.123 0a1.282 1.282 0 01-1.257 1.257 1.223 1.223 0 01-1.29-1.183 1.265 1.265 0 011.258-1.257 1.215 1.215 0 011.29 1.183zm.678-3.109c-.163.22-1.265-.645-2.758-.58-1.494.066-2.539.98-2.719.817-.18-.164.074-.482.531-.907a3.477 3.477 0 012.155-.881c.8-.029 1.585.229 2.212.726.481.343.661.719.58.825zm-13.834.187c-.196.196-1.266-.759-2.857-.816-1.592-.057-2.808.686-2.972.474-.163-.213.131-.466.662-.817a3.902 3.902 0 012.391-.628 3.74 3.74 0 012.261.938c.465.384.612.768.514.85zm4.571 9.853a8.914 8.914 0 012.237-.351c.35 0 .686-.09.743-.327a1.8 1.8 0 00-.204-1.045c-.31-.816-.637-1.755-.972-2.693-1.355-3.829-2.318-6.98-2.163-7.028.155-.05 1.371 3.004 2.718 6.84l.93 2.702c.211.428.263.916.148 1.38a.881.881 0 01-.588.505 2.751 2.751 0 01-.596.066 9.272 9.272 0 01-2.253-.05z" fill="#263238"/><path d="M88.148 93.594a25.254 25.254 0 01-13.223-3.86s3.175 7.117 13.15 6.423l.073-2.563zm-1.217-12.962a2.45 2.45 0 00-2.196-.972 2.254 2.254 0 00-1.575.817 1.428 1.428 0 00-.147 1.632 1.633 1.633 0 001.788.498 5.184 5.184 0 001.77-1.004c.162-.105.3-.241.409-.4a.473.473 0 000-.506" fill="#F1F1F1"/><path d="M83.528 78.191c.22 0 .196 1.486 1.445 2.572 1.248 1.085 2.832.963 2.84 1.167.008.204-.36.285-1.028.285a3.698 3.698 0 01-2.376-.89 3.265 3.265 0 01-1.118-2.154c-.04-.62.139-.988.237-.98zm-.164-15.353c-.147.375-1.51.163-3.126.318-1.616.155-2.93.563-3.134.229-.09-.163.147-.514.677-.816a5.453 5.453 0 014.767-.417c.571.253.873.514.816.686zm12.563.294c-.286.302-1.355-.05-2.653-.09-1.298-.04-2.408.147-2.653-.18-.106-.163.074-.473.563-.75a4.293 4.293 0 014.278.212c.448.334.587.653.465.808z" fill="#263238"/><path d="M65.433 55.304c1.053-1.306 2.758-1.861 4.383-2.31a91.197 91.197 0 0121.467-3.216c.743 1.559-.277 3.469-1.73 4.408-1.453.938-3.224 1.175-4.898 1.632-1.673.457-3.412 1.2-4.228 2.718-.816 1.518-.482 3.665-1.273 5.322-1.363 2.849-5.583 3.388-6.93 6.236-1.02 2.163-.351 1.633-.27 4.081.098 2.702-1.559 3.11-3.697 4.767-1.69 1.306-4.898 2.808-7.06 2.637.367-8.53 2.57-12.628 2.938-21.157.057-1.82.212-3.73 1.298-5.118z" fill="#263238"/><path d="M77.35 41.746l.18-.13a5.67 5.67 0 01.538-.327 8.425 8.425 0 012.163-.816 9.5 9.5 0 013.428-.155 8.79 8.79 0 016.702 4.636 9.608 9.608 0 011.06 3.265 8.26 8.26 0 01-.114 2.93.91.91 0 01-.057.212 11.146 11.146 0 000-3.118 9.61 9.61 0 00-1.085-3.191 8.685 8.685 0 00-6.53-4.53 9.664 9.664 0 00-3.371.106c-1.02.234-2 .61-2.914 1.118z" fill="#455A64"/><path d="M67.798 49.802a.963.963 0 01.285 0c.275.003.549-.024.817-.081a4.9 4.9 0 001.216-.433 10.26 10.26 0 001.437-.922 48.279 48.279 0 001.632-1.29 10.64 10.64 0 012.032-1.306 11.158 11.158 0 015.396-1.053 10.89 10.89 0 015.248 1.632 11.052 11.052 0 013.265 3.119 10.801 10.801 0 011.339 2.71c.09.267.167.54.228.816.028.09.044.183.05.277 0 0-.107-.383-.36-1.045a11.428 11.428 0 00-4.636-5.713 10.733 10.733 0 00-5.15-1.633 11.15 11.15 0 00-5.298 1.012c-.705.367-1.368.81-1.975 1.323-.596.449-1.143.89-1.633 1.273a9.788 9.788 0 01-1.485.906 4.898 4.898 0 01-1.25.408 3.327 3.327 0 01-.815 0h-.343zm-8.35 10.628c.118.827.293 1.645.523 2.448a11.019 11.019 0 008.497 7.591c.81.135 1.628.217 2.448.245h-.669a9.74 9.74 0 01-1.828-.138 10.832 10.832 0 01-8.628-7.706 9.331 9.331 0 01-.343-1.771 4.494 4.494 0 010-.498.547.547 0 010-.171z" fill="#455A64"/><path d="M68.86 75.188a3.909 3.909 0 01-.677-.106 20.644 20.644 0 01-1.796-.466 13.58 13.58 0 01-5.305-2.98 8.889 8.889 0 01-2.76-5.394 6.463 6.463 0 01.066-1.862c.032-.167.073-.334.123-.497a.651.651 0 01.057-.164 8.285 8.285 0 002.66 7.763 14.293 14.293 0 005.233 2.987 35.55 35.55 0 001.771.53c.214.047.424.11.629.189z" fill="#455A64"/><path d="M100.048 48.21a12.013 12.013 0 00-3.265.058c-1.062.25-2.088.634-3.052 1.142a3.16 3.16 0 01.816-.554 7.253 7.253 0 012.212-.817 7.547 7.547 0 012.35-.073 2.9 2.9 0 01.939.245z" fill="#263238"/><path d="M96.074 43.06a3.4 3.4 0 01.074 1.045 9.21 9.21 0 01-.433 2.449 9.03 9.03 0 01-1.11 2.269 3.262 3.262 0 01-.67.816 14.594 14.594 0 001.568-3.142c.323-1.12.515-2.273.571-3.437z" fill="#263238"/><path d="M68.95 71.245c-.156-.074-6.22-2.122-6.278 4.146-.057 6.27 6.245 5.037 6.26 4.898.017-.139.017-9.044.017-9.044z" fill="#B2655F"/><path d="M67.039 77.857s-.114.073-.294.155a1.061 1.061 0 01-.816 0c-.661-.245-1.208-1.306-1.233-2.449-.009-.54.1-1.074.319-1.567a1.258 1.258 0 01.816-.816.555.555 0 01.645.302c.081.18.04.302.073.31.033.008.13-.098.09-.36a.718.718 0 00-.245-.4.816.816 0 00-.604-.163 1.558 1.558 0 00-1.15.963 3.65 3.65 0 00-.393 1.747c0 1.257.662 2.449 1.568 2.718a1.143 1.143 0 00.996-.155c.212-.138.252-.277.228-.285z" fill="#F1F1F1"/><path d="M63.675 78.885a2.893 2.893 0 01-.286.18c-.196.114-.49.261-.816.49a5.934 5.934 0 00-2.646 5.25 5.9 5.9 0 00.703 2.496 5.851 5.851 0 005.224 3.085 5.856 5.856 0 001.633-.261 5.29 5.29 0 001.477-.677 5.918 5.918 0 00-.065-9.959 9.879 9.879 0 00-1.16-.604c.427.116.835.295 1.209.53a5.958 5.958 0 012.367 2.662c.34.771.519 1.605.522 2.448a5.885 5.885 0 01-.653 2.776 5.95 5.95 0 01-2.106 2.342 5.63 5.63 0 01-1.526.71 6.014 6.014 0 01-1.714.27 6.024 6.024 0 01-5.404-3.208 5.991 5.991 0 012.074-7.918c.367-.22.669-.35.865-.457.094-.063.196-.115.302-.155z" fill="#fff"/><path d="M58.918 59.76c.01.1.01.202 0 .303a8.17 8.17 0 01-.09.881 12.566 12.566 0 01-.922 3.094c-.53 1.265-1.322 2.685-2.147 4.277-.45.828-.853 1.681-1.208 2.555a12.023 12.023 0 00-.816 2.897c-.25 1.944.031 3.919.816 5.714.351.77.787 1.497 1.298 2.171.473.645.93 1.233 1.355 1.763a37.307 37.307 0 002.073 2.449l.572.661c.074.071.14.15.195.237a1.882 1.882 0 01-.228-.212l-.604-.629a47.342 47.342 0 01-2.13-2.449c-.433-.53-.898-1.11-1.38-1.746a11.361 11.361 0 01-1.33-2.204 10.708 10.708 0 01-.882-5.78 11.86 11.86 0 01.816-2.946c.349-.879.747-1.737 1.192-2.571.816-1.632 1.632-3.004 2.187-4.253.45-.971.783-1.993.988-3.044a7.66 7.66 0 00.122-.865 1.59 1.59 0 01.123-.303z" fill="#455A64"/><path d="M267.941 302.937l14.342-14.13-25.5-43.661a24.591 24.591 0 00-9.795-6.799l-8.978-3.412-22.316-4.081-15.852 6.228a9.468 9.468 0 00-4.656 3.953 9.47 9.47 0 00-1.278 5.972l4.147 34.895 2.448 45.432 57.578-9.983-5.787-16.806.188-26.202 15.459 28.594z" fill="#9468B4"/><path d="M252.783 299.427c.139 0 .172-9.077.082-20.268-.09-11.191-.278-20.267-.408-20.267-.131 0-.172 9.076-.082 20.275.09 11.199.278 20.26.408 20.26z" fill="#263238"/><path d="M250.678 306.087l-34.797-14.007a7.947 7.947 0 01-4.955-6.767l-2.546-33.36s.302-14.186-8.538-14.872l-5.037 1.984c-6.529 3.461-8.162 12.946-7.248 20.267 1.265 10.407 1.788 25.132 3.2 34.168 1.151 7.387 5.591 13.232 12.619 15.787l42.853 9.28 4.449-12.48z" fill="#9468B4"/><path d="M208.878 257.047c.061.249.099.503.114.759.049.544.123 1.279.221 2.204.179 1.951.424 4.701.734 8.089.31 3.387.645 7.493 1.029 11.999.098 1.126.196 2.285.294 3.469.068 1.198.218 2.389.449 3.567a5.888 5.888 0 001.722 3.126 11.75 11.75 0 003.216 2c9.591 4.154 18.431 7.583 24.854 9.982l7.616 2.808 2.073.768c.247.072.485.171.71.293a4.455 4.455 0 01-.742-.212l-2.098-.677a342.82 342.82 0 01-7.673-2.669 444.226 444.226 0 01-24.936-9.869 12.096 12.096 0 01-3.339-2.089 6.404 6.404 0 01-1.852-3.355 25.95 25.95 0 01-.441-3.632c-.098-1.184-.188-2.343-.278-3.478-.351-4.505-.669-8.578-.93-12.007-.261-3.428-.449-6.146-.588-8.105-.057-.922-.106-1.632-.139-2.204a5.036 5.036 0 01-.016-.767zm-19.932 18.129c.044.146.066.297.065.449l.123 1.289c.098 1.192.236 2.792.408 4.735.171 1.942.432 4.367.816 6.995.336 2.847.86 5.669 1.567 8.448a12.574 12.574 0 001.698 4.032 23.19 23.19 0 002.596 3.192 22.094 22.094 0 005.575 4.179 20.781 20.781 0 006.105 2c-.149.018-.3.018-.449 0-.433-.03-.864-.087-1.289-.172a17.04 17.04 0 01-4.522-1.526 21.932 21.932 0 01-5.714-4.171 22.968 22.968 0 01-2.669-3.265 13.041 13.041 0 01-1.772-4.155 64.455 64.455 0 01-1.55-8.521 149.293 149.293 0 01-.947-11.779v-1.289a1.599 1.599 0 01-.041-.441z" fill="#263238"/><path d="M203.825 298.521a5 5 0 01.629-1.853 11.958 11.958 0 017.06-6.032 5.198 5.198 0 011.935-.335c0 .082-.719.22-1.829.645a13.98 13.98 0 00-3.942 2.351 13.742 13.742 0 00-2.93 3.526c-.596 1.028-.825 1.722-.923 1.698z" fill="#263238"/><path opacity=".3" d="M240.654 302.112c-3.722-2.098-7.347-3.714-11.248-5.485-3.902-1.772-7.706-4.033-10.252-7.469-4.8-6.473-4.253-15.811-9.167-22.194l.963 12.881c.294 3.934-.31 7.827 2.229 10.505 2.13 2.253 6.293 3.975 9.248 4.954 5.918 1.951 12.301 4.857 18.227 6.808zm11.803-40.763l3.012 18.561-2.849-5.257-.163-13.304z" fill="#000"/><path d="M208.985 252.884c-.074 0-.18-1.183-.817-2.963a14.896 14.896 0 00-10.546-9.477c-1.844-.457-3.036-.44-3.036-.514.271-.033.545-.033.816 0a13.33 13.33 0 012.261.286 14.429 14.429 0 0110.734 9.648c.243.723.421 1.466.53 2.22.056.263.075.532.058.8zm41.464-9.468a61.047 61.047 0 011.225 6.489c.403 2.159.689 4.339.857 6.53a61.587 61.587 0 01-1.225-6.53 56.237 56.237 0 01-.857-6.489z" fill="#263238"/><path d="M289.211 348.026s26.748 7.403 27.818 7.779c1.632.571 1.338 6.473-1.168 6.375-1.183-.041-20.536.726-22.985.571-2.449-.155-9.795-3.061-9.795-3.061l6.13-11.664z" fill="#9468B4"/><path d="M300.355 358.229c.338-.98.733-1.94 1.183-2.873a24.863 24.863 0 011.886-2.449 5.94 5.94 0 00-3.069 5.33v-.008zm-2.783-1.265c.131 0 .4-1.241 1.11-2.637.71-1.396 1.551-2.375 1.453-2.448a6.684 6.684 0 00-2.563 5.101v-.016zm-2.62-.71a9.42 9.42 0 012.081-5.322 5.032 5.032 0 00-2.081 5.322z" fill="#263238"/><path d="M295.424 352.809a4.677 4.677 0 00.285-1.992 9.359 9.359 0 00-.669-3.42 1.399 1.399 0 00-.425-.653.719.719 0 00-.922.049c-.205.199-.33.466-.351.751a5.257 5.257 0 000 .71c.003.44.058.879.163 1.306a7.88 7.88 0 00.817 2.049 5.479 5.479 0 001.2 1.632c.057 0-.392-.669-.923-1.755a8.845 8.845 0 01-.702-1.991 5.934 5.934 0 01-.13-1.225c0-.408 0-.922.244-1.118a.272.272 0 01.36 0c.131.132.231.291.293.466.16.384.294.78.4 1.183.19.683.31 1.383.36 2.09.049 1.151-.082 1.91 0 1.918z" fill="#263238"/><path d="M295.391 352.54a3.72 3.72 0 00-1.722-.278c-.641 0-1.28.077-1.902.229a4.227 4.227 0 00-1.086.408 1.121 1.121 0 00-.604 1.216 1.328 1.328 0 00.963.955c.394.102.807.102 1.2 0a5.852 5.852 0 002.979-2.081 11.63 11.63 0 00-1.428.963 4.586 4.586 0 01-1.632.71 2.115 2.115 0 01-.988 0 .905.905 0 01-.653-.637.703.703 0 01.4-.751c.305-.163.628-.289.963-.375a8.624 8.624 0 011.804-.31c1.037-.082 1.698.024 1.706-.049zm9.077 5.975c.104-.817.279-1.622.523-2.408.375-.737.815-1.439 1.314-2.098a3.12 3.12 0 00-1.731 1.926 3.067 3.067 0 00-.106 2.58zm-18.667 1.232c.327.2.674.364 1.036.49.972.374 1.967.682 2.98.922a42.42 42.42 0 0010.211.971c4.008-.049 7.616-.228 10.236-.334l3.101-.163a5.548 5.548 0 001.135-.123 5.33 5.33 0 00-1.143-.049h-3.102l-10.235.204a47.605 47.605 0 01-10.138-.816c-2.555-.514-4.049-1.184-4.081-1.102z" fill="#263238"/><path d="M285.017 360.335c0 .065.767-.367 1.999-.906a9.332 9.332 0 015.061-.816 8.029 8.029 0 014.375 2.603c.479.559.994 1.086 1.543 1.576a7.967 7.967 0 00-1.314-1.796 10.67 10.67 0 00-1.772-1.632 6.402 6.402 0 00-2.758-1.168 8.82 8.82 0 00-5.265.996c-.679.28-1.31.666-1.869 1.143z" fill="#263238"/><path d="M257.566 341.814s-25.303 16.57-26.218 17.255c-1.363 1.037.204 5.935 2.563 5.086 1.119-.4 22.349-6.31 24.635-7.2 2.285-.889 8.432-5.893 8.432-5.893l-9.412-9.248z" fill="#9468B4"/><path d="M250.047 354.923a4.73 4.73 0 00-1.689-2.71 4.794 4.794 0 00-2.857-1.437 22.673 22.673 0 012.555 1.772 25.643 25.643 0 011.991 2.375zm2.271-2.049a4.899 4.899 0 00-1.543-2.489 5.01 5.01 0 00-2.449-1.592c-.057.114 1.045.776 2.139 1.902 1.094 1.126 1.739 2.237 1.853 2.179zm2.287-1.461a5.047 5.047 0 00-3.608-4.448c.77.588 1.49 1.238 2.155 1.942a18.497 18.497 0 011.453 2.506z" fill="#263238"/><path d="M253.101 348.263c.066 0-.285-.719-.571-1.894a10.389 10.389 0 01-.302-2.098 9.296 9.296 0 010-1.249 1.09 1.09 0 01.131-.53.267.267 0 01.159-.108.273.273 0 01.192.026c.285.114.44.612.571.996.125.39.21.792.253 1.2a9.287 9.287 0 01-.065 2.114c-.18 1.2-.417 1.926-.343 1.951a5.497 5.497 0 00.653-1.902 7.94 7.94 0 00.163-2.196 6.286 6.286 0 00-.237-1.298 4.64 4.64 0 00-.253-.661 1.177 1.177 0 00-.571-.612.69.69 0 00-.882.237 1.47 1.47 0 00-.212.751 9.593 9.593 0 00.4 3.469c.171.66.483 1.275.914 1.804z" fill="#263238"/><path d="M253.046 347.993c0 .065.628-.237 1.632-.482a9.229 9.229 0 011.812-.253c.347-.019.695.003 1.037.066a.712.712 0 01.612.595.91.91 0 01-.432.817 2.11 2.11 0 01-.939.318 4.883 4.883 0 01-1.779-.18 12.068 12.068 0 00-1.633-.489 5.71 5.71 0 003.469 1.077 2.488 2.488 0 001.143-.359 1.34 1.34 0 00.628-1.208 1.125 1.125 0 00-.946-.98 4.421 4.421 0 00-1.16-.049 8.217 8.217 0 00-1.885.351 3.849 3.849 0 00-1.559.776zm-15.91 15.239c0 .041.424-.253.62-.979a3.736 3.736 0 00-.474-2.751 10.354 10.354 0 00-.816-1.257 4.715 4.715 0 00-.857-.922 1.535 1.535 0 00-.816-.343c-.212 0-.318.041-.318.073.342.097.657.27.922.507.272.282.516.591.726.922.295.398.567.812.817 1.241a3.91 3.91 0 01.555 2.448 9.59 9.59 0 01-.359 1.061zm9.085-6.791a3.822 3.822 0 00-3.118-3.73 14.178 14.178 0 011.885 1.592c.47.677.882 1.392 1.233 2.138z" fill="#263238"/><path d="M264.373 351.952a9.167 9.167 0 00-1.11.767 32.145 32.145 0 01-3.118 1.91 42.026 42.026 0 01-4.963 2.204c-1.91.718-4.081 1.388-6.334 2.049-4.554 1.314-8.676 2.506-11.647 3.404l-3.518 1.077a7.991 7.991 0 00-1.274.457c.449-.055.891-.15 1.322-.286l3.559-.946c2.996-.817 7.126-1.968 11.681-3.265 2.277-.662 4.44-1.355 6.358-2.098a36.78 36.78 0 004.963-2.31 24.996 24.996 0 003.077-2.049 7.13 7.13 0 001.004-.914z" fill="#263238"/><path d="M265.313 352.295a7.17 7.17 0 00-2.147-.572 8.81 8.81 0 00-5.313.653 6.263 6.263 0 00-2.278 1.951c-.475.66-.872 1.372-1.183 2.122a8.245 8.245 0 00-.71 2.098c.376-.632.709-1.289.995-1.967a8.016 8.016 0 013.372-3.804 9.376 9.376 0 015.077-.742c1.346.138 2.171.326 2.187.261zm44.861-51.914s7.592 2.71 7.624 11.224c.057 16.325-32.952 34.282-32.952 34.282l-43.922-29.107-2.718-1.11s59.26-22.267 71.968-15.289z" fill="#263238"/><path d="M263.175 331.48a8.41 8.41 0 001.143-.775c.718-.522 1.746-1.298 3.003-2.269a244.87 244.87 0 009.616-7.861c3.673-3.159 6.921-6.122 9.223-8.317a108.668 108.668 0 002.702-2.629c.342-.309.656-.648.939-1.012a7.402 7.402 0 00-1.061.89l-2.792 2.522a484.823 484.823 0 01-9.297 8.212 463.161 463.161 0 01-9.526 7.95l-2.914 2.375c-.37.275-.717.581-1.036.914zm34.617-25.018a8.616 8.616 0 00-4.236.384 8.726 8.726 0 00-3.763 1.975c.073.115 1.673-.906 3.893-1.55 2.221-.645 4.106-.662 4.106-.809z" fill="#455A64"/><path d="M293.987 303.908a6.675 6.675 0 00-3.966 4.897c.122.049.604-1.322 1.714-2.677 1.11-1.355 2.326-2.114 2.252-2.22z" fill="#455A64"/><path d="M312.589 355.535c0-.049-.53-.155-1.134.343a4.138 4.138 0 00-1.274 2.547 5.093 5.093 0 00.4 2.816c.31.669.653.979.694.947a8.056 8.056 0 00-.424-1.037 5.703 5.703 0 01-.245-2.628 4.348 4.348 0 011.036-2.376c.49-.522.955-.538.947-.612z" fill="#263238"/><path d="M307.032 277.225l-12.505 33.662a4.902 4.902 0 01-4.612 3.158l-68.785-.906v-5.224l25.524.931 10.84-33.605a2.733 2.733 0 01.995-1.375 2.734 2.734 0 011.617-.519l44.371.123a2.748 2.748 0 012.727 2.443c.05.445-.009.895-.172 1.312z" fill="#E0E0E0"/><path d="M307.03 277.225v-.106c.04-.104.07-.21.09-.319a2.653 2.653 0 000-1.265 2.777 2.777 0 00-1.208-1.632 2.712 2.712 0 00-1.249-.392h-44.126a3.013 3.013 0 00-1.828.4c-.549.347-.954.88-1.143 1.502-3.265 10.154-6.914 21.459-10.799 33.539v.082h-.082l-25.524-.931.115-.106v5.224l-.115-.106 43.261.58 18.774.253 4.334.057h2.106a4.864 4.864 0 003.659-1.33 4.775 4.775 0 001.1-1.617l1.339-3.583 8.252-22.129 2.245-5.991c.522-1.371.816-2.081.816-2.081s-.253.718-.759 2.097l-2.204 6.008-8.163 22.145c-.435 1.175-.881 2.375-1.338 3.599a4.892 4.892 0 01-2.849 2.751 5.162 5.162 0 01-2.057.302h-2.106l-4.334-.057-18.774-.237-43.261-.555h-.139v-5.452h.115l25.524.938-.106.074c3.893-12.081 7.542-23.377 10.823-33.532a2.865 2.865 0 011.224-1.632 3.163 3.163 0 011.927-.424h11.117l12.97.048 18.504.082h1.535a2.767 2.767 0 012.49 2.041c.108.42.108.861 0 1.281a3.6 3.6 0 01-.156.474z" fill="#263238"/><path d="M276.57 289.95a3.094 3.094 0 013.346.359c.393.372.665.853.782 1.381a2.709 2.709 0 01-.129 1.582 2.932 2.932 0 01-2.514 1.755 2.657 2.657 0 01-2.653-1.755c-.318-1.102 0-2.743 1.168-3.322z" fill="#fff"/><path d="M292.258 347.716s-62.035-39.702-64.729-41.262c-2.326-1.33-8.554-5.158-14.692-3.469-6.138 1.69-11.64 7.2-14.399 15.248-1.567 4.595-2.31 12.44-2.661 18.325a27.214 27.214 0 006.359 19.385 17.427 17.427 0 007.738 5.494c.645.196 1.322.367 2.008.522a29.193 29.193 0 0030.405-12.758l1.453-2.204s40.592 14.913 41.229 14.693l7.289-13.974z" fill="#263238"/><path d="M230.728 308.65s-.057 0-.155-.089l-.432-.294c-.384-.262-.939-.653-1.674-1.127a32.782 32.782 0 00-6.587-3.346 17.765 17.765 0 00-4.954-1.045 14.393 14.393 0 00-5.714.93 18.322 18.322 0 00-5.477 3.331 25.745 25.745 0 00-2.449 2.383 17.977 17.977 0 00-2.008 2.865 29.393 29.393 0 00-2.677 6.391c-.579 2.155-1.053 4.294-1.494 6.31a57.467 57.467 0 00-1.412 10.889c-.043 2.461.145 4.92.563 7.346.139.865.294 1.526.384 1.983.038.207.071.379.098.515a.49.49 0 010 .179.65.65 0 01-.057-.171c-.041-.139-.082-.302-.139-.506-.114-.449-.294-1.11-.449-1.976a36.927 36.927 0 01-.685-7.403 56.575 56.575 0 011.354-10.938c.441-2.032.898-4.154 1.486-6.35a28.857 28.857 0 012.702-6.465 17.228 17.228 0 012.057-2.922 23.89 23.89 0 012.449-2.449 18.62 18.62 0 015.591-3.371 14.466 14.466 0 015.844-.914 17.84 17.84 0 015.028 1.102 31.709 31.709 0 016.571 3.469c.726.498 1.273.906 1.632 1.184l.417.326.187.163z" fill="#455A64"/><path d="M215.48 336.509l.335.155 1.02.4 3.935 1.518 14.619 5.51a2795.905 2795.905 0 0021.998 8.105c8.35 3.036 17.598 6.367 27.474 9.713l.18.057.09-.163c1.551-2.963 3.191-6.089 4.848-9.264l2.449-4.718.098-.18-.172-.114-47.342-30.046-14.219-8.979-3.861-2.408-.971-.612a3.976 3.976 0 00-.351-.196l.327.237c.236.155.571.367.987.653l3.82 2.449 14.146 9.084 47.26 30.202-.081-.294-2.449 4.726-4.889 9.248.269-.106c-9.876-3.331-19.133-6.653-27.483-9.657l-22.039-8.015-14.692-5.387-3.967-1.437-1.028-.367-.311-.114z" fill="#455A64"/><path d="M218.688 204.783a31.863 31.863 0 01-2.759-6.587 10.741 10.741 0 01.367-7.012c.58-1.273 1.486-2.383 1.943-3.706.62-1.812.367-3.958 1.494-5.517 1.755-2.449 5.517-1.861 8.227-3.135 2.123-.996 3.6-3.134 5.82-3.844 1.951-.629 4.081 0 5.942.816 1.861.816 3.706 1.828 5.714 2.089a40.63 40.63 0 004.359 0 5.717 5.717 0 014.024 1.388c1.028 1.029 1.241 2.939.131 3.885 2.546-.432 4.946 2.106 4.897 4.694-.049 2.587-1.983 4.848-4.326 5.926a15.51 15.51 0 01-7.607.947c-7.289-.572-14.611-3.339-19.59-8.71" fill="#263238"/><path d="M220.247 195.666l-4.963 36.086a10.846 10.846 0 002.276 8.219 10.824 10.824 0 007.519 4.024 10.847 10.847 0 0011.689-9.337c.367-2.718.686-4.979.743-5.257 0 0 9.305.4 11.215-8.603.931-4.351 2.106-13.46 3.069-21.721a17.14 17.14 0 00-13.672-18.773l-.873-.18c-9.493-1.314-15.925 6.008-17.003 15.542z" fill="#fff"/><path d="M237.553 229.303a21.38 21.38 0 01-11.101-5.714s1.486 7.052 10.611 8.032l.49-2.318z" fill="#fff"/><path d="M247.755 206.783a1.332 1.332 0 01-1.511 1.053 1.254 1.254 0 01-.847-.484 1.265 1.265 0 01-.246-.945 1.313 1.313 0 011.502-1.053 1.263 1.263 0 011.102 1.429zm1.216-3.633c-.187.139-1.02-.816-2.408-1.053-1.387-.236-2.546.213-2.661 0-.114-.212.164-.359.67-.596a3.571 3.571 0 012.171-.22c.722.137 1.38.503 1.877 1.045.368.473.449.767.351.824zm-14.153 1.396a1.318 1.318 0 01-1.502 1.053 1.258 1.258 0 01-1.094-1.428 1.307 1.307 0 011.502-1.053 1.263 1.263 0 01.848.484 1.25 1.25 0 01.246.944zm.473-3.861c-.196.139-1.028-.816-2.449-1.053-1.42-.237-2.538.212-2.652 0-.115-.212.163-.359.669-.596a3.556 3.556 0 012.171-.22 3.404 3.404 0 011.877 1.045c.392.432.474.767.384.824zm2.98 11.289a9.303 9.303 0 012.334.041c.359 0 .71 0 .816-.196a1.778 1.778 0 000-1.094c-.163-.922-.334-1.893-.506-2.906-.694-4.13-1.11-7.501-.947-7.525.164-.025.857 3.265 1.543 7.427l.465 2.914c.138.473.103.979-.098 1.429a.9.9 0 01-.685.4 2.419 2.419 0 01-.613 0 9.45 9.45 0 01-2.309-.49zm-4.278.147c.229 0-.065 1.534 1.012 2.865 1.078 1.33 2.71 1.477 2.678 1.689-.033.213-.417.221-1.094.107a3.89 3.89 0 01-2.261-1.331 3.335 3.335 0 01-.743-2.383c.066-.637.31-.98.408-.947zm2.742-16.799c-.212.351-1.559-.106-3.224-.236-1.665-.131-3.077.049-3.224-.327-.065-.179.237-.49.816-.751a5.322 5.322 0 012.506-.351c.87.071 1.71.351 2.449.816.514.327.775.678.677.849zm12.531 3.714c-.302.262-1.192-.253-2.343-.498-1.15-.244-2.163-.212-2.318-.587-.065-.18.147-.465.629-.678a3.492 3.492 0 013.763.874c.343.408.408.759.269.889z" fill="#263238"/><path d="M219.661 202.497c-.138-.098-5.836-3.077-6.872 3.135-1.037 6.211 5.411 5.967 5.452 5.787.041-.18 1.42-8.922 1.42-8.922z" fill="#fff"/><path d="M216.739 208.758s-.122.057-.318.106a1.124 1.124 0 01-.817-.114c-.62-.351-.995-1.486-.816-2.612a3.61 3.61 0 01.563-1.494 1.254 1.254 0 01.947-.694.563.563 0 01.596.4c.049.188 0 .302 0 .319 0 .016.147-.082.139-.343a.648.648 0 00-.18-.433.817.817 0 00-.571-.261 1.578 1.578 0 00-.751.24 1.576 1.576 0 00-.539.576 3.783 3.783 0 00-.661 1.633c-.171 1.257.278 2.53 1.126 2.938a1.19 1.19 0 001.021 0c.228-.114.277-.253.261-.261z" fill="#fff"/><path d="M253.584 190.727c-1.061 2.294-6.53 3.175-10.554 1.967-3.706-1.118-5.044-3.469-7.403-5.518-1.502-1.298-1.502-1.298-3.951-1.518-1.959-.204-3.542 1.755-5.028 3.053.816 4.938-1.363 9.795-3.502 14.341a2.446 2.446 0 01-1.004 1.282c-.816.416-1.844-.237-2.35-1.037a7.766 7.766 0 01-.874-4.35 25.885 25.885 0 012.09-10.024 17.638 17.638 0 016.489-7.771 16.72 16.72 0 0112.342-2.024 20.558 20.558 0 0110.823 6.53 12 12 0 012.914 5.126m-12.62 14.954c.049 0 0-.539.278-1.445a6.017 6.017 0 012.204-3.191 5.84 5.84 0 015.493-.817 5.713 5.713 0 012.669 2.016 5.719 5.719 0 010 6.816 5.713 5.713 0 01-2.669 2.016 5.82 5.82 0 01-5.493-.816 6.023 6.023 0 01-2.204-3.192c-.245-.906-.229-1.444-.278-1.436a1.028 1.028 0 000 .383c0 .371.041.741.123 1.102a5.983 5.983 0 002.171 3.429 6.18 6.18 0 008.783-1.225 6.188 6.188 0 000-7.387 6.128 6.128 0 00-2.914-2.163 6.187 6.187 0 00-5.869.939 6.007 6.007 0 00-2.171 3.428 4.984 4.984 0 00-.123 1.102c-.03.145-.03.295 0 .441z" fill="#263238"/><path d="M226.232 203.166c.049 0 0-.538.277-1.444a5.999 5.999 0 012.196-3.192 5.84 5.84 0 012.648-1.103 5.842 5.842 0 012.853.287 5.72 5.72 0 012.67 2.016 5.713 5.713 0 010 6.816 5.72 5.72 0 01-2.67 2.016 5.834 5.834 0 01-5.501-.816 6.002 6.002 0 01-2.196-3.192c-.245-.906-.228-1.445-.277-1.436-.049.008 0 .13 0 .383-.005.371.036.741.122 1.102a5.98 5.98 0 002.171 3.428 6.189 6.189 0 004.65 1.239 6.211 6.211 0 005.349-6.157 6.217 6.217 0 00-5.349-6.156 6.19 6.19 0 00-4.65 1.239 6.007 6.007 0 00-2.171 3.428 4.493 4.493 0 00-.122 1.102c-.033.302-.025.44 0 .44z" fill="#263238"/><path d="M238.362 203.371c.065.13.816-.245 1.771.041.955.285 1.371 1.012 1.494.946.122-.065 0-.269-.18-.579a2.152 2.152 0 00-1.167-.816 2.184 2.184 0 00-1.453.057c-.343.114-.498.294-.465.351zm-20.48-1.796c0 .139 1.983.22 4.424.188 2.44-.033 4.416-.18 4.416-.319 0-.138-1.984-.22-4.424-.187-2.441.032-4.416.179-4.416.318z" fill="#263238"/></svg>