<svg width="88" height="65" viewBox="0 0 88 65" fill="none" xmlns="http://www.w3.org/2000/svg">
<path d="M84.7778 51.5297H84.6831V43.8571C84.6831 24.7087 71.3057 8.11219 52.7263 3.99871C52.6277 3.00867 52.2038 2.08767 51.4995 1.35871C50.6531 0.482599 49.516 0 48.2976 0H39.4166C38.1982 0 37.0611 0.482599 36.2147 1.35871C35.5106 2.08767 35.0865 3.00867 34.9879 3.99871C16.4086 8.11219 3.03111 24.7087 3.03111 43.8571V51.5297H2.93637C1.31708 51.5297 0 52.847 0 54.4661V56.3982C0 57.6767 0.808787 58.8 2.01246 59.1936C13.4258 62.9254 28.2866 64.9805 43.8571 64.9805C59.4276 64.9805 74.2885 62.9254 85.7018 59.1936C86.9054 58.8 87.7142 57.6767 87.7142 56.3982V54.4661C87.7142 52.847 86.3969 51.5297 84.7778 51.5297ZM38.2585 3.33314C38.5646 3.01638 38.9759 2.84163 39.4166 2.84163H48.2975C48.7381 2.84163 49.1494 3.01603 49.4556 3.33314C49.7617 3.65008 49.9221 4.06723 49.9068 4.50752L48.6004 42.397C48.5702 43.269 47.8633 43.952 46.991 43.952H40.7234C39.851 43.952 39.1442 43.269 39.114 42.3971L37.8076 4.50769C37.7921 4.06706 37.9523 3.65008 38.2585 3.33314ZM84.8726 56.3983C84.8726 56.4366 84.856 56.4806 84.8188 56.4927C73.6828 60.1336 59.1357 62.1388 43.8571 62.1388C28.5786 62.1388 14.0314 60.1336 2.8956 56.4924C2.85842 56.4802 2.8418 56.4364 2.8418 56.3982V54.4661C2.8418 54.4138 2.88429 54.3713 2.93654 54.3713H57.4973C58.282 54.3713 58.9183 53.7352 58.9183 52.9504C58.9183 52.1658 58.2822 51.5295 57.4973 51.5295H5.87291V43.8571C5.87291 29.577 13.8695 16.8233 25.9437 10.3523L29.0267 31.9347C29.1281 32.6434 29.7358 33.1548 30.4317 33.1548C30.4985 33.1548 30.5662 33.15 30.6344 33.1404C31.4113 33.0294 31.9511 32.3097 31.8401 31.5329L28.6279 9.04621C30.6736 8.15057 32.8188 7.4295 35.0466 6.90116L36.2741 42.4953C36.3572 44.9056 38.3116 46.7938 40.7235 46.7938H46.9912C49.403 46.7938 51.3574 44.9056 51.4406 42.4953L52.6681 6.90133C54.8957 7.42984 57.0411 8.15091 59.0868 9.04638L55.8746 31.5331C55.7638 32.31 56.3036 33.0295 57.0804 33.1405C57.1485 33.1501 57.2162 33.1549 57.283 33.1549C57.9787 33.1549 58.5866 32.6434 58.688 31.9348L61.771 10.3525C73.8453 16.8233 81.8418 29.5768 81.8418 43.8571V51.5297H72.6532C71.8686 51.5297 71.2323 52.1658 71.2323 52.9506C71.2323 53.7352 71.8684 54.3715 72.6532 54.3715H84.7782C84.8304 54.3715 84.8729 54.414 84.8729 54.4662V56.3983H84.8726Z" fill="#50AF00"/>
<path d="M66.5913 51.5297H63.5601C62.7754 51.5297 62.1392 52.1658 62.1392 52.9506C62.1392 53.7352 62.7753 54.3715 63.5601 54.3715H66.5913C67.376 54.3715 68.0122 53.7354 68.0122 52.9506C68.0122 52.1658 67.3761 51.5297 66.5913 51.5297Z" fill="#50AF00"/>
<path d="M33.1393 40.625L32.7061 37.5931C32.5951 36.8161 31.8759 36.2763 31.0986 36.3873C30.3217 36.4983 29.7819 37.2181 29.8929 37.9948L30.326 41.0268C30.4274 41.7355 31.0351 42.2469 31.7309 42.2469C31.7978 42.2469 31.8654 42.2421 31.9336 42.2325C32.7105 42.1215 33.2504 41.4018 33.1393 40.625Z" fill="#50AF00"/>
<path d="M56.616 36.3873C55.8391 36.2762 55.1196 36.8163 55.0086 37.5931L54.5755 40.625C54.4646 41.402 55.0044 42.1215 55.7812 42.2325C55.8492 42.2421 55.917 42.2469 55.9839 42.2469C56.6796 42.2469 57.2874 41.7353 57.3888 41.0268L57.8219 37.9948C57.9326 37.2181 57.3928 36.4983 56.616 36.3873Z" fill="#50AF00"/>
</svg>
