<svg width="96" height="84" viewBox="0 0 96 84" fill="none" xmlns="http://www.w3.org/2000/svg">
<path d="M48.0002 12.0377C47.1967 12.0377 46.4112 12.2671 45.7431 12.697C45.075 13.1269 44.5543 13.7379 44.2468 14.4527C43.9393 15.1676 43.8588 15.9542 44.0156 16.7131C44.1723 17.472 44.5593 18.1691 45.1274 18.7162C45.6956 19.2634 46.4195 19.636 47.2076 19.7869C47.9957 19.9379 48.8126 19.8604 49.5549 19.5643C50.2973 19.2682 50.9318 18.7668 51.3782 18.1234C51.8246 17.48 52.0629 16.7236 52.0629 15.9499C52.0617 14.9126 51.6333 13.9182 50.8716 13.1848C50.11 12.4514 49.0773 12.0388 48.0002 12.0377ZM48.0002 17.5951C47.6623 17.5951 47.332 17.4986 47.051 17.3179C46.77 17.1371 46.551 16.8801 46.4217 16.5795C46.2924 16.2789 46.2586 15.9481 46.3245 15.6289C46.3904 15.3098 46.5531 15.0166 46.7921 14.7865C47.031 14.5564 47.3355 14.3997 47.6669 14.3362C47.9983 14.2728 48.3418 14.3053 48.654 14.4299C48.9662 14.5544 49.2331 14.7653 49.4208 15.0358C49.6085 15.3064 49.7087 15.6245 49.7087 15.9499C49.7083 16.3861 49.5281 16.8043 49.2078 17.1128C48.8875 17.4213 48.4532 17.5948 48.0002 17.5953V17.5951Z" fill="#50AF00"/>
<path d="M94.814 52.8089H92.9511L81.0671 24.3624C82.3657 24.1315 83.5933 23.6028 84.654 22.8177C85.7147 22.0326 86.5796 21.0123 87.1812 19.8368C87.3487 19.5044 87.6226 19.2379 87.9591 19.0797C88.669 18.7339 89.2148 18.1226 89.4788 17.3775C89.7428 16.6324 89.7038 15.8133 89.3703 15.0967C89.0368 14.3801 88.4355 13.8234 87.696 13.5468C86.9566 13.2702 86.1382 13.2958 85.4173 13.6181C83.8775 14.3415 82.6196 15.5545 81.8394 17.0682C81.6309 17.4867 81.3113 17.8395 80.9155 18.0878C80.5198 18.3361 80.0634 18.4702 79.5965 18.4755C79.1274 18.4646 78.6703 18.3251 78.2748 18.0722C77.8794 17.8192 77.5608 17.4625 77.3537 17.0408C76.7252 15.7954 75.7664 14.7474 74.5824 14.0119C73.3984 13.2764 72.035 12.8818 70.6418 12.8714H54.9974C54.2876 11.1679 52.9134 9.89119 51.4016 9.08373V1.10001C51.3987 0.951763 51.3666 0.805552 51.307 0.669835C51.2474 0.534117 51.1615 0.411588 51.0543 0.309336C50.9471 0.207084 50.8207 0.127139 50.6824 0.0741272C50.5442 0.0211153 50.3968 -0.00391111 50.2488 0.000495393H45.7512C45.6032 -0.00391111 45.4558 0.0211153 45.3176 0.0741272C45.1793 0.127139 45.0529 0.207084 44.9457 0.309336C44.8385 0.411588 44.7526 0.534117 44.693 0.669835C44.6334 0.805552 44.6013 0.951763 44.5984 1.10001V9.08373C43.0866 9.89119 41.7124 11.1679 41.0026 12.8714H25.3723C23.9809 12.8816 22.6191 13.2753 21.4361 14.0092C20.2532 14.7432 19.2947 15.789 18.6658 17.0323C18.4621 17.4567 18.1433 17.8153 17.7458 18.0669C17.3483 18.3186 16.8882 18.4532 16.418 18.4553C15.9477 18.4575 15.4864 18.3272 15.0866 18.0792C14.6868 17.8312 14.3648 17.4757 14.1572 17.0531C13.3775 15.5441 12.1218 14.3355 10.5855 13.615C10.2272 13.4477 9.83948 13.3527 9.4445 13.3354C9.04952 13.3181 8.65501 13.379 8.2835 13.5144C7.5332 13.7879 6.92212 14.3488 6.58469 15.0736C6.24726 15.7984 6.21112 16.6278 6.48422 17.3793C6.75732 18.1308 7.31729 18.7428 8.04095 19.0808C8.37597 19.2383 8.64872 19.5035 8.81575 19.8343C9.4186 21.0098 10.2844 22.0298 11.3457 22.8149C12.4069 23.6 13.6349 24.129 14.9339 24.3605L3.04894 52.8089H1.18602C0.880845 52.8049 0.586162 52.9203 0.364662 53.1306C0.143162 53.3409 0.0123295 53.6295 0 53.9349V55.0943C0 64.1595 7.39011 71.5345 16.4409 71.5345C25.4918 71.5345 32.8819 64.1595 32.8819 55.0943V53.9349C32.8815 53.7862 32.8518 53.639 32.7945 53.5018C32.7371 53.3646 32.6533 53.2402 32.5478 53.1355C32.4423 53.0309 32.3171 52.9482 32.1796 52.8921C32.0421 52.8361 31.8948 52.8078 31.7463 52.8089H29.8836L17.9906 24.3416C19.2698 24.0945 20.4762 23.5591 21.5184 22.776C22.5606 21.993 23.4113 20.9827 24.006 19.8216C24.1305 19.5618 24.3236 19.3412 24.5645 19.1837C24.8054 19.0262 25.0848 18.9378 25.3723 18.9282H41.0402C41.7531 20.5641 43.0108 21.9014 44.5984 22.7121V59.0551H43.6889C43.3846 59.0535 43.0918 59.1714 42.8733 59.3835C42.6547 59.5956 42.5278 59.8849 42.5197 60.1896V69.0868H35.9492C35.637 69.1006 35.3418 69.2327 35.1232 69.4563C34.9046 69.6799 34.7789 69.9783 34.7717 70.2912V74.9544H30.2049C30.0612 74.9476 29.9177 74.9704 29.7831 75.0212C29.6486 75.0721 29.5259 75.1501 29.4226 75.2503C29.3193 75.3505 29.2376 75.4709 29.1825 75.604C29.1274 75.737 29.1002 75.88 29.1024 76.024V82.5616C29.0995 82.7072 29.1262 82.8518 29.1806 82.9868C29.2351 83.1218 29.3163 83.2444 29.4193 83.3471C29.5223 83.4498 29.645 83.5306 29.78 83.5846C29.915 83.6385 30.0595 83.6646 30.2049 83.6611H65.6077C65.7529 83.6646 65.8973 83.6385 66.0322 83.5844C66.1672 83.5304 66.2897 83.4496 66.3926 83.3469C66.4955 83.2441 66.5765 83.1216 66.6308 82.9866C66.6852 82.8517 66.7116 82.7071 66.7087 82.5616V76.024C66.711 75.8801 66.6839 75.7372 66.629 75.6041C66.574 75.4711 66.4925 75.3507 66.3893 75.2505C66.2861 75.1503 66.1635 75.0723 66.0291 75.0214C65.8947 74.9704 65.7513 74.9476 65.6077 74.9544H61.2283V70.2912C61.2211 69.9783 61.0954 69.6799 60.8768 69.4563C60.6582 69.2327 60.363 69.1006 60.0508 69.0868H53.4803V60.1896C53.4722 59.8849 53.3453 59.5956 53.1267 59.3835C52.9082 59.1714 52.6154 59.0535 52.3111 59.0551H51.4016V22.7121C52.9892 21.9014 54.2469 20.5641 54.9598 18.9282H70.6418C70.9301 18.9385 71.2101 19.0278 71.4514 19.1863C71.6926 19.3448 71.8858 19.5665 72.01 19.8273C72.6026 20.9863 73.4507 21.9951 74.4901 22.7772C75.5296 23.5593 76.733 24.0943 78.0094 24.3416L66.1164 52.8089H64.2537C64.1052 52.8078 63.9579 52.8361 63.8204 52.8921C63.6829 52.9482 63.5577 53.0309 63.4522 53.1355C63.3467 53.2402 63.2629 53.3646 63.2055 53.5018C63.1482 53.639 63.1185 53.7862 63.1181 53.9349V55.0943C63.1181 64.1595 70.5082 71.5345 79.5591 71.5345C88.6099 71.5345 96 64.1595 96 55.0943V53.9349C95.9877 53.6295 95.8568 53.3409 95.6353 53.1306C95.4138 52.9203 95.1192 52.8049 94.814 52.8089ZM16.4663 69.2628C13.6101 69.259 10.8217 68.3906 8.46693 66.7717C6.11211 65.1528 4.30075 62.8588 3.27043 60.1907H29.6619C28.6316 62.8588 26.8203 65.1528 24.4655 66.7717C22.1108 68.3907 19.3224 69.259 16.4663 69.2628ZM30.6142 55.0802V55.0943C30.6122 56.0431 30.5168 56.9894 30.3294 57.9194H2.60315C2.39898 56.991 2.28663 56.0447 2.26772 55.0943V55.0802H30.6142ZM27.4252 52.8089H5.50715L16.4663 26.5805L27.4252 52.8089ZM25.3723 16.6569C24.6692 16.6656 23.9819 16.8681 23.386 17.242C22.79 17.6159 22.3083 18.1469 21.9936 18.7768C21.4722 19.8109 20.6747 20.68 19.6898 21.2875C18.7048 21.895 17.5711 22.2172 16.4144 22.2182C15.2577 22.2191 14.1233 21.8989 13.1374 21.2931C12.1515 20.6873 11.3525 19.8195 10.8293 18.7863C10.427 18.0036 9.77454 17.3784 8.976 17.0107C8.85429 16.9472 8.75295 16.8506 8.68368 16.7319C8.6144 16.6133 8.58 16.4774 8.58444 16.3401C8.58344 16.2175 8.61371 16.0968 8.67238 15.9893C8.73105 15.8817 8.81618 15.791 8.91969 15.7257C9.02459 15.6578 9.14506 15.6179 9.26968 15.6097C9.3943 15.6016 9.51893 15.6255 9.63175 15.6791C10.7131 16.1887 11.5961 17.0417 12.1436 18.1056C12.541 18.8999 13.1517 19.5672 13.9071 20.0327C14.6626 20.4982 15.5327 20.7433 16.4196 20.7404C17.3066 20.7375 18.1751 20.4868 18.9275 20.0165C19.6799 19.5461 20.2863 18.8748 20.6786 18.078C21.117 17.2047 21.7867 16.4689 22.6146 15.9512C23.4424 15.4335 24.3965 15.1538 25.3723 15.1427H40.4328C40.4117 15.5212 40.3994 15.6221 40.3994 15.8584C40.3976 16.1251 40.4109 16.3917 40.4394 16.6569H25.3723ZM46.8661 2.27183H49.1339V8.36789C48.382 8.2576 47.618 8.2576 46.8661 8.36789V2.27183ZM64.4409 77.2257V81.3898H31.3701V77.2257H64.4409ZM58.9606 71.3581V74.9544H37.0394V71.3581H58.9606ZM51.2126 61.3264V69.0868H44.7874V61.3264H51.2126ZM46.8661 59.0551V23.4279C47.618 23.5382 48.382 23.5382 49.1339 23.4279V59.0551H46.8661ZM48 21.2393C46.9452 21.2393 45.9142 20.9261 45.0372 20.3391C44.1602 19.7522 43.4767 18.918 43.073 17.942C42.6694 16.966 42.5638 15.892 42.7696 14.8559C42.9753 13.8197 43.4832 12.868 44.2291 12.121C44.9749 11.374 45.9251 10.8652 46.9596 10.6591C47.9941 10.453 49.0664 10.5588 50.0408 10.9631C51.0153 11.3674 51.8482 12.052 52.4342 12.9304C53.0201 13.8088 53.3329 14.8415 53.3329 15.8979C53.3314 17.3141 52.769 18.6718 51.7692 19.6731C50.7694 20.6745 49.4139 21.2378 48 21.2393ZM74.0238 18.7829C73.7094 18.1516 73.2274 17.6192 72.6309 17.2442C72.0343 16.8692 71.3461 16.666 70.6418 16.6569H55.5606C55.5891 16.3917 55.6024 16.1251 55.6006 15.8584C55.6006 15.6221 55.5883 15.5212 55.5672 15.1427H70.6418C71.6189 15.1543 72.574 15.435 73.4025 15.954C74.231 16.473 74.901 17.2103 75.339 18.0852C75.7318 18.8786 76.3375 19.5467 77.0883 20.0145C77.839 20.4822 78.7051 20.7312 79.5892 20.7333C80.4734 20.7354 81.3407 20.4907 82.0937 20.0266C82.8467 19.5625 83.4557 18.8973 83.8522 18.1058C84.4006 17.0397 85.2857 16.1852 86.3696 15.6755C86.4824 15.6221 86.607 15.5984 86.7316 15.6069C86.8561 15.6153 86.9764 15.6556 87.0811 15.7238C87.1842 15.7891 87.2691 15.8796 87.3276 15.9869C87.3861 16.0942 87.4164 16.2146 87.4156 16.3368C87.4199 16.4752 87.3853 16.612 87.3158 16.7316C87.2462 16.8512 87.1444 16.9489 87.0221 17.0133C86.2226 17.383 85.5697 18.0102 85.1675 18.7948C84.6473 19.8286 83.8504 20.6973 82.8659 21.3039C81.8813 21.9104 80.7478 22.2309 79.5919 22.2297C78.4361 22.2285 77.3033 21.9055 76.32 21.2969C75.3368 20.6882 74.5418 19.8178 74.0238 18.7829ZM79.5337 26.5811L90.4929 52.8089H68.5748L79.5337 26.5811ZM79.5337 69.2632C76.6775 69.2593 73.8892 68.391 71.5344 66.7719C69.1796 65.153 67.3683 62.8589 66.3381 60.1907H92.7296C91.6992 62.8588 89.8879 65.1528 87.5331 66.7717C85.1783 68.3906 82.3899 69.259 79.5337 69.2628V69.2632ZM93.7323 55.0943C93.7134 56.0447 93.601 56.991 93.3969 57.9194H65.6706C65.4832 56.9894 65.3878 56.0431 65.3858 55.0943V55.0802H93.7323V55.0943Z" fill="#50AF00"/>
</svg>
