<svg width="66" height="62" viewBox="0 0 66 62" fill="none" xmlns="http://www.w3.org/2000/svg">
<path d="M65.0859 27.2949C65.0859 23.2997 61.8358 20.0498 57.8406 20.0498H44.5252C47.7603 16.4135 49.8746 12.2728 50.283 8.55809C50.5324 6.28923 49.8314 4.03712 48.3592 2.37904C47.0137 0.863425 45.1737 0.0187325 43.1782 0.000246346C43.155 -1.35408e-07 43.1318 0 43.1089 0C41.1787 0 39.3671 0.743389 37.9998 2.09805C36.6323 3.45296 35.8757 5.25795 35.8668 7.1842C35.7965 7.60593 35.0546 9.05992 33.2393 10.7863C31.753 12.2001 29.1856 14.1436 25.395 15.3743C23.9087 15.8569 22.5504 16.7455 21.3579 18.0153C20.7321 18.6813 19.7949 19.6012 18.6348 20.5245C18.0654 20.2228 17.4179 20.0503 16.7299 20.0503H4.08371C1.83185 20.0503 0 21.8821 0 24.134V57.8571C0 60.109 1.83185 61.9408 4.08371 61.9408H16.7299C18.265 61.9408 19.6037 61.0885 20.3012 59.8332H52.5713C55.9853 59.8332 58.7627 57.0558 58.7627 53.6418C58.7627 52.4939 58.4489 51.4183 57.9022 50.4955C59.6811 49.4065 60.8704 47.445 60.8704 45.2109C60.8704 44.063 60.5566 42.9874 60.0099 42.0646C61.7888 40.9756 62.978 39.0141 62.978 36.78C62.978 35.4879 62.5802 34.2871 61.9007 33.2933C63.8215 31.9886 65.0859 29.7866 65.0859 27.2949ZM57.8406 30.5881H56.7867C55.6955 30.5881 54.8106 31.4727 54.8106 32.5642C54.8106 33.6553 55.6952 34.5402 56.7867 34.5402C58.0215 34.5402 59.0262 35.5449 59.0262 36.7797C59.0262 38.0146 58.0215 39.0193 56.7867 39.0193H54.679C53.5878 39.0193 52.703 39.9039 52.703 40.9953C52.703 42.0865 53.5876 42.9714 54.679 42.9714C55.9139 42.9714 56.9185 43.976 56.9185 45.2109C56.9185 46.4458 55.9139 47.4504 54.679 47.4504H52.5713C51.4801 47.4504 50.5953 48.335 50.5953 49.4265C50.5953 50.5176 51.4799 51.4025 52.5713 51.4025C53.8062 51.4025 54.8109 52.4072 54.8109 53.642C54.8109 54.8769 53.8062 55.8816 52.5713 55.8816H20.8137V36.7805C20.8137 35.6893 19.929 34.8044 18.8376 34.8044C17.7462 34.8044 16.8616 35.6891 16.8616 36.7805V57.8574C16.8616 57.9301 16.8027 57.989 16.7299 57.989H4.08371C4.011 57.989 3.95209 57.9301 3.95209 57.8574V24.1333C3.95209 24.0606 4.011 24.0016 4.08371 24.0016H16.7299C16.8027 24.0016 16.8616 24.0606 16.8616 24.1333V28.3488C16.8616 29.44 17.7462 30.3249 18.8376 30.3249C19.929 30.3249 20.8137 29.4403 20.8137 28.3488V24.1333C20.8137 24.0374 20.8058 23.9435 20.7991 23.8493C22.2807 22.7024 23.4655 21.543 24.2385 20.7202C24.9698 19.9411 25.7694 19.4072 26.6151 19.1329C31.2662 17.6229 34.3963 15.1916 36.2027 13.418C38.4669 11.1949 39.8184 8.87753 39.8184 7.21846C39.8184 6.34197 40.1602 5.52045 40.7811 4.90523C41.4097 4.28237 42.242 3.95332 43.1414 3.95209C44.2491 3.96244 44.9827 4.5291 45.4034 5.00284C46.1246 5.815 46.4795 6.98282 46.3541 8.12625C45.9225 12.0525 42.7826 16.9057 38.3548 20.49C37.7043 21.0167 37.4561 21.8962 37.7354 22.6852C38.0146 23.4742 38.761 24.0016 39.598 24.0016H57.8401C59.6562 24.0016 61.1334 25.4788 61.1334 27.2949C61.1334 29.111 59.6564 30.5881 57.8406 30.5881Z" fill="#50AF00"/>
<path d="M10.4068 49.5361C9.31563 49.5361 8.42041 50.4314 8.42041 51.5225C8.42041 52.6137 9.31563 53.5089 10.4068 53.5089C11.498 53.5089 12.3932 52.6137 12.3932 51.5225C12.3935 50.4316 11.4982 49.5361 10.4068 49.5361Z" fill="#50AF00"/>
</svg>
