<svg width="64" height="64" viewBox="0 0 64 64" fill="none" xmlns="http://www.w3.org/2000/svg">
<path d="M59.0261 24.7378C60.185 23.6082 60.5941 21.9503 60.0941 20.4112C59.594 18.872 58.2885 17.7714 56.6869 17.5388L42.6832 15.5039C42.4083 15.464 42.1707 15.2914 42.0477 15.0422L35.785 2.35275C35.0689 0.901502 33.6187 0 32.0003 0C30.3819 0 28.9316 0.901502 28.2155 2.35275L21.9529 15.0423C21.8298 15.2914 21.5923 15.464 21.3173 15.504L7.31372 17.5388C5.71222 17.7714 4.40684 18.872 3.90659 20.4112C3.40634 21.9503 3.81559 23.6082 4.97459 24.7378L15.1077 34.6152C15.3066 34.8092 15.3975 35.0886 15.3505 35.3624L12.9584 49.3095C12.6849 50.9046 13.3281 52.4862 14.6374 53.4375C15.9466 54.389 17.6501 54.5119 19.0824 53.759L31.6075 47.1741C31.8535 47.0447 32.1471 47.0447 32.3933 47.1741L44.9185 53.759C45.5415 54.0865 46.2157 54.2484 46.8866 54.2482C47.7578 54.2482 48.6236 53.9752 49.3632 53.4374C50.6724 52.486 51.3158 50.9042 51.0422 49.3093L48.6501 35.3623C48.6032 35.0884 48.6939 34.8091 48.8928 34.6151L59.0261 24.7378ZM45.3224 35.9333L47.7146 49.8806C47.7946 50.3474 47.5064 50.6135 47.3788 50.7061C47.2511 50.7986 46.9088 50.9907 46.4898 50.7702L33.9645 44.1853C33.3497 43.8622 32.6751 43.7005 32.0005 43.7005C31.3259 43.7005 30.6513 43.8622 30.0365 44.1852L17.5114 50.77C17.0921 50.9904 16.75 50.7985 16.6224 50.7059C16.4947 50.6132 16.2065 50.3471 16.2866 49.8803L18.6787 35.9333C18.9136 34.5639 18.46 33.1674 17.4649 32.1976L7.33172 22.3202C6.9926 21.9894 7.06935 21.6048 7.11822 21.4548C7.16685 21.3047 7.33097 20.9483 7.7996 20.8803L21.803 18.8454C23.1779 18.6457 24.366 17.7827 24.981 16.5365L31.2436 3.84701C31.4533 3.42238 31.8428 3.37651 32.0006 3.37651C32.1583 3.37651 32.5478 3.42226 32.7575 3.84701V3.84713L39.0202 16.5367C39.635 17.7828 40.823 18.6458 42.1979 18.8455L56.2016 20.8804C56.6702 20.9484 56.8342 21.3048 56.8829 21.4549C56.9317 21.605 57.0086 21.9898 56.6693 22.3203L46.5362 32.1977C45.5412 33.1674 45.0876 34.5639 45.3224 35.9333Z" fill="#50AF00"/>
<path d="M51.7228 2.35186C50.9683 1.80386 49.9127 1.97111 49.3647 2.72536L47.5725 5.19187C47.0245 5.94612 47.1917 7.002 47.946 7.55C48.2459 7.76762 48.593 7.8725 48.937 7.8725C49.4592 7.8725 49.9739 7.63112 50.3042 7.17662L52.0963 4.71012C52.6443 3.95574 52.4772 2.89986 51.7228 2.35186Z" fill="#50AF00"/>
<path d="M16.42 5.18186L14.6279 2.71536C14.08 1.96135 13.0242 1.7941 12.2697 2.34186C11.5155 2.88986 11.3482 3.94573 11.8962 4.69999L13.6884 7.16649C14.0187 7.62137 14.5335 7.86262 15.0557 7.86262C15.3999 7.86262 15.7471 7.75774 16.0466 7.53999C16.8009 6.99211 16.9681 5.93624 16.42 5.18186Z" fill="#50AF00"/>
<path d="M6.19399 37.8775C5.90586 36.9908 4.95349 36.5055 4.06661 36.7936L1.16698 37.7358C0.2801 38.024 -0.205026 38.9766 0.0830999 39.8632C0.31485 40.5768 0.976727 41.0303 1.68835 41.0303C1.86123 41.0303 2.0371 41.0035 2.21048 40.9471L5.11011 40.0048C5.99686 39.7167 6.48211 38.7643 6.19399 37.8775Z" fill="#50AF00"/>
<path d="M32.0008 56.6221C31.0684 56.6221 30.3125 57.378 30.3125 58.3104V61.3594C30.3125 62.2918 31.0684 63.0476 32.0008 63.0476C32.9331 63.0476 33.689 62.2918 33.689 61.3594V58.3104C33.689 57.3779 32.9333 56.6221 32.0008 56.6221Z" fill="#50AF00"/>
<path d="M62.8333 37.7382L59.9336 36.7959C59.0471 36.5081 58.0944 36.9931 57.8062 37.8799C57.5181 38.7668 58.0032 39.7192 58.8901 40.0073L61.7898 40.9496C61.9631 41.0058 62.1389 41.0326 62.3118 41.0326C63.0235 41.0326 63.6854 40.579 63.9171 39.8655C64.2053 38.9787 63.72 38.0263 62.8333 37.7382Z" fill="#50AF00"/>
</svg>
