<svg width="64" height="64" viewBox="0 0 64 64" fill="none" xmlns="http://www.w3.org/2000/svg">
<path d="M57.4519 17.2014C55.6535 16.6342 53.724 16.6342 51.9256 17.2014V1.99714C51.9256 0.894219 51.0314 0 49.9285 0H1.99714C0.894219 0 0 0.894219 0 1.99714V49.9285C0 51.0314 0.894219 51.9256 1.99714 51.9256H17.2014C15.6753 56.7644 18.3609 61.9243 23.1998 63.4501C28.0386 64.9759 33.1984 62.2905 34.7242 57.4517C35.2914 55.6533 35.2914 53.7238 34.7242 51.9253H49.9285C51.0314 51.9253 51.9256 51.0311 51.9256 49.9282V34.724C56.7644 36.2501 61.9243 33.5644 63.4501 28.7256C64.9761 23.887 62.2907 18.7274 57.4519 17.2014ZM56.3006 30.8977C55.2511 31.2412 54.1194 31.2412 53.07 30.8977L50.5595 30.0609C49.5131 29.7124 48.3822 30.2781 48.0337 31.3246C47.966 31.5276 47.9316 31.7403 47.9313 31.9542V47.9313H31.9542C30.8513 47.9321 29.9578 48.827 29.9586 49.93C29.9588 50.1439 29.9933 50.3566 30.0609 50.5595L30.8977 53.07C31.7899 55.7955 30.3036 58.7281 27.578 59.6201C24.8524 60.512 21.9198 59.0259 21.0279 56.3003C20.6844 55.2508 20.6844 54.1192 21.0279 53.0697L21.8647 50.5593C22.2132 49.5128 21.6475 48.3819 20.601 48.0334C20.398 47.9658 20.1853 47.9313 19.9714 47.9311H3.99428V3.99428H47.9313V19.9714C47.9321 21.0743 48.827 21.9678 49.93 21.967C50.1439 21.9668 50.3566 21.9323 50.5595 21.8647L53.07 21.0279C55.7955 20.1359 58.7281 21.622 59.6201 24.3476C60.5123 27.073 59.0259 30.0058 56.3006 30.8977Z" fill="#50AF00"/>
</svg>
