<svg width="64" height="85" viewBox="0 0 64 85" fill="none" xmlns="http://www.w3.org/2000/svg">
<path d="M18.2625 18.2423C19.1795 18.2423 19.9227 17.4985 19.9227 16.5821C19.9227 15.6638 19.1795 14.922 18.2625 14.922C17.3462 14.922 16.603 15.6638 16.603 16.5821C16.603 17.4985 17.3462 18.2423 18.2625 18.2423Z" fill="#50AF00"/>
<path d="M62.4162 30.1215C63.6315 27.9912 63.16 25.2947 61.2949 23.7085L55.6725 18.9342C55.3612 18.6696 55.1498 18.2974 55.0771 17.8869L53.8041 10.673C53.3787 8.24113 51.2932 6.47721 48.8451 6.47721H41.506C41.1078 6.47721 40.7187 6.33324 40.4237 6.08292L34.8012 1.20686C34.7966 1.20297 34.7915 1.19907 34.7869 1.19454C32.9076 -0.398178 30.1793 -0.398178 28.3006 1.19454C28.2954 1.19907 28.2909 1.20297 28.2864 1.20686L22.6762 6.0719C22.3688 6.33324 21.9804 6.47721 21.5828 6.47721H14.2418C11.7944 6.47721 9.70881 8.24177 9.2834 10.6704L8.0078 17.8908C7.93646 18.2993 7.72635 18.6696 7.41507 18.9336L1.79129 23.7091C-0.0731461 25.2947 -0.543956 27.9912 0.671331 30.1208L4.34183 36.5559C4.54741 36.9165 4.62134 37.3399 4.55 37.7491L3.27505 45.0655C2.85288 47.4928 4.21213 49.8676 6.50588 50.7113L13.4033 53.2534C13.5408 53.304 13.6705 53.3721 13.7892 53.4558L1.00336 75.877C0.274449 77.1552 1.45277 78.6837 2.87493 78.303L10.3424 76.3024L12.343 83.7692C12.725 85.1953 14.651 85.4553 15.3884 84.1622L28.5834 61.0257L30.9627 60.1489C31.3369 60.0108 31.75 60.0114 32.1235 60.1483L34.6825 61.0912L48.8405 84.2069C49.6006 85.4469 51.4825 85.1797 51.8599 83.7692L53.8612 76.3024L61.328 78.303C62.7703 78.6908 63.9564 77.1104 63.1736 75.8322L49.4183 53.3786C49.5033 53.3287 49.5921 53.2865 49.6849 53.2528L56.5797 50.7113C58.878 49.867 60.2372 47.4915 59.8125 45.0648L58.5375 37.7485C58.4662 37.3399 58.5401 36.9158 58.7457 36.5552L62.4162 30.1215ZM14.5051 79.0099L13.1199 73.8394C12.8826 72.9535 11.9721 72.4283 11.0862 72.6656L5.85802 74.0664L15.7963 56.6373L17.9726 60.4518C19.1406 62.5017 21.5303 63.4511 23.7534 62.7929L14.5051 79.0099ZM58.1692 74.0197L53.1167 72.6656C52.2302 72.4283 51.3204 72.9542 51.083 73.8394L49.6531 79.1772L39.6721 62.8817C40.0326 62.9615 40.3951 63.001 40.755 63.001C42.5138 63.0004 44.194 62.0678 45.1143 60.4524L47.4015 56.4428L58.1692 74.0197ZM55.8618 34.9106C55.2743 35.9405 55.0629 37.1512 55.2665 38.3192L56.5415 45.6362C56.69 46.4812 56.2237 47.3054 55.4332 47.5959L48.5383 50.1367C47.5053 50.5168 46.6259 51.234 46.0332 52.1646C45.9651 52.2528 45.9074 52.3475 45.8594 52.4467L42.2304 58.8085C41.814 59.5387 40.947 59.8603 40.1695 59.575C39.9516 59.4946 33.4465 57.0977 33.2701 57.0329C32.1572 56.6243 30.9309 56.6237 29.8162 57.0335C29.6826 57.0815 26.7403 58.1665 22.9194 59.575C22.1405 59.8616 21.2735 59.5387 20.8572 58.8078L17.4422 52.8222C17.3637 52.5096 17.1957 52.2197 16.948 51.9947C16.3585 51.1458 15.5207 50.4941 14.5505 50.1374L7.65372 47.5953C6.86514 47.3054 6.39887 46.4805 6.54608 45.6349L7.82103 38.3192C8.02531 37.1512 7.8139 35.9405 7.22636 34.9106L3.55585 28.4756C3.13044 27.7318 3.29386 26.7908 3.94171 26.2396L9.56484 21.4647C10.4663 20.6988 11.0752 19.632 11.2788 18.4647L12.5538 11.2456C12.701 10.4065 13.4111 9.79687 14.2425 9.79687H21.5835C22.7676 9.79687 23.9194 9.37276 24.8389 8.59067L30.4536 3.72238C31.0866 3.19061 32.0016 3.19061 32.6345 3.72238L38.2616 8.60169C39.1682 9.37276 40.3206 9.79687 41.506 9.79687H48.8457C49.6771 9.79687 50.3872 10.4065 50.5344 11.2476L51.8081 18.4641C52.0143 19.6346 52.6232 20.7001 53.5233 21.4647L59.1452 26.2383C59.7943 26.7901 59.9571 27.7311 59.5323 28.4756L55.8618 34.9106Z" fill="#50AF00"/>
<path d="M31.5438 9.91879C28.6859 9.91879 25.9077 10.4694 23.2865 11.5556C22.4395 11.9064 22.0375 12.8779 22.3883 13.7248C22.7398 14.5718 23.7112 14.9732 24.5575 14.623C26.7734 13.7041 29.1242 13.2385 31.5438 13.2385C41.613 13.2385 49.8049 21.4303 49.8049 31.4995C49.8049 41.5688 41.613 49.7606 31.5438 49.7606C21.4746 49.7606 13.2827 41.5688 13.2827 31.4995C13.2827 28.3764 14.0849 25.2934 15.6024 22.5846C16.0505 21.785 15.7652 20.7727 14.9656 20.3246C14.1653 19.8765 13.1537 20.1618 12.7056 20.9614C10.9112 24.165 9.9624 27.8089 9.9624 31.5002C9.9624 43.4001 19.6438 53.0816 31.5438 53.0816C43.4438 53.0816 53.1252 43.4001 53.1252 31.5002C53.1252 19.5996 43.4438 9.91879 31.5438 9.91879Z" fill="#50AF00"/>
<path d="M26.7541 33.6416L25.7826 39.3004C25.6756 39.923 25.9318 40.5527 26.4435 40.9242C26.9486 41.2919 27.6257 41.3477 28.1912 41.0507L33.2741 38.3789L38.357 41.0507C38.916 41.3445 39.5937 41.2958 40.1054 40.9242C40.6164 40.5527 40.8726 39.9236 40.7656 39.3004L39.7941 33.6416L43.9056 29.6339C44.3582 29.1929 44.521 28.5334 44.3258 27.9322C44.13 27.3311 43.6105 26.8933 42.9854 26.8019L37.3032 25.9763L34.7631 20.8279C34.4829 20.2611 33.9057 19.9019 33.2741 19.9019C32.6418 19.9019 32.0646 20.2611 31.7851 20.8279L29.245 25.9763L23.5628 26.8019C22.937 26.8933 22.4176 27.3311 22.2224 27.9322C22.0272 28.5334 22.19 29.1929 22.6426 29.6339L26.7541 33.6416ZM30.5861 29.1365C31.1269 29.058 31.5945 28.7182 31.8364 28.2286L33.2741 25.3142L34.7125 28.2286C34.9537 28.7182 35.4213 29.058 35.9621 29.1365L39.1793 29.604L36.8512 31.8731C36.4602 32.2545 36.2818 32.8037 36.3739 33.3426L36.9239 36.5462L34.0465 35.0339C33.8046 34.9068 33.5393 34.8433 33.2741 34.8433C33.0089 34.8433 32.7436 34.9068 32.5017 35.0339L29.6243 36.5462L30.1743 33.3426C30.267 32.8044 30.088 32.2545 29.697 31.8731L27.3689 29.604L30.5861 29.1365Z" fill="#50AF00"/>
</svg>
