<svg width="564" height="445" viewBox="0 0 564 445" fill="none" xmlns="http://www.w3.org/2000/svg">
<circle cx="157" cy="157" r="157" fill="#9468B4" fill-opacity="0.05"/>
<circle cx="479" cy="238" r="85" fill="#9468B4" fill-opacity="0.05"/>
<circle cx="345" cy="355" r="61" fill="#9468B4" fill-opacity="0.05"/>
<path d="M251.877 444.787C390.807 444.787 503.432 438.212 503.432 430.101C503.432 421.989 390.807 415.414 251.877 415.414C112.947 415.414 0.322266 421.989 0.322266 430.101C0.322266 438.212 112.947 444.787 251.877 444.787Z" fill="#F5F5F5" fill-opacity="0.15"/>
<path d="M326.829 45.626C325.774 42.1397 324.374 38.7671 322.651 35.5581L325.246 27.0601L308.47 10.2716L299.972 12.8664C296.763 11.1432 293.391 9.74376 289.904 8.68876L285.727 0.904297H261.984L257.82 8.68876C254.332 9.74131 250.96 11.1409 247.752 12.8664L239.254 10.2716L222.465 27.0601L225.06 35.5581C223.347 38.7702 221.952 42.1422 220.895 45.626L213.046 49.8037V73.5463L220.895 77.711C221.949 81.1957 223.344 84.568 225.06 87.7789L222.465 96.2769L239.254 113.065L247.752 110.471C250.962 112.186 254.335 113.581 257.82 114.635L261.984 122.42H285.727L289.904 114.635C293.388 113.579 296.76 112.184 299.972 110.471L308.47 113.065L325.259 96.2769L322.664 87.7789C324.39 84.571 325.789 81.1982 326.842 77.711L334.691 73.5463V49.8037L326.829 45.626ZM273.856 95.3947C267.184 95.3947 260.662 93.4163 255.115 89.7097C249.567 86.0031 245.244 80.7348 242.691 74.5709C240.137 68.4071 239.469 61.6246 240.771 55.0811C242.073 48.5376 245.285 42.527 250.003 37.8094C254.721 33.0918 260.731 29.8791 267.275 28.5775C273.818 27.2759 280.601 27.944 286.764 30.4971C292.928 33.0502 298.197 37.3738 301.903 42.9212C305.61 48.4685 307.588 54.9903 307.588 61.662C307.588 70.6085 304.034 79.1885 297.708 85.5146C291.382 91.8407 282.802 95.3947 273.856 95.3947Z" fill="#9468B4"/>
<path opacity="0.2" d="M326.829 45.626C325.774 42.1397 324.374 38.7671 322.651 35.5581L325.246 27.0601L308.47 10.2716L299.972 12.8664C296.763 11.1432 293.391 9.74376 289.904 8.68876L285.727 0.904297H261.984L257.82 8.68876C254.332 9.74131 250.96 11.1409 247.752 12.8664L239.254 10.2716L222.465 27.0601L225.06 35.5581C223.347 38.7702 221.952 42.1422 220.895 45.626L213.046 49.8037V73.5463L220.895 77.711C221.949 81.1957 223.344 84.568 225.06 87.7789L222.465 96.2769L239.254 113.065L247.752 110.471C250.962 112.186 254.335 113.581 257.82 114.635L261.984 122.42H285.727L289.904 114.635C293.388 113.579 296.76 112.184 299.972 110.471L308.47 113.065L325.259 96.2769L322.664 87.7789C324.39 84.571 325.789 81.1982 326.842 77.711L334.691 73.5463V49.8037L326.829 45.626ZM273.856 95.3947C267.184 95.3947 260.662 93.4163 255.115 89.7097C249.567 86.0031 245.244 80.7348 242.691 74.5709C240.137 68.4071 239.469 61.6246 240.771 55.0811C242.073 48.5376 245.285 42.527 250.003 37.8094C254.721 33.0918 260.731 29.8791 267.275 28.5775C273.818 27.2759 280.601 27.944 286.764 30.4971C292.928 33.0502 298.197 37.3738 301.903 42.9212C305.61 48.4685 307.588 54.9903 307.588 61.662C307.588 70.6085 304.034 79.1885 297.708 85.5146C291.382 91.8407 282.802 95.3947 273.856 95.3947Z" fill="white"/>
<path d="M273.856 50.4912C271.644 50.4912 269.481 51.1471 267.642 52.376C265.803 53.6049 264.37 55.3515 263.523 57.3951C262.677 59.4386 262.455 61.6873 262.887 63.8567C263.318 66.0261 264.383 68.0189 265.947 69.583C267.512 71.147 269.504 72.2121 271.674 72.6437C273.843 73.0752 276.092 72.8537 278.135 72.0073C280.179 71.1608 281.926 69.7274 283.154 67.8882C284.383 66.0491 285.039 63.8868 285.039 61.6749C285.039 58.7088 283.861 55.8642 281.764 53.7668C279.666 51.6695 276.822 50.4912 273.856 50.4912Z" fill="#9468B4"/>
<path d="M495.791 83.2895C494.283 78.3053 492.288 73.4816 489.836 68.8882L493.546 56.7445L469.583 32.7813L457.426 36.5049C452.849 34.024 448.027 32.024 443.038 30.5368L437.083 19.3271H403.156L397.188 30.5368C392.2 32.0287 387.379 34.0285 382.799 36.5049L370.655 32.7813L346.666 56.7704L350.377 68.9142C347.913 73.5024 345.918 78.3272 344.422 83.3154L333.199 89.2705V123.198L344.409 129.166C345.903 134.151 347.898 138.971 350.364 143.554L346.653 155.685L370.643 179.674L382.786 175.963C387.371 178.432 392.196 180.423 397.188 181.906L403.156 193.128H437.083L443.038 181.919C448.023 180.42 452.844 178.421 457.426 175.951L469.583 179.661L493.572 155.672L489.862 143.528C492.308 138.939 494.294 134.12 495.791 129.14L507 123.172V89.2446L495.791 83.2895ZM420.113 167.712C407.947 167.712 396.055 164.104 385.94 157.346C375.824 150.587 367.94 140.98 363.285 129.741C358.629 118.501 357.411 106.134 359.784 94.2017C362.158 82.2699 368.016 71.3098 376.618 62.7075C385.221 54.1051 396.181 48.2468 408.113 45.8734C420.045 43.5 432.412 44.7181 443.652 49.3737C454.891 54.0293 464.498 61.9132 471.257 72.0285C478.015 82.1438 481.623 94.0362 481.623 106.202C481.623 114.279 480.032 122.278 476.941 129.741C473.85 137.203 469.319 143.984 463.607 149.696C457.895 155.408 451.114 159.939 443.652 163.03C436.189 166.121 428.19 167.712 420.113 167.712Z" fill="#9468B4"/>
<path d="M420.113 53.3193C409.652 53.3219 399.426 56.4263 390.729 62.2401C382.032 68.0539 375.255 76.3159 371.253 85.9815C367.252 95.6471 366.206 106.282 368.248 116.542C370.291 126.802 375.33 136.226 382.728 143.622C390.126 151.018 399.551 156.055 409.811 158.095C420.072 160.135 430.706 159.086 440.371 155.083C450.036 151.079 458.296 144.299 464.108 135.601C469.919 126.902 473.021 116.676 473.021 106.215C473.004 92.189 467.424 78.7429 457.505 68.8264C447.586 58.91 434.139 53.3331 420.113 53.3193ZM420.113 152.065C411.044 152.068 402.178 149.381 394.636 144.344C387.094 139.308 381.216 132.148 377.743 123.77C374.271 115.392 373.361 106.173 375.129 97.2777C376.897 88.3827 381.262 80.2118 387.674 73.7982C394.086 67.3845 402.256 63.0164 411.15 61.2462C420.045 59.476 429.264 60.3833 437.643 63.8532C446.022 67.3231 453.184 73.1999 458.222 80.7402C463.261 88.2806 465.95 97.1458 465.95 106.215C465.937 118.369 461.103 130.021 452.511 138.616C443.918 147.211 432.267 152.048 420.113 152.065Z" fill="#9468B4"/>
<path opacity="0.2" d="M420.113 53.3193C409.652 53.3219 399.426 56.4263 390.729 62.2401C382.032 68.0539 375.255 76.3159 371.253 85.9815C367.252 95.6471 366.206 106.282 368.248 116.542C370.291 126.802 375.33 136.226 382.728 143.622C390.126 151.018 399.551 156.055 409.811 158.095C420.072 160.135 430.706 159.086 440.371 155.083C450.036 151.079 458.296 144.299 464.108 135.601C469.919 126.902 473.021 116.676 473.021 106.215C473.004 92.189 467.424 78.7429 457.505 68.8264C447.586 58.91 434.139 53.3331 420.113 53.3193ZM420.113 152.065C411.044 152.068 402.178 149.381 394.636 144.344C387.094 139.308 381.216 132.148 377.743 123.77C374.271 115.392 373.361 106.173 375.129 97.2777C376.897 88.3827 381.262 80.2118 387.674 73.7982C394.086 67.3845 402.256 63.0164 411.15 61.2462C420.045 59.476 429.264 60.3833 437.643 63.8532C446.022 67.3231 453.184 73.1999 458.222 80.7402C463.261 88.2806 465.95 97.1458 465.95 106.215C465.937 118.369 461.103 130.021 452.511 138.616C443.918 147.211 432.267 152.048 420.113 152.065Z" fill="black"/>
<path d="M298.585 196.463C298.24 196.463 297.91 196.326 297.667 196.083C297.424 195.84 297.287 195.51 297.287 195.166V192.571C297.287 192.227 297.424 191.897 297.667 191.653C297.91 191.41 298.24 191.273 298.585 191.273C298.929 191.273 299.259 191.41 299.502 191.653C299.745 191.897 299.882 192.227 299.882 192.571V195.166C299.882 195.51 299.745 195.84 299.502 196.083C299.259 196.326 298.929 196.463 298.585 196.463Z" fill="#9468B4"/>
<path d="M278.384 162.938C277.193 162.172 276.261 161.064 275.711 159.759C275.575 159.443 275.319 159.193 274.999 159.065C274.679 158.938 274.322 158.942 274.005 159.078C273.689 159.214 273.439 159.47 273.311 159.79C273.184 160.11 273.188 160.468 273.324 160.784C274.086 162.556 275.354 164.063 276.97 165.117C277.179 165.252 277.422 165.324 277.67 165.325C277.951 165.327 278.225 165.238 278.451 165.071C278.677 164.904 278.843 164.668 278.923 164.399C279.004 164.13 278.995 163.842 278.897 163.579C278.8 163.315 278.62 163.09 278.384 162.938Z" fill="#9468B4"/>
<path d="M273.856 146.733C274.2 146.733 274.53 146.596 274.773 146.353C275.017 146.11 275.153 145.78 275.153 145.435V140.466C275.153 140.122 275.017 139.792 274.773 139.549C274.53 139.306 274.2 139.169 273.856 139.169C273.512 139.169 273.182 139.306 272.939 139.549C272.695 139.792 272.559 140.122 272.559 140.466V145.435C272.559 145.78 272.695 146.11 272.939 146.353C273.182 146.596 273.512 146.733 273.856 146.733Z" fill="#9468B4"/>
<path d="M287.361 164.079H282.379C282.035 164.079 281.705 164.216 281.462 164.459C281.219 164.702 281.082 165.032 281.082 165.377C281.082 165.721 281.219 166.051 281.462 166.294C281.705 166.537 282.035 166.674 282.379 166.674H287.361C287.706 166.674 288.036 166.537 288.279 166.294C288.522 166.051 288.659 165.721 288.659 165.377C288.659 165.032 288.522 164.702 288.279 164.459C288.036 164.216 287.706 164.079 287.361 164.079Z" fill="#9468B4"/>
<path d="M275.153 155.387V150.418C275.153 150.073 275.017 149.743 274.773 149.5C274.53 149.257 274.2 149.12 273.856 149.12C273.512 149.12 273.182 149.257 272.939 149.5C272.695 149.743 272.559 150.073 272.559 150.418V155.387C272.559 155.731 272.695 156.061 272.939 156.304C273.182 156.547 273.512 156.684 273.856 156.684C274.2 156.684 274.53 156.547 274.773 156.304C275.017 156.061 275.153 155.731 275.153 155.387Z" fill="#9468B4"/>
<path d="M299.803 172.512C299.758 172.172 299.58 171.863 299.307 171.654C299.035 171.445 298.691 171.352 298.35 171.397C298.181 171.425 298.019 171.486 297.874 171.577C297.729 171.668 297.603 171.787 297.505 171.927C297.406 172.067 297.335 172.225 297.298 172.393C297.261 172.56 297.257 172.733 297.286 172.902C297.328 173.203 297.349 173.506 297.351 173.81V177.702C297.351 178.046 297.488 178.376 297.731 178.619C297.974 178.863 298.304 178.999 298.649 178.999C298.993 178.999 299.323 178.863 299.566 178.619C299.809 178.376 299.946 178.046 299.946 177.702V173.81C299.927 173.375 299.879 172.941 299.803 172.512Z" fill="#9468B4"/>
<path d="M298.585 181.322C298.24 181.322 297.91 181.459 297.667 181.702C297.424 181.946 297.287 182.276 297.287 182.62V187.602C297.287 187.946 297.424 188.276 297.667 188.519C297.91 188.762 298.24 188.899 298.585 188.899C298.929 188.899 299.259 188.762 299.502 188.519C299.745 188.276 299.882 187.946 299.882 187.602V182.62C299.882 182.276 299.745 181.946 299.502 181.702C299.259 181.459 298.929 181.322 298.585 181.322Z" fill="#9468B4"/>
<path d="M297.455 167.362C296.185 165.911 294.508 164.876 292.642 164.391C292.476 164.348 292.304 164.339 292.135 164.362C291.966 164.386 291.804 164.443 291.657 164.53C291.51 164.617 291.381 164.732 291.279 164.868C291.176 165.004 291.101 165.16 291.059 165.325C291.016 165.49 291.006 165.662 291.03 165.831C291.054 166 291.111 166.163 291.198 166.31C291.285 166.457 291.4 166.585 291.536 166.688C291.672 166.79 291.828 166.865 291.993 166.908C293.356 167.26 294.582 168.015 295.509 169.074C295.63 169.213 295.78 169.324 295.948 169.4C296.116 169.476 296.298 169.515 296.482 169.516C296.731 169.515 296.975 169.443 297.185 169.308C297.394 169.172 297.56 168.979 297.663 168.752C297.765 168.525 297.8 168.273 297.763 168.026C297.727 167.78 297.619 167.549 297.455 167.362Z" fill="#9468B4"/>
<path d="M273.856 136.731C273.512 136.731 273.182 136.594 272.939 136.351C272.695 136.107 272.559 135.777 272.559 135.433V132.838C272.559 132.494 272.695 132.164 272.939 131.921C273.182 131.678 273.512 131.541 273.856 131.541C274.2 131.541 274.53 131.678 274.773 131.921C275.017 132.164 275.153 132.494 275.153 132.838V135.433C275.153 135.777 275.017 136.107 274.773 136.351C274.53 136.594 274.2 136.731 273.856 136.731Z" fill="#9468B4"/>
<path d="M360.042 261.787H59.6396V266.6H360.042V261.787Z" fill="#9468B4"/>
<path d="M360.042 266.601H425.224V261.787H360.042V266.601Z" fill="#9468B4"/>
<path opacity="0.2" d="M360.042 266.601H425.224V261.787H360.042V266.601Z" fill="black"/>
<path d="M403.453 271.751H81.4101L70.6416 266.601H414.222L403.453 271.751Z" fill="#9468B4"/>
<path opacity="0.6" d="M403.453 271.751H81.4101L70.6416 266.601H414.222L403.453 271.751Z" fill="white"/>
<path d="M91.1406 271.752V425.287H95.2664L100.456 271.752H91.1406Z" fill="#9468B4"/>
<path d="M139.846 271.752V425.287H143.971L149.161 271.752H139.846Z" fill="#9468B4"/>
<path d="M403.453 271.752V425.287H399.34L394.138 271.752H403.453Z" fill="#9468B4"/>
<path d="M354.762 271.752V425.287H350.636L345.446 271.752H354.762Z" fill="#9468B4"/>
<path d="M256.729 203.508L243.171 258.739L242.795 261.788H336.312L336.701 258.739L350.246 203.508H256.729Z" fill="#9468B4"/>
<path opacity="0.3" d="M256.729 203.508L243.171 258.739L242.795 261.788H336.312L336.701 258.739L350.246 203.508H256.729Z" fill="black"/>
<path d="M347.379 203.508H253.849L240.304 258.739H333.821L347.379 203.508Z" fill="#9468B4"/>
<path d="M331.836 256.209L344.162 206.038H255.834L243.521 256.209H331.836Z" fill="white"/>
<path d="M309.456 258.738L309.067 261.787H206.092L206.468 258.738H309.456Z" fill="#9468B4"/>
<path opacity="0.6" d="M309.456 258.738L309.067 261.787H206.092L206.468 258.738H309.456Z" fill="white"/>
<path d="M114.922 251.746C114.857 249.769 114.083 247.883 112.742 246.43C111.401 244.977 109.582 244.055 107.617 243.831V242.339C107.616 242.253 107.597 242.168 107.562 242.089C107.527 242.01 107.477 241.939 107.414 241.88C107.351 241.821 107.277 241.774 107.196 241.744C107.115 241.714 107.029 241.7 106.943 241.704H92.9308C92.8439 241.7 92.7571 241.714 92.6755 241.744C92.5939 241.774 92.519 241.82 92.4552 241.879C92.3913 241.938 92.3397 242.009 92.3033 242.088C92.2669 242.167 92.2465 242.252 92.2432 242.339V261.801H107.617V259.673C109.585 259.452 111.407 258.529 112.749 257.072C114.091 255.616 114.862 253.725 114.922 251.746ZM107.617 257.156V246.348C108.914 246.539 110.099 247.19 110.955 248.183C111.812 249.175 112.283 250.441 112.283 251.752C112.283 253.063 111.812 254.33 110.955 255.322C110.099 256.314 108.914 256.965 107.617 257.156Z" fill="#9468B4"/>
<path d="M377.155 261.788H390.181L386.328 233.258H377.155V261.788Z" fill="#263238"/>
<path d="M358.057 261.788H382.733L387.313 228.393H362.649L358.057 261.788Z" fill="#9468B4"/>
<path opacity="0.3" d="M358.057 261.788H382.733L387.313 228.393H362.649L358.057 261.788Z" fill="black"/>
<path d="M354.762 261.788H380.437L385.03 228.393H359.355L354.762 261.788Z" fill="#9468B4"/>
<path opacity="0.4" d="M378.167 259.153L382.033 231.025H361.625L357.759 259.153H378.167Z" fill="white"/>
<path d="M183.815 212.485L182.751 213.627L181.61 214.924C180.844 215.807 180.079 216.702 179.352 217.623C177.899 219.465 176.498 221.347 175.187 223.28C172.58 227.019 170.404 231.04 168.7 235.268C167.907 237.277 167.29 239.353 166.858 241.469C166.65 242.663 166.521 243.182 166.456 243.688C166.384 244.091 166.384 244.504 166.456 244.908C166.673 245.542 167.015 246.126 167.46 246.628C167.906 247.129 168.446 247.536 169.051 247.827C169.927 248.367 170.847 248.831 171.801 249.215C172.303 249.423 172.822 249.617 173.358 249.799C173.851 249.98 174.474 250.162 174.863 250.318V257.467C173.955 257.596 173.293 257.7 172.528 257.752C171.762 257.804 171.023 257.817 170.257 257.752C168.684 257.72 167.118 257.52 165.587 257.155C163.861 256.75 162.208 256.085 160.682 255.183C158.889 254.134 157.347 252.703 156.167 250.992C154.952 249.172 154.147 247.109 153.806 244.947C153.719 244.44 153.663 243.929 153.637 243.416C153.612 242.923 153.612 242.429 153.637 241.937V241.21C153.623 241.016 153.623 240.82 153.637 240.626L153.741 239.484C154.073 236.519 154.699 233.594 155.61 230.753C157.367 225.295 159.84 220.095 162.966 215.288C164.468 212.928 166.101 210.653 167.857 208.476C168.726 207.386 169.622 206.323 170.556 205.272C171.01 204.74 171.49 204.221 171.983 203.702C172.476 203.183 172.93 202.729 173.605 202.08L183.815 212.485Z" fill="white"/>
<path d="M172.281 250.162L178.327 245.725L181.765 258.154C181.765 258.154 176.407 260.139 172.32 257.466L172.281 250.162Z" fill="white"/>
<path d="M186.721 242.741L189.083 253.146L181.765 258.154L178.327 245.725L186.721 242.741Z" fill="white"/>
<path d="M224.956 164.793C224.684 165.558 224.879 166.324 225.385 166.492C225.891 166.661 226.513 166.194 226.773 165.429C227.032 164.663 226.851 163.885 226.358 163.716C225.865 163.547 225.229 164.014 224.956 164.793Z" fill="#263238"/>
<path d="M224.814 166.298C224.915 168.97 225.382 171.615 226.202 174.16C225.548 174.347 224.862 174.391 224.19 174.288C223.518 174.185 222.877 173.938 222.31 173.563L224.814 166.298Z" fill="#A02724"/>
<path d="M223.711 159.577C223.807 159.61 223.912 159.61 224.009 159.577C224.578 159.387 225.184 159.335 225.778 159.425C226.371 159.516 226.934 159.745 227.421 160.096C227.519 160.167 227.639 160.198 227.759 160.184C227.879 160.17 227.989 160.111 228.067 160.02C228.146 159.928 228.187 159.81 228.183 159.69C228.178 159.569 228.129 159.455 228.044 159.369C227.435 158.916 226.726 158.614 225.977 158.49C225.227 158.366 224.459 158.423 223.736 158.656C223.642 158.688 223.56 158.749 223.502 158.831C223.443 158.912 223.412 159.01 223.412 159.11C223.412 159.21 223.443 159.308 223.502 159.389C223.56 159.47 223.642 159.532 223.736 159.564L223.711 159.577Z" fill="#263238"/>
<path d="M196.504 167.621C197.957 175.003 199.397 188.535 194.233 193.466C194.233 193.466 196.257 200.952 209.984 200.952C225.073 200.952 217.198 193.466 217.198 193.466C208.959 191.493 209.167 185.383 210.607 179.648L196.504 167.621Z" fill="white"/>
<path d="M192.262 196.034C191.172 193.66 189.991 190.948 192.443 190.105C195.155 189.171 209.997 188.21 215.109 189.962C215.785 190.146 216.417 190.463 216.969 190.894C217.521 191.325 217.981 191.862 218.323 192.473C218.665 193.085 218.882 193.758 218.96 194.454C219.039 195.15 218.978 195.855 218.781 196.527L192.262 196.034Z" fill="#263238"/>
<path d="M244.093 208.697C247.272 214.419 250.684 220.309 254.135 225.966C257.586 231.623 261.206 237.253 265.072 242.391C266.032 243.688 267.031 244.921 268.017 246.154C268.51 246.789 269.029 247.308 269.535 247.892L270.288 248.748L270.482 248.969L270.573 249.073L270.664 249.189C271.268 249.774 271.995 250.217 272.792 250.487C274.018 250.914 275.282 251.222 276.567 251.408C282.874 252.045 289.232 251.971 295.522 251.187L297.494 258.064C295.743 258.842 294.108 259.361 292.37 260.01C290.631 260.659 288.918 261.087 287.18 261.528C283.495 262.452 279.717 262.957 275.918 263.033C273.786 263.067 271.657 262.854 269.574 262.397C267.017 261.889 264.606 260.817 262.516 259.257L261.647 258.544L261.439 258.362L261.31 258.232L261.063 257.986L260.051 256.987C259.389 256.325 258.663 255.689 258.066 254.989C256.769 253.627 255.549 252.264 254.42 250.863C249.888 245.385 245.706 239.626 241.9 233.621C240.006 230.662 238.181 227.674 236.425 224.655C234.661 221.607 232.961 218.622 231.313 215.405L244.093 208.697Z" fill="white"/>
<path d="M176.16 195.749C166.689 197.916 155.843 223.721 155.843 223.721L174.85 236.695C179.577 229.916 183.772 222.781 187.396 215.353C193.014 203.599 185.839 193.531 176.16 195.749Z" fill="#9468B4"/>
<path opacity="0.2" d="M182.933 212.2L173.955 236.124L174.837 236.747C174.837 236.747 178.73 231.285 182.933 223.916V212.2Z" fill="black"/>
<path d="M232.727 196.255C232.727 196.255 243.47 208.398 233.324 283.518H179.313C178.95 275.228 184.152 234.801 176.16 195.736C182.129 194.586 188.166 193.824 194.233 193.452C201.881 193.004 209.549 193.004 217.197 193.452C222.439 193.98 227.632 194.917 232.727 196.255Z" fill="#9468B4"/>
<path opacity="0.2" d="M226.721 217.986C228.13 226.512 231.814 234.5 237.385 241.106C237.606 236.267 237.697 231.921 237.684 228.041L226.721 217.986Z" fill="black"/>
<path d="M222.037 204.454C220.739 214.016 239.552 238.434 239.552 238.434L258.481 225.46C258.481 225.46 253.227 212.005 244.391 203.183C234.323 193.063 223.516 194.049 222.037 204.454Z" fill="#9468B4"/>
<path d="M293.395 251.252L301.101 248.086L309.028 254.08C309.028 254.08 301.464 260.775 294.588 258.167L293.395 251.252Z" fill="white"/>
<path d="M306.187 247.775L312 251.927L308.99 254.081L301.062 248.087L306.187 247.775Z" fill="white"/>
<path d="M199.864 154.231C197.165 163.884 195.089 169.398 198.177 175.898C202.809 185.693 215.978 185.421 221.531 176.78C226.513 168.996 230.093 154.517 222.153 147.55C220.41 146.001 218.3 144.924 216.023 144.421C213.746 143.918 211.379 144.005 209.145 144.675C206.912 145.344 204.886 146.574 203.262 148.246C201.638 149.919 200.468 151.979 199.864 154.231Z" fill="white"/>
<path d="M220.415 154.335C216.523 165.415 211.943 177.585 200.759 175.276C193.546 173.784 192.975 162.172 190.38 156.891C188.083 152.26 188.226 142.944 192.975 142.827C190.847 139.74 201.602 128.439 208.946 134.407C210.827 131.812 224.385 124.171 234.427 136.301C243.885 147.771 239.253 157.332 220.415 154.335Z" fill="#263238"/>
<path d="M211.657 161.419C211.397 163.894 211.953 166.386 213.24 168.516C214.966 171.292 217.496 170.229 218.43 167.387C219.26 164.792 219.351 160.316 216.951 158.513C214.55 156.71 212.02 158.435 211.657 161.419Z" fill="white"/>
<path d="M294.536 417.957C295.834 417.957 297.131 417.775 297.508 417.191C297.615 417.037 297.672 416.853 297.672 416.666C297.672 416.478 297.615 416.294 297.508 416.14C297.335 415.867 297.067 415.668 296.755 415.582C295.068 415.128 291.565 417.139 291.397 417.23C291.352 417.252 291.317 417.288 291.296 417.333C291.274 417.378 291.269 417.428 291.28 417.477C291.288 417.523 291.31 417.566 291.342 417.6C291.374 417.635 291.416 417.659 291.462 417.671C292.476 417.856 293.505 417.951 294.536 417.957ZM296.145 415.997C296.296 415.976 296.449 415.976 296.599 415.997C296.697 416.016 296.79 416.055 296.871 416.114C296.951 416.172 297.018 416.248 297.066 416.335C297.235 416.633 297.183 416.776 297.066 416.854C296.599 417.515 294.043 417.528 292.162 417.256C293.396 416.582 294.748 416.155 296.145 415.997Z" fill="#9468B4"/>
<path d="M291.488 417.671H291.591C292.811 417.126 295.224 414.947 295.029 413.779C295.029 413.506 294.796 413.182 294.147 413.104C293.914 413.084 293.68 413.11 293.457 413.182C293.234 413.253 293.028 413.368 292.85 413.519C291.552 414.57 291.293 417.295 291.28 417.412C291.275 417.453 291.281 417.495 291.297 417.534C291.313 417.572 291.338 417.606 291.371 417.632C291.407 417.653 291.446 417.666 291.488 417.671ZM293.953 413.584H294.095C294.523 413.584 294.549 413.805 294.562 413.857C294.679 414.544 293.031 416.257 291.786 416.996C291.889 415.854 292.342 414.771 293.083 413.896C293.325 413.689 293.634 413.578 293.953 413.584Z" fill="#9468B4"/>
<path d="M279.746 417.437H289.84L292.136 394.045H282.042L279.746 417.437Z" fill="white"/>
<path d="M290.411 416.27H279.396C279.193 416.271 278.997 416.34 278.839 416.468C278.681 416.595 278.571 416.772 278.527 416.97L276.529 425.896C276.477 426.114 276.476 426.34 276.526 426.558C276.575 426.776 276.674 426.98 276.814 427.154C276.954 427.328 277.132 427.467 277.334 427.562C277.537 427.657 277.758 427.704 277.982 427.7C281.952 427.635 287.699 427.401 292.694 427.401C298.546 427.401 303.593 427.713 310.443 427.713C314.595 427.713 315.749 423.522 314.011 423.146C306.11 421.42 299.661 421.239 292.837 417.022C292.113 416.553 291.274 416.292 290.411 416.27Z" fill="#263238"/>
<path opacity="0.2" d="M292.123 394.058L290.955 406.111H280.849L282.029 394.058H292.123Z" fill="black"/>
<path d="M254.07 417.943C254.498 417.999 254.933 417.969 255.35 417.856C255.766 417.742 256.156 417.547 256.496 417.281C256.615 417.117 256.68 416.92 256.68 416.717C256.68 416.514 256.615 416.317 256.496 416.153C256.419 416.01 256.312 415.886 256.182 415.79C256.052 415.693 255.902 415.627 255.744 415.595C254.265 415.244 251.475 417.152 251.359 417.229C251.321 417.258 251.292 417.296 251.274 417.339C251.256 417.382 251.249 417.429 251.255 417.476C251.264 417.521 251.286 417.562 251.318 417.594C251.351 417.626 251.392 417.648 251.436 417.658C252.302 417.846 253.185 417.942 254.07 417.943ZM255.367 416.023C255.462 416.009 255.558 416.009 255.653 416.023C255.746 416.036 255.834 416.072 255.911 416.126C255.987 416.18 256.05 416.251 256.094 416.334C256.315 416.736 256.185 416.892 256.094 416.957C255.666 417.515 253.603 417.528 252.085 417.281C253.061 416.621 254.175 416.19 255.342 416.023H255.367Z" fill="#9468B4"/>
<path d="M251.501 417.67H251.605C252.656 417.099 254.68 414.894 254.459 413.778C254.426 413.599 254.331 413.438 254.192 413.322C254.052 413.206 253.876 413.142 253.694 413.142C253.513 413.12 253.329 413.137 253.155 413.19C252.98 413.244 252.819 413.334 252.682 413.454C251.514 414.414 251.268 417.346 251.255 417.45C251.254 417.493 251.265 417.536 251.285 417.575C251.305 417.614 251.335 417.646 251.372 417.67C251.414 417.683 251.459 417.683 251.501 417.67ZM253.538 413.584H253.642C253.953 413.584 253.979 413.765 253.992 413.83C254.122 414.492 252.825 416.165 251.787 416.957C251.856 415.805 252.273 414.702 252.98 413.791C253.136 413.657 253.334 413.584 253.538 413.584Z" fill="#9468B4"/>
<path d="M239.929 417.437H250.023L255.095 394.045H245.002L239.929 417.437Z" fill="white"/>
<path d="M250.735 416.269H239.396C239.195 416.271 239 416.341 238.844 416.469C238.689 416.596 238.581 416.773 238.54 416.97L236.542 425.896C236.495 426.115 236.498 426.342 236.551 426.56C236.604 426.777 236.705 426.98 236.847 427.154C236.989 427.327 237.169 427.466 237.372 427.56C237.575 427.655 237.797 427.702 238.021 427.699C241.978 427.634 243.911 427.401 248.893 427.401C251.968 427.401 255.899 427.712 260.142 427.712C264.384 427.712 264.929 423.522 263.19 423.145C255.406 421.446 254.874 419.098 252.383 416.853C251.924 416.464 251.337 416.256 250.735 416.269Z" fill="#263238"/>
<g opacity="0.2">
<path opacity="0.2" d="M245.002 394.058H255.095L252.475 406.111H242.381L245.002 394.058Z" fill="black"/>
</g>
<path d="M233.324 283.531C233.324 283.531 308.963 291.536 308.133 330.121C307.597 354.354 302.938 378.318 294.355 400.986H279.357C279.357 400.986 280.122 376.504 279.616 336.998C279.46 325.152 255.549 321.247 232.183 319.872C222.288 319.25 212.764 315.874 204.685 310.127C196.606 304.38 190.295 296.489 186.462 287.346L184.866 283.531H233.324Z" fill="#263238"/>
<path d="M298.026 396.964C298.104 396.964 297.053 404.061 297.053 404.061H276.294L275.724 397.729L298.026 396.964Z" fill="#9468B4"/>
<path d="M217.133 283.531C217.133 283.531 271.962 301.695 273.35 324.218C275.945 365.657 255.562 400.986 255.562 400.986H240.422C240.422 400.986 246.169 383.471 248.206 345.924C250.801 298.763 162.797 345.846 179.288 283.531H217.133Z" fill="#263238"/>
<path d="M260.141 396.964C260.219 396.964 258.234 404.061 258.234 404.061H237.476L237.852 397.729L260.141 396.964Z" fill="#9468B4"/>
<path d="M256.677 323.259H172.346C172.346 320.705 173.36 318.257 175.165 316.451C176.971 314.646 179.419 313.632 181.972 313.632H247.051C249.604 313.632 252.052 314.646 253.858 316.451C255.663 318.257 256.677 320.705 256.677 323.259Z" fill="#9468B4"/>
<path d="M176.251 323.245L163.536 429.84H166.261L182.387 323.245H176.251Z" fill="#9468B4"/>
<path opacity="0.4" d="M176.251 323.245L163.536 429.84H166.261L182.387 323.245H176.251Z" fill="black"/>
<path d="M193.26 323.245L193.014 429.84H195.725L199.397 323.245H193.26Z" fill="#9468B4"/>
<path opacity="0.4" d="M193.26 323.245L193.014 429.84H195.725L199.397 323.245H193.26Z" fill="black"/>
<path d="M252.772 323.245L265.487 429.84H262.762L246.648 323.245H252.772Z" fill="#9468B4"/>
<path opacity="0.4" d="M252.772 323.245L265.487 429.84H262.762L246.648 323.245H252.772Z" fill="black"/>
<path d="M235.764 323.245L236.01 429.84H233.299L229.627 323.245H235.764Z" fill="#9468B4"/>
<path opacity="0.4" d="M235.764 323.245L236.01 429.84H233.299L229.627 323.245H235.764Z" fill="black"/>
</svg>
