<svg width="655" height="872" viewBox="0 0 655 872" fill="none" xmlns="http://www.w3.org/2000/svg">
<circle cx="447.5" cy="526.5" r="207.5" fill="#9468B4" fill-opacity="0.05"/>
<circle cx="103" cy="155" r="96" fill="#9468B4" fill-opacity="0.05"/>
<circle cx="191" cy="776" r="96" fill="#9468B4" fill-opacity="0.05"/>
<path d="M612.702 386.446H628.496C628.496 386.446 593.852 142.55 595.794 73.7305L593.343 386.446H612.702Z" fill="#E0E0E0"/>
<path d="M538.597 0.353809C538.597 0.353809 597.626 -3.22621 596.043 62.0679C591.471 251.121 613.709 393.33 613.709 393.33H392.56V7.11455L538.597 0.353809Z" fill="#EBEBEB"/>
<path d="M387.051 494.962L540.483 494.865C549.343 494.862 557.84 491.339 564.104 485.073C570.368 478.806 573.887 470.308 573.887 461.447L573.805 76.7874C573.806 72.3914 572.94 68.0383 571.257 63.9776C569.573 59.9169 567.104 56.2285 563.991 53.1239C560.879 50.0193 557.185 47.5595 553.12 45.8856C549.055 44.2117 544.7 43.3566 540.304 43.3693L386.872 43.4657C382.484 43.4639 378.138 44.3271 374.084 46.006C370.029 47.685 366.345 50.1467 363.243 53.2504C360.14 56.3541 357.68 60.0389 356.003 64.0941C354.326 68.1494 353.464 72.4954 353.468 76.8838L353.537 461.544C353.537 465.94 354.404 470.294 356.09 474.355C357.775 478.415 360.245 482.104 363.359 485.208C366.472 488.312 370.167 490.772 374.233 492.446C378.299 494.12 382.655 494.974 387.051 494.962Z" fill="#455A64"/>
<path d="M387.051 57.0693H416.807H503.678H540.18C546.388 57.0693 552.342 59.5355 556.732 63.9253C561.122 68.3152 563.588 74.269 563.588 80.4772L563.657 455.925C563.657 462.133 561.191 468.087 556.801 472.477C552.411 476.867 546.457 479.333 540.249 479.333L387.12 479.43C380.912 479.43 374.958 476.963 370.568 472.574C366.179 468.184 363.712 462.23 363.712 456.022L363.644 80.4772C363.644 74.269 366.11 68.3152 370.5 63.9253C374.889 59.5355 380.843 57.0693 387.051 57.0693Z" fill="#EBEBEB"/>
<path d="M406.329 0.312012L553.165 1.68894C531.63 0.683783 527.031 9.2483 523.492 14.6734C516.759 25.0693 517.434 36.9384 525.131 46.6596C529.611 51.9529 535.758 55.5654 542.563 56.9039H381.668C372.305 47.7198 370.35 37.9298 371.741 29.1174C374.384 12.4153 389.296 0.312012 406.329 0.312012Z" fill="#EBEBEB"/>
<path d="M569.48 8.02307C569.149 7.8695 568.835 7.6802 568.544 7.45853C567.692 6.88059 566.804 6.35634 565.887 5.88883C562.47 4.19798 558.808 3.05494 555.036 2.50157C549.48 1.56366 543.786 1.86934 538.362 3.39658C531.768 5.51659 526.255 10.1122 522.981 16.2158C519.553 22.2258 518.413 29.2731 519.773 36.0574C520.461 38.9719 521.715 41.7228 523.463 44.1538C524.994 46.2954 526.816 48.2139 528.875 49.8543C531.818 52.2639 535.122 54.1968 538.665 55.5823C541.171 56.5462 542.644 56.8629 542.617 56.9593C542.257 56.9175 541.902 56.8437 541.556 56.7389C540.526 56.4988 539.51 56.2 538.513 55.8439C534.888 54.5511 531.505 52.6616 528.503 50.2536C526.411 48.5977 524.557 46.6609 522.995 44.498C521.179 42.0264 519.873 39.218 519.154 36.2364C517.706 29.2914 518.852 22.0567 522.376 15.8991C525.735 9.63644 531.407 4.93296 538.183 2.79073C543.704 1.26933 549.498 1.01049 555.133 2.03342C558.949 2.61519 562.64 3.83472 566.052 5.64098C566.97 6.14377 567.849 6.7145 568.682 7.34838C568.964 7.55389 569.231 7.77937 569.48 8.02307Z" fill="#263238"/>
<path d="M575.69 11.479C576.849 12.1162 577.939 12.8731 578.94 13.7372C581.834 16.1662 584.419 18.9408 586.637 21.9988C588.278 24.1939 589.729 26.5247 590.974 28.966C592.482 31.8672 593.598 34.9555 594.293 38.1502C595.078 41.6201 594.761 45.4066 594.899 49.3446C595.036 53.2827 595.133 57.4961 595.257 61.8885C595.56 70.6871 595.959 80.3119 596.427 90.6526C596.427 95.8437 596.427 101.172 596.344 106.694C596.262 112.215 596.344 117.875 596.344 123.699C596.344 146.955 596.84 172.539 597.845 199.43C599.787 253.131 603.752 301.585 607.236 336.6C609.026 354.115 610.609 368.27 611.752 378.032C612.331 382.907 612.785 386.693 613.129 389.282C613.267 390.567 613.377 391.545 613.46 392.215C613.46 392.876 613.542 393.22 613.542 393.22C613.542 393.22 613.542 392.889 613.377 392.228C613.212 391.567 613.157 390.576 612.978 389.309C612.647 386.707 612.152 382.934 611.518 378.074C610.279 368.297 608.627 354.156 606.768 336.655C603.16 301.64 599.112 253.158 597.129 199.458C596.124 172.621 595.752 147.038 595.752 123.727C595.752 117.902 595.752 112.229 595.752 106.721C595.752 101.214 595.89 95.8574 595.876 90.7077C595.422 80.3669 595.064 70.7284 594.788 61.9298C594.665 57.5374 594.554 53.3515 594.486 49.386C594.417 45.4204 594.692 41.6614 593.935 38.2603C593.271 35.0922 592.187 32.0268 590.713 29.145C589.491 26.7127 588.068 24.3868 586.458 22.1915C584.269 19.1192 581.727 16.3141 578.885 13.8336C578.448 13.4486 577.988 13.09 577.508 12.7596C577.191 12.4991 576.86 12.2555 576.517 12.0298C575.952 11.6855 575.69 11.479 575.69 11.479Z" fill="#263238"/>
<path d="M563.573 291.258C563.573 291.258 561.646 442.9 549.529 465.027L335.884 462.273L340.235 444.057L563.642 169.414L563.573 291.258Z" fill="#E0E0E0"/>
<path d="M563.574 80.3809C563.574 80.3809 559.746 416.462 538.183 445.86H329.991C329.991 445.86 377.895 193.675 363.643 80.4772L563.574 80.3809Z" fill="#F5F5F5"/>
<path d="M565.378 80.3809C565.378 80.3809 561.55 416.462 539.987 445.86H329.991C329.991 445.86 363.382 197.489 363.382 85.8748" fill="#FAFAFA"/>
<path d="M363.382 85.8751V87.6514C363.382 88.8355 363.382 90.598 363.382 92.8975C363.382 95.1969 363.382 98.0747 363.258 101.462C363.134 104.849 363.189 108.774 362.969 113.193C362.377 130.887 360.972 156.608 358.48 188.759C353.344 253.048 343.871 342.976 330.39 445.915L330.046 445.516H539.987L539.712 445.654C541.398 442.891 542.678 439.9 543.512 436.773C544.393 433.647 545.178 430.508 545.812 427.341C547.188 421.021 548.139 414.687 549.034 408.408C550.796 395.836 552.077 383.43 553.164 371.231C555.354 346.9 556.841 323.561 558.08 301.448C560.49 257.207 561.867 217.882 562.872 185.111C563.877 152.34 564.428 126.164 564.799 108.154C564.965 99.1625 565.102 92.209 565.199 87.4999C565.199 85.1453 565.281 83.3691 565.295 82.1574C565.309 80.9457 565.295 80.3398 565.295 80.3398C565.295 80.3398 565.295 80.9457 565.295 82.1574C565.295 83.3691 565.295 85.1453 565.295 87.4999C565.226 92.209 565.13 99.1625 565.02 108.154C564.717 126.164 564.221 152.367 563.299 185.124C562.376 217.882 561.04 257.234 558.658 301.475C557.447 323.602 555.973 346.914 553.798 371.286C552.682 383.458 551.416 395.864 549.667 408.463C548.772 414.755 547.781 421.103 546.459 427.437C545.812 430.618 545.082 433.785 544.132 436.924C543.287 440.133 541.974 443.2 540.235 446.026L540.139 446.177H329.592V445.778C343.1 342.893 352.669 253.007 357.915 188.677C360.476 156.539 361.95 130.846 362.624 113.152C362.859 108.732 362.9 104.808 362.969 101.421C363.038 98.0334 363.093 95.1694 363.148 92.8562C363.203 90.5429 363.23 88.7254 363.258 87.61C363.285 86.4947 363.382 85.8751 363.382 85.8751Z" fill="#263238"/>
<path d="M563.615 79.9542C563.615 79.9542 563.147 56.5464 540.208 56.5464C517.268 56.5464 381.723 56.5464 381.723 56.5464C381.723 56.5464 363.644 61.5584 363.644 81.6203L505.233 92.4981L563.615 79.9542Z" fill="#FAFAFA"/>
<path d="M406.328 0.312349H405.943C405.695 0.312349 405.31 0.312349 404.814 0.312349C403.356 0.327871 401.902 0.452141 400.463 0.684122C395.048 1.52753 389.929 3.70414 385.564 7.01801C378.979 12.2238 374.254 19.4212 372.098 27.5343C370.926 32.4625 371.141 37.6188 372.718 42.4327C373.527 45.0196 374.685 47.4841 376.16 49.758C377.645 52.156 379.436 54.35 381.489 56.2847L381.268 56.202H421.736L506.583 56.4774L532.304 56.6427L539.285 56.7253H541.103H541.722C541.722 56.7253 541.516 56.7253 541.103 56.7253H539.285H532.304H506.583H421.736L381.268 56.6289H381.131L381.048 56.5463C378.936 54.5627 377.086 52.3186 375.54 49.8681C374.058 47.5334 372.887 45.0153 372.057 42.3776C370.469 37.4502 370.274 32.1802 371.492 27.1488C373.707 18.9468 378.542 11.6937 385.261 6.49478C387.77 4.57812 390.556 3.05517 393.523 1.97844C395.744 1.14407 398.054 0.571083 400.408 0.271043C401.857 0.0569309 403.322 -0.030606 404.786 0.0094253C405.308 0.0690259 405.823 0.170324 406.328 0.312349Z" fill="#263238"/>
<path d="M563.642 215.706C563.642 215.706 563.642 216.119 563.642 216.904C563.642 217.689 563.642 218.887 563.642 220.429V233.937C563.642 245.668 563.532 262.659 563.312 283.644C563.091 304.628 562.747 329.62 561.825 357.351C561.356 371.217 560.696 385.785 559.291 400.821C557.887 415.857 555.945 431.389 553.246 447.182C552.186 453.365 551.057 459.451 549.818 465.151L549.749 465.426H549.529C489.66 465.289 436.248 464.311 397.804 463.65L352.435 462.742L340.152 462.452L336.972 462.356H335.884H336.972H340.166L352.435 462.521L397.873 463.21C436.317 463.733 489.728 464.587 549.584 464.752L549.239 465.027C550.479 459.368 551.608 453.268 552.668 447.127C555.353 431.361 557.295 415.843 558.713 400.821C560.131 385.799 560.806 371.258 561.288 357.392C562.251 329.675 562.596 304.683 562.926 283.699C563.257 262.715 563.353 245.764 563.491 234.005C563.491 228.154 563.587 223.596 563.615 220.498C563.615 218.956 563.615 217.744 563.615 216.973C563.615 216.202 563.642 215.706 563.642 215.706Z" fill="#263238"/>
<path d="M549.694 95.1418C543.153 95.6193 536.586 95.6193 530.045 95.1418C536.586 94.6643 543.153 94.6643 549.694 95.1418Z" fill="#263238"/>
<path d="M549.694 90.0056C543.153 90.4831 536.586 90.4831 530.045 90.0056C536.586 89.5281 543.153 89.5281 549.694 90.0056Z" fill="#263238"/>
<path d="M549.694 84.8972C543.153 85.3747 536.586 85.3747 530.045 84.8972C536.586 84.4197 543.153 84.4197 549.694 84.8972Z" fill="#263238"/>
<path d="M386.321 98.46H386.748H387.919L392.256 98.3499L392.132 98.4738C392.132 97.51 392.132 96.4635 392.132 95.3344C392.132 94.7423 392.132 94.1916 392.132 93.5169C392.193 93.1599 392.368 92.8325 392.631 92.584C392.895 92.3356 393.232 92.1797 393.591 92.1399C394.294 92.1399 394.9 92.1399 395.657 92.1399C396.046 92.2166 396.396 92.4262 396.647 92.7327C396.898 93.0392 397.035 93.4235 397.034 93.8198C397.034 95.2931 397.034 96.8215 397.034 98.405L396.827 98.2122H402.335L402.128 98.4187C402.128 96.2156 402.128 93.9437 402.128 91.5341C402.128 90.9558 402.128 90.3774 402.128 89.7991C402.104 89.5398 402.022 89.2892 401.888 89.0654C401.755 88.8416 401.574 88.6502 401.357 88.5048L398.962 86.1503L396.69 83.837L395.56 82.7355C395.175 82.3637 394.872 81.9782 394.431 81.8955C394.219 81.8362 393.995 81.8265 393.778 81.867C393.561 81.9076 393.356 81.9974 393.178 82.1296C392.848 82.405 392.49 82.8043 392.159 83.1348L390.19 85.1176C388.965 86.3981 387.671 87.5685 386.734 88.67C386.457 89.316 386.362 90.0255 386.459 90.7217V92.6494C386.459 93.8335 386.459 94.8662 386.459 95.7475C386.459 96.6287 386.459 97.207 386.459 97.744C386.459 98.281 386.459 98.4463 386.459 98.46C386.44 98.2401 386.44 98.019 386.459 97.7991C386.459 97.2759 386.459 96.6287 386.459 95.8439C386.459 95.059 386.459 93.9024 386.459 92.7045V90.7492C386.459 90.3912 386.459 90.0332 386.459 89.6614C386.458 89.2605 386.562 88.8664 386.762 88.5186C387.781 87.2793 388.979 86.1778 390.232 84.8697L392.173 82.8732C392.531 82.5152 392.82 82.1847 393.233 81.8129C393.458 81.6468 393.717 81.5333 393.991 81.4809C394.265 81.4284 394.547 81.4384 394.817 81.51C395.357 81.6825 395.835 82.0077 396.194 82.4463L397.309 83.5479L399.636 85.8198L402.032 88.1744C402.254 88.3752 402.457 88.5965 402.638 88.8353C402.816 89.1111 402.916 89.4298 402.927 89.7578C402.927 90.3361 402.927 90.9145 402.927 91.5065C402.927 93.8336 402.927 96.1193 402.927 98.3912V98.5977H402.721H397.213H396.69V98.405C396.69 96.8077 396.69 95.2793 396.69 93.806C396.695 93.4819 396.587 93.1662 396.383 92.9143C396.179 92.6624 395.893 92.4906 395.574 92.4291C394.955 92.4291 394.197 92.4291 393.591 92.4291C393.309 92.4653 393.045 92.588 392.836 92.7803C392.626 92.9726 392.481 93.2251 392.421 93.5031C392.421 94.0539 392.421 94.6872 392.421 95.2518V98.5151H392.297H387.891H386.734L386.321 98.46Z" fill="#263238"/>
<path d="M446.053 89.4552H443.382V87.5H451.189V89.4552H448.518V96.2022H446.053V89.4552Z" fill="#9468B4"/>
<path d="M457.509 94.5361H453.818L453.144 96.216H450.624L454.521 87.5H456.944L460.8 96.2022H458.238L457.509 94.5361ZM456.779 92.7186L455.664 89.9647L454.548 92.7186H456.779Z" fill="#9468B4"/>
<path d="M460.841 95.4309L461.653 93.6134C462.511 94.1565 463.502 94.4519 464.517 94.4671C465.536 94.4671 465.894 94.1779 465.894 93.7511C465.894 92.3741 460.951 93.3793 460.951 90.1573C460.951 88.6013 462.218 87.4034 464.806 87.4034C465.905 87.3792 466.992 87.6401 467.96 88.1607L467.202 89.9783C466.465 89.5645 465.638 89.3376 464.793 89.3173C463.76 89.3173 463.416 89.6616 463.416 90.0884C463.416 91.4653 468.345 90.4326 468.345 93.6409C468.345 95.1555 467.078 96.3948 464.49 96.3948C463.207 96.4196 461.944 96.0858 460.841 95.4309Z" fill="#9468B4"/>
<path d="M472.862 93.049L471.939 94.0267V96.2022H469.502V87.5H471.939V91.1213L475.313 87.5H478.066L474.5 91.3554L478.245 96.2022H475.381L472.862 93.049Z" fill="#9468B4"/>
<path d="M478.053 95.4309L478.865 93.6134C479.727 94.1589 480.723 94.4544 481.743 94.467C482.762 94.467 483.12 94.1779 483.12 93.751C483.12 92.3741 478.163 93.3793 478.163 90.1572C478.163 88.6013 479.43 87.4034 482.018 87.4034C483.122 87.3793 484.212 87.6401 485.185 88.1607L484.428 89.9783C483.686 89.5644 482.854 89.3376 482.005 89.3173C480.972 89.3173 480.628 89.6615 480.628 90.0884C480.628 91.4653 485.571 90.4326 485.571 93.6409C485.571 95.1555 484.304 96.3947 481.715 96.3947C480.429 96.4178 479.161 96.0842 478.053 95.4309Z" fill="#9468B4"/>
<path d="M560.793 117.82C560.793 118.013 516.345 118.178 461.543 118.178C406.741 118.178 362.28 118.013 362.28 117.82C362.28 117.627 406.714 117.462 461.543 117.462C516.373 117.462 560.793 117.627 560.793 117.82Z" fill="#E0E0E0"/>
<path d="M562.501 186.391C562.501 186.584 518.067 186.749 463.251 186.749C408.436 186.749 364.002 186.584 364.002 186.391C364.002 186.198 408.422 186.033 463.251 186.033C518.081 186.033 562.501 186.185 562.501 186.391Z" fill="#E0E0E0"/>
<path d="M560.297 252.167C560.297 252.36 513.991 252.525 456.889 252.525C399.788 252.525 353.468 252.36 353.468 252.167C353.468 251.974 399.76 251.809 456.889 251.809C514.018 251.809 560.297 251.961 560.297 252.167Z" fill="#E0E0E0"/>
<path d="M557.515 316.291C557.515 316.497 510.011 316.649 451.492 316.649C392.972 316.649 345.468 316.497 345.468 316.291C345.468 316.084 392.944 315.933 451.492 315.933C510.039 315.933 557.515 316.098 557.515 316.291Z" fill="#E0E0E0"/>
<path d="M550.906 388.428C550.906 388.635 503.222 388.786 444.427 388.786C385.632 388.786 337.949 388.635 337.949 388.428C337.949 388.222 385.619 388.07 444.427 388.07C503.236 388.07 550.906 388.236 550.906 388.428Z" fill="#E0E0E0"/>
<path d="M402.955 165.255C402.938 165.104 402.938 164.952 402.955 164.801C402.955 164.456 402.955 164.043 402.955 163.548C402.955 162.377 402.955 160.794 402.872 158.852C402.872 154.721 402.79 149.09 402.721 142.329L403.037 142.632H380.084L380.442 142.274V148.429C380.442 150.439 380.442 152.422 380.442 154.35C380.442 158.205 380.442 161.84 380.442 165.172L380.125 164.869L396.648 165.021L401.344 165.104H402.597H403.065C402.535 165.168 402.001 165.196 401.468 165.186L396.841 165.255L380.112 165.42H379.809V165.104C379.809 161.771 379.809 158.136 379.809 154.281C379.809 152.353 379.809 150.37 379.809 148.36V142.205L380.167 141.847H403.12H403.423V142.164C403.423 149.049 403.299 154.777 403.272 158.894C403.272 160.821 403.203 162.377 403.189 163.52C403.175 164.663 402.969 165.283 402.955 165.255Z" fill="#263238"/>
<path d="M534.989 152.229C534.989 152.422 508.828 152.587 476.483 152.587C444.139 152.587 417.978 152.422 417.978 152.229C417.978 152.036 444.139 151.871 476.483 151.871C508.828 151.871 534.989 152.023 534.989 152.229Z" fill="#263238"/>
<path d="M478.342 161.317C478.342 161.524 464.835 161.689 448.16 161.689C431.485 161.689 417.978 161.524 417.978 161.317C417.978 161.11 431.485 160.959 448.16 160.959C464.835 160.959 478.342 161.124 478.342 161.317Z" fill="#263238"/>
<path d="M403.574 130.184C404.524 130.432 402.721 140.443 398.686 152.215C398.177 153.689 397.667 155.121 397.158 156.498L396.387 158.522L396.001 159.499L395.891 159.747C395.834 159.904 395.765 160.056 395.684 160.202C395.515 160.487 395.311 160.75 395.079 160.986C394.622 161.418 394.055 161.715 393.44 161.843C392.825 161.972 392.186 161.928 391.595 161.716C391.053 161.498 390.579 161.142 390.218 160.683L389.984 160.339L389.86 160.119L389.626 159.706C389.048 158.632 388.552 157.599 388.125 156.663C386.431 152.89 385.77 150.412 386.197 150.205C386.624 149.998 388.125 152.064 390.328 155.437L392.146 158.191L392.407 158.549L392.517 158.714H392.628C392.696 158.714 392.793 158.714 392.779 158.618L392.862 158.384L393.192 157.393C393.412 156.718 393.633 156.016 393.867 155.355L395.244 151.086C399.251 139.424 402.583 129.937 403.574 130.184Z" fill="#9468B4"/>
<path d="M400.435 234.391C400.425 234.24 400.425 234.088 400.435 233.936C400.435 233.592 400.435 233.179 400.435 232.683C400.435 231.508 400.408 229.939 400.353 227.974C400.353 223.844 400.256 218.226 400.201 211.451L400.504 211.754H377.564L377.922 211.396V217.565C377.922 219.589 377.922 221.572 377.922 223.499C377.922 227.341 377.922 230.976 377.922 234.322L377.619 234.019L394.143 234.171L398.838 234.253H400.091C400.242 234.234 400.394 234.234 400.545 234.253C400.019 234.308 399.491 234.331 398.962 234.322L394.335 234.405L377.606 234.57H377.289V234.253C377.289 230.907 377.289 227.272 377.289 223.43C377.289 221.503 377.289 219.52 377.289 217.496V211.327C376.958 211.644 377.716 210.887 377.647 210.969H400.587H400.821V211.286C400.752 218.171 400.697 223.885 400.656 228.016C400.656 229.943 400.628 231.486 400.573 232.642C400.578 233.228 400.532 233.813 400.435 234.391Z" fill="#263238"/>
<path d="M532.483 221.351C532.483 221.558 506.321 221.723 473.977 221.723C441.633 221.723 415.457 221.558 415.457 221.351C415.457 221.145 441.619 220.993 473.977 220.993C506.335 220.993 532.483 221.213 532.483 221.351Z" fill="#263238"/>
<path d="M396.882 298.721C396.882 298.721 396.882 298.556 396.882 298.267C396.882 297.978 396.882 297.51 396.882 297.014C396.882 295.844 396.882 294.26 396.8 292.319C396.8 288.188 396.717 282.556 396.648 275.795L396.951 276.098H374.012L374.37 275.74V281.881C374.37 283.906 374.37 285.888 374.37 287.816C374.37 291.671 374.37 295.307 374.37 298.639L374.067 298.336L390.59 298.487L395.285 298.57H396.538H396.993C396.468 298.636 395.938 298.663 395.409 298.653L390.783 298.721L374.053 298.887H373.75V298.57C373.75 295.238 373.75 291.603 373.75 287.747C373.75 285.819 373.75 283.837 373.75 281.813V275.671L374.108 275.313H397.048H397.364V275.63C397.296 282.515 397.24 288.229 397.199 292.36C397.199 294.288 397.199 295.844 397.13 296.986C397.094 297.57 397.012 298.151 396.882 298.721Z" fill="#263238"/>
<path d="M528.875 285.695C528.875 285.888 502.713 286.053 470.369 286.053C438.025 286.053 411.863 285.888 411.863 285.695C411.863 285.503 438.025 285.337 470.369 285.337C502.713 285.337 528.875 285.489 528.875 285.695Z" fill="#263238"/>
<path d="M391.333 366.811C391.317 366.66 391.317 366.507 391.333 366.356C391.333 366.012 391.333 365.599 391.333 365.103C391.333 363.933 391.333 362.349 391.251 360.408C391.251 356.277 391.154 350.646 391.086 343.885L391.402 344.188H368.463C368.38 344.27 369.137 343.513 368.807 343.83V355.905C368.807 359.761 368.807 363.396 368.807 366.728L368.49 366.425L385.013 366.577L389.709 366.659H390.975H391.43C390.905 366.725 390.376 366.753 389.846 366.742L385.22 366.811L368.476 366.976H368.173V366.659C368.173 363.327 368.173 359.692 368.173 355.837V349.916C368.173 348.897 368.173 347.878 368.173 346.845V343.761C367.857 344.078 368.614 343.32 368.545 343.403H391.485H391.802V343.72C391.802 350.604 391.691 356.332 391.65 360.449C391.65 362.377 391.65 363.933 391.568 365.076C391.528 365.659 391.45 366.238 391.333 366.811Z" fill="#263238"/>
<path d="M523.367 353.785C523.367 353.978 497.206 354.143 464.861 354.143C432.517 354.143 406.342 353.978 406.342 353.785C406.342 353.592 432.504 353.427 464.861 353.427C497.219 353.427 523.367 353.578 523.367 353.785Z" fill="#263238"/>
<path d="M388.029 431.403C388.029 431.403 388.029 431.237 388.029 430.948C388.029 430.659 388.029 430.191 388.029 429.681C388.029 428.525 388.029 426.928 387.946 424.986C387.946 420.855 387.864 415.237 387.795 408.463L388.098 408.78H365.158L365.516 408.422V414.59C365.516 416.614 365.516 418.597 365.516 420.525C365.516 424.366 365.516 428.002 365.516 431.347L365.2 431.031L381.723 431.196L386.418 431.279H387.671H388.125C388.125 431.279 387.602 431.279 386.542 431.347L381.915 431.43L365.186 431.582H364.883V431.279C364.883 427.933 364.883 424.298 364.883 420.456C364.883 418.528 364.883 416.546 364.883 414.521V408.477L365.241 408.119H388.181H388.497V408.477C388.428 415.361 388.373 421.089 388.346 425.206C388.346 427.152 388.318 428.695 388.263 429.833C388.221 430.361 388.143 430.885 388.029 431.403Z" fill="#263238"/>
<path d="M524.152 417.22C524.152 417.413 497.991 417.578 465.647 417.578C433.302 417.578 407.127 417.413 407.127 417.22C407.127 417.027 433.289 416.862 465.647 416.862C498.004 416.862 524.152 417.027 524.152 417.22Z" fill="#263238"/>
<path d="M502.906 294.522C502.906 294.728 482.321 294.88 456.916 294.88C431.512 294.88 410.927 294.728 410.927 294.522C410.927 294.315 431.581 294.164 456.916 294.164C482.252 294.164 502.906 294.329 502.906 294.522Z" fill="#263238"/>
<path d="M444.359 364.883C444.359 365.089 436.029 365.241 425.743 365.241C415.457 365.241 407.127 365.089 407.127 364.883C407.127 364.676 415.457 364.525 425.743 364.525C436.029 364.525 444.359 364.69 444.359 364.883Z" fill="#263238"/>
<path d="M537.509 0.573823C537.509 0.766594 508.208 0.931826 472.077 0.931826C435.947 0.931826 406.632 0.766594 406.632 0.573823C406.632 0.381053 435.933 0.21582 472.077 0.21582C508.222 0.21582 537.509 0.381053 537.509 0.573823Z" fill="#263238"/>
<path d="M208.849 238.723C208.849 238.723 244.112 288.293 250.721 290.441C273.344 297.959 298.363 245.897 298.363 245.897L284.91 248.858L260.222 264.431L233.275 227.584L208.849 241.642" fill="white"/>
<path d="M255.032 279.481C254.749 278.711 254.637 277.889 254.701 277.071C254.686 273.096 256.103 269.249 258.695 266.235C259.187 265.581 259.805 265.034 260.512 264.624C258.822 266.715 257.431 269.032 256.381 271.508C255.557 274.089 255.103 276.773 255.032 279.481Z" fill="#D9D9D9"/>
<path d="M259.961 570.275L265 593.972L281.593 595.459L288.587 587.597L282.185 559.301L259.961 570.275Z" fill="white"/>
<path d="M158.949 566.075C158.715 566.846 158.949 596.368 158.949 596.368L168.257 601.875L180.415 594.577L182.99 566.034L158.949 566.075Z" fill="white"/>
<path d="M151.046 310.737C151.046 310.737 139.108 333.319 133.985 351.783C128.863 370.248 123.975 380.795 129.249 397.374C134.522 413.952 141.558 476.781 145.028 493.36C147.879 507.019 154.199 560.499 158.798 577.449H184.643L187.273 387.57C187.273 387.57 233.221 494.199 238.495 507.005C243.768 519.81 259.217 574.475 259.217 574.475L285.971 570.344C285.971 570.344 269.765 475.79 264.863 453.181C259.961 430.571 246.026 369.188 240.381 349.911C234.735 330.634 235.314 317.374 227.3 308.024L151.046 310.737Z" fill="#263238"/>
<path d="M190.756 314.455C190.756 314.455 190.893 314.248 191.265 314.097C191.823 313.903 192.429 313.903 192.986 314.097C193.416 314.241 193.799 314.496 194.097 314.838C194.394 315.179 194.596 315.593 194.68 316.038C194.798 316.59 194.744 317.165 194.524 317.685C194.305 318.205 193.931 318.645 193.453 318.946C192.975 319.246 192.417 319.393 191.853 319.365C191.289 319.338 190.748 319.138 190.301 318.792C189.939 318.522 189.654 318.16 189.478 317.744C189.301 317.328 189.239 316.872 189.296 316.424C189.354 315.838 189.618 315.292 190.04 314.882C190.329 314.592 190.549 314.537 190.577 314.565C190.148 315.109 189.881 315.763 189.806 316.451C189.786 316.802 189.856 317.152 190.011 317.468C190.165 317.784 190.398 318.055 190.687 318.255C191.027 318.51 191.436 318.655 191.86 318.673C192.284 318.691 192.704 318.581 193.065 318.356C193.425 318.131 193.709 317.803 193.879 317.414C194.049 317.025 194.098 316.593 194.019 316.176C193.968 315.829 193.829 315.501 193.614 315.223C193.4 314.946 193.117 314.729 192.794 314.592C192.144 314.343 191.433 314.295 190.756 314.455Z" fill="#455A64"/>
<path d="M198.246 363.515C198.047 363.597 197.839 363.657 197.627 363.694C197.2 363.79 196.58 363.9 195.782 363.997C193.492 364.273 191.176 364.236 188.897 363.887C188.131 363.777 187.372 363.62 186.625 363.418C186.197 363.285 185.806 363.054 185.482 362.744C185.154 362.398 184.938 361.962 184.863 361.491C184.642 359.715 184.656 357.952 184.546 355.983C184.381 352.155 184.216 347.956 184.023 343.591C183.679 334.764 183.403 326.778 183.238 320.995C183.238 318.241 183.114 315.873 183.073 314.111V312.252C183.037 312.037 183.037 311.819 183.073 311.604C183.136 311.814 183.169 312.032 183.169 312.252C183.169 312.761 183.265 313.367 183.321 314.111C183.417 315.832 183.541 318.145 183.706 320.995C183.995 326.778 184.353 334.764 184.697 343.577C184.863 347.983 185.028 352.183 185.166 355.969C185.262 357.856 185.234 359.756 185.4 361.353C185.456 361.713 185.616 362.048 185.861 362.317C186.106 362.586 186.424 362.778 186.777 362.868C187.491 363.079 188.217 363.244 188.952 363.363C191.189 363.744 193.463 363.855 195.727 363.694C197.351 363.611 198.233 363.391 198.246 363.515Z" fill="#455A64"/>
<path d="M234.735 332.272C234.426 332.589 234.068 332.854 233.675 333.057C232.629 333.66 231.509 334.123 230.343 334.434C228.406 334.97 226.379 335.099 224.39 334.812C222.402 334.526 220.494 333.83 218.787 332.769C217.081 331.708 215.612 330.305 214.475 328.648C213.338 326.992 212.557 325.117 212.181 323.143C211.943 321.956 211.864 320.743 211.947 319.536C211.946 319.067 212.025 318.601 212.181 318.159C212.197 319.772 212.363 321.381 212.677 322.964C213.096 324.849 213.887 326.63 215.004 328.205C216.122 329.779 217.543 331.114 219.183 332.131C220.824 333.148 222.652 333.827 224.559 334.128C226.465 334.429 228.413 334.346 230.287 333.883C231.817 333.485 233.305 332.946 234.735 332.272Z" fill="#455A64"/>
<path d="M201.387 322.193C200.795 318.372 200.67 314.492 201.015 310.641C201.625 314.46 201.75 318.342 201.387 322.193Z" fill="#455A64"/>
<path d="M205.861 321.367C205.695 319.47 205.695 317.563 205.861 315.666C205.789 313.764 205.9 311.86 206.192 309.979C206.621 311.852 206.751 313.781 206.577 315.694C206.644 317.611 206.402 319.526 205.861 321.367Z" fill="#455A64"/>
<path d="M230.798 318.365C230.798 318.365 230.578 318.462 230.11 318.558L228.113 318.971C226.378 319.329 223.845 319.756 220.705 320.21C204.321 322.555 187.712 322.892 171.246 321.215C168.093 320.885 165.545 320.555 163.797 320.279L161.786 319.949C161.545 319.928 161.309 319.873 161.084 319.783C161.321 319.75 161.563 319.75 161.8 319.783L163.838 319.976C165.587 320.169 168.148 320.417 171.301 320.678C179.512 321.36 187.752 321.627 195.989 321.477C204.23 321.298 212.457 320.696 220.636 319.673C223.776 319.288 226.323 318.944 228.072 318.668L230.096 318.393C230.329 318.362 230.564 318.353 230.798 318.365Z" fill="#455A64"/>
<path d="M163.341 322.083C162.885 323.237 162.212 324.293 161.359 325.195C159.425 327.525 156.967 329.363 154.186 330.56C151.405 331.756 148.38 332.277 145.359 332.08C144.116 332.067 142.888 331.819 141.737 331.35C141.737 331.226 143.114 331.543 145.386 331.57C148.314 331.623 151.219 331.049 153.907 329.888C156.595 328.727 159.004 327.005 160.973 324.837C162.515 323.24 163.231 322.083 163.341 322.083Z" fill="#455A64"/>
<path d="M197.297 354.895C197.091 354.895 196.857 348.162 196.774 339.873C196.691 331.584 196.774 324.837 196.967 324.837C197.16 324.837 197.394 331.556 197.49 339.859C197.586 348.162 197.49 354.895 197.297 354.895Z" fill="#455A64"/>
<path d="M187.465 386.798C187.162 383.862 187.098 380.905 187.272 377.958C187.215 375.007 187.39 372.056 187.795 369.132C188.098 372.069 188.162 375.025 187.988 377.972C188.053 380.924 187.878 383.875 187.465 386.798Z" fill="#455A64"/>
<path d="M230.082 369.243C228.667 369.61 227.226 369.872 225.772 370.028C223.101 370.454 219.411 371.046 215.363 371.79C211.314 372.534 207.652 373.318 205.008 373.897C203.593 374.27 202.152 374.541 200.698 374.709C202.028 374.118 203.411 373.657 204.829 373.332C207.459 372.63 211.108 371.776 215.17 371.019C219.232 370.262 222.949 369.752 225.648 369.463C227.116 369.246 228.6 369.172 230.082 369.243Z" fill="#455A64"/>
<path d="M234.074 375.577C232.399 375.731 230.716 375.787 229.035 375.742C225.923 375.742 221.627 375.893 216.89 376.141C212.153 376.389 207.871 376.72 204.759 376.981C203.092 377.197 201.414 377.312 199.733 377.325C200.172 377.148 200.638 377.045 201.11 377.022C201.964 376.857 203.217 376.678 204.759 376.485C207.857 376.086 212.153 375.659 216.904 375.411C221.654 375.164 225.978 375.164 229.09 375.246C230.659 375.246 231.843 375.343 232.78 375.398C233.217 375.396 233.653 375.457 234.074 375.577Z" fill="#455A64"/>
<path d="M177.345 371.446C176.13 371.071 174.943 370.611 173.792 370.069C170.971 368.902 168.089 367.886 165.159 367.026C162.228 366.187 159.254 365.507 156.25 364.988C154.986 364.844 153.735 364.61 152.505 364.286C153.779 364.189 155.061 364.254 156.319 364.479C162.447 365.238 168.414 366.967 173.999 369.601C175.185 370.078 176.308 370.698 177.345 371.446Z" fill="#455A64"/>
<path d="M291.893 584.967V586.812C291.893 586.812 323.658 598.53 324.168 604.478L261.807 605.951L262.165 585.173C271.597 589.208 281.304 589.511 291.893 584.967Z" fill="#9468B4"/>
<g opacity="0.6">
<path opacity="0.6" d="M268.636 591.659C268.04 591.855 267.538 592.265 267.226 592.808C266.913 593.352 266.812 593.992 266.942 594.605C267.116 595.208 267.514 595.72 268.055 596.038C268.595 596.355 269.237 596.454 269.847 596.313C270.479 596.106 271.011 595.672 271.34 595.094C271.668 594.516 271.77 593.836 271.624 593.187C271.375 592.579 270.901 592.089 270.302 591.82C269.702 591.551 269.022 591.523 268.402 591.741" fill="white"/>
</g>
<g opacity="0.6">
<path opacity="0.6" d="M261.861 605.951L261.944 600.953L321.675 601.366C321.675 601.366 324.429 602.509 324.223 604.478L261.861 605.951Z" fill="white"/>
</g>
<path d="M292.168 586.991C292.168 587.294 290.653 587.459 289.18 588.478C287.707 589.497 286.935 590.791 286.646 590.681C286.357 590.571 286.784 588.794 288.588 587.597C290.392 586.399 292.237 586.702 292.168 586.991Z" fill="#263238"/>
<path d="M298.777 589.538C298.86 589.827 297.551 590.378 296.546 591.686C295.541 592.994 295.266 594.371 294.963 594.371C294.66 594.371 294.426 592.65 295.706 591.039C296.987 589.428 298.763 589.208 298.777 589.538Z" fill="#263238"/>
<path d="M302.674 597.277C302.398 597.345 301.944 595.831 302.674 594.151C303.404 592.471 304.822 591.769 304.96 592.017C305.097 592.265 304.23 593.187 303.583 594.578C302.935 595.968 302.977 597.235 302.674 597.277Z" fill="#263238"/>
<path d="M181.283 592.044C181.283 592.044 164.759 603.789 156.704 593.614L154.611 598.557L145.193 633.682C144.875 634.784 144.969 635.963 145.458 637C145.947 638.037 146.798 638.86 147.851 639.314C148.658 639.636 149.541 639.72 150.395 639.557C151.249 639.393 152.038 638.989 152.67 638.391C159.472 631.92 184.422 607.948 184.174 604.698L184.078 596.078C184.071 595.208 183.806 594.36 183.316 593.641C182.825 592.923 182.132 592.367 181.324 592.044H181.283Z" fill="#9468B4"/>
<g opacity="0.6">
<path opacity="0.6" d="M148.663 639.548L184.188 601.696V603.583C184.367 605.634 183.486 606.433 182.508 607.713C179.63 611.596 171.685 620.257 152.808 638.364C152.27 638.886 151.611 639.266 150.889 639.468C150.168 639.67 149.407 639.688 148.677 639.521L148.663 639.548Z" fill="white"/>
</g>
<g opacity="0.6">
<path opacity="0.6" d="M178.984 596.092C178.435 596.491 178.053 597.079 177.911 597.742C177.769 598.405 177.876 599.097 178.213 599.686C178.594 600.247 179.175 600.642 179.838 600.791C180.5 600.939 181.194 600.83 181.779 600.485C182.361 600.061 182.764 599.435 182.91 598.73C183.055 598.024 182.931 597.29 182.564 596.671C182.107 596.127 181.459 595.781 180.753 595.704C180.048 595.627 179.34 595.825 178.777 596.257" fill="white"/>
</g>
<path d="M158.907 620.175C158.646 620.285 157.654 617.958 155.01 616.691C152.367 615.425 149.957 615.975 149.902 615.7C149.847 615.425 150.425 615.246 151.472 615.094C152.841 614.952 154.222 615.205 155.451 615.824C156.696 616.423 157.733 617.382 158.425 618.578C158.948 619.5 159.017 620.134 158.907 620.175Z" fill="#263238"/>
<path d="M155.727 626.109C155.507 626.302 154.089 624.856 151.789 624.182C149.49 623.507 147.521 623.879 147.452 623.603C147.383 623.328 149.476 622.447 152.078 623.245C154.681 624.044 155.948 625.985 155.727 626.109Z" fill="#263238"/>
<path d="M164.828 612.615C164.622 612.822 162.446 610.578 158.963 609.228C155.479 607.879 152.381 607.961 152.367 607.672C152.353 607.383 155.603 606.819 159.321 608.319C163.038 609.82 165.049 612.436 164.828 612.615Z" fill="#263238"/>
<path d="M165.613 601.862C165.503 602.137 163.038 601.104 159.844 600.967C156.649 600.829 154.116 601.6 154.019 601.325C153.923 601.049 156.456 599.81 159.899 599.948C163.341 600.085 165.764 601.669 165.613 601.862Z" fill="#263238"/>
<path d="M158.027 600.871C157.988 600.304 158.073 599.735 158.275 599.205C158.704 597.699 159.43 596.295 160.409 595.074C161.037 594.126 161.962 593.414 163.039 593.05C163.406 592.961 163.792 592.989 164.142 593.13C164.492 593.271 164.79 593.517 164.994 593.834C165.359 594.467 165.476 595.213 165.325 595.927C164.95 597.379 164.08 598.654 162.867 599.534C161.653 600.413 160.17 600.842 158.674 600.747C157.2 600.621 155.797 600.061 154.642 599.137C153.488 598.213 152.634 596.966 152.189 595.556C152.074 595.202 152.04 594.827 152.087 594.458C152.135 594.089 152.263 593.735 152.464 593.421C152.695 593.121 153.016 592.902 153.38 592.796C153.743 592.689 154.132 592.701 154.488 592.829C155.514 593.271 156.406 593.974 157.077 594.867C158.093 596.032 158.89 597.371 159.431 598.819C159.675 599.331 159.807 599.89 159.817 600.458C158.99 598.596 157.895 596.866 156.567 595.322C155.95 594.566 155.155 593.975 154.254 593.6C154.061 593.531 153.85 593.524 153.652 593.58C153.454 593.637 153.279 593.755 153.153 593.917C153.045 594.128 152.981 594.359 152.964 594.596C152.947 594.832 152.979 595.07 153.056 595.294C153.476 596.5 154.235 597.559 155.241 598.345C156.247 599.131 157.458 599.611 158.729 599.728C159.996 599.819 161.255 599.47 162.294 598.74C163.332 598.01 164.087 596.944 164.43 595.721C164.553 595.227 164.499 594.706 164.278 594.248C164.17 594.069 164.007 593.93 163.814 593.851C163.62 593.771 163.407 593.756 163.204 593.807C162.292 594.112 161.497 594.694 160.932 595.473C159.657 597.089 158.673 598.916 158.027 600.871Z" fill="#263238"/>
<path d="M214.013 194.111C211.424 192.045 208.395 190.6 205.751 188.672C203.108 186.744 200.574 181.663 199.955 178.4L178.709 180.259C176.454 188.65 175.525 197.343 175.955 206.021C176.134 209.711 176.671 213.649 179.149 216.389C181.903 219.405 186.185 220.204 190.165 220.851L209.552 223.949C211.838 224.307 214.302 224.651 216.436 223.646C218.414 222.506 219.889 220.662 220.567 218.482C222.119 214.24 222.323 209.621 221.149 205.259C219.976 200.896 217.484 197.003 214.013 194.111Z" fill="#263238"/>
<path d="M135.486 213.126C134.357 206.834 135.569 200.431 136.147 194.138C137.001 184.968 136.505 175.495 136.147 166.104C135.789 156.713 135.431 147.226 136.656 138.18C137.882 129.133 140.787 120.514 145.703 115.653C150.618 110.793 157.696 110.503 162.598 116.479L160.67 140.328C163.508 174.161 163.858 208.157 161.717 242.042C155.239 243.312 148.583 243.378 142.081 242.234C141.293 242.18 140.537 241.901 139.902 241.43C139.268 240.959 138.781 240.316 138.501 239.577C137.703 237.264 138.804 234.744 139.231 232.321C139.623 229.007 139.27 225.649 138.199 222.489C137.124 219.42 136.219 216.294 135.486 213.126Z" fill="#263238"/>
<path d="M153.524 118.49C155.444 116.568 157.809 115.149 160.408 114.359C161.439 113.976 162.559 113.905 163.63 114.153C164.16 114.295 164.626 114.611 164.953 115.051C165.28 115.491 165.45 116.028 165.434 116.576L159.073 125.581C158.378 126.089 157.549 126.38 156.689 126.419C155.83 126.458 154.978 126.244 154.24 125.801C153.617 125.557 153.057 125.177 152.599 124.688C152.142 124.2 151.799 123.616 151.596 122.979C151.525 122.13 151.664 121.277 152 120.494C152.337 119.711 152.86 119.023 153.524 118.49Z" fill="#455A64"/>
<path d="M201.166 144.527C200.63 138.154 197.695 132.221 192.954 127.927C188.213 123.634 182.02 121.299 175.624 121.395C172.321 121.437 169.06 122.145 166.038 123.479C163.015 124.812 160.293 126.742 158.035 129.153C155.777 131.564 154.029 134.407 152.897 137.51C151.764 140.613 151.271 143.914 151.445 147.212L156.155 202.29C156.243 203.356 156.689 204.36 157.421 205.14C161.478 209.414 167.05 211.925 172.939 212.135C178.015 211.991 182.909 210.209 186.888 207.054C187.54 206.552 188.048 205.886 188.36 205.124C188.672 204.363 188.777 203.532 188.664 202.717L186.943 188.52C188.171 188.36 189.389 188.131 190.592 187.832C193.703 186.565 201.263 184.197 201.607 171.722C201.954 162.656 201.806 153.577 201.166 144.527Z" fill="white"/>
<path d="M185.758 165.003C186.878 164.562 188.048 164.261 189.242 164.108C189.793 164.011 190.316 163.86 190.385 163.488C190.38 162.916 190.202 162.36 189.875 161.891C189.256 160.61 188.595 159.261 187.892 157.856C185.138 152.114 183.101 147.364 183.335 147.268C183.569 147.171 185.992 151.729 188.76 157.471C189.421 158.848 190.054 160.225 190.674 161.601C191.069 162.233 191.23 162.984 191.128 163.722C191.062 163.922 190.95 164.105 190.802 164.255C190.654 164.406 190.474 164.52 190.274 164.589C189.976 164.695 189.667 164.765 189.352 164.796C188.167 165.011 186.96 165.08 185.758 165.003Z" fill="#263238"/>
<path d="M197.035 152.321C197.081 152.843 196.919 153.362 196.583 153.764C196.248 154.167 195.767 154.42 195.245 154.469C194.992 154.51 194.733 154.501 194.483 154.441C194.234 154.381 193.998 154.273 193.791 154.122C193.583 153.971 193.408 153.78 193.275 153.561C193.141 153.342 193.053 153.098 193.014 152.844C192.972 152.322 193.135 151.803 193.47 151.399C193.804 150.995 194.283 150.738 194.804 150.682C195.059 150.643 195.318 150.655 195.568 150.716C195.817 150.777 196.052 150.887 196.26 151.039C196.467 151.191 196.642 151.383 196.775 151.603C196.908 151.823 196.996 152.067 197.035 152.321Z" fill="#263238"/>
<path d="M197.902 148.369C197.709 148.713 195.96 147.584 193.771 147.915C191.581 148.245 190.246 149.787 189.957 149.498C189.668 149.209 189.957 148.768 190.563 148.121C191.314 147.218 192.374 146.625 193.537 146.455C194.707 146.291 195.897 146.56 196.883 147.212C197.681 147.667 197.998 148.204 197.902 148.369Z" fill="#263238"/>
<path d="M176.602 154.235C176.647 154.756 176.485 155.275 176.15 155.678C175.814 156.08 175.333 156.334 174.812 156.383C174.557 156.424 174.297 156.414 174.047 156.353C173.796 156.293 173.561 156.183 173.353 156.031C173.145 155.878 172.97 155.686 172.838 155.465C172.705 155.244 172.618 154.999 172.581 154.744C172.535 154.222 172.697 153.703 173.033 153.301C173.368 152.898 173.849 152.645 174.371 152.596C174.625 152.557 174.884 152.568 175.134 152.629C175.384 152.691 175.619 152.801 175.826 152.953C176.033 153.105 176.208 153.296 176.341 153.516C176.474 153.736 176.563 153.98 176.602 154.235Z" fill="#263238"/>
<path d="M176.891 150.476C176.63 150.806 174.922 149.443 172.568 149.484C170.213 149.526 168.519 150.861 168.258 150.545C167.996 150.228 168.382 149.815 169.111 149.168C170.082 148.369 171.297 147.927 172.554 147.915C173.809 147.909 175.028 148.331 176.01 149.113C176.753 149.76 177.015 150.338 176.891 150.476Z" fill="#263238"/>
<path d="M186.942 188.52C186.942 188.52 178.405 189.897 167.39 184.5C167.39 184.5 171.755 195.102 187.424 192.458L186.942 188.52Z" fill="#D9D9D9"/>
<path d="M185.262 170.221C184.799 169.742 184.225 169.384 183.591 169.18C182.957 168.976 182.283 168.931 181.627 169.051C181.152 169.131 180.698 169.305 180.292 169.562C179.885 169.82 179.534 170.156 179.259 170.551C178.994 170.926 178.852 171.373 178.852 171.832C178.852 172.291 178.994 172.738 179.259 173.112C179.648 173.465 180.129 173.698 180.646 173.786C181.163 173.874 181.695 173.812 182.178 173.608C183.173 173.175 184.072 172.547 184.822 171.763C185.054 171.576 185.25 171.347 185.4 171.088C185.478 170.97 185.519 170.831 185.519 170.689C185.519 170.547 185.478 170.408 185.4 170.29" fill="#D9D9D9"/>
<path d="M178.047 142.421C177.882 143.013 175.692 142.944 173.173 143.481C170.653 144.018 168.656 144.858 168.271 144.403C168.092 144.169 168.395 143.591 169.166 143.026C170.206 142.217 171.424 141.665 172.718 141.415C174.011 141.145 175.348 141.173 176.629 141.498C177.592 141.705 178.116 142.131 178.047 142.421Z" fill="#263238"/>
<path d="M197.351 143.674C196.925 144.183 195.121 143.757 192.959 143.825C190.797 143.894 189.021 144.335 188.567 143.825C188.374 143.578 188.636 143.082 189.407 142.586C190.475 141.991 191.681 141.687 192.904 141.705C194.139 141.66 195.364 141.94 196.456 142.517C197.269 142.93 197.544 143.426 197.351 143.674Z" fill="#263238"/>
<path d="M177.097 118.38C176.334 117.56 175.395 116.923 174.35 116.518C173.306 116.112 172.183 115.948 171.066 116.039C161.29 116.039 151.459 123.295 147.273 132.135C143.087 140.975 144.519 153.023 149.765 161.285L153.442 161.395C160.85 159.853 170.378 137.216 179.177 124.218C180.278 122.565 178.323 119.894 177.097 118.38Z" fill="#263238"/>
<path d="M196.319 121.987C191.652 118.008 184.34 113.409 176.505 117.787C175.624 120.293 178.529 122.951 180.843 124.41C184.23 126.558 187.108 127.908 189.352 129.477C193.896 132.631 199.748 138.083 201.139 144.885C201.235 145.312 201.331 158.723 201.744 158.586C202.158 158.448 203.411 142.063 203.534 138.221C203.782 130.083 200.987 125.952 196.319 121.987Z" fill="#263238"/>
<path d="M155.191 156.686C154.943 156.603 145.552 154.386 146.392 163.763C147.232 173.14 156.444 170.414 156.43 170.138C156.416 169.863 155.191 156.686 155.191 156.686Z" fill="white"/>
<path d="M153.262 166.834C153.262 166.834 153.111 166.958 152.849 167.109C152.663 167.211 152.459 167.274 152.249 167.295C152.038 167.316 151.826 167.295 151.623 167.233C150.987 166.901 150.45 166.407 150.068 165.799C149.686 165.192 149.472 164.494 149.448 163.777C149.356 162.973 149.445 162.159 149.71 161.395C149.772 161.091 149.907 160.807 150.104 160.567C150.301 160.327 150.553 160.139 150.839 160.018C151.021 159.954 151.22 159.956 151.402 160.024C151.583 160.092 151.734 160.221 151.83 160.39C151.981 160.638 151.94 160.83 151.995 160.844C152.05 160.858 152.174 160.665 152.064 160.293C151.996 160.063 151.85 159.863 151.651 159.729C151.515 159.644 151.363 159.586 151.205 159.56C151.047 159.534 150.885 159.54 150.728 159.577C150.35 159.687 150.007 159.891 149.73 160.17C149.452 160.45 149.251 160.796 149.145 161.175C148.816 162.019 148.698 162.931 148.801 163.832C148.827 164.673 149.102 165.488 149.593 166.172C150.083 166.856 150.766 167.379 151.555 167.674C151.812 167.729 152.079 167.724 152.335 167.659C152.59 167.595 152.827 167.472 153.028 167.302C153.262 167.054 153.303 166.847 153.262 166.834Z" fill="#D9D9D9"/>
<path d="M198.412 123.612C197.557 123.965 196.659 124.201 195.741 124.314C191.344 125.076 186.85 125.076 182.453 124.314C181.535 124.222 180.634 123.995 179.782 123.639C180.706 123.662 181.626 123.754 182.536 123.914C184.722 124.155 186.919 124.275 189.118 124.272C191.318 124.253 193.516 124.106 195.7 123.832C196.596 123.68 197.503 123.607 198.412 123.612Z" fill="#455A64"/>
<path d="M202.461 129.891C201.862 130.27 201.192 130.523 200.492 130.634C197.156 131.437 193.649 131.122 190.509 129.739C189.842 129.506 189.228 129.14 188.705 128.665C190.884 129.521 193.159 130.108 195.48 130.414C197.819 130.527 200.164 130.351 202.461 129.891Z" fill="#455A64"/>
<path d="M146.488 135.467C146.488 135.343 148.54 135.467 151.789 134.944C153.686 134.647 155.559 134.214 157.394 133.65C159.629 132.924 161.814 132.05 163.934 131.034C166.041 129.988 168.082 128.815 170.048 127.522C171.644 126.447 173.179 125.284 174.647 124.039C177.139 121.918 178.502 120.376 178.571 120.459C178.311 120.86 178.011 121.234 177.676 121.574C177.316 122.006 176.935 122.42 176.533 122.813C176.065 123.281 175.542 123.818 174.908 124.355C173.469 125.656 171.946 126.861 170.351 127.963C168.383 129.3 166.327 130.5 164.196 131.557C162.046 132.588 159.823 133.457 157.545 134.159C155.68 134.709 153.774 135.11 151.845 135.357C151.105 135.462 150.36 135.527 149.614 135.55C149.05 135.59 148.484 135.59 147.92 135.55C147.441 135.577 146.961 135.549 146.488 135.467Z" fill="#455A64"/>
<path d="M178.378 123.805C178.225 124.282 178.027 124.743 177.786 125.182C177.553 125.726 177.286 126.254 176.987 126.765C176.643 127.357 176.299 128.073 175.803 128.789C174.724 130.517 173.508 132.156 172.168 133.691C170.518 135.563 168.702 137.281 166.743 138.827C164.759 140.35 162.639 141.687 160.409 142.82C158.582 143.724 156.685 144.479 154.736 145.078C153.924 145.354 153.139 145.505 152.478 145.684C151.817 145.863 151.225 145.946 150.743 146.028C150.249 146.13 149.747 146.19 149.242 146.207C149.242 146.083 151.349 145.767 154.612 144.679C156.503 144.034 158.343 143.251 160.12 142.338C164.506 140.076 168.436 137.023 171.714 133.333C173.056 131.835 174.289 130.243 175.404 128.569C177.373 125.691 178.268 123.805 178.378 123.805Z" fill="#455A64"/>
<path d="M171.066 116.038C171.674 115.835 172.325 115.797 172.953 115.928C174.485 116.166 175.918 116.834 177.084 117.856C177.418 118.151 177.722 118.479 177.992 118.834C178.235 119.167 178.438 119.528 178.598 119.908C178.904 120.52 179.162 121.155 179.369 121.808C179.623 122.406 179.657 123.074 179.466 123.694C179.369 123.694 179.397 122.978 178.984 121.946C178.727 121.334 178.437 120.736 178.116 120.156C177.96 119.81 177.766 119.482 177.538 119.178C177.283 118.861 177.002 118.566 176.698 118.297C175.601 117.341 174.287 116.67 172.87 116.341C171.782 116.094 171.08 116.135 171.066 116.038Z" fill="#455A64"/>
<path d="M147.631 157.746C147.609 157.579 147.563 157.417 147.493 157.264C147.397 156.947 147.232 156.507 147.053 155.887C146.491 154.242 146.031 152.563 145.676 150.861C145.168 148.342 144.933 145.775 144.973 143.205C145.013 140.063 145.542 136.946 146.543 133.966C147.08 132.436 147.772 130.964 148.608 129.574C149.417 128.287 150.339 127.075 151.362 125.953C153.09 124.053 155.047 122.374 157.187 120.954C158.626 119.987 160.12 119.104 161.662 118.311L162.929 117.663C163.081 117.6 163.225 117.517 163.355 117.416L162.901 117.581C162.598 117.718 162.144 117.884 161.593 118.159C160.011 118.895 158.484 119.741 157.022 120.693C154.832 122.096 152.829 123.771 151.059 125.677C150.032 126.817 149.111 128.047 148.306 129.354C147.44 130.765 146.729 132.265 146.185 133.829C145.169 136.851 144.643 140.017 144.629 143.205C144.608 145.797 144.876 148.384 145.428 150.916C145.789 152.625 146.277 154.305 146.887 155.942C147.094 156.534 147.3 156.961 147.411 157.319C147.473 157.467 147.547 157.609 147.631 157.746Z" fill="#455A64"/>
<path d="M186.488 172.713C186.488 172.424 184.354 172.121 181.889 171.019C179.424 169.918 177.676 168.266 177.538 168.527C178.508 170.077 179.959 171.267 181.669 171.914C184.216 173.071 186.474 172.947 186.488 172.713Z" fill="#263238"/>
<path d="M201.262 197.443L187.796 195.846L155.947 199.963L139.686 209.023L167.94 220.933L188.498 216.72L201.262 197.443Z" fill="white"/>
<path d="M147.989 203.666L125.435 212.864L130.488 256.169C130.488 256.169 138.873 253.167 143.376 275.047C147.879 296.926 147.947 310.929 147.947 310.929L229.985 308.01C229.985 308.01 226.997 255.563 225.496 243.873L219.989 199.219L198.825 195.68C198.825 195.68 178.433 230.131 147.989 203.666Z" fill="#455A64"/>
<path d="M220.002 199.219C220.002 199.219 229.999 198.503 237.902 212.328C243.906 222.847 246.026 226.909 246.026 226.909L222.784 240.486L213.489 215.109L220.002 199.219Z" fill="#455A64"/>
<path d="M125.71 212.713C125.71 212.713 116.718 217.808 111.94 224.403C107.163 230.999 101.448 243.102 101.448 243.102L128.987 258.413L133.118 250.551L125.71 212.713Z" fill="#455A64"/>
<path d="M133.407 249.78C133.283 249.78 133.999 247.894 134.633 244.796C135.013 242.981 135.257 241.14 135.362 239.288C135.49 237.029 135.434 234.764 135.197 232.514C134.908 230.269 134.447 228.051 133.82 225.877C133.297 224.102 132.649 222.368 131.879 220.686C130.502 217.822 129.455 216.183 129.566 216.114C129.899 216.435 130.187 216.801 130.419 217.202C131.136 218.241 131.776 219.332 132.333 220.465C133.181 222.144 133.891 223.889 134.454 225.684C135.11 227.893 135.571 230.155 135.831 232.445C136.082 234.731 136.124 237.035 135.955 239.329C135.813 241.187 135.513 243.03 135.06 244.837C134.773 246.066 134.395 247.272 133.93 248.445C133.828 248.915 133.651 249.366 133.407 249.78Z" fill="#263238"/>
<path d="M221.572 220.19C221.352 220.19 220.622 215.894 218.433 211.006C217.011 208.092 215.444 205.252 213.737 202.496C214.478 203.121 215.118 203.854 215.637 204.672C218.361 208.457 220.269 212.765 221.242 217.326C221.51 218.255 221.622 219.223 221.572 220.19Z" fill="#263238"/>
<path d="M205.297 195.749C205.257 195.992 205.182 196.229 205.077 196.451C204.884 196.892 204.664 197.567 204.251 198.379C203.135 200.709 201.748 202.9 200.12 204.906C197.731 207.91 194.882 210.517 191.679 212.63C186.116 216.272 179.645 218.285 172.998 218.443C166.351 218.601 159.792 216.898 154.061 213.525C151.828 212.234 149.753 210.686 147.879 208.913C147.204 208.307 146.75 207.756 146.419 207.412C146.089 207.068 145.938 206.861 145.965 206.847C145.993 206.833 146.709 207.522 148.072 208.706C149.992 210.38 152.083 211.848 154.309 213.085C157.604 214.927 161.161 216.255 164.857 217.023C169.372 218.009 174.039 218.079 178.583 217.23C183.126 216.381 187.453 214.63 191.307 212.08C194.476 210.025 197.313 207.499 199.721 204.589C201.351 202.631 202.772 200.508 203.961 198.255C204.829 196.658 205.297 195.735 205.297 195.749Z" fill="#263238"/>
<path d="M166.743 246.062C162.11 231.377 159.045 216.243 157.6 200.913C156.677 190.104 153.855 181.388 153.469 170.744L147.314 181.636C144.089 195.329 141.839 209.235 140.581 223.247C140.182 227.639 140.03 232.541 142.894 235.901C145.194 238.654 149.159 239.907 150.426 243.212C151.803 246.792 149.793 252.08 153.18 253.87C154.061 254.228 155.034 254.297 155.957 254.067C156.88 253.837 157.706 253.319 158.316 252.589C159.495 251.102 160.34 249.378 160.794 247.536C161.111 250.29 164.333 253.209 166.426 251.35C167.748 250.097 167.307 247.852 166.743 246.062Z" fill="#263238"/>
<path d="M1.88246 371.776C3.05896 374.636 4.81809 377.219 7.04776 379.36C9.27744 381.502 11.9288 383.157 14.8329 384.217C17.7371 385.278 20.8303 385.723 23.9157 385.522C27.001 385.322 30.0108 384.481 32.7533 383.053L339.603 223.026L378.79 166.242L311.417 176.527L11.6174 343.88C6.86243 346.533 3.2455 350.838 1.45143 355.979C-0.342637 361.12 -0.189288 366.741 1.88246 371.776Z" fill="#9468B4"/>
<path d="M11.6174 343.88C6.86243 346.533 3.2455 350.838 1.45143 355.979C-0.342637 361.12 -0.189287 366.741 1.88246 371.777C3.05896 374.636 4.81809 377.219 7.04776 379.361C9.27743 381.503 11.9288 383.157 14.8329 384.218C17.7371 385.278 20.8303 385.723 23.9157 385.522C27.001 385.322 30.0108 384.481 32.7533 383.054L11.6174 343.88Z" fill="#263238"/>
<g opacity="0.4">
<path opacity="0.4" d="M311.403 176.527L11.6172 343.88L15.2248 350.572L316.195 185.464L311.403 176.527Z" fill="black"/>
</g>
<g opacity="0.4">
<path opacity="0.4" d="M334.329 213.98L29.2832 376.623L32.7531 383.053L339.602 223.026L334.329 213.98Z" fill="black"/>
</g>
<g opacity="0.4">
<path opacity="0.4" d="M322.212 194.538L20.3193 359.99L25.1248 368.912L327.348 203.749L322.212 194.538Z" fill="black"/>
</g>
<g opacity="0.4">
<path opacity="0.4" d="M339.603 223.026L311.403 176.527L352.642 170.235L365.324 185.739L339.603 223.026Z" fill="white"/>
</g>
<path d="M285.393 251.859L290.9 246.049C290.9 246.049 290.253 232.816 292.511 229.525L293.682 227.57C293.682 227.57 292.511 221.14 295.967 219.653C296.945 217.216 298.212 216.224 299.933 217.587C299.933 217.587 298.969 212.741 303.485 212.08C308.002 211.419 309.296 231.935 309.296 231.935C309.296 231.935 311.554 241.133 306.391 241.133C306.391 241.133 303.485 244.355 300.25 244.685C300.25 244.685 299.286 250.193 294.742 249.849L285.393 251.859Z" fill="white"/>
<path d="M299.561 242.317C299.561 242.317 299.823 242.482 300.071 242.978C300.399 243.688 300.491 244.484 300.332 245.25C300.12 246.392 299.522 247.427 298.639 248.183C297.581 249.076 296.354 249.745 295.031 250.152C292.714 250.955 290.293 251.418 287.844 251.529C286.832 251.651 285.807 251.595 284.814 251.363C288.204 251.091 291.552 250.439 294.797 249.422C296.033 249.043 297.186 248.436 298.198 247.632C299.008 246.984 299.583 246.09 299.837 245.085C300.033 244.156 299.937 243.189 299.561 242.317Z" fill="#D9D9D9"/>
<path d="M303.568 235.033C303.348 235.033 303.334 230.902 302.356 225.973C301.379 221.043 299.837 217.215 300.043 217.133C300.569 217.872 300.974 218.69 301.241 219.556C302.032 221.591 302.64 223.692 303.059 225.835C303.473 227.978 303.708 230.152 303.761 232.334C303.844 233.238 303.779 234.15 303.568 235.033Z" fill="#D9D9D9"/>
<path d="M299.672 237.291C299.466 237.291 299.08 233.284 298.047 228.438C297.015 223.591 295.762 219.735 295.954 219.667C297.29 222.389 298.217 225.294 298.708 228.286C299.463 231.225 299.788 234.259 299.672 237.291Z" fill="#D9D9D9"/>
<path d="M306.887 237.14C307.052 237.03 307.727 238.297 307.286 239.894C306.845 241.491 305.634 242.262 305.551 242.083C305.468 241.904 306.253 241.064 306.597 239.715C306.942 238.365 306.694 237.209 306.887 237.14Z" fill="#D9D9D9"/>
<path d="M294.274 238.09C293.976 236.431 293.833 234.749 293.847 233.064C293.631 231.393 293.562 229.707 293.641 228.024C294.265 229.616 294.579 231.313 294.563 233.023C294.779 234.715 294.681 236.433 294.274 238.09Z" fill="#D9D9D9"/>
<path d="M102.798 243.102C102.798 243.102 84.5809 281.505 81.827 287.233C79.0731 292.961 74.6256 303.549 81.827 309.484C89.0283 315.419 139.204 315.79 139.204 315.79L141.696 295.563L108.65 287.563L128.064 258.414L102.798 243.102Z" fill="white"/>
<path d="M146.089 295.921C147.101 293.715 148.587 291.759 150.44 290.193C153.593 287.439 160.533 285.319 161.456 282.689C162.378 280.059 164.981 282.11 164.361 285.374C163.975 287.467 159.679 292.933 159.679 292.933C159.679 292.933 164.719 294.186 168.079 292.258C171.438 290.331 183.225 286.847 184.437 288.499C185.648 290.152 182.771 290.964 181.462 291.721C180.457 292.286 172.65 296.155 172.65 296.155C172.65 296.155 188.182 295.632 190.137 296.375C192.092 297.119 190.137 299.047 189.104 299.129C188.499 299.129 185.827 301.539 183.941 303.26C182.663 304.459 180.984 305.136 179.232 305.16H175.624L186.64 306.317C186.64 306.317 188.526 308.052 185.896 308.96C184.712 309.36 151.473 314.151 148.884 314.303C144.423 314.565 137.373 315.68 137.373 315.68L139.163 295.026L146.089 295.921Z" fill="white"/>
<path d="M189.325 299.212C186.986 300.356 184.473 301.105 181.89 301.429C179.36 301.993 176.757 302.146 174.179 301.883C174.179 301.677 177.607 301.47 181.766 300.727C185.924 299.983 189.256 299.019 189.325 299.212Z" fill="#D9D9D9"/>
</svg>
