<svg width="504" height="455" viewBox="0 0 504 455" fill="none" xmlns="http://www.w3.org/2000/svg">
<path d="M440.172 422.2L63.8283 454.916C28.6011 454.916 0 426.311 0 391.079L16.3555 63.8376C16.3555 28.6053 44.9566 0 80.1837 0L402.512 16.3579C437.739 16.3579 466.34 44.9631 466.34 80.1954L504 358.447C504 393.679 475.399 422.2 440.172 422.2Z" fill="#9468B4"/>
<path d="M201.885 45.2153C193.246 45.8864 185.529 50.9196 179.49 59.6437L133.024 82.2931L131.514 82.9642C130.172 83.5514 128.914 83.9708 127.572 84.3902C126.23 84.8097 124.888 85.0613 123.546 85.313C123.127 85.3969 122.624 85.4808 122.204 85.4808C121.701 85.5647 121.282 85.5647 120.862 85.6485L100.481 87.1585C94.7775 87.5779 89.6612 90.1784 85.9707 94.4566C83.7061 97.0571 82.1964 100.077 81.3577 103.349L80.3512 103.432C72.2992 104.02 66.1764 111.066 66.7635 119.203L67.4345 129.018C67.6862 132.96 69.5314 136.484 72.467 139.084C74.8993 141.265 78.0027 142.44 81.1899 142.691C81.8609 142.691 82.5319 142.691 83.119 142.691L84.1255 142.607C85.3836 145.711 87.3127 148.479 89.9128 150.661C92.0097 152.422 94.2743 153.764 96.7905 154.687C97.2099 154.855 97.7131 154.939 98.1325 155.106C98.3841 155.19 98.5519 155.19 98.8035 155.274L100.649 180.776C100.984 185.977 103.417 190.758 107.359 194.198C110.63 197.05 114.74 198.727 119.017 198.979C119.856 199.063 120.779 199.063 121.617 198.979C126.817 198.56 131.598 196.211 135.037 192.184C138.476 188.242 140.153 183.125 139.734 177.924L138.14 155.778L138.308 155.861L187.542 171.464C193.749 178.091 200.962 182.034 208.595 182.537C209.685 182.621 210.776 182.621 211.866 182.537C223.021 181.698 232.751 173.478 239.293 159.217C245.332 145.963 247.932 128.85 246.674 111.066C243.906 72.4784 224.195 43.6214 201.885 45.2153ZM213.208 172.303C212.537 172.471 211.866 172.555 211.111 172.639C210.188 172.723 209.182 172.723 208.259 172.555C207.588 172.471 206.917 172.387 206.246 172.219L204.401 171.632C200.375 170.122 196.517 167.102 193.078 162.908C184.607 152.674 178.232 135.477 176.806 116.099C175.632 99.9092 177.897 84.4741 183.349 72.73C184.187 70.8006 185.194 69.039 186.117 67.4452C189.052 62.6637 192.407 59.1404 196.098 57.1272L197.775 56.2883C197.775 56.2883 197.775 56.2883 197.859 56.2883C198.53 56.0366 199.117 55.785 199.788 55.6172C200.711 55.3655 201.633 55.1978 202.556 55.1139C203.227 55.03 203.898 55.03 204.485 55.1139H204.569C220.086 56.1205 234.512 81.2026 236.777 111.737C237.951 127.927 235.686 143.362 230.234 155.106C225.873 164.753 219.918 170.793 213.208 172.303ZM127.656 185.641C125.895 187.654 123.546 188.829 120.946 188.997C118.346 189.164 115.83 188.326 113.817 186.648C111.804 184.886 110.63 182.537 110.462 179.937L108.701 155.442L125.811 154.184H125.895C126.566 154.1 127.237 154.1 127.908 154.1C128.076 154.1 128.159 154.1 128.243 154.1L130.005 178.511C130.172 181.111 129.334 183.628 127.656 185.641ZM96.3711 143.111C94.0227 141.097 92.6807 138.329 92.429 135.309V135.225L90.4999 109.137C90.2483 106.117 91.2548 103.097 93.2678 100.832C95.2808 98.4832 98.0486 97.141 101.068 96.8893L121.45 95.3794C122.121 95.2955 122.708 95.2955 123.379 95.2116C123.714 95.2116 124.05 95.1277 124.385 95.0438C125.224 94.9599 125.979 94.7922 126.734 94.6244C125.392 102.594 125.056 111.066 125.643 119.623C126.23 128.095 127.824 136.316 130.256 143.866L125.224 144.201C125.14 144.201 125.056 144.201 124.972 144.201L104.591 145.711C101.655 146.131 98.6357 145.124 96.3711 143.111Z" fill="#252734"/>
<path d="M263.029 95.6309C266.384 93.9532 268.984 95.1276 273.597 97.3925C276.617 98.8186 280.223 100.664 284.417 100.916C287.017 101.084 289.785 100.664 292.805 99.1541C300.605 95.2953 302.031 88.0811 303.121 82.7963C304.128 77.6792 304.799 74.9948 308.154 73.3171C311.508 71.6394 314.109 72.8138 318.722 75.0787C323.586 77.4275 330.129 80.6991 338.013 76.8403C345.813 72.9816 347.239 65.7673 348.329 60.4825C349.336 55.3654 350.007 52.681 353.362 51.0033C355.794 49.8289 356.801 46.8929 355.626 44.4602C354.452 42.0275 351.516 41.0208 349.084 42.1952C341.284 46.054 339.858 53.2682 338.768 58.5531C337.761 63.6702 337.09 66.3545 333.735 68.0323C330.38 69.71 327.78 68.5356 323.167 66.2706C318.302 63.9218 311.76 60.6502 303.876 64.509C296.076 68.3678 294.65 75.582 293.559 80.8669C292.553 85.984 291.882 88.6683 288.527 90.346C285.172 92.0238 282.572 90.8494 277.959 88.5844C273.094 86.2356 266.552 82.964 258.668 86.8228C256.235 87.9972 255.229 90.9333 256.403 93.366C257.661 95.8825 260.597 96.8892 263.029 95.6309Z" fill="#252734"/>
<path d="M341.955 159.301C334.49 156.617 328.787 160.979 324.593 164.25C320.651 167.354 318.806 168.529 316.541 167.69C314.277 166.935 313.606 164.838 312.432 159.972C311.257 154.855 309.58 147.893 302.031 145.208C294.566 142.524 288.863 146.97 284.669 150.158C280.727 153.261 278.882 154.352 276.617 153.597C274.353 152.842 273.682 150.745 272.507 145.879C271.333 140.762 269.656 133.8 262.107 131.115C259.507 130.193 256.739 131.535 255.816 134.135C254.894 136.652 256.236 139.504 258.836 140.427C261.101 141.182 261.772 143.279 262.946 148.144C264.12 153.261 265.797 160.224 273.346 162.908C280.811 165.593 286.514 161.147 290.708 157.959C294.65 154.855 296.495 153.681 298.76 154.52C301.025 155.275 301.696 157.372 302.87 162.237C304.044 167.354 305.722 174.317 313.27 177.001C314.612 177.504 315.87 177.756 317.128 177.84C322.748 178.176 327.193 174.736 330.632 172.136C334.574 169.032 336.42 167.858 338.684 168.696C341.284 169.619 344.052 168.277 344.975 165.677C345.813 163.076 344.471 160.224 341.955 159.301Z" fill="#252734"/>
<path d="M425.829 118.7C422.894 118.784 421.3 117.106 418.029 112.828C414.842 108.633 410.397 102.845 402.093 103.097C393.789 103.348 389.764 109.472 386.912 113.918C383.976 118.364 382.55 120.21 379.531 120.294C376.595 120.377 375.002 118.7 371.731 114.421C368.543 110.227 364.182 104.439 355.794 104.691C347.491 104.942 343.465 111.066 340.613 115.512C337.678 119.958 336.252 121.803 333.232 121.887C330.297 121.971 328.703 120.294 325.432 116.015C322.245 111.821 317.799 106.033 309.496 106.284C301.192 106.536 297.166 112.66 294.315 117.106C291.379 121.552 289.953 123.397 287.018 123.481C284.082 123.565 282.488 121.887 279.217 117.609C276.03 113.415 271.585 107.627 263.281 107.878C260.597 107.962 258.417 110.227 258.584 112.995C258.668 115.68 260.933 117.861 263.701 117.693C266.636 117.609 268.23 119.287 271.501 123.565C274.52 127.508 278.546 132.793 285.843 133.296C286.347 133.296 286.85 133.296 287.437 133.296C295.741 133.044 299.767 126.921 302.618 122.475C305.554 118.029 306.98 116.183 309.999 116.099C312.935 116.015 314.528 117.693 317.799 121.971C320.987 126.166 325.432 131.954 333.736 131.702C342.039 131.45 346.065 125.327 348.917 120.881C351.852 116.435 353.278 114.589 356.298 114.505C359.233 114.421 360.827 116.099 364.098 120.377C367.285 124.572 371.731 130.36 380.034 130.108C388.338 129.857 392.364 123.733 395.215 119.287C398.151 114.841 399.577 112.995 402.596 112.912C405.532 112.828 407.125 114.505 410.397 118.784C413.584 122.978 418.029 128.766 426.333 128.514C429.017 128.431 431.197 126.166 431.03 123.397C430.778 120.797 428.513 118.616 425.829 118.7Z" fill="#252734"/>
<path d="M205.491 66.5219C204.82 66.438 204.065 66.438 203.394 66.5219C202.472 66.6058 201.465 66.7736 200.626 67.0252C198.949 67.5285 197.355 68.3674 195.846 69.4579C191.065 73.065 187.29 79.8598 185.11 88.6679L184.942 89.5907L184.606 91.2684C184.439 92.1911 184.271 93.1978 184.103 94.1205C183.852 95.8821 183.6 97.7276 183.432 99.657C183.264 101.67 183.097 103.6 183.097 105.697C183.097 106.703 183.097 107.71 183.097 108.801C183.097 110.982 183.181 113.247 183.348 115.512C183.432 116.434 183.516 117.273 183.6 118.196C183.684 119.119 183.768 119.958 183.935 120.88C184.019 121.635 184.103 122.306 184.271 123.061C184.439 124.152 184.606 125.242 184.774 126.249C184.942 127.004 185.026 127.759 185.194 128.514V128.598C185.361 129.353 185.529 130.024 185.697 130.695C185.865 131.366 186.032 131.953 186.2 132.624C186.452 133.547 186.703 134.386 186.955 135.225C187.039 135.477 187.039 135.644 187.123 135.896L187.71 137.909L187.878 138.496C191.4 148.563 196.517 156.029 202.472 159.3C204.065 160.223 205.827 160.81 207.504 161.062C207.84 161.146 208.259 161.146 208.594 161.146C209.182 161.146 209.769 161.146 210.356 161.146C211.027 161.062 211.782 160.978 212.369 160.81C222.434 158.461 229.395 144.368 230.569 125.242C230.821 121.048 230.821 116.686 230.486 112.072C228.64 86.4869 218.072 67.5285 205.491 66.5219ZM195.594 130.276C195.342 129.353 195.175 128.514 194.923 127.591C194.755 126.92 194.671 126.333 194.504 125.662C194.168 124.068 193.916 122.474 193.665 120.88C193.665 120.796 193.665 120.796 193.665 120.713C193.497 119.622 193.413 118.448 193.245 117.273C193.162 116.434 193.078 115.595 192.994 114.757C192.658 109.975 192.658 105.277 193.078 100.831C193.162 100.412 193.162 99.9087 193.245 99.4893C193.245 99.2376 193.329 98.9021 193.329 98.6504C193.413 98.1471 193.413 97.7276 193.497 97.2243C193.581 96.8049 193.581 96.4693 193.665 96.0499C194.504 95.8821 195.426 95.7144 196.265 95.6305C196.768 95.6305 197.271 95.5466 197.691 95.5466C199.368 95.5466 201.046 95.7983 202.639 96.3016C204.485 96.8888 206.162 97.7276 207.756 98.9021C208.091 99.1537 208.511 99.4893 208.846 99.7409C212.369 102.761 214.466 106.955 214.801 111.569C215.137 116.183 213.627 120.713 210.607 124.152C210.272 124.487 210.02 124.823 209.685 125.159C208.343 126.501 206.749 127.675 204.988 128.43C203.478 129.185 201.885 129.688 200.207 129.94C199.704 130.024 199.284 130.108 198.781 130.108C197.775 130.443 196.684 130.359 195.594 130.276Z" fill="#252734"/>
<path d="M74.4805 294.357V225.738H88.4875V281.691H118.514V294.357H74.4805Z" fill="white"/>
<path d="M173.285 294.357L169.426 285.382H141.329L137.47 294.357H122.373L153.071 224.48H157.768L188.382 294.357H173.285ZM164.562 273.889L155.419 250.736L146.277 273.889H164.562Z" fill="white"/>
<path d="M205.408 294.357V238.405H183.433V225.738H241.474V238.405H219.415V294.357H205.408Z" fill="white"/>
<path d="M250.7 294.357V225.738H296.831V238.405H264.707V252.33H288.276V264.326H264.707V281.691H298.089V294.357H250.7Z" fill="white"/>
<path d="M305.554 280.432L315.199 273.134C320.064 279.761 325.684 283.116 332.058 283.116C335.077 283.116 337.51 282.445 339.271 281.103C341.033 279.761 341.871 277.915 341.871 275.567C341.871 273.637 341.284 272.127 340.11 271.037C338.936 269.946 336.587 268.604 333.148 267.01L325.767 263.655C314.696 258.706 309.16 252.162 309.16 243.858C309.16 238.069 311.341 233.372 315.619 229.765C319.896 226.158 325.348 224.396 331.974 224.396C337.09 224.396 341.62 225.57 345.478 227.919C349.336 230.268 352.439 233.456 354.62 237.398L345.058 244.78C341.536 239.496 337.174 236.895 331.974 236.895C329.458 236.895 327.445 237.482 325.851 238.657C324.258 239.831 323.419 241.425 323.419 243.522C323.419 245.284 324.006 246.626 325.096 247.716C326.271 248.807 328.368 249.981 331.387 251.407L339.187 254.847C345.058 257.447 349.42 260.383 352.104 263.403C354.788 266.507 356.13 270.282 356.13 274.896C356.13 281.103 353.865 286.052 349.336 289.827C344.807 293.602 339.103 295.532 332.058 295.532C326.271 295.532 321.154 294.189 316.541 291.505C311.928 288.905 308.238 285.214 305.554 280.432Z" fill="white"/>
<path d="M383.976 294.357V238.405H362.001V225.738H420.042V238.405H397.983V294.357H383.976Z" fill="white"/>
<path d="M118.85 314.154H132.857V384.032H128.16L88.4036 341.585V382.773H74.4805V312.896H79.0935L118.934 355.091V314.154H118.85Z" fill="white"/>
<path d="M148.625 382.773V314.154H194.756V326.821H162.632V340.746H186.201V352.742H162.632V370.107H196.014V382.773H148.625Z" fill="white"/>
<path d="M289.701 314.154H305.302L277.875 384.032H273.262L254.139 340.998L234.932 384.032H230.318L202.892 314.154H218.492L233.757 354.755L251.706 312.98H256.403L274.352 354.588L289.701 314.154Z" fill="white"/>
<path d="M308.993 368.849L318.639 361.551C323.503 368.178 329.123 371.533 335.497 371.533C338.517 371.533 340.949 370.862 342.711 369.52C344.472 368.178 345.311 366.332 345.311 363.983C345.311 362.054 344.724 360.544 343.549 359.453C342.375 358.363 340.027 357.021 336.588 355.427L329.207 352.071C318.135 347.122 312.6 340.579 312.6 332.274C312.6 326.486 314.78 321.788 319.058 318.181C323.336 314.574 328.787 312.812 335.414 312.812C340.53 312.812 345.059 313.987 348.917 316.336C352.776 318.685 355.879 321.872 358.06 325.815L348.498 333.197C344.975 327.912 340.614 325.312 335.414 325.312C332.897 325.312 330.884 325.899 329.291 327.073C327.697 328.248 326.858 329.841 326.858 331.939C326.858 333.7 327.446 335.042 328.536 336.133C329.71 337.223 331.807 338.398 334.826 339.824L342.627 343.263C348.498 345.864 352.859 348.8 355.543 351.82C358.227 354.923 359.569 358.698 359.569 363.312C359.569 369.52 357.305 374.469 352.776 378.244C348.246 382.019 342.543 383.948 335.497 383.948C329.71 383.948 324.594 382.606 319.981 379.922C315.368 377.237 311.677 373.546 308.993 368.849Z" fill="white"/>
</svg>
