<svg width="74" height="58" viewBox="0 0 74 58" fill="none" xmlns="http://www.w3.org/2000/svg">
<path d="M71.1697 21.2671L69.5568 19.5594L63.8962 4.30085C62.9316 1.7235 60.465 0.015812 57.7137 0H17.2825C14.5312 0 12.0645 1.7235 11.1 4.30085L5.51838 19.3697L3.19402 21.5201C1.17009 23.2436 0 25.7735 0 28.4299V50.6615C0.015812 54.2983 2.97265 57.2393 6.6094 57.2393H10.7838C14.4205 57.2393 17.3774 54.2983 17.3932 50.6615V47.4359H56.6068V50.6615C56.6227 54.2983 59.5795 57.2393 63.2162 57.2393H67.3906C71.0274 57.2393 73.9842 54.2983 74 50.6615V27.8449C73.9842 25.3624 72.9722 22.9906 71.1697 21.2671ZM14.0726 5.37607C14.5786 4.03205 15.8594 3.16239 17.2825 3.16239H57.7295C59.1526 3.16239 60.4333 4.04786 60.9393 5.37607L65.8727 18.6581H62.1885C61.3188 12.7286 55.8004 8.63333 49.8709 9.5188C45.1432 10.2145 41.4274 13.9303 40.7316 18.6581H9.13932L14.0726 5.37607ZM58.9628 18.6581H43.9256C44.7953 14.4996 48.8748 11.8432 53.0333 12.7128C56.006 13.3453 58.3303 15.6697 58.9628 18.6581ZM14.2308 50.6615C14.215 52.559 12.6812 54.0769 10.7838 54.0769H6.6094C4.71197 54.0769 3.17821 52.559 3.16239 50.6615V46.5188C4.11111 47.1355 5.36026 47.4359 6.6094 47.4359H14.2308V50.6615ZM70.8376 50.6615C70.8218 52.559 69.288 54.0769 67.3906 54.0769H63.2162C61.3188 54.0769 59.785 52.5432 59.7692 50.6615V47.4359H67.3906C68.6397 47.4359 69.8889 47.1355 70.8376 46.5188V50.6615ZM67.3906 44.2735H6.6094C4.72778 44.2893 3.17821 42.7872 3.16239 40.8897V28.4299C3.16239 26.6906 3.93718 25.0303 5.26538 23.9077C5.2812 23.8919 5.31282 23.8603 5.32863 23.8444L7.47906 21.8205H67.359L68.8769 23.4491C68.8927 23.4808 68.9402 23.4966 68.956 23.5282C70.1419 24.6509 70.8218 26.2162 70.8218 27.8449V40.8897H70.8376C70.8218 42.7714 69.2722 44.2893 67.3906 44.2735Z" fill="#50AF00"/>
<path d="M20.8708 28.1453H9.01186C8.1422 28.1453 7.43066 28.8568 7.43066 29.7265V37.9487C7.43066 38.8183 8.1422 39.5299 9.01186 39.5299H20.8708C21.7405 39.5299 22.452 38.8183 22.452 37.9487V29.7265C22.452 28.8568 21.7405 28.1453 20.8708 28.1453ZM19.2896 36.3675H10.5931V31.3077H19.2896V36.3675Z" fill="#50AF00"/>
<path d="M64.988 28.1453H53.129C52.2594 28.1453 51.5479 28.8568 51.5479 29.7265V37.9487C51.5479 38.8183 52.2594 39.5299 53.129 39.5299H64.988C65.8577 39.5299 66.5692 38.8183 66.5692 37.9487V29.7265C66.5692 28.8568 65.8577 28.1453 64.988 28.1453ZM63.4068 36.3675H54.7102V31.3077H63.4068V36.3675Z" fill="#50AF00"/>
<path d="M44.6368 34.7864H29.3624C28.4928 34.7864 27.7812 35.4979 27.7812 36.3676C27.7812 37.2372 28.4928 37.9488 29.3624 37.9488H44.6368C45.5065 37.9488 46.218 37.2372 46.218 36.3676C46.218 35.4979 45.5065 34.7864 44.6368 34.7864Z" fill="#50AF00"/>
<path d="M44.6368 29.8846H29.3624C28.4928 29.8846 27.7812 30.5962 27.7812 31.4658C27.7812 32.3355 28.4928 33.047 29.3624 33.047H44.6368C45.5065 33.047 46.218 32.3355 46.218 31.4658C46.218 30.5962 45.5065 29.8846 44.6368 29.8846Z" fill="#50AF00"/>
</svg>
