<svg width="45" height="64" viewBox="0 0 45 64" fill="none" xmlns="http://www.w3.org/2000/svg">
<path d="M28.3796 7.00606C26.9453 4.84801 25.6798 2.86261 24.4987 1.04985C24.3299 0.790887 24.0768 0.531922 23.8237 0.359278C22.8113 -0.331297 21.4614 0.0139904 20.7865 1.04985C19.6897 2.86261 18.4242 4.76169 16.9056 7.00606C10.2405 17.0194 0.285156 32.1257 0.285156 40.7579C0.285156 47.0594 2.81618 52.7566 6.86583 56.9001C10.9155 60.9572 16.4837 63.5469 22.6426 63.5469C28.8014 63.5469 34.3697 60.9572 38.4193 56.8138C42.469 52.6703 45 46.9731 45 40.6716C45 32.0394 35.0446 17.0194 28.3796 7.00606ZM35.3821 53.7062C32.0918 57.0727 27.6203 59.0581 22.6426 59.0581C17.6649 59.0581 13.1934 56.9864 9.90307 53.7062C6.61273 50.3396 4.67227 45.7646 4.67227 40.6716C4.67227 33.4205 14.2058 19.0048 20.5334 9.42307C21.2927 8.30089 21.9676 7.1787 22.6426 6.22916C23.3175 7.1787 23.9925 8.30089 24.7518 9.42307C31.0793 19.0911 40.6129 33.4205 40.6129 40.6716C40.6129 45.7646 38.5881 50.3396 35.3821 53.7062Z" fill="#50AF00"/>
<path d="M35.7192 39.1177C34.538 39.0314 33.5256 39.9809 33.4413 41.1894C33.3569 43.0885 32.7663 44.9013 31.8383 46.4551C30.9102 48.0088 29.5603 49.39 27.9574 50.2532C26.9449 50.8575 26.5231 52.2386 27.1137 53.2745C27.7886 54.483 29.1385 54.8283 30.1509 54.224C32.4288 52.9292 34.2849 51.0301 35.5504 48.8721C36.9003 46.714 37.6596 44.1244 37.744 41.4484C37.8284 40.2399 36.9003 39.204 35.7192 39.1177Z" fill="#50AF00"/>
</svg>
