<svg width="81" height="81" viewBox="0 0 81 81" fill="none" xmlns="http://www.w3.org/2000/svg">
<path d="M80.3691 37.3283C79.3165 31.7101 76.9474 26.8524 73.518 23.2803C71.9765 21.6749 70.1585 20.1879 68.1139 18.8606C65.7746 17.3419 63.0733 15.9736 59.6127 14.5542C58.0964 13.9322 56.579 13.3584 55.1649 12.831C52.8723 11.9761 50.4575 11.1152 47.9869 10.273C47.1371 9.98317 46.2769 9.70837 45.445 9.44266C44.1133 9.01723 42.7362 8.57724 41.4098 8.07713C40.5918 7.76867 40.247 7.53474 40.1069 7.41042C40.1141 7.40165 40.1219 7.39241 40.1305 7.3827C40.7644 6.66009 44.4526 3.76494 46.6287 2.10959C47.0299 1.80442 47.1916 1.27737 47.0305 0.799806C46.8694 0.32224 46.4216 0.000626316 45.9177 0.000626316L21.7964 0C21.5895 0 21.3863 0.0546461 21.2073 0.158458C18.5013 1.72754 16.2558 4.19663 15.0466 6.93238C13.6458 10.1015 13.6349 13.4187 15.0149 16.5249C16.9048 20.7787 20.8971 23.1383 24.4195 25.2202C25.3387 25.7634 26.2067 26.2765 27.0274 26.8121C27.512 27.1284 28.0096 27.4389 28.4909 27.7394C30.2986 28.868 32.0061 29.934 33.371 31.4353C34.7772 32.9818 35.2019 34.9585 34.5989 37.1515C33.1978 42.2472 29.0335 46.8251 25.3593 50.8641C24.6795 51.6114 24.0375 52.3173 23.4163 53.0211C21.6772 54.992 19.1272 57.8578 16.4276 60.8919C7.5231 70.8995 1.64419 77.5251 1.08285 78.4046C0.852053 78.7661 0.836865 79.2248 1.04308 79.6009C1.24914 79.977 1.64403 80.2107 2.0729 80.2107L71.9566 80.2112H71.9568C72.4658 80.2112 72.9169 79.8833 73.074 79.399C74.8995 73.7685 76.5519 68.089 78.5986 60.4087C81.0398 51.2464 81.6025 43.9124 80.3691 37.3283ZM76.3289 59.8041C74.3921 67.0725 72.8116 72.5348 71.1015 77.8625L66.8833 77.8622C67.085 77.244 67.2862 76.6248 67.4879 76.008C69.301 70.4635 71.0699 64.9026 72.5773 59.2716C72.8177 58.3728 73.0661 57.4437 73.3085 56.5087C73.4714 55.881 73.0943 55.24 72.4665 55.0773C71.8387 54.9148 71.1978 55.2917 71.035 55.9194C70.795 56.8454 70.5476 57.7701 70.3083 58.6644C68.8304 64.1877 67.0519 69.7854 65.2555 75.278C64.9741 76.1381 64.6926 76.9991 64.4117 77.8622H39.6757C39.608 77.5713 39.4303 77.3059 39.1575 77.1343C38.6089 76.7889 37.8836 76.9539 37.5382 77.5027C37.4607 77.6258 37.3859 77.7441 37.3113 77.8622H12.8484C16.6803 73.0786 27.2375 60.3139 32.3014 54.5752C35.0008 51.5161 37.213 48.5115 38.8768 45.645C41.6323 40.8977 42.7235 36.7568 42.1205 33.3377C40.8251 25.9927 35.0545 23.0404 29.9632 20.4359C29.4247 20.1605 28.868 19.8755 28.3337 19.5943L28.2384 19.544C27.6648 19.2414 26.9544 19.4611 26.6517 20.0346C26.3491 20.6082 26.5687 21.3186 27.1423 21.6212L27.2388 21.6721C27.7861 21.9602 28.3491 22.2483 28.8935 22.5267C33.9442 25.1106 38.7151 27.5513 39.8075 33.7456C40.3117 36.6041 39.3151 40.2109 36.8455 44.4659C35.2814 47.1607 33.1011 50.1191 30.5404 53.0211C25.0153 59.2824 12.3619 74.6036 9.86318 77.8621H4.56298C7.36292 74.6126 13.4479 67.774 18.1824 62.453C20.8837 59.417 23.4351 56.5496 25.1775 54.575C25.7869 53.8845 26.4233 53.1849 27.0969 52.4444C30.9483 48.2105 35.3135 43.4117 36.8635 37.7741C37.6788 34.8086 37.0556 31.9963 35.1087 29.8551C32.5372 27.027 28.867 25.1206 25.6146 23.1983C22.2379 21.2025 18.7464 19.1388 17.1613 15.5713C14.809 10.2766 17.8449 4.9681 22.1197 2.34869H24.2553C21.0365 4.70896 19.1558 7.09381 18.5411 9.58185C18.0427 11.5989 18.4138 13.6147 19.6442 15.5734C20.3212 16.6511 21.195 17.6264 22.3151 18.5549C22.8143 18.9688 23.5546 18.8996 23.9688 18.4002C24.3826 17.9009 24.3134 17.1606 23.8141 16.7466C22.8888 15.9797 22.1755 15.1872 21.6331 14.324C20.7424 12.906 20.4769 11.5391 20.8212 10.1452C21.4442 7.62383 24.0417 5.00145 28.5427 2.34869H36.4836C34.4002 3.98948 32.083 6.22793 32.7109 8.98028C33.3339 11.7112 36.4965 13.2359 38.8453 14.2213C41.9077 15.506 45.0827 16.5261 48.1532 17.5127C53.1775 19.1271 58.3729 20.7964 63.0286 23.6408C68.342 26.8868 71.7216 31.651 72.8023 37.418C73.5035 41.1596 73.3388 45.3462 72.2839 50.5944L72.2671 50.6784C72.1397 51.3144 72.5518 51.9332 73.1878 52.0606C73.2658 52.0763 73.3433 52.0837 73.4197 52.0837C73.9679 52.0837 74.4581 51.6979 74.5699 51.1398L74.5865 51.0565C75.7026 45.5039 75.8691 41.0326 75.1109 36.9852C73.9042 30.5462 70.1496 25.2387 64.2531 21.6364C59.3581 18.6459 54.0271 16.9329 48.8717 15.2765C45.8486 14.3052 42.7227 13.3008 39.7541 12.0553C38.848 11.675 38.0768 11.2862 37.3965 10.8669C36.541 10.3395 35.2481 9.54271 35.0005 8.45746C34.5967 6.68671 37.2443 4.69988 38.9964 3.38508C39.5 3.0071 39.9525 2.66717 40.3231 2.349C40.3231 2.349 42.4822 2.349 42.4819 2.34931C40.933 3.56844 37.1338 5.43909 37.7573 7.93182C38.0701 9.18226 39.4308 9.84068 40.5812 10.2746C42.7703 11.1 45.0161 11.7412 47.2289 12.4958C49.6784 13.3311 52.0723 14.1842 54.3442 15.0316C55.7397 15.5522 57.2362 16.1179 58.7216 16.7272C62.0433 18.0896 64.6214 19.3934 66.8349 20.8305C68.7286 22.0599 70.407 23.4314 71.8237 24.907C74.9357 28.1484 77.0923 32.5932 78.0604 37.7608C79.2271 43.9881 78.6768 50.9925 76.3289 59.8041Z" fill="#50AF00"/>
<path d="M54.765 31.223C54.9938 31.5476 55.3569 31.7209 55.7261 31.7209C55.9597 31.7209 56.1959 31.6514 56.4014 31.5064C56.9316 31.1328 57.0585 30.4002 56.685 29.87C56.0416 28.957 55.3054 28.1017 54.4971 27.3282C54.0285 26.8796 53.2851 26.8961 52.8368 27.3646C52.3883 27.8332 52.4045 28.5765 52.8731 29.0249C53.5722 29.6941 54.2089 30.4337 54.765 31.223Z" fill="#50AF00"/>
<path d="M40.7847 19.1837L40.7107 19.1452C39.8063 18.6765 38.903 18.2084 37.9965 17.7446C37.4197 17.4497 36.7116 17.6779 36.4162 18.2553C36.1209 18.8328 36.3495 19.5402 36.9269 19.8357C37.8296 20.2974 38.7293 20.7637 39.63 21.2305L39.704 21.2689C39.8769 21.3584 40.0615 21.4009 40.2434 21.4009C40.6681 21.4009 41.0782 21.1697 41.287 20.7667C41.5855 20.1908 41.3606 19.4821 40.7847 19.1837Z" fill="#50AF00"/>
<path d="M28.9787 9.01649C29.2518 8.15374 29.7176 7.42001 30.2569 7.00351C30.7701 6.60705 30.8647 5.86957 30.4684 5.3563C30.0716 4.84288 29.3341 4.74846 28.821 5.14476C27.8989 5.85704 27.1597 6.98049 26.7396 8.30782C26.5439 8.92615 26.8865 9.58613 27.5048 9.78185C27.6227 9.81912 27.7421 9.83697 27.8595 9.83697C28.3577 9.83681 28.8203 9.51708 28.9787 9.01649Z" fill="#50AF00"/>
<path d="M32.3381 15.0164C31.2811 14.4975 30.5494 14.0349 29.9656 13.517C29.4806 13.0864 28.7384 13.1308 28.3078 13.6158C27.8772 14.1008 27.9215 14.843 28.4066 15.2736C29.1549 15.9378 30.0482 16.5087 31.3031 17.1247C31.4696 17.2064 31.6461 17.2451 31.8199 17.2451C32.2536 17.2451 32.6709 17.0037 32.8749 16.5881C33.1606 16.0059 32.9203 15.3023 32.3381 15.0164Z" fill="#50AF00"/>
<path d="M44.0379 69.0946C43.4815 68.7617 42.7603 68.9424 42.4271 69.499C41.8801 70.4127 41.3391 71.3116 40.8134 72.18C40.4776 72.7347 40.6551 73.4569 41.2101 73.7926C41.4003 73.9077 41.61 73.9625 41.8171 73.9625C42.2143 73.9625 42.6022 73.7608 42.8228 73.396C43.3502 72.5246 43.8933 71.6224 44.4423 70.7055C44.7754 70.149 44.5944 69.4278 44.0379 69.0946Z" fill="#50AF00"/>
<path d="M57.9741 35.0974C57.3373 35.2205 56.9208 35.8365 57.0441 36.4733C57.1865 37.2113 57.2589 37.9558 57.2589 38.6861C57.2589 38.7421 57.2584 38.7982 57.2575 38.8568C57.2551 39.0096 57.2506 39.1616 57.2439 39.3132C57.2146 39.9611 57.7164 40.5099 58.3642 40.539C58.3822 40.5398 58.4 40.5403 58.4179 40.5403C59.042 40.5403 59.5619 40.0486 59.59 39.4187C59.598 39.2438 59.6032 39.0681 59.6059 38.8942C59.6071 38.8248 59.6076 38.7553 59.6076 38.6859C59.6076 37.8064 59.5208 36.9119 59.35 36.0275C59.2268 35.3907 58.6097 34.9745 57.9741 35.0974Z" fill="#50AF00"/>
<path d="M48.7979 60.9845C48.237 60.6599 47.5183 60.851 47.1931 61.4122C46.687 62.2862 46.1587 63.1925 45.6176 64.1149C45.2894 64.6743 45.4772 65.3938 46.0366 65.722C46.2233 65.8314 46.4278 65.8834 46.6296 65.8834C47.0326 65.8834 47.425 65.6758 47.6437 65.303C48.1869 64.3768 48.7172 63.4666 49.2257 62.5892C49.5507 62.0281 49.3591 61.3097 48.7979 60.9845Z" fill="#50AF00"/>
<path d="M57.5145 44.361C56.9065 44.1346 56.2304 44.444 56.0041 45.052C55.6767 45.9318 55.2851 46.8376 54.8069 47.8213C54.5234 48.4045 54.7664 49.1073 55.3496 49.3908C55.5151 49.4713 55.69 49.5092 55.8621 49.5092C56.2976 49.5092 56.7161 49.266 56.9192 48.848C57.4306 47.7961 57.8511 46.8223 58.2053 45.8712C58.4316 45.2634 58.1223 44.5873 57.5145 44.361Z" fill="#50AF00"/>
<path d="M53.4428 52.8102C52.8814 52.4853 52.163 52.6768 51.838 53.2381C51.3512 54.0793 50.7992 55.0325 50.2761 55.9809C49.963 56.5488 50.1693 57.2631 50.7372 57.5765C50.917 57.6756 51.1116 57.7227 51.3033 57.7227C51.7173 57.7227 52.1186 57.5033 52.3326 57.1153C52.844 56.1884 53.3894 55.2461 53.8705 54.4148C54.1958 53.8535 54.0039 53.1352 53.4428 52.8102Z" fill="#50AF00"/>
<path d="M49.0707 23.7064C48.5668 23.4186 48.057 23.1172 47.5643 22.8258C47.168 22.5916 46.7721 22.3577 46.3743 22.1273C45.8128 21.8024 45.0944 21.9939 44.7697 22.5553C44.4446 23.1164 44.6361 23.835 45.1974 24.16C45.589 24.3868 45.9788 24.6171 46.3689 24.8479C46.8691 25.1435 47.3864 25.4493 47.9055 25.7459C48.0893 25.8508 48.2894 25.9007 48.487 25.9007C48.8947 25.9007 49.291 25.6881 49.5077 25.3087C49.8297 24.7455 49.6339 24.0282 49.0707 23.7064Z" fill="#50AF00"/>
</svg>
