<svg width="77" height="77" viewBox="0 0 77 77" fill="none" xmlns="http://www.w3.org/2000/svg">
<path d="M38.1027 63.6163C36.6664 63.6163 35.502 64.7808 35.502 66.2171V73.6115C35.502 75.0478 36.6664 76.2122 38.1027 76.2122C39.5393 76.2122 40.7034 75.0478 40.7034 73.6115V66.2171C40.7034 64.7804 39.539 63.6163 38.1027 63.6163Z" fill="#50AF00"/>
<path d="M38.1027 12.5965C39.5393 12.5965 40.7034 11.4321 40.7034 9.99582V2.60073C40.7034 1.16443 39.5393 0 38.1027 0C36.6664 0 35.502 1.16443 35.502 2.60073V9.99582C35.502 11.4321 36.6664 12.5965 38.1027 12.5965Z" fill="#50AF00"/>
<path d="M16.3913 56.1432L11.1607 61.371C10.1447 62.3863 10.1443 64.0331 11.1597 65.0488C11.6677 65.5568 12.3335 65.811 12.9993 65.811C13.6647 65.811 14.3298 65.5571 14.8378 65.0498L20.0684 59.822C21.0844 58.8067 21.0847 57.1599 20.0694 56.1442C19.0534 55.1282 17.407 55.1282 16.3913 56.1432Z" fill="#50AF00"/>
<path d="M57.9814 20.8281C58.6468 20.8281 59.3123 20.5742 59.8203 20.0666L65.0502 14.8387C66.0658 13.8231 66.0662 12.1766 65.0508 11.1606C64.0352 10.1446 62.3887 10.1443 61.3727 11.1603L56.1428 16.3881C55.1272 17.4034 55.1268 19.0502 56.1421 20.0659C56.6498 20.5742 57.3156 20.8281 57.9814 20.8281Z" fill="#50AF00"/>
<path d="M12.5959 38.1066C12.5959 36.6703 11.4314 35.5059 9.99512 35.5059H2.60073C1.16443 35.5059 0 36.6703 0 38.1066C0 39.5429 1.16443 40.7073 2.60073 40.7073H9.99512C11.4314 40.7073 12.5959 39.5429 12.5959 38.1066Z" fill="#50AF00"/>
<path d="M73.6138 35.5059H66.216C64.7793 35.5059 63.6152 36.6703 63.6152 38.1066C63.6152 39.5429 64.7793 40.7073 66.216 40.7073H73.6138C75.0505 40.7073 76.2146 39.5429 76.2146 38.1066C76.2146 36.6706 75.0505 35.5059 73.6138 35.5059Z" fill="#50AF00"/>
<path d="M16.3909 20.0665C16.8986 20.5742 17.5644 20.828 18.2298 20.828C18.8953 20.828 19.5611 20.5742 20.0687 20.0665C21.0844 19.0508 21.0844 17.404 20.0687 16.3884L14.8409 11.1606C13.8252 10.1449 12.1784 10.1449 11.1631 11.1606C10.1474 12.1762 10.1474 13.823 11.1631 14.8383L16.3909 20.0665Z" fill="#50AF00"/>
<path d="M59.824 56.1439C58.8083 55.1282 57.1615 55.1279 56.1458 56.1435C55.1298 57.1592 55.1298 58.806 56.1455 59.8213L61.3726 65.0491C61.8806 65.5571 62.5461 65.811 63.2119 65.811C63.8773 65.811 64.5431 65.5571 65.0507 65.0495C66.0668 64.0338 66.0668 62.387 65.0511 61.3717L59.824 56.1439Z" fill="#50AF00"/>
<path d="M38.1059 17.8635C26.9446 17.8635 17.8643 26.9446 17.8643 38.1066C17.8643 49.2682 26.9446 58.3489 38.1059 58.3489C49.2682 58.3489 58.3493 49.2682 58.3493 38.1066C58.3493 26.9446 49.2679 17.8635 38.1059 17.8635ZM38.1059 53.1475C29.8127 53.1475 23.0657 46.4001 23.0657 38.1066C23.0657 29.8127 29.8127 23.065 38.1059 23.065C46.4002 23.065 53.1478 29.8127 53.1478 38.1066C53.1478 46.4001 46.4002 53.1475 38.1059 53.1475Z" fill="#50AF00"/>
</svg>
