<svg width="68" height="73" viewBox="0 0 68 73" fill="none" xmlns="http://www.w3.org/2000/svg">
<path d="M46.3045 51.1342C42.1148 53.5201 37.4883 54.454 32.4666 53.7942C32.0507 53.7397 31.8386 53.7798 31.7041 53.8303C31.5622 53.8837 31.3815 53.9956 31.0971 54.289L31.0967 54.2895C29.7244 55.7042 28.3104 57.0948 26.9093 58.4727C26.2734 59.0981 25.6402 59.7209 25.0148 60.3421L25.0142 60.3426C23.3782 61.9656 21.367 62.8767 19.0365 62.9609L19.036 62.9609C15.5157 63.0869 12.2692 61.0253 10.8094 57.833C9.34434 54.6294 9.91813 50.8823 12.4337 48.318L12.4339 48.3179C15.1223 45.5782 17.8487 42.8687 20.629 40.2137M46.3045 51.1342L19.5368 28.8707C26.2033 22.508 37.18 22.525 43.8249 28.8995C43.8576 28.9311 43.8885 28.9622 43.9188 28.9937L40.6457 32.0766C40.6346 32.0866 40.6251 32.0955 40.6175 32.1027C40.6123 32.1076 40.6076 32.1121 40.6036 32.1159C40.603 32.1166 40.6023 32.1172 40.6017 32.1178C40.5929 32.1259 40.5843 32.1341 40.5757 32.1424C40.2028 32.5055 39.8323 32.8762 39.4685 33.2402C39.3339 33.3749 39.2002 33.5086 39.0677 33.6407L39.0667 33.6417C38.7611 33.947 38.5167 34.1547 38.3091 34.2975C38.2566 34.3336 38.207 34.3737 38.1606 34.4174L37.1247 35.3931C36.9708 35.2678 36.8007 35.1341 36.6171 34.9971C35.8114 34.3953 34.6293 33.6384 33.3775 33.3385L33.3761 33.3382C32.1774 33.0524 30.7755 33.0612 29.5185 33.2912C28.2958 33.515 26.9876 33.9895 26.1403 34.83L27.0207 35.7174L26.1418 34.8285C25.4616 35.5011 23.7889 37.0682 22.5249 38.2424C22.4455 38.3162 22.3764 38.3997 22.319 38.4905M46.3045 51.1342C45.7347 51.9958 45.0846 52.7865 44.351 53.5224L44.3509 53.5226C43.3092 54.5679 42.2743 55.6147 41.2414 56.6594C37.8226 60.1174 34.4258 63.5532 30.8802 66.8405L30.88 66.8406C25.5247 71.8069 19.2355 73.0104 12.4321 70.4287L11.9886 71.5974L12.4321 70.4287C9.03228 69.1386 6.4432 67.2283 4.61662 64.7849C2.78861 62.3395 1.67604 59.2953 1.33261 55.6654L0.0886258 55.7831L1.33261 55.6654C0.857272 50.6412 2.44405 46.2641 5.83482 42.4444C5.94344 42.3227 6.06002 42.2006 6.18983 42.0673C6.25893 41.9963 6.31838 41.9185 6.36778 41.8357L8.82625 39.4589C8.89352 39.3939 8.95328 39.3215 9.0044 39.2431C9.01475 39.2273 9.0608 39.1656 9.19502 39.055L46.3045 51.1342ZM20.629 40.2137C20.6296 40.2131 20.6303 40.2124 20.631 40.2117L21.4943 41.1157L20.6273 40.2153C20.6278 40.2148 20.6284 40.2143 20.629 40.2137ZM20.629 40.2137C20.7421 40.1047 21.1914 39.6625 21.6182 39.2287C21.833 39.0105 22.0338 38.8027 22.1805 38.6443C22.2437 38.576 22.2894 38.525 22.319 38.4905M22.319 38.4905C22.2561 38.59 22.2074 38.6982 22.1745 38.8123C22.2158 38.6688 22.274 38.5695 22.2877 38.546L22.2882 38.5451C22.31 38.5079 22.3277 38.4828 22.3336 38.4747C22.3399 38.4658 22.3437 38.4609 22.3437 38.4609C22.3437 38.4609 22.3406 38.4649 22.3335 38.4734C22.3292 38.4786 22.3243 38.4843 22.319 38.4905ZM12.0898 34.5681L13.8229 32.8349L12.0898 34.5681ZM12.0898 34.5681C12.0898 34.5681 8.96992 37.6259 8.40245 38.0884C8.20937 38.2472 8.06102 38.4014 7.95742 38.5602L12.0898 34.5681ZM12.0898 34.5681L12.9648 35.4609L12.9738 35.4519L14.7068 33.7187C14.7514 33.6741 14.7925 33.6263 14.8298 33.5755C14.8935 33.4889 14.9173 33.4606 14.9277 33.4495L14.931 33.446M12.0898 34.5681L14.931 33.446M14.931 33.446C16.3967 31.8796 17.9527 30.3837 19.5365 28.871L14.931 33.446ZM40.5873 32.132C40.5852 32.1341 40.5861 32.1332 40.5875 32.1319L40.5873 32.132Z" stroke="#50AF00" stroke-width="2.5" stroke-linejoin="round"/>
<path d="M54.2707 2.41654L54.2708 2.41656C60.7473 4.71297 64.5629 9.42829 65.6208 16.1774C66.5096 21.8538 64.8172 26.824 60.7267 31.0195L60.7262 31.02C60.2933 31.4646 59.8551 31.8971 59.4071 32.3391C59.2445 32.4996 59.0806 32.6613 58.9152 32.8254L58.9125 32.828C58.8416 32.8988 58.7757 32.9652 58.7137 33.0275C58.3883 33.355 58.1721 33.5724 57.9156 33.7453C57.8492 33.79 57.7873 33.841 57.7308 33.8975L53.9747 37.6487C53.9141 37.7092 53.8599 37.7757 53.8129 37.8473C53.654 38.0895 53.4564 38.2666 53.1341 38.5555C53.0654 38.6171 52.991 38.6838 52.9101 38.7572C52.8312 38.8066 52.7574 38.865 52.6904 38.9318L51.7914 39.8282C51.7148 39.9046 51.6484 39.9905 51.594 40.0839C51.0397 40.6197 50.5104 41.1507 49.9912 41.6716C48.7364 42.9306 47.5402 44.1308 46.19 45.1968C39.4197 50.5397 29.5746 50.0221 23.2835 44.0691C23.2497 44.037 23.2178 44.0056 23.1865 43.9736L26.5794 40.7783C26.6212 40.739 26.6599 40.6972 26.6953 40.6533C26.7405 40.621 26.7834 40.5856 26.8239 40.5475L29.0338 38.4677C29.1195 38.387 29.1933 38.2947 29.2531 38.1936C29.3558 38.1404 29.4506 38.0733 29.5348 37.994L29.8003 37.7443C29.9542 37.8696 30.1243 38.0033 30.3078 38.1403C31.1131 38.7416 32.2947 39.4981 33.546 39.7978L33.5464 39.7979C34.6218 40.055 35.8552 40.0729 36.9942 39.9107C38.1218 39.7501 39.2848 39.3948 40.1679 38.7991C40.1959 38.7802 40.2231 38.7602 40.2495 38.7391C40.2783 38.7213 40.3064 38.7022 40.3339 38.6819C40.4715 38.5803 40.6271 38.4563 40.7775 38.3072L40.7814 38.3033C41.0304 38.0541 41.4263 37.677 41.903 37.2253C41.9419 37.1885 41.9784 37.1492 42.0122 37.1077C42.041 37.0723 42.058 37.0596 42.0632 37.0559C42.1121 37.0215 42.1585 36.9837 42.202 36.9427C42.7221 36.4524 43.2967 35.915 43.8369 35.4118C43.8462 35.4032 43.8554 35.3944 43.8644 35.3854C45.2038 34.0593 46.5431 32.7308 47.882 31.4029C48.54 30.751 49.2017 30.0986 49.8645 29.4451C51.3729 27.9581 52.8876 26.4649 54.3794 24.956C57.8729 21.4238 57.9662 16.0524 54.5023 12.6195C50.9754 9.12405 45.5823 9.19121 42.0052 12.7092C41.8885 12.8239 41.7718 12.9386 41.655 13.0533C39.7394 14.9354 37.8144 16.8269 35.9222 18.7545L35.9211 18.7556C35.6535 19.0289 35.4946 19.1326 35.3756 19.1814C35.2764 19.2221 35.1119 19.2632 34.7675 19.2158L34.7671 19.2158C29.6591 18.5151 24.9843 19.4643 20.7609 21.8695C21.2583 21.1135 21.8209 20.4184 22.4565 19.7772L22.4565 19.7771C23.4409 18.7838 24.4193 17.7893 25.3957 16.7966C29.0228 13.1093 32.624 9.44848 36.4113 5.97901L36.4114 5.97889C41.5655 1.25593 47.6675 0.0747699 54.2707 2.41654Z" stroke="#50AF00" stroke-width="2.5" stroke-linejoin="round"/>
</svg>
