<svg width="88" height="84" viewBox="0 0 88 84" fill="none" xmlns="http://www.w3.org/2000/svg">
<path d="M42.1434 8.26138L42.1339 8.24415C41.5061 7.08596 40.7654 6.78833 40.2384 6.79593C39.6712 6.80411 38.8442 7.17156 38.1108 8.34761C37.6774 9.04543 37.3931 9.91769 37.0891 10.9523C36.2466 13.8421 36.8138 16.7286 37.6793 19.9491L36.2308 20.3384M42.1434 8.26138L10.949 57.8082C13.3582 56.0865 16.0881 54.698 18.8992 53.4591C19.7064 53.1038 20.702 52.6447 21.4513 51.9213C22.2964 51.1053 22.7779 50.0117 22.6697 48.6075C22.5678 47.2695 22.0419 46.1093 21.0171 45.3367C20.0345 44.5959 18.8014 44.3701 17.5782 44.4194C17.0141 44.4409 16.368 44.2875 15.532 44.0571C13.1485 43.3971 11.8029 41.1091 12.1858 39.3714C12.6828 37.1296 14.9425 35.5605 17.3167 35.9087L17.3222 35.9095C18.0464 36.0129 18.6945 36.1418 19.2658 36.3542L19.2658 36.3542L19.2754 36.3577C20.4841 36.7976 21.665 36.8004 22.7248 36.3011C23.7413 35.8223 24.4527 34.9719 24.9535 34.0792L24.9552 34.0761C25.5866 32.9441 25.7098 31.802 25.3559 30.7063C25.0306 29.6986 24.3463 28.8761 23.6763 28.2095C23.6759 28.209 23.6755 28.2086 23.675 28.2082L23.6053 28.1384L23.6053 28.1384C22.0406 26.574 20.6042 25.1247 19.6585 23.4796C18.9164 22.1874 19.0534 20.7598 20.1307 19.7963L20.1308 19.7962C20.7417 19.2497 21.3457 19.0531 21.9518 19.0536C22.5954 19.0541 23.3503 19.2797 24.1933 19.7703L24.1982 19.7732C24.246 19.8008 24.3134 19.8389 24.3707 19.8713C24.4054 19.8909 24.4364 19.9085 24.4572 19.9203C24.5341 19.9643 24.5938 19.9997 24.6446 20.0322C24.7264 20.0846 24.7566 20.1122 24.7607 20.1158C25.0022 20.3989 25.2405 20.6749 25.4749 20.9462C26.3905 22.0062 27.2458 22.9964 27.9915 24.0767L27.9915 24.0768C29.496 26.2562 32.1697 27.3972 34.7958 26.3324L34.7973 26.3318C37.3255 25.3035 38.3915 22.5823 37.6787 19.9468L36.2308 20.3384M42.1434 8.26138C42.6139 9.10297 42.943 10.0739 43.227 11.1116C43.3285 11.4825 43.4338 11.904 43.5409 12.3327C43.6666 12.836 43.7948 13.3493 43.9223 13.8021M42.1434 8.26138L43.9223 13.8021M36.2308 20.3384C35.3623 17.1074 34.6791 13.8573 35.6497 10.5305L36.2308 20.3384ZM10.0721 61.0582L10.0731 61.0597C10.5401 61.7726 11.0828 62.1048 11.6129 62.2313C12.1674 62.3636 12.8379 62.2996 13.5596 61.987C16.103 60.8838 18.5692 59.4553 20.8687 57.8437L20.8717 57.8417L20.8813 57.8349C21.6361 57.3087 22.6018 56.6354 23.6749 56.3646C24.9149 56.0517 26.1662 56.291 27.3849 57.2228L27.3854 57.2231C28.5872 58.1427 29.2139 59.2812 29.3296 60.5712C29.4361 61.7586 29.0927 62.9282 28.7147 63.935L28.7141 63.9365C28.2218 65.2438 27.9466 66.7214 27.8764 68.1674L27.8763 68.1679C27.8176 69.3709 28.46 70.3007 29.7682 70.8376C30.9399 71.3167 32.0018 71.0629 32.7404 70.2099C33.6654 69.1413 34.4461 67.8662 34.8912 66.5913L34.8919 66.5893C35.191 65.7365 35.6052 64.6748 36.3448 63.8857C37.1942 62.9795 38.3604 62.5398 39.808 62.7466L39.8094 62.7468C41.2407 62.9526 42.2045 63.7026 42.7966 64.732C43.3195 65.6413 43.5236 66.7294 43.6722 67.5803C44.0694 69.8264 44.6403 72.0369 45.5566 73.981C46.0346 74.9953 46.7492 75.7219 47.4542 76.1357C48.1881 76.5665 48.7577 76.5817 49.0347 76.4913C49.9151 76.2 51.0859 74.7431 50.8195 72.4916L50.8192 72.4893C50.6949 71.4241 50.4045 70.3519 50.0591 69.1771C50.0139 69.0232 49.9675 68.8671 49.9205 68.7089C49.6197 67.6959 49.2938 66.5983 49.08 65.4849L49.0799 65.4844C48.9548 64.8314 48.8912 63.9787 48.9414 63.2144C48.9664 62.8348 49.0235 62.4088 49.1496 62.0145C49.2554 61.6835 49.5104 61.047 50.1569 60.6797L50.1579 60.6791C51.0035 60.1995 51.9821 60.2033 52.6921 60.2792C53.4502 60.3603 54.206 60.5609 54.7937 60.7398C55.5528 60.969 56.1818 61.4081 56.6173 61.7158C56.6547 61.7423 56.6909 61.7679 56.7261 61.7928C57.165 62.1034 57.4376 62.2963 57.7242 62.42L57.7246 62.4201C59.1642 63.0416 60.9713 62.5245 61.8014 61.4416L61.8028 61.4398C62.7346 60.2281 62.7798 58.6178 61.7369 57.2149L61.7326 57.209C61.3145 56.6408 60.8063 56.1203 60.2638 55.7211L60.2549 55.7145L60.2549 55.7145C59.5936 55.2203 58.8506 54.541 58.464 53.6202C58.0296 52.5854 58.1362 51.4762 58.7617 50.4129L58.7621 50.4121C59.0833 49.8669 59.5093 49.423 60.0622 49.1411C60.6083 48.8626 61.1538 48.8058 61.6079 48.8237C62.0423 48.8409 62.4577 48.9306 62.7608 48.9991C62.8227 49.013 62.8807 49.0263 62.9354 49.0388C63.1859 49.096 63.3693 49.1379 63.5564 49.1642C63.7879 49.1962 64.0184 49.2284 64.248 49.2604C67.1382 49.6639 69.884 50.0472 72.5638 49.8808C72.5618 49.8809 72.6628 49.8698 72.8705 49.7523C73.0674 49.641 73.2975 49.4691 73.5358 49.2435C74.0283 48.7774 74.4135 48.2193 74.5778 47.8171C74.7274 47.4459 74.6892 47.1287 74.4798 46.7773C74.2399 46.3749 73.7668 45.94 73.0951 45.5809C70.3849 44.1354 67.5542 43.8163 64.5065 44.5186C63.9342 44.6518 62.9702 44.8688 62.0394 44.6504C61.5266 44.5301 61.0111 44.2781 60.5758 43.8308C60.1492 43.3925 59.873 42.8423 59.7063 42.235M10.0721 61.0582L57.2396 22.6771C57.7338 24.234 57.123 25.518 55.8239 27.3216C55.3786 27.9381 55.2138 28.6385 55.1212 29.1305C55.0695 29.4053 55.039 29.6057 55.013 29.7772C54.979 30.001 54.9524 30.1756 54.8959 30.4019C54.774 30.8892 54.9042 31.4051 55.2426 31.7763C55.581 32.1475 56.0827 32.3247 56.5792 32.2483C56.8026 32.2139 57.0441 32.1798 57.296 32.1443C57.8877 32.0607 58.5366 31.9691 59.1441 31.8467L59.1458 31.8463C59.8105 31.7116 60.4947 31.5425 61.1403 31.3829C61.4262 31.3123 61.7046 31.2435 61.9704 31.1804C62.8738 30.9658 63.7111 30.7955 64.531 30.7283C65.818 30.6255 66.7399 31.4233 66.9027 32.3729L66.903 32.375C66.9678 32.7497 66.9222 33.3056 66.724 33.9372C66.5293 34.5579 66.2264 35.1249 65.9112 35.5116C65.61 35.8794 65.145 36.2266 64.5061 36.5741C63.922 36.8917 63.285 37.1626 62.6003 37.4536C62.5338 37.4819 62.4667 37.5104 62.3992 37.5392C61.6661 37.8492 60.7686 38.2984 60.1742 39.0917C59.4912 40.0035 59.3931 41.0936 59.7063 42.235M10.0721 61.0582C9.59935 60.3385 9.59334 59.7718 9.73908 59.3145M10.0721 61.0582L9.73908 59.3145M59.7063 42.235L61.1529 41.838L59.7064 42.2351C59.7064 42.235 59.7063 42.235 59.7063 42.235ZM54.6371 20.4793L54.6333 20.4788C53.5572 20.3402 52.731 20.5254 52.0635 20.904C51.3787 21.2924 50.7527 21.947 50.2031 22.9129L50.2028 22.9134C50.1879 22.9395 50.1727 22.9663 50.1572 22.9936C49.7933 23.634 49.2597 24.573 48.4677 25.1869C48.0112 25.5406 47.4485 25.8096 46.7732 25.8829C46.1095 25.9549 45.4437 25.8265 44.7877 25.5581L54.6371 20.4793ZM54.6371 20.4793C55.3745 20.5724 55.9045 20.8182 56.2939 21.1499M54.6371 20.4793L56.2939 21.1499M43.9223 13.8021C43.7826 14.5283 43.658 15.1947 43.5411 15.8199C43.2723 17.2578 43.0443 18.4769 42.7686 19.701L43.9223 13.8021ZM9.73908 59.3145C9.90434 58.7959 10.3239 58.2556 10.9484 57.8086L9.73908 59.3145ZM56.2939 21.1499C56.686 21.4839 57.0154 21.9733 57.2394 22.6763L56.2939 21.1499ZM42.7686 19.7011C42.7459 19.8011 42.7186 19.9162 42.6892 20.0398C42.6211 20.3264 42.5421 20.659 42.4855 20.957C42.3998 21.4079 42.3273 21.9516 42.3776 22.5163C42.4299 23.1044 42.617 23.7307 43.0551 24.3016C43.4866 24.864 44.083 25.27 44.7873 25.5579L42.7686 19.7011Z" stroke="#50AF00" stroke-width="3" stroke-linejoin="round"/>
<path d="M52.9302 12.0077L52.9279 12.0095C52.0639 12.6531 51.4841 12.6576 51.1705 12.5565C50.8418 12.4506 50.3514 12.0831 49.982 11.0492C49.5028 9.69677 49.6943 7.6998 50.5292 5.75331C51.3648 3.80522 52.677 2.29883 53.981 1.72527L53.9838 1.724C54.4773 1.50568 54.8165 1.47992 55.0268 1.51083C55.2129 1.53818 55.3929 1.62161 55.5828 1.83624C56.0237 2.3346 56.487 3.53047 56.4811 5.79104C56.342 7.79454 55.3053 10.2456 52.9302 12.0077Z" stroke="#50AF00" stroke-width="3" stroke-linejoin="round"/>
<path d="M74.9504 34.7572L74.9506 34.7571C77.764 32.9326 80.8012 32.0636 84.0131 32.5844C84.3156 32.6345 84.7454 32.7869 85.1146 33.0048C85.2886 33.1075 85.4141 33.2044 85.4923 33.28C85.4744 33.3848 85.4324 33.5332 85.357 33.7127C85.1906 34.1088 84.9417 34.4694 84.7492 34.6573C82.4519 36.8781 79.5412 37.9157 75.8449 38.5379C75.5674 38.4115 75.2897 38.2984 75.0322 38.1963C74.9199 38.1517 74.8125 38.1095 74.7087 38.0688C74.4151 37.9536 74.1511 37.8501 73.8925 37.737C73.5478 37.5863 73.298 37.4541 73.1226 37.3302C72.9586 37.2144 72.9211 37.1487 72.9202 37.1472C72.7885 36.8839 72.7968 36.7407 72.8093 36.6677C72.8256 36.5734 72.8825 36.4239 73.0603 36.2089C73.461 35.7243 74.1294 35.2895 74.9504 34.7572ZM85.5023 33.1866C85.5022 33.1848 85.5022 33.1839 85.5022 33.1839L85.5023 33.1866Z" stroke="#50AF00" stroke-width="3" stroke-linejoin="round"/>
<path d="M1.57632 23.084C1.56167 23.0437 1.54966 23.0072 1.53985 22.9747C1.54026 22.9743 1.54067 22.9739 1.54108 22.9735C1.63552 22.8818 1.75812 22.7854 1.89598 22.6998C2.03449 22.6137 2.16635 22.5522 2.27362 22.5159C2.35696 22.4877 2.39968 22.4834 2.40442 22.4826C6.99688 22.6551 10.8519 24.3253 13.7368 27.858C13.7451 27.8754 13.7578 27.9045 13.7725 27.946C13.7948 28.0087 13.8156 28.0817 13.8327 28.1586C13.644 28.2676 13.4365 28.3705 13.215 28.4701C13.0062 28.5639 12.8015 28.6476 12.5936 28.7322L12.5634 28.7445C12.512 28.7654 12.4587 28.7871 12.4045 28.8094C7.8737 28.1809 4.53883 26.7217 1.99655 23.8381C1.94229 23.7758 1.86472 23.669 1.78188 23.5241C1.7 23.3808 1.6283 23.2269 1.57632 23.084ZM13.7298 27.8443C13.7292 27.8433 13.7289 27.8428 13.7288 27.8426C13.7288 27.8425 13.7291 27.843 13.7298 27.8443ZM1.49992 22.7957C1.49984 22.7946 1.49982 22.7941 1.49983 22.7941L1.49992 22.7957Z" stroke="#50AF00" stroke-width="3" stroke-linejoin="round"/>
<path d="M58.0678 71.0476L58.0678 71.045C58.0801 70.1044 58.3851 69.7982 58.4914 69.7289C58.5691 69.6783 58.9144 69.5141 59.7301 69.9255L59.7315 69.9262C62.4215 71.2793 63.8819 73.5634 64.1807 76.5928C64.2552 77.361 63.9915 77.639 63.8553 77.7304C63.6883 77.8424 63.2534 77.9811 62.5024 77.6599L62.5001 77.6589C61.3963 77.189 60.2572 76.1731 59.3914 74.8751C58.5232 73.5736 58.0512 72.1711 58.0678 71.0476Z" stroke="#50AF00" stroke-width="3" stroke-linejoin="round"/>
<path d="M9.79261 75.6937L9.79327 75.692C11.1984 72.0122 13.7842 69.4271 17.4246 67.886L17.426 67.8854C17.4411 67.879 17.5053 67.8568 17.622 67.8414C17.7337 67.8267 17.8605 67.8227 17.9847 67.8316C18.0079 67.8333 18.0301 67.8353 18.0512 67.8377C18.0579 67.9594 18.0531 68.0913 18.0375 68.2148C18.0209 68.3457 17.9966 68.4322 17.9825 68.4697L19.3876 68.995L17.9831 68.4683C16.6453 72.0357 14.0167 74.4307 10.4567 76.0703C10.4482 76.0717 10.4371 76.0733 10.4233 76.0752C10.3829 76.0804 10.3422 76.0844 10.2736 76.0911L10.2559 76.0928L10.2545 76.093C10.2268 76.0957 10.192 76.0991 10.1527 76.1034C9.93054 76.0861 9.78684 76.0488 9.70373 76.017C9.71215 75.9503 9.73499 75.844 9.79261 75.6937ZM18.2955 67.8913C18.2954 67.8913 18.2937 67.8906 18.2905 67.889C18.2939 67.8904 18.2955 67.8912 18.2955 67.8913ZM10.4034 76.0949C10.4059 76.0937 10.4085 76.0925 10.4109 76.0914L10.4034 76.0949ZM9.62812 75.9806C9.62814 75.9806 9.62859 75.9809 9.62942 75.9816L9.62812 75.9806Z" stroke="#50AF00" stroke-width="3" stroke-linejoin="round"/>
<path d="M25.9725 81.6965L25.976 81.6964C27.008 81.6739 28.2625 80.5144 28.2441 78.7311C28.2249 77.2464 27.3895 76.7648 26.8568 76.7893L26.8559 76.7894C26.4136 76.8096 25.8505 77.0835 25.3579 77.6921C24.8736 78.2904 24.5692 79.0859 24.5713 79.8776L25.9725 81.6965ZM25.9725 81.6965C25.3944 81.7104 25.1213 81.5383 24.9684 81.3658M25.9725 81.6965L24.9684 81.3658M24.9684 81.3658C24.7863 81.1602 24.5739 80.7216 24.5713 79.8779L24.9684 81.3658Z" stroke="#50AF00" stroke-width="3" stroke-linejoin="round"/>
</svg>
