<svg width="82" height="82" viewBox="0 0 82 82" fill="none" xmlns="http://www.w3.org/2000/svg">
<path d="M8.2002 63.3637H34.2911V32.0546H8.2002V63.3637ZM10.8093 34.6637H31.682V60.7546H10.8093V34.6637Z" fill="#50AF00"/>
<path d="M20.127 46.2182H22.3633V49.2H20.127V46.2182Z" fill="#50AF00"/>
<path d="M14.9092 46.2182H17.1455V49.2H14.9092V46.2182Z" fill="#50AF00"/>
<path d="M25.3457 46.2182H27.5821V49.2H25.3457V46.2182Z" fill="#50AF00"/>
<path d="M52.9275 42.4909C50.8727 42.4909 49.2002 44.1634 49.2002 46.2182C49.2002 48.2729 50.8727 49.9455 52.9275 49.9455C54.9822 49.9455 56.6547 48.2729 56.6547 46.2182C56.6547 44.1634 54.9822 42.4909 52.9275 42.4909ZM52.9275 47.4606C52.242 47.4606 51.685 46.9037 51.685 46.2182C51.685 45.5327 52.242 44.9758 52.9275 44.9758C53.613 44.9758 54.1699 45.5327 54.1699 46.2182C54.1699 46.9037 53.613 47.4606 52.9275 47.4606Z" fill="#50AF00"/>
<path d="M67.0913 46.2182C67.0913 44.1634 65.4187 42.4909 63.364 42.4909C61.3093 42.4909 59.6367 44.1634 59.6367 46.2182C59.6367 48.2729 61.3093 49.9455 63.364 49.9455C65.4187 49.9455 67.0913 48.2729 67.0913 46.2182ZM63.364 47.4606C62.6785 47.4606 62.1216 46.9037 62.1216 46.2182C62.1216 45.5327 62.6785 44.9758 63.364 44.9758C64.0495 44.9758 64.6064 45.5327 64.6064 46.2182C64.6064 46.9037 64.0495 47.4606 63.364 47.4606Z" fill="#50AF00"/>
<path d="M78.0323 56.871H75.9347L70.4048 51.3411C71.0648 49.7543 71.4194 48.0404 71.4194 46.2903C71.4194 44.4995 71.0584 42.7934 70.41 41.2338L75.9347 35.7097H78.0323C80.2196 35.7097 82 33.9292 82 31.7419C82 29.5546 80.2196 27.7742 78.0323 27.7742C78.0323 25.5869 76.2518 23.8065 74.0645 23.8065C71.8772 23.8065 70.0968 25.5869 70.0968 27.7742V29.8717L64.9983 34.9702C63.0066 33.7697 60.6837 33.0645 58.1936 33.0645C55.7034 33.0645 53.3805 33.7697 51.3888 34.9702L46.2903 29.8717V27.7742C46.2903 25.5869 44.5099 23.8065 42.3226 23.8065C42.0953 23.8065 41.8757 23.8368 41.6587 23.8736L34.6344 15.8458C35.9757 15.7186 37.0323 14.5988 37.0323 13.2258V10.5806C37.0323 9.1218 35.8459 7.93548 34.3871 7.93548V3.96774C34.3871 1.78045 32.6067 0 30.4194 0H11.9032C9.71593 0 7.93548 1.78045 7.93548 3.96774V7.93548C6.47664 7.93548 5.29032 9.1218 5.29032 10.5806V13.2258C5.29032 14.5988 6.34684 15.7186 7.68815 15.8458L0 24.6318V75.3871C0 79.0332 2.96677 82 6.6129 82H35.7097C39.3558 82 42.3226 79.0332 42.3226 75.3871V68.7742C44.5099 68.7742 46.2903 66.9938 46.2903 64.8065V62.7089L48.9355 60.0638V62.1613H67.4516V60.0638L70.0968 62.7089V64.8065C70.0968 66.9938 71.8772 68.7742 74.0645 68.7742C76.2518 68.7742 78.0323 66.9938 78.0323 64.8065C80.2196 64.8065 82 63.026 82 60.8387C82 58.6514 80.2196 56.871 78.0323 56.871ZM72.7419 30.967V27.7742C72.7419 27.0445 73.3348 26.4516 74.0645 26.4516C74.7943 26.4516 75.3871 27.0445 75.3871 27.7742V30.4194H78.0323C78.762 30.4194 79.3548 31.0122 79.3548 31.7419C79.3548 32.4717 78.762 33.0645 78.0323 33.0645H74.8395L69.0919 38.8127C68.5269 37.9925 67.8656 37.2467 67.1358 36.5731L72.7419 30.967ZM43.6452 27.7742V30.967L49.2513 36.5731C48.5215 37.2467 47.8602 37.9925 47.2952 38.8127L41.5476 33.0645H38.3548C37.6251 33.0645 37.0323 32.4717 37.0323 31.7419C37.0323 31.0122 37.6251 30.4194 38.3548 30.4194H41V27.7742C41 27.0445 41.5928 26.4516 42.3226 26.4516C43.0523 26.4516 43.6452 27.0445 43.6452 27.7742ZM42.3226 37.5799L45.9771 41.2338C45.3287 42.7934 44.9677 44.4995 44.9677 46.2903C44.9677 48.0404 45.3223 49.7543 45.9823 51.3411L42.3226 55.0008V37.5799ZM31.1413 15.871L38.0849 23.8065H4.23768L11.1812 15.871H31.1413ZM10.5806 3.96774C10.5806 3.238 11.1735 2.64516 11.9032 2.64516H30.4194C31.1491 2.64516 31.7419 3.238 31.7419 3.96774V7.93548H10.5806V3.96774ZM7.93548 10.5806H34.3871L34.3897 13.2258H7.93548V10.5806ZM39.6774 70.0968H31.7419V72.7419H39.6774V75.3871C39.6774 77.5744 37.897 79.3548 35.7097 79.3548H6.6129C4.42561 79.3548 2.64516 77.5744 2.64516 75.3871V72.7419H29.0968V70.0968H2.64516V26.4516H38.5983C38.4498 26.8669 38.3548 27.3086 38.3548 27.7742C36.1675 27.7742 34.3871 29.5546 34.3871 31.7419C34.3871 33.9292 36.1675 35.7097 38.3548 35.7097H39.6774V56.871H38.3548C36.1675 56.871 34.3871 58.6514 34.3871 60.8387C34.3871 63.026 36.1675 64.8065 38.3548 64.8065C38.3548 65.974 38.8721 67.0151 39.6774 67.7429V70.0968ZM43.6452 61.6137V64.8065C43.6452 65.5362 43.0523 66.129 42.3226 66.129C41.5928 66.129 41 65.5362 41 64.8065V62.1613H38.3548C37.6251 62.1613 37.0323 61.5685 37.0323 60.8387C37.0323 60.109 37.6251 59.5161 38.3548 59.5161H41.5476L47.301 53.7628C47.7795 54.4596 48.3246 55.1157 48.9355 55.7163V56.3233L43.6452 61.6137ZM64.8065 59.5161H62.1613V54.2258H59.5161V59.5161H56.871V54.2258H54.2258V59.5161H51.5806V54.5539L51.1415 54.1599C48.9 52.1496 47.6129 49.281 47.6129 46.2903C47.6129 40.4562 52.3595 35.7097 58.1936 35.7097C64.0276 35.7097 68.7742 40.4562 68.7742 46.2903C68.7742 49.281 67.4871 52.1496 65.2456 54.1599L64.8065 54.5539V59.5161ZM78.0323 62.1613H75.3871V64.8065C75.3871 65.5362 74.7943 66.129 74.0645 66.129C73.3348 66.129 72.7419 65.5362 72.7419 64.8065V61.6137L67.4516 56.3233V55.7163C68.0625 55.1157 68.6076 54.4596 69.0861 53.7628L74.8395 59.5161H78.0323C78.762 59.5161 79.3548 60.109 79.3548 60.8387C79.3548 61.5685 78.762 62.1613 78.0323 62.1613Z" fill="#50AF00"/>
</svg>
