<svg width="90" height="90" viewBox="0 0 90 90" fill="none" xmlns="http://www.w3.org/2000/svg">
<path d="M88.5 15.0002H52.5C51.6716 15.0002 51 15.6719 51 16.5002V30.0003C51.0006 30.8286 51.6728 31.4997 52.5011 31.4991C52.6618 31.4989 52.8216 31.4731 52.974 31.4223L54.8595 30.7938C56.9066 30.1236 59.1092 31.24 59.7791 33.2871C60.4491 35.3343 59.3329 37.5368 57.2858 38.2068C56.4975 38.4648 55.6476 38.4648 54.8593 38.2068L52.9738 37.5783C52.1878 37.3165 51.3385 37.7414 51.0767 38.5274C51.0259 38.6798 51 38.8396 50.9998 39.0003V51.0003H38.9998C38.1714 51.0008 37.5004 51.673 37.5009 52.5014C37.5011 52.6621 37.527 52.8218 37.5778 52.9743L38.2063 54.8598C38.8764 56.9069 37.7601 59.1095 35.7129 59.7794C33.6658 60.4495 31.4633 59.3331 30.7933 57.286C30.5353 56.4978 30.5353 55.6478 30.7933 54.8596L31.4218 52.9741C31.6836 52.1881 31.2587 51.3387 30.4727 51.077C30.3203 51.0261 30.1605 51.0003 29.9998 51.0001H16.5C15.6716 51.0001 15 51.6717 15 52.5001V88.5001C15 89.3285 15.6716 90.0001 16.5 90.0001H88.5C89.3284 90.0001 90 89.3285 90 88.5001V16.5002C90 15.6719 89.3284 15.0002 88.5 15.0002ZM51.0769 74.5274C51.0261 74.6798 51.0002 74.8396 51 75.0003V87.0003H18V54.0003H27.9195C26.7733 57.6346 28.7904 61.51 32.4248 62.656C36.0591 63.8022 39.9345 61.7851 41.0805 58.1508C41.5065 56.8 41.5065 55.3508 41.0805 54.0001H51V66.0001C51.0006 66.8285 51.6728 67.4995 52.5011 67.499C52.6618 67.4988 52.8216 67.4729 52.974 67.4221L54.8595 66.7936C56.9066 66.1236 59.1092 67.2398 59.7791 69.287C60.4491 71.3341 59.3329 73.5367 57.2858 74.2066C56.4975 74.4646 55.6476 74.4646 54.8593 74.2066L52.9738 73.5781C52.188 73.3165 51.3386 73.7414 51.0769 74.5274ZM87 87.0003H54V77.0808C57.6343 78.227 61.5098 76.2098 62.6558 72.5755C63.802 68.9412 61.7848 65.0658 58.1505 63.9198C56.7998 63.4938 55.3506 63.4938 53.9998 63.9198V54.0003H65.9998C66.8282 53.9997 67.4993 53.3275 67.4987 52.4991C67.4985 52.3385 67.4727 52.1787 67.4218 52.0263L66.7933 50.1408C66.1234 48.0936 67.2396 45.8911 69.2867 45.2211C71.3338 44.5512 73.5364 45.6674 74.2063 47.7145C74.4643 48.5028 74.4643 49.3527 74.2063 50.1409L73.5778 52.0265C73.3161 52.8125 73.741 53.6618 74.527 53.9236C74.6794 53.9744 74.8392 54.0003 74.9998 54.0005H86.9998V87.0003H87ZM87 51.0003H77.0805C78.2267 47.366 76.2096 43.4905 72.5753 42.3445C68.941 41.1983 65.0655 43.2154 63.9195 46.8498C63.4935 48.2005 63.4935 49.6497 63.9195 51.0005H54V41.0809C56.0833 41.7561 58.3641 41.3918 60.1335 40.1014C63.2359 37.8886 63.957 33.5796 61.7441 30.4773C59.9966 28.0274 56.863 26.9926 54 27.9199V18.0002H87V51.0003Z" fill="#50AF00"/>
<path d="M43.1507 12.9195C41.8 12.4935 40.3508 12.4935 39 12.9195V1.5C39 0.671625 38.3284 0 37.5 0H1.5C0.671625 0 0 0.671625 0 1.5V37.5C0 38.3284 0.671625 39 1.5 39H12.9195C11.7733 42.6343 13.7904 46.5098 17.4248 47.6558C21.0591 48.8018 24.9345 46.7848 26.0805 43.1505C26.5065 41.7998 26.5065 40.3506 26.0805 38.9998H37.5C38.3284 38.9998 39 38.3282 39 37.4998V26.0803C42.6343 27.2265 46.5098 25.2094 47.6558 21.5751C48.802 17.9409 46.785 14.0657 43.1507 12.9195ZM42.286 23.2065C41.4977 23.4645 40.6478 23.4645 39.8595 23.2065L37.974 22.578C37.188 22.3163 36.3386 22.7411 36.0769 23.5271C36.0261 23.6796 36.0002 23.8393 36 24V36H24C23.1716 36.0006 22.5006 36.6728 22.5011 37.5011C22.5013 37.6618 22.5272 37.8216 22.578 37.974L23.2065 39.8595C23.8766 41.9066 22.7603 44.1092 20.7131 44.7792C18.666 45.4491 16.4634 44.3329 15.7935 42.2858C15.5355 41.4975 15.5355 40.6476 15.7935 39.8593L16.422 37.9738C16.6838 37.1878 16.2589 36.3385 15.4729 36.0767C15.3204 36.0259 15.1607 36 15 35.9998H3V3H36V15C36.0006 15.8284 36.6728 16.4994 37.5011 16.4989C37.6618 16.4987 37.8216 16.4728 37.974 16.422L39.8595 15.7935C41.9067 15.1236 44.1092 16.2398 44.7792 18.2869C45.4493 20.3338 44.3329 22.5366 42.286 23.2065Z" fill="#50AF00"/>
</svg>
