<svg width="96" height="68" viewBox="0 0 96 68" fill="none" xmlns="http://www.w3.org/2000/svg">
<path d="M93.4829 0H1.72054C0.770181 0 0 0.77018 0 1.72054V65.9542C0 66.9046 0.770181 67.6748 1.72054 67.6748H93.4829C94.4332 67.6748 95.2034 66.9046 95.2034 65.9542V1.72054C95.2034 0.77018 94.4332 0 93.4829 0ZM30.9697 3.44108H64.2337V16.0583H30.9697V3.44108ZM30.9697 35.5579H64.2337V48.1752H30.9697V35.5579ZM12.6172 32.1168V19.4996H45.8812V32.1168H12.6172ZM49.3222 32.1168V19.4996H82.5862V32.1168H65.9542H49.3222ZM3.44108 3.44108H27.5287V16.0583H3.44108V3.44108ZM3.44108 19.4996H9.17616V32.1168H3.44108V19.4996ZM3.44108 35.5579H27.5287V48.1752H3.44108V35.5579ZM9.17616 64.2337H3.44108V51.6164H9.17616V64.2337ZM45.8812 64.2337H12.6172V51.6164H45.8812V64.2337ZM82.5862 64.2337H49.3222V51.6164H82.5862V64.2337ZM91.7623 64.2337H86.0273V51.6164H91.7623V64.2337ZM91.7623 48.1752H67.6748V35.5579H91.7623V48.1752ZM91.7623 32.1168H86.0273V19.4996H91.7623V32.1168ZM91.7623 16.0585H67.6748V3.44108H91.7623V16.0585Z" fill="#50AF00"/>
</svg>
