<svg width="119" height="77" viewBox="0 0 119 77" fill="none" xmlns="http://www.w3.org/2000/svg">
<path d="M77.9031 67.109C78.3766 67.1026 78.7559 66.9203 78.9854 66.7824C79.2352 66.6322 79.4502 66.4479 79.6236 66.2722C79.9517 65.9397 80.2837 65.4813 80.4627 64.9909C87.2054 46.7481 85.6966 29.0856 76.3103 12.1206C76.0936 11.7257 75.7684 11.5086 75.6726 11.4447L75.663 11.4383C75.5882 11.3881 75.5504 11.3641 75.5241 11.3475C75.4933 11.328 75.4784 11.3185 75.4383 11.2885C75.0962 11.0319 74.6609 10.9336 74.2417 11.0181C73.8225 11.1027 73.4593 11.3621 73.2435 11.7313C73.1641 11.8669 73.0849 12.0024 73.0052 12.1386C72.1817 9.10059 71.3742 6.12454 70.5396 3.05153C71.6023 3.64324 72.6509 4.2271 73.6933 4.80755C75.387 5.75066 77.0646 6.68476 78.7607 7.62891C78.4179 7.73745 78.0747 7.84615 77.7235 7.95744C77.2928 8.09388 76.9466 8.41714 76.781 8.83743C76.6153 9.25771 76.6479 9.73026 76.8697 10.1238C86.7764 27.7031 88.8349 45.9641 81.9167 65.1708C81.7511 65.6304 81.8198 66.1419 82.1006 66.5416C82.3815 66.9413 82.8394 67.1792 83.3279 67.1792C86.2215 67.1792 89.0927 67.1784 91.948 67.1776C99.0306 67.1757 106.015 67.1739 113.001 67.1838C115.214 67.1876 116.757 68.3587 117.216 69.7967L117.216 69.7974C117.799 71.6192 117.155 73.4888 115.678 74.3415C114.9 74.7898 113.769 75.0331 112.69 75.0331L112.689 75.0331C104.651 75.043 96.635 75.0199 88.6157 74.9968C81.5545 74.9765 74.4905 74.9562 67.4062 74.9583L67.4056 74.9583C58.3414 74.9647 49.2817 74.9843 40.2222 75.004C29.2205 75.0279 18.2192 75.0518 7.21047 75.0518C5.76152 75.0518 4.47574 74.9689 3.49923 74.5516C1.96631 73.8948 1.15444 72.2018 1.63417 69.9591C1.92947 68.5892 3.57876 67.1969 5.79323 67.1932L5.79369 67.1932C12.7977 67.1792 19.8011 67.1809 26.8045 67.1827C29.139 67.1833 31.4736 67.1838 33.8081 67.1838C33.8776 67.1838 33.9464 67.1839 34.0147 67.1839C34.9724 67.1842 35.812 67.1845 36.4954 67.1214C37.2346 67.0531 38.0107 66.8968 38.6897 66.4228C39.3904 65.9336 39.791 65.2465 40.0731 64.5274C40.3463 63.8313 40.5652 62.9511 40.8034 61.9281L40.8035 61.9279C40.9998 61.0842 41.2041 60.2321 41.4102 59.3728C42.5489 54.6234 43.7402 49.655 43.9239 44.6853L43.9239 44.6847C44.3505 33.0288 41.4936 21.9817 35.3293 11.5214C35.0594 11.0635 34.5673 10.7825 34.0357 10.783C33.5041 10.7835 33.0125 11.0653 32.7434 11.5237L32.6795 11.6325C32.5776 11.8061 32.4784 11.9751 32.381 12.1411C32.3592 12.0607 32.3373 11.9803 32.3155 11.8999C31.5181 8.96049 30.7357 6.0766 29.9234 3.07802C32.6979 4.61239 35.3891 6.10075 38.1635 7.63588C37.8103 7.75049 37.4602 7.86405 37.1051 7.97919C36.6772 8.11793 36.3342 8.44138 36.1706 8.86039C36.0069 9.27939 36.04 9.74972 36.2606 10.1417C46.1303 27.6794 48.2264 45.8757 41.2702 65.2326C41.1051 65.6921 41.1739 66.2033 41.4548 66.6027C41.7357 67.0022 42.1935 67.2399 42.6818 67.2399C43.8241 67.2399 44.9581 67.2425 46.0855 67.2451C49.9564 67.2541 53.7488 67.2628 57.5304 67.1647L57.531 67.1646C58.0703 67.1504 58.4996 66.9185 58.7593 66.7437C59.0422 66.5533 59.2875 66.3194 59.4872 66.0948C59.8725 65.6613 60.2382 65.0908 60.4289 64.5294C63.5585 55.4203 65.019 46.0982 63.8521 36.3073L63.8521 36.3072C62.8304 27.7369 60.3014 19.7571 56.1011 12.251L56.0966 12.2432C55.9941 12.0626 55.8831 11.9144 55.8003 11.8062C55.7707 11.7674 55.7434 11.7322 55.7165 11.6975C55.6584 11.6223 55.6018 11.5493 55.5266 11.4475C55.2278 11.0432 54.7464 10.8155 54.2443 10.841C53.7422 10.8665 53.2863 11.1418 53.03 11.5742C52.9267 11.7485 52.8253 11.9196 52.7247 12.0894C52.7163 12.1035 52.708 12.1176 52.6996 12.1316L52.4524 11.2161C51.7165 8.49029 50.9929 5.81032 50.2481 3.05161C52.999 4.5926 55.6581 6.0812 58.4034 7.61789C58.0616 7.72269 57.7304 7.82432 57.401 7.92558C56.9663 8.05921 56.6158 8.38282 56.4478 8.80543C56.2799 9.22805 56.3127 9.70403 56.5371 10.0996C66.4576 27.585 68.3171 45.8007 61.645 65.172C61.4871 65.6304 61.5605 66.1368 61.842 66.5315C62.1235 66.9262 62.5784 67.1605 63.0632 67.1605C64.1237 67.1605 65.1749 67.1617 66.2186 67.1629C70.1859 67.1675 74.0458 67.172 77.9031 67.109ZM77.9031 67.109C77.9019 67.109 77.9007 67.109 77.8995 67.109L77.8823 65.6091L77.9068 67.1089C77.9056 67.1089 77.9043 67.109 77.9031 67.109Z" stroke="#50AF00" stroke-width="3" stroke-linejoin="round"/>
</svg>
