<svg width="112" height="69" viewBox="0 0 112 69" fill="none" xmlns="http://www.w3.org/2000/svg">
<path d="M-6.99382e-07 16L8 2.1436L24 2.1436L32 16L24 29.8564L8 29.8564L-6.99382e-07 16Z" fill="#50AF00"/>
<path d="M60 52L68 38.1436L84 38.1436L92 52L84 65.8564L68 65.8564L60 52Z" fill="#50AF00"/>
<path d="M48.5773 28.8564L41.1547 16L48.5773 3.1436L63.4226 3.1436L70.8453 16L63.4226 28.8564L48.5773 28.8564Z" stroke="#50AF00" stroke-width="2"/>
<path d="M80 16L88 2.1436L104 2.1436L112 16L104 29.8564L88 29.8564L80 16Z" fill="#50AF00"/>
<circle cx="90" cy="8" r="2" fill="#DBEBD4"/>
<circle cx="90" cy="24" r="2" fill="#DBEBD4"/>
<circle cx="96" cy="8" r="2" fill="#DBEBD4"/>
<circle cx="96" cy="24" r="2" fill="#DBEBD4"/>
<circle cx="102" cy="8" r="2" fill="#DBEBD4"/>
<circle cx="90" cy="16" r="2" fill="#DBEBD4"/>
<circle cx="96" cy="16" r="2" fill="#DBEBD4"/>
<circle cx="102" cy="16" r="2" fill="#DBEBD4"/>
<circle cx="108" cy="16" r="2" fill="#DBEBD4"/>
<circle cx="84" cy="16" r="2" fill="#DBEBD4"/>
<circle cx="102" cy="24" r="2" fill="#DBEBD4"/>
<path d="M20 52L28 38.1436L44 38.1436L52 52L44 65.8564L28 65.8564L20 52Z" fill="#50AF00"/>
<path fill-rule="evenodd" clip-rule="evenodd" d="M50.5752 57.2632L37.5752 36.2632L38.4255 35.7368L51.4255 56.7368L50.5752 57.2632Z" fill="#DBEBD4"/>
<path fill-rule="evenodd" clip-rule="evenodd" d="M47.5762 60.265L32.5762 36.265L33.4242 35.735L48.4242 59.735L47.5762 60.265Z" fill="#DBEBD4"/>
<path fill-rule="evenodd" clip-rule="evenodd" d="M46.5791 65.2704L28.5791 37.2704L29.4203 36.7296L47.4203 64.7296L46.5791 65.2704Z" fill="#DBEBD4"/>
<path fill-rule="evenodd" clip-rule="evenodd" d="M42.5771 67.2665L25.5771 40.2665L26.4234 39.7336L43.4234 66.7336L42.5771 67.2665Z" fill="#DBEBD4"/>
<path fill-rule="evenodd" clip-rule="evenodd" d="M38.5791 68.2695L22.5791 43.2695L23.4214 42.7305L39.4214 67.7305L38.5791 68.2695Z" fill="#DBEBD4"/>
<path fill-rule="evenodd" clip-rule="evenodd" d="M32.5713 67.2573L20.5713 47.2573L21.4288 46.7428L33.4288 66.7428L32.5713 67.2573Z" fill="#DBEBD4"/>
</svg>
