<svg width="80" height="80" viewBox="0 0 80 80" fill="none" xmlns="http://www.w3.org/2000/svg">
<path d="M80 40L60 74.641L20 74.641L-1.74846e-06 40L20 5.35898L60 5.35898L80 40Z" fill="#C4C4C4"/>
<path d="M80 40L60 74.641L20 74.641L-1.74846e-06 40L20 5.35898L60 5.35898L80 40Z" fill="#00602B"/>
<path d="M80 40L60 74.641L20 74.641L-1.74846e-06 40L20 5.35898L60 5.35898L80 40Z" fill="#50AF00"/>
<path d="M59.7678 41.7678C60.7441 40.7915 60.7441 39.2085 59.7678 38.2322L43.8579 22.3223C42.8816 21.346 41.2986 21.346 40.3223 22.3223C39.346 23.2986 39.346 24.8816 40.3223 25.8579L54.4645 40L40.3223 54.1421C39.346 55.1184 39.346 56.7014 40.3223 57.6777C41.2986 58.654 42.8816 58.654 43.8579 57.6777L59.7678 41.7678ZM22 42.5H58V37.5H22V42.5Z" fill="white"/>
</svg>
