<svg width="450" height="506" viewBox="0 0 450 506" fill="none" xmlns="http://www.w3.org/2000/svg">
<path opacity="0.15" d="M448.867 206.127C450.862 152.12 431.46 97.4615 388.692 71.449C367.583 58.6057 342.9 51.0823 318.204 52.1906C291.709 53.3772 266.766 64.1603 241.784 73.0528C216.801 81.9453 189.746 89.0515 163.994 82.7407C145.361 78.1771 128.972 66.8985 110.535 61.7612C37.8952 41.5379 -25.3563 123.956 10.1876 189.477C18.9106 205.541 32.3537 218.423 43.6584 232.805C54.9631 247.187 64.4423 264.554 62.9168 282.77C61.6129 297.856 53.0594 311.286 49.4998 325.993C42.6935 354.17 56.2017 385.164 79.5543 402.336C102.907 419.508 134.409 423.511 162.573 416.444C190.737 409.377 215.51 392.087 235.03 370.678C245.461 359.203 255.683 345.799 270.691 341.901C285.099 338.172 299.95 344.248 314.567 347.038C328.08 349.538 341.961 349.254 355.361 346.205C368.761 343.156 381.398 337.406 392.5 329.305C427.77 303.215 447.067 254.932 448.867 206.127Z" fill="#9468B4"/>
<path opacity="0.15" d="M448.867 206.127C450.862 152.12 431.46 97.4615 388.692 71.449C367.583 58.6057 342.9 51.0823 318.204 52.1906C291.709 53.3772 266.766 64.1603 241.784 73.0528C216.801 81.9453 189.746 89.0515 163.994 82.7407C145.361 78.1771 128.972 66.8985 110.535 61.7612C37.8952 41.5379 -25.3563 123.956 10.1876 189.477C18.9106 205.541 32.3537 218.423 43.6584 232.805C54.963 247.187 64.4423 264.554 62.9168 282.77C61.6129 297.856 53.0594 311.286 49.4998 325.993C42.6935 354.17 56.2017 385.164 79.5543 402.336C102.907 419.508 134.409 423.511 162.573 416.444C190.737 409.377 215.51 392.087 235.03 370.678C245.461 359.203 255.683 345.799 270.691 341.901C285.099 338.172 299.95 344.248 314.567 347.038C328.08 349.538 341.961 349.254 355.361 346.205C368.761 343.156 381.398 337.406 392.5 329.305C427.77 303.215 447.067 254.932 448.867 206.127Z" fill="white"/>
<g opacity="0.1">
<path d="M216.54 505.278C313.907 505.278 392.839 489.493 392.839 470.021C392.839 450.549 313.907 434.764 216.54 434.764C119.174 434.764 40.2422 450.549 40.2422 470.021C40.2422 489.493 119.174 505.278 216.54 505.278Z" fill="#9468B4"/>
<path opacity="0.5" d="M216.54 505.278C313.907 505.278 392.839 489.493 392.839 470.021C392.839 450.549 313.907 434.764 216.54 434.764C119.174 434.764 40.2422 450.549 40.2422 470.021C40.2422 489.493 119.174 505.278 216.54 505.278Z" fill="white"/>
</g>
<path d="M403.7 1H276.584C272.242 1 268.722 4.52013 268.722 8.86243V148.991C268.722 153.333 272.242 156.853 276.584 156.853H403.7C408.042 156.853 411.562 153.333 411.562 148.991V8.86243C411.562 4.52013 408.042 1 403.7 1Z" fill="white" stroke="#263238" stroke-linecap="round" stroke-linejoin="round"/>
<path d="M276.584 1.0001H403.687C405.762 1.0001 407.752 1.82434 409.219 3.29149C410.686 4.75865 411.51 6.74853 411.51 8.8234V16.9857H268.722V8.86253C268.717 7.82857 268.916 6.80384 269.31 5.84758C269.703 4.89133 270.282 4.02252 271.013 3.29139C271.744 2.56026 272.613 1.98132 273.569 1.58803C274.526 1.19474 275.55 0.994915 276.584 1.0001Z" fill="#263238" stroke="#263238" stroke-linecap="round" stroke-linejoin="round"/>
<path d="M276.506 84.2139H333.981" stroke="#263238" stroke-linecap="round" stroke-linejoin="round"/>
<path d="M276.506 91.6328H333.981" stroke="#263238" stroke-linecap="round" stroke-linejoin="round"/>
<path d="M276.506 99.0527H333.981" stroke="#263238" stroke-linecap="round" stroke-linejoin="round"/>
<path d="M276.506 106.472H333.981" stroke="#263238" stroke-linecap="round" stroke-linejoin="round"/>
<path d="M276.506 113.891H333.981" stroke="#263238" stroke-linecap="round" stroke-linejoin="round"/>
<path d="M276.506 121.322H333.981" stroke="#263238" stroke-linecap="round" stroke-linejoin="round"/>
<path d="M276.506 128.742H333.981" stroke="#263238" stroke-linecap="round" stroke-linejoin="round"/>
<path d="M276.506 136.161H333.981" stroke="#263238" stroke-linecap="round" stroke-linejoin="round"/>
<path d="M276.506 143.58H333.981" stroke="#263238" stroke-linecap="round" stroke-linejoin="round"/>
<path d="M344.086 84.2139H401.561" stroke="#263238" stroke-linecap="round" stroke-linejoin="round"/>
<path d="M344.086 91.6328H401.561" stroke="#263238" stroke-linecap="round" stroke-linejoin="round"/>
<path d="M344.086 99.0527H401.561" stroke="#263238" stroke-linecap="round" stroke-linejoin="round"/>
<path d="M344.086 106.472H401.561" stroke="#263238" stroke-linecap="round" stroke-linejoin="round"/>
<path d="M344.086 113.891H401.561" stroke="#263238" stroke-linecap="round" stroke-linejoin="round"/>
<path d="M344.086 121.322H401.561" stroke="#263238" stroke-linecap="round" stroke-linejoin="round"/>
<path d="M344.086 128.742H401.561" stroke="#263238" stroke-linecap="round" stroke-linejoin="round"/>
<path d="M344.086 136.161H401.561" stroke="#263238" stroke-linecap="round" stroke-linejoin="round"/>
<path d="M344.086 143.58H401.561" stroke="#263238" stroke-linecap="round" stroke-linejoin="round"/>
<path d="M314.945 37.2347C315.228 36.3537 315.378 35.4351 315.388 34.5096C315.388 31.1326 311.959 30.937 308.595 30.937H307.747V30.1416H322.429V30.937C318.609 30.937 317.214 33.3752 316.027 36.987L308.204 60.3396C307.617 62.0737 307.122 63.3646 305.283 63.3646H305.127L298.242 41.0551L291.84 60.3917C291.24 62.1259 290.745 63.4167 288.906 63.4167H288.763L278.749 30.937H275.229V30.1416H288.111V30.937H284.447L291.879 56.5192H292.179L297.786 39.5296L295.178 31.0022H291.657V30.1416H304.553V30.937H300.889L308.321 56.5192H308.608L314.945 37.2347Z" fill="#9468B4"/>
<path d="M401.966 22.749H342.821V76.2083H401.966V22.749Z" fill="#9468B4" stroke="#263238" stroke-width="2" stroke-linecap="round" stroke-linejoin="round"/>
<path d="M401.966 45.0977C399.983 45.2107 398.012 45.4854 396.073 45.9191C387.089 47.8749 384.742 60.7704 374.585 60.7704C365.588 60.7704 364.819 48.6573 351.923 47.0926C348.786 46.5984 345.573 47.1675 342.796 48.7094V76.2084H401.966V45.0977Z" fill="#263238" stroke="#263238" stroke-linecap="round" stroke-linejoin="round"/>
<path d="M362.471 34.9796C362.474 36.2959 362.086 37.5834 361.356 38.6789C360.627 39.7745 359.588 40.6288 358.372 41.1337C357.157 41.6386 355.819 41.7714 354.528 41.5153C353.236 41.2591 352.05 40.6255 351.12 39.6947C350.189 38.7639 349.555 37.5779 349.299 36.2867C349.043 34.9956 349.176 33.6574 349.681 32.4418C350.185 31.2262 351.04 30.1877 352.135 29.4581C353.231 28.7284 354.518 28.3402 355.835 28.3428C357.595 28.3428 359.283 29.042 360.528 30.2867C361.772 31.5313 362.471 33.2194 362.471 34.9796Z" fill="white" stroke="#263238" stroke-linecap="round" stroke-linejoin="round"/>
<path d="M404.665 5.68066H273.012V10.7528H404.665V5.68066Z" fill="white" stroke="#263238" stroke-linecap="round" stroke-linejoin="round"/>
<path d="M396.45 187.951H339.457C337.216 187.951 335.067 188.841 333.483 190.426C331.898 192.01 331.008 194.159 331.008 196.4V226.885C331.008 229.126 331.898 231.275 333.483 232.86C335.067 234.444 337.216 235.334 339.457 235.334H341.205C339.431 239.246 335.989 245.244 330.552 248.803C330.552 248.803 342.117 247.995 354.165 235.334H396.424C398.665 235.334 400.814 234.444 402.399 232.86C403.983 231.275 404.873 229.126 404.873 226.885V196.4C404.873 194.164 403.987 192.019 402.408 190.435C400.829 188.851 398.686 187.958 396.45 187.951Z" fill="#263238" stroke="#263238" stroke-linecap="round" stroke-linejoin="round"/>
<path d="M358.155 210.56C358.158 209.698 357.904 208.854 357.427 208.136C356.949 207.418 356.269 206.858 355.473 206.526C354.677 206.195 353.8 206.108 352.954 206.275C352.108 206.443 351.331 206.858 350.721 207.468C350.111 208.078 349.696 208.855 349.528 209.701C349.361 210.547 349.448 211.424 349.779 212.22C350.111 213.016 350.671 213.696 351.389 214.174C352.107 214.651 352.951 214.905 353.813 214.902C354.964 214.899 356.066 214.44 356.88 213.627C357.693 212.813 358.152 211.711 358.155 210.56Z" fill="#9468B4" stroke="#263238" stroke-linecap="round" stroke-linejoin="round"/>
<path d="M372.928 210.561C372.928 209.702 372.673 208.862 372.196 208.148C371.719 207.434 371.041 206.878 370.248 206.549C369.454 206.221 368.581 206.135 367.739 206.302C366.897 206.47 366.123 206.883 365.516 207.49C364.909 208.098 364.495 208.871 364.328 209.714C364.16 210.556 364.246 211.429 364.575 212.222C364.903 213.016 365.46 213.694 366.174 214.171C366.888 214.648 367.727 214.903 368.586 214.903C369.737 214.899 370.839 214.441 371.652 213.627C372.466 212.814 372.925 211.711 372.928 210.561Z" fill="#9468B4" stroke="#263238" stroke-linecap="round" stroke-linejoin="round"/>
<path d="M387.715 210.56C387.717 209.699 387.464 208.855 386.987 208.137C386.51 207.419 385.831 206.859 385.035 206.528C384.24 206.196 383.364 206.108 382.518 206.274C381.673 206.441 380.895 206.855 380.285 207.463C379.675 208.072 379.259 208.848 379.09 209.693C378.92 210.538 379.006 211.414 379.335 212.211C379.664 213.007 380.223 213.688 380.939 214.167C381.655 214.647 382.498 214.902 383.36 214.902C384.512 214.899 385.615 214.441 386.431 213.628C387.246 212.814 387.708 211.712 387.715 210.56Z" fill="#9468B4" stroke="#263238" stroke-linecap="round" stroke-linejoin="round"/>
<path d="M83.0363 19.4893H176.916C179.15 19.4893 181.292 20.3767 182.872 21.9563C184.452 23.536 185.339 25.6784 185.339 27.9124V92.9893H74.6523V27.9124C74.6523 25.6852 75.5344 23.5486 77.1056 21.9701C78.6768 20.3916 80.8092 19.4996 83.0363 19.4893Z" fill="#9468B4" stroke="#263238" stroke-linecap="round" stroke-linejoin="round"/>
<path d="M185.287 82.4932H74.6523V92.9503H185.287V82.4932Z" fill="#263238" stroke="#263238" stroke-linecap="round" stroke-linejoin="round"/>
<path d="M180.227 86.0654H79.7236V89.3773H180.227V86.0654Z" fill="white" stroke="#263238" stroke-linecap="round" stroke-linejoin="round"/>
<path d="M129.976 68.1246C138.416 68.1246 145.257 61.2828 145.257 52.8431C145.257 44.4033 138.416 37.5615 129.976 37.5615C121.536 37.5615 114.694 44.4033 114.694 52.8431C114.694 61.2828 121.536 68.1246 129.976 68.1246Z" fill="#263238" stroke="#263238" stroke-linecap="round" stroke-linejoin="round"/>
<path d="M123.078 43.3369L139.572 52.8553L123.078 62.3736V43.3369Z" fill="white" stroke="#263238" stroke-linecap="round" stroke-linejoin="round"/>
<path d="M137.434 119.719H32.4318C30.4011 119.719 28.7549 121.365 28.7549 123.396V163.412C28.7549 165.443 30.4011 167.089 32.4318 167.089H137.434C139.464 167.089 141.111 165.443 141.111 163.412V123.396C141.111 121.365 139.464 119.719 137.434 119.719Z" fill="#263238" stroke="#263238" stroke-linecap="round" stroke-linejoin="round"/>
<path d="M42.1322 126.173L42.6798 127.086C40.2024 128.468 37.8946 130.893 37.8946 133.735C37.8628 134.224 37.9289 134.713 38.0889 135.176C38.2489 135.638 38.4995 136.064 38.8262 136.428C39.1528 136.793 39.5489 137.088 39.9912 137.297C40.4335 137.507 40.9132 137.626 41.402 137.647C41.7671 137.647 42.0148 137.465 42.0148 137.099C42.0148 136.734 41.8323 136.617 41.4672 136.552C40.9749 136.418 40.5459 136.114 40.257 135.694C39.968 135.274 39.8377 134.764 39.8895 134.257C39.899 133.852 39.9907 133.453 40.1592 133.085C40.3276 132.717 40.5691 132.387 40.8692 132.115C41.1692 131.843 41.5215 131.635 41.9045 131.503C42.2875 131.371 42.6932 131.319 43.0971 131.349C43.5364 131.351 43.9709 131.44 44.375 131.613C44.7791 131.785 45.1445 132.037 45.4496 132.353C45.7548 132.669 45.9934 133.043 46.1515 133.453C46.3095 133.863 46.3838 134.3 46.3698 134.739C46.3634 135.291 46.2459 135.836 46.0243 136.341C45.8026 136.847 45.4814 137.302 45.0798 137.681C44.6782 138.059 44.2044 138.353 43.6867 138.544C43.1691 138.736 42.6182 138.821 42.067 138.794C41.3817 138.839 40.6947 138.739 40.0505 138.501C39.4064 138.263 38.8195 137.892 38.3277 137.412C37.836 136.933 37.4505 136.356 37.1962 135.718C36.9419 135.08 36.8244 134.396 36.8514 133.709C36.8123 130.41 39.3549 127.751 42.1322 126.173ZM53.3326 126.173L53.8802 127.086C51.3898 128.468 49.0949 130.893 49.0949 133.735C49.0614 134.224 49.1262 134.714 49.2855 135.178C49.4448 135.641 49.6954 136.067 50.0224 136.432C50.3494 136.797 50.7462 137.092 51.1893 137.301C51.6325 137.51 52.113 137.627 52.6024 137.647C52.9675 137.647 53.2152 137.465 53.2152 137.099C53.2152 136.734 53.0327 136.617 52.6676 136.552C52.1752 136.418 51.7463 136.114 51.4573 135.694C51.1683 135.274 51.0381 134.764 51.0899 134.257C51.0975 133.851 51.188 133.452 51.3558 133.083C51.5236 132.714 51.7651 132.383 52.0656 132.11C52.366 131.838 52.719 131.63 53.1028 131.499C53.4866 131.368 53.8932 131.317 54.2974 131.349C54.7367 131.351 55.1713 131.44 55.5754 131.613C55.9795 131.785 56.3449 132.037 56.65 132.353C56.9551 132.669 57.1938 133.043 57.3518 133.453C57.5099 133.863 57.5841 134.3 57.5702 134.739C57.562 135.291 57.4433 135.835 57.221 136.339C56.9987 136.844 56.6775 137.299 56.2762 137.677C55.875 138.055 55.4019 138.349 54.8851 138.541C54.3683 138.733 53.8182 138.819 53.2674 138.794C52.5825 138.837 51.8964 138.735 51.2532 138.496C50.61 138.258 50.0239 137.887 49.5326 137.408C49.0413 136.929 48.6558 136.352 48.4007 135.715C48.1457 135.078 48.0269 134.395 48.0518 133.709C47.9997 130.41 50.5422 127.751 53.3326 126.173Z" fill="#9468B4"/>
<path d="M64.0508 135.822H127.993" stroke="white" stroke-linecap="round" stroke-linejoin="round"/>
<path d="M64.0508 141.312H127.993" stroke="white" stroke-linecap="round" stroke-linejoin="round"/>
<path d="M64.0508 146.801H127.993" stroke="white" stroke-linecap="round" stroke-linejoin="round"/>
<path d="M64.0508 152.303H127.993" stroke="white" stroke-linecap="round" stroke-linejoin="round"/>
<path d="M116.68 240.536C129.878 238.382 138.831 225.937 136.677 212.739C134.523 199.541 122.077 190.588 108.879 192.742C95.6814 194.896 86.7287 207.342 88.8828 220.54C91.037 233.737 103.482 242.69 116.68 240.536Z" fill="#263238" stroke="#263238" stroke-linecap="round" stroke-linejoin="round"/>
<path d="M128.138 230.15C135.584 221.671 134.747 208.761 126.268 201.315C117.789 193.869 104.88 194.706 97.4336 203.185C89.9875 211.664 90.8245 224.573 99.3033 232.02C107.782 239.466 120.692 238.629 128.138 230.15Z" fill="white" stroke="#263238" stroke-linecap="round" stroke-linejoin="round"/>
<path d="M112.791 201.863V216.636H122.779" stroke="#263238" stroke-width="2" stroke-linecap="round" stroke-linejoin="round"/>
<path d="M264.275 216.689C264.275 216.689 278.161 246.326 278.161 247.891C278.161 249.455 265.84 256.157 263.493 257.566C261.672 258.603 259.796 259.538 257.873 260.369L259.281 274.099C259.281 274.099 280.495 269.261 289.388 264.424C298.28 259.587 297.968 254.123 295.907 246.013C293.847 237.903 280.143 206.558 280.143 206.558L264.275 216.689Z" fill="white"/>
<g style="mix-blend-mode:multiply" opacity="0.5">
<path d="M289.349 264.424C298.241 259.587 297.928 254.123 295.868 246.013C293.808 237.903 280.104 206.558 280.104 206.558L277.888 207.966L277.184 209.27C277.184 209.27 289.975 240.667 290.744 251.124C291.266 258.152 277.118 266.914 267.77 271.921C274.706 270.083 284.146 267.253 289.349 264.424Z" fill="#9468B4"/>
</g>
<path d="M264.275 216.689C264.275 216.689 278.161 246.326 278.161 247.891C278.161 249.455 265.84 256.157 263.493 257.566C261.672 258.603 259.796 259.538 257.873 260.369L259.281 274.099C259.281 274.099 280.495 269.261 289.388 264.424C298.28 259.587 297.968 254.123 295.907 246.013C293.847 237.903 280.143 206.558 280.143 206.558L264.275 216.689Z" stroke="#263238" stroke-linecap="round" stroke-linejoin="round"/>
<path d="M164.085 210.143C164.085 210.143 153.954 247.264 153.654 253.823C153.354 260.381 173.773 273.316 174.516 274.098C175.259 274.88 173.355 251.541 173.355 251.541L180.279 217.64L164.085 210.143Z" fill="white"/>
<g style="mix-blend-mode:multiply" opacity="0.5">
<path d="M168.727 213.181L168.505 212.177L164.085 210.143C164.085 210.143 153.954 247.264 153.654 253.823C153.354 260.381 173.773 273.316 174.516 274.098C174.816 274.411 174.698 270.917 174.451 266.601C168.375 261.45 159.652 254.201 158.634 251.15" fill="#9468B4"/>
</g>
<path d="M164.085 210.143C164.085 210.143 153.954 247.264 153.654 253.823C153.354 260.381 173.773 273.316 174.516 274.098C175.259 274.88 173.355 251.541 173.355 251.541L180.279 217.64L164.085 210.143Z" stroke="#263238" stroke-linecap="round" stroke-linejoin="round"/>
<path d="M211.663 172.852C211.663 172.852 207.752 175.668 200.124 175.981C192.496 176.294 192.131 170.766 182.652 170.766C171.165 170.766 156.757 207.105 156.757 207.105C156.757 207.105 163.928 214.133 170.956 217.093C174.844 218.796 178.931 220.001 183.121 220.678L184.217 244.552H261.589L262.515 220.678L286.702 204.993C286.702 204.993 274.837 183.778 269.074 175.825C263.31 167.871 253.622 170.831 250.663 172.852C247.703 174.873 238.928 175.355 235.694 174.886C231.476 173.952 227.307 172.808 223.203 171.457C223.203 171.457 218.222 167.31 211.663 172.852Z" fill="#9468B4" stroke="#263238" stroke-linecap="round" stroke-linejoin="round"/>
<path d="M183.904 181.274L183.591 220.899" stroke="#263238" stroke-width="0.5" stroke-linecap="round" stroke-linejoin="round"/>
<path d="M186.707 184.874C186.707 184.874 187.802 204.211 191.923 214.981" stroke="#263238" stroke-width="0.5" stroke-linecap="round" stroke-linejoin="round"/>
<path d="M192.64 216.532C193.53 219.161 194.624 221.715 195.912 224.173" stroke="#263238" stroke-width="0.5" stroke-linecap="round" stroke-linejoin="round"/>
<path d="M189.197 182.683C190.677 189.714 192.767 196.603 195.443 203.271" stroke="#263238" stroke-width="0.5" stroke-linecap="round" stroke-linejoin="round"/>
<path d="M256.452 186.112C256.452 186.112 252.71 201.407 249.424 208.278" stroke="#263238" stroke-width="0.5" stroke-linecap="round" stroke-linejoin="round"/>
<path d="M262.515 220.744L262.358 189.854" stroke="#263238" stroke-width="0.5" stroke-linecap="round" stroke-linejoin="round"/>
<path d="M260.807 190.48C260.807 190.48 257.99 210.039 251.132 220.274" stroke="#263238" stroke-width="0.5" stroke-linecap="round" stroke-linejoin="round"/>
<path d="M257.377 216.375C257.377 216.375 254.248 222.308 252.07 225.424" stroke="#263238" stroke-width="0.5" stroke-linecap="round" stroke-linejoin="round"/>
<path d="M207.295 175.199C207.295 175.199 209.485 188.616 212.602 195.475C215.718 202.333 221.181 203.741 225.862 201.72C230.543 199.699 233.972 189.698 233.686 176.946" stroke="#263238" stroke-width="0.5" stroke-linecap="round" stroke-linejoin="round"/>
<path d="M196.226 147.113C196.226 147.113 193.253 141.976 190.919 144.623C188.585 147.27 192.797 153.359 195.131 155.38C197.465 157.401 199.186 156.162 199.042 153.985C198.899 151.807 196.226 147.113 196.226 147.113Z" fill="#9468B4" stroke="#263238" stroke-linecap="round" stroke-linejoin="round"/>
<path opacity="0.5" d="M196.226 147.113C196.226 147.113 193.253 141.976 190.919 144.623C188.585 147.27 192.797 153.359 195.131 155.38C197.465 157.401 199.186 156.162 199.042 153.985C198.899 151.807 196.226 147.113 196.226 147.113Z" fill="white"/>
<path d="M196.226 147.113C196.226 147.113 193.253 141.976 190.919 144.623C188.585 147.27 192.797 153.359 195.131 155.38C197.465 157.401 199.186 156.162 199.042 153.985C198.899 151.807 196.226 147.113 196.226 147.113Z" stroke="#263238" stroke-linecap="round" stroke-linejoin="round"/>
<path d="M243.413 147.113C243.413 147.113 246.373 141.976 248.72 144.623C251.067 147.27 246.842 153.359 244.508 155.38C242.174 157.401 240.44 156.162 240.597 153.985C240.753 151.807 243.413 147.113 243.413 147.113Z" fill="#9468B4" stroke="#263238" stroke-linecap="round" stroke-linejoin="round"/>
<path opacity="0.5" d="M243.413 147.113C243.413 147.113 246.373 141.976 248.72 144.623C251.067 147.27 246.842 153.359 244.508 155.38C242.174 157.401 240.44 156.162 240.597 153.985C240.753 151.807 243.413 147.113 243.413 147.113Z" fill="white"/>
<path d="M243.413 147.113C243.413 147.113 246.373 141.976 248.72 144.623C251.067 147.27 246.842 153.359 244.508 155.38C242.174 157.401 240.44 156.162 240.597 153.985C240.753 151.807 243.413 147.113 243.413 147.113Z" stroke="#263238" stroke-linecap="round" stroke-linejoin="round"/>
<path d="M210.255 171.77C211.728 178.427 213.604 184.989 215.875 191.419C218.691 198.434 223.985 198.434 226.175 193.909C228.366 189.385 229.761 172.526 229.761 172.526C229.761 172.526 215.092 174.573 210.255 171.77Z" fill="white" stroke="#263238" stroke-linecap="round" stroke-linejoin="round"/>
<path d="M196.539 148.835C196.539 148.835 200.594 163.177 208.274 171.614C215.953 180.05 218.705 182.045 222.786 181.432C226.867 180.819 231.209 175.512 237.285 164.481C243.361 153.45 243.804 144.988 244.313 144.206C244.821 143.424 243.009 127.829 234.325 121.114C225.641 114.399 215.914 111.452 207.491 118.78C199.068 126.108 193.722 138.065 196.539 148.835Z" fill="white"/>
<g style="mix-blend-mode:multiply" opacity="0.5">
<path d="M234.286 121.061C225.55 114.359 215.875 111.4 207.452 118.727C199.029 126.055 193.722 138.064 196.538 148.834C196.538 148.834 197.307 151.598 198.833 155.354C198.828 154.873 198.894 154.394 199.029 153.932C200.893 148.026 206.395 136.591 224.911 141.832C239.618 145.979 237.819 158.913 236.45 165.811L237.245 164.376C243.335 153.307 243.765 144.883 244.273 144.101C244.782 143.319 243.022 127.776 234.286 121.061Z" fill="#9468B4"/>
</g>
<path d="M196.539 148.835C196.539 148.835 200.594 163.177 208.274 171.614C215.953 180.05 218.705 182.045 222.786 181.432C226.867 180.819 231.209 175.512 237.285 164.481C243.361 153.45 243.804 144.988 244.313 144.206C244.821 143.424 243.009 127.829 234.325 121.114C225.641 114.399 215.914 111.452 207.491 118.78C199.068 126.108 193.722 138.065 196.539 148.835Z" stroke="#263238" stroke-linecap="round" stroke-linejoin="round"/>
<path d="M222.746 156.318C222.263 159.364 222.001 162.44 221.964 165.524C222.121 168.64 223.059 169.579 221.651 169.892C220.243 170.205 218.691 168.014 218.691 168.014" stroke="#263238" stroke-linecap="round" stroke-linejoin="round"/>
<path d="M207.139 158.822C208.043 159.475 209.123 159.839 210.237 159.867C211.352 159.895 212.449 159.585 213.384 158.979" stroke="#263238" stroke-linecap="round" stroke-linejoin="round"/>
<path d="M226.958 158.822C227.86 159.474 228.938 159.838 230.05 159.866C231.162 159.894 232.257 159.584 233.191 158.979" stroke="#263238" stroke-linecap="round" stroke-linejoin="round"/>
<path d="M217.101 153.567C217.101 153.567 214.128 146.226 204.31 149.656" stroke="#263238" stroke-linecap="round" stroke-linejoin="round"/>
<path d="M225.275 152.668C225.275 152.668 227.766 145.483 236.658 149.695" stroke="#263238" stroke-linecap="round" stroke-linejoin="round"/>
<path d="M218.992 159.357C218.992 163.373 214.389 166.619 208.704 166.619C203.019 166.619 198.403 163.373 198.403 159.357C198.403 155.341 202.706 153.672 208.391 153.672C214.076 153.672 218.992 155.354 218.992 159.357Z" stroke="#263238" stroke-linecap="round" stroke-linejoin="round"/>
<path d="M242.708 159.357C242.708 163.373 238.093 166.619 232.408 166.619C226.723 166.619 222.12 163.373 222.12 159.357C222.12 155.341 226.41 153.672 232.095 153.672C237.78 153.672 242.708 155.354 242.708 159.357Z" stroke="#263238" stroke-linecap="round" stroke-linejoin="round"/>
<path d="M111.238 284.438L110.599 442.508C110.599 443.006 110.796 443.484 111.149 443.836C111.501 444.188 111.978 444.386 112.476 444.386C112.962 444.386 113.428 444.197 113.777 443.859C114.125 443.52 114.327 443.059 114.341 442.574L118.852 284.66L111.238 284.438Z" fill="white" stroke="#263238" stroke-linecap="round" stroke-linejoin="round"/>
<path d="M100.598 321.391L99.9854 484.807C99.9837 485.054 100.031 485.299 100.125 485.527C100.219 485.756 100.357 485.963 100.531 486.138C100.706 486.313 100.914 486.451 101.142 486.545C101.371 486.638 101.616 486.686 101.863 486.684C102.348 486.685 102.814 486.498 103.164 486.162C103.514 485.827 103.72 485.369 103.741 484.885L108.239 321.599L100.598 321.391Z" fill="white" stroke="#263238" stroke-linecap="round" stroke-linejoin="round"/>
<path d="M329.769 284.438L330.408 442.508C330.409 442.754 330.362 442.998 330.269 443.226C330.176 443.454 330.039 443.661 329.866 443.835C329.693 444.01 329.487 444.148 329.26 444.243C329.033 444.337 328.789 444.386 328.543 444.386C328.056 444.386 327.588 444.198 327.238 443.859C326.888 443.521 326.682 443.06 326.665 442.574L322.167 284.66L329.769 284.438Z" fill="white" stroke="#263238" stroke-linecap="round" stroke-linejoin="round"/>
<path d="M340.421 321.391L341.06 484.807C341.062 485.054 341.015 485.299 340.921 485.527C340.827 485.756 340.689 485.963 340.514 486.138C340.339 486.313 340.132 486.451 339.903 486.545C339.675 486.638 339.43 486.686 339.183 486.684C338.699 486.684 338.235 486.497 337.887 486.161C337.539 485.826 337.335 485.368 337.318 484.885L332.807 321.599L340.421 321.391Z" fill="white" stroke="#263238" stroke-linecap="round" stroke-linejoin="round"/>
<path d="M174.685 328.184L174.307 473.228C174.266 473.59 174.366 473.953 174.587 474.243C174.809 474.532 175.133 474.724 175.493 474.779C175.845 474.731 176.165 474.55 176.388 474.274C176.61 473.997 176.72 473.647 176.693 473.293L179.522 328.353L174.685 328.184Z" fill="white" stroke="#263238" stroke-linecap="round" stroke-linejoin="round"/>
<path d="M266.491 323.516L266.843 450.097C266.873 450.403 266.785 450.709 266.595 450.952C266.406 451.195 266.131 451.355 265.826 451.401C265.523 451.355 265.249 451.194 265.062 450.951C264.874 450.708 264.789 450.402 264.822 450.097L262.41 323.62L266.491 323.516Z" fill="white" stroke="#263238" stroke-linecap="round" stroke-linejoin="round"/>
<path d="M173.264 323.516L173.616 450.097C173.646 450.403 173.557 450.709 173.368 450.952C173.179 451.195 172.903 451.355 172.599 451.401C172.295 451.355 172.021 451.194 171.834 450.951C171.647 450.708 171.561 450.402 171.595 450.097L169.183 323.62L173.264 323.516Z" fill="white" stroke="#263238" stroke-linecap="round" stroke-linejoin="round"/>
<path d="M263.871 328.184L264.275 473.228C264.316 473.59 264.216 473.953 263.995 474.243C263.773 474.532 263.449 474.724 263.089 474.779C262.738 474.728 262.421 474.546 262.198 474.271C261.976 473.995 261.866 473.646 261.889 473.293L259.06 328.353L263.871 328.184Z" fill="white" stroke="#263238" stroke-linecap="round" stroke-linejoin="round"/>
<path d="M218.639 338.341C250.684 338.341 276.662 332.404 276.662 325.081C276.662 317.757 250.684 311.82 218.639 311.82C186.594 311.82 160.616 317.757 160.616 325.081C160.616 332.404 186.594 338.341 218.639 338.341Z" fill="white" stroke="#263238" stroke-linecap="round" stroke-linejoin="round"/>
<path d="M190.384 437.645C190.384 437.645 187.346 442 189.524 444.164C191.701 446.329 193.866 445.468 193.644 447.646C193.422 449.823 189.954 457.203 186.916 465.027C183.878 472.85 190.176 480.673 196.043 478.509C201.911 476.344 201.259 454.595 202.119 450.684C202.98 446.772 203.645 446.12 203.423 442.43C203.202 438.74 202.993 434.829 200.164 434.385C197.334 433.942 191.688 436.132 190.384 437.645Z" fill="white" stroke="#263238" stroke-linecap="round" stroke-linejoin="round"/>
<path d="M199.707 472.51C195.795 471.024 189.797 471.324 186.42 471.663C187.554 476.578 191.896 480.034 196.043 478.508C197.777 477.869 198.911 475.548 199.707 472.51Z" fill="#9468B4" stroke="#263238" stroke-linecap="round" stroke-linejoin="round"/>
<path d="M183.656 428.087C183.656 428.087 189.954 438.74 191.688 441.556C193.422 444.372 199.303 443.512 199.955 439.6C200.607 435.688 197.556 424.827 197.556 424.827L184.517 428.087H183.656Z" fill="white" stroke="#263238" stroke-linecap="round" stroke-linejoin="round"/>
<path d="M168.661 411.137C168.661 411.137 166.914 413.967 167.788 415.922C168.661 417.878 171.047 423.524 172.573 426.354C174.098 429.183 181.048 430.917 189.08 429.613C197.112 428.309 201.689 424.606 201.91 421.347C202.132 418.087 200.606 413.745 199.511 408.529C198.416 403.314 195.599 403.536 191.688 403.536C187.776 403.536 171.921 408.099 168.661 411.137Z" fill="#9468B4" stroke="#263238" stroke-linecap="round" stroke-linejoin="round"/>
<path d="M192.131 347.247C192.249 341.901 195.339 339.267 195.574 335.603C195.941 330.759 195.541 325.888 194.387 321.169L188.441 313.046C171.334 313.268 159.078 313.554 158.882 313.62C158.23 313.828 157.787 317.531 157.357 320.569C157.357 320.569 150.094 321.495 151.398 341.705C151.58 344.522 158.908 377.106 159.443 380.822C162.703 403.523 169.965 414.892 169.965 414.892C169.965 414.892 170.617 417.722 179.092 417.07C187.568 416.418 196.043 410.772 196.043 410.772C196.043 410.772 191.688 366.583 192.131 347.247Z" fill="#263238" stroke="#263238" stroke-linecap="round" stroke-linejoin="round"/>
<path d="M156.183 317.257C156.183 317.257 147.199 318.56 141.696 324.845C136.194 331.13 140.862 335.276 151.554 334.155C162.246 333.034 174.58 322.094 175.102 321.507C175.624 320.921 163.954 313.488 156.183 317.257Z" fill="white" stroke="#263238" stroke-linecap="round" stroke-linejoin="round"/>
<path d="M172.13 321.169C177.853 321.464 183.532 322.337 189.08 323.777C196.473 325.954 209.512 330.296 212.55 330.296C215.588 330.296 214.727 318.992 214.727 316.827C214.727 314.663 175.611 313.346 170.826 313.346C166.04 313.346 172.13 321.169 172.13 321.169Z" fill="white" stroke="#263238" stroke-linecap="round" stroke-linejoin="round"/>
<path d="M214.728 316.827C214.728 316.827 211.246 318.561 209.942 325.08C208.638 331.6 206.904 335.081 209.512 336.815C212.12 338.55 223.424 339.853 225.159 338.119C226.893 336.385 231.678 327.688 232.552 322.042C233.425 316.397 214.728 316.827 214.728 316.827Z" fill="#9468B4" stroke="#263238" stroke-linecap="round" stroke-linejoin="round"/>
<path d="M229.5 318.991C227.479 321.311 225.866 323.956 224.728 326.815C223.807 329.807 223.079 332.856 222.551 335.942C226.711 337.082 230.778 338.538 234.716 340.297C241.679 343.335 253.414 345.512 264.705 348.12C275.997 350.728 279.048 353.336 282.96 353.336C286.871 353.336 291.657 350.285 297.746 342.905C303.835 335.525 298.606 319.865 292.53 315.08C286.454 310.294 253.844 306.396 249.502 307.7C245.16 309.004 229.5 318.991 229.5 318.991Z" fill="#263238" stroke="#263238" stroke-linecap="round" stroke-linejoin="round"/>
<path d="M147.955 334.273C147.097 330.372 145.357 326.719 142.87 323.594C142.466 323.972 142.075 324.363 141.697 324.793C136.859 330.296 139.884 334.207 147.955 334.273Z" fill="#9468B4" stroke="#263238" stroke-linecap="round" stroke-linejoin="round"/>
<path d="M191.466 337.715C191.466 337.715 186.98 385.711 177.827 393.182" stroke="white" stroke-width="0.5" stroke-linecap="round" stroke-linejoin="round"/>
<path d="M188.298 383.272C188.298 383.272 184.738 398.919 175.402 405.139" stroke="white" stroke-width="0.5" stroke-linecap="round" stroke-linejoin="round"/>
<path d="M246.02 328.992C246.02 328.992 232.108 329.866 241.235 335.942C250.362 342.018 266.882 345.943 266.882 345.943" stroke="white" stroke-width="0.5" stroke-linecap="round" stroke-linejoin="round"/>
<path d="M347.02 312.55L342.326 308.325L331.477 284.855C330.963 283.788 330.155 282.888 329.148 282.263C328.142 281.637 326.978 281.311 325.792 281.322H115.085C113.897 281.308 112.731 281.633 111.721 282.259C110.712 282.885 109.902 283.785 109.387 284.855L95.8654 314.088L93.6357 313.267V319.956L93.7401 319.878C93.8729 320.77 94.3258 321.584 95.0144 322.167C95.7029 322.75 96.5801 323.062 97.4822 323.046H343.382C344.332 323.068 345.253 322.72 345.952 322.075C346.65 321.43 347.07 320.54 347.124 319.591L347.02 312.55Z" fill="#263238" stroke="#263238" stroke-linecap="round" stroke-linejoin="round"/>
<path d="M343.383 316.931H97.4829C96.8739 316.955 96.2688 316.824 95.7242 316.551C95.1797 316.277 94.7136 315.87 94.3695 315.367C94.0255 314.864 93.8148 314.282 93.7573 313.675C93.6998 313.068 93.7972 312.457 94.0406 311.898L109.387 278.74C109.9 277.668 110.71 276.766 111.719 276.14C112.729 275.514 113.897 275.19 115.085 275.207H325.793C326.979 275.192 328.144 275.517 329.152 276.143C330.159 276.77 330.966 277.67 331.478 278.74L346.825 311.898C347.068 312.457 347.166 313.068 347.108 313.675C347.051 314.282 346.84 314.864 346.496 315.367C346.152 315.87 345.686 316.277 345.141 316.551C344.597 316.824 343.992 316.955 343.383 316.931Z" fill="white" stroke="#263238" stroke-linecap="round" stroke-linejoin="round"/>
<g style="mix-blend-mode:multiply" opacity="0.5">
<path d="M109.934 294.661C109.934 294.661 104.367 298.481 107.848 299.876C111.33 301.271 151.346 300.228 156.222 298.833C161.099 297.438 166.653 284.568 166.653 282.482C166.653 280.396 159.638 278.897 157.057 278.779C154.475 278.662 120.365 280.735 120.365 280.735L109.934 294.661Z" fill="#9468B4"/>
</g>
<g style="mix-blend-mode:multiply" opacity="0.5">
<path d="M308.985 301.272C316.863 301.272 323.25 298.622 323.25 295.352C323.25 292.083 316.863 289.433 308.985 289.433C301.107 289.433 294.721 292.083 294.721 295.352C294.721 298.622 301.107 301.272 308.985 301.272Z" fill="#9468B4"/>
</g>
<g style="mix-blend-mode:multiply" opacity="0.5">
<path d="M218.169 308.586C246.419 308.586 269.32 304.301 269.32 299.016C269.32 293.73 246.419 289.445 218.169 289.445C189.919 289.445 167.018 293.73 167.018 299.016C167.018 304.301 189.919 308.586 218.169 308.586Z" fill="#9468B4"/>
</g>
<path d="M298.554 272.064C298.554 272.064 297.615 268.322 294.499 269.574C291.383 270.825 291.696 279.092 292.308 283.773C292.921 288.454 297.146 286.263 297.146 286.263V283.46C297.146 283.46 295.594 284.699 294.812 282.991C294.03 281.282 294.186 272.69 294.968 272.846C295.751 273.003 297.302 275.65 297.302 275.65C297.302 275.65 297.772 275.35 298.554 272.064Z" fill="#9468B4" stroke="#263238" stroke-linecap="round" stroke-linejoin="round"/>
<path d="M296.312 272.69V293.188C296.312 295.6 301.854 297.556 308.699 297.556C315.545 297.556 321.073 295.6 321.073 293.188V272.69H296.312Z" fill="#9468B4" stroke="#263238" stroke-linecap="round" stroke-linejoin="round"/>
<path d="M321.073 272.69C321.073 274.776 315.532 276.458 308.699 276.458C301.867 276.458 296.312 274.776 296.312 272.69C296.312 270.604 301.854 268.922 308.699 268.922C315.545 268.922 321.073 270.617 321.073 272.69Z" fill="white" stroke="#263238" stroke-linecap="round" stroke-linejoin="round"/>
<path d="M319.455 272.691C319.455 274.503 314.631 275.963 308.698 275.963C302.765 275.963 297.928 274.503 297.928 272.691C297.928 270.878 302.752 269.418 308.698 269.418C314.644 269.418 319.455 270.878 319.455 272.691Z" fill="white" stroke="#263238" stroke-linecap="round" stroke-linejoin="round"/>
<path d="M300.394 274.776C305.813 276.358 311.572 276.358 316.992 274.776C311.572 273.194 305.813 273.194 300.394 274.776Z" fill="#263238" stroke="#263238" stroke-linecap="round" stroke-linejoin="round"/>
<path d="M108.396 282.053L108.552 289.068L155.818 289.537V281.427L108.396 282.053Z" fill="white" stroke="#263238" stroke-linecap="round" stroke-linejoin="round"/>
<path d="M155.818 289.537L162.689 274.724V270.356L155.505 282.835L155.818 289.537Z" fill="white" stroke="#263238" stroke-linecap="round" stroke-linejoin="round"/>
<path d="M108.396 288.441L108.552 295.469L155.818 295.938V287.828L108.396 288.441Z" fill="white" stroke="#263238" stroke-linecap="round" stroke-linejoin="round"/>
<path d="M155.818 295.938L162.689 281.113V276.745L155.505 289.223L155.818 295.938Z" fill="white" stroke="#263238" stroke-linecap="round" stroke-linejoin="round"/>
<path d="M126.65 264.267C126.65 264.267 127.745 262.09 126.181 261.151C124.616 260.212 122.908 262.455 121.969 263.172C121.03 263.889 101.381 276.902 100.755 278.936C100.129 280.97 100.755 285.455 104.966 285.951C109.178 286.446 112.92 283.617 114.798 283.147C116.675 282.678 117.406 282.522 117.406 282.522L130.353 265.05L126.65 264.267Z" fill="white" stroke="#263238" stroke-linecap="round" stroke-linejoin="round"/>
<path d="M104.967 285.963C109.178 286.433 112.92 283.63 114.798 283.16C116.675 282.691 117.406 282.534 117.406 282.534L117.875 281.895L105.71 279.418C105.048 278.795 104.198 278.411 103.293 278.326C102.389 278.241 101.482 278.46 100.716 278.949C100.129 280.957 100.755 285.481 104.967 285.963Z" fill="white" stroke="#263238" stroke-linecap="round" stroke-linejoin="round"/>
<path d="M105.749 279.445H142.258C153.654 279.445 157.083 278.819 157.083 278.819L164.098 264.307C164.098 264.307 141.932 265.715 135.086 265.245C132.258 265.164 129.441 264.85 126.663 264.307L105.749 279.445Z" fill="white" stroke="#263238" stroke-linecap="round" stroke-linejoin="round"/>
<path d="M105.749 279.445L106.375 282.248C106.375 282.248 136.012 282.404 143.809 282.404C151.607 282.404 157.539 282.717 157.539 282.717L157.07 278.806L105.749 279.445Z" fill="white" stroke="#263238" stroke-linecap="round" stroke-linejoin="round"/>
<path d="M157.539 282.678L164.084 267.697V264.268L157.069 278.78L157.539 282.678Z" fill="white" stroke="#263238" stroke-linecap="round" stroke-linejoin="round"/>
<path d="M262.841 300.202H173.46C173.262 300.204 173.065 300.166 172.882 300.092C172.699 300.017 172.532 299.907 172.391 299.768C172.25 299.628 172.139 299.462 172.063 299.279C171.986 299.097 171.947 298.901 171.947 298.703C171.947 298.505 171.986 298.309 172.063 298.126C172.139 297.943 172.25 297.777 172.391 297.638C172.532 297.498 172.699 297.388 172.882 297.314C173.065 297.239 173.262 297.201 173.46 297.203H262.841C263.038 297.201 263.234 297.239 263.417 297.314C263.6 297.389 263.766 297.499 263.905 297.639C264.045 297.778 264.155 297.944 264.23 298.127C264.305 298.309 264.342 298.505 264.341 298.703C264.342 298.9 264.305 299.096 264.23 299.279C264.155 299.461 264.045 299.627 263.905 299.767C263.766 299.906 263.6 300.017 263.417 300.092C263.234 300.166 263.038 300.204 262.841 300.202Z" fill="white" stroke="#263238" stroke-linecap="round" stroke-linejoin="round"/>
<path d="M263.597 297.178H172.691C172.358 297.178 172.038 297.052 171.795 296.824C171.553 296.596 171.407 296.284 171.387 295.952L166.445 236.56C166.423 236.376 166.44 236.19 166.495 236.013C166.551 235.836 166.643 235.673 166.767 235.535C166.89 235.397 167.042 235.287 167.211 235.212C167.38 235.136 167.564 235.098 167.749 235.1H268.552C268.737 235.098 268.921 235.136 269.09 235.212C269.259 235.287 269.411 235.397 269.534 235.535C269.658 235.673 269.75 235.836 269.806 236.013C269.861 236.19 269.878 236.376 269.856 236.56L264.914 295.952C264.894 296.286 264.746 296.6 264.501 296.828C264.256 297.056 263.932 297.182 263.597 297.178Z" fill="white" stroke="#263238" stroke-linecap="round" stroke-linejoin="round"/>
<path d="M226.723 267.162C226.723 270.708 222.876 273.577 218.143 273.577C213.41 273.577 209.551 270.708 209.551 267.162C209.551 263.615 213.397 260.76 218.143 260.76C222.89 260.76 226.723 263.628 226.723 267.162Z" fill="white" stroke="#263238" stroke-linecap="round" stroke-linejoin="round"/>
<path d="M315.558 220.769C316.952 219.681 317.932 218.149 318.335 216.427C318.628 215.136 318.597 213.792 318.244 212.516" stroke="#263238" stroke-linecap="round" stroke-linejoin="round"/>
<path d="M305.152 267.266C305.152 267.266 313.823 262.051 310.994 256.092C308.164 250.133 298.594 246.182 298.594 236.899C298.594 228.893 307.108 225.933 312.663 222.726" stroke="#263238" stroke-linecap="round" stroke-linejoin="round"/>
<path d="M313.157 267.096C313.157 267.096 317.995 263.876 317.995 258.765C317.995 255.335 314.331 253.093 309.493 247.577" stroke="#263238" stroke-linecap="round" stroke-linejoin="round"/>
<path d="M306.821 244.24C306.821 244.24 303.653 241.749 305.987 237.068" stroke="#263238" stroke-linecap="round" stroke-linejoin="round"/>
<path d="M233.412 107.658C234.964 107.332 238.289 106.054 240.531 100.851C240.566 100.773 240.585 100.688 240.586 100.602C240.588 100.516 240.572 100.43 240.541 100.35C240.509 100.27 240.462 100.197 240.403 100.136C240.343 100.074 240.271 100.025 240.192 99.9907C240.033 99.9244 239.854 99.9228 239.694 99.9861C239.533 100.049 239.403 100.173 239.332 100.33C237.272 105.102 234.325 106.158 233.099 106.393C235.293 103.738 236.504 100.409 236.528 96.9657C236.528 87.9167 228.144 80.5889 217.805 80.5889C207.465 80.5889 199.081 87.9167 199.081 96.9657C199.088 100.27 200.188 103.479 202.21 106.093C200.241 105.989 196.916 106.823 192.705 111.739C192.585 111.863 192.517 112.029 192.517 112.202C192.517 112.374 192.585 112.54 192.705 112.664C192.826 112.765 192.978 112.82 193.135 112.821C193.23 112.821 193.324 112.8 193.409 112.759C193.495 112.719 193.571 112.66 193.631 112.586C199.016 106.315 202.575 107.371 203.292 107.658C202.075 108.327 200.934 109.127 199.889 110.044C193.878 115.455 190.214 125.69 190.684 134.218C191.212 139.873 193.262 145.281 196.617 149.864C200.982 146.74 204.602 142.688 207.217 137.999C209.166 134.555 210.907 130.998 212.433 127.346C212.433 131.167 212.928 135.782 214.936 139.081C216.385 141.687 218.507 143.855 221.08 145.36C223.654 146.865 226.585 147.65 229.566 147.635C230.595 147.649 231.623 147.549 232.63 147.335C232.718 147.313 232.801 147.272 232.873 147.216C232.945 147.16 233.004 147.089 233.047 147.009C238.08 148.078 243.087 147.987 243.856 146.918C245.095 145.209 246.855 139.877 247.442 133.357C248.511 122.3 241.548 112.704 233.412 107.658ZM216.149 138.286C213.619 134.152 213.697 127.411 213.997 123.539L214.167 123.096C214.287 127.078 215.302 130.983 217.137 134.52C218.973 138.057 221.58 141.136 224.767 143.527C226.528 144.744 228.481 145.657 230.544 146.226C227.349 146.448 220.778 145.835 216.149 138.286Z" fill="#263238"/>
<path d="M216.37 117.763C216.37 117.763 215.301 125.664 225.341 133.409C235.381 141.154 244.899 138.103 244.899 138.103" stroke="white" stroke-width="0.5" stroke-linecap="round" stroke-linejoin="round"/>
<path d="M217.844 115.155C217.844 115.155 228.418 130.554 243.022 126.538" stroke="white" stroke-width="0.5" stroke-linecap="round" stroke-linejoin="round"/>
<path d="M212.615 110.031C210.948 109.184 209.079 108.812 207.215 108.955C205.35 109.097 203.56 109.749 202.041 110.839C196.421 114.582 193.604 123.422 193.604 123.422" stroke="white" stroke-width="0.5" stroke-linecap="round" stroke-linejoin="round"/>
<path d="M212.889 114.32C212.889 114.32 208.339 113.108 205.522 115.924C204.15 117.168 202.976 118.615 202.041 120.214" stroke="white" stroke-width="0.5" stroke-linecap="round" stroke-linejoin="round"/>
</svg>
