<svg width="555" height="465" viewBox="0 0 555 465" fill="none" xmlns="http://www.w3.org/2000/svg">
<path d="M272.513 464.11C423.018 464.11 545.026 456.986 545.026 448.199C545.026 439.412 423.018 432.289 272.513 432.289C122.008 432.289 0 439.412 0 448.199C0 456.986 122.008 464.11 272.513 464.11Z" fill="#F5F5F5" fill-opacity="0.15"/>
<path d="M122.631 435.958L133.636 431.784L126.89 405.191L115.885 409.366L122.631 435.958Z" fill="white"/>
<path d="M39.9443 436.183H51.7084L53.4794 408.916H41.7012L39.9443 436.183Z" fill="white"/>
<path d="M52.8894 434.819H38.5392C38.3088 434.816 38.0845 434.895 37.9068 435.041C37.7291 435.188 37.6095 435.394 37.5694 435.621L35.7704 446.078C35.7342 446.339 35.7544 446.604 35.8297 446.857C35.905 447.109 36.0336 447.342 36.2068 447.541C36.38 447.74 36.5937 447.899 36.8337 448.007C37.0736 448.116 37.3341 448.172 37.5976 448.172C42.2076 448.087 45.5668 447.82 51.3855 447.82C54.9555 447.82 65.7639 448.2 70.7112 448.2C75.6586 448.2 76.0522 443.309 74.0001 442.859C64.8362 440.877 57.8649 438.151 54.829 435.536C54.2875 435.076 53.6004 434.822 52.8894 434.819Z" fill="#263238"/>
<path d="M133.074 430.546L121.057 435.1C120.837 435.184 120.653 435.339 120.533 435.54C120.413 435.742 120.365 435.978 120.396 436.21L121.942 446.808C121.969 447.069 122.056 447.321 122.197 447.543C122.337 447.765 122.528 447.951 122.752 448.087C122.977 448.223 123.23 448.306 123.492 448.327C123.754 448.349 124.017 448.31 124.261 448.213C128.562 446.499 132.23 444.32 137.712 442.352C143.974 440.317 149.997 437.607 155.674 434.271C159.75 431.685 158.035 426.765 156.11 427.538C147.368 431.052 145.217 432.205 136.039 430.434C135.059 430.196 134.033 430.235 133.074 430.546Z" fill="#263238"/>
<path d="M102.027 77.498C105.723 84.0477 109.63 90.7941 113.566 97.3156C117.501 103.837 121.535 110.359 125.822 116.431C126.848 117.963 128 119.438 129.04 120.858C129.271 121.271 129.581 121.634 129.954 121.926C130.612 122.263 131.361 122.381 132.09 122.263C133.434 122.126 134.753 121.81 136.012 121.322C139.201 120.07 142.245 118.478 145.091 116.571C146.609 115.573 148.155 114.547 149.659 113.451C151.163 112.355 152.681 111.174 154.058 110.12L160.65 115.995C159.448 117.732 158.158 119.407 156.785 121.012C155.458 122.632 154.051 124.185 152.569 125.665C151.048 127.197 149.438 128.637 147.748 129.98C145.986 131.42 144.105 132.709 142.126 133.831C139.891 135.125 137.489 136.104 134.986 136.74C131.874 137.543 128.61 137.543 125.499 136.74C122.136 135.804 119.121 133.903 116.827 131.273C115.421 129.642 114.016 128.11 112.751 126.494C107.661 120.179 102.927 113.587 98.5691 106.747C94.2121 99.9721 90.1361 93.1835 86.3975 85.9592L102.027 77.498Z" fill="white"/>
<path d="M81.1397 78.0464C77.9773 88.8407 100.311 118.272 100.311 118.272L122.799 103.781C118.557 94.4208 113.322 85.5432 107.184 77.3015C98.0058 65.5655 84.6254 66.198 81.1397 78.0464Z" fill="#9468B4"/>
<path opacity="0.2" d="M81.1397 78.0464C77.9773 88.8407 100.311 118.272 100.311 118.272L122.799 103.781C118.557 94.4208 113.322 85.5432 107.184 77.3015C98.0058 65.5655 84.6254 66.198 81.1397 78.0464Z" fill="black"/>
<path opacity="0.2" d="M94.8722 90.7101C99.5104 92.6919 106.327 103.852 109.883 112.13L100.312 118.272C94.9759 111.14 90.1748 103.624 85.9473 95.784C88.9691 92.4248 92.4266 89.67 94.8722 90.7101Z" fill="black"/>
<path d="M152.666 113.788L156.798 102.221L168.506 107.843C168.506 107.843 166.075 118.145 157.501 118.131L152.666 113.788Z" fill="white"/>
<path d="M167.214 94.6172L172.175 100.085L168.507 107.815L156.799 102.221L167.214 94.6172Z" fill="white"/>
<path opacity="0.2" d="M126.89 405.205L130.361 418.909L119.356 423.083L115.885 409.379L126.89 405.205Z" fill="black"/>
<path opacity="0.2" d="M41.7017 408.93H53.4798L52.5662 422.971H40.7881L41.7017 408.93Z" fill="black"/>
<path d="M28.6865 73.267C41.3361 117.976 39.284 165.412 40.0711 175.054L102.981 172.692C113.677 106.043 94.5485 68.9521 94.5485 68.9521C94.5485 68.9521 90.5147 68.1791 85.0191 67.6169C83.3044 67.4342 81.4492 67.2796 79.5096 67.1812C78.4414 67.1109 77.3591 67.0828 76.2629 67.0547C67.3303 67.2058 58.414 67.8722 49.5583 69.0505C47.8857 69.2613 46.1851 69.5003 44.5266 69.7814C42.8681 70.0625 41.5047 70.3155 40.0852 70.5966C33.5777 71.8756 28.6865 73.267 28.6865 73.267Z" fill="#9468B4"/>
<path opacity="0.2" d="M28.6865 73.267C41.3361 117.976 39.284 165.412 40.0711 175.054L102.981 172.692C113.677 106.043 94.5485 68.9521 94.5485 68.9521C94.5485 68.9521 90.5147 68.1791 85.0191 67.6169C83.3044 67.4342 81.4492 67.2796 79.5096 67.1812C78.4414 67.1109 77.3591 67.0828 76.2629 67.0547C67.3303 67.2058 58.414 67.8722 49.5583 69.0505C47.8857 69.2613 46.1851 69.5003 44.5266 69.7814C42.8681 70.0625 41.5047 70.3155 40.0852 70.5966C33.5777 71.8756 28.6865 73.267 28.6865 73.267Z" fill="black"/>
<path opacity="0.2" d="M42.0813 92.4521C43.2057 96.767 41.9127 116.514 37.401 121.377C36.7826 115.053 35.9955 108.461 34.8711 101.7L42.0813 92.4521Z" fill="black"/>
<path d="M49.9105 38.8604C52.2296 47.2934 55.0828 62.9226 49.5029 69.0927C54.5206 73.3936 61.014 78.2988 71.232 77.8912C81.45 77.4836 79.1591 70.6107 76.1935 67.111C66.4393 65.5368 66.1581 58.425 67.3388 51.6505L49.9105 38.8604Z" fill="white"/>
<path d="M71.4984 76.3877L73.3536 77.6386L66.5791 79.6204L68.3219 76.472L71.4984 76.3877Z" fill="#9468B4"/>
<path d="M74.0563 75.7266L73.3535 77.638L80.1562 79.6198L79.6923 75.9796L74.0563 75.7266Z" fill="#9468B4"/>
<path d="M45.4399 68.3764L48.1104 67.0412C48.5374 66.8272 49.0152 66.7349 49.4912 66.7746C49.9673 66.8143 50.4232 66.9843 50.8089 67.2661C56.9864 71.747 64.0497 74.857 71.5261 76.3878C66.157 78.9458 67.4782 85.8328 67.4782 85.8328C67.4782 85.8328 50.4013 80.2108 44.9902 70.0068C44.837 69.7302 44.7983 69.4046 44.8824 69.0998C44.9665 68.7951 45.1666 68.5354 45.4399 68.3764Z" fill="white"/>
<path d="M79.1727 66.6193L75.2513 66.029C75.1501 66.0128 75.0463 66.0268 74.953 66.0694C74.8597 66.1119 74.7811 66.1811 74.727 66.2682C74.673 66.3554 74.6459 66.4565 74.6491 66.559C74.6524 66.6615 74.6858 66.7607 74.7453 66.8442C76.1508 68.7979 78.3996 73.0847 74.0566 75.727C79.4257 78.285 81.0842 84.5676 81.0842 84.5676C81.0842 84.5676 88.1117 77.0201 79.9316 67.055C79.7362 66.8269 79.4682 66.6731 79.1727 66.6193Z" fill="white"/>
<path opacity="0.2" d="M57.0072 44.0049L67.3095 51.5103C67.0116 53.0955 66.8564 54.7042 66.8457 56.3171C63.1492 56.0641 57.8224 52.4239 57.1477 48.6149C56.8277 47.0988 56.7801 45.5377 57.0072 44.0049Z" fill="black"/>
<path d="M79.7771 21.4463C79.2992 25.5363 75.3778 29.05 72.8479 29.8793L69.6855 12.1559C76.7833 7.13822 80.4377 15.7118 79.7771 21.4463Z" fill="#263238"/>
<path d="M46.3541 26.3521C48.4061 37.8491 49.0105 44.6939 55.5461 49.9645C65.3846 57.8916 79.0602 50.9344 80.4938 39.0578C81.7869 28.362 78.2169 11.3554 66.3544 8.05242C63.7414 7.31298 60.9827 7.25346 58.3402 7.87951C55.6977 8.50556 53.259 9.79642 51.2555 11.6296C49.2519 13.4628 47.75 15.7775 46.8922 18.3541C46.0344 20.9307 45.8492 23.6838 46.3541 26.3521Z" fill="white"/>
<path d="M48.5467 34.11C53.8735 36.921 56.2067 30.5822 56.2629 27.9961C56.2629 23.892 54.5482 19.3804 52.4259 17.7359C62.7142 17.7359 83.0659 17.2299 77.9217 7.43356C72.7776 -2.3628 62.4612 -1.25245 54.7731 4.11657C50.683 6.92758 37.4432 4.48201 40.718 12.1139C33.817 15.7823 39.8044 29.4578 48.5467 34.11Z" fill="#263238"/>
<path d="M41.8424 11.4817C40.0081 11.4726 38.2268 10.8657 36.7686 9.75293C37.0075 10.7803 37.5769 11.7009 38.3893 12.3737C39.2016 13.0465 40.2123 13.4342 41.2662 13.4775L41.8424 11.4817Z" fill="#263238"/>
<path d="M42.0105 35.8107C43.3293 38.4562 45.6369 40.4759 48.4337 41.4327C52.1442 42.6274 52.9875 39.2261 52.088 35.6561C51.2728 32.4235 49.53 28.0523 45.7492 28.4037C41.9684 28.7551 40.4364 32.5781 42.0105 35.8107Z" fill="white"/>
<path d="M116.686 297.122C111.907 261.52 102.982 172.692 102.982 172.692L61.6885 174.252C61.6885 174.252 81.1969 263.01 88.2525 299.005C95.3081 335 114.957 421.86 114.957 421.86L133.594 414.833C133.594 414.833 121.675 334.143 116.686 297.122Z" fill="#263238"/>
<path opacity="0.2" d="M77.1484 198.175C73.7479 198.987 70.5912 200.601 67.9424 202.883C71.8497 220.832 76.9517 244.458 81.3368 265.274C84.2603 247.241 84.3446 213.214 77.1484 198.175Z" fill="black"/>
<path d="M80.6764 173.536C80.6764 173.536 71.892 269.897 67.8722 304.136C63.473 341.648 58.0337 420.258 58.0337 420.258H36.3889C36.3889 420.258 35.5035 350.728 38.3004 314.016C41.4909 272.203 40.0573 175.054 40.0573 175.054L80.6764 173.536Z" fill="#263238"/>
<path d="M60.8452 420.722H35.4618L34.9277 413.133L63.2627 412.641L60.8452 420.722Z" fill="#9468B4"/>
<path d="M136.025 414.355L113.818 422.774L111.105 415.592L135.786 405.81L136.025 414.355Z" fill="#9468B4"/>
<path d="M64.3028 27.6162C64.4012 28.5719 64.9915 29.2747 65.6099 29.2044C66.2284 29.1341 66.636 28.3049 66.5235 27.3632C66.4111 26.4215 65.8348 25.7187 65.2164 25.789C64.598 25.8593 64.1904 26.6183 64.3028 27.6162Z" fill="#263238"/>
<path d="M74.9561 26.3372C75.0686 27.2789 75.6589 27.9816 76.2633 27.9113C76.8676 27.8411 77.3033 27.0259 77.1909 26.0842C77.0785 25.1425 76.4881 24.4257 75.8697 24.496C75.2513 24.5662 74.8437 25.3955 74.9561 26.3372Z" fill="#263238"/>
<path d="M71.625 27.1953C73.0784 29.9482 74.904 32.4879 77.0502 34.7429C76.4655 35.2864 75.7681 35.6942 75.0077 35.9371C74.2472 36.1801 73.4425 36.2522 72.651 36.1484L71.625 27.1953Z" fill="#E0E0E0"/>
<path d="M68.9683 39.0857C67.901 39.0832 66.8455 38.8625 65.8666 38.4371C64.8877 38.0117 64.0061 37.3906 63.276 36.612C63.2487 36.584 63.2276 36.5506 63.2139 36.5139C63.2003 36.4772 63.1945 36.4381 63.1968 36.399C63.1991 36.36 63.2096 36.3218 63.2275 36.2871C63.2455 36.2523 63.2705 36.2216 63.3009 36.1971C63.3314 36.1725 63.3666 36.1546 63.4044 36.1444C63.4422 36.1342 63.4817 36.1321 63.5204 36.1381C63.5591 36.1441 63.5961 36.1581 63.629 36.1792C63.662 36.2003 63.6901 36.228 63.7118 36.2606C64.5335 37.1082 65.543 37.7507 66.6587 38.1365C67.7744 38.5222 68.9651 38.6403 70.1349 38.4813C70.1711 38.4754 70.2081 38.477 70.2436 38.4859C70.2792 38.4949 70.3125 38.5111 70.3415 38.5335C70.3705 38.556 70.3946 38.5841 70.4122 38.6162C70.4299 38.6484 70.4407 38.6838 70.4441 38.7203C70.4522 38.7927 70.4317 38.8655 70.3872 38.9232C70.3426 38.9809 70.2773 39.019 70.2052 39.0295C69.7952 39.0823 69.3815 39.1011 68.9683 39.0857Z" fill="#263238"/>
<path d="M60.6203 24.4965C60.5285 24.5238 60.4309 24.5238 60.3392 24.4965C60.2758 24.4602 60.2203 24.4116 60.176 24.3535C60.1316 24.2955 60.0993 24.2291 60.081 24.1584C60.0627 24.0877 60.0587 24.0141 60.0692 23.9418C60.0798 23.8695 60.1046 23.8001 60.1424 23.7375C60.5708 22.9672 61.1769 22.3103 61.9102 21.8214C62.6436 21.3325 63.4831 21.0257 64.3589 20.9265C64.4328 20.9227 64.5066 20.9336 64.5763 20.9584C64.6459 20.9832 64.71 21.0215 64.7649 21.0711C64.8197 21.1207 64.8642 21.1806 64.8958 21.2475C64.9275 21.3143 64.9456 21.3868 64.9492 21.4606C64.953 21.5338 64.9421 21.6069 64.9171 21.6758C64.8921 21.7446 64.8536 21.8078 64.8038 21.8615C64.754 21.9152 64.694 21.9584 64.6272 21.9885C64.5605 22.0186 64.4883 22.0351 64.4151 22.0369C63.7191 22.125 63.0535 22.3758 62.4724 22.7689C61.8913 23.1621 61.4108 23.6865 61.07 24.2997C61.0179 24.368 60.9493 24.4219 60.8706 24.4563C60.7919 24.4907 60.7058 24.5046 60.6203 24.4965Z" fill="#263238"/>
<path d="M79.1309 22.1489C79.0377 22.1452 78.9468 22.119 78.8661 22.0725C78.7853 22.026 78.717 21.9606 78.667 21.8819C78.3099 21.2787 77.8134 20.77 77.2192 20.3983C76.6249 20.0266 75.9502 19.8027 75.2517 19.7455C75.1026 19.7455 74.9596 19.6863 74.8541 19.5808C74.7487 19.4754 74.6895 19.3324 74.6895 19.1833C74.6895 19.0342 74.7487 18.8912 74.8541 18.7858C74.9596 18.6803 75.1026 18.6211 75.2517 18.6211C76.1348 18.6925 76.9885 18.9716 77.7433 19.4357C78.498 19.8998 79.1324 20.5357 79.5947 21.2916C79.6336 21.3524 79.6602 21.4204 79.6728 21.4915C79.6854 21.5626 79.6839 21.6356 79.6682 21.7061C79.6525 21.7767 79.623 21.8434 79.5815 21.9025C79.5399 21.9616 79.4871 22.0119 79.426 22.0505C79.3396 22.1119 79.2368 22.1461 79.1309 22.1489Z" fill="#263238"/>
<path d="M56.8812 436.871C55.8335 436.845 54.7919 436.703 53.7751 436.45C53.7218 436.437 53.6735 436.409 53.6361 436.369C53.5986 436.329 53.5736 436.279 53.5642 436.225C53.5502 436.172 53.5535 436.116 53.5738 436.065C53.594 436.015 53.6301 435.972 53.6767 435.944C54.0843 435.677 57.7667 433.343 59.1019 434.004C59.2493 434.079 59.3747 434.191 59.4658 434.329C59.557 434.467 59.6108 434.626 59.6219 434.791C59.6717 435.06 59.6513 435.337 59.5626 435.595C59.474 435.854 59.3202 436.085 59.116 436.267C58.4646 436.723 57.6739 436.937 56.8812 436.871ZM54.5762 436.056C56.5861 436.45 58.1181 436.379 58.7927 435.845C58.9283 435.718 59.0301 435.558 59.089 435.382C59.1479 435.205 59.162 435.017 59.13 434.833C59.13 434.608 59.0035 434.538 58.9333 434.51C58.1883 434.159 56.066 435.213 54.5762 436.056Z" fill="#9468B4"/>
<path d="M53.845 436.45C53.7942 436.462 53.7411 436.462 53.6904 436.45C53.6481 436.422 53.6132 436.385 53.5887 436.341C53.5642 436.297 53.5508 436.247 53.5498 436.197C53.5498 436.056 53.6763 432.655 54.9553 431.545C55.1097 431.4 55.2948 431.292 55.4968 431.228C55.6988 431.165 55.9125 431.148 56.1219 431.179C56.3354 431.182 56.542 431.255 56.7098 431.387C56.8775 431.519 56.9969 431.703 57.0495 431.91C57.3587 433.217 55.138 435.803 53.9433 436.464C53.9099 436.468 53.8758 436.463 53.845 436.45ZM55.9813 431.685C55.753 431.687 55.5333 431.772 55.3629 431.924C54.5852 433 54.1626 434.293 54.1542 435.62C55.3207 434.693 56.7122 432.809 56.5295 431.966C56.5295 431.896 56.5295 431.741 56.1078 431.685H55.9813Z" fill="#9468B4"/>
<path d="M134.775 431.657C134.722 431.659 134.67 431.646 134.625 431.618C134.58 431.591 134.544 431.551 134.522 431.503C134.492 431.457 134.476 431.403 134.476 431.348C134.476 431.293 134.492 431.239 134.522 431.193C134.93 430.744 138.5 426.822 140.144 427.061C140.297 427.078 140.442 427.135 140.565 427.227C140.689 427.318 140.786 427.44 140.847 427.581C140.958 427.799 141.016 428.04 141.016 428.284C141.016 428.528 140.958 428.769 140.847 428.987C140.046 430.505 136.729 431.278 134.817 431.587L134.775 431.657ZM139.961 427.609C139.02 427.609 136.967 429.451 135.534 430.954C138.12 430.434 139.891 429.633 140.341 428.776C140.417 428.628 140.457 428.464 140.457 428.298C140.457 428.132 140.417 427.968 140.341 427.82C140.319 427.765 140.283 427.716 140.236 427.679C140.189 427.642 140.133 427.618 140.074 427.609H139.961Z" fill="#9468B4"/>
<path d="M134.774 431.657H134.69C134.643 431.644 134.6 431.619 134.565 431.585C134.531 431.55 134.506 431.507 134.493 431.46C134.493 431.334 133.636 428.256 134.592 426.569C134.727 426.327 134.91 426.115 135.129 425.945C135.349 425.776 135.602 425.654 135.871 425.585C136.615 425.375 136.953 425.67 137.121 425.937C137.796 427.103 136.067 430.491 134.957 431.559C134.937 431.589 134.909 431.613 134.878 431.63C134.846 431.647 134.81 431.657 134.774 431.657ZM136.306 426.035H136.011C135.813 426.082 135.627 426.172 135.467 426.298C135.307 426.425 135.176 426.584 135.083 426.766C134.618 428.033 134.559 429.413 134.915 430.716C135.955 429.31 137.037 426.836 136.63 426.134C136.573 426.162 136.503 426.049 136.264 426.063L136.306 426.035Z" fill="#9468B4"/>
<path d="M41.6174 89.9084C38.0896 97.1748 34.4915 104.68 31.0058 112.073C29.2771 115.798 27.5342 119.508 25.9039 123.233L23.4583 128.855L22.3339 131.624L22.0528 132.326L21.842 132.847C21.7014 133.17 21.603 133.521 21.4765 133.844C20.6044 136.614 20.4497 139.559 21.0268 142.404C21.7155 145.708 22.9658 148.869 24.7232 151.751C26.658 154.975 28.8984 158.006 31.4134 160.802C32.6924 162.208 34.0417 163.697 35.4472 165.019C36.15 165.693 36.8527 166.424 37.5977 167.028C38.3426 167.633 39.0875 168.434 39.7059 168.926L34.9834 176.445C32.9524 175.413 30.9858 174.258 29.0943 172.988C27.225 171.765 25.3979 170.472 23.6269 169.066C19.9796 166.177 16.6782 162.875 13.7884 159.228C10.6405 155.312 8.23507 150.853 6.69061 146.072C5.04626 140.8 4.80885 135.189 6.00192 129.797C6.18463 129.136 6.32518 128.391 6.53601 127.801L7.08416 126.058L8.06801 122.952C8.77076 120.914 9.47351 118.862 10.2044 116.852C11.6802 112.818 13.2262 108.826 14.8988 104.891C18.1174 97.0483 21.7295 89.4586 25.7493 81.7705L41.6174 89.9084Z" fill="white"/>
<path d="M28.686 73.2673C17.9479 76.6265 7.39258 113.043 7.39258 113.043L32.1716 123.922C32.1716 123.922 40.2111 106.325 44.8212 92.5368C49.9231 77.512 41.6869 69.1914 28.686 73.2673Z" fill="#9468B4"/>
<path opacity="0.2" d="M28.686 73.2673C17.9479 76.6265 7.39258 113.043 7.39258 113.043L32.1716 123.922C32.1716 123.922 40.2111 106.325 44.8212 92.5368C49.9231 77.512 41.6869 69.1914 28.686 73.2673Z" fill="black"/>
<path d="M37.0353 166.649L47.3096 172.749L37.3165 182.7C37.3165 182.7 28.6445 176.024 31.2306 170.796L37.0353 166.649Z" fill="white"/>
<path d="M54.1825 182.489L43.8661 189.713L37.3164 182.7L47.3095 172.749L54.1825 182.489Z" fill="white"/>
<path d="M551.316 164.007L550.826 170.778L552.228 170.88L552.718 164.109L551.316 164.007Z" fill="#9468B4"/>
<path d="M553.168 138.37L551.747 158.01L553.148 158.111L554.57 138.471L553.168 138.37Z" fill="#9468B4"/>
<path d="M514.709 359.316H170.459C168 359.345 165.563 358.858 163.304 357.889C161.044 356.919 159.013 355.488 157.339 353.686C155.666 351.885 154.389 349.753 153.588 347.428C152.788 345.103 152.483 342.637 152.693 340.187L170.965 86.0719C171.418 80.9266 173.757 76.1302 177.531 72.6045C181.306 69.0788 186.251 67.0725 191.415 66.9711H535.665C538.123 66.9405 540.56 67.4248 542.819 68.3928C545.079 69.3608 547.111 70.791 548.784 72.5915C550.457 74.392 551.735 76.5228 552.536 78.8469C553.336 81.171 553.641 83.6369 553.431 86.086L535.159 340.201C534.709 345.349 532.372 350.149 528.597 353.677C524.822 357.206 519.875 359.214 514.709 359.316Z" fill="#9468B4"/>
<path d="M434.637 448.2H322.886L302.97 310.123H414.721L434.637 448.2Z" fill="#9468B4"/>
<path d="M416.886 439.964H296.013L293.609 448.2H414.497L416.886 439.964Z" fill="#9468B4"/>
<path d="M420.61 376.589L311.698 370.644L302.97 310.123H411.025L420.61 376.589Z" fill="#263238"/>
<path d="M510.83 359.316H166.566C164.104 359.343 161.664 358.854 159.402 357.88C157.141 356.906 155.109 355.469 153.438 353.661C151.766 351.854 150.492 349.715 149.699 347.385C148.905 345.054 148.608 342.583 148.828 340.131L167.1 86.0155C167.566 80.885 169.906 76.1061 173.674 72.5927C177.441 69.0793 182.371 67.0778 187.522 66.9709H531.786C534.243 66.9423 536.678 67.4281 538.936 68.3969C541.194 69.3658 543.224 70.7963 544.896 72.5966C546.568 74.3968 547.844 76.527 548.644 78.8501C549.443 81.1732 549.748 83.6379 549.538 86.0858L531.266 340.201C530.82 345.348 528.485 350.147 524.713 353.676C520.94 357.205 515.995 359.214 510.83 359.316Z" fill="#263238"/>
<path d="M548.647 88.469L538.198 234.239L539.544 234.336L549.993 88.5654L548.647 88.469Z" fill="white"/>
<path d="M537.34 246.931L533.721 297.414L535.067 297.511L538.686 247.028L537.34 246.931Z" fill="white"/>
<path d="M510.042 354.509H167.971C166.057 354.53 164.16 354.15 162.402 353.394C160.644 352.638 159.064 351.523 157.763 350.12C156.462 348.717 155.468 347.057 154.847 345.247C154.226 343.437 153.99 341.517 154.154 339.611L172.3 86.5355C172.65 82.5219 174.473 78.7802 177.419 76.0317C180.365 73.2832 184.224 71.7228 188.252 71.6512H530.38C532.292 71.6305 534.188 72.0099 535.944 72.765C537.701 73.5201 539.281 74.6341 540.582 76.0357C541.883 77.4373 542.877 79.0954 543.499 80.9036C544.121 82.7118 544.359 84.6301 544.196 86.5355L526.051 339.639C525.696 343.659 523.863 347.405 520.906 350.152C517.949 352.899 514.078 354.451 510.042 354.509Z" fill="white"/>
<path opacity="0.2" d="M510.042 354.509H167.971C166.057 354.53 164.16 354.15 162.402 353.394C160.644 352.638 159.064 351.523 157.763 350.12C156.462 348.717 155.468 347.057 154.847 345.247C154.226 343.437 153.99 341.517 154.154 339.611L172.3 86.5355C172.65 82.5219 174.473 78.7802 177.419 76.0317C180.365 73.2832 184.224 71.7228 188.252 71.6512H530.38C532.292 71.6305 534.188 72.0099 535.944 72.765C537.701 73.5201 539.281 74.6341 540.582 76.0357C541.883 77.4373 542.877 79.0954 543.499 80.9036C544.121 82.7118 544.359 84.6301 544.196 86.5355L526.051 339.639C525.696 343.659 523.863 347.405 520.906 350.152C517.949 352.899 514.078 354.451 510.042 354.509Z" fill="#9468B4"/>
<path opacity="0.5" d="M255.731 343.293H175.842C174.917 343.304 174 343.122 173.15 342.757C172.301 342.392 171.536 341.854 170.907 341.176C170.279 340.498 169.799 339.696 169.499 338.821C169.199 337.946 169.085 337.018 169.166 336.097L186.791 90.1334C186.958 88.1914 187.839 86.3804 189.265 85.051C190.69 83.7216 192.558 82.9684 194.507 82.9372H274.396C275.321 82.9237 276.239 83.1047 277.09 83.4686C277.941 83.8325 278.706 84.3711 279.335 85.0496C279.965 85.7281 280.445 86.5312 280.744 87.407C281.043 88.2828 281.155 89.2116 281.072 90.1334L263.447 336.097C263.277 338.038 262.395 339.847 260.97 341.176C259.545 342.504 257.679 343.259 255.731 343.293Z" fill="white"/>
<path opacity="0.4" d="M252.639 117.569H211.289C210.457 117.578 209.631 117.413 208.867 117.084C208.102 116.756 207.414 116.271 206.848 115.661C206.281 115.051 205.849 114.329 205.578 113.542C205.306 112.755 205.203 111.919 205.273 111.09L205.723 104.751C205.876 103.004 206.669 101.376 207.952 100.179C209.234 98.9828 210.913 98.3034 212.666 98.2718H254.03C254.863 98.263 255.688 98.4282 256.453 98.7569C257.218 99.0856 257.905 99.5705 258.472 100.181C259.038 100.791 259.471 101.512 259.742 102.3C260.013 103.087 260.117 103.922 260.046 104.751L259.582 111.09C259.445 112.843 258.656 114.48 257.371 115.68C256.085 116.879 254.397 117.554 252.639 117.569Z" fill="#9468B4"/>
<path d="M226.342 217.079H163.221C161.773 217.097 160.337 216.813 159.005 216.244C157.673 215.676 156.475 214.836 155.486 213.777C154.498 212.719 153.742 211.465 153.265 210.098C152.789 208.73 152.604 207.278 152.722 205.835L157.262 142.643C157.542 139.606 158.933 136.779 161.169 134.704C163.404 132.629 166.327 131.452 169.377 131.399H232.512C233.959 131.383 235.394 131.668 236.724 132.238C238.054 132.807 239.251 133.648 240.238 134.706C241.224 135.764 241.98 137.017 242.455 138.383C242.93 139.75 243.115 141.201 242.997 142.643L238.472 205.778C238.208 208.829 236.821 211.674 234.58 213.761C232.34 215.849 229.404 217.031 226.342 217.079Z" fill="#9468B4"/>
<path d="M235.393 165.357C234.228 165.38 233.112 165.834 232.261 166.63C231.41 167.427 230.884 168.51 230.783 169.672L230.123 178.835C230.076 179.387 230.145 179.943 230.325 180.466C230.506 180.989 230.794 181.469 231.172 181.874C231.549 182.28 232.007 182.601 232.516 182.819C233.026 183.036 233.575 183.144 234.129 183.136H240.538C240.827 183.133 241.104 183.022 241.315 182.824C241.526 182.626 241.655 182.356 241.676 182.068L242.8 166.425C242.812 166.287 242.795 166.149 242.75 166.019C242.705 165.889 242.633 165.769 242.539 165.669C242.445 165.568 242.331 165.488 242.204 165.434C242.077 165.381 241.94 165.354 241.803 165.357H235.393Z" fill="white"/>
<path d="M211.036 147.408H171.317C171.094 147.411 170.874 147.367 170.67 147.279C170.466 147.192 170.282 147.062 170.131 146.899C169.98 146.736 169.865 146.544 169.793 146.333C169.722 146.123 169.695 145.9 169.714 145.679C169.753 145.212 169.964 144.775 170.307 144.456C170.65 144.136 171.101 143.956 171.57 143.95H211.359C211.581 143.947 211.802 143.991 212.006 144.079C212.21 144.166 212.393 144.296 212.544 144.459C212.695 144.622 212.811 144.815 212.882 145.025C212.954 145.235 212.981 145.458 212.962 145.679C212.919 146.157 212.697 146.602 212.339 146.923C211.982 147.243 211.516 147.417 211.036 147.408Z" fill="white"/>
<path d="M210.417 156.193H170.613C170.391 156.196 170.171 156.152 169.967 156.064C169.763 155.977 169.579 155.847 169.428 155.684C169.277 155.521 169.162 155.329 169.09 155.119C169.018 154.908 168.991 154.685 169.011 154.464C169.053 153.999 169.266 153.566 169.609 153.25C169.951 152.933 170.4 152.754 170.866 152.749H210.67C210.892 152.745 211.112 152.787 211.316 152.873C211.52 152.958 211.704 153.087 211.855 153.248C212.006 153.41 212.121 153.602 212.193 153.812C212.265 154.021 212.292 154.244 212.273 154.464C212.234 154.932 212.023 155.368 211.679 155.688C211.336 156.007 210.886 156.187 210.417 156.193Z" fill="white"/>
<path d="M196.025 164.991H169.981C169.76 164.992 169.541 164.946 169.337 164.858C169.134 164.77 168.952 164.64 168.801 164.478C168.651 164.315 168.535 164.123 168.463 163.914C168.39 163.705 168.362 163.483 168.379 163.262C168.417 162.795 168.629 162.358 168.972 162.039C169.315 161.719 169.765 161.539 170.234 161.533H196.278C196.5 161.53 196.721 161.574 196.925 161.662C197.129 161.749 197.312 161.879 197.463 162.042C197.614 162.205 197.73 162.398 197.801 162.608C197.873 162.818 197.9 163.041 197.881 163.262C197.839 163.728 197.627 164.163 197.284 164.482C196.942 164.801 196.493 164.982 196.025 164.991Z" fill="white"/>
<path opacity="0.5" d="M211.148 206.875H172.721C171.772 206.887 170.83 206.699 169.957 206.325C169.084 205.95 168.299 205.396 167.653 204.7C167.006 204.004 166.513 203.179 166.205 202.281C165.897 201.382 165.78 200.429 165.863 199.483L167.268 179.257C167.439 177.266 168.342 175.408 169.804 174.045C171.266 172.681 173.182 171.909 175.181 171.878H213.678C214.627 171.867 215.567 172.054 216.439 172.428C217.311 172.802 218.095 173.354 218.741 174.049C219.387 174.744 219.881 175.566 220.19 176.463C220.499 177.36 220.617 178.312 220.537 179.257L219.131 199.483C218.957 201.486 218.043 203.353 216.567 204.72C215.091 206.087 213.159 206.855 211.148 206.875Z" fill="white"/>
<path opacity="0.4" d="M247.087 240.72H199.188C198.776 240.725 198.367 240.644 197.988 240.482C197.609 240.32 197.268 240.08 196.987 239.778C196.707 239.476 196.492 239.119 196.358 238.729C196.224 238.339 196.173 237.926 196.208 237.515C196.284 236.65 196.679 235.844 197.315 235.252C197.95 234.66 198.783 234.325 199.652 234.311H247.551C247.962 234.307 248.369 234.39 248.747 234.553C249.124 234.716 249.463 234.956 249.742 235.257C250.022 235.559 250.235 235.916 250.368 236.305C250.501 236.693 250.552 237.106 250.517 237.515C250.444 238.379 250.053 239.186 249.419 239.778C248.785 240.37 247.954 240.705 247.087 240.72Z" fill="#9468B4"/>
<path opacity="0.8" d="M237.375 253.299H207.044C206.632 253.304 206.223 253.224 205.844 253.061C205.465 252.899 205.124 252.659 204.844 252.358C204.563 252.056 204.349 251.698 204.214 251.309C204.08 250.919 204.029 250.505 204.065 250.094C204.138 249.23 204.529 248.424 205.162 247.832C205.796 247.24 206.627 246.904 207.494 246.89H237.895C238.307 246.884 238.715 246.965 239.093 247.128C239.472 247.29 239.812 247.53 240.091 247.832C240.371 248.134 240.584 248.492 240.716 248.881C240.849 249.271 240.898 249.684 240.861 250.094C240.787 250.968 240.388 251.782 239.742 252.376C239.097 252.969 238.252 253.299 237.375 253.299Z" fill="white"/>
<path opacity="0.4" d="M244.6 275.422H196.7C196.289 275.425 195.881 275.343 195.503 275.18C195.125 275.017 194.785 274.777 194.505 274.476C194.224 274.174 194.01 273.818 193.875 273.429C193.74 273.04 193.687 272.628 193.721 272.217C193.797 271.352 194.191 270.546 194.827 269.954C195.463 269.362 196.295 269.027 197.164 269.013H245.064C245.475 269.009 245.882 269.092 246.259 269.255C246.637 269.418 246.976 269.658 247.255 269.96C247.534 270.261 247.747 270.618 247.88 271.007C248.014 271.395 248.065 271.808 248.029 272.217C247.956 273.081 247.565 273.888 246.931 274.48C246.298 275.072 245.467 275.408 244.6 275.422Z" fill="#9468B4"/>
<path opacity="0.8" d="M234.943 287.986H204.556C204.145 287.994 203.736 287.914 203.357 287.754C202.978 287.593 202.637 287.355 202.356 287.054C202.075 286.753 201.861 286.397 201.726 286.008C201.592 285.619 201.541 285.206 201.576 284.796C201.65 283.924 202.047 283.112 202.69 282.519C203.332 281.926 204.174 281.595 205.048 281.591H235.407C235.819 281.586 236.228 281.667 236.607 281.829C236.986 281.991 237.327 282.231 237.607 282.533C237.888 282.834 238.102 283.192 238.237 283.582C238.371 283.971 238.422 284.385 238.387 284.796C238.31 285.66 237.915 286.464 237.279 287.054C236.643 287.643 235.81 287.976 234.943 287.986Z" fill="white"/>
<path opacity="0.4" d="M242.112 310.123H194.212C193.8 310.127 193.393 310.044 193.015 309.881C192.637 309.718 192.297 309.479 192.016 309.177C191.736 308.876 191.522 308.519 191.387 308.13C191.252 307.742 191.199 307.329 191.232 306.919C191.306 306.052 191.699 305.244 192.335 304.652C192.972 304.059 193.806 303.725 194.676 303.714H242.575C242.987 303.708 243.395 303.789 243.774 303.952C244.152 304.114 244.492 304.354 244.772 304.656C245.051 304.958 245.264 305.316 245.397 305.706C245.529 306.095 245.578 306.509 245.541 306.919C245.468 307.783 245.077 308.589 244.443 309.181C243.81 309.773 242.979 310.109 242.112 310.123Z" fill="#9468B4"/>
<path opacity="0.8" d="M232.456 322.688H202.069C201.656 322.694 201.248 322.613 200.869 322.451C200.49 322.289 200.149 322.049 199.868 321.747C199.587 321.445 199.373 321.088 199.239 320.698C199.105 320.308 199.054 319.895 199.089 319.484C199.165 318.621 199.557 317.817 200.19 317.225C200.823 316.634 201.652 316.297 202.518 316.279H232.92C233.331 316.276 233.739 316.359 234.117 316.521C234.495 316.684 234.835 316.924 235.115 317.225C235.395 317.527 235.61 317.883 235.745 318.272C235.88 318.661 235.932 319.074 235.899 319.484C235.826 320.35 235.433 321.159 234.796 321.751C234.16 322.343 233.325 322.678 232.456 322.688Z" fill="white"/>
<path opacity="0.5" d="M513.809 271.149C515.889 267.972 520.654 269.308 520.387 272.976L515.777 337.292C515.538 340.595 513.036 343.293 510.155 343.293H278.514C275.703 343.293 273.566 340.595 273.805 337.292L276.616 299.076C276.71 297.861 277.071 296.681 277.673 295.622C278.276 294.562 279.105 293.649 280.101 292.947C281.097 292.244 282.236 291.771 283.437 291.56C284.637 291.349 285.869 291.405 287.045 291.725C300.102 295.787 311.29 293.398 321.691 288.24C343.926 277.207 362.535 253.51 388.101 253.51C389.085 253.51 390.055 253.51 390.996 253.594C429.029 255.885 440.611 303.138 470.07 303.138C478.784 303.138 486.725 299.371 493.654 294.016C502.059 287.453 508.988 278.5 513.809 271.149Z" fill="#9468B4"/>
<path opacity="0.5" d="M518.616 297.642L515.805 337.291C515.566 340.594 513.064 343.293 510.183 343.293H278.514C275.703 343.293 273.566 340.594 273.805 337.291L279.427 258.499C279.807 253.102 286.877 250.825 289.744 255.196C297.137 266.44 308.507 281.043 321.593 288.239C326.348 291.015 331.731 292.538 337.236 292.667C355.957 292.667 371.881 270.474 390.898 253.594C402.55 243.249 415.368 234.9 430.702 234.9C462.705 234.9 467.428 286.904 493.556 294.016C498.588 295.421 504.421 295.098 511.392 292.428C512.216 292.071 513.119 291.935 514.012 292.032C514.905 292.13 515.757 292.457 516.485 292.983C517.213 293.509 517.792 294.214 518.166 295.031C518.54 295.848 518.695 296.747 518.616 297.642Z" fill="#9468B4"/>
<g opacity="0.8">
<path opacity="0.8" d="M519.755 282.266C519.629 282.262 519.509 282.212 519.418 282.126C519.372 282.083 519.338 282.03 519.319 281.971C519.306 281.911 519.306 281.848 519.319 281.788C519.319 281.725 519.331 281.663 519.355 281.605C519.379 281.547 519.415 281.495 519.46 281.451C519.549 281.362 519.671 281.312 519.797 281.312C519.924 281.312 520.045 281.362 520.134 281.451C520.181 281.494 520.218 281.546 520.242 281.604C520.266 281.662 520.277 281.725 520.275 281.788C520.282 281.849 520.282 281.91 520.275 281.971C520.246 282.028 520.208 282.08 520.163 282.126C520.11 282.178 520.046 282.218 519.975 282.243C519.904 282.267 519.829 282.275 519.755 282.266Z" fill="white"/>
<path opacity="0.8" d="M294.495 315.197C294.368 315.197 294.247 315.146 294.157 315.057C294.068 314.967 294.017 314.846 294.017 314.719C294.021 314.594 294.073 314.477 294.162 314.39C294.251 314.303 294.371 314.255 294.495 314.255C294.622 314.255 294.743 314.305 294.833 314.395C294.923 314.485 294.973 314.606 294.973 314.733C294.973 314.861 294.923 314.984 294.834 315.076C294.745 315.168 294.623 315.221 294.495 315.225V315.197ZM289.674 314.93C289.611 314.926 289.548 314.91 289.492 314.881C289.435 314.853 289.384 314.813 289.343 314.764C289.302 314.716 289.272 314.659 289.254 314.598C289.236 314.537 289.231 314.473 289.238 314.41C289.245 314.347 289.265 314.286 289.296 314.23C289.326 314.175 289.368 314.126 289.417 314.087C289.467 314.048 289.524 314.019 289.585 314.002C289.646 313.985 289.71 313.98 289.773 313.988C289.897 314.002 290.011 314.065 290.09 314.162C290.168 314.259 290.206 314.383 290.194 314.508C290.181 314.626 290.125 314.735 290.037 314.815C289.949 314.895 289.835 314.941 289.716 314.944L289.674 314.93ZM298.768 314.508C298.76 314.445 298.765 314.381 298.782 314.32C298.799 314.259 298.828 314.202 298.867 314.153C298.906 314.103 298.955 314.062 299.01 314.031C299.066 314 299.127 313.981 299.189 313.974C299.252 313.966 299.316 313.971 299.377 313.988C299.438 314.005 299.495 314.034 299.545 314.073C299.594 314.112 299.636 314.161 299.666 314.216C299.697 314.272 299.717 314.333 299.723 314.396C299.731 314.458 299.727 314.522 299.71 314.583C299.693 314.644 299.664 314.701 299.624 314.751C299.585 314.8 299.536 314.842 299.481 314.873C299.426 314.903 299.365 314.923 299.302 314.93C299.239 314.937 299.175 314.933 299.114 314.916C299.053 314.899 298.996 314.87 298.947 314.83C298.897 314.791 298.856 314.743 298.825 314.687C298.794 314.632 298.775 314.571 298.768 314.508ZM284.924 314.199C284.799 314.169 284.691 314.092 284.62 313.985C284.55 313.878 284.523 313.749 284.544 313.622C284.574 313.498 284.651 313.39 284.757 313.319C284.864 313.249 284.994 313.222 285.12 313.243C285.245 313.273 285.353 313.349 285.424 313.456C285.494 313.563 285.521 313.693 285.5 313.819C285.474 313.927 285.414 314.023 285.327 314.092C285.24 314.161 285.133 314.199 285.022 314.199H284.924ZM303.462 313.721C303.445 313.659 303.441 313.594 303.45 313.531C303.459 313.467 303.48 313.406 303.513 313.351C303.545 313.296 303.589 313.248 303.641 313.21C303.692 313.172 303.751 313.145 303.814 313.131C303.936 313.105 304.064 313.127 304.171 313.192C304.279 313.257 304.357 313.361 304.39 313.482C304.42 313.607 304.4 313.738 304.334 313.849C304.269 313.959 304.162 314.039 304.038 314.072H303.926C303.816 314.082 303.705 314.052 303.615 313.988C303.525 313.923 303.46 313.829 303.434 313.721H303.462ZM457.182 313.918C457.055 313.918 456.934 313.867 456.844 313.778C456.755 313.688 456.704 313.567 456.704 313.44C456.704 313.313 456.755 313.192 456.844 313.102C456.934 313.012 457.055 312.962 457.182 312.962C457.309 312.962 457.43 313.012 457.52 313.102C457.61 313.192 457.66 313.313 457.66 313.44C457.66 313.567 457.61 313.688 457.52 313.778C457.43 313.867 457.309 313.918 457.182 313.918ZM461.469 313.243C461.461 313.181 461.466 313.118 461.483 313.058C461.5 312.998 461.529 312.942 461.569 312.893C461.608 312.845 461.657 312.804 461.712 312.775C461.768 312.746 461.828 312.728 461.891 312.723C461.954 312.713 462.018 312.716 462.08 312.733C462.142 312.749 462.2 312.778 462.25 312.817C462.3 312.857 462.341 312.906 462.371 312.963C462.402 313.019 462.42 313.081 462.425 313.145C462.437 313.273 462.398 313.401 462.316 313.501C462.235 313.601 462.117 313.665 461.989 313.679C461.863 313.687 461.739 313.646 461.642 313.565C461.545 313.484 461.483 313.369 461.469 313.243ZM452.375 313.622C452.313 313.616 452.252 313.596 452.198 313.565C452.143 313.534 452.095 313.493 452.057 313.443C452.019 313.393 451.991 313.336 451.976 313.275C451.961 313.214 451.958 313.15 451.968 313.088C451.975 313.025 451.994 312.965 452.025 312.909C452.056 312.854 452.097 312.805 452.147 312.766C452.196 312.727 452.253 312.698 452.314 312.681C452.375 312.664 452.439 312.659 452.502 312.667C452.627 312.684 452.741 312.75 452.82 312.849C452.898 312.949 452.936 313.075 452.923 313.201C452.91 313.319 452.854 313.428 452.766 313.508C452.678 313.588 452.564 313.634 452.446 313.637L452.375 313.622ZM280.257 313.046C280.196 313.03 280.139 313.002 280.089 312.963C280.039 312.925 279.997 312.876 279.965 312.822C279.934 312.767 279.914 312.706 279.906 312.643C279.898 312.581 279.903 312.517 279.92 312.456C279.959 312.333 280.043 312.23 280.155 312.168C280.268 312.105 280.4 312.088 280.524 312.119C280.646 312.158 280.748 312.242 280.809 312.355C280.869 312.468 280.883 312.6 280.848 312.723C280.819 312.823 280.758 312.911 280.674 312.972C280.59 313.033 280.488 313.064 280.384 313.06H280.257V313.046ZM466.191 312.582C466.177 312.52 466.176 312.456 466.187 312.394C466.199 312.331 466.223 312.272 466.259 312.219C466.295 312.166 466.341 312.121 466.394 312.087C466.448 312.053 466.508 312.03 466.571 312.02C466.633 312.008 466.696 312.008 466.758 312.021C466.82 312.033 466.879 312.058 466.931 312.093C466.983 312.128 467.028 312.173 467.063 312.226C467.097 312.279 467.121 312.338 467.133 312.4C467.145 312.462 467.145 312.525 467.133 312.587C467.12 312.649 467.096 312.708 467.06 312.76C467.025 312.812 466.98 312.857 466.927 312.892C466.875 312.926 466.816 312.95 466.754 312.962H466.669C466.559 312.962 466.451 312.924 466.364 312.855C466.278 312.786 466.217 312.69 466.191 312.582ZM447.653 312.751C447.59 312.74 447.53 312.716 447.477 312.68C447.425 312.644 447.38 312.597 447.347 312.542C447.314 312.488 447.293 312.427 447.285 312.363C447.277 312.3 447.283 312.236 447.301 312.175C447.331 312.052 447.409 311.946 447.517 311.88C447.625 311.814 447.755 311.794 447.878 311.823C448.001 311.853 448.107 311.931 448.173 312.039C448.238 312.147 448.259 312.277 448.229 312.4C448.204 312.504 448.145 312.596 448.06 312.663C447.976 312.729 447.872 312.765 447.765 312.765H447.653V312.751ZM308.016 312.358C307.991 312.299 307.979 312.235 307.98 312.172C307.981 312.108 307.995 312.045 308.022 311.987C308.048 311.929 308.086 311.877 308.134 311.834C308.181 311.792 308.237 311.759 308.297 311.739C308.415 311.693 308.545 311.695 308.661 311.745C308.777 311.795 308.869 311.889 308.915 312.006C308.938 312.065 308.949 312.128 308.947 312.191C308.945 312.254 308.93 312.317 308.904 312.374C308.878 312.432 308.841 312.483 308.794 312.526C308.748 312.569 308.694 312.603 308.634 312.625C308.579 312.637 308.521 312.637 308.466 312.625C308.373 312.627 308.282 312.603 308.202 312.556C308.123 312.509 308.058 312.44 308.016 312.358ZM470.844 311.528C470.824 311.466 470.818 311.401 470.825 311.337C470.832 311.273 470.851 311.21 470.883 311.154C470.914 311.097 470.957 311.048 471.008 311.008C471.06 310.969 471.118 310.94 471.181 310.924C471.242 310.907 471.306 310.902 471.368 310.91C471.431 310.918 471.492 310.938 471.547 310.969C471.602 311.001 471.65 311.043 471.688 311.093C471.727 311.143 471.755 311.2 471.771 311.261C471.788 311.322 471.793 311.386 471.785 311.449C471.777 311.511 471.757 311.572 471.726 311.627C471.695 311.682 471.653 311.73 471.602 311.769C471.552 311.807 471.495 311.835 471.434 311.852H471.307C471.206 311.854 471.106 311.824 471.023 311.766C470.939 311.708 470.876 311.625 470.844 311.528ZM443.043 311.36C442.924 311.318 442.826 311.231 442.771 311.118C442.716 311.005 442.707 310.875 442.748 310.755C442.792 310.635 442.882 310.537 442.997 310.482C443.112 310.427 443.245 310.419 443.366 310.46C443.486 310.505 443.584 310.594 443.639 310.709C443.694 310.825 443.702 310.957 443.661 311.079C443.624 311.171 443.56 311.25 443.477 311.305C443.395 311.36 443.297 311.389 443.197 311.388C443.144 311.393 443.091 311.384 443.043 311.36ZM312.331 310.46C312.302 310.404 312.284 310.342 312.279 310.279C312.274 310.216 312.282 310.153 312.301 310.093C312.321 310.033 312.352 309.977 312.393 309.929C312.435 309.881 312.485 309.842 312.542 309.814C312.658 309.76 312.79 309.753 312.911 309.795C313.031 309.837 313.131 309.924 313.188 310.038C313.217 310.094 313.234 310.154 313.239 310.216C313.244 310.278 313.237 310.34 313.217 310.399C313.197 310.458 313.166 310.513 313.125 310.559C313.084 310.606 313.034 310.644 312.977 310.671C312.904 310.692 312.826 310.692 312.753 310.671C312.68 310.666 312.609 310.645 312.545 310.608C312.482 310.571 312.428 310.521 312.387 310.46H312.331ZM475.369 310.123C475.347 310.065 475.337 310.003 475.339 309.941C475.341 309.879 475.356 309.817 475.382 309.761C475.408 309.705 475.445 309.654 475.492 309.612C475.538 309.571 475.592 309.539 475.65 309.518C475.77 309.482 475.899 309.492 476.011 309.547C476.123 309.601 476.21 309.697 476.255 309.814C476.296 309.935 476.288 310.067 476.233 310.183C476.178 310.298 476.08 310.388 475.96 310.432H475.805C475.717 310.422 475.634 310.388 475.565 310.333C475.495 310.278 475.442 310.206 475.412 310.123H475.369ZM438.559 309.532C438.502 309.507 438.45 309.47 438.407 309.424C438.364 309.378 438.331 309.325 438.309 309.266C438.286 309.207 438.276 309.145 438.278 309.082C438.28 309.019 438.294 308.957 438.32 308.9C438.375 308.787 438.471 308.699 438.589 308.655C438.707 308.61 438.837 308.613 438.953 308.661C439.012 308.687 439.065 308.724 439.109 308.771C439.153 308.818 439.188 308.873 439.21 308.933C439.232 308.994 439.242 309.058 439.239 309.122C439.236 309.187 439.22 309.25 439.192 309.308C439.152 309.39 439.091 309.461 439.014 309.51C438.937 309.56 438.848 309.587 438.756 309.589C438.7 309.584 438.647 309.564 438.601 309.532H438.559ZM479.825 308.436C479.8 308.378 479.787 308.316 479.787 308.253C479.787 308.19 479.8 308.127 479.825 308.07C479.85 308.012 479.887 307.959 479.933 307.916C479.979 307.873 480.033 307.839 480.092 307.818C480.149 307.79 480.21 307.775 480.273 307.773C480.336 307.771 480.399 307.783 480.457 307.807C480.516 307.831 480.568 307.866 480.612 307.912C480.655 307.957 480.689 308.012 480.71 308.071C480.736 308.129 480.749 308.191 480.75 308.255C480.751 308.318 480.74 308.381 480.716 308.44C480.693 308.499 480.658 308.552 480.613 308.598C480.569 308.643 480.516 308.679 480.457 308.703C480.397 308.717 480.335 308.717 480.275 308.703C480.189 308.698 480.107 308.671 480.035 308.624C479.964 308.577 479.906 308.512 479.867 308.436H479.825ZM316.505 308.155C316.437 308.045 316.415 307.912 316.444 307.786C316.473 307.66 316.55 307.55 316.66 307.48C316.713 307.447 316.773 307.424 316.835 307.414C316.897 307.404 316.961 307.406 317.022 307.42C317.084 307.435 317.142 307.461 317.193 307.498C317.244 307.535 317.287 307.581 317.32 307.635C317.354 307.689 317.376 307.748 317.387 307.81C317.397 307.873 317.395 307.936 317.381 307.998C317.366 308.059 317.34 308.117 317.303 308.168C317.266 308.219 317.22 308.263 317.166 308.296C317.093 308.35 317.004 308.38 316.913 308.38C316.839 308.372 316.768 308.347 316.705 308.308C316.642 308.269 316.588 308.217 316.547 308.155H316.505ZM434.272 307.382C434.16 307.32 434.076 307.216 434.039 307.092C434.002 306.968 434.015 306.835 434.076 306.721C434.14 306.611 434.246 306.53 434.369 306.496C434.492 306.462 434.624 306.477 434.736 306.539C434.846 306.601 434.926 306.703 434.96 306.824C434.995 306.946 434.98 307.075 434.919 307.185C434.877 307.261 434.816 307.324 434.742 307.368C434.668 307.413 434.584 307.437 434.497 307.438C434.434 307.429 434.372 307.41 434.315 307.382H434.272ZM484.196 306.511C484.143 306.397 484.137 306.267 484.179 306.148C484.221 306.03 484.308 305.933 484.421 305.878C484.537 305.824 484.669 305.818 484.79 305.86C484.91 305.902 485.01 305.989 485.067 306.103C485.093 306.16 485.108 306.222 485.11 306.285C485.112 306.348 485.101 306.41 485.079 306.469C485.057 306.528 485.023 306.581 484.98 306.627C484.937 306.673 484.886 306.71 484.828 306.736H484.618C484.541 306.731 484.466 306.709 484.4 306.67C484.334 306.63 484.279 306.576 484.238 306.511H484.196ZM320.469 305.513C320.396 305.408 320.368 305.279 320.389 305.153C320.41 305.027 320.479 304.914 320.581 304.838C320.685 304.764 320.813 304.733 320.938 304.751C321.064 304.77 321.178 304.836 321.256 304.936C321.328 305.042 321.357 305.171 321.336 305.297C321.315 305.422 321.246 305.535 321.143 305.611C321.061 305.671 320.964 305.705 320.862 305.709C320.793 305.703 320.726 305.683 320.666 305.649C320.605 305.615 320.552 305.568 320.511 305.513H320.469ZM430.098 304.979C430.045 304.947 429.998 304.905 429.962 304.855C429.925 304.805 429.899 304.748 429.884 304.688C429.87 304.628 429.868 304.565 429.878 304.504C429.888 304.443 429.91 304.384 429.943 304.332C429.973 304.276 430.013 304.227 430.062 304.188C430.111 304.148 430.168 304.12 430.229 304.104C430.29 304.088 430.354 304.085 430.416 304.095C430.478 304.106 430.537 304.129 430.59 304.163C430.645 304.195 430.693 304.238 430.731 304.289C430.769 304.339 430.797 304.397 430.813 304.458C430.829 304.52 430.832 304.584 430.823 304.647C430.813 304.709 430.792 304.77 430.759 304.824C430.716 304.895 430.657 304.954 430.585 304.996C430.514 305.037 430.434 305.061 430.351 305.063C430.285 305.047 430.223 305.018 430.168 304.979H430.098ZM488.441 304.374C488.381 304.262 488.368 304.132 488.405 304.01C488.442 303.889 488.525 303.787 488.637 303.728C488.75 303.672 488.88 303.661 489 303.698C489.12 303.734 489.222 303.815 489.284 303.925C489.344 304.038 489.357 304.171 489.321 304.295C489.284 304.419 489.2 304.523 489.087 304.585C489.013 304.598 488.937 304.598 488.862 304.585C488.792 304.578 488.724 304.556 488.663 304.519C488.602 304.483 488.55 304.433 488.511 304.374H488.441ZM324.264 302.631C324.224 302.583 324.194 302.526 324.176 302.466C324.158 302.406 324.152 302.342 324.158 302.28C324.165 302.217 324.184 302.156 324.214 302.101C324.244 302.045 324.285 301.996 324.334 301.957C324.434 301.88 324.56 301.844 324.685 301.857C324.811 301.87 324.927 301.931 325.009 302.027C325.095 302.121 325.144 302.244 325.144 302.371C325.144 302.499 325.095 302.622 325.009 302.716C324.919 302.782 324.81 302.816 324.699 302.814C324.628 302.817 324.557 302.802 324.493 302.77C324.429 302.738 324.374 302.69 324.334 302.631H324.264ZM426.05 302.421C425.944 302.352 425.87 302.243 425.843 302.119C425.817 301.996 425.841 301.866 425.91 301.76C425.981 301.653 426.092 301.578 426.218 301.552C426.344 301.526 426.476 301.55 426.584 301.62C426.688 301.691 426.76 301.799 426.786 301.922C426.812 302.045 426.79 302.173 426.725 302.28C426.682 302.349 426.622 302.406 426.55 302.445C426.479 302.485 426.399 302.505 426.317 302.505C426.247 302.489 426.18 302.461 426.121 302.421H426.05ZM492.615 302.069C492.582 302.015 492.56 301.955 492.551 301.892C492.542 301.829 492.545 301.765 492.561 301.704C492.576 301.642 492.604 301.584 492.642 301.534C492.681 301.483 492.729 301.441 492.784 301.409C492.894 301.346 493.025 301.329 493.148 301.36C493.271 301.391 493.377 301.469 493.444 301.577C493.507 301.688 493.524 301.818 493.493 301.942C493.461 302.065 493.384 302.171 493.276 302.238C493.198 302.281 493.111 302.305 493.023 302.308C492.952 302.296 492.885 302.268 492.827 302.227C492.768 302.186 492.72 302.132 492.685 302.069H492.615ZM422.073 299.764C421.968 299.69 421.896 299.579 421.872 299.453C421.849 299.327 421.875 299.196 421.946 299.09C422.022 298.988 422.134 298.918 422.259 298.894C422.384 298.871 422.513 298.896 422.621 298.963C422.723 299.039 422.793 299.151 422.816 299.276C422.839 299.401 422.815 299.53 422.747 299.638C422.702 299.703 422.641 299.757 422.57 299.794C422.499 299.83 422.42 299.849 422.34 299.849C422.269 299.835 422.202 299.806 422.143 299.764H422.073ZM496.691 299.596C496.626 299.485 496.606 299.353 496.635 299.228C496.663 299.102 496.739 298.993 496.845 298.921C496.899 298.887 496.959 298.865 497.021 298.855C497.083 298.844 497.147 298.846 497.208 298.861C497.269 298.875 497.327 298.901 497.378 298.938C497.43 298.975 497.473 299.022 497.506 299.076C497.54 299.129 497.562 299.189 497.572 299.251C497.583 299.313 497.581 299.377 497.566 299.438C497.552 299.499 497.526 299.557 497.489 299.609C497.452 299.66 497.405 299.703 497.351 299.736C497.28 299.793 497.19 299.823 497.098 299.82C497.03 299.808 496.964 299.782 496.906 299.743C496.848 299.705 496.799 299.654 496.761 299.596H496.691ZM328.03 299.596C327.944 299.504 327.897 299.384 327.897 299.258C327.897 299.133 327.944 299.012 328.03 298.921C328.124 298.834 328.247 298.786 328.375 298.786C328.502 298.786 328.625 298.834 328.719 298.921C328.808 299.01 328.858 299.132 328.858 299.258C328.858 299.385 328.808 299.506 328.719 299.596C328.678 299.634 328.629 299.664 328.576 299.683C328.523 299.703 328.466 299.711 328.41 299.708C328.344 299.72 328.277 299.719 328.211 299.705C328.146 299.69 328.085 299.663 328.03 299.624V299.596ZM500.767 296.953C500.694 296.848 500.666 296.719 500.687 296.593C500.708 296.467 500.777 296.354 500.879 296.279C500.932 296.242 500.991 296.216 501.053 296.202C501.116 296.188 501.18 296.187 501.243 296.199C501.306 296.211 501.366 296.235 501.42 296.271C501.473 296.306 501.519 296.352 501.554 296.405C501.624 296.51 501.65 296.638 501.627 296.761C501.603 296.885 501.531 296.994 501.427 297.066C501.348 297.119 501.256 297.148 501.16 297.15C501.086 297.154 501.012 297.141 500.944 297.112C500.875 297.083 500.815 297.038 500.767 296.981V296.953ZM418.193 297.066C418.141 297.032 418.095 296.987 418.06 296.935C418.025 296.883 418 296.824 417.988 296.763C417.977 296.701 417.977 296.637 417.991 296.576C418.004 296.514 418.03 296.456 418.067 296.405C418.136 296.299 418.244 296.224 418.368 296.198C418.492 296.172 418.621 296.196 418.728 296.265C418.781 296.3 418.827 296.346 418.862 296.399C418.898 296.452 418.922 296.512 418.934 296.575C418.945 296.638 418.945 296.703 418.931 296.765C418.917 296.828 418.891 296.887 418.854 296.939C418.812 297.006 418.754 297.06 418.685 297.097C418.616 297.134 418.539 297.152 418.461 297.15C418.368 297.157 418.275 297.137 418.193 297.094V297.066ZM331.699 296.532C331.653 296.488 331.616 296.436 331.591 296.378C331.566 296.32 331.553 296.257 331.553 296.194C331.553 296.131 331.566 296.069 331.591 296.011C331.616 295.953 331.653 295.9 331.699 295.857C331.79 295.771 331.911 295.723 332.036 295.723C332.161 295.723 332.282 295.771 332.373 295.857C332.463 295.947 332.513 296.068 332.513 296.194C332.513 296.321 332.463 296.442 332.373 296.532C332.288 296.607 332.178 296.647 332.064 296.644C332.001 296.657 331.935 296.656 331.872 296.642C331.809 296.627 331.75 296.599 331.699 296.56V296.532ZM414.23 294.423C414.176 294.39 414.129 294.347 414.092 294.295C414.056 294.244 414.03 294.185 414.017 294.123C414.004 294.062 414.003 293.998 414.016 293.936C414.028 293.874 414.053 293.815 414.089 293.763C414.122 293.709 414.166 293.662 414.217 293.625C414.269 293.589 414.327 293.563 414.389 293.55C414.451 293.537 414.515 293.536 414.577 293.549C414.639 293.561 414.698 293.586 414.75 293.622C414.856 293.691 414.931 293.8 414.957 293.923C414.983 294.047 414.959 294.177 414.891 294.283C414.849 294.349 414.791 294.403 414.722 294.44C414.653 294.477 414.575 294.496 414.497 294.494C414.406 294.507 414.313 294.493 414.23 294.451V294.423ZM504.674 294.198C504.636 294.149 504.608 294.092 504.593 294.032C504.577 293.972 504.574 293.909 504.583 293.847C504.592 293.786 504.614 293.726 504.646 293.673C504.679 293.62 504.722 293.574 504.773 293.538C504.876 293.464 505.004 293.433 505.13 293.451C505.255 293.47 505.369 293.536 505.447 293.636C505.52 293.741 505.548 293.87 505.527 293.996C505.506 294.122 505.437 294.235 505.335 294.311C505.251 294.366 505.154 294.395 505.054 294.395C504.981 294.401 504.909 294.388 504.842 294.359C504.776 294.33 504.718 294.284 504.674 294.227V294.198ZM335.367 293.482C335.278 293.392 335.228 293.271 335.228 293.144C335.228 293.018 335.278 292.897 335.367 292.807C335.467 292.73 335.593 292.694 335.718 292.707C335.844 292.72 335.96 292.781 336.042 292.877C336.082 292.926 336.111 292.982 336.13 293.043C336.148 293.103 336.154 293.167 336.147 293.229C336.141 293.292 336.122 293.353 336.092 293.408C336.061 293.463 336.021 293.512 335.971 293.552C335.93 293.59 335.881 293.62 335.828 293.64C335.775 293.659 335.719 293.667 335.662 293.664C335.548 293.651 335.443 293.596 335.367 293.51V293.482ZM410.252 291.851C410.199 291.818 410.152 291.775 410.115 291.724C410.078 291.673 410.052 291.615 410.038 291.553C410.023 291.492 410.021 291.428 410.031 291.366C410.042 291.304 410.064 291.244 410.098 291.191C410.131 291.137 410.174 291.09 410.225 291.053C410.277 291.017 410.334 290.99 410.396 290.976C410.457 290.961 410.521 290.959 410.583 290.97C410.645 290.98 410.705 291.003 410.758 291.036C410.812 291.069 410.859 291.112 410.896 291.164C410.932 291.215 410.959 291.273 410.973 291.334C410.988 291.396 410.99 291.459 410.979 291.521C410.969 291.584 410.946 291.643 410.913 291.697C410.871 291.767 410.811 291.826 410.74 291.868C410.668 291.91 410.588 291.933 410.505 291.936C410.414 291.936 410.325 291.906 410.252 291.851ZM508.525 291.345C508.486 291.296 508.457 291.239 508.44 291.178C508.423 291.117 508.419 291.053 508.426 290.99C508.434 290.928 508.455 290.867 508.486 290.812C508.517 290.757 508.559 290.709 508.61 290.671C508.659 290.631 508.716 290.603 508.777 290.586C508.838 290.569 508.902 290.564 508.965 290.572C509.027 290.58 509.088 290.6 509.143 290.631C509.198 290.663 509.246 290.705 509.284 290.755C509.356 290.858 509.388 290.984 509.372 291.109C509.357 291.233 509.295 291.348 509.2 291.43C509.121 291.494 509.021 291.529 508.919 291.528C508.841 291.539 508.762 291.53 508.689 291.503C508.615 291.476 508.549 291.432 508.497 291.373L508.525 291.345ZM339.134 290.53C339.06 290.427 339.029 290.299 339.047 290.173C339.066 290.047 339.132 289.933 339.232 289.855C339.336 289.781 339.464 289.75 339.589 289.769C339.715 289.787 339.829 289.853 339.907 289.954C339.981 290.057 340.012 290.185 339.993 290.311C339.975 290.437 339.909 290.55 339.809 290.628C339.726 290.688 339.629 290.722 339.527 290.727C339.449 290.735 339.369 290.723 339.296 290.694C339.223 290.665 339.157 290.618 339.106 290.558L339.134 290.53ZM406.162 289.42C406.107 289.388 406.06 289.345 406.021 289.295C405.983 289.244 405.955 289.186 405.939 289.125C405.924 289.063 405.92 288.999 405.93 288.937C405.939 288.874 405.961 288.813 405.994 288.759C406.024 288.705 406.065 288.657 406.115 288.619C406.164 288.581 406.221 288.553 406.281 288.537C406.341 288.522 406.404 288.518 406.466 288.527C406.528 288.536 406.587 288.558 406.64 288.59C406.696 288.62 406.745 288.66 406.784 288.709C406.824 288.758 406.853 288.814 406.87 288.875C406.887 288.935 406.892 288.998 406.884 289.061C406.876 289.123 406.855 289.183 406.823 289.237C406.781 289.312 406.72 289.376 406.646 289.42C406.572 289.464 406.488 289.489 406.401 289.49C406.31 289.497 406.219 289.483 406.134 289.448L406.162 289.42ZM512.25 288.366C512.21 288.317 512.18 288.261 512.162 288.2C512.144 288.14 512.138 288.076 512.145 288.014C512.151 287.951 512.17 287.89 512.2 287.835C512.23 287.779 512.271 287.731 512.32 287.691C512.369 287.651 512.425 287.621 512.486 287.603C512.546 287.585 512.609 287.579 512.672 287.586C512.735 287.592 512.796 287.611 512.851 287.641C512.906 287.671 512.955 287.712 512.995 287.761C513.081 287.852 513.129 287.973 513.129 288.099C513.129 288.224 513.081 288.345 512.995 288.436C512.905 288.503 512.798 288.542 512.686 288.548C512.601 288.567 512.514 288.562 512.432 288.535C512.351 288.508 512.278 288.459 512.222 288.394L512.25 288.366ZM343.013 287.747C342.976 287.695 342.95 287.636 342.936 287.573C342.923 287.511 342.922 287.446 342.933 287.383C342.945 287.32 342.97 287.26 343.005 287.207C343.04 287.154 343.086 287.108 343.14 287.073C343.248 287.003 343.379 286.979 343.506 287.005C343.632 287.031 343.743 287.106 343.814 287.213C343.883 287.319 343.907 287.449 343.881 287.572C343.854 287.696 343.78 287.805 343.674 287.874C343.595 287.929 343.502 287.958 343.407 287.958C343.327 287.964 343.247 287.951 343.173 287.919C343.1 287.887 343.035 287.838 342.985 287.775L343.013 287.747ZM402.044 287.157C401.932 287.097 401.849 286.996 401.812 286.874C401.775 286.753 401.788 286.622 401.847 286.51C401.876 286.454 401.915 286.403 401.963 286.362C402.011 286.321 402.067 286.289 402.127 286.27C402.187 286.25 402.25 286.243 402.313 286.248C402.376 286.253 402.438 286.27 402.494 286.299C402.604 286.364 402.687 286.468 402.726 286.59C402.764 286.711 402.757 286.843 402.705 286.96C402.66 287.036 402.596 287.099 402.52 287.143C402.443 287.187 402.357 287.211 402.269 287.213C402.166 287.241 402.056 287.231 401.96 287.185L402.044 287.157ZM515.89 285.288C515.801 285.198 515.751 285.077 515.751 284.95C515.751 284.824 515.801 284.702 515.89 284.613C515.981 284.527 516.102 284.479 516.227 284.479C516.353 284.479 516.473 284.527 516.565 284.613C516.651 284.704 516.699 284.825 516.699 284.95C516.699 285.076 516.651 285.196 516.565 285.288C516.524 285.328 516.476 285.36 516.423 285.382C516.37 285.403 516.313 285.414 516.256 285.414C516.189 285.425 516.121 285.423 516.055 285.406C515.99 285.389 515.929 285.358 515.876 285.316L515.89 285.288ZM347.005 285.231C346.972 285.176 346.951 285.115 346.943 285.052C346.935 284.988 346.939 284.924 346.956 284.862C346.974 284.801 347.003 284.743 347.042 284.693C347.082 284.643 347.131 284.601 347.187 284.571C347.298 284.51 347.427 284.495 347.548 284.529C347.669 284.564 347.772 284.644 347.834 284.753C347.866 284.809 347.887 284.87 347.895 284.933C347.904 284.996 347.899 285.061 347.882 285.122C347.865 285.184 347.836 285.241 347.796 285.292C347.757 285.342 347.707 285.383 347.651 285.414C347.573 285.432 347.491 285.432 347.412 285.414C347.335 285.419 347.257 285.405 347.186 285.373C347.115 285.341 347.053 285.293 347.005 285.231ZM397.673 285.147C397.616 285.121 397.564 285.084 397.521 285.039C397.478 284.993 397.445 284.939 397.423 284.88C397.4 284.822 397.39 284.759 397.392 284.696C397.394 284.633 397.408 284.572 397.434 284.515C397.46 284.457 397.497 284.406 397.543 284.363C397.588 284.32 397.642 284.286 397.701 284.264C397.76 284.242 397.822 284.231 397.885 284.233C397.948 284.235 398.009 284.25 398.067 284.276C398.125 284.3 398.178 284.336 398.222 284.381C398.266 284.427 398.301 284.481 398.323 284.54C398.345 284.599 398.355 284.663 398.352 284.726C398.349 284.789 398.333 284.851 398.306 284.908C398.268 284.992 398.206 285.063 398.129 285.113C398.052 285.163 397.962 285.189 397.87 285.189C397.807 285.187 397.745 285.173 397.687 285.147H397.673ZM393.302 283.418C393.242 283.398 393.186 283.366 393.139 283.323C393.091 283.28 393.053 283.228 393.027 283.17C393 283.112 392.986 283.049 392.985 282.986C392.984 282.922 392.996 282.859 393.021 282.8C393.068 282.682 393.159 282.588 393.274 282.535C393.389 282.483 393.52 282.477 393.639 282.519C393.757 282.566 393.851 282.656 393.904 282.772C393.956 282.887 393.962 283.018 393.92 283.137C393.888 283.23 393.827 283.309 393.746 283.365C393.665 283.42 393.569 283.449 393.471 283.446C393.413 283.451 393.355 283.441 393.302 283.418ZM351.221 283.025C351.173 282.909 351.17 282.779 351.215 282.661C351.259 282.543 351.347 282.447 351.46 282.392C351.518 282.364 351.581 282.348 351.645 282.345C351.71 282.342 351.774 282.352 351.834 282.374C351.895 282.396 351.95 282.431 351.997 282.475C352.044 282.519 352.081 282.572 352.107 282.631C352.132 282.689 352.146 282.752 352.147 282.815C352.148 282.879 352.136 282.941 352.113 283C352.089 283.059 352.054 283.113 352.01 283.158C351.965 283.203 351.912 283.239 351.854 283.264C351.789 283.278 351.722 283.278 351.657 283.264C351.569 283.268 351.482 283.247 351.406 283.205C351.329 283.163 351.265 283.101 351.221 283.025ZM388.79 281.886C388.668 281.847 388.566 281.762 388.506 281.65C388.446 281.537 388.432 281.405 388.467 281.282C388.506 281.16 388.591 281.058 388.704 280.998C388.817 280.937 388.948 280.923 389.071 280.959C389.193 280.997 389.295 281.082 389.356 281.195C389.416 281.308 389.43 281.44 389.395 281.563C389.362 281.661 389.3 281.746 389.217 281.806C389.134 281.867 389.034 281.9 388.931 281.9H388.79V281.886ZM355.634 281.226C355.615 281.166 355.607 281.102 355.612 281.039C355.617 280.977 355.634 280.915 355.663 280.859C355.692 280.803 355.731 280.753 355.78 280.712C355.828 280.671 355.884 280.64 355.944 280.621C356.004 280.602 356.067 280.594 356.13 280.599C356.193 280.604 356.254 280.621 356.31 280.65C356.367 280.679 356.416 280.718 356.457 280.766C356.498 280.815 356.529 280.87 356.548 280.93C356.568 280.99 356.575 281.054 356.57 281.117C356.565 281.18 356.548 281.241 356.519 281.297C356.491 281.353 356.451 281.403 356.403 281.444C356.355 281.485 356.299 281.516 356.239 281.535H356.084C355.989 281.533 355.897 281.502 355.819 281.447C355.742 281.392 355.682 281.315 355.649 281.226H355.634ZM384.208 280.72C384.086 280.693 383.979 280.619 383.91 280.513C383.842 280.408 383.818 280.28 383.843 280.157C383.854 280.094 383.879 280.034 383.915 279.981C383.95 279.928 383.997 279.883 384.051 279.848C384.105 279.814 384.166 279.791 384.229 279.782C384.293 279.772 384.357 279.775 384.419 279.792C384.481 279.804 384.539 279.828 384.591 279.863C384.643 279.897 384.688 279.942 384.722 279.995C384.756 280.048 384.779 280.106 384.79 280.168C384.801 280.23 384.799 280.293 384.785 280.354C384.762 280.463 384.701 280.561 384.614 280.63C384.527 280.699 384.418 280.736 384.307 280.734H384.208V280.72ZM360.202 279.919C360.188 279.856 360.187 279.791 360.198 279.727C360.21 279.664 360.234 279.603 360.269 279.549C360.305 279.496 360.351 279.449 360.404 279.414C360.458 279.378 360.518 279.354 360.582 279.342C360.705 279.317 360.833 279.341 360.938 279.41C361.043 279.478 361.117 279.585 361.144 279.708C361.159 279.77 361.161 279.834 361.15 279.896C361.139 279.959 361.116 280.019 361.082 280.073C361.048 280.126 361.004 280.173 360.952 280.209C360.9 280.245 360.841 280.271 360.779 280.284H360.68C360.574 280.281 360.471 280.244 360.387 280.179C360.304 280.113 360.244 280.021 360.216 279.919H360.202ZM379.556 279.919C379.43 279.898 379.318 279.829 379.242 279.727C379.166 279.624 379.132 279.497 379.149 279.37C379.155 279.308 379.175 279.247 379.206 279.193C379.237 279.138 379.278 279.09 379.328 279.052C379.378 279.014 379.435 278.986 379.496 278.971C379.557 278.956 379.621 278.953 379.683 278.963C379.808 278.984 379.921 279.052 379.997 279.155C380.073 279.257 380.107 279.385 380.09 279.511C380.071 279.624 380.012 279.726 379.925 279.801C379.838 279.875 379.727 279.917 379.612 279.919H379.542H379.556ZM364.897 279.117C364.885 278.993 364.922 278.868 365.001 278.771C365.08 278.674 365.194 278.612 365.318 278.597C365.382 278.587 365.446 278.591 365.508 278.607C365.57 278.623 365.627 278.652 365.678 278.692C365.728 278.731 365.769 278.781 365.799 278.837C365.829 278.893 365.847 278.955 365.852 279.019C365.864 279.147 365.825 279.275 365.744 279.375C365.662 279.475 365.545 279.539 365.417 279.553C365.291 279.557 365.168 279.513 365.074 279.429C364.98 279.345 364.922 279.229 364.911 279.103L364.897 279.117ZM374.848 279.427C374.784 279.425 374.722 279.41 374.664 279.384C374.607 279.357 374.555 279.318 374.513 279.271C374.471 279.224 374.439 279.168 374.419 279.108C374.399 279.047 374.392 278.984 374.398 278.921C374.402 278.858 374.417 278.796 374.445 278.74C374.472 278.683 374.511 278.632 374.558 278.591C374.605 278.549 374.659 278.517 374.719 278.496C374.778 278.476 374.841 278.467 374.904 278.471C375.032 278.482 375.151 278.542 375.235 278.639C375.319 278.736 375.362 278.863 375.354 278.991C375.347 279.113 375.293 279.227 375.204 279.311C375.115 279.394 374.998 279.441 374.876 279.441L374.848 279.427ZM369.647 278.808C369.645 278.745 369.656 278.682 369.68 278.623C369.703 278.564 369.738 278.511 369.783 278.466C369.828 278.421 369.881 278.386 369.94 278.363C369.999 278.339 370.062 278.328 370.125 278.33C370.252 278.33 370.374 278.381 370.463 278.47C370.553 278.56 370.603 278.681 370.603 278.808C370.603 278.935 370.553 279.056 370.463 279.146C370.374 279.236 370.252 279.286 370.125 279.286C370.062 279.284 370.001 279.27 369.943 279.244C369.886 279.219 369.834 279.182 369.791 279.136C369.748 279.091 369.715 279.037 369.692 278.978C369.67 278.919 369.66 278.857 369.661 278.794L369.647 278.808Z" fill="white"/>
<path opacity="0.8" d="M275.675 311.529C275.615 311.542 275.552 311.542 275.492 311.529C275.432 311.504 275.379 311.466 275.338 311.416C275.289 311.376 275.255 311.322 275.239 311.262C275.225 311.202 275.225 311.139 275.239 311.079C275.244 310.953 275.294 310.833 275.38 310.742C275.422 310.696 275.475 310.662 275.534 310.643C275.591 310.616 275.654 310.602 275.717 310.602C275.78 310.602 275.843 310.616 275.9 310.643C275.961 310.659 276.015 310.693 276.054 310.742C276.1 310.785 276.135 310.838 276.159 310.896C276.184 310.954 276.196 311.016 276.195 311.079C276.21 311.139 276.21 311.202 276.195 311.262C276.174 311.323 276.135 311.377 276.083 311.416C276.041 311.466 275.988 311.504 275.928 311.529C275.846 311.557 275.757 311.557 275.675 311.529Z" fill="white"/>
</g>
<path d="M352.739 167.619L349.464 164.077C343.55 169.671 335.735 172.815 327.595 172.876C321.135 172.977 314.846 170.802 309.83 166.731C304.813 162.661 301.39 156.954 300.159 150.612L295.24 151.905L290.742 153.086C292.02 159.726 295.131 165.875 299.723 170.838C313.989 186.214 339.274 186.214 355.747 170.838L352.739 167.619Z" fill="white"/>
<path d="M359.752 114.828L355.437 118.834L352.472 121.645C355.09 124.486 357.09 127.838 358.348 131.491C359.606 135.144 360.094 139.017 359.78 142.868C359.142 150.994 355.457 158.58 349.464 164.105L352.036 166.916L355.746 170.908C363.651 163.608 368.51 153.595 369.352 142.868C369.771 137.785 369.135 132.67 367.483 127.845C365.831 123.019 363.199 118.588 359.752 114.828Z" fill="#263238"/>
<path d="M359.753 114.828C345.487 99.4661 320.202 99.4661 303.744 114.828C298.534 119.596 294.615 125.604 292.349 132.292C290.084 138.981 289.546 146.134 290.785 153.086L296.407 151.681L300.258 150.669C299.766 148.109 299.615 145.495 299.808 142.896C300.491 134.789 304.163 127.225 310.111 121.674C316.06 116.123 323.859 112.982 331.994 112.861C335.851 112.818 339.674 113.579 343.222 115.093C346.769 116.608 349.962 118.844 352.599 121.659L356.394 118.103L359.753 114.828Z" fill="#9468B4"/>
<path d="M400.133 167.619L403.914 164.078C401.304 161.236 399.311 157.884 398.061 154.234C396.81 150.584 396.329 146.714 396.648 142.869C397.224 136.113 399.872 129.701 404.228 124.506C408.585 119.312 414.439 115.588 420.991 113.845L420.035 109.01L419.178 104.597C412.261 106.44 405.907 109.965 400.682 114.857C384.209 130.219 382.41 155.504 396.662 170.88L400.133 167.619Z" fill="white"/>
<path d="M452.685 170.852L448.96 166.832L446.402 164.021C440.491 169.622 432.675 172.771 424.532 172.834C420.673 172.876 416.848 172.116 413.298 170.602C409.749 169.087 406.553 166.851 403.914 164.036L400.948 166.847L396.661 170.852C400.148 174.555 404.362 177.496 409.04 179.492C413.718 181.487 418.758 182.494 423.844 182.448C434.575 182.356 444.876 178.214 452.685 170.852Z" fill="#263238"/>
<path d="M452.685 170.852C469.143 155.476 470.956 130.19 456.705 114.828C451.969 109.874 445.975 106.302 439.364 104.494C432.753 102.687 425.775 102.712 419.178 104.568L420.246 110.036L420.991 113.816C423.551 113.145 426.187 112.805 428.834 112.804C432.699 112.747 436.534 113.504 440.089 115.024C443.644 116.544 446.839 118.794 449.468 121.629C452.098 124.464 454.102 127.819 455.351 131.478C456.6 135.137 457.066 139.018 456.719 142.868C456.077 150.99 452.393 158.57 446.402 164.091L449.691 167.647L452.685 170.852Z" fill="#9468B4"/>
<path opacity="0.3" d="M519.066 106.761C519.452 106.76 519.835 106.839 520.189 106.992C520.544 107.145 520.863 107.37 521.127 107.653C521.39 107.935 521.593 108.268 521.722 108.632C521.851 108.997 521.904 109.383 521.877 109.769L520.134 134.014C520.052 134.871 519.66 135.668 519.031 136.256C518.402 136.843 517.579 137.181 516.719 137.204H492.46C492.072 137.205 491.689 137.126 491.333 136.972C490.977 136.818 490.658 136.591 490.394 136.308C490.13 136.024 489.927 135.689 489.799 135.323C489.671 134.957 489.62 134.569 489.649 134.182L491.378 109.937C491.46 109.082 491.853 108.286 492.482 107.701C493.112 107.115 493.934 106.781 494.793 106.761H519.038H519.066ZM519.038 105.51H494.821C493.647 105.533 492.522 105.989 491.663 106.791C490.805 107.592 490.272 108.683 490.169 109.853L488.44 134.098C488.393 134.653 488.462 135.211 488.644 135.738C488.825 136.265 489.113 136.748 489.492 137.156C489.87 137.565 490.329 137.89 490.84 138.111C491.351 138.333 491.903 138.445 492.46 138.441H516.705C517.88 138.421 519.006 137.966 519.866 137.164C520.725 136.361 521.256 135.269 521.357 134.098L523.1 109.853C523.147 109.297 523.077 108.737 522.895 108.21C522.713 107.682 522.423 107.198 522.043 106.789C521.664 106.381 521.203 106.056 520.69 105.835C520.177 105.615 519.624 105.504 519.066 105.51H519.038Z" fill="#9468B4"/>
<path opacity="0.3" d="M516.073 148.49C516.459 148.489 516.841 148.568 517.196 148.722C517.551 148.875 517.87 149.1 518.133 149.382C518.397 149.664 518.6 149.998 518.729 150.362C518.858 150.726 518.911 151.113 518.884 151.498L517.155 175.743C517.07 176.599 516.677 177.395 516.048 177.982C515.42 178.569 514.599 178.907 513.74 178.934H489.481C489.093 178.935 488.709 178.856 488.354 178.701C487.998 178.547 487.679 178.321 487.415 178.037C487.151 177.753 486.948 177.418 486.82 177.052C486.692 176.687 486.641 176.298 486.67 175.912L488.412 151.667C488.495 150.811 488.888 150.016 489.517 149.43C490.146 148.845 490.969 148.51 491.828 148.49H516.059H516.073ZM516.059 147.239H491.842C490.667 147.26 489.54 147.715 488.681 148.517C487.822 149.319 487.29 150.411 487.19 151.582L485.447 175.827C485.4 176.384 485.47 176.943 485.651 177.471C485.833 177.998 486.124 178.482 486.503 178.891C486.883 179.3 487.344 179.625 487.857 179.845C488.37 180.066 488.923 180.176 489.481 180.17H513.726C514.9 180.147 516.025 179.691 516.883 178.89C517.742 178.088 518.274 176.997 518.378 175.827L520.107 151.582C520.154 151.026 520.084 150.467 519.902 149.939C519.72 149.412 519.43 148.928 519.05 148.519C518.67 148.11 518.209 147.785 517.697 147.565C517.184 147.344 516.631 147.234 516.073 147.239H516.059Z" fill="#9468B4"/>
<path d="M480.527 282.618C480.853 282.61 481.176 282.671 481.477 282.797C481.777 282.923 482.047 283.111 482.27 283.349C482.49 283.59 482.658 283.875 482.762 284.185C482.866 284.495 482.904 284.823 482.874 285.148C482.812 285.878 482.481 286.559 481.947 287.06C481.412 287.561 480.711 287.846 479.979 287.861C479.652 287.871 479.327 287.81 479.025 287.684C478.724 287.558 478.453 287.369 478.23 287.129C478.008 286.889 477.84 286.605 477.736 286.295C477.633 285.985 477.597 285.656 477.632 285.331C477.691 284.6 478.02 283.917 478.555 283.415C479.091 282.914 479.794 282.63 480.527 282.618ZM480.527 281.381C479.484 281.398 478.484 281.801 477.721 282.513C476.957 283.224 476.485 284.193 476.395 285.232C476.349 285.728 476.409 286.227 476.569 286.697C476.729 287.168 476.987 287.6 477.325 287.964C477.663 288.329 478.074 288.618 478.531 288.814C478.988 289.009 479.482 289.106 479.979 289.098C481.024 289.08 482.026 288.675 482.789 287.961C483.553 287.247 484.024 286.274 484.111 285.232C484.154 284.738 484.093 284.241 483.932 283.772C483.771 283.303 483.513 282.873 483.175 282.51C482.838 282.147 482.427 281.859 481.971 281.664C481.515 281.47 481.023 281.373 480.527 281.381Z" fill="#9468B4"/>
<path d="M480.893 281.394L480.274 281.352L480.373 280.115L480.977 280.157L480.893 281.394Z" fill="#9468B4"/>
<path d="M481.159 277.628H480.541L480.724 275.098H481.342L481.159 277.628ZM481.525 272.54H480.906L481.089 270.01H481.708L481.525 272.54ZM481.89 267.466H481.272L481.455 264.922H482.073L481.89 267.466ZM482.256 262.392H481.637L481.82 259.849H482.438L482.256 262.392ZM482.621 257.319H482.003L482.185 254.775H482.804L482.621 257.319ZM482.987 252.245H482.368L482.551 249.701H483.169L482.987 252.245ZM483.352 247.157H482.734L482.916 244.627H483.535L483.352 247.157ZM483.717 242.083H483.099L483.282 239.539H483.9L483.717 242.083ZM484.083 237.009H483.464L483.647 234.465H484.266L484.083 237.009ZM484.434 231.935H483.816L483.999 229.391H484.617L484.434 231.935ZM484.8 226.861H484.181L484.364 224.317H484.982L484.8 226.861Z" fill="#9468B4"/>
<path d="M484.62 220.501L484.532 221.734L485.149 221.778L485.237 220.544L484.62 220.501Z" fill="#9468B4"/>
<path d="M511.139 221.198H288.592C287.982 221.203 287.378 221.081 286.819 220.839C286.26 220.597 285.758 220.24 285.345 219.792C284.928 219.344 284.609 218.813 284.408 218.235C284.207 217.657 284.129 217.043 284.178 216.433L285.289 201.113C285.393 199.86 285.961 198.69 286.881 197.833C287.801 196.976 289.007 196.491 290.264 196.475H512.854C513.462 196.471 514.064 196.593 514.622 196.834C515.18 197.076 515.681 197.43 516.095 197.876C516.509 198.321 516.825 198.847 517.025 199.422C517.224 199.996 517.302 200.605 517.253 201.211L516.157 216.531C516.055 217.795 515.483 218.976 514.555 219.839C513.626 220.703 512.407 221.188 511.139 221.198ZM290.264 197.824C289.344 197.838 288.461 198.194 287.788 198.823C287.116 199.451 286.701 200.308 286.624 201.225L285.528 216.545C285.492 216.971 285.545 217.399 285.683 217.803C285.82 218.207 286.04 218.578 286.329 218.892C286.619 219.2 286.97 219.444 287.36 219.608C287.749 219.773 288.169 219.855 288.592 219.848H511.139C512.061 219.837 512.945 219.482 513.618 218.853C514.292 218.224 514.706 217.366 514.779 216.447L515.89 201.127C515.923 200.707 515.869 200.285 515.731 199.888C515.594 199.49 515.376 199.124 515.091 198.814C514.806 198.505 514.46 198.257 514.076 198.086C513.691 197.916 513.275 197.827 512.854 197.824H290.264Z" fill="#9468B4"/>
<path opacity="0.8" fill-rule="evenodd" clip-rule="evenodd" d="M506.36 206.369H295.394C295.125 206.372 294.859 206.318 294.612 206.212C294.365 206.106 294.143 205.949 293.96 205.752C293.777 205.555 293.638 205.321 293.551 205.067C293.464 204.812 293.431 204.542 293.455 204.275C293.506 203.714 293.763 203.192 294.175 202.808C294.587 202.424 295.126 202.206 295.689 202.194H506.67C506.937 202.191 507.201 202.244 507.447 202.35C507.692 202.456 507.913 202.611 508.094 202.807C508.275 203.003 508.414 203.235 508.5 203.488C508.586 203.741 508.619 204.009 508.595 204.275C508.55 204.839 508.296 205.366 507.883 205.754C507.469 206.141 506.927 206.36 506.36 206.369Z" fill="white"/>
<path opacity="0.8" fill-rule="evenodd" clip-rule="evenodd" d="M471.209 215.154H294.762C294.495 215.157 294.23 215.104 293.985 214.998C293.74 214.893 293.519 214.737 293.338 214.541C293.156 214.345 293.018 214.113 292.932 213.86C292.845 213.608 292.813 213.34 292.837 213.074C292.882 212.509 293.136 211.982 293.549 211.595C293.962 211.207 294.505 210.988 295.071 210.979H471.504C471.784 210.967 472.064 211.016 472.323 211.123C472.582 211.23 472.815 211.392 473.005 211.598C473.195 211.804 473.338 212.049 473.424 212.316C473.509 212.583 473.535 212.866 473.5 213.144C473.431 213.702 473.16 214.214 472.737 214.585C472.315 214.956 471.771 215.158 471.209 215.154Z" fill="white"/>
</svg>
