<svg width="494" height="427" viewBox="0 0 494 427" fill="none" xmlns="http://www.w3.org/2000/svg">
<path d="M51.0322 358.042L106.297 357.757L161.573 357.65L272.101 357.448L382.63 357.65L437.906 357.757L493.17 358.042L437.906 358.327L382.63 358.434L272.101 358.636L161.573 358.434L106.297 358.327L51.0322 358.042Z" fill="#263238"/>
<path d="M135.273 426.51C209.982 426.51 270.545 417.789 270.545 407.031C270.545 396.273 209.982 387.552 135.273 387.552C60.5636 387.552 0 396.273 0 407.031C0 417.789 60.5636 426.51 135.273 426.51Z" fill="#EBEBEB" fill-opacity="0.15"/>
<path d="M473.954 0.392578H75.1953V297.144H473.954V0.392578Z" fill="#37474F"/>
<path d="M453.821 19.6934H95.3398V232.788H453.821V19.6934Z" fill="white"/>
<path d="M473.953 253.373H75.1943V297.144H473.953V253.373Z" fill="#C7C7C7"/>
<path d="M359.621 350.638H189.538V364.852H359.621V350.638Z" fill="#37474F"/>
<path d="M339.358 350.649H209.79L213.082 325.976L213.237 324.812L213.546 322.506L213.7 321.341L214.009 319.024L214.057 318.667L214.164 317.859L214.485 315.542L214.627 314.389L216.933 297.156H332.215L334.378 313.402L334.497 314.187L334.854 316.885L334.949 317.669L335.091 318.667L335.317 320.367L335.412 321.139L335.769 323.849L335.888 324.622L339.358 350.649Z" fill="#C7C7C7"/>
<path d="M453.821 19.6934H95.3398V31.2216H453.821V19.6934Z" fill="#263238"/>
<path d="M104.527 25.4815C104.527 26.0484 104.359 26.6027 104.044 27.074C103.728 27.5452 103.28 27.9123 102.756 28.1288C102.232 28.3452 101.656 28.4012 101.1 28.2898C100.544 28.1783 100.034 27.9043 99.6335 27.5025C99.2334 27.1008 98.9616 26.5893 98.8524 26.0329C98.7433 25.4765 98.8017 24.9003 99.0203 24.3771C99.2389 23.8539 99.6079 23.4074 100.08 23.0941C100.553 22.7808 101.108 22.6149 101.675 22.6172C102.051 22.6172 102.422 22.6914 102.769 22.8355C103.116 22.9796 103.431 23.1907 103.696 23.4569C103.961 23.723 104.171 24.0388 104.314 24.3863C104.456 24.7337 104.529 25.1059 104.527 25.4815Z" fill="#C7C7C7"/>
<path d="M116.162 25.4815C116.162 26.0484 115.994 26.6027 115.679 27.074C115.363 27.5452 114.915 27.9123 114.391 28.1288C113.867 28.3452 113.291 28.4012 112.735 28.2898C112.179 28.1783 111.668 27.9043 111.268 27.5025C110.868 27.1008 110.596 26.5893 110.487 26.0329C110.378 25.4765 110.436 24.9003 110.655 24.3771C110.874 23.8539 111.243 23.4074 111.715 23.0941C112.188 22.7808 112.743 22.6149 113.31 22.6172C113.685 22.6172 114.057 22.6914 114.404 22.8355C114.751 22.9796 115.066 23.1907 115.331 23.4569C115.596 23.723 115.806 24.0388 115.948 24.3863C116.091 24.7337 116.164 25.1059 116.162 25.4815Z" fill="white"/>
<path d="M127.845 25.4814C127.845 26.0479 127.677 26.6017 127.362 27.0727C127.047 27.5437 126.6 27.9108 126.077 28.1276C125.553 28.3444 124.977 28.4011 124.422 28.2906C123.866 28.1801 123.356 27.9073 122.955 27.5067C122.555 27.1062 122.282 26.5958 122.171 26.0402C122.061 25.4846 122.117 24.9087 122.334 24.3853C122.551 23.862 122.918 23.4146 123.389 23.0999C123.86 22.7852 124.414 22.6172 124.98 22.6172C125.74 22.6172 126.469 22.919 127.006 23.4561C127.543 23.9933 127.845 24.7218 127.845 25.4814Z" fill="#BA68C8"/>
<path d="M281.67 272.317C281.667 273.747 281.241 275.144 280.444 276.332C279.647 277.519 278.515 278.443 277.192 278.987C275.87 279.531 274.415 279.671 273.014 279.388C271.612 279.105 270.325 278.412 269.317 277.397C268.309 276.383 267.625 275.092 267.351 273.688C267.078 272.284 267.227 270.831 267.779 269.512C268.332 268.193 269.264 267.067 270.456 266.278C271.649 265.489 273.049 265.072 274.479 265.079C276.392 265.088 278.222 265.855 279.57 267.212C280.918 268.569 281.673 270.404 281.67 272.317Z" fill="#37474F"/>
<path d="M335.091 318.667H214.057L214.164 317.859L214.484 315.542L214.627 314.389L216.933 297.156H332.215L334.378 313.402L334.497 314.187L334.854 316.885L334.949 317.669L335.091 318.667Z" fill="#A6A6A6"/>
<path d="M453.821 31.21H95.3398V78.9749H453.821V31.21Z" fill="#BA68C8"/>
<path d="M433.07 214.033H288.218V112.24H433.07V214.033ZM289.406 212.845H431.881V113.429H289.406V212.845Z" fill="#EBEBEB"/>
<path d="M287.924 111.341L287.246 112.315L431.061 212.284L431.738 211.31L287.924 111.341Z" fill="#EBEBEB"/>
<path d="M289.156 213.927L288.467 212.952C289.845 211.99 426.473 116.614 432.118 112.359L432.831 113.31C427.174 117.577 290.535 212.964 289.156 213.927Z" fill="#EBEBEB"/>
<path d="M342.592 31.21H206.559V72.9256H342.592V31.21Z" fill="#263238"/>
<path d="M262.523 92.1074H168.146V94.0328H262.523V92.1074Z" fill="#EBEBEB"/>
<path d="M241.082 96.9561H168.146V98.8814H241.082V96.9561Z" fill="#EBEBEB"/>
<path d="M256.865 101.806H168.146V103.731H256.865V101.806Z" fill="#EBEBEB"/>
<path d="M264.626 106.654H168.146V108.58H264.626V106.654Z" fill="#EBEBEB"/>
<path d="M218.169 111.504H168.146V113.429H218.169V111.504Z" fill="#EBEBEB"/>
<path d="M262.82 116.364H168.146V118.29H262.82V116.364Z" fill="#EBEBEB"/>
<path d="M246.954 121.214H168.146V123.139H246.954V121.214Z" fill="#EBEBEB"/>
<path d="M267.205 126.062H168.146V127.988H267.205V126.062Z" fill="#EBEBEB"/>
<path d="M262.82 130.911H168.146V132.836H262.82V130.911Z" fill="#EBEBEB"/>
<path d="M267.205 135.761H168.146V137.686H267.205V135.761Z" fill="#EBEBEB"/>
<path d="M130.59 44.2715H116.673V46.1968H130.59V44.2715Z" fill="white"/>
<path d="M130.59 49.1201H116.673V51.0454H130.59V49.1201Z" fill="white"/>
<path d="M130.59 53.9697H116.673V55.8951H130.59V53.9697Z" fill="white"/>
<path d="M432.475 92.1074H288.812V102.768H432.475V92.1074Z" fill="#BA68C8"/>
<path d="M162.251 92.0957H116.673V137.686H162.251V92.0957Z" fill="#A6A6A6"/>
<path d="M139.468 114.89C144.016 114.89 147.704 111.203 147.704 106.654C147.704 102.105 144.016 98.418 139.468 98.418C134.919 98.418 131.231 102.105 131.231 106.654C131.231 111.203 134.919 114.89 139.468 114.89Z" fill="white"/>
<path d="M153.705 129.39V137.709H125.182V129.39C125.182 125.607 126.684 121.98 129.359 119.305C132.033 116.631 135.661 115.128 139.443 115.128C143.226 115.128 146.853 116.631 149.528 119.305C152.203 121.98 153.705 125.607 153.705 129.39Z" fill="white"/>
<path d="M235.021 63.3342V55.0149C235.019 54.9124 235.038 54.8107 235.076 54.7156C235.114 54.6205 235.171 54.5339 235.243 54.4609C235.314 54.3879 235.4 54.3299 235.495 54.2904C235.589 54.2508 235.691 54.2305 235.793 54.2305H237.802C238.514 54.2305 239.197 54.5135 239.701 55.0172C240.205 55.5209 240.488 56.2041 240.488 56.9164C240.489 57.5007 240.296 58.069 239.941 58.5328C240.5 58.8784 240.93 59.397 241.168 60.0097C241.405 60.6224 241.436 61.2957 241.256 61.9276C241.076 62.5594 240.694 63.1152 240.169 63.5107C239.645 63.9061 239.005 64.1195 238.348 64.1186H235.793C235.691 64.1186 235.589 64.0983 235.495 64.0587C235.4 64.0191 235.314 63.9612 235.243 63.8882C235.171 63.8152 235.114 63.7286 235.076 63.6335C235.038 63.5384 235.019 63.4367 235.021 63.3342ZM236.578 58.0455H237.766C238.069 58.0273 238.353 57.8941 238.561 57.6732C238.768 57.4522 238.884 57.1602 238.883 56.857C238.883 56.5607 238.765 56.2766 238.556 56.067C238.346 55.8575 238.062 55.7398 237.766 55.7398H236.578V58.0455ZM236.578 62.5379H238.348C238.54 62.5379 238.729 62.5 238.906 62.4264C239.083 62.3528 239.243 62.245 239.378 62.1091C239.513 61.9732 239.619 61.8119 239.691 61.6346C239.764 61.4573 239.8 61.2675 239.798 61.0761C239.798 60.6905 239.646 60.3204 239.374 60.0466C239.103 59.7728 238.734 59.6174 238.348 59.6143H236.578V62.5379Z" fill="white"/>
<path d="M243.412 63.3342V55.0149C243.411 54.9124 243.43 54.8107 243.468 54.7156C243.506 54.6205 243.563 54.5339 243.635 54.4609C243.706 54.3879 243.792 54.3299 243.887 54.2904C243.981 54.2508 244.083 54.2305 244.185 54.2305C244.393 54.2305 244.593 54.3131 244.74 54.4602C244.887 54.6073 244.969 54.8068 244.969 55.0149V62.5498H248.808C249.015 62.556 249.212 62.6426 249.356 62.7913C249.5 62.94 249.581 63.139 249.581 63.3461C249.578 63.55 249.495 63.7448 249.351 63.889C249.207 64.0332 249.012 64.1155 248.808 64.1186H244.185C244.082 64.1203 243.98 64.101 243.885 64.062C243.789 64.0231 243.703 63.9651 243.631 63.8918C243.559 63.8185 243.502 63.7313 243.464 63.6354C243.427 63.5396 243.409 63.4371 243.412 63.3342Z" fill="white"/>
<path d="M258.588 55.4547C259.501 56.4174 260.01 57.6935 260.01 59.0202C260.01 60.3468 259.501 61.6229 258.588 62.5856C258.16 63.0559 257.639 63.4327 257.058 63.6924C256.477 63.9521 255.849 64.0892 255.213 64.095C254.564 64.0928 253.923 63.9577 253.328 63.6981C252.733 63.4386 252.198 63.0599 251.755 62.5856C250.858 61.615 250.359 60.3419 250.359 59.0202C250.359 57.6985 250.858 56.4254 251.755 55.4547C252.194 54.9764 252.729 54.5951 253.325 54.3352C253.92 54.0753 254.563 53.9425 255.213 53.9454C255.85 53.9453 256.48 54.0797 257.062 54.3398C257.643 54.5999 258.164 54.9798 258.588 55.4547ZM258.41 59.0202C258.407 58.1052 258.064 57.224 257.447 56.5481C257.161 56.2339 256.813 55.9828 256.424 55.811C256.035 55.6392 255.614 55.5505 255.189 55.5505C254.764 55.5505 254.344 55.6392 253.955 55.811C253.566 55.9828 253.218 56.2339 252.931 56.5481C252.304 57.2176 251.96 58.103 251.969 59.0202C251.963 59.9332 252.307 60.8138 252.931 61.4803C253.213 61.8013 253.561 62.0584 253.95 62.2345C254.34 62.4106 254.762 62.5017 255.189 62.5017C255.617 62.5017 256.039 62.4106 256.429 62.2345C256.818 62.0584 257.165 61.8013 257.447 61.4803C258.072 60.8138 258.416 59.9332 258.41 59.0202Z" fill="white"/>
<path d="M262.369 59.0442C262.375 58.3674 262.515 57.6985 262.78 57.0757C263.045 56.453 263.431 55.8886 263.914 55.415C264.398 54.9414 264.97 54.5678 265.598 54.3157C266.226 54.0636 266.898 53.9378 267.575 53.9457C268.74 53.9419 269.873 54.3267 270.795 55.0391C270.89 55.0995 270.971 55.179 271.034 55.2725C271.096 55.3661 271.138 55.4716 271.158 55.5824C271.177 55.6932 271.173 55.8068 271.146 55.9159C271.118 56.025 271.069 56.1272 271 56.216C270.931 56.3049 270.844 56.3783 270.745 56.4318C270.646 56.4852 270.537 56.5174 270.425 56.5263C270.313 56.5352 270.201 56.5206 270.094 56.4835C269.988 56.4464 269.891 56.3876 269.809 56.3107C269.167 55.8198 268.383 55.5527 267.575 55.5501C267.103 55.5458 266.636 55.635 266.199 55.8125C265.763 55.9899 265.366 56.2522 265.031 56.5841C264.698 56.8975 264.432 57.2759 264.25 57.6959C264.069 58.116 263.975 58.5688 263.975 59.0264C263.975 59.4841 264.069 59.9369 264.25 60.3569C264.432 60.777 264.698 61.1553 265.031 61.4687C265.366 61.8006 265.763 62.0629 266.199 62.2403C266.636 62.4178 267.103 62.507 267.575 62.5027C268.256 62.4946 268.923 62.3104 269.512 61.9679V60.0307H267.491C267.278 60.0276 267.074 59.9415 266.923 59.7906C266.773 59.6397 266.686 59.4359 266.683 59.2225C266.683 59.1175 266.704 59.0135 266.745 58.9167C266.786 58.82 266.846 58.7324 266.921 58.6593C266.997 58.5861 267.086 58.5289 267.184 58.4909C267.282 58.4529 267.386 58.4349 267.491 58.4381H270.308C270.413 58.4349 270.518 58.4529 270.616 58.4909C270.714 58.5289 270.803 58.5861 270.878 58.6593C270.954 58.7324 271.014 58.82 271.054 58.9167C271.095 59.0135 271.116 59.1175 271.116 59.2225V62.3244C271.123 62.4035 271.123 62.483 271.116 62.5621V62.6334C271.062 62.7735 270.967 62.8937 270.843 62.9781C269.924 63.6888 268.795 64.0735 267.634 64.0715C266.958 64.0889 266.285 63.9724 265.654 63.7289C265.023 63.4853 264.446 63.1194 263.957 62.6523C263.467 62.1851 263.075 61.6259 262.803 61.0067C262.53 60.3875 262.383 59.7206 262.369 59.0442Z" fill="white"/>
<path d="M281.847 60.268H280.1V63.3343C280.1 63.5423 280.017 63.7419 279.87 63.889C279.723 64.0361 279.524 64.1187 279.316 64.1187C279.108 64.1187 278.908 64.0361 278.761 63.889C278.614 63.7419 278.531 63.5423 278.531 63.3343V55.015C278.531 54.8069 278.614 54.6074 278.761 54.4603C278.908 54.3132 279.108 54.2306 279.316 54.2306H281.847C282.26 54.2046 282.674 54.2636 283.064 54.4039C283.453 54.5442 283.81 54.7628 284.112 55.0462C284.413 55.3296 284.654 55.6718 284.818 56.0518C284.983 56.4317 285.067 56.8413 285.067 57.2552C285.067 57.6692 284.983 58.0788 284.818 58.4587C284.654 58.8386 284.413 59.1808 284.112 59.4642C283.81 59.7477 283.453 59.9662 283.064 60.1065C282.674 60.2468 282.26 60.3058 281.847 60.2799V60.268ZM280.1 58.7587H281.847C282.049 58.7769 282.253 58.7529 282.446 58.6881C282.638 58.6232 282.815 58.519 282.965 58.382C283.115 58.245 283.234 58.0783 283.316 57.8925C283.398 57.7067 283.441 57.5058 283.441 57.3028C283.441 57.0997 283.398 56.8989 283.316 56.713C283.234 56.5272 283.115 56.3605 282.965 56.2235C282.815 56.0866 282.638 55.9823 282.446 55.9175C282.253 55.8526 282.049 55.8286 281.847 55.8469H280.1V58.7587Z" fill="white"/>
<path d="M294.565 55.4547C295.478 56.4174 295.987 57.6935 295.987 59.0201C295.987 60.3468 295.478 61.6229 294.565 62.5856C294.137 63.0559 293.616 63.4326 293.035 63.6924C292.454 63.9521 291.826 64.0891 291.19 64.0949C290.541 64.0927 289.899 63.9577 289.304 63.6981C288.71 63.4385 288.174 63.0599 287.731 62.5856C286.834 61.6149 286.336 60.3418 286.336 59.0201C286.336 57.6984 286.834 56.4253 287.731 55.4547C288.174 54.9804 288.71 54.6017 289.304 54.3422C289.899 54.0826 290.541 53.9475 291.19 53.9453C291.827 53.9453 292.457 54.0797 293.038 54.3398C293.62 54.5999 294.14 54.9798 294.565 55.4547ZM294.387 59.0201C294.384 58.1052 294.041 57.224 293.424 56.5481C293.138 56.2338 292.789 55.9827 292.4 55.811C292.011 55.6392 291.591 55.5505 291.166 55.5505C290.741 55.5505 290.32 55.6392 289.932 55.811C289.543 55.9827 289.194 56.2338 288.908 56.5481C288.281 57.2176 287.936 58.103 287.945 59.0201C287.939 59.9332 288.284 60.8137 288.908 61.4803C289.19 61.8012 289.537 62.0583 289.927 62.2344C290.316 62.4106 290.739 62.5017 291.166 62.5017C291.593 62.5017 292.016 62.4106 292.405 62.2344C292.795 62.0583 293.142 61.8012 293.424 61.4803C294.048 60.8137 294.393 59.9332 294.387 59.0201Z" fill="white"/>
<path d="M298.391 61.6585C298.514 61.5076 298.692 61.4117 298.885 61.3916C299.079 61.3716 299.273 61.4291 299.424 61.5515C300.182 62.1977 301.129 62.5813 302.122 62.6449C302.752 62.6567 303.371 62.4741 303.893 62.122C304.068 62.0124 304.215 61.8624 304.32 61.6846C304.426 61.5068 304.487 61.3063 304.499 61.0999C304.5 60.9399 304.455 60.7831 304.369 60.6483C304.263 60.4773 304.121 60.3313 303.953 60.2204C303.349 59.8923 302.694 59.6711 302.015 59.5668C301.388 59.4595 300.777 59.2718 300.197 59.0082C299.664 58.7737 299.207 58.395 298.878 57.9148C298.664 57.5555 298.553 57.1444 298.557 56.7263C298.57 56.3189 298.679 55.9204 298.875 55.5632C299.072 55.2059 299.349 54.9 299.686 54.6702C300.403 54.1687 301.26 53.9067 302.134 53.9215C303.258 53.9919 304.333 54.4069 305.212 55.11C305.371 55.2164 305.48 55.3808 305.518 55.5677C305.556 55.7545 305.519 55.9488 305.414 56.1083C305.364 56.1905 305.297 56.2615 305.218 56.3171C305.139 56.3727 305.05 56.4117 304.955 56.4317C304.861 56.4517 304.763 56.4523 304.668 56.4335C304.574 56.4147 304.484 56.3768 304.404 56.3222C303.759 55.7935 302.966 55.4779 302.134 55.419C301.57 55.406 301.017 55.5724 300.554 55.8944C300.403 55.9927 300.276 56.1241 300.184 56.2785C300.091 56.4329 300.035 56.6063 300.019 56.7857C300.009 56.9232 300.042 57.0602 300.114 57.1779C300.213 57.3263 300.343 57.4519 300.494 57.5464C301.037 57.8721 301.639 58.0862 302.265 58.1763C302.938 58.2866 303.594 58.4864 304.214 58.7705C304.791 59.0212 305.282 59.4341 305.628 59.959C305.846 60.317 305.961 60.7282 305.961 61.1475C305.953 61.5806 305.841 62.0055 305.634 62.3861C305.427 62.7667 305.132 63.092 304.773 63.3343C304.01 63.8757 303.093 64.1588 302.158 64.1424C300.848 64.0702 299.596 63.5738 298.593 62.7281C298.507 62.6731 298.433 62.6012 298.376 62.5167C298.319 62.4322 298.28 62.337 298.261 62.2369C298.242 62.1367 298.244 62.0338 298.266 61.9343C298.288 61.8349 298.331 61.741 298.391 61.6585Z" fill="white"/>
<path d="M313.96 55.7876H311.714V63.3345C311.714 63.5394 311.633 63.7359 311.488 63.8807C311.343 64.0256 311.147 64.107 310.942 64.107C310.737 64.107 310.54 64.0256 310.395 63.8807C310.251 63.7359 310.169 63.5394 310.169 63.3345V55.7876H307.935C307.728 55.7846 307.53 55.7009 307.384 55.5545C307.237 55.4081 307.154 55.2103 307.15 55.0032C307.149 54.8998 307.168 54.7971 307.207 54.7012C307.246 54.6053 307.304 54.5182 307.377 54.445C307.45 54.3719 307.537 54.3141 307.633 54.2753C307.729 54.2364 307.831 54.2172 307.935 54.2188H313.96C314.169 54.2188 314.368 54.3015 314.515 54.4486C314.662 54.5957 314.745 54.7952 314.745 55.0032C314.742 55.2103 314.658 55.4081 314.512 55.5545C314.365 55.7009 314.168 55.7846 313.96 55.7876Z" fill="white"/>
<path d="M328.828 67.0664H220.308V68.5045H328.828V67.0664Z" fill="white"/>
<path d="M186.401 144.306H116.673V214.034H186.401V144.306Z" fill="#EBEBEB"/>
<path d="M116.672 193.116H186.389V144.293H116.672V193.116Z" fill="#EBEBEB"/>
<path d="M124.826 158.175C124.826 159.318 125.165 160.435 125.8 161.384C126.434 162.334 127.336 163.075 128.392 163.512C129.447 163.949 130.609 164.063 131.729 163.84C132.849 163.618 133.879 163.067 134.686 162.26C135.494 161.452 136.044 160.423 136.267 159.302C136.49 158.182 136.376 157.02 135.939 155.965C135.501 154.91 134.761 154.008 133.811 153.373C132.861 152.738 131.745 152.399 130.602 152.399C129.843 152.398 129.091 152.546 128.39 152.836C127.688 153.126 127.051 153.551 126.514 154.088C125.978 154.624 125.552 155.262 125.263 155.963C124.973 156.665 124.825 157.416 124.826 158.175Z" fill="#DBDBDB"/>
<path d="M147.633 182.503H186.401L167.017 156.226L147.633 182.503Z" fill="#C7C7C7"/>
<path d="M132.433 182.622H164.438L148.441 165.52L132.433 182.622Z" fill="#DBDBDB"/>
<path d="M186.389 182.599H116.673V193.117H186.389V182.599Z" fill="#DBDBDB"/>
<path d="M181.457 197.965H121.629V199.891H181.457V197.965Z" fill="white"/>
<path d="M163.083 202.814H121.629V204.74H163.083V202.814Z" fill="white"/>
<path d="M172.044 207.664H121.629V209.589H172.044V207.664Z" fill="white"/>
<path d="M267.205 144.306H197.477V214.034H267.205V144.306Z" fill="#EBEBEB"/>
<path d="M197.477 193.116H267.193V144.293H197.477V193.116Z" fill="#DBDBDB"/>
<path d="M232.335 182.623C239.66 182.623 245.598 176.684 245.598 169.359C245.598 162.034 239.66 156.096 232.335 156.096C225.01 156.096 219.071 162.034 219.071 169.359C219.071 176.684 225.01 182.623 232.335 182.623Z" fill="#EBEBEB"/>
<path d="M225.989 162.156V176.561L241.237 169.358L225.989 162.156Z" fill="white"/>
<path d="M262.261 197.965H202.433V199.891H262.261V197.965Z" fill="white"/>
<path d="M243.887 202.814H202.433V204.74H243.887V202.814Z" fill="white"/>
<path d="M252.848 207.664H202.433V209.589H252.848V207.664Z" fill="white"/>
<path d="M432.536 44.2715H361.001V55.8948H432.536V44.2715Z" fill="white"/>
<path d="M432.534 44.2715H420.911V55.8948H432.534V44.2715Z" fill="#263238"/>
<path d="M427.104 48.9673L426.033 49.7783L429.328 54.1264L430.398 53.3153L427.104 48.9673Z" fill="white"/>
<path d="M428.292 47.1595C428.642 47.6192 428.847 48.172 428.883 48.7484C428.918 49.3247 428.783 49.8986 428.492 50.3979C428.202 50.8971 427.771 51.2992 427.252 51.5535C426.734 51.8078 426.152 51.9029 425.579 51.8268C425.007 51.7507 424.47 51.5068 424.036 51.1259C423.602 50.745 423.291 50.2441 423.141 49.6864C422.991 49.1287 423.01 48.5392 423.195 47.9922C423.38 47.4452 423.723 46.9652 424.18 46.6128C424.798 46.1405 425.578 45.9329 426.349 46.0354C427.12 46.1379 427.819 46.5422 428.292 47.1595Z" fill="white"/>
<path d="M427.364 47.8723C427.577 48.1478 427.704 48.4804 427.728 48.8278C427.751 49.1753 427.672 49.522 427.498 49.8241C427.325 50.1261 427.066 50.3699 426.754 50.5245C426.442 50.6791 426.091 50.7376 425.745 50.6926C425.4 50.6475 425.076 50.501 424.814 50.2715C424.552 50.042 424.364 49.7399 424.274 49.4035C424.184 49.067 424.195 48.7114 424.308 48.3817C424.42 48.052 424.627 47.763 424.904 47.5514C425.273 47.2689 425.739 47.1441 426.2 47.2042C426.661 47.2644 427.08 47.5046 427.364 47.8723Z" fill="#263238"/>
<path d="M236.246 408.623C233.988 409.372 169.691 409.182 167.195 407.637C166.268 407.054 165.746 397.665 165.448 386.327C165.377 383.879 165.33 381.359 165.282 378.78C165.282 375.738 165.199 372.66 165.175 369.665C165.104 356.223 165.282 344.386 165.282 344.386H207.176V369.665V378.78L206.962 386.327C206.962 386.327 231.564 397.428 234.059 399.4C236.555 401.373 238.492 407.886 236.246 408.623Z" fill="white"/>
<path d="M236.247 408.623C233.989 409.372 169.692 409.182 167.196 407.637C166.269 407.055 165.746 397.666 165.449 386.328C165.378 383.879 165.33 381.36 165.283 378.781C165.283 375.738 165.2 372.66 165.176 369.665H207.153V378.781L206.939 386.328C206.939 386.328 231.54 397.428 234.036 399.401C236.532 401.374 238.493 407.887 236.247 408.623Z" fill="white"/>
<path d="M236.45 408.718C234.988 409.205 207.581 409.3 187.627 408.884C183.004 408.789 178.785 408.659 175.374 408.516C170.679 408.302 167.53 408.041 167.054 407.72C165.925 406.995 165.378 393.232 165.129 378.709H207.213L206.999 386.291C206.999 386.291 231.696 397.475 234.215 399.46C236.735 401.445 238.696 407.969 236.45 408.718Z" fill="#BA68C8"/>
<path d="M235.522 406.128C224.671 405.83 180.851 405.652 170.155 406.187C170.072 406.187 170.072 406.246 170.155 406.258C180.851 406.781 224.671 406.603 235.522 406.258C235.747 406.306 235.747 406.139 235.522 406.128Z" fill="#263238"/>
<path d="M208.495 383.891C204.229 383.082 198.988 383.724 195.731 386.755C195.612 386.874 195.731 387.052 195.921 387.004C200 385.691 204.207 384.819 208.472 384.402C208.525 384.385 208.571 384.352 208.605 384.308C208.638 384.263 208.658 384.21 208.66 384.154C208.663 384.099 208.649 384.044 208.619 383.997C208.59 383.95 208.546 383.913 208.495 383.891Z" fill="#263238"/>
<path d="M211.573 385.757C207.307 384.949 202.065 385.59 198.809 388.621C198.678 388.74 198.809 388.918 198.987 388.871C203.071 387.571 207.283 386.71 211.549 386.304C211.585 386.305 211.621 386.3 211.655 386.287C211.689 386.275 211.72 386.256 211.746 386.232C211.773 386.208 211.794 386.178 211.809 386.146C211.824 386.113 211.833 386.078 211.835 386.042C211.836 386.006 211.831 385.97 211.818 385.937C211.806 385.903 211.787 385.872 211.763 385.845C211.739 385.819 211.709 385.797 211.677 385.782C211.644 385.767 211.609 385.758 211.573 385.757Z" fill="#263238"/>
<path d="M214.639 387.623C210.373 386.814 205.132 387.456 201.887 390.487C201.756 390.606 201.887 390.784 202.065 390.736C206.15 389.437 210.361 388.576 214.628 388.169C214.7 388.171 214.77 388.144 214.823 388.093C214.875 388.043 214.905 387.974 214.907 387.902C214.908 387.829 214.881 387.759 214.831 387.707C214.781 387.655 214.712 387.624 214.639 387.623Z" fill="#263238"/>
<path d="M217.718 389.489C213.451 388.681 208.21 389.322 204.965 392.353C204.834 392.472 204.965 392.65 205.143 392.603C209.224 391.304 213.431 390.439 217.694 390.024C217.756 390.014 217.813 389.983 217.854 389.936C217.896 389.889 217.921 389.829 217.923 389.766C217.926 389.703 217.907 389.641 217.87 389.591C217.832 389.54 217.778 389.504 217.718 389.489Z" fill="#263238"/>
<path d="M216.399 374.051C214.735 371.674 211.645 372.767 209.826 374.253C206.804 376.867 204.524 380.233 203.218 384.01C203.213 384.027 203.212 384.046 203.214 384.064C203.217 384.082 203.224 384.099 203.234 384.113C203.244 384.128 203.258 384.141 203.274 384.15C203.29 384.158 203.307 384.164 203.325 384.165C203.323 384.247 203.34 384.329 203.374 384.405C203.409 384.48 203.46 384.546 203.525 384.598C203.589 384.65 203.665 384.686 203.746 384.703C203.827 384.721 203.911 384.72 203.991 384.699C207.556 383.404 211.443 382.453 214.473 380.124C216.244 378.757 217.979 376.237 216.399 374.051ZM208.935 381.645C207.212 382.322 205.477 382.917 203.777 383.653C205.009 381.718 206.338 379.846 207.758 378.044C208.461 377.202 209.219 376.407 210.028 375.667C211.3 374.478 216.339 372.101 215.567 376.748C215.151 379.268 210.979 380.837 208.935 381.645Z" fill="#263238"/>
<path d="M192.379 382.869C195.945 384.378 199.938 384.307 203.67 384.687C203.753 384.687 203.835 384.667 203.91 384.63C203.984 384.592 204.049 384.538 204.098 384.471C204.148 384.404 204.181 384.326 204.196 384.244C204.21 384.162 204.205 384.078 204.181 383.998C204.198 383.992 204.214 383.982 204.226 383.969C204.239 383.956 204.249 383.941 204.254 383.923C204.26 383.906 204.262 383.888 204.259 383.87C204.257 383.852 204.25 383.835 204.24 383.82C202.034 380.493 198.993 377.805 195.422 376.023C193.318 375.025 190.026 374.835 188.992 377.461C187.958 380.088 190.323 382.025 192.379 382.869ZM190.454 379.815C188.552 375.477 194.019 376.582 195.553 377.378C196.546 377.912 197.503 378.512 198.417 379.173C200.295 380.516 201.982 382.108 203.67 383.618C201.851 383.321 200.009 383.19 198.179 382.964C195.933 382.691 191.512 382.215 190.454 379.815Z" fill="#263238"/>
<path d="M151.317 165.888C151.317 165.888 162.632 277.854 162.905 279.269C162.905 279.459 163.024 281.646 163.131 285.128C163.737 304.405 165.246 364.506 165.246 364.506H211.49C211.49 364.506 208.483 293.316 206.736 276.713C204.526 255.535 190.632 165.888 190.632 165.888H151.317Z" fill="#455A64"/>
<path d="M168.409 283.226C166.983 258.957 164.84 234.752 161.98 210.61C160.363 197.002 158.414 183.453 156.477 169.893C156.477 169.774 156.263 169.774 156.287 169.893C159.852 194.031 162.396 218.359 164.606 242.652C166.817 266.944 168.314 291.237 169.301 315.589C169.871 329.387 170.287 343.185 170.739 356.983C170.752 357.042 170.784 357.094 170.83 357.131C170.877 357.169 170.935 357.189 170.994 357.189C171.054 357.189 171.112 357.169 171.159 357.131C171.205 357.094 171.237 357.042 171.25 356.983C170.561 332.382 169.895 307.78 168.409 283.226Z" fill="#263238"/>
<path d="M208.52 357.067C207.271 356.95 206.018 356.898 204.764 356.912C203.385 356.912 201.995 356.853 200.604 356.793C197.934 356.698 195.26 356.631 192.582 356.591C187.186 356.496 181.779 356.532 176.395 356.698L171.95 356.853C170.369 356.912 168.777 357.055 167.196 357.055C167.077 357.055 167.089 357.198 167.196 357.198C169.906 357.198 172.651 357.423 175.373 357.53C178.094 357.637 180.721 357.673 183.395 357.709C188.779 357.78 194.198 357.709 199.582 357.542C201.056 357.542 202.541 357.459 204.027 357.411L206.404 357.316C207.106 357.328 207.808 357.304 208.508 357.245C208.522 357.251 208.537 357.254 208.552 357.253C208.567 357.252 208.582 357.247 208.595 357.239C208.608 357.232 208.619 357.221 208.627 357.208C208.635 357.194 208.64 357.18 208.641 357.164C208.642 357.149 208.639 357.134 208.633 357.12C208.627 357.106 208.618 357.094 208.606 357.084C208.594 357.074 208.58 357.068 208.565 357.065C208.55 357.062 208.534 357.063 208.52 357.067Z" fill="#263238"/>
<path d="M151.317 165.888C151.317 165.888 162.632 277.854 162.905 279.269C162.905 279.459 163.024 281.646 163.131 285.128L184.904 165.888H151.317Z" fill="#263238"/>
<path d="M73.4254 378.459C71.3812 377.271 29.4517 328.413 29.0714 325.536C28.905 324.443 35.6674 317.93 44.0581 310.3C45.8646 308.636 47.6235 306.854 49.6677 305.237C52.1635 303.205 54.695 301.185 57.1551 299.295C67.8515 290.975 77.1097 284.415 77.1097 284.415L103.696 315.232L84.7754 330.623L77.0146 336.946L71.1554 341.7C71.1554 341.7 78.833 367.573 78.9519 370.77C79.0707 373.967 75.4577 379.648 73.4254 378.459Z" fill="white"/>
<path d="M73.4254 378.46C71.3812 377.271 29.4517 328.413 29.0714 325.537C28.905 324.443 35.6674 317.93 44.0581 310.3C45.8646 308.636 47.6235 306.854 49.6677 305.237C52.1635 303.205 54.695 301.185 57.1551 299.295C65.3913 308.803 77.3593 322.244 84.7754 330.623L77.0146 336.946L71.1554 341.7C71.1554 341.7 78.833 367.573 78.9519 370.77C79.0707 373.967 75.4577 379.648 73.4254 378.46Z" fill="white"/>
<path d="M73.4842 378.686C71.44 377.497 29.3084 328.353 28.8806 325.465C28.6904 324.122 38.7568 314.769 49.5958 305.047L77.0853 336.863L71.1429 341.617C71.1429 341.617 78.8561 367.633 78.9869 370.853C79.1176 374.074 75.5284 379.91 73.4842 378.686Z" fill="#BA68C8"/>
<path d="M74.8147 376.296C67.9572 367.882 39.4931 334.628 32.0294 326.844C31.97 326.784 31.9225 326.844 32.0294 326.844C38.6374 335.318 67.3748 368.345 74.684 376.356C74.8147 376.582 74.9811 376.463 74.8147 376.296Z" fill="#263238"/>
<path d="M74.0187 341.308C71.8556 337.54 67.9574 334.01 63.5244 333.511C63.3461 333.511 63.3224 333.737 63.4531 333.82C67.1136 336.047 70.5243 338.661 73.6265 341.617C73.6732 341.641 73.7261 341.652 73.7787 341.647C73.8313 341.642 73.8813 341.622 73.9228 341.589C73.9643 341.557 73.9954 341.513 74.0125 341.463C74.0295 341.413 74.0316 341.359 74.0187 341.308Z" fill="#263238"/>
<path d="M74.6244 344.849C72.4495 341.094 68.5513 337.552 64.1182 337.065C63.9519 337.065 63.9281 337.291 64.0469 337.362C67.7001 339.598 71.1027 342.22 74.1966 345.182C74.2438 345.229 74.3063 345.257 74.3725 345.261C74.4387 345.264 74.5041 345.244 74.5564 345.203C74.6088 345.163 74.6445 345.104 74.657 345.039C74.6695 344.974 74.6579 344.907 74.6244 344.849Z" fill="#263238"/>
<path d="M75.2181 348.403C73.0432 344.635 69.145 341.106 64.712 340.606C64.5456 340.606 64.5218 340.832 64.6407 340.915C68.305 343.151 71.7161 345.777 74.8141 348.748C74.8637 348.783 74.9239 348.801 74.9851 348.799C75.0463 348.797 75.1048 348.774 75.1514 348.734C75.198 348.694 75.2299 348.64 75.242 348.58C75.2541 348.52 75.2457 348.458 75.2181 348.403Z" fill="#263238"/>
<path d="M75.8129 351.945C73.638 348.189 69.7397 344.647 65.3067 344.16C65.1403 344.16 65.1166 344.386 65.2354 344.457C68.8937 346.705 72.3003 349.339 75.3969 352.313C75.4211 352.34 75.4504 352.363 75.4832 352.379C75.516 352.395 75.5517 352.404 75.5881 352.406C75.6245 352.408 75.661 352.403 75.6955 352.392C75.73 352.38 75.7618 352.361 75.7891 352.337C75.8164 352.313 75.8387 352.283 75.8547 352.251C75.8707 352.218 75.88 352.182 75.8822 352.146C75.8844 352.109 75.8794 352.073 75.8675 352.038C75.8556 352.004 75.8371 351.972 75.8129 351.945Z" fill="#263238"/>
<path d="M86.6995 340.856C87.3532 338.087 84.5365 336.387 82.2427 336.007C78.2871 335.435 74.2508 335.911 70.5362 337.386C70.5235 337.397 70.5134 337.41 70.5065 337.426C70.4995 337.441 70.496 337.458 70.496 337.475C70.496 337.492 70.4995 337.508 70.5065 337.524C70.5134 337.539 70.5235 337.553 70.5362 337.564C70.4698 337.614 70.4159 337.678 70.3787 337.752C70.3416 337.827 70.3223 337.909 70.3223 337.992C70.3223 338.075 70.3416 338.157 70.3787 338.231C70.4159 338.305 70.4698 338.37 70.5362 338.419C73.8283 340.25 77.1085 342.603 80.8641 343.364C82.9796 343.815 86.0221 343.482 86.6995 340.856ZM76.0032 340.167C74.3631 339.311 72.7824 338.372 71.1185 337.576C73.4004 337.314 75.6585 336.958 77.9642 336.922C79.0751 336.888 80.1871 336.932 81.2919 337.053C82.9915 337.267 88.1376 339.43 84.0849 341.949C81.8743 343.316 77.9642 341.189 76.0032 340.167Z" fill="#263238"/>
<path d="M64.273 328.424C65.4615 332.073 68.1118 335.092 70.2748 338.17C70.3291 338.233 70.3974 338.283 70.4743 338.315C70.5511 338.347 70.6345 338.361 70.7176 338.355C70.8007 338.349 70.8813 338.324 70.953 338.282C71.0247 338.239 71.0855 338.181 71.1305 338.111C71.1541 338.116 71.1787 338.112 71.2003 338.102C71.2219 338.091 71.2392 338.073 71.2494 338.051C72.3301 334.206 72.3793 330.144 71.392 326.273C70.774 324.027 68.7892 321.401 66.1032 322.351C63.4173 323.302 63.5956 326.297 64.273 328.424ZM65.307 324.978C67.3393 320.688 70.0609 325.572 70.4769 327.248C70.7067 328.334 70.8655 329.433 70.9522 330.54C71.0949 332.831 71.1187 335.128 71.0235 337.421C70.049 335.841 68.9556 334.367 67.9335 332.822C66.7331 331.004 64.2017 327.355 65.307 324.978Z" fill="#263238"/>
<path d="M190.573 165.888C190.573 165.888 187.733 182.824 176.846 191.56C176.846 191.56 151.306 269.013 145.578 277.308C136.07 291.047 88.792 327.45 88.792 327.45L58.248 292.034C58.248 292.034 104.1 259.457 107.689 254.501C110.066 251.209 127.964 201.4 127.643 199.677C123.935 179.14 133.205 165.841 133.205 165.841L190.573 165.888Z" fill="#455A64"/>
<path d="M136.819 168.907C134.797 172.993 133.353 177.341 132.529 181.825C132.138 184.091 131.935 186.384 131.923 188.683C131.923 191.155 132.184 193.615 132.268 196.075C132.372 198.595 132.116 201.116 131.507 203.563C130.925 205.94 130.188 208.317 129.487 210.622C128.037 215.376 126.499 220.13 124.875 224.884C121.643 234.321 118.077 243.626 114.179 252.801C113.373 254.954 112.22 256.962 110.768 258.744C109.076 260.443 107.221 261.972 105.23 263.308L92.8932 272.554L68.0778 291.177V291.237C67.8044 291.439 68.0778 291.902 68.363 291.7C76.6824 285.485 81.9236 281.527 90.2429 275.311L102.829 265.91C104.814 264.425 106.834 262.975 108.771 261.442C110.482 260.149 111.924 258.534 113.014 256.688C114.099 254.654 115.055 252.554 115.878 250.401C116.853 248.024 117.816 245.73 118.743 243.389C120.573 238.801 122.316 234.182 123.972 229.531C125.628 224.88 127.213 220.126 128.726 215.269C129.475 212.892 130.211 210.444 130.925 208.031C131.668 205.724 132.256 203.37 132.684 200.984C133.42 196.099 132.339 191.167 132.577 186.258C132.779 181.509 133.742 176.822 135.429 172.377C135.877 171.222 136.385 170.092 136.95 168.99C137.033 168.883 136.867 168.788 136.819 168.907Z" fill="#263238"/>
<path d="M152.744 169.489C151.94 172.764 150.087 175.685 147.467 177.808C144.562 180.087 141.056 181.47 137.377 181.79C136.759 181.873 136.747 182.812 137.377 182.788C144.9 182.491 152.281 177.333 153.029 169.477C153.065 169.287 152.78 169.287 152.744 169.489Z" fill="#263238"/>
<path d="M183.823 186.104C181.146 187.328 178.604 188.829 176.241 190.585C173.733 192.308 171.428 194.281 169.015 196.123C168.999 196.139 168.988 196.16 168.986 196.182C168.984 196.205 168.989 196.227 169.002 196.246C169.015 196.265 169.034 196.278 169.056 196.284C169.078 196.29 169.102 196.287 169.122 196.277C171.665 194.661 174.327 193.235 176.847 191.523C179.374 189.985 181.76 188.228 183.978 186.27C183.985 186.248 183.986 186.225 183.981 186.202C183.976 186.18 183.965 186.159 183.949 186.142C183.933 186.125 183.913 186.113 183.891 186.106C183.869 186.1 183.846 186.099 183.823 186.104Z" fill="#263238"/>
<path d="M184.154 170.381C183.833 172.116 183.406 173.839 183.037 175.574C182.669 177.31 182.419 178.855 181.991 180.459C181.639 182.013 180.852 183.436 179.721 184.559C179.08 185.154 178.378 185.676 177.701 186.211C177.333 186.508 176.94 186.794 176.512 187.091C176.512 186.853 176.596 186.627 176.643 186.39C176.75 185.724 176.869 185.058 176.976 184.405C177.226 182.931 177.463 181.469 177.677 179.996C178.129 177.108 178.533 174.184 179.139 171.32C179.139 171.213 178.984 171.165 178.949 171.32C178.236 174.148 177.439 176.953 176.81 179.817C176.501 181.22 175.407 188.137 175.36 188.636C175.312 189.135 175.265 189.646 175.253 190.157C175.181 190.67 175.181 191.19 175.253 191.702C175.253 191.833 175.431 191.809 175.478 191.702C175.686 191.223 175.833 190.72 175.918 190.205C176.049 189.705 176.156 189.206 176.251 188.707C176.251 188.529 176.251 188.339 176.334 188.149C177.012 187.744 177.642 187.186 178.283 186.734C178.925 186.283 179.674 185.748 180.316 185.201C181.522 184.188 182.392 182.833 182.811 181.315C183.229 179.682 183.499 178.016 183.62 176.335C183.845 174.374 184 172.389 184.273 170.393C184.258 170.377 184.238 170.368 184.216 170.366C184.194 170.364 184.173 170.369 184.154 170.381Z" fill="#263238"/>
<path d="M93.0948 320.592C92.4174 319.57 91.526 318.62 90.7179 317.657C89.9097 316.694 88.9352 315.53 88.0676 314.448C86.3918 312.356 84.6923 310.3 82.969 308.244C79.5699 304.12 76.0045 300.02 72.3083 296.098C71.2981 295.005 70.2879 293.923 69.2658 292.841C68.2437 291.76 67.0434 290.583 66.0094 289.383C65.9381 289.3 65.8311 289.383 65.9024 289.49C67.697 291.522 69.3134 293.769 71.0129 295.872C72.7124 297.976 74.4119 300.008 76.1471 302.052C79.6175 306.176 83.2067 310.229 86.8434 314.163C87.8655 315.244 88.852 316.35 89.8622 317.443C90.397 318.025 90.9437 318.631 91.4904 319.166C92.0371 319.701 92.3936 320.248 92.9284 320.723C92.9458 320.745 92.9712 320.76 92.999 320.763C93.0269 320.766 93.0549 320.758 93.077 320.741C93.0991 320.724 93.1133 320.698 93.1167 320.67C93.12 320.643 93.1122 320.615 93.0948 320.592Z" fill="#263238"/>
<path d="M176.609 140.324C173.643 141.681 170.534 142.698 167.339 143.355C173.507 137.056 176.942 120.239 175.825 122.485C170.488 133.181 160.291 143.877 157.427 143.877C150.474 142.982 144.003 139.845 138.994 134.94C146.671 127.988 150.605 111.004 149.963 111.943C143.118 121.962 132.992 126.312 131.518 125.931C127.335 119.347 125.718 113.405 126.621 113.06C133.253 110.6 140.55 101.829 147.503 92.3688C154.372 83.0511 158.972 73.7216 167.327 65.9489C174.957 58.818 186.45 59.9471 191.667 65.83C205.323 81.2209 180.804 138.387 176.609 140.324Z" fill="#263238"/>
<path d="M177.476 62.7998C172.639 62.7998 167.849 66.0206 164.51 69.3008C160.065 73.6744 156.535 78.9869 152.566 83.7765C144.851 93.2651 135.705 101.493 125.456 108.164C125.409 108.191 125.374 108.235 125.36 108.288C125.345 108.34 125.352 108.396 125.379 108.443C125.406 108.491 125.45 108.525 125.503 108.54C125.555 108.554 125.611 108.547 125.658 108.521C136.165 104.016 144.603 95.9227 152.007 87.2944C155.786 82.8732 159.138 78.0955 162.703 73.5912C164.652 71.0776 166.935 68.8424 169.49 66.9476C171.922 65.3182 174.659 64.1983 177.536 63.6555C177.631 63.6268 177.714 63.5665 177.771 63.4844C177.827 63.4023 177.855 63.3034 177.848 63.2039C177.841 63.1044 177.8 63.0102 177.733 62.9368C177.665 62.8633 177.575 62.815 177.476 62.7998Z" fill="#263238"/>
<path d="M177.406 113.298C180.639 119.989 203.078 141.405 221.535 148.049C228.309 150.485 257.522 143.473 264.439 140.55C272.532 137.115 267.148 116.923 261.979 116.946C255.513 116.946 227.81 123.614 221.891 123.471C214.689 123.293 197.979 112.287 183.777 106.761C176.456 103.921 174.911 108.128 177.406 113.298Z" fill="white"/>
<path d="M264.438 140.55C267.041 139.599 278.593 134.18 281.469 131.957C284.345 129.735 292.165 122.735 290.692 120.358C289.218 117.981 286.758 119.847 286.758 119.847C286.758 119.847 289.586 116.364 287.875 114.106C286.164 111.848 282.455 114.879 282.455 114.879C282.455 114.879 285.094 111.099 283.24 108.936C281.386 106.773 278.141 110.469 278.141 110.469C278.141 110.469 280.72 107.13 278.45 106.025C275.717 104.682 271.652 111.397 268.289 113.619C267.528 114.118 252.09 122.723 252.09 122.723L264.438 140.55Z" fill="white"/>
<path d="M278.427 110.196C275.42 115.128 273.257 116.768 268.17 119.287C268.075 119.287 268.17 119.501 268.23 119.454C273.435 117.433 276.454 115.781 278.664 110.338C278.783 110.065 278.569 109.97 278.427 110.196Z" fill="#263238"/>
<path d="M282.68 114.486C279.114 119.335 276.737 121.13 271.651 124.16C271.579 124.16 271.651 124.339 271.722 124.303C276.999 121.736 279.97 120.012 282.894 114.7C283.024 114.462 282.799 114.26 282.68 114.486Z" fill="#263238"/>
<path d="M286.484 119.989C282.693 124.434 280.221 126.514 274.861 128.82C274.847 128.824 274.835 128.832 274.825 128.841C274.814 128.85 274.806 128.862 274.8 128.874C274.793 128.887 274.79 128.901 274.789 128.915C274.788 128.929 274.79 128.943 274.795 128.956C274.8 128.97 274.807 128.982 274.816 128.992C274.826 129.003 274.837 129.011 274.85 129.017C274.863 129.023 274.876 129.027 274.89 129.028C274.905 129.028 274.919 129.026 274.932 129.022C279.845 127.706 284.043 124.508 286.615 120.12C286.805 119.811 286.722 119.716 286.484 119.989Z" fill="#263238"/>
<path d="M247.513 121.891C249.697 119.167 252.081 116.608 254.644 114.237C257.187 112.205 269.44 108.128 270.474 110.671C271.805 114.023 265.197 117.802 261.715 119.181C261.715 119.181 264.805 126.93 260.634 130.65C256.462 134.37 247.513 121.891 247.513 121.891Z" fill="white"/>
<path d="M270.499 111.764C269.5 115.698 264.818 117.255 261.549 118.895C261.5 118.917 261.457 118.95 261.424 118.991C261.39 119.033 261.367 119.082 261.357 119.135C261.346 119.187 261.348 119.241 261.363 119.293C261.378 119.344 261.405 119.391 261.442 119.43C262.512 122.77 263.059 127.749 260.824 130.732C260.753 130.816 260.824 130.923 260.943 130.851C263.784 128.011 263.641 123.043 262.227 119.466C265.614 117.849 270.237 116.078 270.546 111.788C270.534 111.752 270.499 111.741 270.499 111.764Z" fill="#263238"/>
<path d="M234.951 121.558C234.951 121.558 239.23 120.274 239.622 121.463C240.014 122.651 237.827 124.363 237.827 124.363C237.827 124.363 240.81 124.363 241.191 126.252C241.571 128.142 238.445 129.342 238.445 129.342C238.445 129.342 241.678 130.269 241.785 131.612C241.928 133.419 239.17 134.37 239.17 134.37C239.17 134.37 242.308 134.619 242.427 136.39C242.546 138.161 239.693 139.028 239.693 139.028C239.693 139.028 242.997 139.444 243.318 140.775C243.686 142.356 240.442 143.77 240.442 143.77C240.442 143.77 243.568 144.281 243.758 145.648C243.948 147.015 240.858 148.144 239.242 148.156L234.951 121.558Z" fill="white"/>
<path d="M239.789 148.382C239.789 148.382 223.923 149.285 221.688 148.489C219.256 147.613 216.876 146.602 214.558 145.458C196.98 136.889 183.051 121.867 178.796 116.364C174.316 110.552 174.304 103.552 181.851 105.739C182.409 105.905 183.039 106.119 183.645 106.381C192.963 110.243 218.622 122.877 221.284 123.079C223.947 123.281 235.772 120.952 235.772 120.952L239.789 148.382Z" fill="#BA68C8"/>
<path d="M214.532 145.518C196.955 136.949 183.026 121.926 178.771 116.424C174.29 110.612 174.278 103.612 181.825 105.799L214.532 145.518Z" fill="#263238"/>
<path d="M192.844 150.616L193.153 177.856C189.835 178.041 186.51 178.041 183.193 177.856C174.434 177.444 165.704 176.539 157.047 175.147C148.478 173.804 138.387 171.854 126.8 169.026C126.8 169.026 147.432 120.797 163.643 106.417C164.015 106.084 164.383 105.775 164.748 105.49L164.962 105.312C172.39 99.4761 179.913 102.673 184.524 107.879C185.713 109.174 197.598 130.281 197.918 137.733C198.144 144.329 192.844 150.616 192.844 150.616Z" fill="#BA68C8"/>
<path d="M183.192 177.88C174.433 177.468 165.704 176.563 157.046 175.17C158.234 162.466 162.299 119.312 163.606 106.441C163.979 106.108 164.347 105.799 164.712 105.514L183.192 177.88Z" fill="#263238"/>
<path d="M160.588 116.567C162.823 132.124 168.468 163.583 177.227 171.237C188.731 181.303 215.353 183.121 223.245 183.692C226.68 183.941 229.663 161.206 227.107 158.567C224.552 155.929 197.229 155.026 194.852 153.754C192.475 152.482 180.59 128.95 174.731 116.911C167.315 101.853 159.709 110.434 160.588 116.567Z" fill="white"/>
<path d="M248.024 162.513C252.327 162.596 258.067 159.15 258.946 162.228C259.731 164.973 255.524 166.982 255.524 166.982C255.524 166.982 260.991 166.257 261.003 169.454C261.014 172.651 255.94 173.887 255.94 173.887C255.94 173.887 261.003 173.495 260.789 176.68C260.575 179.865 255.916 181.303 255.916 181.303C255.916 181.303 257.366 181.957 256.201 184.131C254.525 187.245 247.002 188.564 242.902 188.327C238.802 188.089 224.005 184.155 221.747 183.573L223.09 157.284C223.09 157.284 230.566 154.36 234.547 153.338C238.528 152.316 252.552 152.589 252.719 156.071C252.885 159.554 242.973 159.197 240.537 159.637C238.101 160.077 237.78 160.718 239.028 161.384C241.988 162.018 244.999 162.396 248.024 162.513Z" fill="white"/>
<path d="M255.285 166.97C249.224 169.347 246.158 169.347 239.835 168.158C239.716 168.158 239.645 168.313 239.835 168.348C245.885 170.095 249.723 170.654 255.44 167.291C255.689 167.088 255.571 166.91 255.285 166.97Z" fill="#263238"/>
<path d="M256.177 173.72C249.664 175.633 246.349 175.657 239.669 174.908C239.574 174.908 239.55 175.051 239.669 175.075C246.158 176.382 249.997 176.869 256.249 174.1C256.51 173.934 256.474 173.625 256.177 173.72Z" fill="#263238"/>
<path d="M255.833 181.255C249.403 182.657 245.755 182.835 239.373 181.255C239.341 181.245 239.307 181.249 239.278 181.264C239.249 181.28 239.228 181.306 239.218 181.338C239.209 181.37 239.212 181.404 239.228 181.432C239.243 181.461 239.27 181.483 239.301 181.493C244.607 183.658 250.551 183.658 255.857 181.493C256.237 181.314 256.237 181.172 255.833 181.255Z" fill="#263238"/>
<path d="M205.951 153.469C205.951 153.469 210.812 153.588 210.824 154.954C210.836 156.321 207.983 157.331 207.983 157.331C207.983 157.331 211.05 158.389 210.824 160.433C210.598 162.477 206.938 162.703 206.938 162.703C206.938 162.703 209.98 164.759 209.635 166.197C209.184 168.111 205.999 168.17 205.999 168.17C205.999 168.17 209.172 169.489 208.685 171.367C208.197 173.245 204.965 173.174 204.965 173.174C204.965 173.174 208.245 174.719 208.126 176.204C207.983 177.963 204.145 178.344 204.145 178.344C204.145 178.344 207.199 179.924 206.938 181.41C206.676 182.895 203.087 183.014 201.411 182.48L205.951 153.469Z" fill="white"/>
<path d="M207.985 153.255L202.624 182.967C202.624 182.967 180.186 177.227 175.42 170.108C169.478 161.218 161.741 133.265 160.053 118.373C158.366 103.482 168.872 103.066 174.992 115.247C180.935 127.073 193.556 150.557 194.543 151.567C195.826 152.922 207.985 153.255 207.985 153.255Z" fill="#BA68C8"/>
<path d="M192.986 148.548C192.38 147.359 191.179 144.852 190.609 143.794C189.42 141.607 188.172 139.42 186.924 137.245C185.677 135.071 184.452 132.884 183.169 130.733C182.943 130.376 182.741 129.996 182.515 129.627C182.515 129.366 181.564 126.347 181.422 125.587C181.422 125.468 181.208 125.503 181.244 125.587C181.436 126.332 181.575 127.091 181.659 127.857C181.659 127.999 181.659 128.142 181.755 128.284C180.935 126.87 180.114 125.444 179.283 124.077C179.223 123.97 179.057 124.077 179.116 124.16C180.768 127.132 181.671 129.033 182.919 131.458C184.167 133.882 185.427 136.128 186.699 138.446C187.97 140.763 189.301 143.069 190.609 145.363C191.368 146.739 192.197 148.076 193.093 149.368C193.663 150.176 193.663 149.725 192.986 148.548Z" fill="#263238"/>
<path d="M171.296 104.409C171.558 105.431 176.573 112.039 181.279 111.753C182.812 111.646 182.646 103.256 182.646 103.256L182.777 102.638L184.583 93.9262L174.279 87.544L172.794 86.7002C172.794 86.7002 172.461 89.0772 172.069 92.1316C172.069 92.2742 172.069 92.4168 172.069 92.5594C172.034 92.7201 172.01 92.8829 171.997 93.0467C171.926 93.4983 171.867 93.9618 171.807 94.4134C171.748 94.8651 171.724 95.1028 171.7 95.4712C171.676 95.8396 171.629 96.1961 171.581 96.5646C171.304 99.1694 171.209 101.79 171.296 104.409Z" fill="white"/>
<path d="M172.069 92.1316C172.982 94.5545 174.412 96.7494 176.259 98.5638C178.107 100.378 180.327 101.768 182.766 102.638L184.572 93.9262L174.268 87.544L172.782 86.7002C172.782 86.7002 172.462 89.1247 172.069 92.1316Z" fill="#263238"/>
<path d="M171.296 85.1908C171.296 85.1908 167.731 80.4368 165.603 81.6253C163.476 82.8138 166.126 89.9447 168.741 90.8004C169.068 90.9406 169.42 91.0133 169.775 91.0141C170.131 91.0149 170.483 90.9438 170.811 90.8051C171.138 90.6663 171.434 90.4627 171.681 90.2066C171.928 89.9505 172.12 89.6472 172.247 89.3148L171.296 85.1908Z" fill="white"/>
<path d="M166.435 83.6338C166.435 83.6338 166.375 83.6338 166.435 83.7051C167.283 84.1006 168.039 84.6699 168.653 85.3763C169.267 86.0826 169.726 86.9102 170 87.8054C169.889 87.6275 169.741 87.4754 169.566 87.3592C169.392 87.2431 169.194 87.1655 168.987 87.1318C168.78 87.098 168.569 87.1088 168.366 87.1635C168.164 87.2182 167.975 87.3155 167.813 87.4488C167.813 87.4488 167.813 87.5677 167.813 87.5558C168.13 87.4463 168.472 87.4378 168.794 87.5315C169.115 87.6252 169.4 87.8164 169.608 88.0787C169.952 88.5232 170.25 89.001 170.499 89.5049C170.582 89.6713 170.88 89.5762 170.808 89.386C170.796 87.0329 168.93 83.8121 166.435 83.6338Z" fill="#263238"/>
<path d="M196.183 79.8665C197.847 95.388 188.731 98.1453 185.379 98.4899C182.349 98.8227 171.961 99.5239 168.741 84.2282C165.52 68.9324 172.175 63.2753 179.08 62.17C185.986 61.0647 194.519 64.3449 196.183 79.8665Z" fill="white"/>
<path d="M193.07 77.7747C192.71 77.7336 192.353 77.6741 192 77.5965C191.618 77.5837 191.251 77.4459 190.954 77.2043C190.88 77.1069 190.84 76.9879 190.84 76.8655C190.84 76.7431 190.88 76.6241 190.954 76.5268C191.123 76.3486 191.337 76.2192 191.574 76.1523C191.81 76.0854 192.06 76.0834 192.297 76.1465C192.798 76.2049 193.259 76.4462 193.593 76.8239C193.668 76.9139 193.714 77.0245 193.725 77.1412C193.737 77.2579 193.713 77.3753 193.656 77.478C193.6 77.5807 193.513 77.664 193.409 77.717C193.304 77.7699 193.186 77.79 193.07 77.7747Z" fill="#263238"/>
<path d="M182.278 78.5464C182.646 78.487 182.967 78.3681 183.324 78.2849C183.707 78.2412 184.065 78.0744 184.346 77.8095C184.42 77.7122 184.46 77.5932 184.46 77.4708C184.46 77.3484 184.42 77.2294 184.346 77.1321C184.163 76.9692 183.94 76.858 183.699 76.81C183.459 76.7619 183.21 76.7788 182.979 76.8587C182.505 76.9642 182.084 77.2336 181.79 77.6194C181.73 77.7084 181.695 77.8121 181.689 77.9194C181.683 78.0266 181.707 78.1335 181.757 78.2287C181.807 78.3238 181.882 78.4035 181.973 78.4595C182.065 78.5154 182.17 78.5455 182.278 78.5464Z" fill="#263238"/>
<path d="M184.501 82.3975C184.501 82.3975 184.418 82.4569 184.43 82.5044C184.525 83.5622 184.43 84.7863 183.515 85.2023V85.2617C184.691 85.024 184.763 83.3839 184.501 82.3975Z" fill="#263238"/>
<path d="M183.49 81.3398C181.778 81.3398 181.85 84.7389 183.43 84.7627C185.011 84.7864 184.928 81.3398 183.49 81.3398Z" fill="#263238"/>
<path d="M182.812 81.5417C182.527 81.7437 182.242 82.1003 181.874 82.1359C181.505 82.1716 181.137 81.8388 180.851 81.4941H180.792C180.792 82.1478 181.065 82.8133 181.778 82.8965C182.492 82.9797 182.872 82.3855 182.967 81.7081C183.05 81.6486 182.967 81.4704 182.812 81.5417Z" fill="#263238"/>
<path d="M191.144 81.7793C191.144 81.7793 191.239 81.7793 191.227 81.8744C191.227 82.9321 191.37 84.1563 192.332 84.489C192.332 84.489 192.332 84.5603 192.332 84.489C191.156 84.4058 190.966 82.7776 191.144 81.7793Z" fill="#263238"/>
<path d="M192.083 80.6508C193.795 80.5082 193.973 83.931 192.392 84.0736C190.812 84.2163 190.657 80.7816 192.083 80.6508Z" fill="#263238"/>
<path d="M192.809 80.8406C193.094 81.007 193.379 81.3278 193.7 81.3278C194.021 81.3278 194.33 80.9475 194.556 80.5791C194.556 80.5791 194.556 80.5791 194.615 80.5791C194.615 81.2328 194.484 81.934 193.855 82.0885C193.225 82.243 192.844 81.6963 192.666 81.0426C192.618 80.9594 192.702 80.7693 192.809 80.8406Z" fill="#263238"/>
<path d="M185.201 90.5384C185.45 90.7998 185.688 91.1445 186.08 91.192C186.489 91.1967 186.894 91.1157 187.269 90.9543C187.269 90.9543 187.34 90.9543 187.269 90.9543C187.111 91.1601 186.901 91.3196 186.661 91.4158C186.42 91.512 186.158 91.5415 185.902 91.501C185.691 91.4321 185.503 91.3054 185.36 91.1353C185.217 90.9651 185.125 90.7583 185.094 90.5384C185.082 90.5265 185.165 90.5027 185.201 90.5384Z" fill="#263238"/>
<path d="M189.516 86.5574C189.516 86.5574 189.789 88.138 189.813 88.9343C189.813 89.0056 189.635 89.0413 189.373 89.0651C188.727 89.2186 188.051 89.1887 187.421 88.9787C186.791 88.7687 186.232 88.387 185.808 87.8766C185.808 87.8053 185.808 87.7221 185.926 87.7696C186.898 88.3896 188.045 88.6773 189.195 88.5897C189.195 88.3876 188.648 85.9037 188.767 85.8918C189.35 85.9239 189.926 86.0359 190.478 86.2246C190.003 82.9087 189.005 79.7117 188.589 76.4078C188.596 76.3868 188.61 76.3686 188.628 76.3557C188.646 76.3429 188.667 76.3359 188.69 76.3359C188.712 76.3359 188.734 76.3429 188.752 76.3557C188.77 76.3686 188.783 76.3868 188.791 76.4078C189.958 79.8078 190.786 83.3151 191.263 86.8783C191.37 87.1873 189.813 86.6762 189.516 86.5574Z" fill="#263238"/>
<path d="M169.657 85.2618C172.224 85.2618 172.402 79.8542 172.402 79.8542C172.402 79.8542 177.584 79.4739 178.725 71.8795C178.749 74.1268 178.117 76.3324 176.907 78.226C176.907 78.226 185.975 76.5502 189.243 68.5993C189.243 68.5993 188.055 72.6164 186.664 74.1138C188.933 73.2252 190.834 71.596 192.06 69.4907C192.06 69.4907 193.997 73.7811 195.328 74.9101C195.328 74.9101 193.712 58.9251 179.01 61.7774C179.01 61.7774 169.776 63.1085 167.007 70.7148C164.238 78.3211 169.657 85.2618 169.657 85.2618Z" fill="#263238"/>
<path d="M172.27 102.21C170.368 102.388 167.207 103.077 163.237 106.809C163.237 106.809 172.971 113.12 181.35 112.276C184.345 111.979 184.915 106.94 184.915 106.94C183.28 105.277 181.301 103.991 179.116 103.174C176.932 102.357 174.595 102.028 172.27 102.21Z" fill="white"/>
</svg>
