<svg width="420" height="315" viewBox="0 0 420 315" fill="none" xmlns="http://www.w3.org/2000/svg">
<path d="M319.894 60.9166L305.95 73.4243C303.742 75.3748 288.805 59.7705 288.805 59.7705L284.698 63.3189C284.698 63.3189 298.697 80.6534 303.886 81.0281C309.075 81.4028 323.493 70.0081 323.493 70.0081L319.894 60.9166Z" fill="white"/>
<path d="M311.018 67.7052L316.328 76.7086L321.848 73.4026L331.077 67.7603V47.4395C331.077 47.4395 316.571 56.9277 311.018 67.7052Z" fill="#9468B4"/>
<path opacity="0.2" d="M321.881 73.3475L331.111 67.7053V67.573C330.47 65.1266 329.93 63.165 329.93 63.165C329.93 63.165 320.281 67.7383 321.881 73.3475Z" fill="black"/>
<path d="M388.209 72.2783C388.209 72.2783 396.037 81.6233 395.021 86.2076C394.005 90.7919 387.127 93.3706 387.127 93.3706L379.289 92.6653C379.289 92.6653 385.913 87.9157 385.913 86.2076C385.913 84.4995 381 79.8711 381 79.8711L388.209 72.2783Z" fill="white"/>
<path d="M324.354 118.386L367.852 121.428C367.711 107.578 368.275 93.7301 369.541 79.9374C369.784 77.2779 370.026 74.7653 370.269 72.3997C371.627 59.6055 373.018 51.2964 373.018 51.2964H372.886L331.055 47.4614C322.334 77.2044 324.354 118.386 324.354 118.386Z" fill="#9468B4"/>
<path d="M355.907 296.568L348.576 300.778L339.777 284.854L347.108 280.645L355.907 296.568Z" fill="white"/>
<path d="M347.682 299.842L355.829 294.662C355.962 294.568 356.123 294.525 356.285 294.539C356.447 294.553 356.599 294.624 356.713 294.739L361.625 299.842C361.731 299.963 361.811 300.104 361.861 300.256C361.912 300.408 361.931 300.569 361.919 300.729C361.907 300.889 361.863 301.045 361.789 301.187C361.716 301.33 361.616 301.457 361.493 301.561L361.283 301.704C358.446 303.445 356.867 304.228 353.357 306.476C351.149 307.853 341.941 312.812 338.53 313.088C335.118 313.363 334.732 310.101 336.123 309.583C343.133 306.972 345.86 303.643 346.755 301.021C346.92 300.534 347.247 300.118 347.682 299.842Z" fill="#263238"/>
<path opacity="0.2" d="M347.108 280.645L339.777 284.854L344.315 293.064L351.656 288.854L347.108 280.645Z" fill="black"/>
<path d="M324.366 118.397C324.366 118.397 302.628 189.178 303.953 212.783C305.388 238.669 340.252 293.119 340.252 293.119L353.39 284.832C353.39 284.832 328.771 231.187 327.843 211.351C329.201 182.611 355.852 120.667 355.852 120.667L324.366 118.397Z" fill="#263238"/>
<path opacity="0.2" d="M345.684 137.649C338.431 142.057 335.549 160.989 337.084 170.588C341.014 158.466 345.496 146.454 349.084 137.263C348.533 137.024 347.929 136.934 347.332 137.001C346.735 137.069 346.167 137.292 345.684 137.649Z" fill="black"/>
<path d="M338.795 294.386L354.284 284.589L351.745 280.226L335.505 290.122L338.795 294.386Z" fill="#9468B4"/>
<path d="M346.003 302.519C345.544 302.861 344.987 303.046 344.414 303.048C344.231 303.029 344.057 302.962 343.91 302.854C343.762 302.745 343.647 302.599 343.575 302.431C343.515 302.335 343.483 302.224 343.483 302.111C343.483 301.998 343.515 301.888 343.575 301.792C344.149 300.899 347.24 300.756 347.593 300.756C347.629 300.752 347.666 300.761 347.696 300.781C347.726 300.801 347.749 300.831 347.759 300.866C347.78 300.897 347.791 300.933 347.791 300.971C347.791 301.008 347.78 301.044 347.759 301.075C347.224 301.615 346.636 302.099 346.003 302.519ZM344.116 301.792C344.037 301.839 343.969 301.903 343.917 301.979C343.891 302.016 343.877 302.06 343.877 302.106C343.877 302.151 343.891 302.195 343.917 302.233C343.96 302.35 344.036 302.453 344.136 302.529C344.236 302.605 344.355 302.651 344.48 302.662C345.503 302.498 346.433 301.969 347.096 301.175C346.073 301.197 345.063 301.406 344.116 301.792Z" fill="#9468B4"/>
<path d="M347.704 301.12H347.604C346.644 301.219 344.292 300.635 344.05 299.786C344.007 299.644 344.013 299.492 344.067 299.355C344.121 299.217 344.22 299.101 344.348 299.026C344.463 298.929 344.597 298.856 344.741 298.812C344.885 298.769 345.037 298.755 345.187 298.772C346.401 298.883 347.715 300.734 347.759 300.844C347.781 300.873 347.792 300.908 347.792 300.943C347.792 300.979 347.781 301.014 347.759 301.043C347.747 301.072 347.728 301.099 347.704 301.12ZM344.646 299.301L344.58 299.356C344.37 299.522 344.414 299.621 344.425 299.676C344.591 300.172 346.169 300.712 347.207 300.778C346.788 300.26 345.893 299.268 345.132 299.202C344.962 299.182 344.79 299.221 344.646 299.312V299.301Z" fill="#9468B4"/>
<path d="M371.893 306.145H363.734L363.061 287.29H371.23L371.893 306.145Z" fill="white"/>
<path d="M362.608 305.197H372.544C372.705 305.202 372.86 305.26 372.986 305.361C373.112 305.463 373.201 305.603 373.239 305.759L374.851 313.01C374.916 313.322 374.855 313.646 374.682 313.913C374.508 314.179 374.235 314.366 373.924 314.432C373.836 314.443 373.747 314.443 373.659 314.432C370.446 314.432 368.139 314.19 364.087 314.19C361.614 314.19 354.151 314.443 350.706 314.443C347.262 314.443 346.842 311.071 348.244 310.762C354.526 309.396 359.284 307.456 361.272 305.693C361.642 305.371 362.117 305.195 362.608 305.197Z" fill="#263238"/>
<path opacity="0.2" d="M371.23 287.301H363.061L363.414 297.02H371.572L371.23 287.301Z" fill="black"/>
<path d="M360.919 50.5688C359.152 52.1667 350 53.2026 350 53.2026L346.479 58.5032L344.812 50.9545C344.812 50.9545 341.776 50.2382 342.416 49.2905C343.416 49.2007 344.388 48.9127 345.275 48.4435C346.162 47.9742 346.947 47.333 347.583 46.5575C349.128 44.4527 349.018 41.5104 348.521 38.6452C348.521 38.6452 348.521 38.568 348.521 38.535L355.642 33.2894L360.544 29.6528C358.954 35.5155 357.022 46.3151 360.919 50.5688Z" fill="white"/>
<path opacity="0.2" d="M358.534 34.7004C357.021 41.5879 350.806 45.5881 347.582 46.5579C349.128 44.4531 349.017 41.5107 348.52 38.6455C348.526 38.6054 348.526 38.5645 348.52 38.5243L355.641 33.2788C355.796 34.3477 358.755 33.6425 358.534 34.7004Z" fill="black"/>
<path d="M339.788 119.466C339.788 119.466 344.403 189.179 347.847 212.784C351.612 238.67 359.671 295.136 359.671 295.136H374.586C374.586 295.136 371.539 241.138 370.17 215.649C368.547 186.655 367.896 121.428 367.896 121.428L339.788 119.466Z" fill="#263238"/>
<path d="M357.871 295.455H375.469V290.21L357.209 289.868L357.871 295.455Z" fill="#9468B4"/>
<path d="M349.725 5.06745C348.284 4.7019 346.766 4.78229 345.372 5.29795C343.978 5.81361 342.774 6.74016 341.919 7.95468C338.486 12.2966 341.003 15.1838 341.003 15.1838C341.242 13.9469 341.784 12.7883 342.582 11.8117C342.582 11.8117 340.572 16.2197 344.922 21.4322C349.272 26.6446 362.078 32.6174 362.078 32.6174C362.078 32.6174 369.873 29.5649 372.125 22.6113C374.377 15.6577 374.333 10.7097 366.174 6.20251C358.016 1.69532 349.945 0.394967 349.725 5.06745Z" fill="#263238"/>
<path d="M363.944 21.8067C363.028 28.8925 362.741 33.4107 359.661 37.0033C359.247 37.4823 358.797 37.9282 358.314 38.3367C351.756 44.1332 342.074 39.7472 340.65 31.5814C340.41 30.0987 340.299 28.5981 340.319 27.0963C340.319 20.1427 342.869 11.8667 349.471 9.70674C351.267 9.10179 353.189 8.96872 355.052 9.32036C356.914 9.672 358.655 10.4965 360.106 11.7144C361.557 12.9324 362.669 14.5027 363.335 16.2742C364.002 18.0456 364.2 19.9586 363.911 21.8287L363.944 21.8067Z" fill="white"/>
<path d="M351.557 23.1952C351.557 23.8453 351.138 24.3523 350.696 24.2972C350.254 24.2421 349.956 23.7021 350 23.0519C350.045 22.4017 350.442 21.8948 350.862 21.9499C351.281 22.005 351.601 22.5229 351.557 23.1952Z" fill="#263238"/>
<path d="M344.138 22.6776C344.138 23.3278 343.708 23.8347 343.277 23.7796C342.847 23.7245 342.548 23.1845 342.582 22.5343C342.615 21.8841 343.023 21.3772 343.443 21.4323C343.862 21.4874 344.182 22.0494 344.138 22.6776Z" fill="#263238"/>
<path d="M346.478 23.1621C345.556 25.1095 344.367 26.9194 342.945 28.5399C343.374 28.8931 343.874 29.149 344.412 29.2898C344.95 29.4307 345.511 29.453 346.059 29.3554L346.478 23.1621Z" fill="#DCDCDC"/>
<path d="M354.251 20.6385C354.182 20.6562 354.109 20.6564 354.04 20.6391C353.97 20.6218 353.906 20.5875 353.854 20.5393C353.518 20.1912 353.106 19.9262 352.65 19.7655C352.194 19.6047 351.706 19.5527 351.226 19.6136C351.177 19.6249 351.126 19.626 351.076 19.617C351.026 19.608 350.978 19.589 350.936 19.5612C350.894 19.5334 350.858 19.4974 350.83 19.4553C350.802 19.4131 350.783 19.3658 350.773 19.3161C350.753 19.2184 350.772 19.1167 350.826 19.0324C350.879 18.9482 350.963 18.8879 351.06 18.8643C351.661 18.772 352.274 18.8238 352.85 19.0155C353.426 19.2071 353.948 19.5331 354.372 19.9663C354.443 20.0384 354.483 20.1353 354.483 20.2363C354.483 20.3372 354.443 20.4342 354.372 20.5063L354.251 20.6385Z" fill="#263238"/>
<path d="M347.858 32.827C348.803 32.7107 349.706 32.3684 350.49 31.8293C351.274 31.2902 351.917 30.5702 352.362 29.7304C352.374 29.7066 352.38 29.6808 352.381 29.6545C352.382 29.6282 352.377 29.602 352.368 29.5774C352.359 29.5528 352.345 29.5303 352.327 29.5111C352.309 29.492 352.287 29.4766 352.263 29.4659C352.24 29.4529 352.215 29.4449 352.189 29.4423C352.162 29.4397 352.136 29.4427 352.111 29.451C352.086 29.4593 352.063 29.4728 352.044 29.4906C352.024 29.5083 352.009 29.53 351.998 29.5541C351.568 30.3218 350.966 30.9792 350.237 31.4745C349.509 31.9699 348.676 32.2895 347.803 32.4083C347.777 32.4096 347.752 32.4162 347.729 32.4276C347.706 32.439 347.686 32.455 347.669 32.4747C347.653 32.4943 347.64 32.5171 347.633 32.5417C347.625 32.5663 347.623 32.5922 347.626 32.6176C347.629 32.6438 347.637 32.6691 347.65 32.6921C347.662 32.7151 347.679 32.7354 347.7 32.7518C347.72 32.7682 347.744 32.7804 347.769 32.7876C347.795 32.7949 347.821 32.797 347.847 32.794L347.858 32.827Z" fill="#263238"/>
<path d="M341.279 18.9307C341.199 18.9168 341.126 18.8782 341.069 18.8205C341.04 18.7795 341.019 18.7331 341.009 18.6841C340.998 18.635 340.997 18.5843 341.006 18.535C341.016 18.4856 341.035 18.4387 341.063 18.3968C341.09 18.355 341.126 18.3192 341.168 18.2915C341.672 17.9399 342.252 17.7143 342.862 17.6337C343.471 17.5532 344.09 17.62 344.668 17.8287C344.76 17.8719 344.831 17.9485 344.868 18.0427C344.905 18.137 344.905 18.2417 344.867 18.3356C344.823 18.4271 344.747 18.4986 344.652 18.5354C344.558 18.5723 344.453 18.5718 344.359 18.5339C343.899 18.3821 343.41 18.3398 342.93 18.4106C342.451 18.4814 341.995 18.6633 341.599 18.9417C341.495 18.9792 341.38 18.9753 341.279 18.9307Z" fill="#263238"/>
<path d="M344.812 12.5502C346.688 11.9331 348.576 13.6522 348.576 13.6522C351.089 13.4354 353.615 13.4354 356.128 13.6522C358.589 14.071 359.307 16.5284 359.517 17.1345C359.727 17.7406 358.545 18.9418 358.545 18.9418C358.545 18.9418 358.81 26.3583 358.91 28.408L361.946 33.918C365.316 28.6509 367.14 22.5465 367.212 16.297C367.311 5.75089 346.479 6.25781 346.479 6.25781L344.812 12.5502Z" fill="#263238"/>
<path d="M366.958 30.9095C365.754 32.5455 363.953 33.6423 361.945 33.962C359.274 34.3477 358.28 31.8902 359.296 29.554C360.223 27.4933 362.718 24.7162 365.257 25.4215C367.797 26.1268 368.415 28.8818 366.958 30.9095Z" fill="white"/>
<path d="M359.915 306.63C359.359 306.678 358.804 306.53 358.347 306.211C358.195 306.091 358.077 305.933 358.005 305.753C357.933 305.573 357.91 305.378 357.938 305.186C357.934 305.073 357.964 304.962 358.023 304.866C358.081 304.77 358.167 304.694 358.27 304.646C359.175 304.172 361.802 305.748 362.101 305.979C362.133 305.997 362.159 306.025 362.175 306.059C362.191 306.092 362.196 306.13 362.189 306.167C362.184 306.205 362.168 306.241 362.142 306.271C362.116 306.3 362.083 306.322 362.045 306.332C361.348 306.508 360.634 306.608 359.915 306.63ZM358.7 304.943C358.612 304.934 358.523 304.953 358.446 304.999C358.391 304.999 358.336 305.065 358.325 305.219C358.309 305.346 358.324 305.476 358.368 305.596C358.413 305.717 358.485 305.826 358.579 305.913C359.492 306.334 360.532 306.385 361.482 306.056C360.634 305.512 359.69 305.135 358.7 304.943Z" fill="#9468B4"/>
<path d="M361.989 306.343H361.901C361.062 305.88 359.428 304.139 359.594 303.235C359.624 303.092 359.703 302.963 359.818 302.87C359.933 302.778 360.076 302.728 360.223 302.729C360.369 302.709 360.517 302.72 360.658 302.762C360.798 302.804 360.929 302.875 361.04 302.971C361.978 303.742 362.144 306.079 362.144 306.2C362.143 306.234 362.135 306.267 362.12 306.298C362.104 306.328 362.082 306.355 362.056 306.376C362.032 306.37 362.009 306.358 361.989 306.343ZM360.355 303.037H360.256C360.013 303.037 359.991 303.18 359.98 303.235C359.881 303.764 360.919 305.12 361.758 305.748C361.701 304.821 361.362 303.932 360.786 303.202C360.668 303.096 360.515 303.037 360.355 303.037Z" fill="#9468B4"/>
<path d="M286.035 64.4985C286.035 64.4985 277.721 63.7822 275.856 63.099C273.99 62.4157 274.454 56.487 274.586 55.5062C274.718 54.5254 286.222 56.6082 288.022 57.5118C289.821 58.4154 290.815 62.7904 290.815 62.7904L286.035 64.4985Z" fill="white"/>
<path d="M418.102 90.8966L321.436 83.4551L316.346 149.335L413.012 156.777L418.102 90.8966Z" fill="#9468B4"/>
<path opacity="0.7" d="M418.102 90.8966L321.436 83.4551L316.346 149.335L413.012 156.777L418.102 90.8966Z" fill="white"/>
<path d="M418.102 90.8966L321.436 83.4551L316.346 149.335L413.012 156.777L418.102 90.8966Z" stroke="black" stroke-width="0.5" stroke-miterlimit="10"/>
<path d="M322.498 82.5277L320.527 82.376L320.375 84.3427L322.346 84.4944L322.498 82.5277Z" fill="black"/>
<path d="M317.416 148.404L315.445 148.252L315.293 150.219L317.264 150.37L317.416 148.404Z" fill="black"/>
<path d="M414.072 155.855L412.102 155.704L411.95 157.67L413.92 157.822L414.072 155.855Z" fill="black"/>
<path d="M419.154 90.0023L417.184 89.8506L417.032 91.8173L419.002 91.969L419.154 90.0023Z" fill="black"/>
<path d="M411.891 145.635L319.154 138.496L318.446 147.659L411.183 154.798L411.891 145.635Z" fill="#9468B4"/>
<path opacity="0.2" d="M402.529 150.311L327.666 144.548C327.446 144.531 327.241 144.427 327.096 144.26C326.951 144.093 326.878 143.876 326.894 143.655C326.902 143.545 326.932 143.438 326.982 143.339C327.032 143.241 327.101 143.153 327.185 143.081C327.27 143.01 327.367 142.955 327.472 142.921C327.578 142.887 327.689 142.875 327.799 142.884L402.65 148.647C402.871 148.664 403.076 148.767 403.221 148.935C403.365 149.102 403.438 149.319 403.423 149.54C403.406 149.76 403.302 149.965 403.135 150.109C402.967 150.254 402.749 150.326 402.529 150.311Z" fill="black"/>
<path d="M357.265 121.516L358.413 106.705L377.391 115.62L357.265 121.516Z" fill="#9468B4"/>
<path d="M338.993 144.647C338.966 144.995 338.836 145.326 338.62 145.6C338.404 145.874 338.111 146.078 337.779 146.186C337.446 146.294 337.09 146.301 336.753 146.206C336.417 146.112 336.116 145.92 335.889 145.655C335.662 145.39 335.519 145.063 335.478 144.717C335.437 144.371 335.5 144.02 335.658 143.709C335.817 143.399 336.064 143.142 336.369 142.971C336.673 142.801 337.022 142.724 337.37 142.751C337.836 142.791 338.268 143.012 338.572 143.367C338.875 143.721 339.027 144.181 338.993 144.647Z" fill="#9468B4"/>
<path opacity="0.4" d="M338.993 144.647C338.966 144.995 338.836 145.326 338.62 145.6C338.404 145.874 338.111 146.078 337.779 146.186C337.446 146.294 337.09 146.301 336.753 146.206C336.417 146.112 336.116 145.92 335.889 145.655C335.662 145.39 335.519 145.063 335.478 144.717C335.437 144.371 335.5 144.02 335.658 143.709C335.817 143.399 336.064 143.142 336.369 142.971C336.673 142.801 337.022 142.724 337.37 142.751C337.836 142.791 338.268 143.012 338.572 143.367C338.875 143.721 339.027 144.181 338.993 144.647Z" fill="white"/>
<path d="M360.025 46.5577L350 51.3073L346.479 58.1728V50.4588C346.479 50.4588 345.055 48.916 346.479 45.8965L340.285 48.2548L337.492 55.3516L344.712 52.3432L346.479 59.7486L350 53.886L354.516 58.9442L364.065 50.4367L360.025 46.5577Z" fill="#9468B4"/>
<path opacity="0.2" d="M360.025 46.5577L350 51.3073L346.479 58.1728V50.4588C346.479 50.4588 345.055 48.916 346.479 45.8965L340.285 48.2548L337.492 55.3516L344.712 52.3432L346.479 59.7486L350 53.886L354.516 58.9442L364.065 50.4367L360.025 46.5577Z" fill="black"/>
<path opacity="0.2" d="M367.73 72.0249C367.91 74.7414 368.521 77.4122 369.541 79.9373C369.784 77.2778 370.027 74.7652 370.27 72.3996L367.73 72.0249Z" fill="black"/>
<path d="M373.019 51.3076C381.498 54.9993 392.538 75.232 392.538 75.232L382.756 84.1252L367.687 72.0032L373.019 51.3076Z" fill="#9468B4"/>
<path d="M375.513 88.3237C375.513 88.3237 376.617 82.9239 377.666 82.8137C378.715 82.7035 386.719 84.114 387.216 85.5907C387.712 87.0674 388.132 90.6929 386.112 90.9023C384.091 91.1117 374.873 90.9023 375.513 88.3237Z" fill="white"/>
<path d="M209.395 62.4929C211.095 60.6085 215.29 57.2804 210.499 53.4234C205.708 49.5665 207.573 42.2051 212.707 42.3483C217.841 42.4916 213.038 39.1636 213.248 33.2789C213.458 27.3942 220.976 26.6669 225.293 29.6533C229.609 32.6397 233.021 24.9367 238.541 26.2812C244.061 27.6256 242.095 32.4524 243.343 37.5216C244.59 42.5908 252.694 38.4252 255.2 44.1336C257.706 49.8419 253.445 49.5113 253.842 55.7046C254.239 61.8978 259.307 63.0219 258.821 67.7715C258.335 72.5211 248.167 73.017 248.885 79.9927C249.603 86.9683 245.341 92.5114 239.633 89.6241C233.926 86.7369 235.052 95.7513 227.49 93.7677C219.927 91.7841 218.79 86.3512 218.658 80.9955C218.525 75.6398 213.325 79.6951 209.881 77.414C206.436 75.1329 203.952 68.5539 209.395 62.4929Z" fill="#2E353A"/>
<path d="M205.101 121.736L207.816 74.5596L249.018 75.915L241.4 124.877L205.101 121.736Z" fill="#9468B4"/>
<path opacity="0.7" d="M205.101 121.736L207.816 74.5596L249.018 75.915L241.4 124.877L205.101 121.736Z" fill="white"/>
<path d="M209.009 132.15C209.009 132.15 197.77 191.956 194.767 216.508C190.848 248.544 174.829 295.412 174.829 295.412L181.232 297.065C181.232 297.065 203.82 257.238 208.225 221.412C226.176 184.782 227.622 139.721 227.622 139.721L209.009 132.15Z" fill="white"/>
<path d="M162.905 309.914C163.947 309.431 165.071 309.147 166.217 309.077C166.217 309.077 170.159 306.762 174.067 297.77H178.483C179.225 297.777 179.947 298.011 180.551 298.441C181.155 298.87 181.612 299.475 181.861 300.172C181.928 300.368 181.969 300.572 181.983 300.778C181.939 301.839 181.828 302.895 181.651 303.941C181.004 307.428 180.145 310.873 179.079 314.256L178.339 314.069L179.686 307.523C180.139 305.319 177.798 307.446 176.716 309.727C175.635 312.008 173.967 314.223 169.121 313.11C163.402 311.732 161.117 310.928 162.905 309.914Z" fill="#2E353A"/>
<path d="M220.688 131.191C220.688 131.191 222.08 192.033 224.232 216.674C227.036 248.83 221.075 297.99 221.075 297.99L227.699 298.277C227.699 298.277 241.554 254.648 238.441 218.679C248.377 179.15 240.483 134.729 240.483 134.729L220.688 131.191Z" fill="white"/>
<path d="M210.775 311.909C211.759 311.326 212.84 310.926 213.966 310.729C213.966 310.729 217.631 307.996 220.535 298.607L224.951 298.112C225.69 298.038 226.434 298.193 227.081 298.556C227.729 298.919 228.249 299.471 228.572 300.139C228.662 300.328 228.726 300.528 228.759 300.734C228.826 301.791 228.826 302.851 228.759 303.908C228.492 307.442 228.013 310.956 227.324 314.432L226.563 314.333L227.192 307.721C227.402 305.462 225.304 307.853 224.476 310.2C223.648 312.548 222.268 314.961 217.289 314.388C211.482 313.672 209.13 313.11 210.775 311.909Z" fill="#2E353A"/>
<path d="M223.78 80.9406C232.215 79.8386 234.754 76.2682 234.754 76.2682C229.399 71.232 233.849 62.4932 233.849 62.4932L223.692 64.3886C223.923 65.7993 224.056 67.2243 224.089 68.6533C224.167 74.8025 221.373 74.8686 221.373 74.8686C219.596 78.1967 223.78 80.9406 223.78 80.9406Z" fill="white"/>
<path opacity="0.2" d="M223.691 64.3886C223.923 65.7993 224.055 67.2243 224.089 68.6533C230.945 68.6533 233.848 62.4932 233.848 62.4932L223.691 64.3886Z" fill="black"/>
<path d="M229.3 36.034C220.468 35.5491 217.377 40.1114 216.228 49.1589C214.793 60.4654 216.88 68.6642 228.052 66.8459C243.221 64.3775 243.961 36.8385 229.3 36.034Z" fill="white"/>
<path d="M221.959 48.9824C221.181 50.2621 220.251 51.4426 219.188 52.4978C219.43 52.8704 219.771 53.1699 220.171 53.3641C220.572 53.5583 221.018 53.6398 221.462 53.5998L221.959 48.9824Z" fill="#A3A3A3"/>
<path d="M227.401 48.5526C227.401 49.2799 227.699 49.897 228.174 49.9301C228.649 49.9631 229.102 49.4121 229.157 48.6958C229.212 47.9795 228.87 47.3514 228.384 47.3183C227.898 47.2852 227.468 47.8363 227.401 48.5526Z" fill="#2E353A"/>
<path d="M228.582 47.3624L227.059 46.624C227.059 46.624 227.732 48.0126 228.582 47.3624Z" fill="#2E353A"/>
<path d="M218.414 47.7042C218.359 48.4205 218.701 49.0377 219.187 49.0817C219.673 49.1258 220.103 48.5638 220.158 47.8365C220.214 47.1092 219.871 46.503 219.386 46.459C218.9 46.4149 218.469 46.9769 218.414 47.7042Z" fill="#2E353A"/>
<path d="M219.585 46.5137L218.062 45.7754C218.062 45.7754 218.746 47.1529 219.585 46.5137Z" fill="#2E353A"/>
<path d="M227.887 42.3481C228.591 42.351 229.285 42.5143 229.916 42.8256C230.548 43.1369 231.1 43.5879 231.53 44.1444" stroke="#2E353A" stroke-width="0.72468" stroke-linecap="round" stroke-linejoin="round"/>
<path d="M221.418 41.5327C220.804 41.4201 220.173 41.449 219.572 41.617C218.971 41.7851 218.417 42.0879 217.951 42.5025" stroke="#2E353A" stroke-width="0.72468" stroke-linecap="round" stroke-linejoin="round"/>
<path d="M238.132 51.4177C238.132 51.4177 234.4 43.9461 235.339 38.392C235.339 38.392 218.238 30.3034 216.394 47.9794C216.394 47.9794 215.555 32.1437 230.746 32.6286C245.937 33.1135 244.668 55.2637 236.465 61.4459C236.465 61.4789 240.439 56.0791 238.132 51.4177Z" fill="#2E353A"/>
<path d="M236.597 53.1922C236.665 52.6889 236.832 52.2039 237.088 51.7651C237.344 51.3263 237.685 50.9422 238.09 50.6351C238.495 50.3279 238.957 50.1036 239.449 49.9751C239.941 49.8466 240.454 49.8164 240.958 49.8862C243.674 50.327 244.668 56.0023 237.79 56.9831C236.807 57.1374 236.31 56.1566 236.597 53.1922Z" fill="white"/>
<path d="M226.783 54.0186C226.783 54.0186 226.12 57.3246 221.66 57.3246" stroke="#2E353A" stroke-width="0.72468" stroke-linecap="round" stroke-linejoin="round"/>
<path d="M205.166 122.166L183.583 248.72C183.583 248.72 235.802 254.935 253.51 251.298C253.51 251.298 257.849 160.725 239.368 124.987L205.166 122.166Z" fill="#9468B4"/>
<path d="M174.829 295.411C174.829 295.411 169.309 306.861 166.185 309.076C166.185 309.076 170.413 311.589 174.829 305.991C180.526 298.739 181.917 300.756 181.917 300.756C181.801 299.507 181.572 298.272 181.232 297.064C180.371 294.728 174.829 295.411 174.829 295.411Z" fill="white"/>
<path d="M221.738 295.323C221.738 295.323 220.181 299.555 218.117 304.216C217.165 306.633 215.755 308.844 213.966 310.729C213.966 310.729 217.565 311.897 219.486 309.627C221.407 307.357 224.763 299.224 228.494 300.161C228.291 299.498 228.01 298.862 227.655 298.266C227.126 297.362 221.738 295.323 221.738 295.323Z" fill="white"/>
<path d="M205.101 121.736L204.085 128.503L242.151 131.191L241.555 123.874L205.101 121.736Z" fill="black"/>
<path d="M223.625 122.508C223.217 122.067 213.259 121.274 212.442 122.078C212.442 122.078 211.415 128.8 211.824 129.428C212.232 130.056 221.837 130.134 222.731 130.2C223.625 130.266 224.012 122.949 223.625 122.508ZM221.837 129.439C221.108 129.439 213.215 129.329 212.883 128.811C212.552 128.293 213.391 122.772 213.391 122.772C214.065 122.111 222.223 122.772 222.577 123.125C222.93 123.478 222.521 129.494 221.815 129.439H221.837Z" fill="white"/>
<path d="M221.605 125.02L219.639 124.888C219.459 124.872 219.279 124.926 219.137 125.039C218.995 125.152 218.902 125.315 218.878 125.494C218.86 125.594 218.865 125.697 218.89 125.795C218.915 125.893 218.961 125.985 219.025 126.064C219.089 126.144 219.169 126.208 219.259 126.254C219.35 126.301 219.449 126.327 219.551 126.332L221.527 126.442C221.707 126.434 221.877 126.359 222.005 126.233C222.133 126.107 222.21 125.939 222.221 125.76C222.232 125.58 222.176 125.404 222.064 125.263C221.953 125.123 221.793 125.028 221.616 124.998L221.605 125.02Z" fill="white"/>
<path d="M249.017 75.915C255.939 80.4112 251.126 116.568 221.66 144.239L218.403 140.184C218.403 140.184 237.514 113.813 239.766 102.837C244.833 78.119 249.017 75.915 249.017 75.915Z" fill="white"/>
<path d="M207.816 74.5599C204.504 73.6673 198.233 93.4262 198.233 111.543C198.233 121.737 201.225 141.374 201.225 141.374L206.436 138.068C206.436 138.068 204.725 109.714 205.1 107.102C205.476 104.49 209.351 87.3872 209.351 87.3872C210.047 84.953 210.451 82.4449 210.554 79.9156C210.513 78.8784 210.247 77.8623 209.774 76.9377C209.302 76.013 208.633 75.2017 207.816 74.5599Z" fill="white"/>
<path d="M267.189 148.093L170.313 144.209L167.657 210.232L264.532 214.116L267.189 148.093Z" fill="#9468B4"/>
<path opacity="0.7" d="M267.189 148.093L170.313 144.209L167.657 210.232L264.532 214.116L267.189 148.093Z" fill="white"/>
<path d="M267.189 148.093L170.313 144.209L167.657 210.232L264.532 214.116L267.189 148.093Z" stroke="black" stroke-width="0.5" stroke-miterlimit="10"/>
<path d="M171.333 143.27L169.358 143.19L169.279 145.161L171.254 145.241L171.333 143.27Z" fill="black"/>
<path d="M168.659 209.296L166.685 209.217L166.605 211.188L168.58 211.267L168.659 209.296Z" fill="black"/>
<path d="M265.532 213.185L263.558 213.105L263.478 215.077L265.453 215.156L265.532 213.185Z" fill="black"/>
<path d="M268.218 147.147L266.243 147.068L266.164 149.039L268.138 149.118L268.218 147.147Z" fill="black"/>
<path d="M259.185 157.485L203.676 155.281C203.566 155.277 203.458 155.251 203.359 155.205C203.259 155.159 203.17 155.093 203.096 155.012C203.022 154.931 202.965 154.836 202.928 154.733C202.891 154.63 202.875 154.52 202.881 154.411C202.89 154.19 202.985 153.983 203.146 153.832C203.307 153.681 203.522 153.6 203.742 153.606L259.251 155.81C259.361 155.813 259.469 155.838 259.569 155.883C259.669 155.927 259.759 155.992 259.834 156.072C259.909 156.152 259.968 156.246 260.006 156.348C260.044 156.451 260.062 156.56 260.057 156.67C260.054 156.781 260.029 156.89 259.984 156.991C259.938 157.093 259.873 157.184 259.792 157.26C259.711 157.336 259.615 157.395 259.511 157.433C259.407 157.472 259.296 157.49 259.185 157.485Z" fill="#9468B4"/>
<path d="M258.953 163.568L203.433 161.364C203.325 161.36 203.218 161.335 203.119 161.289C203.02 161.244 202.931 161.179 202.857 161.099C202.783 161.019 202.726 160.926 202.689 160.824C202.651 160.722 202.634 160.613 202.638 160.505C202.641 160.394 202.666 160.286 202.712 160.185C202.757 160.084 202.823 159.994 202.904 159.919C202.985 159.844 203.081 159.786 203.185 159.748C203.289 159.711 203.4 159.694 203.511 159.7L259.02 161.904C259.24 161.916 259.448 162.014 259.596 162.177C259.745 162.34 259.824 162.555 259.815 162.775C259.803 162.993 259.707 163.198 259.546 163.347C259.385 163.495 259.172 163.574 258.953 163.568Z" fill="#9468B4"/>
<path d="M258.689 169.64L203.18 167.436C203.069 167.432 202.961 167.406 202.861 167.36C202.761 167.314 202.671 167.249 202.596 167.168C202.521 167.087 202.463 166.992 202.425 166.889C202.387 166.785 202.369 166.676 202.374 166.566C202.378 166.456 202.404 166.348 202.45 166.249C202.497 166.15 202.562 166.06 202.643 165.987C202.725 165.913 202.82 165.856 202.923 165.819C203.026 165.782 203.136 165.766 203.246 165.772L258.755 167.976C258.977 167.988 259.185 168.085 259.336 168.248C259.486 168.41 259.567 168.625 259.561 168.847C259.549 169.067 259.451 169.274 259.288 169.422C259.125 169.571 258.91 169.649 258.689 169.64Z" fill="#9468B4"/>
<path d="M258.434 175.724L202.925 173.519C202.704 173.508 202.495 173.411 202.345 173.248C202.194 173.085 202.113 172.87 202.119 172.649C202.124 172.539 202.15 172.431 202.196 172.331C202.242 172.231 202.307 172.141 202.388 172.066C202.469 171.991 202.564 171.933 202.668 171.895C202.771 171.857 202.881 171.84 202.992 171.844L258.501 174.048C258.722 174.06 258.931 174.157 259.081 174.32C259.232 174.483 259.313 174.698 259.307 174.919C259.302 175.029 259.276 175.137 259.23 175.237C259.184 175.337 259.119 175.427 259.038 175.502C258.957 175.576 258.862 175.635 258.758 175.673C258.655 175.711 258.545 175.728 258.434 175.724Z" fill="#9468B4"/>
<path d="M258.18 181.806L177.069 178.5C176.959 178.496 176.851 178.47 176.751 178.424C176.65 178.378 176.56 178.313 176.486 178.232C176.411 178.151 176.352 178.056 176.314 177.953C176.276 177.85 176.259 177.74 176.263 177.63C176.268 177.52 176.294 177.412 176.34 177.312C176.386 177.212 176.451 177.122 176.532 177.047C176.613 176.972 176.708 176.914 176.812 176.876C176.915 176.838 177.025 176.821 177.136 176.825L258.246 180.131C258.357 180.136 258.465 180.162 258.565 180.208C258.665 180.254 258.755 180.319 258.83 180.4C258.905 180.481 258.963 180.576 259.001 180.679C259.039 180.782 259.057 180.892 259.052 181.002C259.041 181.223 258.943 181.431 258.78 181.581C258.617 181.732 258.402 181.812 258.18 181.806Z" fill="#9468B4"/>
<path d="M257.926 187.878L176.815 184.572C176.705 184.568 176.597 184.542 176.497 184.496C176.397 184.45 176.306 184.385 176.232 184.304C176.157 184.223 176.099 184.128 176.06 184.025C176.022 183.922 176.005 183.812 176.009 183.702C176.021 183.482 176.119 183.275 176.282 183.126C176.445 182.978 176.661 182.899 176.882 182.908L258.004 186.214C258.112 186.219 258.219 186.244 258.318 186.29C258.417 186.335 258.506 186.4 258.58 186.48C258.653 186.56 258.711 186.653 258.748 186.755C258.786 186.857 258.803 186.965 258.798 187.074C258.796 187.184 258.771 187.293 258.725 187.394C258.679 187.495 258.614 187.585 258.533 187.66C258.451 187.735 258.356 187.793 258.252 187.831C258.147 187.868 258.037 187.884 257.926 187.878Z" fill="#9468B4"/>
<path d="M257.684 193.961L176.562 190.655C176.341 190.644 176.132 190.546 175.982 190.384C175.831 190.221 175.75 190.006 175.756 189.785C175.768 189.564 175.865 189.356 176.028 189.205C176.191 189.055 176.407 188.974 176.628 188.98L257.75 192.286C257.972 192.298 258.18 192.395 258.331 192.558C258.481 192.72 258.562 192.935 258.556 193.157C258.545 193.378 258.447 193.586 258.284 193.736C258.121 193.887 257.906 193.967 257.684 193.961Z" fill="#9468B4"/>
<path d="M257.43 200.034L176.308 196.728C176.2 196.723 176.093 196.698 175.994 196.652C175.895 196.607 175.806 196.542 175.732 196.462C175.658 196.383 175.601 196.289 175.564 196.187C175.526 196.085 175.509 195.977 175.513 195.868C175.516 195.759 175.541 195.651 175.586 195.551C175.631 195.451 175.695 195.361 175.775 195.286C175.855 195.211 175.95 195.153 176.053 195.115C176.155 195.077 176.265 195.059 176.375 195.064L257.496 198.37C257.718 198.381 257.926 198.479 258.077 198.641C258.228 198.804 258.308 199.019 258.302 199.24C258.291 199.46 258.193 199.667 258.03 199.816C257.866 199.964 257.651 200.043 257.43 200.034Z" fill="#9468B4"/>
<path d="M257.176 206.117L176.065 202.811C175.955 202.806 175.847 202.78 175.747 202.734C175.647 202.688 175.556 202.623 175.482 202.542C175.407 202.461 175.349 202.366 175.31 202.263C175.272 202.16 175.255 202.05 175.259 201.94C175.271 201.719 175.369 201.511 175.531 201.361C175.694 201.21 175.91 201.13 176.132 201.136L257.243 204.442C257.353 204.446 257.461 204.472 257.561 204.518C257.661 204.564 257.751 204.629 257.826 204.71C257.901 204.791 257.959 204.886 257.997 204.989C258.036 205.092 258.053 205.202 258.048 205.312C258.044 205.422 258.018 205.53 257.972 205.63C257.926 205.73 257.86 205.82 257.779 205.895C257.698 205.97 257.603 206.028 257.5 206.066C257.396 206.104 257.286 206.121 257.176 206.117Z" fill="#9468B4"/>
<path d="M185.99 157.595L181.397 157.408L181.464 155.733L192.559 156.196L192.482 157.86L187.889 157.672L187.403 169.398L185.504 169.321L185.99 157.595Z" fill="#9468B4"/>
<path d="M196.99 153.24L177.322 152.431L176.512 172.063L196.179 172.872L196.99 153.24Z" stroke="#9468B4" stroke-width="0.5" stroke-miterlimit="10"/>
<path d="M219.298 138.972C219.298 138.972 215.986 140.492 215.544 141.374C215.103 142.256 211.415 152.063 211.713 153.353C212.011 154.642 217.995 156.24 218.856 155.92C219.717 155.601 223.129 144.305 223.118 142.884C223.107 141.462 219.298 138.972 219.298 138.972Z" fill="white"/>
<path d="M203.057 135.82C203.057 135.82 200.121 137.914 199.812 138.872C199.503 139.831 197.714 150.124 198.244 151.336C198.774 152.548 204.945 153.033 205.74 152.559C206.535 152.085 207.805 140.36 207.529 138.961C207.253 137.561 203.057 135.82 203.057 135.82Z" fill="white"/>
<path d="M232.888 72.6973C232.888 72.6973 227.875 78.2073 224.221 79.9264C224.221 79.9264 222.179 75.4523 223.117 72.6973C223.117 72.6973 216.769 76.3008 217.398 80.9402C218.028 85.5797 223.757 81.6125 223.757 81.6125C223.757 81.6125 228.626 86.0205 232.589 83.541C236.553 81.0615 235.67 75.4743 235.67 75.4743L232.888 72.6973Z" fill="#9468B4"/>
<path d="M223.835 86.5604C223.832 86.7836 223.741 86.9966 223.582 87.1533C223.423 87.3101 223.208 87.398 222.985 87.398C222.777 87.3743 222.586 87.2752 222.447 87.1198C222.308 86.9643 222.231 86.7633 222.231 86.5549C222.231 86.3466 222.308 86.1456 222.447 85.9901C222.586 85.8346 222.777 85.7356 222.985 85.7119C223.096 85.7119 223.207 85.7339 223.31 85.7765C223.413 85.8191 223.507 85.8816 223.586 85.9604C223.665 86.0392 223.727 86.1328 223.77 86.2357C223.813 86.3387 223.835 86.449 223.835 86.5604Z" fill="#9468B4"/>
<path d="M222.201 96.7431C222.201 96.911 222.151 97.075 222.058 97.2146C221.964 97.3541 221.832 97.4629 221.676 97.5271C221.521 97.5913 221.35 97.6081 221.185 97.5754C221.02 97.5426 220.869 97.4618 220.75 97.3432C220.631 97.2245 220.55 97.0733 220.517 96.9087C220.485 96.7441 220.501 96.5735 220.566 96.4184C220.63 96.2634 220.739 96.1309 220.879 96.0376C221.019 95.9444 221.183 95.8946 221.351 95.8946C221.463 95.8931 221.574 95.9141 221.678 95.9562C221.782 95.9983 221.876 96.0607 221.955 96.1398C222.035 96.2189 222.097 96.3131 222.139 96.4167C222.182 96.5203 222.203 96.6313 222.201 96.7431Z" fill="#9468B4"/>
<path d="M137.237 52.8391C136.519 51.2522 137.237 41.6538 137.237 41.6538C137.237 41.6538 149.072 35.4606 150.96 33.9398C152.847 32.4191 154.989 39.2625 153.797 40.6841C152.605 42.1056 149.072 47.4393 143.154 47.4393L142.359 55.2415L137.237 52.8391Z" fill="white"/>
<path d="M102.992 52.1999C106.679 53.0926 124.453 64.895 128.074 64.4983C131.696 64.1015 135.968 47.9683 135.968 47.9683L143.354 50.1723C143.354 50.1723 143.001 79.6067 136.244 82.7915C129.488 85.9762 101.711 79.9042 101.711 79.9042L102.992 52.1999Z" fill="#263238"/>
<path opacity="0.2" d="M143.342 50.1946C143.342 50.1946 143 79.64 136.243 82.8248C133.859 83.9268 128.891 83.9268 123.437 83.4199C116.135 82.6387 108.879 81.4763 101.699 79.9376L101.865 76.5655L102.969 52.2112C106.645 53.0818 124.42 64.8953 128.041 64.4875C131.662 64.0798 135.945 47.9575 135.945 47.9575L143.342 50.1946Z" fill="white"/>
<path opacity="0.2" d="M123.437 83.4199C116.135 82.6387 108.879 81.4763 101.699 79.9376L101.865 76.5654C102.605 73.2594 103.289 70.4053 103.289 70.4053C103.289 70.4053 123.327 74.7031 123.437 83.4199Z" fill="black"/>
<path d="M67.3767 304.635H56.9218C56.7487 304.634 56.5804 304.692 56.4456 304.801C56.3108 304.909 56.2177 305.061 56.1821 305.23L54.4819 312.944C54.4131 313.274 54.4778 313.618 54.6618 313.901C54.8458 314.184 55.1343 314.382 55.4645 314.454C55.5562 314.465 55.6488 314.465 55.7405 314.454C59.1519 314.399 61.6248 314.189 65.8973 314.189C68.5248 314.189 76.4626 314.465 80.0947 314.465C83.7269 314.465 84.2016 310.883 82.7223 310.553C76.0983 309.109 71.0309 307.092 68.8891 305.186C68.6862 304.999 68.4479 304.854 68.1883 304.759C67.9286 304.664 67.6528 304.622 67.3767 304.635Z" fill="#263238"/>
<path d="M111.967 304.36H101.457C101.284 304.359 101.115 304.417 100.981 304.526C100.846 304.634 100.753 304.786 100.717 304.955L99.0059 312.669C98.9374 313.001 99.0035 313.346 99.1898 313.629C99.3761 313.912 99.6673 314.11 99.9995 314.179C100.091 314.195 100.184 314.195 100.275 314.179C103.676 314.124 106.149 313.914 110.421 313.914C113.06 313.914 120.998 314.19 124.63 314.19C128.262 314.19 128.737 310.608 127.246 310.278C120.622 308.834 115.555 306.817 113.424 304.911C113.028 304.546 112.506 304.349 111.967 304.36Z" fill="#263238"/>
<path d="M115.974 305.627H100.419C100.419 305.627 98.9834 256.874 103.289 221.952C103.289 221.952 99.0165 201.014 95.285 181.31C93.353 171.139 91.5645 161.287 90.5709 154.796C86.6959 205.764 80.7784 220.266 80.7784 220.266C77.4664 272.258 70.5002 305.561 70.5002 305.561H54.713C53.2447 264.599 61.061 214.602 61.061 214.602C56.0488 156.714 55.7839 116.667 55.8612 110.65H116.846C121.174 134.453 133.45 210.249 115.974 305.627Z" fill="#9468B4"/>
<path d="M116.803 110.65H55.8066V116.149L117.575 115.576L116.803 110.65Z" fill="black"/>
<path d="M75.413 117.934H77.5879V108.181H75.413V117.934Z" fill="#9468B4"/>
<path d="M106.27 117.934H108.445V108.181H106.27V117.934Z" fill="#9468B4"/>
<path d="M88.9925 115.84H100.275V109.691H88.9925V115.84Z" fill="white"/>
<path d="M116.802 110.65H55.8172C55.5301 108.027 55.3204 103.344 55.1658 97.7348C55.0002 91.5305 54.8898 84.2022 54.8236 77.3147C54.7021 64.6968 54.7132 53.5777 54.7132 53.5777C54.7132 53.5777 62.4412 46.5028 81.2092 46.5579C88.9239 46.7267 96.4894 48.7129 103.289 52.3545C116.802 86.9683 116.802 110.65 116.802 110.65Z" fill="#263238"/>
<path d="M67.6084 49.4891C72.9297 54.4151 82.8215 55.9909 82.8215 55.9909C82.8215 55.9909 89.9202 52.2882 92.0399 49.3238C88.4519 46.5578 87.7012 46.3043 86.5199 44.2216C85.8822 42.9749 85.6286 41.5676 85.7913 40.1772C85.8504 39.4017 85.9685 38.6317 86.1446 37.874L67.6084 29.7964C70.247 35.5598 73.283 44.9489 67.6084 49.4891Z" fill="white"/>
<path opacity="0.2" d="M72.0459 35.2622C73.1499 42.4252 82.1254 44.0121 86.5193 44.2215C85.8816 42.9748 85.628 41.5675 85.7907 40.1771L72.0459 35.2622Z" fill="black"/>
<path d="M82.4241 8.66016C82.4241 8.66016 93.7622 12.8147 86.8401 25.2563C83.1307 31.8683 75.9326 10.7209 75.9326 10.7209L82.4241 8.66016Z" fill="#263238"/>
<path d="M72.4437 39.2735C74.2362 40.7155 76.453 41.5308 78.7542 41.5945C81.0555 41.6582 83.3141 40.9667 85.1839 39.6261C87.6393 37.9422 89.3542 35.3824 89.9752 32.4741C90.0684 32.0707 90.1384 31.6623 90.185 31.2509C91.0019 23.603 88.2861 11.5031 79.7632 9.266C77.8839 8.76156 75.9065 8.74556 74.0193 9.21952C72.132 9.69348 70.3976 10.6416 68.9812 11.9737C67.5648 13.3059 66.5134 14.9776 65.9272 16.83C65.341 18.6823 65.2394 20.6535 65.632 22.5561C67.1887 30.733 67.7076 35.6038 72.4437 39.2735Z" fill="white"/>
<path d="M78.4719 23.2503C78.4719 23.9225 78.9798 24.4184 79.4324 24.3523C79.8851 24.2862 80.15 23.7021 80.0727 23.0409C79.9955 22.3797 79.5539 21.8728 79.1122 21.9389C78.6706 22.005 78.3946 22.5671 78.4719 23.2503Z" fill="#263238"/>
<path d="M88.7168 23.3828C90.1323 23.9174 91.3157 24.9297 92.0618 26.2441C92.808 27.5585 93.0697 29.0921 92.8016 30.5789C91.5761 38.8219 82.0486 45.2245 72.4438 39.2737C63.8436 33.929 88.7168 23.3828 88.7168 23.3828Z" fill="white"/>
<path d="M86.078 22.2697C86.078 22.9419 86.5969 23.4378 87.0274 23.3717C87.458 23.3056 87.7561 22.7215 87.6678 22.0493C87.5794 21.3771 87.1489 20.8812 86.7183 20.9473C86.2878 21.0134 86.0007 21.6306 86.078 22.2697Z" fill="#263238"/>
<path d="M83.7041 22.9087C84.7715 24.8612 86.1053 26.6562 87.6675 28.2424C87.2462 28.6296 86.7456 28.9209 86.2004 29.0959C85.6553 29.271 85.0785 29.3257 84.51 29.2562L83.7041 22.9087Z" fill="#DDDDDD"/>
<path d="M88.4521 18.7872C88.3879 18.8229 88.3157 18.8417 88.2423 18.8417C88.1689 18.8417 88.0967 18.8229 88.0325 18.7872C87.6007 18.5372 87.1165 18.3912 86.6182 18.3606C86.12 18.33 85.6214 18.4157 85.1622 18.6109C85.1173 18.636 85.0679 18.652 85.0169 18.6578C84.9658 18.6637 84.9141 18.6593 84.8647 18.6449C84.8154 18.6305 84.7694 18.6065 84.7295 18.5742C84.6895 18.5418 84.6565 18.5019 84.6322 18.4566C84.6068 18.4111 84.5906 18.3609 84.5847 18.3091C84.5787 18.2573 84.583 18.2048 84.5973 18.1546C84.6117 18.1045 84.6358 18.0576 84.6683 18.0168C84.7008 17.976 84.7411 17.9419 84.7868 17.9166C85.362 17.6546 85.9913 17.533 86.6229 17.5617C87.2544 17.5905 87.8701 17.7688 88.419 18.0819C88.511 18.1332 88.5797 18.218 88.6106 18.3187C88.6414 18.4193 88.6321 18.528 88.5845 18.6219C88.5557 18.6877 88.51 18.7447 88.4521 18.7872Z" fill="#263238"/>
<path d="M76.5836 20.4182C76.5085 20.4442 76.4268 20.4442 76.3518 20.4182C76.2795 20.3424 76.2393 20.2418 76.2393 20.1372C76.2393 20.0326 76.2795 19.9319 76.3518 19.8562C76.7596 19.3719 77.279 18.9936 77.8655 18.7537C78.452 18.5137 79.088 18.4194 79.719 18.4786C79.8206 18.495 79.912 18.5501 79.9737 18.6323C80.0355 18.7145 80.0629 18.8175 80.0502 18.9195C80.0312 19.0218 79.9738 19.1131 79.8897 19.1746C79.8055 19.236 79.701 19.263 79.5975 19.25C79.1002 19.2126 78.601 19.2929 78.1405 19.4844C77.6801 19.6759 77.2715 19.9732 76.9479 20.3521C76.8976 20.3926 76.8379 20.42 76.7742 20.4315C76.7106 20.4431 76.645 20.4385 76.5836 20.4182Z" fill="#263238"/>
<path d="M70.3682 11.4922L71.3507 12.9138C68.8005 14.2802 69.8934 17.3218 70.6994 18.6442C72.4106 21.4763 71.5274 26.4904 69.5291 28.7826C69.5291 28.7826 69.22 27.4822 68.1602 27.9891C67.1003 28.4961 68.6349 35.2954 71.3838 38.1716C71.3838 38.1716 67.575 35.8023 64.4397 28.9369C61.5472 22.6004 58.997 16.3079 62.2317 11.4922H70.3682Z" fill="#263238"/>
<path d="M62.9051 29.7853C63.4766 30.6506 64.2135 31.3948 65.0736 31.9753C65.9336 32.5558 66.9 32.9613 67.9173 33.1685C70.6442 33.7085 71.7923 31.2179 70.8649 28.7605C70.0149 26.5565 67.553 23.6031 64.9254 24.1982C62.2979 24.7933 61.503 27.6254 62.9051 29.7853Z" fill="white"/>
<path d="M80.3815 12.3627C80.3815 12.3627 88.1647 7.23846 86.6853 3.31534C85.206 -0.607778 83.3733 4.31816 83.3733 4.31816C83.3733 4.31816 84.102 1.10033 81.8498 0.946047C79.5976 0.791767 80.5581 2.54393 79.5314 3.87735C78.5047 5.21077 66.6808 4.97935 63.2474 7.78945C59.814 10.5995 63.7111 18.2144 63.7111 18.2144C63.7111 18.2144 69.6948 9.68488 80.3815 12.3627Z" fill="#263238"/>
<path d="M85.3499 32.3861C84.6394 33.358 83.9976 34.3779 83.4289 35.4387L82.8217 35.2293C80.1058 34.2706 79.1674 32.9261 78.9466 31.7249C78.8519 31.1386 78.8973 30.5382 79.0791 29.9728C79.1743 29.6494 79.3156 29.3413 79.4986 29.0581C80.9085 30.3972 82.592 31.416 84.4335 32.0445C84.9966 32.2759 85.3499 32.3861 85.3499 32.3861Z" fill="#263238"/>
<path d="M84.4335 32.0445L83.8373 32.9261C81.2871 32.0225 79.609 31.0307 79.0791 29.9728C79.1743 29.6494 79.3156 29.3413 79.4986 29.0581C80.9085 30.3972 82.592 31.416 84.4335 32.0445Z" fill="white"/>
<path d="M82.8213 35.2295C80.1055 34.2707 79.1671 32.9263 78.9463 31.7251C79.9701 32.1143 80.9188 32.6773 81.7504 33.3891C82.2905 33.8765 82.6648 34.5198 82.8213 35.2295Z" fill="#DDDDDD"/>
<path d="M87.05 52.6849L84.577 59.2087L91.0354 92.6103L88.6287 96.2139L84.577 92.9299L82.3138 59.9691L76.2197 53.1146L82.3138 51.5498L87.05 52.6849Z" fill="#9468B4"/>
<path d="M70.0261 44.3428L82.424 50.3707L87.657 44.8277L93.7621 48.5194L89.6663 57.9965L82.8215 52.7841L78.0743 58.5475L65.5107 48.4422L70.0261 44.3428Z" fill="#263238"/>
<path opacity="0.2" d="M70.0261 44.3428L82.424 50.3707L87.657 44.8277L93.7621 48.5194L89.6663 57.9965L82.8215 52.7841L78.0743 58.5475L65.5107 48.4422L70.0261 44.3428Z" fill="white"/>
<path opacity="0.2" d="M55.1665 97.7348C55.0009 91.5305 54.8905 84.2022 54.8242 77.3147L60.002 72.9067C60.002 72.9067 60.7527 91.0126 55.1665 97.7348Z" fill="black"/>
<path opacity="0.2" d="M95.2854 181.311C93.3534 171.139 91.5649 161.287 90.5713 154.796C93.2701 151.876 95.1278 148.282 95.9478 144.394C95.9478 144.394 98.4649 164.141 95.2854 181.311Z" fill="black"/>
<path d="M26.0867 81.0395L17.7846 77.2156C17.7846 77.2156 15.1019 75.0997 13.3686 75.2761C11.6353 75.4524 0.716739 77.0282 0.120579 77.2156C-0.475581 77.4029 1.22458 84.6431 3.33322 84.3235C5.44186 84.0039 13.49 84.7092 14.5609 83.4639L24.2761 90.9685L26.0867 81.0395Z" fill="white"/>
<path d="M55.1105 53.3022C50.7608 53.7871 40.0961 78.4389 35.912 81.0065C31.7278 83.5742 21.7256 78.0091 21.7256 78.0091L17.3096 88.8197C17.3096 88.8197 33.7592 100.942 39.5552 99.9058C50.7828 97.9773 58.1245 82.0755 58.1245 82.0755C58.1245 82.0755 62.4411 68.6531 58.5992 58.4816C57.7871 56.5439 56.6018 54.7841 55.1105 53.3022Z" fill="#263238"/>
<path opacity="0.2" d="M55.1105 53.3022C50.7608 53.7871 40.0961 78.4389 35.912 81.0065C31.7278 83.5742 21.7256 78.0091 21.7256 78.0091L17.3096 88.8197C17.3096 88.8197 33.7592 100.942 39.5552 99.9058C50.7828 97.9773 58.1245 82.0755 58.1245 82.0755C58.1245 82.0755 62.4411 68.6531 58.5992 58.4816C57.7871 56.5439 56.6018 54.7841 55.1105 53.3022Z" fill="white"/>
</svg>
