<svg width="729" height="530" viewBox="0 0 729 530" fill="none" xmlns="http://www.w3.org/2000/svg">
<circle cx="157" cy="262" r="157" fill="#9468B4" fill-opacity="0.15"/>
<circle cx="625" cy="359" r="104" fill="#9468B4" fill-opacity="0.15"/>
<circle cx="483.5" cy="454.5" r="46.5" fill="#9468B4" fill-opacity="0.1"/>
<circle cx="556" cy="501" r="26" fill="#9468B4" fill-opacity="0.1"/>
<circle cx="303.5" cy="46.5" r="46.5" fill="#9468B4" fill-opacity="0.1"/>
<path d="M224.52 417.77L341.849 487.528C342.269 487.775 342.617 488.127 342.86 488.55C343.102 488.973 343.229 489.452 343.229 489.939C343.229 490.427 343.102 490.905 342.86 491.328C342.617 491.751 342.269 492.104 341.849 492.35L279.003 528.608C277.702 529.358 276.227 529.753 274.726 529.753C273.224 529.753 271.749 529.358 270.449 528.608L153.197 458.85C152.773 458.606 152.422 458.254 152.177 457.831C151.932 457.408 151.804 456.928 151.804 456.439C151.804 455.95 151.932 455.47 152.177 455.046C152.422 454.623 152.773 454.272 153.197 454.028L216.042 417.77C217.334 417.034 218.795 416.647 220.281 416.647C221.768 416.647 223.228 417.034 224.52 417.77Z" fill="#E0E0E0"/>
<path d="M440.106 275.29L641.468 391.49C642.897 392.315 644.518 392.749 646.168 392.749C647.819 392.749 649.44 392.315 650.869 391.49L663.515 384.192C664.011 383.908 664.422 383.498 664.709 383.004C664.995 382.509 665.146 381.948 665.146 381.377C665.146 380.806 664.995 380.244 664.709 379.75C664.422 379.256 664.011 378.846 663.515 378.562L462.294 262.439C460.829 261.588 459.165 261.141 457.472 261.141C455.778 261.141 454.114 261.588 452.649 262.439L440.131 269.66C439.634 269.941 439.221 270.35 438.932 270.843C438.643 271.336 438.49 271.896 438.487 272.467C438.485 273.039 438.633 273.601 438.917 274.096C439.201 274.592 439.611 275.004 440.106 275.29Z" fill="#E0E0E0"/>
<path d="M454.971 269.39L650.638 382.358C651.337 382.763 652.131 382.977 652.939 382.978C653.747 382.98 654.542 382.768 655.242 382.365C655.943 381.962 656.525 381.382 656.93 380.683C657.336 379.984 657.55 379.19 657.551 378.382V120.664C657.548 118.465 656.966 116.305 655.866 114.401C654.765 112.496 653.183 110.915 651.279 109.814L464.321 1.8351C463.373 1.28796 462.298 0.999937 461.204 1C460.109 1.00006 459.034 1.2882 458.087 1.83545C457.139 2.38271 456.352 3.16978 455.805 4.11755C455.258 5.06532 454.97 6.14039 454.971 7.23467V269.39Z" fill="#BA68C8"/>
<path opacity="0.5" d="M454.971 269.39L650.638 382.358C651.337 382.763 652.131 382.977 652.939 382.978C653.747 382.98 654.542 382.768 655.242 382.365C655.943 381.962 656.525 381.382 656.93 380.683C657.336 379.984 657.55 379.19 657.551 378.382V120.664C657.548 118.465 656.966 116.305 655.866 114.401C654.765 112.496 653.183 110.915 651.279 109.814L464.321 1.8351C463.373 1.28796 462.298 0.999937 461.204 1C460.109 1.00006 459.034 1.2882 458.087 1.83545C457.139 2.38271 456.352 3.16978 455.805 4.11755C455.258 5.06532 454.97 6.14039 454.971 7.23467V269.39Z" fill="white"/>
<path d="M460.512 281.228L639.929 384.807V122.921L460.512 19.3418V281.228Z" fill="#BA68C8"/>
<path opacity="0.8" d="M460.512 281.228L639.929 384.807V122.921L460.512 19.3418V281.228Z" fill="white"/>
<path d="M442.992 260.309L622.41 363.889L639.929 122.921L460.512 19.3418L442.992 260.309Z" fill="#BA68C8"/>
<path opacity="0.9" d="M442.992 260.309L622.41 363.889L639.929 122.921L460.512 19.3418L442.992 260.309Z" fill="white"/>
<path d="M460.512 19.3418L639.929 122.921L646.727 118.997L467.309 15.4043L460.512 19.3418Z" fill="#BA68C8"/>
<path opacity="0.7" d="M460.512 19.3418L639.929 122.921L646.727 118.997L467.309 15.4043L460.512 19.3418Z" fill="white"/>
<path d="M646.726 118.997V379.883L639.929 384.808V122.922L646.726 118.997Z" fill="#BA68C8"/>
<path d="M646.726 118.997V379.883L639.929 384.808V122.922L646.726 118.997Z" fill="#BA68C8"/>
<path opacity="0.7" d="M646.726 118.997V379.883L639.929 384.808V122.922L646.726 118.997Z" fill="white"/>
<path d="M590.551 156.909C590.393 156.928 590.234 156.928 590.076 156.909C589.805 156.835 589.555 156.699 589.346 156.512C589.137 156.325 588.974 156.092 588.871 155.832L583.535 142.429C583.362 141.985 583.372 141.49 583.562 141.053C583.751 140.616 584.106 140.272 584.548 140.095C584.767 140.005 585.001 139.96 585.238 139.962C585.474 139.964 585.708 140.013 585.925 140.106C586.142 140.199 586.338 140.335 586.503 140.504C586.667 140.674 586.796 140.875 586.883 141.095L591.32 152.24L616.856 131.963C617.041 131.809 617.256 131.695 617.486 131.625C617.717 131.556 617.959 131.534 618.198 131.561C618.438 131.587 618.669 131.661 618.879 131.779C619.089 131.896 619.274 132.055 619.421 132.245C619.571 132.432 619.683 132.647 619.751 132.877C619.818 133.107 619.839 133.348 619.813 133.586C619.786 133.825 619.713 134.056 619.598 134.266C619.482 134.476 619.326 134.661 619.139 134.81L591.705 156.614C591.365 156.842 590.958 156.946 590.551 156.909Z" fill="#BA68C8"/>
<path d="M560.732 128.013C560.418 128.013 560.109 127.933 559.834 127.782L484.291 84.1754C483.878 83.9356 483.577 83.5414 483.454 83.0796C483.331 82.6178 483.397 82.1262 483.637 81.7129C483.877 81.2996 484.271 80.9985 484.733 80.8758C485.195 80.7531 485.686 80.819 486.099 81.0588L561.642 124.666C561.99 124.862 562.263 125.168 562.418 125.537C562.572 125.905 562.599 126.315 562.495 126.7C562.39 127.086 562.16 127.426 561.841 127.666C561.521 127.906 561.131 128.033 560.732 128.026V128.013Z" fill="#BA68C8"/>
<path d="M559 143.519C558.684 143.52 558.374 143.436 558.102 143.276L482.56 99.6686C482.146 99.4287 481.845 99.0346 481.722 98.5728C481.6 98.111 481.666 97.6193 481.905 97.206C482.145 96.7928 482.539 96.4916 483.001 96.369C483.463 96.2463 483.955 96.3121 484.368 96.5519L559.911 140.159C560.259 140.355 560.532 140.661 560.686 141.03C560.841 141.398 560.868 141.808 560.763 142.194C560.659 142.579 560.429 142.919 560.109 143.159C559.79 143.399 559.4 143.526 559 143.519Z" fill="#BA68C8"/>
<path d="M602.594 176.546C601.776 176.545 600.972 176.333 600.26 175.93L576.905 163.015C575.22 162.092 573.839 160.701 572.929 159.01C572.019 157.318 571.617 155.4 571.774 153.485L573.993 127.437C574.068 126.631 574.343 125.857 574.793 125.186C575.244 124.514 575.856 123.967 576.573 123.593C577.29 123.219 578.089 123.031 578.898 123.046C579.707 123.061 580.499 123.278 581.201 123.679L605.762 137.864C606.928 138.544 607.88 139.535 608.512 140.727C609.144 141.919 609.431 143.264 609.341 144.61L607.34 172.07C607.28 172.87 607.02 173.641 606.582 174.314C606.145 174.986 605.546 175.538 604.839 175.917C604.152 176.305 603.382 176.52 602.594 176.546ZM578.854 126.641C578.55 126.64 578.256 126.752 578.031 126.957C577.806 127.161 577.665 127.442 577.636 127.744L575.417 153.793C575.312 155.009 575.561 156.228 576.134 157.305C576.708 158.382 577.582 159.269 578.649 159.86L602.004 172.788C602.185 172.88 602.385 172.928 602.588 172.928C602.791 172.928 602.991 172.88 603.172 172.788C603.35 172.691 603.501 172.551 603.611 172.381C603.721 172.211 603.786 172.015 603.8 171.813L605.801 144.354C605.845 143.683 605.702 143.014 605.387 142.42C605.072 141.827 604.598 141.332 604.018 140.993L579.444 126.808C579.268 126.697 579.063 126.639 578.854 126.641Z" fill="#BA68C8"/>
<path d="M555.396 192.193C555.08 192.193 554.77 192.109 554.498 191.949L478.955 148.342C478.542 148.103 478.241 147.708 478.118 147.247C477.995 146.785 478.061 146.293 478.301 145.88C478.541 145.467 478.935 145.165 479.397 145.043C479.859 144.92 480.35 144.986 480.763 145.226L556.306 188.833C556.655 189.029 556.928 189.335 557.082 189.704C557.236 190.072 557.264 190.482 557.159 190.867C557.055 191.253 556.824 191.593 556.505 191.833C556.186 192.073 555.795 192.2 555.396 192.193Z" fill="#BA68C8"/>
<path d="M553.664 207.686C553.349 207.686 553.039 207.602 552.766 207.443L477.224 163.836C477.019 163.717 476.84 163.559 476.696 163.371C476.552 163.183 476.447 162.968 476.387 162.74C476.326 162.511 476.311 162.273 476.342 162.038C476.373 161.804 476.451 161.578 476.57 161.373C476.688 161.168 476.846 160.989 477.034 160.846C477.222 160.702 477.437 160.597 477.665 160.536C477.894 160.475 478.132 160.46 478.367 160.492C478.601 160.523 478.827 160.6 479.032 160.719L554.575 204.326C554.923 204.522 555.196 204.828 555.351 205.197C555.505 205.565 555.532 205.975 555.428 206.361C555.323 206.746 555.093 207.086 554.773 207.326C554.454 207.566 554.064 207.693 553.664 207.686Z" fill="#BA68C8"/>
<path d="M597.258 240.712C596.442 240.708 595.64 240.501 594.924 240.109L571.568 227.181C569.883 226.259 568.501 224.868 567.59 223.177C566.68 221.485 566.28 219.566 566.438 217.651L568.747 191.654C568.818 190.847 569.091 190.071 569.541 189.397C569.991 188.724 570.603 188.175 571.321 187.8C572.039 187.426 572.84 187.238 573.65 187.255C574.46 187.272 575.253 187.492 575.955 187.896L600.516 202.081C601.681 202.758 602.634 203.747 603.266 204.937C603.899 206.127 604.185 207.47 604.094 208.814L602.093 236.248C602.003 237.46 601.459 238.592 600.569 239.42C599.68 240.247 598.511 240.709 597.297 240.712H597.258ZM573.518 190.807C573.321 190.81 573.128 190.859 572.954 190.948C572.77 191.041 572.613 191.179 572.498 191.35C572.384 191.521 572.315 191.718 572.299 191.923L570.029 217.959C569.924 219.174 570.173 220.394 570.747 221.471C571.32 222.548 572.194 223.435 573.261 224.026L596.617 236.954C596.794 237.056 596.996 237.11 597.2 237.11C597.405 237.11 597.607 237.056 597.784 236.954C597.965 236.861 598.119 236.722 598.229 236.551C598.34 236.38 598.403 236.183 598.412 235.979L600.413 208.519C600.457 207.849 600.314 207.18 599.999 206.586C599.684 205.992 599.21 205.498 598.63 205.159L574.057 190.974C573.895 190.872 573.709 190.815 573.518 190.807Z" fill="#BA68C8"/>
<path d="M585.895 220.486C585.737 220.505 585.578 220.505 585.42 220.486C585.15 220.412 584.9 220.277 584.691 220.09C584.481 219.903 584.318 219.67 584.215 219.409L578.879 206.019C578.741 205.582 578.775 205.11 578.974 204.698C579.173 204.285 579.522 203.965 579.949 203.801C580.376 203.637 580.85 203.643 581.274 203.817C581.697 203.99 582.038 204.319 582.227 204.736L586.703 215.766L612.2 195.502C612.578 195.248 613.037 195.145 613.486 195.215C613.936 195.284 614.343 195.52 614.626 195.876C614.909 196.232 615.048 196.681 615.014 197.135C614.98 197.589 614.777 198.013 614.445 198.323L587.011 220.127C586.69 220.368 586.297 220.495 585.895 220.486Z" fill="#BA68C8"/>
<path d="M550.073 256.36C549.757 256.361 549.447 256.276 549.175 256.116L473.619 212.509C473.223 212.26 472.938 211.867 472.826 211.413C472.713 210.958 472.781 210.478 473.015 210.073C473.249 209.667 473.632 209.369 474.082 209.239C474.531 209.11 475.014 209.16 475.428 209.379L550.97 252.986C551.318 253.182 551.59 253.487 551.745 253.854C551.899 254.222 551.927 254.63 551.825 255.015C551.722 255.4 551.494 255.739 551.177 255.981C550.859 256.222 550.471 256.351 550.073 256.347V256.36Z" fill="#BA68C8"/>
<path d="M548.341 271.865C548.021 271.864 547.708 271.78 547.43 271.621L471.888 228.014C471.683 227.896 471.504 227.738 471.36 227.55C471.217 227.362 471.111 227.147 471.051 226.918C470.99 226.69 470.975 226.451 471.006 226.217C471.038 225.982 471.115 225.756 471.234 225.552C471.352 225.347 471.51 225.168 471.698 225.024C471.886 224.881 472.101 224.775 472.329 224.715C472.558 224.654 472.796 224.639 473.031 224.67C473.265 224.702 473.491 224.779 473.696 224.898L549.239 268.505C549.582 268.704 549.851 269.01 550.003 269.377C550.155 269.744 550.182 270.151 550.08 270.535C549.978 270.918 549.752 271.258 549.438 271.501C549.124 271.743 548.738 271.876 548.341 271.878V271.865Z" fill="#BA68C8"/>
<path d="M591.923 304.879C591.11 304.883 590.31 304.675 589.602 304.276L566.182 291.348C564.498 290.425 563.117 289.034 562.206 287.342C561.296 285.651 560.895 283.733 561.052 281.818L563.283 255.782C563.35 254.976 563.62 254.2 564.069 253.527C564.517 252.854 565.13 252.306 565.849 251.935C566.567 251.562 567.368 251.376 568.177 251.394C568.986 251.412 569.777 251.633 570.479 252.037L595.04 266.222C596.204 266.903 597.154 267.895 597.784 269.087C598.414 270.279 598.699 271.624 598.605 272.969L596.604 300.428C596.542 301.227 596.281 301.998 595.844 302.671C595.407 303.343 594.809 303.895 594.103 304.276C593.434 304.645 592.687 304.852 591.923 304.879ZM568.183 254.987C567.987 254.986 567.794 255.03 567.619 255.115C567.44 255.214 567.287 255.354 567.173 255.524C567.06 255.693 566.988 255.887 566.964 256.09L564.746 282.126C564.639 283.342 564.887 284.562 565.461 285.639C566.035 286.716 566.909 287.603 567.978 288.193L591.346 301.121C591.522 301.221 591.721 301.276 591.923 301.278C592.126 301.281 592.326 301.231 592.505 301.135C592.683 301.039 592.834 300.899 592.943 300.728C593.052 300.557 593.116 300.361 593.129 300.159L595.129 272.686C595.177 272.016 595.035 271.345 594.72 270.751C594.404 270.157 593.929 269.663 593.347 269.326L568.747 255.141C568.573 255.047 568.38 254.994 568.183 254.987Z" fill="#BA68C8"/>
<path d="M590.667 108.095C589.317 108.1 587.99 107.751 586.819 107.082L554.639 88.9078C554.283 88.7071 554.007 88.3901 553.857 88.01C552.303 83.9962 549.525 80.5727 545.918 78.2241C544.636 77.4546 541.275 75.9283 539.505 78.5063C539.244 78.8674 538.86 79.1204 538.425 79.2173C537.99 79.3142 537.535 79.2483 537.145 79.0321L509.416 63.4618C507.858 62.5622 506.564 61.2686 505.663 59.7108C504.763 58.153 504.288 56.3858 504.286 54.5865V34.8607C504.288 32.7203 504.902 30.6251 506.057 28.8228C507.211 27.0205 508.858 25.5864 510.802 24.69C511.063 24.5691 511.35 24.513 511.638 24.5264C511.926 24.5397 512.207 24.6223 512.456 24.767L601.543 76.5311C601.832 76.6967 602.069 76.9396 602.229 77.2326C602.388 77.5255 602.462 77.857 602.443 78.1898C602.425 78.5226 602.314 78.8437 602.123 79.117C601.932 79.3904 601.669 79.6052 601.363 79.7375C600.516 80.109 599.796 80.7193 599.29 81.4938C598.784 82.2682 598.515 83.1733 598.516 84.0982V100.284C598.528 101.647 598.178 102.988 597.502 104.171C596.826 105.354 595.848 106.336 594.668 107.018C593.456 107.73 592.073 108.103 590.667 108.095ZM556.897 86.0734L588.602 103.939C589.24 104.301 589.962 104.488 590.695 104.483C591.429 104.478 592.148 104.281 592.782 103.911C593.415 103.541 593.94 103.011 594.305 102.375C594.67 101.738 594.861 101.018 594.861 100.284V84.0982C594.859 81.9053 595.721 79.7999 597.259 78.2369L511.456 28.3838C510.365 29.0653 509.462 30.0094 508.831 31.1296C508.199 32.2499 507.858 33.5106 507.839 34.7966V54.5865C507.84 55.7528 508.15 56.898 508.738 57.9052C509.326 58.9123 510.171 59.7455 511.186 60.3196L537.569 75.1844C540.07 72.9784 543.853 72.9015 547.675 75.1075C551.809 77.7213 555.031 81.5525 556.897 86.0734Z" fill="#BA68C8"/>
<path d="M368.808 313.959L353.418 408.073C353.305 408.761 352.952 409.386 352.421 409.837C351.89 410.288 351.216 410.536 350.519 410.536C350.106 410.537 349.697 410.45 349.32 410.282C348.942 410.114 348.605 409.868 348.329 409.561C348.053 409.253 347.845 408.891 347.718 408.498C347.592 408.105 347.55 407.689 347.595 407.278L358.419 310.188L368.808 313.959Z" fill="#263238"/>
<path d="M315.569 282.306L300.178 376.42C300.068 377.107 299.718 377.732 299.189 378.183C298.66 378.634 297.988 378.882 297.292 378.883C296.879 378.883 296.471 378.797 296.093 378.629C295.716 378.461 295.378 378.215 295.102 377.908C294.826 377.6 294.618 377.238 294.492 376.845C294.365 376.451 294.323 376.036 294.368 375.625L305.193 278.522L315.569 282.306Z" fill="#263238"/>
<path d="M392.483 291.95L407.707 373.059C407.848 373.675 408.219 374.214 408.744 374.565C409.269 374.916 409.909 375.053 410.532 374.948C411.154 374.844 411.714 374.504 412.095 374.001C412.476 373.497 412.65 372.866 412.581 372.238L401.346 297.068L392.483 291.95Z" fill="#263238"/>
<path d="M338.642 261.695L353.776 342.304C353.881 342.872 354.183 343.386 354.628 343.754C355.074 344.122 355.635 344.322 356.213 344.318C356.567 344.316 356.918 344.238 357.24 344.089C357.562 343.941 357.849 343.725 358.081 343.457C358.313 343.188 358.485 342.873 358.585 342.533C358.685 342.193 358.712 341.835 358.662 341.483L347.504 266.8L338.642 261.695Z" fill="#263238"/>
<path d="M343.016 255.565C346.521 254.027 349.555 251.587 351.808 248.493C354.061 245.399 355.453 241.763 355.841 237.955C358.291 213.266 366.987 162.374 396.473 179.317C432.846 200.222 419.828 260.951 414.531 280.421C413.347 284.807 411.045 288.811 407.849 292.041C401.27 298.672 387.662 310.074 364.524 319.77C361.68 320.967 358.513 321.157 355.546 320.308C344.003 317.038 314.017 306.97 299.037 287.821C298.187 286.735 297.801 285.356 297.965 283.986C298.128 282.616 298.827 281.367 299.909 280.511C305.924 275.688 319.622 266.043 343.016 255.565Z" fill="#BA68C8"/>
<path opacity="0.5" d="M343.016 255.565C346.521 254.027 349.555 251.587 351.808 248.493C354.061 245.399 355.453 241.763 355.841 237.955C358.291 213.266 366.987 162.374 396.473 179.317C432.846 200.222 419.828 260.951 414.531 280.421C413.347 284.807 411.045 288.811 407.849 292.041C401.27 298.672 387.662 310.074 364.524 319.77C361.68 320.967 358.513 321.157 355.546 320.308C344.003 317.038 314.017 306.97 299.037 287.821C298.187 286.735 297.801 285.356 297.965 283.986C298.128 282.616 298.827 281.367 299.909 280.511C305.924 275.688 319.622 266.043 343.016 255.565Z" fill="black"/>
<path d="M297.908 284.345C297.831 285.596 298.214 286.833 298.986 287.821C299.794 288.847 300.64 289.834 301.551 290.809C302.025 291.335 302.526 291.861 303.026 292.374C303.526 292.887 304.039 293.387 304.552 293.875L306.13 295.337C306.668 295.824 307.22 296.299 307.771 296.773C316.262 303.904 326.574 309.329 335.782 313.254L337.488 313.959L337.668 314.036L339.232 314.665L339.515 314.78L340.977 315.357L341.31 315.486L342.682 315.999L343.067 316.14C343.503 316.307 343.914 316.46 344.35 316.602L344.799 316.768L345.966 317.179L346.453 317.345L347.531 317.717L348.044 317.897L349.018 318.218L349.57 318.397L350.455 318.679L351.045 318.872L351.801 319.102L352.443 319.308L353.071 319.5L353.854 319.731L354.251 319.846L355.354 320.167C358.321 321.015 361.488 320.825 364.332 319.628C387.418 309.932 401.077 298.53 407.657 291.899C410.853 288.67 413.155 284.666 414.339 280.279C419.636 260.81 432.654 200.081 396.281 179.175C395.627 178.803 394.998 178.47 394.37 178.175C394.237 178.099 394.1 178.03 393.959 177.97C393.344 177.675 392.741 177.418 392.151 177.187L391.971 177.123C391.394 176.905 390.843 176.725 390.278 176.559L390.022 176.482C389.432 176.315 388.842 176.187 388.265 176.071H388.111C386.96 175.861 385.791 175.775 384.622 175.815C383.507 175.853 382.4 176.025 381.326 176.328C387.136 173.763 394.229 173.878 401.257 177.918C437.643 198.824 424.612 259.54 419.328 279.022L418.43 282.357C416.671 289.155 412.7 295.174 407.144 299.466L397.704 306.687C387.496 314.392 376.335 320.746 364.499 325.592C361.655 326.787 358.49 326.982 355.521 326.144C343.978 322.873 313.979 312.818 298.998 293.656C298.36 292.838 297.984 291.845 297.921 290.809V284.396L297.908 284.345Z" fill="#BA68C8"/>
<path opacity="0.6" d="M297.908 284.345C297.831 285.596 298.214 286.833 298.986 287.821C299.794 288.847 300.64 289.834 301.551 290.809C302.025 291.335 302.526 291.861 303.026 292.374C303.526 292.887 304.039 293.387 304.552 293.875L306.13 295.337C306.668 295.824 307.22 296.299 307.771 296.773C316.262 303.904 326.574 309.329 335.782 313.254L337.488 313.959L337.668 314.036L339.232 314.665L339.515 314.78L340.977 315.357L341.31 315.486L342.682 315.999L343.067 316.14C343.503 316.307 343.914 316.46 344.35 316.602L344.799 316.768L345.966 317.179L346.453 317.345L347.531 317.717L348.044 317.897L349.018 318.218L349.57 318.397L350.455 318.679L351.045 318.872L351.801 319.102L352.443 319.308L353.071 319.5L353.854 319.731L354.251 319.846L355.354 320.167C358.321 321.015 361.488 320.825 364.332 319.628C387.418 309.932 401.077 298.53 407.657 291.899C410.853 288.67 413.155 284.666 414.339 280.279C419.636 260.81 432.654 200.081 396.281 179.175C395.627 178.803 394.998 178.47 394.37 178.175C394.237 178.099 394.1 178.03 393.959 177.97C393.344 177.675 392.741 177.418 392.151 177.187L391.971 177.123C391.394 176.905 390.843 176.725 390.278 176.559L390.022 176.482C389.432 176.315 388.842 176.187 388.265 176.071H388.111C386.96 175.861 385.791 175.775 384.622 175.815C383.507 175.853 382.4 176.025 381.326 176.328C387.136 173.763 394.229 173.878 401.257 177.918C437.643 198.824 424.612 259.54 419.328 279.022L418.43 282.357C416.671 289.155 412.7 295.174 407.144 299.466L397.704 306.687C387.496 314.392 376.335 320.746 364.499 325.592C361.655 326.787 358.49 326.982 355.521 326.144C343.978 322.873 313.979 312.818 298.998 293.656C298.36 292.838 297.984 291.845 297.921 290.809V284.396L297.908 284.345Z" fill="black"/>
<path d="M345.735 500.956C346.673 501.431 347.71 501.678 348.762 501.678C349.813 501.678 350.85 501.431 351.789 500.956C353.469 499.994 353.469 498.391 351.789 497.467C350.852 496.987 349.814 496.736 348.762 496.736C347.709 496.736 346.671 496.987 345.735 497.467C344.068 498.429 344.068 499.994 345.735 500.956Z" fill="#37474F"/>
<path d="M344.465 499.109H353.032V396.043H344.465V499.109Z" fill="#37474F"/>
<path d="M443.056 443.792C443.994 444.267 445.031 444.514 446.082 444.514C447.134 444.514 448.171 444.267 449.109 443.792C450.789 442.818 450.789 441.227 449.109 440.291C448.171 439.817 447.134 439.569 446.082 439.569C445.031 439.569 443.994 439.817 443.056 440.291C441.427 441.253 441.427 442.818 443.056 443.792Z" fill="#263238"/>
<path d="M441.837 441.945H450.404V338.879H441.837V441.945Z" fill="#263238"/>
<path d="M186.133 408.484C187.07 408.964 188.107 409.215 189.16 409.215C190.213 409.215 191.25 408.964 192.187 408.484C193.867 407.522 193.867 405.919 192.187 404.995C191.249 404.521 190.212 404.273 189.16 404.273C188.109 404.273 187.072 404.521 186.133 404.995C184.466 405.957 184.466 407.522 186.133 408.484Z" fill="#37474F"/>
<path d="M184.863 406.649H193.431V303.583H184.863V406.649Z" fill="#37474F"/>
<path d="M290.802 330.491C291.642 330.921 292.572 331.145 293.515 331.145C294.458 331.145 295.388 330.921 296.228 330.491C296.554 330.379 296.836 330.168 297.037 329.887C297.237 329.607 297.345 329.271 297.345 328.926C297.345 328.581 297.237 328.245 297.037 327.965C296.836 327.684 296.554 327.473 296.228 327.361C295.388 326.931 294.458 326.707 293.515 326.707C292.572 326.707 291.642 326.931 290.802 327.361C290.476 327.473 290.194 327.684 289.993 327.965C289.793 328.245 289.686 328.581 289.686 328.926C289.686 329.271 289.793 329.607 289.993 329.887C290.194 330.168 290.476 330.379 290.802 330.491Z" fill="#455A64"/>
<path d="M289.661 328.85H297.344V242.841H289.661V328.85Z" fill="#455A64"/>
<path d="M450.404 321.809V342.317L348.748 401.007V380.499L450.404 321.809Z" fill="#263238"/>
<path d="M184.876 285.884L348.749 380.498V401.006L184.876 306.392V285.884Z" fill="#37474F"/>
<path d="M286.532 227.193L450.404 321.808L348.749 380.498L184.876 285.883L286.532 227.193Z" fill="#455A64"/>
<path opacity="0.2" d="M287.045 328.618L211.669 285.101C211.488 284.996 211.337 284.846 211.233 284.664C211.128 284.483 211.073 284.278 211.073 284.068C211.073 283.859 211.128 283.654 211.233 283.472C211.337 283.291 211.488 283.141 211.669 283.036L226.174 274.661C226.358 274.564 226.563 274.514 226.771 274.514C226.979 274.514 227.183 274.564 227.367 274.661L302.743 318.178C302.921 318.284 303.069 318.434 303.171 318.614C303.274 318.794 303.328 318.997 303.328 319.204C303.328 319.411 303.274 319.615 303.171 319.795C303.069 319.974 302.921 320.125 302.743 320.23L288.225 328.618C288.045 328.719 287.841 328.772 287.635 328.772C287.428 328.772 287.225 328.719 287.045 328.618Z" fill="black"/>
<path d="M359.214 362.876L315.248 337.225C315.15 337.167 315.068 337.085 315.011 336.986C314.955 336.887 314.925 336.775 314.925 336.66C314.925 336.546 314.955 336.434 315.011 336.335C315.068 336.236 315.15 336.154 315.248 336.096L363.985 306.059L359.214 362.876Z" fill="#BA68C8"/>
<path opacity="0.4" d="M359.214 362.876L315.248 337.225C315.15 337.167 315.068 337.085 315.011 336.986C314.955 336.887 314.925 336.775 314.925 336.66C314.925 336.546 314.955 336.434 315.011 336.335C315.068 336.236 315.15 336.154 315.248 336.096L363.985 306.059L359.214 362.876Z" fill="black"/>
<path d="M359.214 362.875L408.233 334.492V321.59L359.214 349.857V362.875Z" fill="#BA68C8"/>
<path opacity="0.2" d="M359.214 362.875L408.233 334.492V321.59L359.214 349.857V362.875Z" fill="black"/>
<path d="M398.666 336.481L379.312 347.652C378.029 348.396 376.978 347.652 376.978 345.895C376.992 345.022 377.211 344.165 377.617 343.392C378.022 342.62 378.602 341.952 379.312 341.444L398.666 330.26C399.948 329.516 401 330.26 401 332.03C400.988 332.903 400.771 333.761 400.365 334.535C399.959 335.308 399.377 335.975 398.666 336.481Z" fill="#E6E6E6"/>
<path d="M374.144 347.536C374.095 348.47 373.825 349.379 373.357 350.188C372.889 350.997 372.235 351.684 371.45 352.192C369.962 353.051 368.757 352.358 368.757 350.64C368.808 349.707 369.078 348.799 369.546 347.99C370.014 347.181 370.667 346.493 371.45 345.984C372.938 345.125 374.144 345.817 374.144 347.536Z" fill="#E6E6E6"/>
<path d="M359.214 349.858L315.427 329.273C315.319 329.221 315.228 329.141 315.161 329.042C315.095 328.943 315.056 328.827 315.05 328.708C315.043 328.589 315.069 328.47 315.124 328.364C315.179 328.258 315.262 328.169 315.363 328.106L362.343 300.171C362.607 300.013 362.906 299.925 363.213 299.913C363.521 299.902 363.826 299.969 364.1 300.107L408.233 321.59L359.214 349.858Z" fill="#BA68C8"/>
<path d="M318.249 330.594V336.134L354.52 356.655V347.652L318.249 330.594Z" fill="#F5F5F5"/>
<path d="M354.52 356.655L359.214 353.718V349.857L354.52 347.651V356.655Z" fill="#E0E0E0"/>
<path d="M315.043 323.937V309.649H394.985C395.254 309.649 403.835 314.126 407.631 316.062C407.802 316.156 407.945 316.295 408.044 316.463C408.144 316.631 408.196 316.822 408.196 317.018C408.196 317.213 408.144 317.405 408.044 317.573C407.945 317.741 407.802 317.879 407.631 317.973L360.292 344.792C359.957 344.975 359.584 345.076 359.203 345.088C358.822 345.099 358.443 345.019 358.099 344.856L315.043 323.937Z" fill="#BA68C8"/>
<path opacity="0.4" d="M315.043 323.937V309.649H394.985C395.254 309.649 403.835 314.126 407.631 316.062C407.802 316.156 407.945 316.295 408.044 316.463C408.144 316.631 408.196 316.822 408.196 317.018C408.196 317.213 408.144 317.405 408.044 317.573C407.945 317.741 407.802 317.879 407.631 317.973L360.292 344.792C359.957 344.975 359.584 345.076 359.203 345.088C358.822 345.099 358.443 345.019 358.099 344.856L315.043 323.937Z" fill="black"/>
<path d="M359.214 341.405L404.565 315.908V310.367L359.214 334.492V341.405Z" fill="#E0E0E0"/>
<path d="M315.043 323.937L326.907 316.999L315.043 309.624V323.937Z" fill="#BA68C8"/>
<path opacity="0.6" d="M315.043 323.937L326.907 316.999L315.043 309.624V323.937Z" fill="black"/>
<path d="M322.533 314.279V322.18L359.214 341.405V334.492L322.533 314.279Z" fill="#F5F5F5"/>
<path d="M315.043 309.65L357.688 335.07C358.155 335.349 358.685 335.504 359.228 335.52C359.772 335.535 360.31 335.412 360.792 335.16L407.798 310.535C407.964 310.445 408.104 310.313 408.204 310.153C408.304 309.993 408.361 309.809 408.369 309.62C408.377 309.432 408.335 309.244 408.248 309.076C408.162 308.908 408.033 308.765 407.875 308.662L364.96 280.767L315.043 309.65Z" fill="#BA68C8"/>
<path d="M332.755 279.638V282.588L313.876 293.246V290.296L332.755 279.638Z" fill="#BA68C8"/>
<path opacity="0.2" d="M332.755 279.638V282.588L313.876 293.246V290.296L332.755 279.638Z" fill="white"/>
<path d="M270.795 265.401L313.876 290.296V293.246L270.795 268.351V265.401Z" fill="#BA68C8"/>
<path opacity="0.4" d="M270.795 265.401L313.876 290.296V293.246L270.795 268.351V265.401Z" fill="white"/>
<path d="M289.674 254.743L332.755 279.638L313.876 290.296L270.795 265.401L289.674 254.743Z" fill="#BA68C8"/>
<path opacity="0.6" d="M289.674 254.743L332.755 279.638L313.876 290.296L270.795 265.401L289.674 254.743Z" fill="white"/>
<path d="M298.189 307.366L300.113 308.482V311.996C301.355 312.003 302.574 311.67 303.64 311.034L303.781 310.944C304.224 310.68 304.608 310.328 304.912 309.912C305.217 309.496 305.434 309.022 305.551 308.52C305.62 308.305 305.654 308.08 305.654 307.853V303.057L298.189 307.366Z" fill="#E0E0E0"/>
<path d="M214.374 177.789L214.528 177.7C215.597 177.069 216.815 176.737 218.055 176.738C218.447 176.731 218.834 176.833 219.171 177.033L302.294 224.821C303.315 225.412 304.163 226.261 304.753 227.283C305.342 228.305 305.653 229.464 305.654 230.644V303.057L298.19 307.366L219.235 261.977C218.214 261.386 217.366 260.536 216.776 259.515C216.187 258.493 215.876 257.334 215.875 256.154V181.073H212.515C212.517 180.412 212.689 179.762 213.014 179.187C213.34 178.612 213.808 178.131 214.374 177.789Z" fill="#E6E6E6"/>
<path d="M304.937 227.63C305.407 228.565 305.653 229.597 305.655 230.644V303.057L298.191 307.367L295.395 305.802V233.594L304.937 227.63Z" fill="#E0E0E0"/>
<path d="M302.294 304.994V309.803C302.292 310.19 302.188 310.568 301.994 310.902C301.799 311.236 301.521 311.512 301.186 311.705C300.851 311.897 300.471 311.998 300.085 311.997C299.699 311.997 299.319 311.895 298.985 311.702L215.875 263.913C214.854 263.322 214.006 262.473 213.416 261.451C212.826 260.429 212.515 259.27 212.515 258.091V253.217L302.294 304.994Z" fill="#F0F0F0"/>
<path d="M212.515 180.88C212.515 180.493 212.616 180.113 212.81 179.777C213.004 179.442 213.282 179.163 213.617 178.97C213.953 178.776 214.333 178.674 214.721 178.674C215.108 178.674 215.488 178.776 215.824 178.969L298.934 226.77C299.956 227.359 300.806 228.208 301.396 229.23C301.986 230.253 302.296 231.413 302.294 232.593V304.994L212.515 253.165" fill="#F0F0F0"/>
<path d="M260.367 265.388L244.527 257.385L248.401 254.743L263.65 262.759L260.367 265.388Z" fill="#E0E0E0"/>
<path d="M244.528 257.372L235.37 293.771C235.23 294.335 235.279 294.93 235.511 295.464C235.743 295.997 236.144 296.439 236.653 296.721L255.584 307.366C255.584 307.366 261.471 265.94 260.38 265.388L244.528 257.372Z" fill="#E6E6E6"/>
<path d="M265.549 299.222L259.033 295.271L257.776 304.108L265.549 299.222Z" fill="#F0F0F0"/>
<path d="M260.368 265.388L254.52 305.379C254.464 305.743 254.516 306.115 254.67 306.45C254.824 306.784 255.072 307.067 255.385 307.262C255.697 307.457 256.06 307.556 256.428 307.547C256.796 307.539 257.154 307.422 257.457 307.213L264.972 302.082C265.245 301.901 265.468 301.655 265.622 301.366C265.777 301.077 265.857 300.755 265.857 300.428V299.658C265.858 299.552 265.829 299.448 265.775 299.357C265.72 299.266 265.641 299.192 265.547 299.143C265.453 299.094 265.347 299.072 265.241 299.079C265.135 299.086 265.033 299.122 264.947 299.184L257.816 304.07L263.69 262.733L260.368 265.388Z" fill="#E0E0E0"/>
<path d="M259.957 245.008C259.957 248.509 257.495 249.933 254.455 248.176C252.858 247.131 251.529 245.725 250.576 244.072C249.622 242.419 249.071 240.565 248.966 238.659C248.966 235.158 251.428 233.734 254.455 235.491C256.056 236.533 257.389 237.938 258.345 239.592C259.301 241.245 259.853 243.101 259.957 245.008Z" fill="#E0E0E0"/>
<path d="M198.009 443.575L248.376 414.73L208.385 392.683L159.776 421.297L198.009 443.575Z" fill="white"/>
<path d="M199.753 438.765C199.673 438.762 199.594 438.74 199.523 438.701L170.28 421.656C170.222 421.631 170.169 421.593 170.126 421.547C170.083 421.5 170.05 421.444 170.031 421.384C170.011 421.323 170.004 421.259 170.01 421.196C170.017 421.133 170.037 421.072 170.069 421.017C170.101 420.962 170.144 420.914 170.196 420.877C170.248 420.84 170.307 420.815 170.37 420.802C170.432 420.79 170.496 420.791 170.558 420.806C170.62 420.82 170.679 420.847 170.729 420.886L199.971 437.906C200.023 437.935 200.068 437.974 200.105 438.021C200.141 438.068 200.168 438.121 200.183 438.179C200.199 438.236 200.203 438.296 200.195 438.354C200.187 438.413 200.168 438.47 200.138 438.521C200.102 438.593 200.047 438.653 199.979 438.696C199.911 438.738 199.834 438.762 199.753 438.765Z" fill="#E0E0E0"/>
<path d="M204.499 435.854C204.428 435.872 204.353 435.872 204.281 435.854L175.077 418.744C175.027 418.715 174.983 418.676 174.949 418.63C174.914 418.584 174.888 418.531 174.874 418.475C174.86 418.419 174.857 418.361 174.865 418.303C174.874 418.246 174.893 418.191 174.923 418.142C174.951 418.09 174.989 418.045 175.035 418.009C175.081 417.973 175.133 417.946 175.19 417.931C175.246 417.915 175.304 417.911 175.362 417.919C175.42 417.926 175.476 417.945 175.526 417.975L204.781 435.02C204.883 435.081 204.957 435.181 204.986 435.296C205.015 435.411 204.996 435.534 204.935 435.636C204.893 435.711 204.828 435.772 204.751 435.811C204.673 435.85 204.585 435.865 204.499 435.854Z" fill="#E0E0E0"/>
<path d="M209.219 433.07C209.148 433.089 209.073 433.089 209.001 433.07L179.746 415.973C179.644 415.912 179.571 415.813 179.542 415.697C179.513 415.582 179.531 415.459 179.592 415.357C179.62 415.306 179.658 415.261 179.704 415.225C179.75 415.189 179.802 415.162 179.858 415.147C179.915 415.131 179.973 415.127 180.031 415.135C180.089 415.142 180.145 415.161 180.195 415.191L209.45 432.249C209.538 432.295 209.608 432.371 209.647 432.462C209.687 432.554 209.693 432.656 209.666 432.752C209.639 432.848 209.58 432.932 209.499 432.99C209.418 433.048 209.319 433.076 209.219 433.07Z" fill="#E0E0E0"/>
<path d="M214.029 430.21C213.948 430.206 213.869 430.184 213.798 430.145L184.556 413.1C184.454 413.039 184.38 412.94 184.349 412.826C184.318 412.711 184.332 412.589 184.389 412.485C184.418 412.433 184.457 412.387 184.505 412.351C184.552 412.315 184.606 412.289 184.664 412.275C184.721 412.26 184.781 412.258 184.84 412.267C184.899 412.277 184.955 412.299 185.005 412.331L214.247 429.376C214.298 429.404 214.343 429.442 214.379 429.488C214.416 429.533 214.442 429.586 214.458 429.642C214.473 429.698 214.477 429.757 214.47 429.815C214.462 429.873 214.443 429.928 214.414 429.979C214.376 430.048 214.32 430.105 214.252 430.146C214.185 430.186 214.108 430.208 214.029 430.21Z" fill="#E0E0E0"/>
<path d="M218.826 427.261C218.749 427.259 218.673 427.237 218.608 427.196L189.353 410.151C189.251 410.09 189.177 409.991 189.148 409.875C189.119 409.76 189.137 409.638 189.199 409.536C189.226 409.484 189.265 409.439 189.311 409.403C189.357 409.367 189.41 409.341 189.466 409.327C189.523 409.312 189.582 409.31 189.64 409.319C189.697 409.329 189.752 409.35 189.801 409.382L219.057 426.427C219.107 426.456 219.15 426.495 219.185 426.541C219.22 426.587 219.246 426.64 219.26 426.696C219.274 426.752 219.277 426.811 219.269 426.868C219.26 426.925 219.241 426.98 219.211 427.03C219.172 427.099 219.117 427.156 219.049 427.197C218.982 427.237 218.905 427.259 218.826 427.261Z" fill="#E0E0E0"/>
<path d="M223.635 424.349C223.554 424.346 223.475 424.324 223.404 424.285L194.162 407.24C194.104 407.215 194.051 407.177 194.008 407.131C193.965 407.084 193.932 407.028 193.912 406.968C193.892 406.907 193.885 406.843 193.892 406.78C193.899 406.717 193.919 406.656 193.951 406.601C193.983 406.546 194.026 406.498 194.078 406.461C194.13 406.424 194.189 406.399 194.251 406.386C194.314 406.374 194.378 406.375 194.44 406.39C194.502 406.404 194.56 406.431 194.611 406.47L223.853 423.515C223.904 423.543 223.949 423.581 223.986 423.627C224.022 423.673 224.049 423.725 224.064 423.781C224.08 423.838 224.084 423.896 224.076 423.954C224.069 424.012 224.05 424.068 224.02 424.118C223.981 424.186 223.925 424.243 223.858 424.283C223.79 424.324 223.714 424.346 223.635 424.349Z" fill="#E0E0E0"/>
<path d="M228.432 421.437C228.355 421.435 228.28 421.413 228.214 421.373L198.959 404.328C198.857 404.266 198.783 404.167 198.755 404.052C198.726 403.936 198.744 403.814 198.805 403.712C198.834 403.662 198.873 403.618 198.919 403.583C198.965 403.548 199.018 403.523 199.074 403.509C199.13 403.494 199.189 403.491 199.246 403.5C199.303 403.508 199.358 403.528 199.408 403.558L228.663 420.603C228.713 420.632 228.757 420.671 228.792 420.717C228.827 420.764 228.852 420.816 228.866 420.873C228.881 420.929 228.884 420.987 228.875 421.044C228.867 421.102 228.847 421.157 228.817 421.206C228.781 421.277 228.726 421.336 228.658 421.377C228.59 421.418 228.512 421.438 228.432 421.437Z" fill="#E0E0E0"/>
<path d="M233.241 418.526C233.16 418.522 233.081 418.5 233.01 418.462L203.768 401.416C203.709 401.391 203.656 401.354 203.613 401.307C203.57 401.26 203.538 401.205 203.518 401.145C203.498 401.084 203.491 401.02 203.498 400.957C203.504 400.894 203.524 400.832 203.556 400.777C203.588 400.722 203.632 400.675 203.684 400.638C203.735 400.601 203.794 400.576 203.857 400.563C203.919 400.551 203.984 400.552 204.046 400.566C204.108 400.581 204.166 400.608 204.216 400.647L233.459 417.692C233.51 417.721 233.556 417.76 233.592 417.807C233.628 417.854 233.655 417.908 233.671 417.965C233.686 418.022 233.69 418.082 233.682 418.141C233.675 418.2 233.655 418.256 233.626 418.308C233.586 418.374 233.529 418.429 233.462 418.467C233.394 418.506 233.318 418.526 233.241 418.526Z" fill="#E0E0E0"/>
<path d="M238.038 415.615C237.961 415.613 237.885 415.591 237.82 415.551L208.564 398.505C208.462 398.444 208.389 398.345 208.36 398.229C208.331 398.114 208.349 397.992 208.411 397.89C208.44 397.84 208.478 397.796 208.525 397.761C208.571 397.726 208.624 397.701 208.68 397.686C208.736 397.672 208.794 397.669 208.852 397.678C208.909 397.686 208.964 397.706 209.013 397.736L238.269 414.82C238.371 414.881 238.444 414.98 238.473 415.095C238.502 415.211 238.484 415.333 238.422 415.435C238.379 415.495 238.321 415.544 238.253 415.575C238.186 415.606 238.112 415.62 238.038 415.615Z" fill="#E0E0E0"/>
<path d="M159.931 421.155L198.151 443.433V477.678L159.931 456.567V421.155Z" fill="#FAFAFA"/>
<path d="M198.15 443.433L248.517 414.588V448.435L198.15 477.677V443.433Z" fill="#E6E6E6"/>
<path d="M189.929 446.78L198.15 451.577L215.939 441.394L198.15 454.181L189.929 446.78Z" fill="#E0E0E0"/>
<path d="M189.929 458.696L198.15 463.493L208.205 457.747L198.15 466.097L189.929 458.696Z" fill="#E0E0E0"/>
<path d="M202.935 453.181L209.219 455.053L214.029 447.781L202.935 453.181Z" fill="#E0E0E0"/>
<path d="M202.935 453.181L221.904 442.382L212.426 453.181H202.935Z" fill="white"/>
<path d="M231.33 429.967L235.781 431.3L239.179 426.145L231.33 429.967Z" fill="#E0E0E0"/>
<path d="M231.33 429.966L244.758 422.322L238.038 429.966H231.33Z" fill="white"/>
<path d="M221.724 455.426L226.174 456.759L229.573 451.604L221.724 455.426Z" fill="#E0E0E0"/>
<path d="M221.724 455.425L235.152 447.781L228.431 455.425H221.724Z" fill="white"/>
<path d="M275.976 522.272L232.01 496.621C231.911 496.564 231.83 496.481 231.773 496.382C231.716 496.283 231.687 496.171 231.687 496.057C231.687 495.943 231.716 495.831 231.773 495.732C231.83 495.633 231.911 495.55 232.01 495.493L280.747 465.455L275.976 522.272Z" fill="#BA68C8"/>
<path opacity="0.4" d="M275.976 522.272L232.01 496.621C231.911 496.564 231.83 496.481 231.773 496.382C231.716 496.283 231.687 496.171 231.687 496.057C231.687 495.943 231.716 495.831 231.773 495.732C231.83 495.633 231.911 495.55 232.01 495.493L280.747 465.455L275.976 522.272Z" fill="black"/>
<path d="M275.977 522.272L324.996 493.889V480.986L275.977 509.254V522.272Z" fill="#BA68C8"/>
<path opacity="0.2" d="M275.977 522.272L324.996 493.889V480.986L275.977 509.254V522.272Z" fill="black"/>
<path d="M315.428 495.877L296.074 507.061C294.792 507.805 293.74 507.061 293.74 505.291C293.752 504.418 293.97 503.56 294.375 502.787C294.781 502.014 295.363 501.347 296.074 500.841L315.428 489.67C316.711 488.926 317.763 489.67 317.763 491.427C317.748 492.299 317.529 493.156 317.124 493.929C316.718 494.702 316.138 495.369 315.428 495.877Z" fill="#E6E6E6"/>
<path d="M290.892 506.933C290.842 507.868 290.571 508.777 290.103 509.588C289.635 510.399 288.983 511.089 288.199 511.601C286.724 512.46 285.519 511.755 285.519 510.049C285.569 509.116 285.838 508.207 286.303 507.396C286.769 506.585 287.418 505.895 288.199 505.381C289.687 504.521 290.892 505.214 290.892 506.933Z" fill="#E6E6E6"/>
<path d="M275.977 509.254L232.177 488.669C232.073 488.613 231.985 488.53 231.924 488.429C231.863 488.327 231.831 488.211 231.831 488.092C231.831 487.974 231.863 487.857 231.924 487.756C231.985 487.654 232.073 487.571 232.177 487.515L279.145 459.581C279.41 459.421 279.711 459.33 280.02 459.316C280.329 459.303 280.637 459.367 280.915 459.504L325.06 480.987L275.977 509.254Z" fill="#BA68C8"/>
<path d="M234.998 490.003V495.531L271.282 516.052V507.048L234.998 490.003Z" fill="#F5F5F5"/>
<path d="M271.282 516.051L275.976 513.127V509.254L271.282 507.048V516.051Z" fill="#E0E0E0"/>
<path d="M231.805 483.334V469.033H311.734C312.016 469.033 320.596 473.497 324.393 475.446C324.564 475.542 324.706 475.682 324.805 475.851C324.904 476.02 324.956 476.212 324.956 476.408C324.956 476.604 324.904 476.796 324.805 476.965C324.706 477.134 324.564 477.274 324.393 477.37L277.028 504.15C276.695 504.339 276.322 504.444 275.939 504.456C275.557 504.467 275.177 504.384 274.835 504.214L231.805 483.334Z" fill="#BA68C8"/>
<path opacity="0.4" d="M231.805 483.334V469.033H311.734C312.016 469.033 320.596 473.497 324.393 475.446C324.564 475.542 324.706 475.682 324.805 475.851C324.904 476.02 324.956 476.212 324.956 476.408C324.956 476.604 324.904 476.796 324.805 476.965C324.706 477.134 324.564 477.274 324.393 477.37L277.028 504.15C276.695 504.339 276.322 504.444 275.939 504.456C275.557 504.467 275.177 504.384 274.835 504.214L231.805 483.334Z" fill="black"/>
<path d="M275.977 500.814L321.328 475.304V469.764L275.977 493.889V500.814Z" fill="#E0E0E0"/>
<path d="M231.805 483.334L243.668 476.395L231.805 469.033V483.334Z" fill="#BA68C8"/>
<path opacity="0.6" d="M231.805 483.334L243.668 476.395L231.805 469.033V483.334Z" fill="black"/>
<path d="M239.295 473.676V481.576L275.976 500.815V493.889L239.295 473.676Z" fill="#F5F5F5"/>
<path d="M231.805 469.033L274.45 494.441C274.913 494.722 275.442 494.878 275.983 494.894C276.525 494.91 277.062 494.784 277.541 494.53L324.559 469.969C324.722 469.873 324.856 469.735 324.949 469.571C325.042 469.407 325.091 469.222 325.091 469.033C325.091 468.844 325.042 468.659 324.949 468.495C324.856 468.331 324.722 468.193 324.559 468.097L281.658 440.214L231.805 469.033Z" fill="#BA68C8"/>
<path d="M275.976 490.003L232.01 464.352C231.911 464.294 231.83 464.212 231.773 464.113C231.716 464.014 231.687 463.902 231.687 463.787C231.687 463.673 231.716 463.561 231.773 463.462C231.83 463.363 231.911 463.281 232.01 463.223L280.747 433.186L275.976 490.003Z" fill="#BA68C8"/>
<path opacity="0.4" d="M275.976 490.003L232.01 464.352C231.911 464.294 231.83 464.212 231.773 464.113C231.716 464.014 231.687 463.902 231.687 463.787C231.687 463.673 231.716 463.561 231.773 463.462C231.83 463.363 231.911 463.281 232.01 463.223L280.747 433.186L275.976 490.003Z" fill="black"/>
<path d="M275.977 490.003L324.996 461.62V448.718L275.977 476.985V490.003Z" fill="#BA68C8"/>
<path opacity="0.2" d="M275.977 490.003L324.996 461.62V448.718L275.977 476.985V490.003Z" fill="black"/>
<path d="M315.428 463.557L296.074 474.728C294.792 475.472 293.74 474.728 293.74 472.971C293.752 472.098 293.97 471.24 294.375 470.466C294.781 469.693 295.363 469.026 296.074 468.52L315.428 457.336C316.711 456.593 317.763 457.336 317.763 459.106C317.748 459.979 317.529 460.836 317.124 461.609C316.718 462.381 316.138 463.049 315.428 463.557Z" fill="#E6E6E6"/>
<path d="M290.892 474.664C290.844 475.598 290.574 476.506 290.106 477.316C289.638 478.125 288.984 478.812 288.199 479.32C286.724 480.179 285.519 479.486 285.519 477.768C285.569 476.836 285.838 475.929 286.304 475.12C286.769 474.311 287.419 473.624 288.199 473.112C289.687 472.253 290.892 472.945 290.892 474.664Z" fill="#E6E6E6"/>
<path d="M275.976 476.985L232.177 456.4C232.073 456.342 231.986 456.257 231.925 456.155C231.865 456.052 231.833 455.935 231.833 455.816C231.833 455.697 231.865 455.58 231.925 455.477C231.986 455.375 232.073 455.29 232.177 455.233L279.144 427.298C279.41 427.14 279.712 427.051 280.021 427.04C280.33 427.029 280.638 427.096 280.914 427.234L325.06 448.717L275.976 476.985Z" fill="#BA68C8"/>
<path d="M234.998 457.721V463.261L271.282 483.782V474.779L234.998 457.721Z" fill="#F5F5F5"/>
<path d="M271.282 483.783L275.976 480.846V476.985L271.282 474.779V483.783Z" fill="#E0E0E0"/>
<path d="M231.869 450.128V435.814H311.798C312.068 435.814 320.648 440.291 324.444 442.227C324.616 442.321 324.758 442.46 324.858 442.628C324.957 442.796 325.01 442.987 325.01 443.183C325.01 443.378 324.957 443.57 324.858 443.738C324.758 443.906 324.616 444.044 324.444 444.138L277.067 470.931C276.729 471.104 276.356 471.195 275.976 471.195C275.597 471.195 275.223 471.104 274.886 470.931L231.869 450.128Z" fill="#BA68C8"/>
<path opacity="0.4" d="M231.869 450.128V435.814H311.798C312.068 435.814 320.648 440.291 324.444 442.227C324.616 442.321 324.758 442.46 324.858 442.628C324.957 442.796 325.01 442.987 325.01 443.183C325.01 443.378 324.957 443.57 324.858 443.738C324.758 443.906 324.616 444.044 324.444 444.138L277.067 470.931C276.729 471.104 276.356 471.195 275.976 471.195C275.597 471.195 275.223 471.104 274.886 470.931L231.869 450.128Z" fill="black"/>
<path d="M276.027 467.597L321.391 442.087V436.546L276.027 460.684V467.597Z" fill="#E0E0E0"/>
<path d="M231.869 450.128L243.72 443.189L231.869 435.814V450.128Z" fill="#BA68C8"/>
<path opacity="0.6" d="M231.869 450.128L243.72 443.189L231.869 435.814V450.128Z" fill="black"/>
<path d="M239.347 440.471V448.371L276.028 467.597V460.684L239.347 440.471Z" fill="#F5F5F5"/>
<path d="M231.869 435.815L274.514 461.235C274.978 461.514 275.507 461.669 276.048 461.685C276.589 461.7 277.126 461.577 277.605 461.325L324.624 436.7C324.789 436.609 324.929 436.476 325.027 436.315C325.126 436.155 325.182 435.971 325.188 435.782C325.195 435.593 325.152 435.406 325.064 435.238C324.977 435.071 324.847 434.929 324.688 434.827L281.774 406.932L231.869 435.815Z" fill="#BA68C8"/>
<path d="M276.028 456.785L232.074 431.134C231.976 431.076 231.894 430.994 231.838 430.895C231.781 430.796 231.751 430.684 231.751 430.57C231.751 430.455 231.781 430.343 231.838 430.244C231.894 430.145 231.976 430.063 232.074 430.005L280.812 399.98L276.028 456.785Z" fill="#BA68C8"/>
<path opacity="0.4" d="M276.028 456.785L232.074 431.134C231.976 431.076 231.894 430.994 231.838 430.895C231.781 430.796 231.751 430.684 231.751 430.57C231.751 430.455 231.781 430.343 231.838 430.244C231.894 430.145 231.976 430.063 232.074 430.005L280.812 399.98L276.028 456.785Z" fill="black"/>
<path d="M276.027 456.784L325.047 428.401V415.512L276.027 443.767V456.784Z" fill="#BA68C8"/>
<path opacity="0.2" d="M276.027 456.784L325.047 428.401V415.512L276.027 443.767V456.784Z" fill="black"/>
<path d="M315.492 430.402L296.125 441.573C294.843 442.317 293.804 441.573 293.804 439.816C293.816 438.942 294.032 438.084 294.435 437.309C294.839 436.534 295.417 435.864 296.125 435.353L315.492 424.181C316.774 423.437 317.813 424.181 317.813 425.939C317.801 426.812 317.584 427.67 317.181 428.445C316.778 429.22 316.2 429.89 315.492 430.402Z" fill="#E6E6E6"/>
<path d="M290.957 441.459C290.905 442.392 290.634 443.299 290.166 444.108C289.698 444.917 289.047 445.604 288.264 446.114C286.776 446.974 285.57 446.281 285.57 444.562C285.621 443.627 285.892 442.718 286.36 441.907C286.827 441.095 287.48 440.406 288.264 439.894C289.751 439.047 290.957 439.74 290.957 441.459Z" fill="#E6E6E6"/>
<path d="M276.028 443.766L232.242 423.245C232.137 423.188 232.05 423.103 231.99 423C231.929 422.898 231.897 422.781 231.897 422.662C231.897 422.542 231.929 422.426 231.99 422.323C232.05 422.22 232.137 422.136 232.242 422.078L279.209 394.144C279.475 393.987 279.776 393.898 280.084 393.885C280.393 393.871 280.7 393.934 280.979 394.067L325.06 415.511L276.028 443.766Z" fill="#BA68C8"/>
<path d="M235.062 424.516V430.043L271.346 450.577V441.561L235.062 424.516Z" fill="#F5F5F5"/>
<path d="M271.347 450.577L276.028 447.64V443.767L271.347 441.561V450.577Z" fill="#E0E0E0"/>
<path d="M274.809 406.598L325.175 377.753L285.172 355.706L236.576 384.32L274.809 406.598Z" fill="#FAFAFA"/>
<path d="M276.54 401.776C276.469 401.794 276.394 401.794 276.322 401.776L247.08 384.679C247.028 384.65 246.983 384.611 246.947 384.564C246.91 384.517 246.884 384.463 246.868 384.406C246.853 384.349 246.849 384.289 246.856 384.23C246.864 384.172 246.883 384.115 246.913 384.064C246.942 384.014 246.981 383.97 247.027 383.935C247.073 383.9 247.126 383.875 247.182 383.86C247.238 383.846 247.297 383.843 247.354 383.851C247.411 383.86 247.466 383.88 247.516 383.91L276.771 400.955C276.822 400.983 276.867 401.021 276.903 401.067C276.94 401.112 276.966 401.165 276.982 401.221C276.997 401.277 277.002 401.336 276.994 401.394C276.986 401.452 276.967 401.507 276.938 401.558C276.895 401.624 276.836 401.679 276.767 401.717C276.697 401.755 276.619 401.775 276.54 401.776Z" fill="#E0E0E0"/>
<path d="M281.35 398.864C281.279 398.883 281.204 398.883 281.132 398.864L251.877 381.819C251.775 381.757 251.701 381.659 251.67 381.545C251.639 381.43 251.654 381.308 251.71 381.203C251.739 381.151 251.779 381.106 251.826 381.07C251.873 381.034 251.927 381.008 251.985 380.993C252.043 380.979 252.103 380.977 252.161 380.986C252.22 380.996 252.276 381.017 252.326 381.049L281.568 398.095C281.655 398.141 281.724 398.215 281.763 398.305C281.803 398.396 281.81 398.496 281.785 398.592C281.76 398.687 281.703 398.77 281.624 398.829C281.545 398.888 281.449 398.918 281.35 398.915V398.864Z" fill="#E0E0E0"/>
<path d="M286.019 396.094C285.948 396.112 285.873 396.112 285.801 396.094L256.546 379.048C256.444 378.987 256.37 378.888 256.342 378.772C256.313 378.657 256.331 378.535 256.392 378.433C256.421 378.383 256.46 378.339 256.506 378.304C256.552 378.269 256.605 378.244 256.661 378.229C256.717 378.215 256.776 378.212 256.833 378.221C256.89 378.229 256.945 378.249 256.995 378.279L286.25 395.324C286.352 395.385 286.426 395.485 286.454 395.6C286.483 395.715 286.465 395.838 286.404 395.94C286.358 395.995 286.298 396.038 286.231 396.065C286.164 396.092 286.091 396.102 286.019 396.094Z" fill="#E0E0E0"/>
<path d="M290.829 393.183C290.748 393.179 290.669 393.157 290.598 393.119L261.355 376.073C261.304 376.045 261.259 376.007 261.223 375.962C261.187 375.916 261.16 375.863 261.145 375.807C261.129 375.751 261.125 375.692 261.133 375.634C261.14 375.577 261.159 375.521 261.189 375.471C261.218 375.419 261.257 375.374 261.304 375.337C261.351 375.301 261.405 375.274 261.462 375.259C261.519 375.243 261.579 375.239 261.638 375.247C261.696 375.255 261.753 375.274 261.804 375.304L291.047 392.349C291.148 392.41 291.222 392.509 291.253 392.623C291.285 392.738 291.27 392.86 291.213 392.965C291.173 393.03 291.116 393.085 291.049 393.123C290.982 393.161 290.906 393.181 290.829 393.183Z" fill="#E0E0E0"/>
<path d="M295.626 390.271C295.548 390.276 295.471 390.253 295.408 390.207L266.152 373.161C266.102 373.132 266.059 373.093 266.024 373.047C265.989 373.001 265.963 372.948 265.949 372.892C265.935 372.836 265.932 372.778 265.94 372.72C265.949 372.663 265.969 372.608 265.999 372.559C266.027 372.507 266.065 372.462 266.11 372.426C266.156 372.39 266.209 372.363 266.265 372.348C266.321 372.332 266.38 372.328 266.438 372.336C266.495 372.343 266.551 372.362 266.601 372.392L295.857 389.437C295.959 389.498 296.032 389.598 296.061 389.713C296.09 389.828 296.072 389.951 296.01 390.053C295.972 390.12 295.915 390.176 295.848 390.214C295.78 390.252 295.703 390.272 295.626 390.271Z" fill="#E0E0E0"/>
<path d="M300.421 387.36C300.35 387.383 300.274 387.383 300.203 387.36L270.961 370.315C270.91 370.287 270.865 370.249 270.829 370.203C270.792 370.157 270.766 370.105 270.75 370.049C270.735 369.992 270.73 369.934 270.738 369.876C270.746 369.818 270.765 369.762 270.794 369.712C270.856 369.61 270.954 369.536 271.069 369.505C271.183 369.474 271.305 369.489 271.41 369.545L300.691 386.526C300.792 386.588 300.866 386.686 300.897 386.801C300.928 386.916 300.914 387.038 300.857 387.142C300.811 387.214 300.746 387.273 300.669 387.311C300.593 387.35 300.507 387.367 300.421 387.36Z" fill="#E0E0E0"/>
<path d="M305.232 384.448C305.154 384.453 305.077 384.43 305.014 384.384L275.759 367.365C275.708 367.337 275.663 367.299 275.626 367.253C275.59 367.207 275.564 367.155 275.548 367.099C275.532 367.042 275.528 366.984 275.536 366.926C275.543 366.868 275.563 366.812 275.592 366.762C275.653 366.66 275.752 366.586 275.866 366.555C275.981 366.524 276.103 366.538 276.208 366.595L305.45 383.64C305.502 383.67 305.547 383.709 305.583 383.756C305.62 383.803 305.646 383.856 305.662 383.913C305.677 383.971 305.681 384.03 305.674 384.089C305.666 384.148 305.647 384.205 305.617 384.256C305.575 384.319 305.517 384.369 305.45 384.403C305.382 384.437 305.307 384.452 305.232 384.448Z" fill="#E0E0E0"/>
<path d="M310.042 381.537C309.966 381.555 309.887 381.555 309.811 381.537L280.568 364.479C280.517 364.451 280.472 364.413 280.436 364.367C280.4 364.321 280.373 364.269 280.358 364.213C280.342 364.157 280.338 364.098 280.345 364.04C280.353 363.982 280.372 363.926 280.402 363.876C280.463 363.774 280.561 363.7 280.676 363.669C280.791 363.638 280.913 363.653 281.017 363.709L310.26 380.755C310.361 380.816 310.435 380.914 310.466 381.029C310.497 381.144 310.483 381.266 310.426 381.37C310.38 381.426 310.321 381.471 310.254 381.5C310.187 381.529 310.114 381.542 310.042 381.537Z" fill="#E0E0E0"/>
<path d="M314.799 378.626C314.723 378.644 314.644 378.644 314.569 378.626L285.326 361.58C285.275 361.551 285.23 361.512 285.194 361.465C285.157 361.418 285.131 361.364 285.115 361.307C285.1 361.25 285.096 361.19 285.103 361.132C285.111 361.073 285.13 361.016 285.159 360.965C285.189 360.913 285.228 360.868 285.275 360.832C285.322 360.796 285.376 360.769 285.433 360.754C285.49 360.738 285.55 360.734 285.608 360.742C285.667 360.75 285.724 360.769 285.775 360.798L315.017 377.843C315.069 377.873 315.114 377.912 315.151 377.959C315.187 378.006 315.214 378.059 315.229 378.116C315.245 378.174 315.249 378.233 315.241 378.292C315.233 378.351 315.214 378.408 315.184 378.459C315.139 378.517 315.08 378.562 315.013 378.592C314.946 378.621 314.872 378.632 314.799 378.626Z" fill="#E0E0E0"/>
<path d="M236.718 384.166L274.951 406.457V440.701L236.718 419.59V384.166Z" fill="#F0F0F0"/>
<path d="M274.95 406.457L325.316 377.6V411.459L274.95 440.702V406.457Z" fill="#E6E6E6"/>
<path d="M266.729 409.805L274.951 414.589L292.74 404.405L274.951 417.192L266.729 409.805Z" fill="#E0E0E0"/>
<path d="M266.729 421.72L274.951 426.516L284.993 420.758L274.951 429.12L266.729 421.72Z" fill="#E0E0E0"/>
<path d="M279.734 416.204L286.019 418.077L290.829 410.805L279.734 416.204Z" fill="#E0E0E0"/>
<path d="M279.734 416.205L298.703 405.393L289.212 416.205H279.734Z" fill="white"/>
<path d="M308.117 392.99L312.568 394.311L315.966 389.168L308.117 392.99Z" fill="#E0E0E0"/>
<path d="M308.117 392.99L321.546 385.333L314.838 392.99H308.117Z" fill="white"/>
<path d="M298.524 418.449L302.975 419.77L306.374 414.627L298.524 418.449Z" fill="#E0E0E0"/>
<path d="M298.524 418.449L311.953 410.805L305.232 418.449H298.524Z" fill="white"/>
<path d="M250.44 419.514L247.183 420.489L244.682 416.705L250.44 419.514Z" fill="#E0E0E0"/>
<path d="M250.44 419.513L240.59 413.896L245.515 419.513H250.44Z" fill="white"/>
<path d="M263.266 406.072L258.816 407.393L255.417 402.25L263.266 406.072Z" fill="#E0E0E0"/>
<path d="M263.266 406.072L249.838 398.428L256.558 406.072H263.266Z" fill="white"/>
<path d="M576.403 475.497L572.132 473.715L573.235 468.533L576.403 475.497Z" fill="#37474F"/>
<path d="M581.213 461.556L583.034 469.7L576.403 475.497L573.235 468.533L581.213 461.556Z" fill="#455A64"/>
<path d="M562.924 453.103C561.659 456.478 560.756 459.978 560.23 463.543C559.346 468.599 557.001 473.285 553.484 477.023C550.367 479.896 544.801 486.514 554.459 487.694C564.45 488.977 572.825 480.666 572.953 476.087C573.081 471.508 574.3 467.917 576.801 465.826C579.302 463.736 581.251 461.594 581.251 461.594C581.251 461.594 576.801 445.613 572.992 446.511C569.182 447.409 562.924 453.103 562.924 453.103Z" fill="#263238"/>
<path d="M566.783 437.469C563.91 433.134 560.665 428.03 558.049 423.361C551.893 412.28 542.568 394.683 533.424 391.169V316.46L498.307 314.844C498.307 314.844 486.764 355.77 503.168 388.668C514.891 412.229 540.362 436.79 553.816 448.82C558.023 448.166 565.719 445.742 566.783 437.469Z" fill="#455A64"/>
<path d="M573.877 447.768C573.877 447.768 570.67 443.343 566.771 437.508C565.707 445.78 558.011 448.166 553.805 448.858C559.14 453.617 562.616 456.426 562.616 456.426C562.616 456.426 574.056 457.977 573.877 447.768Z" fill="white"/>
<path d="M501.847 385.782L511.261 339.328C511.261 339.328 504.233 335.224 504.233 324.373C504.233 324.373 503.348 334.839 508.08 342.406L499.987 381.242C500.552 382.755 501.18 384.281 501.847 385.782Z" fill="#37474F"/>
<path d="M533.424 391.13V388.437L528.986 391.309L520.804 403.968L520.034 413.908C523.253 417.871 526.614 421.719 529.961 425.361L530.628 409.073L536.784 392.99C535.751 392.225 534.621 391.6 533.424 391.13Z" fill="#37474F"/>
<path d="M501.116 514.436L496.781 511.973L501.116 506.228V514.436Z" fill="#37474F"/>
<path d="M507.427 503.419V510.691L501.117 514.436V506.228L507.427 503.419Z" fill="#455A64"/>
<path d="M493.729 488.002C493.729 488.002 491.266 487.001 488.919 495.556C486.572 504.111 476.85 509.664 474.388 511.152C471.925 512.64 465.41 518.847 474.388 522.054C483.366 525.26 494.793 520.54 497.474 515.141C500.154 509.741 501.527 506.458 507.414 503.418V492.504C507.414 490.4 505.208 488.874 503.81 488.515C502.412 488.156 493.729 488.002 493.729 488.002Z" fill="#263238"/>
<path d="M543.8 314.844L504.233 312.061V324.373C504.233 335.224 511.261 339.328 511.261 339.328L499.295 398.326C498.716 401.17 498.322 404.049 498.115 406.944L492.921 480.974C494.879 482.675 497.244 483.841 499.785 484.358C502.327 484.875 504.96 484.725 507.427 483.924C510.12 475.677 514.712 461.902 520.124 446.845C526.639 428.671 526.934 416.063 526.678 410.933C526.581 409.136 526.901 407.34 527.614 405.687C529.769 400.685 535.014 388.527 543.8 368.019C560.166 329.927 543.8 314.844 543.8 314.844Z" fill="#455A64"/>
<path d="M492.921 481.025L492.177 491.658C492.844 492.741 493.793 493.621 494.923 494.204C496.053 494.787 497.321 495.051 498.59 494.967C503.284 494.967 504.925 491.927 504.925 491.927C504.925 491.927 505.862 488.964 507.491 483.975C505.015 484.789 502.37 484.945 499.815 484.427C497.261 483.91 494.885 482.738 492.921 481.025Z" fill="white"/>
<path d="M508.171 257.859C508.171 257.859 497.115 258.283 493.254 266.388C489.394 274.494 483.879 290.872 483.879 290.872L498.705 294.207L508.171 257.859Z" fill="#BA68C8"/>
<path opacity="0.2" d="M508.171 257.859C508.171 257.859 497.115 258.283 493.254 266.388C489.394 274.494 483.879 290.872 483.879 290.872L498.705 294.207L508.171 257.859Z" fill="white"/>
<path d="M531.809 259.526L543.8 261.604V288.538L540.055 302.851C540.055 302.851 540.761 310.547 543.8 314.805C543.8 314.805 522.459 330.991 498.308 314.805C498.308 314.805 499.244 300.696 499.244 296.746C499.244 296.746 491.062 291.821 491.87 284.318C492.678 276.815 508.171 257.821 508.171 257.821L516.687 257.705L531.809 259.526Z" fill="#BA68C8"/>
<path opacity="0.4" d="M531.809 259.526L543.8 261.604V288.538L540.055 302.851C540.055 302.851 540.761 310.547 543.8 314.805C543.8 314.805 522.459 330.991 498.308 314.805C498.308 314.805 499.244 300.696 499.244 296.746C499.244 296.746 491.062 291.821 491.87 284.318C492.678 276.815 508.171 257.821 508.171 257.821L516.687 257.705L531.809 259.526Z" fill="white"/>
<path d="M511.197 204.479C511.197 204.479 500.834 200.888 498.307 211.495C495.781 222.102 503.579 232.388 491.895 235.864C491.895 235.864 498.782 241.597 504.836 230.9L509.966 252.704C509.966 252.704 509.966 253.896 508.157 254.807C508.157 254.807 537.656 261.348 543.235 246.663C544.02 247.51 544.555 248.557 544.781 249.688C545.007 250.82 544.916 251.992 544.518 253.076C544.518 253.076 553.201 249.561 550.764 238.313C550.764 238.313 557.626 238.121 559.255 232.529C559.255 232.529 548.276 233.055 548.34 220.986C548.417 206.98 541.042 209.007 541.042 209.007C541.042 209.007 532.026 195.578 511.197 204.479Z" fill="#263238"/>
<path d="M516.687 248.394V257.744C516.687 257.744 508.286 272.224 511.557 273.135C517.816 274.892 531.744 259.501 531.744 259.501V239.75L516.687 248.394Z" fill="white"/>
<path d="M531.641 236.62V237.172C528.268 250.459 519.508 253.357 516.687 254.037L516.584 233.516L531.205 233.452L531.641 236.62Z" fill="#D7D7D7"/>
<path d="M517.635 207.045C512.056 207.506 500.449 211.585 500.27 226.283C500.09 240.981 502.347 252.229 509.979 252.691C517.61 253.153 534.668 246.278 535.45 227.168C536.233 208.058 523.086 206.57 517.635 207.045Z" fill="white"/>
<path d="M510.582 232.195L510.711 240.84L505.632 239.365L510.582 232.195Z" fill="#D7D7D7"/>
<path d="M518.175 231.965C518.137 232.406 517.935 232.818 517.608 233.118C517.282 233.418 516.854 233.584 516.411 233.584C515.968 233.584 515.54 233.418 515.214 233.118C514.887 232.818 514.685 232.406 514.648 231.965C514.644 231.496 514.825 231.045 515.151 230.709C515.478 230.373 515.923 230.179 516.392 230.169C516.628 230.166 516.862 230.21 517.081 230.299C517.3 230.388 517.498 230.52 517.665 230.688C517.831 230.856 517.962 231.055 518.05 231.274C518.137 231.494 518.18 231.729 518.175 231.965Z" fill="#263238"/>
<path d="M506.581 230.9C506.586 231.25 506.487 231.594 506.297 231.887C506.106 232.181 505.833 232.412 505.512 232.551C505.19 232.689 504.835 232.729 504.491 232.666C504.147 232.603 503.829 232.439 503.578 232.195C503.327 231.951 503.153 231.638 503.08 231.296C503.007 230.954 503.037 230.597 503.166 230.272C503.295 229.947 503.518 229.667 503.806 229.468C504.094 229.27 504.435 229.161 504.785 229.156C505.018 229.151 505.25 229.192 505.466 229.277C505.683 229.362 505.881 229.49 506.048 229.652C506.215 229.814 506.348 230.008 506.44 230.223C506.531 230.437 506.579 230.667 506.581 230.9Z" fill="#263238"/>
<path d="M502.617 227.284L506.029 225.193C506.029 225.193 504.747 223.833 503.387 224.68C503.011 224.985 502.736 225.398 502.598 225.862C502.461 226.327 502.468 226.823 502.617 227.284Z" fill="#BA68C8"/>
<path d="M502.617 227.284L506.029 225.193C506.029 225.193 504.747 223.833 503.387 224.68C503.011 224.985 502.736 225.398 502.598 225.862C502.461 226.327 502.468 226.823 502.617 227.284Z" fill="#263238"/>
<path d="M526.845 231.17C526.845 231.17 526.498 237.364 530.064 237.364H537.054V225.552C537.054 212.303 527.011 198.464 505.631 209.404C505.631 209.404 504.618 227.091 526.845 231.17Z" fill="#263238"/>
<path d="M530.039 236.633C530.006 235.309 530.269 233.994 530.808 232.785C531.073 232.015 531.558 231.339 532.203 230.842C532.848 230.344 533.626 230.048 534.438 229.989C538.606 229.925 539.119 233.939 539.055 235.363C538.863 239.108 535.798 243.122 530.077 243.212L530.039 236.633Z" fill="white"/>
<path d="M515.212 243.571C515.212 243.858 515.127 244.138 514.968 244.377C514.809 244.615 514.582 244.801 514.317 244.91C514.053 245.02 513.761 245.049 513.48 244.993C513.199 244.937 512.941 244.799 512.738 244.596C512.535 244.393 512.397 244.135 512.341 243.854C512.285 243.573 512.314 243.282 512.424 243.017C512.534 242.752 512.719 242.526 512.958 242.366C513.196 242.207 513.476 242.122 513.763 242.122C514.147 242.122 514.516 242.275 514.788 242.547C515.059 242.818 515.212 243.187 515.212 243.571Z" fill="#D7D7D7"/>
<path d="M543.8 261.604C543.8 261.604 533.95 265.183 538.259 282.42C542.569 299.658 546.711 314.087 546.711 314.087L529.563 324.347C529.563 324.347 535.797 327.336 534.399 338.327C534.399 338.327 556.818 332.787 562.012 329.016C567.207 325.245 565.437 314.228 564.205 308.161C562.974 302.095 557.177 277.47 556.292 274.122C555.407 270.775 552.791 263.169 543.8 261.604Z" fill="#BA68C8"/>
<path opacity="0.2" d="M543.8 261.604C543.8 261.604 533.95 265.183 538.259 282.42C542.569 299.658 546.711 314.087 546.711 314.087L529.563 324.347C529.563 324.347 535.797 327.336 534.399 338.327C534.399 338.327 556.818 332.787 562.012 329.016C567.207 325.245 565.437 314.228 564.205 308.161C562.974 302.095 557.177 277.47 556.292 274.122C555.407 270.775 552.791 263.169 543.8 261.604Z" fill="white"/>
<path d="M546.712 314.087C550.108 313.8 553.505 314.633 556.382 316.46C555.107 314.93 553.516 313.693 551.719 312.834C549.921 311.975 547.96 311.514 545.968 311.483L546.712 314.087Z" fill="#BA68C8"/>
<path d="M476.03 355.424L432.064 329.773C431.965 329.715 431.883 329.633 431.827 329.534C431.77 329.435 431.74 329.322 431.74 329.208C431.74 329.094 431.77 328.982 431.827 328.883C431.883 328.784 431.965 328.702 432.064 328.644L480.801 298.606L476.03 355.424Z" fill="#BA68C8"/>
<path opacity="0.4" d="M476.03 355.424L432.064 329.773C431.965 329.715 431.883 329.633 431.827 329.534C431.77 329.435 431.74 329.322 431.74 329.208C431.74 329.094 431.77 328.982 431.827 328.883C431.883 328.784 431.965 328.702 432.064 328.644L480.801 298.606L476.03 355.424Z" fill="black"/>
<path d="M476.03 355.423L525.05 327.04V314.138L476.03 342.405V355.423Z" fill="#BA68C8"/>
<path opacity="0.2" d="M476.03 355.423L525.05 327.04V314.138L476.03 342.405V355.423Z" fill="black"/>
<path d="M515.482 329.029L496.128 340.213C494.846 340.956 493.794 340.213 493.794 338.443C493.806 337.57 494.023 336.712 494.429 335.938C494.834 335.165 495.417 334.498 496.128 333.992L515.482 322.821C516.765 322.077 517.816 322.821 517.816 324.578C517.801 325.451 517.583 326.308 517.177 327.08C516.772 327.853 516.191 328.52 515.482 329.029Z" fill="#E6E6E6"/>
<path d="M490.946 340.085C490.895 341.02 490.625 341.93 490.157 342.741C489.689 343.552 489.037 344.241 488.253 344.753C486.765 345.613 485.572 344.907 485.572 343.201C485.621 342.267 485.889 341.358 486.354 340.547C486.82 339.736 487.471 339.046 488.253 338.533C489.741 337.674 490.946 338.366 490.946 340.085Z" fill="#E6E6E6"/>
<path d="M476.029 342.406L432.23 321.821C432.125 321.765 432.038 321.682 431.977 321.58C431.916 321.478 431.884 321.362 431.884 321.243C431.884 321.125 431.916 321.009 431.977 320.907C432.038 320.805 432.125 320.722 432.23 320.666L479.197 292.732C479.462 292.572 479.763 292.481 480.073 292.468C480.382 292.454 480.69 292.519 480.967 292.655L525.1 314.138L476.029 342.406Z" fill="#BA68C8"/>
<path d="M435.052 323.142V328.682L471.335 349.203V340.2L435.052 323.142Z" fill="#F5F5F5"/>
<path d="M471.336 349.204L476.03 346.28V342.406L471.336 340.2V349.204Z" fill="#E0E0E0"/>
<path d="M534.399 338.353C534.399 338.353 515.161 342.496 513.378 342.932C511.595 343.368 502.297 346.279 494.64 344.599L513.545 333.697C513.545 333.697 503.9 331.337 505.285 328.336C505.811 327.195 523.754 327.81 523.754 327.81L529.564 324.373C529.564 324.373 539.85 325.694 534.399 338.353Z" fill="white"/>
<path d="M431.858 316.485V302.185H511.788C512.07 302.185 520.65 306.648 524.446 308.597C524.617 308.693 524.76 308.833 524.859 309.002C524.958 309.171 525.01 309.363 525.01 309.559C525.01 309.755 524.958 309.948 524.859 310.117C524.76 310.286 524.617 310.425 524.446 310.521L477.081 337.301C476.749 337.491 476.375 337.596 475.993 337.607C475.61 337.618 475.231 337.535 474.888 337.365L431.858 316.485Z" fill="#BA68C8"/>
<path opacity="0.4" d="M431.858 316.485V302.185H511.788C512.07 302.185 520.65 306.648 524.446 308.597C524.617 308.693 524.76 308.833 524.859 309.002C524.958 309.171 525.01 309.363 525.01 309.559C525.01 309.755 524.958 309.948 524.859 310.117C524.76 310.286 524.617 310.425 524.446 310.521L477.081 337.301C476.749 337.491 476.375 337.596 475.993 337.607C475.61 337.618 475.231 337.535 474.888 337.365L431.858 316.485Z" fill="black"/>
<path d="M476.03 333.954L521.382 308.457V302.916L476.03 327.041V333.954Z" fill="#E0E0E0"/>
<path d="M431.858 316.485L443.709 309.546L431.858 302.185V316.485Z" fill="#BA68C8"/>
<path opacity="0.6" d="M431.858 316.485L443.709 309.546L431.858 302.185V316.485Z" fill="black"/>
<path d="M439.349 306.828V314.729L476.03 333.954V327.041L439.349 306.828Z" fill="#F5F5F5"/>
<path d="M431.858 302.185L474.504 327.605C474.967 327.887 475.495 328.043 476.037 328.059C476.579 328.074 477.116 327.949 477.594 327.695L524.613 303.07C524.779 302.979 524.918 302.846 525.017 302.685C525.116 302.525 525.171 302.341 525.178 302.152C525.184 301.963 525.141 301.776 525.054 301.608C524.966 301.441 524.836 301.299 524.677 301.197L481.776 273.314L431.858 302.185Z" fill="#BA68C8"/>
<path d="M476.03 323.154L432.064 297.503C431.965 297.445 431.883 297.363 431.827 297.264C431.77 297.165 431.74 297.053 431.74 296.939C431.74 296.825 431.77 296.713 431.827 296.614C431.883 296.515 431.965 296.432 432.064 296.374L480.801 266.337L476.03 323.154Z" fill="#BA68C8"/>
<path opacity="0.4" d="M476.03 323.154L432.064 297.503C431.965 297.445 431.883 297.363 431.827 297.264C431.77 297.165 431.74 297.053 431.74 296.939C431.74 296.825 431.77 296.713 431.827 296.614C431.883 296.515 431.965 296.432 432.064 296.374L480.801 266.337L476.03 323.154Z" fill="black"/>
<path d="M476.03 323.142L525.05 294.772V281.869L476.03 310.137V323.142Z" fill="#BA68C8"/>
<path opacity="0.2" d="M476.03 323.142L525.05 294.772V281.869L476.03 310.137V323.142Z" fill="black"/>
<path d="M515.482 296.824L496.128 307.995C494.846 308.739 493.794 307.995 493.794 306.238C493.806 305.365 494.023 304.507 494.429 303.733C494.834 302.96 495.417 302.293 496.128 301.787L515.482 290.603C516.765 289.872 517.816 290.603 517.816 292.373C517.801 293.246 517.583 294.103 517.177 294.876C516.772 295.648 516.191 296.316 515.482 296.824Z" fill="#E6E6E6"/>
<path d="M490.946 307.815C490.897 308.749 490.628 309.658 490.16 310.467C489.691 311.276 489.038 311.963 488.253 312.471C486.765 313.33 485.572 312.638 485.572 310.919C485.622 309.987 485.89 309.08 486.356 308.271C486.822 307.462 487.472 306.774 488.253 306.263C489.741 305.404 490.946 306.097 490.946 307.815Z" fill="#E6E6E6"/>
<path d="M476.029 310.136L432.23 289.615C432.126 289.558 432.039 289.473 431.978 289.37C431.918 289.268 431.886 289.151 431.886 289.032C431.886 288.913 431.918 288.796 431.978 288.693C432.039 288.59 432.126 288.506 432.23 288.448L479.197 260.514C479.469 260.366 479.773 260.288 480.082 260.288C480.391 260.288 480.696 260.366 480.967 260.514L525.1 281.997L476.029 310.136Z" fill="#BA68C8"/>
<path d="M435.052 290.873V296.414L471.335 316.935V307.931L435.052 290.873Z" fill="#F5F5F5"/>
<path d="M471.336 316.934L476.03 313.997V310.137L471.336 307.931V316.934Z" fill="#E0E0E0"/>
</svg>
