<svg width="515" height="529" viewBox="0 0 515 529" fill="none" xmlns="http://www.w3.org/2000/svg">
<path d="M73.5201 416.77L190.849 486.528C191.269 486.775 191.617 487.127 191.86 487.55C192.102 487.973 192.229 488.452 192.229 488.939C192.229 489.427 192.102 489.905 191.86 490.328C191.617 490.751 191.269 491.104 190.849 491.35L128.003 527.608C126.702 528.358 125.227 528.753 123.726 528.753C122.224 528.753 120.749 528.358 119.449 527.608L2.1969 457.85C1.77337 457.606 1.42162 457.254 1.17705 456.831C0.932477 456.408 0.803711 455.928 0.803711 455.439C0.803711 454.95 0.932477 454.47 1.17705 454.046C1.42162 453.623 1.77337 453.272 2.1969 453.028L65.0424 416.77C66.334 416.034 67.7948 415.647 69.2812 415.647C70.7676 415.647 72.2284 416.034 73.5201 416.77Z" fill="#E0E0E0"/>
<path d="M289.106 274.29L490.468 390.49C491.897 391.315 493.518 391.749 495.168 391.749C496.819 391.749 498.44 391.315 499.869 390.49L512.515 383.192C513.011 382.908 513.422 382.498 513.709 382.004C513.995 381.509 514.146 380.948 514.146 380.377C514.146 379.806 513.995 379.244 513.709 378.75C513.422 378.256 513.011 377.846 512.515 377.562L311.294 261.439C309.829 260.588 308.165 260.141 306.472 260.141C304.778 260.141 303.114 260.588 301.649 261.439L289.131 268.66C288.634 268.941 288.221 269.35 287.932 269.843C287.643 270.336 287.49 270.896 287.487 271.467C287.485 272.039 287.633 272.601 287.917 273.096C288.201 273.592 288.611 274.004 289.106 274.29Z" fill="#E0E0E0"/>
<path d="M303.971 268.39L499.638 381.358C500.337 381.763 501.131 381.977 501.939 381.978C502.747 381.98 503.542 381.768 504.242 381.365C504.943 380.962 505.525 380.382 505.93 379.683C506.336 378.984 506.55 378.19 506.551 377.382V119.664C506.548 117.465 505.966 115.305 504.866 113.401C503.765 111.496 502.183 109.915 500.279 108.814L313.321 0.835097C312.373 0.287955 311.298 -6.28191e-05 310.204 1.02772e-08C309.109 6.28397e-05 308.034 0.288203 307.087 0.835454C306.139 1.38271 305.352 2.16978 304.805 3.11755C304.258 4.06532 303.97 5.14039 303.971 6.23467V268.39Z" fill="#BA68C8"/>
<path opacity="0.5" d="M303.971 268.39L499.638 381.358C500.337 381.763 501.131 381.977 501.939 381.978C502.747 381.98 503.542 381.768 504.242 381.365C504.943 380.962 505.525 380.382 505.93 379.683C506.336 378.984 506.55 378.19 506.551 377.382V119.664C506.548 117.465 505.966 115.305 504.866 113.401C503.765 111.496 502.183 109.915 500.279 108.814L313.321 0.835097C312.373 0.287955 311.298 -6.28191e-05 310.204 1.02772e-08C309.109 6.28397e-05 308.034 0.288203 307.087 0.835454C306.139 1.38271 305.352 2.16978 304.805 3.11755C304.258 4.06532 303.97 5.14039 303.971 6.23467V268.39Z" fill="white"/>
<path d="M309.512 280.228L488.929 383.807V121.921L309.512 18.3418V280.228Z" fill="#BA68C8"/>
<path opacity="0.8" d="M309.512 280.228L488.929 383.807V121.921L309.512 18.3418V280.228Z" fill="white"/>
<path d="M291.992 259.309L471.41 362.889L488.929 121.921L309.512 18.3418L291.992 259.309Z" fill="#BA68C8"/>
<path opacity="0.9" d="M291.992 259.309L471.41 362.889L488.929 121.921L309.512 18.3418L291.992 259.309Z" fill="white"/>
<path d="M309.512 18.3418L488.929 121.921L495.727 117.997L316.309 14.4043L309.512 18.3418Z" fill="#BA68C8"/>
<path opacity="0.7" d="M309.512 18.3418L488.929 121.921L495.727 117.997L316.309 14.4043L309.512 18.3418Z" fill="white"/>
<path d="M495.726 117.997V378.883L488.929 383.808V121.922L495.726 117.997Z" fill="#BA68C8"/>
<path d="M495.726 117.997V378.883L488.929 383.808V121.922L495.726 117.997Z" fill="#BA68C8"/>
<path opacity="0.7" d="M495.726 117.997V378.883L488.929 383.808V121.922L495.726 117.997Z" fill="white"/>
<path d="M439.551 155.909C439.393 155.928 439.234 155.928 439.076 155.909C438.805 155.835 438.555 155.699 438.346 155.512C438.137 155.325 437.974 155.092 437.871 154.832L432.535 141.429C432.362 140.985 432.372 140.49 432.562 140.053C432.751 139.616 433.106 139.272 433.548 139.095C433.767 139.005 434.001 138.96 434.238 138.962C434.474 138.964 434.708 139.013 434.925 139.106C435.142 139.199 435.338 139.335 435.503 139.504C435.667 139.674 435.796 139.875 435.883 140.095L440.32 151.24L465.856 130.963C466.041 130.809 466.256 130.695 466.486 130.625C466.717 130.556 466.959 130.534 467.198 130.561C467.438 130.587 467.669 130.661 467.879 130.779C468.089 130.896 468.274 131.055 468.421 131.245C468.571 131.432 468.683 131.647 468.751 131.877C468.818 132.107 468.839 132.348 468.813 132.586C468.786 132.825 468.713 133.056 468.598 133.266C468.482 133.476 468.326 133.661 468.139 133.81L440.705 155.614C440.365 155.842 439.958 155.946 439.551 155.909Z" fill="#BA68C8"/>
<path d="M409.732 127.013C409.418 127.013 409.109 126.933 408.834 126.782L333.291 83.1754C332.878 82.9356 332.577 82.5414 332.454 82.0796C332.331 81.6178 332.397 81.1262 332.637 80.7129C332.877 80.2996 333.271 79.9985 333.733 79.8758C334.195 79.7531 334.686 79.819 335.099 80.0588L410.642 123.666C410.99 123.862 411.263 124.168 411.418 124.537C411.572 124.905 411.599 125.315 411.495 125.7C411.39 126.086 411.16 126.426 410.841 126.666C410.521 126.906 410.131 127.033 409.732 127.026V127.013Z" fill="#BA68C8"/>
<path d="M408 142.519C407.684 142.52 407.374 142.436 407.102 142.276L331.56 98.6686C331.146 98.4287 330.845 98.0346 330.722 97.5728C330.6 97.111 330.666 96.6193 330.905 96.206C331.145 95.7928 331.539 95.4916 332.001 95.369C332.463 95.2463 332.955 95.3121 333.368 95.5519L408.911 139.159C409.259 139.355 409.532 139.661 409.686 140.03C409.841 140.398 409.868 140.808 409.763 141.194C409.659 141.579 409.429 141.919 409.109 142.159C408.79 142.399 408.4 142.526 408 142.519Z" fill="#BA68C8"/>
<path d="M451.594 175.546C450.776 175.545 449.972 175.333 449.26 174.93L425.905 162.015C424.22 161.092 422.839 159.701 421.929 158.01C421.019 156.318 420.617 154.4 420.774 152.485L422.993 126.437C423.068 125.631 423.343 124.857 423.793 124.186C424.244 123.514 424.856 122.967 425.573 122.593C426.29 122.219 427.089 122.031 427.898 122.046C428.707 122.061 429.499 122.278 430.201 122.679L454.762 136.864C455.928 137.544 456.88 138.535 457.512 139.727C458.144 140.919 458.431 142.264 458.341 143.61L456.34 171.07C456.28 171.87 456.02 172.641 455.582 173.314C455.145 173.986 454.546 174.538 453.839 174.917C453.152 175.305 452.382 175.52 451.594 175.546ZM427.854 125.641C427.55 125.64 427.256 125.752 427.031 125.957C426.806 126.161 426.665 126.442 426.636 126.744L424.417 152.793C424.312 154.009 424.561 155.228 425.134 156.305C425.708 157.382 426.582 158.269 427.649 158.86L451.004 171.788C451.185 171.88 451.385 171.928 451.588 171.928C451.791 171.928 451.991 171.88 452.172 171.788C452.35 171.691 452.501 171.551 452.611 171.381C452.721 171.211 452.786 171.015 452.8 170.813L454.801 143.354C454.845 142.683 454.702 142.014 454.387 141.42C454.072 140.827 453.598 140.332 453.018 139.993L428.444 125.808C428.268 125.697 428.063 125.639 427.854 125.641Z" fill="#BA68C8"/>
<path d="M404.396 191.193C404.08 191.193 403.77 191.109 403.498 190.949L327.955 147.342C327.542 147.103 327.241 146.708 327.118 146.247C326.995 145.785 327.061 145.293 327.301 144.88C327.541 144.467 327.935 144.165 328.397 144.043C328.859 143.92 329.35 143.986 329.763 144.226L405.306 187.833C405.655 188.029 405.928 188.335 406.082 188.704C406.236 189.072 406.264 189.482 406.159 189.867C406.055 190.253 405.824 190.593 405.505 190.833C405.186 191.073 404.795 191.2 404.396 191.193Z" fill="#BA68C8"/>
<path d="M402.664 206.686C402.349 206.686 402.039 206.602 401.766 206.443L326.224 162.836C326.019 162.717 325.84 162.559 325.696 162.371C325.552 162.183 325.447 161.968 325.387 161.74C325.326 161.511 325.311 161.273 325.342 161.038C325.373 160.804 325.451 160.578 325.57 160.373C325.688 160.168 325.846 159.989 326.034 159.846C326.222 159.702 326.437 159.597 326.665 159.536C326.894 159.475 327.132 159.46 327.367 159.492C327.601 159.523 327.827 159.6 328.032 159.719L403.575 203.326C403.923 203.522 404.196 203.828 404.351 204.197C404.505 204.565 404.532 204.975 404.428 205.361C404.323 205.746 404.093 206.086 403.773 206.326C403.454 206.566 403.064 206.693 402.664 206.686Z" fill="#BA68C8"/>
<path d="M446.258 239.712C445.442 239.708 444.64 239.501 443.924 239.109L420.568 226.181C418.883 225.259 417.501 223.868 416.59 222.177C415.68 220.485 415.28 218.566 415.438 216.651L417.747 190.654C417.818 189.847 418.091 189.071 418.541 188.397C418.991 187.724 419.603 187.175 420.321 186.8C421.039 186.426 421.84 186.238 422.65 186.255C423.46 186.272 424.253 186.492 424.955 186.896L449.516 201.081C450.681 201.758 451.634 202.747 452.266 203.937C452.899 205.127 453.185 206.47 453.094 207.814L451.093 235.248C451.003 236.46 450.459 237.592 449.569 238.42C448.68 239.247 447.511 239.709 446.297 239.712H446.258ZM422.518 189.807C422.321 189.81 422.128 189.859 421.954 189.948C421.77 190.041 421.613 190.179 421.498 190.35C421.384 190.521 421.315 190.718 421.299 190.923L419.029 216.959C418.924 218.174 419.173 219.394 419.747 220.471C420.32 221.548 421.194 222.435 422.261 223.026L445.617 235.954C445.794 236.056 445.996 236.11 446.2 236.11C446.405 236.11 446.607 236.056 446.784 235.954C446.965 235.861 447.119 235.722 447.229 235.551C447.34 235.38 447.403 235.183 447.412 234.979L449.413 207.519C449.457 206.849 449.314 206.18 448.999 205.586C448.684 204.992 448.21 204.498 447.63 204.159L423.057 189.974C422.895 189.872 422.709 189.815 422.518 189.807Z" fill="#BA68C8"/>
<path d="M434.895 219.486C434.737 219.505 434.578 219.505 434.42 219.486C434.15 219.412 433.9 219.277 433.691 219.09C433.481 218.903 433.318 218.67 433.215 218.409L427.879 205.019C427.741 204.582 427.775 204.11 427.974 203.698C428.173 203.285 428.522 202.965 428.949 202.801C429.376 202.637 429.85 202.643 430.274 202.817C430.697 202.99 431.038 203.319 431.227 203.736L435.703 214.766L461.2 194.502C461.578 194.248 462.037 194.145 462.486 194.215C462.936 194.284 463.343 194.52 463.626 194.876C463.909 195.232 464.048 195.681 464.014 196.135C463.98 196.589 463.777 197.013 463.445 197.323L436.011 219.127C435.69 219.368 435.297 219.495 434.895 219.486Z" fill="#BA68C8"/>
<path d="M399.073 255.36C398.757 255.361 398.447 255.276 398.175 255.116L322.619 211.509C322.223 211.26 321.938 210.867 321.826 210.413C321.713 209.958 321.781 209.478 322.015 209.073C322.249 208.667 322.632 208.369 323.082 208.239C323.531 208.11 324.014 208.16 324.428 208.379L399.97 251.986C400.318 252.182 400.59 252.487 400.745 252.854C400.899 253.222 400.927 253.63 400.825 254.015C400.722 254.4 400.494 254.739 400.177 254.981C399.859 255.222 399.471 255.351 399.073 255.347V255.36Z" fill="#BA68C8"/>
<path d="M397.341 270.865C397.021 270.864 396.708 270.78 396.43 270.621L320.888 227.014C320.683 226.896 320.504 226.738 320.36 226.55C320.217 226.362 320.111 226.147 320.051 225.918C319.99 225.69 319.975 225.451 320.006 225.217C320.038 224.982 320.115 224.756 320.234 224.552C320.352 224.347 320.51 224.168 320.698 224.024C320.886 223.881 321.101 223.775 321.329 223.715C321.558 223.654 321.796 223.639 322.031 223.67C322.265 223.702 322.491 223.779 322.696 223.898L398.239 267.505C398.582 267.704 398.851 268.01 399.003 268.377C399.155 268.744 399.182 269.151 399.08 269.535C398.978 269.918 398.752 270.258 398.438 270.501C398.124 270.743 397.738 270.876 397.341 270.878V270.865Z" fill="#BA68C8"/>
<path d="M440.923 303.879C440.11 303.883 439.31 303.675 438.602 303.276L415.182 290.348C413.498 289.425 412.117 288.034 411.206 286.342C410.296 284.651 409.895 282.733 410.052 280.818L412.283 254.782C412.35 253.976 412.62 253.2 413.069 252.527C413.517 251.854 414.13 251.306 414.849 250.935C415.567 250.562 416.368 250.376 417.177 250.394C417.986 250.412 418.777 250.633 419.479 251.037L444.04 265.222C445.204 265.903 446.154 266.895 446.784 268.087C447.414 269.279 447.699 270.624 447.605 271.969L445.604 299.428C445.542 300.227 445.281 300.998 444.844 301.671C444.407 302.343 443.809 302.895 443.103 303.276C442.434 303.645 441.687 303.852 440.923 303.879ZM417.183 253.987C416.987 253.986 416.794 254.03 416.619 254.115C416.44 254.214 416.287 254.354 416.173 254.524C416.06 254.693 415.988 254.887 415.964 255.09L413.746 281.126C413.639 282.342 413.887 283.562 414.461 284.639C415.035 285.716 415.909 286.603 416.978 287.193L440.346 300.121C440.522 300.221 440.721 300.276 440.923 300.278C441.126 300.281 441.326 300.231 441.505 300.135C441.683 300.039 441.834 299.899 441.943 299.728C442.052 299.557 442.116 299.361 442.129 299.159L444.129 271.686C444.177 271.016 444.035 270.345 443.72 269.751C443.404 269.157 442.929 268.663 442.347 268.326L417.747 254.141C417.573 254.047 417.38 253.994 417.183 253.987Z" fill="#BA68C8"/>
<path d="M439.667 107.095C438.317 107.1 436.99 106.751 435.819 106.082L403.639 87.9078C403.283 87.7071 403.007 87.3901 402.857 87.01C401.303 82.9962 398.525 79.5727 394.918 77.2241C393.636 76.4546 390.275 74.9283 388.505 77.5063C388.244 77.8674 387.86 78.1204 387.425 78.2173C386.99 78.3142 386.535 78.2483 386.145 78.0321L358.416 62.4618C356.858 61.5622 355.564 60.2686 354.663 58.7108C353.763 57.153 353.288 55.3858 353.286 53.5865V33.8607C353.288 31.7203 353.902 29.6251 355.057 27.8228C356.211 26.0205 357.858 24.5864 359.802 23.69C360.063 23.5691 360.35 23.513 360.638 23.5264C360.926 23.5397 361.207 23.6223 361.456 23.767L450.543 75.5311C450.832 75.6967 451.069 75.9396 451.229 76.2326C451.388 76.5255 451.462 76.857 451.443 77.1898C451.425 77.5226 451.314 77.8437 451.123 78.117C450.932 78.3904 450.669 78.6052 450.363 78.7375C449.516 79.109 448.796 79.7193 448.29 80.4938C447.784 81.2682 447.515 82.1733 447.516 83.0982V99.2841C447.528 100.647 447.178 101.988 446.502 103.171C445.826 104.354 444.848 105.336 443.668 106.018C442.456 106.73 441.073 107.103 439.667 107.095ZM405.897 85.0734L437.602 102.939C438.24 103.301 438.962 103.488 439.695 103.483C440.429 103.478 441.148 103.281 441.782 102.911C442.415 102.541 442.94 102.011 443.305 101.375C443.67 100.738 443.861 100.018 443.861 99.2841V83.0982C443.859 80.9053 444.721 78.7999 446.259 77.2369L360.456 27.3838C359.365 28.0653 358.462 29.0094 357.831 30.1296C357.199 31.2499 356.858 32.5106 356.839 33.7966V53.5865C356.84 54.7528 357.15 55.898 357.738 56.9052C358.326 57.9123 359.171 58.7455 360.186 59.3196L386.569 74.1844C389.07 71.9784 392.853 71.9015 396.675 74.1075C400.809 76.7213 404.031 80.5525 405.897 85.0734Z" fill="#BA68C8"/>
<path d="M217.808 312.959L202.418 407.073C202.305 407.761 201.952 408.386 201.421 408.837C200.89 409.288 200.216 409.536 199.519 409.536C199.106 409.537 198.697 409.45 198.32 409.282C197.942 409.114 197.605 408.868 197.329 408.561C197.053 408.253 196.845 407.891 196.718 407.498C196.592 407.105 196.55 406.689 196.595 406.278L207.419 309.188L217.808 312.959Z" fill="#263238"/>
<path d="M164.569 281.306L149.178 375.42C149.068 376.107 148.718 376.732 148.189 377.183C147.66 377.634 146.988 377.882 146.292 377.883C145.879 377.883 145.471 377.797 145.093 377.629C144.716 377.461 144.378 377.215 144.102 376.908C143.826 376.6 143.618 376.238 143.492 375.845C143.365 375.451 143.323 375.036 143.368 374.625L154.193 277.522L164.569 281.306Z" fill="#263238"/>
<path d="M241.483 290.95L256.707 372.059C256.848 372.675 257.219 373.214 257.744 373.565C258.269 373.916 258.909 374.053 259.532 373.948C260.154 373.844 260.714 373.504 261.095 373.001C261.476 372.497 261.65 371.866 261.581 371.238L250.346 296.068L241.483 290.95Z" fill="#263238"/>
<path d="M187.642 260.695L202.776 341.304C202.881 341.872 203.183 342.386 203.628 342.754C204.074 343.122 204.635 343.322 205.213 343.318C205.567 343.316 205.918 343.238 206.24 343.089C206.562 342.941 206.849 342.725 207.081 342.457C207.313 342.188 207.485 341.873 207.585 341.533C207.685 341.193 207.712 340.835 207.662 340.483L196.504 265.8L187.642 260.695Z" fill="#263238"/>
<path d="M192.016 254.565C195.521 253.027 198.555 250.587 200.808 247.493C203.061 244.399 204.453 240.763 204.841 236.955C207.291 212.266 215.987 161.374 245.473 178.317C281.846 199.222 268.828 259.951 263.531 279.421C262.347 283.807 260.045 287.811 256.849 291.041C250.27 297.672 236.662 309.074 213.524 318.77C210.68 319.967 207.513 320.157 204.546 319.308C193.003 316.038 163.017 305.97 148.037 286.821C147.187 285.735 146.801 284.356 146.965 282.986C147.128 281.616 147.827 280.367 148.909 279.511C154.924 274.688 168.622 265.043 192.016 254.565Z" fill="#BA68C8"/>
<path opacity="0.5" d="M192.016 254.565C195.521 253.027 198.555 250.587 200.808 247.493C203.061 244.399 204.453 240.763 204.841 236.955C207.291 212.266 215.987 161.374 245.473 178.317C281.846 199.222 268.828 259.951 263.531 279.421C262.347 283.807 260.045 287.811 256.849 291.041C250.27 297.672 236.662 309.074 213.524 318.77C210.68 319.967 207.513 320.157 204.546 319.308C193.003 316.038 163.017 305.97 148.037 286.821C147.187 285.735 146.801 284.356 146.965 282.986C147.128 281.616 147.827 280.367 148.909 279.511C154.924 274.688 168.622 265.043 192.016 254.565Z" fill="black"/>
<path d="M146.908 283.345C146.831 284.596 147.214 285.833 147.986 286.821C148.794 287.847 149.64 288.834 150.551 289.809C151.025 290.335 151.526 290.861 152.026 291.374C152.526 291.887 153.039 292.387 153.552 292.875L155.13 294.337C155.668 294.824 156.22 295.299 156.771 295.773C165.262 302.904 175.574 308.329 184.782 312.254L186.488 312.959L186.668 313.036L188.232 313.665L188.515 313.78L189.977 314.357L190.31 314.486L191.682 314.999L192.067 315.14C192.503 315.307 192.914 315.46 193.35 315.602L193.799 315.768L194.966 316.179L195.453 316.345L196.531 316.717L197.044 316.897L198.018 317.218L198.57 317.397L199.455 317.679L200.045 317.872L200.801 318.102L201.443 318.308L202.071 318.5L202.854 318.731L203.251 318.846L204.354 319.167C207.321 320.015 210.488 319.825 213.332 318.628C236.418 308.932 250.077 297.53 256.657 290.899C259.853 287.67 262.155 283.666 263.339 279.279C268.636 259.81 281.654 199.081 245.281 178.175C244.627 177.803 243.998 177.47 243.37 177.175C243.237 177.099 243.1 177.03 242.959 176.97C242.344 176.675 241.741 176.418 241.151 176.187L240.971 176.123C240.394 175.905 239.843 175.725 239.278 175.559L239.022 175.482C238.432 175.315 237.842 175.187 237.265 175.071H237.111C235.96 174.861 234.791 174.775 233.622 174.815C232.507 174.853 231.4 175.025 230.326 175.328C236.136 172.763 243.229 172.878 250.257 176.918C286.643 197.824 273.612 258.54 268.328 278.022L267.43 281.357C265.671 288.155 261.7 294.174 256.144 298.466L246.704 305.687C236.496 313.392 225.335 319.746 213.499 324.592C210.655 325.787 207.49 325.982 204.521 325.144C192.978 321.873 162.979 311.818 147.998 292.656C147.36 291.838 146.984 290.845 146.921 289.809V283.396L146.908 283.345Z" fill="#BA68C8"/>
<path opacity="0.6" d="M146.908 283.345C146.831 284.596 147.214 285.833 147.986 286.821C148.794 287.847 149.64 288.834 150.551 289.809C151.025 290.335 151.526 290.861 152.026 291.374C152.526 291.887 153.039 292.387 153.552 292.875L155.13 294.337C155.668 294.824 156.22 295.299 156.771 295.773C165.262 302.904 175.574 308.329 184.782 312.254L186.488 312.959L186.668 313.036L188.232 313.665L188.515 313.78L189.977 314.357L190.31 314.486L191.682 314.999L192.067 315.14C192.503 315.307 192.914 315.46 193.35 315.602L193.799 315.768L194.966 316.179L195.453 316.345L196.531 316.717L197.044 316.897L198.018 317.218L198.57 317.397L199.455 317.679L200.045 317.872L200.801 318.102L201.443 318.308L202.071 318.5L202.854 318.731L203.251 318.846L204.354 319.167C207.321 320.015 210.488 319.825 213.332 318.628C236.418 308.932 250.077 297.53 256.657 290.899C259.853 287.67 262.155 283.666 263.339 279.279C268.636 259.81 281.654 199.081 245.281 178.175C244.627 177.803 243.998 177.47 243.37 177.175C243.237 177.099 243.1 177.03 242.959 176.97C242.344 176.675 241.741 176.418 241.151 176.187L240.971 176.123C240.394 175.905 239.843 175.725 239.278 175.559L239.022 175.482C238.432 175.315 237.842 175.187 237.265 175.071H237.111C235.96 174.861 234.791 174.775 233.622 174.815C232.507 174.853 231.4 175.025 230.326 175.328C236.136 172.763 243.229 172.878 250.257 176.918C286.643 197.824 273.612 258.54 268.328 278.022L267.43 281.357C265.671 288.155 261.7 294.174 256.144 298.466L246.704 305.687C236.496 313.392 225.335 319.746 213.499 324.592C210.655 325.787 207.49 325.982 204.521 325.144C192.978 321.873 162.979 311.818 147.998 292.656C147.36 291.838 146.984 290.845 146.921 289.809V283.396L146.908 283.345Z" fill="black"/>
<path d="M194.735 499.956C195.673 500.431 196.71 500.678 197.762 500.678C198.813 500.678 199.85 500.431 200.789 499.956C202.469 498.994 202.469 497.391 200.789 496.467C199.852 495.987 198.814 495.736 197.762 495.736C196.709 495.736 195.671 495.987 194.735 496.467C193.068 497.429 193.068 498.994 194.735 499.956Z" fill="#37474F"/>
<path d="M193.465 498.109H202.032V395.043H193.465V498.109Z" fill="#37474F"/>
<path d="M292.056 442.792C292.994 443.267 294.031 443.514 295.082 443.514C296.134 443.514 297.171 443.267 298.109 442.792C299.789 441.818 299.789 440.227 298.109 439.291C297.171 438.817 296.134 438.569 295.082 438.569C294.031 438.569 292.994 438.817 292.056 439.291C290.427 440.253 290.427 441.818 292.056 442.792Z" fill="#263238"/>
<path d="M290.837 440.945H299.404V337.879H290.837V440.945Z" fill="#263238"/>
<path d="M35.1333 407.484C36.0699 407.964 37.1075 408.215 38.1602 408.215C39.2128 408.215 40.2504 407.964 41.187 407.484C42.8671 406.522 42.8671 404.919 41.187 403.995C40.2486 403.521 39.2117 403.273 38.1602 403.273C37.1086 403.273 36.0717 403.521 35.1333 403.995C33.466 404.957 33.466 406.522 35.1333 407.484Z" fill="#37474F"/>
<path d="M33.8632 405.649H42.4307L42.4307 302.583H33.8632L33.8632 405.649Z" fill="#37474F"/>
<path d="M139.802 329.491C140.642 329.921 141.572 330.145 142.515 330.145C143.458 330.145 144.388 329.921 145.228 329.491C145.554 329.379 145.836 329.168 146.037 328.887C146.237 328.607 146.345 328.271 146.345 327.926C146.345 327.581 146.237 327.245 146.037 326.965C145.836 326.684 145.554 326.473 145.228 326.361C144.388 325.931 143.458 325.707 142.515 325.707C141.572 325.707 140.642 325.931 139.802 326.361C139.476 326.473 139.194 326.684 138.993 326.965C138.793 327.245 138.686 327.581 138.686 327.926C138.686 328.271 138.793 328.607 138.993 328.887C139.194 329.168 139.476 329.379 139.802 329.491Z" fill="#455A64"/>
<path d="M138.661 327.85H146.344V241.841H138.661V327.85Z" fill="#455A64"/>
<path d="M299.404 320.809V341.317L197.748 400.007V379.499L299.404 320.809Z" fill="#263238"/>
<path d="M33.876 284.884L197.749 379.498V400.006L33.876 305.392V284.884Z" fill="#37474F"/>
<path d="M135.532 226.193L299.404 320.808L197.749 379.498L33.876 284.883L135.532 226.193Z" fill="#455A64"/>
<path opacity="0.2" d="M136.045 327.618L60.6687 284.101C60.4876 283.996 60.3373 283.846 60.2328 283.664C60.1283 283.483 60.0732 283.278 60.0732 283.068C60.0732 282.859 60.1283 282.654 60.2328 282.472C60.3373 282.291 60.4876 282.141 60.6687 282.036L75.1745 273.661C75.3584 273.564 75.5631 273.514 75.7709 273.514C75.9787 273.514 76.1833 273.564 76.3673 273.661L151.743 317.178C151.921 317.284 152.069 317.434 152.171 317.614C152.274 317.794 152.328 317.997 152.328 318.204C152.328 318.411 152.274 318.615 152.171 318.795C152.069 318.974 151.921 319.125 151.743 319.23L137.225 327.618C137.045 327.719 136.841 327.772 136.635 327.772C136.428 327.772 136.225 327.719 136.045 327.618Z" fill="black"/>
<path d="M208.214 361.876L164.248 336.225C164.15 336.167 164.068 336.085 164.011 335.986C163.955 335.887 163.925 335.775 163.925 335.66C163.925 335.546 163.955 335.434 164.011 335.335C164.068 335.236 164.15 335.154 164.248 335.096L212.985 305.059L208.214 361.876Z" fill="#BA68C8"/>
<path opacity="0.4" d="M208.214 361.876L164.248 336.225C164.15 336.167 164.068 336.085 164.011 335.986C163.955 335.887 163.925 335.775 163.925 335.66C163.925 335.546 163.955 335.434 164.011 335.335C164.068 335.236 164.15 335.154 164.248 335.096L212.985 305.059L208.214 361.876Z" fill="black"/>
<path d="M208.214 361.875L257.233 333.492V320.59L208.214 348.857V361.875Z" fill="#BA68C8"/>
<path opacity="0.2" d="M208.214 361.875L257.233 333.492V320.59L208.214 348.857V361.875Z" fill="black"/>
<path d="M247.666 335.481L228.312 346.652C227.029 347.396 225.978 346.652 225.978 344.895C225.992 344.022 226.211 343.165 226.617 342.392C227.022 341.62 227.602 340.952 228.312 340.444L247.666 329.26C248.948 328.516 250 329.26 250 331.03C249.988 331.903 249.771 332.761 249.365 333.535C248.959 334.308 248.377 334.975 247.666 335.481Z" fill="#E6E6E6"/>
<path d="M223.144 346.536C223.095 347.47 222.825 348.379 222.357 349.188C221.889 349.997 221.235 350.684 220.45 351.192C218.962 352.051 217.757 351.358 217.757 349.64C217.808 348.707 218.078 347.799 218.546 346.99C219.014 346.181 219.667 345.493 220.45 344.984C221.938 344.125 223.144 344.817 223.144 346.536Z" fill="#E6E6E6"/>
<path d="M208.214 348.858L164.427 328.273C164.319 328.221 164.228 328.141 164.161 328.042C164.095 327.943 164.056 327.827 164.05 327.708C164.043 327.589 164.069 327.47 164.124 327.364C164.179 327.258 164.262 327.169 164.363 327.106L211.343 299.171C211.607 299.013 211.906 298.925 212.213 298.913C212.521 298.902 212.826 298.969 213.1 299.107L257.233 320.59L208.214 348.858Z" fill="#BA68C8"/>
<path d="M167.249 329.594V335.134L203.52 355.655V346.652L167.249 329.594Z" fill="#F5F5F5"/>
<path d="M203.52 355.655L208.214 352.718V348.857L203.52 346.651V355.655Z" fill="#E0E0E0"/>
<path d="M164.043 322.937V308.649H243.985C244.254 308.649 252.835 313.126 256.631 315.062C256.802 315.156 256.945 315.295 257.044 315.463C257.144 315.631 257.196 315.822 257.196 316.018C257.196 316.213 257.144 316.405 257.044 316.573C256.945 316.741 256.802 316.879 256.631 316.973L209.292 343.792C208.957 343.975 208.584 344.076 208.203 344.088C207.822 344.099 207.443 344.019 207.099 343.856L164.043 322.937Z" fill="#BA68C8"/>
<path opacity="0.4" d="M164.043 322.937V308.649H243.985C244.254 308.649 252.835 313.126 256.631 315.062C256.802 315.156 256.945 315.295 257.044 315.463C257.144 315.631 257.196 315.822 257.196 316.018C257.196 316.213 257.144 316.405 257.044 316.573C256.945 316.741 256.802 316.879 256.631 316.973L209.292 343.792C208.957 343.975 208.584 344.076 208.203 344.088C207.822 344.099 207.443 344.019 207.099 343.856L164.043 322.937Z" fill="black"/>
<path d="M208.214 340.405L253.565 314.908V309.367L208.214 333.492V340.405Z" fill="#E0E0E0"/>
<path d="M164.043 322.937L175.907 315.999L164.043 308.624V322.937Z" fill="#BA68C8"/>
<path opacity="0.6" d="M164.043 322.937L175.907 315.999L164.043 308.624V322.937Z" fill="black"/>
<path d="M171.533 313.279V321.18L208.214 340.405V333.492L171.533 313.279Z" fill="#F5F5F5"/>
<path d="M164.043 308.65L206.688 334.07C207.155 334.349 207.685 334.504 208.228 334.52C208.772 334.535 209.31 334.412 209.792 334.16L256.798 309.535C256.964 309.445 257.104 309.313 257.204 309.153C257.304 308.993 257.361 308.809 257.369 308.62C257.377 308.432 257.335 308.244 257.248 308.076C257.162 307.908 257.033 307.765 256.875 307.662L213.96 279.767L164.043 308.65Z" fill="#BA68C8"/>
<path d="M181.755 278.638V281.588L162.876 292.246V289.296L181.755 278.638Z" fill="#BA68C8"/>
<path opacity="0.2" d="M181.755 278.638V281.588L162.876 292.246V289.296L181.755 278.638Z" fill="white"/>
<path d="M119.795 264.401L162.876 289.296V292.246L119.795 267.351V264.401Z" fill="#BA68C8"/>
<path opacity="0.4" d="M119.795 264.401L162.876 289.296V292.246L119.795 267.351V264.401Z" fill="white"/>
<path d="M138.674 253.743L181.755 278.638L162.876 289.296L119.795 264.401L138.674 253.743Z" fill="#BA68C8"/>
<path opacity="0.6" d="M138.674 253.743L181.755 278.638L162.876 289.296L119.795 264.401L138.674 253.743Z" fill="white"/>
<path d="M147.189 306.366L149.113 307.482V310.996C150.355 311.003 151.574 310.67 152.64 310.034L152.781 309.944C153.224 309.68 153.608 309.328 153.912 308.912C154.217 308.496 154.434 308.022 154.551 307.52C154.62 307.305 154.654 307.08 154.654 306.853V302.057L147.189 306.366Z" fill="#E0E0E0"/>
<path d="M63.3744 176.789L63.5283 176.7C64.5968 176.069 65.8148 175.737 67.0553 175.738C67.4474 175.731 67.8337 175.833 68.1711 176.033L151.294 223.821C152.315 224.412 153.163 225.261 153.753 226.283C154.342 227.305 154.653 228.464 154.654 229.644V302.057L147.19 306.366L68.2353 260.977C67.2141 260.386 66.3662 259.536 65.7764 258.515C65.1867 257.493 64.8758 256.334 64.875 255.154V180.073H61.5146C61.5165 179.412 61.6886 178.762 62.0144 178.187C62.3401 177.612 62.8085 177.131 63.3744 176.789Z" fill="#E6E6E6"/>
<path d="M153.937 226.63C154.407 227.565 154.653 228.597 154.655 229.644V302.057L147.191 306.367L144.395 304.802V232.594L153.937 226.63Z" fill="#E0E0E0"/>
<path d="M151.294 303.994V308.803C151.292 309.19 151.188 309.568 150.994 309.902C150.799 310.236 150.521 310.512 150.186 310.705C149.851 310.897 149.471 310.998 149.085 310.997C148.699 310.997 148.319 310.895 147.985 310.702L64.875 262.913C63.8538 262.322 63.0059 261.473 62.4161 260.451C61.8264 259.429 61.5155 258.27 61.5146 257.091V252.217L151.294 303.994Z" fill="#F0F0F0"/>
<path d="M61.5146 179.88C61.5146 179.493 61.6164 179.113 61.81 178.777C62.0036 178.442 62.282 178.163 62.6174 177.97C62.9528 177.776 63.3332 177.674 63.7205 177.674C64.1078 177.674 64.4883 177.776 64.8237 177.969L147.934 225.77C148.956 226.359 149.806 227.208 150.396 228.23C150.986 229.253 151.296 230.413 151.294 231.593V303.994L61.5146 252.165" fill="#F0F0F0"/>
<path d="M109.367 264.388L93.5273 256.385L97.4007 253.743L112.65 261.759L109.367 264.388Z" fill="#E0E0E0"/>
<path d="M93.528 256.372L84.3705 292.771C84.2298 293.335 84.2792 293.93 84.5111 294.464C84.743 294.997 85.1444 295.439 85.653 295.721L104.584 306.366C104.584 306.366 110.471 264.94 109.38 264.388L93.528 256.372Z" fill="#E6E6E6"/>
<path d="M114.549 298.222L108.033 294.271L106.776 303.108L114.549 298.222Z" fill="#F0F0F0"/>
<path d="M109.368 264.388L103.52 304.379C103.464 304.743 103.516 305.115 103.67 305.45C103.824 305.784 104.072 306.067 104.385 306.262C104.697 306.457 105.06 306.556 105.428 306.547C105.796 306.539 106.154 306.422 106.457 306.213L113.972 301.082C114.245 300.901 114.468 300.655 114.622 300.366C114.777 300.077 114.857 299.755 114.857 299.428V298.658C114.858 298.552 114.829 298.448 114.775 298.357C114.72 298.266 114.641 298.192 114.547 298.143C114.453 298.094 114.347 298.072 114.241 298.079C114.135 298.086 114.033 298.122 113.947 298.184L106.816 303.07L112.69 261.733L109.368 264.388Z" fill="#E0E0E0"/>
<path d="M108.957 244.008C108.957 247.509 106.495 248.933 103.455 247.176C101.858 246.131 100.529 244.725 99.5757 243.072C98.6221 241.419 98.0707 239.565 97.9658 237.659C97.9658 234.158 100.428 232.734 103.455 234.491C105.056 235.533 106.389 236.938 107.345 238.592C108.301 240.245 108.853 242.101 108.957 244.008Z" fill="#E0E0E0"/>
<path d="M47.0095 442.575L97.3756 413.73L57.3854 391.683L8.77637 420.297L47.0095 442.575Z" fill="white"/>
<path d="M48.7535 437.765C48.6726 437.762 48.5936 437.74 48.5226 437.701L19.2802 420.656C19.2217 420.631 19.1692 420.593 19.1261 420.547C19.0831 420.5 19.0505 420.444 19.0305 420.384C19.0105 420.323 19.0036 420.259 19.0103 420.196C19.0169 420.133 19.0369 420.072 19.069 420.017C19.101 419.962 19.1444 419.914 19.1962 419.877C19.2481 419.84 19.3072 419.815 19.3696 419.802C19.432 419.79 19.4964 419.791 19.5583 419.806C19.6203 419.82 19.6785 419.847 19.7291 419.886L48.9715 436.906C49.0231 436.935 49.0683 436.974 49.1047 437.021C49.141 437.068 49.1677 437.121 49.1832 437.179C49.1987 437.236 49.2027 437.296 49.195 437.354C49.1873 437.413 49.168 437.47 49.1382 437.521C49.1017 437.593 49.0467 437.653 48.979 437.696C48.9114 437.738 48.8335 437.762 48.7535 437.765Z" fill="#E0E0E0"/>
<path d="M53.4992 434.854C53.4277 434.872 53.3527 434.872 53.2812 434.854L24.0773 417.744C24.0272 417.715 23.9834 417.676 23.9485 417.63C23.9136 417.584 23.8882 417.531 23.8739 417.475C23.8596 417.419 23.8566 417.361 23.8651 417.303C23.8736 417.246 23.8934 417.191 23.9234 417.142C23.9514 417.09 23.9894 417.045 24.0351 417.009C24.0808 416.973 24.1333 416.946 24.1895 416.931C24.2457 416.915 24.3045 416.911 24.3623 416.919C24.4201 416.926 24.4759 416.945 24.5262 416.975L53.7814 434.02C53.8834 434.081 53.9569 434.181 53.9857 434.296C54.0146 434.411 53.9964 434.534 53.9353 434.636C53.8926 434.711 53.8282 434.772 53.7505 434.811C53.6729 434.85 53.5853 434.865 53.4992 434.854Z" fill="#E0E0E0"/>
<path d="M58.2193 432.07C58.1479 432.089 58.0727 432.089 58.0013 432.07L28.7461 414.973C28.6441 414.912 28.5706 414.813 28.5417 414.697C28.5129 414.582 28.531 414.459 28.5922 414.357C28.6202 414.306 28.6582 414.261 28.7039 414.225C28.7497 414.189 28.8022 414.162 28.8584 414.147C28.9146 414.131 28.9733 414.127 29.0311 414.135C29.089 414.142 29.1447 414.161 29.195 414.191L58.4502 431.249C58.5384 431.295 58.608 431.371 58.6473 431.462C58.6867 431.554 58.6934 431.656 58.6664 431.752C58.6394 431.848 58.5803 431.932 58.4989 431.99C58.4176 432.048 58.3189 432.076 58.2193 432.07Z" fill="#E0E0E0"/>
<path d="M63.029 429.21C62.9482 429.206 62.8692 429.184 62.7982 429.145L33.5558 412.1C33.4542 412.039 33.3801 411.94 33.3491 411.826C33.318 411.711 33.3323 411.589 33.3891 411.485C33.4181 411.433 33.4575 411.387 33.5047 411.351C33.5519 411.315 33.606 411.289 33.6637 411.275C33.7213 411.26 33.7813 411.258 33.84 411.267C33.8986 411.277 33.9547 411.299 34.0047 411.331L63.2471 428.376C63.2982 428.404 63.3432 428.442 63.3794 428.488C63.4156 428.533 63.4423 428.586 63.4578 428.642C63.4734 428.698 63.4775 428.757 63.4699 428.815C63.4624 428.873 63.4433 428.928 63.4138 428.979C63.3756 429.048 63.3199 429.105 63.2523 429.146C63.1848 429.186 63.1078 429.208 63.029 429.21Z" fill="#E0E0E0"/>
<path d="M67.8258 426.261C67.7487 426.259 67.6735 426.237 67.6077 426.196L38.3526 409.151C38.2505 409.09 38.177 408.991 38.1482 408.875C38.1193 408.76 38.1375 408.638 38.1986 408.536C38.2264 408.484 38.2645 408.439 38.3106 408.403C38.3567 408.367 38.4097 408.341 38.4663 408.327C38.523 408.312 38.582 408.31 38.6397 408.319C38.6973 408.329 38.7524 408.35 38.8014 408.382L68.0566 425.427C68.1067 425.456 68.1505 425.495 68.1854 425.541C68.2203 425.587 68.2457 425.64 68.26 425.696C68.2743 425.752 68.2773 425.811 68.2689 425.868C68.2604 425.925 68.2405 425.98 68.2106 426.03C68.1723 426.099 68.1166 426.156 68.0491 426.197C67.9815 426.237 67.9045 426.259 67.8258 426.261Z" fill="#E0E0E0"/>
<path d="M72.6353 423.349C72.5544 423.346 72.4754 423.324 72.4044 423.285L43.1621 406.24C43.1036 406.215 43.051 406.177 43.008 406.131C42.9649 406.084 42.9323 406.028 42.9123 405.968C42.8924 405.907 42.8855 405.843 42.8921 405.78C42.8987 405.717 42.9187 405.656 42.9508 405.601C42.9829 405.546 43.0263 405.498 43.0781 405.461C43.1299 405.424 43.189 405.399 43.2514 405.386C43.3139 405.374 43.3782 405.375 43.4402 405.39C43.5022 405.404 43.5604 405.431 43.611 405.47L72.8533 422.515C72.9045 422.543 72.9495 422.581 72.9857 422.627C73.0219 422.673 73.0485 422.725 73.0641 422.781C73.0796 422.838 73.0837 422.896 73.0762 422.954C73.0686 423.012 73.0495 423.068 73.0201 423.118C72.9809 423.186 72.9249 423.243 72.8576 423.283C72.7903 423.324 72.7138 423.346 72.6353 423.349Z" fill="#E0E0E0"/>
<path d="M77.4322 420.437C77.3552 420.435 77.2799 420.413 77.2142 420.373L47.959 403.328C47.857 403.266 47.7835 403.167 47.7546 403.052C47.7258 402.936 47.7439 402.814 47.8051 402.712C47.8342 402.662 47.873 402.618 47.9192 402.583C47.9654 402.548 48.0181 402.523 48.0742 402.509C48.1303 402.494 48.1887 402.491 48.246 402.5C48.3033 402.508 48.3583 402.528 48.4079 402.558L77.6631 419.603C77.7132 419.632 77.7569 419.671 77.7919 419.717C77.8268 419.764 77.8521 419.816 77.8665 419.873C77.8808 419.929 77.8838 419.987 77.8753 420.044C77.8668 420.102 77.847 420.157 77.817 420.206C77.781 420.277 77.7258 420.336 77.6577 420.377C77.5897 420.418 77.5116 420.438 77.4322 420.437Z" fill="#E0E0E0"/>
<path d="M82.2408 417.526C82.1599 417.522 82.0809 417.5 82.0099 417.462L52.7675 400.416C52.709 400.391 52.6565 400.354 52.6134 400.307C52.5704 400.26 52.5378 400.205 52.5178 400.145C52.4978 400.084 52.4909 400.02 52.4976 399.957C52.5042 399.894 52.5242 399.832 52.5563 399.777C52.5883 399.722 52.6317 399.675 52.6835 399.638C52.7354 399.601 52.7945 399.576 52.8569 399.563C52.9193 399.551 52.9837 399.552 53.0456 399.566C53.1076 399.581 53.1658 399.608 53.2164 399.647L82.4588 416.692C82.5104 416.721 82.5556 416.76 82.592 416.807C82.6283 416.854 82.655 416.908 82.6705 416.965C82.686 417.022 82.69 417.082 82.6823 417.141C82.6746 417.2 82.6553 417.256 82.6255 417.308C82.5857 417.374 82.5293 417.429 82.4619 417.467C82.3944 417.506 82.3183 417.526 82.2408 417.526Z" fill="#E0E0E0"/>
<path d="M87.0377 414.615C86.9606 414.613 86.8854 414.591 86.8197 414.551L57.5645 397.505C57.4625 397.444 57.3889 397.345 57.3601 397.229C57.3312 397.114 57.3494 396.992 57.4106 396.89C57.4397 396.84 57.4785 396.796 57.5247 396.761C57.5709 396.726 57.6236 396.701 57.6797 396.686C57.7358 396.672 57.7942 396.669 57.8515 396.678C57.9088 396.686 57.9638 396.706 58.0134 396.736L87.2686 413.82C87.3706 413.881 87.4441 413.98 87.4729 414.095C87.5018 414.211 87.4836 414.333 87.4225 414.435C87.3789 414.495 87.3208 414.544 87.2534 414.575C87.1861 414.606 87.1118 414.62 87.0377 414.615Z" fill="#E0E0E0"/>
<path d="M8.93066 420.155L47.151 442.433V476.678L8.93066 455.567V420.155Z" fill="#FAFAFA"/>
<path d="M47.1504 442.433L97.5165 413.588V447.435L47.1504 476.677V442.433Z" fill="#E6E6E6"/>
<path d="M38.9287 445.78L47.1499 450.577L64.939 440.394L47.1499 453.181L38.9287 445.78Z" fill="#E0E0E0"/>
<path d="M38.9287 457.696L47.1499 462.493L57.2052 456.747L47.1499 465.097L38.9287 457.696Z" fill="#E0E0E0"/>
<path d="M51.9346 452.181L58.2191 454.053L63.0287 446.781L51.9346 452.181Z" fill="#E0E0E0"/>
<path d="M51.9346 452.181L70.9036 441.382L61.4255 452.181H51.9346Z" fill="white"/>
<path d="M80.3301 428.967L84.7806 430.3L88.1794 425.145L80.3301 428.967Z" fill="#E0E0E0"/>
<path d="M80.3301 428.966L93.7585 421.322L87.0379 428.966H80.3301Z" fill="white"/>
<path d="M70.7236 454.426L75.1741 455.759L78.5729 450.604L70.7236 454.426Z" fill="#E0E0E0"/>
<path d="M70.7236 454.425L84.152 446.781L77.4314 454.425H70.7236Z" fill="white"/>
<path d="M124.976 521.272L81.0099 495.621C80.9114 495.564 80.8298 495.481 80.7731 495.382C80.7164 495.283 80.6865 495.171 80.6865 495.057C80.6865 494.943 80.7164 494.831 80.7731 494.732C80.8298 494.633 80.9114 494.55 81.0099 494.493L129.747 464.455L124.976 521.272Z" fill="#BA68C8"/>
<path opacity="0.4" d="M124.976 521.272L81.0099 495.621C80.9114 495.564 80.8298 495.481 80.7731 495.382C80.7164 495.283 80.6865 495.171 80.6865 495.057C80.6865 494.943 80.7164 494.831 80.7731 494.732C80.8298 494.633 80.9114 494.55 81.0099 494.493L129.747 464.455L124.976 521.272Z" fill="black"/>
<path d="M124.977 521.272L173.996 492.889V479.986L124.977 508.254V521.272Z" fill="#BA68C8"/>
<path opacity="0.2" d="M124.977 521.272L173.996 492.889V479.986L124.977 508.254V521.272Z" fill="black"/>
<path d="M164.428 494.877L145.074 506.061C143.792 506.805 142.74 506.061 142.74 504.291C142.752 503.418 142.97 502.56 143.375 501.787C143.781 501.014 144.363 500.347 145.074 499.841L164.428 488.67C165.711 487.926 166.763 488.67 166.763 490.427C166.748 491.299 166.529 492.156 166.124 492.929C165.718 493.702 165.138 494.369 164.428 494.877Z" fill="#E6E6E6"/>
<path d="M139.892 505.933C139.842 506.868 139.571 507.777 139.103 508.588C138.635 509.399 137.983 510.089 137.199 510.601C135.724 511.46 134.519 510.755 134.519 509.049C134.569 508.116 134.838 507.207 135.303 506.396C135.769 505.585 136.418 504.895 137.199 504.381C138.687 503.521 139.892 504.214 139.892 505.933Z" fill="#E6E6E6"/>
<path d="M124.977 508.254L81.1774 487.669C81.0727 487.613 80.9853 487.53 80.9243 487.429C80.8633 487.327 80.8311 487.211 80.8311 487.092C80.8311 486.974 80.8633 486.857 80.9243 486.756C80.9853 486.654 81.0727 486.571 81.1774 486.515L128.145 458.581C128.41 458.421 128.711 458.33 129.02 458.316C129.329 458.303 129.637 458.367 129.915 458.504L174.06 479.987L124.977 508.254Z" fill="#BA68C8"/>
<path d="M83.998 489.003V494.531L120.282 515.052V506.048L83.998 489.003Z" fill="#F5F5F5"/>
<path d="M120.282 515.051L124.976 512.127V508.254L120.282 506.048V515.051Z" fill="#E0E0E0"/>
<path d="M80.8047 482.334V468.033H160.734C161.016 468.033 169.596 472.497 173.393 474.446C173.564 474.542 173.706 474.682 173.805 474.851C173.904 475.02 173.956 475.212 173.956 475.408C173.956 475.604 173.904 475.796 173.805 475.965C173.706 476.134 173.564 476.274 173.393 476.37L126.028 503.15C125.695 503.339 125.322 503.444 124.939 503.456C124.557 503.467 124.177 503.384 123.835 503.214L80.8047 482.334Z" fill="#BA68C8"/>
<path opacity="0.4" d="M80.8047 482.334V468.033H160.734C161.016 468.033 169.596 472.497 173.393 474.446C173.564 474.542 173.706 474.682 173.805 474.851C173.904 475.02 173.956 475.212 173.956 475.408C173.956 475.604 173.904 475.796 173.805 475.965C173.706 476.134 173.564 476.274 173.393 476.37L126.028 503.15C125.695 503.339 125.322 503.444 124.939 503.456C124.557 503.467 124.177 503.384 123.835 503.214L80.8047 482.334Z" fill="black"/>
<path d="M124.977 499.814L170.328 474.304V468.764L124.977 492.889V499.814Z" fill="#E0E0E0"/>
<path d="M80.8047 482.334L92.6684 475.395L80.8047 468.033V482.334Z" fill="#BA68C8"/>
<path opacity="0.6" d="M80.8047 482.334L92.6684 475.395L80.8047 468.033V482.334Z" fill="black"/>
<path d="M88.2949 472.676V480.576L124.976 499.815V492.889L88.2949 472.676Z" fill="#F5F5F5"/>
<path d="M80.8047 468.033L123.45 493.441C123.913 493.722 124.442 493.878 124.983 493.894C125.525 493.91 126.062 493.784 126.541 493.53L173.559 468.969C173.722 468.873 173.856 468.735 173.949 468.571C174.042 468.407 174.091 468.222 174.091 468.033C174.091 467.844 174.042 467.659 173.949 467.495C173.856 467.331 173.722 467.193 173.559 467.097L130.658 439.214L80.8047 468.033Z" fill="#BA68C8"/>
<path d="M124.976 489.003L81.0099 463.352C80.9114 463.294 80.8298 463.212 80.7731 463.113C80.7164 463.014 80.6865 462.902 80.6865 462.787C80.6865 462.673 80.7164 462.561 80.7731 462.462C80.8298 462.363 80.9114 462.281 81.0099 462.223L129.747 432.186L124.976 489.003Z" fill="#BA68C8"/>
<path opacity="0.4" d="M124.976 489.003L81.0099 463.352C80.9114 463.294 80.8298 463.212 80.7731 463.113C80.7164 463.014 80.6865 462.902 80.6865 462.787C80.6865 462.673 80.7164 462.561 80.7731 462.462C80.8298 462.363 80.9114 462.281 81.0099 462.223L129.747 432.186L124.976 489.003Z" fill="black"/>
<path d="M124.977 489.003L173.996 460.62V447.718L124.977 475.985V489.003Z" fill="#BA68C8"/>
<path opacity="0.2" d="M124.977 489.003L173.996 460.62V447.718L124.977 475.985V489.003Z" fill="black"/>
<path d="M164.428 462.557L145.074 473.728C143.792 474.472 142.74 473.728 142.74 471.971C142.752 471.098 142.97 470.24 143.375 469.466C143.781 468.693 144.363 468.026 145.074 467.52L164.428 456.336C165.711 455.593 166.763 456.336 166.763 458.106C166.748 458.979 166.529 459.836 166.124 460.609C165.718 461.381 165.138 462.049 164.428 462.557Z" fill="#E6E6E6"/>
<path d="M139.892 473.664C139.844 474.598 139.574 475.506 139.106 476.316C138.638 477.125 137.984 477.812 137.199 478.32C135.724 479.179 134.519 478.486 134.519 476.768C134.569 475.836 134.838 474.929 135.304 474.12C135.769 473.311 136.419 472.624 137.199 472.112C138.687 471.253 139.892 471.945 139.892 473.664Z" fill="#E6E6E6"/>
<path d="M124.976 475.985L81.1771 455.4C81.0728 455.342 80.9859 455.257 80.9254 455.155C80.8649 455.052 80.833 454.935 80.833 454.816C80.833 454.697 80.8649 454.58 80.9254 454.477C80.9859 454.375 81.0728 454.29 81.1771 454.233L128.144 426.298C128.41 426.14 128.712 426.051 129.021 426.04C129.33 426.029 129.638 426.096 129.914 426.234L174.06 447.717L124.976 475.985Z" fill="#BA68C8"/>
<path d="M83.998 456.721V462.261L120.282 482.782V473.779L83.998 456.721Z" fill="#F5F5F5"/>
<path d="M120.282 482.783L124.976 479.846V475.985L120.282 473.779V482.783Z" fill="#E0E0E0"/>
<path d="M80.8691 449.128V434.814H160.798C161.068 434.814 169.648 439.291 173.444 441.227C173.616 441.321 173.758 441.46 173.858 441.628C173.957 441.796 174.01 441.987 174.01 442.183C174.01 442.378 173.957 442.57 173.858 442.738C173.758 442.906 173.616 443.044 173.444 443.138L126.067 469.931C125.729 470.104 125.356 470.195 124.976 470.195C124.597 470.195 124.223 470.104 123.886 469.931L80.8691 449.128Z" fill="#BA68C8"/>
<path opacity="0.4" d="M80.8691 449.128V434.814H160.798C161.068 434.814 169.648 439.291 173.444 441.227C173.616 441.321 173.758 441.46 173.858 441.628C173.957 441.796 174.01 441.987 174.01 442.183C174.01 442.378 173.957 442.57 173.858 442.738C173.758 442.906 173.616 443.044 173.444 443.138L126.067 469.931C125.729 470.104 125.356 470.195 124.976 470.195C124.597 470.195 124.223 470.104 123.886 469.931L80.8691 449.128Z" fill="black"/>
<path d="M125.027 466.597L170.391 441.087V435.546L125.027 459.684V466.597Z" fill="#E0E0E0"/>
<path d="M80.8691 449.128L92.72 442.189L80.8691 434.814V449.128Z" fill="#BA68C8"/>
<path opacity="0.6" d="M80.8691 449.128L92.72 442.189L80.8691 434.814V449.128Z" fill="black"/>
<path d="M88.3467 439.471V447.371L125.028 466.597V459.684L88.3467 439.471Z" fill="#F5F5F5"/>
<path d="M80.8691 434.815L123.514 460.235C123.978 460.514 124.507 460.669 125.048 460.685C125.589 460.7 126.126 460.577 126.605 460.325L173.624 435.7C173.789 435.609 173.929 435.476 174.027 435.315C174.126 435.155 174.182 434.971 174.188 434.782C174.195 434.593 174.152 434.406 174.064 434.238C173.977 434.071 173.847 433.929 173.688 433.827L130.774 405.932L80.8691 434.815Z" fill="#BA68C8"/>
<path d="M125.028 455.785L81.0743 430.134C80.9759 430.076 80.8943 429.994 80.8375 429.895C80.7808 429.796 80.751 429.684 80.751 429.57C80.751 429.455 80.7808 429.343 80.8375 429.244C80.8943 429.145 80.9759 429.063 81.0743 429.005L129.812 398.98L125.028 455.785Z" fill="#BA68C8"/>
<path opacity="0.4" d="M125.028 455.785L81.0743 430.134C80.9759 430.076 80.8943 429.994 80.8375 429.895C80.7808 429.796 80.751 429.684 80.751 429.57C80.751 429.455 80.7808 429.343 80.8375 429.244C80.8943 429.145 80.9759 429.063 81.0743 429.005L129.812 398.98L125.028 455.785Z" fill="black"/>
<path d="M125.027 455.784L174.047 427.401V414.512L125.027 442.767V455.784Z" fill="#BA68C8"/>
<path opacity="0.2" d="M125.027 455.784L174.047 427.401V414.512L125.027 442.767V455.784Z" fill="black"/>
<path d="M164.492 429.402L145.125 440.573C143.843 441.317 142.804 440.573 142.804 438.816C142.816 437.942 143.032 437.084 143.435 436.309C143.839 435.534 144.417 434.864 145.125 434.353L164.492 423.181C165.774 422.437 166.813 423.181 166.813 424.939C166.801 425.812 166.584 426.67 166.181 427.445C165.778 428.22 165.2 428.89 164.492 429.402Z" fill="#E6E6E6"/>
<path d="M139.957 440.459C139.905 441.392 139.634 442.299 139.166 443.108C138.698 443.917 138.047 444.604 137.264 445.114C135.776 445.974 134.57 445.281 134.57 443.562C134.621 442.627 134.892 441.718 135.36 440.907C135.827 440.095 136.48 439.406 137.264 438.894C138.751 438.047 139.957 438.74 139.957 440.459Z" fill="#E6E6E6"/>
<path d="M125.028 442.766L81.2415 422.245C81.1373 422.188 81.0504 422.103 80.9899 422C80.9294 421.898 80.8975 421.781 80.8975 421.662C80.8975 421.542 80.9294 421.426 80.9899 421.323C81.0504 421.22 81.1373 421.136 81.2415 421.078L128.209 393.144C128.475 392.987 128.776 392.898 129.084 392.885C129.393 392.871 129.7 392.934 129.979 393.067L174.06 414.511L125.028 442.766Z" fill="#BA68C8"/>
<path d="M84.0625 423.516V429.043L120.346 449.577V440.561L84.0625 423.516Z" fill="#F5F5F5"/>
<path d="M120.347 449.577L125.028 446.64V442.767L120.347 440.561V449.577Z" fill="#E0E0E0"/>
<path d="M123.809 405.598L174.175 376.753L134.172 354.706L85.5762 383.32L123.809 405.598Z" fill="#FAFAFA"/>
<path d="M125.54 400.776C125.469 400.794 125.394 400.794 125.322 400.776L96.0799 383.679C96.0283 383.65 95.983 383.611 95.9467 383.564C95.9103 383.517 95.8836 383.463 95.8681 383.406C95.8526 383.349 95.8486 383.289 95.8564 383.23C95.8641 383.172 95.8834 383.115 95.9131 383.064C95.9422 383.014 95.981 382.97 96.0272 382.935C96.0734 382.9 96.1261 382.875 96.1822 382.86C96.2384 382.846 96.2968 382.843 96.3541 382.851C96.4114 382.86 96.4664 382.88 96.5159 382.91L125.771 399.955C125.822 399.983 125.867 400.021 125.903 400.067C125.94 400.112 125.966 400.165 125.982 400.221C125.997 400.277 126.002 400.336 125.994 400.394C125.986 400.452 125.967 400.507 125.938 400.558C125.895 400.624 125.836 400.679 125.767 400.717C125.697 400.755 125.619 400.775 125.54 400.776Z" fill="#E0E0E0"/>
<path d="M130.35 397.864C130.279 397.883 130.204 397.883 130.132 397.864L100.877 380.819C100.775 380.757 100.701 380.659 100.67 380.545C100.639 380.43 100.654 380.308 100.71 380.203C100.739 380.151 100.779 380.106 100.826 380.07C100.873 380.034 100.927 380.008 100.985 379.993C101.043 379.979 101.103 379.977 101.161 379.986C101.22 379.996 101.276 380.017 101.326 380.049L130.568 397.095C130.655 397.141 130.724 397.215 130.763 397.305C130.803 397.396 130.81 397.496 130.785 397.592C130.76 397.687 130.703 397.77 130.624 397.829C130.545 397.888 130.449 397.918 130.35 397.915V397.864Z" fill="#E0E0E0"/>
<path d="M135.019 395.094C134.948 395.112 134.873 395.112 134.801 395.094L105.546 378.048C105.444 377.987 105.37 377.888 105.342 377.772C105.313 377.657 105.331 377.535 105.392 377.433C105.421 377.383 105.46 377.339 105.506 377.304C105.552 377.269 105.605 377.244 105.661 377.229C105.717 377.215 105.776 377.212 105.833 377.221C105.89 377.229 105.945 377.249 105.995 377.279L135.25 394.324C135.352 394.385 135.426 394.485 135.454 394.6C135.483 394.715 135.465 394.838 135.404 394.94C135.358 394.995 135.298 395.038 135.231 395.065C135.164 395.092 135.091 395.102 135.019 395.094Z" fill="#E0E0E0"/>
<path d="M139.829 392.183C139.748 392.179 139.669 392.157 139.598 392.119L110.355 375.073C110.304 375.045 110.259 375.007 110.223 374.962C110.187 374.916 110.16 374.863 110.145 374.807C110.129 374.751 110.125 374.692 110.133 374.634C110.14 374.577 110.159 374.521 110.189 374.471C110.218 374.419 110.257 374.374 110.304 374.337C110.351 374.301 110.405 374.274 110.462 374.259C110.519 374.243 110.579 374.239 110.638 374.247C110.696 374.255 110.753 374.274 110.804 374.304L140.047 391.349C140.148 391.41 140.222 391.509 140.253 391.623C140.285 391.738 140.27 391.86 140.213 391.965C140.173 392.03 140.116 392.085 140.049 392.123C139.982 392.161 139.906 392.181 139.829 392.183Z" fill="#E0E0E0"/>
<path d="M144.626 389.271C144.548 389.276 144.471 389.253 144.408 389.207L115.152 372.161C115.102 372.132 115.059 372.093 115.024 372.047C114.989 372.001 114.963 371.948 114.949 371.892C114.935 371.836 114.932 371.778 114.94 371.72C114.949 371.663 114.969 371.608 114.999 371.559C115.027 371.507 115.065 371.462 115.11 371.426C115.156 371.39 115.209 371.363 115.265 371.348C115.321 371.332 115.38 371.328 115.438 371.336C115.495 371.343 115.551 371.362 115.601 371.392L144.857 388.437C144.959 388.498 145.032 388.598 145.061 388.713C145.09 388.828 145.072 388.951 145.01 389.053C144.972 389.12 144.915 389.176 144.848 389.214C144.78 389.252 144.703 389.272 144.626 389.271Z" fill="#E0E0E0"/>
<path d="M149.421 386.36C149.35 386.383 149.274 386.383 149.203 386.36L119.961 369.315C119.91 369.287 119.865 369.249 119.829 369.203C119.792 369.157 119.766 369.105 119.75 369.049C119.735 368.992 119.73 368.934 119.738 368.876C119.746 368.818 119.765 368.762 119.794 368.712C119.856 368.61 119.954 368.536 120.069 368.505C120.183 368.474 120.305 368.489 120.41 368.545L149.691 385.526C149.792 385.588 149.866 385.686 149.897 385.801C149.928 385.916 149.914 386.038 149.857 386.142C149.811 386.214 149.746 386.273 149.669 386.311C149.593 386.35 149.507 386.367 149.421 386.36Z" fill="#E0E0E0"/>
<path d="M154.232 383.448C154.154 383.453 154.077 383.43 154.014 383.384L124.759 366.365C124.708 366.337 124.663 366.299 124.626 366.253C124.59 366.207 124.564 366.155 124.548 366.099C124.532 366.042 124.528 365.984 124.536 365.926C124.543 365.868 124.563 365.812 124.592 365.762C124.653 365.66 124.752 365.586 124.866 365.555C124.981 365.524 125.103 365.538 125.208 365.595L154.45 382.64C154.502 382.67 154.547 382.709 154.583 382.756C154.62 382.803 154.646 382.856 154.662 382.913C154.677 382.971 154.681 383.03 154.674 383.089C154.666 383.148 154.647 383.205 154.617 383.256C154.575 383.319 154.517 383.369 154.45 383.403C154.382 383.437 154.307 383.452 154.232 383.448Z" fill="#E0E0E0"/>
<path d="M159.042 380.537C158.966 380.555 158.887 380.555 158.811 380.537L129.568 363.479C129.517 363.451 129.472 363.413 129.436 363.367C129.4 363.321 129.373 363.269 129.358 363.213C129.342 363.157 129.338 363.098 129.345 363.04C129.353 362.982 129.372 362.926 129.402 362.876C129.463 362.774 129.561 362.7 129.676 362.669C129.791 362.638 129.913 362.653 130.017 362.709L159.26 379.755C159.361 379.816 159.435 379.914 159.466 380.029C159.497 380.144 159.483 380.266 159.426 380.37C159.38 380.426 159.321 380.471 159.254 380.5C159.187 380.529 159.114 380.542 159.042 380.537Z" fill="#E0E0E0"/>
<path d="M163.799 377.626C163.723 377.644 163.644 377.644 163.569 377.626L134.326 360.58C134.275 360.551 134.23 360.512 134.194 360.465C134.157 360.418 134.131 360.364 134.115 360.307C134.1 360.25 134.096 360.19 134.103 360.132C134.111 360.073 134.13 360.016 134.159 359.965C134.189 359.913 134.228 359.868 134.275 359.832C134.322 359.796 134.376 359.769 134.433 359.754C134.49 359.738 134.55 359.734 134.608 359.742C134.667 359.75 134.724 359.769 134.775 359.798L164.017 376.843C164.069 376.873 164.114 376.912 164.151 376.959C164.187 377.006 164.214 377.059 164.229 377.116C164.245 377.174 164.249 377.233 164.241 377.292C164.233 377.351 164.214 377.408 164.184 377.459C164.139 377.517 164.08 377.562 164.013 377.592C163.946 377.621 163.872 377.632 163.799 377.626Z" fill="#E0E0E0"/>
<path d="M85.7178 383.166L123.951 405.457V439.701L85.7178 418.59V383.166Z" fill="#F0F0F0"/>
<path d="M123.95 405.457L174.316 376.6V410.459L123.95 439.702V405.457Z" fill="#E6E6E6"/>
<path d="M115.729 408.805L123.951 413.589L141.74 403.405L123.951 416.192L115.729 408.805Z" fill="#E0E0E0"/>
<path d="M115.729 420.72L123.951 425.516L133.993 419.758L123.951 428.12L115.729 420.72Z" fill="#E0E0E0"/>
<path d="M128.734 415.204L135.019 417.077L139.829 409.805L128.734 415.204Z" fill="#E0E0E0"/>
<path d="M128.734 415.205L147.703 404.393L138.212 415.205H128.734Z" fill="white"/>
<path d="M157.117 391.99L161.568 393.311L164.966 388.168L157.117 391.99Z" fill="#E0E0E0"/>
<path d="M157.117 391.99L170.546 384.333L163.838 391.99H157.117Z" fill="white"/>
<path d="M147.524 417.449L151.975 418.77L155.374 413.627L147.524 417.449Z" fill="#E0E0E0"/>
<path d="M147.524 417.449L160.953 409.805L154.232 417.449H147.524Z" fill="white"/>
<path d="M99.4403 418.514L96.1826 419.489L93.6816 415.705L99.4403 418.514Z" fill="#E0E0E0"/>
<path d="M99.4399 418.513L89.5898 412.896L94.5149 418.513H99.4399Z" fill="white"/>
<path d="M112.266 405.072L107.816 406.393L104.417 401.25L112.266 405.072Z" fill="#E0E0E0"/>
<path d="M112.266 405.072L98.8379 397.428L105.558 405.072H112.266Z" fill="white"/>
<path d="M425.403 474.497L421.132 472.715L422.235 467.533L425.403 474.497Z" fill="#37474F"/>
<path d="M430.213 460.556L432.034 468.7L425.403 474.497L422.235 467.533L430.213 460.556Z" fill="#455A64"/>
<path d="M411.924 452.103C410.659 455.478 409.756 458.978 409.23 462.543C408.346 467.599 406.001 472.285 402.484 476.023C399.367 478.896 393.801 485.514 403.459 486.694C413.45 487.977 421.825 479.666 421.953 475.087C422.081 470.508 423.3 466.917 425.801 464.826C428.302 462.736 430.251 460.594 430.251 460.594C430.251 460.594 425.801 444.613 421.992 445.511C418.182 446.409 411.924 452.103 411.924 452.103Z" fill="#263238"/>
<path d="M415.783 436.469C412.91 432.134 409.665 427.03 407.049 422.361C400.893 411.28 391.568 393.683 382.424 390.169V315.46L347.307 313.844C347.307 313.844 335.764 354.77 352.168 387.668C363.891 411.229 389.362 435.79 402.816 447.82C407.023 447.166 414.719 444.742 415.783 436.469Z" fill="#455A64"/>
<path d="M422.877 446.768C422.877 446.768 419.67 442.343 415.771 436.508C414.707 444.78 407.011 447.166 402.805 447.858C408.14 452.617 411.616 455.426 411.616 455.426C411.616 455.426 423.056 456.977 422.877 446.768Z" fill="white"/>
<path d="M350.847 384.782L360.261 338.328C360.261 338.328 353.233 334.224 353.233 323.373C353.233 323.373 352.348 333.839 357.08 341.406L348.987 380.242C349.552 381.755 350.18 383.281 350.847 384.782Z" fill="#37474F"/>
<path d="M382.424 390.13V387.437L377.986 390.309L369.804 402.968L369.034 412.908C372.253 416.871 375.614 420.719 378.961 424.361L379.628 408.073L385.784 391.99C384.751 391.225 383.621 390.6 382.424 390.13Z" fill="#37474F"/>
<path d="M350.116 513.436L345.781 510.973L350.116 505.228V513.436Z" fill="#37474F"/>
<path d="M356.427 502.419V509.691L350.117 513.436V505.228L356.427 502.419Z" fill="#455A64"/>
<path d="M342.729 487.002C342.729 487.002 340.266 486.001 337.919 494.556C335.572 503.111 325.85 508.664 323.388 510.152C320.925 511.64 314.41 517.847 323.388 521.054C332.366 524.26 343.793 519.54 346.474 514.141C349.154 508.741 350.527 505.458 356.414 502.418V491.504C356.414 489.4 354.208 487.874 352.81 487.515C351.412 487.156 342.729 487.002 342.729 487.002Z" fill="#263238"/>
<path d="M392.8 313.844L353.233 311.061V323.373C353.233 334.224 360.261 338.328 360.261 338.328L348.295 397.326C347.716 400.17 347.322 403.049 347.115 405.944L341.921 479.974C343.879 481.675 346.244 482.841 348.785 483.358C351.327 483.875 353.96 483.725 356.427 482.924C359.12 474.677 363.712 460.902 369.124 445.845C375.639 427.671 375.934 415.063 375.678 409.933C375.581 408.136 375.901 406.34 376.614 404.687C378.769 399.685 384.014 387.527 392.8 367.019C409.166 328.927 392.8 313.844 392.8 313.844Z" fill="#455A64"/>
<path d="M341.921 480.025L341.177 490.658C341.844 491.741 342.793 492.621 343.923 493.204C345.053 493.787 346.321 494.051 347.59 493.967C352.284 493.967 353.925 490.927 353.925 490.927C353.925 490.927 354.862 487.964 356.491 482.975C354.015 483.789 351.37 483.945 348.815 483.427C346.261 482.91 343.885 481.738 341.921 480.025Z" fill="white"/>
<path d="M357.171 256.859C357.171 256.859 346.115 257.283 342.254 265.388C338.394 273.494 332.879 289.872 332.879 289.872L347.705 293.207L357.171 256.859Z" fill="#BA68C8"/>
<path opacity="0.2" d="M357.171 256.859C357.171 256.859 346.115 257.283 342.254 265.388C338.394 273.494 332.879 289.872 332.879 289.872L347.705 293.207L357.171 256.859Z" fill="white"/>
<path d="M380.809 258.526L392.8 260.604V287.538L389.055 301.851C389.055 301.851 389.761 309.547 392.8 313.805C392.8 313.805 371.459 329.991 347.308 313.805C347.308 313.805 348.244 299.696 348.244 295.746C348.244 295.746 340.062 290.821 340.87 283.318C341.678 275.815 357.171 256.821 357.171 256.821L365.687 256.705L380.809 258.526Z" fill="#BA68C8"/>
<path opacity="0.4" d="M380.809 258.526L392.8 260.604V287.538L389.055 301.851C389.055 301.851 389.761 309.547 392.8 313.805C392.8 313.805 371.459 329.991 347.308 313.805C347.308 313.805 348.244 299.696 348.244 295.746C348.244 295.746 340.062 290.821 340.87 283.318C341.678 275.815 357.171 256.821 357.171 256.821L365.687 256.705L380.809 258.526Z" fill="white"/>
<path d="M360.197 203.479C360.197 203.479 349.834 199.888 347.307 210.495C344.781 221.102 352.579 231.388 340.895 234.864C340.895 234.864 347.782 240.597 353.836 229.9L358.966 251.704C358.966 251.704 358.966 252.896 357.157 253.807C357.157 253.807 386.656 260.348 392.235 245.663C393.02 246.51 393.555 247.557 393.781 248.688C394.007 249.82 393.916 250.992 393.518 252.076C393.518 252.076 402.201 248.561 399.764 237.313C399.764 237.313 406.626 237.121 408.255 231.529C408.255 231.529 397.276 232.055 397.34 219.986C397.417 205.98 390.042 208.007 390.042 208.007C390.042 208.007 381.026 194.578 360.197 203.479Z" fill="#263238"/>
<path d="M365.687 247.394V256.744C365.687 256.744 357.286 271.224 360.557 272.135C366.816 273.892 380.744 258.501 380.744 258.501V238.75L365.687 247.394Z" fill="white"/>
<path d="M380.641 235.62V236.172C377.268 249.459 368.508 252.357 365.687 253.037L365.584 232.516L380.205 232.452L380.641 235.62Z" fill="#D7D7D7"/>
<path d="M366.635 206.045C361.056 206.506 349.449 210.585 349.27 225.283C349.09 239.981 351.347 251.229 358.979 251.691C366.61 252.153 383.668 245.278 384.45 226.168C385.233 207.058 372.086 205.57 366.635 206.045Z" fill="white"/>
<path d="M359.582 231.195L359.711 239.84L354.632 238.365L359.582 231.195Z" fill="#D7D7D7"/>
<path d="M367.175 230.965C367.137 231.406 366.935 231.818 366.608 232.118C366.282 232.418 365.854 232.584 365.411 232.584C364.968 232.584 364.54 232.418 364.214 232.118C363.887 231.818 363.685 231.406 363.648 230.965C363.644 230.496 363.825 230.045 364.151 229.709C364.478 229.373 364.923 229.179 365.392 229.169C365.628 229.166 365.862 229.21 366.081 229.299C366.3 229.388 366.498 229.52 366.665 229.688C366.831 229.856 366.962 230.055 367.05 230.274C367.137 230.494 367.18 230.729 367.175 230.965Z" fill="#263238"/>
<path d="M355.581 229.9C355.586 230.25 355.487 230.594 355.297 230.887C355.106 231.181 354.833 231.412 354.512 231.551C354.19 231.689 353.835 231.729 353.491 231.666C353.147 231.603 352.829 231.439 352.578 231.195C352.327 230.951 352.153 230.638 352.08 230.296C352.007 229.954 352.037 229.597 352.166 229.272C352.295 228.947 352.518 228.667 352.806 228.468C353.094 228.27 353.435 228.161 353.785 228.156C354.018 228.151 354.25 228.192 354.466 228.277C354.683 228.362 354.881 228.49 355.048 228.652C355.215 228.814 355.348 229.008 355.44 229.223C355.531 229.437 355.579 229.667 355.581 229.9Z" fill="#263238"/>
<path d="M351.617 226.284L355.029 224.193C355.029 224.193 353.747 222.833 352.387 223.68C352.011 223.985 351.736 224.398 351.598 224.862C351.461 225.327 351.468 225.823 351.617 226.284Z" fill="#BA68C8"/>
<path d="M351.617 226.284L355.029 224.193C355.029 224.193 353.747 222.833 352.387 223.68C352.011 223.985 351.736 224.398 351.598 224.862C351.461 225.327 351.468 225.823 351.617 226.284Z" fill="#263238"/>
<path d="M375.845 230.17C375.845 230.17 375.498 236.364 379.064 236.364H386.054V224.552C386.054 211.303 376.011 197.464 354.631 208.404C354.631 208.404 353.618 226.091 375.845 230.17Z" fill="#263238"/>
<path d="M379.039 235.633C379.006 234.309 379.269 232.994 379.808 231.785C380.073 231.015 380.558 230.339 381.203 229.842C381.848 229.344 382.626 229.048 383.438 228.989C387.606 228.925 388.119 232.939 388.055 234.363C387.863 238.108 384.798 242.122 379.077 242.212L379.039 235.633Z" fill="white"/>
<path d="M364.212 242.571C364.212 242.858 364.127 243.138 363.968 243.377C363.809 243.615 363.582 243.801 363.317 243.91C363.053 244.02 362.761 244.049 362.48 243.993C362.199 243.937 361.941 243.799 361.738 243.596C361.535 243.393 361.397 243.135 361.341 242.854C361.285 242.573 361.314 242.282 361.424 242.017C361.534 241.752 361.719 241.526 361.958 241.366C362.196 241.207 362.476 241.122 362.763 241.122C363.147 241.122 363.516 241.275 363.788 241.547C364.059 241.818 364.212 242.187 364.212 242.571Z" fill="#D7D7D7"/>
<path d="M392.8 260.604C392.8 260.604 382.95 264.183 387.259 281.42C391.569 298.658 395.711 313.087 395.711 313.087L378.563 323.347C378.563 323.347 384.797 326.336 383.399 337.327C383.399 337.327 405.818 331.787 411.012 328.016C416.207 324.245 414.437 313.228 413.205 307.161C411.974 301.095 406.177 276.47 405.292 273.122C404.407 269.775 401.791 262.169 392.8 260.604Z" fill="#BA68C8"/>
<path opacity="0.2" d="M392.8 260.604C392.8 260.604 382.95 264.183 387.259 281.42C391.569 298.658 395.711 313.087 395.711 313.087L378.563 323.347C378.563 323.347 384.797 326.336 383.399 337.327C383.399 337.327 405.818 331.787 411.012 328.016C416.207 324.245 414.437 313.228 413.205 307.161C411.974 301.095 406.177 276.47 405.292 273.122C404.407 269.775 401.791 262.169 392.8 260.604Z" fill="white"/>
<path d="M395.712 313.087C399.108 312.8 402.505 313.633 405.382 315.46C404.107 313.93 402.516 312.693 400.719 311.834C398.921 310.975 396.96 310.514 394.968 310.483L395.712 313.087Z" fill="#BA68C8"/>
<path d="M325.03 354.424L281.064 328.773C280.965 328.715 280.883 328.633 280.827 328.534C280.77 328.435 280.74 328.322 280.74 328.208C280.74 328.094 280.77 327.982 280.827 327.883C280.883 327.784 280.965 327.702 281.064 327.644L329.801 297.606L325.03 354.424Z" fill="#BA68C8"/>
<path opacity="0.4" d="M325.03 354.424L281.064 328.773C280.965 328.715 280.883 328.633 280.827 328.534C280.77 328.435 280.74 328.322 280.74 328.208C280.74 328.094 280.77 327.982 280.827 327.883C280.883 327.784 280.965 327.702 281.064 327.644L329.801 297.606L325.03 354.424Z" fill="black"/>
<path d="M325.03 354.423L374.05 326.04V313.138L325.03 341.405V354.423Z" fill="#BA68C8"/>
<path opacity="0.2" d="M325.03 354.423L374.05 326.04V313.138L325.03 341.405V354.423Z" fill="black"/>
<path d="M364.482 328.029L345.128 339.213C343.846 339.956 342.794 339.213 342.794 337.443C342.806 336.57 343.023 335.712 343.429 334.938C343.834 334.165 344.417 333.498 345.128 332.992L364.482 321.821C365.765 321.077 366.816 321.821 366.816 323.578C366.801 324.451 366.583 325.308 366.177 326.08C365.772 326.853 365.191 327.52 364.482 328.029Z" fill="#E6E6E6"/>
<path d="M339.946 339.085C339.895 340.02 339.625 340.93 339.157 341.741C338.689 342.552 338.037 343.241 337.253 343.753C335.765 344.613 334.572 343.907 334.572 342.201C334.621 341.267 334.889 340.358 335.354 339.547C335.82 338.736 336.471 338.046 337.253 337.533C338.741 336.674 339.946 337.366 339.946 339.085Z" fill="#E6E6E6"/>
<path d="M325.029 341.406L281.23 320.821C281.125 320.765 281.038 320.682 280.977 320.58C280.916 320.478 280.884 320.362 280.884 320.243C280.884 320.125 280.916 320.009 280.977 319.907C281.038 319.805 281.125 319.722 281.23 319.666L328.197 291.732C328.462 291.572 328.763 291.481 329.073 291.468C329.382 291.454 329.69 291.519 329.967 291.655L374.1 313.138L325.029 341.406Z" fill="#BA68C8"/>
<path d="M284.052 322.142V327.682L320.335 348.203V339.2L284.052 322.142Z" fill="#F5F5F5"/>
<path d="M320.336 348.204L325.03 345.28V341.406L320.336 339.2V348.204Z" fill="#E0E0E0"/>
<path d="M383.399 337.353C383.399 337.353 364.161 341.496 362.378 341.932C360.595 342.368 351.297 345.279 343.64 343.599L362.545 332.697C362.545 332.697 352.9 330.337 354.285 327.336C354.811 326.195 372.754 326.81 372.754 326.81L378.564 323.373C378.564 323.373 388.85 324.694 383.399 337.353Z" fill="white"/>
<path d="M280.858 315.485V301.185H360.788C361.07 301.185 369.65 305.648 373.446 307.597C373.617 307.693 373.76 307.833 373.859 308.002C373.958 308.171 374.01 308.363 374.01 308.559C374.01 308.755 373.958 308.948 373.859 309.117C373.76 309.286 373.617 309.425 373.446 309.521L326.081 336.301C325.749 336.491 325.375 336.596 324.993 336.607C324.61 336.618 324.231 336.535 323.888 336.365L280.858 315.485Z" fill="#BA68C8"/>
<path opacity="0.4" d="M280.858 315.485V301.185H360.788C361.07 301.185 369.65 305.648 373.446 307.597C373.617 307.693 373.76 307.833 373.859 308.002C373.958 308.171 374.01 308.363 374.01 308.559C374.01 308.755 373.958 308.948 373.859 309.117C373.76 309.286 373.617 309.425 373.446 309.521L326.081 336.301C325.749 336.491 325.375 336.596 324.993 336.607C324.61 336.618 324.231 336.535 323.888 336.365L280.858 315.485Z" fill="black"/>
<path d="M325.03 332.954L370.382 307.457V301.916L325.03 326.041V332.954Z" fill="#E0E0E0"/>
<path d="M280.858 315.485L292.709 308.546L280.858 301.185V315.485Z" fill="#BA68C8"/>
<path opacity="0.6" d="M280.858 315.485L292.709 308.546L280.858 301.185V315.485Z" fill="black"/>
<path d="M288.349 305.828V313.729L325.03 332.954V326.041L288.349 305.828Z" fill="#F5F5F5"/>
<path d="M280.858 301.185L323.504 326.605C323.967 326.887 324.495 327.043 325.037 327.059C325.579 327.074 326.116 326.949 326.594 326.695L373.613 302.07C373.779 301.979 373.918 301.846 374.017 301.685C374.116 301.525 374.171 301.341 374.178 301.152C374.184 300.963 374.141 300.776 374.054 300.608C373.966 300.441 373.836 300.299 373.677 300.197L330.776 272.314L280.858 301.185Z" fill="#BA68C8"/>
<path d="M325.03 322.154L281.064 296.503C280.965 296.445 280.883 296.363 280.827 296.264C280.77 296.165 280.74 296.053 280.74 295.939C280.74 295.825 280.77 295.713 280.827 295.614C280.883 295.515 280.965 295.432 281.064 295.374L329.801 265.337L325.03 322.154Z" fill="#BA68C8"/>
<path opacity="0.4" d="M325.03 322.154L281.064 296.503C280.965 296.445 280.883 296.363 280.827 296.264C280.77 296.165 280.74 296.053 280.74 295.939C280.74 295.825 280.77 295.713 280.827 295.614C280.883 295.515 280.965 295.432 281.064 295.374L329.801 265.337L325.03 322.154Z" fill="black"/>
<path d="M325.03 322.142L374.05 293.772V280.869L325.03 309.137V322.142Z" fill="#BA68C8"/>
<path opacity="0.2" d="M325.03 322.142L374.05 293.772V280.869L325.03 309.137V322.142Z" fill="black"/>
<path d="M364.482 295.824L345.128 306.995C343.846 307.739 342.794 306.995 342.794 305.238C342.806 304.365 343.023 303.507 343.429 302.733C343.834 301.96 344.417 301.293 345.128 300.787L364.482 289.603C365.765 288.872 366.816 289.603 366.816 291.373C366.801 292.246 366.583 293.103 366.177 293.876C365.772 294.648 365.191 295.316 364.482 295.824Z" fill="#E6E6E6"/>
<path d="M339.946 306.815C339.897 307.749 339.628 308.658 339.16 309.467C338.691 310.276 338.038 310.963 337.253 311.471C335.765 312.33 334.572 311.638 334.572 309.919C334.622 308.987 334.89 308.08 335.356 307.271C335.822 306.462 336.472 305.774 337.253 305.263C338.741 304.404 339.946 305.097 339.946 306.815Z" fill="#E6E6E6"/>
<path d="M325.029 309.136L281.23 288.615C281.126 288.558 281.039 288.473 280.978 288.37C280.918 288.268 280.886 288.151 280.886 288.032C280.886 287.913 280.918 287.796 280.978 287.693C281.039 287.59 281.126 287.506 281.23 287.448L328.197 259.514C328.469 259.366 328.773 259.288 329.082 259.288C329.391 259.288 329.696 259.366 329.967 259.514L374.1 280.997L325.029 309.136Z" fill="#BA68C8"/>
<path d="M284.052 289.873V295.414L320.335 315.935V306.931L284.052 289.873Z" fill="#F5F5F5"/>
<path d="M320.336 315.934L325.03 312.997V309.137L320.336 306.931V315.934Z" fill="#E0E0E0"/>
</svg>
