<svg width="13" height="13" viewBox="0 0 13 13" fill="none" xmlns="http://www.w3.org/2000/svg">
<path d="M6.79774 6.49869L12.9386 0.357804C13.0205 0.275941 13.0205 0.143241 12.9386 0.0613777C12.8568 -0.0204592 12.7241 -0.0204592 12.6422 0.0613777L6.50131 6.20226L0.360423 0.0613777C0.277145 -0.0190442 0.144445 -0.0167382 0.0639971 0.06654C-0.0144594 0.147774 -0.0144594 0.27657 0.0639971 0.357804L6.20488 6.49869L0.0639971 12.6396C-0.0192811 12.72 -0.0215871 12.8527 0.058861 12.936C0.139309 13.0193 0.272009 13.0216 0.355287 12.9411C0.357043 12.9395 0.358746 12.9377 0.360423 12.936L6.50131 6.79512L12.6422 12.936C12.7255 13.0164 12.8582 13.0141 12.9386 12.9309C13.0171 12.8496 13.0171 12.7208 12.9386 12.6396L6.79774 6.49869Z" fill="#FFA500"/>
</svg>
