<svg width="14" height="14" viewBox="0 0 14 14" fill="none" xmlns="http://www.w3.org/2000/svg">
<g clip-path="url(#clip0)">
<path d="M2.08837 12.3643H10.4061L10.0089 11.0781L10.9591 11.8936L11.83 12.6741L13.4167 14V1.44375C13.377 0.66325 12.705 0 11.872 0L2.09129 0.00175C1.25887 0.00175 0.583374 0.666167 0.583374 1.44667V10.92C0.583374 11.7431 1.25771 12.3643 2.08837 12.3643ZM8.24137 3.31508L8.22212 3.32208L8.22912 3.31508H8.24137ZM3.78996 4.05533C4.85921 3.27717 5.85029 3.3145 5.85029 3.3145L5.93021 3.39325C4.62179 3.70533 4.02854 4.28983 4.02854 4.28983C4.02854 4.28983 4.18721 4.21225 4.46429 4.09383C6.22654 3.40083 8.15096 3.451 9.93246 4.32833C9.93246 4.32833 9.33804 3.78175 8.11012 3.43175L8.21862 3.325C8.38837 3.32558 9.28671 3.35708 10.248 4.06C10.248 4.06 11.3237 5.8975 11.3237 8.155C11.2881 8.11183 10.6564 9.12683 9.03062 9.16183C9.03062 9.16183 8.75529 8.85033 8.55929 8.5785C9.51013 8.3055 9.86596 7.7595 9.86596 7.7595C9.55387 7.95608 9.26921 8.07275 9.03821 8.18942C8.68296 8.34575 8.32712 8.42275 7.97187 8.5015C6.28954 8.7745 5.34512 8.31775 4.45262 7.9555L4.14754 7.80033C4.14754 7.80033 4.50279 8.34633 5.41571 8.61933C5.17596 8.89292 4.93854 9.20383 4.93854 9.20383C3.31337 9.16533 2.72071 8.15033 2.72071 8.15033C2.72071 5.88933 3.78996 4.05533 3.78996 4.05533Z" fill="white"/>
<path d="M8.34637 7.44976C8.76112 7.44976 9.09887 7.09976 9.09887 6.66809C9.09887 6.23934 8.76287 5.88934 8.34637 5.88934V5.89109C7.93337 5.89109 7.59504 6.23993 7.59387 6.67159C7.59387 7.09976 7.93162 7.44976 8.34637 7.44976Z" fill="white"/>
<path d="M5.65252 7.44976C6.06727 7.44976 6.40502 7.09976 6.40502 6.66809C6.40502 6.23934 6.06961 5.88934 5.65486 5.88934L5.65252 5.89109C5.23777 5.89109 4.90002 6.23993 4.90002 6.67159C4.90002 7.09976 5.23777 7.44976 5.65252 7.44976Z" fill="white"/>
</g>
<defs>
<clipPath id="clip0">
<rect width="14" height="14" fill="white"/>
</clipPath>
</defs>
</svg>
