<svg width="236" height="146" viewBox="0 0 236 146" fill="none" xmlns="http://www.w3.org/2000/svg">
<rect width="236" height="146" rx="5" fill="#FFA500"/>
<path d="M29.1616 65V48.2H33.6016V54.44H35.5216L39.6016 48.2H44.6416L39.3616 56.12L45.0016 65H39.9616L35.7616 58.52H33.6016V65H29.1616ZM44.9922 65L49.5522 48.2H57.7122L62.2722 65H57.7122L56.8722 61.64H50.3922L49.5522 65H44.9922ZM51.3522 57.8H55.9122L54.4722 52.28H52.7922L51.3522 57.8ZM63.8256 65V48.2H71.9856C74.0496 48.2 75.7216 48.792 77.0016 49.976C78.2976 51.144 78.9456 52.592 78.9456 54.32C78.9456 56.048 78.2976 57.504 77.0016 58.688C75.7216 59.856 74.0496 60.44 71.9856 60.44H68.2656V65H63.8256ZM68.2656 56.36H71.8656C72.6976 56.36 73.3216 56.176 73.7376 55.808C74.1696 55.44 74.3856 54.944 74.3856 54.32C74.3856 53.696 74.1696 53.2 73.7376 52.832C73.3216 52.464 72.6976 52.28 71.8656 52.28H68.2656V56.36ZM79.8963 52.28V48.2H94.8963V52.28H89.6163V65H85.1763V52.28H79.8963ZM96.685 65V48.2H101.125V56.48L100.765 58.64H101.005L107.125 48.2H112.285V65H107.845V56.72L108.205 54.56H107.965L101.845 65H96.685ZM115.412 65V48.2H119.852V54.44H126.332V48.2H130.772V65H126.332V58.52H119.852V65H115.412ZM133.88 65V48.2H138.32V54.44H140.24L144.32 48.2H149.36L144.08 56.12L149.72 65H144.68L140.48 58.52H138.32V65H133.88ZM149.711 65L154.271 48.2H162.431L166.991 65H162.431L161.591 61.64H155.111L154.271 65H149.711ZM156.071 57.8H160.631L159.191 52.28H157.511L156.071 57.8ZM174.544 65V48.2H178.984V56.48L178.624 58.64H178.864L184.984 48.2H190.144V65H185.704V56.72L186.064 54.56H185.824L179.704 65H174.544ZM192.191 59.6H196.751C196.863 59.984 197.071 60.328 197.375 60.632C198.047 61.304 199.039 61.64 200.351 61.64C201.167 61.64 201.791 61.472 202.223 61.136C202.655 60.784 202.871 60.352 202.871 59.84C202.871 58.72 201.919 58.16 200.015 58.16H197.807V54.56H200.015C201.599 54.56 202.391 54.08 202.391 53.12C202.391 52.672 202.191 52.304 201.791 52.016C201.407 51.712 200.847 51.56 200.111 51.56C199.103 51.56 198.319 51.84 197.759 52.4C197.503 52.656 197.327 52.936 197.231 53.24H192.671C192.911 52.2 193.351 51.28 193.991 50.48C195.479 48.64 197.599 47.72 200.351 47.72C202.463 47.72 204.111 48.184 205.295 49.112C206.479 50.04 207.071 51.176 207.071 52.52C207.071 53.72 206.631 54.696 205.751 55.448C205.351 55.752 204.911 55.976 204.431 56.12V56.36C205.007 56.504 205.527 56.736 205.991 57.056C207.031 57.808 207.551 58.856 207.551 60.2C207.551 61.72 206.911 62.984 205.631 63.992C204.351 64.984 202.511 65.48 200.111 65.48C197.103 65.48 194.879 64.504 193.439 62.552C192.799 61.704 192.383 60.72 192.191 59.6ZM50.4531 96L54.8931 79.2H63.0531L67.4931 96H63.0531L59.6931 83.28H58.2531L54.8931 96H50.4531ZM67.4922 96L72.0522 79.2H80.2122L84.7722 96H80.2122L79.3722 92.64H72.8922L72.0522 96H67.4922ZM73.8522 88.8H78.4122L76.9722 83.28H75.2922L73.8522 88.8ZM83.4503 79.2H88.1303L90.8903 86.4H92.6903L95.4503 79.2H100.01L93.5303 96H88.9703L91.1303 90.48H87.8903L83.4503 79.2ZM101.208 96V79.2H105.648V85.44H112.128V79.2H116.568V96H112.128V89.52H105.648V96H101.208ZM119.317 84.96V79.2H123.757V84.6C123.757 85.4 123.989 86.024 124.453 86.472C124.933 86.904 125.621 87.12 126.517 87.12C127.413 87.12 128.245 86.944 129.013 86.592C129.397 86.4 129.685 86.216 129.877 86.04V79.2H134.317V96H129.877V90C129.509 90.256 129.149 90.456 128.797 90.6C127.837 91 126.757 91.2 125.557 91.2C123.637 91.2 122.117 90.64 120.997 89.52C119.877 88.4 119.317 86.88 119.317 84.96ZM137.443 96V79.2H150.403V83.28H141.883V85.8H148.723V89.4H141.883V91.92H150.403V96H137.443ZM152.912 96V79.2H161.072C163.136 79.2 164.808 79.792 166.088 80.976C167.384 82.144 168.032 83.592 168.032 85.32C168.032 87.048 167.384 88.504 166.088 89.688C164.808 90.856 163.136 91.44 161.072 91.44H157.352V96H152.912ZM157.352 87.36H160.952C161.784 87.36 162.408 87.176 162.824 86.808C163.256 86.44 163.472 85.944 163.472 85.32C163.472 84.696 163.256 84.2 162.824 83.832C162.408 83.464 161.784 83.28 160.952 83.28H157.352V87.36ZM168.273 96L172.833 79.2H180.993L185.553 96H180.993L180.153 92.64H173.673L172.833 96H168.273ZM174.633 88.8H179.193L177.753 83.28H176.073L174.633 88.8Z" fill="white"/>
</svg>
