<svg width="157" height="36" viewBox="0 0 157 36" fill="none" xmlns="http://www.w3.org/2000/svg">
<path d="M34.82 27V7.4H40V27H34.82ZM43.652 27V7.4H49.952L56.812 19.72H57.092L56.672 17.2V7.4H61.852V27H55.552L48.692 14.68H48.412L48.832 17.2V27H43.652ZM65.4997 27V7.4H80.3397V12.16H70.6797V15.94H78.0997V20.42H70.6797V27H65.4997ZM82.863 27V7.4H88.043V27H82.863ZM91.695 27V7.4H97.995L104.855 19.72H105.135L104.715 17.2V7.4H109.895V27H103.595L96.735 14.68H96.455L96.875 17.2V27H91.695ZM113.543 27V7.4H118.723V27H113.543ZM120.835 12.16V7.4H138.335V12.16H132.175V27H126.995V12.16H120.835ZM140.422 27V7.4H155.542V12.16H145.602V15.1H153.582V19.3H145.602V22.24H155.542V27H140.422Z" fill="#FFA500"/>
<path d="M0.42 20.7C0.42 18.8333 1.12 17.2467 2.52 15.94C3.93867 14.6333 5.712 13.98 7.84 13.98H8.4V13.7L7 13.14L5.88 11.46V7.4H19.6V11.6H11.76V11.88L21.84 27H16.1L14.7 25.04L14.84 23.08H14.56C14.56 24.0693 13.9253 25.068 12.656 26.076C11.4053 27.0653 9.89333 27.56 8.12 27.56C5.86133 27.56 4.01333 26.8973 2.576 25.572C1.13867 24.2467 0.42 22.6227 0.42 20.7ZM6.216 18.544C5.712 19.048 5.46 19.72 5.46 20.56C5.46 21.4 5.712 22.0813 6.216 22.604C6.73867 23.108 7.42 23.36 8.26 23.36C9.1 23.36 9.772 23.108 10.276 22.604C10.7987 22.0813 11.06 21.4 11.06 20.56C11.06 19.72 10.7987 19.048 10.276 18.544C9.772 18.0213 9.1 17.76 8.26 17.76C7.42 17.76 6.73867 18.0213 6.216 18.544Z" fill="#FFA500"/>
</svg>
