<svg width="94" height="22" viewBox="0 0 94 22" fill="none" xmlns="http://www.w3.org/2000/svg">
<path d="M19.105 16V4.1H22.25V16H19.105ZM24.4673 16V4.1H28.2923L32.4573 11.58H32.6273L32.3723 10.05V4.1H35.5173V16H31.6923L27.5273 8.52H27.3573L27.6123 10.05V16H24.4673ZM37.732 16V4.1H46.742V6.99H40.877V9.285H45.382V12.005H40.877V16H37.732ZM48.2739 16V4.1H51.4189V16H48.2739ZM53.6363 16V4.1H57.4613L61.6263 11.58H61.7963L61.5413 10.05V4.1H64.6863V16H60.8613L56.6963 8.52H56.5263L56.7812 10.05V16H53.6363ZM66.9009 16V4.1H70.0459V16H66.9009ZM71.3282 6.99V4.1H81.9532V6.99H78.2132V16H75.0682V6.99H71.3282ZM83.2202 16V4.1H92.4002V6.99H86.3652V8.775H91.2102V11.325H86.3652V13.11H92.4002V16H83.2202Z" fill="#FFA500"/>
<path d="M0.255 12.175C0.255 11.0417 0.68 10.0783 1.53 9.285C2.39133 8.49167 3.468 8.095 4.76 8.095H5.1V7.925L4.25 7.585L3.57 6.565V4.1H11.9V6.65H7.14V6.82L13.26 16H9.775L8.925 14.81L9.01 13.62H8.84C8.84 14.2207 8.45467 14.827 7.684 15.439C6.92467 16.0397 6.00667 16.34 4.93 16.34C3.55867 16.34 2.43667 15.9377 1.564 15.133C0.691333 14.3283 0.255 13.3423 0.255 12.175ZM3.774 10.866C3.468 11.172 3.315 11.58 3.315 12.09C3.315 12.6 3.468 13.0137 3.774 13.331C4.09133 13.637 4.505 13.79 5.015 13.79C5.525 13.79 5.933 13.637 6.239 13.331C6.55633 13.0137 6.715 12.6 6.715 12.09C6.715 11.58 6.55633 11.172 6.239 10.866C5.933 10.5487 5.525 10.39 5.015 10.39C4.505 10.39 4.09133 10.5487 3.774 10.866Z" fill="#FFA500"/>
</svg>
