<svg width="199" height="57" viewBox="0 0 199 57" fill="none" xmlns="http://www.w3.org/2000/svg">
<path d="M2.75 37.25V35.25H0.0985401L0.826952 37.7994L2.75 37.25ZM16.05 37.25L17.9318 36.5726L17.4557 35.25H16.05V37.25ZM17.94 40.26L19.3542 38.8458L19.3542 38.8458L17.94 40.26ZM31.73 42.01L30.6355 40.3361L31.73 42.01ZM33.13 37.6L31.3411 38.4944L31.3968 38.6058L31.4659 38.7094L33.13 37.6ZM31.87 36.34L30.7606 38.0041L30.7908 38.0243L30.8218 38.0433L31.87 36.34ZM30.19 35.43L29.2956 37.2189L29.3572 37.2497L29.4208 37.2762L30.19 35.43ZM27.74 34.59L27.1336 36.4958L27.184 36.5119L27.2352 36.5252L27.74 34.59ZM25.15 33.82L25.6653 31.8875H25.6653L25.15 33.82ZM22.07 33.05L21.5849 34.9903L21.5928 34.9923L21.6007 34.9942L22.07 33.05ZM19.06 32.28L18.532 34.2091L18.5447 34.2125L19.06 32.28ZM8.42 27.24L7.15052 28.7854L7.15722 28.791L7.16396 28.7964L8.42 27.24ZM9.96 7.15L11.2286 8.69615L11.2307 8.69442L9.96 7.15ZM42.58 10.3L40.9905 11.5138L40.996 11.521L42.58 10.3ZM46.15 18V20H48.652L48.1009 17.5595L46.15 18ZM32.85 18L30.9773 18.7022L31.464 20H32.85V18ZM31.45 15.9L32.8642 14.4858L32.8414 14.463L32.8179 14.4409L31.45 15.9ZM19.76 14.85L20.7999 16.5584L20.8265 16.5422L20.8525 16.5252L19.76 14.85ZM20.46 20.45L19.5441 22.2279L19.576 22.2444L19.6084 22.2596L20.46 20.45ZM27.39 22.62L27.8509 20.6738L27.8397 20.6712L27.39 22.62ZM31.17 23.6L30.5735 25.509L30.642 25.5304L30.7119 25.5468L31.17 23.6ZM34.88 24.72L34.2475 26.6174L34.2786 26.6277L34.3101 26.6371L34.88 24.72ZM41.95 28.15L40.8116 29.7944L40.8475 29.8192L40.8844 29.8425L41.95 28.15ZM44.75 30.74L43.0731 31.83L43.1051 31.8792L43.1399 31.9264L44.75 30.74ZM46.43 34.03L44.5465 34.7027L44.557 34.7322L44.5685 34.7613L46.43 34.03ZM41.67 49.71L42.9636 51.2353L41.67 49.71ZM7.02 45.86L5.43809 47.0837L5.44315 47.0903L5.44826 47.0968L7.02 45.86ZM2.75 39.25H16.05V35.25H2.75V39.25ZM14.1682 37.9274C14.6835 39.3587 15.4684 40.6169 16.5258 41.6742L19.3542 38.8458C18.7316 38.2231 18.2565 37.4747 17.9318 36.5726L14.1682 37.9274ZM16.5258 41.6742C18.958 44.1065 22.2783 45.2 26.2 45.2V41.2C23.0284 41.2 20.842 40.3335 19.3542 38.8458L16.5258 41.6742ZM26.2 45.2C28.8184 45.2 31.1288 44.7927 32.8245 43.6839L30.6355 40.3361C29.9045 40.814 28.5283 41.2 26.2 41.2V45.2ZM32.8245 43.6839C34.4757 42.6043 35.55 41.0273 35.55 39H31.55C31.55 39.3994 31.4109 39.829 30.6355 40.3361L32.8245 43.6839ZM35.55 39C35.55 38.0989 35.297 37.245 34.7941 36.4906L31.4659 38.7094C31.523 38.795 31.55 38.8744 31.55 39H35.55ZM34.9189 36.7056C34.4685 35.8048 33.7304 35.1365 32.9182 34.6367L30.8218 38.0433C31.2229 38.2902 31.3248 38.4618 31.3411 38.4944L34.9189 36.7056ZM32.9794 34.6759C32.3236 34.2387 31.6503 33.8718 30.9592 33.5838L29.4208 37.2762C29.8497 37.4549 30.2964 37.6946 30.7606 38.0041L32.9794 34.6759ZM31.0844 33.6411C30.3399 33.2689 29.3667 32.9474 28.2448 32.6548L27.2352 36.5252C28.2599 36.7926 28.9201 37.0311 29.2956 37.2189L31.0844 33.6411ZM28.3464 32.6841C27.3026 32.352 26.4067 32.0852 25.6653 31.8875L24.6347 35.7525C25.2933 35.9281 26.1241 36.1746 27.1336 36.4958L28.3464 32.6841ZM25.6653 31.8875C24.9419 31.6946 23.8968 31.4335 22.5393 31.1058L21.6007 34.9942C22.9499 35.3198 23.9581 35.5721 24.6347 35.7525L25.6653 31.8875ZM22.5551 31.1097C21.2515 30.7838 20.2601 30.5301 19.5753 30.3475L18.5447 34.2125C19.2599 34.4032 20.2751 34.6628 21.5849 34.9903L22.5551 31.1097ZM19.588 30.3509C15.3338 29.1866 12.0613 27.6086 9.67604 25.6836L7.16396 28.7964C10.0987 31.1648 13.9195 32.9467 18.532 34.2091L19.588 30.3509ZM9.68948 25.6945C7.62661 24 6.5 21.5388 6.5 18H2.5C2.5 22.4878 3.98672 26.1866 7.15052 28.7854L9.68948 25.6945ZM6.5 18C6.5 14.4223 7.99457 11.3497 11.2286 8.69614L8.69137 5.60385C4.64543 8.9236 2.5 13.0844 2.5 18H6.5ZM11.2307 8.69442C14.4639 6.03424 18.9159 4.6 24.8 4.6V0.599998C18.2707 0.599998 12.8295 2.19909 8.68927 5.60557L11.2307 8.69442ZM24.8 4.6C32.2682 4.6 37.5355 6.98949 40.9905 11.5138L44.1695 9.08617C39.7845 3.34384 33.1985 0.599998 24.8 0.599998V4.6ZM40.996 11.521C42.5364 13.5194 43.6067 15.8168 44.1991 18.4405L48.1009 17.5595C47.3867 14.3966 46.0769 11.5606 44.164 9.07898L40.996 11.521ZM46.15 16H32.85V20H46.15V16ZM34.7227 17.2978C34.3277 16.2446 33.6876 15.3092 32.8642 14.4858L30.0358 17.3142C30.5191 17.7975 30.8123 18.2621 30.9773 18.7022L34.7227 17.2978ZM32.8179 14.4409C30.8193 12.5672 28.0274 11.8 24.8 11.8V15.8C27.4526 15.8 29.094 16.4327 30.0821 17.3591L32.8179 14.4409ZM24.8 11.8C22.3902 11.8 20.2329 12.1538 18.6675 13.1748L20.8525 16.5252C21.4338 16.1462 22.6365 15.8 24.8 15.8V11.8ZM18.7201 13.1416C17.2429 14.0408 16.15 15.4231 16.15 17.3H20.15C20.15 17.2169 20.1305 16.9659 20.7999 16.5584L18.7201 13.1416ZM16.15 17.3C16.15 19.6027 17.5911 21.2219 19.5441 22.2279L21.3759 18.672C20.2489 18.0914 20.15 17.6106 20.15 17.3H16.15ZM19.6084 22.2596C21.386 23.0962 23.8573 23.8573 26.9403 24.5688L27.8397 20.6712C24.856 19.9827 22.7073 19.2972 21.3116 18.6404L19.6084 22.2596ZM26.9291 24.5662C28.7005 24.9857 29.9002 25.2986 30.5735 25.509L31.7666 21.691C30.9465 21.4348 29.6261 21.0943 27.8509 20.6738L26.9291 24.5662ZM30.7119 25.5468C31.4109 25.7113 32.5746 26.0597 34.2475 26.6174L35.5125 22.8226C33.8254 22.2603 32.5158 21.862 31.6281 21.6532L30.7119 25.5468ZM34.3101 26.6371C35.9937 27.1376 37.1541 27.5838 37.8685 27.9598L39.7315 24.4202C38.6726 23.8628 37.2196 23.329 35.4499 22.8029L34.3101 26.6371ZM37.8685 27.9598C38.659 28.3759 39.6367 28.981 40.8116 29.7944L43.0884 26.5056C41.8366 25.639 40.7144 24.9375 39.7315 24.4202L37.8685 27.9598ZM40.8844 29.8425C41.978 30.531 42.668 31.2067 43.0731 31.83L46.4269 29.65C45.6187 28.4066 44.442 27.3556 43.0156 26.4575L40.8844 29.8425ZM43.1399 31.9264C43.6521 32.6215 44.1292 33.5343 44.5465 34.7027L48.3135 33.3573C47.7974 31.9124 47.1546 30.6318 46.3601 29.5536L43.1399 31.9264ZM44.5685 34.7613C44.9818 35.8134 45.2 36.986 45.2 38.3H49.2C49.2 36.534 48.9048 34.8599 48.2915 33.2987L44.5685 34.7613ZM45.2 38.3C45.2 42.1418 43.6552 45.4039 40.3764 48.1847L42.9636 51.2353C47.0582 47.7627 49.2 43.4182 49.2 38.3H45.2ZM40.3764 48.1847C37.1655 50.9078 32.5283 52.4 26.2 52.4V56.4C33.125 56.4 38.8012 54.7655 42.9636 51.2353L40.3764 48.1847ZM26.2 52.4C18.4049 52.4 12.6339 49.7601 8.59174 44.6232L5.44826 47.0968C10.3661 53.3466 17.3817 56.4 26.2 56.4V52.4ZM8.60191 44.6363C6.85708 42.3807 5.54262 39.7441 4.67305 36.7006L0.826952 37.7994C1.82404 41.2893 3.35625 44.3926 5.43809 47.0837L8.60191 44.6363ZM59.4801 46.84L58.0723 48.2607L58.0788 48.2671L58.0854 48.2735L59.4801 46.84ZM59.4801 10.23L60.8813 11.6571L60.8814 11.657L59.4801 10.23ZM98.6101 10.23L97.2023 11.6507L97.2088 11.6571L97.2154 11.6635L98.6101 10.23ZM98.6101 46.84L100.011 48.2671L100.011 48.267L98.6101 46.84ZM69.2101 18.35L67.783 16.9488V16.9488L69.2101 18.35ZM69.2101 38.65L67.783 40.0512L69.2101 38.65ZM88.9501 38.65L90.3772 40.0512L88.9501 38.65ZM88.9501 18.35L90.3772 16.9488L90.3772 16.9488L88.9501 18.35ZM60.8878 45.4193C56.1283 40.7031 53.7801 35.0992 53.7801 28.5H49.7801C49.7801 36.1808 52.5652 42.8035 58.0723 48.2607L60.8878 45.4193ZM53.7801 28.5C53.7801 21.9013 56.1277 16.3243 60.8813 11.6571L58.0789 8.80287C52.5658 14.2157 49.7801 20.8186 49.7801 28.5H53.7801ZM60.8814 11.657C65.6534 6.97102 71.6678 4.6 79.0801 4.6V0.599998C70.719 0.599998 63.6668 3.31564 58.0788 8.80299L60.8814 11.657ZM79.0801 4.6C86.4924 4.6 92.4795 6.97079 97.2023 11.6507L100.018 8.80934C94.474 3.31587 87.4411 0.599998 79.0801 0.599998V4.6ZM97.2154 11.6635C102.014 16.3321 104.38 21.9073 104.38 28.5H108.38C108.38 20.8127 105.566 14.2079 100.005 8.79655L97.2154 11.6635ZM104.38 28.5C104.38 35.0932 102.013 40.6953 97.2088 45.413L100.011 48.267C105.567 42.8114 108.38 36.1868 108.38 28.5H104.38ZM97.2089 45.4129C92.4872 50.0487 86.498 52.4 79.0801 52.4V56.4C87.4355 56.4 94.4662 53.7113 100.011 48.2671L97.2089 45.4129ZM79.0801 52.4C71.6622 52.4 65.6457 50.0485 60.8748 45.4065L58.0854 48.2735C63.6745 53.7115 70.7246 56.4 79.0801 56.4V52.4ZM67.783 16.9488C64.8345 19.9519 63.4301 23.8705 63.4301 28.5H67.4301C67.4301 24.7295 68.5457 21.8814 70.6372 19.7512L67.783 16.9488ZM63.4301 28.5C63.4301 33.1295 64.8345 37.0481 67.783 40.0512L70.6372 37.2488C68.5457 35.1186 67.4301 32.2705 67.4301 28.5H63.4301ZM67.783 40.0512C70.7289 43.0516 74.5589 44.5 79.0801 44.5V40.5C75.4813 40.5 72.7313 39.3817 70.6372 37.2488L67.783 40.0512ZM79.0801 44.5C83.6013 44.5 87.4313 43.0516 90.3772 40.0512L87.523 37.2488C85.4289 39.3817 82.6789 40.5 79.0801 40.5V44.5ZM90.3772 40.0512C93.3257 37.0481 94.7301 33.1295 94.7301 28.5H90.7301C90.7301 32.2705 89.6145 35.1186 87.5229 37.2488L90.3772 40.0512ZM94.7301 28.5C94.7301 23.8705 93.3257 19.9519 90.3772 16.9488L87.5229 19.7512C89.6145 21.8814 90.7301 24.7295 90.7301 28.5H94.7301ZM90.3772 16.9488C87.4313 13.9484 83.6013 12.5 79.0801 12.5V16.5C82.6789 16.5 85.4289 17.6183 87.523 19.7512L90.3772 16.9488ZM79.0801 12.5C74.5589 12.5 70.7289 13.9484 67.783 16.9488L70.6372 19.7512C72.7313 17.6183 75.4813 16.5 79.0801 16.5V12.5ZM113.353 53H111.353V55H113.353V53ZM113.353 4V2H111.353V4H113.353ZM150.453 4H152.453V2H150.453V4ZM150.453 15.9V17.9H152.453V15.9H150.453ZM126.303 15.9V13.9H124.303V15.9H126.303ZM126.303 25.35H124.303V27.35H126.303V25.35ZM144.853 25.35H146.853V23.35H144.853V25.35ZM144.853 36.55V38.55H146.853V36.55H144.853ZM126.303 36.55V34.55H124.303V36.55H126.303ZM126.303 53V55H128.303V53H126.303ZM115.353 53V4H111.353V53H115.353ZM113.353 6H150.453V2H113.353V6ZM148.453 4V15.9H152.453V4H148.453ZM150.453 13.9H126.303V17.9H150.453V13.9ZM124.303 15.9V25.35H128.303V15.9H124.303ZM126.303 27.35H144.853V23.35H126.303V27.35ZM142.853 25.35V36.55H146.853V25.35H142.853ZM144.853 34.55H126.303V38.55H144.853V34.55ZM124.303 36.55V53H128.303V36.55H124.303ZM126.303 51H113.353V55H126.303V51ZM152.911 15.9H150.911V17.9H152.911V15.9ZM152.911 4V2H150.911V4H152.911ZM196.661 4H198.661V2H196.661V4ZM196.661 15.9V17.9H198.661V15.9H196.661ZM181.261 15.9V13.9H179.261V15.9H181.261ZM181.261 53V55H183.261V53H181.261ZM168.311 53H166.311V55H168.311V53ZM168.311 15.9H170.311V13.9H168.311V15.9ZM154.911 15.9V4H150.911V15.9H154.911ZM152.911 6H196.661V2H152.911V6ZM194.661 4V15.9H198.661V4H194.661ZM196.661 13.9H181.261V17.9H196.661V13.9ZM179.261 15.9V53H183.261V15.9H179.261ZM181.261 51H168.311V55H181.261V51ZM170.311 53V15.9H166.311V53H170.311ZM168.311 13.9H152.911V17.9H168.311V13.9Z" fill="#FFA500"/>
</svg>
