<svg width="47" height="26" viewBox="0 0 47 26" fill="none" xmlns="http://www.w3.org/2000/svg">
<path fill-rule="evenodd" clip-rule="evenodd" d="M25.805 25.8913C25.805 25.8913 26.6532 25.8 27.0877 25.3474C27.4854 24.9329 27.4715 24.1504 27.4715 24.1504C27.4715 24.1504 27.4187 20.4971 29.1681 19.9576C30.8921 19.4271 33.1058 23.4907 35.4552 25.0533C37.2298 26.2347 38.577 25.976 38.577 25.976L44.8548 25.8913C44.8548 25.8913 48.1376 25.6952 46.5812 23.192C46.4526 22.9869 45.6733 21.3397 41.9147 17.956C37.977 14.414 38.5056 14.9869 43.2457 8.8593C46.133 5.1279 47.287 2.84983 46.9261 1.87574C46.5836 0.944001 44.4596 1.19142 44.4596 1.19142L37.3931 1.23378C37.3931 1.23378 36.8689 1.16468 36.4804 1.38981C36.1012 1.61048 35.8552 2.12539 35.8552 2.12539C35.8552 2.12539 34.738 5.01199 33.2461 7.46839C30.0991 12.6486 28.8417 12.9229 28.3267 12.6018C27.129 11.8507 27.4279 9.58819 27.4279 7.98107C27.4279 2.95905 28.2141 0.865984 25.8992 0.324329C25.1314 0.143778 24.5659 0.0256384 22.6005 0.00557712C20.0788 -0.0189423 17.9455 0.0144933 16.7363 0.587356C15.9318 0.96852 15.3111 1.82001 15.6903 1.86906C16.157 1.92924 17.2145 2.14545 17.7754 2.8855C18.4995 3.84175 18.4742 5.98607 18.4742 5.98607C18.4742 5.98607 18.8903 11.8975 17.5018 12.6308C16.5501 13.1346 15.2445 12.107 12.4376 7.40597C11.0009 4.99862 9.91584 2.33714 9.91584 2.33714C9.91584 2.33714 9.70666 1.84007 9.33195 1.57259C8.8791 1.24938 8.24693 1.14907 8.24693 1.14907L1.53223 1.19142C1.53223 1.19142 0.523059 1.21817 0.152956 1.64392C-0.175768 2.02062 0.12767 2.80301 0.12767 2.80301C0.12767 2.80301 5.38497 14.7306 11.3388 20.7423C16.7984 26.2525 22.9959 25.8913 22.9959 25.8913H25.805Z" fill="white"/>
</svg>
