<svg width="382" height="231" viewBox="0 0 382 231" fill="none" xmlns="http://www.w3.org/2000/svg">
<path d="M38.6441 207.448L7.3711 65.3413C3.46927 47.6112 16.086 30.5055 34.1776 28.9973L342.678 3.27817C362.446 1.63018 378.342 19.2779 374.645 38.7665L342.804 206.592C340.117 220.752 327.742 231 313.329 231H67.943C53.859 231 41.6711 221.203 38.6441 207.448Z" fill="#9468B4"/>
<path d="M226.262 23C224.374 23 222.844 24.5218 222.844 26.3984V42.0312C222.844 43.9079 224.374 45.4297 226.262 45.4297C228.149 45.4297 229.68 43.9079 229.68 42.0312V26.3984C229.68 24.5218 228.149 23 226.262 23Z" fill="#252734"/>
<path d="M147.648 129.031C145.762 129.031 144.23 130.554 144.23 132.43C144.23 134.306 145.762 135.828 147.648 135.828C149.535 135.828 151.066 134.306 151.066 132.43C151.066 130.554 149.535 129.031 147.648 129.031Z" fill="#252734"/>
<path d="M274.113 122.234C274.113 114.739 267.98 108.641 260.441 108.641H234.926C238.876 98.5802 240.475 86.7387 240.166 76.1978C240.108 74.1862 240.03 73.023 239.925 72.2906C239.748 64.9476 233.684 59.0234 226.262 59.0234C218.723 59.0234 212.59 65.1216 212.59 72.6172V76.0156C212.59 97.5094 184.831 109.586 163.882 114.764C162.299 111.164 158.683 108.641 154.484 108.641H120.305C118.417 108.641 116.887 110.162 116.887 112.039V193.602C116.887 195.478 118.417 197 120.305 197H154.484C158.655 197 162.25 194.51 163.85 190.948C165.585 191.39 167.195 191.808 168.681 192.194C180.615 195.293 187.189 197 203.177 197H239.934C247.472 197 253.605 190.902 253.605 183.406C253.605 180.611 252.752 178.012 251.292 175.849C256.572 174.013 260.441 168.997 260.441 163.016C260.441 160.231 259.609 157.623 258.153 155.45C263.41 153.611 267.277 148.606 267.277 142.625C267.277 139.83 266.424 137.23 264.963 135.068C270.243 133.231 274.113 128.215 274.113 122.234ZM157.902 186.805C157.902 188.679 156.369 190.203 154.484 190.203H123.723V115.438H154.484C156.369 115.438 157.902 116.962 157.902 118.836V186.805ZM260.441 129.031C253.11 129.031 251.363 129.031 243.352 129.031C241.464 129.031 239.934 130.553 239.934 132.43C239.934 134.306 241.464 135.828 243.352 135.828H253.605C257.375 135.828 260.441 138.877 260.441 142.625C260.441 146.379 257.381 149.422 253.605 149.422H236.516C234.628 149.422 233.098 150.944 233.098 152.82C233.098 154.697 234.628 156.219 236.516 156.219H246.77C250.494 156.219 253.605 159.177 253.605 163.016C253.605 166.77 250.545 169.812 246.77 169.812C239.438 169.812 237.691 169.812 229.68 169.812C227.792 169.812 226.262 171.334 226.262 173.211C226.262 175.088 227.792 176.609 229.68 176.609H239.934C243.703 176.609 246.77 179.658 246.77 183.406C246.77 187.154 243.703 190.203 239.934 190.203H203.177C188.067 190.203 182.165 188.671 170.409 185.618C168.686 185.171 166.797 184.68 164.738 184.158V121.563C189.473 115.705 219.426 101.406 219.426 76.0156V72.6172C219.426 68.8694 222.492 65.8203 226.262 65.8203C230.024 65.8203 233.09 68.8646 233.098 72.6067V72.6172C233.098 74.0941 234.952 92.2204 227.517 108.641H216.008C214.12 108.641 212.59 110.162 212.59 112.039C212.59 113.916 214.12 115.438 216.008 115.438C218.395 115.438 256.546 115.438 260.441 115.438C264.211 115.438 267.277 118.487 267.277 122.234C267.277 125.988 264.217 129.031 260.441 129.031Z" fill="#252734"/>
<path d="M147.648 142.625C145.761 142.625 144.23 144.147 144.23 146.023V173.211C144.23 175.088 145.761 176.609 147.648 176.609C149.536 176.609 151.066 175.088 151.066 173.211V146.023C151.066 144.147 149.536 142.625 147.648 142.625Z" fill="#252734"/>
<path d="M198.918 65.8203H185.246C183.359 65.8203 181.828 67.3421 181.828 69.2188C181.828 71.0954 183.359 72.6172 185.246 72.6172H198.918C200.805 72.6172 202.336 71.0954 202.336 69.2188C202.336 67.3421 200.805 65.8203 198.918 65.8203Z" fill="#252734"/>
<path d="M267.277 65.8203H253.605C251.718 65.8203 250.188 67.3421 250.188 69.2188C250.188 71.0954 251.718 72.6172 253.605 72.6172H267.277C269.165 72.6172 270.695 71.0954 270.695 69.2188C270.695 67.3421 269.165 65.8203 267.277 65.8203Z" fill="#252734"/>
<path d="M257.68 37.9804C256.345 36.6537 254.181 36.6537 252.846 37.9804L243.18 47.5909C241.846 48.9179 241.846 51.0698 243.18 52.3973C244.516 53.7244 246.679 53.724 248.014 52.3973L257.68 42.7868C259.015 41.4597 259.015 39.3078 257.68 37.9804Z" fill="#252734"/>
<path d="M209.343 47.5909L199.677 37.9804C198.342 36.6537 196.179 36.6537 194.843 37.9804C193.509 39.3075 193.509 41.4594 194.843 42.7868L204.509 52.3973C205.845 53.7244 208.008 53.724 209.343 52.3973C210.678 51.0702 210.678 48.9183 209.343 47.5909Z" fill="#252734"/>
</svg>
