<svg width="377" height="228" viewBox="0 0 377 228" fill="none" xmlns="http://www.w3.org/2000/svg">
<path d="M10.0403 198.357L1.65744 32.7443C0.766824 15.1494 15.1577 0.578089 32.7624 1.2495L346.059 13.1981C362.987 13.8437 376.023 28.3674 374.843 45.2663L364.934 187.155C363.868 202.416 351.49 214.431 336.204 215.041L41.1985 226.816C24.768 227.472 10.8716 214.779 10.0403 198.357Z" fill="#9468B4"/>
<path d="M257.594 110.839C263.099 106.971 266.744 100.535 266.744 93.2818C266.744 81.4156 257.147 71.8184 245.281 71.8184C233.415 71.8184 223.818 81.4156 223.818 93.2818C223.818 100.535 227.426 106.971 232.968 110.839C228.244 112.476 223.929 115.006 220.284 118.279C215.262 114.001 209.347 110.728 202.875 108.793C210.724 104.032 216.006 95.3649 216.006 85.5074C216.006 70.4793 203.842 58.3154 188.814 58.3154C173.786 58.3154 161.622 70.5165 161.622 85.5074C161.622 95.3649 166.867 104.032 174.753 108.793C168.355 110.728 162.515 113.964 157.53 118.167C153.885 114.968 149.644 112.476 144.994 110.877C150.5 107.008 154.145 100.573 154.145 93.319C154.145 81.4528 144.548 71.8556 132.682 71.8556C120.816 71.8556 111.218 81.4528 111.218 93.319C111.218 100.573 114.827 107.008 120.369 110.877C105.602 115.973 95 129.996 95 146.475V148.93C95 149.005 95.0744 149.079 95.1488 149.079H140.642C140.382 151.125 140.233 153.245 140.233 155.366V157.895C140.233 168.831 149.086 177.685 160.023 177.685H217.68C228.616 177.685 237.469 168.831 237.469 157.895V155.366C237.469 153.245 237.321 151.125 237.06 149.079H282.851C282.926 149.079 283 149.005 283 148.93V146.475C282.926 129.959 272.361 115.936 257.594 110.839ZM229.769 93.2446C229.769 84.689 236.725 77.7329 245.281 77.7329C253.837 77.7329 260.793 84.689 260.793 93.2446C260.793 101.689 253.985 108.57 245.579 108.756C245.467 108.756 245.393 108.756 245.281 108.756C245.169 108.756 245.095 108.756 244.983 108.756C236.539 108.607 229.769 101.726 229.769 93.2446ZM167.499 85.5074C167.499 73.7899 177.022 64.2672 188.74 64.2672C200.457 64.2672 209.98 73.7899 209.98 85.5074C209.98 96.8156 201.089 106.078 189.967 106.71C189.558 106.71 189.149 106.71 188.74 106.71C188.33 106.71 187.921 106.71 187.512 106.71C176.39 106.078 167.499 96.8156 167.499 85.5074ZM117.059 93.2446C117.059 84.689 124.015 77.7329 132.57 77.7329C141.126 77.7329 148.082 84.689 148.082 93.2446C148.082 101.689 141.275 108.57 132.868 108.756C132.756 108.756 132.682 108.756 132.57 108.756C132.459 108.756 132.384 108.756 132.273 108.756C123.866 108.607 117.059 101.726 117.059 93.2446ZM141.684 143.09H101.026C102.7 127.244 116.091 114.82 132.347 114.708C132.421 114.708 132.496 114.708 132.57 114.708C132.645 114.708 132.719 114.708 132.793 114.708C140.531 114.745 147.598 117.609 153.066 122.259C147.71 128.062 143.73 135.204 141.684 143.09ZM231.443 157.895C231.443 165.521 225.231 171.733 217.605 171.733H159.948C152.323 171.733 146.11 165.521 146.11 157.895V155.366C146.11 132.266 164.561 113.369 187.512 112.699C187.921 112.736 188.368 112.736 188.777 112.736C189.186 112.736 189.632 112.736 190.042 112.699C212.993 113.369 231.443 132.266 231.443 155.366V157.895ZM235.87 143.09C233.824 135.241 229.918 128.211 224.599 122.408C230.104 117.647 237.246 114.782 245.058 114.708C245.132 114.708 245.207 114.708 245.281 114.708C245.355 114.708 245.43 114.708 245.504 114.708C261.76 114.82 275.151 127.244 276.825 143.09H235.87Z" fill="#252734"/>
</svg>
