<svg width="447" height="237" viewBox="0 0 447 237" fill="none" xmlns="http://www.w3.org/2000/svg">
<path d="M45.5828 209.439L8.31136 38.1881C4.11735 18.9179 19.3393 0.912252 39.0387 1.84149L414.401 19.5477C431.944 20.3752 445.028 36.0284 442.73 53.44L421.983 210.623C419.997 225.674 407.078 236.869 391.897 236.695L74.5527 233.057C60.5723 232.897 48.5561 223.1 45.5828 209.439Z" fill="#9468B4"/>
<path d="M221.516 45.9531C186.094 45.9531 157.276 74.7707 157.276 110.193C157.276 132.268 168.47 151.778 185.479 163.346V204.202C185.479 205.797 186.288 207.284 187.627 208.149C188.966 209.015 190.654 209.143 192.108 208.489L221.516 195.256L250.924 208.489C251.54 208.766 252.197 208.903 252.852 208.903C253.745 208.903 254.633 208.649 255.405 208.15C256.744 207.284 257.553 205.797 257.553 204.203V163.346C274.562 151.778 285.756 132.269 285.756 110.193C285.756 74.7707 256.938 45.9531 221.516 45.9531ZM248.152 196.933L223.445 185.815C222.832 185.539 222.174 185.401 221.516 185.401C220.859 185.401 220.201 185.538 219.587 185.815L194.88 196.933V168.66C197.243 169.737 199.668 170.663 202.138 171.443C202.278 171.488 202.418 171.533 202.559 171.577C202.874 171.674 203.19 171.767 203.507 171.859C203.742 171.928 203.976 171.996 204.211 172.062C204.467 172.134 204.723 172.203 204.98 172.271C205.279 172.351 205.579 172.429 205.88 172.504C206.092 172.557 206.305 172.61 206.518 172.66C206.864 172.743 207.211 172.824 207.559 172.901C207.74 172.941 207.921 172.981 208.101 173.019C208.483 173.101 208.865 173.178 209.249 173.253C209.406 173.283 209.562 173.314 209.719 173.343C210.125 173.419 210.534 173.49 210.943 173.558C211.083 173.581 211.224 173.606 211.364 173.628C211.787 173.695 212.211 173.757 212.636 173.816C212.768 173.834 212.9 173.854 213.031 173.872C213.462 173.929 213.894 173.98 214.327 174.028C214.456 174.042 214.585 174.059 214.714 174.073C215.146 174.119 215.58 174.158 216.014 174.195C216.146 174.206 216.277 174.219 216.409 174.23C216.837 174.263 217.267 174.29 217.698 174.316C217.836 174.324 217.973 174.335 218.112 174.342C218.547 174.365 218.984 174.381 219.421 174.395C219.553 174.399 219.684 174.406 219.815 174.41C220.381 174.424 220.948 174.433 221.517 174.433C222.086 174.433 222.653 174.424 223.218 174.41C223.35 174.406 223.48 174.399 223.612 174.395C224.05 174.381 224.486 174.365 224.921 174.342C225.059 174.335 225.197 174.324 225.336 174.316C225.766 174.29 226.196 174.264 226.624 174.23C226.756 174.219 226.887 174.206 227.019 174.195C227.454 174.158 227.887 174.118 228.319 174.073C228.448 174.059 228.577 174.043 228.706 174.028C229.139 173.979 229.571 173.929 230.002 173.872C230.134 173.854 230.265 173.835 230.397 173.816C230.822 173.757 231.246 173.695 231.669 173.628C231.81 173.605 231.95 173.581 232.09 173.558C232.5 173.49 232.908 173.419 233.315 173.343C233.471 173.314 233.628 173.283 233.784 173.253C234.168 173.178 234.55 173.1 234.932 173.019C235.113 172.981 235.293 172.941 235.474 172.901C235.822 172.824 236.169 172.743 236.515 172.66C236.728 172.609 236.941 172.557 237.154 172.504C237.454 172.429 237.754 172.351 238.053 172.271C238.31 172.202 238.566 172.134 238.822 172.062C239.057 171.996 239.292 171.928 239.526 171.859C239.843 171.767 240.16 171.674 240.475 171.577C240.615 171.533 240.755 171.487 240.895 171.443C243.366 170.663 245.791 169.737 248.153 168.66V196.933H248.152ZM239.412 162.031C239.224 162.095 239.037 162.16 238.849 162.223C238.563 162.318 238.276 162.412 237.988 162.503C237.653 162.608 237.317 162.71 236.98 162.809C236.742 162.879 236.504 162.948 236.265 163.015C235.819 163.139 235.371 163.259 234.922 163.372C234.755 163.414 234.587 163.454 234.419 163.495C233.98 163.601 233.538 163.702 233.096 163.798C232.984 163.822 232.874 163.847 232.763 163.87C232.192 163.99 231.619 164.101 231.044 164.202C230.985 164.212 230.926 164.221 230.867 164.231C230.349 164.321 229.829 164.402 229.309 164.476C229.191 164.493 229.074 164.509 228.956 164.526C228.4 164.601 227.844 164.67 227.286 164.729C227.265 164.731 227.244 164.734 227.223 164.736C226.639 164.797 226.052 164.847 225.465 164.889C225.338 164.898 225.21 164.905 225.082 164.913C224.625 164.943 224.169 164.966 223.711 164.984C223.555 164.991 223.399 164.997 223.244 165.002C222.669 165.02 222.093 165.032 221.516 165.032C220.939 165.032 220.364 165.02 219.789 165.002C219.633 164.997 219.477 164.99 219.322 164.984C218.864 164.966 218.407 164.942 217.95 164.913C217.823 164.904 217.695 164.897 217.567 164.888C216.98 164.846 216.394 164.796 215.809 164.736C215.788 164.733 215.767 164.73 215.746 164.728C215.188 164.67 214.632 164.6 214.076 164.525C213.959 164.509 213.842 164.492 213.724 164.475C213.203 164.401 212.683 164.32 212.165 164.23C212.106 164.221 212.048 164.211 211.989 164.201C211.414 164.1 210.84 163.989 210.27 163.87C210.159 163.846 210.048 163.821 209.937 163.797C209.494 163.702 209.053 163.6 208.613 163.494C208.445 163.453 208.277 163.413 208.11 163.371C207.661 163.258 207.213 163.139 206.768 163.014C206.529 162.948 206.291 162.878 206.053 162.808C205.716 162.709 205.38 162.608 205.044 162.502C204.756 162.411 204.469 162.318 204.183 162.222C203.995 162.16 203.807 162.095 203.62 162.03C182.143 154.595 166.677 134.167 166.677 110.193C166.677 79.9549 191.278 55.3539 221.516 55.3539C251.754 55.3539 276.355 79.9546 276.355 110.193C276.355 134.167 260.889 154.595 239.412 162.031Z" fill="#252734"/>
<path d="M249.404 110.193L258.233 93.5985C258.995 92.1672 258.964 90.4445 258.154 89.0406C257.343 87.6368 255.866 86.7492 254.246 86.6931L235.461 86.0423L225.504 70.0993C224.645 68.7244 223.138 67.8887 221.517 67.8887C219.896 67.8887 218.389 68.7244 217.53 70.0993L207.574 86.0423L188.789 86.6931C187.169 86.7492 185.691 87.6368 184.881 89.0406C184.07 90.4445 184.04 92.1672 184.802 93.5985L193.631 110.193L184.802 126.787C184.04 128.218 184.07 129.941 184.881 131.345C185.691 132.748 187.169 133.636 188.789 133.692L207.574 134.343L217.53 150.286C218.389 151.661 219.896 152.497 221.517 152.497C223.138 152.497 224.645 151.661 225.504 150.286L235.46 134.343L254.246 133.692C255.866 133.636 257.343 132.748 258.154 131.345C258.964 129.941 258.994 128.218 258.232 126.787L249.404 110.193ZM232.636 125.034C231.073 125.088 229.64 125.916 228.812 127.242L221.517 138.923L214.223 127.242C213.395 125.916 211.961 125.089 210.399 125.034L196.637 124.557L203.105 112.4C203.839 111.02 203.839 109.365 203.105 107.985L196.637 95.8279L210.399 95.3508C211.961 95.2967 213.395 94.4689 214.223 93.1427L221.517 81.4628L228.811 93.143C229.64 94.4692 231.073 95.2967 232.635 95.3511L246.398 95.8282L239.93 107.985C239.195 109.365 239.195 111.021 239.93 112.401L246.398 124.558L232.636 125.034Z" fill="#252734"/>
</svg>
