<svg width="459" height="229" viewBox="0 0 459 229" fill="none" xmlns="http://www.w3.org/2000/svg">
<path d="M8.49615 191.106L45.9686 23.9762C49.095 10.0321 61.6229 0.22886 75.9096 0.546962L386.356 7.45924C399.957 7.76208 411.652 17.1794 414.848 30.403L450.357 177.301C454.82 195.762 441.221 213.672 422.239 214.331L38.811 227.652C19.1779 228.334 4.19824 210.275 8.49615 191.106Z" fill="#9468B4"/>
<path d="M206.929 43.46C199.278 44.0544 192.445 48.5117 187.096 56.2378L145.946 76.296L144.609 76.8903C143.421 77.4104 142.306 77.7818 141.118 78.1532C139.93 78.5247 138.741 78.7476 137.553 78.9704C137.181 79.0447 136.736 79.119 136.364 79.119C135.918 79.1933 135.547 79.1933 135.176 79.2676L117.126 80.6048C112.075 80.9763 107.544 83.2792 104.276 87.068C102.27 89.371 100.933 92.0454 100.19 94.9427L99.2991 95.017C92.1683 95.537 86.746 101.777 87.2659 108.983L87.8602 117.675C88.083 121.167 89.7171 124.287 92.3169 126.59C94.471 128.522 97.2193 129.562 100.042 129.784C100.636 129.784 101.23 129.784 101.75 129.784L102.642 129.71C103.756 132.459 105.464 134.91 107.767 136.842C109.624 138.402 111.629 139.591 113.858 140.408C114.229 140.556 114.675 140.631 115.046 140.779C115.269 140.854 115.418 140.854 115.64 140.928L117.275 163.512C117.572 168.118 119.726 172.352 123.217 175.398C126.114 177.924 129.753 179.41 133.542 179.633C134.284 179.707 135.101 179.707 135.844 179.633C140.449 179.261 144.683 177.181 147.729 173.615C150.774 170.124 152.26 165.592 151.888 160.986L150.477 141.374L150.626 141.448L194.227 155.266C199.724 161.135 206.112 164.626 212.871 165.072C213.837 165.146 214.802 165.146 215.768 165.072C225.647 164.329 234.263 157.049 240.057 144.42C245.405 132.682 247.708 117.527 246.594 101.777C244.143 67.6041 226.687 42.0485 206.929 43.46ZM216.957 156.009C216.362 156.157 215.768 156.232 215.1 156.306C214.282 156.38 213.391 156.38 212.574 156.232C211.98 156.157 211.386 156.083 210.791 155.934L209.157 155.414C205.592 154.077 202.175 151.403 199.13 147.688C191.627 138.625 185.982 123.396 184.72 106.235C183.68 91.8968 185.685 78.2275 190.513 67.827C191.256 66.1183 192.147 64.5583 192.965 63.1468C195.564 58.9123 198.535 55.7921 201.804 54.0092L203.289 53.2663C203.289 53.2663 203.289 53.2663 203.364 53.2663C203.958 53.0434 204.478 52.8205 205.072 52.6719C205.889 52.4491 206.706 52.3005 207.523 52.2262C208.117 52.1519 208.712 52.1519 209.232 52.2262H209.306C223.047 53.1177 235.823 75.3302 237.829 102.372C238.869 116.71 236.863 130.379 232.035 140.779C228.173 149.323 222.899 154.671 216.957 156.009ZM141.192 167.821C139.632 169.604 137.553 170.644 135.25 170.792C132.947 170.941 130.719 170.198 128.936 168.712C127.154 167.152 126.114 165.072 125.965 162.769L124.405 141.076L139.558 139.962H139.632C140.227 139.888 140.821 139.888 141.415 139.888C141.564 139.888 141.638 139.888 141.712 139.888L143.272 161.506C143.421 163.809 142.678 166.038 141.192 167.821ZM113.486 130.156C111.407 128.373 110.218 125.921 109.995 123.247V123.173L108.287 100.069C108.064 97.3942 108.955 94.7198 110.738 92.714C112.521 90.6339 114.972 89.4453 117.646 89.2224L135.696 87.8852C136.29 87.8109 136.81 87.8109 137.404 87.7366C137.701 87.7366 137.998 87.6623 138.295 87.588C139.038 87.5137 139.707 87.3652 140.375 87.2166C139.187 94.2741 138.89 101.777 139.41 109.355C139.93 116.858 141.341 124.138 143.495 130.825L139.038 131.122C138.964 131.122 138.89 131.122 138.815 131.122L120.766 132.459C118.166 132.83 115.492 131.939 113.486 130.156Z" fill="#252734"/>
<path d="M261.078 88.1081C264.05 86.6223 266.352 87.6623 270.438 89.6682C273.112 90.9311 276.306 92.5655 280.019 92.7883C282.322 92.9369 284.773 92.5654 287.447 91.2282C294.355 87.8109 295.618 81.422 296.584 76.7418C297.475 72.2101 298.069 69.8329 301.04 68.3471C304.011 66.8613 306.314 67.9013 310.399 69.9071C314.708 71.9873 320.501 74.8845 327.484 71.4672C334.391 68.0499 335.654 61.661 336.62 56.9808C337.511 52.4491 338.105 50.0718 341.077 48.586C343.231 47.546 344.122 44.9459 343.082 42.7915C342.042 40.6371 339.442 39.7456 337.288 40.7856C330.38 44.203 329.118 50.5919 328.152 55.2721C327.261 59.8038 326.666 62.181 323.695 63.6668C320.724 65.1526 318.422 64.1126 314.336 62.1067C310.028 60.0266 304.234 57.1293 297.252 60.5467C290.344 63.964 289.081 70.3529 288.116 75.0331C287.224 79.5648 286.63 81.942 283.659 83.4278C280.688 84.9136 278.385 83.8736 274.3 81.8678C269.992 79.7877 264.198 76.8904 257.216 80.3077C255.062 81.3477 254.17 83.9479 255.21 86.1023C256.325 88.331 258.924 89.2224 261.078 88.1081Z" fill="#252734"/>
<path d="M330.975 144.493C324.364 142.116 319.313 145.979 315.599 148.877C312.108 151.625 310.474 152.665 308.468 151.922C306.463 151.254 305.868 149.397 304.828 145.088C303.789 140.556 302.303 134.39 295.618 132.013C289.007 129.636 283.956 133.573 280.242 136.396C276.751 139.145 275.117 140.11 273.111 139.442C271.106 138.773 270.512 136.916 269.472 132.607C268.432 128.075 266.946 121.909 260.261 119.532C257.959 118.715 255.507 119.904 254.69 122.207C253.873 124.435 255.062 126.961 257.364 127.778C259.37 128.447 259.964 130.304 261.004 134.613C262.044 139.145 263.53 145.311 270.215 147.688C276.825 150.065 281.876 146.128 285.59 143.305C289.081 140.556 290.716 139.516 292.721 140.259C294.727 140.928 295.321 142.785 296.361 147.094C297.401 151.625 298.886 157.791 305.571 160.169C306.76 160.614 307.874 160.837 308.988 160.911C313.965 161.209 317.902 158.163 320.947 155.86C324.438 153.111 326.072 152.071 328.078 152.814C330.38 153.631 332.832 152.442 333.649 150.139C334.391 147.837 333.203 145.311 330.975 144.493Z" fill="#252734"/>
<path d="M405.254 108.538C402.654 108.612 401.243 107.126 398.346 103.338C395.523 99.623 391.586 94.497 384.233 94.7199C376.879 94.9428 373.314 100.366 370.788 104.303C368.189 108.241 366.926 109.875 364.252 109.949C361.652 110.024 360.241 108.538 357.344 104.749C354.521 101.035 350.659 95.9086 343.231 96.1314C335.877 96.3543 332.312 101.777 329.786 105.715C327.187 109.652 325.924 111.287 323.25 111.361C320.65 111.435 319.239 109.949 316.342 106.161C313.519 102.446 309.583 97.3201 302.229 97.5429C294.875 97.7658 291.31 103.189 288.785 107.126C286.185 111.064 284.922 112.698 282.322 112.772C279.723 112.847 278.311 111.361 275.414 107.572C272.592 103.858 268.655 98.7316 261.301 98.9544C258.925 99.0287 256.993 101.035 257.142 103.486C257.216 105.863 259.222 107.795 261.673 107.646C264.273 107.572 265.684 109.058 268.581 112.847C271.255 116.338 274.82 121.018 281.282 121.464C281.728 121.464 282.174 121.464 282.694 121.464C290.047 121.241 293.613 115.818 296.138 111.881C298.738 107.943 300.001 106.309 302.675 106.235C305.274 106.161 306.686 107.646 309.583 111.435C312.405 115.15 316.342 120.276 323.696 120.053C331.049 119.83 334.615 114.407 337.14 110.469C339.74 106.532 341.002 104.898 343.677 104.823C346.276 104.749 347.688 106.235 350.584 110.024C353.407 113.738 357.344 118.864 364.697 118.641C372.051 118.418 375.616 112.995 378.142 109.058C380.742 105.12 382.004 103.486 384.678 103.412C387.278 103.338 388.689 104.823 391.586 108.612C394.409 112.327 398.346 117.453 405.699 117.23C408.076 117.155 410.007 115.15 409.859 112.698C409.636 110.395 407.631 108.463 405.254 108.538Z" fill="#252734"/>
<path d="M210.122 62.3292C209.528 62.2549 208.86 62.2549 208.265 62.3292C207.448 62.4034 206.557 62.552 205.814 62.7749C204.329 63.2206 202.917 63.9635 201.58 64.9293C197.347 68.1237 194.004 74.1412 192.073 81.9416L191.924 82.7588L191.627 84.2446C191.479 85.0618 191.33 85.9532 191.181 86.7704C190.959 88.3305 190.736 89.9649 190.587 91.6735C190.439 93.4565 190.29 95.1651 190.29 97.0224C190.29 97.9138 190.29 98.8053 190.29 99.7711C190.29 101.703 190.364 103.708 190.513 105.714C190.587 106.531 190.661 107.274 190.736 108.092C190.81 108.909 190.884 109.652 191.033 110.469C191.107 111.137 191.181 111.732 191.33 112.4C191.478 113.366 191.627 114.332 191.776 115.223C191.924 115.892 191.998 116.561 192.147 117.229V117.303C192.296 117.972 192.444 118.566 192.593 119.161C192.741 119.755 192.89 120.275 193.038 120.869C193.261 121.686 193.484 122.429 193.707 123.172C193.781 123.395 193.781 123.544 193.855 123.767L194.375 125.55L194.524 126.07C197.644 134.984 202.175 141.596 207.448 144.493C208.86 145.311 210.42 145.831 211.905 146.053C212.202 146.128 212.574 146.128 212.871 146.128C213.391 146.128 213.911 146.128 214.431 146.128C215.025 146.053 215.693 145.979 216.213 145.831C225.127 143.75 231.292 131.27 232.332 114.332C232.555 110.617 232.555 106.754 232.258 102.668C230.623 80.0101 221.264 63.2206 210.122 62.3292ZM201.358 118.789C201.135 117.972 200.986 117.229 200.763 116.412C200.615 115.818 200.54 115.298 200.392 114.703C200.095 113.292 199.872 111.88 199.649 110.469C199.649 110.394 199.649 110.394 199.649 110.32C199.501 109.354 199.426 108.314 199.278 107.274C199.203 106.531 199.129 105.789 199.055 105.046C198.758 100.811 198.758 96.6509 199.129 92.7136C199.203 92.3421 199.203 91.8964 199.278 91.5249C199.278 91.3021 199.352 91.0049 199.352 90.782C199.426 90.3363 199.426 89.9649 199.501 89.5191C199.575 89.1477 199.575 88.8505 199.649 88.4791C200.392 88.3305 201.209 88.1819 201.952 88.1076C202.397 88.1076 202.843 88.0333 203.215 88.0333C204.7 88.0333 206.186 88.2562 207.597 88.7019C209.231 89.222 210.717 89.9649 212.128 91.0049C212.425 91.2278 212.796 91.5249 213.094 91.7478C216.213 94.4222 218.07 98.1367 218.367 102.223C218.665 106.309 217.328 110.32 214.653 113.366C214.356 113.663 214.134 113.96 213.836 114.258C212.648 115.446 211.237 116.486 209.677 117.155C208.34 117.823 206.928 118.269 205.443 118.492C204.997 118.566 204.626 118.641 204.18 118.641C203.289 118.938 202.323 118.863 201.358 118.789Z" fill="#252734"/>
</svg>
