<svg width="32" height="33" fill="none" xmlns="http://www.w3.org/2000/svg"><path fill-rule="evenodd" clip-rule="evenodd" d="M16 32.5c8.837 0 16-7.163 16-16S24.837.5 16 .5 0 7.663 0 16.5s7.163 16 16 16zm-2.605-21.803c.26-.26.682-.26.943 0l5.804 5.805-5.804 5.805a.667.667 0 01-.943-.943l4.862-4.862-4.862-4.862a.667.667 0 010-.943z" fill="#E9E9EC" fill-opacity=".75"/><path d="M14.338 10.697a.667.667 0 10-.943.943l4.862 4.862-4.862 4.862a.667.667 0 00.943.943l5.804-5.805-5.804-5.805z" fill="#8F8C9E"/></svg>