<svg width="693" height="426" viewBox="0 0 693 426" fill="none" xmlns="http://www.w3.org/2000/svg">
<g filter="url(#filter0_d)">
<path d="M642 358.069C633.362 354.714 625.561 349.512 619.144 342.826C612.727 336.141 607.849 328.134 604.85 319.366L577.565 239.609C567.847 211.148 527.759 210.645 517.307 238.853L497.409 292.668C495.449 297.974 492.117 302.664 487.751 306.261C483.386 309.858 478.145 312.232 472.562 313.141C466.979 314.05 461.256 313.462 455.975 311.436C450.694 309.41 446.045 306.019 442.503 301.609L426.447 281.502C421.293 275.092 413.867 270.915 405.713 269.84C397.558 268.766 389.303 270.875 382.664 275.73L345.137 303.163C339.654 307.168 333.037 309.322 326.247 309.312H290.965C276.104 309.297 261.626 314.025 249.639 322.808L224.116 341.446C220.655 343.985 216.718 345.802 212.539 346.787C208.361 347.771 204.027 347.904 199.795 347.178C195.564 346.451 191.523 344.879 187.913 342.557C184.302 340.234 181.196 337.208 178.781 333.659L145.514 284.86C145.094 284.252 144.653 283.643 144.192 283.055C130.822 266.118 103.998 269.686 94.2597 288.953L73.9427 329.251C66.8683 343.254 54.8721 354.152 40.256 359.853L31 363.463" stroke="url(#paint0_linear)" stroke-width="2" stroke-miterlimit="10"/>
<path d="M120.579 278.45C123.801 278.45 126.414 275.838 126.414 272.615C126.414 269.393 123.801 266.78 120.579 266.78C117.356 266.78 114.744 269.393 114.744 272.615C114.744 275.838 117.356 278.45 120.579 278.45Z" fill="url(#paint1_linear)"/>
<path d="M209.403 347.503C209.403 348.658 209.06 349.787 208.418 350.747C207.776 351.707 206.864 352.455 205.796 352.896C204.729 353.337 203.555 353.451 202.422 353.224C201.29 352.997 200.25 352.439 199.435 351.621C198.62 350.803 198.066 349.761 197.843 348.628C197.62 347.495 197.739 346.321 198.184 345.255C198.628 344.19 199.38 343.28 200.342 342.641C201.304 342.003 202.434 341.664 203.589 341.668C204.354 341.668 205.112 341.819 205.819 342.113C206.526 342.406 207.168 342.836 207.708 343.378C208.248 343.92 208.676 344.564 208.967 345.272C209.258 345.979 209.406 346.738 209.403 347.503Z" fill="url(#paint2_linear)"/>
<path d="M408.124 269.908C408.124 271.063 407.781 272.192 407.139 273.152C406.497 274.112 405.584 274.86 404.517 275.301C403.45 275.742 402.275 275.856 401.143 275.629C400.01 275.402 398.971 274.845 398.156 274.027C397.34 273.208 396.786 272.167 396.564 271.034C396.341 269.9 396.459 268.726 396.904 267.661C397.349 266.595 398.1 265.685 399.063 265.046C400.025 264.408 401.155 264.069 402.31 264.073C403.854 264.079 405.332 264.696 406.422 265.79C407.512 266.883 408.124 268.364 408.124 269.908Z" fill="url(#paint3_linear)"/>
<path d="M553.659 218.864C553.659 220.019 553.316 221.148 552.674 222.108C552.032 223.068 551.12 223.816 550.052 224.257C548.985 224.698 547.81 224.812 546.678 224.585C545.546 224.358 544.506 223.801 543.691 222.983C542.876 222.164 542.322 221.123 542.099 219.99C541.876 218.856 541.995 217.682 542.439 216.617C542.884 215.551 543.635 214.641 544.598 214.002C545.56 213.364 546.69 213.025 547.845 213.029C549.389 213.035 550.868 213.652 551.957 214.746C553.047 215.839 553.659 217.32 553.659 218.864Z" fill="url(#paint4_linear)"/>
<path d="M641.308 357.376L620.571 347.343C605.946 338.873 591.787 329.625 578.153 319.638C572.069 315.291 564.778 312.955 557.301 312.955C549.823 312.955 542.533 315.291 536.448 319.638L528.557 325.263C524.002 328.518 518.75 330.663 513.219 331.527C507.688 332.391 502.031 331.95 496.701 330.239C491.371 328.529 486.515 325.595 482.52 321.674C478.525 317.752 475.502 312.951 473.692 307.654L446.407 227.897C435.346 195.491 389.528 195.491 378.446 227.897L365.244 266.432C354.75 297.348 311.66 299.237 298.437 269.35L287.019 243.555C284.43 237.705 280.324 232.653 275.128 228.922C269.931 225.19 263.832 222.915 257.461 222.331C251.091 221.746 244.68 222.875 238.891 225.599C233.103 228.323 228.147 232.543 224.536 237.825V237.825C220.773 243.328 215.553 247.675 209.459 250.379C203.365 253.084 196.639 254.038 190.034 253.136C183.428 252.235 177.204 249.512 172.058 245.273C166.913 241.034 163.049 235.446 160.899 229.135L148.264 191.985C136.573 157.732 97.8909 160.314 89.7473 195.595C89.7473 195.595 55.263 316.028 45.1045 336.954L31.4619 365.1" stroke="url(#paint5_linear)" stroke-width="1.81" stroke-miterlimit="10"/>
<path d="M418.177 203.689C418.182 204.844 417.843 205.974 417.204 206.936C416.566 207.899 415.656 208.65 414.59 209.095C413.524 209.539 412.35 209.658 411.217 209.435C410.084 209.212 409.042 208.658 408.224 207.843C407.406 207.028 406.848 205.988 406.621 204.856C406.395 203.724 406.509 202.549 406.95 201.482C407.391 200.414 408.139 199.502 409.099 198.86C410.059 198.218 411.188 197.875 412.343 197.875C413.108 197.872 413.866 198.021 414.574 198.312C415.282 198.602 415.925 199.03 416.467 199.57C417.009 200.111 417.439 200.752 417.733 201.459C418.026 202.166 418.177 202.924 418.177 203.689Z" fill="url(#paint6_linear)"/>
<path d="M562.726 312.872C562.726 314.027 562.384 315.156 561.741 316.116C561.099 317.076 560.187 317.824 559.119 318.265C558.052 318.706 556.878 318.82 555.745 318.593C554.613 318.366 553.573 317.808 552.758 316.99C551.943 316.172 551.389 315.131 551.166 313.997C550.943 312.864 551.062 311.69 551.507 310.625C551.952 309.559 552.703 308.649 553.665 308.01C554.627 307.372 555.758 307.033 556.912 307.037C558.456 307.043 559.935 307.66 561.025 308.754C562.114 309.847 562.726 311.328 562.726 312.872Z" fill="url(#paint7_linear)"/>
<path d="M116.424 174.2C119.646 174.2 122.259 171.588 122.259 168.365C122.259 165.143 119.646 162.53 116.424 162.53C113.201 162.53 110.589 165.143 110.589 168.365C110.589 171.588 113.201 174.2 116.424 174.2Z" fill="url(#paint8_linear)"/>
<path d="M197.083 253.285C197.083 254.439 196.741 255.567 196.099 256.527C195.458 257.486 194.547 258.234 193.481 258.676C192.415 259.117 191.241 259.233 190.11 259.008C188.978 258.783 187.938 258.227 187.122 257.411C186.306 256.595 185.75 255.555 185.525 254.423C185.3 253.292 185.416 252.118 185.857 251.052C186.299 249.986 187.047 249.075 188.006 248.434C188.966 247.792 190.094 247.45 191.248 247.45C192.795 247.45 194.28 248.065 195.374 249.159C196.468 250.253 197.083 251.738 197.083 253.285Z" fill="url(#paint9_linear)"/>
<path d="M335.126 290.645C335.126 291.799 334.784 292.928 334.142 293.887C333.501 294.847 332.59 295.594 331.524 296.036C330.458 296.478 329.284 296.593 328.153 296.368C327.021 296.143 325.981 295.587 325.165 294.771C324.349 293.955 323.793 292.916 323.568 291.784C323.343 290.652 323.459 289.479 323.9 288.413C324.342 287.346 325.09 286.435 326.049 285.794C327.009 285.153 328.137 284.811 329.291 284.811C330.058 284.808 330.818 284.957 331.527 285.249C332.236 285.541 332.881 285.971 333.423 286.513C333.965 287.056 334.395 287.7 334.687 288.409C334.979 289.118 335.129 289.878 335.126 290.645Z" fill="url(#paint10_linear)"/>
<path d="M262.399 223.46C262.399 224.614 262.057 225.742 261.416 226.701C260.775 227.661 259.863 228.409 258.797 228.851C257.731 229.292 256.558 229.408 255.426 229.183C254.294 228.957 253.254 228.402 252.438 227.586C251.622 226.77 251.067 225.73 250.842 224.598C250.616 223.466 250.732 222.293 251.174 221.227C251.615 220.161 252.363 219.249 253.323 218.608C254.282 217.967 255.41 217.625 256.564 217.625C258.112 217.625 259.596 218.24 260.69 219.334C261.784 220.428 262.399 221.912 262.399 223.46Z" fill="url(#paint11_linear)"/>
<path d="M31.8604 362.685C64.1619 349.462 97.3029 250.983 99.3388 247.247C110.526 226.616 130.822 227.707 141.442 251.025L163.039 298.502C180.271 335.756 205.919 325.052 222.458 306.414L239.9 288.784C251.485 277.051 272.369 274.805 287.292 283.705L327.8 307.905C328.472 308.303 329.143 308.66 329.899 309.017C338.109 313.046 347.569 313.709 356.261 310.864L386.883 301.314C423.718 294.808 438.725 320.729 452.368 334.749C457.051 339.684 462.943 343.309 469.46 345.264C475.976 347.219 482.891 347.436 489.517 345.894C495.917 344.387 501.769 341.123 506.413 336.47C507.388 335.431 508.286 334.323 509.1 333.154C514.809 325.367 537.938 293.737 538.484 292.961C552.483 272.581 566.483 270.125 580.335 294.493C580.335 294.493 606.571 341.025 639.439 357.837" stroke="url(#paint12_linear)" stroke-width="2" stroke-linecap="round" stroke-linejoin="round"/>
<path d="M565.307 278.115C565.307 279.269 564.965 280.397 564.324 281.357C563.683 282.316 562.772 283.064 561.705 283.506C560.639 283.947 559.466 284.063 558.334 283.838C557.202 283.613 556.163 283.057 555.347 282.241C554.531 281.425 553.975 280.385 553.75 279.253C553.525 278.122 553.64 276.948 554.082 275.882C554.523 274.816 555.271 273.905 556.231 273.264C557.19 272.623 558.319 272.28 559.473 272.28C560.24 272.278 561 272.427 561.709 272.719C562.418 273.011 563.062 273.441 563.605 273.983C564.147 274.525 564.577 275.17 564.869 275.879C565.161 276.588 565.31 277.348 565.307 278.115Z" fill="#EF6262"/>
<path d="M479.464 353.191C482.686 353.191 485.299 350.579 485.299 347.356C485.299 344.134 482.686 341.521 479.464 341.521C476.241 341.521 473.629 344.134 473.629 347.356C473.629 350.579 476.241 353.191 479.464 353.191Z" fill="#EF6262"/>
<path d="M407.892 302.566C407.892 303.72 407.55 304.848 406.909 305.808C406.268 306.767 405.357 307.515 404.29 307.957C403.224 308.399 402.051 308.514 400.919 308.289C399.787 308.064 398.748 307.508 397.932 306.692C397.116 305.876 396.56 304.836 396.335 303.705C396.11 302.573 396.225 301.4 396.667 300.333C397.108 299.267 397.856 298.356 398.816 297.715C399.775 297.074 400.903 296.731 402.058 296.731C402.824 296.731 403.582 296.882 404.29 297.176C404.998 297.469 405.642 297.899 406.183 298.44C406.725 298.982 407.155 299.625 407.448 300.333C407.741 301.041 407.892 301.8 407.892 302.566Z" fill="#EF6262"/>
<path d="M271.236 279.732C271.24 280.887 270.902 282.017 270.263 282.979C269.624 283.941 268.714 284.693 267.649 285.137C266.583 285.582 265.409 285.701 264.276 285.478C263.143 285.255 262.101 284.701 261.283 283.886C260.465 283.071 259.907 282.031 259.68 280.899C259.453 279.766 259.568 278.592 260.009 277.525C260.45 276.457 261.197 275.545 262.157 274.903C263.117 274.261 264.246 273.918 265.401 273.918C266.945 273.918 268.426 274.53 269.52 275.62C270.613 276.709 271.23 278.188 271.236 279.732Z" fill="#EF6262"/>
<path d="M123.392 233.43C123.392 234.584 123.05 235.712 122.409 236.671C121.768 237.631 120.857 238.379 119.79 238.82C118.724 239.262 117.551 239.377 116.419 239.152C115.287 238.927 114.248 238.371 113.432 237.555C112.616 236.739 112.06 235.7 111.835 234.568C111.61 233.436 111.725 232.263 112.167 231.197C112.608 230.131 113.356 229.219 114.316 228.578C115.275 227.937 116.403 227.595 117.558 227.595C118.325 227.592 119.085 227.741 119.794 228.033C120.503 228.325 121.147 228.755 121.69 229.298C122.232 229.84 122.662 230.484 122.954 231.193C123.246 231.903 123.395 232.663 123.392 233.43Z" fill="#EF6262"/>
<path d="M196.243 323.807C196.243 324.962 195.901 326.09 195.26 327.049C194.618 328.009 193.707 328.757 192.641 329.198C191.575 329.64 190.402 329.755 189.27 329.53C188.138 329.305 187.098 328.749 186.282 327.933C185.466 327.117 184.91 326.078 184.685 324.946C184.46 323.814 184.576 322.641 185.017 321.575C185.459 320.508 186.207 319.597 187.166 318.956C188.126 318.315 189.254 317.973 190.408 317.973C191.956 317.973 193.44 318.587 194.534 319.682C195.628 320.776 196.243 322.26 196.243 323.807Z" fill="#EF6262"/>
<path opacity="0.6" d="M300.851 137.114C290.415 130.061 282.305 120.072 277.547 108.41C272.789 96.7476 271.596 83.9362 274.119 71.5959C276.643 59.2557 282.769 47.9409 291.723 39.0827C300.678 30.2245 312.058 24.2207 324.425 21.8307C336.791 19.4407 349.589 20.7719 361.199 25.6559C372.81 30.5398 382.711 38.7572 389.65 49.2687C396.59 59.7801 400.256 72.1135 400.186 84.7089C400.116 97.3043 396.312 109.596 389.255 120.029C379.785 134.002 365.159 143.648 348.586 146.85C332.013 150.053 314.846 146.552 300.851 137.114ZM364.531 42.8961C356.327 37.3549 346.664 34.3706 336.765 34.3206C326.865 34.2706 317.173 37.1572 308.913 42.6152C300.654 48.0733 294.199 55.8578 290.363 64.9844C286.528 74.1111 285.485 84.1701 287.366 93.8895C289.247 103.609 293.968 112.552 300.931 119.589C307.895 126.626 316.789 131.44 326.488 133.422C336.187 135.404 346.257 134.466 355.423 130.726C364.589 126.986 372.44 120.612 377.984 112.41C385.415 101.407 388.172 87.9034 385.649 74.8679C383.126 61.8324 375.53 50.3324 364.531 42.8961Z" fill="#9468B4"/>
<path d="M336.511 27.4912C348.339 27.4996 359.871 31.1955 369.501 38.0644C379.13 44.9333 386.379 54.6335 390.238 65.815C394.097 76.9964 394.373 89.1026 391.03 100.449C387.686 111.795 380.888 121.816 371.583 129.118" stroke="url(#paint13_linear)" stroke-width="6.49" stroke-linecap="round" stroke-linejoin="round"/>
<path d="M330.475 89.1807H334.223V91.9824H330.475V98.2539H327.023V91.9824H314.722V89.96L326.819 71.2383H330.475V89.1807ZM318.618 89.1807H327.023V75.9326L326.615 76.6748L318.618 89.1807ZM338.898 84.709L340.271 71.2383H354.113V74.4111H343.185L342.368 81.7773C343.692 80.998 345.195 80.6084 346.877 80.6084C349.339 80.6084 351.293 81.4248 352.74 83.0576C354.188 84.6781 354.911 86.8737 354.911 89.6445C354.911 92.4277 354.157 94.6234 352.647 96.2314C351.151 97.8271 349.054 98.625 346.357 98.625C343.97 98.625 342.022 97.9632 340.513 96.6396C339.004 95.3161 338.144 93.4854 337.934 91.1475H341.181C341.391 92.6937 341.941 93.8626 342.832 94.6543C343.723 95.4336 344.898 95.8232 346.357 95.8232C347.953 95.8232 349.202 95.279 350.105 94.1904C351.021 93.1019 351.479 91.599 351.479 89.6816C351.479 87.8757 350.984 86.4284 349.994 85.3398C349.017 84.2389 347.712 83.6885 346.079 83.6885C344.582 83.6885 343.407 84.0163 342.554 84.6719L341.645 85.4141L338.898 84.709Z" fill="#9468B4"/>
<path opacity="0.6" d="M116.486 148.049C103.892 148.049 91.5798 144.315 81.1077 137.318C70.6357 130.32 62.4737 120.375 57.654 108.739C52.8342 97.1031 51.5732 84.2993 54.0303 71.9467C56.4873 59.5941 62.5522 48.2475 71.458 39.3418C80.3637 30.436 91.7103 24.3711 104.063 21.914C116.416 19.457 129.219 20.718 140.855 25.5378C152.491 30.3575 162.437 38.5195 169.434 48.9915C176.431 59.4636 180.166 71.7753 180.166 84.37C180.149 101.254 173.435 117.441 161.496 129.38C149.557 141.318 133.37 148.033 116.486 148.049ZM116.486 34.2911C106.581 34.2869 96.8963 37.2205 88.6581 42.7207C80.4199 48.2209 73.9979 56.0407 70.2044 65.1911C66.4108 74.3414 65.4161 84.4113 67.346 94.127C69.2759 103.843 74.0438 112.768 81.0467 119.774C88.0495 126.779 96.9726 131.551 106.688 133.485C116.402 135.419 126.473 134.429 135.625 130.639C144.777 126.849 152.599 120.43 158.103 112.194C163.606 103.959 166.544 94.2755 166.544 84.37C166.533 71.0953 161.256 58.3671 151.871 48.9785C142.487 39.5899 129.761 34.3078 116.486 34.2911Z" fill="#FF864D"/>
<path d="M116.486 27.4912C123.955 27.4912 131.35 28.9626 138.25 31.8213C145.15 34.68 151.419 38.87 156.699 44.152C161.979 49.434 166.166 55.7045 169.022 62.6053C171.879 69.506 173.347 76.9019 173.345 84.3704" stroke="url(#paint14_linear)" stroke-width="6.49" stroke-linecap="round" stroke-linejoin="round"/>
<path d="M114.185 95.8604H96.4834V93.3926L105.835 83.002C107.22 81.431 108.173 80.1569 108.692 79.1797C109.224 78.1901 109.49 77.1696 109.49 76.1182C109.49 74.708 109.063 73.5514 108.21 72.6484C107.356 71.7454 106.218 71.2939 104.796 71.2939C103.089 71.2939 101.759 71.7826 100.807 72.7598C99.8665 73.7246 99.3965 75.0729 99.3965 76.8047H95.9639C95.9639 74.3184 96.7617 72.3083 98.3574 70.7744C99.9655 69.2406 102.112 68.4736 104.796 68.4736C107.307 68.4736 109.292 69.1354 110.752 70.459C112.212 71.7702 112.941 73.5205 112.941 75.71C112.941 78.3695 111.247 81.5361 107.857 85.21L100.621 93.0586H114.185V95.8604ZM119.398 82.3154L120.771 68.8447H134.613V72.0176H123.685L122.868 79.3838C124.192 78.6045 125.695 78.2148 127.377 78.2148C129.839 78.2148 131.793 79.0312 133.24 80.6641C134.688 82.2845 135.411 84.4801 135.411 87.251C135.411 90.0342 134.657 92.2298 133.147 93.8379C131.651 95.4336 129.554 96.2314 126.857 96.2314C124.47 96.2314 122.522 95.5697 121.013 94.2461C119.504 92.9225 118.644 91.0918 118.434 88.7539H121.681C121.891 90.3001 122.441 91.4691 123.332 92.2607C124.223 93.04 125.398 93.4297 126.857 93.4297C128.453 93.4297 129.702 92.8854 130.605 91.7969C131.521 90.7083 131.979 89.2054 131.979 87.2881C131.979 85.4821 131.484 84.0348 130.494 82.9463C129.517 81.8454 128.212 81.2949 126.579 81.2949C125.082 81.2949 123.907 81.6227 123.054 82.2783L122.145 83.0205L119.398 82.3154Z" fill="#EF6262"/>
<path opacity="0.6" d="M557.556 146.644C545.049 146.644 532.822 142.935 522.423 135.986C512.023 129.037 503.918 119.161 499.131 107.605C494.345 96.0498 493.092 83.3346 495.533 71.0675C497.973 58.8004 503.995 47.5323 512.84 38.6882C521.684 29.8441 532.952 23.8212 545.219 21.3812C557.486 18.9411 570.201 20.1934 581.757 24.9798C593.312 29.7662 603.188 37.8717 610.137 48.2712C617.086 58.6708 620.795 70.8973 620.795 83.4048C620.784 100.173 614.118 116.252 602.26 128.109C590.403 139.966 574.325 146.632 557.556 146.644ZM557.556 33.7037C547.721 33.7037 538.107 36.6204 529.93 42.0848C521.753 47.5493 515.38 55.3161 511.617 64.4028C507.854 73.4896 506.871 83.4881 508.791 93.1338C510.711 102.779 515.449 111.639 522.405 118.592C529.361 125.545 538.222 130.279 547.869 132.195C557.515 134.111 567.513 133.124 576.598 129.357C585.684 125.59 593.448 119.214 598.909 111.035C604.37 102.855 607.282 93.2398 607.278 83.4048C607.262 70.2247 602.017 57.5896 592.695 48.2718C583.374 38.9541 570.736 33.7148 557.556 33.7037Z" fill="#4C71F0"/>
<path d="M556.765 146.643C547.64 146.643 538.623 144.668 530.333 140.853C522.044 137.038 514.678 131.473 508.743 124.542C508.154 123.87 507.704 123.087 507.419 122.24C507.134 121.392 507.02 120.497 507.084 119.605C507.147 118.713 507.387 117.843 507.789 117.045C508.192 116.246 508.748 115.536 509.427 114.954C510.106 114.372 510.894 113.931 511.744 113.656C512.595 113.381 513.492 113.277 514.383 113.351C515.274 113.425 516.141 113.674 516.935 114.086C517.729 114.497 518.433 115.062 519.007 115.748C524.429 122.085 531.358 126.957 539.156 129.915C546.954 132.873 555.372 133.822 563.633 132.674C571.894 131.526 579.733 128.318 586.43 123.346C593.127 118.374 598.465 111.798 601.953 104.222C605.442 96.646 606.969 88.3142 606.393 79.9936C605.817 71.673 603.158 63.6308 598.659 56.6074C594.161 49.584 587.968 43.8051 580.651 39.8025C573.333 35.7999 565.127 33.7024 556.786 33.703C554.994 33.703 553.275 32.9909 552.007 31.7235C550.74 30.456 550.028 28.737 550.028 26.9446C550.028 25.1522 550.74 23.4332 552.007 22.1657C553.275 20.8983 554.994 20.1863 556.786 20.1863C565.186 20.0332 573.533 21.5556 581.338 24.6643C589.143 27.7731 596.251 32.4061 602.246 38.2925C608.24 44.179 613.002 51.2009 616.252 58.9483C619.503 66.6956 621.177 75.0129 621.177 83.4145C621.177 91.8161 619.503 100.133 616.252 107.881C613.002 115.628 608.24 122.65 602.246 128.537C596.251 134.423 589.143 139.056 581.338 142.165C573.533 145.273 565.186 146.796 556.786 146.643H556.765Z" fill="url(#paint15_linear)"/>
<path d="M548.239 70.2744V73.1875H547.608C544.937 73.237 542.809 74.0286 541.226 75.5625C539.642 77.0964 538.727 79.2549 538.479 82.0381C539.902 80.4053 541.844 79.5889 544.306 79.5889C546.656 79.5889 548.53 80.4176 549.928 82.0752C551.338 83.7327 552.043 85.8727 552.043 88.4951C552.043 91.2783 551.282 93.5049 549.761 95.1748C548.252 96.8447 546.223 97.6797 543.675 97.6797C541.09 97.6797 538.993 96.6901 537.385 94.7109C535.777 92.7194 534.973 90.1589 534.973 87.0293V85.7119C534.973 80.7393 536.03 76.9417 538.146 74.3193C540.273 71.6846 543.434 70.3363 547.627 70.2744H548.239ZM543.73 82.4463C542.555 82.4463 541.473 82.7988 540.483 83.5039C539.494 84.209 538.807 85.0934 538.424 86.1572V87.4189C538.424 89.6455 538.925 91.4391 539.927 92.7998C540.929 94.1605 542.178 94.8408 543.675 94.8408C545.221 94.8408 546.433 94.2718 547.312 93.1338C548.202 91.9958 548.647 90.5052 548.647 88.6621C548.647 86.8066 548.196 85.3099 547.293 84.1719C546.402 83.0215 545.215 82.4463 543.73 82.4463ZM573.047 85.7861C573.047 89.8063 572.36 92.7936 570.987 94.748C569.614 96.7025 567.468 97.6797 564.549 97.6797C561.667 97.6797 559.533 96.7272 558.147 94.8223C556.762 92.9049 556.045 90.0475 555.995 86.25V81.667C555.995 77.6963 556.682 74.7461 558.055 72.8164C559.428 70.8867 561.58 69.9219 564.512 69.9219C567.419 69.9219 569.559 70.8558 570.932 72.7236C572.305 74.5791 573.01 77.4489 573.047 81.333V85.7861ZM569.614 81.0918C569.614 78.1849 569.206 76.0697 568.39 74.7461C567.573 73.4102 566.281 72.7422 564.512 72.7422C562.755 72.7422 561.475 73.404 560.671 74.7275C559.867 76.0511 559.452 78.0859 559.428 80.832V86.3242C559.428 89.2435 559.848 91.402 560.689 92.7998C561.543 94.1852 562.829 94.8779 564.549 94.8779C566.243 94.8779 567.499 94.2223 568.315 92.9111C569.144 91.5999 569.577 89.5342 569.614 86.7139V81.0918Z" fill="black"/>
<path d="M193.788 79.9414H260.952" stroke="url(#paint16_linear)" stroke-width="2" stroke-linecap="round" stroke-linejoin="round"/>
<path d="M227.37 86.2377C230.847 86.2377 233.666 83.4186 233.666 79.9411C233.666 76.4636 230.847 73.6445 227.37 73.6445C223.892 73.6445 221.073 76.4636 221.073 79.9411C221.073 83.4186 223.892 86.2377 227.37 86.2377Z" fill="#FF864D"/>
<path d="M410.201 82.25H477.365" stroke="url(#paint17_linear)" stroke-width="1.81" stroke-miterlimit="10"/>
<path d="M443.783 88.5473C447.26 88.5473 450.08 85.7282 450.08 82.2507C450.08 78.7732 447.26 75.9541 443.783 75.9541C440.305 75.9541 437.486 78.7732 437.486 82.2507C437.486 85.7282 440.305 88.5473 443.783 88.5473Z" fill="url(#paint18_linear)"/>
</g>
<defs>
<filter id="filter0_d" x="0.636719" y="0.166016" width="691.725" height="425.328" filterUnits="userSpaceOnUse" color-interpolation-filters="sRGB">
<feFlood flood-opacity="0" result="BackgroundImageFix"/>
<feColorMatrix in="SourceAlpha" type="matrix" values="0 0 0 0 0 0 0 0 0 0 0 0 0 0 0 0 0 0 127 0"/>
<feOffset dx="10" dy="20"/>
<feGaussianBlur stdDeviation="20"/>
<feColorMatrix type="matrix" values="0 0 0 0 0.0625 0 0 0 0 0.0625 0 0 0 0 0.0625 0 0 0 0.2 0"/>
<feBlend mode="normal" in2="BackgroundImageFix" result="effect1_dropShadow"/>
<feBlend mode="normal" in="SourceGraphic" in2="effect1_dropShadow" result="shape"/>
</filter>
<linearGradient id="paint0_linear" x1="642.861" y1="290.527" x2="30.3493" y2="290.527" gradientUnits="userSpaceOnUse">
<stop offset="0.03" stop-color="#4C71F0"/>
<stop offset="1" stop-color="#2C52DB"/>
</linearGradient>
<linearGradient id="paint1_linear" x1="584.332" y1="1828.07" x2="649.215" y2="1828.07" gradientUnits="userSpaceOnUse">
<stop offset="0.03" stop-color="#4C71F0"/>
<stop offset="1" stop-color="#2C52DB"/>
</linearGradient>
<linearGradient id="paint2_linear" x1="1128.86" y1="2319.21" x2="1193.74" y2="2319.21" gradientUnits="userSpaceOnUse">
<stop offset="0.03" stop-color="#4C71F0"/>
<stop offset="1" stop-color="#2C52DB"/>
</linearGradient>
<linearGradient id="paint3_linear" x1="2432.35" y1="1809.84" x2="2497.23" y2="1809.84" gradientUnits="userSpaceOnUse">
<stop offset="0.03" stop-color="#4C71F0"/>
<stop offset="1" stop-color="#2C52DB"/>
</linearGradient>
<linearGradient id="paint4_linear" x1="3387.06" y1="1474.87" x2="3451.82" y2="1474.87" gradientUnits="userSpaceOnUse">
<stop offset="0.03" stop-color="#4C71F0"/>
<stop offset="1" stop-color="#2C52DB"/>
</linearGradient>
<linearGradient id="paint5_linear" x1="642.252" y1="265.551" x2="29.8878" y2="265.551" gradientUnits="userSpaceOnUse">
<stop stop-color="#9D54D2"/>
<stop offset="1" stop-color="#C080EE"/>
</linearGradient>
<linearGradient id="paint6_linear" x1="853.365" y1="1179.23" x2="918.248" y2="1179.23" gradientUnits="userSpaceOnUse">
<stop stop-color="#A26ACA"/>
<stop offset="1" stop-color="#9468B4"/>
</linearGradient>
<linearGradient id="paint7_linear" x1="997.913" y1="1288.39" x2="1062.8" y2="1288.39" gradientUnits="userSpaceOnUse">
<stop stop-color="#A26ACA"/>
<stop offset="1" stop-color="#9468B4"/>
</linearGradient>
<linearGradient id="paint8_linear" x1="557.446" y1="1143.88" x2="622.329" y2="1143.88" gradientUnits="userSpaceOnUse">
<stop stop-color="#A26ACA"/>
<stop offset="1" stop-color="#9468B4"/>
</linearGradient>
<linearGradient id="paint9_linear" x1="632.27" y1="1228.8" x2="697.154" y2="1228.8" gradientUnits="userSpaceOnUse">
<stop stop-color="#A26ACA"/>
<stop offset="1" stop-color="#9468B4"/>
</linearGradient>
<linearGradient id="paint10_linear" x1="770.315" y1="1266.17" x2="835.199" y2="1266.17" gradientUnits="userSpaceOnUse">
<stop stop-color="#A26ACA"/>
<stop offset="1" stop-color="#9468B4"/>
</linearGradient>
<linearGradient id="paint11_linear" x1="697.586" y1="1198.97" x2="762.47" y2="1198.97" gradientUnits="userSpaceOnUse">
<stop stop-color="#A26ACA"/>
<stop offset="1" stop-color="#9468B4"/>
</linearGradient>
<linearGradient id="paint12_linear" x1="29.9294" y1="297.704" x2="641.643" y2="297.704" gradientUnits="userSpaceOnUse">
<stop stop-color="#FF864D"/>
<stop offset="1" stop-color="#EF6262"/>
</linearGradient>
<linearGradient id="paint13_linear" x1="8458.78" y1="2841.54" x2="10368" y2="2841.54" gradientUnits="userSpaceOnUse">
<stop stop-color="#C371FF"/>
<stop offset="1" stop-color="#A44FE2"/>
</linearGradient>
<linearGradient id="paint14_linear" x1="2281.65" y1="996.144" x2="4190.95" y2="996.144" gradientUnits="userSpaceOnUse">
<stop stop-color="#FF864D"/>
<stop offset="1" stop-color="#EF6262"/>
</linearGradient>
<linearGradient id="paint15_linear" x1="26460.4" y1="3829.68" x2="32597.2" y2="3829.68" gradientUnits="userSpaceOnUse">
<stop offset="0.03" stop-color="#4C71F0"/>
<stop offset="1" stop-color="#2C52DB"/>
</linearGradient>
<linearGradient id="paint16_linear" x1="-nan" y1="-nan" x2="-nan" y2="-nan" gradientUnits="userSpaceOnUse">
<stop stop-color="#FF864D"/>
<stop offset="1" stop-color="#EF6262"/>
</linearGradient>
<linearGradient id="paint17_linear" x1="-nan" y1="-nan" x2="-nan" y2="-nan" gradientUnits="userSpaceOnUse">
<stop stop-color="#00E0D7"/>
<stop offset="0.45" stop-color="#00E9E0"/>
<stop offset="1" stop-color="#00F0E7"/>
</linearGradient>
<linearGradient id="paint18_linear" x1="2883.84" y1="448.334" x2="2959.4" y2="448.334" gradientUnits="userSpaceOnUse">
<stop stop-color="#00E0D7"/>
<stop offset="0.45" stop-color="#00E9E0"/>
<stop offset="1" stop-color="#00F0E7"/>
</linearGradient>
</defs>
</svg>
