<svg width="391" height="367" viewBox="0 0 391 367" fill="none" xmlns="http://www.w3.org/2000/svg">
<g opacity="0.15">
<path d="M34.6951 266.204C89.3961 314.351 138.253 314.831 207.358 318.775C276.464 322.719 324.745 307.259 356.836 269.515C393.879 225.956 380.655 139.135 312.125 116.698C290.705 109.673 266.359 109.913 246.868 98.6178C209.748 77.0541 177.138 40.1549 122.111 39.6943C67.0838 39.2336 35.434 80.365 35.434 80.365C-2.46323 134.884 -20.0251 218.058 34.6951 266.204Z" fill="#9468B4"/>
<path opacity="0.7" d="M34.6951 266.204C89.3961 314.351 138.253 314.831 207.358 318.775C276.464 322.719 324.745 307.259 356.836 269.515C393.879 225.956 380.655 139.135 312.125 116.698C290.705 109.673 266.359 109.913 246.868 98.6178C209.748 77.0541 177.138 40.1549 122.111 39.6943C67.0838 39.2336 35.434 80.365 35.434 80.365C-2.46323 134.884 -20.0251 218.058 34.6951 266.204Z" fill="white"/>
</g>
<path d="M185.238 356.777C268.089 356.777 335.253 353.409 335.253 349.253C335.253 345.098 268.089 341.729 185.238 341.729C102.387 341.729 35.2227 345.098 35.2227 349.253C35.2227 353.409 102.387 356.777 185.238 356.777Z" fill="#9468B4"/>
<path opacity="0.7" d="M185.238 356.777C268.089 356.777 335.253 353.409 335.253 349.253C335.253 345.098 268.089 341.729 185.238 341.729C102.387 341.729 35.2227 345.098 35.2227 349.253C35.2227 353.409 102.387 356.777 185.238 356.777Z" fill="white"/>
<path d="M361.797 366.498C377.926 366.498 391 363.529 391 359.867C391 356.204 377.926 353.235 361.797 353.235C345.669 353.235 332.595 356.204 332.595 359.867C332.595 363.529 345.669 366.498 361.797 366.498Z" fill="#9468B4"/>
<path opacity="0.7" d="M361.797 366.498C377.926 366.498 391 363.529 391 359.867C391 356.204 377.926 353.235 361.797 353.235C345.669 353.235 332.595 356.204 332.595 359.867C332.595 363.529 345.669 366.498 361.797 366.498Z" fill="white"/>
<path d="M94.6264 327.575C93.2925 325.512 91.4499 322.527 89.3194 318.861C88.7149 317.806 88.1007 316.683 87.4769 315.512C87.9279 315.224 91.6322 312.882 92.7838 311.155C93.8491 309.61 94.7032 307.316 94.0314 305.474C93.7667 304.639 93.1817 303.942 92.4047 303.538C91.6276 303.133 90.7217 303.053 89.8856 303.315L89.5498 303.439C87.0162 304.639 86.1909 309.61 86.5076 312.076C86.5076 312.22 86.9875 314.072 87.237 315.013L86.1046 312.892C85.5575 311.827 85.0393 310.685 84.4635 309.591L83.6766 307.815C83.3983 307.22 83.1968 306.625 82.9568 306.021C82.621 305.128 82.3139 304.188 81.9972 303.247C83.0624 302.748 86.3733 301.232 87.5824 299.898C88.7916 298.564 90.0392 296.405 89.7033 294.457C89.5685 293.593 89.0972 292.817 88.3923 292.299C87.6875 291.781 86.8064 291.563 85.9414 291.693L85.5767 291.77C82.8993 292.566 81.3254 297.355 81.2678 299.85C81.27 300.268 81.3021 300.685 81.3638 301.098C81.0951 300.138 80.8168 299.246 80.5769 298.305C79.8859 295.618 79.2717 292.864 78.6575 290.119C78.5328 289.543 78.3984 288.968 78.2545 288.401C79.2142 287.989 82.7361 286.357 84.0125 284.956C85.2888 283.555 86.4788 281.463 86.1334 279.524C85.9963 278.658 85.5216 277.88 84.8131 277.362C84.1046 276.844 83.2198 276.628 82.3523 276.761L82.0068 276.837C79.3293 277.634 77.7555 282.432 77.6979 284.927C77.6979 285.014 77.6979 285.647 77.813 286.348C77.4484 284.86 77.0645 283.373 76.6422 281.914C75.9236 279.406 75.042 276.947 74.0032 274.553C74.339 274.419 78.5232 272.634 79.9339 271.041C81.1911 269.659 82.4002 267.548 82.0548 265.619C81.9223 264.751 81.4505 263.971 80.7433 263.451C80.036 262.931 79.1512 262.713 78.2833 262.845C78.1629 262.861 78.0441 262.887 77.9282 262.922C75.2507 263.719 73.6865 268.517 73.6193 271.012C73.6193 271.175 73.8208 273.459 73.9264 274.275V274.198C72.8431 271.874 71.5587 269.648 70.0877 267.548C68.7711 265.676 67.3518 263.879 65.8364 262.164C64.4449 260.561 63.0726 259.179 61.8538 257.922C61.182 257.27 60.5582 256.684 59.9344 256.147C59.9344 256.147 58.6293 253.028 58.5237 252.836C57.2762 250.706 53.5911 247.241 50.8464 247.836C49.9964 248.045 49.2642 248.583 48.8107 249.332C48.3572 250.08 48.2195 250.978 48.428 251.828C48.428 251.944 48.4952 252.059 48.5336 252.174C49.1382 254.093 51.2207 255.36 52.9865 255.936C54.7522 256.512 58.7445 256.253 59.7041 256.166C60.2991 256.742 60.9325 257.356 61.6235 258.085C62.8134 259.323 64.157 260.725 65.4621 262.327C65.8268 262.759 66.1915 263.287 66.5274 263.7C65.7404 263.057 64.656 262.183 64.5408 262.106C62.42 260.773 57.5737 259.419 55.4336 261.204C55.1057 261.488 54.8371 261.834 54.6431 262.221C54.4491 262.609 54.3337 263.031 54.3034 263.464C54.2731 263.896 54.3285 264.33 54.4664 264.741C54.6044 265.152 54.8222 265.532 55.1073 265.859C55.1837 265.958 55.2706 266.048 55.3664 266.128C56.7771 267.509 59.2051 267.682 61.0477 267.404C62.8902 267.126 66.3546 264.976 67.1607 264.525C67.9573 265.59 68.7538 266.646 69.5215 267.807C70.9303 269.905 72.1507 272.125 73.1682 274.438C73.2258 274.573 73.2642 274.717 73.3314 274.851C73.0051 274.477 71.0378 272.49 70.8746 272.356C68.9553 270.801 64.2529 268.92 61.921 270.436C61.2001 270.945 60.7104 271.718 60.5593 272.587C60.4081 273.456 60.6079 274.35 61.1148 275.072C61.1799 275.162 61.2504 275.249 61.326 275.331C62.5639 276.866 64.9631 277.25 66.8249 277.25C68.9457 277.183 73.197 275.043 73.3602 274.956C74.317 277.293 75.1154 279.691 75.7498 282.135C76.2392 283.929 76.6518 285.781 77.0453 287.634C76.6135 287.144 74.7805 285.302 74.6365 285.186C72.7172 283.622 68.0148 281.741 65.6733 283.267C64.9533 283.769 64.462 284.536 64.3073 285.4C64.1525 286.263 64.347 287.153 64.8479 287.874L65.0687 288.161C66.3258 289.687 68.7154 290.081 70.5772 290.081C72.7076 290.004 76.7382 287.95 77.0741 287.806C77.2564 288.641 77.4484 289.495 77.6211 290.33C78.1969 293.104 78.7535 295.877 79.3965 298.593C79.6076 299.553 79.8571 300.512 80.1066 301.386C79.4253 300.666 78.1873 299.39 78.0338 299.265C76.1144 297.691 71.4025 295.82 69.0705 297.345C68.3499 297.849 67.8584 298.618 67.7037 299.483C67.549 300.348 67.7437 301.24 68.2452 301.961C68.3134 302.058 68.3871 302.151 68.4659 302.24C69.7231 303.775 72.1126 304.207 73.9744 304.159C75.8361 304.111 79.2909 302.46 80.2602 302.038C80.692 303.564 81.1431 305.09 81.6613 306.549C81.9108 307.182 82.1123 307.835 82.3619 308.468C82.6114 309.101 82.8609 309.668 83.12 310.253C83.667 311.453 84.1756 312.566 84.7226 313.669C84.9914 314.226 85.2601 314.735 85.5288 315.282C84.9434 314.456 84.0029 313.161 83.8973 313.055C82.2083 311.203 77.861 308.65 75.3275 309.812C74.9369 310.002 74.5878 310.267 74.3001 310.593C74.0124 310.919 73.7918 311.298 73.6509 311.709C73.51 312.12 73.4517 312.555 73.4792 312.988C73.5067 313.422 73.6195 313.846 73.8112 314.236C73.8112 314.341 73.9264 314.447 73.984 314.552C75.0492 316.26 77.2948 317.047 79.147 317.259C81.1911 317.498 85.3848 316.193 85.8646 316.001C86.5268 317.326 87.189 318.592 87.784 319.782C89.8185 323.535 91.6226 326.567 92.947 328.688C94.2713 330.809 95.0679 331.989 95.0679 331.989C95.1399 332.098 95.2333 332.191 95.3424 332.262C95.4515 332.334 95.574 332.382 95.7024 332.404C95.8308 332.427 95.9625 332.423 96.0893 332.393C96.2162 332.363 96.3355 332.307 96.4402 332.229C96.5474 332.157 96.639 332.064 96.7095 331.956C96.78 331.848 96.8279 331.726 96.8503 331.599C96.8727 331.472 96.8691 331.341 96.8399 331.215C96.8107 331.09 96.7563 330.971 96.6801 330.867C96.6801 330.867 95.9795 329.629 94.6264 327.575Z" fill="#9468B4"/>
<path d="M67.2179 263.987C67.2179 263.987 71.0566 260.945 72.0738 258.988C72.9087 257.337 73.5133 254.976 72.64 253.23C72.2833 252.431 71.6241 251.806 70.8071 251.493C69.9902 251.18 69.0824 251.204 68.2831 251.56L67.9569 251.723C65.5865 253.201 65.3274 258.239 65.932 260.667C66.0183 260.849 67.2179 264.016 67.2179 263.987Z" fill="#9468B4"/>
<path d="M92.4286 329.378C90.183 328.418 86.9777 326.95 83.2158 325.04C82.1601 324.493 80.9894 323.898 79.8186 323.255C80.0585 322.775 81.8435 318.774 81.8339 316.71C81.8339 314.849 81.3156 312.459 79.713 311.288C79.0347 310.735 78.1643 310.473 77.2932 310.561C76.4222 310.65 75.6218 311.08 75.0682 311.758L74.8475 312.056C73.3984 314.455 75.4425 319.062 77.0835 320.942C77.1891 321.077 78.5902 322.353 79.3099 323.006L77.1891 321.835C76.1238 321.25 75.0682 320.607 74.003 319.983L72.3907 318.918C71.8245 318.582 71.3255 318.188 70.7977 317.852C70.0204 317.305 69.243 316.691 68.4849 316.077C69.1375 315.012 71.0088 311.979 71.2871 310.194C71.5654 308.409 71.4023 305.943 70.03 304.513C69.446 303.861 68.6275 303.466 67.7534 303.416C66.8794 303.365 66.021 303.663 65.366 304.244C65.2748 304.329 65.1883 304.419 65.1069 304.513C63.3123 306.634 64.6366 311.519 65.961 313.63C66.1954 313.966 66.4519 314.287 66.7287 314.589C65.9994 313.966 65.2508 313.342 64.5311 312.67C62.487 310.808 60.4429 308.831 58.4084 306.912L57.1033 305.703C57.6599 304.849 59.7231 301.538 59.9823 299.676C60.2414 297.814 60.0974 295.425 58.7251 293.985C58.4352 293.661 58.0841 293.397 57.692 293.209C57.2999 293.021 56.8744 292.913 56.4402 292.889C56.0059 292.866 55.5713 292.929 55.1614 293.074C54.7514 293.22 54.3743 293.444 54.0515 293.736L53.802 293.985C52.0074 296.106 53.3318 301.001 54.6657 303.112C54.9298 303.506 55.2216 303.882 55.539 304.235C54.4162 303.189 53.2742 302.162 52.1226 301.183C50.1439 299.484 48.0535 297.919 45.8656 296.5C46.0671 296.193 48.5622 292.383 48.8789 290.3C49.1572 288.448 48.9941 286.049 47.6217 284.609C47.3296 284.285 46.9761 284.021 46.5816 283.834C46.1871 283.647 45.7595 283.539 45.3233 283.518C44.8871 283.496 44.451 283.561 44.0401 283.709C43.6291 283.857 43.2515 284.085 42.929 284.379L42.6987 284.609C40.9041 286.73 42.2284 291.625 43.5528 293.736C43.6487 293.889 45.0882 295.655 45.616 296.298L45.5393 296.241C43.3569 294.902 41.0608 293.759 38.6777 292.824C36.5468 291.997 34.3713 291.288 32.1615 290.703C30.1174 290.128 28.2077 289.744 26.5187 289.398C25.559 289.225 24.7625 289.082 23.9851 288.947C23.9851 288.947 21.1637 287.076 20.9718 286.98C18.7454 285.867 13.7647 285.061 11.8166 287.028C11.2225 287.675 10.9092 288.531 10.9452 289.409C10.9811 290.287 11.3635 291.115 12.0085 291.711L12.2772 291.932C13.8223 293.17 16.2502 293.074 18.0352 292.613C19.8202 292.152 23.0159 289.734 23.7932 289.091C24.6089 289.235 25.4822 289.408 26.4323 289.609C28.1117 289.984 30.0023 290.415 32.0272 291.03C32.5742 291.193 33.0924 291.394 33.697 291.567C32.7373 291.461 31.3074 291.327 31.1826 291.337C28.6779 291.337 23.8892 292.93 23.0735 295.588C22.9573 296.007 22.9253 296.445 22.9794 296.876C23.0334 297.308 23.1725 297.724 23.3884 298.102C23.6043 298.479 23.8929 298.81 24.2375 299.076C24.582 299.341 24.9757 299.535 25.3959 299.647C25.5088 299.682 25.6243 299.708 25.7413 299.724C27.6607 300.108 29.8007 298.909 31.1826 297.603C32.5646 296.298 34.3687 292.613 34.6758 291.845C35.9042 292.258 37.171 292.719 38.4473 293.275C40.7879 294.245 43.0362 295.424 45.165 296.797L45.5201 297.066C45.0306 296.932 42.334 296.356 42.1133 296.337C39.6181 296.116 34.6854 297.124 33.6202 299.705C33.4616 300.112 33.3854 300.547 33.3962 300.984C33.407 301.421 33.5045 301.852 33.6831 302.251C33.8617 302.65 34.1177 303.01 34.4364 303.309C34.7551 303.608 35.1301 303.842 35.5395 303.995C35.6462 304.039 35.7551 304.077 35.8658 304.11C37.7852 304.695 39.9828 303.736 41.4991 302.651C43.2457 301.404 45.5968 297.277 45.6832 297.133C47.7655 298.554 49.7531 300.108 51.6332 301.788C53.0343 303.035 54.4066 304.34 55.7597 305.626C55.1167 305.473 52.5736 304.935 52.3817 304.916C49.9058 304.686 44.9539 305.703 43.8886 308.275C43.5673 309.089 43.5818 309.998 43.9289 310.802C44.276 311.606 44.9275 312.24 45.7408 312.565L46.0863 312.68C48.0056 313.275 50.2128 312.315 51.7291 311.221C53.4277 310.002 55.7021 306.077 55.8845 305.741L57.7366 307.565C59.7423 309.542 61.7384 311.557 63.7633 313.467C64.4639 314.129 65.1932 314.762 65.8938 315.386C64.9341 315.165 63.1588 314.801 63.0148 314.781C60.5197 314.561 55.5774 315.578 54.5217 318.15C54.3611 318.552 54.2813 318.983 54.2869 319.416C54.2925 319.85 54.3835 320.278 54.5546 320.676C54.7257 321.075 54.9736 321.435 55.2841 321.738C55.5946 322.04 55.9617 322.279 56.3643 322.44L56.7194 322.555C58.6387 323.14 60.8364 322.18 62.3526 321.096C63.8689 320.012 65.8554 316.749 66.4024 315.789C67.602 316.854 68.8112 317.852 70.0492 318.783C70.6058 319.177 71.1144 319.609 71.671 319.964L73.2832 321.019C74.406 321.71 75.4041 322.363 76.4597 322.987L78.024 323.889C77.0643 323.514 75.5672 322.929 75.4329 322.929C73.0049 322.324 68.0051 322.583 66.4984 324.963C66.279 325.339 66.1358 325.754 66.0768 326.185C66.0179 326.616 66.0445 327.054 66.155 327.475C66.2655 327.895 66.4578 328.29 66.7209 328.636C66.984 328.983 67.3127 329.274 67.6884 329.493C67.7898 329.555 67.8957 329.61 68.0051 329.656C69.7709 330.51 72.1316 329.906 73.7631 329.071C75.596 328.111 78.3599 324.714 78.6958 324.273C79.9817 325.011 81.2293 325.712 82.4193 326.336C86.1716 328.341 89.3768 329.877 91.6417 330.923C93.9065 331.969 95.2116 332.516 95.2116 332.516C95.456 332.609 95.7272 332.601 95.9657 332.494C96.2041 332.387 96.3903 332.189 96.4832 331.945C96.5761 331.701 96.5681 331.429 96.461 331.191C96.3539 330.953 96.1565 330.766 95.9122 330.673C95.9122 330.673 94.6934 330.338 92.4286 329.378Z" fill="#9468B4"/>
<path d="M34.522 291.453C34.522 291.453 36.0575 286.789 35.808 284.62C35.5872 282.759 34.7427 280.465 33.1017 279.467C32.3594 278.996 31.4608 278.839 30.6026 279.029C29.7445 279.22 28.9971 279.743 28.5241 280.484C28.4593 280.582 28.4016 280.685 28.3514 280.791C27.1806 283.344 29.7525 287.682 31.6046 289.361C31.7582 289.515 34.5124 291.511 34.522 291.453Z" fill="#9468B4"/>
<g opacity="0.4">
<path opacity="0.4" d="M94.6264 327.574C93.2925 325.511 91.4499 322.526 89.3194 318.86C88.7149 317.805 88.1007 316.682 87.4769 315.511C87.9279 315.223 91.6322 312.881 92.7838 311.154C93.8491 309.609 94.7032 307.315 94.0314 305.473C93.7667 304.638 93.1817 303.941 92.4047 303.537C91.6276 303.132 90.7217 303.052 89.8856 303.314L89.5498 303.438C87.0162 304.638 86.1909 309.609 86.5076 312.075C86.5076 312.219 86.9875 314.071 87.237 315.012L86.1046 312.891C85.5575 311.826 85.0393 310.684 84.4635 309.59L83.6766 307.814C83.3983 307.219 83.1968 306.624 82.9568 306.02C82.621 305.127 82.3139 304.187 81.9972 303.246C83.0624 302.747 86.3733 301.231 87.5824 299.897C88.7916 298.563 90.0392 296.404 89.7033 294.456C89.5685 293.592 89.0972 292.816 88.3923 292.298C87.6875 291.78 86.8064 291.562 85.9414 291.692L85.5767 291.769C82.8993 292.565 81.3254 297.354 81.2678 299.849C81.27 300.267 81.3021 300.684 81.3638 301.097C81.0951 300.137 80.8168 299.245 80.5769 298.304C79.8859 295.617 79.2717 292.863 78.6575 290.118C78.5328 289.542 78.3984 288.967 78.2545 288.4C79.2142 287.988 82.7361 286.356 84.0125 284.955C85.2888 283.554 86.4788 281.462 86.1334 279.523C85.9963 278.657 85.5216 277.879 84.8131 277.361C84.1046 276.843 83.2198 276.627 82.3523 276.76L82.0068 276.836C79.3293 277.633 77.7555 282.431 77.6979 284.926C77.6979 285.013 77.6979 285.646 77.813 286.347C77.4484 284.859 77.0645 283.372 76.6422 281.913C75.9236 279.405 75.042 276.946 74.0032 274.552C74.339 274.418 78.5232 272.633 79.9339 271.04C81.1911 269.658 82.4002 267.547 82.0548 265.618C81.9223 264.75 81.4505 263.97 80.7433 263.45C80.036 262.93 79.1512 262.712 78.2833 262.844C78.1629 262.86 78.0441 262.886 77.9282 262.921C75.2507 263.718 73.6865 268.516 73.6193 271.011C73.6193 271.174 73.8208 273.458 73.9264 274.274V274.197C72.8431 271.873 71.5587 269.648 70.0877 267.547C68.7711 265.675 67.3518 263.878 65.8364 262.163C64.4449 260.56 63.0726 259.179 61.8538 257.921C61.182 257.269 60.5582 256.683 59.9344 256.146C59.9344 256.146 58.6293 253.027 58.5237 252.835C57.2762 250.705 53.5911 247.24 50.8464 247.835C49.9964 248.044 49.2642 248.582 48.8107 249.331C48.3572 250.079 48.2195 250.977 48.428 251.827C48.428 251.943 48.4952 252.058 48.5336 252.173C49.1382 254.092 51.2207 255.359 52.9865 255.935C54.7522 256.511 58.7445 256.252 59.7041 256.165C60.2991 256.741 60.9325 257.355 61.6235 258.085C62.8134 259.322 64.157 260.724 65.4621 262.326C65.8268 262.758 66.1915 263.286 66.5274 263.699C65.7404 263.056 64.656 262.182 64.5408 262.106C62.42 260.772 57.5737 259.418 55.4336 261.203C55.1057 261.487 54.8371 261.833 54.6431 262.22C54.4491 262.608 54.3337 263.03 54.3034 263.463C54.2731 263.895 54.3285 264.33 54.4664 264.741C54.6044 265.152 54.8222 265.531 55.1073 265.858C55.1837 265.957 55.2706 266.047 55.3664 266.127C56.7771 267.508 59.2051 267.681 61.0477 267.403C62.8902 267.125 66.3546 264.975 67.1607 264.524C67.9573 265.589 68.7538 266.645 69.5215 267.806C70.9303 269.904 72.1507 272.124 73.1682 274.437C73.2258 274.572 73.2642 274.716 73.3314 274.85C73.0051 274.476 71.0378 272.489 70.8746 272.355C68.9553 270.8 64.2529 268.919 61.921 270.435C61.2001 270.944 60.7104 271.717 60.5593 272.586C60.4081 273.455 60.6079 274.349 61.1148 275.071C61.1799 275.161 61.2504 275.248 61.326 275.33C62.5639 276.865 64.9631 277.249 66.8249 277.249C68.9457 277.182 73.197 275.042 73.3602 274.955C74.317 277.292 75.1154 279.69 75.7498 282.134C76.2392 283.928 76.6518 285.781 77.0453 287.633C76.6135 287.143 74.7805 285.301 74.6365 285.185C72.7172 283.621 68.0148 281.74 65.6733 283.266C64.9533 283.768 64.462 284.535 64.3073 285.399C64.1525 286.262 64.347 287.152 64.8479 287.873L65.0687 288.16C66.3258 289.686 68.7154 290.08 70.5772 290.08C72.7076 290.003 76.7382 287.949 77.0741 287.805C77.2564 288.64 77.4484 289.494 77.6211 290.329C78.1969 293.103 78.7535 295.876 79.3965 298.592C79.6076 299.552 79.8571 300.511 80.1066 301.385C79.4253 300.665 78.1873 299.389 78.0338 299.264C76.1144 297.69 71.4025 295.819 69.0705 297.344C68.3499 297.848 67.8584 298.617 67.7037 299.482C67.549 300.347 67.7437 301.239 68.2452 301.96C68.3134 302.057 68.3871 302.15 68.4659 302.239C69.7231 303.774 72.1126 304.206 73.9744 304.158C75.8361 304.11 79.2909 302.459 80.2602 302.037C80.692 303.563 81.1431 305.089 81.6613 306.548C81.9108 307.181 82.1123 307.834 82.3619 308.467C82.6114 309.1 82.8609 309.667 83.12 310.252C83.667 311.452 84.1756 312.565 84.7226 313.668C84.9914 314.225 85.2601 314.734 85.5288 315.281C84.9434 314.455 84.0029 313.16 83.8973 313.054C82.2083 311.202 77.861 308.649 75.3275 309.811C74.9369 310.001 74.5878 310.266 74.3001 310.592C74.0124 310.918 73.7918 311.297 73.6509 311.708C73.51 312.119 73.4517 312.554 73.4792 312.987C73.5067 313.421 73.6195 313.845 73.8112 314.235C73.8112 314.34 73.9264 314.446 73.984 314.551C75.0492 316.26 77.2948 317.046 79.147 317.258C81.1911 317.497 85.3848 316.192 85.8646 316C86.5268 317.325 87.189 318.592 87.784 319.782C89.8185 323.534 91.6226 326.566 92.947 328.687C94.2713 330.808 95.0679 331.988 95.0679 331.988C95.1399 332.097 95.2333 332.19 95.3424 332.261C95.4515 332.333 95.574 332.381 95.7024 332.403C95.8308 332.426 95.9625 332.422 96.0893 332.392C96.2162 332.362 96.3355 332.306 96.4402 332.228C96.5474 332.156 96.639 332.063 96.7095 331.955C96.78 331.847 96.8279 331.725 96.8503 331.598C96.8727 331.471 96.8691 331.34 96.8399 331.215C96.8107 331.089 96.7563 330.97 96.6801 330.866C96.6801 330.866 95.9795 329.628 94.6264 327.574Z" fill="white"/>
<path opacity="0.4" d="M67.2179 263.986C67.2179 263.986 71.0566 260.944 72.0738 258.987C72.9087 257.336 73.5133 254.975 72.64 253.229C72.2833 252.43 71.6241 251.805 70.8071 251.492C69.9902 251.179 69.0824 251.203 68.2831 251.559L67.9569 251.722C65.5865 253.2 65.3274 258.238 65.932 260.666C66.0183 260.848 67.2179 264.015 67.2179 263.986Z" fill="white"/>
<path opacity="0.4" d="M92.4286 329.379C90.183 328.419 86.9777 326.951 83.2158 325.041C82.1601 324.494 80.9894 323.899 79.8186 323.256C80.0585 322.776 81.8435 318.775 81.8339 316.711C81.8339 314.85 81.3156 312.46 79.713 311.289C79.0347 310.736 78.1643 310.474 77.2932 310.562C76.4222 310.651 75.6218 311.081 75.0682 311.759L74.8475 312.057C73.3984 314.456 75.4425 319.062 77.0835 320.943C77.1891 321.078 78.5902 322.354 79.3099 323.007L77.1891 321.836C76.1238 321.251 75.0682 320.608 74.003 319.984L72.3907 318.919C71.8245 318.583 71.3255 318.189 70.7977 317.853C70.0204 317.306 69.243 316.692 68.4849 316.078C69.1375 315.013 71.0088 311.98 71.2871 310.195C71.5654 308.41 71.4023 305.944 70.03 304.514C69.446 303.862 68.6275 303.467 67.7534 303.417C66.8794 303.366 66.021 303.664 65.366 304.245C65.2748 304.33 65.1883 304.42 65.1069 304.514C63.3123 306.635 64.6366 311.52 65.961 313.631C66.1954 313.967 66.4519 314.288 66.7287 314.59C65.9994 313.967 65.2508 313.343 64.5311 312.671C62.487 310.809 60.4429 308.832 58.4084 306.913L57.1033 305.704C57.6599 304.85 59.7231 301.539 59.9823 299.677C60.2414 297.815 60.0974 295.426 58.7251 293.986C58.4352 293.662 58.0841 293.398 57.692 293.21C57.2999 293.022 56.8744 292.914 56.4402 292.89C56.0059 292.867 55.5713 292.93 55.1614 293.075C54.7514 293.221 54.3743 293.445 54.0515 293.737L53.802 293.986C52.0074 296.107 53.3318 301.002 54.6657 303.113C54.9298 303.507 55.2216 303.883 55.539 304.236C54.4162 303.19 53.2742 302.163 52.1226 301.184C50.1439 299.485 48.0535 297.92 45.8656 296.501C46.0671 296.194 48.5622 292.384 48.8789 290.301C49.1572 288.449 48.9941 286.05 47.6217 284.61C47.3296 284.286 46.9761 284.022 46.5816 283.835C46.1871 283.648 45.7595 283.54 45.3233 283.519C44.8871 283.497 44.451 283.562 44.0401 283.71C43.6291 283.858 43.2515 284.086 42.929 284.38L42.6987 284.61C40.9041 286.731 42.2284 291.626 43.5528 293.737C43.6487 293.89 45.0882 295.656 45.616 296.299L45.5393 296.242C43.3569 294.903 41.0608 293.76 38.6777 292.825C36.5468 291.998 34.3713 291.289 32.1615 290.704C30.1174 290.129 28.2077 289.745 26.5187 289.399C25.559 289.226 24.7625 289.083 23.9851 288.948C23.9851 288.948 21.1637 287.077 20.9718 286.981C18.7454 285.868 13.7647 285.061 11.8166 287.029C11.2225 287.676 10.9092 288.532 10.9452 289.41C10.9811 290.288 11.3635 291.116 12.0085 291.712L12.2772 291.933C13.8223 293.171 16.2502 293.075 18.0352 292.614C19.8202 292.153 23.0159 289.735 23.7932 289.092C24.6089 289.236 25.4822 289.409 26.4323 289.61C28.1117 289.985 30.0023 290.416 32.0272 291.031C32.5742 291.194 33.0924 291.395 33.697 291.568C32.7373 291.462 31.3074 291.328 31.1826 291.338C28.6779 291.338 23.8892 292.931 23.0735 295.589C22.9573 296.008 22.9253 296.446 22.9794 296.877C23.0334 297.309 23.1725 297.725 23.3884 298.103C23.6043 298.48 23.8929 298.811 24.2375 299.077C24.582 299.342 24.9757 299.536 25.3959 299.648C25.5088 299.683 25.6243 299.709 25.7413 299.725C27.6607 300.109 29.8007 298.909 31.1826 297.604C32.5646 296.299 34.3687 292.614 34.6758 291.846C35.9042 292.259 37.171 292.72 38.4473 293.276C40.7879 294.246 43.0362 295.425 45.165 296.798L45.5201 297.067C45.0306 296.933 42.334 296.357 42.1133 296.338C39.6181 296.117 34.6854 297.125 33.6202 299.706C33.4616 300.113 33.3854 300.548 33.3962 300.985C33.407 301.422 33.5045 301.853 33.6831 302.252C33.8617 302.651 34.1177 303.011 34.4364 303.31C34.7551 303.609 35.1301 303.842 35.5395 303.996C35.6462 304.04 35.7551 304.078 35.8658 304.111C37.7852 304.696 39.9828 303.737 41.4991 302.652C43.2457 301.405 45.5968 297.278 45.6832 297.134C47.7655 298.555 49.7531 300.109 51.6332 301.788C53.0343 303.036 54.4066 304.341 55.7597 305.627C55.1167 305.474 52.5736 304.936 52.3817 304.917C49.9058 304.687 44.9539 305.704 43.8886 308.276C43.5673 309.09 43.5818 309.999 43.9289 310.803C44.276 311.607 44.9275 312.241 45.7408 312.566L46.0863 312.681C48.0056 313.276 50.2128 312.316 51.7291 311.222C53.4277 310.003 55.7021 306.078 55.8845 305.742L57.7366 307.566C59.7423 309.543 61.7384 311.558 63.7633 313.468C64.4639 314.13 65.1932 314.763 65.8938 315.387C64.9341 315.166 63.1588 314.802 63.0148 314.782C60.5197 314.562 55.5774 315.579 54.5217 318.151C54.3611 318.553 54.2813 318.984 54.2869 319.417C54.2925 319.851 54.3835 320.279 54.5546 320.677C54.7257 321.076 54.9736 321.436 55.2841 321.739C55.5946 322.041 55.9617 322.28 56.3643 322.441L56.7194 322.556C58.6387 323.141 60.8364 322.181 62.3526 321.097C63.8689 320.013 65.8554 316.75 66.4024 315.79C67.602 316.855 68.8112 317.853 70.0492 318.784C70.6058 319.178 71.1144 319.609 71.671 319.965L73.2832 321.02C74.406 321.711 75.4041 322.364 76.4597 322.988L78.024 323.89C77.0643 323.515 75.5672 322.93 75.4329 322.93C73.0049 322.325 68.0051 322.584 66.4984 324.964C66.279 325.34 66.1358 325.755 66.0768 326.186C66.0179 326.617 66.0445 327.055 66.155 327.476C66.2655 327.896 66.4578 328.291 66.7209 328.637C66.984 328.984 67.3127 329.275 67.6884 329.494C67.7898 329.556 67.8957 329.611 68.0051 329.657C69.7709 330.511 72.1316 329.907 73.7631 329.072C75.596 328.112 78.3599 324.715 78.6958 324.273C79.9817 325.012 81.2293 325.713 82.4193 326.337C86.1716 328.342 89.3768 329.878 91.6417 330.924C93.9065 331.97 95.2116 332.517 95.2116 332.517C95.456 332.61 95.7272 332.602 95.9657 332.495C96.2041 332.388 96.3903 332.19 96.4832 331.946C96.5761 331.702 96.5681 331.43 96.461 331.192C96.3539 330.954 96.1565 330.767 95.9122 330.674C95.9122 330.674 94.6934 330.339 92.4286 329.379Z" fill="white"/>
<path opacity="0.4" d="M34.522 291.452C34.522 291.452 36.0575 286.788 35.808 284.619C35.5872 282.758 34.7427 280.464 33.1017 279.466C32.3594 278.995 31.4608 278.838 30.6026 279.028C29.7445 279.219 28.9971 279.742 28.5241 280.483C28.4593 280.581 28.4016 280.684 28.3514 280.79C27.1806 283.343 29.7525 287.681 31.6046 289.36C31.7582 289.514 34.5124 291.51 34.522 291.452Z" fill="white"/>
</g>
<path d="M255.457 281.712C255.572 309.216 277.423 331.452 277.423 331.452C277.423 331.452 299.112 309.063 298.997 281.549C298.882 254.035 276.992 231.81 276.992 231.81C276.992 231.81 255.332 254.16 255.457 281.712Z" fill="#9468B4"/>
<path d="M277.472 331.385L277.03 231.762" stroke="white" stroke-width="0.993857" stroke-miterlimit="10"/>
<path d="M277.193 267.173L264.938 256.568" stroke="white" stroke-width="0.993857" stroke-miterlimit="10"/>
<path d="M277.442 283.631L292.471 261.684" stroke="white" stroke-width="0.993857" stroke-miterlimit="10"/>
<path d="M277.299 293.123L259.219 277.125" stroke="white" stroke-width="0.993857" stroke-miterlimit="10"/>
<path d="M277.549 305.906L295.293 289.946" stroke="white" stroke-width="0.993857" stroke-miterlimit="10"/>
<path d="M277.596 316.941L263.604 305.963" stroke="white" stroke-width="0.993857" stroke-miterlimit="10"/>
<path d="M240.544 324.159C251.158 336.04 269.209 337.268 269.209 337.268C269.209 337.268 270.006 319.217 259.363 307.307C248.72 295.398 230.736 294.246 230.736 294.246C230.736 294.246 229.901 312.297 240.544 324.159Z" fill="#9468B4"/>
<path d="M269.218 337.267L230.697 294.207" stroke="white" stroke-width="0.993857" stroke-miterlimit="10"/>
<path d="M244.383 309.514L235.007 309.619" stroke="white" stroke-width="0.993857" stroke-miterlimit="10"/>
<path d="M250.841 316.548L248.912 301.251" stroke="white" stroke-width="0.993857" stroke-miterlimit="10"/>
<path d="M254.421 320.723L240.429 320.742" stroke="white" stroke-width="0.993857" stroke-miterlimit="10"/>
<path d="M259.449 326.173L261.013 312.421" stroke="white" stroke-width="0.993857" stroke-miterlimit="10"/>
<path d="M263.719 330.942L253.422 331.566" stroke="white" stroke-width="0.993857" stroke-miterlimit="10"/>
<path d="M295.993 306.73C284.928 318.246 285.072 336.307 285.072 336.307C285.072 336.307 303.114 335.76 314.198 324.254C325.282 312.747 325.129 294.677 325.129 294.677C325.129 294.677 307.058 295.243 295.993 306.73Z" fill="#9468B4"/>
<path d="M285.072 336.307L325.129 294.677" stroke="white" stroke-width="0.993857" stroke-miterlimit="10"/>
<path d="M310.887 309.485L310.081 300.128" stroke="white" stroke-width="0.993857" stroke-miterlimit="10"/>
<path d="M304.352 316.433L319.466 313.362" stroke="white" stroke-width="0.993857" stroke-miterlimit="10"/>
<path d="M300.456 320.32L299.391 306.356" stroke="white" stroke-width="0.993857" stroke-miterlimit="10"/>
<path d="M295.398 325.741L309.218 326.269" stroke="white" stroke-width="0.993857" stroke-miterlimit="10"/>
<path d="M290.965 330.348L289.573 320.128" stroke="white" stroke-width="0.993857" stroke-miterlimit="10"/>
<g opacity="0.4">
<path opacity="0.4" d="M255.457 281.711C255.572 309.215 277.423 331.451 277.423 331.451C277.423 331.451 299.112 309.062 298.997 281.548C298.882 254.034 276.992 231.809 276.992 231.809C276.992 231.809 255.332 254.159 255.457 281.711Z" fill="white"/>
<path opacity="0.4" d="M240.544 324.158C251.158 336.039 269.209 337.267 269.209 337.267C269.209 337.267 270.006 319.216 259.363 307.306C248.72 295.397 230.736 294.245 230.736 294.245C230.736 294.245 229.901 312.296 240.544 324.158Z" fill="white"/>
<path opacity="0.4" d="M295.993 306.729C284.928 318.245 285.072 336.306 285.072 336.306C285.072 336.306 303.114 335.759 314.198 324.253C325.282 312.746 325.129 294.676 325.129 294.676C325.129 294.676 307.058 295.242 295.993 306.729Z" fill="white"/>
</g>
<path d="M227.368 42.6975C227.464 65.672 245.755 84.2319 245.755 84.2319C245.755 84.2319 263.883 65.528 263.806 42.544C263.729 19.56 245.419 1 245.419 1C245.419 1 227.262 19.7231 227.368 42.6975Z" fill="#9468B4"/>
<path d="M245.754 84.2319L245.399 1" stroke="white" stroke-width="0.993857" stroke-miterlimit="10"/>
<path d="M245.525 30.5862L235.285 21.7285" stroke="white" stroke-width="0.993857" stroke-miterlimit="10"/>
<path d="M245.745 44.3287L258.288 25.999" stroke="white" stroke-width="0.993857" stroke-miterlimit="10"/>
<path d="M245.62 52.2656L230.515 38.8975" stroke="white" stroke-width="0.993857" stroke-miterlimit="10"/>
<path d="M245.822 62.9468L260.649 49.6074" stroke="white" stroke-width="0.993857" stroke-miterlimit="10"/>
<path d="M245.861 72.1686L234.172 62.9941" stroke="white" stroke-width="0.993857" stroke-miterlimit="10"/>
<path d="M214.901 78.1953C223.788 88.1278 238.893 89.1451 238.893 89.1451C238.893 89.1451 239.565 74.0495 230.678 64.1266C221.792 54.2036 206.686 53.1768 206.686 53.1768C206.686 53.1768 206.015 68.2627 214.901 78.1953Z" fill="#9468B4"/>
<path d="M238.855 89.1451L206.687 53.1768" stroke="white" stroke-width="0.993857" stroke-miterlimit="10"/>
<path d="M218.125 65.96L210.275 66.0559" stroke="white" stroke-width="0.993857" stroke-miterlimit="10"/>
<path d="M223.5 71.8423L221.888 59.0596" stroke="white" stroke-width="0.993857" stroke-miterlimit="10"/>
<path d="M226.504 75.3262L214.806 75.3454" stroke="white" stroke-width="0.993857" stroke-miterlimit="10"/>
<path d="M230.697 79.8749L232.012 68.3877" stroke="white" stroke-width="0.993857" stroke-miterlimit="10"/>
<path d="M234.268 83.8672L225.669 84.3854" stroke="white" stroke-width="0.993857" stroke-miterlimit="10"/>
<path d="M261.234 63.637C252.002 73.2337 252.107 88.3485 252.107 88.3485C252.107 88.3485 267.203 87.859 276.445 78.2624C285.686 68.6657 285.581 53.5605 285.581 53.5605C285.581 53.5605 270.485 54.0404 261.234 63.637Z" fill="#9468B4"/>
<path d="M252.107 88.3496L285.581 53.5713" stroke="white" stroke-width="0.993857" stroke-miterlimit="10"/>
<path d="M273.681 65.9307L273 58.1094" stroke="white" stroke-width="0.993857" stroke-miterlimit="10"/>
<path d="M268.221 71.7467L280.84 69.1748" stroke="white" stroke-width="0.993857" stroke-miterlimit="10"/>
<path d="M264.958 74.99L264.065 63.3301" stroke="white" stroke-width="0.993857" stroke-miterlimit="10"/>
<path d="M260.735 79.5205L272.29 79.962" stroke="white" stroke-width="0.993857" stroke-miterlimit="10"/>
<path d="M257.031 83.3684L255.86 74.8369" stroke="white" stroke-width="0.993857" stroke-miterlimit="10"/>
<g opacity="0.4">
<path opacity="0.4" d="M227.368 42.6975C227.464 65.672 245.755 84.2319 245.755 84.2319C245.755 84.2319 263.883 65.528 263.806 42.544C263.729 19.56 245.419 1 245.419 1C245.419 1 227.262 19.7231 227.368 42.6975Z" fill="white"/>
<path opacity="0.4" d="M214.901 78.1953C223.788 88.1278 238.893 89.1451 238.893 89.1451C238.893 89.1451 239.565 74.0495 230.678 64.1266C221.792 54.2036 206.686 53.1768 206.686 53.1768C206.686 53.1768 206.015 68.2627 214.901 78.1953Z" fill="white"/>
<path opacity="0.4" d="M261.234 63.637C252.002 73.2337 252.107 88.3485 252.107 88.3485C252.107 88.3485 267.203 87.859 276.445 78.2624C285.686 68.6657 285.581 53.5605 285.581 53.5605C285.581 53.5605 270.485 54.0404 261.234 63.637Z" fill="white"/>
</g>
<path d="M98.3694 301.078C98.4462 318.985 112.688 333.428 112.688 333.428C112.688 333.428 126.814 318.86 126.728 300.953C126.641 283.046 112.4 268.603 112.4 268.603C112.4 268.603 98.3022 283.18 98.3694 301.078Z" fill="#9468B4"/>
<path d="M112.687 333.428L112.399 268.603" stroke="white" stroke-width="0.993857" stroke-miterlimit="10"/>
<path d="M112.505 291.644L104.54 284.754" stroke="white" stroke-width="0.993857" stroke-miterlimit="10"/>
<path d="M112.678 302.354L122.447 288.074" stroke="white" stroke-width="0.993857" stroke-miterlimit="10"/>
<path d="M112.582 308.535L100.807 298.132" stroke="white" stroke-width="0.993857" stroke-miterlimit="10"/>
<path d="M112.745 316.854L124.29 306.471" stroke="white" stroke-width="0.993857" stroke-miterlimit="10"/>
<path d="M112.773 324.033L103.666 316.894" stroke="white" stroke-width="0.993857" stroke-miterlimit="10"/>
<path d="M88.7054 328.736C95.615 336.471 107.352 337.229 107.352 337.229C107.352 337.229 107.88 325.473 100.989 317.738C94.0988 310.003 82.3236 309.245 82.3236 309.245C82.3236 309.245 81.7382 321.001 88.7054 328.736Z" fill="#9468B4"/>
<path d="M107.313 337.267L82.2559 309.245" stroke="white" stroke-width="0.993857" stroke-miterlimit="10"/>
<path d="M91.1717 319.206L85.0586 319.283" stroke="white" stroke-width="0.993857" stroke-miterlimit="10"/>
<path d="M95.3654 323.784L94.0986 313.822" stroke="white" stroke-width="0.993857" stroke-miterlimit="10"/>
<path d="M97.6971 326.499L88.5898 326.509" stroke="white" stroke-width="0.993857" stroke-miterlimit="10"/>
<path d="M100.97 330.041L101.977 321.097" stroke="white" stroke-width="0.993857" stroke-miterlimit="10"/>
<path d="M103.743 333.16L97.0449 333.563" stroke="white" stroke-width="0.993857" stroke-miterlimit="10"/>
<path d="M124.75 317.392C117.552 324.877 117.639 336.633 117.639 336.633C117.639 336.633 129.395 336.278 136.602 328.803C143.809 321.327 143.655 309.542 143.655 309.542C143.655 309.542 131.976 309.916 124.75 317.392Z" fill="#9468B4"/>
<path d="M117.639 336.634L143.703 309.552" stroke="white" stroke-width="0.993857" stroke-miterlimit="10"/>
<path d="M134.443 319.187L133.915 313.093" stroke="white" stroke-width="0.993857" stroke-miterlimit="10"/>
<path d="M130.182 323.707L140.018 321.711" stroke="white" stroke-width="0.993857" stroke-miterlimit="10"/>
<path d="M127.648 326.232L126.957 317.153" stroke="white" stroke-width="0.993857" stroke-miterlimit="10"/>
<path d="M124.356 329.763L133.358 330.108" stroke="white" stroke-width="0.993857" stroke-miterlimit="10"/>
<path d="M121.468 332.767L120.566 326.116" stroke="white" stroke-width="0.993857" stroke-miterlimit="10"/>
<g opacity="0.4">
<path opacity="0.4" d="M98.3684 301.079C98.4452 318.986 112.687 333.429 112.687 333.429C112.687 333.429 126.813 318.861 126.727 300.954C126.64 283.046 112.399 268.604 112.399 268.604C112.399 268.604 98.3012 283.181 98.3684 301.079Z" fill="white"/>
<path opacity="0.4" d="M88.7044 328.736C95.6141 336.471 107.351 337.229 107.351 337.229C107.351 337.229 107.879 325.473 100.988 317.738C94.0978 310.003 82.3227 309.245 82.3227 309.245C82.3227 309.245 81.7373 321.001 88.7044 328.736Z" fill="white"/>
<path opacity="0.4" d="M124.75 317.393C117.552 324.878 117.639 336.634 117.639 336.634C117.639 336.634 129.395 336.279 136.602 328.803C143.809 321.328 143.655 309.543 143.655 309.543C143.655 309.543 131.976 309.917 124.75 317.393Z" fill="white"/>
</g>
<path d="M87.2267 30.4607L74.8086 41.305L86.1327 77.3213L112.245 76.8414L118.051 32.6584L99.5008 27.6201L87.2267 30.4607Z" fill="white"/>
<path opacity="0.5" d="M108.858 33.609C106.651 33.1196 103.215 31.8912 103.215 31.8912C103.215 31.8912 89.2233 31.6513 86.9969 40.7298L86.2676 44.4149L89.9527 43.4552L85.2791 50.5855C84.7801 51.3341 84.3194 44.4437 83.3118 45.1826C82.3041 45.9216 80.1641 55.2303 80.1641 55.2303L81.5844 62.8501L86.1332 77.341L112.236 76.8612L117.37 37.8412C115.988 36.9967 110.777 34.0313 108.858 33.609Z" fill="#9468B4"/>
<path d="M87.2267 30.4607L74.8086 41.305L86.1327 77.3213L112.245 76.8414L118.051 32.6584L99.5008 27.6201L87.2267 30.4607Z" stroke="#263238" stroke-width="0.829701" stroke-linecap="round" stroke-linejoin="round"/>
<path d="M89.5977 38.004L93.8298 43.0423L92.7454 73.2334L96.824 78.7323L101.075 70.5559L95.0966 43.0423L98.561 37.2171L97.1502 32.3516L89.5977 38.004Z" fill="#263238" stroke="#263238" stroke-width="0.829701" stroke-linecap="round" stroke-linejoin="round"/>
<path d="M86.1338 29.3197C85.4854 31.407 85.1301 33.5741 85.0781 35.7591C85.2198 38.2863 85.6941 40.7838 86.4888 43.1869C86.4888 43.1869 89.6749 39.0892 91.7958 38.3118C93.9167 37.5345 98.2448 37.0547 99.6651 37.6784C101.085 38.3022 104.54 40.5574 104.54 40.5574C104.655 37.2328 104.12 33.9178 102.966 30.7976C101.047 26.0857 100.289 24.3487 99.0221 23.888C97.7553 23.4274 88.3314 22.746 86.1338 29.3197Z" fill="white" stroke="#263238" stroke-width="0.829701" stroke-linecap="round" stroke-linejoin="round"/>
<path d="M74.8095 41.3057L65.0977 66.1514C65.0977 66.1514 72.6406 70.5563 72.775 70.0765C72.9093 69.5966 80.5771 59.5201 80.5771 59.5201L74.8095 41.3057Z" fill="white"/>
<path opacity="0.5" d="M76.9685 54.7305C76.9685 54.7305 70.6731 52.293 72.3046 53.7709C73.9537 55.3974 75.5107 57.1147 76.9685 58.9147L71.0762 61.8705L75.2123 66.6688C77.4963 63.5883 80.5769 59.5481 80.5769 59.5481L76.4695 46.5254L76.2296 46.6214L76.9685 54.7305Z" fill="#9468B4"/>
<path d="M74.8095 41.3057L65.0977 66.1514C65.0977 66.1514 72.6406 70.5563 72.775 70.0765C72.9093 69.5966 80.5771 59.5201 80.5771 59.5201L74.8095 41.3057Z" stroke="#263238" stroke-width="0.829701" stroke-linecap="round" stroke-linejoin="round"/>
<path d="M118.052 32.6582L141.909 51.7652L132.62 57.2449L116.171 47.7538L118.052 32.6582Z" fill="white"/>
<path opacity="0.5" d="M133.935 54.4819L125.835 48.5896C125.835 48.5896 129.52 47.8506 130.25 46.8718C130.979 45.8929 121.613 46.1424 121.613 46.1424L124.559 42.2078L118.916 44.1271V41.7088L117.361 37.8701L116.133 47.7355L132.582 57.2266L134.002 56.3821L133.935 54.4819Z" fill="#9468B4"/>
<path d="M118.052 32.6582L141.909 51.7652L132.62 57.2449L116.171 47.7538L118.052 32.6582Z" stroke="#263238" stroke-width="0.829701" stroke-linecap="round" stroke-linejoin="round"/>
<path d="M86.1328 29.3192C86.1328 29.3192 88.1769 34.8277 90.5281 36.9965C92.8793 39.1654 94.9426 38.7239 96.5068 36.6798C98.0711 34.6357 99.8081 27.8701 100.288 27.5534C100.768 27.2367 102.486 25.6341 102.486 24.0986C102.486 22.5631 100.451 23.3117 100.125 23.945L99.8081 24.5688L98.2438 21.2676C97.518 23.1159 96.6217 24.8925 95.5663 26.5745C94.3092 28.3115 93.9925 29.5687 92.7449 28.6282C91.4973 27.6877 90.5281 26.2674 89.5588 27.8413C88.5896 29.4151 86.1328 29.3192 86.1328 29.3192Z" fill="white" stroke="#263238" stroke-width="0.829701" stroke-linecap="round" stroke-linejoin="round"/>
<path opacity="0.5" d="M100.125 24.0124L99.8084 24.6362L98.2441 21.335C97.5183 23.1832 96.622 24.9599 95.5666 26.6419C94.3095 28.3789 93.9928 29.6361 92.7452 28.6956C91.4977 27.7551 90.5284 26.3348 89.5591 27.9087C88.5899 29.4825 86.0947 29.3194 86.0947 29.3194C86.0947 29.3194 86.5746 30.6149 87.3327 32.1984C91.3921 32.4095 97.9562 32.0256 99.4629 27.592V29.4537C99.6173 28.7975 99.8731 28.1694 100.221 27.592C100.682 27.2849 102.419 25.6727 102.419 24.1276C102.419 22.5825 100.451 23.3791 100.125 24.0124Z" fill="#9468B4"/>
<path d="M87.9277 31.1621C87.9277 31.1621 90.1254 32.1218 90.9123 31.498C90.9123 31.498 91.0754 35.8741 92.1695 35.4806L93.561 34.5209" stroke="#263238" stroke-width="0.553134" stroke-linecap="round" stroke-linejoin="round"/>
<path d="M94.166 31.2966C94.166 31.2966 95.3176 32.2563 97.1122 30.6729" stroke="#263238" stroke-width="0.553134" stroke-linecap="round" stroke-linejoin="round"/>
<path d="M93.3691 30.4999C93.3691 30.4999 93.3691 28.1103 97.1502 28.3119" stroke="#263238" stroke-width="0.553134" stroke-linecap="round" stroke-linejoin="round"/>
<path d="M90.9126 31.4983C90.759 30.8816 90.4444 30.3168 90.0009 29.8616C89.5575 29.4063 89.0011 29.077 88.3887 28.9072" stroke="#263238" stroke-width="0.553134" stroke-linecap="round" stroke-linejoin="round"/>
<path d="M91.373 36.2672C91.9774 36.5379 92.653 36.6066 93.2995 36.4631C93.946 36.3196 94.529 35.9716 94.9622 35.4707" stroke="#263238" stroke-width="0.553134" stroke-linecap="round" stroke-linejoin="round"/>
<path d="M101.699 24.1659C101.699 24.1659 106.046 19.5979 103.666 14.3485C102.102 10.9033 101.862 11.0376 98.0811 7.02624C94.3 3.01483 86.5651 5.20287 83.974 7.9859C81.3829 10.7689 83.1774 15.74 82.1794 16.335C81.1813 16.93 75.2122 18.7246 75.4617 21.1333C75.7112 23.5421 82.1794 24.7129 81.4308 25.5094C80.6823 26.3059 75.4617 26.1044 77.8513 28.1005C80.2408 30.0966 87.1312 31.1043 92.7933 28.7435C98.4553 26.3827 98.1002 22.9183 98.1002 22.9183C98.1002 22.9183 98.7528 26.8146 101.699 24.1659Z" fill="#263238" stroke="#263238" stroke-width="0.829701" stroke-linecap="round" stroke-linejoin="round"/>
<path d="M87.793 28.2919C87.793 28.2919 91.1518 28.8869 95.0864 25.7296C99.0211 22.5723 96.2668 18.3018 96.2668 18.3018" stroke="white" stroke-width="0.553134" stroke-linecap="round" stroke-linejoin="round"/>
<path d="M98.8203 15.0967C98.8203 15.0967 100.951 21.9775 99.0218 23.8584" stroke="white" stroke-width="0.553134" stroke-linecap="round" stroke-linejoin="round"/>
<path d="M81.3828 25.4802C81.3828 25.4802 87.755 26.9005 90.9315 23.3594" stroke="white" stroke-width="0.553134" stroke-linecap="round" stroke-linejoin="round"/>
<path d="M66.9402 69.4716C66.9402 69.4716 62.1419 68.416 62.9576 65.7577C63.7733 63.0995 62.9576 60.1821 68.802 60.7099C74.6464 61.2377 77.0263 62.5716 77.0263 65.2299C77.0263 67.8882 76.2298 72.389 73.0437 71.0647C71.0917 70.2568 69.038 69.7208 66.9402 69.4716Z" fill="white" stroke="#263238" stroke-width="0.829701" stroke-linecap="round" stroke-linejoin="round"/>
<path d="M122.85 43.3877L116.171 47.7542L127.831 45.0479" stroke="#263238" stroke-width="0.553134" stroke-linecap="round" stroke-linejoin="round"/>
<path d="M79.8376 57.9744L74.5498 52.917" stroke="#263238" stroke-width="0.553134" stroke-linecap="round" stroke-linejoin="round"/>
<path d="M77.4671 57.0628L73.9355 55.1914" stroke="#263238" stroke-width="0.553134" stroke-linecap="round" stroke-linejoin="round"/>
<path d="M111.66 50.6426L105.441 50.8441V52.7059H111.247" stroke="#263238" stroke-width="0.553134" stroke-linecap="round" stroke-linejoin="round"/>
<path opacity="0.5" d="M65.9134 67.495C65.9134 67.495 62.9768 65.9884 64.1956 65.0383C66.1 63.8687 68.365 63.4321 70.5678 63.8099C71.8466 64.157 73.0802 64.653 74.2433 65.2878C74.2433 65.2878 71.0668 62.8311 73.0149 62.8311C74.9631 62.8311 76.201 65.2878 75.4717 67.7446C74.7423 70.2013 71.7866 69.4624 71.7866 69.4624L65.9134 67.495Z" fill="#9468B4"/>
<path d="M207.982 317.69V283.257H152.571V317.69C152.579 323.589 150.25 329.252 146.093 333.438L133.464 346.182H227.089L214.469 333.438C210.305 329.256 207.972 323.591 207.982 317.69Z" fill="white" stroke="#263238" stroke-width="1.10627" stroke-linecap="round" stroke-linejoin="round"/>
<path opacity="0.44" d="M152.571 283.257V317.69C152.568 320.358 152.084 323.005 151.141 325.501H209.412C208.473 323.004 207.989 320.358 207.982 317.69V283.257H152.571Z" fill="#9468B4"/>
<path d="M207.982 284.811H152.571V310.357H207.982V284.811Z" fill="#263238" stroke="#263238" stroke-width="1.10627" stroke-miterlimit="10"/>
<path d="M227.079 346.182H133.464V348.005H227.079V346.182Z" fill="white" stroke="#263238" stroke-width="1.10627" stroke-linecap="round" stroke-linejoin="round"/>
<path d="M45.8943 72.5039H314.668C316.377 72.5026 318.068 72.8385 319.647 73.4923C321.225 74.146 322.659 75.1048 323.866 76.3137C325.073 77.5226 326.03 78.9578 326.681 80.5371C327.332 82.1163 327.666 83.8086 327.662 85.517V286.164C327.649 289.901 326.153 293.481 323.503 296.115C320.852 298.75 317.263 300.224 313.526 300.214H47.0459C43.3096 300.214 39.7263 298.729 37.0843 296.087C34.4423 293.445 32.958 289.862 32.958 286.126V85.469C32.9631 82.037 34.3267 78.7465 36.7508 76.317C39.1749 73.8875 42.4623 72.5166 45.8943 72.5039Z" fill="#263238" stroke="#263238" stroke-width="1.10627" stroke-miterlimit="10"/>
<path d="M32.9102 273.861H327.662V286.126C327.662 289.862 326.178 293.446 323.536 296.088C320.894 298.73 317.311 300.214 313.574 300.214H47.046C43.3097 300.214 39.7264 298.73 37.0844 296.088C34.4424 293.446 32.9581 289.862 32.9581 286.126V273.861H32.9102Z" fill="white" stroke="#263238" stroke-width="1.10627" stroke-miterlimit="10"/>
<path d="M339.255 86.8799H75.7402V262.547H339.255V86.8799Z" fill="white" stroke="#263238" stroke-width="0.829701" stroke-linecap="round" stroke-linejoin="round"/>
<path d="M339.255 86.8799H75.7402V143.807H339.255V86.8799Z" fill="#9468B4"/>
<path d="M102.591 250.715H91.9775V157.915H102.591V250.715ZM123.397 157.857H112.841V250.715H123.455L123.397 157.857ZM144.212 157.857H133.589V250.715H144.212V157.857ZM165.008 157.857H154.394V250.715H165.008V157.857ZM185.814 157.857H175.2V250.715H185.814V157.857ZM206.61 157.857H195.996V250.715H206.61V157.857ZM227.425 157.857H216.801V250.715H227.425V157.857ZM248.23 157.857H237.617V250.715H248.23V157.857ZM269.026 157.857H258.413V250.715H269.026V157.857ZM289.832 157.857H279.218V250.715H289.832V157.857Z" fill="#9468B4"/>
<path opacity="0.4" d="M102.591 250.715H91.9775V157.915H102.591V250.715ZM123.397 157.857H112.841V250.715H123.455L123.397 157.857ZM144.212 157.857H133.589V250.715H144.212V157.857ZM165.008 157.857H154.394V250.715H165.008V157.857ZM185.814 157.857H175.2V250.715H185.814V157.857ZM206.61 157.857H195.996V250.715H206.61V157.857ZM227.425 157.857H216.801V250.715H227.425V157.857ZM248.23 157.857H237.617V250.715H248.23V157.857ZM269.026 157.857H258.413V250.715H269.026V157.857ZM289.832 157.857H279.218V250.715H289.832V157.857Z" fill="white"/>
<path d="M157.936 108.194H88.1582C87.5397 108.194 86.9465 107.949 86.5092 107.511C86.0719 107.074 85.8262 106.481 85.8262 105.862C85.8287 105.246 86.0755 104.655 86.5126 104.22C86.9496 103.784 87.5413 103.54 88.1582 103.54H157.936C158.551 103.54 159.142 103.785 159.578 104.22C160.013 104.656 160.258 105.246 160.258 105.862C160.259 106.168 160.2 106.471 160.084 106.754C159.968 107.037 159.797 107.294 159.581 107.511C159.365 107.727 159.109 107.899 158.826 108.017C158.544 108.134 158.241 108.194 157.936 108.194Z" fill="white" stroke="#263238" stroke-width="0.829701" stroke-linecap="round" stroke-linejoin="round"/>
<path d="M136.823 108.194H88.1582C87.5397 108.194 86.9465 107.949 86.5092 107.511C86.0719 107.074 85.8262 106.481 85.8262 105.862C85.8287 105.246 86.0755 104.655 86.5126 104.22C86.9496 103.784 87.5413 103.54 88.1582 103.54H136.823V108.194Z" fill="#263238" stroke="#263238" stroke-width="1.10627" stroke-linecap="round" stroke-linejoin="round"/>
<path d="M157.936 117.321H88.1582C87.8524 117.322 87.5494 117.263 87.2665 117.147C86.9836 117.03 86.7264 116.86 86.5098 116.644C86.2931 116.428 86.1212 116.172 86.0039 115.889C85.8866 115.607 85.8262 115.304 85.8262 114.998C85.8262 114.692 85.8866 114.39 86.0039 114.107C86.1212 113.825 86.2931 113.568 86.5098 113.353C86.7264 113.137 86.9836 112.966 87.2665 112.85C87.5494 112.734 87.8524 112.675 88.1582 112.676H157.936C158.551 112.676 159.142 112.92 159.578 113.356C160.013 113.792 160.258 114.382 160.258 114.998C160.258 115.614 160.013 116.205 159.578 116.64C159.142 117.076 158.551 117.321 157.936 117.321Z" fill="white" stroke="#263238" stroke-width="0.829701" stroke-linecap="round" stroke-linejoin="round"/>
<path d="M145.776 117.321H88.1963C87.8905 117.322 87.5874 117.263 87.3046 117.147C87.0217 117.03 86.7645 116.86 86.5479 116.644C86.3312 116.428 86.1593 116.172 86.042 115.889C85.9246 115.607 85.8643 115.304 85.8643 114.998C85.8643 114.692 85.9246 114.39 86.042 114.107C86.1593 113.825 86.3312 113.568 86.5479 113.353C86.7645 113.137 87.0217 112.966 87.3046 112.85C87.5874 112.734 87.8905 112.675 88.1963 112.676H145.776V117.321Z" fill="#263238" stroke="#263238" stroke-width="1.10627" stroke-linecap="round" stroke-linejoin="round"/>
<path d="M157.936 126.505H88.1582C87.8524 126.506 87.5494 126.447 87.2665 126.331C86.9836 126.215 86.7264 126.044 86.5098 125.828C86.2931 125.612 86.1212 125.356 86.0039 125.074C85.8866 124.791 85.8262 124.488 85.8262 124.183C85.8262 123.564 86.0719 122.971 86.5092 122.534C86.9465 122.096 87.5397 121.851 88.1582 121.851H157.936C158.241 121.851 158.544 121.911 158.826 122.028C159.109 122.146 159.365 122.318 159.581 122.534C159.797 122.751 159.968 123.008 160.084 123.291C160.2 123.574 160.259 123.877 160.258 124.183C160.258 124.799 160.013 125.389 159.578 125.825C159.142 126.26 158.551 126.505 157.936 126.505Z" fill="white" stroke="#263238" stroke-width="0.829701" stroke-linecap="round" stroke-linejoin="round"/>
<path d="M124.376 126.505H88.1582C87.8524 126.506 87.5494 126.447 87.2665 126.331C86.9836 126.215 86.7264 126.044 86.5098 125.828C86.2931 125.612 86.1212 125.356 86.0039 125.074C85.8866 124.791 85.8262 124.488 85.8262 124.183C85.8262 123.564 86.0719 122.971 86.5092 122.534C86.9465 122.096 87.5397 121.851 88.1582 121.851H124.376V126.505Z" fill="#263238" stroke="#263238" stroke-width="1.10627" stroke-linecap="round" stroke-linejoin="round"/>
<path d="M157.936 135.583H88.1582C87.5413 135.583 86.9496 135.339 86.5126 134.903C86.0755 134.468 85.8287 133.877 85.8262 133.261C85.8287 132.642 86.0749 132.049 86.5114 131.611C86.9479 131.173 87.5396 130.924 88.1582 130.919H157.936C158.553 130.924 159.144 131.173 159.579 131.612C160.014 132.05 160.258 132.643 160.258 133.261C160.258 133.876 160.013 134.467 159.578 134.903C159.142 135.338 158.551 135.583 157.936 135.583Z" fill="white" stroke="#263238" stroke-width="0.829701" stroke-linecap="round" stroke-linejoin="round"/>
<path d="M155.421 135.583H88.1582C87.5413 135.583 86.9496 135.339 86.5126 134.903C86.0755 134.468 85.8287 133.877 85.8262 133.261C85.8287 132.642 86.0749 132.049 86.5114 131.611C86.9479 131.173 87.5396 130.924 88.1582 130.919H155.421V135.583Z" fill="#263238" stroke="#263238" stroke-width="1.10627" stroke-linecap="round" stroke-linejoin="round"/>
<path d="M86.335 250.742H295.437" stroke="#263238" stroke-width="0.829701" stroke-linecap="round" stroke-linejoin="round"/>
<path d="M107.246 250.743V248.642" stroke="#263238" stroke-width="0.829701" stroke-linecap="round" stroke-linejoin="round"/>
<path d="M128.157 250.743V248.642" stroke="#263238" stroke-width="0.829701" stroke-linecap="round" stroke-linejoin="round"/>
<path d="M149.068 250.743V248.642" stroke="#263238" stroke-width="0.829701" stroke-linecap="round" stroke-linejoin="round"/>
<path d="M169.979 250.743V248.642" stroke="#263238" stroke-width="0.829701" stroke-linecap="round" stroke-linejoin="round"/>
<path d="M190.891 250.743V248.642" stroke="#263238" stroke-width="0.829701" stroke-linecap="round" stroke-linejoin="round"/>
<path d="M211.802 250.743V248.642" stroke="#263238" stroke-width="0.829701" stroke-linecap="round" stroke-linejoin="round"/>
<path d="M232.713 250.743V248.642" stroke="#263238" stroke-width="0.829701" stroke-linecap="round" stroke-linejoin="round"/>
<path d="M253.624 250.743V248.642" stroke="#263238" stroke-width="0.829701" stroke-linecap="round" stroke-linejoin="round"/>
<path d="M274.535 250.743V248.642" stroke="#263238" stroke-width="0.829701" stroke-linecap="round" stroke-linejoin="round"/>
<path d="M295.437 250.743V248.642" stroke="#263238" stroke-width="0.829701" stroke-linecap="round" stroke-linejoin="round"/>
<path d="M86.335 250.743V242.452V158.184" stroke="#263238" stroke-width="0.829701" stroke-linecap="round" stroke-linejoin="round"/>
<path d="M86.335 242.451H91.5651" stroke="#263238" stroke-width="0.829701" stroke-linecap="round" stroke-linejoin="round"/>
<path d="M86.335 228.402H91.5651" stroke="#263238" stroke-width="0.829701" stroke-linecap="round" stroke-linejoin="round"/>
<path d="M86.335 214.353H91.5651" stroke="#263238" stroke-width="0.829701" stroke-linecap="round" stroke-linejoin="round"/>
<path d="M86.335 200.322H91.5651" stroke="#263238" stroke-width="0.829701" stroke-linecap="round" stroke-linejoin="round"/>
<path d="M86.335 186.272H91.5651" stroke="#263238" stroke-width="0.829701" stroke-linecap="round" stroke-linejoin="round"/>
<path d="M86.335 172.232H91.5651" stroke="#263238" stroke-width="0.829701" stroke-linecap="round" stroke-linejoin="round"/>
<path d="M86.335 158.184H91.5651" stroke="#263238" stroke-width="0.829701" stroke-linecap="round" stroke-linejoin="round"/>
<path d="M333.382 101.803H299.275V136.927H333.382V101.803Z" fill="white" stroke="#263238" stroke-width="0.829701" stroke-linecap="round" stroke-linejoin="round"/>
<path d="M333.382 101.803H299.275V107.829H333.382V101.803Z" fill="#263238" stroke="#263238" stroke-width="1.00786" stroke-linecap="round" stroke-linejoin="round"/>
<path d="M302.403 112.743V132.695" stroke="#263238" stroke-width="0.829701" stroke-linecap="round" stroke-linejoin="round"/>
<path d="M307.01 112.743V132.695" stroke="#263238" stroke-width="0.829701" stroke-linecap="round" stroke-linejoin="round"/>
<path d="M311.606 112.743V132.695" stroke="#263238" stroke-width="0.829701" stroke-linecap="round" stroke-linejoin="round"/>
<path d="M316.213 112.743V132.695" stroke="#263238" stroke-width="0.829701" stroke-linecap="round" stroke-linejoin="round"/>
<path d="M320.829 112.743V132.695" stroke="#263238" stroke-width="0.829701" stroke-linecap="round" stroke-linejoin="round"/>
<path d="M325.436 112.743V132.695" stroke="#263238" stroke-width="0.829701" stroke-linecap="round" stroke-linejoin="round"/>
<path d="M330.042 112.743V132.695" stroke="#263238" stroke-width="0.829701" stroke-linecap="round" stroke-linejoin="round"/>
<path d="M329.735 115.354H302.558" stroke="#263238" stroke-width="0.829701" stroke-linecap="round" stroke-linejoin="round"/>
<path d="M329.735 119.039H302.558" stroke="#263238" stroke-width="0.829701" stroke-linecap="round" stroke-linejoin="round"/>
<path d="M329.735 122.724H302.558" stroke="#263238" stroke-width="0.829701" stroke-linecap="round" stroke-linejoin="round"/>
<path d="M329.735 126.408H302.558" stroke="#263238" stroke-width="0.829701" stroke-linecap="round" stroke-linejoin="round"/>
<path d="M329.735 130.094H302.558" stroke="#263238" stroke-width="0.829701" stroke-linecap="round" stroke-linejoin="round"/>
<path d="M117.696 208.614L96.7949 250.744" stroke="#263238" stroke-width="2.21254" stroke-linecap="round" stroke-linejoin="round"/>
<path d="M138.617 236.694L117.696 208.614" stroke="#263238" stroke-width="2.21254" stroke-linecap="round" stroke-linejoin="round"/>
<path d="M159.528 214.228L138.617 236.693" stroke="#263238" stroke-width="2.21254" stroke-linecap="round" stroke-linejoin="round"/>
<path d="M180.43 166.484L159.528 214.228" stroke="#263238" stroke-width="2.21254" stroke-linecap="round" stroke-linejoin="round"/>
<path d="M201.35 180.524L180.43 166.484" stroke="#263238" stroke-width="2.21254" stroke-linecap="round" stroke-linejoin="round"/>
<path d="M222.252 229.679L201.351 180.524" stroke="#263238" stroke-width="2.21254" stroke-linecap="round" stroke-linejoin="round"/>
<path d="M243.163 225.465L222.252 229.678" stroke="#263238" stroke-width="2.21254" stroke-linecap="round" stroke-linejoin="round"/>
<path d="M264.084 219.842L243.163 225.465" stroke="#263238" stroke-width="2.21254" stroke-linecap="round" stroke-linejoin="round"/>
<path d="M284.986 194.564L264.084 219.842" stroke="#263238" stroke-width="2.21254" stroke-linecap="round" stroke-linejoin="round"/>
<path d="M96.7953 248.594C97.3756 248.594 97.9321 248.824 98.3425 249.235C98.7528 249.645 98.9833 250.201 98.9833 250.782C98.9833 251.363 98.7531 251.921 98.3431 252.332C97.933 252.744 97.3765 252.977 96.7953 252.979C96.2132 252.977 95.6557 252.745 95.2441 252.333C94.8325 251.921 94.6002 251.364 94.5977 250.782C94.6002 250.201 94.8329 249.644 95.2447 249.234C95.6566 248.824 96.2141 248.594 96.7953 248.594Z" fill="white" stroke="#263238" stroke-width="0.829701" stroke-linecap="round" stroke-linejoin="round"/>
<path d="M117.697 206.426C118.278 206.426 118.836 206.656 119.247 207.066C119.659 207.476 119.892 208.033 119.894 208.614C119.892 209.195 119.659 209.752 119.247 210.162C118.836 210.572 118.278 210.802 117.697 210.802C117.117 210.802 116.56 210.571 116.15 210.161C115.739 209.751 115.509 209.194 115.509 208.614C115.509 208.034 115.739 207.477 116.15 207.067C116.56 206.656 117.117 206.426 117.697 206.426Z" fill="white" stroke="#263238" stroke-width="0.829701" stroke-linecap="round" stroke-linejoin="round"/>
<path d="M138.608 234.505C139.188 234.505 139.745 234.735 140.155 235.146C140.565 235.556 140.796 236.113 140.796 236.693C140.796 237.274 140.566 237.832 140.156 238.244C139.746 238.655 139.189 238.888 138.608 238.891C138.027 238.888 137.47 238.655 137.06 238.244C136.65 237.832 136.42 237.274 136.42 236.693C136.42 236.113 136.65 235.556 137.061 235.146C137.471 234.735 138.028 234.505 138.608 234.505Z" fill="white" stroke="#263238" stroke-width="0.829701" stroke-linecap="round" stroke-linejoin="round"/>
<path d="M159.586 212.04C160.165 212.043 160.719 212.274 161.127 212.684C161.536 213.094 161.765 213.649 161.765 214.228C161.765 214.807 161.536 215.362 161.127 215.772C160.719 216.182 160.165 216.414 159.586 216.416C159.005 216.416 158.448 216.186 158.036 215.776C157.624 215.366 157.391 214.809 157.389 214.228C157.391 213.647 157.624 213.09 158.036 212.68C158.448 212.27 159.005 212.04 159.586 212.04Z" fill="white" stroke="#263238" stroke-width="0.829701" stroke-linecap="round" stroke-linejoin="round"/>
<path d="M180.43 164.286C181.013 164.286 181.572 164.518 181.984 164.93C182.396 165.342 182.628 165.901 182.628 166.484C182.625 167.065 182.393 167.621 181.981 168.032C181.569 168.442 181.011 168.672 180.43 168.672C180.143 168.672 179.858 168.615 179.593 168.505C179.327 168.395 179.086 168.234 178.883 168.031C178.68 167.828 178.519 167.587 178.409 167.321C178.299 167.056 178.242 166.771 178.242 166.484C178.242 165.903 178.472 165.345 178.882 164.933C179.293 164.521 179.849 164.289 180.43 164.286Z" fill="white" stroke="#263238" stroke-width="0.829701" stroke-linecap="round" stroke-linejoin="round"/>
<path d="M201.351 178.337C201.931 178.339 202.486 178.571 202.896 178.981C203.305 179.39 203.537 179.945 203.539 180.525C203.539 181.106 203.309 181.664 202.899 182.076C202.489 182.487 201.932 182.72 201.351 182.723C200.77 182.72 200.213 182.487 199.803 182.076C199.393 181.664 199.163 181.106 199.163 180.525C199.163 179.945 199.394 179.388 199.804 178.978C200.214 178.567 200.771 178.337 201.351 178.337Z" fill="white" stroke="#263238" stroke-width="0.829701" stroke-linecap="round" stroke-linejoin="round"/>
<path d="M222.223 227.49C222.804 227.49 223.362 227.72 223.774 228.131C224.186 228.541 224.418 229.097 224.421 229.678C224.418 230.259 224.186 230.816 223.774 231.226C223.362 231.636 222.804 231.866 222.223 231.866C221.643 231.866 221.086 231.636 220.676 231.225C220.266 230.815 220.035 230.259 220.035 229.678C220.035 229.098 220.266 228.541 220.676 228.131C221.086 227.721 221.643 227.49 222.223 227.49Z" fill="white" stroke="#263238" stroke-width="0.829701" stroke-linecap="round" stroke-linejoin="round"/>
<path d="M243.211 223.278C243.792 223.278 244.348 223.509 244.759 223.919C245.169 224.33 245.4 224.886 245.4 225.466C245.4 226.048 245.169 226.605 244.759 227.017C244.349 227.429 243.793 227.661 243.211 227.664C242.63 227.661 242.074 227.429 241.664 227.017C241.254 226.605 241.023 226.048 241.023 225.466C241.023 224.886 241.254 224.33 241.664 223.919C242.075 223.509 242.631 223.278 243.211 223.278Z" fill="white" stroke="#263238" stroke-width="0.829701" stroke-linecap="round" stroke-linejoin="round"/>
<path d="M264.084 217.654C264.663 217.657 265.217 217.888 265.625 218.299C266.034 218.709 266.263 219.264 266.263 219.842C266.263 220.421 266.034 220.976 265.625 221.386C265.217 221.796 264.663 222.028 264.084 222.03C263.503 222.03 262.946 221.8 262.534 221.39C262.122 220.98 261.889 220.424 261.887 219.842C261.889 219.261 262.122 218.705 262.534 218.295C262.946 217.884 263.503 217.654 264.084 217.654Z" fill="white" stroke="#263238" stroke-width="0.829701" stroke-linecap="round" stroke-linejoin="round"/>
<path d="M284.986 192.376C285.567 192.376 286.125 192.606 286.536 193.016C286.948 193.426 287.181 193.983 287.184 194.564C287.181 195.145 286.948 195.702 286.536 196.112C286.125 196.522 285.567 196.752 284.986 196.752C284.406 196.752 283.849 196.522 283.439 196.111C283.028 195.701 282.798 195.144 282.798 194.564C282.798 193.984 283.028 193.427 283.439 193.017C283.849 192.606 284.406 192.376 284.986 192.376Z" fill="white" stroke="#263238" stroke-width="0.829701" stroke-linecap="round" stroke-linejoin="round"/>
<path d="M123.627 198.854H112.207C111.444 198.854 110.711 198.55 110.171 198.01C109.631 197.471 109.328 196.738 109.328 195.975C109.328 195.219 109.625 194.494 110.154 193.956C110.684 193.417 111.404 193.108 112.159 193.096H123.589C124.352 193.096 125.085 193.399 125.625 193.939C126.164 194.479 126.468 195.211 126.468 195.975C126.468 196.738 126.164 197.471 125.625 198.01C125.085 198.55 124.352 198.854 123.589 198.854H123.627Z" fill="white" stroke="#263238" stroke-width="0.829701" stroke-linecap="round" stroke-linejoin="round"/>
<path d="M117.696 206.426V199.133" stroke="#263238" stroke-width="0.829701" stroke-linecap="round" stroke-linejoin="round"/>
<path d="M186.121 156.801H174.672C173.908 156.801 173.176 156.498 172.636 155.958C172.096 155.418 171.793 154.686 171.793 153.922C171.793 153.158 172.096 152.426 172.636 151.886C173.176 151.346 173.908 151.043 174.672 151.043H186.188C186.952 151.043 187.684 151.346 188.224 151.886C188.764 152.426 189.067 153.158 189.067 153.922C189.067 154.306 188.99 154.686 188.842 155.039C188.693 155.393 188.475 155.714 188.2 155.982C187.926 156.25 187.6 156.461 187.243 156.601C186.886 156.742 186.504 156.81 186.121 156.801Z" fill="white" stroke="#263238" stroke-width="0.829701" stroke-linecap="round" stroke-linejoin="round"/>
<path d="M180.161 164.374V157.08" stroke="#263238" stroke-width="0.829701" stroke-linecap="round" stroke-linejoin="round"/>
<path d="M290.437 184.459H279.026C278.263 184.459 277.531 184.156 276.991 183.616C276.451 183.076 276.147 182.344 276.147 181.58C276.147 180.817 276.451 180.084 276.991 179.544C277.531 179.004 278.263 178.701 279.026 178.701H290.437C291.184 178.701 291.902 178.991 292.439 179.51C292.977 180.03 293.291 180.737 293.316 181.484V181.551C293.316 182.315 293.013 183.047 292.473 183.587C291.933 184.127 291.2 184.43 290.437 184.43V184.459Z" fill="white" stroke="#263238" stroke-width="0.829701" stroke-linecap="round" stroke-linejoin="round"/>
<path d="M284.516 192.031V184.737" stroke="#263238" stroke-width="0.829701" stroke-linecap="round" stroke-linejoin="round"/>
<path d="M189.172 101.803C185.91 101.803 182.72 102.77 180.007 104.583C177.295 106.396 175.18 108.972 173.932 111.986C172.683 115.001 172.356 118.318 172.993 121.518C173.629 124.718 175.2 127.657 177.508 129.964C179.815 132.271 182.754 133.843 185.954 134.479C189.154 135.116 192.471 134.789 195.485 133.54C198.5 132.292 201.076 130.177 202.889 127.464C204.702 124.752 205.669 121.562 205.669 118.299C205.667 113.925 203.928 109.73 200.835 106.637C197.741 103.544 193.547 101.805 189.172 101.803ZM189.172 129.94C186.862 129.94 184.604 129.255 182.683 127.971C180.762 126.687 179.265 124.863 178.381 122.728C177.498 120.594 177.267 118.245 177.718 115.979C178.17 113.713 179.283 111.632 180.917 109.999C182.552 108.366 184.634 107.255 186.9 106.805C189.166 106.356 191.515 106.588 193.649 107.474C195.782 108.359 197.606 109.858 198.888 111.779C200.17 113.701 200.854 115.96 200.852 118.271C200.852 119.804 200.549 121.322 199.962 122.739C199.375 124.155 198.515 125.442 197.43 126.526C196.346 127.609 195.058 128.469 193.641 129.055C192.224 129.641 190.706 129.941 189.172 129.94Z" fill="white" stroke="#263238" stroke-width="0.829701" stroke-linecap="round" stroke-linejoin="round"/>
<path d="M189.172 101.803C186.947 101.794 184.743 102.241 182.697 103.116C180.65 103.99 178.804 105.274 177.272 106.889L180.766 110.238C181.847 109.096 183.151 108.188 184.596 107.569C186.042 106.95 187.6 106.634 189.172 106.64C192.27 106.64 195.24 107.87 197.431 110.06C199.621 112.251 200.851 115.221 200.851 118.319C200.851 121.416 199.621 124.387 197.431 126.577C195.24 128.767 192.27 129.998 189.172 129.998V134.796C193.546 134.907 197.785 133.276 200.956 130.261C204.127 127.246 205.971 123.096 206.082 118.722C206.192 114.348 204.561 110.109 201.546 106.938C198.532 103.767 194.381 101.923 190.007 101.812H189.172V101.803Z" fill="#263238" stroke="#263238" stroke-width="1.00786" stroke-linecap="round" stroke-linejoin="round"/>
<path d="M184.586 117.426H193.77" stroke="#263238" stroke-width="0.829701" stroke-linecap="round" stroke-linejoin="round"/>
<path d="M184.586 119.173H193.77" stroke="#263238" stroke-width="0.829701" stroke-linecap="round" stroke-linejoin="round"/>
<path d="M87.1221 98.3955H96.3061" stroke="#263238" stroke-width="0.829701" stroke-linecap="round" stroke-linejoin="round"/>
<path d="M87.1221 100.133H96.3061" stroke="#263238" stroke-width="0.829701" stroke-linecap="round" stroke-linejoin="round"/>
<path d="M98.4746 98.3955H107.659" stroke="#263238" stroke-width="0.829701" stroke-linecap="round" stroke-linejoin="round"/>
<path d="M98.4746 100.133H107.659" stroke="#263238" stroke-width="0.829701" stroke-linecap="round" stroke-linejoin="round"/>
<path d="M109.809 98.3955H118.993" stroke="#263238" stroke-width="0.829701" stroke-linecap="round" stroke-linejoin="round"/>
<path d="M109.809 100.133H118.993" stroke="#263238" stroke-width="0.829701" stroke-linecap="round" stroke-linejoin="round"/>
<path d="M87.1221 149.47H96.3061" stroke="#263238" stroke-width="0.829701" stroke-linecap="round" stroke-linejoin="round"/>
<path d="M87.1221 151.197H96.3061" stroke="#263238" stroke-width="0.829701" stroke-linecap="round" stroke-linejoin="round"/>
<path d="M98.4746 149.47H107.659" stroke="#263238" stroke-width="0.829701" stroke-linecap="round" stroke-linejoin="round"/>
<path d="M98.4746 151.197H107.659" stroke="#263238" stroke-width="0.829701" stroke-linecap="round" stroke-linejoin="round"/>
<path d="M109.809 149.47H118.993" stroke="#263238" stroke-width="0.829701" stroke-linecap="round" stroke-linejoin="round"/>
<path d="M109.809 151.197H118.993" stroke="#263238" stroke-width="0.829701" stroke-linecap="round" stroke-linejoin="round"/>
<path d="M301.502 158.25H310.686" stroke="#263238" stroke-width="0.829701" stroke-linecap="round" stroke-linejoin="round"/>
<path d="M312.854 158.25H322.039" stroke="#263238" stroke-width="0.829701" stroke-linecap="round" stroke-linejoin="round"/>
<path d="M324.188 158.25H333.372" stroke="#263238" stroke-width="0.829701" stroke-linecap="round" stroke-linejoin="round"/>
<path d="M301.502 160.381H310.686" stroke="#263238" stroke-width="0.829701" stroke-linecap="round" stroke-linejoin="round"/>
<path d="M312.854 160.381H322.039" stroke="#263238" stroke-width="0.829701" stroke-linecap="round" stroke-linejoin="round"/>
<path d="M324.188 160.381H333.372" stroke="#263238" stroke-width="0.829701" stroke-linecap="round" stroke-linejoin="round"/>
<path d="M301.502 162.53H310.686" stroke="#263238" stroke-width="0.829701" stroke-linecap="round" stroke-linejoin="round"/>
<path d="M312.854 162.53H322.039" stroke="#263238" stroke-width="0.829701" stroke-linecap="round" stroke-linejoin="round"/>
<path d="M324.188 162.53H333.372" stroke="#263238" stroke-width="0.829701" stroke-linecap="round" stroke-linejoin="round"/>
<path d="M301.502 164.661H310.686" stroke="#263238" stroke-width="0.829701" stroke-linecap="round" stroke-linejoin="round"/>
<path d="M312.854 164.661H322.039" stroke="#263238" stroke-width="0.829701" stroke-linecap="round" stroke-linejoin="round"/>
<path d="M324.188 164.661H333.372" stroke="#263238" stroke-width="0.829701" stroke-linecap="round" stroke-linejoin="round"/>
<path d="M301.502 166.801H310.686" stroke="#263238" stroke-width="0.829701" stroke-linecap="round" stroke-linejoin="round"/>
<path d="M312.854 166.801H322.039" stroke="#263238" stroke-width="0.829701" stroke-linecap="round" stroke-linejoin="round"/>
<path d="M324.188 166.801H333.372" stroke="#263238" stroke-width="0.829701" stroke-linecap="round" stroke-linejoin="round"/>
<path d="M301.502 168.951H310.686" stroke="#263238" stroke-width="0.829701" stroke-linecap="round" stroke-linejoin="round"/>
<path d="M312.854 168.951H322.039" stroke="#263238" stroke-width="0.829701" stroke-linecap="round" stroke-linejoin="round"/>
<path d="M324.188 168.951H333.372" stroke="#263238" stroke-width="0.829701" stroke-linecap="round" stroke-linejoin="round"/>
<path d="M301.502 171.081H310.686" stroke="#263238" stroke-width="0.829701" stroke-linecap="round" stroke-linejoin="round"/>
<path d="M312.854 171.081H322.039" stroke="#263238" stroke-width="0.829701" stroke-linecap="round" stroke-linejoin="round"/>
<path d="M324.188 171.081H333.372" stroke="#263238" stroke-width="0.829701" stroke-linecap="round" stroke-linejoin="round"/>
<path d="M301.502 173.23H310.686" stroke="#263238" stroke-width="0.829701" stroke-linecap="round" stroke-linejoin="round"/>
<path d="M312.854 173.23H322.039" stroke="#263238" stroke-width="0.829701" stroke-linecap="round" stroke-linejoin="round"/>
<path d="M324.188 173.23H333.372" stroke="#263238" stroke-width="0.829701" stroke-linecap="round" stroke-linejoin="round"/>
<path d="M301.502 175.361H310.686" stroke="#263238" stroke-width="0.829701" stroke-linecap="round" stroke-linejoin="round"/>
<path d="M312.854 175.361H322.039" stroke="#263238" stroke-width="0.829701" stroke-linecap="round" stroke-linejoin="round"/>
<path d="M324.188 175.361H333.372" stroke="#263238" stroke-width="0.829701" stroke-linecap="round" stroke-linejoin="round"/>
<path d="M301.502 177.511H310.686" stroke="#263238" stroke-width="0.829701" stroke-linecap="round" stroke-linejoin="round"/>
<path d="M312.854 177.511H322.039" stroke="#263238" stroke-width="0.829701" stroke-linecap="round" stroke-linejoin="round"/>
<path d="M324.188 177.511H333.372" stroke="#263238" stroke-width="0.829701" stroke-linecap="round" stroke-linejoin="round"/>
<path d="M301.502 179.651H310.686" stroke="#263238" stroke-width="0.829701" stroke-linecap="round" stroke-linejoin="round"/>
<path d="M312.854 179.651H322.039" stroke="#263238" stroke-width="0.829701" stroke-linecap="round" stroke-linejoin="round"/>
<path d="M324.188 179.651H333.372" stroke="#263238" stroke-width="0.829701" stroke-linecap="round" stroke-linejoin="round"/>
<path d="M301.502 181.781H310.686" stroke="#263238" stroke-width="0.829701" stroke-linecap="round" stroke-linejoin="round"/>
<path d="M312.854 181.781H322.039" stroke="#263238" stroke-width="0.829701" stroke-linecap="round" stroke-linejoin="round"/>
<path d="M324.188 181.781H333.372" stroke="#263238" stroke-width="0.829701" stroke-linecap="round" stroke-linejoin="round"/>
<path d="M301.502 183.932H310.686" stroke="#263238" stroke-width="0.829701" stroke-linecap="round" stroke-linejoin="round"/>
<path d="M312.854 183.932H322.039" stroke="#263238" stroke-width="0.829701" stroke-linecap="round" stroke-linejoin="round"/>
<path d="M324.188 183.932H333.372" stroke="#263238" stroke-width="0.829701" stroke-linecap="round" stroke-linejoin="round"/>
<path d="M301.502 186.062H310.686" stroke="#263238" stroke-width="0.829701" stroke-linecap="round" stroke-linejoin="round"/>
<path d="M312.854 186.062H322.039" stroke="#263238" stroke-width="0.829701" stroke-linecap="round" stroke-linejoin="round"/>
<path d="M324.188 186.062H333.372" stroke="#263238" stroke-width="0.829701" stroke-linecap="round" stroke-linejoin="round"/>
<path d="M301.502 188.212H310.686" stroke="#263238" stroke-width="0.829701" stroke-linecap="round" stroke-linejoin="round"/>
<path d="M312.854 188.212H322.039" stroke="#263238" stroke-width="0.829701" stroke-linecap="round" stroke-linejoin="round"/>
<path d="M324.188 188.212H333.372" stroke="#263238" stroke-width="0.829701" stroke-linecap="round" stroke-linejoin="round"/>
<path d="M227.857 101.803C224.594 101.801 221.404 102.766 218.69 104.578C215.976 106.389 213.86 108.964 212.61 111.978C211.36 114.991 211.031 118.308 211.666 121.508C212.3 124.709 213.87 127.649 216.176 129.958C218.481 132.266 221.42 133.839 224.62 134.477C227.819 135.116 231.136 134.791 234.151 133.544C237.166 132.297 239.744 130.184 241.558 127.472C243.373 124.761 244.342 121.572 244.344 118.309C244.341 113.935 242.604 109.741 239.513 106.647C236.423 103.552 232.23 101.81 227.857 101.803ZM227.857 129.94C225.547 129.94 223.288 129.255 221.367 127.971C219.446 126.687 217.95 124.863 217.066 122.728C216.182 120.594 215.951 118.245 216.403 115.979C216.854 113.713 217.968 111.632 219.602 109.999C221.236 108.366 223.318 107.255 225.584 106.805C227.85 106.356 230.199 106.588 232.333 107.474C234.467 108.359 236.29 109.858 237.572 111.779C238.855 113.701 239.538 115.96 239.536 118.271C239.536 119.804 239.234 121.322 238.647 122.739C238.06 124.155 237.199 125.442 236.115 126.526C235.03 127.609 233.742 128.469 232.326 129.055C230.909 129.641 229.39 129.941 227.857 129.94Z" fill="white" stroke="#263238" stroke-width="0.829701" stroke-linecap="round" stroke-linejoin="round"/>
<path d="M239.209 115.526L243.768 113.818C242.981 111.02 241.469 108.479 239.383 106.454C237.298 104.43 234.714 102.992 231.894 102.289C229.073 101.585 226.117 101.64 223.325 102.448C220.533 103.256 218.004 104.788 215.995 106.889L219.488 110.239C220.931 108.73 222.753 107.637 224.764 107.075C226.774 106.512 228.899 106.501 230.915 107.041C232.931 107.582 234.765 108.655 236.224 110.148C237.684 111.641 238.715 113.498 239.209 115.526Z" fill="#263238" stroke="#263238" stroke-width="1.00786" stroke-linecap="round" stroke-linejoin="round"/>
<path d="M223.049 117.426H232.233" stroke="#263238" stroke-width="0.829701" stroke-linecap="round" stroke-linejoin="round"/>
<path d="M223.049 119.173H232.233" stroke="#263238" stroke-width="0.829701" stroke-linecap="round" stroke-linejoin="round"/>
<path d="M281.339 108.309C279.363 105.715 276.662 103.765 273.579 102.706C270.495 101.647 267.166 101.526 264.013 102.359C260.861 103.192 258.026 104.94 255.867 107.384C253.709 109.828 252.323 112.857 251.885 116.088C251.448 119.319 251.978 122.607 253.41 125.537C254.841 128.467 257.109 130.906 259.927 132.547C262.744 134.188 265.985 134.956 269.24 134.755C272.494 134.554 275.616 133.393 278.21 131.418C279.934 130.107 281.383 128.469 282.474 126.598C283.564 124.726 284.275 122.658 284.565 120.512C284.856 118.366 284.721 116.183 284.167 114.089C283.613 111.995 282.652 110.031 281.339 108.309ZM258.95 125.362C257.547 123.527 256.72 121.317 256.574 119.012C256.427 116.706 256.968 114.41 258.127 112.411C259.286 110.413 261.011 108.804 263.085 107.786C265.158 106.769 267.487 106.389 269.777 106.695C272.066 107.001 274.214 107.979 275.947 109.505C277.681 111.032 278.923 113.038 279.517 115.27C280.11 117.502 280.028 119.861 279.282 122.046C278.535 124.232 277.157 126.148 275.322 127.55C272.86 129.429 269.753 130.254 266.683 129.843C263.613 129.433 260.832 127.821 258.95 125.362Z" fill="white" stroke="#263238" stroke-width="0.829701" stroke-linecap="round" stroke-linejoin="round"/>
<path d="M277.27 125.612L281.396 128.213C283.143 125.89 284.245 123.147 284.591 120.261C284.937 117.376 284.514 114.45 283.366 111.78C282.217 109.11 280.384 106.791 278.051 105.058C275.719 103.324 272.969 102.238 270.082 101.908L269.525 106.707C271.593 106.953 273.558 107.748 275.215 109.009C276.872 110.27 278.162 111.952 278.951 113.879C279.74 115.806 280 117.91 279.702 119.971C279.405 122.032 278.562 123.977 277.26 125.602L277.27 125.612Z" fill="#263238" stroke="#263238" stroke-width="1.00786" stroke-linecap="round" stroke-linejoin="round"/>
<path d="M263.403 117.426H272.587" stroke="#263238" stroke-width="0.829701" stroke-linecap="round" stroke-linejoin="round"/>
<path d="M263.403 119.173H272.587" stroke="#263238" stroke-width="0.829701" stroke-linecap="round" stroke-linejoin="round"/>
<path d="M330.177 223.681C328.201 221.087 325.5 219.138 322.416 218.078C319.333 217.019 316.004 216.899 312.851 217.731C309.699 218.564 306.864 220.312 304.705 222.756C302.546 225.2 301.161 228.229 300.723 231.46C300.286 234.691 300.816 237.979 302.248 240.909C303.679 243.839 305.947 246.278 308.764 247.919C311.582 249.56 314.823 250.328 318.078 250.127C321.332 249.926 324.454 248.765 327.048 246.79C328.771 245.478 330.219 243.84 331.309 241.968C332.398 240.097 333.109 238.029 333.399 235.884C333.69 233.738 333.555 231.555 333.002 229.462C332.449 227.368 331.489 225.404 330.177 223.681ZM307.788 240.715C306.388 238.878 305.564 236.667 305.42 234.362C305.277 232.057 305.82 229.761 306.981 227.764C308.142 225.767 309.87 224.16 311.944 223.145C314.019 222.13 316.348 221.753 318.637 222.062C320.926 222.37 323.072 223.351 324.804 224.879C326.536 226.407 327.776 228.414 328.367 230.647C328.958 232.88 328.874 235.238 328.125 237.423C327.376 239.608 325.996 241.522 324.16 242.922C322.94 243.853 321.549 244.534 320.066 244.926C318.583 245.319 317.037 245.415 315.516 245.21C313.996 245.005 312.531 244.503 311.205 243.732C309.879 242.96 308.717 241.935 307.788 240.715Z" fill="#9468B4" stroke="#263238" stroke-width="1.10627" stroke-linecap="round" stroke-linejoin="round"/>
<path d="M326.098 240.984L330.235 243.575C331.981 241.254 333.084 238.512 333.431 235.628C333.777 232.743 333.355 229.818 332.208 227.149C331.06 224.48 329.228 222.162 326.896 220.429C324.564 218.696 321.816 217.61 318.93 217.28L318.373 222.079C320.442 222.324 322.407 223.118 324.065 224.379C325.723 225.641 327.013 227.323 327.802 229.251C328.59 231.179 328.848 233.283 328.548 235.345C328.249 237.406 327.403 239.35 326.098 240.974V240.984Z" fill="#263238" stroke="#263238" stroke-width="1.00786" stroke-linecap="round" stroke-linejoin="round"/>
<path d="M312.24 232.798H321.424" stroke="#263238" stroke-width="0.829701" stroke-linecap="round" stroke-linejoin="round"/>
<path d="M312.24 234.524H321.424" stroke="#263238" stroke-width="0.829701" stroke-linecap="round" stroke-linejoin="round"/>
<path d="M138.185 48.58C138.185 48.58 132.331 50.8352 130.642 53.8102C129.577 55.6144 130.546 59.4339 134.74 60.8926C136.544 61.5355 139.135 60.7102 142.053 59.6546C144.97 58.599 142.446 47.2557 138.185 48.58Z" fill="white" stroke="#263238" stroke-width="0.829701" stroke-linecap="round" stroke-linejoin="round"/>
<path opacity="0.5" d="M136.227 59.9521C136.227 59.9521 132.389 59.146 132.389 55.9599C132.389 52.7738 137.542 50.7969 139.02 50.7969C140.498 50.7969 141.227 52.2748 141.227 54.7315C141.227 57.1883 138.348 60.7678 136.227 59.9521Z" fill="#9468B4"/>
<path d="M65.0977 66.1514L75.51 99.7398L74.1281 107.331L77.9668 112.849L79.3487 112.158L80.0397 106.976V102.839L81.7671 108.358L83.4849 107.292L82.4292 99.3559L78.9744 93.8282L74.1761 67.6293C74.1761 67.6293 69.5121 65.2205 65.0977 66.1514Z" fill="white" stroke="#263238" stroke-width="0.829701" stroke-linecap="round" stroke-linejoin="round"/>
<path d="M77.7745 112.321L75.1162 106.294" stroke="#263238" stroke-width="0.553134" stroke-linecap="round" stroke-linejoin="round"/>
<path d="M79.2719 112.109L77.0742 104.902" stroke="#263238" stroke-width="0.553134" stroke-linecap="round" stroke-linejoin="round"/>
<path d="M142.169 53.3594L161.016 77.0823L166.899 82.0726L167.475 88.7903L165.959 89.1357L162.12 85.5754L159.491 82.3893L161.669 87.6963L159.673 87.9937L155.45 81.1417L155.537 76.4489L136.228 59.9235C134.635 58.5416 134.942 54.4246 136.766 53.369C137.603 52.9463 138.528 52.7253 139.466 52.7236C140.404 52.722 141.33 52.9397 142.169 53.3594Z" fill="white" stroke="#263238" stroke-width="0.829701" stroke-linecap="round" stroke-linejoin="round"/>
<path d="M166.842 89.0495L162.226 80.9307" stroke="#263238" stroke-width="0.553134" stroke-linecap="round" stroke-linejoin="round"/>
<path d="M166.707 86.1125L164.605 81.6309" stroke="#263238" stroke-width="0.553134" stroke-linecap="round" stroke-linejoin="round"/>
<path d="M353.66 186.581L342.547 171.14L339.898 172.272L347.249 189.968L353.66 186.581Z" fill="white" stroke="#263238" stroke-width="0.829701" stroke-linecap="round" stroke-linejoin="round"/>
<path d="M332.633 167.732L335.186 169.268L335.887 168.308L332.595 162.886C332.144 161.427 333.315 162.435 333.315 162.435L335.887 165.995L333.488 159.623C333.967 158.28 334.85 159.278 334.85 159.278L337.509 164.7L336.885 158.865C337.317 157.666 337.95 158.865 337.95 158.865L339.668 165.122C339.754 163.999 339.908 163.203 340.061 162.099C340.148 161.418 339.937 161.14 340.522 161.034C341.578 160.88 341.328 162.368 341.366 163.04C341.453 164.354 341.539 165.669 341.616 166.974L342.576 171.667L339.879 172.867L335.743 171.514L332.125 168.779C331.568 167.425 332.633 167.732 332.633 167.732Z" fill="white" stroke="#263238" stroke-width="0.829701" stroke-linecap="round" stroke-linejoin="round"/>
<path d="M352.336 187.021C352.336 187.021 349.15 187.204 347.825 188.336C346.501 189.469 345.704 190.409 344.639 190.256C344.426 190.171 344.194 190.139 343.966 190.165C343.737 190.19 343.519 190.271 343.329 190.401C343.139 190.531 342.985 190.706 342.878 190.91C342.772 191.114 342.718 191.34 342.72 191.57C342.537 192.693 343.094 193.49 343.094 194.017C343.094 194.545 342.058 198.509 342.058 200.198C342.058 201.887 342.614 202.319 344.121 203.029C345.191 203.529 346.335 203.853 347.509 203.988C347.707 205.805 347.771 207.633 347.7 209.458C347.618 210.404 347.287 211.312 346.741 212.088C348.742 212.322 350.753 212.45 352.768 212.472C354.157 212.522 355.547 212.393 356.904 212.088C356.904 212.088 352.009 207.011 352.009 200.793C352.009 194.574 353.334 190.63 354.14 189.277C354.946 187.924 354.418 187.53 352.336 187.021Z" fill="white" stroke="#263238" stroke-width="0.829701" stroke-linecap="round" stroke-linejoin="round"/>
<path d="M344.246 198.337C343.812 198.289 343.393 198.15 343.016 197.931C342.639 197.711 342.313 197.414 342.058 197.06C342.038 197.026 342.024 196.989 342.019 196.949C342.013 196.91 342.015 196.87 342.025 196.832C342.035 196.794 342.052 196.758 342.076 196.726C342.1 196.694 342.129 196.668 342.163 196.648C342.197 196.627 342.235 196.614 342.274 196.609C342.313 196.603 342.353 196.605 342.391 196.615C342.43 196.625 342.466 196.642 342.497 196.666C342.529 196.689 342.556 196.719 342.576 196.753C342.784 197.028 343.048 197.256 343.351 197.421C343.654 197.587 343.988 197.686 344.332 197.713C344.41 197.725 344.479 197.767 344.526 197.829C344.573 197.892 344.593 197.971 344.582 198.049C344.579 198.087 344.569 198.125 344.552 198.16C344.534 198.195 344.51 198.225 344.481 198.25C344.451 198.276 344.417 198.294 344.38 198.306C344.343 198.317 344.304 198.321 344.265 198.317L344.246 198.337Z" fill="#263238"/>
<path d="M346.213 191.839C346.115 191.84 346.019 191.808 345.94 191.749C345.861 191.69 345.804 191.607 345.776 191.513C345.749 191.418 345.754 191.317 345.789 191.225C345.825 191.134 345.889 191.056 345.973 191.004L347.201 190.246C347.301 190.186 347.42 190.167 347.533 190.194C347.647 190.221 347.745 190.291 347.806 190.39C347.867 190.494 347.885 190.617 347.856 190.733C347.827 190.85 347.754 190.95 347.652 191.014L346.434 191.753C346.37 191.803 346.293 191.833 346.213 191.839Z" fill="#263238"/>
<path d="M338.593 294.582C338.593 294.582 338.967 303.276 339.84 308.526C340.714 313.775 348.554 349.167 348.554 351.356C348.554 353.544 341.097 359.446 341.097 359.446C341.097 359.446 338.977 362.104 341.606 361.422C343.737 360.875 352.748 358.543 356.001 355.751C357.421 354.551 354.264 349.638 354.264 349.638C354.264 349.638 352.143 316.404 350.79 311.174C350.069 308.224 349.198 305.312 348.18 302.451L352.518 293.229L338.593 294.582Z" fill="white" stroke="#263238" stroke-width="0.829701" stroke-linecap="round" stroke-linejoin="round"/>
<path opacity="0.5" d="M350.742 311.135C350.021 308.185 349.15 305.274 348.132 302.412L352.498 293.257L338.593 294.581C338.593 294.581 338.737 297.767 339.044 301.529C340.126 301.998 341.238 302.392 342.374 302.71C343.456 302.968 344.563 303.113 345.675 303.141C347.026 306.593 347.845 310.23 348.103 313.928C348.544 320.089 352.729 350.904 352.729 350.904L353.42 357.276C354.332 356.852 355.195 356.327 355.992 355.712C357.402 354.512 354.245 349.599 354.245 349.599C354.245 349.599 352.057 316.366 350.742 311.135Z" fill="#9468B4"/>
<path d="M354.437 349.973C353.009 350.257 351.654 350.829 350.454 351.652L348.535 351.355C348.535 353.475 341.049 359.406 341.049 359.406C341.049 359.406 338.929 362.064 341.558 361.383C343.679 360.836 352.7 358.504 355.953 355.711C357.133 354.761 355.128 351.115 354.437 349.973Z" fill="#263238"/>
<path d="M341.558 361.365C343.679 360.818 352.7 358.486 355.953 355.693C356.125 355.499 356.244 355.263 356.299 355.01C356.355 354.756 356.345 354.493 356.27 354.244L340.349 360.434C340.061 361.135 340.061 361.768 341.558 361.365Z" fill="white" stroke="#263238" stroke-width="0.829701" stroke-linecap="round" stroke-linejoin="round"/>
<path d="M367.066 288.43L360.848 299.159C363.111 302.058 364.903 305.297 366.155 308.756C367.623 312.997 373.832 336.855 377.575 347.795C378.008 349.168 378.656 350.463 379.494 351.633C380.081 352.38 380.417 353.294 380.454 354.244C380.502 354.802 380.327 355.357 379.967 355.786C379.607 356.216 379.092 356.486 378.534 356.537C376.289 356.864 363.746 357.967 363.103 357.439C362.69 357.094 368.966 354.464 371.596 352.737C372.436 352.214 373.161 351.525 373.726 350.712C373.726 350.712 355.79 311.99 353.89 307.287C352.356 303.525 351.652 299.476 351.827 295.416C351.95 291.946 352.27 288.486 352.786 285.052L367.066 288.43Z" fill="white"/>
<path opacity="0.5" d="M377.565 347.833C373.784 336.893 367.623 313.016 366.154 308.794C364.902 305.335 363.111 302.096 360.848 299.197L367.009 288.43L355.099 285.608L352.508 286.386C352.087 289.373 351.834 292.381 351.75 295.397C351.724 296.726 351.772 298.056 351.894 299.38C352.989 299.851 354.131 300.205 355.301 300.435C356.312 300.664 357.338 300.821 358.372 300.905C359.468 302.989 360.281 305.209 360.79 307.508C361.855 311.903 375.521 349.311 375.972 350.415C376.423 351.518 378.169 351.729 375.972 355.722L375.319 356.873C376.711 356.749 377.814 356.614 378.352 356.547C378.908 356.496 379.422 356.227 379.781 355.799C380.14 355.372 380.317 354.82 380.271 354.263C380.244 353.312 379.907 352.395 379.312 351.653C378.542 350.474 377.953 349.187 377.565 347.833Z" fill="#9468B4"/>
<path d="M367.066 288.43L360.848 299.159C363.111 302.058 364.903 305.297 366.155 308.756C367.623 312.997 373.832 336.855 377.575 347.795C378.008 349.168 378.656 350.463 379.494 351.633C380.081 352.38 380.417 353.294 380.454 354.244C380.502 354.802 380.327 355.357 379.967 355.786C379.607 356.216 379.092 356.486 378.534 356.537V356.537C376.289 356.864 363.746 357.967 363.103 357.439C362.69 357.094 368.966 354.464 371.596 352.737C372.436 352.214 373.161 351.525 373.726 350.712C373.726 350.712 355.79 311.99 353.89 307.287C352.356 303.525 351.652 299.476 351.827 295.416C351.95 291.946 352.27 288.486 352.786 285.052L367.066 288.43Z" stroke="#263238" stroke-width="0.829701" stroke-linecap="round" stroke-linejoin="round"/>
<path d="M380.444 354.272C380.408 353.322 380.072 352.409 379.484 351.662L379.34 351.46C378.041 352.38 376.467 352.827 374.878 352.727V351.192C374.878 349.627 373.698 350.712 373.698 350.712C373.117 351.526 372.376 352.212 371.519 352.727C368.88 354.454 362.604 357.084 363.026 357.429C363.669 357.957 376.212 356.854 378.458 356.527C379.015 356.474 379.528 356.203 379.887 355.774C380.247 355.345 380.422 354.791 380.377 354.234L380.444 354.272Z" fill="#263238"/>
<path d="M380.444 354.762C376.193 355.203 369.226 355.721 365.579 355.961C364.053 356.719 362.94 357.314 363.122 357.468C363.765 357.996 376.298 356.892 378.554 356.566C379.031 356.537 379.483 356.34 379.829 356.01C380.175 355.679 380.393 355.237 380.444 354.762Z" fill="white" stroke="#263238" stroke-width="0.829701" stroke-linecap="round" stroke-linejoin="round"/>
<path d="M345.761 246.905C345.761 246.905 342.575 254.976 338.084 267.471C333.593 279.966 337.748 298.861 337.748 298.861C337.748 298.861 341.04 300.915 349.946 298.439C358.851 295.963 366.337 293.401 366.337 293.401C366.337 293.401 372.095 279.467 372.431 270.58C372.766 261.694 366.817 250.801 366.817 250.801C366.817 250.801 354.715 235.859 345.761 246.905Z" fill="white"/>
<path d="M350.694 243.325L347.95 254.314C347.95 254.314 354.322 266.415 354.993 269.284C355.665 272.154 356.97 272.365 352.796 277.653C348.621 282.94 344.207 287.988 345.973 287.326C347.738 286.664 354.523 279.457 353.65 282.269C352.777 285.08 347.719 288.209 345.973 291.289C344.58 293.94 343.535 296.759 342.863 299.677C345.292 299.558 347.699 299.153 350.032 298.468C358.947 296.001 366.423 293.42 366.423 293.42C366.423 293.42 372.181 279.495 372.517 270.609C372.853 261.722 366.903 250.83 366.903 250.83C366.903 250.83 358.554 240.609 350.694 243.325Z" fill="#9468B4"/>
<path d="M345.761 246.905C345.761 246.905 342.575 254.976 338.084 267.471C333.593 279.966 337.748 298.861 337.748 298.861C337.748 298.861 341.04 300.915 349.946 298.439C358.851 295.963 366.337 293.401 366.337 293.401C366.337 293.401 372.095 279.467 372.431 270.58C372.766 261.694 366.817 250.801 366.817 250.801C366.817 250.801 354.715 235.859 345.761 246.905Z" stroke="#263238" stroke-width="0.829701" stroke-linecap="round" stroke-linejoin="round"/>
<path d="M352.806 288.642C352.806 288.642 364.552 280.494 367.882 271.454" stroke="#263238" stroke-width="0.553134" stroke-linecap="round" stroke-linejoin="round"/>
<path d="M348.555 287.739C348.555 287.739 355.493 284.419 359.111 280.791" stroke="#263238" stroke-width="0.553134" stroke-linecap="round" stroke-linejoin="round"/>
<path d="M347.345 288.344L344.332 288.939" stroke="#263238" stroke-width="0.553134" stroke-linecap="round" stroke-linejoin="round"/>
<path d="M344.409 210.821C346.015 209.937 347.782 209.386 349.606 209.2C351.429 209.013 353.272 209.196 355.023 209.737C361.395 211.407 358.497 213.767 355.791 214.113C353.085 214.458 344.409 210.821 344.409 210.821Z" fill="white" stroke="#263238" stroke-width="0.829701" stroke-linecap="round" stroke-linejoin="round"/>
<path d="M354.792 211.437C351.868 210.892 348.907 210.571 345.934 210.477C342.163 210.477 335.195 210.861 331.625 209.162C328.056 207.464 323.286 203.04 323.286 203.04L315.244 179.048L311.684 179.297C311.684 179.297 315.09 199.45 315.09 203.02C315.098 205.993 316.166 208.865 318.104 211.12C319.802 213.385 331.625 220.064 335.954 222.319L337.873 223.279C337.873 223.279 334.485 228.365 335.051 230.62C335.618 232.876 340.128 235.707 341.078 237.396C342.028 239.085 345.32 248.317 345.32 248.317C347.994 243.48 350.422 238.525 352.604 233.451C357.047 223.317 360.627 215.784 354.792 211.437Z" fill="white"/>
<path opacity="0.5" d="M352.527 233.489C357.048 223.317 360.627 215.783 354.792 211.417C351.868 210.877 348.907 210.556 345.935 210.457H343.353C344.687 211.148 348.055 213.259 347.873 216.829C347.662 221.234 343.708 219.468 337.096 219.248C330.484 219.027 332.47 219.468 334.889 221.666L335.225 221.944L335.954 222.328L337.873 223.288L337.681 223.595C340.925 225.514 345.359 227.75 345.493 228.739C345.714 230.053 342.413 231.368 343.295 234.238C343.842 235.975 344.697 240.907 346.174 245.043C348.672 241.414 350.801 237.543 352.527 233.489Z" fill="#9468B4"/>
<path d="M354.792 211.437C351.868 210.892 348.907 210.571 345.934 210.477C342.163 210.477 335.195 210.861 331.625 209.162C328.056 207.464 323.286 203.04 323.286 203.04L315.244 179.048L311.684 179.297C311.684 179.297 315.09 199.45 315.09 203.02C315.098 205.993 316.166 208.865 318.104 211.12C319.802 213.385 331.625 220.064 335.954 222.319L337.873 223.279C337.873 223.279 334.485 228.365 335.051 230.62C335.618 232.876 340.128 235.707 341.078 237.396C342.028 239.085 345.32 248.317 345.32 248.317C347.994 243.48 350.422 238.525 352.604 233.451C357.047 223.317 360.627 215.784 354.792 211.437Z" stroke="#263238" stroke-width="0.829701" stroke-linecap="round" stroke-linejoin="round"/>
<path d="M317.48 169.825L316.521 172.886L315.254 172.589L314.054 165.871C313.383 164.374 313.162 166.015 313.162 166.015L313.603 170.746L310.983 163.856C309.63 163.097 309.63 164.518 309.63 164.518L311.358 170.813L307.673 165.593C306.473 164.921 306.771 166.341 306.771 166.341L309.841 172.627C309.056 171.878 308.233 171.17 307.375 170.506C306.809 170.026 306.809 169.662 306.31 170.017C305.35 170.64 306.598 171.658 307.049 172.243L309.65 175.602L311.713 179.354L315.273 179.114L317.663 175.064L318.622 170.266C318.066 168.846 317.48 169.825 317.48 169.825Z" fill="white" stroke="#263238" stroke-width="0.829701" stroke-linecap="round" stroke-linejoin="round"/>
<path d="M337.835 223.316L343.132 227.126" stroke="#263238" stroke-width="0.553134" stroke-linecap="round" stroke-linejoin="round"/>
<path d="M339.515 225.015L341.923 229.535" stroke="#263238" stroke-width="0.553134" stroke-linecap="round" stroke-linejoin="round"/>
<path d="M355.732 214.085C355.732 214.085 349.898 208.768 347.441 202.223C344.984 195.678 347.614 187.828 350.809 184.863C354.005 181.897 364.955 185.822 367.795 193.356C370.636 200.889 365.876 208.221 364.408 209.929C362.939 211.637 358.189 214.065 358.189 214.065C363.294 218.893 367.334 224.735 370.051 231.215C374.388 241.771 373.237 248.201 370.617 255.322C367.997 262.442 357.623 270.772 357.623 270.772C357.623 270.772 346.855 257.769 344.437 247.222C342.019 236.675 352.153 218.23 355.732 214.085Z" fill="#263238"/>
<path d="M356.098 206.013C346.751 201.215 349.159 189.133 349.159 189.133C349.159 189.133 353.411 199.372 358.814 199.977" stroke="white" stroke-width="0.553134" stroke-linecap="round" stroke-linejoin="round"/>
<path d="M355.493 218.077C353.778 225.34 352.468 232.693 351.568 240.102C350.061 252.472 355.215 267.404 357.614 270.811" stroke="white" stroke-width="0.553134" stroke-linecap="round" stroke-linejoin="round"/>
<path d="M357.048 216.561C357.048 216.561 362.172 233.163 360.666 244.314C359.974 249.992 358.968 255.628 357.652 261.195" stroke="white" stroke-width="0.553134" stroke-linecap="round" stroke-linejoin="round"/>
<path d="M358.506 217.808C358.506 217.808 369.062 235.293 367.546 248.872C366.03 262.451 362.124 266.06 362.124 266.06" stroke="white" stroke-width="0.553134" stroke-linecap="round" stroke-linejoin="round"/>
</svg>
