<svg width="443" height="447" viewBox="0 0 443 447" fill="none" xmlns="http://www.w3.org/2000/svg">
<path d="M154.72 0L159.41 8.57L167.99 13.27L159.41 17.96L154.72 26.53L150.03 17.96L141.45 13.27L150.03 8.57L154.72 0Z" fill="#F5F5F5"/>
<path d="M350.37 232.38L353.89 238.82L360.32 242.33L353.89 245.85L350.37 252.29L346.85 245.85L340.42 242.33L346.85 238.82L350.37 232.38Z" fill="#EBEBEB"/>
<path d="M360.32 200.62L361.91 203.52L364.81 205.11L361.91 206.7L360.32 209.6L358.74 206.7L355.83 205.11L358.74 203.52L360.32 200.62Z" fill="#E0E0E0"/>
<path d="M121.21 3.22021L122.8 6.13021L125.7 7.71021L122.8 9.30021L121.21 12.2002L119.63 9.30021L116.72 7.71021L119.63 6.13021L121.21 3.22021Z" fill="#E0E0E0"/>
<path d="M41.63 272.87C43.4751 272.025 45.0323 270.658 46.1093 268.937C47.1862 267.217 47.7357 265.219 47.69 263.19C47.69 257.46 43.24 252.86 37.87 252.9C32.5 252.94 28.19 257.63 28.24 263.36C28.2255 265.406 28.8183 267.41 29.9433 269.119C31.0683 270.828 32.675 272.165 34.56 272.96C19.62 275.41 20.5 291.67 20.5 291.67L55.89 291.37C55.89 291.37 56.5 274.92 41.63 272.87Z" fill="#E0E0E0"/>
<path d="M381.14 380.05C380.891 378.767 380.193 377.615 379.173 376.799C378.152 375.982 376.875 375.555 375.569 375.594C374.263 375.632 373.013 376.134 372.042 377.008C371.071 377.883 370.443 379.075 370.27 380.37C370.088 379.077 369.453 377.89 368.478 377.022C367.503 376.153 366.251 375.659 364.945 375.628C363.64 375.597 362.365 376.03 361.35 376.851C360.334 377.672 359.643 378.827 359.4 380.11C359.138 382.006 359.618 383.929 360.74 385.48C361.85 387.009 363.155 388.387 364.62 389.58C366.62 391.35 368.43 393 370.41 394.76C372.41 392.98 374.04 391.31 376 389.53C377.459 388.325 378.754 386.933 379.85 385.39C380.944 383.839 381.406 381.929 381.14 380.05Z" fill="#EBEBEB"/>
<path d="M404.19 169.26L407.98 168.51L413.98 155.33L412.48 147.76C412.48 147.76 418.27 146.24 419.55 156.29C420.83 166.34 421.07 163.67 421.07 163.67C421.07 163.67 433.52 161.25 434.77 162.12C435.68 162.76 438.47 175.06 439.93 181.74C440.334 183.341 440.191 185.032 439.522 186.541C438.853 188.051 437.698 189.294 436.24 190.07C435.825 190.275 435.385 190.423 434.93 190.51C431.83 191.13 415.47 191.75 415.47 191.75L408.92 193.05L404.19 169.26Z" fill="#E0E0E0"/>
<path d="M392.92 169.33L400.39 194.81L406.89 193.52L401.85 168.11L392.92 169.33Z" fill="#E0E0E0"/>
<path d="M442.97 445.43C442.97 445.58 343.8 445.69 221.5 445.69C99.2 445.69 0 445.58 0 445.43C0 445.28 99.15 445.17 221.5 445.17C343.85 445.17 442.97 445.29 442.97 445.43Z" fill="#263238"/>
<path d="M300.77 446.16L162.88 446.11C154.923 446.11 147.293 442.949 141.667 437.323C136.041 431.697 132.88 424.066 132.88 416.11L132.94 70.4297C132.94 66.485 133.718 62.5791 135.229 58.9354C136.741 55.2917 138.956 51.9818 141.748 49.1953C144.54 46.4088 147.854 44.2002 151.501 42.6961C155.148 41.192 159.055 40.4219 163 40.4297L300.88 40.5097C308.836 40.5097 316.467 43.6705 322.093 49.2965C327.719 54.9226 330.88 62.5533 330.88 70.5097L330.82 416.11C330.826 420.058 330.054 423.968 328.546 427.617C327.038 431.266 324.825 434.581 322.033 437.373C319.241 440.165 315.926 442.378 312.277 443.886C308.629 445.394 304.718 446.166 300.77 446.16Z" fill="#263238"/>
<path d="M300.73 52.6296H273.99C272.235 52.6716 270.568 53.4059 269.352 54.6722C268.136 55.9386 267.471 57.6344 267.5 59.3896V64.2396C267.52 65.1112 267.368 65.9781 267.052 66.7908C266.737 67.6034 266.264 68.3459 265.661 68.9756C265.059 69.6054 264.337 70.1101 263.539 70.4608C262.741 70.8116 261.882 71.0015 261.01 71.0196H208.9C208.028 71.0002 207.169 70.809 206.37 70.4572C205.572 70.1054 204.851 69.5998 204.248 68.9692C203.646 68.3387 203.173 67.5956 202.858 66.7823C202.542 65.9691 202.39 65.1017 202.41 64.2296V59.3496C202.445 57.59 201.782 55.888 200.566 54.6157C199.35 53.3434 197.68 52.6042 195.92 52.5596H186.5H163.11C160.348 52.5531 157.612 53.0914 155.059 54.1438C152.505 55.1962 150.184 56.742 148.229 58.6927C146.273 60.6434 144.722 62.9606 143.664 65.5117C142.605 68.0628 142.06 70.7977 142.06 73.5596L141.99 410.97C141.99 416.539 144.203 421.881 148.141 425.819C152.079 429.757 157.421 431.97 162.99 431.97L300.61 432.05C303.368 432.05 306.099 431.506 308.647 430.451C311.194 429.396 313.509 427.849 315.459 425.899C317.409 423.949 318.956 421.634 320.012 419.086C321.067 416.538 321.61 413.807 321.61 411.05L321.68 73.6296C321.68 68.0687 319.475 62.7349 315.547 58.798C311.62 54.8612 306.291 52.6429 300.73 52.6296Z" fill="white"/>
<path d="M302.74 80.0395C302.74 80.1295 299.26 80.2295 294.98 80.2595C290.7 80.2895 287.21 80.2595 287.21 80.1695C287.21 80.0795 290.68 79.9695 294.97 79.9395C299.26 79.9095 302.74 79.9495 302.74 80.0395Z" fill="#263238"/>
<path d="M302.77 84.0099C302.77 84.0999 299.3 84.1999 295.01 84.2399C290.72 84.2799 287.24 84.2399 287.24 84.1399C287.24 84.0399 290.72 83.9499 295.01 83.9099C299.3 83.8699 302.77 83.9199 302.77 84.0099Z" fill="#263238"/>
<path d="M302.81 87.9797C302.81 88.0697 299.33 88.1797 295.04 88.2097C290.75 88.2397 287.28 88.2097 287.27 88.1097C287.26 88.0097 290.75 87.9197 295.04 87.8797C299.33 87.8397 302.81 87.8897 302.81 87.9797Z" fill="#263238"/>
<path d="M156.5 91.8596H156.91H158.04L162.22 91.7596L162.1 91.8696C162.1 90.9496 162.1 89.9396 162.05 88.8696C162.05 88.3096 162.05 87.7796 162.05 87.1296C162.116 86.7937 162.287 86.4875 162.539 86.2555C162.791 86.0236 163.11 85.8779 163.45 85.8396C164.13 85.8396 164.72 85.8396 165.45 85.8396C165.833 85.9014 166.181 86.0974 166.432 86.3924C166.683 86.6874 166.82 87.0622 166.82 87.4496C166.82 88.8696 166.82 90.3396 166.87 91.8696L166.68 91.6796H171.95L171.75 91.8796C171.75 89.7596 171.75 87.5596 171.69 85.3096C171.69 84.7496 171.69 84.1996 171.69 83.6396C171.668 83.3907 171.589 83.1501 171.461 82.9355C171.333 82.7209 171.159 82.5378 170.95 82.3996L168.65 80.1196L166.42 77.9296L165.35 76.8696C164.98 76.5096 164.69 76.1396 164.26 76.0496C164.054 75.9954 163.839 75.9879 163.629 76.0277C163.42 76.0675 163.222 76.1535 163.05 76.2796C162.73 76.5496 162.39 76.9296 162.05 77.2796L160.15 79.1896C158.96 80.4196 157.72 81.5496 156.82 82.6196C156.553 83.2502 156.463 83.9417 156.56 84.6196C156.56 85.2696 156.56 85.8896 156.56 86.4696C156.56 87.6096 156.56 88.6096 156.56 89.4696C156.56 90.3296 156.56 90.8596 156.56 91.3796C156.575 91.6094 156.575 91.8398 156.56 92.0696C156.549 91.8598 156.549 91.6495 156.56 91.4396C156.56 90.9296 156.56 90.2996 156.56 89.5496C156.56 88.7996 156.56 87.6796 156.49 86.5496C156.49 85.9496 156.49 85.3196 156.49 84.6496C156.49 84.3096 156.49 83.9696 156.49 83.6496C156.488 83.2638 156.588 82.8842 156.78 82.5496C157.78 81.3596 158.92 80.2996 160.12 79.0296L162 77.0996C162.34 76.7696 162.61 76.4396 163 76.0996C163.215 75.9358 163.465 75.8227 163.73 75.769C163.995 75.7154 164.268 75.7224 164.53 75.7896C165.028 75.9724 165.467 76.2869 165.8 76.6996L166.88 77.7596L169.11 79.9496L171.42 82.2096C171.637 82.4039 171.834 82.6182 172.01 82.8496C172.183 83.115 172.28 83.4229 172.29 83.7396C172.29 84.2996 172.29 84.8596 172.29 85.4196C172.29 87.6696 172.29 89.8696 172.34 91.9896V92.1896H172.14H166.87H166.5V91.9996C166.5 90.4696 166.5 88.9996 166.5 87.5796C166.507 87.2745 166.403 86.9772 166.209 86.7422C166.014 86.5071 165.741 86.35 165.44 86.2996C164.83 86.2996 164.11 86.2996 163.52 86.2996C163.251 86.3266 162.997 86.4377 162.794 86.6172C162.591 86.7967 162.45 87.0354 162.39 87.2996C162.39 87.8296 162.39 88.4396 162.39 88.9796C162.39 90.0696 162.39 91.0896 162.39 91.9796V92.0996H162.27H158.02H156.91C156.766 92.0341 156.628 91.9536 156.5 91.8596Z" fill="#263238"/>
<path d="M247.5 355.52C247.02 355.595 246.535 355.629 246.05 355.62L242.11 355.7C238.79 355.75 234.19 355.78 229.11 355.78C224.03 355.78 219.43 355.78 216.11 355.7L212.17 355.62C211.684 355.628 211.199 355.594 210.72 355.52C211.199 355.439 211.684 355.405 212.17 355.42L216.11 355.33C219.43 355.33 224.03 355.26 229.11 355.26C234.19 355.26 238.78 355.26 242.11 355.33L246.05 355.42C246.535 355.404 247.021 355.438 247.5 355.52Z" fill="#455A64"/>
<path d="M305.27 364.56C305.27 364.71 284.1 364.82 257.99 364.82C231.88 364.82 210.71 364.71 210.71 364.56C210.71 364.41 231.88 364.3 257.99 364.3C284.1 364.3 305.27 364.42 305.27 364.56Z" fill="#455A64"/>
<path d="M275.72 373.11C275.72 373.26 261.17 373.37 243.22 373.37C225.27 373.37 210.71 373.26 210.71 373.11C210.71 372.96 225.26 372.85 243.22 372.85C261.18 372.85 275.72 372.93 275.72 373.11Z" fill="#455A64"/>
<path d="M307.139 389.64L304.199 386.69L301.399 389.48V381.04H307.129L307.139 389.64ZM304.199 386.32L304.289 386.41L306.879 389.01V381.31H301.669V388.86L304.199 386.32Z" fill="#263238"/>
<path d="M228.91 388.54L227.91 388.08C227.313 388.361 226.633 388.409 226.002 388.215C225.371 388.02 224.836 387.598 224.5 387.03C224.165 386.462 224.053 385.789 224.187 385.143C224.322 384.497 224.692 383.924 225.226 383.537C225.761 383.149 226.42 382.975 227.076 383.048C227.732 383.122 228.337 383.437 228.772 383.933C229.208 384.428 229.443 385.069 229.431 385.728C229.42 386.388 229.163 387.02 228.71 387.5L228.91 388.54ZM226.5 382.92C225.816 382.968 225.177 383.274 224.711 383.778C224.246 384.281 223.991 384.943 223.997 385.628C224.004 386.314 224.271 386.971 224.746 387.466C225.22 387.96 225.866 388.255 226.55 388.29C227.007 388.258 227.449 388.118 227.84 387.88L228.61 388.22L228.43 387.47C228.783 387.085 229.015 386.605 229.099 386.09C229.183 385.575 229.114 385.046 228.902 384.569C228.689 384.092 228.342 383.688 227.903 383.406C227.464 383.123 226.952 382.975 226.43 382.98L226.5 382.92Z" fill="#263238"/>
<path d="M235.57 388.11L234.39 385.21L232.16 383.21H237.56L235.57 388.11ZM232.66 383.38L234.56 385.12L235.56 387.59L237.26 383.34L232.66 383.38Z" fill="#263238"/>
<path d="M237.447 383.145L234.496 385.064L234.605 385.232L237.556 383.312L237.447 383.145Z" fill="#263238"/>
<path d="M220.4 383.77C220.32 383.384 220.107 383.039 219.798 382.795C219.488 382.551 219.102 382.425 218.709 382.438C218.315 382.451 217.939 382.603 217.646 382.867C217.354 383.131 217.164 383.489 217.11 383.88C217.056 383.485 216.863 383.122 216.565 382.857C216.267 382.593 215.884 382.443 215.486 382.436C215.087 382.429 214.699 382.564 214.392 382.818C214.085 383.072 213.878 383.427 213.81 383.82C213.733 384.395 213.88 384.979 214.22 385.45C214.558 385.912 214.955 386.329 215.4 386.69C216.01 387.22 216.56 387.69 217.16 388.25C217.76 387.71 218.26 387.2 218.86 386.66C219.3 386.292 219.69 385.868 220.02 385.4C220.355 384.927 220.491 384.342 220.4 383.77Z" fill="#9468B4"/>
<path d="M313.16 397.11C313.16 397.11 313.16 396.78 313.16 396.17C313.16 395.56 313.16 394.63 313.16 393.43C313.16 391.02 313.16 387.43 313.11 382.87C313.11 373.68 313.06 360.31 313.02 343.54L313.19 343.71L153.28 343.8L153.54 343.54C153.54 362.16 153.54 380.21 153.54 397.11L153.29 396.86L267.72 396.97L301.12 397.04H310.12H312.44H313.24H312.47H310.18H301.27L267.92 397.11L153.32 397.23H153.06V397.11C153.06 380.21 153.06 362.16 153.06 343.54V343.28H153.34L313.25 343.37H313.42V343.54C313.42 360.35 313.35 373.76 313.33 382.98C313.33 387.56 313.33 391.09 313.33 393.5C313.33 394.68 313.33 395.58 313.33 396.2C313.33 396.82 313.16 397.11 313.16 397.11Z" fill="#263238"/>
<path d="M159.902 352.497L159.698 387.916L203.998 388.171L204.202 352.752L159.902 352.497Z" fill="#EBEBEB"/>
<path d="M204.19 352.73H203.34H200.92H191.83L159.83 352.66L160.07 352.43C160.02 362.98 159.96 375.06 159.9 387.84C159.95 387.91 159.41 387.35 159.64 387.58H162.69H165.69H171.69L183.19 387.65L203.93 387.8L203.72 388.02C203.82 377.38 203.91 368.56 203.98 362.36C203.98 359.28 204.05 356.86 204.07 355.17C204.07 354.36 204.07 353.73 204.07 353.27C204.07 352.81 204.07 352.6 204.07 352.6C204.07 352.6 204.07 352.8 204.07 353.22C204.07 353.64 204.07 354.29 204.07 355.09C204.07 356.76 204.07 359.17 204.07 362.23C204.07 368.46 204.07 377.33 204.07 388.02V388.23H203.85L183.11 388.15L171.61 388.09H165.61H162.61H159.56L159.29 387.82C159.38 375.03 159.45 362.95 159.52 352.41V352.17H159.76L191.86 352.46L200.86 352.58H203.23H203.83L204.19 352.73Z" fill="#263238"/>
<path d="M161.419 354.735L161.24 385.695L202.43 385.932L202.608 354.973L161.419 354.735Z" fill="#E0E0E0"/>
<path d="M161.22 385.67L175.72 366.51L184.56 378.6L190.64 372.2L202.41 385.91L161.22 385.67Z" fill="#F5F5F5"/>
<path d="M188.43 364.23C188.428 364.873 188.235 365.501 187.876 366.035C187.516 366.568 187.007 366.983 186.412 367.227C185.817 367.471 185.162 367.533 184.532 367.405C183.902 367.276 183.324 366.964 182.871 366.507C182.418 366.05 182.111 365.469 181.989 364.838C181.867 364.206 181.934 363.553 182.184 362.96C182.433 362.367 182.853 361.861 183.39 361.507C183.927 361.153 184.556 360.966 185.2 360.97C185.626 360.971 186.048 361.057 186.441 361.221C186.834 361.386 187.191 361.627 187.491 361.929C187.791 362.232 188.029 362.591 188.19 362.986C188.351 363.381 188.432 363.803 188.43 364.23Z" fill="#F5F5F5"/>
<path d="M234.59 122.98C234.431 123.006 234.269 123.006 234.11 122.98L232.76 123.03L227.76 123.12C223.55 123.12 217.76 123.19 211.3 123.19C204.84 123.19 199.05 123.19 194.84 123.12L189.84 123.03L188.48 122.98C188.324 123.007 188.165 123.007 188.01 122.98C188.163 122.942 188.322 122.925 188.48 122.93H189.84L194.84 122.85C199.05 122.8 204.84 122.77 211.3 122.77C217.76 122.77 223.55 122.77 227.76 122.85L232.76 122.93H234.11C234.271 122.925 234.433 122.942 234.59 122.98Z" fill="#263238"/>
<path d="M300.03 318.76L295.67 314.38L291.5 318.53V305.99H300.02L300.03 318.76ZM295.67 313.84L295.8 313.97L299.65 317.83V306.39H291.89V317.61L295.67 313.84Z" fill="#263238"/>
<path d="M189.17 317.44L187.17 316.53C186.006 317.071 184.681 317.159 183.455 316.776C182.229 316.393 181.19 315.566 180.541 314.457C179.892 313.349 179.68 312.038 179.946 310.782C180.212 309.525 180.938 308.413 181.98 307.663C183.023 306.912 184.307 306.578 185.583 306.724C186.859 306.871 188.035 307.488 188.88 308.456C189.725 309.423 190.179 310.67 190.153 311.955C190.127 313.239 189.624 314.467 188.74 315.4L189.17 317.44ZM184.4 306.39C183.707 306.395 183.021 306.538 182.383 306.809C181.745 307.079 181.166 307.473 180.68 307.968C180.194 308.462 179.81 309.048 179.55 309.691C179.29 310.333 179.159 311.021 179.165 311.715C179.171 312.408 179.314 313.093 179.584 313.732C179.855 314.37 180.249 314.949 180.744 315.435C181.238 315.921 181.823 316.305 182.466 316.565C183.109 316.825 183.797 316.955 184.49 316.95C185.39 316.895 186.262 316.621 187.03 316.15L187.12 316.1L188.62 316.77L188.28 315.29L188.35 315.22C189.045 314.461 189.503 313.517 189.667 312.502C189.831 311.487 189.695 310.446 189.275 309.507C188.856 308.569 188.17 307.773 187.304 307.219C186.438 306.665 185.428 306.377 184.4 306.39Z" fill="#263238"/>
<path d="M202.29 316.57L199.95 310.86L195.57 306.86L206.21 306.78L202.29 316.57ZM196.56 307.24L200.3 310.67L202.3 315.53L205.64 307.17L196.56 307.24Z" fill="#263238"/>
<path d="M205.999 306.762L200.198 310.536L200.411 310.863L206.211 307.089L205.999 306.762Z" fill="#263238"/>
<path d="M172.43 308.11C172.279 307.344 171.861 306.657 171.25 306.172C170.639 305.686 169.876 305.433 169.096 305.458C168.316 305.484 167.57 305.785 166.992 306.309C166.414 306.833 166.041 307.546 165.94 308.32C165.825 307.549 165.441 306.844 164.855 306.331C164.269 305.817 163.52 305.528 162.741 305.515C161.963 305.501 161.204 305.765 160.601 306.259C159.999 306.752 159.591 307.444 159.45 308.21C159.3 309.341 159.59 310.486 160.26 311.41C160.931 312.321 161.714 313.144 162.59 313.86C163.78 314.86 164.87 315.86 166.06 316.93C167.22 315.87 168.22 314.87 169.39 313.8C170.254 313.072 171.024 312.239 171.68 311.32C172.331 310.385 172.599 309.236 172.43 308.11Z" fill="#9468B4"/>
<path d="M171.46 130.2C175.448 130.2 178.68 126.967 178.68 122.98C178.68 118.992 175.448 115.76 171.46 115.76C167.473 115.76 164.24 118.992 164.24 122.98C164.24 126.967 167.473 130.2 171.46 130.2Z" fill="#EBEBEB"/>
<path d="M297.31 277.36C297.31 277.51 267.05 277.63 229.73 277.63C192.41 277.63 162.14 277.51 162.14 277.36C162.14 277.21 192.4 277.1 229.73 277.1C267.06 277.1 297.31 277.22 297.31 277.36Z" fill="#455A64"/>
<path d="M297.31 266.11C297.31 266.25 267.05 266.37 229.73 266.37C192.41 266.37 162.14 266.25 162.14 266.11C162.14 265.97 192.4 265.85 229.73 265.85C267.06 265.85 297.31 265.97 297.31 266.11Z" fill="#455A64"/>
<path d="M235.71 288.77C235.71 288.91 219.24 289.03 198.93 289.03C178.62 289.03 162.14 288.91 162.14 288.77C162.14 288.63 178.61 288.51 198.93 288.51C219.25 288.51 235.71 288.63 235.71 288.77Z" fill="#455A64"/>
<path d="M226.639 411.4C226.63 411.968 226.452 412.521 226.129 412.988C225.805 413.455 225.351 413.817 224.823 414.026C224.294 414.236 223.716 414.285 223.16 414.167C222.604 414.048 222.096 413.768 221.699 413.361C221.302 412.955 221.034 412.44 220.929 411.881C220.824 411.323 220.887 410.746 221.11 410.223C221.332 409.7 221.704 409.254 222.179 408.942C222.654 408.63 223.211 408.466 223.779 408.47C224.16 408.474 224.536 408.553 224.885 408.702C225.235 408.852 225.552 409.069 225.818 409.341C226.084 409.613 226.293 409.935 226.434 410.288C226.575 410.642 226.645 411.019 226.639 411.4Z" fill="#263238"/>
<path d="M235.5 411.44C235.488 412.005 235.31 412.554 234.987 413.019C234.664 413.483 234.211 413.841 233.685 414.049C233.159 414.257 232.584 414.305 232.031 414.186C231.478 414.068 230.972 413.789 230.577 413.384C230.182 412.98 229.915 412.467 229.81 411.912C229.706 411.356 229.767 410.782 229.988 410.261C230.208 409.74 230.577 409.296 231.049 408.985C231.521 408.673 232.075 408.508 232.64 408.51C233.021 408.512 233.397 408.59 233.748 408.739C234.098 408.888 234.416 409.106 234.681 409.378C234.947 409.65 235.157 409.973 235.297 410.327C235.438 410.681 235.507 411.059 235.5 411.44Z" fill="#263238"/>
<path d="M244.43 411.48C244.418 412.045 244.239 412.594 243.916 413.059C243.594 413.523 243.141 413.881 242.615 414.089C242.089 414.297 241.513 414.345 240.96 414.226C240.407 414.108 239.902 413.829 239.507 413.425C239.112 413.02 238.845 412.508 238.74 411.952C238.635 411.396 238.697 410.822 238.917 410.301C239.138 409.78 239.507 409.336 239.979 409.025C240.451 408.713 241.004 408.548 241.57 408.55C241.95 408.554 242.326 408.633 242.676 408.782C243.026 408.932 243.342 409.149 243.608 409.421C243.874 409.693 244.083 410.015 244.224 410.368C244.365 410.722 244.435 411.099 244.43 411.48Z" fill="#263238"/>
<path d="M314.119 137.26H154.189V235.06H314.119V137.26Z" fill="#E0E0E0"/>
<path d="M168.96 235.09L214.78 173.75L243.2 212.11L262.45 191.59L300.22 235.05L168.96 235.09Z" fill="#F5F5F5"/>
<path d="M255.24 166.22C255.242 168.265 254.637 170.265 253.502 171.967C252.367 173.669 250.753 174.996 248.863 175.78C246.974 176.564 244.895 176.77 242.888 176.372C240.882 175.974 239.039 174.99 237.592 173.545C236.145 172.099 235.159 170.257 234.759 168.251C234.359 166.245 234.563 164.165 235.346 162.275C236.128 160.385 237.453 158.77 239.154 157.633C240.855 156.496 242.854 155.89 244.9 155.89C247.64 155.89 250.269 156.978 252.208 158.915C254.146 160.852 255.237 163.479 255.24 166.22Z" fill="#F5F5F5"/>
<path d="M313.69 325.96C313.69 323.87 313.59 235.52 313.45 104.72L313.69 104.96H153.78L154.04 104.7C154.04 187.44 154.04 264.01 154.04 325.94L153.82 325.73L313.75 325.94L153.82 326.16H153.61V325.94C153.61 264.01 153.61 187.44 153.56 104.7V104.44H153.84H313.75H313.99V104.67C313.94 170.14 313.9 225.47 313.87 264.45C313.87 283.91 313.82 299.28 313.81 309.8C313.81 315.04 313.81 319.07 313.81 321.8C313.81 323.15 313.81 324.18 313.81 324.88C313.81 325.58 313.69 325.96 313.69 325.96Z" fill="#263238"/>
<path d="M238.5 353.409L242.04 341.519C242.66 338.939 243.48 335.899 244.58 332.429C245.58 329.309 248.12 326.029 250.44 323.669C254.05 319.999 255.77 319.979 258.19 318.029C258.41 317.889 258.66 317.679 258.87 317.569C259.328 317.32 259.729 316.98 260.05 316.569C262.14 314.309 260.13 310.799 255.88 311.139C252.69 311.389 247.47 312.299 238.99 321.049C238.88 321.189 238.77 321.299 238.67 321.429C234.22 327.219 230.04 310.699 229.28 304.549C229.133 303.596 228.773 302.688 228.227 301.893C227.681 301.098 226.963 300.436 226.127 299.956C225.29 299.475 224.357 299.19 223.395 299.119C222.433 299.049 221.467 299.196 220.57 299.549L199.91 309.209C197.939 308.637 195.838 308.708 193.91 309.409C192.464 309.917 191.26 310.945 190.531 312.293C189.802 313.64 189.602 315.212 189.97 316.699L198.36 350.109L173.75 432.009H226.8L238.5 353.409Z" fill="#FFBE9D"/>
<path d="M279.3 278.189L262.9 310.329L254.7 308.049L213.5 341.579C211.818 342.955 209.666 343.62 207.502 343.433C205.337 343.247 203.331 342.222 201.91 340.579L186.21 322.349C186.21 322.349 217.86 308.719 223.71 297.439C229.56 286.159 222.8 283.589 222.8 283.589L237.69 266.669L279.3 278.189Z" fill="#9468B4"/>
<path d="M258.03 212.549C258.03 212.549 234.03 207.239 200.24 174.759C166.45 142.279 150.59 99.1089 146.5 99.3489C142.41 99.5889 124.31 91.1789 89.9698 165.869C55.6298 240.559 69.1598 257.869 75.9698 257.769C82.7798 257.669 129.19 244.699 158.17 247.989C187.15 251.279 224.4 266.389 224.4 266.389L258.03 212.549Z" fill="#9468B4"/>
<path d="M309.02 253.259L300.83 268.829L297.16 275.829C294.737 280.437 290.639 283.939 285.71 285.614C280.781 287.288 275.398 287.008 270.67 284.829L219.22 266.899L249.22 198.499L300.62 225.889C305.348 228.419 308.885 232.716 310.459 237.843C312.032 242.971 311.515 248.512 309.02 253.259Z" fill="#9468B4"/>
<g opacity="0.4">
<path opacity="0.4" d="M309.02 253.259L300.83 268.829L297.16 275.829C294.737 280.437 290.639 283.939 285.71 285.614C280.781 287.288 275.398 287.008 270.67 284.829L219.22 266.899L249.22 198.499L300.62 225.889C305.348 228.419 308.885 232.716 310.459 237.843C312.032 242.971 311.515 248.512 309.02 253.259Z" fill="black"/>
</g>
<path d="M92.7102 167.229C74.4402 207.689 66.8302 243.749 75.7102 247.759C84.5902 251.769 106.62 222.229 124.89 181.759C143.16 141.289 150.77 105.249 141.89 101.229C133.01 97.2087 110.98 126.769 92.7102 167.229Z" fill="#9468B4"/>
<g opacity="0.5">
<path opacity="0.5" d="M92.7102 167.229C74.4402 207.689 66.8302 243.749 75.7102 247.759C84.5902 251.769 106.62 222.229 124.89 181.759C143.16 141.289 150.77 105.249 141.89 101.229C133.01 97.2087 110.98 126.769 92.7102 167.229Z" fill="black"/>
</g>
<path d="M313.44 275.759L299.49 271.379L308.12 254.979L318.58 261.479L313.44 275.759Z" fill="#9468B4"/>
<g opacity="0.6">
<path opacity="0.6" d="M308.12 254.979L299.49 271.379L302.36 272.279L309.37 255.749L308.12 254.979Z" fill="black"/>
</g>
<path d="M298.5 258.759C298.3 259.209 291.339 256.509 282.959 252.759C274.579 249.009 267.959 245.529 268.149 245.079C268.339 244.629 275.31 247.339 283.7 251.129C292.09 254.919 298.71 258.309 298.5 258.759Z" fill="#9468B4"/>
<path d="M302.8 248.989C302.58 249.429 296.28 246.779 288.73 243.059C281.18 239.339 275.24 235.969 275.46 235.519C275.68 235.069 281.97 237.729 289.52 241.449C297.07 245.169 303.02 248.539 302.8 248.989Z" fill="#9468B4"/>
<path d="M293.1 269.009C293.03 269.249 291.37 268.869 288.73 268.009C287.41 267.599 285.84 267.079 284.11 266.489C282.38 265.899 280.61 264.959 278.7 264.089C271.07 260.549 265.24 257.089 265.43 256.669C265.62 256.249 271.89 258.959 279.43 262.469C281.33 263.329 283.09 264.269 284.75 264.959C286.41 265.649 287.9 266.259 289.15 266.819C291.65 267.969 293.17 268.769 293.1 269.009Z" fill="#9468B4"/>
<path d="M129.959 158.239C129.959 158.239 109.099 145.299 97.6894 173.489C86.2794 201.679 108.219 206.309 108.219 206.309C117.694 191.389 125.013 175.206 129.959 158.239Z" fill="#9468B4"/>
<g opacity="0.5">
<path opacity="0.5" d="M152.15 124.639C152.28 124.639 151.98 126.579 151.34 130.029C150.7 133.479 149.74 138.469 148.4 144.609L145.5 154.479C144.973 156.246 144.43 158.076 143.87 159.969L143.02 162.839C142.71 163.839 142.3 164.749 141.94 165.719L137.23 177.879C136.82 178.939 136.4 179.999 135.99 181.069C135.58 182.139 134.99 183.159 134.52 184.219L131.42 190.619L128.31 197.009C127.78 198.009 127.31 199.129 126.74 200.109C126.17 201.089 125.57 202.109 125 203.059L118.35 214.289C117.81 215.169 117.35 216.079 116.75 216.919L115.02 219.369L111.7 224.049L105.7 232.419C101.7 237.249 98.3601 241.059 96.0601 243.709C94.9304 245.144 93.6827 246.482 92.3301 247.709C93.2702 246.148 94.3407 244.67 95.5301 243.289C97.7501 240.459 100.88 236.499 104.72 231.629L110.47 223.199L113.69 218.509C114.25 217.709 114.81 216.889 115.38 216.059C115.95 215.229 116.38 214.319 116.93 213.429L123.5 202.209L125.21 199.269C125.8 198.269 126.21 197.269 126.76 196.189L129.84 189.839C130.84 187.689 131.91 185.579 132.93 183.489C133.41 182.489 133.99 181.429 134.39 180.369L135.64 177.209L140.42 165.209C140.79 164.209 141.21 163.319 141.53 162.359C141.85 161.399 142.12 160.459 142.41 159.519L144.11 154.089L147.18 144.339L150.65 129.939C150.998 128.133 151.5 126.36 152.15 124.639Z" fill="black"/>
</g>
<g opacity="0.4">
<path opacity="0.4" d="M191.189 320.109C193.099 323.569 195.039 327.109 197.849 329.839C200.659 332.569 204.499 334.509 208.499 334.109C212.499 333.709 216.149 330.449 216.189 326.509C218.069 327.919 220.959 327.159 222.519 325.389C224.079 323.619 224.589 321.169 224.769 318.819C227.329 320.329 230.889 319.139 232.599 316.709C233.385 315.443 233.881 314.02 234.054 312.54C234.227 311.061 234.072 309.561 233.599 308.149C232.625 305.337 231.24 302.685 229.489 300.279C231.489 300.439 233.549 300.579 235.309 299.689C237.069 298.799 238.309 296.459 237.239 294.779C236.537 293.841 235.516 293.19 234.369 292.949C231.279 291.949 229.119 291.209 225.899 291.579C225.159 291.579 227.189 300.059 207.019 311.639C195.049 318.489 191.189 320.109 191.189 320.109Z" fill="black"/>
</g>
<path d="M236.61 332.309C236.61 332.399 235.26 332.139 233.08 332.199C230.247 332.267 227.461 332.935 224.906 334.161C222.351 335.387 220.085 337.142 218.26 339.309C216.85 340.969 216.26 342.179 216.13 342.129C216.213 341.817 216.345 341.52 216.52 341.249C216.948 340.487 217.433 339.758 217.97 339.069C219.768 336.788 222.064 334.949 224.684 333.694C227.303 332.438 230.175 331.801 233.08 331.829C233.952 331.834 234.822 331.915 235.68 332.069C236.002 332.093 236.316 332.175 236.61 332.309Z" fill="#EB996E"/>
<path d="M192.5 314.699C195.75 317.819 197.97 321.269 201.38 324.409C202.93 325.839 205.38 328.539 207.38 328.899C209.38 329.259 210.78 328.989 211.6 327.049C212.27 325.479 211.07 323.329 210.25 322.049C208.08 318.639 206 315.979 204.38 313.329C203.61 312.089 204.6 311.829 204.96 312.409C206.52 314.029 208.86 315.409 210.26 317.199C212.18 319.609 212.52 322.819 217.54 321.799C218.211 321.69 218.848 321.427 219.4 321.029C221.29 319.579 221.4 317.029 220.58 315.029C219.872 313.485 218.927 312.061 217.78 310.809C219.92 313.219 222.25 315.809 225.65 316.029C226.61 316.145 227.583 315.961 228.434 315.5C229.285 315.04 229.972 314.327 230.4 313.459C231.4 311.179 229.97 308.969 228.52 307.189C225.953 304.024 223.098 301.105 219.99 298.469C218.829 297.494 217.366 296.953 215.85 296.939C214.09 296.939 211.85 297.259 210.85 298.779C210.279 299.512 209.863 300.354 209.627 301.253C209.392 302.152 209.342 303.09 209.48 304.009C209.48 304.009 205.08 301.779 201.54 304.109C199.361 305.64 197.795 307.893 197.12 310.469L192.5 314.699Z" fill="#FFBE9D"/>
<path d="M215.95 295.979C215.246 295.162 214.81 294.149 214.699 293.076C214.588 292.004 214.808 290.923 215.33 289.979C216.08 288.509 217.02 287.079 217.98 286.759C222.17 285.349 240.49 288.519 240.32 292.579C240.15 296.639 238.81 298.579 228.88 297.149C227.13 296.899 224.39 296.559 224.39 296.559L221.99 300.159L215.95 295.979Z" fill="#FFBE9D"/>
<path d="M219.23 312.999C216.825 309.035 213.32 305.855 209.14 303.849C209.822 303.959 210.478 304.189 211.08 304.529C214.09 305.984 216.617 308.276 218.36 311.129C218.763 311.693 219.058 312.327 219.23 312.999Z" fill="#EB996E"/>
<path d="M222.309 300.509C222.219 300.589 221.009 299.609 219.359 298.599C218.669 298.162 217.955 297.764 217.219 297.409C216.649 297.149 216.269 297.079 216.279 296.999C216.289 296.919 216.709 296.879 217.339 297.069C218.151 297.329 218.924 297.696 219.639 298.159C221.329 299.189 222.439 300.399 222.309 300.509Z" fill="#EB996E"/>
<path d="M225.39 296.729C224.198 296.868 222.99 296.731 221.86 296.329C221.033 296.076 220.265 295.661 219.6 295.109C219.1 294.679 218.89 294.329 218.94 294.279C219.902 294.901 220.932 295.411 222.01 295.799C223.156 296.033 224.285 296.344 225.39 296.729Z" fill="#EB996E"/>
<path d="M207.59 318.029C206.959 317.367 206.399 316.639 205.92 315.859C204.778 314.012 203.335 312.369 201.65 310.999C199.904 309.722 197.739 309.15 195.59 309.399C194.708 309.557 193.851 309.829 193.04 310.209C193.04 310.209 193.22 309.999 193.63 309.749C194.214 309.395 194.858 309.151 195.53 309.029C196.649 308.848 197.794 308.892 198.896 309.158C199.998 309.425 201.036 309.908 201.95 310.579C203.69 311.978 205.143 313.699 206.23 315.649C206.749 316.403 207.204 317.199 207.59 318.029Z" fill="#EB996E"/>
<path d="M221.6 358.529C219.134 359.053 216.635 359.411 214.12 359.599C211.62 359.961 209.097 360.148 206.57 360.159C209.04 359.635 211.542 359.277 214.06 359.089C216.558 358.732 219.077 358.545 221.6 358.529Z" fill="#EB996E"/>
<path d="M379.13 25.9492L380.26 28.0192L382.32 29.1492L380.26 30.2792L379.13 32.3392L378 30.2792L375.94 29.1492L378 28.0192L379.13 25.9492Z" fill="#9468B4"/>
<path d="M402.74 77.1191L403.87 79.1891L405.93 80.3191L403.87 81.4491L402.74 83.5091L401.61 81.4491L399.54 80.3191L401.61 79.1891L402.74 77.1191Z" fill="#9468B4"/>
<path d="M24.4 213.639L25.53 215.709L27.6 216.839L25.53 217.959L24.4 220.029L23.27 217.959L21.21 216.839L23.27 215.709L24.4 213.639Z" fill="#9468B4"/>
<path d="M348.16 38.6694L350.77 43.4394L355.54 46.0494L350.77 48.6494L348.16 53.4194L345.56 48.6494L340.79 46.0494L345.56 43.4394L348.16 38.6694Z" fill="#9468B4"/>
<path d="M45.5602 181.209L48.1602 185.959L52.9202 188.559L48.1602 191.169L45.5602 195.919L42.9602 191.169L38.2002 188.559L42.9602 185.959L45.5602 181.209Z" fill="#9468B4"/>
<path d="M409.16 294.669L411.76 299.429L416.51 302.029L411.76 304.629L409.16 309.389L406.56 304.629L401.8 302.029L406.56 299.429L409.16 294.669Z" fill="#9468B4"/>
</svg>
