<svg width="316" height="413" viewBox="0 0 316 413" fill="none" xmlns="http://www.w3.org/2000/svg">
<mask id="path-1-outside-1" maskUnits="userSpaceOnUse" x="101.276" y="71.0312" width="163" height="342" fill="black">
<rect fill="white" x="101.276" y="71.0312" width="163" height="342"/>
<path d="M244.698 72.3871H245.351C245.987 72.3916 246.623 72.438 247.253 72.526C249.755 72.8359 252.163 73.6688 254.322 74.9703C255.927 75.9057 257.379 77.0813 258.628 78.4563C260.139 80.083 261.352 81.9636 262.211 84.0116C263.182 86.4435 263.655 89.0459 263.6 91.664V100.539C263.6 125.649 263.6 161.953 263.669 206.84C263.739 251.726 263.669 305.141 263.669 364.471V392.706C263.7 394.647 263.457 396.583 262.947 398.456C262.42 400.336 261.61 402.125 260.544 403.761C259.453 405.398 258.129 406.867 256.614 408.122C253.514 410.614 249.711 412.071 245.739 412.289C241.781 412.4 237.865 412.289 233.893 412.289H209.963H160.715H122.814C118.466 412.53 114.158 411.34 110.551 408.9C106.959 406.411 104.323 402.771 103.079 398.581C102.484 396.51 102.217 394.36 102.287 392.206V385.859C102.287 377.406 102.287 369.008 102.287 360.666C102.287 344 102.287 327.584 102.287 311.418C102.287 279.128 102.287 247.977 102.287 218.367C102.287 188.757 102.287 160.494 102.287 134.107C102.287 120.913 102.287 108.186 102.287 95.9277V91.3585C102.287 90.5946 102.287 89.8308 102.398 89.0669C102.51 88.3031 102.579 87.5531 102.773 86.8309C103.451 83.8935 104.811 81.1574 106.745 78.8451C108.637 76.603 111.011 74.8177 113.69 73.6232C116.319 72.496 119.163 71.9557 122.023 72.0399H150.216C151.533 71.9691 152.836 72.3352 153.924 73.0815C154.986 73.8292 155.791 74.8866 156.229 76.1092C156.587 77.3153 156.714 78.578 156.604 79.8312V81.6645C156.569 82.2611 156.569 82.8594 156.604 83.4561C156.75 84.6199 157.233 85.7157 157.993 86.6087C158.742 87.4906 159.747 88.1169 160.868 88.4003C161.424 88.5251 161.993 88.5811 162.562 88.5669H171.104H195.936H206.894C207.755 88.5669 208.644 88.5669 209.463 88.5669C210.281 88.4696 211.068 88.1947 211.769 87.7614C212.439 87.3336 213.017 86.7768 213.47 86.1236C213.923 85.4703 214.242 84.7335 214.407 83.956C214.535 83.2039 214.586 82.4408 214.56 81.6784V79.4146C214.53 78.6817 214.563 77.9476 214.657 77.2202C214.778 76.5136 215.017 75.8327 215.366 75.2064C216.029 73.9965 217.095 73.0576 218.379 72.5538C219.585 72.1699 220.856 72.0329 222.115 72.151H234.337H241.851H244.406C244.406 72.151 243.545 72.151 241.851 72.151H234.337H222.379C221.138 72.037 219.886 72.174 218.699 72.5538C217.464 73.0568 216.439 73.9688 215.796 75.137C215.456 75.751 215.222 76.4176 215.102 77.1091C215.011 77.8228 214.983 78.5432 215.019 79.2618V81.5256C215.054 82.306 215.008 83.0881 214.88 83.8588C214.7 84.6653 214.362 85.4281 213.885 86.1028C213.408 86.7775 212.802 87.3507 212.102 87.7892C211.379 88.2462 210.563 88.5356 209.713 88.6364C208.838 88.7197 207.991 88.6364 207.116 88.6364H162.854C162.257 88.6562 161.66 88.6002 161.076 88.4697C159.891 88.1702 158.829 87.5102 158.035 86.5809C157.267 85.7083 156.753 84.6419 156.549 83.4977C156.508 82.8873 156.508 82.2749 156.549 81.6645V79.8868C156.643 78.6704 156.516 77.447 156.174 76.2758C155.764 75.1176 155.001 74.117 153.993 73.4148C152.965 72.7047 151.727 72.3622 150.48 72.4426H122.286C119.413 72.3163 116.549 72.8532 113.917 74.0116C111.285 75.1701 108.954 76.919 107.107 79.1229C105.225 81.3907 103.902 84.0691 103.246 86.942C103.051 87.6642 102.996 88.3308 102.871 89.1364C102.746 89.9419 102.773 90.6224 102.76 91.3863V95.9972C102.76 108.247 102.76 120.973 102.76 134.176V392.29C102.697 394.391 102.959 396.49 103.537 398.512C104.745 402.58 107.302 406.116 110.787 408.539C114.309 410.92 118.514 412.081 122.759 411.844H160.715H209.963H233.948C237.906 411.844 241.878 411.844 245.767 411.844C249.637 411.62 253.338 410.187 256.35 407.747C257.821 406.522 259.108 405.091 260.169 403.498C261.216 401.908 262.008 400.165 262.516 398.331C263.018 396.523 263.256 394.652 263.225 392.776V387.068C263.225 379.466 263.225 371.957 263.225 364.541C263.225 305.21 263.225 251.782 263.308 206.909C263.391 162.036 263.391 125.718 263.405 100.608V91.6918C263.539 86.8253 261.782 82.0962 258.503 78.4979C257.264 77.1327 255.827 75.9621 254.239 75.0259C252.099 73.7192 249.711 72.8726 247.225 72.5399C246.596 72.4392 245.96 72.3835 245.323 72.3732L244.698 72.3871Z"/>
</mask>
<path d="M244.698 72.3871H245.351C245.987 72.3916 246.623 72.438 247.253 72.526C249.755 72.8359 252.163 73.6688 254.322 74.9703C255.927 75.9057 257.379 77.0813 258.628 78.4563C260.139 80.083 261.352 81.9636 262.211 84.0116C263.182 86.4435 263.655 89.0459 263.6 91.664V100.539C263.6 125.649 263.6 161.953 263.669 206.84C263.739 251.726 263.669 305.141 263.669 364.471V392.706C263.7 394.647 263.457 396.583 262.947 398.456C262.42 400.336 261.61 402.125 260.544 403.761C259.453 405.398 258.129 406.867 256.614 408.122C253.514 410.614 249.711 412.071 245.739 412.289C241.781 412.4 237.865 412.289 233.893 412.289H209.963H160.715H122.814C118.466 412.53 114.158 411.34 110.551 408.9C106.959 406.411 104.323 402.771 103.079 398.581C102.484 396.51 102.217 394.36 102.287 392.206V385.859C102.287 377.406 102.287 369.008 102.287 360.666C102.287 344 102.287 327.584 102.287 311.418C102.287 279.128 102.287 247.977 102.287 218.367C102.287 188.757 102.287 160.494 102.287 134.107C102.287 120.913 102.287 108.186 102.287 95.9277V91.3585C102.287 90.5946 102.287 89.8308 102.398 89.0669C102.51 88.3031 102.579 87.5531 102.773 86.8309C103.451 83.8935 104.811 81.1574 106.745 78.8451C108.637 76.603 111.011 74.8177 113.69 73.6232C116.319 72.496 119.163 71.9557 122.023 72.0399H150.216C151.533 71.9691 152.836 72.3352 153.924 73.0815C154.986 73.8292 155.791 74.8866 156.229 76.1092C156.587 77.3153 156.714 78.578 156.604 79.8312V81.6645C156.569 82.2611 156.569 82.8594 156.604 83.4561C156.75 84.6199 157.233 85.7157 157.993 86.6087C158.742 87.4906 159.747 88.1169 160.868 88.4003C161.424 88.5251 161.993 88.5811 162.562 88.5669H171.104H195.936H206.894C207.755 88.5669 208.644 88.5669 209.463 88.5669C210.281 88.4696 211.068 88.1947 211.769 87.7614C212.439 87.3336 213.017 86.7768 213.47 86.1236C213.923 85.4703 214.242 84.7335 214.407 83.956C214.535 83.2039 214.586 82.4408 214.56 81.6784V79.4146C214.53 78.6817 214.563 77.9476 214.657 77.2202C214.778 76.5136 215.017 75.8327 215.366 75.2064C216.029 73.9965 217.095 73.0576 218.379 72.5538C219.585 72.1699 220.856 72.0329 222.115 72.151H234.337H241.851H244.406C244.406 72.151 243.545 72.151 241.851 72.151H234.337H222.379C221.138 72.037 219.886 72.174 218.699 72.5538C217.464 73.0568 216.439 73.9688 215.796 75.137C215.456 75.751 215.222 76.4176 215.102 77.1091C215.011 77.8228 214.983 78.5432 215.019 79.2618V81.5256C215.054 82.306 215.008 83.0881 214.88 83.8588C214.7 84.6653 214.362 85.4281 213.885 86.1028C213.408 86.7775 212.802 87.3507 212.102 87.7892C211.379 88.2462 210.563 88.5356 209.713 88.6364C208.838 88.7197 207.991 88.6364 207.116 88.6364H162.854C162.257 88.6562 161.66 88.6002 161.076 88.4697C159.891 88.1702 158.829 87.5102 158.035 86.5809C157.267 85.7083 156.753 84.6419 156.549 83.4977C156.508 82.8873 156.508 82.2749 156.549 81.6645V79.8868C156.643 78.6704 156.516 77.447 156.174 76.2758C155.764 75.1176 155.001 74.117 153.993 73.4148C152.965 72.7047 151.727 72.3622 150.48 72.4426H122.286C119.413 72.3163 116.549 72.8532 113.917 74.0116C111.285 75.1701 108.954 76.919 107.107 79.1229C105.225 81.3907 103.902 84.0691 103.246 86.942C103.051 87.6642 102.996 88.3308 102.871 89.1364C102.746 89.9419 102.773 90.6224 102.76 91.3863V95.9972C102.76 108.247 102.76 120.973 102.76 134.176V392.29C102.697 394.391 102.959 396.49 103.537 398.512C104.745 402.58 107.302 406.116 110.787 408.539C114.309 410.92 118.514 412.081 122.759 411.844H160.715H209.963H233.948C237.906 411.844 241.878 411.844 245.767 411.844C249.637 411.62 253.338 410.187 256.35 407.747C257.821 406.522 259.108 405.091 260.169 403.498C261.216 401.908 262.008 400.165 262.516 398.331C263.018 396.523 263.256 394.652 263.225 392.776V387.068C263.225 379.466 263.225 371.957 263.225 364.541C263.225 305.21 263.225 251.782 263.308 206.909C263.391 162.036 263.391 125.718 263.405 100.608V91.6918C263.539 86.8253 261.782 82.0962 258.503 78.4979C257.264 77.1327 255.827 75.9621 254.239 75.0259C252.099 73.7192 249.711 72.8726 247.225 72.5399C246.596 72.4392 245.96 72.3835 245.323 72.3732L244.698 72.3871Z" fill="white"/>
<path d="M244.698 72.3871H245.351C245.987 72.3916 246.623 72.438 247.253 72.526C249.755 72.8359 252.163 73.6688 254.322 74.9703C255.927 75.9057 257.379 77.0813 258.628 78.4563C260.139 80.083 261.352 81.9636 262.211 84.0116C263.182 86.4435 263.655 89.0459 263.6 91.664V100.539C263.6 125.649 263.6 161.953 263.669 206.84C263.739 251.726 263.669 305.141 263.669 364.471V392.706C263.7 394.647 263.457 396.583 262.947 398.456C262.42 400.336 261.61 402.125 260.544 403.761C259.453 405.398 258.129 406.867 256.614 408.122C253.514 410.614 249.711 412.071 245.739 412.289C241.781 412.4 237.865 412.289 233.893 412.289H209.963H160.715H122.814C118.466 412.53 114.158 411.34 110.551 408.9C106.959 406.411 104.323 402.771 103.079 398.581C102.484 396.51 102.217 394.36 102.287 392.206V385.859C102.287 377.406 102.287 369.008 102.287 360.666C102.287 344 102.287 327.584 102.287 311.418C102.287 279.128 102.287 247.977 102.287 218.367C102.287 188.757 102.287 160.494 102.287 134.107C102.287 120.913 102.287 108.186 102.287 95.9277V91.3585C102.287 90.5946 102.287 89.8308 102.398 89.0669C102.51 88.3031 102.579 87.5531 102.773 86.8309C103.451 83.8935 104.811 81.1574 106.745 78.8451C108.637 76.603 111.011 74.8177 113.69 73.6232C116.319 72.496 119.163 71.9557 122.023 72.0399H150.216C151.533 71.9691 152.836 72.3352 153.924 73.0815C154.986 73.8292 155.791 74.8866 156.229 76.1092C156.587 77.3153 156.714 78.578 156.604 79.8312V81.6645C156.569 82.2611 156.569 82.8594 156.604 83.4561C156.75 84.6199 157.233 85.7157 157.993 86.6087C158.742 87.4906 159.747 88.1169 160.868 88.4003C161.424 88.5251 161.993 88.5811 162.562 88.5669H171.104H195.936H206.894C207.755 88.5669 208.644 88.5669 209.463 88.5669C210.281 88.4696 211.068 88.1947 211.769 87.7614C212.439 87.3336 213.017 86.7768 213.47 86.1236C213.923 85.4703 214.242 84.7335 214.407 83.956C214.535 83.2039 214.586 82.4408 214.56 81.6784V79.4146C214.53 78.6817 214.563 77.9476 214.657 77.2202C214.778 76.5136 215.017 75.8327 215.366 75.2064C216.029 73.9965 217.095 73.0576 218.379 72.5538C219.585 72.1699 220.856 72.0329 222.115 72.151H234.337H241.851H244.406C244.406 72.151 243.545 72.151 241.851 72.151H234.337H222.379C221.138 72.037 219.886 72.174 218.699 72.5538C217.464 73.0568 216.439 73.9688 215.796 75.137C215.456 75.751 215.222 76.4176 215.102 77.1091C215.011 77.8228 214.983 78.5432 215.019 79.2618V81.5256C215.054 82.306 215.008 83.0881 214.88 83.8588C214.7 84.6653 214.362 85.4281 213.885 86.1028C213.408 86.7775 212.802 87.3507 212.102 87.7892C211.379 88.2462 210.563 88.5356 209.713 88.6364C208.838 88.7197 207.991 88.6364 207.116 88.6364H162.854C162.257 88.6562 161.66 88.6002 161.076 88.4697C159.891 88.1702 158.829 87.5102 158.035 86.5809C157.267 85.7083 156.753 84.6419 156.549 83.4977C156.508 82.8873 156.508 82.2749 156.549 81.6645V79.8868C156.643 78.6704 156.516 77.447 156.174 76.2758C155.764 75.1176 155.001 74.117 153.993 73.4148C152.965 72.7047 151.727 72.3622 150.48 72.4426H122.286C119.413 72.3163 116.549 72.8532 113.917 74.0116C111.285 75.1701 108.954 76.919 107.107 79.1229C105.225 81.3907 103.902 84.0691 103.246 86.942C103.051 87.6642 102.996 88.3308 102.871 89.1364C102.746 89.9419 102.773 90.6224 102.76 91.3863V95.9972C102.76 108.247 102.76 120.973 102.76 134.176V392.29C102.697 394.391 102.959 396.49 103.537 398.512C104.745 402.58 107.302 406.116 110.787 408.539C114.309 410.92 118.514 412.081 122.759 411.844H160.715H209.963H233.948C237.906 411.844 241.878 411.844 245.767 411.844C249.637 411.62 253.338 410.187 256.35 407.747C257.821 406.522 259.108 405.091 260.169 403.498C261.216 401.908 262.008 400.165 262.516 398.331C263.018 396.523 263.256 394.652 263.225 392.776V387.068C263.225 379.466 263.225 371.957 263.225 364.541C263.225 305.21 263.225 251.782 263.308 206.909C263.391 162.036 263.391 125.718 263.405 100.608V91.6918C263.539 86.8253 261.782 82.0962 258.503 78.4979C257.264 77.1327 255.827 75.9621 254.239 75.0259C252.099 73.7192 249.711 72.8726 247.225 72.5399C246.596 72.4392 245.96 72.3835 245.323 72.3732L244.698 72.3871Z" stroke="white" stroke-width="0.6" mask="url(#path-1-outside-1)"/>
<path d="M229.375 100.485L229.375 100.783C232.324 101.14 235.298 101.261 238.267 101.145C241.232 101.261 244.201 101.14 247.146 100.783V100.485C244.201 100.127 241.232 100.006 238.267 100.122C235.298 100.006 232.324 100.127 229.375 100.485Z" fill="white" stroke="white" stroke-width="0.3"/>
<path d="M245.327 103.714L245.327 103.416C242.378 103.05 239.403 102.929 236.434 103.054C233.465 102.929 230.49 103.05 227.541 103.416L227.542 103.714C230.491 104.072 233.465 104.193 236.434 104.076C239.403 104.193 242.377 104.072 245.327 103.714Z" fill="white" stroke="white" stroke-width="0.3"/>
<path d="M228.459 106.152L228.459 106.45C231.408 106.808 234.382 106.929 237.351 106.812C240.316 106.929 243.285 106.808 246.23 106.45V106.152C243.285 105.794 240.316 105.673 237.351 105.79C234.382 105.673 231.408 105.794 228.459 106.152Z" fill="white" stroke="white" stroke-width="0.3"/>
<path d="M197.124 129.271L197.228 128.99L197.895 129.185L197.903 129.187L197.903 129.187L199.833 129.868L199.84 129.87L199.84 129.87C200.662 130.205 201.694 130.651 202.879 131.265C204.229 131.95 205.541 132.708 206.809 133.536C206.809 133.536 206.809 133.536 206.809 133.536L206.727 133.662C210.205 135.928 213.335 138.688 216.019 141.856L197.124 129.271ZM197.124 129.271L197.735 129.549L197.735 129.549L197.744 129.552L199.644 130.273L197.124 129.271ZM143.943 146.917C147.321 141.265 152.205 136.663 158.049 133.628L158.05 133.628C162.846 131.08 168.044 129.376 173.417 128.588C177.481 127.993 181.591 127.771 185.695 127.923L185.695 127.923C189.018 128.046 191.605 128.329 193.38 128.523L193.473 128.533L193.475 128.533L195.487 128.783L195.487 128.783L195.491 128.784L196.185 128.853L196.228 128.556C192.761 127.891 189.249 127.486 185.721 127.346C181.574 127.136 177.417 127.322 173.305 127.902C167.836 128.654 162.539 130.346 157.647 132.904C151.65 135.987 146.633 140.681 143.157 146.459L143.157 146.459L143.155 146.462C139.327 153.197 137.527 160.894 137.969 168.627L137.969 168.627C138.463 177.158 141.319 185.383 146.218 192.383C151.41 199.978 158.844 205.761 167.483 208.924L167.485 208.925C176.155 211.952 185.535 212.302 194.406 209.928L194.406 209.928C198.604 208.8 202.607 207.042 206.28 204.716L206.28 204.716C209.796 202.474 212.949 199.71 215.633 196.52C220.621 190.62 223.983 183.521 225.388 175.924C226.644 169.316 226.212 162.499 224.134 156.103C223.702 154.641 223.199 153.215 222.541 151.913C222.362 151.559 222.189 151.202 222.016 150.846C221.563 149.914 221.113 148.989 220.578 148.14L143.943 146.917Z" fill="white" stroke="white" stroke-width="0.3"/>
<path d="M208.303 186.233L208.032 186.351C207.882 186.122 207.764 185.873 207.683 185.611L206.852 183.547L206.852 183.546C206.785 183.377 206.715 183.201 206.643 183.017C205.95 181.255 205.001 178.844 203.621 176.058L203.62 176.056C201.904 172.424 199.527 169.142 196.612 166.38C194.884 164.797 192.909 163.507 190.765 162.56C188.467 161.576 185.971 161.142 183.476 161.295C178.602 161.744 174.048 163.914 170.628 167.416C167.848 170.299 165.689 173.723 164.286 177.475L164.286 177.476C163.313 180.011 162.554 182.623 162.015 185.285L162.015 185.285C161.936 185.668 161.865 186.023 161.799 186.349C161.716 186.765 161.641 187.135 161.572 187.461C161.536 187.725 161.473 187.984 161.385 188.235L161.095 188.206C161.057 187.938 161.056 187.666 161.093 187.397C161.094 187.137 161.134 186.818 161.19 186.452C161.22 186.262 161.255 186.051 161.293 185.827C161.328 185.621 161.364 185.402 161.401 185.176L161.401 185.176C161.839 182.453 162.539 179.779 163.491 177.191C164.866 173.293 167.049 169.73 169.898 166.736L169.899 166.735C173.464 163.038 178.239 160.745 183.353 160.273L183.358 160.273L183.358 160.273C186.021 160.118 188.682 160.598 191.122 161.674L191.122 161.674C193.368 162.668 195.43 164.034 197.219 165.716L197.22 165.717C200.204 168.565 202.61 171.961 204.308 175.721C204.308 175.721 204.308 175.721 204.309 175.721L204.172 175.783M208.303 186.233L207.213 183.408C206.344 180.811 205.328 178.265 204.172 175.783M208.303 186.233C208.24 185.977 208.159 185.726 208.062 185.481C207.968 185.205 207.869 184.904 207.759 184.57C207.64 184.209 207.508 183.81 207.356 183.36L208.303 186.233ZM204.172 175.783C202.482 172.041 200.086 168.66 197.117 165.825C195.339 164.155 193.292 162.798 191.061 161.812C188.643 160.745 186.006 160.269 183.367 160.423C178.289 160.891 173.547 163.168 170.007 166.839C167.172 169.818 165 173.363 163.632 177.241C162.683 179.821 161.986 182.486 161.549 185.199C161.512 185.43 161.475 185.648 161.441 185.854C161.331 186.504 161.243 187.028 161.243 187.408C161.228 187.518 161.219 187.628 161.216 187.739M204.172 175.783L161.216 187.739M161.216 187.739C161.186 187.873 161.147 188.006 161.102 188.136L161.243 188.185L161.392 188.164C161.373 188.029 161.364 187.893 161.366 187.757C161.39 187.651 161.409 187.544 161.424 187.435C161.494 187.109 161.568 186.738 161.652 186.322C161.717 185.995 161.789 185.64 161.868 185.255L161.216 187.739Z" fill="white" stroke="white" stroke-width="0.3"/>
<path d="M184.547 141.483H184.42L184.399 141.609C184.388 141.674 184.418 141.723 184.44 141.748C184.46 141.771 184.484 141.787 184.5 141.796C184.533 141.815 184.575 141.832 184.618 141.847C184.681 141.87 184.767 141.897 184.869 141.929C184.905 141.941 184.944 141.953 184.984 141.965C185.294 142.063 185.734 142.21 186.26 142.449C187.812 143.226 189.077 144.477 189.872 146.021L189.872 146.021L189.872 146.023C190.424 147.066 190.731 148.221 190.772 149.401C190.8 150.741 190.431 152.06 189.712 153.191L189.711 153.192C188.888 154.497 187.713 155.544 186.32 156.21C184.93 156.875 183.379 157.134 181.848 156.956C180.334 156.654 178.933 155.938 177.802 154.886C176.67 153.833 175.853 152.486 175.442 150.996L175.442 150.995C175.075 149.696 175.075 148.32 175.442 147.021L175.442 147.021C175.762 145.882 176.315 144.823 177.066 143.909L177.066 143.909L177.067 143.907C178.152 142.547 179.609 141.531 181.261 140.984C181.853 140.791 182.324 140.671 182.646 140.599C182.807 140.563 182.93 140.539 183.013 140.524C183.055 140.517 183.086 140.512 183.107 140.509L183.13 140.505L183.135 140.504L183.137 140.504L183.137 140.504L183.137 140.504L183.137 140.504L183.116 140.205H183.116H183.116H183.116H183.116H183.116H183.116H183.116H183.116H183.116H183.115H183.115H183.115H183.115H183.115H183.115H183.114H183.108H183.083H182.985H182.603V140.205L182.599 140.206C182.088 140.217 181.581 140.294 181.09 140.433C179.278 140.936 177.657 141.967 176.434 143.395C175.568 144.363 174.914 145.503 174.516 146.74L174.516 146.74L174.514 146.745C174.103 148.206 174.103 149.753 174.514 151.214C174.965 152.892 175.877 154.409 177.147 155.594C178.417 156.779 179.994 157.585 181.699 157.919L181.699 157.919L181.709 157.92C183.432 158.136 185.18 157.852 186.746 157.1C188.311 156.349 189.627 155.163 190.535 153.684C191.341 152.385 191.74 150.876 191.683 149.349L191.683 149.349L191.682 149.346C191.589 147.751 191.058 146.212 190.149 144.899C189.239 143.585 187.985 142.547 186.524 141.899L186.524 141.899C186.068 141.699 185.589 141.56 185.097 141.485L185.086 141.483H185.075H185.073H185.071H185.069H185.067H185.065H185.063H185.061H185.059H185.057H185.055H185.053H185.051H185.049H185.047H185.045H185.043H185.041H185.039H185.037H185.035H185.033H185.031H185.029H185.027H185.025H185.023H185.021H185.019H185.017H185.015H185.013H185.012H185.01H185.008H185.006H185.004H185.002H185H184.998H184.996H184.994H184.993H184.991H184.989H184.987H184.985H184.983H184.981H184.98H184.978H184.976H184.974H184.972H184.97H184.969H184.967H184.965H184.963H184.961H184.96H184.958H184.956H184.954H184.952H184.951H184.949H184.947H184.945H184.943H184.942H184.94H184.938H184.936H184.935H184.933H184.931H184.929H184.928H184.926H184.924H184.922H184.921H184.919H184.917H184.916H184.914H184.912H184.911H184.909H184.907H184.905H184.904H184.902H184.9H184.899H184.897H184.895H184.894H184.892H184.89H184.889H184.887H184.885H184.884H184.882H184.881H184.879H184.877H184.876H184.874H184.873H184.871H184.869H184.868H184.866H184.865H184.863H184.861H184.86H184.858H184.857H184.855H184.854H184.852H184.85H184.849H184.847H184.846H184.844H184.843H184.841H184.84H184.838H184.837H184.835H184.834H184.832H184.831H184.829H184.828H184.826H184.825H184.823H184.822H184.82H184.819H184.817H184.816H184.814H184.813H184.811H184.81H184.808H184.807H184.806H184.804H184.803H184.801H184.8H184.798H184.797H184.796H184.794H184.793H184.791H184.79H184.789H184.787H184.786H184.784H184.783H184.782H184.78H184.779H184.778H184.776H184.775H184.774H184.772H184.771H184.77H184.768H184.767H184.766H184.764H184.763H184.762H184.76H184.759H184.758H184.756H184.755H184.754H184.753H184.751H184.75H184.749H184.747H184.746H184.745H184.744H184.742H184.741H184.74H184.739H184.737H184.736H184.735H184.734H184.733H184.731H184.73H184.729H184.728H184.726H184.725H184.724H184.723H184.722H184.721H184.719H184.718H184.717H184.716H184.715H184.714H184.712H184.711H184.71H184.709H184.708H184.707H184.706H184.704H184.703H184.702H184.701H184.7H184.699H184.698H184.697H184.696H184.694H184.693H184.692H184.691H184.69H184.689H184.688H184.687H184.686H184.685H184.684H184.683H184.682H184.681H184.68H184.679H184.678H184.676H184.675H184.674H184.673H184.672H184.671H184.67H184.669H184.668H184.667H184.666H184.665H184.665H184.664H184.663H184.662H184.661H184.66H184.659H184.658H184.657H184.656H184.655H184.654H184.653H184.652H184.651H184.65H184.649H184.649H184.648H184.647H184.646H184.645H184.644H184.643H184.642H184.641H184.641H184.64H184.639H184.638H184.637H184.636H184.635H184.635H184.634H184.633H184.632H184.631H184.63H184.63H184.629H184.628H184.627H184.626H184.626H184.625H184.624H184.623H184.622H184.622H184.621H184.62H184.619H184.619H184.618H184.617H184.616H184.615H184.615H184.614H184.613H184.613H184.612H184.611H184.61H184.61H184.609H184.608H184.608H184.607H184.606H184.605H184.605H184.604H184.603H184.603H184.602H184.601H184.601H184.6H184.599H184.599H184.598H184.597H184.597H184.596H184.596H184.595H184.594H184.594H184.593H184.592H184.592H184.591H184.591H184.59H184.589H184.589H184.588H184.588H184.587H184.587H184.586H184.585H184.585H184.584H184.584H184.583H184.583H184.582H184.582H184.581H184.581H184.58H184.58H184.579H184.579H184.578H184.578H184.577H184.577H184.576H184.576H184.575H184.575H184.574H184.574H184.573H184.573H184.572H184.572H184.571H184.571H184.57H184.57H184.57H184.569H184.569H184.568H184.568H184.567H184.567H184.567H184.566H184.566H184.565H184.565H184.565H184.564H184.564H184.564H184.563H184.563H184.563H184.562H184.562H184.561H184.561H184.561H184.56H184.56H184.56H184.559H184.559H184.559H184.559H184.558H184.558H184.558H184.557H184.557H184.557H184.556H184.556H184.556H184.556H184.555H184.555H184.555H184.555H184.554H184.554H184.554H184.554H184.553H184.553H184.553H184.553H184.553H184.552H184.552H184.552H184.552H184.551H184.551H184.551H184.551H184.551H184.551H184.55H184.55H184.55H184.55H184.55H184.55H184.549H184.549H184.549H184.549H184.549H184.549H184.549H184.549H184.548H184.548H184.548H184.548H184.548H184.548H184.548H184.548H184.548H184.548H184.548H184.547H184.547H184.547H184.547H184.547H184.547H184.547H184.547H184.547H184.547H184.547H184.547H184.547H184.547H184.547Z" fill="white" stroke="white" stroke-width="0.3"/>
<path d="M226.515 237.622L226.625 237.348C226.37 237.188 226.105 237.041 225.834 236.91L225.834 236.91L225.829 236.908C224.92 236.504 223.986 236.158 223.033 235.873L223.033 235.873C219.519 234.834 215.827 234.544 212.194 235.021C209.676 235.328 207.218 236.011 204.902 237.047L204.902 237.047C204.487 237.233 204.086 237.428 203.685 237.623C202.873 238.018 202.061 238.413 201.136 238.736L201.136 238.736L201.124 238.741C199.874 239.309 198.478 239.472 197.131 239.206C195.786 238.677 194.668 237.696 193.97 236.43L193.971 236.43L193.964 236.42C193.509 235.733 192.998 235.085 192.435 234.484L192.325 234.586L192.435 234.484C191.802 233.809 190.97 233.355 190.061 233.189L190.061 233.189L190.057 233.188C189.116 233.038 188.152 233.221 187.332 233.707L187.332 233.707L187.328 233.71C186.578 234.185 185.896 234.759 185.298 235.416L185.298 235.416L185.295 235.42C184.202 236.702 182.992 237.879 181.681 238.938C181.032 239.375 180.292 239.66 179.518 239.77C178.748 239.828 177.975 239.709 177.259 239.42C175.759 238.773 174.368 237.901 173.132 236.834L173.131 236.833C171.885 235.783 170.567 234.823 169.185 233.96C167.789 233.037 166.103 232.653 164.445 232.882L164.445 232.882L164.435 232.884C162.872 233.203 161.475 234.074 160.502 235.339C160.027 235.891 159.598 236.463 159.185 237.021C159.138 237.085 159.091 237.149 159.044 237.213C158.68 237.706 158.327 238.184 157.961 238.63L157.961 238.63L157.955 238.637C157.235 239.632 156.304 240.456 155.229 241.05C154.215 241.551 153.098 241.806 151.967 241.797L151.965 241.797C150.989 241.803 150.024 241.603 149.131 241.209C148.239 240.816 147.441 240.239 146.787 239.515C145.814 238.359 145.212 236.936 145.06 235.433C144.936 234.154 145.118 232.864 145.592 231.67L145.327 231.531C145.128 231.83 144.973 232.155 144.865 232.497C144.525 233.455 144.395 234.475 144.483 235.487C144.602 237.115 145.22 238.667 146.253 239.931L146.253 239.931L146.255 239.934C146.957 240.752 147.827 241.41 148.804 241.864C149.781 242.319 150.844 242.559 151.922 242.569C153.188 242.594 154.443 242.323 155.586 241.777L155.586 241.777L155.592 241.774C156.791 241.134 157.84 240.244 158.666 239.165C159.026 238.725 159.368 238.268 159.711 237.81C159.781 237.717 159.85 237.624 159.92 237.531C160.335 236.979 160.756 236.431 161.217 235.908L161.217 235.908L161.223 235.9C162.059 234.814 163.258 234.065 164.6 233.79C166.026 233.621 167.466 233.967 168.659 234.767L168.659 234.767L168.663 234.769C169.998 235.607 171.277 236.53 172.493 237.534C173.792 238.678 175.255 239.622 176.834 240.334L176.833 240.334L176.84 240.337C177.707 240.682 178.643 240.823 179.574 240.75L179.574 240.75L179.582 240.749C180.526 240.618 181.427 240.273 182.215 239.738L182.216 239.738L182.225 239.731C183.59 238.634 184.847 237.41 185.979 236.075C186.53 235.483 187.142 234.924 187.794 234.552C188.445 234.18 189.126 234 189.821 234.15L189.825 234.15C191.255 234.426 192.101 235.61 193.031 236.911L193.057 236.948C193.983 238.244 194.991 239.632 196.759 240.092L196.759 240.093L196.767 240.094C198.318 240.407 199.928 240.224 201.369 239.572C202.237 239.235 203.056 238.839 203.844 238.457C204.293 238.24 204.732 238.028 205.164 237.834L205.165 237.834C207.395 236.811 209.762 236.118 212.192 235.777L212.193 235.776C215.72 235.275 219.312 235.486 222.757 236.398C223.956 236.729 224.894 237.046 225.514 237.28C225.833 237.434 226.169 237.549 226.515 237.622Z" fill="white" stroke="white" stroke-width="0.3"/>
<path d="M205.274 249.839C205.274 249.839 205.275 249.839 205.275 249.839C205.275 249.839 205.274 249.839 205.274 249.839C205.274 249.839 205.274 249.839 205.274 249.839ZM185.339 250.472C190.867 250.472 195.871 250.434 199.494 250.369C201.305 250.337 202.772 250.299 203.786 250.255C204.293 250.233 204.689 250.21 204.959 250.185C205.093 250.173 205.201 250.16 205.276 250.147C205.312 250.14 205.348 250.132 205.378 250.121C205.392 250.116 205.414 250.106 205.435 250.091C205.452 250.078 205.502 250.036 205.502 249.961C205.502 249.881 205.446 249.839 205.431 249.828C205.41 249.814 205.389 249.806 205.375 249.801C205.346 249.791 205.311 249.783 205.274 249.777C205.2 249.764 205.093 249.752 204.958 249.74C204.689 249.716 204.293 249.694 203.786 249.672C202.772 249.629 201.305 249.59 199.494 249.557C195.871 249.491 190.867 249.45 185.339 249.45C179.811 249.45 174.81 249.488 171.191 249.552C169.382 249.584 167.917 249.623 166.904 249.667C166.397 249.688 166.002 249.712 165.732 249.736C165.598 249.748 165.491 249.761 165.416 249.775C165.379 249.782 165.343 249.79 165.314 249.801C165.3 249.806 165.278 249.815 165.257 249.831C165.24 249.843 165.19 249.885 165.19 249.961C165.19 250.036 165.24 250.078 165.257 250.091C165.278 250.106 165.3 250.116 165.314 250.121C165.343 250.132 165.379 250.14 165.416 250.147C165.491 250.16 165.598 250.173 165.732 250.185C166.002 250.21 166.397 250.233 166.904 250.255C167.917 250.299 169.382 250.337 171.191 250.369C174.81 250.434 179.811 250.472 185.339 250.472Z" fill="white" stroke="white" stroke-width="0.3"/>
<path d="M121.526 299.109L121.825 299.113C122.245 294.905 122.43 290.677 122.381 286.448C122.565 282.218 122.514 277.98 122.228 273.755L121.929 273.75C121.499 277.962 121.309 282.196 121.359 286.429C121.166 290.655 121.222 294.889 121.526 299.109Z" fill="white" stroke="white" stroke-width="0.3"/>
<path d="M119.309 298.092C119.308 298.092 119.308 298.092 119.309 298.092L119.309 298.092ZM180.782 299.762C197.774 300.033 213.163 300.238 224.303 300.351C229.873 300.407 234.382 300.44 237.498 300.448C239.056 300.451 240.266 300.448 241.088 300.438C241.498 300.433 241.813 300.426 242.025 300.418C242.131 300.414 242.214 300.409 242.271 300.403C242.299 300.4 242.326 300.397 242.348 300.393C242.357 300.391 242.374 300.387 242.392 300.379C242.4 300.375 242.417 300.367 242.435 300.351C242.453 300.336 242.487 300.298 242.487 300.237C242.487 300.181 242.457 300.144 242.441 300.128C242.424 300.111 242.408 300.102 242.399 300.098C242.381 300.089 242.364 300.084 242.354 300.082C242.332 300.076 242.305 300.071 242.277 300.068C242.22 300.06 242.137 300.052 242.031 300.043C241.819 300.027 241.504 300.009 241.094 299.99C240.274 299.951 239.064 299.907 237.507 299.858C234.393 299.761 229.888 299.644 224.32 299.518C213.185 299.264 197.8 298.969 180.8 298.698C163.801 298.427 148.416 298.209 137.279 298.089C131.71 298.029 127.204 297.994 124.088 297.989C122.53 297.987 121.319 297.992 120.497 298.006C120.086 298.013 119.771 298.022 119.557 298.033C119.451 298.039 119.367 298.045 119.308 298.053C119.279 298.056 119.251 298.061 119.227 298.067C119.216 298.07 119.198 298.075 119.179 298.086C119.169 298.091 119.153 298.101 119.137 298.118C119.12 298.136 119.098 298.168 119.095 298.215C119.09 298.307 119.162 298.351 119.171 298.357C119.171 298.357 119.171 298.357 119.171 298.357C119.191 298.369 119.21 298.375 119.22 298.378C119.244 298.386 119.272 298.391 119.3 298.396C119.359 298.405 119.442 298.414 119.548 298.423C119.76 298.442 120.074 298.462 120.484 298.482C121.304 298.524 122.514 298.57 124.071 298.619C127.185 298.719 131.692 298.834 137.262 298.958C148.401 299.206 163.789 299.491 180.782 299.762Z" fill="white" stroke="white" stroke-width="0.3"/>
<path d="M241.765 271.798C241.765 271.798 241.765 271.798 241.765 271.798C241.765 271.798 241.765 271.798 241.765 271.798L241.765 271.798ZM182.314 273.361C198.744 273.111 213.622 272.844 224.393 272.613C229.778 272.497 234.137 272.391 237.149 272.3C238.656 272.255 239.826 272.214 240.62 272.177C241.017 272.159 241.321 272.142 241.527 272.126C241.629 272.118 241.71 272.11 241.766 272.102C241.793 272.099 241.82 272.094 241.842 272.088C241.851 272.086 241.869 272.081 241.886 272.071C241.895 272.067 241.912 272.058 241.928 272.041C241.945 272.024 241.973 271.987 241.973 271.933C241.973 271.874 241.94 271.837 241.923 271.82C241.905 271.804 241.888 271.796 241.879 271.792C241.862 271.784 241.845 271.78 241.835 271.778C241.814 271.773 241.787 271.77 241.76 271.767C241.704 271.761 241.624 271.756 241.522 271.752C241.316 271.743 241.012 271.736 240.615 271.731C239.821 271.72 238.651 271.716 237.144 271.718C234.132 271.722 229.772 271.75 224.386 271.801C213.614 271.901 198.732 272.089 182.295 272.339C165.858 272.589 150.98 272.856 140.211 273.085C134.827 273.2 130.469 273.305 127.458 273.393C125.952 273.438 124.782 273.478 123.988 273.513C123.592 273.531 123.288 273.547 123.082 273.562C122.98 273.57 122.9 273.577 122.844 273.585C122.817 273.588 122.791 273.592 122.769 273.598C122.76 273.6 122.743 273.604 122.726 273.613C122.718 273.617 122.701 273.626 122.684 273.641C122.668 273.657 122.636 273.694 122.636 273.753C122.636 273.811 122.668 273.849 122.686 273.865C122.703 273.881 122.721 273.89 122.729 273.894C122.747 273.902 122.764 273.906 122.774 273.908C122.795 273.913 122.821 273.916 122.848 273.919C122.904 273.924 122.985 273.929 123.087 273.934C123.293 273.943 123.597 273.95 123.994 273.956C124.788 273.967 125.959 273.972 127.466 273.97C130.48 273.968 134.841 273.941 140.228 273.892C151.002 273.795 165.884 273.611 182.314 273.361Z" fill="white" stroke="white" stroke-width="0.3"/>
<path d="M241.173 299.624L241.472 299.624C241.828 295 241.949 290.361 241.833 285.724C241.949 281.088 241.828 276.449 241.472 271.824L241.173 271.824C240.808 276.448 240.687 281.088 240.811 285.724C240.687 290.361 240.808 295.001 241.173 299.624Z" fill="white" stroke="white" stroke-width="0.3"/>
<path d="M136.049 282.988C136.332 282.922 136.628 282.946 136.897 283.057C137.644 283.312 138.291 283.799 138.744 284.446C139.098 284.926 139.343 285.479 139.46 286.065C139.578 286.65 139.565 287.254 139.424 287.835C139.169 288.531 138.728 289.144 138.148 289.606C137.568 290.068 136.872 290.362 136.137 290.455C135.401 290.549 134.654 290.438 133.977 290.135C133.3 289.832 132.72 289.348 132.3 288.737C132.021 288.208 131.859 287.626 131.826 287.029C131.792 286.433 131.888 285.836 132.105 285.279C132.385 284.537 132.897 283.904 133.563 283.474C134.036 283.196 134.355 283.168 134.355 283.21C133.539 283.749 132.921 284.539 132.591 285.46C132.433 285.941 132.377 286.45 132.424 286.954C132.472 287.458 132.623 287.947 132.869 288.39C133.227 288.88 133.71 289.265 134.267 289.505C134.824 289.746 135.435 289.833 136.037 289.758C136.639 289.683 137.21 289.448 137.691 289.078C138.171 288.708 138.545 288.217 138.771 287.654C138.906 287.164 138.936 286.651 138.859 286.148C138.783 285.646 138.601 285.165 138.327 284.737C137.776 283.924 136.977 283.31 136.049 282.988Z" fill="white"/>
<path d="M123.842 326.265L123.693 326.28C124.096 330.27 124.737 334.231 125.612 338.145L125.909 338.106C125.758 334.099 125.359 330.106 124.713 326.148C124.301 322.161 123.656 318.201 122.78 314.289L122.484 314.328C122.652 318.335 123.056 322.329 123.694 326.289L123.842 326.265ZM123.842 326.265C123.252 322.603 122.862 318.912 122.675 315.208L125.722 337.245C125.782 337.523 125.843 337.801 125.905 338.079L125.759 338.112L125.609 338.118C125.598 337.833 125.586 337.548 125.573 337.264C124.794 333.633 124.216 329.961 123.842 326.265Z" fill="white" stroke="white" stroke-width="0.3"/>
<path d="M236.211 315.107C236.211 315.107 236.211 315.107 236.21 315.107L236.211 315.107ZM180.061 315.483C195.582 315.483 209.634 315.441 219.805 315.375C224.891 315.342 229.007 315.303 231.852 315.26C233.275 315.238 234.38 315.216 235.13 315.193C235.505 315.181 235.792 315.169 235.986 315.157C236.083 315.151 236.159 315.145 236.213 315.138C236.238 315.135 236.264 315.131 236.285 315.126C236.294 315.124 236.311 315.119 236.329 315.11C236.338 315.106 236.355 315.097 236.372 315.08C236.389 315.063 236.417 315.027 236.417 314.971C236.417 314.92 236.392 314.884 236.375 314.866C236.359 314.849 236.342 314.839 236.333 314.834C236.315 314.824 236.297 314.819 236.287 314.817C236.265 314.811 236.24 314.807 236.214 314.803C236.16 314.796 236.084 314.79 235.987 314.783C235.792 314.771 235.505 314.758 235.13 314.746C234.38 314.722 233.275 314.699 231.852 314.677C229.007 314.634 224.891 314.595 219.805 314.563C209.633 314.499 195.582 314.46 180.061 314.46C164.541 314.46 150.489 314.502 140.317 314.568C135.231 314.601 131.115 314.64 128.27 314.683C126.848 314.705 125.743 314.727 124.993 314.75C124.618 314.762 124.331 314.774 124.136 314.786C124.04 314.792 123.963 314.798 123.91 314.804C123.884 314.808 123.859 314.812 123.838 314.817C123.828 314.819 123.811 314.824 123.794 314.832C123.785 314.837 123.768 314.846 123.751 314.863C123.734 314.879 123.705 314.916 123.705 314.971C123.705 315.027 123.734 315.063 123.751 315.08C123.768 315.097 123.785 315.106 123.794 315.11C123.811 315.119 123.828 315.124 123.838 315.126C123.859 315.131 123.884 315.135 123.91 315.138C123.963 315.145 124.04 315.151 124.136 315.157C124.331 315.169 124.618 315.181 124.993 315.193C125.743 315.216 126.848 315.238 128.27 315.26C131.115 315.303 135.231 315.342 140.317 315.375C150.489 315.441 164.541 315.483 180.061 315.483Z" fill="white" stroke="white" stroke-width="0.3"/>
<path d="M240.159 336.599L240.458 336.598C240.816 333.231 240.937 329.842 240.82 326.458C240.936 323.069 240.815 319.676 240.458 316.304L240.159 316.303C239.793 319.675 239.672 323.069 239.797 326.458C239.672 329.842 239.793 333.232 240.159 336.599Z" fill="white" stroke="white" stroke-width="0.3"/>
<path d="M241.266 337.81C241.266 337.81 241.266 337.81 241.266 337.81L241.266 337.81ZM127.495 337.81C127.495 337.81 127.495 337.81 127.495 337.81L127.495 337.81ZM184.38 338.456C200.095 338.456 214.331 338.418 224.638 338.354C229.792 338.322 233.964 338.283 236.847 338.239C238.289 338.218 239.409 338.194 240.169 338.17C240.549 338.158 240.841 338.146 241.038 338.133C241.136 338.127 241.213 338.12 241.268 338.113C241.294 338.11 241.32 338.106 241.342 338.1C241.351 338.097 241.369 338.092 241.387 338.083C241.396 338.078 241.413 338.069 241.43 338.051C241.447 338.033 241.472 337.997 241.472 337.945C241.472 337.889 241.443 337.852 241.426 337.835C241.409 337.819 241.392 337.81 241.384 337.806C241.366 337.797 241.349 337.793 241.339 337.79C241.318 337.785 241.293 337.781 241.266 337.778C241.213 337.771 241.135 337.765 241.037 337.759C240.841 337.747 240.55 337.735 240.17 337.724C239.41 337.701 238.29 337.678 236.849 337.657C233.967 337.614 229.796 337.575 224.644 337.542C214.338 337.476 200.102 337.434 184.38 337.434C168.659 337.434 154.423 337.472 144.117 337.536C138.965 337.569 134.794 337.607 131.912 337.651C130.471 337.673 129.351 337.696 128.591 337.72C128.211 337.732 127.92 337.744 127.723 337.757C127.625 337.763 127.547 337.77 127.493 337.777C127.467 337.78 127.441 337.785 127.419 337.79C127.41 337.793 127.392 337.798 127.374 337.807C127.365 337.812 127.348 337.822 127.331 337.839C127.314 337.857 127.288 337.893 127.288 337.945C127.288 337.997 127.314 338.033 127.331 338.051C127.348 338.069 127.365 338.078 127.374 338.083C127.392 338.092 127.41 338.097 127.419 338.1C127.441 338.106 127.467 338.11 127.493 338.113C127.548 338.12 127.625 338.127 127.723 338.133C127.92 338.146 128.211 338.158 128.591 338.17C129.352 338.194 130.472 338.218 131.914 338.239C134.797 338.283 138.969 338.322 144.123 338.354C154.43 338.418 168.666 338.456 184.38 338.456Z" fill="white" stroke="white" stroke-width="0.3"/>
<path d="M134.401 325.329L134.522 325.418C134.401 325.329 134.401 325.329 134.402 325.329L134.402 325.329L134.402 325.328L134.402 325.328L134.404 325.326L134.407 325.322C134.41 325.318 134.413 325.314 134.418 325.309C134.426 325.299 134.439 325.285 134.455 325.269C134.487 325.236 134.535 325.194 134.601 325.148C134.733 325.055 134.934 324.95 135.225 324.883L135.229 324.882L135.229 324.882C135.632 324.801 136.048 324.807 136.449 324.898C136.848 324.988 137.225 325.161 137.553 325.406C138.036 325.729 138.416 326.186 138.646 326.72C138.646 326.72 138.646 326.72 138.646 326.72L138.508 326.779C138.766 327.377 138.795 328.049 138.591 328.668L134.401 325.329ZM134.401 325.329L134.347 325.403L134.388 325.485C134.427 325.564 134.505 325.576 134.53 325.579C134.563 325.583 134.595 325.579 134.62 325.575C134.671 325.567 134.737 325.55 134.805 325.531C134.828 325.525 134.852 325.518 134.878 325.511C135.004 325.476 135.153 325.434 135.318 325.401C135.953 325.38 136.574 325.59 137.066 325.992L137.066 325.993L137.072 325.997C137.433 326.261 137.7 326.634 137.833 327.061C137.966 327.488 137.958 327.946 137.811 328.368L137.811 328.368L137.81 328.371C137.636 328.895 137.301 329.351 136.853 329.674C136.407 329.996 135.871 330.17 135.32 330.17C134.762 330.122 134.227 329.918 133.778 329.583C133.327 329.247 132.979 328.791 132.773 328.267C132.612 327.837 132.549 327.376 132.588 326.918C132.627 326.461 132.767 326.018 132.997 325.622C133.508 324.847 134.199 324.207 135.011 323.758L135.121 323.697L135.081 323.579C135.067 323.535 135.038 323.509 135.018 323.495C134.997 323.482 134.978 323.474 134.963 323.47C134.935 323.461 134.906 323.459 134.881 323.458C134.828 323.456 134.763 323.462 134.687 323.475C134.535 323.502 134.326 323.561 134.074 323.669L134.074 323.669L134.07 323.671C133.352 324.003 132.743 324.531 132.314 325.196C131.969 325.696 131.748 326.271 131.671 326.874C131.593 327.478 131.66 328.091 131.867 328.663C132.125 329.377 132.584 330.001 133.189 330.46C133.793 330.919 134.518 331.192 135.275 331.248L135.275 331.248L135.286 331.248C136.056 331.247 136.805 331 137.425 330.544C138.045 330.089 138.503 329.447 138.734 328.714L134.401 325.329Z" fill="white" stroke="white" stroke-width="0.3"/>
<path d="M152.105 386.385C151.967 386.443 151.822 386.48 151.674 386.496C151.252 386.577 150.825 386.628 150.396 386.649C148.805 386.722 147.215 386.481 145.716 385.941C143.474 385.163 141.456 383.847 139.841 382.107C137.752 380.027 136.459 377.279 136.187 374.342C135.916 371.406 136.683 368.467 138.355 366.039C139.631 364.034 141.375 362.37 143.438 361.192C144.812 360.387 146.332 359.862 147.91 359.65C148.333 359.581 148.761 359.553 149.188 359.567C149.48 359.567 149.633 359.567 149.633 359.567C147.543 359.862 145.53 360.555 143.702 361.608C141.756 362.796 140.118 364.429 138.925 366.372C137.362 368.689 136.647 371.474 136.9 374.258C137.153 377.041 138.359 379.652 140.314 381.649C141.845 383.332 143.747 384.635 145.869 385.455C147.869 386.159 149.986 386.474 152.105 386.385Z" fill="#9468B4"/>
<path d="M228.657 385.718C228.657 385.927 212.894 386.093 193.45 386.093C174.006 386.093 158.243 385.927 158.243 385.718C158.243 385.51 174.006 385.357 193.45 385.357C212.894 385.357 228.657 385.524 228.657 385.718Z" fill="#9468B4"/>
<path d="M229.392 383.969C230.78 383.482 232.093 382.804 233.295 381.956C234.676 380.939 235.838 379.654 236.712 378.178C237.86 376.221 238.42 373.974 238.323 371.706C238.227 368.956 237.215 366.316 235.448 364.206C233.32 361.877 230.519 360.27 227.434 359.609C224.006 358.859 220.498 358.537 216.99 358.651L205.616 358.79L165.659 359.137H153.562H150.271C149.887 359.161 149.502 359.161 149.118 359.137C149.499 359.073 149.885 359.04 150.271 359.04L153.562 358.943L165.659 358.679L205.602 358.123L216.99 357.998C220.555 357.899 224.119 358.239 227.601 359.012C230.822 359.721 233.737 361.427 235.934 363.887C237.76 366.102 238.792 368.864 238.864 371.734C238.933 374.095 238.316 376.425 237.087 378.442C236.156 379.94 234.932 381.234 233.489 382.247C232.579 382.885 231.583 383.39 230.531 383.747C230.17 383.872 229.892 383.928 229.712 383.983L229.392 383.969Z" fill="#9468B4"/>
<path d="M224.79 374.435L224.787 374.143C224.46 374.068 224.124 374.044 223.79 374.07L221.421 374.07L221.416 374.07L212.666 374.362L212.664 374.362L183.805 375.612L183.805 375.611L183.794 375.612C180.719 375.959 177.607 375.721 174.621 374.91C173.979 374.678 173.336 374.405 172.689 374.13C172.643 374.11 172.597 374.091 172.551 374.071C171.858 373.777 171.159 373.483 170.46 373.245C169.034 372.706 167.467 372.666 166.016 373.133L166.016 373.132L166.003 373.137C164.745 373.675 163.572 374.394 162.522 375.271C161.616 376.011 160.578 376.572 159.462 376.924L159.462 376.924L159.46 376.924C158.992 377.077 158.493 377.111 158.009 377.023C157.524 376.935 157.069 376.729 156.684 376.422L156.684 376.422L156.675 376.416C156.331 376.178 156.07 375.838 155.928 375.444C155.815 375.127 155.783 374.788 155.835 374.457L155.922 374.446L155.853 374.356C155.862 374.313 155.873 374.27 155.885 374.227L156.02 373.902L156.107 373.695H155.882H155.521H155.512L155.503 373.696C154.923 373.764 154.367 373.969 153.881 374.293C153.465 374.571 153.111 374.931 152.839 375.349C152.838 375.223 152.833 375.097 152.823 374.972L152.528 374.949C152.462 375.226 152.438 375.51 152.454 375.794V375.796V375.8V375.803V375.807V375.811V375.814V375.818V375.821V375.825V375.829V375.832V375.836V375.84V375.843V375.847V375.851V375.854V375.858V375.861V375.865V375.869V375.872V375.876V375.88V375.883V375.887V375.891V375.894V375.898V375.902V375.906V375.909V375.913V375.917V375.92V375.924V375.928V375.931V375.935V375.939V375.943V375.946V375.95V375.954V375.958V375.961V375.965V375.969V375.973V375.976V375.98V375.984V375.988V375.991V375.995V375.999V376.003V376.007V376.01V376.014V376.018V376.022V376.026V376.029V376.033V376.037V376.041V376.045V376.048V376.052V376.056V376.06V376.064V376.068V376.068C152.355 376.313 152.284 376.569 152.244 376.831C152.174 377.282 152.195 377.743 152.306 378.187L152.306 378.187L152.306 378.189L152.626 379.383L152.921 379.345V378.272H153.047L153.016 378.096C152.942 377.684 152.953 377.26 153.048 376.852C153.143 376.444 153.319 376.059 153.567 375.721C153.815 375.383 154.128 375.099 154.489 374.885C154.693 374.764 154.911 374.668 155.136 374.597C155.041 375.531 155.524 376.43 156.274 377.055C157.185 377.816 158.52 378.199 159.784 377.767C161.042 377.473 162.111 376.753 163.153 376.008C163.244 375.944 163.334 375.878 163.425 375.813C164.381 375.127 165.328 374.447 166.416 374.042C167.671 373.654 169.021 373.707 170.242 374.192L170.242 374.193L170.252 374.196C170.939 374.416 171.609 374.701 172.295 375C172.363 375.029 172.431 375.059 172.499 375.089C173.118 375.359 173.752 375.635 174.413 375.875L174.413 375.875L174.424 375.878C177.534 376.746 180.781 377.007 183.99 376.647L212.831 375.258L212.833 375.258L221.569 374.731L221.571 374.73L223.942 374.55C224.228 374.542 224.512 374.503 224.79 374.435Z" fill="white" stroke="white" stroke-width="0.3"/>
<path d="M234.059 397.497C234.059 397.705 212.81 397.858 186.603 397.858C160.396 397.858 139.146 397.705 139.146 397.497C139.146 397.289 160.382 397.136 186.603 397.136C212.824 397.136 234.059 397.372 234.059 397.497Z" fill="#9468B4"/>
<path d="M129.64 99.8233L129.345 99.84C129.243 100.692 129.224 101.552 129.289 102.407C129.329 103.96 129.418 106.132 129.545 108.713L122.562 109.458L122.561 109.459L117.883 109.996C117.725 106.846 117.568 104.135 117.423 102.185C117.41 101.085 117.292 99.9891 117.072 98.9114L116.777 98.9233C116.643 100.019 116.615 101.124 116.692 102.225C116.72 104.296 116.803 107.197 116.928 110.555V110.927V111.077H117.078H117.439H117.447L117.455 111.076L122.65 110.521L122.65 110.521L122.651 110.52L130.059 109.647H130.369H130.519V109.497V109.191H130.52L130.519 109.18C130.325 106.405 130.144 104.072 129.991 102.432C129.962 101.553 129.844 100.679 129.64 99.8233Z" fill="white" stroke="white" stroke-width="0.3"/>
<path d="M123.154 93.4803L122.982 93.2376C120.721 94.3959 118.621 95.8442 116.734 97.5458C114.648 99.0572 112.772 100.84 111.157 102.846L111.36 103.063C113.434 101.608 115.426 100.039 117.326 98.3625C119.361 96.8489 121.307 95.2188 123.154 93.4803Z" fill="white" stroke="white" stroke-width="0.3"/>
<path d="M134.195 102.791L134.384 102.562C132.755 100.744 130.95 99.0914 128.994 97.6303C127.19 95.9749 125.225 94.505 123.128 93.2426L122.939 93.4715C124.577 95.2906 126.387 96.9469 128.344 98.4171C130.149 100.06 132.108 101.524 134.195 102.791Z" fill="white" stroke="white" stroke-width="0.3"/>
<path d="M192.893 21.8009L166.467 19.3447L164.011 45.7713L190.437 48.2275L192.893 21.8009Z" fill="#9468B4"/>
<path d="M177.399 39.4473L177.691 39.4727C177.974 38.5416 178.144 37.5798 178.197 36.6081L178.349 35.2234L178.35 35.2234L178.35 35.2097C178.354 35.0082 178.413 34.8116 178.521 34.6414C178.628 34.4723 178.779 34.3356 178.958 34.246C179.534 34.0001 180.094 33.7197 180.636 33.4064L180.643 33.4025L180.649 33.3979C181.266 32.9509 181.738 32.3334 182.007 31.6213L182.007 31.6213L182.008 31.6185C182.268 30.8856 182.269 30.0855 182.009 29.3526C181.782 28.6798 181.365 28.0871 180.808 27.6461C180.357 27.2761 179.83 27.0095 179.264 26.865C178.698 26.7204 178.108 26.7016 177.534 26.8099L177.533 26.81C176.774 26.956 176.074 27.3164 175.514 27.8486L175.514 27.8485L175.509 27.8532C175.318 28.0521 175.201 28.2346 175.133 28.3703C175.098 28.4381 175.076 28.4941 175.062 28.5344C175.054 28.5545 175.049 28.5708 175.046 28.5826L175.042 28.5971L175.041 28.6017L175.041 28.6034L175.04 28.604L175.04 28.6043L175.04 28.6044C175.04 28.6045 175.04 28.6046 175.187 28.6378L175.04 28.6046L174.938 29.0564L175.286 28.7505C175.955 28.1618 176.775 27.7703 177.654 27.6195C178.105 27.5589 178.565 27.5961 179.001 27.7286C179.438 27.8614 179.842 28.0866 180.184 28.3891L180.184 28.3893L180.19 28.3943C180.61 28.7267 180.914 29.1838 181.058 29.6998C181.202 30.2157 181.178 30.764 180.99 31.2657L180.99 31.2662C180.796 31.7911 180.454 32.2483 180.005 32.5825C179.5 32.8889 178.978 33.1679 178.442 33.4184L178.442 33.418L178.432 33.4237C178.111 33.6054 177.842 33.8684 177.654 34.1862L177.654 34.186L177.649 34.1959C177.5 34.4958 177.415 34.8232 177.398 35.1577L177.398 35.1577V35.1653V35.1678V35.1704V35.1729V35.1754V35.1779V35.1805V35.183V35.1855V35.1881V35.1906V35.1931V35.1957V35.1982V35.2007V35.2033V35.2058V35.2084V35.2109V35.2135V35.216V35.2186V35.2211V35.2237V35.2262V35.2288V35.2313V35.2339V35.2364V35.239V35.2415V35.2441V35.2467V35.2492V35.2518V35.2544V35.2569V35.2595V35.2621V35.2646V35.2672V35.2698V35.2723V35.2749V35.2775V35.2801V35.2826V35.2852V35.2878V35.2904V35.293V35.2955V35.2981V35.3007V35.3033V35.3059V35.3085V35.3111V35.3137V35.3162V35.3188V35.3214V35.324V35.3266V35.3292V35.3318V35.3344V35.337V35.3396V35.3422V35.3448V35.3474V35.35V35.3526V35.3553V35.3579V35.3605V35.3631V35.3657V35.3683V35.3709V35.3735V35.3762V35.3788V35.3814V35.384V35.3866V35.3892V35.3919V35.3945V35.3971V35.3997V35.4024V35.405V35.4076V35.4103V35.4129V35.4155V35.4181V35.4208V35.4234V35.426V35.4287V35.4313V35.434V35.4366V35.4392V35.4419V35.4445V35.4472V35.4498V35.4524V35.4551V35.4577V35.4604V35.463V35.4657V35.4683V35.471V35.4736V35.4763V35.4789V35.4816V35.4842V35.4869V35.4896V35.4922V35.4949V35.4975V35.5002V35.5029V35.5055V35.5082V35.5108V35.5135V35.5162V35.5188V35.5215V35.5242V35.5268V35.5295V35.5322V35.5349V35.5375V35.5402V35.5429V35.5456V35.5482V35.5509V35.5536V35.5563V35.5589V35.5616V35.5643V35.567V35.5697V35.5723V35.575V35.5777V35.5804V35.5831V35.5858V35.5885V35.5912V35.5938V35.5965V35.5992V35.6019V35.6046V35.6073V35.61V35.6127V35.6154V35.6181V35.6208V35.6235V35.6262V35.6289V35.6316V35.6343V35.637V35.6397V35.6424V35.6451V35.6478V35.6505V35.6532V35.6559V35.6586V35.6613V35.664V35.6667V35.6694V35.6721V35.6749V35.6776V35.6803V35.683V35.6857V35.6884V35.6911V35.6938V35.6966V35.6993V35.702V35.7047V35.7074V35.7101V35.7129V35.7156V35.7183V35.721V35.7238V35.7265V35.7292V35.7319V35.7346V35.7374V35.7401V35.7428V35.7456V35.7483V35.751V35.7537V35.7565V35.7592V35.7619V35.7647V35.7674V35.7701V35.7729V35.7756V35.7783V35.7811V35.7838V35.7865V35.7893V35.792V35.7947V35.7975V35.8002V35.803V35.8057V35.8084V35.8112V35.8139V35.8167V35.8194V35.8221V35.8249V35.8276V35.8304V35.8331V35.8359V35.8386V35.8413V35.8441V35.8468V35.8496V35.8523V35.8551V35.8578V35.8606V35.8633V35.8661V35.8688V35.8716V35.8743V35.8771V35.8798V35.8826V35.8853V35.8881V35.8908V35.8936V35.8964V35.8991V35.9019V35.9046V35.9074V35.9101V35.9129V35.9157V35.9184V35.9212V35.9239V35.9267V35.9294V35.9322V35.935V35.9377V35.9405V35.9432V35.946V35.9488V35.9515V35.9543V35.9571V35.9598V35.9626V35.9654V35.9681V35.9709V35.9736V35.9764V35.9792V35.9819V35.9847V35.9875V35.9902V35.993V35.9958V35.9986V36.0013V36.0041V36.0069V36.0096V36.0124V36.0152V36.0179V36.0207V36.0235V36.0262V36.029V36.0318V36.0346V36.0373V36.0401V36.0429V36.0457V36.0484V36.0512V36.054V36.0567V36.0595V36.0623V36.0651V36.0678V36.0706V36.0734V36.0762V36.0789V36.0817V36.0845V36.0873V36.0901V36.0928V36.0956V36.0984V36.1012V36.1039V36.1067V36.1095V36.1123V36.115V36.1178V36.1206V36.1234V36.1262V36.1289V36.1317V36.1345V36.1373V36.1401V36.1428V36.1456V36.1484V36.1512V36.154V36.1567V36.1595V36.1623V36.1651V36.1679V36.1706V36.1734V36.1762V36.179V36.1818V36.1846V36.1873V36.1901V36.1929V36.1957V36.1985V36.2012V36.204V36.2068V36.2096V36.2124V36.2152V36.2179V36.2207V36.2235V36.2263V36.2291V36.2318V36.2346V36.2374V36.2402V36.243V36.2458V36.2485V36.2513V36.2541V36.2569V36.2597V36.2625V36.2652V36.268V36.2708V36.2736V36.2764V36.2792V36.2819V36.2847V36.2875V36.2903V36.2931V36.2959V36.2986V36.3014V36.3042V36.307V36.3098V36.3126V36.3153V36.3181V36.3209V36.3237V36.3265V36.3293V36.332V36.3348V36.3376V36.3404V36.3432V36.3459V36.3487V36.3515V36.3543V36.3571V36.3599V36.3626V36.3654V36.3682V36.371V36.3738V36.3765V36.3793V36.3821V36.3849V36.3877V36.3904V36.3932V36.396V36.3988V36.4016V36.4043V36.4071V36.4099V36.4127V36.4155V36.4182V36.421V36.4238V36.4266V36.4293V36.4321V36.4349V36.4377V36.4405V36.4432V36.446V36.4488V36.4516V36.4543V36.4571V36.4599V36.4627V36.4654V36.4682V36.471V36.4738V36.4765V36.4793V36.4821V36.4849V36.4876V36.4904V36.4932V36.496V36.4987V36.5015V36.5043V36.5071V36.5098V36.5126V36.5154V36.5181V36.5209V36.5237V36.5264V36.5292V36.532V36.5348V36.5375V36.5403V36.5431V36.545C177.28 37.5088 177.28 38.4835 177.399 39.4473Z" fill="white" stroke="white" stroke-width="0.3"/>
<path d="M177.166 40.7248C177.107 40.7026 177.039 40.7001 176.973 40.7129C176.827 40.7411 176.666 40.846 176.513 41.0447L176.507 41.0526L176.502 41.0612C176.435 41.1769 176.4 41.3082 176.4 41.4417C176.4 41.5753 176.435 41.7066 176.502 41.8223L176.506 41.8288L176.51 41.8349C176.606 41.9684 176.739 42.0714 176.892 42.1318C177.045 42.1921 177.212 42.2073 177.373 42.1753C177.534 42.1434 177.683 42.0658 177.802 41.9518C177.92 41.8377 178.003 41.692 178.041 41.532L178.042 41.5321L178.043 41.5241C178.067 41.3906 178.054 41.253 178.005 41.1266C177.956 41.0016 177.874 40.8924 177.767 40.8109C177.608 40.6765 177.448 40.6259 177.308 40.6563C177.256 40.6677 177.207 40.6916 177.166 40.7248Z" fill="white" stroke="white" stroke-width="0.3"/>
<path d="M41.0501 0.420655L15.8262 3.75488L19.1604 28.9788L44.3843 25.6446L41.0501 0.420655Z" fill="#9468B4"/>
<path d="M73.3437 36.746L47.9004 34.4561L45.6105 59.8994L71.0538 62.1893L73.3437 36.746Z" fill="#9468B4"/>
<path d="M117.677 33.6115L92.3428 31.2568L89.9881 56.591L115.322 58.9456L117.677 33.6115Z" fill="white"/>
<path d="M101.26 0H75.8164V25.4433H101.26V0Z" fill="#9468B4"/>
<path d="M135.646 0H110.203V25.4433H135.646V0Z" fill="#9468B4"/>
<path d="M72.372 0.429688H46.9287V25.873H72.372V0.429688Z" fill="#455A64"/>
<path d="M85.6502 52.6439L85.6509 52.3496C83.8136 51.9811 81.9356 51.8586 80.0661 51.9852C78.1965 51.8586 76.3185 51.9811 74.4812 52.3496L74.4819 52.6439C76.32 53.0039 78.1968 53.1263 80.0661 53.0081C81.9353 53.1263 83.8121 53.0039 85.6502 52.6439Z" fill="white" stroke="white" stroke-width="0.3"/>
<path d="M81.3761 49.8242L81.3035 49.921L81.3828 50.0125C82.2551 51.0181 83.3684 51.7773 84.6114 52.2235C83.5094 53.1372 82.5286 54.1893 81.6936 55.3544L81.8886 55.5727C83.3454 54.7595 84.6749 53.7369 85.8347 52.5376L86.0095 52.3897L86.0095 52.3897L86.012 52.3875L86.4981 51.957L86.7022 51.7762L86.4403 51.7006L85.8162 51.5203C85.816 51.5202 85.8159 51.5202 85.8158 51.5201C84.6057 51.1626 83.5765 50.6878 82.8313 50.3212C82.6897 50.2516 82.5571 50.1852 82.4351 50.1241C82.2391 50.026 82.0707 49.9417 81.9364 49.8796C81.8278 49.8294 81.7322 49.7892 81.6567 49.7677C81.6198 49.7571 81.5776 49.748 81.5361 49.7485C81.4973 49.7489 81.4251 49.7589 81.3761 49.8242Z" fill="white" stroke="white" stroke-width="0.3"/>
<path d="M81.5707 108.242L81.5706 107.944C80.7589 107.842 79.9409 107.8 79.123 107.818C77.5508 107.749 75.2592 107.749 72.4887 107.749H72.4835C71.7785 107.742 71.0394 107.766 70.2781 107.792L70.2127 107.794C69.4707 107.82 68.7074 107.846 67.928 107.846C66.2268 107.83 64.54 107.532 62.936 106.966L62.9349 106.965C61.1983 106.367 59.721 105.188 58.7517 103.628C57.7766 101.868 57.187 99.9202 57.0219 97.9145L57.0216 97.9121C56.4135 91.7595 55.8201 86.0358 55.3171 81.1842C55.1309 79.3878 54.9571 77.7111 54.7995 76.1763L54.7995 76.1763L54.7993 76.1748C54.4939 73.4819 54.2441 71.2751 54.0636 69.5955C54.0071 68.7597 53.8805 67.9301 53.685 67.1154L53.3893 67.1436C53.3522 67.9618 53.3802 68.7817 53.4732 69.5955C53.5372 70.3702 53.6069 71.2566 53.6851 72.252C53.777 73.4205 53.8806 74.7393 54.0008 76.2039L54.0008 76.2043C54.473 81.7733 55.1258 89.4681 56.0008 97.9827C56.1888 100.131 56.8293 102.214 57.8802 104.097L57.8801 104.097L57.8842 104.104C58.9816 105.851 60.6475 107.168 62.6016 107.832C64.3111 108.417 66.1066 108.711 67.9134 108.701C68.759 108.708 69.5618 108.663 70.3237 108.616C70.3835 108.612 70.443 108.609 70.5023 108.605C71.2002 108.562 71.8619 108.521 72.4967 108.521L72.5001 108.521L79.1213 108.368C79.9398 108.387 80.7586 108.345 81.5707 108.242Z" fill="white" stroke="white" stroke-width="0.3"/>
<path d="M78.9248 111.637L79.1379 111.84C80.5515 110.849 81.9049 109.774 83.191 108.622L83.4215 108.433L83.8904 108.088L84.088 107.943L83.8686 107.833L83.3409 107.569C83.2706 107.534 83.201 107.499 83.1321 107.463V107.438L83.1129 107.453C82.0268 106.892 81.1077 106.293 80.4305 105.837C80.3356 105.774 80.245 105.712 80.1593 105.654C79.9198 105.492 79.7175 105.356 79.5604 105.258C79.4544 105.191 79.3613 105.138 79.2872 105.106C79.251 105.091 79.2096 105.076 79.1683 105.071C79.1305 105.067 79.0539 105.067 78.9963 105.13L78.9151 105.219L78.985 105.318C79.821 106.496 80.9174 107.46 82.1844 108.139C80.8886 109.088 79.7822 110.275 78.9248 111.637Z" fill="white" stroke="white" stroke-width="0.3"/>
<path d="M55.8588 249.708L31.4512 247.439L29.1826 271.847L53.5903 274.116L55.8588 249.708Z" fill="#9468B4"/>
<path d="M24.5128 176.923H0V201.436H24.5128V176.923Z" fill="#455A64"/>
<path d="M56.2062 142.257H31.6934V166.77H56.2062V142.257Z" fill="#9468B4"/>
<path d="M56.8741 174.153L32.3613 175.869L34.0772 200.382L58.59 198.666L56.8741 174.153Z" fill="#E0E0E0"/>
<path d="M57.2934 211.176L32.8857 208.907L30.6172 233.315L55.0248 235.583L57.2934 211.176Z" fill="white"/>
<path d="M60.9368 259.548L61.0709 259.812C61.3497 259.723 61.6169 259.601 61.867 259.45L61.8671 259.45L61.8717 259.447C62.0081 259.357 62.1694 259.259 62.3509 259.148C62.7967 258.876 63.3651 258.529 63.9894 258.053C66.5292 256.24 68.8649 254.156 70.9558 251.839L70.9559 251.839C74.0569 248.397 76.6383 244.52 78.6184 240.331C81.0668 235.189 82.5184 229.628 82.8963 223.945C83.3449 218.222 82.3872 212.477 80.1067 207.209L80.1062 207.208C78.2047 202.91 75.142 199.228 71.2624 196.575L71.2624 196.575C68.6571 194.795 65.6918 193.611 62.5771 193.107L62.5769 193.107C61.736 192.972 60.8851 192.911 60.0336 192.924C59.7341 192.887 59.4311 192.888 59.1317 192.926L59.0209 192.94L59.0025 193.05C58.9937 193.103 59.013 193.149 59.0379 193.178C59.059 193.203 59.0832 193.217 59.0964 193.223C59.1233 193.236 59.1525 193.243 59.1734 193.247C59.2188 193.256 59.2813 193.263 59.3542 193.269C59.4261 193.276 59.5182 193.282 59.6269 193.29C59.7375 193.298 59.8654 193.307 60.0067 193.318C60.576 193.363 61.414 193.445 62.4834 193.638C65.462 194.234 68.2814 195.451 70.7576 197.21L70.758 197.211C74.4645 199.824 77.3821 203.406 79.1925 207.564C81.3958 212.663 82.3442 218.216 81.9582 223.757L81.9582 223.757C81.5795 229.323 80.1763 234.772 77.8193 239.828L77.8192 239.829C75.9 243.957 73.4062 247.793 70.4122 251.223C68.3877 253.53 66.144 255.634 63.7127 257.507C62.8177 258.167 62.1238 258.677 61.6536 259.022L61.1188 259.414L60.9826 259.514L60.9483 259.539L60.9397 259.546L60.9375 259.547L60.937 259.548L60.9368 259.548L60.9368 259.548Z" fill="white" stroke="white" stroke-width="0.3"/>
<path d="M69.0657 261.761L69.049 261.464C66.2929 261.272 63.5266 261.29 60.7739 261.518C61.1861 258.829 61.3945 256.113 61.3972 253.392L61.1016 253.356C60.397 256.204 59.9311 259.107 59.7088 262.033L59.7084 262.033V262.044V262.475V262.625H59.8584H60.2889V262.625L60.2911 262.625C63.2349 262.582 66.17 262.293 69.0657 261.761Z" fill="white" stroke="white" stroke-width="0.3"/>
<path d="M95.5926 162.073C104.322 162.073 112.228 162.032 117.953 161.966C120.815 161.933 123.132 161.894 124.734 161.851C125.535 161.829 126.158 161.807 126.582 161.783C126.793 161.772 126.957 161.76 127.069 161.747C127.125 161.741 127.172 161.735 127.207 161.727C127.224 161.723 127.246 161.718 127.266 161.709C127.276 161.704 127.294 161.696 127.313 161.679C127.33 161.664 127.366 161.625 127.366 161.562C127.366 161.499 127.33 161.46 127.313 161.445C127.294 161.429 127.276 161.42 127.266 161.416C127.246 161.407 127.224 161.401 127.207 161.398C127.172 161.39 127.125 161.383 127.069 161.377C126.957 161.365 126.793 161.353 126.582 161.341C126.159 161.318 125.536 161.295 124.736 161.274C123.135 161.231 120.819 161.192 117.958 161.159C112.235 161.093 104.329 161.051 95.5926 161.051C86.8565 161.051 78.9465 161.093 73.2203 161.159C70.3573 161.192 68.0397 161.231 66.4375 161.274C65.6366 161.295 65.0133 161.318 64.5897 161.341C64.3783 161.353 64.2143 161.365 64.102 161.377C64.0467 161.383 63.9994 161.39 63.964 161.398C63.9475 161.401 63.9257 161.407 63.905 161.416C63.8953 161.42 63.8769 161.429 63.8586 161.445C63.8413 161.46 63.8051 161.499 63.8051 161.562C63.8051 161.625 63.8414 161.664 63.8587 161.68C63.877 161.696 63.8954 161.704 63.9051 161.709C63.9257 161.718 63.9475 161.723 63.9641 161.727C63.9995 161.735 64.0468 161.741 64.1022 161.747C64.2145 161.76 64.3787 161.772 64.5902 161.783C65.0142 161.807 65.638 161.829 66.4394 161.851C68.0427 161.894 70.3617 161.933 73.2255 161.966C78.9534 162.032 86.8634 162.073 95.5926 162.073Z" fill="white" stroke="white" stroke-width="0.3"/>
<path d="M124.004 166.029L124.23 166.219C125.839 164.864 127.282 163.323 128.529 161.629L128.692 161.438L128.692 161.438L128.693 161.436L128.957 161.117L129.067 160.984L128.92 160.894L128.562 160.673C126.911 159.543 125.136 158.606 123.271 157.882L123.117 158.134C124.464 159.33 125.931 160.382 127.496 161.272C126.166 162.728 124.995 164.323 124.004 166.029Z" fill="white" stroke="white" stroke-width="0.3"/>
<path d="M272.209 328.08L272.21 327.781C267.823 327.406 263.418 327.281 259.017 327.406C254.611 327.28 250.202 327.406 245.81 327.781L245.811 328.08C250.203 328.439 254.612 328.559 259.017 328.442C263.418 328.559 267.822 328.438 272.209 328.08Z" fill="white" stroke="white" stroke-width="0.3"/>
<path d="M270.572 334.678H270.67L270.709 334.588C271.584 332.597 272.625 330.683 273.819 328.865L273.954 328.689L274.013 328.612L273.968 328.527L273.857 328.32L273.539 327.696L273.538 327.695C272.58 325.841 271.432 324.361 270.508 323.367C270.046 322.87 269.638 322.492 269.335 322.249C269.184 322.128 269.056 322.037 268.957 321.981C268.91 321.954 268.861 321.931 268.815 321.919C268.793 321.913 268.761 321.907 268.726 321.911C268.688 321.915 268.636 321.934 268.601 321.985L268.539 322.074L268.605 322.161C270.069 324.085 271.415 326.097 272.635 328.184L272.791 328.483C271.907 329.728 271.226 331.107 270.776 332.567L270.776 332.567L270.775 332.568C270.6 333.156 270.488 333.641 270.431 333.982C270.402 334.152 270.387 334.291 270.386 334.391C270.386 334.439 270.388 334.489 270.399 334.531C270.405 334.552 270.415 334.583 270.438 334.612C270.464 334.645 270.509 334.678 270.572 334.678Z" fill="white" stroke="white" stroke-width="0.3"/>
<path d="M313.642 312.059L277.665 314.417L280.023 350.394L316 348.036L313.642 312.059Z" fill="#9468B4"/>
<path d="M303.486 324.959C303.486 325.056 302.973 324.598 302.223 324.723C302.018 324.765 301.825 324.854 301.659 324.981C301.493 325.109 301.358 325.272 301.264 325.459C301.16 325.682 301.125 325.93 301.163 326.173C301.2 326.416 301.31 326.642 301.477 326.822C301.644 327.003 301.861 327.129 302.1 327.186C302.339 327.242 302.59 327.226 302.82 327.139C303.018 327.066 303.194 326.946 303.335 326.788C303.475 326.631 303.575 326.441 303.625 326.237C303.806 325.487 303.389 325.014 303.486 324.959C303.584 324.903 304.195 325.237 304.125 326.348C304.085 326.649 303.968 326.935 303.786 327.178C303.603 327.421 303.362 327.613 303.084 327.737C302.727 327.896 302.329 327.939 301.946 327.861C301.563 327.783 301.214 327.588 300.948 327.301C300.681 327.015 300.511 326.653 300.461 326.265C300.411 325.878 300.483 325.484 300.667 325.139C300.816 324.868 301.032 324.64 301.295 324.477C301.557 324.314 301.858 324.221 302.167 324.209C303.25 324.223 303.57 324.945 303.486 324.959Z" fill="black"/>
<path d="M304.32 331.625C304.32 331.625 304.236 331.75 304.042 331.944C303.722 332.222 303.373 332.464 303 332.666C302.277 333.029 301.484 333.229 300.675 333.253C299.867 333.277 299.063 333.124 298.32 332.805H298.556L290.431 340.499L290.306 340.61H290.126L287.598 339.985H287.32V339.708C287.32 339.18 287.39 338.597 287.417 338.013V337.874L287.515 337.777L288.209 337.138L288.348 336.999H288.542L289.584 337.291L289.14 337.68L288.973 336.569V336.374L289.112 336.249L290.292 335.138L290.445 335.013H290.64L292.348 335.499L291.89 335.902C291.806 335.319 291.723 334.694 291.626 334.069V333.874L291.765 333.749L292.14 333.402L293.153 332.458L293.292 332.319H293.487L295.209 332.805L294.751 333.208C294.667 332.583 294.57 331.972 294.487 331.375V331.18L294.626 331.055L295.737 330.027L295.667 330.472C295.229 329.691 294.979 328.819 294.935 327.925C294.892 327.031 295.057 326.139 295.417 325.319C295.731 324.616 296.185 323.983 296.75 323.46C297.315 322.936 297.981 322.533 298.706 322.273C299.431 322.014 300.202 321.904 300.971 321.95C301.74 321.996 302.492 322.197 303.181 322.542C304.285 323.114 305.172 324.031 305.708 325.153C306.087 325.949 306.271 326.824 306.244 327.706C306.218 328.587 305.982 329.45 305.556 330.222C305.266 330.777 304.847 331.253 304.333 331.611C304.705 331.127 305.039 330.617 305.333 330.083C305.698 329.347 305.888 328.537 305.888 327.715C305.888 326.894 305.698 326.083 305.333 325.347C304.894 324.474 304.216 323.745 303.377 323.244C302.538 322.743 301.574 322.491 300.597 322.519C299.62 322.547 298.672 322.852 297.863 323.4C297.053 323.948 296.417 324.715 296.028 325.611C295.716 326.333 295.575 327.118 295.619 327.904C295.662 328.69 295.888 329.455 296.278 330.139L296.417 330.389L296.209 330.583L295.112 331.611L295.223 331.291C295.306 331.902 295.403 332.513 295.487 333.124L295.57 333.68L295.042 333.527L293.32 333.041L293.667 332.958L292.653 333.916L292.292 334.249L292.403 333.93C292.487 334.569 292.584 335.18 292.667 335.763V336.319L292.14 336.166L290.431 335.68L290.765 335.597L289.584 336.708L289.695 336.388C289.695 336.777 289.806 337.166 289.848 337.513L289.931 338.041L289.404 337.902L288.362 337.597L288.695 337.527L288.001 338.166L288.112 337.93C288.112 338.513 288.042 339.096 288.001 339.624L287.751 339.277L290.265 339.93L289.973 339.999L298.306 332.43L298.403 332.333H298.542C299.235 332.643 299.985 332.803 300.743 332.803C301.502 332.803 302.252 332.643 302.945 332.333C303.416 332.124 303.876 331.888 304.32 331.625Z" fill="black"/>
<path d="M303.486 324.959C303.486 325.056 302.973 324.598 302.223 324.723C302.018 324.765 301.825 324.854 301.659 324.981C301.493 325.109 301.358 325.272 301.264 325.459C301.16 325.682 301.125 325.93 301.163 326.173C301.2 326.416 301.31 326.642 301.477 326.822C301.644 327.003 301.861 327.129 302.1 327.186C302.339 327.242 302.59 327.226 302.82 327.139C303.018 327.066 303.194 326.946 303.335 326.788C303.475 326.631 303.575 326.441 303.625 326.237C303.806 325.487 303.389 325.014 303.486 324.959C303.584 324.903 304.195 325.237 304.125 326.348C304.085 326.649 303.968 326.935 303.786 327.178C303.603 327.421 303.362 327.613 303.084 327.737C302.727 327.896 302.329 327.939 301.946 327.861C301.563 327.783 301.214 327.588 300.948 327.301C300.681 327.015 300.511 326.653 300.461 326.265C300.411 325.878 300.483 325.484 300.667 325.139C300.816 324.868 301.032 324.64 301.295 324.477C301.557 324.314 301.858 324.221 302.167 324.209C303.25 324.223 303.57 324.945 303.486 324.959Z" fill="black"/>
<path d="M304.32 331.625C304.32 331.625 304.236 331.75 304.042 331.944C303.722 332.222 303.373 332.464 303 332.666C302.277 333.029 301.484 333.229 300.675 333.253C299.867 333.277 299.063 333.124 298.32 332.805H298.556L290.431 340.499L290.306 340.61H290.126L287.598 339.985H287.32V339.708C287.32 339.18 287.39 338.597 287.417 338.013V337.874L287.515 337.777L288.209 337.138L288.348 336.999H288.542L289.584 337.291L289.14 337.68L288.973 336.569V336.374L289.112 336.249L290.292 335.138L290.445 335.013H290.64L292.348 335.499L291.89 335.902C291.806 335.319 291.723 334.694 291.626 334.069V333.874L291.765 333.749L292.14 333.402L293.153 332.458L293.292 332.319H293.487L295.209 332.805L294.751 333.208C294.667 332.583 294.57 331.972 294.487 331.375V331.18L294.626 331.055L295.737 330.027L295.667 330.472C295.229 329.691 294.979 328.819 294.935 327.925C294.892 327.031 295.057 326.139 295.417 325.319C295.731 324.616 296.185 323.983 296.75 323.46C297.315 322.936 297.981 322.533 298.706 322.273C299.431 322.014 300.202 321.904 300.971 321.95C301.74 321.996 302.492 322.197 303.181 322.542C304.285 323.114 305.172 324.031 305.708 325.153C306.087 325.949 306.271 326.824 306.244 327.706C306.218 328.587 305.982 329.45 305.556 330.222C305.266 330.777 304.847 331.253 304.333 331.611C304.705 331.127 305.039 330.617 305.333 330.083C305.698 329.347 305.888 328.537 305.888 327.715C305.888 326.894 305.698 326.083 305.333 325.347C304.894 324.474 304.216 323.745 303.377 323.244C302.538 322.743 301.574 322.491 300.597 322.519C299.62 322.547 298.672 322.852 297.863 323.4C297.053 323.948 296.417 324.715 296.028 325.611C295.716 326.333 295.575 327.118 295.619 327.904C295.662 328.69 295.888 329.455 296.278 330.139L296.417 330.389L296.209 330.583L295.112 331.611L295.223 331.291C295.306 331.902 295.403 332.513 295.487 333.124L295.57 333.68L295.042 333.527L293.32 333.041L293.667 332.958L292.653 333.916L292.292 334.249L292.403 333.93C292.487 334.569 292.584 335.18 292.667 335.763V336.319L292.14 336.166L290.431 335.68L290.765 335.597L289.584 336.708L289.695 336.388C289.695 336.777 289.806 337.166 289.848 337.513L289.931 338.041L289.404 337.902L288.362 337.597L288.695 337.527L288.001 338.166L288.112 337.93C288.112 338.513 288.042 339.096 288.001 339.624L287.751 339.277L290.265 339.93L289.973 339.999L298.306 332.43L298.403 332.333H298.542C299.235 332.643 299.985 332.803 300.743 332.803C301.502 332.803 302.252 332.643 302.945 332.333C303.416 332.124 303.876 331.888 304.32 331.625Z" fill="black"/>
<path d="M300.244 349.004L300.536 349.009C300.602 349.311 300.636 349.62 300.637 349.93V349.93C300.637 350.357 300.677 350.856 300.724 351.445C300.75 351.765 300.778 352.113 300.803 352.489L300.803 352.492C300.914 354.729 301.039 357.98 301.137 361.981C301.234 365.983 301.276 370.748 301.248 376.054C301.248 376.054 301.248 376.054 301.248 376.054L301.248 376.055C301.248 378.692 301.248 381.471 301.123 384.389C301.14 385.88 301.028 387.369 300.788 388.84C300.551 390.474 299.696 391.955 298.399 392.976L298.39 392.984L298.39 392.983C297.064 393.87 295.538 394.413 293.949 394.563C292.448 394.785 291.002 394.938 289.559 395.091L289.558 395.091L289.558 395.091C286.695 395.383 283.915 395.605 281.218 395.744C275.921 396.022 271.14 396.022 267.136 395.897C263.133 395.772 259.88 395.508 257.655 395.286C256.532 395.189 255.671 395.078 255.086 394.994C254.774 394.979 254.466 394.926 254.167 394.835L254.196 394.543C254.505 394.511 254.817 394.511 255.126 394.542L257.692 394.695L257.692 394.695C259.927 394.834 263.16 395 267.144 395.07C271.126 395.139 275.9 395.07 281.173 394.764M300.244 349.004L281.182 394.914M300.244 349.004C300.168 349.307 300.129 349.618 300.128 349.93V349.93V349.934V349.938V349.942V349.946V349.949V349.953V349.957V349.961V349.965V349.969V349.973V349.977V349.981V349.985V349.989V349.993V349.997V350.001V350.005V350.009V350.013V350.017V350.021V350.025V350.029V350.033V350.037V350.041V350.045V350.049V350.053V350.057V350.061V350.065V350.069V350.073V350.077V350.081V350.086V350.09V350.094V350.098V350.102V350.106V350.11V350.114V350.118V350.122V350.127V350.131V350.135V350.139V350.143V350.147V350.151V350.156V350.16V350.164V350.168V350.172V350.176V350.181V350.185V350.189V350.193V350.197V350.202V350.206V350.21V350.214V350.218V350.223V350.227V350.231V350.235V350.24V350.244V350.248V350.252V350.257V350.261V350.265V350.269V350.274V350.278V350.282V350.287V350.291V350.295V350.299V350.304V350.308V350.312V350.317V350.321V350.325V350.33V350.334V350.338V350.343V350.347V350.351V350.356V350.36V350.365V350.369V350.373V350.378V350.382V350.386V350.391V350.395V350.4V350.404V350.408V350.413V350.417V350.422V350.426V350.431V350.435V350.44V350.444V350.448V350.453V350.457V350.462V350.466V350.471V350.475V350.48V350.484V350.489V350.493V350.498V350.502V350.507V350.511V350.516V350.52V350.525V350.529V350.534V350.538V350.543V350.548V350.552V350.557V350.561V350.566V350.57V350.575V350.58V350.584V350.589V350.593V350.598V350.603V350.607V350.612V350.616V350.621V350.626V350.63V350.635V350.64V350.644V350.649V350.654V350.658V350.663V350.668V350.672V350.677V350.682V350.686V350.691V350.696V350.7V350.705V350.71V350.714V350.719V350.724V350.729V350.733V350.738V350.743V350.748V350.752V350.757V350.762V350.767V350.771V350.776V350.781V350.786V350.79V350.795V350.8V350.805V350.81V350.814V350.819V350.824V350.829V350.834V350.839V350.843V350.848V350.853V350.858V350.863V350.868V350.873V350.877V350.882V350.887V350.892V350.897V350.902V350.907V350.912V350.916V350.921V350.926V350.931V350.936V350.941V350.946V350.951V350.956V350.961V350.966V350.971V350.976V350.981V350.986V350.991V350.995V351V351.005V351.01V351.015V351.02V351.025V351.03V351.035V351.04V351.045V351.05V351.055V351.061V351.066V351.071V351.076V351.081V351.086V351.091V351.096V351.101V351.106V351.111V351.116V351.121V351.126V351.131V351.137V351.142V351.147V351.152V351.157V351.162V351.167V351.172V351.177V351.183V351.188V351.193V351.198V351.203V351.208V351.213V351.219V351.224V351.229V351.234V351.239V351.245V351.25V351.255V351.26V351.265V351.271V351.276V351.281V351.286V351.291V351.297V351.302V351.307V351.312V351.318V351.323V351.328V351.333V351.339V351.344V351.349V351.355V351.36V351.365V351.37V351.376V351.381V351.386V351.392V351.397V351.402V351.408V351.413V351.418V351.424V351.429V351.434V351.44V351.445V351.45V351.456V351.461V351.467V351.472V351.477V351.483V351.488V351.494V351.499V351.504V351.51V351.515V351.521V351.526V351.531V351.537V351.542V351.548V351.553V351.559V351.564V351.57V351.575V351.581V351.586V351.591V351.597V351.602V351.608V351.613V351.619V351.624V351.63V351.635V351.641V351.646V351.652V351.658V351.663V351.669V351.674V351.68V351.685V351.691V351.696V351.702V351.708V351.713V351.719V351.724V351.73V351.735V351.741V351.747V351.752V351.758V351.764V351.769V351.775V351.78V351.786V351.792V351.797V351.803V351.809V351.814V351.82V351.826V351.831V351.837V351.843V351.848V351.854V351.86V351.865V351.871V351.877V351.883V351.888V351.894V351.9V351.905V351.911V351.917V351.923V351.928V351.934V351.94V351.946V351.951V351.957V351.963V351.969V351.974V351.98V351.986V351.992V351.998V352.003V352.009V352.015V352.021V352.027V352.033V352.038V352.044V352.05V352.056V352.062V352.068V352.073V352.079V352.085V352.091V352.097V352.103V352.109V352.115V352.12V352.126V352.132V352.138V352.144V352.15V352.156V352.162V352.168V352.174V352.18V352.186V352.192V352.198V352.203V352.209V352.215V352.221V352.227V352.233V352.239V352.245V352.251V352.257V352.263V352.269V352.275V352.281V352.287V352.293V352.299V352.305V352.311V352.317V352.324V352.33V352.336V352.342V352.348V352.354V352.36V352.366V352.372V352.378V352.384V352.39V352.396V352.402V352.409V352.415V352.421V352.427V352.433V352.439V352.445V352.451V352.458V352.464V352.47V352.476V352.482V352.488V352.495V352.501V352.507L300.128 352.513L300.128 352.515C300.137 353.232 300.144 354.026 300.152 354.898C300.17 356.861 300.191 359.218 300.24 361.987C300.309 365.985 300.309 370.747 300.24 376.037M300.244 349.004L300.278 352.513C300.287 353.231 300.294 354.025 300.302 354.898C300.32 356.86 300.341 359.216 300.389 361.985C300.459 365.985 300.459 370.748 300.389 376.04M281.173 394.764L281.182 394.914M281.173 394.764C281.173 394.764 281.173 394.764 281.173 394.764L281.182 394.914M281.173 394.764C283.795 394.612 286.556 394.376 289.415 394.07M281.182 394.914C283.807 394.761 286.571 394.525 289.432 394.22M289.415 394.07L289.432 394.22M289.415 394.07C290.804 393.918 292.302 393.751 293.757 393.543L293.765 393.542L293.765 393.542C295.181 393.41 296.546 392.943 297.747 392.181M289.415 394.07C289.415 394.07 289.416 394.07 289.416 394.07L289.432 394.22M289.432 394.22L297.747 392.181M254.211 394.692C254.421 394.671 254.631 394.664 254.842 394.673C254.643 394.648 254.446 394.607 254.255 394.548L254.211 394.692ZM254.211 394.692L254.226 394.841C254.427 394.821 254.628 394.814 254.83 394.822C254.62 394.797 254.413 394.753 254.211 394.692ZM297.747 392.181C297.745 392.182 297.743 392.184 297.74 392.186L297.834 392.303L297.754 392.176C297.751 392.178 297.749 392.179 297.747 392.181ZM297.747 392.181C298.837 391.308 299.555 390.053 299.755 388.671L299.755 388.669C299.979 387.248 300.085 385.812 300.073 384.374L300.073 384.37L300.073 384.37C300.128 381.491 300.184 378.713 300.24 376.037M297.747 392.181L299.903 388.692C300.128 387.263 300.235 385.819 300.223 384.373C300.278 381.493 300.334 378.716 300.389 376.04M300.24 376.037C300.24 376.037 300.24 376.038 300.24 376.038L300.389 376.04M300.24 376.037C300.24 376.037 300.24 376.037 300.24 376.037L300.389 376.04" fill="white" stroke="white" stroke-width="0.3"/>
<path d="M262.38 402.686L262.556 402.448C261.695 401.535 260.719 400.738 259.653 400.078C257.371 398.556 254.979 397.208 252.496 396.046L252.657 395.9C252.658 395.9 252.658 395.9 252.658 395.899C255.462 393.415 257.975 391.138 259.768 389.456C260.787 388.617 261.723 387.681 262.562 386.661L262.365 386.44C261.241 387.168 260.184 387.996 259.208 388.912C257.333 390.496 254.736 392.718 251.958 395.204C251.958 395.204 251.958 395.204 251.958 395.204L251.222 395.856L251.222 395.857L250.805 396.232L250.631 396.388L250.846 396.481L251.358 396.703C254.056 397.932 256.679 399.32 259.213 400.859C260.229 401.534 261.287 402.144 262.38 402.686Z" fill="white" stroke="white" stroke-width="0.3"/>
<path d="M235.323 89.925C236.602 89.6727 237.918 89.6727 239.198 89.925C242.739 90.5788 245.914 92.5176 248.114 95.3692C249.647 97.3238 250.608 99.665 250.892 102.133C251.038 103.522 250.986 104.925 250.739 106.299C250.299 108.566 249.385 110.714 248.057 112.603C246.728 114.491 245.016 116.077 243.031 117.257C240.08 118.924 236.674 119.605 233.309 119.202C229.938 118.816 226.744 117.493 224.087 115.382C221.626 113.406 219.768 110.779 218.726 107.799C217.777 105.128 217.542 102.256 218.046 99.4663C218.512 97.0124 219.685 94.7483 221.421 92.9527C222.838 91.4846 224.572 90.3589 226.49 89.6611C227.931 89.1182 229.464 88.8588 231.004 88.8973C231.969 88.9171 232.928 89.0714 233.851 89.3556C234.169 89.453 234.476 89.5834 234.767 89.7445C233.541 89.3802 232.269 89.1885 230.99 89.175C229.5 89.1954 228.027 89.4872 226.643 90.0361C224.801 90.7504 223.14 91.8652 221.782 93.2999C220.148 95.0433 219.058 97.2245 218.643 99.5774C218.174 102.278 218.418 105.055 219.351 107.633C220.375 110.485 222.168 112.999 224.532 114.896C227.09 116.908 230.158 118.168 233.392 118.535C236.619 118.932 239.889 118.29 242.725 116.702C245.347 115.179 247.463 112.919 248.808 110.202C249.444 108.949 249.911 107.619 250.197 106.244C250.435 104.943 250.496 103.616 250.378 102.299C250.116 99.9246 249.208 97.667 247.753 95.772C245.646 92.9855 242.611 91.0446 239.198 90.3C237.921 90.0543 236.623 89.9288 235.323 89.925Z" fill="#9468B4"/>
<path d="M271.141 71.5374C271.163 72.0375 271.111 72.5381 270.989 73.0234C270.734 74.3621 270.353 75.6736 269.85 76.9399C268.202 81.1693 265.406 84.8547 261.777 87.5808C258.148 90.3069 253.83 91.9655 249.309 92.3698C247.956 92.5043 246.593 92.5043 245.24 92.3698C244.74 92.3545 244.244 92.2704 243.768 92.1198C243.768 91.9809 245.893 92.2865 249.253 91.8559C253.638 91.3224 257.805 89.6455 261.337 86.9934C264.869 84.3413 267.642 80.8072 269.378 76.7455C270.711 73.6345 270.989 71.5096 271.141 71.5374Z" fill="#9468B4"/>
<path d="M273.766 73.9274C272.663 72.876 271.726 71.6632 270.988 70.3304H271.544L271.377 70.497C270.353 71.7295 269.15 72.8015 267.808 73.6774C268.63 72.3006 269.661 71.0591 270.863 69.997L271.03 69.8304L271.349 69.4971L271.585 69.8859C272.519 71.111 273.254 72.4747 273.766 73.9274Z" fill="#9468B4"/>
<path d="M310.015 90.1621H287.196V112.981H310.015V90.1621Z" fill="#9468B4"/>
<path d="M308.824 64.04L286.202 67.0303L289.192 89.6519L311.814 86.6617L308.824 64.04Z" fill="#9468B4"/>
<path d="M305.265 39.5098L282.644 42.5L285.634 65.1217L308.255 62.1314L305.265 39.5098Z" fill="#455A64"/>
<path d="M273.98 42.6417L251.387 39.4463L248.191 62.0399L270.785 65.2353L273.98 42.6417Z" fill="#9468B4"/>
<path d="M284.029 54.609C282.099 55.0166 280.126 55.1891 278.154 55.1228C276.186 55.297 274.203 55.227 272.252 54.9145C274.187 54.5075 276.164 54.335 278.141 54.4007C280.104 54.2254 282.083 54.2954 284.029 54.609Z" fill="#9468B4"/>
<path d="M126.897 92.8152C127.207 92.8668 127.514 92.941 127.813 93.0374C128.666 93.3226 129.474 93.7245 130.216 94.2318C132.534 95.8722 134.249 98.2285 135.097 100.939C135.945 103.648 135.879 106.562 134.91 109.231C133.99 111.726 132.48 113.961 130.508 115.745C128.349 117.749 125.723 119.181 122.869 119.911C119.806 120.698 116.586 120.621 113.564 119.689C110.513 118.744 107.908 116.726 106.231 114.009C104.702 111.479 103.94 108.56 104.037 105.606C104.094 102.944 104.861 100.345 106.259 98.0788C107.497 96.1288 109.152 94.478 111.106 93.2457C113.905 91.4434 117.151 90.4575 120.48 90.3986C121.377 90.3748 122.275 90.4352 123.161 90.5792C123.473 90.6058 123.781 90.6712 124.077 90.7736C124.077 90.8569 122.8 90.5792 120.494 90.6764C117.242 90.8366 114.094 91.8731 111.383 93.6763C109.521 94.8955 107.947 96.5071 106.773 98.3983C105.456 100.58 104.742 103.072 104.703 105.62C104.624 108.44 105.362 111.223 106.828 113.634C108.419 116.201 110.886 118.105 113.772 118.995C116.667 119.892 119.753 119.968 122.688 119.217C125.428 118.532 127.956 117.182 130.049 115.286C131.954 113.592 133.422 111.462 134.327 109.078C135.112 106.997 135.328 104.744 134.952 102.551C134.41 99.3373 132.649 96.4568 130.035 94.5095C129.062 93.819 128.008 93.2501 126.897 92.8152Z" fill="#9468B4"/>
<path d="M179.534 58.0811C179.599 58.321 179.632 58.5685 179.631 58.8171C179.631 59.2893 179.728 59.9976 179.714 60.9004C179.724 63.4733 179.482 66.0409 178.992 68.5667C178.289 72.3239 177.079 75.9682 175.395 79.3996C171.311 87.9015 164.453 94.7591 155.951 98.8432C152.516 100.521 148.873 101.735 145.118 102.454C142.593 102.948 140.025 103.185 137.452 103.162C136.752 103.172 136.052 103.144 135.355 103.079C135.112 103.078 134.87 103.05 134.633 102.996C134.633 102.926 135.647 102.996 137.41 102.885C148.441 102.501 158.93 98.0137 166.826 90.3019C172.737 84.2966 176.796 76.7179 178.52 68.4695C179.042 65.9768 179.358 63.4451 179.464 60.9004C179.438 59.96 179.462 59.019 179.534 58.0811Z" fill="#9468B4"/>
<path d="M185.603 63.6083C183.506 61.3502 181.584 58.9359 179.853 56.3864H180.45L180.186 56.8724C178.671 59.7789 176.934 62.5647 174.992 65.2054C176.304 62.2171 177.826 59.3257 179.548 56.553L179.825 56.0669L180.103 55.5947L180.436 56.0392C182.341 58.433 184.067 60.9628 185.603 63.6083Z" fill="#9468B4"/>
</svg>
