<svg width="36" height="36" viewBox="0 0 36 36" fill="none" xmlns="http://www.w3.org/2000/svg">
<g clip-path="url(#clip0)">
<path d="M18.8245 17.9961L35.83 0.990597C36.0567 0.7639 36.0567 0.396423 35.83 0.169725C35.6033 -0.0569005 35.2359 -0.0569005 35.0092 0.169725L18.0036 17.1753L0.998095 0.169725C0.767479 -0.0529819 0.400002 -0.046596 0.177223 0.18402C-0.0400415 0.408977 -0.0400415 0.765641 0.177223 0.990597L17.1828 17.9961L0.177223 35.0017C-0.0533937 35.2244 -0.0597796 35.5919 0.163 35.8225C0.385779 36.0531 0.753256 36.0595 0.983872 35.8368C0.988734 35.8321 0.993451 35.8273 0.998095 35.8225L18.0036 18.817L35.0092 35.8225C35.2398 36.0453 35.6073 36.0389 35.83 35.8083C36.0474 35.5834 36.0474 35.2266 35.83 35.0017L18.8245 17.9961Z" fill="#F22C5C"/>
</g>
<defs>
<clipPath id="clip0">
<rect width="36" height="36" fill="white"/>
</clipPath>
</defs>
</svg>
