<svg width="29" height="29" viewBox="0 0 29 29" fill="none" xmlns="http://www.w3.org/2000/svg">
<path d="M28.8792 5.075C28.7584 4.95419 28.6375 4.83332 28.3959 4.83332H5.4375L4.83331 1.69169C4.83331 1.45 4.47081 1.20837 4.22913 1.20837H0.604129C0.241686 1.20832 0 1.45 0 1.8125C0 2.175 0.241686 2.41669 0.604186 2.41669H3.74587L6.64587 17.1584C7.00837 19.0917 8.82087 20.5417 10.7542 20.5417H24.65C25.0125 20.5417 25.2542 20.3 25.2542 19.9375C25.2542 19.575 25.0125 19.3333 24.65 19.3333H10.875C9.90831 19.3333 8.94168 18.85 8.45831 18.0041L26.1 15.5875C26.3417 15.5875 26.5833 15.3458 26.5833 15.1042L29 5.4375C29 5.4375 29 5.19582 28.8792 5.075ZM25.4958 14.5L7.85413 16.7958L5.67913 5.92082H27.55L25.4958 14.5Z" fill="#F22C5C"/>
<path d="M10.2708 21.75C8.57919 21.75 7.25 23.0792 7.25 24.7708C7.25 26.4625 8.57919 27.7916 10.2708 27.7916C11.9625 27.7916 13.2916 26.4624 13.2916 24.7708C13.2917 23.0792 11.9625 21.75 10.2708 21.75ZM10.2708 26.5833C9.30413 26.5833 8.45831 25.7374 8.45831 24.7708C8.45831 23.8042 9.30413 22.9583 10.2708 22.9583C11.2375 22.9583 12.0833 23.8042 12.0833 24.7708C12.0833 25.7374 11.2375 26.5833 10.2708 26.5833Z" fill="#F22C5C"/>
<path d="M22.3542 21.75C20.6625 21.75 19.3334 23.0792 19.3334 24.7708C19.3334 26.4625 20.6626 27.7916 22.3542 27.7916C24.0459 27.7916 25.375 26.4624 25.375 24.7708C25.375 23.0792 24.0458 21.75 22.3542 21.75ZM22.3542 26.5833C21.3875 26.5833 20.5417 25.7374 20.5417 24.7708C20.5417 23.8042 21.3875 22.9583 22.3542 22.9583C23.3209 22.9583 24.1667 23.8042 24.1667 24.7708C24.1667 25.7374 23.3208 26.5833 22.3542 26.5833Z" fill="#F22C5C"/>
</svg>
