<svg width="21" height="21" viewBox="0 0 21 21" fill="none" xmlns="http://www.w3.org/2000/svg">
<path d="M20.9125 3.67501C20.825 3.58752 20.7375 3.49999 20.5625 3.49999H3.9375L3.49999 1.22502C3.49999 1.05 3.23749 0.875031 3.06247 0.875031H0.437473C0.175014 0.87499 0 1.05 0 1.3125C0 1.575 0.175014 1.75002 0.437514 1.75002H2.71253L4.81253 12.425C5.07503 13.825 6.38753 14.875 7.78751 14.875H17.85C18.1125 14.875 18.2875 14.7 18.2875 14.4375C18.2875 14.175 18.1125 14 17.85 14H7.875C7.17499 14 6.47501 13.65 6.12499 13.0375L18.9 11.2875C19.075 11.2875 19.25 11.1125 19.25 10.9375L21 3.93751C21 3.93751 21 3.76249 20.9125 3.67501ZM18.4625 10.5L5.68747 12.1625L4.11247 4.28749H19.95L18.4625 10.5Z" fill="white"/>
<path d="M7.43749 15.75C6.21251 15.75 5.25 16.7125 5.25 17.9375C5.25 19.1625 6.21251 20.125 7.43749 20.125C8.6625 20.125 9.62497 19.1625 9.62497 17.9375C9.62501 16.7125 8.6625 15.75 7.43749 15.75ZM7.43749 19.25C6.73747 19.25 6.12499 18.6375 6.12499 17.9375C6.12499 17.2375 6.73747 16.625 7.43749 16.625C8.1375 16.625 8.74999 17.2375 8.74999 17.9375C8.74999 18.6375 8.1375 19.25 7.43749 19.25Z" fill="white"/>
<path d="M16.1875 15.75C14.9625 15.75 14 16.7125 14 17.9375C14 19.1625 14.9625 20.125 16.1875 20.125C17.4125 20.125 18.375 19.1625 18.375 17.9375C18.375 16.7125 17.4125 15.75 16.1875 15.75ZM16.1875 19.25C15.4875 19.25 14.875 18.6375 14.875 17.9375C14.875 17.2375 15.4875 16.625 16.1875 16.625C16.8875 16.625 17.5 17.2375 17.5 17.9375C17.5 18.6375 16.8875 19.25 16.1875 19.25Z" fill="white"/>
</svg>
