<svg width="27" height="27" viewBox="0 0 27 27" fill="none" xmlns="http://www.w3.org/2000/svg">
<g clip-path="url(#clip0)">
<path d="M17.2241 9.78214C16.8749 9.78214 16.5918 10.0652 16.5918 10.4145V22.3653C16.5918 22.7143 16.8749 22.9976 17.2241 22.9976C17.5734 22.9976 17.8564 22.7143 17.8564 22.3653V10.4145C17.8564 10.0652 17.5734 9.78214 17.2241 9.78214Z" fill="#F22C5C"/>
<path d="M9.76269 9.78214C9.41343 9.78214 9.13037 10.0652 9.13037 10.4145V22.3653C9.13037 22.7143 9.41343 22.9976 9.76269 22.9976C10.1119 22.9976 10.395 22.7143 10.395 22.3653V10.4145C10.395 10.0652 10.1119 9.78214 9.76269 9.78214Z" fill="#F22C5C"/>
<path d="M4.32469 8.03807V23.617C4.32469 24.5378 4.66234 25.4026 5.25217 26.023C5.83929 26.6452 6.65636 26.9984 7.51147 26.9999H19.4751C20.3305 26.9984 21.1475 26.6452 21.7344 26.023C22.3242 25.4026 22.6619 24.5378 22.6619 23.617V8.03807C23.8344 7.72685 24.5941 6.59411 24.4373 5.39098C24.2802 4.1881 23.2554 3.28828 22.0422 3.28804H18.8047V2.49764C18.8084 1.83297 18.5456 1.19472 18.0751 0.725179C17.6046 0.255882 16.9653 -0.00544244 16.3007 -8.47154e-06H10.6859C10.0212 -0.00544244 9.38199 0.255882 8.91146 0.725179C8.44092 1.19472 8.17812 1.83297 8.18182 2.49764V3.28804H4.94441C3.73115 3.28828 2.70636 4.1881 2.54926 5.39098C2.39242 6.59411 3.15219 7.72685 4.32469 8.03807ZM19.4751 25.7353H7.51147C6.43035 25.7353 5.58932 24.8066 5.58932 23.617V8.09364H21.3972V23.617C21.3972 24.8066 20.5562 25.7353 19.4751 25.7353ZM9.44646 2.49764C9.44226 2.16839 9.57168 1.85149 9.80534 1.61907C10.0388 1.38664 10.3564 1.25894 10.6859 1.26462H16.3007C16.6302 1.25894 16.9478 1.38664 17.1812 1.61907C17.4149 1.85125 17.5443 2.16839 17.5401 2.49764V3.28804H9.44646V2.49764ZM4.94441 4.55267H22.0422C22.6708 4.55267 23.1803 5.06223 23.1803 5.69084C23.1803 6.31945 22.6708 6.82901 22.0422 6.82901H4.94441C4.3158 6.82901 3.80624 6.31945 3.80624 5.69084C3.80624 5.06223 4.3158 4.55267 4.94441 4.55267Z" fill="#F22C5C"/>
<path d="M13.4936 9.78214C13.1444 9.78214 12.8613 10.0652 12.8613 10.4145V22.3653C12.8613 22.7143 13.1444 22.9976 13.4936 22.9976C13.8429 22.9976 14.126 22.7143 14.126 22.3653V10.4145C14.126 10.0652 13.8429 9.78214 13.4936 9.78214Z" fill="#F22C5C"/>
</g>
<defs>
<clipPath id="clip0">
<rect width="27" height="27" fill="white"/>
</clipPath>
</defs>
</svg>
