<svg width="132" height="85" viewBox="0 0 132 85" fill="none" xmlns="http://www.w3.org/2000/svg">
<g clip-path="url(#clip0)">
<path d="M102.608 83.9378C104.124 83.6723 105.54 83.3736 106.792 83.0749H106.825C108.011 83.1745 110.547 83.3404 112.029 82.8094C111.074 82.9421 109.065 82.9089 107.813 82.8426C108.109 82.7762 108.406 82.7098 108.702 82.6102C110.58 82.6434 114.368 82.1787 115.784 81.4818C114.599 81.6809 113.05 80.8843 111.865 80.7848C114.533 79.955 121.252 79.0921 120.429 74.8437C119.638 76.0718 114.862 76.7688 114.862 76.7688C114.862 76.7688 117.925 74.6114 116.18 72.1221C116.18 71.9562 116.18 72.0889 116.18 72.0889C116.278 71.1596 116.246 69.9648 115.62 69.0355L115.191 71.0601C114.335 70.3631 113.05 69.6661 111.173 69.0023C110.745 71.1596 112.952 74.6114 112.952 74.6114C112.952 74.6114 102.411 72.7527 100.072 68.5044C97.305 63.4595 104.058 59.3439 104.058 59.3439C114.236 66.4134 128.466 65.1854 130.838 74.2795C133.243 83.4068 110.613 86.9581 102.608 83.9378Z" fill="url(#paint0_linear)"/>
<path d="M26.7143 15.7653C27.8672 10.3885 27.6037 4.31468 28.3613 4.14873C29.1189 3.98278 35.0152 12.3799 33.9611 15.4002C32.907 18.4205 31.4577 18.686 29.9424 17.8894C28.4272 17.0929 26.7143 15.7653 26.7143 15.7653Z" fill="url(#paint1_linear)"/>
<path d="M38.9021 66.8781C35.7069 68.9027 33.0059 68.9691 32.0177 65.3846C31.9518 65.1854 31.9188 65.0527 31.8859 64.8535C30.9636 60.5388 30.8977 56.4232 30.8318 52.5068C30.8318 52.4736 30.8648 52.4404 30.8648 52.4072C30.8318 51.2456 30.8318 50.0839 30.7659 48.9223C30.6342 45.5369 30.2718 42.2842 29.0531 39.2308C29.0531 39.1976 29.0201 39.1644 29.0201 39.1644C28.8554 38.7329 28.6578 38.3014 28.4601 37.87C28.3613 37.6376 28.2296 37.3721 28.0649 37.1398C27.8343 36.6751 27.5708 36.1773 27.2743 35.7126C25.1332 32.0285 22.0368 28.0125 21.378 26.3198C21.2463 26.0211 21.1804 25.7887 21.2463 25.656C21.7074 24.5939 25.1332 15.8649 26.1543 15.0019C27.1425 14.139 33.2694 14.0394 35.8387 13.5748C37.7492 13.2429 45.556 25.5232 50.7605 33.9867C50.7935 34.0199 50.8264 34.0531 50.8594 34.1195C52.1111 36.1773 53.1981 38.0027 54.0216 39.3303C54.0216 39.3635 54.0216 39.3635 54.0546 39.3635C54.384 39.8946 54.6475 40.3592 54.8781 40.7243C57.7109 45.3045 46.7419 61.966 38.9021 66.8781Z" fill="url(#paint2_radial)"/>
<path d="M26.1214 20.0136C25.8249 20.8102 25.1332 21.308 24.6061 21.1089C24.0791 20.9097 23.8814 20.08 24.1779 19.2834C24.4744 18.4868 25.1661 17.989 25.6931 18.1881C26.2531 18.3873 26.4178 19.1838 26.1214 20.0136Z" fill="#692718"/>
<path d="M28.0319 22.1709C28.3284 24.1291 27.3072 27.415 27.2743 27.5145C27.2414 27.6805 24.8367 28.5434 23.2556 29.5723C21.7074 30.6012 11.0349 30.5348 10.2443 29.9042C9.81608 29.5723 9.28904 27.9128 9.02552 26.2865C8.79494 24.8925 8.762 23.5317 9.15728 23.1666C9.4208 22.9343 11.1337 22.6024 13.4065 22.2705C16.997 21.7394 21.938 21.2084 24.5732 20.9429C25.5614 20.8433 27.9002 21.142 28.0319 22.1709Z" fill="url(#paint3_radial)"/>
<path d="M31.5895 33.1901C31.5895 33.2565 31.5566 35.7125 31.2931 37.8035C30.9966 40.2596 30.3708 42.1846 29.0202 39.2639C29.0202 39.2307 28.9873 39.1975 28.9873 39.1975C28.4273 38.0358 27.5379 37.1397 26.4509 36.4095H26.418C22.4652 33.7875 16.1077 33.5884 15.2183 33.1237C14.0654 32.5595 13.3408 30.4021 13.0772 29.7715L16.9312 27.0167L21.2793 26.3861L26.5168 25.6227C26.6156 25.5895 31.5566 32.9909 31.5895 33.1901Z" fill="url(#paint4_radial)"/>
<path d="M106.166 67.9733C103.366 72.0225 96.8108 72.3876 95.5591 71.923C93.385 71.1596 94.7356 72.8191 92.9568 72.3544C91.8039 72.0557 89.6628 72.0225 88.5099 71.8898C83.0089 71.1928 74.0821 69.8983 57.6451 74.3458C56.7886 74.5782 55.8992 74.8105 55.0099 75.0428C50.7277 76.2377 47.0713 75.5739 43.9749 74.9764C42.7562 74.7441 39.3304 74.1467 34.0271 69.8984C32.94 69.0354 32.3471 67.7742 31.7542 66.7121C31.7212 66.6789 31.7212 66.6457 31.6883 66.6125C30.2389 64.1233 29.5472 61.7336 29.4154 60.3728C29.3825 60.24 29.3825 60.1073 29.3825 59.9745C29.0531 55.4938 29.8766 51.8097 30.733 48.9554C30.766 48.8226 30.7989 48.723 30.8319 48.6235C30.8648 48.5903 30.8648 48.5571 30.8648 48.5239C31.2271 47.3954 31.5565 46.3997 31.8201 45.57C33.8624 38.6332 38.1116 35.6461 42.7232 35.3142C44.6008 35.1814 46.5443 35.4802 48.3889 36.1108C51.0571 37.0733 48.7513 31.8956 50.7606 34.0198C50.7935 34.053 50.8265 34.0862 50.8594 34.1526C51.617 35.1151 56.031 41.2884 56.2616 41.4544C56.2616 41.4876 56.2616 41.4876 56.2945 41.4876C67.8235 51.3782 79.3196 41.6867 96.4814 47.4286C112.391 52.739 109.789 62.7957 106.166 67.9733Z" fill="#CA4D2E"/>
<path d="M39.7257 58.8792C37.5187 61.5344 34.7518 67.1104 34.7518 67.1104L6.35746 72.6863C6.35746 72.6863 5.2375 72.3876 4.05166 72.4208C2.86581 72.454 2.86581 74.1799 2.86581 74.1799H3.5905L46.9396 72.3876L46.6102 66.4466C50.036 54.6641 42.2621 55.8589 39.7257 58.8792Z" fill="url(#paint5_linear)"/>
<path d="M4.97394 73.0847C5.40216 73.1179 3.72222 72.6862 3.55752 74.0143C3.42576 75.3092 3.88692 74.5788 3.88692 74.5788C3.88692 74.5788 3.72222 74.5124 3.75516 74.0807C3.85398 73.6491 4.2822 73.0183 4.97394 73.0847Z" fill="white"/>
<path d="M34.3564 14.7363C34.7517 13.3423 39.3633 -0.332062 41.3068 -0.000160323C43.2502 0.331741 44.8643 25.8882 40.8127 28.1119C36.794 30.3356 34.3564 14.7363 34.3564 14.7363Z" fill="url(#paint6_radial)"/>
<path d="M27.9003 17.5242C27.0109 19.4161 26.2863 22.9674 29.7779 24.461C33.2695 25.9877 38.5399 23.2329 36.8271 21.2415C35.1801 19.3829 35.6083 15.8647 31.6225 15.2009C30.1402 15.0018 28.5591 16.1634 27.9003 17.5242Z" fill="#B34429"/>
<path d="M91.6722 70.197C91.1122 70.1306 92.7263 71.9893 92.0345 71.9561C90.8816 71.6574 91.244 74.3126 90.0911 74.1798C84.5901 73.4829 74.8728 75.6402 57.744 75.0096C56.8546 74.9764 55.8993 74.8436 55.0099 75.076C50.7277 76.2708 45.8526 75.2751 42.7892 74.6445C43.4809 70.5621 45.6879 65.5172 45.6879 65.5172C56.4593 76.304 86.0065 67.6746 92.9569 72.3544C93.6157 72.819 91.0463 69.7656 91.6722 70.197Z" fill="#B34429"/>
<path d="M31.919 19.6153C31.8201 20.6442 31.1943 21.4408 30.5025 21.3412C29.8108 21.2748 29.3167 20.3787 29.4155 19.3498C29.5143 18.3209 30.1402 17.5243 30.8319 17.6239C31.5237 17.6903 32.0178 18.5864 31.919 19.6153Z" fill="#692718"/>
<path d="M3.72223 75.9729H0C0 75.9729 0 74.2463 1.18584 74.2131C2.37168 74.1799 3.49164 74.4788 3.49164 74.4788L3.72223 75.9729Z" fill="#CA4D2E"/>
<path d="M13.4065 22.2705C14.4606 26.1869 10.4749 26.5852 9.02552 26.3197C8.79494 24.9257 8.762 23.5649 9.15728 23.1998C9.4208 22.9343 11.1337 22.6024 13.4065 22.2705Z" fill="#692718"/>
<path d="M30.4036 15.3005C31.5565 15.0681 33.3352 16.1637 33.2694 16.7282C33.2035 17.2926 28.2295 15.7653 30.4036 15.3005Z" fill="#692718"/>
<path d="M25.0345 17.1597C26.3191 17.1265 26.9121 16.1636 26.6485 15.8316C26.385 15.4996 22.7945 17.2261 25.0345 17.1597Z" fill="#692718"/>
<path d="M13.0772 30.3034L21.1475 30.3366L24.0463 29.8717C24.0463 29.8717 25.3968 29.6725 25.6274 29.4401C26.2533 28.8093 25.7592 27.4812 24.9686 27.9128C23.8816 28.5105 24.1451 29.0749 24.1451 29.0749L21.444 29.905L13.0772 30.3034Z" fill="#692718"/>
<path d="M35.6412 15.5666C35.9706 14.4381 39.7587 1.26161 40.7798 1.49394C41.801 1.72627 41.768 12.5131 41.768 12.5131L42.5915 11.7497L41.768 14.7368C41.768 14.7368 41.6363 21.0098 41.0434 21.4744C40.4504 21.9723 35.4436 16.3299 35.6412 15.5666Z" fill="#B34429"/>
<path d="M40.4174 74.6123C40.1868 73.9815 39.9562 73.2178 39.7256 72.3546C40.4174 72.421 41.1091 72.6202 41.8338 72.9854C41.3067 73.8486 40.8126 74.5791 40.5491 74.6787C40.5162 74.6455 40.4832 74.6455 40.4174 74.6123Z" fill="#B34429"/>
<path d="M42.2291 73.2174C42.0974 73.151 41.9656 73.0846 41.8339 72.985C42.7232 71.5579 43.6785 69.7324 43.6785 69.7324L42.2291 73.2174Z" fill="#B34429"/>
<path d="M43.9751 51.5773C37.8811 58.4145 38.8035 63.3599 38.9352 66.9112C38.9352 67.5086 38.9682 67.9733 39.0011 68.3384C39.067 69.4668 39.3964 70.9936 39.7917 72.3876C38.6388 72.2216 37.5188 72.3212 36.5306 72.288C36.3988 72.1884 36.2671 72.0889 36.1683 71.9893C35.3777 71.3587 34.686 70.6617 34.0601 69.9315C33.1378 68.9026 32.3802 67.8073 31.7872 66.7453C31.7872 66.6457 31.7543 66.6125 31.7214 66.6457C30.272 64.1564 29.5803 61.7667 29.4485 60.4059C29.4156 60.2732 29.4156 60.1404 29.4156 60.0077C29.0862 55.527 29.9097 51.8429 30.7661 48.9885C30.6343 45.6031 30.272 42.3505 29.0532 39.297C29.0532 39.2638 29.0203 39.2306 29.0203 39.2306C28.4603 38.0689 27.5709 37.1728 26.4839 36.4426C27.0109 36.7413 27.538 37.0069 28.065 37.2392C29.152 37.6707 30.2391 37.903 31.3261 37.8366C33.6648 37.7702 35.9706 36.4758 38.2435 33.5219C40.7469 30.2693 41.0434 28.8753 42.4598 34.2189C42.5586 34.584 42.6575 34.9491 42.7563 35.3474C44.3045 40.7242 45.6221 49.7187 43.9751 51.5773Z" fill="#B34429"/>
<path d="M50.7607 47.9265C48.1584 49.0217 45.8526 50.5485 43.8433 52.3739C41.834 54.1994 40.2858 56.4563 39.1329 58.8792C37.947 61.3021 37.3541 63.9573 36.9588 66.6789C36.4977 69.4005 36.4977 72.1553 36.333 75.0096C35.6412 72.288 35.1471 69.4005 35.4106 66.5129C35.5753 63.6254 36.2341 60.7379 37.5517 58.1158C38.8364 55.4938 40.714 53.1373 43.0198 51.4114C45.3256 49.6523 47.9937 48.4243 50.7607 47.9265Z" fill="#B34429"/>
<path d="M54.5487 66.845L43.5468 76.7689L0.527069 75.9723C0.527069 75.9723 2.99757 75.6072 2.79993 74.8438C3.45873 75.3749 3.49167 74.4787 3.49167 74.4787L32.7424 71.2593C32.7424 71.2593 38.9352 58.0828 41.1421 55.4276C43.6785 52.4073 57.9745 55.0957 54.5487 66.845Z" fill="#CA4D2E"/>
<path d="M81.9877 48.1588C78.3972 49.2873 76.7832 48.5239 76.7832 55.2947C76.7832 59.3771 79.5831 62.2978 90.058 71.1596C87.9169 72.8191 75.5973 74.4454 71.4139 73.9807C70.2281 73.848 70.7881 75.607 70.7881 75.607C70.7881 75.607 87.8181 75.5739 93.2861 75.076C99.4459 74.4786 102.674 75.2751 103.168 74.1135C104.156 71.7902 89.9592 62.1982 106.726 56.4895C110.382 55.2615 98.293 42.9811 81.9877 48.1588Z" fill="#CA4D2E"/>
<path d="M67.2965 75.5413C67.2965 74.7445 67.8235 73.3832 68.7458 73.5492C71.5457 74.0805 72.4681 74.0805 72.4681 74.0805L72.7645 75.5413C72.7645 75.5413 67.2965 76.0062 67.2965 75.5413Z" fill="#CA4D2E"/>
<path d="M69.5035 74.5781C69.1741 74.6113 68.2518 74.8769 68.2847 75.7402C68.6471 76.3378 68.5483 75.873 68.5483 75.873C68.5483 75.873 68.3506 75.0097 69.5035 74.5781Z" fill="white"/>
<path d="M101.159 60.2068C100.27 62.0322 99.8742 63.9905 100.138 65.9487C100.401 67.9069 101.192 69.7656 102.213 71.4914C100.994 69.8983 100.006 68.0397 99.7095 66.0151C99.3801 63.9905 99.7754 61.7003 101.159 60.2068Z" fill="#B34429"/>
<path d="M90.091 71.1596C87.0934 68.8694 84.0959 66.5461 81.3948 63.8577C80.0443 62.5301 78.7267 61.1361 77.6067 59.5098C77.0797 58.6801 76.5856 57.7839 76.322 56.7882C76.0585 55.7925 76.0915 54.5977 76.5526 53.5688L76.5856 53.5356V53.5024C77.442 52.3739 78.4961 51.7101 79.6819 51.2123C80.8348 50.7476 82.0866 50.5485 83.3053 50.6149C84.5241 50.6481 85.71 50.9136 86.8299 51.2123C87.9499 51.6106 89.0369 52.0752 90.058 52.6395C89.4981 52.4735 88.9381 52.3408 88.3781 52.1748L86.6982 51.8097C85.5782 51.6438 84.4253 51.4778 83.3053 51.5774C82.1854 51.6769 81.0984 51.8429 80.1102 52.3076C79.1549 52.739 78.1996 53.436 77.7055 54.2326L77.7385 54.1662C77.0467 55.5934 77.6396 57.4188 78.4631 59.012C79.2866 60.6383 80.4725 62.1318 81.6913 63.559C84.2935 66.2806 87.1264 68.8031 90.091 71.1596Z" fill="#B34429"/>
</g>
<defs>
<linearGradient id="paint0_linear" x1="99.6686" y1="65.9934" x2="126.367" y2="84.2727" gradientUnits="userSpaceOnUse">
<stop stop-color="#85321E"/>
<stop offset="1" stop-color="#CA4D2E"/>
</linearGradient>
<linearGradient id="paint1_linear" x1="30.8102" y1="16.3474" x2="27.361" y2="4.17646" gradientUnits="userSpaceOnUse">
<stop stop-color="#85321E"/>
<stop offset="1" stop-color="#CA4D2E"/>
</linearGradient>
<radialGradient id="paint2_radial" cx="0" cy="0" r="1" gradientUnits="userSpaceOnUse" gradientTransform="translate(-5.3088 3.33182) scale(54.0322 54.4425)">
<stop stop-color="#FFBB45"/>
<stop offset="1" stop-color="#CA4D2E"/>
</radialGradient>
<radialGradient id="paint3_radial" cx="0" cy="0" r="1" gradientUnits="userSpaceOnUse" gradientTransform="translate(-5.74371 11.2014) rotate(-12.0058) scale(50.8898 51.2429)">
<stop stop-color="#FFBB45"/>
<stop offset="1" stop-color="#CA4D2E"/>
</radialGradient>
<radialGradient id="paint4_radial" cx="0" cy="0" r="1" gradientUnits="userSpaceOnUse" gradientTransform="translate(-5.74349 11.2016) rotate(-12.0057) scale(50.8894 51.2424)">
<stop stop-color="#FFBB45"/>
<stop offset="1" stop-color="#CA4D2E"/>
</radialGradient>
<linearGradient id="paint5_linear" x1="33.225" y1="65.9528" x2="-3.46785" y2="69.9855" gradientUnits="userSpaceOnUse">
<stop stop-color="#85321E"/>
<stop offset="1" stop-color="#CA4D2E"/>
</linearGradient>
<radialGradient id="paint6_radial" cx="0" cy="0" r="1" gradientUnits="userSpaceOnUse" gradientTransform="translate(-5.744 11.2018) rotate(-12.0057) scale(50.8901 51.2431)">
<stop stop-color="#FFBB45"/>
<stop offset="1" stop-color="#CA4D2E"/>
</radialGradient>
<clipPath id="clip0">
<rect width="131.003" height="85" fill="white"/>
</clipPath>
</defs>
</svg>
