<svg width="50" height="32" viewBox="0 0 50 32" fill="none" xmlns="http://www.w3.org/2000/svg">
<g clip-path="url(#clip0)">
<path d="M39.1627 31.6002C39.741 31.5002 40.2816 31.3878 40.7594 31.2753H40.772C41.2246 31.3128 42.1926 31.3753 42.7584 31.1754C42.3938 31.2253 41.6269 31.2128 41.1491 31.1879C41.2623 31.1629 41.3754 31.1379 41.4886 31.1004C42.2052 31.1129 43.651 30.938 44.1916 30.6756C43.739 30.7505 43.1481 30.4506 42.6955 30.4132C43.7139 30.1008 46.2786 29.7759 45.9643 28.1765C45.6626 28.6388 43.8396 28.9012 43.8396 28.9012C43.8396 28.9012 45.0088 28.0891 44.3425 27.1519C44.3425 27.0895 44.3425 27.1394 44.3425 27.1394C44.3802 26.7896 44.3676 26.3397 44.1288 25.9899L43.9653 26.7521C43.6384 26.4897 43.1481 26.2273 42.4315 25.9774C42.2681 26.7896 43.1104 28.0891 43.1104 28.0891C43.1104 28.0891 39.0873 27.3893 38.1946 25.79C37.1386 23.8907 39.7159 22.3413 39.7159 22.3413C43.6007 25.0028 49.032 24.5404 49.9372 27.9641C50.8549 31.4003 42.2178 32.7372 39.1627 31.6002Z" fill="url(#paint0_linear)"/>
<path d="M10.1961 5.93585C10.6361 3.91164 10.5355 1.62503 10.8247 1.56256C11.1139 1.50008 13.3643 4.66135 12.962 5.79841C12.5597 6.93546 12.0065 7.03542 11.4282 6.73554C10.8498 6.43566 10.1961 5.93585 10.1961 5.93585Z" fill="url(#paint1_linear)"/>
<path d="M14.8479 25.1777C13.6284 25.9399 12.5974 25.9649 12.2203 24.6155C12.1951 24.5405 12.1825 24.4905 12.17 24.4155C11.8179 22.7912 11.7928 21.2418 11.7677 19.7673C11.7677 19.7549 11.7802 19.7424 11.7802 19.7299C11.7677 19.2925 11.7677 18.8552 11.7425 18.4179C11.6922 17.1434 11.5539 15.9189 11.0888 14.7693C11.0888 14.7568 11.0762 14.7443 11.0762 14.7443C11.0133 14.5819 10.9379 14.4194 10.8625 14.257C10.8247 14.1695 10.7744 14.0696 10.7116 13.9821C10.6236 13.8072 10.523 13.6198 10.4099 13.4448C9.59265 12.0579 8.41086 10.546 8.15941 9.9087C8.10912 9.79624 8.08398 9.70878 8.10912 9.6588C8.28513 9.25895 9.59265 5.97274 9.98239 5.64786C10.3596 5.32299 12.698 5.28551 13.6786 5.11057C14.4078 4.98562 17.3875 9.60882 19.3739 12.7951C19.3865 12.8076 19.399 12.8201 19.4116 12.8451C19.8894 13.6198 20.3042 14.307 20.6185 14.8068C20.6185 14.8193 20.6186 14.8193 20.6311 14.8193C20.7568 15.0192 20.8574 15.1941 20.9454 15.3316C22.0266 17.0559 17.8401 23.3285 14.8479 25.1777Z" fill="url(#paint2_radial)"/>
<path d="M9.96979 7.53482C9.85664 7.83481 9.59262 8.02231 9.39147 7.94731C9.19031 7.87231 9.11488 7.55982 9.22803 7.25983C9.34118 6.95984 9.6052 6.77235 9.80635 6.84735C10.0201 6.92235 10.0829 7.22233 9.96979 7.53482Z" fill="#692718"/>
<path d="M10.699 8.34675C10.8122 9.08396 10.4224 10.321 10.4098 10.3585C10.3973 10.4209 9.47949 10.7458 8.87602 11.1332C8.28512 11.5205 4.2117 11.4955 3.90996 11.2581C3.74652 11.1332 3.54537 10.5084 3.44479 9.89614C3.35678 9.37135 3.34421 8.85905 3.49508 8.7216C3.59566 8.63413 4.24941 8.50918 5.1169 8.38423C6.48728 8.18431 8.37313 7.98439 9.37891 7.88443C9.75608 7.84694 10.6487 7.9594 10.699 8.34675Z" fill="url(#paint3_radial)"/>
<path d="M12.0568 12.4952C12.0568 12.5202 12.0443 13.4448 11.9437 14.232C11.8305 15.1566 11.5917 15.8813 11.0762 14.7818C11.0762 14.7693 11.0636 14.7568 11.0636 14.7568C10.8499 14.3195 10.5104 13.9821 10.0956 13.7072H10.083C8.57431 12.7201 6.14785 12.6451 5.8084 12.4702C5.36837 12.2578 5.09178 11.4456 4.9912 11.2082L6.46216 10.1711L8.1217 9.93367L10.1207 9.64628C10.1584 9.63379 12.0443 12.4202 12.0568 12.4952Z" fill="url(#paint4_radial)"/>
<path d="M40.5205 25.59C39.4518 27.1144 36.95 27.2518 36.4722 27.0769C35.6424 26.7895 36.1579 27.4143 35.479 27.2393C35.039 27.1269 34.2218 27.1144 33.7817 27.0644C31.6822 26.802 28.2751 26.3147 22.0015 27.989C21.6746 28.0765 21.3352 28.164 20.9957 28.2514C19.3613 28.7013 17.9658 28.4513 16.784 28.2264C16.3188 28.139 15.0113 27.9141 12.9872 26.3147C12.5723 25.9898 12.346 25.515 12.1197 25.1152C12.1071 25.1027 12.1071 25.0902 12.0945 25.0777C11.5414 24.1405 11.2773 23.2409 11.227 22.7286C11.2145 22.6786 11.2145 22.6286 11.2145 22.5786C11.0887 20.8918 11.4031 19.5048 11.7299 18.4303C11.7425 18.3803 11.7551 18.3428 11.7677 18.3053C11.7802 18.2928 11.7802 18.2803 11.7802 18.2678C11.9185 17.843 12.0442 17.4681 12.1448 17.1558C12.9243 14.5443 14.5461 13.4197 16.3063 13.2948C17.0229 13.2448 17.7646 13.3572 18.4687 13.5947C19.487 13.957 18.607 12.0078 19.3739 12.8075C19.3865 12.82 19.399 12.8324 19.4116 12.8574C19.7008 13.2198 21.3855 15.5439 21.4735 15.6064C21.4735 15.6189 21.4735 15.6189 21.486 15.6189C25.8863 19.3424 30.2741 15.6938 36.8242 17.8555C42.8967 19.8547 41.9034 23.6407 40.5205 25.59Z" fill="#CA4D2E"/>
<path d="M15.1622 22.1664C14.3199 23.166 13.2638 25.2652 13.2638 25.2652L2.42647 27.3644C2.42647 27.3644 1.99902 27.2519 1.54641 27.2644C1.09381 27.2769 1.09381 27.9267 1.09381 27.9267H1.3704L17.9155 27.2519L17.7898 25.0153C19.0973 20.5796 16.1303 21.0294 15.1622 22.1664Z" fill="url(#paint5_linear)"/>
<path d="M1.89838 27.5143C2.06182 27.5268 1.42063 27.3643 1.35777 27.8643C1.30748 28.3518 1.48349 28.0768 1.48349 28.0768C1.48349 28.0768 1.42063 28.0518 1.4332 27.8893C1.47092 27.7268 1.63436 27.4893 1.89838 27.5143Z" fill="white"/>
<path d="M13.1129 5.54781C13.2637 5.02302 15.0239 -0.124972 15.7656 -2.08628e-05C16.5074 0.12493 17.1234 9.74617 15.577 10.5833C14.0432 11.4205 13.1129 5.54781 13.1129 5.54781Z" fill="url(#paint6_radial)"/>
<path d="M10.6488 6.59748C10.3093 7.30971 10.0327 8.64668 11.3654 9.20896C12.698 9.78374 14.7096 8.74664 14.0558 7.99694C13.4272 7.29721 13.5907 5.97273 12.0694 5.72282C11.5037 5.64785 10.9002 6.08518 10.6488 6.59748Z" fill="#B34429"/>
<path d="M34.9887 26.4273C34.775 26.4023 35.3911 27.102 35.127 27.0895C34.687 26.9771 34.8253 27.9767 34.3853 27.9267C32.2857 27.6643 28.5769 28.4765 22.0393 28.2391C21.6998 28.2266 21.3352 28.1766 20.9958 28.2641C19.3614 28.7139 17.5007 28.339 16.3315 28.1016C16.5955 26.5647 17.4378 24.6655 17.4378 24.6655C21.549 28.7264 32.8263 25.4776 35.4791 27.2395C35.7305 27.4144 34.7499 26.2648 34.9887 26.4273Z" fill="#B34429"/>
<path d="M12.1826 7.38492C12.1449 7.77241 11.906 8.0724 11.642 8.0349C11.378 8.0099 11.1894 7.67241 11.2271 7.28492C11.2648 6.89744 11.5037 6.59745 11.7677 6.63494C12.0317 6.65994 12.2203 6.99743 12.1826 7.38492Z" fill="#692718"/>
<path d="M1.42067 28.6017H0C0 28.6017 0 27.9517 0.452602 27.9392C0.905205 27.9267 1.33266 28.0392 1.33266 28.0392L1.42067 28.6017Z" fill="#CA4D2E"/>
<path d="M5.1169 8.38422C5.51922 9.85917 3.99797 10.0092 3.44479 9.90917C3.35678 9.38418 3.34421 8.8717 3.49508 8.7342C3.59566 8.63421 4.24941 8.50921 5.1169 8.38422Z" fill="#692718"/>
<path d="M11.6042 5.76029C12.0442 5.6728 12.7231 6.08528 12.698 6.29777C12.6728 6.51027 10.7744 5.93529 11.6042 5.76029Z" fill="#692718"/>
<path d="M9.55495 6.46018C10.0453 6.44768 10.2716 6.08519 10.171 5.9602C10.0704 5.8352 8.70004 6.48518 9.55495 6.46018Z" fill="#692718"/>
<path d="M4.9912 11.4084L8.07141 11.4209L9.17777 11.2459C9.17777 11.2459 9.69324 11.1709 9.78124 11.0834C10.0201 10.8459 9.83153 10.3459 9.5298 10.5084C9.11491 10.7334 9.21549 10.9459 9.21549 10.9459L8.18456 11.2584L4.9912 11.4084Z" fill="#692718"/>
<path d="M13.6032 5.86048C13.7289 5.43564 15.1748 0.475078 15.5645 0.562544C15.9542 0.65001 15.9417 4.71092 15.9417 4.71092L16.256 4.42354L15.9417 5.5481C15.9417 5.5481 15.8914 7.90968 15.6651 8.08461C15.4388 8.27203 13.5278 6.14786 13.6032 5.86048Z" fill="#B34429"/>
<path d="M15.4262 28.0894C15.3382 27.8519 15.2501 27.5644 15.1621 27.2394C15.4262 27.2644 15.6902 27.3394 15.9668 27.4769C15.7656 27.8019 15.577 28.0769 15.4764 28.1144C15.4639 28.1019 15.4513 28.1019 15.4262 28.0894Z" fill="#B34429"/>
<path d="M16.1177 27.5647C16.0674 27.5397 16.0171 27.5147 15.9668 27.4772C16.3063 26.9397 16.6709 26.2523 16.6709 26.2523L16.1177 27.5647Z" fill="#B34429"/>
<path d="M16.784 19.4174C14.4581 21.9914 14.8102 23.8532 14.8604 25.1902C14.8604 25.4151 14.873 25.59 14.8856 25.7275C14.9107 26.1523 15.0365 26.7271 15.1873 27.2519C14.7473 27.1894 14.3198 27.2269 13.9427 27.2144C13.8924 27.1769 13.8421 27.1394 13.8044 27.1019C13.5026 26.8645 13.2386 26.6021 12.9997 26.3272C12.6477 25.9399 12.3586 25.5275 12.1323 25.1277C12.1323 25.0902 12.1197 25.0777 12.1071 25.0902C11.5539 24.1531 11.2899 23.2534 11.2396 22.7411C11.2271 22.6911 11.2271 22.6412 11.2271 22.5912C11.1013 20.9043 11.4156 19.5174 11.7425 18.4428C11.6922 17.1683 11.5539 15.9438 11.0888 14.7942C11.0888 14.7817 11.0762 14.7692 11.0762 14.7692C10.8625 14.3319 10.523 13.9945 10.1081 13.7196C10.3093 13.8321 10.5104 13.9321 10.7116 14.0195C11.1265 14.182 11.5414 14.2694 11.9562 14.2444C12.8489 14.2194 13.7289 13.7321 14.5964 12.6201C15.5519 11.3956 15.6651 10.8708 16.2057 12.8825C16.2434 13.0199 16.2811 13.1574 16.3188 13.3073C16.9097 15.3315 17.4126 18.7177 16.784 19.4174Z" fill="#B34429"/>
<path d="M19.374 18.0429C18.3808 18.4552 17.5007 19.03 16.7338 19.7173C15.9669 20.4045 15.376 21.2542 14.9359 22.1663C14.4833 23.0784 14.257 24.078 14.1062 25.1026C13.9302 26.1272 13.9302 27.1643 13.8673 28.2389C13.6033 27.2143 13.4147 26.1272 13.5153 25.0402C13.5781 23.9531 13.8296 22.866 14.3325 21.8789C14.8228 20.8918 15.5394 20.0046 16.4195 19.3549C17.2995 18.6927 18.3179 18.2303 19.374 18.0429Z" fill="#B34429"/>
<path d="M20.8197 25.1652L16.6206 28.9013L0.201149 28.6014C0.201149 28.6014 1.14407 28.4639 1.06864 28.1765C1.32008 28.3765 1.33266 28.0391 1.33266 28.0391L12.4968 26.8271C12.4968 26.8271 14.8604 21.8665 15.7028 20.8669C16.6708 19.7298 22.1272 20.7419 20.8197 25.1652Z" fill="#CA4D2E"/>
<path d="M31.2924 18.1305C29.922 18.5553 29.306 18.2679 29.306 20.8169C29.306 22.3538 30.3746 23.4534 34.3726 26.7896C33.5554 27.4144 28.8534 28.0266 27.2567 27.8517C26.8041 27.8017 27.0178 28.4639 27.0178 28.4639C27.0178 28.4639 33.5177 28.4515 35.6047 28.264C37.9557 28.0391 39.1878 28.339 39.3764 27.9017C39.7536 27.027 34.3349 23.4159 40.7342 21.2668C42.1297 20.8044 37.5157 16.1813 31.2924 18.1305Z" fill="#CA4D2E"/>
<path d="M25.6852 28.4392C25.6852 28.1392 25.8863 27.6268 26.2383 27.6892C27.307 27.8892 27.659 27.8892 27.659 27.8892L27.7722 28.4392C27.7722 28.4392 25.6852 28.6142 25.6852 28.4392Z" fill="#CA4D2E"/>
<path d="M26.5276 28.0765C26.4018 28.089 26.0498 28.189 26.0624 28.514C26.2007 28.7389 26.163 28.564 26.163 28.564C26.163 28.564 26.0875 28.239 26.5276 28.0765Z" fill="white"/>
<path d="M38.6095 22.6661C38.2701 23.3534 38.1192 24.0906 38.2198 24.8278C38.3204 25.565 38.6221 26.2647 39.0118 26.9145C38.5467 26.3147 38.1695 25.615 38.0563 24.8528C37.9306 24.0906 38.0815 23.2284 38.6095 22.6661Z" fill="#B34429"/>
<path d="M34.3852 26.7896C33.2411 25.9274 32.0971 25.0528 31.0661 24.0406C30.5507 23.5408 30.0478 23.0161 29.6203 22.4038C29.4192 22.0914 29.2306 21.754 29.13 21.3792C29.0294 21.0043 29.042 20.5545 29.218 20.1672L29.2306 20.1547V20.1422C29.5575 19.7173 29.9598 19.4674 30.4124 19.28C30.8524 19.1051 31.3302 19.0301 31.7953 19.0551C32.2605 19.0676 32.7131 19.1676 33.1406 19.28C33.568 19.43 33.9829 19.6049 34.3727 19.8173C34.1589 19.7548 33.9452 19.7048 33.7315 19.6424L33.0903 19.5049C32.6628 19.4424 32.2228 19.38 31.7953 19.4175C31.3679 19.4549 30.953 19.5174 30.5758 19.6924C30.2112 19.8548 29.8466 20.1172 29.658 20.4171L29.6706 20.3921C29.4066 20.9294 29.6329 21.6166 29.9472 22.2164C30.2615 22.8286 30.7141 23.3909 31.1793 23.9282C32.1725 24.9528 33.2537 25.9024 34.3852 26.7896Z" fill="#B34429"/>
</g>
<defs>
<linearGradient id="paint0_linear" x1="38.0407" y1="24.8446" x2="48.1411" y2="31.8555" gradientUnits="userSpaceOnUse">
<stop stop-color="#85321E"/>
<stop offset="1" stop-color="#CA4D2E"/>
</linearGradient>
<linearGradient id="paint1_linear" x1="11.7594" y1="6.15501" x2="10.476" y2="1.56376" gradientUnits="userSpaceOnUse">
<stop stop-color="#85321E"/>
<stop offset="1" stop-color="#CA4D2E"/>
</linearGradient>
<radialGradient id="paint2_radial" cx="0" cy="0" r="1" gradientUnits="userSpaceOnUse" gradientTransform="translate(-2.0262 1.2544) scale(20.6226 20.496)">
<stop stop-color="#FFBB45"/>
<stop offset="1" stop-color="#CA4D2E"/>
</radialGradient>
<radialGradient id="paint3_radial" cx="0" cy="0" r="1" gradientUnits="userSpaceOnUse" gradientTransform="translate(-2.19221 4.21705) rotate(-11.8468) scale(19.4118 19.3028)">
<stop stop-color="#FFBB45"/>
<stop offset="1" stop-color="#CA4D2E"/>
</radialGradient>
<radialGradient id="paint4_radial" cx="0" cy="0" r="1" gradientUnits="userSpaceOnUse" gradientTransform="translate(-2.19214 4.21715) rotate(-11.8468) scale(19.4117 19.3026)">
<stop stop-color="#FFBB45"/>
<stop offset="1" stop-color="#CA4D2E"/>
</radialGradient>
<linearGradient id="paint5_linear" x1="12.6811" y1="24.8294" x2="-1.31892" y2="26.3893" gradientUnits="userSpaceOnUse">
<stop stop-color="#85321E"/>
<stop offset="1" stop-color="#CA4D2E"/>
</linearGradient>
<radialGradient id="paint6_radial" cx="0" cy="0" r="1" gradientUnits="userSpaceOnUse" gradientTransform="translate(-2.19233 4.21719) rotate(-11.8468) scale(19.4119 19.3028)">
<stop stop-color="#FFBB45"/>
<stop offset="1" stop-color="#CA4D2E"/>
</radialGradient>
<clipPath id="clip0">
<rect width="50" height="32" fill="white"/>
</clipPath>
</defs>
</svg>
