<svg width="30" height="30" viewBox="0 0 30 30" fill="none" xmlns="http://www.w3.org/2000/svg">
<g id="Icon/Fill/facebook">
<path id="Mask" fill-rule="evenodd" clip-rule="evenodd" d="M21.25 4.37402C21.25 4.02902 20.9688 3.74902 20.625 3.74902H17.5C14.0475 3.74902 11.25 6.26777 11.25 9.37402V12.749H8.125C7.78 12.749 7.5 13.029 7.5 13.374V16.624C7.5 16.969 7.78 17.249 8.125 17.249H11.25V25.624C11.25 25.969 11.53 26.249 11.875 26.249H15.625C15.9688 26.249 16.25 25.969 16.25 25.624V17.249H19.5238C19.805 17.249 20.0513 17.0615 20.1275 16.7915L21.0287 13.5415C21.14 13.144 20.84 12.749 20.4275 12.749H16.25V9.37402C16.25 8.75277 16.8088 8.24902 17.5 8.24902H20.625C20.9688 8.24902 21.25 7.96902 21.25 7.62402V4.37402Z" fill="white"/>
<mask id="mask0" mask-type="alpha" maskUnits="userSpaceOnUse" x="7" y="3" width="15" height="24">
<path id="Mask_2" fill-rule="evenodd" clip-rule="evenodd" d="M21.25 4.37402C21.25 4.02902 20.9688 3.74902 20.625 3.74902H17.5C14.0475 3.74902 11.25 6.26777 11.25 9.37402V12.749H8.125C7.78 12.749 7.5 13.029 7.5 13.374V16.624C7.5 16.969 7.78 17.249 8.125 17.249H11.25V25.624C11.25 25.969 11.53 26.249 11.875 26.249H15.625C15.9688 26.249 16.25 25.969 16.25 25.624V17.249H19.5238C19.805 17.249 20.0513 17.0615 20.1275 16.7915L21.0287 13.5415C21.14 13.144 20.84 12.749 20.4275 12.749H16.25V9.37402C16.25 8.75277 16.8088 8.24902 17.5 8.24902H20.625C20.9688 8.24902 21.25 7.96902 21.25 7.62402V4.37402Z" fill="white"/>
</mask>
<g mask="url(#mask0)">
<g id="&#240;&#159;&#142;&#168; Color">
<rect id="Base" y="-0.000976562" width="30" height="30" fill="white"/>
</g>
</g>
</g>
</svg>
