<svg width="80" height="48" viewBox="0 0 80 48" fill="none" xmlns="http://www.w3.org/2000/svg">
<path d="M40.7645 10.0185H38.4709V4.19404L35.8645 8.44106H35.6038L32.9974 4.19404V10.0185H30.7037V-0.000976562H32.9974L35.7254 4.45406L38.4535 -0.000976562H40.7472V10.0185H40.7645Z" fill="white"/>
<path d="M47.298 6.17021V10.0185H45.0043V6.17021L41.616 -0.000976562H44.2224L46.1338 3.86468L48.0452 -0.000976562H50.6516L47.298 6.17021Z" fill="white"/>
<path d="M26.9157 -0.000976562V37.3208H19.4092V34.9806C17.7585 36.8701 15.3084 38.0315 11.9548 38.0315C5.404 38.0315 0 32.2937 0 24.8571C0 17.4205 5.404 11.6827 11.9548 11.6827C15.3084 11.6827 17.7585 12.8268 19.4092 14.7336V-0.000976562H26.9157ZM19.4092 24.8398C19.4092 21.0955 16.907 18.7553 13.4492 18.7553C9.99131 18.7553 7.48914 21.0955 7.48914 24.8398C7.48914 28.5841 9.99131 30.9243 13.4492 30.9243C16.907 30.9243 19.4092 28.5841 19.4092 24.8398Z" fill="white"/>
<path d="M26.742 24.8395C26.742 17.4029 32.6499 11.665 40 11.665C47.3501 11.665 53.2581 17.4029 53.2581 24.8395C53.2581 32.2761 47.3501 38.0139 40 38.0139C32.6499 38.0139 26.742 32.2761 26.742 24.8395ZM45.7515 24.8395C45.7515 21.3032 43.2494 18.9456 40 18.9456C36.7507 18.9456 34.2485 21.2858 34.2485 24.8395C34.2485 28.3931 36.7507 30.7333 40 30.7333C43.2494 30.7333 45.7515 28.3931 45.7515 24.8395Z" fill="white"/>
<path d="M80 12.3587V36.0727C80 44.4627 73.4492 47.999 66.7941 47.999C61.5986 47.999 57.2372 46.0575 54.9435 41.9665L61.3553 38.2742C62.311 40.025 63.7533 41.4118 67.0547 41.4118C70.5647 41.4118 72.702 39.609 72.702 36.0727V33.7845C71.0513 35.83 68.6533 37.0261 65.404 37.0261C58.2971 37.0261 53.1017 31.2362 53.1017 24.3543C53.1017 17.4724 58.2971 11.6826 65.404 11.6826C68.6533 11.6826 71.0513 12.8787 72.702 14.9242V12.3587H80ZM72.6846 24.337C72.6846 20.8874 70.1825 18.5472 66.6377 18.5472C63.093 18.5472 60.5908 20.8874 60.5908 24.337C60.5908 27.7866 63.093 30.1268 66.6377 30.1268C70.1825 30.1268 72.6846 27.7866 72.6846 24.337Z" fill="white"/>
<g filter="url(#filter0_d)">
<g opacity="0.2">
<g opacity="0.2">
<path opacity="0.2" d="M48.9314 35.0671L48.914 34.9805C48.914 34.9805 48.914 34.9805 48.9314 34.9805V35.0671Z" fill="#3E2670"/>
</g>
</g>
<path d="M48.4453 31.549C45.1439 34.912 38.9406 34.3746 38.9406 34.3746C38.9406 34.3746 32.6677 33.4732 30.2351 29.4515C27.8024 25.4125 30.9823 20.9748 30.9823 20.9748C30.9823 20.9748 31.1039 20.3681 31.3298 19.4667L31.3819 19.276C31.3819 19.276 31.3819 19.276 31.3819 19.2587C31.9901 16.8665 33.2585 12.7408 34.805 11.9087C35.083 11.7527 35.3437 11.7007 35.5696 11.718C36.3689 11.77 36.8902 12.7061 37.2203 13.6422C37.5505 14.5783 37.6547 15.497 37.6547 15.497C37.7068 15.4797 39.5313 14.769 41.2168 14.9596C42.885 15.1503 44.5009 16.2597 44.5531 16.2944C44.5531 16.2944 45.0048 15.0983 45.6999 14.1796C46.3602 13.2955 47.229 12.6541 48.1499 13.4688C49.0014 14.2142 49.4184 16.2597 49.6095 18.2706C49.8528 20.7321 49.7833 23.1763 49.7833 23.1763C49.7833 23.1763 51.7468 28.1861 48.4453 31.549Z" fill="#545176"/>
<path d="M39.861 34.4434C39.305 34.4434 38.9574 34.4088 38.9401 34.4088C38.8706 34.3914 32.6151 33.4554 30.1998 29.451C28.9314 27.3535 29.2094 25.152 29.6612 23.6785C30.1303 22.1531 30.8775 21.0437 30.947 20.957C30.9644 20.8876 31.086 20.2983 31.2945 19.4662L31.3467 19.2755C31.3467 19.2755 31.3467 19.2755 31.3467 19.2582C31.9548 16.866 33.2233 12.723 34.8045 11.8736C35.0825 11.7175 35.3432 11.6655 35.5865 11.6829C36.2641 11.7349 36.8375 12.3936 37.2719 13.6244C37.55 14.4218 37.6716 15.2192 37.7064 15.4272C38.0191 15.3058 39.6699 14.7338 41.199 14.9071H41.2337C42.7802 15.0805 44.2746 16.0512 44.5352 16.2246C44.6221 15.9992 45.0565 14.9591 45.6646 14.1444C46.1686 13.4684 46.6725 13.1043 47.159 13.0523C47.5065 13.0177 47.8541 13.139 48.1668 13.4337C48.8966 14.0751 49.3832 15.7045 49.6438 18.2528C49.8871 20.6276 49.8176 23.0025 49.8176 23.1585C49.8523 23.2625 50.3041 24.4933 50.391 26.0881C50.4605 27.6309 50.1825 29.8151 48.4796 31.5659C45.96 34.1488 41.7203 34.4434 39.861 34.4434ZM35.517 11.7522C35.3084 11.7522 35.0825 11.8216 34.8393 11.9429C33.2928 12.775 32.0417 16.9006 31.4335 19.2755C31.4335 19.2928 31.4335 19.2928 31.4335 19.2928L31.3814 19.4835C31.1555 20.3676 31.0339 20.9743 31.0339 20.9917V21.009C31.0339 21.0263 30.2346 22.1358 29.7481 23.7132C29.2963 25.1693 29.0356 27.3535 30.2867 29.4337C32.6846 33.4034 38.9053 34.3394 38.9748 34.3394C39.0269 34.3394 45.1955 34.8421 48.4448 31.5312C50.1303 29.7977 50.4084 27.6309 50.3389 26.1054C50.2693 24.4586 49.7828 23.1932 49.7828 23.1932C49.7828 23.1758 49.8523 20.7316 49.6091 18.2874C49.3484 15.7565 48.8619 14.1444 48.1495 13.5204C47.8367 13.243 47.5239 13.1217 47.1938 13.1563C46.7246 13.2083 46.2381 13.555 45.7515 14.2138C45.0739 15.1152 44.6221 16.3113 44.6221 16.3113L44.6047 16.3459H44.5526L44.5352 16.3286C44.4657 16.2939 42.9018 15.2018 41.2685 14.9938H41.2337C39.6351 14.8031 37.8627 15.4619 37.7064 15.5312L37.6542 15.5832L37.6368 15.4965C37.6368 15.4792 37.5152 14.5778 37.2024 13.659C36.907 12.827 36.4031 11.8389 35.6038 11.7695C35.5517 11.7522 35.5343 11.7522 35.517 11.7522Z" fill="#3E2670"/>
<g opacity="0.6">
<g opacity="0.6">
<path opacity="0.6" d="M44.4657 16.4498C43.6664 16.2591 42.8323 15.9991 42.033 15.8257C41.894 15.9991 41.477 16.0857 40.9905 16.0511C40.4344 15.9991 40 15.791 39.9653 15.583C38.5752 15.5137 37.5847 15.6524 37.5847 15.6524C37.6369 15.635 39.4614 14.9243 41.1469 15.115C42.815 15.2883 44.4309 16.4151 44.4657 16.4498Z" fill="white"/>
</g>
</g>
<g opacity="0.6">
<g opacity="0.6">
<path opacity="0.6" d="M49.609 18.2525C48.3232 11.7347 45.7689 14.0922 45.6994 14.1615C46.3597 13.2774 47.2285 12.6361 48.1494 13.4508C49.0009 14.2135 49.4179 16.2417 49.609 18.2525Z" fill="white"/>
</g>
</g>
<g opacity="0.6">
<g opacity="0.6">
<path opacity="0.6" d="M37.2198 13.5545C34.3527 9.08217 31.5204 18.6856 31.3814 19.1883C31.9896 16.7961 33.258 12.6705 34.8045 11.8384C35.0825 11.6824 35.3432 11.6304 35.5691 11.6477C36.3858 11.6824 36.907 12.6185 37.2198 13.5545Z" fill="white"/>
</g>
</g>
<path d="M36.6985 18.8247C36.5248 18.8247 36.351 18.8247 36.1599 18.8594C33.1712 19.3274 32.6499 24.0771 32.6499 24.0771C32.6499 24.0771 31.2424 23.1584 30.2172 24.7532C29.4874 25.8973 29.5917 27.5094 29.6959 28.3415C29.8349 28.7055 29.9913 29.0696 30.1998 29.4336C32.5804 33.4553 38.7489 34.3393 38.7489 34.3393H38.8706C38.8879 34.3393 38.9922 34.3567 38.9922 34.3567C38.9922 34.3567 45.1955 34.9114 48.4449 31.5484C48.7402 31.2537 48.9661 30.9244 49.192 30.595C49.5048 29.815 49.974 28.2722 49.5222 26.9894C48.8966 25.2039 47.3154 25.776 47.3154 25.776C47.3154 25.776 47.9062 21.0262 45.1086 19.8821C44.7611 19.7435 44.4136 19.6741 44.1008 19.6568C41.8245 19.6048 40.278 22.413 40.278 22.413C40.278 22.413 39.4092 19.3274 37.2025 18.8594C37.0461 18.8594 36.8723 18.842 36.6985 18.8247Z" fill="white"/>
<g opacity="0.2">
<g opacity="0.2">
<path opacity="0.2" d="M49.6612 29.3121C49.5569 29.8321 49.4006 30.2829 49.2616 30.6122C49.053 30.9416 48.8098 31.2536 48.5144 31.5656C45.265 34.9459 39.0617 34.3739 39.0617 34.3739C39.0617 34.3739 38.9575 34.3565 38.9401 34.3565C38.9227 34.3565 38.8185 34.3565 38.8185 34.3565C38.8185 34.3565 32.6499 33.4724 30.2694 29.4508C30.0608 29.0867 29.9045 28.7227 29.7655 28.3587C29.7307 28.0987 29.6959 27.752 29.6786 27.3706C29.7307 27.4573 29.7828 27.544 29.835 27.648C32.3719 31.6696 38.9227 32.5537 38.9227 32.5537C38.9227 32.5537 39.0443 32.5537 39.0617 32.5537C39.0791 32.5537 39.1834 32.571 39.1834 32.571C39.1834 32.571 45.7863 33.1258 49.2442 29.7628C49.4006 29.6241 49.5222 29.4681 49.6612 29.3121Z" fill="#3E2670"/>
</g>
</g>
<path d="M39.9653 34.7207C39.3745 34.7207 38.9922 34.686 38.9227 34.686H38.9053C38.6447 34.6514 32.4588 33.7153 29.974 29.6069C28.9314 27.8735 28.7402 25.8106 29.4005 23.6091C29.8523 22.153 30.53 21.0956 30.7038 20.8529C30.8775 20.0381 32.4414 12.8442 34.6829 11.6308C34.9957 11.4574 35.3258 11.3881 35.6212 11.4054C37.1503 11.5094 37.7585 14.0403 37.9323 15.0631C38.5752 14.855 39.9305 14.491 41.2337 14.6297C41.2511 14.6297 41.2685 14.6297 41.2859 14.6297C42.6065 14.7857 43.8575 15.4618 44.431 15.8084C44.7785 14.9937 45.7168 13.1042 46.9505 12.8095C47.298 12.7229 47.8193 12.7229 48.3754 13.2256C50.2867 14.9244 50.1477 22.2917 50.113 23.1064C50.2172 23.3837 50.5995 24.5625 50.6864 26.0706C50.7907 28.3588 50.0956 30.3177 48.6881 31.7564C46.0991 34.3913 41.894 34.7207 39.9653 34.7207ZM38.9748 34.062C39.2355 34.0793 45.1086 34.4953 48.219 31.3231C51.3467 28.1335 49.5048 23.3144 49.4874 23.2624C49.4701 23.2277 49.4701 23.1757 49.4701 23.1411C49.5396 20.9569 49.4006 14.9764 47.941 13.6763C47.6629 13.4162 47.3675 13.3296 47.0895 13.3989C46.0817 13.6416 45.126 15.6351 44.848 16.3805C44.8132 16.4672 44.7437 16.5365 44.6395 16.5712C44.5526 16.6058 44.4483 16.5885 44.3615 16.5365C44.3441 16.5192 42.7976 15.4444 41.2164 15.2537C41.199 15.2537 41.1816 15.2537 41.1642 15.2537C39.5656 15.0631 37.7759 15.7564 37.7585 15.7738C37.6716 15.8084 37.5674 15.8084 37.4805 15.7564C37.3936 15.7044 37.3415 15.6178 37.3241 15.5311C37.2025 14.647 36.629 12.1161 35.5343 12.0295C35.3606 12.0121 35.1521 12.0641 34.9436 12.1855C33.2233 13.1042 31.7116 18.894 31.2598 21.0436C31.2424 21.0782 31.225 21.1302 31.2077 21.1649C31.1729 21.1996 28.1668 25.4813 30.4605 29.2949C32.7889 33.0739 38.7142 34.0273 38.9748 34.062Z" fill="#3E2670"/>
<path d="M32.9105 18.8764C32.9105 18.8764 34.318 17.0216 36.3857 16.0335C36.3857 16.0335 36.1077 13.4333 35.3432 13.3466C34.4049 13.2426 32.9105 18.8764 32.9105 18.8764Z" fill="#F05483"/>
<path d="M32.8063 19.0674L32.8584 18.8594C32.9279 18.634 34.3527 13.2949 35.3084 13.2949C35.3258 13.2949 35.3258 13.2949 35.3432 13.2949C36.1425 13.3816 36.4205 15.9125 36.4205 16.0338V16.0685L36.3858 16.0858C34.3527 17.0566 32.9453 18.8941 32.9279 18.9114L32.8063 19.0674ZM35.3084 13.3816C34.596 13.3816 33.4492 17.0392 32.9974 18.7034C33.3797 18.2353 34.6481 16.8312 36.3336 16.0165C36.2989 15.7391 36.0209 13.4683 35.3258 13.3816H35.3084Z" fill="#3E2670"/>
<path d="M32.9105 19.1713C32.8758 19.1713 32.8237 19.154 32.7889 19.1366C32.6673 19.0846 32.5978 18.946 32.6325 18.8073C32.6325 18.7899 33.0148 17.3685 33.5013 15.9817C34.4397 13.3295 34.9609 13.0175 35.3606 13.0695C36.2815 13.1735 36.5769 15.3577 36.6464 16.0164C36.6638 16.1377 36.5943 16.2417 36.49 16.2937C34.5092 17.2298 33.1364 19.0326 33.1191 19.05C33.0669 19.1193 32.9974 19.1713 32.9105 19.1713ZM35.3085 13.6242C35.2563 13.6415 34.8393 13.8495 33.9879 16.2764C33.7967 16.7964 33.6403 17.3338 33.5013 17.7672C34.0921 17.1778 34.9783 16.4151 36.073 15.8604C35.934 14.7163 35.5865 13.6762 35.3085 13.6242Z" fill="#3E2670"/>
<path d="M48.4627 20.5584C48.4627 20.5584 47.5244 18.4262 45.7346 16.9875C45.7346 16.9875 46.6034 14.5259 47.368 14.6126C48.3063 14.7339 48.4627 20.5584 48.4627 20.5584Z" fill="#F05483"/>
<path d="M48.5143 20.766L48.4275 20.5753C48.4101 20.558 47.4718 18.4432 45.7168 17.0217L45.6994 17.0044V16.987C45.7342 16.883 46.5856 14.4908 47.3849 14.5775C48.3406 14.6815 48.497 20.3153 48.5143 20.558V20.766ZM45.7863 16.987C47.2459 18.1658 48.1494 19.8299 48.4275 20.3673C48.3753 18.6338 48.0973 14.7335 47.3849 14.6642C46.6898 14.5775 45.8905 16.7097 45.7863 16.987Z" fill="#3E2670"/>
<path d="M48.4622 20.8354C48.3579 20.8354 48.2537 20.7661 48.2015 20.6621C48.1842 20.6447 47.2632 18.5646 45.5604 17.2125C45.4735 17.1431 45.4387 17.0044 45.4735 16.9004C45.6994 16.2764 46.4813 14.2309 47.4196 14.3349C47.8193 14.3869 48.2711 14.8029 48.5665 17.5938C48.7228 19.0673 48.7576 20.5407 48.7576 20.5407C48.7576 20.6794 48.6707 20.8008 48.5317 20.8181C48.5143 20.8354 48.4796 20.8354 48.4622 20.8354ZM46.0643 16.9004C46.9852 17.6805 47.6803 18.6339 48.1147 19.3446C48.0799 18.8766 48.0452 18.3392 47.993 17.7672C47.7324 15.2016 47.3675 14.9069 47.3327 14.8723C47.0547 14.8896 46.4813 15.8257 46.0643 16.9004Z" fill="#3E2670"/>
<path d="M42.7976 26.0183C42.9019 25.7583 43.093 25.5676 43.3015 25.3943C43.51 25.2383 43.7533 25.0996 44.0139 25.0302C44.2746 24.9609 44.5526 24.9436 44.8306 24.9956C45.1086 25.0476 45.3693 25.1863 45.5257 25.4116C45.3867 25.4289 45.265 25.4289 45.1434 25.4289C45.0218 25.4463 44.9175 25.4463 44.8132 25.4809C44.6047 25.5156 44.3962 25.5676 44.1877 25.6196C43.9792 25.6716 43.7707 25.741 43.5448 25.8103C43.3015 25.897 43.0583 25.9663 42.7976 26.0183Z" fill="#3E2670"/>
<path d="M36.5595 25.3599C36.3162 25.2386 36.1077 25.1346 35.8992 25.0132C35.6907 24.8919 35.4996 24.7879 35.3084 24.6839C35.1173 24.5798 34.9262 24.4758 34.735 24.3892C34.6308 24.3372 34.5265 24.3025 34.4222 24.2678C34.318 24.2331 34.1964 24.1985 34.0573 24.1638C34.2659 23.9905 34.5613 23.9038 34.8393 23.9211C35.1173 23.9211 35.3953 24.0078 35.6212 24.1465C35.8645 24.2852 36.0556 24.4585 36.2294 24.6665C36.3858 24.8572 36.5074 25.0826 36.5595 25.3599Z" fill="#3E2670"/>
<g opacity="0.3">
<g opacity="0.3">
<path opacity="0.3" d="M43.5969 28.532C43.5448 29.0174 42.5022 30.2135 41.3901 29.4334C40.417 28.7574 41.0947 27.7866 41.0947 27.7866L38.0365 27.3706C38.0365 27.3706 38.7489 28.8267 37.4283 29.0868C36.1077 29.3294 35.6038 27.5093 35.6038 27.5093C34.8393 29.2774 36.1599 30.0922 36.1599 30.0922C36.49 32.3284 37.4805 33.5071 38.8358 33.6805C40.9731 33.9752 42.3632 30.8376 42.3632 30.8376C43.8749 30.6816 43.5969 28.532 43.5969 28.532ZM40.4518 31.8603C40.4344 31.999 40.3997 32.1377 40.3302 32.259C40.0695 32.8137 39.4787 33.1778 38.8532 33.0911C38.2103 33.0044 37.7411 32.4844 37.6542 31.8777C37.6368 31.7563 37.6368 31.6176 37.6542 31.4963L37.8627 29.9535C38.1929 29.9015 38.4883 29.7801 38.7489 29.5895C39.166 29.2948 39.444 28.8441 39.5309 28.3067C39.4266 29.1561 39.8958 29.9535 40.6429 30.3175L40.4518 31.8603Z" fill="#3E2670"/>
</g>
</g>
<path d="M37.6716 31.8602C36.9418 31.0628 36.7159 29.7627 36.7159 29.7627C36.8897 29.8494 37.0982 29.9014 37.3067 29.936C37.5152 29.9707 37.7063 29.9534 37.8975 29.936L37.689 31.4788C37.6542 31.6002 37.6542 31.7389 37.6716 31.8602Z" fill="#3E2670"/>
<path d="M40.6777 30.2826L40.4691 31.8427C40.4518 31.9814 40.417 32.12 40.3475 32.2414C40.0869 32.7961 39.4961 33.1601 38.8705 33.0735C38.2276 32.9868 37.7585 32.4667 37.6716 31.86C37.6542 31.7387 37.6542 31.6 37.6716 31.4787L37.8801 29.9359C38.2102 29.8839 38.5056 29.7625 38.7663 29.5718C39.1833 29.2771 39.4613 28.8264 39.5482 28.2891C39.444 29.1385 39.9305 29.9359 40.6777 30.2826Z" fill="#EE307B"/>
<path d="M41.894 30.4732C41.894 30.4732 41.338 31.6693 40.3475 32.2586C40.3997 32.1373 40.4344 31.9986 40.4692 31.8599L40.6777 30.2998C40.8688 30.3865 41.0773 30.4558 41.2859 30.4905C41.4944 30.5078 41.7029 30.4905 41.894 30.4732Z" fill="#3E2670"/>
<path d="M37.8801 30.0578H37.8627C37.7932 30.0405 37.7411 29.9885 37.7585 29.9192L37.7932 29.6591C37.8106 29.5898 37.8627 29.5378 37.9322 29.5551C38.0017 29.5725 38.0539 29.6245 38.0365 29.6938L38.0017 29.9538C38.0017 30.0058 37.9496 30.0578 37.8801 30.0578Z" fill="#3E2670"/>
<path d="M40.6777 30.4213H40.6603C40.5908 30.404 40.5387 30.352 40.5561 30.2827L40.5908 30.04C40.6082 29.9706 40.6603 29.9186 40.7298 29.936C40.7993 29.9533 40.8514 30.0053 40.8341 30.0747L40.7993 30.3173C40.7993 30.3693 40.7472 30.4213 40.6777 30.4213Z" fill="#3E2670"/>
<path d="M41.5986 30.6985C41.4944 30.6985 41.3901 30.6985 41.2685 30.6812C40.417 30.5598 39.722 29.9878 39.4266 29.2424C38.9401 29.8838 38.1234 30.2478 37.2719 30.1438C36.6638 30.0571 36.1251 29.7451 35.7602 29.277C35.3953 28.7917 35.2215 28.2023 35.3084 27.6129C35.3258 27.4569 35.4648 27.3529 35.6212 27.3875C35.7776 27.4049 35.8818 27.5436 35.8471 27.6996C35.7776 28.1503 35.8992 28.5836 36.1946 28.9477C36.4726 29.3117 36.8897 29.5371 37.3414 29.6064C38.2798 29.7277 39.1659 29.1037 39.305 28.1849L39.8436 28.2543C39.722 29.173 40.3997 30.0224 41.338 30.1438C42.2937 30.2825 43.1625 29.6237 43.3015 28.705C43.3189 28.549 43.4579 28.445 43.6143 28.4796C43.7706 28.497 43.8749 28.6356 43.8401 28.7917C43.6838 29.8838 42.7107 30.6985 41.5986 30.6985Z" fill="#3E2670"/>
<path d="M40.3649 32.4496C40.278 32.4496 40.1738 32.3976 40.1216 32.3109C40.0521 32.1895 40.0869 32.0162 40.2259 31.9295C41.1295 31.3922 41.6681 30.2827 41.6681 30.2654C41.7376 30.1267 41.894 30.0747 42.033 30.1267C42.172 30.1961 42.2242 30.3521 42.172 30.4907C42.1547 30.5427 41.5639 31.7735 40.5039 32.3976C40.4692 32.4496 40.417 32.4496 40.3649 32.4496Z" fill="#3E2670"/>
<path d="M37.689 32.0682C37.6195 32.0682 37.5326 32.0336 37.4805 31.9816C36.6985 31.1321 36.4553 29.7974 36.4553 29.7454C36.4379 29.5894 36.5248 29.4507 36.6812 29.4333C36.8375 29.416 36.9766 29.5027 36.9939 29.6587C36.9939 29.676 37.2198 30.8895 37.8801 31.6175C37.9844 31.7215 37.967 31.8949 37.8627 31.9989C37.8106 32.0336 37.7585 32.0682 37.689 32.0682Z" fill="#3E2670"/>
<path d="M39.0791 33.2991C39.0095 33.2991 38.9227 33.2991 38.8532 33.2818C37.9322 33.1604 37.2893 32.2937 37.4283 31.3749L37.6368 29.8321C37.6542 29.6761 37.7932 29.5721 37.9496 29.6068C38.106 29.6241 38.2102 29.7628 38.1755 29.9188L37.967 31.4616C37.8801 32.0857 38.3145 32.675 38.94 32.7617C39.2354 32.7964 39.5308 32.727 39.7741 32.5364C40.0174 32.3457 40.1738 32.0857 40.2259 31.7736L40.4344 30.2135C40.4518 30.0575 40.5908 29.9535 40.7472 29.9881C40.9036 30.0055 41.0078 30.1442 40.9731 30.3002L40.7645 31.8603C40.695 32.311 40.4691 32.7097 40.1042 32.9871C39.7915 33.1777 39.444 33.2991 39.0791 33.2991Z" fill="#3E2670"/>
<path d="M41.7897 26.6597C41.6855 27.4398 40.7298 28.3932 39.583 28.2372C38.245 28.0465 37.5847 26.9544 37.6889 26.157C37.7932 25.3596 38.4709 25.2903 39.8088 25.4636C41.1468 25.6716 41.894 25.8797 41.7897 26.6597Z" fill="#3E2670"/>
<path d="M40.6443 26.3142C40.6666 26.153 40.2916 25.9681 39.8068 25.9014C39.322 25.8346 38.9109 25.9111 38.8886 26.0723C38.8662 26.2336 39.2412 26.4184 39.726 26.4852C40.2108 26.552 40.6219 26.4754 40.6443 26.3142Z" fill="white"/>
<path d="M40.0695 26.5558C39.9653 26.5558 39.8436 26.5558 39.722 26.5385C39.2702 26.4691 38.8185 26.2958 38.8532 26.0704C38.8706 25.9664 38.9748 25.8971 39.166 25.8624C39.3397 25.8278 39.583 25.8278 39.8089 25.8624C40.2607 25.9318 40.7125 26.1051 40.6777 26.3305C40.6777 26.4865 40.3823 26.5558 40.0695 26.5558ZM39.4787 25.9144C39.3745 25.9144 39.2702 25.9144 39.1833 25.9318C39.027 25.9664 38.9401 26.0184 38.9227 26.0704C38.9053 26.1918 39.2355 26.3825 39.722 26.4518C40.2259 26.5212 40.5734 26.4345 40.5908 26.3131C40.6082 26.1918 40.2781 26.0011 39.7915 25.9318C39.6873 25.9318 39.583 25.9144 39.4787 25.9144Z" fill="#3E2670"/>
<path d="M39.722 28.7052C39.7046 28.9479 39.6699 29.1906 39.6351 29.4159C39.6003 29.6586 39.5482 29.884 39.4961 30.1267C39.3918 30.5947 39.2876 31.0627 39.1486 31.5308C39.1486 31.5481 39.1312 31.5481 39.1138 31.5481C39.0964 31.5481 39.0964 31.5308 39.0964 31.5135C39.0791 31.0281 39.1138 30.5427 39.1312 30.0747C39.1486 29.832 39.1659 29.5893 39.1833 29.3639C39.2181 29.1213 39.2528 28.8959 39.305 28.6532C39.3397 28.5319 39.444 28.4625 39.5656 28.4972C39.6525 28.5145 39.722 28.6012 39.722 28.7052Z" fill="#3E2670"/>
</g>
<defs>
<filter id="filter0_d" x="19.0165" y="2.40283" width="41.6801" height="43.6643" filterUnits="userSpaceOnUse" color-interpolation-filters="sRGB">
<feFlood flood-opacity="0" result="BackgroundImageFix"/>
<feColorMatrix in="SourceAlpha" type="matrix" values="0 0 0 0 0 0 0 0 0 0 0 0 0 0 0 0 0 0 127 0"/>
<feOffset dy="1"/>
<feGaussianBlur stdDeviation="5"/>
<feColorMatrix type="matrix" values="0 0 0 0 0 0 0 0 0 0 0 0 0 0 0 0 0 0 0.1 0"/>
<feBlend mode="normal" in2="BackgroundImageFix" result="effect1_dropShadow"/>
<feBlend mode="normal" in="SourceGraphic" in2="effect1_dropShadow" result="shape"/>
</filter>
</defs>
</svg>
