<svg width="30" height="30" viewBox="0 0 30 30" fill="none" xmlns="http://www.w3.org/2000/svg">
<g id="Icon/Fill/google">
<path id="Mask" fill-rule="evenodd" clip-rule="evenodd" d="M21.8689 17.4745C21.0364 20.152 18.9614 22.0058 16.2001 22.4145C11.9864 23.0383 7.84888 19.8433 7.52138 15.5933C7.18138 11.1833 10.6601 7.49951 15.0014 7.49951C16.0051 7.49951 16.9626 7.69701 17.8376 8.05451C18.1414 8.17826 18.4851 8.07201 18.6401 7.78451L20.4339 4.47576C20.6039 4.15951 20.4814 3.75201 20.1539 3.60451C18.5826 2.89451 16.8401 2.49951 15.0051 2.49951C7.97763 2.49951 2.30388 8.29451 2.50513 15.3658C2.68888 21.817 8.01388 27.2145 14.4601 27.4883C21.3926 27.7808 27.1426 22.4308 27.4914 15.652C27.5051 15.4045 27.5001 13.9633 27.4951 13.1183C27.4939 12.7733 27.2139 12.4995 26.8701 12.4995H15.6214C15.2764 12.4995 14.9964 12.7783 14.9964 13.1245V16.8495C14.9964 17.1933 15.2764 17.4745 15.6214 17.4745H21.8689Z" fill="white"/>
<mask id="mask0" mask-type="alpha" maskUnits="userSpaceOnUse" x="2" y="2" width="26" height="26">
<path id="Mask_2" fill-rule="evenodd" clip-rule="evenodd" d="M21.8689 17.4745C21.0364 20.152 18.9614 22.0058 16.2001 22.4145C11.9864 23.0383 7.84888 19.8433 7.52138 15.5933C7.18138 11.1833 10.6601 7.49951 15.0014 7.49951C16.0051 7.49951 16.9626 7.69701 17.8376 8.05451C18.1414 8.17826 18.4851 8.07201 18.6401 7.78451L20.4339 4.47576C20.6039 4.15951 20.4814 3.75201 20.1539 3.60451C18.5826 2.89451 16.8401 2.49951 15.0051 2.49951C7.97763 2.49951 2.30388 8.29451 2.50513 15.3658C2.68888 21.817 8.01388 27.2145 14.4601 27.4883C21.3926 27.7808 27.1426 22.4308 27.4914 15.652C27.5051 15.4045 27.5001 13.9633 27.4951 13.1183C27.4939 12.7733 27.2139 12.4995 26.8701 12.4995H15.6214C15.2764 12.4995 14.9964 12.7783 14.9964 13.1245V16.8495C14.9964 17.1933 15.2764 17.4745 15.6214 17.4745H21.8689Z" fill="white"/>
</mask>
<g mask="url(#mask0)">
<g id="&#240;&#159;&#142;&#168; Color">
<rect id="Base" y="-0.000976562" width="30" height="30" fill="white"/>
</g>
</g>
</g>
</svg>
