<svg width="42" height="47" viewBox="0 0 42 47" fill="none" xmlns="http://www.w3.org/2000/svg">
<path d="M31.15 0.847867C29.6718 0.84986 28.2031 1.13428 26.7981 1.69065C26.049 0.654816 24.9783 0.0424689 23.842 0C21.7341 0.138516 19.6488 0.596835 17.6351 1.36422C17.1652 1.53072 16.7296 1.81561 16.3569 2.20022C14.615 1.30554 12.742 0.845586 10.85 0.847867C4.7663 0.847867 0 7.96995 0 17.0591C0 26.6027 5.0946 39.6895 19.3116 45.9764C19.3249 45.9841 19.3389 45.9892 19.3522 45.9951C19.8189 46.202 20.2963 46.3998 20.7844 46.5886C20.8539 46.6167 20.9267 46.6316 21 46.6327C21.0735 46.6328 21.1465 46.6188 21.2163 46.5911C22.538 46.0721 23.8366 45.4704 25.1069 44.7886C25.1244 44.7809 25.1426 44.7843 25.1601 44.775C25.1776 44.7657 25.1888 44.7479 25.2056 44.7377C37.5116 38.0692 42 26.0024 42 17.0591C42 7.96995 37.2337 0.847867 31.15 0.847867ZM40.6 17.0591C40.5177 22.2048 39.1669 27.2031 36.7213 31.4118C34.9076 26.5348 32.5913 22.1115 31.3369 20.5972C30.4238 19.368 29.2615 18.4488 27.965 17.9307L27.6766 15.4812C28.8729 14.4758 29.5436 12.7816 29.442 11.0223C29.4634 8.24683 28.8627 5.51636 27.7039 3.12185C28.8253 2.73855 29.9848 2.54398 31.15 2.5436C36.449 2.5436 40.6 8.91956 40.6 17.0591ZM1.4 17.0591C1.4 8.91956 5.551 2.5436 10.85 2.5436C12.4156 2.54693 13.9672 2.90197 15.4259 3.59072L14.0602 6.06903C13.7702 6.59583 13.3292 6.97373 12.8226 7.12971L8.7577 8.35234C8.15647 8.5366 7.72835 9.18031 7.7077 9.93107C7.6629 11.3724 7.8218 16.1841 11.7201 17.7611C11.7916 17.7902 11.8666 17.8051 11.942 17.8052C14.0066 17.834 16.0546 18.2557 18.011 19.055L17.8402 19.5009C16.7147 22.1207 16.1183 25.0265 16.1 27.9796C16.1467 31.2246 17.1384 34.3452 18.9 36.7906V43.9678C6.0424 37.8395 1.4 25.8464 1.4 17.0591ZM9.1 9.9972L10.5 9.57327V11.0223H9.1224C9.09859 10.6814 9.09111 10.3391 9.1 9.9972ZM25.3092 42.8097C25.2358 42.3942 25.1992 41.9704 25.2 41.5455C25.1635 39.4398 25.9475 37.4361 27.3161 36.1369C28.4759 35.1583 29.9621 34.9446 31.2788 35.5672C31.5164 35.6629 31.7781 35.5978 31.9653 35.3965C32.1525 35.1951 32.2369 34.8881 32.1865 34.591C32.1362 34.2939 31.9588 34.0519 31.7212 33.9562C29.9767 33.166 28.0229 33.4676 26.4978 34.7626C24.7665 36.3825 23.7668 38.896 23.8 41.5455C23.7973 42.2093 23.8679 42.8706 24.01 43.5117C23.0524 44.0051 22.05 44.4698 20.9965 44.8929C20.7585 44.7979 20.5303 44.6962 20.2965 44.597V36.4583C20.2966 36.234 20.2234 36.0187 20.0928 35.8597C18.4797 33.692 17.56 30.897 17.5 27.9796C17.5177 25.2737 18.0697 22.6121 19.11 20.2174L19.2808 19.7689C19.4414 19.3542 19.4541 18.8776 19.3158 18.4513C19.1726 18.0172 18.8884 17.6735 18.5297 17.5008C16.4504 16.6158 14.2662 16.1459 12.0624 16.1095C10.7697 15.5731 9.7738 14.3076 9.3933 12.718H10.5C11.2732 12.718 11.9 11.9588 11.9 11.0223V9.15696L13.1663 8.77627C14.0098 8.51667 14.7438 7.88739 15.2264 7.01016L16.8623 4.04263C16.9173 3.94381 16.9778 3.84975 17.0436 3.76114C17.303 3.39809 17.6432 3.13317 18.0236 2.99806C19.9126 2.28135 21.8663 1.84407 23.842 1.69573C24.7217 1.78356 25.5253 2.33468 26.04 3.20324C27.3874 5.47907 28.0898 8.22237 28.042 11.0223C28.042 12.6451 27.5646 13.7354 26.6217 14.2543C25.6258 14.7149 24.5208 14.6869 23.5417 14.1763C23.2749 14.048 23.0998 13.7355 23.1 13.3878V7.6308C23.1 7.16254 22.7866 6.78294 22.4 6.78294C22.0134 6.78294 21.7 7.16254 21.7 7.6308V13.3878C21.7032 14.4295 22.2272 15.3649 23.0251 15.7534C24.0748 16.2717 25.227 16.4055 26.3389 16.1383L26.5797 18.1732C26.6586 18.842 27.0603 19.3887 27.5996 19.5611C28.6581 20.0091 29.6042 20.778 30.3478 21.7944C31.4349 23.1035 33.8828 27.6735 35.7637 32.9863C32.9592 37.2025 29.3792 40.5655 25.3099 42.8063L25.3092 42.8097Z" fill="white"/>
</svg>
