<svg width="44" height="44" viewBox="0 0 44 44" fill="none" xmlns="http://www.w3.org/2000/svg">
<path d="M40.047 14.4139H32.4492C31.6504 13.3166 30.6832 12.3495 29.586 11.5507V7.41028C29.586 7.03198 29.2794 6.72553 28.9012 6.72553C28.5229 6.72553 28.2165 7.03207 28.2165 7.41028V10.6737C27.0917 10.0544 25.8864 9.61164 24.6349 9.35228C24.6141 9.34799 24.5933 9.3436 24.5724 9.33939C24.4872 9.32212 24.4017 9.30562 24.3161 9.29015C24.2807 9.28379 24.2452 9.27769 24.2097 9.27159C24.131 9.2581 24.0524 9.24443 23.9735 9.23232C23.9234 9.22458 23.8728 9.21805 23.8224 9.21083C23.7139 9.19553 23.6051 9.18135 23.496 9.16881C23.4237 9.16039 23.3513 9.15214 23.2786 9.14492C23.2267 9.13976 23.1746 9.13555 23.1225 9.13108C23.0476 9.12464 22.9725 9.11871 22.8972 9.11346C22.8481 9.11011 22.799 9.10685 22.7498 9.1041C22.6667 9.09937 22.5833 9.09559 22.4998 9.09241C22.4583 9.09086 22.4169 9.08889 22.3755 9.08768C22.2507 9.08416 22.1256 9.08184 22 9.08184C21.8743 9.08184 21.7493 9.08416 21.6244 9.08768C21.583 9.08889 21.5415 9.09086 21.5001 9.09241C21.4166 9.09559 21.3333 9.09937 21.2502 9.1041C21.2009 9.10693 21.1518 9.11011 21.1027 9.11346C21.0275 9.11871 20.9524 9.12464 20.8774 9.13108C20.8254 9.13555 20.7733 9.13985 20.7213 9.14492C20.6486 9.15214 20.5762 9.16047 20.5038 9.16881C20.3947 9.18144 20.2861 9.19545 20.1777 9.21083C20.1271 9.21796 20.0766 9.22449 20.0262 9.23232C19.9473 9.24435 19.8687 9.25801 19.7902 9.27159C19.7547 9.27769 19.7191 9.28362 19.6837 9.29015C19.598 9.30571 19.5126 9.32221 19.4274 9.33939C19.4066 9.3436 19.3858 9.34799 19.3649 9.35228C18.1134 9.61156 16.9083 10.0544 15.7833 10.6737V3.95294C15.7833 2.52844 16.9422 1.36958 18.3667 1.36958H25.6329C27.0574 1.36958 28.2162 2.52844 28.2162 3.95294V5.16929C28.2162 5.54759 28.5228 5.85404 28.901 5.85404C29.2792 5.85404 29.5857 5.54742 29.5857 5.16929V3.95294C29.586 1.77331 27.8127 0 25.633 0H18.3669C16.1872 0 14.4139 1.77331 14.4139 3.95294V11.5507C13.3166 12.3495 12.3495 13.3167 11.5508 14.4139H3.95295C1.77332 14.4139 0 16.1872 0 18.3668V20.6151C0 20.9934 0.306538 21.2999 0.684749 21.2999C1.06296 21.2999 1.3695 20.9933 1.3695 20.6151V18.3668C1.3695 16.9423 2.52836 15.7835 3.95286 15.7835H10.6736C10.0543 16.9083 9.61158 18.1136 9.35222 19.3651C9.34792 19.3859 9.34354 19.4067 9.33933 19.4276C9.32205 19.5128 9.30564 19.5982 9.29008 19.6838C9.28372 19.7192 9.27779 19.7548 9.27152 19.7903C9.25803 19.8689 9.24436 19.9476 9.23225 20.0265C9.2246 20.0766 9.21798 20.1272 9.21076 20.1774C9.19547 20.286 9.18129 20.3949 9.16865 20.5039C9.16023 20.5762 9.15198 20.6486 9.14476 20.7213C9.13961 20.7732 9.1354 20.8253 9.13093 20.8774C9.12448 20.9523 9.11847 21.0274 9.11331 21.1026C9.10996 21.1518 9.10678 21.2009 9.10394 21.25C9.09922 21.3331 9.09544 21.4165 9.09226 21.5C9.09071 21.5414 9.08873 21.5829 9.08753 21.6243C9.08401 21.7491 9.08169 21.8742 9.08169 21.9998C9.08169 22.1255 9.08401 22.2505 9.08753 22.3754C9.08873 22.4168 9.09071 22.4583 9.09226 22.4996C9.09544 22.5832 9.09922 22.6665 9.10394 22.7496C9.10678 22.7989 9.10996 22.8479 9.11331 22.8971C9.11855 22.9723 9.12448 23.0474 9.13093 23.1223C9.1354 23.1744 9.13969 23.2265 9.14476 23.2785C9.15198 23.3512 9.16032 23.4235 9.16865 23.4959C9.18129 23.605 9.1953 23.7136 9.21068 23.822C9.21781 23.8726 9.22434 23.9231 9.23216 23.9735C9.24428 24.0524 9.25786 24.131 9.27144 24.2095C9.27754 24.245 9.28347 24.2806 9.29 24.316C9.30555 24.4017 9.32205 24.4871 9.33924 24.5723C9.34345 24.5931 9.34783 24.6139 9.35213 24.6347C9.6114 25.8863 10.0542 27.0914 10.6735 28.2164H3.95295C2.52845 28.2165 1.36958 27.0577 1.36958 25.6332V22.8662C1.36958 22.4879 1.06296 22.1814 0.684835 22.1814C0.306538 22.1814 8.59373e-05 22.4879 8.59373e-05 22.8662V25.6332C8.59373e-05 27.8128 1.7734 29.5861 3.95303 29.5861H11.5508C12.3496 30.6834 13.3168 31.6505 14.414 32.4493V40.0471C14.414 42.2267 16.1873 44 18.367 44H25.6331C27.8128 44 29.5861 42.2267 29.5861 40.0471V32.4493C30.6834 31.6505 31.6505 30.6833 32.4493 29.5861H40.0471C42.2267 29.5861 44 27.8128 44 25.6332V18.367C43.9999 16.1872 42.2266 14.4139 40.047 14.4139ZM28.2164 40.0469C28.2164 41.4714 27.0575 42.6302 25.633 42.6302H18.3669C16.9424 42.6302 15.7835 41.4714 15.7835 40.0469V33.3262C16.9083 33.9454 18.1136 34.3882 19.3651 34.6475C19.3859 34.6518 19.4067 34.6562 19.4276 34.6604C19.5128 34.6777 19.5983 34.6942 19.6839 34.7097C19.7193 34.716 19.7548 34.7221 19.7903 34.7282C19.869 34.7417 19.9476 34.7554 20.0264 34.7675C20.0766 34.7752 20.1273 34.7819 20.1778 34.789C20.2863 34.8043 20.395 34.8184 20.504 34.831C20.5762 34.8394 20.6487 34.8477 20.7215 34.8549C20.7735 34.86 20.8255 34.8643 20.8776 34.8687C20.9525 34.8752 21.0276 34.8811 21.1029 34.8864C21.152 34.8897 21.2011 34.8929 21.2503 34.8957C21.3334 34.9005 21.4168 34.9042 21.5003 34.9074C21.5417 34.909 21.5832 34.9109 21.6246 34.9121C21.7494 34.9157 21.8745 34.918 22.0001 34.918C22.1258 34.918 22.2508 34.9157 22.3757 34.9121C22.4171 34.9109 22.4586 34.909 22.4999 34.9074C22.5835 34.9042 22.6668 34.9005 22.7499 34.8957C22.7992 34.8929 22.8482 34.8897 22.8974 34.8864C22.9726 34.8811 23.0477 34.8752 23.1226 34.8687C23.1747 34.8643 23.2268 34.86 23.2788 34.8549C23.3515 34.8477 23.4238 34.8394 23.4961 34.831C23.6053 34.8184 23.7141 34.8043 23.8226 34.789C23.873 34.7819 23.9235 34.7753 23.9737 34.7675C24.0527 34.7554 24.1312 34.7418 24.2097 34.7282C24.2452 34.7221 24.2808 34.7162 24.3162 34.7097C24.4019 34.6941 24.4873 34.6776 24.5725 34.6604C24.5933 34.6562 24.6141 34.6518 24.635 34.6475C25.8864 34.3883 27.0916 33.9454 28.2165 33.3262V40.0469H28.2164ZM33.2948 24.4106C33.241 24.6627 33.1797 24.912 33.1098 25.1578C33.1097 25.1579 33.1097 25.158 33.1096 25.1582C32.0184 28.9916 28.9916 32.0182 25.1582 33.1095C25.1581 33.1095 25.158 33.1096 25.1578 33.1096C24.912 33.1796 24.6627 33.2408 24.4107 33.2946C24.3651 33.3043 24.3196 33.314 24.2738 33.3233C24.208 33.3364 24.1421 33.3492 24.076 33.3612C23.9925 33.3764 23.9088 33.3905 23.8248 33.4039C23.7613 33.414 23.6976 33.4234 23.6337 33.4325C23.5494 33.4444 23.465 33.4557 23.3804 33.4658C23.3353 33.4712 23.2902 33.4765 23.245 33.4814C23.1249 33.4943 23.0044 33.506 22.8836 33.5152C22.8654 33.5165 22.847 33.5174 22.8289 33.5186C22.7168 33.5265 22.6047 33.5328 22.4922 33.5374C22.4573 33.5389 22.4225 33.5402 22.3875 33.5414C22.2586 33.5457 22.1295 33.5487 22 33.5487C21.8705 33.5487 21.7413 33.5457 21.6124 33.5414C21.5775 33.5402 21.5426 33.5389 21.5077 33.5374C21.3952 33.5327 21.2829 33.5266 21.171 33.5186C21.1529 33.5173 21.1345 33.5165 21.1164 33.5152C20.9954 33.506 20.875 33.4943 20.7549 33.4814C20.7097 33.4766 20.6646 33.4712 20.6195 33.4658C20.5349 33.4558 20.4504 33.4444 20.3662 33.4325C20.3024 33.4235 20.2387 33.414 20.1752 33.4039C20.0912 33.3905 20.0074 33.3764 19.9239 33.3612C19.8577 33.3492 19.7919 33.3364 19.7261 33.3233C19.6804 33.3141 19.6349 33.3043 19.5892 33.2946C19.3372 33.2408 19.0879 33.1796 18.8421 33.1096C18.8419 33.1096 18.8418 33.1095 18.8417 33.1095C15.0082 32.0183 11.9816 28.9916 10.8902 25.1582C10.8902 25.158 10.8902 25.1579 10.8901 25.1578C10.8201 24.9121 10.7588 24.6627 10.705 24.4106C10.6953 24.3651 10.6856 24.3195 10.6764 24.2737C10.6633 24.208 10.6505 24.1421 10.6384 24.076C10.6233 23.9925 10.6091 23.9088 10.5958 23.8247C10.5857 23.7613 10.5763 23.6975 10.5672 23.6337C10.5553 23.5494 10.544 23.465 10.5339 23.3803C10.5284 23.3353 10.5232 23.2902 10.5183 23.245C10.5054 23.1248 10.4936 23.0043 10.4845 22.8835C10.4832 22.8654 10.4823 22.847 10.4811 22.8289C10.4732 22.7168 10.4669 22.6047 10.4623 22.4922C10.4608 22.4573 10.4594 22.4225 10.4582 22.3875C10.4539 22.2586 10.451 22.1294 10.451 21.9999C10.451 21.8704 10.454 21.7412 10.4582 21.6123C10.4594 21.5774 10.4608 21.5426 10.4623 21.5077C10.467 21.3952 10.4731 21.2829 10.4811 21.171C10.4824 21.1528 10.4832 21.1344 10.4845 21.1163C10.4936 20.9954 10.5054 20.875 10.5183 20.7549C10.5231 20.7097 10.5284 20.6645 10.5339 20.6195C10.5439 20.5349 10.5553 20.4504 10.5672 20.3662C10.5762 20.3023 10.5857 20.2386 10.5958 20.1751C10.6091 20.0912 10.6233 20.0074 10.6384 19.9238C10.6505 19.8578 10.6633 19.7918 10.6764 19.7261C10.6855 19.6804 10.6952 19.6348 10.705 19.5892C10.7588 19.3372 10.8201 19.0878 10.8901 18.8421C10.8902 18.8419 10.8902 18.8418 10.8902 18.8416C11.9815 15.0082 15.0082 11.9816 18.8417 10.8902C18.8418 10.8902 18.8419 10.8901 18.8421 10.8901C19.0879 10.8202 19.3372 10.7589 19.5892 10.7051C19.6348 10.6954 19.6803 10.6857 19.7261 10.6765C19.7919 10.6633 19.8578 10.6505 19.9239 10.6385C20.0074 10.6234 20.0911 10.6092 20.1752 10.5959C20.2386 10.5857 20.3024 10.5764 20.3662 10.5673C20.4505 10.5553 20.5349 10.5441 20.6195 10.5339C20.6646 10.5285 20.7097 10.5233 20.7549 10.5184C20.875 10.5055 20.9955 10.4937 21.1164 10.4846C21.1345 10.4832 21.1529 10.4824 21.171 10.4812C21.2831 10.4732 21.3952 10.467 21.5077 10.4623C21.5426 10.4609 21.5774 10.4595 21.6124 10.4583C21.7413 10.454 21.8704 10.4511 22 10.4511C22.1296 10.4511 22.2586 10.454 22.3875 10.4583C22.4224 10.4595 22.4573 10.4609 22.4922 10.4623C22.6047 10.4671 22.717 10.4732 22.8289 10.4812C22.847 10.4824 22.8654 10.4832 22.8836 10.4846C23.0045 10.4937 23.1249 10.5055 23.245 10.5184C23.2902 10.5232 23.3353 10.5285 23.3804 10.5339C23.465 10.544 23.5495 10.5553 23.6337 10.5673C23.6976 10.5763 23.7612 10.5857 23.8248 10.5959C23.9087 10.6092 23.9925 10.6234 24.076 10.6385C24.1421 10.6505 24.208 10.6633 24.2738 10.6765C24.3195 10.6856 24.3651 10.6954 24.4107 10.7051C24.6627 10.7589 24.912 10.8202 25.1578 10.8901C25.158 10.8901 25.1581 10.8902 25.1582 10.8902C28.9917 11.9814 32.0183 15.0082 33.1096 18.8416C33.1097 18.8418 33.1097 18.8419 33.1098 18.8421C33.1797 19.0878 33.241 19.3372 33.2948 19.5892C33.3045 19.6348 33.3142 19.6803 33.3234 19.7261C33.3366 19.7918 33.3494 19.8578 33.3614 19.9238C33.3765 20.0074 33.3907 20.0911 33.404 20.1751C33.4142 20.2385 33.4235 20.3023 33.4326 20.3662C33.4446 20.4505 33.4558 20.5349 33.466 20.6195C33.4714 20.6645 33.4766 20.7097 33.4815 20.7549C33.4944 20.875 33.5062 20.9955 33.5153 21.1163C33.5167 21.1344 33.5175 21.1528 33.5187 21.171C33.5266 21.283 33.5329 21.3952 33.5376 21.5077C33.539 21.5426 33.5404 21.5774 33.5416 21.6123C33.5458 21.7412 33.5488 21.8703 33.5488 21.9999C33.5488 22.1295 33.5458 22.2586 33.5416 22.3875C33.5404 22.4224 33.539 22.4573 33.5376 22.4922C33.5328 22.6047 33.5267 22.717 33.5187 22.8289C33.5175 22.847 33.5167 22.8654 33.5153 22.8835C33.5062 23.0044 33.4944 23.1248 33.4815 23.245C33.4767 23.2902 33.4714 23.3353 33.466 23.3803C33.4558 23.465 33.4446 23.5494 33.4326 23.6337C33.4236 23.6975 33.4142 23.7612 33.404 23.8247C33.3907 23.9086 33.3765 23.9925 33.3614 24.076C33.3494 24.1421 33.3366 24.208 33.3234 24.2737C33.3142 24.3195 33.3045 24.3651 33.2948 24.4106ZM42.6303 25.633C42.6303 27.0575 41.4715 28.2164 40.047 28.2164H33.3262C33.9455 27.0915 34.3883 25.8863 34.6476 24.6347C34.6519 24.614 34.6563 24.5932 34.6605 24.5723C34.6778 24.487 34.6943 24.4016 34.7097 24.316C34.7161 24.2806 34.722 24.245 34.7283 24.2095C34.7418 24.1309 34.7555 24.0523 34.7676 23.9735C34.7753 23.9232 34.7819 23.8726 34.7891 23.822C34.8044 23.7136 34.8185 23.605 34.8311 23.4959C34.8395 23.4235 34.8478 23.3512 34.855 23.2785C34.8601 23.2265 34.8643 23.1744 34.8688 23.1223C34.8753 23.0475 34.8812 22.9724 34.8864 22.8971C34.8898 22.8479 34.893 22.7989 34.8958 22.7496C34.9005 22.6665 34.9043 22.5832 34.9075 22.4996C34.909 22.4582 34.911 22.4168 34.9122 22.3754C34.9157 22.2506 34.9181 22.1255 34.9181 21.9998C34.9181 21.8742 34.9157 21.7491 34.9122 21.6243C34.911 21.5829 34.909 21.5414 34.9075 21.5C34.9043 21.4165 34.9005 21.3331 34.8958 21.25C34.893 21.2008 34.8898 21.1517 34.8864 21.1026C34.8812 21.0275 34.8753 20.9523 34.8688 20.8774C34.8643 20.8253 34.8601 20.7732 34.855 20.7213C34.8478 20.6486 34.8394 20.5763 34.8311 20.5039C34.8185 20.3948 34.8044 20.286 34.7891 20.1774C34.7819 20.1271 34.7754 20.0766 34.7676 20.0265C34.7555 19.9475 34.7419 19.8689 34.7283 19.7904C34.7222 19.7549 34.7163 19.7193 34.7097 19.6839C34.6942 19.5982 34.6777 19.5128 34.6605 19.4276C34.6563 19.4068 34.6519 19.386 34.6476 19.3652C34.3883 18.1137 33.9455 16.9085 33.3262 15.7836H40.047C41.4715 15.7836 42.6303 16.9424 42.6303 18.3669V25.633Z" fill="white"/>
<path d="M23.1461 21.3929L23.1178 21.3646C22.4275 20.6743 21.3547 20.3094 20.0154 20.3094C17.7116 20.3094 15.0934 21.3713 14.1791 22.6766C13.6993 23.3616 13.7623 23.9559 13.8998 24.334C14.2302 25.2429 14.8831 25.9931 15.8407 26.5634C16.2696 26.819 16.6669 27.1294 17.0245 27.4892C17.3811 27.8436 17.6917 28.2409 17.9473 28.6702C18.5177 29.6275 19.2678 30.2805 20.1767 30.6109C20.3561 30.6761 20.5426 30.7091 20.7314 30.7091C20.7314 30.7091 20.7314 30.7091 20.7316 30.7091C21.7647 30.7091 22.7646 29.726 23.4748 28.0116C24.3623 25.8696 24.6379 22.8848 23.1461 21.3929ZM22.2096 27.4873C21.711 28.6906 21.076 29.3396 20.7314 29.3396C20.7024 29.3396 20.6739 29.3343 20.6446 29.3237C20.0401 29.104 19.5284 28.6482 19.1238 27.9689C18.8094 27.4413 18.4279 26.953 17.993 26.5206C17.5573 26.0824 17.069 25.7009 16.5416 25.3867C15.8624 24.9821 15.4068 24.4704 15.1869 23.866C15.1727 23.8267 15.1293 23.7072 15.3008 23.4623C15.8905 22.6205 18.0321 21.6789 20.0154 21.6789C20.9698 21.6789 21.7277 21.9112 22.1494 22.3329L22.1778 22.3613C23.1318 23.3154 22.9431 25.7168 22.2096 27.4873Z" fill="white"/>
<path d="M24.3946 13.4868C24.0514 13.3567 23.6927 13.2908 23.3283 13.2908C22.0859 13.2908 20.955 14.0716 20.5144 15.2336C20.2407 15.9556 20.1939 16.9657 20.3924 17.8695C20.6369 18.9837 21.196 19.7581 21.9665 20.0503C22.1872 20.134 22.4232 20.1765 22.6683 20.1765C22.6683 20.1765 22.6683 20.1765 22.6684 20.1765C24.0874 20.1765 25.6377 18.6958 26.1416 17.3669C26.7296 15.8157 25.9459 14.0749 24.3946 13.4868ZM24.8609 16.8813C24.539 17.7302 23.4422 18.8069 22.6682 18.8068C22.5887 18.8068 22.5179 18.7946 22.4519 18.7697C22.1379 18.6506 21.868 18.2043 21.7299 17.5758C21.5898 16.9373 21.6159 16.1912 21.7949 15.719C22.035 15.0857 22.6512 14.6602 23.3283 14.6602C23.5262 14.6602 23.7216 14.6962 23.9089 14.7673C24.7543 15.0878 25.1812 16.0361 24.8609 16.8813Z" fill="white"/>
<path d="M19.4371 16.3012C19.1859 15.0578 18.084 14.1554 16.817 14.1554C16.6396 14.1554 16.4607 14.1733 16.2854 14.2087C14.8396 14.5007 13.9009 15.9146 14.1929 17.3605C14.4355 18.5617 15.7078 20.3066 17.149 20.3068C17.1491 20.3068 17.1492 20.3068 17.1493 20.3068C17.2666 20.3068 17.3837 20.2952 17.4975 20.2721C19.0256 19.9635 19.7168 17.686 19.4371 16.3012ZM17.2264 18.9298C17.2014 18.935 17.1762 18.9373 17.1492 18.9373C16.5926 18.9372 15.7028 17.9182 15.5353 17.0894C15.3929 16.3837 15.8509 15.6937 16.5566 15.5512C16.6427 15.5338 16.7303 15.525 16.8171 15.525C17.4349 15.525 17.9721 15.9655 18.0948 16.5725C18.2728 17.4542 17.7697 18.8201 17.2264 18.9298Z" fill="white"/>
<path d="M31.024 20.116C30.5834 18.9539 29.4524 18.1732 28.21 18.1732C27.8457 18.1732 27.4869 18.2392 27.1437 18.3693C25.6587 18.9322 23.8312 20.8845 24.4604 22.5443C24.9352 23.7965 26.5484 24.2408 27.7856 24.2408C28.3395 24.2408 28.8553 24.1562 29.277 23.9963C30.8285 23.4082 31.6121 21.6675 31.024 20.116ZM28.7916 22.7158C28.5271 22.8162 28.1698 22.8713 27.7856 22.8713C26.7956 22.8713 25.9166 22.522 25.7409 22.0588C25.4754 21.3583 26.64 20.0249 27.6293 19.6498C27.8168 19.5787 28.0121 19.5427 28.21 19.5427C28.887 19.5427 29.5033 19.9683 29.7434 20.6016C30.0639 21.447 29.6369 22.3952 28.7916 22.7158Z" fill="white"/>
<path d="M28.2095 25.0734C28.0095 25.0331 27.7904 25.0125 27.5587 25.0125C26.1451 25.0125 24.501 25.7138 24.2385 27.013C23.9214 28.582 25.7812 30.041 27.1504 30.3176C27.3256 30.353 27.5044 30.3709 27.682 30.3709C28.949 30.3709 30.0508 29.4684 30.302 28.2249C30.5939 26.7794 29.6552 25.3655 28.2095 25.0734ZM28.9595 27.9541C28.8369 28.5609 28.2997 29.0016 27.6819 29.0016C27.5952 29.0016 27.5075 28.9928 27.4214 28.9754C26.5397 28.7974 25.4731 27.8174 25.5809 27.2843C25.6728 26.8291 26.6525 26.3822 27.5587 26.3822C27.6996 26.3822 27.8273 26.3936 27.9382 26.416C28.6439 26.5584 29.102 27.2484 28.9595 27.9541Z" fill="white"/>
</svg>
