<svg width="26" height="40" viewBox="0 0 26 40" fill="none" xmlns="http://www.w3.org/2000/svg">
<path d="M18.5152 18.125H7.48486C6.83218 18.125 6.30304 18.6497 6.30304 19.2969C6.30304 19.9441 6.83218 20.4687 7.48486 20.4687H18.5152C19.1678 20.4687 19.697 19.9441 19.697 19.2969C19.697 18.6497 19.1678 18.125 18.5152 18.125Z" fill="white"/>
<path d="M18.5152 22.8125H7.48486C6.83218 22.8125 6.30304 23.3372 6.30304 23.9844C6.30304 24.6316 6.83218 25.1562 7.48486 25.1562H18.5152C19.1678 25.1562 19.697 24.6316 19.697 23.9844C19.697 23.3372 19.1678 22.8125 18.5152 22.8125Z" fill="white"/>
<path d="M18.5152 27.5H7.48486C6.83218 27.5 6.30304 28.0247 6.30304 28.6719C6.30304 29.3191 6.83218 29.8437 7.48486 29.8437H18.5152C19.1678 29.8437 19.697 29.3191 19.697 28.6719C19.697 28.0247 19.1678 27.5 18.5152 27.5Z" fill="white"/>
<path d="M19.0504 4.76547L21.0673 1.83219C21.435 1.29743 21.2959 0.568363 20.7567 0.203753C20.2173 -0.160856 19.482 -0.0228871 19.1144 0.5118L16.8196 3.8493C15.6113 3.48039 14.3287 3.28125 13 3.28125C11.6713 3.28125 10.3887 3.48039 9.18044 3.8493L6.88551 0.5118C6.51781 -0.0228871 5.78271 -0.160856 5.24325 0.203753C4.70395 0.568363 4.56489 1.29743 4.93259 1.83219L6.94956 4.76547C2.82076 6.92758 0 11.2288 0 16.1719V27.1094C0 34.2173 5.8318 40 13 40C20.1682 40 26 34.2173 26 27.1094V16.1719C26 11.2289 23.1792 6.92758 19.0504 4.76547ZM23.6364 27.1094C23.6364 32.9249 18.8649 37.6562 13 37.6562C7.13511 37.6562 2.36364 32.9249 2.36364 27.1094V16.1719C2.36364 10.3563 7.13511 5.625 13 5.625C13.8288 5.625 14.6359 5.71961 15.4107 5.89836L13.9066 8.08578C13.6171 8.00969 13.3133 7.96875 13 7.96875C11.045 7.96875 9.45455 9.54586 9.45455 11.4844C9.45455 13.4229 11.045 15 13 15C14.955 15 16.5455 13.4229 16.5455 11.4844C16.5455 10.708 16.2899 9.99 15.8585 9.40774L17.7088 6.71672C21.218 8.44203 23.6364 12.0319 23.6364 16.1719V27.1094ZM14.1818 11.4844C14.1818 12.1305 13.6517 12.6563 13 12.6563C12.3483 12.6563 11.8182 12.1305 11.8182 11.4844C11.8182 10.8382 12.3483 10.3125 13 10.3125C13.6517 10.3125 14.1818 10.8381 14.1818 11.4844Z" fill="white"/>
</svg>
