<svg width="40" height="40" viewBox="0 0 40 40" fill="none" xmlns="http://www.w3.org/2000/svg">
<path d="M6.92611 29.8173L6.96554 29.7825C7.18969 30.2742 7.47431 30.7243 7.81024 31.1185L8.67128 32.1295V38.8545C8.67128 39.0623 8.74155 39.2615 8.86664 39.4084C8.99173 39.5553 9.16139 39.6378 9.33829 39.6378H11.3393C11.4999 39.6378 11.655 39.5698 11.7763 39.4463C11.8976 39.3228 11.9769 39.152 11.9996 38.9654L12.6453 33.6587L13.466 32.2132C13.6613 31.8684 13.7757 31.4691 13.7976 31.0558C13.8196 30.6424 13.7483 30.2296 13.591 29.8589L12.7763 27.9456L13.7974 26.147L17.4204 24.0197L19.5514 24.6455L20.7483 27.4563C20.8202 27.6249 20.9414 27.7574 21.0897 27.8295C21.238 27.9017 21.4035 27.9086 21.5558 27.8491L23.5569 27.0659C23.64 27.0333 23.7168 26.9819 23.783 26.9145C23.8492 26.8471 23.9034 26.765 23.9426 26.673C23.9817 26.581 24.0051 26.4808 24.0113 26.3782C24.0175 26.2756 24.0064 26.1725 23.9787 26.0749L22.8218 22C22.737 21.7035 22.6029 21.4297 22.4273 21.1946C22.2517 20.9594 22.0381 20.7675 21.7988 20.6299L19.7188 19.4415C19.9099 18.3777 19.8163 17.2705 19.4506 16.2716L19.3237 15.9239L18.8933 12.5533L21.0945 10.4853C21.2248 10.3628 21.3113 10.1874 21.3369 9.99375C21.3625 9.80007 21.3253 9.60217 21.2327 9.4391L19.8987 7.08929C19.8166 6.94465 19.6958 6.83619 19.5554 6.78101C19.415 6.72583 19.263 6.72706 19.1233 6.7845L17.6442 7.39242L15.5033 6.76394C15.3915 6.73103 15.2744 6.73268 15.1634 6.76871C15.0523 6.80474 14.9511 6.87394 14.8696 6.96955L12.8686 9.31936C12.8066 9.39216 12.7575 9.47858 12.724 9.57368C12.6905 9.66878 12.6733 9.7707 12.6734 9.87362V13.3253C12.6733 13.9996 12.5173 14.6612 12.2219 15.2395L11.8373 15.9922C11.1761 17.289 10.3059 18.422 9.27551 19.3277C8.54257 19.972 7.92363 20.7779 7.4533 21.7003C6.96725 22.6529 6.63237 23.7012 6.46495 24.7942C6.39489 24.8204 6.32901 24.8601 6.27001 24.9117L4.41145 26.5492C3.95783 26.9476 3.43437 27.2224 2.87906 27.3537L0.536245 27.9039C0.417811 27.9317 0.30803 27.9967 0.218615 28.0921C0.129201 28.1874 0.063509 28.3095 0.028551 28.4452C-0.00640691 28.581 -0.00931926 28.7253 0.0201245 28.8629C0.0495683 29.0004 0.110263 29.126 0.195732 29.2262L0.222663 29.2577C0.697773 29.8187 1.26292 30.2635 1.88539 30.5663C2.50787 30.8691 3.17531 31.0239 3.84907 31.0218C4.95834 31.0191 6.03735 30.5968 6.92611 29.8173ZM14.0074 10.7209L14.3557 11.7077C14.3881 11.7994 14.4048 11.8976 14.4048 11.9968C14.4048 12.096 14.3882 12.1943 14.3558 12.286C14.3235 12.3776 14.276 12.4609 14.2163 12.531C14.1565 12.6011 14.0855 12.6567 14.0074 12.6946V10.7209ZM8.59724 22.5067C8.97892 21.7581 9.48118 21.1042 10.0759 20.5813C11.2445 19.5541 12.2313 18.2692 12.9812 16.7986L13.3658 16.046C13.6389 15.5109 13.8292 14.9234 13.928 14.3105C14.2059 14.284 14.4758 14.1883 14.7198 14.0297C14.9638 13.8712 15.1762 13.6534 15.3429 13.3909C15.5484 13.0677 15.679 12.6875 15.722 12.2873C15.7649 11.8871 15.7188 11.4807 15.5881 11.1078L14.898 9.15223L15.5461 8.39118L17.5143 8.96884C17.6406 9.006 17.7735 8.99885 17.8964 8.94828L19.0756 8.46364L19.7834 9.7105L17.7594 11.6119C17.6682 11.6976 17.5977 11.8099 17.5551 11.9376C17.5124 12.0653 17.4991 12.204 17.5164 12.3396L18.0167 16.256C18.0251 16.3222 18.0408 16.3869 18.0633 16.4484L18.2241 16.889C18.5381 17.7469 18.565 18.7124 18.2996 19.5927C18.2996 19.5936 18.297 19.6013 18.2968 19.6025C18.2429 19.7837 18.2476 19.9818 18.3098 20.1593C18.3721 20.3367 18.4877 20.4812 18.6347 20.5651L21.2153 22.0391C21.2951 22.085 21.3663 22.1489 21.4248 22.2273C21.4833 22.3057 21.528 22.397 21.5563 22.4958L22.502 25.8272L21.6825 26.148L20.6069 23.6225C20.5639 23.5215 20.5027 23.4325 20.4277 23.3619C20.3526 23.2912 20.2654 23.2404 20.1721 23.213L17.504 22.4297C17.3495 22.3843 17.1864 22.4053 17.0439 22.4889L13.0418 24.8387C12.938 24.8997 12.8496 24.9914 12.7852 25.1049L11.4512 27.4547C11.3859 27.5696 11.3477 27.7027 11.3404 27.8405C11.333 27.9783 11.3569 28.116 11.4095 28.2395L12.3972 30.5599C12.4497 30.6835 12.4734 30.8211 12.4661 30.9589C12.4588 31.0967 12.4207 31.2297 12.3555 31.3447L11.451 32.938C11.3957 33.0353 11.3598 33.1459 11.3457 33.2617L10.7605 38.0722H10.0053V31.806C10.0053 31.7031 9.98808 31.6013 9.95456 31.5062C9.92104 31.4112 9.87191 31.3248 9.80996 31.252L8.75357 30.0117C8.23638 29.4064 7.89426 28.6255 7.77555 27.7794L7.76113 27.678C7.50813 25.8923 7.80451 24.0592 8.59724 22.5067ZM3.14062 28.8898C3.8912 28.7123 4.59873 28.3409 5.21187 27.8024L6.3468 26.8029C6.35954 27.1824 6.39237 27.5605 6.4451 27.9352L6.45953 28.0365C6.4692 28.1051 6.48021 28.1736 6.49205 28.2414L6.12519 28.5645C5.58697 29.0377 4.95156 29.3349 4.28368 29.4258C3.6158 29.5167 2.93932 29.3981 2.32319 29.0821L3.14062 28.8898Z" fill="white"/>
<path d="M38.9918 23.7067C38.991 23.6999 38.9901 23.693 38.9891 23.6862C38.7737 22.1712 38.42 20.6878 37.9342 19.2617C37.6722 18.4872 37.1958 17.8388 36.5817 17.421C36.2308 17.098 35.7978 16.9227 35.3519 16.9231V15.999C35.785 15.3819 36.0209 14.6066 36.019 13.8069V13.5852L36.768 12.2659C37.01 11.8396 37.1489 11.3441 37.17 10.8324C37.1911 10.3207 37.0935 9.81184 36.8876 9.36014C36.6817 8.90843 36.3753 8.53081 36.001 8.26753C35.6268 8.00425 35.1987 7.86519 34.7624 7.86517H34.2198L33.2818 7.13085C32.9387 6.8622 32.5326 6.72615 32.1204 6.7417C31.7082 6.75726 31.3104 6.92365 30.9827 7.21762C30.6549 7.51159 30.4135 7.91846 30.2923 8.38137C30.1711 8.84427 30.176 9.3401 30.3064 9.79954L30.6828 11.1253V13.8069C30.6808 14.6066 30.9168 15.3819 31.3498 15.999V16.7649L27.9176 14.0779L26.1298 7.08004C26.4601 6.57458 26.6513 5.96289 26.6779 5.32655C26.7045 4.69021 26.5653 4.05946 26.2788 3.51841C25.9923 2.97737 25.5722 2.55174 25.0744 2.2983C24.5766 2.04486 24.0249 1.97564 23.4927 2.09989C22.9606 2.22413 22.4734 2.53592 22.096 2.99369C21.7187 3.45145 21.4691 4.03343 21.3807 4.66202C21.2922 5.29061 21.3691 5.93592 21.6009 6.5119C21.8328 7.08789 22.2088 7.56717 22.6786 7.88583V9.87337C22.6786 9.97623 22.6958 10.0781 22.7293 10.1731C22.7629 10.2681 22.812 10.3545 22.8739 10.4272L23.3838 11.0258L24.0194 16.2503C24.0321 16.3552 24.0628 16.4559 24.1097 16.5464C24.1565 16.6369 24.2185 16.7153 24.2919 16.7768L28.9611 20.6931C28.9634 20.6951 28.966 20.6964 28.9683 20.6982C28.9706 20.7001 28.9752 20.7047 28.9787 20.708L30.6828 22.0418V25.539H27.5145C26.9397 25.5398 26.3887 25.8082 25.9823 26.2854C25.5759 26.7627 25.3473 27.4097 25.3466 28.0846V29.4553C25.3466 29.6631 25.4169 29.8623 25.542 30.0092C25.6671 30.1561 25.8368 30.2386 26.0137 30.2386H27.186C27.1875 30.7715 27.2784 31.2988 27.4537 31.7904L27.5331 32.0143L25.3702 33.5381C24.8458 33.9076 24.439 34.4688 24.2121 35.1357C23.9853 35.8026 23.9508 36.5385 24.1141 37.2306C24.2773 37.9227 24.6293 38.5328 25.116 38.9676C25.6028 39.4024 26.1975 39.6378 26.8091 39.6378H34.0179C34.1948 39.6378 34.3645 39.5553 34.4896 39.4084C34.6146 39.2615 34.6849 39.0623 34.6849 38.8545V35.9354C35.5412 36.3218 36.4735 36.4135 37.3726 36.1998C38.0097 36.0495 38.5948 35.6811 39.0539 35.141C39.0883 35.1006 39.1218 35.0594 39.1549 35.017C39.4807 34.5931 39.7221 34.0894 39.8617 33.5425C40.0013 32.9956 40.0357 32.419 39.9623 31.8546L38.9918 23.7067ZM37.353 27.1055V22.1922C37.4811 22.7671 37.5885 23.3482 37.6718 23.9336L38.3599 29.7266L36.8514 28.9307C37.1779 28.3994 37.3534 27.7607 37.353 27.1055ZM35.8284 18.7258C35.9506 18.8718 36.019 19.0682 36.019 19.2729V21.6227H34.6849V19.2729C34.6851 19.0933 34.7378 18.9192 34.8341 18.7797C34.9305 18.6402 35.0647 18.5438 35.2143 18.5065C35.4284 18.5364 35.6363 18.6107 35.8284 18.7258ZM32.4885 15.144C32.3385 14.9688 32.2196 14.7604 32.1386 14.5309C32.0577 14.3014 32.0163 14.0553 32.0168 13.8069V11.7815H33.661L34.6849 13.5852V13.8069C34.6855 14.0553 34.6441 14.3014 34.5631 14.5309C34.4822 14.7604 34.3633 14.9688 34.2133 15.144C34.1513 15.2167 34.1022 15.3031 34.0687 15.3981C34.0351 15.4931 34.0179 15.595 34.0179 15.6978V16.9231H32.6839V15.6978C32.6839 15.595 32.6666 15.4931 32.6331 15.3981C32.5996 15.3031 32.5504 15.2167 32.4885 15.144ZM31.7279 8.52889C31.8336 8.40548 31.9723 8.32868 32.1206 8.31147C32.2689 8.29425 32.4177 8.33768 32.5419 8.43441L33.648 9.30011C33.7575 9.38589 33.8862 9.43168 34.0179 9.4317H34.7624C34.9572 9.43174 35.1483 9.49384 35.3154 9.61138C35.4825 9.72893 35.6193 9.89753 35.7112 10.0992C35.8031 10.3008 35.8467 10.528 35.8374 10.7565C35.828 10.985 35.766 11.2062 35.658 11.3965L35.3519 11.936L34.5729 10.5643C34.512 10.4569 34.4295 10.3688 34.3327 10.3079C34.2359 10.247 34.1277 10.215 34.0179 10.215H31.8306L31.5721 9.30442C31.5338 9.17096 31.5281 9.02757 31.5556 8.8905C31.5832 8.75343 31.6429 8.62816 31.7279 8.52889ZM24.0126 3.60752C24.3279 3.6074 24.6329 3.73905 24.8731 3.97889C24.2187 4.17899 23.5498 4.3065 22.8752 4.35975C22.9939 4.13037 23.1609 3.9407 23.3601 3.80896C23.5593 3.67723 23.784 3.60786 24.0126 3.60752ZM22.8462 5.93324C23.6837 5.87684 24.5139 5.71862 25.3236 5.46112C25.2939 5.64969 25.2345 5.83011 25.1485 5.99316C25.1443 5.99472 25.1402 5.9957 25.1358 5.99737L23.5207 6.62966C23.2339 6.49642 22.9954 6.25022 22.8462 5.93324ZM29.2766 19.0334L25.2995 15.6975L24.6728 10.5465C24.6524 10.3787 24.5862 10.2232 24.4842 10.1034L24.0126 9.54919V8.0883L24.9053 7.73896L26.7088 14.7982C26.7535 14.9727 26.8485 15.1236 26.9777 15.2247L30.3029 17.8278L29.2766 19.0334ZM30.3957 19.9348L31.6261 18.49H33.4656C33.3896 18.7415 33.3508 19.0064 33.3509 19.2733V25.5394H32.0168V21.6231C32.0169 21.4941 31.9898 21.3671 31.9379 21.2534C31.8861 21.1397 31.8112 21.0428 31.7198 20.9713L30.3957 19.9348ZM26.6807 28.6721V28.0846C26.6809 27.825 26.7689 27.5762 26.9252 27.3926C27.0815 27.2091 27.2934 27.1058 27.5145 27.1055H34.0179C34.1948 27.1055 34.3645 27.023 34.4896 26.8761C34.6146 26.7292 34.6849 26.53 34.6849 26.3223V23.1892H36.019V27.1055C36.0185 27.5209 35.8779 27.919 35.6278 28.2127C35.3777 28.5064 35.0386 28.6716 34.6849 28.6721H26.6807ZM28.1268 36.8535C28.0537 36.9822 28.0147 37.1334 28.0147 37.288V38.0713H26.8091C26.4893 38.0713 26.1783 37.9482 25.9237 37.7208C25.6692 37.4934 25.4851 37.1744 25.3997 36.8124C25.3143 36.4505 25.3324 36.0657 25.451 35.7169C25.5696 35.3681 25.7824 35.0747 26.0566 34.8814L28.0517 33.4759L28.8181 35.6358L28.1268 36.8535ZM33.3509 38.0713H29.3488V37.5252L29.9281 36.5047H33.3509V38.0713ZM38.1711 33.9591C38.1515 33.9842 38.1315 34.0088 38.1106 34.0333C37.8369 34.3552 37.4883 34.5748 37.1085 34.6645C36.4391 34.8239 35.7446 34.7492 35.1109 34.4498L33.6442 33.7584L31.8928 30.8762C31.8424 30.7911 31.7781 30.7187 31.7036 30.663C31.6292 30.6074 31.5461 30.5696 31.4592 30.5519C31.3722 30.5342 31.2831 30.537 31.1971 30.56C31.1111 30.5831 31.0298 30.6259 30.9579 30.6861C30.8861 30.7463 30.8252 30.8226 30.7786 30.9106C30.7321 30.9987 30.7009 31.0967 30.6868 31.199C30.6728 31.3013 30.6762 31.4058 30.6968 31.5066C30.7174 31.6073 30.7548 31.7023 30.8069 31.786L32.7225 34.9386H30.0158L28.6851 31.1882C28.5779 30.8875 28.5221 30.565 28.5207 30.239H34.6849C35.0192 30.2392 35.3504 30.1651 35.6613 30.0208L38.5786 31.5599L38.6412 32.0759C38.6864 32.411 38.6677 32.7537 38.5864 33.0794C38.5051 33.405 38.3633 33.7053 38.1711 33.9587V33.9591Z" fill="white"/>
<path d="M16.3421 10.559C16.6645 10.559 16.9258 10.2521 16.9258 9.87357C16.9258 9.49503 16.6645 9.18817 16.3421 9.18817C16.0197 9.18817 15.7584 9.49503 15.7584 9.87357C15.7584 10.2521 16.0197 10.559 16.3421 10.559Z" fill="white"/>
<path d="M4.8661 33.5954L5.34377 33.2614C5.41974 33.2092 5.48617 33.1399 5.53921 33.0574C5.59226 32.9749 5.63088 32.8809 5.65284 32.7808C5.67481 32.6807 5.67969 32.5765 5.6672 32.4742C5.65471 32.3719 5.62511 32.2735 5.58008 32.1847C5.53506 32.0959 5.47551 32.0184 5.40487 31.9567C5.33423 31.8951 5.2539 31.8504 5.1685 31.8254C5.0831 31.8004 4.99433 31.7954 4.9073 31.8108C4.82027 31.8263 4.7367 31.8618 4.66141 31.9153L4.18365 32.2493C3.79606 32.5198 3.36479 32.6926 2.91725 32.7568C2.46971 32.8209 2.01569 32.775 1.58408 32.622C1.49982 32.5903 1.41104 32.5786 1.3229 32.5876C1.23476 32.5967 1.14903 32.6262 1.0707 32.6745C0.992372 32.7228 0.923005 32.7889 0.86664 32.8689C0.810276 32.949 0.76804 33.0415 0.742391 33.1409C0.716743 33.2403 0.708194 33.3447 0.717244 33.4481C0.726293 33.5514 0.752759 33.6516 0.795101 33.7428C0.837443 33.8341 0.894815 33.9145 0.963877 33.9794C1.03294 34.0443 1.11231 34.0925 1.19737 34.1211C1.80648 34.3371 2.44721 34.4019 3.07881 34.3113C3.7104 34.2208 4.31904 33.9769 4.86602 33.5952L4.8661 33.5954Z" fill="white"/>
<path d="M12.1927 5.40133L11.598 6.17725C10.8816 7.11087 10.4854 8.32324 10.4861 9.57995C10.4861 9.78769 10.5564 9.98692 10.6814 10.1338C10.8065 10.2807 10.9762 10.3632 11.1531 10.3632C11.33 10.3632 11.4996 10.2807 11.6247 10.1338C11.7498 9.98692 11.8201 9.78769 11.8201 9.57995C11.8197 8.71019 12.0941 7.87117 12.59 7.22516L13.1846 6.44924C13.2451 6.37318 13.2921 6.28371 13.3229 6.18607C13.3536 6.08843 13.3675 5.98457 13.3636 5.88057C13.3598 5.77657 13.3383 5.67451 13.3005 5.58036C13.2627 5.48621 13.2093 5.40185 13.1434 5.33223C13.0775 5.2626 13.0004 5.2091 12.9167 5.17484C12.833 5.14059 12.7443 5.12627 12.6559 5.13274C12.5674 5.1392 12.4809 5.1663 12.4014 5.21247C12.322 5.25864 12.2512 5.32294 12.1931 5.40162L12.1927 5.40133Z" fill="white"/>
<path d="M26.4505 3.31186e-06C26.2736 3.31186e-06 26.1039 0.0825265 25.9788 0.229419C25.8537 0.376311 25.7834 0.575539 25.7834 0.783275C25.7834 0.991012 25.8537 1.19024 25.9788 1.33713C26.1039 1.48402 26.2736 1.56655 26.4505 1.56655C26.7718 1.56607 27.0882 1.65934 27.3713 1.83797C27.6544 2.01661 27.8952 2.27502 28.0722 2.58999L28.1257 2.68486C28.1739 2.77111 28.2361 2.84533 28.3088 2.90327C28.3814 2.96121 28.4631 3.00172 28.5492 3.02248C28.6352 3.04324 28.7239 3.04384 28.8102 3.02425C28.8964 3.00465 28.9785 2.96525 29.0517 2.9083C29.125 2.85135 29.1879 2.77797 29.2369 2.69238C29.2859 2.60679 29.3201 2.51068 29.3374 2.40955C29.3547 2.30843 29.3548 2.20428 29.3378 2.1031C29.3207 2.00192 29.2868 1.90569 29.238 1.81994L29.1846 1.72526C28.8862 1.19427 28.4802 0.758647 28.0029 0.457513C27.5257 0.156378 26.9922 -0.00083206 26.4505 3.31186e-06Z" fill="white"/>
</svg>
