<svg width="40" height="33" viewBox="0 0 40 33" fill="none" xmlns="http://www.w3.org/2000/svg">
<path d="M36.0074 15.3903C36.0074 13.3741 34.4921 11.7073 32.5442 11.4732V1.35365C32.5442 0.734066 32.1436 0.209396 31.5473 0.0481702C30.9511 -0.112899 30.342 0.138541 30.0317 0.674106C27.901 4.35181 24.545 6.86558 20.0571 8.14575C16.6634 9.11373 13.8629 8.97343 13.8359 8.97179C13.7948 8.96944 13.754 8.9714 13.7135 8.97547H6.53765C2.93281 8.97547 0 11.9178 0 15.5344C0 18.9408 2.60211 21.7481 5.91671 22.0629L8.08108 30.992C8.36764 32.1743 9.41483 33 10.6276 33H12.1298C12.9391 33 13.6901 32.6339 14.1903 31.9955C14.6904 31.3571 14.8676 30.5384 14.6764 29.7495L12.8205 22.0932H13.7122C13.7528 22.0974 13.7938 22.0993 13.8352 22.097C13.863 22.0954 16.6634 21.955 20.0571 22.923C24.545 24.2032 27.9009 26.717 30.0317 30.3946C30.2794 30.8223 30.7176 31.0688 31.1876 31.0688C31.3064 31.0688 31.4271 31.0531 31.5473 31.0206C32.1436 30.8594 32.5442 30.3348 32.5442 29.7152V19.5955C34.4921 19.3615 36.0074 17.6947 36.0074 15.6785V15.3903ZM12.9112 29.1016L13.158 30.1199C13.2353 30.4385 13.1638 30.7691 12.9618 31.0269C12.7599 31.2847 12.4566 31.4325 12.1298 31.4325H10.6276C10.1379 31.4325 9.71506 31.0991 9.59936 30.6217L7.5321 22.0933H11.2125L11.7643 24.3698H11.3908C10.9594 24.3698 10.6096 24.7207 10.6096 25.1536C10.6096 25.5865 10.9594 25.9374 11.3908 25.9374H12.1442L12.5312 27.534H12.2864C11.8549 27.534 11.5051 27.8849 11.5051 28.3178C11.5051 28.7507 11.8549 29.1016 12.2864 29.1016H12.9112ZM13.0104 17.1996H8.15522C7.72374 17.1996 7.37397 17.5505 7.37397 17.9834C7.37397 18.4163 7.72374 18.7672 8.15522 18.7672H13.0104V20.5257H11.869C11.8547 20.5249 11.8405 20.5239 11.826 20.5239H6.53765C6.53022 20.5239 6.52288 20.525 6.51546 20.5252C3.78242 20.513 1.5625 18.2791 1.5625 15.5344C1.5625 12.7822 3.79437 10.5431 6.53765 10.5431H13.0104V17.1996ZM30.9816 12.2278V18.841V28.9494C28.6403 25.2965 25.0087 22.6938 20.4316 21.4003C17.8973 20.6841 15.7083 20.541 14.5729 20.5224V17.9834V10.5463C15.7085 10.5278 17.8975 10.3846 20.4316 9.6685C25.0086 8.37493 28.6403 5.77227 30.9816 2.11934V12.2278ZM34.4448 15.6785C34.4448 16.8286 33.6271 17.7907 32.5441 18.0102V13.0586C33.627 13.2781 34.4448 14.2402 34.4448 15.3903V15.6785Z" fill="white"/>
<path d="M36.2413 10.9615C36.429 10.9615 36.6174 10.8941 36.7671 10.7573L39.0204 8.69842C39.3394 8.40693 39.3625 7.91126 39.072 7.59116C38.7815 7.27113 38.2874 7.24801 37.9683 7.53943L35.7151 9.59821C35.3961 9.8897 35.3729 10.3854 35.6635 10.7055C35.8177 10.8753 36.0291 10.9615 36.2413 10.9615Z" fill="white"/>
<path d="M36.7672 20.3116C36.4481 20.0202 35.954 20.0433 35.6635 20.3633C35.3729 20.6833 35.3961 21.1791 35.7151 21.4706L37.9683 23.5294C38.1182 23.6662 38.3065 23.7337 38.4942 23.7337C38.7064 23.7337 38.9179 23.6475 39.072 23.4776C39.3625 23.1576 39.3394 22.6619 39.0204 22.3704L36.7672 20.3116Z" fill="white"/>
<path d="M39.2188 14.7506H37.4885C37.057 14.7506 36.7073 15.1015 36.7073 15.5344C36.7073 15.9673 37.057 16.3182 37.4885 16.3182H39.2188C39.6502 16.3182 40 15.9673 40 15.5344C40 15.1015 39.6502 14.7506 39.2188 14.7506Z" fill="white"/>
<path d="M5.65785 17.6839C5.63832 17.6361 5.6141 17.5906 5.58597 17.5483C5.55707 17.5052 5.52503 17.4652 5.4891 17.4291C5.45238 17.3931 5.41253 17.3602 5.36957 17.332C5.32738 17.3037 5.28207 17.2794 5.23519 17.2599C5.18754 17.2403 5.13832 17.2254 5.0891 17.2152C4.98832 17.1948 4.88441 17.1948 4.78363 17.2152C4.73363 17.2254 4.68441 17.2403 4.63754 17.2599C4.59066 17.2794 4.54457 17.3037 4.50238 17.332C4.45941 17.3602 4.41957 17.3931 4.38363 17.4291C4.34769 17.4652 4.31488 17.5052 4.28676 17.5483C4.25863 17.5906 4.23441 17.6361 4.21488 17.6839C4.19535 17.7309 4.18051 17.7803 4.17035 17.8305C4.16019 17.8806 4.15472 17.9323 4.15472 17.9833C4.15472 18.0342 4.16019 18.086 4.17035 18.1369C4.18051 18.1863 4.19535 18.2357 4.21488 18.2835C4.23441 18.3305 4.25863 18.376 4.28676 18.4183C4.31488 18.4614 4.34769 18.5014 4.38363 18.5374C4.41957 18.5735 4.45941 18.6064 4.50238 18.6354C4.54457 18.6636 4.59066 18.6879 4.63754 18.7075C4.68441 18.7271 4.73363 18.742 4.78363 18.7522C4.83441 18.7624 4.88519 18.7671 4.93597 18.7671C4.98754 18.7671 5.03832 18.7624 5.0891 18.7522C5.1391 18.742 5.18754 18.7271 5.23519 18.7075C5.28207 18.6879 5.32738 18.6636 5.36957 18.6354C5.41253 18.6064 5.45238 18.5735 5.4891 18.5374C5.52503 18.5014 5.55707 18.4614 5.58597 18.4183C5.6141 18.376 5.63832 18.3305 5.65785 18.2835C5.67738 18.2357 5.69222 18.1863 5.70238 18.1369C5.71253 18.086 5.71722 18.0342 5.71722 17.9833C5.71722 17.9323 5.71253 17.8806 5.70238 17.8305C5.69222 17.7803 5.67738 17.7309 5.65785 17.6839Z" fill="white"/>
</svg>
