<svg width="454" height="402" viewBox="0 0 454 402" fill="none" xmlns="http://www.w3.org/2000/svg">
<path d="M387.38 368.015C298.76 413.323 155.086 413.333 66.4657 368.015C-22.1548 322.696 -22.1548 249.202 66.4657 203.933C155.086 158.664 298.76 158.625 387.38 203.933C476.001 249.242 476.001 322.736 387.38 368.015Z" fill="white" fill-opacity="0.55"/>
<path d="M294.178 327.445L342.022 300.008L278.982 264.554L293.888 327.944" fill="white" fill-opacity="0.5"/>
<path d="M205.228 302.863L162.625 327.464C161.037 328.267 159.282 328.685 157.503 328.685C155.724 328.685 153.969 328.267 152.381 327.464L66.5163 277.902C63.6907 276.265 63.6907 273.619 66.5163 271.992L109.119 247.39C110.707 246.587 112.462 246.169 114.241 246.169C116.021 246.169 117.775 246.587 119.363 247.39L205.228 296.952C208.063 298.62 208.063 301.236 205.228 302.863Z" fill="white" fill-opacity="0.5"/>
<path d="M364.077 284.053C364.706 276.295 368.261 263.545 377.287 251.404C386.941 238.425 398.723 230.297 407.469 234.091C415.616 237.636 412.531 248.878 398.483 259.981C388.649 267.758 378.445 277.892 372.953 290.123L364.057 305.689L364.077 284.053Z" fill="#6EBD1E"/>
<g opacity="0.1">
<path opacity="0.1" d="M364.077 284.053C364.706 276.295 368.261 263.545 377.287 251.404C386.941 238.425 398.723 230.297 407.469 234.091C415.616 237.636 412.531 248.878 398.483 259.981C388.649 267.758 378.445 277.892 372.953 290.123L364.057 305.689L364.077 284.053Z" fill="black"/>
</g>
<path d="M364.866 289.973C364.98 289.973 365.092 289.938 365.185 289.872C365.278 289.805 365.348 289.712 365.385 289.604C373.203 268.088 389.477 246.312 403.246 238.954C403.311 238.92 403.37 238.873 403.417 238.816C403.465 238.76 403.5 238.694 403.523 238.624C403.545 238.553 403.553 238.479 403.547 238.406C403.54 238.332 403.519 238.26 403.485 238.195C403.451 238.129 403.405 238.071 403.348 238.024C403.291 237.976 403.226 237.94 403.156 237.918C403.085 237.896 403.011 237.888 402.937 237.894C402.864 237.9 402.792 237.921 402.727 237.955C388.749 245.434 372.245 267.459 364.347 289.215C364.299 289.351 364.306 289.501 364.368 289.632C364.43 289.763 364.541 289.864 364.676 289.913C364.735 289.947 364.799 289.968 364.866 289.973Z" fill="white"/>
<path d="M364.866 310.601C369.383 314.152 374.755 316.452 380.442 317.27C390.256 318.808 394.55 314.115 394.55 314.115C394.55 314.115 390.686 304.91 385.104 302.324C391.136 303.675 396.896 306.038 402.138 309.313C402.138 309.313 408.128 309.403 410.514 300.257C410.514 300.257 406.97 294.756 395.059 291.781C395.059 291.781 402.297 289.953 412.741 292.619C413.53 292.929 416.864 281.107 417.873 275.646C418.881 270.185 416.695 270.244 412.441 269.106C408.188 267.968 393.711 267.259 391.045 269.605C388.379 271.952 387.051 279.939 387.051 279.939C387.051 279.939 384.505 275.416 385.114 271.373C382.147 270.526 378.992 270.602 376.069 271.592C371.286 273.25 371.596 275.586 371.596 279.061C371.575 282.562 372.056 286.049 373.023 289.414C373.023 289.414 369.719 286.559 369.609 276.035C369.609 276.035 363.149 281.557 360.553 286.309C357.957 291.062 358.606 303.492 364.866 310.601Z" fill="#6EBD1E"/>
<path d="M364.866 311.13C364.97 311.131 365.072 311.102 365.161 311.048C365.249 310.993 365.32 310.914 365.365 310.821C373.283 294.366 402.726 275.257 413.29 273.2C413.433 273.171 413.56 273.087 413.642 272.965C413.724 272.844 413.756 272.695 413.729 272.551C413.715 272.48 413.687 272.413 413.646 272.353C413.606 272.293 413.554 272.241 413.494 272.201C413.433 272.162 413.366 272.134 413.295 272.12C413.224 272.106 413.151 272.107 413.08 272.121C402.337 274.208 372.414 293.628 364.367 310.341C364.305 310.474 364.297 310.626 364.346 310.764C364.394 310.902 364.495 311.016 364.626 311.08C364.701 311.116 364.783 311.133 364.866 311.13Z" fill="white"/>
<path d="M366.903 136.076V315.314L199.637 218.736V56.9705L313.897 122.887L318.19 107.89L366.903 136.076Z" fill="#37474F"/>
<path d="M366.903 315.313L358.327 157.921L191.06 61.3534L199.637 218.736L366.903 315.313Z" fill="#F0F0F0"/>
<path d="M366.903 315.314L351.757 162.305L184.491 65.7366L199.637 218.736L366.903 315.314Z" fill="#455A64"/>
<path d="M294.497 328.144C294.966 328.144 295.036 327.604 295.036 327.285V97.0075C295.001 96.4084 294.826 95.8258 294.526 95.3059C294.226 94.7859 293.81 94.343 293.309 94.0122L131.703 0.779028C131.521 0.660583 131.311 0.591754 131.094 0.579346C130.635 0.579346 130.565 1.11849 130.565 1.43799V231.725C130.601 232.324 130.775 232.907 131.075 233.427C131.375 233.947 131.792 234.39 132.292 234.721L293.888 327.944C294.071 328.06 294.281 328.129 294.497 328.144Z" fill="#FAFAFA"/>
<path d="M131.175 1.17815C131.16 1.26408 131.16 1.3518 131.175 1.43773V231.725C131.216 232.22 131.366 232.699 131.615 233.129C131.864 233.559 132.204 233.929 132.612 234.211L294.178 327.444C294.255 327.491 294.34 327.525 294.428 327.544C294.435 327.458 294.435 327.371 294.428 327.285V97.0072C294.389 96.5128 294.241 96.033 293.994 95.6029C293.747 95.1729 293.408 94.8033 293 94.5212L131.414 1.27799C131.339 1.23377 131.259 1.20017 131.175 1.17815ZM131.095 0C131.413 0.00775186 131.723 0.100855 131.993 0.269576L293.599 93.5127C294.183 93.8975 294.668 94.4144 295.015 95.0215C295.362 95.6286 295.561 96.3089 295.596 97.0072V327.285C295.596 328.193 295.146 328.722 294.477 328.722C294.16 328.71 293.851 328.617 293.579 328.453L131.963 235.21C131.382 234.822 130.898 234.305 130.552 233.698C130.205 233.092 130.005 232.413 129.967 231.715V1.43773C129.967 0.519181 130.426 0 131.085 0H131.095Z" fill="#E6E6E6"/>
<path d="M281.418 102.878L234.092 75.5509V130.195L281.418 157.522V102.878Z" fill="#6EBD1E"/>
<path d="M241.191 89.2096V105.604L242.679 106.432V101.44C242.679 98.6647 244.936 97.7262 247.721 99.3337L267.75 110.915C270.535 112.523 272.802 116.077 272.802 118.843V123.835L274.279 124.724V108.339L241.191 89.2096Z" fill="#FAFAFA"/>
<path d="M250.317 130.994C252.753 132.401 254.72 130.924 254.72 127.709V101.41L260.76 104.725V131.223C260.76 134.438 262.757 138.212 265.164 139.58L269.557 142.116V143.863L245.894 130.195V128.458L250.317 130.994Z" fill="#FAFAFA"/>
<path d="M224.627 72.8253C224.627 74.3329 223.269 74.8221 221.632 73.8237L147.229 30.8913C146.418 30.4247 145.727 29.7775 145.207 29C144.688 28.2224 144.355 27.3356 144.234 26.4083C144.234 24.9007 145.591 24.4614 147.229 25.4099L221.632 68.3423C222.444 68.8071 223.137 69.4539 223.656 70.2317C224.176 71.0096 224.508 71.8973 224.627 72.8253Z" fill="#E0E0E0"/>
<path d="M224.627 89.2097C224.627 90.7273 223.269 91.2065 221.632 90.2081L147.229 47.2757C146.418 46.8091 145.727 46.1619 145.207 45.3844C144.688 44.6069 144.355 43.72 144.234 42.7928C144.234 41.2851 145.591 40.7959 147.229 41.7943L221.632 84.7267C222.444 85.1916 223.137 85.8383 223.656 86.6161C224.176 87.394 224.508 88.2817 224.627 89.2097Z" fill="#E0E0E0"/>
<path d="M224.627 105.604C224.627 107.121 223.269 107.6 221.632 106.602L147.229 63.6696C146.418 63.203 145.727 62.5558 145.207 61.7783C144.688 61.0008 144.355 60.1139 144.234 59.1867C144.234 57.6791 145.591 57.1898 147.229 58.1883L221.632 101.121C222.444 101.585 223.137 102.232 223.656 103.01C224.176 103.788 224.508 104.676 224.627 105.604Z" fill="#E0E0E0"/>
<path d="M224.627 121.998C224.627 123.506 223.269 123.995 221.632 122.997L147.229 80.0643C146.418 79.5977 145.727 78.9504 145.207 78.1729C144.688 77.3954 144.355 76.5086 144.234 75.5813C144.234 74.0737 145.591 73.6344 147.229 74.5829L221.632 117.515C222.444 117.98 223.137 118.627 223.656 119.405C224.176 120.183 224.508 121.07 224.627 121.998Z" fill="#E0E0E0"/>
<path d="M281.418 171.19C281.418 172.698 280.06 173.137 278.423 172.189L147.229 96.5081C146.419 96.0415 145.727 95.3943 145.208 94.6168C144.688 93.8393 144.355 92.9524 144.234 92.0252C144.234 90.5175 145.592 90.0782 147.229 91.0267L278.423 166.718C279.232 167.183 279.923 167.829 280.442 168.604C280.962 169.38 281.296 170.265 281.418 171.19Z" fill="#E0E0E0"/>
<path d="M281.418 187.584C281.418 189.092 280.06 189.581 278.423 188.583L147.199 112.912C146.389 112.445 145.697 111.798 145.178 111.021C144.658 110.243 144.325 109.356 144.204 108.429C144.204 106.921 145.562 106.482 147.199 107.431L278.393 183.102C279.209 183.565 279.906 184.21 280.431 184.988C280.956 185.766 281.294 186.654 281.418 187.584Z" fill="#E0E0E0"/>
<path d="M281.418 203.979C281.418 205.486 280.06 205.976 278.423 204.977L147.229 129.296C146.419 128.83 145.727 128.183 145.208 127.405C144.688 126.628 144.355 125.741 144.234 124.814C144.234 123.306 145.592 122.817 147.229 123.815L278.423 199.506C279.232 199.972 279.923 200.617 280.442 201.393C280.962 202.169 281.296 203.053 281.418 203.979Z" fill="#E0E0E0"/>
<path d="M281.418 220.363C281.418 221.87 280.06 222.36 278.423 221.361L147.229 145.67C146.419 145.207 145.726 144.561 145.207 143.785C144.687 143.009 144.354 142.124 144.234 141.197C144.234 139.68 145.592 139.201 147.229 140.199L278.423 215.89C279.233 216.354 279.926 216.999 280.445 217.775C280.965 218.551 281.298 219.437 281.418 220.363Z" fill="#E0E0E0"/>
<path d="M281.418 236.718C281.418 238.225 280.06 238.665 278.423 237.716L147.229 162.025C146.419 161.559 145.727 160.911 145.208 160.134C144.688 159.356 144.355 158.469 144.234 157.542C144.234 156.035 145.592 155.595 147.229 156.544L278.423 232.225C279.234 232.692 279.927 233.341 280.446 234.12C280.966 234.9 281.298 235.789 281.418 236.718Z" fill="#E0E0E0"/>
<path d="M281.418 253.151C281.418 254.659 280.06 255.148 278.423 254.15L147.229 178.469C146.419 178.002 145.727 177.355 145.208 176.578C144.688 175.8 144.355 174.913 144.234 173.986C144.234 172.478 145.592 171.989 147.229 172.988L278.393 248.698C279.205 249.159 279.9 249.8 280.425 250.572C280.95 251.344 281.289 252.227 281.418 253.151Z" fill="#E0E0E0"/>
<path d="M281.418 269.535C281.418 271.043 280.06 271.532 278.423 270.534L147.229 194.843C146.419 194.379 145.726 193.734 145.207 192.958C144.687 192.182 144.354 191.296 144.234 190.37C144.234 188.853 145.592 188.373 147.229 189.372L278.423 265.063C279.233 265.526 279.926 266.172 280.445 266.948C280.965 267.724 281.298 268.609 281.418 269.535Z" fill="#E0E0E0"/>
<path d="M281.418 285.93C281.418 287.437 280.06 287.877 278.423 286.928L147.229 211.237C146.419 210.771 145.727 210.124 145.208 209.346C144.688 208.569 144.355 207.682 144.234 206.754C144.234 205.247 145.592 204.758 147.229 205.756L278.423 281.437C279.234 281.904 279.927 282.553 280.446 283.333C280.966 284.112 281.298 285.001 281.418 285.93Z" fill="#E0E0E0"/>
<path d="M281.418 302.324C281.418 303.832 280.06 304.321 278.423 303.323L147.229 227.642C146.419 227.175 145.727 226.528 145.208 225.75C144.688 224.973 144.355 224.086 144.234 223.159C144.234 221.651 145.592 221.212 147.229 222.16L278.423 297.851C279.232 298.317 279.923 298.962 280.442 299.738C280.962 300.514 281.296 301.399 281.418 302.324Z" fill="#E0E0E0"/>
<path d="M79.3764 184.26C79.3386 178.443 77.679 172.751 74.584 167.826V158.55C74.5422 158.077 74.6158 157.602 74.7984 157.163C74.981 156.725 75.2671 156.338 75.6323 156.034C75.7232 155.971 75.8202 155.918 75.9219 155.875L106.004 138.472C106.46 138.274 106.958 138.197 107.452 138.25C107.945 138.302 108.417 138.482 108.82 138.772L132.533 152.46C133.676 153.249 134.624 154.289 135.304 155.5C135.984 156.711 136.378 158.062 136.457 159.449C136.726 166.238 138.943 178.808 150.934 185.728C162.925 192.647 165.171 182.513 165.421 176.043C165.521 173.467 167.108 172.429 169.335 173.716L193.057 187.405C194.225 188.175 195.194 189.209 195.888 190.423C196.582 191.637 196.98 192.997 197.051 194.394V203.669C197.051 203.669 192.259 205.007 192.259 214.572C192.259 224.137 199.667 241.48 199.667 265.552C199.667 277.603 195.843 287.667 187.816 292.29L157.673 309.682C149.686 314.395 137.445 313.676 120.602 303.911C87.0743 284.552 71.8383 250.785 71.8383 226.723C71.8383 202.661 79.3764 193.785 79.3764 184.26Z" fill="#6EBD1E"/>
<path d="M108.92 138.742L132.632 152.43C133.777 153.218 134.726 154.258 135.406 155.469C136.086 156.681 136.479 158.032 136.556 159.419C136.806 165.679 138.703 176.842 148.388 183.961L166.629 173.427L166.729 173.377C167.166 173.182 167.648 173.108 168.124 173.162C168.6 173.216 169.052 173.398 169.434 173.687L193.157 187.375C193.488 187.568 193.799 187.792 194.086 188.044C194.858 188.706 195.51 189.497 196.013 190.38C196.734 191.592 197.14 192.965 197.191 194.374V203.65L195.883 204.408C194.445 205.567 192.398 208.302 192.398 214.542C192.398 224.107 199.807 241.5 199.807 265.522C199.807 277.573 195.983 287.657 187.955 292.28L157.923 309.603C165.8 304.92 169.544 294.936 169.544 282.995C169.544 258.923 162.146 241.57 162.146 232.005C162.146 222.44 166.938 221.112 166.938 221.112V211.837C166.862 210.441 166.461 209.083 165.768 207.87C165.075 206.657 164.108 205.622 162.945 204.848L139.222 191.159C138.852 190.883 138.418 190.706 137.96 190.643C137.503 190.58 137.037 190.634 136.606 190.8H136.506C136.102 191.101 135.78 191.5 135.57 191.959C135.361 192.418 135.271 192.922 135.308 193.426C135.069 199.905 132.892 210.089 120.821 203.12C108.75 196.151 106.613 183.631 106.334 176.842C106.26 175.455 105.868 174.104 105.19 172.892C104.511 171.68 103.564 170.641 102.42 169.853L78.7073 156.164C78.3198 155.888 77.8701 155.712 77.3982 155.651C76.9263 155.59 76.4466 155.646 76.0016 155.815L106.004 138.472C106.47 138.252 106.986 138.161 107.499 138.208C108.012 138.256 108.503 138.44 108.92 138.742Z" fill="#6EBD1E"/>
<path opacity="0.1" d="M195.863 204.398L166.908 221.102V211.827C166.863 210.415 166.454 209.039 165.72 207.833L196.012 190.39C196.736 191.601 197.141 192.975 197.19 194.384V203.659L195.863 204.398Z" fill="black"/>
<path opacity="0.4" d="M148.388 183.96L166.629 173.427L166.729 173.377C167.166 173.182 167.648 173.107 168.124 173.162C168.6 173.216 169.053 173.398 169.435 173.687L193.157 187.375C193.488 187.567 193.799 187.791 194.086 188.044C194.858 188.706 195.51 189.496 196.013 190.38L165.71 207.873C165.032 206.648 164.053 205.617 162.865 204.877L139.142 191.189C138.772 190.913 138.338 190.736 137.881 190.673C137.423 190.61 136.957 190.664 136.526 190.83L148.388 183.96Z" fill="white"/>
<path opacity="0.4" d="M75.9222 155.845L106.005 138.472C106.465 138.259 106.974 138.172 107.479 138.22C107.984 138.267 108.467 138.447 108.88 138.742L132.593 152.43C133.761 153.166 134.712 154.2 135.349 155.425L105.056 172.908C104.42 171.682 103.469 170.649 102.301 169.912L78.588 156.224C78.2076 155.95 77.7663 155.772 77.3019 155.706C76.8375 155.64 76.364 155.687 75.9222 155.845Z" fill="white"/>
<path opacity="0.1" d="M105.096 172.918C105.776 174.146 106.175 175.51 106.264 176.911C106.534 183.701 108.76 196.271 120.741 203.19C132.722 210.109 134.989 199.975 135.228 193.495C135.191 192.992 135.281 192.488 135.49 192.029C135.7 191.57 136.022 191.171 136.427 190.87H136.526L148.388 184.02C138.703 176.902 136.806 165.739 136.556 159.479C136.47 158.077 136.071 156.712 135.388 155.485L105.096 172.918Z" fill="black"/>
<path opacity="0.2" d="M157.923 309.603L187.995 292.26C195.983 287.637 199.847 277.553 199.847 265.502C199.847 241.44 192.438 224.087 192.438 214.522C192.438 208.332 194.435 205.596 195.883 204.408L166.928 221.112C166.928 221.112 162.136 222.45 162.136 232.005C162.136 241.56 169.534 258.962 169.534 282.994C169.504 294.946 165.76 304.93 157.923 309.603Z" fill="black"/>
<path d="M113.862 268.407L126.841 275.896L124.845 252.423C126.402 251.604 127.391 249.587 127.391 246.692C127.391 241.52 124.246 235.519 120.402 233.273C116.558 231.026 113.413 233.413 113.413 238.584C113.493 241.647 114.367 244.637 115.949 247.261L113.862 268.407Z" fill="#455A64"/>
<path d="M113.862 268.408L125.614 261.618L126.842 275.896L113.862 268.408Z" fill="#37474F"/>
<path d="M120.352 233.273C122.888 234.74 125.105 237.816 126.343 241.26L115.879 247.301C114.297 244.677 113.423 241.687 113.343 238.624C113.333 233.412 116.478 231.036 120.352 233.273Z" fill="#37474F"/>
<path d="M105.685 96.8078C112.104 93.1036 120.162 93.523 127.82 97.936L156.105 114.27C168.366 121.349 177.611 137.364 177.611 151.512V189.701C177.611 191.279 176.553 192.867 174.466 194.075C172.12 195.266 169.525 195.886 166.893 195.886C164.261 195.886 161.667 195.266 159.32 194.075C157.233 192.867 156.175 191.279 156.175 189.701V151.512C156.175 145.002 151.033 136.096 145.392 132.841L117.107 116.507H117.037V154.767C117.037 156.354 115.978 157.932 113.892 159.14C111.545 160.331 108.95 160.951 106.319 160.951C103.687 160.951 101.092 160.331 98.7455 159.14C96.6588 157.932 95.6005 156.354 95.6005 154.767V116.547C95.6005 107.701 99.2747 100.512 105.685 96.8078Z" fill="#37474F"/>
<path d="M116.987 116.547V154.727C116.987 156.314 115.929 157.892 113.842 159.1C112.85 159.655 111.789 160.078 110.687 160.358V112.833L116.987 116.467V116.547Z" fill="#263238"/>
</svg>
