<svg width="30" height="30" viewBox="0 0 30 30" fill="none" xmlns="http://www.w3.org/2000/svg">
<g id="Icon/Fill/linkedin">
<path id="Mask" fill-rule="evenodd" clip-rule="evenodd" d="M3.74985 6.56152C3.74985 5.00902 5.00985 3.74902 6.56235 3.74902C8.11485 3.74902 9.37485 5.00902 9.37485 6.56152C9.37485 8.11402 8.11485 9.37402 6.56235 9.37402C5.00985 9.37402 3.74985 8.11402 3.74985 6.56152ZM18.938 10.4995C14.8992 10.4995 11.6242 13.7545 11.6242 17.767V25.1233C11.6242 25.7445 12.1292 26.2495 12.7505 26.2495H15.3742C15.9955 26.2495 16.5005 25.7445 16.5005 25.1233V17.767C16.5005 16.347 17.7305 15.212 19.1905 15.3583C20.458 15.4845 21.3742 16.6433 21.3742 17.917V25.1233C21.3742 25.7445 21.8792 26.2495 22.5005 26.2495H25.1242C25.7455 26.2495 26.2505 25.7445 26.2505 25.1233V17.767C26.2505 13.7545 22.9755 10.4995 18.938 10.4995ZM8.24945 11.6238H4.8757C4.25445 11.6238 3.74945 12.1275 3.74945 12.7488V25.1238C3.74945 25.745 4.25445 26.2488 4.8757 26.2488H8.24945C8.8707 26.2488 9.37445 25.745 9.37445 25.1238V12.7488C9.37445 12.1275 8.8707 11.6238 8.24945 11.6238Z" fill="white"/>
<mask id="mask0" mask-type="alpha" maskUnits="userSpaceOnUse" x="3" y="3" width="24" height="24">
<path id="Mask_2" fill-rule="evenodd" clip-rule="evenodd" d="M3.74985 6.56152C3.74985 5.00902 5.00985 3.74902 6.56235 3.74902C8.11485 3.74902 9.37485 5.00902 9.37485 6.56152C9.37485 8.11402 8.11485 9.37402 6.56235 9.37402C5.00985 9.37402 3.74985 8.11402 3.74985 6.56152ZM18.938 10.4995C14.8992 10.4995 11.6242 13.7545 11.6242 17.767V25.1233C11.6242 25.7445 12.1292 26.2495 12.7505 26.2495H15.3742C15.9955 26.2495 16.5005 25.7445 16.5005 25.1233V17.767C16.5005 16.347 17.7305 15.212 19.1905 15.3583C20.458 15.4845 21.3742 16.6433 21.3742 17.917V25.1233C21.3742 25.7445 21.8792 26.2495 22.5005 26.2495H25.1242C25.7455 26.2495 26.2505 25.7445 26.2505 25.1233V17.767C26.2505 13.7545 22.9755 10.4995 18.938 10.4995ZM8.24945 11.6238H4.8757C4.25445 11.6238 3.74945 12.1275 3.74945 12.7488V25.1238C3.74945 25.745 4.25445 26.2488 4.8757 26.2488H8.24945C8.8707 26.2488 9.37445 25.745 9.37445 25.1238V12.7488C9.37445 12.1275 8.8707 11.6238 8.24945 11.6238Z" fill="white"/>
</mask>
<g mask="url(#mask0)">
<g id="&#240;&#159;&#142;&#168; Color">
<rect id="Base" y="-0.000976562" width="30" height="30" fill="white"/>
</g>
</g>
</g>
</svg>
