<svg width="340" height="154" viewBox="0 0 340 154" fill="none" xmlns="http://www.w3.org/2000/svg">
<path d="M117 154C218.874 154 305.799 89.9928 339.753 0H0.5V123.586C34.9358 142.953 74.6779 154 117 154Z" fill="#6DCD0A"/>
<mask id="mask0" mask-type="alpha" maskUnits="userSpaceOnUse" x="0" y="0" width="340" height="154">
<path d="M117 154C218.874 154 305.799 89.9928 339.753 0H0.5V123.586C34.9358 142.953 74.6779 154 117 154Z" fill="#6DCD0A"/>
</mask>
<g mask="url(#mask0)">
<g opacity="0.2">
<path d="M235.551 129.872C235.945 127.115 236.901 124.415 238.362 122.165C246.119 109.734 262.42 110.015 270.852 121.265C273.044 124.134 274.674 127.734 275.067 131.672C275.461 135.553 274.449 139.772 272.032 142.359C269.615 144.947 265.793 145.566 263.095 143.372C261.97 142.472 260.902 141.178 260.228 139.941C259.497 138.591 258.766 137.184 257.305 136.566C256.687 136.284 255.956 136.228 255.281 136.228C253.089 136.341 251.29 137.409 250.279 139.322C249.435 140.897 248.592 142.697 246.85 143.484C245.669 143.991 244.377 143.991 243.14 143.653C236.676 142.022 234.708 135.891 235.551 129.872Z" fill="white"/>
<path d="M244.545 98.034C239.093 100.059 237.968 108.047 243.758 110.409C246.231 111.422 249.267 110.747 251.065 108.778C252.864 106.809 253.314 103.715 252.077 101.353C250.784 98.7652 247.412 96.9652 244.545 98.034Z" fill="white"/>
<path d="M261.914 98.034C256.462 100.059 255.338 108.047 261.127 110.409C263.6 111.422 266.636 110.747 268.434 108.778C270.233 106.809 270.683 103.715 269.446 101.353C268.153 98.7652 264.725 96.9652 261.914 98.034Z" fill="white"/>
<path d="M276.304 109.284C271.751 110.297 270.402 116.428 273.775 119.522C276.304 121.884 280.801 121.49 282.937 118.79C286.703 114.009 281.813 108.103 276.304 109.284Z" fill="white"/>
<path d="M230.717 109.284C226.164 110.297 224.815 116.428 228.188 119.522C230.717 121.884 235.214 121.49 237.35 118.79C241.173 114.009 236.282 108.103 230.717 109.284Z" fill="white"/>
<path d="M-10.2007 102.028C-8.79542 99.6653 -6.82802 97.5278 -4.69203 95.9528C7.22459 87.4027 22.1766 93.9278 25.7178 107.54C26.6172 111.028 26.7858 115.022 25.6616 118.734C24.5374 122.503 22.0079 125.99 18.7477 127.453C15.5437 128.916 11.7214 128.015 10.0913 124.978C9.4168 123.74 8.91091 122.109 8.79849 120.703C8.62986 119.184 8.51744 117.609 7.39323 116.484C6.88733 115.978 6.269 115.64 5.65068 115.415C3.57089 114.684 1.49111 115.022 -0.138992 116.372C-1.48804 117.553 -3.00574 118.847 -4.86069 118.903C-6.15353 118.903 -7.33392 118.397 -8.34571 117.609C-13.7981 113.672 -13.2923 107.259 -10.2007 102.028Z" fill="white"/>
<path d="M10.2599 76.0402C4.47015 75.8152 0.310546 82.7902 4.80741 87.1777C6.71857 89.034 9.81017 89.5965 12.2272 88.4715C14.6443 87.3465 16.2182 84.6465 15.9934 82.0027C15.7685 79.0777 13.2952 76.1527 10.2599 76.0402Z" fill="white"/>
<path d="M26.2799 82.6214C20.4902 82.3964 16.3306 89.3715 20.8274 93.759C22.7386 95.6153 25.8302 96.1778 28.2473 95.0528C30.6643 93.9278 32.2382 91.2277 32.0134 88.584C31.7885 85.659 29.3153 82.7339 26.2799 82.6214Z" fill="white"/>
<path d="M35.2737 98.5403C30.6644 97.7528 27.067 102.872 29.0343 107.034C30.4396 110.184 34.7678 111.534 37.7469 109.847C43.1432 106.865 40.8385 99.4966 35.2737 98.5403Z" fill="white"/>
<path d="M-6.82801 81.1589C-11.4373 80.3714 -15.0347 85.4902 -13.0674 89.6528C-11.6621 92.8028 -7.3339 94.1528 -4.35474 92.4653C1.04147 89.4278 -1.26318 82.1152 -6.82801 81.1589Z" fill="white"/>
<path d="M118.072 27.4961C118.465 24.7398 119.421 22.0398 120.882 19.7898C128.639 7.35845 144.94 7.63969 153.372 18.8898C155.564 21.7586 157.194 25.3586 157.588 29.2961C157.981 33.1774 156.969 37.3962 154.552 39.9837C152.135 42.5712 148.313 43.19 145.615 40.9962C144.491 40.0962 143.422 38.8024 142.748 37.5649C142.017 36.2149 141.287 34.8087 139.825 34.1899C139.207 33.9087 138.476 33.8524 137.801 33.8524C135.609 33.9649 133.811 35.0337 132.799 36.9462C131.956 38.5212 131.112 40.3212 129.37 41.1087C128.19 41.615 126.897 41.615 125.66 41.2774C119.196 39.6462 117.228 33.5149 118.072 27.4961Z" fill="white"/>
<path d="M127.065 -4.34162C121.613 -2.31661 120.489 5.67093 126.278 8.03344C128.752 9.04594 131.787 8.37093 133.586 6.40217C135.384 4.43341 135.834 1.33966 134.597 -1.02285C133.305 -3.61037 129.932 -5.41037 127.065 -4.34162Z" fill="white"/>
<path d="M144.434 -4.34162C138.982 -2.31661 137.858 5.67093 143.647 8.03344C146.121 9.04594 149.156 8.37093 150.955 6.40217C152.753 4.43341 153.203 1.33966 151.966 -1.02285C150.674 -3.61037 147.245 -5.41037 144.434 -4.34162Z" fill="white"/>
<path d="M158.824 6.90844C154.271 7.92094 152.922 14.0522 156.295 17.146C158.824 19.5085 163.321 19.1148 165.457 16.4147C169.223 11.6335 164.333 5.72718 158.824 6.90844Z" fill="white"/>
<path d="M113.237 6.90844C108.684 7.92094 107.335 14.0522 110.708 17.146C113.237 19.5085 117.734 19.1148 119.87 16.4147C123.693 11.6335 118.802 5.72718 113.237 6.90844Z" fill="white"/>
<path d="M74.0588 136.903C70.2365 135.553 66.0208 136.678 62.8168 139.884C59.3317 143.203 60.0063 147.647 62.0298 150.178C65.0652 155.409 71.2483 155.072 76.9256 155.409C81.5348 155.466 85.6944 157.153 89.4605 159.741C94.2946 163.059 98.96 166.547 103.682 170.034C105.761 171.553 107.729 173.241 109.809 174.703C113.743 177.516 117.678 180.61 119.983 184.941C122.4 189.441 121.219 195.572 126.447 198.216C133.979 202.041 141.286 193.772 137.633 186.853" fill="white"/>
<path d="M74.0588 136.903C70.2365 135.553 66.0208 136.678 62.8168 139.884C59.3317 143.203 60.0063 147.647 62.0298 150.178C65.0652 155.409 71.2483 155.072 76.9256 155.409C81.5348 155.466 85.6944 157.153 89.4605 159.741C94.2946 163.059 98.96 166.547 103.682 170.034C105.761 171.553 107.729 173.241 109.809 174.703C113.743 177.516 117.678 180.61 119.983 184.941C122.4 189.441 121.219 195.572 126.447 198.216C133.979 202.041 141.286 193.772 137.633 186.853" stroke="white" stroke-width="3.4984" stroke-miterlimit="10" stroke-linecap="round" stroke-linejoin="round"/>
<path d="M135.16 186.01C137.464 186.797 140.162 186.797 142.017 186.178C147.863 183.647 149.268 177.741 147.357 172.341C144.828 166.491 137.689 168.066 131.956 167.785C128.808 167.616 125.042 166.885 122.456 164.972C120.826 163.735 119.196 162.553 117.622 161.316C113.013 157.884 108.347 154.397 103.738 150.966C100.759 148.716 97.7797 146.522 94.8005 144.272C93.5639 143.316 92.3835 142.528 91.3717 141.347C88.9546 138.478 87.9428 135.272 87.0996 131.728C86.3689 128.634 85.3571 125.709 82.2656 124.303C74.5647 120.703 67.4822 129.422 71.6418 136.284" fill="white"/>
<path d="M135.16 186.01C137.464 186.797 140.162 186.797 142.017 186.178C147.863 183.647 149.268 177.741 147.357 172.341C144.828 166.491 137.689 168.066 131.956 167.785C128.808 167.616 125.042 166.885 122.456 164.972C120.826 163.735 119.196 162.553 117.622 161.316C113.013 157.884 108.347 154.397 103.738 150.966C100.759 148.716 97.7797 146.522 94.8005 144.272C93.5639 143.316 92.3835 142.528 91.3717 141.347C88.9546 138.478 87.9428 135.272 87.0996 131.728C86.3689 128.634 85.3571 125.709 82.2656 124.303C74.5647 120.703 67.4822 129.422 71.6418 136.284" stroke="white" stroke-width="3.4984" stroke-miterlimit="10" stroke-linecap="round" stroke-linejoin="round"/>
<path d="M137.858 186.91L138.645 189.666L138.364 192.928L137.071 196.078L134.654 197.991L132.068 199.06L129.482 199.172L126.728 198.328L124.198 196.416L122.287 192.985L121.276 188.597L119.983 185.053L118.184 182.297L115.542 179.372L112.394 176.728L91.0906 160.978L86.8748 158.278L82.378 156.366L77.4314 155.522L72.5411 155.297L69.0561 154.903L65.1776 153.497L62.0298 150.291L60.3434 147.084L60.6245 142.753L63.6599 139.378L66.8076 137.241L69.6744 136.509H71.698L70.5737 133.753L70.5176 130.884L71.698 127.903L74.4523 124.922L78.668 123.459L83.8956 125.203L86.5938 129.872L87.7742 134.541L89.5729 138.872L92.2148 142.303L96.8802 145.791L120.545 163.509L125.435 166.716L130.213 167.785L135.834 167.953L140.837 168.122L144.715 169.416L147.526 172.96L148.144 176.616L147.582 180.441L146.233 183.366L143.198 185.728L139.881 186.741L137.858 186.91Z" fill="white"/>
<path d="M295.078 25.6961C298.057 22.8835 298.957 18.6085 297.552 14.3335C296.146 9.72094 291.931 8.25843 288.727 8.93344C282.712 9.21469 280.183 14.896 277.316 19.846C275.18 23.8961 271.751 26.8773 267.76 29.0148C262.645 31.8274 257.361 34.4149 252.134 37.0024C249.829 38.1274 247.468 39.1399 245.163 40.3212C240.891 42.5149 236.338 44.6525 231.448 44.7087C226.333 44.8212 221.386 40.9962 216.721 44.4274C209.919 49.4337 213.91 59.6713 221.724 59.5588" fill="white"/>
<path d="M295.078 25.6961C298.057 22.8835 298.957 18.6085 297.552 14.3335C296.146 9.72094 291.931 8.25843 288.727 8.93344C282.712 9.21469 280.183 14.896 277.316 19.846C275.18 23.8961 271.751 26.8773 267.76 29.0148C262.645 31.8274 257.361 34.4149 252.134 37.0024C249.829 38.1274 247.468 39.1399 245.163 40.3212C240.891 42.5149 236.338 44.6525 231.448 44.7087C226.333 44.8212 221.386 40.9962 216.721 44.4274C209.919 49.4337 213.91 59.6713 221.724 59.5588" stroke="white" stroke-width="3.4984" stroke-miterlimit="10" stroke-linecap="round" stroke-linejoin="round"/>
<path d="M223.466 57.7588C221.724 59.4463 220.487 61.8651 220.206 63.7776C219.813 70.1339 224.366 74.0714 230.043 74.8589C236.395 75.2527 238.25 68.1651 241.116 63.2151C242.69 60.4588 245.051 57.4213 247.918 56.015C249.716 55.115 251.571 54.215 253.37 53.315C258.541 50.7838 263.713 48.2525 268.94 45.665C272.257 44.0337 275.629 42.4025 278.946 40.7712C280.351 40.0962 281.588 39.4212 283.105 39.0274C286.703 38.1837 290.075 38.7462 293.56 39.5899C296.596 40.3774 299.687 40.7712 302.385 38.6899C309.075 33.4587 304.578 23.1648 296.54 23.7836" fill="white"/>
<path d="M223.466 57.7588C221.724 59.4463 220.487 61.8651 220.206 63.7776C219.813 70.1339 224.366 74.0714 230.043 74.8589C236.395 75.2527 238.25 68.1651 241.116 63.2151C242.69 60.4588 245.051 57.4213 247.918 56.015C249.716 55.115 251.571 54.215 253.37 53.315C258.541 50.7838 263.713 48.2525 268.94 45.665C272.257 44.0337 275.629 42.4025 278.946 40.7712C280.351 40.0962 281.588 39.4212 283.105 39.0274C286.703 38.1837 290.075 38.7462 293.56 39.5899C296.596 40.3774 299.687 40.7712 302.385 38.6899C309.075 33.4587 304.578 23.1648 296.54 23.7836" stroke="white" stroke-width="3.4984" stroke-miterlimit="10" stroke-linecap="round" stroke-linejoin="round"/>
<path d="M221.443 59.7283L218.688 59.1658L215.878 57.422L213.686 54.8345L213.067 51.8533L213.292 49.0407L214.36 46.6782L216.384 44.597L219.251 43.2469L223.129 43.1344L227.514 44.1469L231.28 44.6532L234.54 44.3157L238.306 43.2469L242.128 41.6719L265.849 29.9156L270.177 27.3843L273.943 24.2343L276.922 20.2405L279.34 15.9655L281.307 13.0405L284.286 10.228L288.558 8.87796H292.212L295.978 11.0717L297.552 15.2905L298.001 19.1155L297.327 21.9843L296.484 23.7843L299.407 24.0656L301.992 25.3031L304.128 27.7218L305.534 31.5469L304.859 35.9344L300.981 39.8157L295.584 40.0407L290.863 39.0282L286.197 38.6344L281.925 39.4219L276.698 41.9532L250.166 55.0033L245.107 57.872L241.96 61.6408L239.205 66.5909L236.788 70.9221L233.865 73.8472L229.481 74.6909L225.94 73.6221L222.736 71.3721L220.824 68.7846L220.094 65.0721L220.656 61.6408L221.443 59.7283Z" fill="white"/>
<path d="M148.931 91.1715C139.825 94.5465 137.914 107.878 147.638 111.815C151.742 113.503 156.857 112.322 159.836 109.059C162.815 105.797 163.546 100.622 161.522 96.684C159.33 92.3527 153.653 89.4277 148.931 91.1715Z" fill="white"/>
<path d="M142.242 135.328C136.79 137.353 135.665 145.284 141.455 147.647C143.928 148.659 146.964 147.984 148.763 146.016C150.561 144.047 150.955 140.953 149.774 138.591C148.481 136.059 145.053 134.316 142.242 135.328Z" fill="white"/>
<path d="M21.3335 2.2959C12.2274 5.67092 10.3163 19.0023 20.0407 22.9398C24.144 24.6273 29.2591 23.4461 32.2383 20.1835C35.2174 16.921 35.9481 11.746 33.9246 7.80844C31.7324 3.47715 26.0551 0.552132 21.3335 2.2959Z" fill="white"/>
<path d="M55.678 33.1211C51.8557 34.5274 51.0688 40.0962 55.1159 41.7837C56.8584 42.4587 58.9944 42.0087 60.231 40.6587C61.4677 39.3087 61.8049 37.1149 60.9618 35.4837C60.0062 33.6274 57.6454 32.3899 55.678 33.1211Z" fill="white"/>
</g>
</g>
<path d="M167.051 43.7768H163.897V35.7681L160.314 41.6078H159.955L156.371 35.7681V43.7768H153.218V30H156.371L160.122 36.1257L163.874 30H167.027V43.7768H167.051Z" fill="#323232"/>
<path d="M176.035 38.4854V43.7768H172.881V38.4854L168.222 30H171.806L174.434 35.3153L177.062 30H180.646L176.035 38.4854Z" fill="#323232"/>
<path d="M148.009 30V81.3174H137.688V78.0997C135.418 80.6977 132.049 82.2947 127.438 82.2947C118.43 82.2947 111 74.4052 111 64.1798C111 53.9545 118.43 46.065 127.438 46.065C132.049 46.065 135.418 47.6381 137.688 50.26V30H148.009ZM137.688 64.156C137.688 59.0076 134.247 55.7898 129.493 55.7898C124.738 55.7898 121.298 59.0076 121.298 64.156C121.298 69.3044 124.738 72.5222 129.493 72.5222C134.247 72.5222 137.688 69.3044 137.688 64.156Z" fill="#323232"/>
<path d="M147.77 64.156C147.77 53.9307 155.894 46.0412 166 46.0412C176.106 46.0412 184.23 53.9307 184.23 64.156C184.23 74.3814 176.106 82.2709 166 82.2709C155.894 82.2709 147.77 74.3814 147.77 64.156ZM173.908 64.156C173.908 59.2936 170.468 56.052 166 56.052C161.532 56.052 158.092 59.2698 158.092 64.156C158.092 69.0423 161.532 72.26 166 72.26C170.468 72.26 173.908 69.0423 173.908 64.156Z" fill="#323232"/>
<path d="M221 46.9946V79.6013C221 91.1376 211.993 96 202.842 96C195.698 96 189.701 93.3305 186.547 87.7053L195.364 82.6284C196.678 85.0358 198.661 86.9426 203.2 86.9426C208.026 86.9426 210.965 84.4637 210.965 79.6013V76.455C208.695 79.2676 205.398 80.9123 200.93 80.9123C191.159 80.9123 184.015 72.9513 184.015 63.4886C184.015 54.026 191.159 46.065 200.93 46.065C205.398 46.065 208.695 47.7096 210.965 50.5222V46.9946H221ZM210.941 63.4648C210.941 58.7216 207.501 55.5038 202.627 55.5038C197.753 55.5038 194.312 58.7216 194.312 63.4648C194.312 68.208 197.753 71.4258 202.627 71.4258C207.501 71.4258 210.941 68.208 210.941 63.4648Z" fill="#323232"/>
<g filter="url(#filter0_d)">
<g opacity="0.2">
<g opacity="0.2">
<path opacity="0.2" d="M178.281 78.2189L178.257 78.0997C178.257 78.0997 178.257 78.0997 178.281 78.0997V78.2189Z" fill="#3E2670"/>
</g>
</g>
<path d="M177.612 73.3809C173.073 78.005 164.543 77.2661 164.543 77.2661C164.543 77.2661 155.918 76.0267 152.573 70.4969C149.228 64.9432 153.601 58.8414 153.601 58.8414C153.601 58.8414 153.768 58.0072 154.078 56.7677L154.15 56.5055C154.15 56.5055 154.15 56.5055 154.15 56.4817C154.986 53.1924 156.73 47.5196 158.857 46.3755C159.239 46.161 159.598 46.0895 159.908 46.1133C161.007 46.1848 161.724 47.4719 162.178 48.759C162.632 50.0462 162.775 51.3094 162.775 51.3094C162.847 51.2856 165.356 50.3083 167.673 50.5705C169.967 50.8327 172.189 52.3582 172.26 52.4059C172.26 52.4059 172.882 50.7612 173.837 49.4979C174.745 48.2823 175.94 47.4004 177.206 48.5207C178.377 49.5456 178.95 52.3582 179.213 55.1231C179.548 58.5077 179.452 61.8685 179.452 61.8685C179.452 61.8685 182.152 68.7569 177.612 73.3809Z" fill="#545176"/>
<path d="M165.809 77.3608C165.044 77.3608 164.566 77.3131 164.543 77.3131C164.447 77.2893 155.846 76.0022 152.525 70.4962C150.781 67.6122 151.163 64.5851 151.784 62.5591C152.429 60.4616 153.457 58.9361 153.552 58.8169C153.576 58.7216 153.743 57.9112 154.03 56.7671L154.102 56.5049C154.102 56.5049 154.102 56.5049 154.102 56.4811C154.938 53.1918 156.682 47.4951 158.856 46.3272C159.238 46.1127 159.597 46.0412 159.931 46.065C160.863 46.1365 161.652 47.0423 162.249 48.7346C162.631 49.831 162.798 50.9274 162.846 51.2134C163.276 51.0466 165.546 50.26 167.649 50.4984H167.696C169.823 50.7367 171.878 52.0715 172.236 52.3099C172.355 52 172.953 50.5699 173.789 49.4496C174.482 48.5201 175.175 48.0195 175.844 47.948C176.321 47.9003 176.799 48.0672 177.229 48.4724C178.233 49.3543 178.902 51.5948 179.26 55.0986C179.595 58.364 179.499 61.6295 179.499 61.844C179.547 61.987 180.168 63.6793 180.288 65.8722C180.383 67.9935 180.001 70.9968 177.659 73.4041C174.195 76.9556 168.365 77.3608 165.809 77.3608ZM159.836 46.1604C159.549 46.1604 159.238 46.2557 158.904 46.4225C156.778 47.5666 155.057 53.2395 154.221 56.5049C154.221 56.5287 154.221 56.5287 154.221 56.5287L154.149 56.7909C153.839 58.0065 153.672 58.8408 153.672 58.8646V58.8884C153.672 58.9123 152.573 60.4377 151.904 62.6067C151.282 64.6089 150.924 67.6122 152.644 70.4724C155.941 75.9307 164.495 77.2178 164.59 77.2178C164.662 77.2178 173.144 77.909 177.612 73.3565C179.929 70.9729 180.311 67.9935 180.216 65.896C180.12 63.6317 179.451 61.8917 179.451 61.8917C179.451 61.8678 179.547 58.5071 179.212 55.1463C178.854 51.6663 178.185 49.4496 177.205 48.5916C176.775 48.2102 176.345 48.0434 175.891 48.091C175.246 48.1625 174.577 48.6392 173.908 49.545C172.977 50.7844 172.355 52.4291 172.355 52.4291L172.331 52.4767H172.26L172.236 52.4529C172.14 52.4052 169.99 50.9036 167.744 50.6176H167.696C165.498 50.3554 163.061 51.2611 162.846 51.3565L162.775 51.428L162.751 51.3088C162.751 51.285 162.583 50.0455 162.153 48.7822C161.747 47.6382 161.054 46.2795 159.955 46.1842C159.884 46.1604 159.86 46.1604 159.836 46.1604Z" fill="#3E2670"/>
<g opacity="0.6">
<g opacity="0.6">
<path opacity="0.6" d="M172.14 52.6197C171.041 52.3576 169.894 52 168.795 51.7617C168.604 52 168.031 52.1192 167.362 52.0715C166.597 52 166 51.714 165.952 51.428C164.041 51.3326 162.679 51.5233 162.679 51.5233C162.751 51.4995 165.259 50.5222 167.577 50.7844C169.871 51.0228 172.093 52.5721 172.14 52.6197Z" fill="white"/>
</g>
</g>
<g opacity="0.6">
<g opacity="0.6">
<path opacity="0.6" d="M179.212 55.0986C177.444 46.1365 173.932 49.3781 173.837 49.4734C174.745 48.2578 175.939 47.3759 177.205 48.4962C178.376 49.5449 178.95 52.3337 179.212 55.0986Z" fill="white"/>
</g>
</g>
<g opacity="0.6">
<g opacity="0.6">
<path opacity="0.6" d="M162.177 48.6392C158.235 42.4897 154.341 55.6945 154.149 56.3857C154.986 53.0964 156.73 47.4236 158.856 46.2795C159.238 46.065 159.597 45.9935 159.907 46.0174C161.03 46.065 161.747 47.3521 162.177 48.6392Z" fill="white"/>
</g>
</g>
<path d="M161.46 55.8852C161.222 55.8852 160.983 55.8852 160.72 55.9328C156.61 56.5764 155.894 63.1073 155.894 63.1073C155.894 63.1073 153.958 61.844 152.549 64.0368C151.545 65.61 151.689 67.8267 151.832 68.9708C152.023 69.4713 152.238 69.9718 152.525 70.4724C155.798 76.0022 164.28 77.2178 164.28 77.2178H164.447C164.471 77.2178 164.614 77.2416 164.614 77.2416C164.614 77.2416 173.144 78.0043 177.612 73.3803C178.018 72.9751 178.328 72.5222 178.639 72.0693C179.069 70.9968 179.714 68.8754 179.093 67.1116C178.233 64.6566 176.059 65.4431 176.059 65.4431C176.059 65.4431 176.871 58.9122 173.024 57.3391C172.547 57.1484 172.069 57.0531 171.639 57.0293C168.509 56.9578 166.382 60.8191 166.382 60.8191C166.382 60.8191 165.188 56.5764 162.153 55.9328C161.938 55.9328 161.699 55.909 161.46 55.8852Z" fill="white"/>
<g opacity="0.2">
<g opacity="0.2">
<path opacity="0.2" d="M179.284 70.3055C179.141 71.0206 178.926 71.6403 178.735 72.0932C178.448 72.546 178.113 72.9751 177.707 73.4041C173.239 78.052 164.71 77.2654 164.71 77.2654C164.71 77.2654 164.567 77.2416 164.543 77.2416C164.519 77.2416 164.375 77.2416 164.375 77.2416C164.375 77.2416 155.894 76.026 152.62 70.4962C152.334 69.9957 152.119 69.4951 151.928 68.9946C151.88 68.637 151.832 68.1603 151.808 67.636C151.88 67.7551 151.951 67.8743 152.023 68.0173C155.511 73.5471 164.519 74.7627 164.519 74.7627C164.519 74.7627 164.686 74.7627 164.71 74.7627C164.734 74.7627 164.877 74.7866 164.877 74.7866C164.877 74.7866 173.956 75.5493 178.711 70.9252C178.926 70.7345 179.093 70.52 179.284 70.3055Z" fill="#3E2670"/>
</g>
</g>
<path d="M165.952 77.7421C165.14 77.7421 164.614 77.6945 164.519 77.6945H164.495C164.136 77.6468 155.631 76.3597 152.214 70.7107C150.781 68.3272 150.518 65.4908 151.426 62.4637C152.047 60.4615 152.979 59.0076 153.218 58.6739C153.457 57.5536 155.607 47.662 158.689 45.9935C159.119 45.7551 159.573 45.6598 159.979 45.6836C162.082 45.8266 162.918 49.3066 163.157 50.7129C164.041 50.4269 165.904 49.9263 167.696 50.117C167.72 50.117 167.744 50.117 167.768 50.117C169.584 50.3315 171.304 51.2611 172.093 51.7378C172.57 50.6175 173.861 48.0195 175.557 47.6143C176.035 47.4951 176.752 47.4951 177.516 48.1863C180.144 50.5222 179.953 60.6522 179.905 61.7725C180.049 62.1538 180.574 63.7746 180.694 65.8483C180.837 68.9946 179.881 71.688 177.946 73.6663C174.386 77.2893 168.604 77.7421 165.952 77.7421ZM164.59 76.8364C164.949 76.8602 173.024 77.4323 177.301 73.0704C181.602 68.6847 179.069 62.0585 179.045 61.987C179.021 61.9393 179.021 61.8678 179.021 61.8202C179.117 58.8169 178.926 50.5937 176.919 48.8061C176.537 48.4485 176.13 48.3294 175.748 48.4247C174.362 48.7584 173.048 51.4995 172.666 52.5244C172.618 52.6436 172.523 52.7389 172.379 52.7866C172.26 52.8342 172.116 52.8104 171.997 52.7389C171.973 52.7151 169.847 51.2373 167.672 50.9751C167.649 50.9751 167.625 50.9751 167.601 50.9751C165.403 50.7129 162.942 51.6663 162.918 51.6901C162.798 51.7378 162.655 51.7378 162.536 51.6663C162.416 51.5948 162.345 51.4756 162.321 51.3564C162.153 50.1408 161.365 46.6609 159.86 46.5417C159.621 46.5179 159.334 46.5894 159.047 46.7562C156.682 48.0195 154.603 55.9805 153.982 58.9361C153.958 58.9837 153.934 59.0553 153.911 59.1029C153.863 59.1506 149.729 65.0379 152.883 70.2817C156.085 75.4778 164.232 76.7887 164.59 76.8364Z" fill="#3E2670"/>
<path d="M156.252 55.9567C156.252 55.9567 158.187 53.4063 161.03 52.0477C161.03 52.0477 160.648 48.4724 159.597 48.3532C158.307 48.2102 156.252 55.9567 156.252 55.9567Z" fill="#F05483"/>
<path d="M156.109 56.2188L156.18 55.9328C156.276 55.623 158.235 48.2817 159.549 48.2817C159.573 48.2817 159.573 48.2817 159.597 48.2817C160.696 48.4009 161.078 51.8808 161.078 52.0477V52.0953L161.03 52.1192C158.235 53.4539 156.3 55.9805 156.276 56.0043L156.109 56.2188ZM159.549 48.4009C158.57 48.4009 156.993 53.4301 156.371 55.7183C156.897 55.0747 158.641 53.1441 160.959 52.0238C160.911 51.6425 160.529 48.52 159.573 48.4009H159.549Z" fill="#3E2670"/>
<path d="M156.252 56.3619C156.204 56.3619 156.133 56.338 156.085 56.3142C155.918 56.2427 155.822 56.052 155.87 55.8613C155.87 55.8375 156.395 53.883 157.064 51.9762C158.355 48.3294 159.071 47.9003 159.621 47.9718C160.887 48.1149 161.293 51.1181 161.389 52.0239C161.413 52.1907 161.317 52.3337 161.174 52.4052C158.45 53.6923 156.563 56.1712 156.539 56.195C156.467 56.2904 156.371 56.3619 156.252 56.3619ZM159.549 48.7346C159.477 48.7584 158.904 49.0444 157.733 52.3814C157.471 53.0964 157.255 53.8353 157.064 54.4312C157.877 53.6208 159.095 52.5721 160.6 51.8093C160.409 50.2362 159.931 48.8061 159.549 48.7346Z" fill="#3E2670"/>
<path d="M177.636 58.2693C177.636 58.2693 176.346 55.3376 173.885 53.3593C173.885 53.3593 175.08 49.9747 176.131 50.0938C177.421 50.2607 177.636 58.2693 177.636 58.2693Z" fill="#F05483"/>
<path d="M177.707 58.5547L177.588 58.2925C177.564 58.2687 176.274 55.3608 173.861 53.4063L173.837 53.3824V53.3586C173.884 53.2156 175.055 49.9263 176.154 50.0455C177.468 50.1885 177.683 57.935 177.707 58.2687V58.5547ZM173.956 53.3586C175.963 54.9794 177.205 57.2676 177.588 58.0065C177.516 55.623 177.134 50.26 176.154 50.1647C175.199 50.0455 174.099 52.9772 173.956 53.3586Z" fill="#3E2670"/>
<path d="M177.636 58.6501C177.492 58.6501 177.349 58.5547 177.277 58.4117C177.253 58.3879 175.987 55.5276 173.646 53.6685C173.526 53.5731 173.478 53.3824 173.526 53.2394C173.837 52.3814 174.912 49.5688 176.202 49.7118C176.751 49.7833 177.373 50.3554 177.779 54.1928C177.994 56.2188 178.042 58.2449 178.042 58.2449C178.042 58.4355 177.922 58.6024 177.731 58.6262C177.707 58.6501 177.659 58.6501 177.636 58.6501ZM174.338 53.2394C175.605 54.312 176.56 55.623 177.158 56.6002C177.11 55.9567 177.062 55.2178 176.99 54.4312C176.632 50.9036 176.13 50.4984 176.083 50.4507C175.7 50.4745 174.912 51.7616 174.338 53.2394Z" fill="#3E2670"/>
<path d="M169.847 65.7768C169.99 65.4193 170.253 65.1571 170.54 64.9187C170.826 64.7042 171.161 64.5135 171.519 64.4182C171.878 64.3229 172.26 64.299 172.642 64.3705C173.024 64.442 173.383 64.6327 173.598 64.9426C173.407 64.9664 173.239 64.9664 173.072 64.9664C172.905 64.9902 172.762 64.9902 172.618 65.0379C172.332 65.0856 172.045 65.1571 171.758 65.2286C171.471 65.3001 171.185 65.3954 170.874 65.4908C170.54 65.61 170.205 65.7053 169.847 65.7768Z" fill="#3E2670"/>
<path d="M161.269 64.8711C160.935 64.7043 160.648 64.5612 160.361 64.3944C160.075 64.2275 159.812 64.0845 159.549 63.9415C159.286 63.7985 159.023 63.6555 158.761 63.5363C158.617 63.4648 158.474 63.4171 158.331 63.3695C158.187 63.3218 158.02 63.2741 157.829 63.2265C158.116 62.9881 158.522 62.8689 158.904 62.8928C159.286 62.8928 159.669 63.0119 159.979 63.2026C160.314 63.3933 160.576 63.6317 160.815 63.9177C161.03 64.1799 161.198 64.4897 161.269 64.8711Z" fill="#3E2670"/>
<g opacity="0.3">
<g opacity="0.3">
<path opacity="0.3" d="M170.946 69.233C170.874 69.9003 169.441 71.545 167.911 70.4724C166.573 69.5428 167.505 68.208 167.505 68.208L163.3 67.636C163.3 67.636 164.28 69.6382 162.464 69.9957C160.648 70.3294 159.955 67.8267 159.955 67.8267C158.904 70.2579 160.72 71.3781 160.72 71.3781C161.174 74.4529 162.536 76.0737 164.399 76.3121C167.338 76.7173 169.249 72.4031 169.249 72.4031C171.328 72.1885 170.946 69.233 170.946 69.233ZM166.621 73.8093C166.597 74 166.55 74.1907 166.454 74.3576C166.096 75.1203 165.283 75.6208 164.423 75.5017C163.539 75.3825 162.894 74.6674 162.775 73.8332C162.751 73.6663 162.751 73.4756 162.775 73.3088L163.061 71.1875C163.515 71.1159 163.921 70.9491 164.28 70.6869C164.853 70.2817 165.235 69.662 165.355 68.9231C165.212 70.091 165.857 71.1875 166.884 71.688L166.621 73.8093Z" fill="#3E2670"/>
</g>
</g>
<path d="M162.798 73.8094C161.795 72.7129 161.484 70.9253 161.484 70.9253C161.723 71.0445 162.01 71.116 162.297 71.1636C162.583 71.2113 162.846 71.1875 163.109 71.1636L162.822 73.285C162.775 73.4518 162.775 73.6425 162.798 73.8094Z" fill="#3E2670"/>
<path d="M166.932 71.6403L166.645 73.7855C166.621 73.9762 166.573 74.1668 166.478 74.3337C166.119 75.0964 165.307 75.597 164.447 75.4778C163.563 75.3586 162.918 74.6435 162.798 73.8093C162.775 73.6425 162.775 73.4518 162.798 73.2849L163.085 71.1636C163.539 71.0921 163.945 70.9252 164.304 70.663C164.877 70.2578 165.259 69.6381 165.379 68.8992C165.235 70.0672 165.904 71.1636 166.932 71.6403Z" fill="#EE307B"/>
<path d="M168.604 71.9025C168.604 71.9025 167.84 73.5471 166.478 74.3575C166.55 74.1907 166.597 74 166.645 73.8093L166.932 71.6641C167.195 71.7833 167.481 71.8786 167.768 71.9263C168.055 71.9501 168.341 71.9263 168.604 71.9025Z" fill="#3E2670"/>
<path d="M163.085 71.3305H163.061C162.966 71.3067 162.894 71.2352 162.918 71.1398L162.966 70.7823C162.99 70.6869 163.061 70.6154 163.157 70.6393C163.252 70.6631 163.324 70.7346 163.3 70.8299L163.252 71.1875C163.252 71.259 163.181 71.3305 163.085 71.3305Z" fill="#3E2670"/>
<path d="M166.932 71.831H166.908C166.812 71.8071 166.741 71.7356 166.765 71.6403L166.812 71.3066C166.836 71.2113 166.908 71.1398 167.003 71.1636C167.099 71.1874 167.171 71.2589 167.147 71.3543L167.099 71.688C167.099 71.7595 167.027 71.831 166.932 71.831Z" fill="#3E2670"/>
<path d="M168.198 72.2124C168.055 72.2124 167.911 72.2124 167.744 72.1885C166.573 72.0217 165.618 71.2351 165.212 70.2102C164.543 71.0921 163.42 71.5927 162.249 71.4496C161.413 71.3305 160.672 70.9014 160.17 70.2579C159.669 69.5905 159.43 68.7801 159.549 67.9697C159.573 67.7552 159.764 67.6121 159.979 67.6598C160.194 67.6837 160.338 67.8743 160.29 68.0889C160.194 68.7086 160.361 69.3045 160.768 69.805C161.15 70.3055 161.723 70.6154 162.344 70.7107C163.635 70.8776 164.853 70.0195 165.044 68.7562L165.785 68.8516C165.618 70.1149 166.55 71.2828 167.84 71.4496C169.154 71.6403 170.348 70.7346 170.54 69.4713C170.563 69.2568 170.755 69.1138 170.97 69.1614C171.185 69.1853 171.328 69.376 171.28 69.5905C171.065 71.0921 169.727 72.2124 168.198 72.2124Z" fill="#3E2670"/>
<path d="M166.502 74.6197C166.382 74.6197 166.239 74.5482 166.167 74.4291C166.072 74.2622 166.119 74.0239 166.311 73.9047C167.553 73.1658 168.294 71.6403 168.294 71.6165C168.389 71.4258 168.604 71.3543 168.795 71.4258C168.987 71.5212 169.058 71.7357 168.987 71.9264C168.963 71.9979 168.15 73.6902 166.693 74.5482C166.645 74.6197 166.573 74.6197 166.502 74.6197Z" fill="#3E2670"/>
<path d="M162.822 74.0954C162.727 74.0954 162.607 74.0477 162.536 73.9762C161.46 72.8083 161.126 70.9729 161.126 70.9014C161.102 70.6869 161.222 70.4962 161.437 70.4724C161.652 70.4486 161.843 70.5677 161.867 70.7823C161.867 70.8061 162.177 72.4746 163.085 73.4756C163.228 73.6187 163.205 73.857 163.061 74C162.99 74.0477 162.918 74.0954 162.822 74.0954Z" fill="#3E2670"/>
<path d="M164.734 75.7876C164.638 75.7876 164.519 75.7876 164.423 75.7638C163.157 75.597 162.273 74.4052 162.464 73.1419L162.751 71.0206C162.775 70.8061 162.966 70.6631 163.181 70.7107C163.396 70.7346 163.539 70.9252 163.491 71.1398L163.205 73.2611C163.085 74.1192 163.682 74.9296 164.543 75.0488C164.949 75.0964 165.355 75.0011 165.689 74.7389C166.024 74.4767 166.239 74.1192 166.311 73.6901L166.597 71.545C166.621 71.3304 166.812 71.1874 167.027 71.2351C167.242 71.2589 167.386 71.4496 167.338 71.6641L167.051 73.8093C166.956 74.429 166.645 74.9772 166.143 75.3586C165.713 75.6208 165.235 75.7876 164.734 75.7876Z" fill="#3E2670"/>
<path d="M168.461 66.6587C168.318 67.7313 167.003 69.0423 165.427 68.8277C163.587 68.5656 162.679 67.0639 162.822 65.9675C162.966 64.8711 163.897 64.7757 165.737 65.0141C167.577 65.3001 168.604 65.5861 168.461 66.6587Z" fill="#3E2670"/>
<path d="M166.886 66.1832C166.917 65.9615 166.401 65.7074 165.734 65.6155C165.068 65.5237 164.502 65.6289 164.472 65.8506C164.441 66.0723 164.957 66.3265 165.623 66.4183C166.29 66.5102 166.855 66.4049 166.886 66.1832Z" fill="white"/>
<path d="M166.096 66.5157C165.952 66.5157 165.785 66.5157 165.618 66.4919C164.997 66.3965 164.375 66.1582 164.423 65.8483C164.447 65.7053 164.59 65.6099 164.853 65.5623C165.092 65.5146 165.427 65.5146 165.737 65.5623C166.358 65.6576 166.98 65.896 166.932 66.2058C166.932 66.4203 166.526 66.5157 166.096 66.5157ZM165.283 65.6338C165.14 65.6338 164.997 65.6338 164.877 65.6576C164.662 65.7053 164.543 65.7768 164.519 65.8483C164.495 66.0151 164.949 66.2773 165.618 66.3727C166.311 66.468 166.788 66.3488 166.812 66.182C166.836 66.0151 166.382 65.753 165.713 65.6576C165.57 65.6576 165.427 65.6338 165.283 65.6338Z" fill="#3E2670"/>
<path d="M165.618 69.4713C165.594 69.805 165.546 70.1387 165.498 70.4486C165.45 70.7823 165.379 71.0921 165.307 71.4258C165.164 72.0694 165.02 72.7129 164.829 73.3565C164.829 73.3803 164.805 73.3803 164.781 73.3803C164.758 73.3803 164.758 73.3565 164.758 73.3326C164.734 72.6653 164.781 71.9979 164.805 71.3543C164.829 71.0206 164.853 70.6869 164.877 70.3771C164.925 70.0434 164.973 69.7335 165.044 69.3998C165.092 69.233 165.235 69.1376 165.403 69.1853C165.522 69.2091 165.618 69.3283 165.618 69.4713Z" fill="#3E2670"/>
</g>
<defs>
<filter id="filter0_d" x="140.898" y="36.6801" width="49.8102" height="52.5388" filterUnits="userSpaceOnUse" color-interpolation-filters="sRGB">
<feFlood flood-opacity="0" result="BackgroundImageFix"/>
<feColorMatrix in="SourceAlpha" type="matrix" values="0 0 0 0 0 0 0 0 0 0 0 0 0 0 0 0 0 0 127 0"/>
<feOffset dy="1"/>
<feGaussianBlur stdDeviation="5"/>
<feColorMatrix type="matrix" values="0 0 0 0 0 0 0 0 0 0 0 0 0 0 0 0 0 0 0.1 0"/>
<feBlend mode="normal" in2="BackgroundImageFix" result="effect1_dropShadow"/>
<feBlend mode="normal" in="SourceGraphic" in2="effect1_dropShadow" result="shape"/>
</filter>
</defs>
</svg>
