<svg width="30" height="30" viewBox="0 0 30 30" fill="none" xmlns="http://www.w3.org/2000/svg">
<g id="Icon/Fill/twitter">
<path id="Mask" fill-rule="evenodd" clip-rule="evenodd" d="M10.0962 24.9994C19.1537 24.9994 24.3937 17.9669 24.3937 11.2931C24.3937 11.1094 25.6812 10.0044 26.2324 7.70062C26.3449 7.23312 25.8899 6.86437 25.4612 7.06062C24.3612 7.56562 23.2449 7.16562 22.7599 6.59062C20.8949 4.55687 17.7762 4.45937 15.7924 6.37187C14.5137 7.60562 13.9712 9.44312 14.3674 11.1969C10.1787 11.4956 7.30241 9.51062 4.93741 6.78937C4.63241 6.43562 4.06616 6.62187 4.00241 7.08937C3.65241 9.69187 3.54241 16.0194 9.81241 19.6531C8.72366 21.2181 6.59241 22.1419 4.21991 22.5381C3.69491 22.6269 3.56991 23.3544 4.04991 23.5894C5.92991 24.5144 7.99616 24.9981 10.0962 24.9956" fill="white"/>
<mask id="mask0" mask-type="alpha" maskUnits="userSpaceOnUse" x="3" y="4" width="24" height="21">
<path id="Mask_2" fill-rule="evenodd" clip-rule="evenodd" d="M10.0962 24.9994C19.1537 24.9994 24.3937 17.9669 24.3937 11.2931C24.3937 11.1094 25.6812 10.0044 26.2324 7.70062C26.3449 7.23312 25.8899 6.86437 25.4612 7.06062C24.3612 7.56562 23.2449 7.16562 22.7599 6.59062C20.8949 4.55687 17.7762 4.45937 15.7924 6.37187C14.5137 7.60562 13.9712 9.44312 14.3674 11.1969C10.1787 11.4956 7.30241 9.51062 4.93741 6.78937C4.63241 6.43562 4.06616 6.62187 4.00241 7.08937C3.65241 9.69187 3.54241 16.0194 9.81241 19.6531C8.72366 21.2181 6.59241 22.1419 4.21991 22.5381C3.69491 22.6269 3.56991 23.3544 4.04991 23.5894C5.92991 24.5144 7.99616 24.9981 10.0962 24.9956" fill="white"/>
</mask>
<g mask="url(#mask0)">
<g id="&#240;&#159;&#142;&#168; Color">
<rect id="Base" y="-0.000976562" width="30" height="30" fill="white"/>
</g>
</g>
</g>
</svg>
