<svg width="28" height="28" fill="none" xmlns="http://www.w3.org/2000/svg"><path d="M27.317 24.848h-.002L25.295 8.17a.45.45 0 00-.448-.392h-4.972V6.444c0-3.19-2.631-5.777-5.876-5.777-3.245 0-5.876 2.586-5.876 5.777v1.334H3.15a.45.45 0 00-.449.392L.682 24.848c-.147 1.219.738 2.325 1.978 2.47a2.3 2.3 0 00.267.015h22.146c1.248 0 2.26-.994 2.26-2.222a2.11 2.11 0 00-.016-.263zM9.027 6.444c0-2.7 2.226-4.889 4.972-4.889 2.746 0 4.972 2.19 4.972 4.89v1.333H9.027V6.444zm17.058 19.552a1.367 1.367 0 01-1.012.448H2.927a1.345 1.345 0 01-1.347-1.49L3.552 8.666h4.57v3.112c0 .245.203.444.453.444s.452-.199.452-.444V8.666h9.944v3.112c0 .245.202.444.452.444s.452-.199.452-.444V8.666h4.57l1.972 16.288c.046.378-.075.758-.332 1.042z" fill="#000"/></svg>