<svg width="1440" height="490" fill="none" xmlns="http://www.w3.org/2000/svg"><g clip-path="url(#clip0_357_49536)"><path d="M1070.43 223.875c-72.463-52.596-132.383-63.124-175.567-47.388 29.433 7.231 62.527 23.026 98.752 49.312 45.915 33.322 110.085 58.771 168.375 40.668-33.49-7.321-65.48-23.693-91.56-42.592z" fill="url(#paint0_linear_357_49536)"/><path d="M833.107 174.138c-40.998 8.427-69.637 38.254-83.091 79.06l76.873-1.928c24.866-75.408 77.858-84.394 143.742-76.536-57.679-16.844-113.853-6.514-137.524-.596z" fill="url(#paint1_linear_357_49536)"/><path d="M1453.35 10.999a270.63 270.63 0 00-40.62 9.794c-69.71 20.757-106.29 101.113-140.26 162.711-27.83 50.459-74.98 71.922-110.53 82.968a187.297 187.297 0 01-79.34 1.925c15.76-4.399 172.75 53.989 250.27-102.411 23.54-47.527 57.7-107.522 113.57-126.889.99-8.15 2.79-16.18 5.37-23.97.49-1.37 1.02-2.701 1.54-4.128z" fill="url(#paint2_linear_357_49536)"/></g><g clip-path="url(#clip1_357_49536)"><path d="M558.894 203.062c43.867 59.422 88.357 82.639 126.235 81.031-21.339-13.023-43.423-33.693-65.354-63.392-27.798-37.649-71.908-73.657-122.257-73.956 24.511 14.107 45.586 34.956 61.376 56.317z" fill="url(#paint3_linear_357_49536)"/><path d="M733.103 301.337c34.337 3.594 64.292-12.719 85.044-41.45l-60.926-17.649c-38.351 53.094-82.259 46.948-132.104 24.344 41.153 27.624 87.898 33.506 107.986 34.755z" fill="url(#paint4_linear_357_49536)"/><path d="M204.735 274.981a223.128 223.128 0 0034.381 2.426c59.989 1.059 108.783-53.006 150.854-92.97 34.464-32.737 76.888-37.859 107.592-37.682a154.488 154.488 0 0162.863 18.265c-13.487-.468-122.368-85.517-222.318 18.132-30.356 31.503-72.176 70.159-120.929 71.46a101.771 101.771 0 01-10.205 17.508c-.719.956-1.475 1.869-2.238 2.861z" fill="url(#paint5_linear_357_49536)"/></g><g clip-path="url(#clip2_357_49536)"><path d="M235.253 257.555a199.073 199.073 0 00-30.369-4.837c-53.236-5.618-100.819 38.631-141.328 70.871-33.184 26.409-71.29 27.654-98.567 25.102a137.817 137.817 0 01-54.448-21.135c11.95 1.468 102.093 85.549 199.011 1.218 29.436-25.633 69.62-56.73 113.054-54.085a90.737 90.737 0 0110.435-14.765c.714-.794 1.457-1.546 2.212-2.369z" fill="url(#paint6_linear_357_49536)"/></g><path d="M587.207 376.38l-44.726 8.886 11.458 57.672-61.988 12.316-11.458-57.673-147.909 29.385-8.496-42.764 94.862-199.917 66.696-13.251-87.239 189.023 73.759-14.654-10.211-51.395 60.027-11.926 10.211 51.396 44.726-8.886 10.288 51.788zm149.103 35.221c-22.755 4.52-44.143 2.924-64.163-4.789-20.02-7.714-37.235-21.15-51.645-40.309-14.2-19.473-24.236-43.988-30.108-73.543-5.872-29.556-5.943-55.914-.213-79.075 5.94-23.474 16.686-42.601 32.237-57.381 15.551-14.781 34.704-24.431 57.46-28.952 22.755-4.521 44.143-2.925 64.163 4.789 20.02 7.713 37.13 21.306 51.33 40.779 14.41 19.16 24.551 43.517 30.422 73.073 5.872 29.555 5.838 56.07-.101 79.544-5.73 23.161-16.371 42.131-31.922 56.912-15.552 14.78-34.705 24.431-57.46 28.952zm-10.679-53.75c16.74-3.326 28.389-13.117 34.947-29.373 6.819-16.308 7.241-39.501 1.265-69.58-5.975-30.079-15.231-51.35-27.767-63.813-12.274-12.515-26.78-17.109-43.52-13.783-16.478 3.273-28.127 13.064-34.946 29.372-6.558 16.256-6.849 39.424-.873 69.503 5.975 30.079 15.1 51.375 27.374 63.89 12.536 12.463 27.043 17.058 43.52 13.784zm398.349-88.113l-44.72 8.886 11.45 57.673-61.98 12.315-11.46-57.673-147.912 29.386-8.496-42.765 94.862-199.917 66.696-13.25-87.238 189.022 73.758-14.653-10.21-51.396 60.03-11.925 10.21 51.395 44.72-8.886 10.29 51.788z" fill="#1F1A3D"/><g clip-path="url(#clip3_357_49536)"><path d="M1070.43 223.875c-72.463-52.596-81.793-44.362-130.93-30.375 29.432 7.231 17.89 6.013 54.115 32.299 45.915 33.322 110.085 58.771 168.375 40.668-33.49-7.321-65.48-23.693-91.56-42.592z" fill="url(#paint7_linear_357_49536)"/><path d="M833.106 174.138c-40.997 8.427-69.636 38.254-83.091 79.06l76.874-1.928c24.865-75.408 77.857-84.394 143.741-76.536-57.679-16.844-113.852-6.514-137.524-.596z" fill="url(#paint8_linear_357_49536)"/><path d="M1453.35 11a270.63 270.63 0 00-40.62 9.793c-69.71 20.757-106.29 101.113-140.26 162.711-27.83 50.459-74.98 71.922-110.53 82.968-26.01 6.302-49.16 7.061-75.44 2.028 15.4 0 168.85 53.886 246.37-102.514 23.54-47.527 57.7-107.522 113.57-126.889.99-8.15 2.79-16.18 5.37-23.97.48-1.37 1.02-2.701 1.54-4.128z" fill="url(#paint9_linear_357_49536)"/></g><defs><linearGradient id="paint0_linear_357_49536" x1="894.545" y1="172.67" x2="1000.66" y2="360.747" gradientUnits="userSpaceOnUse"><stop offset=".253" stop-color="#AC7C4A"/><stop offset="1" stop-color="#FDC8A4"/></linearGradient><linearGradient id="paint1_linear_357_49536" x1="743.733" y1="177.865" x2="805.722" y2="315.511" gradientUnits="userSpaceOnUse"><stop stop-color="#FDC8A4"/><stop offset="1" stop-color="#AC7C4A"/></linearGradient><linearGradient id="paint2_linear_357_49536" x1="1063.85" y1="43.482" x2="1306.12" y2="373.069" gradientUnits="userSpaceOnUse"><stop stop-color="#FDC8A4"/><stop offset="1" stop-color="#AC7C4A"/></linearGradient><linearGradient id="paint3_linear_357_49536" x1="684.428" y1="287.174" x2="647.875" y2="112.833" gradientUnits="userSpaceOnUse"><stop offset=".253" stop-color="#AC7C4A"/><stop offset="1" stop-color="#FDC8A4"/></linearGradient><linearGradient id="paint4_linear_357_49536" x1="804.306" y1="320.687" x2="789.88" y2="197.003" gradientUnits="userSpaceOnUse"><stop stop-color="#FDC8A4"/><stop offset="1" stop-color="#AC7C4A"/></linearGradient><linearGradient id="paint5_linear_357_49536" x1="519.101" y1="346.546" x2="410.765" y2="26.992" gradientUnits="userSpaceOnUse"><stop stop-color="#FDC8A4"/><stop offset="1" stop-color="#AC7C4A"/></linearGradient><linearGradient id="paint6_linear_357_49536" x1="-38.577" y1="169.437" x2="32.797" y2="461.905" gradientUnits="userSpaceOnUse"><stop stop-color="#FDC8A4"/><stop offset="1" stop-color="#AC7C4A"/></linearGradient><linearGradient id="paint7_linear_357_49536" x1="894.545" y1="172.67" x2="1000.66" y2="360.748" gradientUnits="userSpaceOnUse"><stop offset=".253" stop-color="#AC7C4A"/><stop offset="1" stop-color="#FDC8A4"/></linearGradient><linearGradient id="paint8_linear_357_49536" x1="743.733" y1="177.865" x2="805.721" y2="315.511" gradientUnits="userSpaceOnUse"><stop stop-color="#FDC8A4"/><stop offset="1" stop-color="#AC7C4A"/></linearGradient><linearGradient id="paint9_linear_357_49536" x1="1067.71" y1="43.16" x2="1313.37" y2="371.778" gradientUnits="userSpaceOnUse"><stop stop-color="#FDC8A4"/><stop offset="1" stop-color="#AC7C4A"/></linearGradient><clipPath id="clip0_357_49536"><path fill="#fff" transform="rotate(-4.767 1219.311 -8791.093)" d="M0 0h721.018v240.009H0z"/></clipPath><clipPath id="clip1_357_49536"><path fill="#fff" transform="rotate(-167.175 415.2 159.407)" d="M0 0h594.747v197.976H0z"/></clipPath><clipPath id="clip2_357_49536"><path fill="#fff" transform="rotate(17.838 -437.616 -812.373)" d="M0 0h530.645v176.638H0z"/></clipPath><clipPath id="clip3_357_49536"><path fill="#fff" transform="rotate(-4.767 1105.335 -11529.186)" d="M0 0h493.07v247.34H0z"/></clipPath></defs></svg>