<svg width="32" height="33" viewBox="0 0 32 33" fill="none" xmlns="http://www.w3.org/2000/svg">
<g clip-path="url(#clip0_42_21)">
<path d="M10.5893 0.125H21.4623C22.2744 0.125 22.935 0.785643 22.935 1.59765V30.6523C22.935 31.4643 22.2744 32.1249 21.4623 32.1249H10.5893C9.77731 32.1249 9.11667 31.4645 9.11667 30.6523V1.59765C9.11667 0.785643 9.77731 0.125 10.5893 0.125ZM21.06 2H10.9917V12.0683H21.06V2ZM18.3581 13.9433H13.6936V26.6098H18.3581V13.9433ZM21.06 30.2499V13.9433H20.2331V27.5473C20.2331 28.0651 19.8132 28.4848 19.2956 28.4848H12.7561C12.2382 28.4848 11.8186 28.0651 11.8186 27.5473V13.9433H10.9917V30.2499H21.06Z" fill="black"/>
</g>
<defs>
<clipPath id="clip0_42_21">
<rect width="32" height="32" fill="white" transform="matrix(-1 0 0 1 32 0.125)"/>
</clipPath>
</defs>
</svg>
