<svg width="32" height="33" viewBox="0 0 32 33" fill="none" xmlns="http://www.w3.org/2000/svg">
<path d="M2.02675 3.68194C0.71825 5.32125 0 7.36806 0 9.47237C0 10.6756 0.0820625 11.0006 1.08644 14.9799C1.30275 15.8369 1.56325 16.8689 1.8765 18.1216C1.94162 23.689 6.50419 32.125 12.3125 32.125C18.104 32.125 22.625 23.6474 22.625 18C22.625 17.643 22.6064 17.2853 22.5699 16.9307L23.0262 16.7039C23.8402 17.4942 25.1196 17.7572 26.2367 17.2018C27.3312 16.6578 27.916 15.4919 27.7767 14.3424L30.4391 13.0189C31.8277 12.3286 32.3959 10.6372 31.7056 9.2485C31.0137 7.85656 29.3274 7.28994 27.9352 7.98194L25.2741 9.30481C25.0425 9.08 24.7722 8.89706 24.4731 8.76262C24.1106 3.94137 20.0908 0.125 15.2151 0.125H6.5625C4.33594 0.125 2.5375 1.70337 2.02675 3.68194ZM1.875 9.47237C1.875 8.58894 2.03381 7.71838 2.336 6.90112C3.06331 8.41219 4.57769 9.47544 6.34406 9.55694C4.81994 10.6181 3.53737 12.1049 2.74481 13.8881C1.90081 10.5391 1.875 10.3623 1.875 9.47237ZM12.3125 30.25C7.72781 30.25 3.75 22.6712 3.75 18C3.75 13.3476 7.59112 9.5625 12.3125 9.5625C14.8191 9.5625 17.1577 10.6615 18.7522 12.5468L16.8776 13.4786C15.1221 14.3513 13.8116 15.8552 13.1874 17.7136C13.0226 18.2044 13.2868 18.7359 13.7776 18.9008C13.8431 18.9228 13.909 18.9426 13.9748 18.9627C13.7503 19.0151 13.55 19.1484 13.4162 19.3422C12.7591 20.2937 11.3751 22.4737 11.3751 23.625C11.3751 25.1758 12.6367 26.4375 14.1876 26.4375C15.7384 26.4375 17.0001 25.1758 17.0001 23.625C17.0001 22.4735 15.6156 20.2931 14.9589 19.3422C14.9125 19.2749 14.8576 19.2154 14.7969 19.1635C16.4099 19.4614 17.9948 19.205 19.3816 18.5157L20.7484 17.8363C20.7495 17.8909 20.7501 17.9454 20.7501 18.0001C20.75 22.7204 16.8591 30.25 12.3125 30.25ZM14.1877 21.6126C14.7272 22.5215 15.117 23.3381 15.125 23.6257C15.1246 24.1423 14.7042 24.5625 14.1875 24.5625C13.6706 24.5625 13.25 24.1419 13.25 23.6261C13.2576 23.3395 13.6476 22.5224 14.1877 21.6126ZM18.5468 16.8366C17.5542 17.3301 16.461 17.5074 15.3865 17.3607C15.9182 16.4155 16.7197 15.651 17.7122 15.1576L21.2143 13.4167L22.0489 15.0957L18.5468 16.8366ZM22.8981 10.4858C23.3622 10.2552 23.9242 10.4439 24.1549 10.908C24.3852 11.3714 24.9481 11.5606 25.4117 11.3302L28.7697 9.66094C29.2337 9.43031 29.7957 9.61906 30.0264 10.0831C30.2566 10.546 30.0672 11.1098 29.6042 11.3399L26.2462 13.0092C25.7826 13.2397 25.5936 13.8024 25.8241 14.266C26.0542 14.7289 25.8648 15.2927 25.4019 15.5228C24.9379 15.7535 24.3757 15.5647 24.1451 15.1006L22.4758 11.7426C22.2452 11.2786 22.434 10.7166 22.8981 10.4858ZM6.5625 2H15.2151C19.0068 2 22.1497 4.89706 22.5754 8.61125C22.4007 8.65925 22.2294 8.72437 22.0636 8.80681C20.9476 9.3615 20.3836 10.5394 20.5223 11.6668L20.4707 11.6924C18.5225 9.17075 15.5313 7.6875 12.3125 7.6875H6.5625C5.01169 7.6875 3.75 6.42581 3.75 4.875C3.75 3.31656 5.03794 2 6.5625 2Z" fill="black"/>
</svg>
