<svg width="32" height="33" viewBox="0 0 32 33" fill="none" xmlns="http://www.w3.org/2000/svg">
<g clip-path="url(#clip0_42_521)">
<path d="M2.4713 29.6576C5.76123 32.9475 11.1147 32.9477 14.4048 29.6576C14.8469 29.2154 15.2362 28.7664 15.5878 28.3139L18.373 29.7065C19.7303 30.3851 21.3593 29.8799 22.0845 28.5667C23.0127 26.8861 23.7393 25.6269 24.6387 24.7275C25.5235 23.8427 26.6591 23.1954 28.4386 22.2125C29.7549 21.4856 30.2555 19.8552 29.5784 18.501L28.1857 15.7154C28.6375 15.3648 29.0865 14.9758 29.5295 14.5328C32.8195 11.2427 32.8195 5.88938 29.5295 2.59927C26.2307 -0.699474 20.8952 -0.700037 17.596 2.59927C17.153 3.04224 16.764 3.49122 16.4134 3.94314L13.6278 2.55032C12.2736 1.8732 10.6432 2.37381 9.91636 3.69012C8.93346 5.46972 8.28621 6.60532 7.40144 7.49009C6.50205 8.38949 5.24287 9.11605 3.56221 10.0443C2.24591 10.7712 1.7453 12.4015 2.42242 13.7558L3.81505 16.541C3.36257 16.8925 2.91353 17.2818 2.47143 17.724C-0.818752 21.0141 -0.818814 26.3674 2.4713 29.6576ZM27.5321 20.5711C25.8675 21.4904 24.4299 22.2844 23.3128 23.4016C22.2394 24.4749 21.4464 25.8436 20.4431 27.6601C20.2081 28.0857 19.6557 28.2513 19.2116 28.0293L16.6648 26.7559C17.0306 26.1679 17.361 25.5803 17.6871 25.0001C18.5302 23.5004 19.3266 22.0839 20.6608 20.7497C21.9943 19.4161 23.4009 18.6294 24.8899 17.7965C25.4636 17.4756 26.0446 17.1507 26.6265 16.7903L27.9012 19.3396C28.1232 19.7837 27.9576 20.3361 27.5321 20.5711ZM4.46873 11.6859C6.28521 10.6826 7.65396 9.8895 8.72731 8.81621C9.84442 7.69911 10.6384 6.26148 11.5578 4.59682C11.7928 4.17129 12.3452 4.00571 12.7892 4.22767L15.3386 5.50241C14.9782 6.08434 14.6532 6.66533 14.3323 7.239C13.4994 8.72808 12.7127 10.1346 11.3792 11.4681C10.0449 12.8023 8.62849 13.5987 7.12879 14.4417C6.54861 14.7679 5.96093 15.0983 5.37294 15.4641L4.09958 12.9173C3.87756 12.4732 4.0432 11.9209 4.46873 11.6859ZM8.04775 16.0763C9.59189 15.2082 11.1887 14.3105 12.7051 12.794C14.2224 11.2767 15.1103 9.68942 15.9689 8.15434C16.8518 6.57576 17.6286 5.21857 18.9219 3.92533C21.4878 1.3594 25.6371 1.35896 28.2035 3.92533C30.7625 6.48431 30.7625 10.648 28.2035 13.207C26.9089 14.5015 25.547 15.2805 23.9745 16.16C22.4394 17.0187 20.8521 17.9065 19.3349 19.4237C17.8183 20.9403 16.9206 22.537 16.0525 24.0812C15.1647 25.6605 14.3761 27.0344 13.0788 28.3316C10.5199 30.8906 6.35616 30.8906 3.79717 28.3316C1.23825 25.7726 1.23825 21.6089 3.79717 19.05C5.09567 17.7515 6.47248 16.9618 8.04775 16.0763Z" fill="black"/>
<path d="M5.1196 27.0061C6.94733 28.8339 9.92148 28.834 11.7493 27.0061C12.8861 25.8694 13.5166 24.7012 14.2465 23.3491C14.9997 21.9554 16.2087 19.8949 18.0053 18.0983C19.7471 16.3565 21.7054 15.1955 23.2166 14.3789C24.5692 13.6487 25.7374 13.0182 26.874 11.8814C28.7018 10.0536 28.7018 7.07956 26.874 5.2517C25.0462 3.42391 22.0721 3.42391 20.2443 5.2517C19.1075 6.38843 18.477 7.5566 17.7471 8.90873C16.9303 10.4202 15.7693 12.3785 14.0275 14.1204C12.2309 15.917 10.1704 17.126 8.77706 17.879C7.42444 18.6091 6.25627 19.2397 5.1196 20.3764C3.29181 22.2042 3.29181 25.1783 5.1196 27.0061ZM6.44553 21.7023C7.38831 20.7596 8.34446 20.2435 9.66814 19.5289C11.1652 18.7199 13.3834 17.4164 15.3534 15.4463C17.2668 13.533 18.5193 11.4239 19.397 9.79987C20.1113 8.47662 20.6273 7.52047 21.5702 6.5777C22.6668 5.48104 24.4512 5.48097 25.548 6.5777C26.6447 7.67443 26.6447 9.45884 25.548 10.5556C24.6053 11.4983 23.6491 12.0144 22.3254 12.729C20.7018 13.6065 18.5927 14.859 16.6793 16.7724C14.7092 18.7424 13.4058 20.9606 12.5966 22.4581C11.8823 23.7813 11.3662 24.7375 10.4234 25.6803C9.32667 26.777 7.54226 26.7769 6.44553 25.6803C5.34887 24.5835 5.34887 22.799 6.44553 21.7023Z" fill="black"/>
</g>
<defs>
<clipPath id="clip0_42_521">
<rect width="32" height="32" fill="white" transform="translate(0 0.125)"/>
</clipPath>
</defs>
</svg>
