<svg width="32" height="33" viewBox="0 0 32 33" fill="none" xmlns="http://www.w3.org/2000/svg">
<g clip-path="url(#clip0_42_362)">
<path d="M25.9837 0.445312C25.8057 0.24175 25.5485 0.125 25.2781 0.125H6.72162C6.45137 0.125 6.19425 0.241625 6.01625 0.444937C5.83825 0.64825 5.75668 0.918563 5.79237 1.18638C6.75687 8.41944 7.702 15.4951 8.60162 22.2169C8.69012 22.8778 8.99356 23.4539 9.43737 23.8801V29.3203C9.43737 30.8668 10.699 32.125 12.2499 32.125H19.7499C21.3007 32.125 22.5624 30.8668 22.5624 29.3203V23.8778C23.0051 23.4516 23.3077 22.8759 23.3958 22.2157L23.4016 22.1727C24.3192 15.2943 25.2682 8.18175 26.2073 1.18719C26.2432 0.91925 26.1618 0.648813 25.9837 0.445312ZM24.2064 2C24.1227 2.62425 24.0388 3.24944 23.955 3.875H8.0425C7.95925 3.25119 7.87593 2.62644 7.79237 2H24.2064ZM16.9374 30.25H15.0624V29.5C15.0624 28.9831 15.4829 28.5625 15.9999 28.5625C16.5168 28.5625 16.9374 28.9831 16.9374 29.5V30.25ZM20.6874 29.3203C20.6874 29.8329 20.2668 30.25 19.7499 30.25H18.8124V29.5C18.8124 27.9492 17.5507 26.6875 15.9999 26.6875C14.4491 26.6875 13.1874 27.9492 13.1874 29.5V30.25H12.2499C11.7329 30.25 11.3124 29.8329 11.3124 29.3203V24.6562H11.3892H20.608H20.6874V29.3203ZM21.543 21.9247L21.5372 21.9678C21.4744 22.4391 21.0836 22.7812 20.608 22.7812H11.3892C10.9139 22.7812 10.5231 22.4392 10.46 21.9681C9.76093 16.745 9.03437 11.3083 8.29268 5.75H23.7037C22.9774 11.1733 22.2509 16.6189 21.543 21.9247Z" fill="black"/>
<path d="M20.3125 12.5625H19.3714C19.2946 12.2863 19.1847 12.0239 19.0461 11.7796L19.7122 11.1135C20.0784 10.7474 20.0783 10.1538 19.7122 9.78769C19.3462 9.42162 18.7526 9.42162 18.3864 9.78769L17.7203 10.4538C17.476 10.3153 17.2136 10.2054 16.9374 10.1286V9.1875C16.9374 8.66975 16.5177 8.25 15.9999 8.25C15.4822 8.25 15.0624 8.66975 15.0624 9.1875V10.1286C14.7862 10.2054 14.5239 10.3153 14.2796 10.4538L13.6134 9.78769C13.2474 9.42156 12.6538 9.42162 12.2876 9.78769C11.9216 10.1538 11.9215 10.7474 12.2876 11.1135L12.9537 11.7796C12.8152 12.0239 12.7054 12.2863 12.6285 12.5625H11.6875C11.1697 12.5625 10.75 12.9823 10.75 13.5C10.75 14.0177 11.1697 14.4375 11.6875 14.4375H12.6286C12.7054 14.7137 12.8153 14.9761 12.9538 15.2204L12.2878 15.8865C11.9216 16.2526 11.9217 16.8462 12.2878 17.2123C12.4708 17.3954 12.7108 17.4869 12.9506 17.4869C13.1905 17.4869 13.4305 17.3953 13.6135 17.2122L14.2796 16.5461C14.5239 16.6846 14.7862 16.7945 15.0624 16.8714V17.8125C15.0624 18.3302 15.4822 18.75 15.9999 18.75C16.5177 18.75 16.9374 18.3302 16.9374 17.8125V16.8714C17.2136 16.7946 17.476 16.6847 17.7203 16.5462L18.3864 17.2123C18.5694 17.3954 18.8094 17.4869 19.0492 17.4869C19.2891 17.4869 19.5291 17.3954 19.7121 17.2124C20.0782 16.8463 20.0783 16.2527 19.7121 15.8866L19.0461 15.2204C19.1846 14.9761 19.2944 14.7138 19.3713 14.4376H20.3125C20.8302 14.4376 21.25 14.0178 21.25 13.5001C21.25 12.9823 20.8302 12.5625 20.3125 12.5625ZM16 15.125C15.1039 15.125 14.375 14.3961 14.375 13.5C14.375 12.6039 15.1039 11.875 16 11.875C16.8961 11.875 17.625 12.604 17.625 13.5C17.625 14.396 16.8961 15.125 16 15.125Z" fill="black"/>
</g>
<defs>
<clipPath id="clip0_42_362">
<rect width="32" height="32" fill="white" transform="translate(0 0.125)"/>
</clipPath>
</defs>
</svg>
