<svg width="28" height="20" fill="none" xmlns="http://www.w3.org/2000/svg"><rect x=".25" y=".25" width="27.5" height="19.5" rx="1.75" fill="#fff" stroke="#E9E9EC" stroke-width=".5"/><mask id="a" style="mask-type:alpha" maskUnits="userSpaceOnUse" x="0" y="0" width="28" height="20"><rect x=".25" y=".25" width="27.5" height="19.5" rx="1.75" fill="#fff" stroke="#fff" stroke-width=".5"/></mask><g mask="url(#a)"><path fill-rule="evenodd" clip-rule="evenodd" d="M14 14.667a4.667 4.667 0 100-9.333 4.667 4.667 0 000 9.333z" fill="#E01B41"/><mask id="b" style="mask-type:alpha" maskUnits="userSpaceOnUse" x="9" y="5" width="10" height="10"><path fill-rule="evenodd" clip-rule="evenodd" d="M14 14.667a4.667 4.667 0 100-9.333 4.667 4.667 0 000 9.333z" fill="#fff"/></mask><g mask="url(#b)"><path fill-rule="evenodd" clip-rule="evenodd" d="M9.333 10.667c1.333 1.25 3.333 2 4.666 0 1.334-2 4-2 4.667 0 .667 2 0 4 0 4H9.333s-1.334-5.25 0-4z" fill="#0E4B9C"/></g><path opacity=".75" fill-rule="evenodd" clip-rule="evenodd" d="M6.173 3.557a.333.333 0 01.456-.122l.577.333c.16.092.214.296.122.456L5.661 7.11a.333.333 0 01-.455.122L4.629 6.9a.333.333 0 01-.122-.455l1.666-2.887zm14.621.211a.333.333 0 00-.122.456L22.34 7.11c.092.16.296.214.455.122l.578-.333a.333.333 0 00.122-.455l-1.667-2.887a.333.333 0 00-.455-.122l-.578.333zm-1.732 1a.333.333 0 00-.122.456l1.667 2.886c.092.16.296.214.455.122l.578-.333a.333.333 0 00.122-.455l-1.667-2.887a.333.333 0 00-.455-.122l-.578.333zM4.507 13.557a.333.333 0 01.122-.456l.577-.333a.333.333 0 01.455.122l1.667 2.887a.333.333 0 01-.122.455l-.577.334a.333.333 0 01-.456-.122l-1.666-2.887zM6.36 12.1a.333.333 0 00-.122.456l1.666 2.887a.334.334 0 00.456.122l.577-.334a.333.333 0 00.122-.455L7.393 11.89a.333.333 0 00-.455-.122l-.577.333zm14.246-.21a.333.333 0 01.455-.123l.578.333c.16.093.214.296.122.456l-1.667 2.887a.333.333 0 01-.455.122l-.578-.334a.333.333 0 01-.122-.455l1.667-2.887zm2.187.877a.333.333 0 00-.455.122l-1.667 2.887a.333.333 0 00.122.455l.578.334c.16.092.363.037.455-.122l1.667-2.887a.333.333 0 00-.122-.456l-.578-.333zM8.361 4.435a.333.333 0 00-.456.122L6.24 7.444a.333.333 0 00.122.455l.577.333c.16.092.363.038.455-.122L9.06 5.224a.333.333 0 00-.122-.456l-.577-.333z" fill="#262626"/></g></svg>