<svg width="32" height="33" fill="none" xmlns="http://www.w3.org/2000/svg"><path fill-rule="evenodd" clip-rule="evenodd" d="M19.138 10.697c.26.26.26.683 0 .943l-4.862 4.862 4.862 4.862a.667.667 0 01-.943.943l-5.805-5.805 5.805-5.805c.26-.26.683-.26.943 0z" fill="#8F8C9E"/><path fill-rule="evenodd" clip-rule="evenodd" d="M19.138 11.64a.667.667 0 00-.943-.943l-5.805 5.805 5.805 5.805a.667.667 0 00.943-.943l-4.862-4.862 4.862-4.862z" fill="#8F8C9E"/><path fill-rule="evenodd" clip-rule="evenodd" d="M32 16.5c0 8.837-7.163 16-16 16s-16-7.163-16-16S7.163.5 16 .5s16 7.163 16 16zm-12.862-5.803c.26.26.26.683 0 .943l-4.862 4.862 4.862 4.862a.667.667 0 01-.943.943l-5.805-5.805 5.805-5.805c.26-.26.683-.26.943 0z" fill="#E9E9EC" fill-opacity=".75"/></svg>