<svg width="24" height="28" fill="none" xmlns="http://www.w3.org/2000/svg"><path d="M20.485 13.7a12.258 12.258 0 00-4.681-2.676c2.731-1.945 3.243-5.572 1.143-8.102C14.846.393 10.928-.08 8.197 1.864 5.463 3.81 4.952 7.436 7.052 9.965c.33.399.716.755 1.146 1.061C3.29 12.52-.02 16.772 0 21.556v3.555c.002 1.227 1.075 2.22 2.4 2.222h19.2c1.325-.001 2.398-.995 2.4-2.222v-3.555c.006-2.948-1.26-5.776-3.515-7.856zM6.72 6.446c0-2.7 2.364-4.888 5.28-4.887 2.917 0 5.28 2.189 5.28 4.888 0 1.825-1.099 3.498-2.848 4.339a5.268 5.268 0 01-.56.23c-.027.01-.055.018-.082.027a5.88 5.88 0 01-.611.164c-.158.033-.316.06-.475.079l-.113.014c-.393.04-.79.04-1.182 0l-.11-.014a5.925 5.925 0 01-.605-.106 5.393 5.393 0 01-.487-.138l-.082-.025a5.395 5.395 0 01-.561-.232c-1.752-.838-2.85-2.513-2.844-4.339zm16.32 18.665c0 .736-.645 1.333-1.44 1.333H2.4c-.795 0-1.44-.596-1.44-1.333v-3.555c-.021-4.493 3.148-8.465 7.792-9.768a1.57 1.57 0 01.972.039l.04.013c.065.023.133.041.198.062.144.045.288.09.432.124a7.459 7.459 0 00.66.125c.097.013.193.028.293.037.169.016.339.024.509.028.048 0 .096.008.144.008.048 0 .096-.008.147-.008.169-.004.336-.012.505-.028.1-.01.197-.024.296-.038a6.328 6.328 0 001.097-.25c.063-.02.126-.037.188-.059.014-.005.03-.008.044-.014.308-.114.649-.128.967-.04 4.634 1.318 7.796 5.281 7.796 9.769v3.555z" fill="#000"/></svg>