<svg width="321" height="44" fill="none" xmlns="http://www.w3.org/2000/svg"><path d="M55.682 24.159c-2.178-2.159-5.185-3.393-8.295-3.393a12 12 0 00-3.837.617c-.518-.308-.933-.617-1.452-.822.934-.514 1.867-1.131 2.593-1.953a10.847 10.847 0 003.214-7.71c0-2.982-1.14-5.655-3.214-7.711A11.036 11.036 0 0036.914 0H8.917v2.467h4.874v9.253H8.917v2.467h4.874v6.785c-.622-.103-1.348-.206-2.074-.206-3.11 0-6.118 1.234-8.295 3.393A11.623 11.623 0 000 32.383a11.62 11.62 0 003.422 8.224C5.599 42.767 8.606 44 11.717 44H36.81c1.867 0 3.733-.411 5.288-1.234C43.654 43.59 45.52 44 47.283 44c3.11 0 6.118-1.234 8.295-3.392A11.623 11.623 0 0059 32.383c0-3.084-1.14-5.963-3.318-8.224zM13.79 41.635h-2.074c-5.08 0-9.332-4.112-9.332-9.252 0-5.14 4.148-9.252 9.332-9.252.726 0 1.348.103 2.074.205v18.3zm2.385-39.27h9.54v9.355h-9.54V2.364zm9.643 39.27h-9.643v-17.27c.31.205.726.41 1.037.616l8.606 6.168v10.486zm-7.155-18.607c-.414-.308-.83-.514-1.244-.72l-1.244-.616v-7.505h9.54v13.981l-7.052-5.14zM36.81 41.635h-8.606V33l11.406 8.224c-.83.309-1.763.411-2.8.411zm5.392-1.542c-.104-.102-.207-.102-.311-.205l-13.583-9.87v-15.83h4.562V11.72h-4.666V2.364h8.606c4.77 0 8.607 3.804 8.607 8.533 0 4.73-3.837 8.533-8.607 8.533h-3.94v2.467h3.94c5.496 0 9.954 4.42 9.954 9.87 0 3.495-1.762 6.579-4.562 8.326zm5.185 1.542c-.934 0-1.763-.102-2.696-.41.31-.206.622-.515.933-.823 2.385-2.365 3.63-5.449 3.63-8.738 0-3.187-1.245-6.169-3.423-8.43.519-.103 1.037-.103 1.452-.103 5.08 0 9.332 4.112 9.332 9.252 0 5.14-4.148 9.252-9.228 9.252zm29.677-27.143h2.88c1.6 0 2.824.336 3.672 1.008.96.736 1.44 1.84 1.44 3.312 0 1.376-.528 2.424-1.584 3.144 1.024.256 1.784.776 2.28 1.56.512.768.768 1.592.768 2.472 0 .72-.16 1.384-.48 1.992-.304.608-.688 1.096-1.152 1.464-.896.704-2.176 1.056-3.84 1.056h-3.984V14.492zm1.776 1.68v5.352h1.344c.24 0 .472-.008.696-.024.224-.032.488-.096.792-.192.32-.112.592-.256.816-.432.24-.176.44-.44.6-.792.16-.352.24-.76.24-1.224 0-.496-.096-.92-.288-1.272-.192-.368-.408-.64-.648-.816a2.702 2.702 0 00-.864-.408 4.567 4.567 0 00-.768-.168 5.829 5.829 0 00-.528-.024H78.84zm0 6.936v5.712h2.04c1.296 0 2.232-.224 2.808-.672.704-.512 1.056-1.248 1.056-2.208 0-1.072-.456-1.856-1.368-2.352-.576-.32-1.48-.48-2.712-.48H78.84zm20.455-8.616v1.68h-6.528v4.752h6.336v1.68h-6.336v6.216h6.528v1.68H90.99V14.492h8.304zM114.473 30.5l-1.872-4.512h-6.816l-1.92 4.512h-1.968l7.368-16.776 7.176 16.776h-1.968zm-7.992-6.192h5.424l-2.688-6.408-2.736 6.408zm15.193-9.816v9.816c0 .608.008 1.08.024 1.416.032.336.144.752.336 1.248.208.48.512.888.912 1.224.72.608 1.6.912 2.64.912s1.92-.304 2.64-.912c.4-.336.696-.744.888-1.224.208-.496.32-.912.336-1.248.032-.336.048-.808.048-1.416v-9.816h1.776v10.296c0 1.632-.336 2.912-1.008 3.84-.496.672-1.152 1.2-1.968 1.584-.8.384-1.704.576-2.712.576-1.008 0-1.92-.192-2.736-.576a5.124 5.124 0 01-1.944-1.584c-.672-.928-1.008-2.208-1.008-3.84V14.492h1.776zm22.764 1.68h-3.888V30.5h-1.776V16.172h-3.888v-1.68h9.552v1.68zm7.494 14.328v-6.888l-5.256-9.12h2.064l4.08 7.152 4.128-7.152h2.064l-5.304 9.12V30.5h-1.776zm24.641-16.008v1.68h-5.52V20.9h5.328v1.68h-5.328v7.92h-1.776V14.492h7.296zm17.678 13.92c-1.6 1.584-3.568 2.376-5.904 2.376s-4.312-.792-5.928-2.376c-1.6-1.584-2.4-3.552-2.4-5.904 0-2.368.808-4.336 2.424-5.904 1.616-1.584 3.584-2.376 5.904-2.376s4.288.792 5.904 2.376c1.616 1.568 2.424 3.536 2.424 5.904 0 2.352-.808 4.32-2.424 5.904zm-1.296-10.584c-1.264-1.28-2.8-1.92-4.608-1.92-1.808 0-3.344.64-4.608 1.92-1.264 1.28-1.896 2.84-1.896 4.68 0 1.84.632 3.4 1.896 4.68 1.264 1.28 2.8 1.92 4.608 1.92 1.808 0 3.344-.64 4.608-1.92 1.264-1.28 1.896-2.84 1.896-4.68 0-1.84-.632-3.4-1.896-4.68zm8.182-3.336h2.568c1.728 0 3.024.296 3.888.888 1.168.784 1.752 1.968 1.752 3.552 0 1.232-.376 2.256-1.128 3.072-.736.816-1.704 1.264-2.904 1.344l5.088 7.152h-2.16l-4.872-7.008h-.456V30.5h-1.776V14.492zm1.776 1.68v5.736h1.128c1.104 0 1.968-.256 2.592-.768.624-.512.936-1.232.936-2.16 0-1.088-.424-1.872-1.272-2.352-.544-.304-1.312-.456-2.304-.456h-1.08zm23.711-.36v2.208a7.368 7.368 0 00-2.088-1.488c-.912-.416-1.832-.624-2.76-.624-1.84 0-3.376.648-4.608 1.944-1.216 1.28-1.824 2.856-1.824 4.728 0 2.016.664 3.608 1.992 4.776 1.344 1.168 2.832 1.752 4.464 1.752a6.407 6.407 0 002.976-.744 7.09 7.09 0 001.848-1.344v2.208c-1.456 1.04-3.064 1.56-4.824 1.56-2.368 0-4.344-.792-5.928-2.376-1.568-1.584-2.352-3.536-2.352-5.856 0-2.384.792-4.368 2.376-5.952 1.6-1.584 3.6-2.376 6-2.376 1.76 0 3.336.528 4.728 1.584zm12.78-1.32v1.68h-6.528v4.752h6.336v1.68h-6.336v6.216h6.528v1.68H231.1V14.492h8.304zm20.54 1.512l-1.632 2.136c-.688-.912-1.56-1.368-2.616-1.368-.768 0-1.328.192-1.68.576-.352.368-.528.8-.528 1.296 0 .432.168.792.504 1.08.256.24.896.544 1.92.912 1.584.544 2.664 1.08 3.24 1.608.912.816 1.368 1.936 1.368 3.36 0 1.568-.52 2.84-1.56 3.816-1.024.96-2.36 1.44-4.008 1.44-2.304 0-4.144-1.008-5.52-3.024l2.04-1.944c.352.72.84 1.256 1.464 1.608.624.352 1.256.528 1.896.528.72 0 1.312-.2 1.776-.6.464-.416.696-.952.696-1.608 0-.56-.208-1.04-.624-1.44-.384-.352-1.208-.744-2.472-1.176-1.184-.4-2.072-.864-2.664-1.392-.848-.736-1.272-1.728-1.272-2.976 0-1.296.44-2.4 1.32-3.312.88-.928 2.152-1.392 3.816-1.392 1.808 0 3.32.624 4.536 1.872zm12.922 1.176h-3.6V30.5h-3.12V17.18h-3.6v-2.688h10.32v2.688zm4.082-.696c1.6-1.568 3.656-2.352 6.168-2.352s4.56.784 6.144 2.352c1.6 1.568 2.4 3.576 2.4 6.024s-.8 4.456-2.4 6.024c-1.584 1.552-3.632 2.328-6.144 2.328s-4.568-.776-6.168-2.328c-1.584-1.568-2.376-3.576-2.376-6.024s.792-4.456 2.376-6.024zm2.328 10.008c.992 1.024 2.272 1.536 3.84 1.536s2.848-.512 3.84-1.536c.992-1.04 1.488-2.368 1.488-3.984s-.504-2.944-1.512-3.984c-.992-1.04-2.264-1.56-3.816-1.56s-2.832.52-3.84 1.56c-.992 1.04-1.488 2.368-1.488 3.984s.496 2.944 1.488 3.984zm16.459-12h4.632c1.76 0 3.12.4 4.08 1.2 1.056.896 1.584 2.096 1.584 3.6 0 1.664-.624 2.92-1.872 3.768-.48.336-1.064.568-1.752.696l4.992 6.744h-3.888l-4.272-6.432h-.384V30.5h-3.12V14.492zm3.12 2.544v4.824h.888c.256 0 .504-.016.744-.048.256-.048.584-.136.984-.264.4-.144.72-.392.96-.744.256-.368.384-.824.384-1.368 0-.544-.12-.992-.36-1.344a1.763 1.763 0 00-.96-.744c-.4-.144-.72-.232-.96-.264a5.626 5.626 0 00-.744-.048h-.936zm20.741-2.544v2.688h-5.76v3.576h5.52v2.688h-5.52v4.368h5.76V30.5h-8.88V14.492h8.88z" fill="#fff"/></svg>