<svg width="40" height="31" fill="none" xmlns="http://www.w3.org/2000/svg"><path d="M37.75 16.972a7.994 7.994 0 00-5.623-2.313 8.09 8.09 0 00-2.602.42c-.351-.21-.632-.42-.984-.56.633-.35 1.266-.771 1.758-1.332a7.416 7.416 0 002.179-5.257 7.297 7.297 0 00-2.18-5.257A7.46 7.46 0 0025.027.5H6.046v1.682H9.35v6.309H6.046v1.682H9.35v4.626a8.678 8.678 0 00-1.406-.14 7.995 7.995 0 00-5.624 2.313A7.947 7.947 0 000 22.579a7.95 7.95 0 002.32 5.608A7.995 7.995 0 007.944 30.5h17.012c1.265 0 2.53-.28 3.585-.841 1.055.56 2.32.841 3.515.841a7.994 7.994 0 005.624-2.313A7.947 7.947 0 0040 22.579a8.002 8.002 0 00-2.25-5.607zM9.35 28.888H7.944c-3.445 0-6.327-2.804-6.327-6.309a6.291 6.291 0 016.327-6.308c.492 0 .914.07 1.406.14v12.477zm1.617-26.776h6.467v6.379h-6.467V2.112zm6.537 26.776h-6.537V17.112c.21.14.492.28.703.42l5.834 4.206v7.15zM12.654 16.2c-.281-.21-.563-.35-.844-.49l-.843-.421v-5.117h6.467v9.533l-4.78-3.505zm12.302 12.687h-5.835V23l7.733 5.608c-.562.21-1.195.28-1.898.28zm3.656-1.052c-.07-.07-.141-.07-.211-.14l-9.21-6.729V10.173h3.094V8.49H19.12V2.112h5.835A5.812 5.812 0 0130.79 7.93a5.812 5.812 0 01-5.835 5.818h-2.671v1.682h2.671c3.726 0 6.749 3.014 6.749 6.729 0 2.383-1.195 4.486-3.093 5.677zm3.515 1.052a5.52 5.52 0 01-1.828-.28c.21-.14.422-.351.633-.561 1.616-1.612 2.46-3.715 2.46-5.958a8.28 8.28 0 00-2.32-5.748c.352-.07.703-.07.984-.07 3.445 0 6.327 2.804 6.327 6.308 0 3.505-2.812 6.309-6.257 6.309z" fill="#1F1A3D"/></svg>