<svg width="17" height="18" fill="none" xmlns="http://www.w3.org/2000/svg"><path d="M16.242 4.507c-1.025 0-1.97-.34-2.73-.916A4.548 4.548 0 0111.708 0H8.781v8.03l-.003 4.4a2.66 2.66 0 01-2.804 2.655 2.662 2.662 0 01-2.507-2.615 2.657 2.657 0 013.49-2.565V6.921a5.75 5.75 0 00-.844-.062c-1.62 0-3.134.676-4.217 1.894A5.525 5.525 0 00.51 12.079a5.519 5.519 0 001.633 4.29A5.599 5.599 0 006.114 18c.285-.001.566-.022.843-.063a5.586 5.586 0 003.126-1.57 5.514 5.514 0 001.644-3.915l-.015-6.57a7.389 7.389 0 004.538 1.55V4.505l-.008.001z" fill="#1F1A3D"/></svg>