<svg width="18" height="11" fill="none" xmlns="http://www.w3.org/2000/svg"><path d="M14.936 6.521c-.29-.367-.207-.531 0-.86.004-.003 2.406-3.323 2.654-4.449h.001c.123-.41 0-.712-.595-.712H15.03c-.502 0-.732.259-.856.548 0 0-1.002 2.399-2.42 3.954-.457.449-.669.593-.918.593-.124 0-.315-.144-.315-.554V1.21C10.52.72 10.38.5 9.965.5H6.871c-.315 0-.501.23-.501.443 0 .467.708.574.782 1.887v2.847c0 .624-.113.739-.365.739-.669 0-2.292-2.408-3.254-5.165-.195-.534-.385-.75-.89-.75H.676C.113.5 0 .759 0 1.049c0 .512.669 3.055 3.111 6.415C4.738 9.757 7.031 11 9.115 11c1.254 0 1.407-.276 1.407-.75 0-2.192-.114-2.4.514-2.4.291 0 .792.145 1.962 1.251C14.336 10.413 14.555 11 15.304 11h1.968c.56 0 .845-.276.681-.82-.374-1.146-2.903-3.501-3.017-3.659z" fill="#1F1A3D"/></svg>