<svg width="13" height="19" fill="none" xmlns="http://www.w3.org/2000/svg"><path d="M6.298 0a4.504 4.504 0 00-4.5 4.5c0 2.482 2.018 4.5 4.5 4.5s4.5-2.018 4.5-4.5S8.78 0 6.298 0zm0 6.75c-1.24 0-2.25-1.01-2.25-2.25s1.01-2.25 2.25-2.25 2.25 1.01 2.25 2.25-1.01 2.25-2.25 2.25z" fill="#1F1A3D"/><path d="M12.262 8.885c-.44-.44-1.15-.44-1.59 0a6.197 6.197 0 01-8.751 0 1.125 1.125 0 10-1.59 1.592 8.386 8.386 0 005.002 2.405l-3.208 3.207a1.124 1.124 0 101.591 1.59l2.58-2.579 2.58 2.58a1.122 1.122 0 001.59 0c.44-.44.44-1.151 0-1.591l-3.207-3.207a8.387 8.387 0 005.002-2.406c.44-.44.44-1.152.002-1.591z" fill="#1F1A3D"/></svg>