<svg width="18" height="18" fill="none" xmlns="http://www.w3.org/2000/svg"><path fill-rule="evenodd" clip-rule="evenodd" d="M8.9 0C5.192 0 2.62.013 1.302 1.301c-1.288 1.32-1.3 4.01-1.3 7.6 3.985-.12 5.807-.22 7.26-1.64C8.681 5.808 8.781 3.985 8.901 0zM1.3 16.7C.013 15.38 0 12.688 0 9.1c3.985.12 5.808.22 7.261 1.639 1.42 1.453 1.52 3.276 1.64 7.261-3.71 0-6.28-.012-7.6-1.3zM9.1 18c.12-3.985.22-5.808 1.639-7.261 1.453-1.42 3.276-1.52 7.261-1.64 0 3.59-.013 6.28-1.301 7.6-1.32 1.289-3.89 1.301-7.6 1.301zm0-18c.12 3.985.22 5.808 1.639 7.261 1.453 1.42 3.276 1.52 7.261 1.64 0-3.59-.013-6.28-1.301-7.6-1.32-1.288-3.89-1.3-7.6-1.301z" fill="#1F1A3D"/></svg>