<svg xmlns="http://www.w3.org/2000/svg" xmlns:xlink="http://www.w3.org/1999/xlink" width="5000" height="5000" viewBox="0 0 2500 100">
  <defs>
    <style>
      .cls-1 {
        fill-rule: evenodd;
        opacity: 0.5;
        fill: url(#linear-gradient);
      }
    </style>
    <linearGradient id="linear-gradient" x1="-1671" y1="51.297" x2="5255" y2="901.703" gradientUnits="userSpaceOnUse">
      <stop offset="0" stop-color="#d2001a"/>
      <stop offset="0.991" stop-color="#004288"/>
      <stop offset="1" stop-color="#004288"/>
    </linearGradient>
  </defs>
  <path id="Фигура_2" data-name="Фигура 2" class="cls-1" d="M3451.82-1214.34L111.936,2125.51l6.6,6.59L3458.41-1207.74l-6.59-6.6m-15.83-15.82L96.11,2109.68l6.6,6.6L3442.59-1223.56l-6.6-6.6m-15.82-15.82L80.289,2093.86l6.6,6.6L3426.76-1239.39l-6.59-6.59m-15.83-15.83L64.464,2078.04l6.6,6.6L3410.94-1255.21l-6.6-6.6m-15.82-15.82L48.641,2062.22l6.6,6.59L3395.12-1271.03l-6.6-6.6m-15.82-15.82L32.817,2046.39l6.6,6.6L3379.29-1286.86l-6.59-6.59m-15.83-15.83L16.993,2030.57l6.6,6.59L3363.47-1302.68l-6.6-6.6m-15.82-15.82L1.17,2014.74l6.6,6.6L3347.65-1318.5l-6.6-6.6m-15.82-15.82L-14.654,1998.92l6.6,6.6L3331.82-1334.33l-6.59-6.59m-15.83-15.83L-30.478,1983.1l6.6,6.59L3316-1350.15l-6.6-6.6m-15.82-15.82L-46.3,1967.27l6.6,6.6L3300.18-1365.97l-6.6-6.6m-15.82-15.82L-62.124,1951.45l6.6,6.6L3284.35-1381.8l-6.59-6.59m-15.83-15.83L-77.947,1935.63l6.6,6.59L3268.53-1397.62l-6.6-6.6m-15.82-15.82L-93.771,1919.8l6.6,6.6L3252.71-1413.44l-6.6-6.6m-15.82-15.82L-109.593,1903.98l6.6,6.6L3236.88-1429.27l-6.59-6.59m-15.83-15.83L-125.417,1888.16l6.6,6.6L3221.06-1445.09l-6.6-6.6m-15.82-15.82L-141.241,1872.33l6.6,6.6L3205.24-1460.91l-6.6-6.6m-15.82-15.82L-157.064,1856.51l6.6,6.6L3189.41-1476.74l-6.59-6.59m-15.83-15.83L-172.888,1840.69l6.6,6.6L3173.59-1492.56l-6.6-6.6m-15.82-15.82L-188.71,1824.86l6.6,6.6L3157.77-1508.38l-6.6-6.6m-15.82-15.82L-204.534,1809.04l6.6,6.6L3141.94-1524.21l-6.59-6.59m-15.83-15.83L-220.358,1793.22l6.6,6.6L3126.12-1540.03l-6.6-6.6m-15.82-15.82L-236.182,1777.4l6.6,6.59L3110.29-1555.85l-6.59-6.6m-15.83-15.82L-252,1761.57l6.6,6.6L3094.47-1571.68l-6.6-6.59m-15.82-15.83L-267.829,1745.75l6.6,6.6L3078.65-1587.5l-6.6-6.6m-15.82-15.82L-283.653,1729.93l6.6,6.59L3062.83-1603.32l-6.6-6.6m-15.83-15.82L-299.476,1714.1l6.6,6.6L3047-1619.15l-6.6-6.59m-15.82-15.83L-315.3,1698.28l6.6,6.59L3031.18-1634.97l-6.6-6.6m-15.82-15.82L-331.122,1682.46l6.6,6.59L3015.36-1650.79l-6.6-6.6m-15.83-15.82L-346.946,1666.63l6.6,6.6L2999.53-1666.62l-6.6-6.59m-15.82-15.83L-362.77,1650.81l6.6,6.6L2983.71-1682.44l-6.6-6.6m-15.82-15.82L-378.592,1634.99l6.595,6.59L2967.88-1698.26l-6.59-6.6m-15.83-15.82L-394.416,1619.16l6.6,6.6L2952.06-1714.09l-6.6-6.59m-15.82-15.83L-410.239,1603.34l6.6,6.59L2936.24-1729.91l-6.6-6.6m-15.82-15.82L-426.063,1587.51l6.6,6.6L2920.41-1745.73l-6.59-6.6m-15.83-15.82L-441.887,1571.69l6.6,6.6L2904.59-1761.56l-6.6-6.59m-15.82-15.83L-457.711,1555.87l6.6,6.6L2888.77-1777.38l-6.6-6.6m-15.82-15.82L-473.533,1540.05l6.6,6.59L2872.94-1793.2l-6.59-6.6m593.15,608.82L134.275,2134.21l6.6,6.59L3466.1-1184.39l-6.6-6.59m15.82,15.82L150.1,2150.03l6.6,6.6L3481.92-1168.56l-6.6-6.6m15.83,15.82L165.921,2165.85l6.6,6.6L3497.74-1152.74l-6.59-6.6m15.82,15.83L181.745,2181.68l6.6,6.59L3513.57-1136.91l-6.6-6.6m15.83,15.82L197.569,2197.5l6.6,6.6L3529.39-1121.09l-6.59-6.6m15.82,15.82L213.392,2213.32l6.6,6.6L3545.22-1105.27l-6.6-6.6m15.82,15.83L229.216,2229.15l6.6,6.59L3561.04-1089.45l-6.6-6.59m15.82,15.82L245.04,2244.97l6.6,6.6L3576.86-1073.62l-6.6-6.6m15.83,15.82L260.862,2260.79l6.6,6.6L3592.69-1057.8l-6.6-6.6m15.82,15.83L276.687,2276.62l6.6,6.59L3608.51-1041.97l-6.6-6.6m15.83,15.82L292.509,2292.44l6.6,6.6L3624.33-1026.15l-6.59-6.6m15.82,15.82L308.333,2308.26l6.6,6.6L3640.16-1010.33l-6.6-6.6m15.82,15.83L324.157,2324.09l6.6,6.59L3655.98-994.506l-6.6-6.594m15.83,15.821L339.981,2339.91l6.6,6.6L3671.8-978.682l-6.59-6.6m15.82,15.824L355.8,2355.73l6.6,6.6L3687.63-962.859l-6.6-6.6m15.82,15.823L371.627,2371.56l6.6,6.59L3703.45-947.037l-6.6-6.595m15.83,15.822L387.452,2387.38l6.6,6.6L3719.27-931.212l-6.59-6.6m15.82,15.824L403.274,2403.2l6.6,6.6L3735.1-915.39l-6.6-6.6m15.82,15.823L419.1,2419.03l6.6,6.59L3750.92-899.566l-6.6-6.6m15.83,15.824L434.922,2434.85l6.6,6.6L3766.74-883.743l-6.59-6.6m15.82,15.822L450.744,2450.67l6.6,6.6L3782.57-867.919l-6.6-6.6m15.82,15.823L466.567,2466.5l6.6,6.59L3798.39-852.1l-6.6-6.6m15.83,15.824L482.391,2482.32l6.6,6.6L3814.21-836.273l-6.59-6.6m15.82,15.823L498.215,2498.14l6.6,6.6L3830.04-820.45l-6.6-6.6m15.83,15.824L514.038,2513.97l6.6,6.59L3845.86-804.626l-6.59-6.6m15.82,15.823L529.862,2529.79l6.6,6.6L3861.68-788.8l-6.59-6.6m15.82,15.824L545.686,2545.61l6.6,6.6L3877.51-772.979l-6.6-6.6m15.82,15.824L561.51,2561.44l6.6,6.59L3893.33-757.155l-6.6-6.6m15.83,15.822L577.332,2577.26l6.6,6.6L3909.15-741.333l-6.59-6.6m15.82,15.823L593.156,2593.08l6.6,6.6L3924.98-725.51l-6.6-6.6m15.82,15.824L608.98,2608.91l6.6,6.59L3940.8-709.686l-6.6-6.6m15.83,15.823L624.8,2624.73l6.6,6.6L3956.63-693.863l-6.6-6.6m15.82,15.824L640.627,2640.55l6.6,6.6L3972.45-678.039l-6.6-6.6m15.83,15.824L656.449,2656.38l6.6,6.59L3988.27-662.216l-6.59-6.6m15.82,15.822L672.274,2672.2l6.6,6.6L4004.1-646.392l-6.6-6.6m15.82,15.823L688.1,2688.02l6.6,6.6L4019.92-630.57l-6.6-6.6m15.83,15.824L703.92,2703.85l6.6,6.59L4035.74-614.747l-6.59-6.6m15.82,15.823L719.744,2719.67l6.6,6.6L4051.57-598.923l-6.6-6.6M4635.26,5.488L1309.48,3331.24l6.59,6.6L4641.86,12.086l-6.6-6.6m-15.82-15.822L1293.65,3315.42l6.6,6.59L4626.04-3.738l-6.6-6.6m-15.82-15.823L1277.83,3299.59l6.6,6.6L4610.21-19.561l-6.59-6.6m-15.83-15.824L1262.01,3283.77l6.6,6.6L4594.39-35.385l-6.6-6.6M4571.97-57.8L1246.18,3267.95l6.6,6.59L4578.57-51.208l-6.6-6.6m-15.82-15.824L1230.36,3252.12l6.6,6.6L4562.74-67.032l-6.59-6.6m-15.83-15.824L1214.54,3236.3l6.59,6.6L4546.92-82.855l-6.6-6.6m-15.82-15.822L1198.71,3220.48l6.6,6.59L4531.1-98.679l-6.6-6.6M4508.68-121.1L1182.89,3204.65l6.6,6.6L4515.27-114.5l-6.59-6.6m-15.83-15.824L1167.07,3188.83l6.59,6.6L4499.45-130.324l-6.6-6.6m-15.82-15.822L1151.24,3173.01l6.6,6.6L4483.63-146.148l-6.6-6.6m-15.82-15.823L1135.42,3157.18l6.6,6.6L4467.8-161.972l-6.59-6.6m-15.83-15.824L1119.6,3141.36l6.59,6.6L4451.98-177.793l-6.6-6.6m-15.82-15.823L1103.77,3125.54l6.6,6.59L4436.16-193.619l-6.6-6.6m-15.82-15.824L1087.95,3109.71l6.6,6.6L4420.33-209.441l-6.59-6.6m-15.83-15.822L1072.13,3093.89l6.59,6.6L4404.51-225.264l-6.6-6.6m-15.82-15.824L1056.3,3078.07l6.6,6.59L4388.69-241.088l-6.6-6.6m-15.83-15.823L1040.48,3062.24l6.6,6.6L4372.86-256.912l-6.6-6.6m-15.82-15.824L1024.66,3046.42l6.59,6.6L4357.04-272.735l-6.6-6.6m-15.82-15.822L1008.83,3030.6l6.6,6.59L4341.22-288.557l-6.6-6.6m-15.83-15.823L993.009,3014.77l6.6,6.6L4325.39-304.381l-6.6-6.6M4302.97-326.8L977.186,2998.95l6.6,6.6L4309.57-320.2l-6.6-6.6m-15.82-15.824L961.36,2983.13l6.6,6.59L4293.75-336.028l-6.6-6.6m-15.83-15.823L945.538,2967.31l6.6,6.59L4277.92-351.851l-6.6-6.6m-15.82-15.824L929.714,2951.48l6.6,6.6L4262.1-367.675l-6.6-6.6m-15.82-15.823L913.891,2935.66l6.6,6.59L4246.27-383.5l-6.59-6.6m-15.83-15.824L898.067,2919.83l6.6,6.6L4230.45-399.32l-6.6-6.6m-15.82-15.823L882.243,2904.01l6.6,6.6L4214.63-415.146l-6.6-6.6m-15.82-15.823L866.421,2888.19l6.6,6.6L4198.8-430.968l-6.59-6.6m-15.83-15.823L850.6,2872.37l6.6,6.59L4182.98-446.791l-6.6-6.6m-15.82-15.824L834.774,2856.54l6.6,6.6L4167.16-462.615l-6.6-6.6m-15.82-15.822L818.95,2840.72l6.6,6.6L4151.33-478.438l-6.59-6.6m-15.83-15.825L803.126,2824.89l6.6,6.6L4135.51-494.26l-6.6-6.6m-15.82-15.823L787.3,2809.07l6.6,6.6L4119.69-510.084l-6.6-6.6M4097.27-532.5L771.48,2793.25l6.6,6.59L4103.86-525.908l-6.59-6.6m-15.83-15.824L755.657,2777.42l6.6,6.6L4088.04-541.731l-6.6-6.6m-15.82-15.823L739.833,2761.6l6.6,6.6L4072.22-557.555l-6.6-6.6m-15.82-15.823L724.009,2745.78l6.6,6.59L4056.39-573.377l-6.59-6.6M4662.93,8.859L1331.82,3339.94l6.59,6.6L4669.53,15.456l-6.6-6.6m15.83,15.824L1347.64,3355.76l6.6,6.6L4685.36,31.28l-6.6-6.6m15.82,15.824L1363.46,3371.59l6.6,6.59L4701.18,47.1l-6.6-6.6m15.82,15.822L1379.29,3387.41l6.6,6.6L4717,62.927l-6.6-6.6m15.83,15.823L1395.11,3403.23l6.6,6.6L4732.82,78.75l-6.59-6.6m15.82,15.823L1410.93,3419.06l6.6,6.59L4748.65,94.572l-6.6-6.6m15.83,15.824L1426.76,3434.88l6.6,6.6L4764.47,110.4l-6.59-6.6m15.82,15.824L1442.58,3450.7l6.6,6.6L4780.3,126.219l-6.6-6.6m15.82,15.823L1458.41,3466.53l6.59,6.59L4796.12,142.043l-6.6-6.6m15.83,15.823L1474.23,3482.35l6.6,6.6L4811.94,157.866l-6.59-6.6m15.82,15.823L1490.05,3498.17l6.6,6.6L4827.77,173.689l-6.6-6.6m15.82,15.823L1505.88,3514l6.59,6.59L4843.59,189.512l-6.6-6.6m15.83,15.824L1521.7,3529.82l6.6,6.6L4859.41,205.336l-6.59-6.6m15.82,15.823L1537.52,3545.64l6.6,6.6L4875.24,221.159l-6.6-6.6m15.82,15.824L1553.35,3561.47l6.59,6.59L4891.06,236.983l-6.6-6.6m15.83,15.823L1569.17,3577.29l6.6,6.6L4906.88,252.805l-6.59-6.6m15.82,15.822L1584.99,3593.11l6.6,6.6L4922.71,268.63l-6.6-6.6m15.82,15.824L1600.82,3608.94l6.59,6.59L4938.53,284.453l-6.6-6.6m15.83,15.824L1616.64,3624.76l6.6,6.6L4954.35,300.275l-6.59-6.6m15.82,15.823L1632.46,3640.58l6.6,6.6L4970.18,316.1l-6.6-6.6m15.82,15.822L1648.29,3656.41l6.59,6.59L4986,331.922l-6.6-6.6m15.83,15.824L1664.11,3672.23l6.6,6.6L5001.82,347.746l-6.59-6.6m15.82,15.823L1679.93,3688.05l6.6,6.6L5017.65,363.568l-6.6-6.6m15.82,15.824L1695.76,3703.88l6.6,6.59L5033.47,379.393l-6.6-6.6m15.83,15.823L1711.58,3719.7l6.6,6.6L5049.29,395.215l-6.59-6.6m15.82,15.824L1727.41,3735.52l6.59,6.6L5065.12,411.039l-6.6-6.6m15.82,15.823L1743.23,3751.35l6.6,6.59L5080.94,426.862l-6.6-6.6m15.83,15.824L1759.05,3767.17l6.6,6.6L5096.77,442.686l-6.6-6.6m15.82,15.822L1774.88,3782.99l6.59,6.6L5112.59,458.508l-6.6-6.6m15.83,15.824L1790.7,3798.82l6.6,6.59L5128.41,474.331l-6.59-6.6m15.82,15.823L1806.52,3814.64l6.6,6.6L5144.24,490.155l-6.6-6.6m15.82,15.824L1822.35,3830.46l6.59,6.6L5160.06,505.979l-6.6-6.6m15.82,15.823L1838.17,3846.28l6.6,6.6L5175.88,521.8l-6.6-6.6m15.83,15.824L1853.99,3862.11l6.6,6.6L5191.71,537.626l-6.6-6.6m15.82,15.822L1869.82,3877.93l6.59,6.6L5207.53,553.449l-6.6-6.6m15.83,15.823L1885.64,3893.76l6.6,6.59L5223.35,569.273l-6.59-6.6m15.82,15.824L1901.46,3909.58l6.6,6.6L5239.18,585.1l-6.6-6.6m15.82,15.823L1917.29,3925.4l6.59,6.6L5255,600.918l-6.6-6.6M2229.94-2393.54L-1085.53,921.906l6.6,6.6L2236.54-2386.94l-6.6-6.6m-15.82-15.82L-1101.35,906.083l6.59,6.6L2220.72-2402.76l-6.6-6.6m-15.82-15.82L-1117.18,890.259l6.6,6.6L2204.89-2418.59l-6.59-6.59m-15.83-15.83L-1133,874.435l6.59,6.6L2189.07-2434.41l-6.6-6.6m-15.82-15.82L-1148.83,858.612l6.6,6.6L2173.25-2450.23l-6.6-6.6m-15.82-15.82L-1164.65,842.79l6.6,6.6L2157.42-2466.06l-6.59-6.59M2135-2488.48L-1180.47,826.966l6.59,6.6L2141.6-2481.88l-6.6-6.6m-15.82-15.82L-1196.3,811.141l6.6,6.6L2125.78-2497.7l-6.6-6.6m-15.82-15.82L-1212.12,795.319l6.6,6.6L2109.95-2513.53l-6.59-6.59m-15.83-15.83L-1227.94,779.5l6.59,6.6L2094.13-2529.35l-6.6-6.6m-15.82-15.82L-1243.77,763.672l6.6,6.6L2078.31-2545.17l-6.6-6.6m-15.82-15.82L-1259.59,747.85l6.6,6.6L2062.48-2561l-6.59-6.59m-15.83-15.83L-1275.41,732.027l6.59,6.6L2046.66-2576.82l-6.6-6.6m-15.82-15.82L-1291.24,716.2l6.6,6.6L2030.84-2592.64l-6.6-6.6m-15.82-15.82L-1307.06,700.379l6.6,6.6L2015.01-2608.47l-6.59-6.59m-15.83-15.83L-1322.88,684.556l6.59,6.6L1999.19-2624.29l-6.6-6.6m-15.82-15.82L-1338.71,668.732l6.6,6.6L1983.37-2640.11l-6.6-6.6m-15.83-15.82L-1354.53,652.909l6.6,6.6L1967.54-2655.94l-6.6-6.59m-15.82-15.83L-1370.36,637.085l6.6,6.6L1951.72-2671.76l-6.6-6.6m-15.82-15.82L-1386.18,621.263l6.6,6.6L1935.9-2687.58l-6.6-6.6M1913.48-2710L-1402,605.439l6.6,6.6L1920.07-2703.41l-6.59-6.59m-15.83-15.83L-1417.83,589.616l6.6,6.6L1904.25-2719.23l-6.6-6.6m-15.82-15.82L-1433.65,573.793l6.6,6.6L1888.43-2735.05l-6.6-6.6m-15.82-15.82L-1449.47,557.97l6.6,6.6L1872.6-2750.88l-6.59-6.59m-15.83-15.83L-1465.3,542.145l6.6,6.6L1856.78-2766.7l-6.6-6.6m-15.82-15.82L-1481.12,526.322l6.6,6.6L1840.96-2782.52l-6.6-6.6m-15.83-15.82L-1496.94,510.5l6.59,6.6L1825.13-2798.35l-6.6-6.59m-15.82-15.83L-1512.77,494.676l6.6,6.6L1809.31-2814.17l-6.6-6.6m-15.82-15.82L-1528.59,478.853l6.6,6.6L1793.49-2829.99l-6.6-6.6m-15.83-15.82L-1544.41,463.03l6.59,6.6L1777.66-2845.82l-6.6-6.59m-15.82-15.83L-1560.24,447.207l6.6,6.6L1761.84-2861.64l-6.6-6.6m-15.82-15.82L-1576.06,431.384l6.6,6.6L1746.01-2877.46l-6.59-6.6m-15.83-15.82L-1591.88,415.56l6.59,6.6L1730.19-2893.29l-6.6-6.59m-15.82-15.83L-1607.71,399.736l6.6,6.6L1714.37-2909.11l-6.6-6.6m-15.82-15.82L-1623.53,383.913l6.6,6.6L1698.54-2924.93l-6.59-6.6m-15.83-15.82L-1639.35,368.089l6.59,6.6L1682.72-2940.76l-6.6-6.59m-15.82-15.83L-1655.18,352.266l6.6,6.6L1666.9-2956.58l-6.6-6.6M1644.48-2979L-1671,336.444l6.6,6.6L1651.07-2972.4l-6.59-6.6m596.33,605.64L-1063.19,930.6l6.6,6.6,3304-3303.961-6.6-6.6m15.82,15.82-3304,3303.967,6.6,6.6,3304-3303.964-6.6-6.6m15.83,15.82L-1031.55,962.251l6.6,6.6,3304-3303.969-6.59-6.6m15.82,15.83-3304,3303.965,6.6,6.6,3304-3303.971-6.6-6.59m15.82,15.82L-999.9,993.9l6.6,6.592,3304-3303.96-6.6-6.6m15.83,15.83-3304,3303.96,6.6,6.6L2326.53-2287.65l-6.6-6.59m15.82,15.82-3304,3303.97,6.6,6.59,3304-3303.96-6.6-6.6m15.82,15.82-3304,3303.97,6.6,6.6L2358.17-2256l-6.6-6.6m15.83,15.83-3304,3303.96,6.6,6.6,3304-3303.97-6.59-6.59m15.82,15.82-3304,3303.96,6.6,6.6,3304-3303.96-6.6-6.6m15.83,15.82L-904.957,1088.84l6.6,6.59,3304-3303.96-6.59-6.6m15.82,15.82-3304,3303.97,6.6,6.6,3304-3303.97-6.59-6.6m15.82,15.83-3304,3303.96,6.6,6.6,3304-3303.96-6.6-6.6m15.83,15.82L-857.486,1136.31l6.6,6.6,3304-3303.97-6.59-6.6m15.82,15.83-3304,3303.96,6.6,6.6L2468.94-2145.24l-6.6-6.59m15.82,15.82-3304,3303.96,6.6,6.6,3304-3303.97-6.6-6.59m15.83,15.82-3304,3303.97,6.6,6.59,3304-3303.96-6.59-6.6m15.82,15.83-3304,3303.96,6.6,6.6L2516.41-2097.77l-6.6-6.59m15.82,15.82-3304,3303.97,6.6,6.59,3304-3303.96-6.6-6.6m15.83,15.82L-762.546,1231.25l6.6,6.59,3304-3303.96-6.59-6.6m15.82,15.82-3304,3303.97,6.6,6.6L2563.88-2050.3l-6.6-6.6m15.82,15.83-3304,3303.96,6.6,6.6,3304-3303.97-6.6-6.59m15.83,15.82L-715.076,1278.72l6.6,6.59,3304-3303.96-6.59-6.6m15.82,15.82-3304,3303.97,6.6,6.6L2611.35-2002.83l-6.6-6.6m15.82,15.83-3304,3303.96,6.6,6.6,3304-3303.97-6.6-6.59m15.83,15.82-3304,3303.97,6.6,6.6,3304-3303.97-6.59-6.6m15.82,15.83-3304,3303.96,6.6,6.6,3304-3303.97-6.6-6.59m15.82,15.82-3304,3303.96,6.6,6.6,3304-3303.96-6.6-6.6m15.83,15.82-3304,3303.97,6.6,6.59,3304-3303.96-6.59-6.6m15.82,15.82-3304,3303.97,6.6,6.6,3304-3303.97-6.6-6.6m15.82,15.83-3304,3303.96,6.6,6.6,3304-3303.97-6.6-6.59m15.83,15.82-3304,3303.97,6.6,6.59,3304-3303.96-6.59-6.6m15.82,15.83-3304,3303.96,6.6,6.6,3304-3303.97-6.6-6.59m15.83,15.82L-541.018,1452.77l6.6,6.6,3304-3303.96-6.59-6.6m15.82,15.82-3304,3303.97,6.6,6.59L2785.41-1828.77l-6.6-6.6m15.82,15.82-3304,3303.97,6.6,6.6,3304-3303.97-6.6-6.6m15.83,15.83L-493.547,1500.24l6.6,6.6,3304-3303.97-6.59-6.59m15.82,15.82-3304,3303.97,6.6,6.59L2832.88-1781.3l-6.6-6.6"/>
</svg>
