<svg width="38" height="38" fill="none" xmlns="http://www.w3.org/2000/svg"><path d="M37.311 33.916h-.003l-2.776-22.933a.618.618 0 00-.618-.539h-6.836V8.611c0-4.388-3.617-7.944-8.08-7.944-4.462 0-8.079 3.556-8.079 7.944v1.833H4.083a.618.618 0 00-.618.54L.69 33.915c-.203 1.676 1.014 3.196 2.718 3.396.122.014.245.021.368.021h30.45c1.716 0 3.108-1.367 3.108-3.055 0-.12-.007-.242-.022-.362zM12.162 8.611c0-3.713 3.06-6.722 6.836-6.722 3.776 0 6.837 3.01 6.837 6.722v1.833H12.162V8.611zm23.455 26.884c-.354.391-.86.615-1.392.616H3.775c-1.03 0-1.865-.82-1.865-1.833 0-.072.004-.145.013-.217l2.711-22.395h6.285v4.278c0 .338.278.611.621.611a.616.616 0 00.622-.61v-4.279h13.673v4.278c0 .338.278.611.621.611a.616.616 0 00.622-.61v-4.279h6.284l2.712 22.395a1.813 1.813 0 01-.457 1.434z" fill="#000"/></svg>