<svg width="105" height="121" viewBox="0 0 105 121" fill="none" xmlns="http://www.w3.org/2000/svg">
<path d="M96.8969 46.5375L25.4311 2.4847C20.2607 -0.698409 14.0096 -0.830753 8.70895 2.13068C3.40834 5.09164 0.243896 10.4849 0.243896 16.5564V104.261C0.243896 113.441 7.64098 120.95 16.7325 121C16.7574 121 16.7822 121 16.8065 121C19.6477 121 22.6084 120.109 25.3737 118.422C27.5982 117.065 28.3013 114.161 26.9441 111.937C25.5868 109.712 22.6828 109.009 20.459 110.366C19.1655 111.155 17.9024 111.563 16.7834 111.563C13.353 111.544 9.68026 108.606 9.68026 104.261V16.5566C9.68026 13.9521 11.0377 11.6391 13.3112 10.3689C15.5849 9.09859 18.2661 9.15531 20.4812 10.5192L91.9472 54.572C94.0952 55.8945 95.3243 58.0997 95.3191 60.6222C95.3139 63.1446 94.0758 65.3448 91.916 66.6628L40.2458 98.2996C38.0234 99.6604 37.3248 102.565 38.6856 104.787C40.0461 107.01 42.9508 107.708 45.1733 106.348L96.8373 74.7145C101.784 71.6968 104.744 66.4361 104.756 60.6411C104.768 54.8468 101.829 49.5739 96.8969 46.5375Z" fill="white"/>
</svg>
