<svg width="17" height="17" viewBox="0 0 17 17" fill="none" xmlns="http://www.w3.org/2000/svg">
<path d="M8.88935 8.49804L16.9197 0.467653C17.0268 0.360601 17.0268 0.187071 16.9197 0.080019C16.8127 -0.0269985 16.6392 -0.0269985 16.5321 0.080019L8.50171 8.11041L0.471323 0.080019C0.362421 -0.0251481 0.18889 -0.0221325 0.0836885 0.0867697C-0.0189085 0.192999 -0.0189085 0.361424 0.0836885 0.467653L8.11408 8.49804L0.0836885 16.5284C-0.0252137 16.6336 -0.0282292 16.8072 0.0769721 16.9161C0.182173 17.025 0.355704 17.028 0.464606 16.9228C0.466902 16.9206 0.46913 16.9183 0.471323 16.9161L8.50171 8.88568L16.5321 16.9161C16.641 17.0213 16.8145 17.0183 16.9197 16.9093C17.0224 16.8031 17.0224 16.6347 16.9197 16.5284L8.88935 8.49804Z" fill="white"/>
</svg>
