<svg width="10" height="10" viewBox="0 0 10 10" fill="none" xmlns="http://www.w3.org/2000/svg">
<g clip-path="url(#clip0)">
<path d="M1.49169 8.83167H7.43294L7.14919 7.91292L7.82794 8.49542L8.45002 9.05292L9.58335 10V1.03125C9.55502 0.47375 9.07502 0 8.48002 0L1.49377 0.00125C0.899187 0.00125 0.416687 0.475833 0.416687 1.03333V7.8C0.416687 8.38792 0.898354 8.83167 1.49169 8.83167ZM5.88669 2.36792L5.87294 2.37292L5.87794 2.36792H5.88669ZM2.7071 2.89667C3.47085 2.34083 4.17877 2.3675 4.17877 2.3675L4.23585 2.42375C3.30127 2.64667 2.87752 3.06417 2.87752 3.06417C2.87752 3.06417 2.99085 3.00875 3.18877 2.92417C4.44752 2.42917 5.8221 2.465 7.0946 3.09167C7.0946 3.09167 6.67002 2.70125 5.79294 2.45125L5.87044 2.375C5.99169 2.37542 6.63335 2.39792 7.32002 2.9C7.32002 2.9 8.08836 4.2125 8.08836 5.825C8.06294 5.79417 7.61169 6.51917 6.45044 6.54417C6.45044 6.54417 6.25377 6.32167 6.11377 6.1275C6.79294 5.9325 7.0471 5.5425 7.0471 5.5425C6.82419 5.68292 6.62085 5.76625 6.45585 5.84958C6.2021 5.96125 5.94794 6.01625 5.69419 6.0725C4.49252 6.2675 3.81794 5.94125 3.18044 5.6825L2.96252 5.57167C2.96252 5.57167 3.21627 5.96167 3.86835 6.15667C3.6971 6.35208 3.52752 6.57417 3.52752 6.57417C2.36669 6.54667 1.94335 5.82167 1.94335 5.82167C1.94335 4.20667 2.7071 2.89667 2.7071 2.89667Z" fill="white"/>
<path d="M5.96169 5.32113C6.25794 5.32113 6.49919 5.07113 6.49919 4.7628C6.49919 4.45654 6.25919 4.20654 5.96169 4.20654V4.20779C5.66669 4.20779 5.42503 4.45696 5.42419 4.7653C5.42419 5.07113 5.66544 5.32113 5.96169 5.32113Z" fill="white"/>
<path d="M4.0375 5.32113C4.33375 5.32113 4.575 5.07113 4.575 4.7628C4.575 4.45654 4.33542 4.20654 4.03917 4.20654L4.0375 4.20779C3.74125 4.20779 3.5 4.45696 3.5 4.7653C3.5 5.07113 3.74125 5.32113 4.0375 5.32113Z" fill="white"/>
</g>
<defs>
<clipPath id="clip0">
<rect width="10" height="10" fill="white"/>
</clipPath>
</defs>
</svg>
