<svg width="63" height="63" viewBox="0 0 63 63" fill="none" xmlns="http://www.w3.org/2000/svg">
<path d="M62.7667 30.7545C62.2706 30.0325 50.3476 13.1246 31.4999 13.1246C15.327 13.1246 0.915483 29.9354 0.309098 30.6521C-0.102992 31.1403 -0.102992 31.857 0.309098 32.3478C0.915483 33.0644 15.327 49.8753 31.4999 49.8753C47.6728 49.8753 62.0841 33.0644 62.6905 32.3478C63.0712 31.8963 63.1053 31.2427 62.7667 30.7545ZM31.4999 47.2503C18.5348 47.2503 6.20756 34.8863 3.07597 31.5C6.2024 28.1111 18.5165 15.7498 31.4999 15.7498C46.6699 15.7498 57.3775 28.0954 59.9921 31.4291C56.9732 34.7078 44.5752 47.2503 31.4999 47.2503Z" fill="white"/>
<path d="M31.4999 20.9998C25.7091 20.9998 20.9998 25.7091 20.9998 31.4999C20.9998 37.2907 25.7091 42 31.4999 42C37.2907 42 42 37.2907 42 31.4999C42 25.7091 37.2907 20.9998 31.4999 20.9998ZM31.4999 39.3751C27.1581 39.3751 23.6248 35.8418 23.6248 31.5C23.6248 27.1582 27.1581 23.6249 31.4999 23.6249C35.8417 23.6249 39.375 27.1582 39.375 31.5C39.375 35.8418 35.8417 39.3751 31.4999 39.3751Z" fill="white"/>
</svg>
