<svg width="19" height="19" viewBox="0 0 19 19" fill="none" xmlns="http://www.w3.org/2000/svg">
<g opacity="0.5" clip-path="url(#clip0)">
<path d="M14.8438 19H4.15625C3.17458 19 2.375 18.2012 2.375 17.2188V8.90625C2.375 7.92379 3.17458 7.125 4.15625 7.125H14.8438C15.8254 7.125 16.625 7.92379 16.625 8.90625V17.2188C16.625 18.2012 15.8254 19 14.8438 19ZM4.15625 8.3125C3.82929 8.3125 3.5625 8.5785 3.5625 8.90625V17.2188C3.5625 17.5465 3.82929 17.8125 4.15625 17.8125H14.8438C15.1707 17.8125 15.4375 17.5465 15.4375 17.2188V8.90625C15.4375 8.5785 15.1707 8.3125 14.8438 8.3125H4.15625Z" fill="white"/>
<path d="M13.6562 8.31249C13.3285 8.31249 13.0625 8.04649 13.0625 7.71874V4.75C13.0625 2.78587 11.4641 1.1875 9.5 1.1875C7.53588 1.1875 5.9375 2.78587 5.9375 4.75V7.71874C5.9375 8.04649 5.6715 8.31249 5.34375 8.31249C5.016 8.31249 4.75 8.04649 4.75 7.71874V4.75C4.75 2.13037 6.88038 0 9.5 0C12.1196 0 14.25 2.13037 14.25 4.75V7.71874C14.25 8.04649 13.984 8.31249 13.6562 8.31249Z" fill="white"/>
<path d="M9.50032 13.4583C8.62712 13.4583 7.91699 12.7482 7.91699 11.875C7.91699 11.0017 8.62712 10.2916 9.50032 10.2916C10.3735 10.2916 11.0837 11.0017 11.0837 11.875C11.0837 12.7482 10.3735 13.4583 9.50032 13.4583ZM9.50032 11.4791C9.28261 11.4791 9.10449 11.6565 9.10449 11.875C9.10449 12.0935 9.28261 12.2708 9.50032 12.2708C9.71803 12.2708 9.89615 12.0935 9.89615 11.875C9.89615 11.6565 9.71803 11.4791 9.50032 11.4791Z" fill="white"/>
<path d="M9.5 15.8333C9.17225 15.8333 8.90625 15.5673 8.90625 15.2396V13.0625C8.90625 12.7347 9.17225 12.4688 9.5 12.4688C9.82775 12.4688 10.0938 12.7347 10.0938 13.0625V15.2396C10.0938 15.5673 9.82775 15.8333 9.5 15.8333Z" fill="white"/>
</g>
<defs>
<clipPath id="clip0">
<rect width="19" height="19" fill="white"/>
</clipPath>
</defs>
</svg>
