<svg width="200" height="66" viewBox="0 0 200 66" fill="none" xmlns="http://www.w3.org/2000/svg">
<path d="M71.761 10.3653C71.2 9.79498 70.5829 9.34151 69.9097 9.00491C69.2365 8.66831 68.5008 13.2001 67.6499 13.2001C66.8645 13.2001 66.0949 8.65428 65.3936 8.96283C64.7017 9.26203 64.0987 9.67811 63.5844 10.2111C63.0701 10.7347 62.6634 11.3471 62.3642 12.0483C62.065 12.7402 61.9154 13.4789 61.9154 14.2643C61.9154 15.0497 62.065 15.793 62.3642 16.4943C62.6634 17.1861 63.0701 17.794 63.5844 18.3175C64.108 18.8411 64.7158 19.2572 65.4076 19.5657C66.0995 19.8649 66.8382 20.0145 67.6236 20.0145C68.1285 20.0145 68.5867 19.9584 68.998 19.8462C69.4188 19.7246 69.8115 19.5611 70.1761 19.3554C70.5408 19.1496 70.8868 18.916 71.214 18.6541C71.5412 18.383 71.8732 18.0977 72.2098 17.7986C72.3407 17.7144 72.4856 17.6489 72.6445 17.6022C72.8128 17.5461 72.9811 17.5181 73.1494 17.5181C73.3177 17.5181 73.4814 17.5415 73.6403 17.5882C73.7993 17.6349 73.9489 17.7144 74.0891 17.8266C74.2949 17.9575 74.4584 18.1306 74.58 18.3456C74.7016 18.5606 74.7623 18.7944 74.7623 19.0468C74.7623 19.2618 74.7202 19.4722 74.6361 19.6779C74.5614 19.8837 74.4351 20.0753 74.2574 20.253C73.7899 20.7765 73.3177 21.2301 72.8409 21.6134C72.3734 21.9874 71.8732 22.296 71.3402 22.539C70.8166 22.7821 70.2509 22.9644 69.6432 23.086C69.0355 23.1982 68.3623 23.2543 67.6236 23.2543C66.38 23.2543 65.3455 23.0065 64.2516 22.539C63.1576 22.0622 62.065 21.4311 61.2422 20.6176C60.4288 19.7948 59.7836 18.8364 59.3068 17.7425C58.8393 16.6485 58.6055 15.4798 58.6055 14.2362C58.6055 13.4134 58.713 12.6187 58.9281 11.852C59.1431 11.0853 59.447 10.37 59.8397 9.70616C60.2324 9.03296 60.6999 8.42521 61.2422 7.88291C61.7939 7.33126 62.4016 6.85908 63.0655 6.46638C63.7387 6.07368 64.4586 5.7698 65.2253 5.55476C65.992 5.33971 66.7915 5.23218 67.6236 5.23218C68.2687 5.23218 68.8765 5.28361 69.4468 5.38646C70.0265 5.47996 70.5735 5.63891 71.0878 5.86331C71.6114 6.07835 72.1116 6.36354 72.5884 6.71883C73.0747 7.07413 73.5515 7.50423 74.019 8.00913C74.3275 8.34573 74.4912 8.7431 74.5099 9.20126C74.5193 9.40696 74.4772 9.61734 74.3836 9.83238C74.2995 10.0474 74.1639 10.2344 73.9769 10.3934C73.846 10.5149 73.6964 10.6131 73.5281 10.6879C73.3598 10.7627 73.1775 10.8048 72.9811 10.8141C72.7942 10.8235 72.5931 10.7954 72.3781 10.73C72.1724 10.6552 71.9667 10.5336 71.761 10.3653ZM87.1245 15.9894L90.4484 20.6457C90.5886 20.814 90.6868 21.0009 90.7429 21.2067C90.799 21.4124 90.813 21.618 90.785 21.8238C90.7663 22.0201 90.7008 22.2165 90.5886 22.4128C90.4858 22.5998 90.341 22.7634 90.1539 22.9037C89.9669 23.0439 89.7706 23.1375 89.5648 23.1842C89.3685 23.2403 89.1675 23.2543 88.9617 23.2263C88.7561 23.1982 88.5598 23.1327 88.3727 23.0299C88.1951 22.9177 88.0361 22.7728 87.8958 22.5951L84.3335 17.1534L87.1245 15.9894ZM90.771 11.9221C90.771 12.8852 90.5746 13.7687 90.1819 14.5728C89.7986 15.3769 89.2797 16.0735 88.6251 16.6626C87.9707 17.2422 87.2086 17.6958 86.3391 18.023C85.4695 18.3502 84.5533 18.5139 83.5902 18.5139H80.7711V21.5853C80.7711 21.8191 80.7291 22.0387 80.6449 22.2445C80.5608 22.4409 80.4439 22.6138 80.2943 22.7634C80.1448 22.9131 79.9671 23.0299 79.7613 23.1141C79.565 23.1982 79.35 23.2403 79.1162 23.2403C78.8825 23.2403 78.6628 23.1982 78.457 23.1141C78.2607 23.0299 78.0877 22.9131 77.9381 22.7634C77.7978 22.6138 77.6856 22.4409 77.6015 22.2445C77.5173 22.0387 77.4753 21.8191 77.4753 21.5853V6.85908C77.466 6.67209 77.438 6.48976 77.3911 6.31211C77.3444 6.12511 77.321 5.94746 77.321 5.77916C77.321 5.67631 77.335 5.58281 77.3631 5.49866C77.4005 5.41451 77.4612 5.34438 77.5454 5.28828C77.6295 5.23218 77.7465 5.19011 77.896 5.16206C78.0457 5.12465 78.2374 5.10596 78.471 5.10596H83.5902C84.5533 5.10596 85.4695 5.28361 86.3391 5.63891C87.2086 5.98486 87.9707 6.46171 88.6251 7.06946C89.2797 7.6772 89.7986 8.39716 90.1819 9.22931C90.5746 10.0615 90.771 10.9591 90.771 11.9221ZM87.5312 12.0063C87.5312 11.464 87.4284 10.9591 87.2226 10.4916C87.017 10.0147 86.7318 9.59863 86.3671 9.24333C86.0119 8.88804 85.5957 8.60754 85.1189 8.40183C84.642 8.19613 84.1325 8.09328 83.5902 8.09328H80.715V15.6387H83.5902C84.1325 15.6387 84.642 15.5546 85.1189 15.3863C85.5957 15.2086 86.0119 14.9609 86.3671 14.643C86.7318 14.3251 87.017 13.9464 87.2226 13.5069C87.4284 13.0581 87.5312 12.5579 87.5312 12.0063ZM92.2984 14.2222C92.2984 13.3994 92.4059 12.6047 92.6209 11.838C92.8361 11.0713 93.1399 10.356 93.5326 9.69213C93.9253 9.01893 94.3929 8.41119 94.9351 7.86888C95.4868 7.31724 96.0945 6.84506 96.7583 6.45236C97.4315 6.05966 98.1516 5.75578 98.9182 5.54073C99.6849 5.32569 100.484 5.21816 101.316 5.21816C102.139 5.21816 102.934 5.32569 103.701 5.54073C104.467 5.75578 105.183 6.05966 105.847 6.45236C106.52 6.84506 107.128 7.31724 107.67 7.86888C108.222 8.41119 108.694 9.01893 109.086 9.69213C109.479 10.356 109.783 11.0713 109.998 11.838C110.213 12.6047 110.32 13.3994 110.32 14.2222C110.32 15.0544 110.213 15.8538 109.998 16.6205C109.783 17.3872 109.479 18.1071 109.086 18.7803C108.694 19.4441 108.222 20.052 107.67 20.6036C107.128 21.1459 106.52 21.6134 105.847 22.0061C105.183 22.3988 104.467 22.7027 103.701 22.9177C102.934 23.1327 102.139 23.2403 101.316 23.2403C100.073 23.2403 98.9041 23.0065 97.8102 22.539C96.7162 22.0622 95.7579 21.417 94.9351 20.6036C94.1216 19.7807 93.4765 18.8224 92.9996 17.7285C92.5322 16.6345 92.2984 15.4658 92.2984 14.2222ZM95.6083 14.2503C95.6083 15.0357 95.7579 15.779 96.0571 16.4802C96.3564 17.1721 96.7631 17.7799 97.2772 18.3035C97.7915 18.827 98.3946 19.2432 99.0865 19.5517C99.7877 19.8509 100.531 20.0005 101.316 20.0005C102.102 20.0005 102.841 19.8509 103.532 19.5517C104.224 19.2432 104.827 18.827 105.342 18.3035C105.865 17.7705 106.277 17.1534 106.576 16.4522C106.875 15.7509 107.025 15.0076 107.025 14.2222C107.025 13.4368 106.875 12.6982 106.576 12.0063C106.277 11.3144 105.865 10.7066 105.342 10.183C104.827 9.65941 104.224 9.248 103.532 8.94881C102.841 8.64026 102.102 8.48598 101.316 8.48598C100.531 8.48598 99.7877 8.64026 99.0865 8.94881C98.3946 9.248 97.7915 9.66408 97.2772 10.197C96.7631 10.7206 96.3564 11.3331 96.0571 12.0343C95.7579 12.7262 95.6083 13.4649 95.6083 14.2503ZM133.514 5.11998C133.823 5.11998 134.117 5.14803 134.398 5.20413C134.678 5.26023 134.921 5.36308 135.127 5.51268C135.333 5.65293 135.496 5.84928 135.618 6.10173C135.749 6.35418 135.814 6.68143 135.814 7.08348V12.7356L143.921 5.75111C144.192 5.50801 144.472 5.35374 144.762 5.28828C145.052 5.21349 145.332 5.21816 145.604 5.30231C145.716 5.33036 145.828 5.37243 145.94 5.42853C146.052 5.47528 146.16 5.54073 146.263 5.62488C146.366 5.69968 146.454 5.78851 146.529 5.89136C146.613 5.9942 146.669 6.1064 146.698 6.22796C146.828 6.59261 146.847 6.95726 146.754 7.32191C146.66 7.68656 146.45 7.99978 146.123 8.26158L141.172 12.2587L146.529 20.5475C146.754 20.9027 146.87 21.2113 146.88 21.4731C146.899 21.7256 146.847 22.0015 146.726 22.3006C146.613 22.5717 146.426 22.8009 146.165 22.9878C145.903 23.1748 145.59 23.2683 145.225 23.2683C144.926 23.2683 144.645 23.1936 144.383 23.0439C144.131 22.885 143.883 22.6092 143.64 22.2165L138.675 14.1942L135.8 16.5924L135.814 21.2628C135.814 21.5433 135.777 21.8051 135.702 22.0482C135.627 22.2912 135.52 22.5016 135.379 22.6793C135.239 22.8476 135.066 22.9832 134.86 23.086C134.655 23.1888 134.421 23.2403 134.159 23.2403C133.626 23.2403 133.22 23.058 132.939 22.6933C132.659 22.3193 132.518 21.8472 132.518 21.2768V6.87311C132.509 6.68611 132.481 6.50379 132.434 6.32613C132.387 6.13914 132.364 5.96148 132.364 5.79318C132.364 5.69034 132.378 5.59683 132.406 5.51268C132.444 5.42853 132.504 5.35841 132.588 5.30231C132.673 5.24621 132.789 5.20413 132.939 5.17608C133.089 5.13868 133.28 5.11998 133.514 5.11998ZM162.504 21.5853C162.504 21.8284 162.457 22.0528 162.364 22.2585C162.27 22.4643 162.144 22.6418 161.985 22.7915C161.826 22.9317 161.639 23.0393 161.424 23.1141C161.209 23.1982 160.98 23.2403 160.737 23.2403H151.326C150.737 23.2403 150.279 23.0674 149.952 22.7214C149.624 22.3661 149.461 21.8985 149.461 21.3189V7.05543C149.452 6.86844 149.419 6.67676 149.363 6.48041C149.316 6.2747 149.293 6.07835 149.293 5.89136C149.293 5.68565 149.363 5.52204 149.503 5.40048C149.643 5.26959 149.924 5.20413 150.345 5.20413H160.779C161.144 5.20413 161.448 5.28361 161.691 5.44256C161.943 5.59216 162.13 5.78383 162.252 6.01758C162.383 6.25134 162.448 6.50846 162.448 6.78896C162.448 7.0601 162.387 7.31255 162.266 7.54631C162.144 7.78006 161.962 7.97641 161.719 8.13536C161.476 8.28496 161.167 8.35976 160.793 8.35976H152.757V12.6795H158.998C159.25 12.6795 159.489 12.7402 159.713 12.8618C159.938 12.974 160.12 13.1236 160.26 13.3106C160.41 13.4976 160.508 13.7126 160.555 13.9557C160.611 14.1988 160.592 14.4513 160.499 14.7131C160.386 15.0403 160.199 15.2975 159.938 15.4845C159.676 15.6621 159.367 15.7509 159.012 15.7509H152.757V19.9304H160.709C160.952 19.9304 161.181 19.9678 161.396 20.0426C161.621 20.1173 161.812 20.2249 161.971 20.3652C162.14 20.5054 162.27 20.6783 162.364 20.8841C162.457 21.0898 162.504 21.3235 162.504 21.5853ZM167.158 23.2403C168.3 24.7501 165.825 26.4001 165.825 28.8751C165 28.8751 165.081 22.31 165.006 21.936C164.988 21.8799 164.978 21.8238 164.978 21.7677C164.978 21.7116 164.978 21.6508 164.978 21.5853V6.95726C164.969 6.77026 164.941 6.58794 164.894 6.41028C164.848 6.22329 164.824 6.04563 164.824 5.87733C164.824 5.77449 164.838 5.68098 164.866 5.59683C164.904 5.51268 164.964 5.44256 165.049 5.38646C165.133 5.33036 165.25 5.28828 165.399 5.26023C165.549 5.22283 165.741 5.20413 165.974 5.20413H170.967C171.79 5.20413 172.585 5.31166 173.351 5.52671C174.118 5.74175 174.833 6.04563 175.497 6.43833C176.17 6.83103 176.783 7.30321 177.334 7.85486C177.886 8.4065 178.358 9.01893 178.751 9.69213C179.153 10.356 179.462 11.0713 179.677 11.838C179.892 12.6047 179.999 13.3994 179.999 14.2222C179.999 15.0544 179.892 15.8538 179.677 16.6205C179.462 17.3872 179.153 18.1071 178.751 18.7803C178.358 19.4441 177.886 20.052 177.334 20.6036C176.783 21.1459 176.17 21.6134 175.497 22.0061C174.833 22.3988 174.118 22.7027 173.351 22.9177C172.585 23.1327 171.79 23.2403 170.967 23.2403H167.158ZM176.689 14.2222C176.689 13.3807 176.535 12.6047 176.226 11.8941C175.927 11.1741 175.516 10.5523 174.992 10.0287C174.478 9.50514 173.875 9.09373 173.183 8.79453C172.491 8.49534 171.752 8.34106 170.967 8.33171H168.274V19.9865H170.967C171.752 19.9678 172.491 19.8088 173.183 19.5096C173.875 19.2105 174.478 18.8084 174.992 18.3035C175.516 17.7892 175.927 17.1861 176.226 16.4943C176.535 15.793 176.689 15.0357 176.689 14.2222Z" fill="url(#paint0_linear)"/>
<path fill-rule="evenodd" clip-rule="evenodd" d="M127.826 7.35672C125.557 5.296 124.638 3.29316 124.809 1.26717C124.829 1.04814 124.788 0.827718 124.69 0.63172C124.592 0.435722 124.441 0.272249 124.256 0.160483C124.07 0.0487182 123.857 -0.00671567 123.641 0.000649091C123.426 0.00801384 123.217 0.0779074 123.039 0.202103C122.276 0.746571 121.559 1.35446 120.895 2.01963C119.839 2.94122 119.054 4.14338 118.626 5.49276C118.56 5.7734 118.526 6.0609 118.524 6.34952C118.524 6.65656 118.644 6.95101 118.856 7.16812C119.069 7.38524 119.358 7.50722 119.659 7.50722C119.959 7.50722 120.248 7.38524 120.461 7.16812C120.673 6.95101 120.793 6.65656 120.793 6.34952C120.78 6.23798 120.78 6.12529 120.793 6.01374C121.117 5.09214 121.668 4.27097 122.392 3.62887L122.619 3.40891C123.211 5.59814 124.451 7.54722 126.17 8.98904C127.062 9.91587 127.682 11.0795 127.958 12.3478C128.235 13.616 128.158 14.938 127.735 16.1637C127.312 17.3893 126.561 18.4693 125.567 19.2811C124.573 20.0928 123.376 20.6037 122.111 20.7557C120.847 20.9078 119.566 20.6949 118.414 20.1413C117.263 19.5875 116.286 18.7152 115.596 17.6235C114.906 16.5318 114.529 15.2642 114.509 13.9651C114.49 12.666 114.827 11.3872 115.484 10.2741C116.053 11.3926 116.835 12.3843 117.783 13.1913C118.732 13.9982 119.828 14.6043 121.008 14.9743C121.3 15.0512 121.61 15.0065 121.87 14.8501C122.129 14.6938 122.317 14.4387 122.392 14.1408C122.468 13.8431 122.424 13.527 122.271 13.2621C122.117 12.9972 121.867 12.8052 121.576 12.7284C119.522 12.138 117.9 10.4825 116.698 7.64614C116.624 7.47386 116.51 7.32248 116.366 7.20515C116.222 7.08781 116.053 7.00801 115.872 6.97267C115.691 6.93734 115.504 6.94756 115.328 7.00235C115.151 7.05715 114.991 7.15494 114.86 7.28725C113.59 8.58228 112.725 10.2325 112.375 12.0292C112.024 13.826 112.204 15.6885 112.89 17.3812C113.577 19.0739 114.74 20.5208 116.233 21.5387C117.725 22.5566 119.48 23.1 121.275 23.1C123.07 23.1 124.825 22.5566 126.317 21.5387C127.81 20.5208 128.973 19.0739 129.66 17.3812C130.346 15.6885 130.526 13.826 130.175 12.0292C129.825 10.2325 128.96 8.58228 127.69 7.28725L127.826 7.35672Z" fill="url(#paint1_linear)"/>
<path d="M65.7022 41.5042C65.9453 41.5042 66.1603 41.5556 66.3473 41.6584C66.5343 41.7612 66.6979 41.8969 66.8382 42.0652C66.9878 42.224 67.114 42.4064 67.2169 42.6121C67.3291 42.8179 67.4319 43.0283 67.5254 43.2433L73.1494 57.2823C73.1962 57.3851 73.2289 57.4973 73.2476 57.6189C73.2663 57.7311 73.2757 57.8387 73.2757 57.9415C73.2757 58.1845 73.2149 58.4183 73.0933 58.6427C72.9811 58.8577 72.8175 59.0308 72.6025 59.1616C72.3968 59.3393 72.163 59.4515 71.9012 59.4982C71.6488 59.5543 71.401 59.5449 71.1579 59.4702C70.9148 59.4047 70.6904 59.2832 70.4847 59.1055C70.279 58.9278 70.1247 58.6988 70.0219 58.4183L69.0121 55.8938H62.4764L61.4386 58.4323C61.2609 58.8531 61.0272 59.157 60.7373 59.344C60.4475 59.5217 60.1156 59.5964 59.7415 59.5684C59.4985 59.559 59.274 59.5028 59.0683 59.4001C58.8626 59.2879 58.6897 59.143 58.5494 58.9653C58.4092 58.7783 58.311 58.5632 58.2549 58.3201C58.1988 58.0771 58.2035 57.8198 58.2689 57.5488C58.3437 57.3149 58.4232 57.0906 58.5073 56.8756C58.5915 56.6512 58.6756 56.4268 58.7598 56.2024L63.9911 43.117C64.0379 42.9954 64.0659 42.874 64.0753 42.7524C64.094 42.6308 64.1127 42.5093 64.1314 42.3877C64.1594 42.2661 64.2015 42.1539 64.2576 42.0511C64.3137 41.9389 64.3978 41.8454 64.51 41.7706C64.6222 41.6865 64.7719 41.621 64.9588 41.5743C65.1552 41.5276 65.403 41.5042 65.7022 41.5042ZM63.1917 53.2431H68.2968L65.7442 46.7215L63.1917 53.2431ZM85.3987 52.2894L88.7226 56.9457C88.8629 57.114 88.9611 57.3009 89.0172 57.5067C89.0733 57.7124 89.0873 57.918 89.0592 58.1238C89.0406 58.3201 88.9751 58.5165 88.8629 58.7128C88.7601 58.8998 88.6152 59.0635 88.4281 59.2037C88.2412 59.344 88.0448 59.4375 87.8391 59.4842C87.6427 59.5403 87.4417 59.5543 87.236 59.5263C87.0304 59.4982 86.8341 59.4327 86.6469 59.3299C86.4694 59.2177 86.3103 59.0729 86.1701 58.8952L82.6077 53.4535L85.3987 52.2894ZM89.0452 48.2221C89.0452 49.1852 88.8489 50.0688 88.4562 50.8729C88.0729 51.6769 87.5539 52.3735 86.8994 52.9626C86.245 53.5422 85.4829 53.9958 84.6133 54.323C83.7438 54.6502 82.8275 54.8139 81.8644 54.8139H79.0454V57.8854C79.0454 58.1192 79.0033 58.3388 78.9192 58.5445C78.835 58.7409 78.7182 58.9138 78.5685 59.0635C78.4191 59.2131 78.2413 59.3299 78.0356 59.4141C77.8392 59.4982 77.6242 59.5403 77.3904 59.5403C77.1568 59.5403 76.937 59.4982 76.7313 59.4141C76.5349 59.3299 76.362 59.2131 76.2123 59.0635C76.0721 58.9138 75.9599 58.7409 75.8757 58.5445C75.7916 58.3388 75.7495 58.1192 75.7495 57.8854V43.1591C75.7403 42.9722 75.7122 42.7898 75.6654 42.6121C75.6187 42.4252 75.5952 42.2475 75.5952 42.0792C75.5952 41.9764 75.6093 41.8828 75.6373 41.7987C75.6748 41.7145 75.7355 41.6444 75.8196 41.5883C75.9038 41.5322 76.0208 41.4901 76.1703 41.4621C76.3199 41.4246 76.5117 41.406 76.7453 41.406H81.8644C82.8275 41.406 83.7438 41.5837 84.6133 41.9389C85.4829 42.2849 86.245 42.7618 86.8994 43.3695C87.5539 43.9772 88.0729 44.6972 88.4562 45.5293C88.8489 46.3614 89.0452 47.259 89.0452 48.2221ZM85.8054 48.3063C85.8054 47.7639 85.7026 47.259 85.4969 46.7916C85.2913 46.3147 85.006 45.8986 84.6414 45.5434C84.2861 45.1881 83.87 44.9076 83.3931 44.7019C82.9163 44.4961 82.4068 44.3933 81.8644 44.3933H78.9893V51.9388H81.8644C82.4068 51.9388 82.9163 51.8546 83.3931 51.6863C83.87 51.5086 84.2861 51.2609 84.6414 50.943C85.006 50.625 85.2913 50.2464 85.4969 49.807C85.7026 49.3582 85.8054 48.8579 85.8054 48.3063ZM94.724 46.6513C94.724 48.7364 94.724 50.7232 94.724 52.612C94.7334 54.5007 94.738 56.2585 94.738 57.8854C94.738 58.1098 94.696 58.3247 94.6118 58.5305C94.5371 58.7269 94.4249 58.8998 94.2752 59.0494C94.1257 59.1991 93.948 59.3159 93.7423 59.4001C93.5459 59.4936 93.3263 59.5403 93.0831 59.5403C92.8495 59.5403 92.6297 59.4982 92.4239 59.4141C92.2276 59.3299 92.0547 59.2131 91.905 59.0635C91.7647 58.9138 91.6525 58.7409 91.5684 58.5445C91.4842 58.3388 91.4422 58.1192 91.4422 57.8854C91.4422 56.8101 91.4422 55.6554 91.4422 54.4212C91.4422 53.1776 91.4422 51.9153 91.4422 50.6344C91.4422 49.3535 91.4422 48.0865 91.4422 46.8337C91.4422 45.5714 91.4376 44.3839 91.4281 43.2713C91.4281 43.075 91.4001 42.8973 91.344 42.7384C91.2973 42.5701 91.2739 42.3877 91.2739 42.1914C91.2739 42.0886 91.2879 41.995 91.3159 41.9109C91.344 41.8267 91.4001 41.7566 91.4842 41.7005C91.5684 41.635 91.6854 41.5883 91.8349 41.5603C91.9845 41.5228 92.1855 41.5042 92.438 41.5042C92.7092 41.5042 92.9382 41.5088 93.1252 41.5182C93.3123 41.5276 93.4758 41.5508 93.616 41.5883C93.7657 41.6258 93.9013 41.6865 94.0228 41.7706C94.1444 41.8454 94.2706 41.953 94.4014 42.0932L100.208 49.1899C101.003 48.2175 101.69 47.376 102.269 46.6654C102.849 45.9547 103.34 45.347 103.742 44.8421C104.154 44.3278 104.485 43.9071 104.738 43.5799C105 43.2527 105.205 42.9908 105.355 42.7945C105.505 42.5887 105.612 42.4392 105.678 42.3457C105.743 42.2429 105.795 42.1679 105.832 42.1213C105.888 42.0371 105.949 41.9576 106.014 41.8828C106.08 41.7987 106.164 41.7286 106.267 41.6725C106.379 41.6164 106.51 41.5743 106.659 41.5462C106.818 41.5182 107.015 41.5042 107.248 41.5042C107.707 41.5042 108.053 41.6023 108.286 41.7987C108.529 41.9856 108.702 42.2335 108.805 42.542C108.908 42.8506 108.959 43.2058 108.959 43.6079C108.969 44.0006 108.973 44.3979 108.973 44.8V57.8854C108.973 58.1098 108.931 58.3247 108.847 58.5305C108.772 58.7269 108.66 58.8998 108.511 59.0494C108.37 59.1991 108.197 59.3159 107.992 59.4001C107.786 59.4936 107.562 59.5403 107.318 59.5403C107.15 59.5403 106.968 59.5076 106.771 59.4421C106.585 59.3766 106.407 59.2785 106.239 59.1476C106.08 59.0074 105.949 58.8344 105.846 58.6287C105.743 58.4229 105.692 58.1753 105.692 57.8854V46.6794L101.596 51.9528C101.381 52.2146 101.166 52.439 100.951 52.626C100.736 52.8037 100.502 52.8925 100.25 52.8925C99.9694 52.8925 99.7357 52.8129 99.5486 52.654C99.3617 52.4857 99.1419 52.2519 98.8895 51.9528L94.724 46.6513ZM112.43 40.5925C112.673 40.5925 112.944 40.6907 113.243 40.8871C113.542 41.074 113.823 41.2984 114.084 41.5603C114.346 41.8127 114.566 42.0698 114.744 42.3316C114.921 42.5935 115.015 42.7945 115.024 42.9347C115.052 43.1216 115.048 43.2807 115.01 43.4116C114.945 43.7201 114.762 43.9399 114.463 44.0707C114.248 44.1735 114.028 44.211 113.804 44.1829C113.626 44.1829 113.393 44.1128 113.103 43.9726C112.822 43.8323 112.537 43.6594 112.247 43.4536C111.967 43.2479 111.719 43.0329 111.504 42.8085C111.289 42.5747 111.163 42.3691 111.125 42.1914C111.078 41.9856 111.083 41.7893 111.139 41.6023C111.195 41.406 112.115 43.3537 113.85 42.9C113.804 41.7987 111.663 40.8169 111.84 40.7328C112.018 40.6392 112.215 40.5925 112.43 40.5925ZM126.603 46.483C126.472 46.4924 126.346 46.4924 126.225 46.483C126.112 46.4644 125.996 46.4315 125.874 46.3849C125.762 46.3382 125.645 46.2727 125.523 46.1885C125.402 46.1044 125.271 45.9968 125.131 45.8659C124.663 45.3891 124.214 45.029 123.784 44.786C123.364 44.5336 122.877 44.4073 122.326 44.4073C122.045 44.4073 121.755 44.4494 121.456 44.5336C121.157 44.6177 120.886 44.7393 120.643 44.8982C120.409 45.0479 120.213 45.2394 120.054 45.4732C119.904 45.707 119.829 45.9687 119.829 46.2586C119.829 46.6046 119.955 46.9178 120.208 47.1983C120.46 47.4694 120.797 47.7266 121.218 47.9697C121.638 48.2035 122.115 48.4371 122.648 48.6709C123.181 48.9047 123.724 49.1524 124.275 49.4143C124.827 49.6667 125.369 49.9472 125.902 50.2558C126.435 50.5549 126.912 50.9009 127.333 51.2936C127.753 51.6769 128.09 52.1165 128.342 52.612C128.595 53.1074 128.721 53.6779 128.721 54.323C128.721 55.1551 128.529 55.8984 128.146 56.553C127.763 57.1981 127.263 57.7451 126.645 58.1939C126.028 58.6333 125.332 58.9699 124.556 59.2037C123.789 59.4375 123.013 59.5543 122.228 59.5543C121.283 59.5543 120.451 59.4421 119.731 59.2177C119.011 58.9933 118.399 58.7034 117.894 58.3482C117.398 57.9835 117.006 57.5814 116.716 57.142C116.426 56.7026 116.234 56.2679 116.141 55.8377C116.113 55.6133 116.122 55.3983 116.169 55.1926C116.215 54.9868 116.295 54.8045 116.407 54.6456C116.529 54.4867 116.683 54.3605 116.87 54.2669C117.057 54.1641 117.277 54.1126 117.529 54.1126C117.772 54.1126 118.011 54.1781 118.244 54.309C118.487 54.4306 118.735 54.6035 118.988 54.8279C119.119 55.0429 119.296 55.2487 119.521 55.445C119.745 55.632 119.998 55.8003 120.278 55.9499C120.568 56.0996 120.877 56.221 121.204 56.3146C121.54 56.3987 121.886 56.4408 122.242 56.4408C122.588 56.4408 122.933 56.3987 123.279 56.3146C123.635 56.221 123.953 56.0902 124.233 55.9219C124.523 55.7441 124.757 55.5292 124.934 55.2767C125.121 55.0148 125.215 54.7157 125.215 54.3791C125.215 54.0331 125.089 53.7293 124.836 53.4675C124.593 53.1964 124.271 52.9439 123.868 52.7101C123.476 52.4763 123.022 52.2519 122.508 52.0369C121.994 51.8219 121.466 51.5928 120.923 51.3497C120.39 51.0973 119.867 50.8262 119.352 50.5363C118.838 50.2371 118.38 49.8957 117.978 49.5124C117.585 49.1197 117.263 48.6756 117.01 48.1801C116.767 47.6752 116.646 47.0955 116.646 46.441C116.646 45.7117 116.79 45.0479 117.08 44.4494C117.38 43.8417 117.791 43.3228 118.315 42.8926C118.848 42.4625 119.474 42.1307 120.194 41.8969C120.914 41.6538 121.699 41.5322 122.55 41.5322C122.971 41.5322 123.401 41.5789 123.84 41.6725C124.28 41.766 124.71 41.8969 125.131 42.0652C125.551 42.2335 125.944 42.4298 126.309 42.6542C126.673 42.8786 126.996 43.1264 127.277 43.3975C127.557 43.6594 127.777 43.9351 127.936 44.225C128.095 44.5149 128.174 44.8046 128.174 45.0946C128.174 45.3656 128.132 45.5901 128.048 45.7678C127.964 45.9361 127.852 46.0763 127.711 46.1885C127.571 46.2913 127.403 46.3662 127.206 46.4129C127.019 46.4596 126.818 46.483 126.603 46.483Z" fill="url(#paint2_linear)"/>
<path fill-rule="evenodd" clip-rule="evenodd" d="M41.1958 18.9173C35.2146 13.6183 32.7922 8.46813 33.2408 3.25844C33.2945 2.69522 33.1861 2.12842 32.9278 1.62442C32.6696 1.12043 32.2723 0.700069 31.7828 0.412672C31.2932 0.125275 30.7315 -0.0172689 30.1635 0.00166909C29.5955 0.020607 29.0446 0.200333 28.5754 0.519694C26.5651 1.91976 24.6745 3.48289 22.9231 5.19334C20.1388 7.56314 18.0685 10.6544 16.9419 14.1242C16.7678 14.8459 16.6776 15.5852 16.6728 16.3273C16.6728 17.1169 16.9877 17.874 17.5486 18.4323C18.1095 18.9906 18.8703 19.3043 19.6634 19.3043C20.4566 19.3043 21.2172 18.9906 21.7781 18.4323C22.3389 17.874 22.6541 17.1169 22.6541 16.3273C22.621 16.0405 22.621 15.7507 22.6541 15.4639C23.5091 13.0941 24.9609 10.9825 26.8708 9.33138L27.4689 8.76576C29.0279 14.3952 32.2975 19.4071 36.8298 23.1147C39.1819 25.4979 40.8156 28.4902 41.5449 31.7514C42.2743 35.0127 42.0704 38.412 40.9558 41.5638C39.8413 44.7153 37.8614 47.4926 35.2405 49.5799C32.6197 51.6671 29.4632 52.9808 26.1299 53.3719C22.7965 53.7629 19.4197 53.2155 16.3833 51.7919C13.3469 50.3679 10.7726 48.1249 8.95272 45.3176C7.13286 42.5103 6.1405 39.2509 6.08839 35.9103C6.03628 32.5696 6.92653 29.2813 8.65794 26.4191C10.1581 29.2952 12.2184 31.8452 14.7189 33.9204C17.2195 35.9954 20.1102 37.554 23.2223 38.5054C23.9917 38.7031 24.8082 38.5882 25.4924 38.1859C26.1767 37.784 26.6725 37.128 26.8708 36.362C27.0691 35.5964 26.9537 34.7836 26.5499 34.1025C26.1461 33.4214 25.487 32.9276 24.7176 32.7302C19.3046 31.212 15.0278 26.9551 11.8577 19.6615C11.6632 19.2185 11.3633 18.8292 10.9838 18.5275C10.6042 18.2258 10.1566 18.0206 9.67957 17.9297C9.20252 17.8389 8.71038 17.8651 8.24576 18.0061C7.78114 18.147 7.35803 18.3984 7.01292 18.7387C3.66537 22.0687 1.38531 26.3121 0.460884 30.9323C-0.463542 35.5525 0.00929485 40.3418 1.81966 44.6945C3.63003 49.0472 6.69649 52.7677 10.6313 55.3852C14.5661 58.0028 19.1925 59.4 23.925 59.4C28.6576 59.4 33.2839 58.0028 37.2186 55.3852C41.1534 52.7677 44.2199 49.0472 46.0303 44.6945C47.8407 40.3418 48.3135 35.5525 47.3892 30.9323C46.4649 26.3121 44.1844 22.0687 40.8371 18.7387L41.1958 18.9173Z" fill="url(#paint3_linear)"/>
<defs>
<linearGradient id="paint0_linear" x1="58.6055" y1="16.9905" x2="179.999" y2="16.9905" gradientUnits="userSpaceOnUse">
<stop stop-color="#5EDAF0"/>
<stop offset="0.322877" stop-color="#88A8EC"/>
<stop offset="0.583988" stop-color="#869EEB"/>
<stop offset="1" stop-color="#773ADD"/>
</linearGradient>
<linearGradient id="paint1_linear" x1="112.2" y1="11.55" x2="130.35" y2="11.55" gradientUnits="userSpaceOnUse">
<stop stop-color="#5EDAF0"/>
<stop offset="0.322877" stop-color="#88A8EC"/>
<stop offset="0.583988" stop-color="#869EEB"/>
<stop offset="1" stop-color="#773ADD"/>
</linearGradient>
<linearGradient id="paint2_linear" x1="58.2161" y1="50.0833" x2="128.721" y2="50.0833" gradientUnits="userSpaceOnUse">
<stop stop-color="#5EDAF0"/>
<stop offset="0.322877" stop-color="#88A8EC"/>
<stop offset="0.583988" stop-color="#869EEB"/>
<stop offset="1" stop-color="#773ADD"/>
</linearGradient>
<linearGradient id="paint3_linear" x1="1.78255e-07" y1="29.7" x2="47.85" y2="29.7" gradientUnits="userSpaceOnUse">
<stop stop-color="#5EDAF0"/>
<stop offset="0.322877" stop-color="#88A8EC"/>
<stop offset="0.583988" stop-color="#869EEB"/>
<stop offset="1" stop-color="#773ADD"/>
</linearGradient>
</defs>
</svg>
