<svg width="121" height="40" viewBox="0 0 121 40" fill="none" xmlns="http://www.w3.org/2000/svg">
<path d="M43.4915 6.28198C43.1515 5.93631 42.7775 5.66148 42.3695 5.45748C41.9615 5.25348 41.5156 8 40.9999 8C40.5239 8 40.0575 5.24498 39.6325 5.43198C39.2132 5.61331 38.8477 5.86548 38.536 6.18848C38.2243 6.50581 37.9778 6.87698 37.7965 7.30198C37.6152 7.72131 37.5245 8.16898 37.5245 8.64498C37.5245 9.12098 37.6152 9.57148 37.7965 9.99648C37.9778 10.4158 38.2243 10.7842 38.536 11.1015C38.8533 11.4188 39.2217 11.671 39.641 11.858C40.0603 12.0393 40.508 12.13 40.984 12.13C41.29 12.13 41.5677 12.096 41.817 12.028C42.072 11.9543 42.31 11.8552 42.531 11.7305C42.752 11.6058 42.9617 11.4642 43.16 11.3055C43.3583 11.1412 43.5595 10.9683 43.7635 10.787C43.8428 10.736 43.9307 10.6963 44.027 10.668C44.129 10.634 44.231 10.617 44.333 10.617C44.435 10.617 44.5342 10.6312 44.6305 10.6595C44.7268 10.6878 44.8175 10.736 44.9025 10.804C45.0272 10.8833 45.1263 10.9882 45.2 11.1185C45.2737 11.2488 45.3105 11.3905 45.3105 11.5435C45.3105 11.6738 45.285 11.8013 45.234 11.926C45.1887 12.0507 45.1122 12.1668 45.0045 12.2745C44.7212 12.5918 44.435 12.8667 44.146 13.099C43.8627 13.3257 43.5595 13.5127 43.2365 13.66C42.9192 13.8073 42.5763 13.9178 42.208 13.9915C41.8397 14.0595 41.4317 14.0935 40.984 14.0935C40.2303 14.0935 39.6034 13.9433 38.9404 13.66C38.2774 13.371 37.6152 12.9885 37.1165 12.4955C36.6235 11.9968 36.2325 11.416 35.9435 10.753C35.6602 10.09 35.5185 9.38165 35.5185 8.62798C35.5185 8.12931 35.5837 7.64765 35.714 7.18298C35.8443 6.71831 36.0285 6.28481 36.2665 5.88248C36.5045 5.47448 36.7878 5.10615 37.1165 4.77748C37.4508 4.44315 37.8192 4.15698 38.2215 3.91898C38.6295 3.68098 39.0658 3.49681 39.5305 3.36648C39.9952 3.23615 40.4797 3.17098 40.984 3.17098C41.375 3.17098 41.7433 3.20215 42.089 3.26448C42.4403 3.32115 42.7718 3.41748 43.0835 3.55348C43.4008 3.68381 43.704 3.85665 43.993 4.07198C44.2877 4.28731 44.5767 4.54798 44.86 4.85398C45.047 5.05798 45.1462 5.29881 45.1575 5.57648C45.1632 5.70115 45.1377 5.82865 45.081 5.95898C45.03 6.08931 44.9478 6.20265 44.8345 6.29898C44.7552 6.37265 44.6645 6.43215 44.5625 6.47748C44.4605 6.52281 44.35 6.54831 44.231 6.55398C44.1177 6.55965 43.9958 6.54265 43.8655 6.50298C43.7408 6.45765 43.6162 6.38398 43.4915 6.28198ZM52.8027 9.69048L54.8172 12.5125C54.9022 12.6145 54.9617 12.7278 54.9957 12.8525C55.0297 12.9772 55.0382 13.1018 55.0212 13.2265C55.0099 13.3455 54.9702 13.4645 54.9022 13.5835C54.8399 13.6968 54.7521 13.796 54.6387 13.881C54.5254 13.966 54.4064 14.0227 54.2817 14.051C54.1627 14.085 54.0409 14.0935 53.9162 14.0765C53.7916 14.0595 53.6726 14.0198 53.5592 13.9575C53.4516 13.8895 53.3552 13.8017 53.2702 13.694L51.1112 10.396L52.8027 9.69048ZM55.0127 7.22548C55.0127 7.80915 54.8937 8.34465 54.6557 8.83198C54.4234 9.31931 54.1089 9.74148 53.7122 10.0985C53.3156 10.4498 52.8537 10.7247 52.3267 10.923C51.7997 11.1213 51.2444 11.2205 50.6607 11.2205H48.9522V13.082C48.9522 13.2237 48.9267 13.3568 48.8757 13.4815C48.8247 13.6005 48.7539 13.7053 48.6632 13.796C48.5726 13.8867 48.4649 13.9575 48.3402 14.0085C48.2212 14.0595 48.0909 14.085 47.9492 14.085C47.8076 14.085 47.6744 14.0595 47.5497 14.0085C47.4307 13.9575 47.3259 13.8867 47.2352 13.796C47.1502 13.7053 47.0822 13.6005 47.0312 13.4815C46.9802 13.3568 46.9547 13.2237 46.9547 13.082V4.15698C46.9491 4.04365 46.9321 3.93315 46.9037 3.82548C46.8754 3.71215 46.8612 3.60448 46.8612 3.50248C46.8612 3.44015 46.8697 3.38348 46.8867 3.33248C46.9094 3.28148 46.9462 3.23898 46.9972 3.20498C47.0482 3.17098 47.1191 3.14548 47.2097 3.12848C47.3004 3.10581 47.4166 3.09448 47.5582 3.09448H50.6607C51.2444 3.09448 51.7997 3.20215 52.3267 3.41748C52.8537 3.62715 53.3156 3.91615 53.7122 4.28448C54.1089 4.65281 54.4234 5.08915 54.6557 5.59348C54.8937 6.09781 55.0127 6.64181 55.0127 7.22548ZM53.0492 7.27648C53.0492 6.94781 52.9869 6.64181 52.8622 6.35848C52.7376 6.06948 52.5647 5.81731 52.3437 5.60198C52.1284 5.38665 51.8762 5.21665 51.5872 5.09198C51.2982 4.96731 50.9894 4.90498 50.6607 4.90498H48.9182V9.47798H50.6607C50.9894 9.47798 51.2982 9.42698 51.5872 9.32498C51.8762 9.21731 52.1284 9.06715 52.3437 8.87448C52.5647 8.68181 52.7376 8.45231 52.8622 8.18598C52.9869 7.91398 53.0492 7.61081 53.0492 7.27648ZM55.9384 8.61948C55.9384 8.12081 56.0036 7.63915 56.1339 7.17448C56.2643 6.70981 56.4484 6.27631 56.6864 5.87398C56.9244 5.46598 57.2078 5.09765 57.5364 4.76898C57.8708 4.43465 58.2391 4.14848 58.6414 3.91048C59.0494 3.67248 59.4858 3.48831 59.9504 3.35798C60.4151 3.22765 60.8996 3.16248 61.4039 3.16248C61.9026 3.16248 62.3843 3.22765 62.8489 3.35798C63.3136 3.48831 63.7471 3.67248 64.1494 3.91048C64.5574 4.14848 64.9258 4.43465 65.2544 4.76898C65.5888 5.09765 65.8749 5.46598 66.1129 5.87398C66.3509 6.27631 66.5351 6.70981 66.6654 7.17448C66.7958 7.63915 66.8609 8.12081 66.8609 8.61948C66.8609 9.12381 66.7958 9.60831 66.6654 10.073C66.5351 10.5377 66.3509 10.974 66.1129 11.382C65.8749 11.7843 65.5888 12.1527 65.2544 12.487C64.9258 12.8157 64.5574 13.099 64.1494 13.337C63.7471 13.575 63.3136 13.7592 62.8489 13.8895C62.3843 14.0198 61.9026 14.085 61.4039 14.085C60.6503 14.085 59.9419 13.9433 59.2789 13.66C58.6159 13.371 58.0351 12.98 57.5364 12.487C57.0434 11.9883 56.6524 11.4075 56.3634 10.7445C56.0801 10.0815 55.9384 9.37315 55.9384 8.61948ZM57.9444 8.63648C57.9444 9.11248 58.0351 9.56298 58.2164 9.98798C58.3978 10.4073 58.6443 10.7757 58.9559 11.093C59.2676 11.4103 59.6331 11.6625 60.0524 11.8495C60.4774 12.0308 60.9279 12.1215 61.4039 12.1215C61.8799 12.1215 62.3276 12.0308 62.7469 11.8495C63.1663 11.6625 63.5318 11.4103 63.8434 11.093C64.1608 10.77 64.4101 10.396 64.5914 9.97098C64.7728 9.54598 64.8634 9.09548 64.8634 8.61948C64.8634 8.14348 64.7728 7.69581 64.5914 7.27648C64.4101 6.85715 64.1608 6.48881 63.8434 6.17148C63.5318 5.85415 63.1663 5.60481 62.7469 5.42348C62.3276 5.23648 61.8799 5.14298 61.4039 5.14298C60.9279 5.14298 60.4774 5.23648 60.0524 5.42348C59.6331 5.60481 59.2676 5.85698 58.9559 6.17998C58.6443 6.49731 58.3978 6.86848 58.2164 7.29348C58.0351 7.71281 57.9444 8.16048 57.9444 8.63648ZM80.9176 3.10298C81.1046 3.10298 81.2831 3.11998 81.4531 3.15398C81.6231 3.18798 81.7704 3.25031 81.8951 3.34098C82.0198 3.42598 82.1189 3.54498 82.1926 3.69798C82.2719 3.85098 82.3116 4.04931 82.3116 4.29298V7.71848L87.2246 3.48548C87.3889 3.33815 87.5589 3.24465 87.7346 3.20498C87.9103 3.15965 88.0803 3.16248 88.2446 3.21348C88.3126 3.23048 88.3806 3.25598 88.4486 3.28998C88.5166 3.31831 88.5818 3.35798 88.6441 3.40898C88.7064 3.45431 88.7603 3.50815 88.8056 3.57048C88.8566 3.63281 88.8906 3.70081 88.9076 3.77448C88.9869 3.99548 88.9983 4.21648 88.9416 4.43748C88.8849 4.65848 88.7574 4.84831 88.5591 5.00698L85.5586 7.42948L88.8056 12.453C88.9416 12.6683 89.0124 12.8553 89.0181 13.014C89.0294 13.167 88.9983 13.3342 88.9246 13.5155C88.8566 13.6798 88.7433 13.8187 88.5846 13.932C88.4259 14.0453 88.2361 14.102 88.0151 14.102C87.8338 14.102 87.6638 14.0567 87.5051 13.966C87.3521 13.8697 87.2019 13.7025 87.0546 13.4645L84.0456 8.60248L82.3031 10.056L82.3116 12.8865C82.3116 13.0565 82.2889 13.2152 82.2436 13.3625C82.1983 13.5098 82.1331 13.6373 82.0481 13.745C81.9631 13.847 81.8583 13.9292 81.7336 13.9915C81.6089 14.0538 81.4673 14.085 81.3086 14.085C80.9856 14.085 80.7391 13.9745 80.5691 13.7535C80.3991 13.5268 80.3141 13.2407 80.3141 12.895V4.16548C80.3084 4.05215 80.2914 3.94165 80.2631 3.83398C80.2348 3.72065 80.2206 3.61298 80.2206 3.51098C80.2206 3.44865 80.2291 3.39198 80.2461 3.34098C80.2688 3.28998 80.3056 3.24748 80.3566 3.21348C80.4076 3.17948 80.4784 3.15398 80.5691 3.13698C80.6598 3.11431 80.7759 3.10298 80.9176 3.10298ZM98.4874 13.082C98.4874 13.2293 98.459 13.3653 98.4024 13.49C98.3457 13.6147 98.2692 13.7223 98.1729 13.813C98.0765 13.898 97.9632 13.9632 97.8329 14.0085C97.7025 14.0595 97.5637 14.085 97.4164 14.085H91.7129C91.3559 14.085 91.0782 13.9802 90.8799 13.7705C90.6815 13.5552 90.5824 13.2718 90.5824 12.9205V4.27598C90.5767 4.16265 90.5569 4.04648 90.5229 3.92748C90.4945 3.80281 90.4804 3.68381 90.4804 3.57048C90.4804 3.44581 90.5229 3.34665 90.6079 3.27298C90.6929 3.19365 90.8629 3.15398 91.1179 3.15398H97.4419C97.6629 3.15398 97.847 3.20215 97.9944 3.29848C98.1474 3.38915 98.2607 3.50531 98.3344 3.64698C98.4137 3.78865 98.4534 3.94448 98.4534 4.11448C98.4534 4.27881 98.4165 4.43181 98.3429 4.57348C98.2692 4.71515 98.1587 4.83415 98.0114 4.93048C97.864 5.02115 97.677 5.06648 97.4504 5.06648H92.5799V7.68448H96.3624C96.5154 7.68448 96.6599 7.72131 96.7959 7.79498C96.9319 7.86298 97.0424 7.95365 97.1274 8.06698C97.218 8.18031 97.2775 8.31065 97.3059 8.45798C97.3399 8.60531 97.3285 8.75831 97.2719 8.91698C97.2039 9.11531 97.0905 9.27115 96.9319 9.38448C96.7732 9.49215 96.5862 9.54598 96.3709 9.54598H92.5799V12.079H97.3994C97.5467 12.079 97.6855 12.1017 97.8159 12.147C97.9519 12.1923 98.068 12.2575 98.1644 12.3425C98.2664 12.4275 98.3457 12.5323 98.4024 12.657C98.459 12.7817 98.4874 12.9233 98.4874 13.082ZM101.308 14.085C102 15 100.5 16 100.5 17.5C99.9999 17.5 100.049 13.5212 100.004 13.2945C99.9926 13.2605 99.9869 13.2265 99.9869 13.1925C99.9869 13.1585 99.9869 13.1217 99.9869 13.082V4.21648C99.9813 4.10315 99.9643 3.99265 99.9359 3.88498C99.9076 3.77165 99.8934 3.66398 99.8934 3.56198C99.8934 3.49965 99.9019 3.44298 99.9189 3.39198C99.9416 3.34098 99.9784 3.29848 100.029 3.26448C100.08 3.23048 100.151 3.20498 100.242 3.18798C100.333 3.16531 100.449 3.15398 100.59 3.15398H103.616C104.115 3.15398 104.597 3.21915 105.061 3.34948C105.526 3.47981 105.96 3.66398 106.362 3.90198C106.77 4.13998 107.141 4.42615 107.475 4.76048C107.81 5.09481 108.096 5.46598 108.334 5.87398C108.578 6.27631 108.765 6.70981 108.895 7.17448C109.025 7.63915 109.09 8.12081 109.09 8.61948C109.09 9.12381 109.025 9.60831 108.895 10.073C108.765 10.5377 108.578 10.974 108.334 11.382C108.096 11.7843 107.81 12.1527 107.475 12.487C107.141 12.8157 106.77 13.099 106.362 13.337C105.96 13.575 105.526 13.7592 105.061 13.8895C104.597 14.0198 104.115 14.085 103.616 14.085H101.308ZM107.084 8.61948C107.084 8.10948 106.991 7.63915 106.804 7.20848C106.623 6.77215 106.373 6.39531 106.056 6.07798C105.744 5.76065 105.379 5.51131 104.959 5.32998C104.54 5.14865 104.092 5.05515 103.616 5.04948H101.984V12.113H103.616C104.092 12.1017 104.54 12.0053 104.959 11.824C105.379 11.6427 105.744 11.399 106.056 11.093C106.373 10.7813 106.623 10.4158 106.804 9.99648C106.991 9.57148 107.084 9.11248 107.084 8.61948Z" fill="url(#paint0_linear)"/>
<path fill-rule="evenodd" clip-rule="evenodd" d="M77.4703 4.45862C76.0953 3.20969 75.5384 1.99586 75.6416 0.767983C75.6539 0.635237 75.629 0.501647 75.5696 0.38286C75.5102 0.264074 75.4189 0.164999 75.3064 0.0972627C75.1938 0.0295262 75.0647 -0.0040701 74.9341 0.000393389C74.8036 0.00485687 74.6769 0.0472166 74.5691 0.122487C74.1069 0.452468 73.6723 0.820882 73.2697 1.22402C72.6296 1.78256 72.1537 2.51114 71.8947 3.32894C71.8547 3.49903 71.8339 3.67327 71.8328 3.8482C71.8328 4.03428 71.9052 4.21273 72.0342 4.34432C72.1631 4.4759 72.338 4.54983 72.5203 4.54983C72.7027 4.54983 72.8775 4.4759 73.0065 4.34432C73.1354 4.21273 73.2078 4.03428 73.2078 3.8482C73.2002 3.78059 73.2002 3.71229 73.2078 3.64469C73.4044 3.08614 73.7381 2.58847 74.1772 2.19931L74.3147 2.066C74.6731 3.39281 75.4247 4.57407 76.4666 5.44791C77.0073 6.00962 77.3829 6.71485 77.5506 7.4835C77.7182 8.25214 77.6713 9.05333 77.4151 9.79619C77.1589 10.539 76.7038 11.1935 76.1013 11.6855C75.4988 12.1774 74.7732 12.4871 74.0069 12.5792C73.2406 12.6714 72.4643 12.5424 71.7663 12.2068C71.0682 11.8712 70.4765 11.3426 70.0581 10.6809C69.6397 10.0193 69.4116 9.25104 69.3996 8.4637C69.3876 7.67634 69.5923 6.90132 69.9903 6.22672C70.3352 6.90458 70.8088 7.50561 71.3837 7.9947C71.9585 8.48377 72.623 8.85111 73.3385 9.07534C73.5153 9.12193 73.703 9.09487 73.8603 9.00006C74.0176 8.90532 74.1316 8.7507 74.1772 8.57018C74.2228 8.38973 74.1963 8.19817 74.1034 8.03763C74.0106 7.8771 73.8591 7.76071 73.6822 7.71419C72.4378 7.35635 71.4547 6.35304 70.7259 4.63402C70.6812 4.52961 70.6123 4.43787 70.525 4.36676C70.4378 4.29564 70.3349 4.24728 70.2252 4.22586C70.1155 4.20445 70.0024 4.21064 69.8956 4.24385C69.7888 4.27706 69.6915 4.33633 69.6122 4.41652C68.8426 5.20138 68.3185 6.2015 68.106 7.29044C67.8934 8.37939 68.0021 9.50818 68.4183 10.5341C68.8345 11.56 69.5394 12.4368 70.444 13.0538C71.3485 13.6707 72.4121 14 73.5 14C74.588 14 75.6515 13.6707 76.556 13.0538C77.4606 12.4368 78.1655 11.56 78.5817 10.5341C78.9979 9.50818 79.1065 8.37939 78.8941 7.29044C78.6816 6.2015 78.1573 5.20138 77.3878 4.41652L77.4703 4.45862Z" fill="url(#paint1_linear)"/>
<path d="M39.8195 25.1539C39.9668 25.1539 40.0972 25.1851 40.2105 25.2474C40.3238 25.3097 40.423 25.3919 40.508 25.4939C40.5987 25.5902 40.6752 25.7007 40.7375 25.8254C40.8055 25.9501 40.8678 26.0776 40.9245 26.2079L44.333 34.7164C44.3613 34.7787 44.3812 34.8467 44.3925 34.9204C44.4038 34.9884 44.4095 35.0536 44.4095 35.1159C44.4095 35.2632 44.3727 35.4049 44.299 35.5409C44.231 35.6712 44.1318 35.7761 44.0015 35.8554C43.8768 35.9631 43.7352 36.0311 43.5765 36.0594C43.4235 36.0934 43.2733 36.0877 43.126 36.0424C42.9787 36.0027 42.8427 35.9291 42.718 35.8214C42.5933 35.7137 42.4998 35.5749 42.4375 35.4049L41.8255 33.8749H37.8645L37.2355 35.4134C37.1278 35.6684 36.9862 35.8526 36.8105 35.9659C36.6348 36.0736 36.4337 36.1189 36.207 36.1019C36.0597 36.0962 35.9237 36.0622 35.799 35.9999C35.6743 35.9319 35.5695 35.8441 35.4845 35.7364C35.3995 35.6231 35.34 35.4927 35.306 35.3454C35.272 35.1981 35.2748 35.0422 35.3145 34.8779C35.3598 34.7362 35.408 34.6002 35.459 34.4699C35.51 34.3339 35.561 34.1979 35.612 34.0619L38.7825 26.1314C38.8108 26.0577 38.8278 25.9841 38.8335 25.9104C38.8448 25.8367 38.8562 25.7631 38.8675 25.6894C38.8845 25.6157 38.91 25.5477 38.944 25.4854C38.978 25.4174 39.029 25.3607 39.097 25.3154C39.165 25.2644 39.2557 25.2247 39.369 25.1964C39.488 25.1681 39.6382 25.1539 39.8195 25.1539ZM38.298 32.2684H41.392L39.845 28.3159L38.298 32.2684ZM51.7568 31.6904L53.7713 34.5124C53.8563 34.6144 53.9158 34.7277 53.9498 34.8524C53.9838 34.9771 53.9923 35.1017 53.9753 35.2264C53.964 35.3454 53.9243 35.4644 53.8563 35.5834C53.794 35.6967 53.7062 35.7959 53.5928 35.8809C53.4795 35.9659 53.3605 36.0226 53.2358 36.0509C53.1168 36.0849 52.995 36.0934 52.8703 36.0764C52.7457 36.0594 52.6267 36.0197 52.5133 35.9574C52.4057 35.8894 52.3093 35.8016 52.2243 35.6939L50.0653 32.3959L51.7568 31.6904ZM53.9668 29.2254C53.9668 29.8091 53.8478 30.3446 53.6098 30.8319C53.3775 31.3192 53.063 31.7414 52.6663 32.0984C52.2697 32.4497 51.8078 32.7246 51.2808 32.9229C50.7538 33.1212 50.1985 33.2204 49.6148 33.2204H47.9063V35.0819C47.9063 35.2236 47.8808 35.3567 47.8298 35.4814C47.7788 35.6004 47.708 35.7052 47.6173 35.7959C47.5267 35.8866 47.419 35.9574 47.2943 36.0084C47.1753 36.0594 47.045 36.0849 46.9033 36.0849C46.7617 36.0849 46.6285 36.0594 46.5038 36.0084C46.3848 35.9574 46.28 35.8866 46.1893 35.7959C46.1043 35.7052 46.0363 35.6004 45.9853 35.4814C45.9343 35.3567 45.9088 35.2236 45.9088 35.0819V26.1569C45.9032 26.0436 45.8862 25.9331 45.8578 25.8254C45.8295 25.7121 45.8153 25.6044 45.8153 25.5024C45.8153 25.4401 45.8238 25.3834 45.8408 25.3324C45.8635 25.2814 45.9003 25.2389 45.9513 25.2049C46.0023 25.1709 46.0732 25.1454 46.1638 25.1284C46.2545 25.1057 46.3707 25.0944 46.5123 25.0944H49.6148C50.1985 25.0944 50.7538 25.2021 51.2808 25.4174C51.8078 25.6271 52.2697 25.9161 52.6663 26.2844C53.063 26.6527 53.3775 27.0891 53.6098 27.5934C53.8478 28.0977 53.9668 28.6417 53.9668 29.2254ZM52.0033 29.2764C52.0033 28.9477 51.941 28.6417 51.8163 28.3584C51.6917 28.0694 51.5188 27.8172 51.2978 27.6019C51.0825 27.3866 50.8303 27.2166 50.5413 27.0919C50.2523 26.9672 49.9435 26.9049 49.6148 26.9049H47.8723V31.4779H49.6148C49.9435 31.4779 50.2523 31.4269 50.5413 31.3249C50.8303 31.2172 51.0825 31.0671 51.2978 30.8744C51.5188 30.6817 51.6917 30.4522 51.8163 30.1859C51.941 29.9139 52.0033 29.6107 52.0033 29.2764ZM57.4085 28.2734C57.4085 29.5371 57.4085 30.7412 57.4085 31.8859C57.4142 33.0306 57.417 34.0959 57.417 35.0819C57.417 35.2179 57.3915 35.3482 57.3405 35.4729C57.2952 35.5919 57.2272 35.6967 57.1365 35.7874C57.0459 35.8781 56.9382 35.9489 56.8135 35.9999C56.6945 36.0566 56.5614 36.0849 56.414 36.0849C56.2724 36.0849 56.1392 36.0594 56.0145 36.0084C55.8955 35.9574 55.7907 35.8866 55.7 35.7959C55.615 35.7052 55.547 35.6004 55.496 35.4814C55.445 35.3567 55.4195 35.2236 55.4195 35.0819C55.4195 34.4302 55.4195 33.7304 55.4195 32.9824C55.4195 32.2287 55.4195 31.4637 55.4195 30.6874C55.4195 29.9111 55.4195 29.1432 55.4195 28.3839C55.4195 27.6189 55.4167 26.8992 55.411 26.2249C55.411 26.1059 55.394 25.9982 55.36 25.9019C55.3317 25.7999 55.3175 25.6894 55.3175 25.5704C55.3175 25.5081 55.326 25.4514 55.343 25.4004C55.36 25.3494 55.394 25.3069 55.445 25.2729C55.496 25.2332 55.5669 25.2049 55.6575 25.1879C55.7482 25.1652 55.87 25.1539 56.023 25.1539C56.1874 25.1539 56.3262 25.1567 56.4395 25.1624C56.5529 25.1681 56.652 25.1822 56.737 25.2049C56.8277 25.2276 56.9099 25.2644 56.9835 25.3154C57.0572 25.3607 57.1337 25.4259 57.213 25.5109L60.732 29.8119C61.2137 29.2226 61.6302 28.7126 61.9815 28.2819C62.3329 27.8512 62.6304 27.4829 62.874 27.1769C63.1234 26.8652 63.3245 26.6102 63.4775 26.4119C63.6362 26.2136 63.7609 26.0549 63.8515 25.9359C63.9422 25.8112 64.0074 25.7206 64.047 25.6639C64.0867 25.6016 64.1179 25.5562 64.1405 25.5279C64.1745 25.4769 64.2114 25.4287 64.251 25.3834C64.2907 25.3324 64.3417 25.2899 64.404 25.2559C64.472 25.2219 64.5514 25.1964 64.642 25.1794C64.7384 25.1624 64.8574 25.1539 64.999 25.1539C65.2767 25.1539 65.4864 25.2134 65.628 25.3324C65.7754 25.4457 65.8802 25.5959 65.9425 25.7829C66.0049 25.9699 66.036 26.1852 66.036 26.4289C66.0417 26.6669 66.0445 26.9077 66.0445 27.1514V35.0819C66.0445 35.2179 66.019 35.3482 65.968 35.4729C65.9227 35.5919 65.8547 35.6967 65.764 35.7874C65.679 35.8781 65.5742 35.9489 65.4495 35.9999C65.3249 36.0566 65.1889 36.0849 65.0415 36.0849C64.9395 36.0849 64.829 36.0651 64.71 36.0254C64.5967 35.9857 64.489 35.9262 64.387 35.8469C64.2907 35.7619 64.2114 35.6571 64.149 35.5324C64.0867 35.4077 64.0555 35.2576 64.0555 35.0819V28.2904L61.5735 31.4864C61.4432 31.6451 61.3129 31.7811 61.1825 31.8944C61.0522 32.0021 60.9105 32.0559 60.7575 32.0559C60.5875 32.0559 60.4459 32.0077 60.3325 31.9114C60.2192 31.8094 60.086 31.6677 59.933 31.4864L57.4085 28.2734ZM68.1391 24.6014C68.2864 24.6014 68.4508 24.6609 68.6321 24.7799C68.8134 24.8932 68.9834 25.0292 69.1421 25.1879C69.3008 25.3409 69.4339 25.4967 69.5416 25.6554C69.6493 25.8141 69.7059 25.9359 69.7116 26.0209C69.7286 26.1342 69.7258 26.2306 69.7031 26.3099C69.6634 26.4969 69.5529 26.6301 69.3716 26.7094C69.2413 26.7717 69.1081 26.7944 68.9721 26.7774C68.8644 26.7774 68.7228 26.7349 68.5471 26.6499C68.3771 26.5649 68.2043 26.4601 68.0286 26.3354C67.8586 26.2107 67.7084 26.0804 67.5781 25.9444C67.4478 25.8027 67.3713 25.6781 67.3486 25.5704C67.3203 25.4457 67.3231 25.3267 67.3571 25.2134C67.3911 25.0944 67.9482 26.2749 69 25.9999C68.9721 25.3324 67.6744 24.7374 67.7821 24.6864C67.8898 24.6297 68.0088 24.6014 68.1391 24.6014ZM76.7293 28.1714C76.65 28.1771 76.5735 28.1771 76.4998 28.1714C76.4318 28.1601 76.361 28.1402 76.2873 28.1119C76.2193 28.0836 76.1485 28.0439 76.0748 27.9929C76.0011 27.9419 75.9218 27.8767 75.8368 27.7974C75.5535 27.5084 75.2815 27.2902 75.0208 27.1429C74.7658 26.9899 74.4711 26.9134 74.1368 26.9134C73.9668 26.9134 73.7911 26.9389 73.6098 26.9899C73.4285 27.0409 73.2641 27.1146 73.1168 27.2109C72.9751 27.3016 72.8561 27.4177 72.7598 27.5594C72.6691 27.7011 72.6238 27.8597 72.6238 28.0354C72.6238 28.2451 72.7003 28.4349 72.8533 28.6049C73.0063 28.7692 73.2103 28.9251 73.4653 29.0724C73.7203 29.2141 74.0093 29.3557 74.3323 29.4974C74.6553 29.6391 74.984 29.7892 75.3183 29.9479C75.6526 30.1009 75.9813 30.2709 76.3043 30.4579C76.6273 30.6392 76.9163 30.8489 77.1713 31.0869C77.4263 31.3192 77.6303 31.5856 77.7833 31.8859C77.9363 32.1862 78.0128 32.5319 78.0128 32.9229C78.0128 33.4272 77.8966 33.8777 77.6643 34.2744C77.432 34.6654 77.1288 34.9969 76.7548 35.2689C76.3808 35.5352 75.9586 35.7392 75.4883 35.8809C75.0236 36.0226 74.5533 36.0934 74.0773 36.0934C73.505 36.0934 73.0006 36.0254 72.5643 35.8894C72.128 35.7534 71.7568 35.5777 71.4508 35.3624C71.1505 35.1414 70.9125 34.8977 70.7368 34.6314C70.5611 34.3651 70.445 34.1016 70.3883 33.8409C70.3713 33.7049 70.377 33.5746 70.4053 33.4499C70.4336 33.3252 70.4818 33.2147 70.5498 33.1184C70.6235 33.0221 70.717 32.9456 70.8303 32.8889C70.9436 32.8266 71.0768 32.7954 71.2298 32.7954C71.3771 32.7954 71.5216 32.8351 71.6633 32.9144C71.8106 32.9881 71.9608 33.0929 72.1138 33.2289C72.1931 33.3592 72.3008 33.4839 72.4368 33.6029C72.5728 33.7162 72.7258 33.8182 72.8958 33.9089C73.0715 33.9996 73.2585 34.0732 73.4568 34.1299C73.6608 34.1809 73.8705 34.2064 74.0858 34.2064C74.2955 34.2064 74.5051 34.1809 74.7148 34.1299C74.9301 34.0732 75.1228 33.9939 75.2928 33.8919C75.4685 33.7842 75.6101 33.6539 75.7178 33.5009C75.8311 33.3422 75.8878 33.1609 75.8878 32.9569C75.8878 32.7472 75.8113 32.5631 75.6583 32.4044C75.511 32.2401 75.3155 32.0871 75.0718 31.9454C74.8338 31.8037 74.559 31.6677 74.2473 31.5374C73.9356 31.4071 73.6155 31.2682 73.2868 31.1209C72.9638 30.9679 72.6465 30.8036 72.3348 30.6279C72.0231 30.4466 71.7455 30.2397 71.5018 30.0074C71.2638 29.7694 71.0683 29.5002 70.9153 29.1999C70.768 28.8939 70.6943 28.5426 70.6943 28.1459C70.6943 27.7039 70.7821 27.3016 70.9578 26.9389C71.1391 26.5706 71.3885 26.2561 71.7058 25.9954C72.0288 25.7347 72.4085 25.5336 72.8448 25.3919C73.2811 25.2446 73.7571 25.1709 74.2728 25.1709C74.5278 25.1709 74.7885 25.1992 75.0548 25.2559C75.3211 25.3126 75.5818 25.3919 75.8368 25.4939C76.0918 25.5959 76.3298 25.7149 76.5508 25.8509C76.7718 25.9869 76.9673 26.1371 77.1373 26.3014C77.3073 26.4601 77.4405 26.6272 77.5368 26.8029C77.6331 26.9786 77.6813 27.1542 77.6813 27.3299C77.6813 27.4942 77.6558 27.6302 77.6048 27.7379C77.5538 27.8399 77.4858 27.9249 77.4008 27.9929C77.3158 28.0552 77.2138 28.1006 77.0948 28.1289C76.9815 28.1572 76.8596 28.1714 76.7293 28.1714Z" fill="url(#paint2_linear)"/>
<path fill-rule="evenodd" clip-rule="evenodd" d="M24.9672 11.465C21.3422 8.2535 19.8741 5.1322 20.1459 1.97481C20.1785 1.63347 20.1128 1.28995 19.9562 0.984498C19.7997 0.679048 19.559 0.424284 19.2623 0.250104C18.9656 0.0759244 18.6252 -0.010466 18.2809 0.00101157C17.9366 0.0124891 17.6028 0.121414 17.3185 0.314966C16.1 1.16349 14.9542 2.11084 13.8928 3.14748C12.2054 4.58372 10.9506 6.45722 10.2678 8.56014C10.1623 8.9975 10.1076 9.44556 10.1047 9.89536C10.1047 10.3739 10.2956 10.8327 10.6355 11.1711C10.9754 11.5095 11.4365 11.6996 11.9172 11.6996C12.3979 11.6996 12.8589 11.5095 13.1988 11.1711C13.5387 10.8327 13.7297 10.3739 13.7297 9.89536C13.7097 9.72152 13.7097 9.5459 13.7297 9.37206C14.2479 7.9358 15.1278 6.65606 16.2853 5.65538L16.6478 5.31258C17.5926 8.72438 19.5742 11.7619 22.3211 14.0089C23.7466 15.4533 24.7367 17.2668 25.1787 19.2433C25.6208 21.2198 25.4972 23.28 24.8217 25.1902C24.1462 27.1002 22.9463 28.7834 21.3579 30.0484C19.7695 31.3134 17.8565 32.1096 15.8363 32.3466C13.8161 32.5836 11.7695 32.2518 9.92926 31.389C8.08901 30.526 6.52883 29.1666 5.42589 27.4652C4.32295 25.7638 3.72152 23.7884 3.68993 21.7638C3.65835 19.7392 4.1979 17.7463 5.24723 16.0116C6.15643 17.7546 7.4051 19.3001 8.92057 20.5578C10.4361 21.8154 12.188 22.76 14.0741 23.3366C14.5404 23.4564 15.0353 23.3868 15.45 23.143C15.8647 22.8994 16.1651 22.5018 16.2853 22.0376C16.4055 21.5736 16.3356 21.081 16.0908 20.6682C15.8461 20.2554 15.4467 19.9561 14.9804 19.8365C11.6997 18.9163 9.10777 16.3364 7.1865 11.9161C7.06862 11.6476 6.88685 11.4117 6.65682 11.2288C6.42681 11.0459 6.15553 10.9216 5.86641 10.8665C5.57728 10.8114 5.27902 10.8274 4.99743 10.9128C4.71584 10.9982 4.45941 11.1506 4.25026 11.3568C2.22144 13.375 0.839581 15.9467 0.279323 18.7468C-0.280934 21.547 0.00563325 24.4496 1.10283 27.0876C2.20002 29.7256 4.05848 31.9804 6.4432 33.5668C8.82793 35.1532 11.6318 36 14.5 36C17.3683 36 20.172 35.1532 22.5567 33.5668C24.9415 31.9804 26.7999 29.7256 27.8972 27.0876C28.9944 24.4496 29.2809 21.547 28.7207 18.7468C28.1606 15.9467 26.7785 13.375 24.7498 11.3568L24.9672 11.465Z" fill="url(#paint3_linear)"/>
<defs>
<linearGradient id="paint0_linear" x1="35.5185" y1="10.2972" x2="109.09" y2="10.2972" gradientUnits="userSpaceOnUse">
<stop stop-color="#5EDAF0"/>
<stop offset="0.322877" stop-color="#88A8EC"/>
<stop offset="0.583988" stop-color="#869EEB"/>
<stop offset="1" stop-color="#773ADD"/>
</linearGradient>
<linearGradient id="paint1_linear" x1="68" y1="7" x2="79" y2="7" gradientUnits="userSpaceOnUse">
<stop stop-color="#5EDAF0"/>
<stop offset="0.322877" stop-color="#88A8EC"/>
<stop offset="0.583988" stop-color="#869EEB"/>
<stop offset="1" stop-color="#773ADD"/>
</linearGradient>
<linearGradient id="paint2_linear" x1="35.2825" y1="30.3534" x2="78.0128" y2="30.3534" gradientUnits="userSpaceOnUse">
<stop stop-color="#5EDAF0"/>
<stop offset="0.322877" stop-color="#88A8EC"/>
<stop offset="0.583988" stop-color="#869EEB"/>
<stop offset="1" stop-color="#773ADD"/>
</linearGradient>
<linearGradient id="paint3_linear" x1="1.08033e-07" y1="18" x2="29" y2="18" gradientUnits="userSpaceOnUse">
<stop stop-color="#5EDAF0"/>
<stop offset="0.322877" stop-color="#88A8EC"/>
<stop offset="0.583988" stop-color="#869EEB"/>
<stop offset="1" stop-color="#773ADD"/>
</linearGradient>
</defs>
</svg>
