<svg width="44" height="24" viewBox="0 0 44 24" fill="none" xmlns="http://www.w3.org/2000/svg">
<path fill-rule="evenodd" clip-rule="evenodd" d="M24.1579 23.8997C24.1579 23.8997 24.952 23.8153 25.3587 23.3976C25.731 23.015 25.718 22.2927 25.718 22.2927C25.718 22.2927 25.6686 18.9204 27.3063 18.4224C28.9203 17.9327 30.9927 21.6837 33.1921 23.1261C34.8535 24.2166 36.1146 23.9779 36.1146 23.9779L41.9918 23.8997C41.9918 23.8997 45.0649 23.7187 43.608 21.408C43.4875 21.2187 42.758 19.6982 39.2393 16.5748C35.5529 13.3053 36.0478 13.8341 40.4854 8.17782C43.1883 4.73345 44.2687 2.63061 43.9308 1.73145C43.6102 0.871385 41.6217 1.09978 41.6217 1.09978L35.0063 1.13887C35.0063 1.13887 34.5156 1.07508 34.1519 1.2829C33.7969 1.4866 33.5666 1.9619 33.5666 1.9619C33.5666 1.9619 32.5207 4.62645 31.124 6.8939C28.1779 11.6757 27.0007 11.9288 26.5186 11.6325C25.3974 10.9391 25.6771 8.85064 25.6771 7.36714C25.6771 2.73143 26.4132 0.79937 24.2461 0.299381C23.5273 0.132718 22.9979 0.0236662 21.1579 0.00514811C18.7972 -0.0174852 16.8 0.0133784 15.6681 0.542174C14.9149 0.894018 14.3338 1.68001 14.6888 1.72528C15.1257 1.78084 16.1157 1.98041 16.6408 2.66354C17.3186 3.54623 17.295 5.52561 17.295 5.52561C17.295 5.52561 17.6845 10.9823 16.3847 11.6592C15.4937 12.1242 14.2714 11.1757 11.6437 6.83628C10.2987 4.61411 9.28292 2.15736 9.28292 2.15736C9.28292 2.15736 9.08708 1.69853 8.7363 1.45162C8.31235 1.15327 7.72053 1.06068 7.72053 1.06068L1.43442 1.09978C1.43442 1.09978 0.489673 1.12447 0.143193 1.51746C-0.164549 1.86519 0.119521 2.5874 0.119521 2.5874C0.119521 2.5874 5.04124 13.5975 10.615 19.1468C15.7262 24.2331 21.5281 23.8997 21.5281 23.8997H24.1579Z" fill="white"/>
</svg>
