<svg width="10" height="5" viewBox="0 0 10 5" fill="none" xmlns="http://www.w3.org/2000/svg">
<path fill-rule="evenodd" clip-rule="evenodd" d="M5.49042 4.9791C5.49042 4.9791 5.6709 4.96153 5.76335 4.87451C5.84795 4.79479 5.845 4.64432 5.845 4.64432C5.845 4.64432 5.83377 3.94174 6.20598 3.83801C6.57279 3.73598 7.04379 4.51743 7.54366 4.81794C7.92124 5.04513 8.20787 4.99539 8.20787 4.99539L9.54358 4.9791C9.54358 4.9791 10.242 4.94139 9.9109 4.46001C9.88353 4.42055 9.71772 4.10379 8.91803 3.45308C8.08022 2.77193 8.19269 2.8821 9.20122 1.70371C9.81553 0.986135 10.0611 0.548044 9.98427 0.36072C9.9114 0.181539 9.45948 0.22912 9.45948 0.22912L7.95598 0.237265C7.95598 0.237265 7.84445 0.223976 7.76179 0.267272C7.68111 0.309708 7.62877 0.408729 7.62877 0.408729C7.62877 0.408729 7.39106 0.963844 7.07364 1.43623C6.40406 2.43243 6.13653 2.48517 6.02695 2.42343C5.77213 2.27897 5.83571 1.84388 5.83571 1.53482C5.83571 0.569048 6.003 0.166535 5.51048 0.062371C5.34711 0.0276496 5.22679 0.00493046 4.80861 0.00107252C4.27208 -0.00364274 3.81819 0.00278717 3.56092 0.112953C3.38974 0.186254 3.25769 0.350003 3.33837 0.359434C3.43766 0.371008 3.66266 0.412586 3.782 0.554903C3.93605 0.738799 3.93069 1.15117 3.93069 1.15117C3.93069 1.15117 4.01921 2.28798 3.72379 2.429C3.52129 2.52588 3.2435 2.32827 2.64629 1.42423C2.34061 0.961273 2.10975 0.449451 2.10975 0.449451C2.10975 0.449451 2.06525 0.35386 1.98552 0.302422C1.88917 0.240265 1.75467 0.220976 1.75467 0.220976L0.326005 0.22912C0.326005 0.22912 0.111289 0.234264 0.0325439 0.316139C-0.0373975 0.388581 0.0271639 0.539041 0.0271639 0.539041C0.0271639 0.539041 1.14574 2.83281 2.41251 3.98891C3.57413 5.04855 4.89274 4.9791 4.89274 4.9791H5.49042Z" fill="white"/>
</svg>
