<svg width="10" height="10" viewBox="0 0 10 10" fill="none" xmlns="http://www.w3.org/2000/svg">
<path d="M9.48944 2.65675C9.38141 2.25512 9.06475 1.93851 8.66318 1.83037C7.92955 1.62964 4.995 1.62964 4.995 1.62964C4.995 1.62964 2.06057 1.62964 1.32694 1.82276C0.933094 1.93079 0.608711 2.25517 0.500679 2.65675C0.307617 3.39031 0.307617 4.91163 0.307617 4.91163C0.307617 4.91163 0.307617 6.44062 0.500679 7.16652C0.608826 7.56809 0.925369 7.88469 1.327 7.99284C2.06829 8.19363 4.99512 8.19363 4.99512 8.19363C4.99512 8.19363 7.92955 8.19363 8.66318 8.00051C9.06481 7.89242 9.38141 7.57582 9.48955 7.17424C9.68256 6.44062 9.68256 4.91936 9.68256 4.91936C9.68256 4.91936 9.69028 3.39031 9.48944 2.65675ZM4.06071 6.31708V3.50618L6.50093 4.91163L4.06071 6.31708Z" fill="white"/>
</svg>
