<svg width="595" height="427" viewBox="0 0 595 427" fill="none" xmlns="http://www.w3.org/2000/svg">
<g clip-path="url(#clip0)">
<path d="M422.215 374.555H213.719C209.425 374.555 205.947 371.074 205.947 366.777V342.618C205.947 338.321 209.425 334.841 213.719 334.841H422.215C426.508 334.841 429.987 338.321 429.987 342.618V366.777C429.987 371.074 426.508 374.555 422.215 374.555Z" fill="url(#paint0_linear)"/>
<path d="M476.426 128.642C475.35 128.268 474.761 128.007 474.761 128.007C475.305 127.815 475.882 127.577 476.494 127.282C484.867 123.268 499.674 109.29 515.264 66.6964C531.986 20.9853 557.851 35.5194 557.851 35.5194C544.358 41.9362 546.827 72.3082 526.65 107.294C509.225 137.508 483.213 130.989 476.426 128.642Z" fill="#609A3E"/>
<path d="M476.426 128.643C475.35 128.268 474.761 128.008 474.761 128.008C475.305 127.815 475.882 127.577 476.494 127.282C489.432 123.949 505.396 115.786 513.519 99.5857C519.727 87.2056 529.165 61.4024 529.255 61.1416L530.502 61.5951C530.4 61.8558 520.951 87.7384 514.708 100.187C506.313 116.92 489.75 125.287 476.426 128.643Z" fill="url(#paint1_linear)"/>
<path d="M537.469 136.975C495.947 159.581 478.284 126.454 476.947 123.801C476.891 123.688 476.868 123.631 476.868 123.631C478.103 123.835 479.327 123.983 480.528 124.051C512.488 126.386 531.533 89.5065 553.976 76.072C577.258 62.1387 595 79.5979 595 79.5979C572.931 72.3081 580.691 113.428 537.469 136.975Z" fill="#609A3E"/>
<path d="M505.724 130.796C495.335 131.226 485.275 128.007 476.947 123.801C476.891 123.687 476.868 123.631 476.868 123.631C478.103 123.835 479.327 123.982 480.528 124.05C488.039 127.451 496.74 129.855 505.668 129.481C517.156 129.004 527.092 123.982 535.203 114.584C560.921 84.7784 569.543 87.3633 569.906 87.488L569.679 88.1115L569.475 88.7464C569.475 88.7464 569.464 88.7464 569.452 88.7351C568.954 88.633 560.378 87.4426 536.2 115.445C527.839 125.138 517.586 130.297 505.724 130.796Z" fill="url(#paint2_linear)"/>
<path d="M499.822 356.869H136.112C127.321 356.869 120.194 349.738 120.194 340.94V15.9286C120.194 7.13103 127.321 0 136.112 0H499.822C508.613 0 515.739 7.13103 515.739 15.9286V340.94C515.739 349.738 508.613 356.869 499.822 356.869Z" fill="url(#paint3_linear)"/>
<path d="M205.392 234.416C210.422 220.517 205.63 205.45 194.561 196.834C191.887 194.748 188.839 193.047 185.475 191.823C175.278 188.127 164.458 189.726 156.029 195.224C150.183 199.033 145.482 204.702 142.921 211.765C142.672 212.468 142.434 213.171 142.23 213.885C141.301 217.093 140.882 220.347 140.927 223.544C141.108 236.979 149.481 249.506 162.838 254.347C180.082 260.616 199.138 251.683 205.392 234.416ZM165.659 246.536C155.633 242.908 149.368 233.509 149.232 223.442C149.198 221.039 149.515 218.601 150.206 216.198C150.365 215.665 150.535 215.132 150.727 214.611C152.642 209.316 156.177 205.065 160.561 202.208C166.883 198.092 175.006 196.891 182.642 199.657C185.169 200.575 187.446 201.856 189.462 203.41C197.756 209.86 201.358 221.163 197.586 231.582C192.884 244.529 178.598 251.218 165.659 246.536Z" fill="white"/>
<path d="M160.55 202.196L156.007 195.224C164.447 189.737 175.267 188.138 185.452 191.823C188.817 193.047 191.865 194.748 194.538 196.834L189.429 203.398C187.423 201.834 185.135 200.552 182.608 199.646C174.995 196.879 166.883 198.081 160.55 202.196Z" fill="#1A598C"/>
<path d="M150.206 216.187L142.219 213.885C142.423 213.183 142.649 212.468 142.91 211.765C145.47 204.702 150.172 199.023 156.018 195.225L160.561 202.197C156.177 205.054 152.653 209.294 150.727 214.6C150.535 215.133 150.353 215.665 150.206 216.187Z" fill="#2273B5"/>
<path d="M140.916 223.556C140.871 220.359 141.29 217.105 142.219 213.896L150.206 216.198C149.515 218.601 149.198 221.039 149.232 223.442L140.916 223.556Z" fill="#3D96E0"/>
<path d="M298.599 229.247C301.329 214.725 294.18 200.621 281.877 193.898C278.897 192.277 275.623 191.075 272.099 190.418C261.45 188.411 251.027 191.733 243.572 198.501C238.406 203.195 234.678 209.544 233.285 216.935C233.149 217.672 233.035 218.409 232.945 219.135C232.548 222.457 232.65 225.733 233.217 228.885C235.551 242.115 245.826 253.135 259.796 255.765C277.832 259.166 295.2 247.296 298.599 229.247ZM261.336 247.591C250.857 245.618 243.164 237.353 241.408 227.433C240.989 225.075 240.909 222.615 241.215 220.121C241.283 219.566 241.363 219.021 241.465 218.466C242.507 212.933 245.305 208.16 249.18 204.646C254.765 199.567 262.583 197.073 270.57 198.581C273.21 199.079 275.668 199.975 277.9 201.188C287.122 206.222 292.492 216.799 290.442 227.694C287.881 241.242 274.852 250.142 261.336 247.591Z" fill="white"/>
<path d="M249.18 204.657L243.583 198.501C251.026 191.722 261.45 188.411 272.111 190.418C275.623 191.076 278.908 192.277 281.888 193.898L277.9 201.2C275.668 199.975 273.21 199.079 270.57 198.592C262.571 197.084 254.754 199.578 249.18 204.657Z" fill="#4B59C7"/>
<path d="M241.215 220.133L232.956 219.146C233.047 218.409 233.16 217.684 233.296 216.947C234.689 209.555 238.417 203.206 243.583 198.513L249.18 204.669C245.316 208.183 242.518 212.956 241.464 218.489C241.363 219.033 241.272 219.577 241.215 220.133Z" fill="#6F5BE0"/>
<path d="M233.217 228.885C232.662 225.733 232.548 222.457 232.945 219.135L241.204 220.121C240.898 222.604 240.989 225.064 241.397 227.434L233.217 228.885Z" fill="#B487FE"/>
<path d="M373.362 193.74C360.322 186.79 344.732 189.432 334.661 199.182C332.225 201.54 330.106 204.317 328.418 207.48C323.331 217.06 323.388 228.001 327.625 237.138C330.559 243.464 335.51 248.929 342.149 252.455C342.806 252.806 343.475 253.135 344.143 253.441C347.191 254.813 350.352 255.686 353.524 256.094C366.836 257.806 380.42 251.276 387.093 238.725C395.704 222.502 389.563 202.367 373.362 193.74ZM379.74 234.803C374.733 244.224 364.559 249.11 354.578 247.829C352.199 247.523 349.831 246.865 347.542 245.845C347.032 245.618 346.534 245.369 346.047 245.108C341.073 242.467 337.368 238.363 335.159 233.624C331.976 226.776 331.93 218.568 335.748 211.392C337.006 209.022 338.592 206.936 340.427 205.168C347.984 197.855 359.665 195.883 369.442 201.086C381.598 207.548 386.21 222.649 379.74 234.803Z" fill="white"/>
<path d="M335.159 233.612L327.614 237.126C323.377 227.989 323.309 217.049 328.407 207.469C330.084 204.306 332.202 201.528 334.65 199.17L340.428 205.156C338.604 206.925 337.006 209.011 335.748 211.38C331.942 218.568 331.987 226.764 335.159 233.612Z" fill="#1A598C"/>
<path d="M347.542 245.845L344.132 253.441C343.464 253.135 342.795 252.806 342.138 252.455C335.51 248.929 330.559 243.465 327.614 237.139L335.159 233.624C337.357 238.374 341.073 242.467 346.047 245.108C346.545 245.369 347.044 245.607 347.542 245.845Z" fill="#2273B5"/>
<path d="M353.524 256.083C350.352 255.675 347.191 254.802 344.144 253.43L347.554 245.834C349.842 246.866 352.21 247.523 354.589 247.818L353.524 256.083Z" fill="#3788CC"/>
<path d="M207.386 272.158H140.905V277.294H207.386V272.158Z" fill="#C4C4C4"/>
<path d="M190.652 283.053H140.905V288.188H190.652V283.053Z" fill="#C4C4C4"/>
<path d="M269.358 272.158H232.707V277.294H269.358V272.158Z" fill="#C4C4C4"/>
<path d="M287.122 283.053H232.707V288.188H287.122V283.053Z" fill="#C4C4C4"/>
<path d="M371.289 272.158H330.548V277.294H371.289V272.158Z" fill="#C4C4C4"/>
<path d="M377.736 283.053H330.548V288.188H377.736V283.053Z" fill="#C4C4C4"/>
<path d="M482.012 54.1689H433.669V59.0212H482.012V54.1689Z" fill="#B8D6FF"/>
<path d="M489.229 69.1904H433.669V74.0427H489.229V69.1904Z" fill="#B8D6FF"/>
<path d="M462.332 84.1328H433.589V88.9851H462.332V84.1328Z" fill="#B8D6FF"/>
<path d="M477.876 99.0752H433.589V103.927H477.876V99.0752Z" fill="#B8D6FF"/>
<path d="M352.437 307.563H140.905V312.529H352.437V307.563Z" fill="white"/>
<path d="M369.465 319.15H140.905V324.116H369.465V319.15Z" fill="white"/>
<path d="M289.207 330.736H140.905V335.702H289.207V330.736Z" fill="white"/>
<path d="M251.05 307.563H140.905V312.529H251.05V307.563Z" fill="#FFA347"/>
<path d="M259.909 319.15H140.905V324.116H259.909V319.15Z" fill="#FFA347"/>
<path d="M218.126 330.736H140.905V335.702H218.126V330.736Z" fill="#FFA347"/>
<path d="M214.897 145.443H171.812V150.76H214.897V145.443Z" fill="#D6D6D6"/>
<path d="M225.343 135.977H161.354V141.282H225.343V135.977Z" fill="#D6D6D6"/>
<path d="M204.576 63.0686C204.576 69.2133 199.591 74.2016 193.451 74.2016C187.31 74.2016 182.325 69.2133 182.325 63.0686C182.325 56.9239 187.31 51.9355 193.451 51.9355C199.591 51.9355 204.576 56.9125 204.576 63.0686Z" fill="url(#paint4_linear)"/>
<path d="M213.515 99.3577V120.524C207.374 123.324 200.543 124.878 193.349 124.878C186.154 124.878 179.323 123.324 173.182 120.524V99.3577C173.182 88.2134 182.212 79.1777 193.349 79.1777C204.497 79.1777 213.515 88.2134 213.515 99.3577Z" fill="url(#paint5_linear)"/>
<path d="M366.599 46.6064H262.968V53.2953H366.599V46.6064Z" fill="white"/>
<path d="M418.012 46.6064H377.735V53.2953H418.012V46.6064Z" fill="white"/>
<path d="M311.628 31.3809H262.968V38.0697H311.628V31.3809Z" fill="white"/>
<path d="M264.486 72.6484H263.614V151.872H264.486V72.6484Z" fill="#BDE1FF"/>
<path d="M286.545 72.6484H285.672V151.872H286.545V72.6484Z" fill="#BDE1FF"/>
<path d="M308.603 72.6484H307.73V151.872H308.603V72.6484Z" fill="#BDE1FF"/>
<path d="M330.65 72.6484H329.778V151.872H330.65V72.6484Z" fill="#BDE1FF"/>
<path d="M352.709 72.6484H351.836V151.872H352.709V72.6484Z" fill="#BDE1FF"/>
<path d="M374.767 72.6484H373.895V151.872H374.767V72.6484Z" fill="#BDE1FF"/>
<path d="M396.826 72.6484H395.953V151.872H396.826V72.6484Z" fill="#BDE1FF"/>
<path d="M418.872 72.6484H418V151.872H418.872V72.6484Z" fill="#BDE1FF"/>
<path d="M264.044 125.638L279.067 110.605L286.386 117.929L302.361 101.932L315.027 114.607L331.228 98.3837L342.342 109.494L370.609 81.208L391.795 102.408L404.632 89.5634L418.442 103.383V151.872H264.044V125.638Z" fill="#4AAFFF"/>
<path d="M264.044 135.591L276.054 123.574L283.644 131.17L292.436 122.383L308.988 138.947L329.676 118.234L337.097 125.66L358.453 104.289L377.951 123.812L418.408 83.3271V151.871H264.044V135.591Z" fill="#6F5BE0"/>
<path d="M272.859 65.9814H263.614V67.9428H272.859V65.9814Z" fill="#BDE1FF"/>
<path d="M291.994 65.9814H285.672V67.9428H291.994V65.9814Z" fill="#BDE1FF"/>
<path d="M315.548 65.9814H307.73V67.9428H315.548V65.9814Z" fill="#BDE1FF"/>
<path d="M335.601 65.9814H329.778V67.9428H335.601V65.9814Z" fill="#BDE1FF"/>
<path d="M356.697 65.9814H351.836V67.9428H356.697V65.9814Z" fill="#BDE1FF"/>
<path d="M383.343 65.9814H373.895V67.9428H383.343V65.9814Z" fill="#BDE1FF"/>
<path d="M402.536 65.9814H395.953V67.9428H402.536V65.9814Z" fill="#BDE1FF"/>
<path d="M422.158 65.9814H418V67.9428H422.158V65.9814Z" fill="#BDE1FF"/>
<path opacity="0.73" d="M542.228 345.146H442.098C435.64 345.146 430.395 339.908 430.395 333.435V189.613C430.395 183.15 435.629 177.901 442.098 177.901H542.228C548.685 177.901 553.931 183.139 553.931 189.613V333.435C553.931 339.908 548.685 345.146 542.228 345.146Z" fill="white"/>
<path d="M463.228 205.27H459.591V317.79H463.228V205.27Z" fill="#D6D6D6"/>
<path d="M483.734 205.27H480.097V317.79H483.734V205.27Z" fill="#D6D6D6"/>
<path d="M504.24 205.27H500.604V317.79H504.24V205.27Z" fill="#D6D6D6"/>
<path d="M524.735 205.27H521.099V317.79H524.735V205.27Z" fill="#D6D6D6"/>
<path d="M464.825 261.523H457.993V307.189H464.825V261.523Z" fill="url(#paint6_linear)"/>
<path d="M485.331 223.137H478.5V268.802H485.331V223.137Z" fill="url(#paint7_linear)"/>
<path d="M505.826 248.781H498.995V294.447H505.826V248.781Z" fill="url(#paint8_linear)"/>
<path d="M526.333 243.486H519.501V289.163H526.333V243.486Z" fill="url(#paint9_linear)"/>
<path d="M193.348 126.204C186.12 126.204 179.153 124.697 172.638 121.738C154.772 113.609 143.238 95.685 143.238 76.0605C143.238 48.4094 165.716 25.9053 193.36 25.9053C221.004 25.9053 243.481 48.398 243.481 76.0605C243.481 95.685 231.937 113.62 214.081 121.738C207.544 124.697 200.577 126.204 193.348 126.204ZM193.348 28.5468C167.177 28.5468 145.878 49.8605 145.878 76.0492C145.878 94.642 156.811 111.625 173.726 119.323C179.9 122.134 186.494 123.552 193.348 123.552C200.191 123.552 206.796 122.123 212.971 119.323C229.886 111.625 240.819 94.642 240.819 76.0492C240.819 49.8605 219.531 28.5468 193.348 28.5468Z" fill="url(#paint10_linear)"/>
<path d="M58.4939 247.953C58.4939 247.953 67.7727 226.911 57.0098 228.646C57.0098 228.646 53.339 231.684 49.5776 237.863C46.7226 242.545 40.7973 254.925 41.0239 259.12C41.2392 263.303 44.2188 266.432 47.4364 273.155C47.4364 273.155 54.1207 285.637 54.404 287.145L61.4736 283.472C61.4736 283.472 55.4916 271.534 51.2657 261.036L58.4939 247.953Z" fill="#6F5BE0"/>
<path d="M4.11259 311.055L146.354 286.816L142.23 262.623L0 286.85L4.11259 311.055Z" fill="url(#paint11_linear)"/>
<path d="M145.854 283.907L153.449 282.612L150.322 264.25L142.727 265.545L145.854 283.907Z" fill="#2D3038"/>
<path d="M112.23 426.24H113.986C113.986 426.24 113.397 419.619 115.028 419.551C116.648 419.483 120.67 424.936 123.072 425.786C125.474 426.625 137.789 427.339 137.857 425.072C137.925 422.804 133.121 421.886 131.637 421.24C130.141 420.594 122.879 413.519 121.588 412.669C120.285 411.819 118.076 405.957 118.076 405.957L111.199 405.651C111.199 405.651 110.813 411.139 110.394 414.041C110.236 415.118 110.122 416.093 110.111 416.762C110.032 419.233 112.23 426.24 112.23 426.24Z" fill="#EEA886"/>
<path d="M67.9202 424.936H69.3817V418.769C70.594 418.871 74.6839 422.737 75.9528 423.859C77.2217 424.982 78.9551 424.925 84.28 425.265C89.6048 425.605 90.1033 422.419 89.2649 421.331C88.4265 420.243 85.6961 419.767 84.28 419.086C82.8638 418.406 77.267 412.091 75.7715 410.595C74.2761 409.098 73.3697 404.824 73.3697 404.824L67.1385 405.368C67.1385 405.368 67.1838 409.28 66.4701 412.567C66.4701 412.579 66.4701 412.59 66.4587 412.59C66.4021 412.874 66.3341 413.146 66.2548 413.406C65.3371 416.842 67.9202 424.936 67.9202 424.936Z" fill="#EEA886"/>
<path d="M90.9417 285.275C90.9417 285.275 93.2982 290.842 93.5022 292.247C93.7061 293.653 99.2236 306.974 100.81 315.965C101.761 321.338 104.401 338.174 104.605 340.317C104.968 343.979 106.69 352.062 106.962 355.803C107.109 357.889 117.407 389.996 119.9 406.763C119.9 406.763 113.974 407.636 109.533 406.469C109.533 406.469 100.492 389.145 95.4735 364.578C92.4485 349.783 89.7748 341.892 87.4409 335.793C85.0957 329.694 71.8403 312.439 70.4581 310.5C69.0759 308.561 60.3975 297.848 68.6114 286.227C76.8252 274.607 90.9417 285.275 90.9417 285.275Z" fill="#1D3B54"/>
<path d="M61.2921 334.591C62.0399 339.591 61.2582 346.155 59.6834 364.431C58.1086 382.706 62.4251 404.836 62.4251 404.836C67.8519 406.695 74.0944 404.836 74.0944 404.836C73.9471 403.555 74.0944 360.292 74.0944 356.438C74.0944 352.583 75.2047 348.207 75.4879 343.786C75.6805 340.77 77.0854 335.215 78.6602 329.535C79.136 327.834 79.6232 326.123 80.099 324.467C80.3709 323.538 80.6315 322.631 80.8808 321.746C83.1013 314.037 86.0923 284.266 86.0923 284.266C86.0923 284.266 69.5287 270.922 61.4734 283.484C53.4068 296.045 57.5534 305.183 57.8367 306.759C58.1199 308.323 60.5444 329.592 61.2921 334.591Z" fill="#1D3B54"/>
<path d="M68.1582 307.745C68.2828 308.029 76.542 326.361 78.6606 329.535C79.1364 327.834 79.6236 326.123 80.0994 324.467C80.0994 324.467 68.4414 308.142 68.1582 307.745Z" fill="#122536"/>
<path d="M67.9202 424.937H69.3817V418.769C70.5939 418.871 74.6838 422.737 75.9527 423.86C77.2216 424.982 78.955 424.925 84.2799 425.265C89.6047 425.605 90.1032 422.42 89.2648 421.331C88.4265 420.243 85.6961 419.767 84.2799 419.087C78.5812 419.393 71.6249 411.377 68.294 411.389C66.5153 411.4 66.538 412.386 66.4813 412.568C66.4813 412.579 66.4813 412.59 66.47 412.59C66.4133 412.874 66.3454 413.146 66.2661 413.407C65.337 416.842 67.9202 424.937 67.9202 424.937Z" fill="#172F42"/>
<path d="M112.23 426.24H113.986C113.986 426.24 113.397 419.619 115.028 419.551C116.648 419.483 120.67 424.936 123.072 425.787C125.474 426.625 137.789 427.34 137.857 425.072C137.925 422.805 133.121 421.887 131.637 421.24C126.55 421.229 118.291 415.628 115.73 414.495C113.17 413.361 110.394 414.041 110.394 414.041C110.236 415.118 110.122 416.093 110.111 416.762C110.032 419.234 112.23 426.24 112.23 426.24Z" fill="#172F42"/>
<path d="M76.3154 215.382C76.3154 215.382 73.6756 222.377 75.7262 227.785C75.7262 227.785 66.0396 227.15 65.6657 226.027C65.3032 224.894 66.0509 214.418 64.7254 211.312C63.3998 208.217 76.3154 215.382 76.3154 215.382Z" fill="#EEA886"/>
<path d="M77.2556 225.426C77.2556 225.426 82.977 227.466 85.5714 228.033C88.1545 228.6 93.57 231.162 93.1282 240.821C92.6863 250.481 91.0775 258.859 90.4884 263.008C89.8993 267.157 90.2731 277.724 91.2248 282.848C91.2248 282.848 77.5049 286.317 61.3491 282.848C61.3491 282.848 64.2154 274.096 64.1361 271.828C64.0681 269.561 54.5967 250.923 54.1549 247.986C53.713 245.039 51.8097 232.069 56.1375 229.201C60.4654 226.333 63.9888 226.707 65.8242 225.426C67.6596 224.133 74.5819 224.496 77.2556 225.426Z" fill="#6F5BE0"/>
<path d="M55.1629 298.018C78.6149 304.242 97.2745 298.04 97.2745 298.04C95.575 294.537 94.3175 291.045 93.4111 287.667C92.7653 285.275 92.3008 282.951 91.9723 280.706C90.0689 267.918 92.5501 258.134 92.5501 258.134C89.8423 235.845 56.1372 229.19 53.4408 236.253C50.7444 243.316 58.675 273.688 59.0716 276.284C59.4681 278.903 55.1629 298.018 55.1629 298.018Z" fill="#6F5BE0"/>
<path d="M67.8745 187.322C71.7719 185.984 82.2969 184.567 84.9933 200.734C87.6897 216.901 81.8211 217.184 75.7825 216.719C69.7439 216.254 60.3065 205.348 59.5814 202.026C58.8676 198.704 56.7603 191.131 67.8745 187.322Z" fill="#EEA886"/>
<path d="M82.8298 193.535C82.8298 193.535 79.6123 200.417 75.3977 202.82C75.3977 202.82 72.758 210.133 67.0366 213.092C67.0366 213.092 51.8551 203.024 60.6581 191.064C69.4611 179.092 81.8328 188.626 82.8298 193.535Z" fill="#E8734D"/>
<path d="M75.7602 200.428C75.4203 199.589 73.1431 198.217 72.1234 200.53C71.1038 202.843 74.7632 206.902 75.7715 206.686C76.7798 206.459 77.0631 203.614 75.7602 200.428Z" fill="#EEA886"/>
<path d="M61.1679 192.912C60.8394 192.39 50.7788 187.731 48.6829 197.469C46.5869 207.208 56.7834 218.522 58.5622 223.386C60.3522 228.249 57.7578 239.666 57.7578 239.666C57.7578 239.666 63.887 233.861 65.745 227.796C67.7843 221.118 68.4754 204.305 61.1679 192.912Z" fill="#E8734D"/>
<path d="M60.6577 192.571C60.6577 192.571 63.7393 195.008 64.1359 198.852C64.1359 198.852 64.7137 195.847 63.4674 194.022C62.2325 192.185 60.6577 192.571 60.6577 192.571Z" fill="#E54242"/>
<path d="M93.4115 287.667C92.7657 285.275 92.3012 282.951 91.9726 280.706C91.9726 280.706 90.4318 277.418 89.9107 275.842C89.3895 274.267 85.5035 254.948 85.5035 254.948C85.5035 254.948 81.3909 273.099 93.4115 287.667Z" fill="#1D3B54"/>
<path d="M110.677 288.789C110.677 288.789 113.702 291.793 114.677 292.1C115.651 292.406 117.543 290.739 124.488 290.218C125.1 290.172 126.165 290.716 125.915 291.533C125.666 292.338 122.641 294.526 121.35 294.866C120.058 295.195 113.951 297.621 110.983 296.43C108.003 295.24 105.987 291.453 105.987 291.453L110.677 288.789Z" fill="#EEA886"/>
<path d="M87.1914 228.556C87.1914 228.556 95.224 231.741 95.6998 242.908C96.1756 254.075 96.6062 259.903 97.048 261.626C97.4785 263.349 98.3169 270.276 100.334 274.448C102.294 278.496 115.164 291.295 115.164 291.295L108.933 297.156C108.933 297.156 90.9981 279.142 89.9105 275.854C88.8228 272.566 84.3364 249.643 83.9851 245.777C83.6793 242.659 79.578 228.782 87.1914 228.556Z" fill="#6F5BE0"/>
<path opacity="0.1" d="M315.117 254.222C315.117 297.19 280.302 332.029 237.363 332.029C194.425 332.029 159.609 297.19 159.609 254.222C159.609 211.255 194.425 176.416 237.363 176.416C280.313 176.416 315.117 211.255 315.117 254.222Z" fill="#B8B8B8"/>
<path opacity="0.3" d="M187.151 199C187.151 199 283.984 186.994 303.278 289.254C308.83 278.813 311.979 266.886 311.979 254.223C311.979 212.99 278.569 179.557 237.363 179.557C218.035 179.557 200.407 186.914 187.151 199Z" fill="#869AC2"/>
<path d="M237.375 164.897C188.069 164.897 148.099 204.895 148.099 254.222C148.099 303.561 188.069 343.559 237.375 343.559C286.68 343.559 326.651 303.561 326.651 254.222C326.651 204.895 286.68 164.897 237.375 164.897ZM237.375 329.013C196.102 329.013 162.634 295.535 162.634 254.222C162.634 212.921 196.09 179.432 237.375 179.432C278.648 179.432 312.115 212.91 312.115 254.222C312.115 295.535 278.648 329.013 237.375 329.013Z" fill="#3F444F"/>
<path d="M572.976 409.542C572.976 409.542 573.701 414.439 573.791 415.176C573.882 415.913 581.858 414.745 581.858 414.745L582.504 408.918C582.504 408.907 573.973 408.85 572.976 409.542Z" fill="#5C544D"/>
<path d="M573.712 414.552C573.712 414.552 571.185 417.499 568.738 418.792C566.291 420.073 562.45 420.583 561.011 421.921C559.969 422.885 557.216 427.023 567.356 426.932C577.507 426.853 582.401 427.521 583.489 425.934C584.577 424.347 581.914 414.234 581.914 414.234C581.914 414.234 579.512 415.062 573.712 414.552Z" fill="#1C1E26"/>
<path d="M515.853 409.542C515.853 409.542 516.578 414.439 516.668 415.176C516.759 415.913 524.735 414.745 524.735 414.745L525.381 408.918C525.369 408.907 516.85 408.85 515.853 409.542Z" fill="#5C544D"/>
<path d="M516.577 414.552C516.577 414.552 514.051 417.499 511.604 418.792C509.156 420.073 500.172 421.139 498.722 422.465C497.68 423.429 495.946 427.295 510.221 426.932C520.361 426.671 525.267 427.521 526.343 425.934C527.431 424.347 524.768 414.234 524.768 414.234C524.768 414.234 522.525 415.119 516.577 414.552Z" fill="#1C1E26"/>
<path d="M570.143 283.155C570.143 283.155 574.392 295.309 573.825 305.773C573.27 316.237 576.023 327.699 577.145 338.639C578.402 350.826 583.535 379.691 583.716 386.221C583.897 392.74 582.923 413.566 582.923 413.566L572.647 413.793C572.647 413.793 564.014 363.331 561.782 358.184C559.55 353.037 548.459 316.328 548.085 312.212C547.711 308.086 570.143 283.155 570.143 283.155Z" fill="#20284D"/>
<path d="M526.932 285.31C526.932 285.31 521.29 314.004 520.543 320.409C519.795 326.815 519.296 351.416 518.922 355.418C518.549 359.42 516.441 407.818 514.447 413.77H527.589C527.589 413.77 537.673 378.58 537.673 361.937C537.673 345.294 545.467 325.749 550.498 314.763C555.528 303.778 567.039 303.517 570.132 283.144C570.143 283.156 531.124 278.848 526.932 285.31Z" fill="#20284D"/>
<path d="M553.636 187.255C553.636 187.255 543.281 183.525 538.5 191.121C533.719 198.716 534.183 213.931 539.406 215.801C544.629 217.672 552.469 216.697 555.143 211.935C557.817 207.185 560.23 200.304 560.117 195.712C560.003 191.121 556.355 188.581 553.636 187.255Z" fill="#EEA886"/>
<path d="M541.151 215.337C541.151 215.337 541.57 217.956 540.879 219.248C540.188 220.541 553.908 220.575 553.908 220.575C553.908 220.575 555.018 213.568 557.137 207.639C559.244 201.71 541.151 215.337 541.151 215.337Z" fill="#EEA886"/>
<path d="M557.125 207.628C557.125 207.628 556.174 209.136 552.31 208.546C548.447 207.956 543.734 203.002 542.114 202.458C540.505 201.914 540.483 200.996 540.483 200.996L539.474 202.413L537.763 202.515C537.763 202.515 539.327 198.082 536.97 196.268C534.614 194.465 539.418 181.915 551.812 186.099C551.812 186.099 561.329 188.627 560.989 193.842C560.649 199.091 559.255 205.032 557.125 207.628Z" fill="#FCCCA2"/>
<path d="M540.063 219.09C540.063 219.09 540.109 216.629 541.264 216.391C542.42 216.153 554.044 215.076 555.471 215.62V218.489C555.471 218.477 552.73 220.11 540.063 219.09Z" fill="#E2D2CA"/>
<path d="M540.754 199.114C540.969 198.241 543.281 195.735 544.164 198.411C545.048 201.087 542.828 204.692 541.593 204.386C540.346 204.08 540.199 201.336 540.754 199.114Z" fill="#EEA886"/>
<path d="M540.063 219.09C540.063 219.09 533.685 221.3 526.309 224.327C526.309 224.327 517.812 227.388 516.895 236.424C516.407 241.22 511.105 266.683 510.108 268.837C509.111 270.991 497.363 305.603 496.943 306.328C496.524 307.043 506.539 311.056 507.197 310.727C507.854 310.41 518.583 279.153 519.659 276.841C519.659 276.841 525.834 258.1 525.992 255.312C525.992 255.312 526.173 263.27 526.502 265.504C526.831 267.737 521.019 311.124 521.177 312.326C521.347 313.527 547.62 315.047 558.134 313.924C568.648 312.802 577.133 310.478 577.133 310.478C577.133 310.478 568.863 276.24 569.112 272.442C569.667 264.166 572.534 248.589 572.534 248.589L581.11 264.166L570.132 291.375L572.647 299.651C572.647 299.651 593.04 269.948 593.708 267.238C594.365 264.529 592.711 261.071 591.635 258.837C590.559 256.604 583.489 239.598 581.835 237.206C580.181 234.814 577.383 225.223 570.619 222.559C564.965 220.325 555.471 218.5 555.471 218.5L540.063 219.09Z" fill="#313D75"/>
<path d="M526.037 322.008L477.989 310.127L486.588 277.827L534.637 289.697L526.037 322.008Z" fill="#C4C4C4"/>
<path d="M492.763 313.38C492.763 313.38 491.392 315.523 490.893 316.123C490.395 316.736 492.128 317.121 492.865 316.498C493.612 315.885 492.763 313.38 492.763 313.38Z" fill="#C98462"/>
<path d="M502.767 320.681C502.767 320.681 503.582 319.865 503.752 319.344C503.752 319.344 503.99 318.369 504.205 317.688C504.273 317.473 504.341 317.28 504.398 317.167C504.625 316.679 505.282 315.67 505.497 314.355C505.712 313.04 506.313 307.111 506.313 307.111L502.585 306.204L499.594 305.592C499.594 305.592 493.137 311.805 492.785 313.006C492.751 313.12 492.729 313.244 492.706 313.358C492.513 314.412 492.831 315.262 492.797 315.829C492.785 316.033 492.819 318.097 493.318 318.482C494.009 319.015 494.711 319.117 495.289 318.936C495.289 318.936 496.694 319.933 497.861 319.865C497.861 319.865 499.119 320.817 500.557 320.341C500.569 320.364 501.951 321.192 502.767 320.681Z" fill="#DE9D7D"/>
<path d="M517.302 283.212C517.302 283.212 508.771 308.097 507.208 310.716C507.208 310.716 500.954 309.446 496.955 306.317L506.313 279.448L517.302 283.212Z" fill="#313D75"/>
</g>
<defs>
<linearGradient id="paint0_linear" x1="317.967" y1="410.294" x2="317.967" y2="313.65" gradientUnits="userSpaceOnUse">
<stop stop-color="#D5E4FF"/>
<stop offset="1" stop-color="#EDFFFE"/>
</linearGradient>
<linearGradient id="paint1_linear" x1="479.873" y1="138.202" x2="520.065" y2="73.6279" gradientUnits="userSpaceOnUse">
<stop offset="0.00518135" stop-color="#3C6127"/>
<stop offset="1" stop-color="#639C38"/>
</linearGradient>
<linearGradient id="paint2_linear" x1="486.554" y1="135.944" x2="561.407" y2="76.747" gradientUnits="userSpaceOnUse">
<stop offset="0.00518135" stop-color="#3C6127"/>
<stop offset="1" stop-color="#639C38"/>
</linearGradient>
<linearGradient id="paint3_linear" x1="457.285" y1="444.784" x2="211.273" y2="-24.9112" gradientUnits="userSpaceOnUse">
<stop stop-color="#D5E4FF"/>
<stop offset="1" stop-color="#EDFFFE"/>
</linearGradient>
<linearGradient id="paint4_linear" x1="193.449" y1="33.7559" x2="193.449" y2="152.919" gradientUnits="userSpaceOnUse">
<stop stop-color="#40D5E6"/>
<stop offset="1" stop-color="#5577FF"/>
</linearGradient>
<linearGradient id="paint5_linear" x1="193.351" y1="33.755" x2="193.351" y2="152.918" gradientUnits="userSpaceOnUse">
<stop stop-color="#40D5E6"/>
<stop offset="1" stop-color="#5577FF"/>
</linearGradient>
<linearGradient id="paint6_linear" x1="461.407" y1="248.952" x2="461.407" y2="352.487" gradientUnits="userSpaceOnUse">
<stop stop-color="#FFC05C"/>
<stop offset="1" stop-color="#FF3857"/>
</linearGradient>
<linearGradient id="paint7_linear" x1="481.912" y1="248.953" x2="481.912" y2="352.488" gradientUnits="userSpaceOnUse">
<stop stop-color="#FFC05C"/>
<stop offset="1" stop-color="#FF3857"/>
</linearGradient>
<linearGradient id="paint8_linear" x1="502.417" y1="248.952" x2="502.417" y2="352.487" gradientUnits="userSpaceOnUse">
<stop stop-color="#FFC05C"/>
<stop offset="1" stop-color="#FF3857"/>
</linearGradient>
<linearGradient id="paint9_linear" x1="522.922" y1="248.951" x2="522.922" y2="352.489" gradientUnits="userSpaceOnUse">
<stop stop-color="#FFC05C"/>
<stop offset="1" stop-color="#FF3857"/>
</linearGradient>
<linearGradient id="paint10_linear" x1="193.351" y1="43.2427" x2="193.351" y2="161.062" gradientUnits="userSpaceOnUse">
<stop stop-color="#D3DAE0"/>
<stop offset="1" stop-color="white"/>
</linearGradient>
<linearGradient id="paint11_linear" x1="0" y1="286.837" x2="146.353" y2="286.837" gradientUnits="userSpaceOnUse">
<stop stop-color="#FF9F55"/>
<stop offset="1" stop-color="#FFD255"/>
</linearGradient>
<clipPath id="clip0">
<rect width="595" height="427" fill="white"/>
</clipPath>
</defs>
</svg>
