<svg width="573" height="478" viewBox="0 0 573 478" fill="none" xmlns="http://www.w3.org/2000/svg">
<g clip-path="url(#clip0)">
<path d="M359.246 402.583H152.561C148.306 402.583 144.854 399.138 144.854 394.891V370.997C144.854 366.75 148.306 363.305 152.561 363.305H359.246C363.501 363.305 366.952 366.75 366.952 370.997V394.891C366.952 399.138 363.501 402.583 359.246 402.583Z" fill="url(#paint0_linear)"/>
<path d="M433.343 292.551C420.938 284.955 410.529 289.673 407.577 291.333C407.036 291.637 406.745 291.845 406.745 291.845C406.898 291.25 407.175 290.558 407.535 289.77C412.137 280.03 432.331 257.464 450.502 259.719C470.115 262.154 464.557 243.781 483.933 236.047C510.268 225.532 520.525 252.705 520.525 252.705C513.109 245.275 486.899 252.76 476.948 269.404C467.01 286.034 448.049 301.544 433.343 292.551Z" fill="#609A3E"/>
<path d="M440.037 275.076C432.858 275.145 426.094 275.201 421.714 279.78C417.889 283.779 412.622 287.846 407.59 291.319C407.05 291.623 406.759 291.831 406.759 291.831C406.911 291.236 407.188 290.544 407.549 289.756C412.289 286.435 417.182 282.616 420.772 278.867C425.526 273.9 432.567 273.831 440.024 273.762C448.478 273.679 457.224 273.61 463.406 266.291C475.201 252.303 487.079 246.963 487.19 246.907L487.731 248.111C487.62 248.152 475.991 253.41 464.404 267.148C457.834 274.924 448.783 275.007 440.037 275.076Z" fill="url(#paint1_linear)"/>
<path d="M89.9815 35.1421C94.3059 63.1312 110.633 91.1064 113.461 95.7966C113.724 96.2393 113.877 96.4745 113.877 96.4745C113.877 96.4745 113.516 96.7789 112.809 97.2632C109.136 99.8089 96.1771 107.446 76.7033 104.402C53.4872 100.777 45.074 87.3847 42.0663 42.973C39.8625 10.7226 5.00379 8.7718 4.36621 8.73029C52.6972 -13.5586 86.2669 11.0823 89.9815 35.1421Z" fill="#609A3E"/>
<path d="M80.4456 83.1235C91.52 97.0558 110.703 96.032 113.447 95.7968C113.71 96.2395 113.863 96.4747 113.863 96.4747C113.863 96.4747 113.502 96.7791 112.796 97.2633C108.083 97.5262 90.0785 97.54 79.3229 84.009C72.8779 75.9014 69.2187 62.91 65.9893 51.4542C63.037 40.9808 60.2511 31.0885 55.9683 27.3114L56.9246 26.2461C61.5124 30.2999 64.229 39.9155 67.3753 51.0668C70.5493 62.3981 74.1807 75.2373 80.4456 83.1235Z" fill="url(#paint2_linear)"/>
<path d="M68.3592 83.3858C79.1009 87.4949 87.9577 92.6694 88.5259 98.2727C88.5537 98.6048 88.5675 98.9368 88.5398 99.255C88.2765 102.866 84.4926 106.629 75.5527 110.406C51.7545 120.423 39.4742 109.549 24.81 101.552C10.3398 93.6379 0.249486 107.238 0 107.584C18.3372 70.6572 50.1328 76.4266 68.3592 83.3858Z" fill="#609A3E"/>
<path d="M88.5259 98.2726C88.5536 98.6047 88.5675 98.9367 88.5397 99.2549C83.4114 100.472 73.2102 102.396 65.7672 100.638C62.2605 99.8083 58.6984 98.4801 54.9284 97.0966C47.8181 94.454 40.4444 91.7284 32.4608 91.936L32.4331 90.9813C40.6107 90.7876 48.0537 93.5409 55.2611 96.2111C59.0034 97.5947 62.5239 98.909 65.9751 99.7253C73.2379 101.441 83.5223 99.4625 88.5259 98.2726Z" fill="url(#paint3_linear)"/>
<path d="M505.708 211.143C491.972 222.833 474.854 216.732 470.71 249.453C467.12 277.691 432.913 269.487 423.627 266.719C422.158 266.277 421.312 265.972 421.312 265.972C421.312 265.972 421.7 265.862 422.365 265.64C426.662 264.174 442.504 257.809 439.275 244.832C435.547 229.834 436.35 205.885 453.912 201.499C471.459 197.113 467.938 184.053 473.801 169.083C479.664 154.113 506.026 159.329 506.026 159.329C506.026 159.329 519.443 199.452 505.708 211.143Z" fill="#609A3E"/>
<path d="M455.409 235.756C455.548 242.521 455.7 249.522 450.627 256.468C443.697 265.931 431.486 267.093 423.614 266.72C422.144 266.277 421.299 265.972 421.299 265.972C421.299 265.972 421.687 265.862 422.352 265.64C429.892 266.208 442.769 265.53 449.823 255.886C454.702 249.218 454.55 242.383 454.411 235.784C454.245 228.146 454.079 220.246 461.743 212.858C465.125 209.593 468.784 207.781 472.319 206.024C477.419 203.506 482.229 201.112 485.14 194.609L486.054 195.011C482.991 201.845 478.015 204.308 472.762 206.909C469.297 208.625 465.707 210.396 462.436 213.564C455.09 220.661 455.243 227.994 455.409 235.756Z" fill="url(#paint4_linear)"/>
<path d="M436.185 386.161H75.6222C66.904 386.161 59.8491 379.104 59.8491 370.416V49.0328C59.8491 40.3303 66.9179 33.2881 75.6222 33.2881H436.185C444.903 33.2881 451.958 40.3442 451.958 49.0328V370.416C451.958 379.118 444.889 386.161 436.185 386.161Z" fill="url(#paint5_linear)"/>
<path d="M80.3761 76.4268H79.3643V183.139H80.3761V76.4268Z" fill="#E0E0E0"/>
<path d="M152.838 76.4268H151.812V183.139H152.838V76.4268Z" fill="#E0E0E0"/>
<path d="M225.272 76.4268H224.26V183.139H225.272V76.4268Z" fill="#E0E0E0"/>
<path d="M297.734 76.4268H296.708V183.139H297.734V76.4268Z" fill="#E0E0E0"/>
<path d="M370.168 76.4268H369.156V183.139H370.168V76.4268Z" fill="#E0E0E0"/>
<path d="M91.4088 189.462H79.877V193.17H91.4088V189.462Z" fill="#B8B8B8"/>
<path d="M97.2301 63.2832H79.877V66.0641H97.2301V63.2832Z" fill="#D9D9D9"/>
<path d="M104.493 68.4297H79.877V71.2106H104.493V68.4297Z" fill="#D9D9D9"/>
<path d="M171.91 63.2832H151.535V66.0641H171.91V63.2832Z" fill="#D9D9D9"/>
<path d="M164.564 68.4297H151.535V71.2106H164.564V68.4297Z" fill="#D9D9D9"/>
<path d="M237.912 63.2832H225.286V66.0641H237.912V63.2832Z" fill="#D9D9D9"/>
<path d="M240.005 68.4297H225.286V71.2106H240.005V68.4297Z" fill="#D9D9D9"/>
<path d="M316.127 63.2832H297.734V66.0641H316.127V63.2832Z" fill="#D9D9D9"/>
<path d="M312.454 68.4297H297.734V71.2106H312.454V68.4297Z" fill="#D9D9D9"/>
<path d="M380.646 63.2832H369.669V66.0641H380.646V63.2832Z" fill="#D9D9D9"/>
<path d="M378.456 68.4297H369.669V71.2106H378.456V68.4297Z" fill="#D9D9D9"/>
<path d="M163.857 189.462H152.325V193.17H163.857V189.462Z" fill="#B8B8B8"/>
<path d="M236.817 189.462H225.286V193.17H236.817V189.462Z" fill="#B8B8B8"/>
<path d="M309.266 189.462H297.734V193.17H309.266V189.462Z" fill="#B8B8B8"/>
<path d="M381.713 189.462H370.182V193.17H381.713V189.462Z" fill="#B8B8B8"/>
<path d="M344.568 151.443C321.975 151.443 302.322 141.689 281.85 131.52C256.569 118.971 230.428 105.994 195.597 109.549C173.351 111.818 159.394 120.867 147.072 128.836C135.914 136.058 125.38 142.408 111.09 142.948C88.013 143.82 80.0017 133.996 79.877 133.401V127.093C79.9047 127.203 84.9498 138.23 111.077 138.106C123.939 138.036 133.433 131.893 144.438 124.768C157.218 116.495 171.702 107.114 195.112 104.721C231.343 101.027 258.121 114.322 284.026 127.176C311.123 140.624 336.986 153.241 369.697 142.298V147.486C360.355 150.613 352.898 151.443 344.568 151.443Z" fill="url(#paint6_linear)"/>
<path d="M208.917 150.225C192.243 150.225 179.006 139.032 166.06 128.061C156.247 119.745 146.046 111.251 134.293 107.058C98.3944 94.2606 80.0433 117.629 79.877 117.836V110.725C80.071 110.476 83.342 106.242 92.8225 102.188C101.444 98.4943 115.928 95.5612 135.887 102.479C148.541 106.865 159.047 115.761 169.207 124.367C189.817 141.813 207.614 156.866 238.522 133.277C261.932 115.401 283.998 98.3836 305.717 92.1576C326.951 86.0701 349.1 90.5251 369.821 111.223L369.669 117.67C325.648 73.5213 288.156 101.497 241.475 137.137C229.097 146.572 218.453 150.225 208.917 150.225Z" fill="url(#paint7_linear)"/>
<path d="M144.356 242.811C139.421 229.045 126.24 220.592 112.352 221.007C108.984 221.104 105.588 221.726 102.248 222.916C92.1298 226.527 84.8809 234.566 81.9009 244.07C79.8357 250.656 79.8219 257.947 82.3306 264.948C82.5801 265.64 82.8573 266.332 83.1345 266.996C84.4512 270.026 86.1837 272.765 88.2351 275.186C96.8562 285.3 111.16 289.575 124.424 284.843C141.556 278.728 150.482 259.912 144.356 242.811ZM121.652 277.096C111.701 280.651 100.987 277.441 94.5138 269.86C92.9753 268.047 91.6724 266 90.6884 263.717C90.4666 263.219 90.2725 262.707 90.0785 262.181C88.1935 256.937 88.2074 251.472 89.7597 246.533C91.9912 239.408 97.4383 233.376 105.02 230.664C107.529 229.765 110.079 229.308 112.602 229.225C123.011 228.907 132.893 235.257 136.594 245.565C141.182 258.404 134.487 272.516 121.652 277.096Z" fill="white"/>
<path d="M89.7599 246.533L81.8872 244.084C84.8672 234.579 92.1161 226.541 102.234 222.93C105.575 221.74 108.984 221.117 112.338 221.021L112.588 229.253C110.065 229.336 107.515 229.792 105.006 230.691C97.4246 233.376 91.9914 239.408 89.7599 246.533Z" fill="#FF4F58"/>
<path d="M90.6883 263.717L83.1345 266.996C82.8434 266.332 82.5662 265.64 82.3306 264.948C79.8219 257.947 79.8357 250.656 81.9009 244.07L89.7736 246.519C88.2212 251.458 88.2073 256.923 90.0924 262.167C90.2725 262.707 90.4666 263.219 90.6883 263.717Z" fill="#FF6F59"/>
<path d="M88.2349 275.2C86.1836 272.793 84.451 270.053 83.1343 267.009L90.6882 263.73C91.6722 265.999 92.9751 268.061 94.5136 269.873L88.2349 275.2Z" fill="#FFAD5B"/>
<path d="M234.961 265.986C240.352 252.399 236.042 237.36 225.328 228.519C222.736 226.375 219.77 224.604 216.471 223.303C206.478 219.36 195.708 220.619 187.184 225.808C181.279 229.391 176.456 234.87 173.712 241.774C173.435 242.466 173.185 243.157 172.963 243.849C171.951 247.004 171.439 250.2 171.397 253.368C171.189 266.65 179.117 279.282 192.215 284.456C209.125 291.139 228.266 282.879 234.961 265.986ZM195.251 276.805C185.424 272.917 179.491 263.454 179.644 253.492C179.686 251.113 180.06 248.719 180.822 246.353C180.988 245.828 181.182 245.316 181.376 244.79C183.428 239.602 187.045 235.506 191.481 232.822C197.87 228.935 205.951 227.994 213.435 230.954C215.903 231.937 218.134 233.265 220.075 234.87C228.114 241.497 231.343 252.759 227.296 262.956C222.278 275.615 207.933 281.813 195.251 276.805Z" fill="white"/>
<path d="M191.481 232.836L187.184 225.808C195.708 220.633 206.478 219.36 216.471 223.303C219.77 224.604 222.736 226.389 225.328 228.519L220.075 234.856C218.134 233.251 215.903 231.923 213.436 230.941C205.937 228.007 197.87 228.948 191.481 232.836Z" fill="#4B59C7"/>
<path d="M180.822 246.367L172.963 243.863C173.185 243.171 173.435 242.479 173.712 241.787C176.456 234.87 181.28 229.405 187.184 225.821L191.481 232.85C187.059 235.548 183.442 239.643 181.377 244.817C181.169 245.329 180.989 245.841 180.822 246.367Z" fill="#6F5BE0"/>
<path d="M171.397 253.367C171.439 250.199 171.951 247.003 172.963 243.849L180.822 246.353C180.06 248.719 179.672 251.112 179.644 253.492L171.397 253.367Z" fill="#B487FE"/>
<path d="M300.38 221.395C285.909 219.154 272.174 226.694 265.923 239.077C264.412 242.079 263.331 245.358 262.79 248.858C261.155 259.456 264.772 269.667 271.716 276.806C276.526 281.759 282.943 285.245 290.303 286.38C291.038 286.491 291.772 286.587 292.493 286.643C295.792 286.933 299.035 286.712 302.14 286.062C315.155 283.322 325.744 272.807 327.892 258.903C330.678 240.972 318.356 224.162 300.38 221.395ZM319.742 257.658C318.121 268.076 310.193 275.962 300.435 278.023C298.106 278.508 295.681 278.674 293.2 278.452C292.659 278.397 292.105 278.341 291.551 278.258C286.034 277.401 281.225 274.8 277.621 271.078C272.409 265.724 269.693 258.073 270.926 250.131C271.328 247.502 272.146 245.053 273.269 242.798C277.954 233.515 288.252 227.87 299.104 229.544C312.591 231.605 321.835 244.196 319.742 257.658Z" fill="white"/>
<path d="M277.636 271.064L271.718 276.805C264.774 269.666 261.142 259.456 262.792 248.858C263.332 245.357 264.413 242.078 265.924 239.076L273.284 242.784C272.147 245.039 271.343 247.502 270.942 250.117C269.708 258.058 272.425 265.709 277.636 271.064Z" fill="#1A598C"/>
<path d="M293.215 278.452L292.508 286.657C291.787 286.588 291.053 286.505 290.318 286.394C282.958 285.259 276.541 281.773 271.731 276.82L277.65 271.078C281.254 274.786 286.063 277.401 291.579 278.259C292.12 278.328 292.661 278.397 293.215 278.452Z" fill="#2273B5"/>
<path d="M302.141 286.062C299.036 286.712 295.793 286.934 292.494 286.643L293.201 278.439C295.668 278.66 298.108 278.494 300.436 278.01L302.141 286.062Z" fill="#3788CC"/>
<path d="M146.282 302.401H80.376V307.479H146.282V302.401Z" fill="#BDC1C9"/>
<path d="M129.691 313.179H80.376V318.256H129.691V313.179Z" fill="#BDC1C9"/>
<path d="M207.725 302.401H171.383V307.479H207.725V302.401Z" fill="#BDC1C9"/>
<path d="M225.327 313.179H171.383V318.256H225.327V313.179Z" fill="#BDC1C9"/>
<path d="M308.766 302.401H268.377V307.479H308.766V302.401Z" fill="#BDC1C9"/>
<path d="M315.156 313.179H268.377V318.256H315.156V313.179Z" fill="#BDC1C9"/>
<path opacity="0.73" d="M462.616 364.951H378.165C371.97 364.951 366.952 359.943 366.952 353.758V65.6909C366.952 59.5065 371.97 54.498 378.165 54.498H462.616C468.812 54.498 473.829 59.5065 473.829 65.6909V353.758C473.829 359.943 468.812 364.951 462.616 364.951Z" fill="white"/>
<path d="M290.069 337.418H80.376V342.329H290.069V337.418Z" fill="white"/>
<path d="M306.951 348.874H80.376V353.786H306.951V348.874Z" fill="white"/>
<path d="M227.393 360.33H80.376V365.242H227.393V360.33Z" fill="white"/>
<path d="M449.726 105.716C449.726 117.573 442.671 127.784 432.512 132.391C428.825 134.065 424.708 135.006 420.384 135.006C416.059 135.006 411.957 134.079 408.256 132.391C398.11 127.784 391.042 117.573 391.042 105.716C391.042 89.5426 404.167 76.4404 420.37 76.4404C436.573 76.4404 449.726 89.5426 449.726 105.716Z" fill="#F5F5F5"/>
<path d="M427.134 97.9267C427.134 101.621 424.14 104.609 420.453 104.609C416.753 104.609 413.759 101.621 413.759 97.9267C413.759 94.2326 416.753 91.2441 420.453 91.2441C424.14 91.2441 427.134 94.2326 427.134 97.9267Z" fill="#FFB95C"/>
<path d="M432.511 119.69V132.391C428.825 134.065 424.708 135.006 420.384 135.006C416.059 135.006 411.957 134.079 408.256 132.391V119.69C408.256 113.007 413.675 107.584 420.384 107.584C427.092 107.584 432.511 113.007 432.511 119.69Z" fill="#FFB95C"/>
<path d="M445.138 146.946H395.643V150.128H445.138V146.946Z" fill="#D6D6D6"/>
<path d="M439.622 141.273H401.16V144.456H439.622V141.273Z" fill="#D6D6D6"/>
<path d="M433.343 240.321H407.438V243.503H433.343V240.321Z" fill="#D6D6D6"/>
<path d="M439.622 234.648H401.16V237.831H439.622V234.648Z" fill="#D6D6D6"/>
<path d="M438.194 334.236H402.573V337.418H438.194V334.236Z" fill="#D6D6D6"/>
<path d="M443.129 328.563H397.667V331.746H443.129V328.563Z" fill="#D6D6D6"/>
<path d="M449.726 198.718C449.726 210.575 442.671 220.786 432.512 225.393C428.825 227.067 424.708 228.008 420.384 228.008C416.059 228.008 411.957 227.081 408.256 225.393C398.11 220.786 391.042 210.575 391.042 198.718C391.042 182.545 404.167 169.442 420.37 169.442C436.573 169.442 449.726 182.545 449.726 198.718Z" fill="#F5F5F5"/>
<path d="M427.134 190.929C427.134 194.609 424.14 197.611 420.453 197.611C416.753 197.611 413.759 194.623 413.759 190.929C413.759 187.235 416.753 184.246 420.453 184.246C424.14 184.246 427.134 187.235 427.134 190.929Z" fill="#FF6F59"/>
<path d="M432.511 212.692V225.393C428.825 227.067 424.708 228.008 420.384 228.008C416.059 228.008 411.957 227.081 408.256 225.393V212.692C408.256 206.009 413.675 200.586 420.384 200.586C427.092 200.586 432.511 206.009 432.511 212.692Z" fill="#FF6F59"/>
<path d="M449.726 291.72C449.726 303.577 442.671 313.788 432.512 318.395C428.825 320.069 424.708 321.01 420.384 321.01C416.059 321.01 411.957 320.083 408.256 318.395C398.11 313.788 391.042 303.577 391.042 291.72C391.042 275.546 404.167 262.444 420.37 262.444C436.573 262.444 449.726 275.546 449.726 291.72Z" fill="#F5F5F5"/>
<path d="M427.134 283.931C427.134 287.611 424.14 290.613 420.453 290.613C416.753 290.613 413.759 287.625 413.759 283.931C413.759 280.236 416.753 277.248 420.453 277.248C424.14 277.248 427.134 280.236 427.134 283.931Z" fill="#3788CC"/>
<path d="M432.511 305.694V318.395C428.825 320.069 424.708 321.01 420.384 321.01C416.059 321.01 411.957 320.083 408.256 318.395V305.694C408.256 299.011 413.675 293.588 420.384 293.588C427.092 293.588 432.511 299.011 432.511 305.694Z" fill="#3788CC"/>
<path d="M429.352 377.818H411.541C409.337 377.818 407.549 376.033 407.549 373.833V356.055C407.549 353.855 409.337 352.07 411.541 352.07H429.352C431.555 352.07 433.343 353.855 433.343 356.055V373.833C433.343 376.033 431.555 377.818 429.352 377.818Z" fill="white"/>
<path d="M420.509 370.554L413.481 363.539L415.339 361.686L420.509 366.846L425.568 361.796L427.411 363.65L420.509 370.554Z" fill="#D6D6D6"/>
<path d="M411.541 41.6172H429.352C431.555 41.6172 433.343 43.402 433.343 45.6018V63.3803C433.343 65.5801 431.555 67.3649 429.352 67.3649H411.541C409.337 67.3649 407.549 65.5801 407.549 63.3803V45.6018C407.563 43.402 409.337 41.6172 411.541 41.6172Z" fill="white"/>
<path d="M425.568 57.7492L420.398 52.6024L415.339 57.6385L413.481 55.7984L420.398 48.8945L427.411 55.9091L425.568 57.7492Z" fill="#D6D6D6"/>
<path opacity="0.1" d="M505.958 290.6C505.958 309.084 520.968 324.054 539.486 324.054C558.003 324.054 573 309.07 573 290.6C573 272.115 557.989 257.146 539.486 257.146C520.968 257.146 505.958 272.129 505.958 290.6Z" fill="#B8B8B8"/>
<path opacity="0.17" d="M375.324 306.58C375.324 352.652 337.915 389.994 291.76 389.994C245.605 389.994 208.196 352.652 208.196 306.58C208.196 260.508 245.605 223.166 291.76 223.166C337.915 223.166 375.324 260.508 375.324 306.58Z" fill="#B8B8B8"/>
<path d="M549.074 341.977L394.485 315.695L390.008 341.937L544.597 368.219L549.074 341.977Z" fill="#3F65A1"/>
<path d="M507.149 460.665C507.149 460.665 507.815 465.535 507.898 466.254C507.981 466.988 515.285 465.825 515.285 465.825L515.881 460.028C515.881 460.028 508.064 459.973 507.149 460.665Z" fill="#5C544D"/>
<path d="M507.829 465.632C507.829 465.632 505.514 468.565 503.269 469.837C501.023 471.11 497.503 471.622 496.186 472.937C495.23 473.891 492.707 478 502.007 477.917C511.308 477.834 515.798 478.498 516.796 476.921C517.794 475.344 515.355 465.286 515.355 465.286C515.355 465.286 513.151 466.143 507.829 465.632Z" fill="#3C4145"/>
<path d="M454.771 460.665C454.771 460.665 455.436 465.535 455.519 466.254C455.603 466.988 462.921 465.825 462.921 465.825L463.517 460.028C463.503 460.028 455.686 459.973 454.771 460.665Z" fill="#5C544D"/>
<path d="M455.437 465.631C455.437 465.631 453.122 468.564 450.877 469.837C448.631 471.11 440.398 472.162 439.068 473.49C438.111 474.445 436.517 478.291 449.615 477.931C458.916 477.682 463.406 478.512 464.404 476.935C465.402 475.358 462.963 465.299 462.963 465.299C462.963 465.299 460.884 466.199 455.437 465.631Z" fill="#3C4145"/>
<path d="M504.558 335.08C504.558 335.08 508.452 347.145 507.94 357.549C507.427 367.953 509.949 379.34 510.989 390.2C512.139 402.306 516.852 430.987 517.018 437.476C517.184 443.951 516.283 464.649 516.283 464.649L506.858 464.87C506.858 464.87 498.944 414.731 496.893 409.625C494.842 404.506 484.682 368.036 484.335 363.941C483.989 359.845 504.558 335.08 504.558 335.08Z" fill="#33373B"/>
<path d="M464.931 337.225C464.931 337.225 459.761 365.74 459.068 372.104C458.389 378.468 457.932 402.915 457.585 406.886C457.239 410.871 455.312 458.949 453.482 464.87H463.989C463.989 464.87 474.772 429.908 474.772 413.375C474.772 396.828 481.924 377.417 486.525 366.5C491.141 355.584 501.689 355.321 504.53 335.08C504.558 335.08 468.77 330.805 464.931 337.225Z" fill="#3C4145"/>
<path d="M483.822 242.162C483.822 242.162 474.176 240.197 471.071 247.765C467.952 255.347 470.544 269.141 475.395 270.123C480.26 271.106 487.01 269.141 488.687 264.437C490.365 259.733 491.501 253.147 490.739 248.983C489.976 244.818 486.414 242.992 483.822 242.162Z" fill="#EEA886"/>
<path d="M430.918 344.558C430.918 344.558 428.007 347.684 427.037 348.016C426.067 348.362 424.112 346.771 417.141 346.522C416.531 346.508 415.477 347.09 415.755 347.892C416.046 348.694 418.527 351.918 419.843 352.209C421.146 352.499 427.979 353.509 430.918 352.209C433.856 350.894 435.727 347.034 435.727 347.034L430.918 344.558Z" fill="#EEA886"/>
<path d="M393.97 318.85L385.717 317.447L382.319 337.36L390.572 338.763L393.97 318.85Z" fill="#446291"/>
<path d="M291.108 209.718C237.511 209.718 194.072 253.078 194.072 306.58C194.072 360.081 237.511 403.441 291.108 403.441C344.692 403.441 388.145 360.081 388.145 306.58C388.145 253.092 344.692 209.718 291.108 209.718ZM291.108 387.544C260.061 387.544 233.103 370.139 219.464 344.572C213.421 333.24 210.012 320.318 210.012 306.593C210.012 261.877 246.326 225.642 291.108 225.642C312.121 225.642 331.276 233.625 345.69 246.714C361.99 261.518 372.219 282.866 372.219 306.593C372.205 351.296 335.891 387.544 291.108 387.544Z" fill="#3F444F"/>
<path d="M476.435 270.29C476.435 270.29 477.197 272.683 476.768 273.998C476.338 275.312 488.757 273.389 488.757 273.389C488.757 273.389 488.729 266.651 489.769 260.799C490.822 254.932 476.435 270.29 476.435 270.29Z" fill="#EEA886"/>
<path d="M489.782 260.798C489.782 260.798 489.145 262.348 485.555 262.348C481.965 262.348 476.961 258.363 475.423 258.087C473.884 257.81 473.732 256.952 473.732 256.952L473.025 258.433L471.487 258.778C471.487 258.778 472.249 254.393 469.851 253.037C467.453 251.681 469.948 239.229 481.799 241.387C481.799 241.387 490.794 242.411 491.251 247.35C491.709 252.276 491.321 258.059 489.782 260.798Z" fill="#3A3F47"/>
<path d="M476.768 273.997C476.768 273.997 470.212 275.754 463.739 280.5C463.739 280.5 455.811 284.194 454.965 292.772C454.522 297.324 450.502 314.701 449.588 316.749C448.673 318.796 429.961 344.558 429.587 345.25C429.213 345.928 434.41 349.525 435.02 349.234C435.63 348.93 456.504 326.461 457.488 324.261C457.488 324.261 463.933 311.242 464.085 308.586C464.085 308.586 464.252 316.14 464.557 318.271C464.862 320.387 461.785 347.588 461.937 348.722C462.09 349.857 482.728 353.938 492.374 352.873C502.021 351.808 508.924 348.183 508.924 348.183C508.924 348.183 504.419 329.713 505.029 326.143C505.639 322.573 506.775 302.194 506.775 302.194L513.387 311.823L502.825 327.665L505.334 337.972C505.334 337.972 523.629 314.549 524.239 311.976C524.849 309.402 523.865 306.898 522.867 304.781C521.883 302.664 516.256 292.73 514.745 290.461C513.22 288.192 508.979 281.136 502.451 278.937C495.923 276.737 488.785 273.402 488.785 273.402L476.768 273.997Z" fill="#FFAE59"/>
<path d="M475.7 274.454C475.7 274.454 475.742 272.116 476.795 271.894C477.862 271.673 488.521 270.649 489.824 271.161V273.887C489.838 273.873 487.315 275.422 475.7 274.454Z" fill="#D4985B"/>
<path d="M473.691 255.126C473.76 254.268 475.479 251.598 476.671 253.991C477.863 256.385 476.38 260.079 475.215 259.954C474.051 259.844 473.511 257.284 473.691 255.126Z" fill="#EEA886"/>
<path opacity="0.3" d="M345.676 246.7C345.676 246.7 240.435 233.681 219.45 344.558C213.407 333.227 209.998 320.305 209.998 306.58C209.998 261.864 246.312 225.629 291.094 225.629C312.12 225.629 331.275 233.612 345.676 246.7Z" fill="#C2C2C2"/>
<path d="M506.165 335.703C506.165 335.703 504.294 326.835 505.264 323.957L506.858 321.577C506.858 321.577 505.944 326.613 506.165 335.703Z" fill="#A87849"/>
<path d="M28.3584 354.104C28.3584 354.104 28.8297 356.664 30.2712 357.037C31.4909 357.355 32.8492 358.656 33.265 359.057C33.8194 359.583 36.1341 360.593 35.4688 361.298C34.8035 362.004 31.5602 359.832 30.7979 359.514C30.0217 359.195 31.1305 362.751 30.8256 363.554C30.5206 364.37 24.5053 365.85 24.034 363.318C23.5628 360.787 24.727 357.77 24.5607 357.341C24.3944 356.913 24.1449 355.515 24.1449 355.515L28.3584 354.104Z" fill="#EEA886"/>
<path d="M30.8395 362.945C30.8395 362.945 31.7681 370.79 31.3939 371.357C31.0196 371.938 30.59 371.952 30.4652 371.232C30.3405 370.499 29.3425 363.678 29.3425 363.678C29.3425 363.678 28.8852 373.142 28.6772 373.681C28.5525 373.999 27.7347 374.096 27.6377 373.709C27.5407 373.321 27.4575 363.913 27.4575 363.913C27.4575 363.913 27.014 372.754 26.7091 373.155C26.4457 373.501 25.6557 373.404 25.6418 372.754C25.628 372.09 25.5725 363.872 25.5725 363.872C25.5725 363.872 24.8518 370.278 24.3944 370.471C24.1172 370.582 23.4103 370.706 23.6459 369.06C23.8816 367.414 24.034 363.457 24.034 363.457L30.8395 362.945Z" fill="#EEA886"/>
<path d="M70.7435 477.641H72.5176C72.5176 477.641 71.9216 470.944 73.571 470.889C75.2065 470.82 79.2953 476.34 81.7209 477.184C84.1464 478.042 96.6346 478.762 96.7039 476.465C96.7732 474.168 91.9082 473.255 90.3974 472.591C88.8867 471.941 81.5268 464.788 80.2101 463.93C78.8934 463.072 76.648 457.151 76.648 457.151L69.6762 456.846C69.6762 456.846 69.2882 462.394 68.8585 465.327C68.706 466.42 68.5813 467.403 68.5674 468.081C68.512 470.557 70.7435 477.641 70.7435 477.641Z" fill="#EEA886"/>
<path d="M39.904 476.313H41.3871V470.087C42.6207 470.197 46.7649 474.099 48.0401 475.233C49.3152 476.368 51.0755 476.313 56.481 476.658C61.8727 477.004 62.3855 473.781 61.54 472.674C60.6807 471.581 57.9225 471.097 56.481 470.405C55.0395 469.713 49.3707 463.335 47.8599 461.827C46.3491 460.319 45.4343 455.988 45.4343 455.988L39.1279 456.542C39.1279 456.542 39.1694 460.499 38.4487 463.819C38.4487 463.833 38.4487 463.833 38.4487 463.847C38.3933 464.124 38.324 464.414 38.2408 464.677C37.2844 468.136 39.904 476.313 39.904 476.313Z" fill="#EEA886"/>
<path d="M54.4022 268.795C54.4022 268.795 51.3252 275.284 52.9607 280.583C52.9607 280.583 43.4802 279.296 43.203 278.19C42.9258 277.083 44.395 267.135 43.3001 264.091C42.2051 261.034 54.4022 268.795 54.4022 268.795Z" fill="#EEA886"/>
<path d="M54.887 277.746C54.887 277.746 60.3757 280.098 62.8706 280.818C65.3793 281.537 70.5076 284.374 69.4127 293.56C68.3177 302.747 66.1416 310.619 65.2823 314.535C64.4229 318.45 64.0487 328.55 64.6309 333.517C64.6309 333.517 50.9091 335.855 35.2747 331.4C35.2747 331.4 38.6982 323.251 38.7813 321.093C38.8645 318.934 30.8532 300.478 30.6315 297.642C30.3958 294.806 29.4256 282.284 33.8748 279.863C38.3239 277.442 41.7613 278.051 43.6602 276.958C45.5452 275.851 52.3229 276.681 54.887 277.746Z" fill="#EB4747"/>
<path d="M21.2065 326.115C20.8877 330.002 23.0083 356.816 23.0083 356.816L30.6315 357.687C30.6315 357.687 30.091 331.206 29.6613 325.091C29.5365 323.292 29.9523 320.525 30.6038 317.537C31.0196 315.641 31.5186 313.649 32.0453 311.74C33.4867 306.482 35.0391 301.917 35.0391 301.917C35.0391 301.917 43.5632 279.766 32.863 280.665C32.863 280.665 28.8851 284.761 27.208 291.471C25.5309 298.181 23.6043 308.253 23.5212 312.265C23.438 316.292 21.4282 323.265 21.2065 326.115Z" fill="#EB4747"/>
<path d="M63.2309 335.122C63.2309 335.122 65.6149 340.753 65.8228 342.178C66.0307 343.603 73.5153 362.184 74.0281 367.622C74.5548 373.114 76.1349 387.794 76.6893 389.883C77.2437 391.986 75.428 401.366 75.1508 403.469C74.8736 405.572 75.0122 439.884 77.5348 456.832C77.5348 456.832 71.6441 459.35 67.1534 456.832C67.1534 456.832 59.7243 430.365 60.1401 415.105C60.5559 399.844 62.4963 393.397 60.1262 387.24C57.7561 381.083 43.868 362.585 42.4681 360.635C41.0683 358.67 32.2808 347.837 40.597 336.104C48.9132 324.344 63.2309 335.122 63.2309 335.122Z" fill="#323657"/>
<path d="M33.1817 384.985C33.944 390.035 33.1401 396.676 31.5462 415.16C29.9522 433.63 34.3321 456.002 34.3321 456.002C39.8208 457.884 46.155 456.002 46.155 456.002C46.0164 454.702 46.155 410.968 46.155 407.066C46.155 403.165 47.2776 398.751 47.5687 394.269C47.7628 391.225 49.1904 385.594 50.7843 379.866C51.2694 378.15 51.7545 376.421 52.2396 374.747C52.5169 373.806 52.7802 372.893 53.0297 371.994C55.2751 364.204 58.3105 334.098 58.3105 334.098C58.3105 334.098 41.5256 320.609 33.3619 333.31C25.1843 346.011 29.384 355.253 29.675 356.83C29.9661 358.421 32.4194 379.935 33.1817 384.985Z" fill="#323657"/>
<path d="M65.7122 310.605C65.7122 310.605 64.2153 334.527 68.6783 347.975C68.6783 347.975 50.9509 350.922 28.3447 343.326C28.3447 343.326 34.568 327.249 34.3463 324.731C34.1383 322.213 27.5824 292.951 30.7287 286.393C33.875 279.849 64.5895 289.146 65.7122 310.605Z" fill="#EB4747"/>
<path d="M44.2148 242.383C47.9433 240.779 58.1583 238.551 61.9422 253.77C65.7261 268.989 59.9879 269.75 54.028 269.805C48.0819 269.861 38.0609 260.217 37.1184 257.118C36.1759 254.005 33.584 246.949 44.2148 242.383Z" fill="#EEA886"/>
<path d="M61.0966 250.878C61.0966 250.878 57.1741 256.55 52.7665 258.335C52.7665 258.335 49.842 264.907 43.882 267.051C43.882 267.051 29.7306 255.817 39.8071 245.468C49.8974 235.133 60.7362 246.105 61.0966 250.878Z" fill="#FCCCA2"/>
<path d="M40.1396 357.84C40.2644 358.13 48.636 376.656 50.7844 379.866C51.2695 378.15 51.7546 376.421 52.2397 374.747C52.2397 374.747 40.4307 358.241 40.1396 357.84Z" fill="#262942"/>
<path d="M30.2158 298.555C30.2158 298.555 29.6198 310.329 30.59 317.551C31.0058 315.655 31.5048 313.663 32.0315 311.754C31.9899 311.477 30.3683 300.409 30.2158 298.555Z" fill="#B53737"/>
<path d="M46.9313 241.29C46.9313 241.29 30.8256 241.442 37.34 264.824C41.5535 279.905 33.4037 294.211 34.36 296.922C35.3302 299.634 43.7435 302.429 48.3312 296.978C53.0022 291.43 44.88 273.402 48.8579 265.115C52.8358 256.827 61.5124 251.238 61.5124 251.238C61.5124 251.238 58.6572 239.325 46.9313 241.29Z" fill="#FCCCA2"/>
<path d="M67.1396 289.41C67.1396 289.41 70.771 302.332 71.5333 305.044C72.5312 308.572 67.4999 313.76 63.4111 311.713C59.3223 309.679 67.1396 289.41 67.1396 289.41Z" fill="#EB4747"/>
<path d="M39.904 476.313H41.3871V470.087C42.6207 470.197 46.7649 474.099 48.0401 475.233C49.3152 476.368 51.0755 476.313 56.481 476.658C61.8727 477.004 62.3855 473.781 61.54 472.674C60.6807 471.581 57.9225 471.097 56.481 470.405C50.7012 470.709 43.6602 462.616 40.2783 462.629C38.4764 462.643 38.5042 463.626 38.4487 463.819C38.4487 463.833 38.4487 463.833 38.4487 463.847C38.3933 464.124 38.324 464.414 38.2408 464.677C37.2844 468.136 39.904 476.313 39.904 476.313Z" fill="#3F446E"/>
<path d="M70.7434 477.64H72.5175C72.5175 477.64 71.9215 470.944 73.5709 470.889C75.2064 470.82 79.2952 476.34 81.7208 477.184C84.1463 478.042 96.6345 478.761 96.7038 476.464C96.7731 474.168 91.9081 473.255 90.3973 472.59C85.2413 472.577 76.8697 466.918 74.2778 465.77C71.6859 464.621 68.8722 465.313 68.8722 465.313C68.7198 466.406 68.595 467.388 68.5812 468.066C68.5119 470.557 70.7434 477.64 70.7434 477.64Z" fill="#3F446E"/>
<path d="M52.4614 256.605C51.9625 255.9 49.4953 255.111 48.9964 257.505C48.4974 259.884 52.8357 262.887 53.7505 262.458C54.6791 262.029 54.3603 259.303 52.4614 256.605Z" fill="#EEA886"/>
<path d="M67.7773 371.191V363.623C67.7773 362.405 68.7753 361.409 69.995 361.409H82.0119C83.2316 361.409 84.2296 362.405 84.2296 363.623V371.191C84.2296 372.408 83.2316 373.405 82.0119 373.405H69.995C68.7753 373.391 67.7773 372.408 67.7773 371.191ZM69.995 362.903C69.593 362.903 69.2604 363.235 69.2604 363.637V371.205C69.2604 371.606 69.593 371.924 69.995 371.924H82.0119C82.4138 371.924 82.7465 371.592 82.7465 371.205V363.637C82.7465 363.235 82.4138 362.903 82.0119 362.903H69.995Z" fill="#877C78"/>
<path d="M53.4475 402.388H98.5352V370.151H53.4475L53.4475 402.388Z" fill="#5C64A1"/>
<path d="M72.3648 368.797C72.3648 368.797 71.7134 368.009 71.5887 367.524C71.5887 367.524 71.4362 366.625 71.2976 366.002C71.256 365.809 71.2006 365.629 71.159 365.518C70.9927 365.062 70.4798 364.121 70.3828 362.903C70.2858 361.7 71.1867 356.387 71.1867 356.387L74.2083 356.055L76.9942 355.349C76.9942 355.349 81.3463 361.368 81.5681 362.474C81.5958 362.585 81.6097 362.696 81.6097 362.793C81.7067 363.761 81.374 364.508 81.374 365.02C81.374 365.214 81.2077 367.068 80.7503 367.386C80.1128 367.829 79.489 367.87 79.0039 367.676C79.0039 367.676 77.7149 368.493 76.7031 368.368C76.7031 368.368 75.5388 369.157 74.3191 368.645C74.3053 368.645 73.044 369.309 72.3648 368.797Z" fill="#EEA886"/>
<path d="M61.443 281.233C61.443 281.233 72.9748 281.565 70.5908 292.26C68.4979 301.668 68.3316 310.952 68.8305 312.626C69.3295 314.3 69.6067 322.67 71.4224 327.361C73.0302 331.497 78.5605 355.668 78.5605 355.668L70.5353 357.757C70.5353 357.757 62.9122 331.497 61.6925 328.301C60.4727 325.119 53.7089 296.688 53.9584 293.63C54.2079 290.572 53.7643 281.745 61.443 281.233Z" fill="#EB4747"/>
<path d="M37.3123 247.502C37.3123 247.502 33.473 254.572 37.0767 267.757C38.3241 272.337 26.4597 292.495 35.3996 298.195C44.3395 303.895 51.0757 255.25 37.3123 247.502Z" fill="#FCCCA2"/>
</g>
<defs>
<linearGradient id="paint0_linear" x1="255.905" y1="437.929" x2="255.905" y2="342.36" gradientUnits="userSpaceOnUse">
<stop stop-color="#D5E4FF"/>
<stop offset="1" stop-color="#EDFFFE"/>
</linearGradient>
<linearGradient id="paint1_linear" x1="406.038" y1="292.858" x2="461.168" y2="263.488" gradientUnits="userSpaceOnUse">
<stop offset="0.00518135" stop-color="#3C6127"/>
<stop offset="1" stop-color="#639C38"/>
</linearGradient>
<linearGradient id="paint2_linear" x1="72.2153" y1="81.3176" x2="92.8466" y2="49.6474" gradientUnits="userSpaceOnUse">
<stop offset="0.00518135" stop-color="#3C6127"/>
<stop offset="1" stop-color="#639C38"/>
</linearGradient>
<linearGradient id="paint3_linear" x1="96.5285" y1="99.2942" x2="44.6729" y2="95.5546" gradientUnits="userSpaceOnUse">
<stop offset="0.00518135" stop-color="#3C6127"/>
<stop offset="1" stop-color="#639C38"/>
</linearGradient>
<linearGradient id="paint4_linear" x1="433.685" y1="273.469" x2="470.501" y2="194.073" gradientUnits="userSpaceOnUse">
<stop offset="0.00518135" stop-color="#3C6127"/>
<stop offset="1" stop-color="#639C38"/>
</linearGradient>
<linearGradient id="paint5_linear" x1="394.012" y1="473.106" x2="151.083" y2="8.14867" gradientUnits="userSpaceOnUse">
<stop stop-color="#D5E4FF"/>
<stop offset="1" stop-color="#EDFFFE"/>
</linearGradient>
<linearGradient id="paint6_linear" x1="79.8735" y1="127.769" x2="369.67" y2="127.769" gradientUnits="userSpaceOnUse">
<stop stop-color="#FFC05C"/>
<stop offset="1" stop-color="#FF3857"/>
</linearGradient>
<linearGradient id="paint7_linear" x1="79.8735" y1="119.94" x2="369.822" y2="119.94" gradientUnits="userSpaceOnUse">
<stop stop-color="#9A5CFF"/>
<stop offset="0.9948" stop-color="#4059BF"/>
</linearGradient>
<clipPath id="clip0">
<rect width="573" height="478" fill="white"/>
</clipPath>
</defs>
</svg>
