<svg width="541" height="545" viewBox="0 0 541 545" fill="none" xmlns="http://www.w3.org/2000/svg">
<g clip-path="url(#clip0)">
<path d="M449.04 107.407H243.145C190.334 110.923 190.567 169.166 190.567 169.166V447.478H396.721V169.166C396.721 169.166 397.698 110.729 449.04 107.407Z" fill="#E8913A"/>
<path d="M178.605 172.685H176.177V386.891H178.605V172.685Z" fill="#FFC155"/>
<path d="M413.913 74.7741H288.104V4.98047H413.913V74.7741ZM290.532 72.3431H411.485V7.41146H290.532V72.3431Z" fill="#FFC155"/>
<path d="M178.605 147.516H52.7959V59.7417H178.602V147.516H178.605ZM55.2241 145.085H176.174V62.1727H55.2241V145.085Z" fill="#FFC155"/>
<path d="M534.948 287.388H409.141V217.333H534.948V287.388ZM411.569 284.957H532.519V219.764H411.569V284.957Z" fill="#FFC155"/>
<path d="M440.809 103.627C389.464 106.948 388.489 165.386 388.489 165.386V443.698H182.336V165.389C182.336 165.389 182.102 107.146 234.913 103.63H440.809V103.627Z" fill="#FFF9F5"/>
<path d="M351.006 176.332H209.407V188.839H351.006V176.332Z" fill="#FFDC94"/>
<path d="M330.315 205.257H209.407V214.118H330.315V205.257Z" fill="#FFDC94"/>
<path d="M270.186 228.646H209.407V241.807H270.186V228.646Z" fill="#FFDC94"/>
<path d="M351.006 228.646H288.146V241.807H351.006V228.646Z" fill="#FFDC94"/>
<path d="M306.236 253.99H209.407V263.37H306.236V253.99Z" fill="#FFDC94"/>
<path d="M318.504 277.442H209.407V282.654H318.504V277.442Z" fill="#FFDC94"/>
<path d="M340.595 300.896H209.407V306.107H340.595V300.896Z" fill="#FFDC94"/>
<path d="M270.641 353.469H208.952V323.893H270.641V353.469ZM209.863 352.557H269.731V324.804H209.863V352.557Z" fill="#FFDC94"/>
<path d="M340.595 324.349H285.414V331.125H340.595V324.349Z" fill="#FFDC94"/>
<path d="M324.527 338.679H285.414V345.456H324.527V338.679Z" fill="#FFDC94"/>
<path d="M327.386 371.254H209.407V376.466H327.386V371.254Z" fill="#FFDC94"/>
<path d="M271.552 394.707H209.407V399.918H271.552V394.707Z" fill="#FFDC94"/>
<path d="M441.589 260.517L435.509 250.553C435.011 249.735 435.269 248.669 436.083 248.17C436.899 247.672 437.965 247.93 438.462 248.745L442.76 255.791L454.191 249.018C455.014 248.532 456.076 248.802 456.565 249.626C457.053 250.449 456.78 251.513 455.958 252.002L441.589 260.517Z" fill="#FFCA55"/>
<path d="M445.671 275.877C433.615 275.877 423.805 266.059 423.805 253.986C423.805 241.913 433.612 232.095 445.671 232.095C457.73 232.095 467.537 241.913 467.537 253.986C467.537 266.059 457.727 275.877 445.671 275.877ZM445.671 235.225C435.336 235.225 426.931 243.642 426.931 253.986C426.931 264.33 435.339 272.75 445.671 272.75C456.003 272.75 464.411 264.333 464.411 253.986C464.411 243.639 456.003 235.225 445.671 235.225Z" fill="#FFCA55"/>
<path d="M340.857 32.5813L341.285 41.7826L344.933 41.6124L344.214 26.1787L328.473 26.911L328.64 30.5636L338.158 30.1199L321.382 48.5529L303.926 32.633L301.468 35.3344L321.622 53.7188L340.857 32.5813Z" fill="#FFCA55"/>
<path d="M98.2645 91.9884C97.9094 91.5903 97.3843 91.1619 96.6923 90.703C96.0002 90.2442 95.1989 89.8035 94.2883 89.3842C93.3777 88.9649 92.3761 88.6033 91.2864 88.3024C90.1968 88.0016 89.0767 87.8101 87.9264 87.7251L87.8869 100.056L89.016 100.299C91.1559 100.822 93.0894 101.405 94.8134 102.047C96.5375 102.688 97.9914 103.466 99.1782 104.383C100.365 105.301 101.285 106.425 101.934 107.759C102.584 109.093 102.906 110.71 102.899 112.618C102.893 114.724 102.508 116.52 101.752 118.006C100.993 119.492 99.9491 120.732 98.6166 121.719C97.2842 122.707 95.7331 123.448 93.9666 123.938C92.2 124.427 90.306 124.691 88.2815 124.722L88.2603 130.975L85.1673 130.966L85.1885 124.591C82.3323 124.381 79.6188 123.81 77.0418 122.868C74.4649 121.926 72.1095 120.619 69.9727 118.942L73.0262 113.232C73.4602 113.709 74.0946 114.229 74.9262 114.788C75.7579 115.347 76.7262 115.888 77.8371 116.405C78.945 116.924 80.1651 117.386 81.4916 117.787C82.818 118.188 84.196 118.471 85.6256 118.635L85.6651 106.304C85.4283 106.225 85.1794 106.152 84.9214 106.094C84.6634 106.033 84.4145 105.964 84.1778 105.885C82.0774 105.322 80.2441 104.73 78.6809 104.11C77.1147 103.49 75.8186 102.739 74.7897 101.864C73.7607 100.989 72.9806 99.962 72.4495 98.7891C71.9183 97.6161 71.6542 96.194 71.6603 94.5288C71.6663 92.584 72.0093 90.858 72.6892 89.3508C73.3691 87.8436 74.3253 86.546 75.5576 85.4582C76.7899 84.3703 78.2317 83.5225 79.8798 82.9117C81.528 82.3009 83.3431 81.9211 85.3282 81.7691L85.3464 75.7524L88.4393 75.7616L88.4211 81.7783C90.9981 81.9454 93.3777 82.4711 95.5571 83.3493C97.7364 84.2305 99.6577 85.288 101.318 86.5248L98.2645 91.9884ZM78.6232 93.4743C78.6171 95.1426 79.1969 96.3946 80.3655 97.2333C81.531 98.072 83.3067 98.8134 85.6833 99.4546L85.7228 87.719C83.3036 87.8314 81.5159 88.3905 80.3624 89.3994C79.206 90.4083 78.6263 91.7666 78.6232 93.4743ZM95.7544 113.308C95.7604 111.561 95.0684 110.239 93.6843 109.34C92.2972 108.44 90.3576 107.632 87.8596 106.909L87.8201 118.702C90.3576 118.672 92.3154 118.201 93.6843 117.292C95.0593 116.383 95.7483 115.055 95.7544 113.308Z" fill="#FFCA55"/>
<path d="M166.522 84.7383H117.132V91.773H166.522V84.7383Z" fill="#DED4CE"/>
<path d="M155.953 100.111H117.132V107.146H155.953V100.111Z" fill="#DED4CE"/>
<path d="M160.691 115.481H117.132V122.516H160.691V115.481Z" fill="#DED4CE"/>
<path d="M511.892 241.157H476.601V248.191H511.892V241.157Z" fill="#DED4CE"/>
<path d="M516.199 256.527H476.601V263.562H516.199V256.527Z" fill="#DED4CE"/>
<path d="M400.463 20.9888H355.562V28.0234H400.463V20.9888Z" fill="#DED4CE"/>
<path d="M390.854 36.3613H355.562V43.396H390.854V36.3613Z" fill="#DED4CE"/>
<path d="M395.161 51.7314H355.562V58.7661H395.161V51.7314Z" fill="#DED4CE"/>
<path d="M442.022 333.902H403.848V331.471H439.594V288.908H442.022V333.902Z" fill="#DED4CE"/>
<path d="M259.038 99.4546H256.609V87.0414H339.382V78.3506H341.81V89.4724H259.038V99.4546Z" fill="#DED4CE"/>
<path d="M166.525 245.63H123.078V151.836H125.506V243.199H166.525V245.63Z" fill="#DED4CE"/>
<path d="M403.9 207.539H401.471V179.2C401.438 178.732 398.418 124.351 444.257 116.438L444.669 118.833C400.961 126.378 403.863 178.592 403.897 179.121L403.9 207.539Z" fill="#FFC155"/>
<path d="M541 262H538.572V213.963H487.078V211.532H541V262Z" fill="#FFC155"/>
<path d="M95.0377 154.668H46.0938V108.501H48.522V152.238H95.0377V154.668Z" fill="#FFC155"/>
<path d="M284.85 36.3615H282.421V0H343.154V2.43099H284.85V36.3615Z" fill="#FFC155"/>
<path d="M405.062 455.695H360.51V453.264H402.633V385.682H405.062V455.695Z" fill="#FFC155"/>
<path d="M370.985 408.482H332.136V369.589H370.985V408.482ZM335.779 404.835H367.342V373.235H335.779V404.835Z" fill="#FFDC94"/>
<path d="M352.172 397.175L338.513 384.288L342.678 379.863L352.448 389.086L373.807 371.513L377.662 376.208L352.172 397.175Z" fill="#FFDC94"/>
<path opacity="0.24" d="M339.788 296.711C310.701 246.56 246.505 229.509 196.401 258.639C191.372 261.562 186.679 264.838 182.339 268.417V292.502C188.61 285.13 196.216 278.688 205.055 273.544C246.927 249.2 300.581 263.452 324.897 305.368C332.361 318.237 336.188 332.216 336.704 346.115C336.744 347.203 336.768 348.281 336.768 349.366C336.768 379.62 321.127 409.062 293.109 425.347C255.86 446.995 209.28 438.112 182.339 406.373V430.482C188.674 435.721 195.561 440.136 202.821 443.695H295.349C297.513 442.631 299.644 441.482 301.759 440.255C351.85 411.138 368.881 346.868 339.788 296.711Z" fill="#3F444F"/>
<path d="M18.4575 544.995L148.686 436.342L130.235 414.178L0.00688993 522.83L18.4575 544.995Z" fill="#FF7E55"/>
<path d="M146.453 433.682L153.408 427.878L139.404 411.055L132.448 416.858L146.453 433.682Z" fill="#E66947"/>
<path d="M131.228 402.186C160.321 452.34 224.517 469.387 274.614 440.261C324.712 411.135 341.74 346.865 312.647 296.711C283.553 246.557 219.357 229.51 169.26 258.636C119.162 287.762 102.134 352.031 131.228 402.186ZM146.122 393.525C133.219 371.279 131.17 345.708 138.348 322.972C144.695 302.868 158.257 284.976 177.907 273.55C219.779 249.207 273.434 263.455 297.746 305.375C305.21 318.241 309.041 332.219 309.557 346.121V346.124C310.722 377.505 294.978 408.485 265.961 425.356C224.092 449.69 170.437 435.441 146.122 393.525Z" fill="#494F5C"/>
<path opacity="0.3" d="M138.352 322.969C138.352 322.969 229.656 253.561 309.56 346.118C309.56 346.118 309.56 346.118 309.56 346.115C309.044 332.216 305.213 318.237 297.75 305.368C273.434 263.452 219.782 249.203 177.91 273.547C158.26 284.972 144.698 302.864 138.352 322.969Z" fill="#C2C2C2"/>
<path d="M223.063 321.942C220.146 323.111 221.809 329.128 221.521 340.092C221.233 351.059 213.165 353.046 213.165 353.046C213.165 353.046 216.719 348.847 217.442 345.003C218.164 341.159 210.19 331.447 213.672 323.82C216.364 317.927 223.424 321.72 223.424 321.72L223.063 321.942Z" fill="#754836"/>
<path d="M269.472 380.625C269.472 380.625 268.037 380.127 267.193 380.285C266.349 380.443 268.792 376.08 268.792 376.08L269.472 380.625Z" fill="#EEA886"/>
<path d="M268.792 376.08C268.792 376.08 271.054 374.092 271.406 373.798C271.761 373.506 273.039 373.378 274.517 373.363C275.995 373.348 278.002 373.986 278.144 374.199C278.287 374.411 278.53 374.557 278.524 375.211C278.518 375.864 278.15 376.414 278.15 376.414C278.15 376.414 278.521 377.225 278.017 377.869C278.017 377.869 278.329 378.65 277.64 379.286C277.64 379.286 277.926 380.054 277.385 380.477C277.385 380.477 276.104 380.604 275.646 380.79C275.185 380.975 272.508 381.057 269.925 380.741C269.922 380.744 267.056 380.507 268.792 376.08Z" fill="#EEA886"/>
<path d="M273.157 376.685C273.157 376.685 272.581 378.082 272.219 378.395C271.858 378.705 274.508 380.456 274.508 380.456C274.508 380.456 274.836 377.432 273.157 376.685Z" fill="#CF8C6C"/>
<path d="M277.756 374.186C277.756 374.186 274.007 374.32 273.956 374.928C273.901 375.536 274.25 375.791 274.25 375.791L272.733 376.548C272.733 376.548 272.01 377.617 273.382 378.091C273.382 378.091 272.605 379.018 273.983 379.319C273.983 379.319 273.743 380.161 274.356 380.413C274.973 380.665 277.38 380.48 277.38 380.48C277.38 380.48 277.871 380.212 277.635 379.289C277.635 379.289 278.333 378.717 278.011 377.872C278.011 377.872 278.497 377.329 278.145 376.417C278.145 376.417 279.134 375.116 278.141 374.199C278.145 374.196 277.914 374.18 277.756 374.186Z" fill="#DB9C7C"/>
<path d="M273.944 374.891C273.944 374.891 274.56 371.403 274.369 369.877C274.326 369.534 274.338 369.403 274.001 369.312C273.664 369.224 273.106 370.418 272.736 371.473C272.365 372.527 271.37 373.828 271.37 373.828C271.37 373.828 271.336 374.916 273.944 374.891Z" fill="#EEA886"/>
<path d="M216.006 487.956C216.006 487.956 220.046 493.873 221.457 495.128C221.457 495.128 224.277 496.593 224.365 497.762C224.529 499.975 224.729 502.038 221.02 502.141C217.311 502.245 214.91 501.369 214.23 499.121C213.55 496.872 211.933 494.936 211.933 494.936V499.643H211.098C211.098 499.643 210.888 495.094 210.837 494.256C210.785 493.42 210.236 490.202 211.999 488.777C213.76 487.355 216.006 487.956 216.006 487.956Z" fill="#162D40"/>
<path d="M221.994 495.432C221.994 495.432 219.988 495.997 217.605 495.395C215.22 494.794 212.931 489.078 212.233 488.601L211.614 486.294H216.264C216.264 486.294 216.303 488.002 217.053 489.461C217.806 490.925 221.994 495.432 221.994 495.432Z" fill="#EEA886"/>
<path d="M242.243 485.747C242.243 485.747 242.85 487.182 243.995 488.677C244.832 489.774 247.443 494.274 248.593 494.587C249.743 494.9 253.295 495.529 253.607 497.516C253.92 499.504 254.078 500.917 250.578 501.072C247.078 501.23 244.781 501.439 243.108 498.981C241.436 496.523 238.771 494.745 238.771 494.745V501.16H237.411C237.411 501.16 236.786 494.484 236.418 494.013C236.051 493.542 235.113 488.415 238.352 485.75C241.588 483.079 242.243 485.747 242.243 485.747Z" fill="#162D40"/>
<path d="M248.59 494.584C248.59 494.584 245.454 495.368 244.253 494.584C243.051 493.8 238.965 486.887 237.611 486.474C237.611 486.474 238.923 483.812 242.24 485.745C242.243 485.748 247.701 493.436 248.59 494.584Z" fill="#EEA886"/>
<path d="M214.227 389.696C214.227 389.696 209.808 395.448 208.609 402.273C207.41 409.098 209.316 432.008 209.265 435.381C209.213 438.754 206.144 449.514 206.77 455.868C207.398 462.222 210.828 488.482 210.828 488.482L218.486 488.346C218.486 488.346 216.95 459.724 217.344 457.059C217.736 454.391 218.984 443.044 219.141 441.944C219.299 440.844 227.865 411.803 227.865 406.88C227.862 401.96 224.884 381.668 214.227 389.696Z" fill="#1D3B54"/>
<path d="M236.43 391.945C236.43 391.945 243.691 419.691 244.553 423.535C245.415 427.379 247.139 432.399 247.06 433.107C246.981 433.812 246.146 445.66 246.146 445.66L244.082 485.985H236.43C236.43 485.985 233.975 460.331 233.583 455.153C233.192 449.975 236.406 441.974 235.62 439.777C234.837 437.58 223.002 412.24 223.002 412.24C223.002 412.24 214.045 383.889 236.43 391.945Z" fill="#1D3B54"/>
<path d="M234.388 350.348C234.388 350.348 238.877 350.879 240.771 353.481C242.668 356.082 243.29 360.056 243.712 361.369C244.131 362.685 249.947 375.086 250.329 375.396C250.712 375.706 256.02 375.496 259.21 375.587C263.693 375.715 269.033 375.606 269.033 375.606L268.38 382.03C268.38 382.03 247.06 382.531 245.588 380.857C242.337 377.158 234.992 364.268 234.992 364.268C234.992 364.268 227.337 353.815 234.388 350.348Z" fill="#285173"/>
<path d="M229.115 348.379C229.115 348.379 232.876 350.156 234.181 350.418C235.487 350.679 240.555 357.27 241.442 359.674C242.331 362.08 241.442 365.687 239.614 369.923C237.787 374.159 239.511 375.572 238.674 379.808C237.836 384.044 237.107 393.015 237.262 395.367C237.42 397.722 216.13 398.165 211.274 393.875C211.274 393.875 216.158 386.554 216.783 385.506C217.408 384.461 216.886 378.76 216.313 377.295C215.739 375.831 209.726 364.049 209.726 364.049C209.726 364.049 208.785 353.812 211.611 351.615C214.066 349.707 220.759 349.026 221.958 348.607C223.166 348.193 226.66 348.011 229.115 348.379Z" fill="#EDDAD3"/>
<path d="M230.317 356.772L232.603 354.091L230.618 347.039C230.618 347.039 229.95 350.968 230.317 356.772Z" fill="#D6C5BE"/>
<path d="M230.912 344.033C230.912 344.033 230.163 350.94 230.317 353.189C230.317 353.189 226.408 357.109 221.964 348.612C221.964 348.612 223.834 345.109 222.426 340.338C221.017 335.564 230.912 344.033 230.912 344.033Z" fill="#EEA886"/>
<path d="M230.317 353.189V356.772L225.819 353.408L230.317 353.189Z" fill="#EEA886"/>
<path d="M230.317 356.772L228.451 354.459L222.159 348.181L220.125 350.144L230.317 356.772Z" fill="#D6C5BE"/>
<path d="M223.081 398.761C221.309 407.251 208.497 397.804 208.497 397.804C208.497 397.804 216.81 383.828 213.505 372.658C213.477 372.57 213.453 372.482 213.426 372.394C213.213 371.686 213.004 371.014 212.795 370.376C209.762 361.138 207.037 358.981 207.037 358.981C207.037 358.981 210.888 350.5 214.461 349.95C218.033 349.4 221.284 348.783 221.284 348.783C221.284 348.783 226.563 356.802 226.815 360.333C227.07 363.864 224.854 390.271 223.081 398.761Z" fill="#285173"/>
<path d="M242.243 360.661C242.243 360.661 241.393 368.671 239.772 372.646C239.772 372.646 239.092 381.118 239.199 384.099C239.302 387.08 240.009 398.35 240.009 398.35L236.339 400.502C235.602 400.936 234.685 400.335 234.788 399.484C235.826 390.906 239.208 358.364 231.905 349.615L234.834 350.481C234.837 350.481 240.868 356.112 242.243 360.661Z" fill="#285173"/>
<path d="M232.603 354.091L235.483 354.891L230.618 347.039L232.603 354.091Z" fill="#FAE6DE"/>
<path d="M228.45 354.459L225.819 357.911L220.443 348.938L222.158 348.181L228.45 354.459Z" fill="#FAE6DE"/>
<path d="M241.09 373.624C241.09 373.624 242.792 368.23 241.794 364.42C241.794 364.42 241.93 367.784 239.918 372.22L241.09 373.624Z" fill="#1D3B54"/>
<path d="M228.193 321.735C230.946 321.471 237.129 322.571 238.419 329.845C238.419 329.845 238.291 331.83 237.888 333.404C237.484 334.978 239.087 339.481 238.734 339.724C238.382 339.967 236.901 340.326 236.901 340.326C236.901 340.326 235.529 345.398 233.775 345.437C232.02 345.477 225.328 344.422 221.913 338.357C218.492 332.289 217.078 322.802 228.193 321.735Z" fill="#EEA886"/>
<path d="M238.418 329.845C238.418 329.845 234.084 333.115 229.668 333.941C225.251 334.768 222.857 342.474 222.857 342.474C222.857 342.474 215.444 331.304 220.592 324.181C225.722 317.079 238.983 321.273 238.418 329.845Z" fill="#754836"/>
<path d="M227.81 333.826C227.747 332.966 226.727 331.717 225.373 332.963C224.019 334.206 226.107 338.214 227.246 337.758C228.381 337.299 227.877 334.713 227.81 333.826Z" fill="#EEA886"/>
<path d="M230.921 345.03C230.821 345.568 230.718 346.197 230.636 346.859C226.933 344.744 224.99 342.049 224.99 342.049C227.13 343.814 230.921 345.03 230.921 345.03Z" fill="#A77860"/>
<path d="M234.327 381.598L218.738 408.634L201.403 398.615L216.319 371.188L234.327 381.598Z" fill="#E8734D"/>
<path d="M226.596 399.551C226.596 399.551 225.886 399.554 225.577 399.405C225.577 399.405 225.033 399.089 224.633 398.885C224.505 398.821 224.393 398.77 224.317 398.742C223.998 398.633 223.267 398.487 222.578 398.007C221.889 397.53 219.448 394.698 219.448 394.698L220.602 392.942L221.449 391.143C221.449 391.143 226.575 391.474 227.267 391.845C227.334 391.881 227.401 391.921 227.458 391.96C228.014 392.331 228.272 392.841 228.545 393.072C228.642 393.157 229.568 394.063 229.535 394.449C229.489 394.984 229.243 395.336 228.921 395.512C228.921 395.512 228.788 396.558 228.275 397.044C228.275 397.044 228.184 398.01 227.373 398.436C227.37 398.442 227.167 399.411 226.596 399.551Z" fill="#EEA886"/>
<path d="M216.467 349.807C216.467 349.807 211.295 349.147 208.582 354.371C205.868 359.594 205.883 361.822 205.519 364.374C205.176 366.781 203.631 373.357 203.473 374.037C203.315 374.718 199.816 382.813 201.421 385.642C203.036 388.487 219.424 396.861 219.317 397.487C219.211 398.113 222.155 391.158 222.155 391.158C222.155 391.158 215.523 387.456 214.44 386.317C212.676 384.466 208.955 382.473 209.72 380.176C210.618 377.477 213.317 368.379 213.942 367.048C214.57 365.717 220.459 351.505 216.467 349.807Z" fill="#285173"/>
<path d="M216.024 361.594C215.833 366.611 213.426 372.391 213.426 372.391C213.213 371.683 213.004 371.011 212.794 370.373C214.148 366.584 216.024 361.594 216.024 361.594Z" fill="#1D3B54"/>
<path d="M270.745 222.612C270.745 222.612 272.797 223.405 273.771 222.372C274.515 221.582 275.814 220.126 276.02 219.704C276.208 219.315 277.322 217.768 277.538 218.57C277.753 219.373 276.488 222.937 275.92 223.371C275.352 223.806 278.385 224.523 278.828 225.104C279.271 225.684 277.708 230.798 275.686 230.06C273.665 229.321 272.19 227.228 271.844 227.057C271.261 226.769 268.987 225.818 268.987 225.818L270.745 222.612Z" fill="#EEA886"/>
<path d="M278.4 224.812C278.4 224.812 284.428 227.501 284.677 228.03C284.922 228.558 284.755 228.886 284.179 228.659C283.605 228.431 278.275 226.234 278.275 226.234C278.275 226.234 284.859 230.658 285.156 231.044C285.329 231.269 285.038 231.928 284.719 231.834C284.4 231.743 277.62 227.744 277.62 227.744C277.62 227.744 283.76 231.889 283.912 232.287C284.045 232.636 283.632 233.174 283.153 232.901C282.676 232.63 276.758 229.12 276.758 229.12C276.758 229.12 280.955 232.418 280.967 232.849C280.98 233.226 280.7 233.688 279.623 232.797C278.545 231.907 275.783 230.087 275.783 230.087L278.4 224.812Z" fill="#EEA886"/>
<path d="M230.224 196.488C230.743 197.174 235.235 203.136 238.534 207.22V207.233C239.002 207.816 239.454 208.348 239.855 208.828C240.632 209.761 241.266 210.475 241.655 210.824C243.661 212.651 245.825 215.698 248.724 217.902C250.885 219.549 270.047 227.027 270.308 227.027C270.463 226.975 272.366 222.712 272.366 222.712C272.366 222.712 255.678 213.353 253.969 212.641C251.313 211.526 250.317 209.828 249.386 208.922C248.454 208.029 236.583 191.267 235.985 190.322C235.985 190.322 232.452 183.892 228.979 187.365C225.498 190.836 229.486 195.503 230.224 196.488Z" fill="#EDDAD3"/>
<path d="M238.537 196.801V207.236C239.005 207.819 239.457 208.351 239.857 208.831C239.857 208.831 241.618 205.811 240.48 202.246C239.351 198.679 238.537 196.801 238.537 196.801Z" fill="#C2B2AD"/>
<path d="M256.883 288.51C256.883 288.51 260.601 294.818 262.17 295.851C264.301 297.249 262.965 298.665 261.955 298.665C260.944 298.665 255.775 299.036 254.637 297.741C253.498 296.447 252.934 292.569 251.874 291.554C250.815 290.539 249.722 286.51 252.39 285.529C254.746 284.666 256.883 288.51 256.883 288.51Z" fill="#E55353"/>
<path d="M255.271 285.732C255.271 285.732 259.529 293.123 260.264 294.214C260.998 295.304 258.883 295.304 257.571 294.785C256.26 294.265 252.964 288.966 252.487 287.999C251.923 286.848 252.387 285.529 252.387 285.529L255.271 285.732Z" fill="#EEA886"/>
<path d="M250.958 289.71L251.941 297.286L252.46 297.31L252.299 291.858L250.958 289.71Z" fill="#E55353"/>
<path d="M220.01 288.509C220.01 288.509 223.728 294.818 225.298 295.851C227.428 297.249 226.093 298.665 225.082 298.665C224.071 298.665 218.902 299.036 217.764 297.741C216.626 296.447 216.061 292.569 215.002 291.554C213.943 290.539 212.813 286.404 215.518 285.528C217.888 284.763 220.01 288.509 220.01 288.509Z" fill="#E55353"/>
<path d="M218.623 285.748C218.623 285.748 222.657 293.123 223.391 294.214C224.126 295.304 222.01 295.304 220.699 294.785C219.388 294.265 216.091 288.966 215.615 287.999C215.05 286.848 215.515 285.529 215.515 285.529L218.623 285.748Z" fill="#EEA886"/>
<path d="M214.085 289.71L215.068 297.286L215.59 297.31L215.427 291.858L214.085 289.71Z" fill="#E55353"/>
<path d="M203.513 231.08L237.159 246.429C237.159 246.429 240.914 247.651 241.336 251.826C242.65 264.856 252.387 285.532 252.387 285.532C255.511 287.06 255.271 285.735 255.271 285.735C253.301 279.408 250.906 253.333 250.05 242.849C249.871 240.628 249.759 239.109 249.735 238.623C249.719 238.291 249.355 237.857 248.733 237.352C244.116 233.606 225.118 225.845 225.118 225.845C210.853 225.48 203.513 231.08 203.513 231.08Z" fill="#EEA886"/>
<path d="M200.508 236.35C201.549 245.454 211.195 245.733 211.195 245.733H226.93C226.93 245.733 222.796 254.941 221.203 262.708C219.509 270.949 215.518 285.532 215.518 285.532C215.518 285.532 215.779 286.027 218.626 285.751C218.626 285.751 230.976 261.106 235.705 254.91C236.722 253.576 239.636 246.341 240.14 242.023C240.31 240.571 240.204 239.449 239.663 238.994C239.117 238.535 237.863 237.672 236.191 236.617C231.262 233.506 222.702 228.717 217.934 227.644C211.547 226.207 205.835 224.669 205.835 224.669C205.835 224.669 199.467 227.246 200.508 236.35Z" fill="#EEA886"/>
<path d="M225.288 245.733H211.195C211.195 245.733 200.463 246.448 199.422 237.344C198.38 228.24 203.516 224.055 203.516 224.055C203.516 224.055 208.303 225.338 214.291 226.784C217.29 226.146 220.902 225.733 225.121 225.839C225.121 225.839 243.005 229.446 249.622 238.276C249.616 238.276 239.117 232.977 225.288 245.733Z" fill="#E55353"/>
<path d="M234.245 181.701C234.342 182.719 234.473 183.737 234.606 184.719C234.646 185.022 234.704 185.326 234.773 185.624C235.186 187.39 236.085 189.018 237.296 190.207C239.008 191.884 241.345 192.668 243.803 191.686C248.292 189.891 249.151 174.317 249.151 174.317C247.005 168.592 239.077 169.416 236.23 171.998C233.981 174.044 233.878 177.881 234.245 181.701Z" fill="#EEA886"/>
<path d="M236.328 190.86C236.328 190.86 238.756 195.67 239.147 200.149C239.372 202.699 240.859 205.677 238.704 208.217C236.546 210.757 233.787 210.441 233.247 211.648C232.707 212.854 231.28 214.887 230.454 215.555C229.629 216.224 228.645 222.362 228.36 223.003C228.075 223.648 229.905 227.005 216.413 227.148C202.921 227.291 203.513 224.058 203.513 224.058C203.513 224.058 207.131 220.12 211.314 212.699C212.604 210.411 215.721 194.989 217.29 192.844C218.86 190.699 227.452 178.86 236.328 190.86Z" fill="#EDDAD3"/>
<path d="M228.399 186.114C228.399 186.114 231.307 198.645 234.543 199.63C237.873 200.642 234.937 188.329 234.937 188.329C234.937 188.329 231.605 183.473 228.399 186.114Z" fill="#EEA886"/>
<path d="M245.658 175.785C245.658 175.785 248.034 180.777 248.053 182.88C248.053 182.88 249.731 179.75 249.765 177.11C249.798 174.481 250.417 170.151 246.095 167.55C241.773 164.952 245.658 175.785 245.658 175.785Z" fill="#754836"/>
<path d="M245.215 230.242C245.215 230.242 247.191 231.348 248.599 232.029C249.689 232.554 252.026 234.627 252.393 235.63C252.758 236.632 252.924 241.874 253.192 242.382C253.459 242.889 252.627 243.005 252.093 242.254C252.093 242.254 250.678 243.466 249.473 241.75C248.268 240.033 248.016 237.875 247.346 237.064C246.672 236.249 242.547 231.761 242.547 231.761C242.547 231.761 244.225 228.978 245.215 230.242Z" fill="#EEA886"/>
<path d="M252.06 235.052C252.06 235.052 253.016 236.414 253.219 236.857C253.426 237.304 254.297 239.027 254.512 239.44C254.725 239.854 253.699 239.832 251.844 237.356C249.99 234.879 252.06 235.052 252.06 235.052Z" fill="#EEA886"/>
<path d="M246.423 230.105L244.301 233.973L238.073 231.515L240.865 227.461L246.423 230.105Z" fill="#F5E1DA"/>
<path d="M225.045 197.846C225.045 197.846 225.759 191.033 221.239 191.842C216.717 192.653 217.293 198.369 217.339 199.514C217.384 200.657 217.906 214.143 218.477 216.619C219.048 219.096 219.81 223.958 221.952 225.337C224.095 226.72 244.289 233.691 244.432 233.74C244.574 233.788 246.426 230.105 246.426 230.105C246.426 230.105 232.661 223.526 231.043 222.907C229.425 222.287 225.665 220.476 225.428 219.284C225.188 218.096 225.003 198.894 225.045 197.846Z" fill="#F5E1DA"/>
<path d="M231.629 189.459C232.105 192.586 235.69 193.856 235.723 192.33C235.726 192.16 236.054 191.695 236.3 191.355C236.397 191.221 236.482 191.103 236.528 191.036C236.713 190.756 236.986 190.477 237.296 190.209C238.452 189.219 240.164 188.411 240.164 188.411L235.438 179.692C235.438 179.692 234.91 180.51 234.248 181.704C233.016 183.916 231.319 187.426 231.629 189.459Z" fill="#EEA886"/>
<path d="M246.371 176.241C246.371 176.241 244.75 180.434 241.205 180.027C237.66 179.62 235.283 180.884 235.083 182.385C234.883 183.886 233.101 192.039 229.971 192.249C226.842 192.458 223.892 188.089 222.286 189.265C220.68 190.444 219.551 195.932 217.078 194.865C214.601 193.798 214.334 188.936 218.871 186.141C223.409 183.345 226.857 182.832 227.871 179.917C228.885 177.003 231.31 169.106 234.455 167.146C236.786 165.693 239.627 164.444 244.747 166.781C249.868 169.121 249.151 174.317 249.151 174.317L246.371 176.241Z" fill="#754836"/>
<path d="M236.297 191.352C236.394 191.218 236.479 191.1 236.525 191.033C236.71 190.753 236.983 190.474 237.293 190.206C237.293 190.206 235.308 188.189 234.771 185.624C234.771 185.624 234.33 187.699 236.297 191.352Z" fill="#A77860"/>
<path d="M431.642 490.789C431.642 490.789 432.185 494.605 432.255 495.177C432.322 495.751 438.305 494.839 438.305 494.839L438.79 490.296C438.79 490.299 432.392 490.251 431.642 490.789Z" fill="#5C544D"/>
<path d="M432.191 494.694C432.191 494.694 430.294 496.994 428.464 497.994C426.634 498.994 423.75 499.392 422.667 500.431C421.884 501.178 419.816 504.403 427.429 504.339C435.041 504.275 438.714 504.795 439.528 503.558C440.341 502.321 438.347 494.436 438.347 494.436C438.347 494.436 436.544 495.092 432.191 494.694Z" fill="#3C4145"/>
<path d="M388.781 490.789C388.781 490.789 389.324 494.605 389.394 495.177C389.461 495.751 395.443 494.839 395.443 494.839L395.929 490.296C395.929 490.299 389.53 490.251 388.781 490.789Z" fill="#5C544D"/>
<path d="M389.33 494.694C389.33 494.694 387.436 496.994 385.603 497.994C383.769 498.997 377.025 499.82 375.941 500.856C375.158 501.604 373.856 504.618 384.571 504.339C392.183 504.138 395.856 504.795 396.669 503.558C397.483 502.321 395.489 494.436 395.489 494.436C395.489 494.436 393.789 495.134 389.33 494.694Z" fill="#3C4145"/>
<path d="M429.517 392.288C429.517 392.288 432.701 401.757 432.282 409.916C431.863 418.075 433.927 427.003 434.774 435.526C435.715 445.028 439.567 467.521 439.707 472.605C439.846 477.689 439.109 493.919 439.109 493.919L431.399 494.098C431.399 494.098 424.922 454.774 423.246 450.759C421.568 446.745 413.251 418.142 412.972 414.93C412.689 411.718 429.517 392.288 429.517 392.288Z" fill="#33373B"/>
<path d="M397.1 393.975C397.1 393.975 392.863 416.337 392.304 421.329C391.746 426.322 391.373 445.496 391.093 448.617C390.814 451.738 389.23 489.458 387.739 494.095H397.598C397.598 494.095 405.165 466.673 405.165 453.698C405.165 440.723 411.011 425.493 414.784 416.932C418.557 408.372 427.195 408.169 429.517 392.288C429.517 392.288 400.242 388.937 397.1 393.975Z" fill="#3C4145"/>
<path d="M417.136 317.551C417.136 317.551 409.366 314.646 405.781 320.568C402.199 326.491 402.542 338.345 406.461 339.803C410.376 341.262 416.262 340.499 418.268 336.792C420.275 333.088 422.084 327.728 421.999 324.148C421.908 320.568 419.176 318.584 417.136 317.551Z" fill="#EEA886"/>
<path d="M407.766 339.439C407.766 339.439 408.079 341.478 407.56 342.483C407.041 343.489 417.334 343.514 417.334 343.514C417.334 343.514 418.168 338.05 419.753 333.434C421.337 328.815 407.766 339.439 407.766 339.439Z" fill="#EEA886"/>
<path d="M419.753 333.431C419.753 333.431 419.042 334.604 416.144 334.148C413.245 333.692 409.706 329.83 408.495 329.408C407.284 328.982 407.272 328.271 407.272 328.271L406.513 329.38L405.226 329.462C405.226 329.462 406.397 326.007 404.628 324.597C402.858 323.187 406.464 313.415 415.764 316.669C415.764 316.669 422.906 318.642 422.648 322.707C422.393 326.773 421.352 331.407 419.753 333.431Z" fill="#FCCCA2"/>
<path d="M406.95 342.362C406.95 342.362 406.983 340.442 407.851 340.259C408.719 340.074 417.443 339.235 418.511 339.655V341.891C418.508 341.891 416.453 343.155 406.95 342.362Z" fill="#E2D2CA"/>
<path d="M407.466 326.792C407.63 326.111 409.36 324.16 410.024 326.248C410.689 328.335 409.023 331.143 408.094 330.903C407.162 330.663 407.053 328.524 407.466 326.792Z" fill="#EEA886"/>
<path d="M406.95 342.362C406.95 342.362 402.169 344.082 396.63 346.44C396.63 346.44 390.259 348.822 389.567 355.866C389.2 359.604 385.223 379.45 384.48 381.13C383.736 382.811 374.916 409.785 374.606 410.345C374.296 410.904 381.803 414.024 382.3 413.775C382.798 413.526 390.839 389.171 391.646 387.369C391.646 387.369 396.275 372.765 396.399 370.589C396.399 370.589 396.533 376.794 396.782 378.535C397.031 380.276 392.666 414.091 392.79 415.024C392.915 415.957 412.629 417.142 420.518 416.273C428.406 415.404 434.774 413.584 434.774 413.584C434.774 413.584 428.567 386.898 428.755 383.938C429.171 377.493 431.323 365.35 431.323 365.35L437.755 377.493L429.52 398.703L431.405 405.148C431.405 405.148 446.706 381.999 447.204 379.884C447.702 377.769 446.454 375.077 445.647 373.336C444.839 371.595 439.534 358.34 438.292 356.474C437.051 354.608 434.95 347.136 429.875 345.057C425.632 343.319 418.511 341.894 418.511 341.894L406.95 342.362Z" fill="#495054"/>
<path d="M402.888 397.413L366.837 388.158L360.388 413.335L396.439 422.59L402.888 397.413Z" fill="#D6D6D6"/>
<path d="M371.464 415.848C371.464 415.848 370.435 417.516 370.059 417.99C369.683 418.464 370.985 418.765 371.54 418.282C372.096 417.799 371.464 415.848 371.464 415.848Z" fill="#C98462"/>
<path d="M378.971 421.542C378.971 421.542 379.581 420.907 379.711 420.5C379.711 420.5 379.893 419.74 380.054 419.208C380.106 419.038 380.154 418.892 380.197 418.804C380.37 418.424 380.862 417.64 381.022 416.61C381.18 415.583 381.629 410.964 381.629 410.964L378.837 410.259L376.594 409.785C376.594 409.785 371.747 414.626 371.489 415.565C371.464 415.656 371.443 415.75 371.431 415.835C371.288 416.653 371.528 417.321 371.501 417.759C371.492 417.92 371.516 419.524 371.889 419.825C372.408 420.241 372.936 420.32 373.37 420.181C373.37 420.181 374.421 420.953 375.298 420.907C375.298 420.907 376.245 421.651 377.319 421.284C377.313 421.287 378.357 421.934 378.971 421.542Z" fill="#DE9D7D"/>
<path d="M389.871 392.34C389.871 392.34 383.472 411.739 382.298 413.775C382.298 413.775 377.605 412.788 374.603 410.344L381.627 389.411L389.871 392.34Z" fill="#495054"/>
</g>
<defs>
<clipPath id="clip0">
<rect width="541" height="545" fill="white"/>
</clipPath>
</defs>
</svg>
