<svg width="552" height="411" viewBox="0 0 552 411" fill="none" xmlns="http://www.w3.org/2000/svg">
<path d="M552 361.187H0V361.463H552V361.187Z" fill="#EBEBEB"/>
<path d="M474.4 368.699H366.649V368.974H474.4V368.699Z" fill="#EBEBEB"/>
<path d="M370.58 375.063H319.056V375.339H370.58V375.063Z" fill="#EBEBEB"/>
<path d="M496.69 378.935H475.504V379.211H496.69V378.935Z" fill="#EBEBEB"/>
<path d="M241.776 375.207H139.623V375.482H241.776V375.207Z" fill="#EBEBEB"/>
<path d="M129.797 375.207H107.828V375.482H129.797V375.207Z" fill="#EBEBEB"/>
<path d="M100.078 370.552H63.8003V370.828H100.078V370.552Z" fill="#EBEBEB"/>
<path d="M261.659 311.992H48.4874C45.0098 311.992 42.1836 309.168 42.1836 305.694V6.2983C42.1836 2.82376 45.0098 0 48.4874 0H261.67C265.147 0 267.974 2.82376 267.974 6.2983V305.694C267.963 309.168 265.136 311.992 261.659 311.992ZM48.4874 0.275757C45.1644 0.275757 42.4596 2.97818 42.4596 6.2983V305.694C42.4596 309.014 45.1644 311.716 48.4874 311.716H261.67C264.993 311.716 267.698 309.014 267.698 305.694V6.2983C267.698 2.97818 264.993 0.275757 261.67 0.275757H48.4874Z" fill="#EBEBEB"/>
<path d="M500.454 311.992H287.272C283.794 311.992 280.968 309.168 280.968 305.694V6.2983C280.968 2.82376 283.794 0 287.272 0H500.454C503.932 0 506.758 2.82376 506.758 6.2983V305.694C506.758 309.168 503.932 311.992 500.454 311.992ZM287.272 0.275757C283.949 0.275757 281.244 2.97818 281.244 6.2983V305.694C281.244 309.014 283.949 311.716 287.272 311.716H500.454C503.777 311.716 506.482 309.014 506.482 305.694V6.2983C506.482 2.97818 503.777 0.275757 500.454 0.275757H287.272Z" fill="#EBEBEB"/>
<path d="M431.741 351.028H98.2893L78.4062 125.04H411.858L431.741 351.028Z" fill="#F0F0F0"/>
<path d="M92.405 358.231L98.2893 351.028L78.4063 125.04L72.522 132.342L92.405 358.231Z" fill="#E0E0E0"/>
<path d="M102.705 342.447L84.3788 134.272C84.1911 132.077 85.9133 130.191 88.1213 130.191H403.711C405.654 130.191 407.277 131.68 407.453 133.61L425.769 341.785C425.956 343.98 424.234 345.866 422.026 345.866H106.437C104.494 345.877 102.871 344.388 102.705 342.447Z" fill="url(#paint0_linear)"/>
<path d="M145.165 351.028H94.9221L91.3672 361.187H141.61L145.165 351.028Z" fill="#E0E0E0"/>
<path d="M145.165 351.028H475.504L471.949 361.187H141.61L145.165 351.028Z" fill="#F5F5F5"/>
<path d="M281.189 351.028H344.514L343.83 357.68H280.516L281.189 351.028Z" fill="#E0E0E0"/>
<path d="M377.149 110.204H457.156C463.791 154.06 433.121 190.14 389.238 190.14C375.195 190.14 360.843 186.445 347.617 179.43L377.149 110.204Z" fill="#E0E0E0"/>
<path d="M377.148 110.204L419.321 48.9746C429.401 56.4752 438.023 65.851 444.559 76.429C451.094 87.0071 455.4 98.5337 457.166 110.215H377.148V110.204Z" fill="#EBEBEB"/>
<path d="M377.149 110.204L365.06 30.2671C374.389 30.2671 383.905 31.8996 393.157 35.0873C402.408 38.2751 411.262 42.974 419.322 48.9634L377.149 110.204Z" fill="#E6E6E6"/>
<path d="M377.149 110.204L347.617 179.43C320.734 165.168 301.458 138.728 297.153 110.204C290.518 66.3472 321.187 30.2671 365.071 30.2671L377.149 110.204Z" fill="#F0F0F0"/>
<path d="M278.374 252.858H349.35C350.289 259.057 350.41 265.223 349.703 271.213C349.008 277.202 347.484 282.949 345.199 288.31L278.374 252.858Z" fill="#EBEBEB"/>
<path d="M278.374 252.859L280.14 183.026C297.01 185.916 313.194 194.508 325.846 207.282C338.498 220.044 346.822 236.192 349.339 252.859H278.374Z" fill="#E0E0E0"/>
<path d="M278.374 252.859L215.347 277.114C211.339 269.338 208.645 261.131 207.398 252.859C201.513 213.955 228.716 181.945 267.643 181.945C271.772 181.945 275.956 182.309 280.129 183.026L278.374 252.859Z" fill="#F0F0F0"/>
<path d="M278.374 252.858L345.199 288.31C335.848 310.227 314.42 323.761 289.094 323.761C259.33 323.761 229.754 305.054 215.347 277.103L278.374 252.858Z" fill="white"/>
<path d="M276 411C394.219 411 490.054 405.41 490.054 398.514C490.054 391.618 394.219 386.027 276 386.027C157.781 386.027 61.9453 391.618 61.9453 398.514C61.9453 405.41 157.781 411 276 411Z" fill="#F5F5F5"/>
<path d="M265.611 203.432H166.163C159.848 203.432 154.273 198.27 153.754 191.971L148.775 130.875C148.256 124.565 153.003 119.414 159.318 119.414H258.766C265.081 119.414 270.656 124.576 271.175 130.875L276.154 191.971C276.662 198.281 271.915 203.432 265.611 203.432Z" fill="white"/>
<path d="M265.611 203.917H166.163C159.594 203.917 153.809 198.579 153.279 192.016L148.3 130.919C148.035 127.731 149.051 124.72 151.148 122.448C153.235 120.186 156.139 118.94 159.318 118.94H258.766C265.335 118.94 271.12 124.279 271.65 130.842L276.629 191.938C276.894 195.126 275.878 198.138 273.781 200.41C271.683 202.671 268.791 203.917 265.611 203.917ZM159.318 119.889C156.403 119.889 153.754 121.025 151.855 123.087C149.945 125.161 149.018 127.919 149.261 130.831L154.24 191.927C154.736 198.005 160.091 202.958 166.174 202.958H265.622C268.537 202.958 271.186 201.822 273.085 199.759C274.995 197.685 275.923 194.928 275.68 192.016L270.701 130.919C270.204 124.841 264.849 119.889 258.766 119.889H159.318Z" fill="#407BFF"/>
<path d="M238.618 185.596C234.721 189.842 229.676 192.887 224.001 194.442L222.356 189.732C234.6 186.39 242.891 174.985 241.787 161.428C241.124 153.332 237.249 146.008 231.509 140.702L234.677 137.25C249.029 150.519 250.807 172.337 238.618 185.596Z" fill="#E0E0E0"/>
<path d="M234.677 137.261L231.509 140.714C225.768 135.408 218.172 132.132 210.069 132.132C201.966 132.132 194.9 135.419 190.042 140.725L186.3 137.261C192.195 130.853 200.608 127.246 209.671 127.246C218.746 127.246 227.744 130.853 234.677 137.261Z" fill="#263238"/>
<path d="M224.001 194.442C212.465 197.597 199.57 194.21 190.23 185.596C175.889 172.337 174.112 150.519 186.289 137.25L190.031 140.714C185.152 146.019 182.469 153.332 183.131 161.428C184.445 177.599 198.643 190.714 214.838 190.714C217.455 190.714 219.983 190.372 222.345 189.732L224.001 194.442Z" fill="#407BFF"/>
<path d="M130.151 20.6709H122.18V21.6305H130.151V20.6709Z" fill="#407BFF"/>
<path d="M114.441 20.6709H96.291V21.6305H114.441V20.6709Z" fill="#407BFF"/>
<path d="M198.874 108.472H99.4371C93.1222 108.472 87.547 103.31 87.0281 97.0114L82.0491 35.9146C81.5302 29.6053 86.2774 24.4541 92.5923 24.4541H192.041C198.355 24.4541 203.931 29.6163 204.45 35.9146L209.429 97.0114C209.936 103.31 205.189 108.472 198.874 108.472Z" fill="white"/>
<path d="M198.875 108.946H99.4373C92.8685 108.946 87.0835 103.608 86.5536 97.0447L81.5745 35.9589C81.3096 32.7711 82.3253 29.7599 84.4229 27.4876C86.5094 25.2264 89.4129 23.98 92.5925 23.98H192.041C198.61 23.98 204.395 29.3186 204.924 35.8817L209.904 96.9785C210.168 100.166 209.153 103.178 207.055 105.45C204.958 107.711 202.054 108.946 198.875 108.946ZM92.5925 24.9286C89.6779 24.9286 87.0283 26.0647 85.1294 28.1274C83.2195 30.2011 82.2921 32.9476 82.535 35.8706L87.5141 96.9675C88.0109 103.045 93.3653 107.998 99.4483 107.998H198.897C201.811 107.998 204.461 106.862 206.36 104.799C208.27 102.725 209.197 99.9677 208.954 97.0557L203.975 35.9589C203.478 29.8812 198.124 24.9286 192.041 24.9286H92.5925Z" fill="#407BFF"/>
<path d="M91.0468 41.9814H143.741L143.31 36.7861H90.6162L91.0468 41.9814Z" fill="#E0E0E0"/>
<path d="M196.435 41.9814H143.741L143.31 36.7861H196.015L196.435 41.9814Z" fill="#407BFF"/>
<path d="M92.1508 55.5266H107.176L106.757 50.3203H91.7202L92.1508 55.5266Z" fill="#E0E0E0"/>
<path d="M197.539 55.5266H107.176L106.757 50.3203H197.119L197.539 55.5266Z" fill="#407BFF"/>
<path d="M93.2548 69.061H140.153L139.733 63.8657H92.8242L93.2548 69.061Z" fill="#E0E0E0"/>
<path d="M198.643 69.061H140.153L139.733 63.8657H198.223L198.643 69.061Z" fill="#407BFF"/>
<path d="M94.3477 82.6062H174.41L173.979 77.3999H93.9282L94.3477 82.6062Z" fill="#E0E0E0"/>
<path d="M199.747 82.6062H174.41L173.979 77.3999H199.327L199.747 82.6062Z" fill="#407BFF"/>
<path d="M95.4517 96.1401H132.48L132.06 90.9448H95.0322L95.4517 96.1401Z" fill="#E0E0E0"/>
<path d="M200.851 96.1401H132.48L132.061 90.9448H200.42L200.851 96.1401Z" fill="#407BFF"/>
<path d="M334.821 108.472H235.373C229.058 108.472 223.483 103.31 222.964 97.0114L217.985 35.9146C217.466 29.6053 222.213 24.4541 228.528 24.4541H327.976C334.291 24.4541 339.866 29.6163 340.385 35.9146L345.364 97.0114C345.872 103.31 341.136 108.472 334.821 108.472Z" fill="white"/>
<path d="M334.821 108.946H235.373C228.804 108.946 223.019 103.608 222.489 97.0445L217.51 35.9477C217.245 32.7599 218.261 29.7486 220.358 27.4764C222.445 25.2152 225.348 23.9688 228.528 23.9688H327.976C334.545 23.9688 340.33 29.3074 340.86 35.8704L345.839 96.9673C346.104 100.155 345.088 103.166 342.991 105.439C340.904 107.711 338.001 108.946 334.821 108.946ZM228.528 24.9284C225.613 24.9284 222.964 26.0645 221.065 28.1272C219.155 30.2009 218.228 32.9584 218.471 35.8704L223.45 96.9673C223.946 103.045 229.301 107.998 235.384 107.998H334.832C337.747 107.998 340.396 106.861 342.295 104.799C344.205 102.725 345.132 99.9785 344.89 97.0555L339.911 35.9587C339.414 29.881 334.059 24.9284 327.976 24.9284H228.528Z" fill="#407BFF"/>
<path d="M284.975 96.1402H283.22L278.384 36.7861H280.14L284.975 96.1402Z" fill="#E0E0E0"/>
<path d="M287.625 71.4765H276.552L274.664 48.2798H285.737L287.625 71.4765Z" fill="#407BFF"/>
<path d="M263.182 96.1402H261.427L256.581 36.7861H258.336L263.182 96.1402Z" fill="#E0E0E0"/>
<path d="M266.251 76.6277H255.167L253.511 56.2988H264.595L266.251 76.6277Z" fill="#407BFF"/>
<path d="M241.378 96.1402H239.623L234.788 36.7861H236.543L241.378 96.1402Z" fill="#E0E0E0"/>
<path d="M243.09 59.9058H232.017L230.879 45.9414H241.953L243.09 59.9058Z" fill="#263238"/>
<path d="M306.768 96.1402H305.013L300.177 36.7861H301.933L306.768 96.1402Z" fill="#E0E0E0"/>
<path d="M310.489 84.6467H299.416L296.457 48.2798H307.53L310.489 84.6467Z" fill="#263238"/>
<path d="M328.572 96.1402H326.817L321.97 36.7861H323.726L328.572 96.1402Z" fill="#E0E0E0"/>
<path d="M332.646 89.0038H321.573L319.199 59.8838H330.272L332.646 89.0038Z" fill="#407BFF"/>
<path d="M228.406 297.62H128.958C122.643 297.62 117.068 292.458 116.549 286.159L111.57 225.063C111.051 218.753 115.798 213.602 122.113 213.602H221.562C227.876 213.602 233.452 218.764 233.971 225.063L238.95 286.159C239.457 292.458 234.721 297.62 228.406 297.62Z" fill="white"/>
<path d="M228.407 298.094H128.958C122.389 298.094 116.604 292.755 116.075 286.192L111.096 225.096C110.831 221.908 111.846 218.897 113.944 216.624C116.03 214.363 118.934 213.117 122.113 213.117H221.562C228.131 213.117 233.916 218.455 234.445 225.018L239.425 286.115C239.689 289.303 238.674 292.314 236.576 294.586C234.49 296.848 231.586 298.094 228.407 298.094ZM122.113 214.076C119.199 214.076 116.549 215.212 114.65 217.275C112.74 219.349 111.813 222.106 112.056 225.018L117.035 286.115C117.532 292.193 122.886 297.146 128.969 297.146H228.418C231.332 297.146 233.982 296.009 235.881 293.947C237.791 291.873 238.718 289.126 238.475 286.203L233.496 225.107C232.999 219.029 227.645 214.076 221.562 214.076H122.113Z" fill="#407BFF"/>
<path d="M135.571 254.149L157 278.89L181.586 241.012L196.777 260.591L200.486 254.866L225.337 284.626L129.908 284.582L135.571 254.149Z" fill="#407BFF"/>
<path d="M207.122 255.683L197.164 276.993L165.39 226.596L150.431 258.606L145.629 250.995L129.919 284.626L225.327 284.571L207.122 255.683Z" fill="#E0E0E0"/>
<path d="M411.66 114.836C414.32 119.822 416.605 124.752 418.758 129.881C420.856 135.022 422.799 140.239 424.311 145.743C424.698 147.111 425.029 148.523 425.349 149.934C425.482 150.42 425.791 151.953 425.791 152.924C425.846 154.005 425.758 154.986 425.625 155.913C425.029 159.575 423.737 162.388 422.346 165.046C419.487 170.307 416.042 174.664 412.024 178.779C410.82 180.014 408.844 180.036 407.608 178.834C406.603 177.852 406.393 176.352 407.012 175.172L407.089 175.017C409.451 170.451 411.803 165.631 413.382 161.064C414.144 158.803 414.751 156.486 414.74 154.777C414.729 154.369 414.718 153.994 414.651 153.729C414.629 153.597 414.596 153.475 414.563 153.409L414.364 152.758C414 151.567 413.614 150.387 413.172 149.184C411.505 144.397 409.429 139.588 407.288 134.812C405.146 130.058 402.85 125.216 400.575 120.616L400.531 120.528C398.997 117.428 400.266 113.678 403.368 112.145C406.393 110.667 410.07 111.869 411.66 114.836Z" fill="#407BFF"/>
<path d="M408.204 174.565L402.938 176.22L409.142 183.478C409.142 183.478 411.538 181.371 412.399 178.327C412.686 177.301 412.266 176.198 411.394 175.569L410.511 174.929C409.849 174.455 408.987 174.323 408.204 174.565Z" fill="#EEA886"/>
<path d="M395.673 180.698L402.319 185.959L409.142 183.478L402.938 176.22L395.673 180.698Z" fill="#EEA886"/>
<path d="M372.986 77.9397C372.854 78.5905 372.401 79.0537 371.97 78.9655C371.54 78.8773 371.308 78.2816 371.441 77.6308C371.573 76.9801 372.026 76.5168 372.456 76.605C372.876 76.6933 373.119 77.2889 372.986 77.9397Z" fill="#263238"/>
<path d="M372.456 79.0649C372.456 79.0649 370.204 82.5285 368.206 84.0175C369.144 85.3302 371.209 85.2309 371.209 85.2309L372.456 79.0649Z" fill="#630F0F"/>
<path d="M376.111 74.8071C376.21 74.8071 376.298 74.774 376.376 74.7079C376.53 74.5645 376.541 74.3108 376.398 74.1563C374.929 72.568 373.141 72.8548 373.064 72.8658C372.854 72.8989 372.71 73.1085 372.744 73.318C372.777 73.5276 372.986 73.671 373.196 73.6379C373.251 73.6269 374.653 73.4283 375.824 74.6968C375.901 74.763 376.011 74.8071 376.111 74.8071Z" fill="#263238"/>
<path d="M391.125 89.8193C389.944 95.8639 389.226 104.225 393.455 108.262C393.455 108.262 391.799 114.384 380.571 114.384C368.217 114.384 374.631 109.012 374.631 109.012C379.765 107.424 379.721 101.578 378.551 96.8787L391.125 89.8193Z" fill="#EEA886"/>
<path d="M372.456 108.064C372.456 108.064 374.256 103.795 376.099 103.067C377.943 102.328 389.656 100.409 392.35 102.107C395.044 103.806 396.876 109.255 396.876 109.255L372.456 108.064Z" fill="#407BFF"/>
<path d="M384.843 390.506C383.783 390.506 382.757 390.362 382.414 389.888C382.293 389.722 382.205 389.436 382.425 389.039C382.558 388.807 382.768 388.653 383.044 388.586C384.424 388.211 387.305 389.855 387.427 389.932C387.493 389.976 387.537 390.053 387.526 390.131C387.515 390.208 387.449 390.274 387.371 390.296C386.853 390.373 385.826 390.506 384.843 390.506ZM383.529 388.895C383.397 388.895 383.265 388.906 383.154 388.939C382.977 388.983 382.845 389.083 382.768 389.215C382.624 389.458 382.679 389.579 382.735 389.645C383.121 390.175 385.208 390.186 386.742 389.976C385.969 389.59 384.501 388.895 383.529 388.895Z" fill="#407BFF"/>
<path d="M387.338 390.274C387.316 390.274 387.283 390.263 387.261 390.252C386.267 389.8 384.291 388.024 384.435 387.086C384.468 386.866 384.622 386.59 385.163 386.535C385.561 386.491 385.925 386.612 386.245 386.866C387.294 387.726 387.515 389.954 387.526 390.042C387.537 390.109 387.504 390.175 387.449 390.219C387.415 390.263 387.382 390.274 387.338 390.274ZM385.318 386.932C385.285 386.932 385.241 386.932 385.196 386.943C384.843 386.976 384.821 387.119 384.81 387.164C384.722 387.726 386.058 389.127 387.084 389.734C386.974 389.083 386.687 387.748 385.991 387.186C385.793 387.009 385.572 386.932 385.318 386.932Z" fill="#407BFF"/>
<path d="M396.424 390.076H388.166L387.338 370.96H395.596L396.424 390.076Z" fill="#EEA886"/>
<path d="M388.21 389.127H397.23C397.572 389.127 397.859 389.359 397.936 389.69L399.57 397.025C399.736 397.786 399.162 398.503 398.378 398.492C395.121 398.437 390.418 398.249 386.322 398.249C381.542 398.249 380.957 398.514 375.349 398.514C371.959 398.514 371.01 395.083 372.434 394.774C378.903 393.363 380.626 393.208 386.212 389.767C386.83 389.392 387.504 389.127 388.21 389.127Z" fill="#263238"/>
<path d="M408.248 108.284C415.998 110.06 421.099 130.94 421.099 130.94L408.171 140.647C408.171 140.647 401.116 136.279 398.577 126.396C395.917 116.05 400.333 106.475 408.248 108.284Z" fill="#263238"/>
<path opacity="0.2" d="M401.613 122.811C405.819 126.969 408.535 133.532 408.866 140.118L408.182 140.647C408.182 140.647 401.116 136.279 398.577 126.396C398.422 125.778 398.29 125.16 398.168 124.554L401.613 122.811Z" fill="black"/>
<path d="M436.096 139.36L373.355 164.411L392 211.026L454.741 185.975L436.096 139.36Z" fill="#407BFF"/>
<path opacity="0.5" d="M435.178 139.718L373.36 164.4L392.006 211.015L453.824 186.332L435.178 139.718Z" fill="white"/>
<g opacity="0.5">
<path opacity="0.5" d="M384.686 164.667L378.832 167.004L380.491 171.153L386.345 168.815L384.686 164.667Z" fill="#407BFF"/>
<path opacity="0.5" d="M394.345 160.808L388.492 163.146L390.151 167.294L396.005 164.957L394.345 160.808Z" fill="#407BFF"/>
<path opacity="0.5" d="M404.005 156.949L398.151 159.286L399.811 163.434L405.664 161.097L404.005 156.949Z" fill="#407BFF"/>
<path opacity="0.5" d="M413.679 153.096L407.825 155.433L409.484 159.581L415.338 157.244L413.679 153.096Z" fill="#407BFF"/>
<path opacity="0.5" d="M423.338 149.236L417.484 151.574L419.144 155.722L424.997 153.385L423.338 149.236Z" fill="#407BFF"/>
<path opacity="0.5" d="M432.998 145.385L427.145 147.722L428.804 151.87L434.657 149.533L432.998 145.385Z" fill="#407BFF"/>
<path opacity="0.5" d="M387.422 171.504L381.568 173.841L383.228 177.989L389.081 175.652L387.422 171.504Z" fill="#407BFF"/>
<path opacity="0.5" d="M397.086 167.657L391.232 169.995L392.891 174.143L398.745 171.806L397.086 167.657Z" fill="#407BFF"/>
<path opacity="0.5" d="M406.745 163.798L400.892 166.135L402.551 170.284L408.405 167.946L406.745 163.798Z" fill="#407BFF"/>
<path opacity="0.5" d="M416.415 159.935L410.561 162.272L412.22 166.42L418.074 164.083L416.415 159.935Z" fill="#407BFF"/>
<path opacity="0.5" d="M426.074 156.076L420.221 158.413L421.88 162.561L427.734 160.224L426.074 156.076Z" fill="#407BFF"/>
<path opacity="0.5" d="M435.734 152.216L429.88 154.554L431.54 158.702L437.393 156.365L435.734 152.216Z" fill="#407BFF"/>
<path opacity="0.5" d="M390.162 178.356L384.308 180.693L385.967 184.841L391.821 182.504L390.162 178.356Z" fill="#407BFF"/>
<path opacity="0.5" d="M399.822 174.494L393.968 176.831L395.627 180.979L401.481 178.642L399.822 174.494Z" fill="#407BFF"/>
<path opacity="0.5" d="M409.481 170.637L403.627 172.975L405.287 177.123L411.14 174.786L409.481 170.637Z" fill="#407BFF"/>
<path opacity="0.5" d="M419.151 166.774L413.297 169.111L414.957 173.26L420.81 170.922L419.151 166.774Z" fill="#407BFF"/>
<path opacity="0.5" d="M428.815 162.932L422.961 165.27L424.62 169.418L430.474 167.081L428.815 162.932Z" fill="#407BFF"/>
<path opacity="0.5" d="M438.474 159.073L432.621 161.411L434.28 165.559L440.134 163.222L438.474 159.073Z" fill="#407BFF"/>
<path opacity="0.5" d="M392.898 185.194L387.044 187.532L388.704 191.68L394.557 189.343L392.898 185.194Z" fill="#407BFF"/>
<path opacity="0.5" d="M402.562 181.346L396.708 183.683L398.367 187.831L404.221 185.494L402.562 181.346Z" fill="#407BFF"/>
<path opacity="0.5" d="M412.221 177.484L406.368 179.821L408.027 183.969L413.881 181.632L412.221 177.484Z" fill="#407BFF"/>
<path opacity="0.5" d="M421.891 173.623L416.037 175.96L417.696 180.109L423.55 177.771L421.891 173.623Z" fill="#407BFF"/>
<path opacity="0.5" d="M431.551 169.764L425.697 172.101L427.356 176.249L433.21 173.912L431.551 169.764Z" fill="#407BFF"/>
<path opacity="0.5" d="M441.21 165.905L435.356 168.242L437.016 172.39L442.869 170.053L441.21 165.905Z" fill="#407BFF"/>
<path opacity="0.5" d="M395.638 192.041L389.785 194.378L391.444 198.527L397.298 196.189L395.638 192.041Z" fill="#407BFF"/>
<path opacity="0.5" d="M405.298 188.185L399.444 190.522L401.103 194.67L406.957 192.333L405.298 188.185Z" fill="#407BFF"/>
<path opacity="0.5" d="M414.957 184.325L409.104 186.663L410.763 190.811L416.617 188.474L414.957 184.325Z" fill="#407BFF"/>
<path opacity="0.5" d="M424.617 180.471L418.763 182.808L420.422 186.956L426.276 184.619L424.617 180.471Z" fill="#407BFF"/>
<path opacity="0.5" d="M434.291 176.621L428.437 178.958L430.096 183.106L435.95 180.769L434.291 176.621Z" fill="#407BFF"/>
<path opacity="0.5" d="M443.95 172.754L438.097 175.091L439.756 179.24L445.61 176.902L443.95 172.754Z" fill="#407BFF"/>
<path opacity="0.5" d="M398.374 198.883L392.521 201.22L394.18 205.369L400.034 203.031L398.374 198.883Z" fill="#407BFF"/>
<path opacity="0.5" d="M408.034 195.024L402.18 197.361L403.839 201.509L409.693 199.172L408.034 195.024Z" fill="#407BFF"/>
<path opacity="0.5" d="M417.698 191.175L411.844 193.512L413.503 197.661L419.357 195.323L417.698 191.175Z" fill="#407BFF"/>
<path opacity="0.5" d="M427.357 187.316L421.503 189.653L423.163 193.801L429.016 191.464L427.357 187.316Z" fill="#407BFF"/>
<path opacity="0.5" d="M437.027 183.449L431.173 185.787L432.833 189.935L438.686 187.598L437.027 183.449Z" fill="#407BFF"/>
<path opacity="0.5" d="M446.686 179.593L440.833 181.93L442.492 186.078L448.346 183.741L446.686 179.593Z" fill="#407BFF"/>
</g>
<path d="M430.902 154.148C430.549 153.255 430.979 152.229 431.874 151.876C432.768 151.512 433.795 151.953 434.148 152.847C434.512 153.74 434.071 154.766 433.176 155.119C432.282 155.483 431.255 155.042 430.902 154.148Z" fill="white"/>
<path d="M429.456 178.536C429.092 177.643 429.533 176.617 430.428 176.264C431.322 175.9 432.349 176.341 432.702 177.235C433.066 178.128 432.625 179.154 431.73 179.507C430.825 179.871 429.809 179.43 429.456 178.536Z" fill="white"/>
<path d="M407.387 179.407C407.022 178.514 407.464 177.488 408.358 177.135C409.253 176.771 410.279 177.212 410.633 178.106C410.997 178.999 410.555 180.025 409.661 180.378C408.767 180.742 407.74 180.312 407.387 179.407Z" fill="white"/>
<path d="M393.532 200.817C393.167 199.924 393.609 198.898 394.503 198.545C395.398 198.181 396.424 198.622 396.778 199.515C397.142 200.409 396.7 201.435 395.806 201.788C394.912 202.152 393.896 201.711 393.532 200.817Z" fill="white"/>
<path d="M395.166 200.817C395.044 200.817 394.923 200.784 394.812 200.718C394.514 200.52 394.426 200.123 394.625 199.825L408.48 178.415C408.59 178.238 408.789 178.128 408.999 178.117L430.472 177.268L431.885 153.464C431.907 153.111 432.227 152.836 432.569 152.858C432.922 152.88 433.198 153.189 433.176 153.542L431.73 177.93C431.708 178.26 431.443 178.525 431.112 178.536L409.385 179.397L395.718 200.52C395.585 200.707 395.375 200.817 395.166 200.817Z" fill="white"/>
<path d="M359.308 116.568C357.618 125.492 356.559 143.802 361.46 180.081H405.654C404.859 173.793 401.69 140.239 408.237 108.295C408.237 108.295 400.663 106.773 393.443 106.431C387.791 106.155 379.621 105.979 374.653 106.431C372.578 106.619 370.546 106.917 368.736 107.236C363.966 108.075 360.213 111.803 359.308 116.568Z" fill="#263238"/>
<path opacity="0.2" d="M366.263 130.301L357.961 130.963C357.663 141.695 358.402 157.358 361.471 180.069H361.869C366.848 163.712 373.45 140.327 366.263 130.301Z" fill="black"/>
<path opacity="0.2" d="M387.338 370.96L387.758 380.821H396.027L395.607 370.96H387.338Z" fill="black"/>
<path d="M395.055 80.9843C392.935 88.9041 392.096 93.6361 387.206 96.9341C379.853 101.887 370.701 96.2061 370.414 87.8121C370.16 80.2563 373.671 68.5863 382.171 66.9869C390.54 65.4206 397.175 73.0646 395.055 80.9843Z" fill="#EEA886"/>
<path d="M376.508 81.0284L372.213 82.1424L376.21 71.785C375.779 70.9908 374.642 67.3949 375.846 63.7991C376.166 62.8504 377.038 62.2107 378.031 62.1886C386.93 62.0121 396.236 67.0089 400.917 70.7812C401.823 71.5092 402.043 72.7887 401.436 73.7815C400.41 75.4581 399.085 76.7486 397.407 78.4473C397.318 81.3483 392.582 94.4412 389.955 95.9193C387.327 97.3863 382.315 96.7907 380.979 94.3971C379.654 92.0146 375.15 88.8489 376.508 81.0284Z" fill="#263238"/>
<path d="M380.483 81.1939C379.997 83.2897 378.683 85.1097 377.281 86.2127C375.172 87.8672 373.527 86.3451 373.616 83.9074C373.693 81.7123 374.885 78.2157 377.237 77.4988C379.555 76.7928 381.035 78.8114 380.483 81.1939Z" fill="#EEA886"/>
<path d="M456.04 387.649C456.029 386.59 456.173 385.564 456.647 385.222C456.813 385.101 457.1 385.002 457.497 385.233C457.729 385.366 457.884 385.564 457.961 385.851C458.348 387.219 456.714 390.12 456.647 390.241C456.603 390.307 456.526 390.351 456.449 390.34C456.371 390.329 456.305 390.263 456.283 390.186C456.184 389.656 456.051 388.641 456.04 387.649ZM457.641 386.336C457.641 386.204 457.63 386.071 457.597 385.961C457.542 385.785 457.453 385.652 457.321 385.575C457.078 385.443 456.956 385.487 456.89 385.542C456.36 385.928 456.36 388.013 456.592 389.546C456.967 388.774 457.641 387.296 457.641 386.336Z" fill="#407BFF"/>
<path d="M456.283 390.142C456.283 390.12 456.283 390.087 456.305 390.064C456.747 389.061 458.524 387.075 459.452 387.23C459.673 387.263 459.949 387.417 460.004 387.958C460.048 388.355 459.937 388.719 459.673 389.039C458.811 390.098 456.592 390.329 456.493 390.34C456.427 390.351 456.36 390.318 456.316 390.263C456.294 390.219 456.283 390.186 456.283 390.142ZM459.628 388.112C459.628 388.079 459.628 388.035 459.617 387.991C459.584 387.638 459.441 387.616 459.396 387.616C458.833 387.528 457.442 388.884 456.835 389.899C457.487 389.789 458.811 389.491 459.374 388.796C459.54 388.575 459.628 388.355 459.628 388.112Z" fill="#407BFF"/>
<path d="M456.415 390.197L448.345 390.77L443.819 371.5L451.878 370.927L456.415 390.197Z" fill="#EEA886"/>
<path d="M456.382 388.344L447.396 387.549C447.065 387.516 446.744 387.726 446.645 388.046L444.371 395.215C444.139 395.954 444.647 396.727 445.431 396.782C448.676 397.013 453.379 397.234 457.453 397.598C462.223 398.017 459.131 398.006 464.718 398.502C468.096 398.8 469.332 395.469 467.952 395.039C461.637 393.064 460.489 391.697 458.314 389.16C457.84 388.619 457.1 388.41 456.382 388.344Z" fill="#263238"/>
<path opacity="0.2" d="M443.819 371.5L446.159 381.439L454.219 380.865L451.889 370.927L443.819 371.5Z" fill="black"/>
<path d="M377.148 180.07C377.148 180.07 396.159 243.483 403.368 267.021C411.262 292.799 441.313 378.317 441.313 378.317L455.886 375.118C455.886 375.118 435.307 301.646 426.762 265.687C420.204 238.067 405.665 180.059 405.665 180.059H377.148V180.07Z" fill="#407BFF"/>
<path d="M438.752 373.828C438.685 373.839 440.187 379.508 440.187 379.508L457.707 377.633L457.63 372.427L438.752 373.828Z" fill="#263238"/>
<path opacity="0.3" d="M387.669 209.465C398.19 210.855 402.374 247.476 403.953 268.963C403.754 268.279 403.545 267.639 403.357 267.021C399.416 254.171 391.964 229.397 386.013 209.575C386.51 209.41 387.073 209.377 387.669 209.465Z" fill="black"/>
<path d="M361.472 180.069C361.472 180.069 367.842 241.828 370.591 266.977C373.45 293.13 384.17 378.913 384.17 378.913H398.169C398.169 378.913 396.468 294.696 395.905 268.974C395.287 240.935 390.518 180.069 390.518 180.069H361.472Z" fill="#407BFF"/>
<path d="M381.995 373.342C381.929 373.342 382.79 379.144 382.79 379.144H399.813L400.277 373.96L381.995 373.342Z" fill="#263238"/>
<path d="M301.69 238.177C308.987 249.737 324.289 253.2 335.859 245.909C347.429 238.618 350.895 223.341 343.598 211.77C336.3 200.211 321.01 196.736 309.429 204.027C297.859 211.329 294.392 226.617 301.69 238.177ZM340.286 213.866C346.424 223.595 343.509 236.467 333.772 242.6C324.024 248.733 311.151 245.821 305.013 236.092C298.875 226.352 301.789 213.491 311.538 207.358C321.264 201.214 334.136 204.137 340.286 213.866Z" fill="#263238"/>
<path opacity="0.2" d="M341.279 229.198C338.95 239.479 328.716 245.931 318.416 243.593C308.126 241.266 301.668 231.04 303.997 220.749C306.327 210.469 316.561 204.016 326.861 206.344C337.162 208.693 343.609 218.918 341.279 229.198Z" fill="#407BFF"/>
<path d="M344.271 208.781L346.589 212.465C346.943 213.028 346.777 213.767 346.214 214.12C345.651 214.473 344.911 214.307 344.558 213.745L342.24 210.061C341.886 209.498 342.052 208.759 342.615 208.406C343.189 208.053 343.929 208.219 344.271 208.781Z" fill="#263238"/>
<path d="M359.296 198.313C356.614 200.144 353.953 202.008 351.315 203.928C348.687 205.847 346.082 207.799 343.542 209.873C342.979 210.336 342.77 211.142 343.101 211.836C343.487 212.664 344.47 213.017 345.287 212.631C348.257 211.241 351.138 209.741 354.008 208.196C356.879 206.652 359.705 205.053 362.52 203.42C364.916 202.031 367.289 200.608 369.641 199.174C370.325 198.755 370.524 197.861 370.105 197.188L368.195 194.155C367.775 193.482 366.87 193.284 366.208 193.714C363.889 195.236 361.582 196.758 359.296 198.313Z" fill="#263238"/>
<path d="M371.606 119.657C370.259 126.275 368.802 132.882 367.3 139.456L362.719 159.156C361.239 165.576 359.97 172.084 358.811 178.691L355.333 198.545L355.322 198.589C355.024 200.288 353.412 201.413 351.712 201.115C350.233 200.862 349.184 199.593 349.129 198.159C348.886 191.265 348.996 184.449 349.382 177.588C349.791 170.749 350.431 163.844 351.557 156.983C352.628 150.233 353.843 143.559 355.134 136.897C356.426 130.235 357.828 123.594 359.352 116.998C360.135 113.634 363.492 111.527 366.859 112.31C370.193 113.072 372.279 116.348 371.606 119.657Z" fill="#407BFF"/>
<path d="M354.395 196.747C353.832 196.151 352.993 195.909 352.209 196.096L350.41 196.526C349.493 196.747 348.798 197.508 348.676 198.446L348.157 202.428C348.014 203.564 348.257 204.722 348.853 205.715L351.315 209.785C351.966 210.645 353.048 211.053 354.108 210.822L356.68 210.281C358.292 209.939 359.253 208.285 358.745 206.718L358.071 204.645C358.06 204.645 358.016 200.586 354.395 196.747Z" fill="#EEA886"/>
<path d="M380.206 115.829C384.225 126.473 370.325 141.662 370.325 141.662L352.739 135.849C352.739 135.849 354.086 121.322 360.191 113.127C367.742 103.012 377.148 107.722 380.206 115.829Z" fill="#263238"/>
<defs>
<linearGradient id="paint0_linear" x1="255.074" y1="130.191" x2="255.074" y2="345.866" gradientUnits="userSpaceOnUse">
<stop stop-color="#EDFFFE"/>
<stop offset="1" stop-color="#DAEAFF"/>
</linearGradient>
</defs>
</svg>
