<svg width="719" height="637" viewBox="0 0 719 637" fill="none" xmlns="http://www.w3.org/2000/svg">
<circle cx="652" cy="61" r="60" fill="#9468B4" fill-opacity="0.15"/>
<circle cx="134.5" cy="502.5" r="134.5" fill="#9468B4" fill-opacity="0.15"/>
<g opacity="0.15">
<path d="M126.22 389.202C203.436 477.707 281.404 488.912 391 509.886C500.595 530.86 581.068 516.365 640.366 462.911C708.832 401.125 706.127 259.584 601.357 209.187C568.627 193.406 529.651 188.63 500.979 166.437C446.223 124.088 401.937 58.1941 314.034 45.8201C226.13 33.4461 166.865 92.4104 166.865 92.4104C94.6755 171.464 49.0037 300.63 126.22 389.202Z" fill="#9468B4"/>
<path opacity="0.7" d="M126.22 389.202C203.436 477.707 281.404 488.912 391 509.886C500.595 530.86 581.068 516.365 640.366 462.911C708.832 401.125 706.127 259.584 601.357 209.187C568.627 193.406 529.651 188.63 500.979 166.437C446.223 124.088 401.937 58.1941 314.034 45.8201C226.13 33.4461 166.865 92.4104 166.865 92.4104C94.6755 171.464 49.0037 300.63 126.22 389.202Z" fill="white"/>
</g>
<path d="M715.328 530.726H64.0664V557.444H715.328V530.726Z" fill="#9468B4"/>
<path opacity="0.5" d="M715.328 530.726H64.0664V557.444H715.328V530.726Z" fill="white"/>
<path d="M217.647 243.353C214.462 244.392 211.335 245.602 208.279 246.977C209.949 245.758 211.619 244.489 213.289 243.203C220.724 237.223 227.8 230.811 234.48 223.999C226.641 231.614 218.27 238.662 209.431 245.09C210.65 242.973 211.721 240.775 212.638 238.51C214.308 234.352 214.608 230.161 210.65 227.94C205.758 225.201 199.846 229.293 201.399 236.289C202.347 240.196 204.194 243.827 206.793 246.893C201.025 250.886 195 254.496 188.758 257.698L188.174 257.998C189.493 255.713 190.659 253.342 191.664 250.901C193.233 246.76 193.634 242.552 189.66 240.347C184.767 237.592 178.856 241.7 180.425 248.697C181.357 252.551 183.163 256.139 185.702 259.184C178.204 262.874 170.456 266.014 162.741 269.42L161.622 269.921C163.128 268.304 164.528 266.592 165.814 264.795C168.318 261.121 169.671 257.147 166.331 254.057C162.223 250.25 155.494 252.855 155.393 260.069C155.398 264.05 156.324 267.977 158.099 271.541C150.879 274.914 144.02 279.01 137.626 283.765L137.425 283.932C138.29 282.561 139.082 281.145 139.797 279.69C141.684 275.666 142.385 271.524 138.577 269.003C137.804 268.471 136.92 268.121 135.991 267.98C135.063 267.839 134.115 267.91 133.218 268.188C132.321 268.466 131.499 268.944 130.813 269.585C130.128 270.227 129.596 271.015 129.259 271.892C128.758 271.109 128.076 270.456 127.272 269.988C123.448 267.784 119.691 270.172 116.468 273.545C115.633 274.43 114.798 275.382 114.08 276.317C116.566 269.417 119.691 262.764 123.415 256.445C126.961 257.994 130.784 258.806 134.653 258.833C142.268 258.833 145.474 252.488 141.734 248.547C138.694 245.357 134.419 246.576 130.378 248.914C129.048 249.69 127.76 250.537 126.521 251.452C130.392 245.622 134.785 240.155 139.646 235.121C142.832 237.697 146.533 239.559 150.501 240.581C157.898 242.401 162.541 237.041 159.869 232.315C157.698 228.474 153.189 228.625 148.764 229.91C146.646 230.544 144.571 231.314 142.552 232.215C144.572 230.244 146.66 228.357 148.781 226.487C151.553 224.116 154.425 221.828 157.347 219.59C160.489 222.098 164.125 223.913 168.018 224.917C175.416 226.738 180.058 221.377 177.386 216.651C175.215 212.811 170.706 212.961 166.264 214.247C165.229 214.547 164.177 214.915 163.158 215.299C167.016 212.543 170.923 209.855 174.848 207.183L178.471 204.695C181.737 207.43 185.57 209.404 189.693 210.473C197.091 212.293 201.75 206.933 199.078 202.207C196.89 198.366 192.398 198.516 187.956 199.802C186.209 200.337 184.489 200.954 182.796 201.656L185.034 199.986C186.403 199.001 187.773 197.999 189.109 196.947C190.779 195.694 192.365 194.308 193.985 192.972C194.92 192.237 195.805 191.453 196.69 190.651C199.969 193.415 203.827 195.407 207.979 196.479C215.376 198.299 220.019 192.939 217.347 188.213C215.176 184.372 210.667 184.523 206.242 185.808C203.76 186.575 201.329 187.495 198.961 188.564C201.984 185.758 204.906 182.836 207.678 179.797C207.862 179.58 208.029 179.363 208.229 179.162C209.415 177.843 210.584 176.507 211.719 175.121C212.855 173.735 214.324 171.915 215.56 170.245C220.634 163.584 224.812 156.285 227.984 148.536C224.659 156.193 220.342 163.38 215.142 169.911C210 176.469 204.259 182.535 197.993 188.029L197.308 188.614C198.731 186.19 199.992 183.674 201.082 181.083C202.668 176.941 203.052 172.733 199.078 170.529C194.202 167.773 188.274 171.881 189.843 178.878C190.852 183.021 192.865 186.853 195.705 190.033L194.235 191.302L192.565 192.738C191.597 193.523 190.595 194.275 189.593 195.026C189.059 195.427 188.541 195.844 187.923 196.245C186.504 197.297 185.068 198.316 183.615 199.318L181.527 200.737L179.156 202.407C180.542 200.042 181.759 197.581 182.796 195.043C184.383 190.885 184.767 186.693 180.809 184.489C175.917 181.734 169.988 185.842 171.558 192.839C172.526 196.858 174.445 200.586 177.152 203.71L175.482 204.845L168.986 209.103L167.701 209.938L164.077 212.36L162.507 213.412C160.837 214.564 159.167 215.733 157.497 216.935C158.839 214.532 160.011 212.038 161.004 209.471C162.674 205.33 162.975 201.121 159.017 198.917C154.124 196.162 148.213 200.27 149.783 207.267C150.763 211.34 152.724 215.111 155.494 218.255C152.655 220.342 149.849 222.479 147.144 224.717C145.157 226.387 143.203 228.057 141.283 229.86C142.119 228.313 142.866 226.718 143.52 225.084C145.09 220.926 145.491 216.735 141.517 214.531C136.624 211.775 130.712 215.883 132.282 222.88C133.214 226.734 135.019 230.322 137.559 233.367C132.15 238.742 127.279 244.631 123.014 250.951C123.498 249.128 123.866 247.277 124.116 245.407C124.651 240.999 124.016 236.857 119.624 235.655C114.214 234.169 109.471 239.579 112.694 246.025C114.548 249.573 117.2 252.643 120.442 254.992C116.236 261.863 112.723 269.135 109.955 276.701C109.883 275.119 109.727 273.541 109.488 271.975C108.736 267.583 106.966 263.793 102.407 263.876C96.7966 263.993 93.774 270.556 98.7002 275.799C101.327 278.538 104.534 280.655 108.085 281.995C106.186 287.835 104.641 293.786 103.459 299.813C103.259 300.764 103.109 301.716 102.925 302.668C102.725 302.852 102.524 303.035 102.341 303.236C102.14 302.418 101.906 301.566 101.639 300.781C100.237 296.573 97.8987 293.083 93.4067 293.884C87.896 294.853 85.9088 301.766 91.5865 306.225C94.472 308.428 97.7982 309.982 101.339 310.784C101.339 310.951 101.472 311.101 101.556 311.268C100.938 315.794 100.47 320.352 100.186 324.928C99.9694 328.268 99.8525 331.758 99.7857 335.181C95.0098 335.181 91.6366 340.425 94.9263 346.102C96.3144 348.456 98.0932 350.557 100.186 352.314C100.587 358.743 101.222 365.173 102.073 371.552C101.398 370.927 100.572 370.489 99.6757 370.281C98.7796 370.073 97.8449 370.103 96.9635 370.366C93.9577 371.184 92.6051 373.606 92.1208 376.578C91.0512 377.685 90.4526 379.163 90.4509 380.703C88.2133 377.363 86.0925 374.023 84.0385 370.499C87.1739 368.096 89.7732 365.064 91.67 361.599C95.2603 354.919 91.2024 349.058 85.9756 350.477C81.7006 351.646 80.7655 355.988 80.9659 360.647C81.0327 362.414 81.1999 364.176 81.4669 365.924L79.2626 362.05C77.4257 358.71 75.9228 355.37 74.1193 352.03C73.6851 351.212 73.301 350.36 72.9504 349.526C76.4685 347.753 79.5792 345.268 82.0847 342.228C86.8773 336.317 83.9884 329.821 78.5779 330.238C74.1694 330.589 72.416 334.68 71.6812 339.289C71.3949 341.299 71.2165 343.322 71.1469 345.351L69.5772 341.727C66.2339 333.507 63.4827 325.058 61.3445 316.445C65.3267 315.034 68.9437 312.752 71.9317 309.765C77.2921 304.338 75.0711 297.608 69.644 297.475C65.2354 297.375 63.0812 301.265 61.8789 305.824C61.2896 308.244 60.8491 310.698 60.5597 313.172C59.3908 308.229 58.3888 303.219 57.5539 298.143C56.9861 295.037 56.6187 291.881 56.2346 288.741C60.5149 287.893 64.5463 286.083 68.0241 283.448C74.0358 278.772 72.7166 271.758 67.3395 270.973C62.981 270.289 60.3426 273.879 58.5725 278.204C57.5362 280.932 56.6662 283.72 55.9675 286.554C55.6335 282.913 55.2494 279.256 55.0824 275.599C54.5815 268.048 54.5815 260.473 55.0824 252.922C54.3201 260.466 54.0579 268.053 54.2976 275.632C54.2976 279.122 54.5981 282.596 54.8152 286.086C53.8612 283.713 52.7453 281.409 51.4754 279.189C49.2044 275.365 46.1651 272.51 41.957 274.18C36.7636 276.317 36.3127 283.498 42.8253 286.637C46.6451 288.392 50.8351 289.188 55.0323 288.958C55.3329 292.081 55.6001 295.187 56.0676 298.276C56.7189 303.286 57.5539 308.095 58.5391 312.955C57.4705 311.093 56.2824 309.302 54.9822 307.594C52.2269 304.104 48.8537 301.633 44.9628 303.887C40.1034 306.676 40.571 313.907 47.4343 316.127C51.3179 317.334 55.4313 317.609 59.4409 316.929C61.3461 325.636 63.8513 334.201 66.9387 342.562L67.924 345.067C67.0404 343.897 66.0869 342.782 65.0684 341.727C61.9791 338.521 58.3888 336.4 54.6649 339.055C50.1061 342.395 51.3251 349.409 58.3387 350.978C62.2095 351.762 66.2083 351.648 70.028 350.644C70.3787 351.496 70.7294 352.314 71.1469 353.183C72.8168 356.623 74.303 360.146 76.0564 363.519L77.5092 366.442C76.6408 365.69 75.7391 364.972 74.8039 364.304C71.1636 361.749 67.2226 360.347 64.0832 363.636C60.209 367.694 62.7139 374.44 69.9278 374.658C73.6835 374.745 77.4123 374.004 80.849 372.487C82.9197 376.227 85.0404 379.918 87.3449 383.541C88.1966 384.927 89.0148 386.297 89.9834 387.666C88.6733 386.468 87.2902 385.353 85.842 384.326C82.2016 381.771 78.2606 380.369 75.1045 383.658C71.2471 387.716 73.7519 394.463 80.9659 394.68C85.089 394.729 89.1647 393.796 92.8556 391.958C94.0579 393.628 95.2937 395.298 96.5628 396.967C93.8742 400.09 94.7593 405.317 100.22 407.705C102.872 408.81 105.699 409.438 108.569 409.559C108.903 409.826 109.237 410.093 109.605 410.343L109.772 410.477C113.223 423.369 117.314 436.071 122.045 448.584C124.049 453.911 126.204 459.188 128.424 464.431H108.386V543.451H169.621V464.365H137.024C134.236 458.27 131.547 452.108 129.042 445.879C124.951 435.659 121.244 425.272 118.021 414.735C118.569 414.897 119.127 415.025 119.691 415.119C120.433 415.27 121.193 415.303 121.945 415.219L121.077 409.726H120.492C120.144 409.676 119.799 409.609 119.457 409.525C118.686 409.304 117.932 409.025 117.203 408.69L116.334 408.289C119.557 407.166 122.55 405.469 125.168 403.28C130.963 398.27 129.326 391.423 123.916 390.839C119.541 390.355 117.069 394.062 115.566 398.454C115.115 399.706 114.748 401.009 114.431 402.278C114.113 401.109 113.796 399.94 113.496 398.771C112.611 395.314 111.826 391.824 111.024 388.334C114.522 387.243 117.772 385.479 120.593 383.141C126.387 378.131 124.734 371.301 119.34 370.717C114.948 370.232 112.494 373.939 110.991 378.331C110.54 379.6 110.156 380.92 109.822 382.222C109.321 379.684 108.837 377.129 108.386 374.574C108.068 372.687 107.768 370.783 107.484 368.88C107.384 366.174 107.334 363.469 107.367 360.747C107.367 359.261 107.367 357.775 107.501 356.289C110.775 357.323 114.208 357.759 117.637 357.574C125.252 357.073 128.057 350.561 124.083 346.87C120.843 343.848 116.652 345.351 112.761 347.922C111.016 349.108 109.343 350.396 107.751 351.78C108.22 345.424 109.186 339.115 110.64 332.91C111.492 329.255 112.557 325.653 113.83 322.122C117.321 323.326 121.013 323.842 124.701 323.642C132.315 323.158 135.121 316.645 131.146 312.938C127.924 309.932 123.715 311.418 119.824 314.007C118.466 314.94 117.162 315.949 115.917 317.029C117.385 313.575 119.093 310.227 121.027 307.01C124.862 300.519 129.672 294.656 135.288 289.626C138.198 292.311 141.64 294.353 145.391 295.621C152.638 297.992 157.664 292.983 155.41 288.073C153.523 284.082 149.081 283.898 144.506 284.85C142.742 285.227 141.003 285.706 139.296 286.286L139.412 286.186C145.644 281.324 152.359 277.116 159.451 273.628C161.954 276.905 165.132 279.604 168.769 281.544C175.549 285.034 181.31 280.893 179.807 275.682C178.588 271.441 174.23 270.556 169.571 270.673C167.741 270.772 165.918 270.973 164.11 271.274C171.642 267.717 179.323 264.361 186.737 260.436H186.904C190.224 263.302 194.162 265.36 198.41 266.448C205.808 268.285 210.45 262.908 207.778 258.098C205.607 254.258 201.099 254.425 196.673 255.694C195.421 256.061 194.169 256.512 192.95 256.98C197.901 254.102 202.7 250.969 207.327 247.595L207.711 248.012V247.795C211.064 250.686 215.034 252.771 219.317 253.89C226.698 255.71 231.357 250.35 228.685 245.541C226.581 241.917 222.139 242.067 217.647 243.353ZM100.888 394.663C99.3682 392.893 97.9321 391.039 96.5294 389.169C96.8633 388.868 97.2307 388.534 97.5981 388.167C99.6848 388.817 101.845 389.204 104.027 389.319V389.67L105.046 389.453C105.58 392.091 106.131 394.713 106.716 397.335C106.037 396.447 105.151 395.738 104.135 395.273C103.119 394.807 102.004 394.597 100.888 394.663ZM106.332 331.791C105.814 333.762 105.38 335.732 104.962 337.719L104.712 337.369C104.712 333.294 104.773 329.231 104.896 325.178C105.012 322.34 105.213 319.517 105.463 316.679C106.837 318.078 108.348 319.337 109.972 320.436C108.559 324.152 107.349 327.943 106.348 331.791H106.332ZM113.178 313.088C113.278 312.354 113.362 311.602 113.395 310.867V309.748C113.997 309.565 114.614 309.348 115.216 309.097C114.548 310.416 113.846 311.752 113.195 313.088H113.178ZM121.878 298.978C121.59 298.317 121.17 297.722 120.645 297.228C120.12 296.734 119.5 296.352 118.823 296.105C114.698 294.435 111.358 297.441 108.703 301.282L108.569 301.466H108.302C108.022 301.402 107.737 301.363 107.451 301.349C107.431 301.114 107.471 300.879 107.567 300.664C108.625 294.632 110.052 288.67 111.842 282.813C115.676 283.3 119.568 282.998 123.281 281.928C125.575 281.325 127.57 279.906 128.892 277.937C129.627 281.304 131.03 284.489 133.017 287.305C128.909 290.799 125.181 294.717 121.895 298.994L121.878 298.978Z" fill="#9468B4"/>
<path opacity="0.3" d="M217.647 243.353C214.462 244.392 211.335 245.602 208.279 246.977C209.949 245.758 211.619 244.489 213.289 243.203C220.724 237.223 227.8 230.811 234.48 223.999C226.641 231.614 218.27 238.662 209.431 245.09C210.65 242.973 211.721 240.775 212.638 238.51C214.308 234.352 214.608 230.161 210.65 227.94C205.758 225.201 199.846 229.293 201.399 236.289C202.347 240.196 204.194 243.827 206.793 246.893C201.025 250.886 195 254.496 188.758 257.698L188.174 257.998C189.493 255.713 190.659 253.342 191.664 250.901C193.233 246.76 193.634 242.552 189.66 240.347C184.767 237.592 178.856 241.7 180.425 248.697C181.357 252.551 183.163 256.139 185.702 259.184C178.204 262.874 170.456 266.014 162.741 269.42L161.622 269.921C163.128 268.304 164.528 266.592 165.814 264.795C168.318 261.121 169.671 257.147 166.331 254.057C162.223 250.25 155.494 252.855 155.393 260.069C155.398 264.05 156.324 267.977 158.099 271.541C150.879 274.914 144.02 279.01 137.626 283.765L137.425 283.932C138.29 282.561 139.082 281.145 139.797 279.69C141.684 275.666 142.385 271.524 138.577 269.003C137.804 268.471 136.92 268.121 135.991 267.98C135.063 267.839 134.115 267.91 133.218 268.188C132.321 268.466 131.499 268.944 130.813 269.585C130.128 270.227 129.596 271.015 129.259 271.892C128.758 271.109 128.076 270.456 127.272 269.988C123.448 267.784 119.691 270.172 116.468 273.545C115.633 274.43 114.798 275.382 114.08 276.317C116.566 269.417 119.691 262.764 123.415 256.445C126.961 257.994 130.784 258.806 134.653 258.833C142.268 258.833 145.474 252.488 141.734 248.547C138.694 245.357 134.419 246.576 130.378 248.914C129.048 249.69 127.76 250.537 126.521 251.452C130.392 245.622 134.785 240.155 139.646 235.121C142.832 237.697 146.533 239.559 150.501 240.581C157.898 242.401 162.541 237.041 159.869 232.315C157.698 228.474 153.189 228.625 148.764 229.91C146.646 230.544 144.571 231.314 142.552 232.215C144.572 230.244 146.66 228.357 148.781 226.487C151.553 224.116 154.425 221.828 157.347 219.59C160.489 222.098 164.125 223.913 168.018 224.917C175.416 226.738 180.058 221.377 177.386 216.651C175.215 212.811 170.706 212.961 166.264 214.247C165.229 214.547 164.177 214.915 163.158 215.299C167.016 212.543 170.923 209.855 174.848 207.183L178.471 204.695C181.737 207.43 185.57 209.404 189.693 210.473C197.091 212.293 201.75 206.933 199.078 202.207C196.89 198.366 192.398 198.516 187.956 199.802C186.209 200.337 184.489 200.954 182.796 201.656L185.034 199.986C186.403 199.001 187.773 197.999 189.109 196.947C190.779 195.694 192.365 194.308 193.985 192.972C194.92 192.237 195.805 191.453 196.69 190.651C199.969 193.415 203.827 195.407 207.979 196.479C215.376 198.299 220.019 192.939 217.347 188.213C215.176 184.372 210.667 184.523 206.242 185.808C203.76 186.575 201.329 187.495 198.961 188.564C201.984 185.758 204.906 182.836 207.678 179.797C207.862 179.58 208.029 179.363 208.229 179.162C209.415 177.843 210.584 176.507 211.719 175.121C212.855 173.735 214.324 171.915 215.56 170.245C220.634 163.584 224.812 156.285 227.984 148.536C224.659 156.193 220.342 163.38 215.142 169.911C210 176.469 204.259 182.535 197.993 188.029L197.308 188.614C198.731 186.19 199.992 183.674 201.082 181.083C202.668 176.941 203.052 172.733 199.078 170.529C194.202 167.773 188.274 171.881 189.843 178.878C190.852 183.021 192.865 186.853 195.705 190.033L194.235 191.302L192.565 192.738C191.597 193.523 190.595 194.275 189.593 195.026C189.059 195.427 188.541 195.844 187.923 196.245C186.504 197.297 185.068 198.316 183.615 199.318L181.527 200.737L179.156 202.407C180.542 200.042 181.759 197.581 182.796 195.043C184.383 190.885 184.767 186.693 180.809 184.489C175.917 181.734 169.988 185.842 171.558 192.839C172.526 196.858 174.445 200.586 177.152 203.71L175.482 204.845L168.986 209.103L167.701 209.938L164.077 212.36L162.507 213.412C160.837 214.564 159.167 215.733 157.497 216.935C158.839 214.532 160.011 212.038 161.004 209.471C162.674 205.33 162.975 201.121 159.017 198.917C154.124 196.162 148.213 200.27 149.783 207.267C150.763 211.34 152.724 215.111 155.494 218.255C152.655 220.342 149.849 222.479 147.144 224.717C145.157 226.387 143.203 228.057 141.283 229.86C142.119 228.313 142.866 226.718 143.52 225.084C145.09 220.926 145.491 216.735 141.517 214.531C136.624 211.775 130.712 215.883 132.282 222.88C133.214 226.734 135.019 230.322 137.559 233.367C132.15 238.742 127.279 244.631 123.014 250.951C123.498 249.128 123.866 247.277 124.116 245.407C124.651 240.999 124.016 236.857 119.624 235.655C114.214 234.169 109.471 239.579 112.694 246.025C114.548 249.573 117.2 252.643 120.442 254.992C116.236 261.863 112.723 269.135 109.955 276.701C109.883 275.119 109.727 273.541 109.488 271.975C108.736 267.583 106.966 263.793 102.407 263.876C96.7966 263.993 93.774 270.556 98.7002 275.799C101.327 278.538 104.534 280.655 108.085 281.995C106.186 287.835 104.641 293.786 103.459 299.813C103.259 300.764 103.109 301.716 102.925 302.668C102.725 302.852 102.524 303.035 102.341 303.236C102.14 302.418 101.906 301.566 101.639 300.781C100.237 296.573 97.8987 293.083 93.4067 293.884C87.896 294.853 85.9088 301.766 91.5865 306.225C94.472 308.428 97.7982 309.982 101.339 310.784C101.339 310.951 101.472 311.101 101.556 311.268C100.938 315.794 100.47 320.352 100.186 324.928C99.9694 328.268 99.8525 331.758 99.7857 335.181C95.0098 335.181 91.6366 340.425 94.9263 346.102C96.3144 348.456 98.0932 350.557 100.186 352.314C100.587 358.743 101.222 365.173 102.073 371.552C101.398 370.927 100.572 370.489 99.6757 370.281C98.7796 370.073 97.8449 370.103 96.9635 370.366C93.9577 371.184 92.6051 373.606 92.1208 376.578C91.0512 377.685 90.4526 379.163 90.4509 380.703C88.2133 377.363 86.0925 374.023 84.0385 370.499C87.1739 368.096 89.7732 365.064 91.67 361.599C95.2603 354.919 91.2024 349.058 85.9756 350.477C81.7006 351.646 80.7655 355.988 80.9659 360.647C81.0327 362.414 81.1999 364.176 81.4669 365.924L79.2626 362.05C77.4257 358.71 75.9228 355.37 74.1193 352.03C73.6851 351.212 73.301 350.36 72.9504 349.526C76.4685 347.753 79.5792 345.268 82.0847 342.228C86.8773 336.317 83.9884 329.821 78.5779 330.238C74.1694 330.589 72.416 334.68 71.6812 339.289C71.3949 341.299 71.2165 343.322 71.1469 345.351L69.5772 341.727C66.2339 333.507 63.4827 325.058 61.3445 316.445C65.3267 315.034 68.9437 312.752 71.9317 309.765C77.2921 304.338 75.0711 297.608 69.644 297.475C65.2354 297.375 63.0812 301.265 61.8789 305.824C61.2896 308.244 60.8491 310.698 60.5597 313.172C59.3908 308.229 58.3888 303.219 57.5539 298.143C56.9861 295.037 56.6187 291.881 56.2346 288.741C60.5149 287.893 64.5463 286.083 68.0241 283.448C74.0358 278.772 72.7166 271.758 67.3395 270.973C62.981 270.289 60.3426 273.879 58.5725 278.204C57.5362 280.932 56.6662 283.72 55.9675 286.554C55.6335 282.913 55.2494 279.256 55.0824 275.599C54.5815 268.048 54.5815 260.473 55.0824 252.922C54.3201 260.466 54.0579 268.053 54.2976 275.632C54.2976 279.122 54.5981 282.596 54.8152 286.086C53.8612 283.713 52.7453 281.409 51.4754 279.189C49.2044 275.365 46.1651 272.51 41.957 274.18C36.7636 276.317 36.3127 283.498 42.8253 286.637C46.6451 288.392 50.8351 289.188 55.0323 288.958C55.3329 292.081 55.6001 295.187 56.0676 298.276C56.7189 303.286 57.5539 308.095 58.5391 312.955C57.4705 311.093 56.2824 309.302 54.9822 307.594C52.2269 304.104 48.8537 301.633 44.9628 303.887C40.1034 306.676 40.571 313.907 47.4343 316.127C51.3179 317.334 55.4313 317.609 59.4409 316.929C61.3461 325.636 63.8513 334.201 66.9387 342.562L67.924 345.067C67.0404 343.897 66.0869 342.782 65.0684 341.727C61.9791 338.521 58.3888 336.4 54.6649 339.055C50.1061 342.395 51.3251 349.409 58.3387 350.978C62.2095 351.762 66.2083 351.648 70.028 350.644C70.3787 351.496 70.7294 352.314 71.1469 353.183C72.8168 356.623 74.303 360.146 76.0564 363.519L77.5092 366.442C76.6408 365.69 75.7391 364.972 74.8039 364.304C71.1636 361.749 67.2226 360.347 64.0832 363.636C60.209 367.694 62.7139 374.44 69.9278 374.658C73.6835 374.745 77.4123 374.004 80.849 372.487C82.9197 376.227 85.0404 379.918 87.3449 383.541C88.1966 384.927 89.0148 386.297 89.9834 387.666C88.6733 386.468 87.2902 385.353 85.842 384.326C82.2016 381.771 78.2606 380.369 75.1045 383.658C71.2471 387.716 73.7519 394.463 80.9659 394.68C85.089 394.729 89.1647 393.796 92.8556 391.958C94.0579 393.628 95.2937 395.298 96.5628 396.967C93.8742 400.09 94.7593 405.317 100.22 407.705C102.872 408.81 105.699 409.438 108.569 409.559C108.903 409.826 109.237 410.093 109.605 410.343L109.772 410.477C113.223 423.369 117.314 436.071 122.045 448.584C124.049 453.911 126.204 459.188 128.424 464.431H108.386V543.451H169.621V464.365H137.024C134.236 458.27 131.547 452.108 129.042 445.879C124.951 435.659 121.244 425.272 118.021 414.735C118.569 414.897 119.127 415.025 119.691 415.119C120.433 415.27 121.193 415.303 121.945 415.219L121.077 409.726H120.492C120.144 409.676 119.799 409.609 119.457 409.525C118.686 409.304 117.932 409.025 117.203 408.69L116.334 408.289C119.557 407.166 122.55 405.469 125.168 403.28C130.963 398.27 129.326 391.423 123.916 390.839C119.541 390.355 117.069 394.062 115.566 398.454C115.115 399.706 114.748 401.009 114.431 402.278C114.113 401.109 113.796 399.94 113.496 398.771C112.611 395.314 111.826 391.824 111.024 388.334C114.522 387.243 117.772 385.479 120.593 383.141C126.387 378.131 124.734 371.301 119.34 370.717C114.948 370.232 112.494 373.939 110.991 378.331C110.54 379.6 110.156 380.92 109.822 382.222C109.321 379.684 108.837 377.129 108.386 374.574C108.068 372.687 107.768 370.783 107.484 368.88C107.384 366.174 107.334 363.469 107.367 360.747C107.367 359.261 107.367 357.775 107.501 356.289C110.775 357.323 114.208 357.759 117.637 357.574C125.252 357.073 128.057 350.561 124.083 346.87C120.843 343.848 116.652 345.351 112.761 347.922C111.016 349.108 109.343 350.396 107.751 351.78C108.22 345.424 109.186 339.115 110.64 332.91C111.492 329.255 112.557 325.653 113.83 322.122C117.321 323.326 121.013 323.842 124.701 323.642C132.315 323.158 135.121 316.645 131.146 312.938C127.924 309.932 123.715 311.418 119.824 314.007C118.466 314.94 117.162 315.949 115.917 317.029C117.385 313.575 119.093 310.227 121.027 307.01C124.862 300.519 129.672 294.656 135.288 289.626C138.198 292.311 141.64 294.353 145.391 295.621C152.638 297.992 157.664 292.983 155.41 288.073C153.523 284.082 149.081 283.898 144.506 284.85C142.742 285.227 141.003 285.706 139.296 286.286L139.412 286.186C145.644 281.324 152.359 277.116 159.451 273.628C161.954 276.905 165.132 279.604 168.769 281.544C175.549 285.034 181.31 280.893 179.807 275.682C178.588 271.441 174.23 270.556 169.571 270.673C167.741 270.772 165.918 270.973 164.11 271.274C171.642 267.717 179.323 264.361 186.737 260.436H186.904C190.224 263.302 194.162 265.36 198.41 266.448C205.808 268.285 210.45 262.908 207.778 258.098C205.607 254.258 201.099 254.425 196.673 255.694C195.421 256.061 194.169 256.512 192.95 256.98C197.901 254.102 202.7 250.969 207.327 247.595L207.711 248.012V247.795C211.064 250.686 215.034 252.771 219.317 253.89C226.698 255.71 231.357 250.35 228.685 245.541C226.581 241.917 222.139 242.067 217.647 243.353ZM100.888 394.663C99.3682 392.893 97.9321 391.039 96.5294 389.169C96.8633 388.868 97.2307 388.534 97.5981 388.167C99.6848 388.817 101.845 389.204 104.027 389.319V389.67L105.046 389.453C105.58 392.091 106.131 394.713 106.716 397.335C106.037 396.447 105.151 395.738 104.135 395.273C103.119 394.807 102.004 394.597 100.888 394.663ZM106.332 331.791C105.814 333.762 105.38 335.732 104.962 337.719L104.712 337.369C104.712 333.294 104.773 329.231 104.896 325.178C105.012 322.34 105.213 319.517 105.463 316.679C106.837 318.078 108.348 319.337 109.972 320.436C108.559 324.152 107.349 327.943 106.348 331.791H106.332ZM113.178 313.088C113.278 312.354 113.362 311.602 113.395 310.867V309.748C113.997 309.565 114.614 309.348 115.216 309.097C114.548 310.416 113.846 311.752 113.195 313.088H113.178ZM121.878 298.978C121.59 298.317 121.17 297.722 120.645 297.228C120.12 296.734 119.5 296.352 118.823 296.105C114.698 294.435 111.358 297.441 108.703 301.282L108.569 301.466H108.302C108.022 301.402 107.737 301.363 107.451 301.349C107.431 301.114 107.471 300.879 107.567 300.664C108.625 294.632 110.052 288.67 111.842 282.813C115.676 283.3 119.568 282.998 123.281 281.928C125.575 281.325 127.57 279.906 128.892 277.937C129.627 281.304 131.03 284.489 133.017 287.305C128.909 290.799 125.181 294.717 121.895 298.994L121.878 298.978Z" fill="white"/>
<path d="M629.395 470.593C629.395 470.593 621.313 452.542 619.376 450.688C617.439 448.835 601.959 443.224 597.667 428.979C593.375 414.735 585.226 376.712 605.766 379.2C626.306 381.688 621.313 421.515 628.777 420.263C636.242 419.01 622.565 355.571 635.624 346.787C648.683 338.003 669.84 346.169 667.352 379.767C664.864 413.366 659.888 432.637 664.246 430.783C668.604 428.929 681.045 422.066 681.045 436.377C681.045 450.688 669.222 460.641 662.376 461.259C655.529 461.877 652.356 462.511 652.356 462.511V471.829L629.395 470.593Z" fill="#2E353A" stroke="#2E353A" stroke-linecap="round" stroke-linejoin="round"/>
<path d="M622.815 435.609C618.123 431.167 613.815 426.859 611.827 422.901C607.887 415.002 604.914 392.843 604.914 392.843" stroke="white" stroke-width="0.5" stroke-linecap="round" stroke-linejoin="round"/>
<path d="M597.917 403.664C601.023 416.606 601.458 426.358 610.843 437.713C615.852 443.859 629.111 449.069 630.597 454.496C631.927 461.026 632.925 467.62 633.587 474.251L641.001 474.752C641.001 474.752 642.504 461.894 638.262 452.726" stroke="white" stroke-width="0.5" stroke-linecap="round" stroke-linejoin="round"/>
<path d="M599.988 382.907C599.988 382.907 594.444 387.166 596.414 397.652" stroke="white" stroke-width="0.5" stroke-linecap="round" stroke-linejoin="round"/>
<path d="M635.507 421.098L632.568 425.857" stroke="white" stroke-width="0.5" stroke-linecap="round" stroke-linejoin="round"/>
<path d="M636.526 419.444L635.507 421.098" stroke="white" stroke-width="0.5" stroke-linecap="round" stroke-linejoin="round"/>
<path d="M646.394 348.34C646.394 348.34 635.039 347.856 635.039 358.71C635.039 367.878 637.845 399.172 637.243 413.483" stroke="white" stroke-width="0.5" stroke-linecap="round" stroke-linejoin="round"/>
<path d="M655.295 437.262C655.028 440.986 654.861 443.625 654.861 444.627C654.861 450.054 668.671 429.313 675.1 428.829C675.1 428.829 681.512 428.328 679.041 440.185C678.142 444.586 676.059 448.658 673.016 451.963C669.973 455.267 666.086 457.679 661.774 458.938C656.33 460.424 651.888 457.952 650.903 460.424C650.117 463.329 649.619 466.305 649.417 469.308" stroke="white" stroke-width="0.5" stroke-linecap="round" stroke-linejoin="round"/>
<path d="M658.518 358.644C659.377 362.225 659.781 365.899 659.721 369.581C659.721 381.137 657.516 408.39 656.047 426.792" stroke="white" stroke-width="0.5" stroke-linecap="round" stroke-linejoin="round"/>
<path d="M652.807 349.342C654.29 350.192 655.492 351.457 656.264 352.982" stroke="white" stroke-width="0.5" stroke-linecap="round" stroke-linejoin="round"/>
<path d="M644.775 434.257L644.424 441.17" stroke="white" stroke-width="0.5" stroke-linecap="round" stroke-linejoin="round"/>
<path d="M647.38 355.253C647.38 355.253 644.424 356.238 645.409 366.608C646.228 375.175 645.409 414.067 645.025 427.343" stroke="white" stroke-width="0.5" stroke-linecap="round" stroke-linejoin="round"/>
<path d="M678.49 431.785C674.255 439.71 667.472 445.976 659.236 449.57C645.877 454.997 645.409 452.525 645.409 457.919C645.409 463.313 644.908 473.232 644.908 473.232" stroke="white" stroke-width="0.5" stroke-linecap="round" stroke-linejoin="round"/>
<path d="M659.971 543.401H616.82L607.586 480.896H669.205L659.971 543.401Z" fill="#9468B4" stroke="#2E353A" stroke-linecap="round" stroke-linejoin="round"/>
<path d="M674.499 471.045H602.292V487.777H674.499V471.045Z" fill="#9468B4" stroke="#2E353A" stroke-linecap="round" stroke-linejoin="round"/>
<path d="M423.045 501.319V467.387H323.118V501.319C323.102 512.372 319.36 523.097 312.498 531.761L308.123 537.272H438.041L433.666 531.761C426.803 523.097 423.061 512.372 423.045 501.319Z" fill="white" stroke="#2E353A" stroke-linecap="round" stroke-linejoin="round"/>
<path d="M316.973 525.082H429.191C425.162 517.81 423.047 509.633 423.045 501.319V467.387H323.118V501.319C323.116 509.633 321.002 517.81 316.973 525.082Z" fill="#9468B4"/>
<path d="M559.727 176.857H186.42C178.599 176.857 172.259 183.197 172.259 191.018V463.93C172.259 471.751 178.599 478.091 186.42 478.091H559.727C567.547 478.091 573.887 471.751 573.887 463.93V191.018C573.887 183.197 567.547 176.857 559.727 176.857Z" fill="#2E353A" stroke="#2E353A" stroke-linecap="round" stroke-linejoin="round"/>
<path d="M172.259 431.268H573.904V463.914C573.904 467.67 572.412 471.272 569.756 473.927C567.101 476.583 563.499 478.075 559.743 478.075H186.437C182.681 478.075 179.079 476.583 176.424 473.927C173.768 471.272 172.276 467.67 172.276 463.914V431.268H172.259Z" fill="white" stroke="#2E353A" stroke-linecap="round" stroke-linejoin="round"/>
<path d="M553.698 195.61H192.465V408.423H553.698V195.61Z" fill="white" stroke="#2E353A" stroke-linecap="round" stroke-linejoin="round"/>
<path d="M380.496 454.679C380.496 453.213 380.061 451.779 379.247 450.56C378.432 449.341 377.274 448.39 375.919 447.829C374.564 447.268 373.074 447.121 371.635 447.407C370.197 447.693 368.876 448.399 367.839 449.436C366.802 450.473 366.096 451.794 365.81 453.233C365.524 454.671 365.671 456.162 366.232 457.516C366.793 458.871 367.743 460.029 368.963 460.844C370.182 461.659 371.615 462.093 373.082 462.093C375.048 462.093 376.934 461.312 378.325 459.922C379.715 458.531 380.496 456.645 380.496 454.679Z" fill="#2E353A" stroke="#2E353A" stroke-linecap="round" stroke-linejoin="round"/>
<path d="M438.058 537.339H308.123V543.401H438.058V537.339Z" fill="white" stroke="#2E353A" stroke-linecap="round" stroke-linejoin="round"/>
<path d="M550.308 210.605H195.304V229.258H550.308V210.605Z" fill="white" stroke="#2E353A" stroke-linecap="round" stroke-linejoin="round"/>
<path d="M253.884 229.259L249.626 217.736H195.304V229.259V244.538V399.355H550.308V229.259H253.884Z" fill="#9468B4" stroke="#2E353A" stroke-linecap="round" stroke-linejoin="round"/>
<path d="M290.855 313.605H457.311" stroke="#2E353A" stroke-width="2" stroke-linecap="round" stroke-linejoin="round"/>
<path d="M290.855 329.971H457.311" stroke="#2E353A" stroke-width="2" stroke-linecap="round" stroke-linejoin="round"/>
<path d="M290.855 346.336H457.311" stroke="#2E353A" stroke-width="2" stroke-linecap="round" stroke-linejoin="round"/>
<path d="M290.855 362.718H457.311" stroke="#2E353A" stroke-width="2" stroke-linecap="round" stroke-linejoin="round"/>
<path d="M448.511 269.971H297.669C296.116 269.973 294.578 269.67 293.143 269.077C291.708 268.485 290.403 267.616 289.304 266.52C288.204 265.424 287.332 264.122 286.735 262.688C286.139 261.254 285.831 259.717 285.829 258.165C285.827 256.612 286.131 255.074 286.723 253.639C287.315 252.204 288.184 250.899 289.28 249.8C290.376 248.7 291.679 247.828 293.112 247.232C294.546 246.635 296.083 246.327 297.635 246.325H448.511C450.066 246.323 451.607 246.628 453.044 247.222C454.482 247.816 455.788 248.688 456.888 249.788C457.988 250.888 458.86 252.194 459.454 253.631C460.048 255.069 460.353 256.609 460.351 258.165C460.348 259.717 460.04 261.254 459.444 262.688C458.848 264.122 457.975 265.424 456.876 266.52C455.777 267.616 454.472 268.485 453.037 269.077C451.601 269.67 450.064 269.973 448.511 269.971Z" fill="white" stroke="#2E353A" stroke-linecap="round" stroke-linejoin="round"/>
<path d="M448.511 269.971H427.904V246.292H448.511C450.066 246.29 451.607 246.595 453.044 247.189C454.482 247.783 455.788 248.655 456.888 249.755C457.987 250.855 458.86 252.161 459.454 253.598C460.048 255.036 460.353 256.576 460.351 258.132C460.353 259.687 460.048 261.228 459.454 262.665C458.86 264.102 457.987 265.409 456.888 266.508C455.788 267.608 454.482 268.48 453.044 269.074C451.607 269.669 450.066 269.973 448.511 269.971Z" fill="#2E353A" stroke="#2E353A" stroke-linecap="round" stroke-linejoin="round"/>
<path d="M443.919 249.298C442.938 248.378 441.706 247.771 440.38 247.552C439.053 247.333 437.691 247.512 436.467 248.067C435.242 248.622 434.21 249.528 433.5 250.67C432.79 251.811 432.435 253.138 432.479 254.482C432.524 255.826 432.966 257.126 433.749 258.219C434.533 259.311 435.623 260.147 436.881 260.62C438.14 261.093 439.511 261.182 440.82 260.875C442.129 260.569 443.318 259.882 444.236 258.9C444.848 258.252 445.326 257.489 445.642 256.656C445.958 255.823 446.107 254.935 446.079 254.045C446.051 253.154 445.847 252.277 445.479 251.466C445.111 250.654 444.587 249.923 443.936 249.314L443.919 249.298ZM443.251 257.981C442.513 258.764 441.561 259.311 440.513 259.553C439.465 259.795 438.369 259.721 437.363 259.34C436.357 258.96 435.486 258.29 434.861 257.415C434.235 256.54 433.882 255.5 433.847 254.425C433.813 253.35 434.097 252.289 434.664 251.375C435.232 250.462 436.057 249.737 437.037 249.292C438.016 248.847 439.105 248.702 440.166 248.876C441.228 249.049 442.214 249.533 443 250.266C444.056 251.256 444.676 252.625 444.723 254.072C444.77 255.518 444.24 256.925 443.251 257.981Z" fill="white"/>
<path d="M449.029 261.371C448.88 261.225 448.692 261.126 448.487 261.084C448.283 261.043 448.071 261.061 447.877 261.137L445.422 258.833C445.297 258.71 445.129 258.642 444.954 258.642C444.78 258.642 444.612 258.71 444.487 258.833L444.27 259.066C444.15 259.196 444.083 259.366 444.083 259.542C444.083 259.719 444.15 259.889 444.27 260.018L446.691 262.289C446.619 262.496 446.608 262.719 446.658 262.932C446.709 263.145 446.818 263.339 446.975 263.492L451.15 267.583C451.425 267.856 451.797 268.009 452.185 268.009C452.573 268.009 452.945 267.856 453.22 267.583C453.494 267.308 453.647 266.935 453.647 266.547C453.647 266.16 453.494 265.787 453.22 265.512L449.029 261.371Z" fill="white"/>
<path d="M492.145 341.394C492.633 342.603 493.359 343.703 494.28 344.626C495.201 345.55 496.298 346.279 497.506 346.771C499.393 347.539 501.914 347.372 504.82 349.008C511.383 352.699 527.764 349.409 539.637 350.678C551.51 351.947 567.508 338.805 567.508 338.805L614.616 341.394V294.636C614.616 294.636 565.454 296.69 554.8 292.582C544.146 288.474 532.273 279.891 526.946 280.292C521.619 280.693 477.784 285.619 477.784 285.619L492.129 341.394H492.145Z" fill="white" stroke="#2E353A" stroke-linecap="round" stroke-linejoin="round"/>
<path d="M479.955 152.861C470.229 153.937 461.04 157.874 453.55 164.173C446.061 170.472 440.608 178.851 437.881 188.249C435.153 197.647 435.274 207.643 438.227 216.973C441.181 226.303 446.835 234.547 454.474 240.663C462.113 246.78 471.394 250.494 481.144 251.335C490.894 252.177 500.674 250.108 509.249 245.391C517.823 240.674 524.806 233.521 529.314 224.835C533.823 216.149 535.655 206.322 534.578 196.595C533.867 190.135 531.89 183.879 528.759 178.184C525.629 172.488 521.406 167.466 516.333 163.404C511.26 159.342 505.436 156.321 499.194 154.511C492.952 152.702 486.414 152.141 479.955 152.861ZM489.774 241.499C481.972 242.366 474.087 240.899 467.118 237.285C460.149 233.671 454.408 228.072 450.621 221.195C446.834 214.318 445.172 206.472 445.844 198.651C446.516 190.829 449.492 183.382 454.396 177.252C459.3 171.121 465.912 166.583 473.396 164.21C480.879 161.838 488.898 161.738 496.439 163.923C503.979 166.108 510.702 170.479 515.758 176.485C520.814 182.491 523.975 189.861 524.842 197.664C525.418 202.845 524.968 208.088 523.517 213.095C522.066 218.102 519.643 222.774 516.387 226.844C513.131 230.915 509.104 234.304 504.538 236.819C499.972 239.333 494.955 240.923 489.774 241.499Z" fill="white" stroke="#2E353A" stroke-linecap="round" stroke-linejoin="round"/>
<path d="M479.688 150.039C469.961 151.116 460.772 155.052 453.283 161.352C445.794 167.651 440.34 176.029 437.613 185.427C434.885 194.826 435.006 204.822 437.96 214.151C440.913 223.481 446.567 231.726 454.206 237.842C461.845 243.958 471.127 247.672 480.877 248.514C490.626 249.355 500.407 247.287 508.981 242.57C517.555 237.853 524.538 230.699 529.047 222.014C533.555 213.328 535.387 203.5 534.31 193.774C532.862 180.733 526.295 168.8 516.052 160.599C505.81 152.398 492.73 148.6 479.688 150.039ZM489.507 238.677C481.704 239.544 473.82 238.078 466.851 234.464C459.881 230.85 454.14 225.25 450.354 218.373C446.567 211.496 444.904 203.651 445.576 195.829C446.248 188.007 449.224 180.56 454.129 174.43C459.033 168.3 465.645 163.762 473.128 161.389C480.612 159.016 488.631 158.916 496.171 161.101C503.712 163.286 510.435 167.658 515.491 173.664C520.546 179.67 523.708 187.04 524.575 194.843C525.151 200.023 524.7 205.267 523.249 210.274C521.799 215.28 519.376 219.952 516.12 224.023C512.863 228.093 508.837 231.483 504.271 233.997C499.704 236.511 494.688 238.102 489.507 238.677Z" fill="white" stroke="#2E353A" stroke-linecap="round" stroke-linejoin="round"/>
<path d="M492.205 249.315L489.865 249.574C487.225 249.866 485.322 252.244 485.614 254.884L489.412 289.174C489.705 291.814 492.082 293.717 494.722 293.425L497.062 293.166C499.702 292.873 501.605 290.496 501.313 287.856L497.515 253.566C497.222 250.926 494.845 249.023 492.205 249.315Z" fill="#9468B4" stroke="#2E353A" stroke-linecap="round" stroke-linejoin="round"/>
<path d="M491.444 277.937L496.454 277.402C498.609 277.172 500.767 277.8 502.461 279.15C504.156 280.501 505.249 282.465 505.505 284.616L513.003 352.431C513.308 355.203 512.499 357.983 510.755 360.159C509.011 362.336 506.474 363.73 503.702 364.037H503.368C501.994 364.19 500.605 364.071 499.278 363.686C497.951 363.301 496.713 362.658 495.635 361.794C494.557 360.93 493.66 359.862 492.995 358.651C492.33 357.439 491.911 356.109 491.762 354.735L484.264 286.937C484.143 285.864 484.235 284.777 484.535 283.739C484.835 282.701 485.337 281.732 486.012 280.889C486.686 280.045 487.521 279.342 488.467 278.821C489.414 278.301 490.454 277.972 491.528 277.853L491.444 277.937Z" fill="#2E353A" stroke="#2E353A" stroke-linecap="round" stroke-linejoin="round"/>
<path d="M498.725 334.446C498.725 334.446 486.852 334.88 485.182 336.934C483.512 338.988 483.813 346.136 487.036 346.954C495.252 349.108 512.719 347.856 513.404 346.386C514.088 344.917 515.491 336.367 511.884 335.448C507.53 334.781 503.131 334.446 498.725 334.446Z" fill="white" stroke="#2E353A" stroke-linecap="round" stroke-linejoin="round"/>
<path d="M495.302 317.881C495.302 317.881 481.492 317.363 479.337 319.851C477.183 322.339 476.766 331.641 480.406 333.043C489.691 336.6 510.581 335.214 511.533 333.377C512.485 331.54 514.556 322.005 510.464 320.469C506.373 318.933 495.302 317.881 495.302 317.881Z" fill="white" stroke="#2E353A" stroke-linecap="round" stroke-linejoin="round"/>
<path d="M493.314 299.177C493.314 299.177 478.552 298.61 476.248 301.282C473.944 303.953 473.493 313.873 477.384 315.376C487.403 319.183 509.112 319.183 510.13 317.212C511.149 315.242 513.888 303.586 509.512 301.933C505.137 300.28 493.314 299.177 493.314 299.177Z" fill="white" stroke="#2E353A" stroke-linecap="round" stroke-linejoin="round"/>
<path d="M484.798 281.677C484.798 281.677 470.036 281.126 467.731 283.781C465.427 286.437 464.876 296.673 468.867 297.875C472.858 299.078 500.595 301.683 501.614 299.729C502.632 297.775 505.371 286.086 500.996 284.433C496.621 282.779 484.798 281.677 484.798 281.677Z" fill="white" stroke="#2E353A" stroke-linecap="round" stroke-linejoin="round"/>
<path d="M533.142 330.789C530.492 330.06 527.981 328.898 525.711 327.349C513.838 319.15 514.239 300.313 514.239 300.313L511.383 299.495C509.024 298.597 506.813 297.354 504.82 295.804C505.777 299.695 506.336 303.673 506.49 307.677C506.447 309.878 505.588 311.984 504.079 313.585C502.569 315.187 500.518 316.17 498.324 316.344C494.634 316.762 492.997 317.162 491.762 312.253C490.526 307.343 484.397 287.672 483.98 284.8C483.613 282.195 487.988 277.552 494.951 276.45C505.655 277.319 516.209 280.308 526.997 280.308C530.75 280.66 534.347 281.984 537.434 284.148" fill="white"/>
<path d="M533.142 330.789C530.492 330.06 527.981 328.898 525.711 327.349C513.838 319.15 514.239 300.313 514.239 300.313L511.383 299.495C509.024 298.597 506.813 297.354 504.82 295.804C505.777 299.695 506.336 303.673 506.49 307.677C506.447 309.878 505.588 311.984 504.079 313.585C502.569 315.187 500.518 316.17 498.324 316.344C494.634 316.762 492.997 317.162 491.762 312.253C490.526 307.343 484.397 287.672 483.98 284.8C483.613 282.195 487.988 277.552 494.951 276.45C505.655 277.319 516.209 280.308 526.997 280.308C530.75 280.66 534.347 281.984 537.434 284.148" stroke="#2E353A" stroke-linecap="round" stroke-linejoin="round"/>
<path d="M544.43 331.825C543.128 331.892 541.824 331.892 540.522 331.825H544.43Z" fill="white"/>
<path d="M544.43 331.825C543.128 331.892 541.824 331.892 540.522 331.825" stroke="#2E353A" stroke-linecap="round" stroke-linejoin="round"/>
<path d="M553.164 330.204C550.328 331.101 547.397 331.662 544.43 331.874L553.164 330.204Z" fill="white"/>
<path d="M553.164 330.204C550.328 331.101 547.397 331.662 544.43 331.874" stroke="#2E353A" stroke-linecap="round" stroke-linejoin="round"/>
<path d="M567.909 324.895H582.654" stroke="#2E353A" stroke-linecap="round" stroke-linejoin="round"/>
<path d="M569.145 328.985H575.29" stroke="#2E353A" stroke-linecap="round" stroke-linejoin="round"/>
<path d="M514.238 300.314C514.238 300.314 522.387 300.314 527.731 295.454" stroke="#2E353A" stroke-linecap="round" stroke-linejoin="round"/>
<path d="M504.636 295.271C504.402 293.047 503.937 290.853 503.25 288.725" stroke="#2E353A" stroke-linecap="round" stroke-linejoin="round"/>
<path d="M491.644 310.099C491.644 310.099 490.091 305.79 491.978 304.237C493.865 302.684 498.875 300.447 499.743 302.167C500.612 303.887 502.499 311.819 501.981 313.372L501.463 314.925" stroke="#2E353A" stroke-width="0.5" stroke-linecap="round" stroke-linejoin="round"/>
<path d="M718 362.35H576.81V292.949H718" fill="#9468B4"/>
<path d="M718 362.35H576.81V292.949H718" stroke="#2E353A" stroke-linecap="round" stroke-linejoin="round"/>
<path d="M587.163 357.708C588.915 357.708 590.336 356.287 590.336 354.535C590.336 352.783 588.915 351.362 587.163 351.362C585.411 351.362 583.99 352.783 583.99 354.535C583.99 356.287 585.411 357.708 587.163 357.708Z" fill="white" stroke="#2E353A" stroke-linecap="round" stroke-linejoin="round"/>
<path d="M362.778 226.854C363.988 226.367 365.087 225.641 366.011 224.72C366.934 223.799 367.664 222.702 368.155 221.494C368.923 219.607 368.74 217.102 370.393 214.18C374.067 207.634 370.794 191.252 372.063 179.362C373.332 167.473 360.173 151.508 360.173 151.508L362.728 104.4H315.971C315.971 104.4 318.008 153.562 313.917 164.2C309.826 174.837 301.226 186.743 301.626 192.07C302.027 197.397 306.987 241.199 306.987 241.199L362.695 226.854H362.778Z" fill="white" stroke="#2E353A" stroke-linecap="round" stroke-linejoin="round"/>
<path d="M174.363 239.011C175.433 248.739 179.363 257.931 185.657 265.425C191.951 272.919 200.325 278.379 209.722 281.113C219.119 283.847 229.115 283.734 238.447 280.786C247.779 277.839 256.028 272.191 262.15 264.555C268.271 256.92 271.991 247.641 272.839 237.891C273.687 228.142 271.625 218.36 266.913 209.782C262.202 201.205 255.052 194.217 246.369 189.703C237.686 185.189 227.859 183.351 218.131 184.422H218.015C204.993 185.887 193.084 192.457 184.901 202.691C176.718 212.925 172.928 225.987 174.363 239.011ZM262.868 229.176C263.738 236.981 262.274 244.869 258.66 251.842C255.047 258.816 249.447 264.561 242.569 268.352C235.691 272.142 227.843 273.808 220.018 273.139C212.192 272.47 204.741 269.495 198.607 264.591C192.472 259.687 187.93 253.074 185.553 245.588C183.177 238.103 183.074 230.081 185.256 222.536C187.439 214.992 191.81 208.264 197.816 203.204C203.823 198.144 211.194 194.978 219 194.108C229.467 192.945 239.967 195.985 248.193 202.561C256.419 209.137 261.697 218.71 262.868 229.176Z" fill="white" stroke="#2E353A" stroke-linecap="round" stroke-linejoin="round"/>
<path d="M171.474 239.312C172.554 249.033 176.491 258.217 182.789 265.701C189.087 273.185 197.463 278.633 206.857 281.358C216.251 284.083 226.242 283.961 235.567 281.008C244.892 278.055 253.132 272.403 259.246 264.768C265.359 257.133 269.072 247.856 269.914 238.111C270.756 228.366 268.689 218.59 263.976 210.019C259.263 201.448 252.114 194.467 243.434 189.959C234.754 185.45 224.932 183.616 215.209 184.689C208.75 185.402 202.495 187.381 196.801 190.512C191.107 193.643 186.085 197.866 182.024 202.938C177.962 208.011 174.94 213.834 173.13 220.075C171.32 226.316 170.757 232.853 171.474 239.312ZM260.113 229.509C260.98 237.312 259.513 245.196 255.899 252.166C252.285 259.135 246.686 264.876 239.809 268.663C232.932 272.449 225.086 274.112 217.265 273.44C209.443 272.768 201.996 269.792 195.866 264.888C189.735 259.983 185.197 253.371 182.824 245.888C180.452 238.404 180.352 230.385 182.537 222.845C184.722 215.305 189.093 208.581 195.099 203.526C201.105 198.47 208.475 195.308 216.278 194.441C221.459 193.866 226.702 194.316 231.709 195.767C236.716 197.217 241.388 199.64 245.458 202.897C249.529 206.153 252.918 210.179 255.432 214.745C257.947 219.312 259.537 224.328 260.113 229.509Z" fill="white" stroke="#2E353A" stroke-linecap="round" stroke-linejoin="round"/>
<path d="M309.303 217.713L275.013 221.511C272.373 221.803 270.469 224.18 270.762 226.82L271.021 229.16C271.313 231.8 273.691 233.703 276.331 233.411L310.621 229.613C313.261 229.321 315.164 226.944 314.872 224.304L314.613 221.963C314.32 219.323 311.943 217.42 309.303 217.713Z" fill="#9468B4" stroke="#2E353A" stroke-linecap="round" stroke-linejoin="round"/>
<path d="M299.372 227.572L298.821 222.563C298.582 220.393 299.215 218.216 300.58 216.513C301.946 214.809 303.932 213.718 306.102 213.478L373.9 205.981C375.279 205.82 376.676 205.934 378.01 206.315C379.345 206.696 380.591 207.338 381.678 208.202C382.764 209.066 383.668 210.137 384.34 211.352C385.011 212.567 385.436 213.902 385.589 215.282V215.616C385.749 216.995 385.636 218.392 385.255 219.726C384.873 221.061 384.232 222.308 383.368 223.394C382.503 224.48 381.433 225.385 380.218 226.056C379.003 226.727 377.667 227.152 376.288 227.305L308.49 234.803C306.323 235.048 304.147 234.424 302.439 233.069C300.73 231.714 299.628 229.738 299.372 227.572Z" fill="#2E353A" stroke="#2E353A" stroke-linecap="round" stroke-linejoin="round"/>
<path d="M355.865 220.292C355.865 220.292 356.316 232.148 358.353 233.818C360.39 235.488 367.571 235.187 368.372 231.964C370.543 223.765 369.274 206.281 367.805 205.613C366.335 204.945 357.785 203.509 356.883 207.133C356.211 211.487 355.87 215.886 355.865 220.292Z" fill="white" stroke="#2E353A" stroke-linecap="round" stroke-linejoin="round"/>
<path d="M339.316 223.698C339.316 223.698 338.782 237.508 341.27 239.662C343.758 241.816 353.06 242.251 354.462 238.594C358.036 229.309 356.633 208.418 354.796 207.483C352.959 206.548 343.424 204.461 341.888 208.552C340.352 212.643 339.316 223.698 339.316 223.698Z" fill="white" stroke="#2E353A" stroke-linecap="round" stroke-linejoin="round"/>
<path d="M320.613 225.719C320.613 225.719 320.045 240.481 322.7 242.785C325.355 245.09 335.308 245.541 336.811 241.633C340.618 231.714 340.618 209.905 338.648 208.903C336.677 207.901 325.005 205.146 323.368 209.521C321.732 213.896 320.613 225.719 320.613 225.719Z" fill="white" stroke="#2E353A" stroke-linecap="round" stroke-linejoin="round"/>
<path d="M303.113 234.219C303.113 234.219 302.545 248.98 305.217 251.285C307.888 253.589 318.108 254.14 319.311 250.133C320.513 246.125 323.118 218.405 321.147 217.386C319.177 216.367 307.521 213.645 305.868 218.02C304.215 222.396 303.113 234.219 303.113 234.219Z" fill="white" stroke="#2E353A" stroke-linecap="round" stroke-linejoin="round"/>
<path d="M353.243 174.536C353.924 181.114 352.346 187.728 348.768 193.289C340.586 205.179 321.732 204.761 321.732 204.761L320.914 207.634C320.023 209.99 318.779 212.197 317.224 214.18C321.12 213.223 325.104 212.664 329.113 212.51C331.306 212.573 333.398 213.446 334.986 214.96C336.574 216.474 337.545 218.522 337.713 220.709C338.131 224.399 338.532 226.036 333.622 227.255C328.713 228.474 309.041 234.636 306.169 235.053C303.564 235.421 298.921 231.046 297.819 224.082C298.704 213.378 301.694 202.808 301.694 192.037C302.043 188.277 303.367 184.674 305.534 181.583" fill="white"/>
<path d="M353.243 174.536C353.924 181.114 352.346 187.728 348.768 193.289C340.586 205.179 321.732 204.761 321.732 204.761L320.914 207.634C320.023 209.99 318.779 212.197 317.224 214.18C321.12 213.223 325.104 212.664 329.113 212.51C331.306 212.573 333.398 213.446 334.986 214.96C336.574 216.474 337.545 218.522 337.713 220.709C338.131 224.399 338.532 226.036 333.622 227.255C328.713 228.474 309.041 234.636 306.169 235.053C303.564 235.421 298.921 231.046 297.819 224.082C298.704 213.378 301.694 202.808 301.694 192.037C302.043 188.277 303.367 184.674 305.534 181.583" stroke="#2E353A" stroke-linecap="round" stroke-linejoin="round"/>
<path d="M351.64 165.853C352.134 167.415 352.514 169.011 352.776 170.628L351.64 165.853Z" fill="white"/>
<path d="M351.64 165.853C352.134 167.415 352.514 169.011 352.776 170.628" stroke="#2E353A" stroke-linecap="round" stroke-linejoin="round"/>
<path d="M346.313 151.091V136.346" stroke="#2E353A" stroke-linecap="round" stroke-linejoin="round"/>
<path d="M350.404 149.872V143.727" stroke="#2E353A" stroke-linecap="round" stroke-linejoin="round"/>
<path d="M321.732 204.761C321.732 204.761 321.732 196.612 316.873 191.269" stroke="#2E353A" stroke-linecap="round" stroke-linejoin="round"/>
<path d="M316.706 214.38C314.482 214.609 312.289 215.068 310.16 215.749" stroke="#2E353A" stroke-linecap="round" stroke-linejoin="round"/>
<path d="M331.534 227.305C331.534 227.305 327.226 228.858 325.673 226.955C324.12 225.051 321.882 220.058 323.602 219.206C325.322 218.355 333.254 216.451 334.807 216.969L336.36 217.47" stroke="#2E353A" stroke-width="0.5" stroke-linecap="round" stroke-linejoin="round"/>
<path d="M383.786 1V142.19H314.368V1" fill="#9468B4"/>
<path d="M383.786 1V142.19H314.368V1" stroke="#2E353A" stroke-linecap="round" stroke-linejoin="round"/>
<path d="M375.954 135.01C377.706 135.01 379.126 133.589 379.126 131.837C379.126 130.085 377.706 128.664 375.954 128.664C374.201 128.664 372.781 130.085 372.781 131.837C372.781 133.589 374.201 135.01 375.954 135.01Z" fill="white" stroke="#2E353A" stroke-linecap="round" stroke-linejoin="round"/>
<path d="M292.926 478.325C292.441 479.536 291.716 480.637 290.795 481.561C289.874 482.485 288.776 483.213 287.566 483.702C285.679 484.487 283.174 484.303 280.252 485.94C273.706 489.63 257.324 486.357 245.434 487.61C233.545 488.862 217.58 475.737 217.58 475.737L170.422 478.325V431.568C170.422 431.568 219.584 433.622 230.238 429.531C240.892 425.439 252.765 416.823 258.092 417.24C263.419 417.658 307.254 422.567 307.254 422.567L292.926 478.325Z" fill="white" stroke="#2E353A" stroke-linecap="round" stroke-linejoin="round"/>
<path d="M305.033 289.893C314.76 290.97 323.949 294.907 331.438 301.206C338.927 307.505 344.381 315.883 347.108 325.282C349.836 334.68 349.715 344.676 346.761 354.006C343.808 363.335 338.154 371.58 330.515 377.696C322.876 383.813 313.594 387.527 303.845 388.368C294.095 389.21 284.314 387.141 275.74 382.424C267.166 377.707 260.183 370.553 255.674 361.868C251.166 353.182 249.334 343.355 250.411 333.628C251.855 320.59 258.419 308.659 268.659 300.46C278.9 292.261 291.978 288.466 305.017 289.91L305.033 289.893ZM295.214 378.532C303.02 379.401 310.908 377.937 317.881 374.324C324.854 370.711 330.599 365.111 334.39 358.233C338.181 351.354 339.847 343.506 339.178 335.681C338.508 327.856 335.533 320.405 330.63 314.27C325.726 308.136 319.113 303.593 311.627 301.217C304.142 298.84 296.119 298.737 288.575 300.92C281.031 303.103 274.303 307.474 269.243 313.48C264.183 319.486 261.017 326.858 260.146 334.663C258.983 345.13 262.024 355.631 268.6 363.857C275.175 372.083 284.748 377.361 295.214 378.532Z" fill="white" stroke="#2E353A" stroke-linecap="round" stroke-linejoin="round"/>
<path d="M305.333 287.071C315.056 288.151 324.239 292.089 331.723 298.388C339.207 304.687 344.656 313.063 347.38 322.459C350.103 331.854 349.98 341.845 347.026 351.171C344.071 360.496 338.418 368.735 330.781 374.848C323.144 380.96 313.866 384.671 304.12 385.511C294.374 386.351 284.598 384.282 276.028 379.566C267.458 374.85 260.478 367.699 255.972 359.017C251.465 350.335 249.635 340.511 250.711 330.789C251.426 324.331 253.406 318.078 256.538 312.386C259.67 306.693 263.893 301.674 268.966 297.614C274.038 293.554 279.861 290.534 286.101 288.725C292.341 286.916 298.876 286.354 305.333 287.071ZM295.514 375.709C303.32 376.579 311.208 375.115 318.181 371.501C325.154 367.888 330.9 362.288 334.69 355.41C338.481 348.532 340.147 340.684 339.478 332.859C338.808 325.033 335.834 317.582 330.93 311.448C326.026 305.313 319.413 300.771 311.927 298.394C304.442 296.018 296.42 295.915 288.875 298.098C281.331 300.28 274.603 304.651 269.543 310.657C264.483 316.664 261.317 324.036 260.447 331.841C259.288 342.303 262.331 352.797 268.907 361.017C275.483 369.237 285.053 374.509 295.514 375.676V375.709Z" fill="white" stroke="#2E353A" stroke-linecap="round" stroke-linejoin="round"/>
<path d="M287.495 390.599L283.697 424.89C283.405 427.53 285.308 429.907 287.948 430.199L290.288 430.459C292.928 430.751 295.305 428.848 295.598 426.208L299.396 391.917C299.688 389.277 297.785 386.9 295.145 386.608L292.805 386.349C290.165 386.056 287.788 387.959 287.495 390.599Z" fill="#9468B4" stroke="#2E353A" stroke-linecap="round" stroke-linejoin="round"/>
<path d="M281.688 501.136H281.354C279.974 500.984 278.637 500.561 277.421 499.891C276.205 499.22 275.133 498.315 274.269 497.229C273.404 496.142 272.763 494.895 272.383 493.559C272.002 492.223 271.89 490.826 272.053 489.446L279.551 421.648C279.667 420.573 279.995 419.531 280.515 418.583C281.035 417.634 281.737 416.798 282.581 416.121C283.425 415.445 284.394 414.942 285.433 414.641C286.472 414.34 287.56 414.247 288.635 414.368L293.645 414.919C295.815 415.158 297.801 416.249 299.166 417.953C300.532 419.657 301.164 421.833 300.925 424.003L293.428 491.884C293.272 493.263 292.846 494.598 292.174 495.812C291.502 497.026 290.597 498.095 289.512 498.959C288.426 499.823 287.181 500.464 285.847 500.846C284.513 501.229 283.117 501.344 281.738 501.186L281.688 501.136Z" fill="#2E353A" stroke="#2E353A" stroke-linecap="round" stroke-linejoin="round"/>
<path d="M286.246 471.461C286.246 471.461 298.103 471.912 299.773 473.949C301.443 475.986 301.142 483.15 297.919 483.968C289.72 486.139 272.236 484.87 271.568 483.401C270.9 481.931 269.464 473.381 273.088 472.463C277.442 471.796 281.841 471.461 286.246 471.461Z" fill="white" stroke="#2E353A" stroke-linecap="round" stroke-linejoin="round"/>
<path d="M289.72 454.946C289.72 454.946 303.53 454.411 305.684 456.9C307.838 459.388 308.273 468.689 304.616 470.092C295.331 473.649 274.44 472.263 273.505 470.426C272.57 468.589 270.483 459.054 274.574 457.517C278.665 455.981 289.72 454.946 289.72 454.946Z" fill="white" stroke="#2E353A" stroke-linecap="round" stroke-linejoin="round"/>
<path d="M291.741 436.193C291.741 436.193 306.503 435.642 308.807 438.297C311.111 440.952 311.562 450.905 307.671 452.391C297.652 456.215 275.943 456.198 274.925 454.245C273.906 452.291 271.167 440.602 275.543 438.948C279.918 437.295 291.741 436.193 291.741 436.193Z" fill="white" stroke="#2E353A" stroke-linecap="round" stroke-linejoin="round"/>
<path d="M300.241 418.709C300.241 418.709 315.002 418.141 317.307 420.797C319.611 423.452 320.162 433.705 316.155 434.907C312.147 436.11 284.427 438.698 283.408 436.744C282.389 434.79 279.667 423.101 284.042 421.465C288.418 419.828 300.241 418.709 300.241 418.709Z" fill="white" stroke="#2E353A" stroke-linecap="round" stroke-linejoin="round"/>
<path d="M242.829 468.923C248.653 469.152 254.403 467.558 259.278 464.364C271.167 456.165 270.75 437.328 270.75 437.328L273.622 436.51C275.979 435.619 278.186 434.374 280.168 432.819C279.212 436.71 278.652 440.688 278.498 444.692C278.561 446.887 279.434 448.981 280.947 450.571C282.461 452.162 284.509 453.137 286.697 453.309C290.388 453.71 292.024 454.127 293.26 449.201C294.496 444.275 300.624 424.62 301.042 421.765C301.459 418.909 297.034 414.5 290.071 413.415C279.367 414.3 268.796 417.289 258.025 417.289C254.269 417.64 250.667 418.957 247.572 421.113" fill="white"/>
<path d="M242.829 468.923C248.653 469.152 254.403 467.558 259.278 464.364C271.167 456.165 270.75 437.328 270.75 437.328L273.622 436.51C275.979 435.619 278.186 434.374 280.168 432.819C279.212 436.71 278.652 440.688 278.498 444.692C278.561 446.887 279.434 448.981 280.947 450.571C282.461 452.162 284.509 453.137 286.697 453.309C290.388 453.71 292.024 454.127 293.26 449.201C294.496 444.275 300.624 424.62 301.042 421.765C301.459 418.909 297.034 414.5 290.071 413.415C279.367 414.3 268.796 417.289 258.025 417.289C254.269 417.64 250.667 418.957 247.572 421.113" stroke="#2E353A" stroke-linecap="round" stroke-linejoin="round"/>
<path d="M231.875 467.236C234.209 467.954 236.609 468.44 239.038 468.689L231.875 467.236Z" fill="white"/>
<path d="M231.875 467.236C234.209 467.954 236.609 468.44 239.038 468.689" stroke="#2E353A" stroke-linecap="round" stroke-linejoin="round"/>
<path d="M217.113 461.91H202.368" stroke="#2E353A" stroke-linecap="round" stroke-linejoin="round"/>
<path d="M215.894 466.001H209.749" stroke="#2E353A" stroke-linecap="round" stroke-linejoin="round"/>
<path d="M270.783 437.329C270.783 437.329 262.634 437.329 257.291 432.47" stroke="#2E353A" stroke-linecap="round" stroke-linejoin="round"/>
<path d="M280.402 432.286C280.631 430.063 281.09 427.869 281.771 425.74" stroke="#2E353A" stroke-linecap="round" stroke-linejoin="round"/>
<path d="M293.327 447.114C293.327 447.114 294.88 442.806 292.976 441.253C291.072 439.7 286.079 437.462 285.228 439.182C284.376 440.902 282.473 448.851 282.99 450.387L283.508 451.94" stroke="#2E353A" stroke-width="0.5" stroke-linecap="round" stroke-linejoin="round"/>
<path d="M67.022 499.383H208.212V429.965H67.022" fill="#9468B4"/>
<path d="M67.022 499.383H208.212V429.965H67.022" stroke="#2E353A" stroke-linecap="round" stroke-linejoin="round"/>
<path d="M194.686 491.551C194.686 492.178 194.872 492.792 195.221 493.313C195.569 493.835 196.065 494.242 196.645 494.482C197.224 494.722 197.862 494.785 198.478 494.663C199.093 494.54 199.659 494.238 200.102 493.794C200.546 493.351 200.848 492.785 200.971 492.17C201.093 491.554 201.03 490.916 200.79 490.337C200.55 489.757 200.143 489.261 199.622 488.913C199.1 488.564 198.486 488.378 197.859 488.378C197.017 488.378 196.21 488.712 195.615 489.307C195.02 489.902 194.686 490.709 194.686 491.551Z" fill="white" stroke="#2E353A" stroke-linecap="round" stroke-linejoin="round"/>
</svg>
