<svg width="681" height="558" viewBox="0 0 681 558" fill="none" xmlns="http://www.w3.org/2000/svg">
<g opacity="0.15">
<path d="M88.2199 389.202C165.436 477.707 243.404 488.912 353 509.886C462.595 530.86 543.068 516.365 602.366 462.911C670.832 401.125 668.127 259.584 563.357 209.187C530.627 193.406 491.651 188.63 462.979 166.437C408.223 124.088 363.937 58.1941 276.034 45.8201C188.13 33.4461 128.865 92.4104 128.865 92.4104C56.6755 171.464 11.0037 300.63 88.2199 389.202Z" fill="#9468B4"/>
<path opacity="0.7" d="M88.2199 389.202C165.436 477.707 243.404 488.912 353 509.886C462.595 530.86 543.068 516.365 602.366 462.911C670.832 401.125 668.127 259.584 563.357 209.187C530.627 193.406 491.651 188.63 462.979 166.437C408.223 124.088 363.937 58.1941 276.034 45.8201C188.13 33.4461 128.865 92.4104 128.865 92.4104C56.6755 171.464 11.0037 300.63 88.2199 389.202Z" fill="white"/>
</g>
<path d="M677.328 530.726H26.0664V557.444H677.328V530.726Z" fill="#9468B4"/>
<path opacity="0.5" d="M677.328 530.726H26.0664V557.444H677.328V530.726Z" fill="white"/>
<path d="M179.647 243.353C176.462 244.392 173.335 245.602 170.279 246.977C171.949 245.758 173.619 244.489 175.289 243.203C182.724 237.223 189.8 230.811 196.48 223.999C188.641 231.614 180.27 238.662 171.431 245.09C172.65 242.973 173.721 240.775 174.638 238.51C176.308 234.352 176.608 230.161 172.65 227.94C167.758 225.201 161.846 229.293 163.399 236.289C164.347 240.196 166.194 243.827 168.793 246.893C163.025 250.886 157 254.496 150.758 257.698L150.174 257.998C151.493 255.713 152.659 253.342 153.664 250.901C155.233 246.76 155.634 242.552 151.66 240.347C146.767 237.592 140.856 241.7 142.425 248.697C143.357 252.551 145.163 256.139 147.702 259.184C140.204 262.874 132.456 266.014 124.741 269.42L123.622 269.921C125.128 268.304 126.528 266.592 127.814 264.795C130.318 261.121 131.671 257.147 128.331 254.057C124.223 250.25 117.494 252.855 117.393 260.069C117.398 264.05 118.324 267.977 120.099 271.541C112.879 274.914 106.02 279.01 99.6257 283.765L99.4253 283.932C100.29 282.561 101.082 281.145 101.797 279.69C103.684 275.666 104.385 271.524 100.577 269.003C99.8038 268.471 98.9196 268.121 97.9913 267.98C97.063 267.839 96.1148 267.91 95.218 268.188C94.3212 268.466 93.499 268.944 92.8134 269.585C92.1277 270.227 91.5965 271.015 91.2594 271.892C90.7575 271.109 90.0764 270.456 89.2723 269.988C85.4482 267.784 81.6909 270.172 78.468 273.545C77.633 274.43 76.7981 275.382 76.08 276.317C78.5662 269.417 81.6913 262.764 85.4148 256.445C88.9606 257.994 92.784 258.806 96.6532 258.833C104.268 258.833 107.474 252.488 103.734 248.547C100.694 245.357 96.4194 246.576 92.3783 248.914C91.0476 249.69 89.7599 250.537 88.5208 251.452C92.3919 245.622 96.7852 240.155 101.646 235.121C104.832 237.697 108.533 239.559 112.501 240.581C119.898 242.401 124.541 237.041 121.869 232.315C119.698 228.474 115.189 228.625 110.764 229.91C108.646 230.544 106.571 231.314 104.552 232.215C106.572 230.244 108.66 228.357 110.781 226.487C113.553 224.116 116.425 221.828 119.347 219.59C122.489 222.098 126.125 223.913 130.018 224.917C137.416 226.738 142.058 221.377 139.386 216.651C137.215 212.811 132.706 212.961 128.264 214.247C127.229 214.547 126.177 214.915 125.158 215.299C129.016 212.543 132.923 209.855 136.848 207.183L140.471 204.695C143.737 207.43 147.57 209.404 151.693 210.473C159.091 212.293 163.75 206.933 161.078 202.207C158.89 198.366 154.398 198.516 149.956 199.802C148.209 200.337 146.489 200.954 144.796 201.656L147.034 199.986C148.403 199.001 149.773 197.999 151.109 196.947C152.779 195.694 154.365 194.308 155.985 192.972C156.92 192.237 157.805 191.453 158.69 190.651C161.969 193.415 165.827 195.407 169.979 196.479C177.376 198.299 182.019 192.939 179.347 188.213C177.176 184.372 172.667 184.523 168.242 185.808C165.76 186.575 163.329 187.495 160.961 188.564C163.984 185.758 166.906 182.836 169.678 179.797C169.862 179.58 170.029 179.363 170.229 179.162C171.415 177.843 172.584 176.507 173.719 175.121C174.855 173.735 176.324 171.915 177.56 170.245C182.634 163.584 186.812 156.285 189.984 148.536C186.659 156.193 182.342 163.38 177.142 169.911C172 176.469 166.259 182.535 159.993 188.029L159.308 188.614C160.731 186.19 161.992 183.674 163.082 181.083C164.668 176.941 165.052 172.733 161.078 170.529C156.202 167.773 150.274 171.881 151.843 178.878C152.852 183.021 154.865 186.853 157.705 190.033L156.235 191.302L154.565 192.738C153.597 193.523 152.595 194.275 151.593 195.026C151.059 195.427 150.541 195.844 149.923 196.245C148.504 197.297 147.068 198.316 145.615 199.318L143.527 200.737L141.156 202.407C142.542 200.042 143.759 197.581 144.796 195.043C146.383 190.885 146.767 186.693 142.809 184.489C137.917 181.734 131.988 185.842 133.558 192.839C134.526 196.858 136.445 200.586 139.152 203.71L137.482 204.845L130.986 209.103L129.701 209.938L126.077 212.36L124.507 213.412C122.837 214.564 121.167 215.733 119.497 216.935C120.839 214.532 122.011 212.038 123.004 209.471C124.674 205.33 124.975 201.121 121.017 198.917C116.124 196.162 110.213 200.27 111.783 207.267C112.763 211.34 114.724 215.111 117.494 218.255C114.655 220.342 111.849 222.479 109.144 224.717C107.157 226.387 105.203 228.057 103.283 229.86C104.119 228.313 104.866 226.718 105.52 225.084C107.09 220.926 107.491 216.735 103.517 214.531C98.6237 211.775 92.7123 215.883 94.282 222.88C95.2139 226.734 97.0194 230.322 99.5589 233.367C94.1504 238.742 89.2791 244.631 85.014 250.951C85.4982 249.128 85.8664 247.277 86.1162 245.407C86.6505 240.999 86.016 236.857 81.6241 235.655C76.2136 234.169 71.4711 239.579 74.694 246.025C76.548 249.573 79.2004 252.643 82.4424 254.992C78.2358 261.863 74.7229 269.135 71.9554 276.701C71.8831 275.119 71.7271 273.541 71.4878 271.975C70.7364 267.583 68.9663 263.793 64.4074 263.876C58.7966 263.993 55.774 270.556 60.7002 275.799C63.3274 278.538 66.534 280.655 70.0851 281.995C68.1859 287.835 66.6412 293.786 65.4595 299.813C65.2591 300.764 65.1088 301.716 64.9251 302.668C64.7247 302.852 64.5243 303.035 64.3406 303.236C64.1402 302.418 63.9065 301.566 63.6393 300.781C62.2365 296.573 59.8987 293.083 55.4067 293.884C49.896 294.853 47.9088 301.766 53.5865 306.225C56.472 308.428 59.7982 309.982 63.3387 310.784C63.3387 310.951 63.4723 311.101 63.5558 311.268C62.9379 315.794 62.4703 320.352 62.1865 324.928C61.9694 328.268 61.8525 331.758 61.7857 335.181C57.0098 335.181 53.6366 340.425 56.9263 346.102C58.3144 348.456 60.0932 350.557 62.1865 352.314C62.5872 358.743 63.2218 365.173 64.0734 371.552C63.3981 370.927 62.5717 370.489 61.6757 370.281C60.7796 370.073 59.8449 370.103 58.9635 370.366C55.9577 371.184 54.6051 373.606 54.1208 376.578C53.0512 377.685 52.4526 379.163 52.4509 380.703C50.2133 377.363 48.0925 374.023 46.0385 370.499C49.1739 368.096 51.7732 365.064 53.67 361.599C57.2603 354.919 53.2024 349.058 47.9756 350.477C43.7006 351.646 42.7655 355.988 42.9659 360.647C43.0327 362.414 43.1999 364.176 43.4669 365.924L41.2626 362.05C39.4257 358.71 37.9228 355.37 36.1193 352.03C35.6851 351.212 35.301 350.36 34.9504 349.526C38.4685 347.753 41.5792 345.268 44.0847 342.228C48.8773 336.317 45.9884 329.821 40.5779 330.238C36.1694 330.589 34.416 334.68 33.6812 339.289C33.3949 341.299 33.2165 343.322 33.1469 345.351L31.5772 341.727C28.2339 333.507 25.4827 325.058 23.3445 316.445C27.3267 315.034 30.9437 312.752 33.9317 309.765C39.2921 304.338 37.0711 297.608 31.644 297.475C27.2354 297.375 25.0812 301.265 23.8789 305.824C23.2896 308.244 22.8491 310.698 22.5597 313.172C21.3908 308.229 20.3888 303.219 19.5539 298.143C18.9861 295.037 18.6187 291.881 18.2346 288.741C22.5149 287.893 26.5463 286.083 30.0241 283.448C36.0358 278.772 34.7166 271.758 29.3395 270.973C24.981 270.289 22.3426 273.879 20.5725 278.204C19.5362 280.932 18.6662 283.72 17.9675 286.554C17.6335 282.913 17.2494 279.256 17.0824 275.599C16.5815 268.048 16.5815 260.473 17.0824 252.922C16.3201 260.466 16.0579 268.053 16.2976 275.632C16.2976 279.122 16.5981 282.596 16.8152 286.086C15.8612 283.713 14.7453 281.409 13.4754 279.189C11.2044 275.365 8.16513 272.51 3.95698 274.18C-1.23642 276.317 -1.68729 283.498 4.82533 286.637C8.64508 288.392 12.8351 289.188 17.0323 288.958C17.3329 292.081 17.6001 295.187 18.0676 298.276C18.7189 303.286 19.5539 308.095 20.5391 312.955C19.4705 311.093 18.2824 309.302 16.9822 307.594C14.2269 304.104 10.8537 301.633 6.9628 303.887C2.10338 306.676 2.57096 313.907 9.43426 316.127C13.3179 317.334 17.4313 317.609 21.4409 316.929C23.3461 325.636 25.8513 334.201 28.9387 342.562L29.924 345.067C29.0404 343.897 28.0869 342.782 27.0684 341.727C23.9791 338.521 20.3888 336.4 16.6649 339.055C12.1061 342.395 13.3251 349.409 20.3387 350.978C24.2095 351.762 28.2083 351.648 32.028 350.644C32.3787 351.496 32.7294 352.314 33.1469 353.183C34.8168 356.623 36.303 360.146 38.0564 363.519L39.5092 366.442C38.6408 365.69 37.7391 364.972 36.8039 364.304C33.1636 361.749 29.2226 360.347 26.0832 363.636C22.209 367.694 24.7139 374.44 31.9278 374.658C35.6835 374.745 39.4123 374.004 42.849 372.487C44.9197 376.227 47.0404 379.918 49.3449 383.541C50.1966 384.927 51.0148 386.297 51.9834 387.666C50.6733 386.468 49.2902 385.353 47.842 384.326C44.2016 381.771 40.2606 380.369 37.1045 383.658C33.2471 387.716 35.7519 394.463 42.9659 394.68C47.089 394.729 51.1647 393.796 54.8556 391.958C56.0579 393.628 57.2937 395.298 58.5628 396.967C55.8742 400.09 56.7593 405.317 62.2199 407.705C64.872 408.81 67.6987 409.438 70.5694 409.559C70.9033 409.826 71.2373 410.093 71.6047 410.343L71.7717 410.477C75.2228 423.369 79.3141 436.071 84.0455 448.584C86.0494 453.911 88.2035 459.188 90.4245 464.431H70.3857V543.451H131.621V464.365H99.0245C96.2358 458.27 93.5472 452.108 91.0424 445.879C86.9511 435.659 83.2439 425.272 80.021 414.735C80.5694 414.897 81.1271 415.025 81.6909 415.119C82.4326 415.27 83.1932 415.303 83.9453 415.219L83.0769 409.726H82.4925C82.1442 409.676 81.7986 409.609 81.4571 409.525C80.6857 409.304 79.9321 409.025 79.2028 408.69L78.3344 408.289C81.5572 407.166 84.5501 405.469 87.1682 403.28C92.9627 398.27 91.3262 391.423 85.9158 390.839C81.5406 390.355 79.0692 394.062 77.5663 398.454C77.1154 399.706 76.748 401.009 76.4307 402.278C76.1134 401.109 75.7962 399.94 75.4956 398.771C74.6105 395.314 73.8257 391.824 73.0241 388.334C76.5217 387.243 79.7721 385.479 82.5927 383.141C88.3872 378.131 86.734 371.301 81.3402 370.717C76.9484 370.232 74.4936 373.939 72.9907 378.331C72.5399 379.6 72.1558 380.92 71.8218 382.222C71.3208 379.684 70.8365 377.129 70.3857 374.574C70.0684 372.687 69.7678 370.783 69.4839 368.88C69.3837 366.174 69.3336 363.469 69.367 360.747C69.367 359.261 69.367 357.775 69.5006 356.289C72.7746 357.323 76.2083 357.759 79.6369 357.574C87.2517 357.073 90.0571 350.561 86.0827 346.87C82.8431 343.848 78.6517 345.351 74.7608 347.922C73.016 349.108 71.3431 350.396 69.7511 351.78C70.22 345.424 71.186 339.115 72.64 332.91C73.4922 329.255 74.5572 325.653 75.8296 322.122C79.3212 323.326 83.0128 323.842 86.7006 323.642C94.3154 323.158 97.1208 316.645 93.1464 312.938C89.9235 309.932 85.7154 311.418 81.8245 314.007C80.4663 314.94 79.1617 315.949 77.9169 317.029C79.3853 313.575 81.0927 310.227 83.0268 307.01C86.8624 300.519 91.6721 294.656 97.2878 289.626C100.198 292.311 103.64 294.353 107.391 295.621C114.638 297.992 119.664 292.983 117.41 288.073C115.523 284.082 111.081 283.898 106.506 284.85C104.742 285.227 103.003 285.706 101.296 286.286L101.412 286.186C107.644 281.324 114.359 277.116 121.451 273.628C123.954 276.905 127.132 279.604 130.769 281.544C137.549 285.034 143.31 280.893 141.807 275.682C140.588 271.441 136.23 270.556 131.571 270.673C129.741 270.772 127.918 270.973 126.11 271.274C133.642 267.717 141.323 264.361 148.737 260.436H148.904C152.224 263.302 156.162 265.36 160.41 266.448C167.808 268.285 172.45 262.908 169.778 258.098C167.607 254.258 163.099 254.425 158.673 255.694C157.421 256.061 156.169 256.512 154.95 256.98C159.901 254.102 164.7 250.969 169.327 247.595L169.711 248.012V247.795C173.064 250.686 177.034 252.771 181.317 253.89C188.698 255.71 193.357 250.35 190.685 245.541C188.581 241.917 184.139 242.067 179.647 243.353ZM62.8878 394.663C61.3682 392.893 59.9321 391.039 58.5294 389.169C58.8633 388.868 59.2307 388.534 59.5981 388.167C61.6848 388.817 63.8446 389.204 66.0272 389.319V389.67L67.0459 389.453C67.5802 392.091 68.1313 394.713 68.7158 397.335C68.0372 396.447 67.1509 395.738 66.1348 395.273C65.1187 394.807 64.0037 394.597 62.8878 394.663ZM68.3317 331.791C67.814 333.762 67.3799 335.732 66.9624 337.719L66.7119 337.369C66.7119 333.294 66.7731 329.231 66.8956 325.178C67.0125 322.34 67.2129 319.517 67.4633 316.679C68.8373 318.078 70.3477 319.337 71.9721 320.436C70.5587 324.152 69.349 327.943 68.3484 331.791H68.3317ZM75.1783 313.088C75.2785 312.354 75.362 311.602 75.3954 310.867V309.748C75.9965 309.565 76.6144 309.348 77.2156 309.097C76.5476 310.416 75.8463 311.752 75.195 313.088H75.1783ZM83.8785 298.978C83.59 298.317 83.1703 297.722 82.6451 297.228C82.1198 296.734 81.4998 296.352 80.8226 296.105C76.6979 294.435 73.3581 297.441 70.703 301.282L70.5694 301.466H70.3022C70.0222 301.402 69.7372 301.363 69.4505 301.349C69.4308 301.114 69.471 300.879 69.5674 300.664C70.6247 294.632 72.0524 288.67 73.8424 282.813C77.6758 283.3 81.5682 282.998 85.2812 281.928C87.5752 281.325 89.5704 279.906 90.8921 277.937C91.627 281.304 93.0296 284.489 95.0167 287.305C90.9085 290.799 87.1807 294.717 83.8952 298.994L83.8785 298.978Z" fill="#9468B4"/>
<path opacity="0.3" d="M179.647 243.353C176.462 244.392 173.335 245.602 170.279 246.977C171.949 245.758 173.619 244.489 175.289 243.203C182.724 237.223 189.8 230.811 196.48 223.999C188.641 231.614 180.27 238.662 171.431 245.09C172.65 242.973 173.721 240.775 174.638 238.51C176.308 234.352 176.608 230.161 172.65 227.94C167.758 225.201 161.846 229.293 163.399 236.289C164.347 240.196 166.194 243.827 168.793 246.893C163.025 250.886 157 254.496 150.758 257.698L150.174 257.998C151.493 255.713 152.659 253.342 153.664 250.901C155.233 246.76 155.634 242.552 151.66 240.347C146.767 237.592 140.856 241.7 142.425 248.697C143.357 252.551 145.163 256.139 147.702 259.184C140.204 262.874 132.456 266.014 124.741 269.42L123.622 269.921C125.128 268.304 126.528 266.592 127.814 264.795C130.318 261.121 131.671 257.147 128.331 254.057C124.223 250.25 117.494 252.855 117.393 260.069C117.398 264.05 118.324 267.977 120.099 271.541C112.879 274.914 106.02 279.01 99.6257 283.765L99.4253 283.932C100.29 282.561 101.082 281.145 101.797 279.69C103.684 275.666 104.385 271.524 100.577 269.003C99.8038 268.471 98.9196 268.121 97.9913 267.98C97.063 267.839 96.1148 267.91 95.218 268.188C94.3212 268.466 93.499 268.944 92.8134 269.585C92.1277 270.227 91.5965 271.015 91.2594 271.892C90.7575 271.109 90.0764 270.456 89.2723 269.988C85.4482 267.784 81.6909 270.172 78.468 273.545C77.633 274.43 76.7981 275.382 76.08 276.317C78.5662 269.417 81.6913 262.764 85.4148 256.445C88.9606 257.994 92.784 258.806 96.6532 258.833C104.268 258.833 107.474 252.488 103.734 248.547C100.694 245.357 96.4194 246.576 92.3783 248.914C91.0476 249.69 89.7599 250.537 88.5208 251.452C92.3919 245.622 96.7852 240.155 101.646 235.121C104.832 237.697 108.533 239.559 112.501 240.581C119.898 242.401 124.541 237.041 121.869 232.315C119.698 228.474 115.189 228.625 110.764 229.91C108.646 230.544 106.571 231.314 104.552 232.215C106.572 230.244 108.66 228.357 110.781 226.487C113.553 224.116 116.425 221.828 119.347 219.59C122.489 222.098 126.125 223.913 130.018 224.917C137.416 226.738 142.058 221.377 139.386 216.651C137.215 212.811 132.706 212.961 128.264 214.247C127.229 214.547 126.177 214.915 125.158 215.299C129.016 212.543 132.923 209.855 136.848 207.183L140.471 204.695C143.737 207.43 147.57 209.404 151.693 210.473C159.091 212.293 163.75 206.933 161.078 202.207C158.89 198.366 154.398 198.516 149.956 199.802C148.209 200.337 146.489 200.954 144.796 201.656L147.034 199.986C148.403 199.001 149.773 197.999 151.109 196.947C152.779 195.694 154.365 194.308 155.985 192.972C156.92 192.237 157.805 191.453 158.69 190.651C161.969 193.415 165.827 195.407 169.979 196.479C177.376 198.299 182.019 192.939 179.347 188.213C177.176 184.372 172.667 184.523 168.242 185.808C165.76 186.575 163.329 187.495 160.961 188.564C163.984 185.758 166.906 182.836 169.678 179.797C169.862 179.58 170.029 179.363 170.229 179.162C171.415 177.843 172.584 176.507 173.719 175.121C174.855 173.735 176.324 171.915 177.56 170.245C182.634 163.584 186.812 156.285 189.984 148.536C186.659 156.193 182.342 163.38 177.142 169.911C172 176.469 166.259 182.535 159.993 188.029L159.308 188.614C160.731 186.19 161.992 183.674 163.082 181.083C164.668 176.941 165.052 172.733 161.078 170.529C156.202 167.773 150.274 171.881 151.843 178.878C152.852 183.021 154.865 186.853 157.705 190.033L156.235 191.302L154.565 192.738C153.597 193.523 152.595 194.275 151.593 195.026C151.059 195.427 150.541 195.844 149.923 196.245C148.504 197.297 147.068 198.316 145.615 199.318L143.527 200.737L141.156 202.407C142.542 200.042 143.759 197.581 144.796 195.043C146.383 190.885 146.767 186.693 142.809 184.489C137.917 181.734 131.988 185.842 133.558 192.839C134.526 196.858 136.445 200.586 139.152 203.71L137.482 204.845L130.986 209.103L129.701 209.938L126.077 212.36L124.507 213.412C122.837 214.564 121.167 215.733 119.497 216.935C120.839 214.532 122.011 212.038 123.004 209.471C124.674 205.33 124.975 201.121 121.017 198.917C116.124 196.162 110.213 200.27 111.783 207.267C112.763 211.34 114.724 215.111 117.494 218.255C114.655 220.342 111.849 222.479 109.144 224.717C107.157 226.387 105.203 228.057 103.283 229.86C104.119 228.313 104.866 226.718 105.52 225.084C107.09 220.926 107.491 216.735 103.517 214.531C98.6237 211.775 92.7123 215.883 94.282 222.88C95.2139 226.734 97.0194 230.322 99.5589 233.367C94.1504 238.742 89.2791 244.631 85.014 250.951C85.4982 249.128 85.8664 247.277 86.1162 245.407C86.6505 240.999 86.016 236.857 81.6241 235.655C76.2136 234.169 71.4711 239.579 74.694 246.025C76.548 249.573 79.2004 252.643 82.4424 254.992C78.2358 261.863 74.7229 269.135 71.9554 276.701C71.8831 275.119 71.7271 273.541 71.4878 271.975C70.7364 267.583 68.9663 263.793 64.4074 263.876C58.7966 263.993 55.774 270.556 60.7002 275.799C63.3274 278.538 66.534 280.655 70.0851 281.995C68.1859 287.835 66.6412 293.786 65.4595 299.813C65.2591 300.764 65.1088 301.716 64.9251 302.668C64.7247 302.852 64.5243 303.035 64.3406 303.236C64.1402 302.418 63.9065 301.566 63.6393 300.781C62.2365 296.573 59.8987 293.083 55.4067 293.884C49.896 294.853 47.9088 301.766 53.5865 306.225C56.472 308.428 59.7982 309.982 63.3387 310.784C63.3387 310.951 63.4723 311.101 63.5558 311.268C62.9379 315.794 62.4703 320.352 62.1865 324.928C61.9694 328.268 61.8525 331.758 61.7857 335.181C57.0098 335.181 53.6366 340.425 56.9263 346.102C58.3144 348.456 60.0932 350.557 62.1865 352.314C62.5872 358.743 63.2218 365.173 64.0734 371.552C63.3981 370.927 62.5717 370.489 61.6757 370.281C60.7796 370.073 59.8449 370.103 58.9635 370.366C55.9577 371.184 54.6051 373.606 54.1208 376.578C53.0512 377.685 52.4526 379.163 52.4509 380.703C50.2133 377.363 48.0925 374.023 46.0385 370.499C49.1739 368.096 51.7732 365.064 53.67 361.599C57.2603 354.919 53.2024 349.058 47.9756 350.477C43.7006 351.646 42.7655 355.988 42.9659 360.647C43.0327 362.414 43.1999 364.176 43.4669 365.924L41.2626 362.05C39.4257 358.71 37.9228 355.37 36.1193 352.03C35.6851 351.212 35.301 350.36 34.9504 349.526C38.4685 347.753 41.5792 345.268 44.0847 342.228C48.8773 336.317 45.9884 329.821 40.5779 330.238C36.1694 330.589 34.416 334.68 33.6812 339.289C33.3949 341.299 33.2165 343.322 33.1469 345.351L31.5772 341.727C28.2339 333.507 25.4827 325.058 23.3445 316.445C27.3267 315.034 30.9437 312.752 33.9317 309.765C39.2921 304.338 37.0711 297.608 31.644 297.475C27.2354 297.375 25.0812 301.265 23.8789 305.824C23.2896 308.244 22.8491 310.698 22.5597 313.172C21.3908 308.229 20.3888 303.219 19.5539 298.143C18.9861 295.037 18.6187 291.881 18.2346 288.741C22.5149 287.893 26.5463 286.083 30.0241 283.448C36.0358 278.772 34.7166 271.758 29.3395 270.973C24.981 270.289 22.3426 273.879 20.5725 278.204C19.5362 280.932 18.6662 283.72 17.9675 286.554C17.6335 282.913 17.2494 279.256 17.0824 275.599C16.5815 268.048 16.5815 260.473 17.0824 252.922C16.3201 260.466 16.0579 268.053 16.2976 275.632C16.2976 279.122 16.5981 282.596 16.8152 286.086C15.8612 283.713 14.7453 281.409 13.4754 279.189C11.2044 275.365 8.16513 272.51 3.95698 274.18C-1.23642 276.317 -1.68729 283.498 4.82533 286.637C8.64508 288.392 12.8351 289.188 17.0323 288.958C17.3329 292.081 17.6001 295.187 18.0676 298.276C18.7189 303.286 19.5539 308.095 20.5391 312.955C19.4705 311.093 18.2824 309.302 16.9822 307.594C14.2269 304.104 10.8537 301.633 6.9628 303.887C2.10338 306.676 2.57096 313.907 9.43426 316.127C13.3179 317.334 17.4313 317.609 21.4409 316.929C23.3461 325.636 25.8513 334.201 28.9387 342.562L29.924 345.067C29.0404 343.897 28.0869 342.782 27.0684 341.727C23.9791 338.521 20.3888 336.4 16.6649 339.055C12.1061 342.395 13.3251 349.409 20.3387 350.978C24.2095 351.762 28.2083 351.648 32.028 350.644C32.3787 351.496 32.7294 352.314 33.1469 353.183C34.8168 356.623 36.303 360.146 38.0564 363.519L39.5092 366.442C38.6408 365.69 37.7391 364.972 36.8039 364.304C33.1636 361.749 29.2226 360.347 26.0832 363.636C22.209 367.694 24.7139 374.44 31.9278 374.658C35.6835 374.745 39.4123 374.004 42.849 372.487C44.9197 376.227 47.0404 379.918 49.3449 383.541C50.1966 384.927 51.0148 386.297 51.9834 387.666C50.6733 386.468 49.2902 385.353 47.842 384.326C44.2016 381.771 40.2606 380.369 37.1045 383.658C33.2471 387.716 35.7519 394.463 42.9659 394.68C47.089 394.729 51.1647 393.796 54.8556 391.958C56.0579 393.628 57.2937 395.298 58.5628 396.967C55.8742 400.09 56.7593 405.317 62.2199 407.705C64.872 408.81 67.6987 409.438 70.5694 409.559C70.9033 409.826 71.2373 410.093 71.6047 410.343L71.7717 410.477C75.2228 423.369 79.3141 436.071 84.0455 448.584C86.0494 453.911 88.2035 459.188 90.4245 464.431H70.3857V543.451H131.621V464.365H99.0245C96.2358 458.27 93.5472 452.108 91.0424 445.879C86.9511 435.659 83.2439 425.272 80.021 414.735C80.5694 414.897 81.1271 415.025 81.6909 415.119C82.4326 415.27 83.1932 415.303 83.9453 415.219L83.0769 409.726H82.4925C82.1442 409.676 81.7986 409.609 81.4571 409.525C80.6857 409.304 79.9321 409.025 79.2028 408.69L78.3344 408.289C81.5572 407.166 84.5501 405.469 87.1682 403.28C92.9627 398.27 91.3262 391.423 85.9158 390.839C81.5406 390.355 79.0692 394.062 77.5663 398.454C77.1154 399.706 76.748 401.009 76.4307 402.278C76.1134 401.109 75.7962 399.94 75.4956 398.771C74.6105 395.314 73.8257 391.824 73.0241 388.334C76.5217 387.243 79.7721 385.479 82.5927 383.141C88.3872 378.131 86.734 371.301 81.3402 370.717C76.9484 370.232 74.4936 373.939 72.9907 378.331C72.5399 379.6 72.1558 380.92 71.8218 382.222C71.3208 379.684 70.8365 377.129 70.3857 374.574C70.0684 372.687 69.7678 370.783 69.4839 368.88C69.3837 366.174 69.3336 363.469 69.367 360.747C69.367 359.261 69.367 357.775 69.5006 356.289C72.7746 357.323 76.2083 357.759 79.6369 357.574C87.2517 357.073 90.0571 350.561 86.0827 346.87C82.8431 343.848 78.6517 345.351 74.7608 347.922C73.016 349.108 71.3431 350.396 69.7511 351.78C70.22 345.424 71.186 339.115 72.64 332.91C73.4922 329.255 74.5572 325.653 75.8296 322.122C79.3212 323.326 83.0128 323.842 86.7006 323.642C94.3154 323.158 97.1208 316.645 93.1464 312.938C89.9235 309.932 85.7154 311.418 81.8245 314.007C80.4663 314.94 79.1617 315.949 77.9169 317.029C79.3853 313.575 81.0927 310.227 83.0268 307.01C86.8624 300.519 91.6721 294.656 97.2878 289.626C100.198 292.311 103.64 294.353 107.391 295.621C114.638 297.992 119.664 292.983 117.41 288.073C115.523 284.082 111.081 283.898 106.506 284.85C104.742 285.227 103.003 285.706 101.296 286.286L101.412 286.186C107.644 281.324 114.359 277.116 121.451 273.628C123.954 276.905 127.132 279.604 130.769 281.544C137.549 285.034 143.31 280.893 141.807 275.682C140.588 271.441 136.23 270.556 131.571 270.673C129.741 270.772 127.918 270.973 126.11 271.274C133.642 267.717 141.323 264.361 148.737 260.436H148.904C152.224 263.302 156.162 265.36 160.41 266.448C167.808 268.285 172.45 262.908 169.778 258.098C167.607 254.258 163.099 254.425 158.673 255.694C157.421 256.061 156.169 256.512 154.95 256.98C159.901 254.102 164.7 250.969 169.327 247.595L169.711 248.012V247.795C173.064 250.686 177.034 252.771 181.317 253.89C188.698 255.71 193.357 250.35 190.685 245.541C188.581 241.917 184.139 242.067 179.647 243.353ZM62.8878 394.663C61.3682 392.893 59.9321 391.039 58.5294 389.169C58.8633 388.868 59.2307 388.534 59.5981 388.167C61.6848 388.817 63.8446 389.204 66.0272 389.319V389.67L67.0459 389.453C67.5802 392.091 68.1313 394.713 68.7158 397.335C68.0372 396.447 67.1509 395.738 66.1348 395.273C65.1187 394.807 64.0037 394.597 62.8878 394.663ZM68.3317 331.791C67.814 333.762 67.3799 335.732 66.9624 337.719L66.7119 337.369C66.7119 333.294 66.7731 329.231 66.8956 325.178C67.0125 322.34 67.2129 319.517 67.4633 316.679C68.8373 318.078 70.3477 319.337 71.9721 320.436C70.5587 324.152 69.349 327.943 68.3484 331.791H68.3317ZM75.1783 313.088C75.2785 312.354 75.362 311.602 75.3954 310.867V309.748C75.9965 309.565 76.6144 309.348 77.2156 309.097C76.5476 310.416 75.8463 311.752 75.195 313.088H75.1783ZM83.8785 298.978C83.59 298.317 83.1703 297.722 82.6451 297.228C82.1198 296.734 81.4998 296.352 80.8226 296.105C76.6979 294.435 73.3581 297.441 70.703 301.282L70.5694 301.466H70.3022C70.0222 301.402 69.7372 301.363 69.4505 301.349C69.4308 301.114 69.471 300.879 69.5674 300.664C70.6247 294.632 72.0524 288.67 73.8424 282.813C77.6758 283.3 81.5682 282.998 85.2812 281.928C87.5752 281.325 89.5704 279.906 90.8921 277.937C91.627 281.304 93.0296 284.489 95.0167 287.305C90.9085 290.799 87.1807 294.717 83.8952 298.994L83.8785 298.978Z" fill="white"/>
<path d="M591.395 470.593C591.395 470.593 583.313 452.542 581.376 450.688C579.439 448.835 563.959 443.224 559.667 428.979C555.375 414.735 547.226 376.712 567.766 379.2C588.306 381.688 583.313 421.515 590.777 420.263C598.242 419.01 584.565 355.571 597.624 346.787C610.683 338.003 631.84 346.169 629.352 379.767C626.864 413.366 621.888 432.637 626.246 430.783C630.604 428.929 643.045 422.066 643.045 436.377C643.045 450.688 631.222 460.641 624.376 461.259C617.529 461.877 614.356 462.511 614.356 462.511V471.829L591.395 470.593Z" fill="#2E353A" stroke="#2E353A" stroke-linecap="round" stroke-linejoin="round"/>
<path d="M584.815 435.609C580.123 431.167 575.815 426.859 573.827 422.901C569.887 415.002 566.914 392.843 566.914 392.843" stroke="white" stroke-width="0.5" stroke-linecap="round" stroke-linejoin="round"/>
<path d="M559.917 403.664C563.023 416.606 563.458 426.358 572.843 437.713C577.852 443.859 591.111 449.069 592.597 454.496C593.927 461.026 594.925 467.62 595.587 474.251L603.001 474.752C603.001 474.752 604.504 461.894 600.262 452.726" stroke="white" stroke-width="0.5" stroke-linecap="round" stroke-linejoin="round"/>
<path d="M561.988 382.907C561.988 382.907 556.444 387.166 558.414 397.652" stroke="white" stroke-width="0.5" stroke-linecap="round" stroke-linejoin="round"/>
<path d="M597.507 421.098L594.568 425.857" stroke="white" stroke-width="0.5" stroke-linecap="round" stroke-linejoin="round"/>
<path d="M598.526 419.444L597.507 421.098" stroke="white" stroke-width="0.5" stroke-linecap="round" stroke-linejoin="round"/>
<path d="M608.394 348.34C608.394 348.34 597.039 347.856 597.039 358.71C597.039 367.878 599.845 399.172 599.243 413.483" stroke="white" stroke-width="0.5" stroke-linecap="round" stroke-linejoin="round"/>
<path d="M617.295 437.262C617.028 440.986 616.861 443.625 616.861 444.627C616.861 450.054 630.671 429.313 637.1 428.829C637.1 428.829 643.512 428.328 641.041 440.185C640.142 444.586 638.059 448.658 635.016 451.963C631.973 455.267 628.086 457.679 623.774 458.938C618.33 460.424 613.888 457.952 612.903 460.424C612.117 463.329 611.619 466.305 611.417 469.308" stroke="white" stroke-width="0.5" stroke-linecap="round" stroke-linejoin="round"/>
<path d="M620.518 358.644C621.377 362.225 621.781 365.899 621.721 369.581C621.721 381.137 619.516 408.39 618.047 426.792" stroke="white" stroke-width="0.5" stroke-linecap="round" stroke-linejoin="round"/>
<path d="M614.807 349.342C616.29 350.192 617.492 351.457 618.264 352.982" stroke="white" stroke-width="0.5" stroke-linecap="round" stroke-linejoin="round"/>
<path d="M606.775 434.257L606.424 441.17" stroke="white" stroke-width="0.5" stroke-linecap="round" stroke-linejoin="round"/>
<path d="M609.38 355.253C609.38 355.253 606.424 356.238 607.409 366.608C608.228 375.175 607.409 414.067 607.025 427.343" stroke="white" stroke-width="0.5" stroke-linecap="round" stroke-linejoin="round"/>
<path d="M640.49 431.785C636.255 439.71 629.472 445.976 621.236 449.57C607.877 454.997 607.409 452.525 607.409 457.919C607.409 463.313 606.908 473.232 606.908 473.232" stroke="white" stroke-width="0.5" stroke-linecap="round" stroke-linejoin="round"/>
<path d="M621.971 543.401H578.82L569.586 480.896H631.205L621.971 543.401Z" fill="#9468B4" stroke="#2E353A" stroke-linecap="round" stroke-linejoin="round"/>
<path d="M636.499 471.045H564.292V487.777H636.499V471.045Z" fill="#9468B4" stroke="#2E353A" stroke-linecap="round" stroke-linejoin="round"/>
<path d="M385.045 501.319V467.387H285.118V501.319C285.102 512.372 281.36 523.097 274.498 531.761L270.123 537.272H400.041L395.666 531.761C388.803 523.097 385.061 512.372 385.045 501.319Z" fill="white" stroke="#2E353A" stroke-linecap="round" stroke-linejoin="round"/>
<path d="M278.973 525.082H391.191C387.162 517.81 385.047 509.633 385.045 501.319V467.387H285.118V501.319C285.116 509.633 283.002 517.81 278.973 525.082Z" fill="#9468B4"/>
<path d="M521.727 176.857H148.42C140.599 176.857 134.259 183.197 134.259 191.018V463.93C134.259 471.751 140.599 478.091 148.42 478.091H521.727C529.547 478.091 535.887 471.751 535.887 463.93V191.018C535.887 183.197 529.547 176.857 521.727 176.857Z" fill="#2E353A" stroke="#2E353A" stroke-linecap="round" stroke-linejoin="round"/>
<path d="M134.259 431.268H535.904V463.914C535.904 467.67 534.412 471.272 531.756 473.927C529.101 476.583 525.499 478.075 521.743 478.075H148.437C144.681 478.075 141.079 476.583 138.424 473.927C135.768 471.272 134.276 467.67 134.276 463.914V431.268H134.259Z" fill="white" stroke="#2E353A" stroke-linecap="round" stroke-linejoin="round"/>
<path d="M515.698 195.61H154.465V408.423H515.698V195.61Z" fill="white" stroke="#2E353A" stroke-linecap="round" stroke-linejoin="round"/>
<path d="M342.496 454.679C342.496 453.213 342.061 451.779 341.247 450.56C340.432 449.341 339.274 448.39 337.919 447.829C336.564 447.268 335.074 447.121 333.635 447.407C332.197 447.693 330.876 448.399 329.839 449.436C328.802 450.473 328.096 451.794 327.81 453.233C327.524 454.671 327.671 456.162 328.232 457.516C328.793 458.871 329.743 460.029 330.963 460.844C332.182 461.659 333.615 462.093 335.082 462.093C337.048 462.093 338.934 461.312 340.325 459.922C341.715 458.531 342.496 456.645 342.496 454.679Z" fill="#2E353A" stroke="#2E353A" stroke-linecap="round" stroke-linejoin="round"/>
<path d="M400.058 537.339H270.123V543.401H400.058V537.339Z" fill="white" stroke="#2E353A" stroke-linecap="round" stroke-linejoin="round"/>
<path d="M512.308 210.605H157.304V229.258H512.308V210.605Z" fill="white" stroke="#2E353A" stroke-linecap="round" stroke-linejoin="round"/>
<path d="M215.884 229.259L211.626 217.736H157.304V229.259V244.538V399.355H512.308V229.259H215.884Z" fill="#9468B4" stroke="#2E353A" stroke-linecap="round" stroke-linejoin="round"/>
<path d="M252.855 313.605H419.311" stroke="#2E353A" stroke-width="2" stroke-linecap="round" stroke-linejoin="round"/>
<path d="M252.855 329.971H419.311" stroke="#2E353A" stroke-width="2" stroke-linecap="round" stroke-linejoin="round"/>
<path d="M252.855 346.336H419.311" stroke="#2E353A" stroke-width="2" stroke-linecap="round" stroke-linejoin="round"/>
<path d="M252.855 362.718H419.311" stroke="#2E353A" stroke-width="2" stroke-linecap="round" stroke-linejoin="round"/>
<path d="M410.511 269.971H259.669C258.116 269.973 256.578 269.67 255.143 269.077C253.708 268.485 252.403 267.616 251.304 266.52C250.204 265.424 249.332 264.122 248.735 262.688C248.139 261.254 247.831 259.717 247.829 258.165C247.827 256.612 248.131 255.074 248.723 253.639C249.315 252.204 250.184 250.899 251.28 249.8C252.376 248.7 253.679 247.828 255.112 247.232C256.546 246.635 258.083 246.327 259.635 246.325H410.511C412.066 246.323 413.607 246.628 415.044 247.222C416.482 247.816 417.788 248.688 418.888 249.788C419.988 250.888 420.86 252.194 421.454 253.631C422.048 255.069 422.353 256.609 422.351 258.165C422.348 259.717 422.04 261.254 421.444 262.688C420.848 264.122 419.975 265.424 418.876 266.52C417.777 267.616 416.472 268.485 415.037 269.077C413.601 269.67 412.064 269.973 410.511 269.971Z" fill="white" stroke="#2E353A" stroke-linecap="round" stroke-linejoin="round"/>
<path d="M410.511 269.971H389.904V246.292H410.511C412.066 246.29 413.607 246.595 415.044 247.189C416.482 247.783 417.788 248.655 418.888 249.755C419.987 250.855 420.86 252.161 421.454 253.598C422.048 255.036 422.353 256.576 422.351 258.132C422.353 259.687 422.048 261.228 421.454 262.665C420.86 264.102 419.987 265.409 418.888 266.508C417.788 267.608 416.482 268.48 415.044 269.074C413.607 269.669 412.066 269.973 410.511 269.971Z" fill="#2E353A" stroke="#2E353A" stroke-linecap="round" stroke-linejoin="round"/>
<path d="M405.919 249.298C404.938 248.378 403.706 247.771 402.38 247.552C401.053 247.333 399.691 247.512 398.467 248.067C397.242 248.622 396.21 249.528 395.5 250.67C394.79 251.811 394.435 253.138 394.479 254.482C394.524 255.826 394.966 257.126 395.749 258.219C396.533 259.311 397.623 260.147 398.881 260.62C400.14 261.093 401.511 261.182 402.82 260.875C404.129 260.569 405.318 259.882 406.236 258.9C406.848 258.252 407.326 257.489 407.642 256.656C407.958 255.823 408.107 254.935 408.079 254.045C408.051 253.154 407.847 252.277 407.479 251.466C407.111 250.654 406.587 249.923 405.936 249.314L405.919 249.298ZM405.251 257.981C404.513 258.764 403.561 259.311 402.513 259.553C401.465 259.795 400.369 259.721 399.363 259.34C398.357 258.96 397.486 258.29 396.861 257.415C396.235 256.54 395.882 255.5 395.847 254.425C395.813 253.35 396.097 252.289 396.664 251.375C397.232 250.462 398.057 249.737 399.037 249.292C400.016 248.847 401.105 248.702 402.166 248.876C403.228 249.049 404.214 249.533 405 250.266C406.056 251.256 406.676 252.625 406.723 254.072C406.77 255.518 406.24 256.925 405.251 257.981Z" fill="white"/>
<path d="M411.029 261.371C410.88 261.225 410.692 261.126 410.487 261.084C410.283 261.043 410.071 261.061 409.877 261.137L407.422 258.833C407.297 258.71 407.129 258.642 406.954 258.642C406.78 258.642 406.612 258.71 406.487 258.833L406.27 259.066C406.15 259.196 406.083 259.366 406.083 259.542C406.083 259.719 406.15 259.889 406.27 260.018L408.691 262.289C408.619 262.496 408.608 262.719 408.658 262.932C408.709 263.145 408.818 263.339 408.975 263.492L413.15 267.583C413.425 267.856 413.797 268.009 414.185 268.009C414.573 268.009 414.945 267.856 415.22 267.583C415.494 267.308 415.647 266.935 415.647 266.547C415.647 266.16 415.494 265.787 415.22 265.512L411.029 261.371Z" fill="white"/>
<path d="M454.145 341.394C454.633 342.603 455.359 343.703 456.28 344.626C457.201 345.55 458.298 346.279 459.506 346.771C461.393 347.539 463.914 347.372 466.82 349.008C473.383 352.699 489.764 349.409 501.637 350.678C513.51 351.947 529.508 338.805 529.508 338.805L576.616 341.394V294.636C576.616 294.636 527.454 296.69 516.8 292.582C506.146 288.474 494.273 279.891 488.946 280.292C483.619 280.693 439.784 285.619 439.784 285.619L454.129 341.394H454.145Z" fill="white" stroke="#2E353A" stroke-linecap="round" stroke-linejoin="round"/>
<path d="M441.955 152.861C432.229 153.937 423.04 157.874 415.55 164.173C408.061 170.472 402.608 178.851 399.881 188.249C397.153 197.647 397.274 207.643 400.227 216.973C403.181 226.303 408.835 234.547 416.474 240.663C424.113 246.78 433.394 250.494 443.144 251.335C452.894 252.177 462.674 250.108 471.249 245.391C479.823 240.674 486.806 233.521 491.314 224.835C495.823 216.149 497.655 206.322 496.578 196.595C495.867 190.135 493.89 183.879 490.759 178.184C487.629 172.488 483.406 167.466 478.333 163.404C473.26 159.342 467.436 156.321 461.194 154.511C454.952 152.702 448.414 152.141 441.955 152.861ZM451.774 241.499C443.972 242.366 436.087 240.899 429.118 237.285C422.149 233.671 416.408 228.072 412.621 221.195C408.834 214.318 407.172 206.472 407.844 198.651C408.516 190.829 411.492 183.382 416.396 177.252C421.3 171.121 427.912 166.583 435.396 164.21C442.879 161.838 450.898 161.738 458.439 163.923C465.979 166.108 472.702 170.479 477.758 176.485C482.814 182.491 485.975 189.861 486.842 197.664C487.418 202.845 486.968 208.088 485.517 213.095C484.066 218.102 481.643 222.774 478.387 226.844C475.131 230.915 471.104 234.304 466.538 236.819C461.972 239.333 456.955 240.923 451.774 241.499Z" fill="white" stroke="#2E353A" stroke-linecap="round" stroke-linejoin="round"/>
<path d="M441.688 150.039C431.961 151.116 422.772 155.052 415.283 161.352C407.794 167.651 402.34 176.029 399.613 185.427C396.885 194.826 397.006 204.822 399.96 214.151C402.913 223.481 408.567 231.726 416.206 237.842C423.845 243.958 433.127 247.672 442.877 248.514C452.626 249.355 462.407 247.287 470.981 242.57C479.555 237.853 486.538 230.699 491.047 222.014C495.555 213.328 497.387 203.5 496.31 193.774C494.862 180.733 488.295 168.8 478.052 160.599C467.81 152.398 454.73 148.6 441.688 150.039ZM451.507 238.677C443.704 239.544 435.82 238.078 428.851 234.464C421.881 230.85 416.14 225.25 412.354 218.373C408.567 211.496 406.904 203.651 407.576 195.829C408.248 188.007 411.224 180.56 416.129 174.43C421.033 168.3 427.645 163.762 435.128 161.389C442.612 159.016 450.631 158.916 458.171 161.101C465.712 163.286 472.435 167.658 477.491 173.664C482.546 179.67 485.708 187.04 486.575 194.843C487.151 200.023 486.7 205.267 485.249 210.274C483.799 215.28 481.376 219.952 478.12 224.023C474.863 228.093 470.837 231.483 466.271 233.997C461.704 236.511 456.688 238.102 451.507 238.677Z" fill="white" stroke="#2E353A" stroke-linecap="round" stroke-linejoin="round"/>
<path d="M454.205 249.315L451.865 249.574C449.225 249.866 447.322 252.244 447.614 254.884L451.412 289.174C451.705 291.814 454.082 293.717 456.722 293.425L459.062 293.166C461.702 292.873 463.605 290.496 463.313 287.856L459.515 253.566C459.222 250.926 456.845 249.023 454.205 249.315Z" fill="#9468B4" stroke="#2E353A" stroke-linecap="round" stroke-linejoin="round"/>
<path d="M453.444 277.937L458.454 277.402C460.609 277.172 462.767 277.8 464.461 279.15C466.156 280.501 467.249 282.465 467.505 284.616L475.003 352.431C475.308 355.203 474.499 357.983 472.755 360.159C471.011 362.336 468.474 363.73 465.702 364.037H465.368C463.994 364.19 462.605 364.071 461.278 363.686C459.951 363.301 458.713 362.658 457.635 361.794C456.557 360.93 455.66 359.862 454.995 358.651C454.33 357.439 453.911 356.109 453.762 354.735L446.264 286.937C446.143 285.864 446.235 284.777 446.535 283.739C446.835 282.701 447.337 281.732 448.012 280.889C448.686 280.045 449.521 279.342 450.467 278.821C451.414 278.301 452.454 277.972 453.528 277.853L453.444 277.937Z" fill="#2E353A" stroke="#2E353A" stroke-linecap="round" stroke-linejoin="round"/>
<path d="M460.725 334.446C460.725 334.446 448.852 334.88 447.182 336.934C445.512 338.988 445.813 346.136 449.036 346.954C457.252 349.108 474.719 347.856 475.404 346.386C476.088 344.917 477.491 336.367 473.884 335.448C469.53 334.781 465.131 334.446 460.725 334.446Z" fill="white" stroke="#2E353A" stroke-linecap="round" stroke-linejoin="round"/>
<path d="M457.302 317.881C457.302 317.881 443.492 317.363 441.337 319.851C439.183 322.339 438.766 331.641 442.406 333.043C451.691 336.6 472.581 335.214 473.533 333.377C474.485 331.54 476.556 322.005 472.464 320.469C468.373 318.933 457.302 317.881 457.302 317.881Z" fill="white" stroke="#2E353A" stroke-linecap="round" stroke-linejoin="round"/>
<path d="M455.314 299.177C455.314 299.177 440.552 298.61 438.248 301.282C435.944 303.953 435.493 313.873 439.384 315.376C449.403 319.183 471.112 319.183 472.13 317.212C473.149 315.242 475.888 303.586 471.512 301.933C467.137 300.28 455.314 299.177 455.314 299.177Z" fill="white" stroke="#2E353A" stroke-linecap="round" stroke-linejoin="round"/>
<path d="M446.798 281.677C446.798 281.677 432.036 281.126 429.731 283.781C427.427 286.437 426.876 296.673 430.867 297.875C434.858 299.078 462.595 301.683 463.614 299.729C464.632 297.775 467.371 286.086 462.996 284.433C458.621 282.779 446.798 281.677 446.798 281.677Z" fill="white" stroke="#2E353A" stroke-linecap="round" stroke-linejoin="round"/>
<path d="M495.142 330.789C492.492 330.06 489.981 328.898 487.711 327.349C475.838 319.15 476.239 300.313 476.239 300.313L473.383 299.495C471.024 298.597 468.813 297.354 466.82 295.804C467.777 299.695 468.336 303.673 468.49 307.677C468.447 309.878 467.588 311.984 466.079 313.585C464.569 315.187 462.518 316.17 460.324 316.344C456.634 316.762 454.997 317.162 453.762 312.253C452.526 307.343 446.397 287.672 445.98 284.8C445.613 282.195 449.988 277.552 456.951 276.45C467.655 277.319 478.209 280.308 488.997 280.308C492.75 280.66 496.347 281.984 499.434 284.148" fill="white"/>
<path d="M495.142 330.789C492.492 330.06 489.981 328.898 487.711 327.349C475.838 319.15 476.239 300.313 476.239 300.313L473.383 299.495C471.024 298.597 468.813 297.354 466.82 295.804C467.777 299.695 468.336 303.673 468.49 307.677C468.447 309.878 467.588 311.984 466.079 313.585C464.569 315.187 462.518 316.17 460.324 316.344C456.634 316.762 454.997 317.162 453.762 312.253C452.526 307.343 446.397 287.672 445.98 284.8C445.613 282.195 449.988 277.552 456.951 276.45C467.655 277.319 478.209 280.308 488.997 280.308C492.75 280.66 496.347 281.984 499.434 284.148" stroke="#2E353A" stroke-linecap="round" stroke-linejoin="round"/>
<path d="M506.43 331.825C505.128 331.892 503.824 331.892 502.522 331.825H506.43Z" fill="white"/>
<path d="M506.43 331.825C505.128 331.892 503.824 331.892 502.522 331.825" stroke="#2E353A" stroke-linecap="round" stroke-linejoin="round"/>
<path d="M515.164 330.204C512.328 331.101 509.397 331.662 506.43 331.874L515.164 330.204Z" fill="white"/>
<path d="M515.164 330.204C512.328 331.101 509.397 331.662 506.43 331.874" stroke="#2E353A" stroke-linecap="round" stroke-linejoin="round"/>
<path d="M529.909 324.895H544.654" stroke="#2E353A" stroke-linecap="round" stroke-linejoin="round"/>
<path d="M531.145 328.985H537.29" stroke="#2E353A" stroke-linecap="round" stroke-linejoin="round"/>
<path d="M476.238 300.314C476.238 300.314 484.387 300.314 489.731 295.454" stroke="#2E353A" stroke-linecap="round" stroke-linejoin="round"/>
<path d="M466.636 295.271C466.402 293.047 465.937 290.853 465.25 288.725" stroke="#2E353A" stroke-linecap="round" stroke-linejoin="round"/>
<path d="M453.644 310.099C453.644 310.099 452.091 305.79 453.978 304.237C455.865 302.684 460.875 300.447 461.743 302.167C462.612 303.887 464.499 311.819 463.981 313.372L463.463 314.925" stroke="#2E353A" stroke-width="0.5" stroke-linecap="round" stroke-linejoin="round"/>
<path d="M680 362.35H538.81V292.949H680" fill="#9468B4"/>
<path d="M680 362.35H538.81V292.949H680" stroke="#2E353A" stroke-linecap="round" stroke-linejoin="round"/>
<path d="M549.163 357.708C550.915 357.708 552.336 356.287 552.336 354.535C552.336 352.783 550.915 351.362 549.163 351.362C547.411 351.362 545.99 352.783 545.99 354.535C545.99 356.287 547.411 357.708 549.163 357.708Z" fill="white" stroke="#2E353A" stroke-linecap="round" stroke-linejoin="round"/>
<path d="M324.778 226.854C325.988 226.367 327.087 225.641 328.011 224.72C328.934 223.799 329.664 222.702 330.155 221.494C330.923 219.607 330.74 217.102 332.393 214.18C336.067 207.634 332.794 191.252 334.063 179.362C335.332 167.473 322.173 151.508 322.173 151.508L324.728 104.4H277.971C277.971 104.4 280.008 153.562 275.917 164.2C271.826 174.837 263.226 186.743 263.626 192.07C264.027 197.397 268.987 241.199 268.987 241.199L324.695 226.854H324.778Z" fill="white" stroke="#2E353A" stroke-linecap="round" stroke-linejoin="round"/>
<path d="M136.363 239.011C137.433 248.739 141.363 257.931 147.657 265.425C153.951 272.919 162.325 278.379 171.722 281.113C181.119 283.847 191.115 283.734 200.447 280.786C209.779 277.839 218.028 272.191 224.15 264.555C230.271 256.92 233.991 247.641 234.839 237.891C235.687 228.142 233.625 218.36 228.913 209.782C224.202 201.205 217.052 194.217 208.369 189.703C199.686 185.189 189.859 183.351 180.131 184.422H180.015C166.993 185.887 155.084 192.457 146.901 202.691C138.718 212.925 134.928 225.987 136.363 239.011ZM224.868 229.176C225.738 236.981 224.274 244.869 220.66 251.842C217.047 258.816 211.447 264.561 204.569 268.352C197.691 272.142 189.843 273.808 182.018 273.139C174.192 272.47 166.741 269.495 160.607 264.591C154.472 259.687 149.93 253.074 147.553 245.588C145.177 238.103 145.074 230.081 147.256 222.536C149.439 214.992 153.81 208.264 159.816 203.204C165.823 198.144 173.194 194.978 181 194.108C191.467 192.945 201.967 195.985 210.193 202.561C218.419 209.137 223.697 218.71 224.868 229.176Z" fill="white" stroke="#2E353A" stroke-linecap="round" stroke-linejoin="round"/>
<path d="M133.474 239.312C134.554 249.033 138.491 258.217 144.789 265.701C151.087 273.185 159.463 278.633 168.857 281.358C178.251 284.083 188.242 283.961 197.567 281.008C206.892 278.055 215.132 272.403 221.246 264.768C227.359 257.133 231.072 247.856 231.914 238.111C232.756 228.366 230.689 218.59 225.976 210.019C221.263 201.448 214.114 194.467 205.434 189.959C196.754 185.45 186.932 183.616 177.209 184.689C170.75 185.402 164.495 187.381 158.801 190.512C153.107 193.643 148.085 197.866 144.024 202.938C139.962 208.011 136.94 213.834 135.13 220.075C133.32 226.316 132.757 232.853 133.474 239.312ZM222.113 229.509C222.98 237.312 221.513 245.196 217.899 252.166C214.285 259.135 208.686 264.876 201.809 268.663C194.932 272.449 187.086 274.112 179.265 273.44C171.443 272.768 163.996 269.792 157.866 264.888C151.735 259.983 147.197 253.371 144.824 245.888C142.452 238.404 142.352 230.385 144.537 222.845C146.722 215.305 151.093 208.581 157.099 203.526C163.105 198.47 170.475 195.308 178.278 194.441C183.459 193.866 188.702 194.316 193.709 195.767C198.716 197.217 203.388 199.64 207.458 202.897C211.529 206.153 214.918 210.179 217.432 214.745C219.947 219.312 221.537 224.328 222.113 229.509Z" fill="white" stroke="#2E353A" stroke-linecap="round" stroke-linejoin="round"/>
<path d="M271.303 217.713L237.013 221.511C234.373 221.803 232.469 224.18 232.762 226.82L233.021 229.16C233.313 231.8 235.691 233.703 238.331 233.411L272.621 229.613C275.261 229.321 277.164 226.944 276.872 224.304L276.613 221.963C276.32 219.323 273.943 217.42 271.303 217.713Z" fill="#9468B4" stroke="#2E353A" stroke-linecap="round" stroke-linejoin="round"/>
<path d="M261.372 227.572L260.821 222.563C260.582 220.393 261.215 218.216 262.58 216.513C263.946 214.809 265.932 213.718 268.102 213.478L335.9 205.981C337.279 205.82 338.676 205.934 340.01 206.315C341.345 206.696 342.591 207.338 343.678 208.202C344.764 209.066 345.668 210.137 346.34 211.352C347.011 212.567 347.436 213.902 347.589 215.282V215.616C347.749 216.995 347.636 218.392 347.255 219.726C346.873 221.061 346.232 222.308 345.368 223.394C344.503 224.48 343.433 225.385 342.218 226.056C341.003 226.727 339.667 227.152 338.288 227.305L270.49 234.803C268.323 235.048 266.147 234.424 264.439 233.069C262.73 231.714 261.628 229.738 261.372 227.572Z" fill="#2E353A" stroke="#2E353A" stroke-linecap="round" stroke-linejoin="round"/>
<path d="M317.865 220.292C317.865 220.292 318.316 232.148 320.353 233.818C322.39 235.488 329.571 235.187 330.372 231.964C332.543 223.765 331.274 206.281 329.805 205.613C328.335 204.945 319.785 203.509 318.883 207.133C318.211 211.487 317.87 215.886 317.865 220.292Z" fill="white" stroke="#2E353A" stroke-linecap="round" stroke-linejoin="round"/>
<path d="M301.316 223.698C301.316 223.698 300.782 237.508 303.27 239.662C305.758 241.816 315.06 242.251 316.462 238.594C320.036 229.309 318.633 208.418 316.796 207.483C314.959 206.548 305.424 204.461 303.888 208.552C302.352 212.643 301.316 223.698 301.316 223.698Z" fill="white" stroke="#2E353A" stroke-linecap="round" stroke-linejoin="round"/>
<path d="M282.613 225.719C282.613 225.719 282.045 240.481 284.7 242.785C287.355 245.09 297.308 245.541 298.811 241.633C302.618 231.714 302.618 209.905 300.648 208.903C298.677 207.901 287.005 205.146 285.368 209.521C283.732 213.896 282.613 225.719 282.613 225.719Z" fill="white" stroke="#2E353A" stroke-linecap="round" stroke-linejoin="round"/>
<path d="M265.113 234.219C265.113 234.219 264.545 248.98 267.217 251.285C269.888 253.589 280.108 254.14 281.311 250.133C282.513 246.125 285.118 218.405 283.147 217.386C281.177 216.367 269.521 213.645 267.868 218.02C266.215 222.396 265.113 234.219 265.113 234.219Z" fill="white" stroke="#2E353A" stroke-linecap="round" stroke-linejoin="round"/>
<path d="M315.243 174.536C315.924 181.114 314.346 187.728 310.768 193.289C302.586 205.179 283.732 204.761 283.732 204.761L282.914 207.634C282.023 209.99 280.779 212.197 279.224 214.18C283.12 213.223 287.104 212.664 291.113 212.51C293.306 212.573 295.398 213.446 296.986 214.96C298.574 216.474 299.545 218.522 299.713 220.709C300.131 224.399 300.532 226.036 295.622 227.255C290.713 228.474 271.041 234.636 268.169 235.053C265.564 235.421 260.921 231.046 259.819 224.082C260.704 213.378 263.694 202.808 263.694 192.037C264.043 188.277 265.367 184.674 267.534 181.583" fill="white"/>
<path d="M315.243 174.536C315.924 181.114 314.346 187.728 310.768 193.289C302.586 205.179 283.732 204.761 283.732 204.761L282.914 207.634C282.023 209.99 280.779 212.197 279.224 214.18C283.12 213.223 287.104 212.664 291.113 212.51C293.306 212.573 295.398 213.446 296.986 214.96C298.574 216.474 299.545 218.522 299.713 220.709C300.131 224.399 300.532 226.036 295.622 227.255C290.713 228.474 271.041 234.636 268.169 235.053C265.564 235.421 260.921 231.046 259.819 224.082C260.704 213.378 263.694 202.808 263.694 192.037C264.043 188.277 265.367 184.674 267.534 181.583" stroke="#2E353A" stroke-linecap="round" stroke-linejoin="round"/>
<path d="M313.64 165.853C314.134 167.415 314.514 169.011 314.776 170.628L313.64 165.853Z" fill="white"/>
<path d="M313.64 165.853C314.134 167.415 314.514 169.011 314.776 170.628" stroke="#2E353A" stroke-linecap="round" stroke-linejoin="round"/>
<path d="M308.313 151.091V136.346" stroke="#2E353A" stroke-linecap="round" stroke-linejoin="round"/>
<path d="M312.404 149.872V143.727" stroke="#2E353A" stroke-linecap="round" stroke-linejoin="round"/>
<path d="M283.732 204.761C283.732 204.761 283.732 196.612 278.873 191.269" stroke="#2E353A" stroke-linecap="round" stroke-linejoin="round"/>
<path d="M278.706 214.38C276.482 214.609 274.289 215.068 272.16 215.749" stroke="#2E353A" stroke-linecap="round" stroke-linejoin="round"/>
<path d="M293.534 227.305C293.534 227.305 289.226 228.858 287.673 226.955C286.12 225.051 283.882 220.058 285.602 219.206C287.322 218.355 295.254 216.451 296.807 216.969L298.36 217.47" stroke="#2E353A" stroke-width="0.5" stroke-linecap="round" stroke-linejoin="round"/>
<path d="M345.786 1V142.19H276.368V1" fill="#9468B4"/>
<path d="M345.786 1V142.19H276.368V1" stroke="#2E353A" stroke-linecap="round" stroke-linejoin="round"/>
<path d="M337.954 135.01C339.706 135.01 341.126 133.589 341.126 131.837C341.126 130.085 339.706 128.664 337.954 128.664C336.201 128.664 334.781 130.085 334.781 131.837C334.781 133.589 336.201 135.01 337.954 135.01Z" fill="white" stroke="#2E353A" stroke-linecap="round" stroke-linejoin="round"/>
<path d="M254.926 478.325C254.441 479.536 253.716 480.637 252.795 481.561C251.874 482.485 250.776 483.213 249.566 483.702C247.679 484.487 245.174 484.303 242.252 485.94C235.706 489.63 219.324 486.357 207.434 487.61C195.545 488.862 179.58 475.737 179.58 475.737L132.422 478.325V431.568C132.422 431.568 181.584 433.622 192.238 429.531C202.892 425.439 214.765 416.823 220.092 417.24C225.419 417.658 269.254 422.567 269.254 422.567L254.926 478.325Z" fill="white" stroke="#2E353A" stroke-linecap="round" stroke-linejoin="round"/>
<path d="M267.033 289.893C276.76 290.97 285.949 294.907 293.438 301.206C300.927 307.505 306.381 315.883 309.108 325.282C311.836 334.68 311.715 344.676 308.761 354.006C305.808 363.335 300.154 371.58 292.515 377.696C284.876 383.813 275.594 387.527 265.845 388.368C256.095 389.21 246.314 387.141 237.74 382.424C229.166 377.707 222.183 370.553 217.674 361.868C213.166 353.182 211.334 343.355 212.411 333.628C213.855 320.59 220.419 308.659 230.659 300.46C240.9 292.261 253.978 288.466 267.017 289.91L267.033 289.893ZM257.214 378.532C265.02 379.401 272.908 377.937 279.881 374.324C286.854 370.711 292.599 365.111 296.39 358.233C300.181 351.354 301.847 343.506 301.178 335.681C300.508 327.856 297.533 320.405 292.63 314.27C287.726 308.136 281.113 303.593 273.627 301.217C266.142 298.84 258.119 298.737 250.575 300.92C243.031 303.103 236.303 307.474 231.243 313.48C226.183 319.486 223.017 326.858 222.146 334.663C220.983 345.13 224.024 355.631 230.6 363.857C237.175 372.083 246.748 377.361 257.214 378.532Z" fill="white" stroke="#2E353A" stroke-linecap="round" stroke-linejoin="round"/>
<path d="M267.333 287.071C277.056 288.151 286.239 292.089 293.723 298.388C301.207 304.687 306.656 313.063 309.38 322.459C312.103 331.854 311.98 341.845 309.026 351.171C306.071 360.496 300.418 368.735 292.781 374.848C285.144 380.96 275.866 384.671 266.12 385.511C256.374 386.351 246.598 384.282 238.028 379.566C229.458 374.85 222.478 367.699 217.972 359.017C213.465 350.335 211.635 340.511 212.711 330.789C213.426 324.331 215.406 318.078 218.538 312.386C221.67 306.693 225.893 301.674 230.966 297.614C236.038 293.554 241.861 290.534 248.101 288.725C254.341 286.916 260.876 286.354 267.333 287.071ZM257.514 375.709C265.32 376.579 273.208 375.115 280.181 371.501C287.154 367.888 292.9 362.288 296.69 355.41C300.481 348.532 302.147 340.684 301.478 332.859C300.808 325.033 297.834 317.582 292.93 311.448C288.026 305.313 281.413 300.771 273.927 298.394C266.442 296.018 258.42 295.915 250.875 298.098C243.331 300.28 236.603 304.651 231.543 310.657C226.483 316.664 223.317 324.036 222.447 331.841C221.288 342.303 224.331 352.797 230.907 361.017C237.483 369.237 247.053 374.509 257.514 375.676V375.709Z" fill="white" stroke="#2E353A" stroke-linecap="round" stroke-linejoin="round"/>
<path d="M249.495 390.599L245.697 424.89C245.405 427.53 247.308 429.907 249.948 430.199L252.288 430.459C254.928 430.751 257.305 428.848 257.598 426.208L261.396 391.917C261.688 389.277 259.785 386.9 257.145 386.608L254.805 386.349C252.165 386.056 249.788 387.959 249.495 390.599Z" fill="#9468B4" stroke="#2E353A" stroke-linecap="round" stroke-linejoin="round"/>
<path d="M243.688 501.136H243.354C241.974 500.984 240.637 500.561 239.421 499.891C238.205 499.22 237.133 498.315 236.269 497.229C235.404 496.142 234.763 494.895 234.383 493.559C234.002 492.223 233.89 490.826 234.053 489.446L241.551 421.648C241.667 420.573 241.995 419.531 242.515 418.583C243.035 417.634 243.737 416.798 244.581 416.121C245.425 415.445 246.394 414.942 247.433 414.641C248.472 414.34 249.56 414.247 250.635 414.368L255.645 414.919C257.815 415.158 259.801 416.249 261.166 417.953C262.532 419.657 263.164 421.833 262.925 424.003L255.428 491.884C255.272 493.263 254.846 494.598 254.174 495.812C253.502 497.026 252.597 498.095 251.512 498.959C250.426 499.823 249.181 500.464 247.847 500.846C246.513 501.229 245.117 501.344 243.738 501.186L243.688 501.136Z" fill="#2E353A" stroke="#2E353A" stroke-linecap="round" stroke-linejoin="round"/>
<path d="M248.246 471.461C248.246 471.461 260.103 471.912 261.773 473.949C263.443 475.986 263.142 483.15 259.919 483.968C251.72 486.139 234.236 484.87 233.568 483.401C232.9 481.931 231.464 473.381 235.088 472.463C239.442 471.796 243.841 471.461 248.246 471.461Z" fill="white" stroke="#2E353A" stroke-linecap="round" stroke-linejoin="round"/>
<path d="M251.72 454.946C251.72 454.946 265.53 454.411 267.684 456.9C269.838 459.388 270.273 468.689 266.616 470.092C257.331 473.649 236.44 472.263 235.505 470.426C234.57 468.589 232.483 459.054 236.574 457.517C240.665 455.981 251.72 454.946 251.72 454.946Z" fill="white" stroke="#2E353A" stroke-linecap="round" stroke-linejoin="round"/>
<path d="M253.741 436.193C253.741 436.193 268.503 435.642 270.807 438.297C273.111 440.952 273.562 450.905 269.671 452.391C259.652 456.215 237.943 456.198 236.925 454.245C235.906 452.291 233.167 440.602 237.543 438.948C241.918 437.295 253.741 436.193 253.741 436.193Z" fill="white" stroke="#2E353A" stroke-linecap="round" stroke-linejoin="round"/>
<path d="M262.241 418.709C262.241 418.709 277.002 418.141 279.307 420.797C281.611 423.452 282.162 433.705 278.155 434.907C274.147 436.11 246.427 438.698 245.408 436.744C244.389 434.79 241.667 423.101 246.042 421.465C250.418 419.828 262.241 418.709 262.241 418.709Z" fill="white" stroke="#2E353A" stroke-linecap="round" stroke-linejoin="round"/>
<path d="M204.829 468.923C210.653 469.152 216.403 467.558 221.278 464.364C233.167 456.165 232.75 437.328 232.75 437.328L235.622 436.51C237.979 435.619 240.186 434.374 242.168 432.819C241.212 436.71 240.652 440.688 240.498 444.692C240.561 446.887 241.434 448.981 242.947 450.571C244.461 452.162 246.509 453.137 248.697 453.309C252.388 453.71 254.024 454.127 255.26 449.201C256.496 444.275 262.624 424.62 263.042 421.765C263.459 418.909 259.034 414.5 252.071 413.415C241.367 414.3 230.796 417.289 220.025 417.289C216.269 417.64 212.667 418.957 209.572 421.113" fill="white"/>
<path d="M204.829 468.923C210.653 469.152 216.403 467.558 221.278 464.364C233.167 456.165 232.75 437.328 232.75 437.328L235.622 436.51C237.979 435.619 240.186 434.374 242.168 432.819C241.212 436.71 240.652 440.688 240.498 444.692C240.561 446.887 241.434 448.981 242.947 450.571C244.461 452.162 246.509 453.137 248.697 453.309C252.388 453.71 254.024 454.127 255.26 449.201C256.496 444.275 262.624 424.62 263.042 421.765C263.459 418.909 259.034 414.5 252.071 413.415C241.367 414.3 230.796 417.289 220.025 417.289C216.269 417.64 212.667 418.957 209.572 421.113" stroke="#2E353A" stroke-linecap="round" stroke-linejoin="round"/>
<path d="M193.875 467.236C196.209 467.954 198.609 468.44 201.038 468.689L193.875 467.236Z" fill="white"/>
<path d="M193.875 467.236C196.209 467.954 198.609 468.44 201.038 468.689" stroke="#2E353A" stroke-linecap="round" stroke-linejoin="round"/>
<path d="M179.113 461.91H164.368" stroke="#2E353A" stroke-linecap="round" stroke-linejoin="round"/>
<path d="M177.894 466.001H171.749" stroke="#2E353A" stroke-linecap="round" stroke-linejoin="round"/>
<path d="M232.783 437.329C232.783 437.329 224.634 437.329 219.291 432.47" stroke="#2E353A" stroke-linecap="round" stroke-linejoin="round"/>
<path d="M242.402 432.286C242.631 430.063 243.09 427.869 243.771 425.74" stroke="#2E353A" stroke-linecap="round" stroke-linejoin="round"/>
<path d="M255.327 447.114C255.327 447.114 256.88 442.806 254.976 441.253C253.072 439.7 248.079 437.462 247.228 439.182C246.376 440.902 244.473 448.851 244.99 450.387L245.508 451.94" stroke="#2E353A" stroke-width="0.5" stroke-linecap="round" stroke-linejoin="round"/>
<path d="M29.022 499.383H170.212V429.965H29.022" fill="#9468B4"/>
<path d="M29.022 499.383H170.212V429.965H29.022" stroke="#2E353A" stroke-linecap="round" stroke-linejoin="round"/>
<path d="M156.686 491.551C156.686 492.178 156.872 492.792 157.221 493.313C157.569 493.835 158.065 494.242 158.645 494.482C159.224 494.722 159.862 494.785 160.478 494.663C161.093 494.54 161.659 494.238 162.102 493.794C162.546 493.351 162.848 492.785 162.971 492.17C163.093 491.554 163.03 490.916 162.79 490.337C162.55 489.757 162.143 489.261 161.622 488.913C161.1 488.564 160.486 488.378 159.859 488.378C159.017 488.378 158.21 488.712 157.615 489.307C157.02 489.902 156.686 490.709 156.686 491.551Z" fill="white" stroke="#2E353A" stroke-linecap="round" stroke-linejoin="round"/>
</svg>
