<svg width="548" height="525" viewBox="0 0 548 525" fill="none" xmlns="http://www.w3.org/2000/svg">
<circle cx="104" cy="104" r="104" fill="#9468B4" fill-opacity="0.1"/>
<circle cx="460" cy="224" r="88" fill="#9468B4" fill-opacity="0.1"/>
<circle cx="456.5" cy="385.5" r="51.5" fill="#9468B4" fill-opacity="0.05"/>
<circle cx="210.5" cy="427.5" r="51.5" fill="#9468B4" fill-opacity="0.05"/>
<circle cx="42.5" cy="284.5" r="35.5" fill="#9468B4" fill-opacity="0.05"/>
<circle cx="381.5" cy="96.5" r="35.5" fill="#9468B4" fill-opacity="0.05"/>
<path d="M262 524.757C401.176 524.757 514 518.17 514 510.045C514 501.919 401.176 495.332 262 495.332C122.824 495.332 10 501.919 10 510.045C10 518.17 122.824 524.757 262 524.757Z" fill="#F5F5F5" fill-opacity="0.15"/>
<path d="M344.583 499.348L334.159 499.192L331.755 474.991L342.192 475.147L344.583 499.348Z" fill="white"/>
<path d="M398.248 499.387H387.824L379.701 475.226H390.125L398.248 499.387Z" fill="white"/>
<path d="M386.434 498.178H399.145C399.353 498.178 399.555 498.249 399.718 498.379C399.88 498.509 399.995 498.69 400.041 498.893L402.095 508.172C402.147 508.398 402.146 508.632 402.093 508.857C402.04 509.082 401.936 509.292 401.79 509.47C401.643 509.648 401.456 509.791 401.246 509.886C401.035 509.981 400.805 510.026 400.574 510.018C396.48 509.953 393.491 509.706 388.344 509.706C385.173 509.706 375.607 510.044 371.227 510.044C366.847 510.044 366.275 505.716 368.069 505.313C376.101 503.559 382.158 501.141 384.731 498.815C385.203 498.404 385.808 498.178 386.434 498.178Z" fill="#263238"/>
<path d="M334.251 498.035L345.636 498.217C345.843 498.218 346.043 498.29 346.204 498.42C346.364 498.549 346.476 498.73 346.52 498.932L348.431 508.238C348.48 508.462 348.478 508.695 348.424 508.918C348.37 509.141 348.265 509.349 348.119 509.526C347.972 509.703 347.787 509.844 347.577 509.938C347.368 510.033 347.14 510.078 346.91 510.07C342.79 509.94 336.863 509.603 331.69 509.525C325.66 509.434 320.435 509.681 313.352 509.525C309.076 509.46 307.958 505.119 309.751 504.755C317.939 503.091 324.607 503 331.729 498.763C332.487 498.294 333.359 498.042 334.251 498.035Z" fill="#263238"/>
<path d="M340.659 188.484C337.359 195.808 333.685 202.957 329.65 209.903C327.636 213.373 325.53 216.817 323.243 220.197C320.966 223.66 318.502 226.997 315.86 230.191L314.834 231.413L314.314 232.024C314.132 232.232 314.015 232.388 313.651 232.765C312.161 234.442 310.249 235.689 308.114 236.378C306.792 236.792 305.4 236.938 304.02 236.807C302.803 236.703 301.613 236.395 300.498 235.897C298.891 235.167 297.426 234.16 296.17 232.921C294.389 231.144 292.859 229.132 291.621 226.942C290.535 225.064 289.55 223.129 288.67 221.145C285.46 213.64 283.055 205.815 281.496 197.803L288.982 195.476C290.581 198.881 292.232 202.404 293.96 205.757C295.689 209.11 297.456 212.463 299.367 215.544C300.263 217.046 301.24 218.5 302.291 219.898C303.116 221.032 304.077 222.062 305.151 222.965C305.541 223.264 305.84 223.329 305.684 223.199C305.466 223.082 305.228 223.007 304.982 222.978C304.577 222.931 304.167 222.962 303.773 223.069C302.993 223.316 302.876 223.498 302.967 223.329L304.41 221.34C308.631 215.215 312.476 208.839 315.925 202.248C319.499 195.606 322.983 188.666 326.245 181.946L340.659 188.484Z" fill="white"/>
<path d="M344.999 181.947C347.806 191.513 328.012 217.598 328.012 217.598L308.035 204.757C311.8 196.486 316.44 188.643 321.877 181.362C330.052 170.874 341.905 171.445 344.999 181.947Z" fill="#407BFF"/>
<path opacity="0.2" d="M344.999 181.947C347.806 191.513 328.012 217.598 328.012 217.598L308.035 204.757C311.8 196.486 316.44 188.643 321.877 181.362C330.052 170.874 341.905 171.445 344.999 181.947Z" fill="black"/>
<path opacity="0.2" d="M332.821 193.176C328.714 194.931 322.671 204.874 319.525 212.152L327.999 217.598C332.734 211.268 336.991 204.595 340.737 197.634C338.059 194.697 334.992 192.254 332.821 193.176Z" fill="black"/>
<path d="M288.8 199.22L291.399 187.457L279.533 187.366C279.533 187.366 276.362 196.204 282.743 200.363L288.8 199.22Z" fill="white"/>
<path d="M290.009 176.436L280.495 179.854L279.494 187.366L291.36 187.457L290.009 176.436Z" fill="white"/>
<path opacity="0.2" d="M331.769 474.991L333.003 487.468L343.427 487.637L342.205 475.16L331.769 474.991Z" fill="black"/>
<path opacity="0.2" d="M390.125 475.238H379.701L383.886 487.689H394.323L390.125 475.238Z" fill="black"/>
<path d="M391.503 177.71C380.26 217.338 382.535 259.396 381.521 267.909C373.359 267.324 342.621 265.024 325.867 263.776C318.563 204.393 333.172 173.889 333.172 173.889C333.172 173.889 336.759 173.2 341.62 172.693C343.141 172.537 344.791 172.407 346.507 172.316C347.456 172.316 348.417 172.225 349.392 172.212C357.304 172.347 365.202 172.933 373.047 173.967C374.528 174.148 376.036 174.382 377.505 174.616C378.973 174.85 380.182 175.097 381.404 175.344C387.123 176.475 391.503 177.71 391.503 177.71Z" fill="#407BFF"/>
<path opacity="0.2" d="M391.503 177.71C380.26 217.338 382.535 259.396 381.521 267.909C373.359 267.324 342.621 265.024 325.867 263.776C318.563 204.393 333.172 173.889 333.172 173.889C333.172 173.889 336.759 173.2 341.62 172.693C343.141 172.537 344.791 172.407 346.507 172.316C347.456 172.316 348.417 172.225 349.392 172.212C357.304 172.347 365.202 172.933 373.047 173.967C374.528 174.148 376.036 174.382 377.505 174.616C378.973 174.85 380.182 175.097 381.404 175.344C387.123 176.475 391.503 177.71 391.503 177.71Z" fill="black"/>
<path opacity="0.2" d="M379.624 194.71C378.623 198.544 379.767 216.038 383.77 220.353C384.316 214.751 385.07 208.903 386.005 202.924L379.624 194.71Z" fill="black"/>
<path d="M372.683 147.114C370.63 154.614 368.095 168.455 373.047 173.927C368.602 177.735 362.845 182.076 353.786 181.725C344.727 181.375 346.754 175.227 349.393 172.173C358.023 170.769 358.283 164.452 357.191 158.435L372.683 147.114Z" fill="white"/>
<path d="M372.216 171.809C372.216 171.809 368.472 177.982 353.422 181.738C355.917 184.052 357.126 189.537 357.126 189.537C357.126 189.537 376.765 184.806 376.167 173.758C374.968 172.892 373.633 172.233 372.216 171.809Z" fill="#263238"/>
<path d="M348.067 188.12C348.067 188.12 350.043 183.363 353.422 181.738C351.849 180.114 349.523 175.24 350.9 171.588C349.735 171.495 348.562 171.569 347.417 171.809C347.417 171.809 341.465 179.308 348.067 188.12Z" fill="#263238"/>
<path d="M352.772 188.264C352.603 189.277 352.005 190.031 351.472 189.927C350.939 189.823 350.614 188.926 350.796 187.913C350.978 186.899 351.576 186.132 352.096 186.236C352.616 186.34 352.979 187.237 352.772 188.264Z" fill="#263238"/>
<path d="M351.887 194.112C351.797 195.152 351.277 195.945 350.718 195.893C350.159 195.841 349.782 194.97 349.873 193.943C349.964 192.916 350.484 192.111 351.043 192.163C351.602 192.215 351.978 193.085 351.887 194.112Z" fill="#263238"/>
<path opacity="0.2" d="M366.393 151.78L357.295 158.474C357.567 159.874 357.706 161.297 357.711 162.724C360.999 162.49 365.717 159.267 366.315 155.9C366.58 154.542 366.606 153.148 366.393 151.78Z" fill="black"/>
<path d="M351.809 118.794C343.699 118.612 342.062 138.212 347.325 141.63C352.589 145.048 366.99 119.119 351.809 118.794Z" fill="#263238"/>
<path d="M374.438 135.768C373.047 146.022 372.748 152.105 367.146 157.005C358.724 164.374 346.351 158.707 344.661 148.245C343.141 138.822 345.675 123.628 356.073 120.275C358.361 119.524 360.803 119.37 363.167 119.829C365.531 120.288 367.738 121.344 369.578 122.896C371.419 124.449 372.832 126.447 373.682 128.7C374.533 130.953 374.793 133.386 374.438 135.768Z" fill="white"/>
<path d="M372.969 145.815C367.77 148.558 361.766 120.172 375.569 121.654C392.907 123.499 383.406 140.344 372.969 145.815Z" fill="#263238"/>
<path d="M349.821 121.588C349.821 127.944 370.448 134.26 377.518 132.09C384.588 129.919 386.369 124.292 382.574 120.393C376.153 113.673 349.821 109.137 349.821 121.588Z" fill="#263238"/>
<path d="M350.653 122.421C351.129 124.523 352.157 126.461 353.629 128.035C351.784 127.931 349.951 125.319 349.366 123.798C348.781 122.278 350.653 122.421 350.653 122.421Z" fill="#263238"/>
<path d="M378.245 147.479C377.482 148.52 376.521 149.4 375.417 150.069C374.313 150.738 373.088 151.183 371.812 151.378C368.393 151.872 367.133 148.7 368.458 145.711C369.654 143.021 372.864 139.524 376.114 140.408C379.363 141.292 380.117 144.892 378.245 147.479Z" fill="white"/>
<path d="M329.13 485.038L346.793 485.311C346.793 485.311 340.893 415.53 342.491 383.063C342.972 373.186 344.961 359.37 347.56 344.566C350.861 325.902 352.447 318.468 356.658 294.891C359.699 278.073 362.403 266.545 362.403 266.545L325.816 263.815C325.816 263.815 310.349 347.88 310.713 379.762C311.077 412.814 329.13 485.038 329.13 485.038Z" fill="#263238"/>
<path opacity="0.2" d="M349.574 288.782C342.998 305.159 342.868 343.526 345.896 354.326C346.416 351.129 346.975 347.828 347.56 344.527C350.861 325.863 352.446 318.429 356.657 294.852C356.735 294.384 356.826 293.929 356.904 293.474C354.75 291.499 352.27 289.912 349.574 288.782Z" fill="black"/>
<path d="M345.61 265.245C345.61 265.245 348.834 353.222 351.29 383.687C353.967 417.064 378.974 485.272 378.974 485.272H398.08C398.08 485.272 385.329 422.886 381.417 390.394C376.959 353.482 381.495 267.884 381.495 267.884L345.61 265.245Z" fill="#263238"/>
<path d="M376.699 485.688H399.197V478.968L374.048 478.526L376.699 485.688Z" fill="#407BFF"/>
<path d="M326.908 485.376L347.95 485.701L348.054 478.904L324.529 478.176L326.908 485.376Z" fill="#407BFF"/>
<path d="M358.594 137.484C358.529 138.329 358.035 138.978 357.489 138.926C356.943 138.874 356.541 138.173 356.606 137.341C356.671 136.509 357.164 135.859 357.71 135.898C358.256 135.937 358.659 136.717 358.594 137.484Z" fill="#263238"/>
<path d="M349.08 136.782C349.08 137.627 348.521 138.264 347.975 138.225C347.429 138.186 347.04 137.471 347.092 136.639C347.144 135.807 347.65 135.144 348.209 135.183C348.768 135.222 349.171 135.937 349.08 136.782Z" fill="#263238"/>
<path d="M352.096 137.419C350.901 139.912 349.37 142.23 347.547 144.307C348.084 144.751 348.71 145.074 349.383 145.254C350.056 145.433 350.76 145.465 351.446 145.347L352.096 137.419Z" fill="#ED893E"/>
<path d="M354.877 147.855C355.821 147.818 356.746 147.586 357.596 147.175C358.446 146.763 359.202 146.181 359.816 145.464C359.839 145.441 359.858 145.414 359.87 145.384C359.883 145.353 359.889 145.321 359.889 145.289C359.889 145.256 359.883 145.224 359.87 145.193C359.858 145.163 359.839 145.136 359.816 145.113C359.768 145.069 359.705 145.045 359.641 145.045C359.576 145.045 359.513 145.069 359.465 145.113C358.768 145.895 357.896 146.502 356.921 146.884C355.945 147.265 354.893 147.411 353.85 147.31C353.787 147.306 353.724 147.327 353.676 147.368C353.628 147.409 353.597 147.467 353.59 147.531C353.587 147.563 353.59 147.596 353.599 147.627C353.608 147.659 353.623 147.688 353.644 147.713C353.664 147.738 353.69 147.76 353.719 147.775C353.747 147.791 353.779 147.8 353.811 147.803C354.165 147.845 354.521 147.862 354.877 147.855Z" fill="#263238"/>
<path d="M361.752 134.637C361.836 134.636 361.918 134.608 361.986 134.559C362.041 134.525 362.088 134.48 362.125 134.427C362.162 134.374 362.188 134.315 362.201 134.252C362.214 134.189 362.215 134.124 362.203 134.06C362.19 133.997 362.165 133.937 362.129 133.883C361.717 133.207 361.147 132.641 360.468 132.234C359.789 131.827 359.021 131.59 358.23 131.544C358.099 131.544 357.974 131.596 357.881 131.689C357.788 131.781 357.736 131.907 357.736 132.038C357.736 132.169 357.788 132.294 357.881 132.387C357.974 132.48 358.099 132.532 358.23 132.532C358.849 132.582 359.446 132.78 359.972 133.107C360.499 133.435 360.94 133.884 361.259 134.416C361.31 134.497 361.385 134.561 361.473 134.6C361.56 134.64 361.658 134.652 361.752 134.637Z" fill="#263238"/>
<path d="M345.26 133.221C345.341 133.215 345.421 133.189 345.491 133.146C345.561 133.103 345.62 133.044 345.662 132.974C345.957 132.425 346.378 131.954 346.891 131.602C347.405 131.249 347.995 131.024 348.613 130.946C348.677 130.943 348.74 130.927 348.798 130.899C348.856 130.871 348.908 130.831 348.95 130.783C348.993 130.734 349.025 130.678 349.045 130.617C349.065 130.555 349.073 130.491 349.068 130.427C349.066 130.362 349.052 130.299 349.025 130.24C348.998 130.182 348.96 130.129 348.913 130.086C348.866 130.042 348.81 130.008 348.75 129.986C348.689 129.965 348.625 129.955 348.561 129.959C347.781 130.05 347.034 130.325 346.381 130.761C345.728 131.197 345.188 131.782 344.805 132.467C344.772 132.523 344.751 132.586 344.742 132.65C344.734 132.715 344.738 132.78 344.755 132.843C344.772 132.906 344.801 132.964 344.841 133.016C344.881 133.068 344.93 133.111 344.987 133.143C345.069 133.193 345.163 133.22 345.26 133.221Z" fill="#263238"/>
<path d="M382.977 500.011C383.898 499.985 384.813 499.859 385.706 499.634C385.756 499.622 385.8 499.596 385.835 499.559C385.869 499.522 385.893 499.476 385.901 499.426C385.905 499.378 385.896 499.33 385.876 499.287C385.855 499.243 385.824 499.206 385.784 499.179C385.407 498.945 382.041 496.878 380.884 497.463C380.756 497.531 380.649 497.632 380.574 497.755C380.498 497.879 380.457 498.02 380.456 498.165C380.432 498.407 380.466 498.652 380.557 498.878C380.647 499.104 380.791 499.306 380.975 499.465C381.562 499.866 382.267 500.058 382.977 500.011ZM384.991 499.283C383.224 499.634 381.859 499.569 381.287 499.088C381.162 498.981 381.065 498.843 381.006 498.689C380.947 498.535 380.927 498.368 380.949 498.204C380.946 498.145 380.958 498.085 380.986 498.033C381.013 497.98 381.055 497.936 381.105 497.905C381.703 497.593 383.627 498.49 384.991 499.335V499.283Z" fill="#407BFF"/>
<path d="M385.654 499.633C385.696 499.645 385.741 499.645 385.784 499.633C385.82 499.609 385.85 499.576 385.871 499.538C385.891 499.499 385.901 499.456 385.901 499.412C385.901 499.282 385.641 496.267 384.432 495.279C384.29 495.154 384.122 495.061 383.94 495.007C383.758 494.953 383.567 494.939 383.379 494.967C383.194 494.964 383.012 495.026 382.867 495.142C382.722 495.258 382.623 495.422 382.587 495.604C382.366 496.774 384.458 499.061 385.537 499.646L385.654 499.633ZM383.548 495.435C383.756 495.434 383.956 495.513 384.107 495.656C384.842 496.592 385.273 497.731 385.342 498.918C384.276 498.1 382.937 496.319 383.067 495.695C383.067 495.63 383.067 495.474 383.431 495.435H383.548Z" fill="#407BFF"/>
<path d="M333.198 499.413C333.243 499.397 333.282 499.369 333.312 499.333C333.342 499.296 333.361 499.252 333.367 499.205C333.373 499.156 333.364 499.106 333.341 499.062C333.317 499.018 333.281 498.982 333.237 498.958C332.769 498.698 328.61 496.515 327.337 497.191C327.217 497.257 327.116 497.352 327.043 497.468C326.97 497.584 326.928 497.717 326.921 497.854C326.891 498.076 326.915 498.302 326.992 498.513C327.069 498.723 327.196 498.912 327.363 499.062C328.48 500.089 331.483 499.725 333.172 499.413H333.198ZM327.662 497.594C328.441 497.334 330.703 498.23 332.354 499.049C330.04 499.4 328.325 499.27 327.688 498.698C327.579 498.596 327.497 498.47 327.447 498.33C327.398 498.19 327.382 498.04 327.402 497.893C327.402 497.838 327.418 497.784 327.448 497.738C327.478 497.692 327.521 497.655 327.571 497.633L327.662 497.594Z" fill="#407BFF"/>
<path d="M333.198 499.413H333.263C333.3 499.39 333.33 499.357 333.348 499.318C333.367 499.279 333.373 499.235 333.367 499.192C333.367 499.075 333.12 496.255 331.807 495.15C331.632 494.993 331.426 494.872 331.203 494.797C330.979 494.721 330.743 494.69 330.508 494.708C329.819 494.708 329.624 495.098 329.572 495.384C329.364 496.554 331.82 498.854 333.068 499.439C333.113 499.44 333.157 499.431 333.198 499.413ZM330.235 495.202H330.495C330.676 495.185 330.859 495.206 331.031 495.265C331.203 495.323 331.362 495.417 331.496 495.54C332.251 496.459 332.705 497.589 332.795 498.776C331.496 497.983 329.858 496.177 329.975 495.475C330.014 495.436 330.027 495.267 330.235 495.202Z" fill="#407BFF"/>
<path d="M394.18 184.208C397.819 191.512 401.081 198.817 404.084 206.303C405.604 210.046 407.008 213.854 408.386 217.688C409.062 219.625 409.686 221.588 410.335 223.511L410.803 224.98L411.31 226.669C411.674 227.826 411.882 228.983 412.155 230.127C413.589 238.879 413.181 247.834 410.959 256.42C409.996 260.496 408.776 264.507 407.307 268.429C406.566 270.379 405.773 272.328 404.929 274.187C404.084 276.045 403.226 277.917 402.173 279.866L394.986 276.747C395.987 273.199 397 269.365 397.715 265.635C398.43 261.904 399.093 258.135 399.509 254.418C399.919 250.768 400.067 247.094 399.951 243.423C399.881 239.986 399.401 236.569 398.521 233.246C398.274 232.479 398.079 231.673 397.78 230.945C397.624 230.569 397.533 230.257 397.338 229.802L396.792 228.502C396.065 226.721 395.272 224.941 394.518 223.16C392.997 219.573 391.347 216.025 389.761 212.451L379.948 191.096L394.18 184.208Z" fill="white"/>
<path d="M391.503 177.709C401.016 180.699 410.374 212.97 410.374 212.97L388.357 222.601C388.357 222.601 381.235 207.005 377.128 194.787C372.67 181.465 379.961 174.096 391.503 177.709Z" fill="#407BFF"/>
<path opacity="0.2" d="M391.503 177.709C401.016 180.699 410.374 212.97 410.374 212.97L388.357 222.601C388.357 222.601 381.235 207.005 377.128 194.787C372.67 181.465 379.961 174.096 391.503 177.709Z" fill="black"/>
<path d="M395.571 274.992L390.438 284.259L402.538 287.404C402.538 287.404 406.19 278.423 401.875 275.564L395.571 274.992Z" fill="white"/>
<path d="M389.54 294.774L400.653 295.697L402.537 287.405L390.437 284.26L389.54 294.774Z" fill="white"/>
<path opacity="0.19" d="M322.761 345.021H47.7695L67.1611 70.042H342.153L322.761 345.021Z" fill="#407BFF"/>
<path opacity="0.02" d="M109.727 345.021H70.1768L168.707 70.042H208.258L109.727 345.021Z" fill="white"/>
<path opacity="0.02" d="M205.788 345.021H118.552L217.082 70.042H304.319L205.788 345.021Z" fill="white"/>
<path d="M67.8892 117L59.8311 116.429L63.3923 66H113.834V74.0842H70.9176L67.8892 117Z" fill="#407BFF"/>
<path d="M94.4422 349.063H43.4287L47.0289 298.075L55.0871 298.647L52.0977 340.979H94.4422V349.063Z" fill="#407BFF"/>
<path d="M342.881 117L334.836 116.429L337.812 74.0842H295.468V66H346.481L342.881 117Z" fill="#407BFF"/>
<path d="M326.518 349.063H276.076V340.979H318.992L322.021 298.075L330.079 298.647L326.518 349.063Z" fill="#407BFF"/>
<path opacity="0.3" d="M189.542 304.47C189.303 304.465 189.068 304.407 188.853 304.301C188.775 304.301 186.865 303.209 183.654 301.234C182.355 300.415 180.717 299.414 178.936 298.283C173.283 294.605 167.837 290.732 162.729 286.768C161.429 285.806 160.26 284.818 158.999 283.805C154.294 279.905 149.901 276.084 146.08 272.289C145.092 271.301 144.117 270.314 143.142 269.3C139.594 265.646 136.261 261.788 133.161 257.745C132.407 256.771 131.679 255.77 130.964 254.756C128.321 251.072 125.962 247.192 123.907 243.15C123.413 242.175 122.919 241.148 122.464 240.121C120.758 236.362 119.425 232.444 118.487 228.424C118.253 227.501 118.045 226.501 117.863 225.383C117.72 224.655 117.603 223.888 117.512 223.134C117.109 220.158 116.771 217.13 116.447 213.854C116.343 212.88 116.252 211.892 116.161 210.917C115.823 207.018 115.537 203.21 115.329 199.415V199.103C115.329 198.245 115.225 197.387 115.186 196.503C115.004 192.76 114.874 188.9 114.796 185.027V182.077C114.796 177.983 114.796 174.122 114.796 170.6C114.796 169.612 114.796 168.625 114.861 167.65C114.952 163.413 115.095 159.553 115.264 156.173V155.953C115.264 155.017 115.342 154.107 115.394 153.21C115.628 149.025 115.901 145.061 116.187 141.734C116.278 140.603 116.356 139.641 116.447 138.783C116.745 135.508 116.966 133.676 116.966 133.676C116.993 133.34 117.139 133.025 117.377 132.786C117.615 132.548 117.93 132.403 118.266 132.376C118.5 132.376 142.48 130.517 168.019 126.02C173.218 125.111 178.235 124.123 182.991 123.096C189.997 121.562 196.404 119.899 202.058 118.144C202.341 118.054 202.646 118.054 202.929 118.144C208.323 119.912 214.496 121.575 221.281 123.096C225.895 124.136 230.782 125.111 235.838 126.02C260.74 130.517 284.46 132.363 284.693 132.376C285.055 132.406 285.392 132.573 285.634 132.844C285.876 133.115 286.004 133.469 285.993 133.832C285.993 133.832 285.993 135.651 285.798 138.939C285.798 139.81 285.707 140.798 285.642 141.89C285.447 145.23 285.161 149.194 284.81 153.366C284.732 154.198 284.654 155.03 284.576 155.901V156.329C284.278 159.722 283.862 163.582 283.368 167.793C283.251 168.794 283.134 169.768 283.004 170.756C282.562 174.291 282.029 178.152 281.405 182.22L280.963 185.157C280.339 189.056 279.664 192.955 278.962 196.646C278.806 197.478 278.637 198.323 278.468 199.168L278.377 199.61C277.636 203.379 276.817 207.252 275.933 211.086L275.232 214.049C274.439 217.325 273.672 220.353 272.866 223.316C272.645 224.083 272.424 224.837 272.19 225.591C271.839 226.696 271.501 227.683 271.138 228.619C269.613 232.676 267.735 236.59 265.523 240.316C264.938 241.317 264.314 242.331 263.664 243.319C261.033 247.366 258.137 251.234 254.995 254.899C254.137 255.9 253.28 256.901 252.396 257.875C248.737 261.915 244.876 265.767 240.828 269.417C239.711 270.422 238.593 271.41 237.475 272.38C233.069 276.175 228.195 280.035 222.957 283.883C221.554 284.896 220.176 285.884 218.811 286.846C213.145 290.81 207.114 294.644 201.005 298.348C199.056 299.479 197.327 300.48 195.807 301.299C192.323 303.261 190.27 304.314 190.192 304.353C189.987 304.442 189.765 304.482 189.542 304.47ZM119.657 135.157C119.566 136.015 119.436 137.315 119.28 139.056C119.189 139.914 119.111 140.863 119.033 141.903C118.747 145.282 118.474 149.22 118.24 153.392C118.24 154.276 118.149 155.173 118.097 156.108V156.329C117.915 159.683 117.785 163.517 117.694 167.728C117.694 168.69 117.694 169.664 117.629 170.652C117.629 174.161 117.629 177.996 117.629 182.051V185.001C117.707 188.835 117.837 192.669 118.019 196.373C118.019 197.231 118.097 198.076 118.149 198.973V199.363C118.357 203.119 118.63 206.953 118.968 210.748C119.059 211.723 119.15 212.698 119.254 213.672C119.566 216.909 119.917 219.924 120.307 222.861C120.398 223.576 120.502 224.291 120.632 224.993C120.814 226.059 121.008 226.981 121.229 227.865C122.131 231.706 123.406 235.45 125.038 239.043C125.479 240.018 125.934 240.992 126.415 241.928C128.408 245.847 130.693 249.609 133.252 253.184C133.954 254.158 134.655 255.133 135.396 256.082C138.433 260.037 141.692 263.817 145.157 267.402C146.119 268.39 147.081 269.365 148.055 270.327C151.851 274.057 156.127 277.865 160.766 281.66C162.066 282.661 163.236 283.636 164.458 284.597C169.488 288.497 174.855 292.331 180.444 295.957C182.199 297.075 183.771 298.062 185.11 298.868C187.177 300.168 188.71 301.026 189.529 301.468C190.4 301.013 192.128 300.168 194.364 298.868C195.833 298.049 197.535 297.062 199.459 295.931C205.541 292.305 211.468 288.484 217.07 284.558C218.369 283.61 219.786 282.635 221.177 281.621C226.376 277.826 231.172 274.018 235.474 270.275C236.578 269.313 237.683 268.338 238.775 267.337C242.759 263.754 246.559 259.971 250.16 256.004C251.031 255.042 251.876 254.08 252.76 253.106C255.825 249.538 258.647 245.769 261.208 241.824C261.845 240.862 262.507 239.888 263.001 238.926C265.16 235.351 267 231.594 268.499 227.696C268.85 226.799 269.175 225.864 269.5 224.811C269.734 224.096 269.942 223.368 270.137 222.653C270.943 219.716 271.709 216.714 272.489 213.465C272.736 212.49 272.957 211.515 273.191 210.54C274.062 206.732 274.881 202.898 275.609 199.155L275.7 198.7C275.868 197.868 276.024 197.036 276.18 196.204C276.882 192.513 277.558 188.679 278.169 184.806L278.624 181.882C279.235 177.84 279.768 174.005 280.209 170.483C280.339 169.508 280.443 168.547 280.56 167.585C281.054 163.374 281.47 159.54 281.769 156.16V155.732C281.847 154.874 281.925 154.029 281.99 153.21C282.341 149.077 282.627 145.139 282.809 141.825C282.874 140.733 282.926 139.758 282.978 138.887C283.043 137.302 283.095 136.054 283.121 135.209C277.714 134.741 256.971 132.831 235.344 128.932C230.249 128.009 225.323 127.021 220.67 125.981C213.976 124.474 207.868 122.836 202.474 121.094C196.846 122.836 190.504 124.474 183.589 125.981C178.806 127.021 173.738 128.009 168.513 128.932C146.067 132.818 124.817 134.728 119.657 135.157Z" fill="#407BFF"/>
<path opacity="0.3" d="M209.618 192.38C216.636 185.605 217.205 174.808 210.889 168.265C204.572 161.721 193.762 161.909 186.744 168.685C179.726 175.46 179.157 186.256 185.473 192.8C191.79 199.343 202.6 199.155 209.618 192.38Z" fill="#407BFF"/>
<path opacity="0.3" d="M201.928 186.482H197.756H193.597L181.821 241.408H205.957L201.928 186.482Z" fill="#407BFF"/>
<g opacity="0.2">
<path opacity="0.2" d="M235.577 127.463H168.266C173.256 126.579 178.312 125.604 183.29 124.513H220.982C225.804 125.604 230.716 126.579 235.577 127.463Z" fill="#407BFF"/>
<path opacity="0.2" d="M284.225 141.838H117.603C117.681 140.746 117.759 139.771 117.849 138.888H284.381C284.342 139.771 284.29 140.746 284.225 141.838Z" fill="#407BFF"/>
<path opacity="0.2" d="M283.393 153.262C283.315 154.224 283.224 155.211 283.133 156.225H116.667C116.667 155.211 116.758 154.224 116.81 153.262H283.393Z" fill="#407BFF"/>
<path opacity="0.2" d="M281.925 167.65C281.808 168.625 281.691 169.613 281.561 170.601H116.199C116.199 169.613 116.199 168.625 116.264 167.65H281.925Z" fill="#407BFF"/>
<path opacity="0.2" d="M279.975 182.038C279.819 183.013 279.676 183.988 279.52 184.975H116.212C116.212 183.988 116.212 183.013 116.212 182.038H279.975Z" fill="#407BFF"/>
<path opacity="0.2" d="M277.597 196.412L277.012 199.362H116.758C116.758 198.375 116.642 197.387 116.603 196.412H277.597Z" fill="#407BFF"/>
<path opacity="0.2" d="M274.516 210.8L273.814 213.737H117.849C117.745 212.762 117.654 211.775 117.563 210.8H274.516Z" fill="#407BFF"/>
<path opacity="0.2" d="M270.799 225.175C270.487 226.163 270.149 227.15 269.773 228.125H119.877C119.631 227.15 119.436 226.163 119.267 225.175H270.799Z" fill="#407BFF"/>
<path opacity="0.2" d="M264.262 239.55C263.69 240.538 263.066 241.538 262.442 242.5H125.18C124.686 241.538 124.218 240.538 123.776 239.55H264.262Z" fill="#407BFF"/>
<path opacity="0.2" d="M253.877 253.938C253.032 254.925 252.188 255.913 251.278 256.875H134.304C133.55 255.913 132.836 254.925 132.134 253.938H253.877Z" fill="#407BFF"/>
<path opacity="0.2" d="M239.814 268.312C238.71 269.313 237.605 270.301 236.487 271.263H147.08C146.106 270.301 145.131 269.313 144.169 268.312H239.814Z" fill="#407BFF"/>
<path opacity="0.2" d="M222.06 282.687C220.657 283.7 219.292 284.688 217.927 285.637H163.613C162.391 284.688 161.156 283.7 159.896 282.687H222.06Z" fill="#407BFF"/>
<path opacity="0.2" d="M200.225 297.074C198.289 298.205 196.573 299.193 195.105 300.012H184.408C183.108 299.193 181.471 298.205 179.703 297.074H200.225Z" fill="#407BFF"/>
</g>
</svg>
