<svg width="516" height="467" viewBox="0 0 516 467" fill="none" xmlns="http://www.w3.org/2000/svg">
<path d="M258 466.799C400.205 466.799 515.486 460.069 515.486 451.766C515.486 443.464 400.205 436.733 258 436.733C115.794 436.733 0.513672 443.464 0.513672 451.766C0.513672 460.069 115.794 466.799 258 466.799Z" fill="#5F556C"/>
<path d="M318.703 114.627L318.238 116.194L317.813 117.522C317.521 118.412 317.202 119.236 316.883 120.086C316.246 121.746 315.555 123.366 314.799 124.973C313.325 128.168 311.662 131.272 309.819 134.269C308.902 135.769 307.933 137.217 306.95 138.664C305.967 140.112 304.918 141.506 303.816 142.874C301.655 145.639 299.336 148.278 296.871 150.776L296.353 151.307C295.638 152.04 294.791 152.63 293.856 153.046C291.089 154.257 288.082 154.816 285.065 154.68C282.438 154.538 279.857 153.931 277.442 152.887C275.418 152.032 273.505 150.935 271.745 149.62C270.165 148.467 268.669 147.202 267.269 145.835C264.725 143.289 262.431 140.505 260.417 137.522C259.434 136.088 258.531 134.614 257.668 133.126C256.805 131.639 256.061 130.152 255.251 128.439C254.723 127.322 254.6 126.057 254.903 124.86C255.207 123.663 255.918 122.609 256.915 121.879C257.912 121.15 259.131 120.79 260.364 120.863C261.597 120.936 262.766 121.435 263.671 122.277L264.016 122.595L267.256 125.57C268.358 126.579 269.487 127.549 270.616 128.478C272.754 130.292 275.017 131.952 277.389 133.445C279.244 134.682 281.303 135.581 283.471 136.101C284.022 136.257 284.606 136.257 285.158 136.101C285.34 136.02 285.49 135.88 285.583 135.703L282.528 138.014C284.215 135.729 285.848 133.419 287.349 131.028C288.849 128.638 290.284 126.168 291.625 123.684C292.966 121.201 294.201 118.638 295.343 116.075C295.928 114.747 296.446 113.499 296.977 112.224L298.305 108.744L298.677 107.788C299.737 105.339 301.68 103.378 304.12 102.296C306.559 101.214 309.317 101.09 311.844 101.948C314.371 102.807 316.483 104.585 317.759 106.93C319.034 109.274 319.381 112.013 318.729 114.601L318.703 114.627Z" fill="#263238"/>
<path d="M259.01 128.505L250.032 125.384L248.146 113.087C248.146 113.087 263.193 117.071 263.126 124.322L259.01 128.505Z" fill="white"/>
<path d="M311.891 64.4421C306.034 62.3837 297.947 55.3718 301.121 46.3016C303.538 39.4226 312.488 38.8117 316.008 40.8701C319.527 42.9285 319.673 38.7055 324.175 37.0853C328.677 35.4651 331.851 39.5421 334.135 41.6802C336.419 43.8183 339.088 42.1981 342.475 42.3442C345.861 42.4903 348.278 46.9258 346.392 50.1661C343.072 55.8499 348.557 59.4621 344.4 63.8976C338.278 70.3384 343.072 76.6597 334.44 83.0739C329.195 87.0048 314.294 79.7938 311.891 64.4421Z" fill="#263238"/>
<path d="M311.784 70.4448C311.566 70.5748 311.321 70.6521 311.067 70.6706C310.627 70.7075 310.191 70.5691 309.852 70.2855C309.514 70.002 309.302 69.5962 309.261 69.1567C308.969 66.5212 309.313 63.854 310.265 61.3791C311.217 58.9042 312.749 56.6939 314.733 54.9338C314.904 54.7971 315.101 54.6961 315.313 54.6367C315.524 54.5773 315.745 54.5607 315.963 54.5879C316.18 54.6151 316.391 54.6856 316.581 54.7952C316.771 54.9047 316.937 55.0512 317.07 55.226C317.206 55.3967 317.308 55.5927 317.368 55.8027C317.429 56.0127 317.447 56.2326 317.422 56.4498C317.398 56.6669 317.33 56.8771 317.224 57.0681C317.118 57.2592 316.976 57.4275 316.804 57.5632C315.253 58.9751 314.061 60.7374 313.329 62.7033C312.596 64.6692 312.345 66.7816 312.594 68.8645C312.621 69.1774 312.56 69.4916 312.416 69.771C312.273 70.0505 312.054 70.284 311.784 70.4448Z" fill="#263238"/>
<path d="M302.235 101.347C302.235 101.347 290.456 131.492 301.638 187.667H355.037C355.408 179.473 350.256 139.487 358.157 100.869C352.254 99.7334 346.283 98.9793 340.282 98.6111C332.724 98.1726 325.146 98.1726 317.587 98.6111C312.406 99.1193 307.273 100.034 302.235 101.347Z" fill="white"/>
<path d="M338.038 72.9678C336.604 80.2718 335.183 93.658 340.283 98.5318C340.283 98.5318 331.73 105.464 322.74 112.476C320.753 110.792 319.235 108.623 318.332 106.18C317.43 103.738 317.173 101.103 317.587 98.5318C325.728 96.5929 325.555 90.5638 324.108 84.8667L338.038 72.9678Z" fill="white"/>
<path opacity="0.2" d="M332.368 77.8682L324.121 84.9066C324.473 86.2111 324.709 87.5444 324.825 88.8906C327.481 91.4138 332.209 85.0261 332.541 81.7725C332.716 80.4711 332.657 79.149 332.368 77.8682Z" fill="black"/>
<path d="M337.946 60.6839C338.317 70.5908 339.034 76.3676 334.572 81.9319C327.839 90.2718 315.25 86.9651 311.93 77.3636C308.942 68.7316 308.836 53.9908 318.092 49.1303C320.123 48.048 322.396 47.5024 324.697 47.5453C326.997 47.5883 329.249 48.2183 331.238 49.3757C333.227 50.533 334.887 52.1794 336.061 54.1584C337.235 56.1375 337.883 58.3837 337.946 60.6839Z" fill="white"/>
<path d="M337.68 69.847C334.958 75.159 331.824 58.3598 332.62 55.5578C322.992 58.2138 308.225 57.3373 309.367 50.6176C310.695 43.0347 319.513 42.7426 329.287 43.6722C345.422 45.2259 340.628 64.0835 337.68 69.847Z" fill="#263238"/>
<path d="M332.913 70.7902C332.662 70.8045 332.412 70.759 332.182 70.6573C331.981 70.5694 331.799 70.4425 331.646 70.2841C331.494 70.1257 331.374 69.9387 331.294 69.734C331.214 69.5293 331.175 69.3107 331.179 69.0909C331.183 68.8711 331.231 68.6543 331.319 68.4529C332.324 65.9999 333.902 63.8236 335.922 62.1067C337.941 60.3899 340.343 59.1825 342.926 58.5858C343.357 58.5082 343.802 58.6043 344.162 58.853C344.523 59.1018 344.771 59.4831 344.851 59.9138C344.922 60.3442 344.823 60.7852 344.576 61.1443C344.328 61.5033 343.951 61.7525 343.523 61.8394C341.48 62.3448 339.586 63.3317 338.001 64.7178C336.417 66.1039 335.186 67.849 334.413 69.8074C334.286 70.0998 334.077 70.3486 333.81 70.5232C333.543 70.6978 333.231 70.7906 332.913 70.7902Z" fill="#263238"/>
<path d="M342.886 67.6558C342.362 70.0417 340.983 72.1533 339.008 73.592C336.419 75.398 334.374 73.1803 334.44 70.0595C334.506 67.2574 335.941 62.9547 338.836 62.3969C341.731 61.8391 343.537 64.7209 342.886 67.6558Z" fill="white"/>
<path d="M296.22 438.659C294.985 438.964 293.75 439.084 293.219 438.659C293.083 438.534 292.99 438.369 292.952 438.188C292.914 438.007 292.933 437.819 293.007 437.65C293.052 437.497 293.128 437.356 293.231 437.235C293.334 437.113 293.461 437.015 293.604 436.946C295.105 436.109 298.916 437.198 299.089 437.251C299.138 437.263 299.181 437.292 299.212 437.331C299.243 437.371 299.26 437.42 299.26 437.47C299.26 437.521 299.243 437.57 299.212 437.61C299.181 437.649 299.138 437.677 299.089 437.69C298.162 438.095 297.203 438.419 296.22 438.659ZM294.255 437.158C294.107 437.193 293.964 437.246 293.83 437.318C293.743 437.36 293.664 437.419 293.601 437.492C293.537 437.565 293.488 437.65 293.458 437.743C293.352 438.075 293.458 438.194 293.525 438.261C294.122 438.779 296.566 438.194 298.305 437.49C296.989 437.12 295.614 437.007 294.255 437.158Z" fill="#263238"/>
<path d="M299.075 437.663H298.982C297.654 437.438 294.892 435.91 294.812 434.768C294.812 434.503 294.905 434.131 295.516 433.918C295.952 433.769 296.429 433.798 296.844 433.998C298.305 434.702 299.168 437.252 299.208 437.358C299.231 437.394 299.242 437.435 299.242 437.477C299.242 437.52 299.231 437.561 299.208 437.597C299.172 437.632 299.125 437.655 299.075 437.663ZM295.808 434.317H295.676C295.264 434.45 295.277 434.622 295.291 434.675C295.291 435.366 297.283 436.614 298.637 437.039C298.274 435.971 297.587 435.042 296.672 434.383C296.399 434.265 296.096 434.242 295.808 434.317Z" fill="#263238"/>
<path d="M313.59 440.824L303.59 442.298L303.909 419.377L313.908 417.916L313.59 440.824Z" fill="white"/>
<path d="M302.09 436.375H315.197C315.39 436.37 315.578 436.437 315.725 436.562C315.872 436.687 315.968 436.861 315.994 437.053L317.322 445.884C317.348 446.105 317.327 446.33 317.26 446.543C317.194 446.755 317.083 446.952 316.935 447.119C316.787 447.285 316.605 447.419 316.402 447.511C316.198 447.602 315.978 447.65 315.755 447.65C311.837 447.584 306.207 447.358 301.28 447.358C295.529 447.358 290.364 447.663 283.617 447.663C279.54 447.663 278.783 443.799 280.47 443.175C288.013 440.346 292.05 439.868 299.686 437.146C300.439 436.757 301.251 436.497 302.09 436.375Z" fill="#263238"/>
<path opacity="0.2" d="M303.909 419.39L303.736 431.196L313.749 429.722L313.922 417.916L303.909 419.39Z" fill="black"/>
<path d="M308.464 437.079C308.398 432.843 309.726 426.03 299.168 430.2C292.873 432.67 301.412 439.935 301.412 439.935L308.464 437.079Z" fill="#263238"/>
<path d="M301.638 187.627C301.638 187.627 296.326 268.064 297.827 296.669C299.287 323.774 300.111 400.665 300.297 420.837C300.304 421.451 300.442 422.056 300.701 422.612C300.96 423.168 301.334 423.662 301.799 424.063C302.263 424.464 302.808 424.761 303.396 424.935C303.984 425.109 304.603 425.157 305.21 425.074L312.275 424.118C313.218 423.989 314.093 423.554 314.765 422.88C315.437 422.206 315.869 421.329 315.994 420.386C320.562 384.782 325.994 329.856 327.175 300.454C328.503 266.896 336.764 187.574 336.764 187.574L301.638 187.627Z" fill="#9468B4"/>
<path opacity="0.2" d="M301.638 187.627C301.638 187.627 296.326 268.064 297.827 296.669C299.287 323.774 300.111 400.665 300.297 420.837C300.304 421.451 300.442 422.056 300.701 422.612C300.96 423.168 301.334 423.662 301.799 424.063C302.263 424.464 302.808 424.761 303.396 424.935C303.984 425.109 304.603 425.157 305.21 425.074L312.275 424.118C313.218 423.989 314.093 423.554 314.765 422.88C315.437 422.206 315.869 421.329 315.994 420.386C320.562 384.782 325.994 329.856 327.175 300.454C328.503 266.896 336.764 187.574 336.764 187.574L301.638 187.627Z" fill="white"/>
<path d="M368.304 437.344C367.148 437.862 365.953 438.208 365.342 437.849C365.186 437.753 365.065 437.61 364.996 437.44C364.926 437.271 364.913 437.084 364.957 436.906C364.971 436.746 365.02 436.59 365.101 436.45C365.181 436.31 365.29 436.189 365.422 436.096C366.75 435.007 370.734 435.406 370.867 435.419C370.916 435.422 370.962 435.441 371 435.472C371.038 435.503 371.066 435.544 371.079 435.591C371.089 435.638 371.086 435.686 371.069 435.731C371.053 435.776 371.024 435.815 370.986 435.844C370.138 436.423 369.241 436.925 368.304 437.344ZM366.099 436.216C365.963 436.281 365.833 436.361 365.714 436.455C365.632 436.51 365.564 436.583 365.514 436.668C365.463 436.753 365.432 436.848 365.422 436.946C365.422 437.278 365.502 437.398 365.581 437.437C366.259 437.849 368.556 436.826 370.15 435.844C368.788 435.706 367.413 435.832 366.099 436.216Z" fill="#263238"/>
<path d="M370.88 435.871C369.552 435.871 366.551 434.875 366.272 433.759C366.206 433.507 366.272 433.122 366.817 432.803C367.015 432.687 367.236 432.614 367.464 432.586C367.692 432.559 367.924 432.578 368.145 432.644C369.712 433.082 371.026 435.419 371.079 435.526C371.099 435.562 371.11 435.603 371.11 435.645C371.11 435.687 371.099 435.728 371.079 435.765C371.055 435.795 371.025 435.819 370.991 435.838C370.956 435.856 370.919 435.867 370.88 435.871ZM367.069 433.215H366.949C366.578 433.427 366.617 433.587 366.631 433.64C366.803 434.304 368.941 435.194 370.349 435.379C369.806 434.386 368.965 433.588 367.945 433.095C367.671 433.022 367.381 433.046 367.122 433.162L367.069 433.215Z" fill="#263238"/>
<path d="M386.364 436.454L376.936 439.655L370.681 417.491L380.096 414.29L386.364 436.454Z" fill="white"/>
<path opacity="0.2" d="M326.418 216.392C323.669 227.401 324.4 273.15 327.242 298.94C327.919 283.841 329.831 260.561 331.77 239.18L326.418 216.392Z" fill="black"/>
<path d="M373.311 434.277L386.219 431.953C386.412 431.914 386.612 431.945 386.785 432.04C386.957 432.135 387.091 432.287 387.162 432.47L390.548 440.837C390.631 441.04 390.667 441.259 390.653 441.478C390.639 441.697 390.577 441.91 390.47 442.101C390.362 442.293 390.214 442.457 390.034 442.583C389.855 442.709 389.649 442.793 389.433 442.829C385.568 443.466 379.964 444.237 375.117 445.113C369.459 446.136 369.42 446.441 362.78 447.663C358.796 448.393 357.082 444.768 358.583 443.851C365.329 439.761 364.227 439.482 371.08 435.472C371.748 434.946 372.503 434.541 373.311 434.277Z" fill="#263238"/>
<path opacity="0.2" d="M370.681 417.504L373.908 428.925L383.336 425.725L380.109 414.304L370.681 417.504Z" fill="black"/>
<path d="M320.589 187.627C320.589 187.627 327.468 268.078 332.767 296.669C337.866 324.186 360.934 402.564 367.733 420.373C368.128 421.412 368.91 422.259 369.914 422.737C370.919 423.214 372.069 423.285 373.125 422.936L379.937 420.718C380.938 420.391 381.786 419.71 382.321 418.803C382.857 417.896 383.043 416.825 382.846 415.791C376.073 380.825 365.289 329.723 362.607 300.454C359.539 266.896 355.037 187.574 355.037 187.574L320.589 187.627Z" fill="#9468B4"/>
<path opacity="0.2" d="M320.589 187.627C320.589 187.627 327.468 268.078 332.767 296.669C337.866 324.186 360.934 402.564 367.733 420.373C368.128 421.412 368.91 422.259 369.914 422.737C370.919 423.214 372.069 423.285 373.125 422.936L379.937 420.718C380.938 420.391 381.786 419.71 382.321 418.803C382.857 417.896 383.043 416.825 382.846 415.791C376.073 380.825 365.289 329.723 362.607 300.454C359.539 266.896 355.037 187.574 355.037 187.574L320.589 187.627Z" fill="white"/>
<path d="M323.298 64.907C323.378 65.7171 323.019 66.4076 322.488 66.4608C321.957 66.5139 321.478 65.903 321.399 65.1328C321.319 64.3625 321.678 63.6454 322.209 63.5923C322.74 63.5392 323.218 64.1102 323.298 64.907Z" fill="#263238"/>
<path d="M314.241 65.8095C314.321 66.6063 313.962 67.2968 313.431 67.35C312.9 67.4031 312.422 66.7922 312.342 66.022C312.262 65.2517 312.621 64.5213 313.152 64.4682C313.683 64.4151 314.161 64.9994 314.241 65.8095Z" fill="#263238"/>
<path d="M317.163 65.916C316.447 68.4625 315.384 70.898 314.002 73.1536C314.589 73.4899 315.243 73.6938 315.917 73.7512C316.592 73.8085 317.271 73.7179 317.906 73.4856L317.163 65.916Z" fill="#BA4D3C"/>
<path d="M320.416 75.4777C320.355 75.4815 320.294 75.4616 320.247 75.422C320.2 75.3824 320.17 75.3263 320.164 75.2653C320.16 75.2338 320.163 75.202 320.171 75.1716C320.18 75.1412 320.195 75.1128 320.214 75.0881C320.234 75.0634 320.259 75.0428 320.286 75.0276C320.314 75.0125 320.345 75.003 320.376 74.9997C321.375 74.9256 322.342 74.6162 323.198 74.0969C324.055 73.5776 324.776 72.8631 325.303 72.0117C325.332 71.9556 325.381 71.913 325.441 71.8931C325.5 71.8732 325.565 71.8777 325.622 71.9054C325.676 71.9362 325.716 71.9858 325.736 72.0445C325.755 72.1033 325.753 72.1673 325.728 72.2242C325.168 73.152 324.393 73.9317 323.468 74.4979C322.544 75.0641 321.497 75.4001 320.416 75.4777Z" fill="#263238"/>
<path d="M325.728 61.7192C325.655 61.7253 325.582 61.7153 325.513 61.6901C325.444 61.6649 325.382 61.625 325.33 61.5731C324.945 61.1151 324.456 60.7556 323.904 60.5246C323.352 60.2936 322.752 60.1978 322.156 60.2451C322.033 60.2645 321.907 60.2351 321.805 60.1632C321.704 60.0913 321.634 59.9825 321.611 59.86C321.6 59.7989 321.601 59.7361 321.614 59.6753C321.628 59.6146 321.653 59.5571 321.689 59.5064C321.725 59.4556 321.771 59.4125 321.823 59.3798C321.876 59.347 321.935 59.3252 321.997 59.3156C322.736 59.2378 323.484 59.3383 324.177 59.6086C324.87 59.8789 325.489 60.3112 325.981 60.8693C326.027 60.9128 326.064 60.9652 326.089 61.0235C326.114 61.0817 326.127 61.1445 326.127 61.2079C326.127 61.2714 326.114 61.3342 326.089 61.3924C326.064 61.4506 326.027 61.5031 325.981 61.5466C325.915 61.6276 325.827 61.6876 325.728 61.7192Z" fill="#263238"/>
<path d="M309.859 62.9946C309.789 63.0085 309.717 63.0085 309.647 62.9946C309.533 62.9424 309.444 62.8479 309.4 62.7312C309.355 62.6146 309.358 62.4851 309.407 62.3704C309.696 61.6788 310.145 61.0661 310.718 60.5833C311.29 60.1005 311.97 59.7616 312.701 59.5949C312.766 59.5721 312.836 59.5638 312.905 59.5707C312.974 59.5776 313.041 59.5994 313.101 59.6347C313.161 59.67 313.212 59.7179 313.252 59.775C313.291 59.8322 313.317 59.8972 313.329 59.9657C313.341 60.0341 313.338 60.1043 313.319 60.1713C313.301 60.2383 313.269 60.3006 313.224 60.3538C313.18 60.4069 313.124 60.4498 313.061 60.4792C312.998 60.5087 312.93 60.5242 312.86 60.5245C312.283 60.6652 311.747 60.9408 311.297 61.3286C310.847 61.7164 310.495 62.2054 310.271 62.7555C310.23 62.8288 310.17 62.8897 310.098 62.9318C310.025 62.9739 309.943 62.9956 309.859 62.9946Z" fill="#263238"/>
<path d="M341.664 96.8721C346.87 96.8721 359.419 97.151 360.641 101.799C361.863 106.447 360.522 113.977 358.862 118.399C361.305 125.145 360.522 135.105 358.198 138.213C360.747 145.729 359.087 151.267 357.534 153.923C358.755 156.911 359.858 165.437 357.985 169.633C359.526 175.609 361.292 185.569 358.53 187.574C354.771 190.23 344.772 191.558 337.707 189.885C330.642 188.212 333.417 173.949 333.962 170.629C330.867 166.539 334.187 154.255 334.187 154.255C332.634 150.829 334.958 137.987 334.958 137.987C333.085 134.893 335.515 118.067 335.515 118.067C333.497 114.694 332.62 96.8721 341.664 96.8721Z" fill="#263238"/>
<path d="M303.431 99.9664C307.521 98.1603 321.226 94.8801 318.57 98.4923C314.719 103.738 317.083 109.262 314.799 115.756C316.817 121.958 316.127 132.091 314.254 135.676C315.917 140.878 315.748 146.493 313.776 151.586C314.772 154.242 315.688 162.568 314.135 167.19C315.463 172.82 316.472 184.175 314.135 186.738C312.452 188.591 310.222 189.859 307.77 190.358C305.317 190.858 302.769 190.562 300.496 189.513C297.242 188.185 295.795 177.322 297.402 173.577C294.241 166.685 296.817 156.473 296.817 156.473C293.763 151.161 296.127 140.019 296.127 140.019C293.099 130.139 296.817 119.209 296.817 119.209C295.184 116.248 296.91 102.848 303.431 99.9664Z" fill="#263238"/>
<path d="M312.448 101.188C311.904 100.785 311.461 100.26 311.155 99.6565C310.848 99.0526 310.686 98.3858 310.682 97.7087C310.671 97.2548 310.75 96.8032 310.915 96.3802C311.08 95.9571 311.327 95.5709 311.642 95.2437C311.957 94.9165 312.333 94.6549 312.749 94.474C313.166 94.2931 313.614 94.1963 314.068 94.1895C315.623 94.3186 317.134 94.7709 318.504 95.5175C320.588 96.54 321.359 97.4829 321.452 99.0234C321.545 100.564 317.747 105.982 315.662 104.694C313.577 103.406 313.616 102.516 312.448 101.188Z" fill="#263238"/>
<path opacity="0.2" d="M352.74 120.178C353.776 115.703 356.405 116.101 359.021 117.934L358.835 118.452C361.279 125.198 360.495 135.158 358.171 138.266C358.317 138.691 358.45 139.116 358.57 139.594C355.316 136.407 350.801 128.624 352.74 120.178Z" fill="black"/>
<path d="M353.191 131.107L344.36 135.145L343.497 163.67L319.5 179.128L346.365 188.769L353.656 216.352L362.501 212.328L367.441 167.335L353.191 131.107Z" fill="#9468B4"/>
<path opacity="0.3" d="M353.191 131.107L344.36 135.145L343.497 163.67L319.5 179.128L346.365 188.769L353.656 216.352L362.501 212.328L367.441 167.335L353.191 131.107Z" fill="black"/>
<path d="M408.463 191.345L399.618 195.382L371.119 193.789L383.045 185.741L408.463 191.345Z" fill="#9468B4"/>
<path opacity="0.3" d="M408.463 191.345L399.618 195.382L371.119 193.789L383.045 185.741L408.463 191.345Z" fill="black"/>
<path d="M353.192 131.107L375.316 149.142L402.713 141.147L392.394 167.76L408.463 191.345L379.964 189.752L362.501 212.328L355.197 184.732L328.345 175.091L352.328 159.633L353.192 131.107Z" fill="#9468B4"/>
<path d="M367.096 187.814L366.896 196.831L377.52 196.233C377.52 196.233 378.955 190.589 372.846 186.658L367.096 187.814Z" fill="white"/>
<path d="M370.309 205.86L377.667 201.624L377.534 196.232L366.896 196.83L370.309 205.86Z" fill="white"/>
<path d="M361 101.533C361.863 102.33 362.514 102.941 363.231 103.644C363.948 104.348 364.559 104.972 365.303 105.716C366.631 107.111 367.959 108.545 369.287 109.992C371.884 112.963 374.326 116.066 376.604 119.288C379.011 122.655 381.147 126.207 382.992 129.912C385.212 134.202 386.634 138.859 387.188 143.657C387.27 144.367 387.31 145.081 387.308 145.795V146.911V147.681L387.082 150.695C386.843 152.674 386.604 154.679 386.272 156.552C385.657 160.34 384.85 164.094 383.855 167.8C381.945 175.086 379.412 182.195 376.285 189.048C375.775 190.202 374.87 191.137 373.734 191.685C372.597 192.233 371.303 192.358 370.082 192.039C368.861 191.719 367.794 190.976 367.072 189.941C366.349 188.906 366.019 187.648 366.139 186.392V186.18C366.71 179.168 367.467 172.023 367.852 165.091C368.118 161.612 368.224 158.172 368.304 154.812C368.304 153.126 368.304 151.479 368.304 149.832L368.198 147.442V146.858V146.605C368.17 146.417 368.13 146.231 368.078 146.047C367.388 143.711 366.388 141.478 365.104 139.407C363.485 136.759 361.712 134.209 359.792 131.771C357.786 129.222 355.635 126.685 353.404 124.189C352.288 122.94 351.133 121.719 349.991 120.483L348.264 118.664L346.631 116.978L346.365 116.699C344.472 114.706 343.424 112.057 343.443 109.308C343.461 106.559 344.544 103.925 346.465 101.958C348.385 99.991 350.993 98.845 353.741 98.7608C356.489 98.6767 359.162 99.6608 361.199 101.506L361 101.533Z" fill="#263238"/>
<path d="M345.648 100.019C346.976 99.8331 347.321 96.7255 346.259 94.707C345.396 93.047 342.275 93.2727 339.486 93.9899C337.242 94.49 335.094 95.3511 333.125 96.5396C330.31 98.0934 331.332 99.9659 331.983 101.44C332.634 102.914 333.869 106.3 336.525 104.508C339.181 102.715 343.789 100.298 345.648 100.019Z" fill="#263238"/>
<path d="M379.14 433.692C378.941 429.456 380.057 422.617 369.632 427.052C363.404 429.708 372.155 436.72 372.155 436.72L379.14 433.692Z" fill="#263238"/>
<path d="M248.571 103.511H262.834C263.23 103.526 263.613 103.661 263.931 103.898C264.249 104.135 264.487 104.464 264.614 104.839L272.077 131.399C272.125 131.554 272.136 131.718 272.109 131.878C272.081 132.038 272.016 132.189 271.919 132.319C271.822 132.448 271.695 132.553 271.549 132.624C271.404 132.695 271.243 132.731 271.081 132.727H256.805C256.412 132.707 256.034 132.57 255.719 132.333C255.405 132.096 255.168 131.771 255.039 131.399L247.575 104.839C247.524 104.685 247.51 104.52 247.536 104.359C247.563 104.197 247.627 104.045 247.725 103.914C247.823 103.784 247.951 103.679 248.099 103.609C248.246 103.539 248.408 103.505 248.571 103.511Z" fill="#9468B4"/>
<path d="M256.34 121.413L253.352 111.015L248.146 113.086L250.032 125.384L256.34 121.413Z" fill="white"/>
<path opacity="0.3" d="M263.976 104.468C264.116 104.476 264.25 104.528 264.36 104.616C264.469 104.704 264.548 104.824 264.587 104.959L272.063 131.4C272.086 131.454 272.095 131.514 272.088 131.573C272.081 131.632 272.06 131.688 272.025 131.736C271.99 131.784 271.944 131.822 271.89 131.847C271.836 131.872 271.777 131.882 271.718 131.878C271.579 131.872 271.445 131.823 271.335 131.737C271.226 131.651 271.146 131.533 271.107 131.4L263.657 104.919C263.643 104.868 263.641 104.815 263.65 104.763C263.659 104.711 263.68 104.662 263.71 104.619C263.741 104.575 263.78 104.54 263.826 104.513C263.872 104.487 263.923 104.472 263.976 104.468Z" fill="black"/>
<path d="M88.7727 0.326172H78.7197V1.65417H88.7727V0.326172Z" fill="#9468B4"/>
<path d="M41.536 15.3857H40.208C40.2115 11.4042 41.7901 7.58581 44.5992 4.76425C47.4083 1.9427 51.2197 0.347218 55.2011 0.326172H73.2619V1.65417H55.2011C51.5719 1.67521 48.0983 3.13078 45.5382 5.70328C42.9782 8.27579 41.5395 11.7564 41.536 15.3857Z" fill="#9468B4"/>
<path d="M211.998 4.97461H55.201C49.4582 4.97461 44.8027 9.63005 44.8027 15.3728V41.1892C44.8027 46.932 49.4582 51.5874 55.201 51.5874H211.998C217.741 51.5874 222.396 46.932 222.396 41.1892V15.3728C222.396 9.63005 217.741 4.97461 211.998 4.97461Z" fill="#9468B4"/>
<path d="M112.385 21.2559L114.669 25.8773L119.782 26.621L116.077 30.2199L116.954 35.3194L112.385 32.9157L107.817 35.3194L108.693 30.2199L104.988 26.621L110.101 25.8773L112.385 21.2559Z" fill="white"/>
<path d="M133.128 21.2559L135.413 25.8773L140.525 26.621L136.82 30.2199L137.697 35.3194L133.128 32.9157L128.56 35.3194L129.437 30.2199L125.731 26.621L130.844 25.8773L133.128 21.2559Z" fill="white"/>
<path d="M153.872 21.2559L156.156 25.8773L161.269 26.621L157.577 30.2199L158.44 35.3194L153.872 32.9157L149.303 35.3194L150.18 30.2199L146.475 26.621L151.587 25.8773L153.872 21.2559Z" fill="white"/>
<path d="M174.615 21.2559L176.899 25.8773L182.012 26.621L178.32 30.2199L179.183 35.3194L174.615 32.9157L170.046 35.3194L170.923 30.2199L167.218 26.621L172.331 25.8773L174.615 21.2559Z" fill="white"/>
<path opacity="0.3" d="M195.358 24.2566L196.447 26.4743C196.545 26.6668 196.688 26.8327 196.863 26.9577C197.039 27.0826 197.243 27.1629 197.457 27.1914L199.9 27.55L198.134 29.2764C197.98 29.4257 197.865 29.6099 197.798 29.8134C197.731 30.0169 197.714 30.2336 197.749 30.445L198.161 32.8886L195.983 31.7996C195.788 31.7061 195.575 31.6563 195.358 31.6535C195.146 31.6527 194.937 31.7028 194.748 31.7996L192.556 32.955L192.928 30.4716C192.963 30.2602 192.946 30.0435 192.879 29.84C192.812 29.6365 192.697 29.4522 192.543 29.303L190.777 27.5766L193.22 27.218C193.44 27.1922 193.65 27.1119 193.831 26.9844C194.012 26.8568 194.158 26.686 194.256 26.4876L195.345 24.2698L195.358 24.2566ZM195.345 21.2686L193.061 25.89L187.948 26.6337L191.653 30.2458L190.777 35.3321L195.345 32.9284L199.914 35.3321L199.037 30.2458L202.742 26.6337L197.629 25.89L195.345 21.2686Z" fill="white"/>
<path opacity="0.2" d="M77.1925 44.2296C86.001 44.2296 93.1417 37.0889 93.1417 28.2803C93.1417 19.4718 86.001 12.3311 77.1925 12.3311C68.3839 12.3311 61.2432 19.4718 61.2432 28.2803C61.2432 37.0889 68.3839 44.2296 77.1925 44.2296Z" fill="white"/>
<path d="M90.3665 28.2809C90.3699 31.2114 89.3952 34.0592 87.5967 36.373C85.7982 38.6867 83.2789 40.334 80.4382 41.0537C77.5975 41.7734 74.5978 41.5244 71.9146 40.3461C69.2314 39.1678 67.0182 37.1277 65.6259 34.5491C64.5736 32.6279 64.0253 30.4714 64.0323 28.2809C64.1409 24.8612 65.5758 21.6178 68.0332 19.2372C70.4907 16.8565 73.7779 15.5254 77.1994 15.5254C80.6209 15.5254 83.9082 16.8565 86.3656 19.2372C88.8231 21.6178 90.2579 24.8612 90.3665 28.2809Z" fill="white"/>
<path d="M88.773 34.5492C87.6472 36.6383 85.9768 38.3837 83.9392 39.6003C81.9016 40.8168 79.5727 41.4592 77.1995 41.4592C74.8263 41.4592 72.4974 40.8168 70.4598 39.6003C68.4222 38.3837 66.7518 36.6383 65.626 34.5492C69.0526 32.2624 73.0799 31.042 77.1995 31.042C81.3191 31.042 85.3464 32.2624 88.773 34.5492Z" fill="#263238"/>
<path d="M83.0628 23.8317C83.0628 24.9926 82.7185 26.1275 82.0735 27.0927C81.4286 28.058 80.5118 28.8103 79.4393 29.2546C78.3667 29.6989 77.1865 29.8151 76.0479 29.5886C74.9093 29.3621 73.8634 28.8031 73.0425 27.9822C72.2216 27.1613 71.6625 26.1154 71.436 24.9768C71.2095 23.8382 71.3258 22.658 71.77 21.5854C72.2143 20.5129 72.9667 19.5961 73.9319 18.9511C74.8972 18.3062 76.0321 17.9619 77.193 17.9619C78.7498 17.9619 80.2428 18.5803 81.3436 19.6811C82.4444 20.7819 83.0628 22.2749 83.0628 23.8317Z" fill="#FFC3BD"/>
<path d="M201.189 166.964H174.615V168.292H201.189V166.964Z" fill="#9468B4"/>
<path d="M211.998 117.031H55.201C49.4582 117.031 44.8027 121.687 44.8027 127.429V153.246C44.8027 158.989 49.4582 163.644 55.201 163.644H211.998C217.741 163.644 222.396 158.989 222.396 153.246V127.429C222.396 121.687 217.741 117.031 211.998 117.031Z" fill="#9468B4"/>
<path d="M112.385 133.299L114.669 137.934L119.782 138.664L116.077 142.276L116.954 147.362L112.385 144.959L107.817 147.362L108.693 142.276L104.988 138.664L110.101 137.934L112.385 133.299Z" fill="white"/>
<path d="M133.128 133.299L135.413 137.934L140.525 138.664L136.82 142.276L137.697 147.362L133.128 144.959L128.56 147.362L129.437 142.276L125.731 138.664L130.844 137.934L133.128 133.299Z" fill="white"/>
<path d="M153.872 133.299L156.156 137.934L161.269 138.664L157.577 142.276L158.44 147.362L153.872 144.959L149.303 147.362L150.18 142.276L146.475 138.664L151.587 137.934L153.872 133.299Z" fill="white"/>
<path d="M174.615 133.299L176.899 137.934L182.012 138.664L178.32 142.276L179.183 147.362L174.615 144.959L170.046 147.362L170.923 142.276L167.218 138.664L172.331 137.934L174.615 133.299Z" fill="white"/>
<path d="M195.358 133.299L197.642 137.934L202.755 138.664L199.063 142.276L199.926 147.362L195.358 144.959L190.79 147.362L191.666 142.276L187.961 138.664L193.074 137.934L195.358 133.299Z" fill="white"/>
<path opacity="0.2" d="M88.4791 151.613C94.7076 145.384 94.7076 135.286 88.479 129.057C82.2505 122.829 72.1519 122.829 65.9234 129.057C59.6948 135.286 59.6948 145.384 65.9233 151.613C72.1519 157.841 82.2505 157.841 88.4791 151.613Z" fill="white"/>
<path d="M90.3665 140.324C90.3729 143.256 89.4003 146.105 87.6028 148.421C85.8054 150.737 83.2862 152.387 80.4447 153.108C77.6032 153.83 74.6021 153.582 71.9176 152.404C69.2331 151.226 67.0188 149.185 65.6259 146.605C64.5735 144.679 64.0254 142.519 64.0323 140.324C64.1409 136.904 65.5758 133.661 68.0332 131.28C70.4907 128.9 73.7779 127.568 77.1994 127.568C80.6209 127.568 83.9082 128.9 86.3656 131.28C88.8231 133.661 90.2579 136.904 90.3665 140.324Z" fill="white"/>
<path opacity="0.5" d="M88.773 146.606C87.6441 148.691 85.9727 150.433 83.9355 151.647C81.8982 152.86 79.5709 153.501 77.1995 153.501C74.8281 153.501 72.5008 152.86 70.4635 151.647C68.4263 150.433 66.7549 148.691 65.626 146.606C69.0526 144.319 73.0799 143.099 77.1995 143.099C81.3191 143.099 85.3464 144.319 88.773 146.606Z" fill="#9468B4"/>
<path d="M83.0627 135.822C83.0654 136.984 82.7234 138.12 82.08 139.087C81.4366 140.054 80.5208 140.808 79.4485 141.255C78.3761 141.701 77.1955 141.819 76.056 141.594C74.9165 141.369 73.8694 140.811 73.0472 139.991C72.2249 139.17 71.6646 138.125 71.437 136.986C71.2094 135.847 71.3249 134.666 71.7688 133.592C72.2127 132.519 72.965 131.602 73.9305 130.956C74.8961 130.31 76.0315 129.966 77.193 129.966C78.7474 129.966 80.2384 130.582 81.3388 131.68C82.4393 132.778 83.0592 134.268 83.0627 135.822Z" fill="#FFB573"/>
<path d="M211.998 61.0029H55.201C49.4582 61.0029 44.8027 65.6584 44.8027 71.4012V97.2175C44.8027 102.96 49.4582 107.616 55.201 107.616H211.998C217.741 107.616 222.396 102.96 222.396 97.2175V71.4012C222.396 65.6584 217.741 61.0029 211.998 61.0029Z" fill="#9468B4"/>
<path d="M217.576 88.293L206.421 107.615H234.309L217.576 88.293Z" fill="#9468B4"/>
<path d="M112.385 77.2705L114.669 81.9052L119.782 82.6489L116.077 86.2478L116.954 91.334L112.385 88.9304L107.817 91.334L108.693 86.2478L104.988 82.6489L110.101 81.9052L112.385 77.2705Z" fill="white"/>
<path d="M133.128 77.2705L135.413 81.9052L140.525 82.6489L136.82 86.2478L137.697 91.334L133.128 88.9304L128.56 91.334L129.437 86.2478L125.731 82.6489L130.844 81.9052L133.128 77.2705Z" fill="white"/>
<path opacity="0.3" d="M153.871 80.2722L154.96 82.4899C155.056 82.6849 155.198 82.8535 155.374 82.9808C155.55 83.1082 155.754 83.1904 155.969 83.2203L158.4 83.5922L156.633 85.3186C156.48 85.4679 156.364 85.6521 156.297 85.8556C156.23 86.0591 156.213 86.2758 156.248 86.4872L156.66 88.9308L154.482 87.7754C154.29 87.6718 154.076 87.6171 153.858 87.616C153.644 87.6153 153.433 87.6702 153.247 87.7754L151.056 88.9308L151.468 86.4872C151.502 86.2758 151.486 86.0591 151.418 85.8556C151.351 85.6521 151.236 85.4679 151.082 85.3186L149.316 83.5922L151.76 83.2336C151.975 83.2037 152.179 83.1215 152.355 82.9941C152.531 82.8668 152.673 82.6982 152.769 82.5032L153.858 80.2855L153.871 80.2722ZM153.858 77.2842L151.574 81.9189L146.461 82.6626L150.166 86.2615L149.29 91.3477L153.858 88.944L158.426 91.3477L157.55 86.2615L161.255 82.6626L156.142 81.9189L153.858 77.2842Z" fill="white"/>
<path opacity="0.3" d="M174.615 80.2718L175.704 82.4895C175.799 82.6845 175.941 82.8531 176.117 82.9804C176.293 83.1078 176.498 83.19 176.713 83.2199L179.156 83.5785L177.39 85.3049C177.237 85.4542 177.121 85.6384 177.054 85.8419C176.987 86.0454 176.97 86.2621 177.005 86.4735L177.417 88.9171L175.239 87.7617C175.047 87.6582 174.833 87.6034 174.615 87.6024C174.401 87.6017 174.19 87.6566 174.004 87.7617L171.813 88.9171L172.224 86.4735C172.259 86.2621 172.242 86.0454 172.175 85.8419C172.108 85.6384 171.993 85.4542 171.839 85.3049L170.073 83.5785L172.516 83.2199C172.732 83.19 172.936 83.1078 173.112 82.9804C173.288 82.8531 173.43 82.6845 173.526 82.4895L174.615 80.2718ZM174.615 77.2705L172.331 81.9052L167.218 82.6489L170.923 86.2478L170.046 91.334L174.615 88.9304L179.183 91.334L178.32 86.2478L182.025 82.6489L176.912 81.9052L174.628 77.2705H174.615Z" fill="white"/>
<path opacity="0.3" d="M195.358 80.2718L196.447 82.4895C196.543 82.6845 196.685 82.8531 196.861 82.9804C197.036 83.1078 197.241 83.19 197.456 83.2199L199.9 83.5785L198.133 85.3049C197.98 85.4542 197.864 85.6384 197.797 85.8419C197.73 86.0454 197.713 86.2621 197.748 86.4735L198.16 88.9171L195.982 87.7617C195.79 87.6582 195.576 87.6034 195.358 87.6024C195.144 87.6017 194.933 87.6566 194.747 87.7617L192.556 88.9171L192.968 86.4735C193.002 86.2621 192.986 86.0454 192.918 85.8419C192.851 85.6384 192.736 85.4542 192.582 85.3049L190.816 83.5785L193.26 83.2199C193.475 83.19 193.679 83.1078 193.855 82.9804C194.031 82.8531 194.173 82.6845 194.269 82.4895L195.358 80.2718ZM195.358 77.2705L193.074 81.9052L187.961 82.6489L191.666 86.2478L190.79 91.334L195.358 88.9304L199.926 91.334L199.05 86.2478L202.755 82.6489L197.642 81.9052L195.358 77.2705Z" fill="white"/>
<path opacity="0.2" d="M77.1925 100.258C86.001 100.258 93.1417 93.1172 93.1417 84.3086C93.1417 75.5001 86.001 68.3594 77.1925 68.3594C68.3839 68.3594 61.2432 75.5001 61.2432 84.3086C61.2432 93.1172 68.3839 100.258 77.1925 100.258Z" fill="white"/>
<path d="M90.3662 84.3088C90.3697 87.2393 89.3949 90.0871 87.5964 92.4008C85.7979 94.7145 83.2787 96.3618 80.4379 97.0815C77.5972 97.8012 74.5975 97.5522 71.9143 96.3739C69.2311 95.1957 67.018 93.1555 65.6256 90.5769C64.5733 88.6558 64.025 86.4992 64.032 84.3088C63.976 82.5444 64.2751 80.7869 64.9116 79.1404C65.5481 77.4939 66.509 75.9922 67.7372 74.7243C68.9654 73.4565 70.4359 72.4484 72.0613 71.76C73.6867 71.0716 75.4339 70.7168 77.1991 70.7168C78.9643 70.7168 80.7115 71.0716 82.337 71.76C83.9624 72.4484 85.4329 73.4565 86.6611 74.7243C87.8893 75.9922 88.8502 77.4939 89.4867 79.1404C90.1232 80.7869 90.4223 82.5444 90.3662 84.3088Z" fill="white"/>
<path d="M88.773 90.5775C87.6441 92.6629 85.9727 94.4046 83.9355 95.6183C81.8982 96.8321 79.5709 97.4728 77.1995 97.4728C74.8281 97.4728 72.5008 96.8321 70.4635 95.6183C68.4263 94.4046 66.7549 92.6629 65.626 90.5775C69.0526 88.2907 73.0799 87.0703 77.1995 87.0703C81.3191 87.0703 85.3464 88.2907 88.773 90.5775Z" fill="#9468B4"/>
<path d="M83.0628 79.8073C83.0628 80.9682 82.7185 82.1031 82.0735 83.0683C81.4285 84.0336 80.5118 84.786 79.4393 85.2302C78.3667 85.6745 77.1865 85.7907 76.0479 85.5643C74.9092 85.3378 73.8634 84.7787 73.0425 83.9578C72.2216 83.1369 71.6625 82.091 71.436 80.9524C71.2095 79.8138 71.3258 78.6336 71.77 77.561C72.2143 76.4885 72.9667 75.5717 73.9319 74.9267C74.8972 74.2818 76.0321 73.9375 77.193 73.9375C77.9643 73.9358 78.7284 74.0864 79.4413 74.3808C80.1543 74.6751 80.8021 75.1074 81.3475 75.6528C81.8929 76.1982 82.3252 76.846 82.6195 77.559C82.9139 78.2719 83.0645 79.036 83.0628 79.8073Z" fill="#B55B52"/>
</svg>
