<svg width="694" height="637" viewBox="0 0 694 637" fill="none" xmlns="http://www.w3.org/2000/svg">
<circle cx="448.5" cy="564.5" r="46.5" fill="#9468B4" fill-opacity="0.1"/>
<circle cx="157" cy="185" r="157" fill="#9468B4" fill-opacity="0.15"/>
<circle cx="590" cy="469" r="104" fill="#9468B4" fill-opacity="0.15"/>
<circle cx="521" cy="611" r="26" fill="#9468B4" fill-opacity="0.1"/>
<circle cx="341.5" cy="46.5" r="46.5" fill="#9468B4" fill-opacity="0.1"/>
<path d="M299 553.799C441.205 553.799 556.486 547.069 556.486 538.766C556.486 530.464 441.205 523.733 299 523.733C156.794 523.733 41.5137 530.464 41.5137 538.766C41.5137 547.069 156.794 553.799 299 553.799Z" fill="#5F556C"/>
<path d="M359.703 201.627L359.238 203.194L358.813 204.522C358.521 205.412 358.202 206.236 357.883 207.086C357.246 208.746 356.555 210.366 355.799 211.973C354.325 215.168 352.662 218.272 350.819 221.269C349.902 222.769 348.933 224.217 347.95 225.664C346.967 227.112 345.918 228.506 344.816 229.874C342.655 232.639 340.336 235.278 337.871 237.776L337.353 238.307C336.638 239.04 335.791 239.63 334.856 240.046C332.089 241.257 329.082 241.816 326.065 241.68C323.438 241.538 320.857 240.931 318.442 239.887C316.418 239.032 314.505 237.935 312.745 236.62C311.165 235.467 309.669 234.202 308.269 232.835C305.725 230.289 303.431 227.505 301.417 224.522C300.434 223.088 299.531 221.614 298.668 220.126C297.805 218.639 297.061 217.152 296.251 215.439C295.723 214.322 295.6 213.057 295.903 211.86C296.207 210.663 296.918 209.609 297.915 208.879C298.912 208.15 300.131 207.79 301.364 207.863C302.597 207.936 303.766 208.435 304.671 209.277L305.016 209.595L308.256 212.57C309.358 213.579 310.487 214.549 311.616 215.478C313.754 217.292 316.017 218.952 318.389 220.445C320.244 221.682 322.303 222.581 324.471 223.101C325.022 223.257 325.606 223.257 326.158 223.101C326.34 223.02 326.49 222.88 326.583 222.703L323.528 225.014C325.215 222.729 326.848 220.419 328.349 218.028C329.849 215.638 331.284 213.168 332.625 210.684C333.966 208.201 335.201 205.638 336.343 203.075C336.928 201.747 337.446 200.499 337.977 199.224L339.305 195.744L339.677 194.788C340.737 192.339 342.68 190.378 345.12 189.296C347.559 188.214 350.317 188.09 352.844 188.948C355.371 189.807 357.483 191.585 358.759 193.93C360.034 196.274 360.381 199.013 359.729 201.601L359.703 201.627Z" fill="#263238"/>
<path d="M300.01 215.505L291.032 212.384L289.146 200.087C289.146 200.087 304.193 204.071 304.126 211.322L300.01 215.505Z" fill="white"/>
<path d="M352.891 151.442C347.034 149.384 338.947 142.372 342.121 133.302C344.538 126.423 353.488 125.812 357.008 127.87C360.527 129.928 360.673 125.705 365.175 124.085C369.677 122.465 372.851 126.542 375.135 128.68C377.419 130.818 380.088 129.198 383.475 129.344C386.861 129.49 389.278 133.926 387.392 137.166C384.072 142.85 389.557 146.462 385.4 150.898C379.278 157.338 384.072 163.66 375.44 170.074C370.195 174.005 355.294 166.794 352.891 151.442Z" fill="#263238"/>
<path d="M352.784 157.445C352.566 157.575 352.321 157.652 352.067 157.671C351.627 157.708 351.191 157.569 350.852 157.286C350.514 157.002 350.302 156.596 350.261 156.157C349.969 153.521 350.313 150.854 351.265 148.379C352.217 145.904 353.749 143.694 355.733 141.934C355.904 141.797 356.101 141.696 356.313 141.637C356.524 141.577 356.745 141.561 356.963 141.588C357.18 141.615 357.391 141.686 357.581 141.795C357.771 141.905 357.937 142.051 358.07 142.226C358.206 142.397 358.308 142.593 358.368 142.803C358.429 143.013 358.447 143.233 358.422 143.45C358.398 143.667 358.33 143.877 358.224 144.068C358.118 144.259 357.976 144.427 357.804 144.563C356.253 145.975 355.061 147.737 354.329 149.703C353.596 151.669 353.345 153.782 353.594 155.865C353.621 156.177 353.56 156.492 353.416 156.771C353.273 157.05 353.054 157.284 352.784 157.445Z" fill="#263238"/>
<path d="M343.235 188.347C343.235 188.347 331.456 218.492 342.638 274.667H396.037C396.408 266.473 391.256 226.487 399.157 187.869C393.254 186.733 387.283 185.979 381.282 185.611C373.724 185.173 366.146 185.173 358.587 185.611C353.406 186.119 348.273 187.034 343.235 188.347Z" fill="white"/>
<path d="M379.038 159.968C377.604 167.272 376.183 180.658 381.283 185.532C381.283 185.532 372.73 192.464 363.74 199.476C361.753 197.792 360.235 195.623 359.332 193.18C358.43 190.738 358.173 188.103 358.587 185.532C366.728 183.593 366.555 177.564 365.108 171.867L379.038 159.968Z" fill="white"/>
<path opacity="0.2" d="M373.368 164.868L365.121 171.907C365.473 173.211 365.709 174.544 365.825 175.891C368.481 178.414 373.209 172.026 373.541 168.772C373.716 167.471 373.657 166.149 373.368 164.868Z" fill="black"/>
<path d="M378.946 147.684C379.317 157.591 380.034 163.368 375.572 168.932C368.839 177.272 356.25 173.965 352.93 164.364C349.942 155.732 349.836 140.991 359.092 136.13C361.123 135.048 363.396 134.502 365.697 134.545C367.997 134.588 370.249 135.218 372.238 136.376C374.227 137.533 375.887 139.179 377.061 141.158C378.235 143.138 378.883 145.384 378.946 147.684Z" fill="white"/>
<path d="M378.68 156.847C375.958 162.159 372.824 145.36 373.62 142.558C363.992 145.214 349.225 144.337 350.367 137.618C351.695 130.035 360.513 129.743 370.287 130.672C386.422 132.226 381.628 151.084 378.68 156.847Z" fill="#263238"/>
<path d="M373.913 157.79C373.662 157.805 373.412 157.759 373.182 157.657C372.981 157.569 372.799 157.443 372.646 157.284C372.494 157.126 372.374 156.939 372.294 156.734C372.214 156.529 372.175 156.311 372.179 156.091C372.183 155.871 372.231 155.654 372.319 155.453C373.324 153 374.902 150.824 376.922 149.107C378.941 147.39 381.343 146.182 383.926 145.586C384.357 145.508 384.802 145.604 385.162 145.853C385.523 146.102 385.771 146.483 385.851 146.914C385.922 147.344 385.823 147.785 385.576 148.144C385.328 148.503 384.951 148.752 384.523 148.839C382.48 149.345 380.586 150.332 379.001 151.718C377.417 153.104 376.186 154.849 375.413 156.807C375.286 157.1 375.077 157.349 374.81 157.523C374.543 157.698 374.231 157.791 373.913 157.79Z" fill="#263238"/>
<path d="M383.886 154.656C383.362 157.042 381.983 159.153 380.008 160.592C377.419 162.398 375.374 160.18 375.44 157.059C375.506 154.257 376.941 149.955 379.836 149.397C382.731 148.839 384.537 151.721 383.886 154.656Z" fill="white"/>
<path d="M337.22 525.659C335.985 525.964 334.75 526.084 334.219 525.659C334.083 525.534 333.99 525.369 333.952 525.188C333.914 525.007 333.933 524.819 334.007 524.65C334.052 524.497 334.128 524.356 334.231 524.235C334.334 524.113 334.461 524.015 334.604 523.946C336.105 523.109 339.916 524.198 340.089 524.251C340.138 524.263 340.181 524.292 340.212 524.331C340.243 524.371 340.26 524.42 340.26 524.47C340.26 524.521 340.243 524.57 340.212 524.61C340.181 524.649 340.138 524.677 340.089 524.69C339.162 525.095 338.203 525.419 337.22 525.659ZM335.255 524.158C335.107 524.193 334.964 524.246 334.83 524.318C334.743 524.36 334.664 524.419 334.601 524.492C334.537 524.565 334.488 524.65 334.458 524.743C334.352 525.075 334.458 525.194 334.525 525.261C335.122 525.779 337.566 525.194 339.305 524.49C337.989 524.12 336.614 524.007 335.255 524.158Z" fill="#263238"/>
<path d="M340.075 524.663H339.982C338.654 524.438 335.892 522.91 335.812 521.768C335.812 521.503 335.905 521.131 336.516 520.918C336.952 520.769 337.429 520.798 337.844 520.998C339.305 521.702 340.168 524.252 340.208 524.358C340.231 524.394 340.242 524.435 340.242 524.477C340.242 524.52 340.231 524.561 340.208 524.597C340.172 524.632 340.125 524.655 340.075 524.663ZM336.808 521.317H336.676C336.264 521.45 336.277 521.622 336.291 521.675C336.291 522.366 338.283 523.614 339.637 524.039C339.274 522.971 338.587 522.042 337.672 521.383C337.399 521.265 337.096 521.242 336.808 521.317Z" fill="#263238"/>
<path d="M354.59 527.824L344.59 529.298L344.909 506.377L354.908 504.916L354.59 527.824Z" fill="white"/>
<path d="M343.09 523.375H356.197C356.39 523.37 356.578 523.437 356.725 523.562C356.872 523.687 356.968 523.861 356.994 524.053L358.322 532.884C358.348 533.105 358.327 533.33 358.26 533.543C358.194 533.755 358.083 533.952 357.935 534.119C357.787 534.285 357.605 534.419 357.402 534.511C357.198 534.602 356.978 534.65 356.755 534.65C352.837 534.584 347.207 534.358 342.28 534.358C336.529 534.358 331.364 534.663 324.617 534.663C320.54 534.663 319.783 530.799 321.47 530.175C329.013 527.346 333.05 526.868 340.686 524.146C341.439 523.757 342.251 523.497 343.09 523.375Z" fill="#263238"/>
<path opacity="0.2" d="M344.909 506.39L344.736 518.196L354.749 516.722L354.922 504.916L344.909 506.39Z" fill="black"/>
<path d="M349.464 524.079C349.398 519.843 350.726 513.03 340.168 517.2C333.873 519.67 342.412 526.935 342.412 526.935L349.464 524.079Z" fill="#263238"/>
<path d="M342.638 274.627C342.638 274.627 337.326 355.064 338.827 383.669C340.287 410.774 341.111 487.665 341.297 507.837C341.304 508.451 341.442 509.056 341.701 509.612C341.96 510.168 342.334 510.662 342.799 511.063C343.263 511.464 343.808 511.761 344.396 511.935C344.984 512.109 345.603 512.157 346.21 512.074L353.275 511.118C354.218 510.989 355.093 510.554 355.765 509.88C356.437 509.206 356.869 508.329 356.994 507.386C361.562 471.782 366.994 416.856 368.175 387.454C369.503 353.896 377.764 274.574 377.764 274.574L342.638 274.627Z" fill="#9468B4"/>
<path opacity="0.2" d="M342.638 274.627C342.638 274.627 337.326 355.064 338.827 383.669C340.287 410.774 341.111 487.665 341.297 507.837C341.304 508.451 341.442 509.056 341.701 509.612C341.96 510.168 342.334 510.662 342.799 511.063C343.263 511.464 343.808 511.761 344.396 511.935C344.984 512.109 345.603 512.157 346.21 512.074L353.275 511.118C354.218 510.989 355.093 510.554 355.765 509.88C356.437 509.206 356.869 508.329 356.994 507.386C361.562 471.782 366.994 416.856 368.175 387.454C369.503 353.896 377.764 274.574 377.764 274.574L342.638 274.627Z" fill="white"/>
<path d="M409.304 524.344C408.148 524.862 406.953 525.208 406.342 524.849C406.186 524.753 406.065 524.61 405.996 524.44C405.926 524.271 405.913 524.084 405.957 523.906C405.971 523.746 406.02 523.59 406.101 523.45C406.181 523.31 406.29 523.189 406.422 523.096C407.75 522.007 411.734 522.406 411.867 522.419C411.916 522.422 411.962 522.441 412 522.472C412.038 522.503 412.066 522.544 412.079 522.591C412.089 522.638 412.086 522.686 412.069 522.731C412.053 522.776 412.024 522.815 411.986 522.844C411.138 523.423 410.241 523.925 409.304 524.344ZM407.099 523.216C406.963 523.281 406.833 523.361 406.714 523.455C406.632 523.51 406.564 523.583 406.514 523.668C406.463 523.753 406.432 523.848 406.422 523.946C406.422 524.278 406.502 524.398 406.581 524.437C407.259 524.849 409.556 523.826 411.15 522.844C409.788 522.706 408.413 522.832 407.099 523.216Z" fill="#263238"/>
<path d="M411.88 522.871C410.552 522.871 407.551 521.875 407.272 520.759C407.206 520.507 407.272 520.122 407.817 519.803C408.015 519.687 408.236 519.614 408.464 519.586C408.692 519.559 408.924 519.578 409.145 519.644C410.712 520.082 412.026 522.419 412.079 522.526C412.099 522.562 412.11 522.603 412.11 522.645C412.11 522.687 412.099 522.728 412.079 522.765C412.055 522.795 412.025 522.819 411.991 522.838C411.956 522.856 411.919 522.867 411.88 522.871ZM408.069 520.215H407.949C407.578 520.427 407.617 520.587 407.631 520.64C407.803 521.304 409.941 522.194 411.349 522.379C410.806 521.386 409.965 520.588 408.945 520.095C408.671 520.022 408.381 520.046 408.122 520.162L408.069 520.215Z" fill="#263238"/>
<path d="M427.364 523.454L417.936 526.655L411.681 504.491L421.096 501.29L427.364 523.454Z" fill="white"/>
<path opacity="0.2" d="M367.418 303.392C364.669 314.401 365.4 360.15 368.242 385.94C368.919 370.841 370.831 347.561 372.77 326.18L367.418 303.392Z" fill="black"/>
<path d="M414.311 521.277L427.219 518.953C427.412 518.914 427.612 518.945 427.785 519.04C427.957 519.135 428.091 519.287 428.162 519.47L431.548 527.837C431.631 528.04 431.667 528.259 431.653 528.478C431.639 528.697 431.577 528.91 431.47 529.101C431.362 529.293 431.214 529.457 431.034 529.583C430.855 529.709 430.649 529.793 430.433 529.829C426.568 530.466 420.964 531.237 416.117 532.113C410.459 533.136 410.42 533.441 403.78 534.663C399.796 535.393 398.082 531.768 399.583 530.851C406.329 526.761 405.227 526.482 412.08 522.472C412.748 521.946 413.503 521.541 414.311 521.277Z" fill="#263238"/>
<path opacity="0.2" d="M411.681 504.504L414.908 515.925L424.336 512.725L421.109 501.304L411.681 504.504Z" fill="black"/>
<path d="M361.589 274.627C361.589 274.627 368.468 355.078 373.767 383.669C378.866 411.186 401.934 489.564 408.733 507.373C409.128 508.412 409.91 509.259 410.914 509.737C411.919 510.214 413.069 510.285 414.125 509.936L420.937 507.718C421.938 507.391 422.786 506.71 423.321 505.803C423.857 504.896 424.043 503.825 423.846 502.791C417.073 467.825 406.289 416.723 403.607 387.454C400.539 353.896 396.037 274.574 396.037 274.574L361.589 274.627Z" fill="#9468B4"/>
<path opacity="0.2" d="M361.589 274.627C361.589 274.627 368.468 355.078 373.767 383.669C378.866 411.186 401.934 489.564 408.733 507.373C409.128 508.412 409.91 509.259 410.914 509.737C411.919 510.214 413.069 510.285 414.125 509.936L420.937 507.718C421.938 507.391 422.786 506.71 423.321 505.803C423.857 504.896 424.043 503.825 423.846 502.791C417.073 467.825 406.289 416.723 403.607 387.454C400.539 353.896 396.037 274.574 396.037 274.574L361.589 274.627Z" fill="white"/>
<path d="M364.298 151.907C364.378 152.717 364.019 153.408 363.488 153.461C362.957 153.514 362.478 152.903 362.399 152.133C362.319 151.363 362.678 150.645 363.209 150.592C363.74 150.539 364.218 151.11 364.298 151.907Z" fill="#263238"/>
<path d="M355.241 152.809C355.321 153.606 354.962 154.297 354.431 154.35C353.9 154.403 353.422 153.792 353.342 153.022C353.262 152.252 353.621 151.521 354.152 151.468C354.683 151.415 355.161 151.999 355.241 152.809Z" fill="#263238"/>
<path d="M358.163 152.916C357.447 155.463 356.384 157.898 355.002 160.154C355.589 160.49 356.243 160.694 356.917 160.751C357.592 160.808 358.271 160.718 358.906 160.486L358.163 152.916Z" fill="#BA4D3C"/>
<path d="M361.416 162.478C361.355 162.482 361.294 162.462 361.247 162.422C361.2 162.382 361.17 162.326 361.164 162.265C361.16 162.234 361.163 162.202 361.171 162.172C361.18 162.141 361.195 162.113 361.214 162.088C361.234 162.063 361.259 162.043 361.286 162.028C361.314 162.012 361.345 162.003 361.376 162C362.375 161.926 363.342 161.616 364.198 161.097C365.055 160.578 365.776 159.863 366.303 159.012C366.332 158.956 366.381 158.913 366.441 158.893C366.5 158.873 366.565 158.878 366.622 158.905C366.676 158.936 366.716 158.986 366.736 159.045C366.755 159.103 366.753 159.167 366.728 159.224C366.168 160.152 365.393 160.932 364.468 161.498C363.544 162.064 362.497 162.4 361.416 162.478Z" fill="#263238"/>
<path d="M366.728 148.719C366.655 148.725 366.582 148.715 366.513 148.69C366.444 148.665 366.382 148.625 366.33 148.573C365.945 148.115 365.456 147.756 364.904 147.525C364.352 147.294 363.752 147.198 363.156 147.245C363.033 147.265 362.907 147.235 362.805 147.163C362.704 147.091 362.634 146.982 362.611 146.86C362.6 146.799 362.601 146.736 362.614 146.675C362.628 146.615 362.653 146.557 362.689 146.506C362.725 146.456 362.771 146.413 362.823 146.38C362.876 146.347 362.935 146.325 362.997 146.316C363.736 146.238 364.484 146.338 365.177 146.609C365.87 146.879 366.489 147.311 366.981 147.869C367.027 147.913 367.064 147.965 367.089 148.023C367.114 148.082 367.127 148.144 367.127 148.208C367.127 148.271 367.114 148.334 367.089 148.392C367.064 148.451 367.027 148.503 366.981 148.547C366.915 148.628 366.827 148.688 366.728 148.719Z" fill="#263238"/>
<path d="M350.859 149.995C350.789 150.009 350.717 150.009 350.647 149.995C350.533 149.942 350.444 149.848 350.4 149.731C350.355 149.615 350.358 149.485 350.407 149.37C350.696 148.679 351.145 148.066 351.718 147.583C352.29 147.101 352.97 146.762 353.701 146.595C353.766 146.572 353.836 146.564 353.905 146.571C353.974 146.578 354.041 146.599 354.101 146.635C354.161 146.67 354.212 146.718 354.252 146.775C354.291 146.832 354.317 146.897 354.329 146.966C354.341 147.034 354.338 147.104 354.319 147.171C354.301 147.238 354.269 147.301 354.224 147.354C354.18 147.407 354.124 147.45 354.061 147.479C353.998 147.509 353.93 147.524 353.86 147.525C353.283 147.665 352.747 147.941 352.297 148.329C351.847 148.716 351.495 149.205 351.271 149.756C351.23 149.829 351.17 149.89 351.098 149.932C351.025 149.974 350.943 149.996 350.859 149.995Z" fill="#263238"/>
<path d="M382.664 183.872C387.87 183.872 400.419 184.151 401.641 188.799C402.863 193.447 401.522 200.977 399.862 205.399C402.305 212.145 401.522 222.105 399.198 225.213C401.747 232.729 400.087 238.267 398.534 240.923C399.755 243.911 400.858 252.437 398.985 256.633C400.526 262.609 402.292 272.569 399.53 274.574C395.771 277.23 385.772 278.558 378.707 276.885C371.642 275.212 374.417 260.949 374.962 257.629C371.867 253.539 375.187 241.255 375.187 241.255C373.634 237.829 375.958 224.987 375.958 224.987C374.085 221.893 376.515 205.067 376.515 205.067C374.497 201.694 373.62 183.872 382.664 183.872Z" fill="#263238"/>
<path d="M344.431 186.966C348.521 185.16 362.226 181.88 359.57 185.492C355.719 190.738 358.083 196.262 355.799 202.756C357.817 208.958 357.127 219.091 355.254 222.676C356.917 227.878 356.748 233.493 354.776 238.586C355.772 241.242 356.688 249.568 355.135 254.19C356.463 259.82 357.472 271.175 355.135 273.738C353.452 275.591 351.222 276.859 348.77 277.358C346.317 277.858 343.769 277.562 341.496 276.513C338.242 275.185 336.795 264.322 338.402 260.577C335.241 253.685 337.817 243.473 337.817 243.473C334.763 238.161 337.127 227.019 337.127 227.019C334.099 217.139 337.817 206.209 337.817 206.209C336.184 203.248 337.91 189.848 344.431 186.966Z" fill="#263238"/>
<path d="M353.448 188.188C352.904 187.785 352.461 187.26 352.155 186.656C351.848 186.053 351.686 185.386 351.682 184.709C351.671 184.255 351.75 183.803 351.915 183.38C352.08 182.957 352.327 182.571 352.642 182.244C352.957 181.917 353.333 181.655 353.749 181.474C354.166 181.293 354.614 181.196 355.068 181.189C356.623 181.319 358.134 181.771 359.504 182.517C361.588 183.54 362.359 184.483 362.452 186.023C362.545 187.564 358.747 192.982 356.662 191.694C354.577 190.406 354.616 189.516 353.448 188.188Z" fill="#263238"/>
<path opacity="0.2" d="M393.74 207.178C394.776 202.703 397.405 203.101 400.021 204.934L399.835 205.452C402.279 212.198 401.495 222.158 399.171 225.266C399.317 225.691 399.45 226.116 399.57 226.594C396.316 223.407 391.801 215.624 393.74 207.178Z" fill="black"/>
<path d="M394.191 218.107L385.36 222.145L384.497 250.67L360.5 266.128L387.365 275.769L394.656 303.352L403.501 299.328L408.441 254.335L394.191 218.107Z" fill="#9468B4"/>
<path opacity="0.3" d="M394.191 218.107L385.36 222.145L384.497 250.67L360.5 266.128L387.365 275.769L394.656 303.352L403.501 299.328L408.441 254.335L394.191 218.107Z" fill="black"/>
<path d="M449.463 278.345L440.618 282.382L412.119 280.789L424.045 272.741L449.463 278.345Z" fill="#9468B4"/>
<path opacity="0.3" d="M449.463 278.345L440.618 282.382L412.119 280.789L424.045 272.741L449.463 278.345Z" fill="black"/>
<path d="M394.192 218.107L416.316 236.142L443.713 228.147L433.394 254.76L449.463 278.345L420.964 276.752L403.501 299.328L396.197 271.732L369.345 262.091L393.328 246.633L394.192 218.107Z" fill="#9468B4"/>
<path d="M408.096 274.814L407.896 283.831L418.52 283.233C418.52 283.233 419.955 277.589 413.846 273.658L408.096 274.814Z" fill="white"/>
<path d="M411.309 292.86L418.667 288.624L418.534 283.232L407.896 283.83L411.309 292.86Z" fill="white"/>
<path d="M402 188.533C402.863 189.33 403.514 189.941 404.231 190.644C404.948 191.348 405.559 191.972 406.303 192.716C407.631 194.111 408.959 195.545 410.287 196.992C412.884 199.963 415.326 203.066 417.604 206.288C420.011 209.655 422.147 213.207 423.992 216.912C426.212 221.202 427.634 225.859 428.188 230.657C428.27 231.367 428.31 232.081 428.308 232.795V233.911V234.681L428.082 237.695C427.843 239.674 427.604 241.679 427.272 243.552C426.657 247.34 425.85 251.094 424.855 254.8C422.945 262.086 420.412 269.195 417.285 276.048C416.775 277.202 415.87 278.137 414.734 278.685C413.597 279.233 412.303 279.358 411.082 279.039C409.861 278.719 408.794 277.976 408.072 276.941C407.349 275.906 407.019 274.648 407.139 273.392V273.18C407.71 266.168 408.467 259.023 408.852 252.091C409.118 248.612 409.224 245.172 409.304 241.812C409.304 240.126 409.304 238.479 409.304 236.832L409.198 234.442V233.858V233.605C409.17 233.417 409.13 233.231 409.078 233.047C408.388 230.711 407.388 228.478 406.104 226.407C404.485 223.759 402.712 221.209 400.792 218.771C398.786 216.222 396.635 213.685 394.404 211.189C393.288 209.94 392.133 208.719 390.991 207.483L389.264 205.664L387.631 203.978L387.365 203.699C385.472 201.706 384.424 199.057 384.443 196.308C384.461 193.559 385.544 190.925 387.465 188.958C389.385 186.991 391.993 185.845 394.741 185.761C397.489 185.677 400.162 186.661 402.199 188.506L402 188.533Z" fill="#263238"/>
<path d="M386.648 187.019C387.976 186.833 388.321 183.726 387.259 181.707C386.396 180.047 383.275 180.273 380.486 180.99C378.242 181.49 376.094 182.351 374.125 183.54C371.31 185.093 372.332 186.966 372.983 188.44C373.634 189.914 374.869 193.3 377.525 191.508C380.181 189.715 384.789 187.298 386.648 187.019Z" fill="#263238"/>
<path d="M420.14 520.692C419.941 516.456 421.057 509.617 410.632 514.052C404.404 516.708 413.155 523.72 413.155 523.72L420.14 520.692Z" fill="#263238"/>
<path d="M289.571 190.511H303.834C304.23 190.526 304.613 190.661 304.931 190.898C305.249 191.135 305.487 191.464 305.614 191.839L313.077 218.399C313.125 218.554 313.136 218.718 313.109 218.878C313.081 219.038 313.016 219.189 312.919 219.319C312.822 219.448 312.695 219.553 312.549 219.624C312.404 219.695 312.243 219.731 312.081 219.727H297.805C297.412 219.707 297.034 219.57 296.719 219.333C296.405 219.096 296.168 218.771 296.039 218.399L288.575 191.839C288.524 191.685 288.51 191.52 288.536 191.359C288.563 191.197 288.627 191.045 288.725 190.914C288.823 190.784 288.951 190.679 289.099 190.609C289.246 190.539 289.408 190.505 289.571 190.511Z" fill="#9468B4"/>
<path d="M297.34 208.413L294.352 198.015L289.146 200.086L291.032 212.384L297.34 208.413Z" fill="white"/>
<path opacity="0.3" d="M304.976 191.468C305.116 191.476 305.25 191.528 305.36 191.616C305.469 191.704 305.548 191.824 305.587 191.959L313.063 218.4C313.086 218.454 313.095 218.514 313.088 218.573C313.081 218.632 313.06 218.688 313.025 218.736C312.99 218.784 312.944 218.822 312.89 218.847C312.836 218.872 312.777 218.882 312.718 218.878C312.579 218.872 312.445 218.823 312.335 218.737C312.226 218.651 312.146 218.533 312.107 218.4L304.657 191.919C304.643 191.868 304.641 191.815 304.65 191.763C304.659 191.711 304.68 191.662 304.71 191.619C304.741 191.575 304.78 191.54 304.826 191.513C304.872 191.487 304.923 191.472 304.976 191.468Z" fill="black"/>
<path d="M129.773 87.3262H119.72V88.6542H129.773V87.3262Z" fill="#9468B4"/>
<path d="M82.536 102.386H81.208C81.2115 98.4042 82.7901 94.5858 85.5992 91.7643C88.4083 88.9427 92.2197 87.3472 96.2011 87.3262H114.262V88.6542H96.2011C92.5719 88.6752 89.0983 90.1308 86.5382 92.7033C83.9782 95.2758 82.5395 98.7564 82.536 102.386Z" fill="#9468B4"/>
<path d="M252.998 91.9746H96.201C90.4582 91.9746 85.8027 96.6301 85.8027 102.373V128.189C85.8027 133.932 90.4582 138.587 96.201 138.587H252.998C258.741 138.587 263.396 133.932 263.396 128.189V102.373C263.396 96.6301 258.741 91.9746 252.998 91.9746Z" fill="#9468B4"/>
<path d="M153.385 108.256L155.669 112.877L160.782 113.621L157.077 117.22L157.954 122.319L153.385 119.916L148.817 122.319L149.693 117.22L145.988 113.621L151.101 112.877L153.385 108.256Z" fill="white"/>
<path d="M174.128 108.256L176.413 112.877L181.525 113.621L177.82 117.22L178.697 122.319L174.128 119.916L169.56 122.319L170.437 117.22L166.731 113.621L171.844 112.877L174.128 108.256Z" fill="white"/>
<path d="M194.872 108.256L197.156 112.877L202.269 113.621L198.577 117.22L199.44 122.319L194.872 119.916L190.303 122.319L191.18 117.22L187.475 113.621L192.587 112.877L194.872 108.256Z" fill="white"/>
<path d="M215.615 108.256L217.899 112.877L223.012 113.621L219.32 117.22L220.183 122.319L215.615 119.916L211.046 122.319L211.923 117.22L208.218 113.621L213.331 112.877L215.615 108.256Z" fill="white"/>
<path opacity="0.3" d="M236.358 111.257L237.447 113.474C237.545 113.667 237.688 113.833 237.863 113.958C238.039 114.083 238.243 114.163 238.457 114.191L240.9 114.55L239.134 116.276C238.98 116.426 238.865 116.61 238.798 116.813C238.731 117.017 238.714 117.234 238.749 117.445L239.161 119.889L236.983 118.8C236.788 118.706 236.575 118.656 236.358 118.654C236.146 118.653 235.937 118.703 235.748 118.8L233.556 119.955L233.928 117.472C233.963 117.26 233.946 117.043 233.879 116.84C233.812 116.636 233.697 116.452 233.543 116.303L231.777 114.577L234.22 114.218C234.44 114.192 234.65 114.112 234.831 113.984C235.012 113.857 235.158 113.686 235.256 113.488L236.345 111.27L236.358 111.257ZM236.345 108.269L234.061 112.89L228.948 113.634L232.653 117.246L231.777 122.332L236.345 119.928L240.914 122.332L240.037 117.246L243.742 113.634L238.629 112.89L236.345 108.269Z" fill="white"/>
<path opacity="0.2" d="M118.192 131.23C127.001 131.23 134.142 124.089 134.142 115.28C134.142 106.472 127.001 99.3311 118.192 99.3311C109.384 99.3311 102.243 106.472 102.243 115.28C102.243 124.089 109.384 131.23 118.192 131.23Z" fill="white"/>
<path d="M131.367 115.281C131.37 118.211 130.395 121.059 128.597 123.373C126.798 125.687 124.279 127.334 121.438 128.054C118.597 128.773 115.598 128.524 112.915 127.346C110.231 126.168 108.018 124.128 106.626 121.549C105.574 119.628 105.025 117.471 105.032 115.281C105.141 111.861 106.576 108.618 109.033 106.237C111.491 103.857 114.778 102.525 118.199 102.525C121.621 102.525 124.908 103.857 127.366 106.237C129.823 108.618 131.258 111.861 131.367 115.281Z" fill="white"/>
<path d="M129.773 121.549C128.647 123.638 126.977 125.384 124.939 126.6C122.902 127.817 120.573 128.459 118.2 128.459C115.826 128.459 113.497 127.817 111.46 126.6C109.422 125.384 107.752 123.638 106.626 121.549C110.053 119.262 114.08 118.042 118.2 118.042C122.319 118.042 126.346 119.262 129.773 121.549Z" fill="#263238"/>
<path d="M124.063 110.832C124.063 111.993 123.719 113.127 123.074 114.093C122.429 115.058 121.512 115.81 120.439 116.255C119.367 116.699 118.187 116.815 117.048 116.589C115.909 116.362 114.863 115.803 114.042 114.982C113.222 114.161 112.663 113.115 112.436 111.977C112.21 110.838 112.326 109.658 112.77 108.585C113.214 107.513 113.967 106.596 114.932 105.951C115.897 105.306 117.032 104.962 118.193 104.962C119.75 104.962 121.243 105.58 122.344 106.681C123.444 107.782 124.063 109.275 124.063 110.832Z" fill="#FFC3BD"/>
<path d="M242.189 253.964H215.615V255.292H242.189V253.964Z" fill="#9468B4"/>
<path d="M252.998 204.031H96.201C90.4582 204.031 85.8027 208.687 85.8027 214.429V240.246C85.8027 245.989 90.4582 250.644 96.201 250.644H252.998C258.741 250.644 263.396 245.989 263.396 240.246V214.429C263.396 208.687 258.741 204.031 252.998 204.031Z" fill="#9468B4"/>
<path d="M153.385 220.299L155.669 224.934L160.782 225.664L157.077 229.276L157.954 234.362L153.385 231.959L148.817 234.362L149.693 229.276L145.988 225.664L151.101 224.934L153.385 220.299Z" fill="white"/>
<path d="M174.128 220.299L176.413 224.934L181.525 225.664L177.82 229.276L178.697 234.362L174.128 231.959L169.56 234.362L170.437 229.276L166.731 225.664L171.844 224.934L174.128 220.299Z" fill="white"/>
<path d="M194.872 220.299L197.156 224.934L202.269 225.664L198.577 229.276L199.44 234.362L194.872 231.959L190.303 234.362L191.18 229.276L187.475 225.664L192.587 224.934L194.872 220.299Z" fill="white"/>
<path d="M215.615 220.299L217.899 224.934L223.012 225.664L219.32 229.276L220.183 234.362L215.615 231.959L211.046 234.362L211.923 229.276L208.218 225.664L213.331 224.934L215.615 220.299Z" fill="white"/>
<path d="M236.358 220.299L238.642 224.934L243.755 225.664L240.063 229.276L240.926 234.362L236.358 231.959L231.79 234.362L232.666 229.276L228.961 225.664L234.074 224.934L236.358 220.299Z" fill="white"/>
<path opacity="0.2" d="M129.479 238.613C135.708 232.384 135.708 222.286 129.479 216.057C123.25 209.829 113.152 209.829 106.923 216.057C100.695 222.286 100.695 232.384 106.923 238.613C113.152 244.841 123.25 244.841 129.479 238.613Z" fill="white"/>
<path d="M131.367 227.324C131.373 230.256 130.4 233.105 128.603 235.421C126.805 237.737 124.286 239.387 121.445 240.108C118.603 240.83 115.602 240.582 112.918 239.404C110.233 238.226 108.019 236.185 106.626 233.605C105.574 231.679 105.025 229.519 105.032 227.324C105.141 223.904 106.576 220.661 109.033 218.28C111.491 215.9 114.778 214.568 118.199 214.568C121.621 214.568 124.908 215.9 127.366 218.28C129.823 220.661 131.258 223.904 131.367 227.324Z" fill="white"/>
<path opacity="0.5" d="M129.773 233.606C128.644 235.691 126.973 237.433 124.935 238.647C122.898 239.86 120.571 240.501 118.2 240.501C115.828 240.501 113.501 239.86 111.464 238.647C109.426 237.433 107.755 235.691 106.626 233.606C110.053 231.319 114.08 230.099 118.2 230.099C122.319 230.099 126.346 231.319 129.773 233.606Z" fill="#9468B4"/>
<path d="M124.063 222.822C124.065 223.984 123.723 225.12 123.08 226.087C122.437 227.054 121.521 227.808 120.448 228.255C119.376 228.701 118.196 228.819 117.056 228.594C115.917 228.369 114.869 227.811 114.047 226.991C113.225 226.17 112.665 225.125 112.437 223.986C112.209 222.847 112.325 221.666 112.769 220.592C113.213 219.519 113.965 218.602 114.931 217.956C115.896 217.31 117.031 216.966 118.193 216.966C119.747 216.966 121.238 217.582 122.339 218.68C123.439 219.778 124.059 221.268 124.063 222.822Z" fill="#FFB573"/>
<path d="M252.998 148.003H96.201C90.4582 148.003 85.8027 152.658 85.8027 158.401V184.217C85.8027 189.96 90.4582 194.616 96.201 194.616H252.998C258.741 194.616 263.396 189.96 263.396 184.217V158.401C263.396 152.658 258.741 148.003 252.998 148.003Z" fill="#9468B4"/>
<path d="M258.576 175.293L247.421 194.615H275.309L258.576 175.293Z" fill="#9468B4"/>
<path d="M153.385 164.271L155.669 168.905L160.782 169.649L157.077 173.248L157.954 178.334L153.385 175.93L148.817 178.334L149.693 173.248L145.988 169.649L151.101 168.905L153.385 164.271Z" fill="white"/>
<path d="M174.128 164.271L176.413 168.905L181.525 169.649L177.82 173.248L178.697 178.334L174.128 175.93L169.56 178.334L170.437 173.248L166.731 169.649L171.844 168.905L174.128 164.271Z" fill="white"/>
<path opacity="0.3" d="M194.871 167.272L195.96 169.49C196.056 169.685 196.198 169.854 196.374 169.981C196.55 170.108 196.754 170.19 196.969 170.22L199.4 170.592L197.633 172.319C197.48 172.468 197.364 172.652 197.297 172.856C197.23 173.059 197.213 173.276 197.248 173.487L197.66 175.931L195.482 174.775C195.29 174.672 195.076 174.617 194.858 174.616C194.644 174.615 194.433 174.67 194.247 174.775L192.056 175.931L192.468 173.487C192.502 173.276 192.486 173.059 192.418 172.856C192.351 172.652 192.236 172.468 192.082 172.319L190.316 170.592L192.76 170.234C192.975 170.204 193.179 170.121 193.355 169.994C193.531 169.867 193.673 169.698 193.769 169.503L194.858 167.285L194.871 167.272ZM194.858 164.284L192.574 168.919L187.461 169.663L191.166 173.261L190.29 178.348L194.858 175.944L199.426 178.348L198.55 173.261L202.255 169.663L197.142 168.919L194.858 164.284Z" fill="white"/>
<path opacity="0.3" d="M215.615 167.272L216.704 169.49C216.799 169.685 216.941 169.853 217.117 169.98C217.293 170.108 217.498 170.19 217.713 170.22L220.156 170.579L218.39 172.305C218.237 172.454 218.121 172.638 218.054 172.842C217.987 173.045 217.97 173.262 218.005 173.474L218.417 175.917L216.239 174.762C216.047 174.658 215.833 174.603 215.615 174.602C215.401 174.602 215.19 174.657 215.004 174.762L212.813 175.917L213.224 173.474C213.259 173.262 213.242 173.045 213.175 172.842C213.108 172.638 212.993 172.454 212.839 172.305L211.073 170.579L213.516 170.22C213.732 170.19 213.936 170.108 214.112 169.98C214.288 169.853 214.43 169.685 214.526 169.49L215.615 167.272ZM215.615 164.271L213.331 168.905L208.218 169.649L211.923 173.248L211.046 178.334L215.615 175.93L220.183 178.334L219.32 173.248L223.025 169.649L217.912 168.905L215.628 164.271H215.615Z" fill="white"/>
<path opacity="0.3" d="M236.358 167.272L237.447 169.49C237.543 169.685 237.685 169.853 237.861 169.98C238.036 170.108 238.241 170.19 238.456 170.22L240.9 170.579L239.133 172.305C238.98 172.454 238.864 172.638 238.797 172.842C238.73 173.045 238.713 173.262 238.748 173.474L239.16 175.917L236.982 174.762C236.79 174.658 236.576 174.603 236.358 174.602C236.144 174.602 235.933 174.657 235.747 174.762L233.556 175.917L233.968 173.474C234.002 173.262 233.986 173.045 233.918 172.842C233.851 172.638 233.736 172.454 233.582 172.305L231.816 170.579L234.26 170.22C234.475 170.19 234.679 170.108 234.855 169.98C235.031 169.853 235.173 169.685 235.269 169.49L236.358 167.272ZM236.358 164.271L234.074 168.905L228.961 169.649L232.666 173.248L231.79 178.334L236.358 175.93L240.926 178.334L240.05 173.248L243.755 169.649L238.642 168.905L236.358 164.271Z" fill="white"/>
<path opacity="0.2" d="M118.192 187.258C127.001 187.258 134.142 180.117 134.142 171.309C134.142 162.5 127.001 155.359 118.192 155.359C109.384 155.359 102.243 162.5 102.243 171.309C102.243 180.117 109.384 187.258 118.192 187.258Z" fill="white"/>
<path d="M131.366 171.309C131.37 174.239 130.395 177.087 128.596 179.401C126.798 181.715 124.279 183.362 121.438 184.082C118.597 184.801 115.597 184.552 112.914 183.374C110.231 182.196 108.018 180.156 106.626 177.577C105.573 175.656 105.025 173.499 105.032 171.309C104.976 169.544 105.275 167.787 105.912 166.14C106.548 164.494 107.509 162.992 108.737 161.724C109.965 160.456 111.436 159.448 113.061 158.76C114.687 158.072 116.434 157.717 118.199 157.717C119.964 157.717 121.712 158.072 123.337 158.76C124.962 159.448 126.433 160.456 127.661 161.724C128.889 162.992 129.85 164.494 130.487 166.14C131.123 167.787 131.422 169.544 131.366 171.309Z" fill="white"/>
<path d="M129.773 177.577C128.644 179.663 126.973 181.405 124.935 182.618C122.898 183.832 120.571 184.473 118.2 184.473C115.828 184.473 113.501 183.832 111.464 182.618C109.426 181.405 107.755 179.663 106.626 177.577C110.053 175.291 114.08 174.07 118.2 174.07C122.319 174.07 126.346 175.291 129.773 177.577Z" fill="#9468B4"/>
<path d="M124.063 166.807C124.063 167.968 123.719 169.103 123.074 170.068C122.429 171.034 121.512 171.786 120.439 172.23C119.367 172.675 118.186 172.791 117.048 172.564C115.909 172.338 114.863 171.779 114.042 170.958C113.222 170.137 112.663 169.091 112.436 167.952C112.21 166.814 112.326 165.634 112.77 164.561C113.214 163.488 113.967 162.572 114.932 161.927C115.897 161.282 117.032 160.938 118.193 160.938C118.964 160.936 119.728 161.086 120.441 161.381C121.154 161.675 121.802 162.107 122.347 162.653C122.893 163.198 123.325 163.846 123.62 164.559C123.914 165.272 124.065 166.036 124.063 166.807Z" fill="#B55B52"/>
</svg>
